<svg width="50" height="51" viewBox="0 0 50 51" fill="none" xmlns="http://www.w3.org/2000/svg">
<g clip-path="url(#clip0_7443_149021)">
<path d="M22.9154 21.3086H14.582V29.6419H22.9154V21.3086Z" fill="white" fill-opacity="0.8"/>
<path d="M10.4167 21.3086H0.420833C0.145833 22.6544 0 24.0482 0 25.4753C0 26.9044 0.145833 28.2961 0.420833 29.6419H10.4167V21.3086Z" fill="white" fill-opacity="0.8"/>
<path d="M14.582 17.1416H22.9154V4.6416H20.832C18.655 4.6416 16.557 4.98118 14.582 5.60202V17.1416Z" fill="white" fill-opacity="0.8"/>
<path d="M14.582 33.8086V45.3503C16.557 45.9711 18.655 46.3086 20.832 46.3086H22.9154V33.8086H14.582Z" fill="white" fill-opacity="0.8"/>
<path d="M10.4146 17.1432V7.46191C6.59375 9.68066 3.53542 13.0682 1.75 17.1432H10.4146Z" fill="white" fill-opacity="0.8"/>
<path d="M10.4146 33.8086H1.75C3.53542 37.8857 6.59375 41.2711 10.4146 43.4878V33.8086Z" fill="white" fill-opacity="0.8"/>
<path d="M35.418 17.1416C38.8697 17.1416 41.668 14.3434 41.668 10.8916C41.668 7.43982 38.8697 4.6416 35.418 4.6416C31.9662 4.6416 29.168 7.43982 29.168 10.8916C29.168 14.3434 31.9662 17.1416 35.418 17.1416Z" fill="white" fill-opacity="0.8"/>
<path d="M35.4167 17.1416C29.6729 17.1416 25 21.8145 25 27.5583V33.8083C25 34.9583 25.9333 35.8916 27.0833 35.8916H29.1667V44.2249C29.1667 45.3749 30.1 46.3083 31.25 46.3083H39.5833C40.7333 46.3083 41.6667 45.3749 41.6667 44.2249V35.8916H43.75C44.9 35.8916 45.8333 34.9583 45.8333 33.8083V27.5583C45.8333 21.8145 41.1604 17.1416 35.4167 17.1416Z" fill="white" fill-opacity="0.8"/>
</g>
<defs>
<clipPath id="clip0_7443_149021">
<rect width="50" height="50" fill="white" transform="translate(0 0.474609)"/>
</clipPath>
</defs>
</svg>
