<svg width="56" height="52" viewBox="0 0 56 52" fill="none" xmlns="http://www.w3.org/2000/svg">
<mask id="mask0_7164_67868" style="mask-type:luminance" maskUnits="userSpaceOnUse" x="0" y="0" width="56" height="52">
<rect width="50" height="52" transform="matrix(1 0 0.102441 0.994739 0 0)" fill="white"/>
</mask>
<g mask="url(#mask0_7164_67868)">
<path d="M29.4132 9.26718C29.1236 8.27576 28.194 7.54297 27.194 7.54297L12.2357 7.54297C11.0898 7.54297 10.2522 8.51284 10.3743 9.69824L13.7036 42.0273C13.8257 43.2127 14.8631 44.1825 16.0089 44.1825C17.1548 44.1825 17.9924 43.2127 17.8703 42.0273L16.5386 29.0956H28.2052L28.9716 31.682C29.2634 32.6949 30.1908 33.4062 31.1908 33.4062H41.9825C43.1283 33.4062 43.9659 32.4363 43.8439 31.2509L42.0682 14.0088C41.9461 12.8234 40.9088 11.8535 39.7629 11.8535L30.1796 11.8535L29.4132 9.26718Z" fill="white" fill-opacity="0.8"/>
</g>
</svg>
