<svg width="48" height="48" viewBox="0 0 48 48" fill="none" xmlns="http://www.w3.org/2000/svg">
<rect width="47.0222" height="47.0222" rx="10" fill="#FFDA00"/>
<g clip-path="url(#clip0_7449_149076)">
<path d="M14.5684 9.05367C14.0938 9.20602 13.7422 9.52828 13.6016 9.92672C13.5371 10.1201 13.5137 10.4365 13.5137 11.0927V11.9892H11.9434C10.1621 11.9892 9.95117 12.0244 9.54102 12.3759C9.40039 12.4931 9.23047 12.6982 9.16016 12.833L9.03125 13.0732V24.0009V34.9287L9.16016 35.1689C9.23047 35.3037 9.40039 35.5088 9.54102 35.6259C10.0039 36.0244 9.86328 36.0127 14.9902 36.0127C17.5273 36.0127 19.6074 35.9951 19.6074 35.9716C19.6074 35.9482 19.4902 35.708 19.3496 35.4326C18.7871 34.3427 18.4238 33.247 18.1602 31.8818C18.0371 31.2373 17.9961 29.4443 18.0781 28.6826C18.6992 23.2334 23.0176 18.8271 28.4434 18.1123C29.293 18.0009 30.7461 18.0009 31.5195 18.1123C33.5996 18.417 35.4043 19.1787 37.3496 20.5791L37.4785 20.6728V16.9345C37.4785 12.7392 37.4961 12.9502 37.0449 12.499C36.6289 12.083 36.4473 12.0244 35.416 12.0009L34.4902 11.9775V11.0869C34.4902 10.0732 34.4258 9.78024 34.127 9.47555C33.7988 9.14156 33.5234 9.03024 32.9961 9.03024C32.4746 9.03024 32.1875 9.14156 31.9062 9.45211C31.5664 9.80953 31.5312 9.95016 31.5137 11.0048L31.4902 11.9892H24.002H16.5137L16.4902 11.0048C16.4727 10.1904 16.4551 9.99117 16.3613 9.82125C16.0918 9.31149 15.6816 9.05367 15.0957 9.02438C14.8848 9.01266 14.6504 9.02438 14.5684 9.05367Z" fill="white"/>
<path d="M28.7219 21.0988C25.095 21.6555 22.1829 24.298 21.2864 27.8371C20.8821 29.4367 20.9466 31.2414 21.4622 32.7883C22.3645 35.4777 24.4563 37.5988 27.1165 38.507C28.9739 39.1398 30.9251 39.1457 32.8059 38.5305C37.5403 36.9719 40.1184 31.8156 38.513 27.1105C38.0735 25.8273 37.4172 24.7668 36.4329 23.7414C35.1614 22.4289 33.6145 21.5793 31.7688 21.1867C31.0071 21.0226 29.4837 20.9816 28.7219 21.0988ZM30.7141 24.1633C30.9837 24.298 31.2122 24.5265 31.3645 24.8195C31.4641 25.0012 31.4758 25.2004 31.4934 26.7648L31.511 28.4992L32.5188 28.5226C33.6204 28.5402 33.72 28.5695 34.0774 28.9269C34.3469 29.1965 34.4465 29.4308 34.4817 29.8644C34.5286 30.55 34.2708 31.0363 33.7083 31.341C33.4739 31.464 33.4094 31.4699 31.5051 31.4699C29.6008 31.4699 29.5364 31.464 29.302 31.341C28.968 31.1594 28.7102 30.8781 28.6048 30.5734C28.47 30.175 28.47 25.3234 28.6048 24.925C28.7454 24.5265 29.0969 24.2043 29.5715 24.0519C29.8235 23.9699 30.4622 24.0285 30.7141 24.1633Z" fill="white" fill-opacity="0.8"/>
</g>
<defs>
<clipPath id="clip0_7449_149076">
<rect width="30" height="30" fill="white" transform="translate(9 9)"/>
</clipPath>
</defs>
</svg>
