<svg width="30" height="30" viewBox="0 0 30 30" fill="none" xmlns="http://www.w3.org/2000/svg">
<path d="M7.96573 24.0285L11.3579 28.9316C11.4423 29.0407 11.4999 29.1488 11.5249 29.2454C11.5499 29.342 11.5415 29.4237 11.5005 29.4825C11.4596 29.5412 11.3875 29.575 11.2913 29.5804C11.1952 29.5858 11.0783 29.5628 10.9523 29.5135L5.40986 27.6947C5.28238 27.6447 5.15004 27.5695 5.02627 27.4769C4.90251 27.3843 4.79171 27.2774 4.70515 27.1673C4.61858 27.0571 4.55933 26.9475 4.53339 26.8496C4.50745 26.7517 4.51576 26.669 4.55748 26.6098L4.97723 26.0077C3.5103 24.9041 -0.89051 21.5931 0.752937 17.0972C1.72329 21.0517 6.28793 24.1277 6.28793 24.1277L6.70768 23.5256C6.89118 23.2624 7.59458 23.5494 7.96606 24.028L7.96573 24.0285Z" fill="#0A77DB"/>
<path d="M22.9796 6.40257L20.8122 0.845105C20.7553 0.71944 20.7243 0.600841 20.7223 0.501006C20.7203 0.40117 20.7473 0.323545 20.8006 0.275787C20.854 0.228028 20.9319 0.211786 21.0266 0.228661C21.1214 0.245535 21.2297 0.294945 21.3409 0.372016L26.3106 3.42188C26.423 3.5 26.5343 3.6037 26.6333 3.72245C26.7323 3.84121 26.8154 3.9708 26.8741 4.09806C26.9329 4.22532 26.9652 4.34573 26.9679 4.44705C26.9705 4.54838 26.9433 4.62702 26.8891 4.67499L26.3421 5.16451C27.5139 6.57771 31.0293 10.8173 28.394 14.8166C28.3628 10.7416 24.6339 6.69307 24.6339 6.69307L24.0868 7.18259C23.8477 7.39658 23.2299 6.95481 22.9791 6.40295L22.9796 6.40257Z" fill="#0A77DB"/>
<path d="M13.6562 22.0003V19.8574" stroke="#0A77DB" stroke-width="2" stroke-miterlimit="10"/>
<path d="M13.6562 9.14334V7.00049" stroke="#0A77DB" stroke-width="2" stroke-miterlimit="10"/>
<path d="M10.0469 16.8816V17.1793C10.0469 18.6584 11.827 19.8578 14.0234 19.8578C16.2192 19.8578 18 18.6584 18 17.1793C18 15.7001 16.4206 14.5007 14.0234 14.5007C11.5553 14.5007 10.0469 13.3013 10.0469 11.8221C10.0469 10.343 11.827 9.14355 14.0234 9.14355C16.2192 9.14355 18 10.343 18 11.8221V12.1197" stroke="#0A77DB" stroke-width="2" stroke-miterlimit="10"/>
<path d="M24.2024 14C24.2024 19.0761 19.8811 23.25 14.4762 23.25C9.0713 23.25 4.75 19.0761 4.75 14C4.75 8.92386 9.0713 4.75 14.4762 4.75C19.8811 4.75 24.2024 8.92386 24.2024 14Z" stroke="#0A77DB" stroke-opacity="0.5" stroke-width="1.5"/>
</svg>
