<svg width="30" height="30" viewBox="0 0 30 30" fill="none" xmlns="http://www.w3.org/2000/svg">
<rect x="1.5" y="3.5" width="27" height="26" rx="4.5" fill="#0A77DB" fill-opacity="0.5" stroke="#0A77DB"/>
<rect x="6.10156" y="19.3228" width="8" height="7.67725" rx="1" fill="white"/>
<rect x="16.5156" y="19.3228" width="8" height="7.67725" rx="1" fill="white"/>
<path d="M9.29188 25.5261V23.9161H7.74188C7.66854 23.9161 7.60521 23.8894 7.55188 23.8361C7.49854 23.7828 7.47188 23.7194 7.47188 23.6461V22.5561C7.47188 22.4828 7.49854 22.4194 7.55188 22.3661C7.60521 22.3128 7.66854 22.2861 7.74188 22.2861H9.29188V20.7261C9.29188 20.6528 9.31854 20.5894 9.37188 20.5361C9.42521 20.4828 9.48854 20.4561 9.56188 20.4561H10.7819C10.8552 20.4561 10.9185 20.4828 10.9719 20.5361C11.0252 20.5894 11.0519 20.6528 11.0519 20.7261V22.2861H12.5819C12.6552 22.2861 12.7185 22.3128 12.7719 22.3661C12.8252 22.4194 12.8519 22.4828 12.8519 22.5561V23.6461C12.8519 23.7194 12.8252 23.7828 12.7719 23.8361C12.7185 23.8894 12.6552 23.9161 12.5819 23.9161H11.0519V25.5261C11.0519 25.5994 11.0252 25.6628 10.9719 25.7161C10.9185 25.7694 10.8552 25.7961 10.7819 25.7961H9.56188C9.48854 25.7961 9.42521 25.7694 9.37188 25.7161C9.31854 25.6628 9.29188 25.5994 9.29188 25.5261Z" fill="#0A77DB"/>
<path d="M18.9196 22.1661H22.4496C22.523 22.1661 22.5863 22.1928 22.6396 22.2461C22.693 22.2994 22.7196 22.3628 22.7196 22.4361V23.8561C22.7196 23.9294 22.693 23.9928 22.6396 24.0461C22.5863 24.0994 22.523 24.1261 22.4496 24.1261H18.9196C18.8463 24.1261 18.783 24.0994 18.7296 24.0461C18.6763 23.9928 18.6496 23.9294 18.6496 23.8561V22.4361C18.6496 22.3628 18.6763 22.2994 18.7296 22.2461C18.783 22.1928 18.8463 22.1661 18.9196 22.1661Z" fill="#0A77DB"/>
<path d="M3.83516 15.7095V10.2395L3.63516 9.22947L3.83516 8.62947H7.03516C7.52182 8.62947 7.95849 8.70614 8.34516 8.85947C8.73849 9.00614 9.04849 9.25947 9.27516 9.61947C9.50849 9.97281 9.62516 10.4628 9.62516 11.0895C9.62516 11.7161 9.50182 12.2128 9.25516 12.5795C9.00849 12.9395 8.66516 13.1961 8.22516 13.3495C7.79182 13.5028 7.29516 13.5795 6.73516 13.5795H5.63516V14.0995L5.73516 15.0995L5.63516 15.7095H3.83516ZM5.63516 12.0095H6.61516C6.96182 12.0095 7.23849 11.9461 7.44516 11.8195C7.65182 11.6861 7.75516 11.4428 7.75516 11.0895C7.75516 10.8428 7.70516 10.6595 7.60516 10.5395C7.50516 10.4128 7.36516 10.3295 7.18516 10.2895C7.01182 10.2495 6.80849 10.2295 6.57516 10.2295H5.53516L5.63516 12.0095ZM10.825 15.7095V10.2295L10.725 9.22947L10.825 8.62947H12.635V15.7095H10.825ZM15.4305 15.7095V10.2295L13.4305 10.3295V8.62947H19.2805V10.3295L17.2305 10.2295V14.1095L17.3405 15.1095L17.2305 15.7095H15.4305Z" fill="white"/>
<path d="M24.25 11.9585H22.75C22.5511 11.9585 22.3603 11.8444 22.2197 11.6412C22.079 11.438 22 11.1625 22 10.8752C22 10.5878 22.079 10.3123 22.2197 10.1091C22.3603 9.90597 22.5511 9.79183 22.75 9.79183H24.625C24.7245 9.79183 24.8198 9.8489 24.8902 9.95048C24.9605 10.0521 25 10.1898 25 10.3335C25 10.4772 25.0395 10.6149 25.1098 10.7165C25.1802 10.8181 25.2755 10.8752 25.375 10.8752C25.4745 10.8752 25.5698 10.8181 25.6402 10.7165C25.7105 10.6149 25.75 10.4772 25.75 10.3335C25.75 9.90252 25.6315 9.48919 25.4205 9.18445C25.2095 8.8797 24.9234 8.7085 24.625 8.7085H23.875V7.62516C23.875 7.4815 23.8355 7.34373 23.7652 7.24215C23.6948 7.14056 23.5995 7.0835 23.5 7.0835C23.4005 7.0835 23.3052 7.14056 23.2348 7.24215C23.1645 7.34373 23.125 7.4815 23.125 7.62516V8.7085H22.75C22.3522 8.7085 21.9706 8.93677 21.6893 9.3431C21.408 9.74943 21.25 10.3005 21.25 10.8752C21.25 11.4498 21.408 12.0009 21.6893 12.4072C21.9706 12.8136 22.3522 13.0418 22.75 13.0418H24.25C24.4489 13.0418 24.6397 13.156 24.7803 13.3591C24.921 13.5623 25 13.8378 25 14.1252C25 14.4125 24.921 14.688 24.7803 14.8912C24.6397 15.0944 24.4489 15.2085 24.25 15.2085H22.375C22.2755 15.2085 22.1802 15.1514 22.1098 15.0498C22.0395 14.9483 22 14.8105 22 14.6668C22 14.5232 21.9605 14.3854 21.8902 14.2838C21.8198 14.1822 21.7245 14.1252 21.625 14.1252C21.5255 14.1252 21.4302 14.1822 21.3598 14.2838C21.2895 14.3854 21.25 14.5232 21.25 14.6668C21.25 15.0978 21.3685 15.5111 21.5795 15.8159C21.7905 16.1206 22.0766 16.2918 22.375 16.2918H23.125V17.3752C23.125 17.5188 23.1645 17.6566 23.2348 17.7582C23.3052 17.8598 23.4005 17.9168 23.5 17.9168C23.5995 17.9168 23.6948 17.8598 23.7652 17.7582C23.8355 17.6566 23.875 17.5188 23.875 17.3752V16.2918H24.25C24.6478 16.2918 25.0294 16.0636 25.3107 15.6572C25.592 15.2509 25.75 14.6998 25.75 14.1252C25.75 13.5505 25.592 12.9994 25.3107 12.5931C25.0294 12.1868 24.6478 11.9585 24.25 11.9585V11.9585Z" fill="#0A77DB"/>
<path d="M8.1 6H20.9C21.7832 6 22.5 5.616 22.5 5.14286V2.57143C22.5 2.09829 21.7832 1.71429 20.9 1.71429H19.0264C18.3656 0.716571 16.5864 0 14.5 0C12.4136 0 10.6344 0.716571 9.9736 1.71429H8.1C7.2168 1.71429 6.5 2.09829 6.5 2.57143V5.14286C6.5 5.616 7.2168 6 8.1 6Z" fill="#0A77DB"/>
</svg>
