<svg width="193" height="189" viewBox="0 0 193 189" fill="none" xmlns="http://www.w3.org/2000/svg">
<g opacity="0.6">
<rect width="193" height="189" fill="white"/>
<path d="M49.4934 152.663C76.8029 166.936 121.081 166.936 148.39 152.663C175.7 138.389 175.704 115.241 148.39 100.967C121.077 86.6941 76.8029 86.6903 49.4934 100.967C22.1839 115.244 22.1839 138.386 49.4934 152.663Z" fill="#EBEBEB"/>
<path d="M156.422 117.248L152.439 114.98C152.439 114.98 151.462 106.623 152.11 100.151C153.025 91.053 159.024 80.1174 166.176 82.6803C173.329 85.2431 162.891 94.5306 160.575 102.242C158.259 109.953 156.422 117.248 156.422 117.248Z" fill="#407BFF"/>
<path opacity="0.1" d="M156.422 117.248L152.439 114.98C152.439 114.98 151.462 106.623 152.11 100.151C153.025 91.053 159.024 80.1174 166.176 82.6803C173.329 85.2431 162.891 94.5306 160.575 102.242C158.259 109.953 156.422 117.248 156.422 117.248Z" fill="black"/>
<path d="M154.35 116.224C154.313 116.225 154.276 116.212 154.248 116.188C154.22 116.165 154.201 116.132 154.195 116.096C152.841 105.89 156.55 90.4636 164.038 84.6121C164.054 84.5999 164.072 84.5908 164.091 84.5853C164.11 84.5798 164.13 84.5781 164.149 84.5802C164.169 84.5823 164.188 84.5882 164.206 84.5976C164.223 84.607 164.238 84.6196 164.251 84.6348C164.276 84.6659 164.288 84.7057 164.284 84.7453C164.279 84.785 164.259 84.8213 164.228 84.8465C156.82 90.6374 153.157 105.943 154.5 116.054C154.506 116.094 154.495 116.134 154.471 116.166C154.446 116.198 154.41 116.219 154.369 116.224H154.35Z" fill="white"/>
<path d="M158.549 118.863L155.716 117.257C155.716 117.257 155.234 111.522 158.105 104.556C160.603 98.5077 166.806 93.4577 169.925 94.5161C173.044 95.5745 172.966 97.7404 171.446 100.012C169.925 102.284 160.672 107.701 158.549 118.863Z" fill="#407BFF"/>
<path d="M156.794 119.01C156.774 119.009 156.754 119.004 156.736 118.995C156.718 118.987 156.701 118.975 156.688 118.96C156.675 118.945 156.665 118.928 156.658 118.909C156.652 118.891 156.649 118.871 156.651 118.851C157.585 104.578 164.958 97.5583 169.389 96.4886C169.429 96.4793 169.471 96.4855 169.506 96.506C169.541 96.5264 169.567 96.5595 169.578 96.5982C169.587 96.6368 169.581 96.6774 169.56 96.7113C169.539 96.7453 169.505 96.7698 169.466 96.7796C164.799 97.9136 157.836 105.511 156.964 118.87C156.962 118.89 156.956 118.91 156.947 118.928C156.938 118.946 156.925 118.962 156.909 118.975C156.893 118.988 156.875 118.998 156.855 119.004C156.835 119.01 156.814 119.012 156.794 119.01Z" fill="white"/>
<path d="M41.6882 118.359C41.6882 118.359 42.217 109.979 37.2453 104.233C32.2736 98.4878 25.8004 98.5105 23.6581 99.5803C21.5158 100.65 20.076 103.708 23.7623 105.897C27.4486 108.085 35.2883 112.466 36.593 116.375L41.6882 118.359Z" fill="#407BFF"/>
<path opacity="0.1" d="M41.6882 118.359C41.6882 118.359 42.217 109.979 37.2453 104.233C32.2736 98.4878 25.8004 98.5105 23.6581 99.5803C21.5158 100.65 20.076 103.708 23.7623 105.897C27.4486 108.085 35.2883 112.466 36.593 116.375L41.6882 118.359Z" fill="black"/>
<path d="M39.3485 116.262C39.3007 116.261 39.2548 116.244 39.2193 116.212C39.1838 116.181 39.1611 116.138 39.1555 116.092C38.1326 106.819 28.6679 101.682 24.8967 101.1C24.8713 101.097 24.847 101.088 24.825 101.075C24.8031 101.062 24.7839 101.045 24.7687 101.025C24.7535 101.005 24.7424 100.982 24.7362 100.957C24.7301 100.933 24.7288 100.908 24.7326 100.883C24.7364 100.858 24.7452 100.834 24.7584 100.813C24.7716 100.791 24.789 100.773 24.8096 100.758C24.8302 100.743 24.8536 100.732 24.8785 100.726C24.9034 100.72 24.9292 100.719 24.9546 100.722C28.8146 101.316 38.4916 106.57 39.5415 116.05C39.5442 116.075 39.5418 116.1 39.5345 116.124C39.5272 116.148 39.5151 116.17 39.4989 116.19C39.4828 116.209 39.4629 116.225 39.4404 116.237C39.4179 116.249 39.3932 116.256 39.3678 116.258L39.3485 116.262Z" fill="white"/>
<path d="M37.5076 114.134C36.2608 111.352 34.8519 110.105 30.7989 110.77C26.7459 111.435 27.3249 111.333 22.3648 110.09C20.2727 109.568 17.922 109.485 15.9148 110.369C14.2202 111.125 12.9541 112.637 14.5946 114.248C16.4397 116.047 19.1919 116.663 21.23 118.247C21.6923 118.567 22.0599 119.001 22.2953 119.506C22.8319 120.844 21.7588 122.352 22.0715 123.754C22.3841 125.157 23.8895 125.905 25.3023 125.996C26.715 126.087 28.1085 125.671 29.5174 125.512C30.9263 125.353 32.5089 125.512 33.4816 126.536C34.5238 127.621 34.5508 129.356 35.5197 130.509C36.9711 132.237 40.5377 132.717 42.4677 131.643L47.5204 128.789C50.8593 124.382 45.5904 120.889 42.8305 117.468C41.4911 115.801 38.2564 115.809 37.5076 114.134Z" fill="#407BFF"/>
<path d="M44.3895 126.127C44.3567 126.127 44.3242 126.119 44.2957 126.103C44.2671 126.087 44.2435 126.064 44.2274 126.036C38.4644 116.892 22.7735 112.265 17.2229 111.887C17.1723 111.884 17.1254 111.86 17.0922 111.823C17.0589 111.785 17.0421 111.737 17.0453 111.687C17.0493 111.637 17.0728 111.591 17.111 111.558C17.1491 111.525 17.1989 111.507 17.2499 111.509C22.8739 111.887 38.7153 116.582 44.5555 125.847C44.5814 125.89 44.589 125.942 44.5767 125.99C44.5645 126.039 44.5333 126.081 44.4899 126.108C44.4583 126.121 44.424 126.128 44.3895 126.127Z" fill="white"/>
<path d="M26.1359 121.818C26.1058 121.819 26.076 121.813 26.0491 121.799C26.0222 121.786 25.999 121.767 25.9815 121.743C25.9508 121.703 25.9376 121.652 25.9448 121.603C25.9521 121.553 25.9791 121.508 26.0201 121.478C26.2208 121.331 31.0072 117.891 35.6701 117.823C35.6952 117.823 35.7202 117.827 35.7436 117.836C35.767 117.845 35.7883 117.859 35.8063 117.876C35.8243 117.893 35.8386 117.914 35.8483 117.936C35.8581 117.959 35.8631 117.984 35.8631 118.008C35.8636 118.033 35.8591 118.058 35.8499 118.081C35.8406 118.104 35.8268 118.125 35.8093 118.143C35.7917 118.161 35.7707 118.175 35.7475 118.185C35.7243 118.195 35.6993 118.201 35.6739 118.201C31.1462 118.265 26.3096 121.747 26.2594 121.781C26.2245 121.808 26.1804 121.822 26.1359 121.818Z" fill="white"/>
<path d="M44.0312 129.34C44.0725 129.89 44.2453 130.423 44.5356 130.895C44.826 131.367 45.2258 131.765 45.7026 132.058L92.536 158.537C93.054 158.795 93.6266 158.929 94.2074 158.929C94.7882 158.929 95.3608 158.795 95.8788 158.537L159.955 122.306C160.46 122.045 160.883 121.654 161.177 121.175C161.472 120.696 161.628 120.147 161.628 119.588C161.628 119.029 161.472 118.48 161.177 118.001C160.883 117.522 160.46 117.131 159.955 116.87L113.125 90.4103C112.607 90.1529 112.035 90.0188 111.454 90.0188C110.873 90.0188 110.3 90.1529 109.782 90.4103L45.7026 126.63C45.2268 126.922 44.8276 127.32 44.5373 127.79C44.247 128.261 44.0737 128.792 44.0312 129.34Z" fill="#37474F"/>
<path d="M63.3545 116.643L45.7027 126.63C45.1976 126.891 44.7749 127.282 44.48 127.761C44.1851 128.24 44.0293 128.789 44.0293 129.348C44.0293 129.907 44.1851 130.456 44.48 130.935C44.7749 131.414 45.1976 131.805 45.7027 132.066L92.5361 158.545C93.0512 158.808 93.6265 158.938 94.2074 158.923V116.643H63.3545Z" fill="#263238"/>
<path d="M42.4602 126.682C41.995 126.372 41.6108 125.959 41.3386 125.476C41.0664 124.993 40.9138 124.455 40.8931 123.904V69.1734C40.9241 68.6053 41.0917 68.0525 41.3821 67.5599C41.6726 67.0673 42.0777 66.6487 42.5644 66.3384L106.64 30.1071C107.124 29.81 107.681 29.6475 108.252 29.6372C108.823 29.6269 109.386 29.7692 109.88 30.0486C110.375 30.328 110.782 30.7342 111.059 31.2233C111.335 31.7124 111.471 32.2661 111.45 32.8249V87.5593C111.418 88.1272 111.25 88.6797 110.96 89.1723C110.67 89.6648 110.265 90.0835 109.779 90.3943L45.7026 126.629C45.2043 126.887 44.6512 127.026 44.0879 127.035C43.5246 127.044 42.967 126.923 42.4602 126.682Z" fill="#455A64"/>
<path d="M48.7369 71.7178L41.3836 67.5598C41.0907 68.0504 40.93 68.6058 40.9165 69.1739V123.904C40.9372 124.455 41.0899 124.994 41.3621 125.476C41.6343 125.959 42.0185 126.372 42.4837 126.683C42.9905 126.922 43.5477 127.041 44.1103 127.031C44.6728 127.02 45.225 126.88 45.7222 126.622L53.033 122.491L48.7369 71.7178Z" fill="#263238"/>
<path d="M44.0312 70.9493V125.676C44.0312 126.719 44.7801 127.143 45.7026 126.621L109.779 90.3936C110.265 90.0828 110.67 89.6642 110.96 89.1716C111.25 88.6791 111.418 88.1265 111.45 87.5586V32.828C111.45 31.7847 110.701 31.3614 109.779 31.883L45.7026 68.1143C45.2158 68.4247 44.8108 68.8432 44.5203 69.3358C44.2299 69.8285 44.0623 70.3813 44.0312 70.9493Z" fill="#37474F"/>
<path d="M45.7026 128.519L92.536 154.979C93.0539 155.236 93.6266 155.371 94.2074 155.371C94.7882 155.371 95.3608 155.236 95.8787 154.979L159.955 118.748C160.881 118.226 160.881 117.379 159.955 116.858L113.125 90.3978C112.607 90.1405 112.035 90.0063 111.454 90.0063C110.873 90.0063 110.3 90.1405 109.782 90.3978L45.7026 126.629C44.7762 127.143 44.7762 127.99 45.7026 128.519Z" fill="#455A64"/>
<path d="M46.6022 71.1507L108.883 35.94C109.435 35.6263 109.887 35.8795 109.887 36.507V83.8817C109.867 84.2225 109.766 84.5539 109.592 84.8494C109.418 85.1449 109.175 85.3961 108.883 85.5827L46.6022 120.793C46.0464 121.107 45.5986 120.854 45.5986 120.226V72.8517C45.6172 72.5108 45.7178 72.179 45.8922 71.8834C46.0666 71.5878 46.3099 71.3367 46.6022 71.1507Z" fill="white"/>
<path d="M51.1373 127.095L110.616 93.4526C110.875 93.3241 111.161 93.2571 111.452 93.2571C111.742 93.2571 112.028 93.3241 112.287 93.4526L115.333 95.1725C115.434 95.206 115.521 95.2696 115.583 95.3543C115.645 95.4391 115.679 95.5407 115.679 95.645C115.679 95.7492 115.645 95.8509 115.583 95.9356C115.521 96.0204 115.434 96.084 115.333 96.1175L55.8426 129.756C55.5836 129.884 55.2973 129.951 55.007 129.951C54.7166 129.951 54.4303 129.884 54.1713 129.756L51.1373 128.04C51.0365 128.006 50.9489 127.942 50.8869 127.858C50.8249 127.773 50.7915 127.671 50.7915 127.567C50.7915 127.463 50.8249 127.361 50.8869 127.276C50.9489 127.192 51.0365 127.128 51.1373 127.095Z" fill="#263238"/>
<path d="M58.9803 131.543L118.455 97.9006C118.715 97.7721 119.002 97.7051 119.293 97.7051C119.584 97.7051 119.871 97.7721 120.13 97.9006L138.84 108.485C138.941 108.518 139.028 108.582 139.09 108.666C139.152 108.751 139.186 108.853 139.186 108.957C139.186 109.061 139.152 109.163 139.09 109.248C139.028 109.333 138.941 109.396 138.84 109.43L79.4306 143.004C79.1709 143.132 78.8839 143.199 78.5929 143.199C78.302 143.199 78.015 143.132 77.7553 143.004L58.9803 132.469C58.8843 132.433 58.8017 132.37 58.7434 132.287C58.685 132.204 58.6538 132.106 58.6538 132.006C58.6538 131.905 58.685 131.807 58.7434 131.724C58.8017 131.642 58.8843 131.578 58.9803 131.543Z" fill="#263238"/>
<path d="M112.295 113.021L114.16 111.967C114.237 111.921 114.233 111.85 114.16 111.8L112.006 110.583C111.96 110.56 111.909 110.548 111.857 110.548C111.805 110.548 111.754 110.56 111.709 110.583L109.848 111.638C109.767 111.683 109.771 111.755 109.848 111.804L112.002 113.021C112.047 113.044 112.098 113.056 112.149 113.056C112.2 113.056 112.25 113.044 112.295 113.021ZM108.621 108.863L106.76 109.918C106.679 109.96 106.683 110.035 106.76 110.084L108.914 111.301C108.96 111.325 109.011 111.337 109.062 111.337C109.114 111.337 109.165 111.325 109.211 111.301L111.075 110.247C111.153 110.201 111.149 110.126 111.075 110.08L108.918 108.863C108.872 108.84 108.821 108.828 108.769 108.828C108.717 108.828 108.666 108.84 108.621 108.863ZM102.607 112.265L99.453 114.046C99.3758 114.091 99.3797 114.167 99.453 114.216L101.607 115.433C101.653 115.456 101.704 115.468 101.755 115.468C101.807 115.468 101.858 115.456 101.904 115.433L105.054 113.653C105.135 113.607 105.127 113.532 105.054 113.486L102.9 112.265C102.855 112.242 102.804 112.23 102.753 112.23C102.702 112.23 102.652 112.242 102.607 112.265ZM105.899 110.402L104.039 111.456C103.958 111.502 103.961 111.577 104.039 111.623L106.193 112.84C106.239 112.863 106.289 112.875 106.341 112.875C106.393 112.875 106.444 112.863 106.49 112.84L108.354 111.785C108.431 111.74 108.428 111.668 108.354 111.619L106.196 110.375C106.15 110.352 106.1 110.34 106.048 110.34C105.996 110.34 105.945 110.352 105.899 110.375V110.402ZM98.5922 114.533L96.7317 115.584C96.6507 115.63 96.6584 115.705 96.7317 115.754L98.8856 116.971C98.9311 116.994 98.9814 117.005 99.0323 117.005C99.0832 117.005 99.1334 116.994 99.179 116.971L101.043 115.917C101.121 115.871 101.117 115.796 101.043 115.75L98.8895 114.533C98.8435 114.51 98.7925 114.498 98.7408 114.498C98.6891 114.498 98.6382 114.51 98.5922 114.533ZM95.8902 116.072L94.0297 117.126C93.9487 117.168 93.9564 117.244 94.0297 117.293L96.1836 118.51C96.2295 118.533 96.2805 118.545 96.3322 118.545C96.3839 118.545 96.4349 118.533 96.4808 118.51L98.3452 117.455C98.4224 117.41 98.4185 117.334 98.3452 117.289L96.1681 116.045C96.1222 116.022 96.0712 116.01 96.0195 116.01C95.9678 116.01 95.9169 116.022 95.8709 116.045L95.8902 116.072ZM104.363 121.024L106.223 119.969C106.305 119.924 106.297 119.852 106.223 119.803L104.07 118.585C104.024 118.562 103.974 118.55 103.923 118.55C103.872 118.55 103.821 118.562 103.776 118.585L101.912 119.64C101.835 119.685 101.838 119.757 101.912 119.806L104.066 121.024C104.111 121.041 104.159 121.048 104.207 121.045C104.255 121.042 104.302 121.028 104.344 121.005L104.363 121.024ZM101.638 122.562L103.502 121.507C103.579 121.466 103.575 121.39 103.502 121.341L101.348 120.124C101.302 120.101 101.251 120.089 101.2 120.089C101.148 120.089 101.097 120.101 101.051 120.124L99.1905 121.179C99.1095 121.224 99.1172 121.3 99.1905 121.345L101.344 122.562C101.389 122.579 101.436 122.587 101.484 122.583C101.531 122.58 101.577 122.566 101.618 122.543L101.638 122.562ZM98.9165 124.1L100.781 123.05C100.858 123.004 100.854 122.929 100.781 122.88L98.627 121.662C98.5807 121.64 98.5299 121.628 98.4784 121.628C98.4268 121.628 98.376 121.64 98.3298 121.662L96.4692 122.717C96.3882 122.762 96.3959 122.838 96.4692 122.883L98.6193 124.1C98.6641 124.118 98.7123 124.125 98.7604 124.122C98.8085 124.118 98.8552 124.105 98.8972 124.082L98.9165 124.1ZM96.2145 125.639L98.0788 124.588C98.156 124.543 98.1522 124.467 98.0788 124.418L95.925 123.201C95.879 123.178 95.8281 123.166 95.7764 123.166C95.7247 123.166 95.6737 123.178 95.6278 123.201L93.7672 124.252C93.6862 124.297 93.69 124.373 93.7672 124.422L95.9211 125.639C96.0053 125.666 96.0968 125.659 96.1759 125.62L96.2145 125.639ZM109.613 114.586L111.477 113.532C111.554 113.49 111.55 113.414 111.477 113.365L109.323 112.148C109.277 112.126 109.226 112.114 109.174 112.114C109.123 112.114 109.072 112.126 109.026 112.148L107.165 113.203C107.084 113.248 107.088 113.324 107.165 113.369L109.319 114.586C109.361 114.6 109.405 114.606 109.449 114.602C109.492 114.599 109.535 114.587 109.574 114.567L109.613 114.586ZM107.104 119.5L111.257 117.149C111.334 117.108 111.33 117.032 111.257 116.983L106.027 114.027C105.981 114.004 105.93 113.991 105.878 113.991C105.826 113.991 105.775 114.004 105.729 114.027L103.583 115.244C103.502 115.286 103.51 115.361 103.583 115.41L106.355 116.975C106.44 117.024 106.443 117.1 106.355 117.145L104.606 118.075C104.529 118.117 104.533 118.192 104.606 118.242L106.768 119.447C106.812 119.474 106.862 119.489 106.914 119.492C106.966 119.495 107.017 119.487 107.065 119.466L107.104 119.5ZM93.1882 117.61L91.3277 118.665C91.2467 118.71 91.2505 118.782 91.3277 118.831L93.4816 120.048C93.5275 120.072 93.5785 120.084 93.6302 120.084C93.6819 120.084 93.7329 120.072 93.7788 120.048L95.6432 118.994C95.7204 118.948 95.7165 118.877 95.6432 118.827L93.4893 117.61C93.44 117.577 93.3822 117.557 93.3222 117.554C93.2622 117.55 93.2025 117.563 93.1496 117.591L93.1882 117.61ZM90.4862 119.149L88.5639 120.203C88.4867 120.249 88.4906 120.324 88.5639 120.37L90.7178 121.587C90.7638 121.61 90.8147 121.622 90.8664 121.622C90.9181 121.622 90.9691 121.61 91.015 121.587L92.8794 120.532C92.9566 120.491 92.9528 120.415 92.8794 120.366L90.7101 119.137C90.6667 119.115 90.6189 119.103 90.5701 119.102C90.5213 119.101 90.4729 119.11 90.4283 119.13L90.4862 119.149ZM76.8141 136.385C76.8601 136.409 76.911 136.421 76.9627 136.421C77.0144 136.421 77.0654 136.409 77.1113 136.385L78.9757 135.331C79.0529 135.289 79.049 135.214 78.9757 135.165L76.8141 133.955C76.7682 133.932 76.7172 133.92 76.6655 133.92C76.6138 133.92 76.5628 133.932 76.5169 133.955L74.6564 135.01C74.5753 135.055 74.5792 135.131 74.6564 135.176L76.8141 136.385ZM68.6425 131.441L66.7781 132.496C66.7009 132.541 66.7048 132.613 66.7781 132.662L68.932 133.879C68.9779 133.903 69.0289 133.915 69.0806 133.915C69.1323 133.915 69.1833 133.903 69.2292 133.879L71.0936 132.825C71.1708 132.779 71.1669 132.708 71.0936 132.658L68.9397 131.441C68.8953 131.42 68.8464 131.409 68.7969 131.409C68.7474 131.409 68.6985 131.42 68.6541 131.441H68.6425ZM73.0236 135.051C73.0695 135.074 73.1205 135.086 73.1722 135.086C73.2239 135.086 73.2748 135.074 73.3208 135.051L75.1813 133.997C75.2624 133.955 75.2547 133.879 75.1813 133.83L73.0313 132.613C72.9853 132.59 72.9344 132.578 72.8827 132.578C72.831 132.578 72.78 132.59 72.7341 132.613L70.8697 133.668C70.7925 133.713 70.7964 133.789 70.8697 133.834L73.0236 135.051ZM81.6198 137.319L83.4842 136.265C83.5614 136.219 83.5575 136.147 83.4842 136.098L81.3303 134.881C81.2844 134.858 81.2334 134.846 81.1817 134.846C81.13 134.846 81.079 134.858 81.0331 134.881L79.1726 135.936C79.0915 135.977 79.0992 136.053 79.1726 136.102L81.3226 137.319C81.3697 137.345 81.4226 137.359 81.4765 137.359C81.5304 137.36 81.5837 137.347 81.6314 137.323L81.6198 137.319ZM78.6013 138.831C78.6472 138.854 78.6982 138.866 78.7499 138.866C78.8016 138.866 78.8526 138.854 78.8985 138.831L80.7629 137.777C80.8401 137.735 80.8362 137.659 80.7629 137.61L78.609 136.393C78.5631 136.37 78.5121 136.358 78.4604 136.358C78.4087 136.358 78.3577 136.37 78.3118 136.393L76.4513 137.448C76.3702 137.493 76.3741 137.569 76.4513 137.614L78.6013 138.831ZM71.3638 129.88L69.5033 130.935C69.4222 130.976 69.4261 131.052 69.5033 131.101L71.6571 132.318C71.7031 132.341 71.754 132.354 71.8058 132.354C71.8575 132.354 71.9084 132.341 71.9544 132.318L73.8187 131.264C73.8959 131.218 73.8921 131.143 73.8187 131.097L71.6649 129.88C71.6181 129.862 71.5676 129.854 71.5174 129.858C71.4671 129.862 71.4185 129.877 71.3754 129.903L71.3638 129.88ZM84.9741 122.188L83.1098 123.239C83.0326 123.284 83.0364 123.36 83.1098 123.405L85.2636 124.626C85.3099 124.648 85.3607 124.66 85.4123 124.66C85.4638 124.66 85.5146 124.648 85.5609 124.626L87.4214 123.575C87.5024 123.53 87.4986 123.454 87.4214 123.405L85.2675 122.188C85.2218 122.171 85.1728 122.164 85.124 122.167C85.0752 122.171 85.0279 122.186 84.9857 122.21L84.9741 122.188ZM74.1121 128.364L72.2516 129.415C72.1705 129.461 72.1744 129.536 72.2516 129.585L74.4055 130.802C74.4517 130.825 74.5025 130.836 74.5541 130.836C74.6056 130.836 74.6565 130.825 74.7027 130.802L76.5671 129.748C76.6443 129.702 76.6404 129.627 76.5671 129.581L74.4132 128.361C74.3662 128.338 74.3145 128.327 74.2622 128.328C74.2099 128.328 74.1585 128.341 74.1121 128.364ZM87.7225 120.668L85.8426 121.715C85.7654 121.761 85.7693 121.836 85.8426 121.882L87.9965 123.099C88.0425 123.122 88.0934 123.134 88.1451 123.134C88.1968 123.134 88.2478 123.122 88.2937 123.099L90.1543 122.048C90.2353 122.003 90.2315 121.927 90.1543 121.878L88.0081 120.676C87.962 120.652 87.9108 120.638 87.8585 120.637C87.8062 120.636 87.7543 120.646 87.707 120.668H87.7225ZM82.2799 123.749L80.4155 124.8C80.3383 124.845 80.3421 124.921 80.4155 124.97L82.5694 126.187C82.6156 126.209 82.6664 126.221 82.718 126.221C82.7695 126.221 82.8204 126.209 82.8666 126.187L84.7271 125.136C84.8082 125.091 84.8004 125.015 84.7271 124.966L82.5771 123.749C82.5289 123.724 82.4752 123.711 82.4208 123.711C82.3663 123.711 82.3126 123.724 82.2644 123.749H82.2799ZM79.5547 125.287L77.6942 126.338C77.6131 126.384 77.6208 126.459 77.6942 126.508L79.8481 127.726C79.8943 127.748 79.9451 127.759 79.9967 127.759C80.0482 127.759 80.0991 127.748 80.1453 127.726L82.0058 126.675C82.083 126.629 82.0791 126.554 82.0058 126.505L79.8519 125.287C79.8037 125.263 79.7501 125.25 79.6956 125.25C79.6411 125.25 79.5875 125.263 79.5393 125.287H79.5547ZM76.8141 126.826L74.9536 127.877C74.8725 127.922 74.8802 127.998 74.9536 128.047L77.1036 129.264C77.1496 129.287 77.2005 129.299 77.2522 129.299C77.3039 129.299 77.3549 129.287 77.4008 129.264L79.2652 128.213C79.3424 128.168 79.3385 128.092 79.2652 128.043L77.1113 126.826C77.0651 126.804 77.0143 126.792 76.9627 126.792C76.9112 126.792 76.8603 126.804 76.8141 126.826ZM90.7294 128.716L92.5899 127.665C92.671 127.62 92.6671 127.544 92.5899 127.495L90.4322 126.251C90.386 126.229 90.3351 126.217 90.2836 126.217C90.232 126.217 90.1812 126.229 90.135 126.251L88.2706 127.302C88.1934 127.348 88.1972 127.423 88.2706 127.472L90.4245 128.689C90.4712 128.716 90.524 128.73 90.5779 128.732C90.6318 128.733 90.6852 128.721 90.7333 128.697L90.7294 128.716ZM114.642 105.461L112.778 106.516C112.701 106.561 112.704 106.633 112.778 106.682L114.932 107.899C114.978 107.923 115.029 107.935 115.08 107.935C115.132 107.935 115.183 107.923 115.229 107.899L117.089 106.845C117.17 106.799 117.167 106.728 117.089 106.678L114.935 105.461C114.89 105.439 114.84 105.427 114.789 105.427C114.738 105.427 114.688 105.439 114.642 105.461ZM111.346 107.325L109.485 108.379C109.404 108.421 109.412 108.497 109.485 108.546L111.635 109.763C111.681 109.785 111.732 109.797 111.784 109.797C111.835 109.797 111.886 109.785 111.932 109.763L113.797 108.708C113.874 108.663 113.87 108.587 113.797 108.542L111.643 107.325C111.598 107.298 111.547 107.282 111.495 107.279C111.442 107.276 111.39 107.285 111.342 107.306L111.346 107.325ZM117.363 103.923L115.503 104.977C115.422 105.019 115.426 105.095 115.503 105.144L117.657 106.361C117.703 106.384 117.754 106.396 117.805 106.396C117.857 106.396 117.908 106.384 117.954 106.361L119.818 105.306C119.896 105.261 119.892 105.185 119.818 105.14L117.664 103.923C117.617 103.893 117.563 103.875 117.507 103.872C117.451 103.869 117.395 103.88 117.344 103.904L117.363 103.923ZM103.274 118.151L105.139 117.096C105.216 117.051 105.212 116.975 105.139 116.93L102.985 115.713C102.939 115.689 102.888 115.677 102.836 115.677C102.785 115.677 102.734 115.689 102.688 115.713L100.827 116.767C100.746 116.809 100.75 116.884 100.827 116.934L102.981 118.151C103.027 118.17 103.078 118.178 103.128 118.175C103.178 118.172 103.227 118.157 103.271 118.132L103.274 118.151ZM120.382 102.392C120.336 102.369 120.285 102.357 120.233 102.357C120.182 102.357 120.131 102.369 120.085 102.392L118.224 103.447C118.143 103.488 118.147 103.564 118.224 103.613L120.378 104.83C120.424 104.852 120.475 104.864 120.527 104.864C120.578 104.864 120.629 104.852 120.675 104.83L122.54 103.775C122.617 103.73 122.613 103.654 122.54 103.609L120.382 102.392ZM93.4546 127.159L95.319 126.108C95.3962 126.062 95.3923 125.987 95.319 125.938L93.1535 124.739C93.1075 124.716 93.0566 124.704 93.0049 124.704C92.9532 124.704 92.9022 124.716 92.8563 124.739L90.9958 125.79C90.9147 125.836 90.9186 125.911 90.9958 125.96L93.1496 127.177C93.1984 127.198 93.2514 127.207 93.3044 127.204C93.3574 127.201 93.4089 127.185 93.4546 127.159ZM126.832 108.289L128.696 107.234C128.774 107.193 128.77 107.117 128.696 107.068L126.531 105.839C126.485 105.816 126.434 105.804 126.382 105.804C126.331 105.804 126.28 105.816 126.234 105.839L124.373 106.894C124.292 106.939 124.296 107.015 124.373 107.06L126.527 108.277C126.573 108.304 126.625 108.318 126.678 108.32C126.731 108.322 126.784 108.312 126.832 108.289ZM121.042 108.088L122.906 107.034C122.984 106.988 122.98 106.917 122.906 106.867L120.752 105.65C120.707 105.627 120.656 105.615 120.604 105.615C120.552 105.615 120.501 105.627 120.455 105.65L118.595 106.705C118.514 106.75 118.518 106.822 118.595 106.871L120.749 108.088C120.792 108.113 120.84 108.127 120.889 108.13C120.939 108.134 120.988 108.126 121.034 108.107L121.042 108.088ZM123.462 104.112C123.416 104.089 123.365 104.077 123.314 104.077C123.262 104.077 123.211 104.089 123.165 104.112L121.304 105.166C121.223 105.208 121.227 105.284 121.304 105.333L123.458 106.55C123.504 106.573 123.555 106.585 123.607 106.585C123.659 106.585 123.71 106.573 123.756 106.55L125.62 105.495C125.697 105.45 125.693 105.374 125.62 105.329L123.462 104.112ZM124.037 103.787L129.264 106.743C129.31 106.766 129.361 106.778 129.412 106.778C129.464 106.778 129.515 106.766 129.561 106.743L131.425 105.688C131.503 105.643 131.499 105.571 131.425 105.522L126.195 102.566C126.149 102.543 126.098 102.531 126.046 102.531C125.995 102.531 125.944 102.543 125.898 102.566L124.037 103.62C123.937 103.662 123.945 103.738 124.03 103.787H124.037ZM117.722 107.189L115.858 108.243C115.781 108.289 115.785 108.364 115.858 108.41L118.012 109.627C118.058 109.65 118.109 109.662 118.161 109.662C118.212 109.662 118.263 109.65 118.309 109.627L120.17 108.572C120.251 108.531 120.247 108.455 120.17 108.406L118.016 107.189C117.972 107.166 117.923 107.154 117.874 107.153C117.824 107.151 117.775 107.161 117.73 107.181L117.722 107.189ZM97.2374 118.771L95.3653 119.825C95.2881 119.871 95.2919 119.946 95.3653 119.992L97.5191 121.209C97.5651 121.232 97.6161 121.244 97.6678 121.244C97.7195 121.244 97.7704 121.232 97.8164 121.209L99.6769 120.154C99.758 120.113 99.7541 120.037 99.6769 119.988L97.523 118.771C97.4782 118.747 97.4282 118.734 97.3773 118.733C97.3263 118.731 97.2757 118.742 97.2296 118.763L97.2374 118.771ZM123.821 109.827C123.867 109.85 123.918 109.863 123.97 109.863C124.022 109.863 124.072 109.85 124.118 109.827L125.983 108.773C126.06 108.731 126.056 108.655 125.983 108.606L123.829 107.389C123.783 107.367 123.732 107.355 123.68 107.355C123.629 107.355 123.578 107.367 123.532 107.389L121.671 108.444C121.59 108.489 121.594 108.565 121.671 108.61L123.821 109.827ZM99.9587 117.232L98.0982 118.287C98.0171 118.332 98.021 118.404 98.0982 118.453L100.252 119.67C100.298 119.694 100.349 119.706 100.401 119.706C100.452 119.706 100.503 119.694 100.549 119.67L102.414 118.616C102.491 118.57 102.487 118.499 102.414 118.449L100.26 117.232C100.213 117.206 100.16 117.191 100.106 117.19C100.052 117.189 99.999 117.201 99.951 117.225L99.9587 117.232ZM79.5547 134.855C79.6007 134.878 79.6516 134.89 79.7033 134.89C79.755 134.89 79.806 134.878 79.8519 134.855L81.7163 133.8C81.7935 133.755 81.7896 133.683 81.7163 133.634L79.5624 132.416C79.5165 132.393 79.4655 132.381 79.4138 132.381C79.3621 132.381 79.3112 132.393 79.2652 132.416L77.4047 133.471C77.3236 133.516 77.3313 133.588 77.4047 133.637L79.5547 134.855ZM75.4631 131.075L73.5987 132.129C73.5215 132.175 73.5254 132.246 73.5987 132.296L75.7526 133.513C75.7986 133.536 75.8495 133.548 75.9012 133.548C75.9529 133.548 76.0039 133.536 76.0498 133.513L77.9103 132.458C77.9914 132.413 77.9875 132.341 77.9103 132.292L75.7565 131.075C75.71 131.051 75.6584 131.038 75.6059 131.038C75.5535 131.038 75.5018 131.051 75.4554 131.075H75.4631ZM82.5771 133.316L84.4376 132.262C84.5148 132.216 84.5109 132.141 84.4376 132.095L82.2837 130.878C82.2378 130.855 82.1868 130.843 82.1351 130.843C82.0834 130.843 82.0325 130.855 81.9865 130.878L80.1067 131.921C80.0295 131.963 80.0333 132.038 80.1067 132.088L82.2606 133.305C82.307 133.332 82.3596 133.347 82.4135 133.349C82.4674 133.351 82.521 133.34 82.5694 133.316H82.5771ZM85.2984 131.778L87.1589 130.723C87.24 130.678 87.2322 130.602 87.1589 130.557L85.0089 129.34C84.9629 129.316 84.912 129.304 84.8603 129.304C84.8086 129.304 84.7576 129.316 84.7117 129.34L82.8473 130.39C82.7701 130.436 82.7739 130.511 82.8473 130.561L85.0012 131.778C85.0484 131.801 85.1006 131.814 85.1536 131.814C85.2066 131.814 85.2589 131.801 85.3061 131.778H85.2984ZM88.0004 130.235L89.8609 129.185C89.942 129.139 89.9381 129.064 89.8609 129.018L87.707 127.797C87.6608 127.775 87.61 127.763 87.5584 127.763C87.5069 127.763 87.456 127.775 87.4098 127.797L85.5454 128.848C85.4682 128.894 85.4721 128.969 85.5454 129.018L87.6993 130.235C87.7467 130.261 87.7998 130.274 87.8537 130.274C87.9076 130.274 87.9607 130.261 88.0081 130.235H88.0004ZM78.1651 129.536L76.3007 130.591C76.2235 130.632 76.2274 130.708 76.3007 130.757L78.4546 131.974C78.5006 131.997 78.5515 132.01 78.6032 132.01C78.6549 132.01 78.7059 131.997 78.7518 131.974L80.6162 130.92C80.6934 130.874 80.6895 130.799 80.6162 130.753L78.4623 129.536C78.4179 129.515 78.369 129.504 78.3195 129.504C78.27 129.504 78.2211 129.515 78.1767 129.536H78.1651ZM80.8864 127.998L79.0259 129.049C78.9448 129.094 78.9487 129.169 79.0259 129.219L81.1798 130.436C81.226 130.458 81.2768 130.47 81.3284 130.47C81.3799 130.47 81.4308 130.458 81.477 130.436L83.3761 129.389C83.4533 129.343 83.4494 129.268 83.3761 129.222L81.2222 128.005C81.1736 127.976 81.1181 127.96 81.0611 127.959C81.0042 127.958 80.948 127.971 80.898 127.998H80.8864ZM91.7755 121.844L89.9381 122.895C89.8609 122.94 89.8648 123.016 89.9381 123.065L92.092 124.282C92.1382 124.304 92.1891 124.316 92.2406 124.316C92.2921 124.316 92.343 124.304 92.3892 124.282L94.2497 123.231C94.3308 123.186 94.3231 123.11 94.2497 123.061L92.0997 121.844C92.0518 121.818 91.998 121.805 91.9434 121.805C91.8887 121.805 91.8349 121.818 91.787 121.844H91.7755ZM89.0503 123.382L87.1898 124.433C87.1126 124.479 87.1164 124.554 87.1898 124.603L89.3437 125.82C89.3899 125.843 89.4407 125.854 89.4923 125.854C89.5438 125.854 89.5947 125.843 89.6409 125.82L91.5014 124.77C91.5825 124.724 91.5747 124.649 91.5014 124.599L89.3475 123.382C89.3028 123.362 89.2541 123.351 89.2047 123.351C89.1553 123.351 89.1066 123.362 89.0619 123.382H89.0503ZM94.4968 120.302L92.6401 121.356C92.5629 121.402 92.5668 121.477 92.6401 121.523L94.794 122.743C94.8402 122.766 94.8911 122.777 94.9426 122.777C94.9941 122.777 95.045 122.766 95.0912 122.743L96.9517 121.689C97.0328 121.647 97.0289 121.572 96.9517 121.523L94.7978 120.305C94.7529 120.284 94.7036 120.272 94.6535 120.271C94.6034 120.271 94.5538 120.281 94.5083 120.302H94.4968ZM83.6077 126.459L81.7472 127.51C81.6661 127.555 81.67 127.631 81.7472 127.68L83.9011 128.897C83.9473 128.92 83.9981 128.931 84.0497 128.931C84.1012 128.931 84.1521 128.92 84.1983 128.897L86.0627 127.843C86.1399 127.797 86.136 127.722 86.0627 127.676L83.9088 126.455C83.8633 126.435 83.8137 126.425 83.7636 126.425C83.7135 126.426 83.6642 126.437 83.6193 126.459H83.6077ZM86.329 124.921L84.4685 125.972C84.3874 126.017 84.3951 126.093 84.4685 126.142L86.6224 127.359C86.6676 127.382 86.718 127.394 86.769 127.394C86.8201 127.394 86.8705 127.382 86.9157 127.359L88.7801 126.308C88.8573 126.263 88.8534 126.187 88.7801 126.138L86.6262 124.921C86.5815 124.9 86.5328 124.89 86.4834 124.89C86.434 124.89 86.3853 124.9 86.3406 124.921H86.329ZM84.345 135.784L86.2055 134.73C86.2827 134.684 86.2788 134.609 86.2055 134.564L84.0516 133.346C84.0057 133.323 83.9547 133.311 83.903 133.311C83.8513 133.311 83.8003 133.323 83.7544 133.346L81.8939 134.401C81.8128 134.443 81.8205 134.518 81.8939 134.567L84.0478 135.784C84.0952 135.81 84.1482 135.823 84.2021 135.823C84.2561 135.823 84.3091 135.81 84.3565 135.784H84.345ZM68.3839 134.189L66.23 132.972C66.184 132.949 66.1331 132.937 66.0814 132.937C66.0297 132.937 65.9787 132.949 65.9328 132.972L64.0761 134.034C63.9989 134.08 64.0028 134.152 64.0761 134.201L66.23 135.418C66.2759 135.441 66.3269 135.453 66.3786 135.453C66.4303 135.453 66.4813 135.441 66.5272 135.418L68.3877 134.363C68.4726 134.329 68.4688 134.254 68.3839 134.189ZM72.46 135.361L70.3061 134.144C70.2606 134.122 70.2104 134.11 70.1595 134.11C70.1085 134.11 70.0583 134.122 70.0128 134.144L67.1641 135.773C67.0869 135.818 67.0908 135.894 67.1641 135.939L69.318 137.157C69.3639 137.18 69.4149 137.192 69.4666 137.192C69.5183 137.192 69.5693 137.18 69.6152 137.157L72.4793 135.539C72.5681 135.501 72.5449 135.425 72.46 135.376V135.361ZM65.0797 131.834L62.9181 130.632C62.8721 130.609 62.8212 130.597 62.7695 130.597C62.7178 130.597 62.6668 130.609 62.6209 130.632L60.3358 131.921C60.2586 131.967 60.2624 132.042 60.3358 132.091L62.4896 133.309C62.5356 133.332 62.5865 133.344 62.6382 133.344C62.69 133.344 62.7409 133.332 62.7869 133.309L65.0758 132.016C65.1685 131.974 65.1646 131.899 65.0797 131.849V131.834ZM66.836 130.84C66.882 130.863 66.9329 130.876 66.9846 130.876C67.0363 130.876 67.0873 130.863 67.1332 130.84L68.9937 129.786C69.0748 129.744 69.0709 129.668 68.9937 129.619L66.8399 128.402C66.7939 128.379 66.743 128.367 66.6912 128.367C66.6395 128.367 66.5886 128.379 66.5426 128.402L64.6783 129.457C64.6011 129.502 64.6049 129.578 64.6783 129.623L66.836 130.84ZM76.2544 136.695L74.1121 135.493C74.0659 135.471 74.015 135.459 73.9635 135.459C73.912 135.459 73.8611 135.471 73.8149 135.493L70.2328 137.519C70.1556 137.565 70.1595 137.64 70.2328 137.686L72.3867 138.907C72.4329 138.929 72.4838 138.941 72.5353 138.941C72.5868 138.941 72.6377 138.929 72.6839 138.907L76.266 136.881C76.3432 136.835 76.3393 136.76 76.2544 136.711V136.695ZM78.0416 139.164L75.8877 137.969C75.8418 137.946 75.7908 137.934 75.7391 137.934C75.6874 137.934 75.6364 137.946 75.5905 137.969L73.2976 139.266C73.2204 139.311 73.2243 139.387 73.2976 139.436L75.4515 140.653C75.4977 140.675 75.5486 140.687 75.6001 140.687C75.6517 140.687 75.7025 140.675 75.7487 140.653L78.0416 139.357C78.1304 139.304 78.1265 139.228 78.0416 139.179V139.164ZM87.074 119.398C87.1199 119.421 87.1709 119.433 87.2226 119.433C87.2743 119.433 87.3253 119.421 87.3712 119.398L89.2317 118.347C89.3128 118.302 89.3051 118.226 89.2317 118.177L87.0778 116.96C87.0316 116.938 86.9808 116.926 86.9292 116.926C86.8777 116.926 86.8268 116.938 86.7806 116.96L84.9201 118.03C84.8429 118.075 84.8468 118.151 84.9201 118.196L87.074 119.398ZM81.6275 122.479C81.6737 122.501 81.7246 122.513 81.7761 122.513C81.8277 122.513 81.8785 122.501 81.9247 122.479L83.7891 121.428C83.8663 121.383 83.8625 121.307 83.7891 121.258L81.6352 120.041C81.589 120.018 81.5382 120.007 81.4866 120.007C81.4351 120.007 81.3842 120.018 81.338 120.041L79.4775 121.092C79.3964 121.137 79.4042 121.213 79.4775 121.262L81.6275 122.479ZM69.5573 129.317C69.6033 129.34 69.6542 129.352 69.7059 129.352C69.7576 129.352 69.8086 129.34 69.8545 129.317L71.715 128.262C71.7961 128.217 71.7922 128.145 71.715 128.096L69.5612 126.879C69.5152 126.856 69.4643 126.843 69.4126 126.843C69.3608 126.843 69.3099 126.856 69.2639 126.879L67.3996 127.933C67.3224 127.979 67.3262 128.051 67.3996 128.1L69.5573 129.317ZM84.3527 120.959C84.3982 120.982 84.4485 120.993 84.4994 120.993C84.5503 120.993 84.6005 120.982 84.646 120.959L86.5104 119.908C86.5876 119.863 86.5838 119.788 86.5104 119.738L84.3565 118.521C84.3106 118.498 84.2596 118.486 84.2079 118.486C84.1562 118.486 84.1053 118.498 84.0593 118.521L82.1988 119.572C82.1177 119.617 82.1255 119.693 82.1988 119.742L84.3527 120.959ZM78.9062 124.036C78.9522 124.059 79.0031 124.072 79.0548 124.072C79.1065 124.072 79.1575 124.059 79.2034 124.036L81.0678 122.985C81.145 122.94 81.1412 122.864 81.0678 122.815L78.9139 121.598C78.8677 121.576 78.8169 121.564 78.7653 121.564C78.7138 121.564 78.6629 121.576 78.6167 121.598L76.7562 122.649C76.6751 122.694 76.679 122.77 76.7562 122.819L78.9062 124.036ZM79.5354 139.379C79.4892 139.357 79.4383 139.345 79.3868 139.345C79.3353 139.345 79.2844 139.357 79.2382 139.379L76.3741 140.993C76.2969 141.039 76.3007 141.114 76.3741 141.163L78.5279 142.381C78.5739 142.404 78.6249 142.416 78.6766 142.416C78.7283 142.416 78.7792 142.404 78.8252 142.381L81.6893 140.763C81.7703 140.717 81.7626 140.642 81.6893 140.593L79.5354 139.379ZM74.9999 126.251C75.0461 126.274 75.097 126.285 75.1485 126.285C75.2001 126.285 75.2509 126.274 75.2971 126.251L77.1615 125.197C77.2387 125.151 77.2348 125.076 77.1615 125.03L75.0076 123.813C74.9617 123.79 74.9107 123.778 74.859 123.778C74.8073 123.778 74.7564 123.79 74.7104 123.813L72.8499 124.868C72.7688 124.909 72.7727 124.985 72.8499 125.034L74.9999 126.251ZM72.2786 127.763C72.3246 127.787 72.3755 127.799 72.4272 127.799C72.4789 127.799 72.5299 127.787 72.5758 127.763L74.4402 126.709C74.5174 126.663 74.5135 126.588 74.4402 126.542L72.2863 125.325C72.2404 125.302 72.1894 125.29 72.1377 125.29C72.086 125.29 72.0351 125.302 71.9891 125.325L70.1286 126.38C70.0475 126.421 70.0514 126.497 70.1286 126.546L72.2786 127.763ZM129.962 110.867C129.917 110.844 129.866 110.831 129.814 110.831C129.762 110.831 129.711 110.844 129.665 110.867L125.064 113.452C124.987 113.498 124.991 113.573 125.064 113.622L127.218 114.84C127.264 114.862 127.315 114.873 127.367 114.873C127.418 114.873 127.469 114.862 127.515 114.84L132.124 112.265C132.205 112.22 132.201 112.144 132.124 112.095L129.962 110.867ZM123.945 114.269C123.899 114.246 123.848 114.233 123.796 114.233C123.744 114.233 123.693 114.246 123.647 114.269L121.787 115.32C121.706 115.365 121.71 115.441 121.787 115.49L123.941 116.707C123.987 116.729 124.038 116.741 124.089 116.741C124.141 116.741 124.192 116.729 124.238 116.707L126.102 115.656C126.18 115.611 126.176 115.535 126.102 115.486L123.945 114.269ZM87.0778 134.246L88.9384 133.191C89.0194 133.146 89.0117 133.07 88.9384 133.025L86.7883 131.804C86.7421 131.782 86.6913 131.77 86.6397 131.77C86.5882 131.77 86.5373 131.782 86.4911 131.804L84.6267 132.855C84.5495 132.9 84.5534 132.976 84.6267 133.025L86.7806 134.242C86.8266 134.265 86.8772 134.277 86.9288 134.278C86.9803 134.279 87.0313 134.268 87.0778 134.246ZM118.502 117.346C118.456 117.323 118.405 117.312 118.354 117.312C118.302 117.312 118.251 117.323 118.205 117.346L116.341 118.396C116.263 118.442 116.267 118.517 116.341 118.567L118.494 119.784C118.54 119.807 118.591 119.819 118.643 119.819C118.695 119.819 118.746 119.807 118.792 119.784L120.652 118.733C120.733 118.688 120.729 118.612 120.652 118.563L118.502 117.346ZM132.684 109.328C132.638 109.306 132.587 109.294 132.535 109.294C132.484 109.294 132.433 109.306 132.387 109.328L130.526 110.375C130.445 110.421 130.449 110.496 130.526 110.542L132.68 111.763C132.726 111.785 132.777 111.797 132.829 111.797C132.88 111.797 132.931 111.785 132.977 111.763L134.841 110.712C134.919 110.666 134.915 110.591 134.841 110.542L132.684 109.328ZM137.559 109.007L132.329 106.051C132.283 106.028 132.232 106.016 132.18 106.016C132.128 106.016 132.077 106.028 132.031 106.051L130.171 107.106C130.09 107.151 130.094 107.227 130.171 107.272L135.401 110.228C135.447 110.251 135.498 110.263 135.55 110.263C135.602 110.263 135.652 110.251 135.698 110.228L137.563 109.173C137.648 109.132 137.644 109.056 137.559 109.007ZM108.331 123.099C108.285 123.076 108.234 123.063 108.182 123.063C108.131 123.063 108.08 123.076 108.034 123.099L105.741 124.395C105.664 124.441 105.668 124.516 105.741 124.562L107.895 125.779C107.941 125.802 107.992 125.814 108.043 125.814C108.095 125.814 108.146 125.802 108.192 125.779L110.485 124.482C110.562 124.437 110.558 124.361 110.485 124.316L108.331 123.099ZM115.206 119.209C115.16 119.186 115.109 119.174 115.057 119.174C115.005 119.174 114.954 119.186 114.908 119.209L112.044 120.827C111.967 120.872 111.971 120.948 112.044 120.993L114.198 122.214C114.244 122.237 114.295 122.248 114.347 122.248C114.398 122.248 114.449 122.237 114.495 122.214L117.36 120.596C117.437 120.551 117.433 120.475 117.36 120.426L115.206 119.209ZM102.028 126.66C101.981 126.637 101.931 126.626 101.879 126.626C101.827 126.626 101.777 126.637 101.73 126.66L86.4023 135.323C86.3251 135.369 86.329 135.444 86.4023 135.493L88.5562 136.711C88.6024 136.733 88.6533 136.745 88.7048 136.745C88.7564 136.745 88.8072 136.733 88.8534 136.711L104.182 128.043C104.259 127.998 104.255 127.922 104.182 127.873L102.028 126.66ZM85.8388 135.815C85.7928 135.792 85.7419 135.779 85.6902 135.779C85.6385 135.779 85.5875 135.792 85.5416 135.815L83.2526 137.111C83.1715 137.157 83.1754 137.232 83.2526 137.278L85.4065 138.495C85.4524 138.518 85.5034 138.53 85.5551 138.53C85.6068 138.53 85.6577 138.518 85.7037 138.495L88.0081 137.213C88.0853 137.168 88.0814 137.092 88.0081 137.047L85.8388 135.815ZM105.177 124.879C105.131 124.857 105.08 124.845 105.029 124.845C104.977 124.845 104.926 124.857 104.88 124.879L102.591 126.176C102.51 126.221 102.514 126.297 102.591 126.346L104.745 127.563C104.791 127.585 104.842 127.597 104.894 127.597C104.945 127.597 104.996 127.585 105.042 127.563L107.335 126.266C107.416 126.225 107.408 126.149 107.335 126.1L105.177 124.879ZM82.689 137.591C82.6428 137.569 82.592 137.557 82.5404 137.557C82.4889 137.557 82.438 137.569 82.3918 137.591L80.099 138.888C80.0218 138.933 80.0256 139.009 80.099 139.058L82.2528 140.275C82.2991 140.297 82.3499 140.309 82.4015 140.309C82.453 140.309 82.5038 140.297 82.5501 140.275L84.839 138.982C84.9201 138.937 84.9162 138.861 84.839 138.812L82.689 137.591ZM111.481 121.311C111.435 121.289 111.384 121.277 111.332 121.277C111.281 121.277 111.23 121.289 111.184 121.311L108.895 122.604C108.814 122.649 108.817 122.725 108.895 122.774L111.048 123.991C111.095 124.013 111.146 124.025 111.197 124.025C111.249 124.025 111.299 124.013 111.346 123.991L113.639 122.694C113.72 122.649 113.712 122.573 113.639 122.524L111.481 121.311ZM121.223 115.803C121.177 115.78 121.127 115.768 121.075 115.768C121.023 115.768 120.972 115.78 120.926 115.803L119.066 116.854C118.985 116.9 118.988 116.975 119.066 117.024L121.22 118.242C121.266 118.264 121.317 118.275 121.368 118.275C121.42 118.275 121.471 118.264 121.517 118.242L123.381 117.191C123.458 117.145 123.455 117.07 123.381 117.021L121.223 115.803ZM127.187 111.562L129.048 110.511C129.129 110.466 129.125 110.39 129.048 110.341L126.894 109.124C126.848 109.102 126.797 109.09 126.745 109.09C126.694 109.09 126.643 109.102 126.597 109.124L124.732 110.179C124.655 110.224 124.659 110.3 124.732 110.345L126.886 111.566C126.933 111.589 126.984 111.601 127.037 111.601C127.089 111.601 127.14 111.589 127.187 111.566V111.562ZM115.028 111.509L116.892 110.455C116.97 110.409 116.966 110.334 116.892 110.288L114.739 109.071C114.693 109.048 114.642 109.036 114.59 109.036C114.538 109.036 114.487 109.048 114.441 109.071L112.581 110.126C112.5 110.171 112.508 110.243 112.581 110.292L114.731 111.509C114.777 111.533 114.828 111.545 114.88 111.545C114.931 111.545 114.982 111.533 115.028 111.509ZM108.852 121.953L114.295 118.877C114.372 118.831 114.368 118.756 114.295 118.706L112.141 117.489C112.095 117.467 112.044 117.455 111.992 117.455C111.941 117.455 111.89 117.467 111.844 117.489L106.401 120.57C106.324 120.612 106.328 120.687 106.401 120.736L108.555 121.953C108.602 121.974 108.654 121.983 108.706 121.979C108.758 121.976 108.808 121.961 108.852 121.935V121.953ZM124.169 113.12C124.215 113.142 124.266 113.154 124.317 113.154C124.369 113.154 124.42 113.142 124.466 113.12L126.326 112.069C126.407 112.023 126.404 111.948 126.326 111.899L124.172 110.682C124.127 110.658 124.076 110.646 124.024 110.646C123.972 110.646 123.921 110.658 123.875 110.682L122.011 111.732C121.934 111.778 121.938 111.853 122.011 111.902L124.169 113.12ZM121.389 111.385L123.25 110.334C123.331 110.288 123.327 110.213 123.25 110.164L121.096 108.946C121.05 108.924 120.999 108.913 120.947 108.913C120.896 108.913 120.845 108.924 120.799 108.946L118.934 110.001C118.857 110.046 118.861 110.122 118.934 110.167L121.088 111.388C121.137 111.408 121.189 111.416 121.242 111.412C121.294 111.408 121.345 111.392 121.389 111.366V111.385ZM106.131 123.481L107.991 122.426C108.072 122.381 108.065 122.309 107.991 122.26L105.837 121.042C105.792 121.019 105.741 121.007 105.689 121.007C105.637 121.007 105.586 121.019 105.54 121.042L103.668 122.093C103.587 122.139 103.595 122.211 103.668 122.26L105.822 123.477C105.872 123.505 105.929 123.519 105.987 123.519C106.044 123.518 106.101 123.502 106.15 123.473L106.131 123.481ZM118.151 116.51C118.197 116.533 118.248 116.544 118.299 116.544C118.351 116.544 118.402 116.533 118.448 116.51L120.312 115.459C120.39 115.414 120.386 115.338 120.312 115.289L118.159 114.072C118.112 114.05 118.062 114.038 118.01 114.038C117.958 114.038 117.908 114.05 117.861 114.072L116.001 115.127C115.92 115.172 115.924 115.248 116.001 115.293L118.151 116.51ZM92.5205 131.165L94.381 130.114C94.462 130.069 94.4582 129.994 94.381 129.944L92.2271 128.727C92.1809 128.705 92.13 128.693 92.0785 128.693C92.0269 128.693 91.9761 128.705 91.9299 128.727L90.0655 129.778C89.9883 129.823 89.9921 129.899 90.0655 129.948L92.2194 131.165C92.2661 131.188 92.3176 131.2 92.3699 131.2C92.4222 131.2 92.4737 131.188 92.5205 131.165ZM95.2418 129.627L97.1061 128.576C97.1833 128.531 97.1795 128.455 97.1061 128.406L94.9561 127.189C94.9102 127.166 94.8592 127.153 94.8075 127.153C94.7558 127.153 94.7048 127.166 94.6589 127.189L92.7945 128.24C92.7173 128.285 92.7212 128.361 92.7945 128.41L94.9484 129.627C94.9941 129.649 95.0443 129.66 95.0951 129.66C95.1459 129.66 95.196 129.649 95.2418 129.627ZM89.7991 132.704L91.6597 131.653C91.7407 131.608 91.7369 131.532 91.6597 131.483L89.5096 130.266C89.4634 130.243 89.4126 130.232 89.361 130.232C89.3095 130.232 89.2586 130.243 89.2124 130.266L87.348 131.317C87.2708 131.362 87.2747 131.437 87.348 131.487L89.5019 132.704C89.5479 132.727 89.5988 132.739 89.6505 132.739C89.7022 132.739 89.7532 132.727 89.7991 132.704ZM100.684 126.55L102.549 125.499C102.626 125.454 102.622 125.378 102.549 125.329L100.395 124.112C100.349 124.09 100.298 124.078 100.246 124.078C100.195 124.078 100.144 124.09 100.098 124.112L98.2371 125.166C98.1561 125.212 98.1599 125.287 98.2371 125.333L100.391 126.55C100.436 126.573 100.487 126.584 100.538 126.584C100.589 126.584 100.639 126.573 100.684 126.55ZM97.9823 128.088L99.8467 127.038C99.9239 126.992 99.9201 126.917 99.8467 126.867L97.6581 125.65C97.6122 125.627 97.5612 125.615 97.5095 125.615C97.4578 125.615 97.4068 125.627 97.3609 125.65L95.5004 126.701C95.4193 126.746 95.4232 126.822 95.5004 126.867L97.6543 128.088C97.702 128.113 97.7549 128.125 97.8087 128.125C97.8624 128.125 97.9153 128.113 97.963 128.088H97.9823ZM103.425 125.011L105.289 123.957C105.367 123.915 105.363 123.84 105.289 123.791L103.135 122.573C103.09 122.55 103.039 122.538 102.987 122.538C102.935 122.538 102.884 122.55 102.838 122.573L100.947 123.605C100.866 123.651 100.873 123.726 100.947 123.772L103.097 124.989C103.142 125.018 103.194 125.035 103.248 125.039C103.302 125.043 103.356 125.033 103.406 125.011H103.425ZM115.877 102.245C115.923 102.268 115.974 102.28 116.026 102.28C116.078 102.28 116.129 102.268 116.175 102.245L118.039 101.19C118.116 101.148 118.112 101.073 118.039 101.024L117.468 100.699C117.421 100.676 117.371 100.665 117.319 100.665C117.267 100.665 117.217 100.676 117.17 100.699L115.306 101.749C115.229 101.795 115.233 101.87 115.306 101.919L115.877 102.245ZM102.487 110.712C102.533 110.735 102.584 110.747 102.636 110.747C102.687 110.747 102.738 110.735 102.784 110.712L104.645 109.661C104.726 109.616 104.722 109.54 104.645 109.491L102.491 108.274C102.445 108.251 102.394 108.24 102.342 108.24C102.291 108.24 102.24 108.251 102.194 108.274L100.329 109.324C100.252 109.37 100.256 109.445 100.329 109.495L102.487 110.712ZM107.93 107.635C107.976 107.657 108.027 107.669 108.078 107.669C108.13 107.669 108.181 107.657 108.227 107.635L110.091 106.584C110.168 106.539 110.165 106.463 110.091 106.414L107.937 105.197C107.891 105.174 107.84 105.161 107.789 105.161C107.737 105.161 107.686 105.174 107.64 105.197L105.764 106.248C105.683 106.293 105.687 106.369 105.764 106.418L107.93 107.635ZM99.1635 112.59C99.2097 112.613 99.2606 112.624 99.3121 112.624C99.3637 112.624 99.4145 112.613 99.4607 112.59L101.321 111.536C101.402 111.49 101.398 111.415 101.321 111.369L99.1674 110.149C99.1212 110.126 99.0703 110.115 99.0188 110.115C98.9672 110.115 98.9164 110.126 98.8702 110.149L97.0058 111.199C96.9286 111.245 96.9324 111.32 97.0058 111.369L99.1635 112.59ZM105.208 109.188C105.254 109.211 105.305 109.222 105.357 109.222C105.408 109.222 105.459 109.211 105.505 109.188L107.37 108.138C107.447 108.092 107.443 108.017 107.37 107.967L105.216 106.75C105.17 106.728 105.119 106.716 105.067 106.716C105.016 106.716 104.965 106.728 104.919 106.75L103.058 107.801C102.977 107.847 102.981 107.922 103.058 107.971L105.208 109.188ZM93.7016 115.667C93.7476 115.691 93.7985 115.703 93.8502 115.703C93.9019 115.703 93.9529 115.691 93.9988 115.667L95.8593 114.613C95.9404 114.567 95.9327 114.492 95.8593 114.446L93.7093 113.229C93.6634 113.206 93.6124 113.194 93.5607 113.194C93.509 113.194 93.4581 113.206 93.4121 113.229L91.5477 114.284C91.4705 114.325 91.4744 114.401 91.5477 114.45L93.7016 115.667ZM96.4229 114.129C96.4691 114.151 96.52 114.163 96.5715 114.163C96.6231 114.163 96.6739 114.151 96.7201 114.129L98.5807 113.074C98.6617 113.029 98.6579 112.953 98.5807 112.908L96.4306 111.691C96.3847 111.668 96.3337 111.655 96.282 111.655C96.2303 111.655 96.1794 111.668 96.1334 111.691L94.269 112.745C94.1918 112.787 94.1957 112.863 94.269 112.912L96.4229 114.129ZM110.415 105.325C110.462 105.348 110.512 105.359 110.564 105.359C110.616 105.359 110.666 105.348 110.713 105.325L112.577 104.274C112.654 104.229 112.65 104.153 112.577 104.104L112.002 103.779C111.956 103.757 111.905 103.745 111.853 103.745C111.802 103.745 111.751 103.757 111.705 103.779L109.844 104.83C109.763 104.875 109.771 104.951 109.844 105L110.415 105.325ZM118.583 100.706C118.628 100.729 118.679 100.741 118.73 100.741C118.781 100.741 118.831 100.729 118.877 100.706L120.741 99.6515C120.818 99.6061 120.814 99.5343 120.741 99.4852L120.17 99.1601C120.124 99.1369 120.073 99.1248 120.021 99.1248C119.969 99.1248 119.918 99.1369 119.872 99.1601L118.008 100.211C117.931 100.256 117.935 100.332 118.008 100.381L118.583 100.706ZM123.103 103.265C123.149 103.287 123.2 103.299 123.252 103.299C123.303 103.299 123.354 103.287 123.4 103.265L125.265 102.211C125.342 102.165 125.338 102.09 125.265 102.044L123.111 100.823C123.065 100.801 123.014 100.789 122.962 100.789C122.911 100.789 122.86 100.801 122.814 100.823L120.953 101.874C120.872 101.919 120.88 101.995 120.953 102.044L123.103 103.265ZM129.908 110.028L131.773 108.973C131.85 108.931 131.846 108.856 131.773 108.807L129.619 107.589C129.573 107.567 129.522 107.556 129.47 107.556C129.419 107.556 129.368 107.567 129.322 107.589L127.461 108.644C127.38 108.689 127.384 108.765 127.461 108.81L129.615 110.028C129.661 110.05 129.711 110.062 129.762 110.062C129.813 110.062 129.863 110.05 129.908 110.028ZM113.137 103.787C113.183 103.809 113.234 103.821 113.285 103.821C113.337 103.821 113.388 103.809 113.434 103.787L115.298 102.736C115.376 102.691 115.372 102.615 115.298 102.566L114.723 102.241C114.677 102.218 114.626 102.207 114.575 102.207C114.523 102.207 114.472 102.218 114.426 102.241L112.565 103.292C112.488 103.337 112.492 103.413 112.565 103.462L113.137 103.787ZM90.9803 117.206C91.0263 117.229 91.0772 117.241 91.1289 117.241C91.1806 117.241 91.2316 117.229 91.2775 117.206L93.138 116.151C93.2152 116.106 93.2114 116.034 93.138 115.985L90.9842 114.768C90.9382 114.744 90.8873 114.732 90.8356 114.732C90.7839 114.732 90.7329 114.744 90.6869 114.768L88.8264 115.822C88.7492 115.868 88.7531 115.939 88.8264 115.989L90.9803 117.206Z" fill="#455A64"/>
<path d="M102.047 133.773L122.428 122.248L134.973 129.339L114.588 140.864L102.047 133.773Z" fill="#263238"/>
<path d="M56.7421 75.6986L117.483 41.3573C118.668 40.6844 119.641 41.2363 119.641 42.5782V88.6451C119.621 88.9858 119.52 89.3173 119.346 89.6127C119.172 89.9082 118.929 90.1594 118.637 90.3461L56.3561 125.561C55.8042 125.871 55.3525 125.617 55.3525 124.994V78.0535C55.3803 77.582 55.5204 77.1234 55.7617 76.7144C56.003 76.3055 56.3388 75.9576 56.7421 75.6986Z" fill="#F5F5F5"/>
<path d="M119.66 43.6823V42.5785C119.66 41.2366 118.687 40.6885 117.502 41.3576L56.7421 75.6989C56.3388 75.9579 56.003 76.3058 55.7617 76.7147C55.5204 77.1237 55.3803 77.5823 55.3525 78.0538V80.0308L119.66 43.6823Z" fill="#407BFF"/>
<path d="M110.596 46.1961C110.379 46.3344 110.199 46.5207 110.069 46.7401C109.94 46.9595 109.865 47.2057 109.851 47.4587C109.851 47.9236 110.183 48.1126 110.596 47.8783C110.812 47.7404 110.992 47.5546 111.121 47.3359C111.249 47.1171 111.324 46.8717 111.337 46.6195C111.337 46.1546 111.005 45.9656 110.596 46.1961Z" fill="white"/>
<path d="M113.546 44.5282C113.33 44.6668 113.15 44.8533 113.021 45.0727C112.892 45.292 112.818 45.538 112.805 45.7907C112.805 46.2556 113.137 46.4408 113.546 46.2103C113.763 46.0721 113.943 45.8857 114.073 45.6663C114.202 45.4469 114.277 45.2007 114.291 44.9477C114.291 44.4828 113.959 44.2938 113.546 44.5282Z" fill="white"/>
<path d="M116.498 42.8575C116.282 42.9964 116.102 43.1829 115.973 43.4022C115.843 43.6214 115.768 43.8673 115.753 44.12C115.753 44.585 116.089 44.774 116.498 44.5396C116.715 44.402 116.895 44.2163 117.025 43.9976C117.154 43.7788 117.229 43.5333 117.243 43.2809C117.243 42.8159 116.908 42.6269 116.498 42.8575Z" fill="white"/>
<path d="M70.3512 102.584L67.9878 101.248L62.1997 111.065L64.5631 112.402L70.3512 102.584Z" fill="#37474F"/>
<path d="M70.3563 102.581L69.1763 101.914L63.3882 111.731L64.5682 112.398L70.3563 102.581Z" fill="#263238"/>
<path d="M55.8544 130.235C54.7775 132.069 49.6784 129.158 50.7515 127.351L64.0492 107.041C64.085 106.986 64.1411 106.947 64.2058 106.931C64.2706 106.916 64.3389 106.925 64.3966 106.958L67.0677 108.47C67.1252 108.502 67.1678 108.554 67.1866 108.616C67.2053 108.679 67.1987 108.745 67.1681 108.803L55.8544 130.235Z" fill="#407BFF"/>
<path opacity="0.1" d="M55.8545 130.236L67.1643 108.803C67.1949 108.746 67.2016 108.679 67.1828 108.617C67.1641 108.555 67.1215 108.503 67.064 108.471L65.8481 107.783L52.8823 130.353C54.0635 130.924 55.3682 131.064 55.8545 130.236Z" fill="black"/>
<path d="M94.9563 82.4222C94.9563 82.2673 94.9563 82.1161 94.9331 81.9649C94.91 81.8137 94.9331 81.6662 94.8984 81.5188C94.8637 81.3714 94.8984 81.3223 94.8675 81.224C94.8405 80.9669 94.8019 80.7137 94.7594 80.468C94.7401 80.3584 94.7208 80.245 94.6977 80.1353C94.6745 80.0257 94.6552 79.9274 94.632 79.8254C94.5664 79.5457 94.497 79.2735 94.4159 79.0127C94.3734 78.8879 94.3348 78.7632 94.2924 78.6347C94.2842 78.6164 94.2778 78.5974 94.2731 78.578C94.2267 78.457 94.1843 78.3398 94.138 78.2264C94.0917 78.113 94.0299 77.9618 93.9681 77.8484C93.9064 77.735 93.8832 77.6632 93.833 77.5725C93.805 77.5044 93.7715 77.4387 93.7327 77.3759C93.6941 77.2966 93.6516 77.2172 93.6053 77.1416C93.559 77.066 93.586 77.1038 93.5744 77.0887C93.5628 77.0735 93.4934 76.9526 93.4509 76.8845C93.4084 76.8165 93.393 76.7976 93.366 76.756C93.1682 76.4509 92.9462 76.1615 92.7021 75.8904L92.5785 75.7543L92.4743 75.6485C92.4319 75.6031 92.3855 75.5615 92.3392 75.5162C92.218 75.3914 92.0891 75.274 91.9532 75.1646C91.8876 75.108 91.8181 75.055 91.7486 75.0059L91.5363 74.8547C91.426 74.7755 91.3113 74.7023 91.1928 74.6354L91.1001 74.5787H91.0809L85.6112 71.4867L85.5804 71.4678C84.531 70.8947 83.3464 70.6014 82.145 70.6173C80.3539 70.6173 78.3313 71.1919 76.189 72.4015C68.8318 76.5595 62.8643 86.6823 62.8643 95.0059C62.8643 99.1639 64.3465 102.074 66.7436 103.443H66.7667L72.2402 106.531H72.2634L72.329 106.565C72.4316 106.624 72.5373 106.679 72.6455 106.728C72.7767 106.792 72.9118 106.849 73.0315 106.902C73.1512 106.954 73.2747 106.996 73.3982 107.034L73.5951 107.091C73.664 107.116 73.735 107.137 73.8074 107.151C73.8785 107.172 73.9506 107.19 74.0235 107.204C74.0754 107.219 74.1283 107.23 74.1818 107.238C74.2744 107.257 74.3748 107.276 74.4713 107.287C74.493 107.291 74.5152 107.291 74.5369 107.287C74.6527 107.307 74.7685 107.322 74.8843 107.332C76.8683 107.537 79.1766 106.988 81.647 105.594C89.008 101.436 94.9756 91.309 94.9756 82.9892C94.9563 82.8154 94.9563 82.6188 94.9563 82.4222ZM86.0281 76.5368C86.3172 77.5711 86.4588 78.6397 86.4489 79.712C86.4489 87.0527 80.9638 96.344 74.4829 100.026C73.5355 100.577 72.5125 100.993 71.445 101.262C71.1576 100.226 71.016 99.1563 71.0243 98.0828C71.0243 90.742 76.5094 81.4508 82.9903 77.7691C83.9341 77.2196 84.9531 76.8047 86.0165 76.5368H86.0281Z" fill="#407BFF"/>
<path opacity="0.1" d="M72.0163 106.426L66.7011 103.424C64.304 102.052 62.8218 99.1341 62.8218 94.9912C62.8218 91.2792 64.0107 87.2119 65.9754 83.4773L71.4489 86.5618C69.4803 90.2964 68.2952 94.3637 68.2952 98.0757C68.2952 102.143 69.708 105.02 72.0163 106.426Z" fill="black"/>
<path opacity="0.4" d="M94.9568 82.4222C94.9568 82.2673 94.9568 82.1161 94.9336 81.9649C94.9105 81.8137 94.9336 81.6662 94.8989 81.5188C94.8641 81.3714 94.8989 81.3223 94.868 81.224C94.841 80.9669 94.8024 80.7137 94.7599 80.468C94.7406 80.3584 94.7213 80.245 94.6982 80.1353C94.675 80.0257 94.6557 79.9274 94.6325 79.8254C94.5669 79.5457 94.4974 79.2735 94.4164 79.0127C94.3739 78.8879 94.3353 78.7632 94.2929 78.6347C94.2847 78.6164 94.2782 78.5974 94.2736 78.578C94.2272 78.457 94.1848 78.3398 94.1385 78.2264C94.0921 78.113 94.0304 77.9618 93.9686 77.8484C93.9069 77.735 93.8837 77.6632 93.8335 77.5725C93.8055 77.5044 93.772 77.4387 93.7332 77.3759C93.6946 77.2966 93.6521 77.2172 93.6058 77.1416C93.5595 77.066 93.5865 77.1038 93.5749 77.0887C93.5633 77.0735 93.4938 76.9526 93.4514 76.8845C93.4089 76.8165 93.3935 76.7976 93.3665 76.756C93.1687 76.4509 92.9467 76.1615 92.7025 75.8904L92.579 75.7543L92.4748 75.6485C92.4323 75.6031 92.386 75.5615 92.3397 75.5162C92.2185 75.3914 92.0896 75.274 91.9537 75.1646C91.8881 75.1079 91.8186 75.055 91.7491 75.0059L91.5368 74.8547C91.4265 74.7755 91.3118 74.7023 91.1933 74.6354C88.7731 73.1953 85.4033 73.3654 81.6552 75.4784C74.2942 79.6364 68.3267 89.7592 68.3267 98.0828C68.3267 102.297 69.8707 105.242 72.3218 106.58C72.4244 106.64 72.53 106.694 72.6383 106.743C72.7695 106.807 72.9046 106.864 73.0243 106.917C73.1439 106.97 73.2675 107.011 73.391 107.049L73.5878 107.106C73.6568 107.132 73.7278 107.152 73.8001 107.166C73.8712 107.187 73.9434 107.205 74.0163 107.219C74.0682 107.234 74.1211 107.245 74.1746 107.253C74.2672 107.272 74.3676 107.291 74.4641 107.302C74.4858 107.306 74.508 107.306 74.5297 107.302C74.6455 107.322 74.7613 107.337 74.8771 107.348C76.8611 107.552 79.1694 107.004 81.6398 105.609C89.0008 101.451 94.9684 91.3241 94.9684 83.0044C94.9568 82.8154 94.9568 82.6188 94.9568 82.4222ZM80.2888 103.329C78.6367 104.263 77.0464 104.754 75.6877 104.754C73.1362 104.754 71.9628 103.05 71.4417 101.262C71.1542 100.226 71.0127 99.1563 71.0209 98.0828C71.0209 90.742 76.506 81.4508 82.9869 77.7691C83.9344 77.2186 84.9573 76.8037 86.0247 76.5368C86.5301 76.4142 87.0482 76.3495 87.5687 76.344C91.7877 76.344 92.2393 81.0085 92.2393 83.0157C92.2548 90.3413 86.7697 99.659 80.2888 103.329Z" fill="white"/>
<path opacity="0.1" d="M92.2545 83.0159C92.2545 90.3567 86.7733 99.6479 80.2885 103.33C78.6364 104.263 77.0461 104.755 75.6874 104.755C73.1359 104.755 71.9625 103.05 71.4414 101.262C72.5089 100.994 73.5318 100.577 74.4792 100.026C80.9717 96.3556 86.4452 87.053 86.4452 79.7122C86.4552 78.6399 86.3136 77.5714 86.0245 76.537C86.5298 76.4144 87.0479 76.3497 87.5685 76.3442C91.799 76.3556 92.2545 81.0088 92.2545 83.0159Z" fill="black"/>
<path opacity="0.7" d="M89.9383 81.7345C89.9383 89.0753 84.4571 98.3665 77.9723 102.048C76.3202 102.982 74.7299 103.473 73.3712 103.473C73.1009 103.474 72.8311 103.452 72.5645 103.409C72.0428 102.778 71.6627 102.046 71.4489 101.262C71.1615 100.226 71.0199 99.1565 71.0282 98.083C71.0282 90.7423 76.5132 81.451 82.9942 77.7693C83.9416 77.2189 84.9646 76.8039 86.032 76.537C86.5373 76.4144 87.0554 76.3497 87.576 76.3443C87.8476 76.3436 88.1187 76.3651 88.3866 76.4085C89.7222 77.947 89.9383 80.4153 89.9383 81.7345Z" fill="white"/>
<path d="M99.2671 74.0884V82.4573C99.2671 83.0848 99.7187 83.3381 100.271 83.0243L156.279 51.3593C156.571 51.1726 156.814 50.9214 156.988 50.6259C157.162 50.3305 157.263 49.999 157.283 49.6583V41.278C157.283 40.6505 156.831 40.3973 156.279 40.711L100.271 72.3761C99.9777 72.5641 99.7341 72.8172 99.5597 73.1147C99.3853 73.4122 99.2851 73.7458 99.2671 74.0884Z" fill="#E6E6E6"/>
<path d="M100.271 72.376L110.245 66.74V77.3769L100.271 83.0129C99.7187 83.3266 99.2671 83.0734 99.2671 82.4459V74.0883C99.2851 73.7457 99.3853 73.4121 99.5597 73.1146C99.7341 72.817 99.9777 72.564 100.271 72.376Z" fill="#407BFF"/>
<path d="M106.945 71.3815C106.316 71.0262 105.521 71.0829 104.706 71.5441C103.932 72.0297 103.288 72.6898 102.828 73.4691C102.368 74.2484 102.106 75.1242 102.062 76.0234C102.035 76.6061 102.223 77.179 102.591 77.6374L101.518 79.4367C101.448 79.5654 101.431 79.7155 101.471 79.8561C101.51 79.9966 101.603 80.1171 101.73 80.1927C101.819 80.2414 101.918 80.2674 102.02 80.2683C102.121 80.2684 102.221 80.2422 102.309 80.1925C102.398 80.1427 102.471 80.0711 102.522 79.9848L103.583 78.1855C103.698 78.2066 103.814 78.218 103.93 78.2196C104.404 78.2111 104.868 78.0807 105.274 77.8416C106.046 77.3548 106.689 76.6944 107.148 75.9153C107.607 75.1362 107.87 74.2609 107.914 73.3623C107.926 72.4437 107.578 71.7406 106.945 71.3815ZM104.706 76.8625C104.571 77.0054 104.39 77.099 104.193 77.128C103.996 77.157 103.795 77.1198 103.622 77.0224C103.45 76.925 103.316 76.7731 103.243 76.5917C103.17 76.4102 103.162 76.2099 103.22 76.0234C103.265 75.324 103.475 74.6443 103.833 74.0376C104.192 73.431 104.689 72.9139 105.285 72.5269C105.517 72.3825 105.783 72.3004 106.057 72.2888C106.17 72.2846 106.283 72.3107 106.382 72.3644C106.527 72.486 106.638 72.6416 106.706 72.8167C106.773 72.9918 106.795 73.1808 106.768 73.366C106.723 74.0651 106.514 74.7446 106.156 75.3512C105.798 75.9579 105.302 76.4752 104.706 76.8625Z" fill="white"/>
</g>
</svg>
