<svg width="47" height="47" viewBox="0 0 47 47" fill="none" xmlns="http://www.w3.org/2000/svg">
<rect x="1.5" y="1.5" width="43.8889" height="43.8889" rx="11.5" fill="#EE4428" stroke="white" stroke-width="3"/>
<g clip-path="url(#clip0_1624_15587)">
<path d="M23.8739 17.161C25.6717 17.161 27.1348 15.698 27.1348 13.9003C27.1348 12.1025 25.6717 10.6406 23.8739 10.6406C22.0761 10.6406 20.613 12.1036 20.613 13.9003C20.613 15.698 22.0761 17.161 23.8739 17.161Z" fill="white"/>
<path d="M19.5262 26.9424H20.6131V31.29C20.6131 31.8911 21.1001 32.3769 21.7001 32.3769H26.0479C26.6479 32.3769 27.1349 31.8911 27.1349 31.29V26.9424H28.2218C28.8218 26.9424 29.3088 26.4565 29.3088 25.8554V23.6816C29.3088 20.6861 26.8707 18.2471 23.874 18.2471C20.8773 18.2471 18.4392 20.6861 18.4392 23.6816V25.8554C18.4392 26.4565 18.9262 26.9424 19.5262 26.9424Z" fill="white"/>
<path opacity="0.6" d="M30.7653 28.925L30.137 31.0054C32.1468 31.6129 32.5696 32.2727 32.5696 32.377C32.5696 32.9357 29.5805 34.5509 23.874 34.5509C18.1674 34.5509 15.1783 32.9357 15.1783 32.377C15.1783 32.2673 15.6316 31.5749 17.7827 30.9543L17.1794 28.8652C13.7294 29.8619 13.0044 31.3249 13.0044 32.377C13.0044 35.3639 18.6392 36.7247 23.874 36.7247C29.1087 36.7247 34.7435 35.3639 34.7435 32.377C34.7435 31.351 34.0544 29.9174 30.7653 28.925Z" fill="white"/>
</g>
<defs>
<clipPath id="clip0_1624_15587">
<rect width="26.087" height="26.087" fill="white" transform="translate(10.8262 10.6348)"/>
</clipPath>
</defs>
</svg>
