<svg width="50" height="50" viewBox="0 0 50 50" fill="none" xmlns="http://www.w3.org/2000/svg">
<g clip-path="url(#clip0_7164_67826)">
<path d="M43.7487 6.24967H39.582V2.08301H35.4154V12.4997H31.2487V6.24967H18.7487V2.08301H14.582V12.4997H10.4154V6.24967H6.2487C3.95078 6.24967 2.08203 8.12051 2.08203 10.4163V41.6663C2.08203 43.9643 3.95078 45.833 6.2487 45.833H43.7487C46.0466 45.833 47.9154 43.9643 47.9154 41.6663V10.4163C47.9154 8.12051 46.0466 6.24967 43.7487 6.24967ZM16.6654 39.583H8.33203V31.2497H16.6654V39.583ZM16.6654 27.083H8.33203V18.7497H16.6654V27.083ZM29.1654 39.583H20.832V31.2497H29.1654V39.583ZM29.1654 27.083H20.832V18.7497H29.1654V27.083ZM41.6654 27.083H33.332V18.7497H41.6654V27.083Z" fill="white" fill-opacity="0.8"/>
</g>
<defs>
<clipPath id="clip0_7164_67826">
<rect width="50" height="50" fill="white"/>
</clipPath>
</defs>
</svg>
