<svg width="30" height="30" viewBox="0 0 30 30" fill="none" xmlns="http://www.w3.org/2000/svg">
<path fill-rule="evenodd" clip-rule="evenodd" d="M10.1062 24.8437C9.84566 24.3072 9.71571 23.7189 9.72656 23.125C9.72656 20.7961 10.9219 18.3984 13.1297 16.7312C12.0277 16.3992 10.8796 16.2369 9.72656 16.25C2.69531 16.25 0.9375 21.4063 0.9375 23.125C0.9375 24.8438 2.69531 24.8437 2.69531 24.8437H10.1062ZM8.84766 14.5313C10.0132 14.5313 11.1309 14.0785 11.9551 13.2727C12.7792 12.4669 13.2422 11.374 13.2422 10.2344C13.2422 9.09477 12.7792 8.00185 11.9551 7.19603C11.1309 6.39021 10.0132 5.9375 8.84766 5.9375C7.68215 5.9375 6.56439 6.39021 5.74025 7.19603C4.91612 8.00185 4.45312 9.09477 4.45312 10.2344C4.45313 11.374 4.91612 12.4669 5.74025 13.2727C6.56439 14.0785 7.68215 14.5313 8.84766 14.5313Z" fill="#0A77DB" fill-opacity="0.5"/>
<path d="M24.0023 13.021C23.0134 13.988 21.672 14.5312 20.2734 14.5312C18.8748 14.5312 17.5335 13.988 16.5446 13.021C15.5556 12.054 15 10.7425 15 9.375C15 8.00748 15.5556 6.69597 16.5446 5.72898C17.5335 4.762 18.8748 4.21875 20.2734 4.21875C21.672 4.21875 23.0134 4.762 24.0023 5.72898C24.9913 6.69597 25.5469 8.00748 25.5469 9.375C25.5469 10.7425 24.9913 12.054 24.0023 13.021Z" fill="#0A77DB"/>
<path d="M11.4844 23.125C11.4844 24.8437 13.2422 24.8437 13.2422 24.8437H27.3047C27.3047 24.8437 29.0625 24.8437 29.0625 23.125C29.0625 21.4062 27.3047 16.25 20.2734 16.25C13.2422 16.25 11.4844 21.4062 11.4844 23.125Z" fill="#0A77DB"/>
</svg>
