<svg width="30" height="30" viewBox="0 0 30 30" fill="none" xmlns="http://www.w3.org/2000/svg">
<g clip-path="url(#clip0_9111_92358)">
<path d="M15 2.50293C8.0975 2.50293 2.5 8.09918 2.5 15.0029C2.5 21.9042 8.0975 27.5029 15 27.5029C21.9025 27.5029 27.5 21.9042 27.5 15.0029C27.5 8.09918 21.9025 2.50293 15 2.50293ZM17.5 8.75293H20V13.7529H17.5V8.75293ZM10 8.75293H12.5V13.7529H10V8.75293ZM18.75 21.2529L17.5 19.3779L16.25 21.2529H13.75L12.5 19.3779L11.25 21.2529H8.75L11.25 17.5029H13.75L15 19.3779L16.25 17.5029H18.75L21.25 21.2529H18.75Z" fill="#0A77DB"/>
</g>
<defs>
<clipPath id="clip0_9111_92358">
<rect width="30" height="30" fill="white"/>
</clipPath>
</defs>
</svg>
