<svg width="30" height="30" viewBox="0 0 30 30" fill="none" xmlns="http://www.w3.org/2000/svg">
<g clip-path="url(#clip0_9144_26158)">
<path d="M3.54545 5.25H26.4545V13.375H29V5.25C29 3.4625 27.8545 2 26.4545 2H3.54545C2.14545 2 1 3.4625 1 5.25V24.75C1 26.5375 2.14545 28 3.54545 28H15V24.75H3.54545V5.25Z" fill="#0A77DB"/>
<path opacity="0.5" d="M28.3875 24.0308C28.425 23.6512 28.4375 23.2716 28.4 22.9051L29.7375 21.7924C29.8625 21.6877 29.8875 21.5175 29.8125 21.3735L28.525 19.0304C28.45 18.8864 28.2875 18.834 28.1375 18.8864L26.5375 19.5409C26.25 19.3184 25.9375 19.1351 25.6 18.9911L25.35 17.2108C25.325 17.0407 25.2 16.9229 25.0375 16.9229H22.45C22.3 16.9229 22.1625 17.0407 22.1375 17.1977L21.8875 18.978C21.5625 19.122 21.25 19.3184 20.9625 19.5278L19.3625 18.8733C19.2125 18.8078 19.05 18.8733 18.975 19.0173L17.6875 21.3604C17.6125 21.5044 17.6375 21.6746 17.7625 21.7793L19.1 22.9051C19.0625 23.2847 19.05 23.6643 19.0875 24.0308L17.75 25.1435C17.625 25.2482 17.6 25.4184 17.675 25.5624L18.9625 27.9056C19.0375 28.0495 19.2 28.1019 19.35 28.0495L20.9375 27.395C21.225 27.6176 21.5375 27.8008 21.875 27.9448L22.125 29.7251C22.15 29.8822 22.275 30 22.4375 30H25.025C25.175 30 25.3125 29.8822 25.3375 29.7251L25.5875 27.9448C25.9125 27.8008 26.225 27.6045 26.5125 27.395L28.1125 28.0495C28.2625 28.115 28.425 28.0495 28.5 27.9056L29.7875 25.5624C29.8625 25.4184 29.8375 25.2482 29.7125 25.1435L28.3875 24.0308ZM23.75 25.4315C22.7125 25.4315 21.875 24.5545 21.875 23.468C21.875 22.3815 22.7125 21.5044 23.75 21.5044C24.7875 21.5044 25.625 22.3815 25.625 23.468C25.625 24.5545 24.7875 25.4315 23.75 25.4315Z" fill="#0A77DB"/>
<path d="M9.749 8.675H12.136C12.4 8.675 12.565 8.796 12.631 9.038L15.084 16.056C15.0913 16.078 15.095 16.1147 15.095 16.166C15.095 16.21 15.0693 16.2577 15.018 16.309C14.974 16.353 14.919 16.375 14.853 16.375H12.818C12.598 16.375 12.455 16.2833 12.389 16.1L12.125 15.374H9.76L9.496 16.1C9.43 16.2833 9.287 16.375 9.067 16.375H7.032C6.966 16.375 6.90733 16.353 6.856 16.309C6.812 16.2577 6.79 16.21 6.79 16.166C6.79 16.1147 6.79367 16.078 6.801 16.056L9.254 9.038C9.32 8.796 9.485 8.675 9.749 8.675ZM10.321 13.229H11.564L10.937 11.183L10.321 13.229ZM18.7707 14.12H21.8177C21.8984 14.12 21.9681 14.1493 22.0267 14.208C22.0854 14.2667 22.1147 14.3363 22.1147 14.417V16.078C22.1147 16.1587 22.0854 16.2283 22.0267 16.287C21.9681 16.3457 21.8984 16.375 21.8177 16.375H16.2737C16.1931 16.375 16.1234 16.3457 16.0647 16.287C16.0061 16.2283 15.9767 16.1587 15.9767 16.078V8.972C15.9767 8.89133 16.0061 8.82167 16.0647 8.763C16.1234 8.70433 16.1931 8.675 16.2737 8.675H18.4737C18.5544 8.675 18.6241 8.70433 18.6827 8.763C18.7414 8.82167 18.7707 8.89133 18.7707 8.972V14.12Z" fill="#0A77DB"/>
<path fill-rule="evenodd" clip-rule="evenodd" d="M6.5625 0C6.81114 0 7.0496 0.0987721 7.22541 0.274587C7.40123 0.450403 7.5 0.68886 7.5 0.9375V1.875C7.5 2.12364 7.40123 2.3621 7.22541 2.53791C7.0496 2.71373 6.81114 2.8125 6.5625 2.8125C6.31386 2.8125 6.0754 2.71373 5.89959 2.53791C5.72377 2.3621 5.625 2.12364 5.625 1.875V0.9375C5.625 0.68886 5.72377 0.450403 5.89959 0.274587C6.0754 0.0987721 6.31386 0 6.5625 0V0ZM23.4375 0C23.6861 0 23.9246 0.0987721 24.1004 0.274587C24.2762 0.450403 24.375 0.68886 24.375 0.9375V1.875C24.375 2.12364 24.2762 2.3621 24.1004 2.53791C23.9246 2.71373 23.6861 2.8125 23.4375 2.8125C23.1889 2.8125 22.9504 2.71373 22.7746 2.53791C22.5988 2.3621 22.5 2.12364 22.5 1.875V0.9375C22.5 0.68886 22.5988 0.450403 22.7746 0.274587C22.9504 0.0987721 23.1889 0 23.4375 0V0Z" fill="#0A77DB"/>
</g>
<defs>
<clipPath id="clip0_9144_26158">
<rect width="30" height="30" fill="white"/>
</clipPath>
</defs>
</svg>
