<svg width="40" height="40" viewBox="0 0 40 40" fill="none" xmlns="http://www.w3.org/2000/svg">
<circle cx="20" cy="20" r="20" fill="#EAF0FF"/>
<g clip-path="url(#clip0_3_3535)">
<path d="M31.0352 7.5H8.96484V11.5469L12.595 14.0477C12.1645 14.4491 11.8945 15.0207 11.8945 15.6543C11.8945 16.8659 12.8802 17.8516 14.0918 17.8516H15.3731C13.3004 19.3108 11.9434 21.7214 11.9434 24.4434C11.9434 28.8858 15.5576 32.5 20 32.5C24.4424 32.5 28.0566 28.8858 28.0566 24.4434C28.0566 21.7214 26.6996 19.3108 24.6269 17.8516H25.9082C27.1198 17.8516 28.1055 16.8659 28.1055 15.6543C28.1055 15.0207 27.8355 14.4491 27.405 14.0478L31.0352 11.5469V7.5ZM14.8242 13.457V8.96484H25.1758V13.457H14.8242ZM10.4297 8.96484H13.3594V12.7955L10.4297 10.7773V8.96484ZM15.2628 19.8646L16.0488 23.1596L13.4731 25.366C13.4307 25.0644 13.4082 24.7564 13.4082 24.4434C13.4082 22.6662 14.1154 21.0513 15.2628 19.8646ZM16.8155 20.0603L20 22.0053L23.1845 20.0603L22.3187 23.69L25.1526 26.1176L21.433 26.4158L20 29.8612L18.5669 26.4158L14.8473 26.1176L17.6812 23.69L16.8155 20.0603ZM14.1789 27.5335L17.558 27.8044L18.8606 30.9363C16.8306 30.5812 15.1172 29.2939 14.1789 27.5335ZM21.1393 30.9363L22.4419 27.8044L25.821 27.5335C24.8828 29.2939 23.1694 30.5812 21.1393 30.9363ZM26.5918 24.4434C26.5918 24.7564 26.5693 25.0644 26.5269 25.366L23.9512 23.1596L24.7372 19.8646C25.8846 21.0513 26.5918 22.6662 26.5918 24.4434ZM22.8934 18.5215L20 20.2889L17.1066 18.5216C17.9806 18.0928 18.9626 17.8516 20 17.8516C21.0374 17.8516 22.0194 18.0928 22.8934 18.5215ZM25.9082 16.3867H14.0918C13.6879 16.3867 13.3594 16.0582 13.3594 15.6543C13.3594 15.2504 13.6879 14.9219 14.0918 14.9219H25.9082C26.3121 14.9219 26.6406 15.2504 26.6406 15.6543C26.6406 16.0582 26.3121 16.3867 25.9082 16.3867ZM29.5703 10.7773L26.6406 12.7955V8.96484H29.5703V10.7773Z" fill="url(#paint0_linear_3_3535)"/>
</g>
<defs>
<linearGradient id="paint0_linear_3_3535" x1="8.96484" y1="12.6872" x2="31.0348" y2="12.7958" gradientUnits="userSpaceOnUse">
<stop stop-color="#5465FF"/>
<stop offset="1" stop-color="#04DEB7"/>
</linearGradient>
<clipPath id="clip0_3_3535">
<rect width="25" height="25" fill="white" transform="translate(7.5 7.5)"/>
</clipPath>
</defs>
</svg>
