<svg width="40" height="40" viewBox="0 0 40 40" fill="none" xmlns="http://www.w3.org/2000/svg">
<circle cx="20" cy="20" r="20" fill="#EAF0FF"/>
<g clip-path="url(#clip0_1782_6127)">
<path d="M13.9999 20.1336V12.9996H25.9999V20.1336L27.9999 18.9906V10.9996H11.9999V18.9906L13.9999 20.1336Z" fill="url(#paint0_linear_1782_6127)"/>
<path d="M23.266 24.0002H16.734L10 20.1522V29.0002C10 30.1042 10.896 31.0002 12 31.0002H28C29.104 31.0002 30 30.1042 30 29.0002V20.1522L23.266 24.0002Z" fill="url(#paint1_linear_1782_6127)"/>
<g opacity="0.6">
<path d="M20 22C20 22 24 19.091 24 16.936C24 14.89 20.889 14 20 16.688C19.111 14 16 14.89 16 16.936C16 19.091 20 22 20 22Z" fill="url(#paint2_linear_1782_6127)"/>
</g>
</g>
<defs>
<linearGradient id="paint0_linear_1782_6127" x1="11.9999" y1="12.8948" x2="27.9985" y2="13.051" gradientUnits="userSpaceOnUse">
<stop stop-color="#5465FF"/>
<stop offset="1" stop-color="#04DEB7"/>
</linearGradient>
<linearGradient id="paint1_linear_1782_6127" x1="10" y1="22.403" x2="29.998" y2="22.6085" gradientUnits="userSpaceOnUse">
<stop stop-color="#5465FF"/>
<stop offset="1" stop-color="#04DEB7"/>
</linearGradient>
<linearGradient id="paint2_linear_1782_6127" x1="16" y1="16.4616" x2="23.9997" y2="16.5126" gradientUnits="userSpaceOnUse">
<stop stop-color="#5465FF"/>
<stop offset="1" stop-color="#04DEB7"/>
</linearGradient>
<clipPath id="clip0_1782_6127">
<rect width="24" height="24" fill="white" transform="translate(8 9)"/>
</clipPath>
</defs>
</svg>
