<svg width="24" height="24" viewBox="0 0 24 24" fill="none" xmlns="http://www.w3.org/2000/svg">
<g clip-path="url(#clip0_1839_26236)">
<path d="M0.77 15C0.541 15 0.335 14.842 0.283 14.61C0.095 13.778 0 12.9 0 12C0 5.383 5.383 0 12 0C15.754 0 19.22 1.711 21.507 4.696C21.675 4.915 21.633 5.229 21.414 5.397C21.195 5.565 20.881 5.523 20.713 5.304C18.617 2.569 15.441 1 12 1C5.935 1 1 5.935 1 12C1 12.827 1.087 13.631 1.258 14.39C1.319 14.66 1.15 14.927 0.88 14.988C0.843 14.996 0.806 15 0.77 15Z" fill="#161719"/>
<path d="M11.9999 24C8.24591 24 4.77991 22.289 2.49291 19.304C2.32491 19.085 2.36691 18.771 2.58591 18.603C2.80691 18.436 3.11991 18.478 3.28691 18.696C5.38291 21.431 8.55891 23 11.9999 23C18.0649 23 22.9999 18.065 22.9999 12C22.9999 11.162 22.9109 10.359 22.7339 9.61604C22.6699 9.34704 22.8359 9.07704 23.1049 9.01404C23.3759 8.94904 23.6439 9.11604 23.7069 9.38504C23.9009 10.204 23.9999 11.084 23.9999 12C23.9999 18.617 18.6169 24 11.9999 24Z" fill="#161719"/>
<path d="M2.55001 24C2.27601 24 2.05301 23.779 2.05001 23.505L2.00001 18.505C1.99901 18.372 2.05101 18.243 2.14501 18.149C2.23901 18.053 2.36701 18 2.50001 18H7.50001C7.77601 18 8.00002 18.224 8.00002 18.5C8.00002 18.776 7.77601 19 7.50001 19H3.00501L3.05001 23.495C3.05301 23.771 2.83201 23.997 2.55501 24C2.55401 24 2.55201 24 2.55001 24Z" fill="#161719"/>
<path d="M21.5 6H16.5C16.224 6 16 5.776 16 5.5C16 5.224 16.224 5 16.5 5H21V0.5C21 0.224 21.224 0 21.5 0C21.776 0 22 0.224 22 0.5V5.5C22 5.776 21.776 6 21.5 6Z" fill="#161719"/>
<path d="M8.5 17H7.5C6.673 17 6 16.327 6 15.5V10.5C6 9.673 6.673 9 7.5 9H8.5C9.327 9 10 9.673 10 10.5V15.5C10 16.327 9.327 17 8.5 17ZM7.5 10C7.224 10 7 10.224 7 10.5V15.5C7 15.776 7.224 16 7.5 16H8.5C8.776 16 9 15.776 9 15.5V10.5C9 10.224 8.776 10 8.5 10H7.5Z" fill="#161719"/>
<path d="M15 16.9995H14.24C11.539 16.9995 9.95496 16.3255 9.25196 15.9235C9.01196 15.7865 8.92896 15.4815 9.06596 15.2415C9.20296 15.0015 9.50796 14.9165 9.74796 15.0555C10.245 15.3395 11.678 15.9995 14.24 15.9995H15C15.703 15.9995 16.338 15.4805 16.446 14.8185C16.449 14.8025 16.452 14.7875 16.456 14.7725C16.516 14.4805 16.987 11.6775 17 11.4005C17 10.6325 16.367 9.99953 15.59 9.99953H12.84C12.655 9.99953 12.486 9.89753 12.399 9.73453C12.312 9.57153 12.322 9.37353 12.425 9.22053C12.426 9.21753 12.81 8.61553 12.81 7.62953C12.81 6.63153 12.409 6.26953 12.14 6.26953C12.046 6.28253 11.94 6.42453 11.94 7.16953C11.94 8.71853 10.398 9.84953 9.73496 10.2635C9.50096 10.4105 9.19196 10.3385 9.04596 10.1045C8.89996 9.87053 8.97096 9.56153 9.20496 9.41553C9.61196 9.16153 10.94 8.24753 10.94 7.16953C10.94 6.55253 10.94 5.26953 12.14 5.26953C12.944 5.26953 13.81 6.00753 13.81 7.62953C13.81 8.18253 13.715 8.64653 13.603 8.99953H15.59C16.919 8.99953 18 10.0805 18 11.4095C18 11.4415 17.876 13.9505 17.39 14.9725L17.434 14.9795C17.246 16.1315 16.2 16.9995 15 16.9995Z" fill="#161719"/>
</g>
<defs>
<clipPath id="clip0_1839_26236">
<rect width="24" height="24" fill="white"/>
</clipPath>
</defs>
</svg>
