<svg width="40" height="40" viewBox="0 0 40 40" fill="none" xmlns="http://www.w3.org/2000/svg">
<circle cx="20" cy="20" r="20" fill="#EAF0FF"/>
<g clip-path="url(#clip0_3_3582)">
<path d="M30.4152 23.4484C30.342 23.2289 30.2226 23.0277 30.0649 22.8583C29.9072 22.689 29.715 22.5555 29.5012 22.4669C29.2875 22.3783 29.0572 22.3366 28.8259 22.3448C28.5947 22.3529 28.3679 22.4107 28.1609 22.5141L27.8124 22.6879L27.6269 22.5957C27.3105 22.4427 26.9646 22.36 26.6132 22.3532C26.2618 22.3465 25.913 22.4159 25.591 22.5566L24.9867 22.4055C24.6832 22.3315 24.3671 22.3251 24.0609 22.3869C23.7547 22.4486 23.4658 22.577 23.2148 22.7629L22.2132 23.5156H20.4828L19.9218 23.2348C19.1744 22.8611 18.3415 22.6916 17.5074 22.7435C16.6734 22.7955 15.8679 23.0669 15.1726 23.5305L13.9445 24.3508L13.3781 24.6336L12.9281 23.7352C12.8835 23.646 12.8066 23.5772 12.7129 23.5429C12.6193 23.5087 12.5162 23.5115 12.4246 23.5508L9.69018 24.7227C9.64255 24.7435 9.59955 24.7736 9.56371 24.8113C9.52787 24.8489 9.49991 24.8934 9.48147 24.942C9.46302 24.9906 9.45447 25.0424 9.4563 25.0943C9.45813 25.1463 9.47031 25.1974 9.49214 25.2445L12.6171 31.8852C12.6401 31.9339 12.6729 31.9773 12.7135 32.0127C12.754 32.0482 12.8015 32.0748 12.8528 32.091C12.9042 32.1072 12.9583 32.1127 13.0119 32.107C13.0654 32.1012 13.1172 32.0845 13.164 32.0578L15.8984 30.4953C15.9851 30.4459 16.0497 30.3651 16.0787 30.2696C16.1078 30.1741 16.0992 30.071 16.0546 29.9816L15.639 29.1508C16.7646 28.5623 18.0618 28.3903 19.3019 28.6649L20.0124 28.8211C20.9367 29.0265 21.8937 29.0364 22.822 28.8502C23.7504 28.664 24.6295 28.2858 25.4031 27.7399L30.3839 24.2242C30.4524 24.1758 30.5035 24.1066 30.5296 24.0269C30.5557 23.9472 30.5554 23.8612 30.5289 23.7816L30.4152 23.4484ZM27.0996 23.2215L25.3253 24.7426C25.218 24.4781 25.054 24.2404 24.8449 24.0461L25.5562 23.4766C25.7719 23.3089 26.026 23.1978 26.2955 23.1532C26.565 23.1087 26.8414 23.1322 27.0996 23.2215ZM23.6839 23.3895C23.8303 23.2832 23.9967 23.2076 24.173 23.1673C24.3494 23.127 24.5321 23.1229 24.7101 23.1551L24.1242 23.6238C23.9284 23.5553 23.7229 23.5187 23.5156 23.5156L23.6839 23.3895ZM13.1417 31.1719L10.3683 25.2797L12.3921 24.4125L15.1886 30L13.1417 31.1719ZM24.9503 27.1051C24.2658 27.5883 23.4879 27.923 22.6663 28.0878C21.8448 28.2525 20.9979 28.2437 20.18 28.0617L19.4695 27.9055C18.0548 27.5928 16.5752 27.7878 15.2898 28.4563L13.7273 25.3344L14.3132 25.0406C14.3278 25.0333 14.3419 25.0251 14.3554 25.016L15.6054 24.184C16.1856 23.7966 16.8579 23.5694 17.5542 23.5255C18.2504 23.4815 18.9459 23.6223 19.5703 23.9336L20.2144 24.2559C20.2691 24.2831 20.3294 24.2972 20.3906 24.2969H23.5156C23.7579 24.2972 23.9941 24.3724 24.192 24.5123C24.3898 24.6522 24.5396 24.8498 24.6206 25.0781H21.1718V25.8594H25.0781C25.1713 25.8596 25.2614 25.8261 25.332 25.7652L28.0292 23.4531L28.5097 23.2129C28.6167 23.1595 28.7339 23.1297 28.8533 23.1255C28.9728 23.1213 29.0918 23.1428 29.2023 23.1886C29.3127 23.2344 29.412 23.3033 29.4935 23.3908C29.575 23.4783 29.6367 23.5823 29.6746 23.6957L29.6937 23.7543L24.9503 27.1051Z" fill="url(#paint0_linear_3_3582)"/>
<path d="M21.4521 10.2344C20.7196 10.2549 20.0076 10.481 19.3975 10.887C18.7874 11.2929 18.3038 11.8623 18.0019 12.5301C17.7001 13.1978 17.5922 13.937 17.6905 14.6632C17.7888 15.3894 18.0894 16.0733 18.558 16.6367C18.8936 17.0421 19.11 17.5327 19.183 18.0539C19.0865 18.0618 18.9965 18.1056 18.9308 18.1766C18.8651 18.2477 18.8283 18.3407 18.8279 18.4375V20.7813C18.8279 20.8849 18.869 20.9842 18.9423 21.0575C19.0155 21.1307 19.1149 21.1719 19.2185 21.1719H19.6482C19.7378 21.6134 19.9774 22.0104 20.3262 22.2955C20.675 22.5806 21.1117 22.7363 21.5623 22.7363C22.0128 22.7363 22.4495 22.5806 22.7983 22.2955C23.1471 22.0104 23.3867 21.6134 23.4763 21.1719H23.906C24.0096 21.1719 24.109 21.1307 24.1822 21.0575C24.2555 20.9842 24.2966 20.8849 24.2966 20.7813V18.4375C24.2961 18.3406 24.2593 18.2474 24.1934 18.1764C24.1275 18.1054 24.0374 18.0617 23.9408 18.0539C24.0153 17.5312 24.2331 17.0393 24.5701 16.6328C25.0496 16.0547 25.3523 15.3505 25.4418 14.6047C25.5314 13.8589 25.404 13.1031 25.0749 12.4279C24.7459 11.7526 24.2291 11.1866 23.5866 10.7976C22.944 10.4085 22.2029 10.213 21.4521 10.2344ZM21.5623 21.9531C21.3207 21.9521 21.0854 21.8765 20.8885 21.7367C20.6916 21.5969 20.5428 21.3996 20.4623 21.1719H22.6622C22.5817 21.3996 22.4329 21.5969 22.236 21.7367C22.0391 21.8765 21.8038 21.9521 21.5623 21.9531ZM23.5154 20.3906H19.6091V18.8281H23.5154V20.3906ZM23.9685 16.1328C23.5147 16.6775 23.2297 17.3427 23.1482 18.0469H19.9751C19.8952 17.3441 19.6113 16.68 19.1583 16.1367C18.7838 15.686 18.5435 15.139 18.4649 14.5582C18.3864 13.9774 18.4727 13.3863 18.7141 12.8522C18.9555 12.3182 19.3422 11.8628 19.8301 11.538C20.318 11.2133 20.8874 11.0322 21.4732 11.0156C21.8916 10.9999 22.3087 11.0703 22.6988 11.2222C23.0889 11.3742 23.4437 11.6046 23.7412 11.8992C24.3043 12.4471 24.6404 13.187 24.6826 13.9716C24.7247 14.7561 24.4698 15.5278 23.9685 16.1328Z" fill="url(#paint1_linear_3_3582)"/>
<path d="M21.5625 11.7969V12.5781C21.9769 12.5781 22.3743 12.7427 22.6674 13.0358C22.9604 13.3288 23.125 13.7262 23.125 14.1406H23.9062C23.9056 13.5192 23.6585 12.9234 23.2191 12.484C22.7797 12.0446 22.1839 11.7975 21.5625 11.7969Z" fill="url(#paint2_linear_3_3582)"/>
<path d="M21.1719 7.89062H21.9531V9.45312H21.1719V7.89062Z" fill="url(#paint3_linear_3_3582)"/>
<path d="M24.7999 10.3502L25.9718 9.17823L26.5243 9.73066L25.3523 10.9026L24.7999 10.3502Z" fill="url(#paint4_linear_3_3582)"/>
<path d="M16.5978 9.73026L17.1503 9.17783L18.3222 10.3498L17.7698 10.9022L16.5978 9.73026Z" fill="url(#paint5_linear_3_3582)"/>
<path d="M25.1893 16.7615L25.7418 16.2091L26.9137 17.3811L26.3613 17.9335L25.1893 16.7615Z" fill="url(#paint6_linear_3_3582)"/>
<path d="M16.5969 17.7705L17.7689 16.5985L18.3213 17.151L17.1494 18.323L16.5969 17.7705Z" fill="url(#paint7_linear_3_3582)"/>
<path d="M26.25 13.3594H27.8125V14.1406H26.25V13.3594Z" fill="url(#paint8_linear_3_3582)"/>
<path d="M15.3125 13.3594H16.875V14.1406H15.3125V13.3594Z" fill="url(#paint9_linear_3_3582)"/>
</g>
<defs>
<linearGradient id="paint0_linear_3_3582" x1="9.45605" y1="24.37" x2="30.546" y2="24.6239" gradientUnits="userSpaceOnUse">
<stop stop-color="#5465FF"/>
<stop offset="1" stop-color="#04DEB7"/>
</linearGradient>
<linearGradient id="paint1_linear_3_3582" x1="17.6552" y1="12.8271" x2="25.4696" y2="12.8544" gradientUnits="userSpaceOnUse">
<stop stop-color="#5465FF"/>
<stop offset="1" stop-color="#04DEB7"/>
</linearGradient>
<linearGradient id="paint2_linear_3_3582" x1="21.5625" y1="12.2832" x2="23.9062" y2="12.2962" gradientUnits="userSpaceOnUse">
<stop stop-color="#5465FF"/>
<stop offset="1" stop-color="#04DEB7"/>
</linearGradient>
<linearGradient id="paint3_linear_3_3582" x1="21.1719" y1="8.21482" x2="21.9531" y2="8.217" gradientUnits="userSpaceOnUse">
<stop stop-color="#5465FF"/>
<stop offset="1" stop-color="#04DEB7"/>
</linearGradient>
<linearGradient id="paint4_linear_3_3582" x1="24.9145" y1="10.4648" x2="26.1002" y2="9.30686" gradientUnits="userSpaceOnUse">
<stop stop-color="#5465FF"/>
<stop offset="1" stop-color="#04DEB7"/>
</linearGradient>
<linearGradient id="paint5_linear_3_3582" x1="16.841" y1="9.97342" x2="17.3949" y2="9.42245" gradientUnits="userSpaceOnUse">
<stop stop-color="#5465FF"/>
<stop offset="1" stop-color="#04DEB7"/>
</linearGradient>
<linearGradient id="paint6_linear_3_3582" x1="25.4325" y1="17.0047" x2="25.9864" y2="16.4537" gradientUnits="userSpaceOnUse">
<stop stop-color="#5465FF"/>
<stop offset="1" stop-color="#04DEB7"/>
</linearGradient>
<linearGradient id="paint7_linear_3_3582" x1="16.7115" y1="17.8851" x2="17.8972" y2="16.7272" gradientUnits="userSpaceOnUse">
<stop stop-color="#5465FF"/>
<stop offset="1" stop-color="#04DEB7"/>
</linearGradient>
<linearGradient id="paint8_linear_3_3582" x1="26.25" y1="13.5215" x2="27.8123" y2="13.5389" gradientUnits="userSpaceOnUse">
<stop stop-color="#5465FF"/>
<stop offset="1" stop-color="#04DEB7"/>
</linearGradient>
<linearGradient id="paint9_linear_3_3582" x1="15.3125" y1="13.5215" x2="16.8748" y2="13.5389" gradientUnits="userSpaceOnUse">
<stop stop-color="#5465FF"/>
<stop offset="1" stop-color="#04DEB7"/>
</linearGradient>
<clipPath id="clip0_3_3582">
<rect width="25" height="25" fill="white" transform="translate(7.5 7.5)"/>
</clipPath>
</defs>
</svg>
