<svg width="24" height="24" viewBox="0 0 24 24" fill="none" xmlns="http://www.w3.org/2000/svg">
<path d="M21.9987 15.3105C21.9285 15.0997 21.8138 14.9065 21.6624 14.744C21.511 14.5814 21.3265 14.4532 21.1213 14.3682C20.9161 14.2831 20.695 14.2431 20.473 14.251C20.251 14.2588 20.0333 14.3142 19.8346 14.4135L19.5001 14.5804L19.3219 14.4919C19.0182 14.345 18.6862 14.2655 18.3488 14.2591C18.0114 14.2526 17.6766 14.3192 17.3674 14.4544L16.7873 14.3092C16.496 14.2382 16.1926 14.2321 15.8986 14.2914C15.6046 14.3507 15.3273 14.4739 15.0863 14.6524L14.1248 15.375H12.4636L11.9251 15.1054C11.2075 14.7466 10.4079 14.5839 9.60724 14.6338C8.80657 14.6836 8.03331 14.9442 7.36582 15.3892L6.18682 16.1767L5.64307 16.4482L5.21107 15.5857C5.1683 15.5001 5.09441 15.4341 5.00455 15.4012C4.91468 15.3683 4.81563 15.371 4.72769 15.4087L2.10269 16.5337C2.05696 16.5537 2.01569 16.5826 1.98128 16.6188C1.94688 16.6549 1.92003 16.6976 1.90233 16.7443C1.88462 16.7909 1.8764 16.8407 1.87816 16.8905C1.87992 16.9404 1.89162 16.9894 1.91257 17.0347L4.91257 23.4097C4.93462 23.4565 4.96611 23.4982 5.00504 23.5322C5.04398 23.5662 5.08953 23.5918 5.13884 23.6074C5.18814 23.6229 5.24013 23.6281 5.29153 23.6226C5.34294 23.6172 5.39266 23.6011 5.43757 23.5755L8.06257 22.0755C8.14586 22.028 8.20782 21.9505 8.23572 21.8588C8.26361 21.7671 8.25533 21.6681 8.21257 21.5824L7.81357 20.7847C8.89413 20.2198 10.1395 20.0546 11.3299 20.3182L12.0121 20.4682C12.8994 20.6654 13.8181 20.6749 14.7093 20.4962C15.6005 20.3174 16.4444 19.9543 17.1871 19.4302L21.9687 16.0552C22.0344 16.0087 22.0834 15.9423 22.1085 15.8658C22.1335 15.7893 22.1333 15.7067 22.1078 15.6304L21.9987 15.3105ZM18.8157 15.0926L17.1124 16.5529C17.0094 16.2989 16.852 16.0707 16.6512 15.8842L17.3341 15.3375C17.5411 15.1765 17.7851 15.0698 18.0438 15.0271C18.3025 14.9843 18.5679 15.0068 18.8157 15.0926ZM15.5367 15.2539C15.6772 15.1518 15.8369 15.0793 16.0062 15.0406C16.1755 15.0019 16.3509 14.9979 16.5218 15.0289L15.9593 15.4789C15.7714 15.413 15.5741 15.3779 15.3751 15.375L15.5367 15.2539ZM5.41619 22.725L2.75369 17.0685L4.69657 16.236L7.38119 21.6L5.41619 22.725ZM16.7524 18.8208C16.0953 19.2847 15.3485 19.6061 14.5598 19.7642C13.7711 19.9224 12.9581 19.9139 12.1729 19.7392L11.4908 19.5892C10.1327 19.289 8.7123 19.4762 7.47832 20.118L5.97832 17.121L6.54082 16.839C6.55477 16.8319 6.5683 16.824 6.58132 16.8154L7.78132 16.0166C8.33832 15.6447 8.9837 15.4266 9.65211 15.3844C10.3205 15.3422 10.9882 15.4774 11.5876 15.7762L12.2059 16.0856C12.2585 16.1118 12.3164 16.1253 12.3751 16.125H15.3751C15.6077 16.1253 15.8345 16.1975 16.0244 16.3318C16.2144 16.466 16.3581 16.6558 16.4359 16.875H13.1251V17.625H16.8751C16.9645 17.6251 17.0511 17.5931 17.1188 17.5346L19.7082 15.315L20.1694 15.0844C20.2721 15.0331 20.3846 15.0045 20.4993 15.0004C20.614 14.9964 20.7283 15.0171 20.8343 15.061C20.9403 15.105 21.0357 15.1712 21.1139 15.2552C21.1921 15.3392 21.2514 15.439 21.2877 15.5479L21.3061 15.6041L16.7524 18.8208Z" fill="#161719"/>
<path d="M13.3943 2.62457C12.6911 2.64426 12.0076 2.86136 11.4219 3.25107C10.8362 3.64078 10.372 4.18738 10.0822 4.82843C9.7924 5.46947 9.68879 6.1791 9.78318 6.87624C9.87757 7.57338 10.1662 8.22991 10.616 8.77082C10.9382 9.15995 11.1459 9.63098 11.216 10.1313C11.1234 10.1389 11.037 10.181 10.9739 10.2491C10.9108 10.3173 10.8755 10.4067 10.8751 10.4996V12.7496C10.8751 12.849 10.9146 12.9444 10.9849 13.0147C11.0552 13.0851 11.1506 13.1246 11.2501 13.1246H11.6626C11.7487 13.5484 11.9786 13.9295 12.3135 14.2032C12.6484 14.4769 13.0676 14.6264 13.5001 14.6264C13.9326 14.6264 14.3518 14.4769 14.6867 14.2032C15.0216 13.9295 15.2515 13.5484 15.3376 13.1246H15.7501C15.8495 13.1246 15.9449 13.0851 16.0152 13.0147C16.0856 12.9444 16.1251 12.849 16.1251 12.7496V10.4996C16.1246 10.4065 16.0893 10.3171 16.026 10.2489C15.9627 10.1807 15.8762 10.1387 15.7835 10.1313C15.855 9.62951 16.0641 9.15731 16.3876 8.76707C16.8479 8.21204 17.1385 7.53604 17.2245 6.82008C17.3104 6.10412 17.1881 5.37856 16.8723 4.73033C16.5564 4.0821 16.0603 3.53869 15.4434 3.16521C14.8266 2.79173 14.1151 2.60402 13.3943 2.62457ZM13.5001 13.8746C13.2682 13.8736 13.0423 13.801 12.8533 13.6668C12.6643 13.5325 12.5214 13.3432 12.4441 13.1246H14.5561C14.4788 13.3432 14.3359 13.5325 14.1468 13.6668C13.9578 13.801 13.7319 13.8736 13.5001 13.8746ZM15.3751 12.3746H11.6251V10.8746H15.3751V12.3746ZM15.8101 8.28707C15.3745 8.80995 15.1008 9.44852 15.0226 10.1246H11.9765C11.8998 9.44986 11.6272 8.81239 11.1923 8.29082C10.8327 7.85811 10.6021 7.333 10.5266 6.77544C10.4512 6.21789 10.5341 5.65036 10.7659 5.13768C10.9976 4.62499 11.3689 4.18781 11.8372 3.87604C12.3056 3.56428 12.8522 3.39051 13.4146 3.37457C13.8162 3.3595 14.2167 3.42701 14.5912 3.57291C14.9657 3.71882 15.3062 3.94001 15.5918 4.22282C16.1325 4.74878 16.4551 5.45909 16.4956 6.21227C16.536 6.96546 16.2913 7.70624 15.8101 8.28707Z" fill="#161719"/>
<path d="M13.5 4.125V4.875C13.8978 4.875 14.2794 5.03304 14.5607 5.31434C14.842 5.59564 15 5.97718 15 6.375H15.75C15.7494 5.77845 15.5122 5.2065 15.0903 4.78467C14.6685 4.36284 14.0966 4.1256 13.5 4.125Z" fill="#161719"/>
<path d="M13.125 0.375H13.875V1.875H13.125V0.375Z" fill="#161719"/>
<path d="M16.6078 2.73633L17.7329 1.61123L18.2632 2.14156L17.1381 3.26666L16.6078 2.73633Z" fill="#161719"/>
<path d="M8.73389 2.14062L9.26422 1.6103L10.3893 2.73539L9.85898 3.26572L8.73389 2.14062Z" fill="#161719"/>
<path d="M16.9821 8.89062L17.5124 8.36029L18.6375 9.48539L18.1072 10.0157L16.9821 8.89062Z" fill="#161719"/>
<path d="M8.73315 9.85938L9.85825 8.73428L10.3886 9.26461L9.26349 10.3897L8.73315 9.85938Z" fill="#161719"/>
<path d="M18 5.625H19.5V6.375H18V5.625Z" fill="#161719"/>
<path d="M7.5 5.625H9V6.375H7.5V5.625Z" fill="#161719"/>
</svg>
