<svg width="40" height="40" viewBox="0 0 40 40" fill="none" xmlns="http://www.w3.org/2000/svg">
<circle cx="20" cy="20" r="20" fill="#EAF0FF"/>
<g clip-path="url(#clip0_3_3441)">
<path d="M8.30208 23.125C8.06354 23.125 7.84896 22.9604 7.79479 22.7187C7.59896 21.8521 7.5 20.9375 7.5 20C7.5 13.1073 13.1073 7.5 20 7.5C23.9104 7.5 27.5208 9.28229 29.9031 12.3917C30.0781 12.6198 30.0344 12.9469 29.8063 13.1219C29.5781 13.2969 29.251 13.2531 29.076 13.025C26.8927 10.176 23.5844 8.54167 20 8.54167C13.6823 8.54167 8.54167 13.6823 8.54167 20C8.54167 20.8615 8.63229 21.699 8.81042 22.4896C8.87396 22.7708 8.69792 23.049 8.41667 23.1125C8.37813 23.1208 8.33958 23.125 8.30208 23.125V23.125Z" fill="url(#paint0_linear_3_3441)"/>
<path d="M19.9998 32.5C16.0894 32.5 12.479 30.7177 10.0967 27.6083C9.92166 27.3802 9.96541 27.0531 10.1935 26.8781C10.4237 26.7042 10.7498 26.7479 10.9237 26.975C13.1071 29.824 16.4154 31.4583 19.9998 31.4583C26.3175 31.4583 31.4581 26.3177 31.4581 20C31.4581 19.1271 31.3654 18.2906 31.181 17.5167C31.1144 17.2365 31.2873 16.9552 31.5675 16.8896C31.8498 16.8219 32.129 16.9958 32.1946 17.276C32.3967 18.1292 32.4998 19.0458 32.4998 20C32.4998 26.8927 26.8925 32.5 19.9998 32.5Z" fill="url(#paint1_linear_3_3441)"/>
<path d="M10.1566 32.5C9.87116 32.5 9.63887 32.2698 9.63575 31.9844L9.58366 26.776C9.58262 26.6375 9.63679 26.5031 9.73471 26.4052C9.83262 26.3052 9.96596 26.25 10.1045 26.25H15.3128C15.6003 26.25 15.8337 26.4833 15.8337 26.7708C15.8337 27.0583 15.6003 27.2917 15.3128 27.2917H10.6305L10.6774 31.974C10.6805 32.2615 10.4503 32.4969 10.1618 32.5C10.1607 32.5 10.1587 32.5 10.1566 32.5V32.5Z" fill="url(#paint2_linear_3_3441)"/>
<path d="M29.8956 13.75H24.6872C24.3997 13.75 24.1664 13.5167 24.1664 13.2292C24.1664 12.9417 24.3997 12.7083 24.6872 12.7083H29.3747V8.02083C29.3747 7.73333 29.6081 7.5 29.8956 7.5C30.1831 7.5 30.4164 7.73333 30.4164 8.02083V13.2292C30.4164 13.5167 30.1831 13.75 29.8956 13.75Z" fill="url(#paint3_linear_3_3441)"/>
<path d="M16.3542 25.2083H15.3125C14.451 25.2083 13.75 24.5073 13.75 23.6458V18.4375C13.75 17.576 14.451 16.875 15.3125 16.875H16.3542C17.2156 16.875 17.9167 17.576 17.9167 18.4375V23.6458C17.9167 24.5073 17.2156 25.2083 16.3542 25.2083ZM15.3125 17.9167C15.025 17.9167 14.7917 18.15 14.7917 18.4375V23.6458C14.7917 23.9333 15.025 24.1667 15.3125 24.1667H16.3542C16.6417 24.1667 16.875 23.9333 16.875 23.6458V18.4375C16.875 18.15 16.6417 17.9167 16.3542 17.9167H15.3125Z" fill="url(#paint4_linear_3_3441)"/>
<path d="M23.1252 25.2083H22.3336C19.52 25.2083 17.87 24.5062 17.1377 24.0875C16.8877 23.9448 16.8013 23.6271 16.944 23.3771C17.0867 23.1271 17.4044 23.0385 17.6544 23.1833C18.1721 23.4791 19.6648 24.1666 22.3336 24.1666H23.1252C23.8575 24.1666 24.519 23.626 24.6315 22.9364C24.6346 22.9198 24.6377 22.9041 24.6419 22.8885C24.7044 22.5844 25.195 19.6646 25.2086 19.376C25.2086 18.576 24.5492 17.9166 23.7398 17.9166H20.8752C20.6825 17.9166 20.5065 17.8104 20.4159 17.6406C20.3252 17.4708 20.3356 17.2646 20.4429 17.1052C20.444 17.1021 20.844 16.475 20.844 15.4479C20.844 14.4083 20.4263 14.0312 20.1461 14.0312C20.0481 14.0448 19.9377 14.1927 19.9377 14.9687C19.9377 16.5823 18.3315 17.7604 17.6409 18.1916C17.3971 18.3448 17.0752 18.2698 16.9231 18.026C16.7711 17.7823 16.845 17.4604 17.0888 17.3083C17.5127 17.0437 18.8961 16.0916 18.8961 14.9687C18.8961 14.326 18.8961 12.9896 20.1461 12.9896C20.9836 12.9896 21.8856 13.7583 21.8856 15.4479C21.8856 16.0239 21.7867 16.5073 21.67 16.875H23.7398C25.1242 16.875 26.2502 18.001 26.2502 19.3854C26.2502 19.4187 26.1211 22.0323 25.6148 23.0968L25.6606 23.1041C25.4648 24.3041 24.3752 25.2083 23.1252 25.2083V25.2083Z" fill="url(#paint5_linear_3_3441)"/>
</g>
<defs>
<linearGradient id="paint0_linear_3_3441" x1="7.5" y1="10.742" x2="30.0091" y2="10.9227" gradientUnits="userSpaceOnUse">
<stop stop-color="#5465FF"/>
<stop offset="1" stop-color="#04DEB7"/>
</linearGradient>
<linearGradient id="paint1_linear_3_3441" x1="9.98935" y1="20.117" x2="32.4985" y2="20.2977" gradientUnits="userSpaceOnUse">
<stop stop-color="#5465FF"/>
<stop offset="1" stop-color="#04DEB7"/>
</linearGradient>
<linearGradient id="paint2_linear_3_3441" x1="9.58365" y1="27.5468" x2="15.8335" y2="27.5816" gradientUnits="userSpaceOnUse">
<stop stop-color="#5465FF"/>
<stop offset="1" stop-color="#04DEB7"/>
</linearGradient>
<linearGradient id="paint3_linear_3_3441" x1="24.1664" y1="8.7968" x2="30.4163" y2="8.83163" gradientUnits="userSpaceOnUse">
<stop stop-color="#5465FF"/>
<stop offset="1" stop-color="#04DEB7"/>
</linearGradient>
<linearGradient id="paint4_linear_3_3441" x1="13.75" y1="18.6041" x2="17.9167" y2="18.6157" gradientUnits="userSpaceOnUse">
<stop stop-color="#5465FF"/>
<stop offset="1" stop-color="#04DEB7"/>
</linearGradient>
<linearGradient id="paint5_linear_3_3441" x1="16.8441" y1="15.5248" x2="26.2501" y2="15.5652" gradientUnits="userSpaceOnUse">
<stop stop-color="#5465FF"/>
<stop offset="1" stop-color="#04DEB7"/>
</linearGradient>
<clipPath id="clip0_3_3441">
<rect width="25" height="25" fill="white" transform="translate(7.5 7.5)"/>
</clipPath>
</defs>
</svg>
