<svg width="40" height="40" viewBox="0 0 40 40" fill="none" xmlns="http://www.w3.org/2000/svg">
<circle cx="20" cy="20" r="20" fill="#EAF0FF"/>
<g clip-path="url(#clip0_3_3488)">
<path d="M31.8458 17.024C32.1032 16.6593 32.2646 16.2312 32.3099 15.7811C32.3796 15.0877 32.1751 14.4087 31.7341 13.8692C31.3535 13.4035 30.8386 13.0908 30.2608 12.9685C29.8577 12.0149 28.911 11.3729 27.8569 11.3729C26.7628 11.3729 25.812 12.0439 25.4282 13.0281C25.0057 12.9437 24.5572 12.9313 24.1145 13.0003C23.5656 12.8656 22.9766 12.9153 22.4605 13.138C22.1201 12.981 21.7484 12.899 21.3713 12.899C21.0219 12.899 20.6712 12.9718 20.3484 13.1105C20.2134 13.0968 20.0765 13.0898 19.9396 13.0898C19.1311 13.0898 18.3423 13.3344 17.6762 13.7856C17.3622 13.5188 17.0063 13.315 16.6134 13.1768C16.5573 13.0033 16.4832 12.8369 16.3915 12.6787C16.4787 12.4159 16.5228 12.142 16.5228 11.8611C16.5228 10.4227 15.3525 9.25247 13.9142 9.25247H10.1086C8.67021 9.25252 7.5 10.4227 7.5 11.8611C7.5 13.0479 8.28892 14.0595 9.39507 14.3714V18.7522C9.39507 20.0116 10.2768 21.0605 11.4696 21.306C11.5287 21.6588 11.6598 21.996 11.8573 22.2988L13.6322 25.0168L13.6257 27.7569C13.6237 28.4542 13.8934 29.11 14.3848 29.6033C14.8761 30.0972 15.5319 30.3702 16.2343 30.3722C16.8241 30.3722 17.3956 30.1696 17.8538 29.8062C18.4921 30.1776 19.2117 30.3722 19.9571 30.3722C20.8547 30.3722 21.7205 30.0865 22.4378 29.5605C23.0966 30.0862 23.9167 30.3722 24.783 30.3722H24.8471C25.5974 30.3722 26.318 30.1551 26.9269 29.7526C27.4157 30.3704 28.1696 30.7475 28.9744 30.7475C30.4128 30.7475 31.583 29.5773 31.583 28.1389C31.583 27.7728 31.5055 27.4112 31.3572 27.0788C31.4866 26.7886 31.5627 26.4745 31.5794 26.1568C31.5936 25.8875 31.3867 25.6577 31.1174 25.6436C30.8481 25.6302 30.6183 25.8363 30.6042 26.1056C30.5906 26.3647 30.5177 26.6094 30.3875 26.8331C30.2992 26.9848 30.2991 27.1721 30.3873 27.3239C30.5306 27.5708 30.6064 27.8526 30.6064 28.1388C30.6064 29.0388 29.8743 29.7709 28.9744 29.7709C28.3444 29.7709 27.7642 29.4011 27.496 28.8286C27.4301 28.688 27.3012 28.587 27.1488 28.5568C26.9965 28.5266 26.8387 28.5707 26.7242 28.6757C26.2171 29.14 25.5505 29.3956 24.8472 29.3956H24.783C24.0504 29.3956 23.364 29.1216 22.851 28.6248C22.8368 28.611 22.8232 28.5964 22.8094 28.5818C22.6267 28.3883 22.3227 28.3767 22.1257 28.5559C21.5306 29.0974 20.7605 29.3956 19.9571 29.3956C19.2821 29.3956 18.6345 29.1874 18.0845 28.7936C17.8833 28.6495 17.6062 28.6788 17.4394 28.8616C17.13 29.2009 16.6908 29.3956 16.2341 29.3956C15.7954 29.3945 15.3846 29.2236 15.077 28.9144C14.7696 28.6059 14.601 28.1957 14.6022 27.7595L14.6092 24.8732C14.6094 24.778 14.5818 24.6848 14.5297 24.6051L12.6751 21.7651C12.5015 21.499 12.41 21.1899 12.4104 20.8711C12.4107 20.6084 12.2032 20.3925 11.9406 20.3825C11.0608 20.3491 10.3717 19.6329 10.3717 18.7522V13.9698C10.3717 13.7201 10.1833 13.5106 9.93491 13.4843C9.10347 13.396 8.47656 12.6982 8.47656 11.8611C8.47656 10.9612 9.20869 10.229 10.1086 10.229H13.9141C14.814 10.229 15.5461 10.9612 15.5461 11.8611C15.5461 12.095 15.4973 12.3209 15.4011 12.5328C15.3283 12.693 15.3475 12.8801 15.4512 13.0223C15.591 13.2142 15.6854 13.4285 15.7316 13.6595C15.7682 13.8425 15.9059 13.9887 16.0865 14.0361C16.5156 14.1487 16.8885 14.3617 17.1929 14.6675C17.2211 14.6961 17.2488 14.7262 17.2756 14.7558C17.4529 14.9512 17.7533 14.9706 17.9541 14.7994C18.5087 14.3267 19.2138 14.0663 19.9395 14.0663C20.0812 14.0663 20.2225 14.0761 20.3596 14.0955C20.458 14.1093 20.5583 14.0928 20.6471 14.0482C20.8718 13.9352 21.1222 13.8755 21.3713 13.8755C21.6643 13.8755 21.9521 13.9549 22.2035 14.1049C22.3541 14.1948 22.5412 14.197 22.6939 14.1108C23.0718 13.8973 23.5339 13.8447 23.9534 13.968C24.0273 13.9898 24.1053 13.9937 24.181 13.9795C24.3489 13.9481 24.5191 13.9322 24.687 13.9322C25.0069 13.9322 25.315 13.9841 25.6029 14.0867C25.7388 14.1351 25.8893 14.1209 26.0138 14.0479C26.1382 13.9749 26.2241 13.8506 26.2482 13.7083C26.3816 12.9209 27.0582 12.3493 27.8569 12.3493C28.5849 12.3493 29.2311 12.8387 29.4282 13.5396C29.4833 13.7351 29.6536 13.8762 29.8561 13.8938C30.2981 13.9321 30.6965 14.1428 30.978 14.4871C31.2539 14.8246 31.3819 15.2495 31.3383 15.6833C31.2989 16.0736 31.1294 16.4231 30.8479 16.6939C30.7537 16.7844 30.6998 16.9089 30.6981 17.0395C30.6965 17.1702 30.7472 17.296 30.839 17.3889L31.053 17.6055C31.3592 17.9151 31.5263 18.3256 31.5235 18.762C31.521 19.1978 31.3489 19.6065 31.0385 19.9131C30.9643 19.9866 30.8818 20.0539 30.7933 20.1132C30.6341 20.2198 30.552 20.4096 30.5833 20.5987C30.5986 20.6911 30.6064 21.7366 30.6064 21.7366C30.6064 22.0062 30.825 22.2249 31.0947 22.2249C31.3643 22.2249 31.583 22.0062 31.583 21.7366V20.8724C31.583 20.8289 31.5818 20.7851 31.5796 20.741C31.63 20.6982 31.6786 20.6536 31.7252 20.6075C32.2209 20.1177 32.4961 19.4643 32.5 18.768C32.5042 18.1191 32.2729 17.5051 31.8458 17.024Z" fill="url(#paint0_linear_3_3488)"/>
<path d="M31.0947 24.4222C31.3644 24.4222 31.583 24.2036 31.583 23.9339C31.583 23.6642 31.3644 23.4456 31.0947 23.4456C30.8251 23.4456 30.6064 23.6642 30.6064 23.9339C30.6064 24.2036 30.8251 24.4222 31.0947 24.4222Z" fill="url(#paint1_linear_3_3488)"/>
<path d="M16.2329 28.2519H16.2341C16.5032 28.2519 16.7217 28.0341 16.7224 27.7648L16.7307 24.389L18.8351 21.1563C18.9822 20.9303 18.9182 20.6278 18.6923 20.4807C18.4663 20.3336 18.1637 20.3976 18.0166 20.6235L16.2422 23.3494L14.4504 20.6055C14.303 20.3797 14.0004 20.3161 13.7747 20.4636C13.5488 20.6111 13.4854 20.9136 13.6328 21.1394L15.7541 24.3883L15.7459 27.7624C15.7452 28.0321 15.9632 28.2512 16.2329 28.2519Z" fill="url(#paint2_linear_3_3488)"/>
<path d="M24.7832 28.2519H24.8473C25.7442 28.2519 26.4468 27.5716 26.4468 26.7031V24.5301C26.4468 24.2605 26.2282 24.0418 25.9586 24.0418C25.6889 24.0418 25.4703 24.2605 25.4703 24.5301V26.7031C25.4703 27.0347 25.2083 27.2754 24.8473 27.2754H24.7832C24.4222 27.2754 24.1602 27.0347 24.1602 26.7031V24.5301C24.1602 24.2605 23.9416 24.0418 23.6719 24.0418C23.4023 24.0418 23.1837 24.2605 23.1837 24.5301V26.7031C23.1837 27.5716 23.8862 28.2519 24.7832 28.2519Z" fill="url(#paint3_linear_3_3488)"/>
<path d="M19.9573 28.2519C21.1056 28.2519 22.0399 27.3176 22.0399 26.1693C22.0399 25.021 21.1056 24.0867 19.9573 24.0867C18.809 24.0867 17.8747 25.021 17.8747 26.1693C17.8747 27.3176 18.809 28.2519 19.9573 28.2519ZM19.9573 25.0632C20.5672 25.0632 21.0634 25.5594 21.0634 26.1693C21.0634 26.7792 20.5672 27.2753 19.9573 27.2753C19.3474 27.2753 18.8513 26.7792 18.8513 26.1693C18.8513 25.5594 19.3474 25.0632 19.9573 25.0632Z" fill="url(#paint4_linear_3_3488)"/>
<path d="M12.0035 19.2405C12.2732 19.2405 12.4918 19.0219 12.4918 18.7522V12.3494H13.914C14.1837 12.3494 14.4023 12.1307 14.4023 11.8611C14.4023 11.5915 14.1837 11.3728 13.914 11.3728H10.1084C9.83869 11.3728 9.62009 11.5915 9.62009 11.8611C9.62009 12.1307 9.83869 12.3494 10.1084 12.3494H11.5152V18.7522C11.5152 19.0219 11.7339 19.2405 12.0035 19.2405Z" fill="url(#paint5_linear_3_3488)"/>
<path d="M25.2464 17.1427V18.7369C25.2464 19.0065 25.4651 19.2251 25.7347 19.2251C26.0044 19.2251 26.223 19.0065 26.223 18.7369V17.1493C26.2425 16.4033 26.0774 15.8451 25.7321 15.4901C25.4685 15.2192 25.107 15.076 24.6866 15.076C24.4191 15.076 24.1509 15.1432 23.9096 15.282C23.8242 15.1402 23.6692 15.045 23.4915 15.045C23.2219 15.045 23.0032 15.2636 23.0032 15.5333V18.7522C23.0032 19.0219 23.2219 19.2405 23.4915 19.2405C23.7612 19.2405 23.9798 19.0219 23.9798 18.7522V17.1986C23.9798 16.5024 24.2572 16.0526 24.6866 16.0526C24.8929 16.0526 24.9826 16.1203 25.0321 16.1711C25.1832 16.3266 25.2594 16.6668 25.2466 17.1292C25.2465 17.1337 25.2464 17.1382 25.2464 17.1427Z" fill="url(#paint6_linear_3_3488)"/>
<path d="M29.8916 19.2404C30.0155 19.2404 30.1396 19.1935 30.2347 19.0995C30.4266 18.9099 30.4284 18.6007 30.2389 18.4089L28.7698 16.9223L30.0232 15.898C30.2319 15.7273 30.2629 15.4197 30.0922 15.2109C29.9216 15.0021 29.614 14.9712 29.4052 15.1418L28.3451 16.0081V13.9814C28.3451 13.7117 28.1265 13.4931 27.8568 13.4931C27.5872 13.4931 27.3686 13.7117 27.3686 13.9814V18.7383C27.3686 19.0079 27.5872 19.2266 27.8568 19.2266C28.1265 19.2266 28.3451 19.0079 28.3451 18.7383V17.8818L29.5442 19.0954C29.6398 19.192 29.7656 19.2404 29.8916 19.2404Z" fill="url(#paint7_linear_3_3488)"/>
<path d="M14.1313 13.4931C13.8616 13.4931 13.643 13.7118 13.643 13.9814V18.7521C13.643 19.0218 13.8616 19.2404 14.1313 19.2404C14.401 19.2404 14.6196 19.0218 14.6196 18.7521V17.1145C14.6196 16.4953 14.9136 16.0627 15.3345 16.0627C15.5633 16.0627 15.6476 16.1209 15.691 16.1645C15.7679 16.2418 15.8964 16.4676 15.893 17.1163L15.899 18.7539C15.9 19.023 16.1184 19.2404 16.3872 19.2404H16.3891C16.6588 19.2394 16.8766 19.02 16.8756 18.7503L16.8696 17.1171C16.8736 16.3349 16.7191 15.8134 16.3834 15.4758C16.1261 15.2173 15.7733 15.0862 15.3345 15.0862C15.0744 15.0862 14.8336 15.1468 14.6196 15.257V13.9814C14.6196 13.7118 14.401 13.4931 14.1313 13.4931Z" fill="url(#paint8_linear_3_3488)"/>
<path d="M19.9399 19.0501C20.2837 19.0501 20.6064 18.9588 20.8859 18.7999C20.9099 19.0472 21.1182 19.2404 21.3717 19.2404C21.6414 19.2404 21.86 19.0218 21.86 18.7521V15.5078C21.86 15.2381 21.6414 15.0195 21.3717 15.0195C21.1182 15.0195 20.9099 15.2128 20.8859 15.46C20.6064 15.3012 20.2837 15.2099 19.9399 15.2099C18.8811 15.2099 18.0197 16.0712 18.0197 17.13C18.0197 18.1887 18.8811 19.0501 19.9399 19.0501ZM19.9399 16.1864C20.4601 16.1864 20.8834 16.6097 20.8834 17.13C20.8834 17.6502 20.4601 18.0735 19.9399 18.0735C19.4196 18.0735 18.9963 17.6502 18.9963 17.13C18.9963 16.6097 19.4196 16.1864 19.9399 16.1864Z" fill="url(#paint9_linear_3_3488)"/>
<path d="M28.9745 28.6692C29.2673 28.6692 29.5046 28.4319 29.5046 28.1391C29.5046 27.8464 29.2673 27.6091 28.9745 27.6091C28.6818 27.6091 28.4445 27.8464 28.4445 28.1391C28.4445 28.4319 28.6818 28.6692 28.9745 28.6692Z" fill="url(#paint10_linear_3_3488)"/>
<path d="M28.9743 26.5071C29.244 26.5071 29.4626 26.2885 29.4626 26.0188V20.8725C29.4626 20.6029 29.244 20.3842 28.9743 20.3842C28.7047 20.3842 28.486 20.6029 28.486 20.8725V26.0188C28.486 26.2885 28.7046 26.5071 28.9743 26.5071Z" fill="url(#paint11_linear_3_3488)"/>
</g>
<defs>
<linearGradient id="paint0_linear_3_3488" x1="7.5" y1="21.7249" x2="32.5001" y2="21.7249" gradientUnits="userSpaceOnUse">
<stop stop-color="#5465FF"/>
<stop offset="1" stop-color="#04DEB7"/>
</linearGradient>
<linearGradient id="paint1_linear_3_3488" x1="30.6064" y1="24.0123" x2="31.583" y2="24.0123" gradientUnits="userSpaceOnUse">
<stop stop-color="#5465FF"/>
<stop offset="1" stop-color="#04DEB7"/>
</linearGradient>
<linearGradient id="paint2_linear_3_3488" x1="13.5533" y1="24.9493" x2="18.9142" y2="24.9493" gradientUnits="userSpaceOnUse">
<stop stop-color="#5465FF"/>
<stop offset="1" stop-color="#04DEB7"/>
</linearGradient>
<linearGradient id="paint3_linear_3_3488" x1="23.1837" y1="26.4847" x2="26.4468" y2="26.4847" gradientUnits="userSpaceOnUse">
<stop stop-color="#5465FF"/>
<stop offset="1" stop-color="#04DEB7"/>
</linearGradient>
<linearGradient id="paint4_linear_3_3488" x1="17.8747" y1="26.5036" x2="22.0399" y2="26.5036" gradientUnits="userSpaceOnUse">
<stop stop-color="#5465FF"/>
<stop offset="1" stop-color="#04DEB7"/>
</linearGradient>
<linearGradient id="paint5_linear_3_3488" x1="9.62009" y1="15.938" x2="14.4023" y2="15.938" gradientUnits="userSpaceOnUse">
<stop stop-color="#5465FF"/>
<stop offset="1" stop-color="#04DEB7"/>
</linearGradient>
<linearGradient id="paint6_linear_3_3488" x1="23.0032" y1="17.4794" x2="26.2246" y2="17.4794" gradientUnits="userSpaceOnUse">
<stop stop-color="#5465FF"/>
<stop offset="1" stop-color="#04DEB7"/>
</linearGradient>
<linearGradient id="paint7_linear_3_3488" x1="27.3686" y1="16.828" x2="30.3798" y2="16.828" gradientUnits="userSpaceOnUse">
<stop stop-color="#5465FF"/>
<stop offset="1" stop-color="#04DEB7"/>
</linearGradient>
<linearGradient id="paint8_linear_3_3488" x1="13.643" y1="16.828" x2="16.8756" y2="16.828" gradientUnits="userSpaceOnUse">
<stop stop-color="#5465FF"/>
<stop offset="1" stop-color="#04DEB7"/>
</linearGradient>
<linearGradient id="paint9_linear_3_3488" x1="18.0197" y1="17.4687" x2="21.86" y2="17.4687" gradientUnits="userSpaceOnUse">
<stop stop-color="#5465FF"/>
<stop offset="1" stop-color="#04DEB7"/>
</linearGradient>
<linearGradient id="paint10_linear_3_3488" x1="28.4445" y1="28.2242" x2="29.5046" y2="28.2242" gradientUnits="userSpaceOnUse">
<stop stop-color="#5465FF"/>
<stop offset="1" stop-color="#04DEB7"/>
</linearGradient>
<linearGradient id="paint11_linear_3_3488" x1="28.486" y1="23.937" x2="29.4626" y2="23.937" gradientUnits="userSpaceOnUse">
<stop stop-color="#5465FF"/>
<stop offset="1" stop-color="#04DEB7"/>
</linearGradient>
<clipPath id="clip0_3_3488">
<rect width="25" height="25" fill="white" transform="translate(7.5 7.5)"/>
</clipPath>
</defs>
</svg>
