<svg width="76" height="89" viewBox="0 0 76 89" fill="none" xmlns="http://www.w3.org/2000/svg">
<path fill-rule="evenodd" clip-rule="evenodd" d="M39.4496 2.36452L38.1662 0L36.8827 2.36452L34.2717 2.96723L36.0861 4.96085L35.7321 7.78899L38.1662 6.53719L40.556 7.78899L40.2462 4.96085L42.0606 2.96723L39.4496 2.36452ZM48.38 20.8311L52.3242 17.5998C52.856 17.176 53.6093 17.8117 53.3434 18.6062L51.1333 24.01C61.0845 28.8649 67.9371 39.0563 67.9371 50.8427C67.9371 67.3327 54.5239 80.7005 37.9778 80.7005C21.4318 80.7005 8.01855 67.3327 8.01855 50.8427C8.01855 38.9303 15.0184 28.6472 25.1425 23.8561L22.8981 18.3414C22.6765 17.5468 23.4299 16.9112 23.9617 17.3879L27.7729 20.7251C30.0773 22.738 33.3567 21.7316 34.5533 18.6062L37.4782 10.9783C37.6998 10.3427 38.4531 10.3427 38.719 10.9783L41.7325 18.6592C42.8848 21.6786 46.0756 22.738 48.38 20.8311ZM27.3305 28.3531C18.8662 32.3348 13.0186 40.916 13.0186 50.8427C13.0186 64.5553 24.1772 75.7005 37.9778 75.7005C51.7785 75.7005 62.9371 64.5553 62.9371 50.8427C62.9371 40.916 57.0895 32.3348 48.6252 28.3531H27.3305ZM22.0117 16.9112C22.7704 16.9112 23.3855 16.176 23.3855 15.2691C23.3855 14.3621 22.7704 13.6269 22.0117 13.6269C21.2529 13.6269 20.6379 14.3621 20.6379 15.2691C20.6379 16.176 21.2529 16.9112 22.0117 16.9112ZM54.1854 16.9112C54.9441 16.9112 55.5592 16.176 55.5592 15.2691C55.5592 14.3621 54.9441 13.6269 54.1854 13.6269C53.4267 13.6269 52.8116 14.3621 52.8116 15.2691C52.8116 16.176 53.4267 16.9112 54.1854 16.9112Z" fill="url(#paint0_linear_8797_54348)"/>
<circle cx="38" cy="50" r="25" fill="white"/>
<circle cx="38.0524" cy="50.7194" r="25.6671" stroke="white" stroke-width="4"/>
<path d="M2.73768 78.4863C1.53391 76.4868 2.97395 73.939 5.30784 73.939H70.4084C72.7423 73.939 74.1823 76.4868 72.9785 78.4863L69.0192 85.0629C68.4765 85.9644 67.5012 86.5156 66.449 86.5156H9.26723C8.21504 86.5156 7.23976 85.9644 6.69706 85.0629L2.73768 78.4863Z" fill="#FFE3B1"/>
<path d="M2.73768 80.4721C1.53391 78.4727 2.97395 75.9248 5.30784 75.9248H70.4084C72.7423 75.9248 74.1823 78.4727 72.9785 80.4721L69.0192 87.0488C68.4765 87.9502 67.5012 88.5014 66.449 88.5014H9.26723C8.21504 88.5014 7.23976 87.9502 6.69706 87.0488L2.73768 80.4721Z" fill="url(#paint1_linear_8797_54348)"/>
<path d="M29.0674 77.8906V85H27.3535V77.8906H29.0674ZM31.2061 77.8906V79.2139H25.2637V77.8906H31.2061ZM30.625 82.4121V82.3096C30.625 81.9222 30.6803 81.5658 30.791 81.2402C30.9017 80.9115 31.0645 80.6266 31.2793 80.3857C31.4941 80.1449 31.7594 79.9577 32.0752 79.8242C32.391 79.6875 32.7555 79.6191 33.1689 79.6191C33.5856 79.6191 33.9518 79.6875 34.2676 79.8242C34.5866 79.9577 34.8535 80.1449 35.0684 80.3857C35.2832 80.6266 35.446 80.9115 35.5566 81.2402C35.6673 81.5658 35.7227 81.9222 35.7227 82.3096V82.4121C35.7227 82.7962 35.6673 83.1527 35.5566 83.4814C35.446 83.807 35.2832 84.0918 35.0684 84.3359C34.8535 84.5768 34.5882 84.764 34.2725 84.8975C33.9567 85.0309 33.5921 85.0977 33.1787 85.0977C32.7653 85.0977 32.3991 85.0309 32.0801 84.8975C31.7611 84.764 31.4941 84.5768 31.2793 84.3359C31.0645 84.0918 30.9017 83.807 30.791 83.4814C30.6803 83.1527 30.625 82.7962 30.625 82.4121ZM32.2705 82.3096V82.4121C32.2705 82.6107 32.2852 82.7962 32.3145 82.9688C32.3438 83.1413 32.3926 83.2926 32.4609 83.4229C32.5293 83.5498 32.6221 83.6491 32.7393 83.7207C32.8564 83.7923 33.0029 83.8281 33.1787 83.8281C33.3512 83.8281 33.4945 83.7923 33.6084 83.7207C33.7256 83.6491 33.8184 83.5498 33.8867 83.4229C33.9551 83.2926 34.0039 83.1413 34.0332 82.9688C34.0625 82.7962 34.0771 82.6107 34.0771 82.4121V82.3096C34.0771 82.1175 34.0625 81.9368 34.0332 81.7676C34.0039 81.5951 33.9551 81.4437 33.8867 81.3135C33.8184 81.18 33.7256 81.0758 33.6084 81.001C33.4912 80.9261 33.3447 80.8887 33.1689 80.8887C32.9964 80.8887 32.8516 80.9261 32.7344 81.001C32.6204 81.0758 32.5293 81.18 32.4609 81.3135C32.3926 81.4437 32.3438 81.5951 32.3145 81.7676C32.2852 81.9368 32.2705 82.1175 32.2705 82.3096ZM38.1152 80.7324V87.0312H36.4697V79.7168H38.0029L38.1152 80.7324ZM41.3574 82.2949V82.3975C41.3574 82.7816 41.3135 83.138 41.2256 83.4668C41.1377 83.7956 41.0075 84.082 40.835 84.3262C40.6624 84.5703 40.4476 84.7607 40.1904 84.8975C39.9365 85.0309 39.6419 85.0977 39.3066 85.0977C38.9909 85.0977 38.7191 85.0277 38.4912 84.8877C38.2633 84.7477 38.0729 84.554 37.9199 84.3066C37.7669 84.0592 37.6432 83.776 37.5488 83.457C37.4544 83.138 37.3796 82.8011 37.3242 82.4463V82.3145C37.3796 81.9336 37.4544 81.5804 37.5488 81.2549C37.6432 80.9261 37.7669 80.6396 37.9199 80.3955C38.0729 80.1514 38.2617 79.9609 38.4863 79.8242C38.7142 79.6875 38.986 79.6191 39.3018 79.6191C39.637 79.6191 39.9316 79.6826 40.1855 79.8096C40.4427 79.9365 40.6576 80.1188 40.8301 80.3564C41.0059 80.5908 41.1377 80.8724 41.2256 81.2012C41.3135 81.5299 41.3574 81.8945 41.3574 82.2949ZM39.7119 82.3975V82.2949C39.7119 82.0898 39.6973 81.9027 39.668 81.7334C39.6387 81.5609 39.5915 81.4111 39.5264 81.2842C39.4645 81.1572 39.3815 81.0596 39.2773 80.9912C39.1732 80.9229 39.0446 80.8887 38.8916 80.8887C38.7158 80.8887 38.5677 80.9163 38.4473 80.9717C38.3301 81.0238 38.2357 81.1051 38.1641 81.2158C38.0957 81.3232 38.0469 81.4583 38.0176 81.6211C37.9915 81.7806 37.9801 81.9678 37.9834 82.1826V82.583C37.9769 82.8304 38.0013 83.0485 38.0566 83.2373C38.112 83.4229 38.208 83.5677 38.3447 83.6719C38.4814 83.776 38.667 83.8281 38.9014 83.8281C39.0576 83.8281 39.1878 83.7923 39.292 83.7207C39.3962 83.6458 39.4792 83.5433 39.541 83.4131C39.6029 83.2796 39.6468 83.1266 39.6729 82.9541C39.6989 82.7816 39.7119 82.596 39.7119 82.3975ZM48.1982 77.8906V85H46.5527V79.7461L44.9316 80.2197V78.9697L48.0469 77.8906H48.1982Z" fill="white"/>
<defs>
<linearGradient id="paint0_linear_8797_54348" x1="2.7931" y1="80.565" x2="76.4721" y2="80.565" gradientUnits="userSpaceOnUse">
<stop offset="0.106383" stop-color="#FFC107"/>
<stop offset="0.888889" stop-color="#F06292"/>
</linearGradient>
<linearGradient id="paint1_linear_8797_54348" x1="-6.60316" y1="88.5014" x2="86.5014" y2="88.5014" gradientUnits="userSpaceOnUse">
<stop offset="0.106383" stop-color="#FCAA16"/>
<stop offset="0.888889" stop-color="#EF687C"/>
</linearGradient>
</defs>
</svg>
