<svg width="76" height="59" viewBox="0 0 76 59" fill="none" xmlns="http://www.w3.org/2000/svg">
<path fill-rule="evenodd" clip-rule="evenodd" d="M37.855 43C48.4095 43 56.9366 34.4774 56.9366 24C56.9366 13.5226 48.4095 5 37.855 5C27.3005 5 18.7734 13.5226 18.7734 24C18.7734 34.4774 27.3005 43 37.855 43ZM37.855 48C51.1549 48 61.9366 37.2548 61.9366 24C61.9366 10.7452 51.1549 0 37.855 0C24.5551 0 13.7734 10.7452 13.7734 24C13.7734 37.2548 24.5551 48 37.855 48Z" fill="url(#paint0_linear_8797_54365)"/>
<circle cx="38" cy="24" r="20" fill="white" stroke="white" stroke-width="4"/>
<path d="M2.73768 47.5014C1.53391 45.502 2.97395 42.9541 5.30784 42.9541H70.4084C72.7423 42.9541 74.1823 45.5019 72.9785 47.5014L69.0192 54.0781C68.4765 54.9795 67.5012 55.5307 66.449 55.5307H9.26723C8.21504 55.5307 7.23976 54.9795 6.69706 54.0781L2.73768 47.5014Z" fill="#FFE3B1"/>
<path d="M12.0859 50.3125V56H11.0156V50.3125H12.0859ZM13.8516 50.3125V51.1602H9.26953V50.3125H13.8516ZM15.2461 52.6367V56H14.2148V51.7734H15.1914L15.2461 52.6367ZM16.5312 51.7461L16.5156 52.707C16.4583 52.6966 16.3932 52.6888 16.3203 52.6836C16.25 52.6784 16.1836 52.6758 16.1211 52.6758C15.9622 52.6758 15.8229 52.6979 15.7031 52.7422C15.5833 52.7839 15.4831 52.8451 15.4023 52.9258C15.3242 53.0065 15.2643 53.1055 15.2227 53.2227C15.181 53.3372 15.1576 53.4674 15.1523 53.6133L14.9297 53.5859C14.9297 53.3177 14.957 53.069 15.0117 52.8398C15.0664 52.6107 15.1458 52.4102 15.25 52.2383C15.3542 52.0664 15.4844 51.9336 15.6406 51.8398C15.7995 51.7435 15.9818 51.6953 16.1875 51.6953C16.2448 51.6953 16.306 51.7005 16.3711 51.7109C16.4388 51.7188 16.4922 51.7305 16.5312 51.7461ZM19.293 55.1016V53.1523C19.293 53.0091 19.2682 52.8854 19.2188 52.7812C19.1693 52.6771 19.0938 52.5964 18.9922 52.5391C18.8906 52.4818 18.7617 52.4531 18.6055 52.4531C18.4674 52.4531 18.3464 52.4766 18.2422 52.5234C18.1406 52.5703 18.0625 52.6367 18.0078 52.7227C17.9531 52.806 17.9258 52.9023 17.9258 53.0117H16.8906C16.8906 52.8372 16.9323 52.6719 17.0156 52.5156C17.099 52.3568 17.2174 52.2161 17.3711 52.0938C17.5273 51.9688 17.7135 51.8711 17.9297 51.8008C18.1484 51.7305 18.3932 51.6953 18.6641 51.6953C18.9844 51.6953 19.2695 51.75 19.5195 51.8594C19.7721 51.9661 19.9701 52.1276 20.1133 52.3438C20.2591 52.5599 20.332 52.832 20.332 53.1602V55.0039C20.332 55.2148 20.3451 55.3958 20.3711 55.5469C20.3997 55.6953 20.4414 55.8242 20.4961 55.9336V56H19.4453C19.3958 55.8932 19.3581 55.7578 19.332 55.5938C19.306 55.4271 19.293 55.263 19.293 55.1016ZM19.4375 53.4258L19.4453 54.0391H18.793C18.6315 54.0391 18.4896 54.056 18.3672 54.0898C18.2448 54.1211 18.1445 54.168 18.0664 54.2305C17.9883 54.2904 17.9297 54.3633 17.8906 54.4492C17.8516 54.5326 17.832 54.6276 17.832 54.7344C17.832 54.8385 17.8555 54.9323 17.9023 55.0156C17.9518 55.099 18.0221 55.1654 18.1133 55.2148C18.207 55.2617 18.3164 55.2852 18.4414 55.2852C18.6237 55.2852 18.7826 55.2487 18.918 55.1758C19.0534 55.1003 19.1589 55.0091 19.2344 54.9023C19.3099 54.7956 19.3503 54.694 19.3555 54.5977L19.6523 55.043C19.6159 55.1497 19.5612 55.263 19.4883 55.3828C19.4154 55.5026 19.3216 55.6146 19.207 55.7188C19.0924 55.8229 18.9544 55.9089 18.793 55.9766C18.6315 56.0443 18.444 56.0781 18.2305 56.0781C17.957 56.0781 17.7122 56.0234 17.4961 55.9141C17.2799 55.8047 17.1094 55.6549 16.9844 55.4648C16.8594 55.2747 16.7969 55.0586 16.7969 54.8164C16.7969 54.5924 16.8385 54.3945 16.9219 54.2227C17.0052 54.0508 17.1289 53.9062 17.293 53.7891C17.457 53.6693 17.6602 53.5794 17.9023 53.5195C18.1471 53.457 18.4271 53.4258 18.7422 53.4258H19.4375ZM18.9844 50.2734L20.0977 51.207H19.2852L18.6758 50.6758L18.0664 51.207H17.25L18.3633 50.2734H18.9844ZM16.918 49.5938L17.5391 50.6367H16.918L16.0508 49.5938H16.918ZM22.2734 52.6758V56H21.2422V51.7734H22.2109L22.2734 52.6758ZM22.1094 53.7344H21.8047C21.8073 53.4271 21.849 53.1484 21.9297 52.8984C22.0104 52.6484 22.1237 52.4336 22.2695 52.2539C22.418 52.0742 22.5938 51.9362 22.7969 51.8398C23 51.7435 23.2266 51.6953 23.4766 51.6953C23.6797 51.6953 23.8633 51.724 24.0273 51.7812C24.1914 51.8385 24.332 51.9297 24.4492 52.0547C24.569 52.1797 24.6602 52.3438 24.7227 52.5469C24.7878 52.7474 24.8203 52.9948 24.8203 53.2891V56H23.7812V53.2812C23.7812 53.0885 23.7526 52.9362 23.6953 52.8242C23.6406 52.7122 23.5599 52.6328 23.4531 52.5859C23.349 52.5391 23.2201 52.5156 23.0664 52.5156C22.9076 52.5156 22.7682 52.5482 22.6484 52.6133C22.5312 52.6758 22.4323 52.763 22.3516 52.875C22.2734 52.987 22.2135 53.1159 22.1719 53.2617C22.1302 53.4076 22.1094 53.5651 22.1094 53.7344ZM30.8516 55.1992L32.3672 56.4023L31.6797 57L30.1875 55.8047L30.8516 55.1992ZM32.3945 53.0117V53.3047C32.3945 53.7344 32.3372 54.1211 32.2227 54.4648C32.1081 54.806 31.944 55.0964 31.7305 55.3359C31.5195 55.5755 31.2682 55.7591 30.9766 55.8867C30.6849 56.0143 30.362 56.0781 30.0078 56.0781C29.6562 56.0781 29.3333 56.0143 29.0391 55.8867C28.7474 55.7591 28.4948 55.5755 28.2812 55.3359C28.0677 55.0964 27.9023 54.806 27.7852 54.4648C27.668 54.1211 27.6094 53.7344 27.6094 53.3047V53.0117C27.6094 52.5794 27.6667 52.1927 27.7812 51.8516C27.8984 51.5104 28.0625 51.2201 28.2734 50.9805C28.487 50.7383 28.7396 50.5534 29.0312 50.4258C29.3255 50.2982 29.6484 50.2344 30 50.2344C30.3542 50.2344 30.6771 50.2982 30.9688 50.4258C31.263 50.5534 31.5156 50.7383 31.7266 50.9805C31.9401 51.2201 32.1042 51.5104 32.2188 51.8516C32.3359 52.1927 32.3945 52.5794 32.3945 53.0117ZM31.3086 53.3047V53.0039C31.3086 52.694 31.2799 52.4219 31.2227 52.1875C31.1654 51.9505 31.0794 51.7513 30.9648 51.5898C30.8529 51.4284 30.7161 51.3073 30.5547 51.2266C30.3932 51.1432 30.2083 51.1016 30 51.1016C29.7943 51.1016 29.6107 51.1432 29.4492 51.2266C29.2878 51.3073 29.151 51.4284 29.0391 51.5898C28.9271 51.7513 28.8411 51.9505 28.7812 52.1875C28.724 52.4219 28.6953 52.694 28.6953 53.0039V53.3047C28.6953 53.612 28.724 53.8841 28.7812 54.1211C28.8411 54.3581 28.9271 54.5586 29.0391 54.7227C29.1536 54.8841 29.2917 55.0065 29.4531 55.0898C29.6172 55.1732 29.8021 55.2148 30.0078 55.2148C30.2161 55.2148 30.401 55.1732 30.5625 55.0898C30.724 55.0065 30.8594 54.8841 30.9688 54.7227C31.0807 54.5586 31.1654 54.3581 31.2227 54.1211C31.2799 53.8841 31.3086 53.612 31.3086 53.3047ZM35.7539 54.9961V51.7734H36.793V56H35.8164L35.7539 54.9961ZM35.8867 54.1211L36.207 54.1133C36.207 54.3971 36.1758 54.6589 36.1133 54.8984C36.0508 55.138 35.9531 55.3464 35.8203 55.5234C35.6901 55.6979 35.5247 55.8346 35.3242 55.9336C35.1237 56.0299 34.8867 56.0781 34.6133 56.0781C34.4049 56.0781 34.2148 56.0495 34.043 55.9922C33.8711 55.9323 33.7227 55.8398 33.5977 55.7148C33.4753 55.5872 33.3802 55.4245 33.3125 55.2266C33.2448 55.026 33.2109 54.7852 33.2109 54.5039V51.7734H34.2422V54.5117C34.2422 54.6523 34.2578 54.7695 34.2891 54.8633C34.3229 54.957 34.3685 55.0339 34.4258 55.0938C34.4857 55.151 34.5547 55.1927 34.6328 55.2188C34.7135 55.2422 34.7995 55.2539 34.8906 55.2539C35.1406 55.2539 35.3372 55.2044 35.4805 55.1055C35.6263 55.0039 35.7305 54.8685 35.793 54.6992C35.8555 54.5273 35.8867 54.3346 35.8867 54.1211ZM37.5234 53.9297V53.8477C37.5234 53.5378 37.5677 53.2526 37.6562 52.9922C37.7448 52.7292 37.8737 52.5013 38.043 52.3086C38.2122 52.1159 38.4193 51.9661 38.6641 51.8594C38.9089 51.75 39.1875 51.6953 39.5 51.6953C39.8177 51.6953 40.099 51.75 40.3438 51.8594C40.5911 51.9661 40.7995 52.1159 40.9688 52.3086C41.138 52.5013 41.2669 52.7292 41.3555 52.9922C41.444 53.2526 41.4883 53.5378 41.4883 53.8477V53.9297C41.4883 54.237 41.444 54.5221 41.3555 54.7852C41.2669 55.0456 41.138 55.2734 40.9688 55.4688C40.7995 55.6615 40.5924 55.8112 40.3477 55.918C40.1029 56.0247 39.8229 56.0781 39.5078 56.0781C39.1953 56.0781 38.9154 56.0247 38.668 55.918C38.4206 55.8112 38.2122 55.6615 38.043 55.4688C37.8737 55.2734 37.7448 55.0456 37.6562 54.7852C37.5677 54.5221 37.5234 54.237 37.5234 53.9297ZM38.5547 53.8477V53.9297C38.5547 54.1146 38.5729 54.2878 38.6094 54.4492C38.6458 54.6107 38.7018 54.7526 38.7773 54.875C38.8529 54.9974 38.9505 55.0938 39.0703 55.1641C39.1927 55.2318 39.3385 55.2656 39.5078 55.2656C39.6745 55.2656 39.8177 55.2318 39.9375 55.1641C40.0573 55.0938 40.1549 54.9974 40.2305 54.875C40.3086 54.7526 40.3659 54.6107 40.4023 54.4492C40.4388 54.2878 40.457 54.1146 40.457 53.9297V53.8477C40.457 53.6654 40.4388 53.4948 40.4023 53.3359C40.3659 53.1745 40.3086 53.0326 40.2305 52.9102C40.1549 52.7852 40.056 52.6875 39.9336 52.6172C39.8138 52.5443 39.6693 52.5078 39.5 52.5078C39.3333 52.5078 39.1901 52.5443 39.0703 52.6172C38.9505 52.6875 38.8529 52.7852 38.7773 52.9102C38.7018 53.0326 38.6458 53.1745 38.6094 53.3359C38.5729 53.4948 38.5547 53.6654 38.5547 53.8477ZM38.0586 51.1953L39.1719 50.2617H39.7891L40.9062 51.1953H40.0898L39.4805 50.6641L38.8711 51.1953H38.0586ZM40.6172 50.625L41.2383 49.582H42.1055L41.2383 50.625H40.6172ZM43.9727 55.2656C44.1185 55.2656 44.2487 55.237 44.3633 55.1797C44.4779 55.1224 44.569 55.0417 44.6367 54.9375C44.707 54.8333 44.7448 54.7122 44.75 54.5742H45.7227C45.7174 54.8607 45.6367 55.1172 45.4805 55.3438C45.3242 55.5703 45.1159 55.75 44.8555 55.8828C44.5977 56.013 44.3086 56.0781 43.9883 56.0781C43.6628 56.0781 43.3789 56.0234 43.1367 55.9141C42.8945 55.8047 42.6927 55.6523 42.5312 55.457C42.3724 55.2617 42.2526 55.0352 42.1719 54.7773C42.0938 54.5195 42.0547 54.2435 42.0547 53.9492V53.8242C42.0547 53.5299 42.0938 53.2539 42.1719 52.9961C42.2526 52.7383 42.3724 52.5117 42.5312 52.3164C42.6927 52.1211 42.8945 51.9688 43.1367 51.8594C43.3789 51.75 43.6615 51.6953 43.9844 51.6953C44.3255 51.6953 44.625 51.7617 44.8828 51.8945C45.1432 52.0273 45.3464 52.2148 45.4922 52.457C45.6406 52.6992 45.7174 52.9844 45.7227 53.3125H44.75C44.7448 53.1615 44.7109 53.026 44.6484 52.9062C44.5859 52.7865 44.4974 52.6901 44.3828 52.6172C44.2682 52.5443 44.1289 52.5078 43.9648 52.5078C43.7904 52.5078 43.6445 52.5443 43.5273 52.6172C43.4128 52.6901 43.3229 52.7904 43.2578 52.918C43.1953 53.043 43.151 53.1836 43.125 53.3398C43.1016 53.4935 43.0898 53.6549 43.0898 53.8242V53.9492C43.0898 54.1211 43.1016 54.2852 43.125 54.4414C43.151 54.5977 43.1953 54.7383 43.2578 54.8633C43.3229 54.9857 43.4128 55.0833 43.5273 55.1562C43.6445 55.2292 43.793 55.2656 43.9727 55.2656ZM52.2539 52.6602V53.5039H49.2617V52.6602H52.2539ZM49.5547 50.3125V56H48.4805V50.3125H49.5547ZM53.0508 50.3125V56H51.9766V50.3125H53.0508ZM53.8828 53.9297V53.8477C53.8828 53.5378 53.9271 53.2526 54.0156 52.9922C54.1042 52.7292 54.2331 52.5013 54.4023 52.3086C54.5716 52.1159 54.7786 51.9661 55.0234 51.8594C55.2682 51.75 55.5469 51.6953 55.8594 51.6953C56.1771 51.6953 56.4583 51.75 56.7031 51.8594C56.9505 51.9661 57.1589 52.1159 57.3281 52.3086C57.4974 52.5013 57.6263 52.7292 57.7148 52.9922C57.8034 53.2526 57.8477 53.5378 57.8477 53.8477V53.9297C57.8477 54.237 57.8034 54.5221 57.7148 54.7852C57.6263 55.0456 57.4974 55.2734 57.3281 55.4688C57.1589 55.6615 56.9518 55.8112 56.707 55.918C56.4622 56.0247 56.1823 56.0781 55.8672 56.0781C55.5547 56.0781 55.2747 56.0247 55.0273 55.918C54.7799 55.8112 54.5716 55.6615 54.4023 55.4688C54.2331 55.2734 54.1042 55.0456 54.0156 54.7852C53.9271 54.5221 53.8828 54.237 53.8828 53.9297ZM54.9141 53.8477V53.9297C54.9141 54.1146 54.9323 54.2878 54.9688 54.4492C55.0052 54.6107 55.0612 54.7526 55.1367 54.875C55.2122 54.9974 55.3099 55.0938 55.4297 55.1641C55.5521 55.2318 55.6979 55.2656 55.8672 55.2656C56.0339 55.2656 56.1771 55.2318 56.2969 55.1641C56.4167 55.0938 56.5143 54.9974 56.5898 54.875C56.668 54.7526 56.7253 54.6107 56.7617 54.4492C56.7982 54.2878 56.8164 54.1146 56.8164 53.9297V53.8477C56.8164 53.6654 56.7982 53.4948 56.7617 53.3359C56.7253 53.1745 56.668 53.0326 56.5898 52.9102C56.5143 52.7852 56.4154 52.6875 56.293 52.6172C56.1732 52.5443 56.0286 52.5078 55.8594 52.5078C55.6927 52.5078 55.5495 52.5443 55.4297 52.6172C55.3099 52.6875 55.2122 52.7852 55.1367 52.9102C55.0612 53.0326 55.0052 53.1745 54.9688 53.3359C54.9323 53.4948 54.9141 53.6654 54.9141 53.8477ZM60.9258 55.1016V53.1523C60.9258 53.0091 60.901 52.8854 60.8516 52.7812C60.8021 52.6771 60.7266 52.5964 60.625 52.5391C60.5234 52.4818 60.3945 52.4531 60.2383 52.4531C60.1003 52.4531 59.9792 52.4766 59.875 52.5234C59.7734 52.5703 59.6953 52.6367 59.6406 52.7227C59.5859 52.806 59.5586 52.9023 59.5586 53.0117H58.5234C58.5234 52.8372 58.5651 52.6719 58.6484 52.5156C58.7318 52.3568 58.8503 52.2161 59.0039 52.0938C59.1602 51.9688 59.3464 51.8711 59.5625 51.8008C59.7812 51.7305 60.026 51.6953 60.2969 51.6953C60.6172 51.6953 60.9023 51.75 61.1523 51.8594C61.4049 51.9661 61.6029 52.1276 61.7461 52.3438C61.8919 52.5599 61.9648 52.832 61.9648 53.1602V55.0039C61.9648 55.2148 61.9779 55.3958 62.0039 55.5469C62.0326 55.6953 62.0742 55.8242 62.1289 55.9336V56H61.0781C61.0286 55.8932 60.9909 55.7578 60.9648 55.5938C60.9388 55.4271 60.9258 55.263 60.9258 55.1016ZM61.0703 53.4258L61.0781 54.0391H60.4258C60.2643 54.0391 60.1224 54.056 60 54.0898C59.8776 54.1211 59.7773 54.168 59.6992 54.2305C59.6211 54.2904 59.5625 54.3633 59.5234 54.4492C59.4844 54.5326 59.4648 54.6276 59.4648 54.7344C59.4648 54.8385 59.4883 54.9323 59.5352 55.0156C59.5846 55.099 59.6549 55.1654 59.7461 55.2148C59.8398 55.2617 59.9492 55.2852 60.0742 55.2852C60.2565 55.2852 60.4154 55.2487 60.5508 55.1758C60.6862 55.1003 60.7917 55.0091 60.8672 54.9023C60.9427 54.7956 60.9831 54.694 60.9883 54.5977L61.2852 55.043C61.2487 55.1497 61.194 55.263 61.1211 55.3828C61.0482 55.5026 60.9544 55.6146 60.8398 55.7188C60.7253 55.8229 60.5872 55.9089 60.4258 55.9766C60.2643 56.0443 60.0768 56.0781 59.8633 56.0781C59.5898 56.0781 59.3451 56.0234 59.1289 55.9141C58.9128 55.8047 58.7422 55.6549 58.6172 55.4648C58.4922 55.2747 58.4297 55.0586 58.4297 54.8164C58.4297 54.5924 58.4714 54.3945 58.5547 54.2227C58.638 54.0508 58.7617 53.9062 58.9258 53.7891C59.0898 53.6693 59.293 53.5794 59.5352 53.5195C59.7799 53.457 60.0599 53.4258 60.375 53.4258H61.0703ZM60.0664 50L60.832 51.1875H59.9766L58.9219 50H60.0664ZM63.9062 52.6758V56H62.875V51.7734H63.8438L63.9062 52.6758ZM63.7422 53.7344H63.4375C63.4401 53.4271 63.4818 53.1484 63.5625 52.8984C63.6432 52.6484 63.7565 52.4336 63.9023 52.2539C64.0508 52.0742 64.2266 51.9362 64.4297 51.8398C64.6328 51.7435 64.8594 51.6953 65.1094 51.6953C65.3125 51.6953 65.4961 51.724 65.6602 51.7812C65.8242 51.8385 65.9648 51.9297 66.082 52.0547C66.2018 52.1797 66.293 52.3438 66.3555 52.5469C66.4206 52.7474 66.4531 52.9948 66.4531 53.2891V56H65.4141V53.2812C65.4141 53.0885 65.3854 52.9362 65.3281 52.8242C65.2734 52.7122 65.1927 52.6328 65.0859 52.5859C64.9818 52.5391 64.8529 52.5156 64.6992 52.5156C64.5404 52.5156 64.401 52.5482 64.2812 52.6133C64.1641 52.6758 64.0651 52.763 63.9844 52.875C63.9062 52.987 63.8464 53.1159 63.8047 53.2617C63.763 53.4076 63.7422 53.5651 63.7422 53.7344Z" fill="black"/>
<path d="M2.73768 50.5473C1.53391 48.5479 2.97395 46 5.30784 46H70.4084C72.7423 46 74.1823 48.5478 72.9785 50.5473L69.0192 57.124C68.4765 58.0254 67.5012 58.5766 66.449 58.5766H9.26723C8.21504 58.5766 7.23976 58.0254 6.69706 57.124L2.73768 50.5473Z" fill="url(#paint1_linear_8797_54365)"/>
<path d="M29.0674 47.8906V55H27.3535V47.8906H29.0674ZM31.2061 47.8906V49.2139H25.2637V47.8906H31.2061ZM30.625 52.4121V52.3096C30.625 51.9222 30.6803 51.5658 30.791 51.2402C30.9017 50.9115 31.0645 50.6266 31.2793 50.3857C31.4941 50.1449 31.7594 49.9577 32.0752 49.8242C32.391 49.6875 32.7555 49.6191 33.1689 49.6191C33.5856 49.6191 33.9518 49.6875 34.2676 49.8242C34.5866 49.9577 34.8535 50.1449 35.0684 50.3857C35.2832 50.6266 35.446 50.9115 35.5566 51.2402C35.6673 51.5658 35.7227 51.9222 35.7227 52.3096V52.4121C35.7227 52.7962 35.6673 53.1527 35.5566 53.4814C35.446 53.807 35.2832 54.0918 35.0684 54.3359C34.8535 54.5768 34.5882 54.764 34.2725 54.8975C33.9567 55.0309 33.5921 55.0977 33.1787 55.0977C32.7653 55.0977 32.3991 55.0309 32.0801 54.8975C31.7611 54.764 31.4941 54.5768 31.2793 54.3359C31.0645 54.0918 30.9017 53.807 30.791 53.4814C30.6803 53.1527 30.625 52.7962 30.625 52.4121ZM32.2705 52.3096V52.4121C32.2705 52.6107 32.2852 52.7962 32.3145 52.9688C32.3438 53.1413 32.3926 53.2926 32.4609 53.4229C32.5293 53.5498 32.6221 53.6491 32.7393 53.7207C32.8564 53.7923 33.0029 53.8281 33.1787 53.8281C33.3512 53.8281 33.4945 53.7923 33.6084 53.7207C33.7256 53.6491 33.8184 53.5498 33.8867 53.4229C33.9551 53.2926 34.0039 53.1413 34.0332 52.9688C34.0625 52.7962 34.0771 52.6107 34.0771 52.4121V52.3096C34.0771 52.1175 34.0625 51.9368 34.0332 51.7676C34.0039 51.5951 33.9551 51.4437 33.8867 51.3135C33.8184 51.18 33.7256 51.0758 33.6084 51.001C33.4912 50.9261 33.3447 50.8887 33.1689 50.8887C32.9964 50.8887 32.8516 50.9261 32.7344 51.001C32.6204 51.0758 32.5293 51.18 32.4609 51.3135C32.3926 51.4437 32.3438 51.5951 32.3145 51.7676C32.2852 51.9368 32.2705 52.1175 32.2705 52.3096ZM38.1152 50.7324V57.0312H36.4697V49.7168H38.0029L38.1152 50.7324ZM41.3574 52.2949V52.3975C41.3574 52.7816 41.3135 53.138 41.2256 53.4668C41.1377 53.7956 41.0075 54.082 40.835 54.3262C40.6624 54.5703 40.4476 54.7607 40.1904 54.8975C39.9365 55.0309 39.6419 55.0977 39.3066 55.0977C38.9909 55.0977 38.7191 55.0277 38.4912 54.8877C38.2633 54.7477 38.0729 54.554 37.9199 54.3066C37.7669 54.0592 37.6432 53.776 37.5488 53.457C37.4544 53.138 37.3796 52.8011 37.3242 52.4463V52.3145C37.3796 51.9336 37.4544 51.5804 37.5488 51.2549C37.6432 50.9261 37.7669 50.6396 37.9199 50.3955C38.0729 50.1514 38.2617 49.9609 38.4863 49.8242C38.7142 49.6875 38.986 49.6191 39.3018 49.6191C39.637 49.6191 39.9316 49.6826 40.1855 49.8096C40.4427 49.9365 40.6576 50.1188 40.8301 50.3564C41.0059 50.5908 41.1377 50.8724 41.2256 51.2012C41.3135 51.5299 41.3574 51.8945 41.3574 52.2949ZM39.7119 52.3975V52.2949C39.7119 52.0898 39.6973 51.9027 39.668 51.7334C39.6387 51.5609 39.5915 51.4111 39.5264 51.2842C39.4645 51.1572 39.3815 51.0596 39.2773 50.9912C39.1732 50.9229 39.0446 50.8887 38.8916 50.8887C38.7158 50.8887 38.5677 50.9163 38.4473 50.9717C38.3301 51.0238 38.2357 51.1051 38.1641 51.2158C38.0957 51.3232 38.0469 51.4583 38.0176 51.6211C37.9915 51.7806 37.9801 51.9678 37.9834 52.1826V52.583C37.9769 52.8304 38.0013 53.0485 38.0566 53.2373C38.112 53.4229 38.208 53.5677 38.3447 53.6719C38.4814 53.776 38.667 53.8281 38.9014 53.8281C39.0576 53.8281 39.1878 53.7923 39.292 53.7207C39.3962 53.6458 39.4792 53.5433 39.541 53.4131C39.6029 53.2796 39.6468 53.1266 39.6729 52.9541C39.6989 52.7816 39.7119 52.596 39.7119 52.3975ZM46.0547 50.7568H46.8555C47.0605 50.7568 47.2282 50.721 47.3584 50.6494C47.4919 50.5745 47.5911 50.4704 47.6562 50.3369C47.7214 50.2002 47.7539 50.0391 47.7539 49.8535C47.7539 49.7103 47.723 49.5785 47.6611 49.458C47.6025 49.3376 47.5114 49.2415 47.3877 49.1699C47.264 49.0951 47.1061 49.0576 46.9141 49.0576C46.7839 49.0576 46.6569 49.0853 46.5332 49.1406C46.4095 49.1927 46.307 49.2676 46.2256 49.3652C46.1475 49.4629 46.1084 49.5817 46.1084 49.7217H44.458C44.458 49.318 44.5687 48.973 44.79 48.6865C45.0146 48.3968 45.3092 48.1755 45.6738 48.0225C46.0417 47.8662 46.4372 47.7881 46.8604 47.7881C47.3649 47.7881 47.8076 47.8662 48.1885 48.0225C48.5693 48.1755 48.8656 48.4033 49.0771 48.7061C49.292 49.0055 49.3994 49.3766 49.3994 49.8193C49.3994 50.0635 49.3424 50.293 49.2285 50.5078C49.1146 50.7227 48.9551 50.9115 48.75 51.0742C48.5449 51.237 48.304 51.3656 48.0273 51.46C47.7539 51.5511 47.4544 51.5967 47.1289 51.5967H46.0547V50.7568ZM46.0547 51.9824V51.1621H47.1289C47.4837 51.1621 47.8076 51.2028 48.1006 51.2842C48.3936 51.3623 48.6458 51.4795 48.8574 51.6357C49.069 51.792 49.2318 51.9857 49.3457 52.2168C49.4596 52.4447 49.5166 52.7067 49.5166 53.0029C49.5166 53.335 49.4499 53.6312 49.3164 53.8916C49.1829 54.152 48.9958 54.3717 48.7549 54.5508C48.514 54.7298 48.2324 54.8665 47.9102 54.9609C47.5879 55.0521 47.238 55.0977 46.8604 55.0977C46.5641 55.0977 46.2679 55.0586 45.9717 54.9805C45.6755 54.8991 45.4053 54.7754 45.1611 54.6094C44.917 54.4401 44.7201 54.2253 44.5703 53.9648C44.4238 53.7012 44.3506 53.387 44.3506 53.0225H46.001C46.001 53.1722 46.0417 53.3089 46.123 53.4326C46.2077 53.5531 46.32 53.6491 46.46 53.7207C46.5999 53.7923 46.7513 53.8281 46.9141 53.8281C47.1159 53.8281 47.2868 53.7907 47.4268 53.7158C47.57 53.6377 47.679 53.5335 47.7539 53.4033C47.8288 53.2731 47.8662 53.1283 47.8662 52.9688C47.8662 52.7279 47.8255 52.5358 47.7441 52.3926C47.666 52.2493 47.5505 52.1452 47.3975 52.0801C47.2477 52.015 47.0671 51.9824 46.8555 51.9824H46.0547Z" fill="white"/>
<defs>
<linearGradient id="paint0_linear_8797_54365" x1="9.57316" y1="47.9194" x2="68.7971" y2="47.9194" gradientUnits="userSpaceOnUse">
<stop offset="0.106383" stop-color="#FFC107"/>
<stop offset="0.888889" stop-color="#F06292"/>
</linearGradient>
<linearGradient id="paint1_linear_8797_54365" x1="-6.60316" y1="58.5766" x2="86.5014" y2="58.5766" gradientUnits="userSpaceOnUse">
<stop offset="0.106383" stop-color="#FCAA16"/>
<stop offset="0.888889" stop-color="#EF687C"/>
</linearGradient>
</defs>
</svg>
