<svg width="258" height="223" viewBox="0 0 258 223" fill="none" xmlns="http://www.w3.org/2000/svg">
<path d="M36.9264 204.12C86.1645 229.294 165.996 229.294 215.228 204.12C264.461 178.946 264.466 138.107 215.228 112.961C165.99 87.8147 86.1645 87.787 36.9264 112.961C-12.3116 138.134 -12.306 178.952 36.9264 204.12Z" fill="#F5F5F5"/>
<path d="M197.954 163.907C200.656 165.466 205.959 164.928 209.798 162.709L231.943 149.845C235.787 147.626 236.708 144.564 234.006 142.999C231.305 141.435 226.007 141.99 222.163 144.209L200.029 157.084C196.185 159.286 195.258 162.348 197.954 163.907Z" fill="#EBEBEB"/>
<path d="M64.586 175.773L42.0527 162.764L64.586 149.756V175.773Z" fill="#EBEBEB"/>
<path d="M128.275 183.556L91.957 162.576L128.281 141.635L128.275 183.556Z" fill="#EBEBEB"/>
<path d="M34.1029 145.357C34.1694 140.087 30.486 129.12 25.0996 122.214C19.7131 115.307 11.1591 110.198 5.05709 112.212C-0.65665 114.092 -0.129654 121.559 6.72129 126.591C13.5722 131.622 23.8625 137.957 26.797 146.561L33.0378 157.101L34.1029 145.357Z" fill="#EC5E20"/>
<path opacity="0.1" d="M34.1029 145.357C34.1694 140.087 30.486 129.12 25.0996 122.214C19.7131 115.307 11.1591 110.198 5.05709 112.212C-0.65665 114.092 -0.129654 121.559 6.72129 126.591C13.5722 131.622 23.8625 137.957 26.797 146.561L33.0378 157.101L34.1029 145.357Z" fill="black"/>
<path d="M34.4077 152.574C34.3235 152.567 34.2441 152.532 34.1819 152.475C34.1197 152.417 34.0782 152.341 34.0638 152.258C30.7354 134.224 16.3678 119.423 7.69737 116.089C7.64498 116.075 7.59616 116.05 7.55408 116.016C7.51199 115.981 7.47757 115.939 7.45303 115.89C7.42849 115.842 7.41439 115.789 7.41163 115.734C7.40888 115.68 7.41752 115.626 7.43702 115.575C7.45651 115.525 7.48641 115.479 7.5248 115.44C7.56319 115.402 7.60921 115.372 7.65988 115.352C7.71056 115.333 7.76476 115.324 7.81899 115.327C7.87323 115.33 7.92628 115.344 7.97474 115.368C16.8116 118.769 31.4566 133.813 34.8182 152.119C34.8279 152.169 34.8276 152.22 34.8175 152.269C34.8074 152.319 34.7875 152.366 34.7592 152.407C34.7308 152.449 34.6945 152.485 34.6523 152.513C34.61 152.54 34.5627 152.559 34.5131 152.569L34.4077 152.574Z" fill="white"/>
<path d="M31.5847 164.057C30.7748 161.084 27.2134 156.152 21.4109 152.041C14.9871 147.498 6.82147 145.346 4.97421 141.845C2.75528 137.641 6.32221 133.735 12.9624 134.634C19.6025 135.533 31.1853 144.763 32.8939 158.443L31.5847 164.057Z" fill="#EC5E20"/>
<path d="M32.91 160.962C32.8359 160.955 32.7652 160.928 32.7062 160.883C32.6472 160.838 32.6024 160.776 32.5772 160.706C27.2462 145.224 15.5525 139.671 10.1161 138.9C10.0153 138.886 9.92421 138.832 9.86283 138.751C9.80145 138.67 9.77482 138.568 9.78879 138.467C9.80277 138.366 9.85621 138.275 9.93736 138.214C10.0185 138.153 10.1207 138.126 10.2215 138.14C16.2348 138.994 27.8675 144.652 33.3094 160.451C33.3416 160.548 33.3347 160.654 33.2902 160.746C33.2457 160.839 33.167 160.91 33.0709 160.945C33.0189 160.961 32.9642 160.967 32.91 160.962Z" fill="white"/>
<path d="M230.795 130.34C230.795 130.34 231.532 119.246 238.078 110.98C244.624 102.715 244.225 99.331 239.709 97.6668C235.194 96.0026 224.731 105.96 227.039 119.246C229.347 132.532 230.795 130.34 230.795 130.34Z" fill="#EC5E20"/>
<path opacity="0.1" d="M230.795 130.34C230.795 130.34 231.532 119.246 238.078 110.98C244.624 102.715 244.225 99.331 239.709 97.6668C235.194 96.0026 224.731 105.96 227.039 119.246C229.347 132.532 230.795 130.34 230.795 130.34Z" fill="black"/>
<path d="M228.791 124.005C228.726 124.006 228.663 123.981 228.614 123.937C228.566 123.893 228.536 123.832 228.531 123.767C227.771 111.529 236.408 101.489 239.625 99.2143C239.652 99.1943 239.683 99.18 239.716 99.1723C239.749 99.1645 239.783 99.1634 239.816 99.1691C239.849 99.1748 239.881 99.1872 239.909 99.2054C239.937 99.2237 239.961 99.2475 239.98 99.2753C240.019 99.3314 240.035 99.4007 240.024 99.4681C240.012 99.5356 239.975 99.5958 239.919 99.6359C236.746 101.855 228.27 111.712 229.024 123.733C229.027 123.801 229.004 123.867 228.96 123.917C228.915 123.968 228.853 124 228.786 124.005H228.791Z" fill="white"/>
<path d="M229.014 139.527C231.962 140.49 234.982 141.217 238.045 141.701C243.115 142.5 245.356 140.076 245.356 140.076C245.356 140.076 243.359 135.322 240.48 133.974C243.595 134.674 246.57 135.895 249.278 137.585C249.278 137.585 252.374 137.635 253.605 132.909C253.605 132.909 251.775 130.063 245.617 128.526C245.617 128.526 249.361 127.583 254.759 128.959C255.164 129.12 256.889 123.012 257.411 120.194C257.932 117.376 256.8 117.421 254.604 116.816C252.407 116.211 245.123 114.597 243.748 115.801C242.372 117.005 241.673 121.143 241.673 121.143C241.128 119.449 241.057 117.638 241.468 115.906C241.468 115.906 239.493 115.135 236.42 116.028C233.912 116.755 233.79 118.464 233.901 120.394C234.05 122.071 234.423 123.72 235.011 125.298C235.011 125.298 233.052 122.791 232.991 117.349C232.991 117.349 227.854 119.9 226.978 125.004C226.468 127.772 225.791 135.888 229.014 139.527Z" fill="#EC5E20"/>
<path d="M229.978 138.539C230.033 138.539 230.085 138.524 230.131 138.496C230.177 138.467 230.215 138.427 230.239 138.378C234.328 129.874 249.544 119.995 254.991 118.935C255.028 118.928 255.063 118.915 255.095 118.894C255.126 118.874 255.154 118.847 255.175 118.816C255.196 118.785 255.211 118.75 255.218 118.714C255.226 118.677 255.226 118.639 255.219 118.602C255.203 118.528 255.159 118.463 255.095 118.42C255.032 118.378 254.955 118.362 254.88 118.375C249.333 119.457 233.878 129.469 229.723 138.129C229.691 138.197 229.686 138.276 229.711 138.348C229.736 138.419 229.788 138.478 229.856 138.512C229.895 138.529 229.936 138.538 229.978 138.539Z" fill="white"/>
<path d="M32.1164 167.984C31.4895 167.984 31.1123 167.468 31.1123 166.598V73.2861L145.404 7.31177V100.246C145.364 101.022 145.143 101.778 144.757 102.452C144.372 103.127 143.833 103.701 143.185 104.129L33.0261 167.701C32.7528 167.874 32.4391 167.971 32.1164 167.984Z" fill="#FAFAFA"/>
<path d="M145.06 7.87196V100.246C145.014 100.966 144.802 101.665 144.441 102.289C144.08 102.914 143.58 103.447 142.98 103.846L32.8654 167.418C32.6412 167.564 32.3831 167.648 32.1165 167.663C31.5008 167.663 31.4342 166.914 31.4342 166.597V73.4746L145.06 7.87196ZM145.709 6.76249L30.7852 73.0974V166.597C30.7852 167.707 31.3399 168.312 32.1165 168.312C32.4958 168.298 32.865 168.185 33.1871 167.984L143.307 104.406C144.006 103.95 144.588 103.336 145.005 102.613C145.422 101.89 145.663 101.079 145.709 100.246V6.74585V6.76249Z" fill="#E0E0E0"/>
<path d="M30.791 73.0974V88.7131L145.709 22.3616V6.74585L30.791 73.0974Z" fill="#EC5E20"/>
<path d="M39.7998 73.9296V76.1485C39.7998 76.6034 40.1271 76.792 40.521 76.5646L75.8518 56.1671V52.2839L40.521 72.6814C40.3123 72.8194 40.1385 73.0039 40.0133 73.2205C39.8882 73.4372 39.8151 73.6799 39.7998 73.9296Z" fill="#FAFAFA"/>
<path d="M79.6404 50.0983C80.0398 49.8653 80.3615 50.0539 80.3615 50.5143V52.7333C80.3471 52.9832 80.2744 53.2262 80.1492 53.4429C80.0239 53.6597 79.8497 53.8441 79.6404 53.9814L75.8516 56.167V52.2839L79.6404 50.0983Z" fill="#BFCACF"/>
<path d="M30.7852 68.0661C30.8307 67.2327 31.0719 66.4218 31.4892 65.6989C31.9065 64.9761 32.4882 64.3618 33.1871 63.9056L143.307 0.32775C144.633 -0.43778 145.709 0.18352 145.709 1.71458V6.746L30.7852 73.0975V68.0661Z" fill="#BFCACF"/>
<path d="M132.934 8.93163C132.609 9.1463 132.339 9.43443 132.146 9.7727C131.954 10.111 131.843 10.4899 131.824 10.8787C131.824 11.5999 132.329 11.8884 132.934 11.5333C133.259 11.3175 133.528 11.0283 133.721 10.6891C133.914 10.35 134.024 9.97029 134.043 9.58067C134.065 8.85397 133.561 8.57106 132.934 8.93163Z" fill="#EC5E20"/>
<path d="M136.528 6.86812C136.204 7.08279 135.934 7.37092 135.741 7.70919C135.548 8.04747 135.438 8.42637 135.419 8.81523C135.419 9.53639 135.924 9.82485 136.528 9.46982C136.853 9.25332 137.122 8.96401 137.315 8.62498C137.507 8.28595 137.618 7.90658 137.638 7.51716C137.638 6.79601 137.128 6.50755 136.528 6.86812Z" fill="#EC5E20"/>
<path d="M140.073 4.8044C139.749 5.01907 139.479 5.3072 139.286 5.64547C139.093 5.98374 138.983 6.36265 138.964 6.75151C138.964 7.47266 139.469 7.76112 140.073 7.4061C140.398 7.18959 140.667 6.90028 140.859 6.56125C141.052 6.22222 141.163 5.84286 141.183 5.45344C141.199 4.73229 140.695 4.44383 140.073 4.8044Z" fill="#EC5E20"/>
<g opacity="0.1">
<path d="M109.652 32.5243C108.935 32.993 108.339 33.6241 107.912 34.3662C107.485 35.1084 107.239 35.9407 107.194 36.7957C107.194 38.3656 108.304 39.0147 109.652 38.2158C110.369 37.7489 110.966 37.1191 111.394 36.3779C111.822 35.6366 112.069 34.8047 112.115 33.9499C112.12 32.3801 111.011 31.7421 109.652 32.5243Z" fill="black"/>
<path d="M98.3907 39.0313C97.6734 39.4982 97.0764 40.128 96.6484 40.8693C96.2204 41.6105 95.9735 42.4424 95.9277 43.2972C95.9277 44.8671 97.0372 45.5161 98.3907 44.7228C99.1072 44.2541 99.7031 43.623 100.13 42.8809C100.557 42.1387 100.803 41.3064 100.848 40.4514C100.848 38.8815 99.7498 38.2547 98.3907 39.0313Z" fill="black"/>
<path d="M120.918 26.0507C120.202 26.5183 119.606 27.1483 119.179 27.8895C118.752 28.6308 118.506 29.4623 118.461 30.3166C118.461 31.8865 119.57 32.5355 120.918 31.7367C121.636 31.2701 122.233 30.6404 122.661 29.8991C123.089 29.1577 123.336 28.3257 123.381 27.4708C123.381 25.8732 122.283 25.2353 120.918 26.0507Z" fill="black"/>
<path d="M132.191 19.5047C131.473 19.9716 130.876 20.6013 130.448 21.3426C130.02 22.0839 129.773 22.9158 129.728 23.7705C129.728 25.3404 130.837 25.9895 132.191 25.1907C132.908 24.7237 133.505 24.094 133.933 23.3527C134.361 22.6114 134.608 21.7795 134.654 20.9248C134.654 19.3549 133.55 18.7169 132.191 19.5047Z" fill="black"/>
</g>
<path d="M42.2233 89.9282L68.9669 74.4845C70.2927 73.719 71.3689 74.3403 71.3689 75.8713V101.55C71.3234 102.383 71.0822 103.194 70.6649 103.917C70.2476 104.64 69.6659 105.254 68.9669 105.71L42.2233 121.149C40.8975 121.914 39.8213 121.293 39.8213 119.762V94.0887C39.8668 93.2553 40.108 92.4444 40.5253 91.7216C40.9426 90.9987 41.5243 90.3844 42.2233 89.9282Z" fill="#E0E0E0"/>
<path d="M80.5006 67.8109L136.529 35.4811C137.854 34.71 138.931 35.3313 138.931 36.8679V62.5409C138.885 63.3743 138.644 64.1853 138.227 64.9081C137.809 65.6309 137.228 66.2453 136.529 66.7014L80.5006 99.0312C79.1748 99.7967 78.0986 99.1754 78.0986 97.6444V71.9714C78.1442 71.138 78.3854 70.327 78.8027 69.6042C79.22 68.8814 79.8017 68.267 80.5006 67.8109Z" fill="#E0E0E0"/>
<path d="M42.2233 128.954L84.738 104.407C86.0693 103.641 87.1455 104.185 87.1455 105.622C87.0862 106.428 86.8379 107.21 86.4206 107.903C86.0033 108.595 85.4288 109.18 84.7435 109.61L42.2233 134.157C40.8975 134.923 39.8213 134.379 39.8213 132.942C39.8806 132.135 40.1289 131.354 40.5462 130.661C40.9635 129.968 41.538 129.383 42.2233 128.954Z" fill="#E0E0E0"/>
<path d="M42.2233 138.062L84.738 113.515C86.0693 112.75 87.1455 113.293 87.1455 114.73C87.0862 115.537 86.8379 116.318 86.4206 117.011C86.0033 117.704 85.4288 118.289 84.7435 118.719L42.2233 143.266C40.8975 144.031 39.8213 143.488 39.8213 142.051C39.8806 141.244 40.1289 140.463 40.5462 139.77C40.9635 139.077 41.538 138.492 42.2233 138.062Z" fill="#E0E0E0"/>
<path d="M42.2233 147.165L84.738 122.618C86.0693 121.853 87.1455 122.397 87.1455 123.833C87.0862 124.64 86.8379 125.421 86.4206 126.114C86.0033 126.807 85.4288 127.392 84.7435 127.822L42.2233 152.369C40.8975 153.134 39.8213 152.591 39.8213 151.154C39.8806 150.347 40.1289 149.566 40.5462 148.873C40.9635 148.18 41.538 147.595 42.2233 147.165Z" fill="#E0E0E0"/>
<path d="M62.333 116.289C62.3614 115.789 62.5067 115.303 62.7572 114.869C63.0077 114.436 63.3564 114.067 63.7753 113.793L137.505 71.228C137.952 71.0009 138.446 70.8826 138.947 70.8826C139.448 70.8826 139.942 71.0009 140.389 71.228L142.015 72.1655C142.434 72.4394 142.782 72.8081 143.032 73.2419C143.281 73.6756 143.425 74.162 143.452 74.6617V131.178C143.424 131.677 143.28 132.163 143.03 132.597C142.781 133.031 142.433 133.4 142.015 133.674L68.2964 176.239C67.8495 176.466 67.3553 176.584 66.8541 176.584C66.3528 176.584 65.8587 176.466 65.4118 176.239L63.7864 175.301C63.3672 175.027 63.0182 174.659 62.7677 174.225C62.5172 173.791 62.3721 173.305 62.3441 172.805L62.333 116.289Z" fill="#EC5E20"/>
<path opacity="0.4" d="M62.749 114.869L66.8429 117.232L143.024 73.2418C142.781 72.8028 142.432 72.4311 142.009 72.16L140.412 71.2281C139.967 71.0011 139.474 70.8828 138.975 70.8828C138.475 70.8828 137.983 71.0011 137.538 71.2281L63.7753 113.793C63.3479 114.059 62.9948 114.429 62.749 114.869Z" fill="white"/>
<path opacity="0.1" d="M62.333 116.289V172.805C62.361 173.305 62.5061 173.791 62.7566 174.225C63.0072 174.659 63.3561 175.027 63.7753 175.301L65.4007 176.239C65.5256 176.311 65.6576 176.371 65.7945 176.416C65.9875 176.481 66.1863 176.528 66.3881 176.555C66.7671 176.601 67.1511 176.586 67.5253 176.511C67.6212 176.493 67.7157 176.469 67.8082 176.438L67.9802 176.372C67.8707 176.419 67.7527 176.443 67.6335 176.443C67.5142 176.443 67.3963 176.419 67.2868 176.372C67.1332 176.27 67.011 176.127 66.9337 175.959C66.8563 175.792 66.8268 175.606 66.8485 175.423V118.896C66.8339 118.639 66.8977 118.384 67.0314 118.164C67.1651 117.944 67.3625 117.77 67.5974 117.665L66.8485 117.232L62.7491 114.869C62.492 115.299 62.3488 115.788 62.333 116.289Z" fill="black"/>
<path opacity="0.2" d="M66.8487 117.232L100.992 129.991C102.173 130.431 103.469 130.456 104.665 130.061C105.862 129.667 106.889 128.877 107.577 127.822L113.058 119.423L143.302 73.0862L114.151 119.739L143.452 131.205C143.427 131.715 143.273 132.21 143.002 132.642L114.073 119.883L107.683 130.063C106.975 131.194 105.883 132.032 104.607 132.423C103.332 132.814 101.958 132.732 100.737 132.193L96.1996 130.19L67.287 176.383C67.1334 176.281 67.0112 176.138 66.9339 175.97C66.8565 175.803 66.827 175.617 66.8487 175.434V174.497L96.072 130.157L66.8487 117.232Z" fill="black"/>
<path d="M127.681 52.3506V182.102C127.681 183.634 128.757 184.255 130.083 183.489L188.374 149.834C189.073 149.378 189.655 148.763 190.072 148.04C190.489 147.318 190.73 146.507 190.776 145.673V15.9214C190.776 14.3903 189.7 13.769 188.374 14.5345L130.083 48.1901C129.383 48.6456 128.801 49.2598 128.384 49.9828C127.966 50.7058 127.725 51.517 127.681 52.3506Z" fill="#FAFAFA" stroke="#E0E0E0" stroke-width="1.16981" stroke-miterlimit="10"/>
<path d="M131.059 54.7636C131.077 54.5582 131.144 54.3599 131.253 54.1847C131.361 54.0094 131.51 53.8619 131.685 53.754L138.342 49.9208C138.686 49.7211 138.964 49.8542 138.964 50.2148C138.946 50.4199 138.88 50.618 138.773 50.7933C138.665 50.9686 138.517 51.1162 138.342 51.2244L131.685 55.0576C131.342 55.2573 131.059 55.1242 131.059 54.7636Z" fill="#BFCACF"/>
<path d="M131.059 57.3488C131.077 57.1432 131.143 56.9448 131.252 56.7694C131.361 56.5941 131.509 56.4467 131.685 56.3392L138.342 52.506C138.686 52.3062 138.964 52.4394 138.964 52.7944C138.947 53.0005 138.882 53.1996 138.774 53.376C138.666 53.5523 138.518 53.7008 138.342 53.8096L131.685 57.6372C131.342 57.8369 131.059 57.7093 131.059 57.3488Z" fill="#BFCACF"/>
<path d="M131.059 59.9337C131.077 59.7281 131.143 59.5297 131.252 59.3543C131.361 59.179 131.509 59.0316 131.685 58.924L138.342 55.0908C138.686 54.8911 138.964 55.0187 138.964 55.3793C138.947 55.5846 138.882 55.783 138.774 55.9585C138.666 56.1339 138.518 56.2814 138.342 56.3889L131.685 60.2221C131.342 60.444 131.059 60.2942 131.059 59.9337Z" fill="#BFCACF"/>
<path d="M186.272 26.6609V25.6236C186.272 25.6109 186.269 25.5984 186.264 25.5873C186.258 25.5761 186.249 25.5667 186.238 25.56C186.228 25.5532 186.215 25.5494 186.203 25.5489C186.19 25.5484 186.178 25.5512 186.166 25.557L185.368 25.9176C185.355 25.9238 185.341 25.9271 185.327 25.9273C185.313 25.9275 185.299 25.9246 185.287 25.9188C185.274 25.9129 185.262 25.9043 185.253 25.8935C185.244 25.8828 185.238 25.8701 185.234 25.8565C185.192 25.7182 185.133 25.5859 185.057 25.4627C185.042 25.4326 185.034 25.3993 185.034 25.3656C185.034 25.3319 185.042 25.2986 185.057 25.2685L185.612 24.1923C185.625 24.1651 185.628 24.1335 185.618 24.1045C185.609 24.0754 185.589 24.0512 185.562 24.037L185.007 23.7042C184.981 23.6908 184.951 23.6874 184.922 23.6946C184.894 23.7017 184.869 23.7189 184.852 23.743L184.186 24.7415C184.166 24.7683 184.14 24.7899 184.11 24.8044C184.08 24.8189 184.047 24.8258 184.014 24.8247C183.869 24.8236 183.724 24.8384 183.581 24.8691C183.568 24.8733 183.553 24.8744 183.539 24.8723C183.525 24.8702 183.512 24.865 183.5 24.857C183.489 24.849 183.479 24.8384 183.472 24.8261C183.465 24.8138 183.46 24.8001 183.459 24.7859L183.371 23.915C183.371 23.854 183.315 23.8262 183.265 23.8595L182.367 24.3754C182.338 24.394 182.314 24.4185 182.296 24.4472C182.278 24.4759 182.266 24.5082 182.261 24.5418L182.172 25.5403C182.16 25.6112 182.128 25.6769 182.078 25.7289C181.898 25.9011 181.731 26.0866 181.579 26.2837C181.557 26.3086 181.529 26.3266 181.498 26.3355C181.466 26.3444 181.433 26.3437 181.401 26.3336L180.847 26.1339C180.817 26.1245 180.785 26.1254 180.756 26.1365C180.726 26.1475 180.702 26.1681 180.686 26.1949L180.026 27.3377C180.012 27.3648 180.008 27.3955 180.013 27.4254C180.018 27.4552 180.032 27.4828 180.053 27.5041L180.519 27.9035C180.542 27.9263 180.558 27.9548 180.566 27.9861C180.574 28.0174 180.573 28.0502 180.564 28.081C180.478 28.3092 180.408 28.5426 180.353 28.78C180.334 28.8472 180.295 28.9072 180.242 28.9519L179.421 29.5067C179.393 29.5279 179.371 29.5547 179.355 29.5853C179.338 29.6159 179.329 29.6496 179.327 29.6842V30.716C179.324 30.7293 179.325 30.7431 179.33 30.7555C179.336 30.768 179.345 30.7786 179.356 30.7858C179.368 30.793 179.381 30.7966 179.395 30.796C179.408 30.7954 179.421 30.7907 179.432 30.7826L180.231 30.422C180.244 30.4168 180.258 30.4144 180.272 30.415C180.286 30.4157 180.3 30.4192 180.312 30.4255C180.325 30.4318 180.336 30.4406 180.345 30.4515C180.354 30.4624 180.36 30.475 180.364 30.4886C180.406 30.6268 180.466 30.7592 180.541 30.8824C180.557 30.9125 180.564 30.9458 180.564 30.9795C180.564 31.0132 180.557 31.0464 180.541 31.0766L179.987 32.1472C179.974 32.1755 179.972 32.2074 179.981 32.237C179.991 32.2667 180.01 32.2919 180.037 32.3081L180.591 32.6409C180.618 32.6542 180.648 32.6577 180.676 32.6505C180.705 32.6434 180.73 32.6262 180.747 32.6021L181.412 31.6036C181.432 31.5768 181.458 31.5552 181.488 31.5407C181.518 31.5262 181.551 31.5192 181.584 31.5204C181.73 31.5215 181.875 31.5067 182.017 31.476C182.031 31.4718 182.045 31.4707 182.059 31.4728C182.073 31.4749 182.086 31.4801 182.098 31.4881C182.11 31.4961 182.12 31.5067 182.127 31.519C182.134 31.5313 182.138 31.545 182.139 31.5592L182.228 32.4301C182.228 32.4911 182.278 32.5189 182.333 32.4856L183.232 31.9697C183.26 31.9497 183.284 31.9241 183.302 31.8946C183.32 31.865 183.332 31.832 183.337 31.7977L183.426 30.7992C183.437 30.7296 183.47 30.6654 183.52 30.6161C183.7 30.4439 183.867 30.2585 184.02 30.0614C184.041 30.0365 184.069 30.0185 184.101 30.0096C184.132 30.0007 184.166 30.0014 184.197 30.0115L184.752 30.2112C184.782 30.2206 184.814 30.2197 184.843 30.2086C184.872 30.1976 184.897 30.177 184.913 30.1502L185.573 29.0074C185.587 28.9791 185.591 28.9469 185.585 28.9158C185.579 28.8847 185.563 28.8565 185.54 28.8354L185.079 28.4416C185.056 28.4188 185.04 28.3903 185.032 28.359C185.025 28.3277 185.025 28.2949 185.035 28.2641C185.12 28.0359 185.191 27.8025 185.246 27.5651C185.261 27.4965 185.3 27.4357 185.357 27.3931L186.178 26.8384C186.204 26.8167 186.227 26.7898 186.243 26.7593C186.259 26.7288 186.269 26.6953 186.272 26.6609ZM182.76 29.9338C181.923 30.422 181.246 30.0281 181.246 29.0629C181.272 28.5359 181.423 28.0227 181.686 27.5656C181.949 27.1084 182.318 26.7204 182.76 26.4335C183.598 25.9508 184.275 26.3447 184.275 27.3099C184.248 27.8359 184.097 28.348 183.833 28.8042C183.57 29.2603 183.202 29.6475 182.76 29.9338Z" fill="#37474F"/>
<path d="M159.228 52.2342C166.04 48.3011 171.56 51.4908 171.56 59.3569C171.56 67.223 166.04 76.7811 159.228 80.7141C152.416 84.6472 146.896 81.4575 146.896 73.5969C146.896 65.7363 152.416 56.1672 159.228 52.2342Z" fill="#BFCACF"/>
<path d="M159.145 58.4249C161.364 57.1491 163.144 58.1809 163.144 60.7326C163.068 62.1196 162.667 63.4692 161.972 64.672C161.277 65.8748 160.308 66.897 159.145 67.6557C156.926 68.9316 155.14 67.8998 155.14 65.348C155.216 63.9604 155.618 62.6103 156.314 61.4074C157.01 60.2045 157.98 59.1827 159.145 58.4249Z" fill="#EC5E20"/>
<path d="M167.039 72.027C167.039 67.8387 164.094 66.1357 160.466 68.2326L158.163 69.5418C154.535 71.6387 151.59 76.7533 151.59 80.9304V82.0787C152.275 82.2976 152.99 82.4081 153.709 82.406C155.655 82.3398 157.55 81.7662 159.206 80.7418C162.375 78.7955 165.055 76.1481 167.039 73.0033V72.027Z" fill="#EC5E20"/>
<path d="M148.1 92.4132L170.367 79.5601C171.027 79.1773 171.565 79.4492 171.565 80.1703C171.535 80.5729 171.411 80.9628 171.203 81.3086C170.995 81.6545 170.708 81.9467 170.367 82.1618L148.105 95.0149C147.439 95.4033 146.901 95.1259 146.901 94.4103C146.93 94.0066 147.053 93.6155 147.262 93.2685C147.47 92.9215 147.757 92.6285 148.1 92.4132Z" fill="#EC5E20"/>
<path d="M145.71 101.611L172.747 85.962C173.413 85.5792 173.951 85.851 173.951 86.5722C173.921 86.9753 173.796 87.3657 173.587 87.7117C173.378 88.0577 173.09 88.3496 172.747 88.5637L145.71 104.213C145.044 104.595 144.506 104.324 144.506 103.602C144.536 103.199 144.661 102.809 144.87 102.463C145.079 102.117 145.367 101.825 145.71 101.611Z" fill="#BFCACF"/>
<path d="M173.468 98.5764L181.04 94.2051C181.44 93.9776 181.761 94.083 181.761 94.4436C181.731 94.6647 181.651 94.8759 181.526 95.0606C181.401 95.2454 181.234 95.3987 181.04 95.5087L173.468 99.88C173.074 100.107 172.747 100.002 172.747 99.647C172.777 99.4253 172.858 99.2135 172.983 99.0279C173.108 98.8423 173.274 98.6879 173.468 98.5764Z" fill="#37474F"/>
<path d="M135.641 117.82L146.763 111.402C147.423 111.019 147.961 111.33 147.961 112.095V119.728C147.938 120.145 147.818 120.55 147.61 120.911C147.402 121.272 147.112 121.58 146.763 121.808L135.641 128.227C134.98 128.609 134.442 128.299 134.442 127.533V119.9C134.465 119.484 134.586 119.079 134.794 118.717C135.002 118.356 135.292 118.049 135.641 117.82Z" fill="#EC5E20"/>
<path d="M137.416 118.885L144.989 114.514C145.388 114.286 145.71 114.392 145.71 114.747C145.681 114.969 145.6 115.181 145.475 115.367C145.35 115.553 145.183 115.707 144.989 115.817L137.416 120.189C137.017 120.416 136.695 120.311 136.695 119.956C136.725 119.734 136.805 119.521 136.93 119.335C137.055 119.15 137.222 118.995 137.416 118.885Z" fill="#FAFAFA"/>
<path d="M136.695 122.735V124.954C136.695 125.414 137.017 125.597 137.416 125.37L144.989 120.999C145.198 120.862 145.373 120.678 145.498 120.461C145.624 120.244 145.696 120.001 145.71 119.751V117.532C145.71 117.071 145.388 116.888 144.989 117.116L137.416 121.465C137.204 121.604 137.028 121.792 136.903 122.013C136.777 122.234 136.706 122.481 136.695 122.735Z" fill="#FAFAFA"/>
<path d="M153.67 107.413L164.765 100.995C165.43 100.612 165.968 100.923 165.968 101.688V109.321C165.946 109.739 165.825 110.144 165.616 110.506C165.406 110.867 165.115 111.174 164.765 111.402L153.67 117.82C153.004 118.203 152.472 117.892 152.472 117.127V109.493C152.493 109.077 152.613 108.671 152.821 108.31C153.03 107.948 153.32 107.641 153.67 107.413Z" fill="#EC5E20"/>
<path d="M155.445 108.478L163.017 104.107C163.411 103.88 163.732 103.985 163.732 104.34C163.703 104.561 163.623 104.773 163.499 104.959C163.375 105.144 163.21 105.299 163.017 105.411L155.445 109.782C155.045 110.01 154.724 109.904 154.724 109.544C154.754 109.322 154.834 109.111 154.959 108.927C155.085 108.742 155.251 108.588 155.445 108.478Z" fill="#FAFAFA"/>
<path d="M154.724 112.328V114.547C154.724 115.008 155.045 115.191 155.445 114.963L163.017 110.592C163.225 110.454 163.398 110.269 163.523 110.053C163.647 109.836 163.719 109.593 163.732 109.344V107.125C163.732 106.665 163.405 106.481 163.011 106.709L155.439 111.08C155.23 111.217 155.057 111.402 154.932 111.619C154.808 111.836 154.737 112.079 154.724 112.328Z" fill="#FAFAFA"/>
<path d="M171.698 97.0066L182.793 90.5828C183.453 90.2001 183.991 90.5107 183.991 91.2762V98.9149C183.968 99.3312 183.848 99.7364 183.639 100.098C183.431 100.459 183.141 100.766 182.793 100.995L171.698 107.413C171.032 107.796 170.494 107.486 170.494 106.72V99.0869C170.517 98.6698 170.638 98.264 170.847 97.9025C171.056 97.541 171.348 97.2341 171.698 97.0066Z" fill="#EC5E20"/>
<path d="M173.468 98.0717L181.04 93.7282C181.44 93.4952 181.761 93.6006 181.761 93.9612C181.733 94.1827 181.652 94.3944 181.527 94.5793C181.402 94.7642 181.235 94.9173 181.04 95.0263L173.468 99.3976C173.074 99.6305 172.747 99.5251 172.747 99.1646C172.773 98.9386 172.852 98.7218 172.977 98.532C173.102 98.3421 173.271 98.1844 173.468 98.0717Z" fill="#FAFAFA"/>
<path d="M172.747 101.922V104.14C172.747 104.595 173.074 104.784 173.468 104.556L181.04 100.18C181.251 100.043 181.425 99.8591 181.551 99.6422C181.676 99.4253 181.748 99.1817 181.761 98.9315V96.7126C181.761 96.2521 181.44 96.0635 181.04 96.2965L173.468 100.668C173.258 100.805 173.083 100.991 172.958 101.208C172.832 101.426 172.76 101.671 172.747 101.922Z" fill="#FAFAFA"/>
<path d="M136.844 135.333L181.611 109.488C182.943 108.723 184.013 109.266 184.013 110.703C183.955 111.51 183.707 112.292 183.29 112.985C182.873 113.678 182.297 114.263 181.611 114.691L136.844 140.536C135.519 141.302 134.442 140.758 134.442 139.322C134.502 138.515 134.75 137.733 135.167 137.041C135.585 136.348 136.159 135.763 136.844 135.333Z" fill="#E0E0E0"/>
<path d="M136.844 145.745L181.611 119.9C182.943 119.135 184.013 119.679 184.013 121.115C183.955 121.922 183.707 122.704 183.29 123.397C182.873 124.09 182.297 124.675 181.611 125.104L136.844 150.954C135.519 151.72 134.442 151.176 134.442 149.734C134.502 148.927 134.75 148.146 135.167 147.453C135.585 146.76 136.159 146.175 136.844 145.745Z" fill="#E0E0E0"/>
<path d="M151.418 150.344L167.039 141.324C167.705 140.941 168.243 141.252 168.243 142.017V147.049C168.22 147.466 168.099 147.872 167.89 148.233C167.681 148.595 167.389 148.902 167.039 149.129L151.418 158.149C150.752 158.532 150.214 158.221 150.214 157.456V152.424C150.237 152.007 150.357 151.601 150.567 151.24C150.776 150.878 151.067 150.571 151.418 150.344Z" fill="#EC5E20"/>
<path d="M137.82 136.104C137.495 136.32 137.226 136.609 137.033 136.948C136.84 137.287 136.73 137.667 136.711 138.057C136.711 138.772 137.216 139.066 137.82 138.706C138.145 138.49 138.415 138.201 138.608 137.861C138.8 137.522 138.911 137.143 138.93 136.753C138.947 136.037 138.442 135.743 137.82 136.104Z" fill="#FAFAFA"/>
<path d="M141.394 134.04C141.068 134.256 140.798 134.545 140.605 134.884C140.412 135.223 140.302 135.603 140.284 135.993C140.284 136.709 140.783 137.003 141.394 136.642C141.719 136.426 141.988 136.137 142.181 135.798C142.374 135.459 142.484 135.079 142.503 134.689C142.52 133.974 142.015 133.669 141.394 134.04Z" fill="#FAFAFA"/>
<path d="M144.96 132.005C144.635 132.22 144.365 132.51 144.173 132.849C143.98 133.188 143.87 133.568 143.851 133.957C143.851 134.673 144.355 134.967 144.96 134.606C145.285 134.39 145.555 134.101 145.747 133.762C145.94 133.423 146.05 133.043 146.07 132.654C146.086 131.91 145.581 131.616 144.96 132.005Z" fill="#FAFAFA"/>
<path d="M148.533 129.913C148.208 130.129 147.938 130.418 147.745 130.757C147.553 131.096 147.442 131.476 147.424 131.866C147.424 132.582 147.929 132.876 148.533 132.515C148.858 132.299 149.128 132.01 149.321 131.671C149.513 131.332 149.624 130.952 149.643 130.562C149.659 129.847 149.155 129.553 148.533 129.913Z" fill="#FAFAFA"/>
<path d="M152.1 127.85C151.775 128.065 151.505 128.355 151.312 128.694C151.12 129.033 151.009 129.413 150.99 129.802C150.99 130.518 151.495 130.812 152.1 130.451C152.425 130.235 152.694 129.946 152.887 129.607C153.08 129.268 153.19 128.888 153.209 128.499C153.226 127.783 152.721 127.489 152.1 127.85Z" fill="#FAFAFA"/>
<path d="M155.666 125.786C155.341 126.002 155.072 126.291 154.879 126.63C154.686 126.969 154.576 127.349 154.557 127.739C154.557 128.454 155.061 128.748 155.666 128.388C155.992 128.173 156.262 127.884 156.455 127.544C156.647 127.205 156.757 126.825 156.776 126.435C156.792 125.719 156.293 125.425 155.666 125.786Z" fill="#FAFAFA"/>
<path d="M159.239 123.722C158.914 123.938 158.645 124.227 158.452 124.567C158.259 124.906 158.149 125.285 158.13 125.675C158.13 126.391 158.635 126.685 159.239 126.324C159.564 126.108 159.834 125.819 160.027 125.48C160.219 125.141 160.33 124.761 160.349 124.371C160.382 123.684 159.861 123.362 159.239 123.722Z" fill="#FAFAFA"/>
<path d="M137.82 146.522C137.496 146.739 137.227 147.028 137.034 147.367C136.842 147.706 136.731 148.085 136.711 148.475C136.711 149.196 137.216 149.484 137.82 149.124C138.145 148.909 138.415 148.621 138.608 148.283C138.8 147.944 138.911 147.565 138.93 147.177C138.947 146.455 138.442 146.167 137.82 146.522Z" fill="#FAFAFA"/>
<path d="M141.394 144.458C141.068 144.674 140.799 144.963 140.606 145.302C140.413 145.641 140.303 146.021 140.284 146.411C140.284 147.132 140.783 147.421 141.394 147.06C141.718 146.845 141.988 146.557 142.181 146.219C142.374 145.881 142.484 145.502 142.503 145.113C142.52 144.392 142.015 144.103 141.394 144.458Z" fill="#FAFAFA"/>
<path d="M144.96 142.395C144.636 142.611 144.367 142.9 144.174 143.239C143.981 143.578 143.871 143.958 143.851 144.347C143.851 145.068 144.355 145.357 144.96 144.996C145.285 144.782 145.555 144.493 145.747 144.155C145.94 143.817 146.05 143.438 146.07 143.049C146.086 142.328 145.581 142.034 144.96 142.395Z" fill="#FAFAFA"/>
<path d="M148.533 140.325C148.208 140.541 147.939 140.831 147.746 141.17C147.553 141.509 147.443 141.889 147.424 142.278C147.424 142.999 147.929 143.288 148.533 142.927C148.858 142.713 149.128 142.424 149.321 142.086C149.513 141.748 149.624 141.369 149.643 140.98C149.659 140.264 149.155 139.97 148.533 140.325Z" fill="#FAFAFA"/>
<path d="M152.1 138.267C151.775 138.483 151.505 138.772 151.312 139.112C151.12 139.451 151.009 139.83 150.99 140.22C150.99 140.941 151.495 141.23 152.1 140.869C152.425 140.654 152.694 140.366 152.887 140.028C153.08 139.69 153.19 139.311 153.209 138.922C153.226 138.201 152.721 137.907 152.1 138.267Z" fill="#FAFAFA"/>
<path d="M155.666 136.204C155.341 136.42 155.072 136.709 154.879 137.048C154.686 137.387 154.576 137.767 154.557 138.156C154.557 138.878 155.061 139.166 155.666 138.805C155.992 138.591 156.263 138.302 156.456 137.963C156.649 137.623 156.758 137.243 156.776 136.853C156.792 136.137 156.293 135.843 155.666 136.204Z" fill="#FAFAFA"/>
<path d="M159.239 134.14C158.914 134.356 158.645 134.645 158.452 134.985C158.259 135.324 158.149 135.703 158.13 136.093C158.13 136.814 158.635 137.103 159.239 136.742C159.565 136.526 159.834 136.237 160.027 135.898C160.22 135.559 160.33 135.179 160.349 134.789C160.382 134.074 159.861 133.78 159.239 134.14Z" fill="#FAFAFA"/>
<path d="M209.304 157.594C207.386 157.608 205.5 157.11 203.839 156.152C199.84 153.839 197.549 149.013 197.549 142.894C197.549 132.143 204.383 119.778 213.081 114.741C217.78 112.029 222.445 111.735 226.223 113.915C230.217 116.222 232.514 121.054 232.514 127.167C232.514 137.918 225.679 150.289 216.953 155.326C214.646 156.737 212.008 157.52 209.304 157.594ZM220.764 120.217C219.414 120.312 218.108 120.741 216.964 121.465C210.641 125.098 205.315 134.922 205.315 142.894C205.315 146.123 206.219 148.574 207.734 149.445C209.459 150.444 211.861 149.357 213.131 148.619C219.472 144.963 224.819 135.139 224.819 127.167C224.819 123.939 223.915 121.492 222.401 120.616C221.902 120.337 221.336 120.199 220.764 120.217Z" fill="#BFCACF"/>
<path d="M226.179 128.887C226.179 122.846 222.373 120.616 222.373 120.616C223.888 121.492 224.792 123.944 224.792 127.167C224.792 135.139 219.444 144.963 213.104 148.619C211.833 149.357 209.437 150.444 207.706 149.445C207.706 149.445 210.918 151.442 215.356 149.018C221.78 145.518 226.179 136.859 226.179 128.887Z" fill="#37474F"/>
<path d="M220.077 53.3935C220.038 52.3578 219.6 51.3773 218.854 50.6582C218.107 49.9391 217.111 49.5374 216.075 49.5374C215.038 49.5374 214.042 49.9391 213.296 50.6582C212.549 51.3773 212.111 52.3578 212.072 53.3935V117.027C212.101 117.383 212.225 117.726 212.43 118.019C212.636 118.311 212.917 118.543 213.243 118.691C214.12 119.134 215.089 119.365 216.072 119.365C217.055 119.365 218.024 119.134 218.901 118.691C219.228 118.545 219.51 118.313 219.717 118.02C219.924 117.727 220.048 117.384 220.077 117.027V53.4046V53.3935Z" fill="#37474F"/>
<path d="M216.881 67.617C216.837 66.8146 216.605 66.0339 216.203 65.338C215.801 64.6421 215.241 64.0508 214.568 63.6118C214.33 63.4377 214.05 63.3322 213.756 63.3068C213.463 63.2814 213.168 63.337 212.904 63.4676L203.041 69.1536L202.802 69.2923C202.766 69.3072 202.732 69.3278 202.702 69.3533C202.534 69.4669 202.376 69.5949 202.231 69.7361C201.675 70.2906 201.336 71.0267 201.278 71.8099C201.219 72.5932 201.444 73.3714 201.912 74.0025C202.379 74.6336 203.058 75.0755 203.825 75.2475C204.591 75.4195 205.394 75.3102 206.086 74.9395L206.275 74.8285L216.21 69.1092C216.444 68.9421 216.629 68.7159 216.747 68.4537C216.865 68.1916 216.911 67.9029 216.881 67.617Z" fill="#BFCACF"/>
<path d="M216.882 83.5488C216.837 82.7473 216.604 81.9677 216.202 81.2728C215.8 80.578 215.241 79.9875 214.568 79.5491C214.332 79.373 214.051 79.2658 213.757 79.2393C213.464 79.2129 213.168 79.2683 212.904 79.3994L201.332 86.0561L201.094 86.1948C201.058 86.2105 201.024 86.2311 200.994 86.2558C200.825 86.368 200.667 86.4962 200.523 86.6386C200.161 86.9984 199.889 87.4373 199.726 87.9207C199.564 88.404 199.517 88.9185 199.588 89.4234C199.659 89.9283 199.846 90.4097 200.136 90.8295C200.425 91.2493 200.808 91.5959 201.255 91.842C201.737 92.0977 202.274 92.231 202.819 92.2303C203.363 92.2329 203.899 92.0994 204.378 91.842C204.444 91.8087 204.505 91.7643 204.567 91.731L216.216 85.0743C216.454 84.9036 216.642 84.6717 216.759 84.4032C216.876 84.1346 216.918 83.8394 216.882 83.5488Z" fill="#BFCACF"/>
</svg>
