<svg width="54" height="54" viewBox="0 0 54 54" fill="none" xmlns="http://www.w3.org/2000/svg">
<rect x="1.5" y="1.5" width="50.0222" height="50.0222" rx="11.5" fill="#EF6023" stroke="white" stroke-width="3"/>
<path d="M38.25 15.9167H30.6885C30.0848 14.2221 28.4821 13 26.5833 13C24.6846 13 23.0819 14.2221 22.4781 15.9167H14.9167C13.3081 15.9167 12 17.2233 12 18.8333V36.3333C12 37.9419 13.3081 39.25 14.9167 39.25H38.25C39.8585 39.25 41.1667 37.9419 41.1667 36.3333V18.8333C41.1667 17.2233 39.8585 15.9167 38.25 15.9167ZM20.75 21.75C22.36 21.75 23.6667 23.0567 23.6667 24.6667C23.6667 26.2767 22.36 27.5833 20.75 27.5833C19.14 27.5833 17.8333 26.2767 17.8333 24.6667C17.8333 23.0567 19.14 21.75 20.75 21.75ZM16.375 33.4167C16.375 30.7319 18.0652 29.0417 20.75 29.0417C23.4348 29.0417 25.125 30.7319 25.125 33.4167H16.375ZM26.5833 18.8333C25.7798 18.8333 25.125 18.1785 25.125 17.375C25.125 16.5715 25.7798 15.9167 26.5833 15.9167C27.3869 15.9167 28.0417 16.5715 28.0417 17.375C28.0417 18.1785 27.3869 18.8333 26.5833 18.8333ZM36.7917 33.4167H28.0417V30.5H36.7917V33.4167ZM36.7917 27.5833H28.0417V24.6667H36.7917V27.5833Z" fill="white"/>
</svg>
