<svg width="138" height="52" viewBox="0 0 138 52" fill="none" xmlns="http://www.w3.org/2000/svg">
<path d="M27.116 50.8891C22.2006 50.8891 17.7445 49.8325 13.7479 47.7193C9.7972 45.5602 6.67339 42.5972 4.37647 38.8303C2.12549 35.0174 1 30.7221 1 25.9445C1 21.1669 2.12549 16.8947 4.37647 13.1277C6.67339 9.31485 9.7972 6.35182 13.7479 4.23865C17.7445 2.07955 22.2235 1 27.1849 1C31.3653 1 35.1322 1.73501 38.4857 3.20504C40.8785 4.23975 42.4366 5.40275 43.9505 6.96199C44.9026 7.94253 44.39 9.62192 43.173 10.2438C42.6277 10.5224 42.0488 10.8597 41.4851 11.2612C40.683 11.8324 39.9661 12.4459 39.3864 12.9861C38.5494 13.766 37.2053 13.7457 36.3609 12.9738C33.87 10.697 31.7778 10.5092 27.7361 10.5092C24.7501 10.5092 22.0857 11.1754 19.7429 12.5076C17.4 13.7938 15.5625 15.6084 14.2302 17.9513C12.944 20.2941 12.3008 22.9585 12.3008 25.9445C12.3008 28.9305 12.944 31.595 14.2302 33.9378C15.5625 36.2807 17.4 38.1182 19.7429 39.4504C22.0857 40.7367 24.7501 41.3798 27.7361 41.3798C32.5597 41.3798 36.6022 39.4734 39.8639 35.6605L47.0302 42.2756C44.7333 45.0779 41.8851 47.214 38.4857 48.684C35.0863 50.1541 31.2963 50.8891 27.116 50.8891Z" fill="#032D60"/>
<path d="M57.8891 50.9395C53.9843 50.9395 50.47 50.1356 47.3462 48.5277C44.2684 46.874 41.8566 44.6 40.1109 41.7059C38.3653 38.8118 37.4924 35.5272 37.4924 31.8521C37.4924 28.177 38.3653 24.8924 40.1109 21.9983C41.8566 19.1042 44.2684 16.8532 47.3462 15.2454C50.47 13.5916 53.9843 12.7647 57.8891 12.7647C61.7938 12.7647 65.2851 13.5916 68.363 15.2454C71.4409 16.8532 73.8527 19.1042 75.5983 21.9983C77.344 24.8924 78.2168 28.177 78.2168 31.8521C78.2168 35.5272 77.344 38.8118 75.5983 41.7059C73.8527 44.6 71.4409 46.874 68.363 48.5277C65.2851 50.1356 61.7938 50.9395 57.8891 50.9395ZM57.8891 42.1193C60.6454 42.1193 62.8964 41.2006 64.642 39.363C66.4336 37.4796 67.3294 34.9759 67.3294 31.8521C67.3294 28.7283 66.4336 26.2476 64.642 24.4101C62.8964 22.5266 60.6454 21.5849 57.8891 21.5849C55.1328 21.5849 52.8588 22.5266 51.0672 24.4101C49.2756 26.2476 48.3798 28.7283 48.3798 31.8521C48.3798 34.9759 49.2756 37.4796 51.0672 39.363C52.8588 41.2006 55.1328 42.1193 57.8891 42.1193Z" fill="#032D60"/>
<path fill-rule="evenodd" clip-rule="evenodd" d="M13.3944 48.3763L13.3899 48.3739C9.32683 46.1533 6.1057 43.0995 3.73921 39.2185L3.73644 39.2139L3.73373 39.2093C1.40957 35.2725 0.253632 30.8444 0.253632 25.9442C0.253632 21.0442 1.40956 16.6374 3.73576 12.7446L3.73713 12.7423C6.10368 8.81386 9.32664 5.75711 13.3945 3.58099C17.5096 1.35822 22.1118 0.253418 27.1848 0.253418C31.453 0.253418 35.3235 1.0041 38.7835 2.52051C41.2715 3.59661 42.9091 4.81792 44.4858 6.44182C45.176 7.15264 45.3115 8.10114 45.0973 8.92489C44.8854 9.73982 44.3211 10.4948 43.5125 10.908C42.9931 11.1734 42.4465 11.4923 41.9178 11.8688C41.1489 12.4163 40.4576 13.0076 39.895 13.5318C38.7614 14.5881 36.9765 14.5474 35.8573 13.5243C34.6925 12.4596 33.6555 11.91 32.4507 11.6118C31.2112 11.3051 29.7643 11.2552 27.736 11.2552C24.8651 11.2552 22.3303 11.8944 20.1116 13.156L20.1068 13.1587L20.1019 13.1614C17.8828 14.3797 16.146 16.0935 14.8816 18.3149C13.6644 20.5342 13.047 23.0709 13.047 25.9442C13.047 28.8176 13.6644 31.3543 14.8817 33.5735C16.1463 35.7956 17.8846 37.534 20.1067 38.7986C22.326 40.0159 24.8627 40.6332 27.736 40.6332C31.4346 40.6332 34.6429 39.4652 37.3842 37.104C36.9582 35.4437 36.7461 33.6922 36.7461 31.8518C36.7461 28.0531 37.6499 24.6331 39.4718 21.6126C41.2897 18.5986 43.8038 16.254 46.9985 14.5847C50.2404 12.8687 53.8761 12.0181 57.889 12.0181C61.9006 12.0181 65.5144 12.8683 68.7122 14.5856C71.9061 16.2548 74.4196 18.5991 76.2372 21.6126C78.0591 24.6331 78.9629 28.0531 78.9629 31.8518C78.9629 35.6504 78.0591 39.0705 76.2372 42.091C74.42 45.1038 71.9078 47.4699 68.7161 49.1848L68.7123 49.1869L68.7084 49.1889C65.5112 50.859 61.8989 51.6854 57.889 51.6854C53.8788 51.6854 50.2454 50.859 47.0046 49.1909L46.9987 49.1879L46.9929 49.1848C45.68 48.4794 44.4821 47.6637 43.4002 46.7382C41.9882 47.7711 40.4483 48.648 38.7818 49.3687C35.2775 50.884 31.385 51.635 27.1159 51.635C22.0897 51.635 17.5123 50.5536 13.399 48.3787L13.3944 48.3763ZM42.8298 46.2301C43.0353 46.0821 43.2381 45.9306 43.4381 45.7758C43.6247 45.9463 43.8152 46.1132 44.0096 46.2765C45.0178 47.1237 46.1299 47.874 47.3461 48.5274C50.4699 50.1353 53.9842 50.9392 57.889 50.9392C61.7937 50.9392 65.285 50.1353 68.3629 48.5274C71.4408 46.8736 73.8525 44.5997 75.5982 41.7056C77.3438 38.8114 78.2167 35.5269 78.2167 31.8518C78.2167 28.1767 77.3438 24.8921 75.5982 21.998C73.8525 19.1039 71.4408 16.8529 68.3629 15.2451C65.285 13.5913 61.7937 12.7644 57.889 12.7644C53.9842 12.7644 50.4699 13.5913 47.3461 15.2451C44.2682 16.8529 41.8565 19.1039 40.1108 21.998C38.3652 24.8921 37.4923 28.1767 37.4923 31.8518C37.4923 33.4901 37.6658 35.0508 38.0127 36.5339C38.0774 36.8106 38.1482 37.0846 38.225 37.356C38.021 37.5417 37.8143 37.721 37.605 37.8938C34.7913 40.2176 31.5016 41.3795 27.736 41.3795C24.75 41.3795 22.0856 40.7364 19.7427 39.4501C17.3999 38.1179 15.5624 36.2804 14.2301 33.9375C12.9439 31.5946 12.3007 28.9302 12.3007 25.9442C12.3007 22.9582 12.9439 20.2938 14.2301 17.9509C15.5624 15.6081 17.3999 13.7935 19.7427 12.5072C22.0856 11.175 24.75 10.5089 27.736 10.5089C31.7777 10.5089 33.8699 10.6967 36.3608 12.9735C37.2052 13.7454 38.5493 13.7657 39.3863 12.9858C39.966 12.4456 40.6829 11.8321 41.4849 11.2609C42.0487 10.8594 42.6276 10.5221 43.1729 10.2435C44.3899 9.6216 44.9025 7.94222 43.9504 6.96168C42.4365 5.40244 40.8784 4.23944 38.4856 3.20473C35.1321 1.7347 31.3651 0.999687 27.1848 0.999687C22.2234 0.999687 17.7444 2.07924 13.7478 4.23834C9.79709 6.35151 6.67329 9.31453 4.37637 13.1274C2.12539 16.8944 0.9999 21.1666 0.9999 25.9442C0.9999 30.7218 2.12539 35.0171 4.37637 38.8299C6.67329 42.5969 9.79709 45.5599 13.7478 47.719C17.7444 49.8322 22.2004 50.8888 27.1159 50.8888C31.2962 50.8888 35.0862 50.1537 38.4856 48.6837C40.0505 48.007 41.4985 47.1891 42.8298 46.2301ZM64.1009 38.8487L64.1012 38.8484C65.735 37.1307 66.583 34.8251 66.583 31.8518C66.583 28.8778 65.7349 26.5998 64.1076 24.9307L64.101 24.924L64.0946 24.9171C62.5013 23.198 60.4546 22.3308 57.889 22.3308C55.3233 22.3308 53.2493 23.1984 51.6078 24.9241L51.6047 24.9274L51.6014 24.9307C49.9741 26.5998 49.126 28.8778 49.126 31.8518C49.126 34.8231 49.9728 37.1276 51.6045 38.8448C53.244 40.5248 55.3189 41.3727 57.889 41.3727C60.4606 41.3727 62.5092 40.5241 64.1009 38.8487ZM64.6419 39.3627C62.8962 41.2002 60.6453 42.119 57.889 42.119C55.1327 42.119 52.8587 41.2002 51.0671 39.3627C49.2755 37.4792 48.3797 34.9756 48.3797 31.8518C48.3797 28.728 49.2755 26.2473 51.0671 24.4098C52.8587 22.5263 55.1327 21.5846 57.889 21.5846C60.6453 21.5846 62.8962 22.5263 64.6419 24.4098C66.4335 26.2473 67.3293 28.728 67.3293 31.8518C67.3293 34.9756 66.4335 37.4792 64.6419 39.3627Z" fill="#032D60"/>
<path d="M69.6566 8.46269C69.6566 4.34116 72.9978 1 77.1193 1H92.5013C97.961 1 99.219 1.73577 103.386 3.83101C107.6 5.87863 106.956 10.9524 109.255 14.7143C111.602 18.4762 111.007 21 111.007 26C111.007 31 111.602 32.0813 109.255 35.8432C106.956 39.6051 107.6 44.2009 103.386 46.2962C99.219 48.3438 97.961 51 92.5013 51H77.1193C72.9978 51 69.6566 47.6588 69.6566 43.5373C69.6566 39.4158 73.7611 33.4552 73.7611 26.5597C73.7611 19.6642 69.6566 12.5842 69.6566 8.46269ZM90.5738 41.5C96.4133 41.5 99.4292 36.0378 101.311 32.9195C102.667 30.6719 103.006 28.0498 103.006 25.6149C103.006 23.1801 102.63 19.9753 101.311 17.9358C99.1913 14.6574 96.79 10.5 90.5738 10.5H85.0258C82.965 10.5 81.2944 12.1706 81.2944 14.2313C81.2944 16.2921 84.0223 18.5373 84.0223 26.5597C84.0223 33.8358 81.2944 35.7079 81.2944 37.7687C81.2944 39.8294 82.965 41.5 85.0258 41.5H90.5738Z" fill="url(#paint0_linear_3593_5644)"/>
<path d="M131.787 50.8924C128.149 50.8924 124.738 49.1244 122.641 46.1517L115.304 35.7526C114.557 34.6937 112.984 34.7003 112.246 35.7655L105.101 46.0746C103.01 49.0921 99.5722 50.8924 95.9009 50.8924H90.5308C89.6123 50.8924 89.0847 49.8472 89.6302 49.1082L101.366 33.2076C104.745 28.629 104.771 22.3893 101.429 17.7832L90.5423 2.77674C90.0054 2.03671 90.5341 1 91.4484 1H96.8218C100.423 1 103.805 2.73277 105.908 5.65612L112.671 15.0548C113.419 16.0952 114.97 16.0883 115.709 15.0413L122.279 5.73716C124.377 2.76654 127.787 1 131.423 1H134.599C136.127 1 137.007 2.73554 136.104 3.968L121.442 23.9892C120.961 24.6452 120.961 25.5368 121.441 26.193L137.337 47.9252C138.239 49.1578 137.358 50.8924 135.831 50.8924H131.787Z" fill="url(#paint1_linear_3593_5644)"/>
<path fill-rule="evenodd" clip-rule="evenodd" d="M13.3944 48.3763L13.3899 48.3739C9.32683 46.1533 6.1057 43.0995 3.73921 39.2185L3.73644 39.2139L3.73373 39.2093C1.40957 35.2725 0.253632 30.8444 0.253632 25.9442C0.253632 21.0442 1.40956 16.6374 3.73576 12.7446L3.73713 12.7423C6.10368 8.81386 9.32664 5.75711 13.3945 3.58099C17.5096 1.35822 22.1118 0.253418 27.1848 0.253418C31.453 0.253418 35.3235 1.0041 38.7835 2.52051C41.2715 3.59661 42.9091 4.81792 44.4858 6.44182C45.176 7.15264 45.3115 8.10114 45.0973 8.92489C44.8854 9.73982 44.3211 10.4948 43.5125 10.908C42.9931 11.1734 42.4465 11.4923 41.9178 11.8688C41.1489 12.4163 40.4576 13.0076 39.895 13.5318C38.7614 14.5881 36.9765 14.5474 35.8573 13.5243C34.6925 12.4596 33.6555 11.91 32.4507 11.6118C31.2112 11.3051 29.7643 11.2552 27.736 11.2552C24.8651 11.2552 22.3303 11.8944 20.1116 13.156L20.1068 13.1587L20.1019 13.1614C17.8828 14.3797 16.146 16.0935 14.8816 18.3149C13.6644 20.5342 13.047 23.0709 13.047 25.9442C13.047 28.8176 13.6644 31.3543 14.8817 33.5735C16.1463 35.7956 17.8846 37.534 20.1067 38.7986C22.326 40.0159 24.8627 40.6332 27.736 40.6332C31.4346 40.6332 34.6429 39.4652 37.3842 37.104C36.9582 35.4437 36.7461 33.6922 36.7461 31.8518C36.7461 28.0531 37.6499 24.6331 39.4718 21.6126C41.2897 18.5986 43.8038 16.254 46.9985 14.5847C50.2404 12.8687 53.8761 12.0181 57.889 12.0181C61.9006 12.0181 65.5144 12.8683 68.7122 14.5856C71.9061 16.2548 74.4196 18.5991 76.2372 21.6126C78.0591 24.6331 78.9629 28.0531 78.9629 31.8518C78.9629 35.6504 78.0591 39.0705 76.2372 42.091C74.42 45.1038 71.9078 47.4699 68.7161 49.1848L68.7123 49.1869L68.7084 49.1889C65.5112 50.859 61.8989 51.6854 57.889 51.6854C53.8788 51.6854 50.2454 50.859 47.0046 49.1909L46.9987 49.1879L46.9929 49.1848C45.68 48.4794 44.4821 47.6637 43.4002 46.7382C41.9882 47.7711 40.4483 48.648 38.7818 49.3687C35.2775 50.884 31.385 51.635 27.1159 51.635C22.0897 51.635 17.5123 50.5536 13.399 48.3787L13.3944 48.3763ZM42.8298 46.2301C43.0353 46.0821 43.2381 45.9306 43.4381 45.7758C43.6247 45.9463 43.8152 46.1132 44.0096 46.2765C45.0178 47.1237 46.1299 47.874 47.3461 48.5274C50.4699 50.1353 53.9842 50.9392 57.889 50.9392C61.7937 50.9392 65.285 50.1353 68.3629 48.5274C71.4408 46.8736 73.8525 44.5997 75.5982 41.7056C77.3438 38.8114 78.2167 35.5269 78.2167 31.8518C78.2167 28.1767 77.3438 24.8921 75.5982 21.998C73.8525 19.1039 71.4408 16.8529 68.3629 15.2451C65.285 13.5913 61.7937 12.7644 57.889 12.7644C53.9842 12.7644 50.4699 13.5913 47.3461 15.2451C44.2682 16.8529 41.8565 19.1039 40.1108 21.998C38.3652 24.8921 37.4923 28.1767 37.4923 31.8518C37.4923 33.4901 37.6658 35.0508 38.0127 36.5339C38.0774 36.8106 38.1482 37.0846 38.225 37.356C38.021 37.5417 37.8143 37.721 37.605 37.8938C34.7913 40.2176 31.5016 41.3795 27.736 41.3795C24.75 41.3795 22.0856 40.7364 19.7427 39.4501C17.3999 38.1179 15.5624 36.2804 14.2301 33.9375C12.9439 31.5946 12.3007 28.9302 12.3007 25.9442C12.3007 22.9582 12.9439 20.2938 14.2301 17.9509C15.5624 15.6081 17.3999 13.7935 19.7427 12.5072C22.0856 11.175 24.75 10.5089 27.736 10.5089C31.7777 10.5089 33.8699 10.6967 36.3608 12.9735C37.2052 13.7454 38.5493 13.7657 39.3863 12.9858C39.966 12.4456 40.6829 11.8321 41.4849 11.2609C42.0487 10.8594 42.6276 10.5221 43.1729 10.2435C44.3899 9.6216 44.9025 7.94222 43.9504 6.96168C42.4365 5.40244 40.8784 4.23944 38.4856 3.20473C35.1321 1.7347 31.3651 0.999687 27.1848 0.999687C22.2234 0.999687 17.7444 2.07924 13.7478 4.23834C9.79709 6.35151 6.67329 9.31453 4.37637 13.1274C2.12539 16.8944 0.9999 21.1666 0.9999 25.9442C0.9999 30.7218 2.12539 35.0171 4.37637 38.8299C6.67329 42.5969 9.79709 45.5599 13.7478 47.719C17.7444 49.8322 22.2004 50.8888 27.1159 50.8888C31.2962 50.8888 35.0862 50.1537 38.4856 48.6837C40.0505 48.007 41.4985 47.1891 42.8298 46.2301ZM64.1009 38.8487L64.1012 38.8484C65.735 37.1307 66.583 34.8251 66.583 31.8518C66.583 28.8778 65.7349 26.5998 64.1076 24.9307L64.101 24.924L64.0946 24.9171C62.5013 23.198 60.4546 22.3308 57.889 22.3308C55.3233 22.3308 53.2493 23.1984 51.6078 24.9241L51.6047 24.9274L51.6014 24.9307C49.9741 26.5998 49.126 28.8778 49.126 31.8518C49.126 34.8231 49.9728 37.1276 51.6045 38.8448C53.244 40.5248 55.3189 41.3727 57.889 41.3727C60.4606 41.3727 62.5092 40.5241 64.1009 38.8487ZM64.6419 39.3627C62.8962 41.2002 60.6453 42.119 57.889 42.119C55.1327 42.119 52.8587 41.2002 51.0671 39.3627C49.2755 37.4792 48.3797 34.9756 48.3797 31.8518C48.3797 28.728 49.2755 26.2473 51.0671 24.4098C52.8587 22.5263 55.1327 21.5846 57.889 21.5846C60.6453 21.5846 62.8962 22.5263 64.6419 24.4098C66.4335 26.2473 67.3293 28.728 67.3293 31.8518C67.3293 34.9756 66.4335 37.4792 64.6419 39.3627Z" fill="#032D60"/>
<path d="M58.1394 25.069H57.9054V23.3378L57.4363 23.5302V23.2943L58.1029 23.0149H58.1394V25.069Z" fill="#032D60"/>
<path d="M59.8696 24.4815C59.8164 24.7799 59.7313 24.9915 59.6141 25.1162C59.497 25.241 59.3414 25.2819 59.1473 25.2388C58.9557 25.1962 58.8264 25.094 58.7595 24.9322C58.6927 24.7694 58.6828 24.5468 58.7297 24.2642L58.7904 23.9241C58.8429 23.6294 58.9275 23.4206 59.0443 23.2976C59.1611 23.1747 59.317 23.1349 59.5119 23.1781C59.7052 23.221 59.8351 23.322 59.9017 23.4808C59.9684 23.6388 59.9774 23.8622 59.9285 24.151L59.8696 24.4815ZM59.7034 24.0825C59.7419 23.8667 59.7427 23.7037 59.7059 23.5934C59.6693 23.4822 59.5922 23.4136 59.4746 23.3874C59.3578 23.3615 59.264 23.3917 59.193 23.4781C59.122 23.5645 59.0676 23.7094 59.0296 23.9128L58.957 24.3204C58.9184 24.5371 58.9178 24.7035 58.9552 24.8196C58.9937 24.935 59.07 25.0054 59.1843 25.0308C59.297 25.0558 59.3891 25.0257 59.4608 24.9405C59.5332 24.8554 59.5893 24.7085 59.6291 24.4997L59.7034 24.0825Z" fill="#032D60"/>
<path d="M60.4872 25.6954L60.2711 25.5955L60.8646 23.9961L60.3652 23.9734L60.446 23.7554L61.1577 23.7821L61.1914 23.7976L60.4872 25.6954Z" fill="#032D60"/>
<path d="M62.2871 25.8917C62.1357 26.1447 61.9845 26.3038 61.8335 26.369C61.6825 26.4343 61.5247 26.4055 61.3602 26.2828C61.1977 26.1616 61.1133 26.012 61.107 25.8339C61.1011 25.655 61.1683 25.4451 61.3085 25.2041L61.4811 24.9157C61.6307 24.6659 61.7805 24.5091 61.9305 24.4454C62.0806 24.3818 62.2383 24.4115 62.4035 24.5348C62.5673 24.657 62.6528 24.8057 62.6598 24.981C62.6673 25.1554 62.599 25.3656 62.4548 25.6116L62.2871 25.8917ZM62.2704 25.4521C62.3799 25.2692 62.4365 25.1189 62.4404 25.0013C62.4447 24.883 62.397 24.7866 62.2973 24.7122C62.1983 24.6384 62.1012 24.6262 62.006 24.6757C61.9109 24.7252 61.8109 24.8358 61.7061 25.0075L61.4992 25.353C61.3893 25.5367 61.3317 25.6902 61.3264 25.8135C61.3224 25.9366 61.3688 26.0342 61.4657 26.1065C61.5612 26.1778 61.6567 26.1893 61.7521 26.1411C61.8482 26.0935 61.9504 25.9817 62.0587 25.8058L62.2704 25.4521Z" fill="#032D60"/>
<path d="M62.4416 27.2771L62.2762 27.0924L63.3728 25.8683L62.9192 25.634L63.0686 25.4672L63.717 25.7958L63.7428 25.8246L62.4416 27.2771Z" fill="#032D60"/>
<path d="M64.0371 28.2273C63.8106 28.3964 63.6163 28.4787 63.4545 28.4745C63.2926 28.4703 63.1567 28.3764 63.0467 28.1927C62.9382 28.0113 62.9115 27.837 62.9667 27.6698C63.0226 27.502 63.1566 27.3368 63.3688 27.174L63.6271 26.9813C63.8509 26.8144 64.0431 26.7336 64.2035 26.7388C64.364 26.7441 64.4995 26.839 64.6099 27.0234C64.7193 27.2063 64.7473 27.3802 64.6937 27.5451C64.6409 27.7095 64.5057 27.8745 64.2881 28.0401L64.0371 28.2273ZM64.1725 27.814C64.3363 27.6918 64.4402 27.5772 64.484 27.4702C64.5286 27.3627 64.5175 27.2533 64.4509 27.142C64.3848 27.0315 64.2992 26.9787 64.1944 26.9838C64.0895 26.9888 63.9592 27.0483 63.8035 27.1622L63.4939 27.3931C63.3294 27.5158 63.2235 27.633 63.1764 27.7447C63.1305 27.8566 63.1399 27.9667 63.2047 28.0749C63.2685 28.1815 63.3527 28.2329 63.4574 28.2292C63.5625 28.2262 63.6952 28.1666 63.8556 28.0504L64.1725 27.814Z" fill="#032D60"/>
<path d="M63.705 29.5732L63.6154 29.3319L65.0482 28.6694L64.7095 28.2592L64.9047 28.1689L65.3911 28.7495L65.405 28.7871L63.705 29.5732Z" fill="#032D60"/>
<path d="M64.8533 31.1327C64.586 31.1921 64.3783 31.1852 64.2302 31.1122C64.0821 31.0391 63.9888 30.8943 63.9502 30.6776C63.912 30.4637 63.9472 30.2913 64.0555 30.1604C64.1646 30.0292 64.3451 29.9338 64.5969 29.8741L64.9017 29.8064C65.1656 29.7478 65.3709 29.7552 65.5173 29.8286C65.6638 29.902 65.7564 30.0475 65.7952 30.2651C65.8336 30.4808 65.7998 30.6534 65.6938 30.7829C65.5886 30.9122 65.4071 31.0069 65.1494 31.067L64.8533 31.1327ZM65.12 30.8087C65.3133 30.7658 65.4485 30.7043 65.5257 30.6241C65.6037 30.5438 65.631 30.438 65.6076 30.3067C65.5844 30.1764 65.5235 30.0911 65.4249 30.051C65.3262 30.0109 65.1855 30.0101 65.0026 30.0488L64.6374 30.1299C64.4433 30.173 64.3054 30.2361 64.2236 30.3192C64.1427 30.403 64.1137 30.5087 64.1364 30.6363C64.1589 30.762 64.219 30.8455 64.317 30.8868C64.4151 30.9289 64.5582 30.9306 64.7462 30.8917L65.12 30.8087Z" fill="#032D60"/>
<path d="M64.085 32.2343V31.9731H65.6358L65.4635 31.4494H65.6748L65.9251 32.1935V32.2343H64.085Z" fill="#032D60"/>
<path d="M64.6113 34.1656C64.344 34.1063 64.1545 34.0112 64.0427 33.8805C63.9309 33.7497 63.8943 33.576 63.9329 33.3594C63.971 33.1455 64.0626 33.0012 64.2076 32.9265C64.3534 32.8519 64.5528 32.8409 64.8059 32.8933L65.1107 32.9609C65.3746 33.0195 65.5617 33.114 65.6718 33.2444C65.782 33.3748 65.8177 33.5488 65.7789 33.7664C65.7405 33.9821 65.6501 34.1271 65.5077 34.2015C65.3662 34.276 65.1661 34.2859 64.9074 34.2314L64.6113 34.1656ZM64.9688 33.9802C65.162 34.0231 65.3081 34.024 65.4069 33.983C65.5065 33.9421 65.568 33.856 65.5914 33.7247C65.6146 33.5944 65.5876 33.4896 65.5102 33.4104C65.4328 33.3312 65.303 33.2704 65.1208 33.228L64.7556 33.1469C64.5615 33.1038 64.4125 33.1032 64.3084 33.145C64.205 33.1879 64.1419 33.2731 64.1192 33.4007C64.0968 33.5265 64.1238 33.6293 64.2001 33.7093C64.2764 33.7902 64.408 33.8528 64.595 33.8972L64.9688 33.9802Z" fill="#032D60"/>
<path d="M63.5239 34.8551L63.6134 34.6138L65.0462 35.2763L65.0665 34.7189L65.2617 34.8091L65.2379 35.6036L65.2239 35.6412L63.5239 34.8551Z" fill="#032D60"/>
<path d="M63.348 36.8643C63.1214 36.6953 62.9788 36.5265 62.9204 36.3579C62.862 36.1894 62.8877 36.0133 62.9976 35.8296C63.1062 35.6482 63.2402 35.554 63.3998 35.547C63.56 35.5404 63.7481 35.6154 63.964 35.7719L64.2223 35.9646C64.4461 36.1315 64.5865 36.2987 64.6436 36.4662C64.7007 36.6338 64.674 36.8097 64.5636 36.9942C64.4541 37.1771 64.3209 37.2725 64.1639 37.2803C64.0076 37.2887 63.8193 37.2124 63.599 37.0515L63.348 36.8643ZM63.7418 36.8456C63.9057 36.9679 64.0403 37.0311 64.1456 37.0354C64.2517 37.0402 64.338 36.9869 64.4046 36.8756C64.4708 36.7651 64.4817 36.6567 64.4374 36.5505C64.393 36.4443 64.2939 36.3327 64.1401 36.2157L63.8305 35.9848C63.666 35.862 63.5285 35.7978 63.418 35.7919C63.3078 35.7874 63.2203 35.8392 63.1556 35.9474C63.0917 36.054 63.0814 36.1606 63.1246 36.267C63.1673 36.3743 63.2674 36.4884 63.4249 36.6093L63.7418 36.8456Z" fill="#032D60"/>
<path d="M62.1069 37.0367L62.2724 36.8521L63.369 38.0762L63.5789 37.5699L63.7283 37.7366L63.4339 38.4604L63.4081 38.4892L62.1069 37.0367Z" fill="#032D60"/>
<path d="M61.2556 38.8178C61.1042 38.5649 61.0304 38.3481 61.0342 38.1674C61.038 37.9867 61.1222 37.835 61.2867 37.7122C61.4492 37.5911 61.6053 37.5613 61.7551 37.6229C61.9054 37.6853 62.0535 37.8349 62.1993 38.0718L62.3719 38.3601C62.5214 38.6099 62.5938 38.8244 62.5891 39.0036C62.5844 39.1827 62.4994 39.3339 62.3342 39.4571C62.1703 39.5793 62.0146 39.6105 61.8668 39.5507C61.7195 39.4917 61.5717 39.3408 61.4234 39.098L61.2556 38.8178ZM61.6259 38.9689C61.7354 39.1518 61.8381 39.2677 61.9339 39.3166C62.0303 39.3664 62.1283 39.354 62.228 39.2797C62.327 39.2058 62.3742 39.1104 62.3697 38.9933C62.3652 38.8762 62.3119 38.7308 62.2098 38.557L62.003 38.2114C61.8931 38.0277 61.7881 37.9096 61.688 37.857C61.5877 37.8057 61.4891 37.8162 61.3922 37.8885C61.2967 37.9598 61.2506 38.0538 61.254 38.1706C61.2567 38.288 61.3101 38.4361 61.4142 38.6151L61.6259 38.9689Z" fill="#032D60"/>
<path d="M60.05 38.447L60.2661 38.3471L60.8596 39.9465L61.2271 39.5683L61.308 39.7863L60.7879 40.3292L60.7542 40.3447L60.05 38.447Z" fill="#032D60"/>
<path d="M58.6529 39.7289C58.5997 39.4305 58.6059 39.1987 58.6713 39.0333C58.7368 38.868 58.8665 38.7638 59.0606 38.7207C59.2522 38.6782 59.4067 38.7174 59.524 38.8383C59.6415 38.9601 59.7269 39.1616 59.7805 39.4427L59.8411 39.7828C59.8936 40.0775 59.8869 40.3066 59.8212 40.4701C59.7554 40.6336 59.6251 40.737 59.4302 40.7802C59.2369 40.8232 59.0823 40.7854 58.9663 40.6671C58.8505 40.5496 58.7656 40.3471 58.7118 40.0594L58.6529 39.7289ZM58.9432 40.0266C58.9816 40.2423 59.0368 40.3933 59.1085 40.4795C59.1805 40.5666 59.2753 40.597 59.3929 40.5709C59.5096 40.545 59.586 40.477 59.622 40.3669C59.6579 40.2568 59.6586 40.0996 59.6239 39.8955L59.5513 39.4879C59.5126 39.2712 59.4561 39.1172 59.3817 39.0259C59.3067 38.9357 59.212 38.9033 59.0977 38.9286C58.985 38.9537 58.9102 39.0209 58.8732 39.1302C58.8355 39.2398 58.834 39.3995 58.8688 39.6093L58.9432 40.0266Z" fill="#032D60"/>
<path d="M57.6661 38.8712H57.9001V40.6024L58.3692 40.4101V40.6459L57.7026 40.9253H57.6661V38.8712Z" fill="#032D60"/>
<path d="M55.9359 39.4587C55.9891 39.1603 56.0743 38.9488 56.1914 38.824C56.3085 38.6992 56.4641 38.6584 56.6582 38.7015C56.8498 38.744 56.9791 38.8462 57.046 39.008C57.1128 39.1708 57.1227 39.3934 57.0758 39.676L57.0152 40.0161C56.9626 40.3108 56.878 40.5196 56.7612 40.6426C56.6444 40.7655 56.4885 40.8054 56.2936 40.7621C56.1003 40.7192 55.9704 40.6183 55.9038 40.4594C55.8371 40.3014 55.8282 40.078 55.8771 39.7892L55.9359 39.4587ZM56.1021 39.8578C56.0636 40.0735 56.0628 40.2365 56.0996 40.3468C56.1362 40.458 56.2133 40.5267 56.3309 40.5528C56.4477 40.5787 56.5416 40.5485 56.6125 40.4621C56.6835 40.3758 56.7379 40.2309 56.7759 40.0274L56.8485 39.6198C56.8871 39.4032 56.8877 39.2368 56.8503 39.1206C56.8119 39.0052 56.7355 38.9348 56.6212 38.9094C56.5085 38.8844 56.4164 38.9145 56.3447 38.9998C56.2723 39.0848 56.2162 39.2318 56.1764 39.4405L56.1021 39.8578Z" fill="#032D60"/>
<path d="M55.3183 38.2448L55.5344 38.3448L54.9409 39.9442L55.4403 39.9669L55.3595 40.1848L54.6478 40.1582L54.6141 40.1426L55.3183 38.2448Z" fill="#032D60"/>
<path d="M53.5184 38.0485C53.6698 37.7955 53.821 37.6365 53.972 37.5712C54.123 37.506 54.2808 37.5347 54.4453 37.6574C54.6078 37.7786 54.6922 37.9282 54.6985 38.1063C54.7044 38.2852 54.6372 38.4951 54.497 38.7362L54.3244 39.0245C54.1748 39.2743 54.025 39.4311 53.875 39.4948C53.7249 39.5585 53.5673 39.5287 53.402 39.4054C53.2382 39.2832 53.1527 39.1345 53.1457 38.9593C53.1382 38.7848 53.2065 38.5746 53.3507 38.3287L53.5184 38.0485ZM53.5351 38.4881C53.4256 38.671 53.369 38.8213 53.3651 38.9389C53.3608 39.0573 53.4085 39.1536 53.5082 39.228C53.6072 39.3018 53.7043 39.314 53.7995 39.2646C53.8947 39.2151 53.9946 39.1045 54.0995 38.9327L54.3063 38.5872C54.4162 38.4035 54.4738 38.25 54.4791 38.1267C54.4831 38.0037 54.4367 37.906 54.3398 37.8337C54.2443 37.7625 54.1488 37.7509 54.0534 37.7991C53.9573 37.8468 53.8551 37.9585 53.7468 38.1344L53.5351 38.4881Z" fill="#032D60"/>
<path d="M53.3639 36.6632L53.5293 36.8478L52.4327 38.072L52.8863 38.3063L52.7369 38.473L52.0885 38.1444L52.0627 38.1156L53.3639 36.6632Z" fill="#032D60"/>
<path d="M51.7684 35.7129C51.995 35.5439 52.1892 35.4615 52.3511 35.4657C52.5129 35.4699 52.6488 35.5639 52.7588 35.7475C52.8673 35.9289 52.894 36.1032 52.8388 36.2704C52.7829 36.4382 52.6489 36.6035 52.4367 36.7662L52.1784 36.9589C51.9546 37.1258 51.7624 37.2067 51.602 37.2014C51.4415 37.1961 51.306 37.1013 51.1956 36.9168C51.0862 36.7339 51.0582 36.56 51.1118 36.3951C51.1646 36.2307 51.2998 36.0657 51.5174 35.9001L51.7684 35.7129ZM51.633 36.1262C51.4692 36.2484 51.3654 36.363 51.3215 36.47C51.277 36.5776 51.288 36.687 51.3546 36.7983C51.4208 36.9088 51.5063 36.9615 51.6112 36.9564C51.716 36.9514 51.8463 36.8919 52.002 36.778L52.3116 36.5471C52.4761 36.4244 52.582 36.3072 52.6291 36.1955C52.675 36.0836 52.6656 35.9735 52.6009 35.8653C52.537 35.7587 52.4528 35.7073 52.3481 35.711C52.243 35.714 52.1103 35.7736 51.9499 35.8898L51.633 36.1262Z" fill="#032D60"/>
<path d="M52.1006 34.367L52.1901 34.6083L50.7573 35.2708L51.096 35.681L50.9008 35.7713L50.4144 35.1907L50.4005 35.1531L52.1006 34.367Z" fill="#032D60"/>
<path d="M50.9522 32.8075C51.2195 32.7481 51.4272 32.755 51.5753 32.828C51.7234 32.9011 51.8167 33.0459 51.8553 33.2626C51.8935 33.4765 51.8584 33.6489 51.75 33.7799C51.6409 33.911 51.4604 34.0064 51.2086 34.0662L50.9039 34.1338C50.6399 34.1924 50.4346 34.185 50.2882 34.1116C50.1417 34.0382 50.0491 33.8927 50.0104 33.6751C49.9719 33.4594 50.0057 33.2868 50.1117 33.1573C50.2169 33.028 50.3984 32.9333 50.6561 32.8732L50.9522 32.8075ZM50.6855 33.1315C50.4922 33.1745 50.357 33.236 50.2798 33.3161C50.2018 33.3964 50.1745 33.5022 50.1979 33.6335C50.2211 33.7639 50.282 33.8491 50.3807 33.8892C50.4793 33.9294 50.62 33.9301 50.8029 33.8914L51.1681 33.8103C51.3622 33.7672 51.5001 33.7041 51.5819 33.6211C51.6628 33.5373 51.6918 33.4316 51.6691 33.304C51.6467 33.1782 51.5865 33.0947 51.4885 33.0535C51.3904 33.0113 51.2473 33.0097 51.0593 33.0485L50.6855 33.1315Z" fill="#032D60"/>
<path d="M51.7205 31.706V31.9671H50.1697L50.342 32.4908H50.1307L49.8804 31.7467V31.706H51.7205Z" fill="#032D60"/>
<path d="M51.1942 29.7746C51.4615 29.8339 51.651 29.929 51.7628 30.0598C51.8746 30.1905 51.9112 30.3642 51.8726 30.5809C51.8345 30.7948 51.7429 30.9391 51.598 31.0138C51.4522 31.0883 51.2527 31.0994 50.9996 31.047L50.6949 30.9793C50.4309 30.9207 50.2438 30.8262 50.1337 30.6958C50.0235 30.5654 49.9878 30.3914 50.0266 30.1739C50.0651 29.9581 50.1554 29.8131 50.2978 29.7388C50.4393 29.6642 50.6394 29.6543 50.8982 29.7089L51.1942 29.7746ZM50.8367 29.9601C50.6435 29.9171 50.4974 29.9162 50.3986 29.9573C50.299 29.9981 50.2375 30.0842 50.2141 30.2155C50.1909 30.3458 50.218 30.4506 50.2953 30.5298C50.3727 30.6091 50.5025 30.6699 50.6847 30.7122L51.0499 30.7933C51.244 30.8364 51.3931 30.8371 51.4971 30.7953C51.6005 30.7524 51.6636 30.6671 51.6863 30.5395C51.7087 30.4137 51.6817 30.3109 51.6054 30.2309C51.5291 30.1501 51.3975 30.0874 51.2105 30.0431L50.8367 29.9601Z" fill="#032D60"/>
<path d="M52.2817 29.0851L52.1921 29.3264L50.7593 28.6639L50.739 29.2214L50.5438 29.1311L50.5676 28.3367L50.5816 28.2991L52.2817 29.0851Z" fill="#032D60"/>
<path d="M52.4575 27.076C52.6841 27.245 52.8267 27.4138 52.8851 27.5823C52.9436 27.7509 52.9178 27.927 52.8079 28.1106C52.6993 28.292 52.5653 28.3862 52.4057 28.3933C52.2455 28.3998 52.0574 28.3249 51.8415 28.1683L51.5832 27.9756C51.3594 27.8087 51.219 27.6415 51.1619 27.474C51.1049 27.3065 51.1315 27.1305 51.2419 26.946C51.3514 26.7631 51.4847 26.6678 51.6416 26.6599C51.7979 26.6515 51.9862 26.7278 52.2066 26.8888L52.4575 27.076ZM52.0637 27.0946C51.8998 26.9724 51.7652 26.9091 51.6599 26.9049C51.5539 26.9001 51.4675 26.9533 51.4009 27.0646C51.3348 27.1751 51.3238 27.2835 51.3682 27.3897C51.4125 27.496 51.5116 27.6076 51.6654 27.7246L51.975 27.9555C52.1395 28.0782 52.277 28.1425 52.3875 28.1483C52.4977 28.1529 52.5852 28.101 52.6499 27.9929C52.7138 27.8862 52.7241 27.7797 52.6809 27.6732C52.6383 27.5659 52.5381 27.4518 52.3806 27.3309L52.0637 27.0946Z" fill="#032D60"/>
<path d="M53.6986 26.9035L53.5331 27.0882L52.4365 25.864L52.2266 26.3704L52.0772 26.2036L52.3716 25.4798L52.3974 25.451L53.6986 26.9035Z" fill="#032D60"/>
<path d="M54.5499 25.1224C54.7013 25.3754 54.7751 25.5922 54.7713 25.7729C54.7675 25.9536 54.6833 26.1053 54.5188 26.228C54.3564 26.3492 54.2002 26.3789 54.0504 26.3173C53.9001 26.2549 53.752 26.1053 53.6062 25.8685L53.4336 25.5801C53.2841 25.3303 53.2117 25.1158 53.2164 24.9367C53.2211 24.7575 53.3061 24.6063 53.4713 24.4831C53.6352 24.3609 53.791 24.3297 53.9387 24.3895C54.086 24.4485 54.2338 24.5994 54.3822 24.8422L54.5499 25.1224ZM54.1796 24.9714C54.0701 24.7885 53.9674 24.6726 53.8716 24.6236C53.7753 24.5739 53.6772 24.5862 53.5775 24.6605C53.4785 24.7344 53.4313 24.8298 53.4358 24.9469C53.4404 25.064 53.4936 25.2095 53.5957 25.3833L53.8025 25.7288C53.9124 25.9125 54.0174 26.0306 54.1175 26.0832C54.2178 26.1345 54.3164 26.124 54.4133 26.0517C54.5088 25.9805 54.5549 25.8864 54.5515 25.7696C54.5488 25.6523 54.4954 25.5041 54.3913 25.3251L54.1796 24.9714Z" fill="#032D60"/>
<path d="M55.7555 25.4932L55.5394 25.5932L54.9459 23.9938L54.5784 24.3719L54.4975 24.154L55.0176 23.6111L55.0513 23.5955L55.7555 25.4932Z" fill="#032D60"/>
<path d="M57.1526 24.2114C57.2058 24.5097 57.1996 24.7416 57.1342 24.9069C57.0688 25.0722 56.939 25.1764 56.7449 25.2195C56.5533 25.2621 56.3988 25.2229 56.2815 25.1019C56.1641 24.9801 56.0786 24.7786 56.0251 24.4975L55.9644 24.1574C55.9119 23.8627 55.9186 23.6336 55.9843 23.4701C56.0501 23.3066 56.1804 23.2033 56.3753 23.16C56.5686 23.1171 56.7232 23.1548 56.8392 23.2731C56.9551 23.3906 57.0399 23.5932 57.0937 23.8809L57.1526 24.2114ZM56.8623 23.9136C56.8239 23.6979 56.7688 23.547 56.697 23.4608C56.625 23.3737 56.5302 23.3432 56.4126 23.3693C56.2959 23.3952 56.2195 23.4632 56.1835 23.5733C56.1476 23.6834 56.1469 23.8406 56.1816 24.0447L56.2543 24.4524C56.2929 24.669 56.3494 24.823 56.4238 24.9143C56.4988 25.0045 56.5935 25.037 56.7079 25.0116C56.8205 24.9866 56.8953 24.9194 56.9323 24.81C56.97 24.7005 56.9715 24.5408 56.9367 24.3309L56.8623 23.9136Z" fill="#032D60"/>
<defs>
<linearGradient id="paint0_linear_3593_5644" x1="103.678" y1="1" x2="103.678" y2="51" gradientUnits="userSpaceOnUse">
<stop stop-color="#F4B941"/>
<stop offset="1" stop-color="#EA496F"/>
</linearGradient>
<linearGradient id="paint1_linear_3593_5644" x1="103.678" y1="1" x2="103.678" y2="51" gradientUnits="userSpaceOnUse">
<stop stop-color="#F4B941"/>
<stop offset="1" stop-color="#EA496F"/>
</linearGradient>
</defs>
</svg>
