<svg width="33" height="32" viewBox="0 0 33 32" fill="none" xmlns="http://www.w3.org/2000/svg">
<path d="M27.6097 18.877L25.5124 17.6659C25.7241 16.5237 25.7241 15.352 25.5124 14.2098L27.6097 12.9988C27.8509 12.8609 27.9592 12.5754 27.8804 12.3095C27.334 10.5569 26.4035 8.97165 25.1875 7.65225C25.0004 7.4504 24.6952 7.40117 24.4589 7.53902L22.3616 8.75011C21.4804 7.99195 20.4662 7.40609 19.3684 7.02209V4.60484C19.3684 4.32914 19.1763 4.08791 18.9056 4.02883C17.0988 3.62514 15.2477 3.64483 13.5295 4.02883C13.2588 4.08791 13.0668 4.32914 13.0668 4.60484V7.02701C11.9738 7.41594 10.9597 8.00179 10.0735 8.75503L7.98117 7.54394C7.73994 7.40609 7.43963 7.4504 7.25255 7.65717C6.03654 8.97165 5.10607 10.5569 4.5596 12.3144C4.47591 12.5803 4.58914 12.8658 4.83038 13.0037L6.92763 14.2148C6.71593 15.3569 6.71593 16.5286 6.92763 17.6708L4.83038 18.8819C4.58914 19.0197 4.48084 19.3053 4.5596 19.5711C5.10607 21.3238 6.03654 22.909 7.25255 24.2284C7.43963 24.4303 7.74486 24.4795 7.98117 24.3416L10.0784 23.1305C10.9597 23.8887 11.9738 24.4746 13.0717 24.8586V27.2807C13.0717 27.5564 13.2637 27.7977 13.5345 27.8567C15.3412 28.2604 17.1923 28.2408 18.9105 27.8567C19.1813 27.7977 19.3733 27.5564 19.3733 27.2807V24.8586C20.4662 24.4696 21.4804 23.8838 22.3665 23.1305L24.4638 24.3416C24.705 24.4795 25.0053 24.4352 25.1924 24.2284C26.4084 22.9139 27.3389 21.3287 27.8853 19.5711C27.9592 19.3004 27.8509 19.0148 27.6097 18.877ZM16.2176 19.8764C14.0465 19.8764 12.2791 18.109 12.2791 15.9379C12.2791 13.7668 14.0465 11.9994 16.2176 11.9994C18.3886 11.9994 20.156 13.7668 20.156 15.9379C20.156 18.109 18.3886 19.8764 16.2176 19.8764Z" fill="white"/>
</svg>
