<svg width="30" height="31" viewBox="0 0 30 31" fill="none" xmlns="http://www.w3.org/2000/svg">
<g clip-path="url(#clip0_12470_26877)">
<path d="M26.456 5.20715H23.9106V2.73096H21.3651V8.92143H18.8197V5.20715H11.1832V2.73096H8.63783V8.92143H6.09238V5.20715H3.54693C2.1431 5.20715 1.00146 6.31896 1.00146 7.68334V26.2547C1.00146 27.6204 2.1431 28.731 3.54693 28.731H26.456C27.8598 28.731 29.0015 27.6204 29.0015 26.2547V7.68334C29.0015 6.31896 27.8598 5.20715 26.456 5.20715ZM9.91061 25.0167H4.81965V20.0643H9.91061V25.0167ZM9.91061 17.5881H4.81965V12.6357H9.91061V17.5881ZM17.5469 25.0167H12.456V20.0643H17.5469V25.0167ZM17.5469 17.5881H12.456V12.6357H17.5469V17.5881ZM25.1833 17.5881H20.0924V12.6357H25.1833V17.5881Z" fill="#0A77DB"/>
</g>
<defs>
<clipPath id="clip0_12470_26877">
<rect width="30" height="30" fill="white" transform="translate(-0.000976562 0.230957)"/>
</clipPath>
</defs>
</svg>
