<svg width="30" height="31" viewBox="0 0 30 31" fill="none" xmlns="http://www.w3.org/2000/svg">
<g clip-path="url(#clip0_12470_26882)">
<path d="M21.8009 27.0004C23.521 27.0004 24.9154 25.6412 24.9154 23.9645C24.9154 22.2879 23.521 20.9287 21.8009 20.9287C20.0809 20.9287 18.6865 22.2879 18.6865 23.9645C18.6865 25.6412 20.0809 27.0004 21.8009 27.0004Z" fill="#0A77DB" fill-opacity="0.5"/>
<path d="M7.78534 27.0004C9.5054 27.0004 10.8998 25.6412 10.8998 23.9645C10.8998 22.2879 9.5054 20.9287 7.78534 20.9287C6.06528 20.9287 4.6709 22.2879 4.6709 23.9645C4.6709 25.6412 6.06528 27.0004 7.78534 27.0004Z" fill="#0A77DB" fill-opacity="0.5"/>
<path d="M26.4126 9.14146C24.4583 6.16329 21.048 4.23096 17.2297 4.23096C17.2125 4.23096 17.1969 4.234 17.1798 4.234C17.1627 4.234 17.1456 4.23096 17.1284 4.23096C10.8668 4.23096 5.69845 8.74073 4.81862 14.6061L4.67068 14.8565H3.11346C1.39429 14.8565 -0.000976562 16.2166 -0.000976562 17.8924V22.4462C-0.000976562 23.2841 0.696658 23.9641 1.55624 23.9641H3.11346C3.11346 21.4504 5.20637 19.4103 7.78513 19.4103C10.3639 19.4103 12.4568 21.4504 12.4568 23.9641H17.1284C17.1284 21.4504 19.2213 19.4103 21.8001 19.4103C24.3789 19.4103 26.4718 21.4504 26.4718 23.9641H28.029C28.8886 23.9641 29.5862 23.2841 29.5862 22.4462V17.8924C29.5846 14.7882 28.3794 11.6385 26.4126 9.14146ZM7.92372 14.8565C8.66807 10.5501 12.4988 7.26682 17.1269 7.26682C21.7549 7.26682 25.5873 10.5501 26.3301 14.8565H7.92372Z" fill="#0A77DB"/>
</g>
<defs>
<clipPath id="clip0_12470_26882">
<rect width="30" height="30" fill="white" transform="translate(-0.000976562 0.230957)"/>
</clipPath>
</defs>
</svg>
