<svg width="30" height="31" viewBox="0 0 30 31" fill="none" xmlns="http://www.w3.org/2000/svg">
<g clip-path="url(#clip0_12473_26953)">
<path d="M28.9574 10.6475H6.79069C6.23827 10.6475 5.77802 11.0325 5.65727 11.5481L2.15611 26.72C2.13627 26.804 2.12402 26.891 2.12402 26.9808C2.12402 27.6248 2.64669 28.1475 3.29069 28.1475H8.90994C14.0002 28.1475 8.90994 28.1475 14.0002 28.1475C19.8381 28.1475 14.0002 28.1475 19.8381 28.1475H25.4574C26.0098 28.1475 26.47 27.7625 26.5908 27.2468L30.0919 12.0749C30.1118 11.9909 30.124 11.904 30.124 11.8141C30.124 11.1701 29.6014 10.6475 28.9574 10.6475Z" fill="#0A77DB"/>
<g clip-path="url(#clip1_12473_26953)">
<path d="M19.3581 24.3313C20.1035 24.3313 20.7077 23.7423 20.7077 23.0157C20.7077 22.2892 20.1035 21.7002 19.3581 21.7002C18.6128 21.7002 18.0085 22.2892 18.0085 23.0157C18.0085 23.7423 18.6128 24.3313 19.3581 24.3313Z" fill="white" fill-opacity="0.9"/>
<path d="M13.2847 24.3313C14.0301 24.3313 14.6343 23.7423 14.6343 23.0157C14.6343 22.2892 14.0301 21.7002 13.2847 21.7002C12.5394 21.7002 11.9351 22.2892 11.9351 23.0157C11.9351 23.7423 12.5394 24.3313 13.2847 24.3313Z" fill="white" fill-opacity="0.9"/>
<path d="M21.3565 16.5922C20.5097 15.3017 19.0319 14.4644 17.3773 14.4644C17.3698 14.4644 17.3631 14.4657 17.3557 14.4657C17.3482 14.4657 17.3408 14.4644 17.3334 14.4644C14.62 14.4644 12.3804 16.4186 11.9991 18.9602L11.935 19.0687H11.2602C10.5153 19.0687 9.91064 19.6581 9.91064 20.3843V22.3576C9.91064 22.7207 10.213 23.0154 10.5854 23.0154H11.2602C11.2602 21.9261 12.1672 21.0421 13.2846 21.0421C14.4021 21.0421 15.309 21.9261 15.309 23.0154H17.3334C17.3334 21.9261 18.2403 21.0421 19.3578 21.0421C20.4753 21.0421 21.3822 21.9261 21.3822 23.0154H22.057C22.4295 23.0154 22.7318 22.7207 22.7318 22.3576V20.3843C22.7311 19.0391 22.2088 17.6743 21.3565 16.5922ZM13.3447 19.0687C13.6672 17.2026 15.3272 15.7799 17.3327 15.7799C19.3382 15.7799 20.9989 17.2026 21.3208 19.0687H13.3447Z" fill="white" fill-opacity="0.9"/>
</g>
<path d="M6.79071 8.89762H27.7907V3.06429C27.7907 1.77571 26.746 0.730957 25.4574 0.730957H18.6446C17.807 0.730957 17.034 1.18012 16.6181 1.90696L14.9574 4.81429H2.12404C0.83546 4.81429 -0.20929 5.85904 -0.20929 7.14762V24.7223C-0.20929 25.0029 0.0187939 25.231 0.29996 25.231C0.536794 25.231 0.742127 25.0694 0.795794 24.8378C1.68304 20.9802 3.96971 11.1055 3.97729 11.0787C4.31563 9.78954 5.45779 8.89762 6.79071 8.89762Z" fill="#0A77DB" fill-opacity="0.5"/>
</g>
<defs>
<clipPath id="clip0_12473_26953">
<rect width="30" height="30" fill="white" transform="translate(-0.000976562 0.230957)"/>
</clipPath>
<clipPath id="clip1_12473_26953">
<rect width="13" height="13" fill="white" transform="translate(9.91064 12.731)"/>
</clipPath>
</defs>
</svg>
