<svg width="46" height="46" viewBox="0 0 46 46" fill="none" xmlns="http://www.w3.org/2000/svg">
<circle cx="23" cy="23" r="23" fill="#EE4428"/>
<path d="M32.6402 13.3751L23.8894 8.1247C23.612 7.95843 23.2664 7.95843 22.989 8.1247L14.2382 13.3751C13.9005 13.5773 13.7403 13.9798 13.8445 14.3596C13.9495 14.7376 14.2942 15.0002 14.688 15.0002V27.2512H16.4382V15.0002H30.4394V27.2512H32.1895V15.0002C32.5833 15.0002 32.9281 14.7376 33.0331 14.3596C33.1372 13.9798 32.9771 13.5773 32.6402 13.3751Z" fill="white"/>
<path opacity="0.8" d="M20.8135 15.8757V21.1262H26.0639V15.8757H24.3138V17.6259H22.5636V15.8757H20.8135Z" fill="white"/>
<path opacity="0.8" d="M20.8138 23.7516H19.0636V22.0015H17.3135V27.2519H22.5639V22.0015H20.8138V23.7516Z" fill="white"/>
<path opacity="0.8" d="M27.8143 23.7516H26.0641V22.0015H24.314V27.2519H29.5644V22.0015H27.8143V23.7516Z" fill="white"/>
<path d="M37.3388 28.7806C36.7472 28.2442 35.8248 28.2793 35.2031 28.7806L30.5708 32.4854C30.0022 32.9416 29.2945 33.1893 28.5655 33.1873H22.6362C22.4235 33.1873 22.2195 33.1028 22.069 32.9524C21.9186 32.8019 21.8341 32.5979 21.8341 32.3852C21.8341 32.1724 21.9186 31.9684 22.069 31.818C22.2195 31.6675 22.4235 31.583 22.6362 31.583H26.5612C27.3583 31.583 28.1008 31.0366 28.2281 30.2495C28.2438 30.1591 28.2515 30.0675 28.2512 29.9758C28.2504 29.5508 28.081 29.1435 27.7802 28.8433C27.4794 28.5431 27.0718 28.3745 26.6469 28.3745H18.6256C17.2728 28.3749 15.9612 28.8402 14.9107 29.6925L12.5795 31.583H9.80213C9.58939 31.583 9.38537 31.6675 9.23494 31.818C9.08451 31.9684 9 32.1724 9 32.3852V37.198C9 37.4107 9.08451 37.6147 9.23494 37.7652C9.38537 37.9156 9.58939 38.0001 9.80213 38.0001H27.6882C28.4169 38.0007 29.1241 37.7531 29.6935 37.2982L37.2751 31.2321C37.4575 31.0862 37.6058 30.9023 37.7098 30.6932C37.8137 30.484 37.8707 30.2547 37.8768 30.0213C37.8829 29.7878 37.838 29.5558 37.7451 29.3415C37.6523 29.1272 37.5133 28.9358 37.3388 28.7806Z" fill="white"/>
</svg>
