<svg width="48" height="48" viewBox="0 0 48 48" fill="none" xmlns="http://www.w3.org/2000/svg">
<rect width="47.0222" height="47.0222" rx="10" fill="#EE4428"/>
<path opacity="0.6" d="M22.2739 10.7441L21.5825 12.4316L20.0767 12.5956C19.2505 12.6894 18.4888 12.7773 18.3833 12.8007L18.1899 12.8359L19.3384 13.8906C19.9771 14.4706 20.5396 14.9863 20.5981 15.0331C20.7036 15.1152 20.6919 15.1855 20.3638 16.7909C20.1763 17.705 20.0239 18.4667 20.0356 18.4726C20.0415 18.4784 20.7095 18.1093 21.5239 17.6406L23.0005 16.8027L24.4771 17.6406C25.2915 18.1034 25.9653 18.4784 25.9712 18.4726C25.9771 18.4667 25.8247 17.7109 25.6372 16.7909C25.3618 15.4491 25.3091 15.1152 25.3735 15.0624C25.4146 15.0331 25.9829 14.5175 26.6333 13.9199C27.7759 12.8769 27.811 12.8359 27.647 12.8007C27.5591 12.7773 26.7915 12.6835 25.9536 12.5956L24.4185 12.4316L23.7271 10.7441C23.3403 9.81829 23.0181 9.05657 23.0005 9.05657C22.9829 9.05657 22.6606 9.81829 22.2739 10.7441Z" fill="white"/>
<path opacity="0.6" d="M12.7177 12.9609C12.6005 13.2188 12.3603 13.752 12.1787 14.1562C11.997 14.5605 11.8447 14.8945 11.8388 14.9062C11.8271 14.918 11.247 14.9883 10.5439 15.0703C9.83492 15.1465 9.23726 15.2168 9.21382 15.2285C9.19038 15.2344 9.61226 15.6445 10.1572 16.1367L11.1416 17.0332L10.8955 18.2344C10.7607 18.8906 10.6377 19.4824 10.6201 19.5469C10.6025 19.6113 10.6025 19.6641 10.6142 19.6641C10.6259 19.6641 11.1474 19.3711 11.7685 19.0195C12.3896 18.6621 12.9228 18.375 12.9521 18.375C12.9873 18.375 13.5087 18.668 14.124 19.0195C14.7334 19.3711 15.2431 19.6465 15.2548 19.6348C15.2724 19.6172 14.8388 17.4023 14.7627 17.1387C14.7451 17.0742 15.0556 16.752 15.7295 16.1426C16.2744 15.6445 16.7021 15.2344 16.6845 15.2285C16.6611 15.2168 16.0634 15.1465 15.3603 15.0645C14.6572 14.9883 14.0712 14.9121 14.0595 14.9004C14.0478 14.8887 13.8017 14.3555 13.5087 13.7168C13.2158 13.0781 12.9638 12.5391 12.9521 12.5273C12.9404 12.5098 12.8349 12.709 12.7177 12.9609Z" fill="white"/>
<path opacity="0.6" d="M32.4932 13.7088L31.9542 14.91L31.7374 14.9393C31.6202 14.9569 31.0284 15.0272 30.4131 15.0975C29.8038 15.1619 29.294 15.2205 29.2881 15.2264C29.2823 15.2323 29.6866 15.6073 30.1846 16.0584C30.6827 16.5096 31.128 16.9139 31.1749 16.9666C31.2452 17.0428 31.2217 17.2303 30.9932 18.3143C30.8526 19.0057 30.7413 19.5916 30.7471 19.6151C30.7589 19.6385 31.2686 19.369 31.878 19.0174C32.4932 18.6658 33.0147 18.3729 33.044 18.3729C33.0733 18.3729 33.6006 18.6541 34.2159 18.9998C35.5401 19.7498 35.4229 19.6971 35.3819 19.5506C35.3643 19.4862 35.2413 18.8885 35.1065 18.2323L34.8604 17.0311L35.8448 16.1405C36.3897 15.6483 36.8233 15.244 36.8116 15.2323C36.8057 15.2205 36.2022 15.1444 35.4815 15.0623C34.7608 14.9803 34.169 14.91 34.1631 14.8983C34.1573 14.8924 33.9229 14.3709 33.6417 13.744C33.3604 13.117 33.1085 12.578 33.085 12.5545C33.0616 12.5311 32.7979 13.0467 32.4932 13.7088Z" fill="white"/>
<path d="M13.1914 21.7271C13.0801 21.9615 12.4121 23.3912 11.6973 24.9029C10.9883 26.4146 10.4023 27.6803 10.4023 27.7154C10.4023 27.7506 11.082 28.0787 11.9141 28.4478C12.7402 28.817 13.5078 29.1803 13.6074 29.2564C13.8535 29.4322 14.0586 29.7955 14.1875 30.2525L14.2871 30.6158L14.5039 30.44C14.8203 30.1881 15.2598 30.0357 15.6992 30.0357C16.1328 30.0357 16.4551 30.1353 16.8184 30.3873C17.1699 30.6275 17.375 30.9146 17.5273 31.3658L17.6562 31.7408L18.1133 31.7584C18.8809 31.7818 19.4492 32.1451 19.7832 32.8189C19.959 33.1705 19.9766 33.1939 20.123 33.1529C20.2051 33.1295 20.4453 33.1119 20.6562 33.1178C21.3887 33.1236 22.1152 33.61 22.3906 34.2721L22.4961 34.5299L23.0352 34.5006C23.5273 34.4771 23.6035 34.4889 23.9141 34.6295C24.1074 34.7174 24.3535 34.8756 24.4648 34.981C24.5762 35.0865 25.1855 35.4615 25.8125 35.8072C27.0898 36.5103 27.3535 36.5924 27.7461 36.3756C28.2852 36.0767 28.4023 35.3502 27.9805 34.9166C27.8926 34.8287 27.0898 34.3424 26.1934 33.8443C24.5469 32.9185 24.4062 32.8189 24.4062 32.4967C24.4062 32.3267 24.7168 32.0279 24.8867 32.0279C24.957 32.0279 25.9473 32.5435 27.084 33.1764C28.2148 33.8092 29.2344 34.3424 29.3398 34.3658C29.7207 34.4478 30.1191 34.2779 30.3242 33.9439C30.4766 33.692 30.4766 33.235 30.3242 32.983C30.1836 32.7486 30.1074 32.7017 28.332 31.7057C27.541 31.2603 26.8379 30.8385 26.7676 30.7564C26.5918 30.5748 26.5977 30.317 26.7734 30.1178C27.0254 29.8189 27.1309 29.86 29.1992 31.0318C31.2969 32.2213 31.3848 32.2564 31.8477 32.0162C32.1934 31.8404 32.4043 31.4478 32.3457 31.0963C32.2637 30.6158 32.2168 30.5807 29.4453 28.9928C28.0098 28.1725 26.7324 27.4635 26.6035 27.4166C26.2988 27.3053 25.6426 27.3111 25.2031 27.4283C25.0098 27.481 24.4414 27.6803 23.9434 27.8736C22.6426 28.3775 22.1094 28.5592 21.5762 28.6588C20.2637 28.9107 19.2266 28.6178 18.2832 27.7389C17.832 27.317 17.4922 26.8658 17.4922 26.69C17.4922 26.4732 17.627 26.3033 17.9492 26.11C18.6348 25.7057 19.6191 25.0377 20.1699 24.5982C20.6973 24.1764 22.127 22.8639 22.168 22.7642C22.1797 22.7408 22.0098 22.6646 21.7871 22.5943C21.0898 22.3775 20.3281 22.4244 18.8691 22.776C18.2188 22.9342 17.4863 22.9752 17.0527 22.8873C16.8477 22.8463 16.0332 22.5064 15.0723 22.0611C14.1758 21.6451 13.4316 21.3053 13.4141 21.3053C13.3965 21.3053 13.2969 21.4986 13.1914 21.7271Z" fill="white"/>
<path d="M31.9073 22.6211C31.3448 22.9258 30.753 23.2129 30.5948 23.2656C29.9385 23.4648 29.2764 23.3535 27.9405 22.8203C26.9561 22.4277 26.4346 22.2988 25.837 22.2988C25.1573 22.2988 24.8175 22.3809 24.1436 22.709C23.4288 23.0605 22.9776 23.3945 22.0811 24.2559C21.2315 25.0645 20.4112 25.7207 19.503 26.3184C19.1221 26.5703 18.7999 26.7871 18.7823 26.7988C18.7237 26.8457 19.3272 27.3262 19.6319 27.4785C20.0714 27.6895 20.4932 27.7715 20.9796 27.7246C21.5362 27.6777 22.0284 27.5371 23.2061 27.0742C24.4717 26.5762 24.9464 26.4238 25.503 26.3418C26.0479 26.2598 26.5577 26.3066 26.9854 26.4766C27.4659 26.6758 32.4815 29.5586 32.7276 29.7754L32.9385 29.9688L34.2803 29.3945C35.1475 29.0254 35.628 28.791 35.6221 28.7383C35.6046 28.5508 33.0557 22.0645 32.9971 22.0645C32.962 22.0645 32.4698 22.3164 31.9073 22.6211Z" fill="white"/>
<path d="M15.2845 31.1434C15.0033 31.2782 14.933 31.372 14.3119 32.5614C13.808 33.5224 13.7494 33.8036 13.9779 34.1845C14.2826 34.6825 15.0677 34.7645 15.4603 34.3309C15.513 34.2665 15.7884 33.7977 16.0638 33.2821C16.4798 32.5145 16.5736 32.2919 16.597 32.0282C16.6205 31.7587 16.6029 31.6708 16.4857 31.5067C16.1869 31.0673 15.7416 30.9325 15.2845 31.1434Z" fill="white"/>
<path d="M17.7573 32.8188C17.6284 32.8657 17.4585 32.977 17.3765 33.0649C17.2944 33.1587 16.9253 33.7974 16.5562 34.4888C15.9878 35.5669 15.8882 35.7895 15.8882 36.0181C15.8882 36.3638 16.0581 36.645 16.3569 36.8149C16.6499 36.9849 16.9429 36.9849 17.2593 36.8149C17.5405 36.6685 17.6108 36.5571 18.5601 34.729C18.9878 33.9087 19.0229 33.8032 18.9936 33.5923C18.894 32.9653 18.3315 32.6079 17.7573 32.8188Z" fill="white"/>
<path d="M20.3871 34.148C20.0355 34.2184 19.8598 34.4469 19.2504 35.5953C18.6234 36.7613 18.5648 36.9898 18.7934 37.3883C19.0688 37.8629 19.6781 38.0035 20.141 37.693C20.4223 37.4996 21.4887 35.5016 21.518 35.1031C21.5707 34.4586 21.0434 34.0133 20.3871 34.148Z" fill="white"/>
<path d="M22.673 35.6301C22.468 35.7531 22.3625 35.8996 21.9172 36.7258C21.4953 37.5168 21.4016 37.7394 21.3781 38.0031C21.3547 38.2726 21.3723 38.3605 21.4894 38.5246C21.7941 38.9758 22.257 39.1105 22.6965 38.8879C22.9836 38.7414 23.0656 38.6183 23.675 37.4465C24.0969 36.6261 24.1262 36.55 24.0852 36.3215C23.968 35.6125 23.2707 35.2726 22.673 35.6301Z" fill="white"/>
<path d="M25.0566 36.8701C25.0156 37.0166 24.8574 37.3857 24.6934 37.6787C24.5352 37.9775 24.4062 38.2412 24.4062 38.2705C24.4062 38.3057 24.5938 38.4287 24.8164 38.5518C25.1152 38.71 25.3027 38.7744 25.4844 38.7744C26.3223 38.7744 26.7383 37.8311 26.1758 37.2217C26.0527 37.0928 25.2383 36.5947 25.1504 36.5947C25.1328 36.5947 25.0918 36.7178 25.0566 36.8701Z" fill="white"/>
</svg>
