<svg width="46" height="46" viewBox="0 0 46 46" fill="none" xmlns="http://www.w3.org/2000/svg">
<circle cx="23" cy="23" r="23" fill="#C7762F"/>
<path d="M29.877 11.9336V13.3231L12.0645 17.1933V29.3462C12.0645 29.879 12.435 30.3421 12.9646 30.4733L17.7146 31.6341C17.8096 31.6562 17.907 31.6678 18.002 31.6678C18.3713 31.6678 18.724 31.4995 18.952 31.2035L19.202 30.8777V27.0074L17.5246 29.1941L14.4395 28.4395V25.7614L19.202 26.7971V24.1689C19.202 22.2071 20.8137 20.6167 22.802 20.6167H32.252V11.9336H29.877Z" fill="white"/>
<path d="M10.8765 17.188H8.50146V25.8638H10.8765V17.188Z" fill="white"/>
<g opacity="0.8">
<path d="M35.2796 24.4638L29.0789 28.8928C28.928 28.9998 28.7529 29.0533 28.5769 29.0533C28.401 29.0533 28.2259 28.9989 28.0758 28.8928L21.7233 24.356C21.6949 24.4802 21.6768 24.6087 21.6768 24.7406V31.6408C21.6768 32.5922 22.4504 33.3659 23.4018 33.3659H33.7521C34.7034 33.3659 35.4771 32.5922 35.4771 31.6408V24.7406C35.4771 24.6613 35.4642 24.5845 35.4538 24.5078C35.3952 24.494 35.3365 24.4802 35.2796 24.4638Z" fill="white"/>
<path d="M28.5772 27.1302L33.4677 23.637C33.1787 23.4498 32.9062 23.242 32.6491 23.0151H23.402C23.2347 23.0151 23.076 23.0471 22.9233 23.091L28.5772 27.1302Z" fill="white"/>
</g>
</svg>
