<svg width="48" height="48" viewBox="0 0 48 48" fill="none" xmlns="http://www.w3.org/2000/svg">
<rect width="47.0222" height="47.0222" rx="10" fill="#27A0EC"/>
<path opacity="0.8" d="M23.2415 6.31367C22.4771 6.60313 21.8759 7.22656 21.6904 7.93164C21.5642 8.38438 21.6458 9.28242 21.8388 9.66094C22.0837 10.1359 22.5736 10.5887 23.056 10.7891L23.479 10.9672V11.4719V11.9766H23.9986H24.5181V11.4719V10.9672L24.9411 10.7891C25.4236 10.5887 25.9134 10.1434 26.1657 9.66094C26.3142 9.38633 26.3365 9.23047 26.3365 8.59961C26.3365 7.76836 26.2325 7.47891 25.7353 6.92969C25.1712 6.30625 24.0208 6.02422 23.2415 6.31367Z" fill="white"/>
<path opacity="0.8" d="M12.3777 10.8187C11.9027 10.9672 11.4054 11.3531 11.1234 11.7762C10.4554 12.8004 10.6187 14.077 11.5316 14.8934C12.207 15.502 13.2238 15.6727 14.0402 15.3164L14.4409 15.1457L14.7823 15.4871L15.1312 15.8359L15.48 15.4871L15.8362 15.1383L15.4948 14.782L15.146 14.4332L15.3167 14.0398C15.532 13.5426 15.5542 12.8449 15.3687 12.2957C15.198 11.7984 14.671 11.2121 14.1737 10.9598C13.721 10.7223 12.8601 10.6555 12.3777 10.8187Z" fill="white"/>
<path opacity="0.8" d="M34.2422 10.7816C33.5742 10.9969 32.9434 11.5609 32.6613 12.1844C32.4387 12.6816 32.4461 13.5055 32.6836 14.0398L32.8543 14.4332L32.5055 14.782L32.1641 15.1383L32.5203 15.4871L32.8691 15.8359L33.218 15.4871L33.5594 15.1457L33.9602 15.3164C34.4574 15.5391 35.1551 15.5539 35.7191 15.3609C36.2906 15.1605 36.9141 14.5445 37.1367 13.9434C37.5598 12.7855 36.9957 11.4125 35.8898 10.9227C35.5113 10.752 34.5687 10.6703 34.2422 10.7816Z" fill="white"/>
<path d="M22.6999 13.0602C20.1542 13.4313 18.128 14.4035 16.3616 16.0957C14.7585 17.6246 13.6675 19.6285 13.1851 21.9219C12.9995 22.8125 12.9995 25.1875 13.1851 26.0781C14.0386 30.1305 16.8589 33.2848 20.7034 34.4871C21.9355 34.873 22.455 34.9473 23.9987 34.9473C25.5499 34.9473 26.062 34.873 27.294 34.4871C30.6636 33.4332 33.3948 30.7391 34.4487 27.4141C34.8718 26.0855 34.946 25.5809 34.946 24C34.946 22.4563 34.8718 21.9367 34.4858 20.7047C33.4468 17.3648 30.9011 14.7598 27.5612 13.5945C26.396 13.1938 25.7132 13.0824 24.2585 13.0527C23.5237 13.0379 22.8261 13.0453 22.6999 13.0602ZM29.0011 15.9918C29.2831 16.1254 29.387 16.4371 29.2386 16.7414C28.8526 17.5133 28.3331 18.2852 28.155 18.3445C27.8507 18.4559 27.5612 18.2926 27.4573 17.9512C27.398 17.7508 28.3183 16.1105 28.5483 15.9992C28.7636 15.8953 28.7858 15.8953 29.0011 15.9918ZM24.548 16.7563C24.6815 16.8156 24.8819 16.9715 24.9784 17.1051C25.0823 17.2461 26.1437 19.0496 27.3312 21.1277C28.8155 23.6957 29.5132 24.9797 29.5355 25.1727C29.6097 25.7441 29.0901 26.3008 28.489 26.3008C27.873 26.3008 27.8655 26.2934 25.4163 22.0703C23.3308 18.4707 23.1601 18.1441 23.123 17.7656C23.0933 17.3945 23.1155 17.3277 23.3011 17.1051C23.6573 16.682 24.0878 16.5633 24.548 16.7563ZM31.6804 18.248C31.8956 18.4559 31.9179 18.7527 31.7323 18.9383C31.5616 19.109 30.1292 19.918 29.9882 19.918C29.9288 19.918 29.7952 19.8512 29.6839 19.7621C29.4538 19.584 29.4167 19.1906 29.6245 19.0051C29.8769 18.775 31.1683 18.0625 31.3315 18.0625C31.428 18.0625 31.5839 18.1441 31.6804 18.248ZM24.4812 22.5082C25.4163 24.1336 26.1808 25.4918 26.1659 25.5289C26.1585 25.566 25.8468 25.6328 25.4683 25.6773C24.5925 25.7887 23.6647 26.0113 22.6331 26.3453C22.1952 26.4938 21.8019 26.5828 21.7722 26.5457C21.7351 26.516 21.2378 25.6773 20.6663 24.6902L19.6272 22.8867L20.8667 21.6473C21.5495 20.957 22.2397 20.2074 22.403 19.9699C22.5589 19.7398 22.7073 19.5469 22.7296 19.5469C22.7519 19.5469 23.5386 20.8828 24.4812 22.5082ZM28.0882 19.7918C28.4741 20.0516 28.6745 20.4004 28.6745 20.816C28.6745 21.0164 28.6448 21.1797 28.6151 21.1797C28.5632 21.1797 27.7097 19.7473 27.7097 19.6582C27.7097 19.5766 27.8433 19.6285 28.0882 19.7918ZM32.2444 21.4617C32.4523 21.6324 32.4671 22.0035 32.2741 22.2188C32.1554 22.3523 32.044 22.3672 31.1015 22.3672C30.2331 22.3672 30.0327 22.3449 29.9214 22.241C29.7433 22.0777 29.7433 21.6695 29.9362 21.4766C30.0698 21.343 30.1812 21.3281 31.0792 21.3281C31.9327 21.3281 32.096 21.3504 32.2444 21.4617ZM19.7683 25.2023C20.362 26.2266 20.8519 27.1098 20.8667 27.1543C20.889 27.2508 19.6421 28.0152 18.9296 28.3418C18.462 28.5645 17.7495 28.5867 17.2003 28.4012C16.6882 28.2305 16.0499 27.5848 15.8718 27.0504C15.5897 26.2043 15.8644 25.091 16.4804 24.6012C16.7698 24.3711 18.514 23.3395 18.6179 23.3395C18.6624 23.332 19.1745 24.1707 19.7683 25.2023ZM23.0116 27.7406C23.2862 28.1266 23.353 28.3047 23.264 28.4383C23.2194 28.5125 23.1007 28.3938 22.8261 28.0301C22.5737 27.6887 22.4772 27.5105 22.5366 27.4734C22.6999 27.3695 22.7815 27.4141 23.0116 27.7406ZM22.5812 29.4402C23.1304 30.1824 23.598 30.8652 23.6128 30.9617C23.6425 31.0953 23.5608 31.2215 23.264 31.4961C22.8038 31.9266 22.6405 31.9934 22.4105 31.8375C22.2397 31.7262 20.2358 29.084 20.2062 28.9355C20.1913 28.8762 21.4456 28.082 21.5495 28.082C21.5718 28.0895 22.0319 28.698 22.5812 29.4402Z" fill="white"/>
<path opacity="0.8" d="M7.79788 21.7289C6.77366 22.1074 6.12054 23.1168 6.20218 24.1781C6.26898 24.9945 6.74398 25.7219 7.45648 26.1152C7.82757 26.323 7.91663 26.3379 8.59945 26.3379C9.2303 26.3379 9.38616 26.3156 9.66077 26.1672C10.1432 25.9148 10.5885 25.425 10.7889 24.9426L10.967 24.5195H11.4717H11.9764V24V23.4805H11.4717H10.967L10.7889 23.0574C10.5885 22.575 10.1358 22.0852 9.66077 21.8402C9.25257 21.625 8.22835 21.5656 7.79788 21.7289Z" fill="white"/>
<path opacity="0.8" d="M38.5988 21.7289C37.9234 21.9813 37.4262 22.4785 37.1664 23.1539L37.0402 23.4805H36.5355H36.0234V24V24.5195H36.5281H37.0328L37.2035 24.9203C37.4187 25.4473 37.775 25.848 38.2574 26.1152C38.6285 26.323 38.7176 26.3379 39.4004 26.3379C40.0832 26.3379 40.1722 26.323 40.5433 26.1152C40.9961 25.8629 41.3597 25.477 41.5972 24.9723C41.8422 24.4824 41.8422 23.5176 41.5972 23.0277C41.3597 22.5231 40.9886 22.1297 40.5433 21.8848C40.2094 21.7066 40.0387 21.6621 39.5117 21.6473C39.0961 21.6324 38.7844 21.6621 38.5988 21.7289Z" fill="white"/>
<path opacity="0.8" d="M14.7815 32.5119L14.4401 32.8533L14.0394 32.6826C13.505 32.4451 12.6812 32.4377 12.1839 32.6604C11.7237 32.8682 11.1894 33.3729 10.9519 33.833C10.7812 34.1522 10.7515 34.2932 10.7515 34.8721C10.7515 35.4287 10.7812 35.5994 10.9296 35.9112C11.4862 37.0319 12.7851 37.5588 13.9429 37.1358C14.544 36.9131 15.1601 36.2897 15.3604 35.7182C15.5534 35.1541 15.5386 34.4565 15.3159 33.9592L15.1452 33.5658L15.494 33.217L15.8354 32.8608L15.4792 32.5119L15.1304 32.1631L14.7815 32.5119Z" fill="white"/>
<path opacity="0.8" d="M32.5129 32.5163L32.1641 32.8725L32.5129 33.2213L32.8543 33.5702L32.6836 33.9635C32.4238 34.5499 32.4313 35.3292 32.7059 35.8858C33.4406 37.3925 35.4074 37.7561 36.5578 36.6057C37.7528 35.4182 37.4114 33.4514 35.8824 32.7092C35.3258 32.4346 34.5465 32.4272 33.9602 32.687L33.5668 32.8577L33.218 32.5163L32.8691 32.1674L32.5129 32.5163Z" fill="white"/>
<path opacity="0.8" d="M23.48 36.529V37.0336L23.0792 37.2043C22.5522 37.4196 22.1515 37.7758 21.8843 38.2583C21.6765 38.6293 21.6616 38.7184 21.6616 39.4012C21.6616 40.084 21.6765 40.1731 21.8843 40.5442C22.1366 40.9969 22.5226 41.3606 23.0272 41.5981C23.4948 41.8282 24.4745 41.8356 24.9644 41.6129C25.4394 41.3903 25.8624 41.0043 26.1147 40.5442C26.3226 40.1731 26.3374 40.084 26.3374 39.4012C26.3374 38.7184 26.3226 38.6293 26.1147 38.2583C25.8476 37.7758 25.4468 37.4196 24.9198 37.2043L24.519 37.0336V36.529V36.0243H23.9995H23.48V36.529Z" fill="white"/>
</svg>
