<svg width="59" height="59" viewBox="0 0 59 59" fill="none" xmlns="http://www.w3.org/2000/svg">
<rect x="6.30371" y="6.18604" width="47.0222" height="47.0222" rx="10" fill="#C7762F"/>
<g clip-path="url(#clip0_4_3686)">
<path opacity="0.8" d="M40.3042 22.8795H40.1842C39.4537 17.7991 35.0843 13.8796 29.8044 13.8796C24.5245 13.8796 20.1551 17.7991 19.4246 22.8795H19.3046C17.6487 22.8795 16.3047 24.2234 16.3047 25.8794V28.8793C16.3047 30.5353 17.6487 31.8793 19.3046 31.8793H22.3046V24.3794C22.3046 20.244 25.669 16.8796 29.8044 16.8796C33.9398 16.8796 37.3043 20.244 37.3043 24.3794V31.8793H40.3042C41.9602 31.8793 43.3041 30.5353 43.3041 28.8793V25.8794C43.3041 24.2219 41.9602 22.8795 40.3042 22.8795Z" fill="white"/>
<path d="M35.8044 25.88C35.8044 22.5711 33.1135 19.8801 29.8046 19.8801C26.4956 19.8801 23.8047 22.5711 23.8047 25.88C23.8047 29.1874 26.4956 31.8799 29.8046 31.8799C33.1135 31.8799 35.8044 29.1874 35.8044 25.88Z" fill="white"/>
<path d="M29.8044 33.3799C22.7396 33.3799 17.8047 37.0803 17.8047 42.3797V43.8797H41.8042V42.3797C41.8042 37.0803 36.8693 33.3799 29.8044 33.3799Z" fill="white"/>
</g>
<defs>
<clipPath id="clip0_4_3686">
<rect width="58.4399" height="58.4399" fill="white"/>
</clipPath>
</defs>
</svg>
