<svg width="46" height="46" viewBox="0 0 46 46" fill="none" xmlns="http://www.w3.org/2000/svg">
<circle cx="23" cy="23" r="23" fill="#EE4428"/>
<path d="M22.7901 24.4738C22.4735 24.7943 22.1882 25.0835 21.8795 25.3922C22.1609 25.6697 22.4501 25.9471 22.7314 26.2324C23.8218 27.3228 24.9121 28.4131 26.0024 29.5034C26.1939 29.6949 26.3971 29.8825 26.573 30.0935C26.6707 30.2108 26.745 30.3554 26.7997 30.4961C26.8935 30.7618 26.8583 31.0158 26.6394 31.2112C26.4206 31.4066 26.1549 31.434 25.9126 31.2972C25.6781 31.1643 25.4553 30.9963 25.2638 30.8087C24.3728 29.9333 23.4974 29.0423 22.6142 28.1591C22.0827 27.6237 21.5473 27.0922 21.0158 26.5568C20.965 26.506 20.9103 26.463 20.8517 26.4161C20.5586 26.7092 20.2694 26.9984 19.9567 27.3071C20.3866 27.7331 20.8165 28.1473 21.2386 28.5694C22.1335 29.4604 23.0245 30.3515 23.9156 31.2464C24.2048 31.5356 24.4861 31.8326 24.7558 32.1413C24.8418 32.239 24.8926 32.3797 24.916 32.5126C25.0098 33.0167 24.6073 33.3997 24.1149 33.2434C23.8804 33.1691 23.6459 33.0128 23.4661 32.837C21.9733 31.3597 20.4921 29.8669 19.0071 28.3779C18.9876 28.3584 18.968 28.3467 18.9446 28.3271C18.6554 28.628 18.3701 28.925 18.0692 29.2377C18.4248 29.5894 18.8039 29.9646 19.1791 30.3397C20.0779 31.2347 20.9728 32.1335 21.8717 33.0284C22.157 33.3137 22.4501 33.5951 22.7197 33.8921C22.8291 34.0133 22.9112 34.1735 22.9659 34.3259C23.0636 34.5917 23.0167 34.8457 22.8018 35.0411C22.5907 35.2287 22.3367 35.2482 22.0905 35.131C21.9186 35.0489 21.7466 34.9395 21.6137 34.8027C20.7032 33.9078 19.8043 33.005 18.9055 32.1022C18.0223 31.219 17.143 30.3319 16.2598 29.4487C15.4508 28.6398 14.6418 27.8308 13.829 27.0218C12.9301 26.1269 12.0391 25.2241 11.1364 24.3331C10.5971 23.8055 10.1203 23.235 9.76465 22.5706C9.34259 21.7812 9.08856 20.941 9.02213 20.046C8.91661 18.686 9.18627 17.4081 9.87798 16.224C10.4134 15.3056 11.1325 14.5592 12.0352 13.9925C13.2193 13.2539 14.5129 12.9217 15.9041 13.0155C17.4165 13.1132 18.7492 13.6682 19.863 14.6999C20.2811 15.0868 20.6602 15.5206 21.094 15.97C20.9025 16.1497 20.6797 16.3451 20.4726 16.5562C19.562 17.4667 18.6515 18.3773 17.7409 19.2879C17.1234 19.9053 16.506 20.515 15.8924 21.1364C15.0874 21.957 15.0678 23.2232 15.8377 24.0674C16.631 24.935 17.8855 25.0561 18.7687 24.2979C19.3119 23.8329 19.7965 23.3053 20.3046 22.8012C20.7696 22.34 21.2347 21.875 21.7193 21.3904C21.9303 21.6014 22.1413 21.8085 22.3524 22.0157C23.0871 22.7504 23.8257 23.489 24.5604 24.2237C25.4514 25.1147 26.3463 26.0097 27.2374 26.9007C27.6204 27.2837 28.0033 27.6627 28.3824 28.0457C28.5935 28.2568 28.7576 28.4952 28.7576 28.8117C28.7576 29.2103 28.4332 29.4917 28.0346 29.437C27.7415 29.394 27.5187 29.2338 27.3155 29.0306C26.5105 28.2255 25.7093 27.4205 24.9082 26.6115C24.2087 25.912 23.5052 25.2007 22.7901 24.4738Z" fill="white"/>
<path d="M31.1838 20.2651C30.9337 19.9212 30.6914 19.5929 30.453 19.2686C27.6822 21.1405 25.0208 20.8044 22.3595 18.9364C22.1328 19.1787 21.8827 19.4483 21.6209 19.7102C20.7181 20.6207 19.8115 21.5235 18.9048 22.4301C18.6273 22.7076 18.3577 22.989 18.0724 23.2508C17.6621 23.6299 17.1579 23.626 16.8062 23.2547C16.4349 22.8678 16.4506 22.3481 16.8492 21.9495C18.1545 20.6442 19.4676 19.3428 20.7728 18.0375C21.8319 16.9785 22.8714 15.9038 23.9461 14.8642C25.396 13.4612 27.1468 12.8438 29.1633 13.0392C30.9141 13.2111 32.364 13.9927 33.4973 15.3371C34.3649 16.3688 34.8573 17.5725 34.9745 18.9247C35.0918 20.3159 34.8026 21.6134 34.0991 22.817C33.7318 23.4462 33.2394 23.9738 32.7235 24.4818C32.0787 25.1149 31.4456 25.7598 30.8047 26.4007C30.4178 26.7915 30.0309 27.1862 29.644 27.577C27.3735 25.3299 25.1264 23.1023 22.8753 20.8747C22.8988 20.8435 22.9183 20.8122 22.9418 20.7849C24.2627 21.4453 25.65 21.8205 27.1312 21.7541C28.6318 21.6798 29.9645 21.1561 31.1838 20.2651Z" fill="white" fill-opacity="0.4"/>
</svg>
