<svg width="48" height="48" viewBox="0 0 48 48" fill="none" xmlns="http://www.w3.org/2000/svg">
<rect width="47.0222" height="47.0222" rx="10" fill="#C7762F"/>
<path d="M16.5 17C18.1569 17 19.5 15.6569 19.5 14C19.5 12.3431 18.1569 11 16.5 11C14.8431 11 13.5 12.3431 13.5 14C13.5 15.6569 14.8431 17 16.5 17Z" fill="white"/>
<path d="M24.1785 18.5H14.5C12.567 18.5 11 20.067 11 22V26.6785C11 27.3325 11.4705 27.928 12.121 27.9935C12.453 28.027 12.759 27.925 13 27.742V35.75C13 36.4405 13.5595 37 14.25 37C14.9405 37 15.5 36.4405 15.5 35.75V29.5C15.5 28.948 15.948 28.5 16.5 28.5C17.052 28.5 17.5 28.948 17.5 29.5V35.75C17.5 36.4405 18.0595 37 18.75 37C19.4405 37 20 36.4405 20 35.75V21H24.25C24.983 21 25.5685 20.369 25.493 19.621C25.4275 18.97 24.832 18.5 24.1785 18.5Z" fill="white"/>
<path opacity="0.6" d="M33.1395 35.2315L30 32.6145V30.5H28V32.6145L24.8605 35.231C24.64 35.415 24.5 35.691 24.5 36C24.5 36.552 24.948 37 25.5 37C25.743 37 25.9665 36.913 26.1395 36.7685L28 35.2185V36C28 36.552 28.448 37 29 37C29.552 37 30 36.552 30 36V35.2185L31.8605 36.769C32.0335 36.913 32.257 37 32.5 37C33.052 37 33.5 36.552 33.5 36C33.5 35.691 33.36 35.415 33.1395 35.2315Z" fill="white"/>
<path d="M35.5 12.5H21V17H24.1785C25.638 17 26.845 18.063 26.9855 19.472C27.063 20.2455 26.809 21.0195 26.289 21.5945C25.769 22.17 25.026 22.5 24.25 22.5H21.5V29H35.5C36.052 29 36.5 28.552 36.5 28V13.5C36.5 12.948 36.052 12.5 35.5 12.5ZM33.357 17.8855L33.125 20.7425C33.6455 21.046 34 21.604 34 22.25C34 23.217 33.217 24 32.25 24C31.8915 24 31.5585 23.891 31.281 23.706L28.9835 25.0845C28.9885 25.1395 29 25.1935 29 25.25C29 26.217 28.217 27 27.25 27C26.283 27 25.5 26.217 25.5 25.25C25.5 24.2835 26.283 23.5 27.25 23.5C27.6085 23.5 27.9415 23.609 28.219 23.794L30.5165 22.4155C30.5115 22.3605 30.5 22.3065 30.5 22.25C30.5 21.5025 30.9705 20.869 31.63 20.6185L31.8635 17.751C31.3485 17.4465 31 16.891 31 16.25C31 15.283 31.783 14.5 32.75 14.5C33.717 14.5 34.5 15.283 34.5 16.25C34.5 17.002 34.023 17.638 33.357 17.8855Z" fill="white"/>
</svg>
