<svg width="48" height="48" viewBox="0 0 48 48" fill="none" xmlns="http://www.w3.org/2000/svg">
<rect width="47.0222" height="47.0222" rx="10" fill="#EE4428"/>
<path fill-rule="evenodd" clip-rule="evenodd" d="M12.5057 20.2671L12.6621 34.8652C12.6621 34.8652 22.6197 34.5524 25.3509 34.5524C30.6461 34.5524 28.9404 29.0791 28.9404 29.0791L34.6429 28.9154L34.6902 20.2671H36.6068L36.7886 37.7456L10.3091 38.0001L10.3891 20.2671H12.5057Z" fill="white"/>
<path opacity="0.6" d="M10 13.4659V18.1937L36.8651 17.9573C36.8651 17.9573 36.8287 14.4224 36.8287 13.4695C36.8287 11.6475 36.4396 10 34.0756 10C32.1518 10 15.9244 10.1418 13.1895 10.1418C10.4546 10.1418 10 11.4256 10 13.4659Z" fill="white"/>
<path d="M16.7976 21.5107C19.5579 21.5107 19.627 25.8749 16.9867 25.8749C13.8554 25.8604 14.0845 21.5107 16.7976 21.5107Z" fill="white"/>
<path d="M16.9867 32.3557C13.8554 32.3557 14.0772 27.9915 16.7976 27.9915C19.5179 27.9915 19.627 32.3557 16.9867 32.3557Z" fill="white"/>
<path d="M23.5403 21.5108C23.5378 21.5107 23.5354 21.5107 23.5329 21.5107H23.5475C23.5451 21.5107 23.5427 21.5107 23.5403 21.5108C26.2934 21.5185 26.36 25.8749 23.722 25.8749C20.6081 25.8604 20.834 21.5185 23.5403 21.5108Z" fill="white"/>
<path d="M23.5329 27.9915C20.8126 27.9915 20.5908 32.3557 23.722 32.3557H23.7366C26.3769 32.3557 26.2533 27.9915 23.5329 27.9915Z" fill="white"/>
<path d="M30.283 21.5108C30.2781 21.5108 30.2732 21.5107 30.2683 21.5107H30.2974C30.2926 21.5107 30.2878 21.5108 30.283 21.5108C33.0325 21.5262 33.0967 25.8749 30.461 25.8749C27.3644 25.8604 27.5872 21.5262 30.283 21.5108Z" fill="white"/>
</svg>
