<svg width="48" height="48" viewBox="0 0 48 48" fill="none" xmlns="http://www.w3.org/2000/svg">
<rect width="47.0222" height="47.0222" rx="10" fill="#C7762F"/>
<path d="M16.6172 12.3086V15.6172H13.3086H10V26.3086V37H20.7188H31.4375V30.2406V23.4812L31.1258 23.7656C28.632 25.9914 27.4562 26.8828 26.1602 27.5172C25.225 27.9711 24.4539 28.1297 23.7539 28.0094L23.5352 27.9711L22.7695 28.7422L22.0039 29.5078L21.4187 28.9227L20.8281 28.332L21.5719 27.5883L22.3156 26.8445L22.2555 26.6313C21.8781 25.2695 23.207 22.9289 26.3352 19.4617C27.1008 18.6086 30.2289 15.4914 30.907 14.9062L31.4375 14.4469V11.7234V9H24.0273H16.6172V12.3086ZM21.5938 18.0781V18.8984H17.4648H13.3359V18.0781V17.2578H17.4648H21.5938V18.0781ZM18.2578 21.3594V22.1797H15.7969H13.3359V21.3594V20.5391H15.7969H18.2578V21.3594ZM18.2578 24.6406V25.4609H15.7969H13.3359V24.6406V23.8203H15.7969H18.2578V24.6406ZM16.5406 28.9227C17.0602 29.1852 17.3773 29.732 17.5687 30.7109L17.6836 31.307L17.9078 31.0227C18.0391 30.8531 18.2469 30.6727 18.4273 30.5742C18.6789 30.432 18.7773 30.4102 19.1328 30.4102C19.6906 30.4102 20.0625 30.5906 20.582 31.1211C20.9703 31.5094 21.5172 32.3516 21.468 32.4773C21.4461 32.5375 20.057 33.1938 20.0352 33.1555C20.0297 33.15 19.9477 33.0078 19.8438 32.8438C19.6469 32.5102 19.3078 32.0781 19.2477 32.0781C19.2258 32.0781 19.1273 32.2531 19.0234 32.4664C18.6352 33.2922 18.1758 33.6641 17.5414 33.6641C17.3063 33.6641 17.1586 33.6258 16.9398 33.5109C16.4422 33.2539 16.2289 32.7836 16.043 31.5258C15.9391 30.8094 15.8133 30.3664 15.7258 30.3992C15.518 30.4648 15.1953 31.3781 15.0477 32.2969L14.9547 32.9039L14.5555 32.8766C14.3367 32.8602 13.9703 32.8273 13.7406 32.8109L13.3305 32.7781L13.3633 32.4719C13.5602 30.7984 14.0797 29.557 14.7797 29.0758C15.3156 28.7039 15.9992 28.6438 16.5406 28.9227Z" fill="white"/>
<path d="M12.707 11.7344L10.4648 13.9766H12.7234H14.9766V11.7344C14.9766 10.4984 14.9711 9.49219 14.9602 9.49219C14.9547 9.49219 13.9375 10.4984 12.707 11.7344Z" fill="white"/>
<path opacity="0.4" d="M37.1793 12.4109C35.8777 12.8922 33.2363 14.8937 30.9012 17.1633L30.3926 17.6609L31.5355 18.7984L32.673 19.9414L33.1707 19.4328C35.7082 16.8242 37.8629 13.8766 37.9832 12.8484C38.0105 12.6078 37.9941 12.5477 37.8957 12.4492C37.7645 12.318 37.4801 12.3016 37.1793 12.4109Z" fill="white"/>
<path opacity="0.4" d="M28.4897 19.582C25.4382 22.9016 23.8905 25.0453 23.8796 25.9914C23.8741 26.3195 23.9999 26.4453 24.3335 26.4453C24.4811 26.4453 24.7327 26.3961 24.8968 26.3359C25.9741 25.9313 28.6483 23.8531 31.0491 21.5617L31.503 21.1242L30.3655 19.9867C29.7366 19.3578 29.2116 18.8438 29.1952 18.8438C29.1788 18.8492 28.8616 19.1773 28.4897 19.582Z" fill="white"/>
</svg>
