<svg width="46" height="46" viewBox="0 0 46 46" fill="none" xmlns="http://www.w3.org/2000/svg">
<circle cx="23" cy="23" r="23" fill="#FFDA00"/>
<g opacity="0.4">
<path d="M33.4125 28.3376L28.225 33.5251C28.025 33.7251 27.8375 34.1126 27.7875 34.3876L27.5 36.3751C27.4 37.0876 27.9 37.6001 28.6125 37.4876L30.6 37.2001C30.875 37.1626 31.2625 36.9626 31.4625 36.7626L36.65 31.5751C37.5375 30.6876 37.9625 29.6376 36.65 28.3251C35.35 27.0251 34.3125 27.4376 33.4125 28.3376Z" fill="white"/>
<path d="M32.6753 29.075C33.1128 30.65 34.3503 31.8749 35.9253 32.3249L32.6753 29.075Z" fill="white"/>
</g>
<path d="M12.5377 28.2876C12.5377 28.3251 12.5127 28.3751 12.5127 28.4126C13.6627 30.7126 15.5377 32.6001 17.8377 33.7376C17.8752 33.7376 17.9252 33.7126 17.9627 33.7126C17.5377 32.2626 17.2127 30.7751 16.9752 29.2876C15.4752 29.0376 13.9877 28.7126 12.5377 28.2876Z" fill="white"/>
<path d="M33.8376 18.0375C32.6626 15.575 30.6751 13.5875 28.2251 12.425C28.6751 13.9125 29.0501 15.4376 29.3001 16.9626C30.8251 17.2126 32.3501 17.575 33.8376 18.0375Z" fill="white"/>
<path d="M12.4126 18.0374C13.9126 17.5874 15.4376 17.2124 16.9626 16.9624C17.2126 15.4749 17.5251 13.9999 17.9501 12.5499C17.9126 12.5499 17.8626 12.5249 17.8251 12.5249C15.4751 13.6874 13.5626 15.6499 12.4126 18.0374Z" fill="white"/>
<path d="M27.2751 16.7C26.9751 15.075 26.6001 13.4501 26.0626 11.8751C26.0376 11.7876 26.0376 11.7126 26.0251 11.6126C25.1001 11.3876 24.1251 11.2375 23.1251 11.2375C22.1126 11.2375 21.1501 11.3751 20.2126 11.6126C20.2001 11.7001 20.2126 11.7751 20.1876 11.8751C19.6626 13.4501 19.2751 15.075 18.9751 16.7C21.7376 16.4 24.5126 16.4 27.2751 16.7Z" fill="white"/>
<path d="M16.6998 18.9751C15.0623 19.2751 13.4498 19.6501 11.8748 20.1876C11.7873 20.2126 11.7123 20.2126 11.6123 20.2251C11.3873 21.1501 11.2373 22.1251 11.2373 23.1251C11.2373 24.1376 11.3748 25.1001 11.6123 26.0376C11.6998 26.0501 11.7748 26.0376 11.8748 26.0626C13.4498 26.5876 15.0623 26.9751 16.6998 27.2751C16.3998 24.5126 16.3998 21.7376 16.6998 18.9751Z" fill="white"/>
<path d="M34.6251 20.2251C34.5376 20.2251 34.4626 20.2126 34.3626 20.1876C32.7876 19.6626 31.1626 19.2751 29.5376 18.9751C29.8501 21.7376 29.8501 24.5126 29.5376 27.2626C31.1626 26.9626 32.7876 26.5876 34.3626 26.0501C34.4501 26.0251 34.5251 26.0376 34.6251 26.0251C34.8501 25.0876 35.0001 24.1251 35.0001 23.1126C35.0001 22.1251 34.8626 21.1626 34.6251 20.2251Z" fill="white"/>
<path d="M18.9751 29.55C19.2751 31.1875 19.6501 32.8 20.1876 34.375C20.2126 34.4625 20.2001 34.5375 20.2126 34.6375C21.1501 34.8625 22.1126 35.0125 23.1251 35.0125C24.1251 35.0125 25.1001 34.875 26.0251 34.6375C26.0376 34.55 26.0376 34.475 26.0626 34.375C26.5876 32.8 26.9751 31.1875 27.2751 29.55C25.9001 29.7 24.5126 29.8125 23.1251 29.8125C21.7376 29.8 20.3501 29.7 18.9751 29.55Z" fill="white"/>
<path d="M18.6875 18.6875C18.3125 21.6375 18.3125 24.6125 18.6875 27.575C21.6375 27.95 24.6125 27.95 27.575 27.575C27.95 24.625 27.95 21.65 27.575 18.6875C24.6125 18.3125 21.6375 18.3125 18.6875 18.6875Z" fill="white"/>
</svg>
