<svg width="46" height="46" viewBox="0 0 46 46" fill="none" xmlns="http://www.w3.org/2000/svg">
<circle cx="23" cy="23" r="23" fill="#C7762F"/>
<path opacity="0.8" d="M28 34.25V36.5938C28 37.3704 27.3704 38 26.5938 38H10.6562C9.87959 38 9.25 37.3704 9.25 36.5938V15.0312C9.25 14.2546 9.87959 13.625 10.6562 13.625H14.875V30.9688C14.875 32.7781 16.3469 34.25 18.1562 34.25H28Z" fill="white"/>
<path d="M28 8V14.0938C28 14.8672 28.6328 15.5 29.4062 15.5H35.5V30.9688C35.5 31.7454 34.8704 32.375 34.0938 32.375H18.1562C17.3796 32.375 16.75 31.7454 16.75 30.9688V9.40625C16.75 8.62959 17.3796 8 18.1562 8H28Z" fill="white"/>
<path d="M31.2244 8.41186L35.0881 12.2756C35.3519 12.5394 35.5 12.897 35.5 13.27V13.625H29.875V8H30.23C30.603 8 30.9606 8.14815 31.2244 8.41186Z" fill="white"/>
<path d="M29.6028 21.5794L29.4491 21.8476C29.3928 21.947 29.2728 21.9882 29.1659 21.9488C28.9447 21.8663 28.7421 21.7482 28.564 21.6001C28.4778 21.5288 28.4552 21.4032 28.5115 21.3057L28.6653 21.0375C28.5359 20.8875 28.4346 20.7131 28.3671 20.5237H28.0577C27.9452 20.5237 27.8477 20.4431 27.8289 20.3306C27.7914 20.1056 27.7896 19.8693 27.8289 19.6349C27.8477 19.5224 27.9452 19.4399 28.0577 19.4399H28.3671C28.4346 19.2505 28.5359 19.0761 28.6653 18.9261L28.5115 18.6579C28.4552 18.5604 28.4759 18.4348 28.564 18.3635C28.7421 18.2154 28.9465 18.0973 29.1659 18.0148C29.2728 17.9754 29.3928 18.0166 29.4491 18.116L29.6028 18.3842C29.7997 18.3485 30.0004 18.3485 30.1973 18.3842L30.351 18.116C30.4073 18.0166 30.5273 17.9754 30.6342 18.0148C30.8554 18.0973 31.058 18.2154 31.2361 18.3635C31.3224 18.4348 31.3449 18.5604 31.2886 18.6579L31.1348 18.9261C31.2642 19.0761 31.3655 19.2505 31.433 19.4399H31.7424C31.8549 19.4399 31.9524 19.5205 31.9712 19.633C32.0087 19.858 32.0105 20.0943 31.9712 20.3287C31.9524 20.4412 31.8549 20.5237 31.7424 20.5237H31.433C31.3655 20.7131 31.2642 20.8875 31.1348 21.0375L31.2886 21.3057C31.3449 21.4032 31.3242 21.5288 31.2361 21.6001C31.058 21.7482 30.8536 21.8663 30.6342 21.9488C30.5273 21.9882 30.4073 21.947 30.351 21.8476L30.1973 21.5794C30.0023 21.6151 29.7997 21.6151 29.6028 21.5794ZM29.406 20.4768C30.1279 21.0319 30.9511 20.2087 30.396 19.4868C29.6741 18.9298 28.8509 19.7549 29.406 20.4768ZM27.2439 23.3627L27.8758 23.6777C28.0652 23.7865 28.1477 24.0171 28.0727 24.2234C27.9058 24.6772 27.5777 25.0935 27.2739 25.4573C27.1351 25.6241 26.8951 25.6654 26.7057 25.5566L26.1601 25.2416C25.86 25.4985 25.5113 25.7029 25.1306 25.836V26.4661C25.1306 26.6836 24.975 26.8711 24.7612 26.9086C24.2999 26.9874 23.8161 26.9911 23.338 26.9086C23.1223 26.8711 22.9629 26.6855 22.9629 26.4661V25.836C22.5823 25.701 22.2335 25.4985 21.9335 25.2416L21.3878 25.5548C21.2003 25.6635 20.9584 25.6223 20.8196 25.4554C20.5158 25.0916 20.1952 24.6753 20.0283 24.2234C19.9533 24.019 20.0358 23.7884 20.2252 23.6777L20.8496 23.3627C20.7765 22.9708 20.7765 22.5676 20.8496 22.1739L20.2252 21.857C20.0358 21.7482 19.9514 21.5176 20.0283 21.3132C20.1952 20.8594 20.5158 20.4431 20.8196 20.0793C20.9584 19.9124 21.1984 19.8712 21.3878 19.9799L21.9335 20.295C22.2335 20.0381 22.5823 19.8337 22.9629 19.7005V19.0686C22.9629 18.853 23.1167 18.6654 23.3305 18.6279C23.7917 18.5492 24.2774 18.5454 24.7556 18.6261C24.9712 18.6636 25.1306 18.8492 25.1306 19.0686V19.6987C25.5113 19.8337 25.86 20.0362 26.1601 20.2931L26.7057 19.9781C26.8932 19.8693 27.1351 19.9105 27.2739 20.0774C27.5777 20.4412 27.8965 20.8575 28.0633 21.3113C28.1383 21.5157 28.0652 21.7463 27.8758 21.857L27.2439 22.172C27.317 22.5658 27.317 22.9689 27.2439 23.3627ZM25.0387 23.7584C26.1488 22.3145 24.5005 20.6662 23.0567 21.7763C21.9466 23.2202 23.5948 24.8685 25.0387 23.7584ZM29.6028 27.1843L29.4491 27.4524C29.3928 27.5518 29.2728 27.5931 29.1659 27.5537C28.9447 27.4712 28.7421 27.353 28.564 27.2049C28.4778 27.1336 28.4552 27.008 28.5115 26.9105L28.6653 26.6423C28.5359 26.4923 28.4346 26.3179 28.3671 26.1286H28.0577C27.9452 26.1286 27.8477 26.0479 27.8289 25.9354C27.7914 25.7104 27.7896 25.4741 27.8289 25.2397C27.8477 25.1272 27.9452 25.0447 28.0577 25.0447H28.3671C28.4346 24.8553 28.5359 24.6809 28.6653 24.5309L28.5115 24.2628C28.4552 24.1653 28.4759 24.0396 28.564 23.9684C28.7421 23.8202 28.9465 23.7021 29.1659 23.6196C29.2728 23.5802 29.3928 23.6215 29.4491 23.7209L29.6028 23.989C29.7997 23.9534 30.0004 23.9534 30.1973 23.989L30.351 23.7209C30.4073 23.6215 30.5273 23.5802 30.6342 23.6196C30.8554 23.7021 31.058 23.8202 31.2361 23.9684C31.3224 24.0396 31.3449 24.1653 31.2886 24.2628L31.1348 24.5309C31.2642 24.6809 31.3655 24.8553 31.433 25.0447H31.7424C31.8549 25.0447 31.9524 25.1254 31.9712 25.2379C32.0087 25.4629 32.0105 25.6991 31.9712 25.9335C31.9524 26.0461 31.8549 26.1286 31.7424 26.1286H31.433C31.3655 26.3179 31.2642 26.4923 31.1348 26.6423L31.2886 26.9105C31.3449 27.008 31.3242 27.1336 31.2361 27.2049C31.058 27.353 30.8536 27.4712 30.6342 27.5537C30.5273 27.5931 30.4073 27.5518 30.351 27.4524L30.1973 27.1843C30.0023 27.2199 29.7997 27.2199 29.6028 27.1843ZM29.406 26.0798C30.1279 26.6348 30.9511 25.8117 30.396 25.0897C29.6741 24.5347 28.8509 25.3579 29.406 26.0798Z" fill="#C7762F"/>
</svg>
