<svg width="48" height="48" viewBox="0 0 48 48" fill="none" xmlns="http://www.w3.org/2000/svg">
<rect width="47.0222" height="47.0222" rx="10" fill="#27A0EC"/>
<g clip-path="url(#clip0_4_3103)">
<path d="M37.4488 23.0217L32.9522 20.7735L37.4488 18.5251C38.253 18.1231 38.2539 16.9712 37.4488 16.5685L24.5424 10.1154C24.2344 9.96155 23.8721 9.96155 23.564 10.1154L10.6577 16.5685C9.85345 16.9708 9.85259 18.1226 10.6577 18.5251L15.1543 20.7735L10.6577 23.0217C9.85345 23.4239 9.85259 24.5756 10.6577 24.9782L15.1543 27.2266L10.6577 29.4748C9.85345 29.8771 9.85259 31.0287 10.6577 31.4314L23.564 37.8846C23.8715 38.0381 24.2338 38.0388 24.5424 37.8846L37.4488 31.4314C38.253 31.0291 38.2539 29.8775 37.4488 29.4748L32.9522 27.2266L37.4488 24.9782C38.253 24.5762 38.2539 23.4243 37.4488 23.0217ZM24.0532 12.3165L34.5138 17.5469L24.0532 22.7771L13.5927 17.5469L24.0532 12.3165ZM34.5138 30.4532L24.0532 35.6834L13.5927 30.4532L17.6001 28.4494L23.564 31.4314C23.8717 31.585 24.2338 31.5856 24.5424 31.4314L30.5064 28.4494L34.5138 30.4532ZM24.0532 29.2302L13.5927 24.0001L17.6001 21.9963L23.564 24.9782C23.8717 25.1318 24.2338 25.1325 24.5424 24.9782L30.5064 21.9963L34.5138 24.0001L24.0532 29.2302Z" fill="white"/>
</g>
<defs>
<clipPath id="clip0_4_3103">
<rect width="28" height="28" fill="white" transform="translate(10 10)"/>
</clipPath>
</defs>
</svg>
