<svg width="48" height="48" viewBox="0 0 48 48" fill="none" xmlns="http://www.w3.org/2000/svg">
<rect width="47.0222" height="47.0222" rx="10" fill="#C7762F"/>
<path opacity="0.4" d="M23 30.25V33.225C23 35.5625 22.0625 36.5 19.7125 36.5H13.775C11.4375 36.5 10.5 35.5625 10.5 33.225V27.2875C10.5 24.9375 11.4375 24 13.775 24H16.75V26.9625C16.75 29.3125 17.6875 30.25 20.025 30.25H23Z" fill="white"/>
<path opacity="0.6" d="M29.25 24V26.9625C29.25 29.3125 28.3125 30.25 25.9625 30.25H20.025C17.6875 30.25 16.75 29.3125 16.75 26.9625V21.025C16.75 18.6875 17.6875 17.75 20.025 17.75H23V20.7125C23 23.0625 23.9375 24 26.275 24H29.25Z" fill="white"/>
<path d="M35.5 14.775V20.7125C35.5 23.0625 34.5625 24 32.2125 24H26.275C23.9375 24 23 23.0625 23 20.7125V14.775C23 12.4375 23.9375 11.5 26.275 11.5H32.2125C34.5625 11.5 35.5 12.4375 35.5 14.775Z" fill="white"/>
</svg>
