<svg width="46" height="46" viewBox="0 0 46 46" fill="none" xmlns="http://www.w3.org/2000/svg">
<circle cx="23" cy="23" r="23" fill="#C7762F"/>
<g clip-path="url(#clip0_4_3488)">
<path d="M32.9914 19.1123C32.9214 18.4785 32.3864 17.9998 31.7489 17.9998H29.2489V16.7498H31.7489C32.4389 16.7498 32.9989 16.1898 32.9989 15.4998V11.7498C32.9989 11.0598 32.4389 10.4998 31.7489 10.4998H24.2489C23.5589 10.4998 22.9989 11.0598 22.9989 11.7498V15.4998C22.9989 16.1898 23.5589 16.7498 24.2489 16.7498H26.7489V17.9998H21.7489V12.9998C21.7489 12.566 21.5239 12.1648 21.1564 11.9373C20.7877 11.7085 20.3264 11.6885 19.9402 11.8823L17.9989 12.8523L16.0577 11.8823C15.6714 11.6885 15.2102 11.7085 14.8414 11.9373C14.4739 12.1648 14.2489 12.566 14.2489 12.9998V17.9998C13.6114 17.9998 13.0777 18.4785 13.0064 19.1123L12.0039 29.2498H33.9939L32.9914 19.1123ZM16.7489 15.0235L17.4402 15.3673C17.7914 15.5435 18.2064 15.5435 18.5589 15.3673L19.2489 15.0235V17.9998H16.7489V15.0235ZM20.4989 22.9998H15.4989V20.4998H20.4989V22.9998ZM25.4989 14.2498V12.9998H30.4989V14.2498H25.4989ZM24.2489 26.7498C23.5589 26.7498 22.9989 26.191 22.9989 25.4998C22.9989 24.8098 23.5589 24.2498 24.2489 24.2498C24.9389 24.2498 25.4989 24.8098 25.4989 25.4998C25.4989 26.191 24.9389 26.7498 24.2489 26.7498ZM24.2489 22.9998C23.5589 22.9998 22.9989 22.441 22.9989 21.7498C22.9989 21.0598 23.5589 20.4998 24.2489 20.4998C24.9389 20.4998 25.4989 21.0598 25.4989 21.7498C25.4989 22.441 24.9389 22.9998 24.2489 22.9998ZM27.9989 26.7498C27.3089 26.7498 26.7489 26.191 26.7489 25.4998C26.7489 24.8098 27.3089 24.2498 27.9989 24.2498C28.6889 24.2498 29.2489 24.8098 29.2489 25.4998C29.2489 26.191 28.6889 26.7498 27.9989 26.7498ZM27.9989 22.9998C27.3089 22.9998 26.7489 22.441 26.7489 21.7498C26.7489 21.0598 27.3089 20.4998 27.9989 20.4998C28.6889 20.4998 29.2489 21.0598 29.2489 21.7498C29.2489 22.441 28.6889 22.9998 27.9989 22.9998Z" fill="white"/>
<path opacity="0.8" d="M34.25 30.5H11.75C11.06 30.5 10.5 31.06 10.5 31.75V35.5C10.5 36.19 11.06 36.75 11.75 36.75H34.25C34.94 36.75 35.5 36.19 35.5 35.5V31.75C35.5 31.06 34.94 30.5 34.25 30.5Z" fill="white"/>
</g>
<defs>
<clipPath id="clip0_4_3488">
<rect width="30" height="30" fill="white" transform="translate(8 8)"/>
</clipPath>
</defs>
</svg>
