<svg width="48" height="48" viewBox="0 0 48 48" fill="none" xmlns="http://www.w3.org/2000/svg">
<rect width="47.0222" height="47.0222" rx="10" fill="#C7762F"/>
<path d="M31.9335 23.4666C30.9414 23.4666 30.0421 23.8562 29.3738 24.4876L27.5678 22.9999L29.3738 21.5122C30.0421 22.1436 30.9414 22.5332 31.9335 22.5332C33.9952 22.5332 35.6668 20.8616 35.6668 18.7999C35.6668 16.7382 33.9952 15.0666 31.9335 15.0666C30.4028 15.0666 29.0887 15.9892 28.5124 17.3075L24.1318 16.019C23.8812 15.9444 23.625 16.0876 23.5526 16.335C23.4798 16.5823 23.6212 16.8418 23.8686 16.9141L28.2524 18.2035C28.2212 18.3981 28.2002 18.5964 28.2002 18.7999C28.2002 18.9684 28.2151 19.1331 28.2366 19.296L24.3264 20.3315L19.2206 16.1259C19.3265 15.9588 19.4222 15.7843 19.5006 15.6L22.4723 16.4488C22.5148 16.4605 22.5577 16.4666 22.6011 16.4666C22.8036 16.4666 22.9903 16.3331 23.0491 16.1278C23.1196 15.8804 22.9763 15.6219 22.728 15.551L19.7526 14.7012C19.781 14.515 19.8002 14.3264 19.8002 14.1332C19.8002 12.0715 18.1286 10.3999 16.0668 10.3999C14.0051 10.3999 12.3335 12.0715 12.3335 14.1332C12.3335 16.195 14.0051 17.8666 16.0668 17.8666C17.059 17.8666 17.9582 17.4769 18.6265 16.8455L26.0997 22.9999L24.1033 24.644L19.7638 23.4955C19.7852 23.3331 19.8002 23.1684 19.8002 22.9999C19.8002 22.8216 19.7834 22.648 19.7591 22.4768L21.3229 22.0502C21.5716 21.9821 21.7186 21.7259 21.6505 21.4772C21.5824 21.228 21.3234 21.0819 21.0774 21.1496L19.5169 21.5752C18.9569 20.2204 17.6236 19.2666 16.0668 19.2666C14.0051 19.2666 12.3335 20.9382 12.3335 22.9999C12.3335 25.0616 14.0051 26.7332 16.0668 26.7332C17.6334 26.7332 18.9732 25.7672 19.5267 24.3985L23.2152 25.3752L18.6265 29.1543C17.9582 28.5229 17.059 28.1332 16.0668 28.1332C14.0051 28.1332 12.3335 29.8048 12.3335 31.8666C12.3335 33.9283 14.0051 35.5999 16.0668 35.5999C18.1286 35.5999 19.8002 33.9283 19.8002 31.8666C19.8002 31.6468 19.7773 31.4335 19.7409 31.2244L22.2707 30.446C22.5171 30.37 22.6552 30.1086 22.5796 29.8627C22.5036 29.6168 22.2441 29.4768 21.9963 29.5538L19.4674 30.3317C19.3956 30.173 19.3125 30.02 19.2206 29.8744L24.3264 25.6692L28.2366 26.7043C28.2151 26.8667 28.2002 27.0314 28.2002 27.1999C28.2002 27.3931 28.2193 27.5816 28.2478 27.7678L25.2723 28.6176C25.0245 28.6886 24.8808 28.9471 24.9512 29.1944C25.01 29.3998 25.1967 29.5332 25.3997 29.5332C25.4426 29.5332 25.4856 29.5272 25.528 29.5155L28.4998 28.6666C29.0696 29.999 30.3921 30.9332 31.9335 30.9332C33.9952 30.9332 35.6668 29.2616 35.6668 27.1999C35.6668 25.1382 33.9952 23.4666 31.9335 23.4666ZM25.214 21.0618L28.4736 20.1985C28.5581 20.4066 28.6612 20.6045 28.7798 20.7921L26.8333 22.3956L25.214 21.0618ZM25.2135 24.9384L26.8338 23.6042L28.7802 25.2077C28.6617 25.3953 28.5581 25.5932 28.4741 25.8013L25.2135 24.9384Z" fill="white"/>
<path d="M23.5336 30C23.7913 30 24.0002 29.7911 24.0002 29.5333C24.0002 29.2756 23.7913 29.0667 23.5336 29.0667C23.2758 29.0667 23.0669 29.2756 23.0669 29.5333C23.0669 29.7911 23.2758 30 23.5336 30Z" fill="black"/>
</svg>
