<svg width="52" height="52" viewBox="0 0 52 52" fill="none" xmlns="http://www.w3.org/2000/svg">
<circle cx="26" cy="26" r="24.5" fill="#27A0EC" stroke="white" stroke-width="3"/>
<path opacity="0.6" d="M17.248 18.3457V22.6914H19.4453H21.6426L22.8242 24.1074L24.001 25.5234H27.5361H31.0664V19.7617V14H24.1572H17.248V18.3457ZM27.8926 17.8574V18.5898H24.3037H20.7148V17.8574V17.125H24.3037H27.8926V17.8574ZM27.8926 20.7871V21.5195H24.3037H20.7148V20.7871V20.0547H24.3037H27.8926V20.7871Z" fill="white"/>
<path opacity="0.6" d="M32.5801 20.4697V25.5234H33.459H34.3379L34.3281 20.4795L34.3135 15.4404L33.4492 15.4258L32.5801 15.416V20.4697Z" fill="white"/>
<path d="M14.3672 31.5781V39H25.5H36.6328V32.9941V26.9883H29.9727H23.3125L22.1309 25.5723L20.9492 24.1562H17.6582H14.3672V31.5781ZM34.1426 33.3359V34.0684H31.7256H29.3086V33.3359V32.6035H31.7256H34.1426V33.3359ZM34.1426 35.7773V36.5098H31.7256H29.3086V35.7773V35.0449H31.7256H34.1426V35.7773Z" fill="white"/>
</svg>
