<svg width="30" height="31" viewBox="0 0 30 31" fill="none" xmlns="http://www.w3.org/2000/svg">
<g clip-path="url(#clip0_12474_27247)">
<path d="M28.9571 10.6475H6.79045C6.23803 10.6475 5.77778 11.0325 5.65703 11.5481L2.15586 26.72C2.13603 26.804 2.12378 26.891 2.12378 26.9808C2.12378 27.6248 2.64645 28.1475 3.29045 28.1475H8.9097C14 28.1475 8.9097 28.1475 14 28.1475C19.8379 28.1475 14 28.1475 19.8379 28.1475H25.4571C26.0095 28.1475 26.4698 27.7625 26.5905 27.2468L30.0917 12.0749C30.1115 11.9909 30.1238 11.904 30.1238 11.8141C30.1238 11.1701 29.6011 10.6475 28.9571 10.6475Z" fill="#0A77DB"/>
<path d="M6.79053 8.89762H27.7905V3.06429C27.7905 1.77571 26.7458 0.730957 25.4572 0.730957H18.6444C17.8068 0.730957 17.0339 1.18012 16.6179 1.90696L14.9572 4.81429H2.12386C0.835277 4.81429 -0.209473 5.85904 -0.209473 7.14762V24.7223C-0.209473 25.0029 0.0186108 25.231 0.299777 25.231C0.536611 25.231 0.741944 25.0694 0.795611 24.8378C1.68286 20.9802 3.96953 11.1055 3.97711 11.0787C4.31544 9.78954 5.45761 8.89762 6.79053 8.89762Z" fill="#0A77DB" fill-opacity="0.5"/>
<g clip-path="url(#clip1_12474_27247)">
<path fill-rule="evenodd" clip-rule="evenodd" d="M11.6609 24.231C11.6609 24.231 10.9109 24.231 10.9109 23.481C10.9109 22.731 11.6609 20.481 15.4109 20.481C19.1609 20.481 19.9109 22.731 19.9109 23.481C19.9109 24.231 19.1609 24.231 19.1609 24.231H11.6609ZM15.4109 19.731C16.0076 19.731 16.5799 19.4939 17.0019 19.0719C17.4238 18.65 17.6609 18.0777 17.6609 17.481C17.6609 16.8842 17.4238 16.3119 17.0019 15.89C16.5799 15.468 16.0076 15.231 15.4109 15.231C14.8142 15.231 14.2419 15.468 13.8199 15.89C13.3979 16.3119 13.1609 16.8842 13.1609 17.481C13.1609 18.0777 13.3979 18.65 13.8199 19.0719C14.2419 19.4939 14.8142 19.731 15.4109 19.731Z" fill="white" fill-opacity="0.9"/>
<path fill-rule="evenodd" clip-rule="evenodd" d="M20.6609 19.356C20.6609 19.2565 20.7004 19.1611 20.7707 19.0908C20.841 19.0205 20.9364 18.981 21.0359 18.981H22.5359C22.6353 18.981 22.7307 19.0205 22.8011 19.0908C22.8714 19.1611 22.9109 19.2565 22.9109 19.356C22.9109 19.4554 22.8714 19.5508 22.8011 19.6211C22.7307 19.6914 22.6353 19.731 22.5359 19.731H21.4109V20.856C21.4109 20.9554 21.3714 21.0508 21.3011 21.1211C21.2307 21.1914 21.1353 21.231 21.0359 21.231C20.9364 21.231 20.841 21.1914 20.7707 21.1211C20.7004 21.0508 20.6609 20.9554 20.6609 20.856V19.356Z" fill="white" fill-opacity="0.9"/>
<path d="M21.3011 17.5908C21.2307 17.5205 21.1353 17.481 21.0359 17.481C20.9364 17.481 20.841 17.5205 20.7707 17.5908C20.7004 17.6611 20.6609 17.7565 20.6609 17.856V18.981H19.5359C19.4364 18.981 19.341 19.0205 19.2707 19.0908C19.2004 19.1611 19.1609 19.2565 19.1609 19.356C19.1609 19.4554 19.2004 19.5508 19.2707 19.6211C19.341 19.6914 19.4364 19.731 19.5359 19.731H21.0359C21.1353 19.731 21.2307 19.6914 21.3011 19.6211C21.3714 19.5508 21.4109 19.4554 21.4109 19.356V17.856C21.4109 17.7565 21.3714 17.6611 21.3011 17.5908Z" fill="white" fill-opacity="0.9"/>
</g>
</g>
<defs>
<clipPath id="clip0_12474_27247">
<rect width="30" height="30" fill="white" transform="translate(-0.0012207 0.230957)"/>
</clipPath>
<clipPath id="clip1_12474_27247">
<rect width="12" height="12" fill="white" transform="translate(10.9109 13.731)"/>
</clipPath>
</defs>
</svg>
