<svg width="46" height="46" viewBox="0 0 46 46" fill="none" xmlns="http://www.w3.org/2000/svg">
<circle cx="23" cy="23" r="23" fill="#EE4428"/>
<g clip-path="url(#clip0_4_3434)">
<path d="M34.2495 10.5H22.9995C20.932 10.5 19.2495 12.1825 19.2495 14.25V25.5H25.4995C27.9995 25.5 29.2495 28 29.2495 29.25V31.75C28.557 31.75 27.9995 31.0662 27.9995 30.5C27.9995 28.5725 26.177 26.75 24.2495 26.75H14.2495C9.52945 26.75 8.0832 33.7088 8.02445 34.005C7.9507 34.3725 8.0457 34.7538 8.2832 35.0425C8.5207 35.3325 8.87445 35.5 9.24945 35.5H19.2495C19.9395 35.5 20.4995 34.94 20.4995 34.25H29.2495C31.317 34.25 32.9995 32.5675 32.9995 30.5V19.25H36.7495C37.4395 19.25 37.9995 18.69 37.9995 18V14.25C37.9995 12.1825 36.317 10.5 34.2495 10.5ZM20.9582 31.75C21.4232 30.5 22.3582 29.25 24.2495 29.25C24.8107 29.25 25.4995 29.94 25.4995 30.5C25.4995 30.935 25.5957 31.3538 25.7457 31.75H20.9582ZM30.4995 24.25H21.7495V21.75H30.4995V24.25ZM30.4995 20.5H21.7495V18H30.4995V20.5ZM30.4995 16.75H21.7495V14.25H30.4995V16.75ZM35.4995 16.75H32.9995V14.25C32.9995 13.56 33.5607 13 34.2495 13C34.9382 13 35.4995 13.56 35.4995 14.25V16.75Z" fill="white"/>
</g>
<defs>
<clipPath id="clip0_4_3434">
<rect width="30" height="30" fill="white" transform="translate(8 8)"/>
</clipPath>
</defs>
</svg>
