<svg width="46" height="46" viewBox="0 0 46 46" fill="none" xmlns="http://www.w3.org/2000/svg">
<circle cx="23" cy="23" r="23" fill="#1DB054"/>
<path opacity="0.8" d="M37.8202 25.4099C37.8202 22.9742 35.8452 21 33.4101 21C30.975 21 29 22.9742 29 25.4099C29 28.3499 33.4101 33.4948 33.4101 33.4948C33.4101 33.4948 37.8202 28.3499 37.8202 25.4099ZM31.5726 25.4099C31.5726 24.3957 32.3958 23.5725 33.4101 23.5725C34.4245 23.5725 35.2477 24.3957 35.2477 25.4099C35.2477 26.4242 34.4245 27.2474 33.4101 27.2474C32.3958 27.2474 31.5726 26.4242 31.5726 25.4099Z" fill="white"/>
<path d="M36.3504 34.23H30.4702V35.7H36.3504V34.23Z" fill="white"/>
<path d="M16.2027 28.338H12.959V25.1301H16.2027V28.338ZM13.6567 27.648H15.505V25.8201H13.6567V27.648Z" fill="white"/>
<path d="M26.6678 28.338H23.4243V25.1301H26.6678V28.338ZM24.122 27.648H25.9701V25.8201H24.122V27.648Z" fill="white"/>
<path d="M16.1307 15.9179H12.8872V12.71H16.1309V15.9179H16.1307ZM13.5849 15.2279H15.4333V13.4H13.5849V15.2279Z" fill="white"/>
<path d="M20.3167 15.9179H17.0732V12.71H20.317V15.9179H20.3167ZM17.7709 15.2279H19.6193V13.4H17.7709V15.2279Z" fill="white"/>
<path d="M16.1307 20.058H12.8872V16.8499H16.1309V20.058H16.1307ZM13.5849 19.368H15.4333V17.5401H13.5849V19.368Z" fill="white"/>
<path d="M20.3167 20.058H17.0732V16.8499H20.317V20.058H20.3167ZM17.7709 19.368H19.6193V17.5401H17.7709V19.368Z" fill="white"/>
<path d="M16.1307 24.1981H12.8872V20.99H16.1309V24.1981H16.1307ZM13.5849 23.5081H15.4333V21.6802H13.5849V23.5081Z" fill="white"/>
<path d="M20.3167 24.1981H17.0732V20.99H20.317V24.1981H20.3167ZM17.7709 23.5081H19.6193V21.6802H17.7709V23.5081Z" fill="white"/>
<path d="M26.596 20.058H23.3525V16.8499H26.596V20.058ZM24.0502 19.368H25.8984V17.5401H24.0502V19.368Z" fill="white"/>
<path d="M26.596 24.1981H23.3525V20.99H26.596V24.1981ZM24.0502 23.5081H25.8984V21.6802H24.0502V23.5081Z" fill="white"/>
<path d="M28.452 31.4321V15.2279H22.1883V11.1919H11.0255V31.4321H9.73877V32.1221H17.1448H20.3885H29.7388V31.4321H28.452ZM27.7544 15.9179V31.4321H22.1883V15.9179H27.7544ZM17.8425 31.4321V25.8203H19.6909V31.4321H17.8425ZM17.1448 25.1303V31.4321H11.7232V11.8819H21.4906V31.4321H20.3885V25.1303H17.1448Z" fill="white"/>
</svg>
