<svg width="46" height="46" viewBox="0 0 46 46" fill="none" xmlns="http://www.w3.org/2000/svg">
<circle cx="23" cy="23" r="23" fill="#FFDA00"/>
<path d="M39.5071 27.4473L36.5011 25.7114C36.8045 24.0744 36.8045 22.3949 36.5011 20.7578L39.5071 19.022C39.8529 18.8244 40.0081 18.4151 39.8952 18.0341C39.1119 15.522 37.7783 13.2498 36.0353 11.3587C35.7672 11.0694 35.3297 10.9988 34.991 11.1964L31.9849 12.9323C30.7218 11.8456 29.2682 11.0059 27.6946 10.4555V6.99075C27.6946 6.59559 27.4194 6.24983 27.0313 6.16515C24.4416 5.58652 21.7884 5.61475 19.3257 6.16515C18.9376 6.24983 18.6624 6.59559 18.6624 6.99075V10.4625C17.0959 11.02 15.6423 11.8597 14.3721 12.9393L11.3731 11.2034C11.0274 11.0059 10.5969 11.0694 10.3288 11.3657C8.58586 13.2498 7.25219 15.522 6.46893 18.0411C6.34897 18.4222 6.51127 18.8314 6.85703 19.029L9.86307 20.7649C9.55964 22.402 9.55964 24.0814 9.86307 25.7185L6.85703 27.4544C6.51127 27.652 6.35603 28.0612 6.46893 28.4423C7.25219 30.9544 8.58586 33.2265 10.3288 35.1177C10.5969 35.407 11.0344 35.4775 11.3731 35.28L14.3792 33.5441C15.6423 34.6308 17.0959 35.4705 18.6695 36.0209V39.4926C18.6695 39.8878 18.9447 40.2336 19.3328 40.3182C21.9225 40.8969 24.5757 40.8686 27.0384 40.3182C27.4265 40.2336 27.7017 39.8878 27.7017 39.4926V36.0209C29.2682 35.4634 30.7218 34.6237 31.992 33.5441L34.998 35.28C35.3438 35.4775 35.7742 35.414 36.0424 35.1177C37.7853 33.2336 39.119 30.9614 39.9023 28.4423C40.0081 28.0542 39.8529 27.6449 39.5071 27.4473ZM23.1785 28.8798C20.0667 28.8798 17.5334 26.3465 17.5334 23.2346C17.5334 20.1228 20.0667 17.5895 23.1785 17.5895C26.2904 17.5895 28.8237 20.1228 28.8237 23.2346C28.8237 26.3465 26.2904 28.8798 23.1785 28.8798Z" fill="white"/>
<circle cx="23" cy="23" r="10" fill="#FFDA00"/>
<path d="M30.0272 18.8009L23.209 14.71C22.9929 14.5804 22.7236 14.5804 22.5075 14.71L15.6893 18.8009C15.4261 18.9584 15.3013 19.272 15.3824 19.5679C15.4642 19.8625 15.7329 20.067 16.0397 20.067V29.6125H17.4033V20.067H28.3125V29.6125H29.6761V20.067C29.9829 20.067 30.2516 19.8625 30.3334 19.5679C30.4145 19.272 30.2897 18.9584 30.0272 18.8009Z" fill="white"/>
<path opacity="0.8" d="M20.8125 20.749V24.8399H24.9034V20.749H23.5398V22.1127H22.1761V20.749H20.8125Z" fill="white"/>
<path opacity="0.8" d="M20.8127 26.8856H19.4491V25.522H18.0854V29.6129H22.1764V25.522H20.8127V26.8856Z" fill="white"/>
<path opacity="0.8" d="M26.2673 26.8856H24.9037V25.522H23.54V29.6129H27.631V25.522H26.2673V26.8856Z" fill="white"/>
</svg>
