<svg width="46" height="46" viewBox="0 0 46 46" fill="none" xmlns="http://www.w3.org/2000/svg">
<circle cx="23" cy="23" r="23" fill="#FFDA00"/>
<path d="M24.468 33.4669C24.085 33.0669 23.702 32.8669 23.1913 32.8002C22.4254 32.7335 21.8509 33.1335 21.4041 33.7335C20.8934 34.4669 20.7019 35.2669 20.7658 36.1335C20.8296 37.4669 21.4679 38.4669 22.6807 38.9335C22.7445 38.9335 22.8083 38.9335 22.8722 39.0002C22.936 39.0002 23.0637 39.0002 23.1275 39.0002C23.2552 39.0002 23.3828 39.0002 23.5743 38.9335C23.5105 38.9335 23.5105 38.9335 23.4467 38.9335C23.8935 38.8002 24.2765 38.6002 24.5956 38.2669C25.6807 37.0669 25.6169 34.6669 24.468 33.4669Z" fill="white" fill-opacity="0.4"/>
<path d="M15.149 9C15.2767 9 15.4043 9.06667 15.532 9.06667C16.8724 9.46667 17.7022 10.4667 18.0214 11.8667C18.149 12.3333 18.149 12.8 17.9575 13.3333C17.6384 14.4 16.6809 15 15.5958 14.7333C14.1916 14.4 13.3618 13.4 12.9788 12C12.7873 11.3333 12.8511 10.7333 13.1703 10.0667C13.5533 9.46667 14.0001 9.13333 14.6384 9C14.7022 9 14.766 9 14.766 9C14.9575 9 15.0214 9 15.149 9Z" fill="white" fill-opacity="0.4"/>
<path d="M38 27.3998C37.7447 28.3998 37.1702 28.9332 36.2766 29.1332C34.9362 29.5332 33.2766 28.8665 32.5744 27.5998C32.1276 26.8665 32.0638 26.1332 32.4468 25.3998C32.7659 24.7998 33.2766 24.4665 33.9149 24.2665C35.2553 23.9332 36.7872 24.5332 37.5532 25.6665C37.7447 25.9998 37.8723 26.2665 37.9362 26.6665V26.7332C38 26.9998 38 27.1998 38 27.3998Z" fill="white" fill-opacity="0.4"/>
<path d="M31.2339 9C31.3615 9 31.4892 9.06667 31.553 9.06667C32.3828 9.33333 32.8935 9.93333 33.0211 10.8C33.2126 12.0667 32.702 13.1333 31.8722 13.9333C31.4254 14.4 30.8509 14.6667 30.2126 14.7333C29.0637 14.8667 28.1062 14.1333 27.9786 12.8667C27.7232 11.1333 29.0637 9.26667 30.7871 9C30.8509 9 30.8509 9 30.9147 9C30.9786 9 31.1062 9 31.2339 9Z" fill="white" fill-opacity="0.4"/>
<path d="M8 26.8664C8 26.733 8.06383 26.5997 8.06383 26.533C8.25532 25.8664 8.6383 25.333 9.21277 24.933C10.2341 24.1997 11.3192 23.9997 12.5319 24.4664C13.2979 24.7997 13.8085 25.3997 13.8724 26.333C13.8724 26.933 13.6809 27.4664 13.2979 27.933C12.4043 29.0664 10.6809 29.5997 9.40426 28.9997C8.6383 28.733 8.12766 28.133 8 27.333V27.2664C8 27.133 8 26.9997 8 26.8664Z" fill="white" fill-opacity="0.4"/>
<path d="M31.6809 27.6669C30.7873 28.8002 29.5745 29.7335 28.8085 29.8668C28.8085 29.8002 28.8085 29.7335 28.8723 29.6002C28.9362 29.2668 28.9362 28.9335 28.9362 28.6002C28.8723 28.2002 28.6808 28.0002 28.3617 27.8002C28.0425 27.6002 27.7234 27.5335 27.3404 27.4669C27.2127 27.4669 27.085 27.4002 26.8936 27.4002C26.9574 27.1335 27.0212 26.8002 27.085 26.5335C27.5957 24.5335 28.1702 22.6002 29 20.7335C29.1277 20.4002 29.3192 20.0669 29.5107 19.7335C29.5745 19.6669 29.6383 19.5335 29.7021 19.4669C29.8936 19.2002 30.0851 19.1335 30.4043 19.2669C31.3618 19.6669 32.0001 20.4002 32.3831 21.4002C32.6384 22.1335 32.7661 22.9335 32.8299 23.8002C32.8299 23.8669 32.7661 23.9335 32.7022 23.9335C32.0639 24.2669 31.6171 24.6669 31.3618 25.3335C31.1064 26.0002 31.1703 26.6669 31.4894 27.3335C31.5533 27.4669 31.6171 27.5335 31.6809 27.6669Z" fill="white"/>
<path d="M14.1912 20.3335C14.3827 20.6002 14.5104 20.9335 14.7019 21.1335C15.0848 21.6668 15.4678 21.8668 16.17 21.6002C16.4891 21.5335 16.7444 21.3335 16.9997 21.2002C17.0636 21.2002 17.1274 21.1335 17.1912 21.0668C17.3189 21.4002 17.4466 21.7335 17.5742 22.1335C18.2764 24.0002 18.8508 25.9335 19.2338 27.9335C19.2976 28.3335 19.3615 28.7335 19.3615 29.1335C19.3615 29.5335 19.2338 29.7335 18.8508 29.8002C17.8295 30.0668 16.9359 29.8668 16.0423 29.2668C15.404 28.8002 14.8933 28.2668 14.3827 27.6668C14.3189 27.6002 14.3189 27.5335 14.3827 27.4668C14.638 27.0002 14.7657 26.5335 14.7657 26.0668C14.7019 25.0668 14.1912 24.3335 13.3614 23.9335C13.2338 23.8668 13.1699 23.8002 13.1699 23.6668C13.2338 22.7335 13.4252 21.8668 13.8082 21.0668C13.9359 20.8002 14.0635 20.6002 14.1912 20.3335Z" fill="white"/>
<path d="M22.5536 16.4001C22.2345 16.6668 21.9153 16.9334 21.66 17.2001C20.1919 18.4668 18.66 19.6001 17.0004 20.5334C16.6812 20.7334 16.3621 20.8668 16.1068 21.0001C16.0429 21.0668 15.9153 21.0668 15.7876 21.1334C15.4685 21.2001 15.3408 21.1334 15.1493 20.8668C14.4472 19.8001 14.4472 18.6668 14.894 17.4668C15.0855 16.8668 15.4046 16.2668 15.7238 15.6668C15.7876 15.6001 15.8515 15.6001 15.9153 15.6001C16.3621 15.6668 16.8089 15.7334 17.2557 15.5334C18.1493 15.2001 18.66 14.4668 18.7876 13.4668C18.7876 13.3334 18.8515 13.2668 18.9791 13.2001C19.8089 13.0001 20.5749 12.9334 21.4047 13.0001C21.7238 13.0001 22.043 13.0668 22.3621 13.2001C22.1706 13.4668 21.9153 13.6668 21.7238 13.9334C21.3408 14.4001 21.4047 14.9334 21.7238 15.4001C21.9153 15.7334 22.2345 16.0001 22.4898 16.2668C22.4898 16.3334 22.5536 16.3334 22.5536 16.4001Z" fill="white"/>
<path d="M31.362 19.0667C31.0429 18.8667 30.7237 18.6667 30.3408 18.6C29.9578 18.5333 29.6386 18.6667 29.3833 18.9333C29.128 19.2 28.9365 19.5333 28.8088 19.8667C28.745 20 28.6812 20.1333 28.6173 20.2667C28.5535 20.2667 28.5535 20.2667 28.4897 20.2C26.511 18.9333 24.6599 17.5333 23.0003 15.9333C22.8088 15.7333 22.6173 15.5333 22.4258 15.2667C22.362 15.1333 22.2343 15.0667 22.1705 14.9333C22.0429 14.7333 22.0429 14.5333 22.2343 14.3333C22.9365 13.4 23.8301 13 24.979 13C25.6812 13 26.4471 13.1333 27.1493 13.2667C27.2131 13.2667 27.2131 13.3333 27.2769 13.4C27.3407 13.8 27.4046 14.1333 27.5961 14.5333C28.1067 15.4667 29.128 15.8667 30.1493 15.6667C30.2131 15.6667 30.2769 15.6 30.3408 15.7333C30.7876 16.5333 31.1705 17.3333 31.362 18.2C31.362 18.4667 31.362 18.8 31.362 19.0667C31.4259 19.0667 31.362 19.0667 31.362 19.0667Z" fill="white"/>
<path d="M19.8722 27.9332C20.2551 27.9332 20.6381 27.8665 21.0211 27.8665C22.7445 27.7999 24.4679 27.7999 26.1913 27.9332C26.7019 27.9999 27.1487 28.0665 27.6593 28.1999C27.7232 28.1999 27.8508 28.2665 27.9146 28.2665C28.2338 28.3999 28.2976 28.5999 28.2976 28.9332C28.2338 30.0665 27.787 30.9332 26.8934 31.5999C26.3189 32.0665 25.6168 32.4665 24.9147 32.7332C24.8508 32.7999 24.787 32.7332 24.7232 32.6665C24.3402 32.2665 23.9572 31.9332 23.4466 31.8665C22.553 31.6665 21.787 31.9999 21.1488 32.6665C21.0849 32.7332 21.0211 32.7999 20.8934 32.7332C20.1913 32.3999 19.4892 31.9999 18.8509 31.4665C18.6594 31.2665 18.4679 31.0665 18.2764 30.8665C18.2126 30.7999 18.1488 30.7332 18.085 30.5999C18.2764 30.5999 18.4679 30.5332 18.5956 30.5332C18.7871 30.4665 18.9786 30.3999 19.1701 30.3332C19.6169 30.1332 19.8083 29.7999 19.8083 29.3332C19.8722 28.9332 19.7445 28.4665 19.6807 28.0665C19.8722 28.0665 19.8722 27.9999 19.8722 27.9332Z" fill="white"/>
</svg>
