<svg width="48" height="48" viewBox="0 0 48 48" fill="none" xmlns="http://www.w3.org/2000/svg">
<rect width="47.0222" height="47.0222" rx="10" fill="#1DB054"/>
<path fill-rule="evenodd" clip-rule="evenodd" d="M17.7149 20.9292L17.5745 20.6483L19.3634 19.7539L19.5038 20.0348C20.045 21.1172 20.045 22.3913 19.5038 23.4737C19.1487 24.1839 19.2879 25.0418 19.8494 25.6032L19.9526 25.7065L18.5384 27.1207L18.4352 27.0175C17.2649 25.8472 16.9748 24.0595 17.7149 22.5793C17.9746 22.0599 17.9746 21.4486 17.7149 20.9292ZM30.894 27.9664H15.3628C15.3628 30.3056 16.6556 32.3428 18.5657 33.4025H18.4689V35.7322H27.7876V33.4025H27.691C29.6011 32.3428 30.894 30.3056 30.894 27.9664ZM20.6809 20.6483L20.8213 20.9292C21.081 21.4486 21.081 22.0599 20.8213 22.5793C20.0812 24.0595 20.3713 25.8472 21.5415 27.0175L21.6447 27.1207L23.059 25.7065L22.9557 25.6032C22.3942 25.0418 22.255 24.1839 22.6102 23.4737C23.1514 22.3913 23.1514 21.1172 22.6102 20.0348L22.4697 19.7539L20.6809 20.6483ZM23.9277 20.9292L23.7872 20.6483L25.5761 19.7539L25.7165 20.0348C26.2577 21.1172 26.2577 22.3913 25.7165 23.4737C25.3614 24.1839 25.5006 25.0418 26.0621 25.6032L26.1653 25.7065L24.7511 27.1207L24.6479 27.0175C23.4777 25.8472 23.1875 24.0595 23.9277 22.5793C24.1873 22.0599 24.1873 21.4486 23.9277 20.9292ZM26.8934 20.6483L27.0338 20.9292C27.2935 21.4486 27.2935 22.0599 27.0338 22.5793C26.2937 24.0595 26.5838 25.8472 27.754 27.0175L27.8572 27.1207L29.2715 25.7065L29.1682 25.6032C28.6067 25.0418 28.4675 24.1839 28.8227 23.4737C29.3639 22.3913 29.3639 21.1172 28.8227 20.0348L28.6822 19.7539L26.8934 20.6483Z" fill="white"/>
<path opacity="0.8" d="M38.2946 13.9346L23.7491 5.20727C23.288 4.93091 22.7134 4.93091 22.2524 5.20727L7.70686 13.9346C7.1454 14.2706 6.87922 14.9397 7.05231 15.5709C7.22686 16.1993 7.79995 16.6357 8.4545 16.6357V36.9994H11.3636V16.6357H34.6364V36.9994H37.5455V16.6357C38.2 16.6357 38.7731 16.1993 38.9477 15.5709C39.1208 14.9397 38.8546 14.2706 38.2946 13.9346Z" fill="white"/>
</svg>
