<svg width="46" height="46" viewBox="0 0 46 46" fill="none" xmlns="http://www.w3.org/2000/svg">
<circle cx="23" cy="23" r="23" fill="#1DB054"/>
<g clip-path="url(#clip0_4_3661)">
<path d="M31.9328 12.4722H29.3287V9.65104C29.3287 9.29297 29.0357 9 28.6776 9H26.5075C26.1494 9 25.8564 9.29297 25.8564 9.65104V12.4722H18.912V9.65104C18.912 9.29297 18.619 9 18.261 9H16.0908C15.7327 9 15.4398 9.29297 15.4398 9.65104V12.4722H12.8356C11.3979 12.4722 10.2314 13.6387 10.2314 15.0764V34.1736C10.2314 35.6113 11.3979 36.7778 12.8356 36.7778H31.9328C33.3706 36.7778 34.537 35.6113 34.537 34.1736V15.0764C34.537 13.6387 33.3706 12.4722 31.9328 12.4722ZM31.6073 34.1736H13.1611C12.9821 34.1736 12.8356 34.0271 12.8356 33.8481V17.6806H31.9328V33.8481C31.9328 34.0271 31.7864 34.1736 31.6073 34.1736Z" fill="white"/>
<path opacity="0.8" d="M28.4526 23.5228C28.3602 23.2985 28.1406 23.1517 27.8982 23.1517H24.6689L23.0345 19.8761C22.8311 19.469 22.1644 19.469 21.961 19.8761L20.3272 23.1517H17.0979C16.8555 23.1517 16.6359 23.2985 16.5435 23.5228C16.4511 23.7471 16.5021 24.0069 16.6737 24.1782L19.4242 26.9349L18.3213 30.8046C18.2523 31.047 18.3411 31.3067 18.5439 31.4553C18.748 31.6044 19.0222 31.6098 19.2304 31.4697L22.4981 29.2868L25.7651 31.4697C25.8659 31.5371 25.9817 31.5707 26.0981 31.5707C26.2223 31.5707 26.3465 31.5323 26.4521 31.4553C26.655 31.3067 26.7438 31.047 26.6748 30.8046L25.5719 26.9349L28.3224 24.1782C28.494 24.0069 28.545 23.7471 28.4526 23.5228Z" fill="white"/>
</g>
<defs>
<clipPath id="clip0_4_3661">
<rect width="25" height="27.7778" fill="white" transform="translate(10 9)"/>
</clipPath>
</defs>
</svg>
