<svg width="48" height="48" viewBox="0 0 48 48" fill="none" xmlns="http://www.w3.org/2000/svg">
<rect width="47.0222" height="47.0222" rx="10" fill="#EE4428"/>
<path d="M14 22.9572V12.0916H32V22.9572L35 21.2163V9.04541H11V21.2163L14 22.9572Z" fill="white"/>
<path d="M27.899 28.8466H18.101L8 22.9858V36.462C8 38.1435 9.344 39.5082 11 39.5082H35C36.656 39.5082 38 38.1435 38 36.462V22.9858L27.899 28.8466Z" fill="white"/>
<g opacity="0.8">
<g clip-path="url(#clip0_4_3669)">
<path d="M17.6898 21.5237C18.5053 21.5237 19.1683 20.8607 19.1683 20.0453C19.1683 19.2298 18.5053 18.5668 17.6898 18.5668C16.8744 18.5668 16.2114 19.2298 16.2114 20.0453C16.2114 20.8607 16.8744 21.5237 17.6898 21.5237ZM28.0389 21.5237C28.8544 21.5237 29.5174 20.8607 29.5174 20.0453C29.5174 19.2298 28.8544 18.5668 28.0389 18.5668C27.2235 18.5668 26.5605 19.2298 26.5605 20.0453C26.5605 20.8607 27.2235 21.5237 28.0389 21.5237ZM28.7782 22.2629H27.2997C26.8931 22.2629 26.5258 22.4269 26.2579 22.6926C27.1888 23.2031 27.8495 24.1248 27.9927 25.2198H29.5174C29.9263 25.2198 30.2566 24.8895 30.2566 24.4806V23.7414C30.2566 22.9259 29.5936 22.2629 28.7782 22.2629ZM22.8644 22.2629C24.2943 22.2629 25.4517 21.1056 25.4517 19.6757C25.4517 18.2457 24.2943 17.0884 22.8644 17.0884C21.4345 17.0884 20.2771 18.2457 20.2771 19.6757C20.2771 21.1056 21.4345 22.2629 22.8644 22.2629ZM24.6385 23.0021H24.4468C23.9663 23.2332 23.4327 23.3718 22.8644 23.3718C22.2961 23.3718 21.7648 23.2332 21.282 23.0021H21.0903C19.621 23.0021 18.4291 24.1941 18.4291 25.6633V26.3286C18.4291 26.9408 18.9257 27.4375 19.5379 27.4375H26.1909C26.803 27.4375 27.2997 26.9408 27.2997 26.3286V25.6633C27.2997 24.1941 26.1077 23.0021 24.6385 23.0021ZM19.4709 22.6926C19.2029 22.4269 18.8356 22.2629 18.4291 22.2629H16.9506C16.1352 22.2629 15.4722 22.9259 15.4722 23.7414V24.4806C15.4722 24.8895 15.8025 25.2198 16.2114 25.2198H17.7337C17.8793 24.1248 18.5399 23.2031 19.4709 22.6926Z" fill="white"/>
</g>
</g>
<defs>
<clipPath id="clip0_4_3669">
<rect width="14.7844" height="14.7844" fill="white" transform="translate(15.4722 14.6243)"/>
</clipPath>
</defs>
</svg>
