<svg width="48" height="48" viewBox="0 0 48 48" fill="none" xmlns="http://www.w3.org/2000/svg">
<rect width="47.0222" height="47.0222" rx="10" fill="#27A0EC"/>
<path d="M14.1335 15C15.7536 15 17.0669 13.6867 17.0669 12.0666C17.0669 10.4466 15.7536 9.1333 14.1335 9.1333C12.5135 9.1333 11.2002 10.4466 11.2002 12.0666C11.2002 13.6867 12.5135 15 14.1335 15Z" fill="white"/>
<path d="M18.6668 23.0002H9.6001V18.7336C9.6001 17.2605 10.7937 16.0669 12.2668 16.0669H16.0001C17.4732 16.0669 18.6668 17.2605 18.6668 18.7336V23.0002Z" fill="white"/>
<path d="M21.0666 29.3999C22.6867 29.3999 24 28.0866 24 26.4665C24 24.8465 22.6867 23.5332 21.0666 23.5332C19.4466 23.5332 18.1333 24.8465 18.1333 26.4665C18.1333 28.0866 19.4466 29.3999 21.0666 29.3999Z" fill="white"/>
<path d="M16.5332 36.8668V33.1335C16.5332 31.6604 17.7268 30.4668 19.1999 30.4668H22.9332C24.4063 30.4668 25.5999 31.6604 25.5999 33.1335V36.8668H16.5332Z" fill="white"/>
<path d="M33.3334 20.3332C35.248 20.3332 36.8 18.7812 36.8 16.8666C36.8 14.952 35.248 13.3999 33.3334 13.3999C31.4188 13.3999 29.8667 14.952 29.8667 16.8666C29.8667 18.7812 31.4188 20.3332 33.3334 20.3332Z" fill="white"/>
<path d="M28.2666 30.4666V24.0666C28.2666 22.5935 29.4602 21.3999 30.9333 21.3999H35.7333C37.2063 21.3999 38.3999 22.5935 38.3999 24.0666V30.4666H28.2666Z" fill="white"/>
<path opacity="0.6" d="M28.4665 13.5521C27.6468 13.0737 24.8489 10.7334 19.4665 10.7334C19.0249 10.7334 18.6665 11.0918 18.6665 11.5334C18.6665 11.975 19.0249 12.3334 19.4665 12.3334C22.4425 12.3334 25.1022 13.0961 27.5177 14.8347C27.6521 14.9371 27.818 15.0001 27.9998 15.0001C28.4414 15.0001 28.7998 14.6417 28.7998 14.2001C28.7998 13.9329 28.6681 13.6971 28.4665 13.5521Z" fill="white"/>
<path opacity="0.6" d="M26.1465 19.7469C26.4499 19.6338 26.6665 19.3431 26.6665 19.0002C26.6665 18.5586 26.3081 18.2002 25.8665 18.2002C25.8073 18.2002 25.7497 18.2077 25.6942 18.2199C23.9678 18.7378 22.4259 19.5506 21.1342 20.4855C20.9321 20.6306 20.7998 20.8658 20.7998 21.1335C20.7998 21.5751 21.1582 21.9335 21.5998 21.9335C21.7811 21.9335 21.9481 21.8733 22.0825 21.7709C23.2931 20.8994 24.6793 20.1757 26.1465 19.7469Z" fill="white"/>
</svg>
