<svg width="46" height="46" viewBox="0 0 46 46" fill="none" xmlns="http://www.w3.org/2000/svg">
<circle cx="23" cy="23" r="23" fill="#1DB054"/>
<path d="M27.7499 30.4667C28.1008 30.8857 28.1335 31.3762 28.1335 31.8667H34.2001V23.9585C34.2001 22.4904 33.4464 21.1259 32.2046 20.3433L29.0668 18.3665V24.4L26.8921 21.9827C26.6789 21.7489 26.3746 21.6 26.0335 21.6C25.3442 21.6 24.8593 22.1665 24.8668 22.7802C24.8696 22.9902 24.9317 23.1848 25.0311 23.3542L26.7344 26.3469C26.7311 27.7096 26.8767 29.4223 27.7499 30.4667Z" fill="white"/>
<path opacity="0.6" d="M35.1334 35.5999H27.2001C26.942 35.5999 26.7334 35.3913 26.7334 35.1333V34.6666C26.7334 33.8933 27.3601 33.2666 28.1334 33.2666H34.2001C34.9729 33.2666 35.6001 33.8933 35.6001 34.6666V35.1333C35.6001 35.3913 35.3915 35.5999 35.1334 35.5999Z" fill="white"/>
<path opacity="0.6" d="M27.3364 14.5999H23.9335C23.6754 14.5999 23.4668 14.3913 23.4668 14.1332V10.7303C23.4668 10.531 23.6287 10.3999 23.7995 10.3999C23.8807 10.3999 23.9633 10.4293 24.0301 10.497L27.5702 14.0362C27.6383 14.1048 27.6668 14.1897 27.6668 14.2723C27.6668 14.4403 27.5338 14.5999 27.3364 14.5999Z" fill="white"/>
<path d="M25.3372 26.7225L23.814 24.0476C23.5956 23.6747 23.4729 23.2379 23.4668 22.7983C23.45 21.4034 24.5644 20.1999 26.0335 20.1999C26.6308 20.1999 27.2095 20.4122 27.6668 20.7916V15.5332H23.9335C23.1616 15.5332 22.5335 14.9051 22.5335 14.1332V10.3999H11.8002C11.5426 10.3999 11.3335 10.6085 11.3335 10.8666V28.5999C11.3335 28.858 11.5426 29.0666 11.8002 29.0666H25.5962C25.4063 28.2564 25.3489 27.4332 25.3372 26.7225ZM22.996 17.6776L22.5251 20.4734C22.5055 20.5821 22.415 20.6666 22.3002 20.6666C22.2358 20.6666 22.1774 20.6404 22.135 20.5984L21.4634 19.9269L19.062 22.3284C18.935 22.4548 18.76 22.5332 18.5668 22.5332C18.3736 22.5332 18.1986 22.4548 18.0717 22.3284L16.2335 20.4897L14.3953 22.3279C14.2684 22.4548 14.0934 22.5332 13.9002 22.5332C13.5133 22.5332 13.2002 22.2196 13.2002 21.8332C13.2002 21.64 13.2786 21.465 13.405 21.3381L15.7384 19.0048C15.8653 18.8783 16.0403 18.7999 16.2335 18.7999C16.4267 18.7999 16.6017 18.8783 16.7286 19.0048L18.5668 20.843L20.4736 18.9362L19.8021 18.2646C19.7596 18.2226 19.7335 18.1643 19.7335 18.0999C19.7335 17.9851 19.818 17.8946 19.9267 17.875L22.7239 17.4041C22.736 17.4022 22.7547 17.3999 22.7668 17.3999C22.8956 17.3999 23.0002 17.5044 23.0002 17.6332C23.0002 17.6454 22.9974 17.6654 22.996 17.6776Z" fill="white"/>
</svg>
