<svg width="46" height="46" viewBox="0 0 46 46" fill="none" xmlns="http://www.w3.org/2000/svg">
<circle cx="23" cy="23" r="23" fill="#FEE700"/>
<path opacity="0.6" d="M30.0215 34.0004C31.759 34.0004 33.1675 32.6274 33.1675 30.9338C33.1675 29.2402 31.759 27.8672 30.0215 27.8672C28.284 27.8672 26.8755 29.2402 26.8755 30.9338C26.8755 32.6274 28.284 34.0004 30.0215 34.0004Z" fill="white"/>
<path opacity="0.6" d="M15.8672 34.0004C17.6047 34.0004 19.0132 32.6274 19.0132 30.9338C19.0132 29.2402 17.6047 27.8672 15.8672 27.8672C14.1297 27.8672 12.7212 29.2402 12.7212 30.9338C12.7212 32.6274 14.1297 34.0004 15.8672 34.0004Z" fill="white"/>
<path d="M34.6811 15.9602C32.707 12.9519 29.2622 11 25.4052 11C25.3879 11 25.3721 11.0031 25.3548 11.0031C25.3375 11.0031 25.3202 11 25.3029 11C18.9779 11 13.7572 15.5554 12.8684 21.4801L12.719 21.7331H11.146C9.4094 21.7331 8 23.107 8 24.7997V29.3997C8 30.246 8.7047 30.933 9.57299 30.933H11.146C11.146 28.3938 13.2601 26.333 15.865 26.333C18.4698 26.333 20.5839 28.3938 20.5839 30.933H25.3029C25.3029 28.3938 27.417 26.333 30.0219 26.333C32.6268 26.333 34.7409 28.3938 34.7409 30.933H36.3139C37.1822 30.933 37.8869 30.246 37.8869 29.3997V24.7997C37.8853 21.6641 36.6678 18.4825 34.6811 15.9602ZM16.005 21.7331C16.7569 17.3831 20.6264 14.0666 25.3014 14.0666C29.9763 14.0666 33.8474 17.3831 34.5977 21.7331H16.005Z" fill="white"/>
<path d="M34.6811 15.9602C32.707 12.9519 29.2622 11 25.4052 11C25.3879 11 25.3721 11.0031 25.3548 11.0031C25.3375 11.0031 25.3202 11 25.3029 11C18.9779 11 13.7572 15.5554 12.8684 21.4801L12.719 21.7331H11.146C9.4094 21.7331 8 23.107 8 24.7997V29.3997C8 30.246 8.7047 30.933 9.57299 30.933H11.146C11.146 28.3938 13.2601 26.333 15.865 26.333C18.4698 26.333 20.5839 28.3938 20.5839 30.933H25.3029C25.3029 28.3938 27.417 26.333 30.0219 26.333C32.6268 26.333 34.7409 28.3938 34.7409 30.933H36.3139C37.1822 30.933 37.8869 30.246 37.8869 29.3997V24.7997C37.8853 21.6641 36.6678 18.4825 34.6811 15.9602ZM16.005 21.7331C16.7569 17.3831 20.6264 14.0666 25.3014 14.0666C29.9763 14.0666 33.8474 17.3831 34.5977 21.7331H16.005Z" fill="white"/>
</svg>
