<svg width="46" height="46" viewBox="0 0 46 46" fill="none" xmlns="http://www.w3.org/2000/svg">
<circle cx="23" cy="23" r="23" fill="#27A0EC"/>
<path d="M35.9212 20.8629L34.5802 26.5826C33.4307 31.5225 31.1592 33.5203 26.8899 33.1098C26.2057 33.055 25.4668 32.9319 24.6732 32.7403L22.3743 32.193C16.6682 30.8383 14.903 28.0194 16.244 22.2996L17.585 16.5662C17.8587 15.4031 18.1871 14.3905 18.5976 13.5558C20.1986 10.2443 22.9217 9.35487 27.492 10.4359L29.7772 10.9695C35.5107 12.3106 37.2622 15.1431 35.9212 20.8629Z" fill="white"/>
<path d="M26.8901 33.1097C26.0417 33.6844 24.9744 34.1633 23.6744 34.5875L21.5124 35.299C16.08 37.0506 13.2201 35.5864 11.4549 30.154L9.70336 24.7489C7.95185 19.3165 9.40232 16.4429 14.8347 14.6914L16.9968 13.9799C17.5578 13.802 18.0915 13.6514 18.5978 13.5557C18.1872 14.3904 17.8588 15.403 17.5852 16.5661L16.2442 22.2995C14.9032 28.0193 16.6684 30.8382 22.3745 32.1929L24.6733 32.7402C25.467 32.9318 26.2059 33.0549 26.8901 33.1097Z" fill="white" fill-opacity="0.8"/>
<path opacity="0.4" d="M30.2153 20.9585C30.1332 20.9585 30.0511 20.9448 29.9554 20.9312L23.3188 19.2481C22.7714 19.1112 22.443 18.5502 22.5798 18.0028C22.7167 17.4555 23.2777 17.1271 23.8251 17.2639L30.4617 18.947C31.009 19.0839 31.3374 19.6449 31.2006 20.1922C31.0911 20.6438 30.6669 20.9585 30.2153 20.9585Z" fill="#27A0EC"/>
<path opacity="0.4" d="M26.2057 25.5834C26.1236 25.5834 26.0415 25.5697 25.9457 25.5561L21.9638 24.5435C21.4164 24.4066 21.088 23.8456 21.2249 23.2983C21.3617 22.7509 21.9227 22.4225 22.4701 22.5593L26.452 23.5719C26.9994 23.7088 27.3278 24.2698 27.191 24.8171C27.0815 25.2824 26.671 25.5834 26.2057 25.5834Z" fill="#27A0EC"/>
</svg>
