<svg width="48" height="48" viewBox="0 0 48 48" fill="none" xmlns="http://www.w3.org/2000/svg">
<rect width="47.0222" height="47.0222" rx="10" fill="#EE4428"/>
<path d="M31.55 24.9375C31.025 25.45 30.725 26.1875 30.8 26.975C30.9125 28.325 32.15 29.3125 33.5 29.3125H35.875V30.8C35.875 33.3875 33.7625 35.5 31.175 35.5H16.825C14.2375 35.5 12.125 33.3875 12.125 30.8V22.3875C12.125 19.8 14.2375 17.6875 16.825 17.6875H31.175C33.7625 17.6875 35.875 19.8 35.875 22.3875V24.1875H33.35C32.65 24.1875 32.0125 24.4625 31.55 24.9375Z" fill="white"/>
<path opacity="0.6" d="M27.5625 12.9385V17.6885H16.825C14.2375 17.6885 12.125 19.801 12.125 22.3885V17.801C12.125 16.3135 13.0375 14.9885 14.425 14.4635L24.35 10.7135C25.9 10.1385 27.5625 11.276 27.5625 12.9385Z" fill="white"/>
<path opacity="0.6" d="M37.2005 25.4624V28.0375C37.2005 28.725 36.6505 29.2875 35.9505 29.3125H33.5005C32.1505 29.3125 30.913 28.325 30.8005 26.975C30.7255 26.1875 31.0255 25.45 31.5505 24.9375C32.013 24.4625 32.6505 24.1875 33.3505 24.1875H35.9505C36.6505 24.2125 37.2005 24.7749 37.2005 25.4624Z" fill="white"/>
<path opacity="0.6" d="M26.5 23.9375H17.75C17.2375 23.9375 16.8125 23.5125 16.8125 23C16.8125 22.4875 17.2375 22.0625 17.75 22.0625H26.5C27.0125 22.0625 27.4375 22.4875 27.4375 23C27.4375 23.5125 27.0125 23.9375 26.5 23.9375Z" fill="#F1ADAA"/>
</svg>
