<svg width="48" height="48" viewBox="0 0 48 48" fill="none" xmlns="http://www.w3.org/2000/svg">
<rect width="47.0222" height="47.0222" rx="10" fill="#27A0EC"/>
<path opacity="0.6" d="M14.5835 9.78174C14.4897 9.82275 14.3081 9.9751 14.1909 10.1099C13.728 10.6548 13.8627 11.4282 14.4897 11.7974L14.7651 11.9556H23.0034H31.2417L31.5229 11.7798C31.9272 11.5278 32.0971 11.1938 32.062 10.731C32.0268 10.3677 31.8686 10.104 31.5288 9.85205C31.3706 9.729 31.353 9.729 23.0678 9.71729C16.2358 9.70557 14.7358 9.71729 14.5835 9.78174Z" fill="white"/>
<path opacity="0.6" d="M11.8956 13.8896C11.8663 13.9014 11.7667 13.9248 11.6788 13.9424C11.462 13.9893 11.1807 14.2412 11.0342 14.5225C10.9464 14.7041 10.9229 14.8389 10.9405 15.1025C10.9698 15.5127 11.1807 15.8115 11.5733 16.0107L11.8311 16.1455H22.9991H34.1671L34.4249 16.0107C34.8175 15.8115 35.0284 15.5127 35.0577 15.0967C35.0928 14.6162 34.876 14.2178 34.4542 13.9893C34.2901 13.8955 33.3819 13.8896 23.1163 13.8779C16.9757 13.8721 11.9307 13.8779 11.8956 13.8896Z" fill="white"/>
<path d="M9.00656 17.9192C8.74875 18.0012 8.31515 18.3938 8.16867 18.6692C8.11007 18.7922 8.03976 19.009 8.02218 19.1438C8.0046 19.2844 8.32101 22.9407 8.72531 27.2766C9.45773 35.0696 9.46359 35.1633 9.62765 35.4797C9.80343 35.8372 10.155 36.1418 10.5066 36.2415C10.8112 36.3235 35.1862 36.3235 35.4909 36.2415C35.8425 36.1418 36.1941 35.8372 36.3698 35.4797C36.5339 35.1633 36.5398 35.0637 37.2663 27.2766C37.6765 22.9407 37.9929 19.2844 37.9753 19.1438C37.9577 19.009 37.8874 18.7922 37.8288 18.6692C37.6765 18.3704 37.2429 18.0012 36.9558 17.9133C36.6452 17.8196 9.29953 17.8254 9.00656 17.9192ZM24.1823 21.3176C24.7624 21.5286 25.1901 21.8098 25.6003 22.2375C26.0398 22.7004 26.2273 23.011 26.4382 23.6204C26.6491 24.2415 26.6609 25.0969 26.4616 25.7415C26.2273 26.509 25.6823 27.259 24.9616 27.7864L24.7859 27.9153H25.5534C26.8952 27.9211 27.6101 28.1965 28.4245 29.0051C28.9401 29.5208 29.1452 29.8372 29.3679 30.4993C29.5788 31.1028 29.5964 31.9348 29.403 32.2864C29.239 32.5969 28.946 32.8665 28.6237 33.0129C28.3659 33.1301 28.2663 33.136 22.9987 33.136C17.7312 33.136 17.6316 33.1301 17.3737 33.0129C17.0515 32.8665 16.7585 32.5969 16.5944 32.2864C16.489 32.093 16.4655 31.9583 16.4714 31.4954C16.4773 30.5051 16.8698 29.6438 17.655 28.9055C18.4167 28.1907 19.1726 27.9211 20.4441 27.9153H21.2116L21.0359 27.7864C20.3152 27.259 19.7702 26.509 19.5359 25.7415C19.3366 25.0969 19.3484 24.2415 19.5593 23.6204C19.7644 23.0344 19.9519 22.718 20.3444 22.2903C20.8659 21.7336 21.5515 21.3352 22.2663 21.1829C22.3952 21.1536 22.7937 21.136 23.1452 21.1477C23.6491 21.1653 23.8777 21.2004 24.1823 21.3176Z" fill="white"/>
</svg>
