<svg width="48" height="48" viewBox="0 0 48 48" fill="none" xmlns="http://www.w3.org/2000/svg">
<rect width="47.0222" height="47.0222" rx="10" fill="#1DB054"/>
<path d="M34.6631 13.171C28.9298 13.171 24.3731 7.12762 24.3281 7.0649C23.6981 6.2173 22.2948 6.2173 21.6648 7.0649C21.6198 7.12762 17.0631 13.171 11.3298 13.171C10.4081 13.171 9.66309 13.9305 9.66309 14.8662V26.7327C9.66309 33.1863 20.9364 39.4094 22.2198 40.0977C22.4631 40.2282 22.7298 40.2909 22.9964 40.2909C23.2631 40.2909 23.5298 40.2265 23.7731 40.0977C25.0564 39.4094 36.3298 33.1863 36.3298 26.7327V14.8662C36.3298 13.9305 35.5848 13.171 34.6631 13.171Z" fill="white"/>
<path opacity="0.6" d="M22.9504 23.8192C25.1088 23.8192 26.86 22.068 26.86 19.9096C26.86 17.7512 25.1088 16 22.9504 16C20.792 16 19.0408 17.7512 19.0408 19.9096C19.0408 22.068 20.792 23.8192 22.9504 23.8192ZM26.4256 24.688H24.9296C24.3269 24.9649 23.6563 25.1224 22.9504 25.1224C22.2445 25.1224 21.5766 24.9649 20.9712 24.688H19.4752C17.5557 24.688 16 26.2437 16 28.1632V28.5976C16 29.317 16.5837 29.9008 17.3032 29.9008H28.5976C29.317 29.9008 29.9008 29.317 29.9008 28.5976V28.1632C29.9008 26.2437 28.3451 24.688 26.4256 24.688Z" fill="#1DB054"/>
</svg>
