<svg width="46" height="46" viewBox="0 0 46 46" fill="none" xmlns="http://www.w3.org/2000/svg">
<circle cx="23" cy="23" r="23" fill="#EE4428"/>
<g clip-path="url(#clip0_4_3274)">
<path d="M38.5953 26.767C38.4333 26.5462 38.2294 26.3596 37.9952 26.2179C37.7609 26.0762 37.501 25.9822 37.2303 25.9412C36.9596 25.9002 36.6835 25.913 36.4178 25.9791C36.1521 26.0451 35.9021 26.1629 35.6821 26.3258L29.449 30.9188H23.1669C22.9458 30.9188 22.7339 30.831 22.5776 30.6747C22.4213 30.5184 22.3335 30.3064 22.3335 30.0854C22.3335 29.8644 22.4213 29.6524 22.5776 29.4961C22.7339 29.3398 22.9458 29.252 23.1669 29.252H27.2421C28.0755 29.252 28.8437 28.6858 28.9802 27.866C29.0205 27.6266 29.0081 27.3813 28.9439 27.1472C28.8796 26.9131 28.7652 26.6958 28.6084 26.5105C28.4516 26.3251 28.2563 26.1762 28.0361 26.074C27.8158 25.9719 27.576 25.919 27.3332 25.919H18.9995C17.5939 25.9187 16.2309 26.4015 15.1389 27.2863L12.7169 29.252H9.83338C9.61281 29.2535 9.40171 29.3418 9.24575 29.4978C9.08978 29.6537 9.0015 29.8648 9 30.0854V35.0856C9.0015 35.3062 9.08978 35.5173 9.24575 35.6733C9.40171 35.8292 9.61281 35.9175 9.83338 35.919H27.9072C29.0632 35.9163 30.1885 35.5466 31.1209 34.8632L38.1541 29.677C38.598 29.3493 38.8937 28.8588 38.9765 28.3132C39.0592 27.7677 38.9221 27.2116 38.5953 26.767Z" fill="white"/>
<path opacity="0.8" d="M20.6679 18.4171H17.3344C17.1133 18.4171 16.9014 18.3293 16.7451 18.173C16.5888 18.0167 16.501 17.8048 16.501 17.5838V14.2503C16.501 14.0292 16.5888 13.8173 16.7451 13.661C16.9014 13.5047 17.1133 13.4169 17.3344 13.4169H20.6679V10.0834C20.6679 9.86235 20.7557 9.65038 20.9119 9.49409C21.0682 9.3378 21.2802 9.25 21.5012 9.25H24.8347C25.0558 9.25 25.2677 9.3378 25.424 9.49409C25.5803 9.65038 25.6681 9.86235 25.6681 10.0834V13.4169H29.0016C29.2226 13.4169 29.4346 13.5047 29.5909 13.661C29.7472 13.8173 29.835 14.0292 29.835 14.2503V17.5838C29.835 17.8048 29.7472 18.0167 29.5909 18.173C29.4346 18.3293 29.2226 18.4171 29.0016 18.4171H25.6681V21.7506C25.6681 21.9717 25.5803 22.1836 25.424 22.3399C25.2677 22.4962 25.0558 22.584 24.8347 22.584H21.5012C21.2802 22.584 21.0682 22.4962 20.9119 22.3399C20.7557 22.1836 20.6679 21.9717 20.6679 21.7506V18.4171Z" fill="white"/>
</g>
<defs>
<clipPath id="clip0_4_3274">
<rect width="30" height="30" fill="white" transform="translate(9 8)"/>
</clipPath>
</defs>
</svg>
