<svg width="46" height="46" viewBox="0 0 46 46" fill="none" xmlns="http://www.w3.org/2000/svg">
<circle cx="23" cy="23" r="23" fill="#EE4428"/>
<g clip-path="url(#clip0_4_3745)">
<path d="M33.5667 25.5C32.4427 30.5025 28.0343 34.25 22.7727 34.25C17.7808 34.25 13.5533 30.88 12.1721 26.2638L15.3864 23H8V30.5L10.2491 28.2163C12.2779 33.2175 17.1246 36.75 22.7727 36.75C29.3983 36.75 34.9171 31.89 36.0793 25.5H33.5667Z" fill="white"/>
<path d="M35.2969 17.7838C33.2681 12.7838 28.4214 9.25 22.7733 9.25C16.1478 9.25 10.6289 14.11 9.4668 20.5H11.9794C13.1034 15.4975 17.5118 11.75 22.7733 11.75C27.7653 11.75 31.9927 15.12 33.374 19.7375L30.1597 23H37.5461V15.5L35.2969 17.7838Z" fill="white"/>
<path opacity="0.8" d="M22.1569 20.68V16.9868H19.6947C19.4892 16.9868 19.2971 17.0902 19.1826 17.2613L16.9033 20.68H22.1569Z" fill="white"/>
<path opacity="0.8" d="M28.6417 20.68L26.3624 17.2613C26.2479 17.0902 26.0559 16.9868 25.8503 16.9868H23.3882V20.68H28.6417Z" fill="white"/>
<path d="M16.6172 28.682C16.6172 29.0217 16.8929 29.2975 17.2327 29.2975H28.3123C28.652 29.2975 28.9278 29.0217 28.9278 28.682V21.9111H16.6172V28.682ZM23.388 25.6043H27.0812V27.4509H23.388V25.6043Z" fill="white"/>
</g>
<defs>
<clipPath id="clip0_4_3745">
<rect width="29.5455" height="30" fill="white" transform="translate(8 8)"/>
</clipPath>
</defs>
</svg>
