<svg width="46" height="46" viewBox="0 0 46 46" fill="none" xmlns="http://www.w3.org/2000/svg">
<circle cx="23" cy="23" r="23" fill="#FFDA00"/>
<path d="M37.2782 26.475C36.667 25.9208 35.714 25.957 35.0718 26.475L30.2859 30.3026C29.6984 30.7739 28.9672 31.0298 28.2141 31.0278H22.0883C21.8685 31.0278 21.6577 30.9404 21.5023 30.785C21.3469 30.6296 21.2595 30.4188 21.2595 30.199C21.2595 29.9792 21.3469 29.7685 21.5023 29.613C21.6577 29.4576 21.8685 29.3703 22.0883 29.3703H26.1433C26.9669 29.3703 27.7339 28.8057 27.8655 27.9926C27.8817 27.8992 27.8897 27.8045 27.8893 27.7098C27.8885 27.2707 27.7135 26.8499 27.4028 26.5398C27.092 26.2296 26.6709 26.0554 26.2319 26.0554H17.9447C16.547 26.0558 15.192 26.5365 14.1066 27.4171L11.6982 29.3703H8.82872C8.60893 29.3703 8.39814 29.4576 8.24273 29.613C8.08731 29.7685 8 29.9792 8 30.199V35.1714C8 35.3912 8.08731 35.6019 8.24273 35.7574C8.39814 35.9128 8.60893 36.0001 8.82872 36.0001H27.3077C28.0606 36.0007 28.7913 35.7449 29.3795 35.275L37.2124 29.0077C37.4009 28.857 37.5541 28.667 37.6615 28.4509C37.7689 28.2349 37.8277 27.998 37.8341 27.7568C37.8404 27.5156 37.794 27.2759 37.698 27.0545C37.6021 26.8331 37.4585 26.6353 37.2782 26.475Z" fill="white"/>
<g clip-path="url(#clip0_4_3803)">
<path d="M31.6052 14.0548L23.3178 9.53417C23.0708 9.39909 22.7708 9.39909 22.5239 9.53417L14.2365 14.0548C13.9704 14.1998 13.8047 14.4782 13.8047 14.7824V15.9475C13.8047 16.4058 14.176 16.7762 14.6334 16.7762H15.4622V23.4059C15.4622 23.8641 15.8334 24.2346 16.2909 24.2346H17.9484V17.6049H27.8933V24.2346H29.5507C30.0082 24.2346 30.3795 23.8641 30.3795 23.4059V16.7762H31.2082C31.6657 16.7762 32.037 16.4058 32.037 15.9475V14.7824C32.037 14.4782 31.8712 14.1998 31.6052 14.0548Z" fill="white"/>
<path opacity="0.8" d="M26.2359 19.2625H19.606V20.9199H26.2359V19.2625Z" fill="white"/>
<path opacity="0.8" d="M26.2359 22.5776H19.606V24.235H26.2359V22.5776Z" fill="white"/>
</g>
<defs>
<clipPath id="clip0_4_3803">
<rect width="19.8898" height="19.8898" fill="white" transform="translate(12.9727 6)"/>
</clipPath>
</defs>
</svg>
