<svg width="48" height="48" viewBox="0 0 48 48" fill="none" xmlns="http://www.w3.org/2000/svg">
<rect width="47.0222" height="47.0222" rx="10" fill="#5362E6"/>
<g clip-path="url(#clip0_4_3844)">
<path d="M21.1113 7.76367C20.766 7.8832 20.3078 8.36797 20.2281 8.7C20.1883 8.84609 20.1086 9.4039 20.0422 9.94179C19.9758 10.5062 19.8961 10.9379 19.8563 10.9445C19.3648 11.0574 18.2957 11.4691 17.8707 11.7148L17.3328 12.027L16.423 11.3496C15.2742 10.4863 14.9688 10.3801 14.391 10.6191C14.059 10.7586 10.7652 14.0391 10.5859 14.4043C10.4066 14.7828 10.4066 15.3871 10.5926 15.6926C10.6656 15.8121 10.991 16.2637 11.3098 16.6887L11.8941 17.459L11.6352 17.9305C11.4957 18.1895 11.25 18.807 11.0906 19.2918L10.7984 20.1816L9.84219 20.3211C8.48086 20.5137 8.44102 20.527 8.14219 20.7859C7.68398 21.1711 7.66406 21.3238 7.66406 24.0598C7.66406 25.5871 7.69063 26.5168 7.73711 26.6895C7.83672 27.048 8.34141 27.5527 8.69336 27.6391C8.83945 27.6723 9.3707 27.7586 9.88203 27.825L10.7984 27.9512L11.0176 28.5488C11.1305 28.8742 11.3762 29.4918 11.5621 29.9102L11.8941 30.6738L11.3031 31.5637C10.9711 32.0484 10.6656 32.5531 10.6125 32.6727C10.493 32.9648 10.493 33.2902 10.6258 33.6023C10.7719 33.9477 14.0258 37.2281 14.4043 37.4141C14.5836 37.5004 14.816 37.5469 15.0816 37.5469C15.5332 37.5469 15.6727 37.4672 16.8613 36.5641L17.459 36.1125L18.1562 36.4379C18.5414 36.6238 19.0926 36.8695 19.3848 36.9891L19.916 37.2016L20.0555 38.2242C20.2281 39.4527 20.2812 39.652 20.5734 39.9309C20.9652 40.3094 21.1711 40.3359 23.7941 40.3359C25.2816 40.3359 26.2512 40.3094 26.4172 40.2629C26.7492 40.1699 27.2871 39.6387 27.3602 39.3332C27.3867 39.207 27.473 38.6758 27.5461 38.1512L27.6855 37.2016L28.2832 36.9824C28.6152 36.8695 29.1797 36.6305 29.5383 36.4645C29.8969 36.2918 30.2223 36.1523 30.2555 36.1523C30.2887 36.1523 30.7734 36.4645 31.3379 36.8496C32.3605 37.5469 32.3672 37.5469 32.7656 37.5469C32.9848 37.5469 33.277 37.5004 33.4164 37.4406C33.7484 37.3078 36.823 34.2465 37.0887 33.7949C37.3078 33.4164 37.3477 32.9117 37.1883 32.5465C37.1352 32.427 36.8098 31.9289 36.4711 31.4375L35.8402 30.5477L36.1391 29.9102C36.3051 29.5648 36.5441 29.0137 36.6836 28.6816L36.9293 28.084L38.1711 27.8449C39.5523 27.5727 39.7582 27.473 40.0305 26.9484C40.1633 26.6961 40.1699 26.5898 40.1699 23.9602V21.2309L39.9773 20.9852C39.6852 20.6 39.466 20.507 38.4168 20.3145C37.8855 20.2148 37.3609 20.1152 37.2613 20.0887C37.0953 20.0488 37.0422 19.9691 36.8164 19.3582C36.6703 18.9797 36.4246 18.4285 36.2652 18.1297L35.9797 17.5852L36.5707 16.8281C37.4738 15.6727 37.5469 15.5398 37.5469 15.1016C37.5469 14.4508 37.3941 14.2449 35.5414 12.4055C33.702 10.5793 33.6621 10.5461 32.9648 10.5992C32.5465 10.6258 32.4934 10.659 31.1055 11.6285L30.541 12.027L29.877 11.7281C29.5117 11.5621 28.9008 11.3164 28.5156 11.177L27.8184 10.9312L27.6391 10.0148C27.3137 8.35468 27.3336 8.40117 27.0281 8.0957C26.8355 7.90976 26.6496 7.79687 26.4438 7.74375C25.9656 7.62421 21.4633 7.6375 21.1113 7.76367ZM25.8262 14.0457C28.1305 14.3445 30.4281 15.5797 31.9555 17.3594C33.3898 19.0262 34.2 20.952 34.4258 23.2562C34.4988 23.9469 34.4922 24.0664 34.3594 24.684C33.9477 26.623 33.2371 28.4094 32.3473 29.7441C31.8758 30.448 31.9688 30.448 31.318 29.7641C30.2754 28.675 29.0867 27.8582 27.7453 27.3203L27.0215 27.0348L26.5898 27.1543C24.8367 27.6324 24.7703 27.6457 24.0797 27.6523C23.2629 27.6523 22.5258 27.5129 21.948 27.2473C21.7156 27.141 21.4434 27.0547 21.3371 27.0547C21.0914 27.0547 19.7566 27.6258 19.0859 28.0176C18.1031 28.5953 17.127 29.4187 16.5492 30.1691L16.3766 30.3949L16.0379 29.9102C15.3406 28.9141 14.7629 27.6125 14.4574 26.3242C14.2117 25.3016 14.1719 23.5551 14.3578 22.4395C14.909 19.2121 16.9277 16.4828 19.843 15.0219C21.6891 14.0922 23.6746 13.7734 25.8262 14.0457Z" fill="white"/>
<path d="M23.0168 17.4525C21.6223 17.7912 20.4137 19.0131 20.0485 20.4475C19.9223 20.9522 19.9223 21.935 20.0485 22.4397C20.3407 23.5885 21.1243 24.5647 22.1469 25.0494C22.4524 25.1955 22.8508 25.3483 23.0301 25.3881C23.5082 25.5076 24.4977 25.4877 25.0024 25.3615C26.3836 25.0029 27.5922 23.801 27.9442 22.433C28.077 21.915 28.0836 20.899 27.9508 20.3811C27.5989 18.9865 26.5164 17.8775 25.1286 17.499C24.5575 17.3397 23.5813 17.3197 23.0168 17.4525Z" fill="white"/>
</g>
<defs>
<clipPath id="clip0_4_3844">
<rect width="34" height="34" fill="white" transform="translate(7 6)"/>
</clipPath>
</defs>
</svg>
