<svg width="46" height="46" viewBox="0 0 46 46" fill="none" xmlns="http://www.w3.org/2000/svg">
<circle cx="23" cy="23" r="23" fill="#EE4428"/>
<path opacity="0.8" d="M35.9996 22.8V20L33.3364 22.6633C33.2486 22.751 33.1996 22.8691 33.1996 22.9932V24.6102L29.6721 28.1382C29.5447 28.2647 29.4663 28.4397 29.4663 28.6333C29.4663 29.0197 29.7799 29.3333 30.1663 29.3333C30.36 29.3333 30.535 29.2549 30.6624 29.128L34.1894 25.6H35.8064C35.9306 25.6 36.0491 25.551 36.1364 25.4633L38.7996 22.8H35.9996Z" fill="white"/>
<path opacity="0.8" d="M36.7966 26.1229C36.5357 26.3838 36.1759 26.5331 35.8068 26.5331H35.0191C35.3457 27.2438 35.5333 28.0325 35.5333 28.8664C35.5333 31.959 33.0259 34.4664 29.9333 34.4664C26.8407 34.4664 24.3333 31.959 24.3333 28.8664C24.3333 25.7738 26.8407 23.2664 29.9333 23.2664C30.7673 23.2664 31.5559 23.4536 32.2667 23.7807V22.993C32.2667 22.6243 32.416 22.2636 32.6769 22.0032L33.0903 21.5897C32.1225 21.1692 31.0557 20.9331 29.9333 20.9331C25.5518 20.9331 22 24.4849 22 28.8664C22 33.248 25.5518 36.7998 29.9333 36.7998C34.3149 36.7998 37.8667 33.248 37.8667 28.8664C37.8667 27.7441 37.6305 26.6778 37.2101 25.7094L36.7966 26.1229Z" fill="white"/>
<path opacity="0.8" d="M31.3222 29.7877C31.0132 30.0966 30.603 30.2665 30.1662 30.2665C29.2656 30.2665 28.5329 29.5338 28.5329 28.6332C28.5329 28.1954 28.7037 27.7838 29.0145 27.4758L31.513 24.9768C31.0254 24.778 30.4924 24.6665 29.9329 24.6665C27.6131 24.6665 25.7329 26.5467 25.7329 28.8665C25.7329 31.1863 27.6131 33.0665 29.9329 33.0665C32.2527 33.0665 34.1329 31.1863 34.1329 28.8665C34.1329 28.3074 34.0214 27.7745 33.823 27.2864L31.3222 29.7877Z" fill="white"/>
<path d="M14.5664 9.05367C14.0918 9.20602 13.7402 9.52828 13.5996 9.92672C13.5352 10.1201 13.5117 10.4365 13.5117 11.0927V11.9892H11.9414C10.1602 11.9892 9.94922 12.0244 9.53906 12.3759C9.39844 12.4931 9.22852 12.6982 9.1582 12.833L9.0293 13.0732V24.0009V34.9287L9.1582 35.1689C9.22852 35.3037 9.39844 35.5088 9.53906 35.6259C10.002 36.0244 9.86133 36.0127 14.9883 36.0127C17.5254 36.0127 19.6055 35.9951 19.6055 35.9716C19.6055 35.9482 19.4883 35.708 19.3477 35.4326C18.7852 34.3427 18.4219 33.247 18.1582 31.8818C18.0352 31.2373 17.9941 29.4443 18.0762 28.6826C18.6973 23.2334 23.0156 18.8271 28.4414 18.1123C29.291 18.0009 30.7441 18.0009 31.5176 18.1123C33.5977 18.417 35.4023 19.1787 37.3477 20.5791L37.4766 20.6728V16.9345C37.4766 12.7392 37.4941 12.9502 37.043 12.499C36.627 12.083 36.4453 12.0244 35.4141 12.0009L34.4883 11.9775V11.0869C34.4883 10.0732 34.4238 9.78024 34.125 9.47555C33.7969 9.14156 33.5215 9.03024 32.9941 9.03024C32.4727 9.03024 32.1855 9.14156 31.9043 9.45211C31.5645 9.80953 31.5293 9.95016 31.5117 11.0048L31.4883 11.9892H24H16.5117L16.4883 11.0048C16.4707 10.1904 16.4531 9.99117 16.3594 9.82125C16.0898 9.31149 15.6797 9.05367 15.0938 9.02438C14.8828 9.01266 14.6484 9.02438 14.5664 9.05367Z" fill="white"/>
</svg>
