<svg width="46" height="46" viewBox="0 0 46 46" fill="none" xmlns="http://www.w3.org/2000/svg">
<circle cx="23" cy="23" r="23" fill="#1DB054"/>
<path opacity="0.6" d="M8.58668 12.0646C8.50457 12.0998 8.37554 12.1819 8.30516 12.2523C7.98257 12.5514 8.00017 11.83 8.00017 23.5134V34.3287L8.13507 34.5222C8.20545 34.6278 8.34035 34.7744 8.42833 34.839C8.59255 34.9621 8.65707 34.9621 11.3785 34.9797L14.1586 34.9973V23.4958V12.0001L11.4489 12.006C9.78904 12.006 8.67466 12.0294 8.58668 12.0646Z" fill="white"/>
<path d="M15.9766 23.4958V34.9915L26.7039 34.9797L37.4371 34.9621L37.5955 34.839C37.6834 34.7744 37.8125 34.6454 37.877 34.5574L38.0002 34.3991V23.4958V12.5925L37.877 12.4341C37.8125 12.3462 37.6834 12.2171 37.5955 12.1526L37.4371 12.0294L26.7039 12.0118L15.9766 12.0001V23.4958ZM24.3461 15.6717C24.915 16.094 24.915 16.7626 24.3461 17.1849C24.1819 17.3022 24.1056 17.3081 21.8358 17.3257C20.3696 17.3374 19.4135 17.3198 19.2728 17.2846C19.1496 17.2494 18.9619 17.1321 18.8563 17.0207C18.4047 16.5573 18.6452 15.7303 19.2728 15.5779C19.3783 15.5485 20.5279 15.5309 21.8241 15.5368C24.1115 15.5485 24.1819 15.5544 24.3461 15.6717ZM32.7391 19.2142C33.3198 19.572 33.2963 20.4049 32.6922 20.7216L32.44 20.8565H28.7684C25.2728 20.8565 25.0851 20.8506 24.8505 20.7392C24.2288 20.4576 24.1936 19.5779 24.786 19.2142C24.9737 19.1028 25.091 19.0969 28.7626 19.0969C32.4341 19.0969 32.5514 19.1028 32.7391 19.2142ZM29.1614 22.7275C29.4136 22.8565 29.6423 23.2201 29.6423 23.4958C29.6423 23.7714 29.4136 24.1351 29.1614 24.2641C28.9561 24.3697 28.786 24.3756 26.5514 24.3756C23.8828 24.3756 23.8886 24.3756 23.6188 23.9709C23.3373 23.5544 23.5015 22.9445 23.9531 22.7216C24.1408 22.6277 24.393 22.616 26.5514 22.616C28.786 22.616 28.9561 22.6219 29.1614 22.7275ZM26.9209 26.2465C27.5485 26.5281 27.5837 27.4137 26.9913 27.7773C26.8036 27.8888 26.6863 27.8946 24.3285 27.8946H21.8593L21.6599 27.7597C21.0968 27.3844 21.1496 26.5515 21.7479 26.2524C21.9766 26.141 22.0998 26.1351 24.3344 26.1351C26.4928 26.1351 26.698 26.1468 26.9209 26.2465ZM24.3461 29.8067C25.0323 30.3169 24.8622 31.2378 24.047 31.4137C23.8476 31.4606 23.003 31.4724 21.4781 31.4606C19.2845 31.443 19.2083 31.4372 19.044 31.3199C18.6745 31.0442 18.522 30.6102 18.6687 30.229C18.7449 30.0295 19.0147 29.7773 19.2258 29.7187C19.3256 29.6835 20.4751 29.6659 21.7948 29.6718C24.1115 29.6835 24.1819 29.6894 24.3461 29.8067Z" fill="white"/>
</svg>
