<svg width="48" height="48" viewBox="0 0 48 48" fill="none" xmlns="http://www.w3.org/2000/svg">
<rect width="47.0222" height="47.0222" rx="10" fill="#FFDA00"/>
<path d="M14.5664 9.05343C14.0918 9.20577 13.7402 9.52804 13.5996 9.92648C13.5352 10.1198 13.5117 10.4362 13.5117 11.0925V11.989H11.9414C10.1602 11.989 9.94922 12.0241 9.53906 12.3757C9.39844 12.4929 9.22852 12.698 9.1582 12.8327L9.0293 13.073V24.0007V34.9284L9.1582 35.1687C9.22852 35.3034 9.39844 35.5085 9.53906 35.6257C10.002 36.0241 9.86133 36.0124 14.9883 36.0124C17.5254 36.0124 19.6055 35.9948 19.6055 35.9714C19.6055 35.948 19.4883 35.7077 19.3477 35.4323C18.7852 34.3425 18.4219 33.2468 18.1582 31.8816C18.0352 31.237 17.9941 29.4441 18.0762 28.6823C18.6973 23.2331 23.0156 18.8269 28.4414 18.112C29.291 18.0007 30.7441 18.0007 31.5176 18.112C33.5977 18.4167 35.4023 19.1784 37.3477 20.5788L37.4766 20.6726V16.9343C37.4766 12.739 37.4941 12.9499 37.043 12.4987C36.627 12.0827 36.4453 12.0241 35.4141 12.0007L34.4883 11.9773V11.0866C34.4883 10.073 34.4238 9.77999 34.125 9.4753C33.7969 9.14132 33.5215 9.02999 32.9941 9.02999C32.4727 9.02999 32.1855 9.14132 31.9043 9.45187C31.5645 9.80929 31.5293 9.94991 31.5117 11.0046L31.4883 11.989H24H16.5117L16.4883 11.0046C16.4707 10.1901 16.4531 9.99093 16.3594 9.82101C16.0898 9.31124 15.6797 9.05343 15.0938 9.02413C14.8828 9.01241 14.6484 9.02413 14.5664 9.05343Z" fill="white"/>
<path d="M28.7175 21.0986C25.0906 21.6552 22.1785 24.2978 21.282 27.8369C20.8777 29.4365 20.9422 31.2411 21.4578 32.788C22.3601 35.4775 24.4519 37.5986 27.1121 38.5068C28.9695 39.1396 30.9207 39.1454 32.8015 38.5302C37.5359 36.9716 40.114 31.8154 38.5086 27.1103C38.0691 25.8271 37.4129 24.7665 36.4285 23.7411C35.157 22.4286 33.6101 21.579 31.7644 21.1865C31.0027 21.0224 29.4793 20.9814 28.7175 21.0986ZM30.7097 24.163C30.9793 24.2978 31.2078 24.5263 31.3601 24.8193C31.4597 25.0009 31.4714 25.2001 31.489 26.7646L31.5066 28.499L32.5144 28.5224C33.616 28.54 33.7156 28.5693 34.073 28.9267C34.3425 29.1962 34.4422 29.4306 34.4773 29.8642C34.5242 30.5497 34.2664 31.0361 33.7039 31.3408C33.4695 31.4638 33.405 31.4697 31.5007 31.4697C29.5965 31.4697 29.532 31.4638 29.2976 31.3408C28.9636 31.1591 28.7058 30.8779 28.6004 30.5732C28.4656 30.1747 28.4656 25.3232 28.6004 24.9247C28.741 24.5263 29.0925 24.204 29.5672 24.0517C29.8191 23.9697 30.4578 24.0283 30.7097 24.163Z" fill="white" fill-opacity="0.8"/>
</svg>
