<svg width="46" height="46" viewBox="0 0 46 46" fill="none" xmlns="http://www.w3.org/2000/svg">
<circle cx="23" cy="23" r="23" fill="#FFDA00"/>
<g clip-path="url(#clip0_4_3109)">
<path d="M22.5425 10.0813C21.6284 10.2742 20.7296 10.9801 20.3132 11.8281C19.9425 12.5898 19.9527 12.3664 19.9527 18.0641C19.9527 23.066 19.9527 23.1574 20.0542 23.3555C20.171 23.5891 20.4656 23.7617 20.7347 23.7617C20.8617 23.7617 21.3492 23.5434 22.441 23L23.9644 22.2383H28.4992C33.5722 22.2383 33.4148 22.2484 34.1714 21.8777C35.0296 21.4563 35.7304 20.5574 35.9234 19.623C36.0351 19.1 36.0351 13.1383 35.9234 12.6152C35.6695 11.3965 34.6031 10.3301 33.3843 10.0762C32.8714 9.96953 23.0452 9.96953 22.5425 10.0813ZM32.4957 13.9609C32.7242 14.0777 32.9019 14.3672 32.9019 14.6211C32.9019 14.875 32.7242 15.1645 32.4957 15.2812C32.3027 15.3828 32.2062 15.3828 27.971 15.3828H23.6495L23.4464 15.2711C22.9335 14.9816 22.9285 14.2859 23.4363 13.9813L23.6343 13.8594H27.966C32.2062 13.8594 32.3027 13.8594 32.4957 13.9609ZM32.4957 17.0078C32.7242 17.1246 32.9019 17.4141 32.9019 17.668C32.9019 17.9219 32.7242 18.2113 32.4957 18.3281C32.3027 18.4297 32.2062 18.4297 27.971 18.4297H23.6495L23.4464 18.318C22.9335 18.0285 22.9285 17.3328 23.4363 17.0281L23.6343 16.9063H27.966C32.2062 16.9063 32.3027 16.9063 32.4957 17.0078Z" fill="white" fill-opacity="0.6"/>
<path d="M11.8019 14.6924C11.3754 14.7991 11.0554 14.9819 10.7304 15.3069C9.85192 16.1854 9.82653 17.5311 10.6746 18.4604C10.8168 18.6178 11.0453 18.7905 11.2433 18.892L11.5734 19.0647V20.6846C11.5734 22.1573 11.5785 22.2995 11.6547 22.269C11.7004 22.2487 11.8324 22.2131 11.9492 22.1827C12.1523 22.1319 12.1777 22.1065 12.3554 21.7459C12.4621 21.5327 12.6703 21.1721 12.8226 20.9436L13.0968 20.5323V19.7959V19.0647L13.366 18.9377C13.691 18.7854 14.1988 18.2877 14.3613 17.9577C14.8132 17.0233 14.6558 16.0229 13.9347 15.3018C13.366 14.728 12.5687 14.4995 11.8019 14.6924Z" fill="white"/>
<path d="M17.9777 19.2794C15.8957 19.6044 14.0879 21.1481 13.4023 23.1946C13.118 24.0528 13.0977 24.3067 13.0977 27.5974C13.0977 30.888 13.118 31.1419 13.4023 32.0001C13.702 32.8888 14.1539 33.6149 14.8191 34.2802C15.7281 35.1841 16.825 35.7376 18.059 35.9255C18.7953 36.0372 27.2047 36.0372 27.941 35.9255C29.1801 35.7376 30.2871 35.1739 31.1809 34.2802C32.0848 33.3712 32.6383 32.2743 32.8262 31.0403C32.9227 30.3954 32.9328 24.8399 32.8363 24.195L32.7754 23.7888L28.5504 23.7735L24.3254 23.7634L22.9137 24.4642C21.9742 24.9313 21.4004 25.1853 21.2023 25.2259C20.0648 25.4544 19.034 24.9009 18.5719 23.8091C18.4602 23.5399 18.4551 23.479 18.4297 21.3767L18.4043 19.2134L17.9777 19.2794ZM19.5469 25.3884C19.9023 25.5712 19.9531 25.7438 19.9531 26.8103C19.9531 27.8767 19.9023 28.0493 19.5469 28.2321C19.2879 28.3642 19.0746 28.3591 18.8258 28.222C18.4703 28.0188 18.4297 27.8716 18.4297 26.8001C18.4348 25.7388 18.4703 25.6169 18.8156 25.4087C19.0594 25.2614 19.2828 25.2563 19.5469 25.3884ZM27.1641 25.3884C27.5195 25.5712 27.5703 25.7438 27.5703 26.8103C27.5703 27.8767 27.5195 28.0493 27.1641 28.2321C26.9051 28.3642 26.6918 28.3591 26.443 28.222C26.0875 28.0188 26.0469 27.8716 26.0469 26.8001C26.052 25.7388 26.0875 25.6169 26.4328 25.4087C26.6766 25.2614 26.9 25.2563 27.1641 25.3884ZM24.8789 29.9587C25.1074 30.0755 25.2852 30.3649 25.2852 30.6188C25.2852 30.8728 25.1074 31.1622 24.8789 31.279C24.691 31.3755 24.5844 31.3806 22.9949 31.3806C21.3445 31.3806 21.309 31.3806 21.1109 31.2688C20.598 30.9794 20.593 30.2837 21.1008 29.979C21.2988 29.8571 21.3039 29.8571 22.9898 29.8571C24.5844 29.8571 24.691 29.8622 24.8789 29.9587Z" fill="white"/>
<path d="M11.2695 24.0055C10.9191 24.1731 10.4113 24.6758 10.259 24.9957C10.0152 25.4984 10 25.6559 10 27.5703C10 29.4848 10.0152 29.6422 10.259 30.1449C10.4164 30.475 10.9242 30.9676 11.2797 31.1402C11.4371 31.2164 11.5895 31.2773 11.6148 31.2773C11.6402 31.2773 11.6402 31.1199 11.6148 30.9117C11.559 30.4496 11.5844 24.0766 11.6453 23.9496C11.7063 23.8278 11.6047 23.8379 11.2695 24.0055Z" fill="white"/>
<path d="M34.3544 23.9496C34.4154 24.0715 34.4408 30.4496 34.3849 30.9066C34.3595 31.1199 34.3595 31.2773 34.3849 31.2773C34.5119 31.2773 35.0349 30.9676 35.2685 30.7594C35.5681 30.4852 35.8575 29.9672 35.9439 29.5609C36.02 29.1953 36.02 25.9402 35.9439 25.5797C35.8525 25.1379 35.6493 24.7773 35.3193 24.4473C34.9283 24.0613 34.2376 23.7059 34.3544 23.9496Z" fill="white"/>
</g>
<defs>
<clipPath id="clip0_4_3109">
<rect width="26" height="26" fill="white" transform="translate(10 10)"/>
</clipPath>
</defs>
</svg>
