<svg width="46" height="46" viewBox="0 0 46 46" fill="none" xmlns="http://www.w3.org/2000/svg">
<circle cx="23" cy="23" r="23" fill="#27A0EC"/>
<g clip-path="url(#clip0_4_3790)">
<path d="M29.79 9.55701C29.5575 9.20951 29.1688 8.99951 28.75 8.99951H23.75V16.4995H34.4188L29.79 9.55701Z" fill="white"/>
<path d="M21.2498 8.99951H16.2498C15.8323 8.99951 15.4423 9.20951 15.2098 9.55701L10.5811 16.4995H21.2498V8.99951Z" fill="white"/>
<path d="M33.75 26.4965C34.1775 26.4965 34.5925 26.5403 35 26.609V18.999H10V32.749C10 33.439 10.56 33.999 11.25 33.999H26.25C26.25 33.999 26.25 33.9978 26.25 33.9965C26.25 29.854 29.6087 26.4965 33.75 26.4965Z" fill="white"/>
<path opacity="0.8" d="M37.8662 29.3633L32.5 34.7295L29.6337 31.8633L27.8662 33.6308L32.5 38.2645L39.6337 31.1308L37.8662 29.3633Z" fill="white"/>
</g>
<defs>
<clipPath id="clip0_4_3790">
<rect width="30" height="30" fill="white" transform="translate(10 9)"/>
</clipPath>
</defs>
</svg>
