<svg width="48" height="48" viewBox="0 0 48 48" fill="none" xmlns="http://www.w3.org/2000/svg">
<rect width="47.0222" height="47.0222" rx="10" fill="#FFDA00"/>
<path opacity="0.8" d="M30.8096 35.4329H15.8096V38.4329H30.8096V35.4329Z" fill="white"/>
<path d="M36.8096 9.93237H31.8926C31.3721 9.03987 30.4151 8.43237 29.3096 8.43237H17.3096C16.2041 8.43237 15.2471 9.03987 14.7266 9.93237H9.80957C8.98157 9.93237 8.30957 10.6044 8.30957 11.4324V17.4324C8.30957 17.8884 8.51657 18.3189 8.87207 18.6039L16.2641 24.5169C17.6186 26.2209 19.5746 27.4209 21.8096 27.7974V29.4324H18.8096C17.9816 29.4324 17.3096 30.1044 17.3096 30.9324V33.9324H29.3096V30.9324C29.3096 30.1044 28.6376 29.4324 27.8096 29.4324H24.8096V27.7974C27.0446 27.4209 29.0006 26.2224 30.3536 24.5184L37.7456 18.6054C38.1026 18.3189 38.3096 17.8884 38.3096 17.4324V11.4324C38.3096 10.6044 37.6376 9.93237 36.8096 9.93237ZM11.3096 16.7124V12.9324H14.3096V18.9324C14.3096 18.9954 14.3171 19.0569 14.3186 19.1199L11.3096 16.7124ZM35.3096 16.7124L32.3006 19.1199C32.3021 19.0569 32.3096 18.9954 32.3096 18.9324V12.9324H35.3096V16.7124Z" fill="white"/>
</svg>
