<svg width="46" height="46" viewBox="0 0 46 46" fill="none" xmlns="http://www.w3.org/2000/svg">
<circle cx="23" cy="23" r="23" fill="#27A0EC"/>
<path d="M32.9727 13.9254C27.9336 13.9254 23.9287 8.61385 23.8892 8.55872C23.3354 7.81376 22.1021 7.81376 21.5483 8.55872C21.5088 8.61385 17.5039 13.9254 12.4648 13.9254C11.6548 13.9254 11 14.5929 11 15.4154V25.8448C11 31.517 20.9082 36.9865 22.0361 37.5914C22.25 37.7061 22.4844 37.7613 22.7188 37.7613C22.9531 37.7613 23.1875 37.7046 23.4014 37.5914C24.5293 36.9865 34.4375 31.517 34.4375 25.8448V15.4154C34.4375 14.5929 33.7827 13.9254 32.9727 13.9254Z" fill="white"/>
<path d="M27.2 15.1008L26 16.5008L24.3 15.1008C24.2137 15.0354 24.1083 15.0001 24 15.0001C23.8917 15.0001 23.7863 15.0354 23.7 15.1008L22 16.5008L20.3 15.1008C20.2137 15.0354 20.1083 15.0001 20 15.0001C19.8917 15.0001 19.7863 15.0354 19.7 15.1008L18 16.5008L16.8 15.1008C16.4688 14.854 16 15.0883 16 15.5008V30.5008C16 30.9133 16.4688 31.1477 16.8 30.9008L18 29.5008L19.7 30.9008C19.7863 30.9662 19.8917 31.0016 20 31.0016C20.1083 31.0016 20.2137 30.9662 20.3 30.9008L22 29.5008L23.7 30.9008C23.7863 30.9662 23.8917 31.0016 24 31.0016C24.1083 31.0016 24.2137 30.9662 24.3 30.9008L26 29.5008L27.2 30.9008C27.5281 31.1477 28 30.9133 28 30.5008V15.5008C28 15.0883 27.5312 14.854 27.2 15.1008ZM26 26.2508C26 26.3883 25.8875 26.5008 25.75 26.5008H18.25C18.1125 26.5008 18 26.3883 18 26.2508V25.7508C18 25.6133 18.1125 25.5008 18.25 25.5008H25.75C25.8875 25.5008 26 25.6133 26 25.7508V26.2508ZM26 23.2508C26 23.3883 25.8875 23.5008 25.75 23.5008H18.25C18.1125 23.5008 18 23.3883 18 23.2508V22.7508C18 22.6133 18.1125 22.5008 18.25 22.5008H25.75C25.8875 22.5008 26 22.6133 26 22.7508V23.2508ZM26 20.2508C26 20.3883 25.8875 20.5008 25.75 20.5008H18.25C18.1125 20.5008 18 20.3883 18 20.2508V19.7508C18 19.6133 18.1125 19.5008 18.25 19.5008H25.75C25.8875 19.5008 26 19.6133 26 19.7508V20.2508Z" fill="#27A0EC"/>
<circle cx="26" cy="29" r="4" fill="#B9E4FF"/>
<path d="M26.5332 29.9649L25.1765 29.6074C24.575 29.4474 24.0908 28.9899 24.0123 28.415C23.9038 27.615 24.5278 26.93 25.35 26.84V26.4C25.35 26.18 25.5455 26 25.7842 26H26.2185C26.4572 26 26.6527 26.18 26.6527 26.4V26.843C26.958 26.8745 27.2526 26.9726 27.5157 27.1305C27.5481 27.15 27.5762 27.1756 27.5986 27.2061C27.6209 27.2365 27.637 27.271 27.646 27.3077C27.6549 27.3444 27.6565 27.3825 27.6506 27.4198C27.6447 27.4571 27.6315 27.4928 27.6117 27.525C27.597 27.5492 27.5787 27.5711 27.5575 27.59L27.0825 28.0275C26.982 28.12 26.8307 28.1325 26.7 28.0775C26.6108 28.0413 26.5155 28.0226 26.4192 28.0225H25.5292C25.4035 28.0225 25.3013 28.1175 25.3013 28.2325C25.3027 28.2798 25.3197 28.3252 25.3497 28.3619C25.3797 28.3985 25.4209 28.4242 25.467 28.435L26.8237 28.7924C27.4262 28.9524 27.909 29.4099 27.9877 29.9849C28.0962 30.7849 27.4735 31.4699 26.6502 31.5599V31.9999C26.6502 32.2199 26.4545 32.3999 26.2157 32.3999H25.7815C25.543 32.3999 25.3473 32.2199 25.3473 31.9999V31.5574C25.0421 31.5259 24.7476 31.4278 24.4845 31.2699C24.4522 31.2505 24.424 31.225 24.4017 31.1947C24.3793 31.1644 24.3631 31.1299 24.3541 31.0933C24.3451 31.0568 24.3434 31.0188 24.3491 30.9815C24.3549 30.9443 24.3679 30.9086 24.3875 30.8764C24.4028 30.8515 24.4218 30.8291 24.4438 30.8099L24.9188 30.3724C25.0193 30.2799 25.1703 30.2674 25.3013 30.3224C25.3901 30.3585 25.4851 30.3771 25.581 30.3774H26.471C26.5967 30.3774 26.699 30.2824 26.699 30.1674C26.6975 30.1201 26.6805 30.0746 26.6505 30.038C26.6205 30.0014 26.5793 29.9757 26.5332 29.9649Z" fill="#27A0EC"/>
</svg>
