<svg width="46" height="46" viewBox="0 0 46 46" fill="none" xmlns="http://www.w3.org/2000/svg">
<circle cx="23" cy="23" r="23" fill="#1DB054"/>
<path d="M22.9999 16.1331C22.8599 16.1331 22.7199 16.1193 22.5939 16.0918C22.4539 16.0642 22.3279 16.0229 22.2019 15.9815C22.0759 15.9264 21.9499 15.8575 21.8379 15.7886C21.7259 15.7059 21.6139 15.6232 21.5159 15.5268C21.1239 15.1409 20.8999 14.6173 20.8999 14.0661C20.8999 13.5149 21.1239 12.9913 21.5159 12.6054C21.6139 12.509 21.7259 12.4263 21.8379 12.3436C21.9499 12.2747 22.0759 12.2058 22.2019 12.1645C22.3279 12.1094 22.4539 12.068 22.5939 12.0405C23.2659 11.9027 23.9939 12.1231 24.4839 12.6054C24.8759 12.9913 25.0999 13.5149 25.0999 14.0661C25.0999 14.6173 24.8759 15.1409 24.4839 15.5268C24.0919 15.9126 23.5459 16.1331 22.9999 16.1331Z" fill="white"/>
<path d="M22.9999 22.3342C22.8599 22.3342 22.7199 22.3204 22.5939 22.2928C22.4539 22.2653 22.3279 22.2239 22.2019 22.1826C22.0759 22.1275 21.9499 22.0586 21.8379 21.9897C21.7259 21.907 21.6139 21.8243 21.5159 21.7279C21.1239 21.342 20.8999 20.8184 20.8999 20.2672C20.8999 19.716 21.1239 19.1924 21.5159 18.8065C21.6139 18.7101 21.7259 18.6274 21.8379 18.5447C21.9499 18.4758 22.0759 18.4069 22.2019 18.3656C22.3279 18.3104 22.4539 18.2691 22.5939 18.2415C22.8599 18.1864 23.1399 18.1864 23.4059 18.2415C23.5459 18.2691 23.6719 18.3104 23.7979 18.3656C23.9239 18.4069 24.0499 18.4758 24.1619 18.5447C24.2739 18.6274 24.3859 18.7101 24.4839 18.8065C24.8759 19.1924 25.0999 19.716 25.0999 20.2672C25.0999 20.8184 24.8759 21.342 24.4839 21.7279C24.3859 21.8243 24.2739 21.907 24.1619 21.9897C24.0499 22.0586 23.9239 22.1275 23.7979 22.1826C23.6719 22.2239 23.5459 22.2653 23.4059 22.2928C23.2799 22.3204 23.1399 22.3342 22.9999 22.3342Z" fill="white"/>
<path d="M22.9999 27.846C22.8599 27.846 22.7199 27.8322 22.5939 27.8047C22.4539 27.7771 22.3279 27.7358 22.2019 27.6944C22.0759 27.6393 21.9499 27.5704 21.8379 27.5015C21.7259 27.4188 21.6139 27.3361 21.5159 27.2397C21.4179 27.1432 21.3339 27.0468 21.2499 26.9227C21.1799 26.8125 21.1099 26.6885 21.0539 26.5645C21.0119 26.4404 20.9699 26.3164 20.9419 26.1786C20.9139 26.0546 20.8999 25.9168 20.8999 25.779C20.8999 25.2278 21.1239 24.7042 21.5159 24.3183C21.6139 24.2219 21.7259 24.1392 21.8379 24.0565C21.9499 23.9876 22.0759 23.9187 22.2019 23.8636C22.3279 23.8223 22.4539 23.7809 22.5939 23.7534C23.2659 23.6156 23.9939 23.836 24.4839 24.3183C24.8759 24.7042 25.0999 25.2278 25.0999 25.779C25.0999 25.9168 25.0859 26.0546 25.0579 26.1786C25.0299 26.3164 24.9879 26.4404 24.9319 26.5645C24.8899 26.6885 24.8199 26.8125 24.7499 26.9227C24.6659 27.0468 24.5819 27.1432 24.4839 27.2397C24.3859 27.3361 24.2739 27.4188 24.1619 27.5015C24.0499 27.5704 23.9239 27.6393 23.7979 27.6944C23.6719 27.7358 23.5459 27.7771 23.4059 27.8047C23.2799 27.8322 23.1399 27.846 22.9999 27.846Z" fill="white"/>
<g opacity="0.6">
<path opacity="0.6" d="M23.0001 32.6694C22.6361 32.6694 22.2721 32.5179 22.0061 32.2698C21.7541 32.008 21.6001 31.6497 21.6001 31.2914C21.6001 30.9332 21.7541 30.5749 22.0061 30.3131C22.3281 29.9961 22.8181 29.8583 23.2661 29.941C23.3641 29.9548 23.4481 29.9824 23.5321 30.0237C23.6161 30.0513 23.7001 30.0926 23.7701 30.1477C23.8541 30.2028 23.9241 30.258 23.9941 30.3131C24.2461 30.5749 24.4001 30.9332 24.4001 31.2914C24.4001 31.6497 24.2461 32.008 23.9941 32.2698C23.9241 32.3249 23.8541 32.3801 23.7701 32.4352C23.7001 32.4903 23.6161 32.5316 23.5321 32.5592C23.4481 32.6005 23.3641 32.6281 23.2661 32.6419C23.1821 32.6557 23.0841 32.6694 23.0001 32.6694Z" fill="white"/>
</g>
<g opacity="0.4">
<path opacity="0.4" d="M23.0002 37.1476C22.8602 37.1476 22.7202 37.12 22.5942 37.0649C22.4682 37.0098 22.3562 36.9409 22.2582 36.8444C22.1602 36.7479 22.0762 36.6377 22.0342 36.5137C21.9782 36.3897 21.9502 36.2519 21.9502 36.1141C21.9502 35.8385 22.0622 35.5766 22.2582 35.3837C22.3562 35.2873 22.4682 35.2184 22.5942 35.1632C22.8602 35.053 23.1402 35.053 23.4062 35.1632C23.5322 35.2184 23.6442 35.2873 23.7422 35.3837C23.8402 35.4802 23.9102 35.5904 23.9662 35.7144C24.0222 35.8385 24.0502 35.9763 24.0502 36.1141C24.0502 36.2519 24.0222 36.3897 23.9662 36.5137C23.9102 36.6377 23.8402 36.7479 23.7422 36.8444C23.6442 36.9409 23.5322 37.0098 23.4062 37.0649C23.2662 37.12 23.1402 37.1476 23.0002 37.1476Z" fill="white"/>
</g>
<g opacity="0.2">
<path opacity="0.2" d="M22.9998 40C22.8178 40 22.6358 39.9311 22.5098 39.7933C22.3698 39.6693 22.2998 39.4901 22.2998 39.311C22.2998 39.1318 22.3698 38.9527 22.5098 38.8287C22.7618 38.5669 23.2378 38.5669 23.4898 38.8287C23.6298 38.9527 23.6998 39.1318 23.6998 39.311C23.6998 39.4901 23.6298 39.6693 23.4898 39.7933C23.3638 39.9311 23.1818 40 22.9998 40Z" fill="white"/>
</g>
<path d="M11.1 22.334C10.54 22.334 10.008 22.1135 9.616 21.7276C9.224 21.3418 9 20.8182 9 20.267C9 19.7296 9.224 19.1921 9.616 18.8063C10.386 18.0346 11.8 18.0346 12.584 18.8063C12.976 19.1921 13.2 19.7296 13.2 20.267C13.2 20.8182 12.976 21.3418 12.584 21.7276C12.486 21.8241 12.374 21.9068 12.262 21.9895C12.15 22.0584 12.024 22.1273 11.898 22.1686C11.772 22.2237 11.646 22.2651 11.506 22.2926C11.38 22.3202 11.24 22.334 11.1 22.334Z" fill="white"/>
<path d="M34.8998 22.3342C34.3538 22.3342 33.8078 22.1137 33.4158 21.7279C33.0238 21.342 32.7998 20.8046 32.7998 20.2672C32.7998 20.1294 32.8138 19.9916 32.8418 19.8676C32.8698 19.7298 32.9118 19.6057 32.9538 19.4817C33.0098 19.3577 33.0798 19.2337 33.1498 19.1235C33.2338 19.0132 33.3178 18.903 33.4158 18.8065C33.5138 18.7101 33.6258 18.6274 33.7378 18.5447C33.8498 18.4758 33.9758 18.4069 34.1018 18.3656C34.2278 18.3104 34.3538 18.2691 34.4938 18.2415C34.7598 18.1864 35.0398 18.1864 35.3058 18.2415C35.4458 18.2691 35.5718 18.3104 35.6978 18.3656C35.8238 18.4069 35.9498 18.4758 36.0618 18.5447C36.1738 18.6274 36.2858 18.7101 36.3838 18.8065C36.4818 18.903 36.5658 19.0132 36.6498 19.1235C36.7198 19.2337 36.7898 19.3577 36.8318 19.4817C36.8878 19.6057 36.9298 19.7298 36.9578 19.8676C36.9858 19.9916 36.9998 20.1294 36.9998 20.2672C36.9998 20.8184 36.7758 21.342 36.3838 21.7279C36.2858 21.8243 36.1738 21.907 36.0618 21.9897C35.9498 22.0586 35.8238 22.1275 35.6978 22.1826C35.5718 22.2239 35.4458 22.2653 35.3058 22.2928C35.1658 22.3204 35.0398 22.3342 34.8998 22.3342Z" fill="white"/>
<g opacity="0.6">
<path opacity="0.6" d="M34.9 27.1569C34.816 27.1569 34.718 27.1431 34.634 27.1293C34.536 27.1156 34.452 27.088 34.368 27.0467C34.284 27.0191 34.2 26.9778 34.116 26.9226C34.046 26.8813 33.976 26.8124 33.906 26.7573C33.85 26.6884 33.78 26.6195 33.738 26.5506C33.682 26.4679 33.64 26.3852 33.612 26.3025C33.57 26.2199 33.542 26.1372 33.528 26.0545C33.514 25.958 33.5 25.8754 33.5 25.7789C33.5 25.4206 33.654 25.0623 33.906 24.8005C33.976 24.7454 34.046 24.6903 34.116 24.6352C34.2 24.58 34.284 24.5387 34.368 24.5111C34.452 24.4698 34.536 24.4422 34.634 24.4285C34.802 24.3871 34.984 24.3871 35.166 24.4285C35.264 24.4422 35.348 24.4698 35.432 24.5111C35.516 24.5387 35.6 24.58 35.67 24.6352C35.754 24.6903 35.824 24.7454 35.894 24.8005C36.146 25.0623 36.3 25.4206 36.3 25.7789C36.3 25.8754 36.286 25.958 36.272 26.0545C36.258 26.1372 36.23 26.2199 36.188 26.3025C36.16 26.3852 36.118 26.4679 36.062 26.5506C36.006 26.6195 35.95 26.6884 35.894 26.7573C35.824 26.8124 35.754 26.8813 35.67 26.9226C35.6 26.9778 35.516 27.0191 35.432 27.0467C35.348 27.088 35.264 27.1156 35.166 27.1293C35.082 27.1431 34.984 27.1569 34.9 27.1569Z" fill="white"/>
</g>
<g opacity="0.6">
<path opacity="0.6" d="M11.1002 27.1573C10.7362 27.1573 10.3722 27.0057 10.1062 26.7577C9.85416 26.4959 9.7002 26.1376 9.7002 25.7793C9.7002 25.421 9.85416 25.0627 10.1062 24.8009C10.4982 24.4151 11.1142 24.2911 11.6322 24.5115C11.8142 24.5804 11.9542 24.6769 12.0942 24.8009C12.3462 25.0627 12.5002 25.421 12.5002 25.7793C12.5002 26.1376 12.3462 26.4959 12.0942 26.7577C11.8282 27.0057 11.4642 27.1573 11.1002 27.1573Z" fill="white"/>
</g>
<g opacity="0.4">
<path opacity="0.4" d="M34.9001 30.9463C34.6201 30.9463 34.3541 30.8361 34.1581 30.6431C33.9621 30.4502 33.8501 30.1884 33.8501 29.9128C33.8501 29.775 33.8781 29.651 33.9341 29.5132C33.9901 29.3892 34.0601 29.2789 34.1581 29.1825C34.4521 28.8931 34.9141 28.7966 35.3061 28.962C35.4321 29.0171 35.5441 29.086 35.6421 29.1825C35.7401 29.2789 35.8101 29.3892 35.8661 29.5132C35.9221 29.651 35.9501 29.775 35.9501 29.9128C35.9501 30.1884 35.8381 30.4502 35.6421 30.6431C35.5441 30.7396 35.4321 30.8085 35.3061 30.8636C35.1661 30.9187 35.0401 30.9463 34.9001 30.9463Z" fill="white"/>
</g>
<g opacity="0.4">
<path opacity="0.4" d="M11.0998 30.9463C10.8198 30.9463 10.5538 30.836 10.3578 30.6431C10.2598 30.5467 10.1758 30.4364 10.1338 30.3124C10.0778 30.1884 10.0498 30.0506 10.0498 29.9128C10.0498 29.775 10.0778 29.651 10.1338 29.5132C10.1758 29.3891 10.2598 29.2789 10.3578 29.1824C10.7358 28.7966 11.4498 28.7966 11.8418 29.1824C11.9398 29.2789 12.0098 29.3891 12.0658 29.5132C12.1218 29.651 12.1498 29.775 12.1498 29.9128C12.1498 30.0506 12.1218 30.1884 12.0658 30.3124C12.0098 30.4364 11.9398 30.5467 11.8418 30.6431C11.6458 30.836 11.3798 30.9463 11.0998 30.9463Z" fill="white"/>
</g>
<g opacity="0.2">
<path opacity="0.2" d="M34.9002 34.3916C34.8022 34.3916 34.7182 34.3778 34.6342 34.3365C34.5502 34.3089 34.4662 34.2538 34.4102 34.1849C34.2702 34.0609 34.2002 33.8817 34.2002 33.7026C34.2002 33.5234 34.2702 33.3443 34.4102 33.2203C34.6622 32.9585 35.1382 32.9585 35.3902 33.2203C35.5302 33.3443 35.6002 33.5234 35.6002 33.7026C35.6002 33.8817 35.5302 34.0609 35.3902 34.1849C35.2642 34.3227 35.0822 34.3916 34.9002 34.3916Z" fill="white"/>
</g>
<g opacity="0.2">
<path opacity="0.2" d="M11.0999 34.3916C10.9179 34.3916 10.7359 34.3227 10.6099 34.1849C10.4699 34.0609 10.3999 33.8817 10.3999 33.7026C10.3999 33.5234 10.4699 33.3443 10.6099 33.2203C10.8619 32.9585 11.3379 32.9585 11.5899 33.2203C11.7299 33.3443 11.7999 33.5234 11.7999 33.7026C11.7999 33.8817 11.7299 34.0609 11.5899 34.1849C11.4639 34.3227 11.2819 34.3916 11.0999 34.3916Z" fill="white"/>
</g>
<path d="M17.0502 19.2334C16.9102 19.2334 16.7702 19.2196 16.6442 19.192C16.5042 19.1645 16.3782 19.1231 16.2522 19.068C16.1122 19.0267 16.0002 18.9578 15.8882 18.8889C15.7622 18.8062 15.6642 18.7235 15.5662 18.6271C15.1742 18.2412 14.9502 17.7038 14.9502 17.1664C14.9502 16.629 15.1742 16.0915 15.5662 15.7057C16.3502 14.934 17.7502 14.934 18.5342 15.7057C18.9262 16.0915 19.1502 16.6152 19.1502 17.1664C19.1502 17.7176 18.9262 18.2412 18.5342 18.6271C18.4362 18.7235 18.3242 18.8062 18.2122 18.8889C18.1002 18.9578 17.9742 19.0267 17.8482 19.068C17.7222 19.1231 17.5962 19.1645 17.4562 19.192C17.3302 19.2196 17.1902 19.2334 17.0502 19.2334Z" fill="white"/>
<path d="M28.9501 19.2336C28.8101 19.2336 28.6701 19.2198 28.5441 19.1922C28.4041 19.1647 28.2781 19.1234 28.1521 19.0682C28.0261 19.0269 27.9001 18.958 27.7881 18.8891C27.6761 18.8064 27.5641 18.7237 27.4661 18.6273C27.3681 18.5308 27.2841 18.4206 27.2001 18.3103C27.1301 18.2001 27.0601 18.0761 27.0041 17.9521C26.9621 17.828 26.9201 17.704 26.8921 17.5662C26.8641 17.4422 26.8501 17.3044 26.8501 17.1666C26.8501 16.6292 27.0741 16.0918 27.4661 15.7059C27.5641 15.6095 27.6761 15.5268 27.7881 15.4441C27.9001 15.3752 28.0261 15.3063 28.1521 15.265C28.2781 15.2098 28.4041 15.1685 28.5441 15.1409C28.8101 15.0858 29.0901 15.0858 29.3561 15.1409C29.4961 15.1685 29.6221 15.2098 29.7481 15.265C29.8741 15.3063 30.0001 15.3752 30.1121 15.4441C30.2241 15.5268 30.3361 15.6095 30.4341 15.7059C30.8261 16.0918 31.0501 16.6292 31.0501 17.1666C31.0501 17.3044 31.0361 17.4422 31.0081 17.5662C30.9801 17.704 30.9381 17.828 30.8961 17.9521C30.8401 18.0761 30.7701 18.2001 30.7001 18.3103C30.6161 18.4206 30.5321 18.5308 30.4341 18.6273C30.3361 18.7237 30.2241 18.8064 30.1121 18.8891C30.0001 18.958 29.8741 19.0269 29.7481 19.0682C29.6221 19.1234 29.4961 19.1647 29.3561 19.1922C29.2301 19.2198 29.0901 19.2336 28.9501 19.2336Z" fill="white"/>
<path d="M17.0502 25.0898C16.9102 25.0898 16.7702 25.076 16.6442 25.0485C16.5042 25.0209 16.3782 24.9796 16.2522 24.9382C16.1262 24.8831 16.0002 24.8142 15.8882 24.7453C15.7622 24.6626 15.6642 24.58 15.5662 24.4835C15.1742 24.0977 14.9502 23.5602 14.9502 23.0228C14.9502 22.4716 15.1742 21.948 15.5662 21.5622C16.3502 20.7905 17.7502 20.7905 18.5342 21.5622C18.9262 21.948 19.1502 22.4716 19.1502 23.0228C19.1502 23.574 18.9262 24.0977 18.5342 24.4835C18.1422 24.8693 17.5962 25.0898 17.0502 25.0898Z" fill="white"/>
<path d="M28.9501 25.09C28.8101 25.09 28.6701 25.0763 28.5441 25.0487C28.4041 25.0211 28.2781 24.9798 28.1521 24.9247C28.0261 24.8833 27.9001 24.8144 27.7881 24.7455C27.6761 24.6629 27.5641 24.5802 27.4661 24.4837C27.3681 24.3873 27.2841 24.277 27.2001 24.1668C27.1301 24.0565 27.0601 23.9325 27.0041 23.8085C26.9621 23.6845 26.9201 23.5605 26.8921 23.4227C26.8641 23.2986 26.8501 23.1608 26.8501 23.023C26.8501 22.4856 27.0741 21.9482 27.4661 21.5624C27.5641 21.4659 27.6761 21.3832 27.7881 21.3006C27.9001 21.2317 28.0261 21.1628 28.1521 21.1214C28.2781 21.0663 28.4041 21.025 28.5441 20.9974C28.8101 20.9423 29.0901 20.9423 29.3561 20.9974C29.4961 21.025 29.6221 21.0663 29.7481 21.1214C29.8741 21.1628 30.0001 21.2317 30.1121 21.3006C30.2241 21.3832 30.3361 21.4659 30.4341 21.5624C30.8261 21.9482 31.0501 22.4856 31.0501 23.023C31.0501 23.1608 31.0361 23.2986 31.0081 23.4227C30.9801 23.5605 30.9381 23.6845 30.8961 23.8085C30.8401 23.9325 30.7701 24.0565 30.7001 24.1668C30.6161 24.277 30.5321 24.3873 30.4341 24.4837C30.3361 24.5802 30.2241 24.6629 30.1121 24.7455C30.0001 24.8144 29.8741 24.8833 29.7481 24.9247C29.6221 24.9798 29.4961 25.0211 29.3561 25.0487C29.2301 25.0763 29.0901 25.09 28.9501 25.09Z" fill="white"/>
<g opacity="0.6">
<path opacity="0.6" d="M17.0499 29.9131C16.8679 29.9131 16.6859 29.8717 16.5179 29.8028C16.3359 29.7339 16.1819 29.6375 16.0559 29.5135C15.9299 29.3757 15.8319 29.2241 15.7619 29.0587C15.6919 28.8934 15.6499 28.7142 15.6499 28.5351C15.6499 28.1768 15.8039 27.8185 16.0559 27.5567C16.5739 27.0469 17.5259 27.0469 18.0439 27.5567C18.2959 27.8185 18.4499 28.1768 18.4499 28.5351C18.4499 28.7142 18.4079 28.8934 18.3379 29.0587C18.2679 29.2241 18.1699 29.3757 18.0439 29.5135C17.7779 29.7615 17.4139 29.9131 17.0499 29.9131Z" fill="white"/>
</g>
<g opacity="0.6">
<path opacity="0.6" d="M28.9498 29.9131C28.5858 29.9131 28.2218 29.7615 27.9558 29.5135C27.7038 29.2516 27.5498 28.8934 27.5498 28.5351C27.5498 28.1768 27.7038 27.8185 27.9558 27.5567C28.4738 27.0469 29.4118 27.0469 29.9438 27.5567C30.1958 27.8185 30.3498 28.1768 30.3498 28.5351C30.3498 28.6315 30.3358 28.7142 30.3218 28.8107C30.3078 28.8934 30.2798 28.976 30.2378 29.0587C30.2098 29.1414 30.1678 29.2241 30.1118 29.293C30.0558 29.3757 29.9998 29.4446 29.9438 29.5135C29.6778 29.7615 29.3138 29.9131 28.9498 29.9131Z" fill="white"/>
</g>
<g opacity="0.4">
<path opacity="0.4" d="M17.05 34.047C16.77 34.047 16.504 33.9367 16.308 33.7438C16.21 33.6474 16.14 33.5371 16.084 33.4131C16.028 33.2891 16 33.1513 16 33.0135C16 32.8757 16.028 32.7517 16.084 32.6139C16.14 32.4898 16.21 32.3796 16.308 32.2831C16.406 32.1867 16.518 32.1178 16.644 32.0627C16.896 31.9524 17.19 31.9524 17.456 32.0627C17.582 32.1178 17.694 32.1867 17.792 32.2831C17.988 32.4761 18.1 32.7379 18.1 33.0135C18.1 33.1513 18.072 33.2891 18.016 33.4131C17.96 33.5371 17.89 33.6474 17.792 33.7438C17.596 33.9367 17.33 34.047 17.05 34.047Z" fill="white"/>
</g>
<g opacity="0.4">
<path opacity="0.4" d="M28.9499 34.047C28.8099 34.047 28.6699 34.0194 28.5439 33.9643C28.4179 33.9092 28.3059 33.8403 28.2079 33.7438C28.1099 33.6474 28.0259 33.5371 27.9839 33.4131C27.9279 33.2891 27.8999 33.1513 27.8999 33.0135C27.8999 32.8757 27.9279 32.7379 27.9839 32.6139C28.0399 32.4898 28.1099 32.3796 28.2079 32.2831C28.3059 32.1867 28.4179 32.1178 28.5439 32.0627C28.7959 31.9524 29.0899 31.9524 29.3559 32.0627C29.4819 32.1178 29.5939 32.1867 29.6919 32.2831C29.7899 32.3796 29.8599 32.4898 29.9159 32.6139C29.9719 32.7379 29.9999 32.8757 29.9999 33.0135C29.9999 33.1513 29.9719 33.2891 29.9159 33.4131C29.8599 33.5371 29.7899 33.6474 29.6919 33.7438C29.4959 33.9367 29.2299 34.047 28.9499 34.047Z" fill="white"/>
</g>
<g opacity="0.2">
<path opacity="0.2" d="M17.0501 37.1474C16.8681 37.1474 16.6861 37.0785 16.5601 36.9407C16.4201 36.8167 16.3501 36.6376 16.3501 36.4584C16.3501 36.2793 16.4201 36.1002 16.5601 35.9761C16.8121 35.7143 17.2881 35.7143 17.5401 35.9761C17.6801 36.1002 17.7501 36.2793 17.7501 36.4584C17.7501 36.6376 17.6801 36.8167 17.5401 36.9407C17.4141 37.0785 17.2321 37.1474 17.0501 37.1474Z" fill="white"/>
</g>
<g opacity="0.2">
<path opacity="0.2" d="M28.95 37.1474C28.852 37.1474 28.768 37.1337 28.684 37.0923C28.6 37.0648 28.516 37.0096 28.46 36.9407C28.39 36.8856 28.334 36.8029 28.306 36.7203C28.264 36.6376 28.25 36.5549 28.25 36.4584C28.25 36.2793 28.32 36.1002 28.46 35.9761C28.712 35.7143 29.188 35.7143 29.44 35.9761C29.58 36.1002 29.65 36.2793 29.65 36.4584C29.65 36.5549 29.636 36.6376 29.594 36.7203C29.566 36.8029 29.51 36.8856 29.44 36.9407C29.314 37.0785 29.132 37.1474 28.95 37.1474Z" fill="white"/>
</g>
</svg>
