<svg width="46" height="46" viewBox="0 0 46 46" fill="none" xmlns="http://www.w3.org/2000/svg">
<circle cx="23" cy="23" r="23" fill="#EE4428"/>
<rect opacity="0.6" x="15" y="13" width="12" height="14" fill="#FFBBAF"/>
<path d="M19.8761 10.5445C19.48 10.5801 18.4999 10.768 18.0479 10.8949C12.8124 12.3676 9.62842 17.6895 10.7151 23.1535C11.2483 25.8246 12.8479 28.1758 15.2144 29.7652C15.778 30.1461 16.8241 30.659 17.5147 30.8977C19.8253 31.6949 22.4151 31.6797 24.6546 30.8418C25.1624 30.6539 26.0917 30.2121 26.4472 29.9836L26.6452 29.8617L27.1429 30.6082C28.2347 32.2535 29.4179 33.7973 30.0679 34.4371C30.794 35.148 31.4847 35.4578 32.3683 35.4629C33.2569 35.4629 33.8612 35.209 34.5062 34.559C35.1815 33.8734 35.4812 33.1066 35.4253 32.1926C35.3796 31.4969 35.1105 30.8164 34.6788 30.334C34.1405 29.7246 31.9925 28.0488 30.4233 27.018L29.8546 26.6473L29.9866 26.434C30.8702 24.9969 31.3983 23.1637 31.4644 21.3508C31.6218 16.8871 29.0167 12.8957 24.878 11.2504C24.1366 10.9609 23.1058 10.6918 22.2983 10.5902C21.7245 10.5141 20.4448 10.4937 19.8761 10.5445ZM21.9175 14.1449C22.9585 14.5512 23.6288 15.4652 23.6948 16.5621C23.7304 17.1207 23.6542 17.5371 23.4206 18.0195C23.2022 18.4766 22.7097 18.9895 22.2628 19.2281C20.6683 20.066 18.6421 19.157 18.1952 17.4C18.0733 16.943 18.119 16.232 18.2968 15.7648C18.6116 14.932 19.3683 14.2617 20.2468 14.0383C20.7089 13.9215 21.4655 13.9672 21.9175 14.1449ZM19.5308 21.2949C19.7593 21.366 20.0995 21.4473 20.2874 21.4828C20.7952 21.5691 21.7448 21.5133 22.339 21.3609L22.8214 21.234L23.1616 21.3762C23.6136 21.5641 24.0503 21.884 24.553 22.402C25.0405 22.8945 25.3147 23.2855 25.5839 23.8695C25.8835 24.5094 25.9546 24.7582 25.914 25.0121C25.8683 25.3371 25.6448 25.657 25.3757 25.7891C25.1522 25.8957 25.1421 25.8957 20.9323 25.8957H16.7175L16.494 25.7789C16.23 25.6418 15.971 25.2457 15.9253 24.9258C15.8897 24.6516 15.9964 24.2402 16.2503 23.7172C16.6007 22.9809 17.1491 22.3105 17.8144 21.8129C18.1495 21.5691 18.9874 21.1172 19.0687 21.1426C19.0991 21.1527 19.3073 21.2187 19.5308 21.2949Z" fill="white"/>
</svg>
