<svg width="46" height="46" viewBox="0 0 46 46" fill="none" xmlns="http://www.w3.org/2000/svg">
<circle cx="23" cy="23" r="23" fill="#27A0EC"/>
<g clip-path="url(#clip0_916_100)">
<path opacity="0.6" d="M26.8019 26.3717C26.6397 26.3717 26.4754 26.3338 26.325 26.258C25.9633 26.0749 25.735 25.699 25.735 25.2884V23.1217H24.668V20.9551H26.8019C27.3908 20.9551 27.8688 21.4404 27.8688 22.0384V23.1217L30.4294 21.1717C30.614 21.0309 30.8391 20.9551 31.0696 20.9551H34.2703V13.3717H23.6011V16.6217H21.4673V13.3717C21.4673 12.1757 22.4243 11.2051 23.6011 11.2051H34.2703C35.4471 11.2051 36.4042 12.1757 36.4042 13.3717V20.9551C36.4042 22.15 35.4471 23.1217 34.2703 23.1217H31.4248L27.442 26.1551C27.2532 26.2981 27.0281 26.3717 26.8019 26.3717Z" fill="white"/>
<path d="M19.3331 26.3715C21.6867 26.3715 23.6008 24.428 23.6008 22.0382C23.6008 19.6483 21.6867 17.7048 19.3331 17.7048C16.9795 17.7048 15.0654 19.6483 15.0654 22.0382C15.0654 24.428 16.9795 26.3715 19.3331 26.3715Z" fill="white"/>
<path d="M19.3332 27.4548C14.308 27.4548 10.7979 30.1274 10.7979 33.9548V35.0382H27.8686V33.9548C27.8686 30.1274 24.3584 27.4548 19.3332 27.4548Z" fill="white"/>
</g>
<defs>
<clipPath id="clip0_916_100">
<rect width="25.6061" height="26" fill="white" transform="translate(10.7979 9.03906)"/>
</clipPath>
</defs>
</svg>
