<svg width="40" height="40" viewBox="0 0 40 40" fill="none" xmlns="http://www.w3.org/2000/svg">
<path fill-rule="evenodd" clip-rule="evenodd" d="M10 3.75H7.5C6.17392 3.75 4.90215 4.27678 3.96447 5.21447C3.02678 6.15215 2.5 7.42392 2.5 8.75V35C2.5 36.3261 3.02678 37.5979 3.96447 38.5355C4.90215 39.4732 6.17392 40 7.5 40H32.5C33.8261 40 35.0979 39.4732 36.0355 38.5355C36.9732 37.5979 37.5 36.3261 37.5 35V8.75C37.5 7.42392 36.9732 6.15215 36.0355 5.21447C35.0979 4.27678 33.8261 3.75 32.5 3.75H30V6.25H32.5C33.163 6.25 33.7989 6.51339 34.2678 6.98223C34.7366 7.45107 35 8.08696 35 8.75V35C35 35.663 34.7366 36.2989 34.2678 36.7678C33.7989 37.2366 33.163 37.5 32.5 37.5H7.5C6.83696 37.5 6.20107 37.2366 5.73223 36.7678C5.26339 36.2989 5 35.663 5 35V8.75C5 8.08696 5.26339 7.45107 5.73223 6.98223C6.20107 6.51339 6.83696 6.25 7.5 6.25H10V3.75Z" fill="#28A745"/>
<path fill-rule="evenodd" clip-rule="evenodd" d="M23.75 2.5H16.25C15.9185 2.5 15.6005 2.6317 15.3661 2.86612C15.1317 3.10054 15 3.41848 15 3.75V6.25C15 6.58152 15.1317 6.89946 15.3661 7.13388C15.6005 7.3683 15.9185 7.5 16.25 7.5H23.75C24.0815 7.5 24.3995 7.3683 24.6339 7.13388C24.8683 6.89946 25 6.58152 25 6.25V3.75C25 3.41848 24.8683 3.10054 24.6339 2.86612C24.3995 2.6317 24.0815 2.5 23.75 2.5ZM16.25 0C15.2554 0 14.3016 0.395088 13.5983 1.09835C12.8951 1.80161 12.5 2.75544 12.5 3.75V6.25C12.5 7.24456 12.8951 8.19839 13.5983 8.90165C14.3016 9.60491 15.2554 10 16.25 10H23.75C24.7446 10 25.6984 9.60491 26.4017 8.90165C27.1049 8.19839 27.5 7.24456 27.5 6.25V3.75C27.5 2.75544 27.1049 1.80161 26.4017 1.09835C25.6984 0.395088 24.7446 0 23.75 0L16.25 0ZM27.135 17.865C27.2514 17.9811 27.3438 18.1191 27.4068 18.2709C27.4698 18.4228 27.5022 18.5856 27.5022 18.75C27.5022 18.9144 27.4698 19.0772 27.4068 19.2291C27.3438 19.3809 27.2514 19.5189 27.135 19.635L19.635 27.135C19.5189 27.2514 19.3809 27.3438 19.2291 27.4068C19.0772 27.4698 18.9144 27.5022 18.75 27.5022C18.5856 27.5022 18.4228 27.4698 18.2709 27.4068C18.1191 27.3438 17.9811 27.2514 17.865 27.135L14.115 23.385C13.9988 23.2688 13.9066 23.1308 13.8437 22.979C13.7808 22.8271 13.7484 22.6644 13.7484 22.5C13.7484 22.3356 13.7808 22.1729 13.8437 22.021C13.9066 21.8692 13.9988 21.7312 14.115 21.615C14.3497 21.3803 14.6681 21.2484 15 21.2484C15.1644 21.2484 15.3271 21.2808 15.479 21.3437C15.6308 21.4066 15.7688 21.4988 15.885 21.615L18.75 24.4825L25.365 17.865C25.4811 17.7486 25.6191 17.6562 25.7709 17.5932C25.9228 17.5302 26.0856 17.4978 26.25 17.4978C26.4144 17.4978 26.5772 17.5302 26.7291 17.5932C26.8809 17.6562 27.0189 17.7486 27.135 17.865Z" fill="#28A745"/>
</svg>
