<svg width="30" height="30" viewBox="0 0 30 30" fill="none" xmlns="http://www.w3.org/2000/svg">
<path d="M5.74973 7.5C7.26851 7.5 8.49973 6.26878 8.49973 4.75C8.49973 3.23122 7.26851 2 5.74973 2C4.23094 2 2.99973 3.23122 2.99973 4.75C2.99973 6.26878 4.23094 7.5 5.74973 7.5Z" fill="#0A77DB"/>
<path d="M9.99973 15H1.49973V11C1.49973 9.619 2.61873 8.5 3.99973 8.5H7.49973C8.88073 8.5 9.99973 9.619 9.99973 11V15Z" fill="#0A77DB"/>
<path d="M12.2497 21C13.7685 21 14.9997 19.7688 14.9997 18.25C14.9997 16.7312 13.7685 15.5 12.2497 15.5C10.7309 15.5 9.49973 16.7312 9.49973 18.25C9.49973 19.7688 10.7309 21 12.2497 21Z" fill="#0A77DB"/>
<path d="M7.99973 28V24.5C7.99973 23.119 9.11873 22 10.4997 22H13.9997C15.3807 22 16.4997 23.119 16.4997 24.5V28H7.99973Z" fill="#0A77DB"/>
<path d="M23.7497 12.5C25.5447 12.5 26.9997 11.0449 26.9997 9.25C26.9997 7.45507 25.5447 6 23.7497 6C21.9548 6 20.4997 7.45507 20.4997 9.25C20.4997 11.0449 21.9548 12.5 23.7497 12.5Z" fill="#0A77DB"/>
<path d="M18.9997 22V16C18.9997 14.619 20.1187 13.5 21.4997 13.5H25.9997C27.3807 13.5 28.4997 14.619 28.4997 16V22H18.9997Z" fill="#0A77DB"/>
<path d="M19.1872 6.1425C18.4187 5.694 15.7957 3.5 10.7497 3.5C10.3357 3.5 9.99973 3.836 9.99973 4.25C9.99973 4.664 10.3357 5 10.7497 5C13.5397 5 16.0332 5.715 18.2977 7.345C18.4237 7.441 18.5792 7.5 18.7497 7.5C19.1637 7.5 19.4997 7.164 19.4997 6.75C19.4997 6.4995 19.3762 6.2785 19.1872 6.1425V6.1425Z" fill="#0A77DB" fill-opacity="0.5"/>
<path d="M17.0122 11.95C17.2967 11.844 17.4997 11.5715 17.4997 11.25C17.4997 10.836 17.1637 10.5 16.7497 10.5C16.6942 10.5 16.6402 10.507 16.5882 10.5185C14.9697 11.004 13.5242 11.766 12.3132 12.6425C12.1237 12.7785 11.9997 12.999 11.9997 13.25C11.9997 13.664 12.3357 14 12.7497 14C12.9197 14 13.0762 13.9435 13.2022 13.8475C14.3372 13.0305 15.6367 12.352 17.0122 11.95Z" fill="#0A77DB" fill-opacity="0.5"/>
</svg>
