<svg width="30" height="30" viewBox="0 0 30 30" fill="none" xmlns="http://www.w3.org/2000/svg">
<g clip-path="url(#clip0_7748_140552)">
<path d="M28.9581 10.4165H6.79139C6.23898 10.4165 5.77873 10.8015 5.65798 11.3172L2.15681 26.4891C2.13698 26.5731 2.12473 26.66 2.12473 26.7498C2.12473 27.3938 2.64739 27.9165 3.29139 27.9165H8.91064C14.0009 27.9165 8.91064 27.9165 14.0009 27.9165C19.8388 27.9165 14.0009 27.9165 19.8388 27.9165H25.4581C26.0105 27.9165 26.4707 27.5315 26.5915 27.0158L30.0926 11.8439C30.1125 11.7599 30.1247 11.673 30.1247 11.5832C30.1247 10.9392 29.6021 10.4165 28.9581 10.4165Z" fill="#0A77DB"/>
<g clip-path="url(#clip1_7748_140552)">
<path fill-rule="evenodd" clip-rule="evenodd" d="M13.162 14.25C12.963 14.25 12.7723 14.329 12.6316 14.4697C12.491 14.6103 12.412 14.8011 12.412 15V18.4395C12.412 18.6384 12.491 18.8291 12.6317 18.9698L17.8817 24.2198C18.0224 24.3604 18.2131 24.4393 18.412 24.4393C18.6108 24.4393 18.8016 24.3604 18.9422 24.2198L22.3817 20.7803C22.5223 20.6396 22.6013 20.4489 22.6013 20.25C22.6013 20.0511 22.5223 19.8604 22.3817 19.7198L17.1317 14.4698C16.9911 14.3291 16.8004 14.25 16.6015 14.25H13.162ZM16.162 16.875C16.162 17.0227 16.1329 17.169 16.0763 17.3055C16.0198 17.442 15.9369 17.566 15.8325 17.6705C15.728 17.775 15.604 17.8578 15.4675 17.9144C15.331 17.9709 15.1847 18 15.037 18C14.8892 18 14.7429 17.9709 14.6064 17.9144C14.4699 17.8578 14.3459 17.775 14.2415 17.6705C14.137 17.566 14.0541 17.442 13.9976 17.3055C13.9411 17.169 13.912 17.0227 13.912 16.875C13.912 16.5766 14.0305 16.2905 14.2415 16.0795C14.4524 15.8685 14.7386 15.75 15.037 15.75C15.3353 15.75 15.6215 15.8685 15.8325 16.0795C16.0434 16.2905 16.162 16.5766 16.162 16.875V16.875Z" fill="white" fill-opacity="0.9"/>
<path d="M11.662 18.8145C11.662 19.0134 11.741 19.2041 11.8817 19.3448L17.4745 24.9375L17.4422 24.9698C17.3016 25.1104 17.1108 25.1893 16.912 25.1893C16.7131 25.1893 16.5224 25.1104 16.3817 24.9698L11.1317 19.7198C10.991 19.5791 10.912 19.3884 10.912 19.1895V15.75C10.912 15.5511 10.991 15.3603 11.1316 15.2197C11.2723 15.079 11.463 15 11.662 15V18.8145Z" fill="white" fill-opacity="0.9"/>
</g>
<path d="M6.79141 8.66667H27.7914V2.83333C27.7914 1.54475 26.7467 0.5 25.4581 0.5H18.6453C17.8077 0.5 17.0347 0.949167 16.6188 1.676L14.9581 4.58333H2.12475C0.836162 4.58333 -0.208588 5.62808 -0.208588 6.91667V24.4913C-0.208588 24.7719 0.0194958 25 0.300662 25C0.537496 25 0.742829 24.8384 0.796496 24.6068C1.68375 20.7492 3.97041 10.8746 3.978 10.8477C4.31633 9.55858 5.4585 8.66667 6.79141 8.66667V8.66667Z" fill="#0A77DB" fill-opacity="0.5"/>
</g>
<defs>
<clipPath id="clip0_7748_140552">
<rect width="30" height="30" fill="white" transform="translate(-0.000274658)"/>
</clipPath>
<clipPath id="clip1_7748_140552">
<rect width="12" height="12" fill="white" transform="translate(10.912 13.5)"/>
</clipPath>
</defs>
</svg>
