<svg width="30" height="30" viewBox="0 0 30 30" fill="none" xmlns="http://www.w3.org/2000/svg">
<g clip-path="url(#clip0_7748_140548)">
<path d="M28.9581 10.4165H6.79139C6.23898 10.4165 5.77873 10.8015 5.65798 11.3172L2.15681 26.4891C2.13698 26.5731 2.12473 26.66 2.12473 26.7498C2.12473 27.3938 2.64739 27.9165 3.29139 27.9165H8.91064C14.0009 27.9165 8.91064 27.9165 14.0009 27.9165C19.8388 27.9165 14.0009 27.9165 19.8388 27.9165H25.4581C26.0105 27.9165 26.4707 27.5315 26.5915 27.0158L30.0926 11.8439C30.1125 11.7599 30.1247 11.673 30.1247 11.5832C30.1247 10.9392 29.6021 10.4165 28.9581 10.4165Z" fill="#0A77DB"/>
<path fill-rule="evenodd" clip-rule="evenodd" d="M10.912 25.5C10.912 25.5 9.91196 25.5 9.91196 24.5C9.91196 23.5 10.912 20.5 15.912 20.5C20.912 20.5 21.912 23.5 21.912 24.5C21.912 25.5 20.912 25.5 20.912 25.5H10.912ZM15.912 19.5C16.7076 19.5 17.4707 19.1839 18.0333 18.6213C18.5959 18.0587 18.912 17.2956 18.912 16.5C18.912 15.7044 18.5959 14.9413 18.0333 14.3787C17.4707 13.8161 16.7076 13.5 15.912 13.5C15.1163 13.5 14.3532 13.8161 13.7906 14.3787C13.228 14.9413 12.912 15.7044 12.912 16.5C12.912 17.2956 13.228 18.0587 13.7906 18.6213C14.3532 19.1839 15.1163 19.5 15.912 19.5Z" fill="white" fill-opacity="0.9"/>
<path d="M6.79141 8.66667H27.7914V2.83333C27.7914 1.54475 26.7467 0.5 25.4581 0.5H18.6453C17.8077 0.5 17.0347 0.949167 16.6188 1.676L14.9581 4.58333H2.12475C0.836162 4.58333 -0.208588 5.62808 -0.208588 6.91667V24.4913C-0.208588 24.7719 0.0194958 25 0.300662 25C0.537496 25 0.742829 24.8384 0.796496 24.6068C1.68375 20.7492 3.97041 10.8746 3.978 10.8477C4.31633 9.55858 5.4585 8.66667 6.79141 8.66667V8.66667Z" fill="#0A77DB" fill-opacity="0.5"/>
</g>
<defs>
<clipPath id="clip0_7748_140548">
<rect width="30" height="30" fill="white" transform="translate(-0.000274658)"/>
</clipPath>
</defs>
</svg>
