<svg width="30" height="30" viewBox="0 0 30 30" fill="none" xmlns="http://www.w3.org/2000/svg">
<g clip-path="url(#clip0_7748_140351)">
<path d="M28.9581 10.4165H6.79139C6.23898 10.4165 5.77873 10.8015 5.65798 11.3172L2.15681 26.4891C2.13698 26.5731 2.12473 26.66 2.12473 26.7498C2.12473 27.3938 2.64739 27.9165 3.29139 27.9165H8.91064C14.0009 27.9165 8.91064 27.9165 14.0009 27.9165C19.8388 27.9165 14.0009 27.9165 19.8388 27.9165H25.4581C26.0105 27.9165 26.4707 27.5315 26.5915 27.0158L30.0926 11.8439C30.1125 11.7599 30.1247 11.673 30.1247 11.5832C30.1247 10.9392 29.6021 10.4165 28.9581 10.4165Z" fill="#0A77DB"/>
<path d="M6.79141 8.66667H27.7914V2.83333C27.7914 1.54475 26.7467 0.5 25.4581 0.5H18.6453C17.8077 0.5 17.0347 0.949167 16.6188 1.676L14.9581 4.58333H2.12475C0.836162 4.58333 -0.208588 5.62808 -0.208588 6.91667V24.4913C-0.208588 24.7719 0.0194958 25 0.300662 25C0.537496 25 0.742829 24.8384 0.796496 24.6068C1.68375 20.7492 3.97041 10.8746 3.978 10.8477C4.31633 9.55858 5.4585 8.66667 6.79141 8.66667V8.66667Z" fill="#0A77DB" fill-opacity="0.5"/>
<path d="M17.2329 22.9804L23.5969 19.0424C23.7203 18.9619 23.8217 18.8518 23.8919 18.7223C23.962 18.5927 23.9988 18.4477 23.9988 18.3004C23.9988 18.153 23.962 18.008 23.8919 17.8785C23.8217 17.7489 23.7203 17.6389 23.5969 17.5584L17.2329 13.6184C16.6929 13.2864 16.0009 13.6904 16.0009 14.3624V15.9004C14.2869 15.9004 9.14295 15.9004 8.00095 25.5004C10.8589 20.1004 16.0009 20.7004 16.0009 20.7004V22.2384C16.0009 22.9104 16.6929 23.3144 17.2329 22.9804Z" fill="white" fill-opacity="0.9"/>
</g>
<defs>
<clipPath id="clip0_7748_140351">
<rect width="30" height="30" fill="white" transform="translate(-0.000274658)"/>
</clipPath>
</defs>
</svg>
