<svg width="30" height="30" viewBox="0 0 30 30" fill="none" xmlns="http://www.w3.org/2000/svg">
<path d="M26.9997 14.5L26.2507 12.6275C26.0992 12.2485 25.7322 12 25.3237 12H18.6757C18.2677 12 17.9002 12.2485 17.7487 12.6275L16.9997 14.5H15.9997C15.7232 14.5 15.4997 14.7235 15.4997 15V16C15.4997 16.2765 15.7232 16.5 15.9997 16.5H27.9997C28.2762 16.5 28.4997 16.2765 28.4997 16V15C28.4997 14.7235 28.2762 14.5 27.9997 14.5H26.9997Z" fill="#0A77DB"/>
<path d="M16.9997 17.5L18.3717 26.6495C18.4457 27.138 18.8652 27.5 19.3602 27.5H24.6397C25.1342 27.5 25.5542 27.138 25.6282 26.6495L26.9997 17.5H16.9997ZM24.4967 25.074C24.4517 25.369 24.2297 25.5015 24.0067 25.5C23.7302 25.4975 23.4522 25.288 23.5067 24.926L24.0022 20.924C24.0467 20.631 24.2767 20.497 24.5007 20.5C24.7767 20.5035 25.0467 20.7125 24.9927 21.0725L24.4967 25.074Z" fill="#0A77DB"/>
<path d="M7.99973 5.5C7.99973 5.2235 8.22323 5 8.49973 5H14.4997C14.7762 5 14.9997 5.2235 14.9997 5.5V6H20.4997V5C20.4997 3.8955 19.6042 3 18.4997 3H4.49973C3.39523 3 2.49973 3.8955 2.49973 5V6H7.99973V5.5Z" fill="#0A77DB" fill-opacity="0.5"/>
<path d="M15.9882 17.499C15.1667 17.4925 14.4997 16.823 14.4997 16V15C14.4997 14.173 15.1727 13.5 15.9997 13.5H16.3227C16.7592 12.408 17.0797 11 18.6752 11H20.4997V7H14.9997V7.5C14.9997 7.7765 14.7762 8 14.4997 8H8.49973C8.22323 8 7.99973 7.7765 7.99973 7.5V7H2.49973V24C2.49973 25.1045 3.39523 26 4.49973 26H17.2632C17.2162 25.685 16.0297 17.7735 15.9882 17.499V17.499Z" fill="#0A77DB"/>
</svg>
