<svg width="32" height="32" viewBox="0 0 32 32" fill="none" xmlns="http://www.w3.org/2000/svg">
<path opacity="0.6" d="M28.8 4.8L21.8667 6.4L24.024 8.0592L16.3568 16.5333H12.2667C11.9664 16.5333 11.6731 16.6176 11.4187 16.7765L7.54135 19.2H3.20001V22.4H8.00001C8.30028 22.4 8.59361 22.3157 8.84801 22.1568L12.7253 19.7333H17.0667C17.5189 19.7333 17.9499 19.5424 18.2533 19.2069L26.5685 10.0171L28.8 11.7333V4.8Z" fill="white"/>
<path d="M3.20001 23.4667H7.46668V30.4H3.20001V23.4667Z" fill="white"/>
<path d="M19.2 19.7499V30.4H23.4667V15.0341L19.2 19.7499Z" fill="white"/>
<path d="M9.41279 23.0613C9.14186 23.2304 8.84319 23.3424 8.53333 23.4059V30.4H12.8V20.9445L9.41279 23.0613Z" fill="white"/>
<path d="M26.6987 11.4624L24.5333 13.8555V30.4H28.8V13.0789L26.6987 11.4624Z" fill="white"/>
<path d="M17.0666 20.8H13.8666V30.4H18.1333V20.5755C17.8 20.7211 17.4373 20.8 17.0666 20.8Z" fill="white"/>
</svg>
