<svg width="30" height="30" viewBox="0 0 30 30" fill="none" xmlns="http://www.w3.org/2000/svg">
<path d="M27.79 18.2669L25.4349 16.9185C25.6726 15.6468 25.6726 14.3422 25.4349 13.0706L27.79 11.7222C28.0609 11.5687 28.1825 11.2508 28.0941 10.9548C27.4804 9.00343 26.4356 7.23844 25.07 5.76944C24.86 5.54471 24.5172 5.48989 24.2518 5.64337L21.8967 6.99178C20.9072 6.14765 19.7683 5.49537 18.5355 5.06783V2.3765C18.5355 2.06954 18.3199 1.80096 18.0158 1.73518C15.9869 1.28571 13.9082 1.30764 11.9788 1.73518C11.6747 1.80096 11.4591 2.06954 11.4591 2.3765V5.07331C10.2318 5.50634 9.09296 6.15861 8.09785 6.99726L5.74828 5.64885C5.47739 5.49537 5.14016 5.54471 4.93008 5.77492C3.56456 7.23844 2.51969 9.00342 1.90604 10.9603C1.81206 11.2563 1.93921 11.5742 2.2101 11.7276L4.5652 13.0761C4.32748 14.3477 4.32748 15.6523 4.5652 16.9239L2.2101 18.2724C1.93921 18.4258 1.81759 18.7437 1.90604 19.0397C2.51969 20.9911 3.56456 22.7561 4.93008 24.2251C5.14016 24.4498 5.48292 24.5046 5.74828 24.3512L8.10338 23.0027C9.09296 23.8469 10.2318 24.4991 11.4646 24.9267V27.6235C11.4646 27.9305 11.6803 28.199 11.9843 28.2648C14.0132 28.7143 16.0919 28.6924 18.0213 28.2648C18.3254 28.199 18.541 27.9305 18.541 27.6235V24.9267C19.7683 24.4937 20.9072 23.8414 21.9023 23.0027L24.2574 24.3512C24.5283 24.5046 24.8655 24.4553 25.0756 24.2251C26.4411 22.7616 27.486 20.9966 28.0996 19.0397C28.1825 18.7383 28.0609 18.4204 27.79 18.2669ZM14.9973 19.3796C12.5593 19.3796 10.5746 17.4118 10.5746 14.9945C10.5746 12.5773 12.5593 10.6095 14.9973 10.6095C17.4353 10.6095 19.42 12.5773 19.42 14.9945C19.42 17.4118 17.4353 19.3796 14.9973 19.3796Z" fill="#0A77DB"/>
</svg>
