<svg width="30" height="30" viewBox="0 0 30 30" fill="none" xmlns="http://www.w3.org/2000/svg">
<g clip-path="url(#clip0_7748_140306)">
<path d="M28.9581 10.4165H6.79142C6.23901 10.4165 5.77876 10.8015 5.65801 11.3172L2.15684 26.4891C2.13701 26.5731 2.12476 26.66 2.12476 26.7498C2.12476 27.3938 2.64742 27.9165 3.29142 27.9165H8.91067C14.001 27.9165 8.91067 27.9165 14.001 27.9165C19.8388 27.9165 14.001 27.9165 19.8388 27.9165H25.4581C26.0105 27.9165 26.4708 27.5315 26.5915 27.0158L30.0927 11.8439C30.1125 11.7599 30.1248 11.673 30.1248 11.5832C30.1248 10.9392 29.6021 10.4165 28.9581 10.4165Z" fill="#0A77DB"/>
<g clip-path="url(#clip1_7748_140306)">
<path fill-rule="evenodd" clip-rule="evenodd" d="M22.0004 19.5C22.0004 21.0913 21.3682 22.6174 20.243 23.7426C19.1178 24.8679 17.5917 25.5 16.0004 25.5C14.4091 25.5 12.8829 24.8679 11.7577 23.7426C10.6325 22.6174 10.0004 21.0913 10.0004 19.5C10.0004 17.9087 10.6325 16.3826 11.7577 15.2574C12.8829 14.1321 14.4091 13.5 16.0004 13.5C17.5917 13.5 19.1178 14.1321 20.243 15.2574C21.3682 16.3826 22.0004 17.9087 22.0004 19.5V19.5ZM19.0229 17.2275C18.9693 17.1741 18.9055 17.1321 18.8353 17.1039C18.7651 17.0757 18.69 17.062 18.6144 17.0636C18.5387 17.0651 18.4642 17.0819 18.3952 17.1129C18.3262 17.1439 18.2642 17.1885 18.2129 17.244L15.6081 20.5627L14.0384 18.9922C13.9317 18.8929 13.7907 18.8388 13.645 18.8414C13.4992 18.8439 13.3602 18.903 13.2571 19.006C13.1541 19.1091 13.0951 19.2481 13.0925 19.3939C13.0899 19.5396 13.144 19.6806 13.2434 19.7873L15.2279 21.7725C15.2813 21.8259 15.345 21.8679 15.4151 21.8961C15.4851 21.9244 15.5602 21.9382 15.6357 21.9368C15.7112 21.9354 15.7857 21.9188 15.8546 21.888C15.9236 21.8572 15.9857 21.8128 16.0371 21.7575L19.0311 18.015C19.1332 17.9089 19.1896 17.767 19.1882 17.6197C19.1868 17.4725 19.1277 17.3317 19.0236 17.2275H19.0229Z" fill="white" fill-opacity="0.9"/>
</g>
<path d="M6.79144 8.66667H27.7914V2.83333C27.7914 1.54475 26.7467 0.5 25.4581 0.5H18.6454C17.8077 0.5 17.0348 0.949167 16.6189 1.676L14.9581 4.58333H2.12478C0.836193 4.58333 -0.208557 5.62808 -0.208557 6.91667V24.4913C-0.208557 24.7719 0.0195263 25 0.300693 25C0.537526 25 0.74286 24.8384 0.796526 24.6068C1.68378 20.7492 3.97044 10.8746 3.97803 10.8477C4.31636 9.55858 5.45853 8.66667 6.79144 8.66667V8.66667Z" fill="#0A77DB" fill-opacity="0.5"/>
</g>
<defs>
<clipPath id="clip0_7748_140306">
<rect width="30" height="30" fill="white" transform="translate(-0.000244141)"/>
</clipPath>
<clipPath id="clip1_7748_140306">
<rect width="12" height="12" fill="white" transform="translate(10.0004 13.5)"/>
</clipPath>
</defs>
</svg>
