<svg width="180" height="99" viewBox="0 0 180 99" fill="none" xmlns="http://www.w3.org/2000/svg">
<rect width="180" height="99" fill="white"/>
<path d="M142.9 78.6882H38V78.7407H142.9V78.6882Z" fill="#EBEBEB"/>
<path d="M132.389 80.6855H113.318V80.738H132.389V80.6855Z" fill="#EBEBEB"/>
<path d="M107.49 80.1169H102.268V80.1694H107.49V80.1169Z" fill="#EBEBEB"/>
<path d="M119.425 82.6346H111.329V82.687H119.425V82.6346Z" fill="#EBEBEB"/>
<path d="M53.7558 82.2821H49.006V82.3346H53.7558V82.2821Z" fill="#EBEBEB"/>
<path d="M61.2647 82.2821H55.6232V82.3346H61.2647V82.2821Z" fill="#EBEBEB"/>
<path d="M85.2363 81.3967H75.4093V81.4492H85.2363V81.3967Z" fill="#EBEBEB"/>
<path d="M87.7225 69.3312H47.2123C46.895 69.3306 46.5908 69.2042 46.3666 68.9796C46.1424 68.755 46.0165 68.4506 46.0165 68.1332V11.1875C46.0192 10.8719 46.1464 10.5702 46.3703 10.3479C46.5942 10.1256 46.8968 10.0005 47.2123 10H87.7225C88.0402 10 88.3449 10.1262 88.5695 10.3509C88.7942 10.5755 88.9204 10.8802 88.9204 11.198V68.1332C88.9204 68.451 88.7942 68.7557 88.5695 68.9803C88.3449 69.205 88.0402 69.3312 87.7225 69.3312ZM47.2123 10.042C46.9089 10.0425 46.6181 10.1634 46.4037 10.3782C46.1893 10.593 46.0689 10.884 46.0689 11.1875V68.1332C46.0689 68.4367 46.1893 68.7277 46.4037 68.9425C46.6181 69.1573 46.9089 69.2782 47.2123 69.2787H87.7225C88.0261 69.2782 88.3171 69.1573 88.5318 68.9426C88.7465 68.7279 88.8674 68.4369 88.868 68.1332V11.1875C88.8674 10.8838 88.7465 10.5928 88.5318 10.3781C88.3171 10.1634 88.0261 10.0425 87.7225 10.042H47.2123Z" fill="#EBEBEB"/>
<path d="M133.104 69.3312H92.5919C92.2743 69.3306 91.9699 69.2043 91.7454 68.9797C91.5209 68.7552 91.3945 68.4508 91.3939 68.1332V11.1875C91.3972 10.8717 91.5248 10.57 91.7491 10.3478C91.9733 10.1255 92.2761 10.0005 92.5919 10H133.104C133.419 10.0011 133.721 10.1264 133.945 10.3486C134.168 10.5709 134.295 10.8723 134.298 11.1875V68.1332C134.298 68.4502 134.172 68.7543 133.948 68.9788C133.725 69.2034 133.421 69.3301 133.104 69.3312ZM92.5919 10.042C92.2882 10.0425 91.9972 10.1634 91.7825 10.3781C91.5678 10.5928 91.4469 10.8838 91.4464 11.1875V68.1332C91.4469 68.4369 91.5678 68.7279 91.7825 68.9426C91.9972 69.1573 92.2882 69.2782 92.5919 69.2787H133.104C133.408 69.2782 133.699 69.1573 133.913 68.9426C134.128 68.7279 134.249 68.4369 134.25 68.1332V11.1875C134.249 10.8838 134.128 10.5928 133.913 10.3781C133.699 10.1634 133.408 10.0425 133.104 10.042H92.5919Z" fill="#EBEBEB"/>
<path d="M49.0041 78.6862H74.0876V23.2132H49.0041L49.0041 78.6862Z" fill="#F0F0F0"/>
<path d="M49.0061 78.6862H72.9001V23.2132H49.0061L49.0061 78.6862Z" fill="#F5F5F5"/>
<path d="M71.6414 77.4295V24.4741H50.2649V77.4295H71.6414Z" fill="#F0F0F0"/>
<path d="M57.1715 49.4422H52.8139C52.6656 49.4417 52.5234 49.3825 52.4185 49.2775C52.3135 49.1726 52.2543 49.0305 52.2538 48.8821C52.2543 48.7337 52.3135 48.5915 52.4185 48.4866C52.5234 48.3816 52.6656 48.3225 52.8139 48.3219H57.1715C57.3199 48.3225 57.462 48.3816 57.567 48.4866C57.6719 48.5915 57.7311 48.7337 57.7316 48.8821C57.7311 49.0305 57.6719 49.1726 57.567 49.2775C57.462 49.3825 57.3199 49.4417 57.1715 49.4422Z" fill="white"/>
<path d="M50.5922 77.4295V24.4741H50.2649V77.4295H50.5922Z" fill="#F0F0F0"/>
<path d="M85.8405 77.6351H89.575V61.4386H85.8405V77.6351Z" fill="#F0F0F0"/>
<path d="M70.4413 78.6631H88.8574V77.6372H70.4413V78.6631Z" fill="#F0F0F0"/>
<path d="M85.8405 61.4407H69.7238V77.6372H85.8405V61.4407Z" fill="#F5F5F5"/>
<path d="M84.3698 63.4338H71.1902V68.7459H84.3698V63.4338Z" fill="#F0F0F0"/>
<path d="M84.3698 70.3298H71.1902V75.642H84.3698V70.3298Z" fill="#F0F0F0"/>
<path d="M76.3009 63.8806H79.2612C79.3573 63.88 79.4493 63.8416 79.5172 63.7737C79.5852 63.7057 79.6236 63.6137 79.6242 63.5176C79.6242 63.4212 79.586 63.3286 79.518 63.2602C79.45 63.1918 79.3577 63.1531 79.2612 63.1526H76.3009C76.2045 63.1531 76.1122 63.1918 76.0442 63.2602C75.9762 63.3286 75.938 63.4212 75.938 63.5176C75.9385 63.6137 75.977 63.7057 76.0449 63.7737C76.1128 63.8416 76.2048 63.88 76.3009 63.8806Z" fill="#F5F5F5"/>
<path d="M76.3009 70.7788H79.2612C79.3562 70.7783 79.4473 70.7407 79.5151 70.6742C79.5828 70.6076 79.622 70.5172 79.6242 70.4222C79.6236 70.3261 79.5852 70.2341 79.5172 70.1661C79.4493 70.0982 79.3573 70.0598 79.2612 70.0592H76.3009C76.2048 70.0598 76.1128 70.0982 76.0449 70.1661C75.977 70.2341 75.9385 70.3261 75.938 70.4222C75.9402 70.5172 75.9793 70.6076 76.0471 70.6742C76.1149 70.7407 76.2059 70.7783 76.3009 70.7788Z" fill="#F5F5F5"/>
<path d="M79.0095 61.1217C78.9362 61.1212 78.8661 61.0918 78.8143 61.04C78.7624 60.9882 78.7331 60.9181 78.7325 60.8448V52.4298C78.7325 52.3563 78.7617 52.2859 78.8137 52.2339C78.8656 52.182 78.936 52.1528 79.0095 52.1528C79.0828 52.1534 79.1529 52.1827 79.2047 52.2346C79.2565 52.2864 79.2859 52.3565 79.2864 52.4298V60.8448C79.2859 60.9181 79.2565 60.9882 79.2047 61.04C79.1529 61.0918 79.0828 61.1212 79.0095 61.1217Z" fill="#F5F5F5"/>
<path d="M81.6005 60.7944H76.4185V61.4469H81.6005V60.7944Z" fill="#F0F0F0"/>
<path d="M80.4445 56.0866C80.4081 56.0866 80.3732 56.0723 80.3473 56.0468C80.3214 56.0213 80.3066 55.9866 80.306 55.9502V51.75C80.3066 51.7135 80.3213 51.6786 80.3472 51.6527C80.373 51.6269 80.4079 51.6121 80.4445 51.6116C80.4811 51.6121 80.516 51.6269 80.5418 51.6527C80.5677 51.6786 80.5824 51.7135 80.583 51.75V55.946C80.5832 55.9644 80.5799 55.9826 80.573 55.9997C80.5662 56.0167 80.556 56.0322 80.5432 56.0453C80.5303 56.0584 80.5149 56.0688 80.498 56.0759C80.481 56.0829 80.4629 56.0866 80.4445 56.0866Z" fill="#F0F0F0"/>
<path d="M74.9792 53.1976C74.9792 53.1976 75.0821 49.2324 79.0095 49.2324C82.9369 49.2324 83.0376 53.1934 83.0376 53.1934L74.9792 53.1976Z" fill="#F0F0F0"/>
<path d="M108.977 58.7993C109.088 58.7993 109.202 58.7993 109.315 58.8098C110.475 58.8937 111.566 59.394 112.387 60.2186C113.208 61.0432 113.703 62.1366 113.782 63.2974C113.815 63.8248 113.762 64.354 113.626 64.8646C113.1 66.9127 112.846 69.0211 112.871 71.1355V77.291C112.871 77.3976 112.85 77.5032 112.81 77.6017C112.769 77.7002 112.709 77.7897 112.634 77.865C112.558 77.9403 112.469 77.9999 112.37 78.0404C112.271 78.0808 112.166 78.1014 112.059 78.1008H92.5205V58.7993H108.977Z" fill="#F0F0F0"/>
<path d="M87.7057 63.6142C87.7078 62.9298 87.8558 62.2537 88.1399 61.631C88.4239 61.0084 88.8375 60.4535 89.3531 60.0033C89.8686 59.5532 90.4743 59.2182 91.1296 59.0207C91.7848 58.8232 92.4747 58.7677 93.1532 58.858C93.8316 58.9482 94.483 59.1821 95.0638 59.5441C95.6447 59.906 96.1416 60.3877 96.5216 60.957C96.9015 61.5263 97.1557 62.17 97.2671 62.8453C97.3785 63.5206 97.3446 64.2118 97.1676 64.873C96.6434 66.9213 96.3902 69.0296 96.4144 71.1439V77.2994C96.4144 77.4056 96.3935 77.5108 96.3528 77.609C96.312 77.7071 96.2524 77.7962 96.1771 77.8713C96.1019 77.9463 96.0126 78.0058 95.9144 78.0462C95.8161 78.0867 95.7109 78.1074 95.6046 78.1071H89.4344C89.3284 78.1071 89.2233 78.0862 89.1253 78.0456C89.0273 78.005 88.9383 77.9455 88.8633 77.8705C88.7883 77.7955 88.7288 77.7065 88.6882 77.6085C88.6476 77.5105 88.6267 77.4054 88.6267 77.2994V70.7746C88.6445 68.7917 88.3933 66.8156 87.8798 64.9002C87.7641 64.4813 87.7056 64.0487 87.7057 63.6142Z" fill="#F5F5F5"/>
<path d="M99.1543 78.1008H116.696V66.3815H99.1543V78.1008Z" fill="#F0F0F0"/>
<path d="M131.193 69.0333H107.714V51.0598C107.714 50.0938 108.098 49.1674 108.781 48.4844C109.464 47.8014 110.39 47.4177 111.356 47.4177H127.551C128.517 47.4177 129.443 47.8014 130.126 48.4844C130.809 49.1674 131.193 50.0938 131.193 51.0598V69.0333Z" fill="#E0E0E0"/>
<path d="M126.604 69.0333H103.126V50.8835C103.126 49.9638 103.491 49.0817 104.142 48.4313C104.792 47.7809 105.674 47.4156 106.594 47.4156H123.128C124.048 47.4156 124.93 47.7809 125.58 48.4313C126.231 49.0817 126.596 49.9638 126.596 50.8835V69.0333H126.604Z" fill="#F5F5F5"/>
<path d="M115.55 70.0844H99.3809C99.1027 70.0844 98.8359 69.9738 98.6392 69.7771C98.4424 69.5804 98.3319 69.3136 98.3319 69.0354V66.3772C98.3319 66.099 98.4424 65.8322 98.6392 65.6354C98.8359 65.4387 99.1027 65.3282 99.3809 65.3282H115.55C115.634 65.3282 115.715 65.3616 115.774 65.421C115.834 65.4804 115.867 65.561 115.867 65.645V69.7697C115.866 69.8533 115.833 69.9333 115.773 69.9923C115.714 70.0513 115.634 70.0844 115.55 70.0844Z" fill="#E0E0E0"/>
<path d="M132.924 58.7993C133.035 58.7993 133.146 58.7993 133.261 58.8098C134.421 58.8941 135.512 59.3947 136.332 60.2192C137.153 61.0438 137.648 62.1369 137.726 63.2974C137.761 63.8248 137.709 64.3544 137.571 64.8646C137.045 66.9134 136.791 69.0225 136.815 71.1376V77.2931C136.815 77.3994 136.794 77.5046 136.754 77.6027C136.713 77.7008 136.653 77.79 136.578 77.865C136.503 77.94 136.414 77.9995 136.315 78.04C136.217 78.0804 136.112 78.1011 136.006 78.1008H116.465V58.7993H132.924Z" fill="#F0F0F0"/>
<path d="M111.652 63.6142C111.644 62.3594 112.126 61.151 112.995 60.2464C113.865 59.3417 115.053 58.8125 116.307 58.7715C117.561 58.7305 118.782 59.1808 119.709 60.0267C120.636 60.8725 121.196 62.0468 121.269 63.2995C121.302 63.8268 121.25 64.3561 121.114 64.8667C120.588 66.9148 120.334 69.0232 120.359 71.1376V77.2931C120.359 77.5073 120.274 77.7128 120.122 77.8642C119.971 78.0157 119.765 78.1008 119.551 78.1008H113.379C113.273 78.1008 113.168 78.0799 113.07 78.0393C112.972 77.9987 112.883 77.9392 112.808 77.8642C112.733 77.7892 112.673 77.7002 112.632 77.6022C112.592 77.5042 112.571 77.3992 112.571 77.2931V70.7746C112.589 68.7919 112.338 66.8159 111.826 64.9002C111.711 64.4814 111.652 64.0488 111.652 63.6142Z" fill="#F5F5F5"/>
<path d="M92.8624 78.6883H132.58C132.657 78.6883 132.733 78.6731 132.804 78.6435C132.875 78.614 132.94 78.5707 132.994 78.5161C133.049 78.4615 133.092 78.3967 133.121 78.3255C133.15 78.2542 133.165 78.1779 133.165 78.1008H92.2771C92.2768 78.1779 92.2918 78.2542 92.3211 78.3255C92.3503 78.3967 92.3934 78.4615 92.4478 78.5161C92.5022 78.5707 92.5668 78.614 92.638 78.6435C92.7091 78.6731 92.7854 78.6883 92.8624 78.6883Z" fill="#E0E0E0"/>
<path d="M116.385 33.6801H129.16V19.7473H116.385V33.6801Z" fill="#E0E0E0"/>
<path d="M115.624 33.6801H128.73V19.7473H115.624V33.6801Z" fill="#F5F5F5"/>
<path d="M127.63 32.5828V20.8445H116.719V32.5828H127.63Z" fill="white"/>
<path d="M122.176 23.746L125.159 28.9155H119.192L122.176 23.746Z" fill="#F5F5F5"/>
<path d="M98.4641 41.814H111.239V27.8812H98.4641V41.814Z" fill="#E0E0E0"/>
<path d="M97.7026 41.814H110.809V27.8812H97.7026V41.814Z" fill="#F5F5F5"/>
<path d="M109.709 40.7167V28.9785H98.7977V40.7167H109.709Z" fill="white"/>
<path d="M102.92 36.9403L101.626 34.6976C101.491 34.4635 101.42 34.1981 101.421 33.928C101.421 33.6579 101.492 33.3927 101.627 33.1589C101.763 32.9251 101.957 32.731 102.191 32.596C102.425 32.461 102.69 32.3899 102.96 32.3898H105.555C105.825 32.3901 106.09 32.4614 106.324 32.5964C106.558 32.7314 106.752 32.9254 106.888 33.159C107.023 33.3927 107.095 33.6578 107.095 33.9278C107.096 34.1978 107.026 34.4632 106.892 34.6976L105.597 36.9403C105.462 37.1762 105.267 37.3722 105.032 37.5086C104.797 37.6449 104.53 37.7167 104.259 37.7167C103.987 37.7167 103.72 37.6449 103.485 37.5086C103.25 37.3722 103.055 37.1762 102.92 36.9403Z" fill="#F5F5F5"/>
<path d="M104.401 19.2941H56.0386L59.2212 85.1584H107.584L104.401 19.2941Z" fill="#407BFF"/>
<path opacity="0.2" d="M104.401 19.2941H56.0386L59.2212 85.1584H107.584L104.401 19.2941Z" fill="black"/>
<path d="M104.848 19.2941H56.4854L59.6701 85.1584H108.033L104.848 19.2941Z" fill="#407BFF"/>
<path opacity="0.2" d="M102.295 21.5095H58.6967L61.7429 82.1813L99.6536 82.131L105.954 76.5461L102.295 21.5095Z" fill="black"/>
<path d="M102.629 21.5074C103.094 39.6774 104.561 57.8078 107.024 75.8161C103.569 78.1938 100.132 80.5715 96.7123 82.9492H64.1053C61.0276 62.6009 59.2212 42.0805 58.6967 21.5074H102.629Z" fill="white"/>
<path d="M107.024 75.816C103.569 78.1938 100.132 80.5715 96.7123 82.9492C97.4592 79.8022 98.2375 76.6552 99.0473 73.5082L107.024 75.816Z" fill="#EBEBEB"/>
<path d="M70.5189 27.0587C70.6015 29.2798 70.698 31.5023 70.8085 33.7261H64.1431C64.0312 31.5023 63.9347 29.2798 63.8536 27.0587H70.5189ZM71.1987 26.3559H63.1256C63.2193 29.0455 63.3361 31.7365 63.476 34.429H71.5511C71.4113 31.7379 71.2945 29.0469 71.2008 26.3559H71.1987Z" fill="#407BFF"/>
<path d="M97.7549 29.5617H74.9246C74.9036 29.0602 74.8847 28.5567 74.8658 28.0553H97.6941C97.713 28.5567 97.734 29.0602 97.7549 29.5617Z" fill="#E0E0E0"/>
<path d="M92.9317 32.7296H75.0652C75.0421 32.2261 75.017 31.7247 74.996 31.2233H92.8604C92.8841 31.7254 92.9079 32.2275 92.9317 32.7296Z" fill="#E0E0E0"/>
<path d="M71.1735 40.1166C71.3133 42.3405 71.4693 44.5644 71.6413 46.7883H64.9739C64.8019 44.5644 64.6459 42.3405 64.506 40.1166H71.1735ZM71.8322 39.4138H63.7592C63.9242 42.1062 64.1123 44.7987 64.3235 47.4911H72.4071C72.1973 44.8001 72.0085 42.1076 71.8406 39.4138H71.8322Z" fill="#407BFF"/>
<path d="M84.0299 42.6216H75.6379C75.6044 42.1181 75.5687 41.6167 75.5372 41.1132H83.9292C83.9607 41.6167 83.9942 42.1181 84.0299 42.6216Z" fill="#E0E0E0"/>
<path d="M91.975 42.6216H85.8048C85.7712 42.1181 85.7356 41.6167 85.7041 41.1132H91.8743C91.9058 41.6167 91.9393 42.1181 91.975 42.6216Z" fill="#E0E0E0"/>
<path d="M95.8479 45.7917H75.8688C75.831 45.2882 75.7953 44.7868 75.7576 44.2833H95.7367C95.7745 44.7868 95.8102 45.2882 95.8479 45.7917Z" fill="#E0E0E0"/>
<path d="M72.1742 53.1809C72.3742 55.4047 72.5896 57.6286 72.8203 59.8525H66.1529C65.9221 57.6286 65.7067 55.4047 65.5067 53.1809H72.1742ZM72.8161 52.478H64.741C64.9787 55.1718 65.2389 57.865 65.5214 60.5574H73.5966C73.3169 57.8636 73.0567 55.1704 72.8161 52.478Z" fill="#407BFF"/>
<path d="M99.702 57.3495H76.8695L77.0206 58.8559H99.853L99.702 57.3495Z" fill="#E0E0E0"/>
<path d="M94.436 54.1794H76.5695C76.6156 54.6809 76.6618 55.1844 76.71 55.6858H94.5744C94.5283 55.1844 94.48 54.6872 94.436 54.1794Z" fill="#E0E0E0"/>
<path d="M73.5232 66.245C73.7834 68.4689 74.0582 70.692 74.3477 72.9145H67.6803C67.3908 70.6934 67.116 68.4703 66.8558 66.245H73.5232ZM74.1526 65.5422H66.0712C66.3789 68.236 66.7111 70.9277 67.0677 73.6173H75.1345C74.7806 70.9277 74.4484 68.236 74.1379 65.5422H74.1526Z" fill="#407BFF"/>
<path d="M100.959 68.7437H78.1262C78.0654 68.2402 78.0045 67.7388 77.9458 67.2353H100.776C100.837 67.7451 100.896 68.2465 100.959 68.7437Z" fill="#E0E0E0"/>
<path d="M88.9162 71.918H78.5227C78.4577 71.4166 78.3947 70.913 78.3318 70.4116H88.7252C88.7882 70.913 88.8511 71.4166 88.9162 71.918Z" fill="#E0E0E0"/>
<path d="M95.122 71.918H90.6344C90.5694 71.4166 90.5064 70.913 90.4435 70.4116H94.9311C94.994 70.913 95.0654 71.4166 95.122 71.918Z" fill="#E0E0E0"/>
<path d="M67.5816 32.7737L67.2858 32.3037C66.6396 31.2757 65.3221 30.3589 64.8668 30.0903L65.2067 29.4882C66.0999 30.0306 66.8979 30.716 67.569 31.517C68.5845 30.1344 70.0866 28.7057 72.1427 27.1699L72.5769 27.7364C70.3824 29.3791 68.8467 30.8834 67.8774 32.331L67.5816 32.7737Z" fill="#407BFF"/>
<path d="M68.3789 45.8358L68.0705 45.3658C67.3991 44.3378 66.0564 43.4189 65.5948 43.1503L65.9158 42.5482C66.8261 43.0908 67.6429 43.7765 68.3348 44.5791C69.3125 43.1944 70.7748 41.7657 72.791 40.2278C72.9399 40.4167 73.091 40.6055 73.2399 40.7964C71.0895 42.4412 69.5936 43.9434 68.6642 45.3931C68.5677 45.54 68.4733 45.6889 68.3789 45.8358Z" fill="#407BFF"/>
<path d="M69.537 58.9335L69.216 58.4636C68.5153 57.4356 67.1474 56.5167 66.6796 56.2502C66.7803 56.0404 66.8894 55.8474 66.9859 55.6481C67.9103 56.1916 68.7441 56.8761 69.4573 57.6769C70.3993 56.2922 71.8238 54.8655 73.796 53.3256L74.2617 53.8942C72.1637 55.539 70.6951 57.0412 69.8077 58.4909L69.537 58.9335Z" fill="#407BFF"/>
<path d="M90.6869 79.3302C89.4491 79.3302 88.7358 78.8729 88.1064 78.47C87.477 78.0672 86.9357 77.719 85.8909 77.719C84.8461 77.719 84.3804 78.084 83.8873 78.47C83.3943 78.8561 82.7901 79.3302 81.5523 79.3302C80.3144 79.3302 79.6011 78.8729 78.9738 78.47C78.3465 78.0672 77.8052 77.719 76.7583 77.719C75.7115 77.719 75.2478 78.084 74.7548 78.47C74.2617 78.8561 73.6575 79.3302 72.4218 79.3302C71.1861 79.3302 70.4707 78.8729 69.8413 78.47C69.2119 78.0672 68.6727 77.719 67.6258 77.719C67.5985 77.5092 67.5691 77.3162 67.5419 77.1147C68.7797 77.1147 69.4909 77.5721 70.1203 77.9749C70.7497 78.3777 71.2889 78.726 72.3337 78.726C73.3785 78.726 73.8442 78.361 74.3373 77.9749C74.8303 77.5889 75.4366 77.1147 76.6744 77.1147C77.9122 77.1147 78.6214 77.5721 79.2508 77.9749C79.8802 78.3777 80.4214 78.726 81.4662 78.726C82.511 78.726 82.9768 78.361 83.4698 77.9749C83.9629 77.5889 84.5692 77.1147 85.807 77.1147C87.0448 77.1147 87.756 77.5721 88.3854 77.9749C89.0148 78.3777 89.554 78.726 90.6009 78.726C90.6282 78.9274 90.6596 79.1288 90.6869 79.3302Z" fill="#EBEBEB"/>
<path d="M92.4618 20.9242C91.7527 19.036 90.1142 17.7961 88.3519 17.7961H84.7601C84.4927 17.7938 84.2319 17.713 84.01 17.5638C83.7881 17.4147 83.6149 17.2036 83.5118 16.9569C83.2579 16.3539 82.8333 15.8382 82.2902 15.4733C81.7471 15.1084 81.1093 14.9102 80.455 14.903C79.8221 14.8966 79.2037 15.0923 78.6897 15.4617C78.1758 15.8312 77.7932 16.355 77.5976 16.9569C77.5179 17.2032 77.3614 17.4175 77.1512 17.5685C76.9409 17.7195 76.6878 17.7993 76.429 17.7961H72.8393C71.0749 17.7961 69.556 19.0423 69.0315 20.9242L68.8217 21.6732H92.7388L92.4618 20.9242Z" fill="#263238"/>
<path d="M92.5898 22.4117H69.0503C68.8518 22.4094 68.6615 22.3319 68.5179 22.1948C68.3742 22.0578 68.2878 21.8714 68.2762 21.6732C68.271 21.578 68.2854 21.4827 68.3185 21.3932C68.3515 21.3038 68.4025 21.222 68.4684 21.153C68.5342 21.0841 68.6135 21.0293 68.7013 20.9921C68.7891 20.9549 68.8836 20.9361 68.979 20.9368H92.5185C92.7166 20.9391 92.9066 21.0163 93.0502 21.1529C93.1938 21.2895 93.2804 21.4754 93.2926 21.6732C93.2981 21.7686 93.2839 21.8641 93.251 21.9538C93.2181 22.0435 93.1671 22.1255 93.1012 22.1947C93.0353 22.2639 92.956 22.3189 92.868 22.3562C92.78 22.3935 92.6853 22.4124 92.5898 22.4117Z" fill="#407BFF"/>
<path opacity="0.2" d="M92.5898 22.4117H69.0503C68.8518 22.4094 68.6615 22.3319 68.5179 22.1948C68.3742 22.0578 68.2878 21.8714 68.2762 21.6732C68.271 21.578 68.2854 21.4827 68.3185 21.3932C68.3515 21.3038 68.4025 21.222 68.4684 21.153C68.5342 21.0841 68.6135 21.0293 68.7013 20.9921C68.7891 20.9549 68.8836 20.9361 68.979 20.9368H92.5185C92.7166 20.9391 92.9066 21.0163 93.0502 21.1529C93.1938 21.2895 93.2804 21.4754 93.2926 21.6732C93.2981 21.7686 93.2839 21.8641 93.251 21.9538C93.2181 22.0435 93.1671 22.1255 93.1012 22.1947C93.0353 22.2639 92.956 22.3189 92.868 22.3562C92.78 22.3935 92.6853 22.4124 92.5898 22.4117Z" fill="black"/>
</svg>
