<svg width="54" height="54" viewBox="0 0 54 54" fill="none" xmlns="http://www.w3.org/2000/svg">
<rect x="1.5" y="1.5" width="50.0222" height="50.0222" rx="11.5" fill="#EE4428" stroke="white" stroke-width="3"/>
<g clip-path="url(#clip0_5372_33129)">
<path d="M30.375 13.75H28.4745C28.114 12.7315 27.141 12 26 12C24.859 12 23.886 12.7315 23.5238 13.75H21.625C21.142 13.75 20.75 14.142 20.75 14.625V18.125C20.75 18.608 21.142 19 21.625 19H30.375C30.858 19 31.25 18.608 31.25 18.125V14.625C31.25 14.142 30.858 13.75 30.375 13.75Z" fill="white" fill-opacity="0.8"/>
<path d="M34.75 15.5H33V18.125C33 19.5723 31.8223 20.75 30.375 20.75H21.625C20.1777 20.75 19 19.5723 19 18.125V15.5H17.25C16.2858 15.5 15.5 16.2858 15.5 17.25V38.25C15.5 39.2317 16.2683 40 17.25 40H34.75C35.7317 40 36.5 39.2317 36.5 38.25V17.25C36.5 16.2683 35.7317 15.5 34.75 15.5ZM25.7445 30.9945L22.2445 34.4945C22.073 34.6643 21.849 34.75 21.625 34.75C21.401 34.75 21.177 34.6643 21.0055 34.4945L19.2555 32.7445C18.9142 32.4033 18.9142 31.8485 19.2555 31.5073C19.5967 31.166 20.1515 31.166 20.4928 31.5073L21.625 32.6378L24.5055 29.7573C24.8467 29.416 25.4015 29.416 25.7428 29.7573C26.084 30.0985 26.0858 30.6515 25.7445 30.9945ZM25.7445 23.9945L22.2445 27.4945C22.073 27.6643 21.849 27.75 21.625 27.75C21.401 27.75 21.177 27.6643 21.0055 27.4945L19.2555 25.7445C18.9142 25.4033 18.9142 24.8485 19.2555 24.5072C19.5967 24.166 20.1515 24.166 20.4928 24.5072L21.625 25.6378L24.5055 22.7572C24.8467 22.416 25.4015 22.416 25.7428 22.7572C26.084 23.0985 26.0858 23.6515 25.7445 23.9945ZM32.125 33H28.625C28.142 33 27.75 32.608 27.75 32.125C27.75 31.642 28.142 31.25 28.625 31.25H32.125C32.608 31.25 33 31.642 33 32.125C33 32.608 32.608 33 32.125 33ZM32.125 26H28.625C28.142 26 27.75 25.608 27.75 25.125C27.75 24.642 28.142 24.25 28.625 24.25H32.125C32.608 24.25 33 24.642 33 25.125C33 25.608 32.608 26 32.125 26Z" fill="white"/>
</g>
<defs>
<clipPath id="clip0_5372_33129">
<rect width="28" height="28" fill="white" transform="translate(12 12)"/>
</clipPath>
</defs>
</svg>
