<svg width="110" height="137" viewBox="0 0 110 137" fill="none" xmlns="http://www.w3.org/2000/svg">
<rect x="45" y="5" width="20" height="20" rx="10" fill="#3699FF"/>
<path d="M55 35L55 25" stroke="#0078FF" stroke-width="0.5" stroke-miterlimit="16"/>
<path d="M15 35H55" stroke="#0078FF" stroke-width="0.5" stroke-miterlimit="16"/>
<path d="M55 35H95" stroke="#0078FF" stroke-width="0.5" stroke-miterlimit="16"/>
<path d="M15 40L15 35" stroke="#0078FF" stroke-width="0.5" stroke-miterlimit="16"/>
<path d="M55 40L55 35" stroke="#0078FF" stroke-width="0.5" stroke-miterlimit="16"/>
<path d="M95 40L95 35" stroke="#0078FF" stroke-width="0.5" stroke-miterlimit="16"/>
<path d="M15 60L15 40" stroke="#0078FF" stroke-width="0.5" stroke-miterlimit="16"/>
<rect x="45" y="40" width="20" height="20" rx="10" fill="#3699FF"/>
<path d="M95 60L95 40" stroke="#0078FF" stroke-width="0.5" stroke-miterlimit="16"/>
<path d="M15 65L15 60" stroke="#0078FF" stroke-width="0.5" stroke-miterlimit="16"/>
<path d="M55 65L55 60" stroke="#0078FF" stroke-width="0.5" stroke-miterlimit="16"/>
<path d="M95 65L95 60" stroke="#0078FF" stroke-width="0.5" stroke-miterlimit="16"/>
<path d="M15 71L15 65" stroke="#0078FF" stroke-width="0.5" stroke-miterlimit="16"/>
<rect x="6" y="72" width="18" height="18" rx="9" stroke="#3699FF" stroke-width="2"/>
<path d="M45.2725 75.5469L47.3506 80.0859L49.4287 75.5469H51.6641L48.3896 81.877V85.5H46.3115V81.877L43.0303 75.5469H45.2725ZM51.6846 81.877V81.7334C51.6846 81.1911 51.762 80.6921 51.917 80.2363C52.0719 79.776 52.2975 79.3773 52.5938 79.04C52.89 78.7028 53.2546 78.4408 53.6875 78.2539C54.1204 78.0625 54.6172 77.9668 55.1777 77.9668C55.7383 77.9668 56.2373 78.0625 56.6748 78.2539C57.1123 78.4408 57.4792 78.7028 57.7754 79.04C58.0762 79.3773 58.304 79.776 58.459 80.2363C58.6139 80.6921 58.6914 81.1911 58.6914 81.7334V81.877C58.6914 82.4147 58.6139 82.9137 58.459 83.374C58.304 83.8298 58.0762 84.2285 57.7754 84.5703C57.4792 84.9076 57.1146 85.1696 56.6816 85.3564C56.2487 85.5433 55.752 85.6367 55.1914 85.6367C54.6309 85.6367 54.1318 85.5433 53.6943 85.3564C53.2614 85.1696 52.8945 84.9076 52.5938 84.5703C52.2975 84.2285 52.0719 83.8298 51.917 83.374C51.762 82.9137 51.6846 82.4147 51.6846 81.877ZM53.6533 81.7334V81.877C53.6533 82.1868 53.6807 82.4762 53.7354 82.7451C53.79 83.014 53.8766 83.251 53.9951 83.4561C54.1182 83.6566 54.2777 83.8138 54.4736 83.9277C54.6696 84.0417 54.9089 84.0986 55.1914 84.0986C55.4648 84.0986 55.6995 84.0417 55.8955 83.9277C56.0915 83.8138 56.2487 83.6566 56.3672 83.4561C56.4857 83.251 56.5723 83.014 56.627 82.7451C56.6862 82.4762 56.7158 82.1868 56.7158 81.877V81.7334C56.7158 81.4326 56.6862 81.1501 56.627 80.8857C56.5723 80.6169 56.4834 80.3799 56.3604 80.1748C56.2419 79.9652 56.0846 79.8011 55.8887 79.6826C55.6927 79.5641 55.4557 79.5049 55.1777 79.5049C54.8997 79.5049 54.6628 79.5641 54.4668 79.6826C54.2754 79.8011 54.1182 79.9652 53.9951 80.1748C53.8766 80.3799 53.79 80.6169 53.7354 80.8857C53.6807 81.1501 53.6533 81.4326 53.6533 81.7334ZM64.2764 83.7295V78.1035H66.2451V85.5H64.3926L64.2764 83.7295ZM64.4951 82.2119L65.0762 82.1982C65.0762 82.6904 65.0192 83.1484 64.9053 83.5723C64.7913 83.9915 64.6204 84.3561 64.3926 84.666C64.1647 84.9714 63.8776 85.2106 63.5312 85.3838C63.1849 85.5524 62.777 85.6367 62.3076 85.6367C61.9476 85.6367 61.6149 85.5866 61.3096 85.4863C61.0088 85.3815 60.749 85.2197 60.5303 85.001C60.3161 84.7777 60.1475 84.4928 60.0244 84.1465C59.9059 83.7956 59.8467 83.374 59.8467 82.8818V78.1035H61.8154V82.8955C61.8154 83.1143 61.8405 83.2988 61.8906 83.4492C61.9453 83.5996 62.0205 83.7227 62.1162 83.8184C62.2119 83.9141 62.3236 83.9824 62.4512 84.0234C62.5833 84.0645 62.7292 84.085 62.8887 84.085C63.2943 84.085 63.6133 84.0029 63.8457 83.8389C64.0827 83.6748 64.249 83.4515 64.3447 83.1689C64.445 82.8818 64.4951 82.5628 64.4951 82.2119Z" fill="#3699FF"/>
<rect x="40" y="66" width="30" height="30" rx="15" stroke="#3699FF" stroke-width="2"/>
<path d="M95 71L95 65" stroke="#0078FF" stroke-width="0.5" stroke-miterlimit="16"/>
<rect x="86" y="72" width="18" height="18" rx="9" stroke="#3699FF" stroke-width="2"/>
<path d="M55 112L55 97" stroke="#0078FF" stroke-width="0.5" stroke-miterlimit="16"/>
<rect x="6" y="113" width="18" height="18" rx="9" stroke="#3699FF" stroke-width="2"/>
<rect x="46" y="113" width="18" height="18" rx="9" stroke="#3699FF" stroke-width="2"/>
<rect x="86" y="113" width="18" height="18" rx="9" stroke="#3699FF" stroke-width="2"/>
</svg>
