<svg width="24" height="24" viewBox="0 0 24 24" fill="none" xmlns="http://www.w3.org/2000/svg">
<path d="M8.00005 18.2626C8.00005 17.6746 8.22885 17.1222 8.64445 16.7066L10.1068 15.2442C10.296 15.0554 10.4 14.8042 10.4 14.537V7.02617C10.4 6.63617 10.1712 6.27977 9.81685 6.11737L2.80005 2.90137V19.1542C2.80005 19.6614 3.11885 20.1138 3.59645 20.2842L8.00005 21.857V18.2626Z" fill="#06DDB8"/>
<path opacity="0.6" d="M9.19995 20.562C10.6696 21.4528 12.3804 21.9996 13.7236 21.9996C17.2 21.9996 19.6848 18.8584 20.1256 15.5996H21.6C21.8212 15.5996 22 15.4208 22 15.1996C22 15.1232 21.978 15.0512 21.9408 14.9904L18.7408 9.79041C18.6704 9.67561 18.544 9.59961 18.4 9.59961C18.256 9.59961 18.1296 9.67561 18.0588 9.79041L14.8588 14.9904C14.8216 15.0512 14.8 15.1232 14.8 15.1996C14.8 15.4208 14.9788 15.5996 15.2 15.5996H16.6744C16.376 17.728 14.8 19.1996 13.2548 19.1996C12.1628 19.1996 10.54 18.7512 9.19995 17.8996V20.562Z" fill="#06DDB8"/>
<path d="M11.6 7.02679V14.5372C11.6 15.1252 11.3712 15.6776 10.9556 16.0932L10.0448 17.004C11.2008 17.6844 12.4992 18 13.2548 18C13.8452 18 14.5112 17.5612 14.95 16.7804C14.186 16.6604 13.6 15.9976 13.6 15.2004C13.6 14.904 13.682 14.614 13.8372 14.362L17.0372 9.16199C17.332 8.68439 17.8412 8.40039 18.4 8.40039C18.868 8.40039 19.2992 8.60159 19.6 8.94519V3.60039C19.6 2.93759 19.0624 2.40039 18.4 2.40039H4.58521L10.3168 5.02719C11.096 5.38439 11.6 6.16919 11.6 7.02679Z" fill="#06DDB8"/>
</svg>
