<svg width="24" height="24" viewBox="0 0 24 24" fill="none" xmlns="http://www.w3.org/2000/svg">
<path d="M20.7996 7.20039H14.8V11.2004H15.1328C16.2728 11.2004 17.2 12.1276 17.2 13.2676C17.2 13.7788 17.0116 14.27 16.6696 14.65L13.5596 18.106C13.1616 18.5472 12.5932 18.8004 12 18.8004C11.4068 18.8004 10.8384 18.5472 10.4412 18.1064L7.33124 14.6504C6.98844 14.27 6.80004 13.7788 6.80004 13.2676C6.80004 12.1276 7.72724 11.2004 8.86724 11.2004H9.20004V6.50039L8.46084 5.20679C8.17564 4.70839 7.64564 4.40039 7.07164 4.40039H3.20004C2.23044 4.40039 1.48364 5.25599 1.61484 6.21679L3.57844 20.6168C3.68684 21.4092 4.36364 22.0004 5.16404 22.0004H18.9188C19.7032 22.0004 20.3724 21.4312 20.4976 20.6568L22.3788 9.05679C22.5368 8.08319 21.7856 7.20039 20.7996 7.20039Z" fill="#005DC7"/>
<path opacity="0.6" d="M15.1328 12.3998H13.6V4.7998H10.4V12.3998H8.8672C8.3884 12.3998 8 12.7882 8 13.267C8 13.481 8.0792 13.6882 8.2228 13.847L11.3324 17.3026C11.5028 17.4914 11.7452 17.5998 12 17.5998C12.2548 17.5998 12.4972 17.4914 12.6676 17.3026L15.7772 13.847C15.9208 13.6882 16 13.481 16 13.267C16 12.7882 15.6116 12.3998 15.1328 12.3998Z" fill="#005DC7"/>
<path opacity="0.6" d="M13.5999 3.59961H10.3999V2.39961C10.3999 1.95801 10.7583 1.59961 11.1999 1.59961H12.7999C13.2415 1.59961 13.5999 1.95801 13.5999 2.39961V3.59961Z" fill="#005DC7"/>
</svg>
