<svg width="24" height="25" viewBox="0 0 24 25" fill="none" xmlns="http://www.w3.org/2000/svg">
<path opacity="0.6" d="M2.3999 5.8V4.2C2.3999 3.5372 2.9371 3 3.5999 3C4.2623 3 4.7999 3.5372 4.7999 4.2V5.8H2.3999Z" fill="#8950FC"/>
<path d="M20.3993 15.4H11.2953L10.0517 13.5348C9.82887 13.2008 9.45407 13 9.05247 13H3.60087C2.81487 13 2.24127 13.7424 2.43967 14.5032L4.21367 21.3032C4.35167 21.8312 4.82847 22.2 5.37487 22.2H18.8465C19.3549 22.2 19.8085 21.8792 19.9777 21.3992L21.5309 16.9992C21.8065 16.2188 21.2269 15.4 20.3993 15.4Z" fill="#8950FC"/>
<path opacity="0.6" d="M18.3999 8.59961H19.1999C19.8623 8.59961 20.3999 9.13681 20.3999 9.79961V14.1996H18.3999" fill="#8950FC"/>
<path opacity="0.6" d="M4.80005 11.7996H2.80005V9.79961C2.80005 9.13681 3.33725 8.59961 4.00005 8.59961H4.80005V11.7996Z" fill="#8950FC"/>
<path d="M15.1999 3H5.18994C5.44354 3.3352 5.59994 3.748 5.59994 4.2V11.8H9.05234C9.85634 11.8 10.6031 12.1992 11.0499 12.8684L11.9375 14.2H17.5999V5.4C17.5999 4.0748 16.5251 3 15.1999 3ZM8.39994 5H12.3999C12.8415 5 13.1999 5.3584 13.1999 5.8C13.1999 6.2416 12.8415 6.6 12.3999 6.6H8.39994C7.95834 6.6 7.59994 6.2416 7.59994 5.8C7.59994 5.3584 7.95834 5 8.39994 5ZM14.7999 9.8H8.39994C7.95834 9.8 7.59994 9.4416 7.59994 9C7.59994 8.5584 7.95834 8.2 8.39994 8.2H14.7999C15.2415 8.2 15.5999 8.5584 15.5999 9C15.5999 9.4416 15.2415 9.8 14.7999 9.8Z" fill="#8950FC"/>
</svg>
