<svg width="32" height="32" viewBox="0 0 32 32" fill="none" xmlns="http://www.w3.org/2000/svg">
<path opacity="0.6" d="M12.2667 2.6665H19.7334C20.0278 2.6665 20.2667 2.9049 20.2667 3.19984V5.33317C20.2667 5.6281 20.0278 5.8665 19.7334 5.8665H12.2667C11.9723 5.8665 11.7334 5.6281 11.7334 5.33317V3.19984C11.7334 2.9049 11.9723 2.6665 12.2667 2.6665Z" fill="white"/>
<path d="M26.1331 5.3335H21.3331C21.3331 6.21563 20.6153 6.9335 19.7331 6.9335H12.2665C11.3843 6.9335 10.6665 6.21563 10.6665 5.3335H5.86647C5.27767 5.3335 4.7998 5.81136 4.7998 6.40016V28.2668C4.7998 28.8556 5.27767 29.3335 5.86647 29.3335H26.1331C26.7219 29.3335 27.1998 28.8556 27.1998 28.2668V6.40016C27.1998 5.81136 26.7219 5.3335 26.1331 5.3335ZM24.5331 26.6668H7.46647V8.5335H24.5331V26.6668Z" fill="white"/>
<path d="M10.9336 13.8666C11.9645 13.8666 12.8002 13.0309 12.8002 12C12.8002 10.969 11.9645 10.1333 10.9336 10.1333C9.90263 10.1333 9.06689 10.969 9.06689 12C9.06689 13.0309 9.90263 13.8666 10.9336 13.8666Z" fill="white"/>
<path d="M10.9336 24.5331C11.9645 24.5331 12.8002 23.6974 12.8002 22.6665C12.8002 21.6355 11.9645 20.7998 10.9336 20.7998C9.90263 20.7998 9.06689 21.6355 9.06689 22.6665C9.06689 23.6974 9.90263 24.5331 10.9336 24.5331Z" fill="white"/>
<path d="M10.9336 19.2001C11.9645 19.2001 12.8002 18.3644 12.8002 17.3335C12.8002 16.3025 11.9645 15.4668 10.9336 15.4668C9.90263 15.4668 9.06689 16.3025 9.06689 17.3335C9.06689 18.3644 9.90263 19.2001 10.9336 19.2001Z" fill="white"/>
<path d="M21.6001 11.2002C22.0417 11.2002 22.4001 11.5586 22.4001 12.0002C22.4001 12.4418 22.0417 12.8002 21.6001 12.8002H16.2668C15.8247 12.8002 15.4668 12.4418 15.4668 12.0002C15.4668 11.5586 15.8247 11.2002 16.2668 11.2002H21.6001Z" fill="white"/>
<path d="M21.6001 16.5332C22.0417 16.5332 22.4001 16.8916 22.4001 17.3332C22.4001 17.7748 22.0417 18.1332 21.6001 18.1332H16.2668C15.8247 18.1332 15.4668 17.7748 15.4668 17.3332C15.4668 16.8916 15.8247 16.5332 16.2668 16.5332H21.6001Z" fill="white"/>
<path d="M21.6001 21.8667C22.0417 21.8667 22.4001 22.2251 22.4001 22.6667C22.4001 23.1083 22.0417 23.4667 21.6001 23.4667H16.2668C15.8247 23.4667 15.4668 23.1083 15.4668 22.6667C15.4668 22.2251 15.8247 21.8667 16.2668 21.8667H21.6001Z" fill="white"/>
</svg>
