<svg width="32" height="32" viewBox="0 0 32 32" fill="none" xmlns="http://www.w3.org/2000/svg">
<path d="M27.733 9.60003H19.7336V14.9334H20.1773C21.6973 14.9334 22.9336 16.1696 22.9336 17.6896C22.9336 18.3712 22.6824 19.0262 22.2264 19.5328L18.0797 24.1408C17.549 24.7291 16.7912 25.0667 16.0002 25.0667C15.2093 25.0667 14.4514 24.7291 13.9218 24.1414L9.77515 19.5334C9.31809 19.0262 9.06689 18.3712 9.06689 17.6896C9.06689 16.1696 10.3032 14.9334 11.8232 14.9334H12.2669V8.6667L11.2813 6.9419C10.901 6.27737 10.1944 5.8667 9.42902 5.8667H4.26689C2.97409 5.8667 1.97835 7.0075 2.15329 8.28857L4.77142 27.4886C4.91595 28.5451 5.81835 29.3334 6.88555 29.3334H25.2253C26.2712 29.3334 27.1634 28.5744 27.3304 27.5419L29.8386 12.0752C30.0493 10.7771 29.0477 9.60003 27.733 9.60003V9.60003Z" fill="white"/>
<path opacity="0.6" d="M20.1769 16.5332H18.1332V6.3999H13.8665V16.5332H11.8228C11.1844 16.5332 10.6665 17.0511 10.6665 17.6895C10.6665 17.9748 10.7721 18.2511 10.9636 18.4628L15.1097 23.0703C15.3369 23.322 15.6601 23.4666 15.9998 23.4666C16.3396 23.4666 16.6628 23.322 16.89 23.0703L21.0361 18.4628C21.2276 18.2511 21.3332 17.9748 21.3332 17.6895C21.3332 17.0511 20.8153 16.5332 20.1769 16.5332V16.5332Z" fill="white"/>
<path opacity="0.6" d="M18.1334 4.79997H13.8667V3.19997C13.8667 2.61117 14.3446 2.1333 14.9334 2.1333H17.0667C17.6555 2.1333 18.1334 2.61117 18.1334 3.19997V4.79997Z" fill="white"/>
</svg>
