<svg width="32" height="32" viewBox="0 0 32 32" fill="none" xmlns="http://www.w3.org/2000/svg">
<path d="M10.6667 24.3503C10.6667 23.5663 10.9718 22.8297 11.5259 22.2756L13.4758 20.3257C13.7281 20.074 13.8667 19.7391 13.8667 19.3828V9.36839C13.8667 8.84839 13.5617 8.37319 13.0891 8.15665L3.7334 3.86865V25.5391C3.7334 26.2153 4.15847 26.8185 4.79527 27.0457L10.6667 29.1428V24.3503Z" fill="white"/>
<path opacity="0.6" d="M12.2666 27.4163C14.2261 28.6041 16.5071 29.3331 18.2981 29.3331C22.9333 29.3331 26.2463 25.1449 26.8341 20.7998H28.7999C29.0949 20.7998 29.3333 20.5614 29.3333 20.2665C29.3333 20.1646 29.3039 20.0686 29.2543 19.9875L24.9877 13.0542C24.8938 12.9011 24.7253 12.7998 24.5333 12.7998C24.3413 12.7998 24.1727 12.9011 24.0783 13.0542L19.8117 19.9875C19.7621 20.0686 19.7333 20.1646 19.7333 20.2665C19.7333 20.5614 19.9717 20.7998 20.2666 20.7998H22.2325C21.8346 23.6377 19.7333 25.5998 17.673 25.5998C16.217 25.5998 14.0533 25.0019 12.2666 23.8665V27.4163Z" fill="white"/>
<path d="M15.4668 9.36873V19.3826C15.4668 20.1666 15.1618 20.9031 14.6076 21.4573L13.3932 22.6717C14.9346 23.5789 16.6658 23.9997 17.6732 23.9997C18.4604 23.9997 19.3484 23.4146 19.9335 22.3735C18.9148 22.2135 18.1335 21.3298 18.1335 20.2669C18.1335 19.8717 18.2428 19.485 18.4498 19.149L22.7164 12.2157C23.1095 11.5789 23.7884 11.2002 24.5335 11.2002C25.1575 11.2002 25.7324 11.4685 26.1335 11.9266V4.8002C26.1335 3.91646 25.4167 3.2002 24.5335 3.2002H6.11377L13.7559 6.7026C14.7948 7.17886 15.4668 8.22526 15.4668 9.36873Z" fill="white"/>
</svg>
