<svg width="30" height="31" viewBox="0 0 30 31" fill="none" xmlns="http://www.w3.org/2000/svg">
<g clip-path="url(#clip0_12463_15028)">
<path d="M28.9578 10.6475H6.79118C6.23876 10.6475 5.77851 11.0325 5.65776 11.5481L2.1566 26.72C2.13676 26.804 2.12451 26.891 2.12451 26.9808C2.12451 27.6248 2.64718 28.1475 3.29118 28.1475H8.91043C14.0007 28.1475 8.91043 28.1475 14.0007 28.1475C19.8386 28.1475 14.0007 28.1475 19.8386 28.1475H25.4578C26.0103 28.1475 26.4705 27.7625 26.5913 27.2468L30.0924 12.0749C30.1123 11.9909 30.1245 11.904 30.1245 11.8141C30.1245 11.1701 29.6018 10.6475 28.9578 10.6475Z" fill="#0A77DB"/>
<path d="M6.7912 8.89762H27.7912V3.06429C27.7912 1.77571 26.7464 0.730957 25.4579 0.730957H18.6451C17.8074 0.730957 17.0345 1.18012 16.6186 1.90696L14.9579 4.81429H2.12453C0.835949 4.81429 -0.208801 5.85904 -0.208801 7.14762V24.7223C-0.208801 25.0029 0.0192821 25.231 0.300449 25.231C0.537282 25.231 0.742615 25.0694 0.796282 24.8378C1.68353 20.9802 3.9702 11.1055 3.97778 11.0787C4.31612 9.78954 5.45828 8.89762 6.7912 8.89762Z" fill="#0A77DB" fill-opacity="0.5"/>
<path d="M14.7665 16.2511L8.40253 20.1891C8.27914 20.2696 8.17778 20.3796 8.10762 20.5092C8.03746 20.6387 8.00072 20.7837 8.00072 20.9311C8.00072 21.0784 8.03746 21.2234 8.10762 21.353C8.17778 21.4825 8.27914 21.5926 8.40253 21.6731L14.7665 25.6131C15.3065 25.9451 15.9985 25.5411 15.9985 24.8691V23.3311C17.7125 23.3311 22.8565 23.3311 23.9985 13.7311C21.1405 19.1311 15.9985 18.5311 15.9985 18.5311V16.9931C15.9985 16.3211 15.3065 15.9171 14.7665 16.2511Z" fill="white" fill-opacity="0.9"/>
</g>
<defs>
<clipPath id="clip0_12463_15028">
<rect width="30" height="30" fill="white" transform="translate(-0.000488281 0.230957)"/>
</clipPath>
</defs>
</svg>
