<svg width="32" height="32" viewBox="0 0 32 32" fill="none" xmlns="http://www.w3.org/2000/svg">
<path d="M10.1335 25.9503C10.1335 25.1721 10.4429 24.4265 10.9927 23.8756L12.9426 21.9257C13.1927 21.6761 13.3335 21.3364 13.3335 20.9828V9.36839C13.3335 8.84679 13.0295 8.37372 12.5559 8.15665L3.2002 3.86865V26.6057C3.2002 27.282 3.62526 27.8847 4.26206 28.1124L9.03219 29.8164C9.12286 29.8484 9.21353 29.8655 9.30206 29.8665C9.74313 29.8713 10.1335 29.5145 10.1335 29.0404V25.9503Z" fill="white"/>
<path d="M24.0002 8.53353V4.8002C24.0002 3.91646 23.2834 3.2002 22.4002 3.2002H5.58154L13.2226 6.70206C14.0013 7.0594 14.573 7.73566 14.8114 8.53353H24.0002Z" fill="white"/>
<path opacity="0.6" d="M14.9331 10.1333H26.1331C26.428 10.1333 26.6664 10.3717 26.6664 10.6666V11.7333C26.6664 12.0282 26.428 12.2666 26.1331 12.2666H14.9331V10.1333Z" fill="white"/>
<path d="M28.2667 13.8667H14.9334V16.5334H17.8667C18.3083 16.5334 18.6667 16.8918 18.6667 17.3334C18.6667 17.775 18.3083 18.1334 17.8667 18.1334H14.9334V20.2667H17.8667C18.3083 20.2667 18.6667 20.6251 18.6667 21.0667C18.6667 21.5083 18.3083 21.8667 17.8667 21.8667H14.7814C14.6395 22.311 14.4064 22.7248 14.0742 23.0571L12.1243 25.007C11.9574 25.1739 11.8464 25.3782 11.7856 25.5995H28.2667C28.5616 25.5995 28.8 25.3611 28.8 25.0662V14.4C28.8 14.1051 28.5616 13.8667 28.2667 13.8667ZM24 16C24.8832 16 25.6 16.7163 25.6 17.6C25.6 18.4832 24.8832 19.2 24 19.2C23.1168 19.2 22.4 18.4832 22.4 17.6C22.4 16.7163 23.1168 16 24 16ZM26.6624 23.4667H21.3376C21.015 23.4667 20.8022 23.184 20.8 22.8608C20.7931 21.8667 21.8667 20.2667 24 20.2667C26.1334 20.2667 27.207 21.8667 27.2 22.8608C27.1979 23.184 26.9856 23.4667 26.6624 23.4667Z" fill="white"/>
</svg>
