<svg width="54" height="54" viewBox="0 0 54 54" fill="none" xmlns="http://www.w3.org/2000/svg">
<rect x="1.5" y="1.5" width="50.0222" height="50.0222" rx="11.5" fill="#5362E6" stroke="white" stroke-width="3"/>
<g clip-path="url(#clip0_1661_26052)">
<path d="M24.1113 10.7637C23.766 10.8832 23.3078 11.368 23.2281 11.7C23.1883 11.8461 23.1086 12.4039 23.0422 12.9418C22.9758 13.5062 22.8961 13.9379 22.8563 13.9445C22.3648 14.0574 21.2957 14.4691 20.8707 14.7148L20.3328 15.027L19.423 14.3496C18.2742 13.4863 17.9688 13.3801 17.391 13.6191C17.059 13.7586 13.7652 17.0391 13.5859 17.4043C13.4066 17.7828 13.4066 18.3871 13.5926 18.6926C13.6656 18.8121 13.991 19.2637 14.3098 19.6887L14.8941 20.459L14.6352 20.9305C14.4957 21.1895 14.25 21.807 14.0906 22.2918L13.7984 23.1816L12.8422 23.3211C11.4809 23.5137 11.441 23.527 11.1422 23.7859C10.684 24.1711 10.6641 24.3238 10.6641 27.0598C10.6641 28.5871 10.6906 29.5168 10.7371 29.6895C10.8367 30.048 11.3414 30.5527 11.6934 30.6391C11.8395 30.6723 12.3707 30.7586 12.882 30.825L13.7984 30.9512L14.0176 31.5488C14.1305 31.8742 14.3762 32.4918 14.5621 32.9102L14.8941 33.6738L14.3031 34.5637C13.9711 35.0484 13.6656 35.5531 13.6125 35.6727C13.493 35.9648 13.493 36.2902 13.6258 36.6023C13.7719 36.9477 17.0258 40.2281 17.4043 40.4141C17.5836 40.5004 17.816 40.5469 18.0816 40.5469C18.5332 40.5469 18.6727 40.4672 19.8613 39.5641L20.459 39.1125L21.1563 39.4379C21.5414 39.6238 22.0926 39.8695 22.3848 39.9891L22.916 40.2016L23.0555 41.2242C23.2281 42.4527 23.2813 42.652 23.5734 42.9309C23.9652 43.3094 24.1711 43.3359 26.7941 43.3359C28.2816 43.3359 29.2512 43.3094 29.4172 43.2629C29.7492 43.1699 30.2871 42.6387 30.3602 42.3332C30.3867 42.207 30.473 41.6758 30.5461 41.1512L30.6855 40.2016L31.2832 39.9824C31.6152 39.8695 32.1797 39.6305 32.5383 39.4645C32.8969 39.2918 33.2223 39.1523 33.2555 39.1523C33.2887 39.1523 33.7734 39.4645 34.3379 39.8496C35.3605 40.5469 35.3672 40.5469 35.7656 40.5469C35.9848 40.5469 36.277 40.5004 36.4164 40.4406C36.7484 40.3078 39.823 37.2465 40.0887 36.7949C40.3078 36.4164 40.3477 35.9117 40.1883 35.5465C40.1352 35.427 39.8098 34.9289 39.4711 34.4375L38.8402 33.5477L39.1391 32.9102C39.3051 32.5648 39.5441 32.0137 39.6836 31.6816L39.9293 31.084L41.1711 30.8449C42.5523 30.5727 42.7582 30.473 43.0305 29.9484C43.1633 29.6961 43.1699 29.5898 43.1699 26.9602V24.2309L42.9773 23.9852C42.6852 23.6 42.466 23.507 41.4168 23.3145C40.8855 23.2148 40.3609 23.1152 40.2613 23.0887C40.0953 23.0488 40.0422 22.9691 39.8164 22.3582C39.6703 21.9797 39.4246 21.4285 39.2652 21.1297L38.9797 20.5852L39.5707 19.8281C40.4738 18.6727 40.5469 18.5398 40.5469 18.1016C40.5469 17.4508 40.3941 17.2449 38.5414 15.4055C36.702 13.5793 36.6621 13.5461 35.9648 13.5992C35.5465 13.6258 35.4934 13.659 34.1055 14.6285L33.541 15.027L32.877 14.7281C32.5117 14.5621 31.9008 14.3164 31.5156 14.177L30.8184 13.9312L30.6391 13.0148C30.3137 11.3547 30.3336 11.4012 30.0281 11.0957C29.8355 10.9098 29.6496 10.7969 29.4438 10.7437C28.9656 10.6242 24.4633 10.6375 24.1113 10.7637ZM28.8262 17.0457C31.1305 17.3445 33.4281 18.5797 34.9555 20.3594C36.3898 22.0262 37.2 23.952 37.4258 26.2562C37.4988 26.9469 37.4922 27.0664 37.3594 27.684C36.9477 29.623 36.2371 31.4094 35.3473 32.7441C34.8758 33.448 34.9688 33.448 34.318 32.7641C33.2754 31.675 32.0867 30.8582 30.7453 30.3203L30.0215 30.0348L29.5898 30.1543C27.8367 30.6324 27.7703 30.6457 27.0797 30.6523C26.2629 30.6523 25.5258 30.5129 24.948 30.2473C24.7156 30.141 24.4434 30.0547 24.3371 30.0547C24.0914 30.0547 22.7566 30.6258 22.0859 31.0176C21.1031 31.5953 20.127 32.4187 19.5492 33.1691L19.3766 33.3949L19.0379 32.9102C18.3406 31.9141 17.7629 30.6125 17.4574 29.3242C17.2117 28.3016 17.1719 26.5551 17.3578 25.4395C17.909 22.2121 19.9277 19.4828 22.843 18.0219C24.6891 17.0922 26.6746 16.7734 28.8262 17.0457Z" fill="white"/>
<path d="M26.0171 20.4525C24.6226 20.7912 23.414 22.0131 23.0487 23.4475C22.9226 23.9522 22.9226 24.935 23.0487 25.4397C23.3409 26.5885 24.1245 27.5647 25.1472 28.0494C25.4526 28.1955 25.8511 28.3483 26.0304 28.3881C26.5085 28.5076 27.4979 28.4877 28.0026 28.3615C29.3839 28.0029 30.5925 26.801 30.9444 25.433C31.0772 24.915 31.0839 23.899 30.9511 23.3811C30.5991 21.9865 29.5167 20.8775 28.1288 20.499C27.5577 20.3397 26.5815 20.3197 26.0171 20.4525Z" fill="white"/>
</g>
<defs>
<clipPath id="clip0_1661_26052">
<rect width="34" height="34" fill="white" transform="translate(10 9)"/>
</clipPath>
</defs>
</svg>
