<svg width="32" height="32" viewBox="0 0 32 32" fill="none" xmlns="http://www.w3.org/2000/svg">
<path d="M15.333 16C19.7518 16 23.333 12.4187 23.333 8C23.333 3.58125 19.7518 0 15.333 0C10.9143 0 7.33301 3.58125 7.33301 8C7.33301 12.4187 10.9143 16 15.333 16ZM20.933 18H19.8893C18.5018 18.6375 16.958 19 15.333 19C13.708 19 12.1705 18.6375 10.7768 18H9.73301C5.09551 18 1.33301 21.7625 1.33301 26.4V29C1.33301 30.6562 2.67676 32 4.33301 32H26.333C27.9893 32 29.333 30.6562 29.333 29V26.4C29.333 21.7625 25.5705 18 20.933 18Z" fill="white"/>
</svg>
