<svg width="32" height="32" viewBox="0 0 32 32" fill="none" xmlns="http://www.w3.org/2000/svg">
<path d="M17.6019 7.40067C17.6019 10.936 14.7366 13.8013 11.2012 13.8013C7.66581 13.8013 4.80051 10.936 4.80051 7.40067C4.80051 3.8653 7.66581 1 11.2012 1C14.7366 1 17.6019 3.8653 17.6019 7.40067Z" fill="white"/>
<path d="M20.9222 24.9325C21.0322 24.9975 21.1472 25.0675 21.2622 25.1275V25.5876C21.2622 25.7926 21.3022 25.9876 21.3623 26.1777C20.9772 26.4427 20.5072 26.6027 20.0021 26.6027H2.40025C1.07511 26.6027 0 25.5276 0 24.2024V22.1222C0 18.4118 3.01032 15.4015 6.72071 15.4015H7.5558C8.67092 15.9116 9.90104 16.2016 11.2012 16.2016C12.5013 16.2016 13.7364 15.9116 14.8466 15.4015H15.6817C15.8767 15.4015 16.0617 15.4465 16.2517 15.4615C16.2017 15.6065 16.1367 15.7516 16.0917 15.8966C15.8167 16.7817 16.1867 17.7218 16.9868 18.1818L17.3818 18.4118C17.3768 18.5419 17.3768 18.6719 17.3818 18.8019L16.9868 19.0319C16.1867 19.497 15.8167 20.432 16.0917 21.3171C16.4867 22.6023 17.1868 23.8074 18.1019 24.7975C18.4769 25.1975 19.002 25.4276 19.5471 25.4276C19.8871 25.4276 20.2271 25.3326 20.5272 25.1625L20.9222 24.9325Z" fill="white"/>
<path opacity="0.6" d="M30.1501 19.3909C30.2802 18.6859 30.2802 17.9658 30.1501 17.2607L31.4403 16.5156C31.5903 16.4306 31.6553 16.2556 31.6053 16.0906C31.2703 15.0105 30.6952 14.0304 29.9451 13.2203C29.8301 13.0953 29.6451 13.0653 29.4951 13.1503L28.2049 13.8954C27.6599 13.4303 27.0348 13.0703 26.3597 12.8303V11.3401C26.3597 11.1701 26.2397 11.0201 26.0747 10.9851C24.9596 10.735 23.8245 10.745 22.7644 10.9851C22.5993 11.0201 22.4793 11.1701 22.4793 11.3401V12.8303C21.8043 13.0703 21.1792 13.4303 20.6341 13.8954L19.344 13.1503C19.199 13.0653 19.009 13.0953 18.894 13.2203C18.1439 14.0304 17.5688 15.0105 17.2338 16.0906C17.1838 16.2556 17.2538 16.4306 17.3988 16.5156L18.6889 17.2607C18.5589 17.9658 18.5589 18.6859 18.6889 19.3909L17.3988 20.136C17.2488 20.221 17.1838 20.3961 17.2338 20.5611C17.5688 21.6412 18.1439 22.6163 18.894 23.4314C19.009 23.5564 19.194 23.5864 19.344 23.5014L20.6341 22.7563C21.1792 23.2213 21.8043 23.5814 22.4793 23.8214V25.3116C22.4793 25.4816 22.5993 25.6316 22.7644 25.6666C23.8795 25.9166 25.0146 25.9066 26.0747 25.6666C26.2397 25.6316 26.3597 25.4816 26.3597 25.3116V23.8214C27.0348 23.5814 27.6599 23.2213 28.2049 22.7563L29.4951 23.5014C29.6401 23.5864 29.8301 23.5564 29.9451 23.4314C30.6952 22.6213 31.2703 21.6412 31.6053 20.5611C31.6553 20.3961 31.5853 20.221 31.4403 20.136L30.1501 19.3909ZM24.4245 20.7511C23.0844 20.7511 21.9993 19.661 21.9993 18.3258C21.9993 16.9907 23.0894 15.9006 24.4245 15.9006C25.7597 15.9006 26.8498 16.9907 26.8498 18.3258C26.8498 19.661 25.7647 20.7511 24.4245 20.7511Z" fill="white"/>
</svg>
