<svg width="30" height="31" viewBox="0 0 30 31" fill="none" xmlns="http://www.w3.org/2000/svg">
<path fill-rule="evenodd" clip-rule="evenodd" d="M5.62378 26.481C5.62378 26.481 3.74878 26.481 3.74878 24.606C3.74878 22.731 5.62378 17.106 14.9988 17.106C24.3738 17.106 26.2488 22.731 26.2488 24.606C26.2488 26.481 24.3738 26.481 24.3738 26.481H5.62378ZM14.9988 15.231C16.4906 15.231 17.9214 14.6383 18.9763 13.5834C20.0311 12.5285 20.6238 11.0978 20.6238 9.60596C20.6238 8.11411 20.0311 6.68337 18.9763 5.62848C17.9214 4.57359 16.4906 3.98096 14.9988 3.98096C13.5069 3.98096 12.0762 4.57359 11.0213 5.62848C9.96641 6.68337 9.37378 8.11411 9.37378 9.60596C9.37378 11.0978 9.96641 12.5285 11.0213 13.5834C12.0762 14.6383 13.5069 15.231 14.9988 15.231Z" fill="#0A77DB"/>
</svg>
