<svg width="32" height="32" viewBox="0 0 32 32" fill="none" xmlns="http://www.w3.org/2000/svg">
<path d="M9.6 16.5335C12.695 16.5335 15.2 14.0285 15.2 10.9335C15.2 7.8385 12.695 5.3335 9.6 5.3335C6.505 5.3335 4 7.8385 4 10.9335C4 14.0285 6.505 16.5335 9.6 16.5335ZM13.44 18.1335H13.025C11.985 18.6335 10.83 18.9335 9.6 18.9335C8.37 18.9335 7.22 18.6335 6.175 18.1335H5.76C2.58 18.1335 0 20.7135 0 23.8935V25.3335C0 26.6585 1.075 27.7335 2.4 27.7335H16.8C18.125 27.7335 19.2 26.6585 19.2 25.3335V23.8935C19.2 20.7135 16.62 18.1335 13.44 18.1335Z" fill="white"/>
<path opacity="0.6" d="M23.185 16.6C25.835 16.6 27.985 14.45 27.985 11.8C27.985 9.15 25.835 7 23.185 7C20.535 7 18.385 9.15 18.385 11.8C18.385 14.45 20.535 16.6 23.185 16.6ZM25.585 18.2H25.395C24.7 18.44 23.965 18.6 23.185 18.6C22.405 18.6 21.67 18.44 20.975 18.2H20.785C19.765 18.2 18.825 18.495 18 18.97C19.22 20.285 19.985 22.03 19.985 23.96V25.88C19.985 25.99 19.96 26.095 19.955 26.2H28.785C30.11 26.2 31.185 25.125 31.185 23.8C31.185 20.705 28.68 18.2 25.585 18.2Z" fill="white"/>
</svg>
