<svg width="30" height="31" viewBox="0 0 30 31" fill="none" xmlns="http://www.w3.org/2000/svg">
<path opacity="0.6" d="M25.9988 12.731C27.1033 12.731 27.9988 11.8355 27.9988 10.731C27.9988 9.73396 27.2673 8.91396 26.3128 8.76246C26.4308 8.44046 26.4988 8.09396 26.4988 7.73096C26.4988 6.07446 25.1553 4.73096 23.4988 4.73096C22.1658 4.73096 21.0378 5.60046 20.6468 6.80296C20.4378 6.75696 20.2213 6.73096 19.9988 6.73096C18.3423 6.73096 16.9988 8.07446 16.9988 9.73096C16.9988 11.3875 18.3423 12.731 19.9988 12.731H25.9988Z" fill="#0A77DB"/>
<path d="M26.4988 14.731H14.9988C14.1708 14.731 13.4988 15.4025 13.4988 16.231V26.231C13.4988 27.0595 14.1708 27.731 14.9988 27.731H26.4988C27.3268 27.731 27.9988 27.0595 27.9988 26.231V16.231C27.9988 15.4025 27.3268 14.731 26.4988 14.731ZM25.9988 25.731H15.4988V22.231H25.9988V25.731ZM25.9988 20.231H15.4988V16.731H25.9988V20.231Z" fill="#0A77DB"/>
<path d="M14.4988 2.73096C14.3943 2.73096 14.2878 2.74746 14.1818 2.78296L2.68278 5.61646C2.27428 5.75196 1.99878 6.13446 1.99878 6.56496V25.231C1.99878 25.783 2.44678 26.231 2.99878 26.231H11.9988V16.231C11.9988 14.5745 13.3418 13.231 14.9988 13.231H15.4988V3.73096C15.4988 3.15996 15.0308 2.73046 14.4988 2.73096ZM7.99878 22.731H4.99878C4.44678 22.731 3.99878 22.283 3.99878 21.731C3.99878 21.179 4.44678 20.731 4.99878 20.731H7.99878C8.55078 20.731 8.99878 21.179 8.99878 21.731C8.99878 22.283 8.55078 22.731 7.99878 22.731ZM7.99878 18.731H4.99878C4.44678 18.731 3.99878 18.283 3.99878 17.731C3.99878 17.179 4.44678 16.731 4.99878 16.731H7.99878C8.55078 16.731 8.99878 17.179 8.99878 17.731C8.99878 18.283 8.55078 18.731 7.99878 18.731ZM7.99878 14.731H4.99878C4.44678 14.731 3.99878 14.283 3.99878 13.731C3.99878 13.179 4.44678 12.731 4.99878 12.731H7.99878C8.55078 12.731 8.99878 13.179 8.99878 13.731C8.99878 14.283 8.55078 14.731 7.99878 14.731ZM7.99878 10.731H4.99878C4.44678 10.731 3.99878 10.283 3.99878 9.73096C3.99878 9.17896 4.44678 8.73096 4.99878 8.73096H7.99878C8.55078 8.73096 8.99878 9.17896 8.99878 9.73096C8.99878 10.283 8.55078 10.731 7.99878 10.731ZM12.4988 10.731H11.4988C10.9468 10.731 10.4988 10.283 10.4988 9.73096C10.4988 9.17896 10.9468 8.73096 11.4988 8.73096H12.4988C13.0508 8.73096 13.4988 9.17896 13.4988 9.73096C13.4988 10.283 13.0508 10.731 12.4988 10.731Z" fill="#0A77DB"/>
</svg>
