<svg width="12" height="12" viewBox="0 0 12 12" fill="none" xmlns="http://www.w3.org/2000/svg">
<rect width="12" height="12" rx="6" fill="#0078FF"/>
<path d="M3.94531 2.8125H6.06641C6.5013 2.8125 6.875 2.8776 7.1875 3.00781C7.5026 3.13802 7.74479 3.33073 7.91406 3.58594C8.08333 3.84115 8.16797 4.15495 8.16797 4.52734C8.16797 4.83203 8.11589 5.09375 8.01172 5.3125C7.91016 5.52865 7.76562 5.70964 7.57812 5.85547C7.39323 5.9987 7.17578 6.11328 6.92578 6.19922L6.55469 6.39453H4.71094L4.70312 5.48047H6.07422C6.27995 5.48047 6.45052 5.44401 6.58594 5.37109C6.72135 5.29818 6.82292 5.19661 6.89062 5.06641C6.96094 4.9362 6.99609 4.78516 6.99609 4.61328C6.99609 4.43099 6.96224 4.27344 6.89453 4.14062C6.82682 4.00781 6.72396 3.90625 6.58594 3.83594C6.44792 3.76562 6.27474 3.73047 6.06641 3.73047H5.11719V8.5H3.94531V2.8125ZM7.125 8.5L5.82812 5.96484L7.06641 5.95703L8.37891 8.44531V8.5H7.125Z" fill="#F4F7FF"/>
</svg>
