<svg width="32" height="32" viewBox="0 0 32 32" fill="none" xmlns="http://www.w3.org/2000/svg">
<path opacity="0.6" d="M28.8002 4.7998L21.8669 6.3998L24.0242 8.059L16.357 16.5331H12.2669C11.9666 16.5331 11.6733 16.6174 11.4189 16.7763L7.54153 19.1998H3.2002V22.3998H8.0002C8.30046 22.3998 8.5938 22.3155 8.8482 22.1566L12.7255 19.7331H17.0669C17.5191 19.7331 17.9501 19.5422 18.2535 19.2067L26.5687 10.0169L28.8002 11.7331V4.7998Z" fill="white"/>
<path d="M3.2002 23.4668H7.46686V30.4001H3.2002V23.4668Z" fill="white"/>
<path d="M19.2002 19.7499V30.4H23.4669V15.0342L19.2002 19.7499Z" fill="white"/>
<path d="M9.41267 23.0611C9.14174 23.2302 8.84307 23.3422 8.5332 23.4057V30.3998H12.7999V20.9443L9.41267 23.0611Z" fill="white"/>
<path d="M26.6985 11.4624L24.5332 13.8555V30.4H28.7999V13.0789L26.6985 11.4624Z" fill="white"/>
<path d="M17.0667 20.8002H13.8667V30.4002H18.1334V20.5757C17.8 20.7213 17.4374 20.8002 17.0667 20.8002Z" fill="white"/>
</svg>
