<svg width="33" height="33" viewBox="0 0 33 33" fill="none" xmlns="http://www.w3.org/2000/svg">
<path d="M27.6097 19.4844L25.5124 18.2733C25.7241 17.1311 25.7241 15.9594 25.5124 14.8173L27.6097 13.6062C27.8509 13.4683 27.9592 13.1828 27.8804 12.9169C27.334 11.1643 26.4035 9.57907 25.1875 8.25967C25.0004 8.05782 24.6952 8.00859 24.4589 8.14644L22.3616 9.35753C21.4804 8.59937 20.4662 8.01352 19.3684 7.62951V5.21226C19.3684 4.93656 19.1763 4.69533 18.9056 4.63625C17.0988 4.23256 15.2477 4.25225 13.5295 4.63625C13.2588 4.69533 13.0668 4.93656 13.0668 5.21226V7.63444C11.9738 8.02336 10.9597 8.60921 10.0735 9.36245L7.98117 8.15136C7.73994 8.01352 7.43963 8.05782 7.25255 8.2646C6.03654 9.57907 5.10607 11.1643 4.5596 12.9219C4.47591 13.1877 4.58914 13.4733 4.83038 13.6111L6.92763 14.8222C6.71593 15.9644 6.71593 17.1361 6.92763 18.2782L4.83038 19.4893C4.58914 19.6272 4.48084 19.9127 4.5596 20.1786C5.10607 21.9312 6.03654 23.5164 7.25255 24.8358C7.43963 25.0377 7.74486 25.0869 7.98117 24.9491L10.0784 23.738C10.9597 24.4961 11.9738 25.082 13.0717 25.466V27.8882C13.0717 28.1639 13.2637 28.4051 13.5345 28.4642C15.3412 28.8679 17.1923 28.8482 18.9105 28.4642C19.1813 28.4051 19.3733 28.1639 19.3733 27.8882V25.466C20.4662 25.0771 21.4804 24.4912 22.3665 23.738L24.4638 24.9491C24.705 25.0869 25.0053 25.0426 25.1924 24.8358C26.4084 23.5214 27.3389 21.9361 27.8853 20.1786C27.9592 19.9078 27.8509 19.6222 27.6097 19.4844ZM16.2176 20.4838C14.0465 20.4838 12.2791 18.7164 12.2791 16.5453C12.2791 14.3742 14.0465 12.6068 16.2176 12.6068C18.3886 12.6068 20.156 14.3742 20.156 16.5453C20.156 18.7164 18.3886 20.4838 16.2176 20.4838Z" fill="white"/>
</svg>
