<svg width="59" height="59" viewBox="0 0 59 59" fill="none" xmlns="http://www.w3.org/2000/svg">
<g clip-path="url(#clip0_12186_790)">
<path d="M51.1338 4.87012H29.2189C25.1914 4.87012 21.9139 8.14762 21.9139 12.1751V34.09H34.0889C38.9588 34.09 41.3938 38.96 41.3938 41.395V46.265C40.0449 46.265 38.9588 44.9331 38.9588 43.83C38.9588 40.0753 35.4086 36.525 31.6539 36.525H12.1739C2.97937 36.525 0.162082 50.0807 0.0476377 50.6578C-0.0960269 51.3736 0.0890326 52.1163 0.551682 52.6788C1.01433 53.2437 1.70343 53.57 2.43393 53.57H21.9139C23.258 53.57 24.3489 52.4791 24.3489 51.135H41.3938C45.4213 51.135 48.6988 47.8575 48.6988 43.83V21.9151H56.0038C57.3479 21.9151 58.4388 20.8242 58.4388 19.4801V12.1751C58.4388 8.14762 55.1613 4.87012 51.1338 4.87012ZM25.2425 46.265C26.1483 43.83 27.9697 41.395 31.6539 41.395C32.7472 41.395 34.0889 42.7391 34.0889 43.83C34.0889 44.6774 34.2764 45.4931 34.5686 46.265H25.2425ZM43.8288 31.6551H26.7839V26.7851H43.8288V31.6551ZM43.8288 24.3501H26.7839V19.4801H43.8288V24.3501ZM43.8288 17.0451H26.7839V12.1751H43.8288V17.0451ZM53.5688 17.0451H48.6988V12.1751C48.6988 10.831 49.7921 9.74011 51.1338 9.74011C52.4755 9.74011 53.5688 10.831 53.5688 12.1751V17.0451Z" fill="#99AAB5"/>
</g>
<defs>
<clipPath id="clip0_12186_790">
<rect width="58.4399" height="58.4399" fill="white"/>
</clipPath>
</defs>
</svg>
