<svg width="32" height="34" viewBox="0 0 32 34" fill="none" xmlns="http://www.w3.org/2000/svg">
<g clip-path="url(#clip0_1967_29764)">
<path d="M7.99967 15.6732V6.01482H23.9997V15.6732L26.6663 14.1257V3.30713H5.33301V14.1257L7.99967 15.6732Z" fill="white"/>
<path d="M20.3545 20.9083H11.6452L2.6665 15.6987V27.6776C2.6665 29.1722 3.86117 30.3853 5.33317 30.3853H26.6665C28.1385 30.3853 29.3332 29.1722 29.3332 27.6776V15.6987L20.3545 20.9083Z" fill="white"/>
<g opacity="0.6">
<path d="M15.9998 18.2C15.9998 18.2 21.3332 14.2616 21.3332 11.3441C21.3332 8.57413 17.1852 7.36921 15.9998 11.0083C14.8145 7.36921 10.6665 8.57413 10.6665 11.3441C10.6665 14.2616 15.9998 18.2 15.9998 18.2Z" fill="white"/>
</g>
</g>
<defs>
<clipPath id="clip0_1967_29764">
<rect width="32" height="32.4923" fill="white" transform="translate(0 0.600098)"/>
</clipPath>
</defs>
</svg>
