<svg width="32" height="33" viewBox="0 0 32 33" fill="none" xmlns="http://www.w3.org/2000/svg">
<path d="M29 24.0213C29 27.0984 26.5056 29.5928 23.4286 29.5928C20.3515 29.5928 17.8571 27.0984 17.8571 24.0213C17.8571 23.7901 17.8978 23.5701 17.9253 23.3464L12.4305 20.599C11.4268 21.5664 10.0746 22.1642 8.57143 22.1642C5.49437 22.1642 3 19.6698 3 16.5928C3 13.5157 5.49437 11.0213 8.57143 11.0213C10.0722 11.0213 11.4285 11.6214 12.4308 12.5866L17.9256 9.83916C17.8978 9.61688 17.8571 9.34411 17.8571 9.1642C17.8571 6.08715 20.3515 3.59277 23.4286 3.59277C26.5056 3.59277 29 6.08715 29 9.1642C29 12.2413 26.5056 14.7356 23.4286 14.7356C21.9278 14.7356 20.5715 14.1355 19.5692 13.1704L14.0744 15.9178C14.1022 16.1401 14.1429 16.3606 14.1429 16.5928C14.1429 16.8249 14.1022 17.0455 14.0732 17.266L19.568 20.0134C20.5732 19.0477 21.9254 18.4499 23.4286 18.4499C26.5045 18.4499 29 20.8932 29 24.0213Z" fill="white"/>
</svg>
