<svg width="12" height="12" viewBox="0 0 12 12" fill="none" xmlns="http://www.w3.org/2000/svg">
<rect width="12" height="12" rx="6" fill="#FFA800"/>
<path d="M7.00391 7.01172C7.00391 6.91016 6.98828 6.81901 6.95703 6.73828C6.92839 6.65495 6.8737 6.57943 6.79297 6.51172C6.71224 6.44141 6.59896 6.3724 6.45312 6.30469C6.30729 6.23698 6.11849 6.16667 5.88672 6.09375C5.62891 6.01042 5.38411 5.91667 5.15234 5.8125C4.92318 5.70833 4.72005 5.58724 4.54297 5.44922C4.36849 5.30859 4.23047 5.14583 4.12891 4.96094C4.02995 4.77604 3.98047 4.5612 3.98047 4.31641C3.98047 4.07943 4.03255 3.86458 4.13672 3.67188C4.24089 3.47656 4.38672 3.3099 4.57422 3.17188C4.76172 3.03125 4.98307 2.92318 5.23828 2.84766C5.49609 2.77214 5.77865 2.73438 6.08594 2.73438C6.50521 2.73438 6.87109 2.8099 7.18359 2.96094C7.49609 3.11198 7.73828 3.31901 7.91016 3.58203C8.08464 3.84505 8.17188 4.14583 8.17188 4.48438H7.00781C7.00781 4.31771 6.97266 4.17188 6.90234 4.04688C6.83464 3.91927 6.73047 3.81901 6.58984 3.74609C6.45182 3.67318 6.27734 3.63672 6.06641 3.63672C5.86328 3.63672 5.69401 3.66797 5.55859 3.73047C5.42318 3.79036 5.32161 3.8724 5.25391 3.97656C5.1862 4.07812 5.15234 4.19271 5.15234 4.32031C5.15234 4.41667 5.17578 4.50391 5.22266 4.58203C5.27214 4.66016 5.34505 4.73307 5.44141 4.80078C5.53776 4.86849 5.65625 4.93229 5.79688 4.99219C5.9375 5.05208 6.10026 5.11068 6.28516 5.16797C6.59505 5.26172 6.86719 5.36719 7.10156 5.48438C7.33854 5.60156 7.53646 5.73307 7.69531 5.87891C7.85417 6.02474 7.97396 6.1901 8.05469 6.375C8.13542 6.5599 8.17578 6.76953 8.17578 7.00391C8.17578 7.2513 8.1276 7.47266 8.03125 7.66797C7.9349 7.86328 7.79557 8.02865 7.61328 8.16406C7.43099 8.29948 7.21354 8.40234 6.96094 8.47266C6.70833 8.54297 6.42578 8.57812 6.11328 8.57812C5.83203 8.57812 5.55469 8.54167 5.28125 8.46875C5.00781 8.39323 4.75911 8.27995 4.53516 8.12891C4.3138 7.97786 4.13672 7.78516 4.00391 7.55078C3.87109 7.31641 3.80469 7.03906 3.80469 6.71875H4.98047C4.98047 6.89583 5.00781 7.04557 5.0625 7.16797C5.11719 7.29036 5.19401 7.38932 5.29297 7.46484C5.39453 7.54036 5.51432 7.59505 5.65234 7.62891C5.79297 7.66276 5.94661 7.67969 6.11328 7.67969C6.31641 7.67969 6.48307 7.65104 6.61328 7.59375C6.74609 7.53646 6.84375 7.45703 6.90625 7.35547C6.97135 7.25391 7.00391 7.13932 7.00391 7.01172Z" fill="#F4F7FF"/>
</svg>
