<svg width="12" height="12" viewBox="0 0 12 12" fill="none" xmlns="http://www.w3.org/2000/svg">
<rect width="12" height="12" rx="6" fill="#F64E60"/>
<path d="M6.14453 6.47266H4.69531V5.55859H6.14453C6.36849 5.55859 6.55078 5.52214 6.69141 5.44922C6.83203 5.3737 6.9349 5.26953 7 5.13672C7.0651 5.00391 7.09766 4.85417 7.09766 4.6875C7.09766 4.51823 7.0651 4.36068 7 4.21484C6.9349 4.06901 6.83203 3.95182 6.69141 3.86328C6.55078 3.77474 6.36849 3.73047 6.14453 3.73047H5.10156V8.5H3.92969V2.8125H6.14453C6.58984 2.8125 6.97135 2.89323 7.28906 3.05469C7.60938 3.21354 7.85417 3.43359 8.02344 3.71484C8.19271 3.99609 8.27734 4.31771 8.27734 4.67969C8.27734 5.04688 8.19271 5.36458 8.02344 5.63281C7.85417 5.90104 7.60938 6.10807 7.28906 6.25391C6.97135 6.39974 6.58984 6.47266 6.14453 6.47266Z" fill="#F4F7FF"/>
</svg>
