<svg width="12" height="13" viewBox="0 0 12 13" fill="none" xmlns="http://www.w3.org/2000/svg">
<rect y="0.5" width="12" height="12" rx="6" fill="#1BC5BD"/>
<path d="M6.14453 6.97266H4.69531V6.05859H6.14453C6.36849 6.05859 6.55078 6.02214 6.69141 5.94922C6.83203 5.8737 6.9349 5.76953 7 5.63672C7.0651 5.50391 7.09766 5.35417 7.09766 5.1875C7.09766 5.01823 7.0651 4.86068 7 4.71484C6.9349 4.56901 6.83203 4.45182 6.69141 4.36328C6.55078 4.27474 6.36849 4.23047 6.14453 4.23047H5.10156V9H3.92969V3.3125H6.14453C6.58984 3.3125 6.97135 3.39323 7.28906 3.55469C7.60938 3.71354 7.85417 3.93359 8.02344 4.21484C8.19271 4.49609 8.27734 4.81771 8.27734 5.17969C8.27734 5.54688 8.19271 5.86458 8.02344 6.13281C7.85417 6.40104 7.60938 6.60807 7.28906 6.75391C6.97135 6.89974 6.58984 6.97266 6.14453 6.97266Z" fill="#F4F7FF"/>
</svg>
