<svg width="30" height="30" viewBox="0 0 30 30" fill="none" xmlns="http://www.w3.org/2000/svg">
<path d="M7.49854 18.75H3.74854C2.713 18.75 1.87354 19.5895 1.87354 20.625V26.25C1.87354 27.2855 2.713 28.125 3.74854 28.125H7.49854C8.53407 28.125 9.37354 27.2855 9.37354 26.25V20.625C9.37354 19.5895 8.53407 18.75 7.49854 18.75Z" fill="#0A77DB"/>
<path d="M16.8735 11.25H13.1235C12.088 11.25 11.2485 12.0895 11.2485 13.125V26.25C11.2485 27.2855 12.088 28.125 13.1235 28.125H16.8735C17.9091 28.125 18.7485 27.2855 18.7485 26.25V13.125C18.7485 12.0895 17.9091 11.25 16.8735 11.25Z" fill="#0A77DB" fill-opacity="0.6"/>
<path d="M26.2485 1.875H22.4985C21.463 1.875 20.6235 2.71447 20.6235 3.75V26.25C20.6235 27.2855 21.463 28.125 22.4985 28.125H26.2485C27.2841 28.125 28.1235 27.2855 28.1235 26.25V3.75C28.1235 2.71447 27.2841 1.875 26.2485 1.875Z" fill="#0A77DB"/>
</svg>
