<svg width="30" height="30" viewBox="0 0 30 30" fill="none" xmlns="http://www.w3.org/2000/svg">
<g clip-path="url(#clip0_13266_15593)">
<path fill-rule="evenodd" clip-rule="evenodd" d="M7.14232 1.05563C7.40554 0.726569 7.73934 0.460865 8.11905 0.27815C8.49877 0.0954338 8.91468 0.000375805 9.33607 0L20.6611 0C21.0825 0.000375805 21.4984 0.0954338 21.8781 0.27815C22.2578 0.460865 22.5916 0.726569 22.8548 1.05563L29.7923 9.7275C29.9338 9.92257 29.9948 10.1646 29.9625 10.4035C29.9303 10.6423 29.8073 10.8595 29.6191 11.01C29.4309 11.1606 29.192 11.2329 28.9519 11.2119C28.7118 11.191 28.4891 11.0784 28.3298 10.8975L21.3923 2.2275C21.3046 2.1177 21.1934 2.02901 21.0668 1.968C20.9403 1.90698 20.8016 1.8752 20.6611 1.875H9.33607C9.19555 1.8752 9.05688 1.90698 8.93031 1.968C8.80374 2.02901 8.6925 2.1177 8.60482 2.2275L1.66732 10.8975C1.59284 11.0002 1.49831 11.0867 1.38944 11.1517C1.28056 11.2168 1.15962 11.2591 1.03393 11.2761C0.908229 11.2931 0.780396 11.2844 0.658163 11.2505C0.53593 11.2166 0.421839 11.1583 0.322796 11.0791C0.223753 10.9999 0.141818 10.9013 0.0819505 10.7895C0.0220831 10.6777 -0.0144717 10.5549 -0.0255013 10.4285C-0.0365309 10.3022 -0.0218058 10.1749 0.0177825 10.0544C0.0573709 9.93391 0.120999 9.8227 0.204816 9.7275L7.14232 1.05563Z" fill="#0A77DB"/>
<path fill-rule="evenodd" clip-rule="evenodd" d="M0.232736 9.69375C0.32059 9.59375 0.428731 9.5136 0.549966 9.45864C0.671201 9.40368 0.80275 9.37517 0.935861 9.375H11.2484C11.497 9.375 11.7355 9.47377 11.9113 9.64959C12.0871 9.8254 12.1859 10.0639 12.1859 10.3125C12.1859 11.0584 12.4822 11.7738 13.0096 12.3012C13.5371 12.8287 14.2524 13.125 14.9984 13.125C15.7443 13.125 16.4597 12.8287 16.9871 12.3012C17.5145 11.7738 17.8109 11.0584 17.8109 10.3125C17.8109 10.0639 17.9096 9.8254 18.0854 9.64959C18.2613 9.47377 18.4997 9.375 18.7484 9.375H29.0609C29.1938 9.37504 29.3251 9.40333 29.4463 9.45801C29.5674 9.51269 29.6756 9.5925 29.7635 9.69215C29.8514 9.79179 29.9172 9.909 29.9564 10.036C29.9956 10.163 30.0073 10.2969 29.9909 10.4287L29.2596 16.2862C29.1746 16.9667 28.8439 17.5926 28.3298 18.0463C27.8156 18.5 27.1534 18.7503 26.4677 18.75H3.52899C2.84328 18.7503 2.18109 18.5 1.66695 18.0463C1.15281 17.5926 0.822139 16.9667 0.737111 16.2862L0.00586143 10.4287C-0.0107243 10.2969 0.000926831 10.163 0.0400417 10.0359C0.0791566 9.90887 0.144841 9.7916 0.232736 9.69188V9.69375Z" fill="#0A77DB"/>
<path d="M0.55021 20.7086C0.428975 20.7636 0.320834 20.8437 0.232981 20.9438V20.9419C0.145085 21.0416 0.0794008 21.1589 0.0402859 21.2859C0.00117097 21.413 -0.0104801 21.5469 0.00610558 21.6788L0.737356 27.5362C0.822383 28.2167 1.15306 28.8426 1.6672 29.2963C2.18134 29.75 2.84352 30.0003 3.52923 30H26.468C27.1537 30.0003 27.8159 29.75 28.33 29.2963C28.8442 28.8426 29.1748 28.2167 29.2599 27.5362L29.9911 21.6788C30.0076 21.5469 29.9958 21.413 29.9566 21.286C29.9174 21.159 29.8517 21.0418 29.7637 20.9421C29.6758 20.8425 29.5677 20.7627 29.4465 20.708C29.3254 20.6533 29.194 20.625 29.0611 20.625H18.7486C18.5 20.625 18.2615 20.7238 18.0857 20.8996C17.9099 21.0754 17.8111 21.3139 17.8111 21.5625C17.8111 22.3084 17.5148 23.0238 16.9873 23.5512C16.4599 24.0787 15.7445 24.375 14.9986 24.375C14.2527 24.375 13.5373 24.0787 13.0099 23.5512C12.4824 23.0238 12.1861 22.3084 12.1861 21.5625C12.1861 21.3139 12.0873 21.0754 11.9115 20.8996C11.7357 20.7238 11.4972 20.625 11.2486 20.625H0.936106C0.802995 20.6252 0.671446 20.6537 0.55021 20.7086Z" fill="#0A77DB" fill-opacity="0.6"/>
</g>
<defs>
<clipPath id="clip0_13266_15593">
<rect width="30" height="30" fill="white" transform="translate(-0.00146484)"/>
</clipPath>
</defs>
</svg>
