<svg width="30" height="30" viewBox="0 0 30 30" fill="none" xmlns="http://www.w3.org/2000/svg">
<path d="M10.7191 13.9979C13.7867 13.9979 16.2729 11.5353 16.2729 8.49678C16.2729 5.46259 13.7867 3 10.7191 3C7.65152 3 5.16533 5.46259 5.16533 8.50107C5.16533 11.5353 7.65152 13.9979 10.7191 13.9979ZM16.2642 18.7769V15.6353C15.7349 15.4806 15.1838 15.3688 14.6068 15.3688H13.8822C12.9189 15.8072 11.8472 16.0565 10.7191 16.0565C9.591 16.0565 8.52364 15.8072 7.55606 15.3688H6.83147C3.61201 15.3731 1 17.9603 1 21.1492V22.9371C1 24.076 1.93286 25 3.08267 25H18.3556C19.0281 25 19.6182 24.6777 20 24.1877L17.4834 21.6951C16.6981 20.9172 16.2642 19.8814 16.2642 18.7769Z" fill="#0A77DB"/>
<path opacity="0.6" d="M28.5981 18.6798L24.722 14.8036C24.2069 14.2879 23.5072 14 22.7775 14H19.3736C18.6138 14 18 14.6145 18 15.3751V18.7786C18 19.5091 18.2876 20.2053 18.8027 20.721L22.6788 24.5971C23.2154 25.1343 24.0867 25.1343 24.6233 24.5971L28.5938 20.6221C29.1347 20.085 29.1347 19.2169 28.5981 18.6798ZM20.7515 17.7773C20.1806 17.7773 19.7213 17.3175 19.7213 16.746C19.7213 16.1744 20.1806 15.7146 20.7515 15.7146C21.3224 15.7146 21.7817 16.1744 21.7817 16.746C21.7817 17.3132 21.3224 17.7773 20.7515 17.7773Z" fill="#0A77DB"/>
</svg>
