<svg width="32" height="32" viewBox="0 0 32 32" fill="none" xmlns="http://www.w3.org/2000/svg">
<path opacity="0.6" d="M15.9998 18.1333C13.0542 18.1333 10.6665 20.521 10.6665 23.4666C10.6665 26.4117 13.0542 28.8 15.9998 28.8C18.9454 28.8 21.3332 26.4117 21.3332 23.4666C21.3332 20.521 18.9454 18.1333 15.9998 18.1333ZM18.7988 23.2336L16.1321 25.3669C15.9497 25.5125 15.7188 25.6 15.4665 25.6C15.1716 25.6 14.9049 25.4805 14.7124 25.2874L13.1124 23.6874C12.9193 23.4949 12.7998 23.2282 12.7998 22.9333C12.7998 22.3445 13.2777 21.8666 13.8665 21.8666C14.1614 21.8666 14.4281 21.9861 14.6206 22.1792L15.5454 23.104L17.4676 21.5664C17.65 21.4208 17.8809 21.3333 18.1332 21.3333C18.722 21.3333 19.1998 21.8112 19.1998 22.4C19.1998 22.7376 19.0436 23.0378 18.7988 23.2336Z" fill="white"/>
<path d="M29.3331 12.2666H9.06647C8.5614 12.2666 8.1406 12.6186 8.03021 13.0901L4.82914 26.9615C4.811 27.0383 4.7998 27.1178 4.7998 27.1999C4.7998 27.7887 5.27767 28.2666 5.86647 28.2666H11.0041C9.8062 27.0207 9.06647 25.3311 9.06647 23.4666C9.06647 19.6373 12.1705 16.5333 15.9998 16.5333C19.8291 16.5333 22.9331 19.6373 22.9331 23.4666C22.9331 25.3311 22.1934 27.0207 20.9955 28.2666H26.1331C26.6382 28.2666 27.059 27.9146 27.1694 27.4431L30.3705 13.5717C30.3886 13.4949 30.3998 13.4154 30.3998 13.3333C30.3998 12.7445 29.9219 12.2666 29.3331 12.2666Z" fill="white"/>
<path d="M9.0665 10.6669H28.2665V5.33353C28.2665 4.1554 27.3113 3.2002 26.1332 3.2002H19.9044C19.1385 3.2002 18.4318 3.61086 18.0516 4.2754L16.5332 6.93353H4.79984C3.6217 6.93353 2.6665 7.88873 2.6665 9.06686V25.1351C2.6665 25.3917 2.87504 25.6002 3.1321 25.6002C3.34864 25.6002 3.53637 25.4525 3.58544 25.2407C4.39664 21.7138 6.4873 12.6855 6.49424 12.661C6.80357 11.4823 7.84784 10.6669 9.0665 10.6669Z" fill="white"/>
</svg>
