<svg width="24" height="24" viewBox="0 0 24 24" fill="none" xmlns="http://www.w3.org/2000/svg">
<circle cx="12" cy="12" r="12" fill="#FFA800"/>
<path fill-rule="evenodd" clip-rule="evenodd" d="M7.06387 16C6.33649 15.9999 5.62248 15.8076 4.99632 15.4434C4.37016 15.0791 3.8548 14.5562 3.50399 13.9292C3.15318 13.3021 2.97978 12.5939 3.00188 11.8785C3.02398 11.163 3.24076 10.4665 3.62963 9.86156C4.01849 9.25664 4.56518 8.76549 5.21266 8.43935C5.86015 8.1132 6.5847 7.96401 7.31074 8.00734C8.03679 8.05066 8.73771 8.28492 9.3404 8.68567C9.94309 9.08642 10.4255 9.63899 10.7372 10.2857H19.258L21 12L19.258 13.7143L18.0966 12.5714L16.9353 13.7143L15.7739 12.5714L14.6126 13.7143L13.4513 12.5714L12.2899 13.7143H10.7372C10.4075 14.3983 9.88728 14.9762 9.23703 15.3808C8.58678 15.7855 7.8332 16.0002 7.06387 16ZM5.90252 13.1429C6.21053 13.1429 6.50592 13.0224 6.72372 12.8081C6.94151 12.5938 7.06387 12.3031 7.06387 12C7.06387 11.6969 6.94151 11.4062 6.72372 11.1919C6.50592 10.9776 6.21053 10.8571 5.90252 10.8571C5.59451 10.8571 5.29912 10.9776 5.08133 11.1919C4.86353 11.4062 4.74118 11.6969 4.74118 12C4.74118 12.3031 4.86353 12.5938 5.08133 12.8081C5.29912 13.0224 5.59451 13.1429 5.90252 13.1429Z" fill="white"/>
</svg>
