<svg width="24" height="24" viewBox="0 0 24 24" fill="none" xmlns="http://www.w3.org/2000/svg">
<g clip-path="url(#clip0_1274_18189)">
<path d="M20 4V0L16.1953 3.80467C16.07 3.93 16 4.09867 16 4.276V6.586L10.9606 11.626C10.7786 11.8067 10.6666 12.0567 10.6666 12.3333C10.6666 12.8853 11.1146 13.3333 11.6666 13.3333C11.9433 13.3333 12.1933 13.2213 12.3753 13.04L17.414 8H19.724C19.9013 8 20.0706 7.93 20.1953 7.80467L24 4H20Z" fill="#10555F"/>
<path d="M21.138 8.74701C20.7653 9.11967 20.2513 9.33301 19.724 9.33301H18.5987C19.0653 10.3483 19.3333 11.475 19.3333 12.6663C19.3333 17.0843 15.7513 20.6663 11.3333 20.6663C6.91533 20.6663 3.33333 17.0843 3.33333 12.6663C3.33333 8.24834 6.91533 4.66634 11.3333 4.66634C12.5247 4.66634 13.6513 4.93367 14.6667 5.40101V4.27567C14.6667 3.74901 14.88 3.23367 15.2527 2.86167L15.8433 2.27101C14.4607 1.67034 12.9367 1.33301 11.3333 1.33301C5.074 1.33301 0 6.40701 0 12.6663C0 18.9257 5.074 23.9997 11.3333 23.9997C17.5927 23.9997 22.6667 18.9257 22.6667 12.6663C22.6667 11.063 22.3293 9.53967 21.7287 8.15634L21.138 8.74701Z" fill="#10555F"/>
<path d="M13.318 13.983C12.8767 14.4243 12.2907 14.667 11.6667 14.667C10.38 14.667 9.33337 13.6203 9.33337 12.3337C9.33337 11.7083 9.57737 11.1203 10.0214 10.6803L13.5907 7.11033C12.894 6.82633 12.1327 6.66699 11.3334 6.66699C8.01937 6.66699 5.33337 9.35299 5.33337 12.667C5.33337 15.981 8.01937 18.667 11.3334 18.667C14.6474 18.667 17.3334 15.981 17.3334 12.667C17.3334 11.8683 17.174 11.107 16.8907 10.4097L13.318 13.983Z" fill="#F64E60"/>
</g>
<defs>
<clipPath id="clip0_1274_18189">
<rect width="24" height="24" fill="white"/>
</clipPath>
</defs>
</svg>
