<svg width="220" height="191" viewBox="0 0 220 191" fill="none" xmlns="http://www.w3.org/2000/svg">
<path d="M66.9038 116.779C67.3642 115.523 67.786 114.252 68.0823 112.936C70.9241 100.317 64.7031 86.1252 70.7935 74.1801C75.2385 65.4623 83.9146 59.9343 92.6161 57.5715C103.197 54.6982 113.841 57.2018 124.198 59.9489C130.889 61.7238 137.407 61.9333 143.674 58.4058C161.244 48.5159 173.361 56.0699 177.486 64.4629C181.61 72.8561 176.712 86.0226 186.766 102.52C196.82 119.018 172.587 131.608 167.689 137.763C162.791 143.918 165.023 168.538 137.998 164.061C110.973 159.585 70.499 155.078 65.8582 139.147C63.5228 131.128 64.0489 124.571 66.9038 116.779Z" fill="#B3E0FF"/>
<path d="M173.554 45.9795H154.422V70.4782H173.554V45.9795Z" fill="white"/>
<path d="M172.916 46.7959H155.06V69.6614H172.916V46.7959Z" fill="#B3E0FF"/>
<path d="M158.376 57.3291H156.718V67.8483H158.376V57.3291Z" fill="#6DB9F3"/>
<path d="M161.097 61.3203H159.439V67.8488H161.097V61.3203Z" fill="white"/>
<path d="M163.818 58.3213H162.16V67.8487H163.818V58.3213Z" fill="#0388E2"/>
<path d="M166.539 60.9043H164.881V67.848H166.539V60.9043Z" fill="#6DB9F3"/>
<g opacity="0.3">
<g opacity="0.3">
<path opacity="0.3" d="M92.1996 56.8301H79.5237V71.6275H92.1996V56.8301Z" fill="white"/>
</g>
</g>
<g opacity="0.3">
<g opacity="0.3">
<path opacity="0.3" d="M102.082 54.7158H94.5341V64.5395H102.082V54.7158Z" fill="white"/>
</g>
</g>
<g opacity="0.5">
<g opacity="0.5">
<path opacity="0.5" d="M188.649 93.0091H179.36C178.08 93.0091 177.043 91.8836 177.043 90.4949V85.7386C177.043 84.3503 178.08 83.2246 179.36 83.2246H188.649C189.928 83.2246 190.965 84.3503 190.965 85.7386V90.4949C190.965 91.8836 189.928 93.0091 188.649 93.0091Z" fill="#0388E2"/>
</g>
</g>
<g opacity="0.5">
<g opacity="0.5">
<path opacity="0.5" d="M92.6843 83.2246H83.3957C82.1163 83.2246 81.0792 84.3503 81.0792 85.7388V90.4951C81.0792 91.8836 82.1163 93.0091 83.3957 93.0091H90.3651L92.1118 95.6368L92.0984 93.0091H92.6843C93.9638 93.0091 95.001 91.8836 95.001 90.4951V85.7388C95.001 84.3503 93.9638 83.2246 92.6843 83.2246Z" fill="#0388E2"/>
</g>
</g>
<g opacity="0.5">
<g opacity="0.5">
<path opacity="0.5" d="M133.494 166.405C133.494 166.405 138.743 162.513 139.268 152.159L148.948 153.186C148.948 153.186 148.334 164.128 143.492 170.286L133.494 166.405Z" fill="#0388E2"/>
</g>
</g>
<g opacity="0.5">
<g opacity="0.5">
<path opacity="0.5" d="M150.289 159.78L154.674 157.002C154.674 157.002 156.041 160.718 159.033 162.041L155.541 165.817C155.541 165.817 151.943 163.852 150.289 159.78Z" fill="#0388E2"/>
</g>
</g>
<path d="M168.312 139.788L170.747 145.632H174.385L171.141 139.447L168.312 139.788Z" fill="#6DB9F3"/>
<path d="M172.416 141.994L169.638 144.155L168.063 140.264L171.644 139.725L172.416 141.994Z" fill="black"/>
<path d="M170.489 139.617L172.455 144.909C172.617 145.346 173.008 145.632 173.442 145.632H182.735C182.735 145.236 182.459 144.903 182.095 144.865C180.322 144.68 175.361 143.727 173.54 138.824L170.489 139.617Z" fill="#78C8FF"/>
<path d="M171.348 142.229L174.385 140.316L173.763 138.917L169.896 139.725L171.348 142.229Z" fill="black"/>
<path d="M131.653 42.1352L130.918 41.1444L131.109 39.6751C131.366 37.6987 130.097 35.8708 128.276 35.5923L127.531 35.4786C126.239 35.2808 125.044 36.2577 124.862 37.6603L124.818 43.6445L123.875 48.731H128.917L128.432 44.8025L129.204 44.9329C129.866 45.034 130.478 44.5337 130.572 43.8154L130.757 42.3855H131.543C131.662 42.3855 131.728 42.2357 131.653 42.1352Z" fill="#FFD8CC"/>
<path d="M124.187 47.0488L123.902 48.5893L128.872 48.3651L128.757 47.4362L124.187 47.0488Z" fill="#B3E0FF"/>
<path d="M115.858 65.5557L122.683 68.3653L122.278 70.14L114.646 68.9976L115.858 65.5557Z" fill="#FFD8CC"/>
<path d="M144.579 46.804C144.579 46.804 137.969 41.9232 137.167 42.0476C136.365 42.1719 136.637 42.576 135.692 42.6382C134.746 42.7005 134.087 42.0943 133.6 41.83C133.114 41.5656 133.6 41.4414 133.83 41.4491C134.059 41.4569 135.928 42.2963 135.606 41.76C135.283 41.2238 133.543 41.317 133.436 40.8973C133.328 40.4777 134.023 39.5917 134.897 39.545C135.77 39.4984 138.499 39.9959 139.559 40.431C140.619 40.8662 147.071 43.9362 147.071 43.9362L144.579 46.804Z" fill="#FFD8CC"/>
<path d="M132.363 68.2539C132.432 68.2539 132.492 68.3084 132.504 68.383C132.504 68.383 135.117 81.0282 134.979 84.6786C134.818 88.9142 136.257 91.1651 136.605 93.3243C136.76 94.2931 136.77 97.5323 137.022 98.477C137.831 101.522 139.229 105.061 139.229 105.061C139.237 105.108 138.583 106.325 138.554 106.361L134.017 111.962C134.016 111.962 134.016 111.963 134.016 111.963C134.018 111.921 134.239 107.414 132.927 105.372C131.61 103.32 130.808 103.071 131.037 99.4343C131.266 95.7971 129.017 95.3541 129.39 92.1522C129.762 88.9502 129.21 88.5546 128.505 86.7356C127.525 84.2071 127.405 82.8065 127.076 80.9567C126.998 81.484 126.242 85.5853 125.64 86.891C124.77 88.7804 124.706 90.3879 124.592 92.2222C124.477 94.0563 124.19 95.0821 123.331 97.2272C122.472 99.3722 123.789 101.828 123.073 104.222C122.358 106.611 120.559 113.676 120.552 113.703C120.552 113.703 120.552 113.703 120.552 113.703L115.225 108.232C115.224 108.232 115.224 108.232 115.224 108.232C115.227 108.225 116.22 105.811 116.091 103.274C115.962 100.732 117.509 99.3101 117.487 97.9345C117.466 96.5588 117.079 93.9941 118.089 91.3828C119.099 88.7715 118.712 87.6057 118.669 84.598C118.626 81.5918 119.115 76.482 121.364 68.2539H132.363V68.2539Z" fill="#0388E2"/>
<path d="M115.858 65.5564L114.646 68.9984C114.646 68.9984 107.591 68.5563 105.772 65.5564C103.719 62.1703 107.061 59.3079 108.479 57.7225C109.897 56.137 113.62 52.9598 117.229 49.9756L118.905 58.3223L111.58 63.0397C111.375 63.1717 111.395 63.501 111.615 63.6022L115.858 65.5564Z" fill="#B3E0FF"/>
<path d="M127.877 38.6653C127.897 38.5808 127.979 38.5342 128.054 38.5653C128.481 38.7412 129.814 39.209 131.124 38.7988C132.713 38.3016 132.67 36.5919 132.226 36.1256C131.782 35.6593 131.338 36.1256 131.151 35.5815C130.965 35.0374 130.607 34.2913 129.705 34.4312C128.802 34.5711 128.573 34.7576 127.456 34.9287C126.339 35.0997 125.68 35.1463 125.164 35.8924C124.649 36.6385 124.592 36.483 124.147 36.7784C123.703 37.0737 123.267 37.5711 123.546 39.4597C123.825 41.3482 124.341 43.5399 125.007 43.6332C125.611 43.7176 126.551 42.6701 126.937 41.8308C126.983 41.7312 126.908 41.6316 126.806 41.6241C126.079 41.571 125.904 40.8612 125.845 40.3224C125.78 39.7395 126.027 39.0049 126.779 39.1682C127.111 39.2402 127.284 39.494 127.374 39.7553C127.419 39.8874 127.596 39.8736 127.627 39.7369L127.877 38.6653Z" fill="#0388E2"/>
<path d="M152.515 125.035H136.337C134.36 125.035 132.756 123.295 132.756 121.149C132.756 119.003 134.36 117.263 136.337 117.263H152.515C154.493 117.263 156.096 119.003 156.096 121.149C156.096 123.295 154.493 125.035 152.515 125.035Z" fill="white"/>
<path d="M152.442 125.035H136.411V125.64H137.898L136.476 145.554C136.464 145.721 136.586 145.864 136.74 145.864H136.98C137.115 145.864 137.228 145.753 137.243 145.607L139.211 125.64H149.642L151.61 145.607C151.625 145.753 151.738 145.864 151.873 145.864H152.113C152.267 145.864 152.389 145.721 152.376 145.554L150.954 125.64H152.442V125.035H152.442Z" fill="#03D7ED"/>
<path d="M123.948 47.5674L128.816 47.9145L123.419 49.1217L123.948 47.5674Z" fill="black"/>
<path d="M116.476 60.2658C116.476 60.2658 116.615 54.3903 116.758 53.2402L118.905 59.7995L116.476 60.2658Z" fill="black"/>
<path d="M135.277 47.7878C135.277 47.7878 120.28 47.5972 117.229 49.9754C114.179 52.3535 121.376 68.2545 121.376 68.2545H132.483C132.483 68.2545 136.781 57.2539 135.277 47.7878Z" fill="#B3E0FF"/>
<path d="M135.302 47.7892C133.778 47.7058 132.483 49.0305 132.511 50.6874C132.511 50.7038 132.512 50.7202 132.512 50.7368C132.568 52.815 133.981 56.1111 135.992 56.0122C137.024 55.9615 137.908 55.5472 138.841 55.1395C139.771 54.7332 140.769 54.7291 141.75 54.8869C144.071 55.26 144.042 53.3948 146.706 53.3948C149.073 53.3948 151.776 51.9647 151.658 49.0163C151.604 47.6739 150.974 46.5544 149.998 45.754C149.328 45.2047 148.585 44.7608 147.844 44.3361L147.071 43.9365L144.579 46.8043C144.579 46.8043 145.096 47.2477 145.364 47.4805C145.718 47.7886 146.893 48.685 144.064 48.5297C141.407 48.3836 137.611 47.9154 135.302 47.7892Z" fill="#05BFDD"/>
<path d="M132.914 52.3389C132.914 52.3389 133.229 55.603 135.292 58.3699L136.266 54.5771L132.914 52.3389Z" fill="black"/>
<path d="M135.302 47.7892C133.778 47.7058 132.483 49.0305 132.511 50.6874C132.511 50.7038 132.512 50.7202 132.512 50.7368C132.568 52.815 133.981 56.1111 135.992 56.0122C137.024 55.9615 137.908 55.5472 138.841 55.1395C139.771 54.7332 140.769 54.7291 141.75 54.8869C144.071 55.26 144.042 53.3948 146.706 53.3948C149.073 53.3948 151.776 51.9647 151.658 49.0163C151.604 47.6739 150.974 46.5544 149.998 45.754C149.328 45.2047 148.585 44.7608 147.844 44.3361L147.071 43.9365L144.579 46.8043C144.579 46.8043 145.096 47.2477 145.364 47.4805C145.718 47.7886 146.893 48.685 144.064 48.5297C141.407 48.3836 137.611 47.9154 135.302 47.7892Z" fill="#B3E0FF"/>
<path d="M127.076 80.9575C127.076 80.9575 126.655 79.0743 126.569 77.792C125.56 82.2686 126.44 84.3903 126.44 84.3903L127.076 81.7789V80.9575Z" fill="black"/>
<path d="M151.566 118.271C151.516 119.416 146.96 120.112 141.389 119.827C135.819 119.542 131.343 118.382 131.393 117.237C131.443 116.092 135.999 115.396 141.57 115.681C147.14 115.967 151.616 117.126 151.566 118.271Z" fill="black"/>
<g opacity="0.5">
<g opacity="0.5">
<path opacity="0.5" d="M131.213 115.584H130.87V126.309H131.213V115.584Z" fill="#0388E2"/>
<path opacity="0.5" d="M132.349 115.584H132.006V126.309H132.349V115.584Z" fill="#0388E2"/>
<path opacity="0.5" d="M133.485 115.584H133.142V126.309H133.485V115.584Z" fill="#0388E2"/>
<path opacity="0.5" d="M133.485 115.584H133.142V126.309H133.485V115.584Z" fill="#0388E2"/>
<path opacity="0.5" d="M134.621 115.584H134.278V126.309H134.621V115.584Z" fill="#0388E2"/>
<path opacity="0.5" d="M133.485 115.584H133.142V126.309H133.485V115.584Z" fill="#0388E2"/>
<path opacity="0.5" d="M135.758 115.584H135.414V126.309H135.758V115.584Z" fill="#0388E2"/>
<path opacity="0.5" d="M136.81 115.584H136.467V126.309H136.81V115.584Z" fill="#0388E2"/>
<path opacity="0.5" d="M137.947 115.584H137.603V126.309H137.947V115.584Z" fill="#0388E2"/>
<path opacity="0.5" d="M139.083 115.584H138.739V126.309H139.083V115.584Z" fill="#0388E2"/>
<path opacity="0.5" d="M140.219 115.584H139.875V126.309H140.219V115.584Z" fill="#0388E2"/>
<path opacity="0.5" d="M140.219 115.584H139.875V126.309H140.219V115.584Z" fill="#0388E2"/>
<path opacity="0.5" d="M141.355 115.584H141.011V126.309H141.355V115.584Z" fill="#0388E2"/>
<path opacity="0.5" d="M140.219 115.584H139.875V126.309H140.219V115.584Z" fill="#0388E2"/>
<path opacity="0.5" d="M142.448 115.584H142.104V126.309H142.448V115.584Z" fill="#0388E2"/>
<path opacity="0.5" d="M143.501 115.584H143.157V126.309H143.501V115.584Z" fill="#0388E2"/>
<path opacity="0.5" d="M144.637 115.584H144.293V126.309H144.637V115.584Z" fill="#0388E2"/>
<path opacity="0.5" d="M145.773 115.584H145.429V126.309H145.773V115.584Z" fill="#0388E2"/>
<path opacity="0.5" d="M146.909 115.584H146.565V126.309H146.909V115.584Z" fill="#0388E2"/>
<path opacity="0.5" d="M146.909 115.584H146.565V126.309H146.909V115.584Z" fill="#0388E2"/>
<path opacity="0.5" d="M148.045 115.584H147.702V126.309H148.045V115.584Z" fill="#0388E2"/>
<path opacity="0.5" d="M146.909 115.584H146.565V126.309H146.909V115.584Z" fill="#0388E2"/>
<path opacity="0.5" d="M149.181 115.584H148.837V126.309H149.181V115.584Z" fill="#0388E2"/>
<path opacity="0.5" d="M150.234 115.584H149.89V126.309H150.234V115.584Z" fill="#0388E2"/>
<path opacity="0.5" d="M151.37 115.584H151.026V126.309H151.37V115.584Z" fill="#0388E2"/>
<path opacity="0.5" d="M152.506 115.584H152.163V126.309H152.506V115.584Z" fill="#0388E2"/>
<path opacity="0.5" d="M153.642 115.584H153.298V126.309H153.642V115.584Z" fill="#0388E2"/>
<path opacity="0.5" d="M153.642 115.584H153.298V126.309H153.642V115.584Z" fill="#0388E2"/>
<path opacity="0.5" d="M154.778 115.584H154.435V126.309H154.778V115.584Z" fill="#0388E2"/>
<path opacity="0.5" d="M153.642 115.584H153.298V126.309H153.642V115.584Z" fill="#0388E2"/>
<path opacity="0.5" d="M155.872 115.584H155.528V126.309H155.872V115.584Z" fill="#0388E2"/>
<path opacity="0.5" d="M156.925 115.584H156.581V126.309H156.925V115.584Z" fill="#0388E2"/>
<path opacity="0.5" d="M158.061 115.584H157.717V126.309H158.061V115.584Z" fill="#0388E2"/>
</g>
</g>
<path d="M166.943 113.105H154.361C154.181 113.105 154.035 112.946 154.035 112.751C154.035 112.556 154.181 112.397 154.361 112.397H166.943C167.123 112.397 167.269 112.556 167.269 112.751C167.269 112.946 167.123 113.105 166.943 113.105Z" fill="white"/>
<path d="M166.794 112.927L174.154 99.5424C174.208 99.4441 174.326 99.3643 174.416 99.3643H176.576C176.666 99.3643 176.696 99.4441 176.642 99.5424L169.282 112.927C169.228 113.025 169.11 113.105 169.02 113.105H166.86C166.77 113.105 166.74 113.025 166.794 112.927Z" fill="white"/>
<path d="M155.016 109.534L160.859 109.41C160.859 109.41 160.859 109.41 160.859 109.41C160.864 109.405 163.997 107.829 164.798 109.27C165.202 109.996 165.6 111.182 165.371 111.598C165.044 112.19 163.747 110.102 163.747 110.102C163.747 110.102 161.217 111.197 159.985 111.383C158.759 111.569 154.978 112.001 154.944 112.005C154.943 112.005 154.943 112.005 154.943 112.005L155.015 109.535C155.015 109.535 155.015 109.534 155.016 109.534Z" fill="#FFB69C"/>
<path d="M166.676 82.4547L166.169 81.3171C165.6 80.0422 164.187 79.5088 163.012 80.126L157.103 83.2347L154.213 84.8303L156.421 89.3742L158.938 87.3494L159.561 88.7469C159.852 89.3999 160.576 89.6732 161.178 89.3572L163.071 88.3628L163.515 88.991C163.588 89.0936 163.737 89.0593 163.765 88.9338L164.003 87.8734L165.129 87.2819C166.784 86.4125 167.477 84.2513 166.676 82.4547Z" fill="#FFB69C"/>
<path d="M151.354 118.96C151.354 118.96 159.632 118.027 160.921 119.955C162.211 121.882 162.325 124.214 162.812 126.607C163.299 129.001 164.531 129.032 164.789 130.991C165.046 132.949 164.416 133.446 165.791 135.716C167.166 137.985 167.711 140.628 167.711 140.628L175.473 139.571C175.473 139.571 170.604 124.835 169.744 122.162C169.256 120.644 168.833 119.102 168.318 117.594C168.077 116.891 167.811 116.203 167.52 115.524C167.207 114.79 166.902 113.949 166.243 113.499C165.648 113.093 164.968 113.111 164.294 113.103C163.51 113.093 162.725 113.084 161.941 113.074C159.146 113.041 156.352 113.001 153.558 112.992C153.511 112.992 153.463 112.991 153.416 112.991L151.354 118.96Z" fill="#022960"/>
<path d="M151.354 118.96C151.354 118.96 136.071 120.592 133.966 114.67C131.894 108.842 143.848 82.1215 152.786 85.3856L154.591 84.6162L156.648 89.1931L155.785 89.942L149.144 110.932L154.98 110.726C154.98 110.726 154.791 115.385 151.354 118.96Z" fill="#05BFDD"/>
<path d="M152.442 125.035H136.411V125.64H137.898L136.476 145.554C136.464 145.721 136.586 145.864 136.74 145.864H136.98C137.115 145.864 137.228 145.753 137.243 145.607L139.211 125.64H149.642L151.61 145.607C151.625 145.753 151.738 145.864 151.873 145.864H152.113C152.267 145.864 152.389 145.721 152.376 145.554L150.954 125.64H152.442V125.035H152.442Z" fill="#0388E2"/>
<path d="M155.016 109.534L160.859 109.41C160.859 109.41 160.859 109.41 160.859 109.41C160.864 109.405 163.997 107.829 164.798 109.27C165.202 109.996 165.6 111.182 165.371 111.598C165.044 112.19 163.747 110.102 163.747 110.102C163.747 110.102 161.217 111.197 159.985 111.383C158.759 111.569 154.978 112.001 154.944 112.005C154.943 112.005 154.943 112.005 154.943 112.005L155.015 109.535C155.015 109.535 155.015 109.534 155.016 109.534Z" fill="#FFD8CC"/>
<path d="M166.676 82.4547L166.169 81.3171C165.6 80.0422 164.187 79.5088 163.012 80.126L157.103 83.2347L154.213 84.8303L156.421 89.3742L158.938 87.3494L159.561 88.7469C159.852 89.3999 160.576 89.6732 161.178 89.3572L163.071 88.3628L163.515 88.991C163.588 89.0936 163.737 89.0593 163.765 88.9338L164.003 87.8734L165.129 87.2819C166.784 86.4125 167.477 84.2513 166.676 82.4547Z" fill="#FFD8CC"/>
<path d="M151.354 118.96C151.354 118.96 159.632 118.027 160.921 119.955C162.211 121.882 162.325 124.214 162.812 126.607C163.299 129.001 164.531 129.032 164.789 130.991C165.046 132.949 164.416 133.446 165.791 135.716C167.166 137.985 167.711 140.628 167.711 140.628L175.473 139.571C175.473 139.571 170.604 124.835 169.744 122.162C169.256 120.644 168.833 119.102 168.318 117.594C168.077 116.891 167.811 116.203 167.52 115.524C167.207 114.79 166.902 113.949 166.243 113.499C165.648 113.093 164.968 113.111 164.294 113.103C163.51 113.093 162.725 113.084 161.941 113.074C159.146 113.041 156.352 113.001 153.558 112.992C153.511 112.992 153.463 112.991 153.416 112.991L151.354 118.96Z" fill="#0388E2"/>
<path d="M151.354 118.96C151.354 118.96 136.071 120.592 133.966 114.67C131.894 108.842 143.848 82.1215 152.786 85.3856L154.591 84.6162L156.648 89.1931L155.785 89.942L149.144 110.932L154.98 110.726C154.98 110.726 154.791 115.385 151.354 118.96Z" fill="white"/>
<path d="M157.748 81.3124C157.748 81.3124 156.591 86.9114 163.34 86.0025C170.089 85.0934 166.769 79.5361 163.876 78.7053C162.024 78.1737 160.069 78.9502 160.069 78.9502C160.069 78.9502 160.524 75.6975 157.452 76.9518C154.38 78.2062 155.146 81.5729 157.748 81.3124Z" fill="#0388E2"/>
<path d="M154.771 114.482C154.771 114.482 146.113 114.422 145.028 112.338L155.144 111.809L154.771 114.482Z" fill="black"/>
<path d="M156.247 118.742C156.247 118.742 161.188 118.617 162.047 119.549C162.907 120.482 163.694 121.135 164.146 124.236C164.597 127.337 164.339 127.15 165.886 128.992C167.433 130.834 166.853 131.114 167.239 133.095C167.626 135.077 168.292 136.15 168.292 136.15C168.292 136.15 166.76 134.735 166.602 133.305C166.444 131.875 166.831 131.02 166.036 130.134C165.241 129.248 163.609 128.596 163.286 124.329C162.964 120.062 157.636 121.857 157.636 121.857L156.247 118.742Z" fill="black"/>
<path d="M104.292 39.0479H103.948V74.8831H104.292V39.0479Z" fill="white"/>
<path d="M105.428 39.0479H105.084V74.8831H105.428V39.0479Z" fill="white"/>
<path d="M106.564 39.0479H106.22V74.8831H106.564V39.0479Z" fill="white"/>
<path d="M107.7 39.0479H107.356V74.8831H107.7V39.0479Z" fill="white"/>
<path d="M107.7 39.0479H107.356V74.8831H107.7V39.0479Z" fill="white"/>
<path d="M108.836 39.0479H108.492V74.8831H108.836V39.0479Z" fill="white"/>
<path d="M107.7 39.0479H107.356V74.8831H107.7V39.0479Z" fill="white"/>
<path d="M109.929 39.0479H109.586V74.8831H109.929V39.0479Z" fill="white"/>
<path d="M110.982 39.0479H110.639V74.8831H110.982V39.0479Z" fill="white"/>
<path d="M112.118 39.0479H111.775V74.8831H112.118V39.0479Z" fill="white"/>
<path d="M113.254 39.0479H112.911V74.8831H113.254V39.0479Z" fill="white"/>
<path d="M114.39 39.0479H114.047V74.8831H114.39V39.0479Z" fill="white"/>
<path d="M114.39 39.0479H114.047V74.8831H114.39V39.0479Z" fill="white"/>
<path d="M115.527 39.0479H115.183V74.8831H115.527V39.0479Z" fill="white"/>
<path d="M114.39 39.0479H114.047V74.8831H114.39V39.0479Z" fill="white"/>
<path d="M116.663 39.0479H116.319V74.8831H116.663V39.0479Z" fill="white"/>
<path d="M117.716 39.0479H117.372V74.8831H117.716V39.0479Z" fill="white"/>
<path d="M118.851 39.0479H118.508V74.8831H118.851V39.0479Z" fill="white"/>
<path d="M119.988 39.0479H119.644V74.8831H119.988V39.0479Z" fill="white"/>
<path d="M121.124 39.0479H120.78V74.8831H121.124V39.0479Z" fill="white"/>
<path d="M121.124 39.0479H120.78V74.8831H121.124V39.0479Z" fill="white"/>
<path d="M122.26 39.0479H121.916V74.8831H122.26V39.0479Z" fill="white"/>
<path d="M121.124 39.0479H120.78V74.8831H121.124V39.0479Z" fill="white"/>
<path d="M123.353 39.0479H123.009V74.8831H123.353V39.0479Z" fill="white"/>
<path d="M124.406 39.0479H124.062V74.8831H124.406V39.0479Z" fill="white"/>
<path d="M125.542 39.0479H125.198V74.8831H125.542V39.0479Z" fill="white"/>
<path d="M126.678 39.0479H126.334V74.8831H126.678V39.0479Z" fill="white"/>
<path d="M127.814 39.0479H127.47V74.8831H127.814V39.0479Z" fill="white"/>
<path d="M127.814 39.0479H127.47V74.8831H127.814V39.0479Z" fill="white"/>
<path d="M128.95 39.0479H128.606V74.8831H128.95V39.0479Z" fill="white"/>
<path d="M127.814 39.0479H127.47V74.8831H127.814V39.0479Z" fill="white"/>
<path d="M130.086 39.0479H129.742V74.8831H130.086V39.0479Z" fill="white"/>
<path d="M131.139 39.0479H130.795V74.8831H131.139V39.0479Z" fill="white"/>
<path d="M132.275 39.0479H131.931V74.8831H132.275V39.0479Z" fill="white"/>
<path d="M133.411 39.0479H133.067V74.8831H133.411V39.0479Z" fill="white"/>
<path d="M134.547 39.0479H134.203V74.8831H134.547V39.0479Z" fill="white"/>
<path d="M134.547 39.0479H134.203V74.8831H134.547V39.0479Z" fill="white"/>
<path d="M135.683 39.0479H135.34V74.8831H135.683V39.0479Z" fill="white"/>
<path d="M134.547 39.0479H134.203V74.8831H134.547V39.0479Z" fill="white"/>
<path d="M136.777 39.0479H136.433V74.8831H136.777V39.0479Z" fill="white"/>
<path d="M137.83 39.0479H137.486V74.8831H137.83V39.0479Z" fill="white"/>
<path d="M138.966 39.0479H138.622V74.8831H138.966V39.0479Z" fill="white"/>
<path d="M140.102 39.0479H139.758V74.8831H140.102V39.0479Z" fill="white"/>
<path d="M141.238 39.0479H140.894V74.8831H141.238V39.0479Z" fill="white"/>
<path d="M141.238 39.0479H140.894V74.8831H141.238V39.0479Z" fill="white"/>
<path d="M142.374 39.0479H142.03V74.8831H142.374V39.0479Z" fill="white"/>
<path d="M141.238 39.0479H140.894V74.8831H141.238V39.0479Z" fill="white"/>
<path d="M143.51 39.0479H143.166V74.8831H143.51V39.0479Z" fill="white"/>
<path d="M144.563 39.0479H144.219V74.8831H144.563V39.0479Z" fill="white"/>
<path d="M145.699 39.0479H145.355V74.8831H145.699V39.0479Z" fill="white"/>
<path d="M146.835 39.0479H146.491V74.8831H146.835V39.0479Z" fill="white"/>
<path d="M147.971 39.0479H147.627V74.8831H147.971V39.0479Z" fill="white"/>
<path d="M147.971 39.0479H147.627V74.8831H147.971V39.0479Z" fill="white"/>
<path d="M149.107 39.0479H148.763V74.8831H149.107V39.0479Z" fill="white"/>
<path d="M147.971 39.0479H147.627V74.8831H147.971V39.0479Z" fill="white"/>
<path d="M150.2 39.0479H149.857V74.8831H150.2V39.0479Z" fill="white"/>
<path d="M151.253 39.0479H150.91V74.8831H151.253V39.0479Z" fill="white"/>
<path d="M152.389 39.0479H152.046V74.8831H152.389V39.0479Z" fill="white"/>
<path d="M138.299 42.7422L137.813 42.5295C137.691 42.4764 137.633 42.3264 137.682 42.1943L138.458 40.1045C138.507 39.9727 138.645 39.9089 138.767 39.9622L139.253 40.1745C139.374 40.228 139.433 40.378 139.384 40.5098L138.608 42.5995C138.559 42.7315 138.42 42.7953 138.299 42.7422Z" fill="#0388E2"/>
<path d="M139.629 40.8005C139.629 41.3349 139.23 41.768 138.738 41.768C138.245 41.768 137.846 41.3349 137.846 40.8005C137.846 40.2661 138.245 39.833 138.738 39.833C139.23 39.833 139.629 40.2659 139.629 40.8005Z" fill="#6DB9F3"/>
<path d="M88.2749 119.991L79.444 116.887L72.2082 105.718L81.0391 108.822L88.2749 119.991Z" fill="white"/>
<path d="M88.2749 119.991L92.1997 115.523L84.9639 104.354L81.0391 108.822L88.2749 119.991Z" fill="#B3E0FF"/>
<path d="M101.031 118.627L92.1996 115.522L84.9639 104.354L93.7948 107.458L101.031 118.627Z" fill="white"/>
<path d="M98.4757 115.961L92.2791 113.782L87.2019 105.945L93.3985 108.124L98.4757 115.961Z" fill="#78C8FF"/>
<path d="M101.031 118.627L104.955 114.158L97.7196 102.989L93.7948 107.458L101.031 118.627Z" fill="#B3E0FF"/>
<path d="M113.786 117.263L104.956 114.158L97.7198 102.989L106.551 106.094L113.786 117.263Z" fill="white"/>
<path d="M139.346 40.7999C139.346 41.1646 139.074 41.4602 138.738 41.4602C138.402 41.4602 138.129 41.1646 138.129 40.7999C138.129 40.4353 138.402 40.1396 138.738 40.1396C139.074 40.1396 139.346 40.4351 139.346 40.7999Z" fill="white"/>
<path d="M109.688 100.869L107.419 92.6279C107.027 91.2064 105.687 90.4114 104.424 90.852L102.34 91.5792C100.561 92.2002 99.5662 94.3275 100.118 96.3306L100.639 98.2217L99.9835 99.7499C99.9196 99.8988 100.037 100.065 100.18 100.027L101.071 99.7941L101.821 102.515C102.021 103.244 102.708 103.651 103.354 103.425L105.092 102.818L105.893 107.331L111.765 106.243L109.688 100.869Z" fill="#FFD8CC"/>
<path d="M109.313 99.5346C109.865 98.4298 109.614 97.0519 109.403 95.8845C109.172 94.6118 108.971 93.3248 108.361 92.1867C107.878 91.2841 106.916 90.7243 105.987 90.5609C104.558 90.3093 102.922 90.4317 101.574 91.0272C101.353 91.125 101.136 91.2387 100.937 91.3831C99.3902 92.5023 98.7027 92.9686 99.333 93.6524C99.7228 94.0754 100.365 94.2056 100.891 94.2614C101.361 94.3112 101.883 94.3209 102.33 94.1308C102.407 94.0982 102.486 94.059 102.569 94.0663C102.656 94.0739 102.734 94.134 102.788 94.2089C103.052 94.5747 103.088 95.1283 103.161 95.568C103.216 95.9011 103.247 96.2378 103.301 96.5707C103.367 96.9805 103.461 98.4158 104.16 98.1315C104.293 98.0774 104.368 97.9239 104.407 97.7755C104.55 97.225 104.406 96.7162 104.602 96.1874C104.756 95.7705 104.959 95.4389 105.504 95.348C106.051 95.2566 106.499 95.5579 106.621 96.1175C106.727 96.6058 106.565 97.0463 106.342 97.4931C106.227 97.7242 106.085 97.8488 105.891 98.006C105.782 98.0933 105.569 98.2407 105.624 98.4311C105.637 98.4744 105.669 98.5072 105.7 98.538C105.977 98.8172 106.251 99.1013 106.558 99.3428C106.727 99.476 106.903 99.5987 107.085 99.7084C107.221 99.7895 107.474 99.986 107.63 99.986C108.017 100.149 108.473 100.243 108.858 100.028C109.066 99.9128 109.21 99.7388 109.313 99.5346Z" fill="#0388E2"/>
<path d="M102.996 100.116L101.547 100.751C101.417 100.808 101.276 100.76 101.237 100.644L101.075 100.168C101.035 100.049 101.118 99.9098 101.255 99.8645L101.793 99.6886C102.12 99.5815 102.463 99.5953 102.743 99.727L103.031 99.8617C103.137 99.912 103.117 100.063 102.996 100.116Z" fill="#0388E2"/>
<path d="M137.684 125.641H139.56H151.549L150.982 126.032L149.289 126.475L139.46 125.962L137.441 126.521L137.684 125.641Z" fill="black"/>
<path d="M155.901 109.229L156.762 112.006L154.07 112.398L153.926 109.306L155.901 109.229Z" fill="black"/>
<path d="M131.774 165.03C131.774 165.03 137.022 161.138 137.547 150.784L147.228 151.811C147.228 151.811 146.613 162.753 141.772 168.911L131.774 165.03Z" fill="#85D3FF"/>
<path d="M150.388 157.838L154.773 155.06C154.773 155.06 156.14 158.776 159.132 160.099L155.64 163.874C155.64 163.874 152.042 161.91 150.388 157.838Z" fill="#85D3FF"/>
<path d="M90.513 91.1673H81.2244C79.9449 91.1673 78.9077 90.0418 78.9077 88.6531V83.8968C78.9077 82.5085 79.9449 81.3828 81.2244 81.3828H90.513C91.7924 81.3828 92.8295 82.5085 92.8295 83.8968V88.6531C92.8295 90.0418 91.7924 91.1673 90.513 91.1673Z" fill="white"/>
<path d="M89.9405 93.7949L89.9262 91.0049H88.0858L89.9405 93.7949Z" fill="white"/>
<path d="M105.753 107.063C105.753 107.063 109.876 105.071 111.616 105.001C113.357 104.931 112.476 106.796 112.476 106.796C112.476 106.796 106.786 107.213 105.753 107.063Z" fill="black"/>
<path d="M123.667 174.531C123.667 173.913 121.07 173.412 117.867 173.412C114.663 173.412 112.066 173.913 112.066 174.531C112.066 175.149 114.663 175.65 117.867 175.65C121.07 175.65 123.667 175.149 123.667 174.531Z" fill="#78C8FF"/>
<path d="M84.2406 120.705C84.2406 120.705 82.0023 118.238 81.7839 117.192C81.5654 116.145 81.5754 115.463 81.0237 114.861C80.4718 114.259 79.0947 112.112 78.9087 112.481C78.7228 112.849 78.9747 113.4 79.4778 114.059C79.9809 114.718 80.4774 115.6 80.0086 115.582C79.5397 115.563 77.065 112.685 76.9177 112.935C76.7701 113.185 76.8029 114.253 77.5477 115.576C78.2924 116.898 79.4752 118.23 79.9745 118.953C80.4737 119.676 82.7749 123.173 82.8146 123.149C82.8543 123.126 84.2406 120.705 84.2406 120.705Z" fill="#FFD8CC"/>
<path d="M108.729 165.837L110.447 171.93H107.382L107.196 171.06C107.196 171.06 106.723 171.744 105.52 171.93C104.317 172.117 98.3875 171.93 98.3875 171.93C98.3875 171.5 98.6907 171.144 99.085 171.107C101.08 170.918 105.883 169.96 104.776 165.153C103.429 159.309 108.729 165.837 108.729 165.837Z" fill="#0388E2"/>
<path d="M95.3721 168.556L96.4395 175.042H93.1764L92.9783 174.116C92.9783 174.116 92.475 174.844 91.1942 175.042C89.9134 175.241 83.6006 175.042 83.6006 175.042C83.6006 174.585 83.9234 174.206 84.3431 174.166C86.4671 173.965 92.3425 172.944 91.1638 167.828C89.7303 161.606 95.3721 168.556 95.3721 168.556Z" fill="#0388E2"/>
<path d="M118.421 174.531L117.213 174.528L116.874 150.073L118.86 150.078L118.421 174.531Z" fill="#ABC6D1"/>
<path d="M89.0688 172.363L96.0383 170.673L96.144 166.345L89.3438 166.142L89.0688 172.363Z" fill="black"/>
<path d="M103.982 168.698L109.396 166.926L108.68 163.569L103.81 163.476L103.982 168.698Z" fill="black"/>
<path d="M96.6687 146.967L103.501 166.318H110.118C110.118 166.318 110.032 164.686 108.442 162.308C106.852 159.93 108.227 158.018 107.153 155.36C106.079 152.702 105.563 149.298 105.563 149.298L113.47 150.324L110.29 139.086C110.29 139.086 87.8172 133.817 85.4969 139.086C83.1765 144.355 90.4812 169.256 90.4812 169.256H97.0697C97.0697 169.256 97.2131 164.904 95.8381 162.79C94.4631 160.676 96.1531 159.697 94.3484 155.827C92.5437 151.956 95.6804 150.464 92.5437 146.594" fill="#0388E2"/>
<path d="M96.6688 146.967L100.375 147.498L107.706 152.004L107.964 156.014C107.954 155.831 107.221 155.29 107.07 155.148C106.736 154.833 106.397 154.525 106.05 154.226C103.813 152.303 101.25 151.271 98.5965 150.237C98.4728 150.189 97.4888 149.935 97.451 149.797C97.451 149.797 96.6976 147.04 96.6688 146.967Z" fill="black"/>
<path d="M92.5438 146.594C92.5438 146.594 94.7152 147.605 94.2568 148.507C93.7986 149.408 90.3037 146.455 90.3037 146.455L92.5438 146.594Z" fill="black"/>
<path d="M111.278 145.506L124.688 123.839C124.688 123.839 123.145 105.054 115.661 105.683C108.19 106.312 104.106 107.24 101.328 108.477C100.706 108.753 100.368 109.443 100.128 110.059C99.8053 110.887 99.9421 111.604 99.8446 112.501C99.741 113.453 99.835 114.425 99.9321 115.374C100.066 116.528 100.288 117.67 100.551 118.797C100.849 120.068 101.202 121.323 101.589 122.565C102.001 123.892 102.451 125.204 102.926 126.505C103.409 127.828 103.918 129.14 104.446 130.443C104.958 131.705 105.487 132.958 106.031 134.204C106.53 135.347 107.041 136.484 107.563 137.615C108.009 138.582 108.462 139.545 108.924 140.503C109.276 141.236 109.634 141.967 109.996 142.694C110.216 143.135 110.437 143.576 110.662 144.014C110.715 144.119 111.224 145.402 111.278 145.506Z" fill="white"/>
<path d="M104.451 112.415C104.451 112.415 104.054 118.399 101.562 123.008L98.6826 117.405L104.451 112.415Z" fill="black"/>
<path d="M118.421 174.531L117.213 174.528L116.874 150.073L118.86 150.078L118.421 174.531Z" fill="#78C8FF"/>
<path d="M116.472 154.989C116.472 154.989 117.446 155.238 118.993 153.994C120.54 152.751 119.995 150.513 119.995 150.513L115.784 151.072L116.472 154.989Z" fill="black"/>
<path d="M155.488 109.091V112.309C155.488 112.309 144.767 114.92 144.724 111.493C144.681 108.065 143.714 106.83 144.316 104.638C144.917 102.446 146.522 102.633 146.722 100.208C146.923 97.7831 146.636 97.752 147.467 96.3842C148.298 95.0162 148.441 95.8246 149.644 92.747C150.847 89.6693 151.964 88.0528 154.399 88.4879C156.834 88.9233 156.132 93.3532 153.554 99.9748C150.976 106.596 150.346 108.259 150.561 108.803C150.776 109.348 155.488 109.091 155.488 109.091Z" fill="white"/>
<path d="M165.42 106.745C165.385 106.745 165.357 106.715 165.356 106.677L165.298 104.146C165.298 104.107 165.326 104.075 165.361 104.074C165.397 104.073 165.426 104.104 165.427 104.143L165.485 106.674C165.486 106.712 165.457 106.745 165.422 106.745H165.42V106.745Z" fill="white"/>
<path d="M166.15 106.83C166.136 106.83 166.123 106.825 166.112 106.816C166.083 106.794 166.077 106.75 166.098 106.719L167.573 104.526C167.594 104.495 167.635 104.488 167.663 104.511C167.692 104.533 167.698 104.577 167.677 104.608L166.202 106.801C166.189 106.82 166.169 106.83 166.15 106.83Z" fill="white"/>
<path d="M164.726 106.913C164.706 106.913 164.687 106.903 164.674 106.884L163.198 104.691C163.177 104.66 163.183 104.616 163.212 104.594C163.241 104.571 163.281 104.578 163.302 104.609L164.778 106.802C164.799 106.833 164.793 106.877 164.764 106.899C164.752 106.908 164.739 106.913 164.726 106.913Z" fill="white"/>
<path d="M100.375 147.498C100.048 147.456 99.8238 147.85 100.008 148.147C101.121 149.939 104.951 153.787 117.036 152.656C119.785 152.399 122.553 151.712 124.995 150.281C126.227 149.559 127.345 148.648 128.316 147.554C129.251 146.502 129.932 145.204 130.503 143.876C131.084 142.526 131.55 141.121 131.928 139.688C132.488 137.567 132.945 135.41 133.233 133.225C133.503 131.187 133.826 128.778 133.299 126.764C132.602 124.097 129.985 123.662 127.762 123.509C124.432 123.279 121.21 124.908 119.279 127.87C116.965 131.42 116.122 135.809 114.053 139.507C112.203 142.814 109.359 145.459 106.062 146.93C104.552 147.605 103.041 147.859 101.408 147.604C101.306 147.588 100.819 147.555 100.375 147.498Z" fill="#022960"/>
<path d="M81.3663 122.441C81.3878 122.371 83.7296 119.479 83.7296 119.479L85.8781 121.718L83.9874 126.124L81.3663 122.441Z" fill="black"/>
<path d="M101.451 108.428C102.543 108.051 104.72 108.191 104.451 112.415C104.161 116.958 100.941 119.644 100.535 121.746C100.129 123.848 100.034 124.846 98.4493 126.516C96.8648 128.186 96.4953 129.112 95.6282 130.893C94.7611 132.675 92.6896 134.567 89.6884 132.282C86.6869 129.997 82.1351 123.657 82.1351 123.657L84.2389 119.168L90.4535 125.081C90.7719 125.384 91.2689 125.273 91.4511 124.859C92.9014 121.559 98.3863 109.488 101.451 108.428Z" fill="white"/>
<path d="M100.375 147.498C100.048 147.456 99.8238 147.85 100.008 148.147C101.121 149.939 104.951 153.787 117.036 152.656C119.785 152.399 122.553 151.712 124.995 150.281C126.227 149.559 127.345 148.648 128.316 147.554C129.251 146.502 129.932 145.204 130.503 143.876C131.084 142.526 131.55 141.121 131.928 139.688C132.488 137.567 132.945 135.41 133.233 133.225C133.503 131.187 133.826 128.778 133.299 126.764C132.602 124.097 129.985 123.662 127.762 123.509C124.432 123.279 121.21 124.908 119.279 127.87C116.965 131.42 116.122 135.809 114.053 139.507C112.203 142.814 109.359 145.459 106.062 146.93C104.552 147.605 103.041 147.859 101.408 147.604C101.306 147.588 100.819 147.555 100.375 147.498Z" fill="#78C8FF"/>
<path d="M130.744 40.2765C130.726 40.2765 130.708 40.2683 130.696 40.2521C129.914 39.2656 129.017 40.0118 128.98 40.0439C128.952 40.0678 128.911 40.0628 128.889 40.032C128.867 40.0018 128.872 39.9577 128.9 39.9339C128.91 39.9251 129.932 39.0734 130.793 40.1611C130.817 40.1903 130.813 40.2344 130.786 40.2595C130.774 40.2711 130.759 40.2765 130.744 40.2765Z" fill="black"/>
<path d="M135.829 56.2485C135.825 56.2485 135.821 56.2481 135.817 56.2472C135.784 56.2403 134.993 56.0642 134.005 55.0178C133.1 54.0596 132.373 51.846 132.733 50.0781C132.983 48.8552 133.708 47.9831 134.83 47.5557C134.864 47.5429 134.901 47.5623 134.913 47.5986C134.925 47.635 134.907 47.6749 134.873 47.6878C133.795 48.0983 133.099 48.9353 132.86 50.1083C132.508 51.8307 133.215 53.9858 134.095 54.9176C135.056 55.9349 135.834 56.1082 135.842 56.1099C135.877 56.1172 135.9 56.1539 135.893 56.1918C135.886 56.2253 135.86 56.2485 135.829 56.2485Z" fill="black"/>
<path d="M117.779 59.1287C117.751 59.1287 117.726 59.1093 117.718 59.0787L116.838 55.8908C116.833 55.8685 116.278 53.718 116.355 51.9546C116.434 50.1605 117.707 49.4994 117.719 49.4931C117.751 49.4763 117.79 49.492 117.805 49.5269C117.82 49.5619 117.806 49.6037 117.774 49.6199C117.762 49.6261 116.559 50.2545 116.484 51.9612C116.408 53.7022 116.957 55.8302 116.962 55.8517L117.841 59.0388C117.851 59.0757 117.832 59.1147 117.798 59.1257C117.791 59.1278 117.785 59.1287 117.779 59.1287Z" fill="black"/>
<path d="M113.357 69.1416C113.349 69.1416 113.341 69.1401 113.333 69.1369C113.3 69.1225 113.284 69.0823 113.297 69.0461L114.801 64.8726C114.813 64.8368 114.851 64.8189 114.884 64.8329C114.917 64.8472 114.934 64.8875 114.92 64.9237L113.417 69.0972C113.407 69.1246 113.382 69.1416 113.357 69.1416Z" fill="black"/>
<path d="M145.261 47.6908C145.245 47.6908 145.229 47.6846 145.217 47.6722C145.191 47.646 145.189 47.6016 145.213 47.5733L148.2 44.076C148.224 44.0478 148.265 44.0461 148.291 44.0723C148.317 44.0984 148.319 44.1428 148.294 44.1711L145.308 47.6684C145.295 47.6833 145.278 47.6908 145.261 47.6908Z" fill="black"/>
<path d="M130.579 43.0591C129.996 43.0591 129.584 42.7978 129.566 42.7855C129.535 42.7657 129.525 42.7228 129.543 42.6898C129.562 42.6566 129.601 42.645 129.632 42.6654C129.636 42.6683 130.11 42.9692 130.739 42.9121C130.774 42.9093 130.806 42.9379 130.809 42.9763C130.812 43.0147 130.785 43.0483 130.75 43.0516C130.692 43.0567 130.635 43.0591 130.579 43.0591Z" fill="black"/>
<path d="M126.436 41.1804C126.422 41.1804 126.408 41.1753 126.396 41.1651C126.005 40.8256 125.991 40.0625 126.24 39.6328C126.375 39.4021 126.632 39.3487 126.895 39.4974C126.927 39.5151 126.939 39.5574 126.923 39.5916C126.906 39.6263 126.868 39.6393 126.836 39.6216C126.677 39.5317 126.466 39.5073 126.35 39.7076C126.133 40.0805 126.141 40.765 126.476 41.0558C126.504 41.08 126.508 41.1239 126.486 41.1541C126.474 41.1714 126.455 41.1804 126.436 41.1804Z" fill="black"/>
<path d="M130.229 40.6846C130.229 40.7875 130.152 40.8711 130.057 40.8711C129.962 40.8711 129.885 40.7875 129.885 40.6846C129.885 40.5814 129.962 40.498 130.057 40.498C130.152 40.498 130.229 40.5816 130.229 40.6846Z" fill="black"/>
<path d="M125.868 36.9893C125.863 36.9893 125.858 36.9889 125.854 36.9876C125.819 36.9794 125.797 36.9423 125.804 36.9048C125.813 36.865 126.015 35.9268 127.396 35.4693C127.429 35.457 127.466 35.4786 127.476 35.5157C127.486 35.5527 127.467 35.5916 127.433 35.6028C126.129 36.035 125.932 36.9255 125.93 36.9344C125.924 36.9671 125.897 36.9893 125.868 36.9893Z" fill="black"/>
<path d="M127.142 36.7564C127.126 36.7564 127.11 36.7501 127.098 36.737C127.072 36.7102 127.071 36.666 127.096 36.638C127.133 36.5956 128.041 35.5961 130.121 35.5701C130.151 35.5634 130.186 35.6005 130.186 35.6393C130.186 35.6779 130.158 35.7096 130.122 35.71C128.096 35.7352 127.198 36.7249 127.189 36.735C127.176 36.7491 127.159 36.7564 127.142 36.7564Z" fill="black"/>
<path d="M128.718 37.0518C128.694 37.0518 128.672 37.0378 128.661 37.0135C128.644 36.979 128.657 36.9371 128.689 36.9195C128.722 36.9014 129.511 36.4771 130.807 36.7578C130.842 36.7655 130.865 36.8022 130.858 36.8401C130.851 36.8779 130.817 36.9028 130.782 36.8951C129.529 36.6226 128.755 37.04 128.747 37.0441C128.738 37.0494 128.728 37.0518 128.718 37.0518Z" fill="black"/>
<path d="M138.214 53.621C138.203 53.621 138.192 53.618 138.182 53.6119C136.161 52.3653 135.076 50.5292 135.066 50.5107C135.047 50.4781 135.056 50.435 135.086 50.4145C135.115 50.3934 135.155 50.4031 135.175 50.4361C135.185 50.454 136.254 52.2616 138.246 53.4902C138.277 53.5093 138.288 53.552 138.27 53.5857C138.258 53.6083 138.236 53.621 138.214 53.621Z" fill="black"/>
<path d="M142.941 52.191C142.937 52.191 142.934 52.1906 142.93 52.19C141.126 51.8791 139.871 50.5363 139.858 50.5229C139.833 50.4955 139.833 50.4513 139.858 50.4238C139.883 50.3966 139.924 50.3964 139.949 50.4237C139.962 50.4371 141.189 51.7483 142.951 52.052C142.986 52.058 143.01 52.0938 143.004 52.132C142.999 52.1663 142.972 52.191 142.941 52.191Z" fill="black"/>
<path d="M111.676 61.8628C111.659 61.8628 111.642 61.8559 111.63 61.8421C110.772 60.9005 109.837 58.7919 109.797 58.7027C109.782 58.6679 109.795 58.6259 109.827 58.6095C109.86 58.5927 109.898 58.6074 109.913 58.6421C109.923 58.6639 110.879 60.8188 111.722 61.7436C111.746 61.7712 111.746 61.8154 111.721 61.8427C111.708 61.8561 111.692 61.8628 111.676 61.8628Z" fill="black"/>
<path d="M109.587 61.7636C109.583 61.7636 109.58 61.7632 109.576 61.7627C108.193 61.5077 107.101 60.7161 107.09 60.7081C107.06 60.6866 107.053 60.643 107.072 60.6109C107.093 60.5788 107.132 60.5704 107.162 60.5922C107.173 60.6001 108.243 61.3749 109.597 61.6246C109.633 61.6312 109.656 61.6672 109.65 61.7054C109.645 61.7395 109.618 61.7636 109.587 61.7636Z" fill="black"/>
<path d="M123.381 66.7706C123.357 66.7706 123.334 66.7564 123.323 66.7318C122.073 64.0106 121.201 60.011 121.193 59.9708C121.185 59.9332 121.206 59.8955 121.241 59.8867C121.276 59.8776 121.31 59.9013 121.318 59.9388C121.327 59.9789 122.195 63.9628 123.439 66.6695C123.455 66.704 123.441 66.7459 123.41 66.7633C123.4 66.7681 123.391 66.7706 123.381 66.7706Z" fill="black"/>
<path d="M128.101 66.7057C128.078 66.7057 128.055 66.6919 128.043 66.6678C127.119 64.7202 126.727 61.7335 126.724 61.7037C126.719 61.6655 126.743 61.63 126.779 61.6248C126.814 61.619 126.847 61.6462 126.851 61.6843C126.855 61.714 127.244 64.6776 128.158 66.6037C128.174 66.6382 128.162 66.6801 128.13 66.6979C128.121 66.7031 128.111 66.7057 128.101 66.7057Z" fill="black"/>
<path d="M132.8 69.009H121.026C120.991 69.009 120.962 68.9777 120.962 68.9391C120.962 68.9005 120.991 68.8691 121.026 68.8691H132.8C132.836 68.8691 132.864 68.9005 132.864 68.9391C132.864 68.9777 132.836 69.009 132.8 69.009Z" fill="black"/>
<path d="M122.487 94.9051C122.478 94.9051 122.469 94.9028 122.46 94.8982C119.497 93.3606 119.253 91.5624 119.244 91.4866C119.239 91.4484 119.264 91.4133 119.299 91.4085C119.334 91.4007 119.367 91.4303 119.372 91.4686C119.374 91.4865 119.623 93.2709 122.515 94.7721C122.547 94.7887 122.561 94.8305 122.546 94.8653C122.534 94.8905 122.511 94.9051 122.487 94.9051Z" fill="black"/>
<path d="M133.642 88.0105C133.639 88.0105 133.636 88.0103 133.633 88.0097C130.382 87.5076 129.652 85.8718 129.622 85.8024C129.607 85.7675 129.621 85.7259 129.654 85.7097C129.686 85.6933 129.724 85.7088 129.739 85.7436C129.746 85.7601 130.478 87.3811 133.651 87.8713C133.687 87.8767 133.711 87.9122 133.706 87.9504C133.702 87.9853 133.674 88.0105 133.642 88.0105Z" fill="black"/>
<path d="M120.343 87.6756C120.314 87.6756 120.287 87.6559 120.279 87.6251C120.27 87.5891 120.286 87.5523 120.319 87.5404C120.342 87.5318 120.375 87.5305 120.467 87.5274C121.996 87.4768 123.384 86.7809 124.59 85.4592C124.615 85.4318 124.656 85.4316 124.681 85.4586C124.707 85.4859 124.707 85.5302 124.682 85.5577C123.451 86.9057 122.034 87.6154 120.47 87.6672C120.421 87.6689 120.37 87.6706 120.358 87.6736C120.353 87.6749 120.348 87.6756 120.343 87.6756Z" fill="black"/>
<path d="M118.782 102.315C117.968 102.315 117.428 102.085 117.417 102.081C117.384 102.066 117.368 102.025 117.382 101.99C117.395 101.954 117.432 101.936 117.465 101.951C117.485 101.96 119.479 102.802 121.572 101.166C121.601 101.144 121.641 101.151 121.662 101.182C121.682 101.214 121.676 101.257 121.647 101.28C120.593 102.104 119.562 102.315 118.782 102.315Z" fill="black"/>
<path d="M131.434 94.8321C131.401 94.8321 131.373 94.805 131.37 94.769C131.366 94.7308 131.392 94.6963 131.428 94.6925C131.449 94.6901 133.567 94.4318 135.12 92.0174C135.14 91.9855 135.18 91.9777 135.209 92.0001C135.239 92.0225 135.246 92.0659 135.225 92.0976C133.637 94.5668 131.462 94.8293 131.441 94.8317C131.438 94.8319 131.436 94.8321 131.434 94.8321Z" fill="black"/>
<path d="M135.473 101.832C132.982 101.832 131.967 100.066 131.956 100.047C131.938 100.014 131.948 99.9709 131.978 99.9508C132.008 99.9304 132.048 99.9411 132.067 99.9743C132.078 99.9942 133.197 101.941 136.002 101.666C136.038 101.661 136.069 101.691 136.072 101.73C136.075 101.768 136.049 101.802 136.013 101.806C135.826 101.824 135.645 101.832 135.473 101.832Z" fill="black"/>
<path d="M148.223 113.442C147.648 113.442 144.825 113.345 144.659 111.442C144.524 109.905 144.363 108.749 144.233 107.82C144.196 107.554 144.161 107.304 144.13 107.068C144.045 106.429 143.877 104.236 145.246 102.86L145.277 102.829C146.475 101.625 146.691 101.408 146.738 98.8692C146.776 96.8145 147.618 95.9503 148.121 95.4339C148.26 95.291 148.381 95.1675 148.452 95.0537C148.749 94.5781 149.131 93.6557 149.764 92.1274L150.059 91.4148C150.667 89.9519 152.31 88.0132 154.064 88.2844C155.769 88.5478 155.963 90.1401 155.965 90.1562C155.969 90.1944 155.944 90.2293 155.909 90.2338C155.871 90.2388 155.841 90.211 155.837 90.1728C155.83 90.1116 155.651 88.6707 154.046 88.4228C152.36 88.1643 150.768 90.0493 150.177 91.4725L149.881 92.1846C149.246 93.7201 148.862 94.6465 148.559 95.1324C148.479 95.2587 148.354 95.3868 148.21 95.5355C147.69 96.0692 146.904 96.8761 146.867 98.8722C146.819 101.47 146.569 101.722 145.365 102.932L145.334 102.962C144.011 104.292 144.176 106.426 144.258 107.048C144.289 107.284 144.324 107.533 144.361 107.799C144.491 108.73 144.653 109.888 144.788 111.429C144.957 113.374 148.284 113.303 148.317 113.301H148.319C148.354 113.301 148.383 113.331 148.384 113.369C148.384 113.408 148.356 113.44 148.321 113.441C148.309 113.441 148.275 113.442 148.223 113.442Z" fill="black"/>
<path d="M148.342 97.6469H148.341C148.305 97.6467 148.277 97.6152 148.277 97.5766C148.277 97.5381 148.306 97.507 148.341 97.507H148.343C148.415 97.507 151.729 97.4842 153.604 95.1046C153.627 95.0755 153.668 95.0715 153.695 95.0969C153.722 95.1221 153.726 95.1661 153.702 95.1956C151.789 97.6234 148.42 97.6469 148.342 97.6469Z" fill="black"/>
<path d="M149.429 107.076C149.425 107.076 149.422 107.075 149.418 107.075C146.862 106.609 145.775 104.683 145.764 104.663C145.746 104.63 145.756 104.587 145.786 104.568C145.817 104.548 145.856 104.558 145.875 104.592C145.885 104.61 146.944 106.482 149.439 106.937C149.475 106.943 149.498 106.979 149.492 107.018C149.487 107.052 149.46 107.076 149.429 107.076Z" fill="black"/>
<path d="M146.072 111.671C146.042 111.671 146.015 111.649 146.009 111.616C146.001 111.578 146.023 111.541 146.058 111.532C146.08 111.527 148.322 110.967 149.378 109.527C149.4 109.497 149.441 109.492 149.469 109.516C149.497 109.54 149.501 109.584 149.479 109.614C148.394 111.093 146.109 111.663 146.086 111.669C146.081 111.67 146.076 111.671 146.072 111.671Z" fill="black"/>
<path d="M154.358 88.4879C154.335 88.4879 154.312 88.4744 154.301 88.4505L152.659 85.075C152.642 85.0411 152.654 84.9986 152.686 84.9805C152.717 84.9631 152.756 84.9754 152.773 85.0099L154.415 88.3853C154.432 88.4194 154.42 88.4617 154.388 88.4798C154.379 88.4851 154.368 88.4879 154.358 88.4879Z" fill="black"/>
<path d="M140.446 111.389C138.459 111.389 137.118 110.516 137.101 110.505C137.071 110.485 137.061 110.441 137.08 110.408C137.098 110.375 137.138 110.365 137.168 110.385C137.189 110.399 139.276 111.755 142.097 111.043C142.131 111.033 142.166 111.057 142.175 111.095C142.183 111.132 142.161 111.17 142.126 111.179C141.53 111.33 140.966 111.389 140.446 111.389Z" fill="black"/>
<path d="M140.989 116.075C140.982 116.075 140.975 116.074 140.968 116.072C140.935 116.06 140.916 116.02 140.928 115.983C140.947 115.92 141.012 115.902 141.185 115.852C141.71 115.703 143.107 115.306 144.372 113.222C144.392 113.189 144.432 113.181 144.462 113.202C144.492 113.223 144.5 113.267 144.48 113.299C143.187 115.428 141.756 115.835 141.217 115.988C141.143 116.009 141.066 116.031 141.042 116.045C141.03 116.064 141.01 116.075 140.989 116.075ZM141.05 116.027V116.028V116.027Z" fill="black"/>
<path d="M154.735 112.822C154.7 112.822 154.671 112.79 154.671 112.752V108.918C154.671 108.879 154.7 108.848 154.735 108.848C154.771 108.848 154.8 108.879 154.8 108.918V112.752C154.8 112.79 154.771 112.822 154.735 112.822Z" fill="black"/>
<path d="M169.184 140.697C169.154 140.697 169.128 140.675 169.121 140.643C169.116 140.622 169.006 140.105 168.851 138.442C168.698 136.801 167.634 135.056 167.623 135.038C167.603 135.006 167.611 134.963 167.641 134.941C167.67 134.92 167.71 134.929 167.73 134.961C167.741 134.978 168.823 136.752 168.98 138.428C169.133 140.078 169.246 140.606 169.247 140.611C169.255 140.649 169.234 140.686 169.199 140.695C169.194 140.696 169.189 140.697 169.184 140.697Z" fill="black"/>
<path d="M174.153 145.794H174.152L173.538 145.779C173.089 145.767 172.535 145.379 172.376 144.965L171.111 141.663C171.098 141.628 171.113 141.587 171.146 141.572C171.179 141.557 171.217 141.574 171.231 141.61L172.495 144.911C172.632 145.269 173.15 145.629 173.541 145.639L174.155 145.654C174.19 145.655 174.219 145.687 174.218 145.726C174.217 145.764 174.188 145.794 174.153 145.794Z" fill="black"/>
<path d="M136.144 125.176C136.109 125.176 136.08 125.144 136.08 125.106C136.08 125.067 136.109 125.036 136.144 125.036L152.794 125.023C152.83 125.023 152.859 125.055 152.859 125.093C152.859 125.132 152.83 125.163 152.794 125.163L136.144 125.176Z" fill="black"/>
<path d="M164.755 87.2388C164.721 87.2388 164.692 87.2095 164.691 87.1718C164.651 86.1383 163.753 86.1252 163.715 86.1252C163.679 86.1252 163.65 86.0939 163.65 86.0553C163.65 86.0167 163.679 85.9854 163.715 85.9854C163.725 85.9854 164.774 85.9999 164.82 87.1659C164.821 87.2045 164.794 87.2371 164.758 87.2388H164.755V87.2388Z" fill="black"/>
<path d="M161.946 85.0762C159.704 85.0762 159.507 83.4826 159.506 83.465C159.501 83.4268 159.527 83.3923 159.562 83.3876C159.597 83.3811 159.629 83.4106 159.633 83.4488C159.641 83.5202 159.859 85.1932 162.528 84.9029C162.568 84.8979 162.595 84.9274 162.598 84.9654C162.602 85.004 162.576 85.0384 162.541 85.0421C162.328 85.0652 162.13 85.0762 161.946 85.0762Z" fill="black"/>
<path d="M162.579 83.8625C161.641 83.8625 160.951 83.3617 160.94 83.3541C160.911 83.3322 160.903 83.289 160.923 83.2571C160.943 83.225 160.984 83.2172 161.013 83.2386C161.028 83.2496 162.512 84.3219 164.057 83.2377C164.087 83.217 164.126 83.2261 164.146 83.2584C164.165 83.2908 164.157 83.3341 164.127 83.355C163.585 83.7355 163.051 83.8625 162.579 83.8625Z" fill="black"/>
<path d="M164.003 84.4198C163.967 84.4198 163.938 84.3887 163.938 84.3503C163.938 84.3116 163.967 84.2801 164.002 84.2799C164.015 84.2799 165.309 84.2587 165.832 83.1293C165.848 83.0948 165.887 83.081 165.919 83.0983C165.951 83.1157 165.964 83.1576 165.948 83.1923C165.388 84.3991 164.017 84.4198 164.003 84.4198H164.003V84.4198Z" fill="black"/>
<path d="M162.227 89.0051C162.205 89.0051 162.184 88.9929 162.171 88.9706C161.829 88.3408 161.873 87.7246 161.875 87.6985C161.878 87.6602 161.906 87.633 161.945 87.6349C161.98 87.638 162.006 87.672 162.004 87.7104C162.003 87.7164 161.962 88.3099 162.283 88.8997C162.3 88.9327 162.29 88.9758 162.26 88.9954C162.249 89.0019 162.238 89.0051 162.227 89.0051Z" fill="black"/>
<path d="M164.077 87.3367C163.991 87.3817 163.888 87.3431 163.847 87.2504C163.806 87.1579 163.841 87.0461 163.927 87.0012C164.012 86.9562 164.115 86.9948 164.156 87.0875C164.198 87.1802 164.162 87.2918 164.077 87.3367Z" fill="black"/>
<path d="M166.144 127.049C166.115 127.049 166.089 127.028 166.081 126.997C166.072 126.96 166.093 126.921 166.127 126.911C166.201 126.89 167.951 126.348 168.659 123.17C168.668 123.133 168.703 123.109 168.737 123.118C168.771 123.128 168.793 123.165 168.784 123.203C168.058 126.461 166.238 127.024 166.16 127.046C166.155 127.048 166.149 127.049 166.144 127.049Z" fill="black"/>
<path d="M172.303 134.572H172.3C169.088 134.417 168.383 132.767 168.355 132.697C168.34 132.661 168.355 132.62 168.388 132.604C168.42 132.589 168.458 132.605 168.473 132.64C168.479 132.657 169.182 134.281 172.305 134.432C172.341 134.434 172.368 134.467 172.367 134.506C172.365 134.543 172.337 134.572 172.303 134.572Z" fill="black"/>
<path d="M157.599 81.42C157.582 81.42 157.565 81.4126 157.553 81.398C157.528 81.3697 157.53 81.3255 157.555 81.2992L160.275 78.5317C160.301 78.5051 160.342 78.5067 160.366 78.5347C160.391 78.5631 160.39 78.6073 160.364 78.6338L157.644 81.401C157.631 81.4139 157.615 81.42 157.599 81.42Z" fill="black"/>
<path d="M186.477 91.1673H177.188C175.909 91.1673 174.872 90.0418 174.872 88.6531V83.8968C174.872 82.5085 175.909 81.3828 177.188 81.3828H186.477C187.756 81.3828 188.794 82.5085 188.794 83.8968V88.6531C188.794 90.0418 187.757 91.1673 186.477 91.1673Z" fill="#94D9FF"/>
<path d="M181.764 87.763C181.444 87.763 181.125 87.6384 180.872 87.3903L175.537 82.1401C175.511 82.1143 175.509 82.0701 175.533 82.0414C175.556 82.0128 175.597 82.0108 175.624 82.0367L180.959 87.2868C181.406 87.7261 182.087 87.7359 182.545 87.3097L188.102 82.1261C188.129 82.1007 188.17 82.1039 188.193 82.1335C188.216 82.163 188.213 82.207 188.186 82.2322L182.629 87.4159C182.38 87.6475 182.072 87.763 181.764 87.763Z" fill="white"/>
<path d="M175.137 90.4888C175.121 90.4888 175.104 90.4821 175.092 90.4684C175.066 90.441 175.066 90.3966 175.092 90.3692L179.328 85.7714C179.353 85.7442 179.394 85.7442 179.419 85.7714C179.444 85.7986 179.444 85.8432 179.419 85.8704L175.183 90.4684C175.17 90.4821 175.154 90.4888 175.137 90.4888Z" fill="white"/>
<path d="M188.542 90.52C188.525 90.52 188.509 90.5133 188.496 90.4996L184.26 85.9018C184.235 85.8746 184.235 85.83 184.26 85.8028C184.285 85.7754 184.326 85.7754 184.351 85.8028L188.587 90.4004C188.613 90.4278 188.613 90.4722 188.587 90.4996C188.575 90.5133 188.558 90.52 188.542 90.52Z" fill="white"/>
<path d="M103.345 117.777C103.339 117.777 103.333 117.777 103.327 117.775C103.293 117.764 103.273 117.725 103.283 117.688C103.291 117.656 104.139 114.479 104.306 113.243C104.386 112.65 104.72 109.645 103.441 108.767C102.319 107.996 100.942 108.618 100.928 108.624C100.895 108.639 100.857 108.623 100.844 108.587C100.829 108.552 100.845 108.511 100.877 108.496C100.936 108.468 102.329 107.838 103.51 108.649C104.823 109.55 104.549 112.409 104.433 113.264C104.265 114.509 103.415 117.695 103.407 117.727C103.398 117.757 103.373 117.777 103.345 117.777Z" fill="black"/>
<path d="M98.1242 122.884C98.1067 122.884 98.0893 122.877 98.0766 122.861C96.2294 120.67 96.8083 116.549 96.8145 116.508C96.8202 116.47 96.8532 116.445 96.8882 116.45C96.9233 116.456 96.9474 116.492 96.9417 116.53C96.9357 116.571 96.3666 120.626 98.1718 122.767C98.1959 122.795 98.194 122.84 98.1677 122.866C98.1553 122.878 98.1397 122.884 98.1242 122.884Z" fill="black"/>
<path d="M94.0851 130.625C94.0633 130.625 94.0418 130.613 94.0298 130.591C93.0049 128.737 92.4803 126.165 92.4752 126.14C92.4676 126.102 92.4896 126.065 92.5243 126.056C92.5592 126.048 92.5936 126.072 92.6012 126.11C92.6063 126.135 93.1266 128.685 94.1403 130.519C94.1587 130.552 94.1487 130.595 94.1181 130.615C94.1078 130.621 94.0963 130.625 94.0851 130.625Z" fill="black"/>
<path d="M89.2297 130.625C89.1941 130.625 89.1652 130.593 89.1652 130.555C89.1652 130.538 89.1786 128.877 90.3321 126.327C90.3476 126.293 90.3864 126.278 90.4182 126.295C90.4502 126.312 90.4634 126.354 90.4476 126.389C89.3089 128.906 89.2941 130.539 89.2941 130.555C89.2941 130.593 89.2653 130.625 89.2297 130.625Z" fill="black"/>
<path d="M112.834 136.815C112.823 136.815 112.811 136.812 112.801 136.805C109.619 134.743 107.59 131.993 107.57 131.966C107.548 131.935 107.552 131.892 107.58 131.868C107.608 131.844 107.649 131.849 107.671 131.879C107.691 131.906 109.706 134.637 112.867 136.685C112.898 136.705 112.908 136.748 112.889 136.781C112.877 136.803 112.856 136.815 112.834 136.815Z" fill="black"/>
<path d="M115.224 130.748C115.217 130.748 115.21 130.747 115.204 130.745C111.183 129.287 108.119 125.67 108.088 125.634C108.064 125.605 108.066 125.561 108.092 125.535C108.119 125.509 108.16 125.511 108.183 125.54C108.214 125.576 111.256 129.167 115.245 130.612C115.278 130.624 115.297 130.664 115.285 130.701C115.276 130.73 115.251 130.748 115.224 130.748Z" fill="black"/>
<path d="M88.1982 152.51C88.1642 152.51 88.1358 152.481 88.1339 152.444C88.1321 152.405 88.1592 152.372 88.1948 152.37C88.2261 152.368 91.3324 152.153 92.8995 149.542C92.9189 149.509 92.959 149.5 92.9887 149.521C93.0185 149.542 93.0269 149.586 93.0075 149.618C91.404 152.29 88.2336 152.508 88.2018 152.51C88.2006 152.51 88.1994 152.51 88.1982 152.51Z" fill="black"/>
<path d="M93.2965 158.96C91.0623 158.96 89.2644 157.298 89.2448 157.28C89.2178 157.255 89.2149 157.21 89.2381 157.181C89.2614 157.152 89.3022 157.149 89.329 157.174C89.3499 157.194 91.457 159.138 93.9187 158.774C93.9538 158.769 93.9864 158.796 93.9913 158.834C93.9961 158.872 93.9715 158.908 93.9363 158.913C93.7199 158.945 93.5064 158.96 93.2965 158.96Z" fill="black"/>
<path d="M94.7817 166.073C91.062 166.073 90.0945 163.001 90.0849 162.969C90.0739 162.932 90.0923 162.893 90.1262 162.881C90.1602 162.868 90.1965 162.889 90.2075 162.925C90.2173 162.957 91.2186 166.121 95.1277 165.924C95.1626 165.925 95.1934 165.952 95.1949 165.99C95.1966 166.029 95.1692 166.062 95.1336 166.064C95.0139 166.07 94.8962 166.073 94.7817 166.073Z" fill="black"/>
<path d="M101.948 158.603C101.913 158.603 101.884 158.571 101.884 158.533C101.884 158.494 101.913 158.463 101.948 158.463C101.97 158.463 104.168 158.427 105.79 155.635C105.809 155.603 105.848 155.593 105.879 155.613C105.909 155.634 105.918 155.677 105.899 155.71C104.238 158.569 101.971 158.603 101.948 158.603Z" fill="black"/>
<path d="M107.148 163.705C105.146 163.705 103.467 161.836 103.449 161.815C103.424 161.787 103.425 161.743 103.451 161.716C103.476 161.689 103.517 161.69 103.542 161.718C103.562 161.741 105.605 164.013 107.835 163.485C107.869 163.476 107.904 163.5 107.912 163.539C107.919 163.576 107.897 163.614 107.862 163.622C107.621 163.679 107.382 163.705 107.148 163.705Z" fill="black"/>
<path d="M110.227 165.31H102.922C102.887 165.31 102.858 165.278 102.858 165.24C102.858 165.201 102.887 165.17 102.922 165.17H110.227C110.263 165.17 110.291 165.201 110.291 165.24C110.291 165.278 110.263 165.31 110.227 165.31Z" fill="black"/>
<path d="M97.6516 168.186H89.5734C89.5378 168.186 89.509 168.154 89.509 168.116C89.509 168.077 89.5378 168.046 89.5734 168.046H97.6516C97.6871 168.046 97.716 168.077 97.716 168.116C97.716 168.154 97.6871 168.186 97.6516 168.186Z" fill="black"/>
<path d="M82.4834 125.028C82.4739 125.028 82.4643 125.026 82.4552 125.021C82.4232 125.004 82.41 124.962 82.4256 124.928L84.906 119.425C84.9218 119.391 84.9606 119.376 84.9922 119.393C85.0242 119.41 85.0375 119.452 85.0218 119.487L82.5413 124.989C82.5301 125.014 82.5073 125.028 82.4834 125.028Z" fill="black"/>
<path d="M100.551 97.3521C100.537 97.3521 100.524 97.3476 100.512 97.3381C100.484 97.3149 100.478 97.2711 100.499 97.2401C101.291 96.0923 102.363 96.8678 102.374 96.8759C102.404 96.8977 102.411 96.9412 102.391 96.973C102.371 97.0051 102.331 97.0132 102.301 96.9913C102.262 96.9619 101.319 96.2848 100.602 97.3241C100.59 97.3424 100.57 97.3521 100.551 97.3521Z" fill="black"/>
<path d="M101.413 101.109C101.381 101.109 101.354 101.084 101.349 101.049C101.344 101.011 101.368 100.975 101.404 100.97C102.187 100.846 102.707 100.416 102.713 100.412C102.741 100.388 102.781 100.394 102.803 100.425C102.825 100.455 102.82 100.499 102.791 100.523C102.769 100.541 102.239 100.98 101.422 101.108C101.419 101.109 101.416 101.109 101.413 101.109Z" fill="black"/>
<path d="M101.164 97.6328C101.164 97.7358 101.241 97.8193 101.336 97.8193C101.431 97.8193 101.508 97.7358 101.508 97.6328C101.508 97.5297 101.431 97.4463 101.336 97.4463C101.241 97.4463 101.164 97.5297 101.164 97.6328Z" fill="black"/>
<path d="M105.754 97.6332C105.736 97.6332 105.719 97.6258 105.707 97.6112C105.682 97.5829 105.683 97.5387 105.71 97.5124C105.885 97.3341 106.189 96.9754 106.257 96.5749C106.31 96.2694 106.136 95.9484 105.861 95.8437C105.551 95.726 105.241 95.9495 105.07 96.1771C105.047 96.2071 105.007 96.2114 104.979 96.1871C104.952 96.1627 104.948 96.1187 104.97 96.0886C105.167 95.826 105.53 95.5688 105.904 95.7119C106.237 95.8387 106.448 96.2291 106.384 96.6005C106.309 97.0401 105.984 97.4245 105.798 97.6142C105.785 97.6271 105.769 97.6332 105.754 97.6332Z" fill="black"/>
<path d="M102.915 93.4132C100.956 93.4132 100.38 92.812 100.356 92.7866C100.331 92.7592 100.331 92.7148 100.356 92.6874C100.381 92.6602 100.422 92.6602 100.447 92.6874C100.457 92.6977 101.028 93.2733 102.915 93.2733C102.951 93.2733 102.98 93.3046 102.98 93.3432C102.98 93.3818 102.951 93.4132 102.915 93.4132Z" fill="black"/>
<path d="M103.911 92.4392C102.719 92.4392 101.866 92.0036 101.856 91.9984C101.824 91.9818 101.81 91.9399 101.826 91.9052C101.841 91.8703 101.879 91.8552 101.912 91.8723C101.923 91.8783 103.096 92.4752 104.604 92.248C104.639 92.2424 104.671 92.2694 104.676 92.3075C104.681 92.3457 104.656 92.381 104.621 92.3864C104.375 92.4235 104.137 92.4392 103.911 92.4392Z" fill="black"/>
<path d="M103.708 93.9161C103.676 93.9161 103.649 93.8903 103.645 93.8553C103.64 93.817 103.665 93.7818 103.7 93.7767C103.715 93.7747 105.206 93.5566 105.821 93.0409C105.849 93.0174 105.89 93.023 105.911 93.0534C105.933 93.084 105.928 93.1278 105.9 93.1515C105.258 93.6904 103.78 93.9066 103.717 93.9155C103.714 93.9159 103.711 93.9161 103.708 93.9161Z" fill="black"/>
<path d="M90.2372 84.1484H81.2137C81.1189 84.1484 81.0419 84.0651 81.0419 83.9619C81.0419 83.8588 81.1189 83.7754 81.2137 83.7754H90.2372C90.3321 83.7754 90.4091 83.8588 90.4091 83.9619C90.4091 84.0651 90.3321 84.1484 90.2372 84.1484Z" fill="#6DB9F3"/>
<path d="M90.2372 85.3467H81.2137C81.1189 85.3467 81.0419 85.2633 81.0419 85.1602C81.0419 85.057 81.1189 84.9736 81.2137 84.9736H90.2372C90.3321 84.9736 90.4091 85.057 90.4091 85.1602C90.4091 85.2633 90.3321 85.3467 90.2372 85.3467Z" fill="#6DB9F3"/>
<path d="M90.2372 86.5439H81.2137C81.1189 86.5439 81.0419 86.4606 81.0419 86.3574C81.0419 86.2543 81.1189 86.1709 81.2137 86.1709H90.2372C90.3321 86.1709 90.4091 86.2543 90.4091 86.3574C90.4091 86.4606 90.3321 86.5439 90.2372 86.5439Z" fill="#6DB9F3"/>
<path d="M90.2372 87.7422H81.2137C81.1189 87.7422 81.0419 87.6588 81.0419 87.5557C81.0419 87.4525 81.1189 87.3691 81.2137 87.3691H90.2372C90.3321 87.3691 90.4091 87.4525 90.4091 87.5557C90.4091 87.6588 90.3321 87.7422 90.2372 87.7422Z" fill="#6DB9F3"/>
<path d="M90.2372 88.9395H81.2137C81.1189 88.9395 81.0419 88.8561 81.0419 88.7529C81.0419 88.6498 81.1189 88.5664 81.2137 88.5664H90.2372C90.3321 88.5664 90.4091 88.6498 90.4091 88.7529C90.4091 88.8563 90.3321 88.9395 90.2372 88.9395Z" fill="#6DB9F3"/>
</svg>
