<svg width="52" height="52" viewBox="0 0 52 52" fill="none" xmlns="http://www.w3.org/2000/svg">
<circle cx="26" cy="26" r="24.5" fill="#EE4428" stroke="white" stroke-width="3"/>
<path opacity="0.8" d="M38.9996 25.8V23L36.3364 25.6633C36.2486 25.751 36.1996 25.8691 36.1996 25.9932V27.6102L32.6721 31.1382C32.5447 31.2647 32.4663 31.4397 32.4663 31.6333C32.4663 32.0197 32.7799 32.3333 33.1663 32.3333C33.36 32.3333 33.535 32.2549 33.6624 32.128L37.1894 28.6H38.8064C38.9306 28.6 39.0491 28.551 39.1364 28.4633L41.7996 25.8H38.9996Z" fill="white"/>
<path opacity="0.8" d="M39.7966 29.1229C39.5357 29.3838 39.1759 29.5331 38.8068 29.5331H38.0191C38.3457 30.2438 38.5333 31.0325 38.5333 31.8664C38.5333 34.959 36.0259 37.4664 32.9333 37.4664C29.8407 37.4664 27.3333 34.959 27.3333 31.8664C27.3333 28.7738 29.8407 26.2664 32.9333 26.2664C33.7673 26.2664 34.5559 26.4536 35.2667 26.7807V25.993C35.2667 25.6243 35.416 25.2636 35.6769 25.0032L36.0903 24.5897C35.1225 24.1692 34.0557 23.9331 32.9333 23.9331C28.5518 23.9331 25 27.4849 25 31.8664C25 36.248 28.5518 39.7998 32.9333 39.7998C37.3149 39.7998 40.8667 36.248 40.8667 31.8664C40.8667 30.7441 40.6305 29.6778 40.2101 28.7094L39.7966 29.1229Z" fill="white"/>
<path opacity="0.8" d="M34.3222 32.7877C34.0132 33.0966 33.603 33.2665 33.1662 33.2665C32.2656 33.2665 31.5329 32.5338 31.5329 31.6332C31.5329 31.1954 31.7037 30.7838 32.0145 30.4758L34.513 27.9768C34.0254 27.778 33.4924 27.6665 32.9329 27.6665C30.6131 27.6665 28.7329 29.5467 28.7329 31.8665C28.7329 34.1863 30.6131 36.0665 32.9329 36.0665C35.2527 36.0665 37.1329 34.1863 37.1329 31.8665C37.1329 31.3074 37.0214 30.7745 36.823 30.2864L34.3222 32.7877Z" fill="white"/>
<path d="M17.5664 12.0537C17.0918 12.206 16.7402 12.5283 16.5996 12.9267C16.5352 13.1201 16.5117 13.4365 16.5117 14.0927V14.9892H14.9414C13.1602 14.9892 12.9492 15.0244 12.5391 15.3759C12.3984 15.4931 12.2285 15.6982 12.1582 15.833L12.0293 16.0732V27.0009V37.9287L12.1582 38.1689C12.2285 38.3037 12.3984 38.5088 12.5391 38.6259C13.002 39.0244 12.8613 39.0127 17.9883 39.0127C20.5254 39.0127 22.6055 38.9951 22.6055 38.9716C22.6055 38.9482 22.4883 38.708 22.3477 38.4326C21.7852 37.3427 21.4219 36.247 21.1582 34.8818C21.0352 34.2373 20.9941 32.4443 21.0762 31.6826C21.6973 26.2334 26.0156 21.8271 31.4414 21.1123C32.291 21.0009 33.7441 21.0009 34.5176 21.1123C36.5977 21.417 38.4023 22.1787 40.3477 23.5791L40.4766 23.6728V19.9345C40.4766 15.7392 40.4941 15.9502 40.043 15.499C39.627 15.083 39.4453 15.0244 38.4141 15.0009L37.4883 14.9775V14.0869C37.4883 13.0732 37.4238 12.7802 37.125 12.4755C36.7969 12.1416 36.5215 12.0302 35.9941 12.0302C35.4727 12.0302 35.1855 12.1416 34.9043 12.4521C34.5645 12.8095 34.5293 12.9502 34.5117 14.0048L34.4883 14.9892H27H19.5117L19.4883 14.0048C19.4707 13.1904 19.4531 12.9912 19.3594 12.8213C19.0898 12.3115 18.6797 12.0537 18.0938 12.0244C17.8828 12.0127 17.6484 12.0244 17.5664 12.0537Z" fill="white"/>
</svg>
