<svg width="34" height="34" viewBox="0 0 34 34" fill="none" xmlns="http://www.w3.org/2000/svg">
<rect width="34" height="34" rx="5" fill="#3A9679"/>
<path d="M22.8558 8.6602H19.595C19.1643 7.47072 18.0363 6.60938 16.7033 6.60938C15.3703 6.60938 14.2423 7.47072 13.8116 8.6602H10.5508C9.42287 8.6602 8.5 9.58308 8.5 10.711V26.0922C8.5 27.2202 9.42287 28.1431 10.5508 28.1431H16.8161C16.2111 27.5586 15.7189 26.8613 15.36 26.0922H10.5508V10.711H12.6017V13.7873H20.805V10.711H22.8558V15.9201C23.5838 16.0227 24.2709 16.238 24.9066 16.5354V10.711C24.9066 9.58308 23.9837 8.6602 22.8558 8.6602ZM16.7033 10.711C16.1393 10.711 15.6779 10.2496 15.6779 9.68562C15.6779 9.12164 16.1393 8.6602 16.7033 8.6602C17.2673 8.6602 17.7287 9.12164 17.7287 9.68562C17.7287 10.2496 17.2673 10.711 16.7033 10.711Z" fill="white"/>
<path d="M24.9067 17.8887L26.4448 19.4268L25.5489 20.324L24.6529 21.2213L22.861 23.0157L21.0691 24.8102L19.2772 26.6047L16.9649 24.2975L14.6526 21.9903L16.1907 20.4522L19.2772 23.5284L20.6846 22.1185L22.092 20.7086C22.092 20.7086 22.9497 19.8492 23.4993 19.2986C24.049 18.748 24.9067 17.8887 24.9067 17.8887Z" fill="white"/>
</svg>
