<svg width="34" height="34" viewBox="0 0 34 34" fill="none" xmlns="http://www.w3.org/2000/svg">
<rect width="34" height="34" rx="5" fill="#3A9679"/>
<rect width="34" height="34" rx="5" fill="#FFA800"/>
<path d="M22.3428 8.51194H19.1066C18.6792 7.33142 17.5597 6.47656 16.2367 6.47656C14.9137 6.47656 13.7943 7.33142 13.3668 8.51194H10.1306C9.01113 8.51194 8.09521 9.42786 8.09521 10.5473V25.8126C8.09521 26.9321 9.01113 27.848 10.1306 27.848H16.3487C15.7482 27.2679 15.2597 26.5759 14.9035 25.8126H10.1306V10.5473H12.166V13.6004H20.3075V10.5473H22.3428V15.7172C23.0654 15.8189 23.7472 16.0326 24.3782 16.3278V10.5473C24.3782 9.42786 23.4623 8.51194 22.3428 8.51194ZM16.2367 10.5473C15.677 10.5473 15.219 10.0894 15.219 9.52962C15.219 8.9699 15.677 8.51194 16.2367 8.51194C16.7964 8.51194 17.2544 8.9699 17.2544 9.52962C17.2544 10.0894 16.7964 10.5473 16.2367 10.5473Z" fill="white"/>
<path d="M21.4524 27.8478C22.0646 27.8478 22.5655 27.3546 22.5655 26.7519H20.3393C20.3393 27.3546 20.8402 27.8478 21.4524 27.8478ZM24.7917 24.5599V21.82C24.7917 20.1377 23.8845 18.7293 22.2872 18.3567V17.9841C22.2872 17.5293 21.9143 17.1621 21.4524 17.1621C20.9904 17.1621 20.6176 17.5293 20.6176 17.9841V18.3567C19.0258 18.7293 18.1131 20.1322 18.1131 21.82V24.5599L17 25.6559V26.2039H25.9048V25.6559L24.7917 24.5599ZM23.6786 25.1079H19.2262V21.82C19.2262 20.461 20.0666 19.3541 21.4524 19.3541C22.8382 19.3541 23.6786 20.461 23.6786 21.82V25.1079Z" fill="white"/>
</svg>
