<svg width="32" height="32" viewBox="0 0 32 32" fill="none" xmlns="http://www.w3.org/2000/svg">
<path opacity="0.6" d="M12.2667 2.66666H19.7333C20.0277 2.66666 20.2667 2.90506 20.2667 3.2V5.33333C20.2667 5.62826 20.0277 5.86666 19.7333 5.86666H12.2667C11.9723 5.86666 11.7333 5.62826 11.7333 5.33333V3.2C11.7333 2.90506 11.9723 2.66666 12.2667 2.66666Z" fill="white"/>
<path d="M26.1333 5.33334H21.3333C21.3333 6.21547 20.6155 6.93334 19.7333 6.93334H12.2667C11.3845 6.93334 10.6667 6.21547 10.6667 5.33334H5.86665C5.27785 5.33334 4.79999 5.8112 4.79999 6.4V28.2667C4.79999 28.8555 5.27785 29.3333 5.86665 29.3333H26.1333C26.7221 29.3333 27.2 28.8555 27.2 28.2667V6.4C27.2 5.8112 26.7221 5.33334 26.1333 5.33334ZM24.5333 26.6667H7.46665V8.53334H24.5333V26.6667Z" fill="white"/>
<path d="M10.9333 13.8667C11.9642 13.8667 12.8 13.0309 12.8 12C12.8 10.9691 11.9642 10.1333 10.9333 10.1333C9.90239 10.1333 9.06665 10.9691 9.06665 12C9.06665 13.0309 9.90239 13.8667 10.9333 13.8667Z" fill="white"/>
<path d="M10.9333 24.5333C11.9642 24.5333 12.8 23.6976 12.8 22.6667C12.8 21.6357 11.9642 20.8 10.9333 20.8C9.90239 20.8 9.06665 21.6357 9.06665 22.6667C9.06665 23.6976 9.90239 24.5333 10.9333 24.5333Z" fill="white"/>
<path d="M10.9333 19.2C11.9642 19.2 12.8 18.3643 12.8 17.3333C12.8 16.3024 11.9642 15.4667 10.9333 15.4667C9.90239 15.4667 9.06665 16.3024 9.06665 17.3333C9.06665 18.3643 9.90239 19.2 10.9333 19.2Z" fill="white"/>
<path d="M21.6 11.2C22.0416 11.2 22.4 11.5584 22.4 12C22.4 12.4416 22.0416 12.8 21.6 12.8H16.2667C15.8245 12.8 15.4667 12.4416 15.4667 12C15.4667 11.5584 15.8245 11.2 16.2667 11.2H21.6Z" fill="white"/>
<path d="M21.6 16.5333C22.0416 16.5333 22.4 16.8917 22.4 17.3333C22.4 17.7749 22.0416 18.1333 21.6 18.1333H16.2667C15.8245 18.1333 15.4667 17.7749 15.4667 17.3333C15.4667 16.8917 15.8245 16.5333 16.2667 16.5333H21.6Z" fill="white"/>
<path d="M21.6 21.8667C22.0416 21.8667 22.4 22.2251 22.4 22.6667C22.4 23.1083 22.0416 23.4667 21.6 23.4667H16.2667C15.8245 23.4667 15.4667 23.1083 15.4667 22.6667C15.4667 22.2251 15.8245 21.8667 16.2667 21.8667H21.6Z" fill="white"/>
</svg>
