<svg width="32" height="32" viewBox="0 0 32 32" fill="none" xmlns="http://www.w3.org/2000/svg">
<path opacity="0.6" d="M12.9797 11.2L14.6432 8.5392C15.2709 7.53387 16.3536 6.93333 17.5397 6.93333H22.4V1.6C22.4 1.3056 22.161 1.06667 21.8666 1.06667H11.2V5.33333C11.2 6.21547 10.4821 6.93333 9.59998 6.93333H5.33331V11.2H12.9797ZM14.1333 3.2H19.4666C19.9088 3.2 20.2666 3.5584 20.2666 4C20.2666 4.4416 19.9088 4.8 19.4666 4.8H14.1333C13.6912 4.8 13.3333 4.4416 13.3333 4C13.3333 3.5584 13.6912 3.2 14.1333 3.2Z" fill="white"/>
<path opacity="0.6" d="M26.6 16.4V14L24.3172 16.2828C24.242 16.358 24.2 16.4592 24.2 16.5656V17.9516L21.1764 20.9756C21.0672 21.084 21 21.234 21 21.4C21 21.7312 21.2688 22 21.6 22C21.766 22 21.916 21.9328 22.0252 21.824L25.0484 18.8H26.4344C26.5408 18.8 26.6424 18.758 26.7172 18.6828L29 16.4H26.6Z" fill="white"/>
<path d="M27.0558 19.5792C26.8256 19.8094 26.5082 19.9412 26.1825 19.9412H25.4874C25.7756 20.5683 25.9412 21.2642 25.9412 22C25.9412 24.7288 23.7288 26.9412 21 26.9412C18.2712 26.9412 16.0588 24.7288 16.0588 22C16.0588 19.2712 18.2712 17.0588 21 17.0588C21.7358 17.0588 22.4317 17.2239 23.0588 17.5126V16.8175C23.0588 16.4922 23.1906 16.1739 23.4208 15.9442L23.7856 15.5794C22.9316 15.2084 21.9903 15 21 15C17.1339 15 14 18.1339 14 22C14 25.8661 17.1339 29 21 29C24.8661 29 28 25.8661 28 22C28 21.0097 27.7916 20.0688 27.4206 19.2144L27.0558 19.5792Z" fill="white"/>
<path d="M22.3231 22.8773C22.0289 23.1716 21.6382 23.3333 21.2222 23.3333C20.3644 23.3333 19.6667 22.6356 19.6667 21.7778C19.6667 21.3609 19.8293 20.9689 20.1253 20.6756L22.5049 18.2956C22.0404 18.1062 21.5329 18 21 18C18.7907 18 17 19.7907 17 22C17 24.2093 18.7907 26 21 26C23.2093 26 25 24.2093 25 22C25 21.4676 24.8938 20.96 24.7049 20.4951L22.3231 22.8773Z" fill="white"/>
<path opacity="0.6" d="M5.71091 5.86667H9.59998C9.89438 5.86667 10.1333 5.62773 10.1333 5.33333V1.44427C10.1333 1.21653 9.94771 1.06667 9.75305 1.06667C9.66025 1.06667 9.56585 1.10027 9.48905 1.1776L5.44371 5.22293C5.36531 5.3008 5.33331 5.39787 5.33331 5.49227C5.33331 5.68427 5.48531 5.86667 5.71091 5.86667Z" fill="white"/>
<path d="M21.3333 12.2667C22.841 12.2667 24.2672 12.6048 25.553 13.1957L26.585 10.3584C26.6368 10.216 26.6666 10.0656 26.6666 9.9136C26.6666 9.15467 26.0784 8.53333 25.2437 8.53333H17.5397C16.9136 8.53333 16.3317 8.856 15.9994 9.3872L13.8666 12.8H3.00638C2.15731 12.8 1.59998 13.4555 1.59998 14.1365C1.59998 14.3024 1.62398 14.4677 1.67998 14.624L6.07518 26.8331C6.26984 27.3728 6.78238 27.7333 7.35678 27.7333H12.9999C12.0372 26.1829 11.2 24.3595 11.2 22.4C11.2 16.7339 15.8016 12.2667 21.3333 12.2667Z" fill="white"/>
</svg>
