<svg width="32" height="32" viewBox="0 0 32 32" fill="none" xmlns="http://www.w3.org/2000/svg">
<path opacity="0.6" d="M12.9782 11.2002L14.6417 8.53943C15.2694 7.53409 16.3521 6.93356 17.5382 6.93356H22.3985V1.60023C22.3985 1.30583 22.1595 1.06689 21.8651 1.06689H11.1985V5.33356C11.1985 6.21569 10.4806 6.93356 9.59845 6.93356H5.33179V11.2002H12.9782ZM14.1318 3.20023H19.4651C19.9073 3.20023 20.2651 3.55863 20.2651 4.00023C20.2651 4.44183 19.9073 4.80023 19.4651 4.80023H14.1318C13.6897 4.80023 13.3318 4.44183 13.3318 4.00023C13.3318 3.55863 13.6897 3.20023 14.1318 3.20023Z" fill="#0A77DB"/>
<path opacity="0.6" d="M26.5985 16.4V14L24.3157 16.2828C24.2405 16.358 24.1985 16.4592 24.1985 16.5656V17.9516L21.1749 20.9756C21.0657 21.084 20.9985 21.234 20.9985 21.4C20.9985 21.7312 21.2673 22 21.5985 22C21.7645 22 21.9145 21.9328 22.0237 21.824L25.0469 18.8H26.4329C26.5393 18.8 26.6409 18.758 26.7157 18.6828L28.9985 16.4H26.5985Z" fill="#0A77DB"/>
<path d="M27.0544 19.5792C26.8242 19.8094 26.5067 19.9412 26.181 19.9412H25.4859C25.7742 20.5683 25.9397 21.2642 25.9397 22C25.9397 24.7288 23.7273 26.9412 20.9985 26.9412C18.2698 26.9412 16.0574 24.7288 16.0574 22C16.0574 19.2712 18.2698 17.0588 20.9985 17.0588C21.7344 17.0588 22.4302 17.2239 23.0574 17.5126V16.8175C23.0574 16.4922 23.1891 16.1739 23.4193 15.9442L23.7841 15.5794C22.9301 15.2084 21.9888 15 20.9985 15C17.1325 15 13.9985 18.1339 13.9985 22C13.9985 25.8661 17.1325 29 20.9985 29C24.8646 29 27.9985 25.8661 27.9985 22C27.9985 21.0097 27.7902 20.0688 27.4192 19.2144L27.0544 19.5792Z" fill="#0A77DB"/>
<path d="M22.3216 22.8773C22.0274 23.1716 21.6368 23.3333 21.2208 23.3333C20.363 23.3333 19.6652 22.6356 19.6652 21.7778C19.6652 21.3609 19.8279 20.9689 20.1239 20.6756L22.5034 18.2956C22.039 18.1062 21.5314 18 20.9985 18C18.7892 18 16.9985 19.7907 16.9985 22C16.9985 24.2093 18.7892 26 20.9985 26C23.2079 26 24.9985 24.2093 24.9985 22C24.9985 21.4676 24.8923 20.96 24.7034 20.4951L22.3216 22.8773Z" fill="#0A77DB"/>
<path opacity="0.6" d="M5.70939 5.86689H9.59845C9.89285 5.86689 10.1318 5.62796 10.1318 5.33356V1.44449C10.1318 1.21676 9.94619 1.06689 9.75152 1.06689C9.65872 1.06689 9.56432 1.10049 9.48752 1.17783L5.44219 5.22316C5.36379 5.30103 5.33179 5.3981 5.33179 5.4925C5.33179 5.6845 5.48379 5.86689 5.70939 5.86689V5.86689Z" fill="#0A77DB"/>
<path d="M21.332 12.2665C22.8397 12.2665 24.2658 12.6047 25.5517 13.1956L26.5837 10.3583C26.6354 10.2159 26.6653 10.0655 26.6653 9.91347C26.6653 9.15454 26.077 8.5332 25.2424 8.5332H17.5384C16.9122 8.5332 16.3304 8.85587 15.9981 9.38707L13.8653 12.7999H3.00503C2.15597 12.7999 1.59863 13.4553 1.59863 14.1364C1.59863 14.3023 1.62263 14.4676 1.67863 14.6239L6.07383 26.8329C6.2685 27.3727 6.78103 27.7332 7.35543 27.7332H12.9985C12.0359 26.1828 11.1986 24.3593 11.1986 22.3999C11.1986 16.7337 15.8002 12.2665 21.332 12.2665Z" fill="#0A77DB"/>
</svg>
