<svg width="32" height="32" viewBox="0 0 32 32" fill="none" xmlns="http://www.w3.org/2000/svg">
<path d="M19.425 18.1333H19.84C23.02 18.1333 25.6 20.7133 25.6 23.8933V25.3333C25.6 26.6583 24.525 27.7333 23.2 27.7333H8.80002C7.47502 27.7333 6.40002 26.6583 6.40002 25.3333V23.8933C6.40002 20.7133 8.98002 18.1333 12.16 18.1333H12.575C13.62 18.6333 14.77 18.9333 16 18.9333C17.23 18.9333 18.385 18.6333 19.425 18.1333Z" fill="white"/>
<path d="M19.8399 18.1335H19.4249C18.3849 18.6335 17.2299 18.9335 15.9999 18.9335C14.7699 18.9335 13.6199 18.6335 12.5749 18.1335H12.1599C8.9799 18.1335 6.3999 20.7135 6.3999 23.8935V25.3335C6.3999 26.6585 7.4749 27.7335 8.7999 27.7335H23.1999C24.5249 27.7335 25.5999 26.6585 25.5999 25.3335V23.8935C25.5999 20.7135 23.0199 18.1335 19.8399 18.1335Z" fill="white"/>
<path opacity="0.6" d="M30.4 11.7331C30.4 13.4981 28.965 14.9331 27.2 14.9331C25.435 14.9331 24 13.4981 24 11.7331C24 9.96813 25.435 8.53313 27.2 8.53313C28.965 8.53313 30.4 9.96813 30.4 11.7331Z" fill="white"/>
<path opacity="0.6" d="M25.6 16.5331H28.8C30.565 16.5331 32 17.9681 32 19.7331V21.3331C32 22.2181 31.285 22.9331 30.4 22.9331H27.1C26.79 20.5631 25.36 18.5681 23.345 17.4631C23.925 16.8881 24.72 16.5331 25.6 16.5331Z" fill="white"/>
<path opacity="0.6" d="M7.99998 11.7331C7.99998 13.4981 6.56498 14.9331 4.79998 14.9331C3.03498 14.9331 1.59998 13.4981 1.59998 11.7331C1.59998 9.96813 3.03498 8.53313 4.79998 8.53313C6.56498 8.53313 7.99998 9.96813 7.99998 11.7331Z" fill="white"/>
<path opacity="0.6" d="M6.4 16.5331C7.28 16.5331 8.075 16.8881 8.655 17.4631C6.64 18.5681 5.21 20.5631 4.895 22.9331H1.6C0.715 22.9331 0 22.2181 0 21.3331V19.7331C0 17.9681 1.435 16.5331 3.2 16.5331H6.4Z" fill="white"/>
<path opacity="0.6" d="M16.0001 13.0995C17.1599 13.0995 18.1001 12.1594 18.1001 10.9997C18.1001 9.83995 17.1599 8.89983 16.0001 8.89983C14.8403 8.89983 13.9001 9.83995 13.9001 10.9997C13.9001 12.1594 14.8403 13.0995 16.0001 13.0995Z" fill="white"/>
<path d="M23 10.2995H21.5517C21.2339 7.77199 19.2284 5.76595 16.7 5.44818V4H15.3V5.44818C12.7723 5.76595 10.7661 7.77199 10.4483 10.2995H9V11.6994H10.4483C10.7661 14.2268 12.7716 16.2329 15.3 16.5507V17.9988H16.7V16.5507C19.2284 16.2329 21.2339 14.2268 21.5517 11.6994H23V10.2995ZM16 15.1991C13.6837 15.1991 11.8 13.3155 11.8 10.9994C11.8 8.68331 13.6837 6.79977 16 6.79977C18.3163 6.79977 20.2 8.68331 20.2 10.9994C20.2 13.3155 18.3163 15.1991 16 15.1991Z" fill="white"/>
</svg>
