<svg width="32" height="32" viewBox="0 0 32 32" fill="none" xmlns="http://www.w3.org/2000/svg">
<path d="M3 11.7144H29V27.8644C29 29.4378 27.7522 30.7144 26.2143 30.7144H5.78571C4.24719 30.7144 3 29.4378 3 27.8644V11.7144ZM7.64286 15.5144C7.12982 15.5144 6.71429 15.9419 6.71429 16.4644V22.1644C6.71429 22.6869 7.12982 23.1144 7.64286 23.1144H13.2143C13.725 23.1144 14.1429 22.6869 14.1429 22.1644V16.4644C14.1429 15.9419 13.725 15.5144 13.2143 15.5144H7.64286Z" fill="white"/>
<path opacity="0.6" d="M12.2857 4.31436V2.51436C12.2857 1.52042 11.4558 0.714355 10.4286 0.714355C9.40134 0.714355 8.57143 1.52042 8.57143 2.51436V4.31436H5.78571C4.24719 4.31436 3 5.52317 3 7.01436V9.71436H29V7.01436C29 5.52317 27.7522 4.31436 26.2143 4.31436H23.4286V2.51436C23.4286 1.52042 22.5987 0.714355 21.5714 0.714355C20.5442 0.714355 19.7143 1.52042 19.7143 2.51436V4.31436H12.2857Z" fill="white"/>
</svg>
