<svg width="32" height="32" viewBox="0 0 32 32" fill="none" xmlns="http://www.w3.org/2000/svg">
<path opacity="0.6" d="M12.1559 18.1202C12.0119 18.1292 11.8748 18.1335 11.7319 18.1335C10.798 18.1335 9.89132 17.9292 9.06519 17.549V19.021C9.33665 19.3527 10.2204 20.2668 11.7319 20.2668C13.2401 20.2668 14.1287 19.349 14.3985 19.021V17.5356C13.7084 17.8615 12.9537 18.0684 12.1559 18.1202V18.1202Z" fill="#0A77DB"/>
<path d="M11.7319 4.79984C9.2807 4.79984 7.72443 3.9593 6.9319 2.6665C6.9319 2.6665 5.86523 4.4009 5.86523 5.58277C5.86523 6.64197 6.24443 7.6121 6.9319 8.25744V12.2665C6.9319 14.9177 9.0807 17.0665 11.7319 17.0665C14.3831 17.0665 16.5319 14.9177 16.5319 12.2665V9.59984C16.5319 6.94864 14.3831 4.79984 11.7319 4.79984Z" fill="#0A77DB"/>
<path d="M15.9986 22.4001C15.9986 21.5479 16.1352 20.7281 16.3816 19.958L15.356 19.5244C15.1901 19.7591 13.9933 21.3335 11.732 21.3335C9.47063 21.3335 8.27383 19.7591 8.10797 19.5244L4.5341 21.0316C2.7549 21.782 1.59863 23.5244 1.59863 25.4551V28.2668C1.59863 28.5617 1.83703 28.8001 2.13197 28.8001H19.213C17.2653 27.3409 15.9986 25.0215 15.9986 22.4001V22.4001Z" fill="#0A77DB"/>
<path opacity="0.6" d="M24.0012 24.4015C25.1058 24.4015 26.0012 23.5062 26.0012 22.4017C26.0012 21.2972 25.1058 20.4019 24.0012 20.4019C22.8967 20.4019 22.0012 21.2972 22.0012 22.4017C22.0012 23.5062 22.8967 24.4015 24.0012 24.4015Z" fill="#0A77DB"/>
<path d="M30.6678 21.7349H29.2885C28.9858 19.3277 27.0758 17.4172 24.6678 17.1146V15.7354H23.3345V17.1146C20.9271 17.4172 19.0165 19.3277 18.7138 21.7349H17.3345V23.0681H18.7138C19.0165 25.4752 20.9265 27.3857 23.3345 27.6884V29.0676H24.6678V27.6884C27.0758 27.3857 28.9858 25.4752 29.2885 23.0681H30.6678V21.7349ZM24.0011 26.4011C21.7951 26.4011 20.0011 24.6073 20.0011 22.4015C20.0011 20.1956 21.7951 18.4018 24.0011 18.4018C26.2071 18.4018 28.0011 20.1956 28.0011 22.4015C28.0011 24.6073 26.2071 26.4011 24.0011 26.4011Z" fill="#0A77DB"/>
</svg>
