<svg width="32" height="32" viewBox="0 0 32 32" fill="none" xmlns="http://www.w3.org/2000/svg">
<path d="M28.2651 15.4668H15.9984C15.1152 15.4668 14.3984 16.1831 14.3984 17.0668V27.7335C14.3984 28.6172 15.1152 29.3335 15.9984 29.3335H28.2651C29.1483 29.3335 29.8651 28.6172 29.8651 27.7335V17.0668C29.8651 16.1831 29.1483 15.4668 28.2651 15.4668ZM27.7318 27.2001H16.5318V23.4668H27.7318V27.2001ZM27.7318 21.3335H16.5318V17.6001H27.7318V21.3335Z" fill="#0A77DB"/>
<path d="M15.4652 2.6665C15.3537 2.6665 15.2401 2.6841 15.127 2.72197L2.86144 5.74437C2.4257 5.8889 2.13184 6.2969 2.13184 6.7561V26.6665C2.13184 27.2553 2.6097 27.7332 3.1985 27.7332H12.7985V17.0665C12.7985 15.2996 14.231 13.8665 15.9985 13.8665H16.5318V3.73317C16.5318 3.1241 16.0326 2.66597 15.4652 2.6665ZM8.53184 23.9998H5.33184C4.74304 23.9998 4.26517 23.522 4.26517 22.9332C4.26517 22.3444 4.74304 21.8665 5.33184 21.8665H8.53184C9.12064 21.8665 9.5985 22.3444 9.5985 22.9332C9.5985 23.522 9.12064 23.9998 8.53184 23.9998ZM8.53184 19.7332H5.33184C4.74304 19.7332 4.26517 19.2553 4.26517 18.6665C4.26517 18.0777 4.74304 17.5998 5.33184 17.5998H8.53184C9.12064 17.5998 9.5985 18.0777 9.5985 18.6665C9.5985 19.2553 9.12064 19.7332 8.53184 19.7332ZM8.53184 15.4665H5.33184C4.74304 15.4665 4.26517 14.9886 4.26517 14.3998C4.26517 13.811 4.74304 13.3332 5.33184 13.3332H8.53184C9.12064 13.3332 9.5985 13.811 9.5985 14.3998C9.5985 14.9886 9.12064 15.4665 8.53184 15.4665ZM8.53184 11.1998H5.33184C4.74304 11.1998 4.26517 10.722 4.26517 10.1332C4.26517 9.54437 4.74304 9.0665 5.33184 9.0665H8.53184C9.12064 9.0665 9.5985 9.54437 9.5985 10.1332C9.5985 10.722 9.12064 11.1998 8.53184 11.1998ZM13.3318 11.1998H12.2652C11.6764 11.1998 11.1985 10.722 11.1985 10.1332C11.1985 9.54437 11.6764 9.0665 12.2652 9.0665H13.3318C13.9206 9.0665 14.3985 9.54437 14.3985 10.1332C14.3985 10.722 13.9206 11.1998 13.3318 11.1998Z" fill="#0A77DB"/>
<path opacity="0.6" d="M27.9451 4.5865V2.6665L26.1188 4.49274C26.0587 4.5529 26.0251 4.63386 26.0251 4.71898V5.82778L23.6062 8.24698C23.5188 8.3337 23.4651 8.4537 23.4651 8.5865C23.4651 8.85146 23.6801 9.0665 23.9451 9.0665C24.0779 9.0665 24.1979 9.01274 24.2852 8.9257L26.7038 6.5065H27.8126C27.8977 6.5065 27.979 6.4729 28.0388 6.41274L29.8651 4.5865H27.9451Z" fill="#0A77DB"/>
<path opacity="0.6" d="M28.5765 6.86358C28.3924 7.04772 28.1384 7.15314 27.8778 7.15314H27.3218C27.5524 7.65483 27.6848 8.21154 27.6848 8.80019C27.6848 10.9832 25.9148 12.7531 23.7318 12.7531C21.5488 12.7531 19.7789 10.9832 19.7789 8.80019C19.7789 6.61718 21.5488 4.84725 23.7318 4.84725C24.3205 4.84725 24.8772 4.97935 25.3789 5.21027V4.65422C25.3789 4.39398 25.4843 4.13935 25.6684 3.95554L25.9603 3.66368C25.2771 3.36688 24.5241 3.2002 23.7318 3.2002C20.639 3.2002 18.1318 5.70735 18.1318 8.80019C18.1318 11.893 20.639 14.4002 23.7318 14.4002C26.8247 14.4002 29.3318 11.893 29.3318 8.80019C29.3318 8.00796 29.1652 7.25525 28.8684 6.57172L28.5765 6.86358Z" fill="#0A77DB"/>
<path opacity="0.6" d="M24.7022 9.44341C24.4864 9.65917 24.1999 9.77781 23.8949 9.77781C23.2658 9.77781 22.7541 9.26611 22.7541 8.63707C22.7541 8.33135 22.8734 8.04388 23.0905 7.82877L24.8355 6.08344C24.4949 5.9446 24.1227 5.8667 23.7319 5.8667C22.1117 5.8667 20.7986 7.17985 20.7986 8.80003C20.7986 10.4202 22.1117 11.7334 23.7319 11.7334C25.3521 11.7334 26.6653 10.4202 26.6653 8.80003C26.6653 8.40957 26.5874 8.03737 26.4488 7.69645L24.7022 9.44341Z" fill="#0A77DB"/>
</svg>
