<svg width="32" height="32" viewBox="0 0 32 32" fill="none" xmlns="http://www.w3.org/2000/svg">
<path d="M28.2667 15.4667H16C15.1168 15.4667 14.4 16.1829 14.4 17.0667V27.7333C14.4 28.6171 15.1168 29.3333 16 29.3333H28.2667C29.1499 29.3333 29.8667 28.6171 29.8667 27.7333V17.0667C29.8667 16.1829 29.1499 15.4667 28.2667 15.4667ZM27.7334 27.2H16.5334V23.4667H27.7334V27.2ZM27.7334 21.3333H16.5334V17.6H27.7334V21.3333Z" fill="white"/>
<path d="M15.4667 2.66667C15.3552 2.66667 15.2416 2.68427 15.1286 2.72213L2.86296 5.74453C2.42723 5.88907 2.13336 6.29707 2.13336 6.75627V26.6667C2.13336 27.2555 2.61123 27.7333 3.20003 27.7333H12.8V17.0667C12.8 15.2997 14.2326 13.8667 16 13.8667H16.5334V3.73333C16.5334 3.12427 16.0342 2.66613 15.4667 2.66667ZM8.53336 24H5.33336C4.74456 24 4.2667 23.5221 4.2667 22.9333C4.2667 22.3445 4.74456 21.8667 5.33336 21.8667H8.53336C9.12216 21.8667 9.60003 22.3445 9.60003 22.9333C9.60003 23.5221 9.12216 24 8.53336 24ZM8.53336 19.7333H5.33336C4.74456 19.7333 4.2667 19.2555 4.2667 18.6667C4.2667 18.0779 4.74456 17.6 5.33336 17.6H8.53336C9.12216 17.6 9.60003 18.0779 9.60003 18.6667C9.60003 19.2555 9.12216 19.7333 8.53336 19.7333ZM8.53336 15.4667H5.33336C4.74456 15.4667 4.2667 14.9888 4.2667 14.4C4.2667 13.8112 4.74456 13.3333 5.33336 13.3333H8.53336C9.12216 13.3333 9.60003 13.8112 9.60003 14.4C9.60003 14.9888 9.12216 15.4667 8.53336 15.4667ZM8.53336 11.2H5.33336C4.74456 11.2 4.2667 10.7221 4.2667 10.1333C4.2667 9.54453 4.74456 9.06667 5.33336 9.06667H8.53336C9.12216 9.06667 9.60003 9.54453 9.60003 10.1333C9.60003 10.7221 9.12216 11.2 8.53336 11.2ZM13.3334 11.2H12.2667C11.6779 11.2 11.2 10.7221 11.2 10.1333C11.2 9.54453 11.6779 9.06667 12.2667 9.06667H13.3334C13.9222 9.06667 14.4 9.54453 14.4 10.1333C14.4 10.7221 13.9222 11.2 13.3334 11.2Z" fill="white"/>
<path opacity="0.6" d="M27.9467 4.58667V2.66667L26.1204 4.49291C26.0603 4.55307 26.0267 4.63403 26.0267 4.71915V5.82795L23.6078 8.24715C23.5204 8.33387 23.4667 8.45387 23.4667 8.58667C23.4667 8.85163 23.6817 9.06667 23.9467 9.06667C24.0795 9.06667 24.1995 9.01291 24.2868 8.92587L26.7054 6.50667H27.8142C27.8993 6.50667 27.9806 6.47307 28.0404 6.41291L29.8667 4.58667H27.9467Z" fill="white"/>
<path opacity="0.6" d="M28.578 6.86339C28.3939 7.04753 28.1399 7.15294 27.8793 7.15294H27.3233C27.5539 7.65464 27.6863 8.21134 27.6863 8.8C27.6863 10.983 25.9164 12.7529 23.7334 12.7529C21.5503 12.7529 19.7804 10.983 19.7804 8.8C19.7804 6.61699 21.5503 4.84706 23.7334 4.84706C24.322 4.84706 24.8787 4.97915 25.3804 5.21007V4.65402C25.3804 4.39379 25.4858 4.13915 25.67 3.95534L25.9618 3.66348C25.2786 3.36668 24.5256 3.2 23.7334 3.2C20.6405 3.2 18.1334 5.70715 18.1334 8.8C18.1334 11.8928 20.6405 14.4 23.7334 14.4C26.8262 14.4 29.3334 11.8928 29.3334 8.8C29.3334 8.00776 29.1667 7.25506 28.8699 6.57153L28.578 6.86339Z" fill="white"/>
<path opacity="0.6" d="M24.7036 9.44338C24.4878 9.65914 24.2014 9.77778 23.8963 9.77778C23.2672 9.77778 22.7555 9.26607 22.7555 8.63704C22.7555 8.33132 22.8748 8.04385 23.0919 7.82874L24.8369 6.08341C24.4963 5.94456 24.1241 5.86667 23.7333 5.86667C22.1131 5.86667 20.8 7.17982 20.8 8.8C20.8 10.4202 22.1131 11.7333 23.7333 11.7333C25.3535 11.7333 26.6667 10.4202 26.6667 8.8C26.6667 8.40954 26.5888 8.03733 26.4502 7.69642L24.7036 9.44338Z" fill="white"/>
</svg>
