<svg width="24" height="24" viewBox="0 0 24 24" fill="none" xmlns="http://www.w3.org/2000/svg">
<circle cx="12" cy="12" r="12" fill="#2A32FF"/>
<path d="M8.24805 9.0918L6.04492 16H4.00586L7.16406 7.46875H8.45312L8.24805 9.0918ZM10.0762 16L7.86719 9.0918L7.63867 7.46875H8.94531L12.1152 16H10.0762ZM9.98242 12.8242V14.3008H5.53516V12.8242H9.98242ZM16.1875 13.0352H14.043V11.5527H16.1875C16.5039 11.5527 16.7578 11.5 16.9492 11.3945C17.1445 11.2891 17.2871 11.1445 17.377 10.9609C17.4707 10.7734 17.5176 10.5625 17.5176 10.3281C17.5176 10.0859 17.4707 9.86133 17.377 9.6543C17.2871 9.44336 17.1445 9.27344 16.9492 9.14453C16.7578 9.01562 16.5039 8.95117 16.1875 8.95117H14.7344V16H12.8242V7.46875H16.1875C16.8672 7.46875 17.4492 7.5918 17.9336 7.83789C18.4219 8.08398 18.7949 8.42188 19.0527 8.85156C19.3145 9.27734 19.4453 9.76562 19.4453 10.3164C19.4453 10.8672 19.3145 11.3457 19.0527 11.752C18.7949 12.1582 18.4219 12.4746 17.9336 12.7012C17.4492 12.9238 16.8672 13.0352 16.1875 13.0352Z" fill="white"/>
</svg>
