<svg width="100" height="100" viewBox="0 0 100 100" fill="none" xmlns="http://www.w3.org/2000/svg">
<rect width="100" height="100" rx="5" fill="#F5F8FA"/>
<rect x="7" y="10" width="38" height="3" rx="1.5" fill="#E2E3EE"/>
<rect x="7" y="16" width="38" height="3" rx="1.5" fill="#E2E3EE"/>
<rect x="7" y="27" width="85" height="3" rx="1.5" fill="#C9C9D4"/>
<rect x="7" y="33" width="85" height="3" rx="1.5" fill="#C9C9D4"/>
<rect x="7" y="39" width="85" height="3" rx="1.5" fill="#C9C9D4"/>
<rect x="7" y="45" width="85" height="3" rx="1.5" fill="#C9C9D4"/>
<rect x="7" y="51" width="85" height="3" rx="1.5" fill="#C9C9D4"/>
<rect x="7.75" y="66.75" width="15.5" height="15.5" rx="3.25" fill="white" stroke="#C9C9D4" stroke-width="0.5" stroke-dasharray="1 1"/>
<path d="M12.9 72.1596C12.9 72.5092 12.6095 72.7916 12.25 72.7916C11.8905 72.7916 11.6 72.5092 11.6 72.1596V71.5277C11.6 70.4806 12.4552 69.6318 13.55 69.6318C14.6266 69.6318 15.5 70.4806 15.5 71.5277V71.6817C15.5 72.0925 15.4756 72.5032 15.4269 72.912L17.9131 72.1853C18.1447 72.1181 18.3966 72.1813 18.5489 72.3512C18.7358 72.521 18.7927 72.7679 18.7175 72.991L18.3519 74.0377H20.05C20.4095 74.0377 20.7 74.3378 20.7 74.6696C20.7 75.0369 20.4095 75.3016 20.05 75.3016H17.45C17.2408 75.3016 17.0458 75.2226 16.9219 75.0567C16.8 74.8928 16.7675 74.6795 16.8325 74.4879L17.0864 73.7474L15.1689 74.3062C14.9292 75.349 14.5291 76.3502 13.9827 77.2784L13.7003 77.7582C13.4383 78.2046 12.9508 78.4791 12.4227 78.4791C11.6102 78.4791 10.9317 77.8372 10.9317 77.0473V75.6274C10.9317 74.7901 11.5147 74.0515 12.3394 73.8125L14.0538 73.3109C14.1513 72.7738 14.1817 72.2287 14.1817 71.6817V71.5277C14.1817 71.1781 13.9095 70.8957 13.5317 70.8957C13.1905 70.8957 12.8817 71.1781 12.8817 71.5277L12.9 72.1596ZM12.25 75.6274V77.0473C12.25 77.1401 12.3272 77.2152 12.4227 77.2152C12.4836 77.2152 12.5425 77.1836 12.573 77.1303L12.8553 76.6504C13.2108 76.0421 13.4972 75.4003 13.7084 74.7328L12.7131 75.0053C12.4389 75.1021 12.25 75.349 12.25 75.6274ZM9.4875 76.2673H10.3V77.0473C10.3 77.1046 10.3022 77.1599 10.3069 77.2152H9.4875C9.21836 77.2152 9 77.0039 9 76.7412C9 76.4786 9.21836 76.2673 9.4875 76.2673ZM21.5125 77.2152H14.7586C14.9252 76.9051 15.0775 76.5891 15.2136 76.2673H21.5125C21.7827 76.2673 22 76.4786 22 76.7412C22 77.0039 21.7827 77.2152 21.5125 77.2152Z" fill="#3E4347"/>
<rect x="24.75" y="66.75" width="15.5" height="15.5" rx="3.25" fill="white" stroke="#C9C9D4" stroke-width="0.5" stroke-dasharray="1 1"/>
<path d="M29.9 72.1596C29.9 72.5092 29.6095 72.7916 29.25 72.7916C28.8905 72.7916 28.6 72.5092 28.6 72.1596V71.5277C28.6 70.4806 29.4552 69.6318 30.55 69.6318C31.6266 69.6318 32.5 70.4806 32.5 71.5277V71.6817C32.5 72.0925 32.4756 72.5032 32.4269 72.912L34.9131 72.1853C35.1447 72.1181 35.3966 72.1813 35.5489 72.3512C35.7358 72.521 35.7927 72.7679 35.7175 72.991L35.3519 74.0377H37.05C37.4095 74.0377 37.7 74.3378 37.7 74.6696C37.7 75.0369 37.4095 75.3016 37.05 75.3016H34.45C34.2408 75.3016 34.0458 75.2226 33.9219 75.0567C33.8 74.8928 33.7675 74.6795 33.8325 74.4879L34.0864 73.7474L32.1689 74.3062C31.9292 75.349 31.5291 76.3502 30.9827 77.2784L30.7003 77.7582C30.4383 78.2046 29.9508 78.4791 29.4227 78.4791C28.6102 78.4791 27.9317 77.8372 27.9317 77.0473V75.6274C27.9317 74.7901 28.5147 74.0515 29.3394 73.8125L31.0538 73.3109C31.1513 72.7738 31.1817 72.2287 31.1817 71.6817V71.5277C31.1817 71.1781 30.9095 70.8957 30.5317 70.8957C30.1905 70.8957 29.8817 71.1781 29.8817 71.5277L29.9 72.1596ZM29.25 75.6274V77.0473C29.25 77.1401 29.3272 77.2152 29.4227 77.2152C29.4836 77.2152 29.5425 77.1836 29.573 77.1303L29.8553 76.6504C30.2108 76.0421 30.4972 75.4003 30.7084 74.7328L29.7131 75.0053C29.4389 75.1021 29.25 75.349 29.25 75.6274ZM26.4875 76.2673H27.3V77.0473C27.3 77.1046 27.3022 77.1599 27.3069 77.2152H26.4875C26.2184 77.2152 26 77.0039 26 76.7412C26 76.4786 26.2184 76.2673 26.4875 76.2673ZM38.5125 77.2152H31.7586C31.9252 76.9051 32.0775 76.5891 32.2136 76.2673H38.5125C38.7827 76.2673 39 76.4786 39 76.7412C39 77.0039 38.7827 77.2152 38.5125 77.2152Z" fill="#3E4347"/>
<rect x="41.75" y="66.75" width="15.5" height="15.5" rx="3.25" fill="white" stroke="#C9C9D4" stroke-width="0.5" stroke-dasharray="1 1"/>
<path d="M46.9 72.1596C46.9 72.5092 46.6095 72.7916 46.25 72.7916C45.8905 72.7916 45.6 72.5092 45.6 72.1596V71.5277C45.6 70.4806 46.4552 69.6318 47.55 69.6318C48.6266 69.6318 49.5 70.4806 49.5 71.5277V71.6817C49.5 72.0925 49.4756 72.5032 49.4269 72.912L51.9131 72.1853C52.1447 72.1181 52.3966 72.1813 52.5489 72.3512C52.7358 72.521 52.7927 72.7679 52.7175 72.991L52.3519 74.0377H54.05C54.4095 74.0377 54.7 74.3378 54.7 74.6696C54.7 75.0369 54.4095 75.3016 54.05 75.3016H51.45C51.2408 75.3016 51.0458 75.2226 50.9219 75.0567C50.8 74.8928 50.7675 74.6795 50.8325 74.4879L51.0864 73.7474L49.1689 74.3062C48.9292 75.349 48.5291 76.3502 47.9827 77.2784L47.7003 77.7582C47.4383 78.2046 46.9508 78.4791 46.4227 78.4791C45.6102 78.4791 44.9317 77.8372 44.9317 77.0473V75.6274C44.9317 74.7901 45.5147 74.0515 46.3394 73.8125L48.0538 73.3109C48.1513 72.7738 48.1817 72.2287 48.1817 71.6817V71.5277C48.1817 71.1781 47.9095 70.8957 47.5317 70.8957C47.1905 70.8957 46.8817 71.1781 46.8817 71.5277L46.9 72.1596ZM46.25 75.6274V77.0473C46.25 77.1401 46.3272 77.2152 46.4227 77.2152C46.4836 77.2152 46.5425 77.1836 46.573 77.1303L46.8553 76.6504C47.2108 76.0421 47.4972 75.4003 47.7084 74.7328L46.7131 75.0053C46.4389 75.1021 46.25 75.349 46.25 75.6274ZM43.4875 76.2673H44.3V77.0473C44.3 77.1046 44.3022 77.1599 44.3069 77.2152H43.4875C43.2184 77.2152 43 77.0039 43 76.7412C43 76.4786 43.2184 76.2673 43.4875 76.2673ZM55.5125 77.2152H48.7586C48.9252 76.9051 49.0775 76.5891 49.2136 76.2673H55.5125C55.7827 76.2673 56 76.4786 56 76.7412C56 77.0039 55.7827 77.2152 55.5125 77.2152Z" fill="#3E4347"/>
<rect x="58.75" y="66.75" width="15.5" height="15.5" rx="3.25" fill="white" stroke="#C9C9D4" stroke-width="0.5" stroke-dasharray="1 1"/>
<path d="M63.9 72.1596C63.9 72.5092 63.6095 72.7916 63.25 72.7916C62.8905 72.7916 62.6 72.5092 62.6 72.1596V71.5277C62.6 70.4806 63.4552 69.6318 64.55 69.6318C65.6266 69.6318 66.5 70.4806 66.5 71.5277V71.6817C66.5 72.0925 66.4756 72.5032 66.4269 72.912L68.9131 72.1853C69.1447 72.1181 69.3966 72.1813 69.5489 72.3512C69.7358 72.521 69.7927 72.7679 69.7175 72.991L69.3519 74.0377H71.05C71.4095 74.0377 71.7 74.3378 71.7 74.6696C71.7 75.0369 71.4095 75.3016 71.05 75.3016H68.45C68.2408 75.3016 68.0458 75.2226 67.9219 75.0567C67.8 74.8928 67.7675 74.6795 67.8325 74.4879L68.0864 73.7474L66.1689 74.3062C65.9292 75.349 65.5291 76.3502 64.9827 77.2784L64.7003 77.7582C64.4383 78.2046 63.9508 78.4791 63.4227 78.4791C62.6102 78.4791 61.9317 77.8372 61.9317 77.0473V75.6274C61.9317 74.7901 62.5147 74.0515 63.3394 73.8125L65.0538 73.3109C65.1513 72.7738 65.1817 72.2287 65.1817 71.6817V71.5277C65.1817 71.1781 64.9095 70.8957 64.5317 70.8957C64.1905 70.8957 63.8817 71.1781 63.8817 71.5277L63.9 72.1596ZM63.25 75.6274V77.0473C63.25 77.1401 63.3272 77.2152 63.4227 77.2152C63.4836 77.2152 63.5425 77.1836 63.573 77.1303L63.8553 76.6504C64.2108 76.0421 64.4972 75.4003 64.7084 74.7328L63.7131 75.0053C63.4389 75.1021 63.25 75.349 63.25 75.6274ZM60.4875 76.2673H61.3V77.0473C61.3 77.1046 61.3022 77.1599 61.3069 77.2152H60.4875C60.2184 77.2152 60 77.0039 60 76.7412C60 76.4786 60.2184 76.2673 60.4875 76.2673ZM72.5125 77.2152H65.7586C65.9252 76.9051 66.0775 76.5891 66.2136 76.2673H72.5125C72.7827 76.2673 73 76.4786 73 76.7412C73 77.0039 72.7827 77.2152 72.5125 77.2152Z" fill="#3E4347"/>
<rect x="75.75" y="66.75" width="15.5" height="15.5" rx="3.25" fill="white" stroke="#C9C9D4" stroke-width="0.5" stroke-dasharray="1 1"/>
<path d="M80.9 72.1596C80.9 72.5092 80.6095 72.7916 80.25 72.7916C79.8905 72.7916 79.6 72.5092 79.6 72.1596V71.5277C79.6 70.4806 80.4552 69.6318 81.55 69.6318C82.6266 69.6318 83.5 70.4806 83.5 71.5277V71.6817C83.5 72.0925 83.4756 72.5032 83.4269 72.912L85.9131 72.1853C86.1447 72.1181 86.3966 72.1813 86.5489 72.3512C86.7358 72.521 86.7927 72.7679 86.7175 72.991L86.3519 74.0377H88.05C88.4095 74.0377 88.7 74.3378 88.7 74.6696C88.7 75.0369 88.4095 75.3016 88.05 75.3016H85.45C85.2408 75.3016 85.0458 75.2226 84.9219 75.0567C84.8 74.8928 84.7675 74.6795 84.8325 74.4879L85.0864 73.7474L83.1689 74.3062C82.9292 75.349 82.5291 76.3502 81.9827 77.2784L81.7003 77.7582C81.4383 78.2046 80.9508 78.4791 80.4227 78.4791C79.6102 78.4791 78.9317 77.8372 78.9317 77.0473V75.6274C78.9317 74.7901 79.5147 74.0515 80.3394 73.8125L82.0538 73.3109C82.1513 72.7738 82.1817 72.2287 82.1817 71.6817V71.5277C82.1817 71.1781 81.9095 70.8957 81.5317 70.8957C81.1905 70.8957 80.8817 71.1781 80.8817 71.5277L80.9 72.1596ZM80.25 75.6274V77.0473C80.25 77.1401 80.3272 77.2152 80.4227 77.2152C80.4836 77.2152 80.5425 77.1836 80.573 77.1303L80.8553 76.6504C81.2108 76.0421 81.4972 75.4003 81.7084 74.7328L80.7131 75.0053C80.4389 75.1021 80.25 75.349 80.25 75.6274ZM77.4875 76.2673H78.3V77.0473C78.3 77.1046 78.3022 77.1599 78.3069 77.2152H77.4875C77.2184 77.2152 77 77.0039 77 76.7412C77 76.4786 77.2184 76.2673 77.4875 76.2673ZM89.5125 77.2152H82.7586C82.9252 76.9051 83.0775 76.5891 83.2136 76.2673H89.5125C89.7827 76.2673 90 76.4786 90 76.7412C90 77.0039 89.7827 77.2152 89.5125 77.2152Z" fill="#3E4347"/>
</svg>
