<svg width="34" height="33" viewBox="0 0 34 33" fill="none" xmlns="http://www.w3.org/2000/svg">
<path d="M18.4487 11.6397C17.2431 12.3511 15.9922 13.2873 14.7996 14.5068C12.37 17.0109 11.2365 19.6738 10.7031 21.2355C11.3815 21.0575 12.317 20.7743 13.4037 20.32C15.0636 19.6147 17.072 18.5004 19.0082 16.7277C21.9589 14.0386 23.3886 11.0994 24.0402 9.47095C22.9404 9.70194 20.7932 10.2553 18.4487 11.6397Z" fill="#F9B53F"/>
<path d="M0.724725 20.9721C0.625727 20.6291 0.823722 20.2669 1.16599 20.161L3.82051 19.3836C4.16278 19.2846 4.525 19.4826 4.63014 19.8248C4.72914 20.1679 4.53191 20.5301 4.18887 20.636L1.53512 21.4134C1.47603 21.4333 1.41003 21.4403 1.35017 21.4403C1.067 21.4403 0.810676 21.2553 0.724725 20.9721ZM5.96776 5.08188L4.723 1.82571C4.59791 1.48958 4.76213 1.11354 5.09827 0.988449C5.43363 0.85722 5.80967 1.02836 5.93476 1.36449L7.17952 4.62066C7.30461 4.95602 7.13961 5.33206 6.80425 5.45715C6.7252 5.48324 6.64616 5.50319 6.57325 5.50319C6.31616 5.50319 6.06599 5.34511 5.96776 5.08188ZM20.4897 4.40271C20.1873 4.21162 20.1014 3.80259 20.2925 3.50636L21.6953 1.32458C21.8864 1.02145 22.2947 0.936264 22.5909 1.12735C22.894 1.31844 22.9792 1.72671 22.7889 2.0237L21.386 4.20472C21.261 4.3958 21.0499 4.50171 20.8389 4.50171C20.7207 4.50785 20.6017 4.47485 20.4897 4.40271ZM16.5582 18.6323C16.6833 18.6323 16.8084 18.5993 16.9204 18.5202C17.2166 18.3222 17.2957 17.9139 17.0984 17.617C16.6042 16.8787 15.5506 15.5741 14.0948 15.152C12.3696 14.6578 10.7557 15.1259 9.19477 15.5741C8.77345 15.693 8.37823 15.8112 7.9761 15.9033C7.10047 16.1143 6.17803 16.2793 5.42058 16.0353C4.59791 15.7721 3.89264 15.073 3.31324 14.4206C3.07611 14.1505 2.66093 14.1306 2.39771 14.3677C2.12757 14.6056 2.10762 15.0208 2.34475 15.284C3.04311 16.0683 3.90569 16.9186 5.02536 17.2747C6.08594 17.6108 7.21865 17.4197 8.27923 17.1626C8.70745 17.0567 9.13567 16.9386 9.55008 16.8135C10.999 16.3975 12.3627 16.0023 13.7325 16.3914C14.5099 16.6155 15.3395 17.3207 16.0179 18.3291C16.143 18.5264 16.3471 18.6323 16.5582 18.6323Z" fill="#3BA27A"/>
<path d="M7.13454 24.3136C6.78537 24.2345 6.56128 23.8854 6.64032 23.5362L7.00255 21.9346C7.08159 21.5846 7.43077 21.3675 7.77995 21.4404C8.12912 21.5194 8.35244 21.8686 8.2734 22.2178L7.91118 23.8194C7.84595 24.1225 7.57581 24.3266 7.27882 24.3266C7.23277 24.3335 7.18059 24.3266 7.13454 24.3136ZM0.153304 12.793C-0.0776905 12.516 -0.0446913 12.1077 0.232348 11.8767C0.673616 11.5015 1.41725 11.0264 2.45173 10.8684C3.63049 10.6842 4.59207 11.0203 5.05943 11.2375C5.38252 11.3894 5.52756 11.7777 5.37561 12.1008C5.22443 12.4239 4.83535 12.569 4.51303 12.417C4.1769 12.2589 3.49236 12.0218 2.64896 12.1538C1.91838 12.2658 1.38425 12.6081 1.06807 12.879C0.949888 12.9841 0.798706 13.0302 0.653663 13.0302C0.462575 13.0302 0.278393 12.9511 0.153304 12.793ZM19.0089 17.3799C19.2069 17.3799 19.398 17.2947 19.523 17.1297C19.7402 16.8466 19.6873 16.4375 19.4041 16.2204C18.1133 15.2181 17.2968 14.1107 16.9936 12.925C16.6314 11.5145 17.0205 10.2621 17.4349 8.93752C17.8831 7.49399 18.3965 5.85939 17.8831 3.92855C17.573 2.74826 16.9414 1.65468 16.0121 0.679284C15.7619 0.422198 15.3536 0.409152 15.0973 0.659331C14.8402 0.910278 14.8272 1.31855 15.0774 1.57563C15.8548 2.39294 16.3812 3.29543 16.6314 4.25777C17.0466 5.82639 16.6314 7.15096 16.197 8.54843C15.7489 9.99195 15.2815 11.4815 15.7358 13.2474C16.118 14.7239 17.0857 16.0684 18.6136 17.2479C18.7326 17.3408 18.8707 17.3799 19.0089 17.3799Z" fill="#446DB7"/>
<path d="M23.4108 7.58604C23.3317 7.23686 23.5497 6.88769 23.8981 6.80864L25.9271 6.34742C26.2763 6.26838 26.6247 6.48556 26.7045 6.83473C26.7828 7.18391 26.5656 7.53386 26.2164 7.6129L24.1881 8.07412C24.1421 8.08717 24.0892 8.08717 24.0431 8.08717C23.7469 8.08717 23.4767 7.88303 23.4108 7.58604ZM19.0111 16.7345C19.8607 15.9632 20.579 15.172 21.1914 14.4008C21.7055 13.7484 22.1468 13.1092 22.5152 12.5098C23.2465 11.3165 23.7338 10.249 24.0431 9.48464L27.396 18.0061L28.2386 20.148L33.2836 33L31.1172 31.8734L29.2662 30.9111L19.9336 26.0472L17.8914 24.9858L10.7061 21.2423C12.432 20.7872 15.8041 19.6538 19.0111 16.7345ZM11.8787 5.50326C12.0828 5.50326 12.287 5.40503 12.4121 5.22008C12.6162 4.92385 12.544 4.52172 12.2471 4.31759C11.9708 4.1265 11.3054 3.57933 11.1082 2.61698C10.9563 1.87872 11.1604 1.26555 11.2993 0.962419C11.4436 0.633195 11.2993 0.251018 10.9701 0.105975C10.6401 -0.0390674 10.2587 0.105975 10.1136 0.435199C9.91563 0.877235 9.61326 1.78663 9.83658 2.88021C10.1267 4.30378 11.1013 5.10803 11.5096 5.39121C11.6216 5.46412 11.7536 5.50326 11.8787 5.50326Z" fill="#F14947"/>
<path d="M19.0084 24.1555C19.6538 24.1555 20.181 24.6759 20.181 25.3289C20.181 25.5991 20.0889 25.8492 19.937 26.0472L17.8956 24.9859C18.0407 24.5047 18.4881 24.1555 19.0084 24.1555ZM27.3933 18.0062L28.2359 20.1481C28.0578 20.2601 27.8537 20.32 27.6296 20.32C26.9842 20.32 26.4578 19.7989 26.4578 19.1466C26.4578 18.5864 26.8591 18.1113 27.3933 18.0062ZM15.5443 20.4581C16.1897 20.4581 16.7169 20.9853 16.7169 21.6315C16.7169 22.2769 16.1966 22.8041 15.5443 22.8041C14.8989 22.8041 14.3724 22.2838 14.3724 21.6315C14.3724 20.9853 14.8927 20.4581 15.5443 20.4581ZM25.0549 22.9891C25.7003 22.9891 26.2268 23.5094 26.2268 24.1617C26.2268 24.8079 25.7065 25.3351 25.0549 25.3351C24.4026 25.3351 23.8823 24.8148 23.8823 24.1617C23.8823 23.5094 24.4095 22.9891 25.0549 22.9891ZM30.4361 29.7508C31.0815 29.7508 31.6079 30.2719 31.6079 30.9242C31.6079 31.3194 31.4169 31.6625 31.1206 31.8797L29.2635 30.9112C29.2704 30.265 29.7899 29.7508 30.4361 29.7508ZM22.5125 12.503C22.8946 12.6941 23.1579 13.0893 23.1579 13.5505C23.1579 14.1967 22.6375 14.7239 21.986 14.7239C21.676 14.7239 21.3866 14.5988 21.1825 14.4008C21.7028 13.7485 22.1441 13.1093 22.5125 12.503ZM3.16267 7.30986C4.03829 6.96682 5.82332 6.48565 7.89766 7.05277C10.5652 7.78413 11.9619 9.75487 12.4354 10.5722C12.6204 10.8814 12.5145 11.2774 12.2052 11.4616C12.1001 11.5207 11.988 11.5537 11.876 11.5537C11.6519 11.5537 11.4347 11.4355 11.3158 11.2306C10.9213 10.5522 9.76173 8.91761 7.55539 8.31134C5.84327 7.83708 4.36138 8.24535 3.63693 8.52239C3.3008 8.65438 2.92553 8.48248 2.79353 8.15326C2.66154 7.82326 2.82653 7.44109 3.16267 7.30986Z" fill="#F9B53F"/>
<path d="M7.20512 23.8323C7.15908 23.8192 7.13299 23.7793 7.14603 23.7333L7.54739 22.0196C7.56121 21.9736 7.60035 21.9475 7.64639 21.9605C7.69244 21.9736 7.71853 22.0135 7.70548 22.0595L7.30412 23.7732C7.29721 23.8123 7.26422 23.8392 7.22508 23.8392C7.21817 23.8323 7.21203 23.8323 7.20512 23.8323ZM20.7793 3.96755C20.7402 3.94146 20.7263 3.89541 20.7532 3.8555L22.1752 1.59545C22.2021 1.55554 22.2481 1.5494 22.2873 1.56859C22.3272 1.59545 22.3402 1.64149 22.3141 1.68063L20.8913 3.94146C20.8783 3.96755 20.8514 3.98059 20.8253 3.98059C20.8054 3.97446 20.7923 3.97446 20.7793 3.96755ZM11.9601 10.8552C11.5457 10.176 10.3339 8.5222 8.06771 7.79699C5.87441 7.08559 3.96507 7.6719 3.24676 7.94894C3.20762 7.96198 3.16158 7.94203 3.14162 7.90212C3.12167 7.86298 3.14776 7.81003 3.18767 7.79699C4.0963 7.4409 5.95346 6.94054 8.11375 7.6389C10.426 8.3833 11.6708 10.0778 12.099 10.7692C12.1251 10.8091 12.112 10.8552 12.0721 10.8813C12.0591 10.8882 12.046 10.8943 12.033 10.8943C12.0069 10.8943 11.98 10.8813 11.9601 10.8552ZM18.4678 17.2087C18.441 17.1757 18.441 17.1227 18.474 17.0966C19.6995 16.0353 20.7992 14.8296 21.734 13.5112C22.4262 12.5427 23.0317 11.5013 23.5389 10.42C23.5589 10.3809 23.6049 10.3609 23.6441 10.3809C23.684 10.4001 23.7039 10.4461 23.684 10.486C23.1698 11.5735 22.5643 12.6218 21.866 13.6033C20.9243 14.9348 19.8177 16.1542 18.5799 17.2156C18.566 17.2286 18.5469 17.2347 18.5269 17.2347C18.507 17.2347 18.4809 17.2286 18.4678 17.2087ZM16.4326 22.3957C16.3927 22.3688 16.3866 22.3166 16.4127 22.2836C16.7618 21.7955 16.6628 21.1102 16.1886 20.7611C15.9583 20.5899 15.6552 20.517 15.359 20.57C15.0559 20.6229 14.7926 20.7941 14.6215 21.0511C14.5946 21.0903 14.5486 21.0972 14.5095 21.0711C14.4695 21.0442 14.4634 20.9982 14.4895 20.959C14.6867 20.6621 14.9837 20.471 15.3329 20.4119C15.6683 20.352 16.0174 20.4318 16.2876 20.6291C16.8278 21.0312 16.946 21.8155 16.5447 22.3757C16.5308 22.3957 16.5047 22.4087 16.4787 22.4087C16.4656 22.4087 16.4457 22.4018 16.4326 22.3957ZM31.5079 31.3852C31.4687 31.3722 31.4426 31.3262 31.4557 31.2801C31.613 30.792 31.4288 30.2579 31.0075 29.9947C30.6253 29.7575 30.125 29.7836 29.7627 30.0607C29.7297 30.0868 29.6768 30.0806 29.6507 30.0476C29.6246 30.0146 29.6307 29.9617 29.6637 29.9356C30.0851 29.6186 30.6583 29.5856 31.0934 29.8627C31.5808 30.1658 31.791 30.7721 31.6069 31.3392C31.5938 31.3722 31.5608 31.3983 31.5278 31.3983C31.5278 31.3852 31.5217 31.3852 31.5079 31.3852ZM25.0538 25.4078C25.0999 25.4078 25.1329 25.3679 25.1329 25.3287C25.1329 25.2819 25.093 25.2489 25.0538 25.2489C24.4545 25.2489 23.9672 24.7616 23.9672 24.1615C23.9672 23.5621 24.4545 23.0741 25.0538 23.0741C25.0999 23.0741 25.1329 23.0349 25.1329 22.995C25.1329 22.9559 25.093 22.916 25.0538 22.916C24.3624 22.916 23.8022 23.4762 23.8022 24.1684C23.8022 24.8476 24.3624 25.4078 25.0538 25.4078Z" fill="#3A5471"/>
</svg>
