<svg width="683" height="683" viewBox="0 0 683 683" fill="none" xmlns="http://www.w3.org/2000/svg">
<g clip-path="url(#clip0_13538_13961)">
<path d="M284.267 111.734L314.667 110.4L323.733 111.334C358 114.667 388.933 123.734 417.2 138.8C484.533 174.667 534.4 239.2 554.133 315.734C559.333 335.867 559.467 338.134 556.4 341.6C553.733 344.667 551.733 344.534 536.133 341.334C529.2 340 516.267 338.134 507.467 337.334C498.533 336.534 490 335.6 488.533 335.334C485.467 334.667 485.067 333.734 478.667 313.467C469.733 285.2 455.867 262.534 434 240.534C417.6 224 404.667 214.667 384.8 205.2C337.333 182.534 278.533 182.134 231.2 204C177.467 228.8 137.6 282.134 127.467 342.534C124.667 358.8 124.667 392 127.333 404.667C133.467 434 156.933 457.867 186.4 464.8C198.133 467.6 220.267 466.667 230.667 462.934C234.667 461.467 245.333 456.667 254.4 452C273.867 442.134 276.133 442.134 280.267 451.734C282.667 457.067 282.8 458.667 281.467 463.334C275.467 483.867 273.2 495.6 272.4 508.134C270.667 538.934 278.8 572 294.4 597.734C301.6 609.6 301.867 610.934 298.533 615.067C296 618.4 295.067 618.667 286.267 618.667C280.933 618.667 268.267 618 258 617.334C143.867 608.8 76.5333 565.2 56.9333 487.067C51.6 466.134 50.2666 446.134 50.9333 395.334C51.4666 355.2 51.8666 348.267 54.5333 335.334C66.4 276.934 92.4 227.867 133.333 186.667C156.8 162.934 177.867 147.6 206 134C232.533 121.067 254.933 114.667 284.267 111.734Z" fill="#EF6023"/>
<path d="M215.467 266.001C208.667 268.401 204.133 271.867 200.267 277.334C195.467 284.534 194.4 291.067 194.933 312.534C195.333 331.601 195.467 332.934 198.933 338.801C204 347.467 211.733 352.401 221.333 353.067C231.467 353.867 237.867 351.601 244.533 344.801C252.133 337.201 253.333 332.134 253.333 307.867C253.333 284.267 252 279.867 242.933 271.734C234.667 264.267 225.467 262.401 215.467 266.001Z" fill="black"/>
<path d="M379.333 266C372.533 268.4 363.333 278.134 361.467 284.8C360.667 287.6 360 299.067 360 310.134C360 329.334 360.133 330.534 363.733 337.467C366.133 342.134 369.333 346 373.067 348.667C378.4 352.267 379.867 352.667 389.333 352.667C398.933 352.667 400.267 352.267 405.6 348.534C409.067 346 412.8 341.467 415.067 337.334C418.533 330.667 418.667 329.6 418.667 310.4C418.667 299.2 418 288 417.2 285.2C414.933 277.867 408.533 270.8 400.8 267.2C393.067 263.6 387.067 263.334 379.333 266Z" fill="black"/>
<path d="M36.2667 272C15.3333 286 5.73333 306 2.66666 341.733C0.399997 368 0.666664 414.933 3.2 426.533C6 439.733 11.7333 451.6 18.9333 459.2C25.4667 465.867 29.3333 466.933 32.9333 462.667C34.9333 460.4 35.2 455.867 34.8 417.067C34.4 354.933 37.6 328.133 50 291.467C55.0667 276.4 55.6 273.6 54.2667 270.667C51.6 265.2 46 265.6 36.2667 272Z" fill="#005DC7"/>
<path d="M560.933 269.067C557.867 272.534 558 275.067 562.667 288.801C567.467 302.667 573.6 327.067 576 341.334C576.933 346.801 578.267 352.134 579.067 353.067C581.2 355.734 600.8 365.334 604 365.334C605.467 365.334 607.867 364.134 609.467 362.534C611.867 360.134 612.133 358.801 611.333 348.934C608.133 307.201 598.667 285.867 576.8 271.734C568 266.134 564.133 265.467 560.933 269.067Z" fill="#005DC7"/>
<path d="M461.333 352.934C422.8 356.934 381.467 373.334 349.867 397.2L344.267 401.334L340.533 396.934C338.4 394.667 334.667 389.467 332.133 385.6C318.8 364.667 289.6 370.8 287.067 394.934C285.6 409.467 291.467 439.2 298.667 453.334C301.067 458 301.067 458.267 298 465.734C290.8 483.334 288.667 495.2 288.8 518C288.933 541.6 290.667 550.267 299.067 571.334C306.667 590.134 316.267 604.134 334 622C351.6 639.734 365.867 650.134 386.667 660.267C486.667 708.8 613.467 675.467 664 587.2C679.6 560 685.733 526.134 680.667 495.067C675.467 462.667 659.867 434.534 632.933 408.4C601.333 377.867 558.8 358.8 510 353.334C498.667 352.134 471.467 351.867 461.333 352.934ZM389.733 497.867C403.467 503.6 406.8 521.467 396.133 532.134C387.467 540.8 375.2 540.8 366.533 532.134C350 515.734 368.267 488.8 389.733 497.867ZM496.4 497.867C510.133 503.6 513.467 521.467 502.8 532.134C494.133 540.8 481.867 540.8 473.2 532.134C456.667 515.734 474.933 488.8 496.4 497.867ZM597.733 497.867C611.467 503.6 614.8 521.467 604.133 532.134C595.467 540.8 583.2 540.8 574.533 532.134C558 515.734 576.267 488.8 597.733 497.867Z" fill="#91919F"/>
<path d="M273.2 40.3338C278.533 30.0671 286.267 23.6672 297.333 20.2005C302.933 18.6005 311.067 18.8671 318.667 21.1338C323.867 22.7338 327.467 25.0005 332.667 30.0671C343.467 40.8671 346.4 53.1338 341.867 68.3338C339.2 77.2671 328.4 88.6005 320.267 91.1338L314.667 92.7338V111.134H298.667V93.0005L292.4 90.4672C284.133 87.0005 277.867 81.2671 273.6 73.1338C268.8 63.8005 268.533 49.2671 273.2 40.3338Z" fill="#005DC7"/>
</g>
<defs>
<clipPath id="clip0_13538_13961">
<rect width="682.667" height="682.667" fill="white"/>
</clipPath>
</defs>
</svg>
