<svg width="59" height="59" viewBox="0 0 59 59" fill="none" xmlns="http://www.w3.org/2000/svg">
<g clip-path="url(#clip0_4176_27942)">
<path d="M35.3075 14.6098C35.3075 13.7697 35.422 12.9613 35.6022 12.1748H4.87012V17.0448H35.6022C35.422 16.2583 35.3075 15.4499 35.3075 14.6098Z" fill="#89899B" fill-opacity="0.4"/>
<path d="M35.3075 43.8295C35.3075 42.9895 35.422 42.181 35.6022 41.3945H4.87012V46.2645H35.6022C35.422 45.478 35.3075 44.6696 35.3075 43.8295Z" fill="#89899B" fill-opacity="0.4"/>
<path d="M10.9576 29.2197C10.9576 28.3796 11.072 27.5712 11.2522 26.7847H4.87012V31.6547H11.2522C11.072 30.8682 10.9576 30.0597 10.9576 29.2197Z" fill="#89899B" fill-opacity="0.4"/>
<path d="M32.5781 26.7842C32.7583 27.5707 32.8728 28.3791 32.8728 29.2192C32.8728 30.0592 32.7583 30.8677 32.5781 31.6542H53.5702V26.7842H32.5781Z" fill="#89899B" fill-opacity="0.4"/>
<path d="M46.2649 21.9151C50.2994 21.9151 53.5699 18.6446 53.5699 14.6102C53.5699 10.5757 50.2994 7.30518 46.2649 7.30518C42.2305 7.30518 38.96 10.5757 38.96 14.6102C38.96 18.6446 42.2305 21.9151 46.2649 21.9151Z" fill="#89899B"/>
<path d="M21.9153 36.525C25.9498 36.525 29.2203 33.2545 29.2203 29.22C29.2203 25.1856 25.9498 21.915 21.9153 21.915C17.8809 21.915 14.6104 25.1856 14.6104 29.22C14.6104 33.2545 17.8809 36.525 21.9153 36.525Z" fill="#89899B"/>
<path d="M46.2649 51.1354C50.2994 51.1354 53.5699 47.8648 53.5699 43.8304C53.5699 39.7959 50.2994 36.5254 46.2649 36.5254C42.2305 36.5254 38.96 39.7959 38.96 43.8304C38.96 47.8648 42.2305 51.1354 46.2649 51.1354Z" fill="#89899B"/>
</g>
<defs>
<clipPath id="clip0_4176_27942">
<rect width="58.4399" height="58.4399" fill="white"/>
</clipPath>
</defs>
</svg>
