<svg width="48" height="48" viewBox="0 0 48 48" fill="none" xmlns="http://www.w3.org/2000/svg">
<path fill-rule="evenodd" clip-rule="evenodd" d="M22.938 3.43775C23.0773 3.29806 23.2429 3.18723 23.4251 3.11161C23.6073 3.03599 23.8027 2.99707 24 2.99707C24.1973 2.99707 24.3927 3.03599 24.5749 3.11161C24.7571 3.18723 24.9227 3.29806 25.062 3.43775L43.062 21.4378C43.2012 21.5773 43.3115 21.7429 43.3867 21.9252C43.4619 22.1074 43.5004 22.3026 43.5 22.4998V43.4998C43.5 43.8976 43.342 44.2791 43.0607 44.5604C42.7794 44.8417 42.3978 44.9998 42 44.9998H28.5C28.1022 44.9998 27.7206 44.8417 27.4393 44.5604C27.158 44.2791 27 43.8976 27 43.4998V31.4998H21V43.4998C21 43.8976 20.842 44.2791 20.5607 44.5604C20.2794 44.8417 19.8978 44.9998 19.5 44.9998H6C5.60218 44.9998 5.22065 44.8417 4.93934 44.5604C4.65804 44.2791 4.5 43.8976 4.5 43.4998V22.4998C4.49965 22.3026 4.53815 22.1074 4.61331 21.9252C4.68846 21.7429 4.7988 21.5773 4.938 21.4378L22.938 3.43775ZM7.5 23.1208V41.9998H18V29.9998C18 29.6019 18.158 29.2204 18.4393 28.9391C18.7206 28.6578 19.1022 28.4998 19.5 28.4998H28.5C28.8978 28.4998 29.2794 28.6578 29.5607 28.9391C29.842 29.2204 30 29.6019 30 29.9998V41.9998H40.5V23.1208L24 6.62075L7.5 23.1208Z" fill="black"/>
<path fill-rule="evenodd" clip-rule="evenodd" d="M39 7.5V18L33 12V7.5C33 7.10218 33.158 6.72064 33.4393 6.43934C33.7206 6.15804 34.1022 6 34.5 6H37.5C37.8978 6 38.2794 6.15804 38.5607 6.43934C38.842 6.72064 39 7.10218 39 7.5Z" fill="black"/>
</svg>
