<svg width="20" height="20" viewBox="0 0 20 20" fill="none" xmlns="http://www.w3.org/2000/svg">
<path fill-rule="evenodd" clip-rule="evenodd" d="M6.25 17.5V15C6.25 14.6685 6.1183 14.3505 5.88388 14.1161C5.64946 13.8817 5.33152 13.75 5 13.75H2.5C2.16848 13.75 1.85054 13.8817 1.61612 14.1161C1.3817 14.3505 1.25 14.6685 1.25 15V17.5C1.25 17.8315 1.3817 18.1495 1.61612 18.3839C1.85054 18.6183 2.16848 18.75 2.5 18.75H5C5.33152 18.75 5.64946 18.6183 5.88388 18.3839C6.1183 18.1495 6.25 17.8315 6.25 17.5ZM6.25 11.25V8.75C6.25 8.41848 6.1183 8.10054 5.88388 7.86612C5.64946 7.6317 5.33152 7.5 5 7.5H2.5C2.16848 7.5 1.85054 7.6317 1.61612 7.86612C1.3817 8.10054 1.25 8.41848 1.25 8.75V11.25C1.25 11.5815 1.3817 11.8995 1.61612 12.1339C1.85054 12.3683 2.16848 12.5 2.5 12.5H5C5.33152 12.5 5.64946 12.3683 5.88388 12.1339C6.1183 11.8995 6.25 11.5815 6.25 11.25ZM6.25 5V2.5C6.25 2.16848 6.1183 1.85054 5.88388 1.61612C5.64946 1.3817 5.33152 1.25 5 1.25H2.5C2.16848 1.25 1.85054 1.3817 1.61612 1.61612C1.3817 1.85054 1.25 2.16848 1.25 2.5V5C1.25 5.33152 1.3817 5.64946 1.61612 5.88388C1.85054 6.1183 2.16848 6.25 2.5 6.25H5C5.33152 6.25 5.64946 6.1183 5.88388 5.88388C6.1183 5.64946 6.25 5.33152 6.25 5ZM12.5 17.5V15C12.5 14.6685 12.3683 14.3505 12.1339 14.1161C11.8995 13.8817 11.5815 13.75 11.25 13.75H8.75C8.41848 13.75 8.10054 13.8817 7.86612 14.1161C7.6317 14.3505 7.5 14.6685 7.5 15V17.5C7.5 17.8315 7.6317 18.1495 7.86612 18.3839C8.10054 18.6183 8.41848 18.75 8.75 18.75H11.25C11.5815 18.75 11.8995 18.6183 12.1339 18.3839C12.3683 18.1495 12.5 17.8315 12.5 17.5ZM12.5 11.25V8.75C12.5 8.41848 12.3683 8.10054 12.1339 7.86612C11.8995 7.6317 11.5815 7.5 11.25 7.5H8.75C8.41848 7.5 8.10054 7.6317 7.86612 7.86612C7.6317 8.10054 7.5 8.41848 7.5 8.75V11.25C7.5 11.5815 7.6317 11.8995 7.86612 12.1339C8.10054 12.3683 8.41848 12.5 8.75 12.5H11.25C11.5815 12.5 11.8995 12.3683 12.1339 12.1339C12.3683 11.8995 12.5 11.5815 12.5 11.25ZM12.5 5V2.5C12.5 2.16848 12.3683 1.85054 12.1339 1.61612C11.8995 1.3817 11.5815 1.25 11.25 1.25H8.75C8.41848 1.25 8.10054 1.3817 7.86612 1.61612C7.6317 1.85054 7.5 2.16848 7.5 2.5V5C7.5 5.33152 7.6317 5.64946 7.86612 5.88388C8.10054 6.1183 8.41848 6.25 8.75 6.25H11.25C11.5815 6.25 11.8995 6.1183 12.1339 5.88388C12.3683 5.64946 12.5 5.33152 12.5 5ZM11.25 2.5H8.75V5H11.25V2.5ZM17.5 2.5H15V5H17.5V2.5ZM5 8.75H2.5V11.25H5V8.75ZM11.25 8.75H8.75V11.25H11.25V8.75ZM17.5 8.75H15V11.25H17.5V8.75ZM5 15H2.5V17.5H5V15ZM11.25 15H8.75V17.5H11.25V15ZM17.5 15H15V17.5H17.5V15ZM15 1.25C14.6685 1.25 14.3505 1.3817 14.1161 1.61612C13.8817 1.85054 13.75 2.16848 13.75 2.5V5C13.75 5.33152 13.8817 5.64946 14.1161 5.88388C14.3505 6.1183 14.6685 6.25 15 6.25H17.5C17.8315 6.25 18.1495 6.1183 18.3839 5.88388C18.6183 5.64946 18.75 5.33152 18.75 5V2.5C18.75 2.16848 18.6183 1.85054 18.3839 1.61612C18.1495 1.3817 17.8315 1.25 17.5 1.25H15ZM13.75 8.75C13.75 8.41848 13.8817 8.10054 14.1161 7.86612C14.3505 7.6317 14.6685 7.5 15 7.5H17.5C17.8315 7.5 18.1495 7.6317 18.3839 7.86612C18.6183 8.10054 18.75 8.41848 18.75 8.75V11.25C18.75 11.5815 18.6183 11.8995 18.3839 12.1339C18.1495 12.3683 17.8315 12.5 17.5 12.5H15C14.6685 12.5 14.3505 12.3683 14.1161 12.1339C13.8817 11.8995 13.75 11.5815 13.75 11.25V8.75ZM15 13.75C14.6685 13.75 14.3505 13.8817 14.1161 14.1161C13.8817 14.3505 13.75 14.6685 13.75 15V17.5C13.75 17.8315 13.8817 18.1495 14.1161 18.3839C14.3505 18.6183 14.6685 18.75 15 18.75H17.5C17.8315 18.75 18.1495 18.6183 18.3839 18.3839C18.6183 18.1495 18.75 17.8315 18.75 17.5V15C18.75 14.6685 18.6183 14.3505 18.3839 14.1161C18.1495 13.8817 17.8315 13.75 17.5 13.75H15Z" fill="black"/>
</svg>
