<svg width="48" height="48" viewBox="0 0 48 48" fill="none" xmlns="http://www.w3.org/2000/svg">
<path fill-rule="evenodd" clip-rule="evenodd" d="M8.034 35.682C8.34539 35.9946 8.584 36.372 8.73282 36.7874C8.88165 37.2027 8.93702 37.6458 8.895 38.085C8.68416 40.1177 8.28443 42.1264 7.701 44.085C11.886 43.116 14.442 41.994 15.603 41.406C16.2615 41.0725 17.0199 40.9934 17.733 41.184C19.7773 41.729 21.8843 42.0033 24 42C35.988 42 45 33.579 45 24C45 14.424 35.988 6 24 6C12.012 6 3 14.424 3 24C3 28.404 4.851 32.49 8.034 35.682ZM6.555 47.397C5.84421 47.5379 5.13111 47.6669 4.416 47.784C3.816 47.88 3.36 47.256 3.597 46.698C3.86338 46.0698 4.10753 45.4324 4.329 44.787L4.338 44.757C5.082 42.597 5.688 40.113 5.91 37.8C2.229 34.11 0 29.28 0 24C0 12.402 10.746 3 24 3C37.254 3 48 12.402 48 24C48 35.598 37.254 45 24 45C21.623 45.0032 19.2558 44.6946 16.959 44.082C15.399 44.871 12.042 46.308 6.555 47.397Z" fill="black"/>
</svg>
