<svg width="48" height="48" viewBox="0 0 48 48" fill="none" xmlns="http://www.w3.org/2000/svg">
<path d="M12 3H36C37.5913 3 39.1174 3.63214 40.2426 4.75736C41.3679 5.88258 42 7.4087 42 9V39C42 40.5913 41.3679 42.1174 40.2426 43.2426C39.1174 44.3679 37.5913 45 36 45H12C10.4087 45 8.88258 44.3679 7.75736 43.2426C6.63214 42.1174 6 40.5913 6 39H9C9 39.7957 9.31607 40.5587 9.87868 41.1213C10.4413 41.6839 11.2044 42 12 42H36C36.7956 42 37.5587 41.6839 38.1213 41.1213C38.6839 40.5587 39 39.7957 39 39V9C39 8.20435 38.6839 7.44129 38.1213 6.87868C37.5587 6.31607 36.7956 6 36 6H12C11.2044 6 10.4413 6.31607 9.87868 6.87868C9.31607 7.44129 9 8.20435 9 9H6C6 7.4087 6.63214 5.88258 7.75736 4.75736C8.88258 3.63214 10.4087 3 12 3Z" fill="black"/>
<path d="M6 15V13.5C6 13.1022 6.15804 12.7206 6.43934 12.4393C6.72064 12.158 7.10218 12 7.5 12C7.89782 12 8.27936 12.158 8.56066 12.4393C8.84196 12.7206 9 13.1022 9 13.5V15H10.5C10.8978 15 11.2794 15.158 11.5607 15.4393C11.842 15.7206 12 16.1022 12 16.5C12 16.8978 11.842 17.2794 11.5607 17.5607C11.2794 17.842 10.8978 18 10.5 18H4.5C4.10218 18 3.72064 17.842 3.43934 17.5607C3.15804 17.2794 3 16.8978 3 16.5C3 16.1022 3.15804 15.7206 3.43934 15.4393C3.72064 15.158 4.10218 15 4.5 15H6ZM6 24V22.5C6 22.1022 6.15804 21.7206 6.43934 21.4393C6.72064 21.158 7.10218 21 7.5 21C7.89782 21 8.27936 21.158 8.56066 21.4393C8.84196 21.7206 9 22.1022 9 22.5V24H10.5C10.8978 24 11.2794 24.158 11.5607 24.4393C11.842 24.7206 12 25.1022 12 25.5C12 25.8978 11.842 26.2794 11.5607 26.5607C11.2794 26.842 10.8978 27 10.5 27H4.5C4.10218 27 3.72064 26.842 3.43934 26.5607C3.15804 26.2794 3 25.8978 3 25.5C3 25.1022 3.15804 24.7206 3.43934 24.4393C3.72064 24.158 4.10218 24 4.5 24H6ZM6 33V31.5C6 31.1022 6.15804 30.7206 6.43934 30.4393C6.72064 30.158 7.10218 30 7.5 30C7.89782 30 8.27936 30.158 8.56066 30.4393C8.84196 30.7206 9 31.1022 9 31.5V33H10.5C10.8978 33 11.2794 33.158 11.5607 33.4393C11.842 33.7206 12 34.1022 12 34.5C12 34.8978 11.842 35.2794 11.5607 35.5607C11.2794 35.842 10.8978 36 10.5 36H4.5C4.10218 36 3.72064 35.842 3.43934 35.5607C3.15804 35.2794 3 34.8978 3 34.5C3 34.1022 3.15804 33.7206 3.43934 33.4393C3.72064 33.158 4.10218 33 4.5 33H6Z" fill="black"/>
<path fill-rule="evenodd" clip-rule="evenodd" d="M15 31.5C15 31.1022 15.158 30.7206 15.4393 30.4393C15.7206 30.158 16.1022 30 16.5 30H22.5C22.8978 30 23.2794 30.158 23.5607 30.4393C23.842 30.7206 24 31.1022 24 31.5C24 31.8978 23.842 32.2794 23.5607 32.5607C23.2794 32.842 22.8978 33 22.5 33H16.5C16.1022 33 15.7206 32.842 15.4393 32.5607C15.158 32.2794 15 31.8978 15 31.5ZM15 25.5C15 25.1022 15.158 24.7206 15.4393 24.4393C15.7206 24.158 16.1022 24 16.5 24H31.5C31.8978 24 32.2794 24.158 32.5607 24.4393C32.842 24.7206 33 25.1022 33 25.5C33 25.8978 32.842 26.2794 32.5607 26.5607C32.2794 26.842 31.8978 27 31.5 27H16.5C16.1022 27 15.7206 26.842 15.4393 26.5607C15.158 26.2794 15 25.8978 15 25.5ZM15 19.5C15 19.1022 15.158 18.7206 15.4393 18.4393C15.7206 18.158 16.1022 18 16.5 18H31.5C31.8978 18 32.2794 18.158 32.5607 18.4393C32.842 18.7206 33 19.1022 33 19.5C33 19.8978 32.842 20.2794 32.5607 20.5607C32.2794 20.842 31.8978 21 31.5 21H16.5C16.1022 21 15.7206 20.842 15.4393 20.5607C15.158 20.2794 15 19.8978 15 19.5ZM15 13.5C15 13.1022 15.158 12.7206 15.4393 12.4393C15.7206 12.158 16.1022 12 16.5 12H31.5C31.8978 12 32.2794 12.158 32.5607 12.4393C32.842 12.7206 33 13.1022 33 13.5C33 13.8978 32.842 14.2794 32.5607 14.5607C32.2794 14.842 31.8978 15 31.5 15H16.5C16.1022 15 15.7206 14.842 15.4393 14.5607C15.158 14.2794 15 13.8978 15 13.5Z" fill="black"/>
</svg>
