<svg width="40" height="40" viewBox="0 0 40 40" fill="none" xmlns="http://www.w3.org/2000/svg">
<rect width="40" height="40" rx="20" fill="#F0F2F5"/>
<path d="M28.9008 17.5158L25.2342 13.8492C25.1487 13.7637 25.0472 13.6959 24.9356 13.6497C24.8239 13.6034 24.7042 13.5796 24.5833 13.5796C24.3392 13.5796 24.1051 13.6766 23.9325 13.8492C23.7599 14.0218 23.6629 14.2559 23.6629 14.5C23.6629 14.7441 23.7599 14.9782 23.9325 15.1508L26.0408 17.25H15.4167C15.1736 17.25 14.9404 17.3466 14.7685 17.5185C14.5966 17.6904 14.5 17.9236 14.5 18.1667C14.5 18.4098 14.5966 18.6429 14.7685 18.8149C14.9404 18.9868 15.1736 19.0833 15.4167 19.0833H28.25C28.431 19.0824 28.6076 19.028 28.7577 18.9268C28.9078 18.8257 29.0246 18.6824 29.0933 18.515C29.1635 18.3481 29.1827 18.1641 29.1484 17.9863C29.1142 17.8084 29.028 17.6447 28.9008 17.5158Z" fill="#99AAB5"/>
<path d="M11.75 20.9165H24.5833C24.8264 20.9165 25.0596 21.0131 25.2315 21.185C25.4034 21.3569 25.5 21.5901 25.5 21.8332C25.5 22.0763 25.4034 22.3094 25.2315 22.4814C25.0596 22.6533 24.8264 22.7498 24.5833 22.7498H13.9591L16.0675 24.849C16.1534 24.9342 16.2216 25.0356 16.2681 25.1473C16.3147 25.259 16.3386 25.3788 16.3386 25.4998C16.3386 25.6208 16.3147 25.7407 16.2681 25.8524C16.2216 25.9641 16.1534 26.0655 16.0675 26.1507C15.9822 26.2366 15.8809 26.3048 15.7692 26.3513C15.6575 26.3979 15.5376 26.4218 15.4166 26.4218C15.2956 26.4218 15.1758 26.3979 15.0641 26.3513C14.9524 26.3048 14.851 26.2366 14.7658 26.1507L11.0991 22.484C10.9719 22.3551 10.8858 22.1914 10.8515 22.0136C10.8173 21.8358 10.8364 21.6518 10.9066 21.4848C10.9754 21.3174 11.0922 21.1741 11.2423 21.073C11.3923 20.9719 11.569 20.9174 11.75 20.9165Z" fill="#99AAB5" fill-opacity="0.6"/>
</svg>
