<svg width="40" height="40" viewBox="0 0 40 40" fill="none" xmlns="http://www.w3.org/2000/svg">
<rect width="40" height="40" rx="20" fill="#F0F2F5"/>
<path d="M25.9585 11V13.6667C25.9585 14.4 25.3397 15 24.5835 15C23.8272 15 23.2085 14.4 23.2085 13.6667V10.6667C23.2085 10.48 23.3597 10.3333 23.5522 10.3333C23.7447 10.3333 23.896 10.48 23.896 10.6667V13.6667H25.271V10.6667C25.271 9.74667 24.501 9 23.5522 9C22.6035 9 21.8335 9.74667 21.8335 10.6667V13.6667C21.8335 15.14 23.0641 16.3333 24.5835 16.3333C26.1029 16.3333 27.3335 15.14 27.3335 13.6667V11H25.9585Z" fill="#99AAB5" fill-opacity="0.6"/>
<path d="M21.2221 15.9468V10.8335H13.5832C13.0752 10.8335 12.6665 11.2358 12.6665 11.7358V29.1812C12.6665 29.6812 13.0752 30.0835 13.5832 30.0835H26.4165C26.9245 30.0835 27.3332 29.6812 27.3332 29.1812V16.8491H22.1387C21.6346 16.8491 21.2221 16.4431 21.2221 15.9468ZM23.6665 24.8198C23.6665 25.068 23.4603 25.271 23.2082 25.271H16.7915C16.5394 25.271 16.3332 25.068 16.3332 24.8198V24.519C16.3332 24.2709 16.5394 24.0679 16.7915 24.0679H23.2082C23.4603 24.0679 23.6665 24.2709 23.6665 24.519V24.8198ZM23.6665 22.4136C23.6665 22.6617 23.4603 22.8647 23.2082 22.8647H16.7915C16.5394 22.8647 16.3332 22.6617 16.3332 22.4136V22.1128C16.3332 21.8646 16.5394 21.6616 16.7915 21.6616H23.2082C23.4603 21.6616 23.6665 21.8646 23.6665 22.1128V22.4136ZM23.6665 19.7065V20.0073C23.6665 20.2555 23.4603 20.4585 23.2082 20.4585H16.7915C16.5394 20.4585 16.3332 20.2555 16.3332 20.0073V19.7065C16.3332 19.4584 16.5394 19.2554 16.7915 19.2554H23.2082C23.4603 19.2554 23.6665 19.4584 23.6665 19.7065Z" fill="#99AAB5"/>
</svg>
