<svg width="40" height="41" viewBox="0 0 40 41" fill="none" xmlns="http://www.w3.org/2000/svg">
<rect y="0.5" width="40" height="40" rx="20" fill="#F0F2F5"/>
<path d="M19.9999 25.6647C19.4227 25.6647 18.8454 25.4869 18.3525 25.1307L11 19.8194V27.3125C11 28.2445 11.7555 29 12.6875 29H27.3124C28.2444 29 28.9999 28.2445 28.9999 27.3125V19.8194L21.6473 25.1307C21.1545 25.4865 20.5772 25.6647 19.9999 25.6647ZM28.3534 16.7288C28.0422 16.4848 27.7473 16.2552 27.3124 15.9269V14.3751C27.3124 13.4431 26.5569 12.6876 25.6249 12.6876H22.8985C22.7917 12.6103 22.6922 12.5378 22.5807 12.457C21.9898 12.0256 20.8156 10.9878 19.9999 11.0001C19.1843 10.9878 18.0105 12.0256 17.4191 12.457C17.3077 12.5378 17.2082 12.6103 17.1013 12.6876H14.375C13.443 12.6876 12.6875 13.4431 12.6875 14.3751V15.9269C12.2526 16.2549 11.9576 16.4848 11.6465 16.7288C11.4451 16.8866 11.2823 17.0882 11.1703 17.3182C11.0583 17.5483 11 17.8008 11 18.0566V18.431L14.375 20.8691V14.3751H25.6249V20.8691L28.9999 18.431V18.0566C28.9999 17.5384 28.7615 17.0487 28.3534 16.7288Z" fill="#99AAB5"/>
<path d="M22.8125 18.5937H17.1875C16.8767 18.5937 16.625 18.342 16.625 18.0312V17.4687C16.625 17.158 16.8767 16.9062 17.1875 16.9062H20H22.8125C23.1232 16.9062 23.375 17.158 23.375 17.4687V18.0312C23.375 18.342 23.1232 18.5937 22.8125 18.5937Z" fill="#99AAB5" fill-opacity="0.6"/>
<path d="M17.1875 21.9687C16.8767 21.9687 16.625 21.717 16.625 21.4062V20.8437C16.625 20.5329 16.8767 20.2812 17.1875 20.2812H22.8125C23.1232 20.2812 23.375 20.5329 23.375 20.8437V21.4062C23.375 21.717 23.1232 21.9687 22.8125 21.9687H17.1875Z" fill="#99AAB5" fill-opacity="0.6"/>
</svg>
