<svg width="40" height="40" viewBox="0 0 40 40" fill="none" xmlns="http://www.w3.org/2000/svg">
<rect width="40" height="40" rx="20" fill="#F0F2F5"/>
<g clip-path="url(#clip0_7419_33443)">
<path d="M27.2732 13.9437L25.3309 12.0216L26.3629 11L29.9993 14.6L26.3629 18.2L25.3309 17.1784L27.2732 15.2563H22.7266V13.9437H27.2732Z" fill="#99AAB5" fill-opacity="0.6"/>
<path d="M22.7116 18.6108C23.1666 19.0171 23.6909 19.3485 24.2651 19.5856C23.8161 20.6471 22.8676 21.4524 21.712 21.7112C21.6382 21.6811 21.5638 21.6519 21.4888 21.6234C22.18 20.7904 22.6247 19.7494 22.7116 18.6108Z" fill="#99AAB5"/>
<path d="M20.9094 18.1996C20.9094 20.1841 19.2785 21.7996 17.2731 21.7996C15.2685 21.7996 13.6367 20.1841 13.6367 18.1996C13.6367 16.2151 15.2676 14.5996 17.2731 14.5996C19.2785 14.5996 20.9094 16.2151 20.9094 18.1996Z" fill="#99AAB5"/>
<path d="M10 28.1002C10 24.9205 12.9909 22.7002 17.2727 22.7002C21.5555 22.7002 24.5455 24.9205 24.5455 28.1002V29.0002H10V28.1002Z" fill="#99AAB5"/>
<path d="M28.1844 29H26.3663V28.1C26.3663 26.1199 25.5135 24.416 24.1128 23.1763C26.6113 23.9919 28.1844 25.7936 28.1844 28.1V29Z" fill="#99AAB5"/>
</g>
<defs>
<clipPath id="clip0_7419_33443">
<rect width="20" height="18" fill="white" transform="translate(10 11)"/>
</clipPath>
</defs>
</svg>
