<svg width="40" height="41" viewBox="0 0 40 41" fill="none" xmlns="http://www.w3.org/2000/svg">
<rect y="0.170898" width="40" height="40" rx="20" fill="#F0F2F5"/>
<path d="M11.7151 13.1445H19.6237C19.5284 13.4304 19.5284 13.8115 19.5284 14.0974C19.5284 17.8135 22.4823 20.7673 26.1983 20.7673C26.4842 20.7673 26.8653 20.7673 27.1511 20.672V25.1504C27.1511 26.1032 26.3888 26.8655 25.436 26.8655H17.718L14.2878 30.2957V26.8655H11.7151C10.7623 26.8655 10 26.1032 10 25.1504V14.8596C10 13.9068 10.7623 13.1445 11.7151 13.1445V13.1445Z" fill="#99AAB5"/>
<path d="M30.0148 14.0019L26.0129 10L24.8695 11.2387L26.7751 13.1444H22.3921V14.8595H26.7751L24.8695 16.7652L26.1082 18.0039L30.0148 14.0019Z" fill="#99AAB5" fill-opacity="0.6"/>
</svg>
