<svg width="18" height="18" viewBox="0 0 18 18" fill="none" xmlns="http://www.w3.org/2000/svg">
<path opacity="0.4" d="M11.625 10.4062V7.59375C11.625 7.12775 11.2473 6.75 10.7813 6.75H7.21874C6.75274 6.75 6.37499 7.12775 6.37499 7.59375V10.4062C6.37499 10.8722 6.75274 11.25 7.21874 11.25H10.7812C11.2473 11.25 11.625 10.8722 11.625 10.4062ZM12.75 1.96875V4.78125C12.75 5.24725 13.1278 5.625 13.5938 5.625H17.1562C17.6222 5.625 18 5.24725 18 4.78125V1.96875C18 1.50275 17.6222 1.125 17.1562 1.125H13.5938C13.1278 1.125 12.75 1.50275 12.75 1.96875ZM11.625 4.78125V1.96875C11.625 1.50275 11.2473 1.125 10.7813 1.125H7.21874C6.75274 1.125 6.37499 1.50275 6.37499 1.96875V4.78125C6.37499 5.24725 6.75274 5.625 7.21874 5.625H10.7812C11.2473 5.625 11.625 5.24725 11.625 4.78125ZM4.40624 6.75H0.84375C0.377754 6.75 0 7.12775 0 7.59375V10.4062C0 10.8722 0.377754 11.25 0.84375 11.25H4.40624C4.87223 11.25 5.24999 10.8722 5.24999 10.4062V7.59375C5.24999 7.12775 4.87223 6.75 4.40624 6.75ZM0 13.2188V16.0312C0 16.4972 0.377754 16.875 0.84375 16.875H4.40624C4.87223 16.875 5.24999 16.4972 5.24999 16.0312V13.2188C5.24999 12.7528 4.87223 12.375 4.40624 12.375H0.84375C0.377754 12.375 0 12.7528 0 13.2188ZM13.5938 11.25H17.1562C17.6222 11.25 18 10.8722 18 10.4062V7.59375C18 7.12775 17.6222 6.75 17.1562 6.75H13.5938C13.1278 6.75 12.75 7.12775 12.75 7.59375V10.4062C12.75 10.8722 13.1278 11.25 13.5938 11.25ZM13.5938 16.875H17.1562C17.6222 16.875 18 16.4972 18 16.0312V13.2188C18 12.7528 17.6222 12.375 17.1562 12.375H13.5938C13.1278 12.375 12.75 12.7528 12.75 13.2188V16.0312C12.75 16.4972 13.1278 16.875 13.5938 16.875ZM6.37499 13.2188V16.0312C6.37499 16.4972 6.75274 16.875 7.21874 16.875H10.7812C11.2472 16.875 11.625 16.4972 11.625 16.0312V13.2188C11.625 12.7528 11.2472 12.375 10.7812 12.375H7.21874C6.75274 12.375 6.37499 12.7528 6.37499 13.2188Z" fill="#CECEDD"/>
<path d="M5.24999 4.78125V1.96875C5.24999 1.50275 4.87223 1.125 4.40624 1.125H0.84375C0.377754 1.125 0 1.50275 0 1.96875V4.78125C0 5.24725 0.377754 5.625 0.84375 5.625H4.40624C4.87223 5.625 5.24999 5.24725 5.24999 4.78125Z" fill="#CECEDD"/>
</svg>
