<svg width="18" height="18" viewBox="0 0 18 18" fill="none" xmlns="http://www.w3.org/2000/svg">
<g clip-path="url(#clip0_13221_7095)">
<path fill-rule="evenodd" clip-rule="evenodd" d="M0.5625 0C0.711684 0 0.854758 0.0592632 0.960248 0.164752C1.06574 0.270242 1.125 0.413316 1.125 0.5625V17.4375C1.125 17.5867 1.06574 17.7298 0.960248 17.8352C0.854758 17.9407 0.711684 18 0.5625 18C0.413316 18 0.270242 17.9407 0.164752 17.8352C0.0592632 17.7298 0 17.5867 0 17.4375V0.5625C0 0.413316 0.0592632 0.270242 0.164752 0.164752C0.270242 0.0592632 0.413316 0 0.5625 0V0Z" fill="#89899B" fill-opacity="0.4"/>
<path d="M7.3125 1.125H2.8125C2.50184 1.125 2.25 1.37684 2.25 1.6875V2.8125C2.25 3.12316 2.50184 3.375 2.8125 3.375H7.3125C7.62316 3.375 7.875 3.12316 7.875 2.8125V1.6875C7.875 1.37684 7.62316 1.125 7.3125 1.125Z" fill="#89899B"/>
<path d="M12.9375 5.625H5.0625C4.75184 5.625 4.5 5.87684 4.5 6.1875V7.3125C4.5 7.62316 4.75184 7.875 5.0625 7.875H12.9375C13.2482 7.875 13.5 7.62316 13.5 7.3125V6.1875C13.5 5.87684 13.2482 5.625 12.9375 5.625Z" fill="#89899B"/>
<path d="M6.75 10.6875C6.75 10.5383 6.80926 10.3952 6.91475 10.2898C7.02024 10.1843 7.16332 10.125 7.3125 10.125H14.0625C14.2117 10.125 14.3548 10.1843 14.4602 10.2898C14.5657 10.3952 14.625 10.5383 14.625 10.6875V11.8125C14.625 11.9617 14.5657 12.1048 14.4602 12.2102C14.3548 12.3157 14.2117 12.375 14.0625 12.375H7.3125C7.16332 12.375 7.02024 12.3157 6.91475 12.2102C6.80926 12.1048 6.75 11.9617 6.75 11.8125V10.6875ZM9 15.1875C9 15.0383 9.05926 14.8952 9.16475 14.7898C9.27024 14.6843 9.41332 14.625 9.5625 14.625H17.4375C17.5867 14.625 17.7298 14.6843 17.8352 14.7898C17.9407 14.8952 18 15.0383 18 15.1875V16.3125C18 16.4617 17.9407 16.6048 17.8352 16.7102C17.7298 16.8157 17.5867 16.875 17.4375 16.875H9.5625C9.41332 16.875 9.27024 16.8157 9.16475 16.7102C9.05926 16.6048 9 16.4617 9 16.3125V15.1875Z" fill="#89899B"/>
</g>
<defs>
<clipPath id="clip0_13221_7095">
<rect width="18" height="18" fill="white"/>
</clipPath>
</defs>
</svg>
