<svg width="18" height="18" viewBox="0 0 18 18" fill="none" xmlns="http://www.w3.org/2000/svg">
<path opacity="0.4" d="M2.9252 9.15H8.3252V10.5H9.6752V9.15H15.0752V10.5H16.4252V8.88028C16.4252 8.28487 15.9406 7.8 15.3449 7.8H9.6752V6H10.8002C11.2972 6 11.7002 5.59697 11.7002 5.1V2.4C11.7002 1.90303 11.2972 1.5 10.8002 1.5H7.2002C6.70323 1.5 6.3002 1.90303 6.3002 2.4V5.1C6.3002 5.59697 6.70323 6 7.2002 6H8.3252V7.8H2.65548C2.05979 7.8 1.5752 8.28459 1.5752 8.88028V10.5H2.9252V9.15Z" fill="#CECEDD"/>
<path d="M0.9 11.3999H3.6C4.09697 11.3999 4.5 11.8029 4.5 12.2999V14.9999C4.5 15.4969 4.09697 15.8999 3.6 15.8999H0.9C0.403031 15.8999 0 15.4969 0 14.9999V12.2999C0 11.8029 0.403031 11.3999 0.9 11.3999Z" fill="#CECEDD"/>
<path d="M7.65 11.3999H10.35C10.847 11.3999 11.25 11.8029 11.25 12.2999V14.9999C11.25 15.4969 10.847 15.8999 10.35 15.8999H7.65C7.15303 15.8999 6.75 15.4969 6.75 14.9999V12.2999C6.75 11.8029 7.15303 11.3999 7.65 11.3999Z" fill="#CECEDD"/>
<path d="M14.4 11.3999H17.1C17.597 11.3999 18 11.8029 18 12.2999V14.9999C18 15.4969 17.597 15.8999 17.1 15.8999H14.4C13.903 15.8999 13.5 15.4969 13.5 14.9999V12.2999C13.5 11.8029 13.903 11.3999 14.4 11.3999Z" fill="#CECEDD"/>
</svg>
