<svg width="18" height="18" viewBox="0 0 18 18" fill="none" xmlns="http://www.w3.org/2000/svg">
<path opacity="0.4" d="M10.4062 1.125H17.1562C17.6222 1.125 18 1.50275 18 1.96875V7.59375C18 8.05975 17.6222 8.4375 17.1562 8.4375H10.4062C9.94025 8.4375 9.5625 8.05975 9.5625 7.59375V1.96875C9.5625 1.50275 9.94025 1.125 10.4062 1.125ZM0 10.4062V16.0312C0 16.4972 0.377754 16.875 0.84375 16.875H7.59375C8.05975 16.875 8.4375 16.4972 8.4375 16.0312V10.4062C8.4375 9.94025 8.05975 9.5625 7.59375 9.5625H0.84375C0.377754 9.5625 0 9.94025 0 10.4062ZM10.4062 16.875H17.1562C17.6222 16.875 18 16.4972 18 16.0312V10.4062C18 9.94025 17.6222 9.5625 17.1562 9.5625H10.4062C9.94025 9.5625 9.5625 9.94025 9.5625 10.4062V16.0312C9.5625 16.4972 9.94025 16.875 10.4062 16.875Z" fill="#CECEDD"/>
<path d="M0.84375 1.125H7.59375C8.05975 1.125 8.4375 1.50275 8.4375 1.96875V7.59375C8.4375 8.05975 8.05975 8.4375 7.59375 8.4375H0.84375C0.377754 8.4375 0 8.05975 0 7.59375V1.96875C0 1.50275 0.377754 1.125 0.84375 1.125Z" fill="#CECEDD"/>
</svg>
