<svg width="18" height="18" viewBox="0 0 18 18" fill="none" xmlns="http://www.w3.org/2000/svg">
<g clip-path="url(#clip0_2253_26842)">
<path d="M16.875 4.40624V0.84375C16.875 0.377754 16.4972 0 16.0312 0L13.2187 0C12.7528 0 12.375 0.377754 12.375 0.84375V4.40624C12.375 4.87223 12.7528 5.24999 13.2187 5.24999L16.0312 5.24999C16.4972 5.24999 16.875 4.87223 16.875 4.40624Z" fill="#CECEDD"/>
<path opacity="0.4" d="M13.2187 6.375L16.0312 6.375C16.4972 6.375 16.875 6.75275 16.875 7.21875L16.875 17.1563C16.875 17.6223 16.4972 18 16.0312 18H13.2187C12.7528 18 12.375 17.6223 12.375 17.1563L12.375 7.21875C12.375 6.75275 12.7528 6.375 13.2187 6.375Z" fill="#CECEDD"/>
<path opacity="0.4" d="M6.75 17.1563L6.75 7.21875C6.75 6.75275 7.12775 6.375 7.59375 6.375L10.4062 6.375C10.8722 6.375 11.25 6.75275 11.25 7.21875L11.25 17.1563C11.25 17.6223 10.8722 18 10.4062 18H7.59375C7.12775 18 6.75 17.6223 6.75 17.1563Z" fill="#CECEDD"/>
<path opacity="0.4" d="M1.125 17.1563L1.125 7.21875C1.125 6.75275 1.50275 6.375 1.96875 6.375L4.78125 6.375C5.24725 6.375 5.625 6.75275 5.625 7.21875L5.625 17.1563C5.625 17.6223 5.24725 18 4.78125 18H1.96875C1.50275 18 1.125 17.6223 1.125 17.1563Z" fill="#CECEDD"/>
<path d="M7.59375 5.24999L10.4062 5.24999C10.8722 5.24999 11.25 4.87223 11.25 4.40624V0.84375C11.25 0.377754 10.8722 0 10.4062 0L7.59375 0C7.12775 0 6.75 0.377754 6.75 0.84375L6.75 4.40624C6.75 4.87223 7.12775 5.24999 7.59375 5.24999Z" fill="#CECEDD"/>
<path d="M1.96875 0L4.78125 0C5.24725 0 5.625 0.377754 5.625 0.84375L5.625 4.40624C5.625 4.87223 5.24725 5.24999 4.78125 5.24999L1.96875 5.24999C1.50275 5.24999 1.125 4.87223 1.125 4.40624L1.125 0.84375C1.125 0.377754 1.50275 0 1.96875 0Z" fill="#CECEDD"/>
</g>
<defs>
<clipPath id="clip0_2253_26842">
<rect width="18" height="18" fill="white" transform="translate(18) rotate(90)"/>
</clipPath>
</defs>
</svg>
