<svg width="24" height="24" viewBox="0 0 24 24" fill="none" xmlns="http://www.w3.org/2000/svg">
<g clip-path="url(#clip0_5197_33143)">
<path fill-rule="evenodd" clip-rule="evenodd" d="M6.81 0.219C6.95056 0.0787966 7.14097 4.21785e-05 7.3395 0L16.6605 0C16.859 4.21785e-05 17.0494 0.0787966 17.19 0.219L23.781 6.81C23.9212 6.95056 24 7.14097 24 7.3395V16.6605C24 16.859 23.9212 17.0494 23.781 17.19L17.19 23.781C17.0494 23.9212 16.859 24 16.6605 24H7.3395C7.14097 24 6.95056 23.9212 6.81 23.781L0.219 17.19C0.0787966 17.0494 4.21785e-05 16.859 0 16.6605L0 7.3395C4.21785e-05 7.14097 0.0787966 6.95056 0.219 6.81L6.81 0.219ZM7.65 1.5L1.5 7.65V16.35L7.65 22.5H16.35L22.5 16.35V7.65L16.35 1.5H7.65Z" fill="#6D767D"/>
</g>
<path d="M9.1001 9.82324L7.19336 16H5.16846L8.04199 8.17969H9.32568L9.1001 9.82324ZM10.6792 16L8.76709 9.82324L8.52002 8.17969H9.81982L12.7095 16H10.6792ZM10.604 13.0835V14.5391H6.5918V13.0835H10.604ZM15.8247 16H14.0898L14.1006 14.5498H15.8247C16.1828 14.5498 16.4854 14.4639 16.7324 14.292C16.9831 14.1201 17.1729 13.8641 17.3018 13.5239C17.4342 13.1802 17.5005 12.7576 17.5005 12.2563V11.918C17.5005 11.542 17.4629 11.2126 17.3877 10.9297C17.3161 10.6432 17.2087 10.4051 17.0654 10.2153C16.9222 10.022 16.7432 9.87695 16.5283 9.78027C16.3171 9.68359 16.0736 9.63525 15.7979 9.63525H14.0576V8.17969H15.7979C16.3278 8.17969 16.813 8.271 17.2534 8.45361C17.6974 8.63265 18.0806 8.89046 18.4028 9.22705C18.7287 9.56006 18.9793 9.95573 19.1548 10.4141C19.3338 10.8688 19.4233 11.3737 19.4233 11.9287V12.2563C19.4233 12.8078 19.3338 13.3127 19.1548 13.771C18.9793 14.2293 18.7305 14.625 18.4082 14.958C18.0859 15.291 17.7046 15.5488 17.2642 15.7314C16.8273 15.9105 16.3475 16 15.8247 16ZM15.1694 8.17969V16H13.2842V8.17969H15.1694Z" fill="#3E4347"/>
<defs>
<clipPath id="clip0_5197_33143">
<rect width="24" height="24" fill="white"/>
</clipPath>
</defs>
</svg>
