<svg width="24" height="24" viewBox="0 0 24 24" fill="none" xmlns="http://www.w3.org/2000/svg">
<g clip-path="url(#clip0_13259_15556)">
<path fill-rule="evenodd" clip-rule="evenodd" d="M6.81 0.219C6.95056 0.0787966 7.14097 4.21785e-05 7.3395 0L16.6605 0C16.859 4.21785e-05 17.0494 0.0787966 17.19 0.219L23.781 6.81C23.9212 6.95056 24 7.14097 24 7.3395V16.6605C24 16.859 23.9212 17.0494 23.781 17.19L17.19 23.781C17.0494 23.9212 16.859 24 16.6605 24H7.3395C7.14097 24 6.95056 23.9212 6.81 23.781L0.219 17.19C0.0787966 17.0494 4.21785e-05 16.859 0 16.6605L0 7.3395C4.21785e-05 7.14097 0.0787966 6.95056 0.219 6.81L6.81 0.219ZM7.65 1.5L1.5 7.65V16.35L7.65 22.5H16.35L22.5 16.35V7.65L16.35 1.5H7.65Z" fill="#6D767D"/>
</g>
<path d="M9.05664 13.3467H7.1123V11.8911H9.05664C9.32161 11.8911 9.53646 11.8464 9.70117 11.7568C9.86589 11.6673 9.98584 11.5438 10.061 11.3862C10.1398 11.2251 10.1792 11.0443 10.1792 10.8438C10.1792 10.6289 10.1398 10.4302 10.061 10.2476C9.98584 10.0649 9.86589 9.91813 9.70117 9.80713C9.53646 9.69255 9.32161 9.63525 9.05664 9.63525H7.82129V16H5.93604V8.17969H9.05664C9.68327 8.17969 10.2222 8.29427 10.6733 8.52344C11.1281 8.7526 11.4772 9.06771 11.7207 9.46875C11.9642 9.86621 12.0859 10.321 12.0859 10.833C12.0859 11.3379 11.9642 11.7783 11.7207 12.1543C11.4772 12.5303 11.1281 12.8239 10.6733 13.0352C10.2222 13.2428 9.68327 13.3467 9.05664 13.3467ZM18.4829 14.5498V16H14.3149V14.5498H18.4829ZM14.9863 8.17969V16H13.1011V8.17969H14.9863ZM17.9458 11.2842V12.686H14.3149V11.2842H17.9458ZM18.499 8.17969V9.63525H14.3149V8.17969H18.499Z" fill="#3E4347"/>
<defs>
<clipPath id="clip0_13259_15556">
<rect width="24" height="24" fill="white"/>
</clipPath>
</defs>
</svg>
