<svg width="24" height="24" viewBox="0 0 24 24" fill="none" xmlns="http://www.w3.org/2000/svg">
<g clip-path="url(#clip0_5197_33171)">
<path fill-rule="evenodd" clip-rule="evenodd" d="M6.81 0.219C6.95056 0.0787966 7.14097 4.21785e-05 7.3395 0L16.6605 0C16.859 4.21785e-05 17.0494 0.0787966 17.19 0.219L23.781 6.81C23.9212 6.95056 24 7.14097 24 7.3395V16.6605C24 16.859 23.9212 17.0494 23.781 17.19L17.19 23.781C17.0494 23.9212 16.859 24 16.6605 24H7.3395C7.14097 24 6.95056 23.9212 6.81 23.781L0.219 17.19C0.0787966 17.0494 4.21785e-05 16.859 0 16.6605L0 7.3395C4.21785e-05 7.14097 0.0787966 6.95056 0.219 6.81L6.81 0.219ZM7.65 1.5L1.5 7.65V16.35L7.65 22.5H16.35L22.5 16.35V7.65L16.35 1.5H7.65Z" fill="#6D767D"/>
</g>
<path d="M8.86328 13.3467H6.91895V11.8911H8.86328C9.12826 11.8911 9.3431 11.8464 9.50781 11.7568C9.67253 11.6673 9.79248 11.5438 9.86768 11.3862C9.94645 11.2251 9.98584 11.0443 9.98584 10.8438C9.98584 10.6289 9.94645 10.4302 9.86768 10.2476C9.79248 10.0649 9.67253 9.91813 9.50781 9.80713C9.3431 9.69255 9.12826 9.63525 8.86328 9.63525H7.62793V16H5.74268V8.17969H8.86328C9.48991 8.17969 10.0288 8.29427 10.48 8.52344C10.9347 8.7526 11.2839 9.06771 11.5273 9.46875C11.7708 9.86621 11.8926 10.321 11.8926 10.833C11.8926 11.3379 11.7708 11.7783 11.5273 12.1543C11.2839 12.5303 10.9347 12.8239 10.48 13.0352C10.0288 13.2428 9.48991 13.3467 8.86328 13.3467ZM15.2656 9.82324L13.3589 16H11.334L14.2075 8.17969H15.4912L15.2656 9.82324ZM16.8447 16L14.9326 9.82324L14.6855 8.17969H15.9854L18.875 16H16.8447ZM16.7695 13.0835V14.5391H12.7573V13.0835H16.7695Z" fill="#3E4347"/>
<defs>
<clipPath id="clip0_5197_33171">
<rect width="24" height="24" fill="white"/>
</clipPath>
</defs>
</svg>
