<svg width="20" height="20" viewBox="0 0 20 20" fill="none" xmlns="http://www.w3.org/2000/svg">
<path d="M13.3174 9.17344C14.8572 9.17344 16.158 7.80938 16.158 6.04453C16.158 4.32188 14.8502 3 13.3174 3C11.7846 3 10.4768 4.34297 10.4838 6.05859C10.4838 7.80937 11.7775 9.17344 13.3174 9.17344ZM8.92988 15.7125H17.6979C18.858 15.7125 19.2588 15.3609 19.2588 14.7141C19.2588 12.907 16.9596 10.418 13.3174 10.418C9.66816 10.418 7.37598 12.907 7.37598 14.7141C7.37598 15.3609 7.77676 15.7125 8.92988 15.7125Z" fill="#3E4347"/>
<g opacity="0.6">
<path d="M7.65 6.60684C7.65 8.13965 6.51797 9.33496 5.175 9.33496C3.83906 9.33496 2.70703 8.13965 2.70703 6.6209C2.7 5.12324 3.84609 3.95605 5.175 3.95605C6.51094 3.95605 7.65 5.10215 7.65 6.60684Z" fill="#3E4347"/>
<path d="M6.57422 15.7193H1.30078C0.351562 15.7193 0 15.3186 0 14.6225C0 12.717 2.03203 10.4037 5.175 10.4037C6.44063 10.4037 7.45312 10.7693 8.22656 11.2686C6.6375 12.5201 5.82188 14.6436 6.57422 15.7193Z" fill="#3E4347"/>
</g>
</svg>
