<svg width="24" height="24" viewBox="0 0 24 24" fill="none" xmlns="http://www.w3.org/2000/svg">
<g clip-path="url(#clip0_5186_33130)">
<path fill-rule="evenodd" clip-rule="evenodd" d="M6.81 0.219C6.95056 0.0787966 7.14097 4.21785e-05 7.3395 0L16.6605 0C16.859 4.21785e-05 17.0494 0.0787966 17.19 0.219L23.781 6.81C23.9212 6.95056 24 7.14097 24 7.3395V16.6605C24 16.859 23.9212 17.0494 23.781 17.19L17.19 23.781C17.0494 23.9212 16.859 24 16.6605 24H7.3395C7.14097 24 6.95056 23.9212 6.81 23.781L0.219 17.19C0.0787966 17.0494 4.21785e-05 16.859 0 16.6605L0 7.3395C4.21785e-05 7.14097 0.0787966 6.95056 0.219 6.81L6.81 0.219ZM7.65 1.5L1.5 7.65V16.35L7.65 22.5H16.35L22.5 16.35V7.65L16.35 1.5H7.65Z" fill="#6D767D"/>
</g>
<path d="M7.33789 9.82324L5.43115 16H3.40625L6.27979 8.17969H7.56348L7.33789 9.82324ZM8.91699 16L7.00488 9.82324L6.75781 8.17969H8.05762L10.9473 16H8.91699ZM8.8418 13.0835V14.5391H4.82959V13.0835H8.8418ZM12.4565 8.17969H13.9927L15.7383 13.6206L17.4839 8.17969H19.02L16.3613 16H15.1152L12.4565 8.17969ZM11.522 8.17969H13.1118L13.4072 14.1738V16H11.522V8.17969ZM18.3647 8.17969H19.96V16H18.0693V14.1738L18.3647 8.17969Z" fill="#3E4347"/>
<defs>
<clipPath id="clip0_5186_33130">
<rect width="24" height="24" fill="white"/>
</clipPath>
</defs>
</svg>
