<svg width="40" height="40" viewBox="0 0 40 40" fill="none" xmlns="http://www.w3.org/2000/svg">
<rect width="40" height="40" rx="20" fill="#F1F1FA"/>
<path d="M12.8828 28.5332H27.9385C29.8369 28.5332 30.8213 27.5576 30.8213 25.6855V14.9805C30.8213 13.1084 29.8369 12.1328 27.9385 12.1328H12.8828C10.9844 12.1328 10 13.0996 10 14.9805V25.6855C10 27.5576 10.9844 28.5332 12.8828 28.5332ZM13.7266 24.1123C12.8652 24.1123 12.4346 23.6904 12.4346 22.8379V17.8369C12.4346 16.9844 12.8652 16.5537 13.7266 16.5537H18.6836C19.5625 16.5537 19.9932 16.9844 19.9932 17.8369V22.8379C19.9932 23.6904 19.5625 24.1123 18.6836 24.1123H13.7266ZM25.1436 24.0244C22.9287 24.0244 21.4521 22.5566 21.4521 20.3418C21.4521 18.127 22.9375 16.6328 25.1084 16.6328C27.209 16.6328 28.668 17.9951 28.668 19.9639C28.668 21.3965 28 22.3457 26.9717 22.3457C26.5322 22.3457 26.1543 22.1523 25.9521 21.8271C25.6885 22.1523 25.3193 22.3369 24.8887 22.3369C23.9043 22.3369 23.2188 21.5371 23.2188 20.3506C23.2188 19.1992 23.9043 18.3643 24.8623 18.3643C25.2666 18.3643 25.5654 18.5137 25.7852 18.7422V18.6807C25.8467 18.5049 26.04 18.3643 26.2422 18.3643C26.5146 18.3643 26.7256 18.5752 26.7256 18.8652V21.0801C26.7256 21.3262 26.8223 21.4229 27.0684 21.4229C27.4727 21.4229 27.7363 20.8867 27.7363 20.0166C27.7363 18.54 26.6729 17.5645 25.1084 17.5645C23.5352 17.5645 22.4541 18.6982 22.4541 20.3506C22.4541 22.0469 23.5088 23.0664 25.249 23.0664C25.8115 23.0664 26.0664 22.9609 26.3389 22.917C26.4531 22.8994 26.5322 22.8818 26.6201 22.8818C26.8662 22.8818 27.042 23.0664 27.042 23.3125C27.042 23.5498 26.8838 23.708 26.6289 23.8223C26.2861 23.9629 25.7236 24.0244 25.1436 24.0244ZM16.2139 21.0537C16.9961 21.0537 17.6201 20.377 17.6201 19.5068C17.6201 18.6807 16.9961 18.0039 16.2139 18.0039C15.4229 18.0039 14.8076 18.6807 14.8076 19.5068C14.8076 20.377 15.4229 21.0537 16.2139 21.0537ZM25.0381 21.3789C25.5127 21.3789 25.8115 20.9746 25.8115 20.3066C25.8115 19.6738 25.5127 19.2959 25.0469 19.2959C24.5723 19.2959 24.2822 19.6738 24.2822 20.3242C24.2822 20.9922 24.5635 21.3789 25.0381 21.3789ZM13.5332 23.1982H18.8945C18.6045 22.4072 17.5938 21.7041 16.2139 21.7041C14.8252 21.7041 13.8232 22.4072 13.5332 23.1982Z" fill="#3E4347"/>
</svg>
