<svg width="20" height="20" viewBox="0 0 20 20" fill="none" xmlns="http://www.w3.org/2000/svg">
<path opacity="0.6" d="M2.47148 16.1991C2.34727 16.2616 2.24492 16.3202 2.16133 16.3749C2.01953 16.4687 2.02031 16.6562 2.16172 16.7499C2.50586 16.9765 3.06563 17.2109 3.84102 17.4257C5.37891 17.8163 7.55859 18.1249 10 18.1249C12.4414 18.1249 14.6211 17.8163 16.1602 17.4257C16.9336 17.2109 17.4961 16.9765 17.8398 16.7499C17.9805 16.6562 17.9805 16.4687 17.8398 16.3749C17.7539 16.3202 17.6523 16.2616 17.5273 16.1991C16.9297 15.8632 16.0117 15.6171 14.832 15.3984C14.3203 15.3046 13.9844 14.8163 14.0781 14.3085C14.1719 13.8007 14.6602 13.4609 15.168 13.5546C16.4375 13.7851 17.5469 14.1093 18.3711 14.5234C18.7812 14.7304 19.1641 14.9804 19.4531 15.289C19.75 15.6054 20 16.0351 20 16.5624C20 17.3984 19.3945 17.9726 18.8633 18.3202C18.2891 18.6952 17.5234 18.996 16.6562 19.2343C14.9141 19.7148 12.5625 19.9999 10 19.9999C7.4375 19.9999 5.08594 19.7148 3.34258 19.2343C2.47813 18.996 1.71055 18.6952 1.1375 18.3202C0.603906 17.9726 0 17.3984 0 16.5624C0 16.0351 0.249063 15.6054 0.545313 15.289C0.8375 14.9804 1.22031 14.7304 1.62969 14.5234C2.45117 14.1093 3.56406 13.7851 4.83203 13.5546C5.33984 13.4609 5.82812 13.8007 5.92188 14.3085C5.98047 14.8163 5.67969 15.3046 5.16797 15.3984C3.98828 15.6171 3.06914 15.8632 2.47148 16.1991Z" fill="#3E4347"/>
<path d="M10 5C11.3789 5 12.5 3.88086 12.5 2.5C12.5 1.11914 11.3789 0 10 0C8.62109 0 7.5 1.11914 7.5 2.5C7.5 3.88086 8.62109 5 10 5Z" fill="#3E4347"/>
<path d="M13.75 8.75C13.75 7.37109 12.6289 6.25 11.25 6.25H8.75C7.37109 6.25 6.25 7.37109 6.25 8.75V10.625C6.25 11.3164 6.80859 11.875 7.5 11.875H7.57031L8 15.7617C8.07031 16.3945 8.60547 16.875 9.24219 16.875H10.7578C11.3945 16.875 11.9297 16.3945 12 15.7617L12.4297 11.875H12.5C13.1914 11.875 13.75 11.3164 13.75 10.625V8.75Z" fill="#3E4347"/>
</svg>
