<svg width="24" height="24" viewBox="0 0 24 24" fill="none" xmlns="http://www.w3.org/2000/svg">
<g clip-path="url(#clip0_5197_33163)">
<path fill-rule="evenodd" clip-rule="evenodd" d="M6.81 0.219C6.95056 0.0787966 7.14097 4.21785e-05 7.3395 0L16.6605 0C16.859 4.21785e-05 17.0494 0.0787966 17.19 0.219L23.781 6.81C23.9212 6.95056 24 7.14097 24 7.3395V16.6605C24 16.859 23.9212 17.0494 23.781 17.19L17.19 23.781C17.0494 23.9212 16.859 24 16.6605 24H7.3395C7.14097 24 6.95056 23.9212 6.81 23.781L0.219 17.19C0.0787966 17.0494 4.21785e-05 16.859 0 16.6605L0 7.3395C4.21785e-05 7.14097 0.0787966 6.95056 0.219 6.81L6.81 0.219ZM7.65 1.5L1.5 7.65V16.35L7.65 22.5H16.35L22.5 16.35V7.65L16.35 1.5H7.65Z" fill="#6D767D"/>
</g>
<path d="M6.55908 13.3521H8.43896C8.4139 13.8963 8.26709 14.3761 7.99854 14.7915C7.72998 15.2069 7.35758 15.5309 6.88135 15.7637C6.40869 15.9928 5.8501 16.1074 5.20557 16.1074C4.68278 16.1074 4.21549 16.0197 3.80371 15.8442C3.39551 15.6688 3.04818 15.4163 2.76172 15.0869C2.47884 14.7575 2.26221 14.3582 2.11182 13.8892C1.96501 13.4201 1.8916 12.8919 1.8916 12.3047V11.8804C1.8916 11.2931 1.96859 10.765 2.12256 10.2959C2.28011 9.82324 2.50212 9.4222 2.78857 9.09277C3.07861 8.75977 3.42594 8.50553 3.83057 8.33008C4.23519 8.15462 4.68457 8.06689 5.17871 8.06689C5.85905 8.06689 6.43376 8.18864 6.90283 8.43213C7.37191 8.67562 7.73535 9.01042 7.99316 9.43652C8.25098 9.85905 8.40316 10.3407 8.44971 10.8813H6.56982C6.56266 10.5877 6.51253 10.3424 6.41943 10.1455C6.32633 9.94499 6.17952 9.7946 5.979 9.69434C5.77848 9.59408 5.51172 9.54395 5.17871 9.54395C4.94596 9.54395 4.74365 9.58691 4.57178 9.67285C4.3999 9.75879 4.25667 9.89486 4.14209 10.0811C4.02751 10.2673 3.94157 10.509 3.88428 10.8062C3.83057 11.0998 3.80371 11.4543 3.80371 11.8696V12.3047C3.80371 12.7201 3.82878 13.0745 3.87891 13.3682C3.92904 13.6618 4.0096 13.9017 4.12061 14.0879C4.23161 14.2741 4.37484 14.4119 4.55029 14.5015C4.72933 14.5874 4.94775 14.6304 5.20557 14.6304C5.49202 14.6304 5.73372 14.5856 5.93066 14.4961C6.1276 14.403 6.27979 14.2633 6.38721 14.0771C6.49463 13.8874 6.55192 13.6457 6.55908 13.3521ZM14.7124 14.5498V16H10.5444V14.5498H14.7124ZM11.2158 8.17969V16H9.33057V8.17969H11.2158ZM14.1753 11.2842V12.686H10.5444V11.2842H14.1753ZM14.7285 8.17969V9.63525H10.5444V8.17969H14.7285ZM22.103 11.9341V12.251C22.103 12.849 22.0189 13.3861 21.8506 13.8623C21.6859 14.335 21.4513 14.7396 21.147 15.0762C20.8426 15.4092 20.4827 15.6652 20.0674 15.8442C19.652 16.0197 19.1937 16.1074 18.6924 16.1074C18.1875 16.1074 17.7256 16.0197 17.3066 15.8442C16.8913 15.6652 16.5296 15.4092 16.2217 15.0762C15.9173 14.7396 15.681 14.335 15.5127 13.8623C15.348 13.3861 15.2656 12.849 15.2656 12.251V11.9341C15.2656 11.3361 15.348 10.799 15.5127 10.3228C15.681 9.84652 15.9155 9.44189 16.2163 9.10889C16.5207 8.7723 16.8805 8.51628 17.2959 8.34082C17.7148 8.16178 18.1768 8.07227 18.6816 8.07227C19.1829 8.07227 19.6413 8.16178 20.0566 8.34082C20.4756 8.51628 20.8372 8.7723 21.1416 9.10889C21.446 9.44189 21.6823 9.84652 21.8506 10.3228C22.0189 10.799 22.103 11.3361 22.103 11.9341ZM20.1909 12.251V11.9233C20.1909 11.5366 20.1569 11.1965 20.0889 10.9028C20.0244 10.6056 19.9277 10.3568 19.7988 10.1562C19.6699 9.95573 19.5106 9.80534 19.3208 9.70508C19.1346 9.60124 18.9215 9.54932 18.6816 9.54932C18.431 9.54932 18.2126 9.60124 18.0264 9.70508C17.8402 9.80534 17.6844 9.95573 17.5591 10.1562C17.4338 10.3568 17.3389 10.6056 17.2744 10.9028C17.2135 11.1965 17.1831 11.5366 17.1831 11.9233V12.251C17.1831 12.6341 17.2135 12.9743 17.2744 13.2715C17.3389 13.5651 17.4338 13.814 17.5591 14.0181C17.688 14.2222 17.8455 14.3761 18.0317 14.48C18.2215 14.5838 18.4417 14.6357 18.6924 14.6357C18.9323 14.6357 19.1453 14.5838 19.3315 14.48C19.5177 14.3761 19.6735 14.2222 19.7988 14.0181C19.9277 13.814 20.0244 13.5651 20.0889 13.2715C20.1569 12.9743 20.1909 12.6341 20.1909 12.251Z" fill="#3E4347"/>
<defs>
<clipPath id="clip0_5197_33163">
<rect width="24" height="24" fill="white"/>
</clipPath>
</defs>
</svg>
