<svg width="24" height="24" viewBox="0 0 24 24" fill="none" xmlns="http://www.w3.org/2000/svg">
<g clip-path="url(#clip0_5197_33151)">
<path fill-rule="evenodd" clip-rule="evenodd" d="M6.81 0.219C6.95056 0.0787966 7.14097 4.21785e-05 7.3395 0L16.6605 0C16.859 4.21785e-05 17.0494 0.0787966 17.19 0.219L23.781 6.81C23.9212 6.95056 24 7.14097 24 7.3395V16.6605C24 16.859 23.9212 17.0494 23.781 17.19L17.19 23.781C17.0494 23.9212 16.859 24 16.6605 24H7.3395C7.14097 24 6.95056 23.9212 6.81 23.781L0.219 17.19C0.0787966 17.0494 4.21785e-05 16.859 0 16.6605L0 7.3395C4.21785e-05 7.14097 0.0787966 6.95056 0.219 6.81L6.81 0.219ZM7.65 1.5L1.5 7.65V16.35L7.65 22.5H16.35L22.5 16.35V7.65L16.35 1.5H7.65Z" fill="#6D767D"/>
</g>
<path d="M9.91064 16H8.17578L8.18652 14.5498H9.91064C10.2687 14.5498 10.5713 14.4639 10.8184 14.292C11.069 14.1201 11.2588 13.8641 11.3877 13.5239C11.5202 13.1802 11.5864 12.7576 11.5864 12.2563V11.918C11.5864 11.542 11.5488 11.2126 11.4736 10.9297C11.402 10.6432 11.2946 10.4051 11.1514 10.2153C11.0081 10.022 10.8291 9.87695 10.6143 9.78027C10.403 9.68359 10.1595 9.63525 9.88379 9.63525H8.14355V8.17969H9.88379C10.4137 8.17969 10.8989 8.271 11.3394 8.45361C11.7834 8.63265 12.1665 8.89046 12.4888 9.22705C12.8146 9.56006 13.0653 9.95573 13.2407 10.4141C13.4198 10.8688 13.5093 11.3737 13.5093 11.9287V12.2563C13.5093 12.8078 13.4198 13.3127 13.2407 13.771C13.0653 14.2293 12.8164 14.625 12.4941 14.958C12.1719 15.291 11.7905 15.5488 11.3501 15.7314C10.9132 15.9105 10.4334 16 9.91064 16ZM9.25537 8.17969V16H7.37012V8.17969H9.25537ZM16.4956 8.17969V16H14.6157V8.17969H16.4956Z" fill="#3E4347"/>
<defs>
<clipPath id="clip0_5197_33151">
<rect width="24" height="24" fill="white"/>
</clipPath>
</defs>
</svg>
