<svg width="54" height="54" viewBox="0 0 54 54" fill="none" xmlns="http://www.w3.org/2000/svg">
<rect x="1.5" y="1.5" width="50.0222" height="50.0222" rx="11.5" fill="#00524E" stroke="white" stroke-width="3"/>
<path d="M26.4528 29.2373C19.8672 29.2373 15.2695 32.7322 15.2695 37.7373V40.5707H37.636V37.7373C37.636 32.7322 33.0383 29.2373 26.4528 29.2373ZM25.0548 36.3207C24.2818 36.3207 23.6569 35.6874 23.6569 34.904C23.6569 34.1206 24.2818 33.4873 25.0548 33.4873C25.8279 33.4873 26.4528 34.1206 26.4528 34.904C26.4528 35.6874 25.8279 36.3207 25.0548 36.3207ZM29.2486 36.3207C28.4755 36.3207 27.8507 35.6874 27.8507 34.904C27.8507 34.1206 28.4755 33.4873 29.2486 33.4873C30.0216 33.4873 30.6465 34.1206 30.6465 34.904C30.6465 35.6874 30.0216 36.3207 29.2486 36.3207Z" fill="white"/>
<path d="M34.8402 17.9041H34.7144C34.0462 13.8907 30.6003 10.8208 26.4528 10.8208C22.3052 10.8208 18.8593 13.8907 18.1911 17.9041H18.0653C16.5221 17.9041 15.2695 19.1735 15.2695 20.7375V22.1541C15.2695 23.7181 16.5221 24.9875 18.0653 24.9875C18.0653 26.5486 19.3193 27.8208 20.8611 27.8208H32.0444C33.5876 27.8208 34.8402 26.5486 34.8402 24.9875C36.3835 24.9875 37.636 23.7181 37.636 22.1541V20.7375C37.636 19.1735 36.3835 17.9041 34.8402 17.9041ZM32.0444 23.5708H20.8611V17.9041H32.0444V23.5708Z" fill="white"/>
</svg>
