<svg width="36" height="36" viewBox="0 0 36 36" fill="none" xmlns="http://www.w3.org/2000/svg">
<path d="M36 18C36 27.941 27.941 36 18 36C8.06 36 0 27.941 0 18C0 8.06 8.06 0 18 0C27.941 0 36 8.06 36 18Z" fill="#FFCC4D"/>
<path d="M18 22C14.377 22 11.973 21.578 9 21C8.321 20.869 7 21 7 23C7 27 11.595 32 18 32C24.404 32 29 27 29 23C29 21 27.679 20.868 27 21C24.027 21.578 21.623 22 18 22Z" fill="#664500"/>
<path d="M9 23C9 23 12 24 18 24C24 24 27 23 27 23C27 23 25 27 18 27C11 27 9 23 9 23Z" fill="white"/>
<path d="M30.6 18.2C30.486 18.115 28.669 16.774 25.954 15.856C25.98 15.741 26 15.623 26 15.5C26 15.131 25.861 14.797 25.641 14.536C27.443 14.016 28.975 14 29.002 14C29.553 13.998 30 13.55 29.999 12.998C29.998 12.447 29.552 12 29 12C28.779 12 23.5489 12.038 20.2929 15.293C20.0069 15.579 19.921 16.009 20.076 16.383C20.23 16.756 20.596 17 21 17C25.59 17 29.3629 19.772 29.4009 19.801C29.5809 19.935 29.791 19.999 29.999 19.999C30.304 19.999 30.604 19.86 30.801 19.599C31.131 19.156 31.041 18.531 30.6 18.2V18.2ZM15.707 15.293C12.452 12.038 7.22095 12 6.99995 12C6.44795 12 6.00095 12.447 6.00095 12.998C5.99995 13.55 6.44695 13.998 6.99895 14C7.02495 14 8.55695 14.016 10.36 14.536C10.139 14.797 9.99995 15.131 9.99995 15.5C9.99995 15.623 10.019 15.741 10.047 15.856C7.33095 16.774 5.51395 18.115 5.39995 18.2C4.95795 18.531 4.86895 19.158 5.19995 19.599C5.39595 19.862 5.69695 20 6.00095 20C6.20895 20 6.41995 19.935 6.59995 19.8C6.63695 19.772 10.387 17 15 17C15.404 17 15.769 16.756 15.924 16.383C16.079 16.009 15.993 15.579 15.707 15.293V15.293Z" fill="#664500"/>
</svg>
