<svg width="36" height="36" viewBox="0 0 36 36" fill="none" xmlns="http://www.w3.org/2000/svg">
<circle cx="18" cy="18" r="18" fill="#0057FF"/>
<path d="M15.4987 25.5007H22.9987C23.6904 25.5007 24.282 25.084 24.532 24.484L27.0487 18.609C27.1237 18.4173 27.1654 18.2173 27.1654 18.0007V16.334C27.1654 15.4173 26.4154 14.6673 25.4987 14.6673H20.2404L21.032 10.859L21.057 10.5923C21.057 10.2507 20.9154 9.93398 20.6904 9.70898L19.807 8.83398L14.3154 14.3257C14.0154 14.6257 13.832 15.0423 13.832 15.5007V23.834C13.832 24.7507 14.582 25.5007 15.4987 25.5007ZM8.83203 15.5007H12.1654V25.5007H8.83203V15.5007Z" fill="white"/>
</svg>
