<svg width="30" height="30" viewBox="0 0 30 30" fill="none" xmlns="http://www.w3.org/2000/svg">
<path d="M20.121 1H6C4.3455 1 3 2.2572 3 3.8V26.2C3 27.7442 4.3455 29 6 29H24C25.6545 29 27 27.7442 27 26.2V7.4204L20.121 1ZM18 9.4V2.4L25.5 9.4H18Z" fill="url(#paint0_linear_1302_13266)"/>
<path d="M21.2857 12.4286H19.8571V11H18.4286V14.5714H17V12.4286H12.7143V11H11.2857V14.5714H9.85714V12.4286H8.42857C7.64071 12.4286 7 13.07 7 13.8571V24.5714C7 25.3593 7.64071 26 8.42857 26H21.2857C22.0736 26 22.7143 25.3593 22.7143 24.5714V13.8571C22.7143 13.07 22.0736 12.4286 21.2857 12.4286ZM12 23.8571H9.14286V21H12V23.8571ZM12 19.5714H9.14286V16.7143H12V19.5714ZM16.2857 23.8571H13.4286V21H16.2857V23.8571ZM16.2857 19.5714H13.4286V16.7143H16.2857V19.5714ZM20.5714 19.5714H17.7143V16.7143H20.5714V19.5714Z" fill="white"/>
<defs>
<linearGradient id="paint0_linear_1302_13266" x1="15" y1="1" x2="15" y2="29" gradientUnits="userSpaceOnUse">
<stop stop-color="#F4B941"/>
<stop offset="1" stop-color="#EA496F"/>
</linearGradient>
</defs>
</svg>
