<svg width="32" height="32" viewBox="0 0 32 32" fill="none" xmlns="http://www.w3.org/2000/svg">
<path opacity="0.6" d="M14.3999 22.4002C14.3999 23.4092 14.0463 24.3356 13.458 25.0668H26.6665C28.1396 25.0668 29.3332 23.8732 29.3332 22.4002V21.3335H14.3999V22.4002Z" fill="white"/>
<path d="M25.6001 4.8001V2.66676C25.6001 2.07796 25.1223 1.6001 24.5335 1.6001C23.9447 1.6001 23.4668 2.07796 23.4668 2.66676V6.66676C23.4668 7.10836 23.1084 7.46676 22.6668 7.46676C22.2252 7.46676 21.8668 7.10836 21.8668 6.66676V4.8001H19.7335V2.66676C19.7335 2.07796 19.2556 1.6001 18.6668 1.6001C18.078 1.6001 17.6001 2.07796 17.6001 2.66676V6.66676C17.6001 7.10836 17.2417 7.46676 16.8001 7.46676C16.3585 7.46676 16.0001 7.10836 16.0001 6.66676V4.8001H13.8668V2.66676C13.8668 2.07796 13.3889 1.6001 12.8001 1.6001C12.2113 1.6001 11.7335 2.07796 11.7335 2.66676V6.66676C11.7335 7.10836 11.3751 7.46676 10.9335 7.46676C10.4919 7.46676 10.1335 7.10836 10.1335 6.66676V4.8001H9.60013C8.422 4.8001 7.4668 5.7553 7.4668 6.93343V22.4001C7.4668 23.8732 8.6604 25.0668 10.1335 25.0668C11.6065 25.0668 12.8001 23.8732 12.8001 22.4001V19.7334H27.7335V6.93343C27.7335 5.7553 26.7783 4.8001 25.6001 4.8001ZM22.5959 11.9782L17.7959 16.7782C17.6055 16.9574 17.3489 17.0668 17.0668 17.0668C16.7719 17.0668 16.5052 16.9473 16.3127 16.7542L13.646 14.0876C13.4529 13.895 13.3335 13.6284 13.3335 13.3334C13.3335 12.7446 13.8113 12.2668 14.4001 12.2668C14.6951 12.2668 14.9617 12.3862 15.1543 12.5793L17.0908 14.5158L21.1377 10.422C21.3281 10.2428 21.5847 10.1334 21.8668 10.1334C22.4556 10.1334 22.9335 10.6113 22.9335 11.2001C22.9335 11.5073 22.8039 11.7841 22.5959 11.9782Z" fill="white"/>
<path d="M10.1334 26.6664C7.78087 26.6664 5.86673 24.7523 5.86673 22.3998V6.93311H4.26673C3.9718 6.93311 3.7334 7.17151 3.7334 7.46644V29.3331C3.7334 29.628 3.9718 29.8664 4.26673 29.8664H23.4667C23.7617 29.8664 24.0001 29.628 24.0001 29.3331V26.6664H10.1334Z" fill="white"/>
</svg>
