<svg width="24" height="24" viewBox="0 0 24 24" fill="none" xmlns="http://www.w3.org/2000/svg">
<path d="M9.42044 11.5451C11.7051 11.5451 13.5568 9.69345 13.5568 7.40878C13.5568 5.12411 11.7051 3.27246 9.42044 3.27246C7.13577 3.27246 5.28412 5.12411 5.28412 7.40878C5.28412 9.69345 7.13577 11.5451 9.42044 11.5451ZM12.3159 12.5792H11.7762C11.0588 12.9088 10.2606 13.0962 9.42044 13.0962C8.58025 13.0962 7.78531 12.9088 7.06468 12.5792H6.52502C4.12725 12.5792 2.18188 14.5245 2.18188 16.9223V18.2666C2.18188 19.123 2.87666 19.8177 3.733 19.8177H15.1079C15.9642 19.8177 16.659 19.123 16.659 18.2666V16.9223C16.659 14.5245 14.7136 12.5792 12.3159 12.5792Z" fill="#99AAB5"/>
<path d="M19.4165 9.9934H21.4847C21.7691 9.9934 22.0017 10.2261 22.0017 10.5104V11.5445C22.0017 11.8289 21.7691 12.0616 21.4847 12.0616H19.4165V14.1297C19.4165 14.4141 19.1839 14.6468 18.8995 14.6468H17.8654C17.5811 14.6468 17.3484 14.4141 17.3484 14.1297V12.0616H15.2802C14.9959 12.0616 14.7632 11.8289 14.7632 11.5445V10.5104C14.7632 10.2261 14.9959 9.9934 15.2802 9.9934H17.3484V7.92524C17.3484 7.64087 17.5811 7.4082 17.8654 7.4082H18.8995C19.1839 7.4082 19.4165 7.64087 19.4165 7.92524V9.9934Z" fill="#99AAB5" fill-opacity="0.6"/>
</svg>
