<svg width="54" height="54" viewBox="0 0 54 54" fill="none" xmlns="http://www.w3.org/2000/svg">
<rect x="1.5" y="1.5" width="50.0222" height="50.0222" rx="11.5" fill="#EE4428" stroke="white" stroke-width="3"/>
<path opacity="0.6" d="M25.2739 13.7441L24.5825 15.4316L23.0767 15.5956C22.2505 15.6894 21.4888 15.7773 21.3833 15.8007L21.1899 15.8359L22.3384 16.8906C22.9771 17.4706 23.5396 17.9863 23.5981 18.0331C23.7036 18.1152 23.6919 18.1855 23.3638 19.7909C23.1763 20.705 23.0239 21.4667 23.0356 21.4726C23.0415 21.4784 23.7095 21.1093 24.5239 20.6406L26.0005 19.8027L27.4771 20.6406C28.2915 21.1034 28.9653 21.4784 28.9712 21.4726C28.9771 21.4667 28.8247 20.7109 28.6372 19.7909C28.3618 18.4491 28.3091 18.1152 28.3735 18.0624C28.4146 18.0331 28.9829 17.5175 29.6333 16.9199C30.7759 15.8769 30.811 15.8359 30.647 15.8007C30.5591 15.7773 29.7915 15.6835 28.9536 15.5956L27.4185 15.4316L26.7271 13.7441C26.3403 12.8183 26.0181 12.0566 26.0005 12.0566C25.9829 12.0566 25.6606 12.8183 25.2739 13.7441Z" fill="white"/>
<path opacity="0.6" d="M15.7177 15.9609C15.6005 16.2188 15.3603 16.752 15.1787 17.1562C14.997 17.5605 14.8447 17.8945 14.8388 17.9062C14.8271 17.918 14.247 17.9883 13.5439 18.0703C12.8349 18.1465 12.2373 18.2168 12.2138 18.2285C12.1904 18.2344 12.6123 18.6445 13.1572 19.1367L14.1416 20.0332L13.8955 21.2344C13.7607 21.8906 13.6377 22.4824 13.6201 22.5469C13.6025 22.6113 13.6025 22.6641 13.6142 22.6641C13.6259 22.6641 14.1474 22.3711 14.7685 22.0195C15.3896 21.6621 15.9228 21.375 15.9521 21.375C15.9873 21.375 16.5087 21.668 17.124 22.0195C17.7334 22.3711 18.2431 22.6465 18.2548 22.6348C18.2724 22.6172 17.8388 20.4023 17.7627 20.1387C17.7451 20.0742 18.0556 19.752 18.7295 19.1426C19.2744 18.6445 19.7021 18.2344 19.6845 18.2285C19.6611 18.2168 19.0634 18.1465 18.3603 18.0645C17.6572 17.9883 17.0712 17.9121 17.0595 17.9004C17.0478 17.8887 16.8017 17.3555 16.5087 16.7168C16.2158 16.0781 15.9638 15.5391 15.9521 15.5273C15.9404 15.5098 15.8349 15.709 15.7177 15.9609Z" fill="white"/>
<path opacity="0.6" d="M35.4935 16.7088L34.9544 17.91L34.7376 17.9393C34.6204 17.9569 34.0286 18.0272 33.4134 18.0975C32.804 18.1619 32.2943 18.2205 32.2884 18.2264C32.2825 18.2323 32.6868 18.6073 33.1849 19.0584C33.6829 19.5096 34.1282 19.9139 34.1751 19.9666C34.2454 20.0428 34.222 20.2303 33.9935 21.3143C33.8528 22.0057 33.7415 22.5916 33.7474 22.6151C33.7591 22.6385 34.2689 22.369 34.8782 22.0174C35.4935 21.6658 36.015 21.3729 36.0443 21.3729C36.0735 21.3729 36.6009 21.6541 37.2161 21.9998C38.5403 22.7498 38.4232 22.6971 38.3821 22.5506C38.3646 22.4862 38.2415 21.8885 38.1068 21.2323L37.8607 20.0311L38.845 19.1405C39.39 18.6483 39.8235 18.244 39.8118 18.2323C39.806 18.2205 39.2025 18.1444 38.4818 18.0623C37.761 17.9803 37.1693 17.91 37.1634 17.8983C37.1575 17.8924 36.9232 17.3709 36.6419 16.744C36.3607 16.117 36.1087 15.578 36.0853 15.5545C36.0618 15.5311 35.7982 16.0467 35.4935 16.7088Z" fill="white"/>
<path d="M16.1914 24.7271C16.0801 24.9615 15.4121 26.3912 14.6973 27.9029C13.9883 29.4146 13.4023 30.6803 13.4023 30.7154C13.4023 30.7506 14.082 31.0787 14.9141 31.4478C15.7402 31.817 16.5078 32.1803 16.6074 32.2564C16.8535 32.4322 17.0586 32.7955 17.1875 33.2525L17.2871 33.6158L17.5039 33.44C17.8203 33.1881 18.2598 33.0357 18.6992 33.0357C19.1328 33.0357 19.4551 33.1353 19.8184 33.3873C20.1699 33.6275 20.375 33.9146 20.5273 34.3658L20.6562 34.7408L21.1133 34.7584C21.8809 34.7818 22.4492 35.1451 22.7832 35.8189C22.959 36.1705 22.9766 36.1939 23.123 36.1529C23.2051 36.1295 23.4453 36.1119 23.6562 36.1178C24.3887 36.1236 25.1152 36.61 25.3906 37.2721L25.4961 37.5299L26.0352 37.5006C26.5273 37.4771 26.6035 37.4889 26.9141 37.6295C27.1074 37.7174 27.3535 37.8756 27.4648 37.981C27.5762 38.0865 28.1855 38.4615 28.8125 38.8072C30.0898 39.5103 30.3535 39.5924 30.7461 39.3756C31.2852 39.0767 31.4023 38.3502 30.9805 37.9166C30.8926 37.8287 30.0898 37.3424 29.1934 36.8443C27.5469 35.9185 27.4062 35.8189 27.4062 35.4967C27.4062 35.3267 27.7168 35.0279 27.8867 35.0279C27.957 35.0279 28.9473 35.5435 30.084 36.1764C31.2148 36.8092 32.2344 37.3424 32.3398 37.3658C32.7207 37.4478 33.1191 37.2779 33.3242 36.9439C33.4766 36.692 33.4766 36.235 33.3242 35.983C33.1836 35.7486 33.1074 35.7017 31.332 34.7057C30.541 34.2603 29.8379 33.8385 29.7676 33.7564C29.5918 33.5748 29.5977 33.317 29.7734 33.1178C30.0254 32.8189 30.1309 32.86 32.1992 34.0318C34.2969 35.2213 34.3848 35.2564 34.8477 35.0162C35.1934 34.8404 35.4043 34.4478 35.3457 34.0963C35.2637 33.6158 35.2168 33.5807 32.4453 31.9928C31.0098 31.1725 29.7324 30.4635 29.6035 30.4166C29.2988 30.3053 28.6426 30.3111 28.2031 30.4283C28.0098 30.481 27.4414 30.6803 26.9434 30.8736C25.6426 31.3775 25.1094 31.5592 24.5762 31.6588C23.2637 31.9107 22.2266 31.6178 21.2832 30.7389C20.832 30.317 20.4922 29.8658 20.4922 29.69C20.4922 29.4732 20.627 29.3033 20.9492 29.11C21.6348 28.7057 22.6191 28.0377 23.1699 27.5982C23.6973 27.1764 25.127 25.8639 25.168 25.7642C25.1797 25.7408 25.0098 25.6646 24.7871 25.5943C24.0898 25.3775 23.3281 25.4244 21.8691 25.776C21.2188 25.9342 20.4863 25.9752 20.0527 25.8873C19.8477 25.8463 19.0332 25.5064 18.0723 25.0611C17.1758 24.6451 16.4316 24.3053 16.4141 24.3053C16.3965 24.3053 16.2969 24.4986 16.1914 24.7271Z" fill="white"/>
<path d="M34.9073 25.6211C34.3448 25.9258 33.753 26.2129 33.5948 26.2656C32.9385 26.4648 32.2764 26.3535 30.9405 25.8203C29.9561 25.4277 29.4346 25.2988 28.837 25.2988C28.1573 25.2988 27.8175 25.3809 27.1436 25.709C26.4288 26.0605 25.9776 26.3945 25.0811 27.2559C24.2315 28.0645 23.4112 28.7207 22.503 29.3184C22.1221 29.5703 21.7999 29.7871 21.7823 29.7988C21.7237 29.8457 22.3272 30.3262 22.6319 30.4785C23.0714 30.6895 23.4932 30.7715 23.9796 30.7246C24.5362 30.6777 25.0284 30.5371 26.2061 30.0742C27.4717 29.5762 27.9464 29.4238 28.503 29.3418C29.0479 29.2598 29.5577 29.3066 29.9854 29.4766C30.4659 29.6758 35.4815 32.5586 35.7276 32.7754L35.9385 32.9688L37.2803 32.3945C38.1475 32.0254 38.628 31.791 38.6221 31.7383C38.6046 31.5508 36.0557 25.0645 35.9971 25.0645C35.962 25.0645 35.4698 25.3164 34.9073 25.6211Z" fill="white"/>
<path d="M18.2845 34.1434C18.0033 34.2782 17.933 34.372 17.3119 35.5614C16.808 36.5224 16.7494 36.8036 16.9779 37.1845C17.2826 37.6825 18.0677 37.7645 18.4603 37.3309C18.513 37.2665 18.7884 36.7977 19.0638 36.2821C19.4798 35.5145 19.5736 35.2919 19.597 35.0282C19.6205 34.7587 19.6029 34.6708 19.4857 34.5067C19.1869 34.0673 18.7416 33.9325 18.2845 34.1434Z" fill="white"/>
<path d="M20.7573 35.8188C20.6284 35.8657 20.4585 35.977 20.3765 36.0649C20.2944 36.1587 19.9253 36.7974 19.5562 37.4888C18.9878 38.5669 18.8882 38.7895 18.8882 39.0181C18.8882 39.3638 19.0581 39.645 19.3569 39.8149C19.6499 39.9849 19.9429 39.9849 20.2593 39.8149C20.5405 39.6685 20.6108 39.5571 21.5601 37.729C21.9878 36.9087 22.0229 36.8032 21.9936 36.5923C21.894 35.9653 21.3315 35.6079 20.7573 35.8188Z" fill="white"/>
<path d="M23.3871 37.148C23.0356 37.2184 22.8598 37.4469 22.2504 38.5953C21.6234 39.7613 21.5648 39.9898 21.7934 40.3883C22.0688 40.8629 22.6781 41.0035 23.141 40.693C23.4223 40.4996 24.4887 38.5016 24.518 38.1031C24.5707 37.4586 24.0434 37.0133 23.3871 37.148Z" fill="white"/>
<path d="M25.6733 38.6301C25.4682 38.7531 25.3627 38.8996 24.9174 39.7258C24.4956 40.5168 24.4018 40.7394 24.3784 41.0031C24.3549 41.2726 24.3725 41.3605 24.4897 41.5246C24.7944 41.9758 25.2573 42.1105 25.6967 41.8879C25.9838 41.7414 26.0659 41.6183 26.6752 40.4465C27.0971 39.6261 27.1264 39.55 27.0854 39.3215C26.9682 38.6125 26.2709 38.2726 25.6733 38.6301Z" fill="white"/>
<path d="M28.0566 39.8701C28.0156 40.0166 27.8574 40.3857 27.6934 40.6787C27.5352 40.9775 27.4062 41.2412 27.4062 41.2705C27.4062 41.3057 27.5938 41.4287 27.8164 41.5518C28.1152 41.71 28.3027 41.7744 28.4844 41.7744C29.3223 41.7744 29.7383 40.8311 29.1758 40.2217C29.0527 40.0928 28.2383 39.5947 28.1504 39.5947C28.1328 39.5947 28.0918 39.7178 28.0566 39.8701Z" fill="white"/>
</svg>
