<svg width="60" height="60" viewBox="0 0 60 60" fill="none" xmlns="http://www.w3.org/2000/svg">
<path d="M21.5 48C20.119 48 19 49.119 19 50.5C19 53.98 25.961 57 28 57C29.104 57 30 56.104 30 55C30 53.024 26.019 48 21.5 48Z" fill="black"/>
<path d="M48.532 36C45.289 36 44.119 33 37.53 33C34.413 33 31.677 33.808 29.277 35.272L25.915 37.324C25.365 37.681 25 38.296 25 39C25 40.104 25.896 41 27 41C27.242 41 27.471 40.95 27.686 40.872L33.269 38.829L41.587 47.703C42.498 48.674 43 49.942 43 51.274C43 51.692 42.947 52.102 42.852 52.498C42.852 52.498 46.819 50.097 48.027 49.016C49.682 47.536 51.574 46.339 53.626 45.478L57 44.063V32C50.974 35.443 50.432 36 48.532 36V36Z" fill="black"/>
<path d="M40.128 49.07L32.714 41.161L28.373 42.75C27.916 42.916 27.455 43 27 43C24.794 43 23 41.206 23 39C23 37.643 23.683 36.389 24.825 35.646L25.613 35.166C23.901 34.408 22.035 34 20.124 34C17.566 34 14.316 35 12 35C9.323 35 8.256 34.253 3 32V44L6.582 44.716C7.509 44.902 8.367 45.34 9.061 45.981C12.978 49.604 12.213 49.092 17.108 51.481C17.041 51.161 17 50.835 17 50.5C17 48.019 19.019 46 21.5 46C27.072 46 32 51.795 32 55C32 55.729 31.79 56.404 31.447 56.993C35.495 56.933 37.862 55.092 39.564 53.957C40.461 53.359 41 52.353 41 51.275C41 50.456 40.688 49.667 40.128 49.07V49.07Z" fill="black"/>
<path d="M45.973 33.115C47.096 33.696 47.72 34 48.531 34C49.471 34 49.754 33.881 53 31.999V6C53 4.896 52.104 4 51 4H41C39.896 4 39 4.896 39 6V31.052C42.438 31.289 44.455 32.329 45.973 33.115Z" fill="black"/>
<path d="M27.69 33.897C30.555 32.149 33.264 31.118 37 31.017V12C37 10.896 36.104 10 35 10H25C23.896 10 23 10.896 23 12V32.283C25.061 32.673 26.199 33.238 27.69 33.897Z" fill="black"/>
<path d="M12 33C14.394 33 17.463 31.846 21 32.045V19C21 17.896 20.104 17 19 17H9C7.896 17 7 17.896 7 19V31.565C9.536 32.679 10.381 33 12 33Z" fill="black"/>
</svg>
