<svg width="30" height="30" viewBox="0 0 30 30" fill="none" xmlns="http://www.w3.org/2000/svg">
<path d="M10.7497 24C10.0592 24 9.49973 24.5595 9.49973 25.25C9.49973 26.99 12.9802 28.5 13.9997 28.5C14.5517 28.5 14.9997 28.052 14.9997 27.5C14.9997 26.512 13.0092 24 10.7497 24Z" fill="#0A77DB"/>
<path d="M24.2657 18C22.6442 18 22.0592 16.5 18.7647 16.5C17.2062 16.5 15.8382 16.904 14.6382 17.636L12.9572 18.662C12.6822 18.8405 12.4997 19.148 12.4997 19.5C12.4997 20.052 12.9477 20.5 13.4997 20.5C13.6207 20.5 13.7352 20.475 13.8427 20.436L16.6342 19.4145L20.7932 23.8515C21.2487 24.337 21.4997 24.971 21.4997 25.637C21.4997 25.846 21.4732 26.051 21.4257 26.249C21.4257 26.249 23.4092 25.0485 24.0132 24.508C24.8407 23.768 25.7867 23.1695 26.8127 22.739L28.4997 22.0315V16C25.4867 17.7215 25.2157 18 24.2657 18V18Z" fill="#0A77DB"/>
<path d="M20.0637 24.535L16.3567 20.5805L14.1862 21.375C13.9577 21.458 13.7272 21.5 13.4997 21.5C12.3967 21.5 11.4997 20.603 11.4997 19.5C11.4997 18.8215 11.8412 18.1945 12.4122 17.823L12.8062 17.583C11.9502 17.204 11.0172 17 10.0617 17C8.78273 17 7.15773 17.5 5.99973 17.5C4.66123 17.5 4.12773 17.1265 1.49973 16V22L3.29073 22.358C3.75423 22.451 4.18323 22.67 4.53023 22.9905C6.48873 24.802 6.10623 24.546 8.55373 25.7405C8.52023 25.5805 8.49973 25.4175 8.49973 25.25C8.49973 24.0095 9.50923 23 10.7497 23C13.5357 23 15.9997 25.8975 15.9997 27.5C15.9997 27.8645 15.8947 28.202 15.7232 28.4965C17.7472 28.4665 18.9307 27.546 19.7817 26.9785C20.2302 26.6795 20.4997 26.1765 20.4997 25.6375C20.4997 25.228 20.3437 24.8335 20.0637 24.535V24.535Z" fill="#0A77DB"/>
<path d="M22.9862 16.5575C23.5477 16.848 23.8597 17 24.2652 17C24.7352 17 24.8767 16.9405 26.4997 15.9995V3C26.4997 2.448 26.0517 2 25.4997 2H20.4997C19.9477 2 19.4997 2.448 19.4997 3V15.526C21.2187 15.6445 22.2272 16.1645 22.9862 16.5575Z" fill="#0A77DB" fill-opacity="0.5"/>
<path d="M13.8447 16.9485C15.2772 16.0745 16.6317 15.559 18.4997 15.5085V6C18.4997 5.448 18.0517 5 17.4997 5H12.4997C11.9477 5 11.4997 5.448 11.4997 6V16.1415C12.5302 16.3365 13.0992 16.619 13.8447 16.9485Z" fill="#0A77DB" fill-opacity="0.5"/>
<path d="M5.99973 16.5C7.19673 16.5 8.73123 15.923 10.4997 16.0225V9.5C10.4997 8.948 10.0517 8.5 9.49973 8.5H4.49973C3.94773 8.5 3.49973 8.948 3.49973 9.5V15.7825C4.76773 16.3395 5.19023 16.5 5.99973 16.5Z" fill="#0A77DB" fill-opacity="0.5"/>
</svg>
