<svg width="30" height="30" viewBox="0 0 30 30" fill="none" xmlns="http://www.w3.org/2000/svg">
<path fill-rule="evenodd" clip-rule="evenodd" d="M5.62473 26.25C5.62473 26.25 3.74973 26.25 3.74973 24.375C3.74973 22.5 5.62473 16.875 14.9997 16.875C24.3747 16.875 26.2497 22.5 26.2497 24.375C26.2497 26.25 24.3747 26.25 24.3747 26.25H5.62473ZM14.9997 15C16.4916 15 17.9223 14.4074 18.9772 13.3525C20.0321 12.2976 20.6247 10.8668 20.6247 9.375C20.6247 7.88316 20.0321 6.45242 18.9772 5.39752C17.9223 4.34263 16.4916 3.75 14.9997 3.75C13.5079 3.75 12.0771 4.34263 11.0222 5.39752C9.96736 6.45242 9.37473 7.88316 9.37473 9.375C9.37473 10.8668 9.96736 12.2976 11.0222 13.3525C12.0771 14.4074 13.5079 15 14.9997 15V15Z" fill="#0A77DB"/>
</svg>
