<svg width="60" height="60" viewBox="0 0 60 60" fill="none" xmlns="http://www.w3.org/2000/svg">
<path d="M35 41H10C8.344 41 7 42.343 7 44V46C7 47.657 8.344 49 10 49H12V46C12 45.447 12.447 45 13 45C13.553 45 14 45.447 14 46V49H35L39 45L35 41Z" fill="black"/>
<path d="M14 5C8.477 5 4 9.477 4 15C4 20.523 8.477 25 14 25C19.523 25 24 20.523 24 15C24 9.477 19.523 5 14 5ZM17 21C16.673 21 16.396 20.833 16.214 20.59L13.202 16.601C13.07 16.427 13 16.216 13 15.998V9C13 8.447 13.447 8 14 8C14.553 8 15 8.447 15 9V15.667L17.786 19.41C17.912 19.578 18 19.775 18 20C18 20.553 17.553 21 17 21V21Z" fill="black"/>
<path d="M50 5H20.628C23.864 7.149 26 10.824 26 15C26 21.627 20.627 27 14 27V39H35.828L41.828 45L35.828 51H14V54C14 55.104 14.896 56 16 56H50C51.104 56 52 55.104 52 54V7C52 5.896 51.104 5 50 5ZM24.5 27H30.5C31.328 27 32 27.672 32 28.5C32 29.328 31.328 30 30.5 30H24.5C23.672 30 23 29.328 23 28.5C23 27.672 23.672 27 24.5 27ZM32.5 36H24.5C23.672 36 23 35.328 23 34.5C23 33.672 23.672 33 24.5 33H32.5C33.328 33 34 33.672 34 34.5C34 35.328 33.328 36 32.5 36ZM46.559 34.562L42.563 38.56C42.29 38.832 41.915 39 41.5 39C41.086 39 40.71 38.832 40.437 38.56L38.441 36.562C38.168 36.29 38 35.915 38 35.5C38 34.672 38.672 34 39.5 34C39.915 34 40.29 34.168 40.563 34.44L41.501 35.378L44.439 32.44C44.71 32.168 45.086 32 45.5 32C46.328 32 47 32.672 47 33.5C47 33.915 46.832 34.29 46.559 34.562V34.562ZM41.5 18C44.532 18 47 20.243 47 23C47 25.283 45.305 27.211 43 27.807V28.5C43 29.328 42.328 30 41.5 30C40.672 30 40 29.328 40 28.5V27.806C37.785 27.238 36 25.479 36 23.5C36 22.649 36.672 22 37.5 22C38.328 22 38.878 22.681 39 23.5C39.135 24.404 40.326 25 41.5 25C42.879 25 44 24.103 44 23C44 21.897 42.879 21 41.5 21C38.468 21 36 18.757 36 16C36 13.717 37.695 11.789 40 11.193V10.5C40 9.672 40.672 9 41.5 9C42.328 9 43 9.672 43 10.5V11.194C45.215 11.762 47 13.521 47 15.5C47 16.351 46.328 17 45.5 17C44.672 17 44.122 16.319 44 15.5C43.865 14.596 42.674 14 41.5 14C40.121 14 39 14.897 39 16C39 17.103 40.121 18 41.5 18Z" fill="black"/>
</svg>
