<svg width="60" height="60" viewBox="0 0 60 60" fill="none" xmlns="http://www.w3.org/2000/svg">
<path d="M45 15C48.3137 15 51 12.3137 51 9C51 5.68629 48.3137 3 45 3C41.6863 3 39 5.68629 39 9C39 12.3137 41.6863 15 45 15Z" fill="black"/>
<path d="M29.643 18H49C52.865 18 56 21.134 56 25V34.357C56 35.665 55.059 36.856 53.758 36.987C53.092 37.053 52.482 36.849 52 36.484V52.5C52 53.881 50.881 55 49.5 55C48.119 55 47 53.881 47 52.5V40C47 38.896 46.104 38 45 38C43.895 38 43 38.896 43 40V52.5C43 53.881 41.881 55 40.5 55C39.119 55 38 53.881 38 52.5V23H29.5C28.033 23 26.863 21.738 27.013 20.242C27.143 18.94 28.334 18 29.643 18V18Z" fill="black"/>
<path d="M30.09 38.405C29.032 41.791 27.802 44.581 26.326 46.938C26.129 47.248 26 47.605 26 48C26 49.104 26.896 50 28 50C28.719 50 29.364 49.631 29.717 49.062C31.377 46.41 32.749 43.312 33.91 39.595C33.969 39.407 34 39.207 34 39C34 37.896 33.104 37 32 37C31.103 37 30.343 37.591 30.09 38.405Z" fill="black"/>
<path d="M7.09 29.405C6.032 32.791 4.802 35.581 3.326 37.938C3.129 38.248 3 38.605 3 39C3 40.104 3.896 41 5 41C5.719 41 6.364 40.631 6.717 40.062C8.377 37.41 9.748 34.312 10.91 30.595C10.969 30.407 11 30.207 11 30C11 28.896 10.104 28 9 28C8.103 28 7.343 28.591 7.09 29.405Z" fill="black"/>
<path d="M32.561 12.439L22.561 2.439C22.289 2.168 21.914 2 21.5 2C21.086 2 20.711 2.168 20.439 2.439L10.439 12.439C10.168 12.711 10 13.086 10 13.5C10 14.328 10.672 15 11.5 15H16C16 22 13.994 39 9.18702 46.408C8.97402 46.736 8.92202 47.158 9.13602 47.514C9.42102 47.988 10.034 48.141 10.507 47.857C10.56 47.826 10.605 47.79 10.652 47.753C15.865 43.692 23.215 35.981 25.884 24.64C25.722 24.499 25.567 24.351 25.421 24.19C24.38 23.04 23.872 21.493 24.026 19.944C24.215 18.062 25.365 16.506 26.969 15.669C26.974 15.443 27 15.229 27 15H31.5C32.328 15 33 14.328 33 13.5C33 13.086 32.832 12.711 32.561 12.439V12.439Z" fill="black"/>
<path d="M17.09 46.405C16.032 49.791 14.802 52.581 13.326 54.938C13.129 55.248 13 55.605 13 56C13 57.104 13.896 58 15 58C15.719 58 16.364 57.631 16.717 57.062C18.377 54.41 19.748 51.312 20.91 47.595C20.969 47.407 21 47.207 21 47C21 45.896 20.104 45 19 45C18.103 45 17.343 45.591 17.09 46.405V46.405Z" fill="black"/>
</svg>
