<svg width="30" height="30" viewBox="0 0 30 30" fill="none" xmlns="http://www.w3.org/2000/svg">
<path fill-rule="evenodd" clip-rule="evenodd" d="M3.74976 5.625C3.74976 4.63044 4.14484 3.67661 4.84811 2.97335C5.55137 2.27009 6.50519 1.875 7.49976 1.875H17.4241C17.9214 1.87511 18.3982 2.07272 18.7498 2.42437L25.7004 9.375C26.052 9.72655 26.2496 10.2034 26.2498 10.7006V24.375C26.2498 25.3696 25.8547 26.3234 25.1514 27.0266C24.4481 27.7299 23.4943 28.125 22.4998 28.125H7.49976C6.50519 28.125 5.55137 27.7299 4.84811 27.0266C4.14484 26.3234 3.74976 25.3696 3.74976 24.375V5.625ZM16.8748 9.375V3.75L24.3748 11.25H18.7498C18.2525 11.25 17.7756 11.0525 17.4239 10.7008C17.0723 10.3492 16.8748 9.87228 16.8748 9.375ZM8.43726 15C8.18862 15 7.95016 15.0988 7.77434 15.2746C7.59853 15.4504 7.49976 15.6889 7.49976 15.9375C7.49976 16.1861 7.59853 16.4246 7.77434 16.6004C7.95016 16.7762 8.18862 16.875 8.43726 16.875H21.5623C21.8109 16.875 22.0494 16.7762 22.2252 16.6004C22.401 16.4246 22.4998 16.1861 22.4998 15.9375C22.4998 15.6889 22.401 15.4504 22.2252 15.2746C22.0494 15.0988 21.8109 15 21.5623 15H8.43726ZM7.49976 19.6875C7.49976 19.4389 7.59853 19.2004 7.77434 19.0246C7.95016 18.8488 8.18862 18.75 8.43726 18.75H21.5623C21.8109 18.75 22.0494 18.8488 22.2252 19.0246C22.401 19.2004 22.4998 19.4389 22.4998 19.6875C22.4998 19.9361 22.401 20.1746 22.2252 20.3504C22.0494 20.5262 21.8109 20.625 21.5623 20.625H8.43726C8.18862 20.625 7.95016 20.5262 7.77434 20.3504C7.59853 20.1746 7.49976 19.9361 7.49976 19.6875ZM7.49976 23.4375C7.49976 23.1889 7.59853 22.9504 7.77434 22.7746C7.95016 22.5988 8.18862 22.5 8.43726 22.5H15.9373C16.1859 22.5 16.4244 22.5988 16.6002 22.7746C16.776 22.9504 16.8748 23.1889 16.8748 23.4375C16.8748 23.6861 16.776 23.9246 16.6002 24.1004C16.4244 24.2762 16.1859 24.375 15.9373 24.375H8.43726C8.18862 24.375 7.95016 24.2762 7.77434 24.1004C7.59853 23.9246 7.49976 23.6861 7.49976 23.4375Z" fill="#0A77DB"/>
</svg>
