<svg width="30" height="30" viewBox="0 0 30 30" fill="none" xmlns="http://www.w3.org/2000/svg">
<path d="M6.49976 5.99402C6.38976 5.99552 6.27826 5.99902 6.16876 5.99952C3.43426 6.01152 0.999756 8.10652 0.999756 11C0.999756 13.761 3.23826 16 5.99976 16C6.16476 16 6.33326 16.004 6.49976 16.0065V5.99402Z" fill="#0A77DB"/>
<path d="M26.2498 12C25.8353 12 25.4998 11.664 25.4998 11.25C25.4998 10.836 25.8353 10.5 26.2498 10.5H28.2498C28.6638 10.5 28.9998 10.836 28.9998 11.25C28.9998 11.664 28.6638 12 28.2498 12H26.2498Z" fill="#0A77DB"/>
<path d="M25.4163 16.4185L27.4163 17.4185C27.5173 17.469 27.6293 17.5 27.7498 17.5C28.1643 17.5 28.4998 17.164 28.4998 16.75C28.4998 16.456 28.3293 16.2045 28.0833 16.0815L26.0833 15.0815C25.9823 15.0315 25.8703 15 25.7498 15C25.3353 15 24.9998 15.336 24.9998 15.75C24.9998 16.044 25.1703 16.2955 25.4163 16.4185V16.4185Z" fill="#0A77DB"/>
<path d="M28.0833 6.4185L26.0833 7.4185C25.9823 7.469 25.8703 7.5 25.7498 7.5C25.3353 7.5 24.9998 7.164 24.9998 6.75C24.9998 6.456 25.1703 6.2045 25.4163 6.0815L27.4163 5.0815C27.5173 5.0315 27.6293 5 27.7498 5C28.1643 5 28.4998 5.336 28.4998 5.75C28.4998 6.044 28.3293 6.2955 28.0833 6.4185Z" fill="#0A77DB"/>
<path d="M15.9998 21.302C15.9998 21.4375 15.9763 21.571 15.9333 21.699L14.7428 25.271C14.5928 25.7205 14.2093 26.052 13.7428 26.1345L6.50326 27.412C6.16926 27.471 5.84576 27.578 5.54226 27.7295L3.99976 28.5L1.49976 24.5L4.95026 20.2825C5.63326 19.447 6.55526 18.841 7.59276 18.5445L9.49976 18V20H14.6518C15.4063 20 15.9998 20.543 15.9998 21.302V21.302Z" fill="#0A77DB" fill-opacity="0.5"/>
<path d="M10.5217 27.718C10.6277 28.442 11.2457 29 11.9997 29C12.8282 29 13.4997 28.3285 13.4997 27.5V27.1925L10.5217 27.718Z" fill="#0A77DB"/>
<path d="M10.4998 17.302V19H13.4998V17.842C12.5363 17.6115 11.5313 17.4385 10.4998 17.302Z" fill="#0A77DB"/>
<path d="M22.3488 1.5C22.1213 1.5 21.8998 1.5715 21.7113 1.6985C17.4263 4.5945 12.4458 5.702 7.99976 5.9455V16.056C12.4453 16.299 17.4253 17.4055 21.7098 20.301C21.8993 20.4285 22.1223 20.5 22.3508 20.5C22.9853 20.5 23.4998 19.9855 23.4998 19.351V2.649C23.4998 2.0145 22.9838 1.5 22.3488 1.5V1.5ZM20.5998 5.909C17.9143 7.252 14.7668 8.0435 11.8253 8.496C11.8003 8.499 11.7758 8.5 11.7498 8.5C11.3353 8.5 10.9998 8.164 10.9998 7.75C10.9998 7.3705 11.2823 7.0605 11.6478 7.0105C14.6433 6.541 17.4363 5.803 19.8968 4.5925C20.0018 4.535 20.1213 4.5 20.2498 4.5C20.6643 4.5 20.9998 4.836 20.9998 5.25C20.9998 5.537 20.8368 5.783 20.5998 5.909V5.909Z" fill="#0A77DB"/>
</svg>
