<svg width="30" height="30" viewBox="0 0 30 30" fill="none" xmlns="http://www.w3.org/2000/svg">
<g clip-path="url(#clip0_7746_140158)">
<path d="M12.7703 3.564C13.7193 3.9685 14.5633 4.5735 15.2393 5.3265C15.4013 5.5045 15.4998 5.7405 15.4998 6C15.4998 6.552 15.0518 7 14.4998 7C14.2133 7 13.9548 6.8795 13.7723 6.686C12.8563 5.639 11.5003 5 9.99976 5C7.23826 5 4.99976 7.2385 4.99976 10C4.99976 10.344 5.03476 10.6805 5.10076 11.005C5.06726 11.0045 5.03376 11 4.99976 11C2.23826 11 -0.000244141 13.2385 -0.000244141 16C-0.000244141 18.761 2.23826 21 4.99976 21C5.72476 21 6.41176 20.8425 7.03376 20.565C7.31476 23.06 9.42926 25 11.9998 25C13.8788 25 15.5138 23.962 16.3678 22.4295C17.2798 23.3945 18.5678 24 19.9998 24C22.7613 24 24.9998 21.761 24.9998 19C24.9998 18.656 24.9648 18.3195 24.8988 17.995C24.9323 17.9955 24.9658 18 24.9998 18C27.7613 18 29.9998 15.761 29.9998 13C29.9998 10.2385 27.7613 8 24.9998 8C24.4718 8 23.9638 8.083 23.4863 8.2345C23.3458 4.7685 20.4998 2 16.9998 2C15.3848 2 13.9073 2.589 12.7703 3.564V3.564ZM8.99976 15.5C8.17176 15.5 7.49976 14.8285 7.49976 14C7.49976 13.1715 8.17176 12.5 8.99976 12.5C9.82776 12.5 10.4998 13.1715 10.4998 14C10.4998 14.8285 9.82776 15.5 8.99976 15.5ZM14.9998 15.5C14.1718 15.5 13.4998 14.8285 13.4998 14C13.4998 13.1715 14.1718 12.5 14.9998 12.5C15.8278 12.5 16.4998 13.1715 16.4998 14C16.4998 14.8285 15.8278 15.5 14.9998 15.5ZM20.9998 15.5C20.1718 15.5 19.4998 14.8285 19.4998 14C19.4998 13.1715 20.1718 12.5 20.9998 12.5C21.8278 12.5 22.4998 13.1715 22.4998 14C22.4998 14.8285 21.8278 15.5 20.9998 15.5Z" fill="#0A77DB"/>
<path d="M1.74976 29C2.44011 29 2.99976 28.4404 2.99976 27.75C2.99976 27.0596 2.44011 26.5 1.74976 26.5C1.0594 26.5 0.499756 27.0596 0.499756 27.75C0.499756 28.4404 1.0594 29 1.74976 29Z" fill="#0A77DB" fill-opacity="0.5"/>
<path d="M4.74976 26.5C5.71625 26.5 6.49976 25.7165 6.49976 24.75C6.49976 23.7835 5.71625 23 4.74976 23C3.78326 23 2.99976 23.7835 2.99976 24.75C2.99976 25.7165 3.78326 26.5 4.74976 26.5Z" fill="#0A77DB" fill-opacity="0.5"/>
</g>
<defs>
<clipPath id="clip0_7746_140158">
<rect width="30" height="30" fill="white" transform="translate(-0.000244141)"/>
</clipPath>
</defs>
</svg>
