<svg width="30" height="30" viewBox="0 0 30 30" fill="none" xmlns="http://www.w3.org/2000/svg">
<g clip-path="url(#clip0_7746_140177)">
<path fill-rule="evenodd" clip-rule="evenodd" d="M7.49976 0.9375C7.49976 0.68886 7.40098 0.450403 7.22517 0.274587C7.04935 0.0987721 6.8109 0 6.56226 0C6.31362 0 6.07516 0.0987721 5.89934 0.274587C5.72353 0.450403 5.62476 0.68886 5.62476 0.9375V1.875H3.74976C2.75519 1.875 1.80137 2.27009 1.09811 2.97335C0.394844 3.67661 -0.000244141 4.63044 -0.000244141 5.625L-0.000244141 26.25C-0.000244141 27.2446 0.394844 28.1984 1.09811 28.9016C1.80137 29.6049 2.75519 30 3.74976 30H26.2498C27.2443 30 28.1981 29.6049 28.9014 28.9016C29.6047 28.1984 29.9998 27.2446 29.9998 26.25V5.625C29.9998 4.63044 29.6047 3.67661 28.9014 2.97335C28.1981 2.27009 27.2443 1.875 26.2498 1.875H24.3748V0.9375C24.3748 0.68886 24.276 0.450403 24.1002 0.274587C23.9244 0.0987721 23.6859 0 23.4373 0C23.1886 0 22.9502 0.0987721 22.7743 0.274587C22.5985 0.450403 22.4998 0.68886 22.4998 0.9375V1.875H7.49976V0.9375ZM3.74976 6.5625C3.74976 6.31386 3.84853 6.0754 4.02434 5.89959C4.20016 5.72377 4.43862 5.625 4.68726 5.625H25.3123C25.5609 5.625 25.7994 5.72377 25.9752 5.89959C26.151 6.0754 26.2498 6.31386 26.2498 6.5625V8.4375C26.2498 8.68614 26.151 8.9246 25.9752 9.10041C25.7994 9.27623 25.5609 9.375 25.3123 9.375H4.68726C4.43862 9.375 4.20016 9.27623 4.02434 9.10041C3.84853 8.9246 3.74976 8.68614 3.74976 8.4375V6.5625ZM11.2498 18.75C11.0011 18.75 10.7627 18.8488 10.5868 19.0246C10.411 19.2004 10.3123 19.4389 10.3123 19.6875C10.3123 19.9361 10.411 20.1746 10.5868 20.3504C10.7627 20.5262 11.0011 20.625 11.2498 20.625H18.7498C18.9984 20.625 19.2369 20.5262 19.4127 20.3504C19.5885 20.1746 19.6873 19.9361 19.6873 19.6875C19.6873 19.4389 19.5885 19.2004 19.4127 19.0246C19.2369 18.8488 18.9984 18.75 18.7498 18.75H11.2498Z" fill="#0A77DB"/>
</g>
<defs>
<clipPath id="clip0_7746_140177">
<rect width="30" height="30" fill="white" transform="translate(-0.000244141)"/>
</clipPath>
</defs>
</svg>
