<svg width="30" height="30" viewBox="0 0 30 30" fill="none" xmlns="http://www.w3.org/2000/svg">
<g clip-path="url(#clip0_7746_140175)">
<path fill-rule="evenodd" clip-rule="evenodd" d="M7.49976 0.9375C7.49976 0.68886 7.40098 0.450403 7.22517 0.274587C7.04935 0.0987721 6.8109 0 6.56226 0C6.31362 0 6.07516 0.0987721 5.89934 0.274587C5.72353 0.450403 5.62476 0.68886 5.62476 0.9375V1.875H3.74976C2.75519 1.875 1.80137 2.27009 1.09811 2.97335C0.394844 3.67661 -0.000244141 4.63044 -0.000244141 5.625L-0.000244141 26.25C-0.000244141 27.2446 0.394844 28.1984 1.09811 28.9016C1.80137 29.6049 2.75519 30 3.74976 30H26.2498C27.2443 30 28.1981 29.6049 28.9014 28.9016C29.6047 28.1984 29.9998 27.2446 29.9998 26.25V5.625C29.9998 4.63044 29.6047 3.67661 28.9014 2.97335C28.1981 2.27009 27.2443 1.875 26.2498 1.875H24.3748V0.9375C24.3748 0.68886 24.276 0.450403 24.1002 0.274587C23.9244 0.0987721 23.6859 0 23.4373 0C23.1886 0 22.9502 0.0987721 22.7743 0.274587C22.5985 0.450403 22.4998 0.68886 22.4998 0.9375V1.875H7.49976V0.9375ZM3.74976 6.5625C3.74976 6.31386 3.84853 6.0754 4.02434 5.89959C4.20016 5.72377 4.43862 5.625 4.68726 5.625H25.3123C25.5609 5.625 25.7994 5.72377 25.9752 5.89959C26.151 6.0754 26.2498 6.31386 26.2498 6.5625V8.4375C26.2498 8.68614 26.151 8.9246 25.9752 9.10041C25.7994 9.27623 25.5609 9.375 25.3123 9.375H4.68726C4.43862 9.375 4.20016 9.27623 4.02434 9.10041C3.84853 8.9246 3.74976 8.68614 3.74976 8.4375V6.5625ZM15.9373 13.125C15.6886 13.125 15.4502 13.2238 15.2743 13.3996C15.0985 13.5754 14.9998 13.8139 14.9998 14.0625V15.9375C14.9998 16.1861 15.0985 16.4246 15.2743 16.6004C15.4502 16.7762 15.6886 16.875 15.9373 16.875H17.8123C18.0609 16.875 18.2994 16.7762 18.4752 16.6004C18.651 16.4246 18.7498 16.1861 18.7498 15.9375V14.0625C18.7498 13.8139 18.651 13.5754 18.4752 13.3996C18.2994 13.2238 18.0609 13.125 17.8123 13.125H15.9373ZM21.5623 13.125C21.3136 13.125 21.0752 13.2238 20.8993 13.3996C20.7235 13.5754 20.6248 13.8139 20.6248 14.0625V15.9375C20.6248 16.1861 20.7235 16.4246 20.8993 16.6004C21.0752 16.7762 21.3136 16.875 21.5623 16.875H23.4373C23.6859 16.875 23.9244 16.7762 24.1002 16.6004C24.276 16.4246 24.3748 16.1861 24.3748 15.9375V14.0625C24.3748 13.8139 24.276 13.5754 24.1002 13.3996C23.9244 13.2238 23.6859 13.125 23.4373 13.125H21.5623ZM5.62476 19.6875C5.62476 19.4389 5.72353 19.2004 5.89934 19.0246C6.07516 18.8488 6.31362 18.75 6.56226 18.75H8.43726C8.6859 18.75 8.92435 18.8488 9.10017 19.0246C9.27598 19.2004 9.37476 19.4389 9.37476 19.6875V21.5625C9.37476 21.8111 9.27598 22.0496 9.10017 22.2254C8.92435 22.4012 8.6859 22.5 8.43726 22.5H6.56226C6.31362 22.5 6.07516 22.4012 5.89934 22.2254C5.72353 22.0496 5.62476 21.8111 5.62476 21.5625V19.6875ZM12.1873 18.75C11.9386 18.75 11.7002 18.8488 11.5243 19.0246C11.3485 19.2004 11.2498 19.4389 11.2498 19.6875V21.5625C11.2498 21.8111 11.3485 22.0496 11.5243 22.2254C11.7002 22.4012 11.9386 22.5 12.1873 22.5H14.0623C14.3109 22.5 14.5494 22.4012 14.7252 22.2254C14.901 22.0496 14.9998 21.8111 14.9998 21.5625V19.6875C14.9998 19.4389 14.901 19.2004 14.7252 19.0246C14.5494 18.8488 14.3109 18.75 14.0623 18.75H12.1873Z" fill="#0A77DB"/>
</g>
<defs>
<clipPath id="clip0_7746_140175">
<rect width="30" height="30" fill="white" transform="translate(-0.000244141)"/>
</clipPath>
</defs>
</svg>
