<svg width="54" height="54" viewBox="0 0 54 54" fill="none" xmlns="http://www.w3.org/2000/svg">
<rect x="1.5" y="1.5" width="50.0222" height="50.0222" rx="11.5" fill="#EE4428" stroke="white" stroke-width="3"/>
<path fill-rule="evenodd" clip-rule="evenodd" d="M15.506 23.2671L15.6623 37.8652C15.6623 37.8652 25.6199 37.5524 28.3511 37.5524C33.6463 37.5524 31.9407 32.0791 31.9407 32.0791L37.6432 31.9154L37.6905 23.2671H39.607L39.7889 40.7456L13.3093 41.0001L13.3893 23.2671H15.506Z" fill="white"/>
<path opacity="0.6" d="M13 16.4659V21.1937L39.8651 20.9573C39.8651 20.9573 39.8287 17.4224 39.8287 16.4695C39.8287 14.6475 39.4396 13 37.0756 13C35.1518 13 18.9244 13.1418 16.1895 13.1418C13.4546 13.1418 13 14.4256 13 16.4659Z" fill="white"/>
<path d="M19.7976 24.5107C22.5579 24.5107 22.627 28.8749 19.9867 28.8749C16.8554 28.8604 17.0845 24.5107 19.7976 24.5107Z" fill="white"/>
<path d="M19.9867 35.3557C16.8554 35.3557 17.0772 30.9915 19.7976 30.9915C22.5179 30.9915 22.627 35.3557 19.9867 35.3557Z" fill="white"/>
<path d="M26.5403 24.5108C26.5378 24.5107 26.5354 24.5107 26.5329 24.5107H26.5475C26.5451 24.5107 26.5427 24.5107 26.5403 24.5108C29.2934 24.5185 29.36 28.8749 26.722 28.8749C23.6081 28.8604 23.834 24.5185 26.5403 24.5108Z" fill="white"/>
<path d="M26.5329 30.9915C23.8126 30.9915 23.5908 35.3557 26.722 35.3557H26.7366C29.3769 35.3557 29.2533 30.9915 26.5329 30.9915Z" fill="white"/>
<path d="M33.283 24.5108C33.2781 24.5108 33.2732 24.5107 33.2683 24.5107H33.2974C33.2926 24.5107 33.2878 24.5108 33.283 24.5108C36.0325 24.5262 36.0967 28.8749 33.461 28.8749C30.3644 28.8604 30.5872 24.5262 33.283 24.5108Z" fill="white"/>
</svg>
