<svg width="40" height="40" viewBox="0 0 40 40" fill="none" xmlns="http://www.w3.org/2000/svg">
<rect width="40" height="40" rx="20" fill="#F1F1FA"/>
<path d="M19.9952 30C25.4761 30 30 25.4761 30 19.9952C30 14.5239 25.4664 10 19.9855 10C14.5143 10 10 14.5239 10 19.9952C10 25.4761 14.5239 30 19.9952 30ZM22.4988 19.5215C21.4548 19.5215 20.5848 18.5839 20.5848 17.4045C20.5752 16.2446 21.4548 15.3359 22.4988 15.3359C23.5234 15.3359 24.4031 16.2252 24.4031 17.3949C24.4031 18.5839 23.5331 19.5215 22.4988 19.5215ZM16.9985 19.6182C16.0996 19.6182 15.3262 18.8062 15.3262 17.7719C15.3166 16.7762 16.0996 15.9739 16.9985 15.9739C17.8975 15.9739 18.6709 16.7569 18.6709 17.7719C18.6709 18.8062 17.8975 19.6182 16.9985 19.6182ZM14.3693 23.9294C13.7313 23.9294 13.4896 23.6588 13.4896 23.1851C13.4896 21.9091 14.8719 20.3432 16.9985 20.3432C17.8492 20.3432 18.5259 20.5945 19.0575 20.9328C17.9942 21.7641 17.4432 23.2044 17.9362 23.9294H14.3693ZM19.5312 23.9294C18.7482 23.9294 18.4679 23.6878 18.4679 23.2528C18.4679 22.0348 20.0242 20.3528 22.4988 20.3528C24.9541 20.3528 26.5104 22.0348 26.5104 23.2528C26.5104 23.6878 26.2397 23.9294 25.4471 23.9294H19.5312Z" fill="#3E4347"/>
</svg>
