<svg width="12" height="12" viewBox="0 0 12 12" fill="none" xmlns="http://www.w3.org/2000/svg">
<rect width="12" height="12" rx="6" fill="#28A745"/>
<path d="M7.31641 7.0625C7.31641 6.92969 7.29557 6.8125 7.25391 6.71094C7.21484 6.60677 7.14453 6.51302 7.04297 6.42969C6.94401 6.34635 6.80599 6.26693 6.62891 6.19141C6.45443 6.11589 6.23307 6.03906 5.96484 5.96094C5.68359 5.8776 5.42969 5.78516 5.20312 5.68359C4.97656 5.57943 4.78255 5.46094 4.62109 5.32812C4.45964 5.19531 4.33594 5.04297 4.25 4.87109C4.16406 4.69922 4.12109 4.5026 4.12109 4.28125C4.12109 4.0599 4.16667 3.85547 4.25781 3.66797C4.34896 3.48047 4.47917 3.31771 4.64844 3.17969C4.82031 3.03906 5.02474 2.92969 5.26172 2.85156C5.4987 2.77344 5.76302 2.73438 6.05469 2.73438C6.48177 2.73438 6.84375 2.81641 7.14062 2.98047C7.4401 3.14193 7.66797 3.35417 7.82422 3.61719C7.98047 3.8776 8.05859 4.15625 8.05859 4.45312H7.30859C7.30859 4.23958 7.26302 4.05078 7.17188 3.88672C7.08073 3.72005 6.94271 3.58984 6.75781 3.49609C6.57292 3.39974 6.33854 3.35156 6.05469 3.35156C5.78646 3.35156 5.5651 3.39193 5.39062 3.47266C5.21615 3.55339 5.08594 3.66276 5 3.80078C4.91667 3.9388 4.875 4.09635 4.875 4.27344C4.875 4.39323 4.89974 4.5026 4.94922 4.60156C5.0013 4.69792 5.08073 4.78776 5.1875 4.87109C5.29688 4.95443 5.4349 5.03125 5.60156 5.10156C5.77083 5.17188 5.97266 5.23958 6.20703 5.30469C6.52995 5.39583 6.80859 5.4974 7.04297 5.60938C7.27734 5.72135 7.47005 5.84766 7.62109 5.98828C7.77474 6.1263 7.88802 6.28385 7.96094 6.46094C8.03646 6.63542 8.07422 6.83333 8.07422 7.05469C8.07422 7.28646 8.02734 7.49609 7.93359 7.68359C7.83984 7.87109 7.70573 8.03125 7.53125 8.16406C7.35677 8.29688 7.14714 8.39974 6.90234 8.47266C6.66016 8.54297 6.38932 8.57812 6.08984 8.57812C5.82682 8.57812 5.56771 8.54167 5.3125 8.46875C5.0599 8.39583 4.82943 8.28646 4.62109 8.14062C4.41536 7.99479 4.25 7.8151 4.125 7.60156C4.0026 7.38542 3.94141 7.13542 3.94141 6.85156H4.69141C4.69141 7.04688 4.72917 7.21484 4.80469 7.35547C4.88021 7.49349 4.98307 7.60807 5.11328 7.69922C5.24609 7.79036 5.39583 7.85807 5.5625 7.90234C5.73177 7.94401 5.90755 7.96484 6.08984 7.96484C6.35286 7.96484 6.57552 7.92839 6.75781 7.85547C6.9401 7.78255 7.07812 7.67839 7.17188 7.54297C7.26823 7.40755 7.31641 7.2474 7.31641 7.0625Z" fill="white"/>
</svg>
