<svg width="54" height="54" viewBox="0 0 54 54" fill="none" xmlns="http://www.w3.org/2000/svg">
<rect x="1.74072" y="1.5" width="50.0222" height="50.0222" rx="11.5" fill="#1BBD67" stroke="white" stroke-width="3"/>
<g clip-path="url(#clip0_11212_14508)">
<path opacity="0.8" d="M30.6763 24.1835C32.3345 24.1835 33.8931 24.828 35.0649 25.9999L36.2016 27.1366C37.1274 26.7323 38.0063 26.1698 38.7681 25.4081C40.9419 23.2343 41.6802 20.1757 40.9888 17.3984C40.8598 16.871 40.1977 16.6894 39.811 17.0761L35.4516 21.4355L31.4731 20.7734L30.811 16.7948L35.1704 12.4355C35.5571 12.0487 35.3696 11.3866 34.8364 11.2519C32.0591 10.5663 29.0005 11.3046 26.8325 13.4726C25.1626 15.1425 24.3774 17.3456 24.4185 19.5429L29.229 24.3534C29.7036 24.2421 30.1958 24.1835 30.6763 24.1835ZM24.5884 28.9882L21.2661 25.6659L12.3364 34.6015C10.8716 36.0663 10.8716 38.4394 12.3364 39.9042C13.8013 41.3691 16.1743 41.3691 17.6392 39.9042L24.8813 32.662C24.436 31.496 24.3013 30.2245 24.5884 28.9882ZM14.9907 38.6562C14.2173 38.6562 13.5845 38.0234 13.5845 37.2499C13.5845 36.4706 14.2114 35.8437 14.9907 35.8437C15.77 35.8437 16.397 36.4706 16.397 37.2499C16.397 38.0234 15.77 38.6562 14.9907 38.6562Z" fill="white"/>
<path d="M33.7407 27.3242L40.602 34.1855C41.4516 35.0352 41.4516 36.418 40.602 37.2734L37.5141 40.3613C36.6645 41.2168 35.2817 41.2168 34.4263 40.3613L27.5649 33.5C26.2114 32.1465 25.9536 30.125 26.7505 28.4961L20.5044 22.25H16.8657L11.2407 14.75L14.9907 11L22.4907 16.625V20.2637L28.7368 26.5098C30.3657 25.707 32.3872 25.9707 33.7407 27.3242Z" fill="white"/>
</g>
<defs>
<clipPath id="clip0_11212_14508">
<rect width="30" height="30" fill="white" transform="translate(11.2407 11)"/>
</clipPath>
</defs>
</svg>
