<svg width="30" height="30" viewBox="0 0 30 30" fill="none" xmlns="http://www.w3.org/2000/svg">
<g clip-path="url(#clip0_7740_139722)">
<path d="M28.9581 10.4165H6.79139C6.23898 10.4165 5.77873 10.8015 5.65798 11.3172L2.15681 26.4891C2.13698 26.5731 2.12473 26.66 2.12473 26.7498C2.12473 27.3938 2.64739 27.9165 3.29139 27.9165H8.91064C14.0009 27.9165 8.91064 27.9165 14.0009 27.9165C19.8388 27.9165 14.0009 27.9165 19.8388 27.9165H25.4581C26.0105 27.9165 26.4707 27.5315 26.5915 27.0158L30.0926 11.8439C30.1125 11.7599 30.1247 11.673 30.1247 11.5832C30.1247 10.9392 29.6021 10.4165 28.9581 10.4165Z" fill="#0A77DB"/>
<path d="M6.79141 8.66667H27.7914V2.83333C27.7914 1.54475 26.7467 0.5 25.4581 0.5H18.6453C17.8077 0.5 17.0347 0.949167 16.6188 1.676L14.9581 4.58333H2.12475C0.836162 4.58333 -0.208588 5.62808 -0.208588 6.91667V24.4913C-0.208588 24.7719 0.0194958 25 0.300662 25C0.537496 25 0.742829 24.8384 0.796496 24.6068C1.68375 20.7492 3.97041 10.8746 3.978 10.8477C4.31633 9.55858 5.4585 8.66667 6.79141 8.66667V8.66667Z" fill="#0A77DB" fill-opacity="0.5"/>
<path fill-rule="evenodd" clip-rule="evenodd" d="M11.0003 25.5C11.0003 25.5 10.0003 25.5 10.0003 24.5C10.0003 23.5 11.0003 20.5 16.0003 20.5C21.0003 20.5 22.0003 23.5 22.0003 24.5C22.0003 25.5 21.0003 25.5 21.0003 25.5H11.0003ZM16.0003 19.5C16.796 19.5 17.559 19.1839 18.1217 18.6213C18.6843 18.0587 19.0003 17.2956 19.0003 16.5C19.0003 15.7044 18.6843 14.9413 18.1217 14.3787C17.559 13.8161 16.796 13.5 16.0003 13.5C15.2047 13.5 14.4416 13.8161 13.879 14.3787C13.3164 14.9413 13.0003 15.7044 13.0003 16.5C13.0003 17.2956 13.3164 18.0587 13.879 18.6213C14.4416 19.1839 15.2047 19.5 16.0003 19.5Z" fill="white" fill-opacity="0.9"/>
</g>
<defs>
<clipPath id="clip0_7740_139722">
<rect width="30" height="30" fill="white" transform="translate(-0.000274658)"/>
</clipPath>
</defs>
</svg>
