<svg width="30" height="30" viewBox="0 0 30 30" fill="none" xmlns="http://www.w3.org/2000/svg">
<g clip-path="url(#clip0_7749_141197)">
<path d="M0.502725 13L0.921725 12.694C1.10123 12.562 1.30623 12.5 1.50873 12.5C1.91523 12.4995 2.30873 12.747 2.45623 13.1705L4.44423 18.856C4.48023 18.96 4.49773 19.0665 4.49973 19.1725C4.50373 19.4895 4.35673 19.798 4.09073 19.993L0.499725 22.623L0.502725 13Z" fill="#0A77DB" fill-opacity="0.5"/>
<path d="M2.81623 25.9485C2.71673 25.982 2.61023 26 2.49973 26C1.94773 26 1.49973 25.552 1.49973 25C1.49973 24.558 1.78573 24.1835 2.18323 24.0515L5.18323 23.0515C5.28273 23.018 5.38923 23 5.49973 23C6.05173 23 6.49973 23.448 6.49973 24C6.49973 24.442 6.21373 24.8165 5.81623 24.9485L2.81623 25.9485Z" fill="#0A77DB" fill-opacity="0.5"/>
<path d="M7.49973 26C7.49973 25.448 7.94773 25 8.49973 25C9.05173 25 9.49973 25.448 9.49973 26V29C9.49973 29.552 9.05173 30 8.49973 30C7.94773 30 7.49973 29.552 7.49973 29V26Z" fill="#0A77DB" fill-opacity="0.5"/>
<path d="M27.1832 4.5515C27.2827 4.518 27.3892 4.5 27.4997 4.5C28.0517 4.5 28.4997 4.948 28.4997 5.5C28.4997 5.942 28.2137 6.3165 27.8162 6.4485L24.8162 7.4485C24.7167 7.482 24.6102 7.5 24.4997 7.5C23.9477 7.5 23.4997 7.052 23.4997 6.5C23.4997 6.058 23.7857 5.6835 24.1832 5.5515L27.1832 4.5515Z" fill="#0A77DB" fill-opacity="0.5"/>
<path d="M22.4997 4.5C22.4997 5.052 22.0517 5.5 21.4997 5.5C20.9477 5.5 20.4997 5.052 20.4997 4.5V1.5C20.4997 0.948 20.9477 0.5 21.4997 0.5C22.0517 0.5 22.4997 0.948 22.4997 1.5V4.5Z" fill="#0A77DB" fill-opacity="0.5"/>
<path d="M29.4962 17L29.0782 17.306C28.8982 17.438 28.6932 17.5 28.4907 17.5C28.0842 17.5005 27.6907 17.253 27.5427 16.8295L25.5552 11.144C25.5187 11.04 25.5007 10.9335 25.4992 10.8275C25.4952 10.5105 25.6417 10.202 25.9082 10.007L29.4997 7.37695L29.4962 17Z" fill="#0A77DB" fill-opacity="0.5"/>
<path d="M14.9352 5.2005L10.1122 7.9495C9.77823 8.1275 9.39923 7.8025 9.52423 7.445L10.4402 4.6315C10.4792 4.511 10.4997 4.3835 10.4997 4.25C10.4997 3.5595 9.94023 3 9.24973 3C8.81423 3 8.43123 3.2225 8.20773 3.5595L6.31423 6.419C5.74123 7.2775 5.26323 8.1945 4.89423 9.1585C4.54573 10.0665 4.11223 11.2595 3.77223 12.39L5.73323 18H9.40223C10.7802 17.9985 12.1367 17.657 13.3557 17.0145L17.5677 14.795C18.1217 14.5015 18.4997 13.921 18.4997 13.25C18.4997 12.8695 18.3752 12.5205 18.1692 12.2335C18.6657 11.9245 18.9997 11.378 18.9997 10.75C18.9997 10.3775 18.8817 10.0335 18.6832 9.75C18.8812 9.4665 18.9997 9.1225 18.9997 8.75C18.9997 7.86 18.3322 7.1335 17.4722 7.023C17.4862 6.9335 17.4997 6.844 17.4997 6.75C17.4997 5.7835 16.7167 5 15.7497 5C15.4567 5 15.1772 5.0735 14.9352 5.2005V5.2005Z" fill="#0A77DB"/>
<path d="M24.2662 12H20.5972C20.4772 12 20.3572 12.0065 20.2362 12.0115C20.1517 12.2115 20.0542 12.406 19.9307 12.585C19.9762 12.802 19.9997 13.025 19.9997 13.25C19.9997 14.4555 19.3367 15.5555 18.2697 16.1205L14.0547 18.3415C13.0992 18.845 12.0662 19.1865 11.0082 19.362C11.0297 19.6905 11.1382 19.995 11.3157 20.2495C11.1177 20.5335 10.9997 20.8775 10.9997 21.25C10.9997 22.14 11.6677 22.8665 12.5272 22.977C12.5132 23.0665 12.4997 23.1565 12.4997 23.25C12.4997 24.217 13.2827 25 14.2497 25C14.5427 25 14.8222 24.9265 15.0642 24.7995L19.8872 22.0505C20.2212 21.8725 20.6002 22.1975 20.4752 22.555L19.5592 25.3685C19.5202 25.489 19.4997 25.6165 19.4997 25.75C19.4997 26.4405 20.0592 27 20.7497 27C21.1852 27 21.5682 26.7775 21.7917 26.4405L23.6852 23.581C24.2582 22.7225 24.7362 21.8055 25.1052 20.8415C25.4537 19.9335 25.8872 18.7405 26.2272 17.61L24.2662 12Z" fill="#0A77DB"/>
</g>
<defs>
<clipPath id="clip0_7749_141197">
<rect width="30" height="30" fill="white" transform="translate(-0.000274658)"/>
</clipPath>
</defs>
</svg>
