<svg width="30" height="30" viewBox="0 0 30 30" fill="none" xmlns="http://www.w3.org/2000/svg">
<path d="M11.6412 6.619L8.55422 11.0225C8.51622 11.0765 8.49973 11.135 8.49973 11.192C8.49973 11.345 8.62773 11.4985 8.79823 11.5C8.82173 11.5 8.84623 11.494 8.87123 11.4885L12.7892 10.5505C12.9147 10.52 12.9997 10.407 12.9997 10.283C12.9997 10.2615 12.9972 10.24 12.9917 10.2185L12.1462 6.7145C12.1132 6.577 11.9957 6.5 11.8727 6.5C11.7867 6.5 11.6987 6.536 11.6412 6.619V6.619Z" fill="#0A77DB"/>
<path d="M7.99973 16.5C4.96223 16.5 2.49973 18.9625 2.49973 22C2.49973 25.0375 4.96223 27.5 7.99973 27.5C11.0372 27.5 13.4997 25.0375 13.4997 22C13.4997 18.9625 11.0372 16.5 7.99973 16.5ZM7.99973 21.5C9.10273 21.5 9.99973 22.285 9.99973 23.25C9.99973 24.063 9.36023 24.742 8.49973 24.938V25.5C8.49973 25.7765 8.27623 26 7.99973 26C7.72323 26 7.49973 25.7765 7.49973 25.5V24.9395C6.76623 24.7775 6.17423 24.2745 6.01373 23.6185C6.00473 23.5805 5.99973 23.541 5.99973 23.5C5.99973 23.2235 6.22323 23 6.49973 23C6.73523 23 6.93223 23.1625 6.98573 23.3815C7.07023 23.7285 7.51573 24 7.99973 24C8.54173 24 8.99973 23.6565 8.99973 23.25C8.99973 22.8435 8.54173 22.5 7.99973 22.5C6.89673 22.5 5.99973 21.715 5.99973 20.75C5.99973 19.937 6.63923 19.258 7.49973 19.062V18.5C7.49973 18.2235 7.72323 18 7.99973 18C8.27623 18 8.49973 18.2235 8.49973 18.5V19.0605C9.23323 19.2225 9.82523 19.7255 9.98573 20.3815C9.99473 20.4195 9.99973 20.459 9.99973 20.5C9.99973 20.7765 9.77623 21 9.49973 21C9.26423 21 9.06723 20.8375 9.01373 20.6185C8.92923 20.2715 8.48373 20 7.99973 20C7.45773 20 6.99973 20.3435 6.99973 20.75C6.99973 21.1565 7.45773 21.5 7.99973 21.5V21.5Z" fill="#0A77DB"/>
<path d="M27.4997 26H23.4997V15.5L25.4997 13.5L27.4997 15.5V26Z" fill="#0A77DB" fill-opacity="0.5"/>
<path d="M26.4997 29H24.4997C23.9477 29 23.4997 28.552 23.4997 28V27H27.4997V28C27.4997 28.552 27.0517 29 26.4997 29Z" fill="#0A77DB" fill-opacity="0.5"/>
<path d="M22.4862 4.4785C22.4167 4.1925 22.1612 4.0005 21.8797 4C21.8307 4 21.7812 4.0055 21.7312 4.017L13.0312 6.11L13.9637 9.984C13.9892 10.0865 13.9997 10.1905 13.9997 10.2935C13.9992 10.521 13.9347 10.749 13.8112 10.95C13.6332 11.2405 13.3517 11.444 13.0197 11.523L8.85822 12.522L9.62972 15.714C12.4292 16.4385 14.4997 18.974 14.4997 22C14.4997 23.894 13.6847 25.5935 12.3922 26.7815C12.5502 26.954 12.7937 27.04 13.0377 26.9805L22.4997 24.6835V15.086L24.5522 13.0335L22.4862 4.4785ZM14.9997 16.75C14.9997 16.3985 15.2407 16.104 15.5672 16.0225L19.5672 15.0225C19.6257 15.008 19.6867 15 19.7497 15C20.1637 15 20.4997 15.336 20.4997 15.75C20.4997 16.101 20.2587 16.396 19.9322 16.4775L15.9322 17.4775C15.8737 17.492 15.8132 17.5 15.7497 17.5C15.3357 17.5 14.9997 17.164 14.9997 16.75V16.75ZM20.4322 19.4775L16.4322 20.4775C16.3737 20.492 16.3132 20.5 16.2497 20.5C15.8357 20.5 15.4997 20.164 15.4997 19.75C15.4997 19.3985 15.7407 19.104 16.0672 19.0225L20.0672 18.0225C20.1257 18.008 20.1867 18 20.2497 18C20.6637 18 20.9997 18.336 20.9997 18.75C20.9997 19.101 20.7587 19.396 20.4322 19.4775ZM20.9997 12.1895C20.9997 12.4655 20.6657 12.604 20.4702 12.4085L19.5612 11.4995L17.7807 13.28C17.6452 13.416 17.4572 13.5 17.2497 13.5C17.0427 13.5 16.8547 13.416 16.7182 13.28L16.2497 12.8105L15.2807 13.7795C15.1447 13.916 14.9572 14 14.7497 14C14.3357 14 13.9997 13.6645 13.9997 13.25C13.9997 13.043 14.0837 12.855 14.2202 12.719L15.7182 11.2205C15.8547 11.0845 16.0427 11 16.2497 11C16.4572 11 16.6447 11.0845 16.7812 11.2205L17.2502 11.6895L18.5012 10.4385L17.5922 9.5295C17.3962 9.334 17.5342 9 17.8107 9H20.6882C20.8602 9 20.9997 9.139 20.9997 9.311V12.1895Z" fill="#0A77DB"/>
<path d="M7.61423 11.794C7.57273 11.6435 7.49973 11.366 7.49973 11.192C7.49973 10.9255 7.58123 10.6675 7.73623 10.448L10.8577 5.992C11.0672 5.6925 11.3797 5.48 11.7352 5.3945L16.9997 4.1275V2C16.9997 1.7235 16.7762 1.5 16.4997 1.5H3.99973C3.72323 1.5 3.49973 1.7235 3.49973 2V17.3165C4.66773 16.194 6.25173 15.5 7.99973 15.5C8.18523 15.5 8.36773 15.5125 8.54973 15.528L7.61423 11.794Z" fill="#0A77DB" fill-opacity="0.5"/>
</svg>
