<svg width="30" height="30" viewBox="0 0 30 30" fill="none" xmlns="http://www.w3.org/2000/svg">
<g clip-path="url(#clip0_7742_140097)">
<path d="M29.0768 13.1465L22.1533 6.17505L19.2233 17.163C19.0853 17.681 18.6808 18.0865 18.1633 18.225L7.26376 21.1525L14.1983 28.0821C14.4738 28.3581 14.8348 28.5 15.1963 28.5C15.5748 28.5 15.9333 28.3625 16.2138 28.081L29.0733 15.2245C29.3608 14.937 29.4998 14.5605 29.4998 14.1835C29.4998 13.798 29.3623 13.4335 29.0768 13.1465V13.1465Z" fill="#0A77DB"/>
<path d="M8.10425 2.606L10.7488 5.396C10.8183 5.4655 10.9088 5.5 10.9998 5.5C11.0908 5.5 11.1813 5.4655 11.2508 5.396L13.8953 2.6055C14.1183 2.3825 13.9608 2.001 13.6448 2.001L8.35525 2C8.03875 2 7.88075 2.3825 8.10425 2.606V2.606Z" fill="#0A77DB" fill-opacity="0.5"/>
<path d="M17.9038 17.1193C18.0763 17.0733 18.2108 16.9378 18.2568 16.7653L20.5153 8.29729L14.9853 2.76929L11.9768 5.94429C11.7018 6.21929 11.3618 6.36029 10.9998 6.36029C10.6378 6.36029 10.2978 6.21929 10.0418 5.96329L7.24225 3.02479L0.646254 9.63979C0.550754 9.73529 0.501754 9.85979 0.499754 9.98529C0.497754 10.1158 0.546754 10.2468 0.646254 10.3468L9.63875 19.3393L17.9038 17.1193ZM17.2803 15.1408C17.1338 15.2873 16.9413 15.3603 16.7488 15.3603H15.2508C15.0583 15.3603 14.8658 15.2873 14.7193 15.1408C14.4263 14.8478 14.4263 14.3733 14.7193 14.0803C14.8663 13.9333 15.0583 13.8603 15.2508 13.8603H15.9998V12.1113C15.9998 11.9188 16.0728 11.7263 16.2193 11.5798C16.5123 11.2868 16.9868 11.2868 17.2798 11.5798C17.4268 11.7263 17.4998 11.9188 17.4998 12.1113V14.6093C17.4998 14.8018 17.4268 14.9943 17.2803 15.1408V15.1408ZM17.2803 7.57979C17.5733 7.87279 17.5733 8.34729 17.2803 8.64029L15.2803 10.6403C14.9873 10.9333 14.5128 10.9333 14.2198 10.6403C13.9268 10.3473 13.9268 9.87279 14.2198 9.57979L16.2198 7.57979C16.5123 7.28729 16.9873 7.28729 17.2803 7.57979ZM12.2193 7.57979L14.2193 5.57979C14.5123 5.28679 14.9868 5.28679 15.2798 5.57979C15.5728 5.87279 15.5728 6.34729 15.2798 6.64029L13.2798 8.64029C12.9868 8.93329 12.5123 8.93329 12.2193 8.64029C11.9263 8.34729 11.9268 7.87279 12.2193 7.57979V7.57979ZM10.2498 11.8603C9.75075 11.8603 9.52625 12.0083 9.18575 12.2313C8.76025 12.5118 8.22975 12.8603 7.24975 12.8603C5.73375 12.8603 4.49975 11.6263 4.49975 10.1103C4.49975 9.62379 4.62775 9.16779 4.85025 8.77129L4.72025 8.64079C4.58375 8.50529 4.49975 8.31779 4.49975 8.11029C4.49975 7.69629 4.83575 7.36029 5.24975 7.36029C5.45725 7.36029 5.64475 7.44429 5.78125 7.58029L5.91125 7.71079C6.30725 7.48829 6.76325 7.36029 7.24975 7.36029C7.99975 7.36029 8.74875 7.60629 9.25375 8.05529C9.40525 8.19229 9.49975 8.39029 9.49975 8.61029C9.49975 9.02429 9.16375 9.36029 8.74975 9.36029C8.57575 9.36029 8.41625 9.30129 8.28925 9.20229C8.06125 8.98129 7.64475 8.86029 7.24975 8.86029C6.56025 8.86029 5.99975 9.42079 5.99975 10.1103C5.99975 10.7998 6.56025 11.3603 7.24975 11.3603C7.78075 11.3603 8.01175 11.2083 8.36225 10.9778C8.78075 10.7033 9.30175 10.3603 10.2498 10.3603C11.7658 10.3603 12.9998 11.5943 12.9998 13.1103C12.9998 13.5968 12.8718 14.0528 12.6493 14.4493L12.7793 14.5798C12.9158 14.7153 12.9998 14.9028 12.9998 15.1103C12.9998 15.5243 12.6638 15.8603 12.2498 15.8603C12.0428 15.8603 11.8548 15.7763 11.7183 15.6403L11.5883 15.5098C11.1923 15.7323 10.7363 15.8603 10.2498 15.8603C9.48125 15.8603 8.69625 15.6008 8.18925 15.1083C8.07125 14.9758 7.99975 14.8018 7.99975 14.6103C7.99975 14.1963 8.33575 13.8603 8.74975 13.8603C8.93025 13.8603 9.09575 13.9243 9.22525 14.0303C9.45375 14.2293 9.90425 14.3603 10.2498 14.3603C10.9393 14.3603 11.4998 13.7998 11.4998 13.1103C11.4998 12.4208 10.9393 11.8603 10.2498 11.8603V11.8603Z" fill="#0A77DB" fill-opacity="0.5"/>
<path d="M2.99976 25.5C2.99976 26.052 3.44776 26.5 3.99976 26.5C4.27626 26.5 4.52626 26.388 4.70676 26.207L6.70676 24.207C6.88776 24.0265 6.99976 23.7765 6.99976 23.5C6.99976 22.948 6.55176 22.5 5.99976 22.5C5.72326 22.5 5.47326 22.6125 5.29276 22.793L3.29276 24.793C3.11176 24.9735 2.99976 25.2235 2.99976 25.5Z" fill="#0A77DB"/>
<path d="M6.99976 27C6.99976 27.552 7.44776 28 7.99976 28C8.27626 28 8.52626 27.888 8.70676 27.707L9.70676 26.707C9.88776 26.5265 9.99976 26.2765 9.99976 26C9.99976 25.448 9.55176 25 8.99976 25C8.72326 25 8.47326 25.1125 8.29276 25.293L7.29276 26.293C7.11176 26.4735 6.99976 26.7235 6.99976 27V27Z" fill="#0A77DB"/>
<path d="M25.4998 7C25.4998 7.552 25.9478 8 26.4998 8C26.7763 8 27.0263 7.888 27.2068 7.707L29.2068 5.707C29.3878 5.5265 29.4998 5.2765 29.4998 5C29.4998 4.448 29.0518 4 28.4998 4C28.2233 4 27.9733 4.1125 27.7928 4.293L25.7928 6.293C25.6118 6.4735 25.4998 6.7235 25.4998 7Z" fill="#0A77DB"/>
<path d="M23.4998 4C23.4998 4.552 23.9478 5 24.4998 5C24.7763 5 25.0263 4.888 25.2068 4.707L26.2068 3.707C26.3878 3.5265 26.4998 3.2765 26.4998 3C26.4998 2.448 26.0518 2 25.4998 2C25.2233 2 24.9733 2.1125 24.7928 2.293L23.7928 3.293C23.6118 3.4735 23.4998 3.7235 23.4998 4Z" fill="#0A77DB"/>
<path d="M22.4998 24.5C22.4998 25.052 22.9478 25.5 23.4998 25.5C23.7763 25.5 24.0263 25.388 24.2068 25.207L26.2068 23.207C26.3878 23.0265 26.4998 22.7765 26.4998 22.5C26.4998 21.948 26.0518 21.5 25.4998 21.5C25.2233 21.5 24.9733 21.6125 24.7928 21.793L22.7928 23.793C22.6118 23.9735 22.4998 24.2235 22.4998 24.5Z" fill="#0A77DB"/>
</g>
<defs>
<clipPath id="clip0_7742_140097">
<rect width="30" height="30" fill="white" transform="translate(-0.000244141)"/>
</clipPath>
</defs>
</svg>
