<svg width="30" height="30" viewBox="0 0 30 30" fill="none" xmlns="http://www.w3.org/2000/svg">
<g clip-path="url(#clip0_7740_140037)">
<path d="M10.5003 14.496C13.8146 14.496 16.5007 11.8099 16.5007 8.49566C16.5007 5.1861 13.8146 2.5 10.5003 2.5C7.18608 2.5 4.49999 5.18609 4.49999 8.50035C4.49999 11.8099 7.18608 14.496 10.5003 14.496ZM16.4913 19.7088V16.2821C15.9194 16.1133 15.3241 15.9914 14.7006 15.9914H13.9177C12.877 16.4696 11.7192 16.7415 10.5003 16.7415C9.28152 16.7415 8.12833 16.4696 7.08295 15.9914H6.30009C2.82177 15.9961 -0.000274658 18.8181 -0.000274658 22.2965V24.2466C-0.000274658 25.4888 1.0076 26.4967 2.24986 26.4967H18.7508C19.4774 26.4967 20.115 26.1451 20.5275 25.6107L17.8086 22.8918C16.9601 22.0433 16.4913 20.9136 16.4913 19.7088Z" fill="#0A77DB"/>
<path opacity="0.6" d="M29.3863 20.105L25.1533 15.8766C24.5907 15.3141 23.8266 15 23.0297 15H19.3123C18.4826 15 17.8122 15.6704 17.8122 16.5001V20.2128C17.8122 21.0097 18.1263 21.7691 18.6888 22.3317L22.9219 26.5601C23.5079 27.146 24.4595 27.146 25.0455 26.5601L29.3817 22.2239C29.9723 21.6379 29.9723 20.691 29.3863 20.105ZM20.8171 19.1206C20.1936 19.1206 19.692 18.619 19.692 17.9955C19.692 17.372 20.1936 16.8704 20.8171 16.8704C21.4406 16.8704 21.9422 17.372 21.9422 17.9955C21.9422 18.6143 21.4406 19.1206 20.8171 19.1206Z" fill="#0A77DB"/>
</g>
<defs>
<clipPath id="clip0_7740_140037">
<rect width="30" height="30" fill="white" transform="translate(-0.000274658)"/>
</clipPath>
</defs>
</svg>
