<svg width="30" height="30" viewBox="0 0 30 30" fill="none" xmlns="http://www.w3.org/2000/svg">
<path d="M22.4998 7.5C24.1566 7.5 25.4998 6.15685 25.4998 4.5C25.4998 2.84315 24.1566 1.5 22.4998 1.5C20.8429 1.5 19.4998 2.84315 19.4998 4.5C19.4998 6.15685 20.8429 7.5 22.4998 7.5Z" fill="#0A77DB"/>
<path d="M14.8212 9H24.4997C26.4322 9 27.9997 10.567 27.9997 12.5V17.1785C27.9997 17.8325 27.5292 18.428 26.8787 18.4935C26.5457 18.5265 26.2407 18.4245 25.9997 18.242V26.25C25.9997 26.9405 25.4402 27.5 24.7497 27.5C24.0592 27.5 23.4997 26.9405 23.4997 26.25V20C23.4997 19.448 23.0517 19 22.4997 19C21.9472 19 21.4997 19.448 21.4997 20V26.25C21.4997 26.9405 20.9402 27.5 20.2497 27.5C19.5592 27.5 18.9997 26.9405 18.9997 26.25V11.5H14.7497C14.0162 11.5 13.4312 10.869 13.5062 10.121C13.5712 9.47 14.1667 9 14.8212 9V9Z" fill="#0A77DB"/>
<path d="M15.0448 19.2025C14.5158 20.8955 13.9008 22.2905 13.1628 23.469C13.0643 23.624 12.9998 23.8025 12.9998 24C12.9998 24.552 13.4478 25 13.9998 25C14.3593 25 14.6818 24.8155 14.8583 24.531C15.6883 23.205 16.3743 21.656 16.9548 19.7975C16.9843 19.7035 16.9998 19.6035 16.9998 19.5C16.9998 18.948 16.5518 18.5 15.9998 18.5C15.5513 18.5 15.1713 18.7955 15.0448 19.2025Z" fill="#0A77DB" fill-opacity="0.5"/>
<path d="M3.54476 14.7025C3.01576 16.3955 2.40076 17.7905 1.66276 18.969C1.56426 19.124 1.49976 19.3025 1.49976 19.5C1.49976 20.052 1.94776 20.5 2.49976 20.5C2.85926 20.5 3.18176 20.3155 3.35826 20.031C4.18826 18.705 4.87376 17.156 5.45476 15.2975C5.48426 15.2035 5.49976 15.1035 5.49976 15C5.49976 14.448 5.05176 14 4.49976 14C4.05126 14 3.67126 14.2955 3.54476 14.7025Z" fill="#0A77DB" fill-opacity="0.5"/>
<path d="M16.2803 6.2195L11.2803 1.2195C11.1443 1.084 10.9568 1 10.7498 1C10.5428 1 10.3553 1.084 10.2193 1.2195L5.21926 6.2195C5.08376 6.3555 4.99976 6.543 4.99976 6.75C4.99976 7.164 5.33576 7.5 5.74976 7.5H7.99976C7.99976 11 6.99676 19.5 4.59326 23.204C4.48676 23.368 4.46076 23.579 4.56776 23.757C4.71026 23.994 5.01676 24.0705 5.25326 23.9285C5.27976 23.913 5.30226 23.895 5.32576 23.8765C7.93226 21.846 11.6073 17.9905 12.9418 12.32C12.8608 12.2495 12.7833 12.1755 12.7103 12.095C12.1898 11.52 11.9358 10.7465 12.0128 9.972C12.1073 9.031 12.6823 8.253 13.4843 7.8345C13.4868 7.7215 13.4998 7.6145 13.4998 7.5H15.7498C16.1638 7.5 16.4998 7.164 16.4998 6.75C16.4998 6.543 16.4158 6.3555 16.2803 6.2195V6.2195Z" fill="#0A77DB"/>
<path d="M8.54476 23.2025C8.01576 24.8955 7.40076 26.2905 6.66276 27.469C6.56426 27.624 6.49976 27.8025 6.49976 28C6.49976 28.552 6.94776 29 7.49976 29C7.85926 29 8.18176 28.8155 8.35826 28.531C9.18826 27.205 9.87376 25.656 10.4548 23.7975C10.4843 23.7035 10.4998 23.6035 10.4998 23.5C10.4998 22.948 10.0518 22.5 9.49976 22.5C9.05126 22.5 8.67126 22.7955 8.54476 23.2025V23.2025Z" fill="#0A77DB" fill-opacity="0.5"/>
</svg>
