<svg width="30" height="30" viewBox="0 0 30 30" fill="none" xmlns="http://www.w3.org/2000/svg">
<g clip-path="url(#clip0_7746_140131)">
<path d="M22.4998 13.75C22.4998 14.5875 22.4998 15.4125 22.4998 16.25C23.9998 16.25 25.9498 16.25 27.4998 16.25C27.4998 15.4125 27.4998 14.5875 27.4998 13.75C25.9498 13.75 23.9998 13.75 22.4998 13.75Z" fill="#0A77DB"/>
<path d="M19.9998 22.0125C21.1998 22.9 22.7623 24.075 23.9998 25C24.4998 24.3375 24.9998 23.6625 25.4998 23C24.2623 22.075 22.6998 20.9 21.4998 20C20.9998 20.675 20.4998 21.35 19.9998 22.0125Z" fill="#0A77DB"/>
<path d="M25.4998 7C24.9998 6.3375 24.4998 5.6625 23.9998 5C22.7623 5.925 21.1998 7.1 19.9998 8C20.4998 8.6625 20.9998 9.3375 21.4998 10C22.6998 9.1 24.2623 7.9375 25.4998 7Z" fill="#0A77DB"/>
<path d="M4.99976 11.25C3.62476 11.25 2.49976 12.375 2.49976 13.75V16.25C2.49976 17.625 3.62476 18.75 4.99976 18.75H6.24976V23.75H8.74976V18.75H9.99976L16.2498 22.5V7.5L9.99976 11.25H4.99976ZM11.2873 13.3875L13.7498 11.9125V18.0875L11.2873 16.6125L10.6873 16.25H9.99976H4.99976V13.75H9.99976H10.6873L11.2873 13.3875Z" fill="#0A77DB"/>
<path d="M19.3748 15C19.3748 13.3375 18.6498 11.8375 17.4998 10.8125V19.175C18.6498 18.1625 19.3748 16.6625 19.3748 15Z" fill="#0A77DB"/>
</g>
<defs>
<clipPath id="clip0_7746_140131">
<rect width="30" height="30" fill="white" transform="translate(-0.000244141)"/>
</clipPath>
</defs>
</svg>
