<svg width="30" height="30" viewBox="0 0 30 30" fill="none" xmlns="http://www.w3.org/2000/svg">
<path d="M28.5668 7.88706L22.0113 6.99606L19.8098 2.28856C19.7223 2.10106 19.5403 2.00056 19.3563 2.00006C19.2233 2.00006 19.0898 2.05206 18.9893 2.16106L14.9998 6.48056L11.0103 2.16106C10.9078 2.05006 10.7713 1.99806 10.6373 2.00006C10.4548 2.00256 10.2758 2.10356 10.1898 2.28856L7.98828 6.99606L1.43228 7.88706C1.17078 7.92306 1.00128 8.14555 0.99978 8.38105C0.99878 8.48205 1.02928 8.58506 1.09528 8.67706L4.69078 13.6146L1.56778 18.9696C1.52028 19.0506 1.49878 19.1381 1.49978 19.2246C1.50178 19.4291 1.62978 19.6241 1.84128 19.6941L6.50878 21.2496L9.26078 27.2126C9.34678 27.3991 9.53078 27.5026 9.71978 27.4996C9.80878 27.4981 9.89828 27.4746 9.97978 27.4226L16.6488 23.1381L21.5503 27.6891C21.7888 27.9111 22.0758 28.0001 22.3553 28.0001C22.9363 28.0001 23.4998 27.5261 23.4998 26.8391V21.2316L28.1578 19.6951C28.3728 19.6231 28.5023 19.4226 28.4998 19.2136C28.4988 19.1306 28.4768 19.0466 28.4313 18.9686L25.3083 13.6146L28.9033 8.67706C28.9698 8.58556 28.9998 8.48256 28.9993 8.38206C28.9988 8.14656 28.8293 7.92306 28.5668 7.88706V7.88706ZM19.4998 18.0001H10.4998C9.94778 18.0001 9.49978 17.5521 9.49978 17.0001C9.49978 16.4481 9.94778 16.0001 10.4998 16.0001H19.4998C20.0518 16.0001 20.4998 16.4481 20.4998 17.0001C20.4998 17.5521 20.0518 18.0001 19.4998 18.0001ZM19.4998 13.5001H10.4998C9.94778 13.5001 9.49978 13.0521 9.49978 12.5001C9.49978 11.9481 9.94778 11.5001 10.4998 11.5001H19.4998C20.0518 11.5001 20.4998 11.9481 20.4998 12.5001C20.4998 13.0521 20.0518 13.5001 19.4998 13.5001Z" fill="#0A77DB"/>
</svg>
