<svg width="30" height="30" viewBox="0 0 30 30" fill="none" xmlns="http://www.w3.org/2000/svg">
<g clip-path="url(#clip0_7743_140115)">
<path d="M10.9998 22.91V23.5C10.9998 23.7765 10.7763 24 10.4998 24H7.49976C7.22326 24 6.99976 23.7765 6.99976 23.5V22.91L0.499756 20.3105V27.5C0.499756 28.328 1.17176 29 1.99976 29H15.9998C16.8278 29 17.4998 28.328 17.4998 27.5V20.3105L10.9998 22.91Z" fill="#0A77DB"/>
<path d="M16.4273 19.124C14.5033 18.262 12.9038 16.811 11.8528 15H5.99976V13.5H11.1443C10.9048 12.8615 10.7298 12.193 10.6248 11.5H5.99976C4.89526 11.5 3.99976 12.3955 3.99976 13.5V15H1.99976C1.17176 15 0.499756 15.6715 0.499756 16.5V18.6955L6.99976 21.295V20.5C6.99976 20.2235 7.22326 20 7.49976 20H10.4998C10.7763 20 10.9998 20.2235 10.9998 20.5V21.295L16.4273 19.124Z" fill="#0A77DB"/>
<path d="M26.9998 3.5V0.5L24.1463 3.3535C24.0523 3.4475 23.9998 3.574 23.9998 3.707V5.4395L20.2203 9.2195C20.0838 9.355 19.9998 9.5425 19.9998 9.75C19.9998 10.164 20.3358 10.5 20.7498 10.5C20.9573 10.5 21.1448 10.416 21.2813 10.28L25.0603 6.5H26.7928C26.9258 6.5 27.0528 6.4475 27.1463 6.3535L29.9998 3.5H26.9998Z" fill="#0A77DB"/>
<path d="M27.8533 7.0605C27.5738 7.34 27.1883 7.5 26.7928 7.5H25.9488C26.2988 8.2615 26.4998 9.1065 26.4998 10C26.4998 13.3135 23.8133 16 20.4998 16C17.1863 16 14.4998 13.3135 14.4998 10C14.4998 6.6865 17.1863 4 20.4998 4C21.3933 4 22.2383 4.2005 22.9998 4.551V3.707C22.9998 3.312 23.1598 2.9255 23.4393 2.6465L23.8823 2.2035C22.8453 1.753 21.7023 1.5 20.4998 1.5C15.8053 1.5 11.9998 5.3055 11.9998 10C11.9998 14.6945 15.8053 18.5 20.4998 18.5C25.1943 18.5 28.9998 14.6945 28.9998 10C28.9998 8.7975 28.7468 7.655 28.2963 6.6175L27.8533 7.0605Z" fill="#0A77DB" fill-opacity="0.5"/>
<path d="M21.9883 10.987C21.6573 11.318 21.2178 11.5 20.7498 11.5C19.7848 11.5 18.9998 10.715 18.9998 9.75C18.9998 9.281 19.1828 8.84 19.5158 8.51L22.1928 5.8325C21.6703 5.6195 21.0993 5.5 20.4998 5.5C18.0143 5.5 15.9998 7.5145 15.9998 10C15.9998 12.4855 18.0143 14.5 20.4998 14.5C22.9853 14.5 24.9998 12.4855 24.9998 10C24.9998 9.401 24.8803 8.83 24.6678 8.307L21.9883 10.987Z" fill="#0A77DB" fill-opacity="0.5"/>
</g>
<defs>
<clipPath id="clip0_7743_140115">
<rect width="30" height="30" fill="white" transform="translate(-0.000244141)"/>
</clipPath>
</defs>
</svg>
