<svg width="30" height="30" viewBox="0 0 30 30" fill="none" xmlns="http://www.w3.org/2000/svg">
<g clip-path="url(#clip0_7746_140172)">
<path fill-rule="evenodd" clip-rule="evenodd" d="M7.49976 0.9375C7.49976 0.68886 7.40098 0.450403 7.22517 0.274587C7.04935 0.098772 6.8109 0 6.56226 0C6.31362 0 6.07516 0.098772 5.89934 0.274587C5.72353 0.450403 5.62476 0.68886 5.62476 0.9375V1.875H3.74976C2.75519 1.875 1.80137 2.27009 1.09811 2.97335C0.394844 3.67661 -0.000244141 4.63044 -0.000244141 5.625L-0.000244141 7.5H29.9998V5.625C29.9998 4.63044 29.6047 3.67661 28.9014 2.97335C28.1981 2.27009 27.2443 1.875 26.2498 1.875H24.3748V0.9375C24.3748 0.68886 24.276 0.450403 24.1002 0.274587C23.9244 0.098772 23.6859 0 23.4373 0C23.1886 0 22.9502 0.098772 22.7743 0.274587C22.5985 0.450403 22.4998 0.68886 22.4998 0.9375V1.875H7.49976V0.9375ZM-0.000244141 9.375H29.9998V13.125H18.7498C18.2525 13.125 17.7756 13.3225 17.4239 13.6742C17.0723 14.0258 16.8748 14.5027 16.8748 15C16.8748 15.4973 17.0723 15.9742 17.4239 16.3258C17.7756 16.6775 18.2525 16.875 18.7498 16.875H29.9998V26.25C29.9998 27.2446 29.6047 28.1984 28.9014 28.9016C28.1981 29.6049 27.2443 30 26.2498 30H3.74976C2.75519 30 1.80137 29.6049 1.09811 28.9016C0.394844 28.1984 -0.000244141 27.2446 -0.000244141 26.25V22.5H9.37476C9.87204 22.5 10.3489 22.3025 10.7006 21.9508C11.0522 21.5992 11.2498 21.1223 11.2498 20.625C11.2498 20.1277 11.0522 19.6508 10.7006 19.2992C10.3489 18.9475 9.87204 18.75 9.37476 18.75H-0.000244141V9.375Z" fill="#0A77DB"/>
</g>
<defs>
<clipPath id="clip0_7746_140172">
<rect width="30" height="30" fill="white" transform="translate(-0.000244141)"/>
</clipPath>
</defs>
</svg>
