<svg width="30" height="30" viewBox="0 0 30 30" fill="none" xmlns="http://www.w3.org/2000/svg">
<path d="M13.4998 21C13.4998 21.946 13.1683 22.8145 12.6168 23.5H24.9998C26.3808 23.5 27.4998 22.381 27.4998 21V20H13.4998V21Z" fill="#0A77DB"/>
<path d="M23.9998 4.5V2.5C23.9998 1.948 23.5518 1.5 22.9998 1.5C22.4478 1.5 21.9998 1.948 21.9998 2.5V6.25C21.9998 6.664 21.6638 7 21.2498 7C20.8358 7 20.4998 6.664 20.4998 6.25V4.5H18.4998V2.5C18.4998 1.948 18.0518 1.5 17.4998 1.5C16.9478 1.5 16.4998 1.948 16.4998 2.5V6.25C16.4998 6.664 16.1638 7 15.7498 7C15.3358 7 14.9998 6.664 14.9998 6.25V4.5H12.9998V2.5C12.9998 1.948 12.5518 1.5 11.9998 1.5C11.4478 1.5 10.9998 1.948 10.9998 2.5V6.25C10.9998 6.664 10.6638 7 10.2498 7C9.83576 7 9.49976 6.664 9.49976 6.25V4.5H8.99976C7.89526 4.5 6.99976 5.3955 6.99976 6.5V21C6.99976 22.381 8.11876 23.5 9.49976 23.5C10.8808 23.5 11.9998 22.381 11.9998 21V18.5H25.9998V6.5C25.9998 5.3955 25.1043 4.5 23.9998 4.5ZM21.1833 11.2295L16.6833 15.7295C16.5048 15.8975 16.2643 16 15.9998 16C15.7233 16 15.4733 15.888 15.2928 15.707L12.7928 13.207C12.6118 13.0265 12.4998 12.7765 12.4998 12.5C12.4998 11.948 12.9478 11.5 13.4998 11.5C13.7763 11.5 14.0263 11.612 14.2068 11.793L16.0223 13.6085L19.8163 9.7705C19.9948 9.6025 20.2353 9.5 20.4998 9.5C21.0518 9.5 21.4998 9.948 21.4998 10.5C21.4998 10.788 21.3783 11.0475 21.1833 11.2295V11.2295Z" fill="#0A77DB"/>
<path d="M9.49976 25C7.29426 25 5.49976 23.2055 5.49976 21V6.5H3.99976C3.72326 6.5 3.49976 6.7235 3.49976 7V27.5C3.49976 27.7765 3.72326 28 3.99976 28H21.9998C22.2763 28 22.4998 27.7765 22.4998 27.5V25H9.49976Z" fill="#0A77DB" fill-opacity="0.5"/>
</svg>
