<svg width="46" height="46" viewBox="0 0 46 46" fill="none" xmlns="http://www.w3.org/2000/svg">
<rect x="0.25" y="0.25" width="45.5" height="45.5" rx="6.75" fill="white" stroke="#C9C9D4" stroke-width="0.5"/>
<g clip-path="url(#clip0_2731_14222)">
<rect x="11" y="11" width="24" height="24" rx="7" fill="white"/>
<path d="M25.9998 18V22H26.9998V24H23.9998V16H25.9998L22.9998 12L19.9998 16H21.9998V24H18.9998V21.93C19.6998 21.56 20.1998 20.85 20.1998 20C20.1998 18.79 19.2098 17.8 17.9998 17.8C16.7898 17.8 15.7998 18.79 15.7998 20C15.7998 20.85 16.2998 21.56 16.9998 21.93V24C16.9998 25.11 17.8898 26 18.9998 26H21.9998V29.05C21.2898 29.42 20.7998 30.15 20.7998 31C20.7998 32.22 21.7898 33.2 22.9998 33.2C24.2098 33.2 25.1998 32.22 25.1998 31C25.1998 30.15 24.7098 29.42 23.9998 29.05V26H26.9998C28.1098 26 28.9998 25.11 28.9998 24V22H29.9998V18H25.9998Z" fill="#323232"/>
</g>
<defs>
<clipPath id="clip0_2731_14222">
<rect x="11" y="11" width="24" height="24" rx="7" fill="white"/>
</clipPath>
</defs>
</svg>
