<svg width="46" height="46" viewBox="0 0 46 46" fill="none" xmlns="http://www.w3.org/2000/svg">
<g clip-path="url(#clip0_2731_14213)">
<rect width="36.4933" height="46" transform="translate(4.59961)" fill="white"/>
<path d="M39.007 14.723C38.3827 17.4022 36.9107 20.4821 34.7143 23.5376C33.6662 24.9899 32.4677 26.4178 31.1447 27.7954C28.2252 30.8006 25.1052 33.0532 22.2344 34.4063C27.1513 34.4063 31.5943 32.2271 34.7143 28.8211C38.0591 25.1652 39.856 20.0569 39.007 14.723Z" fill="#04519D"/>
<path d="M34.7147 1.75112C37.7345 0.874824 38.8327 2.77821 36.4873 8.06178C35.9877 7.18549 35.3891 6.43419 34.7147 5.73315C33.8413 4.80659 32.8176 3.98057 31.695 3.12873C32.8433 2.45215 33.8413 1.97664 34.7147 1.75112ZM34.7147 18.2295C37.6099 13.9472 39.7062 9.61465 40.3562 6.13394C40.5051 5.33237 40.5796 4.58107 40.6053 3.9303V3.67896C40.5796 2.00246 40.0312 0.800102 38.5836 0.198245C37.5856 -0.126459 36.2625 -0.0517363 34.7147 0.423771C33.4662 0.824556 32.0687 1.50114 30.5467 2.45215C23.4834 -1.65352 14.4471 0.0243452 9.33108 6.0334C5.01267 10.7409 3.81425 18.4048 6.53475 24.1883L6.56048 24.1638C5.43653 21.4344 5.36205 18.1792 6.01069 15.2487C6.1109 14.6727 6.28558 14.0967 6.48464 13.4962C6.53475 13.3453 6.58485 13.2204 6.63495 13.0709C6.75954 12.7204 6.90985 12.4446 7.03443 12.2191C8.80702 8.46257 11.9514 6.28474 14.3225 7.38656C16.6693 8.48838 17.2177 12.1933 15.4708 16.2758C14.9711 17.3274 13.7984 19.5813 12.4253 21.9846C9.00608 27.9448 6.13527 35.7078 11.0779 36.5596C12.6 36.7091 14.3225 36.2838 16.1696 35.4075C22.4095 32.8778 29.7233 25.6162 34.7147 18.2295Z" fill="#04519D"/>
<mask id="mask0_2731_14213" style="mask-type:alpha" maskUnits="userSpaceOnUse" x="34" y="39" width="8" height="8">
<path d="M34.7598 39.9969H41.0932V46.0006H34.7598V39.9969Z" fill="white"/>
</mask>
<g mask="url(#mask0_2731_14213)">
<path d="M34.7961 39.9996L34.7744 41.0607H37.3324V45.9788H38.5146V41.039H41.0929V39.9996H34.7961Z" fill="#04519D"/>
</g>
<mask id="mask1_2731_14213" style="mask-type:alpha" maskUnits="userSpaceOnUse" x="26" y="39" width="7" height="8">
<path d="M26.0928 39.6492H32.6794V46.0006H26.0928V39.6492Z" fill="white"/>
</mask>
<g mask="url(#mask1_2731_14213)">
<path d="M30.1887 42.7345H27.5265V40.9968H30.1887C30.9281 41.0186 31.2883 41.4207 31.2883 41.8446C31.3086 42.3541 30.9498 42.7141 30.1887 42.7345ZM30.316 39.9792H26.2793V45.9788H27.5265V43.7955H29.4074L30.316 43.7738C32.197 43.7955 32.5558 42.5443 32.5558 41.9084C32.5558 41.293 32.2389 39.9792 30.316 39.9792Z" fill="#04519D"/>
</g>
<mask id="mask2_2731_14213" style="mask-type:alpha" maskUnits="userSpaceOnUse" x="15" y="39" width="7" height="8">
<path d="M15 39.9969H21.9333V46.0006H15V39.9969Z" fill="white"/>
</mask>
<g mask="url(#mask2_2731_14213)">
<path d="M20.5749 44.5373L16.5178 39.9996H15.0391V45.9788H16.2226V41.4628L20.3 45.9788H21.7367V39.9996H20.5749V44.5373Z" fill="#04519D"/>
</g>
<mask id="mask3_2731_14213" style="mask-type:alpha" maskUnits="userSpaceOnUse" x="4" y="39" width="9" height="8">
<path d="M4.59961 39.6492H12.2262V46.0006H4.59961V39.6492Z" fill="white"/>
</mask>
<g mask="url(#mask3_2731_14213)">
<path d="M8.29781 44.7058L5.88877 39.9792H4.59961L7.6424 46.0005H8.90989L11.996 39.9996H10.7272L8.29781 44.7058Z" fill="#04519D"/>
</g>
</g>
<defs>
<clipPath id="clip0_2731_14213">
<rect width="36.4933" height="46" fill="white" transform="translate(4.59961)"/>
</clipPath>
</defs>
</svg>
