<svg width="30" height="31" viewBox="0 0 30 31" fill="none" xmlns="http://www.w3.org/2000/svg">
<g clip-path="url(#clip0_12467_26791)">
<path opacity="0.6" d="M10.8983 0.699707H19.1014C19.4248 0.699707 19.6873 0.979082 19.6873 1.32471V3.82471C19.6873 4.17033 19.4248 4.44971 19.1014 4.44971H10.8983C10.5748 4.44971 10.3123 4.17033 10.3123 3.82471V1.32471C10.3123 0.979082 10.5748 0.699707 10.8983 0.699707Z" fill="#0A77DB"/>
<path d="M26.0266 3.51221H20.8034C20.8034 4.47704 20.0223 5.26221 19.0623 5.26221H10.9373C9.97743 5.26221 9.19627 4.47704 9.19627 3.51221H3.97305C3.33234 3.51221 2.81234 4.03487 2.81234 4.67887V28.5955C2.81234 29.2395 3.33234 29.7622 3.97305 29.7622H26.0266C26.6673 29.7622 27.1873 29.2395 27.1873 28.5955V4.67887C27.1873 4.03487 26.6673 3.51221 26.0266 3.51221ZM24.2856 26.8455H5.71413V7.01221H24.2856V26.8455Z" fill="#0A77DB"/>
<path d="M8.90609 12.8872C10.2005 12.8872 11.2498 11.8379 11.2498 10.5435C11.2498 9.24904 10.2005 8.19971 8.90609 8.19971C7.61167 8.19971 6.56234 9.24904 6.56234 10.5435C6.56234 11.8379 7.61167 12.8872 8.90609 12.8872Z" fill="#0A77DB"/>
<path d="M8.90609 25.0747C10.2005 25.0747 11.2498 24.0254 11.2498 22.731C11.2498 21.4365 10.2005 20.3872 8.90609 20.3872C7.61167 20.3872 6.56234 21.4365 6.56234 22.731C6.56234 24.0254 7.61167 25.0747 8.90609 25.0747Z" fill="#0A77DB"/>
<path d="M8.90609 18.5122C10.2005 18.5122 11.2498 17.6727 11.2498 16.6372C11.2498 15.6017 10.2005 14.7622 8.90609 14.7622C7.61167 14.7622 6.56234 15.6017 6.56234 16.6372C6.56234 17.6727 7.61167 18.5122 8.90609 18.5122Z" fill="#0A77DB"/>
<path opacity="0.6" d="M21.5263 9.13721C22.0637 9.13721 22.4998 9.76721 22.4998 10.5435C22.4998 11.3197 22.0637 11.9497 21.5263 11.9497H15.0359C14.4978 11.9497 14.0623 11.3197 14.0623 10.5435C14.0623 9.76721 14.4978 9.13721 15.0359 9.13721H21.5263Z" fill="#0A77DB"/>
<path opacity="0.6" d="M21.5263 15.6997C22.0637 15.6997 22.4998 16.1197 22.4998 16.6372C22.4998 17.1547 22.0637 17.5747 21.5263 17.5747H15.0359C14.4978 17.5747 14.0623 17.1547 14.0623 16.6372C14.0623 16.1197 14.4978 15.6997 15.0359 15.6997H21.5263Z" fill="#0A77DB"/>
<path opacity="0.6" d="M21.5263 21.3247C22.0637 21.3247 22.4998 21.9547 22.4998 22.731C22.4998 23.5072 22.0637 24.1372 21.5263 24.1372H15.0359C14.4978 24.1372 14.0623 23.5072 14.0623 22.731C14.0623 21.9547 14.4978 21.3247 15.0359 21.3247H21.5263Z" fill="#0A77DB"/>
</g>
<defs>
<clipPath id="clip0_12467_26791">
<rect width="30" height="30" fill="white" transform="translate(-0.000732422 0.230957)"/>
</clipPath>
</defs>
</svg>
