<svg width="32" height="32" viewBox="0 0 32 32" fill="none" xmlns="http://www.w3.org/2000/svg">
<path d="M18 8.5V0H5.5C4.66875 0 4 0.66875 4 1.5V30.5C4 31.3312 4.66875 32 5.5 32H26.5C27.3312 32 28 31.3312 28 30.5V10H19.5C18.675 10 18 9.325 18 8.5ZM8 4.5C8 4.22375 8.22375 4 8.5 4H13.5C13.7762 4 14 4.22375 14 4.5V5.5C14 5.77625 13.7762 6 13.5 6H8.5C8.22375 6 8 5.77625 8 5.5V4.5ZM8 8.5C8 8.22375 8.22375 8 8.5 8H13.5C13.7762 8 14 8.22375 14 8.5V9.5C14 9.77625 13.7762 10 13.5 10H8.5C8.22375 10 8 9.77625 8 9.5V8.5ZM20.0506 24H23C23.5525 24 24 24.4475 24 25C24 25.5525 23.5525 26 23 26H20.0506C19.0225 26 18.0963 25.4288 17.6356 24.5088C17.4513 24.1388 17.13 24.1012 17 24.1012C16.87 24.1012 16.5488 24.1381 16.3738 24.4881L15.8944 25.4469C15.8114 25.613 15.6837 25.7527 15.5257 25.8503C15.3677 25.9479 15.1857 25.9995 15 25.9994C14.9762 25.9994 14.9531 25.9981 14.9288 25.9963C14.5256 25.9681 14.1788 25.6994 14.0519 25.3156L13 22.1619L12.3369 24.1544C11.9688 25.2581 10.9381 26 9.77437 26H9C8.4475 26 8 25.5525 8 25C8 24.4475 8.4475 24 9 24H9.77437C10.0763 24 10.3438 23.8075 10.4394 23.5213L11.5763 20.1063C11.7825 19.4931 12.3538 19.0806 13 19.0806C13.6462 19.0806 14.2175 19.4925 14.4231 20.1063L15.2906 22.7088C16.5262 21.6969 18.6687 22.1025 19.4156 23.5938C19.5419 23.8475 19.7881 24 20.0506 24Z" fill="white"/>
<path opacity="0.6" d="M21.4438 0.4375L27.5625 6.5625C27.8438 6.84375 28 7.225 28 7.61875V8H20V0H20.3813C20.7813 0 21.1625 0.15625 21.4438 0.4375Z" fill="white"/>
</svg>
