<svg width="294" height="210" viewBox="0 0 294 210" fill="none" xmlns="http://www.w3.org/2000/svg">
<path fill-rule="evenodd" clip-rule="evenodd" d="M27.5725 36.2464C24.1791 23.7896 41.6513 12.3186 66.5974 10.6242C76.7057 9.9373 86.9832 10.9637 95.7851 13.5391C105.112 4.76015 126.907 1.42374 144.466 6.08674C147.536 6.90197 150.354 7.93583 152.831 9.15496C160.096 1.87814 177.789 -1.07845 192.351 2.55162C196.381 3.5563 199.897 5.00935 202.628 6.79914C214.336 -0.0825688 235.026 -0.932997 248.838 4.9005C254.644 7.3522 258.557 10.7335 259.906 14.465C279.089 17.0789 290.406 26.9797 285.183 36.579C284.744 37.3859 284.193 38.1765 283.534 38.9454C298.919 48.9477 295.153 63.2836 275.122 70.9662C268.886 73.3577 261.521 74.9062 253.738 75.4615C253.565 86.2225 235.942 94.8764 214.375 94.7898C207.17 94.7611 200.121 93.7379 194.009 91.8341C186.714 103.899 161.27 110.717 137.178 107.065C127.081 105.534 118.358 102.296 112.495 97.9043C87.8272 105.334 55.8102 101.338 40.9821 88.9771C40.7954 88.8215 40.6118 88.6649 40.4313 88.507C24.2876 89.4505 9.6642 83.6981 7.76947 75.6579C6.75988 71.3724 9.59271 67.0828 15.5129 63.9326C1.53499 59.8231 -3.16066 50.8028 5.02563 43.7854C9.74803 39.737 18.0305 37.0607 27.3267 36.5794L27.5725 36.2464Z" fill="#F1F6FF"/>
<path fill-rule="evenodd" clip-rule="evenodd" d="M89.6002 121.028C89.6002 122.669 88.1231 124 86.3003 124C84.4776 124 83 122.669 83 121.028C83 119.386 84.4776 118.056 86.3003 118.056C88.1231 118.056 89.6002 119.386 89.6002 121.028Z" fill="#F1F6FF"/>
<path fill-rule="evenodd" clip-rule="evenodd" d="M96.3898 117.187C96.3898 120.47 93.4351 123.132 89.7896 123.132C86.1447 123.132 83.1895 120.47 83.1895 117.187C83.1895 113.905 86.1447 111.243 89.7896 111.243C93.4351 111.243 96.3898 113.905 96.3898 117.187Z" fill="#F1F6FF"/>
<path fill-rule="evenodd" clip-rule="evenodd" d="M107.357 108.748C107.357 113.672 102.925 117.664 97.4571 117.664C91.989 117.664 87.5566 113.672 87.5566 108.748C87.5566 103.823 91.989 99.8311 97.4571 99.8311C102.925 99.8311 107.357 103.823 107.357 108.748Z" fill="#F1F6FF"/>
<path fill-rule="evenodd" clip-rule="evenodd" d="M27.5725 36.2464C24.1791 23.7896 41.6513 12.3186 66.5974 10.6242C76.7057 9.9373 86.9832 10.9637 95.7851 13.5391C105.112 4.76015 126.907 1.42374 144.466 6.08674C147.536 6.90197 150.354 7.93582 152.831 9.15496C160.096 1.87814 177.789 -1.07845 192.351 2.55162C196.381 3.5563 199.897 5.00935 202.628 6.79914C214.336 -0.0825689 235.026 -0.932997 248.838 4.9005C254.644 7.3522 258.557 10.7335 259.906 14.465C279.089 17.0789 290.406 26.9797 285.183 36.579C284.744 37.3859 284.193 38.1765 283.534 38.9454C298.92 48.9477 295.153 63.2836 275.122 70.9662C268.886 73.3577 261.521 74.9062 253.738 75.4615C253.565 86.2225 235.942 94.8764 214.375 94.7898C207.17 94.7611 200.121 93.7379 194.009 91.8341C186.714 103.899 161.27 110.717 137.178 107.064C127.081 105.534 118.358 102.296 112.495 97.9043C87.8272 105.334 55.8103 101.338 40.9822 88.9771C40.7955 88.8215 40.6119 88.6649 40.4313 88.507C24.2876 89.4505 9.6642 83.6981 7.76948 75.6579C6.75988 71.3724 9.59271 67.0828 15.5129 63.9326C1.53499 59.8231 -3.16066 50.8028 5.02563 43.7854C9.74804 39.737 18.0305 37.0607 27.3267 36.5794L27.5725 36.2464Z" fill="#F1F6FF" stroke="#4472C4" stroke-width="1.33333" stroke-miterlimit="8"/>
<path fill-rule="evenodd" clip-rule="evenodd" d="M89.6002 121.028C89.6002 122.669 88.1231 124 86.3003 124C84.4776 124 83 122.669 83 121.028C83 119.386 84.4776 118.056 86.3003 118.056C88.1231 118.056 89.6002 119.386 89.6002 121.028Z" fill="#F1F6FF" stroke="#4472C4" stroke-width="1.33333" stroke-miterlimit="8"/>
<path fill-rule="evenodd" clip-rule="evenodd" d="M96.3898 117.187C96.3898 120.47 93.4351 123.132 89.7896 123.132C86.1447 123.132 83.1895 120.47 83.1895 117.187C83.1895 113.905 86.1447 111.243 89.7896 111.243C93.4351 111.243 96.3898 113.905 96.3898 117.187Z" fill="#F1F6FF" stroke="#4472C4" stroke-width="1.33333" stroke-miterlimit="8"/>
<path fill-rule="evenodd" clip-rule="evenodd" d="M107.357 108.748C107.357 113.672 102.925 117.664 97.4571 117.664C91.989 117.664 87.5566 113.672 87.5566 108.748C87.5566 103.823 91.989 99.8311 97.4571 99.8311C102.925 99.8311 107.357 103.823 107.357 108.748Z" fill="#F1F6FF" stroke="#4472C4" stroke-width="1.33333" stroke-miterlimit="8"/>
<path fill-rule="evenodd" clip-rule="evenodd" d="M32.9255 65.4897C26.9579 65.7232 20.9909 65.0344 15.8262 63.5161ZM48.0123 87.0928C45.6125 87.5699 43.097 87.8876 40.5311 88.0372ZM112.478 97.473C110.673 96.1209 109.162 94.6762 107.97 93.1634ZM195.838 86.7259C195.572 88.33 194.969 89.915 194.038 91.4551ZM231.628 57.507C245.159 60.7957 253.697 67.6714 253.576 75.1807ZM283.397 38.6832C281.205 41.2405 277.86 43.5087 273.624 45.3106ZM259.946 14.0935C260.319 15.1259 260.492 16.1741 260.462 17.2233ZM197.532 10.4425C198.806 8.99875 200.492 7.65409 202.539 6.45117ZM150.705 12.3449C151.225 11.1517 152.039 9.99509 153.13 8.90241ZM95.7506 13.514C98.9358 14.4455 101.882 15.5669 104.525 16.8536ZM29.1047 39.7606C28.4093 38.6114 27.8976 37.4367 27.5736 36.2468Z" fill="#F1F6FF"/>
<path d="M32.9255 65.4897C26.9579 65.7232 20.9909 65.0344 15.8262 63.5161M48.0123 87.0928C45.6125 87.5699 43.097 87.8876 40.5311 88.0372M112.478 97.473C110.673 96.1209 109.162 94.6762 107.97 93.1634M195.838 86.7259C195.572 88.33 194.969 89.915 194.038 91.4551M231.628 57.507C245.159 60.7957 253.697 67.6714 253.576 75.1807M283.397 38.6832C281.205 41.2405 277.86 43.5087 273.624 45.3106M259.946 14.0935C260.319 15.1259 260.492 16.1741 260.462 17.2233M197.532 10.4425C198.806 8.99875 200.492 7.65409 202.539 6.45117M150.705 12.3449C151.225 11.1517 152.039 9.99509 153.13 8.90241M95.7506 13.514C98.9358 14.4455 101.882 15.5669 104.525 16.8536M29.1047 39.7606C28.4093 38.6114 27.8976 37.4367 27.5736 36.2468" stroke="#4472C4" stroke-width="1.33333" stroke-miterlimit="8"/>
<path d="M84.5549 146.178C85.6974 143.483 83.0849 144.343 83.0849 144.343C84.2299 141.36 81.0849 142.82 81.0849 142.82C81.0849 142.82 81.8899 142.04 81.6749 141.27C81.6024 141.025 81.4491 140.81 81.2399 140.663C79.9899 139.81 77.1449 143.52 75.2749 142.753C74.1174 142.278 74.4199 140.538 72.6399 139.625C72.3899 139.493 71.3899 138.99 70.9849 139.35C70.2724 139.98 72.3699 142.298 71.9649 145.6C71.8824 146.288 71.7799 146.275 71.6499 147.255C71.4669 148.626 71.4804 150.016 71.6899 151.383L71.3824 157.838H80.7099C80.6999 156.523 80.6907 155.207 80.6824 153.89C81.3824 153.168 85.4524 148.945 85.8974 147.363C85.9524 147.173 86.0799 146.718 85.8449 146.413C85.5249 146 84.7249 146.145 84.5549 146.178Z" fill="#E39C76"/>
<path d="M81.3245 149.118C81.137 148.73 81.457 148.248 81.9495 147.785C81.0045 148.195 80.032 148.438 79.5195 148.035C79.007 147.633 79.4745 146.993 79.912 146.535C79.112 146.893 78.3645 147.05 77.9295 146.72C77.322 146.255 77.8945 145.448 78.412 144.885C77.4795 145.435 76.557 145.81 76.1745 145.455C75.3945 144.735 77.322 142.79 78.107 142.085C78.1184 142.073 78.132 142.064 78.147 142.058C78.162 142.052 78.1782 142.048 78.1945 142.048C78.2108 142.048 78.2269 142.052 78.2419 142.058C78.257 142.064 78.2706 142.073 78.282 142.085C78.2937 142.097 78.303 142.111 78.3093 142.126C78.3157 142.141 78.3189 142.157 78.3189 142.174C78.3189 142.19 78.3157 142.207 78.3093 142.222C78.303 142.237 78.2937 142.251 78.282 142.263C77.667 142.813 75.782 144.73 76.352 145.263C76.737 145.618 78.1795 144.8 79.4895 143.878C80.1445 143.335 80.7395 142.928 80.792 142.878C80.8185 142.858 80.8518 142.849 80.8846 142.854C80.9175 142.859 80.9471 142.876 80.967 142.903C80.9869 142.929 80.9954 142.962 80.9907 142.995C80.986 143.028 80.9685 143.058 80.942 143.078C80.8045 143.19 80.292 143.603 79.6445 144.063C79.002 144.598 77.422 145.99 78.0895 146.498C78.5595 146.858 79.6095 146.443 80.652 145.848C81.4058 145.252 82.1993 144.708 83.027 144.22C83.0542 144.203 83.0868 144.197 83.1182 144.204C83.1496 144.21 83.1772 144.229 83.1955 144.255C83.2138 144.281 83.2213 144.314 83.2165 144.345C83.2116 144.377 83.1948 144.405 83.1695 144.425C82.4139 145.03 81.616 145.581 80.782 146.073C80.297 146.468 79.1945 147.423 79.6845 147.823C80.262 148.288 81.7195 147.678 82.902 147.025C83.3419 146.721 83.7975 146.441 84.267 146.185C84.295 146.171 84.3272 146.168 84.3574 146.177C84.3875 146.185 84.4133 146.205 84.4296 146.232C84.446 146.258 84.4517 146.29 84.4456 146.321C84.4396 146.352 84.4222 146.379 84.397 146.398C84.3395 146.438 83.7795 146.825 83.0445 147.233C82.1345 147.868 81.3595 148.588 81.557 149C81.8745 149.655 83.307 148.835 83.892 148.42C83.9051 148.41 83.9202 148.403 83.9362 148.399C83.9523 148.395 83.969 148.394 83.9853 148.396C84.0017 148.399 84.0174 148.405 84.0314 148.414C84.0454 148.422 84.0575 148.434 84.067 148.448C84.0766 148.461 84.0834 148.476 84.0871 148.492C84.0908 148.508 84.0912 148.525 84.0884 148.541C84.0856 148.558 84.0797 148.573 84.0708 148.587C84.062 148.601 84.0505 148.613 84.037 148.623C83.2495 149.193 81.7495 150 81.3245 149.118Z" fill="#2D1929"/>
<path d="M76.7803 148.655C76.7471 148.655 76.7153 148.642 76.6919 148.618C76.6684 148.595 76.6553 148.563 76.6553 148.53C76.6553 146.192 74.9178 143.49 74.9053 143.462C74.8872 143.435 74.8807 143.401 74.8873 143.369C74.8938 143.337 74.9129 143.308 74.9403 143.29C74.954 143.281 74.9694 143.274 74.9856 143.271C75.0017 143.268 75.0184 143.268 75.0345 143.272C75.0506 143.275 75.0658 143.282 75.0793 143.292C75.0927 143.301 75.1041 143.313 75.1128 143.327C75.1878 143.44 76.9103 146.12 76.9103 148.53C76.9103 148.547 76.9069 148.563 76.9003 148.579C76.8937 148.594 76.884 148.608 76.8719 148.62C76.8598 148.632 76.8454 148.641 76.8296 148.647C76.8139 148.653 76.7971 148.655 76.7803 148.655Z" fill="#2D1929"/>
<path d="M42.0284 148.25C38.9834 148.35 32.2134 149.113 27.3359 155.058C26.0259 156.653 25.2134 158.395 23.5859 161.88C20.7509 167.962 17.1234 175.77 18.1509 184.173C18.4484 186.6 19.6734 192.768 21.4009 198.423L33.7084 198.332C32.4901 192.602 31.2734 186.873 30.0584 181.143C31.1173 176.056 32.6895 171.089 34.7509 166.32C35.7334 164.077 38.7509 158.387 42.0284 148.25Z" fill="#86EBF9"/>
<path d="M49.5801 148.012C51.8101 147.637 56.9626 147.107 60.9101 150.197C61.8051 150.897 63.1601 152.222 65.3226 157.182C67.2164 161.572 68.6004 166.165 69.4476 170.87C70.1542 165.15 70.8626 159.43 71.5726 153.71L80.7226 154.855C81.6869 161.714 82.0699 168.643 81.8676 175.567C81.6476 182.737 80.8901 186.272 78.1901 188.317C75.6626 190.23 72.5501 189.987 71.8176 189.912C70.0401 189.725 65.1001 188.695 58.6151 177.082C55.4376 171.385 51.1001 161.75 49.5801 148.012Z" fill="#86EBF9"/>
<mask id="mask0_2415_7971" style="mask-type:luminance" maskUnits="userSpaceOnUse" x="41" y="135" width="11" height="21">
<path d="M41.0859 135.632H51.1534V155.785H41.0859V135.632Z" fill="white"/>
</mask>
<g mask="url(#mask0_2415_7971)">
<path d="M41.0859 135.632H51.1534V155.785H41.0859V135.632Z" fill="#E39C76"/>
<path d="M39.7676 144.93C41.747 146.281 44.0882 147.004 46.4851 147.004C48.882 147.004 51.2231 146.281 53.2026 144.93V137.8H40.3601L39.7676 144.93Z" fill="#D48F6E"/>
</g>
<path d="M58.8453 124.422C58.7778 126.52 57.5103 131.4 57.2403 133.07C55.6428 138.32 51.5328 144.785 45.9428 144.51C39.1603 144.105 36.4428 135.815 35.6553 133.297C34.8178 130.59 34.1353 127.962 34.0228 127.565C33.761 126.645 33.6612 125.686 33.7278 124.732C33.5903 124.175 33.4528 123.635 33.3203 123.145C33.3203 123.145 33.5478 112.145 41.3403 109.355C41.4128 109.34 41.4803 109.335 41.5503 109.322C46.6753 107.35 50.4028 109.285 50.7628 109.355C52.0297 109.808 53.189 110.519 54.1678 111.442C58.6303 115.622 58.7903 123.142 58.7903 123.145C58.8414 123.569 58.8598 123.996 58.8453 124.422Z" fill="#E39C76"/>
<path d="M46.4733 133.173C47.3758 132.945 47.8983 132.608 48.0258 132.173C48.3183 131.173 46.3783 130.423 46.6733 126.733C46.6759 126.699 46.6917 126.669 46.717 126.647C46.7423 126.626 46.7751 126.615 46.8083 126.618C46.8414 126.62 46.8722 126.636 46.8938 126.661C46.9153 126.687 46.9259 126.719 46.9233 126.753C46.6258 130.468 48.6208 131.023 48.2658 132.253C48.1108 132.783 47.5283 133.18 46.5333 133.43C46.5164 133.434 46.4989 133.435 46.4817 133.432C46.4646 133.429 46.4482 133.423 46.4335 133.414C46.4187 133.404 46.4059 133.392 46.3958 133.378C46.3857 133.364 46.3785 133.348 46.3745 133.331C46.3706 133.314 46.37 133.297 46.3729 133.28C46.3757 133.263 46.3819 133.246 46.391 133.232C46.4002 133.217 46.4122 133.204 46.4263 133.194C46.4404 133.184 46.4564 133.177 46.4733 133.173Z" fill="#2D1929"/>
<path d="M52.6324 127.515C52.6324 128.407 52.1624 129.127 51.5874 129.127C51.0124 129.127 50.5449 128.405 50.5449 127.512C50.5449 126.62 51.0124 125.902 51.5899 125.902C52.1674 125.902 52.6324 126.625 52.6324 127.515Z" fill="#2D1929"/>
<path d="M54.2294 123.485C54.1698 123.485 54.1122 123.464 54.0669 123.425C53.9844 123.352 52.0044 121.697 49.7044 123.01C49.676 123.028 49.6442 123.04 49.6109 123.046C49.5776 123.051 49.5436 123.05 49.5108 123.042C49.4781 123.034 49.4473 123.019 49.4203 122.999C49.3933 122.979 49.3707 122.953 49.3539 122.924C49.337 122.895 49.3262 122.863 49.3221 122.829C49.3181 122.796 49.3208 122.762 49.3302 122.729C49.3396 122.697 49.3555 122.667 49.3768 122.641C49.3981 122.615 49.4246 122.593 49.4544 122.577C52.0669 121.077 54.3669 123.025 54.3919 123.045C54.4308 123.078 54.4585 123.122 54.4714 123.172C54.4843 123.221 54.4817 123.274 54.464 123.322C54.4463 123.369 54.4143 123.411 54.3724 123.44C54.3304 123.469 54.2805 123.485 54.2294 123.485Z" fill="#2D1929"/>
<path d="M38.75 123.485C38.6989 123.485 38.649 123.469 38.6071 123.44C38.5652 123.411 38.5332 123.37 38.5155 123.322C38.4978 123.274 38.4952 123.221 38.5081 123.172C38.5209 123.123 38.5487 123.078 38.5875 123.045C38.61 123.025 40.9125 121.087 43.5225 122.577C43.5769 122.612 43.6159 122.666 43.6312 122.729C43.6466 122.792 43.6371 122.858 43.6048 122.914C43.5726 122.969 43.52 123.011 43.4581 123.029C43.3961 123.047 43.3297 123.04 43.2725 123.01C40.9725 121.697 38.9925 123.352 38.91 123.425C38.8654 123.463 38.8087 123.484 38.75 123.485Z" fill="#2D1929"/>
<path d="M43.9997 147.638C43.9997 147.638 33.3672 149.943 31.2497 154.668C29.1322 159.393 31.2497 198.43 31.2497 198.43H62.6522C62.6522 198.43 63.0747 161.43 61.2447 154.68C59.4147 147.93 43.9997 147.638 43.9997 147.638Z" fill="#EAEAEA"/>
<path d="M41.0859 148.203C41.0859 148.203 42.8359 152.73 46.1184 153.18C49.4009 153.63 51.1534 147.808 51.1534 147.808C47.8317 146.948 44.3301 147.085 41.0859 148.203Z" fill="#E39C76"/>
<path d="M41.0859 145.143C41.0859 145.143 39.7984 145.118 39.3084 146.263C38.8184 147.408 37.9434 149.395 37.9434 149.395C37.9434 149.395 40.6934 157.123 43.0159 157.428C45.3384 157.733 46.8159 153.205 46.8159 153.205C46.8159 153.205 42.0959 153.078 41.0859 145.143Z" fill="#EAEAEA"/>
<path d="M46.8145 153.205C46.8145 153.205 50.872 148.278 51.152 145.143C51.509 145.064 51.8817 145.1 52.2175 145.244C52.5533 145.389 52.8355 145.635 53.0245 145.948C53.5822 146.985 54.0748 148.056 54.4995 149.155C54.4995 149.155 52.5395 156.14 50.662 157.06C48.7845 157.98 46.8145 153.205 46.8145 153.205Z" fill="#EAEAEA"/>
<path d="M38.2768 148.612C38.7143 164.805 42.1843 173.402 43.2493 178C44.8026 184.692 45.2585 191.592 44.5993 198.43L30.7493 198.385C30.6318 187.59 30.0268 178.952 29.4818 172.96C28.6768 164.095 27.8343 158.127 31.2318 153.427C33.3443 150.535 36.2493 149.25 38.2768 148.612Z" fill="#86EBF9"/>
<path d="M53.9102 147.763C53.9102 147.763 54.8877 168.365 54.4877 181.148C54.0877 193.93 53.9102 198.43 53.9102 198.43L63.9727 198.405C62.4352 180.995 64.6752 176.585 63.4027 161.348C63.0352 156.948 62.4652 153.37 59.6802 150.673C58.2927 149.328 56.4227 148.305 53.9102 147.763Z" fill="#86EBF9"/>
<path d="M46.815 153.205C46.815 153.205 44.815 157.428 43.015 157.428C41.215 157.428 38.5 150.828 38.5 150.828C38.5 150.828 40.91 158.578 42.6575 158.858C44.405 159.138 46.815 153.205 46.815 153.205Z" fill="#C6C6C6"/>
<path d="M46.8145 153.205C46.8145 153.205 48.5645 157.47 50.0645 158.04C51.5645 158.61 54.047 150.595 54.047 150.595C54.047 150.595 50.9845 156.285 50.167 156.365C49.3495 156.445 46.8145 153.205 46.8145 153.205Z" fill="#C6C6C6"/>
<path d="M46.8149 153.322L43.9049 158.285L45.6299 162.112C45.6299 162.112 39.9174 178.54 43.6099 187.045C47.3024 195.55 46.8149 198.43 46.8149 198.43C49.1726 200.159 51.759 201.552 54.4999 202.57C55.1299 200.29 55.7591 198.01 56.3874 195.73C56.3874 195.73 54.9974 190.42 52.3874 186.19C48.0323 178.953 46.5179 170.357 48.1374 162.067C48.7741 160.431 49.4107 158.792 50.0474 157.152L46.8149 153.322Z" fill="#E73F46"/>
<path d="M34.75 168.58L37.1 169.357C36.9333 170.202 36.7625 171.047 36.5875 171.89L41.92 176.915L37.875 171.277L38.9775 168.212L36.65 167.54C37.3225 142.29 36.645 143.5 34.75 168.58Z" fill="#40C2D6"/>
<path d="M56.0573 148.328L59.0698 164.828L56.3198 166.928L58.4648 168.58C57.4248 171.36 56.3832 174.138 55.3398 176.915C56.9115 173.995 58.4848 171.074 60.0598 168.153L58.6723 166.853L60.9223 164.958L56.0573 148.328Z" fill="#40C2D6"/>
<path d="M28.0215 162.877L29.329 182.86L28.0215 198.382L29.999 198.43L30.719 183.58L34.2315 183.49L30.719 181.51L28.0215 162.877Z" fill="#40C2D6"/>
<path d="M29.1246 172.5C28.7446 174.667 28.3638 176.833 27.9821 179L23.0371 179.165L28.0221 181.575C28.3771 183.345 28.7313 185.115 29.0846 186.885C29.4763 184.655 29.8696 182.425 30.2646 180.195L29.1246 172.5Z" fill="#40C2D6"/>
<path d="M63.4141 160.735L63.4516 184.235L65.3716 186.383L63.4141 160.735Z" fill="#40C2D6"/>
<path d="M69.4476 170.87C68.1851 175.136 68.1851 179.677 69.4476 183.943C68.5905 182.91 67.951 181.714 67.5676 180.428C66.1851 175.705 68.9626 171.568 69.4476 170.87Z" fill="#40C2D6"/>
<path d="M35.948 125.903L36.683 120.308C36.683 120.308 40.3805 119.163 41.0855 115.935C41.7905 112.708 42.2805 110.338 44.978 110.788C44.978 110.788 47.1005 109.073 48.4505 111.198C49.8005 113.323 49.4305 120.388 55.803 120.103L57.1105 125.603L59.6255 125.915L60.3755 122.035C60.3755 122.035 62.4405 121.285 62.1955 118.035C61.9505 114.785 59.5805 115.535 57.578 111.05C55.5755 106.565 49.328 103.575 44.853 106.025C44.853 106.025 38.0505 105.353 34.7405 109.58C31.4305 113.808 29.0405 119.508 31.4905 120.303L32.593 125.92L35.948 125.903Z" fill="#2D1929"/>
<path d="M60.6894 129.315C59.8444 131.402 57.7694 132.53 56.0544 131.837C54.3394 131.145 53.6269 128.89 54.4694 126.805C55.3119 124.72 57.3894 123.59 59.1069 124.282C60.8244 124.975 61.5319 127.23 60.6894 129.315Z" fill="#E39C76"/>
<path d="M57.6775 130.38C57.652 130.38 57.6273 130.372 57.6065 130.357C57.5857 130.342 57.5699 130.322 57.5612 130.298C57.5525 130.274 57.5513 130.248 57.5578 130.223C57.5643 130.198 57.5781 130.176 57.5975 130.16C57.775 130.01 58.23 129.55 58.2125 129.207C58.19 128.807 57.5875 128.67 57.58 128.67C57.5516 128.663 57.5264 128.647 57.5086 128.623C57.4909 128.6 57.4817 128.572 57.4825 128.542C57.535 127.145 58.2775 125.217 59.6475 125.49C59.6638 125.493 59.6793 125.499 59.6932 125.508C59.7071 125.517 59.7191 125.529 59.7284 125.543C59.7377 125.556 59.7442 125.572 59.7474 125.588C59.7507 125.604 59.7507 125.621 59.7475 125.637C59.7403 125.67 59.7209 125.698 59.6934 125.716C59.6659 125.734 59.6324 125.741 59.6 125.735C58.4375 125.502 57.81 127.275 57.7375 128.452C57.955 128.522 58.435 128.73 58.46 129.202C58.49 129.727 57.835 130.297 57.76 130.36C57.7356 130.376 57.7065 130.383 57.6775 130.38Z" fill="#2D1929"/>
<path d="M36.9349 131.838C35.2199 132.53 33.1449 131.403 32.3024 129.315C31.4599 127.228 32.1674 124.978 33.8849 124.283C35.6024 123.588 37.6749 124.718 38.5199 126.805C39.3649 128.893 38.6524 131.143 36.9349 131.838Z" fill="#E39C76"/>
<path d="M35.3127 130.38C35.2828 130.381 35.2536 130.371 35.2302 130.353C35.1552 130.29 34.5002 129.72 34.5302 129.193C34.5552 128.73 35.0302 128.523 35.2527 128.443C35.1827 127.265 34.5552 125.493 33.3902 125.725C33.3581 125.731 33.3249 125.724 33.2978 125.706C33.2707 125.688 33.2518 125.66 33.2452 125.628C33.2416 125.611 33.2412 125.595 33.2442 125.579C33.2472 125.562 33.2534 125.547 33.2625 125.533C33.2716 125.519 33.2834 125.507 33.2972 125.498C33.311 125.489 33.3264 125.483 33.3427 125.48C34.7152 125.208 35.4552 127.138 35.5077 128.533C35.5085 128.562 35.4993 128.59 35.4815 128.614C35.4638 128.637 35.4386 128.653 35.4102 128.66C35.4102 128.66 34.8002 128.8 34.7802 129.198C34.7602 129.54 35.2152 130 35.3927 130.15C35.4166 130.165 35.4346 130.188 35.444 130.215C35.4533 130.241 35.4533 130.27 35.444 130.297C35.4348 130.324 35.4167 130.346 35.3929 130.361C35.369 130.376 35.3408 130.383 35.3127 130.38Z" fill="#2D1929"/>
<path d="M43.4106 127.403C43.3841 127.403 43.3583 127.395 43.3367 127.38C43.3152 127.364 43.299 127.343 43.2906 127.318C43.1729 126.962 42.946 126.652 42.6422 126.432C42.3383 126.213 41.973 126.094 41.5981 126.094C41.2231 126.094 40.8578 126.213 40.5539 126.432C40.2501 126.652 40.0232 126.962 39.9056 127.318C39.8947 127.349 39.8722 127.374 39.8427 127.389C39.8132 127.403 39.7792 127.406 39.7481 127.395C39.7168 127.384 39.6913 127.361 39.6768 127.331C39.6623 127.301 39.6601 127.267 39.6705 127.235C39.8052 126.83 40.064 126.478 40.4102 126.228C40.7564 125.978 41.1724 125.844 41.5993 125.844C42.0262 125.844 42.4422 125.978 42.7884 126.228C43.1346 126.478 43.3934 126.83 43.5281 127.235C43.5349 127.254 43.5371 127.274 43.5344 127.294C43.5318 127.314 43.5244 127.333 43.5128 127.349C43.5013 127.366 43.486 127.379 43.4682 127.389C43.4504 127.398 43.4306 127.403 43.4106 127.403Z" fill="#2D1929"/>
<path d="M44.2109 134.938L49.5134 135.55C49.0934 137.03 47.6109 137.892 46.2634 137.572C45.681 137.417 45.1653 137.075 44.7949 136.6C44.4244 136.124 44.2193 135.54 44.2109 134.938Z" fill="#EAEAEA"/>
</svg>
