<svg width="40" height="40" viewBox="0 0 40 40" fill="none" xmlns="http://www.w3.org/2000/svg">
<circle cx="20" cy="20" r="20" fill="#EAF0FF"/>
<path fill-rule="evenodd" clip-rule="evenodd" d="M9 16.5C9 15.7707 9.28973 15.0712 9.80546 14.5555C10.3212 14.0397 11.0207 13.75 11.75 13.75H28.25C28.9793 13.75 29.6788 14.0397 30.1945 14.5555C30.7103 15.0712 31 15.7707 31 16.5V27.5C31 28.2293 30.7103 28.9288 30.1945 29.4445C29.6788 29.9603 28.9793 30.25 28.25 30.25H11.75C11.0207 30.25 10.3212 29.9603 9.80546 29.4445C9.28973 28.9288 9 28.2293 9 27.5V16.5ZM11.75 15.125C11.3853 15.125 11.0356 15.2699 10.7777 15.5277C10.5199 15.7856 10.375 16.1353 10.375 16.5V17.875H29.625V16.5C29.625 16.1353 29.4801 15.7856 29.2223 15.5277C28.9644 15.2699 28.6147 15.125 28.25 15.125H11.75ZM29.625 20.625H10.375V27.5C10.375 27.8647 10.5199 28.2144 10.7777 28.4723C11.0356 28.7301 11.3853 28.875 11.75 28.875H28.25C28.6147 28.875 28.9644 28.7301 29.2223 28.4723C29.4801 28.2144 29.625 27.8647 29.625 27.5V20.625Z" fill="url(#paint0_linear_1782_6291)"/>
<path d="M20.5128 26.8767L24.3416 24.4702C24.4159 24.421 24.4768 24.3538 24.5191 24.2746C24.5613 24.1954 24.5834 24.1068 24.5834 24.0168C24.5834 23.9267 24.5613 23.8381 24.5191 23.759C24.4768 23.6798 24.4159 23.6126 24.3416 23.5634L20.5128 21.1556C20.1879 20.9528 19.7715 21.1996 19.7715 21.6103V22.5502C18.7403 22.5502 15.6455 22.5502 14.9584 28.4166C16.6779 25.1167 19.7715 25.4834 19.7715 25.4834V26.4233C19.7715 26.8339 20.1879 27.0808 20.5128 26.8767Z" fill="url(#paint1_linear_1782_6291)"/>
<defs>
<linearGradient id="paint0_linear_1782_6291" x1="9" y1="17.1735" x2="30.9989" y2="17.337" gradientUnits="userSpaceOnUse">
<stop stop-color="#5465FF"/>
<stop offset="1" stop-color="#04DEB7"/>
</linearGradient>
<linearGradient id="paint1_linear_1782_6291" x1="14.9584" y1="22.6049" x2="24.5829" y2="22.6753" gradientUnits="userSpaceOnUse">
<stop stop-color="#5465FF"/>
<stop offset="1" stop-color="#04DEB7"/>
</linearGradient>
</defs>
</svg>
