<svg width="24" height="24" viewBox="0 0 24 24" fill="none" xmlns="http://www.w3.org/2000/svg">
<g clip-path="url(#clip0_2403_8039)">
<path d="M21 3.00098H17.722C17.375 2.40598 16.737 2.00098 16 2.00098H8C7.263 2.00098 6.625 2.40598 6.278 3.00098H3C2.448 3.00098 2 3.44898 2 4.00098V8.00097C2 8.30497 2.138 8.59197 2.375 8.78197L7.303 12.724C8.206 13.86 9.51 14.66 11 14.911V16.001H9C8.448 16.001 8 16.449 8 17.001V19.001H16V17.001C16 16.449 15.552 16.001 15 16.001H13V14.911C14.49 14.66 15.794 13.861 16.696 12.725L21.624 8.78297C21.862 8.59197 22 8.30497 22 8.00097V4.00098C22 3.44898 21.552 3.00098 21 3.00098ZM4 7.52098V5.00098H6V9.00097C6 9.04297 6.005 9.08397 6.006 9.12597L4 7.52098ZM20 7.52098L17.994 9.12597C17.995 9.08397 18 9.04297 18 9.00097V5.00098H20V7.52098Z" fill="#FFBB37"/>
<path opacity="0.6" d="M17 20.041H7V22.041H17V20.041Z" fill="#FFBB37"/>
</g>
<defs>
<clipPath id="clip0_2403_8039">
<rect width="24" height="24" fill="white"/>
</clipPath>
</defs>
</svg>
