<svg width="93" height="74" viewBox="0 0 93 74" fill="none" xmlns="http://www.w3.org/2000/svg">
<path d="M92.653 65.6313H0V65.6777H92.653V65.6313Z" fill="#EBEBEB"/>
<path d="M79.6279 66.8936H61.542V66.9399H79.6279V66.8936Z" fill="#EBEBEB"/>
<path d="M62.2016 67.9644H53.5533V68.0107H62.2016V67.9644Z" fill="#EBEBEB"/>
<path d="M83.3693 68.6133H79.8132V68.6596H83.3693V68.6133Z" fill="#EBEBEB"/>
<path d="M40.582 67.9868H23.4357V68.0331H40.582V67.9868Z" fill="#EBEBEB"/>
<path d="M21.7865 67.9868H18.0989V68.0331H21.7865V67.9868Z" fill="#EBEBEB"/>
<path d="M16.798 67.2051H10.7089V67.2514H16.798V67.2051Z" fill="#EBEBEB"/>
<path d="M43.9175 57.3669H8.13681C7.85651 57.3664 7.58785 57.2547 7.38982 57.0564C7.19179 56.858 7.08057 56.5891 7.08057 56.3088V6.01123C7.08301 5.73254 7.19531 5.46606 7.39307 5.26968C7.59084 5.0733 7.8581 4.96288 8.13681 4.9624H43.9175C44.1982 4.9624 44.4673 5.07388 44.6657 5.27231C44.8642 5.47074 44.9756 5.73987 44.9756 6.0205V56.3088C44.9756 56.5895 44.8642 56.8586 44.6657 57.057C44.4673 57.2555 44.1982 57.3669 43.9175 57.3669ZM8.13681 4.99946C7.86879 4.99995 7.61192 5.10677 7.42258 5.29646C7.23324 5.48615 7.12689 5.74322 7.12689 6.01123V56.3088C7.12689 56.5769 7.23324 56.8339 7.42258 57.0236C7.61192 57.2133 7.86879 57.3201 8.13681 57.3206H43.9175C44.1857 57.3201 44.4428 57.2134 44.6324 57.0237C44.8221 56.8341 44.9288 56.577 44.9293 56.3088V6.01123C44.9288 5.74305 44.8221 5.48598 44.6324 5.29635C44.4428 5.10671 44.1857 4.99995 43.9175 4.99946H8.13681Z" fill="#EBEBEB"/>
<path d="M84.0012 57.3669H48.2186C47.9381 57.3664 47.6693 57.2548 47.471 57.0565C47.2726 56.8582 47.161 56.5893 47.1605 56.3088V6.01123C47.1634 5.73237 47.2762 5.46589 47.4742 5.26956C47.6723 5.07324 47.9397 4.96287 48.2186 4.9624H84.0012C84.2796 4.96337 84.5464 5.074 84.7437 5.27033C84.9411 5.46666 85.0532 5.73286 85.0556 6.01123V56.3088C85.0556 56.5888 84.9446 56.8574 84.747 57.0557C84.5494 57.254 84.2812 57.366 84.0012 57.3669ZM48.2186 4.99946C47.9504 4.99995 47.6934 5.10671 47.5037 5.29635C47.3141 5.48598 47.2073 5.74305 47.2068 6.01123V56.3088C47.2073 56.577 47.3141 56.8341 47.5037 57.0237C47.6934 57.2134 47.9504 57.3201 48.2186 57.3206H84.0012C84.2694 57.3201 84.5265 57.2134 84.7161 57.0237C84.9057 56.8341 85.0125 56.577 85.013 56.3088V6.01123C85.0125 5.74305 84.9057 5.48598 84.7161 5.29635C84.5265 5.10671 84.2694 4.99995 84.0012 4.99946H48.2186Z" fill="#EBEBEB"/>
<path d="M86.121 64.1787H53.2607V65.6315H86.121V64.1787Z" fill="#EBEBEB"/>
<path d="M86.1209 65.6299H87.3717V64.1771H86.1209V65.6299Z" fill="#E0E0E0"/>
<path d="M85.1945 64.1787H86.4453V63.191H85.1945V64.1787Z" fill="#E0E0E0"/>
<path d="M85.1945 63.189H54.1873V64.1766H85.1945V63.189Z" fill="#EBEBEB"/>
<path d="M82.0906 41.0972H57.2911V63.1893H82.0906V41.0972Z" fill="#F5F5F5"/>
<path d="M82.0906 63.189H83.9121V41.0968H82.0906V63.189Z" fill="#E0E0E0"/>
<path d="M83.119 39.1831H56.2607V41.0973H83.119V39.1831Z" fill="#F5F5F5"/>
<path d="M83.119 41.0972H84.468V39.183H83.119V41.0972Z" fill="#E0E0E0"/>
<path d="M74.6524 4.18608V39.183H66.2821V4.18608C66.2821 3.07587 66.7231 2.01113 67.5082 1.22609C68.2932 0.441051 69.358 2.07343e-05 70.4682 2.07343e-05C70.7288 -0.000821651 70.9888 0.0240059 71.2446 0.0741434C72.2027 0.255082 73.0676 0.764972 73.6898 1.51574C74.312 2.26651 74.6525 3.211 74.6524 4.18608Z" fill="#F5F5F5"/>
<path d="M73.4794 1.28008V39.1826H71.2446V0.0830078C72.096 0.239568 72.8773 0.658067 73.4794 1.28008Z" fill="#F0F0F0"/>
<path d="M82.0906 41.0972H57.2911V41.5716H82.0906V41.0972Z" fill="#E0E0E0"/>
<path d="M78.5086 46.7803H60.873V63.191H78.5086V46.7803Z" fill="#E0E0E0"/>
<path d="M62.3962 60.2412L76.9835 59.4629V61.8052L62.3962 62.5834V60.2412Z" fill="#E6E6E6"/>
<path d="M75.9143 58.9843L63.4673 58.2061V60.5502L75.9143 61.3266V58.9843Z" fill="#E6E6E6"/>
<path d="M69.6972 60.1834C66.2969 60.1834 64.9534 57.263 66.1764 54.8188C67.3995 52.3746 66.8991 51.7131 66.8991 51.7131C66.8991 51.7131 68.4186 53.0288 68.4186 54.0072C69.6139 52.8824 66.6471 50.466 67.8757 48.0459C68.7893 49.6599 69.3971 50.4678 72.1526 52.8379C74.745 55.0634 76.346 60.1834 69.6972 60.1834Z" fill="#FAFAFA"/>
<path opacity="0.5" d="M70.3737 59.8135C72.2268 59.8135 73.0903 58.0938 72.2138 56.7615C71.3373 55.4291 71.7691 55.0048 71.7691 55.0048C71.7691 55.0048 70.8425 55.7868 70.9241 56.3204C70.1828 55.7071 71.2261 54.2061 70.3515 52.8867C69.9901 53.7651 70.0809 54.384 68.7893 55.683C67.431 57.0431 66.7491 59.8135 70.3737 59.8135Z" fill="#F0F0F0"/>
<path opacity="0.5" d="M70.0179 59.2922C69.1914 59.2922 68.806 58.525 69.197 57.932C69.588 57.3391 69.3952 57.1482 69.3952 57.1482C69.3952 57.1482 69.8103 57.4966 69.7659 57.7338C70.0976 57.4614 69.6306 56.7905 70.0197 56.2031C70.1809 56.596 70.142 56.8702 70.7165 57.4502C71.3298 58.0599 71.6337 59.2922 70.0179 59.2922Z" fill="#E6E6E6"/>
<path d="M25.4166 42.3721H10.3976V65.6298H25.4166V42.3721Z" fill="#F0F0F0"/>
<path d="M12.0894 63.8191L12.0894 44.1841H11.8281L11.8281 63.8191H12.0894Z" fill="#E6E6E6"/>
<path d="M23.7487 44.1841H11.828V44.5139H23.7487V44.1841Z" fill="#E6E6E6"/>
<path d="M40.697 42.3721H25.678V65.6298H40.697V42.3721Z" fill="#F0F0F0"/>
<path d="M40.6988 65.6313H42.196V42.3736H40.6988V65.6313Z" fill="#E0E0E0"/>
<path d="M27.3698 63.8191V44.1841H27.1085V63.8191H27.3698Z" fill="#E6E6E6"/>
<path d="M25.678 65.6318V42.6372H25.4167V65.6318H25.678Z" fill="#E6E6E6"/>
<path d="M39.0293 44.1841H27.1085V44.5139H39.0293V44.1841Z" fill="#E6E6E6"/>
<path d="M24.9199 47.5181H24.3584V52.6566H24.9199V47.5181Z" fill="#E0E0E0"/>
<path d="M26.736 47.5181H26.1746V52.6566H26.736V47.5181Z" fill="#E0E0E0"/>
<path d="M39.6629 10.5474H12.9307V37.2796H39.6629V10.5474Z" fill="#FAFAFA"/>
<path d="M15.0487 37.2796L24.5215 10.5474H31.6299L22.157 37.2796H15.0487Z" fill="white"/>
<path d="M23.658 37.2796L33.1289 10.5474H35.7214L26.2504 37.2796H23.658Z" fill="white"/>
<path d="M41.4381 9.62842H11.1554C11.1115 9.62842 11.0694 9.64573 11.0381 9.67661C11.0069 9.70748 10.9891 9.74943 10.9886 9.79334C10.9891 9.83725 11.0069 9.8792 11.0381 9.91007C11.0694 9.94095 11.1115 9.95827 11.1554 9.95826H41.4381C41.4819 9.95826 41.5238 9.94089 41.5547 9.90996C41.5857 9.87903 41.603 9.83708 41.603 9.79334C41.603 9.7496 41.5857 9.70765 41.5547 9.67672C41.5238 9.64579 41.4819 9.62842 41.4381 9.62842Z" fill="#E0E0E0"/>
<path d="M26.0763 37.3374H26.5173L26.5173 10.4903H26.0763L26.0763 37.3374Z" fill="#F0F0F0"/>
<path d="M26.5174 37.3374H26.7379L26.7379 10.4903H26.5174L26.5174 37.3374Z" fill="#E0E0E0"/>
<path d="M12.6731 23.6932V24.1343H39.9205V23.6932H12.6731Z" fill="#F0F0F0"/>
<path d="M39.9205 37.0964V10.29H12.6805V37.0964V37.5374H39.9205V37.0964ZM13.1142 37.0964V10.7311H39.4795V37.0964H13.1142Z" fill="#F0F0F0"/>
<path d="M39.9206 37.5376H40.1411V10.2902H39.9206V37.5376Z" fill="#E0E0E0"/>
<path opacity="0.5" d="M34.4465 9.22266V38.4009H42.4165L40.9545 9.22266H34.4465Z" fill="#EBEBEB"/>
<path opacity="0.5" d="M18.3676 9.22266V38.4009H10.3976L11.8596 9.22266H18.3676Z" fill="#EBEBEB"/>
<path d="M57.5746 14.7705H50.2031V22.142H57.5746V14.7705Z" fill="#EBEBEB"/>
<path d="M57.5745 22.1426H58.2286V14.7711H57.5745V22.1426Z" fill="#E0E0E0"/>
<path d="M56.5759 15.7695H51.202V21.1434H56.5759V15.7695Z" fill="white"/>
<path d="M55.9161 16.4297H51.8616V20.4842H55.9161V16.4297Z" fill="#F5F5F5"/>
<path d="M60.9342 23.7896H53.5627V31.161H60.9342V23.7896Z" fill="#EBEBEB"/>
<path d="M60.9323 31.1592H61.5864V23.7877H60.9323V31.1592Z" fill="#E0E0E0"/>
<path d="M59.9355 24.7886H54.5616V30.1624H59.9355V24.7886Z" fill="white"/>
<path d="M57.923 25.4478H56.5739C55.8268 25.4478 55.2212 26.0534 55.2212 26.8005V28.1495C55.2212 28.8966 55.8268 29.5022 56.5739 29.5022H57.923C58.67 29.5022 59.2757 28.8966 59.2757 28.1495V26.8005C59.2757 26.0534 58.67 25.4478 57.923 25.4478Z" fill="#F5F5F5"/>
<path d="M46.3264 74C66.1695 74 82.2554 73.0609 82.2554 71.9023C82.2554 70.7438 66.1695 69.8047 46.3264 69.8047C26.4834 69.8047 10.3975 70.7438 10.3975 71.9023C10.3975 73.0609 26.4834 74 46.3264 74Z" fill="#F5F5F5"/>
<path d="M14.3296 48.4893H14.1443V50.9798H14.3296V48.4893Z" fill="#407BFF"/>
<path d="M14.3296 51.7212H14.1443V52.7515H14.3296V51.7212Z" fill="#407BFF"/>
<path d="M14.793 39.3867H45.0961V71.9024H15.6602C15.4307 71.9024 15.2106 71.8112 15.0483 71.6489C14.886 71.4866 14.7948 71.2665 14.7948 71.037V39.3867H14.793Z" fill="#407BFF"/>
<path opacity="0.2" d="M45.0961 39.3867H14.793V41.6919H32.2284L32.8066 71.9024L33.2105 41.6919H45.0961V39.3867Z" fill="black"/>
<path d="M14.5316 34.4448H45.096V41.0343H14.5316C14.4171 41.0343 14.3073 40.9888 14.2263 40.9078C14.1453 40.8269 14.0999 40.7171 14.0999 40.6025V34.8784C14.0996 34.8216 14.1106 34.7652 14.1322 34.7126C14.1538 34.66 14.1855 34.6122 14.2257 34.5719C14.2658 34.5316 14.3135 34.4997 14.366 34.4779C14.4185 34.4561 14.4748 34.4448 14.5316 34.4448Z" fill="#407BFF"/>
<path d="M26.4615 71.9026L26.1447 34.4448H32.7341L33.0492 71.9026H26.4615Z" fill="#263238"/>
<path d="M57.0389 71.9023H45.1033V39.3867H57.8987V71.037C57.8987 71.2655 57.8083 71.4848 57.6472 71.6469C57.4861 71.8091 57.2674 71.9009 57.0389 71.9023Z" fill="#407BFF"/>
<path opacity="0.2" d="M57.0389 71.9023H45.1033V39.3867H57.8987V71.037C57.8987 71.2655 57.8083 71.4848 57.6472 71.6469C57.4861 71.8091 57.2674 71.9009 57.0389 71.9023Z" fill="black"/>
<path opacity="0.2" d="M45.0961 39.3867H57.897V41.6919H50.7535L49.7825 71.9024L49.8881 41.6919H45.0961V39.3867Z" fill="black"/>
<path d="M58.16 41.0342L45.096 41.0342V34.4447H58.16C58.2167 34.4447 58.2729 34.4559 58.3253 34.4776C58.3776 34.4993 58.4252 34.5311 58.4653 34.5712C58.5054 34.6113 58.5372 34.6589 58.5589 34.7112C58.5806 34.7636 58.5918 34.8198 58.5918 34.8765V40.6006C58.592 40.6574 58.581 40.7138 58.5595 40.7664C58.5379 40.819 58.5061 40.8668 58.466 40.9071C58.4259 40.9474 58.3782 40.9793 58.3257 41.0011C58.2732 41.023 58.2169 41.0342 58.16 41.0342Z" fill="#407BFF"/>
<path opacity="0.2" d="M58.16 41.0342L45.096 41.0342V34.4447H58.16C58.2167 34.4447 58.2729 34.4559 58.3253 34.4776C58.3776 34.4993 58.4252 34.5311 58.4653 34.5712C58.5054 34.6113 58.5372 34.6589 58.5589 34.7112C58.5806 34.7636 58.5918 34.8198 58.5918 34.8765V40.6006C58.592 40.6574 58.581 40.7138 58.5595 40.7664C58.5379 40.819 58.5061 40.8668 58.466 40.9071C58.4259 40.9474 58.3782 40.9793 58.3257 41.0011C58.2732 41.023 58.2169 41.0342 58.16 41.0342Z" fill="black"/>
<path d="M49.7823 71.9026L50.3346 34.4448H54.4465L53.8943 71.9026H49.7823Z" fill="#263238"/>
<path opacity="0.2" d="M49.7823 71.9026L50.3346 34.4448H54.4465L53.8943 71.9026H49.7823Z" fill="black"/>
<path d="M51.9282 22.0102V22.001H46.5377C46.2274 22.0268 45.9246 22.1097 45.6445 22.2456C40.178 24.536 37.5207 30.538 36.3458 34.4369H41.8605C41.8605 34.4369 54.9116 21.6396 51.9282 22.0102Z" fill="#263238"/>
<path opacity="0.5" d="M41.8605 34.4447C41.8605 29.3803 45.6926 24.5438 51.1591 22.2534C56.6257 19.9631 41.8605 34.4447 41.8605 34.4447Z" fill="black"/>
<path d="M53.3365 25.2184H49.3358C49.0804 25.2403 48.8302 25.3029 48.5946 25.4037C43.8804 27.1048 40.1872 31.5614 38.1952 34.4559H42.2905C42.2905 34.4559 55.6584 24.9404 53.3365 25.2184Z" fill="#263238"/>
<path opacity="0.5" d="M42.2979 34.4451C44.2269 29.4419 47.983 27.094 52.6972 25.3929C57.4114 23.6918 42.2979 34.4451 42.2979 34.4451Z" fill="black"/>
<path d="M26.3969 20.4302V20.419H20.9933C20.8943 20.4172 20.7966 20.4417 20.7102 20.4903C20.6239 20.5388 20.5521 20.6096 20.5023 20.6952C18.816 23.2765 26.0614 30.0457 31.3297 34.443H36.8444C36.8444 34.443 28.7651 20.0095 26.3969 20.4302Z" fill="#263238"/>
<path opacity="0.5" d="M36.8443 34.4445C31.5834 30.0472 24.3306 23.2779 26.0168 20.6966C27.7031 18.1153 36.8443 34.4445 36.8443 34.4445Z" fill="black"/>
<path d="M32.0302 24.0491H28.0201C27.9393 24.0511 27.8597 24.0703 27.7869 24.1055C27.714 24.1406 27.6495 24.1909 27.5976 24.253C25.8113 26.1709 29.7917 31.1982 32.7862 34.4615H36.8759C36.8759 34.4615 33.8739 23.7267 32.0302 24.0491Z" fill="#263238"/>
<path opacity="0.5" d="M36.8758 34.445C33.8813 31.1799 29.8991 26.1544 31.6873 24.2364C33.4755 22.3185 36.8758 34.445 36.8758 34.445Z" fill="black"/>
</svg>
