<svg width="30" height="30" viewBox="0 0 30 30" fill="none" xmlns="http://www.w3.org/2000/svg">
<path d="M6.42729 19.2852H2.14162C0.958161 19.2852 -0.0012207 20.2445 -0.0012207 21.428V27.8565C-0.0012207 29.04 0.958161 29.9993 2.14162 29.9993H6.42729C7.61075 29.9993 8.57013 29.04 8.57013 27.8565V21.428C8.57013 20.2445 7.61075 19.2852 6.42729 19.2852Z" fill="#0A77DB"/>
<path d="M17.1416 10.7144H12.856C11.6725 10.7144 10.7131 11.6737 10.7131 12.8572V27.8571C10.7131 29.0405 11.6725 29.9999 12.856 29.9999H17.1416C18.3251 29.9999 19.2845 29.0405 19.2845 27.8571V12.8572C19.2845 11.6737 18.3251 10.7144 17.1416 10.7144Z" fill="#0A77DB" fill-opacity="0.5"/>
<path d="M27.8558 0H23.5701C22.3866 0 21.4272 0.959381 21.4272 2.14284V27.8569C21.4272 29.0403 22.3866 29.9997 23.5701 29.9997H27.8558C29.0392 29.9997 29.9986 29.0403 29.9986 27.8569V2.14284C29.9986 0.959381 29.0392 0 27.8558 0Z" fill="#0A77DB"/>
</svg>
