<svg width="32" height="32" viewBox="0 0 32 32" fill="none" xmlns="http://www.w3.org/2000/svg">
<path d="M26.625 4C27.5584 4 28.3125 4.76768 28.3125 5.71429C28.3125 6.66089 27.5584 7.42857 26.625 7.42857H7.21875C6.75258 7.42857 6.375 7.81429 6.375 8.28571C6.375 8.75714 6.75258 9.14286 7.21875 9.14286H26.625C28.4865 9.14286 30 10.6804 30 12.5714V24.5714C30 26.4625 28.4865 28 26.625 28H6.375C4.51084 28 3 26.4625 3 24.5714V7.42857C3 5.53482 4.51084 4 6.375 4H26.625ZM24.9375 20.2857C25.8709 20.2857 26.625 19.5196 26.625 18.5714C26.625 17.6232 25.8709 16.8571 24.9375 16.8571C24.0041 16.8571 23.25 17.6232 23.25 18.5714C23.25 19.5196 24.0041 20.2857 24.9375 20.2857Z" fill="white"/>
</svg>
