<svg width="32" height="32" viewBox="0 0 32 32" fill="none" xmlns="http://www.w3.org/2000/svg">
<g clip-path="url(#clip0_1966_26481)">
<path d="M27.9998 4.0013H23.6292C23.1665 3.20797 22.3158 2.66797 21.3332 2.66797H10.6665C9.68384 2.66797 8.83317 3.20797 8.3705 4.0013H3.99984C3.26384 4.0013 2.6665 4.59864 2.6665 5.33464V10.668C2.6665 11.0733 2.8505 11.456 3.1665 11.7093L9.73717 16.9653C10.9412 18.48 12.6798 19.5466 14.6665 19.8813V21.3346H11.9998C11.2638 21.3346 10.6665 21.932 10.6665 22.668V25.3346H21.3332V22.668C21.3332 21.932 20.7358 21.3346 19.9998 21.3346H17.3332V19.8813C19.3198 19.5466 21.0585 18.4813 22.2612 16.9666L28.8318 11.7106C29.1492 11.456 29.3332 11.0733 29.3332 10.668V5.33464C29.3332 4.59864 28.7358 4.0013 27.9998 4.0013ZM5.33317 10.028V6.66797H7.99984V12.0013C7.99984 12.0573 8.0065 12.112 8.00784 12.168L5.33317 10.028ZM26.6665 10.028L23.9918 12.168C23.9932 12.112 23.9998 12.0573 23.9998 12.0013V6.66797H26.6665V10.028Z" fill="white"/>
<path opacity="0.6" d="M22.6663 26.7212H9.33301V29.3879H22.6663V26.7212Z" fill="white"/>
</g>
<defs>
<clipPath id="clip0_1966_26481">
<rect width="32" height="32" fill="white"/>
</clipPath>
</defs>
</svg>
