<svg width="32" height="32" viewBox="0 0 32 32" fill="none" xmlns="http://www.w3.org/2000/svg">
<g clip-path="url(#clip0_1965_29760)">
<path d="M4.00049 18.4771V26.3558C4.00049 27.8042 5.19649 28.9821 6.66716 28.9821H14.6672V18.4771H4.00049Z" fill="white"/>
<path d="M17.3335 18.4771V28.9821H25.3335C26.8042 28.9821 28.0002 27.8042 28.0002 26.3558V18.4771H17.3335Z" fill="white"/>
<path opacity="0.6" d="M26.667 10.5974H22.515C23.1163 10.2901 23.6857 9.91323 24.1617 9.44576C25.7203 7.9107 25.7203 5.41182 24.1617 3.87283C22.6497 2.38767 20.019 2.38636 18.5057 3.87414C16.3243 6.02373 16.0297 10.0695 16.003 10.5238C16.0003 10.5488 16.0137 10.5711 16.0137 10.5974H15.987C15.987 10.5724 16.0003 10.5488 15.999 10.5225C15.9723 10.0682 15.6777 6.02242 13.495 3.87151C11.983 2.38636 9.34966 2.38636 7.83766 3.87283C6.27899 5.40919 6.27899 7.90808 7.83766 9.44444C8.31366 9.91192 8.88433 10.2888 9.48566 10.5961H5.33366C3.86299 10.5961 2.66699 11.7739 2.66699 13.2223V17.1617H14.667V11.9092H17.3337V17.1617H29.3337V13.2223C29.3337 11.7752 28.1377 10.5974 26.667 10.5974ZM9.72433 7.58767C9.20433 7.07555 9.20433 6.24303 9.72433 5.72959C9.97499 5.48272 10.3097 5.34616 10.667 5.34616C11.0243 5.34616 11.359 5.48272 11.611 5.72959C12.3977 6.50434 12.8563 7.89363 13.1017 9.05313C11.927 8.81151 10.5057 8.35717 9.72433 7.58767ZM18.899 9.05575C19.1443 7.89626 19.603 6.50565 20.3897 5.73091C20.6417 5.48272 20.9777 5.34616 21.3337 5.34616C21.6897 5.34616 22.0257 5.48272 22.275 5.72828C22.795 6.24171 22.7963 7.07555 22.275 7.58767C21.4883 8.36373 20.0763 8.81545 18.899 9.05575Z" fill="white"/>
</g>
<defs>
<clipPath id="clip0_1965_29760">
<rect width="32" height="31.5152" fill="white" transform="translate(0 0.0922852)"/>
</clipPath>
</defs>
</svg>
