<svg width="30" height="30" viewBox="0 0 30 30" fill="none" xmlns="http://www.w3.org/2000/svg">
<g clip-path="url(#clip0_13047_15946)">
<path d="M-0.00146484 24.5833C-0.00146484 25.9635 1.11833 27.0833 2.49854 27.0833H27.4985C28.8787 27.0833 29.9985 25.9635 29.9985 24.5833V15.4167H-0.00146484V24.5833ZM9.99853 21.0417C9.99853 20.6979 10.2798 20.4167 10.6235 20.4167H17.7069C18.0506 20.4167 18.3319 20.6979 18.3319 21.0417V23.125C18.3319 23.4687 18.0506 23.75 17.7069 23.75H10.6235C10.2798 23.75 9.99853 23.4687 9.99853 23.125V21.0417ZM3.33187 21.0417C3.33187 20.6979 3.61312 20.4167 3.95687 20.4167H7.70687C8.05062 20.4167 8.33187 20.6979 8.33187 21.0417V23.125C8.33187 23.4687 8.05062 23.75 7.70687 23.75H3.95687C3.61312 23.75 3.33187 23.4687 3.33187 23.125V21.0417ZM29.9985 6.25V8.75H-0.00146484V6.25C-0.00146484 4.86979 1.11833 3.75 2.49854 3.75H27.4985C28.8787 3.75 29.9985 4.86979 29.9985 6.25Z" fill="#0A77DB"/>
</g>
<defs>
<clipPath id="clip0_13047_15946">
<rect width="30" height="30" fill="white" transform="translate(-0.00146484)"/>
</clipPath>
</defs>
</svg>
