<svg width="30" height="30" viewBox="0 0 30 30" fill="none" xmlns="http://www.w3.org/2000/svg">
<g clip-path="url(#clip0_13047_15979)">
<path d="M26.248 2.5H14.998C12.9305 2.5 11.248 4.1825 11.248 6.25V17.5H17.498C19.998 17.5 21.248 20 21.248 21.25V23.75C20.5555 23.75 19.998 23.0662 19.998 22.5C19.998 20.5725 18.1755 18.75 16.248 18.75H6.24799C1.52799 18.75 0.0817399 25.7087 0.0229899 26.005C-0.0507601 26.3725 0.0442399 26.7537 0.28174 27.0425C0.51924 27.3325 0.87299 27.5 1.24799 27.5H11.248C11.938 27.5 12.498 26.94 12.498 26.25H21.248C23.3155 26.25 24.998 24.5675 24.998 22.5V11.25H28.748C29.438 11.25 29.998 10.69 29.998 10V6.25C29.998 4.1825 28.3155 2.5 26.248 2.5ZM12.9567 23.75C13.4217 22.5 14.3567 21.25 16.248 21.25C16.8092 21.25 17.498 21.94 17.498 22.5C17.498 22.935 17.5942 23.3537 17.7442 23.75H12.9567ZM22.498 16.25H13.748V13.75H22.498V16.25ZM22.498 12.5H13.748V10H22.498V12.5ZM22.498 8.75H13.748V6.25H22.498V8.75ZM27.498 8.75H24.998V6.25C24.998 5.56 25.5592 5 26.248 5C26.9367 5 27.498 5.56 27.498 6.25V8.75Z" fill="#0A77DB"/>
</g>
<defs>
<clipPath id="clip0_13047_15979">
<rect width="30" height="30" fill="white" transform="translate(-0.00146484)"/>
</clipPath>
</defs>
</svg>
