<svg width="30" height="30" viewBox="0 0 30 30" fill="none" xmlns="http://www.w3.org/2000/svg">
<g clip-path="url(#clip0_13047_15809)">
<path opacity="0.5" d="M1 21.0145L3.8 21.0163C4.57656 21.0163 5.2 20.3743 5.2 19.5774V9.53242H1V21.0145ZM3.1 18.1484C3.48281 18.1484 3.8 18.4682 3.8 18.8667C3.8 19.2594 3.48281 19.585 3.1 19.585C2.71719 19.585 2.4 19.258 2.4 18.8672C2.4 18.4674 2.71719 18.1484 3.1 18.1484ZM24.8 9.53691V19.5814C24.8 20.373 25.4234 21.0212 26.1606 21.0212L29 21.0189V9.52344L24.8 9.53691ZM26.9 19.5814C26.5172 19.5814 26.2 19.2559 26.2 18.8631C26.2 18.4645 26.5172 18.1448 26.9 18.1448C27.2828 18.1448 27.6 18.4674 27.6 18.8672C27.6 19.258 27.285 19.5814 26.9 19.5814Z" fill="#0A77DB"/>
<path d="M15.3184 7.01804C15.5747 6.7773 15.9124 6.64393 16.2599 6.64393L16.6394 6.60889C19.1734 6.60889 21.6015 7.6385 23.3944 9.4785V18.2087C23.2905 18.0853 23.1756 17.973 23.0499 17.8609L16.679 12.5552L17.8217 11.4829C18.1061 11.2134 18.128 10.7586 17.8655 10.4668C17.6087 10.175 17.1602 10.1581 16.8759 10.4219L13.3811 13.7056C13.3767 13.7101 13.3724 13.7101 13.3649 13.7169C12.6321 14.3849 11.467 14.1818 10.9092 13.5933C10.288 12.8971 10.2749 11.7785 11.0011 11.0777C11.0099 11.0777 11.0099 11.0687 11.0142 11.0597L15.3184 7.01804Z" fill="#0A77DB"/>
<path d="M14.3261 14.7698L15.6386 13.5349L22.1682 18.9849C22.7689 19.4857 22.8601 20.3855 22.3736 21.0032L21.9563 21.5324C21.4698 22.1501 20.5891 22.2398 19.9875 21.7457L19.7524 21.5436L18.3795 23.2776C17.8108 23.9905 16.7827 24.0624 16.0879 23.5189L15.2952 22.8343C14.3217 24.0636 12.5608 24.2545 11.3577 23.2496L7.39829 19.5741L6.59985 19.5724L6.6086 9.51443C8.39798 7.68072 10.8305 6.64393 13.3592 6.64393H13.648L10.0692 10.0086C8.79173 11.2125 8.69985 13.2564 9.87235 14.5735C11.0339 15.87 13.0245 15.9877 14.3261 14.7698Z" fill="#0A77DB"/>
</g>
<defs>
<clipPath id="clip0_13047_15809">
<rect width="30" height="30" fill="white" transform="translate(-0.00146484)"/>
</clipPath>
</defs>
</svg>
