<svg width="30" height="30" viewBox="0 0 30 30" fill="none" xmlns="http://www.w3.org/2000/svg">
<g clip-path="url(#clip0_13047_15730)">
<path opacity="0.5" d="M9.64737 16.25H12.2249L9.09987 3.75H12.6774L13.7486 11.25H16.2486L17.3199 3.75H20.8974L17.7724 16.25H20.3499L23.7111 2.80375C23.8049 2.43125 23.7199 2.03375 23.4836 1.73125C23.2474 1.4275 22.8836 1.25 22.4986 1.25H7.49862C7.11362 1.25 6.74987 1.4275 6.51362 1.73125C6.27612 2.03375 6.19237 2.43 6.28612 2.80375L9.64737 16.25Z" fill="#0A77DB"/>
<path d="M14.9988 13.7495L17.1413 19.107H22.4988L17.8638 23.0195L20.355 28.7495L14.9988 25.2058L9.64128 28.7495L12.1338 23.0195L7.49878 19.107H12.855L14.9988 13.7495Z" fill="#0A77DB"/>
</g>
<defs>
<clipPath id="clip0_13047_15730">
<rect width="30" height="30" fill="white" transform="translate(-0.00146484)"/>
</clipPath>
</defs>
</svg>
