<svg width="30" height="30" viewBox="0 0 30 30" fill="none" xmlns="http://www.w3.org/2000/svg">
<g clip-path="url(#clip0_13047_15863)">
<path d="M4.85798 7.57265C4.62872 7.76916 4.62872 8.08678 4.85798 8.28329C5.08723 8.47979 5.45779 8.47979 5.68705 8.28329L11.0766 3.66367C11.3058 3.46717 11.3058 3.14955 11.0766 2.95304C10.8473 2.75654 10.4768 2.75654 10.2475 2.95304L4.85798 7.57265V7.57265Z" fill="#0A77DB"/>
<path opacity="0.2" d="M29.9985 26.6668C29.9985 30.0002 26.6652 30.0002 26.6652 30.0002H3.33187C3.33187 30.0002 -0.00146484 30.0002 -0.00146484 26.6668V11.6668C-0.00146484 11.6668 -0.00146484 8.3335 3.33187 8.3335H26.6652C29.9985 8.3335 29.9985 11.6668 29.9985 11.6668V26.6668Z" fill="#0A77DB"/>
<path d="M12.966 2.55094C12.6401 2.87677 12.1135 2.87677 11.7876 2.55094L11.1985 1.96177C10.8726 1.63594 10.8726 1.10927 11.1985 0.783437C11.5243 0.457604 12.051 0.457604 12.3768 0.783437L12.966 1.3726C13.291 1.6976 13.291 2.2251 12.966 2.55094Z" fill="#0A77DB"/>
<path opacity="0.6" d="M22.9151 20.0002C25.4464 20.0002 27.4985 17.9481 27.4985 15.4168C27.4985 12.8855 25.4464 10.8335 22.9151 10.8335C20.3838 10.8335 18.3318 12.8855 18.3318 15.4168C18.3318 17.9481 20.3838 20.0002 22.9151 20.0002Z" fill="#0A77DB"/>
<path opacity="0.6" d="M22.9152 27.4998C24.526 27.4998 25.8319 26.194 25.8319 24.5832C25.8319 22.9723 24.526 21.6665 22.9152 21.6665C21.3044 21.6665 19.9985 22.9723 19.9985 24.5832C19.9985 26.194 21.3044 27.4998 22.9152 27.4998Z" fill="#0A77DB"/>
<path d="M22.9152 18.3333C24.526 18.3333 25.8319 17.0275 25.8319 15.4167C25.8319 13.8058 24.526 12.5 22.9152 12.5C21.3044 12.5 19.9985 13.8058 19.9985 15.4167C19.9985 17.0275 21.3044 18.3333 22.9152 18.3333Z" fill="#0A77DB"/>
<path d="M22.9153 25.8335C23.6056 25.8335 24.1653 25.2739 24.1653 24.5835C24.1653 23.8931 23.6056 23.3335 22.9153 23.3335C22.2249 23.3335 21.6653 23.8931 21.6653 24.5835C21.6653 25.2739 22.2249 25.8335 22.9153 25.8335Z" fill="#0A77DB"/>
<path d="M8.74854 22.5C9.43889 22.5 9.99854 21.9404 9.99854 21.25C9.99854 20.5596 9.43889 20 8.74854 20C8.05818 20 7.49854 20.5596 7.49854 21.25C7.49854 21.9404 8.05818 22.5 8.74854 22.5Z" fill="#0A77DB"/>
<path d="M4.58179 22.5C5.27214 22.5 5.83179 21.9404 5.83179 21.25C5.83179 20.5596 5.27214 20 4.58179 20C3.89143 20 3.33179 20.5596 3.33179 21.25C3.33179 21.9404 3.89143 22.5 4.58179 22.5Z" fill="#0A77DB"/>
<path d="M8.74854 18.333C9.43889 18.333 9.99854 17.7734 9.99854 17.083C9.99854 16.3927 9.43889 15.833 8.74854 15.833C8.05818 15.833 7.49854 16.3927 7.49854 17.083C7.49854 17.7734 8.05818 18.333 8.74854 18.333Z" fill="#0A77DB"/>
<path d="M12.915 18.333C13.6054 18.333 14.165 17.7734 14.165 17.083C14.165 16.3927 13.6054 15.833 12.915 15.833C12.2247 15.833 11.665 16.3927 11.665 17.083C11.665 17.7734 12.2247 18.333 12.915 18.333Z" fill="#0A77DB"/>
<path d="M12.915 22.5C13.6054 22.5 14.165 21.9404 14.165 21.25C14.165 20.5596 13.6054 20 12.915 20C12.2247 20 11.665 20.5596 11.665 21.25C11.665 21.9404 12.2247 22.5 12.915 22.5Z" fill="#0A77DB"/>
<path d="M12.915 26.6665C13.6054 26.6665 14.165 26.1069 14.165 25.4165C14.165 24.7261 13.6054 24.1665 12.915 24.1665C12.2247 24.1665 11.665 24.7261 11.665 25.4165C11.665 26.1069 12.2247 26.6665 12.915 26.6665Z" fill="#0A77DB"/>
<path d="M4.58179 26.6665C5.27214 26.6665 5.83179 26.1069 5.83179 25.4165C5.83179 24.7261 5.27214 24.1665 4.58179 24.1665C3.89143 24.1665 3.33179 24.7261 3.33179 25.4165C3.33179 26.1069 3.89143 26.6665 4.58179 26.6665Z" fill="#0A77DB"/>
<path d="M4.58179 18.333C5.27214 18.333 5.83179 17.7734 5.83179 17.083C5.83179 16.3927 5.27214 15.833 4.58179 15.833C3.89143 15.833 3.33179 16.3927 3.33179 17.083C3.33179 17.7734 3.89143 18.333 4.58179 18.333Z" fill="#0A77DB"/>
<path d="M8.74854 14.1665C9.43889 14.1665 9.99854 13.6069 9.99854 12.9165C9.99854 12.2261 9.43889 11.6665 8.74854 11.6665C8.05818 11.6665 7.49854 12.2261 7.49854 12.9165C7.49854 13.6069 8.05818 14.1665 8.74854 14.1665Z" fill="#0A77DB"/>
<path d="M12.915 14.1665C13.6054 14.1665 14.165 13.6069 14.165 12.9165C14.165 12.2261 13.6054 11.6665 12.915 11.6665C12.2247 11.6665 11.665 12.2261 11.665 12.9165C11.665 13.6069 12.2247 14.1665 12.915 14.1665Z" fill="#0A77DB"/>
<path d="M4.58179 14.1665C5.27214 14.1665 5.83179 13.6069 5.83179 12.9165C5.83179 12.2261 5.27214 11.6665 4.58179 11.6665C3.89143 11.6665 3.33179 12.2261 3.33179 12.9165C3.33179 13.6069 3.89143 14.1665 4.58179 14.1665Z" fill="#0A77DB"/>
<path d="M8.74854 26.6665C9.43889 26.6665 9.99854 26.1069 9.99854 25.4165C9.99854 24.7261 9.43889 24.1665 8.74854 24.1665C8.05818 24.1665 7.49854 24.7261 7.49854 25.4165C7.49854 26.1069 8.05818 26.6665 8.74854 26.6665Z" fill="#0A77DB"/>
</g>
<defs>
<clipPath id="clip0_13047_15863">
<rect width="30" height="30" fill="white" transform="translate(-0.00146484)"/>
</clipPath>
</defs>
</svg>
