<svg width="32" height="33" viewBox="0 0 32 33" fill="none" xmlns="http://www.w3.org/2000/svg">
<path d="M32 14.6063C32 12.9501 30.6575 11.6076 29 11.6076H19.8438C21.2669 9.23822 22.0012 6.5526 22.0012 5.60635C22 4.1326 20.8438 2.6001 18.9062 2.6001C14.9606 2.6001 17.2587 7.35947 12.1438 11.4501L11.125 12.2626C10.3875 12.8563 10.0125 13.7251 10.0063 14.6001L10 24.6001C10 25.5438 10.4446 26.4332 11.2 26.9995L13.3337 28.5988C15.0625 29.9001 17.1687 30.6001 19.3312 30.6001H23C24.6575 30.6001 26 29.2582 26 27.6013C26 27.3742 25.97 27.1549 25.9221 26.942C27.125 26.5501 28 25.4376 28 24.1001C28 23.5283 27.8314 22.9995 27.5538 22.5451C28.9438 22.2876 30 21.0688 30 19.6063C30 18.8251 29.6942 18.1201 29.205 17.5863C30.7625 17.4813 32 16.1938 32 14.6063Z" fill="white"/>
<path opacity="0.6" d="M8 14.5438V28.5438C8 29.7001 7.10625 30.5438 6 30.4313H2C0.895625 30.4313 0 29.592 0 28.4876V14.5438C0 13.4957 0.895625 12.6001 2 12.6001H6C7.10437 12.6001 8 13.4395 8 14.5438Z" fill="white"/>
</svg>
