<svg width="30" height="30" viewBox="0 0 30 30" fill="none" xmlns="http://www.w3.org/2000/svg">
<g clip-path="url(#clip0_13047_15929)">
<path d="M3.74854 17.501V25.001C3.74854 26.3797 4.86979 27.501 6.24854 27.501H13.7485V17.501H3.74854V17.501Z" fill="#0A77DB"/>
<path d="M16.2485 17.501V27.501H23.7485C25.1273 27.501 26.2485 26.3797 26.2485 25.001V17.501H16.2485V17.501Z" fill="#0A77DB"/>
<path opacity="0.5" d="M24.9985 10.0003H21.106C21.6698 9.70775 22.2035 9.349 22.6498 8.904C24.111 7.44275 24.111 5.064 22.6498 3.599C21.2323 2.18525 18.766 2.184 17.3473 3.60025C15.3023 5.6465 15.026 9.49775 15.001 9.93025C14.9985 9.954 15.011 9.97525 15.011 10.0003H14.986C14.986 9.9765 14.9985 9.954 14.9973 9.929C14.9723 9.4965 14.696 5.64525 12.6498 3.59775C11.2323 2.184 8.76354 2.184 7.34604 3.599C5.88479 5.0615 5.88479 7.44025 7.34604 8.90275C7.79229 9.34775 8.32728 9.7065 8.89103 9.999H4.99854C3.61979 9.999 2.49854 11.1203 2.49854 12.499V16.249H13.7485V11.249H16.2485V16.249H27.4985V12.499C27.4985 11.1215 26.3773 10.0003 24.9985 10.0003ZM9.11479 7.13525C8.62729 6.64775 8.62729 5.85525 9.11479 5.3665C9.34979 5.1315 9.66354 5.0015 9.99854 5.0015C10.3335 5.0015 10.6473 5.1315 10.8835 5.3665C11.621 6.104 12.051 7.4265 12.281 8.53025C11.1798 8.30025 9.84729 7.86775 9.11479 7.13525ZM17.716 8.53275C17.946 7.429 18.376 6.10525 19.1135 5.36775C19.3498 5.1315 19.6648 5.0015 19.9985 5.0015C20.3323 5.0015 20.6473 5.1315 20.881 5.36525C21.3685 5.854 21.3698 6.64775 20.881 7.13525C20.1435 7.874 18.8198 8.304 17.716 8.53275Z" fill="#0A77DB"/>
</g>
<defs>
<clipPath id="clip0_13047_15929">
<rect width="30" height="30" fill="white" transform="translate(-0.00146484)"/>
</clipPath>
</defs>
</svg>
