<svg width="30" height="30" viewBox="0 0 30 30" fill="none" xmlns="http://www.w3.org/2000/svg">
<path opacity="0.5" d="M16.9985 13C16.9985 14.1045 16.103 15 14.9985 15C13.894 15 12.9985 14.1045 12.9985 13H16.9985Z" fill="#0A77DB"/>
<path opacity="0.5" d="M14.9985 0.5C12.513 0.5 10.4985 2.5145 10.4985 5C10.4985 7.4855 12.9985 9 12.9985 11.5H16.9985C16.9985 9 19.4985 7.4855 19.4985 5C19.4985 2.5145 17.484 0.5 14.9985 0.5ZM16.8895 6.134L15.3895 8.634C15.2585 8.8525 15.022 9 14.7485 9C14.3345 9 13.9985 8.664 13.9985 8.25C13.9985 8.109 14.0395 7.9785 14.1075 7.866L14.927 6.5H13.7485C13.3345 6.5 12.9985 6.164 12.9985 5.75C12.9985 5.609 13.0395 5.4785 13.1075 5.366L14.6075 2.866C14.7385 2.6475 14.975 2.5 15.2485 2.5C15.6625 2.5 15.9985 2.836 15.9985 3.25C15.9985 3.391 15.9575 3.5215 15.8895 3.634L15.07 5H16.2485C16.6625 5 16.9985 5.336 16.9985 5.75C16.9985 5.891 16.9575 6.0215 16.8895 6.134Z" fill="#0A77DB"/>
<path d="M14.18 18.0365L5.17354 14.535C5.11854 14.5145 5.06054 14.5 4.99854 14.5C4.86054 14.5 4.73554 14.556 4.64504 14.6465L2.64504 16.6465C2.55404 16.737 2.49854 16.862 2.49854 17C2.49854 17.212 2.63104 17.39 2.81704 17.4635L11.8235 20.965C11.8785 20.9855 11.937 21 11.9985 21C12.1365 21 12.2615 20.944 12.352 20.8535L14.352 18.8535C14.443 18.763 14.4985 18.638 14.4985 18.5C14.4985 18.288 14.366 18.1095 14.18 18.0365Z" fill="#0A77DB"/>
<path d="M15.817 18.0365L24.8235 14.535C24.8785 14.5145 24.937 14.5 24.9985 14.5C25.1365 14.5 25.2615 14.556 25.352 14.6465L27.352 16.6465C27.443 16.737 27.4985 16.862 27.4985 17C27.4985 17.212 27.366 17.39 27.18 17.4635L18.1735 20.965C18.1185 20.9855 18.0605 21 17.9985 21C17.8605 21 17.7355 20.944 17.645 20.8535L15.645 18.8535C15.554 18.763 15.4985 18.638 15.4985 18.5C15.4985 18.288 15.631 18.1095 15.817 18.0365V18.0365Z" fill="#0A77DB"/>
<path d="M18.7165 22.3631C18.468 22.4561 18.2325 22.5001 17.9985 22.5001C17.4645 22.5001 16.962 22.2921 16.5845 21.9141L14.9985 20.3281L13.4125 21.9141C13.035 22.2921 12.5325 22.5001 11.9985 22.5001C11.764 22.5001 11.5285 22.4561 11.2975 22.3691L2.99854 19.1431V25.0001C2.99854 25.2116 3.13104 25.3901 3.31654 25.4636L13.9985 29.6411V27.5001C13.9985 26.9481 14.4465 26.5001 14.9985 26.5001C15.5505 26.5001 15.9985 26.9481 15.9985 27.5001V29.6411L26.6805 25.4636C26.866 25.3901 26.9985 25.2116 26.9985 25.0001V19.1431L18.7165 22.3631Z" fill="#0A77DB"/>
<path d="M27.18 10.5365L20.2285 7.83301C20.006 8.25701 19.76 8.65551 19.524 9.03401C19.0795 9.74601 18.689 10.3795 18.5535 11.03L24.8235 13.465C24.8785 13.4855 24.937 13.5 24.9985 13.5C25.1365 13.5 25.2615 13.444 25.352 13.3535L27.352 11.3535C27.443 11.263 27.4985 11.138 27.4985 11C27.4985 10.788 27.366 10.61 27.18 10.5365V10.5365Z" fill="#0A77DB"/>
<path d="M10.473 9.03388C10.2375 8.65688 9.99354 8.26038 9.77204 7.83838L2.81704 10.5364C2.63104 10.6099 2.49854 10.7879 2.49854 10.9999C2.49854 11.1379 2.55404 11.2629 2.64504 11.3534L4.64504 13.3534C4.73554 13.4439 4.86054 13.4999 4.99854 13.4999C5.06054 13.4999 5.11854 13.4854 5.17354 13.4649L11.446 11.0409C11.312 10.3864 10.92 9.74988 10.473 9.03388V9.03388Z" fill="#0A77DB"/>
</svg>
