<svg width="32" height="26" viewBox="0 0 32 26" fill="none" xmlns="http://www.w3.org/2000/svg">
<path opacity="0.6" d="M0 19.1948L3.2 19.1968C4.0875 19.1968 4.8 18.4823 4.8 17.5953V6.41479H0V19.1948ZM2.4 16.0048C2.8375 16.0048 3.2 16.3607 3.2 16.8043C3.2 17.2414 2.8375 17.6038 2.4 17.6038C1.9625 17.6038 1.6 17.2398 1.6 16.8048C1.6 16.3598 1.9625 16.0048 2.4 16.0048ZM27.2 6.41978V17.5998C27.2 18.4808 27.9125 19.2023 28.755 19.2023L32 19.1998V6.40479L27.2 6.41978ZM29.6 17.5998C29.1625 17.5998 28.8 17.2375 28.8 16.8003C28.8 16.3565 29.1625 16.0008 29.6 16.0008C30.0375 16.0008 30.4 16.3598 30.4 16.8048C30.4 17.2398 30.04 17.5998 29.6 17.5998Z" fill="white"/>
<path d="M16.3639 3.61653C16.6569 3.34858 17.0429 3.20013 17.4399 3.20013L17.8737 3.16113C20.7697 3.16113 23.5447 4.30713 25.5937 6.35513V16.0722C25.4749 15.9349 25.3437 15.8099 25.1999 15.6851L17.9189 9.77963L19.2249 8.58613C19.5499 8.28613 19.5749 7.77993 19.2749 7.45513C18.9814 7.13033 18.4689 7.11158 18.1439 7.40513L14.1499 11.0601C14.1449 11.0651 14.1399 11.0651 14.1314 11.0726C13.2939 11.8161 11.9624 11.5901 11.3249 10.9351C10.6149 10.1601 10.5999 8.91513 11.4299 8.13513C11.4399 8.13513 11.4399 8.12513 11.4449 8.11513L16.3639 3.61653Z" fill="white"/>
<path d="M15.2299 12.2446L16.7299 10.8701L24.1923 16.9361C24.8788 17.4936 24.983 18.4951 24.427 19.1826L23.9501 19.7716C23.3941 20.4591 22.3876 20.559 21.7001 20.009L21.4314 19.7841L19.8624 21.7141C19.2124 22.5077 18.0374 22.5877 17.2434 21.9827L16.3374 21.2207C15.2249 22.589 13.2124 22.8015 11.8374 21.683L7.3124 17.592L6.3999 17.5901L6.4099 6.39513C8.4549 4.35413 11.2349 3.20013 14.1249 3.20013H14.4549L10.3649 6.94513C8.9049 8.28513 8.7999 10.5601 10.1399 12.0261C11.4674 13.4691 13.7424 13.6001 15.2299 12.2446Z" fill="white"/>
</svg>
