<svg width="32" height="32" viewBox="0 0 32 32" fill="none" xmlns="http://www.w3.org/2000/svg">
<g clip-path="url(#clip0_13047_15843)">
<path d="M8.06667 14.5704V5.53347H23.2675V14.5704L25.801 13.1225V3H5.5332V13.1225L8.06667 14.5704Z" fill="#0A77DB"/>
<path d="M19.8045 19.4686H11.5302L3 14.5942V25.8023C3 27.2008 4.135 28.3358 5.53347 28.3358H25.8012C27.1997 28.3358 28.3347 27.2008 28.3347 25.8023V14.5942L19.8045 19.4686Z" fill="#0A77DB"/>
<g opacity="0.5">
<path d="M15.6673 16.9345C15.6673 16.9345 20.7342 13.2495 20.7342 10.5197C20.7342 7.92799 16.7934 6.80059 15.6673 10.2056C14.5412 6.80059 10.6003 7.92799 10.6003 10.5197C10.6003 13.2495 15.6673 16.9345 15.6673 16.9345Z" fill="#0A77DB"/>
</g>
</g>
<defs>
<clipPath id="clip0_13047_15843">
<rect width="32" height="32" fill="white" transform="translate(-0.00146484)"/>
</clipPath>
</defs>
</svg>
