<svg width="30" height="30" viewBox="0 0 30 30" fill="none" xmlns="http://www.w3.org/2000/svg">
<path d="M28.4985 17C28.4985 17.8285 27.827 18.5 26.9985 18.5C26.17 18.5 25.4985 17.8285 25.4985 17V16H28.4985V17Z" fill="#0A77DB"/>
<path d="M10.4985 10.5V8.5C10.4985 7.953 10.648 7.442 10.9045 7H2.99854C2.17004 7 1.49854 7.6715 1.49854 8.5V10.5H10.4985Z" fill="#0A77DB"/>
<path d="M23.9985 17V3.5C23.9985 2.6715 23.327 2 22.4985 2C21.67 2 20.9985 2.6715 20.9985 3.5V19H24.769C24.2915 18.469 23.9985 17.7685 23.9985 17Z" fill="#0A77DB"/>
<path opacity="0.5" d="M7.49854 2C6.67004 2 5.99854 2.6715 5.99854 3.5V5.5H13.4985C15.155 5.5 16.4985 6.8435 16.4985 8.5V25.9445C16.4985 26.67 16.989 27.335 17.7015 27.472C18.66 27.6555 19.4985 26.926 19.4985 26V3.5C19.4985 2.953 19.648 2.442 19.9045 2H7.49854Z" fill="#0A77DB"/>
<path d="M14.9985 25.9445V8.5C14.9985 7.673 14.3255 7 13.4985 7C12.67 7 11.9985 7.6715 11.9985 8.5V12H2.99854V26.5C2.99854 27.324 3.67454 28 4.49854 28H15.7835C15.297 27.4525 14.9985 26.7315 14.9985 25.9445ZM8.99854 19C10.928 19 12.4985 20.3455 12.4985 22C12.4985 23.3565 11.4425 24.504 9.99854 24.8735V25C9.99854 25.552 9.55054 26 8.99854 26C8.44654 26 7.99854 25.552 7.99854 25V24.8735C6.68204 24.5275 5.88654 23.5505 5.59304 22.9245C5.52904 22.787 5.49854 22.6425 5.49854 22.5C5.49854 21.944 5.95104 21.5 6.49854 21.5C6.87454 21.5 7.23454 21.7135 7.40404 22.0755C7.44654 22.159 7.90254 23 8.99854 23C9.79754 23 10.4985 22.5325 10.4985 22C10.4985 21.4675 9.79754 21 8.99854 21C7.06904 21 5.49854 19.6545 5.49854 18C5.49854 16.6435 6.55454 15.496 7.99854 15.1265V15C7.99854 14.448 8.44654 14 8.99854 14C9.55054 14 9.99854 14.448 9.99854 15V15.1265C11.315 15.4725 12.1105 16.4495 12.404 17.0755C12.468 17.213 12.4985 17.3575 12.4985 17.5C12.4985 18.055 12.0465 18.5005 11.4985 18.5C11.1235 18.5 10.7635 18.287 10.593 17.9245C10.5505 17.841 10.0945 17 8.99854 17C8.19954 17 7.49854 17.4675 7.49854 18C7.49854 18.5325 8.19954 19 8.99854 19Z" fill="#0A77DB"/>
</svg>
