<svg width="32" height="32" viewBox="0 0 32 32" fill="none" xmlns="http://www.w3.org/2000/svg">
<g clip-path="url(#clip0_1966_26473)">
<path opacity="0.6" d="M10.2919 17.333H13.0413L9.70793 3.99967H13.5239L14.6666 11.9997H17.3333L18.4759 3.99967H22.2919L18.9586 17.333H21.7079L25.2933 2.99034C25.3933 2.59301 25.3026 2.16901 25.0506 1.84634C24.7986 1.52234 24.4106 1.33301 23.9999 1.33301H7.99993C7.58926 1.33301 7.20126 1.52234 6.94926 1.84634C6.69593 2.16901 6.6066 2.59167 6.7066 2.99034L10.2919 17.333Z" fill="white"/>
<path d="M16 14.6655L18.2853 20.3802H24L19.056 24.5535L21.7133 30.6655L16 26.8855L10.2853 30.6655L12.944 24.5535L8 20.3802H13.7133L16 14.6655Z" fill="white"/>
</g>
<defs>
<clipPath id="clip0_1966_26473">
<rect width="32" height="32" fill="white"/>
</clipPath>
</defs>
</svg>
