<svg width="30" height="30" viewBox="0 0 30 30" fill="none" xmlns="http://www.w3.org/2000/svg">
<g clip-path="url(#clip0_13047_15968)">
<path d="M11.2483 18.7497C19.7283 18.7497 22.4983 15.9609 22.4983 14.9997V12.4609C20.237 13.9459 16.467 14.9997 11.2483 14.9997C6.02954 14.9997 2.25954 13.9459 -0.00170898 12.4609V14.9997C-0.00170898 15.9609 2.76829 18.7497 11.2483 18.7497Z" fill="#0A77DB"/>
<path d="M11.2483 12.5002C19.7283 12.5002 22.4983 9.71142 22.4983 8.75017V6.21143C20.237 7.69643 16.467 8.75017 11.2483 8.75017C6.02954 8.75017 2.25954 7.69643 -0.00170898 6.21143V8.75017C-0.00170898 9.71142 2.76829 12.5002 11.2483 12.5002Z" fill="#0A77DB"/>
<path d="M11.2497 6.25049C17.7435 6.25049 20.881 4.61799 21.9985 3.41924C20.5047 1.17049 15.8585 0.000488281 11.2497 0.000488281C6.64098 0.000488281 1.99473 1.17049 0.500977 3.41924C1.61848 4.61799 4.75598 6.25049 11.2497 6.25049Z" fill="#0A77DB"/>
<path d="M17.6833 20.5994C15.8645 21.0082 13.7245 21.2507 11.2483 21.2507C6.02954 21.2507 2.25954 20.1969 -0.00170898 18.7119V20.0007C-0.00170898 23.2832 5.65704 25.0007 11.2483 25.0007C12.9733 25.0007 14.7033 24.8357 16.2733 24.5132C16.367 23.0557 16.8745 21.7132 17.6833 20.5994Z" fill="#0A77DB"/>
<path opacity="0.5" d="M22.4983 29.2679L17.8645 24.6342L19.632 22.8667L22.4983 25.7329L27.8645 20.3667L29.632 22.1342L22.4983 29.2679Z" fill="#0A77DB"/>
</g>
<defs>
<clipPath id="clip0_13047_15968">
<rect width="30" height="30" fill="white" transform="translate(-0.00146484)"/>
</clipPath>
</defs>
</svg>
