<svg width="30" height="30" viewBox="0 0 30 30" fill="none" xmlns="http://www.w3.org/2000/svg">
<path d="M24.9595 3.75C25.8345 3.75 26.5415 4.4697 26.5415 5.35714C26.5415 6.24459 25.8345 6.96429 24.9595 6.96429H6.76611C6.32908 6.96429 5.9751 7.32589 5.9751 7.76786C5.9751 8.20982 6.32908 8.57143 6.76611 8.57143H24.9595C26.7047 8.57143 28.1235 10.0128 28.1235 11.7857V23.0357C28.1235 24.8086 26.7047 26.25 24.9595 26.25H5.9751C4.22745 26.25 2.81104 24.8086 2.81104 23.0357V6.96429C2.81104 5.1889 4.22745 3.75 5.9751 3.75H24.9595ZM23.3774 19.0179C24.2525 19.0179 24.9595 18.2997 24.9595 17.4107C24.9595 16.5218 24.2525 15.8036 23.3774 15.8036C22.5024 15.8036 21.7954 16.5218 21.7954 17.4107C21.7954 18.2997 22.5024 19.0179 23.3774 19.0179Z" fill="#0A77DB"/>
</svg>
