<svg width="37" height="40" viewBox="0 0 37 40" fill="none" xmlns="http://www.w3.org/2000/svg">
<path d="M28.805 4.6875C28.805 6.25763 28.0127 7.71088 26.6928 8.57819L22.228 11.5079C21.676 11.8829 20.9315 11.7422 20.5718 11.203C20.1877 10.6641 20.3314 9.93744 20.8837 9.58588L25.3485 6.63269C25.9968 6.18744 26.4046 5.46082 26.4046 4.6875C26.4046 3.39844 25.3245 2.34375 24.0042 2.34375C22.9241 2.34375 21.9639 3.04688 21.676 4.07806L19.8035 10.8514C19.6594 11.3672 19.1794 11.7188 18.6515 11.7188C18.5552 11.7188 18.4352 11.6953 18.3392 11.6718C18.2192 11.6483 18.0992 11.5781 18.0032 11.5079C17.9073 11.5781 17.7873 11.6483 17.6672 11.6718C17.5713 11.6953 17.4513 11.7188 17.3553 11.7188C16.8271 11.7188 16.347 11.3672 16.2032 10.8514L14.3307 4.07806C14.0426 3.04688 13.0824 2.34375 12.0022 2.34375C10.682 2.34375 9.60182 3.39844 9.60182 4.6875C9.60182 5.46082 10.0097 6.18744 10.6579 6.63269L15.1227 9.58588C15.675 9.93744 15.8188 10.6641 15.4347 11.203C15.0749 11.7422 14.3304 11.8829 13.7785 11.5079L9.31365 8.57819C7.99342 7.71088 7.20142 6.25763 7.20142 4.6875C7.20142 2.10938 9.36178 0 12.0022 0C14.1626 0 16.0829 1.42975 16.6349 3.46863L18.0032 8.3905L19.3716 3.46863C19.9236 1.42975 21.8439 0 24.0042 0C26.6447 0 28.805 2.10938 28.805 4.6875Z" fill="#FFD400"/>
<path d="M28.8047 4.6875C28.8047 6.25763 28.0124 7.71088 26.6925 8.57819L22.2277 11.5079C21.6757 11.8829 20.9312 11.7422 20.5715 11.203C20.1874 10.6641 20.3311 9.93744 20.8834 9.58588L25.3482 6.63269C25.9965 6.18744 26.4043 5.46082 26.4043 4.6875C26.4043 3.39844 25.3242 2.34375 24.0039 2.34375C22.9238 2.34375 21.9636 3.04688 21.6757 4.07806L19.8032 10.8514C19.6591 11.3672 19.1791 11.7188 18.6512 11.7188C18.5549 11.7188 18.4349 11.6953 18.3389 11.6718C18.2189 11.6483 18.0989 11.5781 18.0029 11.5079V8.3905L19.3713 3.46863C19.9233 1.42975 21.8436 0 24.0039 0C26.6444 0 28.8047 2.10938 28.8047 4.6875Z" fill="#FDBF00"/>
<path d="M33.6054 18.7499V36.4843C33.6054 38.4294 31.9973 39.9999 30.0048 39.9999H20.4032L18.0028 37.6561L15.6024 39.9999H6.00075C4.00823 39.9999 2.40015 38.4294 2.40015 36.4843V18.7499H33.6054Z" fill="#FF7816"/>
<path d="M33.6056 18.7499V36.4843C33.6056 38.4294 31.9975 39.9999 30.0049 39.9999H20.4033L18.0029 37.6561V18.7499H33.6056Z" fill="#FF4B00"/>
<path d="M36.0061 12.8905V22.2655C36.0061 22.9216 35.4782 23.4374 34.8059 23.4374H1.2002C0.527901 23.4374 0 22.9216 0 22.2655V12.8905C0 10.945 1.60808 9.37488 3.60061 9.37488H15.6026L18.003 11.7186L20.4034 9.37488H32.4055C34.398 9.37488 36.0061 10.945 36.0061 12.8905Z" fill="#FF9F00"/>
<path d="M36.006 12.8905V22.2655C36.006 22.9216 35.4781 23.4374 34.8058 23.4374H18.0029V11.7186L20.4033 9.37488H32.4054C34.3979 9.37488 36.006 10.945 36.006 12.8905Z" fill="#FF7816"/>
<path d="M8.75323 18.4066C8.2844 17.9488 8.2844 17.2072 8.75323 16.7495L15.9544 9.7182C16.4233 9.26044 17.1828 9.26044 17.6516 9.7182C18.1204 10.176 18.1204 10.9175 17.6516 11.3753L10.4504 18.4066C9.98156 18.8643 9.22206 18.8643 8.75323 18.4066Z" fill="#FFE470"/>
<path d="M25.5558 18.4066L18.3546 11.3753C17.8857 10.9175 17.8857 10.176 18.3546 9.7182C18.8234 9.26044 19.5829 9.26044 20.0517 9.7182L27.2529 16.7495C27.7218 17.2072 27.7218 17.9488 27.2529 18.4066C26.7841 18.8643 26.0246 18.8643 25.5558 18.4066Z" fill="#FFD400"/>
<path d="M15.603 9.37488H20.4038V39.9999H15.603V9.37488Z" fill="#FFE470"/>
<path d="M18.0029 9.37488H20.4033V39.9999H18.0029V9.37488Z" fill="#FFD400"/>
</svg>
