<svg width="50" height="50" viewBox="0 0 50 50" fill="none" xmlns="http://www.w3.org/2000/svg">
<g clip-path="url(#clip0_3_2368)">
<path d="M38.3048 11.6826V17.2647H38.1454C38.1454 19.2318 32.8822 20.7735 26.609 20.7735C24.2167 20.8267 21.7711 20.5609 19.4319 19.9761V20.1355C18.2623 19.1255 16.9332 18.3811 15.4978 17.9027V17.7963L15.3384 11.8952C15.7637 13.7027 20.6547 15.1381 26.6622 15.1381C32.6697 15.1381 38.1455 13.5964 38.1455 11.6825L38.3048 11.6826Z" fill="#F4B844"/>
<path d="M26.7677 8.22705C33.0941 8.22705 38.3573 9.8219 38.3573 11.7359C38.3573 13.6498 33.041 15.1915 26.7677 15.1915C20.4945 15.1915 15.816 13.7561 15.3908 11.9485V11.7359C15.3376 9.8219 20.4413 8.22705 26.7677 8.22705Z" fill="#FEDB41"/>
<path d="M27.7247 33.2137V37.6794H26.6615C24.3222 37.7326 21.983 37.4668 19.6971 36.9352L19.5376 36.7756C21.0262 35.4466 22.0895 33.7453 22.7274 31.8846H22.9932C24.1096 31.991 25.3324 32.0441 26.5551 32.0441H27.6715L27.7247 33.2137Z" fill="#E2A63B"/>
<path d="M26.7151 26.1962L27.2467 26.462C27.1936 26.5683 27.1936 26.6747 27.1936 26.781C27.1936 26.9405 27.2467 27.1 27.2999 27.2595V32.2568H26.7151C25.386 32.2568 24.057 32.2037 22.8874 32.0973H22.6216C22.9937 30.9277 23.1532 29.705 23.1532 28.4823C23.1532 27.6848 23.0468 26.8874 22.9405 26.09H23.2063C24.376 26.1962 25.5456 26.1962 26.7151 26.1962Z" fill="#F4B844"/>
<path d="M19.4316 19.9761C21.7708 20.5609 24.2163 20.8267 26.6087 20.7736C32.882 20.7736 38.1451 19.2319 38.1451 17.2648H38.3045V23.538C32.4566 23.538 27.6719 24.9203 27.0871 26.6746L26.6086 26.4088C25.4922 26.4088 24.429 26.3557 23.3125 26.2494H23.0467C22.5151 23.857 21.2392 21.6773 19.3784 20.0824L19.4316 19.9761Z" fill="#E2A63B"/>
<path d="M50.0008 32.629V38.2643C50.0008 40.1782 44.8439 41.7731 38.5706 41.7731C32.2974 41.7731 27.3 40.2314 27.3 38.3175V33.2138C28.1506 34.8618 32.7758 36.1378 38.358 36.1378C43.9401 36.1378 49.8412 34.5429 49.8412 32.629H50.0008Z" fill="#E2A63B"/>
<path d="M49.9993 27.0999V32.6289H49.8399C49.8399 34.5428 44.6299 36.1377 38.3566 36.1377C32.0834 36.1377 28.1493 34.8618 27.1924 33.2137V27.4189C27.8835 29.1733 32.6682 30.5024 38.4099 30.5024C44.1515 30.5024 49.7337 28.9607 49.8931 27.0999H49.9993Z" fill="#F4B844"/>
<path d="M27.0333 27.4189C26.9802 27.2594 26.927 27.1531 26.927 26.9936C26.927 26.8872 26.927 26.7809 26.9801 26.6745C27.5649 24.9201 32.4028 23.4847 38.3039 23.4847H38.357C44.6834 23.4847 49.9998 25.0265 49.9998 26.9936V27.0999C49.8403 28.9606 44.5771 30.5555 38.357 30.5555C32.137 30.5555 27.7245 29.1733 27.0333 27.4189Z" fill="#FEDB41"/>
<path d="M23.3121 26.2493C23.4184 26.9936 23.5248 27.7911 23.5248 28.5353C23.5248 29.7049 23.3653 30.8745 23.0463 31.9378C22.4084 33.8516 21.2919 35.606 19.8034 36.9351C17.7301 38.849 15.0187 39.9122 12.2011 39.9122C5.9277 40.3376 0.451915 35.606 0.0265678 29.2797C-0.39878 23.0064 4.33275 17.5306 10.6592 17.1053C11.1908 17.0522 11.7225 17.0522 12.2541 17.1053C13.3705 17.1053 14.5401 17.2647 15.6033 17.5837C17.092 18.0622 18.4741 18.8597 19.6437 19.8697C21.4514 21.571 22.7804 23.8038 23.3121 26.2493Z" fill="#FEDB41"/>
<path d="M11.7224 34.2237C14.864 34.2237 17.4109 31.6769 17.4109 28.5353C17.4109 25.3936 14.864 22.8468 11.7224 22.8468C8.58075 22.8468 6.03394 25.3936 6.03394 28.5353C6.03394 31.6769 8.58075 34.2237 11.7224 34.2237Z" fill="#F4B844"/>
</g>
<defs>
<clipPath id="clip0_3_2368">
<rect width="50" height="50" fill="white"/>
</clipPath>
</defs>
</svg>
