<svg width="40" height="40" viewBox="0 0 40 40" fill="none" xmlns="http://www.w3.org/2000/svg">
<circle cx="20" cy="20" r="20" fill="#EAF0FF"/>
<path fill-rule="evenodd" clip-rule="evenodd" d="M16.4842 12.7376C15.2267 13.0757 13.9774 13.4434 12.7373 13.8404C12.6251 13.875 12.5249 13.9406 12.4483 14.0296C12.3717 14.1187 12.3217 14.2275 12.3042 14.3436C11.5713 19.702 13.2626 23.6125 15.2797 26.1879C16.2917 27.4804 17.3876 28.4374 18.3006 29.0658C18.7584 29.3793 19.1613 29.6075 19.4789 29.7533C19.6384 29.8261 19.7677 29.8756 19.8667 29.9045C19.9103 29.9185 19.9549 29.9296 20.0001 29.9375C20.0097 29.9361 20.0523 29.9306 20.1334 29.9059C20.2324 29.8756 20.3617 29.8261 20.5212 29.7533C20.8374 29.6075 21.2431 29.3793 21.6996 29.0658C22.8444 28.2625 23.8626 27.2925 24.7204 26.1879C26.7376 23.6125 28.4288 19.702 27.6959 14.3436C27.6784 14.2275 27.6285 14.1187 27.5518 14.0296C27.4752 13.9406 27.375 13.875 27.2628 13.8404C26.4021 13.5654 24.9501 13.1171 23.5159 12.7376C22.0502 12.3513 20.7013 12.0625 20.0001 12.0625C19.2988 12.0625 17.9513 12.3513 16.4842 12.7376ZM16.1322 11.4094C17.5663 11.0299 19.0884 10.6875 20.0001 10.6875C20.9103 10.6875 22.4338 11.0299 23.8679 11.4094C25.1471 11.7528 26.418 12.1265 27.6794 12.53C28.4054 12.761 28.9527 13.3866 29.0586 14.158C29.8464 19.9289 28.0191 24.2051 25.8039 27.0349C24.86 28.2493 23.7393 29.3153 22.4792 30.1974C22.041 30.5043 21.5779 30.7738 21.0946 31.0031C20.7233 31.1736 20.3273 31.3125 20.0001 31.3125C19.6728 31.3125 19.2768 31.1736 18.9056 31.0031C18.4222 30.774 17.959 30.5045 17.5209 30.1974C16.2614 29.3152 15.1411 28.2492 14.1976 27.0349C11.9797 24.2051 10.1537 19.9289 10.9416 14.158C10.9942 13.7841 11.1517 13.4328 11.3958 13.1446C11.6399 12.8565 11.9605 12.6434 12.3207 12.53C13.5822 12.1265 14.853 11.7528 16.1322 11.4094V11.4094Z" fill="url(#paint0_linear_1782_6282)"/>
<path d="M20 13.0938C21.2499 13.0938 24.3835 14.0356 25.8493 14.499C26.0855 14.5714 26.296 14.71 26.4558 14.8984C26.6157 15.0868 26.7182 15.317 26.7513 15.5619C27.8705 24.3949 21.0725 28.5584 20 28.5584V13.0938Z" fill="url(#paint1_linear_1782_6282)"/>
<defs>
<linearGradient id="paint0_linear_1782_6282" x1="10.755" y1="14.9669" x2="29.2447" y2="15.0593" gradientUnits="userSpaceOnUse">
<stop stop-color="#5465FF"/>
<stop offset="1" stop-color="#04DEB7"/>
</linearGradient>
<linearGradient id="paint1_linear_1782_6282" x1="20" y1="16.3025" x2="26.8752" y2="16.3195" gradientUnits="userSpaceOnUse">
<stop stop-color="#5465FF"/>
<stop offset="1" stop-color="#04DEB7"/>
</linearGradient>
</defs>
</svg>
