<svg width="40" height="40" viewBox="0 0 40 40" fill="none" xmlns="http://www.w3.org/2000/svg">
<circle cx="20" cy="20" r="20" fill="#EAF0FF"/>
<g clip-path="url(#clip0_1782_6054)">
<path d="M11.8876 13.0581C11.7041 13.2153 11.7041 13.4694 11.8876 13.6266C12.071 13.7838 12.3674 13.7838 12.5508 13.6266L16.8624 9.93092C17.0459 9.77371 17.0459 9.51961 16.8624 9.36241C16.679 9.20521 16.3826 9.20521 16.1992 9.36241L11.8876 13.0581V13.0581Z" fill="url(#paint0_linear_1782_6054)"/>
<path opacity="0.35" d="M32 28.3334C32 31 29.3333 31 29.3333 31H10.6667C10.6667 31 8 31 8 28.3334V16.3334C8 16.3334 8 13.6667 10.6667 13.6667H29.3333C32 13.6667 32 16.3334 32 16.3334V28.3334Z" fill="url(#paint1_linear_1782_6054)"/>
<path d="M18.374 9.04065C18.1134 9.30132 17.692 9.30132 17.4314 9.04065L16.96 8.56932C16.6994 8.30865 16.6994 7.88732 16.96 7.62665C17.2207 7.36599 17.642 7.36599 17.9027 7.62665L18.374 8.09799C18.634 8.35799 18.634 8.77999 18.374 9.04065Z" fill="url(#paint2_linear_1782_6054)"/>
<path opacity="0.6" d="M26.3333 23C28.3583 23 30 21.3584 30 19.3334C30 17.3083 28.3583 15.6667 26.3333 15.6667C24.3082 15.6667 22.6666 17.3083 22.6666 19.3334C22.6666 21.3584 24.3082 23 26.3333 23Z" fill="url(#paint3_linear_1782_6054)"/>
<path opacity="0.6" d="M26.3333 29C27.622 29 28.6667 27.9553 28.6667 26.6666C28.6667 25.378 27.622 24.3333 26.3333 24.3333C25.0447 24.3333 24 25.378 24 26.6666C24 27.9553 25.0447 29 26.3333 29Z" fill="url(#paint4_linear_1782_6054)"/>
<path d="M26.3333 21.6667C27.622 21.6667 28.6667 20.622 28.6667 19.3333C28.6667 18.0447 27.622 17 26.3333 17C25.0447 17 24 18.0447 24 19.3333C24 20.622 25.0447 21.6667 26.3333 21.6667Z" fill="url(#paint5_linear_1782_6054)"/>
<path d="M26.3334 27.6667C26.8857 27.6667 27.3334 27.219 27.3334 26.6667C27.3334 26.1144 26.8857 25.6667 26.3334 25.6667C25.7811 25.6667 25.3334 26.1144 25.3334 26.6667C25.3334 27.219 25.7811 27.6667 26.3334 27.6667Z" fill="url(#paint6_linear_1782_6054)"/>
<path d="M15 25C15.5523 25 16 24.5523 16 24C16 23.4477 15.5523 23 15 23C14.4477 23 14 23.4477 14 24C14 24.5523 14.4477 25 15 25Z" fill="url(#paint7_linear_1782_6054)"/>
<path d="M11.6666 25C12.2189 25 12.6666 24.5523 12.6666 24C12.6666 23.4477 12.2189 23 11.6666 23C11.1143 23 10.6666 23.4477 10.6666 24C10.6666 24.5523 11.1143 25 11.6666 25Z" fill="url(#paint8_linear_1782_6054)"/>
<path d="M15 21.6666C15.5523 21.6666 16 21.2189 16 20.6666C16 20.1143 15.5523 19.6666 15 19.6666C14.4477 19.6666 14 20.1143 14 20.6666C14 21.2189 14.4477 21.6666 15 21.6666Z" fill="url(#paint9_linear_1782_6054)"/>
<path d="M18.3333 21.6666C18.8855 21.6666 19.3333 21.2189 19.3333 20.6666C19.3333 20.1143 18.8855 19.6666 18.3333 19.6666C17.781 19.6666 17.3333 20.1143 17.3333 20.6666C17.3333 21.2189 17.781 21.6666 18.3333 21.6666Z" fill="url(#paint10_linear_1782_6054)"/>
<path d="M18.3333 25C18.8855 25 19.3333 24.5523 19.3333 24C19.3333 23.4477 18.8855 23 18.3333 23C17.781 23 17.3333 23.4477 17.3333 24C17.3333 24.5523 17.781 25 18.3333 25Z" fill="url(#paint11_linear_1782_6054)"/>
<path d="M18.3333 28.3333C18.8855 28.3333 19.3333 27.8856 19.3333 27.3333C19.3333 26.781 18.8855 26.3333 18.3333 26.3333C17.781 26.3333 17.3333 26.781 17.3333 27.3333C17.3333 27.8856 17.781 28.3333 18.3333 28.3333Z" fill="url(#paint12_linear_1782_6054)"/>
<path d="M11.6666 28.3333C12.2189 28.3333 12.6666 27.8856 12.6666 27.3333C12.6666 26.781 12.2189 26.3333 11.6666 26.3333C11.1143 26.3333 10.6666 26.781 10.6666 27.3333C10.6666 27.8856 11.1143 28.3333 11.6666 28.3333Z" fill="url(#paint13_linear_1782_6054)"/>
<path d="M11.6666 21.6666C12.2189 21.6666 12.6666 21.2189 12.6666 20.6666C12.6666 20.1143 12.2189 19.6666 11.6666 19.6666C11.1143 19.6666 10.6666 20.1143 10.6666 20.6666C10.6666 21.2189 11.1143 21.6666 11.6666 21.6666Z" fill="url(#paint14_linear_1782_6054)"/>
<path d="M15 18.3333C15.5523 18.3333 16 17.8856 16 17.3333C16 16.781 15.5523 16.3333 15 16.3333C14.4477 16.3333 14 16.781 14 17.3333C14 17.8856 14.4477 18.3333 15 18.3333Z" fill="url(#paint15_linear_1782_6054)"/>
<path d="M18.3333 18.3333C18.8855 18.3333 19.3333 17.8856 19.3333 17.3333C19.3333 16.781 18.8855 16.3333 18.3333 16.3333C17.781 16.3333 17.3333 16.781 17.3333 17.3333C17.3333 17.8856 17.781 18.3333 18.3333 18.3333Z" fill="url(#paint16_linear_1782_6054)"/>
<path d="M11.6666 18.3333C12.2189 18.3333 12.6666 17.8856 12.6666 17.3333C12.6666 16.781 12.2189 16.3333 11.6666 16.3333C11.1143 16.3333 10.6666 16.781 10.6666 17.3333C10.6666 17.8856 11.1143 18.3333 11.6666 18.3333Z" fill="url(#paint17_linear_1782_6054)"/>
<path d="M15 28.3333C15.5523 28.3333 16 27.8856 16 27.3333C16 26.781 15.5523 26.3333 15 26.3333C14.4477 26.3333 14 26.781 14 27.3333C14 27.8856 14.4477 28.3333 15 28.3333Z" fill="url(#paint18_linear_1782_6054)"/>
</g>
<defs>
<linearGradient id="paint0_linear_1782_6054" x1="11.75" y1="10.1782" x2="16.9998" y2="10.2123" gradientUnits="userSpaceOnUse">
<stop stop-color="#5465FF"/>
<stop offset="1" stop-color="#04DEB7"/>
</linearGradient>
<linearGradient id="paint1_linear_1782_6054" x1="8" y1="17.2631" x2="31.9987" y2="17.4483" gradientUnits="userSpaceOnUse">
<stop stop-color="#5465FF"/>
<stop offset="1" stop-color="#04DEB7"/>
</linearGradient>
<linearGradient id="paint2_linear_1782_6054" x1="16.7645" y1="7.80567" x2="18.569" y2="7.81572" gradientUnits="userSpaceOnUse">
<stop stop-color="#5465FF"/>
<stop offset="1" stop-color="#04DEB7"/>
</linearGradient>
<linearGradient id="paint3_linear_1782_6054" x1="22.6666" y1="17.1883" x2="29.9998" y2="17.2291" gradientUnits="userSpaceOnUse">
<stop stop-color="#5465FF"/>
<stop offset="1" stop-color="#04DEB7"/>
</linearGradient>
<linearGradient id="paint4_linear_1782_6054" x1="24" y1="25.3016" x2="28.6666" y2="25.3276" gradientUnits="userSpaceOnUse">
<stop stop-color="#5465FF"/>
<stop offset="1" stop-color="#04DEB7"/>
</linearGradient>
<linearGradient id="paint5_linear_1782_6054" x1="24" y1="17.9683" x2="28.6666" y2="17.9943" gradientUnits="userSpaceOnUse">
<stop stop-color="#5465FF"/>
<stop offset="1" stop-color="#04DEB7"/>
</linearGradient>
<linearGradient id="paint6_linear_1782_6054" x1="25.3334" y1="26.0817" x2="27.3333" y2="26.0928" gradientUnits="userSpaceOnUse">
<stop stop-color="#5465FF"/>
<stop offset="1" stop-color="#04DEB7"/>
</linearGradient>
<linearGradient id="paint7_linear_1782_6054" x1="14" y1="23.415" x2="16" y2="23.4261" gradientUnits="userSpaceOnUse">
<stop stop-color="#5465FF"/>
<stop offset="1" stop-color="#04DEB7"/>
</linearGradient>
<linearGradient id="paint8_linear_1782_6054" x1="10.6666" y1="23.415" x2="12.6666" y2="23.4261" gradientUnits="userSpaceOnUse">
<stop stop-color="#5465FF"/>
<stop offset="1" stop-color="#04DEB7"/>
</linearGradient>
<linearGradient id="paint9_linear_1782_6054" x1="14" y1="20.0816" x2="16" y2="20.0927" gradientUnits="userSpaceOnUse">
<stop stop-color="#5465FF"/>
<stop offset="1" stop-color="#04DEB7"/>
</linearGradient>
<linearGradient id="paint10_linear_1782_6054" x1="17.3333" y1="20.0816" x2="19.3332" y2="20.0927" gradientUnits="userSpaceOnUse">
<stop stop-color="#5465FF"/>
<stop offset="1" stop-color="#04DEB7"/>
</linearGradient>
<linearGradient id="paint11_linear_1782_6054" x1="17.3333" y1="23.415" x2="19.3332" y2="23.4261" gradientUnits="userSpaceOnUse">
<stop stop-color="#5465FF"/>
<stop offset="1" stop-color="#04DEB7"/>
</linearGradient>
<linearGradient id="paint12_linear_1782_6054" x1="17.3333" y1="26.7483" x2="19.3332" y2="26.7594" gradientUnits="userSpaceOnUse">
<stop stop-color="#5465FF"/>
<stop offset="1" stop-color="#04DEB7"/>
</linearGradient>
<linearGradient id="paint13_linear_1782_6054" x1="10.6666" y1="26.7483" x2="12.6666" y2="26.7594" gradientUnits="userSpaceOnUse">
<stop stop-color="#5465FF"/>
<stop offset="1" stop-color="#04DEB7"/>
</linearGradient>
<linearGradient id="paint14_linear_1782_6054" x1="10.6666" y1="20.0816" x2="12.6666" y2="20.0927" gradientUnits="userSpaceOnUse">
<stop stop-color="#5465FF"/>
<stop offset="1" stop-color="#04DEB7"/>
</linearGradient>
<linearGradient id="paint15_linear_1782_6054" x1="14" y1="16.7483" x2="16" y2="16.7594" gradientUnits="userSpaceOnUse">
<stop stop-color="#5465FF"/>
<stop offset="1" stop-color="#04DEB7"/>
</linearGradient>
<linearGradient id="paint16_linear_1782_6054" x1="17.3333" y1="16.7483" x2="19.3332" y2="16.7594" gradientUnits="userSpaceOnUse">
<stop stop-color="#5465FF"/>
<stop offset="1" stop-color="#04DEB7"/>
</linearGradient>
<linearGradient id="paint17_linear_1782_6054" x1="10.6666" y1="16.7483" x2="12.6666" y2="16.7594" gradientUnits="userSpaceOnUse">
<stop stop-color="#5465FF"/>
<stop offset="1" stop-color="#04DEB7"/>
</linearGradient>
<linearGradient id="paint18_linear_1782_6054" x1="14" y1="26.7483" x2="16" y2="26.7594" gradientUnits="userSpaceOnUse">
<stop stop-color="#5465FF"/>
<stop offset="1" stop-color="#04DEB7"/>
</linearGradient>
<clipPath id="clip0_1782_6054">
<rect width="24" height="24" fill="white" transform="translate(8 7)"/>
</clipPath>
</defs>
</svg>
