<svg width="25" height="24" viewBox="0 0 25 24" fill="none" xmlns="http://www.w3.org/2000/svg">
<path opacity="0.6" d="M15.7433 3.29297L13.4851 5.58597V0.999969H11.5154V5.58597L9.25712 3.29297L7.86455 4.70697L12.5002 9.41397L17.1359 4.70697L15.7433 3.29297Z" fill="#91919F"/>
<path d="M12.5005 16.8226L21.3296 11.2586C21.047 11.0996 20.7259 10.9996 20.3793 10.9996H4.62169C4.27502 10.9996 3.95396 11.0996 3.67131 11.2586L12.5005 16.8226Z" fill="#91919F"/>
<path d="M13.0193 18.849C12.8607 18.949 12.6805 18.999 12.5003 18.999C12.32 18.999 12.1398 18.949 11.9812 18.849L2.65473 12.973C2.65473 12.981 2.65178 12.99 2.65178 12.999V21.999C2.65178 23.102 3.53519 23.999 4.62148 23.999H20.3791C21.4653 23.999 22.3487 23.102 22.3487 21.999V12.999C22.3487 12.99 22.3458 12.981 22.3458 12.972L13.0193 18.849Z" fill="#91919F"/>
</svg>
