<svg width="25" height="24" viewBox="0 0 25 24" fill="none" xmlns="http://www.w3.org/2000/svg">
<path opacity="0.6" d="M17.1354 5.29275L12.4997 0.585754L7.86406 5.29275L9.25664 6.70675L11.5149 4.41375V8.99975H13.4846V4.41375L15.7428 6.70675L17.1354 5.29275Z" fill="#91919F"/>
<path d="M12.4998 16.8225L21.3289 11.2585C21.0463 11.0995 20.7252 10.9995 20.3786 10.9995H4.62099C4.27432 10.9995 3.95326 11.0995 3.67061 11.2585L12.4998 16.8225Z" fill="#91919F"/>
<path d="M13.0188 18.8488C12.8602 18.9488 12.68 18.9988 12.4997 18.9988C12.3195 18.9988 12.1393 18.9488 11.9807 18.8488L2.65421 12.9728C2.65421 12.9808 2.65126 12.9898 2.65126 12.9988V21.9988C2.65126 23.1018 3.53467 23.9988 4.62096 23.9988H20.3785C21.4648 23.9988 22.3482 23.1018 22.3482 21.9988V12.9988C22.3482 12.9898 22.3453 12.9808 22.3453 12.9718L13.0188 18.8488Z" fill="#91919F"/>
</svg>
