<svg width="40" height="40" viewBox="0 0 40 40" fill="none" xmlns="http://www.w3.org/2000/svg">
<circle cx="20" cy="20" r="20" fill="#EAF0FF"/>
<path d="M29.9167 17.3333L30.6239 16.6262L31.331 17.3333L30.6239 18.0404L29.9167 17.3333ZM10.1251 18.3333C9.5728 18.3333 9.12508 17.8856 9.12508 17.3333C9.12508 16.781 9.5728 16.3333 10.1251 16.3333L10.1251 18.3333ZM26.4572 12.4595L30.6239 16.6262L29.2096 18.0404L25.043 13.8737L26.4572 12.4595ZM30.6239 18.0404L26.4572 22.2071L25.043 20.7929L29.2096 16.6262L30.6239 18.0404ZM29.9167 18.3333L10.1251 18.3333L10.1251 16.3333L29.9167 16.3333L29.9167 18.3333Z" fill="url(#paint0_linear_1781_878)"/>
<path d="M9.08325 25.6667L8.37614 24.9596L7.66904 25.6667L8.37614 26.3738L9.08325 25.6667ZM18.4583 26.6667C19.0105 26.6667 19.4583 26.219 19.4583 25.6667C19.4583 25.1144 19.0105 24.6667 18.4583 24.6667L18.4583 26.6667ZM12.5428 20.7929L8.37614 24.9596L9.79036 26.3738L13.957 22.2071L12.5428 20.7929ZM8.37614 26.3738L12.5428 30.5404L13.957 29.1262L9.79036 24.9596L8.37614 26.3738ZM9.08325 26.6667L18.4583 26.6667L18.4583 24.6667L9.08325 24.6667L9.08325 26.6667Z" fill="url(#paint1_linear_1781_878)"/>
<defs>
<linearGradient id="paint0_linear_1781_878" x1="29.9167" y1="14.8957" x2="10.1284" y2="15.1576" gradientUnits="userSpaceOnUse">
<stop stop-color="#5465FF"/>
<stop offset="1" stop-color="#04DEB7"/>
</linearGradient>
<linearGradient id="paint1_linear_1781_878" x1="9.08325" y1="23.2291" x2="18.458" y2="23.2878" gradientUnits="userSpaceOnUse">
<stop stop-color="#5465FF"/>
<stop offset="1" stop-color="#04DEB7"/>
</linearGradient>
</defs>
</svg>
