<svg width="30" height="31" viewBox="0 0 30 31" fill="none" xmlns="http://www.w3.org/2000/svg">
<path fill-rule="evenodd" clip-rule="evenodd" d="M10.105 25.0747C9.84444 24.5381 9.71449 23.9499 9.72534 23.356C9.72534 21.0271 10.9207 18.6294 13.1285 16.9622C12.0265 16.6302 10.8784 16.4678 9.72534 16.481C2.69409 16.481 0.936279 21.6372 0.936279 23.356C0.936279 25.0747 2.69409 25.0747 2.69409 25.0747H10.105ZM8.84644 14.7622C10.0119 14.7622 11.1297 14.3095 11.9538 13.5037C12.778 12.6979 13.241 11.6049 13.241 10.4653C13.241 9.32573 12.778 8.2328 11.9538 7.42698C11.1297 6.62116 10.0119 6.16846 8.84644 6.16846C7.68093 6.16846 6.56317 6.62116 5.73903 7.42698C4.9149 8.2328 4.4519 9.32573 4.4519 10.4653C4.4519 11.6049 4.9149 12.6979 5.73903 13.5037C6.56317 14.3095 7.68093 14.7622 8.84644 14.7622Z" fill="#0A77DB" fill-opacity="0.5"/>
<path d="M24.0011 13.252C23.0121 14.219 21.6708 14.7622 20.2722 14.7622C18.8736 14.7622 17.5323 14.219 16.5433 13.252C15.5544 12.285 14.9988 10.9735 14.9988 9.60596C14.9988 8.23843 15.5544 6.92692 16.5433 5.95994C17.5323 4.99295 18.8736 4.44971 20.2722 4.44971C21.6708 4.44971 23.0121 4.99295 24.0011 5.95994C24.9901 6.92692 25.5457 8.23843 25.5457 9.60596C25.5457 10.9735 24.9901 12.285 24.0011 13.252Z" fill="#0A77DB"/>
<path d="M11.4832 23.356C11.4832 25.0747 13.241 25.0747 13.241 25.0747H27.3035C27.3035 25.0747 29.0613 25.0747 29.0613 23.356C29.0613 21.6372 27.3035 16.481 20.2722 16.481C13.241 16.481 11.4832 21.6372 11.4832 23.356Z" fill="#0A77DB"/>
</svg>
