<svg width="30" height="31" viewBox="0 0 30 31" fill="none" xmlns="http://www.w3.org/2000/svg">
<g clip-path="url(#clip0_12469_26808)">
<path opacity="0.6" d="M1.00049 3.73096V2.01667C1.00049 1.30653 1.67199 0.730957 2.50049 0.730957C3.32849 0.730957 4.00049 1.30653 4.00049 2.01667V3.73096H1.00049Z" fill="#0A77DB"/>
<path d="M28.1865 19.3831H14.4357L12.5574 16.5448C12.2209 16.0365 11.6548 15.731 11.0482 15.731H2.81406C1.62688 15.731 0.760514 16.8607 1.06018 18.0184L3.73964 28.3663C3.94808 29.1697 4.66824 29.731 5.49353 29.731H25.8411C26.609 29.731 27.2941 29.2428 27.5497 28.5123L29.8957 21.8167C30.3119 20.6291 29.4365 19.3831 28.1865 19.3831Z" fill="#0A77DB"/>
<path opacity="0.6" d="M26.0005 8.73096H26.8005C27.4629 8.73096 28.0005 9.59431 28.0005 10.6595V17.731H26.0005" fill="#0A77DB"/>
<path opacity="0.6" d="M4.00049 12.731H2.00049V10.231C2.00049 9.40246 2.53769 8.73096 3.20049 8.73096H4.00049V12.731Z" fill="#0A77DB"/>
<path d="M20.326 0.730957H5.00049C5.38876 1.23974 5.62821 1.86631 5.62821 2.55239V14.0881H10.9139C12.1449 14.0881 13.2882 14.694 13.9723 15.7098L15.3312 17.731H24.0005V4.37381C24.0005 2.36235 22.3549 0.730957 20.326 0.730957ZM9.91507 3.76667H16.0392C16.7153 3.76667 17.264 4.31067 17.264 4.98096C17.264 5.65124 16.7153 6.19524 16.0392 6.19524H9.91507C9.23897 6.19524 8.69025 5.65124 8.69025 4.98096C8.69025 4.31067 9.23897 3.76667 9.91507 3.76667ZM19.7136 11.0524H9.91507C9.23897 11.0524 8.69025 10.5084 8.69025 9.8381C8.69025 9.16781 9.23897 8.62381 9.91507 8.62381H19.7136C20.3897 8.62381 20.9384 9.16781 20.9384 9.8381C20.9384 10.5084 20.3897 11.0524 19.7136 11.0524Z" fill="#0A77DB"/>
</g>
<defs>
<clipPath id="clip0_12469_26808">
<rect width="30" height="30" fill="white" transform="translate(-0.000732422 0.230957)"/>
</clipPath>
</defs>
</svg>
