<svg width="30" height="31" viewBox="0 0 30 31" fill="none" xmlns="http://www.w3.org/2000/svg">
<path d="M27.7898 18.4978L25.4347 17.1494C25.6724 15.8778 25.6724 14.5732 25.4347 13.3015L27.7898 11.9531C28.0607 11.7996 28.1823 11.4817 28.0939 11.1857C27.4802 9.23438 26.4353 7.46939 25.0698 6.0004C24.8598 5.77566 24.517 5.72085 24.2516 5.87433L21.8965 7.22273C20.9069 6.37861 19.7681 5.72633 18.5353 5.29879V2.60745C18.5353 2.3005 18.3197 2.03191 18.0156 1.96614C15.9867 1.51667 13.908 1.53859 11.9786 1.96614C11.6745 2.03191 11.4589 2.3005 11.4589 2.60745V5.30427C10.2316 5.73729 9.09276 6.38957 8.09764 7.22822L5.74807 5.87981C5.47718 5.72633 5.13995 5.77566 4.92987 6.00588C3.56436 7.46939 2.51949 9.23438 1.90584 11.1912C1.81185 11.4872 1.93901 11.8051 2.2099 11.9586L4.565 13.307C4.32728 14.5787 4.32728 15.8832 4.565 17.1549L2.2099 18.5033C1.93901 18.6568 1.81738 18.9747 1.90584 19.2707C2.51949 21.2221 3.56436 22.987 4.92987 24.456C5.13995 24.6808 5.48271 24.7356 5.74807 24.5821L8.10317 23.2337C9.09276 24.0778 10.2316 24.7301 11.4644 25.1576V27.8545C11.4644 28.1614 11.68 28.43 11.9841 28.4958C14.013 28.9452 16.0917 28.9233 18.0211 28.4958C18.3252 28.43 18.5408 28.1614 18.5408 27.8545V25.1576C19.7681 24.7246 20.9069 24.0723 21.9021 23.2337L24.2572 24.5821C24.5281 24.7356 24.8653 24.6863 25.0754 24.456C26.4409 22.9925 27.4857 21.2275 28.0994 19.2707C28.1823 18.9692 28.0607 18.6513 27.7898 18.4978ZM14.9971 19.6105C12.5591 19.6105 10.5744 17.6427 10.5744 15.2255C10.5744 12.8082 12.5591 10.8404 14.9971 10.8404C17.4351 10.8404 19.4198 12.8082 19.4198 15.2255C19.4198 17.6427 17.4351 19.6105 14.9971 19.6105Z" fill="#0A77DB"/>
</svg>
