<svg width="30" height="31" viewBox="0 0 30 31" fill="none" xmlns="http://www.w3.org/2000/svg">
<g clip-path="url(#clip0_12514_9383)">
<path d="M3.09164 6.73096C2.50146 6.72987 2.00073 7.20109 2.00073 7.81128V19.5341C2.00073 20.071 2.3951 20.527 2.92801 20.6079L12.9098 22.1128V25.1817C11.4278 24.8858 10.2136 24.6458 10.1826 24.6458C9.58037 24.6458 9.09164 25.496 9.09164 26.5459C9.09164 27.5958 9.59837 28.3005 10.1826 28.446C11.5827 28.7945 14.5549 29.3661 16.5055 29.731C16.302 29.2777 16.1826 28.7462 16.1826 28.1745C16.1826 27.3043 16.4564 26.5242 16.89 25.9786C16.2213 25.844 15.3911 25.6773 14.5462 25.509V22.3598L18.7462 23.0047C18.8013 23.0129 18.8558 23.0172 18.9098 23.0172C19.5022 23.0183 20.0007 22.54 20.0007 21.9315V12.6966C20.0007 12.1624 19.6102 11.7075 19.08 11.6239L10.2496 10.2493C9.87 10.1896 9.54982 9.93501 9.40691 9.57997L8.77419 8.00617C8.63237 7.65439 8.31655 7.40087 7.94073 7.33898L3.27055 6.74616C3.21055 6.73584 3.15001 6.73096 3.09164 6.73096V6.73096Z" fill="#0A77DB"/>
<path d="M7.09164 3.73096C6.50146 3.7299 6.00073 4.19686 6.00073 4.79346V5.95158L8.53 6.23952C9.32473 6.3309 10.0038 6.83771 10.3011 7.56074L10.7936 8.76083C10.8656 8.93561 11.0276 9.06046 11.2191 9.08861L19.9606 10.3657C21.0286 10.5219 21.8189 11.4155 21.8189 12.4674V20.5806L22.7462 20.7182C22.8013 20.7267 22.8558 20.731 22.9098 20.731C23.5022 20.732 24.0007 20.264 24.0007 19.6685V9.56196C24.0007 9.03921 23.6102 8.59402 23.08 8.51221L13.8831 7.17983C13.504 7.1214 13.1833 6.87277 13.0404 6.5248L12.4076 4.98471C12.2664 4.64046 11.9506 4.39236 11.5747 4.3318L7.27055 3.74583C7.21055 3.73574 7.15001 3.73096 7.09164 3.73096Z" fill="#0A77DB" fill-opacity="0.5"/>
<path d="M25.7741 19.7185C25.8279 19.7266 25.8813 19.731 25.9341 19.731C26.5133 19.732 27.0007 19.2538 27.0007 18.6452V6.70239C27.0007 6.16822 26.6189 5.7133 26.1005 5.6297L18.1746 4.25519C17.8039 4.19547 17.4903 3.94142 17.3506 3.58584L16.7319 2.0121C16.5938 1.66033 16.285 1.40682 15.9175 1.34493L12.2423 0.746159C12.1837 0.735845 12.1245 0.730959 12.0674 0.730959C11.4903 0.729873 11.0007 1.20704 11.0007 1.81667V2.6467L11.8738 2.75093C12.6509 2.8443 13.3149 3.36219 13.6055 4.10102L14.0871 5.32733C14.1575 5.50593 14.3159 5.6335 14.5031 5.66227L23.0503 6.9673C24.0946 7.12744 24.8674 8.04053 24.8674 9.11539V19.5762L25.7741 19.7185Z" fill="#0A77DB"/>
<path d="M19.0007 29.731C19.553 29.731 20.0007 28.8355 20.0007 27.731C20.0007 26.6264 19.553 25.731 19.0007 25.731C18.4484 25.731 18.0007 26.6264 18.0007 27.731C18.0007 28.8355 18.4484 29.731 19.0007 29.731Z" fill="#0A77DB"/>
<path d="M6.00073 26.731C6.55302 26.731 7.00073 26.2832 7.00073 25.731C7.00073 25.1787 6.55302 24.731 6.00073 24.731C5.44845 24.731 5.00073 25.1787 5.00073 25.731C5.00073 26.2832 5.44845 26.731 6.00073 26.731Z" fill="#0A77DB" fill-opacity="0.5"/>
<path d="M22.0007 29.731C22.553 29.731 23.0007 29.2832 23.0007 28.731C23.0007 28.1787 22.553 27.731 22.0007 27.731C21.4484 27.731 21.0007 28.1787 21.0007 28.731C21.0007 29.2832 21.4484 29.731 22.0007 29.731Z" fill="#0A77DB" fill-opacity="0.5"/>
</g>
<defs>
<clipPath id="clip0_12514_9383">
<rect width="30" height="30" fill="white" transform="translate(-0.000488281 0.230957)"/>
</clipPath>
</defs>
</svg>
