<svg width="30" height="31" viewBox="0 0 30 31" fill="none" xmlns="http://www.w3.org/2000/svg">
<path d="M27.79 18.4978L25.4349 17.1494C25.6726 15.8778 25.6726 14.5732 25.4349 13.3015L27.79 11.9531C28.0609 11.7996 28.1825 11.4817 28.0941 11.1857C27.4804 9.23438 26.4356 7.46939 25.07 6.0004C24.86 5.77566 24.5172 5.72085 24.2518 5.87433L21.8967 7.22273C20.9072 6.37861 19.7683 5.72633 18.5355 5.29879V2.60745C18.5355 2.3005 18.3199 2.03191 18.0158 1.96614C15.9869 1.51667 13.9082 1.53859 11.9788 1.96614C11.6747 2.03191 11.4591 2.3005 11.4591 2.60745V5.30427C10.2318 5.73729 9.09297 6.38957 8.09786 7.22822L5.74829 5.87981C5.4774 5.72633 5.14016 5.77566 4.93008 6.00588C3.56457 7.46939 2.5197 9.23438 1.90605 11.1912C1.81207 11.4872 1.93922 11.8051 2.21011 11.9586L4.56521 13.307C4.32749 14.5787 4.32749 15.8832 4.56521 17.1549L2.21011 18.5033C1.93922 18.6568 1.8176 18.9747 1.90605 19.2707C2.5197 21.2221 3.56457 22.987 4.93008 24.456C5.14016 24.6808 5.48292 24.7356 5.74829 24.5821L8.10339 23.2337C9.09297 24.0778 10.2318 24.7301 11.4647 25.1576V27.8545C11.4647 28.1614 11.6803 28.43 11.9843 28.4958C14.0132 28.9452 16.0919 28.9233 18.0213 28.4958C18.3254 28.43 18.541 28.1614 18.541 27.8545V25.1576C19.7683 24.7246 20.9072 24.0723 21.9023 23.2337L24.2574 24.5821C24.5283 24.7356 24.8655 24.6863 25.0756 24.456C26.4411 22.9925 27.486 21.2275 28.0996 19.2707C28.1825 18.9692 28.0609 18.6513 27.79 18.4978ZM14.9973 19.6105C12.5593 19.6105 10.5746 17.6427 10.5746 15.2255C10.5746 12.8082 12.5593 10.8404 14.9973 10.8404C17.4353 10.8404 19.42 12.8082 19.42 15.2255C19.42 17.6427 17.4353 19.6105 14.9973 19.6105Z" fill="#0A77DB"/>
</svg>
