<svg width="42" height="42" viewBox="0 0 42 42" fill="none" xmlns="http://www.w3.org/2000/svg">
<path d="M16.2007 20.4623C19.7359 20.4623 22.601 17.5971 22.601 14.0619C22.601 10.5317 19.7359 7.6665 16.2007 7.6665C12.6654 7.6665 9.80028 10.5317 9.80028 14.0669C9.80028 17.5971 12.6654 20.4623 16.2007 20.4623ZM22.591 26.0226V22.3674C21.981 22.1874 21.346 22.0573 20.6809 22.0573H19.8459C18.7358 22.5674 17.5007 22.8574 16.2007 22.8574C14.9006 22.8574 13.6705 22.5674 12.5554 22.0573H11.7204C8.01018 22.0623 5 25.0725 5 28.7827V30.8629C5 32.1879 6.07506 33.263 7.40014 33.263H25.0012C25.7762 33.263 26.4563 32.888 26.8963 32.3179L23.9961 29.4178C23.0911 28.5127 22.591 27.3077 22.591 26.0226Z" fill="white"/>
<path opacity="0.6" d="M36.3457 26.4453L31.8305 21.9351C31.2304 21.335 30.4154 21 29.5653 21H25.6001C24.715 21 24 21.715 24 22.6001V26.5603C24 27.4104 24.335 28.2204 24.9351 28.8205L29.4503 33.3307C30.0754 33.9558 31.0904 33.9558 31.7155 33.3307L36.3407 28.7055C36.9708 28.0804 36.9708 27.0704 36.3457 26.4453ZM27.2052 25.3953C26.5401 25.3953 26.0051 24.8602 26.0051 24.1952C26.0051 23.5301 26.5401 22.9951 27.2052 22.9951C27.8702 22.9951 28.4053 23.5301 28.4053 24.1952C28.4053 24.8552 27.8702 25.3953 27.2052 25.3953Z" fill="white"/>
</svg>
