<svg width="50" height="51" viewBox="0 0 50 51" fill="none" xmlns="http://www.w3.org/2000/svg">
<g clip-path="url(#clip0_10621_91262)">
<path d="M31.2422 19.4734L24.9922 8.53174L18.7422 19.4692V23.0817H31.2422V19.4734Z" fill="#0A77DB"/>
<path d="M8.32552 23.0823H14.5755V18.9157C14.5755 18.5532 14.6693 18.1969 14.8505 17.8823L21.3151 6.56982L7.07552 17.249C6.55052 17.6407 6.24219 18.2594 6.24219 18.9157V20.999C6.24219 22.149 7.17552 23.0823 8.32552 23.0823Z" fill="#0A77DB"/>
<path d="M35.4076 18.9198V23.0823H41.6575C42.8075 23.0823 43.7409 22.149 43.7409 20.999V18.9157C43.7409 18.2615 43.4326 17.6427 42.9076 17.249L28.668 6.56982L35.1326 17.8865C35.3138 18.2011 35.4076 18.5573 35.4076 18.9198Z" fill="#0A77DB"/>
<path d="M27.0729 25.165H22.9062V45.9984H27.0729V25.165Z" fill="#0A77DB"/>
<path d="M41.7214 30.9102L40.0318 37.6664H33.3255C32.1755 37.6664 31.2422 38.5997 31.2422 39.7497V45.9997H35.4089V41.8331H39.5755V45.9997H43.7422V40.006L45.763 31.9227L41.7214 30.9102Z" fill="#0A77DB" fill-opacity="0.5"/>
<path d="M16.6602 37.6664H9.95391L8.26432 30.9102L4.22266 31.9227L6.24349 40.006V45.9997H10.4102V41.8331H14.5768V45.9997H18.7435V39.7497C18.7435 38.5997 17.8102 37.6664 16.6602 37.6664Z" fill="#0A77DB" fill-opacity="0.5"/>
</g>
<defs>
<clipPath id="clip0_10621_91262">
<rect width="50" height="50" fill="white" transform="translate(0 0.166016)"/>
</clipPath>
</defs>
</svg>
