<svg width="50" height="51" viewBox="0 0 50 51" fill="none" xmlns="http://www.w3.org/2000/svg">
<g clip-path="url(#clip0_10621_91237)">
<path d="M43.7487 6.4152H39.582V2.24854H35.4154V12.6652H31.2487V6.4152H18.7487V2.24854H14.582V12.6652H10.4154V6.4152H6.2487C3.95078 6.4152 2.08203 8.28603 2.08203 10.5819V41.8319C2.08203 44.1298 3.95078 45.9985 6.2487 45.9985H43.7487C46.0466 45.9985 47.9154 44.1298 47.9154 41.8319V10.5819C47.9154 8.28603 46.0466 6.4152 43.7487 6.4152ZM16.6654 39.7485H8.33203V31.4152H16.6654V39.7485ZM16.6654 27.2485H8.33203V18.9152H16.6654V27.2485ZM29.1654 39.7485H20.832V31.4152H29.1654V39.7485ZM29.1654 27.2485H20.832V18.9152H29.1654V27.2485ZM41.6654 27.2485H33.332V18.9152H41.6654V27.2485Z" fill="#0A77DB"/>
</g>
<defs>
<clipPath id="clip0_10621_91237">
<rect width="50" height="50" fill="white" transform="translate(0 0.166016)"/>
</clipPath>
</defs>
</svg>
