<svg width="50" height="51" viewBox="0 0 50 51" fill="none" xmlns="http://www.w3.org/2000/svg">
<g clip-path="url(#clip0_10621_91254)">
<path d="M41.668 12.6655V10.5822H37.5013V12.6655H33.3346V8.49886C33.3346 7.34886 32.4013 6.41553 31.2513 6.41553H18.7513C17.6013 6.41553 16.668 7.34886 16.668 8.49886V12.6655H12.5013V10.5822H8.33464V12.6655C6.03672 12.6655 4.16797 14.5343 4.16797 16.8322V41.8322C4.16797 44.1322 6.03672 45.9989 8.33464 45.9989H41.668C43.9659 45.9989 45.8346 44.1322 45.8346 41.8322V16.8322C45.8346 14.5343 43.9659 12.6655 41.668 12.6655ZM20.8346 10.5822H29.168V12.6655H20.8346V10.5822ZM31.2513 25.1655H23.9596C23.3846 25.1655 22.918 25.6343 22.918 26.2072C22.918 26.7822 23.3846 27.2489 23.9596 27.2489H26.043C28.9138 27.2489 31.2513 29.5864 31.2513 32.4572C31.2513 34.9739 29.4596 37.078 27.0846 37.5614V39.7489H22.918V37.6655H18.7513V33.4989H26.043C26.618 33.4989 27.0846 33.0322 27.0846 32.4572C27.0846 31.8843 26.618 31.4155 26.043 31.4155H23.9596C21.0867 31.4155 18.7513 29.078 18.7513 26.2072C18.7513 23.6926 20.543 21.5884 22.918 21.1051V18.9155H27.0846V20.9989H31.2513V25.1655Z" fill="#0A77DB"/>
</g>
<defs>
<clipPath id="clip0_10621_91254">
<rect width="50" height="50" fill="white" transform="translate(0 0.166016)"/>
</clipPath>
</defs>
</svg>
