<svg width="50" height="51" viewBox="0 0 50 51" fill="none" xmlns="http://www.w3.org/2000/svg">
<g clip-path="url(#clip0_10621_91222)">
<path d="M10.1659 10.2753L6.98047 7.58991C10.9534 2.87116 16.7659 0.166992 22.9242 0.166992C29.07 0.166992 34.87 2.86074 38.8409 7.55657L35.6596 10.2462C32.4805 6.48991 27.8409 4.33366 22.9242 4.33366C17.9971 4.33366 13.3471 6.50032 10.1659 10.2753Z" fill="#0A77DB" fill-opacity="0.5"/>
<path d="M29.5927 16.0056C28.001 13.8848 25.5698 12.6681 22.9219 12.6681C20.276 12.6681 17.8448 13.8827 16.2552 16.0056L12.9219 13.5015C15.2719 10.3702 19.0094 8.50146 22.9219 8.50146C26.8948 8.50146 30.5406 10.3244 32.926 13.5056L29.5927 16.0056Z" fill="#0A77DB" fill-opacity="0.5"/>
<path d="M33.3148 42.701L26.2023 35.5885L30.8211 30.9698L33.3148 32.2177V22.9469C33.2398 20.7156 31.4128 18.9219 29.1628 18.9219H16.6628C14.3648 18.9219 12.4961 20.7906 12.4961 23.0885V43.9219C12.4961 46.2198 14.3648 48.0885 16.6628 48.0885H29.1628C31.4128 48.0885 33.2398 46.2948 33.3148 44.0615V42.701ZM22.8982 40.276C21.4607 40.276 20.294 39.1094 20.294 37.6719C20.294 36.2344 21.4607 35.0677 22.8982 35.0677C24.3357 35.0677 25.5023 36.2344 25.5023 37.6719C25.5023 39.1094 24.3378 40.276 22.8982 40.276ZM22.8982 31.9427C21.4607 31.9427 20.294 30.776 20.294 29.3385C20.294 27.901 21.4607 26.7344 22.8982 26.7344C24.3357 26.7344 25.5023 27.901 25.5023 29.3385C25.5023 30.776 24.3378 31.9427 22.8982 31.9427Z" fill="#0A77DB"/>
<path d="M35.3984 23.0879L41.6484 29.3379V39.7546L45.8151 50.1712H35.3984V41.8379L29.1484 35.5879L31.2318 33.5046L35.3984 35.5879V23.0879Z" fill="#0A77DB" fill-opacity="0.5"/>
</g>
<defs>
<clipPath id="clip0_10621_91222">
<rect width="50" height="50" fill="white" transform="translate(0 0.166016)"/>
</clipPath>
</defs>
</svg>
