<svg width="56" height="52" viewBox="0 0 56 52" fill="none" xmlns="http://www.w3.org/2000/svg">
<mask id="mask0_10621_91306" style="mask-type:luminance" maskUnits="userSpaceOnUse" x="0" y="0" width="56" height="52">
<rect width="50" height="52" transform="matrix(1 0 0.102441 0.994739 0 0.166016)" fill="white"/>
</mask>
<g mask="url(#mask0_10621_91306)">
<path d="M29.4132 9.43369C29.1236 8.44226 28.194 7.70947 27.194 7.70947L12.2357 7.70947C11.0898 7.70947 10.2522 8.67934 10.3743 9.86474L13.7036 42.1938C13.8257 43.3792 14.8631 44.349 16.0089 44.349C17.1548 44.349 17.9924 43.3792 17.8703 42.1938L16.5386 29.2622H28.2052L28.9716 31.8485C29.2634 32.8614 30.1908 33.5727 31.1908 33.5727H41.9825C43.1283 33.5727 43.9659 32.6028 43.8439 31.4174L42.0682 14.1753C41.9461 12.9899 40.9088 12.02 39.7629 12.02L30.1796 12.02L29.4132 9.43369Z" fill="#0A77DB"/>
</g>
</svg>
