<svg width="50" height="51" viewBox="0 0 50 51" fill="none" xmlns="http://www.w3.org/2000/svg">
<g clip-path="url(#clip0_10621_91287)">
<path d="M18.75 31.4175L25 18.9175L31.25 31.4175L25 27.2508L18.75 31.4175Z" fill="#0A77DB" fill-opacity="0.5"/>
<path d="M33.9945 11.1503L31.2487 0.166992H18.7487L16.0029 11.1503C11.3924 14.1149 8.33203 19.2795 8.33203 25.167C8.33203 31.0566 11.3924 36.2191 16.0029 39.1837L18.7487 50.167H31.2487L33.9945 39.1837C38.6049 36.2191 41.6654 31.0566 41.6654 25.167C41.6654 19.2795 38.6049 14.1149 33.9945 11.1503ZM24.9987 37.667C18.0966 37.667 12.4987 32.0691 12.4987 25.167C12.4987 18.2649 18.0966 12.667 24.9987 12.667C31.9008 12.667 37.4987 18.2649 37.4987 25.167C37.4987 32.0691 31.9008 37.667 24.9987 37.667Z" fill="#0A77DB"/>
</g>
<defs>
<clipPath id="clip0_10621_91287">
<rect width="50" height="50" fill="white" transform="translate(0 0.166016)"/>
</clipPath>
</defs>
</svg>
