<svg width="50" height="51" viewBox="0 0 50 51" fill="none" xmlns="http://www.w3.org/2000/svg">
<g clip-path="url(#clip0_10621_91326)">
<path d="M22.9154 21.4751H14.582V29.8084H22.9154V21.4751Z" fill="#0A77DB"/>
<path d="M10.4167 21.4751H0.420833C0.145833 22.8209 0 24.2147 0 25.6418C0 27.0709 0.145833 28.4626 0.420833 29.8084H10.4167V21.4751Z" fill="#0A77DB"/>
<path d="M14.582 17.3086H22.9154V4.80859H20.832C18.655 4.80859 16.557 5.14818 14.582 5.76901V17.3086Z" fill="#0A77DB"/>
<path d="M14.582 33.9751V45.5168C16.557 46.1376 18.655 46.4751 20.832 46.4751H22.9154V33.9751H14.582Z" fill="#0A77DB"/>
<path d="M10.4146 17.3102V7.62891C6.59375 9.84766 3.53542 13.2352 1.75 17.3102H10.4146Z" fill="#0A77DB"/>
<path d="M10.4146 33.9751H1.75C3.53542 38.0522 6.59375 41.4376 10.4146 43.6543V33.9751Z" fill="#0A77DB"/>
<path d="M35.418 17.3081C38.8697 17.3081 41.668 14.5099 41.668 11.0581C41.668 7.60633 38.8697 4.80811 35.418 4.80811C31.9662 4.80811 29.168 7.60633 29.168 11.0581C29.168 14.5099 31.9662 17.3081 35.418 17.3081Z" fill="#0A77DB" fill-opacity="0.5"/>
<path d="M35.4167 17.3081C29.6729 17.3081 25 21.981 25 27.7248V33.9748C25 35.1248 25.9333 36.0581 27.0833 36.0581H29.1667V44.3914C29.1667 45.5414 30.1 46.4748 31.25 46.4748H39.5833C40.7333 46.4748 41.6667 45.5414 41.6667 44.3914V36.0581H43.75C44.9 36.0581 45.8333 35.1248 45.8333 33.9748V27.7248C45.8333 21.981 41.1604 17.3081 35.4167 17.3081Z" fill="#0A77DB" fill-opacity="0.5"/>
</g>
<defs>
<clipPath id="clip0_10621_91326">
<rect width="50" height="50" fill="white" transform="translate(0 0.641113)"/>
</clipPath>
</defs>
</svg>
