<svg width="50" height="51" viewBox="0 0 50 51" fill="none" xmlns="http://www.w3.org/2000/svg">
<g clip-path="url(#clip0_10621_91276)">
<path d="M35.4245 46.0106C37.7257 46.0106 39.5912 44.1451 39.5912 41.8439C39.5912 39.5427 37.7257 37.6772 35.4245 37.6772C33.1233 37.6772 31.2578 39.5427 31.2578 41.8439C31.2578 44.1451 33.1233 46.0106 35.4245 46.0106Z" fill="#0A77DB" fill-opacity="0.5"/>
<path d="M16.6745 46.0106C18.9757 46.0106 20.8412 44.1451 20.8412 41.8439C20.8412 39.5427 18.9757 37.6772 16.6745 37.6772C14.3733 37.6772 12.5078 39.5427 12.5078 41.8439C12.5078 44.1451 14.3733 46.0106 16.6745 46.0106Z" fill="#0A77DB" fill-opacity="0.5"/>
<path d="M41.5953 21.5008C38.9807 17.4133 34.4182 14.7612 29.3099 14.7612C29.287 14.7612 29.2661 14.7654 29.2432 14.7654C29.2203 14.7654 29.1974 14.7612 29.1745 14.7612C20.7974 14.7612 13.8828 20.9508 12.7057 29.0008L12.5078 29.3446H10.4245C8.12448 29.3446 6.25781 31.2112 6.25781 33.5112V39.7612C6.25781 40.9112 7.19115 41.8446 8.34115 41.8446H10.4245C10.4245 38.3946 13.2245 35.5946 16.6745 35.5946C20.1245 35.5946 22.9245 38.3946 22.9245 41.8446H29.1745C29.1745 38.3946 31.9745 35.5946 35.4245 35.5946C38.8745 35.5946 41.6745 38.3946 41.6745 41.8446H43.7578C44.9078 41.8446 45.8411 40.9112 45.8411 39.7612V33.5112C45.8391 29.2508 44.2266 24.9279 41.5953 21.5008ZM16.8599 29.3446C17.8557 23.4341 22.9807 18.9279 29.1724 18.9279C35.3641 18.9279 40.4911 23.4341 41.4849 29.3446H16.8599Z" fill="#0A77DB"/>
</g>
<defs>
<clipPath id="clip0_10621_91276">
<rect width="50" height="50" fill="white" transform="translate(0 0.166016)"/>
</clipPath>
</defs>
</svg>
