<svg width="54" height="54" viewBox="0 0 54 54" fill="none" xmlns="http://www.w3.org/2000/svg">
<rect x="1.5" y="1.5" width="50.0222" height="50.0222" rx="11.5" fill="#C7762F" stroke="white" stroke-width="3"/>
<path d="M19.6172 15.3086V18.6172H16.3086H13V29.3086V40H23.7188H34.4375V33.2406V26.4812L34.1258 26.7656C31.632 28.9914 30.4562 29.8828 29.1602 30.5172C28.225 30.9711 27.4539 31.1297 26.7539 31.0094L26.5352 30.9711L25.7695 31.7422L25.0039 32.5078L24.4187 31.9227L23.8281 31.332L24.5719 30.5883L25.3156 29.8445L25.2555 29.6313C24.8781 28.2695 26.207 25.9289 29.3352 22.4617C30.1008 21.6086 33.2289 18.4914 33.907 17.9062L34.4375 17.4469V14.7234V12H27.0273H19.6172V15.3086ZM24.5938 21.0781V21.8984H20.4648H16.3359V21.0781V20.2578H20.4648H24.5938V21.0781ZM21.2578 24.3594V25.1797H18.7969H16.3359V24.3594V23.5391H18.7969H21.2578V24.3594ZM21.2578 27.6406V28.4609H18.7969H16.3359V27.6406V26.8203H18.7969H21.2578V27.6406ZM19.5406 31.9227C20.0602 32.1852 20.3773 32.732 20.5687 33.7109L20.6836 34.307L20.9078 34.0227C21.0391 33.8531 21.2469 33.6727 21.4273 33.5742C21.6789 33.432 21.7773 33.4102 22.1328 33.4102C22.6906 33.4102 23.0625 33.5906 23.582 34.1211C23.9703 34.5094 24.5172 35.3516 24.468 35.4773C24.4461 35.5375 23.057 36.1938 23.0352 36.1555C23.0297 36.15 22.9477 36.0078 22.8438 35.8438C22.6469 35.5102 22.3078 35.0781 22.2477 35.0781C22.2258 35.0781 22.1273 35.2531 22.0234 35.4664C21.6352 36.2922 21.1758 36.6641 20.5414 36.6641C20.3063 36.6641 20.1586 36.6258 19.9398 36.5109C19.4422 36.2539 19.2289 35.7836 19.043 34.5258C18.9391 33.8094 18.8133 33.3664 18.7258 33.3992C18.518 33.4648 18.1953 34.3781 18.0477 35.2969L17.9547 35.9039L17.5555 35.8766C17.3367 35.8602 16.9703 35.8273 16.7406 35.8109L16.3305 35.7781L16.3633 35.4719C16.5602 33.7984 17.0797 32.557 17.7797 32.0758C18.3156 31.7039 18.9992 31.6438 19.5406 31.9227Z" fill="white"/>
<path d="M15.707 14.7344L13.4648 16.9766H15.7234H17.9766V14.7344C17.9766 13.4984 17.9711 12.4922 17.9602 12.4922C17.9547 12.4922 16.9375 13.4984 15.707 14.7344Z" fill="white"/>
<path opacity="0.4" d="M40.1793 15.4109C38.8777 15.8922 36.2363 17.8937 33.9012 20.1633L33.3926 20.6609L34.5355 21.7984L35.673 22.9414L36.1707 22.4328C38.7082 19.8242 40.8629 16.8766 40.9832 15.8484C41.0105 15.6078 40.9941 15.5477 40.8957 15.4492C40.7645 15.318 40.4801 15.3016 40.1793 15.4109Z" fill="white"/>
<path opacity="0.4" d="M31.4897 22.582C28.4382 25.9016 26.8905 28.0453 26.8796 28.9914C26.8741 29.3195 26.9999 29.4453 27.3335 29.4453C27.4811 29.4453 27.7327 29.3961 27.8968 29.3359C28.9741 28.9313 31.6483 26.8531 34.0491 24.5617L34.503 24.1242L33.3655 22.9867C32.7366 22.3578 32.2116 21.8438 32.1952 21.8438C32.1788 21.8492 31.8616 22.1773 31.4897 22.582Z" fill="white"/>
</svg>
