<svg width="30" height="31" viewBox="0 0 30 31" fill="none" xmlns="http://www.w3.org/2000/svg">
<path d="M6.42803 19.5161H2.14235C0.958893 19.5161 -0.000488281 20.4755 -0.000488281 21.659V28.0875C-0.000488281 29.2709 0.958893 30.2303 2.14235 30.2303H6.42803C7.61148 30.2303 8.57086 29.2709 8.57086 28.0875V21.659C8.57086 20.4755 7.61148 19.5161 6.42803 19.5161Z" fill="#0A77DB"/>
<path d="M17.1423 10.9453H12.8567C11.6732 10.9453 10.7138 11.9047 10.7138 13.0882V28.088C10.7138 29.2715 11.6732 30.2309 12.8567 30.2309H17.1423C18.3258 30.2309 19.2852 29.2715 19.2852 28.088V13.0882C19.2852 11.9047 18.3258 10.9453 17.1423 10.9453Z" fill="#0A77DB" fill-opacity="0.5"/>
<path d="M27.8564 0.230957H23.5707C22.3873 0.230957 21.4279 1.19034 21.4279 2.3738V28.0879C21.4279 29.2713 22.3873 30.2307 23.5707 30.2307H27.8564C29.0399 30.2307 29.9992 29.2713 29.9992 28.0879V2.3738C29.9992 1.19034 29.0399 0.230957 27.8564 0.230957Z" fill="#0A77DB"/>
</svg>
