<svg width="32" height="32" viewBox="0 0 32 32" fill="none" xmlns="http://www.w3.org/2000/svg">
<path opacity="0.6" d="M3.2002 6.93353V4.8002C3.2002 3.91646 3.91646 3.2002 4.8002 3.2002C5.6834 3.2002 6.4002 3.91646 6.4002 4.8002V6.93353H3.2002Z" fill="white"/>
<path d="M27.199 19.7332H15.0604L13.4022 17.2463C13.1052 16.8009 12.6054 16.5332 12.07 16.5332H4.80116C3.75315 16.5332 2.98835 17.5231 3.25289 18.5375L5.61822 27.6041C5.80222 28.3081 6.43796 28.7999 7.16649 28.7999H25.1286C25.8065 28.7999 26.4113 28.3721 26.6369 27.7321L28.7078 21.8655C29.0753 20.8249 28.3025 19.7332 27.199 19.7332Z" fill="white"/>
<path opacity="0.6" d="M24.5332 10.6665H25.5999C26.4831 10.6665 27.1999 11.3828 27.1999 12.2665V18.1332H24.5332" fill="white"/>
<path opacity="0.6" d="M6.40007 14.9332H3.7334V12.2665C3.7334 11.3828 4.44967 10.6665 5.3334 10.6665H6.40007V14.9332Z" fill="white"/>
<path d="M20.2666 3.2002H6.91992C7.25806 3.64713 7.46659 4.19753 7.46659 4.8002V14.9335H12.0698C13.1418 14.9335 14.1375 15.4658 14.7333 16.3581L15.9167 18.1335H23.4666V6.4002C23.4666 4.63326 22.0335 3.2002 20.2666 3.2002ZM11.1999 5.86686H16.5333C17.1221 5.86686 17.5999 6.34473 17.5999 6.93353C17.5999 7.52233 17.1221 8.0002 16.5333 8.0002H11.1999C10.6111 8.0002 10.1333 7.52233 10.1333 6.93353C10.1333 6.34473 10.6111 5.86686 11.1999 5.86686ZM19.7333 12.2669H11.1999C10.6111 12.2669 10.1333 11.789 10.1333 11.2002C10.1333 10.6114 10.6111 10.1335 11.1999 10.1335H19.7333C20.3221 10.1335 20.7999 10.6114 20.7999 11.2002C20.7999 11.789 20.3221 12.2669 19.7333 12.2669Z" fill="white"/>
</svg>
