<svg width="30" height="31" viewBox="0 0 30 31" fill="none" xmlns="http://www.w3.org/2000/svg">
<g clip-path="url(#clip0_12474_27237)">
<path d="M28.9576 10.6475H6.79093C6.23852 10.6475 5.77827 11.0325 5.65752 11.5481L2.15635 26.72C2.13652 26.804 2.12427 26.891 2.12427 26.9808C2.12427 27.6248 2.64693 28.1475 3.29093 28.1475H8.91018C14.0005 28.1475 8.91018 28.1475 14.0005 28.1475C19.8384 28.1475 14.0005 28.1475 19.8384 28.1475H25.4576C26.01 28.1475 26.4703 27.7625 26.591 27.2468L30.0922 12.0749C30.112 11.9909 30.1243 11.904 30.1243 11.8141C30.1243 11.1701 29.6016 10.6475 28.9576 10.6475Z" fill="#0A77DB"/>
<g clip-path="url(#clip1_12474_27237)">
<path fill-rule="evenodd" clip-rule="evenodd" d="M21.9999 19.731C21.9999 21.3223 21.3677 22.8484 20.2425 23.9736C19.1173 25.0988 17.5912 25.731 15.9999 25.731C14.4086 25.731 12.8825 25.0988 11.7572 23.9736C10.632 22.8484 9.99988 21.3223 9.99988 19.731C9.99988 18.1397 10.632 16.6135 11.7572 15.4883C12.8825 14.3631 14.4086 13.731 15.9999 13.731C17.5912 13.731 19.1173 14.3631 20.2425 15.4883C21.3677 16.6135 21.9999 18.1397 21.9999 19.731ZM19.0224 17.4585C18.9688 17.4051 18.905 17.363 18.8348 17.3349C18.7646 17.3067 18.6895 17.293 18.6139 17.2945C18.5383 17.2961 18.4637 17.3128 18.3947 17.3438C18.3258 17.3748 18.2637 17.4194 18.2124 17.475L15.6076 20.7937L14.0379 19.2232C13.9312 19.1238 13.7902 19.0698 13.6445 19.0723C13.4988 19.0749 13.3597 19.1339 13.2567 19.237C13.1536 19.3401 13.0946 19.4791 13.092 19.6248C13.0894 19.7705 13.1435 19.9116 13.2429 20.0182L15.2274 22.0035C15.2808 22.0568 15.3445 22.0989 15.4146 22.1271C15.4846 22.1553 15.5597 22.1692 15.6352 22.1678C15.7107 22.1664 15.7852 22.1498 15.8542 22.1189C15.9231 22.0881 15.9852 22.0438 16.0366 21.9885L19.0306 18.246C19.1327 18.1398 19.1891 17.9979 19.1877 17.8507C19.1863 17.7034 19.1272 17.5626 19.0231 17.4585H19.0224Z" fill="white" fill-opacity="0.9"/>
</g>
<path d="M6.79095 8.89762H27.791V3.06429C27.791 1.77571 26.7462 0.730957 25.4576 0.730957H18.6449C17.8072 0.730957 17.0343 1.18012 16.6184 1.90696L14.9576 4.81429H2.12429C0.835704 4.81429 -0.209045 5.85904 -0.209045 7.14762V24.7223C-0.209045 25.0029 0.019038 25.231 0.300205 25.231C0.537038 25.231 0.742371 25.0694 0.796038 24.8378C1.68329 20.9802 3.96995 11.1055 3.97754 11.0787C4.31587 9.78954 5.45804 8.89762 6.79095 8.89762Z" fill="#0A77DB" fill-opacity="0.5"/>
</g>
<defs>
<clipPath id="clip0_12474_27237">
<rect width="30" height="30" fill="white" transform="translate(-0.000732422 0.230957)"/>
</clipPath>
<clipPath id="clip1_12474_27237">
<rect width="12" height="12" fill="white" transform="translate(9.99988 13.731)"/>
</clipPath>
</defs>
</svg>
