<svg width="180" height="112" viewBox="0 0 180 112" fill="none" xmlns="http://www.w3.org/2000/svg">
<rect width="180" height="112" fill="white"/>
<path fill-rule="evenodd" clip-rule="evenodd" d="M78 33.5H75C73.4087 33.5 71.8826 34.1321 70.7574 35.2574C69.6321 36.3826 69 37.9087 69 39.5V71C69 72.5913 69.6321 74.1174 70.7574 75.2426C71.8826 76.3679 73.4087 77 75 77H105C106.591 77 108.117 76.3679 109.243 75.2426C110.368 74.1174 111 72.5913 111 71V39.5C111 37.9087 110.368 36.3826 109.243 35.2574C108.117 34.1321 106.591 33.5 105 33.5H102V36.5H105C105.796 36.5 106.559 36.8161 107.121 37.3787C107.684 37.9413 108 38.7044 108 39.5V71C108 71.7956 107.684 72.5587 107.121 73.1213C106.559 73.6839 105.796 74 105 74H75C74.2044 74 73.4413 73.6839 72.8787 73.1213C72.3161 72.5587 72 71.7956 72 71V39.5C72 38.7044 72.3161 37.9413 72.8787 37.3787C73.4413 36.8161 74.2044 36.5 75 36.5H78V33.5Z" fill="url(#paint0_linear_116_373)"/>
<path fill-rule="evenodd" clip-rule="evenodd" d="M94.5 32H85.5C85.1022 32 84.7206 32.158 84.4393 32.4393C84.158 32.7206 84 33.1022 84 33.5V36.5C84 36.8978 84.158 37.2794 84.4393 37.5607C84.7206 37.842 85.1022 38 85.5 38H94.5C94.8978 38 95.2794 37.842 95.5607 37.5607C95.842 37.2794 96 36.8978 96 36.5V33.5C96 33.1022 95.842 32.7206 95.5607 32.4393C95.2794 32.158 94.8978 32 94.5 32V32ZM85.5 29C84.3065 29 83.1619 29.4741 82.318 30.318C81.4741 31.1619 81 32.3065 81 33.5V36.5C81 37.6935 81.4741 38.8381 82.318 39.682C83.1619 40.5259 84.3065 41 85.5 41H94.5C95.6935 41 96.8381 40.5259 97.682 39.682C98.5259 38.8381 99 37.6935 99 36.5V33.5C99 32.3065 98.5259 31.1619 97.682 30.318C96.8381 29.4741 95.6935 29 94.5 29H85.5ZM90 50C90.3978 50 90.7794 50.158 91.0607 50.4393C91.342 50.7206 91.5 51.1022 91.5 51.5V56H96C96.3978 56 96.7794 56.158 97.0607 56.4393C97.342 56.7206 97.5 57.1022 97.5 57.5C97.5 57.8978 97.342 58.2794 97.0607 58.5607C96.7794 58.842 96.3978 59 96 59H91.5V63.5C91.5 63.8978 91.342 64.2794 91.0607 64.5607C90.7794 64.842 90.3978 65 90 65C89.6022 65 89.2206 64.842 88.9393 64.5607C88.658 64.2794 88.5 63.8978 88.5 63.5V59H84C83.6022 59 83.2206 58.842 82.9393 58.5607C82.658 58.2794 82.5 57.8978 82.5 57.5C82.5 57.1022 82.658 56.7206 82.9393 56.4393C83.2206 56.158 83.6022 56 84 56H88.5V51.5C88.5 51.1022 88.658 50.7206 88.9393 50.4393C89.2206 50.158 89.6022 50 90 50V50Z" fill="url(#paint1_linear_116_373)"/>
<defs>
<linearGradient id="paint0_linear_116_373" x1="72.024" y1="34.0796" x2="118.522" y2="45.3927" gradientUnits="userSpaceOnUse">
<stop stop-color="#006FED"/>
<stop offset="0.1875" stop-color="#0077FF"/>
<stop offset="1" stop-color="#00F0FF"/>
</linearGradient>
<linearGradient id="paint1_linear_116_373" x1="82.296" y1="29.4797" x2="103.074" y2="32.0976" gradientUnits="userSpaceOnUse">
<stop stop-color="#006FED"/>
<stop offset="0.1875" stop-color="#0077FF"/>
<stop offset="1" stop-color="#00F0FF"/>
</linearGradient>
</defs>
</svg>
