<svg width="105" height="76" viewBox="0 0 105 76" fill="none" xmlns="http://www.w3.org/2000/svg">
<path d="M104.9 68.6882H0V68.7407H104.9V68.6882Z" fill="#EBEBEB"/>
<path d="M94.3886 70.6855H75.3179V70.738H94.3886V70.6855Z" fill="#EBEBEB"/>
<path d="M69.4897 70.1169H64.2678V70.1694H69.4897V70.1169Z" fill="#EBEBEB"/>
<path d="M81.4251 72.6346H73.329V72.687H81.4251V72.6346Z" fill="#EBEBEB"/>
<path d="M15.7558 72.2821H11.006V72.3346H15.7558V72.2821Z" fill="#EBEBEB"/>
<path d="M23.2647 72.2821H17.6232V72.3346H23.2647V72.2821Z" fill="#EBEBEB"/>
<path d="M47.2363 71.3967H37.4093V71.4492H47.2363V71.3967Z" fill="#EBEBEB"/>
<path d="M49.7225 59.3312H9.21233C8.89498 59.3306 8.59082 59.2042 8.36661 58.9796C8.1424 58.755 8.01648 58.4506 8.01648 58.1332V1.18746C8.01924 0.87193 8.14639 0.57023 8.37029 0.347893C8.5942 0.125556 8.89679 0.000540524 9.21233 0H49.7225C50.0402 0 50.3449 0.126213 50.5695 0.350872C50.7942 0.575532 50.9204 0.880236 50.9204 1.19795V58.1332C50.9204 58.451 50.7942 58.7557 50.5695 58.9803C50.3449 59.205 50.0402 59.3312 49.7225 59.3312ZM9.21233 0.04196C8.90889 0.0425157 8.61807 0.163447 8.4037 0.378211C8.18933 0.592974 8.06893 0.88402 8.06893 1.18746V58.1332C8.06893 58.4367 8.18933 58.7277 8.4037 58.9425C8.61807 59.1573 8.90889 59.2782 9.21233 59.2787H49.7225C50.0261 59.2782 50.3171 59.1573 50.5318 58.9426C50.7465 58.7279 50.8674 58.4369 50.868 58.1332V1.18746C50.8674 0.883827 50.7465 0.592786 50.5318 0.378082C50.3171 0.163379 50.0261 0.0425146 49.7225 0.04196H9.21233Z" fill="#EBEBEB"/>
<path d="M95.1041 59.3312H54.5919C54.2743 59.3306 53.9699 59.2043 53.7454 58.9797C53.5209 58.7552 53.3945 58.4508 53.3939 58.1332V1.18746C53.3972 0.871739 53.5248 0.57004 53.7491 0.347762C53.9733 0.125483 54.2761 0.000534629 54.5919 0H95.1041C95.4193 0.0010919 95.7213 0.126351 95.9448 0.348629C96.1682 0.570907 96.2951 0.872293 96.2978 1.18746V58.1332C96.2979 58.4502 96.1722 58.7543 95.9485 58.9788C95.7247 59.2034 95.4211 59.3301 95.1041 59.3312ZM54.5919 0.04196C54.2882 0.0425146 53.9972 0.163379 53.7825 0.378082C53.5678 0.592786 53.4469 0.883827 53.4464 1.18746V58.1332C53.4469 58.4369 53.5678 58.7279 53.7825 58.9426C53.9972 59.1573 54.2882 59.2782 54.5919 59.2787H95.1041C95.4077 59.2782 95.6988 59.1573 95.9135 58.9426C96.1282 58.7279 96.249 58.4369 96.2496 58.1332V1.18746C96.249 0.883827 96.1282 0.592786 95.9135 0.378082C95.6988 0.163379 95.4077 0.0425146 95.1041 0.04196H54.5919Z" fill="#EBEBEB"/>
<path d="M11.0041 68.6862H36.0876L36.0876 13.2132H11.0041L11.0041 68.6862Z" fill="#F0F0F0"/>
<path d="M11.0061 68.6862H34.9001L34.9001 13.2132H11.0061L11.0061 68.6862Z" fill="#F5F5F5"/>
<path d="M33.6414 67.4295V14.4741L12.2649 14.4741L12.2649 67.4295H33.6414Z" fill="#F0F0F0"/>
<path d="M19.1715 39.4422H14.8139C14.6656 39.4417 14.5234 39.3825 14.4185 39.2775C14.3135 39.1726 14.2543 39.0305 14.2538 38.8821C14.2543 38.7337 14.3135 38.5915 14.4185 38.4866C14.5234 38.3816 14.6656 38.3225 14.8139 38.3219H19.1715C19.3199 38.3225 19.462 38.3816 19.567 38.4866C19.6719 38.5915 19.7311 38.7337 19.7316 38.8821C19.7311 39.0305 19.6719 39.1726 19.567 39.2775C19.462 39.3825 19.3199 39.4417 19.1715 39.4422Z" fill="white"/>
<path d="M12.5922 67.4295L12.5922 14.4741H12.2649L12.2649 67.4295H12.5922Z" fill="#F0F0F0"/>
<path d="M47.8405 67.6351H51.575V51.4386H47.8405V67.6351Z" fill="#F0F0F0"/>
<path d="M32.4413 68.6631H50.8574V67.6372H32.4413V68.6631Z" fill="#F0F0F0"/>
<path d="M47.8405 51.4407H31.7238V67.6372H47.8405V51.4407Z" fill="#F5F5F5"/>
<path d="M46.3698 53.4338H33.1902V58.7459H46.3698V53.4338Z" fill="#F0F0F0"/>
<path d="M46.3698 60.3298H33.1902V65.642H46.3698V60.3298Z" fill="#F0F0F0"/>
<path d="M38.3009 53.8806H41.2612C41.3573 53.88 41.4493 53.8416 41.5172 53.7737C41.5852 53.7057 41.6236 53.6137 41.6242 53.5176C41.6242 53.4212 41.586 53.3286 41.518 53.2602C41.45 53.1918 41.3577 53.1531 41.2612 53.1526H38.3009C38.2045 53.1531 38.1122 53.1918 38.0442 53.2602C37.9762 53.3286 37.938 53.4212 37.938 53.5176C37.9385 53.6137 37.977 53.7057 38.0449 53.7737C38.1128 53.8416 38.2048 53.88 38.3009 53.8806Z" fill="#F5F5F5"/>
<path d="M38.3009 60.7788H41.2612C41.3562 60.7783 41.4473 60.7407 41.5151 60.6742C41.5828 60.6076 41.622 60.5172 41.6242 60.4222C41.6236 60.3261 41.5852 60.2341 41.5172 60.1661C41.4493 60.0982 41.3573 60.0598 41.2612 60.0592H38.3009C38.2048 60.0598 38.1128 60.0982 38.0449 60.1661C37.977 60.2341 37.9385 60.3261 37.938 60.4222C37.9402 60.5172 37.9793 60.6076 38.0471 60.6742C38.1149 60.7407 38.2059 60.7783 38.3009 60.7788Z" fill="#F5F5F5"/>
<path d="M41.0095 51.1217C40.9362 51.1212 40.8661 51.0918 40.8143 51.04C40.7624 50.9882 40.7331 50.9181 40.7325 50.8448V42.4298C40.7325 42.3563 40.7617 42.2859 40.8137 42.2339C40.8656 42.182 40.936 42.1528 41.0095 42.1528C41.0828 42.1534 41.1529 42.1827 41.2047 42.2346C41.2565 42.2864 41.2859 42.3565 41.2864 42.4298V50.8448C41.2859 50.9181 41.2565 50.9882 41.2047 51.04C41.1529 51.0918 41.0828 51.1212 41.0095 51.1217Z" fill="#F5F5F5"/>
<path d="M43.6005 50.7944H38.4185V51.4469H43.6005V50.7944Z" fill="#F0F0F0"/>
<path d="M42.4445 46.0866C42.4081 46.0866 42.3732 46.0723 42.3473 46.0468C42.3214 46.0213 42.3066 45.9866 42.306 45.9502V41.75C42.3066 41.7135 42.3213 41.6786 42.3472 41.6527C42.373 41.6269 42.4079 41.6121 42.4445 41.6116C42.4811 41.6121 42.516 41.6269 42.5418 41.6527C42.5677 41.6786 42.5824 41.7135 42.583 41.75V45.946C42.5832 45.9644 42.5799 45.9826 42.573 45.9997C42.5662 46.0167 42.556 46.0322 42.5432 46.0453C42.5303 46.0584 42.5149 46.0688 42.498 46.0759C42.481 46.0829 42.4629 46.0866 42.4445 46.0866Z" fill="#F0F0F0"/>
<path d="M36.9792 43.1976C36.9792 43.1976 37.0821 39.2324 41.0095 39.2324C44.9369 39.2324 45.0376 43.1934 45.0376 43.1934L36.9792 43.1976Z" fill="#F0F0F0"/>
<path d="M70.9772 48.7993C71.0883 48.7993 71.2016 48.7993 71.3149 48.8098C72.4754 48.8937 73.5664 49.394 74.3872 50.2186C75.208 51.0432 75.7031 52.1366 75.7816 53.2974C75.8147 53.8248 75.7623 54.354 75.6263 54.8646C75.1004 56.9127 74.8464 59.0211 74.871 61.1355V67.291C74.8713 67.3976 74.8505 67.5032 74.8097 67.6017C74.769 67.7002 74.7092 67.7897 74.6337 67.865C74.5582 67.9403 74.4686 67.9999 74.37 68.0404C74.2714 68.0808 74.1657 68.1014 74.0591 68.1008H54.5205V48.7993H70.9772Z" fill="#F0F0F0"/>
<path d="M49.7057 53.6142C49.7078 52.9298 49.8558 52.2537 50.1399 51.631C50.4239 51.0084 50.8375 50.4535 51.3531 50.0033C51.8686 49.5532 52.4743 49.2182 53.1296 49.0207C53.7848 48.8232 54.4747 48.7677 55.1532 48.858C55.8316 48.9482 56.483 49.1821 57.0638 49.5441C57.6447 49.906 58.1416 50.3877 58.5216 50.957C58.9015 51.5263 59.1557 52.17 59.2671 52.8453C59.3785 53.5206 59.3446 54.2118 59.1676 54.873C58.6434 56.9213 58.3902 59.0296 58.4144 61.1439V67.2994C58.4145 67.4056 58.3935 67.5108 58.3528 67.609C58.312 67.7071 58.2524 67.7962 58.1771 67.8713C58.1019 67.9463 58.0126 68.0057 57.9144 68.0462C57.8161 68.0867 57.7109 68.1074 57.6046 68.1071H51.4344C51.3284 68.1071 51.2233 68.0862 51.1253 68.0456C51.0273 68.005 50.9383 67.9455 50.8633 67.8705C50.7883 67.7955 50.7288 67.7065 50.6882 67.6085C50.6476 67.5105 50.6267 67.4054 50.6267 67.2994V60.7746C50.6445 58.7917 50.3933 56.8156 49.8798 54.9002C49.7641 54.4813 49.7056 54.0487 49.7057 53.6142Z" fill="#F5F5F5"/>
<path d="M61.1543 68.1008H78.6956V56.3815H61.1543V68.1008Z" fill="#F0F0F0"/>
<path d="M93.1928 59.0333H69.7142V41.0598C69.7142 40.0938 70.0979 39.1674 70.7809 38.4844C71.464 37.8014 72.3904 37.4177 73.3563 37.4177H89.5507C90.5166 37.4177 91.443 37.8014 92.1261 38.4844C92.8091 39.1674 93.1928 40.0938 93.1928 41.0598V59.0333Z" fill="#E0E0E0"/>
<path d="M88.6045 59.0333H65.1259V40.8835C65.1259 39.9638 65.4912 39.0817 66.1416 38.4313C66.792 37.7809 67.6741 37.4156 68.5938 37.4156H85.1281C86.0479 37.4156 86.93 37.7809 87.5804 38.4313C88.2307 39.0817 88.5961 39.9638 88.5961 40.8835V59.0333H88.6045Z" fill="#F5F5F5"/>
<path d="M77.5501 60.0844L61.3809 60.0844C61.1027 60.0844 60.8359 59.9738 60.6392 59.7771C60.4425 59.5804 60.3319 59.3136 60.3319 59.0354V56.3772C60.3319 56.099 60.4425 55.8322 60.6392 55.6354C60.8359 55.4387 61.1027 55.3282 61.3809 55.3282H77.5501C77.6342 55.3282 77.7147 55.3616 77.7742 55.421C77.8336 55.4804 77.8669 55.561 77.8669 55.645V59.7697C77.8664 59.8533 77.8328 59.9333 77.7734 59.9923C77.7141 60.0513 77.6338 60.0844 77.5501 60.0844Z" fill="#E0E0E0"/>
<path d="M94.9237 48.7993C95.0348 48.7993 95.146 48.7993 95.2614 48.8098C96.4215 48.8941 97.512 49.3947 98.3324 50.2192C99.1527 51.0438 99.6476 52.1369 99.726 53.2974C99.7612 53.8248 99.7087 54.3544 99.5707 54.8646C99.0446 56.9134 98.7906 59.0225 98.8154 61.1376V67.2931C98.8154 67.3994 98.7945 67.5046 98.7537 67.6027C98.713 67.7008 98.6533 67.79 98.5781 67.865C98.5029 67.94 98.4136 67.9995 98.3153 68.04C98.2171 68.0804 98.1118 68.1011 98.0056 68.1008H78.4649V48.7993H94.9237Z" fill="#F0F0F0"/>
<path d="M73.6521 53.6142C73.6436 52.3594 74.1255 51.151 74.9951 50.2464C75.8647 49.3417 77.0532 48.8125 78.3074 48.7715C79.5615 48.7305 80.7821 49.1808 81.7089 50.0267C82.6358 50.8725 83.1957 52.0468 83.2693 53.2995C83.3024 53.8268 83.25 54.3561 83.114 54.8667C82.5881 56.9148 82.3341 59.0232 82.3588 61.1376V67.2931C82.3588 67.5073 82.2737 67.7128 82.1222 67.8642C81.9707 68.0157 81.7652 68.1008 81.551 68.1008H75.3787C75.2727 68.1008 75.1676 68.0799 75.0696 68.0393C74.9716 67.9987 74.8826 67.9392 74.8076 67.8642C74.7326 67.7892 74.6731 67.7002 74.6325 67.6022C74.5919 67.5042 74.571 67.3992 74.571 67.2931V60.7746C74.5885 58.7919 74.338 56.8159 73.8262 54.9002C73.7105 54.4814 73.652 54.0488 73.6521 53.6142Z" fill="#F5F5F5"/>
<path d="M54.8624 68.6883H94.5795C94.6566 68.6883 94.7329 68.6731 94.804 68.6435C94.8752 68.614 94.9398 68.5707 94.9942 68.5161C95.0485 68.4615 95.0916 68.3967 95.1209 68.3255C95.1502 68.2542 95.1651 68.1779 95.1649 68.1008H54.2771C54.2768 68.1779 54.2918 68.2542 54.3211 68.3255C54.3503 68.3967 54.3934 68.4615 54.4478 68.5161C54.5022 68.5707 54.5668 68.614 54.638 68.6435C54.7091 68.6731 54.7854 68.6883 54.8624 68.6883Z" fill="#E0E0E0"/>
<path d="M78.3851 23.6801H91.1598V9.74729L78.3851 9.74729V23.6801Z" fill="#E0E0E0"/>
<path d="M77.6236 23.6801H90.7297V9.74729L77.6236 9.74729V23.6801Z" fill="#F5F5F5"/>
<path d="M89.6304 22.5828V10.8445H78.7187V22.5828H89.6304Z" fill="white"/>
<path d="M84.1756 13.746L87.1589 18.9155H81.1923L84.1756 13.746Z" fill="#F5F5F5"/>
<path d="M60.4641 31.814H73.2388V17.8812H60.4641V31.814Z" fill="#E0E0E0"/>
<path d="M59.7026 31.814H72.8087V17.8812H59.7026V31.814Z" fill="#F5F5F5"/>
<path d="M71.7094 30.7167V18.9785H60.7977V30.7167H71.7094Z" fill="white"/>
<path d="M64.9202 26.9403L63.6258 24.6976C63.4911 24.4635 63.4204 24.1981 63.4207 23.928C63.421 23.6579 63.4923 23.3927 63.6274 23.1589C63.7626 22.9251 63.9569 22.731 64.1908 22.596C64.4247 22.461 64.69 22.3899 64.9601 22.3898H67.5553C67.8253 22.3901 68.0905 22.4614 68.3243 22.5964C68.5581 22.7314 68.7524 22.9254 68.8877 23.159C69.023 23.3927 69.0946 23.6578 69.0953 23.9278C69.096 24.1978 69.0258 24.4632 68.8917 24.6976L67.5973 26.9403C67.4623 27.1762 67.2675 27.3722 67.0324 27.5086C66.7974 27.6449 66.5305 27.7167 66.2587 27.7167C65.987 27.7167 65.7201 27.6449 65.485 27.5086C65.25 27.3722 65.0551 27.1762 64.9202 26.9403Z" fill="#F5F5F5"/>
<path d="M66.4015 9.29407H18.0386L21.2212 75.1584H69.5841L66.4015 9.29407Z" fill="#407BFF"/>
<path opacity="0.2" d="M66.4015 9.29407H18.0386L21.2212 75.1584H69.5841L66.4015 9.29407Z" fill="black"/>
<path d="M66.8483 9.29407H18.4854L21.6701 75.1584H70.033L66.8483 9.29407Z" fill="#407BFF"/>
<path opacity="0.2" d="M64.295 11.5095H20.6967L23.7429 72.1813L61.6536 72.131L67.9539 66.5461L64.295 11.5095Z" fill="black"/>
<path d="M64.6286 11.5074C65.0935 29.6774 66.5608 47.8078 69.0239 65.8161C65.5692 68.1938 62.132 70.5715 58.7123 72.9492H26.1053C23.0276 52.6009 21.2212 32.0805 20.6967 11.5074H64.6286Z" fill="white"/>
<path d="M69.0239 65.816C65.5692 68.1938 62.132 70.5715 58.7123 72.9492C59.4592 69.8022 60.2375 66.6552 61.0473 63.5082L69.0239 65.816Z" fill="#EBEBEB"/>
<path d="M32.5189 17.0587C32.6015 19.2798 32.698 21.5023 32.8085 23.7261H26.1431C26.0312 21.5023 25.9347 19.2798 25.8536 17.0587H32.5189ZM33.1987 16.3559H25.1256C25.2193 19.0455 25.3361 21.7365 25.476 24.429H33.5511C33.4113 21.7379 33.2945 19.0469 33.2008 16.3559H33.1987Z" fill="#407BFF"/>
<path d="M59.7549 19.5617H36.9246C36.9036 19.0602 36.8847 18.5567 36.8658 18.0553H59.6941C59.713 18.5567 59.734 19.0602 59.7549 19.5617Z" fill="#E0E0E0"/>
<path d="M54.9317 22.7296H37.0652C37.0421 22.2261 37.017 21.7247 36.996 21.2233H54.8604C54.8841 21.7254 54.9079 22.2275 54.9317 22.7296Z" fill="#E0E0E0"/>
<path d="M33.1735 30.1166C33.3133 32.3405 33.4693 34.5644 33.6413 36.7883H26.9739C26.8019 34.5644 26.6459 32.3405 26.506 30.1166H33.1735ZM33.8322 29.4138H25.7592C25.9242 32.1062 26.1123 34.7987 26.3235 37.4911H34.4071C34.1973 34.8001 34.0085 32.1076 33.8406 29.4138H33.8322Z" fill="#407BFF"/>
<path d="M46.0299 32.6216H37.6379C37.6044 32.1181 37.5687 31.6167 37.5372 31.1132H45.9292C45.9607 31.6167 45.9942 32.1181 46.0299 32.6216Z" fill="#E0E0E0"/>
<path d="M53.975 32.6216H47.8048C47.7712 32.1181 47.7356 31.6167 47.7041 31.1132H53.8743C53.9058 31.6167 53.9393 32.1181 53.975 32.6216Z" fill="#E0E0E0"/>
<path d="M57.8479 35.7917H37.8688C37.831 35.2882 37.7953 34.7868 37.7576 34.2833H57.7367C57.7745 34.7868 57.8102 35.2882 57.8479 35.7917Z" fill="#E0E0E0"/>
<path d="M34.1742 43.1809C34.3742 45.4047 34.5896 47.6286 34.8203 49.8525H28.1529C27.9221 47.6286 27.7067 45.4047 27.5067 43.1809H34.1742ZM34.8161 42.478H26.741C26.9787 45.1718 27.2389 47.865 27.5214 50.5574H35.5966C35.3169 47.8636 35.0567 45.1704 34.8161 42.478Z" fill="#407BFF"/>
<path d="M61.7019 47.3495H38.8695L39.0206 48.8559H61.853L61.7019 47.3495Z" fill="#E0E0E0"/>
<path d="M56.436 44.1794H38.5695C38.6156 44.6809 38.6618 45.1844 38.71 45.6858H56.5744C56.5283 45.1844 56.48 44.6872 56.436 44.1794Z" fill="#E0E0E0"/>
<path d="M35.5232 56.245C35.7834 58.4689 36.0582 60.692 36.3477 62.9145H29.6803C29.3908 60.6934 29.116 58.4703 28.8558 56.245H35.5232ZM36.1526 55.5422H28.0712C28.3789 58.236 28.7111 60.9277 29.0677 63.6173H37.1345C36.7806 60.9277 36.4484 58.236 36.1379 55.5422H36.1526Z" fill="#407BFF"/>
<path d="M62.9587 58.7437H40.1262C40.0654 58.2402 40.0045 57.7388 39.9458 57.2353H62.7761C62.837 57.7451 62.8957 58.2465 62.9587 58.7437Z" fill="#E0E0E0"/>
<path d="M50.9162 61.918H40.5227C40.4577 61.4166 40.3947 60.913 40.3318 60.4116H50.7252C50.7882 60.913 50.8511 61.4166 50.9162 61.918Z" fill="#E0E0E0"/>
<path d="M57.122 61.918H52.6344C52.5694 61.4166 52.5064 60.913 52.4435 60.4116H56.9311C56.994 60.913 57.0654 61.4166 57.122 61.918Z" fill="#E0E0E0"/>
<path d="M29.5816 22.7737L29.2858 22.3037C28.6396 21.2757 27.3221 20.3589 26.8668 20.0903L27.2067 19.4882C28.0999 20.0306 28.8979 20.716 29.569 21.517C30.5845 20.1344 32.0866 18.7057 34.1427 17.1699L34.5769 17.7364C32.3824 19.3791 30.8467 20.8834 29.8774 22.331L29.5816 22.7737Z" fill="#407BFF"/>
<path d="M30.3789 35.8358L30.0705 35.3658C29.3991 34.3378 28.0564 33.4189 27.5948 33.1503L27.9158 32.5482C28.8261 33.0908 29.6429 33.7765 30.3348 34.5791C31.3125 33.1944 32.7748 31.7657 34.791 30.2278C34.9399 30.4167 35.091 30.6055 35.2399 30.7964C33.0895 32.4412 31.5936 33.9434 30.6642 35.3931C30.5677 35.54 30.4733 35.6889 30.3789 35.8358Z" fill="#407BFF"/>
<path d="M31.537 48.9335L31.216 48.4636C30.5153 47.4356 29.1474 46.5167 28.6796 46.2502C28.7803 46.0404 28.8894 45.8474 28.9859 45.6481C29.9103 46.1916 30.7441 46.8761 31.4573 47.6769C32.3993 46.2922 33.8238 44.8655 35.796 43.3256L36.2617 43.8942C34.1637 45.539 32.6951 47.0412 31.8077 48.4909L31.537 48.9335Z" fill="#407BFF"/>
<path d="M52.6869 69.3302C51.4491 69.3302 50.7358 68.8729 50.1064 68.47C49.477 68.0672 48.9357 67.719 47.8909 67.719C46.8461 67.719 46.3804 68.084 45.8873 68.47C45.3943 68.8561 44.7901 69.3302 43.5523 69.3302C42.3144 69.3302 41.6011 68.8729 40.9738 68.47C40.3465 68.0672 39.8052 67.719 38.7583 67.719C37.7115 67.719 37.2478 68.084 36.7548 68.47C36.2617 68.8561 35.6575 69.3302 34.4218 69.3302C33.1861 69.3302 32.4707 68.8729 31.8413 68.47C31.2119 68.0672 30.6727 67.719 29.6258 67.719C29.5985 67.5092 29.5691 67.3162 29.5419 67.1147C30.7797 67.1147 31.4909 67.5721 32.1203 67.9749C32.7497 68.3777 33.2889 68.726 34.3337 68.726C35.3785 68.726 35.8442 68.361 36.3373 67.9749C36.8303 67.5889 37.4366 67.1147 38.6744 67.1147C39.9122 67.1147 40.6214 67.5721 41.2508 67.9749C41.8802 68.3777 42.4214 68.726 43.4662 68.726C44.511 68.726 44.9768 68.361 45.4698 67.9749C45.9628 67.5889 46.5692 67.1147 47.807 67.1147C49.0448 67.1147 49.756 67.5721 50.3854 67.9749C51.0148 68.3777 51.554 68.726 52.6009 68.726C52.6282 68.9274 52.6596 69.1288 52.6869 69.3302Z" fill="#EBEBEB"/>
<path d="M54.4618 10.9242C53.7527 9.03603 52.1142 7.79612 50.3519 7.79612H46.7601C46.4927 7.79378 46.2319 7.71302 46.01 7.56384C45.7881 7.41467 45.6149 7.20363 45.5118 6.95692C45.2579 6.35391 44.8333 5.83825 44.2902 5.47334C43.7471 5.10843 43.1093 4.91019 42.455 4.90298C41.8221 4.89657 41.2037 5.09231 40.6897 5.46173C40.1758 5.83116 39.7932 6.35497 39.5976 6.95692C39.5179 7.20321 39.3614 7.41754 39.1512 7.56854C38.9409 7.71954 38.6878 7.79928 38.429 7.79612H34.8393C33.0749 7.79612 31.556 9.04232 31.0315 10.9242L30.8217 11.6732H54.7388L54.4618 10.9242Z" fill="#263238"/>
<path d="M54.5898 12.4117H31.0503C30.8518 12.4094 30.6615 12.3319 30.5179 12.1948C30.3742 12.0578 30.2878 11.8714 30.2762 11.6732C30.271 11.578 30.2854 11.4827 30.3185 11.3932C30.3515 11.3038 30.4025 11.222 30.4684 11.153C30.5342 11.0841 30.6135 11.0293 30.7013 10.9921C30.7891 10.9549 30.8836 10.9361 30.979 10.9368H54.5185C54.7166 10.9391 54.9066 11.0163 55.0502 11.1529C55.1939 11.2895 55.2804 11.4754 55.2926 11.6732C55.2981 11.7686 55.2839 11.8641 55.251 11.9538C55.2181 12.0435 55.1671 12.1255 55.1012 12.1947C55.0353 12.2639 54.956 12.3189 54.868 12.3562C54.78 12.3935 54.6853 12.4124 54.5898 12.4117Z" fill="#407BFF"/>
<path opacity="0.2" d="M54.5898 12.4117H31.0503C30.8518 12.4094 30.6615 12.3319 30.5179 12.1948C30.3742 12.0578 30.2878 11.8714 30.2762 11.6732C30.271 11.578 30.2854 11.4827 30.3185 11.3932C30.3515 11.3038 30.4025 11.222 30.4684 11.153C30.5342 11.0841 30.6135 11.0293 30.7013 10.9921C30.7891 10.9549 30.8836 10.9361 30.979 10.9368H54.5185C54.7166 10.9391 54.9066 11.0163 55.0502 11.1529C55.1939 11.2895 55.2804 11.4754 55.2926 11.6732C55.2981 11.7686 55.2839 11.8641 55.251 11.9538C55.2181 12.0435 55.1671 12.1255 55.1012 12.1947C55.0353 12.2639 54.956 12.3189 54.868 12.3562C54.78 12.3935 54.6853 12.4124 54.5898 12.4117Z" fill="black"/>
</svg>
