<svg width="127" height="142" viewBox="0 0 127 142" fill="none" xmlns="http://www.w3.org/2000/svg">
<g clip-path="url(#clip0_201_1340)">
<path d="M2.90364 82.7802C3.36409 81.5234 3.78587 80.2526 4.08218 78.9365C6.92397 66.3178 0.702947 52.126 6.79334 40.1809C11.2384 31.4631 19.9145 25.9351 28.616 23.5722C39.1973 20.699 49.8413 23.2026 60.1977 25.9497C66.8884 27.7246 73.4073 27.9341 79.6742 24.4066C97.2441 14.5167 109.361 22.0707 113.485 30.4637C117.61 38.8569 112.712 52.0234 122.766 68.5212C132.82 85.019 108.587 97.6086 103.689 103.764C98.7908 109.919 101.023 134.538 73.998 130.062C46.9733 125.586 6.49892 121.079 1.85812 105.148C-0.477316 97.1291 0.0487916 90.5717 2.90364 82.7802Z" fill="#B3E0FF"/>
<path d="M109.553 11.9802H90.4221V36.4789H109.553V11.9802Z" fill="white"/>
<path d="M108.916 12.7968H91.0598V35.6623H108.916V12.7968Z" fill="#B3E0FF"/>
<path d="M94.3759 23.33H92.718V33.8491H94.3759V23.33Z" fill="#6DB9F3"/>
<path d="M97.0968 27.3206H95.4387V33.8491H97.0968V27.3206Z" fill="white"/>
<path d="M99.8176 24.3217H98.1597V33.8491H99.8176V24.3217Z" fill="#0388E2"/>
<path d="M102.539 26.9054H100.881V33.8491H102.539V26.9054Z" fill="#6DB9F3"/>
<g opacity="0.3">
<g opacity="0.3">
<path opacity="0.3" d="M28.1994 22.8306H15.5234V37.6281H28.1994V22.8306Z" fill="white"/>
</g>
</g>
<g opacity="0.3">
<g opacity="0.3">
<path opacity="0.3" d="M38.0819 20.7166H30.5337V30.5402H38.0819V20.7166Z" fill="white"/>
</g>
</g>
<g opacity="0.5">
<g opacity="0.5">
<path opacity="0.5" d="M124.649 59.0098H115.36C114.08 59.0098 113.043 57.8843 113.043 56.4957V51.7393C113.043 50.351 114.08 49.2253 115.36 49.2253H124.649C125.928 49.2253 126.965 50.351 126.965 51.7393V56.4957C126.965 57.8843 125.928 59.0098 124.649 59.0098Z" fill="#0388E2"/>
</g>
</g>
<g opacity="0.5">
<g opacity="0.5">
<path opacity="0.5" d="M28.6843 49.2253H19.3956C18.1162 49.2253 17.0791 50.351 17.0791 51.7395V56.4958C17.0791 57.8843 18.1162 59.0098 19.3956 59.0098H26.365L28.1118 61.6375L28.0984 59.0098H28.6843C29.9637 59.0098 31.001 57.8843 31.001 56.4958V51.7395C31.001 50.351 29.9637 49.2253 28.6843 49.2253Z" fill="#0388E2"/>
</g>
</g>
<g opacity="0.5">
<g opacity="0.5">
<path opacity="0.5" d="M69.4944 132.406C69.4944 132.406 74.7426 128.514 75.2677 118.16L84.9485 119.187C84.9485 119.187 84.3337 130.129 79.4925 136.287L69.4944 132.406Z" fill="#0388E2"/>
</g>
</g>
<g opacity="0.5">
<g opacity="0.5">
<path opacity="0.5" d="M86.2893 125.781L90.6744 123.003C90.6744 123.003 92.0409 126.719 95.0334 128.042L91.5411 131.818C91.541 131.818 87.9434 129.853 86.2893 125.781Z" fill="#0388E2"/>
</g>
</g>
<path d="M104.312 105.788L106.747 111.633H110.385L107.141 105.448L104.312 105.788Z" fill="#6DB9F3"/>
<path d="M108.416 107.994L105.638 110.155L104.063 106.265L107.644 105.725L108.416 107.994Z" fill="black"/>
<path d="M106.489 105.617L108.455 110.909C108.617 111.347 109.008 111.633 109.442 111.633H118.735C118.735 111.236 118.459 110.904 118.095 110.866C116.322 110.681 111.361 109.727 109.54 104.825L106.489 105.617Z" fill="#78C8FF"/>
<path d="M107.348 108.229L110.385 106.316L109.763 104.917L105.896 105.725L107.348 108.229Z" fill="black"/>
<path d="M67.6531 8.13593L66.9182 7.14512L67.1089 5.67587C67.3656 3.69947 66.0971 1.87154 64.2761 1.59306L63.5314 1.47928C62.239 1.28157 61.0436 2.25839 60.8615 3.66105L60.8175 9.64528L59.8752 14.7318H64.9169L64.4315 10.8032L65.2041 10.9336C65.8659 11.0347 66.4782 10.5344 66.5715 9.81614L66.7571 8.38625H67.5428C67.6617 8.38625 67.7279 8.23647 67.6531 8.13593Z" fill="#FFD8CC"/>
<path d="M60.1867 13.0488L59.9014 14.5893L64.8713 14.3651L64.7565 13.4362L60.1867 13.0488Z" fill="#B3E0FF"/>
<path d="M51.8574 31.5564L58.6827 34.366L58.2773 36.1408L50.6455 34.9983L51.8574 31.5564Z" fill="#FFD8CC"/>
<path d="M80.5789 12.8044C80.5789 12.8044 73.9689 7.92364 73.1668 8.04805C72.3646 8.17228 72.6369 8.57647 71.6916 8.63859C70.7463 8.70088 70.0873 8.09468 69.6004 7.83038C69.1135 7.56607 69.6004 7.44185 69.8295 7.4495C70.0588 7.45733 71.9279 8.29669 71.6056 7.76043C71.2834 7.22418 69.5431 7.31744 69.4357 6.89776C69.3283 6.47808 70.0228 5.5921 70.8967 5.54547C71.7703 5.49884 74.4988 5.99629 75.5588 6.43145C76.6185 6.86661 83.0711 9.9366 83.0711 9.9366L80.5789 12.8044Z" fill="#FFD8CC"/>
<path d="M68.3622 34.2546C68.4322 34.2546 68.4918 34.3091 68.5039 34.3837C68.5039 34.3837 71.1169 47.0289 70.9785 50.6793C70.8182 54.9149 72.2571 57.1659 72.6043 59.3251C72.7598 60.2939 72.7701 63.533 73.0214 64.4778C73.8303 67.5224 75.2292 71.0619 75.2292 71.0619C75.2367 71.1083 74.5822 72.3259 74.5533 72.3616L70.0163 77.9623C70.0162 77.9625 70.0157 77.9634 70.0157 77.9634C70.0177 77.9216 70.2388 73.4151 68.9272 71.3728C67.6094 69.321 66.8073 69.0722 67.0366 65.435C67.2657 61.7978 65.017 61.3548 65.3893 58.153C65.7618 54.9509 65.2099 54.5553 64.5047 52.7363C63.5245 50.2078 63.405 48.8072 63.076 46.9574C62.998 47.4847 62.2418 51.586 61.6402 52.8917C60.7695 54.7812 60.7057 56.3886 60.5912 58.2229C60.4766 60.057 60.1901 61.0829 59.3307 63.2279C58.4713 65.3729 59.7891 67.8289 59.0729 70.2225C58.3581 72.6117 56.5591 79.677 56.5522 79.7041C56.5522 79.7041 56.5518 79.7039 56.5517 79.7035L51.2242 74.233C51.2241 74.2328 51.2239 74.233 51.2239 74.233C51.2268 74.2257 52.2192 71.8119 52.0905 69.2744C51.9616 66.733 53.5084 65.3108 53.487 63.9352C53.4655 62.5596 53.0788 59.9949 54.0885 57.3835C55.0983 54.7722 54.7116 53.6064 54.6686 50.5988C54.6258 47.5926 55.1148 42.4827 57.3636 34.2546H68.3622V34.2546Z" fill="#0388E2"/>
<path d="M51.8575 31.5564L50.6456 34.9983C50.6456 34.9983 43.5905 34.5562 41.7714 31.5564C39.7183 28.1702 43.0604 25.3079 44.4784 23.7224C45.8964 22.137 49.6197 18.9597 53.2291 15.9755L54.9049 24.3223L47.5795 29.0396C47.3743 29.1717 47.3948 29.5009 47.6144 29.6022L51.8575 31.5564Z" fill="#B3E0FF"/>
<path d="M63.8766 4.66565C63.8963 4.58116 63.9792 4.53453 64.0543 4.56568C64.4805 4.74157 65.8139 5.20937 67.1243 4.79921C68.7124 4.30193 68.6695 2.59226 68.2253 2.12595C67.7814 1.65964 67.3374 2.12595 67.1511 1.58186C66.965 1.03777 66.607 0.291681 65.7046 0.431574C64.8023 0.571466 64.573 0.75799 63.4558 0.929031C62.3386 1.10007 61.6798 1.1467 61.1642 1.8928C60.6486 2.63889 60.5913 2.48333 60.1472 2.77878C59.7033 3.07405 59.2664 3.57151 59.5457 5.46006C59.825 7.34861 60.3406 9.54026 61.0066 9.63352C61.6109 9.71802 62.5511 8.6705 62.9369 7.83115C62.9826 7.73154 62.9077 7.63194 62.8054 7.62448C62.0791 7.57132 61.9041 6.8616 61.8445 6.32273C61.78 5.73984 62.0272 5.00531 62.7791 5.16852C63.1112 5.24052 63.2841 5.49438 63.3735 5.7557C63.4187 5.88776 63.5955 5.87395 63.6272 5.73723L63.8766 4.66565Z" fill="#0388E2"/>
<path d="M88.5149 91.0357H72.3374C70.3596 91.0357 68.7563 89.2958 68.7563 87.1495C68.7563 85.003 70.3596 83.2631 72.3374 83.2631H88.5149C90.4929 83.2631 92.0961 85.003 92.0961 87.1495C92.0961 89.2958 90.4929 91.0357 88.5149 91.0357Z" fill="white"/>
<path d="M88.4419 91.0357H72.4104V91.6406H73.8983L72.4762 111.555C72.4644 111.722 72.5859 111.864 72.7399 111.864H72.9795C73.1146 111.864 73.228 111.753 73.2424 111.608L75.2113 91.6406H85.6415L87.6103 111.608C87.6246 111.753 87.738 111.864 87.8733 111.864H88.1127C88.2667 111.864 88.3884 111.722 88.3764 111.555L86.9543 91.6406H88.442V91.0357H88.4419Z" fill="#03D7ED"/>
<path d="M59.9483 13.5673L64.816 13.9144L59.4185 15.1216L59.9483 13.5673Z" fill="black"/>
<path d="M52.4756 26.2664C52.4756 26.2664 52.6148 20.3909 52.758 19.2408L54.905 25.8001L52.4756 26.2664Z" fill="black"/>
<path d="M71.2764 13.7882C71.2764 13.7882 56.28 13.5976 53.2292 15.9757C50.1784 18.3539 57.3757 34.2548 57.3757 34.2548H68.4831C68.4831 34.2548 72.7803 23.2542 71.2764 13.7882Z" fill="#B3E0FF"/>
<path d="M71.3023 13.7893C69.7774 13.7059 68.4832 15.0306 68.5107 16.6875C68.511 16.7039 68.5114 16.7203 68.5119 16.7369C68.5681 18.8152 69.9811 22.1112 71.9922 22.0124C73.0234 21.9616 73.9077 21.5474 74.8405 21.1396C75.7705 20.7334 76.7693 20.7293 77.7502 20.8871C80.0705 21.2601 80.0418 19.3949 82.7058 19.3949C85.0724 19.3949 87.776 17.9648 87.6576 15.0164C87.6038 13.674 86.9742 12.5545 85.9978 11.7541C85.3274 11.2048 84.5846 10.7609 83.8435 10.3362L83.0712 9.93665L80.5791 12.8044C80.5791 12.8044 81.0957 13.2478 81.3633 13.4806C81.7176 13.7887 82.8923 14.6852 80.0634 14.5298C77.4071 14.3837 73.6109 13.9156 71.3023 13.7893Z" fill="#05BFDD"/>
<path d="M68.9143 18.3391C68.9143 18.3391 69.2293 21.6033 71.2918 24.3702L72.2659 20.5774L68.9143 18.3391Z" fill="black"/>
<path d="M71.3023 13.7893C69.7774 13.7059 68.4832 15.0306 68.5107 16.6875C68.511 16.7039 68.5114 16.7203 68.5119 16.7369C68.5681 18.8152 69.9811 22.1112 71.9922 22.0124C73.0234 21.9616 73.9077 21.5474 74.8405 21.1396C75.7705 20.7334 76.7693 20.7293 77.7502 20.8871C80.0705 21.2601 80.0418 19.3949 82.7058 19.3949C85.0724 19.3949 87.776 17.9648 87.6576 15.0164C87.6038 13.674 86.9742 12.5545 85.9978 11.7541C85.3274 11.2048 84.5846 10.7609 83.8435 10.3362L83.0712 9.93665L80.5791 12.8044C80.5791 12.8044 81.0957 13.2478 81.3633 13.4806C81.7176 13.7887 82.8923 14.6852 80.0634 14.5298C77.4071 14.3837 73.6109 13.9156 71.3023 13.7893Z" fill="#B3E0FF"/>
<path d="M63.0762 46.9574C63.0762 46.9574 62.6552 45.0743 62.5693 43.7919C61.5595 48.2685 62.4404 50.3902 62.4404 50.3902L63.0762 47.7789V46.9574Z" fill="black"/>
<path d="M87.5658 84.2714C87.5159 85.4163 82.9597 86.1128 77.3892 85.8272C71.8186 85.542 67.3431 84.3822 67.393 83.2375C67.4428 82.0927 71.9991 81.3962 77.5695 81.6816C83.1402 81.9673 87.6156 83.1268 87.5658 84.2714Z" fill="black"/>
<g opacity="0.5">
<g opacity="0.5">
<path opacity="0.5" d="M67.2131 81.5848H66.8694V92.3099H67.2131V81.5848Z" fill="#0388E2"/>
<path opacity="0.5" d="M68.3491 81.5848H68.0054V92.3099H68.3491V81.5848Z" fill="#0388E2"/>
<path opacity="0.5" d="M69.4851 81.5848H69.1414V92.3099H69.4851V81.5848Z" fill="#0388E2"/>
<path opacity="0.5" d="M69.4851 81.5848H69.1414V92.3099H69.4851V81.5848Z" fill="#0388E2"/>
<path opacity="0.5" d="M70.6213 81.5848H70.2776V92.3099H70.6213V81.5848Z" fill="#0388E2"/>
<path opacity="0.5" d="M69.4851 81.5848H69.1414V92.3099H69.4851V81.5848Z" fill="#0388E2"/>
<path opacity="0.5" d="M71.7573 81.5848H71.4136V92.3099H71.7573V81.5848Z" fill="#0388E2"/>
<path opacity="0.5" d="M72.8103 81.5848H72.4666V92.3099H72.8103V81.5848Z" fill="#0388E2"/>
<path opacity="0.5" d="M73.9463 81.5848H73.6025V92.3099H73.9463V81.5848Z" fill="#0388E2"/>
<path opacity="0.5" d="M75.0823 81.5848H74.7385V92.3099H75.0823V81.5848Z" fill="#0388E2"/>
<path opacity="0.5" d="M76.2183 81.5848H75.8745V92.3099H76.2183V81.5848Z" fill="#0388E2"/>
<path opacity="0.5" d="M76.2183 81.5848H75.8745V92.3099H76.2183V81.5848Z" fill="#0388E2"/>
<path opacity="0.5" d="M77.3545 81.5848H77.0107V92.3099H77.3545V81.5848Z" fill="#0388E2"/>
<path opacity="0.5" d="M76.2183 81.5848H75.8745V92.3099H76.2183V81.5848Z" fill="#0388E2"/>
<path opacity="0.5" d="M78.4478 81.5848H78.104V92.3099H78.4478V81.5848Z" fill="#0388E2"/>
<path opacity="0.5" d="M79.5007 81.5848H79.157V92.3099H79.5007V81.5848Z" fill="#0388E2"/>
<path opacity="0.5" d="M80.637 81.5848H80.2932V92.3099H80.637V81.5848Z" fill="#0388E2"/>
<path opacity="0.5" d="M81.7729 81.5848H81.4292V92.3099H81.7729V81.5848Z" fill="#0388E2"/>
<path opacity="0.5" d="M82.9089 81.5848H82.5652V92.3099H82.9089V81.5848Z" fill="#0388E2"/>
<path opacity="0.5" d="M82.9089 81.5848H82.5652V92.3099H82.9089V81.5848Z" fill="#0388E2"/>
<path opacity="0.5" d="M84.0449 81.5848H83.7012V92.3099H84.0449V81.5848Z" fill="#0388E2"/>
<path opacity="0.5" d="M82.9089 81.5848H82.5652V92.3099H82.9089V81.5848Z" fill="#0388E2"/>
<path opacity="0.5" d="M85.1809 81.5848H84.8372V92.3099H85.1809V81.5848Z" fill="#0388E2"/>
<path opacity="0.5" d="M86.2339 81.5848H85.8901V92.3099H86.2339V81.5848Z" fill="#0388E2"/>
<path opacity="0.5" d="M87.3699 81.5848H87.0261V92.3099H87.3699V81.5848Z" fill="#0388E2"/>
<path opacity="0.5" d="M88.5061 81.5848H88.1624V92.3099H88.5061V81.5848Z" fill="#0388E2"/>
<path opacity="0.5" d="M89.6418 81.5848H89.2981V92.3099H89.6418V81.5848Z" fill="#0388E2"/>
<path opacity="0.5" d="M89.6418 81.5848H89.2981V92.3099H89.6418V81.5848Z" fill="#0388E2"/>
<path opacity="0.5" d="M90.7781 81.5848H90.4343V92.3099H90.7781V81.5848Z" fill="#0388E2"/>
<path opacity="0.5" d="M89.6418 81.5848H89.2981V92.3099H89.6418V81.5848Z" fill="#0388E2"/>
<path opacity="0.5" d="M91.8716 81.5848H91.5278V92.3099H91.8716V81.5848Z" fill="#0388E2"/>
<path opacity="0.5" d="M92.9243 81.5848H92.5806V92.3099H92.9243V81.5848Z" fill="#0388E2"/>
<path opacity="0.5" d="M94.0603 81.5848H93.7166V92.3099H94.0603V81.5848Z" fill="#0388E2"/>
</g>
</g>
<path d="M102.943 79.1055H90.3605C90.1805 79.1055 90.0344 78.9471 90.0344 78.7518C90.0344 78.5566 90.1807 78.3982 90.3605 78.3982H102.943C103.123 78.3982 103.269 78.5566 103.269 78.7518C103.269 78.9471 103.123 79.1055 102.943 79.1055Z" fill="white"/>
<path d="M102.794 78.9274L110.154 65.5432C110.208 65.4449 110.326 65.3651 110.416 65.3651H112.576C112.666 65.3651 112.696 65.4449 112.642 65.5432L105.282 78.9274C105.228 79.0257 105.11 79.1055 105.02 79.1055H102.86C102.77 79.1055 102.74 79.0257 102.794 78.9274Z" fill="white"/>
<path d="M91.0158 75.5347L96.8583 75.4103C96.8585 75.4103 96.8585 75.4104 96.8585 75.4104C96.8641 75.4062 99.9966 73.83 100.797 75.2704C101.202 75.9971 101.599 77.1822 101.37 77.5982C101.044 78.1902 99.747 76.1023 99.747 76.1023C99.747 76.1023 97.2167 77.1975 95.9848 77.3841C94.7587 77.5698 90.9774 78.002 90.9434 78.0059C90.9429 78.0059 90.9432 78.0054 90.9432 78.0054L91.0149 75.5354C91.0149 75.5354 91.0152 75.5347 91.0158 75.5347Z" fill="#FFB69C"/>
<path d="M102.676 48.455L102.169 47.3174C101.6 46.0425 100.187 45.5091 99.012 46.1263L93.1026 49.235L90.2129 50.8306L92.4208 55.3745L94.9377 53.3498L95.5611 54.7472C95.8519 55.4002 96.5759 55.6735 97.1774 55.3575L99.0711 54.3631L99.5153 54.9913C99.5876 55.0939 99.7372 55.0596 99.7653 54.9341L100.003 53.8737L101.129 53.2822C102.784 52.4128 103.477 50.2516 102.676 48.455Z" fill="#FFB69C"/>
<path d="M87.3535 84.9599C87.3535 84.9599 95.6322 84.0273 96.9213 85.9548C98.2103 87.8822 98.3248 90.2137 98.8119 92.6074C99.2988 95.0012 100.531 95.0322 100.788 96.9907C101.046 98.9492 100.416 99.4466 101.791 101.716C103.166 103.985 103.71 106.628 103.71 106.628L111.473 105.571C111.473 105.571 106.604 90.8354 105.744 88.1619C105.256 86.6438 104.832 85.102 104.317 83.5942C104.077 82.8908 103.811 82.2033 103.52 81.5238C103.206 80.7905 102.902 79.9493 102.242 79.4992C101.648 79.093 100.968 79.1107 100.294 79.1027C99.5096 79.0934 98.7249 79.0839 97.9405 79.0745C95.1462 79.0411 92.352 79.0016 89.5578 78.9919C89.5105 78.9917 89.4633 78.9915 89.416 78.9913L87.3535 84.9599Z" fill="#022960"/>
<path d="M87.3535 84.9599C87.3535 84.9599 72.0709 86.592 69.9654 80.6699C67.8935 74.8419 79.8482 48.1215 88.7857 51.3857L90.5904 50.6163L92.6474 55.1932L91.7853 55.9421L85.1442 76.9319L90.9803 76.726C90.9803 76.7258 90.791 81.385 87.3535 84.9599Z" fill="#05BFDD"/>
<path d="M88.4419 91.0357H72.4104V91.6406H73.8983L72.4762 111.555C72.4644 111.722 72.5859 111.864 72.7399 111.864H72.9795C73.1146 111.864 73.228 111.753 73.2424 111.608L75.2113 91.6406H85.6415L87.6103 111.608C87.6246 111.753 87.738 111.864 87.8733 111.864H88.1127C88.2667 111.864 88.3884 111.722 88.3764 111.555L86.9543 91.6406H88.442V91.0357H88.4419Z" fill="#0388E2"/>
<path d="M91.0158 75.5347L96.8583 75.4103C96.8585 75.4103 96.8585 75.4104 96.8585 75.4104C96.8641 75.4062 99.9966 73.83 100.797 75.2704C101.202 75.9971 101.599 77.1822 101.37 77.5982C101.044 78.1902 99.747 76.1023 99.747 76.1023C99.747 76.1023 97.2167 77.1975 95.9848 77.3841C94.7587 77.5698 90.9774 78.002 90.9434 78.0059C90.9429 78.0059 90.9432 78.0054 90.9432 78.0054L91.0149 75.5354C91.0149 75.5354 91.0152 75.5347 91.0158 75.5347Z" fill="#FFD8CC"/>
<path d="M102.676 48.455L102.169 47.3174C101.6 46.0425 100.187 45.5091 99.012 46.1263L93.1026 49.235L90.2129 50.8306L92.4208 55.3745L94.9377 53.3498L95.5611 54.7472C95.8519 55.4002 96.5759 55.6735 97.1774 55.3575L99.0711 54.3631L99.5153 54.9913C99.5876 55.0939 99.7372 55.0596 99.7653 54.9341L100.003 53.8737L101.129 53.2822C102.784 52.4128 103.477 50.2516 102.676 48.455Z" fill="#FFD8CC"/>
<path d="M87.3535 84.9599C87.3535 84.9599 95.6322 84.0273 96.9213 85.9548C98.2103 87.8822 98.3248 90.2137 98.8119 92.6074C99.2988 95.0012 100.531 95.0322 100.788 96.9907C101.046 98.9492 100.416 99.4466 101.791 101.716C103.166 103.985 103.71 106.628 103.71 106.628L111.473 105.571C111.473 105.571 106.604 90.8354 105.744 88.1619C105.256 86.6438 104.832 85.102 104.317 83.5942C104.077 82.8908 103.811 82.2033 103.52 81.5238C103.206 80.7905 102.902 79.9493 102.242 79.4992C101.648 79.093 100.968 79.1107 100.294 79.1027C99.5096 79.0934 98.7249 79.0839 97.9405 79.0745C95.1462 79.0411 92.352 79.0016 89.5578 78.9919C89.5105 78.9917 89.4633 78.9915 89.416 78.9913L87.3535 84.9599Z" fill="#0388E2"/>
<path d="M87.3535 84.9599C87.3535 84.9599 72.0709 86.592 69.9654 80.6699C67.8935 74.8419 79.8482 48.1215 88.7857 51.3857L90.5904 50.6163L92.6474 55.1932L91.7853 55.9421L85.1442 76.9319L90.9803 76.726C90.9803 76.7258 90.791 81.385 87.3535 84.9599Z" fill="white"/>
<path d="M93.7479 47.3127C93.7479 47.3127 92.5908 52.9118 99.3399 52.0029C106.089 51.0937 102.769 45.5365 99.8759 44.7057C98.0233 44.1741 96.0684 44.9506 96.0684 44.9506C96.0684 44.9506 96.524 41.6978 93.4521 42.9522C90.3802 44.2066 91.1459 47.5733 93.7479 47.3127Z" fill="#0388E2"/>
<path d="M90.7711 80.4826C90.7711 80.4826 82.1125 80.4221 81.0278 78.3385L91.1435 77.8091L90.7711 80.4826Z" fill="black"/>
<path d="M92.2466 84.7426C92.2466 84.7426 97.1878 84.6172 98.0472 85.5498C98.9066 86.4825 99.6943 87.1353 100.145 90.2362C100.597 93.3372 100.339 93.1507 101.886 94.9926C103.433 96.8345 102.852 97.1143 103.239 99.0961C103.626 101.078 104.292 102.15 104.292 102.15C104.292 102.15 102.759 100.736 102.602 99.3059C102.444 97.8759 102.831 97.021 102.036 96.135C101.241 95.2491 99.6083 94.5962 99.2861 90.3295C98.9638 86.0628 93.6357 87.8581 93.6357 87.8581L92.2466 84.7426Z" fill="black"/>
<path d="M40.2915 5.0484H39.9478V40.8837H40.2915V5.0484Z" fill="white"/>
<path d="M41.4275 5.0484H41.0837V40.8837H41.4275V5.0484Z" fill="white"/>
<path d="M42.5635 5.0484H42.2197V40.8837H42.5635V5.0484Z" fill="white"/>
<path d="M43.6997 5.0484H43.356V40.8837H43.6997V5.0484Z" fill="white"/>
<path d="M43.6997 5.0484H43.356V40.8837H43.6997V5.0484Z" fill="white"/>
<path d="M44.8357 5.0484H44.4919V40.8837H44.8357V5.0484Z" fill="white"/>
<path d="M43.6997 5.0484H43.356V40.8837H43.6997V5.0484Z" fill="white"/>
<path d="M45.9292 5.0484H45.5854V40.8837H45.9292V5.0484Z" fill="white"/>
<path d="M46.9822 5.0484H46.6384V40.8837H46.9822V5.0484Z" fill="white"/>
<path d="M48.1182 5.0484H47.7744V40.8837H48.1182V5.0484Z" fill="white"/>
<path d="M49.2542 5.0484H48.9104V40.8837H49.2542V5.0484Z" fill="white"/>
<path d="M50.3901 5.0484H50.0464V40.8837H50.3901V5.0484Z" fill="white"/>
<path d="M50.3901 5.0484H50.0464V40.8837H50.3901V5.0484Z" fill="white"/>
<path d="M51.5264 5.0484H51.1826V40.8837H51.5264V5.0484Z" fill="white"/>
<path d="M50.3901 5.0484H50.0464V40.8837H50.3901V5.0484Z" fill="white"/>
<path d="M52.6624 5.0484H52.3186V40.8837H52.6624V5.0484Z" fill="white"/>
<path d="M53.7153 5.0484H53.3716V40.8837H53.7153V5.0484Z" fill="white"/>
<path d="M54.8513 5.0484H54.5076V40.8837H54.8513V5.0484Z" fill="white"/>
<path d="M55.9873 5.0484H55.6436V40.8837H55.9873V5.0484Z" fill="white"/>
<path d="M57.1233 5.0484H56.7795V40.8837H57.1233V5.0484Z" fill="white"/>
<path d="M57.1233 5.0484H56.7795V40.8837H57.1233V5.0484Z" fill="white"/>
<path d="M58.2595 5.0484H57.9158V40.8837H58.2595V5.0484Z" fill="white"/>
<path d="M57.1233 5.0484H56.7795V40.8837H57.1233V5.0484Z" fill="white"/>
<path d="M59.3528 5.0484H59.009V40.8837H59.3528V5.0484Z" fill="white"/>
<path d="M60.4058 5.0484H60.062V40.8837H60.4058V5.0484Z" fill="white"/>
<path d="M61.5417 5.0484H61.198V40.8837H61.5417V5.0484Z" fill="white"/>
<path d="M62.678 5.0484H62.3342V40.8837H62.678V5.0484Z" fill="white"/>
<path d="M63.8137 5.0484H63.47V40.8837H63.8137V5.0484Z" fill="white"/>
<path d="M63.8137 5.0484H63.47V40.8837H63.8137V5.0484Z" fill="white"/>
<path d="M64.95 5.0484H64.6062V40.8837H64.95V5.0484Z" fill="white"/>
<path d="M63.8137 5.0484H63.47V40.8837H63.8137V5.0484Z" fill="white"/>
<path d="M66.0859 5.0484H65.7422V40.8837H66.0859V5.0484Z" fill="white"/>
<path d="M67.1389 5.0484H66.7952V40.8837H67.1389V5.0484Z" fill="white"/>
<path d="M68.2749 5.0484H67.9312V40.8837H68.2749V5.0484Z" fill="white"/>
<path d="M69.4109 5.0484H69.0671V40.8837H69.4109V5.0484Z" fill="white"/>
<path d="M70.5471 5.0484H70.2034V40.8837H70.5471V5.0484Z" fill="white"/>
<path d="M70.5471 5.0484H70.2034V40.8837H70.5471V5.0484Z" fill="white"/>
<path d="M71.6831 5.0484H71.3394V40.8837H71.6831V5.0484Z" fill="white"/>
<path d="M70.5471 5.0484H70.2034V40.8837H70.5471V5.0484Z" fill="white"/>
<path d="M72.7764 5.0484H72.4326V40.8837H72.7764V5.0484Z" fill="white"/>
<path d="M73.8293 5.0484H73.4856V40.8837H73.8293V5.0484Z" fill="white"/>
<path d="M74.9656 5.0484H74.6218V40.8837H74.9656V5.0484Z" fill="white"/>
<path d="M76.1016 5.0484H75.7578V40.8837H76.1016V5.0484Z" fill="white"/>
<path d="M77.2373 5.0484H76.8936V40.8837H77.2373V5.0484Z" fill="white"/>
<path d="M77.2373 5.0484H76.8936V40.8837H77.2373V5.0484Z" fill="white"/>
<path d="M78.3738 5.0484H78.03V40.8837H78.3738V5.0484Z" fill="white"/>
<path d="M77.2373 5.0484H76.8936V40.8837H77.2373V5.0484Z" fill="white"/>
<path d="M79.5095 5.0484H79.1658V40.8837H79.5095V5.0484Z" fill="white"/>
<path d="M80.5625 5.0484H80.2188V40.8837H80.5625V5.0484Z" fill="white"/>
<path d="M81.6987 5.0484H81.355V40.8837H81.6987V5.0484Z" fill="white"/>
<path d="M82.8347 5.0484H82.491V40.8837H82.8347V5.0484Z" fill="white"/>
<path d="M83.9707 5.0484H83.627V40.8837H83.9707V5.0484Z" fill="white"/>
<path d="M83.9707 5.0484H83.627V40.8837H83.9707V5.0484Z" fill="white"/>
<path d="M85.1069 5.0484H84.7632V40.8837H85.1069V5.0484Z" fill="white"/>
<path d="M83.9707 5.0484H83.627V40.8837H83.9707V5.0484Z" fill="white"/>
<path d="M86.2002 5.0484H85.8564V40.8837H86.2002V5.0484Z" fill="white"/>
<path d="M87.2532 5.0484H86.9094V40.8837H87.2532V5.0484Z" fill="white"/>
<path d="M88.3892 5.0484H88.0454V40.8837H88.3892V5.0484Z" fill="white"/>
<path d="M74.2984 8.74233L73.8128 8.5297C73.6911 8.47654 73.6323 8.32657 73.6813 8.19452L74.4579 6.10471C74.5068 5.97283 74.6452 5.90904 74.7669 5.96239L75.2524 6.17465C75.3741 6.22818 75.4329 6.37815 75.3838 6.51002L74.6074 8.59964C74.5584 8.7317 74.4201 8.79549 74.2984 8.74233Z" fill="#0388E2"/>
<path d="M75.6291 6.80099C75.6291 7.33538 75.23 7.76849 74.7374 7.76849C74.2448 7.76849 73.8457 7.33538 73.8457 6.80099C73.8457 6.2666 74.2448 5.8335 74.7374 5.8335C75.23 5.8335 75.6291 6.26642 75.6291 6.80099Z" fill="#6DB9F3"/>
<path d="M24.2747 85.9914L15.4438 82.887L8.20801 71.718L17.0389 74.8225L24.2747 85.9914Z" fill="white"/>
<path d="M24.2748 85.9914L28.1996 81.5227L20.9638 70.3536L17.0391 74.8225L24.2748 85.9914Z" fill="#B3E0FF"/>
<path d="M37.0303 84.6273L28.1994 81.5227L20.9636 70.3538L29.7946 73.4583L37.0303 84.6273Z" fill="white"/>
<path d="M34.4755 81.9614L28.2788 79.7828L23.2017 71.9458L29.3983 74.124L34.4755 81.9614Z" fill="#78C8FF"/>
<path d="M37.0304 84.6273L40.9552 80.1586L33.7194 68.9896L29.7947 73.4583L37.0304 84.6273Z" fill="#B3E0FF"/>
<path d="M49.7862 83.2631L40.9552 80.1584L33.7195 68.9896L42.5504 72.0941L49.7862 83.2631Z" fill="white"/>
<path d="M75.346 6.80098C75.346 7.16563 75.0736 7.46127 74.7376 7.46127C74.4016 7.46127 74.1292 7.16563 74.1292 6.80098C74.1292 6.43632 74.4016 6.14069 74.7376 6.14069C75.0736 6.14069 75.346 6.43614 75.346 6.80098Z" fill="white"/>
<path d="M45.6873 66.8695L43.4182 58.628C43.0269 57.2065 41.6862 56.4115 40.4236 56.8521L38.34 57.5794C36.5611 58.2003 35.5659 60.3276 36.1175 62.3307L36.6383 64.2218L35.9832 65.75C35.9193 65.8989 36.037 66.0647 36.18 66.0272L37.071 65.7942L37.8204 68.5156C38.0208 69.2438 38.7075 69.651 39.3539 69.4253L41.0919 68.8185L41.8925 73.3311L47.7648 72.2431L45.6873 66.8695Z" fill="#FFD8CC"/>
<path d="M45.3125 65.535C45.8647 64.4302 45.6141 63.0524 45.4025 61.8849C45.1722 60.6123 44.9709 59.3253 44.3613 58.1871C43.8778 57.2845 42.9155 56.7247 41.9867 56.5614C40.5579 56.3097 38.9221 56.4321 37.5738 57.0277C37.3524 57.1254 37.136 57.2392 36.937 57.3835C35.3901 58.5027 34.7026 58.969 35.3329 59.6528C35.7227 60.0758 36.3645 60.206 36.8904 60.2618C37.3605 60.3116 37.8832 60.3213 38.3297 60.1312C38.4069 60.0986 38.4863 60.0594 38.5689 60.0667C38.6563 60.0743 38.7341 60.1344 38.7881 60.2094C39.0519 60.5751 39.0878 61.1288 39.1607 61.5684C39.2157 61.9015 39.2472 62.2382 39.3008 62.5711C39.367 62.9809 39.4613 64.4162 40.16 64.132C40.293 64.0779 40.3681 63.9244 40.4068 63.7759C40.5495 63.2255 40.4058 62.7166 40.6015 62.1878C40.756 61.7709 40.9592 61.4393 41.5039 61.3485C42.0508 61.2571 42.4994 61.5583 42.6211 62.1179C42.7273 62.6062 42.5647 63.0468 42.3418 63.4935C42.2264 63.7246 42.0853 63.8492 41.8906 64.0064C41.7823 64.0937 41.5688 64.2411 41.6244 64.4315C41.6371 64.4748 41.6689 64.5076 41.6995 64.5384C41.9772 64.8176 42.2505 65.1017 42.5575 65.3432C42.7266 65.4764 42.9024 65.5992 43.0851 65.7088C43.2206 65.79 43.4734 65.9864 43.6303 65.9864C44.017 66.1492 44.4725 66.2434 44.8584 66.0285C45.0656 65.9133 45.2104 65.7392 45.3125 65.535Z" fill="#0388E2"/>
<path d="M38.9959 66.1161L37.5468 66.7514C37.4167 66.8085 37.2758 66.7598 37.2364 66.6442L37.0747 66.1676C37.0343 66.0492 37.1175 65.9099 37.2551 65.8645L37.7926 65.6886C38.1199 65.5816 38.4624 65.5954 38.7432 65.7271L39.0303 65.8617C39.1372 65.9121 39.1169 66.0632 38.9959 66.1161Z" fill="#0388E2"/>
<path d="M73.684 91.6406H75.5602H87.5484L86.9819 92.0316L85.289 92.4746L75.46 91.9616L73.4404 92.5212L73.684 91.6406Z" fill="black"/>
<path d="M91.9006 75.2288L92.7622 78.0061L90.0694 78.3982L89.9263 75.3065L91.9006 75.2288Z" fill="black"/>
<path d="M67.7739 131.031C67.7739 131.031 73.0221 127.139 73.5474 116.785L83.2282 117.812C83.2282 117.812 82.6133 128.754 77.7721 134.912L67.7739 131.031Z" fill="#85D3FF"/>
<path d="M86.3877 123.839L90.7729 121.06C90.7729 121.06 92.1395 124.776 95.132 126.099L91.6397 129.875C91.6395 129.875 88.042 127.91 86.3877 123.839Z" fill="#85D3FF"/>
<path d="M26.5128 57.1679H17.2242C15.9447 57.1679 14.9075 56.0424 14.9075 54.6537V49.8974C14.9075 48.5091 15.9447 47.3834 17.2242 47.3834H26.5128C27.7923 47.3834 28.8293 48.5091 28.8293 49.8974V54.6537C28.8293 56.0424 27.7923 57.1679 26.5128 57.1679Z" fill="white"/>
<path d="M25.9404 59.7956L25.9261 57.0056H24.0857L25.9404 59.7956Z" fill="white"/>
<path d="M41.7529 73.0631C41.7529 73.0631 45.876 71.071 47.6163 71.0011C49.3565 70.9311 48.4757 72.7964 48.4757 72.7964C48.4757 72.7964 42.7861 73.2134 41.7529 73.0631Z" fill="black"/>
<path d="M59.6672 140.532C59.6672 139.914 57.0702 139.413 53.8665 139.413C50.6627 139.413 48.0657 139.914 48.0657 140.532C48.0657 141.15 50.6627 141.651 53.8665 141.651C57.0702 141.651 59.6672 141.15 59.6672 140.532Z" fill="#78C8FF"/>
<path d="M20.2405 86.7055C20.2405 86.7055 18.0022 84.239 17.7837 83.192C17.5653 82.145 17.5753 81.4637 17.0235 80.8614C16.4716 80.2591 15.0946 78.113 14.9086 78.4812C14.7226 78.8494 14.9746 79.4002 15.4777 80.0595C15.9808 80.7187 16.4773 81.6006 16.0084 81.5821C15.5396 81.5636 13.0649 78.6856 12.9176 78.9357C12.77 79.1858 12.8028 80.2535 13.5475 81.5763C14.2923 82.899 15.4751 84.2302 15.9744 84.9535C16.4735 85.6769 18.7748 89.1736 18.8145 89.1499C18.8542 89.1262 20.2405 86.7055 20.2405 86.7055Z" fill="#FFD8CC"/>
<path d="M44.7287 131.837L46.4474 137.93H43.3824L43.196 137.06C43.196 137.06 42.7234 137.744 41.5203 137.93C40.3171 138.117 34.3875 137.93 34.3875 137.93C34.3875 137.501 34.6906 137.145 35.0849 137.108C37.08 136.919 41.8828 135.96 40.7755 131.154C39.4292 125.309 44.7287 131.837 44.7287 131.837Z" fill="#0388E2"/>
<path d="M31.3719 134.557L32.4392 141.043H29.1762L28.978 140.117C28.978 140.117 28.4748 140.845 27.194 141.043C25.9131 141.242 19.6003 141.043 19.6003 141.043C19.6003 140.586 19.9231 140.207 20.3428 140.167C22.4669 139.966 28.3422 138.945 27.1635 133.829C25.7301 127.607 31.3719 134.557 31.3719 134.557Z" fill="#0388E2"/>
<path d="M54.4209 140.532L53.213 140.529L52.8735 116.074L54.8597 116.079L54.4209 140.532Z" fill="#ABC6D1"/>
<path d="M25.0686 138.364L32.0381 136.673L32.1438 132.345L25.3436 132.142L25.0686 138.364Z" fill="black"/>
<path d="M39.9822 134.699L45.3962 132.927L44.68 129.569L39.8103 129.476L39.9822 134.699Z" fill="black"/>
<path d="M32.6686 112.968L39.5006 132.319H46.1178C46.1178 132.319 46.0319 130.687 44.442 128.309C42.8522 125.931 44.2272 124.019 43.153 121.361C42.0788 118.703 41.5631 115.299 41.5631 115.299L49.4694 116.325L46.2897 105.087C46.2897 105.087 23.817 99.8176 21.4967 105.087C19.1764 110.356 26.4811 135.257 26.4811 135.257H33.0696C33.0696 135.257 33.2129 130.905 31.8379 128.791C30.4629 126.677 32.153 125.698 30.3483 121.827C28.5436 117.957 31.6803 116.465 28.5436 112.594" fill="#0388E2"/>
<path d="M32.6685 112.967L36.3746 113.499L43.7058 118.005L43.9636 122.015C43.9536 121.831 43.2209 121.291 43.0698 121.149C42.7359 120.834 42.3969 120.525 42.0501 120.227C39.8128 118.304 37.2494 117.272 34.5962 116.238C34.4725 116.19 33.4885 115.936 33.4507 115.798C33.4507 115.798 32.6973 113.041 32.6685 112.967Z" fill="black"/>
<path d="M28.5435 112.594C28.5435 112.594 30.715 113.606 30.2566 114.508C29.7984 115.409 26.3035 112.456 26.3035 112.456L28.5435 112.594Z" fill="black"/>
<path d="M47.278 111.506L60.6878 89.8386C60.6878 89.8386 59.1444 71.0538 51.6608 71.6835C44.1902 72.3121 40.106 73.2401 37.3276 74.4769C36.7061 74.7535 36.3675 75.4427 36.1276 76.0592C35.8052 76.8873 35.942 77.6045 35.8445 78.5006C35.7409 79.4531 35.8349 80.4251 35.932 81.3736C36.0661 82.528 36.2876 83.6699 36.5511 84.7971C36.8484 86.0678 37.2022 87.3231 37.5885 88.5654C38.0007 89.8916 38.451 91.2039 38.9261 92.5051C39.409 93.8283 39.9181 95.14 40.446 96.4426C40.9576 97.7047 41.4872 98.9579 42.031 100.204C42.5299 101.347 43.0409 102.484 43.5626 103.615C44.0086 104.583 44.4623 105.545 44.9235 106.504C45.2763 107.236 45.6335 107.967 45.9958 108.694C46.2155 109.135 46.437 109.576 46.6616 110.014C46.7153 110.119 47.2237 111.402 47.278 111.506Z" fill="white"/>
<path d="M40.4505 78.4152C40.4505 78.4152 40.0535 84.3988 37.5613 89.0078L34.6824 83.4049L40.4505 78.4152Z" fill="black"/>
<path d="M54.4209 140.532L53.213 140.529L52.8735 116.074L54.8597 116.079L54.4209 140.532Z" fill="#78C8FF"/>
<path d="M52.4717 120.989C52.4717 120.989 53.4457 121.238 54.9926 119.994C56.5394 118.751 55.9951 116.513 55.9951 116.513L51.7842 117.072L52.4717 120.989Z" fill="black"/>
<path d="M91.4876 75.0917V78.3092C91.4876 78.3092 80.7669 80.9206 80.724 77.4932C80.681 74.0658 79.7142 72.8301 80.3158 70.6385C80.9173 68.4468 82.5214 68.6333 82.722 66.2085C82.9224 63.7837 82.6361 63.7526 83.4667 62.3848C84.2974 61.0168 84.4408 61.8252 85.6439 58.7476C86.847 55.67 87.9642 54.0534 90.399 54.4885C92.8339 54.9239 92.1322 59.3538 89.554 65.9754C86.9759 72.597 86.3456 74.26 86.5605 74.8041C86.7753 75.3482 91.4876 75.0917 91.4876 75.0917Z" fill="white"/>
<path d="M101.42 72.7458C101.385 72.7458 101.356 72.7156 101.356 72.6776L101.298 70.1461C101.297 70.1075 101.325 70.0756 101.361 70.0746C101.397 70.0733 101.426 70.1045 101.427 70.1429L101.484 72.6742C101.485 72.7128 101.457 72.7449 101.422 72.7458H101.42V72.7458Z" fill="white"/>
<path d="M102.149 72.8299C102.136 72.8299 102.123 72.8256 102.111 72.8165C102.083 72.7937 102.076 72.7499 102.097 72.7187L103.573 70.526C103.594 70.4946 103.634 70.4879 103.663 70.5107C103.692 70.5334 103.698 70.5773 103.677 70.6084L102.201 72.8012C102.189 72.8198 102.169 72.8299 102.149 72.8299Z" fill="white"/>
<path d="M100.726 72.9137C100.706 72.9137 100.686 72.9036 100.674 72.885L99.198 70.6922C99.177 70.6611 99.1832 70.6172 99.2121 70.5945C99.2406 70.5717 99.281 70.5784 99.302 70.6098L100.777 72.8025C100.798 72.8337 100.792 72.8775 100.763 72.9003C100.752 72.9094 100.739 72.9137 100.726 72.9137Z" fill="white"/>
<path d="M36.3746 113.499C36.0474 113.457 35.8236 113.851 36.0078 114.147C37.1204 115.94 40.9508 119.788 53.0357 118.657C55.7846 118.399 58.5532 117.712 60.9952 116.281C62.2263 115.56 63.3453 114.648 64.3162 113.555C65.2505 112.503 65.9321 111.205 66.5031 109.877C67.0837 108.526 67.5498 107.122 67.9278 105.689C68.4876 103.568 68.9444 101.411 69.2332 99.2256C69.5025 97.1873 69.826 94.7785 69.299 92.7643C68.6014 90.0977 65.9852 89.6629 63.7614 89.5094C60.432 89.2798 57.21 90.9087 55.2792 93.8711C52.9652 97.4208 52.1213 101.81 50.0528 105.508C48.2029 108.814 45.3589 111.459 42.0621 112.931C40.5515 113.606 39.0409 113.86 37.4079 113.605C37.3057 113.588 36.8188 113.556 36.3746 113.499Z" fill="#022960"/>
<path d="M17.3662 88.441C17.3877 88.371 19.7295 85.4799 19.7295 85.4799L21.8779 87.7182L19.9873 92.1248L17.3662 88.441Z" fill="black"/>
<path d="M37.451 74.4288C38.5433 74.0513 40.7201 74.1917 40.4507 78.4152C40.161 82.9583 36.9412 85.6448 36.5351 87.7466C36.1289 89.8485 36.0336 90.8466 34.4492 92.5163C32.8647 94.1863 32.4952 95.112 31.6281 96.8937C30.7609 98.6755 28.6895 100.567 25.6882 98.2825C22.6868 95.9974 18.135 89.6575 18.135 89.6575L20.2388 85.1684L26.4534 91.0814C26.7717 91.3841 27.2688 91.2735 27.451 90.8591C28.9013 87.5593 34.3861 75.4882 37.451 74.4288Z" fill="white"/>
<path d="M36.3746 113.499C36.0474 113.457 35.8236 113.851 36.0078 114.147C37.1204 115.94 40.9508 119.788 53.0357 118.657C55.7846 118.399 58.5532 117.712 60.9952 116.281C62.2263 115.56 63.3453 114.648 64.3162 113.555C65.2505 112.502 65.9321 111.205 66.5031 109.877C67.0837 108.526 67.5498 107.121 67.9278 105.689C68.4876 103.568 68.9444 101.411 69.2332 99.2256C69.5025 97.1872 69.826 94.7785 69.299 92.7642C68.6014 90.0977 65.9852 89.6629 63.7614 89.5094C60.432 89.2798 57.21 90.9087 55.2792 93.871C52.9652 97.4208 52.1213 101.81 50.0528 105.508C48.2029 108.814 45.3589 111.459 42.0621 112.931C40.5515 113.606 39.0409 113.86 37.4079 113.604C37.3057 113.588 36.8188 113.556 36.3746 113.499Z" fill="#78C8FF"/>
<path d="M66.7442 6.27743C66.7261 6.27743 66.7081 6.26922 66.6952 6.25299C65.9139 5.26647 65.0172 6.01275 64.9794 6.04483C64.9514 6.06871 64.9108 6.06367 64.8888 6.0329C64.8668 6.00268 64.8716 5.95866 64.8996 5.93479C64.9099 5.92602 65.9321 5.07435 66.7932 6.16197C66.8162 6.19126 66.8131 6.23527 66.7861 6.26046C66.7741 6.27202 66.7591 6.27743 66.7442 6.27743Z" fill="black"/>
<path d="M71.8291 22.2485C71.8251 22.2485 71.821 22.2481 71.8169 22.2472C71.7837 22.2403 70.9926 22.0642 70.0044 21.0178C69.0993 20.0596 68.3727 17.846 68.7333 16.0781C68.9828 14.8552 69.7078 13.9831 70.8301 13.5557C70.864 13.5429 70.9008 13.5623 70.9125 13.5986C70.9243 13.635 70.9066 13.6749 70.8731 13.6878C69.7951 14.0983 69.0988 14.9353 68.8594 16.1083C68.5079 17.8307 69.2143 19.9858 70.0947 20.9176C71.0556 21.9349 71.8339 22.1082 71.8416 22.1099C71.8765 22.1172 71.8994 22.1539 71.8927 22.1918C71.8863 22.2253 71.8593 22.2485 71.8291 22.2485Z" fill="black"/>
<path d="M53.779 25.1291C53.7511 25.1291 53.7255 25.1097 53.7173 25.0791L52.8381 21.8913C52.8323 21.8689 52.2775 19.7185 52.3548 17.9551C52.4337 16.1609 53.7063 15.4999 53.7191 15.4935C53.7511 15.4767 53.7896 15.4924 53.8046 15.5273C53.8197 15.5623 53.8056 15.6041 53.7735 15.6204C53.7613 15.6265 52.5587 16.2549 52.4835 17.9616C52.4072 19.7026 52.9564 21.8307 52.962 21.8521L53.8407 25.0392C53.8508 25.0762 53.8316 25.1151 53.7974 25.1261C53.7912 25.1282 53.785 25.1291 53.779 25.1291Z" fill="black"/>
<path d="M49.3565 35.1419C49.3487 35.1419 49.3407 35.1404 49.3329 35.1373C49.2998 35.1229 49.2834 35.0826 49.2965 35.0464L50.8004 30.873C50.8133 30.8372 50.8509 30.8193 50.8839 30.8333C50.9171 30.8476 50.9334 30.8879 50.9204 30.9241L49.4165 35.0976C49.4067 35.125 49.3823 35.1419 49.3565 35.1419Z" fill="black"/>
<path d="M81.2608 13.6917C81.2452 13.6917 81.2293 13.6856 81.217 13.6731C81.1908 13.647 81.1893 13.6026 81.2134 13.5742L84.1997 10.0769C84.2241 10.0487 84.2646 10.0471 84.2908 10.0732C84.3169 10.0993 84.3184 10.1437 84.2944 10.172L81.3081 13.6693C81.2953 13.6843 81.278 13.6917 81.2608 13.6917Z" fill="black"/>
<path d="M66.5792 9.05923C65.9962 9.05923 65.5844 8.79791 65.5656 8.7856C65.535 8.76583 65.5251 8.72292 65.5433 8.68991C65.5615 8.65671 65.6009 8.64514 65.6315 8.66548C65.6363 8.66846 66.1098 8.96932 66.7392 8.91225C66.7743 8.90945 66.8057 8.93799 66.8086 8.97641C66.8116 9.01484 66.7851 9.04841 66.7497 9.05177C66.6914 9.0568 66.6345 9.05923 66.5792 9.05923Z" fill="black"/>
<path d="M62.4358 7.18075C62.4216 7.18075 62.4075 7.17572 62.3956 7.16546C62.0046 6.82598 61.9912 6.06292 62.2404 5.63317C62.3746 5.40244 62.6318 5.34909 62.8953 5.49775C62.9269 5.51547 62.9391 5.55781 62.9228 5.59194C62.9064 5.62664 62.8678 5.63969 62.8358 5.62197C62.6768 5.53207 62.4657 5.50763 62.3496 5.70796C62.1332 6.08082 62.1414 6.76536 62.476 7.05615C62.5039 7.0804 62.5084 7.12423 62.4862 7.15445C62.4735 7.1718 62.4547 7.18075 62.4358 7.18075Z" fill="black"/>
<path d="M66.2288 6.68536C66.2288 6.78832 66.1519 6.87189 66.0569 6.87189C65.962 6.87189 65.885 6.78832 65.885 6.68536C65.885 6.58222 65.962 6.49884 66.0569 6.49884C66.1519 6.49884 66.2288 6.5824 66.2288 6.68536Z" fill="black"/>
<path d="M61.8672 2.98976C61.8628 2.98976 61.8581 2.98938 61.8533 2.98808C61.8188 2.97987 61.7968 2.94275 61.8042 2.90526C61.8122 2.86553 62.0144 1.92732 63.3954 1.46978C63.4291 1.45747 63.4653 1.4791 63.4758 1.51622C63.4861 1.55315 63.467 1.59214 63.4328 1.60333C62.1292 2.0355 61.932 2.92597 61.9301 2.93492C61.9234 2.96756 61.8968 2.98976 61.8672 2.98976Z" fill="black"/>
<path d="M63.1421 2.75678C63.1261 2.75678 63.11 2.75044 63.0974 2.73738C63.0718 2.71052 63.0709 2.66632 63.0955 2.63834C63.1332 2.596 64.0407 1.59642 66.1205 1.57049C66.1506 1.56378 66.1853 1.6009 66.1857 1.63969C66.186 1.6783 66.1575 1.71001 66.1219 1.71039C64.0957 1.73557 63.1974 2.72526 63.1887 2.73533C63.176 2.74951 63.1591 2.75678 63.1421 2.75678Z" fill="black"/>
<path d="M64.7178 3.05203C64.6943 3.05203 64.6716 3.03804 64.6604 3.01379C64.6441 2.97928 64.6568 2.93732 64.6886 2.91978C64.7215 2.90169 65.5112 2.47735 66.8073 2.75807C66.8422 2.76571 66.8647 2.80246 66.8579 2.84033C66.8508 2.87819 66.8166 2.903 66.7819 2.89535C65.5294 2.62284 64.7546 3.04028 64.7469 3.04438C64.7376 3.0496 64.7276 3.05203 64.7178 3.05203Z" fill="black"/>
<path d="M74.2137 19.6215C74.2029 19.6215 74.1919 19.6185 74.1818 19.6123C72.1607 18.3658 71.0762 16.5297 71.0653 16.5112C71.0464 16.4786 71.0554 16.4355 71.0854 16.415C71.1148 16.3939 71.1549 16.4036 71.1745 16.4366C71.185 16.4545 72.2537 18.2621 74.2455 19.4907C74.2765 19.5098 74.2873 19.5525 74.2698 19.5862C74.2579 19.6088 74.2361 19.6215 74.2137 19.6215Z" fill="black"/>
<path d="M78.9404 18.1916C78.937 18.1916 78.9337 18.1913 78.9303 18.1907C77.1257 17.8798 75.8707 16.537 75.8582 16.5236C75.8331 16.4961 75.8331 16.4519 75.8582 16.4245C75.8833 16.3973 75.9242 16.3971 75.9493 16.4243C75.9615 16.4378 77.1885 17.749 78.9504 18.0527C78.9856 18.0586 79.0097 18.0945 79.004 18.1327C78.999 18.167 78.9715 18.1916 78.9404 18.1916Z" fill="black"/>
<path d="M47.6754 27.8638C47.6587 27.8638 47.6422 27.8569 47.6295 27.8431C46.7715 26.9015 45.8363 24.7929 45.7968 24.7037C45.7815 24.6688 45.7951 24.6269 45.8272 24.6105C45.8597 24.5937 45.8979 24.6084 45.9132 24.6431C45.9228 24.6649 46.8784 26.8198 47.7213 27.7446C47.7462 27.7722 47.7461 27.8164 47.7208 27.8437C47.7081 27.8571 47.6917 27.8638 47.6754 27.8638Z" fill="black"/>
<path d="M45.5867 27.7642C45.583 27.7642 45.5794 27.7638 45.5758 27.7633C44.1931 27.5083 43.1007 26.7167 43.0897 26.7087C43.0603 26.6872 43.0524 26.6436 43.0723 26.6115C43.0924 26.5794 43.1323 26.571 43.1618 26.5928C43.1725 26.6007 44.2431 27.3755 45.5973 27.6252C45.6325 27.6318 45.6561 27.6678 45.6501 27.706C45.6446 27.7401 45.6176 27.7642 45.5867 27.7642Z" fill="black"/>
<path d="M59.3808 32.7714C59.357 32.7714 59.3342 32.7572 59.323 32.7326C58.0723 30.0114 57.2012 26.0118 57.1926 25.9717C57.1845 25.934 57.206 25.8963 57.2407 25.8876C57.2753 25.8784 57.31 25.9021 57.3183 25.9396C57.3267 25.9797 58.1945 29.9637 59.4383 32.6703C59.4543 32.7048 59.4412 32.7468 59.4095 32.7641C59.4002 32.769 59.3904 32.7714 59.3808 32.7714Z" fill="black"/>
<path d="M64.1008 32.7059C64.0774 32.7059 64.0547 32.6921 64.0434 32.6681C63.1194 30.7204 62.7273 27.7338 62.7235 27.7039C62.7186 27.6657 62.7433 27.6303 62.7785 27.625C62.8143 27.6193 62.8464 27.6465 62.8512 27.6845C62.855 27.7142 63.244 30.6779 64.158 32.6039C64.1743 32.6384 64.1618 32.6804 64.1302 32.6981C64.1207 32.7033 64.1107 32.7059 64.1008 32.7059Z" fill="black"/>
<path d="M68.7998 35.0096H57.0264C56.9908 35.0096 56.9619 34.9783 56.9619 34.9397C56.9619 34.9011 56.9908 34.8698 57.0264 34.8698H68.7998C68.8354 34.8698 68.8643 34.9011 68.8643 34.9397C68.8643 34.9783 68.8354 35.0096 68.7998 35.0096Z" fill="black"/>
<path d="M58.4871 60.9055C58.4778 60.9055 58.4683 60.9032 58.4594 60.8986C55.497 59.3611 55.2525 57.5628 55.2434 57.4871C55.239 57.4488 55.2639 57.4138 55.2991 57.4089C55.3335 57.4011 55.3667 57.4307 55.3715 57.469C55.3735 57.4869 55.6228 59.2714 58.5149 60.7725C58.547 60.7891 58.5606 60.8309 58.5453 60.8658C58.5342 60.8909 58.5111 60.9055 58.4871 60.9055Z" fill="black"/>
<path d="M69.6422 54.0112C69.6391 54.0112 69.6362 54.011 69.6331 54.0104C66.382 53.5083 65.6517 51.8725 65.6222 51.8031C65.6072 51.7682 65.6213 51.7267 65.6536 51.7104C65.6861 51.694 65.7241 51.7095 65.7392 51.7444C65.7463 51.7608 66.4774 53.3819 69.6513 53.872C69.6865 53.8775 69.7111 53.9129 69.7059 53.9511C69.7015 53.986 69.674 54.0112 69.6422 54.0112Z" fill="black"/>
<path d="M56.3425 53.6766C56.3138 53.6766 56.2868 53.6568 56.2787 53.626C56.2694 53.59 56.2858 53.5533 56.3184 53.5413C56.3418 53.5327 56.3746 53.5314 56.4664 53.5283C57.9963 53.4777 59.3836 52.7818 60.5898 51.4601C60.6149 51.4327 60.6559 51.4325 60.6809 51.4595C60.7064 51.4868 60.7066 51.5312 60.6815 51.5586C59.4512 52.9066 58.0342 53.6163 56.4704 53.6682C56.4209 53.6698 56.3698 53.6715 56.3574 53.6745C56.3524 53.6758 56.3475 53.6766 56.3425 53.6766Z" fill="black"/>
<path d="M54.7815 68.3153C53.9683 68.3153 53.4276 68.086 53.4171 68.0814C53.3841 68.067 53.3681 68.0262 53.3814 67.9904C53.3948 67.9545 53.4321 67.9368 53.4652 67.9517C53.4852 67.9605 55.4789 68.8023 57.5715 67.167C57.6005 67.1447 57.6408 67.1517 57.6614 67.1831C57.6822 67.2144 57.6757 67.2581 57.6468 67.2806C56.5928 68.1043 55.5618 68.3153 54.7815 68.3153Z" fill="black"/>
<path d="M67.4338 60.8322C67.4011 60.8322 67.3731 60.8051 67.3697 60.7691C67.3663 60.7309 67.392 60.6964 67.4274 60.6927C67.4486 60.6902 69.5664 60.4319 71.1193 58.0175C71.1398 57.9856 71.18 57.9778 71.209 58.0002C71.2383 58.0226 71.2453 58.066 71.225 58.0977C69.6365 60.5669 67.4622 60.8294 67.4403 60.8318C67.4381 60.832 67.436 60.8322 67.4338 60.8322Z" fill="black"/>
<path d="M71.4724 67.8333C68.9816 67.8333 67.9668 66.0668 67.9562 66.0477C67.9376 66.0145 67.9474 65.9718 67.9778 65.9517C68.0083 65.9313 68.0478 65.942 68.0663 65.9752C68.0773 65.9951 69.1964 67.9415 72.0016 67.6673C72.0373 67.6623 72.0686 67.6923 72.0714 67.7307C72.0746 67.7692 72.0485 67.8033 72.0129 67.8065C71.8256 67.8251 71.6453 67.8333 71.4724 67.8333Z" fill="black"/>
<path d="M84.2232 79.4423C83.6478 79.4423 80.8251 79.3451 80.6591 77.4426C80.5243 75.9055 80.3629 74.7494 80.233 73.8203C80.1955 73.554 80.161 73.3046 80.1297 73.0683C80.0451 72.429 79.8765 70.2365 81.2464 68.8597L81.2764 68.8295C82.4749 67.6253 82.6908 67.4084 82.7377 64.8694C82.7762 62.8147 83.6179 61.9505 84.121 61.434C84.2602 61.2912 84.3805 61.1677 84.4515 61.0539C84.7486 60.5783 85.1307 59.6559 85.7637 58.1275L86.0592 57.415C86.6668 55.9521 88.3102 54.0134 90.0641 54.2846C91.7692 54.548 91.9629 56.1403 91.9646 56.1564C91.9686 56.1946 91.9437 56.2295 91.9085 56.234C91.8712 56.239 91.8409 56.2112 91.8368 56.173C91.8299 56.1118 91.6508 54.6709 90.0462 54.423C88.3601 54.1645 86.768 56.0495 86.1768 57.4727L85.8813 58.1848C85.2457 59.7203 84.8617 60.6467 84.5584 61.1326C84.4793 61.2589 84.3544 61.387 84.2098 61.5357C83.6899 62.0693 82.9041 62.8762 82.867 64.8724C82.819 67.4707 82.5684 67.7225 81.3646 68.9319L81.3342 68.9623C80.0106 70.2926 80.1756 72.4264 80.2576 73.0487C80.2888 73.2846 80.3236 73.5334 80.3607 73.7992C80.4908 74.73 80.6527 75.8883 80.7874 77.4295C80.9573 79.3744 84.2836 79.3028 84.3173 79.3013H84.319C84.3539 79.3013 84.3824 79.3313 84.3834 79.3694C84.3843 79.408 84.3561 79.4401 84.3205 79.4412C84.3087 79.4416 84.2751 79.4423 84.2232 79.4423Z" fill="black"/>
<path d="M84.342 63.6475H84.341C84.3054 63.6474 84.2767 63.6158 84.2769 63.5772C84.277 63.5388 84.3059 63.5077 84.3413 63.5077H84.3427C84.4152 63.5077 87.7291 63.4849 89.6043 61.1052C89.6273 61.0761 89.6679 61.0722 89.6951 61.0976C89.7222 61.1228 89.7255 61.1668 89.7021 61.1963C87.7893 63.624 84.4204 63.6475 84.342 63.6475Z" fill="black"/>
<path d="M85.4286 73.0761C85.4249 73.0761 85.4215 73.0757 85.4177 73.0752C82.8614 72.6089 81.7745 70.6832 81.7637 70.6638C81.7456 70.6308 81.7554 70.5877 81.786 70.5681C81.8168 70.548 81.8561 70.5588 81.8745 70.5922C81.885 70.6108 82.9441 72.482 85.439 72.9372C85.4743 72.9435 85.498 72.9795 85.4922 73.0179C85.4868 73.0519 85.4595 73.0761 85.4286 73.0761Z" fill="black"/>
<path d="M82.0715 77.6707C82.042 77.6707 82.0153 77.6487 82.0086 77.6161C82.0009 77.5784 82.0227 77.5411 82.0574 77.5325C82.08 77.5271 84.3222 76.9675 85.3782 75.5274C85.4004 75.4973 85.4408 75.4923 85.4686 75.5162C85.4965 75.54 85.5011 75.5841 85.479 75.6143C84.3944 77.0932 82.1087 77.6632 82.0856 77.669C82.081 77.6701 82.0762 77.6707 82.0715 77.6707Z" fill="black"/>
<path d="M90.3579 54.4885C90.3347 54.4885 90.3124 54.475 90.3009 54.4512L88.6586 51.0756C88.6419 51.0417 88.6541 50.9992 88.6857 50.9811C88.7169 50.9637 88.756 50.976 88.7727 51.0105L90.415 54.3859C90.4316 54.42 90.4194 54.4623 90.388 54.4804C90.3785 54.4857 90.3682 54.4885 90.3579 54.4885Z" fill="black"/>
<path d="M76.4458 77.3902C74.4585 77.3902 73.1173 76.5165 73.1005 76.5053C73.0702 76.4854 73.0608 76.4421 73.0793 76.4091C73.0977 76.376 73.1374 76.3658 73.168 76.3861C73.1886 76.3997 75.2752 77.7561 78.0967 77.0432C78.1311 77.0339 78.1661 77.058 78.1742 77.0955C78.1823 77.133 78.1608 77.1706 78.1261 77.1794C77.53 77.3303 76.9656 77.3902 76.4458 77.3902Z" fill="black"/>
<path d="M76.9887 82.0759C76.982 82.0759 76.975 82.0747 76.9684 82.0721C76.9346 82.06 76.9163 82.0205 76.9277 81.9837C76.9469 81.9203 77.0117 81.902 77.1846 81.853C77.7104 81.7034 79.1069 81.3063 80.3724 79.2224C80.392 79.19 80.4324 79.1812 80.4618 79.2027C80.4915 79.2237 80.4998 79.2672 80.4802 79.2995C79.1873 81.4282 77.756 81.835 77.2173 81.9882C77.1427 82.0094 77.0659 82.0315 77.0422 82.0451C77.0301 82.0643 77.01 82.0759 76.9887 82.0759ZM77.0499 82.0279V82.0283V82.0279Z" fill="black"/>
<path d="M90.7354 78.822C90.6998 78.822 90.6709 78.7906 90.6709 78.752V74.918C90.6709 74.8794 90.6998 74.8481 90.7354 74.8481C90.7709 74.8481 90.7998 74.8794 90.7998 74.918V78.752C90.7998 78.7906 90.7709 78.822 90.7354 78.822Z" fill="black"/>
<path d="M105.183 106.698C105.154 106.698 105.128 106.676 105.121 106.644C105.116 106.623 105.006 106.105 104.851 104.442C104.698 102.802 103.633 101.056 103.623 101.039C103.603 101.007 103.611 100.964 103.641 100.942C103.67 100.921 103.71 100.929 103.73 100.961C103.741 100.979 104.823 102.753 104.979 104.428C105.133 106.078 105.246 106.607 105.247 106.612C105.255 106.649 105.233 106.687 105.199 106.696C105.193 106.697 105.188 106.698 105.183 106.698Z" fill="black"/>
<path d="M110.153 111.795H110.152L109.538 111.78C109.089 111.768 108.535 111.38 108.376 110.966L107.111 107.664C107.098 107.629 107.113 107.588 107.146 107.573C107.179 107.558 107.217 107.575 107.23 107.611L108.495 110.912C108.632 111.27 109.15 111.63 109.541 111.64L110.155 111.655C110.19 111.656 110.218 111.688 110.218 111.727C110.217 111.765 110.188 111.795 110.153 111.795Z" fill="black"/>
<path d="M72.1443 91.1761C72.1087 91.1761 72.0798 91.1448 72.0798 91.1062C72.0798 91.0676 72.1087 91.0362 72.1443 91.0362L88.7942 91.0237C88.8297 91.0237 88.8586 91.0551 88.8586 91.0937C88.8586 91.1323 88.8297 91.1636 88.7942 91.1636L72.1443 91.1761Z" fill="black"/>
<path d="M100.755 53.2397C100.721 53.2397 100.692 53.2104 100.691 53.1727C100.651 52.1392 99.7525 52.1262 99.7144 52.1262C99.6788 52.1262 99.6499 52.0948 99.6499 52.0562C99.6499 52.0176 99.6788 51.9863 99.7144 51.9863C99.725 51.9863 100.774 52.0008 100.82 53.1668C100.821 53.2054 100.793 53.238 100.758 53.2397H100.755V53.2397Z" fill="black"/>
<path d="M97.9458 51.0768C95.7042 51.0768 95.5072 49.4831 95.5053 49.4656C95.5012 49.4273 95.5265 49.3928 95.5617 49.3882C95.5968 49.3816 95.6292 49.4111 95.6332 49.4494C95.6411 49.5208 95.8587 51.1937 98.5276 50.9035C98.5678 50.8985 98.5948 50.9279 98.5982 50.966C98.6018 51.0046 98.576 51.0389 98.5406 51.0426C98.3279 51.0658 98.1299 51.0768 97.9458 51.0768Z" fill="black"/>
<path d="M98.5785 49.8631C97.6409 49.8631 96.9503 49.3623 96.94 49.3546C96.9106 49.3328 96.903 49.2895 96.9231 49.2576C96.9432 49.2255 96.9833 49.2177 97.0127 49.2392C97.0273 49.2502 98.5119 50.3225 100.056 49.2382C100.087 49.2175 100.126 49.2267 100.146 49.2589C100.165 49.2914 100.156 49.3347 100.127 49.3555C99.5851 49.7361 99.0506 49.8631 98.5785 49.8631Z" fill="black"/>
<path d="M100.002 50.42C99.967 50.42 99.9382 50.3889 99.938 50.3504C99.9378 50.3118 99.9665 50.2803 100.002 50.2801C100.015 50.2801 101.309 50.2589 101.832 49.1295C101.848 49.0949 101.887 49.0811 101.919 49.0985C101.951 49.1158 101.963 49.1578 101.947 49.1925C101.388 50.3993 100.017 50.42 100.003 50.42H100.002V50.42Z" fill="black"/>
<path d="M98.2269 55.0055C98.2049 55.0055 98.1834 54.9934 98.1714 54.971C97.8288 54.3413 97.873 53.725 97.8749 53.6989C97.8782 53.6607 97.906 53.6334 97.9445 53.6353C97.9799 53.6385 98.0062 53.6724 98.0035 53.7108C98.0029 53.7168 97.9615 54.3103 98.2824 54.9001C98.3003 54.9331 98.2903 54.9762 98.2595 54.9958C98.2492 55.0023 98.2381 55.0055 98.2269 55.0055Z" fill="black"/>
<path d="M100.076 53.3376C99.9908 53.3826 99.888 53.344 99.8466 53.2513C99.8052 53.1588 99.8408 53.047 99.9262 53.0021C100.011 52.9571 100.114 52.9957 100.156 53.0885C100.197 53.1812 100.162 53.2927 100.076 53.3376Z" fill="black"/>
<path d="M102.144 93.0496C102.115 93.0496 102.089 93.0291 102.081 92.9977C102.072 92.9604 102.093 92.9222 102.127 92.9121C102.201 92.8907 103.951 92.3486 104.659 89.1707C104.668 89.1333 104.703 89.1093 104.737 89.1192C104.771 89.1283 104.793 89.166 104.784 89.2035C104.058 92.4613 102.237 93.0248 102.16 93.0472C102.155 93.0489 102.149 93.0496 102.144 93.0496Z" fill="black"/>
<path d="M108.302 100.573H108.299C105.088 100.417 104.383 98.7669 104.355 98.6968C104.34 98.6615 104.355 98.6203 104.387 98.6046C104.42 98.5893 104.458 98.6052 104.472 98.6402C104.479 98.6568 105.182 100.281 108.305 100.433C108.341 100.434 108.368 100.467 108.367 100.506C108.365 100.543 108.336 100.573 108.302 100.573Z" fill="black"/>
<path d="M93.5993 47.4205C93.5821 47.4205 93.5649 47.4131 93.5524 47.3985C93.528 47.3702 93.5293 47.326 93.5553 47.2997L96.2752 44.5322C96.301 44.5056 96.3421 44.5072 96.3663 44.5352C96.3907 44.5636 96.3893 44.6078 96.3634 44.6343L93.6435 47.4015C93.6309 47.4144 93.6151 47.4205 93.5993 47.4205Z" fill="black"/>
<path d="M122.477 57.1679H113.188C111.909 57.1679 110.872 56.0424 110.872 54.6537V49.8974C110.872 48.5091 111.909 47.3834 113.188 47.3834H122.477C123.756 47.3834 124.794 48.5091 124.794 49.8974V54.6537C124.794 56.0424 123.757 57.1679 122.477 57.1679Z" fill="#94D9FF"/>
<path d="M117.764 53.7637C117.444 53.7637 117.124 53.6391 116.872 53.391L111.537 48.1407C111.511 48.115 111.508 48.0708 111.533 48.0421C111.556 48.0135 111.597 48.0115 111.623 48.0374L116.959 53.2875C117.405 53.7267 118.087 53.7366 118.544 53.3104L124.102 48.1267C124.129 48.1014 124.169 48.1045 124.193 48.1342C124.216 48.1637 124.213 48.2077 124.186 48.2329L118.628 53.4165C118.38 53.6482 118.072 53.7637 117.764 53.7637Z" fill="white"/>
<path d="M111.137 56.4897C111.121 56.4897 111.104 56.483 111.091 56.4694C111.066 56.4419 111.066 56.3975 111.091 56.3701L115.328 51.7723C115.353 51.7451 115.394 51.7451 115.419 51.7723C115.444 51.7995 115.444 51.8441 115.419 51.8714L111.183 56.4694C111.17 56.483 111.154 56.4897 111.137 56.4897Z" fill="white"/>
<path d="M124.542 56.5205C124.525 56.5205 124.509 56.5137 124.496 56.5001L120.26 51.9023C120.234 51.8751 120.234 51.8305 120.26 51.8033C120.285 51.7759 120.326 51.7759 120.351 51.8033L124.587 56.4009C124.612 56.4283 124.612 56.4727 124.587 56.5001C124.575 56.5137 124.558 56.5205 124.542 56.5205Z" fill="white"/>
<path d="M39.3447 83.7779C39.3387 83.7779 39.3326 83.7769 39.3268 83.7751C39.2926 83.7643 39.2728 83.7255 39.2828 83.6885C39.2912 83.6564 40.1389 80.4798 40.3055 79.2438C40.3856 78.6503 40.72 75.6456 39.4409 74.7671C38.3186 73.9962 36.9417 74.6186 36.9279 74.6246C36.8948 74.6399 36.8571 74.6233 36.8434 74.5879C36.8293 74.5524 36.8446 74.5112 36.8772 74.4961C36.936 74.4687 38.3292 73.8382 39.5099 74.649C40.8226 75.5505 40.5483 78.4093 40.4332 79.2642C40.2651 80.5094 39.4151 83.6952 39.4066 83.7273C39.3983 83.7579 39.3727 83.7779 39.3447 83.7779Z" fill="black"/>
<path d="M34.124 88.8839C34.1065 88.8839 34.0891 88.8763 34.0764 88.8612C32.2293 86.6701 32.8081 82.5492 32.8143 82.5078C32.82 82.4696 32.853 82.4446 32.8881 82.4496C32.9231 82.4556 32.9472 82.4916 32.9415 82.5296C32.9355 82.5705 32.3664 86.6255 34.1716 88.7666C34.1957 88.795 34.1938 88.8394 34.1675 88.8653C34.1551 88.878 34.1395 88.8839 34.124 88.8839Z" fill="black"/>
<path d="M30.0851 96.6247C30.0632 96.6247 30.0418 96.6127 30.0297 96.5907C29.0048 94.7371 28.4803 92.1653 28.4751 92.1397C28.4676 92.102 28.4896 92.0647 28.5243 92.0565C28.5592 92.0481 28.5935 92.0724 28.6011 92.1099C28.6063 92.1354 29.1265 94.6852 30.1402 96.5187C30.1586 96.5519 30.1487 96.5948 30.1181 96.6148C30.1078 96.6213 30.0962 96.6247 30.0851 96.6247Z" fill="black"/>
<path d="M25.2295 96.6247C25.1939 96.6247 25.165 96.5933 25.165 96.5547C25.165 96.5383 25.1784 94.877 26.3319 92.3272C26.3474 92.2925 26.3862 92.2781 26.418 92.2951C26.45 92.3123 26.4632 92.354 26.4474 92.3887C25.3087 94.9062 25.2939 96.5385 25.2939 96.5547C25.2939 96.5933 25.2651 96.6247 25.2295 96.6247Z" fill="black"/>
<path d="M48.8336 102.815C48.8224 102.815 48.8111 102.812 48.8006 102.805C45.6189 100.743 43.5897 97.9934 43.5696 97.966C43.5476 97.9356 43.5521 97.8918 43.5801 97.8677C43.6079 97.8438 43.6487 97.8488 43.6707 97.8791C43.6906 97.9063 45.7062 100.637 48.8668 102.685C48.8974 102.705 48.9073 102.748 48.889 102.781C48.8769 102.803 48.8556 102.815 48.8336 102.815Z" fill="black"/>
<path d="M51.2242 96.7489C51.2173 96.7489 51.2104 96.7478 51.2037 96.7452C47.1827 95.2881 44.1185 91.6706 44.0881 91.6343C44.064 91.6057 44.0661 91.5615 44.0924 91.5356C44.1187 91.5095 44.1596 91.5113 44.1835 91.5402C44.2137 91.5762 47.2563 95.1674 51.2446 96.6128C51.2783 96.6247 51.2965 96.6642 51.2852 96.7012C51.2764 96.7303 51.2512 96.7489 51.2242 96.7489Z" fill="black"/>
<path d="M24.1982 118.51C24.1641 118.51 24.1358 118.481 24.1339 118.444C24.132 118.405 24.1591 118.372 24.1947 118.37C24.226 118.368 27.3323 118.154 28.8995 115.542C28.9189 115.509 28.9589 115.5 28.9887 115.522C29.0184 115.542 29.0268 115.586 29.0074 115.618C27.404 118.291 24.2336 118.508 24.2018 118.51C24.2006 118.51 24.1994 118.51 24.1982 118.51Z" fill="black"/>
<path d="M29.2965 124.96C27.0623 124.96 25.2644 123.299 25.2448 123.28C25.2178 123.255 25.2149 123.211 25.2381 123.182C25.2614 123.153 25.3022 123.15 25.329 123.175C25.3499 123.194 27.457 125.138 29.9187 124.775C29.9538 124.769 29.9864 124.796 29.9913 124.834C29.9961 124.873 29.9715 124.908 29.9363 124.913C29.7199 124.945 29.5064 124.96 29.2965 124.96Z" fill="black"/>
<path d="M30.7816 132.073C27.0618 132.073 26.0944 129.001 26.0847 128.969C26.0737 128.933 26.0921 128.893 26.126 128.881C26.16 128.869 26.1963 128.889 26.2073 128.926C26.2171 128.958 27.2184 132.121 31.1275 131.924C31.1624 131.926 31.1932 131.952 31.1947 131.991C31.1965 132.029 31.169 132.062 31.1334 132.064C31.0138 132.07 30.896 132.073 30.7816 132.073Z" fill="black"/>
<path d="M37.9482 124.603C37.9127 124.603 37.8838 124.572 37.8838 124.533C37.8838 124.495 37.9125 124.463 37.9482 124.463C37.9702 124.463 40.1682 124.427 41.7895 121.636C41.8084 121.603 41.8481 121.593 41.8785 121.614C41.9086 121.635 41.9175 121.678 41.8986 121.711C40.2374 124.57 37.9709 124.603 37.9482 124.603Z" fill="black"/>
<path d="M43.1478 129.705C41.1455 129.705 39.4673 127.836 39.4487 127.815C39.424 127.787 39.4248 127.743 39.4504 127.716C39.476 127.689 39.5169 127.69 39.5417 127.718C39.562 127.741 41.605 130.013 43.8348 129.485C43.8686 129.476 43.9039 129.501 43.9114 129.539C43.9192 129.576 43.897 129.614 43.8623 129.622C43.6211 129.679 43.3822 129.705 43.1478 129.705Z" fill="black"/>
<path d="M46.2268 131.31H38.9221C38.8865 131.31 38.8577 131.279 38.8577 131.24C38.8577 131.202 38.8865 131.17 38.9221 131.17H46.2268C46.2624 131.17 46.2913 131.202 46.2913 131.24C46.2913 131.279 46.2624 131.31 46.2268 131.31Z" fill="black"/>
<path d="M33.6514 134.186H25.5732C25.5377 134.186 25.5088 134.155 25.5088 134.116C25.5088 134.077 25.5377 134.046 25.5732 134.046H33.6514C33.6869 134.046 33.7158 134.077 33.7158 134.116C33.7158 134.155 33.6869 134.186 33.6514 134.186Z" fill="black"/>
<path d="M18.4833 91.029C18.4738 91.029 18.4642 91.0267 18.4551 91.0219C18.4231 91.0049 18.4099 90.9631 18.4255 90.9283L20.9058 85.4258C20.9217 85.3913 20.9605 85.3764 20.9921 85.3937C21.0241 85.4107 21.0373 85.4527 21.0217 85.4874L18.5412 90.9898C18.53 91.0146 18.5072 91.029 18.4833 91.029Z" fill="black"/>
<path d="M36.5505 63.3522C36.5371 63.3522 36.5235 63.3478 36.512 63.3383C36.4834 63.3151 36.4776 63.2713 36.4989 63.2403C37.2907 62.0925 38.3632 62.868 38.3741 62.8761C38.4035 62.8979 38.411 62.9413 38.3909 62.9732C38.3708 63.0053 38.3309 63.0133 38.3014 62.9915C38.2617 62.962 37.3193 62.285 36.6022 63.3243C36.5895 63.3426 36.5701 63.3522 36.5505 63.3522Z" fill="black"/>
<path d="M37.4126 67.1094C37.3811 67.1094 37.3534 67.0842 37.3488 67.0495C37.3438 67.0113 37.3682 66.9757 37.4034 66.9703C38.187 66.847 38.7073 66.417 38.7124 66.4128C38.7406 66.3889 38.781 66.3947 38.8029 66.4253C38.8247 66.4558 38.8195 66.4997 38.7913 66.5234C38.7692 66.542 38.2388 66.9804 37.4218 67.1087C37.4187 67.1092 37.4157 67.1094 37.4126 67.1094Z" fill="black"/>
<path d="M37.1641 63.6334C37.1641 63.7363 37.2411 63.8199 37.3359 63.8199C37.4308 63.8199 37.5078 63.7363 37.5078 63.6334C37.5078 63.5302 37.4308 63.4468 37.3359 63.4468C37.2411 63.4468 37.1641 63.5302 37.1641 63.6334Z" fill="black"/>
<path d="M41.7535 63.6334C41.7363 63.6334 41.7191 63.6259 41.7066 63.6114C41.6822 63.583 41.6834 63.5388 41.7095 63.5125C41.8846 63.3342 42.1888 62.9755 42.2574 62.575C42.3098 62.2695 42.1357 61.9485 41.8609 61.8439C41.551 61.7262 41.241 61.9496 41.0699 62.1772C41.0474 62.2072 41.0067 62.2115 40.9794 62.1872C40.9517 62.1628 40.9476 62.1188 40.9701 62.0888C41.1674 61.8261 41.5302 61.5689 41.9035 61.712C42.2368 61.8388 42.448 62.2292 42.3841 62.6006C42.3088 63.0402 41.9843 63.4246 41.7975 63.6143C41.7851 63.6272 41.7693 63.6334 41.7535 63.6334Z" fill="black"/>
<path d="M38.9151 59.4132C36.9559 59.4132 36.3794 58.8121 36.3559 58.7867C36.3306 58.7593 36.3306 58.7149 36.3559 58.6875C36.381 58.6602 36.4219 58.6602 36.4468 58.6875C36.4568 58.6977 37.0276 59.2733 38.9151 59.2733C38.9507 59.2733 38.9795 59.3047 38.9795 59.3433C38.9795 59.3819 38.9507 59.4132 38.9151 59.4132Z" fill="black"/>
<path d="M39.9107 58.4394C38.7191 58.4394 37.866 58.0039 37.8558 57.9987C37.8238 57.9821 37.8103 57.9401 37.8257 57.9054C37.8409 57.8705 37.8794 57.8554 37.9117 57.8726C37.9234 57.8785 39.0959 58.4754 40.6034 58.2482C40.639 58.2426 40.6711 58.2697 40.6761 58.3077C40.6809 58.346 40.6563 58.3812 40.6211 58.3866C40.3745 58.4238 40.1364 58.4394 39.9107 58.4394Z" fill="black"/>
<path d="M39.7084 59.9163C39.6764 59.9163 39.6487 59.8906 39.6446 59.8555C39.64 59.8173 39.6647 59.782 39.7001 59.777C39.7151 59.7749 41.2063 59.5569 41.8207 59.0411C41.8492 59.0176 41.8895 59.0232 41.9111 59.0536C41.9329 59.0842 41.9278 59.1281 41.8996 59.1518C41.2576 59.6906 39.7795 59.9068 39.7168 59.9158C39.714 59.9161 39.7111 59.9163 39.7084 59.9163Z" fill="black"/>
<path d="M26.2371 50.149H17.2136C17.1187 50.149 17.0417 50.0656 17.0417 49.9625C17.0417 49.8593 17.1187 49.7759 17.2136 49.7759H26.2371C26.3319 49.7759 26.4089 49.8593 26.4089 49.9625C26.4089 50.0656 26.3319 50.149 26.2371 50.149Z" fill="#6DB9F3"/>
<path d="M26.2371 51.3469H17.2136C17.1187 51.3469 17.0417 51.2635 17.0417 51.1603C17.0417 51.0572 17.1187 50.9738 17.2136 50.9738H26.2371C26.3319 50.9738 26.4089 51.0572 26.4089 51.1603C26.4089 51.2635 26.3319 51.3469 26.2371 51.3469Z" fill="#6DB9F3"/>
<path d="M26.2371 52.5447H17.2136C17.1187 52.5447 17.0417 52.4613 17.0417 52.3582C17.0417 52.255 17.1187 52.1716 17.2136 52.1716H26.2371C26.3319 52.1716 26.4089 52.255 26.4089 52.3582C26.4089 52.4613 26.3319 52.5447 26.2371 52.5447Z" fill="#6DB9F3"/>
<path d="M26.2371 53.7426H17.2136C17.1187 53.7426 17.0417 53.6592 17.0417 53.556C17.0417 53.4529 17.1187 53.3695 17.2136 53.3695H26.2371C26.3319 53.3695 26.4089 53.4529 26.4089 53.556C26.4089 53.6592 26.3319 53.7426 26.2371 53.7426Z" fill="#6DB9F3"/>
<path d="M26.2371 54.9402H17.2136C17.1187 54.9402 17.0417 54.8569 17.0417 54.7537C17.0417 54.6506 17.1187 54.5672 17.2136 54.5672H26.2371C26.3319 54.5672 26.4089 54.6506 26.4089 54.7537C26.4089 54.8571 26.3319 54.9402 26.2371 54.9402Z" fill="#6DB9F3"/>
</g>
<defs>
<clipPath id="clip0_201_1340">
<rect width="127" height="142" fill="white"/>
</clipPath>
</defs>
</svg>
