<svg width="36" height="36" viewBox="0 0 36 36" fill="none" xmlns="http://www.w3.org/2000/svg">
<path d="M18 36C27.9411 36 36 27.9411 36 18C36 8.05887 27.9411 0 18 0C8.05887 0 0 8.05887 0 18C0 27.9411 8.05887 36 18 36Z" fill="#FFCC4D"/>
<path d="M20.9972 27C20.8942 27 20.7912 26.984 20.6882 26.951C18.9282 26.38 17.0732 26.38 15.3132 26.951C14.7892 27.12 14.2242 26.834 14.0532 26.309C13.8822 25.784 14.1702 25.22 14.6962 25.049C16.8582 24.347 19.1432 24.347 21.3052 25.049C21.8302 25.22 22.1182 25.784 21.9482 26.309C21.8112 26.73 21.4192 27 20.9972 27Z" fill="#65471B"/>
<path d="M30.336 12.068C29.433 14.813 26.851 16.783 23.842 16.783C23.698 16.783 23.553 16.778 23.407 16.769C21.93 16.676 20.565 16.114 19.457 15.185C19.493 15.68 19.533 16.182 19.593 16.725C19.745 18.113 20.477 19.207 21.709 19.888C22.529 20.342 23.509 20.576 24.522 20.64C26.256 20.749 28.092 20.36 29.395 19.731C30.772 19.066 31.667 17.869 31.851 16.446C32.034 15.031 31.497 13.522 30.336 12.068V12.068Z" fill="white"/>
<path d="M21.352 7.58305C20.055 8.13305 19.405 9.88405 19.375 12.8721L19.414 12.9401C20.311 14.2591 21.787 15.1641 23.502 15.2721C23.616 15.2791 23.73 15.2831 23.843 15.2831C26.477 15.2831 28.692 13.3461 29.096 10.7591C28.981 10.6541 28.875 10.5471 28.753 10.4431C25.038 7.27305 22.286 7.18605 21.352 7.58305V7.58305Z" fill="#65471B"/>
<path d="M23.8401 16.783C26.8491 16.783 29.4311 14.813 30.3341 12.068C29.9801 11.625 29.5631 11.188 29.0931 10.759C28.6891 13.346 26.4741 15.283 23.8401 15.283C23.7271 15.283 23.6131 15.279 23.4991 15.272C21.7841 15.164 20.3081 14.259 19.4111 12.94L19.3721 12.872C19.3651 13.573 19.3931 14.345 19.4551 15.185C20.5631 16.114 21.9281 16.676 23.4051 16.769C23.5511 16.779 23.6961 16.783 23.8401 16.783V16.783Z" fill="#F4900C"/>
<path d="M21.4117 11.812C22.0231 11.812 22.5187 11.3164 22.5187 10.705C22.5187 10.0936 22.0231 9.59802 21.4117 9.59802C20.8003 9.59802 20.3047 10.0936 20.3047 10.705C20.3047 11.3164 20.8003 11.812 21.4117 11.812Z" fill="white"/>
<path d="M12.1571 16.783C9.14807 16.783 6.56607 14.813 5.66307 12.068C4.50207 13.522 3.96607 15.031 4.14807 16.445C4.33307 17.868 5.22707 19.066 6.60407 19.73C7.90707 20.359 9.74207 20.748 11.4771 20.639C12.4901 20.575 13.4701 20.342 14.2901 19.887C15.5211 19.206 16.2531 18.112 16.4061 16.724C16.4661 16.182 16.5061 15.682 16.5421 15.188C15.4391 16.111 14.0721 16.675 12.5921 16.768C12.4461 16.779 12.3011 16.783 12.1571 16.783V16.783Z" fill="white"/>
<path d="M12.1593 15.2829C12.2723 15.2829 12.3862 15.2789 12.5002 15.2719C14.2152 15.1639 15.6912 14.2589 16.5882 12.9399L16.6273 12.8719C16.5963 9.88395 15.9472 8.13295 14.6502 7.58295C13.7162 7.18595 10.9632 7.27295 7.24925 10.4419C7.12725 10.5459 7.02225 10.6529 6.90625 10.7579C7.31025 13.3459 9.52525 15.2829 12.1593 15.2829V15.2829Z" fill="#65471B"/>
<path d="M16.6261 12.872L16.5871 12.94C15.6901 14.259 14.2141 15.164 12.4991 15.272C12.3851 15.279 12.2711 15.283 12.1581 15.283C9.52406 15.283 7.30906 13.346 6.90506 10.759C6.43506 11.188 6.01806 11.625 5.66406 12.068C6.56706 14.813 9.14906 16.783 12.1581 16.783C12.3021 16.783 12.4471 16.778 12.5931 16.769C14.0731 16.676 15.4401 16.112 16.5431 15.189C16.6051 14.348 16.6341 13.575 16.6261 12.872V12.872Z" fill="#F4900C"/>
<path d="M9.78265 11.81C10.3926 11.772 10.8566 11.246 10.8176 10.636C10.7796 10.026 10.2536 9.56196 9.64365 9.59996C9.03365 9.63796 8.56965 10.164 8.60765 10.774C8.64665 11.384 9.17265 11.848 9.78265 11.81V11.81Z" fill="white"/>
</svg>
