<svg width="36" height="36" viewBox="0 0 36 36" fill="none" xmlns="http://www.w3.org/2000/svg">
<path d="M36 18C36 27.941 27.941 36 18 36C8.059 36 0 27.941 0 18C0 8.059 8.059 0 18 0C27.941 0 36 8.059 36 18Z" fill="url(#paint0_linear_199_5718)"/>
<path d="M19.9999 13C19.9449 13 19.8909 12.996 19.8349 12.986C19.2899 12.895 18.9219 12.38 19.0129 11.835C19.4059 9.471 21.5829 5 26.9989 5C27.5519 5 27.9989 5.448 27.9989 6C27.9989 6.552 27.5519 7 26.9989 7C21.9039 7 21.0199 11.954 20.9849 12.165C20.9039 12.653 20.4799 13 19.9999 13ZM15.9979 13C15.5189 13 15.0959 12.655 15.0129 12.167C14.9759 11.957 14.0579 7 8.99887 7C8.44687 7 7.99887 6.552 7.99887 6C7.99887 5.448 8.44687 5 8.99887 5C14.4149 5 16.5909 9.471 16.9849 11.835C17.0759 12.38 16.7079 12.895 16.1629 12.986C16.1079 12.996 16.0519 13 15.9979 13ZM11.4089 17.892C9.07387 17.892 7.53887 16.895 7.44487 16.832C6.98587 16.526 6.86187 15.905 7.16787 15.445C7.47387 14.985 8.09387 14.86 8.55487 15.168C8.65387 15.232 11.1569 16.804 14.5529 15.106C15.0479 14.859 15.6479 15.06 15.8949 15.553C16.1419 16.047 15.9419 16.648 15.4479 16.895C13.9529 17.641 12.5799 17.892 11.4089 17.892V17.892ZM24.5899 17.892C23.4179 17.892 22.0449 17.641 20.5519 16.894C20.0579 16.647 19.8579 16.046 20.1049 15.552C20.3529 15.058 20.9529 14.858 21.4469 15.105C24.8469 16.805 27.3459 15.231 27.4509 15.164C27.9109 14.866 28.5319 14.994 28.8329 15.453C29.1349 15.912 29.0119 16.527 28.5549 16.832C28.4589 16.895 26.9239 17.892 24.5899 17.892V17.892ZM25.9999 27C25.6949 27 25.3959 26.862 25.1989 26.6C25.1739 26.566 22.4169 23 17.9989 23C13.5819 23 10.8249 26.566 10.7969 26.603C10.4639 27.041 9.83587 27.128 9.39687 26.797C8.95687 26.465 8.86787 25.841 9.19887 25.4C9.33387 25.22 12.5609 21 17.9989 21C23.4369 21 26.6639 25.221 26.7989 25.4C27.1309 25.841 27.0409 26.468 26.5989 26.799C26.4189 26.935 26.2089 27 25.9999 27V27Z" fill="#664500"/>
<path d="M15.3907 20.0799C14.9377 19.8849 14.4117 20.0529 14.1517 20.4699L9.15172 28.4699C8.95972 28.7789 8.94872 29.167 9.12572 29.485C9.30172 29.803 9.63572 29.9999 9.99972 29.9999H12.9997C13.4587 29.9999 13.8587 29.688 13.9697 29.242L15.9697 21.242C16.0887 20.766 15.8437 20.2719 15.3907 20.0799V20.0799ZM26.8477 28.4699L21.8477 20.4699C21.5857 20.0519 21.0607 19.8859 20.6097 20.0799C20.1567 20.2719 19.9107 20.766 20.0307 21.242L22.0307 29.242C22.1417 29.688 22.5407 29.9999 22.9997 29.9999H25.9997C26.3627 29.9999 26.6977 29.8029 26.8747 29.4839C27.0507 29.1669 27.0407 28.7779 26.8477 28.4699V28.4699Z" fill="#F5F8FA"/>
<path d="M31.982 30.178C31.985 30.118 32 30.061 32 30C32 28.344 30.656 27 29 27C27.973 27 27.068 27.518 26.527 28.305C26.057 28.11 25.541 28 25 28C22.791 28 21 29.791 21 32C21 34.209 22.791 36 25 36C26.365 36 27.568 35.313 28.29 34.269C28.77 35.289 29.798 36 31 36C32.657 36 34 34.657 34 33C34 31.688 33.154 30.586 31.982 30.178ZM11 28C10.458 28 9.944 28.11 9.473 28.305C8.932 27.518 8.027 27 7 27C5.344 27 4 28.344 4 30C4 30.061 4.014 30.118 4.018 30.178C2.846 30.586 2 31.688 2 33C2 34.657 3.343 36 5 36C6.202 36 7.231 35.289 7.709 34.269C8.432 35.313 9.634 36 11 36C13.209 36 15 34.209 15 32C15 29.791 13.209 28 11 28Z" fill="#E1E8ED"/>
<path d="M36 18C36 27.941 27.941 36 18 36C8.059 36 0 27.941 0 18C0 8.059 8.059 0 18 0C27.941 0 36 8.059 36 18Z" fill="url(#paint1_linear_199_5718)"/>
<path d="M19.9999 13C19.9449 13 19.8909 12.996 19.8349 12.986C19.2899 12.895 18.9219 12.38 19.0129 11.835C19.4059 9.471 21.5829 5 26.9989 5C27.5519 5 27.9989 5.448 27.9989 6C27.9989 6.552 27.5519 7 26.9989 7C21.9039 7 21.0199 11.954 20.9849 12.165C20.9039 12.653 20.4799 13 19.9999 13ZM15.9979 13C15.5189 13 15.0959 12.655 15.0129 12.167C14.9759 11.957 14.0579 7 8.99887 7C8.44687 7 7.99887 6.552 7.99887 6C7.99887 5.448 8.44687 5 8.99887 5C14.4149 5 16.5909 9.471 16.9849 11.835C17.0759 12.38 16.7079 12.895 16.1629 12.986C16.1079 12.996 16.0519 13 15.9979 13ZM11.4089 17.892C9.07387 17.892 7.53887 16.895 7.44487 16.832C6.98587 16.526 6.86187 15.905 7.16787 15.445C7.47387 14.985 8.09387 14.86 8.55487 15.168C8.65387 15.232 11.1569 16.804 14.5529 15.106C15.0479 14.859 15.6479 15.06 15.8949 15.553C16.1419 16.047 15.9419 16.648 15.4479 16.895C13.9529 17.641 12.5799 17.892 11.4089 17.892V17.892ZM24.5899 17.892C23.4179 17.892 22.0449 17.641 20.5519 16.894C20.0579 16.647 19.8579 16.046 20.1049 15.552C20.3529 15.058 20.9529 14.858 21.4469 15.105C24.8469 16.805 27.3459 15.231 27.4509 15.164C27.9109 14.866 28.5319 14.994 28.8329 15.453C29.1349 15.912 29.0119 16.527 28.5549 16.832C28.4589 16.895 26.9239 17.892 24.5899 17.892V17.892ZM25.9999 27C25.6949 27 25.3959 26.862 25.1989 26.6C25.1739 26.566 22.4169 23 17.9989 23C13.5819 23 10.8249 26.566 10.7969 26.603C10.4639 27.041 9.83587 27.128 9.39687 26.797C8.95687 26.465 8.86787 25.841 9.19887 25.4C9.33387 25.22 12.5609 21 17.9989 21C23.4369 21 26.6639 25.221 26.7989 25.4C27.1309 25.841 27.0409 26.468 26.5989 26.799C26.4189 26.935 26.2089 27 25.9999 27V27Z" fill="#664500"/>
<path d="M15.3907 20.0799C14.9377 19.8849 14.4117 20.0529 14.1517 20.4699L9.15172 28.4699C8.95972 28.7789 8.94872 29.167 9.12572 29.485C9.30172 29.803 9.63572 29.9999 9.99972 29.9999H12.9997C13.4587 29.9999 13.8587 29.688 13.9697 29.242L15.9697 21.242C16.0887 20.766 15.8437 20.2719 15.3907 20.0799V20.0799ZM26.8477 28.4699L21.8477 20.4699C21.5857 20.0519 21.0607 19.8859 20.6097 20.0799C20.1567 20.2719 19.9107 20.766 20.0307 21.242L22.0307 29.242C22.1417 29.688 22.5407 29.9999 22.9997 29.9999H25.9997C26.3627 29.9999 26.6977 29.8029 26.8747 29.4839C27.0507 29.1669 27.0407 28.7779 26.8477 28.4699V28.4699Z" fill="#F5F8FA"/>
<path d="M31.982 30.178C31.985 30.118 32 30.061 32 30C32 28.344 30.656 27 29 27C27.973 27 27.068 27.518 26.527 28.305C26.057 28.11 25.541 28 25 28C22.791 28 21 29.791 21 32C21 34.209 22.791 36 25 36C26.365 36 27.568 35.313 28.29 34.269C28.77 35.289 29.798 36 31 36C32.657 36 34 34.657 34 33C34 31.688 33.154 30.586 31.982 30.178ZM11 28C10.458 28 9.944 28.11 9.473 28.305C8.932 27.518 8.027 27 7 27C5.344 27 4 28.344 4 30C4 30.061 4.014 30.118 4.018 30.178C2.846 30.586 2 31.688 2 33C2 34.657 3.343 36 5 36C6.202 36 7.231 35.289 7.709 34.269C8.432 35.313 9.634 36 11 36C13.209 36 15 34.209 15 32C15 29.791 13.209 28 11 28Z" fill="#E1E8ED"/>
<defs>
<linearGradient id="paint0_linear_199_5718" x1="18" y1="0" x2="18" y2="36" gradientUnits="userSpaceOnUse">
<stop stop-color="#FF8D4D"/>
<stop offset="0.666667" stop-color="#FFCC4D" stop-opacity="0"/>
</linearGradient>
<linearGradient id="paint1_linear_199_5718" x1="18" y1="0" x2="18" y2="36" gradientUnits="userSpaceOnUse">
<stop stop-color="#FF8D4D"/>
<stop offset="1" stop-color="#F7B000" stop-opacity="0"/>
</linearGradient>
</defs>
</svg>
