<svg width="36" height="36" viewBox="0 0 36 36" fill="none" xmlns="http://www.w3.org/2000/svg">
<path d="M36 18C36 27.941 27.941 36 18 36C8.059 36 0 27.941 0 18C0 8.059 8.059 0 18 0C27.941 0 36 8.059 36 18Z" fill="#FFCC4D"/>
<path d="M17.9992 21.8491C15.0332 21.8491 13.0642 21.5031 10.6302 21.0301C10.0732 20.9241 8.99219 21.0301 8.99219 22.6681C8.99219 25.9431 12.7552 30.0371 17.9992 30.0371C23.2432 30.0371 27.0062 25.9431 27.0062 22.6681C27.0062 21.0301 25.9242 20.9231 25.3682 21.0301C22.9342 21.5031 20.9662 21.8491 17.9992 21.8491Z" fill="#664500"/>
<path d="M16.6514 3.28096C15.7924 0.849963 13.1274 -0.426037 10.6954 0.430963C9.21936 0.950963 8.17436 2.14196 7.76736 3.53496C6.57636 2.70596 5.01636 2.43496 3.54236 2.95496C1.11236 3.81296 -0.165642 6.47996 0.693358 8.91096C0.815358 9.25496 0.977358 9.57396 1.16536 9.86896C3.11636 13.451 8.75336 15.969 12.1664 16C14.8034 13.833 17.6124 8.33496 16.8844 4.32296C16.8464 3.97496 16.7714 3.62496 16.6514 3.28096V3.28096ZM19.3514 3.28096C20.2104 0.849963 22.8764 -0.426037 25.3074 0.430963C26.7834 0.950963 27.8284 2.14196 28.2364 3.53496C29.4274 2.70596 30.9874 2.43496 32.4614 2.95496C34.8914 3.81296 36.1684 6.47996 35.3114 8.91096C35.1884 9.25496 35.0274 9.57396 34.8384 9.86896C32.8874 13.451 27.2504 15.969 23.8364 16C21.1994 13.833 18.3914 8.33496 19.1194 4.32296C19.1564 3.97496 19.2314 3.62496 19.3514 3.28096V3.28096Z" fill="#DD2E44"/>
</svg>
