<svg width="54" height="54" viewBox="0 0 54 54" fill="none" xmlns="http://www.w3.org/2000/svg">
<rect x="1.5" y="1.5" width="50.0222" height="50.0222" rx="11.5" fill="#FFDA00" stroke="white" stroke-width="3"/>
<g clip-path="url(#clip0_2193_26686)">
<path d="M21.0742 24.6211H25.9243V19.3184H21.7485C21.3596 20.9507 21.1292 22.7477 21.0742 24.6211Z" fill="white" fill-opacity="0.8"/>
<path d="M27.6826 24.6211H32.5327C32.4776 22.7477 32.2473 20.9507 31.8584 19.3184H27.6826V24.6211Z" fill="white" fill-opacity="0.8"/>
<path d="M34.2912 24.6211H41.7779C41.6712 22.7664 41.2285 20.9752 40.4786 19.3184H33.6602C34.0243 20.9734 34.2394 22.766 34.2912 24.6211Z" fill="white" fill-opacity="0.8"/>
<path d="M19.9478 19.3184H13.1293C12.3795 20.9752 11.9367 22.7664 11.8301 24.6211H19.3167C19.3686 22.766 19.5837 20.9734 19.9478 19.3184V19.3184Z" fill="white" fill-opacity="0.8"/>
<path d="M25.9246 12.4316C24.8329 12.8603 23.771 14.0673 22.9175 15.8876C22.6723 16.4106 22.45 16.9703 22.251 17.5602H25.9246V12.4316Z" fill="white" fill-opacity="0.8"/>
<path d="M21.3259 15.1417C22.7294 12.1485 24.6746 10.5 26.8034 10.5C22.7968 10.5 19.03 12.0603 16.1968 14.8934C15.38 15.7102 14.6696 16.6051 14.0713 17.5605H20.406C20.6689 16.6986 20.9761 15.8877 21.3259 15.1417Z" fill="white" fill-opacity="0.8"/>
<path d="M32.2813 15.1417C32.631 15.8876 32.9382 16.6986 33.2011 17.5605H39.5358C38.9374 16.6051 38.2271 15.7102 37.4102 14.8934C34.5772 12.0603 30.8104 10.5 26.8037 10.5C28.9325 10.5 30.8778 12.1485 32.2813 15.1417V15.1417Z" fill="white" fill-opacity="0.8"/>
<path d="M27.6826 12.4316V17.5602H31.3563C31.1572 16.9703 30.935 16.4106 30.6898 15.8876C29.8363 14.0674 28.7745 12.8603 27.6826 12.4316Z" fill="white" fill-opacity="0.8"/>
<path d="M11.8037 26.3789V39.6211C11.8037 40.1065 12.1972 40.5 12.6826 40.5H40.9248C41.4102 40.5 41.8037 40.1065 41.8037 39.6211V26.3789H11.8037ZM19.8529 36.7141C19.5153 36.8196 19.16 36.6895 18.9477 36.3828L16.7236 33.1622V36.0762C16.7236 36.4807 16.3957 36.8087 15.9912 36.8087C15.5867 36.8087 15.2587 36.4807 15.2587 36.0762V30.8127C15.2587 30.4921 15.4672 30.2088 15.7732 30.1134C16.0792 30.0179 16.4116 30.1327 16.5939 30.3965L18.9336 33.7846L18.9048 30.8099C18.9009 30.4054 19.2257 30.0744 19.6301 30.0704H19.6373C20.0386 30.0704 20.3657 30.3937 20.3696 30.7958L20.4189 35.8915V35.8986C20.4189 36.2866 20.1967 36.6067 19.8529 36.7141V36.7141ZM24.2353 32.7071C24.6397 32.7071 24.9677 33.035 24.9677 33.4396C24.9677 33.8441 24.6397 34.172 24.2353 34.172H22.9095V35.3439H24.3991C24.8036 35.3439 25.1315 35.6718 25.1315 36.0763C25.1315 36.4808 24.8036 36.8087 24.3991 36.8087H22.1771C21.7726 36.8087 21.4447 36.4808 21.4447 36.0763V30.8029C21.4447 30.3984 21.7726 30.0704 22.1771 30.0704H24.3991C24.8036 30.0704 25.1315 30.3984 25.1315 30.8029C25.1315 31.2073 24.8036 31.5353 24.3991 31.5353H22.9095V32.7071H24.2353ZM33.1325 30.9555L32.101 36.1385C32.0947 36.17 32.0864 36.201 32.076 36.2314C31.9594 36.5743 31.6378 36.8062 31.2756 36.8087C31.2738 36.8087 31.2718 36.8087 31.2699 36.8087C30.9101 36.8087 30.5882 36.5816 30.4676 36.2422C30.4641 36.2324 30.461 36.2226 30.4579 36.2127L29.5575 33.2901L28.653 36.2121C28.6511 36.2186 28.6489 36.225 28.6468 36.2314C28.5302 36.5742 28.2086 36.8061 27.8466 36.8087C27.8446 36.8087 27.8427 36.8087 27.8406 36.8087C27.4809 36.8087 27.1591 36.5818 27.0384 36.2425C27.0265 36.2088 27.017 36.1742 27.01 36.1391L25.9826 30.9449C25.9041 30.5481 26.1622 30.1628 26.559 30.0843C26.9557 30.0057 27.3411 30.2638 27.4196 30.6606L27.9727 33.4564L28.8434 30.6433C28.899 30.3952 29.0818 30.1829 29.3422 30.1028C29.7287 29.9836 30.1386 30.2005 30.2578 30.5871L31.1415 33.4557L31.696 30.6695C31.775 30.2728 32.1605 30.0154 32.5573 30.0941C32.9539 30.1731 33.2115 30.5588 33.1325 30.9555V30.9555ZM38.4195 35.0621C38.2388 36.0742 37.2752 36.8087 36.1283 36.8087C35.2042 36.8087 34.3366 36.4361 33.7479 35.7864C33.4763 35.4867 33.499 35.0235 33.7988 34.7519C34.0986 34.4803 34.5617 34.5031 34.8333 34.8028C35.1404 35.1416 35.6245 35.3439 36.1283 35.3439C36.5995 35.3439 36.9301 35.0697 36.9774 34.8046C37.0394 34.4577 36.4996 34.2298 36.3327 34.1683C35.5126 33.8658 34.7842 33.5416 34.7537 33.5279C34.7183 33.5122 34.6844 33.4937 34.6521 33.4726C34.0719 33.0943 33.773 32.4311 33.872 31.7416C33.9772 31.0087 34.5119 30.4121 35.2675 30.1845C36.6619 29.7642 37.8224 30.6324 37.992 30.7679C38.1637 30.902 38.2744 31.1104 38.2744 31.345C38.2744 31.7495 37.9465 32.0774 37.542 32.0774C37.3622 32.0774 37.1978 32.0124 37.0702 31.9049L37.0696 31.9057L37.0743 31.9096C37.0677 31.9042 36.401 31.3727 35.6899 31.5871C35.3919 31.6769 35.3332 31.8707 35.3219 31.9498C35.3143 32.0026 35.3104 32.1277 35.4175 32.2197C35.6124 32.3049 36.2046 32.5597 36.8396 32.794C38.2126 33.3004 38.556 34.2977 38.4195 35.0621V35.0621Z" fill="white"/>
</g>
<defs>
<clipPath id="clip0_2193_26686">
<rect width="30" height="30" fill="white" transform="translate(11.8037 10.5)"/>
</clipPath>
</defs>
</svg>
