<svg width="30" height="30" viewBox="0 0 30 30" fill="none" xmlns="http://www.w3.org/2000/svg">
<path d="M23.5 15.5C22.437 15.5 21.4735 15.9175 20.7575 16.594L18.8225 15L20.7575 13.406C21.4735 14.0825 22.437 14.5 23.5 14.5C25.709 14.5 27.5 12.709 27.5 10.5C27.5 8.291 25.709 6.5 23.5 6.5C21.86 6.5 20.452 7.4885 19.8345 8.901L15.141 7.5205C14.8725 7.4405 14.598 7.594 14.5205 7.859C14.4425 8.124 14.594 8.402 14.859 8.4795L19.556 9.861C19.5225 10.0695 19.5 10.282 19.5 10.5C19.5 10.6805 19.516 10.857 19.539 11.0315L15.3495 12.141L9.879 7.635C9.9925 7.456 10.095 7.269 10.179 7.0715L13.363 7.981C13.4085 7.9935 13.4545 8 13.501 8C13.718 8 13.918 7.857 13.981 7.637C14.0565 7.372 13.903 7.095 13.637 7.019L10.449 6.1085C10.4795 5.909 10.5 5.707 10.5 5.5C10.5 3.291 8.709 1.5 6.5 1.5C4.291 1.5 2.5 3.291 2.5 5.5C2.5 7.709 4.291 9.5 6.5 9.5C7.563 9.5 8.5265 9.0825 9.2425 8.406L17.2495 15L15.1105 16.7615L10.461 15.531C10.484 15.357 10.5 15.1805 10.5 15C10.5 14.809 10.482 14.623 10.456 14.4395L12.1315 13.9825C12.398 13.9095 12.5555 13.635 12.4825 13.3685C12.4095 13.1015 12.132 12.945 11.8685 13.0175L10.1965 13.4735C9.5965 12.022 8.168 11 6.5 11C4.291 11 2.5 12.791 2.5 15C2.5 17.209 4.291 19 6.5 19C8.1785 19 9.614 17.965 10.207 16.4985L14.159 17.545L9.2425 21.594C8.5265 20.9175 7.563 20.5 6.5 20.5C4.291 20.5 2.5 22.291 2.5 24.5C2.5 26.709 4.291 28.5 6.5 28.5C8.709 28.5 10.5 26.709 10.5 24.5C10.5 24.2645 10.4755 24.036 10.4365 23.812L13.147 22.978C13.411 22.8965 13.559 22.6165 13.478 22.353C13.3965 22.0895 13.1185 21.9395 12.853 22.022L10.1435 22.8555C10.0665 22.6855 9.9775 22.5215 9.879 22.3655L15.3495 17.86L19.539 18.969C19.516 19.143 19.5 19.3195 19.5 19.5C19.5 19.707 19.5205 19.909 19.551 20.1085L16.363 21.019C16.0975 21.095 15.9435 21.372 16.019 21.637C16.082 21.857 16.282 22 16.4995 22C16.5455 22 16.5915 21.9935 16.637 21.981L19.821 21.0715C20.4315 22.499 21.8485 23.5 23.5 23.5C25.709 23.5 27.5 21.709 27.5 19.5C27.5 17.291 25.709 15.5 23.5 15.5ZM16.3005 12.9235L19.793 11.9985C19.8835 12.2215 19.994 12.4335 20.121 12.6345L18.0355 14.3525L16.3005 12.9235ZM16.3 17.077L18.036 15.6475L20.1215 17.3655C19.9945 17.5665 19.8835 17.7785 19.7935 18.0015L16.3 17.077Z" fill="url(#paint0_linear_193_4482)"/>
<path d="M14.5 22.5C14.7761 22.5 15 22.2761 15 22C15 21.7239 14.7761 21.5 14.5 21.5C14.2239 21.5 14 21.7239 14 22C14 22.2761 14.2239 22.5 14.5 22.5Z" fill="url(#paint1_linear_193_4482)"/>
<defs>
<linearGradient id="paint0_linear_193_4482" x1="4.3" y1="1.85977" x2="32.1023" y2="8.34675" gradientUnits="userSpaceOnUse">
<stop stop-color="#006FED"/>
<stop offset="0.1875" stop-color="#0077FF"/>
<stop offset="1" stop-color="#00F0FF"/>
</linearGradient>
<linearGradient id="paint1_linear_193_4482" x1="14.072" y1="21.5133" x2="15.1746" y2="21.7912" gradientUnits="userSpaceOnUse">
<stop stop-color="#006FED"/>
<stop offset="0.1875" stop-color="#0077FF"/>
<stop offset="1" stop-color="#00F0FF"/>
</linearGradient>
</defs>
</svg>
