<svg width="25" height="25" viewBox="0 0 25 25" fill="none" xmlns="http://www.w3.org/2000/svg">
<path d="M7.91667 15.4166C8.83714 15.4166 9.58333 14.6704 9.58333 13.7499C9.58333 12.8294 8.83714 12.0833 7.91667 12.0833C6.99619 12.0833 6.25 12.8294 6.25 13.7499C6.25 14.6704 6.99619 15.4166 7.91667 15.4166Z" fill="#0078FF"/>
<path d="M10.4132 19.1667H5.41983C5.16774 19.1667 4.96441 18.9425 5.00524 18.6933C5.23108 17.3075 6.46691 16.25 7.91649 16.25C9.36608 16.25 10.6019 17.3075 10.8277 18.6933C10.869 18.9425 10.6657 19.1667 10.4132 19.1667Z" fill="#0078FF"/>
<path d="M14.582 2.08325H10.4154C9.95536 2.08325 9.58203 2.45659 9.58203 2.91659V4.99992C9.58203 6.61075 10.8879 7.91658 12.4987 7.91658C14.1095 7.91658 15.4154 6.61075 15.4154 4.99992V2.91659C15.4154 2.45659 15.042 2.08325 14.582 2.08325ZM13.7487 4.58325H11.2487C11.0183 4.58325 10.832 4.397 10.832 4.16659C10.832 3.93617 11.0183 3.74992 11.2487 3.74992H13.7487C13.9791 3.74992 14.1654 3.93617 14.1654 4.16659C14.1654 4.397 13.9791 4.58325 13.7487 4.58325Z" fill="#0078FF"/>
<path d="M21.6667 5H16.6667C16.6667 7.2975 14.7975 9.16667 12.5 9.16667C10.2025 9.16667 8.33333 7.2975 8.33333 5H3.33333C2.1825 5 1.25 5.9325 1.25 7.08333V20C1.25 21.1508 2.1825 22.0833 3.33333 22.0833H21.6667C22.8175 22.0833 23.75 21.1508 23.75 20V7.08333C23.75 5.9325 22.8175 5 21.6667 5ZM12.5 20C12.5 20.2304 12.3137 20.4167 12.0833 20.4167H3.75C3.51958 20.4167 3.33333 20.2304 3.33333 20V11.25C3.33333 11.0196 3.51958 10.8333 3.75 10.8333H12.0833C12.3137 10.8333 12.5 11.0196 12.5 11.25V20ZM21.0417 14.5833H15.625C15.28 14.5833 15 14.3033 15 13.9583C15 13.6133 15.28 13.3333 15.625 13.3333H21.0417C21.3867 13.3333 21.6667 13.6133 21.6667 13.9583C21.6667 14.3033 21.3867 14.5833 21.0417 14.5833ZM21.0417 11.6667H15.625C15.28 11.6667 15 11.3867 15 11.0417C15 10.6967 15.28 10.4167 15.625 10.4167H21.0417C21.3867 10.4167 21.6667 10.6967 21.6667 11.0417C21.6667 11.3867 21.3867 11.6667 21.0417 11.6667Z" fill="url(#paint0_linear_193_4468)"/>
<defs>
<linearGradient id="paint0_linear_193_4468" x1="12.5" y1="5" x2="12.5" y2="22.0833" gradientUnits="userSpaceOnUse">
<stop stop-color="#F4B941"/>
<stop offset="1" stop-color="#EA496F"/>
</linearGradient>
</defs>
</svg>
