<svg width="20" height="20" viewBox="0 0 20 20" fill="none" xmlns="http://www.w3.org/2000/svg">
<path d="M19 9.99958H15V2.99987C15 2.4489 14.552 1.99992 14 1.99992H13V0.999958C13 0.448981 12.552 0 12 0H8C7.448 0 7 0.448981 7 0.999958V1.99992H6C5.448 1.99992 5 2.4489 5 2.99987V9.99958H1C0.448 9.99958 0 10.4486 0 10.9995V18.9992C0 19.5522 0.448 19.9992 1 19.9992H8V15.9993H12V19.9992H19C19.552 19.9992 20 19.5522 20 18.9992V10.9995C20 10.4486 19.553 9.99958 19 9.99958ZM4 17.9992H2V15.9993H4V17.9992ZM4 13.9994H2V11.9995H4V13.9994ZM9 13.9994H7V11.9995H9V13.9994ZM9 9.99958H7V7.99967H9V9.99958ZM9 5.99975H7V3.99983H9V5.99975ZM13 13.9994H11V11.9995H13V13.9994ZM13 9.99958H11V7.99967H13V9.99958ZM13 5.99975H11V3.99983H13V5.99975ZM18 17.9992H16V15.9993H18V17.9992ZM18 13.9994H16V11.9995H18V13.9994Z" fill="url(#paint0_linear_193_4432)"/>
<defs>
<linearGradient id="paint0_linear_193_4432" x1="10" y1="0" x2="10" y2="19.9992" gradientUnits="userSpaceOnUse">
<stop stop-color="#F4B941"/>
<stop offset="1" stop-color="#EA496F"/>
</linearGradient>
</defs>
</svg>
