<svg width="48" height="48" viewBox="0 0 48 48" fill="none" xmlns="http://www.w3.org/2000/svg">
<path fill-rule="evenodd" clip-rule="evenodd" d="M0 37.5C0 38.6935 0.474106 39.8381 1.31802 40.682C2.16193 41.5259 3.30653 42 4.5 42H43.5C44.6935 42 45.8381 41.5259 46.682 40.682C47.5259 39.8381 48 38.6935 48 37.5V19.5H45V37.5C45 37.8978 44.842 38.2794 44.5607 38.5607C44.2794 38.842 43.8978 39 43.5 39H4.5C4.10218 39 3.72064 38.842 3.43934 38.5607C3.15804 38.2794 3 37.8978 3 37.5V19.5H0V37.5Z" fill="url(#paint0_linear_11890_5601)"/>
<path fill-rule="evenodd" clip-rule="evenodd" d="M0 13.5C0 12.3065 0.474106 11.1619 1.31802 10.318C2.16193 9.47411 3.30653 9 4.5 9H43.5C44.6935 9 45.8381 9.47411 46.682 10.318C47.5259 11.1619 48 12.3065 48 13.5V20.652L25.158 26.742C24.3992 26.9441 23.6008 26.9441 22.842 26.742L0 20.652V13.5ZM4.5 12C4.10218 12 3.72064 12.158 3.43934 12.4393C3.15804 12.7206 3 13.1022 3 13.5V18.348L23.613 23.844C23.8666 23.9117 24.1334 23.9117 24.387 23.844L45 18.348V13.5C45 13.1022 44.842 12.7206 44.5607 12.4393C44.2794 12.158 43.8978 12 43.5 12H4.5ZM15 7.5C15 6.30653 15.4741 5.16193 16.318 4.31802C17.1619 3.47411 18.3065 3 19.5 3H28.5C29.6935 3 30.8381 3.47411 31.682 4.31802C32.5259 5.16193 33 6.30653 33 7.5V9H30V7.5C30 7.10218 29.842 6.72064 29.5607 6.43934C29.2794 6.15804 28.8978 6 28.5 6H19.5C19.1022 6 18.7206 6.15804 18.4393 6.43934C18.158 6.72064 18 7.10218 18 7.5V9H15V7.5Z" fill="url(#paint1_linear_11890_5601)"/>
<defs>
<linearGradient id="paint0_linear_11890_5601" x1="24" y1="19.5" x2="24" y2="42" gradientUnits="userSpaceOnUse">
<stop stop-color="#F4B941"/>
<stop offset="1" stop-color="#EA496F"/>
</linearGradient>
<linearGradient id="paint1_linear_11890_5601" x1="24" y1="3" x2="24" y2="26.8935" gradientUnits="userSpaceOnUse">
<stop stop-color="#F4B941"/>
<stop offset="1" stop-color="#EA496F"/>
</linearGradient>
</defs>
</svg>
