<svg width="30" height="30" viewBox="0 0 30 30" fill="none" xmlns="http://www.w3.org/2000/svg">
<path d="M13.5 18.5V15.5C13.5 14.948 13.948 14.5 14.5 14.5H17.5C17.8145 14.5 18.1115 14.6485 18.3 14.9L19.5 16.5H25C25.552 16.5 26 16.948 26 17.5V18.5H13.5Z" fill="url(#paint0_linear_193_4475)"/>
<path d="M5.1915 23.3935C5.0745 23.536 5 23.6835 5 23.841C5 24.1765 5.2565 24.5 5.6495 24.5H7V26.5C7 27.3285 7.672 28 8.5 28H12.5C13.052 28 13.5 27.552 13.5 27C13.5 26.448 13.052 26 12.5 26H9V24.5H10.3535C10.746 24.5 11 24.1725 11 23.841C11 23.686 10.9245 23.5355 10.8115 23.3995L8.808 21.3785C8.584 21.0975 8.3035 21 8 21C7.707 21 7.4325 21.0975 7.2015 21.3785L5.1915 23.3935Z" fill="#005DC7"/>
<path d="M12 15.5C12 14.1215 13.1215 13 14.5 13H17.5C18.2825 13 19.031 13.374 19.5 14.0005L20.25 15H25C26.1065 15 27.0365 15.7275 27.3645 16.7255C27.984 15.7235 28.5 14.25 28.5 13C28.5 9.416 25.584 6.5 22 6.5C21.5615 6.5 21.127 6.5445 20.6995 6.6325C19.909 4.2115 17.6325 2.5 15 2.5C12.4625 2.5 10.294 4.087 9.418 6.3175C10.92 6.752 12.269 7.624 13.2775 8.871C13.4165 9.043 13.5 9.2615 13.5 9.5C13.5 10.052 13.052 10.5 12.5 10.5C12.186 10.5 11.906 10.3555 11.7225 10.129C11.0065 9.244 10.0625 8.6065 9.0055 8.2705C8.4415 8.09 7.848 8 7.25 8C4.0795 8 1.5 10.5795 1.5 13.75C1.5 16.9205 4.0795 19.5 7.25 19.5H11.5555L12 19.4235V15.5Z" fill="url(#paint1_linear_193_4475)"/>
<path d="M26.999 20H14.001C13.303 20 12.8195 20.6975 13.0645 21.351L15.3145 27.351C15.461 27.741 15.834 28 16.251 28H24.749C25.166 28 25.539 27.741 25.6855 27.351L27.9355 21.351C28.1805 20.6975 27.6975 20 26.999 20ZM23.75 26.5H21.25C20.836 26.5 20.5 26.164 20.5 25.75C20.5 25.336 20.836 25 21.25 25H23.75C24.164 25 24.5 25.336 24.5 25.75C24.5 26.164 24.164 26.5 23.75 26.5Z" fill="url(#paint2_linear_193_4475)"/>
<defs>
<linearGradient id="paint0_linear_193_4475" x1="19.75" y1="14.5" x2="19.75" y2="18.5" gradientUnits="userSpaceOnUse">
<stop stop-color="#F4B941"/>
<stop offset="1" stop-color="#EA496F"/>
</linearGradient>
<linearGradient id="paint1_linear_193_4475" x1="3.444" y1="2.72652" x2="30.734" y2="13.6485" gradientUnits="userSpaceOnUse">
<stop stop-color="#006FED"/>
<stop offset="0.1875" stop-color="#0077FF"/>
<stop offset="1" stop-color="#00F0FF"/>
</linearGradient>
<linearGradient id="paint2_linear_193_4475" x1="20.5" y1="20" x2="20.5" y2="28" gradientUnits="userSpaceOnUse">
<stop stop-color="#F4B941"/>
<stop offset="1" stop-color="#EA496F"/>
</linearGradient>
</defs>
</svg>
