<svg width="20" height="20" viewBox="0 0 20 20" fill="none" xmlns="http://www.w3.org/2000/svg">
<path d="M3.92857 3.20996C3.85 3.21103 3.77036 3.21353 3.69214 3.21389C1.73893 3.22246 0 4.71889 0 6.78568C0 8.75782 1.59893 10.3571 3.57143 10.3571C3.68929 10.3571 3.80964 10.36 3.92857 10.3617V3.20996Z" fill="#005DC7"/>
<path d="M18.0357 7.4999C17.7396 7.4999 17.5 7.2599 17.5 6.96418C17.5 6.66847 17.7396 6.42847 18.0357 6.42847H19.4643C19.76 6.42847 20 6.66847 20 6.96418C20 7.2599 19.76 7.4999 19.4643 7.4999H18.0357Z" fill="#FFA800"/>
<path d="M17.442 10.656L18.8706 11.3703C18.9427 11.4064 19.0227 11.4285 19.1088 11.4285C19.4049 11.4285 19.6445 11.1885 19.6445 10.8928C19.6445 10.6828 19.5227 10.5032 19.347 10.4153L17.9185 9.70104C17.8463 9.66532 17.7663 9.64282 17.6802 9.64282C17.3842 9.64282 17.1445 9.88282 17.1445 10.1785C17.1445 10.3885 17.2663 10.5682 17.442 10.656Z" fill="#FFA800"/>
<path d="M19.347 3.51321L17.9185 4.2275C17.8463 4.26357 17.7663 4.28571 17.6802 4.28571C17.3842 4.28571 17.1445 4.04571 17.1445 3.75C17.1445 3.54 17.2663 3.36036 17.442 3.2725L18.8706 2.55821C18.9427 2.5225 19.0227 2.5 19.1088 2.5C19.4049 2.5 19.6445 2.74 19.6445 3.03571C19.6445 3.24571 19.5227 3.42536 19.347 3.51321Z" fill="#FFA800"/>
<path d="M10.7126 14.1442C10.7126 14.241 10.6958 14.3364 10.6651 14.4278L9.81475 16.9792C9.70761 17.3003 9.43368 17.5371 9.10047 17.596L3.9294 18.5085C3.69083 18.5506 3.45975 18.6271 3.24297 18.7353L2.14118 19.2856L0.355469 16.4285L2.82011 13.416C3.30797 12.8192 3.96654 12.3864 4.70761 12.1746L6.06975 11.7856V13.2142H9.74975C10.2887 13.2142 10.7126 13.6021 10.7126 14.1442Z" fill="#FFC8B8"/>
<path d="M6.80078 18.7272C6.8765 19.2443 7.31792 19.6429 7.8565 19.6429C8.44828 19.6429 8.92792 19.1632 8.92792 18.5714V18.3518L6.80078 18.7272Z" fill="black"/>
<path d="M6.78516 11.2871V12.5H8.92801V11.6728C8.2398 11.5082 7.52194 11.3846 6.78516 11.2871Z" fill="black"/>
<path d="M15.2493 0C15.0868 0 14.9286 0.0510715 14.7939 0.141786C11.7332 2.21036 8.17572 3.00143 5 3.17536V10.3971C8.17536 10.5707 11.7325 11.3611 14.7929 13.4293C14.9282 13.5204 15.0875 13.5714 15.2507 13.5714C15.7039 13.5714 16.0714 13.2039 16.0714 12.7507V0.820714C16.0714 0.3675 15.7029 0 15.2493 0ZM14 3.14929C12.0818 4.10857 9.83357 4.67393 7.7325 4.99714C7.71464 4.99929 7.69714 5 7.67857 5C7.3825 5 7.14286 4.76 7.14286 4.46429C7.14286 4.19321 7.34464 3.97179 7.60571 3.93607C9.74536 3.60071 11.7404 3.07357 13.4979 2.20893C13.5729 2.16786 13.6582 2.14286 13.75 2.14286C14.0461 2.14286 14.2857 2.38286 14.2857 2.67857C14.2857 2.88357 14.1693 3.05929 14 3.14929Z" fill="url(#paint0_linear_643_5357)"/>
<defs>
<linearGradient id="paint0_linear_643_5357" x1="10.5357" y1="0" x2="10.5357" y2="13.5714" gradientUnits="userSpaceOnUse">
<stop stop-color="#F4B941"/>
<stop offset="1" stop-color="#EA496F"/>
</linearGradient>
</defs>
</svg>
