<svg width="60" height="60" viewBox="0 0 60 60" fill="none" xmlns="http://www.w3.org/2000/svg">
<path d="M53 45C54.1046 45 55 43.8807 55 42.5C55 41.1193 54.1046 40 53 40C51.8954 40 51 41.1193 51 42.5C51 43.8807 51.8954 45 53 45Z" fill="black"/>
<path d="M53.5 34H46.5C45.672 34 45 34.672 45 35.5C45 36.328 45.672 37 46.5 37H47V46C47 47.657 48.344 49 50 49C51.312 49 52.415 48.152 52.822 46.979C50.7 46.873 49 44.913 49 42.5C49 40.019 50.794 38 53 38V37H53.5C54.328 37 55 36.328 55 35.5C55 34.672 54.328 34 53.5 34Z" fill="black"/>
<path d="M18 13.314V19C18 21.764 19.605 24.146 21.932 25.284C21.879 25.929 21.799 26.695 21.709 27.488L25 31.438L28.291 27.489C28.201 26.696 28.121 25.929 28.068 25.285C30.395 24.146 32 21.764 32 19V14.5C32 10.357 28.643 7 24.5 7C20.064 7 18.4 6.285 17 4C17 4 15 6.244 15 8.782C15 10.506 16.084 12.348 18 13.314Z" fill="black"/>
<path d="M45 46V40.642L42.476 40.861L36.651 32.447C35.156 30.288 32.698 29 30.072 29H29.635L26 33.363V58H34V39.16L38.531 45.705C39.073 46.487 39.977 47 41 47C41.178 47 41.351 46.984 41.52 46.955L45.036 46.342C45.026 46.227 45 46.117 45 46Z" fill="black"/>
<path d="M24 57.9993V33.3622L20.391 29.0312C17.309 29.1943 14.423 30.6313 12.457 33.0343L6.677 40.1003C6.254 40.6183 6 41.2783 6 41.9993C6 42.3973 6.078 42.7773 6.219 43.1252L9.182 50.4382C9.637 51.5602 10.883 52.2772 12.229 51.8972C13.022 51.6722 13.668 51.0292 13.895 50.2372C14.034 49.7552 14.03 49.2853 13.917 48.8593L12.293 42.7133L16 38.1812V57.9993H24Z" fill="black"/>
<path d="M49 15C50.1046 15 51 14.1046 51 13C51 11.8954 50.1046 11 49 11C47.8954 11 47 11.8954 47 13C47 14.1046 47.8954 15 49 15Z" fill="black"/>
<path d="M54 23C55.1046 23 56 22.1046 56 21C56 19.8954 55.1046 19 54 19C52.8954 19 52 19.8954 52 21C52 22.1046 52.8954 23 54 23Z" fill="black"/>
<path d="M56 32C57.1046 32 58 31.1046 58 30C58 28.8954 57.1046 28 56 28C54.8954 28 54 28.8954 54 30C54 31.1046 54.8954 32 56 32Z" fill="black"/>
<path d="M11 16C12.1046 16 13 15.1046 13 14C13 12.8954 12.1046 12 11 12C9.89543 12 9 12.8954 9 14C9 15.1046 9.89543 16 11 16Z" fill="black"/>
<path d="M6 24C7.10457 24 8 23.1046 8 22C8 20.8954 7.10457 20 6 20C4.89543 20 4 20.8954 4 22C4 23.1046 4.89543 24 6 24Z" fill="black"/>
<path d="M4 33C5.10457 33 6 32.1046 6 31C6 29.8954 5.10457 29 4 29C2.89543 29 2 29.8954 2 31C2 32.1046 2.89543 33 4 33Z" fill="black"/>
<path d="M31 6C32.1046 6 33 5.10457 33 4C33 2.89543 32.1046 2 31 2C29.8954 2 29 2.89543 29 4C29 5.10457 29.8954 6 31 6Z" fill="black"/>
<path d="M41 9C42.1046 9 43 8.10457 43 7C43 5.89543 42.1046 5 41 5C39.8954 5 39 5.89543 39 7C39 8.10457 39.8954 9 41 9Z" fill="black"/>
</svg>
