<svg width="32" height="32" viewBox="0 0 32 32" fill="none" xmlns="http://www.w3.org/2000/svg">
<path d="M19.7336 27.1999H18.1336L17.3336 24.5332H12.5336L11.7336 27.1999H10.1336C9.54476 27.1999 9.06689 27.6777 9.06689 28.2665C9.06689 28.8553 9.54476 29.3332 10.1336 29.3332H19.7336C20.3224 29.3332 20.8002 28.8553 20.8002 28.2665C20.8002 27.6777 20.3224 27.1999 19.7336 27.1999Z" fill="white"/>
<path opacity="0.6" d="M21.0668 8.5332C17.974 8.5332 15.4668 11.0404 15.4668 14.1332C15.4668 17.226 17.974 19.7332 21.0668 19.7332C24.1596 19.7332 26.6668 17.226 26.6668 14.1332C26.6668 11.0404 24.1596 8.5332 21.0668 8.5332ZM20.8124 16.9876L17.9121 14.0873L19.4204 12.5791L20.8001 13.9583L23.246 11.5124L24.7543 13.0207L20.8124 16.9876Z" fill="white"/>
<path opacity="0.6" d="M29.8536 20.2802L27.3138 17.7266C26.6808 18.822 25.7693 19.7335 24.6738 20.366L27.2141 22.9196C27.5517 23.2578 28.0184 23.4668 28.5336 23.4668C29.5645 23.4668 30.4002 22.6311 30.4002 21.6002C30.4002 21.0844 30.1912 20.6183 29.8536 20.2802Z" fill="white"/>
<path d="M21.0666 21.3327C19.3536 21.3327 17.7818 20.7321 16.5456 19.7327H4.26663V4.79935H25.6V8.54228C26.5338 9.30068 27.2725 10.2879 27.7333 11.4191V4.79935C27.7333 3.62122 26.7781 2.66602 25.6 2.66602H4.26663C3.0885 2.66602 2.1333 3.62122 2.1333 4.79935V20.7993C2.1333 21.9775 3.0885 22.9327 4.26663 22.9327H24.9642L23.0752 21.0431C22.4368 21.2281 21.7642 21.3327 21.0666 21.3327Z" fill="white"/>
</svg>
