<svg width="40" height="40" viewBox="0 0 40 40" fill="none" xmlns="http://www.w3.org/2000/svg">
<circle cx="20" cy="20" r="20" fill="#F1F1FA"/>
<path d="M20.878 10C15.8934 10 11.7734 14.1288 11.7734 19.1134C11.7734 19.2898 11.7823 19.4574 11.7911 19.6251C12.1881 19.5015 12.6115 19.431 13.0438 19.431C15.1259 19.431 16.8815 20.9396 17.2609 22.9157C18.2666 22.3776 19.5194 22.0865 20.8868 22.0865C23.2423 22.0865 25.2803 22.9422 26.2948 24.4773C24.9539 25.9153 22.863 26.7358 20.8868 26.7358C19.5017 26.7358 18.0813 26.33 16.8992 25.5977C16.6786 26.0565 16.3875 26.4623 16.0258 26.7975C17.4373 27.7062 19.1047 28.2267 20.8868 28.2267C25.8714 28.2267 30.0002 24.1067 30.0002 19.1134C30.0002 14.1288 25.8714 10 20.878 10ZM20.8868 20.5602C19.1576 20.5514 17.8167 19.1045 17.8167 17.1989C17.8078 15.3992 19.1753 13.8994 20.8868 13.8994C22.5983 13.8994 23.9569 15.3992 23.9569 17.1989C23.9569 19.1045 22.616 20.5779 20.8868 20.5602Z" fill="#3E4347"/>
<path opacity="0.6" d="M16.0962 23.7273C16.0962 25.4035 14.7111 26.7798 13.0437 26.7798C11.3763 26.7798 10 25.4035 10 23.7273C10 22.0599 11.3763 20.6836 13.0437 20.6836C14.7111 20.6836 16.0962 22.0599 16.0962 23.7273Z" fill="#3E4347"/>
</svg>
