<svg width="32" height="32" viewBox="0 0 32 32" fill="none" xmlns="http://www.w3.org/2000/svg">
<path d="M24.3925 20.9766C24.4779 21.071 24.5333 21.1931 24.5333 21.3307C24.5333 21.6257 24.2949 21.8641 24 21.8641C23.856 21.8641 23.7259 21.8059 23.6304 21.7131L21.1291 18.9345C20.9824 18.7697 20.7707 18.6641 20.5333 18.6641C20.0917 18.6641 19.7333 19.0225 19.7333 19.4641C19.7333 19.5878 19.7643 19.7041 19.8144 19.8091C20.9675 22.2075 21.4155 22.9563 21.6779 24.4918C22.0603 26.7334 23.4667 26.6683 23.4667 29.3307H28.2667V19.7307H23.2757L24.3925 20.9766Z" fill="#EF4023"/>
<path opacity="0.6" d="M29.0667 16H18.1333L16.5333 17.3333L18.1333 18.6667H18.8544C19.1547 18.0384 19.792 17.6 20.5333 17.6C21.4448 17.6 21.84 18.1333 22.3205 18.6667H29.0667C29.8032 18.6667 30.4 18.0699 30.4 17.3333C30.4 16.5968 29.8032 16 29.0667 16Z" fill="#EF4023"/>
<path d="M27.2 14.9359C26.2341 14.3375 24.2283 13.3359 23.1408 13.3359C22.2981 13.3359 21.5104 13.6922 20.2667 14.9359H27.2Z" fill="#EF4023"/>
<path d="M19.3195 21.2347C18.8795 20.3264 18.7637 20.1824 18.6971 19.7328H17.7477L14.8683 17.3328L17.7477 14.9328H18.7589C19.8837 13.808 20.9312 12.6629 22.3685 12.3515L19.1659 2.49708C19.0949 2.28641 18.9008 2.13281 18.6667 2.13281C18.6107 2.13281 18.5584 2.14828 18.5072 2.16535L2.49386 7.50081C2.28533 7.57335 2.13333 7.76641 2.13333 7.99948C2.13333 8.05441 2.1488 8.10401 2.1648 8.15415L9.10133 29.5019C9.17173 29.7125 9.36586 29.8661 9.6 29.8661C9.656 29.8661 9.70826 29.8507 9.75946 29.8336L21.0555 26.0693C20.8789 25.6896 20.7232 25.2395 20.6267 24.6731C20.4288 23.5141 20.1264 22.8933 19.3195 21.2347V21.2347ZM5.37386 9.35201L8.48693 8.31521L9.5344 11.5387L6.40906 12.5797L5.37386 9.35201ZM9.83146 18.8624C9.20426 18.5253 9.75893 18.8235 6.63733 17.1467L7.39413 15.7371L9.1376 16.6731L10.7797 13.3888L12.2112 14.1045C9.76586 18.9941 10.1595 18.2075 9.83146 18.8624V18.8624ZM12.5333 9.59948C12.0917 9.59948 11.7333 9.24108 11.7333 8.79948C11.7333 8.44641 11.9637 8.14988 12.2811 8.04375L17.0811 6.44375C17.1611 6.41708 17.2448 6.39948 17.3333 6.39948C17.7749 6.39948 18.1333 6.75788 18.1333 7.19948C18.1333 7.55255 17.9029 7.84908 17.5856 7.95521L12.7856 9.55521C12.7056 9.58188 12.6219 9.59948 12.5333 9.59948V9.59948ZM14.1333 13.3328C13.6917 13.3328 13.3333 12.9744 13.3333 12.5328C13.3333 12.1797 13.5637 11.8832 13.8811 11.7771L18.6811 10.1771C18.7611 10.1504 18.8448 10.1328 18.9333 10.1328C19.3749 10.1328 19.7333 10.4912 19.7333 10.9328C19.7333 11.2859 19.5029 11.5824 19.1856 11.6885L14.3856 13.2885C14.3056 13.3152 14.2219 13.3328 14.1333 13.3328V13.3328Z" fill="#EF4023"/>
</svg>
