<svg width="30" height="30" viewBox="0 0 30 30" fill="none" xmlns="http://www.w3.org/2000/svg">
<path d="M10.9582 9.802L9.79173 7.5605C9.92573 7.1475 9.99973 6.7075 9.99973 6.25C9.99973 3.903 8.09673 2 5.74973 2C3.40273 2 1.50473 3.903 1.50473 6.25C1.50473 8.597 3.40273 10.5 5.74973 10.5C6.65473 10.5 7.49123 10.2155 8.18023 9.7335L10.3607 10.48C10.4077 10.4935 10.4547 10.4945 10.4992 10.495C10.7757 10.496 10.9942 10.2695 10.9942 10C10.9947 9.9355 10.9867 9.8685 10.9582 9.802V9.802Z" fill="#0A77DB"/>
<path d="M10.8537 13.5155L9.46273 13.6845C8.73673 12.382 7.34673 11.5 5.74973 11.5C3.40273 11.5 1.50473 13.403 1.50473 15.75C1.50473 18.097 3.40273 20 5.74973 20C8.00773 20 9.84823 18.2385 9.98623 16.0155L11.4007 14.297C11.4687 14.2055 11.4947 14.099 11.4947 13.9995C11.4957 13.739 11.2957 13.4995 10.9997 13.4995C10.9497 13.5 10.8987 13.5105 10.8537 13.5155ZM3.99973 16.5C3.44723 16.5 2.99973 16.052 2.99973 15.5C2.99973 14.948 3.44723 14.5 3.99973 14.5C4.55173 14.5 4.99973 14.948 4.99973 15.5C4.99973 16.052 4.55173 16.5 3.99973 16.5ZM7.49973 16.5C6.94723 16.5 6.49973 16.052 6.49973 15.5C6.49973 14.948 6.94723 14.5 7.49973 14.5C8.05173 14.5 8.49973 14.948 8.49973 15.5C8.49973 16.052 8.05173 16.5 7.49973 16.5V16.5Z" fill="#0A77DB"/>
<path d="M27.2202 18.104L23.9997 16L23.1997 18.7915C23.1997 18.7915 21.7992 16.7775 21.6092 16.5C21.3727 16.1545 20.9417 16.005 20.4992 16.005C19.6712 16.005 18.9992 16.6715 18.9992 17.5C18.9992 17.708 19.0452 17.9045 19.1232 18.0835C19.1452 18.132 20.9997 22.5 20.9997 22.5C20.9997 22.5 20.9997 23.5 21.4997 25C22.3057 27.4185 23.9997 28.5 23.9997 28.5H28.4997V20.5615C28.4997 19.583 28.0222 18.6655 27.2202 18.104Z" fill="#0A77DB"/>
<path d="M23.3357 5.53853L10.5932 2.53403C10.4872 2.51003 10.3817 2.50053 10.2782 2.50003C10.0307 2.49853 9.79273 2.55753 9.57923 2.66653C10.0972 3.21953 10.4982 3.88303 10.7387 4.61953L22.4002 7.37553L20.5792 15C21.2537 15 21.9117 15.2925 22.3997 15.876L24.4612 7.33703C24.4872 7.22353 24.4997 7.11153 24.4997 7.00003C24.5002 6.31653 24.0302 5.69803 23.3357 5.53853Z" fill="#0A77DB" fill-opacity="0.5"/>
<path d="M20.0037 22.8475L19.1962 20.847L18.9667 21.908L9.23723 19.667C8.30923 20.4935 7.09023 21 5.74973 21C5.25073 21 4.77023 20.9355 4.31323 20.806L4.03823 22.0515C3.85223 22.859 4.35723 23.6605 5.16373 23.85C8.46623 24.6265 18.3297 26.9615 18.3297 26.9615C18.4362 26.9865 18.5432 27 18.6487 27C19.3987 27 19.9667 26.5365 20.1277 25.836L20.2642 25.187C20.2997 25.036 20.3237 24.8815 20.3427 24.734C20.0682 23.761 20.0137 23.0825 20.0037 22.8475V22.8475ZM12.4997 24C11.9477 24 11.4997 23.552 11.4997 23C11.4997 22.448 11.9477 22 12.4997 22C13.0517 22 13.4997 22.448 13.4997 23C13.4997 23.552 13.0517 24 12.4997 24Z" fill="#0A77DB" fill-opacity="0.5"/>
</svg>
