<svg width="30" height="30" viewBox="0 0 30 30" fill="none" xmlns="http://www.w3.org/2000/svg">
<path d="M26.9997 6V4.5C26.9997 3.119 25.8807 2 24.4997 2H5.49973C4.11873 2 2.99973 3.119 2.99973 4.5V6H26.9997Z" fill="#0A77DB" fill-opacity="0.5"/>
<path d="M7.99973 22.5H21.9997C22.2762 22.5 22.4997 22.2765 22.4997 22V18.5C22.4997 18.2235 22.2762 18 21.9997 18H7.99973C7.72323 18 7.49973 18.2235 7.49973 18.5V22C7.49973 22.2765 7.72323 22.5 7.99973 22.5Z" fill="#0A77DB"/>
<path d="M7.99973 28.5H21.9997C22.2762 28.5 22.4997 28.2765 22.4997 28V24.5C22.4997 24.2235 22.2762 24 21.9997 24H7.99973C7.72323 24 7.49973 24.2235 7.49973 24.5V28C7.49973 28.2765 7.72323 28.5 7.99973 28.5Z" fill="#0A77DB"/>
<path d="M2.99973 7.5V19C2.99973 20.381 4.11873 21.5 5.49973 21.5H5.99973V18C5.99973 17.1715 6.67173 16.5 7.49973 16.5H13.9997V13.7225C13.6997 13.5475 13.4517 13.2995 13.2772 13H9.49973V13.7735C9.49973 14.175 9.17473 14.5 8.77323 14.5C8.59673 14.5 8.42673 14.436 8.29423 14.3195L6.22973 12.508C6.08373 12.3795 5.99973 12.1945 5.99973 12C5.99973 11.8055 6.08373 11.6205 6.22973 11.492L8.29423 9.6805C8.42673 9.564 8.59673 9.5 8.77323 9.5C9.17473 9.5 9.49973 9.825 9.49973 10.2265V11H13.2772C13.6237 10.405 14.2617 10 14.9997 10C15.7377 10 16.3757 10.405 16.7222 11H20.4997V10.2265C20.4997 9.825 20.8247 9.5 21.2262 9.5C21.4027 9.5 21.5727 9.564 21.7052 9.6805L23.7697 11.492C23.9157 11.6205 23.9997 11.8055 23.9997 12C23.9997 12.1945 23.9157 12.3795 23.7697 12.508L21.7052 14.3195C21.5727 14.436 21.4027 14.5 21.2262 14.5C20.8247 14.5 20.4997 14.175 20.4997 13.7735V13H16.7222C16.5472 13.3 16.2992 13.548 15.9997 13.7225V16.5H22.4997C23.3277 16.5 23.9997 17.1715 23.9997 18V21.5H24.4997C25.8807 21.5 26.9997 20.381 26.9997 19V7.5H2.99973Z" fill="#0A77DB"/>
</svg>
