<svg width="30" height="30" viewBox="0 0 30 30" fill="none" xmlns="http://www.w3.org/2000/svg">
<path d="M24.4997 17.5H19.9997V21.5C19.9997 22.8785 18.8782 24 17.4997 24H15.2037L13.4997 25.136V25.5C13.4997 26.052 13.9477 26.5 14.4997 26.5H17.2497L20.8062 28.871C20.9322 28.955 21.0807 29 21.2322 29C21.6562 29 21.9997 28.6565 21.9997 28.2325V26.5H24.4997C25.0517 26.5 25.4997 26.052 25.4997 25.5V18.5C25.4997 17.948 25.0517 17.5 24.4997 17.5V17.5Z" fill="#0A77DB"/>
<path d="M17.4997 13.5H7.49973C6.94773 13.5 6.49973 13.948 6.49973 14.5V21.5C6.49973 22.052 6.94773 22.5 7.49973 22.5H9.99973V24.2325C9.99973 24.6565 10.3437 25 10.7672 25C10.9187 25 11.0672 24.955 11.1932 24.871L14.7497 22.5H17.4997C18.0517 22.5 18.4997 22.052 18.4997 21.5V14.5C18.4997 13.948 18.0517 13.5 17.4997 13.5ZM15.2497 20.5H9.74973C9.33573 20.5 8.99973 20.164 8.99973 19.75C8.99973 19.336 9.33573 19 9.74973 19H15.2497C15.6637 19 15.9997 19.336 15.9997 19.75C15.9997 20.164 15.6637 20.5 15.2497 20.5ZM15.2497 17.5H9.74973C9.33573 17.5 8.99973 17.164 8.99973 16.75C8.99973 16.336 9.33573 16 9.74973 16H15.2497C15.6637 16 15.9997 16.336 15.9997 16.75C15.9997 17.164 15.6637 17.5 15.2497 17.5Z" fill="#0A77DB"/>
<path d="M4.99973 14.5C4.99973 13.1215 6.12123 12 7.49973 12H17.4997C18.8782 12 19.9997 13.1215 19.9997 14.5V16H24.4997C25.0942 16 25.6337 16.2175 26.0632 16.5655C27.5467 15.373 28.4997 13.547 28.4997 11.5C28.4997 7.916 25.5837 5 21.9997 5C21.5612 5 21.1267 5.0445 20.6992 5.1325C19.9087 2.7115 17.6322 1 14.9997 1C12.4622 1 10.2937 2.587 9.41773 4.8175C10.9197 5.252 12.2687 6.124 13.2772 7.371C13.4162 7.543 13.4997 7.7615 13.4997 8C13.4997 8.552 13.0517 9 12.4997 9C12.1857 9 11.9057 8.8555 11.7222 8.629C11.0062 7.744 10.0622 7.1065 9.00523 6.7705C8.44123 6.59 7.84773 6.5 7.24973 6.5C4.07923 6.5 1.49973 9.0795 1.49973 12.25C1.49973 14.622 2.94423 16.663 4.99973 17.5405V14.5Z" fill="#0A77DB" fill-opacity="0.5"/>
</svg>
