<svg width="30" height="30" viewBox="0 0 30 30" fill="none" xmlns="http://www.w3.org/2000/svg">
<path d="M6.42851 19.2854H2.14284C0.959381 19.2854 0 20.2448 0 21.4282V27.8568C0 29.0402 0.959381 29.9996 2.14284 29.9996H6.42851C7.61197 29.9996 8.57135 29.0402 8.57135 27.8568V21.4282C8.57135 20.2448 7.61197 19.2854 6.42851 19.2854Z" fill="#0A77DB"/>
<path d="M17.1428 10.7146H12.8571C11.6737 10.7146 10.7143 11.674 10.7143 12.8574V27.8573C10.7143 29.0408 11.6737 30.0001 12.8571 30.0001H17.1428C18.3263 30.0001 19.2856 29.0408 19.2856 27.8573V12.8574C19.2856 11.674 18.3263 10.7146 17.1428 10.7146Z" fill="#0A77DB" fill-opacity="0.5"/>
<path d="M27.8569 0H23.5712C22.3877 0 21.4284 0.959381 21.4284 2.14284V27.8569C21.4284 29.0403 22.3877 29.9997 23.5712 29.9997H27.8569C29.0403 29.9997 29.9997 29.0403 29.9997 27.8569V2.14284C29.9997 0.959381 29.0403 0 27.8569 0Z" fill="#0A77DB"/>
</svg>
