<svg width="30" height="30" viewBox="0 0 30 30" fill="none" xmlns="http://www.w3.org/2000/svg">
<path opacity="0.6" d="M10.8987 0.46875H19.1019C19.4253 0.46875 19.6878 0.748125 19.6878 1.09375V3.59375C19.6878 3.93937 19.4253 4.21875 19.1019 4.21875H10.8987C10.5753 4.21875 10.3128 3.93937 10.3128 3.59375V1.09375C10.3128 0.748125 10.5753 0.46875 10.8987 0.46875Z" fill="#0A77DB"/>
<path d="M26.0271 3.28125H20.8039C20.8039 4.24608 20.0227 5.03125 19.0628 5.03125H10.9378C9.97789 5.03125 9.19673 4.24608 9.19673 3.28125H3.97351C3.3328 3.28125 2.8128 3.80392 2.8128 4.44792V28.3646C2.8128 29.0086 3.3328 29.5312 3.97351 29.5312H26.0271C26.6678 29.5312 27.1878 29.0086 27.1878 28.3646V4.44792C27.1878 3.80392 26.6678 3.28125 26.0271 3.28125ZM24.286 26.6146H5.71458V6.78125H24.286V26.6146Z" fill="#0A77DB"/>
<path d="M8.90655 12.6562C10.201 12.6562 11.2503 11.6069 11.2503 10.3125C11.2503 9.01808 10.201 7.96875 8.90655 7.96875C7.61213 7.96875 6.5628 9.01808 6.5628 10.3125C6.5628 11.6069 7.61213 12.6562 8.90655 12.6562Z" fill="#0A77DB"/>
<path d="M8.90655 24.8438C10.201 24.8438 11.2503 23.7944 11.2503 22.5C11.2503 21.2056 10.201 20.1562 8.90655 20.1562C7.61213 20.1562 6.5628 21.2056 6.5628 22.5C6.5628 23.7944 7.61213 24.8438 8.90655 24.8438Z" fill="#0A77DB"/>
<path d="M8.90655 18.2812C10.201 18.2812 11.2503 17.4418 11.2503 16.4062C11.2503 15.3707 10.201 14.5312 8.90655 14.5312C7.61213 14.5312 6.5628 15.3707 6.5628 16.4062C6.5628 17.4418 7.61213 18.2812 8.90655 18.2812Z" fill="#0A77DB"/>
<path opacity="0.6" d="M21.5267 8.90625C22.0641 8.90625 22.5003 9.53625 22.5003 10.3125C22.5003 11.0888 22.0641 11.7188 21.5267 11.7188H15.0364C14.4983 11.7188 14.0628 11.0888 14.0628 10.3125C14.0628 9.53625 14.4983 8.90625 15.0364 8.90625H21.5267Z" fill="#0A77DB"/>
<path opacity="0.6" d="M21.5267 15.4688C22.0641 15.4688 22.5003 15.8887 22.5003 16.4062C22.5003 16.9238 22.0641 17.3438 21.5267 17.3438H15.0364C14.4983 17.3438 14.0628 16.9238 14.0628 16.4062C14.0628 15.8887 14.4983 15.4688 15.0364 15.4688H21.5267Z" fill="#0A77DB"/>
<path opacity="0.6" d="M21.5267 21.0938C22.0641 21.0938 22.5003 21.7237 22.5003 22.5C22.5003 23.2763 22.0641 23.9062 21.5267 23.9062H15.0364C14.4983 23.9062 14.0628 23.2763 14.0628 22.5C14.0628 21.7237 14.4983 21.0938 15.0364 21.0938H21.5267Z" fill="#0A77DB"/>
</svg>
