<svg width="74" height="32" viewBox="0 0 74 32" fill="none" xmlns="http://www.w3.org/2000/svg">
<path d="M33.2 28.8C32.9 29.5 32.6 29.9 32.1 30.2C31.6 30.4 30.9 30.6 30 30.6C29.1 30.6 28.4 30.5 27.9 30.2C27.4 30 27 29.5 26.8 28.8L20.3 11.7C20.1 11.2 20 10.7 20 10.3C20 9.5 20.3 9 20.8 8.6C21.3 8.2 21.9 8.1 22.7 8.1C23.4 8.1 24 8.3 24.4 8.6C24.8 9 25.1 9.5 25.4 10.2L30.1 25H30.2L35.1 10.2C35.6 8.8 36.4 8 37.6 8C38.3 8 39 8.2 39.5 8.5C40 8.9 40.3 9.4 40.3 10.2C40.3 10.6 40.2 11.1 40 11.6L33.2 28.8Z" fill="#1A8DE1"/>
<path d="M34.5 5.59961C34.5 3.09961 36.3 1.09961 38.4 1.09961H46.5C49.4 1.09961 50 1.49961 52.2 2.79961C54.4 3.99961 54.1 7.09961 55.3 9.29961C56.5 11.5996 56.2 13.0996 56.2 16.0996C56.2 19.0996 56.5 19.6996 55.3 21.9996C54.1 24.2996 54.4 26.9996 52.2 28.2996C50 29.4996 49.3 31.0996 46.5 31.0996H38.4C36.2 31.0996 34.5 29.0996 34.5 26.5996C34.5 24.0996 36.7 20.5996 36.7 16.3996C36.7 12.1996 34.5 8.09961 34.5 5.59961ZM45.6 25.3996C48.7 25.3996 50.3 22.0996 51.3 20.2996C52 18.9996 52.2 17.3996 52.2 15.8996C52.2 14.3996 52 12.4996 51.3 11.2996C50.2 9.29961 48.9 6.79961 45.6 6.79961H42.7C41.6 6.79961 40.7 7.79961 40.7 8.99961C40.7 10.1996 42.1 11.5996 42.1 16.3996C42.1 20.7996 40.7 21.8996 40.7 23.0996C40.7 24.2996 41.6 25.2996 42.7 25.2996L45.6 25.3996Z" fill="url(#paint0_linear_13727_15088)"/>
<path d="M67.2998 30.9996C65.3998 30.9996 63.5998 29.8996 62.4998 28.1996L58.5998 21.9996C58.1998 21.3996 57.3998 21.3996 56.9998 21.9996L53.1998 28.1996C52.0998 29.9996 50.2998 31.0996 48.2998 31.0996H45.4998C44.9998 31.0996 44.6998 30.4996 44.9998 29.9996L51.1998 20.4996C52.9998 17.7996 52.9998 13.9996 51.1998 11.1996L45.4998 2.19961C45.1998 1.79961 45.4998 1.09961 45.9998 1.09961H48.7998C50.6998 1.09961 52.4998 2.09961 53.5998 3.89961L57.1998 9.49961C57.5998 10.0996 58.3998 10.0996 58.7998 9.49961L62.2998 3.89961C63.3998 2.09961 65.1998 1.09961 67.0998 1.09961H68.7998C69.5998 1.09961 70.0998 2.09961 69.5998 2.89961L61.8998 14.8996C61.5998 15.2996 61.5998 15.7996 61.8998 16.1996L70.2998 29.1996C70.7998 29.8996 70.2998 30.9996 69.4998 30.9996H67.2998Z" fill="url(#paint1_linear_13727_15088)"/>
<path d="M3.59985 4.39961C3.59985 3.39961 3.89985 2.59961 4.49985 1.99961C5.09985 1.39961 5.89985 1.09961 6.89985 1.09961C7.89985 1.09961 8.69985 1.39961 9.29985 1.99961C9.89985 2.59961 10.1999 3.39961 10.1999 4.39961V24.9996H21.1999C22.1999 24.9996 22.9999 25.1996 23.5999 25.6996C24.1999 26.1996 24.5999 26.8996 24.5999 27.6996C24.5999 28.5996 24.2999 29.2996 23.5999 29.6996C22.9999 30.1996 22.0999 30.3996 21.1999 30.3996H7.49985C6.19985 30.3996 5.29985 30.0996 4.59985 29.4996C3.89985 28.8996 3.59985 27.8996 3.59985 26.4996V4.39961Z" fill="#1A8DE1"/>
<path d="M29.9998 30.7998C29.0998 30.7998 28.3998 30.6998 27.7998 30.3998C27.2998 30.0998 26.7998 29.5998 26.5998 28.8998L20.0998 11.6998C19.8998 11.0998 19.7998 10.5998 19.7998 10.1998C19.7998 9.3998 20.0998 8.7998 20.6998 8.3998C21.1998 7.9998 21.8998 7.7998 22.6998 7.7998C23.4998 7.7998 24.0998 7.9998 24.4998 8.3998C24.8998 8.7998 25.2998 9.3998 25.4998 10.0998L30.0998 24.3998L34.8998 10.0998C35.3998 8.5998 36.2998 7.7998 37.5998 7.7998C38.3998 7.7998 39.0998 7.9998 39.5998 8.3998C40.1998 8.7998 40.4998 9.3998 40.4998 10.1998C40.4998 10.5998 40.3998 11.1998 40.1998 11.6998L33.4998 28.8998C33.1998 29.5998 32.7998 30.0998 32.2998 30.3998C31.5998 30.6998 30.8998 30.7998 29.9998 30.7998ZM22.6998 8.2998C21.9998 8.2998 21.3998 8.4998 20.8998 8.7998C20.3998 9.0998 20.1998 9.5998 20.1998 10.2998C20.1998 10.6998 20.2998 11.1998 20.4998 11.6998L26.9998 28.7998C27.1998 29.3998 27.5998 29.7998 27.9998 30.0998C28.4998 30.2998 29.0998 30.3998 29.9998 30.3998C30.7998 30.3998 31.4998 30.2998 31.9998 30.0998C32.4998 29.8998 32.7998 29.4998 32.9998 28.7998L39.6998 11.5998C39.8998 11.0998 39.9998 10.5998 39.9998 10.1998C39.9998 9.4998 39.7998 8.9998 39.2998 8.6998C38.7998 8.3998 38.1998 8.1998 37.4998 8.1998C36.3998 8.1998 35.6998 8.8998 35.1998 10.1998L30.1998 25.0998H29.7998L25.0998 10.2998C24.8998 9.5998 24.5998 9.0998 24.1998 8.6998C23.7998 8.3998 23.2998 8.2998 22.6998 8.2998Z" fill="#1A8DE1"/>
<path d="M21.1999 30.7998H7.4999C6.1999 30.7998 5.1999 30.4998 4.4999 29.8998C3.7999 29.2998 3.3999 28.1998 3.3999 26.6998V4.3998C3.3999 3.2998 3.6999 2.4998 4.3999 1.7998C4.9999 1.1998 5.8999 0.799805 6.9999 0.799805C8.0999 0.799805 8.9999 1.0998 9.5999 1.7998C10.1999 2.3998 10.5999 3.2998 10.5999 4.3998V24.6998H21.2999C22.2999 24.6998 23.1999 24.9998 23.8999 25.4998C24.5999 25.9998 24.9999 26.7998 24.9999 27.6998C24.9999 28.6998 24.5999 29.3998 23.8999 29.8998C23.0999 30.4998 22.1999 30.7998 21.1999 30.7998ZM6.8999 1.3998C5.9999 1.3998 5.1999 1.6998 4.6999 2.1998C4.0999 2.7998 3.8999 3.4998 3.8999 4.3998V26.6998C3.8999 27.9998 4.1999 28.8998 4.7999 29.4998C5.3999 29.9998 6.2999 30.2998 7.4999 30.2998H21.1999C22.0999 30.2998 22.8999 30.0998 23.4999 29.5998C24.0999 29.1998 24.3999 28.5998 24.3999 27.7998C24.3999 26.9998 24.0999 26.3998 23.4999 25.9998C22.8999 25.5998 22.0999 25.2998 21.1999 25.2998H9.9999V4.3998C9.9999 3.4998 9.6999 2.6998 9.1999 2.1998C8.5999 1.7998 7.8999 1.3998 6.8999 1.3998Z" fill="#1A8DE1"/>
<path d="M50.9 12.4998L50.7999 12.3998L50.9 12.2998L51.0999 12.4998V12.5998L50.2 12.8998V12.7998L50.9 12.4998Z" fill="#EA496F"/>
<path d="M50.8999 13.5997C50.5999 13.6997 50.3999 13.5997 50.2999 13.3997C50.1999 13.1997 50.3999 13.0997 50.6999 12.9997C50.9999 12.8997 51.1999 12.9997 51.2999 13.1997C51.2999 13.3997 51.1999 13.4997 50.8999 13.5997ZM50.7999 13.0997C50.5999 13.1997 50.4999 13.2997 50.4999 13.3997C50.4999 13.4997 50.6999 13.4997 50.8999 13.4997C51.0999 13.3997 51.1999 13.2997 51.1999 13.1997C51.1999 13.0997 50.9999 12.9997 50.7999 13.0997Z" fill="#EA496F"/>
<path d="M51.4001 13.8998L51.3001 13.7998H51.4001V13.8998L51.5001 14.0998L50.6001 14.2998V14.1998L51.4001 13.8998Z" fill="#EA496F"/>
<path d="M51.2 15.0999C50.9 15.0999 50.7 14.9999 50.7 14.7999C50.7 14.5999 50.7999 14.4999 51.0999 14.3999C51.3999 14.3999 51.5999 14.4999 51.5999 14.6999C51.6999 14.8999 51.5 15.0999 51.2 15.0999ZM51.0999 14.5999C50.8999 14.5999 50.7 14.6999 50.7 14.7999C50.7 14.8999 50.8999 14.9999 51.0999 14.8999C51.2999 14.8999 51.5 14.7999 51.5 14.6999C51.5 14.5999 51.3999 14.5999 51.0999 14.5999Z" fill="#EA496F"/>
<path d="M51.5 15.4998L51.4 15.2998H51.5V15.4998L51.5999 15.5998H50.7V15.4998H51.5Z" fill="#EA496F"/>
<path d="M51.1001 16.5999C50.8001 16.5999 50.6001 16.3999 50.6001 16.1999C50.6001 15.9999 50.8001 15.8999 51.1001 15.8999C51.4001 15.8999 51.6001 16.0999 51.6001 16.2999C51.6001 16.4999 51.4001 16.5999 51.1001 16.5999ZM51.2001 16.0999C51.0001 16.0999 50.8001 16.0999 50.8001 16.2999C50.8001 16.3999 50.9001 16.4999 51.2001 16.4999C51.4001 16.4999 51.6001 16.4999 51.6001 16.2999C51.5001 16.1999 51.4001 16.0999 51.2001 16.0999Z" fill="#EA496F"/>
<path d="M51.4 16.9999V16.8999H51.5L51.5999 17.0999V17.1999L50.7 16.9999V16.8999L51.4 16.9999Z" fill="#EA496F"/>
<path d="M50.7999 18.0997C50.4999 17.9997 50.3999 17.8997 50.3999 17.6997C50.3999 17.4997 50.5999 17.3997 50.8999 17.4997C51.1999 17.5997 51.2999 17.7997 51.2999 17.8997C51.2999 18.0997 51.0999 18.0997 50.7999 18.0997ZM50.8999 17.5997C50.6999 17.4997 50.4999 17.5997 50.4999 17.6997C50.4999 17.7997 50.5999 17.8997 50.7999 17.9997C50.9999 18.0997 51.1999 17.9997 51.1999 17.8997C51.2999 17.7997 51.1999 17.5997 50.8999 17.5997Z" fill="#EA496F"/>
<path d="M51 18.4997V18.2997H51.0999L51 18.4997L51.0999 18.5997L50.2 18.2997V18.1997L51 18.4997Z" fill="#EA496F"/>
<path d="M50.2999 19.4997C49.9999 19.3997 49.8999 19.1997 49.9999 18.9997C50.0999 18.7997 50.2999 18.7997 50.5999 18.8997C50.8999 18.9997 50.9999 19.1997 50.8999 19.3997C50.7999 19.4997 50.5999 19.5997 50.2999 19.4997ZM50.4999 18.9997C50.2999 18.8997 50.0999 18.8997 50.0999 18.9997C49.9999 19.0997 50.1999 19.1997 50.3999 19.2997C50.5999 19.3997 50.7999 19.3997 50.7999 19.2997C50.7999 19.1997 50.6999 19.0997 50.4999 18.9997Z" fill="#EA496F"/>
<path d="M50.4 19.9996V19.7996H50.5L50.4 19.9996L50.5 20.0996L49.7 19.6996L49.7999 19.5996L50.4 19.9996Z" fill="#EA496F"/>
<path d="M49.6 20.8C49.3 20.7 49.2 20.5 49.3 20.3C49.4 20.1 49.6 20.1 49.9 20.2C50.2 20.3 50.3 20.5 50.2 20.7C50.1 20.9 49.9 20.9 49.6 20.8ZM49.8 20.3C49.6 20.2 49.4 20.2 49.4 20.3C49.3 20.4 49.4 20.5 49.7 20.7C49.9 20.8 50.1 20.8 50.1 20.7C50.2 20.6 50.1 20.5 49.8 20.3Z" fill="#EA496F"/>
<path d="M49.6999 21.2999V21.0999H49.7999L49.6999 21.2999V21.4999L48.8999 20.9999L48.9999 20.8999L49.6999 21.2999Z" fill="#EA496F"/>
<path d="M48.8001 22.0997C48.5001 21.8997 48.5001 21.6997 48.6001 21.5997C48.7001 21.3997 48.9001 21.3997 49.2001 21.5997C49.5001 21.7997 49.5001 21.9997 49.4001 22.0997C49.3001 22.1997 49.1001 22.1997 48.8001 22.0997ZM49.1001 21.5997C48.9001 21.4997 48.7001 21.3997 48.7001 21.4997C48.6001 21.5997 48.7001 21.6997 48.9001 21.8997C49.1001 21.9997 49.2001 22.0997 49.3001 21.9997C49.4001 21.8997 49.3001 21.7997 49.1001 21.5997Z" fill="#EA496F"/>
<path d="M48.8001 22.5996V22.3996H48.9001L48.8001 22.5996V22.7996L48.1001 22.1996L48.2001 22.0996L48.8001 22.5996Z" fill="#EA496F"/>
<path d="M47.8 23.0998C47.6 22.8998 47.6 22.6998 47.7 22.4998C47.8 22.3998 48 22.3998 48.3 22.5998C48.5 22.7998 48.5 22.9998 48.4 23.1998C48.2 23.3998 48 23.3998 47.8 23.0998ZM48.2 22.7998C48 22.5998 47.9 22.5998 47.8 22.5998C47.7 22.6998 47.8 22.7998 47.9 22.9998C48.1 23.1998 48.2 23.1998 48.3 23.0998C48.4 23.0998 48.4 22.9998 48.2 22.7998Z" fill="#EA496F"/>
<path d="M47.6001 23.6995L47.7001 23.4995L47.8001 23.5995L47.7001 23.7995L47.6001 23.8995L47.1001 23.0995L47.2001 22.9995L47.6001 23.6995Z" fill="#EA496F"/>
<path d="M46.8999 23.9997L46.9999 23.8997L47.0999 23.9997L46.8999 24.0997H46.7999L46.3999 23.2997L46.4999 23.1997L46.8999 23.9997Z" fill="#EA496F"/>
<path d="M45.7001 23.8999C45.6001 23.5999 45.7001 23.3999 45.9001 23.3999C46.1001 23.3999 46.2001 23.4999 46.3001 23.7999C46.4001 24.0999 46.3001 24.2999 46.1001 24.2999C45.9001 24.3999 45.8001 24.1999 45.7001 23.8999ZM46.2001 23.7999C46.1001 23.5999 46.0001 23.3999 45.9001 23.4999C45.8001 23.4999 45.7001 23.6999 45.8001 23.8999C45.8001 24.0999 45.9001 24.2999 46.1001 24.1999C46.2001 24.1999 46.2001 24.0999 46.2001 23.7999Z" fill="#EA496F"/>
<path d="M45.2001 24.2995L45.4001 24.1995V24.2995L45.2001 24.3995H45.1001V23.4995H45.2001V24.2995Z" fill="#EA496F"/>
<path d="M44.2 23.6998C44.3 23.3998 44.5 23.2998 44.7 23.3998C44.9 23.4998 44.9 23.6998 44.8 23.9998C44.7 24.2998 44.5 24.3998 44.3 24.2998C44.1 24.1998 44.1 23.9998 44.2 23.6998ZM44.7 23.8998C44.8 23.6998 44.8 23.4998 44.7 23.4998C44.6 23.4998 44.5 23.5998 44.4 23.7998C44.3 23.9998 44.3 24.1998 44.4 24.1998C44.4 24.1998 44.6 24.0998 44.7 23.8998Z" fill="#EA496F"/>
<path d="M43.5999 23.7996H43.7999V23.8996L43.5999 23.7996H43.3999L43.9999 23.0996L44.0999 23.1996L43.5999 23.7996Z" fill="#EA496F"/>
<path d="M43.1001 22.6998C43.4001 22.4998 43.6001 22.4998 43.7001 22.6998C43.8001 22.8998 43.7001 22.9998 43.5001 23.1998C43.2001 23.3998 43.0001 23.3998 42.9001 23.1998C42.8001 23.0998 42.9001 22.8998 43.1001 22.6998ZM43.4001 23.1998C43.6001 23.0998 43.7001 22.8998 43.6001 22.7998C43.5001 22.6998 43.4001 22.6998 43.2001 22.8998C43.0001 22.9998 42.9001 23.1998 43.0001 23.2998C43.1001 23.2998 43.2001 23.2998 43.4001 23.1998Z" fill="#EA496F"/>
<path d="M42.7 22.4996L42.8 22.5996L42.7 22.6996L42.5 22.4996V22.3996L43.4 22.0996V22.1996L42.7 22.4996Z" fill="#EA496F"/>
<path d="M42.8 21.2998C43.1 21.2998 43.3 21.3998 43.3 21.5998C43.3 21.7998 43.1 21.8998 42.8 21.8998C42.5 21.8998 42.3 21.7998 42.3 21.5998C42.3 21.4998 42.5 21.2998 42.8 21.2998ZM42.8 21.7998C43 21.7998 43.2001 21.6998 43.2001 21.5998C43.2001 21.4998 43 21.3998 42.8 21.3998C42.6 21.3998 42.4001 21.4998 42.4001 21.5998C42.4001 21.7998 42.6 21.8998 42.8 21.7998Z" fill="#EA496F"/>
<path d="M42.4999 20.8997L42.5999 21.0997H42.4999V20.8997L42.3999 20.6997L43.2999 20.7997V20.8997H42.4999Z" fill="#EA496F"/>
<path d="M43.1001 19.8C43.4001 19.9 43.5001 20 43.5001 20.2C43.5001 20.4 43.3001 20.5 43.0001 20.4C42.7001 20.3 42.6001 20.1 42.6001 20C42.6001 19.8 42.8001 19.7 43.1001 19.8ZM43.0001 20.3C43.2001 20.4 43.4001 20.3 43.4001 20.2C43.4001 20.1 43.3001 20 43.1001 19.9C42.9001 19.8 42.7001 19.9 42.7001 20C42.6001 20.1 42.7001 20.2 43.0001 20.3Z" fill="#EA496F"/>
<path d="M42.9 19.2997V19.4997H42.7999L42.7 19.2997V19.1997L43.5999 19.3997V19.4997L42.9 19.2997Z" fill="#EA496F"/>
<path d="M43.4999 18.3C43.7999 18.4 43.9999 18.5 43.8999 18.7C43.8999 18.9 43.6999 19 43.3999 18.9C43.0999 18.8 42.8999 18.7 42.9999 18.5C42.9999 18.3 43.1999 18.2 43.4999 18.3ZM43.3999 18.8C43.5999 18.8 43.7999 18.8 43.7999 18.7C43.7999 18.6 43.6999 18.5 43.4999 18.4C43.2999 18.4 43.0999 18.4 43.0999 18.5C42.9999 18.6 43.1999 18.7 43.3999 18.8Z" fill="#EA496F"/>
<path d="M43.2001 17.8998L43.3001 18.0998H43.2001V17.8998L43.1001 17.7998L44.0001 17.8998V17.9998L43.2001 17.8998Z" fill="#EA496F"/>
<path d="M43.6001 16.7998C43.9001 16.7998 44.1001 16.8998 44.1001 17.0998C44.1001 17.2998 43.9001 17.3998 43.6001 17.3998C43.3001 17.3998 43.1001 17.1998 43.1001 17.0998C43.1001 16.8998 43.3001 16.7998 43.6001 16.7998ZM43.6001 17.2998C43.8001 17.2998 44.0001 17.1998 44.0001 17.0998C44.0001 16.9998 43.9001 16.8998 43.6001 16.8998C43.4001 16.8998 43.2001 16.8998 43.2001 17.0998C43.2001 17.1998 43.4001 17.2998 43.6001 17.2998Z" fill="#EA496F"/>
<path d="M43.2999 16.3998L43.4 16.5998H43.2999V16.3998L43.2 16.2998H44.0999V16.3998H43.2999Z" fill="#EA496F"/>
<path d="M43.6001 15.2998C43.9001 15.2998 44.1001 15.3998 44.1001 15.5998C44.1001 15.7998 43.9001 15.8998 43.6001 15.8998C43.3001 15.8998 43.1001 15.7998 43.1001 15.5998C43.1001 15.4998 43.3001 15.2998 43.6001 15.2998ZM43.6001 15.7998C43.8001 15.7998 44.0001 15.6998 44.0001 15.5998C44.0001 15.4998 43.8001 15.3998 43.6001 15.3998C43.4001 15.3998 43.2001 15.4998 43.2001 15.5998C43.2001 15.7998 43.4001 15.7998 43.6001 15.7998Z" fill="#EA496F"/>
<path d="M43.2001 14.9998L43.3001 15.1998H43.2001V14.9998L43.1001 14.8998L44.0001 14.7998V14.8998L43.2001 14.9998Z" fill="#EA496F"/>
<path d="M43.1 14.2996L43.2 14.4996H43.1V14.2996L43 14.1996L43.9 14.0996V14.1996L43.1 14.2996Z" fill="#EA496F"/>
<path d="M43.2001 13.0998C43.5001 12.9998 43.7001 13.0998 43.7001 13.2998C43.7001 13.4998 43.6 13.5998 43.3 13.6998C43 13.7998 42.8 13.6998 42.8 13.4998C42.8 13.2998 42.9001 13.1998 43.2001 13.0998ZM43.3 13.5998C43.5 13.5998 43.7 13.4998 43.6 13.2998C43.6 13.1998 43.4001 13.0998 43.2001 13.1998C43.0001 13.1998 42.8001 13.2998 42.9001 13.4998C42.9001 13.5998 43.1 13.6998 43.3 13.5998Z" fill="#EA496F"/>
<path d="M42.8001 12.7999L42.9001 12.8999H42.8001L42.6001 12.6999V12.5999L43.5001 12.3999V12.4999L42.8001 12.7999Z" fill="#EA496F"/>
<path d="M42.7999 11.6999C43.0999 11.5999 43.2999 11.6999 43.3999 11.8999C43.4999 12.0999 43.2999 12.1999 42.9999 12.2999C42.6999 12.3999 42.4999 12.2999 42.3999 12.0999C42.3999 11.8999 42.4999 11.7999 42.7999 11.6999ZM42.9999 12.1999C43.1999 12.0999 43.2999 11.9999 43.2999 11.8999C43.2999 11.7999 43.0999 11.7999 42.8999 11.7999C42.6999 11.8999 42.5999 11.9999 42.5999 12.0999C42.5999 12.1999 42.6999 12.2999 42.9999 12.1999Z" fill="#EA496F"/>
<path d="M42.3001 11.3999L42.4001 11.4999H42.3001L42.1001 11.2999V11.1999L43.0001 10.8999V10.9999L42.3001 11.3999Z" fill="#EA496F"/>
<path d="M42.4 10.1997C42.7 10.1997 42.9 10.2997 42.9 10.4997C42.9 10.6997 42.8 10.7997 42.5 10.8997C42.2 10.8997 42 10.7997 42 10.5997C42 10.3997 42.1 10.1997 42.4 10.1997ZM42.5 10.6997C42.7 10.6997 42.9 10.5997 42.9 10.4997C42.9 10.3997 42.7 10.2997 42.5 10.3997C42.3 10.3997 42.1 10.4997 42.1 10.5997C42.1 10.6997 42.3 10.6997 42.5 10.6997Z" fill="#EA496F"/>
<path d="M42.1 9.69961L42.2 9.89961H42.1V9.69961L42 9.59961L42.9 9.69961V9.79961L42.1 9.69961Z" fill="#EA496F"/>
<path d="M42.8001 8.69951C43.1001 8.89951 43.2001 8.99951 43.1001 9.19951C43.0001 9.39951 42.8001 9.39951 42.5001 9.19951C42.2001 8.99951 42.1001 8.79951 42.2001 8.69951C42.3001 8.59951 42.5001 8.59951 42.8001 8.69951ZM42.6001 9.19951C42.8001 9.29951 43.0001 9.29951 43.0001 9.19951C43.1001 9.09951 43.0001 8.99951 42.8001 8.79951C42.6001 8.69951 42.4001 8.69951 42.4001 8.79951C42.3001 8.89951 42.3001 8.99951 42.6001 9.19951Z" fill="#EA496F"/>
<path d="M42.9 8.19951L42.7999 8.39951L42.7 8.29951L42.9 8.09951L43 7.99951L43.5999 8.79951H43.4L42.9 8.19951Z" fill="#EA496F"/>
<path d="M44.2 7.99974C44.3 8.29974 44.2 8.49974 44 8.49974C43.8 8.49974 43.7 8.39974 43.6 8.09974C43.5 7.79974 43.6 7.59974 43.8 7.59974C44 7.49974 44.1 7.69974 44.2 7.99974ZM43.7 8.09974C43.7 8.29974 43.8 8.49974 44 8.39974C44.1 8.39974 44.2 8.19974 44.1 7.99974C44.1 7.79974 44 7.59974 43.8 7.69974C43.7 7.69974 43.6 7.79974 43.7 8.09974Z" fill="#EA496F"/>
<path d="M44.7 7.59961L44.5 7.69961V7.59961H44.7L44.8 8.39961H44.7V7.59961Z" fill="#EA496F"/>
<path d="M45.8001 8.09974C45.8001 8.39974 45.6001 8.59974 45.4001 8.49974C45.2001 8.49974 45.1001 8.29974 45.2001 7.99974C45.2001 7.69974 45.4001 7.49974 45.6001 7.59974C45.8001 7.59974 45.8001 7.79974 45.8001 8.09974ZM45.3001 7.99974C45.3001 8.19974 45.3001 8.39974 45.4001 8.39974C45.5001 8.39974 45.6001 8.29974 45.6001 7.99974C45.6001 7.79974 45.6001 7.59974 45.5001 7.59974C45.4001 7.69974 45.3001 7.79974 45.3001 7.99974Z" fill="#EA496F"/>
<path d="M46.3001 7.7998L46.2001 8.5998H46.1001L46.3001 7.7998Z" fill="#EA496F"/>
<path d="M47.3 8.4999C47.2 8.7999 47 8.8999 46.8 8.8999C46.6 8.7999 46.6 8.5999 46.7 8.2999C46.8 7.9999 47 7.8999 47.2 7.9999C47.3 7.9999 47.4 8.1999 47.3 8.4999ZM46.8 8.2999C46.7 8.4999 46.7 8.6999 46.9 8.6999C47 8.6999 47.1 8.5999 47.2 8.3999C47.3 8.1999 47.3 7.9999 47.2 7.9999C47 7.9999 46.9 8.0999 46.8 8.2999Z" fill="#EA496F"/>
<path d="M47.7999 8.3998H47.5999V8.2998L47.7999 8.3998H47.9999L47.5999 9.1998L47.3999 9.0998L47.7999 8.3998Z" fill="#EA496F"/>
<path d="M48.6 9.29994C48.4 9.59994 48.2 9.59994 48 9.49994C47.9 9.39994 47.9 9.19994 48 8.89994C48.2 8.59994 48.4 8.59994 48.6 8.69994C48.7 8.89994 48.7 9.09994 48.6 9.29994ZM48.1 8.99994C48 9.19994 47.9 9.39994 48 9.39994C48.1 9.49994 48.2001 9.39994 48.4001 9.19994C48.5001 8.99994 48.6 8.89994 48.5 8.79994C48.4 8.69994 48.3 8.79994 48.1 8.99994Z" fill="#EA496F"/>
<path d="M49.1 9.39971L48.9 9.29971L49 9.19971L49.1 9.39971H49.3L48.6 10.0997L48.5 9.99971L49.1 9.39971Z" fill="#EA496F"/>
<path d="M49.6 10.4996C49.3 10.6996 49.1 10.6996 49 10.4996C48.9 10.3996 48.9 10.1996 49.2 9.99961C49.5 9.79961 49.7 9.79961 49.8 9.99961C49.9 10.0996 49.8 10.2996 49.6 10.4996ZM49.2 10.0996C49 10.1996 48.9 10.3996 49 10.4996C49.1 10.5996 49.2 10.5996 49.4 10.3996C49.6 10.2996 49.7 10.0996 49.6 9.99961C49.6 9.89961 49.4 9.89961 49.2 10.0996Z" fill="#EA496F"/>
<path d="M50.0999 10.6995L49.8999 10.5995L49.9999 10.4995L50.1999 10.5995L50.2999 10.6995L49.3999 11.1995V11.0995L50.0999 10.6995Z" fill="#EA496F"/>
<path d="M50.3001 11.8C50.0001 11.9 49.8001 11.9 49.7001 11.7C49.6001 11.5 49.7001 11.3 50.0001 11.2C50.3001 11.1 50.5001 11.1 50.6001 11.3C50.7001 11.5 50.6001 11.7 50.3001 11.8ZM50.1001 11.4C49.9001 11.5 49.8001 11.6 49.8001 11.7C49.9001 11.8 50.0001 11.8 50.2001 11.7C50.4001 11.6 50.5001 11.5 50.5001 11.4C50.4001 11.2 50.3001 11.2 50.1001 11.4Z" fill="#EA496F"/>
<defs>
<linearGradient id="paint0_linear_13727_15088" x1="45.4166" y1="1.14971" x2="45.4166" y2="31.1497" gradientUnits="userSpaceOnUse">
<stop stop-color="#F4B941"/>
<stop offset="1" stop-color="#EA496F"/>
</linearGradient>
<linearGradient id="paint1_linear_13727_15088" x1="57.74" y1="1.14971" x2="57.74" y2="31.1497" gradientUnits="userSpaceOnUse">
<stop stop-color="#F4B941"/>
<stop offset="1" stop-color="#EA496F"/>
</linearGradient>
</defs>
</svg>
