<svg width="34" height="34" viewBox="0 0 34 34" fill="none" xmlns="http://www.w3.org/2000/svg">
<rect width="34" height="34" rx="5" fill="#06DDB8"/>
<path d="M21.1441 17.6688L17.0967 22.6946C16.9423 22.8864 16.9764 23.164 17.173 23.3146C17.2527 23.3757 17.3512 23.409 17.4526 23.409H19.237V26.0584C19.237 26.3023 19.4397 26.5 19.6896 26.5H23.3104C23.5604 26.5 23.763 26.3023 23.763 26.0584V23.409H25.5474C25.7974 23.409 26 23.2113 26 22.9674C26 22.8685 25.966 22.7724 25.9033 22.6946L21.8559 17.6688C21.7015 17.477 21.417 17.4437 21.2204 17.5944C21.192 17.6161 21.1664 17.6411 21.1441 17.6688Z" fill="white"/>
<path d="M22.8558 8.6602H19.595C19.1643 7.47072 18.0363 6.60938 16.7033 6.60938C15.3703 6.60938 14.2423 7.47072 13.8116 8.6602H10.5508C9.42287 8.6602 8.5 9.58308 8.5 10.711V26.0922C8.5 27.2202 9.42287 28.1431 10.5508 28.1431H16.8161C16.2111 27.5586 15.7189 26.8613 15.36 26.0922H10.5508V10.711H12.6017V13.7873H20.805V10.711H22.8558V15.9201C23.5838 16.0227 24.2709 16.238 24.9066 16.5354V10.711C24.9066 9.58308 23.9837 8.6602 22.8558 8.6602ZM16.7033 10.711C16.1393 10.711 15.6779 10.2496 15.6779 9.68562C15.6779 9.12164 16.1393 8.6602 16.7033 8.6602C17.2673 8.6602 17.7287 9.12164 17.7287 9.68562C17.7287 10.2496 17.2673 10.711 16.7033 10.711Z" fill="white"/>
</svg>
