<svg width="32" height="32" viewBox="0 0 32 32" fill="none" xmlns="http://www.w3.org/2000/svg">
<path d="M0.998548 11C10.2385 11 19.4785 11 28.9985 11C28.9985 12.7944 28.9985 14.5888 28.9985 16.4375C28.6573 16.2425 28.3256 16.0305 27.9985 15.8125C27.9985 15.2144 27.9985 14.6162 27.9985 14C26.0185 14 24.0385 14 21.9985 14C21.9985 14.5981 21.9985 15.1963 21.9985 15.8125C21.751 15.9775 21.5035 16.1425 21.2485 16.3125C20.0366 17.2127 19.2212 18.466 18.8735 19.9375C18.8626 19.9823 18.8516 20.027 18.8403 20.0732C18.733 20.5755 18.7371 21.0691 18.7448 21.5795C18.7484 21.8479 18.7483 22.1163 18.7489 22.3848C18.75 22.7242 18.7521 23.0636 18.7577 23.4031C18.7622 23.6795 18.7633 23.9557 18.7622 24.2322C18.7624 24.3366 18.7638 24.4411 18.7665 24.5455C18.7889 25.443 18.7889 25.443 18.4466 25.8044C18.3575 25.8874 18.2638 25.9653 18.1699 26.0429C17.4533 26.6476 17.1834 27.6869 17.0579 28.5786C17.0412 28.6969 17.0412 28.6969 17.0241 28.8177C17.0157 28.8778 17.0072 28.938 16.9985 29C15.2372 29.0073 13.4758 29.0128 11.7144 29.0162C10.8966 29.0178 10.0787 29.02 9.26079 29.0236C8.54767 29.0267 7.83457 29.0287 7.12145 29.0294C6.74408 29.0298 6.36672 29.0308 5.98936 29.033C5.63364 29.0352 5.27796 29.0358 4.92224 29.0353C4.79219 29.0354 4.66214 29.036 4.53209 29.0373C3.44169 29.0469 2.61181 28.9098 1.80177 28.1189C1.20984 27.4951 0.978343 26.8247 0.983516 25.9792C0.983409 25.9152 0.983302 25.8512 0.983192 25.7852C0.982985 25.5705 0.983674 25.3557 0.984357 25.141C0.984395 24.9845 0.984379 24.828 0.984311 24.6715C0.984286 24.295 0.984821 23.9185 0.985624 23.5419C0.986525 23.1063 0.986623 22.6706 0.986722 22.2349C0.987378 21.085 0.989123 19.9351 0.990735 18.7852C0.993313 16.2161 0.995891 13.647 0.998548 11ZM5.99855 16C5.99855 16.66 5.99855 17.32 5.99855 18C7.31855 18 8.63855 18 9.99855 18C9.99855 17.34 9.99855 16.68 9.99855 16C8.67855 16 7.35855 16 5.99855 16ZM12.9985 16C12.9985 16.66 12.9985 17.32 12.9985 18C14.3185 18 15.6385 18 16.9985 18C16.9985 17.34 16.9985 16.68 16.9985 16C15.6785 16 14.3585 16 12.9985 16ZM5.99855 22C5.99855 22.66 5.99855 23.32 5.99855 24C7.31855 24 8.63855 24 9.99855 24C9.99855 23.34 9.99855 22.68 9.99855 22C8.67855 22 7.35855 22 5.99855 22ZM12.9985 22C12.9985 22.66 12.9985 23.32 12.9985 24C13.9885 24 14.9785 24 15.9985 24C15.9985 23.34 15.9985 22.68 15.9985 22C15.0085 22 14.0185 22 12.9985 22Z" fill="#0A77DB"/>
<path d="M6.99854 1C7.65854 1 8.31854 1 8.99854 1C8.99854 1.66 8.99854 2.32 8.99854 3C12.9585 3 16.9185 3 20.9985 3C20.9985 2.34 20.9985 1.68 20.9985 1C21.6585 1 22.3185 1 22.9985 1C22.9985 1.66 22.9985 2.32 22.9985 3C23.2515 2.9971 23.5045 2.9942 23.7651 2.99121C23.9689 2.9896 24.1726 2.98825 24.3763 2.98706C24.5903 2.98575 24.8042 2.984 25.0182 2.98114C25.2646 2.97786 25.5109 2.97668 25.7573 2.97559C25.8705 2.97365 25.8705 2.97365 25.9859 2.97168C26.8949 2.97144 27.5716 3.28099 28.2329 3.89453C29.5208 5.2553 28.9985 7.27198 28.9985 9C19.7585 9 10.5185 9 0.998535 9C0.998535 4.72978 0.998535 4.72978 1.89307 3.76562C2.57166 3.12339 3.32015 2.97015 4.22754 2.98169C4.30712 2.98195 4.38669 2.98222 4.46868 2.98249C4.67809 2.98336 4.88746 2.98504 5.09686 2.98713C5.3114 2.98906 5.52594 2.98991 5.74048 2.99084C6.15985 2.99274 6.57916 2.99641 6.99854 3C6.99854 2.34 6.99854 1.68 6.99854 1Z" fill="#0A77DB"/>
<path opacity="0.6" d="M23.9985 16C24.6585 16 25.3185 16 25.9985 16C25.9985 16.3713 25.9985 16.7425 25.9985 17.125C26.1429 17.1456 26.2873 17.1662 26.436 17.1875C27.559 17.5802 28.4662 18.3772 28.9985 19.4375C29.2371 19.9973 29.3829 20.5551 29.3824 21.1643C29.3826 21.2113 29.3828 21.2583 29.3831 21.3067C29.3835 21.4085 29.3839 21.5103 29.3841 21.612C29.3845 21.7737 29.3855 21.9354 29.3867 22.0971C29.3899 22.5568 29.3929 23.0164 29.3939 23.4761C29.3945 23.7577 29.3964 24.0393 29.399 24.3209C29.3998 24.4275 29.4001 24.5342 29.3999 24.6408C29.3991 25.4796 29.4663 26.2286 30.061 26.875C30.1452 26.9575 30.2299 27.0395 30.3149 27.1211C30.6527 27.4492 30.8253 27.8168 30.9985 28.25C30.9985 28.4975 30.9985 28.745 30.9985 29C29.3485 29 27.6985 29 25.9985 29C25.9985 29.66 25.9985 30.32 25.9985 31C25.3385 31 24.6785 31 23.9985 31C23.9985 30.34 23.9985 29.68 23.9985 29C22.3485 29 20.6985 29 18.9985 29C18.9985 28.1885 19.1125 27.7733 19.6235 27.1875C19.7076 27.1061 19.7922 27.0254 19.8774 26.9453C20.2988 26.5353 20.5373 25.9772 20.5768 25.3913C20.5775 25.3065 20.5775 25.2217 20.577 25.137C20.5773 25.0669 20.5773 25.0669 20.5777 24.9954C20.5781 24.8946 20.5783 24.7938 20.5782 24.693C20.5781 24.5325 20.5789 24.3721 20.58 24.2117C20.5829 23.7557 20.5844 23.2997 20.5848 22.8437C20.5852 22.564 20.5867 22.2843 20.5889 22.0046C20.5895 21.8989 20.5897 21.7933 20.5893 21.6877C20.5855 20.4161 20.8847 19.3473 21.7485 18.375C21.7832 18.3352 21.8178 18.2954 21.8535 18.2544C22.4097 17.6556 23.1962 17.2396 23.9985 17.125C23.9985 16.7537 23.9985 16.3825 23.9985 16Z" fill="#0A77DB"/>
</svg>
