<svg width="32" height="32" viewBox="0 0 32 32" fill="none" xmlns="http://www.w3.org/2000/svg">
<g clip-path="url(#clip0_13298_9401)">
<path d="M19.4234 18.1333H19.8384C23.0184 18.1333 25.5984 20.7133 25.5984 23.8933V25.3333C25.5984 26.6583 24.5234 27.7333 23.1984 27.7333H8.79844C7.47344 27.7333 6.39844 26.6583 6.39844 25.3333V23.8933C6.39844 20.7133 8.97844 18.1333 12.1584 18.1333H12.5734C13.6184 18.6333 14.7684 18.9333 15.9984 18.9333C17.2284 18.9333 18.3834 18.6333 19.4234 18.1333Z" fill="#0A77DB"/>
<path d="M19.8384 18.1333H19.4234C18.3834 18.6333 17.2284 18.9333 15.9984 18.9333C14.7684 18.9333 13.6184 18.6333 12.5734 18.1333H12.1584C8.97844 18.1333 6.39844 20.7133 6.39844 23.8933V25.3333C6.39844 26.6583 7.47344 27.7333 8.79844 27.7333H23.1984C24.5234 27.7333 25.5984 26.6583 25.5984 25.3333V23.8933C25.5984 20.7133 23.0184 18.1333 19.8384 18.1333Z" fill="#0A77DB"/>
<path opacity="0.6" d="M30.3985 11.7332C30.3985 13.4982 28.9635 14.9332 27.1985 14.9332C25.4335 14.9332 23.9985 13.4982 23.9985 11.7332C23.9985 9.9682 25.4335 8.5332 27.1985 8.5332C28.9635 8.5332 30.3985 9.9682 30.3985 11.7332Z" fill="#0A77DB"/>
<path opacity="0.6" d="M25.5985 16.5332H28.7985C30.5635 16.5332 31.9985 17.9682 31.9985 19.7332V21.3332C31.9985 22.2182 31.2835 22.9332 30.3985 22.9332H27.0985C26.7885 20.5632 25.3585 18.5682 23.3435 17.4632C23.9235 16.8882 24.7185 16.5332 25.5985 16.5332Z" fill="#0A77DB"/>
<path opacity="0.6" d="M7.99839 11.7332C7.99839 13.4982 6.56339 14.9332 4.79839 14.9332C3.03339 14.9332 1.59839 13.4982 1.59839 11.7332C1.59839 9.9682 3.03339 8.5332 4.79839 8.5332C6.56339 8.5332 7.99839 9.9682 7.99839 11.7332Z" fill="#0A77DB"/>
<path opacity="0.6" d="M6.39854 16.5332C7.27854 16.5332 8.07354 16.8882 8.65354 17.4632C6.63854 18.5682 5.20854 20.5632 4.89354 22.9332H1.59854C0.713535 22.9332 -0.00146484 22.2182 -0.00146484 21.3332V19.7332C-0.00146484 17.9682 1.43354 16.5332 3.19854 16.5332H6.39854Z" fill="#0A77DB"/>
<path opacity="0.6" d="M15.9987 13.0996C17.1585 13.0996 18.0987 12.1594 18.0987 10.9997C18.0987 9.84003 17.1585 8.8999 15.9987 8.8999C14.8389 8.8999 13.8987 9.84003 13.8987 10.9997C13.8987 12.1594 14.8389 13.0996 15.9987 13.0996Z" fill="#0A77DB"/>
<path d="M22.9985 10.2995H21.5502C21.2324 7.77199 19.2269 5.76595 16.6985 5.44818V4H15.2985V5.44818C12.7708 5.76595 10.7646 7.77199 10.4468 10.2995H8.99854V11.6994H10.4468C10.7646 14.2268 12.7701 16.2329 15.2985 16.5507V17.9988H16.6985V16.5507C19.2269 16.2329 21.2324 14.2268 21.5502 11.6994H22.9985V10.2995ZM15.9985 15.1991C13.6822 15.1991 11.7985 13.3155 11.7985 10.9994C11.7985 8.68331 13.6822 6.79977 15.9985 6.79977C18.3148 6.79977 20.1985 8.68331 20.1985 10.9994C20.1985 13.3155 18.3148 15.1991 15.9985 15.1991Z" fill="#0A77DB"/>
</g>
<defs>
<clipPath id="clip0_13298_9401">
<rect width="32" height="32" fill="white" transform="translate(-0.00146484)"/>
</clipPath>
</defs>
</svg>
