<svg width="11" height="11" viewBox="0 0 11 11" fill="none" xmlns="http://www.w3.org/2000/svg">
<rect width="11" height="11" rx="5.5" fill="#03BBBB"/>
<path d="M6.80225 6.41748H7.4585C7.42432 6.73193 7.33431 7.01335 7.18848 7.26172C7.04264 7.51009 6.83643 7.70719 6.56982 7.85303C6.30322 7.99658 5.97054 8.06836 5.57178 8.06836C5.28011 8.06836 5.01465 8.01367 4.77539 7.9043C4.53841 7.79492 4.33447 7.63997 4.16357 7.43945C3.99268 7.23665 3.86051 6.99398 3.76709 6.71143C3.67594 6.4266 3.63037 6.10986 3.63037 5.76123V5.26562C3.63037 4.91699 3.67594 4.6014 3.76709 4.31885C3.86051 4.03402 3.99382 3.7902 4.16699 3.5874C4.34245 3.3846 4.55322 3.22852 4.79932 3.11914C5.04541 3.00977 5.32227 2.95508 5.62988 2.95508C6.00586 2.95508 6.32373 3.02572 6.5835 3.16699C6.84326 3.30827 7.04492 3.50423 7.18848 3.75488C7.33431 4.00326 7.42432 4.2915 7.4585 4.61963H6.80225C6.77035 4.38721 6.7111 4.18783 6.62451 4.02148C6.53792 3.85286 6.41488 3.72298 6.25537 3.63184C6.09587 3.54069 5.88737 3.49512 5.62988 3.49512C5.40885 3.49512 5.21403 3.53727 5.04541 3.62158C4.87907 3.70589 4.73893 3.82552 4.625 3.98047C4.51335 4.13542 4.42904 4.32113 4.37207 4.5376C4.3151 4.75407 4.28662 4.99447 4.28662 5.25879V5.76123C4.28662 6.00505 4.31169 6.23405 4.36182 6.44824C4.41423 6.66243 4.49284 6.85042 4.59766 7.01221C4.70247 7.17399 4.83577 7.3016 4.99756 7.39502C5.15934 7.48617 5.35075 7.53174 5.57178 7.53174C5.85205 7.53174 6.07536 7.4873 6.2417 7.39844C6.40804 7.30957 6.53337 7.18197 6.61768 7.01562C6.70426 6.84928 6.76579 6.6499 6.80225 6.41748Z" fill="white"/>
</svg>
