<svg width="54" height="54" viewBox="0 0 54 54" fill="none" xmlns="http://www.w3.org/2000/svg">
<rect x="1.5" y="1.5" width="50.0222" height="50.0222" rx="11.5" fill="#EE4428" stroke="white" stroke-width="3"/>
<g clip-path="url(#clip0_4826_33255)">
<path opacity="0.4" d="M16.632 12.5149C14.6469 12.8923 13.0719 14.4946 12.7164 16.5017C12.6781 16.7204 12.6562 19.2907 12.6562 24.2071V31.5845L12.9133 31.2399C14.0781 29.6431 16.1781 28.7243 18.1031 28.9595C18.3984 28.9923 18.743 29.0251 18.8633 29.0251L19.082 29.0306V20.9259C19.082 13.4501 19.0766 12.8103 18.9891 12.7282C18.7484 12.4876 17.4141 12.3673 16.632 12.5149Z" fill="white"/>
<path d="M19.9839 23.9531C19.9839 30.1109 20.0003 29.8047 19.6612 30.007C19.4589 30.1273 19.3222 30.1218 18.9175 29.9961C17.2386 29.4711 15.2206 30.0125 13.9792 31.3195C12.5847 32.7961 12.2565 35.0273 13.1643 36.8539C13.6893 37.9093 14.6683 38.8008 15.7948 39.2383C16.6643 39.5773 16.1011 39.5609 28.0175 39.5609C38.7745 39.5609 38.8784 39.5609 39.0589 39.4515C39.1573 39.3914 39.2612 39.2765 39.2886 39.2C39.3214 39.1125 39.3433 35.3828 39.3433 28.9461C39.3433 17.7843 39.3706 18.6101 38.9933 18.4297C38.8237 18.3476 37.9925 18.3422 29.3956 18.3422H19.9839V23.9531ZM29.3464 21.8257C29.4339 21.9078 29.4448 22.0226 29.4448 23.2203C29.4448 24.4507 29.4394 24.5273 29.3354 24.6312C29.2315 24.7351 29.155 24.7406 27.8042 24.7406H26.3823L26.3933 25.8726L26.4097 27.0047L27.8042 27.8086L29.1987 28.6179H32.0534L34.9081 28.6234L34.9901 28.7437C35.0667 28.8476 35.0776 29.1593 35.0776 31.0078V33.1461L35.7229 33.1734C36.4393 33.2062 36.5979 33.2609 36.8714 33.5726C37.1011 33.8351 37.1284 33.95 37.1284 34.7484C37.1284 35.514 37.0847 35.6453 36.7511 35.9406C36.4558 36.1976 36.1495 36.2359 34.5143 36.214C33.1526 36.1976 33.0706 36.1922 32.8518 36.0718C32.7206 36.0062 32.5511 35.8476 32.469 35.7218C32.3214 35.4976 32.3159 35.4758 32.3159 34.6937C32.3159 33.9117 32.3214 33.8898 32.469 33.6656C32.7042 33.3047 32.9667 33.2008 33.7268 33.1734L34.3667 33.1515V31.2429V29.3343H31.7636H29.1604L27.7714 30.1328L26.3823 30.9312V32.0468V33.1625H27.93C28.7776 33.1625 29.5269 33.1789 29.5925 33.1953C29.6581 33.2117 29.7292 33.2718 29.7456 33.3265C29.7675 33.4031 29.3136 35.2406 29.1058 35.8859C29.0019 36.225 29.0237 36.225 25.6058 36.225C23.9104 36.225 22.4722 36.2086 22.4065 36.1922C22.3409 36.1758 22.2753 36.1211 22.2534 36.0718C22.2097 35.9515 22.8823 33.4523 22.9972 33.3047C23.0847 33.1953 23.1448 33.1898 24.3534 33.1734L25.6167 33.157V32.0414V30.9312L24.2112 30.1273C23.4347 29.6843 22.7456 29.2687 22.68 29.2086C22.5378 29.0828 22.5214 28.9133 22.6253 28.7656C22.6636 28.7164 23.3472 28.2953 24.1401 27.8414L25.5894 27.0047L25.6058 25.8726L25.6167 24.7406H24.1948C22.844 24.7406 22.7675 24.7351 22.6636 24.6312C22.5597 24.5273 22.5542 24.4507 22.5542 23.2257C22.5542 22.0992 22.5651 21.9187 22.6472 21.8312C22.7292 21.7382 22.9042 21.7328 25.9886 21.7328C28.9417 21.7328 29.2534 21.7437 29.3464 21.8257Z" fill="white"/>
</g>
<defs>
<clipPath id="clip0_4826_33255">
<rect width="28" height="28" fill="white" transform="translate(12 12)"/>
</clipPath>
</defs>
</svg>
