<svg width="12" height="13" viewBox="0 0 12 13" fill="none" xmlns="http://www.w3.org/2000/svg">
<rect y="0.75" width="12" height="12" rx="6" fill="#0078FF"/>
<path d="M3.94531 3.5625H6.06641C6.5013 3.5625 6.875 3.6276 7.1875 3.75781C7.5026 3.88802 7.74479 4.08073 7.91406 4.33594C8.08333 4.59115 8.16797 4.90495 8.16797 5.27734C8.16797 5.58203 8.11589 5.84375 8.01172 6.0625C7.91016 6.27865 7.76562 6.45964 7.57812 6.60547C7.39323 6.7487 7.17578 6.86328 6.92578 6.94922L6.55469 7.14453H4.71094L4.70312 6.23047H6.07422C6.27995 6.23047 6.45052 6.19401 6.58594 6.12109C6.72135 6.04818 6.82292 5.94661 6.89062 5.81641C6.96094 5.6862 6.99609 5.53516 6.99609 5.36328C6.99609 5.18099 6.96224 5.02344 6.89453 4.89062C6.82682 4.75781 6.72396 4.65625 6.58594 4.58594C6.44792 4.51562 6.27474 4.48047 6.06641 4.48047H5.11719V9.25H3.94531V3.5625ZM7.125 9.25L5.82812 6.71484L7.06641 6.70703L8.37891 9.19531V9.25H7.125Z" fill="#F4F7FF"/>
</svg>
