<svg width="54" height="54" viewBox="0 0 54 54" fill="none" xmlns="http://www.w3.org/2000/svg">
<rect x="1.5" y="1.5" width="50.0222" height="50.0222" rx="11.5" fill="#C7762F" stroke="white" stroke-width="3"/>
<path d="M34.9333 26.4666C33.9411 26.4666 33.0419 26.8562 32.3736 27.4876L30.5676 25.9999L32.3736 24.5122C33.0419 25.1436 33.9411 25.5332 34.9333 25.5332C36.995 25.5332 38.6666 23.8616 38.6666 21.7999C38.6666 19.7382 36.995 18.0666 34.9333 18.0666C33.4026 18.0666 32.0885 18.9892 31.5121 20.3075L27.1315 19.019C26.8809 18.9444 26.6247 19.0876 26.5524 19.335C26.4796 19.5823 26.621 19.8418 26.8683 19.9141L31.2522 21.2035C31.2209 21.3981 31.1999 21.5964 31.1999 21.7999C31.1999 21.9684 31.2149 22.1331 31.2363 22.296L27.3261 23.3315L22.2203 19.1259C22.3263 18.9588 22.4219 18.7843 22.5003 18.6L25.4721 19.4488C25.5145 19.4605 25.5575 19.4666 25.6009 19.4666C25.8034 19.4666 25.9901 19.3331 26.0489 19.1278C26.1193 18.8804 25.9761 18.6219 25.7278 18.551L22.7523 17.7012C22.7808 17.515 22.7999 17.3264 22.7999 17.1332C22.7999 15.0715 21.1283 13.3999 19.0666 13.3999C17.0049 13.3999 15.3333 15.0715 15.3333 17.1332C15.3333 19.195 17.0049 20.8666 19.0666 20.8666C20.0587 20.8666 20.958 20.4769 21.6263 19.8455L29.0995 25.9999L27.1031 27.644L22.7635 26.4955C22.785 26.3331 22.7999 26.1684 22.7999 25.9999C22.7999 25.8216 22.7831 25.648 22.7589 25.4768L24.3227 25.0502C24.5714 24.9821 24.7184 24.7259 24.6503 24.4772C24.5821 24.228 24.3231 24.0819 24.0772 24.1496L22.5167 24.5752C21.9567 23.2204 20.6234 22.2666 19.0666 22.2666C17.0049 22.2666 15.3333 23.9382 15.3333 25.9999C15.3333 28.0616 17.0049 29.7332 19.0666 29.7332C20.6332 29.7332 21.973 28.7672 22.5265 27.3985L26.215 28.3752L21.6263 32.1543C20.958 31.5229 20.0587 31.1332 19.0666 31.1332C17.0049 31.1332 15.3333 32.8048 15.3333 34.8666C15.3333 36.9283 17.0049 38.5999 19.0666 38.5999C21.1283 38.5999 22.7999 36.9283 22.7999 34.8666C22.7999 34.6468 22.7771 34.4335 22.7407 34.2244L25.2705 33.446C25.5169 33.37 25.655 33.1086 25.5794 32.8627C25.5033 32.6168 25.2439 32.4768 24.9961 32.5538L22.4672 33.3317C22.3953 33.173 22.3123 33.02 22.2203 32.8744L27.3261 28.6692L31.2363 29.7043C31.2149 29.8667 31.1999 30.0314 31.1999 30.1999C31.1999 30.3931 31.2191 30.5816 31.2475 30.7678L28.2721 31.6176C28.0243 31.6886 27.8805 31.9471 27.951 32.1944C28.0098 32.3998 28.1965 32.5332 28.3995 32.5332C28.4424 32.5332 28.4853 32.5272 28.5278 32.5155L31.4995 31.6666C32.0693 32.999 33.3919 33.9332 34.9333 33.9332C36.995 33.9332 38.6666 32.2616 38.6666 30.1999C38.6666 28.1382 36.995 26.4666 34.9333 26.4666ZM28.2137 24.0618L31.4734 23.1985C31.5579 23.4066 31.661 23.6045 31.7795 23.7921L29.8331 25.3956L28.2137 24.0618ZM28.2133 27.9384L29.8335 26.6042L31.78 28.2077C31.6615 28.3953 31.5579 28.5932 31.4739 28.8013L28.2133 27.9384Z" fill="white"/>
<path d="M26.5333 33.0002C26.7911 33.0002 27 32.7913 27 32.5336C27 32.2758 26.7911 32.0669 26.5333 32.0669C26.2756 32.0669 26.0667 32.2758 26.0667 32.5336C26.0667 32.7913 26.2756 33.0002 26.5333 33.0002Z" fill="black"/>
</svg>
