<svg width="32" height="32" viewBox="0 0 32 32" fill="none" xmlns="http://www.w3.org/2000/svg">
<path d="M27.7334 15.9998H20.3937L18.7355 13.5129C18.4385 13.0675 17.9387 12.7998 17.4033 12.7998H13.3334C12.4502 12.7998 11.7334 13.5161 11.7334 14.3998V27.1998C11.7334 28.0835 12.4502 28.7998 13.3334 28.7998H27.7334C28.6166 28.7998 29.3334 28.0835 29.3334 27.1998V17.5998C29.3334 16.7161 28.6166 15.9998 27.7334 15.9998Z" fill="white"/>
<path d="M18.6665 6.4002H11.3268L9.66864 3.91326C9.37157 3.46793 8.87184 3.2002 8.33637 3.2002H4.2665C3.3833 3.2002 2.6665 3.91646 2.6665 4.8002V17.6002C2.6665 18.4839 3.3833 19.2002 4.2665 19.2002H10.1332V14.4002C10.1332 12.6354 11.5684 11.2002 13.3332 11.2002H17.403C18.4761 11.2002 19.4718 11.733 20.0665 12.6258L20.2665 12.9255V8.0002C20.2665 7.11646 19.5497 6.4002 18.6665 6.4002ZM17.3332 9.6002H14.1332C13.6916 9.6002 13.3332 9.2418 13.3332 8.8002C13.3332 8.3586 13.6916 8.0002 14.1332 8.0002H17.3332C17.7748 8.0002 18.1332 8.3586 18.1332 8.8002C18.1332 9.2418 17.7748 9.6002 17.3332 9.6002Z" fill="white"/>
<path opacity="0.6" d="M23.4666 9.60013C24.0557 9.60013 24.5332 9.12257 24.5332 8.53346C24.5332 7.94436 24.0557 7.4668 23.4666 7.4668C22.8775 7.4668 22.3999 7.94436 22.3999 8.53346C22.3999 9.12257 22.8775 9.60013 23.4666 9.60013Z" fill="white"/>
<path opacity="0.6" d="M27.7332 9.60013C28.3223 9.60013 28.7998 9.12257 28.7998 8.53346C28.7998 7.94436 28.3223 7.4668 27.7332 7.4668C27.1441 7.4668 26.6665 7.94436 26.6665 8.53346C26.6665 9.12257 27.1441 9.60013 27.7332 9.60013Z" fill="white"/>
<path opacity="0.6" d="M27.7332 13.8667C28.3223 13.8667 28.7998 13.3892 28.7998 12.8001C28.7998 12.211 28.3223 11.7334 27.7332 11.7334C27.1441 11.7334 26.6665 12.211 26.6665 12.8001C26.6665 13.3892 27.1441 13.8667 27.7332 13.8667Z" fill="white"/>
<path opacity="0.6" d="M4.26686 23.4668C4.85597 23.4668 5.33353 22.9893 5.33353 22.4002C5.33353 21.8111 4.85597 21.3335 4.26686 21.3335C3.67776 21.3335 3.2002 21.8111 3.2002 22.4002C3.2002 22.9893 3.67776 23.4668 4.26686 23.4668Z" fill="white"/>
<path opacity="0.6" d="M4.26686 27.7334C4.85597 27.7334 5.33353 27.2559 5.33353 26.6668C5.33353 26.0777 4.85597 25.6001 4.26686 25.6001C3.67776 25.6001 3.2002 26.0777 3.2002 26.6668C3.2002 27.2559 3.67776 27.7334 4.26686 27.7334Z" fill="white"/>
<path opacity="0.6" d="M8.53346 27.7334C9.12257 27.7334 9.60013 27.2559 9.60013 26.6668C9.60013 26.0777 9.12257 25.6001 8.53346 25.6001C7.94436 25.6001 7.4668 26.0777 7.4668 26.6668C7.4668 27.2559 7.94436 27.7334 8.53346 27.7334Z" fill="white"/>
</svg>
