<svg width="32" height="32" viewBox="0 0 32 32" fill="none" xmlns="http://www.w3.org/2000/svg">
<g clip-path="url(#clip0_6194_33414)">
<path d="M26.6673 29.3337C27.4037 29.3337 28.0007 28.7367 28.0007 28.0003C28.0007 27.2639 27.4037 26.667 26.6673 26.667C25.9309 26.667 25.334 27.2639 25.334 28.0003C25.334 28.7367 25.9309 29.3337 26.6673 29.3337Z" fill="white"/>
<path d="M5.33333 29.3337C6.06971 29.3337 6.66667 28.7367 6.66667 28.0003C6.66667 27.2639 6.06971 26.667 5.33333 26.667C4.59695 26.667 4 27.2639 4 28.0003C4 28.7367 4.59695 29.3337 5.33333 29.3337Z" fill="white"/>
<path d="M2.66699 13.3335V18.6668C2.66699 20.1375 3.86299 21.3335 5.33366 21.3335H14.667V26.6668H8.00033V29.3335H24.0003V26.6668H17.3337V21.3335H26.667C28.1377 21.3335 29.3337 20.1375 29.3337 18.6668V13.3335H2.66699ZM13.3337 18.6668H6.66699V16.0002H13.3337V18.6668ZM20.0003 18.6668C19.2643 18.6668 18.667 18.0708 18.667 17.3335C18.667 16.5975 19.2643 16.0002 20.0003 16.0002C20.7363 16.0002 21.3337 16.5975 21.3337 17.3335C21.3337 18.0708 20.7363 18.6668 20.0003 18.6668ZM24.0003 18.6668C23.2643 18.6668 22.667 18.0708 22.667 17.3335C22.667 16.5975 23.2643 16.0002 24.0003 16.0002C24.7363 16.0002 25.3337 16.5975 25.3337 17.3335C25.3337 18.0708 24.7363 18.6668 24.0003 18.6668Z" fill="white"/>
<path opacity="0.6" d="M29.3337 10.667V5.33366C29.3337 3.86299 28.1377 2.66699 26.667 2.66699H5.33366C3.86299 2.66699 2.66699 3.86299 2.66699 5.33366V10.667H29.3337ZM24.0003 5.33366C24.7363 5.33366 25.3337 5.93099 25.3337 6.66699C25.3337 7.40433 24.7363 8.00033 24.0003 8.00033C23.2643 8.00033 22.667 7.40433 22.667 6.66699C22.667 5.93099 23.2643 5.33366 24.0003 5.33366ZM20.0003 5.33366C20.7363 5.33366 21.3337 5.93099 21.3337 6.66699C21.3337 7.40433 20.7363 8.00033 20.0003 8.00033C19.2643 8.00033 18.667 7.40433 18.667 6.66699C18.667 5.93099 19.2643 5.33366 20.0003 5.33366ZM6.66699 5.33366H13.3337V8.00033H6.66699V5.33366Z" fill="white"/>
</g>
<defs>
<clipPath id="clip0_6194_33414">
<rect width="32" height="32" fill="white"/>
</clipPath>
</defs>
</svg>
