<svg width="60" height="60" viewBox="0 0 60 60" fill="none" xmlns="http://www.w3.org/2000/svg">
<path d="M19 48.6569C19 47.1979 19.58 45.7999 20.611 44.7669L24.267 41.1109C24.736 40.6429 25 40.0059 25 39.3429V17.5659C25 16.5879 24.43 15.7009 23.542 15.2939L6 7.25391V49.8859C6 51.1539 6.797 52.2839 7.991 52.7109L16.935 55.9059C17.105 55.9659 17.275 55.9979 17.441 55.9999C18.268 56.0089 19 55.3399 19 54.4509V48.6569Z" fill="black"/>
<path d="M44.9998 16V9C44.9998 7.343 43.6558 6 41.9998 6H10.4648L24.7918 12.566C26.2518 13.236 27.3238 14.504 27.7708 16H44.9998Z" fill="black"/>
<path d="M28 19H49C49.553 19 50 19.447 50 20V22C50 22.553 49.553 23 49 23H28V19Z" fill="black"/>
<path d="M53.0001 26H28.0001V31H33.5001C34.3281 31 35.0001 31.672 35.0001 32.5C35.0001 33.328 34.3281 34 33.5001 34H28.0001V38H33.5001C34.3281 38 35.0001 38.672 35.0001 39.5C35.0001 40.328 34.3281 41 33.5001 41H27.7151C27.4491 41.833 27.0121 42.609 26.3891 43.232L22.7331 46.888C22.4201 47.201 22.2121 47.584 22.0981 47.999H53.0001C53.5531 47.999 54.0001 47.552 54.0001 46.999V27C54.0001 26.447 53.5531 26 53.0001 26V26ZM45.0001 30C46.6561 30 48.0001 31.343 48.0001 33C48.0001 34.656 46.6561 36 45.0001 36C43.3441 36 42.0001 34.656 42.0001 33C42.0001 31.343 43.3441 30 45.0001 30ZM49.9921 44H40.0081C39.4031 44 39.0041 43.47 39.0001 42.864C38.9871 41 41.0001 38 45.0001 38C49.0001 38 51.0131 41 51.0001 42.864C50.9961 43.47 50.5981 44 49.9921 44V44Z" fill="black"/>
</svg>
