<svg width="32" height="32" viewBox="0 0 32 32" fill="none" xmlns="http://www.w3.org/2000/svg">
<path opacity="0.6" d="M12.2667 2.66602H19.7334C20.0278 2.66602 20.2667 2.90442 20.2667 3.19935V5.33268C20.2667 5.62762 20.0278 5.86602 19.7334 5.86602H12.2667C11.9723 5.86602 11.7334 5.62762 11.7334 5.33268V3.19935C11.7334 2.90442 11.9723 2.66602 12.2667 2.66602Z" fill="white"/>
<path d="M26.1331 5.33398H21.3331C21.3331 6.21612 20.6153 6.93398 19.7331 6.93398H12.2665C11.3843 6.93398 10.6665 6.21612 10.6665 5.33398H5.86647C5.27767 5.33398 4.7998 5.81185 4.7998 6.40065V28.2673C4.7998 28.8561 5.27767 29.334 5.86647 29.334H26.1331C26.7219 29.334 27.1998 28.8561 27.1998 28.2673V6.40065C27.1998 5.81185 26.7219 5.33398 26.1331 5.33398ZM24.5331 26.6673H7.46647V8.53398H24.5331V26.6673Z" fill="white"/>
<path d="M10.9336 13.8661C11.9645 13.8661 12.8002 13.0304 12.8002 11.9995C12.8002 10.9685 11.9645 10.1328 10.9336 10.1328C9.90263 10.1328 9.06689 10.9685 9.06689 11.9995C9.06689 13.0304 9.90263 13.8661 10.9336 13.8661Z" fill="white"/>
<path d="M10.9336 24.5341C11.9645 24.5341 12.8002 23.6984 12.8002 22.6674C12.8002 21.6365 11.9645 20.8008 10.9336 20.8008C9.90263 20.8008 9.06689 21.6365 9.06689 22.6674C9.06689 23.6984 9.90263 24.5341 10.9336 24.5341Z" fill="white"/>
<path d="M10.9336 19.2001C11.9645 19.2001 12.8002 18.3644 12.8002 17.3335C12.8002 16.3025 11.9645 15.4668 10.9336 15.4668C9.90263 15.4668 9.06689 16.3025 9.06689 17.3335C9.06689 18.3644 9.90263 19.2001 10.9336 19.2001Z" fill="white"/>
<path d="M21.6001 11.1992C22.0417 11.1992 22.4001 11.5576 22.4001 11.9992C22.4001 12.4408 22.0417 12.7992 21.6001 12.7992H16.2668C15.8247 12.7992 15.4668 12.4408 15.4668 11.9992C15.4668 11.5576 15.8247 11.1992 16.2668 11.1992H21.6001Z" fill="white"/>
<path d="M21.6001 16.5332C22.0417 16.5332 22.4001 16.8916 22.4001 17.3332C22.4001 17.7748 22.0417 18.1332 21.6001 18.1332H16.2668C15.8247 18.1332 15.4668 17.7748 15.4668 17.3332C15.4668 16.8916 15.8247 16.5332 16.2668 16.5332H21.6001Z" fill="white"/>
<path d="M21.6001 21.8672C22.0417 21.8672 22.4001 22.2256 22.4001 22.6672C22.4001 23.1088 22.0417 23.4672 21.6001 23.4672H16.2668C15.8247 23.4672 15.4668 23.1088 15.4668 22.6672C15.4668 22.2256 15.8247 21.8672 16.2668 21.8672H21.6001Z" fill="white"/>
</svg>
