<svg width="60" height="61" viewBox="0 0 60 61" fill="none" xmlns="http://www.w3.org/2000/svg">
<path d="M43.707 16.293L49 11" stroke="black" stroke-width="2" stroke-miterlimit="10"/>
<path d="M54 5.99974H57.29C57.921 5.99974 58.237 6.76274 57.791 7.20874L54.293 10.7067C54.105 10.8947 53.851 10.9997 53.586 10.9997H49V6.41374C49 6.14874 49.105 5.89374 49.293 5.70674L52.791 2.20874C53.237 1.76274 54 2.07874 54 2.70974V5.99974Z" stroke="black" stroke-width="2" stroke-miterlimit="10"/>
<path d="M46.253 23.1501C45.1 25.4341 42.733 27.0001 40 27.0001C36.134 27.0001 33 23.8661 33 20.0001C33 17.2671 34.566 14.9001 36.85 13.7471" stroke="black" stroke-width="2" stroke-miterlimit="10"/>
<path d="M50.565 14.304C51.48 15.999 52 17.939 52 20C52 26.627 46.627 32 40 32C33.373 32 28 26.627 28 20C28 13.373 33.373 8 40 8C42.061 8 44.001 8.52 45.696 9.435" stroke="black" stroke-width="2" stroke-miterlimit="10"/>
<path d="M55.618 13.276C56.507 15.338 57 17.612 57 20C57 29.389 49.389 37 40 37C30.611 37 23 29.389 23 20C23 10.611 30.611 3 40 3C42.388 3 44.662 3.493 46.724 4.382" stroke="black" stroke-width="2" stroke-miterlimit="10"/>
<path d="M45 36.253V43C45 44.657 43.657 46 42 46H4C2.343 46 1 44.657 1 43V17C1 15.343 2.343 14 4 14H24.092" stroke="black" stroke-width="2" stroke-miterlimit="10"/>
<path d="M23 46V60" stroke="black" stroke-width="2" stroke-miterlimit="10"/>
<path d="M16.594 59.7406L23 49.6816L29.406 59.7406" stroke="black" stroke-width="2" stroke-miterlimit="10"/>
</svg>
