<svg width="11" height="11" viewBox="0 0 11 11" fill="none" xmlns="http://www.w3.org/2000/svg">
<rect width="11" height="11" rx="5.5" fill="#FF0000"/>
<path d="M7.49951 5.35449V5.66895C7.49951 6.04264 7.4528 6.3776 7.35938 6.67383C7.26595 6.97005 7.13151 7.22184 6.95605 7.4292C6.7806 7.63656 6.56982 7.79492 6.32373 7.9043C6.07992 8.01367 5.80648 8.06836 5.50342 8.06836C5.20947 8.06836 4.93945 8.01367 4.69336 7.9043C4.44954 7.79492 4.23763 7.63656 4.05762 7.4292C3.87988 7.22184 3.74202 6.97005 3.64404 6.67383C3.54606 6.3776 3.49707 6.04264 3.49707 5.66895V5.35449C3.49707 4.98079 3.54492 4.64697 3.64062 4.35303C3.73861 4.0568 3.87646 3.80501 4.0542 3.59766C4.23193 3.38802 4.44271 3.22852 4.68652 3.11914C4.93262 3.00977 5.20264 2.95508 5.49658 2.95508C5.79964 2.95508 6.07308 3.00977 6.31689 3.11914C6.56299 3.22852 6.77376 3.38802 6.94922 3.59766C7.12695 3.80501 7.26253 4.0568 7.35596 4.35303C7.45166 4.64697 7.49951 4.98079 7.49951 5.35449ZM6.84668 5.66895V5.34766C6.84668 5.05143 6.81592 4.78939 6.75439 4.56152C6.69515 4.33366 6.60742 4.14225 6.49121 3.9873C6.375 3.83236 6.23258 3.71501 6.06396 3.63525C5.89762 3.5555 5.7085 3.51562 5.49658 3.51562C5.2915 3.51562 5.10579 3.5555 4.93945 3.63525C4.77539 3.71501 4.63411 3.83236 4.51562 3.9873C4.39941 4.14225 4.30941 4.33366 4.24561 4.56152C4.1818 4.78939 4.1499 5.05143 4.1499 5.34766V5.66895C4.1499 5.96745 4.1818 6.23177 4.24561 6.46191C4.30941 6.68978 4.40055 6.88232 4.51904 7.03955C4.63981 7.1945 4.78223 7.31185 4.94629 7.3916C5.11263 7.47135 5.29834 7.51123 5.50342 7.51123C5.71761 7.51123 5.90788 7.47135 6.07422 7.3916C6.24056 7.31185 6.3807 7.1945 6.49463 7.03955C6.61084 6.88232 6.69857 6.68978 6.75781 6.46191C6.81706 6.23177 6.84668 5.96745 6.84668 5.66895Z" fill="white"/>
</svg>
