<svg width="54" height="54" viewBox="0 0 54 54" fill="none" xmlns="http://www.w3.org/2000/svg">
<rect x="1.5" y="1.5" width="50.0222" height="50.0222" rx="11.5" fill="#1BBD67" stroke="white" stroke-width="3"/>
<g clip-path="url(#clip0_10946_7390)">
<path opacity="0.8" d="M30.4355 24.183C32.0937 24.183 33.6523 24.8276 34.8242 25.9994L35.9609 27.1361C36.8867 26.7319 37.7656 26.1694 38.5273 25.4076C40.7012 23.2338 41.4394 20.1752 40.748 17.3979C40.6191 16.8705 39.957 16.6889 39.5703 17.0756L35.2109 21.435L31.2324 20.7729L30.5703 16.7944L34.9297 12.435C35.3164 12.0483 35.1289 11.3861 34.5957 11.2514C31.8183 10.5658 28.7598 11.3041 26.5918 13.4721C24.9219 15.142 24.1367 17.3451 24.1777 19.5424L28.9883 24.3529C29.4629 24.2416 29.9551 24.183 30.4355 24.183ZM24.3476 28.9877L21.0254 25.6654L12.0957 34.601C10.6309 36.0658 10.6309 38.4389 12.0957 39.9037C13.5605 41.3686 15.9336 41.3686 17.3984 39.9037L24.6406 32.6615C24.1953 31.4955 24.0605 30.224 24.3476 28.9877ZM14.75 38.6557C13.9766 38.6557 13.3437 38.0229 13.3437 37.2494C13.3437 36.4701 13.9707 35.8432 14.75 35.8432C15.5293 35.8432 16.1562 36.4701 16.1562 37.2494C16.1562 38.0229 15.5293 38.6557 14.75 38.6557Z" fill="white"/>
<path d="M33.5 27.3242L40.3613 34.1855C41.2109 35.0352 41.2109 36.418 40.3613 37.2734L37.2734 40.3613C36.4238 41.2168 35.041 41.2168 34.1855 40.3613L27.3242 33.5C25.9707 32.1465 25.7129 30.125 26.5098 28.4961L20.2637 22.25H16.625L11 14.75L14.75 11L22.25 16.625V20.2637L28.4961 26.5098C30.125 25.707 32.1465 25.9707 33.5 27.3242Z" fill="white"/>
</g>
<defs>
<clipPath id="clip0_10946_7390">
<rect width="30" height="30" fill="white" transform="translate(11 11)"/>
</clipPath>
</defs>
</svg>
