<svg width="100" height="100" viewBox="0 0 100 100" fill="none" xmlns="http://www.w3.org/2000/svg">
<rect width="100" height="100" rx="5" fill="#F5F8FA"/>
<rect x="7" y="10" width="38" height="3" rx="1.5" fill="#E2E3EE"/>
<rect x="7" y="16" width="38" height="3" rx="1.5" fill="#E2E3EE"/>
<rect x="7" y="27" width="85" height="3" rx="1.5" fill="#C9C9D4"/>
<rect x="7" y="33" width="85" height="3" rx="1.5" fill="#C9C9D4"/>
<rect x="7" y="39" width="85" height="3" rx="1.5" fill="#C9C9D4"/>
<rect x="7" y="45" width="85" height="3" rx="1.5" fill="#C9C9D4"/>
<rect x="7" y="51" width="85" height="3" rx="1.5" fill="#C9C9D4"/>
<rect x="50.75" y="66.75" width="41.5" height="15.5" rx="3.25" fill="white" stroke="#C9C9D4" stroke-width="0.5" stroke-dasharray="1 1"/>
<path d="M68.9 73.1596C68.9 73.5092 68.6095 73.7916 68.25 73.7916C67.8905 73.7916 67.6 73.5092 67.6 73.1596V72.5277C67.6 71.4806 68.4552 70.6318 69.55 70.6318C70.6266 70.6318 71.5 71.4806 71.5 72.5277V72.6817C71.5 73.0925 71.4756 73.5032 71.4269 73.912L73.9131 73.1853C74.1447 73.1181 74.3966 73.1813 74.5489 73.3512C74.7358 73.521 74.7927 73.7679 74.7175 73.991L74.3519 75.0377H76.05C76.4095 75.0377 76.7 75.3378 76.7 75.6696C76.7 76.0369 76.4095 76.3016 76.05 76.3016H73.45C73.2408 76.3016 73.0458 76.2226 72.9219 76.0567C72.8 75.8928 72.7675 75.6795 72.8325 75.4879L73.0864 74.7474L71.1689 75.3062C70.9292 76.349 70.5291 77.3502 69.9827 78.2784L69.7003 78.7582C69.4383 79.2046 68.9508 79.4791 68.4227 79.4791C67.6102 79.4791 66.9317 78.8372 66.9317 78.0473V76.6274C66.9317 75.7901 67.5147 75.0515 68.3394 74.8125L70.0538 74.3109C70.1513 73.7738 70.1817 73.2287 70.1817 72.6817V72.5277C70.1817 72.1781 69.9095 71.8957 69.5317 71.8957C69.1905 71.8957 68.8817 72.1781 68.8817 72.5277L68.9 73.1596ZM68.25 76.6274V78.0473C68.25 78.1401 68.3272 78.2152 68.4227 78.2152C68.4836 78.2152 68.5425 78.1836 68.573 78.1303L68.8553 77.6504C69.2108 77.0421 69.4972 76.4003 69.7084 75.7328L68.7131 76.0053C68.4389 76.1021 68.25 76.349 68.25 76.6274ZM65.4875 77.2673H66.3V78.0473C66.3 78.1046 66.3022 78.1599 66.3069 78.2152H65.4875C65.2184 78.2152 65 78.0039 65 77.7412C65 77.4786 65.2184 77.2673 65.4875 77.2673ZM77.5125 78.2152H70.7586C70.9252 77.9051 71.0775 77.5891 71.2136 77.2673H77.5125C77.7827 77.2673 78 77.4786 78 77.7412C78 78.0039 77.7827 78.2152 77.5125 78.2152Z" fill="#3E4347"/>
</svg>
