<svg width="100" height="100" viewBox="0 0 100 100" fill="none" xmlns="http://www.w3.org/2000/svg">
<rect width="100" height="100" rx="5" fill="#F5F8FA"/>
<rect x="7" y="11" width="38" height="3" rx="1.5" fill="#E2E3EE"/>
<rect x="7" y="17" width="38" height="3" rx="1.5" fill="#E2E3EE"/>
<rect x="7" y="28" width="85" height="3" rx="1.5" fill="#C9C9D4"/>
<rect x="7" y="34" width="85" height="3" rx="1.5" fill="#C9C9D4"/>
<rect x="7" y="40" width="85" height="3" rx="1.5" fill="#C9C9D4"/>
<rect x="7" y="46" width="85" height="3" rx="1.5" fill="#C9C9D4"/>
<rect x="7" y="52" width="85" height="3" rx="1.5" fill="#C9C9D4"/>
<rect x="7.75" y="67.75" width="41.5" height="15.5" rx="3.25" fill="white" stroke="#C9C9D4" stroke-width="0.5" stroke-dasharray="1 1"/>
<path d="M25.9 74.1596C25.9 74.5092 25.6095 74.7916 25.25 74.7916C24.8905 74.7916 24.6 74.5092 24.6 74.1596V73.5277C24.6 72.4806 25.4552 71.6318 26.55 71.6318C27.6266 71.6318 28.5 72.4806 28.5 73.5277V73.6817C28.5 74.0925 28.4756 74.5032 28.4269 74.912L30.9131 74.1853C31.1447 74.1181 31.3966 74.1813 31.5489 74.3512C31.7358 74.521 31.7927 74.7679 31.7175 74.991L31.3519 76.0377H33.05C33.4095 76.0377 33.7 76.3378 33.7 76.6696C33.7 77.0369 33.4095 77.3016 33.05 77.3016H30.45C30.2408 77.3016 30.0458 77.2226 29.9219 77.0567C29.8 76.8928 29.7675 76.6795 29.8325 76.4879L30.0864 75.7474L28.1689 76.3062C27.9292 77.349 27.5291 78.3502 26.9827 79.2784L26.7003 79.7582C26.4383 80.2046 25.9508 80.4791 25.4227 80.4791C24.6102 80.4791 23.9317 79.8372 23.9317 79.0473V77.6274C23.9317 76.7901 24.5147 76.0515 25.3394 75.8125L27.0538 75.3109C27.1513 74.7738 27.1817 74.2287 27.1817 73.6817V73.5277C27.1817 73.1781 26.9095 72.8957 26.5317 72.8957C26.1905 72.8957 25.8817 73.1781 25.8817 73.5277L25.9 74.1596ZM25.25 77.6274V79.0473C25.25 79.1401 25.3272 79.2152 25.4227 79.2152C25.4836 79.2152 25.5425 79.1836 25.573 79.1303L25.8553 78.6504C26.2108 78.0421 26.4972 77.4003 26.7084 76.7328L25.7131 77.0053C25.4389 77.1021 25.25 77.349 25.25 77.6274ZM22.4875 78.2673H23.3V79.0473C23.3 79.1046 23.3022 79.1599 23.3069 79.2152H22.4875C22.2184 79.2152 22 79.0039 22 78.7412C22 78.4786 22.2184 78.2673 22.4875 78.2673ZM34.5125 79.2152H27.7586C27.9252 78.9051 28.0775 78.5891 28.2136 78.2673H34.5125C34.7827 78.2673 35 78.4786 35 78.7412C35 79.0039 34.7827 79.2152 34.5125 79.2152Z" fill="#3E4347"/>
<rect x="50.75" y="67.75" width="41.5" height="15.5" rx="3.25" fill="white" stroke="#C9C9D4" stroke-width="0.5" stroke-dasharray="1 1"/>
<path d="M68.9 74.1596C68.9 74.5092 68.6095 74.7916 68.25 74.7916C67.8905 74.7916 67.6 74.5092 67.6 74.1596V73.5277C67.6 72.4806 68.4552 71.6318 69.55 71.6318C70.6266 71.6318 71.5 72.4806 71.5 73.5277V73.6817C71.5 74.0925 71.4756 74.5032 71.4269 74.912L73.9131 74.1853C74.1447 74.1181 74.3966 74.1813 74.5489 74.3512C74.7358 74.521 74.7927 74.7679 74.7175 74.991L74.3519 76.0377H76.05C76.4095 76.0377 76.7 76.3378 76.7 76.6696C76.7 77.0369 76.4095 77.3016 76.05 77.3016H73.45C73.2408 77.3016 73.0458 77.2226 72.9219 77.0567C72.8 76.8928 72.7675 76.6795 72.8325 76.4879L73.0864 75.7474L71.1689 76.3062C70.9292 77.349 70.5291 78.3502 69.9827 79.2784L69.7003 79.7582C69.4383 80.2046 68.9508 80.4791 68.4227 80.4791C67.6102 80.4791 66.9317 79.8372 66.9317 79.0473V77.6274C66.9317 76.7901 67.5147 76.0515 68.3394 75.8125L70.0538 75.3109C70.1513 74.7738 70.1817 74.2287 70.1817 73.6817V73.5277C70.1817 73.1781 69.9095 72.8957 69.5317 72.8957C69.1905 72.8957 68.8817 73.1781 68.8817 73.5277L68.9 74.1596ZM68.25 77.6274V79.0473C68.25 79.1401 68.3272 79.2152 68.4227 79.2152C68.4836 79.2152 68.5425 79.1836 68.573 79.1303L68.8553 78.6504C69.2108 78.0421 69.4972 77.4003 69.7084 76.7328L68.7131 77.0053C68.4389 77.1021 68.25 77.349 68.25 77.6274ZM65.4875 78.2673H66.3V79.0473C66.3 79.1046 66.3022 79.1599 66.3069 79.2152H65.4875C65.2184 79.2152 65 79.0039 65 78.7412C65 78.4786 65.2184 78.2673 65.4875 78.2673ZM77.5125 79.2152H70.7586C70.9252 78.9051 71.0775 78.5891 71.2136 78.2673H77.5125C77.7827 78.2673 78 78.4786 78 78.7412C78 79.0039 77.7827 79.2152 77.5125 79.2152Z" fill="#3E4347"/>
</svg>
