<svg width="100" height="100" viewBox="0 0 100 100" fill="none" xmlns="http://www.w3.org/2000/svg">
<rect width="100" height="100" rx="5" fill="#F5F8FA"/>
<rect x="7" y="10" width="38" height="3" rx="1.5" fill="#E2E3EE"/>
<rect x="7" y="16" width="38" height="3" rx="1.5" fill="#E2E3EE"/>
<rect x="7" y="27" width="85" height="3" rx="1.5" fill="#C9C9D4"/>
<rect x="7" y="33" width="85" height="3" rx="1.5" fill="#C9C9D4"/>
<rect x="7" y="39" width="85" height="3" rx="1.5" fill="#C9C9D4"/>
<rect x="7" y="45" width="85" height="3" rx="1.5" fill="#C9C9D4"/>
<rect x="7" y="51" width="85" height="3" rx="1.5" fill="#C9C9D4"/>
<rect x="7.75" y="66.75" width="26.5" height="15.5" rx="3.25" fill="white" stroke="#C9C9D4" stroke-width="0.5" stroke-dasharray="1 1"/>
<path d="M17.9 73.1596C17.9 73.5092 17.6095 73.7916 17.25 73.7916C16.8905 73.7916 16.6 73.5092 16.6 73.1596V72.5277C16.6 71.4806 17.4552 70.6318 18.55 70.6318C19.6266 70.6318 20.5 71.4806 20.5 72.5277V72.6817C20.5 73.0925 20.4756 73.5032 20.4269 73.912L22.9131 73.1853C23.1447 73.1181 23.3966 73.1813 23.5489 73.3512C23.7358 73.521 23.7927 73.7679 23.7175 73.991L23.3519 75.0377H25.05C25.4095 75.0377 25.7 75.3378 25.7 75.6696C25.7 76.0369 25.4095 76.3016 25.05 76.3016H22.45C22.2408 76.3016 22.0458 76.2226 21.9219 76.0567C21.8 75.8928 21.7675 75.6795 21.8325 75.4879L22.0864 74.7474L20.1689 75.3062C19.9292 76.349 19.5291 77.3502 18.9827 78.2784L18.7003 78.7582C18.4383 79.2046 17.9508 79.4791 17.4227 79.4791C16.6102 79.4791 15.9317 78.8372 15.9317 78.0473V76.6274C15.9317 75.7901 16.5147 75.0515 17.3394 74.8125L19.0538 74.3109C19.1513 73.7738 19.1817 73.2287 19.1817 72.6817V72.5277C19.1817 72.1781 18.9095 71.8957 18.5317 71.8957C18.1905 71.8957 17.8817 72.1781 17.8817 72.5277L17.9 73.1596ZM17.25 76.6274V78.0473C17.25 78.1401 17.3272 78.2152 17.4227 78.2152C17.4836 78.2152 17.5425 78.1836 17.573 78.1303L17.8553 77.6504C18.2108 77.0421 18.4972 76.4003 18.7084 75.7328L17.7131 76.0053C17.4389 76.1021 17.25 76.349 17.25 76.6274ZM14.4875 77.2673H15.3V78.0473C15.3 78.1046 15.3022 78.1599 15.3069 78.2152H14.4875C14.2184 78.2152 14 78.0039 14 77.7412C14 77.4786 14.2184 77.2673 14.4875 77.2673ZM26.5125 78.2152H19.7586C19.9252 77.9051 20.0775 77.5891 20.2136 77.2673H26.5125C26.7827 77.2673 27 77.4786 27 77.7412C27 78.0039 26.7827 78.2152 26.5125 78.2152Z" fill="#3E4347"/>
<rect x="35.75" y="66.75" width="26.5" height="15.5" rx="3.25" fill="white" stroke="#C9C9D4" stroke-width="0.5" stroke-dasharray="1 1"/>
<path d="M45.9 73.1596C45.9 73.5092 45.6095 73.7916 45.25 73.7916C44.8905 73.7916 44.6 73.5092 44.6 73.1596V72.5277C44.6 71.4806 45.4552 70.6318 46.55 70.6318C47.6266 70.6318 48.5 71.4806 48.5 72.5277V72.6817C48.5 73.0925 48.4756 73.5032 48.4269 73.912L50.9131 73.1853C51.1447 73.1181 51.3966 73.1813 51.5489 73.3512C51.7358 73.521 51.7927 73.7679 51.7175 73.991L51.3519 75.0377H53.05C53.4095 75.0377 53.7 75.3378 53.7 75.6696C53.7 76.0369 53.4095 76.3016 53.05 76.3016H50.45C50.2408 76.3016 50.0458 76.2226 49.9219 76.0567C49.8 75.8928 49.7675 75.6795 49.8325 75.4879L50.0864 74.7474L48.1689 75.3062C47.9292 76.349 47.5291 77.3502 46.9827 78.2784L46.7003 78.7582C46.4383 79.2046 45.9508 79.4791 45.4227 79.4791C44.6102 79.4791 43.9317 78.8372 43.9317 78.0473V76.6274C43.9317 75.7901 44.5147 75.0515 45.3394 74.8125L47.0538 74.3109C47.1513 73.7738 47.1817 73.2287 47.1817 72.6817V72.5277C47.1817 72.1781 46.9095 71.8957 46.5317 71.8957C46.1905 71.8957 45.8817 72.1781 45.8817 72.5277L45.9 73.1596ZM45.25 76.6274V78.0473C45.25 78.1401 45.3272 78.2152 45.4227 78.2152C45.4836 78.2152 45.5425 78.1836 45.573 78.1303L45.8553 77.6504C46.2108 77.0421 46.4972 76.4003 46.7084 75.7328L45.7131 76.0053C45.4389 76.1021 45.25 76.349 45.25 76.6274ZM42.4875 77.2673H43.3V78.0473C43.3 78.1046 43.3022 78.1599 43.3069 78.2152H42.4875C42.2184 78.2152 42 78.0039 42 77.7412C42 77.4786 42.2184 77.2673 42.4875 77.2673ZM54.5125 78.2152H47.7586C47.9252 77.9051 48.0775 77.5891 48.2136 77.2673H54.5125C54.7827 77.2673 55 77.4786 55 77.7412C55 78.0039 54.7827 78.2152 54.5125 78.2152Z" fill="#3E4347"/>
<rect x="63.75" y="66.75" width="26.5" height="15.5" rx="3.25" fill="white" stroke="#C9C9D4" stroke-width="0.5" stroke-dasharray="1 1"/>
<path d="M73.9 73.1596C73.9 73.5092 73.6095 73.7916 73.25 73.7916C72.8905 73.7916 72.6 73.5092 72.6 73.1596V72.5277C72.6 71.4806 73.4552 70.6318 74.55 70.6318C75.6266 70.6318 76.5 71.4806 76.5 72.5277V72.6817C76.5 73.0925 76.4756 73.5032 76.4269 73.912L78.9131 73.1853C79.1447 73.1181 79.3966 73.1813 79.5489 73.3512C79.7358 73.521 79.7927 73.7679 79.7175 73.991L79.3519 75.0377H81.05C81.4095 75.0377 81.7 75.3378 81.7 75.6696C81.7 76.0369 81.4095 76.3016 81.05 76.3016H78.45C78.2408 76.3016 78.0458 76.2226 77.9219 76.0567C77.8 75.8928 77.7675 75.6795 77.8325 75.4879L78.0864 74.7474L76.1689 75.3062C75.9292 76.349 75.5291 77.3502 74.9827 78.2784L74.7003 78.7582C74.4383 79.2046 73.9508 79.4791 73.4227 79.4791C72.6102 79.4791 71.9317 78.8372 71.9317 78.0473V76.6274C71.9317 75.7901 72.5147 75.0515 73.3394 74.8125L75.0538 74.3109C75.1513 73.7738 75.1817 73.2287 75.1817 72.6817V72.5277C75.1817 72.1781 74.9095 71.8957 74.5317 71.8957C74.1905 71.8957 73.8817 72.1781 73.8817 72.5277L73.9 73.1596ZM73.25 76.6274V78.0473C73.25 78.1401 73.3272 78.2152 73.4227 78.2152C73.4836 78.2152 73.5425 78.1836 73.573 78.1303L73.8553 77.6504C74.2108 77.0421 74.4972 76.4003 74.7084 75.7328L73.7131 76.0053C73.4389 76.1021 73.25 76.349 73.25 76.6274ZM70.4875 77.2673H71.3V78.0473C71.3 78.1046 71.3022 78.1599 71.3069 78.2152H70.4875C70.2184 78.2152 70 78.0039 70 77.7412C70 77.4786 70.2184 77.2673 70.4875 77.2673ZM82.5125 78.2152H75.7586C75.9252 77.9051 76.0775 77.5891 76.2136 77.2673H82.5125C82.7827 77.2673 83 77.4786 83 77.7412C83 78.0039 82.7827 78.2152 82.5125 78.2152Z" fill="#3E4347"/>
</svg>
