<svg width="100" height="100" viewBox="0 0 100 100" fill="none" xmlns="http://www.w3.org/2000/svg">
<rect width="100" height="100" rx="5" fill="#F5F8FA"/>
<rect x="7" y="10" width="38" height="3" rx="1.5" fill="#E2E3EE"/>
<rect x="7" y="16" width="38" height="3" rx="1.5" fill="#E2E3EE"/>
<rect x="7" y="27" width="85" height="3" rx="1.5" fill="#C9C9D4"/>
<rect x="7" y="33" width="85" height="3" rx="1.5" fill="#C9C9D4"/>
<rect x="7" y="39" width="85" height="3" rx="1.5" fill="#C9C9D4"/>
<rect x="7" y="45" width="85" height="3" rx="1.5" fill="#C9C9D4"/>
<rect x="7" y="51" width="85" height="3" rx="1.5" fill="#C9C9D4"/>
<rect x="7.75" y="66.75" width="19.5" height="15.5" rx="3.25" fill="white" stroke="#C9C9D4" stroke-width="0.5" stroke-dasharray="1 1"/>
<path d="M14.9 73.1596C14.9 73.5092 14.6095 73.7916 14.25 73.7916C13.8905 73.7916 13.6 73.5092 13.6 73.1596V72.5277C13.6 71.4806 14.4552 70.6318 15.55 70.6318C16.6266 70.6318 17.5 71.4806 17.5 72.5277V72.6817C17.5 73.0925 17.4756 73.5032 17.4269 73.912L19.9131 73.1853C20.1447 73.1181 20.3966 73.1813 20.5489 73.3512C20.7358 73.521 20.7927 73.7679 20.7175 73.991L20.3519 75.0377H22.05C22.4095 75.0377 22.7 75.3378 22.7 75.6696C22.7 76.0369 22.4095 76.3016 22.05 76.3016H19.45C19.2408 76.3016 19.0458 76.2226 18.9219 76.0567C18.8 75.8928 18.7675 75.6795 18.8325 75.4879L19.0864 74.7474L17.1689 75.3062C16.9292 76.349 16.5291 77.3502 15.9827 78.2784L15.7003 78.7582C15.4383 79.2046 14.9508 79.4791 14.4227 79.4791C13.6102 79.4791 12.9317 78.8372 12.9317 78.0473V76.6274C12.9317 75.7901 13.5147 75.0515 14.3394 74.8125L16.0538 74.3109C16.1513 73.7738 16.1817 73.2287 16.1817 72.6817V72.5277C16.1817 72.1781 15.9095 71.8957 15.5317 71.8957C15.1905 71.8957 14.8817 72.1781 14.8817 72.5277L14.9 73.1596ZM14.25 76.6274V78.0473C14.25 78.1401 14.3272 78.2152 14.4227 78.2152C14.4836 78.2152 14.5425 78.1836 14.573 78.1303L14.8553 77.6504C15.2108 77.0421 15.4972 76.4003 15.7084 75.7328L14.7131 76.0053C14.4389 76.1021 14.25 76.349 14.25 76.6274ZM11.4875 77.2673H12.3V78.0473C12.3 78.1046 12.3022 78.1599 12.3069 78.2152H11.4875C11.2184 78.2152 11 78.0039 11 77.7412C11 77.4786 11.2184 77.2673 11.4875 77.2673ZM23.5125 78.2152H16.7586C16.9252 77.9051 17.0775 77.5891 17.2136 77.2673H23.5125C23.7827 77.2673 24 77.4786 24 77.7412C24 78.0039 23.7827 78.2152 23.5125 78.2152Z" fill="#3E4347"/>
<rect x="28.75" y="66.75" width="19.5" height="15.5" rx="3.25" fill="white" stroke="#C9C9D4" stroke-width="0.5" stroke-dasharray="1 1"/>
<path d="M34.9 73.1596C34.9 73.5092 34.6095 73.7916 34.25 73.7916C33.8905 73.7916 33.6 73.5092 33.6 73.1596V72.5277C33.6 71.4806 34.4552 70.6318 35.55 70.6318C36.6266 70.6318 37.5 71.4806 37.5 72.5277V72.6817C37.5 73.0925 37.4756 73.5032 37.4269 73.912L39.9131 73.1853C40.1447 73.1181 40.3966 73.1813 40.5489 73.3512C40.7358 73.521 40.7927 73.7679 40.7175 73.991L40.3519 75.0377H42.05C42.4095 75.0377 42.7 75.3378 42.7 75.6696C42.7 76.0369 42.4095 76.3016 42.05 76.3016H39.45C39.2408 76.3016 39.0458 76.2226 38.9219 76.0567C38.8 75.8928 38.7675 75.6795 38.8325 75.4879L39.0864 74.7474L37.1689 75.3062C36.9292 76.349 36.5291 77.3502 35.9827 78.2784L35.7003 78.7582C35.4383 79.2046 34.9508 79.4791 34.4227 79.4791C33.6102 79.4791 32.9317 78.8372 32.9317 78.0473V76.6274C32.9317 75.7901 33.5147 75.0515 34.3394 74.8125L36.0538 74.3109C36.1513 73.7738 36.1817 73.2287 36.1817 72.6817V72.5277C36.1817 72.1781 35.9095 71.8957 35.5317 71.8957C35.1905 71.8957 34.8817 72.1781 34.8817 72.5277L34.9 73.1596ZM34.25 76.6274V78.0473C34.25 78.1401 34.3272 78.2152 34.4227 78.2152C34.4836 78.2152 34.5425 78.1836 34.573 78.1303L34.8553 77.6504C35.2108 77.0421 35.4972 76.4003 35.7084 75.7328L34.7131 76.0053C34.4389 76.1021 34.25 76.349 34.25 76.6274ZM31.4875 77.2673H32.3V78.0473C32.3 78.1046 32.3022 78.1599 32.3069 78.2152H31.4875C31.2184 78.2152 31 78.0039 31 77.7412C31 77.4786 31.2184 77.2673 31.4875 77.2673ZM43.5125 78.2152H36.7586C36.9252 77.9051 37.0775 77.5891 37.2136 77.2673H43.5125C43.7827 77.2673 44 77.4786 44 77.7412C44 78.0039 43.7827 78.2152 43.5125 78.2152Z" fill="#3E4347"/>
<rect x="49.75" y="66.75" width="19.5" height="15.5" rx="3.25" fill="white" stroke="#C9C9D4" stroke-width="0.5" stroke-dasharray="1 1"/>
<path d="M56.9 73.1596C56.9 73.5092 56.6095 73.7916 56.25 73.7916C55.8905 73.7916 55.6 73.5092 55.6 73.1596V72.5277C55.6 71.4806 56.4552 70.6318 57.55 70.6318C58.6266 70.6318 59.5 71.4806 59.5 72.5277V72.6817C59.5 73.0925 59.4756 73.5032 59.4269 73.912L61.9131 73.1853C62.1447 73.1181 62.3966 73.1813 62.5489 73.3512C62.7358 73.521 62.7927 73.7679 62.7175 73.991L62.3519 75.0377H64.05C64.4095 75.0377 64.7 75.3378 64.7 75.6696C64.7 76.0369 64.4095 76.3016 64.05 76.3016H61.45C61.2408 76.3016 61.0458 76.2226 60.9219 76.0567C60.8 75.8928 60.7675 75.6795 60.8325 75.4879L61.0864 74.7474L59.1689 75.3062C58.9292 76.349 58.5291 77.3502 57.9827 78.2784L57.7003 78.7582C57.4383 79.2046 56.9508 79.4791 56.4227 79.4791C55.6102 79.4791 54.9317 78.8372 54.9317 78.0473V76.6274C54.9317 75.7901 55.5147 75.0515 56.3394 74.8125L58.0538 74.3109C58.1513 73.7738 58.1817 73.2287 58.1817 72.6817V72.5277C58.1817 72.1781 57.9095 71.8957 57.5317 71.8957C57.1905 71.8957 56.8817 72.1781 56.8817 72.5277L56.9 73.1596ZM56.25 76.6274V78.0473C56.25 78.1401 56.3272 78.2152 56.4227 78.2152C56.4836 78.2152 56.5425 78.1836 56.573 78.1303L56.8553 77.6504C57.2108 77.0421 57.4972 76.4003 57.7084 75.7328L56.7131 76.0053C56.4389 76.1021 56.25 76.349 56.25 76.6274ZM53.4875 77.2673H54.3V78.0473C54.3 78.1046 54.3022 78.1599 54.3069 78.2152H53.4875C53.2184 78.2152 53 78.0039 53 77.7412C53 77.4786 53.2184 77.2673 53.4875 77.2673ZM65.5125 78.2152H58.7586C58.9252 77.9051 59.0775 77.5891 59.2136 77.2673H65.5125C65.7827 77.2673 66 77.4786 66 77.7412C66 78.0039 65.7827 78.2152 65.5125 78.2152Z" fill="#3E4347"/>
<rect x="70.75" y="66.75" width="19.5" height="15.5" rx="3.25" fill="white" stroke="#C9C9D4" stroke-width="0.5" stroke-dasharray="1 1"/>
<path d="M77.9 73.1596C77.9 73.5092 77.6095 73.7916 77.25 73.7916C76.8905 73.7916 76.6 73.5092 76.6 73.1596V72.5277C76.6 71.4806 77.4552 70.6318 78.55 70.6318C79.6266 70.6318 80.5 71.4806 80.5 72.5277V72.6817C80.5 73.0925 80.4756 73.5032 80.4269 73.912L82.9131 73.1853C83.1447 73.1181 83.3966 73.1813 83.5489 73.3512C83.7358 73.521 83.7927 73.7679 83.7175 73.991L83.3519 75.0377H85.05C85.4095 75.0377 85.7 75.3378 85.7 75.6696C85.7 76.0369 85.4095 76.3016 85.05 76.3016H82.45C82.2408 76.3016 82.0458 76.2226 81.9219 76.0567C81.8 75.8928 81.7675 75.6795 81.8325 75.4879L82.0864 74.7474L80.1689 75.3062C79.9292 76.349 79.5291 77.3502 78.9827 78.2784L78.7003 78.7582C78.4383 79.2046 77.9508 79.4791 77.4227 79.4791C76.6102 79.4791 75.9317 78.8372 75.9317 78.0473V76.6274C75.9317 75.7901 76.5147 75.0515 77.3394 74.8125L79.0538 74.3109C79.1513 73.7738 79.1817 73.2287 79.1817 72.6817V72.5277C79.1817 72.1781 78.9095 71.8957 78.5317 71.8957C78.1905 71.8957 77.8817 72.1781 77.8817 72.5277L77.9 73.1596ZM77.25 76.6274V78.0473C77.25 78.1401 77.3272 78.2152 77.4227 78.2152C77.4836 78.2152 77.5425 78.1836 77.573 78.1303L77.8553 77.6504C78.2108 77.0421 78.4972 76.4003 78.7084 75.7328L77.7131 76.0053C77.4389 76.1021 77.25 76.349 77.25 76.6274ZM74.4875 77.2673H75.3V78.0473C75.3 78.1046 75.3022 78.1599 75.3069 78.2152H74.4875C74.2184 78.2152 74 78.0039 74 77.7412C74 77.4786 74.2184 77.2673 74.4875 77.2673ZM86.5125 78.2152H79.7586C79.9252 77.9051 80.0775 77.5891 80.2136 77.2673H86.5125C86.7827 77.2673 87 77.4786 87 77.7412C87 78.0039 86.7827 78.2152 86.5125 78.2152Z" fill="#3E4347"/>
</svg>
