<svg width="142" height="130" viewBox="0 0 142 130" fill="none" xmlns="http://www.w3.org/2000/svg">
<path d="M36.928 103.41C27.4684 103.41 19.0536 97.3526 15.9981 88.3353L15.7916 87.656C15.0709 85.2682 14.7689 83.26 14.7689 81.2507V40.9619L0.433771 88.8138C-1.40981 95.852 2.7916 103.149 9.84068 105.093L101.213 129.563C102.353 129.859 103.494 130 104.617 130C110.502 130 115.879 126.095 117.386 120.338L122.71 103.41H36.928Z" fill="#DCE5F1"/>
<path d="M53.178 41.3644C59.6959 41.3644 64.9954 36.064 64.9954 29.5461C64.9954 23.0282 59.6959 17.7275 53.178 17.7275C46.6601 17.7275 41.3594 23.0282 41.3594 29.5461C41.3594 36.064 46.6601 41.3644 53.178 41.3644Z" fill="#DCE5F1"/>
<path d="M127.041 0H38.4051C30.2631 0 23.6328 6.6303 23.6328 14.7734V79.7723C23.6328 87.9153 30.2631 94.5456 38.4051 94.5456H127.041C135.184 94.5456 141.814 87.9153 141.814 79.7723V14.7734C141.814 6.6303 135.184 0 127.041 0ZM38.4051 11.8183H127.041C128.673 11.8183 129.996 13.1415 129.996 14.7734V56.7218L111.33 34.9404C109.35 32.6184 106.483 31.3773 103.405 31.3071C100.344 31.3243 97.4727 32.6833 95.5109 35.0356L73.5642 61.3775L66.4143 54.2452C62.373 50.2039 55.7958 50.2039 51.76 54.2452L35.4511 70.5485V14.7734C35.4511 13.1415 36.7746 11.8183 38.4051 11.8183Z" fill="#DCE5F1"/>
</svg>
