<svg width="602" height="448" viewBox="0 0 602 448" fill="none" xmlns="http://www.w3.org/2000/svg">
<rect x="1" y="0.360352" width="601" height="447" rx="10" fill="white"/>
<path d="M72.5473 70.3032C70.8598 68.6834 69.4124 67.1092 68.175 65.65C71.3191 64.8263 74.6131 63.8703 78.0326 62.7652C81.0784 61.7816 83.9714 60.7587 86.702 59.7231C86.1861 61.4898 85.7032 63.43 85.2937 65.5518C85.0849 66.6504 84.8882 67.793 84.7292 68.9742C84.2066 72.7543 84.0805 76.1675 84.1521 79.0968C81.4639 77.5101 78.4067 75.4426 75.2643 72.7668C74.2974 71.9402 73.3876 71.118 72.5473 70.3032Z" fill="#3BA27A"/>
<path d="M102.423 59.7396C101.473 59.1337 100.524 58.5382 99.5708 57.9329L98.1042 57.0052C97.4165 56.5687 96.7332 56.1395 96.0455 55.7031C98.6695 54.4956 101.402 53.1562 104.212 51.6802C107.194 50.1031 109.988 48.5049 112.594 46.9293C112.893 48.8764 113.146 51.0272 113.273 53.3597L113.341 54.8355C113.346 55.2008 113.355 55.5707 113.364 55.9406C113.397 58.0878 113.319 60.1133 113.179 61.9985C113.127 62.6135 113.075 63.2012 113.011 63.7859C112.92 64.6413 112.817 65.4691 112.711 66.2512C111.652 65.5802 110.585 64.9111 109.529 64.237C109.08 63.9532 108.631 63.6694 108.18 63.3803C106.265 62.1688 104.339 60.9512 102.423 59.7396Z" fill="#446DB7"/>
<path d="M142.673 23.4983L163.48 27.0094C161.973 24.3131 160.432 21.1674 159.035 17.59C157.748 14.3039 156.82 11.2168 156.128 8.43291C154.472 10.5434 152.681 12.7174 150.758 14.9218C148.025 18.0465 145.315 20.9011 142.673 23.4983ZM51.5467 69.0923C54.3565 68.6498 57.0535 68.1625 59.6275 67.6379C58.1207 70.4937 56.5662 74.0155 55.3357 78.1424C54.4472 81.1156 53.8874 83.8646 53.5348 86.3026C51.5061 84.3354 49.3192 81.9912 47.1548 79.2295C44.688 76.0796 42.7705 73.056 41.278 70.3704C44.5278 70.0688 47.964 69.6545 51.5467 69.0923Z" fill="#F14947"/>
<path d="M157.402 12.5334C157.475 12.4418 157.456 12.3201 157.359 12.2554L154.598 10.3176C154.505 10.2523 154.373 10.2716 154.3 10.3632C154.228 10.4548 154.247 10.5765 154.34 10.6419L157.105 12.579C157.17 12.6228 157.249 12.6337 157.314 12.6065C157.352 12.5903 157.38 12.5681 157.402 12.5334ZM148.869 24.224C148.946 24.1396 148.934 24.0135 148.838 23.9488L145.043 21.1027C144.954 21.0336 144.821 21.0476 144.748 21.1366C144.674 21.2204 144.683 21.3471 144.779 21.4118L148.575 24.2605C148.634 24.3055 148.722 24.312 148.792 24.2836C148.817 24.273 148.845 24.2534 148.869 24.224ZM158.833 17.1783C158.91 17.0939 158.898 16.9678 158.811 16.9013L152.935 12.2656C152.847 12.1965 152.71 12.2085 152.636 12.2922C152.562 12.376 152.57 12.5027 152.659 12.5718L158.533 17.1997C158.594 17.2526 158.681 17.259 158.754 17.2274C158.784 17.2157 158.813 17.1961 158.833 17.1783ZM161.01 21.9466C161.084 21.8629 161.073 21.7368 160.979 21.6714L151.24 14.3622C151.156 14.2951 151.019 14.3071 150.947 14.3987C150.872 14.4825 150.884 14.6086 150.977 14.6739L160.713 21.9837C160.773 22.0288 160.86 22.0352 160.931 22.0068C160.955 21.9963 160.983 21.9741 161.01 21.9466ZM158.184 26.1895C158.244 26.095 158.219 25.9744 158.119 25.9214L146.72 19.3239C146.62 19.2682 146.49 19.2953 146.43 19.3925C146.37 19.487 146.395 19.6049 146.495 19.6606L157.894 26.258C157.958 26.294 158.027 26.2988 158.089 26.2721C158.125 26.2482 158.162 26.2242 158.184 26.1895ZM163.65 27.1217C163.723 27.0326 163.703 26.9083 163.61 26.843L148.979 16.8994C148.883 16.8347 148.751 16.8566 148.679 16.9482C148.608 17.0366 148.626 17.1615 148.722 17.2263L163.352 27.1698C163.417 27.211 163.495 27.2141 163.557 27.1874C163.6 27.1786 163.628 27.159 163.65 27.1217ZM113.174 62.0108C113.131 62.0197 113.085 62.0402 113.036 62.0586C112.514 62.2766 112.279 62.8367 112.496 63.3136C112.599 63.5382 112.787 63.7041 113.007 63.795L113.174 62.0108ZM109.304 62.4141C108.743 62.3613 108.241 62.7447 108.165 63.2633C108.161 63.2997 108.156 63.3472 108.156 63.3909C108.605 63.6721 109.051 63.9565 109.505 64.2476C109.855 64.1256 110.123 63.8237 110.171 63.4557C110.254 62.9327 109.865 62.4696 109.304 62.4141ZM113.333 54.84C113.261 54.9042 113.164 54.9627 113.061 55.006C112.539 55.224 111.953 55.0069 111.735 54.53C111.521 54.0552 111.762 53.4939 112.278 53.2771C112.618 53.1353 112.986 53.1819 113.265 53.3616L113.333 54.84ZM109.023 58.1097C108.509 58.3232 108.266 58.8877 108.482 59.362C108.697 59.8395 109.294 60.0516 109.807 59.8354C110.321 59.6218 110.565 59.0599 110.348 58.583C110.134 58.1082 109.537 57.8961 109.023 58.1097ZM107.951 50.8587C107.438 51.0749 107.194 51.6368 107.412 52.1137C107.626 52.5885 108.222 52.8006 108.737 52.5871C109.251 52.3735 109.494 51.809 109.277 51.3347C109.062 50.8572 108.473 50.6408 107.951 50.8587ZM104.255 55.5889C103.741 55.8025 103.497 56.3644 103.715 56.8413C103.929 57.3161 104.526 57.5308 105.039 57.3146C105.553 57.1011 105.797 56.5392 105.583 56.0617C105.366 55.5874 104.777 55.371 104.255 55.5889ZM98.6914 56.2462C98.343 56.3898 98.1223 56.6926 98.0797 57.0132L99.5469 57.9435C100.024 57.7102 100.228 57.1813 100.019 56.719C99.8101 56.2403 99.2134 56.0283 98.6914 56.2462ZM42.8318 73.0159L48.1779 69.7659C48.2723 69.708 48.3106 69.5797 48.2428 69.4954C48.175 69.4111 48.0497 69.377 47.9537 69.4407L42.6075 72.6908C42.5132 72.7487 42.4749 72.8769 42.5426 72.9613C42.598 73.0427 42.708 73.0745 42.8034 73.0355C42.8153 73.0221 42.8233 73.0177 42.8318 73.0159ZM44.2283 75.1829L53.7661 68.9148C53.8593 68.8517 53.8863 68.7258 53.8186 68.6415C53.7531 68.554 53.6215 68.5321 53.5288 68.5979L43.9909 74.866C43.8977 74.9291 43.8707 75.055 43.9356 75.1399C43.991 75.2214 44.1051 75.2441 44.1919 75.2069C44.1982 75.1946 44.2118 75.1891 44.2283 75.1829ZM45.7501 77.3703L59.7506 67.7954C59.8433 67.7297 59.8708 67.6064 59.8025 67.5195C59.7375 67.4346 59.6031 67.4133 59.5127 67.4759L45.5123 77.0508C45.4167 77.1171 45.3892 77.2404 45.4575 77.3273C45.5208 77.4044 45.6219 77.4216 45.7093 77.387C45.7302 77.3881 45.7337 77.3765 45.7501 77.3703ZM47.2864 79.3852L58.266 70.8434C58.3542 70.7704 58.3738 70.6515 58.2959 70.5611C58.2196 70.4786 58.0925 70.464 57.9929 70.5394L47.0172 79.0859C46.929 79.1589 46.9071 79.281 46.9879 79.3708C47.0467 79.4406 47.1484 79.4604 47.2352 79.4232C47.25 79.4092 47.2716 79.3993 47.2864 79.3852ZM48.909 81.3467L57.0558 73.7332C57.143 73.655 57.1411 73.5323 57.0597 73.4536C56.9755 73.3754 56.8459 73.3778 56.7588 73.4561L48.6148 81.0689C48.5276 81.1472 48.5267 81.2704 48.6081 81.3491C48.6738 81.4093 48.7653 81.423 48.8442 81.3902C48.8686 81.3797 48.8885 81.3618 48.909 81.3467ZM50.5836 83.2316L55.653 77.7565C55.7306 77.6748 55.7191 77.5487 55.6388 77.4752C55.5539 77.4081 55.4175 77.4201 55.3389 77.4966L50.2695 82.9717C50.1925 83.056 50.204 83.1821 50.2837 83.253C50.345 83.3059 50.432 83.3124 50.5029 83.284C50.5397 83.2763 50.5602 83.2611 50.5836 83.2316ZM51.8592 84.59L54.619 81.55C54.6932 81.4663 54.6846 81.3396 54.5963 81.2705C54.5086 81.204 54.3722 81.216 54.298 81.2997L51.5382 84.3397C51.464 84.4235 51.4755 84.5496 51.5609 84.6193C51.6221 84.6722 51.712 84.6781 51.7824 84.647C51.8108 84.6274 51.8352 84.6169 51.8592 84.59ZM121.377 41.2203L140.626 48.7159C140.519 46.5129 140.3 44.1418 139.911 41.6313C139.165 36.8386 137.984 32.6394 136.7 29.1095C134.389 31.1703 131.874 33.2983 129.153 35.4445C126.493 37.5452 123.885 39.4683 121.377 41.2203ZM23.6245 71.143C26.5602 71.1637 29.3856 71.1089 32.0848 71.0011C30.8066 73.1806 29.5257 75.5602 28.2913 78.1489C26.3992 82.1072 24.9521 85.8609 23.8301 89.2737C21.6346 86.5758 19.3138 83.3464 17.0922 79.5714C15.2424 76.4326 13.785 73.4472 12.6158 70.7108C16.0717 70.9595 19.7449 71.1164 23.6245 71.143Z" fill="#F9B53F"/>
<path d="M89.5842 58.0945C91.2659 57.4002 92.9417 56.677 94.6392 55.9165C126.902 41.3882 147.185 19.998 158.52 4.6137C158.655 4.43541 158.912 4.38178 159.108 4.49958C159.296 4.62176 159.349 4.86223 159.217 5.04838C147.817 20.5199 127.425 42.0232 94.9872 56.6232C93.5342 57.2809 92.0775 57.9065 90.6392 58.5065C89.6825 58.9078 88.7208 59.2993 87.7695 59.6694C55.9557 72.2672 26.6998 72.6736 7.18903 70.6343C6.96188 70.6077 6.79767 70.415 6.82825 70.1927C6.86329 69.9776 7.07265 69.8193 7.31113 69.8434C27.1422 71.931 57.1316 71.4567 89.5842 58.0945Z" fill="#F79748"/>
<path d="M284.209 321.023C288.57 320.851 293.145 320.746 297.89 320.746C325.382 320.746 347.697 323.897 347.697 327.804C347.697 328.075 347.585 328.328 347.395 328.584H347.616L347.942 348.113V348.721C347.969 349.665 347.969 350.612 347.997 351.535V352.082C348.024 353.825 348.051 355.569 348.082 357.312V357.794C348.299 364.745 348.408 371.653 348.517 378.544C336.758 381.757 318.147 385.601 295.009 385.349C275.191 385.158 259.02 382.031 248.025 379.196V328.498H248.328C248.165 328.268 248.08 328.033 248.08 327.804C248.08 325.514 255.839 323.456 267.874 322.178C272.698 321.651 278.235 321.25 284.209 321.023Z" fill="#F9B53F"/>
<path d="M303.098 318.772C303.51 318.751 303.918 318.751 304.33 318.816C305.565 319.004 306.714 319.57 307.51 320.452C308.415 319.192 310.171 318.436 312.035 318.477C313.872 318.543 315.515 319.362 316.311 320.642C317.049 319.552 318.613 318.921 320.202 319.067C321.709 319.192 322.998 320.011 323.437 321.127C323.849 320.916 325.519 320.032 327.849 320.243C330.7 320.496 332.183 322.178 332.373 322.405C332.703 322.217 334.346 321.294 336.649 321.524C339.391 321.797 340.762 323.477 340.925 323.688C342.241 322.953 344.024 322.825 345.449 323.394C347.531 324.213 347.779 325.976 347.779 326.08C347.752 326.523 347.752 326.985 347.752 327.428C342.599 325.704 336.156 323.939 328.536 322.702C317.215 320.872 307.347 320.872 300.081 321.336C291.584 321.145 281.304 321.443 269.82 322.911C261.622 323.962 254.36 325.41 248.083 326.943C248.08 326.648 248.08 326.377 248.08 326.08C248.247 324.841 249.315 323.793 250.795 323.394C252.825 322.846 254.55 323.814 254.686 323.876C254.771 323.709 255.622 322.006 258.061 321.524C260.636 320.999 262.609 322.322 262.721 322.405C263.432 321.166 264.966 320.327 266.721 320.243C269.3 320.118 270.807 321.735 270.861 321.818C271.191 321.443 272.038 320.559 273.575 320.139C275.548 319.612 277.851 320.076 279.522 321.315C279.607 321.145 280.236 319.886 281.991 319.448C283.471 319.067 285.168 319.466 286.267 320.431C286.512 320.118 287.145 319.403 288.349 319.067C289.941 318.584 291.859 318.942 293.257 319.948C293.394 319.74 294.023 318.73 295.448 318.373C297.067 317.995 299.013 318.608 300.081 319.948C300.357 319.719 301.398 318.9 303.098 318.772Z" fill="#F14947"/>
<path d="M336.65 291.891C335.993 294.41 336.075 297.078 335.799 299.621C335.5 302.391 335.143 305.166 334.813 307.956C334.211 313.418 333.497 318.876 332.758 324.338C332.537 326.062 336.048 326.062 336.266 324.338C336.925 318.983 337.446 313.606 337.857 308.23C338.075 305.541 338.211 302.855 338.324 300.166C338.432 297.519 338.926 294.747 338.596 292.102C338.514 291.283 336.898 290.967 336.65 291.891ZM321.026 288.678C320.614 289.937 320.863 291.304 320.917 292.584C320.999 294.035 321.108 295.461 321.189 296.911C321.356 299.871 321.492 302.855 321.628 305.815C321.904 311.676 322.04 317.533 322.176 323.394C322.203 325.136 325.768 325.136 325.714 323.394C325.492 317.533 325.084 311.676 324.56 305.815C324.316 302.938 324.013 300.062 323.686 297.162C323.52 295.714 323.383 294.285 323.19 292.835C322.999 291.471 322.999 289.916 322.315 288.657C322.067 288.278 321.217 288.153 321.026 288.678ZM310.937 289.077C310.226 291.849 310.828 295.02 310.937 297.855C311.049 301.027 310.937 304.177 310.91 307.328C310.828 313.566 310.61 319.781 310.032 325.996C309.896 327.572 313.131 327.572 313.267 325.996C313.818 319.781 314.117 313.543 313.981 307.328C313.9 304.261 313.624 301.194 313.434 298.129C313.321 296.596 313.185 295.062 312.995 293.529C312.828 292.039 312.774 290.506 312.09 289.077C311.896 288.698 311.076 288.615 310.937 289.077ZM298.412 291.429C298.494 296.932 298.218 302.435 298.439 307.936C298.657 313.439 298.823 318.942 299.014 324.442C299.068 326.017 302.303 326.017 302.222 324.442C301.919 318.942 301.589 313.439 301.317 307.936C301.041 302.412 300.276 296.932 299.864 291.429C299.837 290.714 298.412 290.714 298.412 291.429ZM286.404 290.023C285.884 292.668 286.458 295.524 286.486 298.213C286.513 301.089 286.652 303.945 286.707 306.822C286.788 312.557 286.625 318.331 286.35 324.067C286.268 325.934 290.051 325.934 290.159 324.067C290.462 318.31 290.408 312.578 290.051 306.822C289.887 303.945 289.666 301.068 289.2 298.213C288.982 296.783 288.707 295.357 288.459 293.907C288.241 292.605 288.159 291.283 287.557 290.023C287.418 289.624 286.513 289.517 286.404 290.023ZM275.383 294.747C274.454 297.289 274.92 300.354 274.893 302.98C274.893 305.797 274.835 308.588 274.808 311.402C274.808 314.216 274.781 317.009 274.753 319.823C274.726 322.702 274.423 325.642 274.699 328.519C274.835 330.115 277.716 330.094 277.907 328.519C278.237 325.66 277.988 322.702 277.961 319.823C277.934 317.009 277.852 314.216 277.771 311.402C277.689 308.588 277.495 305.797 277.332 302.98C277.165 300.354 277.413 297.248 276.233 294.747C276.097 294.434 275.522 294.41 275.383 294.747ZM262.473 292.48C262.528 291.682 263.926 291.724 264.035 292.48C264.994 298.067 265.297 303.716 265.681 309.323C265.872 312.03 266.066 314.761 266.283 317.471C266.395 318.856 266.474 320.222 266.532 321.607C266.559 322.89 266.749 324.317 266.202 325.556C265.708 326.628 263.378 326.857 263.048 325.556C262.722 324.278 262.994 322.911 262.994 321.607C263.021 320.222 262.939 318.856 262.912 317.471C262.831 314.761 262.749 312.03 262.637 309.323C262.419 303.737 262.116 298.087 262.473 292.48Z" fill="#F14947"/>
<path d="M248.054 379.092C252.936 380.518 259.817 382.242 268.202 383.52C280.894 385.432 290.789 385.348 298.246 385.241C306.25 385.137 317.299 384.928 331.167 382.219C338.406 380.789 344.297 379.11 348.519 377.746C348.22 377.493 347.917 377.219 347.587 376.969C347.233 376.737 346.053 376.066 344.464 376.129C342.573 376.191 340.872 377.219 340.134 378.753C339.831 378.567 338.433 377.704 336.487 377.832C334.569 377.954 332.895 378.987 332.157 380.456C332.018 380.328 330.841 379.196 328.895 379.214C327.276 379.235 325.796 380.077 325.194 381.337C325.027 381.209 323.33 379.991 320.891 380.307C318.312 380.643 317.271 382.386 317.19 382.513C316.914 382.323 315.462 381.379 313.295 381.483C310.829 381.611 309.512 383.017 309.322 383.205C308.747 382.031 307.182 381.275 305.539 381.402C303.893 381.507 302.522 382.472 302.222 383.711C302.083 383.583 300.219 381.966 297.395 382.198C295.178 382.386 293.916 383.606 293.698 383.817C293.586 383.69 292.188 382.114 289.64 382.114C287.446 382.114 286.102 383.27 285.911 383.437C285.473 382.114 283.993 381.147 282.238 381.042C280.54 380.938 278.921 381.611 278.152 382.766C278.016 382.576 276.866 381.126 274.482 380.855C271.903 380.563 270.148 381.861 269.985 382.007C269.849 381.799 268.944 380.432 266.832 379.991C264.311 379.467 262.338 380.748 262.202 380.855C262.09 380.643 261.212 379.214 259.049 378.732C256.637 378.187 254.715 379.279 254.524 379.384C254.276 378.356 253.317 377.493 252.004 377.156C250.606 376.799 249.041 377.096 248 377.913C248.027 378.312 248.054 378.711 248.054 379.092ZM248.109 326.943C249.153 326.145 250.715 325.871 252.085 326.249C253.375 326.607 254.307 327.467 254.524 328.518C254.718 328.411 256.637 327.363 259.021 327.929C261.158 328.453 261.981 329.882 262.09 330.094C262.226 329.987 264.202 328.748 266.696 329.316C268.781 329.778 269.655 331.163 269.767 331.374C269.93 331.246 271.713 329.948 274.261 330.302C276.618 330.618 277.717 332.065 277.853 332.277C278.649 331.121 280.292 330.472 281.966 330.597C283.717 330.743 285.143 331.732 285.554 333.054C285.748 332.887 287.092 331.732 289.283 331.773C291.807 331.815 293.177 333.432 293.259 333.536C293.477 333.307 294.766 332.131 296.987 331.961C299.811 331.752 301.59 333.39 301.729 333.536C302.056 332.297 303.427 331.374 305.073 331.267C306.716 331.184 308.254 331.943 308.801 333.137C308.964 332.95 310.335 331.562 312.774 331.458C314.941 331.374 316.366 332.363 316.611 332.53C316.696 332.402 317.765 330.66 320.34 330.368C322.755 330.094 324.398 331.312 324.561 331.437C325.167 330.198 326.674 329.379 328.289 329.379C330.208 329.379 331.361 330.534 331.497 330.66C332.266 329.189 333.963 328.203 335.858 328.098C337.777 327.992 339.147 328.873 339.447 329.084C340.215 327.572 341.94 326.565 343.804 326.523C345.396 326.502 346.519 327.173 346.876 327.405C347.179 327.655 347.478 327.929 347.781 328.182C343.559 329.483 337.664 331.103 330.456 332.402C316.642 334.924 305.702 334.966 297.753 334.966C290.354 334.966 280.54 334.903 268.012 332.801C259.705 331.419 252.936 329.588 248.139 328.075C248.109 327.72 248.109 327.321 248.109 326.943Z" fill="#F14947"/>
<path d="M319.708 371.612C319.215 371.612 318.831 371.906 318.831 372.285C318.831 372.663 319.215 372.957 319.708 372.957C320.201 372.957 320.586 372.663 320.586 372.285C320.586 371.906 320.201 371.612 319.708 371.612ZM325.328 366.153C324.862 366.153 324.505 366.424 324.505 366.782C324.505 367.139 324.862 367.413 325.328 367.413C325.794 367.413 326.151 367.139 326.151 366.782C326.151 366.445 325.794 366.153 325.328 366.153ZM310.745 369.765C310.17 369.765 309.677 370.123 309.677 370.587C309.677 371.046 310.143 371.403 310.745 371.403C311.347 371.403 311.813 371.046 311.813 370.587C311.813 370.123 311.32 369.765 310.745 369.765ZM271.272 372.582C270.507 372.582 269.874 373.062 269.874 373.649C269.874 374.238 270.507 374.721 271.272 374.721C272.041 374.721 272.67 374.238 272.67 373.649C272.67 373.062 272.041 372.582 271.272 372.582ZM334.237 370.587C333.798 370.587 333.468 370.855 333.468 371.171C333.468 371.507 333.825 371.76 334.237 371.76C334.675 371.76 335.005 371.487 335.005 371.171C335.005 370.855 334.648 370.587 334.237 370.587ZM298.271 377.871C297.614 377.871 297.094 378.27 297.094 378.776C297.094 379.279 297.614 379.678 298.271 379.678C298.931 379.678 299.451 379.279 299.451 378.776C299.451 378.27 298.931 377.871 298.271 377.871ZM286.239 370.081C285.141 370.081 284.266 370.751 284.266 371.591C284.266 372.431 285.141 373.106 286.239 373.106C287.335 373.106 288.212 372.431 288.212 371.591C288.212 370.751 287.335 370.081 286.239 370.081ZM272.67 365.376C271.983 365.376 271.435 365.796 271.435 366.32C271.435 366.844 271.983 367.267 272.67 367.267C273.354 367.267 273.901 366.844 273.901 366.32C273.932 365.796 273.354 365.376 272.67 365.376ZM262.336 369.554C261.594 369.554 260.992 370.016 260.992 370.587C260.992 371.15 261.594 371.612 262.336 371.612C263.074 371.612 263.679 371.15 263.679 370.587C263.679 370.016 263.074 369.554 262.336 369.554ZM320.804 343.658C320.31 343.658 319.929 343.953 319.929 344.334C319.929 344.709 320.31 345.004 320.804 345.004C321.3 345.004 321.681 344.709 321.681 344.334C321.681 343.953 321.27 343.658 320.804 343.658ZM326.396 336.204C325.93 336.204 325.576 336.476 325.576 336.833C325.576 337.193 325.93 337.464 326.396 337.464C326.862 337.464 327.219 337.193 327.219 336.833C327.219 336.476 326.862 336.204 326.396 336.204ZM313.048 338.072C312.473 338.072 311.98 338.429 311.98 338.893C311.98 339.355 312.446 339.712 313.048 339.712C313.65 339.712 314.116 339.355 314.116 338.893C314.116 338.429 313.623 338.072 313.048 338.072ZM272.34 344.626C271.571 344.626 270.942 345.108 270.942 345.698C270.942 346.285 271.571 346.767 272.34 346.767C273.109 346.767 273.738 346.285 273.738 345.698C273.765 345.108 273.136 344.626 272.34 344.626ZM335.305 342.631C334.866 342.631 334.539 342.905 334.539 343.218C334.539 343.554 334.897 343.81 335.305 343.81C335.744 343.81 336.074 343.533 336.074 343.218C336.074 342.905 335.716 342.631 335.305 342.631ZM299.451 345.612C298.795 345.612 298.271 346.013 298.271 346.517C298.271 347.02 298.795 347.419 299.451 347.419C300.108 347.419 300.628 347.02 300.628 346.517C300.628 346.013 300.108 345.612 299.451 345.612ZM291.42 339.313C290.325 339.313 289.447 339.984 289.447 340.823C289.447 341.663 290.325 342.339 291.42 342.339C292.515 342.339 293.393 341.663 293.393 340.823C293.393 339.984 292.515 339.313 291.42 339.313ZM273.765 337.422C273.082 337.422 272.534 337.842 272.534 338.367C272.534 338.893 273.082 339.313 273.765 339.313C274.453 339.313 275 338.893 275 338.367C275 337.842 274.453 337.422 273.765 337.422ZM264.748 342.631C264.748 343.197 264.146 343.658 263.404 343.658C262.666 343.658 262.06 343.197 262.06 342.631C262.06 342.062 262.666 341.603 263.404 341.603C264.173 341.603 264.748 342.062 264.748 342.631Z" fill="#F14947"/>
<path d="M333.827 374.741C333.17 374.741 332.65 375.141 332.65 375.644C332.65 376.152 333.17 376.549 333.827 376.549C334.487 376.549 335.007 376.152 335.007 375.644C335.007 375.141 334.487 374.741 333.827 374.741ZM304.688 373.964C304.249 373.964 303.865 374.238 303.865 374.595C303.865 374.932 304.222 375.224 304.688 375.224C305.127 375.224 305.511 374.953 305.511 374.595C305.511 374.238 305.127 373.964 304.688 373.964ZM281.472 365.272C280.921 365.272 280.482 365.605 280.482 366.025C280.482 366.445 280.921 366.782 281.472 366.782C282.019 366.782 282.458 366.445 282.458 366.025C282.458 365.605 282.019 365.272 281.472 365.272ZM252.303 360.295C251.537 360.295 250.932 360.754 250.932 361.346C250.932 361.931 251.537 362.395 252.303 362.395C253.071 362.395 253.673 361.931 253.673 361.346C253.673 360.754 253.044 360.295 252.303 360.295ZM252.303 371.76C251.537 371.76 250.932 372.222 250.932 372.809C250.932 373.398 251.537 373.86 252.303 373.86C253.071 373.86 253.673 373.398 253.673 372.809C253.65 372.243 253.044 371.76 252.303 371.76ZM337.609 365.733C336.514 365.733 335.609 366.424 335.609 367.267C335.609 368.107 336.514 368.8 337.609 368.8C338.708 368.8 339.609 368.107 339.609 367.267C339.609 366.424 338.708 365.733 337.609 365.733ZM334.895 346.788C334.238 346.788 333.718 347.187 333.718 347.693C333.718 348.196 334.238 348.595 334.895 348.595C335.555 348.595 336.075 348.196 336.075 347.693C336.075 347.187 335.555 346.788 334.895 346.788ZM305.756 346.014C305.317 346.014 304.936 346.285 304.936 346.645C304.936 346.999 305.29 347.273 305.756 347.273C306.195 347.273 306.579 346.999 306.579 346.645C306.579 346.285 306.195 346.014 305.756 346.014ZM282.54 337.318C281.992 337.318 281.553 337.652 281.553 338.072C281.553 338.494 281.992 338.828 282.54 338.828C283.087 338.828 283.526 338.494 283.526 338.072C283.526 337.652 283.087 337.318 282.54 337.318ZM253.374 332.339C252.605 332.339 252.003 332.801 252.003 333.39C252.003 333.977 252.605 334.439 253.374 334.439C254.139 334.439 254.745 333.977 254.745 333.39C254.745 332.801 254.112 332.339 253.374 332.339ZM253.374 343.81C252.605 343.81 252.003 344.269 252.003 344.858C252.003 345.445 252.605 345.909 253.374 345.909C254.139 345.909 254.745 345.445 254.745 344.858C254.745 344.269 254.112 343.81 253.374 343.81ZM340.048 335.805C340.048 336.645 339.143 337.339 338.048 337.339C336.953 337.339 336.048 336.645 336.048 335.805C336.048 334.966 336.953 334.272 338.048 334.272C339.143 334.272 340.048 334.945 340.048 335.805Z" fill="#456EB8"/>
<path d="M342.708 372.937C342.052 372.937 341.531 373.336 341.531 373.842C341.531 374.342 342.052 374.741 342.708 374.741C343.365 374.741 343.888 374.342 343.888 373.842C343.888 373.356 343.365 372.937 342.708 372.937ZM266.667 367.267C266.283 367.267 265.984 367.496 265.984 367.791C265.984 368.086 266.283 368.315 266.667 368.315C267.052 368.315 267.351 368.086 267.351 367.791C267.351 367.496 267.052 367.267 266.667 367.267ZM263.899 361.365C263.378 361.365 262.939 361.701 262.939 362.1C262.939 362.499 263.378 362.833 263.899 362.833C264.419 362.833 264.858 362.499 264.858 362.1C264.858 361.701 264.419 361.365 263.899 361.365ZM327.22 371.466C326.424 371.466 325.768 371.969 325.768 372.582C325.768 373.187 326.424 373.693 327.22 373.693C328.016 373.693 328.673 373.187 328.673 372.582C328.673 371.969 328.044 371.466 327.22 371.466ZM319.709 376.257C318.805 376.257 318.063 376.82 318.063 377.516C318.063 378.208 318.805 378.776 319.709 378.776C320.614 378.776 321.352 378.208 321.352 377.516C321.352 376.82 320.614 376.257 319.709 376.257ZM299.453 369.956C298.272 369.956 297.286 370.691 297.286 371.612C297.286 372.538 298.245 373.273 299.453 373.273C300.63 373.273 301.616 372.538 301.616 371.612C301.616 370.691 300.657 369.956 299.453 369.956ZM343.776 344.983C343.12 344.983 342.599 345.385 342.599 345.886C342.599 346.389 343.12 346.788 343.776 346.788C344.436 346.788 344.957 346.389 344.957 345.886C344.957 345.403 344.436 344.983 343.776 344.983ZM267.736 339.313C267.351 339.313 267.052 339.543 267.052 339.837C267.052 340.132 267.351 340.362 267.736 340.362C268.12 340.362 268.423 340.132 268.423 339.837C268.423 339.543 268.12 339.313 267.736 339.313ZM264.967 333.414C264.446 333.414 264.007 333.748 264.007 334.147C264.007 334.546 264.446 334.882 264.967 334.882C265.487 334.882 265.926 334.546 265.926 334.147C265.926 333.748 265.487 333.414 264.967 333.414ZM329.714 338.367C328.918 338.367 328.261 338.873 328.261 339.48C328.261 340.09 328.918 340.594 329.714 340.594C330.51 340.594 331.166 340.09 331.166 339.48C331.166 338.873 330.51 338.367 329.714 338.367ZM325.574 344.626C324.669 344.626 323.931 345.192 323.931 345.886C323.931 346.579 324.669 347.145 325.574 347.145C326.479 347.145 327.22 346.579 327.22 345.886C327.22 345.192 326.506 344.626 325.574 344.626ZM304.933 338.367C303.756 338.367 302.769 339.102 302.769 340.028C302.769 340.93 303.729 341.687 304.933 341.687C306.113 341.687 307.1 340.951 307.1 340.028C307.1 339.102 306.14 338.367 304.933 338.367ZM329.139 293.382C328.646 296.09 328.754 298.841 328.537 301.572C328.343 304.344 328.207 307.117 328.125 309.889C327.931 315.517 327.686 321.166 327.302 326.797C327.193 328.432 330.51 328.432 330.619 326.797C330.976 321.166 331.248 315.538 331.36 309.889C331.415 307.117 331.36 304.344 331.193 301.572C331.03 298.841 331.085 296.069 330.51 293.382C330.401 292.879 329.248 292.856 329.139 293.382ZM318.311 294.874C317.791 297.394 317.791 299.976 317.597 302.516C317.407 305.309 317.185 308.082 316.995 310.875C316.611 316.357 316.281 321.839 315.815 327.321C315.679 329.022 319.135 329.001 319.243 327.321C319.655 321.86 319.982 316.357 320.009 310.875C320.009 308.186 319.954 305.479 319.846 302.79C319.737 300.166 319.764 297.477 319.216 294.874C319.162 294.514 318.393 294.514 318.311 294.874ZM307.018 294.347C306.715 295.545 306.878 296.742 306.878 297.96C306.906 299.303 306.797 300.669 306.715 302.015C306.552 304.535 306.44 307.054 306.222 309.576C305.783 314.761 304.905 320.032 304.905 325.222C304.905 326.604 307.923 327.027 308.195 325.556C309.1 320.41 308.964 315.011 308.797 309.826C308.715 307.221 308.688 304.595 308.525 301.992C308.443 300.732 308.331 299.472 308.304 298.213C308.277 296.911 308.416 295.607 308.032 294.327C307.868 293.99 307.127 293.969 307.018 294.347ZM290.816 294.201C290.816 295.545 291.2 296.867 291.391 298.192C291.585 299.535 291.612 300.857 291.666 302.2C291.748 304.701 292.023 307.2 292.214 309.68C292.598 314.844 292.653 320.053 293.092 325.222C293.255 327.027 296.738 327.068 296.793 325.222C296.956 319.99 296.326 314.615 295.67 309.404C295.34 306.905 295.037 304.386 294.435 301.911C293.806 299.303 293.721 296.533 292.816 293.99C292.544 293.129 290.816 293.299 290.816 294.201ZM280.291 289.705C279.771 292.436 280.097 295.25 280.124 298.001C280.152 300.815 280.07 303.609 280.016 306.425C279.934 309.237 279.825 312.03 279.686 314.844C279.604 316.294 279.522 317.742 279.441 319.192C279.359 320.556 279.111 321.967 279.441 323.331C279.716 324.591 282.155 324.421 282.54 323.331C283.033 322.027 282.921 320.556 282.975 319.192C283.033 317.742 283.087 316.294 283.114 314.844C283.169 312.03 283.169 309.237 283.114 306.425C283.06 303.609 282.893 300.815 282.757 298.001C282.621 295.25 282.676 292.373 281.825 289.705C281.608 289.181 280.427 289.118 280.291 289.705ZM268.365 290.253C268.038 296.259 268.338 302.224 268.97 308.23C269.27 311.17 269.654 314.13 270.066 317.072C270.256 318.501 270.477 319.927 270.695 321.354C270.916 322.702 270.78 324.505 271.821 325.642C272.559 326.437 274.039 326.312 274.45 325.365C275.029 324.106 274.342 322.551 274.124 321.25C273.848 319.761 273.6 318.29 273.355 316.798C272.862 313.775 272.396 310.731 271.957 307.703C271.134 301.846 270.311 295.985 269.243 290.169C269.188 289.749 268.392 289.875 268.365 290.253ZM254.823 295.104C254.908 294.41 256.36 294.139 256.524 294.934C257.044 297.498 257.18 300.08 257.537 302.665C257.895 305.184 258.252 307.685 258.551 310.205C259.184 315.41 260.252 320.556 261.021 325.764C259.895 325.407 258.745 325.052 257.622 324.698C257.813 324.591 257.976 324.486 258.17 324.359C259.483 323.581 261.541 324.254 261.102 325.66C261.048 325.83 260.99 325.996 260.936 326.166C260.5 327.551 257.401 327.676 257.099 326.166C256.085 321.083 255.646 315.874 255.126 310.75C254.881 308.23 254.768 305.729 254.714 303.21C254.714 300.5 254.524 297.772 254.823 295.104Z" fill="#3BA27A"/>
<path d="M348.024 348.744C343.309 349.772 338.458 350.442 333.58 350.906C318.229 352.375 302.605 352.523 287.199 351.639C279.688 351.219 272.177 350.528 264.748 349.56C259.183 348.848 253.536 348.069 248.025 347.02V345.99C254.441 347.104 260.853 348.238 267.408 349.036C282.484 350.862 297.805 351.618 313.075 351.305C324.699 351.055 336.703 350.507 347.997 348.134C347.997 348.342 348.024 348.533 348.024 348.744ZM348.163 357.836C341.363 358.887 334.455 359.641 327.549 360.167C312.361 361.323 296.985 361.302 281.797 360.105C274.368 359.536 266.996 358.676 259.676 357.541C255.812 356.954 251.89 356.323 248.025 355.569V354.539C252.74 355.483 257.455 356.365 262.255 357.08C290.679 361.239 319.709 361.07 348.163 357.312V357.836ZM348.051 351.556C335.689 354.625 322.369 355.275 309.483 355.569C294.216 355.903 278.892 355.126 263.816 353.3C258.499 352.648 253.261 351.79 248.053 350.885V351.934C252.414 352.669 256.825 353.28 261.186 353.825C268.612 354.769 276.123 355.483 283.634 355.903C299.04 356.764 314.664 356.639 330.016 355.168C336.156 354.581 342.268 353.699 348.109 352.124C348.082 351.934 348.082 351.746 348.051 351.556ZM250.192 366.025C249.753 366.025 249.396 366.299 249.396 366.636C249.396 366.972 249.753 367.243 250.192 367.243C250.631 367.243 250.985 366.972 250.985 366.636C250.985 366.299 250.631 366.025 250.192 366.025ZM265.816 373.86C265.268 373.86 264.83 374.196 264.83 374.616C264.83 375.036 265.268 375.373 265.816 375.373C266.364 375.373 266.803 375.036 266.803 374.616C266.803 374.196 266.364 373.86 265.816 373.86ZM276.371 369.554C275.793 369.554 275.327 369.911 275.327 370.352C275.327 370.795 275.793 371.15 276.371 371.15C276.946 371.15 277.412 370.795 277.412 370.352C277.412 369.911 276.946 369.554 276.371 369.554ZM294.955 368.506C294.601 368.506 294.325 368.714 294.325 368.988C294.325 369.262 294.601 369.47 294.955 369.47C295.312 369.47 295.587 369.262 295.587 368.988C295.587 368.714 295.312 368.506 294.955 368.506ZM291.42 375.393C290.597 375.393 289.913 375.897 289.913 376.549C289.913 377.177 290.57 377.704 291.42 377.704C292.244 377.704 292.927 377.201 292.927 376.549C292.927 375.897 292.244 375.393 291.42 375.393ZM255.346 367.436C254.934 367.436 254.604 367.687 254.604 368C254.604 368.315 254.934 368.568 255.346 368.568C255.757 368.568 256.084 368.315 256.084 368C256.084 367.687 255.757 367.436 255.346 367.436ZM343.775 362.371C343.01 362.371 342.377 362.854 342.377 363.446C342.377 364.03 343.01 364.515 343.775 364.515C344.544 364.515 345.173 364.03 345.173 363.446C345.173 362.854 344.571 362.371 343.775 362.371ZM342.404 367.645C341.911 367.645 341.53 367.937 341.53 368.315C341.53 368.696 341.911 368.988 342.404 368.988C342.898 368.988 343.282 368.696 343.282 368.315C343.282 367.937 342.898 367.645 342.404 367.645ZM317.572 367.645C316.61 367.645 315.817 368.253 315.817 368.988C315.817 369.723 316.61 370.331 317.572 370.331C318.532 370.331 319.324 369.723 319.324 368.988C319.297 368.253 318.532 367.645 317.572 367.645ZM311.953 376.572C311.266 376.572 310.718 376.992 310.718 377.516C310.718 378.041 311.266 378.461 311.953 378.461C312.636 378.461 313.184 378.041 313.184 377.516C313.184 376.992 312.636 376.572 311.953 376.572ZM282.236 375.56C281.525 375.56 280.947 376.001 280.947 376.549C280.947 377.097 281.525 377.535 282.236 377.535C282.95 377.535 283.525 377.097 283.525 376.549C283.525 376.001 282.95 375.56 282.236 375.56ZM255.237 362.94C254.359 362.94 253.645 363.485 253.645 364.158C253.645 364.828 254.359 365.376 255.237 365.376C256.115 365.376 256.825 364.828 256.825 364.158C256.825 363.485 256.115 362.94 255.237 362.94ZM251.26 338.072C250.822 338.072 250.468 338.348 250.468 338.682C250.468 339.019 250.822 339.292 251.26 339.292C251.699 339.292 252.056 339.019 252.056 338.682C252.056 338.348 251.699 338.072 251.26 338.072ZM266.884 345.909C266.337 345.909 265.898 346.243 265.898 346.663C265.898 347.083 266.337 347.419 266.884 347.419C267.435 347.419 267.874 347.083 267.874 346.663C267.874 346.243 267.435 345.909 266.884 345.909ZM277.44 341.603C276.865 341.603 276.399 341.958 276.399 342.399C276.399 342.839 276.865 343.197 277.44 343.197C278.014 343.197 278.48 342.839 278.48 342.399C278.48 341.958 278.014 341.603 277.44 341.603ZM297.945 338.072C297.588 338.072 297.312 338.283 297.312 338.56C297.312 338.828 297.588 339.039 297.945 339.039C298.298 339.039 298.574 338.828 298.574 338.56C298.574 338.304 298.298 338.072 297.945 338.072ZM290.022 344.858C289.199 344.858 288.515 345.361 288.515 346.013C288.515 346.663 289.172 347.169 290.022 347.169C290.845 347.169 291.529 346.663 291.529 346.013C291.529 345.361 290.845 344.858 290.022 344.858ZM256.414 339.48C256.002 339.48 255.676 339.733 255.676 340.046C255.676 340.362 256.002 340.615 256.414 340.615C256.825 340.615 257.155 340.362 257.155 340.046C257.155 339.733 256.825 339.48 256.414 339.48ZM344.901 331.247C344.132 331.247 343.503 331.732 343.503 332.318C343.503 332.908 344.132 333.39 344.901 333.39C345.667 333.39 346.299 332.908 346.299 332.318C346.299 331.732 345.667 331.247 344.901 331.247ZM343.503 339.712C343.01 339.712 342.625 340.004 342.625 340.383C342.625 340.763 343.01 341.055 343.503 341.055C343.996 341.055 344.381 340.763 344.381 340.383C344.354 340.004 343.969 339.712 343.503 339.712ZM319.93 338.367C318.967 338.367 318.174 338.979 318.174 339.712C318.174 340.448 318.967 341.055 319.93 341.055C320.889 341.055 321.681 340.448 321.681 339.712C321.654 338.956 320.889 338.367 319.93 338.367ZM313.65 344.626C312.966 344.626 312.419 345.046 312.419 345.57C312.419 346.097 312.966 346.517 313.65 346.517C314.337 346.517 314.885 346.097 314.885 345.57C314.885 345.046 314.337 344.626 313.65 344.626ZM282.236 343.658C281.525 343.658 280.947 344.102 280.947 344.649C280.947 345.192 281.525 345.633 282.236 345.633C282.95 345.633 283.525 345.192 283.525 344.649C283.525 344.102 282.95 343.658 282.236 343.658ZM257.894 336.204C257.894 336.877 257.183 337.422 256.305 337.422C255.427 337.422 254.716 336.877 254.716 336.204C254.716 335.532 255.427 334.989 256.305 334.989C257.183 334.989 257.894 335.532 257.894 336.204Z" fill="#FAE0C9"/>
<path d="M340.158 286.075C340.76 283.847 338.484 282.189 338.321 282.084C338.181 282.504 337.963 283.156 337.579 283.91C336.756 285.527 335.991 286.054 336.181 286.808C336.29 287.23 336.729 287.817 338.321 288.383C338.759 288.112 339.828 287.355 340.158 286.075ZM331.249 289.791C331.66 288.237 330.068 287.061 329.959 286.998C329.878 287.293 329.711 287.754 329.439 288.278C328.864 289.413 328.313 289.77 328.452 290.295C328.534 290.589 328.837 291.009 329.959 291.387C330.262 291.22 331 290.673 331.249 289.791ZM323.598 284.351C324.204 282.126 321.928 280.467 321.761 280.36C321.625 280.78 321.408 281.432 321.023 282.189C320.2 283.806 319.431 284.33 319.625 285.086C319.734 285.506 320.173 286.096 321.761 286.661C322.2 286.388 323.272 285.613 323.598 284.351ZM319.734 290.336C320.227 288.531 318.39 287.209 318.254 287.123C318.145 287.46 317.979 287.986 317.652 288.594C316.992 289.895 316.363 290.315 316.526 290.926C316.608 291.262 316.965 291.745 318.254 292.185C318.611 291.953 319.462 291.346 319.734 290.336ZM311.4 287.102C312.771 286.536 313.128 285.947 313.237 285.527C313.403 284.771 312.744 284.246 312.033 282.629C311.703 281.873 311.512 281.224 311.4 280.804C311.264 280.908 309.345 282.567 309.839 284.794C310.141 286.075 311.046 286.849 311.4 287.102ZM308.549 290.756C308.988 289.077 307.291 287.838 307.178 287.754C307.097 288.07 306.906 288.552 306.631 289.118C306.001 290.336 305.427 290.714 305.59 291.283C305.672 291.599 306.001 292.039 307.206 292.459C307.481 292.29 308.304 291.703 308.549 290.756ZM301.093 286.075C301.698 283.847 299.423 282.189 299.256 282.084C299.12 282.504 298.902 283.156 298.518 283.91C297.695 285.527 296.929 286.054 297.12 286.808C297.229 287.23 297.667 287.817 299.256 288.383C299.695 288.112 300.766 287.355 301.093 286.075ZM293.228 289.645C293.64 288.07 292.048 286.873 291.939 286.808C291.857 287.102 291.691 287.566 291.419 288.112C290.844 289.267 290.293 289.624 290.432 290.169C290.514 290.485 290.813 290.884 291.939 291.283C292.242 291.072 292.98 290.527 293.228 289.645ZM288.429 286.429C288.867 284.794 287.197 283.576 287.088 283.511C287.003 283.826 286.84 284.288 286.537 284.857C285.935 286.033 285.36 286.429 285.496 286.977C285.578 287.293 285.908 287.713 287.058 288.132C287.388 287.921 288.184 287.355 288.429 286.429ZM282.921 285.17C283.523 282.945 281.248 281.286 281.084 281.179C280.945 281.599 280.727 282.251 280.343 283.008C279.52 284.625 278.754 285.151 278.945 285.905C279.054 286.325 279.492 286.914 281.084 287.48C281.496 287.188 282.564 286.429 282.921 285.17ZM276.723 290.631C277.053 289.371 275.791 288.448 275.71 288.383C275.628 288.615 275.519 288.993 275.302 289.413C274.832 290.315 274.397 290.61 274.506 291.03C274.56 291.283 274.805 291.599 275.71 291.912C275.931 291.765 276.533 291.325 276.723 290.631ZM270.23 286.599C270.696 284.878 268.94 283.576 268.801 283.511C268.692 283.847 268.529 284.33 268.226 284.919C267.597 286.179 266.995 286.578 267.131 287.165C267.212 287.501 267.542 287.942 268.777 288.383C269.131 288.174 269.981 287.585 270.23 286.599ZM262.498 289.33C263.869 288.761 264.253 288.174 264.335 287.754C264.498 286.998 263.841 286.474 263.127 284.857C262.8 284.1 262.607 283.448 262.498 283.028C262.362 283.133 260.416 284.794 260.936 287.019C261.239 288.299 262.168 289.077 262.498 289.33ZM256.524 290.19C257.126 287.963 254.851 286.304 254.684 286.2C254.548 286.62 254.33 287.272 253.946 288.028C253.123 289.645 252.354 290.169 252.548 290.926C252.657 291.346 253.096 291.932 254.684 292.501C255.096 292.227 256.194 291.45 256.524 290.19Z" fill="#F9B53F"/>
<path d="M561.195 382.982C558.634 384.493 555.976 386.482 553.443 389.073C548.281 394.393 545.873 400.05 544.74 403.368C546.181 402.989 548.169 402.388 550.477 401.423C554.004 399.924 558.27 397.557 562.384 393.791C568.652 388.078 571.69 381.834 573.074 378.375C570.737 378.865 566.176 380.041 561.195 382.982Z" fill="#F9B53F"/>
<path d="M523.541 402.808C523.33 402.079 523.751 401.31 524.478 401.085L530.117 399.433C530.844 399.223 531.614 399.644 531.837 400.371C532.048 401.1 531.629 401.869 530.9 402.094L525.262 403.746C525.137 403.788 524.996 403.803 524.869 403.803C524.268 403.803 523.723 403.41 523.541 402.808ZM534.679 369.051L532.035 362.133C531.769 361.419 532.118 360.62 532.832 360.355C533.544 360.076 534.343 360.439 534.609 361.153L537.253 368.071C537.519 368.783 537.168 369.582 536.456 369.848C536.288 369.903 536.12 369.946 535.965 369.946C535.419 369.946 534.888 369.61 534.679 369.051ZM565.53 367.608C564.887 367.202 564.705 366.333 565.111 365.704L568.091 361.069C568.497 360.425 569.364 360.244 569.993 360.65C570.637 361.056 570.818 361.923 570.414 362.554L567.434 367.187C567.168 367.593 566.72 367.818 566.271 367.818C566.02 367.831 565.768 367.761 565.53 367.608ZM557.177 397.837C557.443 397.837 557.709 397.767 557.947 397.599C558.576 397.179 558.744 396.311 558.325 395.68C557.275 394.112 555.037 391.341 551.944 390.444C548.279 389.394 544.851 390.388 541.534 391.341C540.639 391.593 539.8 391.844 538.945 392.04C537.085 392.488 535.126 392.839 533.516 392.32C531.769 391.761 530.271 390.276 529.04 388.89C528.536 388.316 527.654 388.274 527.095 388.778C526.521 389.283 526.478 390.165 526.982 390.724C528.466 392.39 530.298 394.197 532.677 394.953C534.93 395.667 537.336 395.261 539.589 394.715C540.499 394.49 541.409 394.239 542.289 393.973C545.367 393.09 548.264 392.25 551.175 393.077C552.826 393.553 554.588 395.051 556.03 397.193C556.295 397.612 556.729 397.837 557.177 397.837Z" fill="#3BA27A"/>
<path d="M537.157 409.907C536.415 409.739 535.939 408.997 536.107 408.255L536.876 404.853C537.044 404.109 537.786 403.648 538.528 403.803C539.27 403.971 539.744 404.713 539.576 405.454L538.807 408.857C538.668 409.501 538.094 409.934 537.463 409.934C537.365 409.949 537.255 409.934 537.157 409.907ZM522.326 385.432C521.835 384.844 521.905 383.976 522.494 383.486C523.431 382.688 525.011 381.679 527.209 381.343C529.713 380.952 531.755 381.666 532.748 382.128C533.435 382.45 533.743 383.275 533.42 383.962C533.099 384.648 532.272 384.956 531.588 384.633C530.873 384.298 529.419 383.794 527.628 384.074C526.075 384.312 524.941 385.039 524.269 385.615C524.018 385.838 523.697 385.936 523.389 385.936C522.983 385.936 522.591 385.768 522.326 385.432ZM562.383 395.177C562.803 395.177 563.209 394.996 563.475 394.645C563.936 394.044 563.824 393.175 563.222 392.713C560.48 390.584 558.746 388.232 558.102 385.713C557.332 382.716 558.159 380.055 559.039 377.242C559.991 374.175 561.082 370.702 559.991 366.6C559.332 364.093 557.991 361.77 556.016 359.698C555.485 359.151 554.618 359.124 554.073 359.655C553.527 360.188 553.499 361.056 554.031 361.602C555.682 363.338 556.801 365.255 557.332 367.3C558.214 370.632 557.332 373.446 556.409 376.415C555.457 379.482 554.464 382.646 555.429 386.397C556.241 389.534 558.297 392.391 561.543 394.896C561.796 395.094 562.089 395.177 562.383 395.177Z" fill="#446DB7"/>
<path d="M571.731 374.37C571.563 373.629 572.026 372.887 572.766 372.719L577.077 371.739C577.819 371.571 578.559 372.033 578.728 372.774C578.895 373.516 578.433 374.26 577.692 374.428L573.383 375.407C573.285 375.435 573.172 375.435 573.075 375.435C572.445 375.435 571.871 375.001 571.731 374.37ZM562.384 393.806C564.189 392.167 565.715 390.486 567.016 388.848C568.109 387.462 569.046 386.104 569.829 384.831C571.382 382.295 572.417 380.028 573.075 378.404L580.197 396.507L581.987 401.057L592.705 428.36L588.103 425.967L584.171 423.923L564.344 413.59L560.006 411.335L544.741 403.382C548.408 402.415 555.571 400.007 562.384 393.806ZM547.232 369.946C547.666 369.946 548.1 369.737 548.365 369.344C548.799 368.715 548.646 367.861 548.015 367.427C547.428 367.021 546.014 365.859 545.595 363.814C545.273 362.246 545.706 360.943 546.001 360.299C546.308 359.6 546.001 358.788 545.302 358.48C544.601 358.172 543.791 358.48 543.482 359.179C543.062 360.118 542.419 362.05 542.894 364.373C543.51 367.398 545.581 369.106 546.448 369.708C546.686 369.863 546.966 369.946 547.232 369.946Z" fill="#F14947"/>
<path d="M562.384 409.571C563.755 409.571 564.875 410.676 564.875 412.064C564.875 412.638 564.679 413.169 564.356 413.59L560.02 411.335C560.328 410.313 561.278 409.571 562.384 409.571ZM580.197 396.507L581.987 401.057C581.608 401.295 581.175 401.423 580.699 401.423C579.328 401.423 578.209 400.316 578.209 398.93C578.209 397.74 579.062 396.73 580.197 396.507ZM555.024 401.716C556.395 401.716 557.515 402.836 557.515 404.209C557.515 405.58 556.41 406.7 555.024 406.7C553.653 406.7 552.535 405.595 552.535 404.209C552.535 402.836 553.64 401.716 555.024 401.716ZM575.229 407.093C576.6 407.093 577.718 408.198 577.718 409.584C577.718 410.957 576.613 412.077 575.229 412.077C573.843 412.077 572.738 410.971 572.738 409.584C572.738 408.198 573.858 407.093 575.229 407.093ZM586.661 421.458C588.032 421.458 589.15 422.565 589.15 423.95C589.15 424.79 588.744 425.519 588.115 425.98L584.17 423.923C584.184 422.55 585.288 421.458 586.661 421.458ZM569.828 384.816C570.64 385.222 571.199 386.062 571.199 387.041C571.199 388.414 570.093 389.534 568.709 389.534C568.051 389.534 567.436 389.268 567.002 388.848C568.108 387.462 569.045 386.104 569.828 384.816ZM528.721 373.784C530.581 373.055 534.373 372.033 538.78 373.237C544.447 374.791 547.414 378.978 548.42 380.714C548.813 381.371 548.588 382.212 547.931 382.604C547.707 382.729 547.469 382.799 547.231 382.799C546.755 382.799 546.294 382.548 546.041 382.113C545.203 380.672 542.74 377.199 538.053 375.911C534.415 374.904 531.267 375.771 529.728 376.36C529.014 376.64 528.217 376.275 527.936 375.575C527.656 374.874 528.007 374.062 528.721 373.784Z" fill="#F9B53F"/>
<path d="M537.309 408.884C537.211 408.857 537.156 408.772 537.184 408.674L538.036 405.034C538.066 404.936 538.149 404.88 538.247 404.908C538.345 404.936 538.4 405.021 538.372 405.118L537.52 408.759C537.505 408.842 537.435 408.899 537.352 408.899C537.337 408.884 537.324 408.884 537.309 408.884ZM566.146 366.683C566.063 366.628 566.034 366.53 566.091 366.445L569.112 361.644C569.169 361.559 569.267 361.546 569.35 361.587C569.435 361.644 569.463 361.742 569.407 361.825L566.384 366.628C566.357 366.683 566.3 366.711 566.244 366.711C566.202 366.698 566.174 366.698 566.146 366.683ZM547.411 381.316C546.53 379.873 543.956 376.359 539.142 374.819C534.482 373.307 530.426 374.553 528.9 375.142C528.817 375.169 528.719 375.127 528.677 375.042C528.634 374.959 528.69 374.847 528.774 374.819C530.705 374.062 534.65 372.999 539.24 374.483C544.152 376.064 546.796 379.664 547.706 381.133C547.761 381.218 547.734 381.316 547.649 381.371C547.621 381.386 547.593 381.399 547.566 381.399C547.51 381.399 547.453 381.371 547.411 381.316ZM561.236 394.813C561.179 394.743 561.179 394.631 561.249 394.575C563.853 392.32 566.189 389.759 568.175 386.958C569.645 384.901 570.931 382.688 572.009 380.391C572.052 380.308 572.149 380.266 572.232 380.308C572.317 380.349 572.36 380.447 572.317 380.531C571.225 382.842 569.939 385.069 568.455 387.154C566.455 389.982 564.104 392.573 561.474 394.828C561.445 394.856 561.404 394.869 561.361 394.869C561.319 394.869 561.264 394.856 561.236 394.813ZM556.912 405.833C556.828 405.775 556.814 405.665 556.87 405.594C557.612 404.558 557.401 403.102 556.394 402.36C555.905 401.996 555.261 401.841 554.631 401.954C553.987 402.066 553.428 402.43 553.065 402.976C553.008 403.059 552.91 403.074 552.827 403.019C552.742 402.962 552.729 402.864 552.784 402.781C553.203 402.15 553.834 401.744 554.576 401.618C555.288 401.491 556.03 401.66 556.604 402.079C557.752 402.934 558.003 404.6 557.15 405.79C557.121 405.833 557.066 405.86 557.01 405.86C556.982 405.86 556.94 405.846 556.912 405.833ZM588.938 424.93C588.855 424.902 588.8 424.805 588.828 424.707C589.162 423.67 588.771 422.535 587.875 421.976C587.064 421.472 586.001 421.528 585.231 422.116C585.161 422.172 585.048 422.159 584.993 422.088C584.938 422.018 584.951 421.906 585.021 421.85C585.916 421.177 587.134 421.107 588.058 421.696C589.093 422.34 589.54 423.628 589.149 424.832C589.121 424.902 589.051 424.958 588.981 424.958C588.981 424.93 588.968 424.93 588.938 424.93ZM575.227 412.232C575.325 412.232 575.395 412.147 575.395 412.064C575.395 411.964 575.311 411.894 575.227 411.894C573.954 411.894 572.919 410.859 572.919 409.584C572.919 408.311 573.954 407.274 575.227 407.274C575.325 407.274 575.395 407.191 575.395 407.106C575.395 407.023 575.311 406.938 575.227 406.938C573.758 406.938 572.568 408.128 572.568 409.599C572.568 411.041 573.758 412.232 575.227 412.232Z" fill="#3A5471"/>
<path d="M50.9789 386.129C53.6596 387.712 56.4423 389.793 59.0925 392.503C64.4964 398.072 67.0141 403.992 68.2016 407.466C66.693 407.071 64.6137 406.44 62.1962 405.429C58.5064 403.861 54.0402 401.385 49.7353 397.442C43.1745 391.463 39.996 384.928 38.5469 381.308C40.9915 381.821 45.7652 383.053 50.9789 386.129Z" fill="#F9B53F"/>
<path d="M90.3843 406.88C90.6035 406.118 90.1652 405.312 89.4041 405.078L83.5024 403.348C82.7396 403.128 81.9344 403.568 81.6999 404.33C81.4808 405.091 81.9208 405.898 82.6818 406.133L88.5836 407.862C88.7144 407.905 88.8622 407.92 88.993 407.92C89.6232 407.92 90.194 407.511 90.3843 406.88ZM78.7287 371.548L81.4961 364.309C81.7747 363.562 81.4077 362.726 80.6602 362.448C79.9145 362.155 79.0786 362.536 78.8017 363.283L76.0326 370.522C75.7557 371.27 76.121 372.105 76.8685 372.384C77.0434 372.442 77.2201 372.486 77.3798 372.486C77.9523 372.486 78.5078 372.134 78.7287 371.548ZM46.4374 370.04C47.1118 369.613 47.3021 368.704 46.8774 368.045L43.7583 363.195C43.3336 362.521 42.4248 362.33 41.7656 362.757C41.0929 363.181 40.9026 364.089 41.3273 364.748L44.4464 369.6C44.7233 370.024 45.1922 370.259 45.661 370.259C45.9243 370.272 46.1877 370.199 46.4374 370.04ZM55.1796 401.677C54.9009 401.677 54.624 401.604 54.3743 401.429C53.7152 400.989 53.5402 400.08 53.9785 399.421C55.0776 397.78 57.4203 394.878 60.6566 393.94C64.4942 392.841 68.0821 393.881 71.5528 394.878C72.4889 395.141 73.3689 395.405 74.2608 395.61C76.2093 396.079 78.2598 396.446 79.9433 395.904C81.7747 395.318 83.341 393.764 84.6287 392.313C85.157 391.713 86.0795 391.669 86.6656 392.196C87.2653 392.724 87.3094 393.646 86.7828 394.233C85.2301 395.977 83.3121 397.868 80.8216 398.658C78.4637 399.405 75.946 398.981 73.588 398.41C72.6367 398.176 71.6836 397.91 70.7612 397.632C67.5402 396.709 64.5078 395.829 61.4618 396.694C59.7341 397.194 57.8892 398.762 56.3806 401.002C56.102 401.442 55.6484 401.677 55.1796 401.677Z" fill="#F14947"/>
<path d="M76.1366 414.309C76.9129 414.134 77.4107 413.356 77.234 412.58L76.4288 409.019C76.2538 408.243 75.4774 407.759 74.7011 407.92C73.9247 408.097 73.4269 408.873 73.6019 409.649L74.4089 413.21C74.555 413.885 75.1546 414.338 75.8138 414.338C75.9157 414.353 76.0329 414.338 76.1366 414.309ZM91.6587 388.694C92.1718 388.078 92.0987 387.171 91.4838 386.658C90.5018 385.822 88.8472 384.767 86.5487 384.415C83.9274 384.004 81.7886 384.751 80.7489 385.236C80.032 385.572 79.7092 386.437 80.0456 387.155C80.3836 387.874 81.2466 388.195 81.9652 387.859C82.711 387.507 84.2349 386.979 86.1087 387.272C87.7345 387.522 88.9202 388.283 89.6235 388.885C89.8869 389.119 90.2232 389.221 90.546 389.221C90.9707 389.221 91.3801 389.046 91.6587 388.694ZM49.7334 398.892C49.2934 398.892 48.8687 398.702 48.5901 398.337C48.1076 397.707 48.2249 396.798 48.8534 396.314C51.7244 394.086 53.5405 391.625 54.2132 388.987C55.0185 385.851 54.1555 383.066 53.233 380.12C52.2375 376.911 51.0942 373.278 52.2375 368.985C52.9255 366.36 54.3304 363.929 56.3962 361.76C56.9517 361.187 57.8606 361.158 58.4314 361.715C59.0022 362.273 59.0311 363.181 58.4756 363.752C56.7479 365.57 55.5757 367.578 55.0185 369.717C54.096 373.205 55.0185 376.15 55.9851 379.256C56.9823 382.467 58.022 385.778 57.0112 389.705C56.1618 392.987 54.0094 395.977 50.6117 398.6C50.3484 398.806 50.0409 398.892 49.7334 398.892Z" fill="#446DB7"/>
<path d="M39.9505 377.117C40.1272 376.34 39.643 375.564 38.8667 375.387L34.3563 374.361C33.5799 374.186 32.8053 374.669 32.6286 375.447C32.4536 376.223 32.9361 377 33.7124 377.176L38.2228 378.201C38.3247 378.231 38.442 378.231 38.5456 378.231C39.2047 378.231 39.8044 377.776 39.9505 377.117ZM49.7341 397.457C47.845 395.743 46.2481 393.985 44.8856 392.269C43.744 390.818 42.7621 389.398 41.9432 388.064C40.3175 385.411 39.2336 383.037 38.5456 381.337L31.0912 400.285L29.2173 405.047L18 433.623L22.8162 431.117L26.9324 428.979L47.6836 418.164L52.2228 415.804L68.2003 407.48C64.3627 406.469 56.8657 403.948 49.7341 397.457ZM65.5926 372.486C65.139 372.486 64.6854 372.267 64.4068 371.856C63.9532 371.196 64.1146 370.303 64.7721 369.849C65.3887 369.425 66.8667 368.208 67.3067 366.068C67.6431 364.427 67.1895 363.064 66.882 362.39C66.5592 361.658 66.882 360.806 67.6142 360.485C68.3464 360.163 69.1958 360.485 69.5169 361.218C69.9569 362.199 70.6313 364.221 70.1319 366.654C69.488 369.819 67.3203 371.608 66.4131 372.238C66.1634 372.398 65.8712 372.486 65.5926 372.486Z" fill="#3BA27A"/>
<path d="M49.7341 413.958C48.2986 413.958 47.1264 415.115 47.1264 416.565C47.1264 417.167 47.3319 417.724 47.6683 418.164L52.2076 415.804C51.8865 414.734 50.891 413.958 49.7341 413.958ZM31.0912 400.285L29.2174 405.047C29.6132 405.297 30.0668 405.43 30.5645 405.43C32 405.43 33.1705 404.271 33.1705 402.82C33.1705 401.575 32.277 400.52 31.0912 400.285ZM57.4366 405.737C56.0011 405.737 54.8289 406.909 54.8289 408.345C54.8289 409.782 55.9858 410.954 57.4366 410.954C58.8721 410.954 60.0426 409.795 60.0426 408.345C60.0426 406.909 58.8857 405.737 57.4366 405.737ZM36.2896 411.364C34.8541 411.364 33.6836 412.522 33.6836 413.973C33.6836 415.408 34.8405 416.581 36.2896 416.581C37.7404 416.581 38.8973 415.424 38.8973 413.973C38.8973 412.522 37.7251 411.364 36.2896 411.364ZM24.3247 426.4C22.8909 426.4 21.7188 427.557 21.7188 429.008C21.7188 429.887 22.1435 430.649 22.8026 431.133L26.9324 428.979C26.9172 427.541 25.7603 426.4 24.3247 426.4ZM41.9433 388.049C41.0939 388.474 40.5078 389.354 40.5078 390.38C40.5078 391.815 41.6647 392.987 43.1138 392.987C43.8018 392.987 44.4473 392.709 44.9009 392.269C43.744 390.818 42.7621 389.398 41.9433 388.049ZM84.9677 376.502C83.0192 375.739 79.0507 374.669 74.4384 375.929C68.5078 377.557 65.4024 381.938 64.3474 383.756C63.938 384.444 64.1724 385.324 64.8604 385.733C65.0949 385.866 65.3446 385.939 65.5926 385.939C66.0904 385.939 66.5745 385.676 66.8379 385.22C67.7162 383.712 70.2933 380.078 75.1995 378.729C79.0065 377.674 82.3023 378.583 83.9128 379.198C84.6602 379.492 85.4944 379.11 85.7866 378.377C86.0805 377.645 85.7135 376.794 84.9677 376.502Z" fill="#F9B53F"/>
<path d="M75.976 413.239C76.0779 413.21 76.1374 413.122 76.1068 413.02L75.2149 409.209C75.1844 409.107 75.0977 409.048 74.9941 409.079C74.8922 409.107 74.8344 409.196 74.8633 409.298L75.7569 413.108C75.7705 413.195 75.8435 413.254 75.9319 413.254C75.9471 413.239 75.9607 413.239 75.976 413.239ZM45.7947 369.071C45.8813 369.013 45.9119 368.912 45.8524 368.823L42.6892 363.796C42.6315 363.708 42.5278 363.694 42.4412 363.739C42.3529 363.796 42.324 363.898 42.3817 363.987L45.545 369.013C45.5738 369.071 45.6333 369.102 45.6911 369.102C45.7352 369.087 45.7641 369.087 45.7947 369.071ZM65.4025 384.386C66.325 382.876 69.0193 379.198 74.058 377.586C78.9337 376.004 83.1807 377.307 84.7776 377.924C84.8643 377.953 84.9679 377.909 85.0121 377.82C85.0545 377.732 84.9968 377.615 84.9084 377.586C82.8885 376.794 78.7587 375.681 73.9544 377.234C68.8155 378.89 66.0464 382.657 65.095 384.194C65.0373 384.283 65.0662 384.386 65.1545 384.444C65.1834 384.459 65.2123 384.473 65.2411 384.473C65.3006 384.473 65.3584 384.444 65.4025 384.386ZM50.9336 398.512C50.9931 398.439 50.9931 398.322 50.92 398.264C48.1951 395.904 45.7505 393.222 43.6712 390.291C42.1337 388.137 40.7865 385.822 39.6585 383.418C39.6144 383.331 39.5124 383.287 39.4241 383.331C39.3357 383.374 39.2916 383.477 39.3357 383.566C40.4791 385.983 41.8262 388.312 43.3773 390.497C45.4719 393.456 47.9318 396.168 50.6856 398.527C50.7145 398.556 50.7587 398.571 50.8028 398.571C50.847 398.571 50.9048 398.556 50.9336 398.512ZM55.4593 410.045C55.5476 409.986 55.5612 409.869 55.5035 409.795C54.7271 408.712 54.9463 407.188 56.0012 406.411C56.5143 406.029 57.187 405.868 57.8462 405.985C58.5206 406.102 59.105 406.484 59.4872 407.055C59.545 407.144 59.6469 407.159 59.7352 407.099C59.8236 407.042 59.8372 406.938 59.7794 406.85C59.3394 406.191 58.6803 405.766 57.9056 405.633C57.1581 405.503 56.3818 405.678 55.7821 406.118C54.581 407.011 54.3177 408.756 55.2096 410.001C55.2402 410.045 55.2979 410.074 55.3574 410.074C55.3863 410.074 55.4304 410.059 55.4593 410.045ZM21.9381 430.034C22.0264 430.005 22.0859 429.901 22.0553 429.799C21.7053 428.714 22.1148 427.528 23.0525 426.942C23.9019 426.413 25.0146 426.473 25.8199 427.088C25.8929 427.146 26.0102 427.132 26.0696 427.059C26.1274 426.986 26.1121 426.869 26.039 426.809C25.103 426.106 23.8289 426.033 22.8622 426.648C21.7784 427.322 21.3095 428.671 21.7189 429.93C21.7495 430.005 21.8226 430.062 21.8956 430.062C21.8956 430.034 21.9092 430.034 21.9381 430.034ZM36.2898 416.742C36.1878 416.742 36.1148 416.654 36.1148 416.565C36.1148 416.463 36.2031 416.39 36.2898 416.39C37.6233 416.39 38.7072 415.306 38.7072 413.973C38.7072 412.639 37.6233 411.554 36.2898 411.554C36.1878 411.554 36.1148 411.467 36.1148 411.379C36.1148 411.29 36.2031 411.202 36.2898 411.202C37.8289 411.202 39.0724 412.449 39.0724 413.986C39.0724 415.497 37.8289 416.742 36.2898 416.742Z" fill="#3A5471"/>
</svg>
