<svg width="18" height="18" viewBox="0 0 18 18" fill="none" xmlns="http://www.w3.org/2000/svg">
<path d="M2.3998 4.2002C2.0752 4.1996 1.7998 4.46 1.7998 4.7972V11.2754C1.7998 11.5721 2.0167 11.8241 2.3098 11.8688L7.79981 12.7004V14.3963C6.98471 14.2328 6.31691 14.1002 6.29981 14.1002C5.96861 14.1002 5.69981 14.57 5.69981 15.1502C5.69981 15.7304 5.97851 16.1198 6.29981 16.2002C7.06991 16.3928 8.70461 16.7087 9.77741 16.9103C9.66551 16.6598 9.59981 16.3661 9.59981 16.0502C9.59981 15.5693 9.75041 15.1382 9.98891 14.8367C9.62111 14.7623 9.16451 14.6702 8.69981 14.5772V12.8369L11.0098 13.1933C11.0401 13.1978 11.0701 13.2002 11.0998 13.2002C11.4256 13.2008 11.6998 12.9365 11.6998 12.6002V7.4969C11.6998 7.2017 11.485 6.9503 11.1934 6.9041L6.33671 6.1445C6.12791 6.1115 5.95181 5.9708 5.87321 5.7746L5.52521 4.9049C5.44721 4.7105 5.27351 4.5704 5.06681 4.5362L2.4982 4.2086C2.4652 4.2029 2.4319 4.2002 2.3998 4.2002Z" fill="white"/>
<path d="M4.50039 2.40039C4.17579 2.39979 3.90039 2.66349 3.90039 3.00039V3.65439L5.29149 3.81699C5.72859 3.86859 6.10209 4.15479 6.26559 4.56309L6.53649 5.24079C6.57609 5.33949 6.66519 5.40999 6.77049 5.42589L11.5783 6.14709C12.1657 6.23529 12.6004 6.73989 12.6004 7.33389V11.9155L13.1104 11.9932C13.1407 11.998 13.1707 12.0004 13.2004 12.0004C13.5262 12.001 13.8004 11.7367 13.8004 11.4004V5.69319C13.8004 5.39799 13.5856 5.14659 13.294 5.10039L8.23569 4.34799C8.02719 4.31499 7.85079 4.17459 7.77219 3.97809L7.42419 3.10839C7.34649 2.91399 7.17279 2.77389 6.96609 2.73969L4.59879 2.40879C4.56579 2.40309 4.53249 2.40039 4.50039 2.40039Z" fill="white"/>
<path d="M15.2104 11.3935C15.2407 11.398 15.2707 11.4004 15.3004 11.4004C15.6262 11.401 15.9004 11.1367 15.9004 10.8004V4.20039C15.9004 3.90519 15.6856 3.65379 15.394 3.60759L10.9357 2.84799C10.7272 2.81499 10.5508 2.67459 10.4722 2.47809L10.1242 1.60839C10.0465 1.41399 9.87279 1.27389 9.66609 1.23969L7.59879 0.908792C7.56579 0.903092 7.53249 0.900392 7.50039 0.900392C7.17579 0.899792 6.90039 1.16349 6.90039 1.50039V1.95909L7.39149 2.01669C7.82859 2.06829 8.20209 2.35449 8.36559 2.76279L8.63649 3.44049C8.67609 3.53919 8.76519 3.60969 8.87049 3.62559L13.6783 4.34679C14.2657 4.43529 14.7004 4.93989 14.7004 5.53389V11.3149L15.2104 11.3935Z" fill="white"/>
<path d="M10.8002 17.1C11.1316 17.1 11.4002 16.6299 11.4002 16.05C11.4002 15.4701 11.1316 15 10.8002 15C10.4688 15 10.2002 15.4701 10.2002 16.05C10.2002 16.6299 10.4688 17.1 10.8002 17.1Z" fill="white"/>
<path d="M4.19961 15.2996C4.53098 15.2996 4.79961 15.031 4.79961 14.6996C4.79961 14.3682 4.53098 14.0996 4.19961 14.0996C3.86824 14.0996 3.59961 14.3682 3.59961 14.6996C3.59961 15.031 3.86824 15.2996 4.19961 15.2996Z" fill="white"/>
<path d="M12.8998 17.1004C13.2312 17.1004 13.4998 16.8318 13.4998 16.5004C13.4998 16.169 13.2312 15.9004 12.8998 15.9004C12.5684 15.9004 12.2998 16.169 12.2998 16.5004C12.2998 16.8318 12.5684 17.1004 12.8998 17.1004Z" fill="white"/>
</svg>
