<svg width="18" height="18" viewBox="0 0 18 18" fill="none" xmlns="http://www.w3.org/2000/svg">
<path d="M11.0996 15.2998H10.1996L9.74961 13.7998H7.04961L6.59961 15.2998H5.69961C5.36841 15.2998 5.09961 15.5686 5.09961 15.8998C5.09961 16.231 5.36841 16.4998 5.69961 16.4998H11.0996C11.4308 16.4998 11.6996 16.231 11.6996 15.8998C11.6996 15.5686 11.4308 15.2998 11.0996 15.2998Z" fill="white"/>
<path d="M11.8502 4.7998C10.1105 4.7998 8.7002 6.2101 8.7002 7.9498C8.7002 9.6895 10.1105 11.0998 11.8502 11.0998C13.5899 11.0998 15.0002 9.6895 15.0002 7.9498C15.0002 6.2101 13.5899 4.7998 11.8502 4.7998ZM11.7071 9.5554L10.0757 7.924L10.9241 7.0756L11.7002 7.8514L13.076 6.4756L13.9244 7.324L11.7071 9.5554Z" fill="white"/>
<path d="M16.7925 11.4071L15.3639 9.9707C15.0078 10.5869 14.4951 11.0996 13.8789 11.4554L15.3078 12.8918C15.4977 13.082 15.7602 13.1996 16.05 13.1996C16.6299 13.1996 17.1 12.7295 17.1 12.1496C17.1 11.8595 16.9824 11.5973 16.7925 11.4071Z" fill="white"/>
<path d="M11.8502 12C10.8866 12 10.0025 11.6622 9.3071 11.1H2.4002V2.7H14.4002V4.8054C14.9255 5.232 15.341 5.7873 15.6002 6.4236V2.7C15.6002 2.0373 15.0629 1.5 14.4002 1.5H2.4002C1.7375 1.5 1.2002 2.0373 1.2002 2.7V11.7C1.2002 12.3627 1.7375 12.9 2.4002 12.9H14.0426L12.98 11.8371C12.6209 11.9412 12.2426 12 11.8502 12Z" fill="white"/>
</svg>
