<svg width="101" height="105" viewBox="0 0 101 105" fill="none" xmlns="http://www.w3.org/2000/svg">
<path d="M36.2088 40.6626C40.5697 40.4904 45.145 40.3861 49.8903 40.3861C77.3825 40.3861 99.6973 43.5367 99.6973 47.4436C99.6973 47.7148 99.5851 47.9678 99.3946 48.2234H99.6157L99.9422 67.7527V68.3603C99.9695 69.3045 99.9695 70.2512 99.9967 71.1744V71.7221C100.024 73.4643 100.051 75.2091 100.082 76.9513V77.4338C100.299 84.3844 100.408 91.2931 100.517 98.1837C88.7576 101.397 70.1471 105.241 47.0091 104.988C27.191 104.798 11.0195 101.671 0.0253906 98.8357V48.1373H0.328138C0.164859 47.9078 0.0798171 47.6731 0.0798171 47.4436C0.0798171 45.1537 7.83899 43.0959 19.8741 41.8179C24.6976 41.2911 30.2355 40.8895 36.2088 40.6626Z" fill="#F9B53F"/>
<path d="M55.0985 38.4118C55.5101 38.3909 55.9183 38.3909 56.3299 38.4561C57.5647 38.6439 58.7144 39.2098 59.5104 40.0914C60.4153 38.8317 62.1705 38.0753 64.0346 38.117C65.8715 38.1822 67.5145 39.0012 68.3105 40.2817C69.0487 39.1916 70.6134 38.5604 72.202 38.7065C73.7089 38.8317 74.9982 39.6506 75.437 40.7668C75.8486 40.5556 77.5188 39.6715 79.8489 39.8827C82.6995 40.1357 84.1826 41.8179 84.3731 42.0448C84.7031 41.857 86.3461 40.9338 88.649 41.1633C91.3907 41.4371 92.7616 43.1167 92.9249 43.328C94.2413 42.5925 96.0238 42.4647 97.4491 43.0333C99.5309 43.8522 99.7792 45.6153 99.7792 45.7196C99.752 46.163 99.752 46.6246 99.752 47.068C94.5985 45.344 88.1558 43.5784 80.5361 42.3421C69.2153 40.5113 59.3471 40.5113 52.0812 40.9755C43.5839 40.7851 33.3041 41.0824 21.8201 42.5508C13.6221 43.6018 6.35954 45.0493 0.0834798 46.5829C0.0800783 46.2881 0.0800781 46.0169 0.0800781 45.7196C0.246759 44.4807 1.31488 43.4323 2.7946 43.0333C4.82539 42.4856 6.55003 43.4532 6.6861 43.5158C6.77114 43.3488 7.62155 41.6458 10.0605 41.1633C12.6356 40.6391 14.6086 41.9613 14.7208 42.0448C15.4318 40.806 16.9659 39.9662 18.7212 39.8827C21.2996 39.7575 22.8065 41.3745 22.861 41.458C23.1909 41.0824 24.0379 40.1983 25.5755 39.7784C27.5485 39.2516 29.8514 39.7158 31.5216 40.9546C31.6066 40.7851 32.2359 39.5254 33.9912 39.0872C35.4709 38.7065 37.1683 39.1055 38.2671 40.0705C38.512 39.7575 39.1447 39.0429 40.3489 38.7065C41.9409 38.224 43.8594 38.5813 45.2575 39.588C45.3935 39.3793 46.0229 38.37 47.4481 38.0127C49.0673 37.6345 51.0131 38.2474 52.0812 39.588C52.3567 39.3585 53.3976 38.5395 55.0985 38.4118Z" fill="#F14947"/>
<path d="M88.6499 11.5304C87.9934 14.0498 88.075 16.7178 87.7995 19.2607C87.5001 22.0305 87.143 24.8055 86.813 27.5961C86.2109 33.0574 85.4966 38.5162 84.7584 43.9775C84.5373 45.7014 88.0478 45.7014 88.2655 43.9775C88.9254 38.6231 89.4459 33.2452 89.8575 27.87C90.0752 25.1811 90.2113 22.4947 90.3235 19.8058C90.4324 17.1586 90.9256 14.3862 90.5957 11.7416C90.514 10.9227 88.8982 10.6071 88.6499 11.5304ZM73.0261 8.31724C72.6145 9.57694 72.8628 10.9436 72.9172 12.2241C72.9989 13.6742 73.1077 15.1008 73.1894 16.5509C73.3561 19.5111 73.4921 22.4947 73.6282 25.4549C73.9037 31.3153 74.0398 37.173 74.1759 43.0333C74.2031 44.7755 77.768 44.7755 77.7136 43.0333C77.4925 37.173 77.0843 31.3153 76.5604 25.4549C76.3155 22.5782 76.0128 19.7015 75.6862 16.8013C75.5195 15.3538 75.3834 13.9246 75.1896 12.4745C74.9991 11.1105 74.9991 9.55607 74.3153 8.29637C74.067 7.9182 73.2166 7.79301 73.0261 8.31724ZM62.9368 8.71627C62.2258 11.4887 62.8279 14.6601 62.9368 17.4951C63.049 20.6665 62.9368 23.817 62.9096 26.9676C62.8279 33.2061 62.6102 39.4212 62.0319 45.6362C61.8959 47.2115 65.1309 47.2115 65.2669 45.6362C65.818 39.4212 66.1173 33.1826 65.9813 26.9676C65.8996 23.9005 65.6241 20.8334 65.4336 17.7689C65.3213 16.2354 65.1853 14.7018 64.9948 13.1683C64.8281 11.679 64.7737 10.1455 64.0899 8.71627C63.896 8.3381 63.0763 8.25464 62.9368 8.71627ZM50.4119 11.0688C50.4935 16.5718 50.218 22.0748 50.4391 27.5753C50.6568 33.0783 50.8235 38.5814 51.014 44.0818C51.0684 45.6571 54.3034 45.6571 54.2217 44.0818C53.919 38.5814 53.589 33.0783 53.3169 27.5753C53.0414 22.0514 52.276 16.5718 51.8644 11.0688C51.8372 10.3541 50.4119 10.3541 50.4119 11.0688ZM38.404 9.663C37.8836 12.3076 38.4585 15.1634 38.4857 17.8524C38.5129 20.7291 38.6524 23.5849 38.7068 26.4616C38.7884 32.1968 38.6251 37.9711 38.3496 43.7062C38.268 45.5736 42.0506 45.5736 42.1595 43.7062C42.4622 37.9502 42.4078 32.2176 42.0506 26.4616C41.8873 23.5849 41.6662 20.7082 41.2002 17.8524C40.9825 16.4231 40.707 14.9965 40.4586 13.5464C40.2409 12.245 40.1593 10.9227 39.5572 9.663C39.4177 9.26397 38.5129 9.15704 38.404 9.663ZM27.3827 14.3862C26.454 16.9291 26.92 19.9936 26.8928 22.6199C26.8928 25.4366 26.835 28.2273 26.8078 31.0414C26.8078 33.8555 26.7806 36.6488 26.7534 39.4629C26.7262 42.3422 26.4234 45.2815 26.6989 48.1582C26.835 49.7544 29.7162 49.7335 29.9067 48.1582C30.2367 45.2998 29.9883 42.3422 29.9611 39.4629C29.9339 36.6488 29.8523 33.8555 29.7706 31.0414C29.689 28.2273 29.4951 25.4366 29.3318 22.6199C29.1651 19.9936 29.4135 16.8874 28.2331 14.3862C28.097 14.0733 27.5221 14.0498 27.3827 14.3862ZM14.4734 12.1198C14.5278 11.3217 15.9259 11.3635 16.0347 12.1198C16.994 17.7063 17.2968 23.3554 17.6811 28.9628C17.8716 31.67 18.0655 34.4006 18.2832 37.1104C18.3955 38.4953 18.4737 39.8619 18.5316 41.2468C18.5588 42.53 18.7493 43.9566 18.2016 45.1954C17.7084 46.2674 15.3782 46.4969 15.0483 45.1954C14.7217 43.9175 14.9938 42.5508 14.9938 41.2468C15.0211 39.8619 14.9394 38.4953 14.9122 37.1104C14.8306 34.4006 14.7489 31.67 14.6367 28.9628C14.419 23.3763 14.1162 17.7272 14.4734 12.1198Z" fill="#F14947"/>
<path d="M0.0544265 98.7313C4.9358 100.158 11.8174 101.882 20.2024 103.16C32.894 105.072 42.7894 104.988 50.2459 104.881C58.25 104.777 69.2985 104.568 83.1671 101.858C90.4058 100.429 96.2975 98.7496 100.519 97.3855C100.22 97.1326 99.9169 96.8587 99.5869 96.6083C99.2331 96.3762 98.0527 95.7059 96.4642 95.7685C94.5729 95.8311 92.872 96.8587 92.1339 98.3923C91.8311 98.2071 90.433 97.3438 88.4873 97.4716C86.5688 97.5942 84.8951 98.627 84.157 100.095C84.0175 99.9675 82.8405 98.8356 80.8948 98.8539C79.2756 98.8748 77.7959 99.7172 77.1938 100.977C77.0271 100.849 75.3297 99.6311 72.8907 99.9467C70.3122 100.283 69.2713 102.025 69.1897 102.153C68.9142 101.963 67.4616 101.019 65.2948 101.123C62.8286 101.251 61.5122 102.656 61.3217 102.844C60.7468 101.671 59.182 100.914 57.539 101.042C55.8926 101.146 54.5217 102.111 54.2224 103.35C54.0829 103.222 52.2188 101.605 49.3955 101.838C47.1776 102.025 45.9156 103.246 45.6979 103.457C45.5856 103.329 44.1875 101.754 41.6397 101.754C39.4456 101.754 38.102 102.909 37.9115 103.076C37.4726 101.754 35.9929 100.786 34.2377 100.682C32.5402 100.578 30.9211 101.251 30.1523 102.406C30.0162 102.216 28.8665 100.766 26.4819 100.494C23.9034 100.202 22.1482 101.501 21.9849 101.647C21.8488 101.438 20.944 100.072 18.8316 99.6311C16.3109 99.1069 14.338 100.387 14.2019 100.494C14.0897 100.283 13.212 98.8539 11.0486 98.3714C8.63681 97.8263 6.71487 98.9191 6.52438 99.0234C6.27606 97.9958 5.31679 97.1326 4.00375 96.7961C2.60567 96.4388 1.04091 96.7361 0 97.5525C0.0272133 97.9515 0.0544265 98.3505 0.0544265 98.7313ZM0.108853 46.5828C1.15316 45.7848 2.71452 45.5109 4.08539 45.8891C5.37462 46.2464 6.30667 47.107 6.52438 48.1581C6.71827 48.0512 8.63681 47.0027 11.0214 47.5687C13.1576 48.0929 13.9808 49.5221 14.0897 49.7334C14.2257 49.6264 16.2021 48.3876 18.6955 48.9562C20.7807 49.4178 21.6549 50.8027 21.7672 51.0139C21.9305 50.8861 23.7129 49.5873 26.2608 49.942C28.6181 50.2576 29.7169 51.7051 29.8529 51.9163C30.6489 50.761 32.2919 50.1116 33.9655 50.2367C35.7174 50.3828 37.1427 51.3713 37.5543 52.6935C37.7482 52.5266 39.0918 51.3713 41.2825 51.413C43.8065 51.4547 45.1774 53.0717 45.259 53.176C45.4767 52.9465 46.766 51.7703 48.9873 51.6008C51.8106 51.3921 53.5897 53.03 53.7292 53.176C54.0557 51.9372 55.4266 51.0139 57.073 50.907C58.716 50.8236 60.2535 51.5825 60.8012 52.777C60.9645 52.5892 62.3354 51.2017 64.7743 51.0974C66.9412 51.0139 68.3665 52.0024 68.6114 52.1693C68.6964 52.0415 69.7646 50.2993 72.3396 50.0072C74.7548 49.7334 76.3978 50.9514 76.5611 51.0765C77.1666 49.8377 78.6735 49.0188 80.2893 49.0188C82.2078 49.0188 83.361 50.1741 83.4971 50.2993C84.2658 48.8284 85.9633 47.8425 87.858 47.7382C89.7765 47.6313 91.1474 48.5128 91.4467 48.7241C92.2155 47.2114 93.9401 46.2047 95.8043 46.1629C97.3962 46.1421 98.5188 46.8123 98.8759 47.0445C99.1787 47.2948 99.478 47.5687 99.7808 47.8217C95.5593 49.1231 89.6643 50.7427 82.4562 52.0415C68.642 54.5635 57.7023 54.6053 49.7526 54.6053C42.354 54.6053 32.5402 54.5427 20.0119 52.4406C11.7051 51.0583 4.9358 49.2274 0.139468 47.7147C0.108853 47.36 0.108853 46.961 0.108853 46.5828Z" fill="#F14947"/>
<path d="M71.7082 91.2514C71.2149 91.2514 70.8306 91.5461 70.8306 91.9242C70.8306 92.3024 71.2149 92.5971 71.7082 92.5971C72.2014 92.5971 72.5858 92.3024 72.5858 91.9242C72.5858 91.5461 72.2014 91.2514 71.7082 91.2514ZM77.3277 85.7927C76.8617 85.7927 76.5045 86.0639 76.5045 86.4212C76.5045 86.7785 76.8617 87.0524 77.3277 87.0524C77.7937 87.0524 78.1509 86.7785 78.1509 86.4212C78.1509 86.0848 77.7937 85.7927 77.3277 85.7927ZM62.7448 89.4048C62.1699 89.4048 61.6767 89.7622 61.6767 90.2264C61.6767 90.6854 62.1427 91.0427 62.7448 91.0427C63.3469 91.0427 63.8129 90.6854 63.8129 90.2264C63.8129 89.7622 63.3197 89.4048 62.7448 89.4048ZM23.272 92.2216C22.5066 92.2216 21.8739 92.7015 21.8739 93.2883C21.8739 93.8777 22.5066 94.3602 23.272 94.3602C24.0408 94.3602 24.6701 93.8777 24.6701 93.2883C24.6701 92.7015 24.0408 92.2216 23.272 92.2216ZM86.2367 90.2264C85.7978 90.2264 85.4679 90.495 85.4679 90.8106C85.4679 91.147 85.8251 91.4 86.2367 91.4C86.6755 91.4 87.0054 91.1262 87.0054 90.8106C87.0054 90.495 86.6483 90.2264 86.2367 90.2264ZM50.2709 97.5107C49.6144 97.5107 49.094 97.9098 49.094 98.4158C49.094 98.9191 49.6144 99.3181 50.2709 99.3181C50.9309 99.3181 51.4513 98.9191 51.4513 98.4158C51.4513 97.9098 50.9309 97.5107 50.2709 97.5107ZM38.2393 89.7204C37.1405 89.7204 36.2663 90.3907 36.2663 91.2305C36.2663 92.0703 37.1405 92.7458 38.2393 92.7458C39.3346 92.7458 40.2122 92.0703 40.2122 91.2305C40.2122 90.3907 39.3346 89.7204 38.2393 89.7204ZM24.6701 85.0155C23.9829 85.0155 23.4353 85.4354 23.4353 85.9596C23.4353 86.4838 23.9829 86.9063 24.6701 86.9063C25.3538 86.9063 25.9015 86.4838 25.9015 85.9596C25.9321 85.4354 25.3538 85.0155 24.6701 85.0155ZM14.3358 89.1936C13.5943 89.1936 12.9922 89.6552 12.9922 90.2264C12.9922 90.7897 13.5943 91.2514 14.3358 91.2514C15.074 91.2514 15.6795 90.7897 15.6795 90.2264C15.6795 89.6552 15.074 89.1936 14.3358 89.1936ZM72.8035 63.298C72.3103 63.298 71.9293 63.5927 71.9293 63.9735C71.9293 64.3491 72.3103 64.6438 72.8035 64.6438C73.3002 64.6438 73.6811 64.3491 73.6811 63.9735C73.6811 63.5927 73.2695 63.298 72.8035 63.298ZM78.3958 55.8441C77.9298 55.8441 77.576 56.1154 77.576 56.4727C77.576 56.8326 77.9298 57.1038 78.3958 57.1038C78.8619 57.1038 79.219 56.8326 79.219 56.4727C79.219 56.1154 78.8619 55.8441 78.3958 55.8441ZM65.0477 57.7115C64.4729 57.7115 63.9796 58.0688 63.9796 58.533C63.9796 58.9947 64.4456 59.352 65.0477 59.352C65.6498 59.352 66.1159 58.9947 66.1159 58.533C66.1159 58.0688 65.6226 57.7115 65.0477 57.7115ZM24.3401 64.2656C23.5713 64.2656 22.942 64.7481 22.942 65.3375C22.942 65.9243 23.5713 66.4068 24.3401 66.4068C25.1089 66.4068 25.7382 65.9243 25.7382 65.3375C25.7654 64.7481 25.1361 64.2656 24.3401 64.2656ZM87.3048 62.2704C86.866 62.2704 86.5394 62.5443 86.5394 62.8572C86.5394 63.1937 86.8966 63.4493 87.3048 63.4493C87.7436 63.4493 88.0735 63.1728 88.0735 62.8572C88.0735 62.5443 87.7164 62.2704 87.3048 62.2704ZM51.4513 65.2514C50.7948 65.2514 50.2709 65.6531 50.2709 66.1565C50.2709 66.6598 50.7948 67.0588 51.4513 67.0588C52.1078 67.0588 52.6283 66.6598 52.6283 66.1565C52.6283 65.6531 52.1078 65.2514 51.4513 65.2514ZM43.42 58.9529C42.3247 58.9529 41.447 59.6232 41.447 60.463C41.447 61.3028 42.3247 61.9783 43.42 61.9783C44.5153 61.9783 45.393 61.3028 45.393 60.463C45.393 59.6232 44.5153 58.9529 43.42 58.9529ZM25.7654 57.0621C25.0817 57.0621 24.534 57.482 24.534 58.0062C24.534 58.533 25.0817 58.9529 25.7654 58.9529C26.4525 58.9529 27.0002 58.533 27.0002 58.0062C27.0002 57.482 26.4525 57.0621 25.7654 57.0621ZM16.7476 62.2704C16.7476 62.8364 16.1455 63.298 15.404 63.298C14.6658 63.298 14.0603 62.8364 14.0603 62.2704C14.0603 61.7019 14.6658 61.2428 15.404 61.2428C16.1727 61.2428 16.7476 61.7019 16.7476 62.2704Z" fill="#F14947"/>
<path d="M85.8266 94.3811C85.1701 94.3811 84.6496 94.7802 84.6496 95.2835C84.6496 95.7921 85.1701 96.1885 85.8266 96.1885C86.4865 96.1885 87.007 95.7921 87.007 95.2835C87.007 94.7802 86.4865 94.3811 85.8266 94.3811ZM56.688 93.6039C56.2492 93.6039 55.8648 93.8778 55.8648 94.2351C55.8648 94.5715 56.222 94.8636 56.688 94.8636C57.1268 94.8636 57.5112 94.5924 57.5112 94.2351C57.5112 93.8778 57.1268 93.6039 56.688 93.6039ZM33.4717 84.9112C32.9206 84.9112 32.4818 85.245 32.4818 85.6649C32.4818 86.0848 32.9206 86.4213 33.4717 86.4213C34.0194 86.4213 34.4582 86.0848 34.4582 85.6649C34.4582 85.245 34.0194 84.9112 33.4717 84.9112ZM4.30251 79.935C3.53714 79.935 2.93164 80.394 2.93164 80.986C2.93164 81.5702 3.53714 82.0345 4.30251 82.0345C5.07128 82.0345 5.67338 81.5702 5.67338 80.986C5.67338 80.394 5.04407 79.935 4.30251 79.935ZM4.30251 91.4001C3.53714 91.4001 2.93164 91.8617 2.93164 92.4485C2.93164 93.038 3.53714 93.4996 4.30251 93.4996C5.07128 93.4996 5.67338 93.038 5.67338 92.4485C5.64956 91.8826 5.04407 91.4001 4.30251 91.4001ZM89.6092 85.3728C88.5139 85.3728 87.6091 86.064 87.6091 86.9064C87.6091 87.7462 88.5139 88.4399 89.6092 88.4399C90.708 88.4399 91.6094 87.7462 91.6094 86.9064C91.6094 86.064 90.708 85.3728 89.6092 85.3728ZM86.8947 66.4277C86.2382 66.4277 85.7178 66.8268 85.7178 67.3328C85.7178 67.8361 86.2382 68.2351 86.8947 68.2351C87.5546 68.2351 88.0751 67.8361 88.0751 67.3328C88.0751 66.8268 87.5546 66.4277 86.8947 66.4277ZM57.7561 65.6531C57.3173 65.6531 56.9363 65.9244 56.9363 66.2843C56.9363 66.639 57.2901 66.9129 57.7561 66.9129C58.195 66.9129 58.5793 66.639 58.5793 66.2843C58.5793 65.9244 58.195 65.6531 57.7561 65.6531ZM34.5398 56.9578C33.9922 56.9578 33.5534 57.2917 33.5534 57.7116C33.5534 58.1341 33.9922 58.4679 34.5398 58.4679C35.0875 58.4679 35.5263 58.1341 35.5263 57.7116C35.5263 57.2917 35.0875 56.9578 34.5398 56.9578ZM5.37403 51.979C4.60526 51.979 4.00316 52.4406 4.00316 53.0301C4.00316 53.6169 4.60526 54.0785 5.37403 54.0785C6.1394 54.0785 6.7449 53.6169 6.7449 53.0301C6.7449 52.4406 6.11219 51.979 5.37403 51.979ZM5.37403 63.4493C4.60526 63.4493 4.00316 63.9083 4.00316 64.4978C4.00316 65.0846 4.60526 65.5488 5.37403 65.5488C6.1394 65.5488 6.7449 65.0846 6.7449 64.4978C6.7449 63.9083 6.11219 63.4493 5.37403 63.4493ZM92.0482 55.4451C92.0482 56.2849 91.1434 56.9787 90.0481 56.9787C88.9527 56.9787 88.0479 56.2849 88.0479 55.4451C88.0479 54.6053 88.9527 53.9116 90.0481 53.9116C91.1434 53.9116 92.0482 54.5845 92.0482 55.4451Z" fill="#456EB8"/>
<path d="M94.7081 92.5762C94.0516 92.5762 93.5311 92.9753 93.5311 93.4812C93.5311 93.982 94.0516 94.381 94.7081 94.381C95.3646 94.381 95.8885 93.982 95.8885 93.4812C95.8885 92.9961 95.3646 92.5762 94.7081 92.5762ZM18.6675 86.9063C18.2831 86.9063 17.9837 87.1358 17.9837 87.4305C17.9837 87.7252 18.2831 87.9547 18.6675 87.9547C19.0518 87.9547 19.3512 87.7252 19.3512 87.4305C19.3512 87.1358 19.0518 86.9063 18.6675 86.9063ZM15.8985 81.0042C15.3781 81.0042 14.9392 81.3407 14.9392 81.7397C14.9392 82.1387 15.3781 82.4726 15.8985 82.4726C16.419 82.4726 16.8578 82.1387 16.8578 81.7397C16.8578 81.3407 16.419 81.0042 15.8985 81.0042ZM79.2203 91.1053C78.4244 91.1053 77.7678 91.6086 77.7678 92.2215C77.7678 92.8266 78.4244 93.3326 79.2203 93.3326C80.0163 93.3326 80.6729 92.8266 80.6729 92.2215C80.6729 91.6086 80.0435 91.1053 79.2203 91.1053ZM71.7095 95.8963C70.8046 95.8963 70.0631 96.4597 70.0631 97.156C70.0631 97.8472 70.8046 98.4157 71.7095 98.4157C72.6143 98.4157 73.3525 97.8472 73.3525 97.156C73.3525 96.4597 72.6143 95.8963 71.7095 95.8963ZM51.4526 89.5952C50.2722 89.5952 49.2858 90.3307 49.2858 91.2513C49.2858 92.1772 50.245 92.9127 51.4526 92.9127C52.6296 92.9127 53.6161 92.1772 53.6161 91.2513C53.6161 90.3307 52.6568 89.5952 51.4526 89.5952ZM95.7762 64.6229C95.1197 64.6229 94.5992 65.0245 94.5992 65.5253C94.5992 66.0286 95.1197 66.4277 95.7762 66.4277C96.4361 66.4277 96.9566 66.0286 96.9566 65.5253C96.9566 65.0428 96.4361 64.6229 95.7762 64.6229ZM19.7356 58.9529C19.3512 58.9529 19.0518 59.1824 19.0518 59.4771C19.0518 59.7719 19.3512 60.0014 19.7356 60.0014C20.12 60.0014 20.4227 59.7719 20.4227 59.4771C20.4227 59.1824 20.12 58.9529 19.7356 58.9529ZM16.9666 53.0535C16.4462 53.0535 16.0074 53.3873 16.0074 53.7863C16.0074 54.1854 16.4462 54.5218 16.9666 54.5218C17.4871 54.5218 17.9259 54.1854 17.9259 53.7863C17.9259 53.3873 17.4871 53.0535 16.9666 53.0535ZM81.7138 58.0062C80.9178 58.0062 80.2613 58.5122 80.2613 59.1198C80.2613 59.7301 80.9178 60.2335 81.7138 60.2335C82.5098 60.2335 83.1663 59.7301 83.1663 59.1198C83.1663 58.5122 82.5098 58.0062 81.7138 58.0062ZM77.5739 64.2656C76.6691 64.2656 75.9309 64.8315 75.9309 65.5253C75.9309 66.219 76.6691 66.785 77.5739 66.785C78.4788 66.785 79.2203 66.219 79.2203 65.5253C79.2203 64.8315 78.506 64.2656 77.5739 64.2656ZM56.9327 58.0062C55.7557 58.0062 54.7692 58.7417 54.7692 59.6675C54.7692 60.5699 55.7285 61.3263 56.9327 61.3263C58.1131 61.3263 59.0995 60.5908 59.0995 59.6675C59.0995 58.7417 58.1403 58.0062 56.9327 58.0062ZM81.1389 13.0221C80.6456 15.7293 80.7545 18.4808 80.5368 21.2115C80.3429 23.9838 80.2068 26.7562 80.1252 29.5286C79.9313 35.1568 79.6864 40.8059 79.302 46.4368C79.1931 48.072 82.5097 48.072 82.6186 46.4368C82.9758 40.8059 83.2479 35.1777 83.3602 29.5286C83.4146 26.7562 83.3602 23.9838 83.1935 21.2115C83.0302 18.4808 83.0846 15.7084 82.5097 13.0221C82.4009 12.5187 81.2477 12.4953 81.1389 13.0221ZM70.3114 14.5139C69.791 17.0333 69.791 19.6153 69.5971 22.1556C69.4066 24.9488 69.1855 27.7212 68.995 30.5145C68.6106 35.9966 68.2806 41.4788 67.8146 46.961C67.6785 48.6615 71.1346 48.6406 71.2435 46.961C71.6551 41.4997 71.9816 35.9966 72.0088 30.5145C72.0088 27.8255 71.9544 25.1183 71.8456 22.4294C71.7367 19.8057 71.7639 17.1168 71.2162 14.5139C71.1618 14.154 70.393 14.154 70.3114 14.5139ZM59.0179 13.9871C58.7152 15.1842 58.8784 16.3813 58.8784 17.5993C58.9057 18.9424 58.7968 20.3091 58.7152 21.6548C58.5519 24.1742 58.4396 26.6936 58.2219 29.2156C57.7831 34.4005 56.9055 39.6714 56.9055 44.8615C56.9055 46.2438 59.9227 46.6663 60.1949 45.1953C61.0997 40.0496 60.9636 34.6509 60.797 29.466C60.7153 26.8605 60.6881 24.2342 60.5248 21.6314C60.4432 20.3717 60.3309 19.1119 60.3037 17.8522C60.2765 16.5508 60.416 15.2468 60.0316 13.9662C59.8683 13.6298 59.1268 13.6089 59.0179 13.9871ZM42.8158 13.841C42.8158 15.1842 43.2002 16.5065 43.3907 17.8314C43.5846 19.1745 43.6118 20.4968 43.6662 21.84C43.7479 24.3411 44.0234 26.8397 44.2139 29.32C44.5983 34.484 44.6527 39.6923 45.0915 44.8615C45.2548 46.6663 48.7381 46.708 48.7925 44.8615C48.9558 39.6297 48.3265 34.2544 47.67 29.0435C47.34 26.545 47.0373 24.0256 46.4352 21.5505C45.8059 18.9424 45.7208 16.1726 44.816 13.6298C44.5439 12.7691 42.8158 12.9386 42.8158 13.841ZM32.2911 9.3447C31.7706 12.0754 32.0972 14.8895 32.1244 17.641C32.1516 20.4551 32.07 23.2484 32.0156 26.0651C31.9339 28.8766 31.8251 31.6698 31.6856 34.484C31.604 35.934 31.5223 37.3815 31.4407 38.8316C31.359 40.1956 31.1107 41.6066 31.4407 42.9706C31.7162 44.2303 34.1552 44.0608 34.5396 42.9706C35.0328 41.6666 34.9206 40.1956 34.975 38.8316C35.0328 37.3815 35.0873 35.934 35.1145 34.484C35.1689 31.6698 35.1689 28.8766 35.1145 26.0651C35.06 23.2484 34.8934 20.4551 34.7573 17.641C34.6212 14.8895 34.6756 12.0128 33.8252 9.3447C33.6075 8.82048 32.4272 8.75789 32.2911 9.3447ZM20.3649 9.8924C20.0383 15.8988 20.3377 21.8635 20.9704 27.8699C21.2697 30.8092 21.6541 33.7693 22.0657 36.7112C22.2562 38.1405 22.4773 39.5671 22.695 40.9937C22.9161 42.3421 22.7801 44.1443 23.821 45.2814C24.5591 46.0769 26.0388 45.9517 26.4504 45.0049C27.0287 43.7452 26.3416 42.1908 26.1239 40.8894C25.8484 39.4002 25.6 37.9292 25.3551 36.4374C24.8619 33.4146 24.3958 30.371 23.957 27.343C23.1338 21.4853 22.3106 15.625 21.2425 9.80894C21.1881 9.38904 20.3921 9.51423 20.3649 9.8924ZM6.82289 14.7434C6.90793 14.0497 8.36044 13.7784 8.52372 14.5739C9.04417 17.1376 9.18024 19.7196 9.53741 22.3042C9.89458 24.8236 10.2518 27.3248 10.5511 29.8442C11.1838 35.0499 12.2519 40.1956 13.0207 45.404C11.8948 45.0467 10.745 44.692 9.62245 44.3373C9.81294 44.2303 9.97622 44.126 10.1701 43.9982C11.4832 43.221 13.5412 43.8939 13.1023 45.2996C13.0479 45.4692 12.9901 45.6361 12.9357 45.8056C12.5003 47.1905 9.40134 47.3157 9.0986 45.8056C8.0849 40.7225 7.64609 35.5141 7.12564 30.3893C6.88072 27.8699 6.76846 25.3687 6.71404 22.8493C6.71404 20.1395 6.52354 17.4115 6.82289 14.7434Z" fill="#3BA27A"/>
<path d="M100.024 68.3838C95.3092 69.4114 90.4584 70.0817 85.5805 70.5459C70.2288 72.0143 54.605 72.1629 39.1989 71.2788C31.688 70.8589 24.1772 70.1677 16.7479 69.2001C11.1828 68.4881 5.53607 67.7083 0.0253906 66.6599V65.6297C6.44091 66.7433 12.853 67.8778 19.408 68.6759C34.4842 70.5016 49.8052 71.2579 65.0753 70.9449C76.6987 70.6946 88.7032 70.1469 99.9967 67.7735C99.9967 67.9822 100.024 68.1726 100.024 68.3838ZM100.163 77.4756C93.3634 78.5266 86.4547 79.2804 79.5493 79.8072C64.3609 80.9626 48.9854 80.9417 33.797 79.7446C26.3678 79.176 18.9964 78.3154 11.6761 77.1809C7.81178 76.594 3.88967 75.9629 0.0253906 75.2092V74.179C4.74009 75.1231 9.45478 76.0046 14.2545 76.7192C42.6788 80.8791 71.7085 80.7096 100.163 76.9513V77.4756ZM100.051 71.1953C87.6895 74.265 74.3686 74.9144 61.4831 75.2092C46.2165 75.543 30.892 74.7658 15.8159 72.9401C10.4991 72.2881 5.26054 71.43 0.0526039 70.525V71.5735C4.41353 72.309 8.82548 72.9193 13.1864 73.4643C20.6122 74.4085 28.1231 75.1231 35.6339 75.543C51.04 76.4037 66.6638 76.2785 82.0155 74.8075C88.1555 74.2207 94.2683 73.3392 100.109 71.7639C100.082 71.5735 100.082 71.3857 100.051 71.1953ZM2.19225 85.6649C1.75343 85.6649 1.39626 85.9388 1.39626 86.2752C1.39626 86.6117 1.75343 86.8829 2.19225 86.8829C2.63106 86.8829 2.98483 86.6117 2.98483 86.2752C2.98483 85.9388 2.63106 85.6649 2.19225 85.6649ZM17.8161 93.4996C17.2684 93.4996 16.8296 93.836 16.8296 94.2559C16.8296 94.6758 17.2684 95.0123 17.8161 95.0123C18.3637 95.0123 18.8025 94.6758 18.8025 94.2559C18.8025 93.836 18.3637 93.4996 17.8161 93.4996ZM28.3714 89.1937C27.7931 89.1937 27.3271 89.551 27.3271 89.9917C27.3271 90.4351 27.7931 90.7898 28.3714 90.7898C28.9463 90.7898 29.4123 90.4351 29.4123 89.9917C29.4123 89.551 28.9463 89.1937 28.3714 89.1937ZM46.9546 88.1452C46.6009 88.1452 46.3253 88.3539 46.3253 88.6277C46.3253 88.9016 46.6009 89.1102 46.9546 89.1102C47.3118 89.1102 47.5874 88.9016 47.5874 88.6277C47.5874 88.3539 47.3118 88.1452 46.9546 88.1452ZM43.4203 95.0331C42.5971 95.0331 41.9134 95.5365 41.9134 96.1885C41.9134 96.8171 42.5699 97.3439 43.4203 97.3439C44.2435 97.3439 44.9273 96.8405 44.9273 96.1885C44.9273 95.5365 44.2435 95.0331 43.4203 95.0331ZM7.34576 87.0759C6.93415 87.0759 6.60419 87.3263 6.60419 87.6392C6.60419 87.9548 6.93415 88.2078 7.34576 88.2078C7.75736 88.2078 8.08391 87.9548 8.08391 87.6392C8.08391 87.3263 7.75736 87.0759 7.34576 87.0759ZM95.7752 82.011C95.0098 82.011 94.3771 82.4935 94.3771 83.0855C94.3771 83.6698 95.0098 84.1549 95.7752 84.1549C96.544 84.1549 97.1733 83.6698 97.1733 83.0855C97.1733 82.4935 96.5712 82.011 95.7752 82.011ZM94.4044 87.2845C93.9111 87.2845 93.5301 87.5767 93.5301 87.9548C93.5301 88.3356 93.9111 88.6277 94.4044 88.6277C94.8976 88.6277 95.282 88.3356 95.282 87.9548C95.282 87.5767 94.8976 87.2845 94.4044 87.2845ZM69.5723 87.2845C68.6096 87.2845 67.817 87.8922 67.817 88.6277C67.817 89.3632 68.6096 89.9709 69.5723 89.9709C70.5315 89.9709 71.3241 89.3632 71.3241 88.6277C71.2969 87.8922 70.5315 87.2845 69.5723 87.2845ZM63.9527 96.212C63.2656 96.212 62.7179 96.6319 62.7179 97.1561C62.7179 97.6803 63.2656 98.1002 63.9527 98.1002C64.6365 98.1002 65.1841 97.6803 65.1841 97.1561C65.1841 96.6319 64.6365 96.212 63.9527 96.212ZM34.2359 95.2001C33.5249 95.2001 32.9466 95.6408 32.9466 96.1885C32.9466 96.7362 33.5249 97.1744 34.2359 97.1744C34.9502 97.1744 35.5251 96.7362 35.5251 96.1885C35.5251 95.6408 34.9502 95.2001 34.2359 95.2001ZM7.2369 82.5796C6.35927 82.5796 5.64493 83.1247 5.64493 83.7976C5.64493 84.4678 6.35927 85.0155 7.2369 85.0155C8.11453 85.0155 8.82548 84.4678 8.82548 83.7976C8.82548 83.1247 8.11453 82.5796 7.2369 82.5796ZM3.26037 57.7116C2.82155 57.7116 2.46778 57.988 2.46778 58.3219C2.46778 58.6583 2.82155 58.9321 3.26037 58.9321C3.69918 58.9321 4.05635 58.6583 4.05635 58.3219C4.05635 57.988 3.69918 57.7116 3.26037 57.7116ZM18.8842 65.5488C18.3365 65.5488 17.8977 65.8827 17.8977 66.3026C17.8977 66.7225 18.3365 67.0589 18.8842 67.0589C19.4352 67.0589 19.8741 66.7225 19.8741 66.3026C19.8741 65.8827 19.4352 65.5488 18.8842 65.5488ZM29.4395 61.2429C28.8646 61.2429 28.3986 61.5976 28.3986 62.0384C28.3986 62.4791 28.8646 62.8364 29.4395 62.8364C30.0144 62.8364 30.4804 62.4791 30.4804 62.0384C30.4804 61.5976 30.0144 61.2429 29.4395 61.2429ZM49.9447 57.7116C49.5875 57.7116 49.312 57.9228 49.312 58.1993C49.312 58.4679 49.5875 58.6792 49.9447 58.6792C50.2985 58.6792 50.574 58.4679 50.574 58.1993C50.574 57.9437 50.2985 57.7116 49.9447 57.7116ZM42.0222 64.4978C41.199 64.4978 40.5153 65.0011 40.5153 65.6532C40.5153 66.3026 41.1718 66.8085 42.0222 66.8085C42.8454 66.8085 43.5292 66.3026 43.5292 65.6532C43.5292 65.0011 42.8454 64.4978 42.0222 64.4978ZM8.41388 59.1199C8.00228 59.1199 7.67572 59.3729 7.67572 59.6859C7.67572 60.0015 8.00228 60.2544 8.41388 60.2544C8.82548 60.2544 9.15544 60.0015 9.15544 59.6859C9.15544 59.3729 8.82548 59.1199 8.41388 59.1199ZM96.9012 50.8862C96.1324 50.8862 95.5031 51.3713 95.5031 51.9582C95.5031 52.5476 96.1324 53.0301 96.9012 53.0301C97.6665 53.0301 98.2992 52.5476 98.2992 51.9582C98.2992 51.3713 97.6665 50.8862 96.9012 50.8862ZM95.5031 59.352C95.0098 59.352 94.6255 59.6442 94.6255 60.0223C94.6255 60.4031 95.0098 60.6952 95.5031 60.6952C95.9963 60.6952 96.3807 60.4031 96.3807 60.0223C96.3535 59.6442 95.9691 59.352 95.5031 59.352ZM71.9296 58.0063C70.9669 58.0063 70.1744 58.6192 70.1744 59.352C70.1744 60.0875 70.9669 60.6952 71.9296 60.6952C72.8889 60.6952 73.6815 60.0875 73.6815 59.352C73.6543 58.5957 72.8889 58.0063 71.9296 58.0063ZM65.6502 64.2657C64.9664 64.2657 64.4187 64.6856 64.4187 65.2098C64.4187 65.7366 64.9664 66.1565 65.6502 66.1565C66.3373 66.1565 66.8849 65.7366 66.8849 65.2098C66.8849 64.6856 66.3373 64.2657 65.6502 64.2657ZM34.2359 63.2981C33.5249 63.2981 32.9466 63.7414 32.9466 64.2891C32.9466 64.8316 33.5249 65.2724 34.2359 65.2724C34.9502 65.2724 35.5251 64.8316 35.5251 64.2891C35.5251 63.7414 34.9502 63.2981 34.2359 63.2981ZM9.8936 55.8442C9.8936 56.5171 9.18265 57.0622 8.30502 57.0622C7.4274 57.0622 6.71645 56.5171 6.71645 55.8442C6.71645 55.1713 7.4274 54.6288 8.30502 54.6288C9.18265 54.6288 9.8936 55.1713 9.8936 55.8442Z" fill="#FAE0C9"/>
<path d="M92.1575 5.7143C92.7596 3.487 90.4839 1.82826 90.3206 1.72394C90.1812 2.14384 89.9635 2.79586 89.5791 3.54959C88.7559 5.1666 87.9905 5.69343 88.181 6.44717C88.2898 6.86967 88.7287 7.45649 90.3206 8.02244C90.7594 7.7512 91.8276 6.99486 92.1575 5.7143ZM83.2486 9.43081C83.6602 7.87639 82.0682 6.70015 81.9594 6.63756C81.8777 6.93227 81.711 7.3939 81.4389 7.91812C80.864 9.05263 80.313 9.40994 80.4524 9.93416C80.5341 10.2289 80.8368 10.6488 81.9594 11.0269C82.2621 10.86 83.0003 10.3123 83.2486 9.43081ZM75.5983 3.99036C76.2038 1.76567 73.9281 0.106931 73.7614 0C73.6253 0.4199 73.4076 1.07192 73.0232 1.82826C72.2 3.44527 71.4312 3.96949 71.6251 4.72583C71.734 5.14574 72.1728 5.73516 73.7614 6.30111C74.2002 6.02726 75.2717 5.25267 75.5983 3.99036ZM71.734 9.97589C72.2272 8.1711 70.3903 6.84881 70.2543 6.76274C70.1454 7.09918 69.9787 7.62602 69.6522 8.2337C68.9922 9.53513 68.3629 9.95503 68.5262 10.5653C68.6079 10.9018 68.965 11.3843 70.2543 11.825C70.6114 11.5929 71.4619 10.9852 71.734 9.97589ZM63.3999 6.74188C64.7708 6.17593 65.128 5.5865 65.2368 5.1666C65.4035 4.41026 64.7436 3.88603 64.0326 2.26903C63.7027 1.51268 63.5122 0.863274 63.3999 0.443373C63.2639 0.547696 61.3453 2.20643 61.8386 4.43373C62.1413 5.7143 63.0462 6.48889 63.3999 6.74188ZM60.5493 10.3958C60.9882 8.71619 59.2907 7.47736 59.1785 7.3939C59.0968 7.70947 58.9063 8.19197 58.6308 8.75792C58.0015 9.97589 57.4266 10.3541 57.5899 10.9226C57.6715 11.2382 58.0015 11.679 59.2057 12.0989C59.4812 11.9293 60.3044 11.3425 60.5493 10.3958ZM53.0929 5.7143C53.6984 3.487 51.4227 1.82826 51.256 1.72394C51.1199 2.14384 50.9022 2.79586 50.5179 3.54959C49.6947 5.1666 48.9293 5.69343 49.1198 6.44717C49.2286 6.86967 49.6674 7.45649 51.256 8.02244C51.6948 7.7512 52.7663 6.99486 53.0929 5.7143ZM45.2283 9.28475C45.6399 7.70947 44.0479 6.51237 43.939 6.44717C43.8574 6.74188 43.6907 7.20612 43.4186 7.7512C42.8437 8.90658 42.2926 9.26389 42.4321 9.80898C42.5138 10.1246 42.8131 10.5236 43.939 10.9226C44.2418 10.7114 44.98 10.1663 45.2283 9.28475ZM40.4285 6.06899C40.8674 4.43373 39.1971 3.21576 39.0883 3.15056C39.0032 3.46613 38.84 3.92776 38.5372 4.49632C37.9351 5.67257 37.3602 6.06899 37.4963 6.61669C37.5779 6.93227 37.9079 7.35217 39.0577 7.77207C39.3876 7.56081 40.1836 6.99486 40.4285 6.06899ZM34.9213 4.80929C35.5233 2.5846 33.2476 0.925868 33.0844 0.818936C32.9449 1.23884 32.7272 1.89086 32.3428 2.6472C31.5196 4.26421 30.7542 4.79104 30.9447 5.54477C31.0536 5.96467 31.4924 6.5541 33.0844 7.12005C33.496 6.82794 34.5641 6.06899 34.9213 4.80929ZM28.7234 10.2706C29.0534 9.0109 27.7914 8.08765 27.7097 8.02244C27.6281 8.25456 27.5193 8.63273 27.3015 9.05263C26.8321 9.95503 26.3967 10.2497 26.5056 10.6696C26.56 10.9226 26.8049 11.2382 27.7097 11.5512C27.9309 11.4051 28.5329 10.9644 28.7234 10.2706ZM22.2297 6.23852C22.6957 4.51719 20.9405 3.21576 20.801 3.15056C20.6921 3.487 20.5289 3.96949 20.2261 4.55892C19.5968 5.81862 18.9947 6.21765 19.1308 6.80447C19.2124 7.14091 19.5424 7.58168 20.7772 8.02244C21.1309 7.8138 21.9814 7.22437 22.2297 6.23852ZM14.4977 8.96918C15.8686 8.40062 16.253 7.8138 16.3346 7.3939C16.4979 6.63755 15.8414 6.11333 15.127 4.49632C14.8005 3.73998 14.6066 3.08796 14.4977 2.66806C14.3616 2.77239 12.4159 4.43373 12.9364 6.65842C13.2391 7.93899 14.1678 8.71619 14.4977 8.96918ZM8.52441 9.82984C9.1265 7.60254 6.85079 5.94381 6.68411 5.83948C6.54804 6.25938 6.33034 6.9114 5.94595 7.66775C5.12275 9.28475 4.35397 9.80898 4.54787 10.5653C4.65672 10.9852 5.09554 11.572 6.68411 12.1406C7.09571 11.8667 8.19444 11.0895 8.52441 9.82984Z" fill="#F9B53F"/>
</svg>
