<svg width="350" height="350" viewBox="0 0 350 350" fill="none" xmlns="http://www.w3.org/2000/svg">
<g opacity="0.6">
<path d="M89.7551 282.709C139.28 309.141 219.577 309.141 269.102 282.709C318.627 256.277 318.634 213.409 269.102 186.977C219.57 160.545 139.28 160.538 89.7551 186.977C40.2301 213.416 40.2301 256.27 89.7551 282.709Z" fill="#EBEBEB"/>
<path d="M283.667 217.126L276.443 212.926C276.443 212.926 274.672 197.449 275.848 185.465C277.507 168.616 288.385 148.365 301.356 153.111C314.327 157.857 295.399 175.056 291.199 189.336C286.999 203.616 283.667 217.126 283.667 217.126Z" fill="#407BFF"/>
<path opacity="0.1" d="M283.667 217.126L276.443 212.926C276.443 212.926 274.672 197.449 275.848 185.465C277.507 168.616 288.385 148.365 301.356 153.111C314.327 157.857 295.399 175.056 291.199 189.336C286.999 203.616 283.667 217.126 283.667 217.126Z" fill="black"/>
<path d="M279.91 215.229C279.842 215.23 279.777 215.206 279.725 215.162C279.674 215.119 279.64 215.058 279.63 214.991C277.173 196.091 283.9 167.524 297.48 156.688C297.508 156.665 297.54 156.649 297.574 156.638C297.609 156.628 297.645 156.625 297.681 156.629C297.717 156.633 297.751 156.644 297.783 156.661C297.814 156.679 297.842 156.702 297.865 156.73C297.911 156.788 297.932 156.861 297.924 156.935C297.916 157.008 297.88 157.075 297.823 157.122C284.39 167.846 277.747 196.189 280.183 214.914C280.193 214.987 280.173 215.062 280.129 215.121C280.084 215.18 280.018 215.219 279.945 215.229H279.91Z" fill="white"/>
<path d="M287.525 220.115L282.387 217.14C282.387 217.14 281.512 206.521 286.72 193.62C291.249 182.42 302.498 173.068 308.154 175.028C313.81 176.988 313.67 180.999 310.912 185.206C308.154 189.413 291.375 199.444 287.525 220.115Z" fill="#407BFF"/>
<path d="M284.34 220.388C284.303 220.386 284.268 220.377 284.235 220.361C284.202 220.345 284.172 220.323 284.148 220.296C284.124 220.268 284.106 220.236 284.094 220.202C284.083 220.167 284.078 220.13 284.081 220.094C285.775 193.662 299.145 180.663 307.181 178.682C307.253 178.665 307.329 178.676 307.393 178.714C307.457 178.752 307.504 178.813 307.524 178.885C307.541 178.956 307.529 179.032 307.491 179.094C307.453 179.157 307.392 179.203 307.321 179.221C298.858 181.321 286.23 195.391 284.648 220.129C284.645 220.166 284.635 220.203 284.618 220.236C284.601 220.27 284.578 220.3 284.549 220.324C284.52 220.348 284.487 220.366 284.451 220.377C284.415 220.388 284.377 220.392 284.34 220.388Z" fill="white"/>
<path d="M75.5993 219.184C75.5993 219.184 76.5583 203.665 67.5423 193.025C58.5263 182.385 46.7873 182.427 42.9023 184.408C39.0173 186.389 36.4063 192.052 43.0913 196.105C49.7763 200.158 63.9933 208.271 66.3593 215.509L75.5993 219.184Z" fill="#407BFF"/>
<path opacity="0.1" d="M75.5993 219.184C75.5993 219.184 76.5583 203.665 67.5423 193.025C58.5263 182.385 46.7873 182.427 42.9023 184.408C39.0173 186.389 36.4063 192.052 43.0913 196.105C49.7763 200.158 63.9933 208.271 66.3593 215.509L75.5993 219.184Z" fill="black"/>
<path d="M71.3571 215.299C71.2704 215.298 71.1872 215.265 71.1228 215.207C71.0584 215.149 71.0173 215.07 71.0071 214.984C69.1521 197.813 51.9881 188.3 45.1491 187.222C45.1031 187.215 45.059 187.199 45.0191 187.175C44.9793 187.151 44.9446 187.12 44.917 187.082C44.8893 187.045 44.8693 187.003 44.8581 186.957C44.8469 186.912 44.8447 186.865 44.8516 186.82C44.8585 186.774 44.8743 186.729 44.8983 186.69C44.9223 186.65 44.9538 186.615 44.9912 186.587C45.0286 186.56 45.071 186.54 45.1161 186.529C45.1612 186.517 45.2081 186.515 45.2541 186.522C52.2541 187.621 69.8031 197.351 71.7071 214.907C71.7119 214.953 71.7076 215 71.6943 215.044C71.6811 215.088 71.6592 215.129 71.6299 215.165C71.6006 215.201 71.5645 215.231 71.5237 215.252C71.4828 215.274 71.4381 215.288 71.3921 215.292L71.3571 215.299Z" fill="white"/>
<path d="M68.0188 211.358C65.7578 206.206 63.2028 203.896 55.8528 205.128C48.5028 206.36 49.5528 206.171 40.5578 203.868C36.7638 202.902 32.5008 202.748 28.8608 204.386C25.7878 205.786 23.4918 208.586 26.4668 211.568C29.8128 214.9 34.8038 216.041 38.4998 218.974C39.3382 219.567 40.0048 220.371 40.4318 221.305C41.4048 223.783 39.4588 226.576 40.0258 229.173C40.5928 231.77 43.3228 233.156 45.8848 233.324C48.4468 233.492 50.9738 232.722 53.5288 232.428C56.0838 232.134 58.9538 232.428 60.7178 234.325C62.6078 236.334 62.6568 239.547 64.4138 241.682C67.0458 244.881 73.5138 245.77 77.0138 243.782L86.1768 238.497C92.2318 230.335 82.6768 223.867 77.6718 217.532C75.2428 214.445 69.3768 214.459 68.0188 211.358Z" fill="#407BFF"/>
<path d="M80.4989 233.569C80.4392 233.57 80.3804 233.555 80.3286 233.526C80.2768 233.496 80.234 233.453 80.2049 233.401C69.7539 216.468 41.2989 207.9 31.2329 207.2C31.1412 207.193 31.0561 207.15 30.9958 207.08C30.9356 207.011 30.9051 206.921 30.9109 206.829C30.918 206.737 30.9607 206.651 31.0299 206.59C31.0991 206.528 31.1894 206.496 31.2819 206.5C41.4809 207.2 70.2089 215.894 80.7999 233.051C80.8467 233.131 80.8605 233.226 80.8383 233.317C80.8161 233.407 80.7596 233.485 80.6809 233.534C80.6236 233.559 80.5614 233.571 80.4989 233.569V233.569Z" fill="white"/>
<path d="M47.3969 225.589C47.3423 225.59 47.2884 225.578 47.2396 225.554C47.1908 225.529 47.1487 225.493 47.1169 225.449C47.0612 225.375 47.0373 225.281 47.0504 225.19C47.0635 225.098 47.1126 225.015 47.1869 224.959C47.5509 224.686 56.2309 218.316 64.6869 218.19C64.7325 218.189 64.7779 218.197 64.8203 218.214C64.8627 218.231 64.9014 218.256 64.9339 218.288C64.9665 218.32 64.9924 218.358 65.0101 218.4C65.0278 218.442 65.0369 218.487 65.0369 218.533C65.0378 218.579 65.0297 218.625 65.0129 218.668C64.9962 218.71 64.9712 218.749 64.9393 218.783C64.9075 218.816 64.8694 218.842 64.8273 218.861C64.7852 218.879 64.7398 218.889 64.6939 218.89C56.4829 219.009 47.7119 225.456 47.6209 225.519C47.5577 225.57 47.4777 225.595 47.3969 225.589V225.589Z" fill="white"/>
<path d="M79.8496 239.519C79.9244 240.537 80.2378 241.523 80.7643 242.397C81.2909 243.272 82.0159 244.01 82.8806 244.552L167.812 293.587C168.751 294.064 169.789 294.312 170.843 294.312C171.896 294.312 172.934 294.064 173.874 293.587L290.074 226.492C290.99 226.009 291.756 225.284 292.291 224.397C292.826 223.511 293.108 222.495 293.108 221.459C293.108 220.423 292.826 219.407 292.291 218.52C291.756 217.634 290.99 216.909 290.074 216.426L205.15 167.426C204.21 166.949 203.172 166.701 202.119 166.701C201.065 166.701 200.027 166.949 199.088 167.426L82.8806 234.5C82.0177 235.041 81.2938 235.777 80.7674 236.648C80.2409 237.52 79.9265 238.503 79.8496 239.519V239.519Z" fill="#37474F"/>
<path d="M114.891 216.006L82.8803 234.5C81.9644 234.983 81.1978 235.708 80.663 236.594C80.1283 237.481 79.8457 238.497 79.8457 239.533C79.8457 240.569 80.1283 241.585 80.663 242.471C81.1978 243.358 81.9644 244.083 82.8803 244.566L167.811 293.601C168.745 294.089 169.789 294.33 170.842 294.301V216.006H114.891Z" fill="#263238"/>
<path d="M77.0002 234.598C76.1566 234.023 75.4599 233.258 74.9662 232.364C74.4726 231.47 74.1958 230.473 74.1582 229.453V128.1C74.2146 127.048 74.5184 126.024 75.0451 125.112C75.5718 124.2 76.3064 123.425 77.1892 122.85L193.389 55.755C194.266 55.2048 195.277 54.904 196.312 54.885C197.347 54.8659 198.368 55.1293 199.265 55.6467C200.162 56.1642 200.9 56.9163 201.402 57.8221C201.903 58.7279 202.149 59.7533 202.111 60.788V162.148C202.054 163.2 201.749 164.223 201.223 165.135C200.696 166.047 199.962 166.822 199.08 167.398L82.8802 234.5C81.9765 234.977 80.9734 235.234 79.9519 235.251C78.9304 235.268 77.9192 235.044 77.0002 234.598V234.598Z" fill="#455A64"/>
<path d="M88.3832 132.811L75.0482 125.111C74.5171 126.019 74.2257 127.048 74.2012 128.1V229.453C74.2388 230.473 74.5155 231.47 75.0092 232.364C75.5028 233.258 76.1996 234.023 77.0432 234.598C77.9624 235.041 78.9729 235.262 79.993 235.242C81.0132 235.223 82.0145 234.964 82.9162 234.486L96.1742 226.835L88.3832 132.811Z" fill="#263238"/>
<path d="M79.8496 131.39V232.736C79.8496 234.668 81.2076 235.452 82.8806 234.486L199.081 167.398C199.963 166.822 200.697 166.047 201.223 165.135C201.75 164.223 202.054 163.2 202.112 162.148V60.795C202.112 58.863 200.754 58.079 199.081 59.045L82.8806 126.14C81.9978 126.715 81.2632 127.49 80.7365 128.402C80.2099 129.314 79.906 130.338 79.8496 131.39V131.39Z" fill="#37474F"/>
<path d="M82.8811 238L167.812 287C168.751 287.477 169.79 287.725 170.843 287.725C171.896 287.725 172.935 287.477 173.874 287L290.074 219.905C291.754 218.939 291.754 217.371 290.074 216.405L205.15 167.405C204.211 166.928 203.172 166.68 202.119 166.68C201.066 166.68 200.027 166.928 199.088 167.405L82.8811 234.5C81.2011 235.452 81.2011 237.02 82.8811 238Z" fill="#455A64"/>
<path d="M84.5114 131.761L197.456 66.5559C198.457 65.9749 199.276 66.4439 199.276 67.6059V155.337C199.241 155.968 199.058 156.582 198.742 157.129C198.426 157.676 197.985 158.141 197.456 158.487L84.5114 223.692C83.5034 224.273 82.6914 223.804 82.6914 222.642V134.911C82.725 134.28 82.9075 133.665 83.2237 133.118C83.54 132.57 83.9813 132.105 84.5114 131.761V131.761Z" fill="white"/>
<path d="M92.7365 235.361L200.599 173.061C201.069 172.823 201.588 172.699 202.115 172.699C202.642 172.699 203.161 172.823 203.63 173.061L209.153 176.246C209.336 176.308 209.495 176.426 209.608 176.583C209.72 176.74 209.781 176.928 209.781 177.121C209.781 177.314 209.72 177.502 209.608 177.659C209.495 177.816 209.336 177.934 209.153 177.996L101.269 240.289C100.8 240.527 100.281 240.651 99.754 240.651C99.2274 240.651 98.7082 240.527 98.2385 240.289L92.7365 237.111C92.5536 237.049 92.3948 236.931 92.2823 236.774C92.1699 236.617 92.1094 236.429 92.1094 236.236C92.1094 236.043 92.1699 235.855 92.2823 235.698C92.3948 235.541 92.5536 235.423 92.7365 235.361V235.361Z" fill="#263238"/>
<path d="M106.959 243.6L214.815 181.3C215.286 181.062 215.807 180.938 216.334 180.938C216.862 180.938 217.382 181.062 217.853 181.3L251.782 200.9C251.965 200.962 252.124 201.08 252.236 201.237C252.349 201.394 252.409 201.582 252.409 201.775C252.409 201.968 252.349 202.156 252.236 202.313C252.124 202.47 251.965 202.588 251.782 202.65L144.045 264.824C143.574 265.062 143.054 265.186 142.526 265.186C141.999 265.186 141.478 265.062 141.007 264.824L106.959 245.315C106.785 245.249 106.635 245.132 106.53 244.978C106.424 244.825 106.367 244.644 106.367 244.457C106.367 244.271 106.424 244.09 106.53 243.936C106.635 243.783 106.785 243.666 106.959 243.6V243.6Z" fill="#263238"/>
<path d="M203.644 209.3L207.025 207.347C207.165 207.263 207.158 207.13 207.025 207.039L203.119 204.785C203.036 204.742 202.943 204.72 202.849 204.72C202.756 204.72 202.663 204.742 202.58 204.785L199.206 206.738C199.059 206.822 199.066 206.955 199.206 207.046L203.112 209.3C203.194 209.342 203.285 209.364 203.378 209.364C203.47 209.364 203.561 209.342 203.644 209.3ZM196.98 201.6L193.606 203.553C193.459 203.63 193.466 203.77 193.606 203.861L197.512 206.115C197.595 206.158 197.688 206.18 197.781 206.18C197.875 206.18 197.968 206.158 198.051 206.115L201.432 204.162C201.572 204.078 201.565 203.938 201.432 203.854L197.519 201.6C197.436 201.557 197.343 201.535 197.249 201.535C197.156 201.535 197.063 201.557 196.98 201.6ZM186.074 207.9L180.355 211.197C180.215 211.281 180.222 211.421 180.355 211.512L184.261 213.766C184.344 213.809 184.437 213.831 184.53 213.831C184.624 213.831 184.717 213.809 184.8 213.766L190.512 210.469C190.659 210.385 190.645 210.245 190.512 210.161L186.606 207.9C186.524 207.857 186.432 207.835 186.34 207.835C186.247 207.835 186.156 207.857 186.074 207.9ZM192.045 204.449L188.671 206.402C188.524 206.486 188.531 206.626 188.671 206.71L192.577 208.964C192.66 209.007 192.753 209.029 192.846 209.029C192.94 209.029 193.033 209.007 193.116 208.964L196.497 207.011C196.637 206.927 196.63 206.794 196.497 206.703L192.584 204.4C192.501 204.357 192.408 204.335 192.314 204.335C192.221 204.335 192.128 204.357 192.045 204.4V204.449ZM178.794 212.1L175.42 214.046C175.273 214.13 175.287 214.27 175.42 214.361L179.326 216.615C179.408 216.656 179.5 216.678 179.592 216.678C179.684 216.678 179.775 216.656 179.858 216.615L183.239 214.662C183.379 214.578 183.372 214.438 183.239 214.354L179.333 212.1C179.25 212.057 179.157 212.035 179.063 212.035C178.97 212.035 178.877 212.057 178.794 212.1V212.1ZM173.894 214.949L170.52 216.902C170.373 216.979 170.387 217.119 170.52 217.21L174.426 219.464C174.509 219.507 174.602 219.529 174.695 219.529C174.789 219.529 174.882 219.507 174.965 219.464L178.346 217.511C178.486 217.427 178.479 217.287 178.346 217.203L174.398 214.9C174.315 214.857 174.222 214.835 174.128 214.835C174.035 214.835 173.942 214.857 173.859 214.9L173.894 214.949ZM189.259 224.119L192.633 222.166C192.78 222.082 192.766 221.949 192.633 221.858L188.727 219.604C188.645 219.561 188.553 219.539 188.461 219.539C188.368 219.539 188.277 219.561 188.195 219.604L184.814 221.557C184.674 221.641 184.681 221.774 184.814 221.865L188.72 224.119C188.801 224.151 188.889 224.164 188.976 224.158C189.063 224.152 189.148 224.127 189.224 224.084L189.259 224.119ZM184.317 226.968L187.698 225.015C187.838 224.938 187.831 224.798 187.698 224.707L183.792 222.453C183.709 222.41 183.616 222.388 183.522 222.388C183.429 222.388 183.336 222.41 183.253 222.453L179.879 224.406C179.732 224.49 179.746 224.63 179.879 224.714L183.785 226.968C183.865 227 183.951 227.013 184.037 227.007C184.123 227.001 184.207 226.976 184.282 226.933L184.317 226.968ZM179.382 229.817L182.763 227.871C182.903 227.787 182.896 227.647 182.763 227.556L178.857 225.302C178.773 225.261 178.681 225.239 178.587 225.239C178.494 225.239 178.402 225.261 178.318 225.302L174.944 227.255C174.797 227.339 174.811 227.479 174.944 227.563L178.843 229.817C178.924 229.849 179.012 229.862 179.099 229.856C179.186 229.85 179.271 229.825 179.347 229.782L179.382 229.817ZM174.482 232.666L177.863 230.72C178.003 230.636 177.996 230.496 177.863 230.405L173.957 228.151C173.874 228.108 173.781 228.086 173.687 228.086C173.594 228.086 173.501 228.108 173.418 228.151L170.044 230.097C169.897 230.181 169.904 230.321 170.044 230.412L173.95 232.666C174.102 232.716 174.268 232.703 174.412 232.631L174.482 232.666ZM198.779 212.198L202.16 210.245C202.3 210.168 202.293 210.028 202.16 209.937L198.254 207.683C198.17 207.642 198.078 207.62 197.984 207.62C197.891 207.62 197.799 207.642 197.715 207.683L194.341 209.636C194.194 209.72 194.201 209.86 194.341 209.944L198.247 212.198C198.322 212.224 198.402 212.234 198.481 212.228C198.561 212.222 198.638 212.2 198.709 212.163L198.779 212.198ZM194.229 221.298L201.761 216.944C201.901 216.867 201.894 216.727 201.761 216.636L192.276 211.162C192.193 211.119 192.1 211.097 192.006 211.097C191.913 211.097 191.82 211.119 191.737 211.162L187.845 213.416C187.698 213.493 187.712 213.633 187.845 213.724L192.871 216.622C193.025 216.713 193.032 216.853 192.871 216.937L189.7 218.659C189.56 218.736 189.567 218.876 189.7 218.967L193.62 221.2C193.7 221.248 193.791 221.277 193.885 221.283C193.979 221.289 194.073 221.273 194.159 221.235L194.229 221.298ZM168.994 217.798L165.62 219.751C165.473 219.835 165.48 219.968 165.62 220.059L169.526 222.313C169.609 222.356 169.702 222.378 169.795 222.378C169.889 222.378 169.982 222.356 170.065 222.313L173.446 220.36C173.586 220.276 173.579 220.143 173.446 220.052L169.54 217.798C169.45 217.736 169.346 217.699 169.237 217.693C169.128 217.687 169.02 217.711 168.924 217.763L168.994 217.798ZM164.094 220.647L160.608 222.6C160.468 222.684 160.475 222.824 160.608 222.908L164.514 225.162C164.597 225.205 164.69 225.227 164.783 225.227C164.877 225.227 164.97 225.205 165.053 225.162L168.434 223.209C168.574 223.132 168.567 222.992 168.434 222.901L164.5 220.626C164.421 220.585 164.334 220.563 164.246 220.561C164.157 220.558 164.07 220.576 163.989 220.612L164.094 220.647ZM139.3 252.567C139.383 252.61 139.476 252.632 139.569 252.632C139.663 252.632 139.756 252.61 139.839 252.567L143.22 250.614C143.36 250.537 143.353 250.397 143.22 250.306L139.3 248.066C139.217 248.023 139.124 248.001 139.03 248.001C138.937 248.001 138.844 248.023 138.761 248.066L135.387 250.019C135.24 250.103 135.247 250.243 135.387 250.327L139.3 252.567ZM124.481 243.411L121.1 245.364C120.96 245.448 120.967 245.581 121.1 245.672L125.006 247.926C125.089 247.969 125.182 247.991 125.275 247.991C125.369 247.991 125.462 247.969 125.545 247.926L128.926 245.973C129.066 245.889 129.059 245.756 128.926 245.665L125.02 243.411C124.939 243.371 124.851 243.351 124.761 243.351C124.671 243.351 124.582 243.371 124.502 243.411H124.481ZM132.426 250.096C132.509 250.139 132.602 250.161 132.695 250.161C132.789 250.161 132.882 250.139 132.965 250.096L136.339 248.143C136.486 248.066 136.472 247.926 136.339 247.835L132.44 245.581C132.357 245.538 132.264 245.516 132.17 245.516C132.077 245.516 131.984 245.538 131.901 245.581L128.52 247.534C128.38 247.618 128.387 247.758 128.52 247.842L132.426 250.096ZM148.015 254.296L151.396 252.343C151.536 252.259 151.529 252.126 151.396 252.035L147.49 249.781C147.407 249.738 147.314 249.716 147.22 249.716C147.127 249.716 147.034 249.738 146.951 249.781L143.577 251.734C143.43 251.811 143.444 251.951 143.577 252.042L147.476 254.296C147.561 254.344 147.657 254.369 147.755 254.37C147.853 254.372 147.949 254.349 148.036 254.303L148.015 254.296ZM142.541 257.096C142.624 257.139 142.717 257.161 142.81 257.161C142.904 257.161 142.997 257.139 143.08 257.096L146.461 255.143C146.601 255.066 146.594 254.926 146.461 254.835L142.555 252.581C142.472 252.538 142.379 252.516 142.285 252.516C142.192 252.516 142.099 252.538 142.016 252.581L138.642 254.534C138.495 254.618 138.502 254.758 138.642 254.842L142.541 257.096ZM129.416 240.52L126.042 242.473C125.895 242.55 125.902 242.69 126.042 242.781L129.948 245.035C130.031 245.078 130.124 245.1 130.217 245.1C130.311 245.1 130.404 245.078 130.487 245.035L133.868 243.082C134.008 242.998 134.001 242.858 133.868 242.774L129.962 240.52C129.877 240.486 129.786 240.472 129.694 240.479C129.603 240.486 129.515 240.515 129.437 240.562L129.416 240.52ZM154.098 226.275L150.717 228.221C150.577 228.305 150.584 228.445 150.717 228.529L154.623 230.79C154.707 230.831 154.799 230.853 154.892 230.853C154.986 230.853 155.078 230.831 155.162 230.79L158.536 228.844C158.683 228.76 158.676 228.62 158.536 228.529L154.63 226.275C154.547 226.243 154.458 226.23 154.37 226.237C154.281 226.245 154.195 226.272 154.119 226.317L154.098 226.275ZM134.4 237.713L131.026 239.659C130.879 239.743 130.886 239.883 131.026 239.974L134.932 242.228C135.016 242.269 135.108 242.291 135.201 242.291C135.295 242.291 135.387 242.269 135.471 242.228L138.852 240.275C138.992 240.191 138.985 240.051 138.852 239.967L134.946 237.706C134.861 237.665 134.767 237.644 134.672 237.645C134.577 237.646 134.484 237.669 134.4 237.713V237.713ZM159.082 223.461L155.673 225.4C155.533 225.484 155.54 225.624 155.673 225.708L159.579 227.962C159.662 228.005 159.755 228.027 159.848 228.027C159.942 228.027 160.035 228.005 160.118 227.962L163.492 226.016C163.639 225.932 163.632 225.792 163.492 225.701L159.6 223.475C159.516 223.43 159.423 223.406 159.329 223.403C159.234 223.401 159.14 223.421 159.054 223.461H159.082ZM149.212 229.166L145.831 231.112C145.691 231.196 145.698 231.336 145.831 231.427L149.737 233.681C149.821 233.722 149.913 233.744 150.006 233.744C150.1 233.744 150.192 233.722 150.276 233.681L153.65 231.735C153.797 231.651 153.783 231.511 153.65 231.42L149.751 229.166C149.663 229.12 149.566 229.096 149.467 229.096C149.369 229.096 149.271 229.12 149.184 229.166H149.212ZM144.27 232.015L140.896 233.961C140.749 234.045 140.763 234.185 140.896 234.276L144.802 236.53C144.886 236.571 144.978 236.593 145.071 236.593C145.165 236.593 145.257 236.571 145.341 236.53L148.715 234.584C148.855 234.5 148.848 234.36 148.715 234.269L144.809 232.015C144.721 231.969 144.624 231.945 144.525 231.945C144.427 231.945 144.329 231.969 144.242 232.015H144.27ZM139.3 234.864L135.926 236.81C135.779 236.894 135.793 237.034 135.926 237.125L139.825 239.379C139.908 239.422 140.001 239.444 140.094 239.444C140.188 239.444 140.281 239.422 140.364 239.379L143.745 237.433C143.885 237.349 143.878 237.209 143.745 237.118L139.839 234.864C139.755 234.823 139.663 234.801 139.569 234.801C139.476 234.801 139.384 234.823 139.3 234.864ZM164.535 238.364L167.909 236.418C168.056 236.334 168.049 236.194 167.909 236.103L163.996 233.8C163.912 233.759 163.82 233.737 163.726 233.737C163.633 233.737 163.541 233.759 163.457 233.8L160.076 235.746C159.936 235.83 159.943 235.97 160.076 236.061L163.982 238.315C164.067 238.364 164.162 238.391 164.26 238.393C164.358 238.395 164.455 238.373 164.542 238.329L164.535 238.364ZM207.9 195.3L204.519 197.253C204.379 197.337 204.386 197.47 204.519 197.561L208.425 199.815C208.508 199.858 208.601 199.88 208.694 199.88C208.788 199.88 208.881 199.858 208.964 199.815L212.338 197.862C212.485 197.778 212.478 197.645 212.338 197.554L208.432 195.3C208.349 195.258 208.258 195.236 208.166 195.236C208.073 195.236 207.982 195.258 207.9 195.3ZM201.922 198.751L198.548 200.704C198.401 200.781 198.415 200.921 198.548 201.012L202.447 203.266C202.531 203.307 202.623 203.329 202.716 203.329C202.81 203.329 202.902 203.307 202.986 203.266L206.367 201.313C206.507 201.229 206.5 201.089 206.367 201.005L202.461 198.751C202.38 198.701 202.287 198.672 202.192 198.666C202.097 198.66 202.002 198.677 201.915 198.716L201.922 198.751ZM212.835 192.451L209.461 194.404C209.314 194.481 209.321 194.621 209.461 194.712L213.367 196.966C213.45 197.009 213.543 197.031 213.636 197.031C213.73 197.031 213.823 197.009 213.906 196.966L217.287 195.013C217.427 194.929 217.42 194.789 217.287 194.705L213.381 192.451C213.295 192.395 213.197 192.363 213.095 192.357C212.993 192.35 212.891 192.371 212.8 192.416L212.835 192.451ZM187.285 218.799L190.666 216.846C190.806 216.762 190.799 216.622 190.666 216.538L186.76 214.284C186.677 214.241 186.584 214.219 186.49 214.219C186.397 214.219 186.304 214.241 186.221 214.284L182.847 216.237C182.7 216.314 182.707 216.454 182.847 216.545L186.753 218.799C186.837 218.834 186.928 218.85 187.019 218.844C187.111 218.837 187.199 218.81 187.278 218.764L187.285 218.799ZM218.309 189.616C218.226 189.573 218.133 189.551 218.039 189.551C217.946 189.551 217.853 189.573 217.77 189.616L214.396 191.569C214.249 191.646 214.256 191.786 214.396 191.877L218.302 194.131C218.386 194.172 218.478 194.194 218.571 194.194C218.665 194.194 218.757 194.172 218.841 194.131L222.222 192.178C222.362 192.094 222.355 191.954 222.222 191.87L218.309 189.616ZM169.477 235.48L172.858 233.534C172.998 233.45 172.991 233.31 172.858 233.219L168.931 231C168.848 230.957 168.755 230.935 168.661 230.935C168.568 230.935 168.475 230.957 168.392 231L165.018 232.946C164.871 233.03 164.878 233.17 165.018 233.261L168.924 235.515C169.012 235.553 169.108 235.57 169.205 235.564C169.301 235.558 169.394 235.529 169.477 235.48V235.48ZM230.006 200.536L233.387 198.583C233.527 198.506 233.52 198.366 233.387 198.275L229.46 196C229.377 195.957 229.284 195.935 229.19 195.935C229.097 195.935 229.004 195.957 228.921 196L225.547 197.953C225.4 198.037 225.407 198.177 225.547 198.261L229.453 200.515C229.536 200.564 229.63 200.591 229.727 200.595C229.823 200.598 229.919 200.578 230.006 200.536V200.536ZM219.506 200.165L222.887 198.212C223.027 198.128 223.02 197.995 222.887 197.904L218.981 195.65C218.898 195.607 218.805 195.585 218.711 195.585C218.618 195.585 218.525 195.607 218.442 195.65L215.068 197.603C214.921 197.687 214.928 197.82 215.068 197.911L218.974 200.165C219.052 200.21 219.139 200.237 219.229 200.243C219.319 200.249 219.409 200.234 219.492 200.2L219.506 200.165ZM223.895 192.801C223.812 192.758 223.719 192.736 223.625 192.736C223.532 192.736 223.439 192.758 223.356 192.801L219.982 194.754C219.835 194.831 219.842 194.971 219.982 195.062L223.888 197.316C223.971 197.359 224.064 197.381 224.157 197.381C224.251 197.381 224.344 197.359 224.427 197.316L227.808 195.363C227.948 195.279 227.941 195.139 227.808 195.055L223.895 192.801ZM224.938 192.199L234.416 197.673C234.499 197.716 234.592 197.738 234.685 197.738C234.779 197.738 234.872 197.716 234.955 197.673L238.336 195.72C238.476 195.636 238.469 195.503 238.336 195.412L228.851 189.938C228.768 189.895 228.675 189.873 228.581 189.873C228.488 189.873 228.395 189.895 228.312 189.938L224.938 191.891C224.756 191.968 224.77 192.108 224.924 192.199H224.938ZM213.486 198.499L210.105 200.452C209.965 200.536 209.972 200.676 210.105 200.76L214.011 203.014C214.094 203.057 214.187 203.079 214.28 203.079C214.374 203.079 214.467 203.057 214.55 203.014L217.924 201.061C218.071 200.984 218.064 200.844 217.924 200.753L214.018 198.499C213.938 198.457 213.85 198.434 213.76 198.432C213.671 198.429 213.582 198.448 213.5 198.485L213.486 198.499ZM176.337 219.947L172.942 221.9C172.802 221.984 172.809 222.124 172.942 222.208L176.848 224.462C176.931 224.505 177.024 224.527 177.117 224.527C177.211 224.527 177.304 224.505 177.387 224.462L180.761 222.509C180.908 222.432 180.901 222.292 180.761 222.201L176.855 219.947C176.774 219.903 176.683 219.879 176.591 219.876C176.498 219.874 176.406 219.893 176.323 219.933L176.337 219.947ZM224.546 203.385C224.629 203.428 224.722 203.45 224.815 203.45C224.909 203.45 225.002 203.428 225.085 203.385L228.466 201.432C228.606 201.355 228.599 201.215 228.466 201.124L224.56 198.87C224.476 198.829 224.384 198.807 224.29 198.807C224.197 198.807 224.105 198.829 224.021 198.87L220.647 200.823C220.5 200.907 220.507 201.047 220.647 201.131L224.546 203.385ZM181.272 217.098L177.898 219.051C177.751 219.135 177.758 219.268 177.898 219.359L181.804 221.613C181.887 221.656 181.98 221.678 182.073 221.678C182.167 221.678 182.26 221.656 182.343 221.613L185.724 219.66C185.864 219.576 185.857 219.443 185.724 219.352L181.818 217.098C181.733 217.049 181.637 217.022 181.54 217.02C181.442 217.018 181.345 217.04 181.258 217.084L181.272 217.098ZM144.27 249.732C144.353 249.775 144.446 249.797 144.539 249.797C144.633 249.797 144.726 249.775 144.809 249.732L148.19 247.779C148.33 247.695 148.323 247.562 148.19 247.471L144.284 245.217C144.201 245.174 144.108 245.152 144.014 245.152C143.921 245.152 143.828 245.174 143.745 245.217L140.371 247.17C140.224 247.254 140.238 247.387 140.371 247.478L144.27 249.732ZM136.85 242.732L133.469 244.685C133.329 244.769 133.336 244.902 133.469 244.993L137.375 247.247C137.458 247.29 137.551 247.312 137.644 247.312C137.738 247.312 137.831 247.29 137.914 247.247L141.288 245.294C141.435 245.21 141.428 245.077 141.288 244.986L137.382 242.732C137.298 242.688 137.204 242.665 137.109 242.665C137.014 242.665 136.92 242.688 136.836 242.732H136.85ZM149.751 246.883L153.125 244.93C153.265 244.846 153.258 244.706 153.125 244.622L149.219 242.368C149.136 242.325 149.043 242.303 148.949 242.303C148.856 242.303 148.763 242.325 148.68 242.368L145.271 244.3C145.131 244.377 145.138 244.517 145.271 244.608L149.177 246.862C149.261 246.912 149.356 246.94 149.454 246.944C149.552 246.947 149.649 246.926 149.737 246.883H149.751ZM154.686 244.034L158.06 242.081C158.207 241.997 158.193 241.857 158.06 241.773L154.161 239.519C154.078 239.476 153.985 239.454 153.891 239.454C153.798 239.454 153.705 239.476 153.622 239.519L150.241 241.465C150.101 241.549 150.108 241.689 150.241 241.78L154.147 244.034C154.232 244.078 154.327 244.1 154.423 244.1C154.519 244.1 154.614 244.078 154.7 244.034H154.686ZM159.586 241.178L162.96 239.232C163.107 239.148 163.1 239.008 162.96 238.924L159.054 236.663C158.97 236.622 158.878 236.6 158.784 236.6C158.691 236.6 158.599 236.622 158.515 236.663L155.134 238.609C154.994 238.693 155.001 238.833 155.134 238.924L159.04 241.178C159.126 241.225 159.222 241.249 159.32 241.249C159.418 241.249 159.514 241.225 159.6 241.178H159.586ZM141.75 239.883L138.369 241.836C138.229 241.913 138.236 242.053 138.369 242.144L142.275 244.398C142.358 244.441 142.451 244.463 142.544 244.463C142.638 244.463 142.731 244.441 142.814 244.398L146.195 242.445C146.335 242.361 146.328 242.221 146.195 242.137L142.289 239.883C142.208 239.843 142.12 239.823 142.03 239.823C141.94 239.823 141.851 239.843 141.771 239.883H141.75ZM146.685 237.034L143.311 238.98C143.164 239.064 143.171 239.204 143.311 239.295L147.217 241.549C147.301 241.59 147.393 241.612 147.486 241.612C147.58 241.612 147.672 241.59 147.756 241.549L151.2 239.61C151.34 239.526 151.333 239.386 151.2 239.302L147.294 237.048C147.206 236.994 147.105 236.965 147.002 236.962C146.899 236.96 146.796 236.985 146.706 237.034H146.685ZM166.432 225.638L163.1 227.584C162.96 227.668 162.967 227.808 163.1 227.899L167.006 230.153C167.09 230.194 167.182 230.216 167.275 230.216C167.369 230.216 167.461 230.194 167.545 230.153L170.919 228.207C171.066 228.123 171.052 227.983 170.919 227.892L167.02 225.638C166.933 225.59 166.835 225.565 166.736 225.565C166.637 225.565 166.54 225.59 166.453 225.638H166.432ZM161.49 228.487L158.116 230.433C157.976 230.517 157.983 230.657 158.116 230.748L162.022 233.002C162.106 233.043 162.198 233.065 162.291 233.065C162.385 233.065 162.477 233.043 162.561 233.002L165.935 231.056C166.082 230.972 166.068 230.832 165.935 230.741L162.029 228.487C161.948 228.449 161.859 228.429 161.77 228.429C161.68 228.429 161.592 228.449 161.511 228.487H161.49ZM171.367 222.782L168 224.735C167.86 224.819 167.867 224.959 168 225.043L171.906 227.304C171.99 227.345 172.082 227.367 172.175 227.367C172.269 227.367 172.361 227.345 172.445 227.304L175.819 225.351C175.966 225.274 175.959 225.134 175.819 225.043L171.913 222.789C171.831 222.749 171.742 222.727 171.651 222.726C171.56 222.725 171.47 222.744 171.388 222.782H171.367ZM151.62 234.185L148.246 236.131C148.099 236.215 148.106 236.355 148.246 236.446L152.152 238.7C152.236 238.741 152.328 238.763 152.421 238.763C152.515 238.763 152.607 238.741 152.691 238.7L156.072 236.747C156.212 236.663 156.205 236.523 156.072 236.439L152.166 234.178C152.083 234.14 151.993 234.121 151.903 234.122C151.812 234.123 151.722 234.145 151.641 234.185H151.62ZM156.555 231.336L153.181 233.282C153.034 233.366 153.048 233.506 153.181 233.597L157.087 235.851C157.169 235.894 157.26 235.916 157.353 235.916C157.445 235.916 157.537 235.894 157.619 235.851L161 233.905C161.14 233.821 161.133 233.681 161 233.59L157.094 231.336C157.013 231.298 156.924 231.278 156.835 231.278C156.745 231.278 156.657 231.298 156.576 231.336H156.555ZM152.957 251.454L156.331 249.501C156.471 249.417 156.464 249.277 156.331 249.193L152.425 246.939C152.342 246.896 152.249 246.874 152.155 246.874C152.062 246.874 151.969 246.896 151.886 246.939L148.512 248.892C148.365 248.969 148.379 249.109 148.512 249.2L152.418 251.454C152.504 251.501 152.6 251.525 152.698 251.525C152.796 251.525 152.892 251.501 152.978 251.454H152.957ZM124.012 248.5L120.106 246.246C120.023 246.203 119.93 246.181 119.836 246.181C119.743 246.181 119.65 246.203 119.567 246.246L116.2 248.213C116.06 248.297 116.067 248.43 116.2 248.521L120.106 250.775C120.189 250.818 120.282 250.84 120.375 250.84C120.469 250.84 120.562 250.818 120.645 250.775L124.019 248.822C124.173 248.759 124.166 248.619 124.012 248.5ZM131.404 250.67L127.498 248.416C127.415 248.375 127.324 248.353 127.232 248.353C127.14 248.353 127.048 248.375 126.966 248.416L121.8 251.433C121.66 251.517 121.667 251.657 121.8 251.741L125.706 253.995C125.789 254.038 125.882 254.06 125.975 254.06C126.069 254.06 126.162 254.038 126.245 253.995L131.439 250.999C131.6 250.929 131.558 250.789 131.404 250.698V250.67ZM118.02 244.139L114.1 241.913C114.017 241.87 113.924 241.848 113.83 241.848C113.737 241.848 113.644 241.87 113.561 241.913L109.417 244.3C109.277 244.384 109.284 244.524 109.417 244.615L113.323 246.869C113.406 246.912 113.499 246.934 113.592 246.934C113.686 246.934 113.779 246.912 113.862 246.869L118.013 244.475C118.181 244.398 118.174 244.258 118.02 244.167V244.139ZM121.205 242.298C121.288 242.341 121.381 242.363 121.474 242.363C121.568 242.363 121.661 242.341 121.744 242.298L125.118 240.345C125.265 240.268 125.258 240.128 125.118 240.037L121.212 237.783C121.129 237.74 121.036 237.718 120.942 237.718C120.849 237.718 120.756 237.74 120.673 237.783L117.292 239.736C117.152 239.82 117.159 239.96 117.292 240.044L121.205 242.298ZM138.285 253.141L134.4 250.915C134.316 250.874 134.224 250.852 134.13 250.852C134.037 250.852 133.945 250.874 133.861 250.915L127.365 254.667C127.225 254.751 127.232 254.891 127.365 254.975L131.271 257.236C131.355 257.277 131.447 257.299 131.54 257.299C131.634 257.299 131.726 257.277 131.81 257.236L138.306 253.484C138.446 253.4 138.439 253.26 138.285 253.169V253.141ZM141.526 257.712L137.62 255.5C137.537 255.457 137.444 255.435 137.35 255.435C137.257 255.435 137.164 255.457 137.081 255.5L132.923 257.901C132.783 257.985 132.79 258.125 132.923 258.216L136.829 260.47C136.913 260.511 137.005 260.533 137.098 260.533C137.192 260.533 137.284 260.511 137.368 260.47L141.526 258.069C141.687 257.971 141.68 257.831 141.526 257.74V257.712ZM157.906 221.109C157.989 221.152 158.082 221.174 158.175 221.174C158.269 221.174 158.362 221.152 158.445 221.109L161.819 219.163C161.966 219.079 161.952 218.939 161.819 218.848L157.913 216.594C157.829 216.553 157.737 216.531 157.643 216.531C157.55 216.531 157.458 216.553 157.374 216.594L154 218.575C153.86 218.659 153.867 218.799 154 218.883L157.906 221.109ZM148.029 226.814C148.113 226.855 148.205 226.877 148.298 226.877C148.392 226.877 148.484 226.855 148.568 226.814L151.949 224.868C152.089 224.784 152.082 224.644 151.949 224.553L148.043 222.299C147.959 222.258 147.867 222.236 147.773 222.236C147.68 222.236 147.588 222.258 147.504 222.299L144.13 224.245C143.983 224.329 143.997 224.469 144.13 224.56L148.029 226.814ZM126.14 239.477C126.223 239.52 126.316 239.542 126.409 239.542C126.503 239.542 126.596 239.52 126.679 239.477L130.053 237.524C130.2 237.44 130.193 237.307 130.053 237.216L126.147 234.962C126.064 234.919 125.971 234.897 125.877 234.897C125.784 234.897 125.691 234.919 125.608 234.962L122.227 236.915C122.087 236.999 122.094 237.132 122.227 237.223L126.14 239.477ZM152.971 224C153.053 224.041 153.145 224.063 153.237 224.063C153.329 224.063 153.42 224.041 153.503 224L156.884 222.054C157.024 221.97 157.017 221.83 156.884 221.739L152.978 219.485C152.895 219.442 152.802 219.42 152.708 219.42C152.615 219.42 152.522 219.442 152.439 219.485L149.065 221.431C148.918 221.515 148.932 221.655 149.065 221.746L152.971 224ZM143.094 229.698C143.177 229.741 143.27 229.763 143.363 229.763C143.457 229.763 143.55 229.741 143.633 229.698L147.014 227.752C147.154 227.668 147.147 227.528 147.014 227.437L143.108 225.183C143.024 225.142 142.932 225.12 142.838 225.12C142.745 225.12 142.653 225.142 142.569 225.183L139.195 227.129C139.048 227.213 139.055 227.353 139.195 227.444L143.094 229.698ZM144.235 258.111C144.151 258.07 144.059 258.048 143.965 258.048C143.872 258.048 143.78 258.07 143.696 258.111L138.502 261.1C138.362 261.184 138.369 261.324 138.502 261.415L142.408 263.669C142.491 263.712 142.584 263.734 142.677 263.734C142.771 263.734 142.864 263.712 142.947 263.669L148.141 260.673C148.288 260.589 148.274 260.449 148.141 260.358L144.235 258.111ZM136.01 233.8C136.094 233.841 136.186 233.863 136.279 233.863C136.373 233.863 136.465 233.841 136.549 233.8L139.93 231.847C140.07 231.763 140.063 231.623 139.93 231.539L136.024 229.285C135.941 229.242 135.848 229.22 135.754 229.22C135.661 229.22 135.568 229.242 135.485 229.285L132.111 231.238C131.964 231.315 131.971 231.455 132.111 231.546L136.01 233.8ZM131.075 236.6C131.158 236.643 131.251 236.665 131.344 236.665C131.438 236.665 131.531 236.643 131.614 236.6L134.995 234.647C135.135 234.563 135.128 234.423 134.995 234.339L131.089 232.085C131.006 232.042 130.913 232.02 130.819 232.02C130.726 232.02 130.633 232.042 130.55 232.085L127.176 234.038C127.029 234.115 127.036 234.255 127.176 234.346L131.075 236.6ZM235.683 205.31C235.6 205.267 235.507 205.245 235.413 205.245C235.32 205.245 235.227 205.267 235.144 205.31L226.8 210.098C226.66 210.182 226.667 210.322 226.8 210.413L230.706 212.667C230.79 212.708 230.882 212.73 230.975 212.73C231.069 212.73 231.161 212.708 231.245 212.667L239.603 207.9C239.75 207.816 239.743 207.676 239.603 207.585L235.683 205.31ZM224.77 211.61C224.687 211.567 224.594 211.545 224.5 211.545C224.407 211.545 224.314 211.567 224.231 211.61L220.857 213.556C220.71 213.64 220.717 213.78 220.857 213.871L224.763 216.125C224.847 216.166 224.939 216.188 225.032 216.188C225.126 216.188 225.218 216.166 225.302 216.125L228.683 214.179C228.823 214.095 228.816 213.955 228.683 213.864L224.77 211.61ZM157.913 248.605L161.287 246.652C161.434 246.568 161.42 246.428 161.287 246.344L157.388 244.083C157.304 244.042 157.212 244.02 157.118 244.02C157.025 244.02 156.933 244.042 156.849 244.083L153.468 246.029C153.328 246.113 153.335 246.253 153.468 246.344L157.374 248.598C157.457 248.64 157.549 248.663 157.643 248.664C157.736 248.666 157.828 248.645 157.913 248.605V248.605ZM214.9 217.308C214.816 217.267 214.724 217.245 214.63 217.245C214.537 217.245 214.445 217.267 214.361 217.308L210.98 219.254C210.84 219.338 210.847 219.478 210.98 219.569L214.886 221.823C214.969 221.866 215.062 221.888 215.155 221.888C215.249 221.888 215.342 221.866 215.425 221.823L218.799 219.877C218.946 219.793 218.939 219.653 218.799 219.562L214.9 217.308ZM240.618 202.461C240.534 202.42 240.442 202.398 240.348 202.398C240.255 202.398 240.163 202.42 240.079 202.461L236.705 204.4C236.558 204.484 236.565 204.624 236.705 204.708L240.611 206.969C240.695 207.01 240.787 207.032 240.88 207.032C240.974 207.032 241.066 207.01 241.15 206.969L244.531 205.023C244.671 204.939 244.664 204.799 244.531 204.708L240.618 202.461ZM249.459 201.866L239.974 196.392C239.891 196.349 239.798 196.327 239.704 196.327C239.611 196.327 239.518 196.349 239.435 196.392L236.061 198.345C235.914 198.429 235.921 198.569 236.061 198.653L245.546 204.127C245.629 204.17 245.722 204.192 245.815 204.192C245.909 204.192 246.002 204.17 246.085 204.127L249.466 202.174C249.62 202.097 249.613 201.957 249.459 201.866ZM196.455 227.962C196.372 227.919 196.279 227.897 196.185 227.897C196.092 227.897 195.999 227.919 195.916 227.962L191.758 230.363C191.618 230.447 191.625 230.587 191.758 230.671L195.664 232.925C195.747 232.968 195.84 232.99 195.933 232.99C196.027 232.99 196.12 232.968 196.203 232.925L200.361 230.524C200.501 230.44 200.494 230.3 200.361 230.216L196.455 227.962ZM208.922 220.759C208.839 220.716 208.746 220.694 208.652 220.694C208.559 220.694 208.466 220.716 208.383 220.759L203.189 223.755C203.049 223.839 203.056 223.979 203.189 224.063L207.095 226.324C207.179 226.365 207.271 226.387 207.364 226.387C207.458 226.387 207.55 226.365 207.634 226.324L212.828 223.328C212.968 223.244 212.961 223.104 212.828 223.013L208.922 220.759ZM185.024 234.556C184.94 234.515 184.848 234.493 184.754 234.493C184.661 234.493 184.569 234.515 184.485 234.556L156.688 250.6C156.548 250.684 156.555 250.824 156.688 250.915L160.594 253.169C160.678 253.21 160.77 253.232 160.863 253.232C160.957 253.232 161.049 253.21 161.133 253.169L188.93 237.118C189.07 237.034 189.063 236.894 188.93 236.803L185.024 234.556ZM155.666 251.51C155.583 251.467 155.49 251.445 155.396 251.445C155.303 251.445 155.21 251.467 155.127 251.51L150.976 253.911C150.829 253.995 150.836 254.135 150.976 254.219L154.882 256.473C154.965 256.516 155.058 256.538 155.151 256.538C155.245 256.538 155.338 256.516 155.421 256.473L159.6 254.1C159.74 254.016 159.733 253.876 159.6 253.792L155.666 251.51ZM190.736 231.259C190.652 231.218 190.56 231.196 190.466 231.196C190.373 231.196 190.281 231.218 190.197 231.259L186.046 233.66C185.899 233.744 185.906 233.884 186.046 233.975L189.952 236.229C190.036 236.27 190.128 236.292 190.221 236.292C190.315 236.292 190.407 236.27 190.491 236.229L194.649 233.828C194.796 233.751 194.782 233.611 194.649 233.52L190.736 231.259ZM149.954 254.8C149.87 254.759 149.778 254.737 149.684 254.737C149.591 254.737 149.499 254.759 149.415 254.8L145.257 257.201C145.117 257.285 145.124 257.425 145.257 257.516L149.163 259.77C149.247 259.811 149.339 259.833 149.432 259.833C149.526 259.833 149.618 259.811 149.702 259.77L153.853 257.376C154 257.292 153.993 257.152 153.853 257.061L149.954 254.8ZM202.167 224.651C202.083 224.61 201.991 224.588 201.897 224.588C201.804 224.588 201.712 224.61 201.628 224.651L197.477 227.045C197.33 227.129 197.337 227.269 197.477 227.36L201.383 229.614C201.467 229.655 201.559 229.677 201.652 229.677C201.746 229.677 201.838 229.655 201.922 229.614L206.08 227.213C206.227 227.129 206.213 226.989 206.08 226.898L202.167 224.651ZM219.835 214.452C219.752 214.409 219.659 214.387 219.565 214.387C219.472 214.387 219.379 214.409 219.296 214.452L215.922 216.398C215.775 216.482 215.782 216.622 215.922 216.713L219.828 218.967C219.912 219.008 220.004 219.03 220.097 219.03C220.191 219.03 220.283 219.008 220.367 218.967L223.748 217.021C223.888 216.937 223.881 216.797 223.748 216.706L219.835 214.452ZM230.65 206.598L234.024 204.652C234.171 204.568 234.164 204.428 234.024 204.337L230.118 202.083C230.034 202.042 229.942 202.02 229.848 202.02C229.755 202.02 229.663 202.042 229.579 202.083L226.198 204.036C226.058 204.12 226.065 204.26 226.198 204.344L230.104 206.605C230.189 206.647 230.282 206.67 230.377 206.67C230.472 206.67 230.565 206.647 230.65 206.605V206.598ZM208.6 206.5L211.981 204.547C212.121 204.463 212.114 204.323 211.981 204.239L208.075 201.985C207.992 201.942 207.899 201.92 207.805 201.92C207.712 201.92 207.619 201.942 207.536 201.985L204.162 203.938C204.015 204.022 204.029 204.155 204.162 204.246L208.061 206.5C208.144 206.543 208.237 206.565 208.33 206.565C208.424 206.565 208.517 206.543 208.6 206.5ZM197.4 225.841L207.27 220.143C207.41 220.059 207.403 219.919 207.27 219.828L203.364 217.574C203.28 217.533 203.188 217.511 203.094 217.511C203.001 217.511 202.909 217.533 202.825 217.574L192.955 223.279C192.815 223.356 192.822 223.496 192.955 223.587L196.861 225.841C196.947 225.879 197.041 225.895 197.135 225.889C197.228 225.883 197.319 225.854 197.4 225.806V225.841ZM225.176 209.482C225.26 209.523 225.352 209.545 225.445 209.545C225.539 209.545 225.631 209.523 225.715 209.482L229.089 207.536C229.236 207.452 229.229 207.312 229.089 207.221L225.183 204.967C225.1 204.924 225.007 204.902 224.913 204.902C224.82 204.902 224.727 204.924 224.644 204.967L221.263 206.913C221.123 206.997 221.13 207.137 221.263 207.228L225.176 209.482ZM220.136 206.269L223.51 204.323C223.657 204.239 223.65 204.099 223.51 204.008L219.604 201.754C219.52 201.713 219.428 201.691 219.334 201.691C219.241 201.691 219.149 201.713 219.065 201.754L215.684 203.707C215.544 203.791 215.551 203.931 215.684 204.015L219.59 206.276C219.678 206.312 219.773 206.327 219.868 206.32C219.963 206.313 220.054 206.283 220.136 206.234V206.269ZM192.465 228.669L195.839 226.716C195.986 226.632 195.972 226.499 195.839 226.408L191.933 224.154C191.85 224.111 191.757 224.089 191.663 224.089C191.57 224.089 191.477 224.111 191.394 224.154L187.999 226.1C187.852 226.184 187.866 226.317 187.999 226.408L191.905 228.662C191.996 228.714 192.099 228.741 192.203 228.739C192.308 228.738 192.41 228.709 192.5 228.655L192.465 228.669ZM214.263 215.761C214.347 215.802 214.439 215.824 214.532 215.824C214.626 215.824 214.718 215.802 214.802 215.761L218.183 213.815C218.323 213.731 218.316 213.591 218.183 213.5L214.277 211.246C214.193 211.205 214.101 211.183 214.007 211.183C213.914 211.183 213.822 211.205 213.738 211.246L210.364 213.199C210.217 213.283 210.224 213.423 210.364 213.507L214.263 215.761ZM167.783 242.9L171.157 240.954C171.304 240.87 171.297 240.73 171.157 240.639L167.251 238.385C167.167 238.344 167.075 238.322 166.981 238.322C166.888 238.322 166.796 238.344 166.712 238.385L163.331 240.331C163.191 240.415 163.198 240.555 163.331 240.646L167.237 242.9C167.322 242.942 167.415 242.965 167.51 242.965C167.605 242.965 167.698 242.942 167.783 242.9V242.9ZM172.718 240.051L176.099 238.105C176.239 238.021 176.232 237.881 176.099 237.79L172.2 235.536C172.117 235.493 172.024 235.471 171.93 235.471C171.837 235.471 171.744 235.493 171.661 235.536L168.28 237.482C168.14 237.566 168.147 237.706 168.28 237.797L172.186 240.051C172.269 240.091 172.36 240.112 172.452 240.112C172.544 240.112 172.635 240.091 172.718 240.051ZM162.848 245.749L166.222 243.803C166.369 243.719 166.362 243.579 166.222 243.488L162.323 241.234C162.239 241.193 162.147 241.171 162.053 241.171C161.96 241.171 161.868 241.193 161.784 241.234L158.403 243.18C158.263 243.264 158.27 243.404 158.403 243.495L162.309 245.749C162.392 245.792 162.485 245.814 162.578 245.814C162.672 245.814 162.765 245.792 162.848 245.749V245.749ZM182.588 234.353L185.969 232.407C186.109 232.323 186.102 232.183 185.969 232.092L182.063 229.838C181.979 229.797 181.887 229.775 181.793 229.775C181.7 229.775 181.608 229.797 181.524 229.838L178.15 231.791C178.003 231.875 178.01 232.015 178.15 232.099L182.056 234.353C182.138 234.395 182.229 234.417 182.322 234.417C182.414 234.417 182.505 234.395 182.588 234.353V234.353ZM177.688 237.202L181.069 235.256C181.209 235.172 181.202 235.032 181.069 234.941L177.1 232.687C177.017 232.644 176.924 232.622 176.83 232.622C176.737 232.622 176.644 232.644 176.561 232.687L173.187 234.633C173.04 234.717 173.047 234.857 173.187 234.941L177.093 237.202C177.179 237.247 177.275 237.27 177.373 237.27C177.47 237.27 177.566 237.247 177.653 237.202H177.688ZM187.558 231.504L190.939 229.551C191.079 229.474 191.072 229.334 190.939 229.243L187.033 226.989C186.95 226.946 186.857 226.924 186.763 226.924C186.67 226.924 186.577 226.946 186.494 226.989L183.064 228.9C182.917 228.984 182.931 229.124 183.064 229.208L186.963 231.462C187.045 231.515 187.14 231.547 187.238 231.554C187.335 231.562 187.433 231.544 187.523 231.504H187.558ZM210.14 189.343C210.223 189.386 210.316 189.408 210.409 189.408C210.503 189.408 210.596 189.386 210.679 189.343L214.06 187.39C214.2 187.313 214.193 187.173 214.06 187.082L213.024 186.48C212.94 186.439 212.848 186.417 212.754 186.417C212.661 186.417 212.569 186.439 212.485 186.48L209.104 188.426C208.964 188.51 208.971 188.65 209.104 188.741L210.14 189.343ZM185.857 205.023C185.94 205.066 186.033 205.088 186.126 205.088C186.22 205.088 186.313 205.066 186.396 205.023L189.77 203.077C189.917 202.993 189.91 202.853 189.77 202.762L185.864 200.508C185.78 200.467 185.688 200.445 185.594 200.445C185.501 200.445 185.409 200.467 185.325 200.508L181.944 202.454C181.804 202.538 181.811 202.678 181.944 202.769L185.857 205.023ZM195.727 199.325C195.811 199.366 195.903 199.388 195.996 199.388C196.09 199.388 196.182 199.366 196.266 199.325L199.647 197.379C199.787 197.295 199.78 197.155 199.647 197.064L195.741 194.81C195.658 194.767 195.565 194.745 195.471 194.745C195.378 194.745 195.285 194.767 195.202 194.81L191.8 196.756C191.653 196.84 191.66 196.98 191.8 197.071L195.727 199.325ZM179.83 208.502C179.914 208.543 180.006 208.565 180.099 208.565C180.193 208.565 180.285 208.543 180.369 208.502L183.743 206.549C183.89 206.465 183.883 206.325 183.743 206.241L179.837 203.98C179.753 203.939 179.661 203.917 179.567 203.917C179.474 203.917 179.382 203.939 179.298 203.98L175.917 205.926C175.777 206.01 175.784 206.15 175.917 206.241L179.83 208.502ZM190.792 202.202C190.876 202.243 190.968 202.265 191.061 202.265C191.155 202.265 191.247 202.243 191.331 202.202L194.712 200.256C194.852 200.172 194.845 200.032 194.712 199.941L190.806 197.687C190.722 197.646 190.63 197.624 190.536 197.624C190.443 197.624 190.351 197.646 190.267 197.687L186.893 199.633C186.746 199.717 186.753 199.857 186.893 199.948L190.792 202.202ZM169.925 214.2C170.008 214.243 170.101 214.265 170.194 214.265C170.288 214.265 170.381 214.243 170.464 214.2L173.838 212.247C173.985 212.163 173.971 212.023 173.838 211.939L169.939 209.685C169.856 209.642 169.763 209.62 169.669 209.62C169.576 209.62 169.483 209.642 169.4 209.685L166.019 211.638C165.879 211.715 165.886 211.855 166.019 211.946L169.925 214.2ZM174.86 211.351C174.944 211.392 175.036 211.414 175.129 211.414C175.223 211.414 175.315 211.392 175.399 211.351L178.773 209.398C178.92 209.314 178.913 209.174 178.773 209.09L174.874 206.836C174.791 206.793 174.698 206.771 174.604 206.771C174.511 206.771 174.418 206.793 174.335 206.836L170.954 208.789C170.814 208.866 170.821 209.006 170.954 209.097L174.86 211.351ZM200.235 195.048C200.319 195.089 200.411 195.111 200.504 195.111C200.598 195.111 200.69 195.089 200.774 195.048L204.155 193.102C204.295 193.018 204.288 192.878 204.155 192.787L203.112 192.185C203.028 192.144 202.936 192.122 202.842 192.122C202.749 192.122 202.657 192.144 202.573 192.185L199.199 194.131C199.052 194.215 199.066 194.355 199.199 194.446L200.235 195.048ZM215.047 186.494C215.129 186.537 215.22 186.559 215.313 186.559C215.405 186.559 215.497 186.537 215.579 186.494L218.96 184.541C219.1 184.457 219.093 184.324 218.96 184.233L217.924 183.631C217.841 183.588 217.748 183.566 217.654 183.566C217.561 183.566 217.468 183.588 217.385 183.631L214.004 185.577C213.864 185.661 213.871 185.801 214.004 185.892L215.047 186.494ZM223.244 191.233C223.328 191.274 223.42 191.296 223.513 191.296C223.607 191.296 223.699 191.274 223.783 191.233L227.164 189.28C227.304 189.196 227.297 189.056 227.164 188.972L223.258 186.711C223.174 186.67 223.082 186.648 222.988 186.648C222.895 186.648 222.803 186.67 222.719 186.711L219.345 188.657C219.198 188.741 219.212 188.881 219.345 188.972L223.244 191.233ZM235.585 203.756L238.966 201.803C239.106 201.726 239.099 201.586 238.966 201.495L235.06 199.241C234.976 199.2 234.884 199.178 234.79 199.178C234.697 199.178 234.605 199.2 234.521 199.241L231.147 201.194C231 201.278 231.007 201.418 231.147 201.502L235.053 203.756C235.135 203.798 235.226 203.82 235.319 203.82C235.411 203.82 235.502 203.798 235.585 203.756V203.756ZM205.17 192.199C205.254 192.24 205.346 192.262 205.439 192.262C205.533 192.262 205.625 192.24 205.709 192.199L209.09 190.253C209.23 190.169 209.223 190.029 209.09 189.938L208.047 189.336C207.963 189.295 207.871 189.273 207.777 189.273C207.684 189.273 207.592 189.295 207.508 189.336L204.134 191.282C203.994 191.366 204.001 191.506 204.134 191.597L205.17 192.199ZM164.99 217.049C165.073 217.092 165.166 217.114 165.259 217.114C165.353 217.114 165.446 217.092 165.529 217.049L168.903 215.096C169.043 215.012 169.036 214.879 168.903 214.788L164.997 212.534C164.914 212.491 164.821 212.469 164.727 212.469C164.634 212.469 164.541 212.491 164.458 212.534L161.084 214.487C160.944 214.571 160.951 214.704 161.084 214.795L164.99 217.049Z" fill="#455A64"/>
<path d="M185.059 247.73L222.019 226.387L244.769 239.519L207.802 260.862L185.059 247.73Z" fill="#263238"/>
<path d="M102.901 140.182L213.053 76.587C215.202 75.341 216.966 76.363 216.966 78.848V164.157C216.931 164.788 216.747 165.402 216.431 165.949C216.115 166.496 215.675 166.961 215.146 167.307L102.201 232.519C101.2 233.093 100.381 232.624 100.381 231.469V144.543C100.431 143.67 100.685 142.82 101.123 142.063C101.561 141.306 102.169 140.662 102.901 140.182Z" fill="#F5F5F5"/>
<path d="M217.001 80.8918V78.8478C217.001 76.3628 215.237 75.3478 213.088 76.5868L102.901 140.182C102.169 140.661 101.561 141.306 101.123 142.063C100.685 142.82 100.431 143.67 100.381 144.543V148.204L217.001 80.8918Z" fill="#407BFF"/>
<path d="M200.564 85.547C200.171 85.8029 199.843 86.148 199.609 86.5543C199.374 86.9605 199.238 87.4165 199.213 87.885C199.213 88.746 199.815 89.096 200.564 88.662C200.956 88.4068 201.282 88.0626 201.515 87.6575C201.749 87.2524 201.883 86.7979 201.908 86.331C201.908 85.47 201.306 85.12 200.564 85.547Z" fill="white"/>
<path d="M205.912 82.46C205.52 82.7167 205.194 83.0622 204.961 83.4684C204.727 83.8746 204.593 84.3301 204.568 84.798C204.568 85.659 205.17 86.002 205.912 85.575C206.306 85.3191 206.633 84.9739 206.868 84.5677C207.102 84.1614 207.238 83.7055 207.263 83.237C207.263 82.376 206.661 82.026 205.912 82.46Z" fill="white"/>
<path d="M211.267 79.366C210.875 79.6232 210.549 79.9686 210.314 80.3746C210.079 80.7806 209.943 81.2359 209.916 81.704C209.916 82.565 210.525 82.915 211.267 82.481C211.66 82.2262 211.987 81.8822 212.222 81.4772C212.456 81.0722 212.592 80.6174 212.618 80.15C212.618 79.289 212.009 78.939 211.267 79.366Z" fill="white"/>
<path d="M127.581 189.971L123.295 187.496L112.798 205.677L117.084 208.151L127.581 189.971Z" fill="#37474F"/>
<path d="M127.589 189.965L125.449 188.73L114.953 206.91L117.093 208.146L127.589 189.965Z" fill="#263238"/>
<path d="M101.291 241.178C99.338 244.573 90.091 239.183 92.037 235.837L116.152 198.226C116.217 198.124 116.319 198.051 116.436 198.023C116.553 197.994 116.677 198.012 116.782 198.072L121.626 200.872C121.73 200.931 121.808 201.028 121.842 201.143C121.875 201.258 121.863 201.382 121.808 201.488L101.291 241.178Z" fill="#407BFF"/>
<path opacity="0.1" d="M101.29 241.178L121.8 201.488C121.856 201.382 121.868 201.258 121.834 201.143C121.8 201.028 121.723 200.931 121.618 200.872L119.413 199.598L95.9004 241.395C98.0424 242.452 100.408 242.711 101.29 241.178Z" fill="black"/>
<path d="M172.202 152.635C172.202 152.348 172.202 152.068 172.16 151.788C172.118 151.508 172.16 151.235 172.097 150.962C172.034 150.689 172.097 150.598 172.041 150.416C171.992 149.94 171.922 149.471 171.845 149.016C171.81 148.813 171.775 148.603 171.733 148.4C171.691 148.197 171.656 148.015 171.614 147.826C171.495 147.308 171.369 146.804 171.222 146.321C171.145 146.09 171.075 145.859 170.998 145.621C170.983 145.587 170.971 145.552 170.963 145.516C170.879 145.292 170.802 145.075 170.718 144.865C170.634 144.655 170.522 144.375 170.41 144.165C170.298 143.955 170.256 143.822 170.165 143.654C170.114 143.528 170.053 143.406 169.983 143.29C169.913 143.143 169.836 142.996 169.752 142.856C169.668 142.716 169.717 142.786 169.696 142.758C169.675 142.73 169.549 142.506 169.472 142.38C169.395 142.254 169.367 142.219 169.318 142.142C168.959 141.577 168.557 141.041 168.114 140.539L167.89 140.287L167.701 140.091C167.624 140.007 167.54 139.93 167.456 139.846C167.236 139.615 167.002 139.398 166.756 139.195C166.637 139.09 166.511 138.992 166.385 138.901L166 138.621C165.8 138.474 165.592 138.339 165.377 138.215L165.209 138.11H165.174L155.255 132.384L155.199 132.349C153.296 131.288 151.148 130.745 148.969 130.774C145.721 130.774 142.053 131.838 138.168 134.078C124.826 141.778 114.004 160.524 114.004 175.938C114.004 183.638 116.692 189.028 121.039 191.562H121.081L131.007 197.281H131.049L131.168 197.344C131.354 197.454 131.546 197.554 131.742 197.645C131.98 197.764 132.225 197.869 132.442 197.967C132.659 198.065 132.883 198.142 133.107 198.212L133.464 198.317C133.589 198.365 133.718 198.402 133.849 198.429C133.978 198.468 134.109 198.501 134.241 198.527C134.335 198.555 134.431 198.576 134.528 198.59C134.696 198.625 134.878 198.66 135.053 198.681C135.092 198.688 135.133 198.688 135.172 198.681C135.382 198.718 135.592 198.746 135.802 198.765C139.4 199.143 143.586 198.128 148.066 195.545C161.415 187.845 172.237 169.092 172.237 153.685C172.202 153.363 172.202 152.999 172.202 152.635ZM156.011 141.736C156.535 143.651 156.792 145.63 156.774 147.616C156.774 161.21 146.827 178.416 135.074 185.234C133.356 186.255 131.501 187.026 129.565 187.523C129.044 185.605 128.787 183.624 128.802 181.636C128.802 168.042 138.749 150.836 150.502 144.018C152.214 143.001 154.061 142.232 155.99 141.736H156.011Z" fill="#407BFF"/>
<path opacity="0.1" d="M130.6 197.085L120.961 191.527C116.614 188.986 113.926 183.582 113.926 175.91C113.926 169.036 116.082 161.504 119.645 154.588L129.571 160.3C126.001 167.216 123.852 174.748 123.852 181.622C123.852 189.154 126.414 194.481 130.6 197.085Z" fill="black"/>
<path opacity="0.4" d="M172.201 152.635C172.201 152.348 172.201 152.068 172.159 151.788C172.117 151.508 172.159 151.235 172.096 150.962C172.033 150.689 172.096 150.598 172.04 150.416C171.991 149.94 171.921 149.471 171.844 149.016C171.809 148.813 171.774 148.603 171.732 148.4C171.69 148.197 171.655 148.015 171.613 147.826C171.494 147.308 171.368 146.804 171.221 146.321C171.144 146.09 171.074 145.859 170.997 145.621C170.982 145.587 170.971 145.552 170.962 145.516C170.878 145.292 170.801 145.075 170.717 144.865C170.633 144.655 170.521 144.375 170.409 144.165C170.297 143.955 170.255 143.822 170.164 143.654C170.113 143.528 170.053 143.406 169.982 143.29C169.912 143.143 169.835 142.996 169.751 142.856C169.667 142.716 169.716 142.786 169.695 142.758C169.674 142.73 169.548 142.506 169.471 142.38C169.394 142.254 169.366 142.219 169.317 142.142C168.958 141.577 168.556 141.041 168.113 140.539L167.889 140.287L167.7 140.091C167.623 140.007 167.539 139.93 167.455 139.846C167.235 139.615 167.002 139.398 166.755 139.195C166.636 139.09 166.51 138.992 166.384 138.901L165.999 138.621C165.799 138.474 165.591 138.339 165.376 138.215C160.987 135.548 154.876 135.863 148.079 139.776C134.73 147.476 123.908 166.222 123.908 181.636C123.908 189.441 126.708 194.894 131.153 197.372C131.339 197.482 131.531 197.582 131.727 197.673C131.965 197.792 132.21 197.897 132.427 197.995C132.644 198.093 132.868 198.17 133.092 198.24L133.449 198.345C133.574 198.393 133.703 198.43 133.834 198.457C133.963 198.496 134.094 198.529 134.226 198.555C134.32 198.583 134.416 198.604 134.513 198.618C134.681 198.653 134.863 198.688 135.038 198.709C135.078 198.716 135.118 198.716 135.157 198.709C135.367 198.746 135.577 198.774 135.787 198.793C139.385 199.171 143.571 198.156 148.051 195.573C161.4 187.873 172.222 169.12 172.222 153.713C172.201 153.363 172.201 152.999 172.201 152.635ZM145.601 191.352C142.605 193.081 139.721 193.991 137.257 193.991C132.63 193.991 130.502 190.834 129.557 187.523C129.036 185.605 128.779 183.624 128.794 181.636C128.794 168.042 138.741 150.836 150.494 144.018C152.212 142.999 154.067 142.23 156.003 141.736C156.92 141.509 157.859 141.389 158.803 141.379C166.454 141.379 167.273 150.017 167.273 153.734C167.301 167.3 157.354 184.555 145.601 191.352Z" fill="white"/>
<path opacity="0.1" d="M167.301 153.734C167.301 167.328 157.361 184.534 145.601 191.352C142.605 193.081 139.721 193.991 137.257 193.991C132.63 193.991 130.502 190.834 129.557 187.523C131.493 187.026 133.348 186.255 135.066 185.234C146.84 178.437 156.766 161.21 156.766 147.616C156.784 145.63 156.527 143.652 156.003 141.736C156.919 141.509 157.859 141.389 158.803 141.379C166.475 141.4 167.301 150.017 167.301 153.734Z" fill="black"/>
<path opacity="0.7" d="M163.102 151.361C163.102 164.955 153.162 182.161 141.402 188.979C138.406 190.708 135.522 191.618 133.058 191.618C132.568 191.619 132.079 191.579 131.595 191.499C130.649 190.33 129.96 188.976 129.572 187.523C129.051 185.605 128.794 183.624 128.809 181.636C128.809 168.042 138.756 150.836 150.509 144.018C152.227 142.999 154.083 142.23 156.018 141.736C156.935 141.509 157.874 141.389 158.818 141.379C159.311 141.378 159.802 141.418 160.288 141.498C162.71 144.347 163.102 148.918 163.102 151.361Z" fill="white"/>
<path d="M180.018 137.2V152.698C180.018 153.86 180.837 154.329 181.838 153.748L283.408 95.109C283.937 94.7633 284.377 94.2981 284.693 93.751C285.009 93.2038 285.192 92.59 285.228 91.959V76.44C285.228 75.278 284.409 74.809 283.408 75.39L181.838 134.029C181.306 134.377 180.864 134.846 180.548 135.397C180.232 135.948 180.05 136.566 180.018 137.2Z" fill="#E6E6E6"/>
<path d="M181.838 134.029L199.926 123.592V143.29L181.838 153.727C180.837 154.308 180.018 153.839 180.018 152.677V137.2C180.05 136.566 180.232 135.948 180.548 135.397C180.864 134.846 181.306 134.377 181.838 134.029Z" fill="#407BFF"/>
<path d="M193.94 132.188C192.799 131.53 191.357 131.635 189.88 132.489C188.477 133.388 187.309 134.611 186.475 136.054C185.641 137.497 185.164 139.119 185.085 140.784C185.036 141.863 185.376 142.924 186.044 143.773L184.098 147.105C183.972 147.343 183.941 147.621 184.012 147.882C184.084 148.142 184.253 148.365 184.483 148.505C184.644 148.595 184.824 148.643 185.008 148.645C185.193 148.645 185.374 148.597 185.534 148.504C185.693 148.412 185.826 148.28 185.918 148.12L187.843 144.788C188.051 144.827 188.262 144.848 188.473 144.851C189.333 144.835 190.173 144.594 190.909 144.151C192.31 143.25 193.476 142.027 194.309 140.584C195.142 139.141 195.618 137.52 195.697 135.856C195.718 134.155 195.088 132.853 193.94 132.188ZM189.88 142.338C189.634 142.603 189.306 142.776 188.949 142.83C188.592 142.883 188.227 142.814 187.914 142.634C187.601 142.454 187.359 142.172 187.226 141.836C187.094 141.5 187.08 141.129 187.185 140.784C187.267 139.489 187.648 138.23 188.297 137.107C188.947 135.983 189.848 135.026 190.93 134.309C191.35 134.042 191.833 133.89 192.33 133.868C192.535 133.86 192.739 133.909 192.918 134.008C193.182 134.233 193.384 134.521 193.506 134.846C193.629 135.17 193.667 135.52 193.618 135.863C193.538 137.158 193.158 138.416 192.509 139.539C191.861 140.663 190.961 141.621 189.88 142.338Z" fill="white"/>
</g>
</svg>
