<svg width="306" height="229" viewBox="0 0 306 229" fill="none" xmlns="http://www.w3.org/2000/svg">
<g opacity="0.6">
<path d="M306 200.369H0V200.522H306V200.369Z" fill="#EBEBEB"/>
<path d="M275.339 210.216H255.069V210.369H275.339V210.216Z" fill="#EBEBEB"/>
<path d="M167.21 208.301H159.321V208.454H167.21V208.301Z" fill="#EBEBEB"/>
<path d="M213.997 208.948H197.388V209.101H213.997V208.948Z" fill="#EBEBEB"/>
<path d="M254.457 204.537H220.118V204.69H254.457V204.537Z" fill="#EBEBEB"/>
<path d="M48.3418 211.617H32.1055V211.77H48.3418V211.617Z" fill="#EBEBEB"/>
<path d="M67.8651 211.617H53.7891V211.77H67.8651V211.617Z" fill="#EBEBEB"/>
<path d="M117.388 208.228H80.1719V208.381H117.388V208.228Z" fill="#EBEBEB"/>
<path d="M145.044 173.074H26.8732C25.9474 173.072 25.0601 172.703 24.4061 172.048C23.7521 171.393 23.3848 170.505 23.3848 169.579V3.46392C23.3928 2.54349 23.7637 1.6634 24.4169 1.01483C25.07 0.366256 25.9527 0.00157675 26.8732 0H145.044C145.971 0 146.86 0.368172 147.515 1.02352C148.171 1.67887 148.539 2.56772 148.539 3.49452V169.579C148.539 170.506 148.171 171.395 147.515 172.05C146.86 172.705 145.971 173.074 145.044 173.074V173.074ZM26.8732 0.1224C25.988 0.124022 25.1396 0.476788 24.5143 1.10327C23.889 1.72975 23.5378 2.57875 23.5378 3.46392V169.579C23.5378 170.464 23.889 171.313 24.5143 171.94C25.1396 172.566 25.988 172.919 26.8732 172.921H145.044C145.93 172.919 146.779 172.566 147.405 171.94C148.032 171.314 148.384 170.465 148.386 169.579V3.46392C148.384 2.57819 148.032 1.7292 147.405 1.1029C146.779 0.476589 145.93 0.124018 145.044 0.1224H26.8732Z" fill="#EBEBEB"/>
<path d="M277.426 173.074H159.248C158.322 173.072 157.434 172.703 156.779 172.048C156.124 171.393 155.756 170.505 155.754 169.579V3.46392C155.764 2.54293 156.136 1.66285 156.79 1.01445C157.444 0.366042 158.327 0.00155955 159.248 0H277.426C278.345 0.00318515 279.226 0.368576 279.878 1.01698C280.53 1.66538 280.9 2.54454 280.908 3.46392V169.579C280.908 170.504 280.541 171.391 279.889 172.046C279.236 172.701 278.35 173.07 277.426 173.074V173.074ZM159.248 0.1224C158.363 0.124018 157.514 0.476589 156.887 1.1029C156.261 1.7292 155.909 2.57819 155.907 3.46392V169.579C155.909 170.465 156.261 171.314 156.887 171.94C157.514 172.566 158.363 172.919 159.248 172.921H277.426C278.311 172.919 279.16 172.566 279.787 171.94C280.413 171.314 280.766 170.465 280.767 169.579V3.46392C280.766 2.57819 280.413 1.7292 279.787 1.1029C279.16 0.476589 278.311 0.124018 277.426 0.1224H159.248Z" fill="#EBEBEB"/>
<path d="M162.119 147.731C160.895 144.212 151.231 148.997 147.308 154.83C144.695 158.71 143.098 162.859 142.357 168.428C142.443 162.076 142.547 155.246 142.645 148.802C143.441 147.198 145.252 143.496 146.549 140.558C150.901 130.766 161.237 127.094 164.805 120.937C169.487 112.834 169.457 100.686 165.479 96.2981C162.015 92.4915 150.552 118.257 149.261 121.133C145.738 128.837 143.518 137.072 142.694 145.503C142.792 139.45 142.884 133.875 142.957 129.591C143.202 115.607 143.502 111.109 143.642 109.725C144.12 109.052 144.683 108.263 145.013 107.84C147.786 104.272 153.942 100.019 157.015 94.8293C161.507 87.2466 160.785 78.1768 157.627 74.7986C154.334 71.2673 148.508 79.615 145.417 87.8831C142.327 96.1513 143.649 104.071 142.78 110.943C142.602 112.29 142.412 117.406 142.241 124.505C141.299 116.867 139.432 111.751 135.968 106.984C131.684 101.121 128.012 93.9787 124.53 94.9028C121.047 95.8269 122.908 105.27 125.686 111.904C128.134 117.816 140.374 123.703 142.149 128.459C141.935 138.079 141.745 150.27 141.611 161.617C140.65 155.754 141.311 155.264 137.369 146.286C135.032 140.95 125.429 134.371 124.285 138.037C123.14 141.702 124.897 148.63 128.502 153.483C131.427 157.4 137.914 157.394 139.414 159.824C139.769 160.393 140.925 162.566 141.586 163.814C141.427 177.67 141.36 189.904 141.439 194.071L142.051 194.114C142.051 193.037 142.1 185.987 142.223 176.66C143.802 171.697 154.408 168.802 157.682 163.637C161.127 158.257 163.594 151.953 162.119 147.731Z" fill="#E6E6E6"/>
<path d="M152.149 200.368H131.794C131.254 200.369 130.73 200.183 130.312 199.842C129.894 199.501 129.606 199.025 129.499 198.496L128.055 191.372H155.888L154.438 198.496C154.332 199.024 154.046 199.5 153.628 199.841C153.211 200.183 152.688 200.369 152.149 200.368Z" fill="#F0F0F0"/>
<path d="M156.469 194.132H127.473C127.135 194.132 126.809 194.007 126.558 193.781C126.307 193.555 126.149 193.244 126.114 192.908L125.502 187.639C125.481 187.448 125.501 187.255 125.56 187.072C125.619 186.889 125.716 186.721 125.844 186.578C125.972 186.435 126.128 186.32 126.304 186.241C126.479 186.163 126.669 186.122 126.861 186.121H157.045C157.236 186.122 157.426 186.163 157.601 186.241C157.776 186.32 157.932 186.435 158.06 186.578C158.187 186.721 158.283 186.89 158.342 187.072C158.4 187.255 158.419 187.448 158.397 187.639L157.785 192.908C157.752 193.237 157.601 193.543 157.358 193.769C157.116 193.994 156.8 194.123 156.469 194.132V194.132Z" fill="#F0F0F0"/>
<path d="M245.271 197.816H264.764V114.639H245.271V197.816Z" fill="#F0F0F0"/>
<path d="M162.455 200.369H263.447V197.817H162.455V200.369Z" fill="#F0F0F0"/>
<path d="M245.266 114.641H161.146V197.818H245.266V114.641Z" fill="#F5F5F5"/>
<path d="M237.603 147.425H168.808V165.038H237.603V147.425Z" fill="#F0F0F0"/>
<path d="M237.603 170.093H168.808V187.706H237.603V170.093Z" fill="#F0F0F0"/>
<path d="M195.485 150.46H210.926C211.977 150.46 212.829 149.609 212.829 148.56C212.829 147.51 211.977 146.659 210.926 146.659H195.485C194.434 146.659 193.582 147.51 193.582 148.56C193.582 149.609 194.434 150.46 195.485 150.46Z" fill="#F5F5F5"/>
<path d="M237.603 124.757H168.808V142.37H237.603V124.757Z" fill="#F0F0F0"/>
<path d="M195.485 127.793H210.926C211.429 127.791 211.912 127.591 212.268 127.236C212.624 126.88 212.826 126.399 212.829 125.895C212.828 125.391 212.627 124.908 212.27 124.551C211.914 124.195 211.43 123.994 210.926 123.992H195.485C194.981 123.994 194.498 124.195 194.141 124.551C193.785 124.908 193.584 125.391 193.582 125.895V125.895C193.585 126.399 193.787 126.88 194.143 127.236C194.5 127.591 194.982 127.791 195.485 127.793Z" fill="#F5F5F5"/>
<path d="M195.485 173.129H210.926C211.43 173.129 211.913 172.929 212.27 172.573C212.627 172.218 212.828 171.735 212.829 171.231V171.231C212.828 170.727 212.627 170.244 212.27 169.887C211.914 169.531 211.43 169.33 210.926 169.328H195.485C194.981 169.33 194.498 169.531 194.141 169.887C193.785 170.244 193.584 170.727 193.582 171.231V171.231C193.584 171.735 193.785 172.218 194.142 172.573C194.498 172.929 194.982 173.129 195.485 173.129V173.129Z" fill="#F5F5F5"/>
<path d="M159.413 114.641L245.265 114.641V112.266L159.413 112.266V114.641Z" fill="#F0F0F0"/>
<path d="M266.611 112.272H245.265V114.647H266.611V112.272Z" fill="#E6E6E6"/>
<path d="M90.215 200.369H109.475L109.475 75.8088H90.215L90.215 200.369Z" fill="#E0E0E0"/>
<path d="M41.1328 200.369H105.619L112.394 47.0508H47.9077L41.1328 200.369Z" fill="#E6E6E6"/>
<path d="M31.7256 200.369H103.06L109.829 47.0508H38.5004L31.7256 200.369Z" fill="#F0F0F0"/>
<path d="M96.0784 192.854L101.782 54.5723H45.4844L39.7744 192.854H96.0784Z" fill="white"/>
<path d="M71.8856 192.854L91.0228 54.5723H85.0191L65.8818 192.854H71.8856Z" fill="#FAFAFA"/>
<path d="M63.3354 192.854L82.4727 54.5723H72.2339L53.0967 192.854H63.3354Z" fill="#FAFAFA"/>
<path d="M179.603 88.8145L257.651 88.8145V15.8029L179.603 15.8029V88.8145Z" fill="#E6E6E6"/>
<path d="M177.174 88.8145L256.514 88.8145V15.8029L177.174 15.8029V88.8145Z" fill="#F5F5F5"/>
<path d="M179.603 91.7998L257.651 91.7998V88.8132L179.603 88.8132V91.7998Z" fill="#E6E6E6"/>
<path d="M175.007 91.7998L249.047 91.7998V88.8132L175.007 88.8132V91.7998Z" fill="#F5F5F5"/>
<path d="M253.124 84.2853V20.3252L180.565 20.3252V84.2853H253.124Z" fill="#FAFAFA"/>
<path d="M181.055 84.2912V20.3311H180.571V84.2912H181.055Z" fill="#E6E6E6"/>
<path d="M241.091 84.2853L228.545 20.3252H212.101L224.647 84.2853H241.091Z" fill="white"/>
<path d="M221.984 84.2853L209.438 20.3252H202.015L214.561 84.2853H221.984Z" fill="white"/>
<path d="M250.699 80.8213V13.2932C250.699 13.0871 250.532 12.9199 250.326 12.9199H250.295C250.089 12.9199 249.922 13.0871 249.922 13.2932V80.8213C249.922 81.0275 250.089 81.1946 250.295 81.1946H250.326C250.532 81.1946 250.699 81.0275 250.699 80.8213Z" fill="#EBEBEB"/>
<path opacity="0.5" d="M175.4 24.0898L258.969 24.0898V12.9147L175.4 12.9147V24.0898Z" fill="#E6E6E6"/>
<path d="M175.4 14.3027L258.969 14.3027V12.9135L175.4 12.9135V14.3027Z" fill="#E0E0E0"/>
<path d="M175.542 13.5254L258.835 13.5254C259.129 13.5254 259.367 13.287 259.367 12.9929V12.8399C259.367 12.5459 259.129 12.3075 258.835 12.3075L175.542 12.3075C175.247 12.3075 175.009 12.5459 175.009 12.8399V12.9929C175.009 13.287 175.247 13.5254 175.542 13.5254Z" fill="#EBEBEB"/>
<path d="M175.295 24.3832H259.071C259.11 24.3832 259.148 24.3755 259.183 24.3607C259.218 24.3459 259.25 24.3241 259.277 24.2968C259.304 24.2694 259.325 24.237 259.339 24.2014C259.353 24.1657 259.36 24.1277 259.359 24.0894V24.0894C259.359 24.0131 259.329 23.9399 259.275 23.886C259.221 23.8321 259.148 23.8018 259.071 23.8018H175.295C175.218 23.8017 175.144 23.8319 175.089 23.8856C175.034 23.9394 175.003 24.0126 175.001 24.0894V24.0894C175.001 24.1673 175.032 24.242 175.087 24.2971C175.142 24.3522 175.217 24.3832 175.295 24.3832Z" fill="white"/>
<path d="M153.002 228.006C218.537 228.006 271.663 224.904 271.663 221.078C271.663 217.252 218.537 214.15 153.002 214.15C87.468 214.15 34.3418 217.252 34.3418 221.078C34.3418 224.904 87.468 228.006 153.002 228.006Z" fill="#F5F5F5"/>
<path d="M39.6806 132.855L39.0605 132.928L40.1624 142.35L40.7824 142.277L39.6806 132.855Z" fill="#407BFF"/>
<path d="M41.1933 145.781L40.5732 145.854L41.1291 150.607L41.7491 150.534L41.1933 145.781Z" fill="#407BFF"/>
<path d="M82.3671 113.644L81.6327 111.581C81.1276 110.164 80.1563 108.96 78.8778 108.166C77.5993 107.372 76.0893 107.036 74.5947 107.212L45.3472 110.633C43.5952 110.838 41.9964 111.731 40.9027 113.115C39.8089 114.499 39.3097 116.261 39.5149 118.013L47.8381 189.189C47.9072 189.784 48.093 190.36 48.3848 190.884C48.6767 191.407 49.0688 191.868 49.5389 192.24C50.009 192.611 50.5477 192.887 51.1244 193.05C51.701 193.213 52.3041 193.261 52.8993 193.192L157.551 180.952C158.148 180.884 158.725 180.699 159.25 180.408C159.775 180.117 160.237 179.725 160.61 179.255C160.983 178.784 161.259 178.245 161.423 177.668C161.587 177.09 161.636 176.486 161.566 175.89L154.344 114.36C154.205 113.159 153.594 112.062 152.646 111.312C151.698 110.561 150.49 110.218 149.289 110.357L88.5177 117.469C87.2111 117.62 85.8919 117.324 84.7749 116.63C83.658 115.935 82.8093 114.883 82.3671 113.644Z" fill="#407BFF"/>
<path d="M85.2886 82.6922L52.2236 89.2812L61.3016 134.836L94.3666 128.247L85.2886 82.6922Z" fill="#407BFF"/>
<path opacity="0.7" d="M85.2886 82.6922L52.2236 89.2812L61.3016 134.836L94.3666 128.247L85.2886 82.6922Z" fill="white"/>
<g opacity="0.4">
<path d="M80.8763 93.6375L60.5089 97.7012C60.0344 97.7933 59.5428 97.6945 59.1406 97.4264C58.7385 97.1583 58.4583 96.7425 58.3608 96.2691V96.2691C58.2687 95.7946 58.3674 95.303 58.6355 94.9008C58.9036 94.4987 59.3195 94.2184 59.7929 94.121L80.1725 90.0756C80.6469 89.9835 81.1386 90.0823 81.5408 90.3504C81.9429 90.6185 82.2231 91.0343 82.3206 91.5077V91.5077C82.407 91.9812 82.3041 92.4697 82.034 92.868C81.7639 93.2663 81.3481 93.5426 80.8763 93.6375V93.6375Z" fill="#407BFF"/>
<path d="M82.3768 101.183L62.0095 105.265C61.5359 105.355 61.0458 105.255 60.6451 104.988C60.2443 104.72 59.965 104.305 59.8675 103.833V103.833C59.7772 103.359 59.8767 102.869 60.1447 102.468C60.4126 102.067 60.8274 101.788 61.2996 101.691L81.6669 97.6331C82.1405 97.5428 82.6305 97.6423 83.0313 97.9103C83.4321 98.1782 83.7114 98.5931 83.8089 99.0652C83.8922 99.535 83.7892 100.019 83.5219 100.414C83.2546 100.809 82.8439 101.085 82.3768 101.183V101.183Z" fill="#407BFF"/>
<path d="M83.8749 108.717L63.5075 112.775C63.034 112.865 62.5439 112.766 62.1431 112.498C61.7424 112.23 61.463 111.815 61.3655 111.343V111.343C61.2752 110.869 61.3748 110.379 61.6427 109.978C61.9107 109.578 62.3255 109.298 62.7976 109.201L83.165 105.137C83.6385 105.047 84.1286 105.146 84.5294 105.414C84.9301 105.682 85.2094 106.097 85.307 106.569V106.569C85.3991 107.044 85.3004 107.535 85.0322 107.937C84.7641 108.34 84.3483 108.62 83.8749 108.717V108.717Z" fill="#407BFF"/>
<path d="M85.3812 116.282L65.0138 120.339C64.5393 120.431 64.0477 120.333 63.6455 120.065C63.2434 119.797 62.9632 119.381 62.8657 118.907C62.7736 118.433 62.8723 117.941 63.1404 117.539C63.4085 117.137 63.8244 116.857 64.2978 116.759L84.6651 112.702C85.1396 112.61 85.6312 112.708 86.0334 112.976C86.4355 113.244 86.7158 113.66 86.8132 114.134V114.134C86.9053 114.608 86.8066 115.1 86.5385 115.502C86.2704 115.904 85.8546 116.184 85.3812 116.282V116.282Z" fill="#407BFF"/>
<path d="M81.3107 124.892L66.5126 127.842C66.039 127.932 65.5489 127.833 65.1482 127.565C64.7474 127.297 64.4681 126.882 64.3706 126.41V126.41C64.2785 125.935 64.3772 125.444 64.6453 125.042C64.9134 124.639 65.3292 124.359 65.8026 124.262L80.6008 121.312C81.0744 121.221 81.5644 121.321 81.9652 121.589C82.366 121.857 82.6453 122.272 82.7428 122.744V122.744C82.8349 123.218 82.7362 123.71 82.4681 124.112C82.2 124.514 81.7841 124.795 81.3107 124.892V124.892Z" fill="#407BFF"/>
</g>
<path d="M132.401 73.9136L98.9971 78.4834L105.293 124.506L138.697 119.936L132.401 73.9136Z" fill="#407BFF"/>
<path opacity="0.7" d="M132.401 73.9136L98.9971 78.4834L105.293 124.506L138.697 119.936L132.401 73.9136Z" fill="white"/>
<g opacity="0.4">
<path d="M127.333 84.5788L106.757 87.394C106.278 87.4569 105.794 87.3283 105.409 87.0361C105.024 86.744 104.77 86.3118 104.701 85.8334V85.8334C104.638 85.3543 104.767 84.8696 105.059 84.4847C105.351 84.0997 105.783 83.8455 106.262 83.7771L126.837 80.9619C127.316 80.899 127.801 81.0276 128.186 81.3198C128.571 81.6119 128.825 82.0441 128.894 82.5225V82.5225C128.956 83.0017 128.828 83.4863 128.536 83.8712C128.243 84.2562 127.811 84.5104 127.333 84.5788V84.5788Z" fill="#407BFF"/>
<path d="M128.373 92.1851L107.798 95.0003C107.319 95.0632 106.834 94.9346 106.449 94.6424C106.064 94.3503 105.81 93.9181 105.741 93.4397V93.4397C105.68 92.9615 105.81 92.4785 106.102 92.0949C106.394 91.7113 106.825 91.4579 107.302 91.3895L127.877 88.5743C128.356 88.5113 128.839 88.6391 129.224 88.93C129.609 89.2209 129.864 89.6515 129.934 90.1288V90.1288C129.997 90.608 129.868 91.0926 129.576 91.4775C129.284 91.8625 128.852 92.1167 128.373 92.1851V92.1851Z" fill="#407BFF"/>
<path d="M114.505 101.837L108.838 102.614C108.358 102.677 107.874 102.548 107.489 102.256C107.104 101.964 106.85 101.532 106.781 101.053C106.718 100.574 106.847 100.09 107.139 99.7047C107.431 99.3198 107.863 99.0655 108.342 98.9971L114.015 98.2199C114.493 98.1588 114.976 98.2882 115.36 98.5802C115.743 98.8722 115.997 99.3033 116.065 99.7805V99.7805C116.128 100.26 116 100.744 115.707 101.129C115.415 101.514 114.983 101.768 114.505 101.837Z" fill="#407BFF"/>
<path d="M125.504 100.332L119.83 101.109C119.352 101.17 118.869 101.041 118.486 100.749C118.102 100.457 117.849 100.025 117.78 99.5482V99.5482C117.717 99.0691 117.846 98.5845 118.138 98.1995C118.43 97.8146 118.862 97.5603 119.341 97.4919L125.008 96.7208C125.486 96.6578 125.97 96.7856 126.355 97.0765C126.74 97.3674 126.994 97.798 127.064 98.2753V98.2753C127.127 98.7544 126.999 99.2391 126.706 99.624C126.414 100.009 125.982 100.263 125.504 100.332V100.332Z" fill="#407BFF"/>
<path d="M130.454 107.406L109.879 110.221C109.4 110.284 108.915 110.155 108.53 109.863C108.145 109.571 107.891 109.139 107.822 108.661V108.661C107.761 108.182 107.891 107.699 108.183 107.316C108.475 106.932 108.906 106.679 109.383 106.61L129.958 103.789C130.438 103.726 130.922 103.855 131.307 104.147C131.692 104.439 131.946 104.871 132.015 105.35C132.078 105.829 131.949 106.313 131.657 106.698C131.365 107.083 130.933 107.338 130.454 107.406V107.406Z" fill="#407BFF"/>
<path d="M125.876 115.784L110.918 117.828C110.441 117.889 109.959 117.761 109.576 117.47C109.192 117.179 108.938 116.75 108.868 116.274V116.274C108.805 115.795 108.933 115.311 109.224 114.927C109.515 114.542 109.945 114.287 110.423 114.217L125.38 112.173C125.857 112.112 126.34 112.24 126.723 112.531C127.106 112.822 127.36 113.252 127.43 113.728C127.493 114.206 127.365 114.69 127.075 115.074C126.784 115.459 126.353 115.714 125.876 115.784V115.784Z" fill="#407BFF"/>
</g>
<path d="M100.883 80.626L67.2949 83.5527L71.3272 129.828L104.915 126.901L100.883 80.626Z" fill="#407BFF"/>
<path opacity="0.8" d="M100.883 80.626L67.2949 83.5527L71.3272 129.828L104.915 126.901L100.883 80.626Z" fill="white"/>
<g opacity="0.4">
<path d="M95.2942 91.0411L74.6024 92.8403C74.121 92.8795 73.6436 92.7273 73.2736 92.4169C72.9036 92.1065 72.6708 91.6627 72.6257 91.1818C72.5882 90.7014 72.7411 90.2256 73.0514 89.8569C73.3617 89.4882 73.8045 89.2563 74.2842 89.2112L94.9759 87.3752C95.4573 87.336 95.9348 87.4882 96.3048 87.7986C96.6748 88.1091 96.9076 88.5528 96.9527 89.0337V89.0337C96.9763 89.2745 96.9521 89.5177 96.8814 89.7491C96.8107 89.9805 96.695 90.1957 96.5408 90.3823C96.3867 90.5688 96.1972 90.723 95.9833 90.8361C95.7693 90.9492 95.5351 91.0188 95.2942 91.0411V91.0411Z" fill="#407BFF"/>
<path d="M95.9616 98.6911L75.2699 100.527C74.7885 100.566 74.3111 100.414 73.941 100.104C73.571 99.7932 73.3383 99.3495 73.2932 98.8686V98.8686C73.254 98.3872 73.4061 97.9097 73.7166 97.5397C74.027 97.1697 74.4708 96.9369 74.9517 96.8918L95.6434 95.0558C96.1248 95.0167 96.6022 95.1688 96.9723 95.4793C97.3423 95.7897 97.575 96.2335 97.6201 96.7144V96.7144C97.6593 97.1958 97.5072 97.6732 97.1967 98.0432C96.8863 98.4132 96.4425 98.646 95.9616 98.6911V98.6911Z" fill="#407BFF"/>
<path d="M96.6286 106.342L75.9369 108.178C75.4555 108.217 74.9781 108.065 74.608 107.754C74.238 107.444 74.0052 107 73.9601 106.519C73.921 106.038 74.0731 105.56 74.3836 105.19C74.694 104.82 75.1378 104.587 75.6187 104.542L96.3104 102.706C96.7918 102.667 97.2692 102.819 97.6393 103.13C98.0093 103.44 98.242 103.884 98.2871 104.365C98.3263 104.846 98.1741 105.324 97.8637 105.694C97.5533 106.064 97.1095 106.296 96.6286 106.342V106.342Z" fill="#407BFF"/>
<path d="M97.3083 113.99L76.6166 115.826C76.1352 115.865 75.6577 115.713 75.2877 115.403C74.9177 115.092 74.6849 114.649 74.6398 114.168V114.168C74.6007 113.686 74.7528 113.209 75.0633 112.839C75.3737 112.469 75.8175 112.236 76.2984 112.191L96.9901 110.392C97.4715 110.353 97.9489 110.505 98.3189 110.815C98.689 111.126 98.9217 111.569 98.9668 112.05C98.996 112.526 98.8393 112.994 98.5298 113.356C98.2204 113.718 97.7824 113.945 97.3083 113.99V113.99Z" fill="#407BFF"/>
<path d="M92.3085 122.137L77.2717 123.447C76.7873 123.491 76.3051 123.342 75.931 123.031C75.5569 122.72 75.3216 122.273 75.2766 121.789V121.789C75.2374 121.307 75.3895 120.83 75.7 120.46C76.0104 120.09 76.4542 119.857 76.9351 119.812L91.9719 118.502C92.4533 118.463 92.9308 118.615 93.3008 118.926C93.6708 119.236 93.9036 119.68 93.9487 120.161V120.161C93.988 120.639 93.8384 121.114 93.5318 121.484C93.2252 121.853 92.7861 122.088 92.3085 122.137V122.137Z" fill="#407BFF"/>
</g>
<path d="M141.81 78.3785L108.134 80.002L110.371 126.399L144.046 124.775L141.81 78.3785Z" fill="#407BFF"/>
<path opacity="0.8" d="M141.81 78.3785L108.134 80.002L110.371 126.399L144.046 124.775L141.81 78.3785Z" fill="white"/>
<g opacity="0.4">
<path d="M135.827 88.557L115.086 89.5607C114.604 89.5808 114.133 89.4103 113.776 89.0862C113.419 88.7621 113.203 88.3104 113.176 87.8288V87.8288C113.156 87.3468 113.327 86.8763 113.651 86.519C113.975 86.1617 114.427 85.9462 114.908 85.9193L135.655 84.9157C136.137 84.8956 136.608 85.0661 136.965 85.3902C137.322 85.7143 137.538 86.166 137.565 86.6476V86.6476C137.585 87.1306 137.413 87.602 137.088 87.9595C136.763 88.317 136.309 88.5317 135.827 88.557V88.557Z" fill="#407BFF"/>
<path d="M136.2 96.2321L115.453 97.2297C114.971 97.2497 114.501 97.0793 114.143 96.7552C113.786 96.4311 113.57 95.9793 113.544 95.4977V95.4977C113.524 95.0147 113.695 94.5433 114.02 94.1858C114.346 93.8284 114.799 93.6136 115.282 93.5883L136.022 92.5846C136.505 92.5646 136.977 92.7359 137.334 93.0613C137.692 93.3867 137.906 93.8399 137.932 94.3227C137.952 94.8046 137.781 95.2752 137.457 95.6325C137.133 95.9898 136.681 96.2052 136.2 96.2321V96.2321Z" fill="#407BFF"/>
<path d="M121.543 104.653L115.827 104.928C115.345 104.948 114.875 104.778 114.517 104.454C114.16 104.13 113.945 103.678 113.918 103.196V103.196C113.898 102.714 114.068 102.244 114.392 101.887C114.716 101.529 115.168 101.314 115.65 101.287L121.366 101.005C121.849 100.985 122.32 101.157 122.678 101.482C123.035 101.808 123.25 102.261 123.275 102.744V102.744C123.295 103.226 123.125 103.696 122.801 104.053C122.476 104.411 122.025 104.626 121.543 104.653V104.653Z" fill="#407BFF"/>
<path d="M132.625 104.09L126.909 104.366C126.427 104.386 125.957 104.215 125.599 103.891C125.242 103.567 125.027 103.115 125 102.634V102.634C124.98 102.152 125.15 101.681 125.474 101.324C125.798 100.967 126.25 100.751 126.732 100.724L132.448 100.449C132.93 100.429 133.4 100.599 133.757 100.923C134.115 101.247 134.33 101.699 134.357 102.181V102.181C134.377 102.663 134.207 103.133 133.883 103.491C133.559 103.848 133.107 104.063 132.625 104.09V104.09Z" fill="#407BFF"/>
<path d="M136.941 111.575L116.194 112.572C115.712 112.592 115.242 112.422 114.884 112.098C114.527 111.774 114.312 111.322 114.285 110.84V110.84C114.265 110.357 114.436 109.886 114.761 109.529C115.087 109.171 115.54 108.956 116.023 108.931L136.764 107.927C137.247 107.907 137.718 108.079 138.075 108.404C138.433 108.729 138.648 109.183 138.673 109.665C138.693 110.147 138.523 110.618 138.198 110.975C137.874 111.333 137.423 111.548 136.941 111.575Z" fill="#407BFF"/>
<path d="M131.639 119.519L116.565 120.247C116.083 120.267 115.613 120.097 115.256 119.773C114.898 119.449 114.683 118.997 114.656 118.515C114.636 118.033 114.806 117.563 115.13 117.205C115.454 116.848 115.906 116.633 116.388 116.606L131.461 115.878C131.943 115.858 132.414 116.028 132.771 116.352C133.129 116.676 133.344 117.128 133.371 117.61V117.61C133.391 118.092 133.22 118.562 132.896 118.919C132.572 119.277 132.121 119.492 131.639 119.519V119.519Z" fill="#407BFF"/>
</g>
<path d="M91.708 114.96L91.1695 112.947C90.7922 111.553 89.9161 110.347 88.7077 109.557C87.4992 108.767 86.0427 108.449 84.615 108.663L55.3675 112.084C53.5931 112.301 51.959 113.158 50.7714 114.495C49.5839 115.831 48.9246 117.554 48.917 119.342L50.5755 189.018C50.5854 189.592 50.7181 190.157 50.9645 190.676C51.211 191.194 51.5656 191.653 52.0045 192.023C52.4434 192.393 52.9564 192.665 53.509 192.82C54.0617 192.975 54.6411 193.01 55.2084 192.923L159.86 180.683C161.075 180.535 162.195 179.95 163.01 179.036C163.824 178.123 164.278 176.943 164.285 175.719L162.853 115.486C162.842 114.912 162.709 114.347 162.462 113.829C162.214 113.31 161.859 112.851 161.42 112.481C160.981 112.111 160.467 111.84 159.914 111.685C159.361 111.529 158.782 111.494 158.214 111.582L97.4486 118.687C96.2012 118.878 94.9274 118.603 93.869 117.916C92.8107 117.229 92.0417 116.177 91.708 114.96Z" fill="#407BFF"/>
<path opacity="0.3" d="M91.708 114.96L91.1695 112.947C90.7922 111.553 89.9161 110.347 88.7077 109.557C87.4992 108.767 86.0427 108.449 84.615 108.663L55.3675 112.084C53.5931 112.301 51.959 113.158 50.7714 114.495C49.5839 115.831 48.9246 117.554 48.917 119.342L50.5755 189.018C50.5854 189.592 50.7181 190.157 50.9645 190.676C51.211 191.194 51.5656 191.653 52.0045 192.023C52.4434 192.393 52.9564 192.665 53.509 192.82C54.0617 192.975 54.6411 193.01 55.2084 192.923L159.86 180.683C161.075 180.535 162.195 179.95 163.01 179.036C163.824 178.123 164.278 176.943 164.285 175.719L162.853 115.486C162.842 114.912 162.709 114.347 162.462 113.829C162.214 113.31 161.859 112.851 161.42 112.481C160.981 112.111 160.467 111.84 159.914 111.685C159.361 111.529 158.782 111.494 158.214 111.582L97.4486 118.687C96.2012 118.878 94.9274 118.603 93.869 117.916C92.8107 117.229 92.0417 116.177 91.708 114.96Z" fill="black"/>
</g>
</svg>
