<svg width="375" height="309" viewBox="0 0 375 309" fill="none" xmlns="http://www.w3.org/2000/svg">
<g clip-path="url(#clip0_4046_37056)">
<rect width="375" height="282" fill="white"/>
<path fill-rule="evenodd" clip-rule="evenodd" d="M264.316 221.071C261.313 224.915 255.756 225.591 251.905 222.582C248.053 219.573 247.365 214.017 250.368 210.174C263.237 193.703 268.919 173.263 266.747 152.874C264.475 131.549 253.798 111.977 236.543 98.4963C201.879 71.4137 151.867 77.5037 124.838 112.099C101.758 141.64 102.607 183.129 126.228 211.693C129.342 215.46 128.817 221.03 125.055 224.136C121.293 227.242 115.718 226.706 112.604 222.94C83.7175 188.007 82.6801 137.309 110.891 101.201C143.926 58.9187 205.051 51.4754 247.418 84.5764C268.494 101.043 281.559 124.992 284.334 151.035C286.987 175.939 280.034 200.954 264.316 221.071Z" fill="#F3F5F8"/>
<path fill-rule="evenodd" clip-rule="evenodd" d="M113.091 223.632C116.227 227.369 121.804 227.851 125.548 224.709C129.292 221.568 129.786 215.992 126.65 212.255C113.215 196.243 106.823 176.014 108.282 155.561C109.809 134.17 119.796 114.238 136.57 100.163C155.642 84.1593 180.617 78.1685 204.482 83.2592C209.256 84.2777 213.96 81.2327 214.988 76.4581C216.016 71.6835 212.98 66.9874 208.205 65.9689C179.064 59.7525 148.515 67.0805 125.215 86.6312C104.727 103.823 92.5058 128.213 90.6418 154.338C88.8593 179.319 96.6815 204.076 113.091 223.632Z" fill="#E7E7E7"/>
<path fill-rule="evenodd" clip-rule="evenodd" d="M266.124 230.366L263.897 228.431C264.024 228.285 264.15 228.139 264.276 227.992L266.513 229.915C266.384 230.066 266.254 230.216 266.124 230.366ZM279.629 210.71L277.024 209.326C277.114 209.155 277.205 208.984 277.294 208.813L279.907 210.181C279.815 210.358 279.722 210.534 279.629 210.71ZM288.3 188.485L285.449 187.731C285.498 187.544 285.547 187.356 285.595 187.168L288.45 187.905C288.401 188.099 288.35 188.292 288.3 188.485ZM291.682 164.875L288.735 164.786C288.741 164.593 288.746 164.399 288.75 164.205L291.697 164.278C291.692 164.477 291.687 164.676 291.682 164.875ZM289.641 141.08L286.752 141.658C286.713 141.468 286.675 141.278 286.635 141.088L289.521 140.494C289.561 140.689 289.601 140.885 289.641 141.08ZM282.283 118.37L279.601 119.587C279.521 119.411 279.44 119.235 279.358 119.059L282.033 117.826C282.117 118.007 282.2 118.188 282.283 118.37ZM269.945 97.9111L267.613 99.709C267.495 99.5555 267.376 99.4024 267.256 99.2496L269.578 97.4384C269.701 97.5956 269.823 97.7532 269.945 97.9111ZM253.289 80.7835L251.423 83.0607C251.274 82.9387 251.125 82.8172 250.975 82.6961L252.829 80.4085C252.982 80.533 253.136 80.658 253.289 80.7835ZM233.197 67.8223L231.896 70.4641C231.722 70.3783 231.548 70.293 231.374 70.2082L232.659 67.5589C232.838 67.6461 233.018 67.734 233.197 67.8223ZM210.703 59.7795L210.04 62.6494C209.851 62.6053 209.661 62.5617 209.471 62.5187L210.117 59.645C210.313 59.6893 210.508 59.7341 210.703 59.7795ZM186.999 57.053L187.003 59.9997C186.81 59.9995 186.616 59.9999 186.423 60.0009L186.403 57.0543C186.601 57.0533 186.8 57.0529 186.999 57.053ZM163.259 59.7484L163.928 62.6195C163.739 62.6631 163.55 62.7072 163.362 62.7519L162.676 59.8846C162.87 59.8386 163.065 59.7932 163.259 59.7484ZM140.759 67.7447L142.063 70.3901C141.889 70.4755 141.716 70.5613 141.542 70.6476L140.224 68.0097C140.402 67.9209 140.581 67.8326 140.759 67.7447ZM120.735 80.6237L122.606 82.9038C122.457 83.0264 122.307 83.1494 122.159 83.2729L120.274 81.0034C120.427 80.8764 120.581 80.7498 120.735 80.6237ZM104.128 97.7411L106.463 99.5437C106.345 99.6971 106.227 99.8509 106.109 100.005L103.764 98.2156C103.885 98.0571 104.006 97.8989 104.128 97.7411ZM91.8021 118.183L94.485 119.408C94.4046 119.585 94.3247 119.762 94.2453 119.938L91.5555 118.728C91.6371 118.546 91.7193 118.364 91.8021 118.183ZM84.4776 140.881L87.3681 141.464C87.3303 141.653 87.293 141.842 87.2563 142.032L84.3626 141.466C84.4004 141.271 84.4387 141.076 84.4776 140.881ZM82.4999 164.649L85.4459 164.564C85.4519 164.757 85.4584 164.95 85.4654 165.143L82.5199 165.244C82.5127 165.046 82.506 164.847 82.4999 164.649ZM85.943 188.296L88.7925 187.549C88.8421 187.736 88.8923 187.924 88.9431 188.112L86.0979 188.876C86.0457 188.683 85.9941 188.49 85.943 188.296ZM94.6396 210.534L97.2433 209.158C97.3341 209.329 97.4253 209.5 97.517 209.671L94.9213 211.062C94.8269 210.886 94.733 210.71 94.6396 210.534ZM108.162 230.202L110.382 228.269C110.51 228.415 110.637 228.561 110.766 228.706L108.556 230.652C108.424 230.503 108.293 230.353 108.162 230.202Z" fill="#505D6F"/>
<g clip-path="url(#clip1_4046_37056)">
<path d="M96.7949 238.02V239.414C96.7949 240.082 96.7285 240.652 96.5957 241.125C96.4668 241.594 96.2793 241.975 96.0332 242.268C95.7871 242.561 95.4922 242.775 95.1484 242.912C94.8086 243.049 94.4277 243.117 94.0059 243.117C93.6699 243.117 93.3574 243.074 93.0684 242.988C92.7832 242.902 92.5254 242.768 92.2949 242.584C92.0645 242.4 91.8672 242.164 91.7031 241.875C91.543 241.582 91.418 241.232 91.3281 240.826C91.2422 240.42 91.1992 239.949 91.1992 239.414V238.02C91.1992 237.348 91.2656 236.781 91.3984 236.32C91.5312 235.855 91.7207 235.479 91.9668 235.189C92.2129 234.896 92.5059 234.684 92.8457 234.551C93.1895 234.418 93.5723 234.352 93.9941 234.352C94.334 234.352 94.6465 234.395 94.9316 234.48C95.2207 234.562 95.4785 234.693 95.7051 234.873C95.9355 235.053 96.1309 235.287 96.291 235.576C96.4551 235.861 96.5801 236.207 96.666 236.613C96.752 237.016 96.7949 237.484 96.7949 238.02ZM95.3828 239.613V237.809C95.3828 237.469 95.3633 237.17 95.3242 236.912C95.2852 236.65 95.2266 236.43 95.1484 236.25C95.0742 236.066 94.9805 235.918 94.8672 235.805C94.7539 235.688 94.625 235.604 94.4805 235.553C94.3359 235.498 94.1738 235.471 93.9941 235.471C93.7754 235.471 93.5801 235.514 93.4082 235.6C93.2363 235.682 93.0918 235.814 92.9746 235.998C92.8574 236.182 92.7676 236.424 92.7051 236.725C92.6465 237.021 92.6172 237.383 92.6172 237.809V239.613C92.6172 239.957 92.6367 240.26 92.6758 240.521C92.7148 240.783 92.7734 241.008 92.8516 241.195C92.9297 241.379 93.0234 241.531 93.1328 241.652C93.2461 241.77 93.375 241.855 93.5195 241.91C93.668 241.965 93.8301 241.992 94.0059 241.992C94.2285 241.992 94.4258 241.949 94.5977 241.863C94.7695 241.777 94.9141 241.641 95.0312 241.453C95.1484 241.262 95.2363 241.014 95.2949 240.709C95.3535 240.404 95.3828 240.039 95.3828 239.613Z" fill="#505D6F"/>
<path d="M89.543 87.875V89H83.8242V88.0332L86.6016 85.0039C86.9062 84.6602 87.1465 84.3633 87.3223 84.1133C87.498 83.8633 87.6211 83.6387 87.6914 83.4395C87.7656 83.2363 87.8027 83.0391 87.8027 82.8477C87.8027 82.5781 87.752 82.3418 87.6504 82.1387C87.5527 81.9316 87.4082 81.7695 87.2168 81.6523C87.0254 81.5312 86.793 81.4707 86.5195 81.4707C86.2031 81.4707 85.9375 81.5391 85.7227 81.6758C85.5078 81.8125 85.3457 82.002 85.2363 82.2441C85.127 82.4824 85.0723 82.7559 85.0723 83.0645H83.6602C83.6602 82.5684 83.7734 82.1152 84 81.7051C84.2266 81.291 84.5547 80.9629 84.9844 80.7207C85.4141 80.4746 85.9316 80.3516 86.5371 80.3516C87.1074 80.3516 87.5918 80.4473 87.9902 80.6387C88.3887 80.8301 88.6914 81.1016 88.8984 81.4531C89.1094 81.8047 89.2148 82.2207 89.2148 82.7012C89.2148 82.9668 89.1719 83.2305 89.0859 83.4922C89 83.7539 88.877 84.0156 88.7168 84.2773C88.5605 84.5352 88.375 84.7949 88.1602 85.0566C87.9453 85.3145 87.709 85.5762 87.4512 85.8418L85.6055 87.875H89.543ZM92.127 85.0332L91.002 84.7578L91.4648 80.4688H96.0645V81.6641H92.6367L92.4023 83.7559C92.5352 83.6777 92.7188 83.6016 92.9531 83.5273C93.1875 83.4492 93.4551 83.4102 93.7559 83.4102C94.1582 83.4102 94.5176 83.4766 94.834 83.6094C95.1543 83.7383 95.4258 83.9277 95.6484 84.1777C95.8711 84.4238 96.041 84.7246 96.1582 85.0801C96.2754 85.4316 96.334 85.8281 96.334 86.2695C96.334 86.6641 96.2754 87.0332 96.1582 87.377C96.0449 87.7207 95.873 88.0234 95.6426 88.2852C95.4121 88.5469 95.1211 88.752 94.7695 88.9004C94.4219 89.0449 94.0098 89.1172 93.5332 89.1172C93.1777 89.1172 92.8359 89.0664 92.5078 88.9648C92.1836 88.8594 91.8926 88.7051 91.6348 88.502C91.377 88.2949 91.1699 88.041 91.0137 87.7402C90.8574 87.4355 90.7676 87.0859 90.7441 86.6914H92.127C92.1621 86.9688 92.2383 87.2051 92.3555 87.4004C92.4766 87.5918 92.6367 87.7383 92.8359 87.8398C93.0352 87.9414 93.2656 87.9922 93.5273 87.9922C93.7656 87.9922 93.9707 87.9512 94.1426 87.8691C94.3145 87.7832 94.457 87.6621 94.5703 87.5059C94.6875 87.3457 94.7734 87.1582 94.8281 86.9434C94.8867 86.7285 94.916 86.4902 94.916 86.2285C94.916 85.9785 94.8828 85.75 94.8164 85.543C94.7539 85.3359 94.6582 85.1562 94.5293 85.0039C94.4043 84.8516 94.2461 84.7344 94.0547 84.6523C93.8633 84.5664 93.6426 84.5234 93.3926 84.5234C93.0566 84.5234 92.7988 84.5723 92.6191 84.6699C92.4434 84.7676 92.2793 84.8887 92.127 85.0332Z" fill="#505D6F"/>
<path d="M182.307 42.0332L181.182 41.7578L181.645 37.4688H186.244V38.6641H182.816L182.582 40.7559C182.715 40.6777 182.898 40.6016 183.133 40.5273C183.367 40.4492 183.635 40.4102 183.936 40.4102C184.338 40.4102 184.697 40.4766 185.014 40.6094C185.334 40.7383 185.605 40.9277 185.828 41.1777C186.051 41.4238 186.221 41.7246 186.338 42.0801C186.455 42.4316 186.514 42.8281 186.514 43.2695C186.514 43.6641 186.455 44.0332 186.338 44.377C186.225 44.7207 186.053 45.0234 185.822 45.2852C185.592 45.5469 185.301 45.752 184.949 45.9004C184.602 46.0449 184.189 46.1172 183.713 46.1172C183.357 46.1172 183.016 46.0664 182.688 45.9648C182.363 45.8594 182.072 45.7051 181.814 45.502C181.557 45.2949 181.35 45.041 181.193 44.7402C181.037 44.4355 180.947 44.0859 180.924 43.6914H182.307C182.342 43.9688 182.418 44.2051 182.535 44.4004C182.656 44.5918 182.816 44.7383 183.016 44.8398C183.215 44.9414 183.445 44.9922 183.707 44.9922C183.945 44.9922 184.15 44.9512 184.322 44.8691C184.494 44.7832 184.637 44.6621 184.75 44.5059C184.867 44.3457 184.953 44.1582 185.008 43.9434C185.066 43.7285 185.096 43.4902 185.096 43.2285C185.096 42.9785 185.062 42.75 184.996 42.543C184.934 42.3359 184.838 42.1562 184.709 42.0039C184.584 41.8516 184.426 41.7344 184.234 41.6523C184.043 41.5664 183.822 41.5234 183.572 41.5234C183.236 41.5234 182.979 41.5723 182.799 41.6699C182.623 41.7676 182.459 41.8887 182.307 42.0332ZM193.205 41.0195V42.4141C193.205 43.082 193.139 43.6523 193.006 44.125C192.877 44.5938 192.689 44.9746 192.443 45.2676C192.197 45.5605 191.902 45.7754 191.559 45.9121C191.219 46.0488 190.838 46.1172 190.416 46.1172C190.08 46.1172 189.768 46.0742 189.479 45.9883C189.193 45.9023 188.936 45.7676 188.705 45.584C188.475 45.4004 188.277 45.1641 188.113 44.875C187.953 44.582 187.828 44.2324 187.738 43.8262C187.652 43.4199 187.609 42.9492 187.609 42.4141V41.0195C187.609 40.3477 187.676 39.7812 187.809 39.3203C187.941 38.8555 188.131 38.4785 188.377 38.1895C188.623 37.8965 188.916 37.6836 189.256 37.5508C189.6 37.418 189.982 37.3516 190.404 37.3516C190.744 37.3516 191.057 37.3945 191.342 37.4805C191.631 37.5625 191.889 37.6934 192.115 37.873C192.346 38.0527 192.541 38.2871 192.701 38.5762C192.865 38.8613 192.99 39.207 193.076 39.6133C193.162 40.0156 193.205 40.4844 193.205 41.0195ZM191.793 42.6133V40.8086C191.793 40.4688 191.773 40.1699 191.734 39.9121C191.695 39.6504 191.637 39.4297 191.559 39.25C191.484 39.0664 191.391 38.918 191.277 38.8047C191.164 38.6875 191.035 38.6035 190.891 38.5527C190.746 38.498 190.584 38.4707 190.404 38.4707C190.186 38.4707 189.99 38.5137 189.818 38.5996C189.646 38.6816 189.502 38.8145 189.385 38.998C189.268 39.1816 189.178 39.4238 189.115 39.7246C189.057 40.0215 189.027 40.3828 189.027 40.8086V42.6133C189.027 42.957 189.047 43.2598 189.086 43.5215C189.125 43.7832 189.184 44.0078 189.262 44.1953C189.34 44.3789 189.434 44.5312 189.543 44.6523C189.656 44.7695 189.785 44.8555 189.93 44.9102C190.078 44.9648 190.24 44.9922 190.416 44.9922C190.639 44.9922 190.836 44.9492 191.008 44.8633C191.18 44.7773 191.324 44.6406 191.441 44.4531C191.559 44.2617 191.646 44.0137 191.705 43.709C191.764 43.4043 191.793 43.0391 191.793 42.6133Z" fill="#505D6F"/>
<path d="M283.49 80.4688V81.2422L280.08 89H278.592L281.996 81.5938H277.578V80.4688H283.49ZM286.127 85.0332L285.002 84.7578L285.465 80.4688H290.064V81.6641H286.637L286.402 83.7559C286.535 83.6777 286.719 83.6016 286.953 83.5273C287.188 83.4492 287.455 83.4102 287.756 83.4102C288.158 83.4102 288.518 83.4766 288.834 83.6094C289.154 83.7383 289.426 83.9277 289.648 84.1777C289.871 84.4238 290.041 84.7246 290.158 85.0801C290.275 85.4316 290.334 85.8281 290.334 86.2695C290.334 86.6641 290.275 87.0332 290.158 87.377C290.045 87.7207 289.873 88.0234 289.643 88.2852C289.412 88.5469 289.121 88.752 288.77 88.9004C288.422 89.0449 288.01 89.1172 287.533 89.1172C287.178 89.1172 286.836 89.0664 286.508 88.9648C286.184 88.8594 285.893 88.7051 285.635 88.502C285.377 88.2949 285.17 88.041 285.014 87.7402C284.857 87.4355 284.768 87.0859 284.744 86.6914H286.127C286.162 86.9688 286.238 87.2051 286.355 87.4004C286.477 87.5918 286.637 87.7383 286.836 87.8398C287.035 87.9414 287.266 87.9922 287.527 87.9922C287.766 87.9922 287.971 87.9512 288.143 87.8691C288.314 87.7832 288.457 87.6621 288.57 87.5059C288.688 87.3457 288.773 87.1582 288.828 86.9434C288.887 86.7285 288.916 86.4902 288.916 86.2285C288.916 85.9785 288.883 85.75 288.816 85.543C288.754 85.3359 288.658 85.1562 288.529 85.0039C288.404 84.8516 288.246 84.7344 288.055 84.6523C287.863 84.5664 287.643 84.5234 287.393 84.5234C287.057 84.5234 286.799 84.5723 286.619 84.6699C286.443 84.7676 286.279 84.8887 286.127 85.0332Z" fill="#505D6F"/>
<path d="M282.27 234.439V243H280.857V236.115L278.766 236.824V235.658L282.1 234.439H282.27ZM290.795 238.02V239.414C290.795 240.082 290.729 240.652 290.596 241.125C290.467 241.594 290.279 241.975 290.033 242.268C289.787 242.561 289.492 242.775 289.148 242.912C288.809 243.049 288.428 243.117 288.006 243.117C287.67 243.117 287.357 243.074 287.068 242.988C286.783 242.902 286.525 242.768 286.295 242.584C286.064 242.4 285.867 242.164 285.703 241.875C285.543 241.582 285.418 241.232 285.328 240.826C285.242 240.42 285.199 239.949 285.199 239.414V238.02C285.199 237.348 285.266 236.781 285.398 236.32C285.531 235.855 285.721 235.479 285.967 235.189C286.213 234.896 286.506 234.684 286.846 234.551C287.189 234.418 287.572 234.352 287.994 234.352C288.334 234.352 288.646 234.395 288.932 234.48C289.221 234.562 289.479 234.693 289.705 234.873C289.936 235.053 290.131 235.287 290.291 235.576C290.455 235.861 290.58 236.207 290.666 236.613C290.752 237.016 290.795 237.484 290.795 238.02ZM289.383 239.613V237.809C289.383 237.469 289.363 237.17 289.324 236.912C289.285 236.65 289.227 236.43 289.148 236.25C289.074 236.066 288.98 235.918 288.867 235.805C288.754 235.688 288.625 235.604 288.48 235.553C288.336 235.498 288.174 235.471 287.994 235.471C287.775 235.471 287.58 235.514 287.408 235.6C287.236 235.682 287.092 235.814 286.975 235.998C286.857 236.182 286.768 236.424 286.705 236.725C286.646 237.021 286.617 237.383 286.617 237.809V239.613C286.617 239.957 286.637 240.26 286.676 240.521C286.715 240.783 286.773 241.008 286.852 241.195C286.93 241.379 287.023 241.531 287.133 241.652C287.246 241.77 287.375 241.855 287.52 241.91C287.668 241.965 287.83 241.992 288.006 241.992C288.229 241.992 288.426 241.949 288.598 241.863C288.77 241.777 288.914 241.641 289.031 241.453C289.148 241.262 289.236 241.014 289.295 240.709C289.354 240.404 289.383 240.039 289.383 239.613ZM297.615 238.02V239.414C297.615 240.082 297.549 240.652 297.416 241.125C297.287 241.594 297.1 241.975 296.854 242.268C296.607 242.561 296.312 242.775 295.969 242.912C295.629 243.049 295.248 243.117 294.826 243.117C294.49 243.117 294.178 243.074 293.889 242.988C293.604 242.902 293.346 242.768 293.115 242.584C292.885 242.4 292.688 242.164 292.523 241.875C292.363 241.582 292.238 241.232 292.148 240.826C292.062 240.42 292.02 239.949 292.02 239.414V238.02C292.02 237.348 292.086 236.781 292.219 236.32C292.352 235.855 292.541 235.479 292.787 235.189C293.033 234.896 293.326 234.684 293.666 234.551C294.01 234.418 294.393 234.352 294.814 234.352C295.154 234.352 295.467 234.395 295.752 234.48C296.041 234.562 296.299 234.693 296.525 234.873C296.756 235.053 296.951 235.287 297.111 235.576C297.275 235.861 297.4 236.207 297.486 236.613C297.572 237.016 297.615 237.484 297.615 238.02ZM296.203 239.613V237.809C296.203 237.469 296.184 237.17 296.145 236.912C296.105 236.65 296.047 236.43 295.969 236.25C295.895 236.066 295.801 235.918 295.688 235.805C295.574 235.688 295.445 235.604 295.301 235.553C295.156 235.498 294.994 235.471 294.814 235.471C294.596 235.471 294.4 235.514 294.229 235.6C294.057 235.682 293.912 235.814 293.795 235.998C293.678 236.182 293.588 236.424 293.525 236.725C293.467 237.021 293.438 237.383 293.438 237.809V239.613C293.438 239.957 293.457 240.26 293.496 240.521C293.535 240.783 293.594 241.008 293.672 241.195C293.75 241.379 293.844 241.531 293.953 241.652C294.066 241.77 294.195 241.855 294.34 241.91C294.488 241.965 294.65 241.992 294.826 241.992C295.049 241.992 295.246 241.949 295.418 241.863C295.59 241.777 295.734 241.641 295.852 241.453C295.969 241.262 296.057 241.014 296.115 240.709C296.174 240.404 296.203 240.039 296.203 239.613Z" fill="#505D6F"/>
</g>
<g clip-path="url(#clip2_4046_37056)" filter="url(#filter0_d_4046_37056)">
<circle cx="214" cy="78" r="15" fill="white"/>
<path fill-rule="evenodd" clip-rule="evenodd" d="M211.944 72.4452L212.751 74.2762L208.656 76.0996L210.479 80.1951L208.658 81.0061L206.014 75.0854L211.944 72.4452V72.4452ZM215.021 83.4595L214.214 81.6286L218.309 79.8051L216.486 75.7097L218.311 74.8893L220.951 80.8193L215.021 83.4595V83.4595Z" fill="#505D6F"/>
<mask id="mask0_4046_37056" style="mask-type:luminance" maskUnits="userSpaceOnUse" x="206" y="72" width="15" height="12">
<path fill-rule="evenodd" clip-rule="evenodd" d="M211.944 72.4452L212.751 74.2762L208.656 76.0996L210.479 80.1951L208.658 81.0061L206.014 75.0854L211.944 72.4452V72.4452ZM215.021 83.4595L214.214 81.6286L218.309 79.8051L216.486 75.7097L218.311 74.8893L220.951 80.8193L215.021 83.4595V83.4595Z" fill="white"/>
</mask>
<g mask="url(#mask0_4046_37056)">
</g>
</g>
<path d="M180.613 165.268V164.516C180.613 163.975 180.73 163.484 180.965 163.041C181.199 162.598 181.541 162.243 181.99 161.977C182.439 161.71 182.98 161.576 183.611 161.576C184.262 161.576 184.809 161.71 185.252 161.977C185.701 162.243 186.043 162.598 186.277 163.041C186.512 163.484 186.629 163.975 186.629 164.516V165.268C186.629 165.795 186.512 166.28 186.277 166.723C186.049 167.165 185.711 167.52 185.262 167.787C184.819 168.054 184.275 168.188 183.631 168.188C182.993 168.188 182.446 168.054 181.99 167.787C181.541 167.52 181.199 167.165 180.965 166.723C180.73 166.28 180.613 165.795 180.613 165.268ZM182.244 164.516V165.268C182.244 165.528 182.293 165.775 182.391 166.01C182.495 166.244 182.651 166.433 182.859 166.576C183.068 166.719 183.325 166.791 183.631 166.791C183.943 166.791 184.197 166.719 184.393 166.576C184.594 166.433 184.744 166.244 184.842 166.01C184.939 165.775 184.988 165.528 184.988 165.268V164.516C184.988 164.249 184.936 163.998 184.832 163.764C184.734 163.523 184.585 163.331 184.383 163.188C184.181 163.044 183.924 162.973 183.611 162.973C183.312 162.973 183.058 163.044 182.85 163.188C182.648 163.331 182.495 163.523 182.391 163.764C182.293 163.998 182.244 164.249 182.244 164.516ZM187.469 173.275V172.514C187.469 171.98 187.586 171.492 187.82 171.049C188.061 170.606 188.406 170.251 188.855 169.984C189.305 169.717 189.845 169.584 190.477 169.584C191.128 169.584 191.674 169.717 192.117 169.984C192.566 170.251 192.905 170.606 193.133 171.049C193.367 171.492 193.484 171.98 193.484 172.514V173.275C193.484 173.809 193.367 174.298 193.133 174.74C192.905 175.183 192.57 175.538 192.127 175.805C191.684 176.072 191.144 176.205 190.506 176.205C189.861 176.205 189.311 176.072 188.855 175.805C188.406 175.538 188.061 175.183 187.82 174.74C187.586 174.298 187.469 173.809 187.469 173.275ZM189.109 172.514V173.275C189.109 173.536 189.161 173.783 189.266 174.018C189.376 174.252 189.536 174.444 189.744 174.594C189.952 174.737 190.203 174.809 190.496 174.809C190.828 174.809 191.095 174.737 191.297 174.594C191.499 174.444 191.642 174.255 191.727 174.027C191.818 173.793 191.863 173.542 191.863 173.275V172.514C191.863 172.247 191.811 171.996 191.707 171.762C191.609 171.527 191.456 171.339 191.248 171.195C191.046 171.052 190.789 170.98 190.477 170.98C190.171 170.98 189.917 171.052 189.715 171.195C189.513 171.339 189.36 171.527 189.256 171.762C189.158 171.996 189.109 172.247 189.109 172.514ZM191.062 163.812L184.119 174.926L182.918 174.232L189.861 163.119L191.062 163.812Z" fill="#505D6F"/>
<path d="M170.848 143.818H168.627V142.652H170.848C171.234 142.652 171.547 142.59 171.785 142.465C172.023 142.34 172.197 142.168 172.307 141.949C172.42 141.727 172.477 141.473 172.477 141.188C172.477 140.918 172.42 140.666 172.307 140.432C172.197 140.193 172.023 140.002 171.785 139.857C171.547 139.713 171.234 139.641 170.848 139.641H169.078V147H167.607V138.469H170.848C171.508 138.469 172.068 138.586 172.529 138.82C172.994 139.051 173.348 139.371 173.59 139.781C173.832 140.188 173.953 140.652 173.953 141.176C173.953 141.727 173.832 142.199 173.59 142.594C173.348 142.988 172.994 143.291 172.529 143.502C172.068 143.713 171.508 143.818 170.848 143.818ZM177.844 147.117C177.375 147.117 176.951 147.041 176.572 146.889C176.197 146.732 175.877 146.516 175.611 146.238C175.35 145.961 175.148 145.635 175.008 145.26C174.867 144.885 174.797 144.48 174.797 144.047V143.812C174.797 143.316 174.869 142.867 175.014 142.465C175.158 142.062 175.359 141.719 175.617 141.434C175.875 141.145 176.18 140.924 176.531 140.771C176.883 140.619 177.264 140.543 177.674 140.543C178.127 140.543 178.523 140.619 178.863 140.771C179.203 140.924 179.484 141.139 179.707 141.416C179.934 141.689 180.102 142.016 180.211 142.395C180.324 142.773 180.381 143.191 180.381 143.648V144.252H175.482V143.238H178.986V143.127C178.979 142.873 178.928 142.635 178.834 142.412C178.744 142.189 178.605 142.01 178.418 141.873C178.23 141.736 177.98 141.668 177.668 141.668C177.434 141.668 177.225 141.719 177.041 141.82C176.861 141.918 176.711 142.061 176.59 142.248C176.469 142.436 176.375 142.662 176.309 142.928C176.246 143.189 176.215 143.484 176.215 143.812V144.047C176.215 144.324 176.252 144.582 176.326 144.82C176.404 145.055 176.518 145.26 176.666 145.436C176.814 145.611 176.994 145.75 177.205 145.852C177.416 145.949 177.656 145.998 177.926 145.998C178.266 145.998 178.568 145.93 178.834 145.793C179.1 145.656 179.33 145.463 179.525 145.213L180.27 145.934C180.133 146.133 179.955 146.324 179.736 146.508C179.518 146.688 179.25 146.834 178.934 146.947C178.621 147.061 178.258 147.117 177.844 147.117ZM182.9 141.867V147H181.488V140.66H182.836L182.9 141.867ZM184.84 140.619L184.828 141.932C184.742 141.916 184.648 141.904 184.547 141.896C184.449 141.889 184.352 141.885 184.254 141.885C184.012 141.885 183.799 141.92 183.615 141.99C183.432 142.057 183.277 142.154 183.152 142.283C183.031 142.408 182.938 142.561 182.871 142.74C182.805 142.92 182.766 143.121 182.754 143.344L182.432 143.367C182.432 142.969 182.471 142.6 182.549 142.26C182.627 141.92 182.744 141.621 182.9 141.363C183.061 141.105 183.26 140.904 183.498 140.76C183.74 140.615 184.02 140.543 184.336 140.543C184.422 140.543 184.514 140.551 184.611 140.566C184.713 140.582 184.789 140.6 184.84 140.619ZM188.197 145.992C188.428 145.992 188.635 145.947 188.818 145.857C189.006 145.764 189.156 145.635 189.27 145.471C189.387 145.307 189.451 145.117 189.463 144.902H190.793C190.785 145.312 190.664 145.686 190.43 146.021C190.195 146.357 189.885 146.625 189.498 146.824C189.111 147.02 188.684 147.117 188.215 147.117C187.73 147.117 187.309 147.035 186.949 146.871C186.59 146.703 186.291 146.473 186.053 146.18C185.814 145.887 185.635 145.549 185.514 145.166C185.396 144.783 185.338 144.373 185.338 143.936V143.73C185.338 143.293 185.396 142.883 185.514 142.5C185.635 142.113 185.814 141.773 186.053 141.48C186.291 141.188 186.59 140.959 186.949 140.795C187.309 140.627 187.729 140.543 188.209 140.543C188.717 140.543 189.162 140.645 189.545 140.848C189.928 141.047 190.229 141.326 190.447 141.686C190.67 142.041 190.785 142.455 190.793 142.928H189.463C189.451 142.693 189.393 142.482 189.287 142.295C189.186 142.104 189.041 141.951 188.854 141.838C188.67 141.725 188.449 141.668 188.191 141.668C187.906 141.668 187.67 141.727 187.482 141.844C187.295 141.957 187.148 142.113 187.043 142.312C186.938 142.508 186.861 142.729 186.814 142.975C186.771 143.217 186.75 143.469 186.75 143.73V143.936C186.75 144.197 186.771 144.451 186.814 144.697C186.857 144.943 186.932 145.164 187.037 145.359C187.146 145.551 187.295 145.705 187.482 145.822C187.67 145.936 187.908 145.992 188.197 145.992ZM194.672 147.117C194.203 147.117 193.779 147.041 193.4 146.889C193.025 146.732 192.705 146.516 192.439 146.238C192.178 145.961 191.977 145.635 191.836 145.26C191.695 144.885 191.625 144.48 191.625 144.047V143.812C191.625 143.316 191.697 142.867 191.842 142.465C191.986 142.062 192.188 141.719 192.445 141.434C192.703 141.145 193.008 140.924 193.359 140.771C193.711 140.619 194.092 140.543 194.502 140.543C194.955 140.543 195.352 140.619 195.691 140.771C196.031 140.924 196.312 141.139 196.535 141.416C196.762 141.689 196.93 142.016 197.039 142.395C197.152 142.773 197.209 143.191 197.209 143.648V144.252H192.311V143.238H195.814V143.127C195.807 142.873 195.756 142.635 195.662 142.412C195.572 142.189 195.434 142.01 195.246 141.873C195.059 141.736 194.809 141.668 194.496 141.668C194.262 141.668 194.053 141.719 193.869 141.82C193.689 141.918 193.539 142.061 193.418 142.248C193.297 142.436 193.203 142.662 193.137 142.928C193.074 143.189 193.043 143.484 193.043 143.812V144.047C193.043 144.324 193.08 144.582 193.154 144.82C193.232 145.055 193.346 145.26 193.494 145.436C193.643 145.611 193.822 145.75 194.033 145.852C194.244 145.949 194.484 145.998 194.754 145.998C195.094 145.998 195.396 145.93 195.662 145.793C195.928 145.656 196.158 145.463 196.354 145.213L197.098 145.934C196.961 146.133 196.783 146.324 196.564 146.508C196.346 146.688 196.078 146.834 195.762 146.947C195.449 147.061 195.086 147.117 194.672 147.117ZM199.711 142.014V147H198.299V140.66H199.629L199.711 142.014ZM199.459 143.596L199.002 143.59C199.006 143.141 199.068 142.729 199.189 142.354C199.314 141.979 199.486 141.656 199.705 141.387C199.928 141.117 200.193 140.91 200.502 140.766C200.811 140.617 201.154 140.543 201.533 140.543C201.838 140.543 202.113 140.586 202.359 140.672C202.609 140.754 202.822 140.889 202.998 141.076C203.178 141.264 203.314 141.508 203.408 141.809C203.502 142.105 203.549 142.471 203.549 142.904V147H202.131V142.898C202.131 142.594 202.086 142.354 201.996 142.178C201.91 141.998 201.783 141.871 201.615 141.797C201.451 141.719 201.246 141.68 201 141.68C200.758 141.68 200.541 141.73 200.35 141.832C200.158 141.934 199.996 142.072 199.863 142.248C199.734 142.424 199.635 142.627 199.564 142.857C199.494 143.088 199.459 143.334 199.459 143.596ZM207.896 140.66V141.691H204.322V140.66H207.896ZM205.354 139.107H206.766V145.248C206.766 145.443 206.793 145.594 206.848 145.699C206.906 145.801 206.986 145.869 207.088 145.904C207.189 145.939 207.309 145.957 207.445 145.957C207.543 145.957 207.637 145.951 207.727 145.939C207.816 145.928 207.889 145.916 207.943 145.904L207.949 146.982C207.832 147.018 207.695 147.049 207.539 147.076C207.387 147.104 207.211 147.117 207.012 147.117C206.688 147.117 206.4 147.061 206.15 146.947C205.9 146.83 205.705 146.641 205.564 146.379C205.424 146.117 205.354 145.77 205.354 145.336V139.107Z" fill="#505D6F"/>
</g>
<defs>
<filter id="filter0_d_4046_37056" x="191" y="58" width="46" height="46" filterUnits="userSpaceOnUse" color-interpolation-filters="sRGB">
<feFlood flood-opacity="0" result="BackgroundImageFix"/>
<feColorMatrix in="SourceAlpha" type="matrix" values="0 0 0 0 0 0 0 0 0 0 0 0 0 0 0 0 0 0 127 0" result="hardAlpha"/>
<feOffset dy="3"/>
<feGaussianBlur stdDeviation="4"/>
<feColorMatrix type="matrix" values="0 0 0 0 0.439216 0 0 0 0 0.470588 0 0 0 0 0.529412 0 0 0 0.24 0"/>
<feBlend mode="normal" in2="BackgroundImageFix" result="effect1_dropShadow_4046_37056"/>
<feBlend mode="normal" in="SourceGraphic" in2="effect1_dropShadow_4046_37056" result="shape"/>
</filter>
<clipPath id="clip0_4046_37056">
<rect width="375" height="309" fill="white"/>
</clipPath>
<clipPath id="clip1_4046_37056">
<rect width="234" height="217" fill="white" transform="translate(74 33)"/>
</clipPath>
<clipPath id="clip2_4046_37056">
<rect width="30" height="30" fill="white" transform="translate(199 63)"/>
</clipPath>
</defs>
</svg>
