<svg width="331" height="163" viewBox="0 0 331 163" fill="none" xmlns="http://www.w3.org/2000/svg">
<rect width="331" height="163" fill="white"/>
<rect x="11" y="14" width="138" height="138" fill="#9E9E9E"/>
<rect x="151.19" y="14" width="169.761" height="71.1902" fill="#E7E7E7"/>
<rect x="151.19" y="87.3809" width="108.428" height="64.6188" fill="#D1DBE5"/>
<rect x="261.809" y="87.3809" width="59.1427" height="64.6188" fill="#F7F8FA"/>
<path d="M67.4196 67.7539V76.2852H66.2829L61.988 69.7051V76.2852H60.8571V67.7539H61.988L66.3005 74.3516V67.7539H67.4196ZM68.9724 73.1855V73.0508C68.9724 72.5938 69.0388 72.1699 69.1716 71.7793C69.3044 71.3848 69.4958 71.043 69.7458 70.7539C69.9958 70.4609 70.2985 70.2344 70.654 70.0742C71.0095 69.9102 71.4079 69.8281 71.8493 69.8281C72.2946 69.8281 72.695 69.9102 73.0505 70.0742C73.4099 70.2344 73.7146 70.4609 73.9646 70.7539C74.2185 71.043 74.4118 71.3848 74.5446 71.7793C74.6774 72.1699 74.7439 72.5938 74.7439 73.0508V73.1855C74.7439 73.6426 74.6774 74.0664 74.5446 74.457C74.4118 74.8477 74.2185 75.1895 73.9646 75.4824C73.7146 75.7715 73.4118 75.998 73.0564 76.1621C72.7048 76.3223 72.3064 76.4023 71.861 76.4023C71.4157 76.4023 71.0153 76.3223 70.6599 76.1621C70.3044 75.998 69.9997 75.7715 69.7458 75.4824C69.4958 75.1895 69.3044 74.8477 69.1716 74.457C69.0388 74.0664 68.9724 73.6426 68.9724 73.1855ZM70.0564 73.0508V73.1855C70.0564 73.502 70.0935 73.8008 70.1677 74.082C70.2419 74.3594 70.3532 74.6055 70.5017 74.8203C70.654 75.0352 70.8435 75.2051 71.07 75.3301C71.2966 75.4512 71.5603 75.5117 71.861 75.5117C72.1579 75.5117 72.4177 75.4512 72.6403 75.3301C72.8669 75.2051 73.0544 75.0352 73.2028 74.8203C73.3513 74.6055 73.4626 74.3594 73.5368 74.082C73.6149 73.8008 73.654 73.502 73.654 73.1855V73.0508C73.654 72.7383 73.6149 72.4434 73.5368 72.166C73.4626 71.8848 73.3493 71.6367 73.197 71.4219C73.0485 71.2031 72.861 71.0312 72.6345 70.9062C72.4118 70.7812 72.1501 70.7188 71.8493 70.7188C71.5524 70.7188 71.2907 70.7812 71.0642 70.9062C70.8415 71.0312 70.654 71.2031 70.5017 71.4219C70.3532 71.6367 70.2419 71.8848 70.1677 72.166C70.0935 72.4434 70.0564 72.7383 70.0564 73.0508ZM78.5759 76.2852H76.7946L76.8064 75.3652H78.5759C79.1853 75.3652 79.6931 75.2383 80.0993 74.9844C80.5056 74.7266 80.8103 74.3672 81.0134 73.9062C81.2204 73.4414 81.3239 72.8984 81.3239 72.2773V71.7559C81.3239 71.2676 81.2653 70.834 81.1482 70.4551C81.031 70.0723 80.8591 69.75 80.6325 69.4883C80.406 69.2227 80.1286 69.0215 79.8005 68.8848C79.4763 68.748 79.1032 68.6797 78.6814 68.6797H76.7595V67.7539H78.6814C79.2399 67.7539 79.7497 67.8477 80.2107 68.0352C80.6716 68.2188 81.0681 68.4863 81.4001 68.8379C81.736 69.1855 81.9939 69.6074 82.1735 70.1035C82.3532 70.5957 82.4431 71.1504 82.4431 71.7676V72.2773C82.4431 72.8945 82.3532 73.4512 82.1735 73.9473C81.9939 74.4395 81.7341 74.8594 81.3942 75.207C81.0583 75.5547 80.6521 75.8223 80.1755 76.0098C79.7028 76.1934 79.1696 76.2852 78.5759 76.2852ZM77.3982 67.7539V76.2852H76.2673V67.7539H77.3982ZM87.7165 75.2012V71.9375C87.7165 71.6875 87.6657 71.4707 87.5642 71.2871C87.4665 71.0996 87.3181 70.9551 87.1189 70.8535C86.9196 70.752 86.6735 70.7012 86.3806 70.7012C86.1071 70.7012 85.8669 70.748 85.6599 70.8418C85.4567 70.9355 85.2966 71.0586 85.1794 71.2109C85.0661 71.3633 85.0095 71.5273 85.0095 71.7031H83.9255C83.9255 71.4766 83.9841 71.252 84.1013 71.0293C84.2185 70.8066 84.3864 70.6055 84.6052 70.4258C84.8278 70.2422 85.0935 70.0977 85.4021 69.9922C85.7146 69.8828 86.0622 69.8281 86.445 69.8281C86.906 69.8281 87.3122 69.9062 87.6638 70.0625C88.0192 70.2188 88.2966 70.4551 88.4958 70.7715C88.6989 71.084 88.8005 71.4766 88.8005 71.9492V74.9023C88.8005 75.1133 88.8181 75.3379 88.8532 75.5762C88.8923 75.8145 88.9489 76.0195 89.0232 76.1914V76.2852H87.8923C87.8376 76.1602 87.7946 75.9941 87.7634 75.7871C87.7321 75.5762 87.7165 75.3809 87.7165 75.2012ZM87.904 72.4414L87.9157 73.2031H86.82C86.5114 73.2031 86.236 73.2285 85.9939 73.2793C85.7517 73.3262 85.5485 73.3984 85.3845 73.4961C85.2204 73.5938 85.0954 73.7168 85.0095 73.8652C84.9235 74.0098 84.8806 74.1797 84.8806 74.375C84.8806 74.5742 84.9255 74.7559 85.0153 74.9199C85.1052 75.084 85.2399 75.2148 85.4196 75.3125C85.6032 75.4062 85.8278 75.4531 86.0935 75.4531C86.4255 75.4531 86.7185 75.3828 86.9724 75.2422C87.2263 75.1016 87.4274 74.9297 87.5759 74.7266C87.7282 74.5234 87.8103 74.3262 87.822 74.1348L88.2849 74.6562C88.2575 74.8203 88.1833 75.002 88.0622 75.2012C87.9411 75.4004 87.779 75.5918 87.5759 75.7754C87.3767 75.9551 87.1384 76.1055 86.861 76.2266C86.5876 76.3438 86.279 76.4023 85.9353 76.4023C85.5056 76.4023 85.1286 76.3184 84.8044 76.1504C84.4841 75.9824 84.2341 75.7578 84.0544 75.4766C83.8786 75.1914 83.7907 74.873 83.7907 74.5215C83.7907 74.1816 83.8571 73.8828 83.9899 73.625C84.1228 73.3633 84.3142 73.1465 84.5642 72.9746C84.8142 72.7988 85.1149 72.666 85.4665 72.5762C85.8181 72.4863 86.2107 72.4414 86.6442 72.4414H87.904ZM93.1599 69.9453V70.7773H89.7321V69.9453H93.1599ZM90.8923 68.4043H91.9763V74.7148C91.9763 74.9297 92.0095 75.0918 92.0759 75.2012C92.1423 75.3105 92.2282 75.3828 92.3337 75.418C92.4392 75.4531 92.5524 75.4707 92.6735 75.4707C92.7634 75.4707 92.8571 75.4629 92.9548 75.4473C93.0564 75.4277 93.1325 75.4121 93.1833 75.4004L93.1892 76.2852C93.1032 76.3125 92.9899 76.3379 92.8493 76.3613C92.7126 76.3887 92.5466 76.4023 92.3513 76.4023C92.0857 76.4023 91.8415 76.3496 91.6189 76.2441C91.3962 76.1387 91.2185 75.9629 91.0857 75.7168C90.9567 75.4668 90.8923 75.1309 90.8923 74.709V68.4043ZM98.1696 75.2012V71.9375C98.1696 71.6875 98.1189 71.4707 98.0173 71.2871C97.9196 71.0996 97.7712 70.9551 97.572 70.8535C97.3728 70.752 97.1267 70.7012 96.8337 70.7012C96.5603 70.7012 96.32 70.748 96.113 70.8418C95.9099 70.9355 95.7497 71.0586 95.6325 71.2109C95.5192 71.3633 95.4626 71.5273 95.4626 71.7031H94.3786C94.3786 71.4766 94.4372 71.252 94.5544 71.0293C94.6716 70.8066 94.8396 70.6055 95.0583 70.4258C95.281 70.2422 95.5466 70.0977 95.8552 69.9922C96.1677 69.8828 96.5153 69.8281 96.8981 69.8281C97.3591 69.8281 97.7653 69.9062 98.1169 70.0625C98.4724 70.2188 98.7497 70.4551 98.9489 70.7715C99.1521 71.084 99.2536 71.4766 99.2536 71.9492V74.9023C99.2536 75.1133 99.2712 75.3379 99.3064 75.5762C99.3454 75.8145 99.4021 76.0195 99.4763 76.1914V76.2852H98.3454C98.2907 76.1602 98.2478 75.9941 98.2165 75.7871C98.1853 75.5762 98.1696 75.3809 98.1696 75.2012ZM98.3571 72.4414L98.3689 73.2031H97.2731C96.9646 73.2031 96.6892 73.2285 96.447 73.2793C96.2048 73.3262 96.0017 73.3984 95.8376 73.4961C95.6735 73.5938 95.5485 73.7168 95.4626 73.8652C95.3767 74.0098 95.3337 74.1797 95.3337 74.375C95.3337 74.5742 95.3786 74.7559 95.4685 74.9199C95.5583 75.084 95.6931 75.2148 95.8728 75.3125C96.0564 75.4062 96.281 75.4531 96.5466 75.4531C96.8786 75.4531 97.1716 75.3828 97.4255 75.2422C97.6794 75.1016 97.8806 74.9297 98.029 74.7266C98.1814 74.5234 98.2634 74.3262 98.2751 74.1348L98.738 74.6562C98.7106 74.8203 98.6364 75.002 98.5153 75.2012C98.3942 75.4004 98.2321 75.5918 98.029 75.7754C97.8298 75.9551 97.5915 76.1055 97.3142 76.2266C97.0407 76.3438 96.7321 76.4023 96.3884 76.4023C95.9587 76.4023 95.5817 76.3184 95.2575 76.1504C94.9372 75.9824 94.6872 75.7578 94.5075 75.4766C94.3317 75.1914 94.2439 74.873 94.2439 74.5215C94.2439 74.1816 94.3103 73.8828 94.4431 73.625C94.5759 73.3633 94.7673 73.1465 95.0173 72.9746C95.2673 72.7988 95.5681 72.666 95.9196 72.5762C96.2712 72.4863 96.6638 72.4414 97.0974 72.4414H98.3571ZM76.2204 87.8457V87.3945C76.2204 87.0703 76.2907 86.7754 76.4314 86.5098C76.572 86.2441 76.7732 86.0312 77.0349 85.8711C77.2966 85.7109 77.6071 85.6309 77.9665 85.6309C78.3337 85.6309 78.6462 85.7109 78.904 85.8711C79.1657 86.0312 79.3669 86.2441 79.5075 86.5098C79.6482 86.7754 79.7185 87.0703 79.7185 87.3945V87.8457C79.7185 88.1621 79.6482 88.4531 79.5075 88.7188C79.3708 88.9844 79.1716 89.1973 78.9099 89.3574C78.6521 89.5176 78.3415 89.5977 77.9782 89.5977C77.6149 89.5977 77.3005 89.5176 77.0349 89.3574C76.7732 89.1973 76.572 88.9844 76.4314 88.7188C76.2907 88.4531 76.2204 88.1621 76.2204 87.8457ZM77.0349 87.3945V87.8457C77.0349 88.0254 77.0681 88.1953 77.1345 88.3555C77.2048 88.5156 77.3103 88.6465 77.4509 88.748C77.5915 88.8457 77.7673 88.8945 77.9782 88.8945C78.1892 88.8945 78.363 88.8457 78.4997 88.748C78.6364 88.6465 78.738 88.5156 78.8044 88.3555C78.8708 88.1953 78.904 88.0254 78.904 87.8457V87.3945C78.904 87.2109 78.8689 87.0391 78.7985 86.8789C78.7321 86.7148 78.6286 86.584 78.488 86.4863C78.3513 86.3848 78.1774 86.334 77.9665 86.334C77.7595 86.334 77.5857 86.3848 77.445 86.4863C77.3083 86.584 77.2048 86.7148 77.1345 86.8789C77.0681 87.0391 77.0349 87.2109 77.0349 87.3945ZM80.3747 92.6504V92.1934C80.3747 91.873 80.445 91.5801 80.5857 91.3145C80.7263 91.0488 80.9274 90.8359 81.1892 90.6758C81.4509 90.5156 81.7614 90.4355 82.1208 90.4355C82.488 90.4355 82.8005 90.5156 83.0583 90.6758C83.32 90.8359 83.5212 91.0488 83.6618 91.3145C83.8024 91.5801 83.8728 91.873 83.8728 92.1934V92.6504C83.8728 92.9707 83.8024 93.2637 83.6618 93.5293C83.5251 93.7949 83.3259 94.0078 83.0642 94.168C82.8064 94.3281 82.4958 94.4082 82.1325 94.4082C81.7692 94.4082 81.4567 94.3281 81.195 94.168C80.9333 94.0078 80.7302 93.7949 80.5857 93.5293C80.445 93.2637 80.3747 92.9707 80.3747 92.6504ZM81.1892 92.1934V92.6504C81.1892 92.8301 81.2224 93.002 81.2888 93.166C81.3591 93.3262 81.4646 93.457 81.6052 93.5586C81.7458 93.6562 81.9216 93.7051 82.1325 93.7051C82.3435 93.7051 82.5173 93.6562 82.654 93.5586C82.7946 93.457 82.8982 93.3262 82.9646 93.166C83.031 93.0059 83.0642 92.834 83.0642 92.6504V92.1934C83.0642 92.0098 83.029 91.8379 82.9587 91.6777C82.8923 91.5176 82.7888 91.3887 82.6482 91.291C82.5114 91.1895 82.3357 91.1387 82.1208 91.1387C81.9138 91.1387 81.7399 91.1895 81.5993 91.291C81.4626 91.3887 81.3591 91.5176 81.2888 91.6777C81.2224 91.8379 81.1892 92.0098 81.1892 92.1934ZM82.3903 86.9668L78.2243 93.6348L77.6149 93.248L81.781 86.5801L82.3903 86.9668Z" fill="#161719"/>
<path d="M224.586 38.1826V46.7139H223.449L219.154 40.1338V46.7139H218.023V38.1826H219.154L223.467 44.7803V38.1826H224.586ZM226.139 43.6143V43.4795C226.139 43.0225 226.205 42.5986 226.338 42.208C226.471 41.8135 226.662 41.4717 226.912 41.1826C227.162 40.8896 227.465 40.6631 227.82 40.5029C228.176 40.3389 228.574 40.2568 229.016 40.2568C229.461 40.2568 229.861 40.3389 230.217 40.5029C230.576 40.6631 230.881 40.8896 231.131 41.1826C231.385 41.4717 231.578 41.8135 231.711 42.208C231.844 42.5986 231.91 43.0225 231.91 43.4795V43.6143C231.91 44.0713 231.844 44.4951 231.711 44.8857C231.578 45.2764 231.385 45.6182 231.131 45.9111C230.881 46.2002 230.578 46.4268 230.223 46.5908C229.871 46.751 229.473 46.8311 229.027 46.8311C228.582 46.8311 228.182 46.751 227.826 46.5908C227.471 46.4268 227.166 46.2002 226.912 45.9111C226.662 45.6182 226.471 45.2764 226.338 44.8857C226.205 44.4951 226.139 44.0713 226.139 43.6143ZM227.223 43.4795V43.6143C227.223 43.9307 227.26 44.2295 227.334 44.5107C227.408 44.7881 227.519 45.0342 227.668 45.249C227.82 45.4639 228.01 45.6338 228.236 45.7588C228.463 45.8799 228.727 45.9404 229.027 45.9404C229.324 45.9404 229.584 45.8799 229.807 45.7588C230.033 45.6338 230.221 45.4639 230.369 45.249C230.518 45.0342 230.629 44.7881 230.703 44.5107C230.781 44.2295 230.82 43.9307 230.82 43.6143V43.4795C230.82 43.167 230.781 42.8721 230.703 42.5947C230.629 42.3135 230.516 42.0654 230.363 41.8506C230.215 41.6318 230.027 41.46 229.801 41.335C229.578 41.21 229.316 41.1475 229.016 41.1475C228.719 41.1475 228.457 41.21 228.23 41.335C228.008 41.46 227.82 41.6318 227.668 41.8506C227.519 42.0654 227.408 42.3135 227.334 42.5947C227.26 42.8721 227.223 43.167 227.223 43.4795ZM235.742 46.7139H233.961L233.973 45.7939H235.742C236.352 45.7939 236.859 45.667 237.266 45.4131C237.672 45.1553 237.977 44.7959 238.18 44.335C238.387 43.8701 238.49 43.3271 238.49 42.7061V42.1846C238.49 41.6963 238.432 41.2627 238.314 40.8838C238.197 40.501 238.025 40.1787 237.799 39.917C237.572 39.6514 237.295 39.4502 236.967 39.3135C236.643 39.1768 236.269 39.1084 235.848 39.1084H233.926V38.1826H235.848C236.406 38.1826 236.916 38.2764 237.377 38.4639C237.838 38.6475 238.234 38.915 238.566 39.2666C238.902 39.6143 239.16 40.0361 239.34 40.5322C239.519 41.0244 239.609 41.5791 239.609 42.1963V42.7061C239.609 43.3232 239.519 43.8799 239.34 44.376C239.16 44.8682 238.9 45.2881 238.56 45.6357C238.225 45.9834 237.818 46.251 237.342 46.4385C236.869 46.6221 236.336 46.7139 235.742 46.7139ZM234.564 38.1826V46.7139H233.434V38.1826H234.564ZM244.883 45.6299V42.3662C244.883 42.1162 244.832 41.8994 244.73 41.7158C244.633 41.5283 244.484 41.3838 244.285 41.2822C244.086 41.1807 243.84 41.1299 243.547 41.1299C243.273 41.1299 243.033 41.1768 242.826 41.2705C242.623 41.3643 242.463 41.4873 242.346 41.6396C242.232 41.792 242.176 41.9561 242.176 42.1318H241.092C241.092 41.9053 241.15 41.6807 241.268 41.458C241.385 41.2354 241.553 41.0342 241.771 40.8545C241.994 40.6709 242.26 40.5264 242.568 40.4209C242.881 40.3115 243.228 40.2568 243.611 40.2568C244.072 40.2568 244.478 40.335 244.83 40.4912C245.185 40.6475 245.463 40.8838 245.662 41.2002C245.865 41.5127 245.967 41.9053 245.967 42.3779V45.3311C245.967 45.542 245.984 45.7666 246.019 46.0049C246.059 46.2432 246.115 46.4482 246.189 46.6201V46.7139H245.059C245.004 46.5889 244.961 46.4229 244.93 46.2158C244.898 46.0049 244.883 45.8096 244.883 45.6299ZM245.07 42.8701L245.082 43.6318H243.986C243.678 43.6318 243.402 43.6572 243.16 43.708C242.918 43.7549 242.715 43.8271 242.551 43.9248C242.387 44.0225 242.262 44.1455 242.176 44.2939C242.09 44.4385 242.047 44.6084 242.047 44.8037C242.047 45.0029 242.092 45.1846 242.182 45.3486C242.271 45.5127 242.406 45.6436 242.586 45.7412C242.769 45.835 242.994 45.8818 243.26 45.8818C243.592 45.8818 243.885 45.8115 244.139 45.6709C244.393 45.5303 244.594 45.3584 244.742 45.1553C244.894 44.9521 244.977 44.7549 244.988 44.5635L245.451 45.085C245.424 45.249 245.35 45.4307 245.228 45.6299C245.107 45.8291 244.945 46.0205 244.742 46.2041C244.543 46.3838 244.305 46.5342 244.027 46.6553C243.754 46.7725 243.445 46.8311 243.102 46.8311C242.672 46.8311 242.295 46.7471 241.971 46.5791C241.65 46.4111 241.4 46.1865 241.221 45.9053C241.045 45.6201 240.957 45.3018 240.957 44.9502C240.957 44.6104 241.023 44.3115 241.156 44.0537C241.289 43.792 241.48 43.5752 241.73 43.4033C241.98 43.2275 242.281 43.0947 242.633 43.0049C242.984 42.915 243.377 42.8701 243.81 42.8701H245.07ZM250.326 40.374V41.2061H246.898V40.374H250.326ZM248.059 38.833H249.143V45.1436C249.143 45.3584 249.176 45.5205 249.242 45.6299C249.309 45.7393 249.394 45.8115 249.5 45.8467C249.605 45.8818 249.719 45.8994 249.84 45.8994C249.93 45.8994 250.023 45.8916 250.121 45.876C250.223 45.8564 250.299 45.8408 250.35 45.8291L250.355 46.7139C250.269 46.7412 250.156 46.7666 250.016 46.79C249.879 46.8174 249.713 46.8311 249.518 46.8311C249.252 46.8311 249.008 46.7783 248.785 46.6729C248.562 46.5674 248.385 46.3916 248.252 46.1455C248.123 45.8955 248.059 45.5596 248.059 45.1377V38.833ZM255.336 45.6299V42.3662C255.336 42.1162 255.285 41.8994 255.184 41.7158C255.086 41.5283 254.937 41.3838 254.738 41.2822C254.539 41.1807 254.293 41.1299 254 41.1299C253.727 41.1299 253.486 41.1768 253.279 41.2705C253.076 41.3643 252.916 41.4873 252.799 41.6396C252.685 41.792 252.629 41.9561 252.629 42.1318H251.545C251.545 41.9053 251.603 41.6807 251.721 41.458C251.838 41.2354 252.006 41.0342 252.225 40.8545C252.447 40.6709 252.713 40.5264 253.021 40.4209C253.334 40.3115 253.682 40.2568 254.064 40.2568C254.525 40.2568 254.932 40.335 255.283 40.4912C255.639 40.6475 255.916 40.8838 256.115 41.2002C256.318 41.5127 256.42 41.9053 256.42 42.3779V45.3311C256.42 45.542 256.437 45.7666 256.473 46.0049C256.512 46.2432 256.568 46.4482 256.643 46.6201V46.7139H255.512C255.457 46.5889 255.414 46.4229 255.383 46.2158C255.352 46.0049 255.336 45.8096 255.336 45.6299ZM255.523 42.8701L255.535 43.6318H254.439C254.131 43.6318 253.855 43.6572 253.613 43.708C253.371 43.7549 253.168 43.8271 253.004 43.9248C252.84 44.0225 252.715 44.1455 252.629 44.2939C252.543 44.4385 252.5 44.6084 252.5 44.8037C252.5 45.0029 252.545 45.1846 252.635 45.3486C252.725 45.5127 252.859 45.6436 253.039 45.7412C253.223 45.835 253.447 45.8818 253.713 45.8818C254.045 45.8818 254.338 45.8115 254.592 45.6709C254.846 45.5303 255.047 45.3584 255.195 45.1553C255.348 44.9521 255.43 44.7549 255.441 44.5635L255.904 45.085C255.877 45.249 255.803 45.4307 255.682 45.6299C255.56 45.8291 255.398 46.0205 255.195 46.2041C254.996 46.3838 254.758 46.5342 254.48 46.6553C254.207 46.7725 253.898 46.8311 253.555 46.8311C253.125 46.8311 252.748 46.7471 252.424 46.5791C252.103 46.4111 251.853 46.1865 251.674 45.9053C251.498 45.6201 251.41 45.3018 251.41 44.9502C251.41 44.6104 251.477 44.3115 251.609 44.0537C251.742 43.792 251.934 43.5752 252.184 43.4033C252.434 43.2275 252.734 43.0947 253.086 43.0049C253.437 42.915 253.83 42.8701 254.264 42.8701H255.523ZM233.387 58.2744V57.8232C233.387 57.499 233.457 57.2041 233.598 56.9385C233.738 56.6729 233.939 56.46 234.201 56.2998C234.463 56.1396 234.773 56.0596 235.133 56.0596C235.5 56.0596 235.812 56.1396 236.07 56.2998C236.332 56.46 236.533 56.6729 236.674 56.9385C236.814 57.2041 236.885 57.499 236.885 57.8232V58.2744C236.885 58.5908 236.814 58.8818 236.674 59.1475C236.537 59.4131 236.338 59.626 236.076 59.7861C235.818 59.9463 235.508 60.0264 235.144 60.0264C234.781 60.0264 234.467 59.9463 234.201 59.7861C233.939 59.626 233.738 59.4131 233.598 59.1475C233.457 58.8818 233.387 58.5908 233.387 58.2744ZM234.201 57.8232V58.2744C234.201 58.4541 234.234 58.624 234.301 58.7842C234.371 58.9443 234.477 59.0752 234.617 59.1768C234.758 59.2744 234.934 59.3232 235.144 59.3232C235.355 59.3232 235.529 59.2744 235.666 59.1768C235.803 59.0752 235.904 58.9443 235.971 58.7842C236.037 58.624 236.07 58.4541 236.07 58.2744V57.8232C236.07 57.6396 236.035 57.4678 235.965 57.3076C235.898 57.1436 235.795 57.0127 235.654 56.915C235.518 56.8135 235.344 56.7627 235.133 56.7627C234.926 56.7627 234.752 56.8135 234.611 56.915C234.475 57.0127 234.371 57.1436 234.301 57.3076C234.234 57.4678 234.201 57.6396 234.201 57.8232ZM237.541 63.0791V62.6221C237.541 62.3018 237.611 62.0088 237.752 61.7432C237.893 61.4775 238.094 61.2646 238.355 61.1045C238.617 60.9443 238.928 60.8643 239.287 60.8643C239.654 60.8643 239.967 60.9443 240.225 61.1045C240.486 61.2646 240.687 61.4775 240.828 61.7432C240.969 62.0088 241.039 62.3018 241.039 62.6221V63.0791C241.039 63.3994 240.969 63.6924 240.828 63.958C240.691 64.2236 240.492 64.4365 240.23 64.5967C239.973 64.7568 239.662 64.8369 239.299 64.8369C238.935 64.8369 238.623 64.7568 238.361 64.5967C238.1 64.4365 237.896 64.2236 237.752 63.958C237.611 63.6924 237.541 63.3994 237.541 63.0791ZM238.355 62.6221V63.0791C238.355 63.2588 238.389 63.4307 238.455 63.5947C238.525 63.7549 238.631 63.8857 238.771 63.9873C238.912 64.085 239.088 64.1338 239.299 64.1338C239.51 64.1338 239.684 64.085 239.82 63.9873C239.961 63.8857 240.064 63.7549 240.131 63.5947C240.197 63.4346 240.23 63.2627 240.23 63.0791V62.6221C240.23 62.4385 240.195 62.2666 240.125 62.1064C240.059 61.9463 239.955 61.8174 239.814 61.7197C239.678 61.6182 239.502 61.5674 239.287 61.5674C239.08 61.5674 238.906 61.6182 238.766 61.7197C238.629 61.8174 238.525 61.9463 238.455 62.1064C238.389 62.2666 238.355 62.4385 238.355 62.6221ZM239.557 57.3955L235.391 64.0635L234.781 63.6768L238.947 57.0088L239.557 57.3955Z" fill="#161719"/>
<path d="M191.729 104.992V113.523H190.592L186.297 106.943V113.523H185.166V104.992H186.297L190.61 111.59V104.992H191.729ZM193.282 110.424V110.289C193.282 109.832 193.348 109.408 193.481 109.018C193.614 108.623 193.805 108.281 194.055 107.992C194.305 107.699 194.608 107.473 194.963 107.312C195.319 107.148 195.717 107.066 196.159 107.066C196.604 107.066 197.004 107.148 197.36 107.312C197.719 107.473 198.024 107.699 198.274 107.992C198.528 108.281 198.721 108.623 198.854 109.018C198.987 109.408 199.053 109.832 199.053 110.289V110.424C199.053 110.881 198.987 111.305 198.854 111.695C198.721 112.086 198.528 112.428 198.274 112.721C198.024 113.01 197.721 113.236 197.366 113.4C197.014 113.561 196.616 113.641 196.17 113.641C195.725 113.641 195.325 113.561 194.969 113.4C194.614 113.236 194.309 113.01 194.055 112.721C193.805 112.428 193.614 112.086 193.481 111.695C193.348 111.305 193.282 110.881 193.282 110.424ZM194.366 110.289V110.424C194.366 110.74 194.403 111.039 194.477 111.32C194.551 111.598 194.662 111.844 194.811 112.059C194.963 112.273 195.153 112.443 195.379 112.568C195.606 112.689 195.869 112.75 196.17 112.75C196.467 112.75 196.727 112.689 196.95 112.568C197.176 112.443 197.364 112.273 197.512 112.059C197.661 111.844 197.772 111.598 197.846 111.32C197.924 111.039 197.963 110.74 197.963 110.424V110.289C197.963 109.977 197.924 109.682 197.846 109.404C197.772 109.123 197.659 108.875 197.506 108.66C197.358 108.441 197.17 108.27 196.944 108.145C196.721 108.02 196.459 107.957 196.159 107.957C195.862 107.957 195.6 108.02 195.373 108.145C195.151 108.27 194.963 108.441 194.811 108.66C194.662 108.875 194.551 109.123 194.477 109.404C194.403 109.682 194.366 109.977 194.366 110.289ZM202.885 113.523H201.104L201.116 112.604H202.885C203.494 112.604 204.002 112.477 204.409 112.223C204.815 111.965 205.119 111.605 205.323 111.145C205.53 110.68 205.633 110.137 205.633 109.516V108.994C205.633 108.506 205.575 108.072 205.457 107.693C205.34 107.311 205.168 106.988 204.942 106.727C204.715 106.461 204.438 106.26 204.11 106.123C203.786 105.986 203.412 105.918 202.991 105.918H201.069V104.992H202.991C203.549 104.992 204.059 105.086 204.52 105.273C204.981 105.457 205.377 105.725 205.709 106.076C206.045 106.424 206.303 106.846 206.483 107.342C206.662 107.834 206.752 108.389 206.752 109.006V109.516C206.752 110.133 206.662 110.689 206.483 111.186C206.303 111.678 206.043 112.098 205.703 112.445C205.368 112.793 204.961 113.061 204.485 113.248C204.012 113.432 203.479 113.523 202.885 113.523ZM201.707 104.992V113.523H200.577V104.992H201.707ZM212.026 112.439V109.176C212.026 108.926 211.975 108.709 211.873 108.525C211.776 108.338 211.627 108.193 211.428 108.092C211.229 107.99 210.983 107.939 210.69 107.939C210.416 107.939 210.176 107.986 209.969 108.08C209.766 108.174 209.606 108.297 209.489 108.449C209.375 108.602 209.319 108.766 209.319 108.941H208.235C208.235 108.715 208.293 108.49 208.411 108.268C208.528 108.045 208.696 107.844 208.914 107.664C209.137 107.48 209.403 107.336 209.711 107.23C210.024 107.121 210.371 107.066 210.754 107.066C211.215 107.066 211.621 107.145 211.973 107.301C212.328 107.457 212.606 107.693 212.805 108.01C213.008 108.322 213.11 108.715 213.11 109.188V112.141C213.11 112.352 213.127 112.576 213.162 112.814C213.202 113.053 213.258 113.258 213.332 113.43V113.523H212.202C212.147 113.398 212.104 113.232 212.073 113.025C212.041 112.814 212.026 112.619 212.026 112.439ZM212.213 109.68L212.225 110.441H211.129C210.821 110.441 210.545 110.467 210.303 110.518C210.061 110.564 209.858 110.637 209.694 110.734C209.53 110.832 209.405 110.955 209.319 111.104C209.233 111.248 209.19 111.418 209.19 111.613C209.19 111.812 209.235 111.994 209.325 112.158C209.414 112.322 209.549 112.453 209.729 112.551C209.912 112.645 210.137 112.691 210.403 112.691C210.735 112.691 211.028 112.621 211.282 112.48C211.536 112.34 211.737 112.168 211.885 111.965C212.037 111.762 212.119 111.564 212.131 111.373L212.594 111.895C212.567 112.059 212.493 112.24 212.371 112.439C212.25 112.639 212.088 112.83 211.885 113.014C211.686 113.193 211.448 113.344 211.17 113.465C210.897 113.582 210.588 113.641 210.244 113.641C209.815 113.641 209.438 113.557 209.114 113.389C208.793 113.221 208.543 112.996 208.364 112.715C208.188 112.43 208.1 112.111 208.1 111.76C208.1 111.42 208.166 111.121 208.299 110.863C208.432 110.602 208.623 110.385 208.873 110.213C209.123 110.037 209.424 109.904 209.776 109.814C210.127 109.725 210.52 109.68 210.953 109.68H212.213ZM217.469 107.184V108.016H214.041V107.184H217.469ZM215.202 105.643H216.286V111.953C216.286 112.168 216.319 112.33 216.385 112.439C216.452 112.549 216.537 112.621 216.643 112.656C216.748 112.691 216.862 112.709 216.983 112.709C217.073 112.709 217.166 112.701 217.264 112.686C217.366 112.666 217.442 112.65 217.493 112.639L217.498 113.523C217.412 113.551 217.299 113.576 217.159 113.6C217.022 113.627 216.856 113.641 216.661 113.641C216.395 113.641 216.151 113.588 215.928 113.482C215.705 113.377 215.528 113.201 215.395 112.955C215.266 112.705 215.202 112.369 215.202 111.947V105.643ZM222.479 112.439V109.176C222.479 108.926 222.428 108.709 222.327 108.525C222.229 108.338 222.08 108.193 221.881 108.092C221.682 107.99 221.436 107.939 221.143 107.939C220.869 107.939 220.629 107.986 220.422 108.08C220.219 108.174 220.059 108.297 219.942 108.449C219.828 108.602 219.772 108.766 219.772 108.941H218.688C218.688 108.715 218.746 108.49 218.864 108.268C218.981 108.045 219.149 107.844 219.368 107.664C219.59 107.48 219.856 107.336 220.164 107.23C220.477 107.121 220.825 107.066 221.207 107.066C221.668 107.066 222.075 107.145 222.426 107.301C222.782 107.457 223.059 107.693 223.258 108.01C223.461 108.322 223.563 108.715 223.563 109.188V112.141C223.563 112.352 223.58 112.576 223.616 112.814C223.655 113.053 223.711 113.258 223.786 113.43V113.523H222.655C222.6 113.398 222.557 113.232 222.526 113.025C222.494 112.814 222.479 112.619 222.479 112.439ZM222.666 109.68L222.678 110.441H221.582C221.274 110.441 220.998 110.467 220.756 110.518C220.514 110.564 220.311 110.637 220.147 110.734C219.983 110.832 219.858 110.955 219.772 111.104C219.686 111.248 219.643 111.418 219.643 111.613C219.643 111.812 219.688 111.994 219.778 112.158C219.868 112.322 220.002 112.453 220.182 112.551C220.366 112.645 220.59 112.691 220.856 112.691C221.188 112.691 221.481 112.621 221.735 112.48C221.989 112.34 222.19 112.168 222.338 111.965C222.491 111.762 222.573 111.564 222.584 111.373L223.047 111.895C223.02 112.059 222.946 112.24 222.825 112.439C222.703 112.639 222.541 112.83 222.338 113.014C222.139 113.193 221.901 113.344 221.623 113.465C221.35 113.582 221.041 113.641 220.698 113.641C220.268 113.641 219.891 113.557 219.567 113.389C219.246 113.221 218.996 112.996 218.817 112.715C218.641 112.43 218.553 112.111 218.553 111.76C218.553 111.42 218.619 111.121 218.752 110.863C218.885 110.602 219.077 110.385 219.327 110.213C219.577 110.037 219.877 109.904 220.229 109.814C220.58 109.725 220.973 109.68 221.407 109.68H222.666ZM200.53 125.084V124.633C200.53 124.309 200.6 124.014 200.741 123.748C200.881 123.482 201.082 123.27 201.344 123.109C201.606 122.949 201.916 122.869 202.276 122.869C202.643 122.869 202.955 122.949 203.213 123.109C203.475 123.27 203.676 123.482 203.817 123.748C203.957 124.014 204.028 124.309 204.028 124.633V125.084C204.028 125.4 203.957 125.691 203.817 125.957C203.68 126.223 203.481 126.436 203.219 126.596C202.961 126.756 202.651 126.836 202.287 126.836C201.924 126.836 201.61 126.756 201.344 126.596C201.082 126.436 200.881 126.223 200.741 125.957C200.6 125.691 200.53 125.4 200.53 125.084ZM201.344 124.633V125.084C201.344 125.264 201.377 125.434 201.444 125.594C201.514 125.754 201.619 125.885 201.76 125.986C201.901 126.084 202.077 126.133 202.287 126.133C202.498 126.133 202.672 126.084 202.809 125.986C202.946 125.885 203.047 125.754 203.114 125.594C203.18 125.434 203.213 125.264 203.213 125.084V124.633C203.213 124.449 203.178 124.277 203.108 124.117C203.041 123.953 202.938 123.822 202.797 123.725C202.661 123.623 202.487 123.572 202.276 123.572C202.069 123.572 201.895 123.623 201.754 123.725C201.618 123.822 201.514 123.953 201.444 124.117C201.377 124.277 201.344 124.449 201.344 124.633ZM204.684 129.889V129.432C204.684 129.111 204.754 128.818 204.895 128.553C205.036 128.287 205.237 128.074 205.498 127.914C205.76 127.754 206.071 127.674 206.43 127.674C206.797 127.674 207.11 127.754 207.368 127.914C207.629 128.074 207.83 128.287 207.971 128.553C208.112 128.818 208.182 129.111 208.182 129.432V129.889C208.182 130.209 208.112 130.502 207.971 130.768C207.834 131.033 207.635 131.246 207.373 131.406C207.116 131.566 206.805 131.646 206.442 131.646C206.078 131.646 205.766 131.566 205.504 131.406C205.243 131.246 205.039 131.033 204.895 130.768C204.754 130.502 204.684 130.209 204.684 129.889ZM205.498 129.432V129.889C205.498 130.068 205.532 130.24 205.598 130.404C205.668 130.564 205.774 130.695 205.914 130.797C206.055 130.895 206.231 130.943 206.442 130.943C206.653 130.943 206.827 130.895 206.963 130.797C207.104 130.695 207.207 130.564 207.274 130.404C207.34 130.244 207.373 130.072 207.373 129.889V129.432C207.373 129.248 207.338 129.076 207.268 128.916C207.202 128.756 207.098 128.627 206.957 128.529C206.821 128.428 206.645 128.377 206.43 128.377C206.223 128.377 206.049 128.428 205.909 128.529C205.772 128.627 205.668 128.756 205.598 128.916C205.532 129.076 205.498 129.248 205.498 129.432ZM206.7 124.205L202.534 130.873L201.924 130.486L206.09 123.818L206.7 124.205Z" fill="#161719"/>
</svg>
