<svg width="375" height="282" viewBox="0 0 375 282" fill="none" xmlns="http://www.w3.org/2000/svg">
<rect width="375" height="282" fill="white"/>
<g clip-path="url(#clip0_4048_37284)">
<g clip-path="url(#clip1_4048_37284)">
<g clip-path="url(#clip2_4048_37284)">
<rect x="-0.25" y="0.25" width="0.5" height="205.5" transform="matrix(-1 0 0 1 44.5 33)" stroke="#E9EBF1" stroke-width="0.5"/>
</g>
<g clip-path="url(#clip3_4048_37284)">
<rect x="-0.25" y="0.25" width="0.5" height="205.5" transform="matrix(-1 0 0 1 93.5 33)" stroke="#E9EBF1" stroke-width="0.5"/>
</g>
<g clip-path="url(#clip4_4048_37284)">
<rect x="-0.25" y="0.25" width="0.5" height="205.5" transform="matrix(-1 0 0 1 142.5 33)" stroke="#E9EBF1" stroke-width="0.5"/>
</g>
<g clip-path="url(#clip5_4048_37284)">
<rect x="-0.25" y="0.25" width="0.5" height="205.5" transform="matrix(-1 0 0 1 191.5 33)" stroke="#E9EBF1" stroke-width="0.5"/>
</g>
<g clip-path="url(#clip6_4048_37284)">
<rect x="-0.25" y="0.25" width="0.5" height="205.5" transform="matrix(-1 0 0 1 240.5 33)" stroke="#E9EBF1" stroke-width="0.5"/>
</g>
<g clip-path="url(#clip7_4048_37284)">
<rect x="-0.25" y="0.25" width="0.5" height="205.5" transform="matrix(-1 0 0 1 337.5 33)" stroke="#E9EBF1" stroke-width="0.5"/>
<rect x="-0.25" y="0.25" width="0.5" height="205.5" transform="matrix(-1 0 0 1 289.5 33)" stroke="#E9EBF1" stroke-width="0.5"/>
</g>
</g>
<rect width="302" height="206" transform="matrix(-1 0 0 1 338 37)" fill="white" fill-opacity="0.01"/>
<g clip-path="url(#clip8_4048_37284)">
<g clip-path="url(#clip9_4048_37284)">
<rect width="33.1154" height="12" transform="matrix(-1 0 0 1 337 225)" fill="#9E9E9E"/>
<rect width="11.0385" height="12" transform="matrix(-1 0 0 1 303.885 225)" fill="#E7E7E7"/>
<path d="M292.846 225H214.954C211.64 225 208.954 227.686 208.954 231V231C208.954 234.314 211.64 237 214.954 237H292.846V225Z" fill="#D1DBE5"/>
</g>
<g clip-path="url(#clip10_4048_37284)">
<rect width="64.0231" height="12" transform="matrix(-1 0 0 1 337 179)" fill="#9E9E9E"/>
<rect width="47.4654" height="12" transform="matrix(-1 0 0 1 272.977 179)" fill="#E7E7E7"/>
<path d="M225.511 179H192.877C189.563 179 186.877 181.686 186.877 185V185C186.877 188.314 189.563 191 192.877 191H225.511V179Z" fill="#D1DBE5"/>
</g>
<g clip-path="url(#clip11_4048_37284)">
<rect width="41.9462" height="12" transform="matrix(-1 0 0 1 337 133)" fill="#9E9E9E"/>
<rect width="64.0231" height="12" transform="matrix(-1 0 0 1 295.054 133)" fill="#E7E7E7"/>
<path d="M231.031 133H174.112C170.798 133 168.112 135.686 168.112 139V139C168.112 142.314 170.798 145 174.112 145H231.031V133Z" fill="#D1DBE5"/>
</g>
<g clip-path="url(#clip12_4048_37284)">
<rect width="26.4923" height="12" transform="matrix(-1 0 0 1 337 87)" fill="#9E9E9E"/>
<rect width="103.762" height="12" transform="matrix(-1 0 0 1 310.508 87)" fill="#E7E7E7"/>
<path d="M206.746 87H133.269C129.955 87 127.269 89.6863 127.269 93V93C127.269 96.3137 129.955 99 133.269 99H206.746V87Z" fill="#D1DBE5"/>
</g>
<g clip-path="url(#clip13_4048_37284)">
<rect width="47.4654" height="12" transform="matrix(-1 0 0 1 337 41)" fill="#9E9E9E"/>
<rect width="93.8269" height="12" transform="matrix(-1 0 0 1 289.535 41)" fill="#E7E7E7"/>
<path d="M195.708 41H56C52.6863 41 50 43.6863 50 47V47C50 50.3137 52.6862 53 56 53H195.708V41Z" fill="#D1DBE5"/>
</g>
</g>
</g>
<defs>
<clipPath id="clip0_4048_37284">
<rect width="302" height="206" fill="white" transform="matrix(-1 0 0 1 338 33)"/>
</clipPath>
<clipPath id="clip1_4048_37284">
<rect width="294" height="230" fill="white" transform="matrix(-1 0 0 1 338 33)"/>
</clipPath>
<clipPath id="clip2_4048_37284">
<rect width="49" height="230" fill="white" transform="matrix(-1 0 0 1 93 33)"/>
</clipPath>
<clipPath id="clip3_4048_37284">
<rect width="49" height="230" fill="white" transform="matrix(-1 0 0 1 142 33)"/>
</clipPath>
<clipPath id="clip4_4048_37284">
<rect width="49" height="230" fill="white" transform="matrix(-1 0 0 1 191 33)"/>
</clipPath>
<clipPath id="clip5_4048_37284">
<rect width="49" height="230" fill="white" transform="matrix(-1 0 0 1 240 33)"/>
</clipPath>
<clipPath id="clip6_4048_37284">
<rect width="49" height="230" fill="white" transform="matrix(-1 0 0 1 289 33)"/>
</clipPath>
<clipPath id="clip7_4048_37284">
<rect width="49" height="230" fill="white" transform="matrix(-1 0 0 1 338 33)"/>
</clipPath>
<clipPath id="clip8_4048_37284">
<rect width="287" height="196" fill="white" transform="matrix(-1 0 0 1 337 41)"/>
</clipPath>
<clipPath id="clip9_4048_37284">
<rect width="128.046" height="12" fill="white" transform="matrix(-1 0 0 1 337 225)"/>
</clipPath>
<clipPath id="clip10_4048_37284">
<rect width="150.123" height="12" fill="white" transform="matrix(-1 0 0 1 337 179)"/>
</clipPath>
<clipPath id="clip11_4048_37284">
<rect width="168.888" height="12" fill="white" transform="matrix(-1 0 0 1 337 133)"/>
</clipPath>
<clipPath id="clip12_4048_37284">
<rect width="209.731" height="12" fill="white" transform="matrix(-1 0 0 1 337 87)"/>
</clipPath>
<clipPath id="clip13_4048_37284">
<rect width="287" height="12" fill="white" transform="matrix(-1 0 0 1 337 41)"/>
</clipPath>
</defs>
</svg>
