<svg width="375" height="279" viewBox="0 0 375 279" fill="none" xmlns="http://www.w3.org/2000/svg">
<rect width="375" height="279" fill="white"/>
<rect x="28" y="77" width="318" height="7" rx="3.5" fill="#D1DBE5"/>
<rect x="28" y="77" width="233" height="7" rx="3.5" fill="#BFBFBF"/>
<rect x="28" y="77" width="65" height="7" rx="3.5" fill="#E7E7E7"/>
<rect x="28" y="100" width="318" height="7" rx="3.5" fill="#D1DBE5"/>
<rect x="28" y="100" width="151" height="7" rx="3.5" fill="#BFBFBF"/>
<rect x="28" y="100" width="48" height="7" rx="3.5" fill="#E7E7E7"/>
<rect x="28" y="123" width="318" height="7" rx="3.5" fill="#D1DBE5"/>
<rect x="28" y="123" width="278" height="7" rx="3.5" fill="#BFBFBF"/>
<rect x="28" y="123" width="111" height="7" rx="3.5" fill="#E7E7E7"/>
<rect x="28" y="146" width="318" height="7" rx="3.5" fill="#D1DBE5"/>
<rect x="28" y="146" width="233" height="7" rx="3.5" fill="#BFBFBF"/>
<rect x="28" y="146" width="65" height="7" rx="3.5" fill="#E7E7E7"/>
<rect x="28" y="169" width="318" height="7" rx="3.5" fill="#D1DBE5"/>
<rect x="28" y="169" width="233" height="7" rx="3.5" fill="#BFBFBF"/>
<rect x="28" y="169" width="65" height="7" rx="3.5" fill="#E7E7E7"/>
</svg>
