<svg width="375" height="282" viewBox="0 0 375 282" fill="none" xmlns="http://www.w3.org/2000/svg">
<rect width="375" height="282" fill="white"/>
<g clip-path="url(#clip0_4043_35534)">
<g opacity="0.7">
<path fill-rule="evenodd" clip-rule="evenodd" d="M188 30C226.747 30 262.554 50.7313 281.93 84.3842C301.306 118.037 301.306 159.5 281.93 193.153C273.15 208.402 260.808 221.286 245.965 230.7L228.579 203.121C251.502 188.584 264.951 162.882 263.861 135.701C262.771 108.52 247.299 83.9927 223.281 71.3538C212.398 65.6271 200.294 62.6305 188 62.6305V30Z" fill="#A4A4A4"/>
<path fill-rule="evenodd" clip-rule="evenodd" d="M245.965 230.699C231.123 240.113 214.225 245.764 196.725 247.183L194.112 214.661C206.362 213.672 218.189 209.707 228.579 203.121L245.965 230.699Z" fill="#747474"/>
<path fill-rule="evenodd" clip-rule="evenodd" d="M79.6291 143.146C79.1573 131.448 80.5781 119.755 83.8264 108.509L115.079 117.586C112.806 125.455 111.809 133.645 112.139 141.835L79.6291 143.146Z" fill="#BDCCDA"/>
<path fill-rule="evenodd" clip-rule="evenodd" d="M196.726 247.184C158.104 250.311 120.751 232.533 98.7394 200.555C87.0802 183.619 80.4534 163.709 79.6292 143.147L112.139 141.836C113.229 169.017 128.701 193.544 152.719 206.183C165.441 212.878 179.795 215.82 194.112 214.662L196.726 247.184Z" fill="#DCDCDC"/>
<path fill-rule="evenodd" clip-rule="evenodd" d="M83.8264 108.509C94.6071 71.1852 124.422 42.4594 162.046 33.1597C170.538 31.0605 179.253 30 188 30V62.6305C160.875 62.6305 135.816 77.1403 122.253 100.7C119.189 106.018 116.781 111.685 115.079 117.586L83.8264 108.509Z" fill="#F3F5F8"/>
</g>
<g clip-path="url(#clip1_4043_35534)">
<path d="M172.824 128.699V131.023C172.824 132.137 172.714 133.087 172.492 133.875C172.277 134.656 171.965 135.291 171.555 135.779C171.145 136.268 170.653 136.626 170.08 136.854C169.514 137.081 168.879 137.195 168.176 137.195C167.616 137.195 167.095 137.124 166.613 136.98C166.138 136.837 165.708 136.613 165.324 136.307C164.94 136.001 164.611 135.607 164.338 135.125C164.071 134.637 163.863 134.054 163.713 133.377C163.57 132.7 163.498 131.915 163.498 131.023V128.699C163.498 127.579 163.609 126.635 163.83 125.867C164.051 125.092 164.367 124.464 164.777 123.982C165.188 123.494 165.676 123.139 166.242 122.918C166.815 122.697 167.453 122.586 168.156 122.586C168.723 122.586 169.243 122.658 169.719 122.801C170.201 122.938 170.63 123.156 171.008 123.455C171.392 123.755 171.717 124.145 171.984 124.627C172.258 125.102 172.466 125.678 172.609 126.355C172.753 127.026 172.824 127.807 172.824 128.699ZM170.471 131.355V128.348C170.471 127.781 170.438 127.283 170.373 126.854C170.308 126.417 170.21 126.049 170.08 125.75C169.956 125.444 169.8 125.197 169.611 125.008C169.423 124.812 169.208 124.673 168.967 124.588C168.726 124.497 168.456 124.451 168.156 124.451C167.792 124.451 167.466 124.523 167.18 124.666C166.893 124.803 166.652 125.024 166.457 125.33C166.262 125.636 166.112 126.04 166.008 126.541C165.91 127.036 165.861 127.638 165.861 128.348V131.355C165.861 131.928 165.894 132.433 165.959 132.869C166.024 133.305 166.122 133.68 166.252 133.992C166.382 134.298 166.538 134.552 166.721 134.754C166.91 134.949 167.124 135.092 167.365 135.184C167.613 135.275 167.883 135.32 168.176 135.32C168.547 135.32 168.876 135.249 169.162 135.105C169.449 134.962 169.689 134.734 169.885 134.422C170.08 134.103 170.227 133.689 170.324 133.182C170.422 132.674 170.471 132.065 170.471 131.355ZM184.191 128.699V131.023C184.191 132.137 184.081 133.087 183.859 133.875C183.645 134.656 183.332 135.291 182.922 135.779C182.512 136.268 182.02 136.626 181.447 136.854C180.881 137.081 180.246 137.195 179.543 137.195C178.983 137.195 178.462 137.124 177.98 136.98C177.505 136.837 177.076 136.613 176.691 136.307C176.307 136.001 175.979 135.607 175.705 135.125C175.438 134.637 175.23 134.054 175.08 133.377C174.937 132.7 174.865 131.915 174.865 131.023V128.699C174.865 127.579 174.976 126.635 175.197 125.867C175.419 125.092 175.734 124.464 176.145 123.982C176.555 123.494 177.043 123.139 177.609 122.918C178.182 122.697 178.82 122.586 179.523 122.586C180.09 122.586 180.611 122.658 181.086 122.801C181.568 122.938 181.997 123.156 182.375 123.455C182.759 123.755 183.085 124.145 183.352 124.627C183.625 125.102 183.833 125.678 183.977 126.355C184.12 127.026 184.191 127.807 184.191 128.699ZM181.838 131.355V128.348C181.838 127.781 181.805 127.283 181.74 126.854C181.675 126.417 181.577 126.049 181.447 125.75C181.324 125.444 181.167 125.197 180.979 125.008C180.79 124.812 180.575 124.673 180.334 124.588C180.093 124.497 179.823 124.451 179.523 124.451C179.159 124.451 178.833 124.523 178.547 124.666C178.26 124.803 178.02 125.024 177.824 125.33C177.629 125.636 177.479 126.04 177.375 126.541C177.277 127.036 177.229 127.638 177.229 128.348V131.355C177.229 131.928 177.261 132.433 177.326 132.869C177.391 133.305 177.489 133.68 177.619 133.992C177.749 134.298 177.906 134.552 178.088 134.754C178.277 134.949 178.492 135.092 178.732 135.184C178.98 135.275 179.25 135.32 179.543 135.32C179.914 135.32 180.243 135.249 180.529 135.105C180.816 134.962 181.057 134.734 181.252 134.422C181.447 134.103 181.594 133.689 181.691 133.182C181.789 132.674 181.838 132.065 181.838 131.355ZM186.525 135.828C186.525 135.464 186.649 135.158 186.896 134.91C187.144 134.656 187.479 134.529 187.902 134.529C188.332 134.529 188.667 134.656 188.908 134.91C189.156 135.158 189.279 135.464 189.279 135.828C189.279 136.193 189.156 136.499 188.908 136.746C188.667 136.993 188.332 137.117 187.902 137.117C187.479 137.117 187.144 136.993 186.896 136.746C186.649 136.499 186.525 136.193 186.525 135.828ZM201.125 128.699V131.023C201.125 132.137 201.014 133.087 200.793 133.875C200.578 134.656 200.266 135.291 199.855 135.779C199.445 136.268 198.954 136.626 198.381 136.854C197.814 137.081 197.18 137.195 196.477 137.195C195.917 137.195 195.396 137.124 194.914 136.98C194.439 136.837 194.009 136.613 193.625 136.307C193.241 136.001 192.912 135.607 192.639 135.125C192.372 134.637 192.163 134.054 192.014 133.377C191.87 132.7 191.799 131.915 191.799 131.023V128.699C191.799 127.579 191.91 126.635 192.131 125.867C192.352 125.092 192.668 124.464 193.078 123.982C193.488 123.494 193.977 123.139 194.543 122.918C195.116 122.697 195.754 122.586 196.457 122.586C197.023 122.586 197.544 122.658 198.02 122.801C198.501 122.938 198.931 123.156 199.309 123.455C199.693 123.755 200.018 124.145 200.285 124.627C200.559 125.102 200.767 125.678 200.91 126.355C201.053 127.026 201.125 127.807 201.125 128.699ZM198.771 131.355V128.348C198.771 127.781 198.739 127.283 198.674 126.854C198.609 126.417 198.511 126.049 198.381 125.75C198.257 125.444 198.101 125.197 197.912 125.008C197.723 124.812 197.508 124.673 197.268 124.588C197.027 124.497 196.757 124.451 196.457 124.451C196.092 124.451 195.767 124.523 195.48 124.666C195.194 124.803 194.953 125.024 194.758 125.33C194.562 125.636 194.413 126.04 194.309 126.541C194.211 127.036 194.162 127.638 194.162 128.348V131.355C194.162 131.928 194.195 132.433 194.26 132.869C194.325 133.305 194.423 133.68 194.553 133.992C194.683 134.298 194.839 134.552 195.021 134.754C195.21 134.949 195.425 135.092 195.666 135.184C195.913 135.275 196.184 135.32 196.477 135.32C196.848 135.32 197.176 135.249 197.463 135.105C197.749 134.962 197.99 134.734 198.186 134.422C198.381 134.103 198.527 133.689 198.625 133.182C198.723 132.674 198.771 132.065 198.771 131.355ZM212.492 128.699V131.023C212.492 132.137 212.382 133.087 212.16 133.875C211.945 134.656 211.633 135.291 211.223 135.779C210.812 136.268 210.321 136.626 209.748 136.854C209.182 137.081 208.547 137.195 207.844 137.195C207.284 137.195 206.763 137.124 206.281 136.98C205.806 136.837 205.376 136.613 204.992 136.307C204.608 136.001 204.279 135.607 204.006 135.125C203.739 134.637 203.531 134.054 203.381 133.377C203.238 132.7 203.166 131.915 203.166 131.023V128.699C203.166 127.579 203.277 126.635 203.498 125.867C203.719 125.092 204.035 124.464 204.445 123.982C204.855 123.494 205.344 123.139 205.91 122.918C206.483 122.697 207.121 122.586 207.824 122.586C208.391 122.586 208.911 122.658 209.387 122.801C209.868 122.938 210.298 123.156 210.676 123.455C211.06 123.755 211.385 124.145 211.652 124.627C211.926 125.102 212.134 125.678 212.277 126.355C212.421 127.026 212.492 127.807 212.492 128.699ZM210.139 131.355V128.348C210.139 127.781 210.106 127.283 210.041 126.854C209.976 126.417 209.878 126.049 209.748 125.75C209.624 125.444 209.468 125.197 209.279 125.008C209.09 124.812 208.876 124.673 208.635 124.588C208.394 124.497 208.124 124.451 207.824 124.451C207.46 124.451 207.134 124.523 206.848 124.666C206.561 124.803 206.32 125.024 206.125 125.33C205.93 125.636 205.78 126.04 205.676 126.541C205.578 127.036 205.529 127.638 205.529 128.348V131.355C205.529 131.928 205.562 132.433 205.627 132.869C205.692 133.305 205.79 133.68 205.92 133.992C206.05 134.298 206.206 134.552 206.389 134.754C206.577 134.949 206.792 135.092 207.033 135.184C207.281 135.275 207.551 135.32 207.844 135.32C208.215 135.32 208.544 135.249 208.83 135.105C209.117 134.962 209.357 134.734 209.553 134.422C209.748 134.103 209.895 133.689 209.992 133.182C210.09 132.674 210.139 132.065 210.139 131.355Z" fill="#505D6F"/>
<path d="M175.953 149.625V161H174.008V149.625H175.953ZM179.523 149.625V151.188H170.469V149.625H179.523ZM179.383 156.867V156.688C179.383 156.078 179.471 155.513 179.648 154.992C179.826 154.466 180.081 154.01 180.414 153.625C180.753 153.234 181.164 152.932 181.648 152.719C182.138 152.5 182.69 152.391 183.305 152.391C183.924 152.391 184.477 152.5 184.961 152.719C185.451 152.932 185.865 153.234 186.203 153.625C186.542 154.01 186.799 154.466 186.977 154.992C187.154 155.513 187.242 156.078 187.242 156.688V156.867C187.242 157.477 187.154 158.042 186.977 158.562C186.799 159.083 186.542 159.539 186.203 159.93C185.865 160.315 185.453 160.617 184.969 160.836C184.484 161.049 183.935 161.156 183.32 161.156C182.701 161.156 182.146 161.049 181.656 160.836C181.172 160.617 180.76 160.315 180.422 159.93C180.083 159.539 179.826 159.083 179.648 158.562C179.471 158.042 179.383 157.477 179.383 156.867ZM181.266 156.688V156.867C181.266 157.247 181.305 157.607 181.383 157.945C181.461 158.284 181.583 158.581 181.75 158.836C181.917 159.091 182.13 159.292 182.391 159.438C182.651 159.583 182.961 159.656 183.32 159.656C183.669 159.656 183.971 159.583 184.227 159.438C184.487 159.292 184.701 159.091 184.867 158.836C185.034 158.581 185.156 158.284 185.234 157.945C185.318 157.607 185.359 157.247 185.359 156.867V156.688C185.359 156.312 185.318 155.958 185.234 155.625C185.156 155.286 185.031 154.987 184.859 154.727C184.693 154.466 184.479 154.263 184.219 154.117C183.964 153.966 183.659 153.891 183.305 153.891C182.951 153.891 182.643 153.966 182.383 154.117C182.128 154.263 181.917 154.466 181.75 154.727C181.583 154.987 181.461 155.286 181.383 155.625C181.305 155.958 181.266 156.312 181.266 156.688ZM192.695 152.547V153.922H187.93V152.547H192.695ZM189.305 150.477H191.188V158.664C191.188 158.924 191.224 159.125 191.297 159.266C191.375 159.401 191.482 159.492 191.617 159.539C191.753 159.586 191.911 159.609 192.094 159.609C192.224 159.609 192.349 159.602 192.469 159.586C192.589 159.57 192.685 159.555 192.758 159.539L192.766 160.977C192.609 161.023 192.427 161.065 192.219 161.102C192.016 161.138 191.781 161.156 191.516 161.156C191.083 161.156 190.701 161.081 190.367 160.93C190.034 160.773 189.773 160.521 189.586 160.172C189.398 159.823 189.305 159.359 189.305 158.781V150.477ZM198.914 159.305V155.273C198.914 154.971 198.859 154.711 198.75 154.492C198.641 154.273 198.474 154.104 198.25 153.984C198.031 153.865 197.755 153.805 197.422 153.805C197.115 153.805 196.849 153.857 196.625 153.961C196.401 154.065 196.227 154.206 196.102 154.383C195.977 154.56 195.914 154.76 195.914 154.984H194.039C194.039 154.651 194.12 154.328 194.281 154.016C194.443 153.703 194.677 153.424 194.984 153.18C195.292 152.935 195.659 152.742 196.086 152.602C196.513 152.461 196.992 152.391 197.523 152.391C198.159 152.391 198.721 152.497 199.211 152.711C199.706 152.924 200.094 153.247 200.375 153.68C200.661 154.107 200.805 154.643 200.805 155.289V159.047C200.805 159.432 200.831 159.779 200.883 160.086C200.94 160.388 201.021 160.651 201.125 160.875V161H199.195C199.107 160.797 199.036 160.539 198.984 160.227C198.938 159.909 198.914 159.602 198.914 159.305ZM199.188 155.859L199.203 157.023H197.852C197.503 157.023 197.195 157.057 196.93 157.125C196.664 157.188 196.443 157.281 196.266 157.406C196.089 157.531 195.956 157.682 195.867 157.859C195.779 158.036 195.734 158.237 195.734 158.461C195.734 158.685 195.786 158.891 195.891 159.078C195.995 159.26 196.146 159.404 196.344 159.508C196.547 159.612 196.792 159.664 197.078 159.664C197.464 159.664 197.799 159.586 198.086 159.43C198.378 159.268 198.607 159.073 198.773 158.844C198.94 158.609 199.029 158.388 199.039 158.18L199.648 159.016C199.586 159.229 199.479 159.458 199.328 159.703C199.177 159.948 198.979 160.182 198.734 160.406C198.495 160.625 198.206 160.805 197.867 160.945C197.534 161.086 197.148 161.156 196.711 161.156C196.159 161.156 195.667 161.047 195.234 160.828C194.802 160.604 194.464 160.305 194.219 159.93C193.974 159.549 193.852 159.12 193.852 158.641C193.852 158.193 193.935 157.797 194.102 157.453C194.273 157.104 194.523 156.812 194.852 156.578C195.185 156.344 195.591 156.167 196.07 156.047C196.549 155.922 197.096 155.859 197.711 155.859H199.188ZM204.789 149V161H202.898V149H204.789Z" fill="#505D6F"/>
</g>
</g>
<defs>
<clipPath id="clip0_4043_35534">
<rect width="218" height="218" fill="white" transform="translate(79 30)"/>
</clipPath>
<clipPath id="clip1_4043_35534">
<rect width="144" height="58" fill="white" transform="translate(116 115)"/>
</clipPath>
</defs>
</svg>
