<svg width="350" height="350" viewBox="0 0 350 350" fill="none" xmlns="http://www.w3.org/2000/svg">
<g opacity="0.6">
<rect width="350" height="350" fill="white"/>
<path d="M89.7546 282.709C139.28 309.141 219.577 309.141 269.102 282.709C318.627 256.277 318.634 213.409 269.102 186.977C219.57 160.545 139.28 160.538 89.7546 186.977C40.2296 213.416 40.2296 256.27 89.7546 282.709Z" fill="#EBEBEB"/>
<path d="M283.667 217.126L276.443 212.926C276.443 212.926 274.672 197.45 275.848 185.466C277.507 168.617 288.385 148.365 301.356 153.112C314.327 157.858 295.399 175.057 291.199 189.337C286.999 203.617 283.667 217.126 283.667 217.126Z" fill="#407BFF"/>
<path opacity="0.1" d="M283.667 217.126L276.443 212.926C276.443 212.926 274.672 197.45 275.848 185.466C277.507 168.617 288.385 148.365 301.356 153.112C314.327 157.858 295.399 175.057 291.199 189.337C286.999 203.617 283.667 217.126 283.667 217.126Z" fill="black"/>
<path d="M279.909 215.23C279.841 215.23 279.776 215.207 279.724 215.163C279.673 215.119 279.639 215.058 279.629 214.992C277.172 196.092 283.899 167.525 297.479 156.689C297.507 156.666 297.539 156.649 297.573 156.639C297.608 156.629 297.644 156.626 297.68 156.63C297.716 156.633 297.75 156.644 297.782 156.662C297.813 156.679 297.841 156.702 297.864 156.731C297.91 156.788 297.931 156.862 297.923 156.935C297.915 157.009 297.879 157.076 297.822 157.123C284.389 167.847 277.746 196.19 280.182 214.915C280.192 214.988 280.172 215.062 280.128 215.121C280.083 215.18 280.017 215.219 279.944 215.23H279.909Z" fill="white"/>
<path d="M287.524 220.116L282.386 217.141C282.386 217.141 281.511 206.522 286.719 193.621C291.248 182.421 302.497 173.069 308.153 175.029C313.809 176.989 313.669 181 310.911 185.207C308.153 189.414 291.374 199.445 287.524 220.116Z" fill="#407BFF"/>
<path d="M284.34 220.389C284.303 220.387 284.268 220.378 284.235 220.362C284.202 220.346 284.172 220.324 284.148 220.296C284.124 220.269 284.106 220.237 284.094 220.202C284.083 220.168 284.078 220.131 284.081 220.095C285.775 193.663 299.145 180.664 307.181 178.683C307.253 178.665 307.329 178.677 307.393 178.715C307.457 178.753 307.504 178.814 307.524 178.886C307.541 178.957 307.529 179.032 307.491 179.095C307.453 179.158 307.392 179.203 307.321 179.222C298.858 181.322 286.23 195.392 284.648 220.13C284.645 220.167 284.635 220.204 284.618 220.237C284.601 220.27 284.578 220.3 284.549 220.324C284.52 220.349 284.487 220.367 284.451 220.378C284.415 220.389 284.377 220.392 284.34 220.389Z" fill="white"/>
<path d="M75.5993 219.184C75.5993 219.184 76.5583 203.665 67.5423 193.025C58.5263 182.385 46.7873 182.427 42.9023 184.408C39.0173 186.389 36.4063 192.052 43.0913 196.105C49.7763 200.158 63.9933 208.271 66.3593 215.509L75.5993 219.184Z" fill="#407BFF"/>
<path opacity="0.1" d="M75.5993 219.184C75.5993 219.184 76.5583 203.665 67.5423 193.025C58.5263 182.385 46.7873 182.427 42.9023 184.408C39.0173 186.389 36.4063 192.052 43.0913 196.105C49.7763 200.158 63.9933 208.271 66.3593 215.509L75.5993 219.184Z" fill="black"/>
<path d="M71.3576 215.299C71.2709 215.298 71.1877 215.266 71.1233 215.208C71.0589 215.15 71.0177 215.071 71.0076 214.984C69.1526 197.813 51.9886 188.3 45.1496 187.222C45.1036 187.216 45.0594 187.2 45.0196 187.176C44.9798 187.152 44.9451 187.12 44.9174 187.083C44.8898 187.045 44.8698 187.003 44.8586 186.958C44.8474 186.913 44.8452 186.866 44.8521 186.82C44.859 186.774 44.8748 186.73 44.8988 186.69C44.9228 186.65 44.9543 186.615 44.9917 186.588C45.0291 186.56 45.0715 186.54 45.1166 186.529C45.1617 186.518 45.2086 186.516 45.2546 186.522C52.2546 187.621 69.8036 197.351 71.7076 214.908C71.7124 214.954 71.7081 215 71.6948 215.044C71.6816 215.089 71.6596 215.13 71.6304 215.166C71.6011 215.201 71.565 215.231 71.5242 215.253C71.4833 215.275 71.4386 215.288 71.3926 215.292L71.3576 215.299Z" fill="white"/>
<path d="M68.0188 211.359C65.7578 206.207 63.2028 203.897 55.8528 205.129C48.5028 206.361 49.5528 206.172 40.5578 203.869C36.7638 202.903 32.5008 202.749 28.8608 204.387C25.7878 205.787 23.4918 208.587 26.4668 211.569C29.8128 214.901 34.8038 216.042 38.4998 218.975C39.3382 219.568 40.0048 220.372 40.4318 221.306C41.4048 223.784 39.4588 226.577 40.0258 229.174C40.5928 231.771 43.3228 233.157 45.8848 233.325C48.4468 233.493 50.9738 232.723 53.5288 232.429C56.0838 232.135 58.9538 232.429 60.7178 234.326C62.6078 236.335 62.6568 239.548 64.4138 241.683C67.0458 244.882 73.5138 245.771 77.0138 243.783L86.1768 238.498C92.2318 230.336 82.6768 223.868 77.6718 217.533C75.2428 214.446 69.3768 214.46 68.0188 211.359Z" fill="#407BFF"/>
<path d="M80.4993 233.569C80.4397 233.571 80.3809 233.556 80.3291 233.526C80.2773 233.496 80.2345 233.453 80.2053 233.401C69.7543 216.468 41.2993 207.9 31.2333 207.2C31.1417 207.193 31.0566 207.15 30.9963 207.081C30.9361 207.011 30.9055 206.921 30.9113 206.829C30.9185 206.737 30.9612 206.651 31.0304 206.59C31.0996 206.529 31.1899 206.496 31.2823 206.5C41.4813 207.2 70.2093 215.894 80.8003 233.051C80.8472 233.131 80.861 233.227 80.8388 233.317C80.8166 233.407 80.7601 233.485 80.6813 233.534C80.6241 233.56 80.5619 233.572 80.4993 233.569Z" fill="white"/>
<path d="M47.3964 225.589C47.3419 225.591 47.2879 225.578 47.2391 225.554C47.1903 225.53 47.1482 225.494 47.1164 225.449C47.0607 225.375 47.0368 225.282 47.0499 225.19C47.063 225.098 47.1121 225.015 47.1864 224.959C47.5504 224.686 56.2304 218.317 64.6864 218.191C64.732 218.19 64.7774 218.198 64.8198 218.215C64.8622 218.231 64.9009 218.257 64.9335 218.288C64.9661 218.32 64.9919 218.359 65.0096 218.401C65.0273 218.443 65.0364 218.488 65.0364 218.533C65.0373 218.579 65.0292 218.625 65.0124 218.668C64.9957 218.711 64.9707 218.75 64.9388 218.783C64.907 218.816 64.8689 218.843 64.8268 218.861C64.7847 218.88 64.7394 218.89 64.6934 218.89C56.4824 219.009 47.7114 225.456 47.6204 225.519C47.5572 225.57 47.4772 225.595 47.3964 225.589Z" fill="white"/>
<path d="M79.8486 239.519C79.9234 240.537 80.2368 241.523 80.7633 242.397C81.2899 243.272 82.0149 244.01 82.8796 244.552L167.811 293.587C168.75 294.064 169.788 294.312 170.842 294.312C171.895 294.312 172.933 294.064 173.873 293.587L290.073 226.492C290.989 226.009 291.755 225.285 292.29 224.398C292.825 223.511 293.107 222.495 293.107 221.459C293.107 220.423 292.825 219.407 292.29 218.521C291.755 217.634 290.989 216.91 290.073 216.426L205.149 167.426C204.209 166.95 203.171 166.701 202.118 166.701C201.064 166.701 200.026 166.95 199.087 167.426L82.8796 234.5C82.0167 235.041 81.2929 235.777 80.7664 236.649C80.2399 237.52 79.9256 238.504 79.8486 239.519Z" fill="#37474F"/>
<path d="M114.89 216.006L82.8793 234.5C81.9634 234.983 81.1968 235.707 80.6621 236.594C80.1273 237.481 79.8447 238.497 79.8447 239.533C79.8447 240.569 80.1273 241.585 80.6621 242.471C81.1968 243.358 81.9634 244.082 82.8793 244.566L167.81 293.601C168.744 294.089 169.788 294.33 170.841 294.301V216.006H114.89Z" fill="#263238"/>
<path d="M76.9992 234.598C76.1556 234.023 75.4589 233.258 74.9653 232.364C74.4716 231.47 74.1948 230.473 74.1572 229.453V128.1C74.2136 127.048 74.5175 126.024 75.0442 125.112C75.5708 124.2 76.3055 123.425 77.1882 122.85L193.388 55.7548C194.265 55.2046 195.276 54.9038 196.311 54.8848C197.346 54.8657 198.367 55.129 199.264 55.6465C200.161 56.164 200.899 56.9161 201.401 57.8219C201.902 58.7277 202.148 59.7531 202.11 60.7878V162.148C202.053 163.199 201.748 164.223 201.222 165.135C200.695 166.047 199.961 166.822 199.079 167.398L82.8792 234.5C81.9756 234.976 80.9724 235.234 79.9509 235.251C78.9294 235.268 77.9183 235.044 76.9992 234.598Z" fill="#455A64"/>
<path d="M88.3812 132.81L75.0462 125.11C74.5152 126.019 74.2237 127.047 74.1992 128.099V229.452C74.2368 230.473 74.5136 231.47 75.0072 232.363C75.5009 233.257 76.1976 234.022 77.0412 234.597C77.9604 235.04 78.9709 235.261 79.9911 235.241C81.0112 235.222 82.0126 234.963 82.9142 234.485L96.1722 226.834L88.3812 132.81Z" fill="#263238"/>
<path d="M79.8486 131.389V232.735C79.8486 234.667 81.2066 235.451 82.8796 234.485L199.08 167.397C199.962 166.822 200.696 166.047 201.222 165.134C201.749 164.222 202.053 163.199 202.111 162.147V60.7944C202.111 58.8624 200.753 58.0784 199.08 59.0444L82.8796 126.139C81.9969 126.714 81.2623 127.489 80.7356 128.402C80.2089 129.314 79.905 130.338 79.8486 131.389Z" fill="#37474F"/>
<path d="M82.8791 238L167.81 287C168.749 287.476 169.788 287.725 170.841 287.725C171.894 287.725 172.933 287.476 173.872 287L290.072 219.905C291.752 218.939 291.752 217.371 290.072 216.405L205.148 167.405C204.209 166.928 203.17 166.68 202.117 166.68C201.064 166.68 200.025 166.928 199.086 167.405L82.8791 234.5C81.1991 235.452 81.1991 237.02 82.8791 238Z" fill="#455A64"/>
<path d="M84.5095 131.761L197.454 66.5559C198.455 65.9749 199.274 66.4439 199.274 67.6059V155.337C199.239 155.968 199.056 156.582 198.74 157.129C198.424 157.676 197.983 158.141 197.454 158.487L84.5095 223.692C83.5015 224.273 82.6895 223.804 82.6895 222.642V134.911C82.7231 134.28 82.9055 133.665 83.2218 133.118C83.5381 132.57 83.9793 132.105 84.5095 131.761Z" fill="white"/>
<path d="M92.7355 235.36L200.599 173.06C201.068 172.822 201.587 172.698 202.114 172.698C202.641 172.698 203.16 172.822 203.629 173.06L209.153 176.245C209.335 176.307 209.494 176.425 209.607 176.582C209.719 176.739 209.78 176.927 209.78 177.12C209.78 177.313 209.719 177.502 209.607 177.659C209.494 177.815 209.335 177.933 209.153 177.995L101.268 240.288C100.799 240.526 100.28 240.65 99.753 240.65C99.2264 240.65 98.7072 240.526 98.2375 240.288L92.7355 237.11C92.5526 237.048 92.3938 236.93 92.2814 236.774C92.1689 236.617 92.1084 236.428 92.1084 236.235C92.1084 236.042 92.1689 235.854 92.2814 235.697C92.3938 235.54 92.5526 235.422 92.7355 235.36Z" fill="#263238"/>
<path d="M106.959 243.6L214.815 181.3C215.286 181.062 215.807 180.938 216.334 180.938C216.862 180.938 217.382 181.062 217.853 181.3L251.782 200.9C251.965 200.962 252.124 201.079 252.236 201.236C252.349 201.393 252.409 201.582 252.409 201.775C252.409 201.968 252.349 202.156 252.236 202.313C252.124 202.47 251.965 202.588 251.782 202.65L144.045 264.824C143.574 265.062 143.054 265.186 142.526 265.186C141.999 265.186 141.478 265.062 141.007 264.824L106.959 245.315C106.785 245.249 106.635 245.131 106.53 244.978C106.424 244.825 106.367 244.643 106.367 244.457C106.367 244.271 106.424 244.089 106.53 243.936C106.635 243.783 106.785 243.666 106.959 243.6Z" fill="#263238"/>
<path d="M203.644 209.3L207.025 207.347C207.165 207.263 207.158 207.13 207.025 207.039L203.119 204.785C203.036 204.742 202.943 204.719 202.849 204.719C202.756 204.719 202.663 204.742 202.58 204.785L199.206 206.738C199.059 206.822 199.066 206.955 199.206 207.046L203.112 209.3C203.194 209.342 203.285 209.363 203.378 209.363C203.47 209.363 203.561 209.342 203.644 209.3ZM196.98 201.6L193.606 203.553C193.459 203.63 193.466 203.77 193.606 203.861L197.512 206.115C197.595 206.158 197.688 206.18 197.781 206.18C197.875 206.18 197.968 206.158 198.051 206.115L201.432 204.162C201.572 204.078 201.565 203.938 201.432 203.854L197.519 201.6C197.436 201.557 197.343 201.534 197.249 201.534C197.156 201.534 197.063 201.557 196.98 201.6ZM186.074 207.9L180.355 211.197C180.215 211.281 180.222 211.421 180.355 211.512L184.261 213.766C184.344 213.809 184.437 213.831 184.53 213.831C184.624 213.831 184.717 213.809 184.8 213.766L190.512 210.469C190.659 210.385 190.645 210.245 190.512 210.161L186.606 207.9C186.524 207.857 186.433 207.834 186.34 207.834C186.247 207.834 186.156 207.857 186.074 207.9ZM192.045 204.449L188.671 206.402C188.524 206.486 188.531 206.626 188.671 206.71L192.577 208.964C192.66 209.007 192.753 209.029 192.846 209.029C192.94 209.029 193.033 209.007 193.116 208.964L196.497 207.011C196.637 206.927 196.63 206.794 196.497 206.703L192.584 204.4C192.501 204.357 192.408 204.334 192.314 204.334C192.221 204.334 192.128 204.357 192.045 204.4V204.449ZM178.794 212.1L175.42 214.046C175.273 214.13 175.287 214.27 175.42 214.361L179.326 216.615C179.408 216.656 179.5 216.678 179.592 216.678C179.684 216.678 179.775 216.656 179.858 216.615L183.239 214.662C183.379 214.578 183.372 214.438 183.239 214.354L179.333 212.1C179.25 212.057 179.157 212.034 179.063 212.034C178.97 212.034 178.877 212.057 178.794 212.1ZM173.894 214.949L170.52 216.902C170.373 216.979 170.387 217.119 170.52 217.21L174.426 219.464C174.509 219.507 174.602 219.529 174.695 219.529C174.789 219.529 174.882 219.507 174.965 219.464L178.346 217.511C178.486 217.427 178.479 217.287 178.346 217.203L174.398 214.9C174.315 214.857 174.222 214.834 174.128 214.834C174.035 214.834 173.942 214.857 173.859 214.9L173.894 214.949ZM189.259 224.119L192.633 222.166C192.78 222.082 192.766 221.949 192.633 221.858L188.727 219.604C188.645 219.561 188.553 219.538 188.461 219.538C188.368 219.538 188.277 219.561 188.195 219.604L184.814 221.557C184.674 221.641 184.681 221.774 184.814 221.865L188.72 224.119C188.801 224.151 188.889 224.164 188.976 224.158C189.063 224.152 189.148 224.127 189.224 224.084L189.259 224.119ZM184.317 226.968L187.698 225.015C187.838 224.938 187.831 224.798 187.698 224.707L183.792 222.453C183.709 222.41 183.616 222.387 183.522 222.387C183.429 222.387 183.336 222.41 183.253 222.453L179.879 224.406C179.732 224.49 179.746 224.63 179.879 224.714L183.785 226.968C183.865 227 183.951 227.013 184.037 227.007C184.123 227.001 184.207 226.976 184.282 226.933L184.317 226.968ZM179.382 229.817L182.763 227.871C182.903 227.787 182.896 227.647 182.763 227.556L178.857 225.302C178.773 225.26 178.681 225.239 178.587 225.239C178.494 225.239 178.402 225.26 178.318 225.302L174.944 227.255C174.797 227.339 174.811 227.479 174.944 227.563L178.843 229.817C178.924 229.849 179.012 229.862 179.099 229.856C179.186 229.85 179.271 229.825 179.347 229.782L179.382 229.817ZM174.482 232.666L177.863 230.72C178.003 230.636 177.996 230.496 177.863 230.405L173.957 228.151C173.874 228.108 173.781 228.085 173.687 228.085C173.594 228.085 173.501 228.108 173.418 228.151L170.044 230.097C169.897 230.181 169.904 230.321 170.044 230.412L173.95 232.666C174.102 232.715 174.268 232.703 174.412 232.631L174.482 232.666ZM198.779 212.198L202.16 210.245C202.3 210.168 202.293 210.028 202.16 209.937L198.254 207.683C198.17 207.641 198.078 207.62 197.984 207.62C197.891 207.62 197.799 207.641 197.715 207.683L194.341 209.636C194.194 209.72 194.201 209.86 194.341 209.944L198.247 212.198C198.322 212.224 198.402 212.234 198.481 212.228C198.561 212.222 198.638 212.2 198.709 212.163L198.779 212.198ZM194.229 221.298L201.761 216.944C201.901 216.867 201.894 216.727 201.761 216.636L192.276 211.162C192.193 211.119 192.1 211.096 192.006 211.096C191.913 211.096 191.82 211.119 191.737 211.162L187.845 213.416C187.698 213.493 187.712 213.633 187.845 213.724L192.871 216.622C193.025 216.713 193.032 216.853 192.871 216.937L189.7 218.659C189.56 218.736 189.567 218.876 189.7 218.967L193.62 221.2C193.7 221.248 193.791 221.277 193.885 221.283C193.979 221.289 194.073 221.272 194.159 221.235L194.229 221.298ZM168.994 217.798L165.62 219.751C165.473 219.835 165.48 219.968 165.62 220.059L169.526 222.313C169.609 222.356 169.702 222.378 169.795 222.378C169.889 222.378 169.982 222.356 170.065 222.313L173.446 220.36C173.586 220.276 173.579 220.143 173.446 220.052L169.54 217.798C169.45 217.736 169.346 217.699 169.237 217.693C169.128 217.687 169.02 217.711 168.924 217.763L168.994 217.798ZM164.094 220.647L160.608 222.6C160.468 222.684 160.475 222.824 160.608 222.908L164.514 225.162C164.597 225.205 164.69 225.227 164.783 225.227C164.877 225.227 164.97 225.205 165.053 225.162L168.434 223.209C168.574 223.132 168.567 222.992 168.434 222.901L164.5 220.626C164.421 220.585 164.334 220.563 164.246 220.56C164.157 220.558 164.07 220.576 163.989 220.612L164.094 220.647ZM139.3 252.567C139.383 252.61 139.476 252.632 139.569 252.632C139.663 252.632 139.756 252.61 139.839 252.567L143.22 250.614C143.36 250.537 143.353 250.397 143.22 250.306L139.3 248.066C139.217 248.023 139.124 248 139.03 248C138.937 248 138.844 248.023 138.761 248.066L135.387 250.019C135.24 250.103 135.247 250.243 135.387 250.327L139.3 252.567ZM124.481 243.411L121.1 245.364C120.96 245.448 120.967 245.581 121.1 245.672L125.006 247.926C125.089 247.969 125.182 247.991 125.275 247.991C125.369 247.991 125.462 247.969 125.545 247.926L128.926 245.973C129.066 245.889 129.059 245.756 128.926 245.665L125.02 243.411C124.939 243.371 124.851 243.351 124.761 243.351C124.671 243.351 124.582 243.371 124.502 243.411H124.481ZM132.426 250.096C132.509 250.139 132.602 250.161 132.695 250.161C132.789 250.161 132.882 250.139 132.965 250.096L136.339 248.143C136.486 248.066 136.472 247.926 136.339 247.835L132.44 245.581C132.357 245.538 132.264 245.515 132.17 245.515C132.077 245.515 131.984 245.538 131.901 245.581L128.52 247.534C128.38 247.618 128.387 247.758 128.52 247.842L132.426 250.096ZM148.015 254.296L151.396 252.343C151.536 252.259 151.529 252.126 151.396 252.035L147.49 249.781C147.407 249.738 147.314 249.715 147.22 249.715C147.127 249.715 147.034 249.738 146.951 249.781L143.577 251.734C143.43 251.811 143.444 251.951 143.577 252.042L147.476 254.296C147.561 254.343 147.657 254.369 147.755 254.37C147.853 254.371 147.949 254.348 148.036 254.303L148.015 254.296ZM142.541 257.096C142.624 257.139 142.717 257.161 142.81 257.161C142.904 257.161 142.997 257.139 143.08 257.096L146.461 255.143C146.601 255.066 146.594 254.926 146.461 254.835L142.555 252.581C142.472 252.538 142.379 252.515 142.285 252.515C142.192 252.515 142.099 252.538 142.016 252.581L138.642 254.534C138.495 254.618 138.502 254.758 138.642 254.842L142.541 257.096ZM129.416 240.52L126.042 242.473C125.895 242.55 125.902 242.69 126.042 242.781L129.948 245.035C130.031 245.078 130.124 245.1 130.217 245.1C130.311 245.1 130.404 245.078 130.487 245.035L133.868 243.082C134.008 242.998 134.001 242.858 133.868 242.774L129.962 240.52C129.877 240.486 129.786 240.471 129.694 240.479C129.603 240.486 129.515 240.514 129.437 240.562L129.416 240.52ZM154.098 226.275L150.717 228.221C150.577 228.305 150.584 228.445 150.717 228.529L154.623 230.79C154.707 230.831 154.799 230.853 154.892 230.853C154.986 230.853 155.078 230.831 155.162 230.79L158.536 228.844C158.683 228.76 158.676 228.62 158.536 228.529L154.63 226.275C154.547 226.243 154.458 226.23 154.37 226.237C154.281 226.244 154.195 226.272 154.119 226.317L154.098 226.275ZM134.4 237.713L131.026 239.659C130.879 239.743 130.886 239.883 131.026 239.974L134.932 242.228C135.016 242.269 135.108 242.291 135.201 242.291C135.295 242.291 135.387 242.269 135.471 242.228L138.852 240.275C138.992 240.191 138.985 240.051 138.852 239.967L134.946 237.706C134.861 237.664 134.767 237.643 134.672 237.645C134.577 237.646 134.484 237.669 134.4 237.713ZM159.082 223.461L155.673 225.4C155.533 225.484 155.54 225.624 155.673 225.708L159.579 227.962C159.662 228.005 159.755 228.027 159.848 228.027C159.942 228.027 160.035 228.005 160.118 227.962L163.492 226.016C163.639 225.932 163.632 225.792 163.492 225.701L159.6 223.475C159.516 223.43 159.423 223.406 159.329 223.403C159.234 223.401 159.14 223.42 159.054 223.461H159.082ZM149.212 229.166L145.831 231.112C145.691 231.196 145.698 231.336 145.831 231.427L149.737 233.681C149.821 233.722 149.913 233.744 150.006 233.744C150.1 233.744 150.192 233.722 150.276 233.681L153.65 231.735C153.797 231.651 153.783 231.511 153.65 231.42L149.751 229.166C149.663 229.12 149.566 229.096 149.467 229.096C149.369 229.096 149.271 229.12 149.184 229.166H149.212ZM144.27 232.015L140.896 233.961C140.749 234.045 140.763 234.185 140.896 234.276L144.802 236.53C144.886 236.571 144.978 236.593 145.071 236.593C145.165 236.593 145.257 236.571 145.341 236.53L148.715 234.584C148.855 234.5 148.848 234.36 148.715 234.269L144.809 232.015C144.721 231.969 144.624 231.945 144.525 231.945C144.427 231.945 144.329 231.969 144.242 232.015H144.27ZM139.3 234.864L135.926 236.81C135.779 236.894 135.793 237.034 135.926 237.125L139.825 239.379C139.908 239.422 140.001 239.444 140.094 239.444C140.188 239.444 140.281 239.422 140.364 239.379L143.745 237.433C143.885 237.349 143.878 237.209 143.745 237.118L139.839 234.864C139.755 234.822 139.663 234.801 139.569 234.801C139.476 234.801 139.384 234.822 139.3 234.864ZM164.535 238.364L167.909 236.418C168.056 236.334 168.049 236.194 167.909 236.103L163.996 233.8C163.912 233.758 163.82 233.737 163.726 233.737C163.633 233.737 163.541 233.758 163.457 233.8L160.076 235.746C159.936 235.83 159.943 235.97 160.076 236.061L163.982 238.315C164.067 238.364 164.162 238.39 164.26 238.393C164.358 238.395 164.455 238.373 164.542 238.329L164.535 238.364ZM207.9 195.3L204.519 197.253C204.379 197.337 204.386 197.47 204.519 197.561L208.425 199.815C208.508 199.858 208.601 199.88 208.694 199.88C208.788 199.88 208.881 199.858 208.964 199.815L212.338 197.862C212.485 197.778 212.478 197.645 212.338 197.554L208.432 195.3C208.349 195.258 208.258 195.236 208.166 195.236C208.073 195.236 207.982 195.258 207.9 195.3ZM201.922 198.751L198.548 200.704C198.401 200.781 198.415 200.921 198.548 201.012L202.447 203.266C202.531 203.307 202.623 203.329 202.716 203.329C202.81 203.329 202.902 203.307 202.986 203.266L206.367 201.313C206.507 201.229 206.5 201.089 206.367 201.005L202.461 198.751C202.38 198.701 202.287 198.672 202.192 198.666C202.097 198.66 202.002 198.677 201.915 198.716L201.922 198.751ZM212.835 192.451L209.461 194.404C209.314 194.481 209.321 194.621 209.461 194.712L213.367 196.966C213.45 197.009 213.543 197.031 213.636 197.031C213.73 197.031 213.823 197.009 213.906 196.966L217.287 195.013C217.427 194.929 217.42 194.789 217.287 194.705L213.381 192.451C213.295 192.395 213.197 192.363 213.095 192.356C212.993 192.35 212.891 192.371 212.8 192.416L212.835 192.451ZM187.285 218.799L190.666 216.846C190.806 216.762 190.799 216.622 190.666 216.538L186.76 214.284C186.677 214.241 186.584 214.218 186.49 214.218C186.397 214.218 186.304 214.241 186.221 214.284L182.847 216.237C182.7 216.314 182.707 216.454 182.847 216.545L186.753 218.799C186.837 218.834 186.928 218.849 187.019 218.843C187.111 218.837 187.199 218.81 187.278 218.764L187.285 218.799ZM218.309 189.616C218.226 189.573 218.133 189.55 218.039 189.55C217.946 189.55 217.853 189.573 217.77 189.616L214.396 191.569C214.249 191.646 214.256 191.786 214.396 191.877L218.302 194.131C218.386 194.172 218.478 194.194 218.571 194.194C218.665 194.194 218.757 194.172 218.841 194.131L222.222 192.178C222.362 192.094 222.355 191.954 222.222 191.87L218.309 189.616ZM169.477 235.48L172.858 233.534C172.998 233.45 172.991 233.31 172.858 233.219L168.931 231C168.848 230.957 168.755 230.934 168.661 230.934C168.568 230.934 168.475 230.957 168.392 231L165.018 232.946C164.871 233.03 164.878 233.17 165.018 233.261L168.924 235.515C169.012 235.553 169.108 235.57 169.205 235.564C169.301 235.558 169.394 235.529 169.477 235.48ZM230.006 200.536L233.387 198.583C233.527 198.506 233.52 198.366 233.387 198.275L229.46 196C229.377 195.957 229.284 195.934 229.19 195.934C229.097 195.934 229.004 195.957 228.921 196L225.547 197.953C225.4 198.037 225.407 198.177 225.547 198.261L229.453 200.515C229.536 200.563 229.63 200.591 229.727 200.594C229.823 200.598 229.919 200.578 230.006 200.536ZM219.506 200.165L222.887 198.212C223.027 198.128 223.02 197.995 222.887 197.904L218.981 195.65C218.898 195.607 218.805 195.584 218.711 195.584C218.618 195.584 218.525 195.607 218.442 195.65L215.068 197.603C214.921 197.687 214.928 197.82 215.068 197.911L218.974 200.165C219.052 200.21 219.139 200.237 219.229 200.243C219.319 200.249 219.409 200.234 219.492 200.2L219.506 200.165ZM223.895 192.801C223.812 192.758 223.719 192.735 223.625 192.735C223.532 192.735 223.439 192.758 223.356 192.801L219.982 194.754C219.835 194.831 219.842 194.971 219.982 195.062L223.888 197.316C223.971 197.359 224.064 197.381 224.157 197.381C224.251 197.381 224.344 197.359 224.427 197.316L227.808 195.363C227.948 195.279 227.941 195.139 227.808 195.055L223.895 192.801ZM224.938 192.199L234.416 197.673C234.499 197.716 234.592 197.738 234.685 197.738C234.779 197.738 234.872 197.716 234.955 197.673L238.336 195.72C238.476 195.636 238.469 195.503 238.336 195.412L228.851 189.938C228.768 189.895 228.675 189.872 228.581 189.872C228.488 189.872 228.395 189.895 228.312 189.938L224.938 191.891C224.756 191.968 224.77 192.108 224.924 192.199H224.938ZM213.486 198.499L210.105 200.452C209.965 200.536 209.972 200.676 210.105 200.76L214.011 203.014C214.094 203.057 214.187 203.079 214.28 203.079C214.374 203.079 214.467 203.057 214.55 203.014L217.924 201.061C218.071 200.984 218.064 200.844 217.924 200.753L214.018 198.499C213.938 198.457 213.85 198.434 213.76 198.432C213.671 198.429 213.582 198.447 213.5 198.485L213.486 198.499ZM176.337 219.947L172.942 221.9C172.802 221.984 172.809 222.124 172.942 222.208L176.848 224.462C176.931 224.505 177.024 224.527 177.117 224.527C177.211 224.527 177.304 224.505 177.387 224.462L180.761 222.509C180.908 222.432 180.901 222.292 180.761 222.201L176.855 219.947C176.774 219.903 176.683 219.879 176.591 219.876C176.498 219.874 176.406 219.893 176.323 219.933L176.337 219.947ZM224.546 203.385C224.629 203.428 224.722 203.45 224.815 203.45C224.909 203.45 225.002 203.428 225.085 203.385L228.466 201.432C228.606 201.355 228.599 201.215 228.466 201.124L224.56 198.87C224.476 198.828 224.384 198.807 224.29 198.807C224.197 198.807 224.105 198.828 224.021 198.87L220.647 200.823C220.5 200.907 220.507 201.047 220.647 201.131L224.546 203.385ZM181.272 217.098L177.898 219.051C177.751 219.135 177.758 219.268 177.898 219.359L181.804 221.613C181.887 221.656 181.98 221.678 182.073 221.678C182.167 221.678 182.26 221.656 182.343 221.613L185.724 219.66C185.864 219.576 185.857 219.443 185.724 219.352L181.818 217.098C181.733 217.049 181.637 217.022 181.54 217.02C181.442 217.017 181.345 217.039 181.258 217.084L181.272 217.098ZM144.27 249.732C144.353 249.775 144.446 249.797 144.539 249.797C144.633 249.797 144.726 249.775 144.809 249.732L148.19 247.779C148.33 247.695 148.323 247.562 148.19 247.471L144.284 245.217C144.201 245.174 144.108 245.151 144.014 245.151C143.921 245.151 143.828 245.174 143.745 245.217L140.371 247.17C140.224 247.254 140.238 247.387 140.371 247.478L144.27 249.732ZM136.85 242.732L133.469 244.685C133.329 244.769 133.336 244.902 133.469 244.993L137.375 247.247C137.458 247.29 137.551 247.312 137.644 247.312C137.738 247.312 137.831 247.29 137.914 247.247L141.288 245.294C141.435 245.21 141.428 245.077 141.288 244.986L137.382 242.732C137.298 242.688 137.204 242.665 137.109 242.665C137.014 242.665 136.92 242.688 136.836 242.732H136.85ZM149.751 246.883L153.125 244.93C153.265 244.846 153.258 244.706 153.125 244.622L149.219 242.368C149.136 242.325 149.043 242.302 148.949 242.302C148.856 242.302 148.763 242.325 148.68 242.368L145.271 244.3C145.131 244.377 145.138 244.517 145.271 244.608L149.177 246.862C149.261 246.912 149.356 246.94 149.454 246.943C149.552 246.947 149.649 246.926 149.737 246.883H149.751ZM154.686 244.034L158.06 242.081C158.207 241.997 158.193 241.857 158.06 241.773L154.161 239.519C154.078 239.476 153.985 239.453 153.891 239.453C153.798 239.453 153.705 239.476 153.622 239.519L150.241 241.465C150.101 241.549 150.108 241.689 150.241 241.78L154.147 244.034C154.232 244.077 154.327 244.1 154.423 244.1C154.519 244.1 154.614 244.077 154.7 244.034H154.686ZM159.586 241.178L162.96 239.232C163.107 239.148 163.1 239.008 162.96 238.924L159.054 236.663C158.97 236.621 158.878 236.6 158.784 236.6C158.691 236.6 158.599 236.621 158.515 236.663L155.134 238.609C154.994 238.693 155.001 238.833 155.134 238.924L159.04 241.178C159.126 241.224 159.222 241.249 159.32 241.249C159.418 241.249 159.514 241.224 159.6 241.178H159.586ZM141.75 239.883L138.369 241.836C138.229 241.913 138.236 242.053 138.369 242.144L142.275 244.398C142.358 244.441 142.451 244.463 142.544 244.463C142.638 244.463 142.731 244.441 142.814 244.398L146.195 242.445C146.335 242.361 146.328 242.221 146.195 242.137L142.289 239.883C142.208 239.843 142.12 239.823 142.03 239.823C141.94 239.823 141.851 239.843 141.771 239.883H141.75ZM146.685 237.034L143.311 238.98C143.164 239.064 143.171 239.204 143.311 239.295L147.217 241.549C147.301 241.59 147.393 241.612 147.486 241.612C147.58 241.612 147.672 241.59 147.756 241.549L151.2 239.61C151.34 239.526 151.333 239.386 151.2 239.302L147.294 237.048C147.206 236.994 147.105 236.964 147.002 236.962C146.899 236.96 146.796 236.984 146.706 237.034H146.685ZM166.432 225.638L163.1 227.584C162.96 227.668 162.967 227.808 163.1 227.899L167.006 230.153C167.09 230.194 167.182 230.216 167.275 230.216C167.369 230.216 167.461 230.194 167.545 230.153L170.919 228.207C171.066 228.123 171.052 227.983 170.919 227.892L167.02 225.638C166.933 225.59 166.835 225.565 166.736 225.565C166.637 225.565 166.54 225.59 166.453 225.638H166.432ZM161.49 228.487L158.116 230.433C157.976 230.517 157.983 230.657 158.116 230.748L162.022 233.002C162.106 233.043 162.198 233.065 162.291 233.065C162.385 233.065 162.477 233.043 162.561 233.002L165.935 231.056C166.082 230.972 166.068 230.832 165.935 230.741L162.029 228.487C161.948 228.449 161.859 228.429 161.77 228.429C161.68 228.429 161.592 228.449 161.511 228.487H161.49ZM171.367 222.782L168 224.735C167.86 224.819 167.867 224.959 168 225.043L171.906 227.304C171.99 227.345 172.082 227.367 172.175 227.367C172.269 227.367 172.361 227.345 172.445 227.304L175.819 225.351C175.966 225.274 175.959 225.134 175.819 225.043L171.913 222.789C171.831 222.749 171.742 222.727 171.651 222.726C171.56 222.725 171.47 222.744 171.388 222.782H171.367ZM151.62 234.185L148.246 236.131C148.099 236.215 148.106 236.355 148.246 236.446L152.152 238.7C152.236 238.741 152.328 238.763 152.421 238.763C152.515 238.763 152.607 238.741 152.691 238.7L156.072 236.747C156.212 236.663 156.205 236.523 156.072 236.439L152.166 234.178C152.083 234.14 151.993 234.121 151.903 234.122C151.812 234.123 151.722 234.145 151.641 234.185H151.62ZM156.555 231.336L153.181 233.282C153.034 233.366 153.048 233.506 153.181 233.597L157.087 235.851C157.169 235.894 157.26 235.916 157.353 235.916C157.445 235.916 157.537 235.894 157.619 235.851L161 233.905C161.14 233.821 161.133 233.681 161 233.59L157.094 231.336C157.013 231.298 156.924 231.278 156.835 231.278C156.745 231.278 156.657 231.298 156.576 231.336H156.555ZM152.957 251.454L156.331 249.501C156.471 249.417 156.464 249.277 156.331 249.193L152.425 246.939C152.342 246.896 152.249 246.873 152.155 246.873C152.062 246.873 151.969 246.896 151.886 246.939L148.512 248.892C148.365 248.969 148.379 249.109 148.512 249.2L152.418 251.454C152.504 251.5 152.6 251.525 152.698 251.525C152.796 251.525 152.892 251.5 152.978 251.454H152.957ZM124.012 248.5L120.106 246.246C120.023 246.203 119.93 246.18 119.836 246.18C119.743 246.18 119.65 246.203 119.567 246.246L116.2 248.213C116.06 248.297 116.067 248.43 116.2 248.521L120.106 250.775C120.189 250.818 120.282 250.84 120.375 250.84C120.469 250.84 120.562 250.818 120.645 250.775L124.019 248.822C124.173 248.759 124.166 248.619 124.012 248.5ZM131.404 250.67L127.498 248.416C127.415 248.375 127.324 248.353 127.232 248.353C127.14 248.353 127.048 248.375 126.966 248.416L121.8 251.433C121.66 251.517 121.667 251.657 121.8 251.741L125.706 253.995C125.789 254.038 125.882 254.06 125.975 254.06C126.069 254.06 126.162 254.038 126.245 253.995L131.439 250.999C131.6 250.929 131.558 250.789 131.404 250.698V250.67ZM118.02 244.139L114.1 241.913C114.017 241.87 113.924 241.847 113.83 241.847C113.737 241.847 113.644 241.87 113.561 241.913L109.417 244.3C109.277 244.384 109.284 244.524 109.417 244.615L113.323 246.869C113.406 246.912 113.499 246.934 113.592 246.934C113.686 246.934 113.779 246.912 113.862 246.869L118.013 244.475C118.181 244.398 118.174 244.258 118.02 244.167V244.139ZM121.205 242.298C121.288 242.341 121.381 242.363 121.474 242.363C121.568 242.363 121.661 242.341 121.744 242.298L125.118 240.345C125.265 240.268 125.258 240.128 125.118 240.037L121.212 237.783C121.129 237.74 121.036 237.717 120.942 237.717C120.849 237.717 120.756 237.74 120.673 237.783L117.292 239.736C117.152 239.82 117.159 239.96 117.292 240.044L121.205 242.298ZM138.285 253.141L134.4 250.915C134.316 250.873 134.224 250.852 134.13 250.852C134.037 250.852 133.945 250.873 133.861 250.915L127.365 254.667C127.225 254.751 127.232 254.891 127.365 254.975L131.271 257.236C131.355 257.277 131.447 257.299 131.54 257.299C131.634 257.299 131.726 257.277 131.81 257.236L138.306 253.484C138.446 253.4 138.439 253.26 138.285 253.169V253.141ZM141.526 257.712L137.62 255.5C137.537 255.457 137.444 255.434 137.35 255.434C137.257 255.434 137.164 255.457 137.081 255.5L132.923 257.901C132.783 257.985 132.79 258.125 132.923 258.216L136.829 260.47C136.913 260.511 137.005 260.533 137.098 260.533C137.192 260.533 137.284 260.511 137.368 260.47L141.526 258.069C141.687 257.971 141.68 257.831 141.526 257.74V257.712ZM157.906 221.109C157.989 221.152 158.082 221.174 158.175 221.174C158.269 221.174 158.362 221.152 158.445 221.109L161.819 219.163C161.966 219.079 161.952 218.939 161.819 218.848L157.913 216.594C157.829 216.552 157.737 216.531 157.643 216.531C157.55 216.531 157.458 216.552 157.374 216.594L154 218.575C153.86 218.659 153.867 218.799 154 218.883L157.906 221.109ZM148.029 226.814C148.113 226.855 148.205 226.877 148.298 226.877C148.392 226.877 148.484 226.855 148.568 226.814L151.949 224.868C152.089 224.784 152.082 224.644 151.949 224.553L148.043 222.299C147.959 222.257 147.867 222.236 147.773 222.236C147.68 222.236 147.588 222.257 147.504 222.299L144.13 224.245C143.983 224.329 143.997 224.469 144.13 224.56L148.029 226.814ZM126.14 239.477C126.223 239.52 126.316 239.542 126.409 239.542C126.503 239.542 126.596 239.52 126.679 239.477L130.053 237.524C130.2 237.44 130.193 237.307 130.053 237.216L126.147 234.962C126.064 234.919 125.971 234.896 125.877 234.896C125.784 234.896 125.691 234.919 125.608 234.962L122.227 236.915C122.087 236.999 122.094 237.132 122.227 237.223L126.14 239.477ZM152.971 224C153.053 224.041 153.145 224.063 153.237 224.063C153.329 224.063 153.42 224.041 153.503 224L156.884 222.054C157.024 221.97 157.017 221.83 156.884 221.739L152.978 219.485C152.895 219.442 152.802 219.419 152.708 219.419C152.615 219.419 152.522 219.442 152.439 219.485L149.065 221.431C148.918 221.515 148.932 221.655 149.065 221.746L152.971 224ZM143.094 229.698C143.177 229.741 143.27 229.763 143.363 229.763C143.457 229.763 143.55 229.741 143.633 229.698L147.014 227.752C147.154 227.668 147.147 227.528 147.014 227.437L143.108 225.183C143.024 225.141 142.932 225.12 142.838 225.12C142.745 225.12 142.653 225.141 142.569 225.183L139.195 227.129C139.048 227.213 139.055 227.353 139.195 227.444L143.094 229.698ZM144.235 258.111C144.151 258.069 144.059 258.048 143.965 258.048C143.872 258.048 143.78 258.069 143.696 258.111L138.502 261.1C138.362 261.184 138.369 261.324 138.502 261.415L142.408 263.669C142.491 263.712 142.584 263.734 142.677 263.734C142.771 263.734 142.864 263.712 142.947 263.669L148.141 260.673C148.288 260.589 148.274 260.449 148.141 260.358L144.235 258.111ZM136.01 233.8C136.094 233.841 136.186 233.863 136.279 233.863C136.373 233.863 136.465 233.841 136.549 233.8L139.93 231.847C140.07 231.763 140.063 231.623 139.93 231.539L136.024 229.285C135.941 229.242 135.848 229.219 135.754 229.219C135.661 229.219 135.568 229.242 135.485 229.285L132.111 231.238C131.964 231.315 131.971 231.455 132.111 231.546L136.01 233.8ZM131.075 236.6C131.158 236.643 131.251 236.665 131.344 236.665C131.438 236.665 131.531 236.643 131.614 236.6L134.995 234.647C135.135 234.563 135.128 234.423 134.995 234.339L131.089 232.085C131.006 232.042 130.913 232.019 130.819 232.019C130.726 232.019 130.633 232.042 130.55 232.085L127.176 234.038C127.029 234.115 127.036 234.255 127.176 234.346L131.075 236.6ZM235.683 205.31C235.6 205.267 235.507 205.244 235.413 205.244C235.32 205.244 235.227 205.267 235.144 205.31L226.8 210.098C226.66 210.182 226.667 210.322 226.8 210.413L230.706 212.667C230.79 212.708 230.882 212.73 230.975 212.73C231.069 212.73 231.161 212.708 231.245 212.667L239.603 207.9C239.75 207.816 239.743 207.676 239.603 207.585L235.683 205.31ZM224.77 211.61C224.687 211.567 224.594 211.544 224.5 211.544C224.407 211.544 224.314 211.567 224.231 211.61L220.857 213.556C220.71 213.64 220.717 213.78 220.857 213.871L224.763 216.125C224.847 216.166 224.939 216.188 225.032 216.188C225.126 216.188 225.218 216.166 225.302 216.125L228.683 214.179C228.823 214.095 228.816 213.955 228.683 213.864L224.77 211.61ZM157.913 248.605L161.287 246.652C161.434 246.568 161.42 246.428 161.287 246.344L157.388 244.083C157.304 244.041 157.212 244.02 157.118 244.02C157.025 244.02 156.933 244.041 156.849 244.083L153.468 246.029C153.328 246.113 153.335 246.253 153.468 246.344L157.374 248.598C157.457 248.64 157.549 248.663 157.643 248.664C157.736 248.665 157.828 248.645 157.913 248.605ZM214.9 217.308C214.816 217.266 214.724 217.245 214.63 217.245C214.537 217.245 214.445 217.266 214.361 217.308L210.98 219.254C210.84 219.338 210.847 219.478 210.98 219.569L214.886 221.823C214.969 221.866 215.062 221.888 215.155 221.888C215.249 221.888 215.342 221.866 215.425 221.823L218.799 219.877C218.946 219.793 218.939 219.653 218.799 219.562L214.9 217.308ZM240.618 202.461C240.534 202.419 240.442 202.398 240.348 202.398C240.255 202.398 240.163 202.419 240.079 202.461L236.705 204.4C236.558 204.484 236.565 204.624 236.705 204.708L240.611 206.969C240.695 207.01 240.787 207.032 240.88 207.032C240.974 207.032 241.066 207.01 241.15 206.969L244.531 205.023C244.671 204.939 244.664 204.799 244.531 204.708L240.618 202.461ZM249.459 201.866L239.974 196.392C239.891 196.349 239.798 196.326 239.704 196.326C239.611 196.326 239.518 196.349 239.435 196.392L236.061 198.345C235.914 198.429 235.921 198.569 236.061 198.653L245.546 204.127C245.629 204.17 245.722 204.192 245.815 204.192C245.909 204.192 246.002 204.17 246.085 204.127L249.466 202.174C249.62 202.097 249.613 201.957 249.459 201.866ZM196.455 227.962C196.372 227.919 196.279 227.896 196.185 227.896C196.092 227.896 195.999 227.919 195.916 227.962L191.758 230.363C191.618 230.447 191.625 230.587 191.758 230.671L195.664 232.925C195.747 232.968 195.84 232.99 195.933 232.99C196.027 232.99 196.12 232.968 196.203 232.925L200.361 230.524C200.501 230.44 200.494 230.3 200.361 230.216L196.455 227.962ZM208.922 220.759C208.839 220.716 208.746 220.693 208.652 220.693C208.559 220.693 208.466 220.716 208.383 220.759L203.189 223.755C203.049 223.839 203.056 223.979 203.189 224.063L207.095 226.324C207.179 226.365 207.271 226.387 207.364 226.387C207.458 226.387 207.55 226.365 207.634 226.324L212.828 223.328C212.968 223.244 212.961 223.104 212.828 223.013L208.922 220.759ZM185.024 234.556C184.94 234.514 184.848 234.493 184.754 234.493C184.661 234.493 184.569 234.514 184.485 234.556L156.688 250.6C156.548 250.684 156.555 250.824 156.688 250.915L160.594 253.169C160.678 253.21 160.77 253.232 160.863 253.232C160.957 253.232 161.049 253.21 161.133 253.169L188.93 237.118C189.07 237.034 189.063 236.894 188.93 236.803L185.024 234.556ZM155.666 251.51C155.583 251.467 155.49 251.444 155.396 251.444C155.303 251.444 155.21 251.467 155.127 251.51L150.976 253.911C150.829 253.995 150.836 254.135 150.976 254.219L154.882 256.473C154.965 256.516 155.058 256.538 155.151 256.538C155.245 256.538 155.338 256.516 155.421 256.473L159.6 254.1C159.74 254.016 159.733 253.876 159.6 253.792L155.666 251.51ZM190.736 231.259C190.652 231.217 190.56 231.196 190.466 231.196C190.373 231.196 190.281 231.217 190.197 231.259L186.046 233.66C185.899 233.744 185.906 233.884 186.046 233.975L189.952 236.229C190.036 236.27 190.128 236.292 190.221 236.292C190.315 236.292 190.407 236.27 190.491 236.229L194.649 233.828C194.796 233.751 194.782 233.611 194.649 233.52L190.736 231.259ZM149.954 254.8C149.87 254.758 149.778 254.737 149.684 254.737C149.591 254.737 149.499 254.758 149.415 254.8L145.257 257.201C145.117 257.285 145.124 257.425 145.257 257.516L149.163 259.77C149.247 259.811 149.339 259.833 149.432 259.833C149.526 259.833 149.618 259.811 149.702 259.77L153.853 257.376C154 257.292 153.993 257.152 153.853 257.061L149.954 254.8ZM202.167 224.651C202.083 224.609 201.991 224.588 201.897 224.588C201.804 224.588 201.712 224.609 201.628 224.651L197.477 227.045C197.33 227.129 197.337 227.269 197.477 227.36L201.383 229.614C201.467 229.655 201.559 229.677 201.652 229.677C201.746 229.677 201.838 229.655 201.922 229.614L206.08 227.213C206.227 227.129 206.213 226.989 206.08 226.898L202.167 224.651ZM219.835 214.452C219.752 214.409 219.659 214.386 219.565 214.386C219.472 214.386 219.379 214.409 219.296 214.452L215.922 216.398C215.775 216.482 215.782 216.622 215.922 216.713L219.828 218.967C219.912 219.008 220.004 219.03 220.097 219.03C220.191 219.03 220.283 219.008 220.367 218.967L223.748 217.021C223.888 216.937 223.881 216.797 223.748 216.706L219.835 214.452ZM230.65 206.598L234.024 204.652C234.171 204.568 234.164 204.428 234.024 204.337L230.118 202.083C230.034 202.041 229.942 202.02 229.848 202.02C229.755 202.02 229.663 202.041 229.579 202.083L226.198 204.036C226.058 204.12 226.065 204.26 226.198 204.344L230.104 206.605C230.189 206.647 230.282 206.669 230.377 206.669C230.472 206.669 230.565 206.647 230.65 206.605V206.598ZM208.6 206.5L211.981 204.547C212.121 204.463 212.114 204.323 211.981 204.239L208.075 201.985C207.992 201.942 207.899 201.919 207.805 201.919C207.712 201.919 207.619 201.942 207.536 201.985L204.162 203.938C204.015 204.022 204.029 204.155 204.162 204.246L208.061 206.5C208.144 206.543 208.237 206.565 208.33 206.565C208.424 206.565 208.517 206.543 208.6 206.5ZM197.4 225.841L207.27 220.143C207.41 220.059 207.403 219.919 207.27 219.828L203.364 217.574C203.28 217.532 203.188 217.511 203.094 217.511C203.001 217.511 202.909 217.532 202.825 217.574L192.955 223.279C192.815 223.356 192.822 223.496 192.955 223.587L196.861 225.841C196.947 225.878 197.041 225.895 197.135 225.889C197.228 225.883 197.319 225.854 197.4 225.806V225.841ZM225.176 209.482C225.26 209.523 225.352 209.545 225.445 209.545C225.539 209.545 225.631 209.523 225.715 209.482L229.089 207.536C229.236 207.452 229.229 207.312 229.089 207.221L225.183 204.967C225.1 204.924 225.007 204.901 224.913 204.901C224.82 204.901 224.727 204.924 224.644 204.967L221.263 206.913C221.123 206.997 221.13 207.137 221.263 207.228L225.176 209.482ZM220.136 206.269L223.51 204.323C223.657 204.239 223.65 204.099 223.51 204.008L219.604 201.754C219.52 201.712 219.428 201.691 219.334 201.691C219.241 201.691 219.149 201.712 219.065 201.754L215.684 203.707C215.544 203.791 215.551 203.931 215.684 204.015L219.59 206.276C219.678 206.312 219.773 206.327 219.868 206.32C219.963 206.312 220.054 206.283 220.136 206.234V206.269ZM192.465 228.669L195.839 226.716C195.986 226.632 195.972 226.499 195.839 226.408L191.933 224.154C191.85 224.111 191.757 224.088 191.663 224.088C191.57 224.088 191.477 224.111 191.394 224.154L187.999 226.1C187.852 226.184 187.866 226.317 187.999 226.408L191.905 228.662C191.996 228.714 192.099 228.74 192.203 228.739C192.308 228.738 192.41 228.709 192.5 228.655L192.465 228.669ZM214.263 215.761C214.347 215.802 214.439 215.824 214.532 215.824C214.626 215.824 214.718 215.802 214.802 215.761L218.183 213.815C218.323 213.731 218.316 213.591 218.183 213.5L214.277 211.246C214.193 211.204 214.101 211.183 214.007 211.183C213.914 211.183 213.822 211.204 213.738 211.246L210.364 213.199C210.217 213.283 210.224 213.423 210.364 213.507L214.263 215.761ZM167.783 242.9L171.157 240.954C171.304 240.87 171.297 240.73 171.157 240.639L167.251 238.385C167.167 238.343 167.075 238.322 166.981 238.322C166.888 238.322 166.796 238.343 166.712 238.385L163.331 240.331C163.191 240.415 163.198 240.555 163.331 240.646L167.237 242.9C167.322 242.942 167.415 242.964 167.51 242.964C167.605 242.964 167.698 242.942 167.783 242.9ZM172.718 240.051L176.099 238.105C176.239 238.021 176.232 237.881 176.099 237.79L172.2 235.536C172.117 235.493 172.024 235.47 171.93 235.47C171.837 235.47 171.744 235.493 171.661 235.536L168.28 237.482C168.14 237.566 168.147 237.706 168.28 237.797L172.186 240.051C172.269 240.091 172.36 240.112 172.452 240.112C172.544 240.112 172.635 240.091 172.718 240.051ZM162.848 245.749L166.222 243.803C166.369 243.719 166.362 243.579 166.222 243.488L162.323 241.234C162.239 241.192 162.147 241.171 162.053 241.171C161.96 241.171 161.868 241.192 161.784 241.234L158.403 243.18C158.263 243.264 158.27 243.404 158.403 243.495L162.309 245.749C162.392 245.792 162.485 245.814 162.578 245.814C162.672 245.814 162.765 245.792 162.848 245.749ZM182.588 234.353L185.969 232.407C186.109 232.323 186.102 232.183 185.969 232.092L182.063 229.838C181.979 229.796 181.887 229.775 181.793 229.775C181.7 229.775 181.608 229.796 181.524 229.838L178.15 231.791C178.003 231.875 178.01 232.015 178.15 232.099L182.056 234.353C182.138 234.395 182.229 234.416 182.322 234.416C182.414 234.416 182.505 234.395 182.588 234.353ZM177.688 237.202L181.069 235.256C181.209 235.172 181.202 235.032 181.069 234.941L177.1 232.687C177.017 232.644 176.924 232.621 176.83 232.621C176.737 232.621 176.644 232.644 176.561 232.687L173.187 234.633C173.04 234.717 173.047 234.857 173.187 234.941L177.093 237.202C177.179 237.247 177.275 237.27 177.373 237.27C177.47 237.27 177.566 237.247 177.653 237.202H177.688ZM187.558 231.504L190.939 229.551C191.079 229.474 191.072 229.334 190.939 229.243L187.033 226.989C186.95 226.946 186.857 226.923 186.763 226.923C186.67 226.923 186.577 226.946 186.494 226.989L183.064 228.9C182.917 228.984 182.931 229.124 183.064 229.208L186.963 231.462C187.045 231.515 187.14 231.547 187.238 231.554C187.335 231.561 187.433 231.544 187.523 231.504H187.558ZM210.14 189.343C210.223 189.386 210.316 189.408 210.409 189.408C210.503 189.408 210.596 189.386 210.679 189.343L214.06 187.39C214.2 187.313 214.193 187.173 214.06 187.082L213.024 186.48C212.94 186.438 212.848 186.417 212.754 186.417C212.661 186.417 212.569 186.438 212.485 186.48L209.104 188.426C208.964 188.51 208.971 188.65 209.104 188.741L210.14 189.343ZM185.857 205.023C185.94 205.066 186.033 205.088 186.126 205.088C186.22 205.088 186.313 205.066 186.396 205.023L189.77 203.077C189.917 202.993 189.91 202.853 189.77 202.762L185.864 200.508C185.78 200.466 185.688 200.445 185.594 200.445C185.501 200.445 185.409 200.466 185.325 200.508L181.944 202.454C181.804 202.538 181.811 202.678 181.944 202.769L185.857 205.023ZM195.727 199.325C195.811 199.366 195.903 199.388 195.996 199.388C196.09 199.388 196.182 199.366 196.266 199.325L199.647 197.379C199.787 197.295 199.78 197.155 199.647 197.064L195.741 194.81C195.658 194.767 195.565 194.744 195.471 194.744C195.378 194.744 195.285 194.767 195.202 194.81L191.8 196.756C191.653 196.84 191.66 196.98 191.8 197.071L195.727 199.325ZM179.83 208.502C179.914 208.543 180.006 208.565 180.099 208.565C180.193 208.565 180.285 208.543 180.369 208.502L183.743 206.549C183.89 206.465 183.883 206.325 183.743 206.241L179.837 203.98C179.753 203.938 179.661 203.917 179.567 203.917C179.474 203.917 179.382 203.938 179.298 203.98L175.917 205.926C175.777 206.01 175.784 206.15 175.917 206.241L179.83 208.502ZM190.792 202.202C190.876 202.243 190.968 202.265 191.061 202.265C191.155 202.265 191.247 202.243 191.331 202.202L194.712 200.256C194.852 200.172 194.845 200.032 194.712 199.941L190.806 197.687C190.722 197.645 190.63 197.624 190.536 197.624C190.443 197.624 190.351 197.645 190.267 197.687L186.893 199.633C186.746 199.717 186.753 199.857 186.893 199.948L190.792 202.202ZM169.925 214.2C170.008 214.243 170.101 214.265 170.194 214.265C170.288 214.265 170.381 214.243 170.464 214.2L173.838 212.247C173.985 212.163 173.971 212.023 173.838 211.939L169.939 209.685C169.856 209.642 169.763 209.619 169.669 209.619C169.576 209.619 169.483 209.642 169.4 209.685L166.019 211.638C165.879 211.715 165.886 211.855 166.019 211.946L169.925 214.2ZM174.86 211.351C174.944 211.392 175.036 211.414 175.129 211.414C175.223 211.414 175.315 211.392 175.399 211.351L178.773 209.398C178.92 209.314 178.913 209.174 178.773 209.09L174.874 206.836C174.791 206.793 174.698 206.77 174.604 206.77C174.511 206.77 174.418 206.793 174.335 206.836L170.954 208.789C170.814 208.866 170.821 209.006 170.954 209.097L174.86 211.351ZM200.235 195.048C200.319 195.089 200.411 195.111 200.504 195.111C200.598 195.111 200.69 195.089 200.774 195.048L204.155 193.102C204.295 193.018 204.288 192.878 204.155 192.787L203.112 192.185C203.028 192.143 202.936 192.122 202.842 192.122C202.749 192.122 202.657 192.143 202.573 192.185L199.199 194.131C199.052 194.215 199.066 194.355 199.199 194.446L200.235 195.048ZM215.047 186.494C215.129 186.537 215.22 186.559 215.313 186.559C215.405 186.559 215.497 186.537 215.579 186.494L218.96 184.541C219.1 184.457 219.093 184.324 218.96 184.233L217.924 183.631C217.841 183.588 217.748 183.565 217.654 183.565C217.561 183.565 217.468 183.588 217.385 183.631L214.004 185.577C213.864 185.661 213.871 185.801 214.004 185.892L215.047 186.494ZM223.244 191.233C223.328 191.274 223.42 191.296 223.513 191.296C223.607 191.296 223.699 191.274 223.783 191.233L227.164 189.28C227.304 189.196 227.297 189.056 227.164 188.972L223.258 186.711C223.174 186.669 223.082 186.648 222.988 186.648C222.895 186.648 222.803 186.669 222.719 186.711L219.345 188.657C219.198 188.741 219.212 188.881 219.345 188.972L223.244 191.233ZM235.585 203.756L238.966 201.803C239.106 201.726 239.099 201.586 238.966 201.495L235.06 199.241C234.976 199.199 234.884 199.178 234.79 199.178C234.697 199.178 234.605 199.199 234.521 199.241L231.147 201.194C231 201.278 231.007 201.418 231.147 201.502L235.053 203.756C235.135 203.798 235.226 203.819 235.319 203.819C235.411 203.819 235.502 203.798 235.585 203.756ZM205.17 192.199C205.254 192.24 205.346 192.262 205.439 192.262C205.533 192.262 205.625 192.24 205.709 192.199L209.09 190.253C209.23 190.169 209.223 190.029 209.09 189.938L208.047 189.336C207.963 189.294 207.871 189.273 207.777 189.273C207.684 189.273 207.592 189.294 207.508 189.336L204.134 191.282C203.994 191.366 204.001 191.506 204.134 191.597L205.17 192.199ZM164.99 217.049C165.073 217.092 165.166 217.114 165.259 217.114C165.353 217.114 165.446 217.092 165.529 217.049L168.903 215.096C169.043 215.012 169.036 214.879 168.903 214.788L164.997 212.534C164.914 212.491 164.821 212.468 164.727 212.468C164.634 212.468 164.541 212.491 164.458 212.534L161.084 214.487C160.944 214.571 160.951 214.704 161.084 214.795L164.99 217.049Z" fill="#455A64"/>
<path d="M185.059 247.73L222.019 226.387L244.769 239.519L207.802 260.862L185.059 247.73Z" fill="#263238"/>
<path d="M102.901 140.182L213.053 76.5871C215.202 75.3411 216.966 76.3631 216.966 78.8481V164.157C216.931 164.788 216.747 165.402 216.431 165.949C216.115 166.496 215.675 166.961 215.146 167.307L102.201 232.519C101.2 233.093 100.381 232.624 100.381 231.469V144.543C100.431 143.67 100.685 142.821 101.123 142.063C101.561 141.306 102.169 140.662 102.901 140.182Z" fill="#F5F5F5"/>
<path d="M217.001 80.892V78.848C217.001 76.363 215.237 75.348 213.088 76.587L102.901 140.182C102.169 140.662 101.561 141.306 101.123 142.063C100.685 142.82 100.431 143.67 100.381 144.543V148.204L217.001 80.892Z" fill="#407BFF"/>
<path d="M200.565 85.5472C200.172 85.8031 199.844 86.1482 199.61 86.5545C199.375 86.9607 199.239 87.4167 199.214 87.8852C199.214 88.7462 199.816 89.0962 200.565 88.6622C200.957 88.407 201.283 88.0628 201.516 87.6577C201.75 87.2526 201.884 86.7981 201.909 86.3312C201.909 85.4702 201.307 85.1202 200.565 85.5472Z" fill="white"/>
<path d="M205.913 82.4599C205.521 82.7166 205.195 83.0621 204.962 83.4683C204.728 83.8745 204.594 84.33 204.569 84.7979C204.569 85.6589 205.171 86.0019 205.913 85.5749C206.307 85.3189 206.634 84.9738 206.869 84.5676C207.103 84.1613 207.239 83.7054 207.264 83.2369C207.264 82.3759 206.662 82.0259 205.913 82.4599Z" fill="white"/>
<path d="M211.268 79.3665C210.876 79.6237 210.549 79.9691 210.315 80.3751C210.08 80.7811 209.944 81.2364 209.917 81.7045C209.917 82.5655 210.526 82.9155 211.268 82.4815C211.661 82.2267 211.988 81.8828 212.222 81.4777C212.457 81.0727 212.593 80.6179 212.619 80.1505C212.619 79.2895 212.01 78.9395 211.268 79.3665Z" fill="white"/>
<path d="M127.581 189.971L123.295 187.496L112.798 205.677L117.084 208.151L127.581 189.971Z" fill="#37474F"/>
<path d="M127.589 189.965L125.449 188.729L114.953 206.91L117.093 208.145L127.589 189.965Z" fill="#263238"/>
<path d="M101.29 241.178C99.337 244.573 90.09 239.183 92.036 235.837L116.151 198.226C116.216 198.124 116.318 198.051 116.435 198.022C116.552 197.994 116.676 198.011 116.781 198.072L121.625 200.872C121.729 200.931 121.807 201.028 121.841 201.143C121.875 201.258 121.862 201.381 121.807 201.488L101.29 241.178Z" fill="#407BFF"/>
<path opacity="0.1" d="M101.289 241.178L121.799 201.488C121.855 201.381 121.867 201.258 121.833 201.143C121.799 201.028 121.722 200.931 121.617 200.872L119.412 199.598L95.8994 241.395C98.0414 242.452 100.407 242.711 101.289 241.178Z" fill="black"/>
<path d="M172.2 152.635C172.2 152.348 172.2 152.068 172.158 151.788C172.116 151.508 172.158 151.235 172.095 150.962C172.032 150.689 172.095 150.598 172.039 150.416C171.99 149.94 171.92 149.471 171.843 149.016C171.808 148.813 171.773 148.603 171.731 148.4C171.689 148.197 171.654 148.015 171.612 147.826C171.493 147.308 171.367 146.804 171.22 146.321C171.143 146.09 171.073 145.859 170.996 145.621C170.981 145.587 170.969 145.552 170.961 145.516C170.877 145.292 170.8 145.075 170.716 144.865C170.632 144.655 170.52 144.375 170.408 144.165C170.296 143.955 170.254 143.822 170.163 143.654C170.112 143.528 170.051 143.406 169.981 143.29C169.911 143.143 169.834 142.996 169.75 142.856C169.666 142.716 169.715 142.786 169.694 142.758C169.673 142.73 169.547 142.506 169.47 142.38C169.393 142.254 169.365 142.219 169.316 142.142C168.957 141.577 168.555 141.041 168.112 140.539L167.888 140.287L167.699 140.091C167.622 140.007 167.538 139.93 167.454 139.846C167.234 139.615 167 139.397 166.754 139.195C166.635 139.09 166.509 138.992 166.383 138.901L165.998 138.621C165.798 138.474 165.59 138.338 165.375 138.215L165.207 138.11H165.172L155.253 132.384L155.197 132.349C153.294 131.287 151.146 130.744 148.967 130.774C145.719 130.774 142.051 131.838 138.166 134.078C124.824 141.778 114.002 160.524 114.002 175.938C114.002 183.638 116.69 189.028 121.037 191.562H121.079L131.005 197.281H131.047L131.166 197.344C131.352 197.454 131.544 197.554 131.74 197.645C131.978 197.764 132.223 197.869 132.44 197.967C132.657 198.065 132.881 198.142 133.105 198.212L133.462 198.317C133.587 198.364 133.716 198.402 133.847 198.429C133.976 198.468 134.107 198.501 134.239 198.527C134.333 198.554 134.429 198.575 134.526 198.59C134.694 198.625 134.876 198.66 135.051 198.681C135.09 198.687 135.131 198.687 135.17 198.681C135.38 198.718 135.59 198.746 135.8 198.765C139.398 199.143 143.584 198.128 148.064 195.545C161.413 187.845 172.235 169.092 172.235 153.685C172.2 153.363 172.2 152.999 172.2 152.635ZM156.009 141.736C156.533 143.651 156.79 145.63 156.772 147.616C156.772 161.21 146.825 178.416 135.072 185.234C133.354 186.255 131.499 187.026 129.563 187.523C129.042 185.604 128.785 183.624 128.8 181.636C128.8 168.042 138.747 150.836 150.5 144.018C152.212 143 154.059 142.232 155.988 141.736H156.009Z" fill="#407BFF"/>
<path opacity="0.1" d="M130.599 197.085L120.96 191.527C116.613 188.986 113.925 183.582 113.925 175.91C113.925 169.036 116.081 161.504 119.644 154.588L129.57 160.3C126 167.216 123.851 174.748 123.851 181.622C123.851 189.154 126.413 194.481 130.599 197.085Z" fill="black"/>
<path opacity="0.4" d="M172.2 152.635C172.2 152.348 172.2 152.068 172.158 151.788C172.116 151.508 172.158 151.235 172.095 150.962C172.032 150.689 172.095 150.598 172.039 150.416C171.99 149.94 171.92 149.471 171.843 149.016C171.808 148.813 171.773 148.603 171.731 148.4C171.689 148.197 171.654 148.015 171.612 147.826C171.493 147.308 171.367 146.804 171.22 146.321C171.143 146.09 171.073 145.859 170.996 145.621C170.981 145.587 170.97 145.552 170.961 145.516C170.877 145.292 170.8 145.075 170.716 144.865C170.632 144.655 170.52 144.375 170.408 144.165C170.296 143.955 170.254 143.822 170.163 143.654C170.112 143.528 170.052 143.406 169.981 143.29C169.911 143.143 169.834 142.996 169.75 142.856C169.666 142.716 169.715 142.786 169.694 142.758C169.673 142.73 169.547 142.506 169.47 142.38C169.393 142.254 169.365 142.219 169.316 142.142C168.958 141.577 168.555 141.041 168.112 140.539L167.888 140.287L167.699 140.091C167.622 140.007 167.538 139.93 167.454 139.846C167.234 139.615 167.001 139.397 166.754 139.195C166.635 139.09 166.509 138.992 166.383 138.901L165.998 138.621C165.798 138.474 165.59 138.339 165.375 138.215C160.986 135.548 154.875 135.863 148.078 139.776C134.729 147.476 123.907 166.222 123.907 181.636C123.907 189.441 126.707 194.894 131.152 197.372C131.338 197.482 131.53 197.582 131.726 197.673C131.964 197.792 132.209 197.897 132.426 197.995C132.643 198.093 132.867 198.17 133.091 198.24L133.448 198.345C133.573 198.393 133.702 198.43 133.833 198.457C133.962 198.496 134.093 198.529 134.225 198.555C134.319 198.583 134.415 198.604 134.512 198.618C134.68 198.653 134.862 198.688 135.037 198.709C135.077 198.716 135.117 198.716 135.156 198.709C135.366 198.746 135.576 198.774 135.786 198.793C139.384 199.171 143.57 198.156 148.05 195.573C161.399 187.873 172.221 169.12 172.221 153.713C172.2 153.363 172.2 152.999 172.2 152.635ZM145.6 191.352C142.604 193.081 139.72 193.991 137.256 193.991C132.629 193.991 130.501 190.834 129.556 187.523C129.035 185.604 128.778 183.624 128.793 181.636C128.793 168.042 138.74 150.836 150.493 144.018C152.211 142.999 154.067 142.23 156.002 141.736C156.919 141.509 157.858 141.389 158.802 141.379C166.453 141.379 167.272 150.017 167.272 153.734C167.3 167.3 157.353 184.555 145.6 191.352Z" fill="white"/>
<path opacity="0.1" d="M167.301 153.734C167.301 167.328 157.361 184.534 145.601 191.352C142.605 193.081 139.721 193.991 137.257 193.991C132.63 193.991 130.502 190.834 129.557 187.523C131.493 187.026 133.348 186.255 135.066 185.234C146.84 178.437 156.766 161.21 156.766 147.616C156.784 145.63 156.527 143.651 156.003 141.736C156.919 141.509 157.859 141.389 158.803 141.379C166.475 141.4 167.301 150.017 167.301 153.734Z" fill="black"/>
<path opacity="0.7" d="M163.1 151.361C163.1 164.955 153.16 182.161 141.4 188.979C138.404 190.708 135.52 191.618 133.056 191.618C132.566 191.619 132.077 191.579 131.593 191.499C130.647 190.33 129.958 188.976 129.57 187.523C129.049 185.605 128.792 183.624 128.807 181.636C128.807 168.042 138.754 150.836 150.507 144.018C152.225 142.999 154.081 142.23 156.016 141.736C156.933 141.509 157.872 141.389 158.816 141.379C159.309 141.378 159.8 141.418 160.286 141.498C162.708 144.347 163.1 148.918 163.1 151.361Z" fill="white"/>
<path d="M180.019 137.2V152.698C180.019 153.86 180.838 154.329 181.839 153.748L283.409 95.1089C283.938 94.7632 284.378 94.298 284.694 93.7508C285.01 93.2037 285.193 92.5898 285.229 91.9589V76.4399C285.229 75.2779 284.41 74.8089 283.409 75.3899L181.839 134.029C181.307 134.377 180.865 134.846 180.549 135.397C180.233 135.948 180.051 136.565 180.019 137.2Z" fill="#E6E6E6"/>
<path d="M181.839 134.029L199.927 123.592V143.29L181.839 153.727C180.838 154.308 180.019 153.839 180.019 152.677V137.2C180.051 136.565 180.233 135.948 180.549 135.397C180.865 134.846 181.307 134.377 181.839 134.029Z" fill="#407BFF"/>
<path d="M193.941 132.187C192.8 131.529 191.358 131.634 189.881 132.488C188.478 133.388 187.31 134.61 186.476 136.053C185.642 137.496 185.165 139.118 185.086 140.783C185.037 141.863 185.377 142.923 186.045 143.772L184.099 147.104C183.973 147.343 183.942 147.621 184.013 147.881C184.085 148.141 184.253 148.364 184.484 148.504C184.645 148.595 184.825 148.643 185.009 148.644C185.194 148.645 185.375 148.596 185.535 148.504C185.694 148.412 185.827 148.279 185.919 148.119L187.844 144.787C188.052 144.826 188.263 144.848 188.474 144.85C189.334 144.835 190.174 144.593 190.91 144.15C192.311 143.249 193.477 142.026 194.31 140.583C195.143 139.14 195.619 137.52 195.698 135.855C195.719 134.154 195.089 132.852 193.941 132.187ZM189.881 142.337C189.635 142.602 189.307 142.775 188.95 142.829C188.593 142.883 188.228 142.814 187.915 142.633C187.602 142.453 187.36 142.172 187.227 141.836C187.095 141.5 187.081 141.129 187.186 140.783C187.268 139.488 187.649 138.23 188.298 137.106C188.948 135.983 189.849 135.025 190.931 134.308C191.351 134.041 191.834 133.889 192.331 133.867C192.536 133.86 192.74 133.908 192.919 134.007C193.183 134.233 193.385 134.521 193.507 134.845C193.63 135.169 193.668 135.519 193.619 135.862C193.539 137.157 193.159 138.415 192.51 139.539C191.862 140.662 190.962 141.62 189.881 142.337Z" fill="white"/>
</g>
</svg>
