<svg width="48" height="48" viewBox="0 0 48 48" fill="none" xmlns="http://www.w3.org/2000/svg">
<g clip-path="url(#clip0_4848_33632)">
<path d="M24 48C25.5913 48 27.1174 47.3679 28.2426 46.2426C29.3679 45.1174 30 43.5913 30 42H18C18 43.5913 18.6321 45.1174 19.7574 46.2426C20.8826 47.3679 22.4087 48 24 48Z" fill="black"/>
<path fill-rule="evenodd" clip-rule="evenodd" d="M24 5.7537L21.609 6.2367C18.8969 6.7893 16.459 8.26201 14.708 10.4056C12.9569 12.5491 12.0003 15.2319 12 17.9997C12 19.8837 11.598 24.5907 10.623 29.2257C10.143 31.5267 9.495 33.9237 8.634 35.9997H39.366C38.505 33.9237 37.86 31.5297 37.377 29.2257C36.402 24.5907 36 19.8837 36 17.9997C35.999 15.2324 35.0421 12.5503 33.2911 10.4074C31.5401 8.26446 29.1026 6.79219 26.391 6.2397L24 5.7507V5.7537ZM42.66 35.9997C43.329 37.3407 44.103 38.4027 45 38.9997H3C3.897 38.4027 4.671 37.3407 5.34 35.9997C8.04 30.5997 9 20.6397 9 17.9997C9 10.7397 14.16 4.67969 21.015 3.29669C20.9731 2.87956 21.0192 2.45827 21.1501 2.06001C21.281 1.66176 21.494 1.29536 21.7753 0.984469C22.0565 0.673574 22.3998 0.425079 22.783 0.255009C23.1662 0.0849387 23.5808 -0.00292969 24 -0.00292969C24.4192 -0.00292969 24.8338 0.0849387 25.217 0.255009C25.6002 0.425079 25.9435 0.673574 26.2247 0.984469C26.506 1.29536 26.719 1.66176 26.8499 2.06001C26.9808 2.45827 27.0269 2.87956 26.985 3.29669C30.3758 3.9864 33.4241 5.82678 35.6137 8.5062C37.8033 11.1856 38.9996 14.5394 39 17.9997C39 20.6397 39.96 30.5997 42.66 35.9997Z" fill="black"/>
</g>
<defs>
<clipPath id="clip0_4848_33632">
<rect width="48" height="48" fill="white"/>
</clipPath>
</defs>
</svg>
