<svg width="32" height="33" viewBox="0 0 32 33" fill="none" xmlns="http://www.w3.org/2000/svg">
<g opacity="0.4">
<path d="M15.9995 4.5791C8.81904 4.5791 3.04522 9.30785 3.04522 15.1416C3.04522 17.6614 4.12939 19.9648 5.93822 21.7787C5.30346 24.3366 3.18232 26.6166 3.15693 26.642C3.04268 26.7563 3.01094 26.9332 3.08076 27.0855C3.14419 27.2379 3.28495 27.3276 3.44999 27.3276C6.81425 27.3276 9.29491 25.7148 10.5898 24.7179C12.2468 25.34 14.0948 25.7026 16.0437 25.7026C23.2242 25.7026 28.998 20.9733 28.998 15.1858C28.998 9.39824 23.18 4.5791 15.9995 4.5791ZM9.45381 16.7666C8.55244 16.7666 7.82881 16.043 7.82881 15.1873C7.82881 14.3316 8.55244 13.5623 9.45381 13.5623C10.3552 13.5623 11.0788 14.2859 11.0788 15.1873C11.0788 16.0887 10.3983 16.7666 9.45381 16.7666ZM15.9995 16.7666C15.0981 16.7666 14.4202 16.043 14.4202 15.1873C14.4202 14.3316 15.1438 13.5623 15.9995 13.5623C16.8552 13.5623 17.5788 14.2859 17.5788 15.1873C17.5788 16.0887 16.9034 16.7666 15.9995 16.7666ZM22.4538 16.7666C21.5524 16.7666 20.8288 16.043 20.8288 15.1873C20.8288 14.3316 21.5524 13.5623 22.4538 13.5623C23.3552 13.5623 24.0788 14.2859 24.0788 15.1873C24.0788 16.0887 23.3983 16.7666 22.4538 16.7666Z" fill="#89899B"/>
</g>
</svg>
