<svg width="18" height="19" viewBox="0 0 18 19" fill="none" xmlns="http://www.w3.org/2000/svg">
<path d="M15.7309 13.3216C15.1272 12.6728 13.9975 11.6969 13.9975 8.5C13.9975 6.07188 12.295 4.12813 9.99937 3.65125V3C9.99937 2.44781 9.55187 2 9 2C8.44813 2 8.00063 2.44781 8.00063 3V3.65125C5.70501 4.12813 4.00252 6.07188 4.00252 8.5C4.00252 11.6969 2.87283 12.6728 2.26908 13.3216C2.08158 13.5231 1.99846 13.7641 2.00002 14C2.00346 14.5125 2.40565 15 3.00314 15H14.9969C15.5944 15 15.9969 14.5125 16 14C16.0015 13.7641 15.9184 13.5228 15.7309 13.3216Z" fill="#ABABC0"/>
<path opacity="0.4" d="M11 16C11 17.1047 10.1043 18 9 18C7.89573 18 7 17.1047 7 16H11Z" fill="#ABABC0"/>
</svg>
