<svg width="32" height="33" viewBox="0 0 32 33" fill="none" xmlns="http://www.w3.org/2000/svg">
<path opacity="0.4" d="M27.5579 21.3975C26.5661 20.3433 24.7102 18.7574 24.7102 13.5625C24.7102 9.6168 21.9132 6.4582 18.1418 5.68328V4.625C18.1418 3.7277 17.4066 3 16.5 3C15.5933 3 14.8582 3.7277 14.8582 4.625V5.68328C11.0868 6.4582 8.28985 9.6168 8.28985 13.5625C8.28985 18.7574 6.43394 20.3433 5.44207 21.3975C5.13403 21.7251 4.99747 22.1166 5.00004 22.5C5.00568 23.3328 5.66642 24.125 6.64802 24.125H26.352C27.3336 24.125 27.9948 23.3328 28 22.5C28.0025 22.1166 27.866 21.7246 27.5579 21.3975Z" fill="#89899B"/>
<path d="M19.7841 25.75C19.7841 27.5451 18.3133 29 16.5 29C14.6867 29 13.2158 27.5451 13.2158 25.75H19.7841Z" fill="#89899B"/>
</svg>
