<svg width="32" height="33" viewBox="0 0 32 33" fill="none" xmlns="http://www.w3.org/2000/svg">
<g opacity="0.4">
<path d="M25.4544 6.25H19.2498C19.2498 4.45742 17.7924 3 15.9998 3C14.2072 3 12.7498 4.45742 12.7498 6.25H6.54528C5.19957 6.25 4.18164 7.56339 4.18164 8.90909L4.1817 26.5625C4.1817 27.9082 5.19951 29 6.54522 29H25.4544C26.8001 29 27.818 27.9082 27.818 26.5625V8.90909C27.818 7.56339 26.8001 6.25 25.4544 6.25ZM15.9998 5.03125C16.6752 5.03125 17.2186 5.57461 17.2186 6.25C17.2186 6.92539 16.6752 7.46875 15.9998 7.46875C15.3244 7.46875 14.7811 6.92539 14.7811 6.25C14.7811 5.57461 15.3244 5.03125 15.9998 5.03125ZM22.1545 16.8023L14.8928 24.0031C14.6541 24.2418 14.2682 24.2367 14.0295 23.998L9.83498 19.768C9.59631 19.5293 9.60139 19.1434 9.84006 18.9047L11.2822 17.4727C11.5209 17.234 11.9069 17.2391 12.1455 17.4777L14.4815 19.834L19.8643 14.4918C20.1029 14.2531 20.4889 14.2582 20.7276 14.4969L22.1596 15.9391C22.3983 16.1828 22.3932 16.5637 22.1545 16.8023Z" fill="#89899B"/>
</g>
</svg>
