<svg width="18" height="19" viewBox="0 0 18 19" fill="none" xmlns="http://www.w3.org/2000/svg">
<g opacity="0.4" clip-path="url(#clip0_3305_18788)">
<path d="M15.5456 2.75H11.2502C11.2502 1.50898 10.2412 0.5 9.00018 0.5C7.75916 0.5 6.75018 1.50898 6.75018 2.75H2.45472C1.52308 2.75 0.818359 3.65927 0.818359 4.59091L0.818401 16.8125C0.818401 17.7441 1.52304 18.5 2.45468 18.5H15.5456C16.4773 18.5 17.182 17.7441 17.182 16.8125V4.59091C17.182 3.65927 16.4773 2.75 15.5456 2.75ZM9.00018 1.90625C9.46776 1.90625 9.84393 2.28242 9.84393 2.75C9.84393 3.21758 9.46776 3.59375 9.00018 3.59375C8.5326 3.59375 8.15643 3.21758 8.15643 2.75C8.15643 2.28242 8.5326 1.90625 9.00018 1.90625ZM13.2611 10.0555L8.23377 15.0406C8.06854 15.2059 7.80135 15.2023 7.63612 15.0371L4.73221 12.1086C4.56697 11.9434 4.57049 11.6762 4.73572 11.5109L5.73416 10.5195C5.8994 10.3543 6.16658 10.3578 6.33182 10.523L7.94901 12.1543L11.6756 8.45586C11.8408 8.29063 12.108 8.29414 12.2732 8.45937L13.2646 9.45781C13.4299 9.62656 13.4264 9.89023 13.2611 10.0555Z" fill="#89899B"/>
</g>
<defs>
<clipPath id="clip0_3305_18788">
<rect width="18" height="18" fill="white" transform="translate(0 0.5)"/>
</clipPath>
</defs>
</svg>
