<svg width="18" height="19" viewBox="0 0 18 19" fill="none" xmlns="http://www.w3.org/2000/svg">
<g opacity="0.4" clip-path="url(#clip0_7569_33452)">
<path d="M17.7361 9.77684L16.1999 8.16469V3.83259H13.4999V5.33045L9.63629 1.27695C9.2844 0.907682 8.71561 0.907682 8.36371 1.27695L0.263865 9.77684C0.0064702 10.0469 -0.0709283 10.453 0.068569 10.8063C0.207166 11.1595 0.53656 11.389 0.900153 11.389H1.80014V18H4.50008V13.2778H7.20003V18H16.1999V11.389H17.0998C17.4634 11.389 17.7928 11.1595 17.9314 10.8063C18.0709 10.4521 17.9935 10.0469 17.7361 9.77684ZM14.3999 14.2213H9.89998V11.388H14.3999V14.2213Z" fill="#ABABC0"/>
</g>
<defs>
<clipPath id="clip0_7569_33452">
<rect width="18" height="18" fill="white" transform="translate(0 0.5)"/>
</clipPath>
</defs>
</svg>
