<svg width="48" height="48" viewBox="0 0 48 48" fill="none" xmlns="http://www.w3.org/2000/svg">
<g clip-path="url(#clip0_14299_796)">
<path fill-rule="evenodd" clip-rule="evenodd" d="M24 45C29.5695 45 34.911 42.7875 38.8492 38.8492C42.7875 34.911 45 29.5695 45 24C45 18.4305 42.7875 13.089 38.8492 9.15076C34.911 5.21249 29.5695 3 24 3C18.4305 3 13.089 5.21249 9.15076 9.15076C5.21249 13.089 3 18.4305 3 24C3 29.5695 5.21249 34.911 9.15076 38.8492C13.089 42.7875 18.4305 45 24 45V45ZM24 48C30.3652 48 36.4697 45.4714 40.9706 40.9706C45.4714 36.4697 48 30.3652 48 24C48 17.6348 45.4714 11.5303 40.9706 7.02944C36.4697 2.52856 30.3652 0 24 0C17.6348 0 11.5303 2.52856 7.02944 7.02944C2.52856 11.5303 0 17.6348 0 24C0 30.3652 2.52856 36.4697 7.02944 40.9706C11.5303 45.4714 17.6348 48 24 48V48Z" fill="black"/>
<path d="M15.75 18.099H19.71C19.71 15.756 21.084 13.947 23.79 13.947C25.845 13.947 27.729 14.976 27.729 17.451C27.729 19.356 26.607 20.232 24.834 21.564C22.815 23.031 21.216 24.744 21.33 27.525L21.351 28.914H25.272V27.849C25.272 25.695 26.091 25.068 28.302 23.391C30.129 22.002 32.034 20.46 32.034 17.223C32.034 12.69 28.206 10.5 24.015 10.5C20.037 10.5 15.657 12.441 15.753 18.099H15.75ZM20.436 34.647C20.436 36.246 21.711 37.428 23.466 37.428C25.293 37.428 26.55 36.246 26.55 34.647C26.55 32.991 25.29 31.827 23.463 31.827C21.711 31.827 20.436 32.991 20.436 34.647V34.647Z" fill="black"/>
</g>
<defs>
<clipPath id="clip0_14299_796">
<rect width="48" height="48" fill="white"/>
</clipPath>
</defs>
</svg>
