<svg width="18" height="19" viewBox="0 0 18 19" fill="none" xmlns="http://www.w3.org/2000/svg">
<g opacity="0.4">
<path d="M8.99951 1.59326C4.02842 1.59326 0.0311525 4.86701 0.0311525 8.90576C0.0311525 10.6502 0.781738 12.2449 2.034 13.5007C1.59455 15.2715 0.126074 16.85 0.108496 16.8676C0.0293947 16.9467 0.00742202 17.0692 0.0557619 17.1746C0.099672 17.2801 0.197125 17.3422 0.311383 17.3422C2.64048 17.3422 4.35787 16.2256 5.25435 15.5355C6.4015 15.9662 7.68083 16.2172 9.03013 16.2172C14.0012 16.2172 17.9985 12.9431 17.9985 8.93634C17.9985 4.92959 13.9706 1.59326 8.99951 1.59326ZM4.46787 10.0308C3.84385 10.0308 3.34287 9.52978 3.34287 8.9374C3.34287 8.34502 3.84385 7.8124 4.46787 7.8124C5.09189 7.8124 5.59287 8.31338 5.59287 8.9374C5.59287 9.56142 5.12178 10.0308 4.46787 10.0308ZM8.99951 10.0308C8.37549 10.0308 7.90615 9.52978 7.90615 8.9374C7.90615 8.34502 8.40713 7.8124 8.99951 7.8124C9.59189 7.8124 10.0929 8.31338 10.0929 8.9374C10.0929 9.56142 9.62529 10.0308 8.99951 10.0308ZM13.4679 10.0308C12.8438 10.0308 12.3429 9.52978 12.3429 8.9374C12.3429 8.34502 12.8438 7.8124 13.4679 7.8124C14.0919 7.8124 14.5929 8.31338 14.5929 8.9374C14.5929 9.56142 14.1218 10.0308 13.4679 10.0308Z" fill="#89899B"/>
</g>
</svg>
