<svg width="54" height="54" viewBox="0 0 54 54" fill="none" xmlns="http://www.w3.org/2000/svg">
<rect x="1.5" y="1.5" width="50.0222" height="50.0222" rx="11.5" fill="#195192" stroke="white" stroke-width="3"/>
<g clip-path="url(#clip0_1884_672)">
<path d="M26.5 15C20.148 15 15 20.148 15 26.5C15 32.852 20.148 38 26.5 38C32.852 38 38 32.852 38 26.5C38 20.148 32.852 15 26.5 15ZM26.5 32.9688C25.6914 32.9688 25.0625 32.3398 25.0625 31.5312C25.0625 30.7227 25.651 30.0938 26.5 30.0938C27.2682 30.0938 27.9375 30.7227 27.9375 31.5312C27.9375 32.3398 27.2682 32.9688 26.5 32.9688ZM29.6041 26.5898L27.5781 27.8477V27.9375C27.5781 28.5215 27.084 29.0156 26.5 29.0156C25.916 29.0156 25.4219 28.5215 25.4219 27.9375V27.2188C25.4219 26.8594 25.6016 26.5 25.9609 26.2754L28.5215 24.748C28.8359 24.5684 29.0156 24.2539 29.0156 23.8945C29.0156 23.3555 28.526 22.9062 27.9869 22.9062H25.6914C25.1119 22.9062 24.7031 23.3555 24.7031 23.8945C24.7031 24.4785 24.209 24.9727 23.625 24.9727C23.041 24.9727 22.5469 24.4785 22.5469 23.8945C22.5469 22.1426 23.9395 20.75 25.651 20.75H27.9465C29.7793 20.75 31.1719 22.1426 31.1719 23.8945C31.1719 24.9727 30.5879 26.0059 29.6041 26.5898Z" fill="white"/>
</g>
<defs>
<clipPath id="clip0_1884_672">
<rect width="23" height="23" fill="white" transform="translate(15 15)"/>
</clipPath>
</defs>
</svg>
