<svg width="40" height="40" viewBox="0 0 40 40" fill="none" xmlns="http://www.w3.org/2000/svg">
<path d="M0 20C0 8.95431 8.95431 0 20 0V0C31.0457 0 40 8.95431 40 20V20C40 31.0457 31.0457 40 20 40V40C8.95431 40 0 31.0457 0 20V20Z" fill="#F0F2F5"/>
<path d="M24 11H22C22 9.896 21.104 9 20 9C18.896 9 18 9.896 18 11H16V14H24V11Z" fill="#99AAB5" fill-opacity="0.6"/>
<path d="M27 12H26V15H14V12H13C11.896 12 11 12.896 11 14V28C11 29.104 11.896 30 13 30H27C28.104 30 29 29.104 29 28V14C29 12.896 28.104 12 27 12ZM23.535 24.586L22.121 26L20 23.879L17.879 26L16.465 24.586L18.586 22.464L16.465 20.343L17.879 18.929L20 21.051L22.121 18.93L23.535 20.344L21.414 22.465L23.535 24.586Z" fill="#99AAB5"/>
</svg>
