<svg width="40" height="40" viewBox="0 0 40 40" fill="none" xmlns="http://www.w3.org/2000/svg">
<rect width="40" height="40" rx="20" fill="#F0F2F5"/>
<path d="M20.9911 14.5063L11.7586 23.7388L11.0132 28.0105C10.9113 28.5871 11.414 29.0863 11.9906 28.9879L16.2623 28.239L25.4948 19.0065C25.6601 18.8412 25.6601 18.574 25.4948 18.4088L21.5923 14.5063C21.4235 14.341 21.1563 14.341 20.9911 14.5063ZM15.3623 22.9477C15.1689 22.7543 15.1689 22.445 15.3623 22.2516L20.7766 16.8372C20.97 16.6439 21.2794 16.6439 21.4728 16.8372C21.6661 17.0306 21.6661 17.34 21.4728 17.5334L16.0584 22.9477C15.865 23.1411 15.5557 23.1411 15.3623 22.9477ZM14.0931 25.9045H15.7807V27.1807L13.513 27.578L12.4196 26.4846L12.8168 24.2169H14.0931V25.9045Z" fill="#99AAB5"/>
<path d="M26.8834 17.6141L28.5042 15.9933C29.1652 15.3324 29.1652 14.2635 28.5042 13.6061L26.3912 11.4931C25.7303 10.8356 24.6615 10.8356 24.004 11.4931L22.3832 13.1139C22.218 13.2791 22.218 13.5463 22.3832 13.7116L26.2858 17.6141C26.451 17.7794 26.7182 17.7794 26.8834 17.6141Z" fill="#99AAB5" fill-opacity="0.6"/>
</svg>
