<svg width="40" height="41" viewBox="0 0 40 41" fill="none" xmlns="http://www.w3.org/2000/svg">
<rect y="0.670898" width="40" height="40" rx="20" fill="#F0F2F5"/>
<path d="M18.6353 19.7542C20.7296 19.7542 22.427 18.0568 22.427 15.9625C22.427 13.8682 20.7296 12.1709 18.6353 12.1709C16.5411 12.1709 14.8437 13.8682 14.8437 15.9625C14.8437 18.0568 16.5411 19.7542 18.6353 19.7542ZM21.2895 20.7021H20.7948C20.1372 21.0042 19.4055 21.176 18.6353 21.176C17.8652 21.176 17.1365 21.0042 16.4759 20.7021H15.9812C13.7832 20.7021 12 22.4853 12 24.6833V25.9155C12 26.7005 12.6369 27.3374 13.4219 27.3374H23.8488C24.6338 27.3374 25.2707 26.7005 25.2707 25.9155V24.6833C25.2707 22.4853 23.4874 20.7021 21.2895 20.7021Z" fill="#99AAB5"/>
<path d="M27.7983 18.3322H29.6941C29.9548 18.3322 30.1681 18.5454 30.1681 18.8061V19.754C30.1681 20.0147 29.9548 20.228 29.6941 20.228H27.7983V22.1238C27.7983 22.3845 27.585 22.5977 27.3243 22.5977H26.3764C26.1158 22.5977 25.9025 22.3845 25.9025 22.1238V20.228H24.0067C23.746 20.228 23.5327 20.0147 23.5327 19.754V18.8061C23.5327 18.5454 23.746 18.3322 24.0067 18.3322H25.9025V16.4364C25.9025 16.1757 26.1158 15.9624 26.3764 15.9624H27.3243C27.585 15.9624 27.7983 16.1757 27.7983 16.4364V18.3322Z" fill="#99AAB5" fill-opacity="0.6"/>
</svg>
