<svg width="40" height="40" viewBox="0 0 40 40" fill="none" xmlns="http://www.w3.org/2000/svg">
<rect width="40" height="40" rx="20" fill="#F0F2F5"/>
<path d="M12.2223 23.167H15.5557V16.1669C15.5557 14.8812 16.5524 13.8335 17.778 13.8335H22.2225V10.3334C22.2225 9.04769 21.2258 8 20.0003 8H12.2223C10.9967 8 10 9.04769 10 10.3334V20.8337C10 22.1205 10.9967 23.167 12.2223 23.167Z" fill="#99AAB5" fill-opacity="0.6"/>
<path d="M27.7776 16.167H19.9996C18.774 16.167 17.7773 17.2147 17.7773 18.5004V29.0007C17.7773 30.2875 18.774 31.334 19.9996 31.334H27.7776C29.0032 31.334 29.9999 30.2875 29.9999 29.0007V18.5004C29.9999 17.2147 29.0032 16.167 27.7776 16.167ZM19.9996 19.6671H24.4442V20.8338H19.9996V19.6671ZM27.7776 27.834H19.9996V26.6673H27.7776V27.834ZM27.7776 24.3339H19.9996V23.1672H27.7776V24.3339Z" fill="#99AAB5"/>
</svg>
