<svg width="40" height="40" viewBox="0 0 40 40" fill="none" xmlns="http://www.w3.org/2000/svg">
<rect width="40" height="40" rx="20" fill="#F0F2F5"/>
<g clip-path="url(#clip0_2085_26251)">
<path d="M24.0005 10H22.0005C22.0005 8.896 21.1045 8 20.0005 8C18.8965 8 18.0005 8.896 18.0005 10H16.0005V13H24.0005V10Z" fill="#99AAB5" fill-opacity="0.6"/>
<path d="M27 11H26V14H14V11H13C11.896 11 11 11.896 11 13V27C11 28.104 11.896 29 13 29H27C28.104 29 29 28.104 29 27V13C29 11.896 28.104 11 27 11ZM24 22H21V25H19V22H16V20H19V17H21V20H24V22Z" fill="#99AAB5"/>
</g>
<defs>
<clipPath id="clip0_2085_26251">
<rect width="22" height="22" fill="white" transform="translate(9 7)"/>
</clipPath>
</defs>
</svg>
