<svg width="40" height="41" viewBox="0 0 40 41" fill="none" xmlns="http://www.w3.org/2000/svg">
<rect y="0.5" width="40" height="40" rx="20" fill="#F0F2F5"/>
<path d="M18.6353 19.5833C20.7296 19.5833 22.427 17.8859 22.427 15.7916C22.427 13.6973 20.7296 12 18.6353 12C16.5411 12 14.8437 13.6973 14.8437 15.7916C14.8437 17.8859 16.5411 19.5833 18.6353 19.5833ZM21.2895 20.5312H20.7948C20.1372 20.8333 19.4055 21.0051 18.6353 21.0051C17.8652 21.0051 17.1365 20.8333 16.4759 20.5312H15.9812C13.7832 20.5312 12 22.3144 12 24.5124V25.7446C12 26.5296 12.6369 27.1665 13.4219 27.1665H23.8488C24.6338 27.1665 25.2707 26.5296 25.2707 25.7446V24.5124C25.2707 22.3144 23.4874 20.5312 21.2895 20.5312Z" fill="#99AAB5"/>
<path d="M27.7983 18.1613H29.6941C29.9548 18.1613 30.1681 18.3745 30.1681 18.6352V19.5831C30.1681 19.8438 29.9548 20.0571 29.6941 20.0571H27.7983V21.9529C27.7983 22.2136 27.585 22.4268 27.3243 22.4268H26.3764C26.1158 22.4268 25.9025 22.2136 25.9025 21.9529V20.0571H24.0067C23.746 20.0571 23.5327 19.8438 23.5327 19.5831V18.6352C23.5327 18.3745 23.746 18.1613 24.0067 18.1613H25.9025V16.2655C25.9025 16.0048 26.1158 15.7915 26.3764 15.7915H27.3243C27.585 15.7915 27.7983 16.0048 27.7983 16.2655V18.1613Z" fill="#99AAB5" fill-opacity="0.6"/>
</svg>
