<svg width="40" height="40" viewBox="0 0 40 40" fill="none" xmlns="http://www.w3.org/2000/svg">
<rect width="40" height="40" rx="20" fill="#F0F2F5"/>
<path d="M30.8663 19.8965C28.7962 15.3157 24.6941 12.1958 20 12.1958C15.3059 12.1958 11.2034 15.3194 9.1325 19.8965C9.0597 20.0946 9 20.3785 9 20.5654C9 20.7513 9.05966 21.0362 9.1325 21.2017C11.2046 25.815 15.3059 28.9349 20 28.9349C24.6941 28.9349 28.7962 25.812 30.8663 21.2342C30.9389 21.0362 31 20.7186 31 20.5654C31 20.3785 30.9389 20.0946 30.8663 19.8965ZM25.5 20.5654C25.5 23.5339 23.0376 25.9458 20.0038 25.9458C16.9674 25.9458 14.5 23.5358 14.5 20.5654C14.5 17.5949 16.9635 15.1849 20 15.1849C23.0365 15.1849 25.5 17.5949 25.5 20.5654Z" fill="#99AAB5"/>
<path d="M19.6755 17.0084C19.7863 16.9935 19.9123 16.9785 20.0002 16.9785C21.9901 16.9785 23.6668 18.5855 23.6668 20.5658C23.6668 22.5461 22.0245 24.1524 20.0002 24.1524C17.9759 24.1524 16.3335 22.5121 16.3335 20.5655C16.3335 20.4758 16.3488 20.36 16.3602 20.2479C16.6811 20.4422 17.1203 20.5655 17.5557 20.5655C18.9059 20.5655 20.0002 19.495 20.0002 18.1742C20.0002 17.7482 19.8779 17.3522 19.6755 17.0084Z" fill="#99AAB5" fill-opacity="0.6"/>
</svg>
