<svg width="40" height="40" viewBox="0 0 40 40" fill="none" xmlns="http://www.w3.org/2000/svg">
<rect width="40" height="40" rx="20" fill="#F0F2F5"/>
<path d="M19.9851 12C15.0052 12 11.0009 15.3259 11.0009 19.4291C11.0009 21.2013 11.7528 22.8214 13.0073 24.0972C12.567 25.8963 11.096 27.5 11.0784 27.5178C10.9991 27.5982 10.9771 27.7226 11.0255 27.8298C11.0695 27.9369 11.1671 28 11.2816 28C13.6148 28 15.3352 26.8656 16.2333 26.1645C17.3825 26.602 18.6641 26.8571 20.0158 26.8571C24.9957 26.8571 29 23.5308 29 19.4601C29 15.3895 24.965 12 19.9851 12ZM15.4454 20.572C14.8203 20.572 14.3185 20.063 14.3185 19.4612C14.3185 18.8594 14.8203 18.3183 15.4454 18.3183C16.0706 18.3183 16.5724 18.8272 16.5724 19.4612C16.5724 20.0952 16.1005 20.572 15.4454 20.572ZM19.9851 20.572C19.36 20.572 18.8898 20.063 18.8898 19.4612C18.8898 18.8594 19.3917 18.3183 19.9851 18.3183C20.5785 18.3183 21.0804 18.8272 21.0804 19.4612C21.0804 20.0952 20.612 20.572 19.9851 20.572ZM24.4614 20.572C23.8362 20.572 23.3344 20.063 23.3344 19.4612C23.3344 18.8594 23.8362 18.3183 24.4614 18.3183C25.0865 18.3183 25.5884 18.8272 25.5884 19.4612C25.5884 20.0952 25.1164 20.572 24.4614 20.572Z" fill="#99AAB5"/>
</svg>
