<svg width="54" height="54" viewBox="0 0 54 54" fill="none" xmlns="http://www.w3.org/2000/svg">
<rect x="1.5" y="1.5" width="50.0222" height="50.0222" rx="11.5" fill="#FF971E" stroke="white" stroke-width="3"/>
<g clip-path="url(#clip0_1884_696)">
<path d="M39.9906 25.9766C39.9906 26.8203 39.2875 27.4813 38.4906 27.4813H36.9906L37.0234 34.9859C37.0234 35.1172 37.0141 35.2391 37 35.3656V36.125C37 37.1609 36.1609 38 35.125 38H34.375C34.3234 38 34.2719 37.9578 34.2203 37.9953C34.1547 37.9578 34.0891 38 34.0234 38H31.375C30.3391 38 29.5 37.1609 29.5 36.125V32C29.5 31.1703 28.8297 30.5 28 30.5H25C24.1703 30.5 23.5 31.1703 23.5 32V36.125C23.5 37.1609 22.6609 38 21.625 38H19.0047C18.9344 38 18.8641 37.9953 18.7937 37.9906C18.7375 37.9953 18.6813 38 18.625 38H17.875C16.8395 38 16 37.1609 16 36.125V30.875C16 30.8328 16.0014 30.7859 16.0042 30.7438V27.4813H14.5023C13.6572 27.4813 13 26.8203 13 25.9766C13 25.5547 13.1408 25.1797 13.4692 24.8516L25.4875 14.3757C25.8156 14.047 26.1906 14 26.5187 14C26.8469 14 27.2219 14.0939 27.5078 14.3288L39.475 24.8516C39.85 25.1797 40.0422 25.5547 39.9906 25.9766Z" fill="white"/>
</g>
<defs>
<clipPath id="clip0_1884_696">
<rect width="27" height="24" fill="white" transform="translate(13 14)"/>
</clipPath>
</defs>
</svg>
