<svg width="18" height="18" viewBox="0 0 18 18" fill="none" xmlns="http://www.w3.org/2000/svg">
<path opacity="0.4" d="M0.75 16.3125C0.75 17.2441 1.50586 18 2.4375 18H14.8125C15.7441 18 16.5 17.2441 16.5 16.3125V6.75H0.75V16.3125ZM3 9.5625C3 9.25312 3.25312 9 3.5625 9H6.9375C7.24687 9 7.5 9.25312 7.5 9.5625V12.9375C7.5 13.2469 7.24687 13.5 6.9375 13.5H3.5625C3.25312 13.5 3 13.2469 3 12.9375V9.5625Z" fill="#CECEDD"/>
<path d="M13.125 2.25H14.8125C15.7441 2.25 16.5 3.00586 16.5 3.9375V5.625H0.75V3.9375C0.75 3.00586 1.50586 2.25 2.4375 2.25H4.125V0.5625C4.125 0.253125 4.37812 0 4.6875 0H5.8125C6.12187 0 6.375 0.253125 6.375 0.5625V2.25H10.875V0.5625C10.875 0.253125 11.1281 0 11.4375 0H12.5625C12.8719 0 13.125 0.253125 13.125 0.5625V2.25Z" fill="#CECEDD"/>
</svg>
