<svg width="18" height="18" viewBox="0 0 18 18" fill="none" xmlns="http://www.w3.org/2000/svg">
<g clip-path="url(#clip0_2253_26820)">
<path opacity="0.4" d="M17.4178 13.4189L0.5 13.5C0.179317 13.5011 0.00177116 13.3107 0.000712248 13L0.000120657 11.0002C-0.000938256 10.6895 0.179694 10.5011 0.500377 10.5L17.4178 10.4396C17.7385 10.4385 17.9993 10.6895 18.0004 11.0001L17.9965 12.9239C17.9976 13.2345 17.7385 13.4178 17.4178 13.4189Z" fill="#CECEDD"/>
<path opacity="0.4" d="M17.4178 17.4189L0.5 17.5C0.179317 17.5011 0.00177116 17.3107 0.000712248 17L0.000120657 15.0002C-0.000938256 14.6895 0.179694 14.5011 0.500377 14.5L17.4178 14.4396C17.7385 14.4385 17.9993 14.6895 18.0004 15.0001L17.9965 16.9239C17.9976 17.2345 17.7385 17.4178 17.4178 17.4189Z" fill="#CECEDD"/>
<path opacity="0.4" d="M17.4178 9.41887L0.5 9.5C0.179317 9.50109 0.00177116 9.31066 0.000712248 9L0.000120657 7.00016C-0.000938256 6.6895 0.179694 6.50109 0.500377 6.5L17.4178 6.43963C17.7385 6.43853 17.9993 6.68948 18.0004 7.00014L17.9965 8.92386C17.9976 9.23453 17.7385 9.41777 17.4178 9.41887Z" fill="#CECEDD"/>
<path d="M17.4178 5.41895L0.499981 5.50009C0.179298 5.50118 0.00175265 5.31075 0.000693739 5.00009L-0.000247177 1.00001C-0.00130609 0.689347 0.179326 0.500939 0.500009 0.499845L17.4139 0.439482C17.7346 0.438389 17.9954 0.689338 17.9965 1L17.9965 4.92395C17.9976 5.23461 17.7385 5.41786 17.4178 5.41895Z" fill="#CECEDD"/>
</g>
<defs>
<clipPath id="clip0_2253_26820">
<rect width="18" height="18" fill="white" transform="translate(18) rotate(90)"/>
</clipPath>
</defs>
</svg>
