<svg width="18" height="18" viewBox="0 0 18 18" fill="none" xmlns="http://www.w3.org/2000/svg">
<path opacity="0.4" d="M9.15 15.075V9.67505H10.5V8.32505H9.15V2.92505H10.5L10.5 1.57505H8.88028C8.28488 1.57505 7.8 2.05964 7.8 2.65533V8.32505H6V7.20005C6 6.70308 5.59697 6.30005 5.1 6.30005H2.4C1.90303 6.30005 1.5 6.70308 1.5 7.20005L1.5 10.8C1.5 11.297 1.90303 11.7 2.4 11.7H5.1C5.59697 11.7 6 11.297 6 10.8V9.67505H7.8V15.3448C7.8 15.9405 8.28459 16.425 8.88028 16.425H10.5V15.075H9.15Z" fill="#89899B"/>
<path d="M11.3999 17.1V14.4C11.3999 13.903 11.8029 13.5 12.2999 13.5H14.9999C15.4969 13.5 15.8999 13.903 15.8999 14.4V17.1C15.8999 17.597 15.4969 18 14.9999 18H12.2999C11.8029 18 11.3999 17.597 11.3999 17.1Z" fill="#89899B"/>
<path d="M11.3999 10.35V7.65C11.3999 7.15303 11.8029 6.75 12.2999 6.75H14.9999C15.4969 6.75 15.8999 7.15303 15.8999 7.65V10.35C15.8999 10.847 15.4969 11.25 14.9999 11.25H12.2999C11.8029 11.25 11.3999 10.847 11.3999 10.35Z" fill="#89899B"/>
<path d="M11.3999 3.6L11.3999 0.9C11.3999 0.40303 11.8029 0 12.2999 0H14.9999C15.4969 0 15.8999 0.40303 15.8999 0.9V3.6C15.8999 4.09697 15.4969 4.5 14.9999 4.5H12.2999C11.8029 4.5 11.3999 4.09697 11.3999 3.6Z" fill="#89899B"/>
</svg>
