<svg width="18" height="18" viewBox="0 0 18 18" fill="none" xmlns="http://www.w3.org/2000/svg">
<path d="M12.1433 1.71429H10.429C10.429 0.768 9.66099 0 8.7147 0C7.76842 0 7.00042 0.768 7.00042 1.71429H5.28613V4.28571H12.1433V1.71429Z" fill="#CECEDD"/>
<path opacity="0.4" d="M14.7143 2.57178H13.8571V5.14321H3.57143V2.57178H2.71429C1.768 2.57178 1 3.33978 1 4.28606V16.2861C1 17.2323 1.768 18.0003 2.71429 18.0003H14.7143C15.6606 18.0003 16.4286 17.2323 16.4286 16.2861V4.28606C16.4286 3.33978 15.6606 2.57178 14.7143 2.57178Z" fill="#CECEDD"/>
<path d="M11.7914 11.9375H8.73807L10.7715 14.0981C10.8493 14.1807 10.9772 14.1874 11.0571 14.1074C11.555 13.6089 11.8976 12.9369 11.9981 12.1815C12.0153 12.0522 11.9143 11.9375 11.7914 11.9375ZM11.5877 11.0515C11.4817 9.41828 10.2534 8.11315 8.71619 8.00049C8.59884 7.99188 8.50002 8.09702 8.50002 8.22198V11.2812H11.3794C11.497 11.2812 11.5958 11.1762 11.5877 11.0515ZM7.88237 11.9375V8.69326C7.88237 8.56269 7.77441 8.45536 7.65281 8.47368C6.11938 8.70392 4.94727 10.1273 5.00183 11.8332C5.05793 13.5851 6.47762 15.0218 8.12724 14.9998C8.77577 14.9911 9.37501 14.7691 9.86771 14.3978C9.96937 14.3212 9.97606 14.1622 9.88792 14.0685L7.88237 11.9375Z" fill="#CECEDD"/>
</svg>
