<svg width="18" height="18" viewBox="0 0 18 18" fill="none" xmlns="http://www.w3.org/2000/svg">
<g clip-path="url(#clip0_2255_26868)">
<path d="M7.2551 1.125H0.84375C0.377754 1.125 0 1.50275 0 1.96875V4.78125C0 5.24725 0.377754 5.625 0.84375 5.625H7C7.466 5.625 6.5 5.24725 6.5 4.78125V2C6.5 1.534 7.72109 1.125 7.2551 1.125Z" fill="#CECEDD"/>
<path d="M6.375 4.78125V1.96875C6.375 1.50275 6.75275 1.125 7.21875 1.125H17.1563C17.6223 1.125 18 1.50275 18 1.96875V4.78125C18 5.24725 17.6223 5.625 17.1563 5.625H7.21875C6.75275 5.625 6.375 5.24725 6.375 4.78125Z" fill="#CECEDD"/>
<path opacity="0.4" d="M11 11.25H7.9999C7.5339 11.25 7.0001 10.8722 7.0001 10.4062L7 7.59375C7 7.12775 7.534 6.75 8 6.75H11C11.466 6.75 12 7.12775 12 7.59375V10.4062C12 10.8722 11.466 11.25 11 11.25Z" fill="#CECEDD"/>
<path opacity="0.4" d="M11 16.25H7.9999C7.5339 16.25 7.0001 15.8722 7.0001 15.4062L7 12.5938C7 12.1278 7.534 11.75 8 11.75H11C11.466 11.75 12 12.1278 12 12.5938V15.4062C12 15.8722 11.466 16.25 11 16.25Z" fill="#CECEDD"/>
<path opacity="0.4" d="M17 16.25H13.9999C13.5339 16.25 13.0001 15.8722 13.0001 15.4062L13 12.5938C13 12.1278 13.534 11.75 14 11.75H17C17.466 11.75 18 12.1278 18 12.5938V15.4062C18 15.8722 17.466 16.25 17 16.25Z" fill="#CECEDD"/>
<path opacity="0.4" d="M17 11.25H13.9999C13.5339 11.25 13.0001 10.8722 13.0001 10.4062L13 7.59375C13 7.12775 13.534 6.75 14 6.75H17C17.466 6.75 18 7.12775 18 7.59375V10.4062C18 10.8722 17.466 11.25 17 11.25Z" fill="#CECEDD"/>
<path d="M5.24999 13V7.59375C5.24999 7.12775 4.87223 6.75 4.40624 6.75H0.84375C0.377754 6.75 0 7.12775 0 7.59375V13C0 13.466 0.534004 12.5 1 12.5H4C4.466 12.5 5.24999 13.466 5.24999 13Z" fill="#CECEDD"/>
<path d="M0 16.0312V13.2188C0 12.7528 0.377754 12.375 0.84375 12.375H4.40624C4.87223 12.375 5.24999 12.7528 5.24999 13.2188V16.0312C5.24999 16.4972 4.87223 16.875 4.40624 16.875H0.84375C0.377754 16.875 0 16.4972 0 16.0312Z" fill="#CECEDD"/>
</g>
<defs>
<clipPath id="clip0_2255_26868">
<rect width="18" height="18" fill="white"/>
</clipPath>
</defs>
</svg>
