<svg width="18" height="18" viewBox="0 0 18 18" fill="none" xmlns="http://www.w3.org/2000/svg">
<g clip-path="url(#clip0_2253_26805)">
<path d="M4.40624 1.125H0.84375C0.377754 1.125 0 1.50275 0 1.96875V4.78125C0 5.24725 0.377754 5.625 0.84375 5.625H4.40624C4.87223 5.625 5.24999 5.24725 5.24999 4.78125V1.96875C5.24999 1.50275 4.87223 1.125 4.40624 1.125Z" fill="#CECEDD"/>
<path d="M4.40624 9H0.84375C0.377754 9 0 9.37775 0 9.84375V12.6562C0 13.1222 0.377754 13.5 0.84375 13.5H4.40624C4.87223 13.5 5.24999 13.1222 5.24999 12.6562V9.84375C5.24999 9.37775 4.87223 9 4.40624 9Z" fill="#CECEDD"/>
<path d="M4.40624 3.75H0.84375C0.377754 3.75 0 4.12775 0 4.59375V7.40625C0 7.87225 0.377754 8.25 0.84375 8.25H4.40624C4.87223 8.25 5.24999 7.87225 5.24999 7.40625V4.59375C5.24999 4.12775 4.87223 3.75 4.40624 3.75Z" fill="#CECEDD"/>
<path opacity="0.4" d="M6.375 4.78125V1.96875C6.375 1.50275 6.75275 1.125 7.21875 1.125H17.1563C17.6223 1.125 18 1.50275 18 1.96875V4.78125C18 5.24725 17.6223 5.625 17.1563 5.625H7.21875C6.75275 5.625 6.375 5.24725 6.375 4.78125Z" fill="#CECEDD"/>
<path opacity="0.4" d="M17.1563 11.25H7.21875C6.75275 11.25 6.375 10.8722 6.375 10.4062V7.59375C6.375 7.12775 6.75275 6.75 7.21875 6.75H17.1563C17.6223 6.75 18 7.12775 18 7.59375V10.4062C18 10.8722 17.6223 11.25 17.1563 11.25Z" fill="#CECEDD"/>
<path opacity="0.4" d="M17.1563 16.875H7.21875C6.75275 16.875 6.375 16.4972 6.375 16.0312V13.2188C6.375 12.7528 6.75275 12.375 7.21875 12.375H17.1563C17.6223 12.375 18 12.7528 18 13.2188V16.0312C18 16.4972 17.6223 16.875 17.1563 16.875Z" fill="#CECEDD"/>
<path d="M5.24999 10.4062V7.59375C5.24999 7.12775 4.87223 6.75 4.40624 6.75H0.84375C0.377754 6.75 0 7.12775 0 7.59375V10.4062C0 10.8722 0.377754 11.25 0.84375 11.25H4.40624C4.87223 11.25 5.24999 10.8722 5.24999 10.4062Z" fill="#CECEDD"/>
<path d="M0 16.0312V13.2188C0 12.7528 0.377754 12.375 0.84375 12.375H4.40624C4.87223 12.375 5.24999 12.7528 5.24999 13.2188V16.0312C5.24999 16.4972 4.87223 16.875 4.40624 16.875H0.84375C0.377754 16.875 0 16.4972 0 16.0312Z" fill="#CECEDD"/>
</g>
<defs>
<clipPath id="clip0_2253_26805">
<rect width="18" height="18" fill="white"/>
</clipPath>
</defs>
</svg>
