<svg width="1676" height="1251" viewBox="0 0 1676 1251" fill="none" xmlns="http://www.w3.org/2000/svg">
<path d="M1482.56 118.23L1584.78 118.23V75.0339L1482.56 75.0339V118.23Z" fill="#EBEBEB"/>
<path d="M1539.62 63.7617L1641.84 63.7617V20.5652L1539.62 20.5652V63.7617Z" fill="#EBEBEB"/>
<path d="M298.075 519.736H400.295V476.54H298.075V519.736Z" fill="#EBEBEB"/>
<path d="M355.13 465.27H457.35V422.073H355.13V465.27Z" fill="#EBEBEB"/>
<path d="M413.034 519.736H515.254V476.54H413.034V519.736Z" fill="#EBEBEB"/>
<path d="M30.8662 63.7617L133.086 63.7617V20.5652L30.8662 20.5652V63.7617Z" fill="#EBEBEB"/>
<path d="M87.9209 936.223H190.141V893.026H87.9209V936.223Z" fill="#EBEBEB"/>
<path d="M30.8662 881.754H133.086V838.557H30.8662V881.754Z" fill="#EBEBEB"/>
<path d="M1482.56 936.223H1584.78V893.026H1482.56V936.223Z" fill="#EBEBEB"/>
<path d="M1325.37 368.956L1075.38 367.334L1077.47 46.3906L1263.11 47.5873L1327.5 48.0119L1327.11 109.159L1325.37 368.956Z" fill="#EBEBEB"/>
<path d="M1101.43 108.743L1305.09 110.059L1305.14 101.798L1101.48 100.483L1101.43 108.743Z" fill="#DBDBDB"/>
<path d="M1101.34 129.302L1305 130.652L1305.06 122.392L1101.4 121.041L1101.34 129.302Z" fill="#DBDBDB"/>
<path d="M1101.15 150.361L1304.82 151.676L1304.87 143.415L1101.21 142.1L1101.15 150.361Z" fill="#DBDBDB"/>
<path d="M1101.06 171.13L1304.72 172.445L1304.77 164.223L1101.11 162.908L1101.06 171.13Z" fill="#DBDBDB"/>
<path d="M1100.94 191.727L1304.61 193.078L1304.66 184.817L1101 183.467L1100.94 191.727Z" fill="#DBDBDB"/>
<path d="M1101.99 207.702L1305.66 209.738L1305.75 201.477L1102.08 199.441L1101.99 207.702Z" fill="#DBDBDB"/>
<path d="M1100.68 233.305L1304.34 234.656L1304.4 226.395L1100.73 225.045L1100.68 233.305Z" fill="#DBDBDB"/>
<path d="M1100.55 254.114L1304.21 255.465L1304.27 247.204L1100.6 245.853L1100.55 254.114Z" fill="#DBDBDB"/>
<path d="M1100.41 274.921L1304.08 276.271L1304.13 268.011L1100.47 266.66L1100.41 274.921Z" fill="#DBDBDB"/>
<path d="M1100.2 295.98L1303.87 297.295L1303.92 289.073L1100.26 287.757L1100.2 295.98Z" fill="#DBDBDB"/>
<path d="M1100.15 316.499L1303.81 317.85L1303.87 309.589L1100.21 308.238L1100.15 316.499Z" fill="#DBDBDB"/>
<path d="M1100.02 337.307L1303.68 338.658L1303.74 330.436L1100.07 329.085L1100.02 337.307Z" fill="#DBDBDB"/>
<path d="M1364.21 472.139L1119.47 420.913L1185.24 106.764L1366.95 144.787L1417.44 217.863L1364.21 472.139Z" fill="#EBEBEB"/>
<path d="M1366.95 144.789L1417.44 217.864L1354.44 204.662L1366.95 144.789Z" fill="#DBDBDB"/>
<path d="M1196.45 172.49L1332.5 200.988L1334.19 192.941L1198.13 164.443L1196.45 172.49Z" fill="#DBDBDB"/>
<path d="M1192.2 192.832L1328.25 221.33L1329.94 213.282L1193.88 184.784L1192.2 192.832Z" fill="#DBDBDB"/>
<path d="M1187.9 213.205L1323.96 241.703L1325.65 233.618L1189.59 205.12L1187.9 213.205Z" fill="#DBDBDB"/>
<path d="M1183.66 233.537L1383 275.291L1384.7 267.205L1185.35 225.452L1183.66 233.537Z" fill="#DBDBDB"/>
<path d="M1175.42 260.96L1375.02 301.693L1376.67 293.598L1177.07 252.864L1175.42 260.96Z" fill="#DBDBDB"/>
<path d="M1175.15 274.291L1374.49 316.045L1376.19 307.959L1176.84 266.206L1175.15 274.291Z" fill="#DBDBDB"/>
<path d="M1170.9 294.633L1370.24 336.387L1371.94 328.301L1172.59 286.547L1170.9 294.633Z" fill="#DBDBDB"/>
<path d="M1162.33 321.907L1361.92 362.641L1363.57 354.583L1163.97 313.849L1162.33 321.907Z" fill="#DBDBDB"/>
<path d="M1162.35 335.34L1361.7 377.094L1363.39 369.008L1164.05 327.254L1162.35 335.34Z" fill="#DBDBDB"/>
<path d="M1158.1 355.721L1357.44 397.475L1359.13 389.389L1159.79 347.635L1158.1 355.721Z" fill="#DBDBDB"/>
<path d="M1153.81 376.055L1353.15 417.809L1354.84 409.723L1155.5 367.969L1153.81 376.055Z" fill="#DBDBDB"/>
<path d="M1149.59 396.436L1348.93 438.189L1350.62 430.142L1151.27 388.388L1149.59 396.436Z" fill="#DBDBDB"/>
<path d="M395.238 379.841L692.557 384.705L695.606 185.862L398.288 180.998L395.238 379.841Z" fill="#EBEBEB"/>
<path d="M407.784 367.681L680.436 372.12L683.06 198.021L410.409 193.582L407.784 367.681Z" fill="white"/>
<path d="M434.304 248.244C434.205 254.116 435.851 259.885 439.031 264.821C442.212 269.758 446.786 273.64 452.174 275.977C457.561 278.313 463.521 278.999 469.299 277.948C475.076 276.897 480.413 274.156 484.632 270.072C488.852 265.987 491.765 260.743 493.003 255.003C494.242 249.262 493.75 243.283 491.59 237.822C489.429 232.362 485.698 227.664 480.867 224.325C476.037 220.985 470.325 219.153 464.453 219.06C456.586 218.936 448.992 221.941 443.339 227.413C437.686 232.885 434.436 240.377 434.304 248.244Z" fill="#DBDBDB"/>
<path d="M492.44 369.34L680.243 372.39L588.407 243.572L492.44 369.34Z" fill="#DBDBDB"/>
<path d="M418.824 368.182L573.853 370.692L497.69 286.576L418.824 368.182Z" fill="#EBEBEB"/>
<path d="M285.838 523.519L575.629 456.852L530.811 263.066L241.02 329.733L285.838 523.519Z" fill="#EBEBEB"/>
<path d="M295.102 508.697L560.805 447.55L521.546 277.93L255.843 339.038L295.102 508.697Z" fill="white"/>
<path d="M292.053 386.403C293.372 392.125 296.359 397.327 300.635 401.351C304.912 405.375 310.286 408.041 316.077 409.01C321.869 409.98 327.818 409.21 333.172 406.798C338.526 404.387 343.044 400.441 346.155 395.461C349.267 390.481 350.831 384.69 350.651 378.82C350.47 372.951 348.553 367.267 345.142 362.487C341.73 357.707 336.978 354.047 331.486 351.968C325.994 349.89 320.009 349.487 314.288 350.811C310.487 351.68 306.894 353.291 303.717 355.552C300.54 357.814 297.842 360.68 295.776 363.987C293.709 367.294 292.317 370.977 291.678 374.823C291.039 378.67 291.167 382.605 292.053 386.403Z" fill="#DBDBDB"/>
<path d="M377.674 489.975L560.69 447.821L440.635 344.867L377.674 489.975Z" fill="#DBDBDB"/>
<path d="M305.911 506.534L457.041 471.753L362.889 408.367L305.911 506.534Z" fill="#EBEBEB"/>
<path d="M0.370117 1004.24L209.366 1003.28L418.361 1002.97L836.352 1002.31L1254.34 1002.93L1463.34 1003.28L1672.33 1004.24L1463.34 1005.17L1254.34 1005.51L836.352 1006.13L418.361 1005.51L209.366 1005.17L0.370117 1004.24Z" fill="#263238"/>
<path d="M1562.63 756.372C1559.38 768.244 1557.23 780.391 1556.22 792.658C1556.56 793.237 1556.49 795.515 1556.22 794.897C1556.22 796.866 1553.09 796.519 1553.09 794.55V790.689C1546.03 781.888 1535.72 776.329 1527.42 768.686C1520.71 762.679 1515.83 754.907 1513.33 746.258C1506.42 722.517 1512.91 697.309 1504.61 673.607C1497.46 653.148 1484.61 635.39 1473.72 616.861C1462.14 597.251 1453.8 576.676 1452.96 553.707C1452.3 536.143 1454.38 512.749 1467.78 499.663C1481.95 485.689 1499.55 496.15 1510.24 508.619C1541.74 544.751 1556.29 590.418 1562.2 637.128C1565.44 662.953 1568.84 688.971 1568.03 715.067C1567.62 728.981 1565.81 742.82 1562.63 756.372Z" fill="#407BFF"/>
<path d="M1556.37 802.154C1558.09 777.723 1557.79 753.192 1555.48 728.809C1555.5 728.719 1555.5 728.628 1555.48 728.539C1555.87 708.736 1557.45 689.01 1556.64 669.206C1555.7 647.779 1552.8 626.484 1547.96 605.589C1547.96 605.319 1547.53 605.396 1547.57 605.589C1551.42 626.129 1553.72 646.931 1554.44 667.817C1554.88 679.011 1554.79 690.193 1554.17 701.362C1553.98 704.991 1553.67 708.658 1553.4 712.326C1545.17 656.772 1525.1 603.637 1494.53 556.525C1494.11 555.869 1492.95 556.525 1493.37 557.22C1515.2 593.037 1531.37 632.008 1541.32 672.758C1526.15 644.694 1503.29 621.648 1486.31 594.664C1486.31 594.664 1485.96 594.664 1486.04 594.664C1501.48 624.697 1526.49 648.361 1542.55 677.931C1545.33 689.975 1547.61 702.135 1549.31 714.372C1551.57 731.161 1552.79 748.077 1552.94 765.018C1543.75 747.802 1534.14 731.28 1526.61 713.059C1526.42 712.557 1525.72 713.059 1525.88 713.407C1531.99 733.17 1541.11 751.878 1552.9 768.879C1552.9 780.871 1552.56 792.864 1551.89 804.857C1550 836.82 1544.56 868.358 1542.01 900.205C1542 900.302 1542.01 900.4 1542.03 900.494C1542.06 900.587 1542.1 900.675 1542.16 900.752C1542.22 900.829 1542.29 900.894 1542.38 900.943C1542.46 900.991 1542.55 901.023 1542.65 901.035C1542.74 901.048 1542.84 901.042 1542.94 901.016C1543.03 900.991 1543.12 900.948 1543.2 900.889C1543.27 900.83 1543.34 900.756 1543.39 900.672C1543.43 900.588 1543.47 900.495 1543.48 900.398C1549.98 867.977 1554.29 835.155 1556.37 802.154Z" fill="#263238"/>
<path d="M1522.4 555.599C1522.4 555.367 1521.98 555.599 1522.05 555.599C1527.88 571.735 1531.2 588.103 1535.41 604.663C1535.46 604.797 1535.55 604.91 1535.68 604.983C1535.8 605.055 1535.95 605.082 1536.09 605.059C1536.23 605.036 1536.36 604.965 1536.45 604.858C1536.55 604.75 1536.6 604.613 1536.61 604.47C1534.28 587.573 1529.5 571.108 1522.4 555.599Z" fill="#263238"/>
<path d="M1670.67 623.269C1666.8 632.743 1662.32 641.961 1657.28 650.87C1646.74 669.94 1635.78 687.465 1633.81 709.701C1633.46 719.643 1632.04 729.519 1629.56 739.155C1626.85 747.396 1622.94 755.198 1617.98 762.316C1606.59 778.915 1592.35 793.198 1581.77 810.454C1570.82 828.4 1562.71 847.932 1557.72 868.358C1557.45 869.478 1555.72 869.169 1555.95 868.049C1555.97 867.961 1555.97 867.868 1555.95 867.779V867.547C1554.29 819.873 1558.11 771.851 1572.62 726.184C1579.06 706.093 1586.8 686.441 1595.79 667.353C1603.11 650.494 1613.7 635.25 1626.94 622.497C1635.82 614.506 1655.08 599.335 1667.7 607.365C1673.53 611.225 1673.07 617.324 1670.67 623.269Z" fill="#407BFF"/>
<path d="M1624.81 710.935C1614.36 724.334 1605.3 738.77 1597.79 754.016C1597.79 754.209 1597.79 754.441 1598.1 754.248C1607.25 739.926 1616.21 725.527 1625.32 711.205C1625.39 710.974 1624.97 710.742 1624.81 710.935Z" fill="#263238"/>
<path d="M1421.88 668.472C1428.06 679.126 1435.12 691.904 1432.46 704.681C1430.76 712.749 1424.74 719.312 1423.77 727.573C1421.38 745.793 1439.52 757.799 1452.68 766.407C1485.42 787.871 1530.31 807.017 1536.26 850.909C1536.49 852.453 1539.15 852.067 1538.96 850.523C1538.98 850.434 1538.98 850.342 1538.96 850.253C1538.96 850.253 1539.15 850.253 1539.15 849.982C1543.43 827.84 1543.22 805.066 1538.54 783.007C1533.09 760.789 1524.09 739.595 1511.9 720.238C1492.21 686.615 1471.33 652.182 1441.57 626.434C1433.31 619.331 1416.4 606.515 1409.84 622.573C1403.27 638.632 1414.31 655.501 1421.88 668.472Z" fill="#407BFF"/>
<path d="M1451.84 739.734C1473.53 763.204 1508.04 776.406 1526.72 802.695C1516.3 762.642 1496.58 725.612 1469.17 694.607C1468.43 693.796 1469.59 692.638 1470.36 693.41C1490.35 712.809 1506.32 735.946 1517.38 761.506C1512.24 743.666 1505.47 726.337 1497.15 709.739C1497.12 709.615 1497.12 709.482 1497.17 709.361C1497.21 709.239 1497.3 709.137 1497.41 709.07C1497.52 709.004 1497.65 708.976 1497.78 708.992C1497.91 709.009 1498.03 709.068 1498.12 709.16C1508.41 727.297 1515.77 746.943 1519.93 767.373C1544.56 826.976 1546.95 896.886 1541.66 959.692C1541.66 960.58 1540.24 960.619 1540.27 959.692C1541.66 910.165 1540.89 859.827 1529 811.458C1528.77 810.454 1528.5 809.45 1528.23 808.447C1508.04 780.151 1473.57 766.987 1451.45 739.965C1451.26 739.965 1451.6 739.464 1451.84 739.734Z" fill="#263238"/>
<path d="M1446.82 719.544C1458.2 730.006 1469.4 740.699 1480.83 751.122C1480.83 751.122 1480.83 751.43 1480.83 751.353C1467.84 742.661 1456.15 732.187 1446.08 720.239C1445.99 720.142 1445.94 720.012 1445.95 719.878C1445.95 719.744 1446.01 719.617 1446.1 719.525C1446.2 719.433 1446.33 719.383 1446.46 719.387C1446.6 719.391 1446.72 719.447 1446.82 719.544Z" fill="#263238"/>
<path d="M1445 674.341C1455.08 690.856 1466.48 706.529 1479.09 721.205C1479.09 721.436 1479.09 721.706 1478.82 721.513C1464.66 708.066 1453 692.211 1444.39 674.688C1444.34 674.606 1444.33 674.509 1444.35 674.419C1444.38 674.328 1444.44 674.252 1444.52 674.206C1444.6 674.16 1444.7 674.148 1444.79 674.173C1444.88 674.199 1444.96 674.259 1445 674.341Z" fill="#263238"/>
<path d="M1496.31 1003.97H1596.09L1582.66 869.709H1511.67L1496.31 1003.97Z" fill="#455A64"/>
<path d="M1509.16 891.52H1584.86L1582.66 869.709H1511.67L1509.16 891.52Z" fill="#263238"/>
<path d="M1499.43 876.271H1592.97V854.847H1499.43V876.271Z" fill="#455A64"/>
<path d="M1413.7 537.686H258.97V1004.24H1413.7V537.686Z" fill="#407BFF"/>
<path d="M258.97 563.434H234.689V1004.24H258.97V563.434Z" fill="#263238"/>
<path d="M1438.02 563.434H1413.73V1004.24H1438.02V563.434Z" fill="#263238"/>
<path opacity="0.1" d="M1229.29 537.686H443.415V1004.24H1229.29V537.686Z" fill="black"/>
<path d="M394.929 944.945H307.456V972.16H394.929V944.945Z" fill="#455A64"/>
<path d="M1142.05 817.131H530.657V1004.24H1142.05V817.131Z" fill="#455A64"/>
<path d="M1119.54 840.949H553.124V1004.24H1119.54V840.949Z" fill="#37474F"/>
<path d="M1119.54 840.949H553.124V910.666H1119.54V840.949Z" fill="#263238"/>
<path opacity="0.4" d="M1413.7 563.434H258.97V608.637H1413.7V563.434Z" fill="#FDFEFF"/>
<path opacity="0.4" d="M1413.7 629.059H258.97V643.149H1413.7V629.059Z" fill="#FDFEFF"/>
<path d="M1321.51 730.159C1338.7 730.159 1352.63 716.229 1352.63 699.045C1352.63 681.862 1338.7 667.932 1321.51 667.932C1304.33 667.932 1290.4 681.862 1290.4 699.045C1290.4 716.229 1304.33 730.159 1321.51 730.159Z" fill="#455A64"/>
<path d="M1138.34 273.295H534.363V537.685H1138.34V273.295Z" fill="#455A64"/>
<path d="M1097.85 158.607H574.896V537.687H1097.85V158.607Z" fill="white"/>
<path d="M1097.81 158.607L835.966 159.533L574.896 159.996L576.285 158.607L576.826 537.686L574.896 535.756L1097.81 536.489L1096.65 537.686L1097.08 348.532L1097.81 158.607ZM1097.81 158.607L1098.54 347.76L1098.85 537.686V538.883H1097.65L574.741 539.616H572.811V537.686L573.351 158.607V157.062H574.741L836.584 157.526L1097.81 158.607Z" fill="#263238"/>
<path d="M1356.02 749.885H1287V759.806H1356.02V749.885Z" fill="#455A64"/>
<path d="M1356.02 768.84H1287V778.761H1356.02V768.84Z" fill="#455A64"/>
<path d="M1317.42 1209.34H355.284L530.657 1004.24H1142.05L1317.42 1209.34Z" fill="#263238"/>
<path d="M1317.42 1209.34H355.284V1237.05H1317.42V1209.34Z" fill="#37474F"/>
<path d="M245.73 494.645C244.247 489.432 243.239 484.096 242.719 478.702C241.586 468.103 241.586 457.415 242.719 446.816C243.235 441.421 244.243 436.085 245.73 430.873C247.253 436.076 248.261 441.416 248.741 446.816C249.332 452.109 249.616 457.433 249.59 462.759C249.595 468.085 249.311 473.407 248.741 478.702C248.239 484.099 247.231 489.437 245.73 494.645Z" fill="#263238"/>
<path d="M295.913 515.799C298.526 511.051 301.59 506.565 305.062 502.404C311.744 494.088 319.302 486.517 327.606 479.821C331.768 476.361 336.254 473.31 341.001 470.711C338.37 475.448 335.308 479.932 331.853 484.106C325.157 492.398 317.6 499.955 309.309 506.65C305.125 510.092 300.642 513.154 295.913 515.799Z" fill="#263238"/>
<path d="M174.121 565.442C168.915 566.95 163.576 567.959 158.178 568.453C152.883 569.026 147.561 569.309 142.236 569.303C136.909 569.327 131.586 569.043 126.293 568.453C120.905 567.974 115.578 566.965 110.388 565.442C115.587 563.956 120.91 562.949 126.293 562.431C131.589 561.88 136.91 561.597 142.236 561.582C147.562 561.588 152.884 561.885 158.178 562.47C163.575 562.951 168.914 563.947 174.121 565.442Z" fill="#263238"/>
<path d="M195.276 515.221C190.539 512.59 186.055 509.527 181.88 506.072C173.613 499.349 166.059 491.795 159.336 483.528C155.881 479.354 152.819 474.87 150.188 470.133C154.935 472.732 159.421 475.783 163.583 479.243C171.887 485.939 179.445 493.51 186.127 501.826C189.599 505.987 192.663 510.472 195.276 515.221Z" fill="#263238"/>
<path d="M591.804 908.467L1087.89 907.965C1176.06 1021.77 1150.93 1135.64 1245.08 1249.52H426.352C523.322 1135.8 500.778 1022.15 591.804 908.467Z" fill="white"/>
<path d="M591.804 908.466L1087.27 907.23H1088.47L1089.01 907.964C1177.79 1021.76 1152.93 1135.72 1248.05 1249.44L1249.09 1250.6H1246.01L425.58 1250.22H423.457L424.19 1249.44C474.76 1192.54 490.394 1135.64 507.727 1078.74C526.874 1022 547.603 965.25 591.804 908.466ZM591.804 908.466C548.144 965.405 528.263 1022.31 509.966 1079.17C493.173 1135.95 478.003 1192.7 428.437 1249.44L427.047 1248.67L1244.08 1248.29L1242.03 1249.44C1149.03 1135.64 1174.13 1021.76 1086.69 907.964L1088.43 908.697L591.804 908.466Z" fill="#263238"/>
<path d="M456.038 1210.46H1216.51C1220.37 1217.09 1224.93 1223.73 1229.79 1230.37H442.295C447.275 1223.73 451.83 1217.09 456.038 1210.46Z" fill="#263238"/>
<path d="M1216.4 1210.42H801.34C813.332 1203.26 825.042 1196.12 836.468 1188.99H1204.66C1208.21 1196.13 1212.07 1203.2 1216.4 1210.42Z" fill="#263238"/>
<path d="M1232.61 1234.27H799.564C805.702 1231.65 811.801 1229.02 817.784 1226.55H1226.97C1228.72 1229 1230.6 1231.57 1232.61 1234.27Z" fill="#407BFF"/>
<path d="M1224.23 1222.5H997.789L1012.96 1214.59H1219.06C1220.72 1217.37 1222.38 1219.99 1224.23 1222.5Z" fill="#407BFF"/>
<path d="M755.286 1202.16C755.286 1202.77 753.742 1203.28 751.967 1203.28C750.191 1203.28 748.84 1202.77 748.917 1202.16C749.496 1198.3 750.036 1194.17 750.577 1190.15C750.577 1189.53 752.16 1189.03 753.858 1189.03C755.557 1189.03 756.908 1189.53 756.83 1190.15C756.483 1194.17 755.981 1198.14 755.286 1202.16Z" fill="#263238"/>
<path d="M734.016 1190.15C734.016 1189.57 735.599 1189.03 737.22 1189.03C738.842 1189.03 740.231 1189.57 740.154 1190.15C739.575 1194.01 738.996 1197.87 738.34 1201.96C738.34 1202.31 737.838 1202.66 736.95 1202.89C735.518 1203.24 734.014 1203.16 732.627 1202.66L715.873 1193.55C715.371 1196.37 714.831 1199.15 714.29 1201.92C714.29 1202.5 712.669 1203.04 710.971 1203.04C709.272 1203.04 707.921 1202.5 708.037 1201.92C708.847 1198.06 709.619 1194.2 710.353 1190.15C710.353 1189.53 711.974 1189.03 713.673 1189.03C714.425 1189.01 715.173 1189.14 715.873 1189.42H716.143L732.704 1198.45C733.167 1195.79 733.592 1192.97 734.016 1190.15Z" fill="#263238"/>
<path d="M684.219 1189.26H684.605H684.875H685.107C688.967 1193.12 692.596 1197.18 696.379 1201.11C696.919 1201.65 696.031 1202.35 694.333 1202.58C693.014 1202.86 691.64 1202.64 690.472 1201.96L681.594 1192.58C677.154 1195.71 672.715 1198.84 668.16 1201.96C666.83 1202.61 665.333 1202.82 663.875 1202.58C662.331 1202.35 661.79 1201.69 662.563 1201.11C668.314 1197.25 674.143 1193.2 679.509 1189.26H679.779H680.088H680.436H680.937H683.408H683.871H684.219Z" fill="#263238"/>
<path d="M622.261 1201.5C619.173 1200.19 617.552 1198.37 618.401 1196.37C619.25 1194.36 621.837 1192.51 625.735 1191.23C630.273 1189.76 635.018 1189.03 639.787 1189.07C644.285 1188.95 648.765 1189.68 652.989 1191.23C656.116 1192.54 657.737 1194.36 657.158 1196.37C656.579 1198.37 653.993 1200.23 650.094 1201.5C645.34 1203.01 640.375 1203.75 635.386 1203.7C630.908 1203.86 626.443 1203.11 622.261 1201.5ZM624.693 1196.37C624.268 1197.76 625.388 1199.03 627.434 1199.92C630.151 1200.97 633.052 1201.47 635.965 1201.38C639.253 1201.43 642.526 1200.93 645.654 1199.92C648.318 1199.03 650.171 1197.76 650.557 1196.37C650.943 1194.98 649.824 1193.7 647.7 1192.85C644.919 1191.79 641.953 1191.29 638.976 1191.39C635.803 1191.36 632.648 1191.86 629.634 1192.85C627.048 1193.7 625.118 1194.98 624.693 1196.37Z" fill="#263238"/>
<path d="M607.438 1202.16C607.206 1202.77 605.662 1203.28 603.886 1203.28C602.11 1203.28 600.875 1202.77 601.107 1202.16C602.574 1198.3 603.963 1194.17 605.276 1190.19C605.507 1189.57 607.129 1189.07 608.789 1189.07C610.449 1189.07 611.723 1189.57 611.53 1190.19C610.256 1194.17 608.866 1198.18 607.438 1202.16Z" fill="#263238"/>
<path d="M594.313 1196.37C592.807 1200.23 581.998 1203.66 570.533 1203.7C566.297 1203.77 562.072 1203.24 557.987 1202.12C556.791 1201.69 556.868 1201 557.987 1200.5C559.488 1199.96 561.112 1199.88 562.658 1200.26C565.491 1201.09 568.434 1201.46 571.383 1201.38C575.049 1201.4 578.699 1200.9 582.23 1199.92C585.164 1198.99 587.248 1197.76 587.75 1196.37C588.252 1194.98 587.133 1193.74 584.932 1192.85C581.838 1191.81 578.585 1191.31 575.32 1191.39C572.12 1191.36 568.929 1191.73 565.824 1192.51C564.353 1192.87 562.81 1192.78 561.385 1192.27C560.612 1191.77 561.114 1191.04 562.62 1190.65C567.067 1189.57 571.631 1189.04 576.208 1189.07C587.519 1189.07 595.741 1192.35 594.313 1196.37Z" fill="#263238"/>
<path d="M551.425 1190.19C549.804 1194.05 548.067 1198.18 546.252 1202.16C545.982 1202.81 544.399 1203.28 542.624 1203.28H523.863C522.203 1203.28 520.967 1202.81 521.276 1202.16C521.585 1201.5 523.322 1201.04 525.137 1201.04H540.578L542.238 1197.18H528.997C527.298 1197.18 526.14 1196.64 526.41 1196.06C526.681 1195.48 528.341 1194.9 530.039 1194.9H542.971C543.511 1193.66 544.013 1192.43 544.554 1191.04H529.46C527.8 1191.04 526.565 1190.5 526.835 1189.88C527.105 1189.26 528.804 1188.76 530.425 1188.76H548.607C550.692 1189.07 551.657 1189.57 551.425 1190.19Z" fill="#263238"/>
<path d="M565.361 1093.41L1109.85 1093.22C1111.17 1098.78 1112.44 1104.37 1113.71 1109.97H560.96C562.504 1104.57 563.932 1098.97 565.361 1093.41Z" fill="white"/>
<path d="M561.037 1110.13H1113.79C1115.1 1115.72 1116.45 1121.28 1117.84 1126.88H556.559C558.103 1121.28 559.57 1115.72 561.037 1110.13Z" fill="#407BFF"/>
<path d="M569.646 1076.66L1105.95 1076.46C1107.27 1082.02 1108.54 1087.62 1109.81 1093.22L565.515 1093.41L569.646 1076.66Z" fill="#DBDBDB"/>
<path d="M574.085 1059.94L1101.9 1059.71C1103.29 1065.27 1104.64 1070.87 1105.76 1076.46L569.453 1076.66C571.113 1071.1 572.579 1065.5 574.085 1059.94Z" fill="white"/>
<path d="M578.795 1043.19L1097.62 1042.96C1099.08 1048.52 1100.51 1054.11 1101.9 1059.71L574.085 1059.94C575.629 1054.34 577.173 1048.79 578.795 1043.19Z" fill="#DBDBDB"/>
<path d="M583.89 1026.47L1092.95 1026.17C1094.57 1031.76 1096.11 1037.36 1097.62 1042.96L578.794 1043.19C580.416 1037.63 582.114 1032.03 583.89 1026.47Z" fill="white"/>
<path d="M589.294 1009.72L1087.66 1009.41C1089.47 1015.01 1091.17 1020.61 1092.83 1026.17L583.774 1026.47C585.627 1020.88 587.48 1015.32 589.294 1009.72Z" fill="#DBDBDB"/>
<path d="M595.509 993.005L936.179 992.773C936.951 998.332 937.685 1003.93 938.379 1009.53L589.41 1009.72C591.34 1004.16 593.386 998.602 595.509 993.005Z" fill="#407BFF"/>
<path d="M938.379 1009.53H1087.77C1100.24 1048.63 1107.81 1087.74 1117.84 1126.84H949.574C945.83 1087.7 943.089 1048.79 938.379 1009.53Z" fill="#C7C7C7"/>
<path d="M1109.85 1093.22L837.588 1093.53H565.361L837.626 1093.22H1109.85Z" fill="#263238"/>
<path d="M1105.95 1076.46L837.819 1076.77H569.646L837.819 1076.46H1105.95Z" fill="#263238"/>
<path d="M1101.9 1059.71L838.012 1060.02H574.085L838.012 1059.67L1101.9 1059.71Z" fill="#263238"/>
<path d="M1097.62 1042.96L838.205 1043.27H578.794L838.205 1042.92L1097.62 1042.96Z" fill="#263238"/>
<path d="M1092.95 1026.17L838.398 1026.55H583.89L838.398 1026.2L1092.95 1026.17Z" fill="#263238"/>
<path d="M1087.77 1009.41L838.591 1009.8H589.41L838.591 1009.45L1087.77 1009.41Z" fill="#263238"/>
<path d="M1085.96 1118.27C1068.24 1118.62 1050.44 1118.66 1032.69 1118.7C1014.93 1118.74 997.094 1118.7 979.26 1118.31C996.978 1117.96 1014.77 1117.93 1032.53 1117.89C1050.29 1117.85 1067.97 1118 1085.96 1118.27Z" fill="#263238"/>
<path d="M1082.45 1101.6C1069.24 1101.94 1056 1101.98 1042.76 1102.02C1029.52 1102.06 1016.24 1102.02 1002.92 1101.64C1016.13 1101.25 1029.37 1101.25 1042.61 1101.17C1055.85 1101.09 1069.13 1101.25 1082.45 1101.6Z" fill="#263238"/>
<path d="M1078.97 1084.84C1061.79 1085.19 1044.54 1085.23 1027.28 1085.27C1010.03 1085.31 992.732 1085.27 975.438 1084.88C992.655 1084.53 1009.91 1084.49 1027.13 1084.46C1044.34 1084.42 1061.64 1084.49 1078.97 1084.84Z" fill="#263238"/>
<path d="M1075.46 1068.09C1061.52 1068.44 1047.55 1068.47 1033.57 1068.51C1019.6 1068.55 1005.59 1068.51 991.536 1068.13C1005.47 1067.78 1019.45 1067.74 1033.42 1067.66C1047.39 1067.59 1061.41 1067.74 1075.46 1068.09Z" fill="#263238"/>
<path d="M1071.83 1051.33C1055.19 1051.68 1038.48 1051.72 1021.65 1051.76C1004.81 1051.8 988.177 1051.76 971.462 1051.37C988.139 1051.03 1004.81 1050.99 1021.65 1050.95C1038.48 1050.91 1055 1050.99 1071.83 1051.33Z" fill="#263238"/>
<path d="M1067.97 1034.58C1051.64 1034.93 1035.23 1034.97 1018.83 1035.01C1002.42 1035.04 985.977 1035.01 969.532 1034.62C985.861 1034.27 1002.27 1034.23 1018.67 1034.19C1035.08 1034.16 1051.29 1034.23 1067.97 1034.58Z" fill="#263238"/>
<path d="M1063.45 1017.9C1053.76 1018.21 1044.15 1018.33 1034.23 1018.33C1024.31 1018.33 1014.66 1018.33 1004.81 1017.94C1014.54 1017.6 1024.12 1017.52 1034.04 1017.48C1043.96 1017.44 1053.57 1017.48 1063.45 1017.9Z" fill="#263238"/>
<path d="M909.698 1118.27C896.341 1118.66 882.984 1118.66 869.628 1118.74C856.271 1118.81 842.876 1118.74 829.52 1118.31C842.876 1117.96 856.233 1117.92 869.589 1117.89C882.946 1117.85 896.38 1118.04 909.698 1118.27Z" fill="#263238"/>
<path d="M908.887 1101.67C895.724 1102.02 882.56 1102.02 869.396 1102.1C856.233 1102.17 843.069 1102.1 829.906 1101.67C843.069 1101.32 856.233 1101.29 869.396 1101.25C882.56 1101.21 895.724 1101.32 908.887 1101.67Z" fill="#263238"/>
<path d="M908.038 1084.92C895.067 1085.27 882.097 1085.31 869.126 1085.34C856.156 1085.38 843.185 1085.34 830.215 1084.92C843.185 1084.57 856.156 1084.53 869.126 1084.5C882.097 1084.46 895.029 1084.57 908.038 1084.92Z" fill="#263238"/>
<path d="M907.15 1068.09C894.372 1068.44 881.634 1068.47 868.856 1068.51C856.079 1068.55 843.301 1068.51 830.523 1068.13C843.301 1067.74 856.078 1067.74 868.817 1067.66C881.556 1067.59 894.257 1067.82 907.15 1068.09Z" fill="#263238"/>
<path d="M906.185 1051.41C893.678 1051.76 881.093 1051.8 868.547 1051.84C856.001 1051.88 843.417 1051.84 830.871 1051.45C843.417 1051.1 855.963 1051.07 868.509 1050.99C881.054 1050.91 893.639 1051.07 906.185 1051.41Z" fill="#263238"/>
<path d="M905.181 1034.66C892.867 1035.01 880.514 1035.04 868.2 1035.08C855.885 1035.12 843.533 1035.08 831.18 1034.7C843.533 1034.35 855.847 1034.31 868.161 1034.27C880.475 1034.23 892.828 1034.31 905.181 1034.66Z" fill="#263238"/>
<path d="M904.062 1017.9C891.979 1018.25 879.896 1018.29 867.814 1018.37C855.731 1018.45 843.61 1018.37 831.527 1017.94C843.61 1017.6 855.693 1017.56 867.775 1017.52C879.858 1017.48 891.941 1017.56 904.062 1017.9Z" fill="#263238"/>
<path d="M793.889 1118.27C780.533 1118.62 767.137 1118.66 753.781 1118.73C740.424 1118.81 727.029 1118.73 713.711 1118.31C727.106 1117.96 740.502 1117.92 753.858 1117.89C767.215 1117.85 780.571 1118.27 793.889 1118.27Z" fill="#263238"/>
<path d="M774.588 1017.91C770.728 1018.25 766.867 1018.33 763.007 1018.33C759.147 1018.33 755.287 1018.33 751.426 1017.91C755.287 1017.6 759.147 1017.52 763.007 1017.48C766.867 1017.44 770.728 1017.67 774.588 1017.91Z" fill="#263238"/>
<path d="M773.044 1034.74C769.184 1035.04 765.323 1035.12 761.193 1035.16C757.062 1035.2 753.472 1035.16 749.419 1034.74C753.279 1034.39 757.333 1034.31 761.27 1034.31C765.208 1034.31 769.145 1034.39 773.044 1034.74Z" fill="#263238"/>
<path d="M771.654 1051.49C767.794 1051.8 763.625 1051.88 759.61 1051.91C755.595 1051.95 751.581 1051.91 747.604 1051.49C751.658 1051.14 755.672 1051.06 759.687 1051.06C763.702 1051.06 767.678 1051.14 771.654 1051.49Z" fill="#263238"/>
<path d="M770.38 1068.09C766.25 1068.44 762.158 1068.51 758.104 1068.51C754.051 1068.51 749.959 1068.51 745.906 1068.13C749.998 1067.78 754.09 1067.7 758.182 1067.66C762.274 1067.63 766.327 1068.09 770.38 1068.09Z" fill="#263238"/>
<path d="M769.106 1084.96C764.937 1085.3 760.807 1085.38 756.638 1085.38C752.469 1085.38 748.377 1085.38 744.285 1084.96C748.454 1084.65 752.584 1084.57 756.715 1084.53C760.845 1084.49 765.014 1084.61 769.106 1084.96Z" fill="#263238"/>
<path d="M767.871 1101.71C763.663 1102.02 759.417 1102.1 755.209 1102.14C751.002 1102.17 746.832 1102.14 742.663 1101.71C746.871 1101.36 751.079 1101.29 755.286 1101.29C759.494 1101.29 763.702 1101.36 767.871 1101.71Z" fill="#263238"/>
<path d="M769.454 1001.23C762.737 1001.58 756.059 1001.65 749.38 1001.69C742.702 1001.73 736.024 1001.69 729.384 1001.27C736.14 1000.92 742.818 1000.84 749.496 1000.84C756.174 1000.84 763.007 1000.92 769.454 1001.23Z" fill="#263238"/>
<path d="M678.081 1118.46C664.647 1118.81 651.291 1118.85 637.895 1118.89C624.5 1118.93 611.182 1118.89 597.903 1118.5C611.337 1118.12 624.693 1118.12 638.05 1118.04C651.406 1117.96 664.724 1118.27 678.081 1118.46Z" fill="#263238"/>
<path d="M680.629 1101.71C667.388 1102.1 654.224 1102.1 641.061 1102.17C627.897 1102.25 614.734 1102.17 601.647 1101.75C614.888 1101.4 628.052 1101.36 641.215 1101.33C654.379 1101.29 667.504 1101.4 680.629 1101.71Z" fill="#263238"/>
<path d="M683.177 1085C670.129 1085.34 657.158 1085.38 644.188 1085.42C631.217 1085.46 618.247 1085.42 605.353 1085.04C618.401 1084.65 631.372 1084.65 644.342 1084.57C657.313 1084.5 670.36 1084.65 683.177 1085Z" fill="#263238"/>
<path d="M685.801 1068.09C672.985 1068.44 660.208 1068.47 647.43 1068.55C634.653 1068.63 621.914 1068.55 609.213 1068.13C622.068 1067.78 634.807 1067.74 647.585 1067.7C660.362 1067.66 673.024 1068.09 685.801 1068.09Z" fill="#263238"/>
<path d="M688.426 1051.53C675.803 1051.87 663.219 1051.91 650.673 1051.95C638.127 1051.99 625.542 1051.95 613.074 1051.53C625.697 1051.18 638.281 1051.14 650.827 1051.1C663.373 1051.06 675.919 1051.18 688.426 1051.53Z" fill="#263238"/>
<path d="M691.283 1034.77C678.892 1035.12 666.539 1035.16 654.186 1035.2C641.833 1035.24 629.557 1035.2 617.281 1034.81C629.712 1034.47 642.064 1034.43 654.379 1034.35C666.693 1034.27 679.046 1034.43 691.283 1034.77Z" fill="#263238"/>
<path d="M694.41 1017.9C682.25 1018.29 670.167 1018.29 658.046 1018.37C645.925 1018.45 633.881 1018.37 621.875 1017.94C634.074 1017.6 646.156 1017.56 658.239 1017.52C670.322 1017.48 682.404 1017.67 694.41 1017.9Z" fill="#263238"/>
<path d="M697.807 1001.31C685.917 1001.65 674.105 1001.69 662.254 1001.73C650.403 1001.77 638.629 1001.73 626.894 1001.34C638.822 1001 650.634 1000.96 662.485 1000.88C674.336 1000.8 686.072 1000.96 697.807 1001.31Z" fill="#263238"/>
<path d="M1141.08 1198.02C1123.13 1198.37 1105.11 1198.53 1087.04 1198.68C1068.97 1198.84 1050.87 1198.68 1032.8 1198.87C1014.74 1199.07 996.554 1198.87 978.449 1198.68L951.234 1198.45C942.163 1198.45 933.13 1198.22 924.212 1198.02C933.245 1197.83 942.24 1197.75 951.234 1197.64L978.256 1197.37C996.284 1197.37 1014.35 1197.37 1032.3 1197.18C1050.25 1196.98 1068.43 1197.18 1086.54 1197.37C1104.64 1197.56 1122.86 1197.68 1141.08 1198.02Z" fill="white"/>
<path d="M1144.83 1206.29C1124.17 1206.63 1103.45 1206.79 1082.68 1206.94C1061.91 1207.1 1041.1 1206.94 1020.29 1206.94C999.488 1206.94 978.604 1206.94 957.758 1206.94L926.528 1206.71L895.26 1206.33C905.644 1206.13 916.028 1206.02 926.413 1205.9L957.527 1205.63C978.295 1205.63 999.063 1205.63 1019.83 1205.44C1040.6 1205.24 1061.37 1205.44 1082.21 1205.63C1103.06 1205.82 1123.87 1205.94 1144.83 1206.29Z" fill="white"/>
<path d="M1125.87 1156.3C1109.97 1156.57 1094.06 1156.68 1078.12 1156.76C1062.18 1156.84 1046.24 1156.76 1030.29 1156.76C1014.35 1156.76 998.33 1156.76 982.348 1156.76C966.367 1156.76 950.424 1156.53 934.442 1156.3C950.346 1156.01 966.277 1155.85 982.232 1155.79C998.137 1155.79 1014.08 1155.79 1030.02 1155.79H1077.89C1093.95 1155.91 1109.93 1156.03 1125.87 1156.3Z" fill="#263238"/>
<path d="M1123.83 1149.15C1113.98 1149.42 1104.1 1149.54 1094.18 1149.62C1084.26 1149.69 1074.34 1149.62 1064.42 1149.62H1034.58C1024.62 1149.62 1014.66 1149.38 1004.7 1149.11C1014.58 1148.84 1024.46 1148.73 1034.38 1148.65C1044.31 1148.57 1054.23 1148.65 1064.11 1148.65C1073.99 1148.65 1083.99 1148.65 1093.91 1148.65C1103.83 1148.65 1113.83 1148.88 1123.83 1149.15Z" fill="#263238"/>
<path d="M1122.01 1142.01C1108.35 1142.28 1094.64 1142.4 1080.94 1142.51H1039.79C1026.05 1142.51 1012.34 1142.51 998.6 1142.51C984.857 1142.51 971.115 1142.51 957.372 1142.05C971.037 1141.78 984.741 1141.67 998.445 1141.55C1012.15 1141.43 1025.85 1141.55 1039.56 1141.55C1053.26 1141.55 1067 1141.55 1080.71 1141.55C1094.41 1141.55 1108.04 1141.74 1122.01 1142.01Z" fill="#263238"/>
<path d="M1077.23 979.726C1068.9 979.996 1060.48 980.112 1052.1 980.227C1043.73 980.343 1035.23 980.227 1026.78 980.227C1018.33 980.227 1009.87 980.227 1001.38 980.227C992.887 980.227 984.433 980.034 975.94 979.764C984.317 979.494 992.732 979.378 1001.15 979.262C1009.56 979.147 1017.98 979.262 1026.39 979.262C1034.81 979.262 1043.26 979.262 1051.76 979.262C1060.25 979.262 1068.7 979.301 1077.23 979.726Z" fill="#263238"/>
<path d="M1074.42 972.585C1064.88 972.856 1055.11 973.01 1045.66 973.087C1036.2 973.164 1026.36 973.087 1016.74 973.28C1007.13 973.473 997.442 973.28 987.752 973.28C978.063 973.28 968.451 973.28 958.723 972.817C968.297 972.547 978.025 972.431 987.521 972.315C997.017 972.199 1006.82 972.315 1016.36 972.315H1045.31C1054.96 972.238 1064.65 972.354 1074.42 972.585Z" fill="#263238"/>
<path d="M1061.75 944.136C1047.55 944.419 1033.3 944.586 1019.02 944.638L976.056 944.831L932.859 944.56C918.499 944.56 904.178 944.367 889.817 944.136C904.1 943.866 918.383 943.711 932.667 943.595L975.516 943.402H1018.48C1032.96 943.788 1047.32 943.866 1061.75 944.136Z" fill="#263238"/>
<path d="M1071.44 965.443C1065.73 965.713 1059.86 965.829 1054.23 965.945C1048.59 966.061 1042.65 965.945 1036.82 965.945C1030.99 965.945 1025.24 965.945 1019.37 965.945C1013.5 965.945 1007.79 965.714 1001.77 965.482C1007.52 965.212 1013.35 965.057 1019.02 964.98C1024.7 964.903 1030.6 964.98 1036.39 964.787C1042.18 964.594 1047.97 964.787 1053.84 964.787C1059.71 964.787 1065.54 965.212 1071.44 965.443Z" fill="#263238"/>
<path d="M781.034 958.649C766.751 958.919 752.468 959.035 738.185 959.151L695.375 959.344H652.603C638.397 959.344 624.191 959.151 610.14 958.88C624.5 958.61 638.783 958.494 653.066 958.379L695.838 958.186H738.301C752.623 958.263 766.867 958.379 781.034 958.649Z" fill="#263238"/>
<path d="M780.147 965.676C768.411 965.959 756.65 966.126 744.864 966.178C733.283 966.178 721.355 966.178 709.619 966.178H674.414C662.833 966.178 651.02 965.946 639.362 965.714C651.2 965.431 662.987 965.264 674.722 965.212C686.496 965.212 698.193 965.212 709.928 965.019C721.663 964.826 733.36 965.019 745.057 965.019C756.753 965.019 768.45 965.444 780.147 965.676Z" fill="#263238"/>
<path d="M781.961 951.509C771.229 951.779 760.459 951.895 749.728 952.011C738.996 952.126 728.226 952.011 717.494 952.204C706.763 952.397 696.031 952.204 685.338 952.204C674.645 952.204 663.952 951.972 653.336 951.74C664.145 951.47 674.915 951.316 685.647 951.2C696.379 951.084 707.11 951.2 717.842 951.2H749.921C760.614 951.123 771.307 951.238 781.961 951.509Z" fill="#263238"/>
<path d="M782.926 944.56C775.206 944.83 767.755 944.946 760.15 945.062C752.546 945.178 744.98 945.062 737.375 945.255C729.77 945.448 722.243 945.255 714.715 945.255C707.187 945.255 699.621 945.255 692.132 944.792C699.853 944.521 707.573 944.406 714.985 944.29C722.397 944.174 730.117 944.29 737.684 944.29C745.25 944.29 752.777 944.29 760.343 944.29C767.91 944.29 775.399 944.135 782.926 944.56Z" fill="#263238"/>
<path d="M1059.94 950.002C1056.39 951.392 1052.64 952.705 1048.75 953.863C1044.54 955.234 1040.23 956.254 1035.85 956.912H1034C1033.22 957.031 1032.43 956.91 1031.72 956.565C1030.96 956.162 1030.38 955.486 1030.1 954.673C1029.66 953.436 1029.45 952.127 1029.48 950.813C1029.46 948.407 1029.65 946.004 1030.06 943.633C1030.85 938.863 1032.14 934.191 1033.92 929.697C1034.37 928.502 1034.99 927.383 1035.77 926.378C1036.03 926.065 1036.35 925.803 1036.7 925.605C1037.03 925.407 1037.4 925.312 1037.78 925.335C1038.1 925.274 1038.43 925.274 1038.75 925.335L1039.29 925.567C1040.14 925.999 1040.85 926.687 1041.29 927.536C1042.38 929.819 1042.72 932.385 1042.26 934.87C1041.9 937.301 1041.06 939.636 1039.79 941.741C1038.31 944.569 1036.03 946.893 1033.23 948.42C1031.23 949.359 1029.06 949.909 1026.86 950.041C1025.57 950.182 1024.28 950.182 1023 950.041C1021.81 949.808 1020.68 949.335 1019.68 948.651C1018.83 948.094 1017.94 947.604 1017.01 947.184C1016 946.726 1014.88 946.552 1013.77 946.683C1011.81 947.054 1009.91 947.663 1008.1 948.497C1007.21 948.883 1006.36 949.269 1005.43 949.616L1003.93 950.118C1003.25 950.309 1002.52 950.309 1001.84 950.118C1000.65 949.501 1000.68 948.883 1000.03 948.343C999.629 948.026 999.171 947.791 998.681 947.651C998.191 947.512 997.678 947.472 997.172 947.532C995.455 948.073 993.829 948.866 992.346 949.887C990.918 950.774 989.528 951.701 988.139 952.627C985.359 954.48 982.58 956.488 979.646 958.225C978.141 959.113 976.635 960.039 974.975 960.888C974.096 961.345 973.194 961.757 972.273 962.124L970.652 962.625C970.279 962.651 969.905 962.651 969.532 962.625C969.09 962.62 968.654 962.514 968.258 962.317C967.926 962.112 967.657 961.82 967.48 961.473C967.303 961.126 967.225 960.737 967.255 960.348C967.18 959.733 967.18 959.11 967.255 958.495C967.543 957.277 967.943 956.088 968.451 954.944C969.479 952.438 970.928 950.127 972.736 948.111C973.309 947.513 973.958 946.994 974.666 946.567C975.322 946.235 976.056 946.089 976.789 946.142C977.489 946.192 978.185 946.282 978.874 946.412C981.132 946.772 983.223 947.824 984.857 949.423C984.996 949.584 985.072 949.79 985.072 950.002C985.072 950.215 984.996 950.42 984.857 950.581C984.624 950.813 984.329 950.974 984.008 951.045C983.585 951.102 983.157 951.102 982.734 951.045C981.44 950.982 980.151 950.84 978.874 950.62C976.326 950.195 973.856 949.694 971.385 949.192L964.05 947.763C962.854 947.532 961.619 947.339 960.422 947.184C959.86 947.086 959.293 947.022 958.723 946.991C958.275 946.93 957.821 946.93 957.372 946.991C955.775 947.625 954.269 948.469 952.894 949.501C951.766 950.11 950.509 950.441 949.227 950.466C948.677 950.491 948.127 950.412 947.606 950.234C947.027 949.964 946.95 949.655 946.911 949.462C946.849 949.13 946.849 948.79 946.911 948.458C947.143 947.918 947.143 947.223 946.911 947.184C945.963 947.054 945.002 947.054 944.054 947.184C941.98 947.499 939.948 948.043 937.994 948.806C937.067 949.153 936.102 949.539 934.983 949.887C933.648 950.305 932.246 950.462 930.852 950.35C928.446 949.968 926.115 949.212 923.942 948.111C923.005 947.659 922.038 947.272 921.047 946.953C920.584 946.953 920.159 946.76 920.082 946.953C919.61 947.064 919.146 947.206 918.692 947.377C916.839 948.072 915.064 948.883 913.326 949.694C910.116 951.215 907.064 953.051 904.216 955.175C903.019 956.179 901.9 957.298 902.093 958.341C902.286 959.383 904.641 959.962 907.15 960.155C912.198 960.58 917.273 960.58 922.321 960.155C924.73 959.947 927.127 959.612 929.501 959.151C930.563 958.947 931.608 958.663 932.628 958.302C933.516 957.955 934.288 957.491 933.94 957.067C933.157 956.488 932.241 956.116 931.277 955.986C930.157 955.716 928.883 955.561 927.648 955.33C925.177 954.944 922.707 954.557 920.159 954.287C910.084 953.168 899.815 953.168 889.624 952.936C899.777 952.936 910.084 952.936 920.314 953.979C922.861 954.21 925.409 954.558 928.034 954.944L931.894 955.638C933.088 955.794 934.219 956.26 935.176 956.99C935.755 957.839 934.558 958.456 933.632 958.804C932.543 959.217 931.419 959.527 930.273 959.73C927.839 960.236 925.377 960.597 922.9 960.811C917.68 961.353 912.422 961.43 907.189 961.043C905.888 960.939 904.597 960.733 903.328 960.425C902.016 960.039 901.012 959.306 900.896 958.611C900.665 957.183 901.939 956.024 903.135 954.944C906.015 952.711 909.135 950.807 912.439 949.269C914.176 948.42 915.951 947.609 917.92 946.876C918.473 946.656 919.041 946.475 919.619 946.335C920.497 946.188 921.397 946.255 922.244 946.528C923.35 946.871 924.433 947.284 925.486 947.763C927.358 948.73 929.361 949.419 931.431 949.809C933.265 949.679 935.059 949.208 936.72 948.42C938.836 947.551 941.054 946.954 943.321 946.644C944.796 946.317 946.324 946.317 947.799 946.644C948.802 946.991 948.957 947.532 948.957 947.879C948.934 948.208 948.869 948.532 948.764 948.844C948.713 949.112 948.713 949.387 948.764 949.655C948.764 949.655 948.764 949.655 948.995 949.655C949.888 949.631 950.762 949.393 951.543 948.96C953.056 947.843 954.719 946.946 956.484 946.297C957.205 946.127 957.946 946.062 958.685 946.103C959.37 946.124 960.054 946.189 960.731 946.297L964.591 946.953L971.925 948.42L979.26 949.809C980.433 950.025 981.62 950.154 982.811 950.195C983.661 950.195 984.008 949.887 983.622 949.385C982.28 948.049 980.551 947.171 978.681 946.876C978.134 946.758 977.579 946.681 977.021 946.644C976.66 946.636 976.302 946.715 975.979 946.876C975.325 947.254 974.727 947.722 974.203 948.265C972.379 950.22 970.893 952.464 969.802 954.905C969.288 956.037 968.875 957.213 968.567 958.418C968.429 958.999 968.364 959.596 968.374 960.193C968.335 960.503 968.374 960.817 968.489 961.108C968.604 961.398 968.79 961.654 969.03 961.854C969.493 962.162 970.883 961.853 971.694 961.429C972.595 961.104 973.472 960.717 974.319 960.271C975.979 959.422 977.523 958.534 979.028 957.646C982.001 955.831 984.78 953.785 987.637 952.126C989.027 951.199 990.455 950.273 991.922 949.385C993.476 948.325 995.18 947.505 996.979 946.953C998.255 946.795 999.543 947.141 1000.57 947.918C1001.23 948.497 1001.46 949.23 1002.23 949.578C1002.7 949.71 1003.19 949.71 1003.66 949.578C1004.13 949.44 1004.59 949.273 1005.05 949.076L1007.67 947.995C1009.54 947.077 1011.53 946.427 1013.58 946.065C1014.89 945.924 1016.22 946.124 1017.44 946.644C1018.41 947.074 1019.36 947.577 1020.26 948.149C1021.13 948.73 1022.09 949.148 1023.11 949.385C1024.29 949.5 1025.48 949.5 1026.66 949.385C1029.12 949.268 1031.5 948.517 1033.58 947.204C1035.66 945.891 1037.36 944.062 1038.52 941.896C1039.71 939.8 1040.48 937.493 1040.79 935.102C1041.19 932.683 1040.82 930.202 1039.75 927.999C1039.38 927.346 1038.85 926.801 1038.21 926.416H1037.97H1037.7C1037.44 926.58 1037.2 926.789 1037.01 927.034C1036.25 928.007 1035.64 929.087 1035.2 930.238C1033.4 934.674 1032.11 939.296 1031.34 944.019C1030.87 946.359 1030.61 948.736 1030.56 951.122C1030.55 952.352 1030.74 953.577 1031.1 954.751C1031.31 955.431 1031.77 956.009 1032.38 956.372C1032.83 956.519 1033.32 956.519 1033.77 956.372H1035.54C1039.89 955.727 1044.19 954.76 1048.4 953.477C1052.26 952.319 1056.12 951.045 1059.98 949.616L1059.94 950.002Z" fill="#263238"/>
<path d="M1212.65 1145.95H458.894C491.359 1107.93 509.271 1069.86 522.936 1031.84C536.138 995.129 545.403 958.495 559.995 921.745C561.925 916.92 563.855 912.056 566.094 907.23H1111.36C1144.33 986.791 1146.83 1066.39 1212.65 1145.95Z" fill="white"/>
<path d="M1215.47 1145.95C1148.96 1066.39 1146.26 986.791 1112.9 907.23H1109.85C1134.87 968.261 1142.01 1029.29 1173.39 1090.32C1176.75 1096.89 1180.38 1103.45 1184.4 1110.01L1186.87 1113.87C1188.37 1116.26 1189.92 1118.7 1191.54 1121.09L1193.89 1124.56C1194.7 1125.8 1195.55 1127 1196.44 1128.23C1197.33 1129.47 1198.14 1130.66 1199.06 1131.86C1202.19 1136.15 1205.51 1140.47 1209.02 1144.79H1211.73L1209.83 1145.8L1209.02 1144.79L461.442 1145.29L460.824 1145.99C460.361 1145.8 459.975 1145.53 459.512 1145.29H461.442C466.306 1139.71 470.822 1134.09 474.992 1128.42C479.585 1122.33 483.716 1116.23 487.538 1110.13C502.57 1085.63 514.463 1059.34 522.936 1031.88C527.569 1017.67 531.699 1003.47 535.868 989.416C543.087 966.872 550.614 944.444 559.995 921.938C562.002 917.113 564.087 912.249 566.326 907.424H565.361C553.267 933.983 542.749 961.233 533.861 989.03C517.918 1041.38 503.519 1093.76 456.964 1146.14L456.308 1146.88H458.238L1213.58 1147.22H1216.4L1215.47 1145.95Z" fill="#263238"/>
<path d="M486.186 1110.09H1186.21C1190.07 1116.19 1193.93 1122.29 1198.45 1128.42H473.486C478.144 1122.3 482.378 1116.19 486.186 1110.09Z" fill="#263238"/>
<path d="M1186.21 1110.05H804.042C815.121 1103.49 825.852 1096.92 836.391 1090.36H1175.36C1178.66 1096.9 1182.27 1103.46 1186.21 1110.05Z" fill="#263238"/>
<path d="M1201.19 1132.02H802.459L819.29 1124.76H1195.86C1197.56 1127.18 1199.33 1129.6 1201.19 1132.02Z" fill="#407BFF"/>
<path d="M1193.43 1121.28H984.973L998.947 1114.03H1188.68C1190.22 1116.42 1191.81 1118.85 1193.43 1121.28Z" fill="#407BFF"/>
<path d="M760.575 1090.36C758.992 1090.36 757.603 1090.79 757.525 1091.4C757.062 1095.07 756.56 1098.74 755.981 1102.44C755.981 1102.98 757.217 1103.45 758.799 1103.45C760.382 1103.45 761.772 1102.98 761.849 1102.41C762.351 1098.74 762.814 1095.07 763.277 1091.4C763.316 1090.79 762.119 1090.36 760.575 1090.36Z" fill="#263238"/>
<path d="M745.095 1090.36C743.59 1090.36 742.239 1090.82 742.162 1091.4C741.737 1093.99 741.351 1096.58 740.888 1099.12L725.678 1090.82H725.447C724.788 1090.55 724.077 1090.41 723.362 1090.44C721.856 1090.44 720.467 1090.9 720.351 1091.48C719.695 1095.11 719 1098.7 718.228 1102.37C718.228 1102.87 719.309 1103.37 720.93 1103.37C722.551 1103.37 723.864 1102.87 723.941 1102.37C724.481 1099.78 724.945 1097.19 725.408 1094.65L740.849 1102.98C742.085 1103.44 743.428 1103.52 744.709 1103.22C745.52 1103.02 745.983 1102.68 745.983 1102.37C746.562 1098.7 747.141 1095.11 747.682 1091.48C747.836 1090.82 746.678 1090.36 745.095 1090.36Z" fill="#263238"/>
<path d="M707.535 1101.9L697.382 1091.02L697.151 1090.83H696.919C696.804 1090.81 696.687 1090.81 696.572 1090.83H696.109H693.522H693.059C692.944 1090.8 692.826 1090.8 692.711 1090.83H692.403C692.403 1090.83 692.403 1090.82 692.171 1091.02C687.024 1094.65 681.877 1098.28 676.73 1101.9C675.996 1102.41 676.537 1103.02 677.965 1103.26C679.281 1103.48 680.635 1103.28 681.826 1102.68C686.033 1099.82 690.164 1096.92 694.217 1094.03C696.919 1096.92 699.66 1099.82 702.401 1102.68C703.483 1103.31 704.769 1103.51 705.991 1103.22C707.226 1103.02 708.075 1102.41 707.535 1101.9Z" fill="#263238"/>
<path d="M667.388 1092.37C663.493 1090.96 659.369 1090.29 655.228 1090.4C650.841 1090.37 646.476 1091.03 642.296 1092.37C638.706 1093.6 636.158 1095.26 635.541 1097.08C634.923 1098.89 636.429 1100.59 639.401 1101.87C643.208 1103.3 647.262 1103.97 651.329 1103.83C655.925 1103.9 660.501 1103.22 664.879 1101.83C668.469 1100.59 670.901 1098.93 671.403 1097.08C671.905 1095.23 670.36 1093.6 667.388 1092.37ZM665.303 1097.08C664.956 1098.39 663.219 1099.55 660.787 1100.36C657.908 1101.29 654.896 1101.75 651.87 1101.71C649.233 1101.76 646.612 1101.3 644.149 1100.36C642.258 1099.55 641.254 1098.39 641.64 1097.08C642.139 1096.26 642.8 1095.55 643.583 1094.99C644.366 1094.43 645.255 1094.04 646.195 1093.84C648.979 1092.96 651.883 1092.51 654.803 1092.52C657.539 1092.45 660.265 1092.89 662.833 1093.84C664.609 1094.65 665.689 1095.84 665.303 1097.08Z" fill="#263238"/>
<path d="M626.855 1090.4C625.311 1090.4 623.805 1090.83 623.612 1091.4C622.416 1095.07 621.142 1098.78 619.752 1102.44C619.752 1103.02 620.756 1103.49 622.3 1103.49C623.844 1103.49 625.388 1103.02 625.62 1102.44C626.932 1098.78 628.167 1095.07 629.48 1091.4C629.596 1090.83 628.438 1090.4 626.855 1090.4Z" fill="#263238"/>
<path d="M597.015 1090.4C592.79 1090.36 588.577 1090.84 584.469 1091.83C583.079 1092.21 582.616 1092.87 583.35 1093.33C584.672 1093.73 586.081 1093.73 587.403 1093.33C590.272 1092.64 593.215 1092.31 596.166 1092.33C599.166 1092.26 602.157 1092.7 605.006 1093.64C607.052 1094.49 608.094 1095.65 607.631 1096.92C607.167 1098.2 605.237 1099.32 602.535 1100.17C599.292 1101.07 595.941 1101.52 592.576 1101.52C589.848 1101.6 587.125 1101.25 584.508 1100.48C583.084 1100.17 581.605 1100.25 580.223 1100.71C579.103 1101.17 578.987 1101.83 580.223 1102.17C583.99 1103.23 587.892 1103.73 591.804 1103.64C602.381 1103.64 612.263 1100.63 613.691 1096.92C615.12 1093.22 607.283 1090.4 597.015 1090.4Z" fill="#263238"/>
<path d="M571.614 1090.4H554.552C553.046 1090.4 551.502 1090.86 551.271 1091.4C551.039 1091.94 552.159 1092.45 553.664 1092.45H567.677C567.214 1093.6 566.712 1094.76 566.21 1095.88H554.089C552.545 1095.88 551 1096.38 550.73 1096.96C550.46 1097.54 551.58 1097.97 553.124 1097.97H565.322C564.782 1099.12 564.28 1100.24 563.778 1101.4H549.534C547.989 1101.4 546.407 1101.87 546.137 1102.44C545.866 1103.02 546.986 1103.49 548.491 1103.49H565.747C567.407 1103.49 568.874 1103.02 569.144 1102.44C570.804 1098.78 572.348 1095.07 573.853 1091.4C574.239 1090.86 573.197 1090.4 571.614 1090.4Z" fill="#263238"/>
<path d="M586.863 1002.46H1088.16L1091.75 1017.9H582.886C584.238 1012.58 585.434 1007.44 586.863 1002.46Z" fill="white"/>
<path d="M582.886 1017.9H1091.75C1092.98 1023.04 1094.22 1028.17 1095.61 1033.35H578.872C580.184 1027.98 581.574 1022.85 582.886 1017.9Z" fill="#407BFF"/>
<path d="M590.839 987.023L1084.57 986.83L1088.16 1002.27H586.863C588.175 997.176 589.488 992.041 590.839 987.023Z" fill="#DBDBDB"/>
<path d="M594.892 971.581L1080.82 971.35C1082.1 976.484 1083.33 981.657 1084.68 986.791L590.839 987.022C592.151 981.875 593.502 976.728 594.892 971.581Z" fill="white"/>
<path d="M599.254 956.139L1076.89 955.869C1078.24 961.042 1079.55 966.176 1080.75 971.31L594.892 971.581C596.32 966.369 597.748 961.235 599.254 956.139Z" fill="#DBDBDB"/>
<path d="M603.886 940.7L1072.56 940.43C1074.07 945.564 1075.5 950.698 1076.89 955.871L599.254 956.141C600.875 950.968 602.304 945.834 603.886 940.7Z" fill="white"/>
<path d="M609.02 925.259L1067.97 924.988C1069.63 930.122 1071.21 935.295 1072.72 940.429L603.886 940.7C605.546 935.565 607.245 930.393 609.02 925.259Z" fill="#DBDBDB"/>
<path d="M614.618 909.816L928.266 909.623C928.961 914.757 929.617 919.891 930.273 925.064L609.021 925.257C610.796 920.123 612.688 914.989 614.618 909.816Z" fill="#407BFF"/>
<path d="M930.273 925.258H1067.81C1079.4 961.274 1086.27 997.252 1095.49 1033.35H940.58C937.144 997.059 934.596 961.043 930.273 925.258Z" fill="#C7C7C7"/>
<path d="M1088.16 1002.12L837.511 1002.46H586.863L837.511 1002.19L1088.16 1002.12Z" fill="#263238"/>
<path d="M1084.57 986.714L837.51 986.985H590.646L837.51 986.676L1084.57 986.714Z" fill="#263238"/>
<path d="M1080.82 971.273L837.858 971.582H594.892L837.858 971.273H1080.82Z" fill="#263238"/>
<path d="M1076.89 955.832L838.051 956.179H599.254L838.051 955.871L1076.89 955.832Z" fill="#263238"/>
<path d="M1072.56 940.429L838.244 940.738H603.886L838.244 940.391L1072.56 940.429Z" fill="#263238"/>
<path d="M1067.97 924.988L838.591 925.336H609.175L838.591 925.027L1067.97 924.988Z" fill="#263238"/>
<path d="M1066.15 1025.28C1049.83 1025.63 1033.46 1025.63 1017.09 1025.7C1000.72 1025.78 984.355 1025.7 967.911 1025.32C984.24 1024.97 1000.61 1024.97 1016.97 1024.89C1033.34 1024.82 1049.71 1024.97 1066.15 1025.28Z" fill="#263238"/>
<path d="M1062.91 1009.84C1050.75 1010.18 1038.55 1010.22 1026.36 1010.26C1014.16 1010.3 1001.96 1010.26 989.721 1009.88C1001.84 1009.57 1014.04 1009.53 1026.24 1009.49C1038.44 1009.45 1050.64 1009.53 1062.91 1009.84Z" fill="#263238"/>
<path d="M1059.71 994.435C1043.88 994.744 1028.02 994.782 1012.11 994.821C996.207 994.86 980.341 994.821 964.398 994.474C980.264 994.126 996.129 994.126 1012 994.049C1027.86 993.972 1043.77 994.126 1059.71 994.435Z" fill="#263238"/>
<path d="M1056.39 978.993C1043.57 979.341 1030.72 979.341 1017.79 979.418C1004.85 979.495 992.037 979.418 979.183 979.032C991.999 978.723 1004.89 978.684 1017.79 978.646C1030.68 978.607 1043.53 978.685 1056.39 978.993Z" fill="#263238"/>
<path d="M1053.07 963.59C1037.63 963.899 1022.38 963.938 1007.02 963.976C991.651 964.015 976.133 963.976 960.692 963.629C976.133 963.282 991.574 963.243 1006.78 963.204C1021.99 963.166 1037.63 963.243 1053.07 963.59Z" fill="#263238"/>
<path d="M1049.44 948.15C1034.38 948.497 1019.29 948.497 1004.16 948.574C989.026 948.651 973.933 948.574 958.762 948.188C973.817 947.879 988.911 947.841 1004 947.802C1019.1 947.764 1034.23 947.841 1049.44 948.15Z" fill="#263238"/>
<path d="M1045.43 932.709C1036.51 933.018 1027.51 933.095 1018.4 933.133C1009.29 933.172 1000.41 933.133 991.381 932.747C1000.3 932.439 1009.29 932.361 1018.4 932.361C1027.51 932.361 1036.35 932.439 1045.43 932.709Z" fill="#263238"/>
<path d="M903.946 1025.32C891.67 1025.66 879.356 1025.66 867.042 1025.74C854.727 1025.82 842.413 1025.74 830.137 1025.35C842.452 1025.01 854.727 1025.01 867.042 1024.93C879.356 1024.85 891.632 1025.01 903.946 1025.32Z" fill="#263238"/>
<path d="M903.135 1009.91C891.014 1010.22 878.893 1010.26 866.771 1010.3C854.65 1010.34 842.529 1010.3 830.407 1009.91C842.529 1009.61 854.65 1009.57 866.771 1009.53C878.893 1009.49 891.014 1009.61 903.135 1009.91Z" fill="#263238"/>
<path d="M902.325 994.474C890.396 994.821 878.468 994.821 866.54 994.898C854.611 994.976 842.645 994.898 830.716 994.512C842.645 994.204 854.573 994.165 866.501 994.126C878.429 994.088 890.396 994.165 902.325 994.474Z" fill="#263238"/>
<path d="M901.514 979.07C889.933 979.379 878.005 979.417 866.27 979.456C854.534 979.494 842.76 979.456 830.987 979.108C842.567 978.761 854.496 978.761 866.27 978.684C878.043 978.607 889.74 978.761 901.514 979.07Z" fill="#263238"/>
<path d="M900.665 963.63C889.084 963.977 877.503 964.016 865.922 964.055C854.341 964.093 842.761 964.055 831.18 963.669C842.761 963.36 854.341 963.321 865.922 963.283C877.503 963.244 889.084 963.321 900.665 963.63Z" fill="#263238"/>
<path d="M899.738 948.42C888.389 948.768 877.04 948.768 865.652 948.845C854.264 948.922 842.953 948.845 831.604 948.459C842.953 948.111 854.303 948.111 865.652 948.034C877.001 947.957 888.35 947.918 899.738 948.42Z" fill="#263238"/>
<path d="M898.696 932.979C887.578 933.288 876.422 933.327 865.304 933.365C854.187 933.404 843.031 933.365 831.913 933.018C843.031 932.67 854.148 932.632 865.304 932.593C876.461 932.555 887.54 932.477 898.696 932.979Z" fill="#263238"/>
<path d="M797.286 1025.35C784.933 1025.66 772.619 1025.7 760.343 1025.74C748.068 1025.78 735.715 1025.74 723.439 1025.39C735.792 1025.05 748.106 1025.01 760.382 1024.97C772.658 1024.93 784.972 1025.05 797.286 1025.35Z" fill="#263238"/>
<path d="M779.452 932.978C775.862 933.287 772.31 933.364 768.759 933.402C765.207 933.441 761.656 933.403 758.143 933.017C761.733 932.708 765.285 932.63 768.836 932.592C772.387 932.553 775.939 932.592 779.452 932.978Z" fill="#263238"/>
<path d="M778.062 948.42C774.434 948.729 770.805 948.768 767.176 948.806C763.548 948.845 759.919 948.806 756.329 948.42C759.996 948.111 763.625 948.034 767.253 948.034C770.882 948.034 774.588 947.996 778.062 948.42Z" fill="#263238"/>
<path d="M776.788 963.862C772.928 964.17 769.377 964.248 765.671 964.248C761.965 964.248 758.298 964.248 754.63 963.862C758.491 963.553 762.081 963.476 765.748 963.476C769.415 963.476 773.121 963.398 776.788 963.862Z" fill="#263238"/>
<path d="M775.592 979.301C771.731 979.61 768.064 979.687 764.32 979.726C760.575 979.765 756.599 979.726 753.086 979.34C756.946 979.031 760.614 978.954 764.358 978.915C768.103 978.877 771.886 978.8 775.592 979.301Z" fill="#263238"/>
<path d="M774.588 994.743C770.728 995.052 766.867 995.091 763.007 995.129C759.147 995.168 755.287 995.129 751.426 994.743C755.287 994.434 759.147 994.357 763.007 994.357C766.867 994.357 770.728 994.241 774.588 994.743Z" fill="#263238"/>
<path d="M773.314 1009.95C769.454 1010.26 765.593 1010.34 761.733 1010.34C757.873 1010.34 754.013 1010.34 750.152 1009.95C754.013 1009.64 757.873 1009.57 761.733 1009.57C765.593 1009.57 769.454 1009.64 773.314 1009.95Z" fill="#263238"/>
<path d="M774.588 917.538C768.411 917.847 762.274 917.924 756.097 917.963C749.921 918.002 743.821 917.963 737.722 917.577C743.937 917.268 750.075 917.191 756.213 917.152C762.351 917.114 768.643 917.152 774.588 917.538Z" fill="#263238"/>
<path d="M690.588 1025.39C678.235 1025.7 665.921 1025.74 653.607 1025.78C641.292 1025.82 629.017 1025.78 616.78 1025.39C629.132 1025.08 641.447 1025.05 653.761 1025.01C666.075 1024.97 678.351 1025.08 690.588 1025.39Z" fill="#263238"/>
<path d="M692.982 1010.18C680.783 1010.49 668.662 1010.53 656.541 1010.57C644.419 1010.61 632.298 1010.57 620.254 1010.18C632.452 1009.87 644.574 1009.84 656.695 1009.8C668.816 1009.76 680.899 1009.64 692.982 1010.18Z" fill="#263238"/>
<path d="M695.298 994.742C683.331 995.09 671.364 995.09 659.436 995.167C647.507 995.244 635.541 995.167 623.689 994.781C635.695 994.472 647.623 994.433 659.59 994.395C671.557 994.356 683.447 994.24 695.298 994.742Z" fill="#263238"/>
<path d="M697.691 979.301C685.879 979.649 674.105 979.649 662.331 979.726C650.557 979.803 638.86 979.726 627.164 979.34C638.976 978.992 650.75 978.992 662.485 978.915C674.221 978.838 685.994 978.838 697.691 979.301Z" fill="#263238"/>
<path d="M700.162 963.861C688.581 964.17 677 964.209 665.419 964.247C653.838 964.286 642.258 964.247 630.677 963.9C642.258 963.553 653.838 963.553 665.419 963.475C677 963.398 688.658 963.437 700.162 963.861Z" fill="#263238"/>
<path d="M702.825 948.419C691.245 948.728 680.011 948.767 668.662 948.805C657.313 948.844 645.963 948.805 634.691 948.458C646.272 948.111 657.467 948.072 668.816 948.033C680.166 947.995 691.515 948.033 702.825 948.419Z" fill="#263238"/>
<path d="M705.682 932.979C694.487 933.326 683.331 933.365 672.175 933.404C661.019 933.442 649.94 933.404 638.899 933.018C650.094 932.709 661.25 932.67 672.368 932.632C683.485 932.593 694.603 932.593 705.682 932.979Z" fill="#263238"/>
<path d="M708.963 917.537C698 917.885 687.114 917.923 676.228 917.962C665.342 918 654.456 917.962 643.686 917.576C654.649 917.267 665.535 917.228 676.421 917.19C687.307 917.151 698 917.19 708.963 917.537Z" fill="#263238"/>
<path d="M1116.88 1098.62C1100.36 1098.93 1083.76 1099.09 1067.16 1099.24C1050.56 1099.4 1033.84 1099.24 1017.21 1099.24C1000.57 1099.24 983.854 1099.24 967.023 1099.24L942.124 1098.97L917.109 1098.62C925.409 1098.43 933.709 1098.35 942.008 1098.24L966.945 1098.01C983.545 1098.01 1000.18 1098.01 1016.78 1097.81C1033.38 1097.62 1050.06 1097.81 1066.73 1098.01C1083.41 1098.2 1100.13 1098.31 1116.88 1098.62Z" fill="white"/>
<path d="M1120.35 1106.23C1101.36 1106.57 1082.25 1106.69 1063.14 1106.85C1044.04 1107 1024.85 1106.85 1005.7 1106.85C986.556 1106.85 967.332 1106.85 948.146 1106.85L919.348 1106.69L890.589 1106.3C900.163 1106.11 909.698 1106.03 919.271 1105.92L947.915 1105.69C967.216 1105.69 986.131 1105.69 1005.24 1105.49C1024.35 1105.3 1043.53 1105.49 1062.68 1105.69C1081.83 1105.88 1101.05 1105.92 1120.35 1106.23Z" fill="white"/>
<path d="M1102.94 1060.37C1088.35 1060.6 1073.68 1060.72 1059.01 1060.79C1044.34 1060.87 1029.64 1060.79 1014.97 1060.79C1000.3 1060.79 985.552 1060.79 970.844 1060.79C956.137 1060.79 941.429 1060.6 926.721 1060.37C941.39 1060.1 956.06 1059.98 970.729 1059.91C985.398 1059.83 1000.07 1059.91 1014.74 1059.91H1058.78C1073.49 1059.87 1088.2 1059.94 1102.94 1060.37Z" fill="#263238"/>
<path d="M1101.01 1053.61C1091.94 1053.88 1082.83 1054 1073.72 1054.08C1064.61 1054.15 1055.46 1054.08 1046.31 1054.08C1037.16 1054.08 1028.02 1054.08 1018.83 1054.08C1009.64 1054.08 1000.53 1053.88 991.343 1053.65C1000.41 1053.42 1009.56 1053.3 1018.67 1053.19C1027.78 1053.07 1036.93 1053.19 1046.04 1053.19C1055.15 1053.19 1064.34 1053.19 1073.49 1053.19C1082.64 1053.19 1091.83 1053.38 1101.01 1053.61Z" fill="#263238"/>
<path d="M1099.2 1047.05C1086.61 1047.28 1074.03 1047.4 1061.41 1047.51H1023.5C1010.88 1047.51 998.214 1047.51 985.552 1047.51C972.89 1047.51 960.267 1047.32 947.606 1047.09C960.19 1046.86 972.813 1046.74 985.436 1046.62H1023.31C1035.93 1046.62 1048.55 1046.62 1061.18 1046.62C1073.8 1046.62 1086.5 1046.82 1099.2 1047.05Z" fill="#263238"/>
</svg>
