<svg width="20" height="20" viewBox="0 0 20 20" fill="none" xmlns="http://www.w3.org/2000/svg">
<path d="M17.6302 2H5.34291C3.79174 2 2.98025 2.8114 2.98025 4.38304V8.47661C3.21724 8.44006 3.45422 8.41813 3.6912 8.41813C3.93537 8.41813 4.17235 8.44006 4.40934 8.48392V4.51462C4.40934 3.80556 4.77558 3.45468 5.43627 3.45468H17.5368C18.1975 3.45468 18.5637 3.80556 18.5637 4.51462V13.1477C18.5637 13.8567 18.1975 14.2076 17.5368 14.2076H8.28725C8.20108 14.7266 8.00718 15.2237 7.74147 15.6623H17.6302C19.1885 15.6623 20 14.8436 20 13.2792V4.38304C20 2.81871 19.1885 2 17.6302 2ZM3.69838 17C5.70916 17 7.39677 15.2895 7.39677 13.2281C7.39677 11.1667 5.72352 9.46345 3.69838 9.46345C1.67325 9.46345 0 11.1667 0 13.2281C0 15.2968 1.67325 17 3.69838 17ZM3.69838 13.3889C3.05206 13.3889 2.54937 12.848 2.54937 12.1023C2.54937 11.4371 3.05206 10.8743 3.69838 10.8743C4.33752 10.8743 4.84022 11.4371 4.84022 12.1023C4.84022 12.848 4.3447 13.3889 3.69838 13.3889ZM3.69838 16.0424C2.65709 16.0424 1.83842 15.4795 1.63016 14.9898V14.9532C1.85996 14.5 2.62118 13.9956 3.69838 13.9956C4.77558 13.9956 5.5368 14.5 5.76661 14.9532V14.9898C5.54399 15.4868 4.73968 16.0424 3.69838 16.0424Z" fill="#3E4347"/>
<path opacity="0.6" d="M8.90234 11H7.8291L7.83594 10.2617H8.90234C9.19173 10.2617 9.43441 10.1979 9.63037 10.0703C9.82633 9.94043 9.97445 9.75472 10.0747 9.51318C10.175 9.26937 10.2251 8.9777 10.2251 8.63818V8.38184C10.2251 8.11979 10.1966 7.88851 10.1396 7.68799C10.0827 7.48747 9.99837 7.31885 9.88672 7.18213C9.77734 7.04541 9.64176 6.94173 9.47998 6.87109C9.3182 6.80046 9.13249 6.76514 8.92285 6.76514H7.80859V6.02344H8.92285C9.25553 6.02344 9.55859 6.07926 9.83203 6.19092C10.1077 6.30257 10.3459 6.46322 10.5464 6.67285C10.7492 6.88021 10.9041 7.12858 11.0112 7.41797C11.1206 7.70736 11.1753 8.03092 11.1753 8.38867V8.63818C11.1753 8.99365 11.1206 9.31722 11.0112 9.60889C10.9041 9.89827 10.7492 10.1466 10.5464 10.354C10.3459 10.5614 10.1066 10.7209 9.82861 10.8325C9.55062 10.9442 9.24186 11 8.90234 11ZM8.35547 6.02344V11H7.41553V6.02344H8.35547ZM13.4619 11H12.3887L12.3955 10.2617H13.4619C13.7513 10.2617 13.994 10.1979 14.1899 10.0703C14.3859 9.94043 14.534 9.75472 14.6343 9.51318C14.7345 9.26937 14.7847 8.9777 14.7847 8.63818V8.38184C14.7847 8.11979 14.7562 7.88851 14.6992 7.68799C14.6423 7.48747 14.5579 7.31885 14.4463 7.18213C14.3369 7.04541 14.2013 6.94173 14.0396 6.87109C13.8778 6.80046 13.6921 6.76514 13.4824 6.76514H12.3682V6.02344H13.4824C13.8151 6.02344 14.1182 6.07926 14.3916 6.19092C14.6673 6.30257 14.9054 6.46322 15.106 6.67285C15.3088 6.88021 15.4637 7.12858 15.5708 7.41797C15.6802 7.70736 15.7349 8.03092 15.7349 8.38867V8.63818C15.7349 8.99365 15.6802 9.31722 15.5708 9.60889C15.4637 9.89827 15.3088 10.1466 15.106 10.354C14.9054 10.5614 14.6662 10.7209 14.3882 10.8325C14.1102 10.9442 13.8014 11 13.4619 11ZM12.915 6.02344V11H11.9751V6.02344H12.915Z" fill="#3E4347"/>
</svg>
