<svg width="20" height="20" viewBox="0 0 20 20" fill="none" xmlns="http://www.w3.org/2000/svg">
<path d="M17.6302 2H5.34291C3.79174 2 2.98025 2.8114 2.98025 4.38304V8.47661C3.21724 8.44006 3.45422 8.41813 3.6912 8.41813C3.93537 8.41813 4.17235 8.44006 4.40934 8.48392V4.51462C4.40934 3.80556 4.77558 3.45468 5.43627 3.45468H17.5368C18.1975 3.45468 18.5637 3.80556 18.5637 4.51462V13.1477C18.5637 13.8567 18.1975 14.2076 17.5368 14.2076H8.28725C8.20108 14.7266 8.00718 15.2237 7.74147 15.6623H17.6302C19.1885 15.6623 20 14.8436 20 13.2792V4.38304C20 2.81871 19.1885 2 17.6302 2ZM3.69838 17C5.70916 17 7.39677 15.2895 7.39677 13.2281C7.39677 11.1667 5.72352 9.46345 3.69838 9.46345C1.67325 9.46345 0 11.1667 0 13.2281C0 15.2968 1.67325 17 3.69838 17ZM3.69838 13.3889C3.05206 13.3889 2.54937 12.848 2.54937 12.1023C2.54937 11.4371 3.05206 10.8743 3.69838 10.8743C4.33752 10.8743 4.84022 11.4371 4.84022 12.1023C4.84022 12.848 4.3447 13.3889 3.69838 13.3889ZM3.69838 16.0424C2.65709 16.0424 1.83842 15.4795 1.63016 14.9898V14.9532C1.85996 14.5 2.62118 13.9956 3.69838 13.9956C4.77558 13.9956 5.5368 14.5 5.76661 14.9532V14.9898C5.54399 15.4868 4.73968 16.0424 3.69838 16.0424Z" fill="#3E4347"/>
<path opacity="0.6" d="M9.33643 6.77881L7.91797 11H6.92334L8.78271 6.02344H9.41846L9.33643 6.77881ZM10.5225 11L9.09717 6.77881L9.01172 6.02344H9.65088L11.5205 11H10.5225ZM10.4575 9.15088V9.89258H7.78809V9.15088H10.4575ZM13.52 11H12.4468L12.4536 10.2617H13.52C13.8094 10.2617 14.0521 10.1979 14.248 10.0703C14.444 9.94043 14.5921 9.75472 14.6924 9.51318C14.7926 9.26937 14.8428 8.9777 14.8428 8.63818V8.38184C14.8428 8.11979 14.8143 7.88851 14.7573 7.68799C14.7004 7.48747 14.616 7.31885 14.5044 7.18213C14.395 7.04541 14.2594 6.94173 14.0977 6.87109C13.9359 6.80046 13.7502 6.76514 13.5405 6.76514H12.4263V6.02344H13.5405C13.8732 6.02344 14.1763 6.07926 14.4497 6.19092C14.7254 6.30257 14.9635 6.46322 15.1641 6.67285C15.3669 6.88021 15.5218 7.12858 15.6289 7.41797C15.7383 7.70736 15.793 8.03092 15.793 8.38867V8.63818C15.793 8.99365 15.7383 9.31722 15.6289 9.60889C15.5218 9.89827 15.3669 10.1466 15.1641 10.354C14.9635 10.5614 14.7243 10.7209 14.4463 10.8325C14.1683 10.9442 13.8595 11 13.52 11ZM12.9731 6.02344V11H12.0332V6.02344H12.9731Z" fill="#3E4347"/>
</svg>
