<svg width="24" height="24" viewBox="0 0 24 24" fill="none" xmlns="http://www.w3.org/2000/svg">
<g clip-path="url(#clip0_5197_33138)">
<path fill-rule="evenodd" clip-rule="evenodd" d="M6.81 0.219C6.95056 0.0787966 7.14097 4.21785e-05 7.3395 0L16.6605 0C16.859 4.21785e-05 17.0494 0.0787966 17.19 0.219L23.781 6.81C23.9212 6.95056 24 7.14097 24 7.3395V16.6605C24 16.859 23.9212 17.0494 23.781 17.19L17.19 23.781C17.0494 23.9212 16.859 24 16.6605 24H7.3395C7.14097 24 6.95056 23.9212 6.81 23.781L0.219 17.19C0.0787966 17.0494 4.21785e-05 16.859 0 16.6605L0 7.3395C4.21785e-05 7.14097 0.0787966 6.95056 0.219 6.81L6.81 0.219ZM7.65 1.5L1.5 7.65V16.35L7.65 22.5H16.35L22.5 16.35V7.65L16.35 1.5H7.65Z" fill="#6D767D"/>
</g>
<path d="M4.91016 8.17969H6.44629L8.19189 13.6206L9.9375 8.17969H11.4736L8.81494 16H7.56885L4.91016 8.17969ZM3.97559 8.17969H5.56543L5.86084 14.1738V16H3.97559V8.17969ZM10.8184 8.17969H12.4136V16H10.5229V14.1738L10.8184 8.17969ZM17.0327 9.82324L15.126 16H13.1011L15.9746 8.17969H17.2583L17.0327 9.82324ZM18.6118 16L16.6997 9.82324L16.4526 8.17969H17.7524L20.6421 16H18.6118ZM18.5366 13.0835V14.5391H14.5244V13.0835H18.5366Z" fill="#3E4347"/>
<defs>
<clipPath id="clip0_5197_33138">
<rect width="24" height="24" fill="white"/>
</clipPath>
</defs>
</svg>
