<svg width="20" height="20" viewBox="0 0 20 20" fill="none" xmlns="http://www.w3.org/2000/svg">
<path d="M2 8.97858V4.45302C2 3.65053 2.65052 3 3.45301 3H7.97857C8.49318 3 8.98358 3.20403 9.34684 3.56759L14.4324 8.65165C15.1892 9.40843 15.1892 10.6374 14.4324 11.3942L10.3942 15.4324C9.63744 16.1892 8.40842 16.1892 7.65164 15.4324L2.56758 10.3468C2.20411 9.98358 2 9.49319 2 8.97858ZM5.39038 5.4217C4.85548 5.4217 4.42169 5.85458 4.42169 6.39038C4.42169 6.92618 4.85548 7.35906 5.39038 7.35906C5.92618 7.35906 6.35906 6.92618 6.35906 6.39038C6.35906 5.85458 5.92618 5.4217 5.39038 5.4217Z" fill="#3E4347"/>
<path opacity="0.6" d="M16.6806 13.2372C18.4398 11.581 18.4398 8.91861 16.6806 7.26241L12.3517 3.22286C12.0692 2.92818 11.5579 2.92537 11.2418 3.21661C10.9222 3.50785 10.9189 3.98252 11.235 4.2772L15.5303 8.3155C16.6706 9.38734 16.6706 11.1123 15.5303 12.1841L11.7665 15.7215C11.4537 16.0184 11.4537 16.4934 11.7732 16.784C12.0894 17.0746 12.6006 17.0715 12.9135 16.7777L16.6806 13.2372Z" fill="#3E4347"/>
</svg>
