<svg width="20" height="20" viewBox="0 0 20 20" fill="none" xmlns="http://www.w3.org/2000/svg">
<path d="M4.25488 2.61719H10.6379V4.74485H4.25488V2.61719Z" fill="#3E4347"/>
<path d="M5.53223 0.489258H9.36201V1.76585H5.53223V0.489258Z" fill="#3E4347"/>
<path d="M19.1489 17.9361H17.8723H17.0213V6.44677L13.1915 9.85102V17.9361H12.3404V5.5957H2.55319V17.9361H0.851064C0.381277 17.9361 0 18.317 0 18.7872C0 19.257 0.381277 19.6383 0.851064 19.6383H19.1489C19.6187 19.6383 20 19.257 20 18.7872C20 18.317 19.6187 17.9361 19.1489 17.9361ZM14.0426 11.5532H16.1702V12.8297H14.0426V11.5532ZM14.0426 13.6808H16.1702V14.9574H14.0426V13.6808ZM9.3617 7.29783H10.6383V9.42549H9.3617V7.29783ZM9.3617 10.7021H10.6383V12.8297H9.3617V10.7021ZM6.80851 7.29783H8.08511V9.42549H6.80851V7.29783ZM6.80851 10.7021H8.08511V12.8297H6.80851V10.7021ZM4.25532 7.29783H5.53192V9.42549H4.25532V7.29783ZM4.25532 10.7021H5.53192V12.8297H4.25532V10.7021Z" fill="#3E4347"/>
</svg>
