<svg width="20" height="20" viewBox="0 0 20 20" fill="none" xmlns="http://www.w3.org/2000/svg">
<path d="M17.6302 2H5.34291C3.79174 2 2.98025 2.8114 2.98025 4.38304V8.47661C3.21724 8.44006 3.45422 8.41813 3.6912 8.41813C3.93537 8.41813 4.17235 8.44006 4.40934 8.48392V4.51462C4.40934 3.80556 4.77558 3.45468 5.43627 3.45468H17.5368C18.1975 3.45468 18.5637 3.80556 18.5637 4.51462V13.1477C18.5637 13.8567 18.1975 14.2076 17.5368 14.2076H8.28725C8.20108 14.7266 8.00718 15.2237 7.74147 15.6623H17.6302C19.1885 15.6623 20 14.8436 20 13.2792V4.38304C20 2.81871 19.1885 2 17.6302 2ZM3.69838 17C5.70916 17 7.39677 15.2895 7.39677 13.2281C7.39677 11.1667 5.72352 9.46345 3.69838 9.46345C1.67325 9.46345 0 11.1667 0 13.2281C0 15.2968 1.67325 17 3.69838 17ZM3.69838 13.3889C3.05206 13.3889 2.54937 12.848 2.54937 12.1023C2.54937 11.4371 3.05206 10.8743 3.69838 10.8743C4.33752 10.8743 4.84022 11.4371 4.84022 12.1023C4.84022 12.848 4.3447 13.3889 3.69838 13.3889ZM3.69838 16.0424C2.65709 16.0424 1.83842 15.4795 1.63016 14.9898V14.9532C1.85996 14.5 2.62118 13.9956 3.69838 13.9956C4.77558 13.9956 5.5368 14.5 5.76661 14.9532V14.9898C5.54399 15.4868 4.73968 16.0424 3.69838 16.0424Z" fill="#3E4347"/>
<path opacity="0.6" d="M9.35693 6.77881L7.93848 11H6.94385L8.80322 6.02344H9.43896L9.35693 6.77881ZM10.543 11L9.11768 6.77881L9.03223 6.02344H9.67139L11.541 11H10.543ZM10.478 9.15088V9.89258H7.80859V9.15088H10.478ZM14.9043 9.36279H15.8442C15.8192 9.69548 15.7269 9.99056 15.5674 10.248C15.4079 10.5033 15.1857 10.7038 14.9009 10.8496C14.616 10.9954 14.2708 11.0684 13.8652 11.0684C13.5531 11.0684 13.2716 11.0137 13.021 10.9043C12.7726 10.7926 12.5596 10.6343 12.3818 10.4292C12.2064 10.2218 12.0719 9.97347 11.9785 9.68408C11.8851 9.39242 11.8384 9.06543 11.8384 8.70312V8.32373C11.8384 7.96143 11.8862 7.63444 11.9819 7.34277C12.0776 7.05111 12.2144 6.80273 12.3921 6.59766C12.5721 6.3903 12.7874 6.23079 13.0381 6.11914C13.291 6.00749 13.5736 5.95166 13.8857 5.95166C14.2913 5.95166 14.6343 6.02686 14.9146 6.17725C15.1948 6.32536 15.4124 6.5293 15.5674 6.78906C15.7223 7.04883 15.8158 7.34733 15.8477 7.68457H14.9077C14.8895 7.47493 14.8439 7.2972 14.771 7.15137C14.7004 7.00553 14.5933 6.89502 14.4497 6.81982C14.3084 6.74235 14.1204 6.70361 13.8857 6.70361C13.7035 6.70361 13.5428 6.73779 13.4038 6.80615C13.2671 6.87451 13.1532 6.97705 13.062 7.11377C12.9709 7.24821 12.9025 7.41683 12.8569 7.61963C12.8114 7.82015 12.7886 8.05257 12.7886 8.31689V8.70312C12.7886 8.95605 12.8091 9.18278 12.8501 9.3833C12.8911 9.58382 12.9549 9.75358 13.0415 9.89258C13.1281 10.0316 13.2397 10.1375 13.3765 10.2104C13.5132 10.2834 13.6761 10.3198 13.8652 10.3198C14.0954 10.3198 14.2822 10.2834 14.4258 10.2104C14.5716 10.1375 14.6821 10.0304 14.7573 9.88916C14.8348 9.74788 14.8838 9.57243 14.9043 9.36279Z" fill="#3E4347"/>
</svg>
