<svg width="24" height="24" viewBox="0 0 24 24" fill="none" xmlns="http://www.w3.org/2000/svg">
<g clip-path="url(#clip0_7656_33451)">
<path fill-rule="evenodd" clip-rule="evenodd" d="M6.81 0.219C6.95056 0.0787966 7.14097 4.21785e-05 7.3395 0L16.6605 0C16.859 4.21785e-05 17.0494 0.0787966 17.19 0.219L23.781 6.81C23.9212 6.95056 24 7.14097 24 7.3395V16.6605C24 16.859 23.9212 17.0494 23.781 17.19L17.19 23.781C17.0494 23.9212 16.859 24 16.6605 24H7.3395C7.14097 24 6.95056 23.9212 6.81 23.781L0.219 17.19C0.0787966 17.0494 4.21785e-05 16.859 0 16.6605L0 7.3395C4.21785e-05 7.14097 0.0787966 6.95056 0.219 6.81L6.81 0.219ZM7.65 1.5L1.5 7.65V16.35L7.65 22.5H16.35L22.5 16.35V7.65L16.35 1.5H7.65Z" fill="#6D767D"/>
</g>
<path d="M5.42578 8.17969H8.50342C9.10498 8.17969 9.62777 8.26921 10.0718 8.44824C10.5158 8.62728 10.8577 8.89225 11.0977 9.24316C11.3411 9.59408 11.4629 10.0273 11.4629 10.543C11.4629 10.9906 11.3931 11.3647 11.2534 11.6655C11.1138 11.9663 10.9186 12.2152 10.668 12.4121C10.4209 12.6055 10.1326 12.7648 9.80322 12.8901L9.18555 13.2393H6.60205L6.59131 11.7837H8.50342C8.74333 11.7837 8.94206 11.7407 9.09961 11.6548C9.25716 11.5688 9.37533 11.4471 9.4541 11.2896C9.53646 11.1284 9.57764 10.9368 9.57764 10.7148C9.57764 10.4893 9.53646 10.2959 9.4541 10.1348C9.37174 9.97363 9.25 9.8501 9.08887 9.76416C8.93132 9.67822 8.73617 9.63525 8.50342 9.63525H7.31104V16H5.42578V8.17969ZM9.70654 16L7.97705 12.541L9.9751 12.5303L11.7261 15.9194V16H9.70654ZM15.7222 13.3467H13.7778V11.8911H15.7222C15.9871 11.8911 16.202 11.8464 16.3667 11.7568C16.5314 11.6673 16.6514 11.5438 16.7266 11.3862C16.8053 11.2251 16.8447 11.0443 16.8447 10.8438C16.8447 10.6289 16.8053 10.4302 16.7266 10.2476C16.6514 10.0649 16.5314 9.91813 16.3667 9.80713C16.202 9.69255 15.9871 9.63525 15.7222 9.63525H14.4868V16H12.6016V8.17969H15.7222C16.3488 8.17969 16.8877 8.29427 17.3389 8.52344C17.7936 8.7526 18.1427 9.06771 18.3862 9.46875C18.6297 9.86621 18.7515 10.321 18.7515 10.833C18.7515 11.3379 18.6297 11.7783 18.3862 12.1543C18.1427 12.5303 17.7936 12.8239 17.3389 13.0352C16.8877 13.2428 16.3488 13.3467 15.7222 13.3467Z" fill="#3E4347"/>
<defs>
<clipPath id="clip0_7656_33451">
<rect width="24" height="24" fill="white"/>
</clipPath>
</defs>
</svg>
