<svg width="20" height="20" viewBox="0 0 20 20" fill="none" xmlns="http://www.w3.org/2000/svg">
<path d="M9.99517 20C15.4761 20 20 15.4761 20 9.99517C20 4.52392 15.4664 0 9.9855 0C4.51426 0 0 4.52392 0 9.99517C0 15.4761 4.52392 20 9.99517 20ZM12.4988 9.52151C11.4548 9.52151 10.5848 8.58386 10.5848 7.40454C10.5752 6.24456 11.4548 5.33591 12.4988 5.33591C13.5234 5.33591 14.4031 6.22523 14.4031 7.39488C14.4031 8.58386 13.5331 9.52151 12.4988 9.52151ZM6.99855 9.61817C6.09957 9.61817 5.32624 8.80619 5.32624 7.77187C5.31658 6.77622 6.09957 5.9739 6.99855 5.9739C7.89753 5.9739 8.67086 6.75689 8.67086 7.77187C8.67086 8.80619 7.89753 9.61817 6.99855 9.61817ZM4.36926 13.9294C3.73127 13.9294 3.48961 13.6588 3.48961 13.1851C3.48961 11.9091 4.87192 10.3432 6.99855 10.3432C7.8492 10.3432 8.52586 10.5945 9.05752 10.9328C7.9942 11.7641 7.44321 13.2044 7.9362 13.9294H4.36926ZM9.53117 13.9294C8.74819 13.9294 8.46786 13.6878 8.46786 13.2528C8.46786 12.0348 10.0242 10.3528 12.4988 10.3528C14.9541 10.3528 16.5104 12.0348 16.5104 13.2528C16.5104 13.6878 16.2397 13.9294 15.4471 13.9294H9.53117Z" fill="#3E4347"/>
</svg>
