<svg width="24" height="24" viewBox="0 0 24 24" fill="none" xmlns="http://www.w3.org/2000/svg">
<g clip-path="url(#clip0_5186_33134)">
<path fill-rule="evenodd" clip-rule="evenodd" d="M6.81 0.219C6.95056 0.0787966 7.14097 4.21785e-05 7.3395 0L16.6605 0C16.859 4.21785e-05 17.0494 0.0787966 17.19 0.219L23.781 6.81C23.9212 6.95056 24 7.14097 24 7.3395V16.6605C24 16.859 23.9212 17.0494 23.781 17.19L17.19 23.781C17.0494 23.9212 16.859 24 16.6605 24H7.3395C7.14097 24 6.95056 23.9212 6.81 23.781L0.219 17.19C0.0787966 17.0494 4.21785e-05 16.859 0 16.6605L0 7.3395C4.21785e-05 7.14097 0.0787966 6.95056 0.219 6.81L6.81 0.219ZM7.65 1.5L1.5 7.65V16.35L7.65 22.5H16.35L22.5 16.35V7.65L16.35 1.5H7.65Z" fill="#6D767D"/>
</g>
<path d="M7.25244 16H5.51758L5.52832 14.5498H7.25244C7.61051 14.5498 7.91309 14.4639 8.16016 14.292C8.41081 14.1201 8.60059 13.8641 8.72949 13.5239C8.86198 13.1802 8.92822 12.7576 8.92822 12.2563V11.918C8.92822 11.542 8.89062 11.2126 8.81543 10.9297C8.74382 10.6432 8.63639 10.4051 8.49316 10.2153C8.34993 10.022 8.1709 9.87695 7.95605 9.78027C7.74479 9.68359 7.5013 9.63525 7.22559 9.63525H5.48535V8.17969H7.22559C7.75553 8.17969 8.24072 8.271 8.68115 8.45361C9.12516 8.63265 9.5083 8.89046 9.83057 9.22705C10.1564 9.56006 10.4071 9.95573 10.5825 10.4141C10.7616 10.8688 10.8511 11.3737 10.8511 11.9287V12.2563C10.8511 12.8078 10.7616 13.3127 10.5825 13.771C10.4071 14.2293 10.1582 14.625 9.83594 14.958C9.51367 15.291 9.13232 15.5488 8.69189 15.7314C8.25505 15.9105 7.77523 16 7.25244 16ZM6.59717 8.17969V16H4.71191V8.17969H6.59717ZM12.7686 8.17969H14.3047L16.0503 13.6206L17.7959 8.17969H19.332L16.6733 16H15.4272L12.7686 8.17969ZM11.834 8.17969H13.4238L13.7192 14.1738V16H11.834V8.17969ZM18.6768 8.17969H20.272V16H18.3813V14.1738L18.6768 8.17969Z" fill="#3E4347"/>
<defs>
<clipPath id="clip0_5186_33134">
<rect width="24" height="24" fill="white"/>
</clipPath>
</defs>
</svg>
