<svg width="24" height="24" viewBox="0 0 24 24" fill="none" xmlns="http://www.w3.org/2000/svg">
<g clip-path="url(#clip0_5197_33159)">
<path fill-rule="evenodd" clip-rule="evenodd" d="M6.81 0.219C6.95056 0.0787966 7.14097 4.21785e-05 7.3395 0L16.6605 0C16.859 4.21785e-05 17.0494 0.0787966 17.19 0.219L23.781 6.81C23.9212 6.95056 24 7.14097 24 7.3395V16.6605C24 16.859 23.9212 17.0494 23.781 17.19L17.19 23.781C17.0494 23.9212 16.859 24 16.6605 24H7.3395C7.14097 24 6.95056 23.9212 6.81 23.781L0.219 17.19C0.0787966 17.0494 4.21785e-05 16.859 0 16.6605L0 7.3395C4.21785e-05 7.14097 0.0787966 6.95056 0.219 6.81L6.81 0.219ZM7.65 1.5L1.5 7.65V16.35L7.65 22.5H16.35L22.5 16.35V7.65L16.35 1.5H7.65Z" fill="#6D767D"/>
</g>
<path d="M7.96631 16H6.23145L6.24219 14.5498H7.96631C8.32438 14.5498 8.62695 14.4639 8.87402 14.292C9.12467 14.1201 9.31445 13.8641 9.44336 13.5239C9.57585 13.1802 9.64209 12.7576 9.64209 12.2563V11.918C9.64209 11.542 9.60449 11.2126 9.5293 10.9297C9.45768 10.6432 9.35026 10.4051 9.20703 10.2153C9.0638 10.022 8.88477 9.87695 8.66992 9.78027C8.45866 9.68359 8.21517 9.63525 7.93945 9.63525H6.19922V8.17969H7.93945C8.4694 8.17969 8.95459 8.271 9.39502 8.45361C9.83903 8.63265 10.2222 8.89046 10.5444 9.22705C10.8703 9.56006 11.1209 9.95573 11.2964 10.4141C11.4754 10.8688 11.5649 11.3737 11.5649 11.9287V12.2563C11.5649 12.8078 11.4754 13.3127 11.2964 13.771C11.1209 14.2293 10.8721 14.625 10.5498 14.958C10.2275 15.291 9.84619 15.5488 9.40576 15.7314C8.96891 15.9105 8.4891 16 7.96631 16ZM7.31104 8.17969V16H5.42578V8.17969H7.31104ZM16.9951 13.3521H18.875C18.8499 13.8963 18.7031 14.3761 18.4346 14.7915C18.166 15.2069 17.7936 15.5309 17.3174 15.7637C16.8447 15.9928 16.2861 16.1074 15.6416 16.1074C15.1188 16.1074 14.6515 16.0197 14.2397 15.8442C13.8315 15.6688 13.4842 15.4163 13.1978 15.0869C12.9149 14.7575 12.6982 14.3582 12.5479 13.8892C12.401 13.4201 12.3276 12.8919 12.3276 12.3047V11.8804C12.3276 11.2931 12.4046 10.765 12.5586 10.2959C12.7161 9.82324 12.9382 9.4222 13.2246 9.09277C13.5146 8.75977 13.862 8.50553 14.2666 8.33008C14.6712 8.15462 15.1206 8.06689 15.6147 8.06689C16.2951 8.06689 16.8698 8.18864 17.3389 8.43213C17.8079 8.67562 18.1714 9.01042 18.4292 9.43652C18.687 9.85905 18.8392 10.3407 18.8857 10.8813H17.0059C16.9987 10.5877 16.9486 10.3424 16.8555 10.1455C16.7624 9.94499 16.6156 9.7946 16.415 9.69434C16.2145 9.59408 15.9478 9.54395 15.6147 9.54395C15.382 9.54395 15.1797 9.58691 15.0078 9.67285C14.8359 9.75879 14.6927 9.89486 14.5781 10.0811C14.4635 10.2673 14.3776 10.509 14.3203 10.8062C14.2666 11.0998 14.2397 11.4543 14.2397 11.8696V12.3047C14.2397 12.7201 14.2648 13.0745 14.3149 13.3682C14.3651 13.6618 14.4456 13.9017 14.5566 14.0879C14.6676 14.2741 14.8109 14.4119 14.9863 14.5015C15.1654 14.5874 15.3838 14.6304 15.6416 14.6304C15.9281 14.6304 16.1698 14.5856 16.3667 14.4961C16.5636 14.403 16.7158 14.2633 16.8232 14.0771C16.9307 13.8874 16.988 13.6457 16.9951 13.3521Z" fill="#3E4347"/>
<defs>
<clipPath id="clip0_5197_33159">
<rect width="24" height="24" fill="white"/>
</clipPath>
</defs>
</svg>
