<svg width="20" height="20" viewBox="0 0 20 20" fill="none" xmlns="http://www.w3.org/2000/svg">
<path opacity="0.6" d="M10.6667 13.3332H17.3125C17.6364 13.3332 18 13.6474 18 13.9712V16.3931C18 16.717 17.6572 16.9998 17.3333 16.9998C17.0095 16.9998 16.7266 16.717 16.7266 16.3931V14.5572H10.6667V16.3931C10.6667 16.717 10.3239 16.9998 10 16.9998C9.67613 16.9998 9.33333 16.717 9.33333 16.3931V14.5572H3.17188V16.3931C3.17188 16.717 2.9098 16.979 2.58594 16.979C2.26207 16.979 2 16.717 2 16.3931V13.9712C2 13.6474 2.26207 13.3853 2.58594 13.3853L9.33333 13.3332V11.6626H10.6667V13.3332Z" fill="#3E4347"/>
<path d="M9.9971 12C13.2856 12 16 9.28433 16 6C16 2.71567 13.2798 0 9.9913 0C6.70855 0 4 2.71567 4 6C4 9.28433 6.71435 12 9.9971 12ZM9.9913 6.94584C8.85452 6.94004 7.97293 5.98839 7.97293 4.72921C7.96133 3.54545 8.86032 2.55899 9.9913 2.55899C11.1223 2.55899 12.0097 3.54545 12.0097 4.72921C12.0097 5.98839 11.1281 6.95745 9.9913 6.94584ZM9.9913 11.0077C8.69212 11.0077 7.31174 10.4681 6.43596 9.52805C7.10295 8.52998 8.42533 7.94971 9.9913 7.94971C11.5399 7.94971 12.8739 8.51838 13.5466 9.52805C12.6709 10.4681 11.2905 11.0077 9.9913 11.0077Z" fill="#3E4347"/>
<path d="M2.66667 19.6668C3.31146 19.6668 3.83333 19.145 3.83333 18.5002C3.83333 17.8554 3.31146 17.3335 2.66667 17.3335C2.02187 17.3335 1.5 17.8554 1.5 18.5002C1.5 19.145 2.02187 19.6668 2.66667 19.6668Z" fill="#3E4347"/>
<path d="M17.3337 19.6668C17.9785 19.6668 18.5003 19.145 18.5003 18.5002C18.5003 17.8554 17.9785 17.3335 17.3337 17.3335C16.6889 17.3335 16.167 17.8554 16.167 18.5002C16.167 19.145 16.6889 19.6668 17.3337 19.6668Z" fill="#3E4347"/>
<path d="M9.99967 19.6668C10.6445 19.6668 11.1663 19.145 11.1663 18.5002C11.1663 17.8554 10.6445 17.3335 9.99967 17.3335C9.35488 17.3335 8.83301 17.8554 8.83301 18.5002C8.83301 19.145 9.35488 19.6668 9.99967 19.6668Z" fill="#3E4347"/>
</svg>
