<svg width="20" height="20" viewBox="0 0 20 20" fill="none" xmlns="http://www.w3.org/2000/svg">
<path d="M7.22222 3.125C7.22222 2.08945 7.96875 1.25 8.88889 1.25H11.1111C12.0313 1.25 12.7778 2.08945 12.7778 3.125V5.625C12.7778 6.66016 12.0313 7.5 11.1111 7.5H10.8333V9.0625H16.1111C17.184 9.0625 18.0556 10.043 18.0556 11.25V12.5H18.3333C19.2535 12.5 20 13.3398 20 14.375V16.875C20 17.9102 19.2535 18.75 18.3333 18.75H16.1111C15.191 18.75 14.4444 17.9102 14.4444 16.875V14.375C14.4444 13.3398 15.191 12.5 16.1111 12.5H16.3889V11.25C16.3889 11.0781 16.2639 10.9375 16.1111 10.9375H10.8333V12.5H11.1111C12.0313 12.5 12.7778 13.3398 12.7778 14.375V16.875C12.7778 17.9102 12.0313 18.75 11.1111 18.75H8.88889C7.96875 18.75 7.22222 17.9102 7.22222 16.875V14.375C7.22222 13.3398 7.96875 12.5 8.88889 12.5H9.16667V10.9375H3.88889C3.73611 10.9375 3.61111 11.0781 3.61111 11.25V12.5H3.88889C4.80903 12.5 5.55556 13.3398 5.55556 14.375V16.875C5.55556 17.9102 4.80903 18.75 3.88889 18.75H1.66667C0.746181 18.75 0 17.9102 0 16.875V14.375C0 13.3398 0.746181 12.5 1.66667 12.5H1.94444V11.25C1.94444 10.043 2.81493 9.0625 3.88889 9.0625H9.16667V7.5H8.88889C7.96875 7.5 7.22222 6.66016 7.22222 5.625V3.125Z" fill="#3E4347"/>
</svg>
