<svg width="20" height="20" viewBox="0 0 20 20" fill="none" xmlns="http://www.w3.org/2000/svg">
<path d="M17.6302 2H5.34291C3.79174 2 2.98025 2.8114 2.98025 4.38304V8.47661C3.21724 8.44006 3.45422 8.41813 3.6912 8.41813C3.93537 8.41813 4.17235 8.44006 4.40934 8.48392V4.51462C4.40934 3.80556 4.77558 3.45468 5.43627 3.45468H17.5368C18.1975 3.45468 18.5637 3.80556 18.5637 4.51462V13.1477C18.5637 13.8567 18.1975 14.2076 17.5368 14.2076H8.28725C8.20108 14.7266 8.00718 15.2237 7.74147 15.6623H17.6302C19.1885 15.6623 20 14.8436 20 13.2792V4.38304C20 2.81871 19.1885 2 17.6302 2ZM3.69838 17C5.70916 17 7.39677 15.2895 7.39677 13.2281C7.39677 11.1667 5.72352 9.46345 3.69838 9.46345C1.67325 9.46345 0 11.1667 0 13.2281C0 15.2968 1.67325 17 3.69838 17ZM3.69838 13.3889C3.05206 13.3889 2.54937 12.848 2.54937 12.1023C2.54937 11.4371 3.05206 10.8743 3.69838 10.8743C4.33752 10.8743 4.84022 11.4371 4.84022 12.1023C4.84022 12.848 4.3447 13.3889 3.69838 13.3889ZM3.69838 16.0424C2.65709 16.0424 1.83842 15.4795 1.63016 14.9898V14.9532C1.85996 14.5 2.62118 13.9956 3.69838 13.9956C4.77558 13.9956 5.5368 14.5 5.76661 14.9532V14.9898C5.54399 15.4868 4.73968 16.0424 3.69838 16.0424Z" fill="#3E4347"/>
<path opacity="0.6" d="M8.89209 11H7.81885L7.82568 10.2617H8.89209C9.18148 10.2617 9.42415 10.1979 9.62012 10.0703C9.81608 9.94043 9.96419 9.75472 10.0645 9.51318C10.1647 9.26937 10.2148 8.9777 10.2148 8.63818V8.38184C10.2148 8.11979 10.1864 7.88851 10.1294 7.68799C10.0724 7.48747 9.98812 7.31885 9.87646 7.18213C9.76709 7.04541 9.63151 6.94173 9.46973 6.87109C9.30794 6.80046 9.12223 6.76514 8.9126 6.76514H7.79834V6.02344H8.9126C9.24528 6.02344 9.54834 6.07926 9.82178 6.19092C10.0975 6.30257 10.3356 6.46322 10.5361 6.67285C10.7389 6.88021 10.8939 7.12858 11.001 7.41797C11.1104 7.70736 11.165 8.03092 11.165 8.38867V8.63818C11.165 8.99365 11.1104 9.31722 11.001 9.60889C10.8939 9.89827 10.7389 10.1466 10.5361 10.354C10.3356 10.5614 10.0964 10.7209 9.81836 10.8325C9.54036 10.9442 9.23161 11 8.89209 11ZM8.34521 6.02344V11H7.40527V6.02344H8.34521ZM14.877 9.36279H15.8169C15.7918 9.69548 15.6995 9.99056 15.54 10.248C15.3805 10.5033 15.1584 10.7038 14.8735 10.8496C14.5887 10.9954 14.2435 11.0684 13.8379 11.0684C13.5257 11.0684 13.2443 11.0137 12.9937 10.9043C12.7453 10.7926 12.5322 10.6343 12.3545 10.4292C12.179 10.2218 12.0446 9.97347 11.9512 9.68408C11.8577 9.39242 11.811 9.06543 11.811 8.70312V8.32373C11.811 7.96143 11.8589 7.63444 11.9546 7.34277C12.0503 7.05111 12.187 6.80273 12.3647 6.59766C12.5448 6.3903 12.7601 6.23079 13.0107 6.11914C13.2637 6.00749 13.5462 5.95166 13.8584 5.95166C14.264 5.95166 14.6069 6.02686 14.8872 6.17725C15.1675 6.32536 15.3851 6.5293 15.54 6.78906C15.695 7.04883 15.7884 7.34733 15.8203 7.68457H14.8804C14.8621 7.47493 14.8166 7.2972 14.7437 7.15137C14.673 7.00553 14.5659 6.89502 14.4224 6.81982C14.2811 6.74235 14.0931 6.70361 13.8584 6.70361C13.6761 6.70361 13.5155 6.73779 13.3765 6.80615C13.2397 6.87451 13.1258 6.97705 13.0347 7.11377C12.9435 7.24821 12.8752 7.41683 12.8296 7.61963C12.784 7.82015 12.7612 8.05257 12.7612 8.31689V8.70312C12.7612 8.95605 12.7817 9.18278 12.8228 9.3833C12.8638 9.58382 12.9276 9.75358 13.0142 9.89258C13.1007 10.0316 13.2124 10.1375 13.3491 10.2104C13.4858 10.2834 13.6488 10.3198 13.8379 10.3198C14.068 10.3198 14.2549 10.2834 14.3984 10.2104C14.5443 10.1375 14.6548 10.0304 14.73 9.88916C14.8075 9.74788 14.8564 9.57243 14.877 9.36279Z" fill="#3E4347"/>
</svg>
