<svg width="20" height="20" viewBox="0 0 20 20" fill="none" xmlns="http://www.w3.org/2000/svg">
<path d="M17.5392 5.42969H6.29381C4.67561 5.42969 3.84042 6.25743 3.84042 7.86071V10.7242C6.53244 10.7242 8.7472 12.939 8.7472 15.6236C8.7472 16.5855 8.45638 17.4804 7.96421 18.241H17.5392C19.1499 18.241 20 17.4058 20 15.81V7.86071C20 6.26489 19.1499 5.42969 17.5392 5.42969ZM3.84042 19.4714C5.92841 19.4714 7.68829 17.7265 7.68829 15.6236C7.68829 13.5207 5.95078 11.7832 3.84042 11.7832C1.73751 11.7832 0 13.5207 0 15.6236C0 17.7339 1.73751 19.4714 3.84042 19.4714ZM3.84042 15.7876C3.16928 15.7876 2.65474 15.2358 2.65474 14.4752C2.65474 13.7966 3.17673 13.2224 3.84042 13.2224C4.51156 13.2224 5.03356 13.7966 5.03356 14.4752C5.03356 15.2358 4.51156 15.7876 3.84042 15.7876ZM3.84787 18.4946C2.75913 18.4946 1.91648 17.9204 1.69277 17.4207V17.3835C1.93139 16.9211 2.72185 16.4066 3.84042 16.4066C4.96644 16.4066 5.7569 16.9211 5.99553 17.3835V17.4207C5.76436 17.9278 4.92916 18.4946 3.84787 18.4946Z" fill="#3E4347"/>
<path opacity="0.6" d="M16.8231 2.02908H7.02441C7.07661 1.35794 7.47184 1 8.19518 1H15.6523C16.3756 1 16.7709 1.35794 16.8231 2.02908Z" fill="#3E4347"/>
<path opacity="0.6" d="M18.2928 4.19913H5.56348C5.66788 3.49071 6.02582 3.08057 6.82373 3.08057H17.0251C17.823 3.08057 18.1884 3.49071 18.2928 4.19913Z" fill="#3E4347"/>
</svg>
