<svg width="24" height="24" viewBox="0 0 24 24" fill="none" xmlns="http://www.w3.org/2000/svg">
<g clip-path="url(#clip0_11090_21496)">
<path fill-rule="evenodd" clip-rule="evenodd" d="M6.81 0.219C6.95056 0.0787966 7.14097 4.21785e-05 7.3395 0L16.6605 0C16.859 4.21785e-05 17.0494 0.0787966 17.19 0.219L23.781 6.81C23.9212 6.95056 24 7.14097 24 7.3395V16.6605C24 16.859 23.9212 17.0494 23.781 17.19L17.19 23.781C17.0494 23.9212 16.859 24 16.6605 24H7.3395C7.14097 24 6.95056 23.9212 6.81 23.781L0.219 17.19C0.0787966 17.0494 4.21785e-05 16.859 0 16.6605L0 7.3395C4.21785e-05 7.14097 0.0787966 6.95056 0.219 6.81L6.81 0.219ZM7.65 1.5L1.5 7.65V16.35L7.65 22.5H16.35L22.5 16.35V7.65L16.35 1.5H7.65Z" fill="#6D767D"/>
</g>
<path d="M9.34668 8.17969V16H7.4668V8.17969H9.34668ZM10.6733 8.17969H13.751C14.3525 8.17969 14.8753 8.26921 15.3193 8.44824C15.7633 8.62728 16.1053 8.89225 16.3452 9.24316C16.5887 9.59408 16.7104 10.0273 16.7104 10.543C16.7104 10.9906 16.6406 11.3647 16.501 11.6655C16.3613 11.9663 16.1662 12.2152 15.9155 12.4121C15.6685 12.6055 15.3802 12.7648 15.0508 12.8901L14.4331 13.2393H11.8496L11.8389 11.7837H13.751C13.9909 11.7837 14.1896 11.7407 14.3472 11.6548C14.5047 11.5688 14.6229 11.4471 14.7017 11.2896C14.784 11.1284 14.8252 10.9368 14.8252 10.7148C14.8252 10.4893 14.784 10.2959 14.7017 10.1348C14.6193 9.97363 14.4976 9.8501 14.3364 9.76416C14.1789 9.67822 13.9837 9.63525 13.751 9.63525H12.5586V16H10.6733V8.17969ZM14.9541 16L13.2246 12.541L15.2227 12.5303L16.9736 15.9194V16H14.9541Z" fill="#3E4347"/>
<defs>
<clipPath id="clip0_11090_21496">
<rect width="24" height="24" fill="white"/>
</clipPath>
</defs>
</svg>
