<svg width="24" height="24" viewBox="0 0 24 24" fill="none" xmlns="http://www.w3.org/2000/svg">
<g clip-path="url(#clip0_5197_33147)">
<path fill-rule="evenodd" clip-rule="evenodd" d="M6.81 0.219C6.95056 0.0787966 7.14097 4.21785e-05 7.3395 0L16.6605 0C16.859 4.21785e-05 17.0494 0.0787966 17.19 0.219L23.781 6.81C23.9212 6.95056 24 7.14097 24 7.3395V16.6605C24 16.859 23.9212 17.0494 23.781 17.19L17.19 23.781C17.0494 23.9212 16.859 24 16.6605 24H7.3395C7.14097 24 6.95056 23.9212 6.81 23.781L0.219 17.19C0.0787966 17.0494 4.21785e-05 16.859 0 16.6605L0 7.3395C4.21785e-05 7.14097 0.0787966 6.95056 0.219 6.81L6.81 0.219ZM7.65 1.5L1.5 7.65V16.35L7.65 22.5H16.35L22.5 16.35V7.65L16.35 1.5H7.65Z" fill="#6D767D"/>
</g>
<path d="M8.51465 16H6.77979L6.79053 14.5498H8.51465C8.87272 14.5498 9.17529 14.4639 9.42236 14.292C9.67301 14.1201 9.86279 13.8641 9.9917 13.5239C10.1242 13.1802 10.1904 12.7576 10.1904 12.2563V11.918C10.1904 11.542 10.1528 11.2126 10.0776 10.9297C10.006 10.6432 9.8986 10.4051 9.75537 10.2153C9.61214 10.022 9.43311 9.87695 9.21826 9.78027C9.007 9.68359 8.76351 9.63525 8.48779 9.63525H6.74756V8.17969H8.48779C9.01774 8.17969 9.50293 8.271 9.94336 8.45361C10.3874 8.63265 10.7705 8.89046 11.0928 9.22705C11.4186 9.56006 11.6693 9.95573 11.8447 10.4141C12.0238 10.8688 12.1133 11.3737 12.1133 11.9287V12.2563C12.1133 12.8078 12.0238 13.3127 11.8447 13.771C11.6693 14.2293 11.4204 14.625 11.0981 14.958C10.7759 15.291 10.3945 15.5488 9.9541 15.7314C9.51725 15.9105 9.03743 16 8.51465 16ZM7.85938 8.17969V16H5.97412V8.17969H7.85938ZM15.6367 16H13.9019L13.9126 14.5498H15.6367C15.9948 14.5498 16.2974 14.4639 16.5444 14.292C16.7951 14.1201 16.9849 13.8641 17.1138 13.5239C17.2463 13.1802 17.3125 12.7576 17.3125 12.2563V11.918C17.3125 11.542 17.2749 11.2126 17.1997 10.9297C17.1281 10.6432 17.0207 10.4051 16.8774 10.2153C16.7342 10.022 16.5552 9.87695 16.3403 9.78027C16.1291 9.68359 15.8856 9.63525 15.6099 9.63525H13.8696V8.17969H15.6099C16.1398 8.17969 16.625 8.271 17.0654 8.45361C17.5094 8.63265 17.8926 8.89046 18.2148 9.22705C18.5407 9.56006 18.7913 9.95573 18.9668 10.4141C19.1458 10.8688 19.2354 11.3737 19.2354 11.9287V12.2563C19.2354 12.8078 19.1458 13.3127 18.9668 13.771C18.7913 14.2293 18.5425 14.625 18.2202 14.958C17.8979 15.291 17.5166 15.5488 17.0762 15.7314C16.6393 15.9105 16.1595 16 15.6367 16ZM14.9814 8.17969V16H13.0962V8.17969H14.9814Z" fill="#3E4347"/>
<defs>
<clipPath id="clip0_5197_33147">
<rect width="24" height="24" fill="white"/>
</clipPath>
</defs>
</svg>
