<svg width="20" height="20" viewBox="0 0 20 20" fill="none" xmlns="http://www.w3.org/2000/svg">
<path d="M17.6302 2H5.34291C3.79174 2 2.98025 2.8114 2.98025 4.38304V8.47661C3.21724 8.44006 3.45422 8.41813 3.6912 8.41813C3.93537 8.41813 4.17235 8.44006 4.40934 8.48392V4.51462C4.40934 3.80556 4.77558 3.45468 5.43627 3.45468H17.5368C18.1975 3.45468 18.5637 3.80556 18.5637 4.51462V13.1477C18.5637 13.8567 18.1975 14.2076 17.5368 14.2076H8.28725C8.20108 14.7266 8.00718 15.2237 7.74147 15.6623H17.6302C19.1885 15.6623 20 14.8436 20 13.2792V4.38304C20 2.81871 19.1885 2 17.6302 2ZM3.69838 17C5.70916 17 7.39677 15.2895 7.39677 13.2281C7.39677 11.1667 5.72352 9.46345 3.69838 9.46345C1.67325 9.46345 0 11.1667 0 13.2281C0 15.2968 1.67325 17 3.69838 17ZM3.69838 13.3889C3.05206 13.3889 2.54937 12.848 2.54937 12.1023C2.54937 11.4371 3.05206 10.8743 3.69838 10.8743C4.33752 10.8743 4.84022 11.4371 4.84022 12.1023C4.84022 12.848 4.3447 13.3889 3.69838 13.3889ZM3.69838 16.0424C2.65709 16.0424 1.83842 15.4795 1.63016 14.9898V14.9532C1.85996 14.5 2.62118 13.9956 3.69838 13.9956C4.77558 13.9956 5.5368 14.5 5.76661 14.9532V14.9898C5.54399 15.4868 4.73968 16.0424 3.69838 16.0424Z" fill="#3E4347"/>
<path opacity="0.6" d="M8.11963 11H7.04639L7.05322 10.2617H8.11963C8.40902 10.2617 8.65169 10.1979 8.84766 10.0703C9.04362 9.94043 9.19173 9.75472 9.29199 9.51318C9.39225 9.26937 9.44238 8.9777 9.44238 8.63818V8.38184C9.44238 8.11979 9.4139 7.88851 9.35693 7.68799C9.29997 7.48747 9.21566 7.31885 9.104 7.18213C8.99463 7.04541 8.85905 6.94173 8.69727 6.87109C8.53548 6.80046 8.34977 6.76514 8.14014 6.76514H7.02588V6.02344H8.14014C8.47282 6.02344 8.77588 6.07926 9.04932 6.19092C9.32503 6.30257 9.56315 6.46322 9.76367 6.67285C9.96647 6.88021 10.1214 7.12858 10.2285 7.41797C10.3379 7.70736 10.3926 8.03092 10.3926 8.38867V8.63818C10.3926 8.99365 10.3379 9.31722 10.2285 9.60889C10.1214 9.89827 9.96647 10.1466 9.76367 10.354C9.56315 10.5614 9.32389 10.7209 9.0459 10.8325C8.7679 10.9442 8.45915 11 8.11963 11ZM7.57275 6.02344V11H6.63281V6.02344H7.57275ZM11.6025 6.02344H12.416L13.7764 9.76953L15.1333 6.02344H15.9502L14.1011 11H13.4482L11.6025 6.02344ZM11.1924 6.02344H11.9888L12.1323 9.46533V11H11.1924V6.02344ZM15.5605 6.02344H16.3604V11H15.4204V9.46533L15.5605 6.02344Z" fill="#3E4347"/>
</svg>
