<svg width="20" height="20" viewBox="0 0 20 20" fill="none" xmlns="http://www.w3.org/2000/svg">
<path d="M17.6302 2H5.34291C3.79174 2 2.98025 2.8114 2.98025 4.38304V8.47661C3.21724 8.44006 3.45422 8.41813 3.6912 8.41813C3.93537 8.41813 4.17235 8.44006 4.40934 8.48392V4.51462C4.40934 3.80556 4.77558 3.45468 5.43627 3.45468H17.5368C18.1975 3.45468 18.5637 3.80556 18.5637 4.51462V13.1477C18.5637 13.8567 18.1975 14.2076 17.5368 14.2076H8.28725C8.20108 14.7266 8.00718 15.2237 7.74147 15.6623H17.6302C19.1885 15.6623 20 14.8436 20 13.2792V4.38304C20 2.81871 19.1885 2 17.6302 2ZM3.69838 17C5.70916 17 7.39677 15.2895 7.39677 13.2281C7.39677 11.1667 5.72352 9.46345 3.69838 9.46345C1.67325 9.46345 0 11.1667 0 13.2281C0 15.2968 1.67325 17 3.69838 17ZM3.69838 13.3889C3.05206 13.3889 2.54937 12.848 2.54937 12.1023C2.54937 11.4371 3.05206 10.8743 3.69838 10.8743C4.33752 10.8743 4.84022 11.4371 4.84022 12.1023C4.84022 12.848 4.3447 13.3889 3.69838 13.3889ZM3.69838 16.0424C2.65709 16.0424 1.83842 15.4795 1.63016 14.9898V14.9532C1.85996 14.5 2.62118 13.9956 3.69838 13.9956C4.77558 13.9956 5.5368 14.5 5.76661 14.9532V14.9898C5.54399 15.4868 4.73968 16.0424 3.69838 16.0424Z" fill="#3E4347"/>
<path opacity="0.6" d="M8.2085 9.36279H9.14844C9.12337 9.69548 9.03109 9.99056 8.87158 10.248C8.71208 10.5033 8.48991 10.7038 8.20508 10.8496C7.92025 10.9954 7.57503 11.0684 7.16943 11.0684C6.85726 11.0684 6.57585 11.0137 6.3252 10.9043C6.07682 10.7926 5.86377 10.6343 5.68604 10.4292C5.51058 10.2218 5.37614 9.97347 5.28271 9.68408C5.18929 9.39242 5.14258 9.06543 5.14258 8.70312V8.32373C5.14258 7.96143 5.19043 7.63444 5.28613 7.34277C5.38184 7.05111 5.51855 6.80273 5.69629 6.59766C5.8763 6.3903 6.09163 6.23079 6.34229 6.11914C6.59521 6.00749 6.87777 5.95166 7.18994 5.95166C7.59554 5.95166 7.93848 6.02686 8.21875 6.17725C8.49902 6.32536 8.71663 6.5293 8.87158 6.78906C9.02653 7.04883 9.11995 7.34733 9.15186 7.68457H8.21191C8.19368 7.47493 8.14811 7.2972 8.0752 7.15137C8.00456 7.00553 7.89746 6.89502 7.75391 6.81982C7.61263 6.74235 7.42464 6.70361 7.18994 6.70361C7.00765 6.70361 6.84701 6.73779 6.70801 6.80615C6.57129 6.87451 6.45736 6.97705 6.36621 7.11377C6.27507 7.24821 6.20671 7.41683 6.16113 7.61963C6.11556 7.82015 6.09277 8.05257 6.09277 8.31689V8.70312C6.09277 8.95605 6.11328 9.18278 6.1543 9.3833C6.19531 9.58382 6.25911 9.75358 6.3457 9.89258C6.43229 10.0316 6.54395 10.1375 6.68066 10.2104C6.81738 10.2834 6.98031 10.3198 7.16943 10.3198C7.39958 10.3198 7.58643 10.2834 7.72998 10.2104C7.87581 10.1375 7.98633 10.0304 8.06152 9.88916C8.139 9.74788 8.18799 9.57243 8.2085 9.36279ZM13.1748 10.2617V11H10.5293V10.2617H13.1748ZM10.8164 6.02344V11H9.87646V6.02344H10.8164ZM12.8296 8.07764V8.79883H10.5293V8.07764H12.8296ZM13.1646 6.02344V6.76514H10.5293V6.02344H13.1646ZM17.8574 8.38525V8.6416C17.8574 9.01758 17.8073 9.35596 17.707 9.65674C17.6068 9.95524 17.4644 10.2093 17.2798 10.4189C17.0952 10.6286 16.8753 10.7892 16.6201 10.9009C16.3649 11.0125 16.0812 11.0684 15.769 11.0684C15.4614 11.0684 15.1789 11.0125 14.9214 10.9009C14.6662 10.7892 14.4451 10.6286 14.2583 10.4189C14.0715 10.2093 13.9268 9.95524 13.8242 9.65674C13.7217 9.35596 13.6704 9.01758 13.6704 8.6416V8.38525C13.6704 8.007 13.7217 7.66862 13.8242 7.37012C13.9268 7.07161 14.0703 6.81755 14.2549 6.60791C14.4395 6.396 14.6593 6.23421 14.9146 6.12256C15.172 6.0109 15.4546 5.95508 15.7622 5.95508C16.0744 5.95508 16.3581 6.0109 16.6133 6.12256C16.8685 6.23421 17.0884 6.396 17.2729 6.60791C17.4598 6.81755 17.6034 7.07161 17.7036 7.37012C17.8062 7.66862 17.8574 8.007 17.8574 8.38525ZM16.9072 8.6416V8.37842C16.9072 8.10726 16.8822 7.86914 16.832 7.66406C16.7819 7.45671 16.7078 7.28239 16.6099 7.14111C16.5119 6.99984 16.3911 6.89388 16.2476 6.82324C16.104 6.75033 15.9422 6.71387 15.7622 6.71387C15.5799 6.71387 15.4181 6.75033 15.2769 6.82324C15.1379 6.89388 15.0194 6.99984 14.9214 7.14111C14.8234 7.28239 14.7482 7.45671 14.6958 7.66406C14.6457 7.86914 14.6206 8.10726 14.6206 8.37842V8.6416C14.6206 8.91048 14.6457 9.1486 14.6958 9.35596C14.7482 9.56331 14.8234 9.73877 14.9214 9.88232C15.0216 10.0236 15.1424 10.1307 15.2837 10.2036C15.425 10.2765 15.5868 10.313 15.769 10.313C15.9513 10.313 16.1131 10.2765 16.2544 10.2036C16.3957 10.1307 16.5142 10.0236 16.6099 9.88232C16.7078 9.73877 16.7819 9.56331 16.832 9.35596C16.8822 9.1486 16.9072 8.91048 16.9072 8.6416Z" fill="#3E4347"/>
</svg>
