<svg width="24" height="24" viewBox="0 0 24 24" fill="none" xmlns="http://www.w3.org/2000/svg">
<g clip-path="url(#clip0_5197_33167)">
<path fill-rule="evenodd" clip-rule="evenodd" d="M6.81 0.219C6.95056 0.0787966 7.14097 4.21785e-05 7.3395 0L16.6605 0C16.859 4.21785e-05 17.0494 0.0787966 17.19 0.219L23.781 6.81C23.9212 6.95056 24 7.14097 24 7.3395V16.6605C24 16.859 23.9212 17.0494 23.781 17.19L17.19 23.781C17.0494 23.9212 16.859 24 16.6605 24H7.3395C7.14097 24 6.95056 23.9212 6.81 23.781L0.219 17.19C0.0787966 17.0494 4.21785e-05 16.859 0 16.6605L0 7.3395C4.21785e-05 7.14097 0.0787966 6.95056 0.219 6.81L6.81 0.219ZM7.65 1.5L1.5 7.65V16.35L7.65 22.5H16.35L22.5 16.35V7.65L16.35 1.5H7.65Z" fill="#6D767D"/>
</g>
<path d="M5.21094 8.17969H8.28857C8.89014 8.17969 9.41292 8.26921 9.85693 8.44824C10.3009 8.62728 10.6429 8.89225 10.8828 9.24316C11.1263 9.59408 11.248 10.0273 11.248 10.543C11.248 10.9906 11.1782 11.3647 11.0386 11.6655C10.8989 11.9663 10.7038 12.2152 10.4531 12.4121C10.2061 12.6055 9.91781 12.7648 9.58838 12.8901L8.9707 13.2393H6.38721L6.37646 11.7837H8.28857C8.52848 11.7837 8.72721 11.7407 8.88477 11.6548C9.04232 11.5688 9.16048 11.4471 9.23926 11.2896C9.32161 11.1284 9.36279 10.9368 9.36279 10.7148C9.36279 10.4893 9.32161 10.2959 9.23926 10.1348C9.1569 9.97363 9.03516 9.8501 8.87402 9.76416C8.71647 9.67822 8.52132 9.63525 8.28857 9.63525H7.09619V16H5.21094V8.17969ZM9.4917 16L7.76221 12.541L9.76025 12.5303L11.5112 15.9194V16H9.4917ZM19.0039 11.9341V12.251C19.0039 12.849 18.9198 13.3861 18.7515 13.8623C18.5868 14.335 18.3522 14.7396 18.0479 15.0762C17.7435 15.4092 17.3836 15.6652 16.9683 15.8442C16.5529 16.0197 16.0946 16.1074 15.5933 16.1074C15.0884 16.1074 14.6265 16.0197 14.2075 15.8442C13.7922 15.6652 13.4305 15.4092 13.1226 15.0762C12.8182 14.7396 12.5819 14.335 12.4136 13.8623C12.2489 13.3861 12.1665 12.849 12.1665 12.251V11.9341C12.1665 11.3361 12.2489 10.799 12.4136 10.3228C12.5819 9.84652 12.8164 9.44189 13.1172 9.10889C13.4215 8.7723 13.7814 8.51628 14.1968 8.34082C14.6157 8.16178 15.0776 8.07227 15.5825 8.07227C16.0838 8.07227 16.5422 8.16178 16.9575 8.34082C17.3765 8.51628 17.7381 8.7723 18.0425 9.10889C18.3468 9.44189 18.5832 9.84652 18.7515 10.3228C18.9198 10.799 19.0039 11.3361 19.0039 11.9341ZM17.0918 12.251V11.9233C17.0918 11.5366 17.0578 11.1965 16.9897 10.9028C16.9253 10.6056 16.8286 10.3568 16.6997 10.1562C16.5708 9.95573 16.4115 9.80534 16.2217 9.70508C16.0355 9.60124 15.8224 9.54932 15.5825 9.54932C15.3319 9.54932 15.1134 9.60124 14.9272 9.70508C14.741 9.80534 14.5853 9.95573 14.46 10.1562C14.3346 10.3568 14.2397 10.6056 14.1753 10.9028C14.1144 11.1965 14.084 11.5366 14.084 11.9233V12.251C14.084 12.6341 14.1144 12.9743 14.1753 13.2715C14.2397 13.5651 14.3346 13.814 14.46 14.0181C14.5889 14.2222 14.7464 14.3761 14.9326 14.48C15.1224 14.5838 15.3426 14.6357 15.5933 14.6357C15.8332 14.6357 16.0462 14.5838 16.2324 14.48C16.4186 14.3761 16.5744 14.2222 16.6997 14.0181C16.8286 13.814 16.9253 13.5651 16.9897 13.2715C17.0578 12.9743 17.0918 12.6341 17.0918 12.251Z" fill="#3E4347"/>
<defs>
<clipPath id="clip0_5197_33167">
<rect width="24" height="24" fill="white"/>
</clipPath>
</defs>
</svg>
