<svg width="24" height="24" viewBox="0 0 24 24" fill="none" xmlns="http://www.w3.org/2000/svg">
<g clip-path="url(#clip0_5559_33140)">
<path fill-rule="evenodd" clip-rule="evenodd" d="M6.81 0.219C6.95056 0.0787966 7.14097 4.21785e-05 7.3395 0L16.6605 0C16.859 4.21785e-05 17.0494 0.0787966 17.19 0.219L23.781 6.81C23.9212 6.95056 24 7.14097 24 7.3395V16.6605C24 16.859 23.9212 17.0494 23.781 17.19L17.19 23.781C17.0494 23.9212 16.859 24 16.6605 24H7.3395C7.14097 24 6.95056 23.9212 6.81 23.781L0.219 17.19C0.0787966 17.0494 4.21785e-05 16.859 0 16.6605L0 7.3395C4.21785e-05 7.14097 0.0787966 6.95056 0.219 6.81L6.81 0.219ZM7.65 1.5L1.5 7.65V16.35L7.65 22.5H16.35L22.5 16.35V7.65L16.35 1.5H7.65Z" fill="#6D767D"/>
</g>
<path d="M13.1816 13.9214C13.1816 13.7996 13.1637 13.6904 13.1279 13.5938C13.0921 13.4935 13.0259 13.4004 12.9292 13.3145C12.8325 13.2285 12.6929 13.1426 12.5103 13.0566C12.3312 12.9671 12.0949 12.874 11.8013 12.7773C11.4575 12.6628 11.1263 12.5339 10.8076 12.3906C10.4889 12.2438 10.2043 12.0737 9.95361 11.8804C9.70296 11.6834 9.50423 11.4543 9.35742 11.1929C9.21061 10.9279 9.13721 10.62 9.13721 10.269C9.13721 9.93245 9.2124 9.62988 9.36279 9.36133C9.51318 9.08919 9.72266 8.85824 9.99121 8.66846C10.2633 8.4751 10.582 8.32829 10.9473 8.22803C11.3125 8.12419 11.7118 8.07227 12.145 8.07227C12.7179 8.07227 13.2228 8.17253 13.6597 8.37305C14.1001 8.56999 14.4438 8.85107 14.6909 9.21631C14.9416 9.57796 15.0669 10.0059 15.0669 10.5H13.1924C13.1924 10.3031 13.1512 10.1294 13.0688 9.979C12.9901 9.82861 12.8701 9.71045 12.709 9.62451C12.5479 9.53857 12.3455 9.49561 12.1021 9.49561C11.8657 9.49561 11.667 9.53141 11.5059 9.60303C11.3447 9.67464 11.223 9.77132 11.1406 9.89307C11.0583 10.0112 11.0171 10.1419 11.0171 10.2852C11.0171 10.4033 11.0493 10.5107 11.1138 10.6074C11.1818 10.7005 11.2767 10.7882 11.3984 10.8706C11.5238 10.953 11.6742 11.0317 11.8496 11.1069C12.0286 11.1821 12.2292 11.2555 12.4512 11.3271C12.8665 11.4596 13.2354 11.6082 13.5576 11.7729C13.8835 11.9341 14.1574 12.1185 14.3794 12.3262C14.605 12.5303 14.7751 12.763 14.8896 13.0244C15.0078 13.2858 15.0669 13.5812 15.0669 13.9106C15.0669 14.2616 14.9989 14.5731 14.8628 14.8452C14.7267 15.1174 14.5316 15.3483 14.2773 15.5381C14.0231 15.7243 13.7188 15.8657 13.3643 15.9624C13.0098 16.0591 12.6141 16.1074 12.1772 16.1074C11.7762 16.1074 11.3805 16.0573 10.9902 15.957C10.6035 15.8532 10.2526 15.6956 9.9375 15.4844C9.6224 15.2695 9.36995 14.9956 9.18018 14.6626C8.99398 14.326 8.90088 13.9268 8.90088 13.4648H10.7915C10.7915 13.694 10.8219 13.8874 10.8828 14.0449C10.9437 14.2025 11.0332 14.3296 11.1514 14.4263C11.2695 14.5194 11.4146 14.5874 11.5864 14.6304C11.7583 14.6698 11.9552 14.6895 12.1772 14.6895C12.4172 14.6895 12.6105 14.6554 12.7573 14.5874C12.9041 14.5158 13.0116 14.4227 13.0796 14.3081C13.1476 14.1899 13.1816 14.061 13.1816 13.9214Z" fill="#3E4347"/>
<defs>
<clipPath id="clip0_5559_33140">
<rect width="24" height="24" fill="white"/>
</clipPath>
</defs>
</svg>
