<svg width="20" height="20" viewBox="0 0 20 20" fill="none" xmlns="http://www.w3.org/2000/svg">
<path d="M10.878 1C5.89342 1 1.77344 5.1288 1.77344 10.1134C1.77344 10.2898 1.78226 10.4574 1.79108 10.6251C2.18808 10.5015 2.61155 10.431 3.04384 10.431C5.12589 10.431 6.88151 11.9396 7.26087 13.9157C8.2666 13.3776 9.51936 13.0865 10.8868 13.0865C13.2423 13.0865 15.2803 13.9422 16.2948 15.4773C14.9539 16.9153 12.863 17.7358 10.8868 17.7358C9.50171 17.7358 8.08133 17.33 6.89915 16.5977C6.6786 17.0565 6.38746 17.4623 6.02575 17.7975C7.43731 18.7062 9.10471 19.2267 10.8868 19.2267C15.8714 19.2267 20.0002 15.1067 20.0002 10.1134C20.0002 5.1288 15.8714 1 10.878 1ZM10.8868 11.5602C9.15765 11.5514 7.81667 10.1045 7.81667 8.19894C7.80784 6.39921 9.17529 4.89943 10.8868 4.89943C12.5983 4.89943 13.9569 6.39921 13.9569 8.19894C13.9569 10.1045 12.616 11.5779 10.8868 11.5602Z" fill="#3E4347"/>
<path opacity="0.6" d="M6.09616 14.7273C6.09616 16.4035 4.71107 17.7798 3.04367 17.7798C1.37627 17.7798 0 16.4035 0 14.7273C0 13.0599 1.37627 11.6836 3.04367 11.6836C4.71107 11.6836 6.09616 13.0599 6.09616 14.7273Z" fill="#3E4347"/>
</svg>
