<svg width="20" height="20" viewBox="0 0 20 20" fill="none" xmlns="http://www.w3.org/2000/svg">
<path d="M5.24879 20.0002H14.9616C16.5748 20.0002 17.5207 19.0543 17.5207 17.2553V7.69449C17.5207 5.89551 16.5748 4.95801 14.7505 4.95801H5.24879C3.42446 4.95801 2.47852 5.88706 2.47852 7.69449V17.2553C2.47852 19.0627 3.42446 20.0002 5.24879 20.0002ZM12.487 13.632C11.4819 13.632 10.6373 12.7452 10.6373 11.605C10.6289 10.4817 11.4988 9.61172 12.4954 9.61172C13.492 9.61172 14.3366 10.4648 14.3366 11.5965C14.3366 12.7452 13.492 13.632 12.487 13.632ZM7.17446 13.7418C6.30453 13.7418 5.56129 12.9732 5.56129 11.9681C5.55284 10.9884 6.30453 10.2367 7.17446 10.2367C8.04439 10.2367 8.78764 10.98 8.78764 11.9597C8.78764 12.9732 8.05284 13.7418 7.17446 13.7418ZM5.27412 18.3955C4.45487 18.3955 4.04946 17.9985 4.04946 17.154V16.1742C4.56466 15.2958 5.69642 14.5188 7.17446 14.5188C7.88392 14.5188 8.4498 14.6877 8.965 15.0002C8.14575 15.6168 7.59676 16.8077 7.59676 17.6945C7.59676 17.9732 7.63899 18.2181 7.75723 18.3955H5.27412ZM9.04102 18.3955C8.88899 18.3702 8.66939 18.1337 8.66939 17.7283C8.66939 16.2333 10.1474 14.5357 12.487 14.5357C14.0241 14.5357 15.3417 15.3043 15.9582 16.3516V17.154C15.9582 17.9985 15.4684 18.3955 14.742 18.3955H9.04102Z" fill="#3E4347"/>
<path opacity="0.6" d="M15.5947 3.61504H4.34473C4.46297 2.81267 4.86838 2.34814 5.77209 2.34814H14.1674C15.0711 2.34814 15.4765 2.81267 15.5947 3.61504Z" fill="#3E4347"/>
<path opacity="0.6" d="M14.1509 1.15709H5.79785C5.84853 0.405405 6.29616 0 7.11542 0H12.8249C13.6441 0 14.0918 0.405405 14.1509 1.15709Z" fill="#3E4347"/>
</svg>
