<svg width="24" height="24" viewBox="0 0 24 24" fill="none" xmlns="http://www.w3.org/2000/svg">
<g clip-path="url(#clip0_5197_33155)">
<path fill-rule="evenodd" clip-rule="evenodd" d="M6.81 0.219C6.95056 0.0787966 7.14097 4.21785e-05 7.3395 0L16.6605 0C16.859 4.21785e-05 17.0494 0.0787966 17.19 0.219L23.781 6.81C23.9212 6.95056 24 7.14097 24 7.3395V16.6605C24 16.859 23.9212 17.0494 23.781 17.19L17.19 23.781C17.0494 23.9212 16.859 24 16.6605 24H7.3395C7.14097 24 6.95056 23.9212 6.81 23.781L0.219 17.19C0.0787966 17.0494 4.21785e-05 16.859 0 16.6605L0 7.3395C4.21785e-05 7.14097 0.0787966 6.95056 0.219 6.81L6.81 0.219ZM7.65 1.5L1.5 7.65V16.35L7.65 22.5H16.35L22.5 16.35V7.65L16.35 1.5H7.65Z" fill="#6D767D"/>
</g>
<path d="M8.61084 9.82324L6.7041 16H4.6792L7.55273 8.17969H8.83643L8.61084 9.82324ZM10.1899 16L8.27783 9.82324L8.03076 8.17969H9.33057L12.2202 16H10.1899ZM10.1147 13.0835V14.5391H6.10254V13.0835H10.1147ZM17.124 13.3521H19.0039C18.9788 13.8963 18.832 14.3761 18.5635 14.7915C18.2949 15.2069 17.9225 15.5309 17.4463 15.7637C16.9736 15.9928 16.415 16.1074 15.7705 16.1074C15.2477 16.1074 14.7804 16.0197 14.3687 15.8442C13.9604 15.6688 13.6131 15.4163 13.3267 15.0869C13.0438 14.7575 12.8271 14.3582 12.6768 13.8892C12.5299 13.4201 12.4565 12.8919 12.4565 12.3047V11.8804C12.4565 11.2931 12.5335 10.765 12.6875 10.2959C12.8451 9.82324 13.0671 9.4222 13.3535 9.09277C13.6436 8.75977 13.9909 8.50553 14.3955 8.33008C14.8001 8.15462 15.2495 8.06689 15.7437 8.06689C16.424 8.06689 16.9987 8.18864 17.4678 8.43213C17.9368 8.67562 18.3003 9.01042 18.5581 9.43652C18.8159 9.85905 18.9681 10.3407 19.0146 10.8813H17.1348C17.1276 10.5877 17.0775 10.3424 16.9844 10.1455C16.8913 9.94499 16.7445 9.7946 16.5439 9.69434C16.3434 9.59408 16.0767 9.54395 15.7437 9.54395C15.5109 9.54395 15.3086 9.58691 15.1367 9.67285C14.9648 9.75879 14.8216 9.89486 14.707 10.0811C14.5924 10.2673 14.5065 10.509 14.4492 10.8062C14.3955 11.0998 14.3687 11.4543 14.3687 11.8696V12.3047C14.3687 12.7201 14.3937 13.0745 14.4438 13.3682C14.494 13.6618 14.5745 13.9017 14.6855 14.0879C14.7965 14.2741 14.9398 14.4119 15.1152 14.5015C15.2943 14.5874 15.5127 14.6304 15.7705 14.6304C16.057 14.6304 16.2987 14.5856 16.4956 14.4961C16.6925 14.403 16.8447 14.2633 16.9521 14.0771C17.0596 13.8874 17.1169 13.6457 17.124 13.3521Z" fill="#3E4347"/>
<defs>
<clipPath id="clip0_5197_33155">
<rect width="24" height="24" fill="white"/>
</clipPath>
</defs>
</svg>
