<svg width="24" height="24" viewBox="0 0 24 24" fill="none" xmlns="http://www.w3.org/2000/svg">
<g clip-path="url(#clip0_5197_33167)">
<path fill-rule="evenodd" clip-rule="evenodd" d="M6.81 0.219C6.95056 0.0787966 7.14097 4.21785e-05 7.3395 0L16.6605 0C16.859 4.21785e-05 17.0494 0.0787966 17.19 0.219L23.781 6.81C23.9212 6.95056 24 7.14097 24 7.3395V16.6605C24 16.859 23.9212 17.0494 23.781 17.19L17.19 23.781C17.0494 23.9212 16.859 24 16.6605 24H7.3395C7.14097 24 6.95056 23.9212 6.81 23.781L0.219 17.19C0.0787966 17.0494 4.21785e-05 16.859 0 16.6605L0 7.3395C4.21785e-05 7.14097 0.0787966 6.95056 0.219 6.81L6.81 0.219ZM7.65 1.5L1.5 7.65V16.35L7.65 22.5H16.35L22.5 16.35V7.65L16.35 1.5H7.65Z" fill="#6D767D"/>
</g>
<path d="M5.93066 8.17969H9.0083C9.60986 8.17969 10.1326 8.26921 10.5767 8.44824C11.0207 8.62728 11.3626 8.89225 11.6025 9.24316C11.846 9.59408 11.9678 10.0273 11.9678 10.543C11.9678 10.9906 11.8979 11.3647 11.7583 11.6655C11.6187 11.9663 11.4235 12.2152 11.1729 12.4121C10.9258 12.6055 10.6375 12.7648 10.3081 12.8901L9.69043 13.2393H7.10693L7.09619 11.7837H9.0083C9.24821 11.7837 9.44694 11.7407 9.60449 11.6548C9.76204 11.5688 9.88021 11.4471 9.95898 11.2896C10.0413 11.1284 10.0825 10.9368 10.0825 10.7148C10.0825 10.4893 10.0413 10.2959 9.95898 10.1348C9.87663 9.97363 9.75488 9.8501 9.59375 9.76416C9.4362 9.67822 9.24105 9.63525 9.0083 9.63525H7.81592V16H5.93066V8.17969ZM10.2114 16L8.48193 12.541L10.48 12.5303L12.231 15.9194V16H10.2114ZM18.4883 14.5498V16H14.3203V14.5498H18.4883ZM14.9917 8.17969V16H13.1064V8.17969H14.9917ZM17.9512 11.2842V12.686H14.3203V11.2842H17.9512ZM18.5044 8.17969V9.63525H14.3203V8.17969H18.5044Z" fill="#3E4347"/>
<defs>
<clipPath id="clip0_5197_33167">
<rect width="24" height="24" fill="white"/>
</clipPath>
</defs>
</svg>
