<svg width="20" height="20" viewBox="0 0 20 20" fill="none" xmlns="http://www.w3.org/2000/svg">
<path d="M17.6302 2H5.34291C3.79174 2 2.98025 2.8114 2.98025 4.38304V8.47661C3.21724 8.44006 3.45422 8.41813 3.6912 8.41813C3.93537 8.41813 4.17235 8.44006 4.40934 8.48392V4.51462C4.40934 3.80556 4.77558 3.45468 5.43627 3.45468H17.5368C18.1975 3.45468 18.5637 3.80556 18.5637 4.51462V13.1477C18.5637 13.8567 18.1975 14.2076 17.5368 14.2076H8.28725C8.20108 14.7266 8.00718 15.2237 7.74147 15.6623H17.6302C19.1885 15.6623 20 14.8436 20 13.2792V4.38304C20 2.81871 19.1885 2 17.6302 2ZM3.69838 17C5.70916 17 7.39677 15.2895 7.39677 13.2281C7.39677 11.1667 5.72352 9.46345 3.69838 9.46345C1.67325 9.46345 0 11.1667 0 13.2281C0 15.2968 1.67325 17 3.69838 17ZM3.69838 13.3889C3.05206 13.3889 2.54937 12.848 2.54937 12.1023C2.54937 11.4371 3.05206 10.8743 3.69838 10.8743C4.33752 10.8743 4.84022 11.4371 4.84022 12.1023C4.84022 12.848 4.3447 13.3889 3.69838 13.3889ZM3.69838 16.0424C2.65709 16.0424 1.83842 15.4795 1.63016 14.9898V14.9532C1.85996 14.5 2.62118 13.9956 3.69838 13.9956C4.77558 13.9956 5.5368 14.5 5.76661 14.9532V14.9898C5.54399 15.4868 4.73968 16.0424 3.69838 16.0424Z" fill="#3E4347"/>
<path opacity="0.6" d="M10.1738 11H9.10059L9.10742 10.2617H10.1738C10.4632 10.2617 10.7059 10.1979 10.9019 10.0703C11.0978 9.94043 11.2459 9.75472 11.3462 9.51318C11.4465 9.26937 11.4966 8.9777 11.4966 8.63818V8.38184C11.4966 8.11979 11.4681 7.88851 11.4111 7.68799C11.3542 7.48747 11.2699 7.31885 11.1582 7.18213C11.0488 7.04541 10.9132 6.94173 10.7515 6.87109C10.5897 6.80046 10.404 6.76514 10.1943 6.76514H9.08008V6.02344H10.1943C10.527 6.02344 10.8301 6.07926 11.1035 6.19092C11.3792 6.30257 11.6174 6.46322 11.8179 6.67285C12.0207 6.88021 12.1756 7.12858 12.2827 7.41797C12.3921 7.70736 12.4468 8.03092 12.4468 8.38867V8.63818C12.4468 8.99365 12.3921 9.31722 12.2827 9.60889C12.1756 9.89827 12.0207 10.1466 11.8179 10.354C11.6174 10.5614 11.3781 10.7209 11.1001 10.8325C10.8221 10.9442 10.5133 11 10.1738 11ZM9.62695 6.02344V11H8.68701V6.02344H9.62695ZM14.248 6.02344V11H13.3081V6.02344H14.248Z" fill="#3E4347"/>
</svg>
