<svg width="24" height="24" viewBox="0 0 24 24" fill="none" xmlns="http://www.w3.org/2000/svg">
<g clip-path="url(#clip0_11090_21492)">
<path fill-rule="evenodd" clip-rule="evenodd" d="M6.81 0.219C6.95056 0.0787966 7.14097 4.21785e-05 7.3395 0L16.6605 0C16.859 4.21785e-05 17.0494 0.0787966 17.19 0.219L23.781 6.81C23.9212 6.95056 24 7.14097 24 7.3395V16.6605C24 16.859 23.9212 17.0494 23.781 17.19L17.19 23.781C17.0494 23.9212 16.859 24 16.6605 24H7.3395C7.14097 24 6.95056 23.9212 6.81 23.781L0.219 17.19C0.0787966 17.0494 4.21785e-05 16.859 0 16.6605L0 7.3395C4.21785e-05 7.14097 0.0787966 6.95056 0.219 6.81L6.81 0.219ZM7.65 1.5L1.5 7.65V16.35L7.65 22.5H16.35L22.5 16.35V7.65L16.35 1.5H7.65Z" fill="#6D767D"/>
</g>
<path d="M7.98779 16H6.25293L6.26367 14.5498H7.98779C8.34587 14.5498 8.64844 14.4639 8.89551 14.292C9.14616 14.1201 9.33594 13.8641 9.46484 13.5239C9.59733 13.1802 9.66357 12.7576 9.66357 12.2563V11.918C9.66357 11.542 9.62598 11.2126 9.55078 10.9297C9.47917 10.6432 9.37174 10.4051 9.22852 10.2153C9.08529 10.022 8.90625 9.87695 8.69141 9.78027C8.48014 9.68359 8.23665 9.63525 7.96094 9.63525H6.2207V8.17969H7.96094C8.49089 8.17969 8.97607 8.271 9.4165 8.45361C9.86051 8.63265 10.2437 8.89046 10.5659 9.22705C10.8918 9.56006 11.1424 9.95573 11.3179 10.4141C11.4969 10.8688 11.5864 11.3737 11.5864 11.9287V12.2563C11.5864 12.8078 11.4969 13.3127 11.3179 13.771C11.1424 14.2293 10.8936 14.625 10.5713 14.958C10.249 15.291 9.86768 15.5488 9.42725 15.7314C8.9904 15.9105 8.51058 16 7.98779 16ZM7.33252 8.17969V16H5.44727V8.17969H7.33252ZM12.5693 8.17969H15.647C16.2485 8.17969 16.7713 8.26921 17.2153 8.44824C17.6593 8.62728 18.0013 8.89225 18.2412 9.24316C18.4847 9.59408 18.6064 10.0273 18.6064 10.543C18.6064 10.9906 18.5366 11.3647 18.397 11.6655C18.2573 11.9663 18.0622 12.2152 17.8115 12.4121C17.5645 12.6055 17.2762 12.7648 16.9468 12.8901L16.3291 13.2393H13.7456L13.7349 11.7837H15.647C15.8869 11.7837 16.0856 11.7407 16.2432 11.6548C16.4007 11.5688 16.5189 11.4471 16.5977 11.2896C16.68 11.1284 16.7212 10.9368 16.7212 10.7148C16.7212 10.4893 16.68 10.2959 16.5977 10.1348C16.5153 9.97363 16.3936 9.8501 16.2324 9.76416C16.0749 9.67822 15.8797 9.63525 15.647 9.63525H14.4546V16H12.5693V8.17969ZM16.8501 16L15.1206 12.541L17.1187 12.5303L18.8696 15.9194V16H16.8501Z" fill="#3E4347"/>
<defs>
<clipPath id="clip0_11090_21492">
<rect width="24" height="24" fill="white"/>
</clipPath>
</defs>
</svg>
