<svg width="20" height="20" viewBox="0 0 20 20" fill="none" xmlns="http://www.w3.org/2000/svg">
<path d="M13.2846 17.0813C13.2127 17.0422 13.1417 17.0013 13.0718 16.9584L12.8275 17.0988C12.64 17.2083 12.4266 17.2661 12.2103 17.2661C11.8756 17.2661 11.55 17.1257 11.305 16.8677C10.7297 16.2398 10.2959 15.488 10.0481 14.6833C9.88084 14.1189 10.1213 13.5311 10.6053 13.2695L10.8559 13.1236C10.8538 13.0417 10.8538 12.9598 10.8559 12.878L10.6166 12.7386C10.2323 12.5213 10.0104 12.1243 10.0029 11.6955C9.55018 11.5719 9.07517 11.5 8.58453 11.5H5.41573C2.42536 11.5 0 13.9281 0 16.9187C0 17.5156 0.485009 18 1.08315 18H12.9159C13.0948 18 13.2565 17.946 13.4052 17.8691C13.3343 17.7134 13.2846 17.5473 13.2846 17.3673V17.0813ZM7.00013 10C9.20955 10 11.0002 8.20906 11.0002 6C11.0002 3.79094 9.20955 2 7.00013 2C4.79071 2 3.00006 3.79094 3.00006 6C3.00006 8.20906 4.79071 10 7.00013 10ZM19.0785 13.6656C19.1605 13.2281 19.1605 12.775 19.0785 12.3375L19.8832 11.8687C19.9769 11.818 20.0199 11.7086 19.9887 11.6031C19.7777 10.9312 19.4183 10.3178 18.9496 9.81C18.8793 9.73187 18.7621 9.71234 18.6683 9.76703L17.8636 10.232C17.5236 9.94297 17.133 9.71641 16.7111 9.56797V8.63438C16.7111 8.52891 16.633 8.43516 16.5314 8.41563C15.8361 8.25938 15.1251 8.26328 14.4611 8.41563C14.3595 8.43516 14.2853 8.52891 14.2853 8.63438V9.56812C13.8634 9.71656 13.4728 9.94312 13.1327 10.2322L12.3252 9.76562C12.2354 9.71094 12.1182 9.73047 12.044 9.80859C11.5752 10.3164 11.2158 10.9298 11.0086 11.6017C10.9774 11.7072 11.0204 11.8166 11.1102 11.8673L11.9149 12.3361C11.8368 12.7736 11.8368 13.2267 11.9149 13.6642L11.1102 14.133C11.0165 14.1838 10.9774 14.2931 11.0086 14.3986C11.2157 15.0705 11.5752 15.6798 12.044 16.1917C12.1182 16.2698 12.2315 16.2894 12.3252 16.2347L13.134 15.7697C13.474 16.0588 13.8646 16.2853 14.2865 16.4338V17.3675C14.2865 17.473 14.3607 17.5667 14.4623 17.5863C15.1617 17.7425 15.8686 17.7386 16.5326 17.5863C16.6342 17.5667 16.7123 17.473 16.7123 17.3675V16.4338C17.1342 16.2853 17.5249 16.0588 17.8649 15.7697L18.6696 16.2347C18.7594 16.2894 18.8805 16.2698 18.9508 16.1917C19.4196 15.6839 19.779 15.0705 19.9899 14.3986C20.0212 14.2931 19.9782 14.1838 19.8844 14.133L19.0785 13.6656ZM15.5003 14.5156C14.6643 14.5156 13.9846 13.8359 13.9846 13C13.9846 12.1641 14.6643 11.4844 15.5003 11.4844C16.3362 11.4844 17.0159 12.1641 17.0159 13C17.0159 13.8359 16.3378 14.5156 15.5003 14.5156Z" fill="#3E4347"/>
</svg>
