<svg width="20" height="20" viewBox="0 0 20 20" fill="none" xmlns="http://www.w3.org/2000/svg">
<path d="M17.6302 2H5.34291C3.79174 2 2.98025 2.8114 2.98025 4.38304V8.47661C3.21724 8.44006 3.45422 8.41813 3.6912 8.41813C3.93537 8.41813 4.17235 8.44006 4.40934 8.48392V4.51462C4.40934 3.80556 4.77558 3.45468 5.43627 3.45468H17.5368C18.1975 3.45468 18.5637 3.80556 18.5637 4.51462V13.1477C18.5637 13.8567 18.1975 14.2076 17.5368 14.2076H8.28725C8.20108 14.7266 8.00718 15.2237 7.74147 15.6623H17.6302C19.1885 15.6623 20 14.8436 20 13.2792V4.38304C20 2.81871 19.1885 2 17.6302 2ZM3.69838 17C5.70916 17 7.39677 15.2895 7.39677 13.2281C7.39677 11.1667 5.72352 9.46345 3.69838 9.46345C1.67325 9.46345 0 11.1667 0 13.2281C0 15.2968 1.67325 17 3.69838 17ZM3.69838 13.3889C3.05206 13.3889 2.54937 12.848 2.54937 12.1023C2.54937 11.4371 3.05206 10.8743 3.69838 10.8743C4.33752 10.8743 4.84022 11.4371 4.84022 12.1023C4.84022 12.848 4.3447 13.3889 3.69838 13.3889ZM3.69838 16.0424C2.65709 16.0424 1.83842 15.4795 1.63016 14.9898V14.9532C1.85996 14.5 2.62118 13.9956 3.69838 13.9956C4.77558 13.9956 5.5368 14.5 5.76661 14.9532V14.9898C5.54399 15.4868 4.73968 16.0424 3.69838 16.0424Z" fill="#3E4347"/>
<path opacity="0.6" d="M7.77441 6.02344H9.58252C9.96077 6.02344 10.2855 6.0804 10.5566 6.19434C10.8278 6.30827 11.0363 6.47689 11.1821 6.7002C11.328 6.9235 11.4009 7.19808 11.4009 7.52393C11.4009 7.78141 11.3553 8.00472 11.2642 8.19385C11.173 8.38298 11.0443 8.54134 10.8779 8.66895C10.7139 8.79655 10.5202 8.89681 10.2969 8.96973L10.0029 9.12012H8.40674L8.3999 8.37842H9.59277C9.78646 8.37842 9.9471 8.34424 10.0747 8.27588C10.2023 8.20752 10.298 8.11296 10.3618 7.99219C10.4279 7.87142 10.4609 7.73356 10.4609 7.57861C10.4609 7.41227 10.429 7.26872 10.3652 7.14795C10.3014 7.0249 10.2046 6.93034 10.0747 6.86426C9.94482 6.79818 9.78076 6.76514 9.58252 6.76514H8.71436V11H7.77441V6.02344ZM10.584 11L9.43213 8.77148L10.4268 8.76807L11.5923 10.9521V11H10.584ZM15.5229 10.2617V11H12.8774V10.2617H15.5229ZM13.1646 6.02344V11H12.2246V6.02344H13.1646ZM15.1777 8.07764V8.79883H12.8774V8.07764H15.1777ZM15.5127 6.02344V6.76514H12.8774V6.02344H15.5127Z" fill="#3E4347"/>
</svg>
