<svg width="20" height="20" viewBox="0 0 20 20" fill="none" xmlns="http://www.w3.org/2000/svg">
<path d="M2.7691 17.8765H17.2309C19.0545 17.8765 20 16.9394 20 15.1412V4.85838C20 3.06015 19.0545 2.12305 17.2309 2.12305H2.7691C0.945547 2.12305 0 3.05171 0 4.85838V15.1412C0 16.9394 0.945547 17.8765 2.7691 17.8765ZM6.5344 9.99979C5.52132 9.99979 4.69396 9.13867 4.69396 7.9905C4.69396 6.90143 5.52132 6.00654 6.5344 6.00654C7.56437 6.00654 8.38328 6.90143 8.38328 7.9905C8.38328 9.13867 7.56437 10.0082 6.5344 9.99979ZM12.0726 7.24757C11.7518 7.24757 11.5154 7.00274 11.5154 6.69037C11.5154 6.39489 11.7518 6.1585 12.0726 6.1585H16.5049C16.8172 6.1585 17.0536 6.39489 17.0536 6.69037C17.0536 7.00274 16.8172 7.24757 16.5049 7.24757H12.0726ZM12.0726 10.5485C11.7518 10.5485 11.5154 10.3037 11.5154 9.99979C11.5154 9.69586 11.7518 9.45948 12.0726 9.45948H16.5049C16.8172 9.45948 17.0536 9.69586 17.0536 9.99979C17.0536 10.3037 16.8172 10.5485 16.5049 10.5485H12.0726ZM3.31786 13.9002C3.00549 13.9002 2.84508 13.6807 2.84508 13.4021C2.84508 12.6085 4.01013 10.5739 6.5344 10.5739C9.06712 10.5739 10.2406 12.6085 10.2406 13.4021C10.2406 13.6807 10.0802 13.9002 9.76783 13.9002H3.31786ZM12.0726 13.8495C11.7518 13.8495 11.5154 13.6131 11.5154 13.3176C11.5154 13.0053 11.7518 12.7604 12.0726 12.7604H16.5049C16.8172 12.7604 17.0536 13.0053 17.0536 13.3176C17.0536 13.6131 16.8172 13.8495 16.5049 13.8495H12.0726Z" fill="#3E4347"/>
</svg>
