<svg width="24" height="24" viewBox="0 0 24 24" fill="none" xmlns="http://www.w3.org/2000/svg">
<g clip-path="url(#clip0_5730_33158)">
<path fill-rule="evenodd" clip-rule="evenodd" d="M6.81 0.219C6.95056 0.0787966 7.14097 4.21785e-05 7.3395 0L16.6605 0C16.859 4.21785e-05 17.0494 0.0787966 17.19 0.219L23.781 6.81C23.9212 6.95056 24 7.14097 24 7.3395V16.6605C24 16.859 23.9212 17.0494 23.781 17.19L17.19 23.781C17.0494 23.9212 16.859 24 16.6605 24H7.3395C7.14097 24 6.95056 23.9212 6.81 23.781L0.219 17.19C0.0787966 17.0494 4.21785e-05 16.859 0 16.6605L0 7.3395C4.21785e-05 7.14097 0.0787966 6.95056 0.219 6.81L6.81 0.219ZM7.65 1.5L1.5 7.65V16.35L7.65 22.5H16.35L22.5 16.35V7.65L16.35 1.5H7.65Z" fill="#6D767D"/>
</g>
<path d="M8.47119 9.82324L6.56445 16H4.53955L7.41309 8.17969H8.69678L8.47119 9.82324ZM10.0503 16L8.13818 9.82324L7.89111 8.17969H9.19092L12.0806 16H10.0503ZM9.9751 13.0835V14.5391H5.96289V13.0835H9.9751ZM18.9341 11.8213V15.0332C18.8016 15.18 18.5975 15.3376 18.3218 15.5059C18.0496 15.6706 17.7059 15.812 17.2905 15.9302C16.8752 16.0483 16.3864 16.1074 15.8242 16.1074C15.305 16.1074 14.8341 16.0251 14.4116 15.8604C13.9891 15.6921 13.6257 15.4468 13.3213 15.1245C13.0205 14.7987 12.7878 14.4012 12.623 13.9321C12.4619 13.4595 12.3813 12.9188 12.3813 12.3101V11.875C12.3813 11.2663 12.4637 10.7256 12.6284 10.2529C12.7931 9.78027 13.0241 9.38281 13.3213 9.06055C13.6221 8.7347 13.9748 8.48763 14.3794 8.31934C14.7876 8.15104 15.2352 8.06689 15.7222 8.06689C16.4419 8.06689 17.0273 8.18148 17.4785 8.41064C17.9297 8.63623 18.2716 8.94954 18.5044 9.35059C18.7371 9.74805 18.8786 10.2082 18.9287 10.731H17.1187C17.0828 10.4731 17.0148 10.2547 16.9146 10.0757C16.8179 9.89307 16.6782 9.75521 16.4956 9.66211C16.313 9.56543 16.0767 9.51709 15.7866 9.51709C15.561 9.51709 15.3551 9.56543 15.1689 9.66211C14.9863 9.75879 14.8306 9.9056 14.7017 10.1025C14.5728 10.2959 14.4725 10.5394 14.4009 10.833C14.3328 11.1266 14.2988 11.4704 14.2988 11.8643V12.3101C14.2988 12.7004 14.3311 13.0423 14.3955 13.3359C14.4635 13.6296 14.5638 13.8748 14.6963 14.0718C14.8324 14.2651 15.0042 14.4119 15.2119 14.5122C15.4232 14.6089 15.672 14.6572 15.9585 14.6572C16.159 14.6572 16.3309 14.6411 16.4741 14.6089C16.6174 14.5731 16.7355 14.5301 16.8286 14.48C16.9253 14.4263 16.9987 14.3761 17.0488 14.3296V13.1157H15.7383V11.8213H18.9341Z" fill="#3E4347"/>
<defs>
<clipPath id="clip0_5730_33158">
<rect width="24" height="24" fill="white"/>
</clipPath>
</defs>
</svg>
