<svg width="138" height="59" viewBox="0 0 138 59" fill="none" xmlns="http://www.w3.org/2000/svg">
<path d="M27.1732 57.8736C22.2471 57.8736 17.7813 56.6691 13.7759 54.2601C9.81649 51.7987 6.68583 48.4209 4.38388 44.1265C2.12796 39.7798 1 34.8833 1 29.4368C1 23.9903 2.12796 19.12 4.38388 14.8256C6.68583 10.4789 9.81649 7.10108 13.7759 4.69207C17.7813 2.23069 22.2701 1 27.2423 1C31.4319 1 35.2071 1.83792 38.5679 3.51375C40.9659 4.69332 42.5275 6.01914 44.0448 7.79668C44.9989 8.91449 44.4852 10.829 43.2655 11.5379C42.719 11.8556 42.1389 12.2401 41.5739 12.6978C40.77 13.3489 40.0516 14.0483 39.4706 14.6642C38.6318 15.5533 37.2847 15.5301 36.4384 14.6502C33.9421 12.0546 31.8453 11.8406 27.7948 11.8406C24.8022 11.8406 22.132 12.5999 19.784 14.1186C17.436 15.585 15.5944 17.6536 14.2593 20.3245C12.9702 22.9953 12.3256 26.0328 12.3256 29.4368C12.3256 32.8408 12.9702 35.8783 14.2593 38.5492C15.5944 41.22 17.436 43.3148 19.784 44.8335C22.132 46.2999 24.8022 47.0331 27.7948 47.0331C32.6289 47.0331 36.6803 44.8597 39.9491 40.513L47.1312 48.0543C44.8292 51.2488 41.9748 53.684 38.5679 55.3599C35.161 57.0357 31.3628 57.8736 27.1732 57.8736Z" fill="#032D60"/>
<path d="M58.0139 57.9311C54.1005 57.9311 50.5785 57.0146 47.4479 55.1817C44.3633 53.2964 41.9462 50.7041 40.1967 47.4048C38.4472 44.1055 37.5725 40.361 37.5725 36.1714C37.5725 31.9819 38.4472 28.2374 40.1967 24.9381C41.9462 21.6388 44.3633 19.0727 47.4479 17.2397C50.5785 15.3544 54.1005 14.4118 58.0139 14.4118C61.9272 14.4118 65.4261 15.3544 68.5108 17.2397C71.5954 19.0727 74.0124 21.6388 75.7619 24.9381C77.5114 28.2374 78.3862 31.9819 78.3862 36.1714C78.3862 40.361 77.5114 44.1055 75.7619 47.4048C74.0124 50.7041 71.5954 53.2964 68.5108 55.1817C65.4261 57.0146 61.9272 57.9311 58.0139 57.9311ZM58.0139 47.8761C60.7762 47.8761 63.0321 46.8287 64.7816 44.7339C66.5771 42.5867 67.4749 39.7326 67.4749 36.1714C67.4749 32.6103 66.5771 29.7823 64.7816 27.6875C63.0321 25.5404 60.7762 24.4668 58.0139 24.4668C55.2515 24.4668 52.9726 25.5404 51.177 27.6875C49.3815 29.7823 48.4838 32.6103 48.4838 36.1714C48.4838 39.7326 49.3815 42.5867 51.177 44.7339C52.9726 46.8287 55.2515 47.8761 58.0139 47.8761Z" fill="#032D60"/>
<path d="M69.8071 9.50747C69.8071 4.80893 73.1556 1 77.2862 1H92.7019C98.1736 1 99.4344 1.83878 103.61 4.22736C107.834 6.56164 107.189 12.3457 109.492 16.6343C111.844 20.9229 111.248 23.8 111.248 29.5C111.248 35.2 111.844 36.4327 109.492 40.7213C107.189 45.0099 107.834 50.2491 103.61 52.6377C99.4344 54.972 98.1736 58.0001 92.7019 58.0001H77.2862C73.1556 58.0001 69.8071 54.1912 69.8071 49.4926C69.8071 44.7941 73.9206 37.999 73.9206 30.1381C73.9206 22.2772 69.8071 14.206 69.8071 9.50747ZM90.7702 47.1701C96.6225 47.1701 99.645 40.9432 101.531 37.3882C102.89 34.826 103.23 31.8368 103.23 29.0611C103.23 26.2854 102.852 22.6318 101.531 20.3069C99.4066 16.5695 97.0001 11.83 90.7702 11.83H85.21C83.1447 11.83 81.4705 13.7345 81.4705 16.0838C81.4705 18.433 84.2043 20.9926 84.2043 30.1381C84.2043 38.4329 81.4705 40.5671 81.4705 42.9163C81.4705 45.2656 83.1447 47.1701 85.21 47.1701H90.7702Z" fill="url(#paint0_linear_979_16411)"/>
<path d="M132.074 57.8774C128.428 57.8774 125.01 55.8619 122.908 52.473L115.554 40.618C114.806 39.4109 113.23 39.4184 112.49 40.6327L105.33 52.3851C103.234 55.8251 99.7884 57.8774 96.109 57.8774H90.7271C89.8066 57.8774 89.2779 56.6859 89.8245 55.8434L101.586 37.7167C104.973 32.4971 104.998 25.3839 101.649 20.1329L90.7386 3.02549C90.2006 2.18185 90.7304 1 91.6467 1H97.0319C100.641 1 104.03 2.97536 106.138 6.30798L112.916 17.0225C113.666 18.2085 115.22 18.2007 115.961 17.0071L122.545 6.40037C124.647 3.01385 128.065 1 131.709 1H134.892C136.423 1 137.305 2.97852 136.401 4.38353L121.706 27.2078C121.224 27.9556 121.224 28.9719 121.705 29.7201L137.636 54.4949C138.539 55.9 137.657 57.8774 136.127 57.8774H132.074Z" fill="url(#paint1_linear_979_16411)"/>
<path fill-rule="evenodd" clip-rule="evenodd" d="M13.4216 55.0086L13.417 55.0058C9.34505 52.4744 6.11685 48.993 3.74517 44.5686L3.7424 44.5635L3.73969 44.5582C1.41042 40.0702 0.251953 35.0222 0.251953 29.436C0.251953 23.85 1.41041 18.8263 3.74172 14.3884L3.74309 14.3858C6.11483 9.90736 9.34486 6.42266 13.4216 3.94188C17.5457 1.40792 22.1581 0.148438 27.2421 0.148438C31.5198 0.148438 35.3987 1.00421 38.8663 2.73292C41.3597 3.95968 43.001 5.35198 44.5812 7.20322C45.2729 8.01356 45.4087 9.09485 45.194 10.0339C44.9816 10.963 44.416 11.8237 43.6057 12.2947C43.0852 12.5972 42.5374 12.9607 42.0075 13.3899C41.2369 14.0142 40.5441 14.6882 39.9803 15.2858C38.8442 16.49 37.0553 16.4436 35.9337 15.2773C34.7664 14.0635 33.727 13.4369 32.5196 13.097C31.2774 12.7473 29.8273 12.6905 27.7946 12.6905C24.9174 12.6905 22.377 13.4192 20.1535 14.8574L20.1486 14.8605L20.1437 14.8636C17.9198 16.2525 16.1791 18.2061 14.912 20.7386C13.6921 23.2685 13.0734 26.1604 13.0734 29.436C13.0734 32.7116 13.6921 35.6035 14.9121 38.1334C16.1795 40.6666 17.9216 42.6483 20.1486 44.09C22.3727 45.4777 24.915 46.1815 27.7946 46.1815C31.5013 46.1815 34.7166 44.8499 37.4639 42.1582C37.037 40.2654 36.8244 38.2687 36.8244 36.1706C36.8244 31.8402 37.7302 27.9413 39.5561 24.4979C41.3781 21.062 43.8977 18.3891 47.0993 16.4861C50.3484 14.5299 53.992 13.5602 58.0137 13.5602C62.0341 13.5602 65.6559 14.5294 68.8606 16.4871C72.0615 18.3901 74.5806 21.0626 76.4022 24.4979C78.2281 27.9413 79.1339 31.8402 79.1339 36.1706C79.1339 40.5011 78.2281 44.4 76.4022 47.8434C74.581 51.2779 72.0632 53.9753 68.8646 55.9303L68.8607 55.9326L68.8569 55.9349C65.6527 57.8389 62.0324 58.781 58.0137 58.781C53.9947 58.781 50.3533 57.8389 47.1054 55.9373L47.0995 55.9339L47.0937 55.9303C45.7779 55.1261 44.5774 54.1963 43.4931 53.1412C42.078 54.3187 40.5348 55.3184 38.8646 56.1399C35.3527 57.8674 31.4516 58.7236 27.1731 58.7236C22.1359 58.7236 17.5485 57.4907 13.4261 55.0114L13.4216 55.0086ZM42.9215 52.562C43.1275 52.3932 43.3307 52.2205 43.5311 52.044C43.7182 52.2384 43.9091 52.4287 44.1039 52.6149C45.1143 53.5806 46.2289 54.4359 47.4477 55.1809C50.5784 57.0138 54.1004 57.9303 58.0137 57.9303C61.927 57.9303 65.426 57.0138 68.5106 55.1809C71.5952 53.2956 74.0123 50.7033 75.7617 47.404C77.5112 44.1047 78.386 40.3602 78.386 36.1706C78.386 31.981 77.5112 28.2366 75.7617 24.9373C74.0123 21.638 71.5952 19.0719 68.5106 17.2389C65.426 15.3536 61.927 14.411 58.0137 14.411C54.1004 14.411 50.5784 15.3536 47.4477 17.2389C44.3631 19.0719 41.946 21.638 40.1965 24.9373C38.4471 28.2366 37.5723 31.981 37.5723 36.1706C37.5723 38.0383 37.7462 39.8175 38.0938 41.5083C38.1587 41.8237 38.2296 42.1361 38.3066 42.4454C38.1021 42.6571 37.895 42.8615 37.6852 43.0586C34.8654 45.7077 31.5685 47.0323 27.7946 47.0323C24.8021 47.0323 22.1318 46.2991 19.7838 44.8327C17.4358 43.314 15.5942 41.2192 14.2591 38.5484C12.97 35.8775 12.3255 32.84 12.3255 29.436C12.3255 26.032 12.97 22.9945 14.2591 20.3237C15.5942 17.6528 17.4358 15.5842 19.7838 14.1178C22.1318 12.5991 24.8021 11.8397 27.7946 11.8397C31.8451 11.8397 33.942 12.0537 36.4383 14.6494C37.2846 15.5293 38.6316 15.5525 39.4704 14.6634C40.0514 14.0475 40.7698 13.3481 41.5737 12.697C42.1387 12.2393 42.7188 11.8548 43.2653 11.5371C44.485 10.8282 44.9987 8.91368 44.0446 7.79587C42.5273 6.01833 40.9658 4.69251 38.5678 3.51294C35.2069 1.8371 31.4317 0.999185 27.2421 0.999185C22.2699 0.999185 17.7811 2.22988 13.7757 4.69126C9.81634 7.10027 6.68569 10.4781 4.38373 14.8248C2.12782 19.1191 0.999858 23.9895 0.999858 29.436C0.999858 34.8825 2.12782 39.779 4.38373 44.1257C6.68569 48.4201 9.81634 51.7979 13.7757 54.2593C17.7811 56.6683 22.2469 57.8728 27.1731 57.8728C31.3626 57.8728 35.1609 57.0349 38.5678 55.3591C40.1361 54.5876 41.5873 53.6553 42.9215 52.562ZM64.2392 44.1471L64.2395 44.1468C65.877 42.1886 66.7268 39.5602 66.7268 36.1706C66.7268 32.7802 65.8768 30.1833 64.2459 28.2806L64.2393 28.2729L64.2329 28.265C62.6362 26.3053 60.5849 25.3167 58.0137 25.3167C55.4423 25.3167 53.3639 26.3058 51.7188 28.2731L51.7156 28.2769L51.7124 28.2806C50.0815 30.1833 49.2315 32.7802 49.2315 36.1706C49.2315 39.5579 50.0802 42.185 51.7154 44.1427C53.3585 46.0579 55.438 47.0245 58.0137 47.0245C60.5909 47.0245 62.6441 46.0571 64.2392 44.1471ZM64.7814 44.7331C63.0319 46.8279 60.776 47.8753 58.0137 47.8753C55.2513 47.8753 52.9724 46.8279 51.1769 44.7331C49.3813 42.5859 48.4836 39.7318 48.4836 36.1706C48.4836 32.6095 49.3813 29.7815 51.1769 27.6867C52.9724 25.5396 55.2513 24.466 58.0137 24.466C60.776 24.466 63.0319 25.5396 64.7814 27.6867C66.5769 29.7815 67.4747 32.6095 67.4747 36.1706C67.4747 39.7318 66.5769 42.5859 64.7814 44.7331Z" fill="#032D60"/>
<path d="M58.2649 28.4393H58.0304V26.4658L57.5603 26.6851V26.4162L58.2283 26.0977H58.2649V28.4393Z" fill="#032D60"/>
<path d="M59.9989 27.7696C59.9456 28.1097 59.8603 28.3509 59.7429 28.4932C59.6255 28.6354 59.4695 28.682 59.275 28.6329C59.083 28.5844 58.9534 28.4679 58.8863 28.2834C58.8194 28.0978 58.8095 27.844 58.8565 27.5219L58.9173 27.1341C58.9699 26.7982 59.0548 26.5601 59.1718 26.42C59.2889 26.2798 59.4451 26.2344 59.6404 26.2838C59.8341 26.3327 59.9643 26.4477 60.0311 26.6288C60.098 26.8089 60.1069 27.0636 60.0579 27.3929L59.9989 27.7696ZM59.8324 27.3147C59.8709 27.0687 59.8717 26.8829 59.8349 26.7572C59.7982 26.6304 59.7209 26.5521 59.603 26.5224C59.486 26.4928 59.3919 26.5273 59.3208 26.6257C59.2497 26.7242 59.1951 26.8893 59.1571 27.1213L59.0843 27.5859C59.0456 27.8329 59.045 28.0226 59.0825 28.155C59.121 28.2866 59.1976 28.3669 59.3121 28.3958C59.4251 28.4243 59.5174 28.39 59.5892 28.2928C59.6618 28.1958 59.718 28.0283 59.7579 27.7903L59.8324 27.3147Z" fill="#032D60"/>
<path d="M60.6179 29.1534L60.4013 29.0395L60.996 27.2162L60.4956 27.1903L60.5766 26.9419L61.2898 26.9722L61.3236 26.99L60.6179 29.1534Z" fill="#032D60"/>
<path d="M62.4217 29.3773C62.27 29.6656 62.1184 29.847 61.9671 29.9214C61.8158 29.9957 61.6577 29.963 61.4928 29.8231C61.33 29.6849 61.2454 29.5144 61.239 29.3113C61.2331 29.1074 61.3004 28.8681 61.441 28.5933L61.614 28.2646C61.7638 27.9798 61.914 27.8011 62.0644 27.7285C62.2147 27.6559 62.3727 27.6898 62.5383 27.8303C62.7025 27.9697 62.7882 28.1392 62.7952 28.339C62.8028 28.5379 62.7343 28.7775 62.5898 29.0579L62.4217 29.3773ZM62.405 28.8761C62.5147 28.6676 62.5715 28.4963 62.5753 28.3622C62.5796 28.2273 62.5318 28.1174 62.4319 28.0326C62.3327 27.9484 62.2354 27.9346 62.14 27.991C62.0446 28.0474 61.9444 28.1734 61.8394 28.3692L61.6321 28.7632C61.5219 28.9725 61.4642 29.1475 61.4589 29.2881C61.4549 29.4284 61.5014 29.5397 61.5985 29.6221C61.6942 29.7033 61.7899 29.7165 61.8855 29.6616C61.9818 29.6072 62.0842 29.4798 62.1928 29.2793L62.405 28.8761Z" fill="#032D60"/>
<path d="M62.5765 30.9565L62.4107 30.746L63.5098 29.3505L63.0552 29.0834L63.2049 28.8933L63.8547 29.2679L63.8805 29.3007L62.5765 30.9565Z" fill="#032D60"/>
<path d="M64.1756 32.0399C63.9485 32.2325 63.7538 32.3265 63.5916 32.3216C63.4294 32.3168 63.2932 32.2097 63.183 32.0003C63.0742 31.7936 63.0475 31.5949 63.1028 31.4042C63.1588 31.213 63.2931 31.0246 63.5058 30.839L63.7647 30.6194C63.989 30.4291 64.1815 30.3369 64.3423 30.3429C64.5032 30.3489 64.6389 30.4571 64.7496 30.6674C64.8593 30.8759 64.8873 31.0741 64.8336 31.2621C64.7806 31.4495 64.6451 31.6376 64.4271 31.8264L64.1756 32.0399ZM64.3112 31.5687C64.4754 31.4294 64.5795 31.2987 64.6234 31.1767C64.6681 31.0541 64.657 30.9294 64.5902 30.8025C64.524 30.6765 64.4382 30.6164 64.3331 30.6222C64.228 30.628 64.0974 30.6958 63.9414 30.8256L63.6312 31.0888C63.4663 31.2287 63.3602 31.3623 63.313 31.4896C63.2669 31.6173 63.2764 31.7427 63.3413 31.8661C63.4052 31.9876 63.4896 32.0462 63.5945 32.042C63.6999 32.0386 63.8329 31.9706 63.9936 31.8381L64.3112 31.5687Z" fill="#032D60"/>
<path d="M63.8427 33.5741L63.7529 33.2991L65.1889 32.5438L64.8494 32.0762L65.045 31.9733L65.5325 32.6351L65.5464 32.678L63.8427 33.5741Z" fill="#032D60"/>
<path d="M64.9935 35.352C64.7256 35.4197 64.5175 35.4119 64.3691 35.3286C64.2207 35.2453 64.1271 35.0802 64.0884 34.8332C64.0502 34.5893 64.0854 34.3928 64.194 34.2435C64.3033 34.094 64.4842 33.9852 64.7366 33.9171L65.042 33.84C65.3065 33.7732 65.5122 33.7816 65.659 33.8653C65.8058 33.949 65.8986 34.1149 65.9374 34.3629C65.976 34.6088 65.9421 34.8056 65.8358 34.9532C65.7304 35.1006 65.5485 35.2086 65.2902 35.2771L64.9935 35.352ZM65.2608 34.9826C65.4545 34.9337 65.59 34.8635 65.6674 34.7722C65.7456 34.6806 65.773 34.56 65.7495 34.4104C65.7262 34.2618 65.6652 34.1646 65.5663 34.1188C65.4675 34.0731 65.3264 34.0722 65.1431 34.1164L64.7772 34.2088C64.5826 34.2579 64.4444 34.3298 64.3624 34.4245C64.2814 34.5201 64.2523 34.6406 64.2751 34.786C64.2975 34.9294 64.3579 35.0246 64.4561 35.0716C64.5544 35.1197 64.6978 35.1215 64.8862 35.0772L65.2608 34.9826Z" fill="#032D60"/>
<path d="M64.2235 36.6077V36.31H65.7778L65.6051 35.713H65.8169L66.0677 36.5613V36.6077H64.2235Z" fill="#032D60"/>
<path d="M64.751 38.8095C64.4831 38.7418 64.2932 38.6335 64.1811 38.4844C64.0691 38.3354 64.0324 38.1373 64.0711 37.8904C64.1093 37.6465 64.2011 37.482 64.3464 37.3968C64.4925 37.3119 64.6924 37.2993 64.9461 37.359L65.2514 37.4361C65.516 37.503 65.7035 37.6107 65.8139 37.7593C65.9242 37.908 65.96 38.1063 65.9211 38.3544C65.8826 38.6003 65.792 38.7656 65.6494 38.8504C65.5075 38.9353 65.307 38.9467 65.0477 38.8844L64.751 38.8095ZM65.1093 38.5981C65.3029 38.647 65.4493 38.6481 65.5483 38.6013C65.6481 38.5547 65.7098 38.4566 65.7332 38.3069C65.7565 38.1583 65.7294 38.0388 65.6518 37.9485C65.5743 37.8582 65.4442 37.7889 65.2616 37.7406L64.8956 37.6482C64.7011 37.5991 64.5517 37.5983 64.4474 37.646C64.3438 37.6948 64.2806 37.792 64.2578 37.9375C64.2353 38.0809 64.2624 38.1981 64.3389 38.2893C64.4153 38.3815 64.5472 38.4529 64.7347 38.5035L65.1093 38.5981Z" fill="#032D60"/>
<path d="M63.6612 39.5955L63.7509 39.3205L65.1868 40.0757L65.2072 39.4402L65.4029 39.5431L65.3789 40.4487L65.365 40.4916L63.6612 39.5955Z" fill="#032D60"/>
<path d="M63.4849 41.886C63.2578 41.6933 63.115 41.5009 63.0564 41.3087C62.9978 41.1166 63.0236 40.9158 63.1338 40.7064C63.2426 40.4997 63.3769 40.3923 63.5368 40.3842C63.6974 40.3767 63.8859 40.4622 64.1023 40.6407L64.3612 40.8603C64.5854 41.0506 64.7262 41.2412 64.7834 41.4322C64.8405 41.6232 64.8138 41.8238 64.7032 42.0341C64.5934 42.2426 64.4599 42.3513 64.3026 42.3603C64.1459 42.3698 63.9572 42.2829 63.7364 42.0994L63.4849 41.886ZM63.8796 41.8647C64.0438 42.004 64.1787 42.0761 64.2843 42.081C64.3906 42.0865 64.4771 42.0258 64.5438 41.8989C64.6101 41.7729 64.6211 41.6494 64.5767 41.5283C64.5322 41.4072 64.4329 41.2799 64.2788 41.1465L63.9685 40.8833C63.8036 40.7434 63.6658 40.6701 63.5551 40.6635C63.4446 40.6583 63.357 40.7174 63.2921 40.8407C63.2281 40.9622 63.2177 41.0837 63.261 41.2051C63.3038 41.3274 63.4041 41.4575 63.562 41.5953L63.8796 41.8647Z" fill="#032D60"/>
<path d="M62.2411 42.0826L62.4069 41.872L63.506 43.2675L63.7163 42.6903L63.8661 42.8805L63.571 43.7056L63.5452 43.7384L62.2411 42.0826Z" fill="#032D60"/>
<path d="M61.388 44.113C61.2363 43.8246 61.1623 43.5775 61.1661 43.3715C61.1699 43.1655 61.2542 42.9926 61.4191 42.8526C61.5819 42.7145 61.7384 42.6806 61.8886 42.7508C62.0392 42.8219 62.1876 42.9925 62.3337 43.2625L62.5067 43.5912C62.6565 43.876 62.7291 44.1205 62.7244 44.3248C62.7196 44.529 62.6345 44.7013 62.4689 44.8418C62.3047 44.9811 62.1486 45.0167 62.0005 44.9485C61.8529 44.8813 61.7048 44.7092 61.5561 44.4324L61.388 44.113ZM61.7591 44.2852C61.8688 44.4937 61.9717 44.6258 62.0677 44.6817C62.1643 44.7383 62.2625 44.7243 62.3624 44.6395C62.4617 44.5554 62.509 44.4465 62.5045 44.3131C62.4999 44.1796 62.4465 44.0138 62.3443 43.8156L62.137 43.4217C62.0268 43.2123 61.9216 43.0776 61.8213 43.0177C61.7208 42.9592 61.622 42.9712 61.5249 43.0536C61.4291 43.1348 61.383 43.242 61.3863 43.3752C61.389 43.509 61.4425 43.6779 61.5469 43.8819L61.7591 44.2852Z" fill="#032D60"/>
<path d="M60.1797 43.6903L60.3963 43.5764L60.9911 45.3997L61.3594 44.9686L61.4404 45.217L60.9192 45.8359L60.8854 45.8537L60.1797 43.6903Z" fill="#032D60"/>
<path d="M58.7795 45.1516C58.7263 44.8115 58.7324 44.5472 58.798 44.3587C58.8636 44.1702 58.9936 44.0514 59.1881 44.0023C59.3802 43.9538 59.535 43.9985 59.6525 44.1363C59.7703 44.2752 59.8559 44.5049 59.9096 44.8254L59.9703 45.2131C60.0229 45.5491 60.0163 45.8102 59.9504 45.9966C59.8845 46.183 59.7538 46.3008 59.5585 46.3502C59.3648 46.3991 59.2098 46.3561 59.0936 46.2212C58.9775 46.0873 58.8925 45.8564 58.8386 45.5284L58.7795 45.1516ZM59.0705 45.491C59.109 45.7369 59.1642 45.909 59.2362 46.0073C59.3083 46.1066 59.4033 46.1413 59.5211 46.1116C59.6382 46.082 59.7147 46.0045 59.7507 45.8789C59.7868 45.7534 59.7874 45.5743 59.7527 45.3415L59.6799 44.8769C59.6412 44.6299 59.5845 44.4543 59.51 44.3502C59.4347 44.2474 59.3398 44.2104 59.2253 44.2394C59.1124 44.2679 59.0374 44.3445 59.0004 44.4691C58.9625 44.594 58.9611 44.7761 58.996 45.0153L59.0705 45.491Z" fill="#032D60"/>
<path d="M57.7906 44.1739H58.0251V46.1474L58.4952 45.9282V46.1971L57.8272 46.5156H57.7906V44.1739Z" fill="#032D60"/>
<path d="M56.0566 44.8436C56.1099 44.5035 56.1952 44.2623 56.3126 44.12C56.43 43.9778 56.586 43.9312 56.7805 43.9804C56.9725 44.0289 57.1021 44.1454 57.1692 44.3299C57.2361 44.5154 57.246 44.7692 57.199 45.0913L57.1382 45.4791C57.0856 45.815 57.0007 46.0531 56.8837 46.1933C56.7666 46.3334 56.6104 46.3788 56.4151 46.3295C56.2214 46.2806 56.0912 46.1655 56.0244 45.9844C55.9575 45.8043 55.9486 45.5496 55.9976 45.2204L56.0566 44.8436ZM56.2231 45.2986C56.1846 45.5445 56.1838 45.7303 56.2206 45.8561C56.2573 45.9828 56.3346 46.0611 56.4525 46.0909C56.5695 46.1204 56.6636 46.086 56.7347 45.9875C56.8058 45.8891 56.8604 45.7239 56.8984 45.492L56.9712 45.0273C57.0099 44.7803 57.0105 44.5906 56.973 44.4582C56.9345 44.3266 56.8579 44.2463 56.7434 44.2174C56.6304 44.1889 56.5381 44.2232 56.4663 44.3204C56.3937 44.4174 56.3375 44.5849 56.2976 44.8229L56.2231 45.2986Z" fill="#032D60"/>
<path d="M55.4376 43.4598L55.6542 43.5737L55.0595 45.3971L55.5599 45.4229L55.4789 45.6714L54.7657 45.641L54.7319 45.6232L55.4376 43.4598Z" fill="#032D60"/>
<path d="M53.6338 43.236C53.7855 42.9476 53.9371 42.7663 54.0884 42.6919C54.2397 42.6175 54.3978 42.6503 54.5627 42.7902C54.7255 42.9283 54.8101 43.0989 54.8165 43.3019C54.8224 43.5058 54.755 43.7452 54.6145 44.0199L54.4415 44.3486C54.2917 44.6334 54.1415 44.8121 53.9911 44.8847C53.8408 44.9573 53.6828 44.9234 53.5172 44.7829C53.353 44.6436 53.2673 44.474 53.2603 44.2743C53.2527 44.0754 53.3212 43.8357 53.4657 43.5554L53.6338 43.236ZM53.6505 43.7372C53.5408 43.9457 53.484 44.117 53.4802 44.251C53.4759 44.386 53.5237 44.4958 53.6236 44.5806C53.7228 44.6648 53.8201 44.6787 53.9155 44.6223C54.0109 44.5659 54.1111 44.4398 54.2161 44.244L54.4234 43.8501C54.5336 43.6407 54.5913 43.4657 54.5966 43.3251C54.6006 43.1849 54.5541 43.0735 54.457 42.9911C54.3613 42.9099 54.2656 42.8968 54.17 42.9517C54.0737 43.006 53.9713 43.1334 53.8627 43.3339L53.6505 43.7372Z" fill="#032D60"/>
<path d="M53.479 41.6567L53.6448 41.8672L52.5457 43.2627L53.0003 43.5298L52.8506 43.72L52.2008 43.3453L52.175 43.3125L53.479 41.6567Z" fill="#032D60"/>
<path d="M51.8799 40.5734C52.107 40.3807 52.3017 40.2868 52.4639 40.2916C52.6261 40.2964 52.7623 40.4035 52.8725 40.6129C52.9813 40.8196 53.008 41.0183 52.9527 41.209C52.8967 41.4002 52.7624 41.5886 52.5497 41.7742L52.2908 41.9938C52.0665 42.1841 51.874 42.2763 51.7132 42.2703C51.5523 42.2643 51.4166 42.1561 51.3059 41.9459C51.1962 41.7374 51.1682 41.5391 51.2219 41.3511C51.2749 41.1637 51.4104 40.9756 51.6284 40.7868L51.8799 40.5734ZM51.7443 41.0446C51.5801 41.1839 51.476 41.3145 51.4321 41.4365C51.3874 41.5591 51.3985 41.6838 51.4653 41.8107C51.5315 41.9367 51.6173 41.9968 51.7224 41.991C51.8275 41.9853 51.9581 41.9175 52.1141 41.7877L52.4243 41.5244C52.5892 41.3845 52.6953 41.2509 52.7425 41.1236C52.7886 40.996 52.7791 40.8705 52.7142 40.7472C52.6503 40.6256 52.5658 40.567 52.461 40.5713C52.3556 40.5747 52.2226 40.6426 52.0619 40.7751L51.7443 41.0446Z" fill="#032D60"/>
<path d="M52.2128 39.0391L52.3026 39.3141L50.8666 40.0694L51.2061 40.5371L51.0105 40.64L50.523 39.9781L50.5091 39.9352L52.2128 39.0391Z" fill="#032D60"/>
<path d="M51.062 37.2612C51.3299 37.1936 51.538 37.2014 51.6864 37.2847C51.8348 37.3679 51.9284 37.5331 51.9671 37.7801C52.0053 38.0239 51.9701 38.2205 51.8615 38.3697C51.7522 38.5192 51.5713 38.628 51.3189 38.6961L51.0135 38.7732C50.7489 38.8401 50.5433 38.8316 50.3965 38.7479C50.2497 38.6642 50.1569 38.4984 50.1181 38.2503C50.0795 38.0044 50.1134 37.8076 50.2197 37.66C50.3251 37.5126 50.507 37.4047 50.7653 37.3362L51.062 37.2612ZM50.7947 37.6306C50.601 37.6796 50.4655 37.7497 50.3881 37.8411C50.3099 37.9326 50.2825 38.0532 50.306 38.2029C50.3293 38.3515 50.3903 38.4487 50.4892 38.4944C50.588 38.5402 50.7291 38.541 50.9124 38.4969L51.2783 38.4044C51.4729 38.3553 51.6111 38.2834 51.6931 38.1887C51.7741 38.0932 51.8032 37.9727 51.7804 37.8272C51.7579 37.6838 51.6976 37.5886 51.5994 37.5416C51.5011 37.4936 51.3577 37.4917 51.1693 37.536L50.7947 37.6306Z" fill="#032D60"/>
<path d="M51.832 36.0055V36.3032H50.2777L50.4504 36.9002H50.2386L49.9878 36.0519V36.0055H51.832Z" fill="#032D60"/>
<path d="M51.3045 33.8037C51.5724 33.8714 51.7623 33.9797 51.8744 34.1288C51.9864 34.2779 52.0231 34.4759 51.9844 34.7229C51.9462 34.9667 51.8544 35.1312 51.7091 35.2164C51.563 35.3013 51.3631 35.314 51.1094 35.2542L50.8041 35.1771C50.5395 35.1103 50.352 35.0025 50.2416 34.8539C50.1313 34.7053 50.0955 34.5069 50.1344 34.2589C50.1729 34.0129 50.2635 33.8476 50.4061 33.7629C50.548 33.6779 50.7485 33.6666 51.0078 33.7288L51.3045 33.8037ZM50.9462 34.0152C50.7526 33.9662 50.6062 33.9652 50.5072 34.012C50.4074 34.0586 50.3457 34.1567 50.3223 34.3063C50.299 34.455 50.3261 34.5744 50.4037 34.6647C50.4812 34.755 50.6113 34.8243 50.7939 34.8726L51.1599 34.9651C51.3544 35.0142 51.5038 35.0149 51.6081 34.9673C51.7117 34.9184 51.7749 34.8212 51.7977 34.6757C51.8201 34.5324 51.7931 34.4151 51.7166 34.324C51.6402 34.2318 51.5083 34.1604 51.3208 34.1098L50.9462 34.0152Z" fill="#032D60"/>
<path d="M52.3943 33.0177L52.3046 33.2928L50.8687 32.5375L50.8483 33.173L50.6526 33.0701L50.6766 32.1645L50.6905 32.1216L52.3943 33.0177Z" fill="#032D60"/>
<path d="M52.5706 30.7273C52.7977 30.92 52.9405 31.1124 52.9991 31.3045C53.0577 31.4967 53.0319 31.6974 52.9217 31.9068C52.8129 32.1135 52.6786 32.2209 52.5187 32.229C52.3581 32.2365 52.1696 32.151 51.9532 31.9726L51.6943 31.7529C51.4701 31.5626 51.3293 31.372 51.2721 31.181C51.215 30.9901 51.2417 30.7894 51.3523 30.5792C51.4621 30.3707 51.5956 30.2619 51.7529 30.253C51.9096 30.2434 52.0983 30.3304 52.3191 30.5139L52.5706 30.7273ZM52.1759 30.7485C52.0117 30.6092 51.8768 30.5371 51.7712 30.5322C51.6649 30.5268 51.5784 30.5875 51.5117 30.7143C51.4454 30.8403 51.4344 30.9639 51.4788 31.085C51.5233 31.2061 51.6226 31.3333 51.7767 31.4667L52.087 31.7299C52.2519 31.8698 52.3897 31.9431 52.5004 31.9498C52.6109 31.9549 52.6985 31.8959 52.7634 31.7725C52.8274 31.651 52.8378 31.5295 52.7945 31.4081C52.7517 31.2858 52.6514 31.1558 52.4935 31.018L52.1759 30.7485Z" fill="#032D60"/>
<path d="M53.8144 30.5307L53.6486 30.7412L52.5495 29.3457L52.3392 29.9229L52.1894 29.7328L52.4845 28.9077L52.5103 28.8749L53.8144 30.5307Z" fill="#032D60"/>
<path d="M54.6675 28.5002C54.8192 28.7886 54.8932 29.0358 54.8894 29.2417C54.8856 29.4477 54.8013 29.6207 54.6364 29.7606C54.4736 29.8987 54.3171 29.9327 54.1669 29.8624C54.0163 29.7913 53.8679 29.6207 53.7218 29.3507L53.5488 29.022C53.399 28.7372 53.3264 28.4927 53.3311 28.2885C53.3359 28.0843 53.421 27.9119 53.5866 27.7714C53.7508 27.6321 53.9069 27.5965 54.055 27.6647C54.2026 27.732 54.3507 27.904 54.4994 28.1808L54.6675 28.5002ZM54.2964 28.328C54.1867 28.1195 54.0838 27.9874 53.9878 27.9316C53.8912 27.8749 53.793 27.8889 53.6931 27.9737C53.5938 28.0579 53.5465 28.1667 53.551 28.3002C53.5556 28.4336 53.609 28.5995 53.7112 28.7976L53.9185 29.1915C54.0287 29.4009 54.1339 29.5356 54.2342 29.5955C54.3347 29.654 54.4335 29.642 54.5306 29.5596C54.6264 29.4784 54.6725 29.3712 54.6692 29.238C54.6665 29.1043 54.613 28.9354 54.5086 28.7313L54.2964 28.328Z" fill="#032D60"/>
<path d="M55.8758 28.923L55.6592 29.0369L55.0644 27.2136L54.6961 27.6446L54.6151 27.3962L55.1363 26.7773L55.1701 26.7595L55.8758 28.923Z" fill="#032D60"/>
<path d="M57.276 27.4616C57.3292 27.8018 57.3231 28.0661 57.2575 28.2545C57.1919 28.443 57.0619 28.5618 56.8674 28.6109C56.6753 28.6594 56.5205 28.6148 56.403 28.4769C56.2852 28.338 56.1996 28.1083 56.1459 27.7879L56.0852 27.4001C56.0326 27.0642 56.0392 26.803 56.1051 26.6166C56.171 26.4303 56.3017 26.3124 56.497 26.2631C56.6907 26.2141 56.8457 26.2571 56.9619 26.3921C57.078 26.5259 57.163 26.7569 57.2169 27.0849L57.276 27.4616ZM56.985 27.1222C56.9465 26.8763 56.8913 26.7042 56.8193 26.606C56.7472 26.5067 56.6522 26.4719 56.5344 26.5017C56.4173 26.5312 56.3408 26.6088 56.3048 26.7343C56.2687 26.8598 56.2681 27.0389 56.3028 27.2717L56.3756 27.7364C56.4143 27.9834 56.471 28.1589 56.5455 28.263C56.6208 28.3659 56.7157 28.4028 56.8302 28.3739C56.9431 28.3454 57.0181 28.2688 57.0551 28.1441C57.093 28.0192 57.0944 27.8371 57.0595 27.5979L56.985 27.1222Z" fill="#032D60"/>
<defs>
<linearGradient id="paint0_linear_979_16411" x1="103.903" y1="1" x2="103.903" y2="58.0001" gradientUnits="userSpaceOnUse">
<stop stop-color="#F4B941"/>
<stop offset="1" stop-color="#EA496F"/>
</linearGradient>
<linearGradient id="paint1_linear_979_16411" x1="103.903" y1="1" x2="103.903" y2="58.0001" gradientUnits="userSpaceOnUse">
<stop stop-color="#F4B941"/>
<stop offset="1" stop-color="#EA496F"/>
</linearGradient>
</defs>
</svg>
