<svg width="79" height="95" viewBox="0 0 79 95" fill="none" xmlns="http://www.w3.org/2000/svg">
<g clip-path="url(#clip0_11555_6125)">
<path d="M0 4.99999C0 2.23857 2.23858 0 5 0H39.2863H49.1078H51.5632V0C51.7063 0 51.8436 0.0561748 51.9457 0.156431L54.0186 2.19289L64.2866 12.5002L78.5726 26.6187V29.5763V35.4916V47.3221V89.6442C78.5726 92.4056 76.334 94.6442 73.5726 94.6442H5C2.23858 94.6442 0 92.4056 0 89.6442V4.99999Z" fill="#388E3C"/>
<path fill-rule="evenodd" clip-rule="evenodd" d="M51.7866 0L51.8009 18.6343C51.7864 19.7063 52.0067 20.7701 52.4482 21.7602C52.8897 22.7503 53.5431 23.6457 54.3681 24.3914C55.1932 25.1371 56.1724 25.7173 57.2457 26.0963C58.319 26.4753 59.5699 26.836 60.7153 26.7861L78.5727 26.7861L51.7866 0Z" fill="#C8E6C9"/>
<path d="M19.006 84H15.0515L21.0771 66.5455H25.8327L31.8498 84H27.8952L23.5231 70.5341H23.3867L19.006 84ZM18.7589 77.1392H28.0998V80.0199H18.7589V77.1392ZM33.9506 84V66.5455H40.837C42.1609 66.5455 43.2887 66.7983 44.2205 67.304C45.1523 67.804 45.8626 68.5 46.3512 69.392C46.8455 70.2784 47.0927 71.3011 47.0927 72.4602C47.0927 73.6193 46.8427 74.642 46.3427 75.5284C45.8427 76.4148 45.1183 77.1051 44.1694 77.5994C43.2262 78.0937 42.0842 78.3409 40.7433 78.3409H36.354V75.3835H40.1467C40.8569 75.3835 41.4421 75.2614 41.9023 75.017C42.3683 74.767 42.7148 74.4233 42.9421 73.9858C43.1751 73.5426 43.2915 73.0341 43.2915 72.4602C43.2915 71.8807 43.1751 71.375 42.9421 70.9432C42.7148 70.5057 42.3683 70.1676 41.9023 69.929C41.4364 69.6847 40.8455 69.5625 40.1296 69.5625H37.641V84H33.9506ZM49.4897 84V66.5455H53.18V74.2415H53.4102L59.6914 66.5455H64.1147L57.6374 74.3608L64.1914 84H59.7766L54.9954 76.8239L53.18 79.0398V84H49.4897Z" fill="white"/>
<path d="M51.0332 39.5042L27.8325 39.2742C26.9177 39.2652 26.1688 39.9177 26.1607 40.7309L26.0585 51.0423L29.3729 51.0751L29.4605 42.2368L31.1177 42.2532L31.0301 51.0916C31.022 51.9047 31.7579 52.572 32.6727 52.581L34.3299 52.5975L34.2861 57.0166L37.6005 57.0495L37.6443 52.6303L40.9586 52.6632L40.9148 57.0823L44.2292 57.1152L44.273 52.696L45.9302 52.7124C46.845 52.7215 47.594 52.0689 47.602 51.2558L47.6896 42.4174L49.3468 42.4339L49.2592 51.2722L52.5736 51.3051L52.6758 40.9936C52.6838 40.1805 51.948 39.5132 51.0332 39.5042Z" fill="white"/>
<path d="M31.7465 33.5754C31.7393 34.3028 32.4272 34.9 33.2821 34.9085L45.6716 35.0313C46.5265 35.0398 47.2261 34.4563 47.2333 33.7289C47.2466 32.3887 46.7804 31.1386 45.9792 30.0895L48.3843 28.0838L46.213 26.1974L43.8079 28.2032C42.5897 27.5018 41.1318 27.0788 39.5552 27.0632C37.9786 27.0476 36.5126 27.4416 35.2808 28.1187L32.9159 26.0656L30.7076 27.9086L33.0725 29.9616C32.2506 30.9946 31.7597 32.2352 31.7465 33.5754Z" fill="white"/>
</g>
<defs>
<clipPath id="clip0_11555_6125">
<rect width="79" height="95" fill="white"/>
</clipPath>
</defs>
</svg>
