<svg width="79" height="95" viewBox="0 0 79 95" fill="none" xmlns="http://www.w3.org/2000/svg">
<g clip-path="url(#clip0_11555_6130)">
<path d="M0 4.99999C0 2.23857 2.23858 0 5 0H39.2863H49.1078H51.5632V0C51.7063 0 51.8436 0.0561748 51.9457 0.156431L54.0186 2.19289L64.2866 12.5002L78.5726 26.6187V29.5763V35.4916V47.3221V89.6442C78.5726 92.4056 76.334 94.6442 73.5726 94.6442H5C2.23858 94.6442 0 92.4056 0 89.6442V4.99999Z" fill="#673AB7"/>
<path fill-rule="evenodd" clip-rule="evenodd" d="M51.7866 0L51.8009 18.6343C51.7864 19.7063 52.0067 20.7701 52.4482 21.7602C52.8897 22.7503 53.5431 23.6457 54.3681 24.3914C55.1932 25.1371 56.1724 25.7173 57.2457 26.0963C58.319 26.4753 59.5699 26.836 60.7153 26.7861L78.5727 26.7861L51.7866 0Z" fill="#B388FF"/>
<path d="M39.2572 42.2389L39.1158 56.5166C38.2987 55.9909 37.37 55.6639 36.4038 55.5617C35.4377 55.4595 34.4611 55.585 33.5522 55.9282C32.4473 56.3184 31.4629 56.9894 30.6958 57.8751C29.9288 58.7609 29.4053 59.831 29.1769 60.9803C28.9837 62.0278 29.0433 63.1063 29.3506 64.1262C29.658 65.1461 30.2043 66.078 30.9442 66.8443C31.684 67.6107 32.596 68.1895 33.6045 68.5325C34.6129 68.8756 35.6887 68.9731 36.7424 68.8169C38.3342 68.526 39.7723 67.6829 40.8034 66.4358C41.8346 65.1888 42.3927 63.6179 42.3794 61.9999L42.5402 45.7672L45.9171 45.8006C46.797 45.8094 47.6443 45.4682 48.2727 44.8522C48.901 44.2362 49.2589 43.3958 49.2676 42.5159C49.2763 41.636 48.9352 40.7887 48.3192 40.1603C47.7031 39.532 46.8628 39.1741 45.9829 39.1654L42.606 39.1319C41.7561 39.1223 40.9348 39.4392 40.3117 40.0173C39.6886 40.5954 39.3112 41.3907 39.2572 42.2389Z" fill="#EDE7F6"/>
</g>
<defs>
<clipPath id="clip0_11555_6130">
<rect width="79" height="95" fill="white"/>
</clipPath>
</defs>
</svg>
