<svg width="32" height="36" viewBox="0 0 32 36" fill="none" xmlns="http://www.w3.org/2000/svg">
<g clip-path="url(#clip0)">
<path d="M22.6865 0H1.08874C0.487442 0 0 0.421071 0 1.23814V35.3571C0 35.5789 0.487442 36 1.08874 36H30.9113C31.5126 36 32 35.5789 32 35.3571V8.343C32 7.89557 31.9308 7.75157 31.8087 7.6455L23.1494 0.165214C23.0266 0.0597857 22.8599 0 22.6865 0Z" fill="#E9E9E0"/>
<path d="M23.0698 0.097168V7.71438H31.8877L23.0698 0.097168Z" fill="#D9D7CA"/>
<path d="M30.9113 35.9999H1.08874C0.487442 35.9999 0 35.5788 0 35.0594V25.0713H32V35.0594C32 35.5788 31.5126 35.9999 30.9113 35.9999Z" fill="#F36FA0"/>
<path d="M11.2224 33.4127C10.944 33.6467 10.6285 33.8228 10.2765 33.9398C9.92375 34.0575 9.54421 34.1153 9.13714 34.1153C8.68914 34.1153 8.27761 34.0453 7.90105 33.9045C7.52449 33.7637 7.19556 33.5561 6.91426 33.2803C6.63296 33.0045 6.41193 32.6593 6.25268 32.2433C6.09342 31.8274 6.01379 31.3466 6.01379 30.8021C6.01379 30.2576 6.09342 29.778 6.25268 29.3653C6.41193 28.9519 6.63221 28.608 6.91426 28.3328C7.19556 28.0571 7.52598 27.8481 7.90626 27.7041C8.28579 27.5601 8.69658 27.4888 9.13714 27.4888C9.54421 27.4888 9.92375 27.5473 10.2765 27.6643C10.6292 27.7819 10.944 27.9574 11.2224 28.1914L10.3777 28.842C10.208 28.6716 10.0197 28.5488 9.81286 28.473C9.60598 28.3971 9.39091 28.3586 9.16691 28.3586C8.91612 28.3586 8.67649 28.3991 8.44951 28.4813C8.22179 28.5636 8.01863 28.7025 7.83928 28.8986C7.65919 29.0953 7.51854 29.3479 7.41733 29.6591C7.31612 29.9702 7.26105 30.3501 7.25435 30.8014C7.26105 31.2411 7.31389 31.6159 7.41212 31.9264C7.51035 32.2369 7.64579 32.4902 7.81919 32.6869C7.99258 32.8836 8.18905 33.0263 8.40933 33.1176C8.62961 33.2089 8.86179 33.2539 9.10663 33.2539C9.35147 33.2539 9.57993 33.2153 9.79351 33.1395C10.0071 33.0636 10.2021 32.9402 10.3784 32.7705L11.2224 33.4127Z" fill="white"/>
<path d="M17.2153 32.2961C17.2153 32.5301 17.1595 32.7576 17.0472 32.9775C16.9348 33.1973 16.7778 33.3908 16.5739 33.5573C16.3699 33.7238 16.1192 33.8576 15.8207 33.9572C15.5223 34.0568 15.183 34.1063 14.8034 34.1063C14.6405 34.1063 14.473 34.0986 14.2996 34.0845C14.1262 34.0703 13.9521 34.0446 13.7757 34.0099C13.5993 33.9746 13.4312 33.9263 13.2719 33.8646C13.1126 33.8029 12.975 33.7283 12.8596 33.6403L13.0732 32.8843C13.1677 32.9312 13.2883 32.9768 13.4341 33.0206C13.58 33.0643 13.7303 33.1054 13.8866 33.1433C14.0421 33.1819 14.1984 33.2121 14.3547 33.2359C14.5102 33.2591 14.6561 33.2713 14.7923 33.2713C15.206 33.2713 15.5231 33.1877 15.7433 33.0206C15.9636 32.8534 16.0738 32.6059 16.0738 32.2781C16.0738 32.0788 15.9956 31.9091 15.8401 31.7683C15.6838 31.6275 15.4888 31.5002 15.2552 31.3858C15.0215 31.2713 14.7685 31.1576 14.4968 31.0431C14.2252 30.9287 13.9707 30.7937 13.734 30.6388C13.4966 30.4838 13.3002 30.3006 13.1439 30.0898C12.9876 29.8789 12.9102 29.6153 12.9102 29.2991C12.9102 29.0123 12.9712 28.7571 13.0933 28.5347C13.2153 28.3123 13.3798 28.1226 13.5867 27.9677C13.7936 27.8128 14.0347 27.6938 14.3093 27.6116C14.5839 27.5293 14.8741 27.4888 15.1792 27.4888C15.4911 27.4888 15.8066 27.5138 16.1251 27.5633C16.4436 27.6128 16.7011 27.6938 16.8983 27.8051C16.8574 27.8809 16.8098 27.9645 16.7562 28.0558C16.7019 28.1471 16.6505 28.2313 16.6036 28.3103C16.556 28.3894 16.5151 28.4556 16.4816 28.5083C16.4473 28.5611 16.4272 28.5906 16.4206 28.5964C16.3796 28.5791 16.3342 28.5559 16.2829 28.5263C16.2315 28.4968 16.1586 28.4678 16.0641 28.4383C15.9688 28.4087 15.8438 28.3888 15.6875 28.3766C15.5312 28.3643 15.3311 28.3676 15.087 28.3856C14.9508 28.3978 14.8228 28.4306 14.7 28.4865C14.5772 28.5424 14.4693 28.6106 14.374 28.6928C14.2788 28.7751 14.2044 28.8671 14.15 28.9699C14.0957 29.0721 14.0689 29.1711 14.0689 29.2643C14.0689 29.4983 14.1463 29.6873 14.3026 29.8313C14.4581 29.9753 14.6516 30.1007 14.8823 30.2093C15.113 30.318 15.3638 30.4234 15.6354 30.5256C15.9063 30.6278 16.1593 30.7532 16.3938 30.8991C16.6282 31.0451 16.8224 31.2289 16.9787 31.4481C17.1372 31.668 17.2153 31.9502 17.2153 32.2961Z" fill="white"/>
<path d="M20.4913 34.107L18.1613 27.5942H19.5551L21.295 33.1839L23.1369 27.5942H24.5203L22.0787 34.107H20.4913Z" fill="white"/>
<path d="M12.6512 10.2853V7.71387H3.72095V10.2853V11.571V12.8567V14.1424V15.4282V16.7139V17.9996V19.2853V21.8567H11.1628H12.6512H28.2791V19.2853V17.9996V16.7139V15.4282V14.1424V12.8567V10.2853H12.6512ZM5.20932 8.99958H11.1628V10.2853H5.20932V8.99958ZM5.20932 11.571H11.1628V12.8567H5.20932V11.571ZM5.20932 14.1424H11.1628V15.4282H5.20932V14.1424ZM5.20932 16.7139H11.1628V17.9996H5.20932V16.7139ZM11.1628 20.571H5.20932V19.2853H11.1628V20.571ZM26.7907 20.571H12.6512V19.2853H26.7907V20.571ZM26.7907 17.9996H12.6512V16.7139H26.7907V17.9996ZM26.7907 15.4282H12.6512V14.1424H26.7907V15.4282ZM12.6512 12.8567V11.571H26.7907V12.8567H12.6512Z" fill="#C8BDB8"/>
</g>
<defs>
<clipPath id="clip0">
<rect width="32" height="36" fill="white"/>
</clipPath>
</defs>
</svg>
