<svg width="79" height="95" viewBox="0 0 79 95" fill="none" xmlns="http://www.w3.org/2000/svg">
<g clip-path="url(#clip0_11555_6117)">
<path d="M0 4.99999C0 2.23857 2.23858 0 5 0H39.2863H49.1078H51.5632V0C51.7063 0 51.8436 0.0561748 51.9457 0.156431L54.0186 2.19289L64.2866 12.5002L78.5726 26.6187V29.5763V35.4916V47.3221V89.6442C78.5726 92.4056 76.334 94.6442 73.5726 94.6442H5C2.23858 94.6442 0 92.4056 0 89.6442V4.99999Z" fill="#4CAF50"/>
<path fill-rule="evenodd" clip-rule="evenodd" d="M51.7866 0L51.8009 18.6343C51.7864 19.7063 52.0067 20.7701 52.4482 21.7602C52.8897 22.7503 53.5431 23.6457 54.3681 24.3914C55.1932 25.1371 56.1724 25.7173 57.2457 26.0963C58.319 26.4753 59.5699 26.836 60.7153 26.7861L78.5727 26.7861L51.7866 0Z" fill="#B9F6CA"/>
<path d="M30.5543 72.6562H26.8214C26.7532 72.1733 26.614 71.7443 26.4038 71.3693C26.1935 70.9886 25.9237 70.6648 25.5941 70.3977C25.2646 70.1307 24.8839 69.9261 24.4521 69.7841C24.0259 69.642 23.5629 69.571 23.0629 69.571C22.1594 69.571 21.3725 69.7955 20.7021 70.2443C20.0316 70.6875 19.5117 71.3352 19.1424 72.1875C18.7731 73.0341 18.5884 74.0625 18.5884 75.2727C18.5884 76.517 18.7731 77.5625 19.1424 78.4091C19.5174 79.2557 20.0401 79.8949 20.7106 80.3267C21.381 80.7585 22.1566 80.9744 23.0373 80.9744C23.5316 80.9744 23.989 80.9091 24.4094 80.7784C24.8356 80.6477 25.2134 80.4574 25.543 80.2074C25.8725 79.9517 26.1452 79.642 26.3612 79.2784C26.5827 78.9148 26.7362 78.5 26.8214 78.0341L30.5543 78.0511C30.4577 78.8523 30.2163 79.625 29.8299 80.3693C29.4492 81.108 28.935 81.7699 28.2873 82.3551C27.6452 82.9347 26.8782 83.3949 25.9862 83.7358C25.0998 84.071 24.0969 84.2386 22.9776 84.2386C21.4208 84.2386 20.0288 83.8864 18.8015 83.1818C17.5799 82.4773 16.614 81.4574 15.9038 80.1222C15.1992 78.7869 14.8469 77.1705 14.8469 75.2727C14.8469 73.3693 15.2049 71.75 15.9208 70.4148C16.6367 69.0795 17.6083 68.0625 18.8356 67.3636C20.0629 66.6591 21.4435 66.3068 22.9776 66.3068C23.989 66.3068 24.9265 66.4489 25.7901 66.733C26.6594 67.017 27.4293 67.4318 28.0998 67.9773C28.7702 68.517 29.3157 69.179 29.7362 69.9631C30.1623 70.7472 30.435 71.6449 30.5543 72.6562ZM42.6694 71.5653C42.6012 70.8778 42.3086 70.3437 41.7915 69.9631C41.2745 69.5824 40.5728 69.392 39.6864 69.392C39.0842 69.392 38.5756 69.4773 38.1609 69.6477C37.7461 69.8125 37.4279 70.0426 37.2063 70.3381C36.9904 70.6335 36.8825 70.9688 36.8825 71.3438C36.8711 71.6562 36.9364 71.929 37.0785 72.1619C37.2262 72.3949 37.4279 72.5966 37.6836 72.767C37.9393 72.9318 38.2347 73.0767 38.57 73.2017C38.9052 73.321 39.2631 73.4233 39.6438 73.5085L41.212 73.8835C41.9734 74.054 42.6722 74.2812 43.3086 74.5653C43.945 74.8494 44.4961 75.1989 44.962 75.6136C45.4279 76.0284 45.7887 76.517 46.0444 77.0795C46.3058 77.642 46.4393 78.2869 46.445 79.0142C46.4393 80.0824 46.1665 81.0085 45.6268 81.7926C45.0927 82.571 44.32 83.1761 43.3086 83.608C42.3029 84.0341 41.0898 84.2472 39.6694 84.2472C38.2603 84.2472 37.033 84.0312 35.9876 83.5994C34.9478 83.1676 34.1353 82.5284 33.5501 81.6818C32.9705 80.8295 32.6665 79.7756 32.6381 78.5199H36.2092C36.2489 79.1051 36.4165 79.5937 36.712 79.9858C37.0131 80.3722 37.4137 80.6648 37.9137 80.8636C38.4194 81.0568 38.9904 81.1534 39.6268 81.1534C40.2518 81.1534 40.7944 81.0625 41.2546 80.8807C41.7205 80.6989 42.0813 80.446 42.337 80.1222C42.5927 79.7983 42.7205 79.4261 42.7205 79.0057C42.7205 78.6136 42.604 78.2841 42.3711 78.017C42.1438 77.75 41.8086 77.5227 41.3654 77.3352C40.9279 77.1477 40.391 76.9773 39.7546 76.8239L37.854 76.3466C36.3825 75.9886 35.2205 75.429 34.3683 74.6676C33.516 73.9062 33.0927 72.8807 33.0984 71.5909C33.0927 70.5341 33.3739 69.6108 33.9421 68.821C34.516 68.0312 35.3029 67.4148 36.3029 66.9716C37.3029 66.5284 38.4393 66.3068 39.712 66.3068C41.0075 66.3068 42.1381 66.5284 43.104 66.9716C44.0756 67.4148 44.8313 68.0312 45.3711 68.821C45.9109 69.6108 46.1893 70.5256 46.2063 71.5653H42.6694ZM52.0806 66.5455L56.2994 79.8068H56.4613L60.6886 66.5455H64.7795L58.7624 84H54.0067L47.9812 66.5455H52.0806Z" fill="white"/>
</g>
<defs>
<clipPath id="clip0_11555_6117">
<rect width="79" height="95" fill="white"/>
</clipPath>
</defs>
</svg>
