<svg width="30" height="31" viewBox="0 0 30 31" fill="none" xmlns="http://www.w3.org/2000/svg">
<path d="M6.42754 19.5161H2.14186C0.958405 19.5161 -0.000976562 20.4755 -0.000976562 21.659V28.0875C-0.000976562 29.2709 0.958405 30.2303 2.14186 30.2303H6.42754C7.611 30.2303 8.57038 29.2709 8.57038 28.0875V21.659C8.57038 20.4755 7.611 19.5161 6.42754 19.5161Z" fill="#0A77DB"/>
<path d="M17.1418 10.9453H12.8562C11.6727 10.9453 10.7133 11.9047 10.7133 13.0882V28.088C10.7133 29.2715 11.6727 30.2309 12.8562 30.2309H17.1418C18.3253 30.2309 19.2847 29.2715 19.2847 28.088V13.0882C19.2847 11.9047 18.3253 10.9453 17.1418 10.9453Z" fill="#0A77DB" fill-opacity="0.5"/>
<path d="M27.8559 0.230957H23.5702C22.3867 0.230957 21.4274 1.19034 21.4274 2.3738V28.0879C21.4274 29.2713 22.3867 30.2307 23.5702 30.2307H27.8559C29.0393 30.2307 29.9987 29.2713 29.9987 28.0879V2.3738C29.9987 1.19034 29.0393 0.230957 27.8559 0.230957Z" fill="#0A77DB"/>
</svg>
