<svg width="30" height="31" viewBox="0 0 30 31" fill="none" xmlns="http://www.w3.org/2000/svg">
<g clip-path="url(#clip0_12473_27124)">
<path d="M20.6732 17.2399H10.1954L8.98214 14.5858C8.66169 14.1104 8.12265 13.8247 7.54505 13.8247H2.58085C1.41071 13.8247 0.579407 14.9523 0.938389 16.0548L5.00571 28.5771C5.23525 29.283 5.89972 29.7622 6.64875 29.7622H24.4391C25.6657 29.7622 26.501 28.5317 26.0361 27.4081L22.2709 18.3008C22.0056 17.6588 21.3745 17.2399 20.6732 17.2399Z" fill="#0A77DB"/>
<path opacity="0.6" d="M9.8404 13.8247L14.1286 4.33035C14.4693 3.57631 15.1314 3.11647 15.854 3.03424L14.9477 1.02809C14.8545 0.821341 14.6594 0.699722 14.4572 0.699722C14.3815 0.699146 14.3052 0.715358 14.2327 0.750693L2.11302 6.53629C1.91085 6.633 1.7915 6.84382 1.7915 7.06388C1.7915 7.14844 1.80839 7.23357 1.8449 7.31466L4.3435 12.8616H7.58487C8.43609 12.8616 9.23775 13.2143 9.8404 13.8247Z" fill="#0A77DB"/>
<path d="M28.2107 13.8247H27.1209L24.2915 19.7193L26.8727 26.0122L29.8453 16.0073C30.1685 14.9183 29.3504 13.8247 28.2107 13.8247Z" fill="#0A77DB"/>
<path opacity="0.6" d="M18.8789 15.9853L14.358 13.9776C14.1559 13.8842 14.1341 13.5987 14.3198 13.4736L18.6847 10.8419C18.7331 10.8096 18.7869 10.7947 18.8385 10.7947C18.9576 10.7952 19.0716 10.8731 19.1086 11.0017L19.8435 14.484L21.2189 14.2579C21.3699 14.2331 21.512 14.337 21.5394 14.4909L21.8819 16.2436C22.5213 16.5089 23.0687 16.9681 23.4482 17.5747L27.049 9.88394C27.1849 9.59153 27.0602 9.24203 26.7728 9.10881L16.8047 4.5007C16.5273 4.3721 16.2006 4.49494 16.068 4.77696L11.1665 15.2673L11.4831 15.9853H18.8789ZM22.6134 9.64117C23.2332 9.64117 23.7362 10.158 23.7362 10.7947C23.7362 11.4314 23.2332 11.9481 22.6134 11.9481C21.9937 11.9481 21.4906 11.4314 21.4906 10.7947C21.4906 10.158 21.9937 9.64117 22.6134 9.64117Z" fill="#0A77DB"/>
</g>
<defs>
<clipPath id="clip0_12473_27124">
<rect width="30" height="30" fill="white" transform="translate(-0.0012207 0.230957)"/>
</clipPath>
</defs>
</svg>
