<svg width="32" height="32" viewBox="0 0 32 32" fill="none" xmlns="http://www.w3.org/2000/svg">
<path d="M21.0407 18.1331H11.3271L10.2023 15.6462C9.90522 15.2008 9.40549 14.9331 8.87002 14.9331H4.26789C3.18309 14.9331 2.41242 15.9896 2.74522 17.0227L6.51589 28.756C6.72869 29.4174 7.34469 29.8664 8.03909 29.8664H24.5319C25.669 29.8664 26.4434 28.7134 26.0124 27.6606L22.5218 19.1272C22.2759 18.5256 21.6908 18.1331 21.0407 18.1331Z" fill="white"/>
<path opacity="0.6" d="M11.0775 14.2202L15.2743 5.47678C15.6077 4.78238 16.2557 4.35891 16.9629 4.28318L16.0759 2.43571C15.9847 2.24531 15.7938 2.13331 15.5959 2.13331C15.5218 2.13278 15.4471 2.14771 15.3762 2.18025L3.51486 7.50825C3.317 7.59731 3.2002 7.79145 3.2002 7.99411C3.2002 8.07198 3.21673 8.15038 3.25246 8.22505L5.69779 13.3333H8.87006C9.70313 13.3333 10.4877 13.6581 11.0775 14.2202Z" fill="white"/>
<path d="M28.2654 14.3999H27.2424L24.5864 19.9482L27.0094 25.8714L29.7998 16.4543C30.1032 15.4292 29.3352 14.3999 28.2654 14.3999Z" fill="white"/>
<path opacity="0.6" d="M19.3855 16.5332L15.0906 14.6766C14.8986 14.5902 14.8778 14.3262 15.0543 14.2105L19.201 11.7769C19.2469 11.747 19.2981 11.7332 19.3471 11.7332C19.4602 11.7337 19.5685 11.8057 19.6037 11.9246L20.3018 15.1449L21.6085 14.9358C21.7519 14.9129 21.8869 15.0089 21.913 15.1513L22.2383 16.7721C22.8458 17.0174 23.3658 17.442 23.7263 18.003L27.1471 10.891C27.2762 10.6206 27.1578 10.2974 26.8847 10.1742L17.4149 5.91288C17.1514 5.79395 16.841 5.90755 16.7151 6.16835L12.0586 15.8692L12.3594 16.5332H19.3855ZM22.9333 10.6665C23.5221 10.6665 23.9999 11.1444 23.9999 11.7332C23.9999 12.322 23.5221 12.7998 22.9333 12.7998C22.3445 12.7998 21.8666 12.322 21.8666 11.7332C21.8666 11.1444 22.3445 10.6665 22.9333 10.6665Z" fill="white"/>
</svg>
