<svg width="30" height="31" viewBox="0 0 30 31" fill="none" xmlns="http://www.w3.org/2000/svg">
<g clip-path="url(#clip0_12473_27129)">
<path d="M26.9712 30.149C27.7844 30.149 28.4436 29.4898 28.4436 28.6766C28.4436 27.8633 27.7844 27.2041 26.9712 27.2041C26.158 27.2041 25.4987 27.8633 25.4987 28.6766C25.4987 29.4898 26.158 30.149 26.9712 30.149Z" fill="#0A77DB"/>
<path d="M3.41202 30.149C4.22524 30.149 4.88447 29.4898 4.88447 28.6766C4.88447 27.8633 4.22524 27.2041 3.41202 27.2041C2.59881 27.2041 1.93958 27.8633 1.93958 28.6766C1.93958 29.4898 2.59881 30.149 3.41202 30.149Z" fill="#0A77DB"/>
<path d="M0.467102 12.479V18.3688C0.467102 19.9929 1.78789 21.3137 3.412 21.3137H13.7192V27.2035H6.3569V30.1484H24.0263V27.2035H16.6641V21.3137H26.9712C28.5953 21.3137 29.9161 19.9929 29.9161 18.3688V12.479H0.467102ZM12.2467 18.3688H4.88445V15.4239H12.2467V18.3688ZM19.609 18.3688C18.7962 18.3688 18.1365 17.7106 18.1365 16.8964C18.1365 16.0836 18.7962 15.4239 19.609 15.4239C20.4217 15.4239 21.0814 16.0836 21.0814 16.8964C21.0814 17.7106 20.4217 18.3688 19.609 18.3688ZM24.0263 18.3688C23.2135 18.3688 22.5539 17.7106 22.5539 16.8964C22.5539 16.0836 23.2135 15.4239 24.0263 15.4239C24.8391 15.4239 25.4988 16.0836 25.4988 16.8964C25.4988 17.7106 24.8391 18.3688 24.0263 18.3688Z" fill="#0A77DB"/>
<path opacity="0.6" d="M29.9165 9.53441V3.64461C29.9165 2.0205 28.5957 0.699707 26.9716 0.699707H3.41237C1.78826 0.699707 0.467468 2.0205 0.467468 3.64461V9.53441H29.9165ZM24.0267 3.64461C24.8395 3.64461 25.4991 4.30427 25.4991 5.11706C25.4991 5.93132 24.8395 6.58951 24.0267 6.58951C23.2139 6.58951 22.5542 5.93132 22.5542 5.11706C22.5542 4.30427 23.2139 3.64461 24.0267 3.64461ZM19.6093 3.64461C20.4221 3.64461 21.0818 4.30427 21.0818 5.11706C21.0818 5.93132 20.4221 6.58951 19.6093 6.58951C18.7965 6.58951 18.1369 5.93132 18.1369 5.11706C18.1369 4.30427 18.7965 3.64461 19.6093 3.64461ZM4.88482 3.64461H12.2471V6.58951H4.88482V3.64461Z" fill="#0A77DB"/>
</g>
<defs>
<clipPath id="clip0_12473_27129">
<rect width="30" height="30" fill="white" transform="translate(-0.0012207 0.230957)"/>
</clipPath>
</defs>
</svg>
