<svg width="32" height="32" viewBox="0 0 32 32" fill="none" xmlns="http://www.w3.org/2000/svg">
<path opacity="0.6" d="M5.8667 24.0001H6.40003C8.5291 24.0001 10.472 20.6326 14.5238 20.4166C14.7958 20.4022 15.0678 20.3814 15.335 20.3318L18.4827 19.7505C18.543 19.7398 18.6043 19.7334 18.6667 19.7334C19.2555 19.7334 19.7334 20.2113 19.7334 20.8001C19.7334 21.2177 19.4891 21.5718 19.143 21.7547L14.8907 24.0001H24.5334L19.4998 28.2198C18.5995 28.9702 17.512 29.3355 16.2795 29.3334C12.5979 29.327 10.2486 28.8001 7.5099 28.8001H5.8667V24.0001Z" fill="white"/>
<path d="M3.7333 29.8664H2.1333V22.9331H3.7333C4.3221 22.9331 4.79997 23.411 4.79997 23.9998V28.7998C4.79997 29.3886 4.3221 29.8664 3.7333 29.8664Z" fill="white"/>
<path d="M8.30146 21.3444C9.72173 20.3406 11.6673 18.9662 14.4391 18.819C14.6305 18.8089 14.8535 18.7934 15.0476 18.7582L18.1927 18.1774C18.3505 18.1476 18.51 18.1332 18.6668 18.1332C20.1372 18.1332 21.3335 19.3294 21.3335 20.7998C21.3335 21.387 21.1399 21.9444 20.7964 22.3998H28.2668C29.15 22.3998 29.8668 21.6836 29.8668 20.7998V4.2665C29.8668 3.38277 29.15 2.6665 28.2668 2.6665H22.0636C21.5281 2.6665 21.0284 2.93424 20.7313 3.37957L19.0732 5.8665H9.0668C8.1836 5.8665 7.4668 6.58277 7.4668 7.4665V20.7998C7.4668 21.1438 7.5772 21.4601 7.76226 21.7214C7.93986 21.5998 8.12173 21.4718 8.30146 21.3444ZM21.3335 10.6665C21.494 10.6665 21.6567 10.7017 21.8108 10.779L22.4001 11.074V10.1332C22.4001 9.54437 22.878 9.0665 23.4668 9.0665C24.0556 9.0665 24.5335 9.54437 24.5335 10.1332V11.074L25.1228 10.779C25.2769 10.7017 25.4396 10.6665 25.6001 10.6665C26.1911 10.667 26.6673 11.146 26.6668 11.7332C26.6668 12.1241 26.4513 12.5001 26.0775 12.6873L25.0876 13.1828L25.9201 14.2932C26.0641 14.4852 26.1335 14.7102 26.1335 14.9332C26.1335 15.5262 25.6519 15.9998 25.0668 15.9998C24.7425 15.9998 24.4231 15.8526 24.2135 15.5732L23.4668 14.5774L22.7201 15.5732C22.5105 15.8526 22.1911 15.9998 21.8668 15.9998C21.2817 15.9998 20.8001 15.5262 20.8001 14.9332C20.8001 14.7102 20.8695 14.4852 21.0135 14.2932L21.8471 13.1828L20.8567 12.6873C20.4823 12.5001 20.2668 12.1241 20.2668 11.7332C20.2663 11.1465 20.742 10.667 21.3335 10.6665ZM14.9335 7.99984C15.5223 7.99984 16.0001 8.4777 16.0001 9.0665C16.0001 9.6553 15.5223 10.1332 14.9335 10.1332C14.3447 10.1332 13.8668 9.6553 13.8668 9.0665C13.8668 8.4777 14.3447 7.99984 14.9335 7.99984ZM10.6668 7.99984C11.2556 7.99984 11.7335 8.4777 11.7335 9.0665C11.7335 9.6553 11.2556 10.1332 10.6668 10.1332C10.078 10.1332 9.60013 9.6553 9.60013 9.0665C9.60013 8.4777 10.078 7.99984 10.6668 7.99984Z" fill="white"/>
</svg>
