<svg width="30" height="31" viewBox="0 0 30 31" fill="none" xmlns="http://www.w3.org/2000/svg">
<g clip-path="url(#clip0_12474_27268)">
<path d="M28.9571 10.6475H6.79045C6.23803 10.6475 5.77778 11.0325 5.65703 11.5481L2.15586 26.72C2.13603 26.804 2.12378 26.891 2.12378 26.9808C2.12378 27.6248 2.64645 28.1475 3.29045 28.1475H8.9097C14 28.1475 8.9097 28.1475 14 28.1475C19.8379 28.1475 14 28.1475 19.8379 28.1475H25.4571C26.0095 28.1475 26.4698 27.7625 26.5905 27.2468L30.0917 12.0749C30.1115 11.9909 30.1238 11.904 30.1238 11.8141C30.1238 11.1701 29.6011 10.6475 28.9571 10.6475Z" fill="#0A77DB"/>
<path d="M6.79053 8.89762H27.7905V3.06429C27.7905 1.77571 26.7458 0.730957 25.4572 0.730957H18.6444C17.8068 0.730957 17.0339 1.18012 16.6179 1.90696L14.9572 4.81429H2.12386C0.835277 4.81429 -0.209473 5.85904 -0.209473 7.14762V24.7223C-0.209473 25.0029 0.0186108 25.231 0.299777 25.231C0.536611 25.231 0.741944 25.0694 0.795611 24.8378C1.68286 20.9802 3.96953 11.1055 3.97711 11.0787C4.31544 9.78954 5.45761 8.89762 6.79053 8.89762Z" fill="#0A77DB" fill-opacity="0.5"/>
<path d="M16.1609 25.731C16.5587 25.731 16.9402 25.5729 17.2215 25.2916C17.5029 25.0104 17.6609 24.6288 17.6609 24.231H14.6609C14.6609 24.6288 14.8189 25.0104 15.1002 25.2916C15.3815 25.5729 15.7631 25.731 16.1609 25.731ZM16.9071 14.5558C16.9176 14.4515 16.9061 14.3462 16.8734 14.2467C16.8406 14.1471 16.7874 14.0555 16.7171 13.9778C16.6468 13.9001 16.5609 13.838 16.4651 13.7954C16.3693 13.7529 16.2657 13.731 16.1609 13.731C16.0561 13.731 15.9524 13.7529 15.8566 13.7954C15.7608 13.838 15.675 13.9001 15.6047 13.9778C15.5344 14.0555 15.4812 14.1471 15.4484 14.2467C15.4157 14.3462 15.4042 14.4515 15.4146 14.5558C14.5669 14.7282 13.8049 15.1883 13.2575 15.8581C12.7101 16.5279 12.411 17.3663 12.4109 18.2314C12.4109 19.0548 12.0359 22.7311 10.9109 23.4811H21.4109C20.2859 22.7311 19.9109 19.0548 19.9109 18.2314C19.9109 16.4165 18.6209 14.9015 16.9071 14.5558Z" fill="white" fill-opacity="0.9"/>
</g>
<defs>
<clipPath id="clip0_12474_27268">
<rect width="30" height="30" fill="white" transform="translate(-0.0012207 0.230957)"/>
</clipPath>
</defs>
</svg>
