<svg width="79" height="95" viewBox="0 0 79 95" fill="none" xmlns="http://www.w3.org/2000/svg">
<g clip-path="url(#clip0_11555_6146)">
<path d="M0 4.99999C0 2.23857 2.23858 0 5 0H39.2863H49.1078H51.5632V0C51.7063 0 51.8436 0.0561748 51.9457 0.156431L54.0186 2.19289L64.2866 12.5002L78.5726 26.6187V29.5763V35.4916V47.3221V89.6442C78.5726 92.4056 76.334 94.6442 73.5726 94.6442H5C2.23858 94.6442 0 92.4056 0 89.6442V4.99999Z" fill="#0076D4"/>
<path fill-rule="evenodd" clip-rule="evenodd" d="M51.7866 0L51.8009 18.6343C51.7864 19.7063 52.0067 20.7701 52.4482 21.7602C52.8897 22.7503 53.5431 23.6457 54.3681 24.3914C55.1932 25.1371 56.1724 25.7173 57.2457 26.0963C58.319 26.4753 59.5699 26.836 60.7153 26.7861L78.5727 26.7861L51.7866 0Z" fill="#82B1FF"/>
<path d="M20.0639 84H13.8764V66.5455H20.1151C21.8707 66.5455 23.3821 66.8949 24.6491 67.5938C25.9162 68.2869 26.8906 69.2841 27.5724 70.5852C28.2599 71.8864 28.6037 73.4432 28.6037 75.2557C28.6037 77.0739 28.2599 78.6364 27.5724 79.9432C26.8906 81.25 25.9105 82.2528 24.6321 82.9517C23.3594 83.6506 21.8366 84 20.0639 84ZM17.5668 80.8381H19.9105C21.0014 80.8381 21.919 80.6449 22.6634 80.2585C23.4134 79.8665 23.9759 79.2614 24.3509 78.4432C24.7315 77.6193 24.9219 76.5568 24.9219 75.2557C24.9219 73.9659 24.7315 72.9119 24.3509 72.0938C23.9759 71.2756 23.4162 70.6733 22.6719 70.2869C21.9276 69.9006 21.0099 69.7074 19.919 69.7074H17.5668V80.8381ZM47.3771 75.2727C47.3771 77.1761 47.0163 78.7955 46.2947 80.1307C45.5788 81.4659 44.6016 82.4858 43.3629 83.1903C42.13 83.8892 40.7436 84.2386 39.2038 84.2386C37.6527 84.2386 36.2607 83.8864 35.0277 83.1818C33.7947 82.4773 32.8203 81.4574 32.1044 80.1222C31.3885 78.7869 31.0305 77.1705 31.0305 75.2727C31.0305 73.3693 31.3885 71.75 32.1044 70.4148C32.8203 69.0795 33.7947 68.0625 35.0277 67.3636C36.2607 66.6591 37.6527 66.3068 39.2038 66.3068C40.7436 66.3068 42.13 66.6591 43.3629 67.3636C44.6016 68.0625 45.5788 69.0795 46.2947 70.4148C47.0163 71.75 47.3771 73.3693 47.3771 75.2727ZM43.6357 75.2727C43.6357 74.0398 43.451 73 43.0817 72.1534C42.718 71.3068 42.2038 70.6648 41.5391 70.2273C40.8743 69.7898 40.0959 69.571 39.2038 69.571C38.3118 69.571 37.5334 69.7898 36.8686 70.2273C36.2038 70.6648 35.6868 71.3068 35.3175 72.1534C34.9538 73 34.772 74.0398 34.772 75.2727C34.772 76.5057 34.9538 77.5455 35.3175 78.392C35.6868 79.2386 36.2038 79.8807 36.8686 80.3182C37.5334 80.7557 38.3118 80.9744 39.2038 80.9744C40.0959 80.9744 40.8743 80.7557 41.5391 80.3182C42.2038 79.8807 42.718 79.2386 43.0817 78.392C43.451 77.5455 43.6357 76.5057 43.6357 75.2727ZM65.5114 72.6562H61.7784C61.7102 72.1733 61.571 71.7443 61.3608 71.3693C61.1506 70.9886 60.8807 70.6648 60.5511 70.3977C60.2216 70.1307 59.8409 69.9261 59.4091 69.7841C58.983 69.642 58.5199 69.571 58.0199 69.571C57.1165 69.571 56.3295 69.7955 55.6591 70.2443C54.9886 70.6875 54.4688 71.3352 54.0994 72.1875C53.7301 73.0341 53.5455 74.0625 53.5455 75.2727C53.5455 76.517 53.7301 77.5625 54.0994 78.4091C54.4744 79.2557 54.9972 79.8949 55.6676 80.3267C56.3381 80.7585 57.1136 80.9744 57.9943 80.9744C58.4886 80.9744 58.946 80.9091 59.3665 80.7784C59.7926 80.6477 60.1705 80.4574 60.5 80.2074C60.8295 79.9517 61.1023 79.642 61.3182 79.2784C61.5398 78.9148 61.6932 78.5 61.7784 78.0341L65.5114 78.0511C65.4148 78.8523 65.1733 79.625 64.7869 80.3693C64.4063 81.108 63.892 81.7699 63.2443 82.3551C62.6023 82.9347 61.8352 83.3949 60.9432 83.7358C60.0568 84.071 59.054 84.2386 57.9347 84.2386C56.3778 84.2386 54.9858 83.8864 53.7585 83.1818C52.5369 82.4773 51.571 81.4574 50.8608 80.1222C50.1562 78.7869 49.804 77.1705 49.804 75.2727C49.804 73.3693 50.1619 71.75 50.8778 70.4148C51.5938 69.0795 52.5653 68.0625 53.7926 67.3636C55.0199 66.6591 56.4006 66.3068 57.9347 66.3068C58.946 66.3068 59.8835 66.4489 60.7472 66.733C61.6165 67.017 62.3864 67.4318 63.0568 67.9773C63.7273 68.517 64.2727 69.179 64.6932 69.9631C65.1193 70.7472 65.392 71.6449 65.5114 72.6562Z" fill="white"/>
</g>
<defs>
<clipPath id="clip0_11555_6146">
<rect width="79" height="95" fill="white"/>
</clipPath>
</defs>
</svg>
