<svg width="79" height="95" viewBox="0 0 79 95" fill="none" xmlns="http://www.w3.org/2000/svg">
<g clip-path="url(#clip0_11555_6150)">
<path d="M0 4.99999C0 2.23857 2.23858 0 5 0H39.2863H49.1078H51.5632V0C51.7063 0 51.8436 0.0561748 51.9457 0.156431L54.0186 2.19289L64.2866 12.5002L78.5726 26.6187V29.5763V35.4916V47.3221V89.6442C78.5726 92.4056 76.334 94.6442 73.5726 94.6442H5C2.23858 94.6442 0 92.4056 0 89.6442V4.99999Z" fill="#0076D4"/>
<path fill-rule="evenodd" clip-rule="evenodd" d="M51.7866 0L51.8009 18.6343C51.7864 19.7063 52.0067 20.7701 52.4482 21.7602C52.8897 22.7503 53.5431 23.6457 54.3681 24.3914C55.1932 25.1371 56.1724 25.7173 57.2457 26.0963C58.319 26.4753 59.5699 26.836 60.7153 26.7861L78.5727 26.7861L51.7866 0Z" fill="#82B1FF"/>
<path d="M11.6733 84H5.4858V66.5455H11.7244C13.4801 66.5455 14.9915 66.8949 16.2585 67.5938C17.5256 68.2869 18.5 69.2841 19.1818 70.5852C19.8693 71.8864 20.2131 73.4432 20.2131 75.2557C20.2131 77.0739 19.8693 78.6364 19.1818 79.9432C18.5 81.25 17.5199 82.2528 16.2415 82.9517C14.9688 83.6506 13.446 84 11.6733 84ZM9.17614 80.8381H11.5199C12.6108 80.8381 13.5284 80.6449 14.2727 80.2585C15.0227 79.8665 15.5852 79.2614 15.9602 78.4432C16.3409 77.6193 16.5312 76.5568 16.5312 75.2557C16.5312 73.9659 16.3409 72.9119 15.9602 72.0938C15.5852 71.2756 15.0256 70.6733 14.2812 70.2869C13.5369 69.9006 12.6193 69.7074 11.5284 69.7074H9.17614V80.8381ZM38.9865 75.2727C38.9865 77.1761 38.6257 78.7955 37.9041 80.1307C37.1882 81.4659 36.2109 82.4858 34.9723 83.1903C33.7393 83.8892 32.353 84.2386 30.8132 84.2386C29.2621 84.2386 27.87 83.8864 26.6371 83.1818C25.4041 82.4773 24.4297 81.4574 23.7138 80.1222C22.9979 78.7869 22.6399 77.1705 22.6399 75.2727C22.6399 73.3693 22.9979 71.75 23.7138 70.4148C24.4297 69.0795 25.4041 68.0625 26.6371 67.3636C27.87 66.6591 29.2621 66.3068 30.8132 66.3068C32.353 66.3068 33.7393 66.6591 34.9723 67.3636C36.2109 68.0625 37.1882 69.0795 37.9041 70.4148C38.6257 71.75 38.9865 73.3693 38.9865 75.2727ZM35.245 75.2727C35.245 74.0398 35.0604 73 34.6911 72.1534C34.3274 71.3068 33.8132 70.6648 33.1484 70.2273C32.4837 69.7898 31.7053 69.571 30.8132 69.571C29.9212 69.571 29.1428 69.7898 28.478 70.2273C27.8132 70.6648 27.2962 71.3068 26.9268 72.1534C26.5632 73 26.3814 74.0398 26.3814 75.2727C26.3814 76.5057 26.5632 77.5455 26.9268 78.392C27.2962 79.2386 27.8132 79.8807 28.478 80.3182C29.1428 80.7557 29.9212 80.9744 30.8132 80.9744C31.7053 80.9744 32.4837 80.7557 33.1484 80.3182C33.8132 79.8807 34.3274 79.2386 34.6911 78.392C35.0604 77.5455 35.245 76.5057 35.245 75.2727ZM57.1207 72.6562H53.3878C53.3196 72.1733 53.1804 71.7443 52.9702 71.3693C52.7599 70.9886 52.4901 70.6648 52.1605 70.3977C51.831 70.1307 51.4503 69.9261 51.0185 69.7841C50.5923 69.642 50.1293 69.571 49.6293 69.571C48.7259 69.571 47.9389 69.7955 47.2685 70.2443C46.598 70.6875 46.0781 71.3352 45.7088 72.1875C45.3395 73.0341 45.1548 74.0625 45.1548 75.2727C45.1548 76.517 45.3395 77.5625 45.7088 78.4091C46.0838 79.2557 46.6065 79.8949 47.277 80.3267C47.9474 80.7585 48.723 80.9744 49.6037 80.9744C50.098 80.9744 50.5554 80.9091 50.9759 80.7784C51.402 80.6477 51.7798 80.4574 52.1094 80.2074C52.4389 79.9517 52.7116 79.642 52.9276 79.2784C53.1491 78.9148 53.3026 78.5 53.3878 78.0341L57.1207 78.0511C57.0241 78.8523 56.7827 79.625 56.3963 80.3693C56.0156 81.108 55.5014 81.7699 54.8537 82.3551C54.2116 82.9347 53.4446 83.3949 52.5526 83.7358C51.6662 84.071 50.6634 84.2386 49.544 84.2386C47.9872 84.2386 46.5952 83.8864 45.3679 83.1818C44.1463 82.4773 43.1804 81.4574 42.4702 80.1222C41.7656 78.7869 41.4134 77.1705 41.4134 75.2727C41.4134 73.3693 41.7713 71.75 42.4872 70.4148C43.2031 69.0795 44.1747 68.0625 45.402 67.3636C46.6293 66.6591 48.0099 66.3068 49.544 66.3068C50.5554 66.3068 51.4929 66.4489 52.3565 66.733C53.2259 67.017 53.9957 67.4318 54.6662 67.9773C55.3366 68.517 55.8821 69.179 56.3026 69.9631C56.7287 70.7472 57.0014 71.6449 57.1207 72.6562ZM62.8523 66.5455L66.3722 72.4943H66.5085L70.0455 66.5455H74.2131L68.8864 75.2727L74.3324 84H70.0881L66.5085 78.0426H66.3722L62.7926 84H58.5653L64.0284 75.2727L58.6676 66.5455H62.8523Z" fill="white"/>
</g>
<defs>
<clipPath id="clip0_11555_6150">
<rect width="79" height="95" fill="white"/>
</clipPath>
</defs>
</svg>
