<svg width="32" height="36" viewBox="0 0 32 36" fill="none" xmlns="http://www.w3.org/2000/svg">
<g clip-path="url(#clip0)">
<path d="M18.6667 9.5625V0H2C0.891667 0 0 0.752344 0 1.6875V34.3125C0 35.2477 0.891667 36 2 36H30C31.1083 36 32 35.2477 32 34.3125V11.25H20.6667C19.5667 11.25 18.6667 10.4906 18.6667 9.5625ZM23.425 18H25.4167C26.0583 18 26.5333 18.4992 26.3917 19.0336L23.225 30.8461C23.125 31.2328 22.7167 31.5 22.25 31.5H19.0833C18.625 31.5 18.225 31.2328 18.1167 30.8602C15.9667 23.5828 16.3833 25.1508 15.9833 23.0906H15.9417C15.85 24.0961 15.7417 24.3141 13.8083 30.8602C13.7 31.2328 13.3 31.5 12.8417 31.5H9.75C9.28333 31.5 8.875 31.2258 8.775 30.8391L5.625 19.0266C5.48333 18.4992 5.95833 18 6.6 18H8.64167C9.11667 18 9.53333 18.2813 9.625 18.682C10.925 24.1664 11.3 26.3812 11.375 27.2742C11.5083 26.557 11.9833 24.975 13.825 18.6469C13.9333 18.2672 14.3333 18.007 14.8 18.007H17.225C17.6917 18.007 18.0917 18.2742 18.2 18.6539C20.2 25.7133 20.6 27.3727 20.6667 27.7523C20.65 26.9648 20.45 26.5008 22.4667 18.668C22.55 18.2742 22.9583 18 23.425 18V18ZM32 8.57109V9H21.3333V0H21.8417C22.375 0 22.8833 0.175781 23.2583 0.492188L31.4167 7.38281C31.7917 7.69922 32 8.12813 32 8.57109Z" fill="#005DC7"/>
</g>
<defs>
<clipPath id="clip0">
<rect width="32" height="36" fill="white"/>
</clipPath>
</defs>
</svg>
