<svg width="79" height="95" viewBox="0 0 79 95" fill="none" xmlns="http://www.w3.org/2000/svg">
<g clip-path="url(#clip0_11555_6154)">
<path d="M0 4.99999C0 2.23857 2.23858 0 5 0H39.2863H49.1078H51.5632V0C51.7063 0 51.8436 0.0561748 51.9457 0.156431L54.0186 2.19289L64.2866 12.5002L78.5726 26.6187V29.5763V35.4916V47.3221V89.6442C78.5726 92.4056 76.334 94.6442 73.5726 94.6442H5C2.23858 94.6442 0 92.4056 0 89.6442V4.99999Z" fill="#757575"/>
<path fill-rule="evenodd" clip-rule="evenodd" d="M51.7866 0L51.8009 18.6343C51.7864 19.7063 52.0067 20.7701 52.4482 21.7602C52.8897 22.7503 53.5431 23.6457 54.3681 24.3914C55.1932 25.1371 56.1724 25.7173 57.2457 26.0963C58.319 26.4753 59.5699 26.836 60.7153 26.7861L78.5727 26.7861L51.7866 0Z" fill="#BDBDBD"/>
<path d="M60.9441 48.9486L17.0526 48.5136C16.3251 48.5064 15.6302 48.2105 15.1208 47.6909C14.6115 47.1714 14.3294 46.4708 14.3366 45.7432C14.3438 45.0157 14.6397 44.3208 15.1593 43.8114C15.6788 43.3021 16.3794 43.02 17.107 43.0272L60.9985 43.4622C61.726 43.4694 62.4209 43.7653 62.9303 44.2849C63.4396 44.8044 63.7217 45.505 63.7145 46.2326C63.7073 46.9601 63.4114 47.655 62.8918 48.1644C62.3723 48.6737 61.6717 48.9558 60.9441 48.9486Z" fill="#F5F5F5"/>
<path d="M60.7898 64.5834L16.8983 64.1484C16.1708 64.1412 15.4759 63.8452 14.9665 63.3257C14.4572 62.8061 14.1751 62.1055 14.1823 61.378C14.1895 60.6504 14.4854 59.9556 15.005 59.4462C15.5245 58.9368 16.2251 58.6547 16.9527 58.662L60.8442 59.0969C61.5717 59.1041 62.2666 59.4001 62.776 59.9196C63.2853 60.4392 63.5674 61.1398 63.5602 61.8673C63.553 62.5949 63.2571 63.2898 62.7375 63.7991C62.218 64.3085 61.5174 64.5906 60.7898 64.5834Z" fill="#F5F5F5"/>
<path d="M60.6346 80.2162L16.743 79.7812C16.0155 79.774 15.3206 79.4781 14.8113 78.9585C14.3019 78.439 14.0198 77.7383 14.027 77.0108C14.0342 76.2832 14.3302 75.5884 14.8497 75.079C15.3693 74.5697 16.0699 74.2876 16.7974 74.2948L60.6889 74.7297C61.4165 74.7369 62.1114 75.0329 62.6207 75.5524C63.1301 76.072 63.4122 76.7726 63.405 77.5001C63.3978 78.2277 63.1018 78.9226 62.5823 79.4319C62.0627 79.9413 61.3621 80.2234 60.6346 80.2162Z" fill="#F5F5F5"/>
</g>
<defs>
<clipPath id="clip0_11555_6154">
<rect width="79" height="95" fill="white"/>
</clipPath>
</defs>
</svg>
