<svg width="18" height="22" viewBox="0 0 18 22" fill="none" xmlns="http://www.w3.org/2000/svg">
<path d="M8.7718 2.47778C7.85073 3.06022 6.93675 3.70359 5.96253 4.19819C5.38012 4.49387 4.75963 4.55947 4.12005 4.62709L4.09839 4.62938C3.26893 4.71711 3.04323 4.89731 2.5522 5.52225C2.38141 5.73962 2.49715 6.35231 2.49994 6.58934C2.50868 7.33233 2.60803 7.98991 2.89193 8.67125M2.34314 10.6312C4.0704 10.7124 5.76881 10.6312 7.4913 10.6312C7.80716 10.6312 8.07883 10.6236 8.37981 10.7096M5.00868 5.92731C5.03822 6.76896 5.06152 7.8204 5.13935 8.67125C5.13935 8.67125 5.25878 9.83221 5.38325 9.99531C5.73509 10.4563 7.67433 7.32602 7.81796 6.96826C7.97395 6.5797 7.90942 6.18705 7.90942 5.78358C7.90942 5.7468 7.93221 5.07297 8.04009 5.29141C8.41255 6.04565 8.29363 7.16144 8.30141 7.96567C8.31019 8.87176 8.21937 9.81913 8.31448 10.7227C8.37409 11.2889 8.84214 11.8273 9.1638 12.2776M9.24219 11.18C10.6265 11.2239 12.0447 11.1676 13.4234 11.3107C13.8849 11.3585 14.4082 11.4734 14.8346 11.6678C15.2096 11.8388 15.2455 12.165 15.0175 12.4953C14.4558 13.3093 13.5269 13.8492 12.8877 14.6077C11.9746 15.6913 11.4741 16.9514 10.6882 18.1052C10.3877 18.5464 10.0208 18.8862 9.62547 19.2376C9.50091 19.3483 9.24423 19.4912 9.39899 19.5686M12.9269 17.6087C13.1595 16.9375 13.4344 16.3401 13.7893 15.7271M8.22301 12.0424C8.58054 13.5488 8.81274 15.1147 9.23784 16.6026C9.3991 17.167 9.45398 16.9588 9.71258 16.6679M10.575 10.396C10.6497 11.5145 10.7204 12.6323 10.8102 13.7497C10.8644 14.4249 10.8399 15.428 11.0715 16.1017C11.1717 16.3932 11.1162 15.4865 11.1238 15.1783C11.1419 14.4406 11.1953 13.7163 11.3677 12.9962C11.437 12.7067 11.6814 11.7588 12.0123 12.4431C12.1418 12.7109 12.1895 13.0212 12.2997 13.2968" stroke="white" stroke-width="3" stroke-linecap="round"/>
<path d="M9 0L0 4V10C0 15.55 3.84 20.74 9 22C14.16 20.74 18 15.55 18 10V4L9 0ZM9 10.99H16C15.47 15.11 12.72 18.78 9 19.93V11H2V5.3L9 2.19V10.99Z" fill="#0875E1"/>
</svg>
