<svg width="32" height="36" viewBox="0 0 32 36" fill="none" xmlns="http://www.w3.org/2000/svg">
<g clip-path="url(#clip0)">
<path d="M22.6865 0H1.08874C0.487442 0 0 0.421071 0 1.23814V35.3571C0 35.5789 0.487442 36 1.08874 36H30.9113C31.5126 36 32 35.5789 32 35.3571V8.343C32 7.89557 31.9308 7.75157 31.8087 7.6455L23.1494 0.165214C23.0266 0.0597857 22.8599 0 22.6865 0Z" fill="#E9E9E0"/>
<path d="M23.0697 0.097168V7.71438H31.8876L23.0697 0.097168Z" fill="#D9D7CA"/>
<path d="M30.9113 35.9999H1.08874C0.487442 35.9999 0 35.5788 0 35.0594V25.0713H32V35.0594C32 35.5788 31.5126 35.9999 30.9113 35.9999Z" fill="#EC6630"/>
<path d="M8.15249 27.5942V34.0717H6.93128V31.1537H3.68588V34.0717H2.44458V27.5942H3.68588V30.4331H6.93128V27.5942H8.15249V27.5942Z" fill="white"/>
<path d="M15.3353 27.5942V28.3149H13.0976V34.0717H11.8667V28.3149H9.62817V27.5942H15.3353Z" fill="white"/>
<path d="M22.478 27.5942H23.7193V34.0717H22.478V29.6154L20.7991 33.2186H19.7208L18.0315 29.6154V34.0717H16.7902V27.5942H18.0315L20.2596 32.0242L22.478 27.5942Z" fill="white"/>
<path d="M26.8426 27.5942V33.272H30.2919V34.0717H25.6013V27.5942H26.8426Z" fill="white"/>
<path d="M12.4331 10.4742C12.1422 10.2228 11.6718 10.2228 11.3809 10.4742L6.91574 14.3313C6.62477 14.5827 6.62477 14.9889 6.91574 15.2403L11.3809 19.0974C11.526 19.2228 11.7165 19.2858 11.907 19.2858C12.0975 19.2858 12.288 19.2228 12.4331 19.0974C12.7241 18.8461 12.7241 18.4398 12.4331 18.1884L8.49416 14.7858L12.4331 11.3832C12.7241 11.1318 12.7241 10.7255 12.4331 10.4742Z" fill="#EC6630"/>
<path d="M25.8285 14.3313L21.3634 10.4742C21.0724 10.2228 20.6021 10.2228 20.3111 10.4742C20.0202 10.7255 20.0202 11.1318 20.3111 11.3832L24.2501 14.7858L20.3111 18.1884C20.0202 18.4398 20.0202 18.8461 20.3111 19.0974C20.4562 19.2228 20.6468 19.2858 20.8373 19.2858C21.0278 19.2858 21.2183 19.2228 21.3634 19.0974L25.8285 15.2403C26.1195 14.9889 26.1195 14.5827 25.8285 14.3313Z" fill="#EC6630"/>
</g>
<defs>
<clipPath id="clip0">
<rect width="32" height="36" fill="white"/>
</clipPath>
</defs>
</svg>
