<svg width="79" height="95" viewBox="0 0 79 95" fill="none" xmlns="http://www.w3.org/2000/svg">
<g clip-path="url(#clip0_11555_6167)">
<path d="M0 4.99999C0 2.23857 2.23858 0 5 0H39.2863H49.1078H51.5632V0C51.7063 0 51.8436 0.0561748 51.9457 0.156431L54.0186 2.19289L64.2866 12.5002L78.5726 26.6187V29.5763V35.4916V47.3221V89.6442C78.5726 92.4056 76.334 94.6442 73.5726 94.6442H5C2.23858 94.6442 0 92.4056 0 89.6442V4.99999Z" fill="#009688"/>
<path fill-rule="evenodd" clip-rule="evenodd" d="M51.7866 0L51.8009 18.6343C51.7864 19.7063 52.0067 20.7701 52.4482 21.7602C52.8897 22.7503 53.5431 23.6457 54.3681 24.3914C55.1932 25.1371 56.1724 25.7173 57.2457 26.0963C58.319 26.4753 59.5699 26.836 60.7153 26.7861L78.5727 26.7861L51.7866 0Z" fill="#A7FFEB"/>
<path d="M6.25923 84V66.5455H9.94957V73.7472H17.4411V66.5455H21.1229V84H17.4411V76.7898H9.94957V84H6.25923ZM23.5007 69.5881V66.5455H37.8359V69.5881H32.4922V84H28.8445V69.5881H23.5007ZM40.1967 66.5455H44.7479L49.5547 78.2727H49.7592L54.5661 66.5455H59.1172V84H55.5376V72.6392H55.3928L50.8757 83.9148H48.4382L43.9212 72.5966H43.7763V84H40.1967V66.5455ZM62.1577 84V66.5455H65.848V80.9574H73.331V84H62.1577Z" fill="white"/>
</g>
<defs>
<clipPath id="clip0_11555_6167">
<rect width="79" height="95" fill="white"/>
</clipPath>
</defs>
</svg>
