<svg width="79" height="95" viewBox="0 0 79 95" fill="none" xmlns="http://www.w3.org/2000/svg">
<g clip-path="url(#clip0_11555_6171)">
<path d="M0 4.99999C0 2.23857 2.23858 0 5 0H39.2863H49.1078H51.5632V0C51.7063 0 51.8436 0.0561748 51.9457 0.156431L54.0186 2.19289L64.2866 12.5002L78.5726 26.6187V29.5763V35.4916V47.3221V89.6442C78.5726 92.4056 76.334 94.6442 73.5726 94.6442H5C2.23858 94.6442 0 92.4056 0 89.6442V4.99999Z" fill="#FFB300"/>
<path fill-rule="evenodd" clip-rule="evenodd" d="M51.7866 0L51.8009 18.6343C51.7864 19.7063 52.0067 20.7701 52.4482 21.7602C52.8897 22.7503 53.5431 23.6457 54.3681 24.3914C55.1932 25.1371 56.1724 25.7173 57.2457 26.0963C58.319 26.4753 59.5699 26.836 60.7153 26.7861L78.5727 26.7861L51.7866 0Z" fill="#FFE57F"/>
<path d="M33.2987 66.5455H36.9464V78.7159C36.9464 79.8409 36.6935 80.8182 36.1879 81.6477C35.6879 82.4773 34.9918 83.1165 34.0998 83.5653C33.2077 84.0142 32.1708 84.2386 30.989 84.2386C29.9379 84.2386 28.9833 84.054 28.1254 83.6847C27.2731 83.3097 26.5969 82.7415 26.0969 81.9801C25.5969 81.2131 25.3498 80.25 25.3555 79.0909H29.0288C29.0401 79.5511 29.1339 79.946 29.31 80.2756C29.4918 80.5994 29.739 80.8494 30.0515 81.0256C30.3697 81.196 30.7447 81.2812 31.1765 81.2812C31.631 81.2812 32.0146 81.1847 32.3271 80.9915C32.6452 80.7926 32.8867 80.5028 33.0515 80.1222C33.2163 79.7415 33.2987 79.2727 33.2987 78.7159V66.5455ZM49.4663 71.5653C49.3981 70.8778 49.1055 70.3437 48.5884 69.9631C48.0714 69.5824 47.3697 69.392 46.4833 69.392C45.881 69.392 45.3725 69.4773 44.9577 69.6477C44.543 69.8125 44.2248 70.0426 44.0032 70.3381C43.7873 70.6335 43.6793 70.9688 43.6793 71.3438C43.668 71.6562 43.7333 71.929 43.8754 72.1619C44.0231 72.3949 44.2248 72.5966 44.4805 72.767C44.7362 72.9318 45.0316 73.0767 45.3668 73.2017C45.7021 73.321 46.06 73.4233 46.4407 73.5085L48.0089 73.8835C48.7702 74.054 49.4691 74.2812 50.1055 74.5653C50.7418 74.8494 51.293 75.1989 51.7589 75.6136C52.2248 76.0284 52.5856 76.517 52.8413 77.0795C53.1026 77.642 53.2362 78.2869 53.2418 79.0142C53.2362 80.0824 52.9634 81.0085 52.4237 81.7926C51.8896 82.571 51.1168 83.1761 50.1055 83.608C49.0998 84.0341 47.8867 84.2472 46.4663 84.2472C45.0572 84.2472 43.8299 84.0312 42.7844 83.5994C41.7447 83.1676 40.9322 82.5284 40.3469 81.6818C39.7674 80.8295 39.4634 79.7756 39.435 78.5199H43.006C43.0458 79.1051 43.2134 79.5937 43.5089 79.9858C43.81 80.3722 44.2106 80.6648 44.7106 80.8636C45.2163 81.0568 45.7873 81.1534 46.4237 81.1534C47.0487 81.1534 47.5913 81.0625 48.0515 80.8807C48.5174 80.6989 48.8782 80.446 49.1339 80.1222C49.3896 79.7983 49.5174 79.4261 49.5174 79.0057C49.5174 78.6136 49.4009 78.2841 49.168 78.017C48.9407 77.75 48.6055 77.5227 48.1623 77.3352C47.7248 77.1477 47.1879 76.9773 46.5515 76.8239L44.6509 76.3466C43.1793 75.9886 42.0174 75.429 41.1651 74.6676C40.3129 73.9062 39.8896 72.8807 39.8952 71.5909C39.8896 70.5341 40.1708 69.6108 40.739 68.821C41.3129 68.0312 42.0998 67.4148 43.0998 66.9716C44.0998 66.5284 45.2362 66.3068 46.5089 66.3068C47.8043 66.3068 48.935 66.5284 49.9009 66.9716C50.8725 67.4148 51.6282 68.0312 52.168 68.821C52.7077 69.6108 52.9862 70.5256 53.0032 71.5653H49.4663Z" fill="white"/>
</g>
<defs>
<clipPath id="clip0_11555_6171">
<rect width="79" height="95" fill="white"/>
</clipPath>
</defs>
</svg>
