<svg width="32" height="36" viewBox="0 0 32 36" fill="none" xmlns="http://www.w3.org/2000/svg">
<path d="M22.6865 0H1.08874C0.487442 0 0 0.421071 0 1.23814V35.3571C0 35.5789 0.487442 36 1.08874 36H30.9113C31.5126 36 32 35.5789 32 35.3571V8.343C32 7.89557 31.9308 7.75157 31.8087 7.6455L23.1494 0.165214C23.0266 0.0597857 22.8599 0 22.6865 0Z" fill="#E9E9E0"/>
<path d="M23.0697 0.097168V7.71438H31.8876L23.0697 0.097168Z" fill="#D9D7CA"/>
<path d="M30.9113 35.9999H1.08874C0.487442 35.9999 0 35.5788 0 35.0594V25.0713H32V35.0594C32 35.5788 31.5126 35.9999 30.9113 35.9999Z" fill="#EEAF4B"/>
<path d="M14.5273 27.4621V32.5072C14.5273 32.8119 14.4625 33.0684 14.3338 33.2761C14.2043 33.4837 14.0316 33.6509 13.8151 33.7769C13.5978 33.9029 13.3485 33.9909 13.0672 34.0404C12.7859 34.0899 12.4949 34.115 12.1972 34.115C12.0476 34.115 11.8727 34.1015 11.6733 34.0751C11.4739 34.0488 11.2662 34.0083 11.0526 33.9524C10.8391 33.8964 10.6337 33.8334 10.4372 33.7634C10.24 33.6933 10.074 33.6142 9.9386 33.5261L10.4573 32.8145C10.525 32.855 10.6218 32.8981 10.7475 32.9418C10.8733 32.9855 11.0102 33.0266 11.1598 33.0646C11.3086 33.1031 11.4649 33.1359 11.6279 33.1655C11.7909 33.1951 11.9434 33.2092 12.0856 33.2092C12.4443 33.2092 12.7315 33.1488 12.9451 33.0292C13.1587 32.9096 13.2718 32.7052 13.2859 32.4185V27.4614H14.5273V27.4621Z" fill="white"/>
<path d="M20.6022 32.2956C20.6022 32.5296 20.5464 32.7571 20.434 32.977C20.3216 33.1969 20.1646 33.3904 19.9607 33.5569C19.7568 33.7234 19.506 33.8571 19.2076 33.9567C18.9092 34.0564 18.5698 34.1059 18.1903 34.1059C18.0273 34.1059 17.8599 34.0981 17.6865 34.084C17.5131 34.0699 17.3382 34.0441 17.1626 34.0094C16.9862 33.9741 16.818 33.9259 16.6587 33.8641C16.4995 33.8024 16.3618 33.7279 16.2465 33.6398L16.46 32.8838C16.5546 32.9307 16.6751 32.9764 16.821 33.0201C16.9668 33.0638 17.1172 33.1049 17.2734 33.1429C17.429 33.1814 17.5853 33.2116 17.7415 33.2354C17.8971 33.2586 18.0429 33.2708 18.1791 33.2708C18.5929 33.2708 18.9099 33.1872 19.1302 33.0201C19.3505 32.8529 19.4606 32.6054 19.4606 32.2776C19.4606 32.0783 19.3825 31.9086 19.2269 31.7678C19.0706 31.627 18.8757 31.4997 18.642 31.3853C18.4083 31.2709 18.1553 31.1571 17.8837 31.0426C17.612 30.9282 17.3575 30.7932 17.1209 30.6383C16.8835 30.4834 16.6863 30.3001 16.5307 30.0893C16.3745 29.8784 16.2971 29.6149 16.2971 29.2986C16.2971 29.0119 16.3581 28.7566 16.4801 28.5342C16.6022 28.3118 16.7666 28.1221 16.9735 27.9672C17.1804 27.8123 17.4215 27.6934 17.6961 27.6111C17.9707 27.5288 18.261 27.4883 18.5661 27.4883C18.8779 27.4883 19.1934 27.5134 19.5119 27.5629C19.8305 27.6124 20.0879 27.6934 20.2852 27.8046C20.2442 27.8804 20.1966 27.964 20.143 28.0553C20.0887 28.1466 20.0373 28.2308 19.9905 28.3099C19.9428 28.3889 19.9019 28.4551 19.8684 28.5079C19.8342 28.5606 19.8141 28.5901 19.8074 28.5959C19.7665 28.5786 19.7211 28.5554 19.6697 28.5259C19.6184 28.4963 19.5454 28.4674 19.4509 28.4378C19.3557 28.4082 19.2299 28.3883 19.0744 28.3761C18.9181 28.3639 18.7179 28.3671 18.4738 28.3851C18.3376 28.3973 18.2096 28.4301 18.0868 28.486C17.964 28.5419 17.8554 28.6101 17.7609 28.6924C17.6656 28.7746 17.5905 28.8666 17.5369 28.9694C17.4826 29.0716 17.4558 29.1706 17.4558 29.2639C17.4558 29.4979 17.5332 29.6869 17.6894 29.8309C17.845 29.9749 18.0385 30.1002 18.2692 30.2089C18.4999 30.3175 18.7499 30.4229 19.0223 30.5251C19.2932 30.6274 19.5462 30.7527 19.7806 30.8986C20.015 31.0446 20.2093 31.2284 20.3655 31.4476C20.5233 31.6675 20.6022 31.9497 20.6022 32.2956Z" fill="white"/>
<path d="M9.67442 12.2144V9.64293C9.67442 9.28871 10.0078 9.00007 10.4186 9.00007C10.8301 9.00007 11.1628 8.71207 11.1628 8.35721C11.1628 8.00236 10.8301 7.71436 10.4186 7.71436C9.18772 7.71436 8.18605 8.57964 8.18605 9.64293V12.2144C8.18605 12.9234 7.51851 13.5001 6.69768 13.5001C6.28614 13.5001 5.95349 13.7881 5.95349 14.1429C5.95349 14.4978 6.28614 14.7858 6.69768 14.7858C7.51851 14.7858 8.18605 15.3624 8.18605 16.0715V18.6429C8.18605 19.7062 9.18772 20.5715 10.4186 20.5715C10.8301 20.5715 11.1628 20.2835 11.1628 19.9286C11.1628 19.5738 10.8301 19.2858 10.4186 19.2858C10.0078 19.2858 9.67442 18.9971 9.67442 18.6429V16.0715C9.67442 15.3001 9.27107 14.6148 8.64596 14.1429C9.27107 13.6711 9.67442 12.9858 9.67442 12.2144Z" fill="#EEAF4B"/>
<path d="M15.6279 12.8573C16.2444 12.8573 16.7442 12.4256 16.7442 11.893C16.7442 11.3604 16.2444 10.9287 15.6279 10.9287C15.0114 10.9287 14.5116 11.3604 14.5116 11.893C14.5116 12.4256 15.0114 12.8573 15.6279 12.8573Z" fill="#EEAF4B"/>
<path d="M24.5581 13.5001C23.7373 13.5001 23.0698 12.9234 23.0698 12.2144V9.64293C23.0698 8.57964 22.0681 7.71436 20.8372 7.71436C20.4257 7.71436 20.093 8.00236 20.093 8.35721C20.093 8.71207 20.4257 9.00007 20.8372 9.00007C21.248 9.00007 21.5814 9.28871 21.5814 9.64293V12.2144C21.5814 12.9858 21.9847 13.6711 22.6099 14.1429C21.9847 14.6148 21.5814 15.3001 21.5814 16.0715V18.6429C21.5814 18.9971 21.248 19.2858 20.8372 19.2858C20.4257 19.2858 20.093 19.5738 20.093 19.9286C20.093 20.2835 20.4257 20.5715 20.8372 20.5715C22.0681 20.5715 23.0698 19.7062 23.0698 18.6429V16.0715C23.0698 15.3624 23.7373 14.7858 24.5581 14.7858C24.9697 14.7858 25.3023 14.4978 25.3023 14.1429C25.3023 13.7881 24.9697 13.5001 24.5581 13.5001Z" fill="#EEAF4B"/>
<path d="M15.628 15.4287C15.2164 15.4287 14.8838 15.7167 14.8838 16.0716V18.0001C14.8838 18.355 15.2164 18.643 15.628 18.643C16.0395 18.643 16.3722 18.355 16.3722 18.0001V16.0716C16.3722 15.7167 16.0395 15.4287 15.628 15.4287Z" fill="#EEAF4B"/>
</svg>
