<svg width="79" height="95" viewBox="0 0 79 95" fill="none" xmlns="http://www.w3.org/2000/svg">
<g clip-path="url(#clip0_11555_6175)">
<path d="M0 4.99999C0 2.23857 2.23858 0 5 0H39.2863H49.1078H51.5632V0C51.7063 0 51.8436 0.0561748 51.9457 0.156431L54.0186 2.19289L64.2866 12.5002L78.5726 26.6187V29.5763V35.4916V47.3221V89.6442C78.5726 92.4056 76.334 94.6442 73.5726 94.6442H5C2.23858 94.6442 0 92.4056 0 89.6442V4.99999Z" fill="#2196F3"/>
<path fill-rule="evenodd" clip-rule="evenodd" d="M51.7866 0L51.8009 18.6343C51.7864 19.7063 52.0067 20.7701 52.4482 21.7602C52.8897 22.7503 53.5431 23.6457 54.3681 24.3914C55.1932 25.1371 56.1724 25.7173 57.2457 26.0963C58.319 26.4753 59.5699 26.836 60.7153 26.7861L78.5727 26.7861L51.7866 0Z" fill="#82B1FF"/>
<path d="M49.278 56.5405C49.5735 56.2516 49.9524 56.063 50.361 56.0013C50.7696 55.9396 51.1873 56.0079 51.5549 56.1967L66.36 64.0151L66.2233 77.8048L11.0645 77.2582L11.1036 73.3183L21.6205 64.1471C21.9457 63.8294 22.3708 63.634 22.8236 63.5939C23.2764 63.5539 23.7292 63.6717 24.1051 63.9274L34.516 71.0167L49.2779 56.5445L49.278 56.5405Z" fill="white"/>
<path fill-rule="evenodd" clip-rule="evenodd" d="M25.0886 53.7553C25.8647 53.7629 26.6347 53.6177 27.3547 53.3278C28.0747 53.0379 28.7305 52.6091 29.2847 52.0657C29.8389 51.5224 30.2807 50.8752 30.5848 50.1611C30.8889 49.447 31.0494 48.6801 31.0571 47.904C31.0648 47.1279 30.9195 46.3579 30.6296 45.6379C30.3397 44.9179 29.9109 44.2621 29.3675 43.7079C28.8242 43.1537 28.177 42.7119 27.4629 42.4078C26.7488 42.1037 25.9819 41.9432 25.2058 41.9355C23.6384 41.92 22.129 42.5277 21.0097 43.6251C19.8904 44.7224 19.2529 46.2194 19.2373 47.7868C19.2218 49.3542 19.8295 50.8636 20.9269 51.9829C22.0242 53.1022 23.5212 53.7397 25.0886 53.7553V53.7553Z" fill="white"/>
</g>
<defs>
<clipPath id="clip0_11555_6175">
<rect width="79" height="95" fill="white"/>
</clipPath>
</defs>
</svg>
