<svg width="79" height="95" viewBox="0 0 79 95" fill="none" xmlns="http://www.w3.org/2000/svg">
<g clip-path="url(#clip0_11555_6188)">
<path d="M0 4.99999C0 2.23857 2.23858 0 5 0H39.2863H49.1078H51.5632V0C51.7063 0 51.8436 0.0561748 51.9457 0.156431L54.0186 2.19289L64.2866 12.5002L78.5726 26.6187V29.5763V35.4916V47.3221V89.6442C78.5726 92.4056 76.334 94.6442 73.5726 94.6442H5C2.23858 94.6442 0 92.4056 0 89.6442V4.99999Z" fill="#C50D00"/>
<path fill-rule="evenodd" clip-rule="evenodd" d="M51.7866 0L51.8009 18.6343C51.7864 19.7063 52.0067 20.7701 52.4482 21.7602C52.8897 22.7503 53.5431 23.6457 54.3681 24.3914C55.1932 25.1371 56.1724 25.7173 57.2457 26.0963C58.319 26.4753 59.5699 26.836 60.7153 26.7861L78.5727 26.7861L51.7866 0Z" fill="#FF8A80"/>
<path d="M17.4975 84V66.5455H24.3839C25.7077 66.5455 26.8356 66.7983 27.7674 67.304C28.6992 67.804 29.4094 68.5 29.8981 69.392C30.3924 70.2784 30.6396 71.3011 30.6396 72.4602C30.6396 73.6193 30.3896 74.642 29.8896 75.5284C29.3896 76.4148 28.6651 77.1051 27.7163 77.5994C26.7731 78.0937 25.631 78.3409 24.2901 78.3409H19.9009V75.3835H23.6935C24.4038 75.3835 24.989 75.2614 25.4492 75.017C25.9151 74.767 26.2617 74.4233 26.489 73.9858C26.7219 73.5426 26.8384 73.0341 26.8384 72.4602C26.8384 71.8807 26.7219 71.375 26.489 70.9432C26.2617 70.5057 25.9151 70.1676 25.4492 69.929C24.9833 69.6847 24.3924 69.5625 23.6765 69.5625H21.1879V84H17.4975ZM39.2241 84H33.0366V66.5455H39.2752C41.0309 66.5455 42.5423 66.8949 43.8093 67.5938C45.0764 68.2869 46.0508 69.2841 46.7326 70.5852C47.4201 71.8864 47.7639 73.4432 47.7639 75.2557C47.7639 77.0739 47.4201 78.6364 46.7326 79.9432C46.0508 81.25 45.0707 82.2528 43.7923 82.9517C42.5195 83.6506 40.9968 84 39.2241 84ZM36.7269 80.8381H39.0707C40.1616 80.8381 41.0792 80.6449 41.8235 80.2585C42.5735 79.8665 43.136 79.2614 43.511 78.4432C43.8917 77.6193 44.082 76.5568 44.082 75.2557C44.082 73.9659 43.8917 72.9119 43.511 72.0938C43.136 71.2756 42.5763 70.6733 41.832 70.2869C41.0877 69.9006 40.1701 69.7074 39.0792 69.7074H36.7269V80.8381ZM50.4975 84V66.5455H62.0543V69.5881H54.1879V73.7472H61.2873V76.7898H54.1879V84H50.4975Z" fill="white"/>
</g>
<defs>
<clipPath id="clip0_11555_6188">
<rect width="79" height="95" fill="white"/>
</clipPath>
</defs>
</svg>
