<svg width="79" height="95" viewBox="0 0 79 95" fill="none" xmlns="http://www.w3.org/2000/svg">
<g clip-path="url(#clip0_11555_6183)">
<path d="M0 4.99999C0 2.23857 2.23858 0 5 0H39.2863H49.1078H51.5632V0C51.7063 0 51.8436 0.0561748 51.9457 0.156431L54.0186 2.19289L64.2866 12.5002L78.5726 26.6187V29.5763V35.4916V47.3221V89.6442C78.5726 92.4056 76.334 94.6442 73.5726 94.6442H5C2.23858 94.6442 0 92.4056 0 89.6442V4.99999Z" fill="#673AB7"/>
<path d="M39.2572 30.2389L39.1158 44.5166C38.2987 43.9909 37.37 43.6639 36.4038 43.5617C35.4377 43.4595 34.4611 43.585 33.5522 43.9282C32.4473 44.3184 31.4629 44.9894 30.6958 45.8751C29.9288 46.7609 29.4053 47.831 29.1769 48.9803C28.9837 50.0278 29.0433 51.1063 29.3506 52.1262C29.658 53.1461 30.2043 54.078 30.9442 54.8443C31.684 55.6107 32.596 56.1895 33.6045 56.5325C34.6129 56.8756 35.6887 56.9731 36.7424 56.8169C38.3342 56.526 39.7723 55.6829 40.8034 54.4358C41.8346 53.1888 42.3927 51.6179 42.3794 49.9999L42.5402 33.7672L45.9171 33.8006C46.797 33.8094 47.6443 33.4682 48.2727 32.8522C48.901 32.2362 49.2589 31.3958 49.2676 30.5159C49.2763 29.636 48.9352 28.7887 48.3192 28.1603C47.7031 27.532 46.8628 27.1741 45.9829 27.1654L42.606 27.1319C41.7561 27.1223 40.9348 27.4392 40.3117 28.0173C39.6886 28.5954 39.3112 29.3907 39.2572 30.2389Z" fill="#EDE7F6"/>
<path fill-rule="evenodd" clip-rule="evenodd" d="M51.7866 0L51.8009 18.6343C51.7864 19.7063 52.0067 20.7701 52.4482 21.7602C52.8897 22.7503 53.5431 23.6457 54.3681 24.3914C55.1932 25.1371 56.1724 25.7173 57.2457 26.0963C58.319 26.4753 59.5699 26.836 60.7153 26.7861L78.5727 26.7861L51.7866 0Z" fill="#B388FF"/>
<path d="M14.1342 66.5455H18.6854L23.4922 78.2727H23.6967L28.5036 66.5455H33.0547V84H29.4751V72.6392H29.3303L24.8132 83.9148H22.3757L17.8587 72.5966H17.7138V84H14.1342V66.5455ZM36.0952 84V66.5455H42.9815C44.3054 66.5455 45.4332 66.7983 46.3651 67.304C47.2969 67.804 48.0071 68.5 48.4957 69.392C48.9901 70.2784 49.2372 71.3011 49.2372 72.4602C49.2372 73.6193 48.9872 74.642 48.4872 75.5284C47.9872 76.4148 47.2628 77.1051 46.3139 77.5994C45.3707 78.0937 44.2287 78.3409 42.8878 78.3409H38.4986V75.3835H42.2912C43.0014 75.3835 43.5866 75.2614 44.0469 75.017C44.5128 74.767 44.8594 74.4233 45.0866 73.9858C45.3196 73.5426 45.4361 73.0341 45.4361 72.4602C45.4361 71.8807 45.3196 71.375 45.0866 70.9432C44.8594 70.5057 44.5128 70.1676 44.0469 69.929C43.581 69.6847 42.9901 69.5625 42.2741 69.5625H39.7855V84H36.0952ZM51.2678 80.9318V78.0256L58.5547 66.5455H61.0604V70.5682H59.5774L54.9837 77.8381V77.9744H65.3388V80.9318H51.2678ZM59.6456 84V80.0455L59.7138 78.7585V66.5455H63.174V84H59.6456Z" fill="white"/>
</g>
<defs>
<clipPath id="clip0_11555_6183">
<rect width="79" height="95" fill="white"/>
</clipPath>
</defs>
</svg>
