<svg width="38" height="42" viewBox="0 0 38 42" fill="none" xmlns="http://www.w3.org/2000/svg">
<path d="M21.6667 12.5625V3H5C3.89167 3 3 3.75234 3 4.6875V37.3125C3 38.2477 3.89167 39 5 39H33C34.1083 39 35 38.2477 35 37.3125V14.25H23.6667C22.5667 14.25 21.6667 13.4906 21.6667 12.5625ZM27 29.1562C27 29.6203 26.55 30 26 30H12C11.45 30 11 29.6203 11 29.1562V28.5938C11 28.1297 11.45 27.75 12 27.75H26C26.55 27.75 27 28.1297 27 28.5938V29.1562ZM27 24.6562C27 25.1203 26.55 25.5 26 25.5H12C11.45 25.5 11 25.1203 11 24.6562V24.0938C11 23.6297 11.45 23.25 12 23.25H26C26.55 23.25 27 23.6297 27 24.0938V24.6562ZM27 19.5938V20.1562C27 20.6203 26.55 21 26 21H12C11.45 21 11 20.6203 11 20.1562V19.5938C11 19.1297 11.45 18.75 12 18.75H26C26.55 18.75 27 19.1297 27 19.5938ZM35 11.5711V12H24.3333V3H24.8417C25.375 3 25.8833 3.17578 26.2583 3.49219L34.4167 10.3828C34.7917 10.6992 35 11.1281 35 11.5711Z" fill="#6C757D"/>
</svg>
