<svg width="79" height="95" viewBox="0 0 79 95" fill="none" xmlns="http://www.w3.org/2000/svg">
<g clip-path="url(#clip0_11555_6200)">
<path d="M0 4.99999C0 2.23857 2.23858 0 5 0H39.2863H49.1078H51.5632V0C51.7063 0 51.8436 0.0561748 51.9457 0.156431L54.0186 2.19289L64.2866 12.5002L78.5726 26.6187V29.5763V35.4916V47.3221V89.6442C78.5726 92.4056 76.334 94.6442 73.5726 94.6442H5C2.23858 94.6442 0 92.4056 0 89.6442V4.99999Z" fill="#FF5C00"/>
<path fill-rule="evenodd" clip-rule="evenodd" d="M51.7866 0L51.8009 18.6343C51.7864 19.7063 52.0067 20.7701 52.4482 21.7602C52.8897 22.7503 53.5431 23.6457 54.3681 24.3914C55.1932 25.1371 56.1724 25.7173 57.2457 26.0963C58.319 26.4753 59.5699 26.836 60.7153 26.7861L78.5727 26.7861L51.7866 0Z" fill="#FFA680"/>
<path d="M17.4624 84V66.5455H24.3487C25.6726 66.5455 26.8004 66.7983 27.7322 67.304C28.6641 67.804 29.3743 68.5 29.8629 69.392C30.3572 70.2784 30.6044 71.3011 30.6044 72.4602C30.6044 73.6193 30.3544 74.642 29.8544 75.5284C29.3544 76.4148 28.63 77.1051 27.6811 77.5994C26.7379 78.0937 25.5959 78.3409 24.255 78.3409H19.8658V75.3835H23.6584C24.3686 75.3835 24.9538 75.2614 25.4141 75.017C25.88 74.767 26.2266 74.4233 26.4538 73.9858C26.6868 73.5426 26.8033 73.0341 26.8033 72.4602C26.8033 71.8807 26.6868 71.375 26.4538 70.9432C26.2266 70.5057 25.88 70.1676 25.4141 69.929C24.9482 69.6847 24.3572 69.5625 23.6413 69.5625H21.1527V84H17.4624ZM33.0014 84V66.5455H39.8878C41.2116 66.5455 42.3395 66.7983 43.2713 67.304C44.2031 67.804 44.9134 68.5 45.402 69.392C45.8963 70.2784 46.1435 71.3011 46.1435 72.4602C46.1435 73.6193 45.8935 74.642 45.3935 75.5284C44.8935 76.4148 44.169 77.1051 43.2202 77.5994C42.277 78.0937 41.1349 78.3409 39.794 78.3409H35.4048V75.3835H39.1974C39.9077 75.3835 40.4929 75.2614 40.9531 75.017C41.419 74.767 41.7656 74.4233 41.9929 73.9858C42.2259 73.5426 42.3423 73.0341 42.3423 72.4602C42.3423 71.8807 42.2259 71.375 41.9929 70.9432C41.7656 70.5057 41.419 70.1676 40.9531 69.929C40.4872 69.6847 39.8963 69.5625 39.1804 69.5625H36.6918V84H33.0014ZM47.8757 69.5881V66.5455H62.2109V69.5881H56.8672V84H53.2195V69.5881H47.8757Z" fill="white"/>
</g>
<defs>
<clipPath id="clip0_11555_6200">
<rect width="79" height="95" fill="white"/>
</clipPath>
</defs>
</svg>
