<svg width="79" height="95" viewBox="0 0 79 95" fill="none" xmlns="http://www.w3.org/2000/svg">
<g clip-path="url(#clip0_11555_6204)">
<path d="M0 4.99999C0 2.23857 2.23858 0 5 0H39.2863H49.1078H51.5632V0C51.7063 0 51.8436 0.0561748 51.9457 0.156431L54.0186 2.19289L64.2866 12.5002L78.5726 26.6187V29.5763V35.4916V47.3221V89.6442C78.5726 92.4056 76.334 94.6442 73.5726 94.6442H5C2.23858 94.6442 0 92.4056 0 89.6442V4.99999Z" fill="#FF5C00"/>
<path fill-rule="evenodd" clip-rule="evenodd" d="M51.7866 0L51.8009 18.6343C51.7864 19.7063 52.0067 20.7701 52.4482 21.7602C52.8897 22.7503 53.5431 23.6457 54.3681 24.3914C55.1932 25.1371 56.1724 25.7173 57.2457 26.0963C58.319 26.4753 59.5699 26.836 60.7153 26.7861L78.5727 26.7861L51.7866 0Z" fill="#FFA680"/>
<path d="M8.88423 84V66.5455H15.7706C17.0945 66.5455 18.2223 66.7983 19.1541 67.304C20.0859 67.804 20.7962 68.5 21.2848 69.392C21.7791 70.2784 22.0263 71.3011 22.0263 72.4602C22.0263 73.6193 21.7763 74.642 21.2763 75.5284C20.7763 76.4148 20.0518 77.1051 19.103 77.5994C18.1598 78.0937 17.0178 78.3409 15.6768 78.3409H11.2876V75.3835H15.0803C15.7905 75.3835 16.3757 75.2614 16.8359 75.017C17.3018 74.767 17.6484 74.4233 17.8757 73.9858C18.1087 73.5426 18.2251 73.0341 18.2251 72.4602C18.2251 71.8807 18.1087 71.375 17.8757 70.9432C17.6484 70.5057 17.3018 70.1676 16.8359 69.929C16.37 69.6847 15.7791 69.5625 15.0632 69.5625H12.5746V84H8.88423ZM24.4233 84V66.5455H31.3097C32.6335 66.5455 33.7614 66.7983 34.6932 67.304C35.625 67.804 36.3352 68.5 36.8239 69.392C37.3182 70.2784 37.5653 71.3011 37.5653 72.4602C37.5653 73.6193 37.3153 74.642 36.8153 75.5284C36.3153 76.4148 35.5909 77.1051 34.642 77.5994C33.6989 78.0937 32.5568 78.3409 31.2159 78.3409H26.8267V75.3835H30.6193C31.3295 75.3835 31.9148 75.2614 32.375 75.017C32.8409 74.767 33.1875 74.4233 33.4148 73.9858C33.6477 73.5426 33.7642 73.0341 33.7642 72.4602C33.7642 71.8807 33.6477 71.375 33.4148 70.9432C33.1875 70.5057 32.8409 70.1676 32.375 69.929C31.9091 69.6847 31.3182 69.5625 30.6023 69.5625H28.1136V84H24.4233ZM39.2976 69.5881V66.5455H53.6328V69.5881H48.2891V84H44.6413V69.5881H39.2976ZM59.4538 66.5455L62.9737 72.4943H63.1101L66.647 66.5455H70.8146L65.4879 75.2727L70.9339 84H66.6896L63.1101 78.0426H62.9737L59.3942 84H55.1669L60.63 75.2727L55.2692 66.5455H59.4538Z" fill="white"/>
</g>
<defs>
<clipPath id="clip0_11555_6204">
<rect width="79" height="95" fill="white"/>
</clipPath>
</defs>
</svg>
