<svg width="79" height="95" viewBox="0 0 79 95" fill="none" xmlns="http://www.w3.org/2000/svg">
<g clip-path="url(#clip0_11555_6208)">
<path d="M0 4.99999C0 2.23857 2.23858 0 5 0H39.2863H49.1078H51.5632V0C51.7063 0 51.8436 0.0561748 51.9457 0.156431L54.0186 2.19289L64.2866 12.5002L78.5726 26.6187V29.5763V35.4916V47.3221V89.6442C78.5726 92.4056 76.334 94.6442 73.5726 94.6442H5C2.23858 94.6442 0 92.4056 0 89.6442V4.99999Z" fill="#FFB300"/>
<path fill-rule="evenodd" clip-rule="evenodd" d="M51.7866 0L51.8009 18.6343C51.7864 19.7063 52.0067 20.7701 52.4482 21.7602C52.8897 22.7503 53.5431 23.6457 54.3681 24.3914C55.1932 25.1371 56.1724 25.7173 57.2457 26.0963C58.319 26.4753 59.5699 26.836 60.7153 26.7861L78.5727 26.7861L51.7866 0Z" fill="#FFE57F"/>
<path d="M15.7429 69.5881V66.5455H30.0781V69.5881H24.7344V84H21.0866V69.5881H15.7429ZM35.8991 66.5455L39.419 72.4943H39.5554L43.0923 66.5455H47.2599L41.9332 75.2727L47.3793 84H43.1349L39.5554 78.0426H39.419L35.8395 84H31.6122L37.0753 75.2727L31.7145 66.5455H35.8991ZM48.9304 69.5881V66.5455H63.2656V69.5881H57.9219V84H54.2741V69.5881H48.9304Z" fill="white"/>
</g>
<defs>
<clipPath id="clip0_11555_6208">
<rect width="79" height="95" fill="white"/>
</clipPath>
</defs>
</svg>
