<svg width="24" height="24" viewBox="0 0 24 24" fill="none" xmlns="http://www.w3.org/2000/svg">
<path fill-rule="evenodd" clip-rule="evenodd" d="M5.15506 2.40044C4.74747 2.39719 4.35515 2.5551 4.06381 2.83966C3.77247 3.12423 3.60579 3.51233 3.60017 3.91918V20.2851C3.59815 20.4897 3.63696 20.6926 3.71434 20.882C3.79173 21.0714 3.90613 21.2435 4.05088 21.3883C4.19563 21.533 4.36782 21.6476 4.55741 21.7252C4.74699 21.8028 4.95016 21.842 5.15506 21.8403H19.0851C19.29 21.842 19.4932 21.8028 19.6828 21.7252C19.8724 21.6476 20.0446 21.533 20.1893 21.3883C20.3341 21.2435 20.4485 21.0714 20.5259 20.882C20.6032 20.6926 20.642 20.4897 20.64 20.2851V8.56046L14.8769 2.40044H5.15506Z" fill="#FFB300"/>
<path fill-rule="evenodd" clip-rule="evenodd" d="M14.8799 2.40039V6.86291C14.8791 7.10457 14.9274 7.34384 15.0218 7.566C15.1162 7.78816 15.2547 7.98852 15.4289 8.15474C15.603 8.32097 15.8091 8.44955 16.0344 8.53257C16.2597 8.61559 16.4995 8.6513 16.739 8.6375H20.6399L14.8799 2.40039Z" fill="#FFE57F"/>
<path d="M8.5212 16.211L9.16182 17.2764H9.18455L9.82802 16.211H10.4289L9.53256 17.6656L10.4431 19.1201H9.83228L9.18455 18.0619H9.16182L8.5141 19.1201H7.90614L8.82518 17.6656L7.9175 16.211H8.5212ZM10.8426 16.211H11.4875L12.3511 18.319H12.3852L13.2488 16.211H13.8937V19.1201H13.388V17.1215H13.361L12.5571 19.1116H12.1792L11.3752 17.1173H11.3483V19.1201H10.8426V16.211ZM14.4676 19.1201V16.211H14.9946V18.6784H16.2758V19.1201H14.4676Z" fill="white"/>
</svg>
