<svg width="79" height="95" viewBox="0 0 79 95" fill="none" xmlns="http://www.w3.org/2000/svg">
<g clip-path="url(#clip0_11555_6216)">
<path d="M0 4.99999C0 2.23857 2.23858 0 5 0H39.2863H49.1078H51.5632V0C51.7063 0 51.8436 0.0561748 51.9457 0.156431L54.0186 2.19289L64.2866 12.5002L78.5726 26.6187V29.5763V35.4916V47.3221V89.6442C78.5726 92.4056 76.334 94.6442 73.5726 94.6442H5C2.23858 94.6442 0 92.4056 0 89.6442V4.99999Z" fill="#4CAF50"/>
<path fill-rule="evenodd" clip-rule="evenodd" d="M51.7866 0L51.8009 18.6343C51.7864 19.7063 52.0067 20.7701 52.4482 21.7602C52.8897 22.7503 53.5431 23.6457 54.3681 24.3914C55.1932 25.1371 56.1724 25.7173 57.2457 26.0963C58.319 26.4753 59.5699 26.836 60.7153 26.7861L78.5727 26.7861L51.7866 0Z" fill="#B9F6CA"/>
<path d="M21.2273 66.5455L24.7472 72.4943H24.8835L28.4205 66.5455H32.5881L27.2614 75.2727L32.7074 84H28.4631L24.8835 78.0426H24.7472L21.1676 84H16.9403L22.4034 75.2727L17.0426 66.5455H21.2273ZM34.9233 84V66.5455H38.6136V80.9574H46.0966V84H34.9233ZM58.0092 71.5653C57.9411 70.8778 57.6484 70.3437 57.1314 69.9631C56.6143 69.5824 55.9126 69.392 55.0263 69.392C54.424 69.392 53.9155 69.4773 53.5007 69.6477C53.0859 69.8125 52.7678 70.0426 52.5462 70.3381C52.3303 70.6335 52.2223 70.9688 52.2223 71.3438C52.2109 71.6562 52.2763 71.929 52.4183 72.1619C52.5661 72.3949 52.7678 72.5966 53.0234 72.767C53.2791 72.9318 53.5746 73.0767 53.9098 73.2017C54.245 73.321 54.603 73.4233 54.9837 73.5085L56.5518 73.8835C57.3132 74.054 58.0121 74.2812 58.6484 74.5653C59.2848 74.8494 59.8359 75.1989 60.3018 75.6136C60.7678 76.0284 61.1286 76.517 61.3842 77.0795C61.6456 77.642 61.7791 78.2869 61.7848 79.0142C61.7791 80.0824 61.5064 81.0085 60.9666 81.7926C60.4325 82.571 59.6598 83.1761 58.6484 83.608C57.6428 84.0341 56.4297 84.2472 55.0092 84.2472C53.6001 84.2472 52.3729 84.0312 51.3274 83.5994C50.2876 83.1676 49.4751 82.5284 48.8899 81.6818C48.3104 80.8295 48.0064 79.7756 47.978 78.5199H51.549C51.5888 79.1051 51.7564 79.5937 52.0518 79.9858C52.353 80.3722 52.7536 80.6648 53.2536 80.8636C53.7592 81.0568 54.3303 81.1534 54.9666 81.1534C55.5916 81.1534 56.1342 81.0625 56.5945 80.8807C57.0604 80.6989 57.4212 80.446 57.6768 80.1222C57.9325 79.7983 58.0604 79.4261 58.0604 79.0057C58.0604 78.6136 57.9439 78.2841 57.7109 78.017C57.4837 77.75 57.1484 77.5227 56.7053 77.3352C56.2678 77.1477 55.7308 76.9773 55.0945 76.8239L53.1939 76.3466C51.7223 75.9886 50.5604 75.429 49.7081 74.6676C48.8558 73.9062 48.4325 72.8807 48.4382 71.5909C48.4325 70.5341 48.7138 69.6108 49.282 68.821C49.8558 68.0312 50.6428 67.4148 51.6428 66.9716C52.6428 66.5284 53.7791 66.3068 55.0518 66.3068C56.3473 66.3068 57.478 66.5284 58.4439 66.9716C59.4155 67.4148 60.1712 68.0312 60.7109 68.821C61.2507 69.6108 61.5291 70.5256 61.5462 71.5653H58.0092Z" fill="white"/>
</g>
<defs>
<clipPath id="clip0_11555_6216">
<rect width="79" height="95" fill="white"/>
</clipPath>
</defs>
</svg>
