<svg width="79" height="95" viewBox="0 0 79 95" fill="none" xmlns="http://www.w3.org/2000/svg">
<g clip-path="url(#clip0_11555_6220)">
<path d="M0 4.99999C0 2.23857 2.23858 0 5 0H39.2863H49.1078H51.5632V0C51.7063 0 51.8436 0.0561748 51.9457 0.156431L54.0186 2.19289L64.2866 12.5002L78.5726 26.6187V29.5763V35.4916V47.3221V89.6442C78.5726 92.4056 76.334 94.6442 73.5726 94.6442H5C2.23858 94.6442 0 92.4056 0 89.6442V4.99999Z" fill="#4CAF50"/>
<path fill-rule="evenodd" clip-rule="evenodd" d="M51.7866 0L51.8009 18.6343C51.7864 19.7063 52.0067 20.7701 52.4482 21.7602C52.8897 22.7503 53.5431 23.6457 54.3681 24.3914C55.1932 25.1371 56.1724 25.7173 57.2457 26.0963C58.319 26.4753 59.5699 26.836 60.7153 26.7861L78.5727 26.7861L51.7866 0Z" fill="#B9F6CA"/>
<path d="M12.6491 66.5455L16.169 72.4943H16.3054L19.8423 66.5455H24.0099L18.6832 75.2727L24.1293 84H19.8849L16.3054 78.0426H16.169L12.5895 84H8.36222L13.8253 75.2727L8.46449 66.5455H12.6491ZM26.3452 84V66.5455H30.0355V80.9574H37.5185V84H26.3452ZM49.4311 71.5653C49.3629 70.8778 49.0703 70.3437 48.5533 69.9631C48.0362 69.5824 47.3345 69.392 46.4482 69.392C45.8459 69.392 45.3374 69.4773 44.9226 69.6477C44.5078 69.8125 44.1896 70.0426 43.968 70.3381C43.7521 70.6335 43.6442 70.9688 43.6442 71.3438C43.6328 71.6562 43.6982 71.929 43.8402 72.1619C43.9879 72.3949 44.1896 72.5966 44.4453 72.767C44.701 72.9318 44.9964 73.0767 45.3317 73.2017C45.6669 73.321 46.0249 73.4233 46.4055 73.5085L47.9737 73.8835C48.7351 74.054 49.4339 74.2812 50.0703 74.5653C50.7067 74.8494 51.2578 75.1989 51.7237 75.6136C52.1896 76.0284 52.5504 76.517 52.8061 77.0795C53.0675 77.642 53.201 78.2869 53.2067 79.0142C53.201 80.0824 52.9283 81.0085 52.3885 81.7926C51.8544 82.571 51.0817 83.1761 50.0703 83.608C49.0646 84.0341 47.8516 84.2472 46.4311 84.2472C45.022 84.2472 43.7947 84.0312 42.7493 83.5994C41.7095 83.1676 40.897 82.5284 40.3118 81.6818C39.7322 80.8295 39.4283 79.7756 39.3999 78.5199H42.9709C43.0107 79.1051 43.1783 79.5937 43.4737 79.9858C43.7749 80.3722 44.1754 80.6648 44.6754 80.8636C45.1811 81.0568 45.7521 81.1534 46.3885 81.1534C47.0135 81.1534 47.5561 81.0625 48.0163 80.8807C48.4822 80.6989 48.843 80.446 49.0987 80.1222C49.3544 79.7983 49.4822 79.4261 49.4822 79.0057C49.4822 78.6136 49.3658 78.2841 49.1328 78.017C48.9055 77.75 48.5703 77.5227 48.1271 77.3352C47.6896 77.1477 47.1527 76.9773 46.5163 76.8239L44.6158 76.3466C43.1442 75.9886 41.9822 75.429 41.13 74.6676C40.2777 73.9062 39.8544 72.8807 39.8601 71.5909C39.8544 70.5341 40.1357 69.6108 40.7038 68.821C41.2777 68.0312 42.0646 67.4148 43.0646 66.9716C44.0646 66.5284 45.201 66.3068 46.4737 66.3068C47.7692 66.3068 48.8999 66.5284 49.8658 66.9716C50.8374 67.4148 51.593 68.0312 52.1328 68.821C52.6726 69.6108 52.951 70.5256 52.968 71.5653H49.4311ZM59.1491 66.5455L62.669 72.4943H62.8054L66.3423 66.5455H70.5099L65.1832 75.2727L70.6293 84H66.3849L62.8054 78.0426H62.669L59.0895 84H54.8622L60.3253 75.2727L54.9645 66.5455H59.1491Z" fill="white"/>
</g>
<defs>
<clipPath id="clip0_11555_6220">
<rect width="79" height="95" fill="white"/>
</clipPath>
</defs>
</svg>
