<svg width="32" height="36" viewBox="0 0 32 36" fill="none" xmlns="http://www.w3.org/2000/svg">
<g clip-path="url(#clip0)">
<path d="M18.6667 9.5625V0H2C0.891667 0 0 0.752344 0 1.6875V34.3125C0 35.2477 0.891667 36 2 36H30C31.1083 36 32 35.2477 32 34.3125V11.25H20.6667C19.5667 11.25 18.6667 10.4906 18.6667 9.5625ZM23.675 17.0508L18.6667 23.625L23.675 30.1992C24.1 30.7617 23.625 31.5 22.8333 31.5H19.925C19.5583 31.5 19.2167 31.3313 19.0417 31.057C17.4083 28.5117 16 26.2266 16 26.2266C15.4667 27.2672 15.1667 27.6328 12.95 31.0641C12.775 31.3383 12.4417 31.507 12.075 31.507H9.16667C8.375 31.507 7.9 30.7688 8.325 30.2063L13.35 23.632L8.325 17.0578C7.89167 16.4953 8.375 15.757 9.16667 15.757H12.0667C12.4333 15.757 12.775 15.9258 12.95 16.2C15.125 19.6312 14.6167 18.5625 16 21.0164C16 21.0164 16.5083 20.1937 19.05 16.2C19.225 15.9258 19.5667 15.757 19.9333 15.757H22.8333C23.625 15.75 24.1 16.4883 23.675 17.0508V17.0508ZM32 8.57109V9H21.3333V0H21.8417C22.375 0 22.8833 0.175781 23.2583 0.492188L31.4167 7.38281C31.7917 7.69922 32 8.12813 32 8.57109Z" fill="#347442"/>
</g>
<defs>
<clipPath id="clip0">
<rect width="32" height="36" fill="white"/>
</clipPath>
</defs>
</svg>
