<svg width="79" height="95" viewBox="0 0 79 95" fill="none" xmlns="http://www.w3.org/2000/svg">
<g clip-path="url(#clip0_11555_6224)">
<path d="M0 4.99999C0 2.23857 2.23858 0 5 0H39.2863H49.1078H51.5632V0C51.7063 0 51.8436 0.0561748 51.9457 0.156431L54.0186 2.19289L64.2866 12.5002L78.5726 26.6187V29.5763V35.4916V47.3221V89.6442C78.5726 92.4056 76.334 94.6442 73.5726 94.6442H5C2.23858 94.6442 0 92.4056 0 89.6442V4.99999Z" fill="#FFB300"/>
<path fill-rule="evenodd" clip-rule="evenodd" d="M51.7866 0L51.8009 18.6343C51.7864 19.7063 52.0067 20.7701 52.4482 21.7602C52.8897 22.7503 53.5431 23.6457 54.3681 24.3914C55.1932 25.1371 56.1724 25.7173 57.2457 26.0963C58.319 26.4753 59.5699 26.836 60.7153 26.7861L78.5727 26.7861L51.7866 0Z" fill="#FFE57F"/>
<path d="M18.1101 66.5455L21.63 72.4943H21.7663L25.3033 66.5455H29.4709L24.1442 75.2727L29.5902 84H25.3459L21.7663 78.0426H21.63L18.0504 84H13.8232L19.2862 75.2727L13.9254 66.5455H18.1101ZM31.8061 66.5455H36.3572L41.1641 78.2727H41.3686L46.1754 66.5455H50.7266V84H47.147V72.6392H47.0021L42.4851 83.9148H40.0476L35.5305 72.5966H35.3857V84H31.8061V66.5455ZM53.767 84V66.5455H57.4574V80.9574H64.9403V84H53.767Z" fill="white"/>
</g>
<defs>
<clipPath id="clip0_11555_6224">
<rect width="79" height="95" fill="white"/>
</clipPath>
</defs>
</svg>
