<svg width="32" height="36" viewBox="0 0 32 36" fill="none" xmlns="http://www.w3.org/2000/svg">
<path d="M22.6865 0H1.08874C0.487442 0 0 0.421071 0 1.23814V35.3571C0 35.5789 0.487442 36 1.08874 36H30.9113C31.5126 36 32 35.5789 32 35.3571V8.343C32 7.89557 31.9308 7.75157 31.8087 7.6455L23.1494 0.165214C23.0266 0.0597857 22.8599 0 22.6865 0Z" fill="#E9E9E0"/>
<path d="M23.0698 0.097168V7.71438H31.8877L23.0698 0.097168Z" fill="#D9D7CA"/>
<path d="M30.9113 35.9999H1.08874C0.487442 35.9999 0 35.5788 0 35.0594V25.0713H32V35.0594C32 35.5788 31.5126 35.9999 30.9113 35.9999Z" fill="#F29C1F"/>
<path d="M9.58436 30.9245L11.4872 34.0713H10.0733L8.88259 31.6278H8.78063L7.4984 34.0713H6.08445L7.98733 30.9245L5.9624 27.5933H7.35626L8.67868 30.2303H8.78063L10.2154 27.5933H11.6093L9.58436 30.9245Z" fill="white"/>
<path d="M18.9753 27.5942H20.2166V34.0717H18.9753V29.6154L17.2964 33.2186H16.2181L14.5288 29.6154V34.0717H13.2875V27.5942H14.5288L16.7569 32.0242L18.9753 27.5942Z" fill="white"/>
<path d="M23.3398 27.5942V33.272H26.7891V34.0717H22.0985V27.5942H23.3398Z" fill="white"/>
<path d="M6.69762 15.4287C6.50711 15.4287 6.3166 15.3657 6.17148 15.2403C5.8805 14.9889 5.8805 14.5827 6.17148 14.3313L10.6366 10.4742C10.9276 10.2228 11.3979 10.2228 11.6889 10.4742C11.9799 10.7255 11.9799 11.1318 11.6889 11.3832L7.22376 15.2403C7.07864 15.3657 6.88813 15.4287 6.69762 15.4287Z" fill="#F29C1F"/>
<path d="M11.1627 19.2861C10.9722 19.2861 10.7817 19.2231 10.6366 19.0977L6.17148 15.2406C5.8805 14.9892 5.8805 14.5829 6.17148 14.3316C6.46246 14.0802 6.93278 14.0802 7.22376 14.3316L11.6889 18.1887C11.9799 18.4401 11.9799 18.8464 11.6889 19.0977C11.5438 19.2231 11.3532 19.2861 11.1627 19.2861Z" fill="#F29C1F"/>
<path d="M20.093 19.2861C19.9025 19.2861 19.712 19.2231 19.5669 19.0977C19.2759 18.8464 19.2759 18.4401 19.5669 18.1887L24.032 14.3316C24.323 14.0802 24.7933 14.0802 25.0843 14.3316C25.3752 14.5829 25.3752 14.9892 25.0843 15.2406L20.6191 19.0977C20.474 19.2231 20.2835 19.2861 20.093 19.2861Z" fill="#F29C1F"/>
<path d="M24.5581 15.4287C24.3676 15.4287 24.1771 15.3657 24.032 15.2403L19.5669 11.3832C19.2759 11.1318 19.2759 10.7255 19.5669 10.4742C19.8578 10.2228 20.3282 10.2228 20.6191 10.4742L25.0843 14.3313C25.3752 14.5827 25.3752 14.9889 25.0843 15.2403C24.9391 15.3657 24.7486 15.4287 24.5581 15.4287Z" fill="#F29C1F"/>
<path d="M13.3954 20.5714C13.3135 20.5714 13.2294 20.5592 13.1475 20.5341C12.7598 20.4158 12.5567 20.0488 12.6936 19.7138L17.1587 8.78525C17.2964 8.45032 17.7191 8.27418 18.1083 8.39311C18.496 8.51139 18.6992 8.87847 18.5622 9.21339L14.0971 20.142C13.9892 20.4068 13.702 20.5714 13.3954 20.5714Z" fill="#F29C1F"/>
</svg>
