<svg width="79" height="95" viewBox="0 0 79 95" fill="none" xmlns="http://www.w3.org/2000/svg">
<g clip-path="url(#clip0_11555_6228)">
<path d="M0 5C0 2.23857 2.23858 0 5 0H39.2863H49.1078H51.5632V0C51.7063 0 51.8436 0.0561747 51.9457 0.156431L54.0186 2.19289L64.2866 12.5002L78.5725 26.6187V29.5763V35.4916V47.3221V89.6442C78.5725 92.4056 76.334 94.6442 73.5725 94.6442H5C2.23858 94.6442 0 92.4056 0 89.6442V5Z" fill="#FFB300"/>
<path fill-rule="evenodd" clip-rule="evenodd" d="M51.7866 0L51.8009 18.6343C51.7864 19.7063 52.0067 20.7701 52.4482 21.7602C52.8897 22.7503 53.5431 23.6457 54.3681 24.3914C55.1932 25.1371 56.1724 25.7173 57.2457 26.0963C58.319 26.4753 59.5699 26.836 60.7153 26.7861L78.5727 26.7861L51.7866 0Z" fill="#FFE57F"/>
<path d="M21.6928 84V81.8097L30.4031 69.5881H21.6758V66.5455H35.0394V68.7358L26.3207 80.9574H35.0565V84H21.6928ZM41.5785 66.5455V84H37.8881V66.5455H41.5785ZM44.6147 84V66.5455H51.5011C52.8249 66.5455 53.9528 66.7983 54.8846 67.304C55.8164 67.804 56.5266 68.5 57.0153 69.392C57.5096 70.2784 57.7567 71.3011 57.7567 72.4602C57.7567 73.6193 57.5067 74.642 57.0067 75.5284C56.5067 76.4148 55.7823 77.1051 54.8335 77.5994C53.8903 78.0937 52.7482 78.3409 51.4073 78.3409H47.0181V75.3835H50.8107C51.521 75.3835 52.1062 75.2614 52.5664 75.017C53.0323 74.767 53.3789 74.4233 53.6062 73.9858C53.8391 73.5426 53.9556 73.0341 53.9556 72.4602C53.9556 71.8807 53.8391 71.375 53.6062 70.9432C53.3789 70.5057 53.0323 70.1676 52.5664 69.929C52.1005 69.6847 51.5096 69.5625 50.7937 69.5625H48.305V84H44.6147Z" fill="white"/>
<rect x="9" width="15" height="37" fill="white"/>
<path fill-rule="evenodd" clip-rule="evenodd" d="M16.0001 0H24C24 2 24 42 24 42H9C9 42 9.00007 3 9.00011 0H11.5001V3H14.5001V6H11.5001V9H14.5001V12H11.5001V15H14.5001V18H19.0001V15H16.0001V12H19.0001V9H16.0001V6H19.0001V3H16.0001V0ZM11.5001 22.5C11.5001 21.7044 11.8162 20.9413 12.3788 20.3787C12.9414 19.8161 13.7045 19.5 14.5001 19.5H17.5001C18.2958 19.5 19.0588 19.8161 19.6214 20.3787C20.184 20.9413 20.5001 21.7044 20.5001 22.5V25.314L21.7001 30.111C21.8496 30.7112 21.81 31.3429 21.5866 31.9197C21.3631 32.4965 20.9669 32.9901 20.4521 33.333L17.6621 35.193C17.1694 35.5213 16.5906 35.6964 15.9986 35.6964C15.4066 35.6964 14.8278 35.5213 14.3351 35.193L11.5451 33.333C11.0309 32.9897 10.6352 32.4959 10.4124 31.9192C10.1895 31.3424 10.1503 30.7109 10.3001 30.111L11.5001 25.314V22.5ZM17.5001 25.314V22.5H14.5001V25.314C14.5001 25.5598 14.4699 25.8046 14.4101 26.043L13.2101 30.837L16.0001 32.697L18.7901 30.837L17.5901 26.043C17.5304 25.8046 17.5001 25.5598 17.5001 25.314Z" fill="#FFB300"/>
</g>
<defs>
<clipPath id="clip0_11555_6228">
<rect width="79" height="95" fill="white"/>
</clipPath>
</defs>
</svg>
