<svg width="32" height="36" viewBox="0 0 32 36" fill="none" xmlns="http://www.w3.org/2000/svg">
<path d="M31.4167 7.38281L23.2583 0.492188C22.8833 0.175781 22.375 0 21.8417 0H21.3333V9H32V8.57109C32 8.12813 31.7917 7.69922 31.4167 7.38281ZM10.7 23.625C9.20833 23.625 8 24.4758 8 25.5234C8 26.5781 9.21667 27.4219 10.7083 27.4219C12.2 27.4219 13.4083 26.5711 13.4083 25.5234C13.4083 24.4758 12.1917 23.625 10.7 23.625ZM18.6667 9.5625V0H13.3667V2.25H10.7V0H2C0.891667 0 0 0.752344 0 1.6875V34.3125C0 35.2477 0.891667 36 2 36H30C31.1083 36 32 35.2477 32 34.3125V11.25H20.6667C19.5667 11.25 18.6667 10.4906 18.6667 9.5625ZM7.99167 2.25H10.6583V4.5H7.99167V2.25ZM10.6833 29.25C7.91667 29.25 5.85 27.1125 6.4 24.8273L8.03333 18V15.75H10.7V13.5H8.03333V11.25H10.7V9H8.03333V6.75H10.7V4.5H13.3667V6.75H10.7V9H13.3667V11.25H10.7V13.5H13.3667V15.75H10.7V18H12.5417C13.0167 18 13.4333 18.2883 13.525 18.682L14.9667 24.8484C15.5 27.1266 13.4333 29.25 10.6833 29.25V29.25Z" fill="#FFDE50"/>
</svg>
