<svg width="30" height="30" viewBox="0 0 30 30" fill="none" xmlns="http://www.w3.org/2000/svg">
<g clip-path="url(#clip0_2353_16443)">
<path d="M25 6.15548H18.5188C18.0013 4.72499 16.6275 3.69336 15 3.69336C13.3725 3.69336 11.9988 4.72499 11.4813 6.15548H5C3.62125 6.15548 2.5 7.25851 2.5 8.6176V23.3903C2.5 24.7482 3.62125 25.8525 5 25.8525H25C26.3788 25.8525 27.5 24.7482 27.5 23.3903V8.6176C27.5 7.25851 26.3788 6.15548 25 6.15548ZM10 11.0797C11.38 11.0797 12.5 12.1828 12.5 13.5418C12.5 14.9009 11.38 16.004 10 16.004C8.62 16.004 7.5 14.9009 7.5 13.5418C7.5 12.1828 8.62 11.0797 10 11.0797ZM6.25 20.9282C6.25 18.6618 7.69875 17.235 10 17.235C12.3013 17.235 13.75 18.6618 13.75 20.9282H6.25ZM15 8.6176C14.3113 8.6176 13.75 8.06486 13.75 7.38654C13.75 6.70823 14.3113 6.15548 15 6.15548C15.6888 6.15548 16.25 6.70823 16.25 7.38654C16.25 8.06486 15.6888 8.6176 15 8.6176ZM23.75 20.9282H16.25V18.4661H23.75V20.9282ZM23.75 16.004H16.25V13.5418H23.75V16.004Z" fill="#0078FF"/>
</g>
<defs>
<clipPath id="clip0_2353_16443">
<rect width="30" height="29.5455" fill="white"/>
</clipPath>
</defs>
</svg>
