<svg width="48" height="48" viewBox="0 0 48 48" fill="none" xmlns="http://www.w3.org/2000/svg">
<path fill-rule="evenodd" clip-rule="evenodd" d="M9 7.5C9 5.51088 9.79018 3.60322 11.1967 2.1967C12.6032 0.790176 14.5109 0 16.5 0C18.4891 0 20.3968 0.790176 21.8033 2.1967C23.2098 3.60322 24 5.51088 24 7.5C24 5.51088 24.7902 3.60322 26.1967 2.1967C27.6032 0.790176 29.5109 0 31.5 0C33.4891 0 35.3968 0.790176 36.8033 2.1967C38.2098 3.60322 39 5.51088 39 7.5V7.518C39 7.728 39 8.328 38.886 9H45C45.7957 9 46.5587 9.31607 47.1213 9.87868C47.6839 10.4413 48 11.2044 48 12V18C48 18.7956 47.6839 19.5587 47.1213 20.1213C46.5587 20.6839 45.7957 21 45 21V43.5C45 44.6935 44.5259 45.8381 43.682 46.682C42.8381 47.5259 41.6935 48 40.5 48H7.5C6.30653 48 5.16193 47.5259 4.31802 46.682C3.47411 45.8381 3 44.6935 3 43.5V21C2.20435 21 1.44129 20.6839 0.87868 20.1213C0.316071 19.5587 0 18.7956 0 18V12C0 11.2044 0.316071 10.4413 0.87868 9.87868C1.44129 9.31607 2.20435 9 3 9H9.114C9.03476 8.51004 8.99663 8.01431 9 7.518V7.5ZM12.204 9H21V7.5C21 6.90905 20.8836 6.32389 20.6575 5.77792C20.4313 5.23196 20.0998 4.73588 19.682 4.31802C19.2641 3.90016 18.768 3.56869 18.2221 3.34254C17.6761 3.1164 17.0909 3 16.5 3C15.9091 3 15.3239 3.1164 14.7779 3.34254C14.232 3.56869 13.7359 3.90016 13.318 4.31802C12.9002 4.73588 12.5687 5.23196 12.3425 5.77792C12.1164 6.32389 12 6.90905 12 7.5C12 7.755 12.006 8.322 12.135 8.79C12.153 8.86154 12.1761 8.93171 12.204 9ZM27 9H35.796C35.8236 8.93159 35.8466 8.86144 35.865 8.79C35.994 8.322 36 7.755 36 7.5C36 6.30653 35.5259 5.16193 34.682 4.31802C33.8381 3.47411 32.6935 3 31.5 3C30.3065 3 29.1619 3.47411 28.318 4.31802C27.4741 5.16193 27 6.30653 27 7.5V9ZM3 12V18H21V12H3ZM27 12V18H45V12H27ZM42 21H27V45H40.5C40.8978 45 41.2794 44.842 41.5607 44.5607C41.842 44.2794 42 43.8978 42 43.5V21ZM21 45V21H6V43.5C6 43.8978 6.15804 44.2794 6.43934 44.5607C6.72064 44.842 7.10218 45 7.5 45H21Z" fill="black"/>
</svg>
