<svg width="48" height="48" viewBox="0 0 48 48" fill="none" xmlns="http://www.w3.org/2000/svg">
<path fill-rule="evenodd" clip-rule="evenodd" d="M6 3H42C42.7956 3 43.5587 3.31607 44.1213 3.87868C44.6839 4.44129 45 5.20435 45 6V42C45 42.7956 44.6839 43.5587 44.1213 44.1213C43.5587 44.6839 42.7956 45 42 45H6C5.20435 45 4.44129 44.6839 3.87868 44.1213C3.31607 43.5587 3 42.7956 3 42V6C3 5.20435 3.31607 4.44129 3.87868 3.87868C4.44129 3.31607 5.20435 3 6 3V3ZM42 0C43.5913 0 45.1174 0.632141 46.2426 1.75736C47.3679 2.88258 48 4.4087 48 6V42C48 43.5913 47.3679 45.1174 46.2426 46.2426C45.1174 47.3679 43.5913 48 42 48H6C4.4087 48 2.88258 47.3679 1.75736 46.2426C0.632141 45.1174 0 43.5913 0 42V6C0 4.4087 0.632141 2.88258 1.75736 1.75736C2.88258 0.632141 4.4087 0 6 0L42 0Z" fill="black"/>
<path fill-rule="evenodd" clip-rule="evenodd" d="M15 45V3H12V45H15ZM39 10.5C39 10.1022 38.842 9.72064 38.5607 9.43934C38.2794 9.15804 37.8978 9 37.5 9H22.5C22.1022 9 21.7206 9.15804 21.4393 9.43934C21.158 9.72064 21 10.1022 21 10.5C21 10.8978 21.158 11.2794 21.4393 11.5607C21.7206 11.842 22.1022 12 22.5 12H37.5C37.8978 12 38.2794 11.842 38.5607 11.5607C38.842 11.2794 39 10.8978 39 10.5ZM39 19.5C39 19.1022 38.842 18.7206 38.5607 18.4393C38.2794 18.158 37.8978 18 37.5 18H22.5C22.1022 18 21.7206 18.158 21.4393 18.4393C21.158 18.7206 21 19.1022 21 19.5C21 19.8978 21.158 20.2794 21.4393 20.5607C21.7206 20.842 22.1022 21 22.5 21H37.5C37.8978 21 38.2794 20.842 38.5607 20.5607C38.842 20.2794 39 19.8978 39 19.5ZM39 28.5C39 28.1022 38.842 27.7206 38.5607 27.4393C38.2794 27.158 37.8978 27 37.5 27H22.5C22.1022 27 21.7206 27.158 21.4393 27.4393C21.158 27.7206 21 28.1022 21 28.5C21 28.8978 21.158 29.2794 21.4393 29.5607C21.7206 29.842 22.1022 30 22.5 30H37.5C37.8978 30 38.2794 29.842 38.5607 29.5607C38.842 29.2794 39 28.8978 39 28.5ZM39 37.5C39 37.1022 38.842 36.7206 38.5607 36.4393C38.2794 36.158 37.8978 36 37.5 36H22.5C22.1022 36 21.7206 36.158 21.4393 36.4393C21.158 36.7206 21 37.1022 21 37.5C21 37.8978 21.158 38.2794 21.4393 38.5607C21.7206 38.842 22.1022 39 22.5 39H37.5C37.8978 39 38.2794 38.842 38.5607 38.5607C38.842 38.2794 39 37.8978 39 37.5Z" fill="black"/>
</svg>
