<svg width="18" height="18" viewBox="0 0 18 18" fill="none" xmlns="http://www.w3.org/2000/svg">
<g clip-path="url(#clip0_744_18544)">
<path d="M11.625 8.25C12.2463 8.25 12.75 7.74632 12.75 7.125C12.75 6.50368 12.2463 6 11.625 6C11.0037 6 10.5 6.50368 10.5 7.125C10.5 7.74632 11.0037 8.25 11.625 8.25Z" fill="#3E4347"/>
<path d="M6.375 8.25C6.99632 8.25 7.5 7.74632 7.5 7.125C7.5 6.50368 6.99632 6 6.375 6C5.75368 6 5.25 6.50368 5.25 7.125C5.25 7.74632 5.75368 8.25 6.375 8.25Z" fill="#3E4347"/>
<path d="M9 10.5C7.2525 10.5 5.76 11.5875 5.16 13.125H6.4125C6.93 12.2325 7.89 11.625 9 11.625C10.11 11.625 11.0625 12.2325 11.5875 13.125H12.84C12.24 11.5875 10.7475 10.5 9 10.5V10.5ZM8.9925 1.5C4.8525 1.5 1.5 4.86 1.5 9C1.5 13.14 4.8525 16.5 8.9925 16.5C13.14 16.5 16.5 13.14 16.5 9C16.5 4.86 13.14 1.5 8.9925 1.5ZM9 15C5.685 15 3 12.315 3 9C3 5.685 5.685 3 9 3C12.315 3 15 5.685 15 9C15 12.315 12.315 15 9 15Z" fill="#3E4347"/>
</g>
<defs>
<clipPath id="clip0_744_18544">
<rect width="18" height="18" fill="white"/>
</clipPath>
</defs>
</svg>
