<svg width="12" height="13" viewBox="0 0 12 13" fill="none" xmlns="http://www.w3.org/2000/svg">
<rect y="0.75" width="12" height="12" rx="6" fill="#FFA800"/>
<path d="M7.00391 7.76172C7.00391 7.66016 6.98828 7.56901 6.95703 7.48828C6.92839 7.40495 6.8737 7.32943 6.79297 7.26172C6.71224 7.19141 6.59896 7.1224 6.45312 7.05469C6.30729 6.98698 6.11849 6.91667 5.88672 6.84375C5.62891 6.76042 5.38411 6.66667 5.15234 6.5625C4.92318 6.45833 4.72005 6.33724 4.54297 6.19922C4.36849 6.05859 4.23047 5.89583 4.12891 5.71094C4.02995 5.52604 3.98047 5.3112 3.98047 5.06641C3.98047 4.82943 4.03255 4.61458 4.13672 4.42188C4.24089 4.22656 4.38672 4.0599 4.57422 3.92188C4.76172 3.78125 4.98307 3.67318 5.23828 3.59766C5.49609 3.52214 5.77865 3.48438 6.08594 3.48438C6.50521 3.48438 6.87109 3.5599 7.18359 3.71094C7.49609 3.86198 7.73828 4.06901 7.91016 4.33203C8.08464 4.59505 8.17188 4.89583 8.17188 5.23438H7.00781C7.00781 5.06771 6.97266 4.92188 6.90234 4.79688C6.83464 4.66927 6.73047 4.56901 6.58984 4.49609C6.45182 4.42318 6.27734 4.38672 6.06641 4.38672C5.86328 4.38672 5.69401 4.41797 5.55859 4.48047C5.42318 4.54036 5.32161 4.6224 5.25391 4.72656C5.1862 4.82812 5.15234 4.94271 5.15234 5.07031C5.15234 5.16667 5.17578 5.25391 5.22266 5.33203C5.27214 5.41016 5.34505 5.48307 5.44141 5.55078C5.53776 5.61849 5.65625 5.68229 5.79688 5.74219C5.9375 5.80208 6.10026 5.86068 6.28516 5.91797C6.59505 6.01172 6.86719 6.11719 7.10156 6.23438C7.33854 6.35156 7.53646 6.48307 7.69531 6.62891C7.85417 6.77474 7.97396 6.9401 8.05469 7.125C8.13542 7.3099 8.17578 7.51953 8.17578 7.75391C8.17578 8.0013 8.1276 8.22266 8.03125 8.41797C7.9349 8.61328 7.79557 8.77865 7.61328 8.91406C7.43099 9.04948 7.21354 9.15234 6.96094 9.22266C6.70833 9.29297 6.42578 9.32812 6.11328 9.32812C5.83203 9.32812 5.55469 9.29167 5.28125 9.21875C5.00781 9.14323 4.75911 9.02995 4.53516 8.87891C4.3138 8.72786 4.13672 8.53516 4.00391 8.30078C3.87109 8.06641 3.80469 7.78906 3.80469 7.46875H4.98047C4.98047 7.64583 5.00781 7.79557 5.0625 7.91797C5.11719 8.04036 5.19401 8.13932 5.29297 8.21484C5.39453 8.29036 5.51432 8.34505 5.65234 8.37891C5.79297 8.41276 5.94661 8.42969 6.11328 8.42969C6.31641 8.42969 6.48307 8.40104 6.61328 8.34375C6.74609 8.28646 6.84375 8.20703 6.90625 8.10547C6.97135 8.00391 7.00391 7.88932 7.00391 7.76172Z" fill="#F4F7FF"/>
</svg>
