<svg width="30" height="30" viewBox="0 0 30 30" fill="none" xmlns="http://www.w3.org/2000/svg">
<g clip-path="url(#clip0_7749_140701)">
<path d="M28.9581 10.4165H6.79142C6.23901 10.4165 5.77876 10.8015 5.65801 11.3172L2.15684 26.4891C2.13701 26.5731 2.12476 26.66 2.12476 26.7498C2.12476 27.3938 2.64742 27.9165 3.29142 27.9165H8.91067C14.001 27.9165 8.91067 27.9165 14.001 27.9165C19.8388 27.9165 14.001 27.9165 19.8388 27.9165H25.4581C26.0105 27.9165 26.4708 27.5315 26.5915 27.0158L30.0927 11.8439C30.1125 11.7599 30.1248 11.673 30.1248 11.5832C30.1248 10.9392 29.6021 10.4165 28.9581 10.4165Z" fill="#0A77DB"/>
<g clip-path="url(#clip1_7749_140701)">
<path fill-rule="evenodd" clip-rule="evenodd" d="M23.0004 19.5C23.0004 21.0913 22.3682 22.6174 21.243 23.7426C20.1178 24.8679 18.5917 25.5 17.0004 25.5C15.4091 25.5 13.8829 24.8679 12.7577 23.7426C11.6325 22.6174 11.0004 21.0913 11.0004 19.5C11.0004 17.9087 11.6325 16.3826 12.7577 15.2574C13.8829 14.1321 15.4091 13.5 17.0004 13.5C18.5917 13.5 20.1178 14.1321 21.243 15.2574C22.3682 16.3826 23.0004 17.9087 23.0004 19.5V19.5ZM17.0004 16.125C17.0004 16.0255 16.9609 15.9302 16.8905 15.8598C16.8202 15.7895 16.7248 15.75 16.6254 15.75C16.5259 15.75 16.4305 15.7895 16.3602 15.8598C16.2899 15.9302 16.2504 16.0255 16.2504 16.125V20.25C16.2504 20.3161 16.2679 20.381 16.3011 20.4382C16.3343 20.4953 16.382 20.5427 16.4394 20.5755L19.0644 22.0755C19.1505 22.1221 19.2514 22.1331 19.3456 22.1062C19.4398 22.0793 19.5197 22.0167 19.5683 21.9316C19.6168 21.8466 19.6302 21.746 19.6056 21.6512C19.5809 21.5564 19.5202 21.4751 19.4364 21.4245L17.0004 20.0325V16.125Z" fill="white" fill-opacity="0.9"/>
</g>
<path d="M6.79144 8.66667H27.7914V2.83333C27.7914 1.54475 26.7467 0.5 25.4581 0.5H18.6454C17.8077 0.5 17.0348 0.949167 16.6189 1.676L14.9581 4.58333H2.12478C0.836193 4.58333 -0.208557 5.62808 -0.208557 6.91667V24.4913C-0.208557 24.7719 0.0195263 25 0.300693 25C0.537526 25 0.74286 24.8384 0.796526 24.6068C1.68378 20.7492 3.97044 10.8746 3.97803 10.8477C4.31636 9.55858 5.45853 8.66667 6.79144 8.66667V8.66667Z" fill="#0A77DB" fill-opacity="0.5"/>
</g>
<defs>
<clipPath id="clip0_7749_140701">
<rect width="30" height="30" fill="white" transform="translate(-0.000244141)"/>
</clipPath>
<clipPath id="clip1_7749_140701">
<rect width="12" height="12" fill="white" transform="translate(11.0004 13.5)"/>
</clipPath>
</defs>
</svg>
