<svg width="30" height="30" viewBox="0 0 30 30" fill="none" xmlns="http://www.w3.org/2000/svg">
<path d="M6.42851 19.2853H2.14284C0.959381 19.2853 0 20.2447 0 21.4281V27.8566C0 29.0401 0.959381 29.9995 2.14284 29.9995H6.42851C7.61197 29.9995 8.57135 29.0401 8.57135 27.8566V21.4281C8.57135 20.2447 7.61197 19.2853 6.42851 19.2853Z" fill="#0A77DB"/>
<path d="M17.1428 10.7145H12.8571C11.6737 10.7145 10.7143 11.6739 10.7143 12.8573V27.8572C10.7143 29.0406 11.6737 30 12.8571 30H17.1428C18.3263 30 19.2856 29.0406 19.2856 27.8572V12.8573C19.2856 11.6739 18.3263 10.7145 17.1428 10.7145Z" fill="#0A77DB" fill-opacity="0.5"/>
<path d="M27.8569 0H23.5712C22.3877 0 21.4284 0.959381 21.4284 2.14284V27.8569C21.4284 29.0403 22.3877 29.9997 23.5712 29.9997H27.8569C29.0403 29.9997 29.9997 29.0403 29.9997 27.8569V2.14284C29.9997 0.959381 29.0403 0 27.8569 0Z" fill="#0A77DB"/>
</svg>
