<svg width="30" height="30" viewBox="0 0 30 30" fill="none" xmlns="http://www.w3.org/2000/svg">
<path d="M12.8565 2.14286H22.4994V0H6.42795V6.42857H12.8565V2.14286Z" fill="#0A77DB" fill-opacity="0.5"/>
<path d="M13.9279 3.21533V6.56288C15.776 7.03548 17.1422 8.71176 17.1422 10.707C17.1422 10.7098 17.1422 10.7125 17.1422 10.7153V25.7153H23.5708L29.9994 19.3008V3.21533H13.9279ZM23.5708 23.5725V19.2868H27.8565L23.5708 23.5725Z" fill="#0A77DB"/>
<path d="M12.3212 7.5H-0.000274658V30H16.0712V17.1429C14.8877 17.1429 13.9283 16.1834 13.9283 15C13.9283 13.8166 14.8877 12.8571 16.0712 12.8571V11.2493C16.0708 9.17863 14.392 7.5 12.3212 7.5ZM2.14258 28.9286H1.07115V27.8571H2.14258V28.9286ZM4.28544 28.9286H3.21401V27.8571H4.28544V28.9286ZM6.4283 28.9286H5.35687V27.8571H6.4283V28.9286ZM8.57115 28.9286H7.49973V27.8571H8.57115V28.9286ZM10.714 28.9286H9.64258V27.8571H10.714V28.9286ZM12.8569 28.9286H11.7854V27.8571H12.8569V28.9286ZM14.9997 27.8571V28.9286H13.9283V27.8571H14.9997Z" fill="#0A77DB"/>
</svg>
