<svg width="30" height="30" viewBox="0 0 30 30" fill="none" xmlns="http://www.w3.org/2000/svg">
<g clip-path="url(#clip0_7748_140355)">
<path d="M28.9581 10.4165H6.79139C6.23898 10.4165 5.77873 10.8015 5.65798 11.3172L2.15681 26.4891C2.13698 26.5731 2.12473 26.66 2.12473 26.7498C2.12473 27.3938 2.64739 27.9165 3.29139 27.9165H8.91064C14.0009 27.9165 8.91064 27.9165 14.0009 27.9165C19.8388 27.9165 14.0009 27.9165 19.8388 27.9165H25.4581C26.0105 27.9165 26.4707 27.5315 26.5915 27.0158L30.0926 11.8439C30.1125 11.7599 30.1247 11.673 30.1247 11.5832C30.1247 10.9392 29.6021 10.4165 28.9581 10.4165Z" fill="#0A77DB"/>
<path d="M6.79141 8.66667H27.7914V2.83333C27.7914 1.54475 26.7467 0.5 25.4581 0.5H18.6453C17.8077 0.5 17.0347 0.949167 16.6188 1.676L14.9581 4.58333H2.12475C0.836162 4.58333 -0.208588 5.62808 -0.208588 6.91667V24.4913C-0.208588 24.7719 0.0194958 25 0.300662 25C0.537496 25 0.742829 24.8384 0.796496 24.6068C1.68375 20.7492 3.97041 10.8746 3.978 10.8477C4.31633 9.55858 5.4585 8.66667 6.79141 8.66667V8.66667Z" fill="#0A77DB" fill-opacity="0.5"/>
<path d="M14.7668 16.02L8.40276 19.958C8.27937 20.0385 8.17801 20.1485 8.10785 20.2781C8.03769 20.4077 8.00095 20.5527 8.00095 20.7C8.00095 20.8473 8.03769 20.9923 8.10785 21.1219C8.17801 21.2515 8.27937 21.3615 8.40276 21.442L14.7668 25.382C15.3068 25.714 15.9988 25.31 15.9988 24.638V23.1C17.7128 23.1 22.8568 23.1 23.9988 13.5C21.1408 18.9 15.9988 18.3 15.9988 18.3V16.762C15.9988 16.09 15.3068 15.686 14.7668 16.02Z" fill="white" fill-opacity="0.9"/>
</g>
<defs>
<clipPath id="clip0_7748_140355">
<rect width="30" height="30" fill="white" transform="translate(-0.000274658)"/>
</clipPath>
</defs>
</svg>
