<svg width="30" height="31" viewBox="0 0 30 31" fill="none" xmlns="http://www.w3.org/2000/svg">
<g clip-path="url(#clip0_12474_27340)">
<path opacity="0.6" d="M10.8978 0.699707H19.101C19.4244 0.699707 19.6869 0.979082 19.6869 1.32471V3.82471C19.6869 4.17033 19.4244 4.44971 19.101 4.44971H10.8978C10.5744 4.44971 10.3119 4.17033 10.3119 3.82471V1.32471C10.3119 0.979082 10.5744 0.699707 10.8978 0.699707Z" fill="#0A77DB"/>
<path d="M26.0262 3.51221H20.803C20.803 4.47704 20.0218 5.26221 19.0619 5.26221H10.9369C9.97698 5.26221 9.19582 4.47704 9.19582 3.51221H3.9726C3.33189 3.51221 2.81189 4.03487 2.81189 4.67887V28.5955C2.81189 29.2395 3.33189 29.7622 3.9726 29.7622H26.0262C26.6669 29.7622 27.1869 29.2395 27.1869 28.5955V4.67887C27.1869 4.03487 26.6669 3.51221 26.0262 3.51221ZM24.2851 26.8455H5.71368V7.01221H24.2851V26.8455Z" fill="#0A77DB"/>
<path d="M8.90564 12.8872C10.2001 12.8872 11.2494 11.8379 11.2494 10.5435C11.2494 9.24904 10.2001 8.19971 8.90564 8.19971C7.61122 8.19971 6.56189 9.24904 6.56189 10.5435C6.56189 11.8379 7.61122 12.8872 8.90564 12.8872Z" fill="#0A77DB"/>
<path d="M8.90564 25.0747C10.2001 25.0747 11.2494 24.0254 11.2494 22.731C11.2494 21.4365 10.2001 20.3872 8.90564 20.3872C7.61122 20.3872 6.56189 21.4365 6.56189 22.731C6.56189 24.0254 7.61122 25.0747 8.90564 25.0747Z" fill="#0A77DB"/>
<path d="M8.90564 18.5122C10.2001 18.5122 11.2494 17.6727 11.2494 16.6372C11.2494 15.6017 10.2001 14.7622 8.90564 14.7622C7.61122 14.7622 6.56189 15.6017 6.56189 16.6372C6.56189 17.6727 7.61122 18.5122 8.90564 18.5122Z" fill="#0A77DB"/>
<path opacity="0.6" d="M21.5258 9.13721C22.0632 9.13721 22.4994 9.76721 22.4994 10.5435C22.4994 11.3197 22.0632 11.9497 21.5258 11.9497H15.0354C14.4974 11.9497 14.0619 11.3197 14.0619 10.5435C14.0619 9.76721 14.4974 9.13721 15.0354 9.13721H21.5258Z" fill="#0A77DB"/>
<path opacity="0.6" d="M21.5258 15.6997C22.0632 15.6997 22.4994 16.1197 22.4994 16.6372C22.4994 17.1547 22.0632 17.5747 21.5258 17.5747H15.0354C14.4974 17.5747 14.0619 17.1547 14.0619 16.6372C14.0619 16.1197 14.4974 15.6997 15.0354 15.6997H21.5258Z" fill="#0A77DB"/>
<path opacity="0.6" d="M21.5258 21.3247C22.0632 21.3247 22.4994 21.9547 22.4994 22.731C22.4994 23.5072 22.0632 24.1372 21.5258 24.1372H15.0354C14.4974 24.1372 14.0619 23.5072 14.0619 22.731C14.0619 21.9547 14.4974 21.3247 15.0354 21.3247H21.5258Z" fill="#0A77DB"/>
</g>
<defs>
<clipPath id="clip0_12474_27340">
<rect width="30" height="30" fill="white" transform="translate(-0.0012207 0.230957)"/>
</clipPath>
</defs>
</svg>
