<svg width="30" height="31" viewBox="0 0 30 31" fill="none" xmlns="http://www.w3.org/2000/svg">
<g clip-path="url(#clip0_12474_27378)">
<path d="M10.4994 14.727C13.8137 14.727 16.4997 12.0409 16.4997 8.72662C16.4997 5.41705 13.8137 2.73096 10.4994 2.73096C7.18514 2.73096 4.49904 5.41705 4.49904 8.73131C4.49904 12.0409 7.18514 14.727 10.4994 14.727ZM16.4904 19.9398V16.513C15.9185 16.3443 15.3231 16.2224 14.6996 16.2224H13.9168C12.8761 16.7005 11.7182 16.9724 10.4994 16.9724C9.28057 16.9724 8.12738 16.7005 7.08201 16.2224H6.29915C2.82082 16.2271 -0.0012207 19.0491 -0.0012207 22.5274V24.4775C-0.0012207 25.7198 1.00665 26.7277 2.24891 26.7277H18.7499C19.4765 26.7277 20.114 26.3761 20.5265 25.8417L17.8076 23.1228C16.9591 22.2743 16.4904 21.1445 16.4904 19.9398Z" fill="#0A77DB"/>
<path opacity="0.6" d="M29.3854 20.3359L25.1523 16.1076C24.5898 15.545 23.8257 15.231 23.0288 15.231H19.3114C18.4816 15.231 17.8113 15.9013 17.8113 16.731V20.4438C17.8113 21.2407 18.1254 22.0001 18.6879 22.5626L22.921 26.791C23.5069 27.377 24.4585 27.377 25.0445 26.791L29.3807 22.4548C29.9714 21.8688 29.9714 20.9219 29.3854 20.3359ZM20.8161 19.3515C20.1927 19.3515 19.6911 18.8499 19.6911 18.2264C19.6911 17.603 20.1927 17.1014 20.8161 17.1014C21.4396 17.1014 21.9412 17.603 21.9412 18.2264C21.9412 18.8452 21.4396 19.3515 20.8161 19.3515Z" fill="#0A77DB"/>
</g>
<defs>
<clipPath id="clip0_12474_27378">
<rect width="30" height="30" fill="white" transform="translate(-0.0012207 0.230957)"/>
</clipPath>
</defs>
</svg>
