<svg width="32" height="32" viewBox="0 0 32 32" fill="none" xmlns="http://www.w3.org/2000/svg">
<path d="M30 24C30 27.3137 27.3137 30 24 30C20.6863 30 18 27.3137 18 24C18 23.751 18.0438 23.514 18.0734 23.2731L12.1559 20.3144C11.075 21.3563 9.61875 22 8 22C4.68625 22 2 19.3137 2 16C2 12.6862 4.68625 10 8 10C9.61625 10 11.0769 10.6462 12.1562 11.6856L18.0737 8.72688C18.0437 8.4875 18 8.19375 18 8C18 4.68625 20.6863 2 24 2C27.3137 2 30 4.68625 30 8C30 11.3138 27.3137 14 24 14C22.3838 14 20.9231 13.3538 19.8438 12.3144L13.9263 15.2731C13.9563 15.5125 14 15.75 14 16C14 16.25 13.9563 16.4875 13.925 16.725L19.8425 19.6838C20.925 18.6437 22.3813 18 24 18C27.3125 18 30 20.6313 30 24Z" fill="white"/>
</svg>
