<svg width="32" height="32" viewBox="0 0 32 32" fill="none" xmlns="http://www.w3.org/2000/svg">
<path opacity="0.6" d="M27.7333 13.3331C28.9114 13.3331 29.8666 12.3779 29.8666 11.1998C29.8666 10.1363 29.0864 9.26167 28.0682 9.10007C28.1941 8.7566 28.2666 8.387 28.2666 7.9998C28.2666 6.23287 26.8336 4.7998 25.0666 4.7998C23.6448 4.7998 22.4416 5.72727 22.0245 7.00994C21.8016 6.96087 21.5706 6.93314 21.3333 6.93314C19.5664 6.93314 18.1333 8.3662 18.1333 10.1331C18.1333 11.9001 19.5664 13.3331 21.3333 13.3331H27.7333Z" fill="white"/>
<path d="M28.2666 15.4668H15.9999C15.1167 15.4668 14.3999 16.1831 14.3999 17.0668V27.7335C14.3999 28.6172 15.1167 29.3335 15.9999 29.3335H28.2666C29.1498 29.3335 29.8666 28.6172 29.8666 27.7335V17.0668C29.8666 16.1831 29.1498 15.4668 28.2666 15.4668ZM27.7332 27.2001H16.5332V23.4668H27.7332V27.2001ZM27.7332 21.3335H16.5332V17.6001H27.7332V21.3335Z" fill="white"/>
<path d="M15.4671 2.6665C15.3557 2.6665 15.2421 2.6841 15.129 2.72197L2.86339 5.74437C2.42766 5.8889 2.13379 6.2969 2.13379 6.7561V26.6665C2.13379 27.2553 2.61166 27.7332 3.20046 27.7332H12.8005V17.0665C12.8005 15.2996 14.233 13.8665 16.0005 13.8665H16.5338V3.73317C16.5338 3.1241 16.0346 2.66597 15.4671 2.6665ZM8.53379 23.9998H5.33379C4.74499 23.9998 4.26712 23.522 4.26712 22.9332C4.26712 22.3444 4.74499 21.8665 5.33379 21.8665H8.53379C9.12259 21.8665 9.60046 22.3444 9.60046 22.9332C9.60046 23.522 9.12259 23.9998 8.53379 23.9998ZM8.53379 19.7332H5.33379C4.74499 19.7332 4.26712 19.2553 4.26712 18.6665C4.26712 18.0777 4.74499 17.5998 5.33379 17.5998H8.53379C9.12259 17.5998 9.60046 18.0777 9.60046 18.6665C9.60046 19.2553 9.12259 19.7332 8.53379 19.7332ZM8.53379 15.4665H5.33379C4.74499 15.4665 4.26712 14.9886 4.26712 14.3998C4.26712 13.811 4.74499 13.3332 5.33379 13.3332H8.53379C9.12259 13.3332 9.60046 13.811 9.60046 14.3998C9.60046 14.9886 9.12259 15.4665 8.53379 15.4665ZM8.53379 11.1998H5.33379C4.74499 11.1998 4.26712 10.722 4.26712 10.1332C4.26712 9.54437 4.74499 9.0665 5.33379 9.0665H8.53379C9.12259 9.0665 9.60046 9.54437 9.60046 10.1332C9.60046 10.722 9.12259 11.1998 8.53379 11.1998ZM13.3338 11.1998H12.2671C11.6783 11.1998 11.2005 10.722 11.2005 10.1332C11.2005 9.54437 11.6783 9.0665 12.2671 9.0665H13.3338C13.9226 9.0665 14.4005 9.54437 14.4005 10.1332C14.4005 10.722 13.9226 11.1998 13.3338 11.1998Z" fill="white"/>
</svg>
