<svg width="32" height="32" viewBox="0 0 32 32" fill="none" xmlns="http://www.w3.org/2000/svg">
<path d="M11.2007 15.4623C14.7359 15.4623 17.601 12.5971 17.601 9.06188C17.601 5.53167 14.7359 2.6665 11.2007 2.6665C7.66545 2.6665 4.80028 5.53167 4.80028 9.06688C4.80028 12.5971 7.66545 15.4623 11.2007 15.4623ZM17.591 21.0226V17.3674C16.981 17.1874 16.346 17.0573 15.6809 17.0573H14.8459C13.7358 17.5674 12.5007 17.8574 11.2007 17.8574C9.90058 17.8574 8.67051 17.5674 7.55544 17.0573H6.72039C3.01018 17.0623 0 20.0725 0 23.7827V25.8629C0 27.1879 1.07506 28.263 2.40014 28.263H20.0012C20.7762 28.263 21.4563 27.888 21.8963 27.3179L18.9961 24.4178C18.0911 23.5127 17.591 22.3077 17.591 21.0226Z" fill="white"/>
<path opacity="0.6" d="M31.3457 21.4453L26.8305 16.9351C26.2304 16.335 25.4154 16 24.5653 16H20.6001C19.715 16 19 16.715 19 17.6001V21.5603C19 22.4104 19.335 23.2204 19.9351 23.8205L24.4503 28.3307C25.0754 28.9558 26.0904 28.9558 26.7155 28.3307L31.3407 23.7055C31.9708 23.0804 31.9708 22.0704 31.3457 21.4453ZM22.2052 20.3953C21.5401 20.3953 21.0051 19.8602 21.0051 19.1952C21.0051 18.5301 21.5401 17.9951 22.2052 17.9951C22.8702 17.9951 23.4053 18.5301 23.4053 19.1952C23.4053 19.8552 22.8702 20.3953 22.2052 20.3953Z" fill="white"/>
</svg>
