<svg width="32" height="32" viewBox="0 0 32 32" fill="none" xmlns="http://www.w3.org/2000/svg">
<g clip-path="url(#clip0_1960_26417)">
<path opacity="0.6" d="M31.83 10.6468L30.44 9.24182C30.21 9.00682 29.835 9.00682 29.6 9.23682L24.36 14.4368L22.085 12.1468C21.855 11.9118 21.48 11.9118 21.245 12.1418L19.84 13.5368C19.605 13.7668 19.605 14.1418 19.835 14.3768L23.92 18.4918C24.15 18.7268 24.525 18.7268 24.76 18.4968L31.825 11.4868C32.055 11.2518 32.06 10.8768 31.83 10.6468Z" fill="white"/>
<path d="M17.5998 9.0665C17.5998 12.6015 14.7348 15.4665 11.1998 15.4665C7.6648 15.4665 4.7998 12.6015 4.7998 9.0665C4.7998 5.5315 7.6648 2.6665 11.1998 2.6665C14.7348 2.6665 17.5998 5.5315 17.5998 9.0665Z" fill="white"/>
<path d="M14.845 17.0669H15.68C19.39 17.0669 22.4 20.0769 22.4 23.7869V25.8669C22.4 27.1919 21.325 28.2669 20 28.2669H2.4C1.075 28.2669 0 27.1919 0 25.8669V23.7869C0 20.0769 3.01 17.0669 6.72 17.0669H7.555C8.67 17.5769 9.89999 17.8669 11.2 17.8669C12.5 17.8669 13.735 17.5769 14.845 17.0669Z" fill="white"/>
</g>
<defs>
<clipPath id="clip0_1960_26417">
<rect width="32" height="32" fill="white"/>
</clipPath>
</defs>
</svg>
