<svg width="32" height="33" viewBox="0 0 32 33" fill="none" xmlns="http://www.w3.org/2000/svg">
<g clip-path="url(#clip0_1967_29735)">
<path d="M5.1834 8.67756C4.93887 8.88717 4.93887 9.22597 5.1834 9.43557C5.42794 9.64517 5.82321 9.64517 6.06775 9.43557L11.8166 4.50798C12.0611 4.29838 12.0611 3.95958 11.8166 3.74998C11.5721 3.54037 11.1768 3.54037 10.9323 3.74998L5.1834 8.67756Z" fill="white"/>
<path opacity="0.35" d="M32 29.0443C32 32.5999 28.4444 32.5999 28.4444 32.5999H3.55556C3.55556 32.5999 0 32.5999 0 29.0443V13.0443C0 13.0443 0 9.48877 3.55556 9.48877H28.4444C32 9.48877 32 13.0443 32 13.0443V29.0443Z" fill="white"/>
<path d="M13.832 3.3208C13.4845 3.66836 12.9227 3.66836 12.5751 3.3208L11.9467 2.69236C11.5991 2.3448 11.5991 1.78303 11.9467 1.43547C12.2943 1.08792 12.856 1.08792 13.2036 1.43547L13.832 2.06392C14.1787 2.41058 14.1787 2.97325 13.832 3.3208Z" fill="white"/>
<path opacity="0.6" d="M24.4446 21.9335C27.1446 21.9335 29.3334 19.7447 29.3334 17.0447C29.3334 14.3446 27.1446 12.1558 24.4446 12.1558C21.7445 12.1558 19.5557 14.3446 19.5557 17.0447C19.5557 19.7447 21.7445 21.9335 24.4446 21.9335Z" fill="white"/>
<path opacity="0.6" d="M24.4446 29.9336C26.1628 29.9336 27.5557 28.5408 27.5557 26.8225C27.5557 25.1043 26.1628 23.7114 24.4446 23.7114C22.7264 23.7114 21.3335 25.1043 21.3335 26.8225C21.3335 28.5408 22.7264 29.9336 24.4446 29.9336Z" fill="white"/>
<path d="M24.4446 20.1558C26.1628 20.1558 27.5557 18.7629 27.5557 17.0447C27.5557 15.3265 26.1628 13.9336 24.4446 13.9336C22.7264 13.9336 21.3335 15.3265 21.3335 17.0447C21.3335 18.7629 22.7264 20.1558 24.4446 20.1558Z" fill="white"/>
<path d="M24.4447 28.1554C25.181 28.1554 25.778 27.5585 25.778 26.8221C25.778 26.0857 25.181 25.4888 24.4447 25.4888C23.7083 25.4888 23.1113 26.0857 23.1113 26.8221C23.1113 27.5585 23.7083 28.1554 24.4447 28.1554Z" fill="white"/>
<path d="M9.33333 24.5998C10.0697 24.5998 10.6667 24.0028 10.6667 23.2664C10.6667 22.5301 10.0697 21.9331 9.33333 21.9331C8.59695 21.9331 8 22.5301 8 23.2664C8 24.0028 8.59695 24.5998 9.33333 24.5998Z" fill="white"/>
<path d="M4.889 24.5998C5.62538 24.5998 6.22233 24.0028 6.22233 23.2664C6.22233 22.5301 5.62538 21.9331 4.889 21.9331C4.15262 21.9331 3.55566 22.5301 3.55566 23.2664C3.55566 24.0028 4.15262 24.5998 4.889 24.5998Z" fill="white"/>
<path d="M9.33333 20.1554C10.0697 20.1554 10.6667 19.5585 10.6667 18.8221C10.6667 18.0857 10.0697 17.4888 9.33333 17.4888C8.59695 17.4888 8 18.0857 8 18.8221C8 19.5585 8.59695 20.1554 9.33333 20.1554Z" fill="white"/>
<path d="M13.7777 20.1554C14.514 20.1554 15.111 19.5585 15.111 18.8221C15.111 18.0857 14.514 17.4888 13.7777 17.4888C13.0413 17.4888 12.4443 18.0857 12.4443 18.8221C12.4443 19.5585 13.0413 20.1554 13.7777 20.1554Z" fill="white"/>
<path d="M13.7777 24.5998C14.514 24.5998 15.111 24.0028 15.111 23.2664C15.111 22.5301 14.514 21.9331 13.7777 21.9331C13.0413 21.9331 12.4443 22.5301 12.4443 23.2664C12.4443 24.0028 13.0413 24.5998 13.7777 24.5998Z" fill="white"/>
<path d="M13.7777 29.0446C14.514 29.0446 15.111 28.4476 15.111 27.7113C15.111 26.9749 14.514 26.3779 13.7777 26.3779C13.0413 26.3779 12.4443 26.9749 12.4443 27.7113C12.4443 28.4476 13.0413 29.0446 13.7777 29.0446Z" fill="white"/>
<path d="M4.889 29.0446C5.62538 29.0446 6.22233 28.4476 6.22233 27.7113C6.22233 26.9749 5.62538 26.3779 4.889 26.3779C4.15262 26.3779 3.55566 26.9749 3.55566 27.7113C3.55566 28.4476 4.15262 29.0446 4.889 29.0446Z" fill="white"/>
<path d="M4.889 20.1554C5.62538 20.1554 6.22233 19.5585 6.22233 18.8221C6.22233 18.0857 5.62538 17.4888 4.889 17.4888C4.15262 17.4888 3.55566 18.0857 3.55566 18.8221C3.55566 19.5585 4.15262 20.1554 4.889 20.1554Z" fill="white"/>
<path d="M9.33333 15.7111C10.0697 15.7111 10.6667 15.1141 10.6667 14.3778C10.6667 13.6414 10.0697 13.0444 9.33333 13.0444C8.59695 13.0444 8 13.6414 8 14.3778C8 15.1141 8.59695 15.7111 9.33333 15.7111Z" fill="white"/>
<path d="M13.7777 15.7111C14.514 15.7111 15.111 15.1141 15.111 14.3778C15.111 13.6414 14.514 13.0444 13.7777 13.0444C13.0413 13.0444 12.4443 13.6414 12.4443 14.3778C12.4443 15.1141 13.0413 15.7111 13.7777 15.7111Z" fill="white"/>
<path d="M4.889 15.7111C5.62538 15.7111 6.22233 15.1141 6.22233 14.3778C6.22233 13.6414 5.62538 13.0444 4.889 13.0444C4.15262 13.0444 3.55566 13.6414 3.55566 14.3778C3.55566 15.1141 4.15262 15.7111 4.889 15.7111Z" fill="white"/>
<path d="M9.33333 29.0446C10.0697 29.0446 10.6667 28.4476 10.6667 27.7113C10.6667 26.9749 10.0697 26.3779 9.33333 26.3779C8.59695 26.3779 8 26.9749 8 27.7113C8 28.4476 8.59695 29.0446 9.33333 29.0446Z" fill="white"/>
</g>
<defs>
<clipPath id="clip0_1967_29735">
<rect width="32" height="32" fill="white" transform="translate(0 0.600098)"/>
</clipPath>
</defs>
</svg>
