<svg width="40" height="40" viewBox="0 0 40 40" fill="none" xmlns="http://www.w3.org/2000/svg">
<rect width="40" height="40" rx="20" fill="#F1F1FA"/>
<path d="M17.2222 13.125C17.2222 12.0895 17.9688 11.25 18.8889 11.25H21.1111C22.0313 11.25 22.7778 12.0895 22.7778 13.125V15.625C22.7778 16.6602 22.0313 17.5 21.1111 17.5H20.8333V19.0625H26.1111C27.184 19.0625 28.0556 20.043 28.0556 21.25V22.5H28.3333C29.2535 22.5 30 23.3398 30 24.375V26.875C30 27.9102 29.2535 28.75 28.3333 28.75H26.1111C25.191 28.75 24.4444 27.9102 24.4444 26.875V24.375C24.4444 23.3398 25.191 22.5 26.1111 22.5H26.3889V21.25C26.3889 21.0781 26.2639 20.9375 26.1111 20.9375H20.8333V22.5H21.1111C22.0313 22.5 22.7778 23.3398 22.7778 24.375V26.875C22.7778 27.9102 22.0313 28.75 21.1111 28.75H18.8889C17.9688 28.75 17.2222 27.9102 17.2222 26.875V24.375C17.2222 23.3398 17.9688 22.5 18.8889 22.5H19.1667V20.9375H13.8889C13.7361 20.9375 13.6111 21.0781 13.6111 21.25V22.5H13.8889C14.809 22.5 15.5556 23.3398 15.5556 24.375V26.875C15.5556 27.9102 14.809 28.75 13.8889 28.75H11.6667C10.7462 28.75 10 27.9102 10 26.875V24.375C10 23.3398 10.7462 22.5 11.6667 22.5H11.9444V21.25C11.9444 20.043 12.8149 19.0625 13.8889 19.0625H19.1667V17.5H18.8889C17.9688 17.5 17.2222 16.6602 17.2222 15.625V13.125Z" fill="#3E4347"/>
</svg>
