<svg width="40" height="40" viewBox="0 0 40 40" fill="none" xmlns="http://www.w3.org/2000/svg">
<path fill-rule="evenodd" clip-rule="evenodd" d="M10 3.75H7.5C6.17392 3.75 4.90215 4.27678 3.96447 5.21447C3.02678 6.15215 2.5 7.42392 2.5 8.75V35C2.5 36.3261 3.02678 37.5979 3.96447 38.5355C4.90215 39.4732 6.17392 40 7.5 40H32.5C33.8261 40 35.0979 39.4732 36.0355 38.5355C36.9732 37.5979 37.5 36.3261 37.5 35V8.75C37.5 7.42392 36.9732 6.15215 36.0355 5.21447C35.0979 4.27678 33.8261 3.75 32.5 3.75H30V6.25H32.5C33.163 6.25 33.7989 6.51339 34.2678 6.98223C34.7366 7.45107 35 8.08696 35 8.75V35C35 35.663 34.7366 36.2989 34.2678 36.7678C33.7989 37.2366 33.163 37.5 32.5 37.5H7.5C6.83696 37.5 6.20107 37.2366 5.73223 36.7678C5.26339 36.2989 5 35.663 5 35V8.75C5 8.08696 5.26339 7.45107 5.73223 6.98223C6.20107 6.51339 6.83696 6.25 7.5 6.25H10V3.75Z" fill="#3E4347"/>
<path fill-rule="evenodd" clip-rule="evenodd" d="M23.75 2.5H16.25C15.9185 2.5 15.6005 2.6317 15.3661 2.86612C15.1317 3.10054 15 3.41848 15 3.75V6.25C15 6.58152 15.1317 6.89946 15.3661 7.13388C15.6005 7.3683 15.9185 7.5 16.25 7.5H23.75C24.0815 7.5 24.3995 7.3683 24.6339 7.13388C24.8683 6.89946 25 6.58152 25 6.25V3.75C25 3.41848 24.8683 3.10054 24.6339 2.86612C24.3995 2.6317 24.0815 2.5 23.75 2.5V2.5ZM16.25 0C15.2554 0 14.3016 0.395088 13.5983 1.09835C12.8951 1.80161 12.5 2.75544 12.5 3.75V6.25C12.5 7.24456 12.8951 8.19839 13.5983 8.90165C14.3016 9.60491 15.2554 10 16.25 10H23.75C24.7446 10 25.6984 9.60491 26.4017 8.90165C27.1049 8.19839 27.5 7.24456 27.5 6.25V3.75C27.5 2.75544 27.1049 1.80161 26.4017 1.09835C25.6984 0.395088 24.7446 0 23.75 0L16.25 0ZM20 17.5C20.3315 17.5 20.6495 17.6317 20.8839 17.8661C21.1183 18.1005 21.25 18.4185 21.25 18.75V22.5H25C25.3315 22.5 25.6495 22.6317 25.8839 22.8661C26.1183 23.1005 26.25 23.4185 26.25 23.75C26.25 24.0815 26.1183 24.3995 25.8839 24.6339C25.6495 24.8683 25.3315 25 25 25H21.25V28.75C21.25 29.0815 21.1183 29.3995 20.8839 29.6339C20.6495 29.8683 20.3315 30 20 30C19.6685 30 19.3505 29.8683 19.1161 29.6339C18.8817 29.3995 18.75 29.0815 18.75 28.75V25H15C14.6685 25 14.3505 24.8683 14.1161 24.6339C13.8817 24.3995 13.75 24.0815 13.75 23.75C13.75 23.4185 13.8817 23.1005 14.1161 22.8661C14.3505 22.6317 14.6685 22.5 15 22.5H18.75V18.75C18.75 18.4185 18.8817 18.1005 19.1161 17.8661C19.3505 17.6317 19.6685 17.5 20 17.5V17.5Z" fill="#3E4347"/>
</svg>
