<svg width="46" height="46" viewBox="0 0 46 46" fill="none" xmlns="http://www.w3.org/2000/svg">
<circle cx="23" cy="23" r="23" fill="#1DB054"/>
<path opacity="0.6" d="M8.58668 12.0644C8.50457 12.0996 8.37554 12.1817 8.30516 12.2521C7.98257 12.5512 8.00017 11.8298 8.00017 23.5131V34.3284L8.13507 34.522C8.20545 34.6276 8.34035 34.7742 8.42833 34.8387C8.59255 34.9619 8.65707 34.9619 11.3785 34.9795L14.1586 34.9971V23.4955V11.9999L11.4489 12.0057C9.78904 12.0057 8.67466 12.0292 8.58668 12.0644Z" fill="white"/>
<path d="M15.9766 23.4955V34.9912L26.7039 34.9795L37.4371 34.9619L37.5955 34.8387C37.6834 34.7742 37.8125 34.6452 37.877 34.5572L38.0002 34.3988V23.4955V12.5923L37.877 12.4339C37.8125 12.3459 37.6834 12.2169 37.5955 12.1524L37.4371 12.0292L26.7039 12.0116L15.9766 11.9999V23.4955ZM24.3461 15.6714C24.915 16.0937 24.915 16.7624 24.3461 17.1847C24.1819 17.302 24.1056 17.3078 21.8358 17.3254C20.3696 17.3371 19.4135 17.3196 19.2728 17.2844C19.1496 17.2492 18.9619 17.1319 18.8563 17.0204C18.4047 16.5571 18.6452 15.7301 19.2728 15.5776C19.3783 15.5483 20.5279 15.5307 21.8241 15.5366C24.1115 15.5483 24.1819 15.5541 24.3461 15.6714ZM32.7391 19.214C33.3198 19.5718 33.2963 20.4046 32.6922 20.7213L32.44 20.8562H28.7684C25.2728 20.8562 25.0851 20.8504 24.8505 20.7389C24.2288 20.4574 24.1936 19.5776 24.786 19.214C24.9737 19.1026 25.091 19.0967 28.7626 19.0967C32.4341 19.0967 32.5514 19.1026 32.7391 19.214ZM29.1614 22.7272C29.4136 22.8562 29.6423 23.2199 29.6423 23.4955C29.6423 23.7712 29.4136 24.1348 29.1614 24.2639C28.9561 24.3694 28.786 24.3753 26.5514 24.3753C23.8828 24.3753 23.8886 24.3753 23.6188 23.9706C23.3373 23.5542 23.5015 22.9442 23.9531 22.7213C24.1408 22.6275 24.393 22.6158 26.5514 22.6158C28.786 22.6158 28.9561 22.6216 29.1614 22.7272ZM26.9209 26.2463C27.5485 26.5278 27.5837 27.4135 26.9913 27.7771C26.8036 27.8885 26.6863 27.8944 24.3285 27.8944H21.8593L21.6599 27.7595C21.0968 27.3841 21.1496 26.5513 21.7479 26.2522C21.9766 26.1407 22.0998 26.1349 24.3344 26.1349C26.4928 26.1349 26.698 26.1466 26.9209 26.2463ZM24.3461 29.8064C25.0323 30.3167 24.8622 31.2375 24.047 31.4135C23.8476 31.4604 23.003 31.4721 21.4781 31.4604C19.2845 31.4428 19.2083 31.4369 19.044 31.3196C18.6745 31.044 18.522 30.61 18.6687 30.2287C18.7449 30.0293 19.0147 29.7771 19.2258 29.7185C19.3256 29.6833 20.4751 29.6657 21.7948 29.6715C24.1115 29.6833 24.1819 29.6891 24.3461 29.8064Z" fill="white"/>
</svg>
