<svg width="30" height="30" viewBox="0 0 30 30" fill="none" xmlns="http://www.w3.org/2000/svg">
<g clip-path="url(#clip0_13708_9377)">
<path fill-rule="evenodd" clip-rule="evenodd" d="M-0.00146484 3.75C-0.00146484 3.00408 0.294851 2.28871 0.822297 1.76126C1.34974 1.23382 2.06511 0.9375 2.81104 0.9375H23.436C24.182 0.9375 24.8973 1.23382 25.4248 1.76126C25.9522 2.28871 26.2485 3.00408 26.2485 3.75V26.25C26.2485 26.9959 25.9522 27.7113 25.4248 28.2387C24.8973 28.7662 24.182 29.0625 23.436 29.0625H2.81104C2.06511 29.0625 1.34974 28.7662 0.822297 28.2387C0.294851 27.7113 -0.00146484 26.9959 -0.00146484 26.25L-0.00146484 3.75ZM2.81104 2.8125C2.56239 2.8125 2.32394 2.91127 2.14812 3.08709C1.97231 3.2629 1.87354 3.50136 1.87354 3.75V26.25C1.87354 26.4986 1.97231 26.7371 2.14812 26.9129C2.32394 27.0887 2.56239 27.1875 2.81104 27.1875H23.436C23.6847 27.1875 23.9231 27.0887 24.0989 26.9129C24.2748 26.7371 24.3735 26.4986 24.3735 26.25V3.75C24.3735 3.50136 24.2748 3.2629 24.0989 3.08709C23.9231 2.91127 23.6847 2.8125 23.436 2.8125H2.81104Z" fill="#0A77DB"/>
<path fill-rule="evenodd" clip-rule="evenodd" d="M29.061 5.625C29.3097 5.625 29.5481 5.72377 29.7239 5.89959C29.8998 6.0754 29.9985 6.31386 29.9985 6.5625V26.25C29.9985 26.9959 29.7022 27.7113 29.1748 28.2387C28.6473 28.7662 27.932 29.0625 27.186 29.0625H21.561V27.1875H27.186C27.4347 27.1875 27.6731 27.0887 27.8489 26.9129C28.0248 26.7371 28.1235 26.4986 28.1235 26.25V6.5625C28.1235 6.31386 28.2223 6.0754 28.3981 5.89959C28.5739 5.72377 28.8124 5.625 29.061 5.625V5.625Z" fill="#0A77DB"/>
<path d="M3.74854 5.625H22.4985V9.375H3.74854V5.625ZM13.1235 11.25H16.8735V13.125H13.1235V11.25ZM18.7485 11.25H22.4985V13.125H18.7485V11.25ZM13.1235 15H16.8735V16.875H13.1235V15ZM18.7485 15H22.4985V16.875H18.7485V15ZM13.1235 18.75H16.8735V20.625H13.1235V18.75ZM18.7485 18.75H22.4985V20.625H18.7485V18.75ZM13.1235 22.5H16.8735V24.375H13.1235V22.5ZM18.7485 22.5H22.4985V24.375H18.7485V22.5Z" fill="#0A77DB"/>
<path d="M11.2485 11.25H3.74854V16.875H11.2485V11.25Z" fill="#0A77DB" fill-opacity="0.6"/>
<path d="M11.2485 18.75H3.74854V20.625H11.2485V18.75Z" fill="#0A77DB" fill-opacity="0.6"/>
<path d="M11.2485 22.5H3.74854V24.375H11.2485V22.5Z" fill="#0A77DB" fill-opacity="0.6"/>
</g>
<defs>
<clipPath id="clip0_13708_9377">
<rect width="30" height="30" fill="white" transform="translate(-0.00146484)"/>
</clipPath>
</defs>
</svg>
