<svg width="30" height="30" viewBox="0 0 30 30" fill="none" xmlns="http://www.w3.org/2000/svg">
<g clip-path="url(#clip0_13708_9382)">
<path fill-rule="evenodd" clip-rule="evenodd" d="M17.6329 1.96875C16.8585 -0.65625 13.1385 -0.65625 12.3642 1.96875L12.1767 2.60625C12.061 2.99924 11.8588 3.36135 11.5849 3.66602C11.311 3.9707 10.9724 4.21021 10.594 4.36699C10.2155 4.52378 9.80671 4.59386 9.39762 4.57211C8.98853 4.55035 8.5895 4.4373 8.22978 4.24125L7.64854 3.9225C5.24291 2.61375 2.61229 5.24438 3.92291 7.64812L4.23979 8.23125C5.07604 9.76875 4.28291 11.6831 2.60479 12.1781L1.96729 12.3656C-0.657715 13.14 -0.657715 16.86 1.96729 17.6344L2.60479 17.8219C2.99778 17.9376 3.35988 18.1398 3.66456 18.4136C3.96923 18.6875 4.20874 19.0261 4.36553 19.4046C4.52232 19.7831 4.5924 20.1918 4.57064 20.6009C4.54888 21.01 4.43583 21.409 4.23979 21.7687L3.92104 22.35C2.61229 24.7556 5.24291 27.3862 7.64666 26.0756L8.22978 25.7587C8.5895 25.5627 8.98853 25.4497 9.39762 25.4279C9.80671 25.4061 10.2155 25.4762 10.594 25.633C10.9724 25.7898 11.311 26.0293 11.5849 26.334C11.8588 26.6387 12.061 27.0008 12.1767 27.3937L12.3642 28.0312C13.1385 30.6562 16.8585 30.6562 17.6329 28.0312L17.8204 27.3937C17.9361 27.0008 18.1383 26.6387 18.4122 26.334C18.686 26.0293 19.0246 25.7898 19.4031 25.633C19.7816 25.4762 20.1904 25.4061 20.5994 25.4279C21.0085 25.4497 21.4076 25.5627 21.7673 25.7587L22.3485 26.0775C24.7542 27.3863 27.3848 24.7556 26.0742 22.3519L25.7573 21.7687C25.5612 21.409 25.4482 21.01 25.4264 20.6009C25.4047 20.1918 25.4748 19.7831 25.6315 19.4046C25.7883 19.0261 26.0278 18.6875 26.3325 18.4136C26.6372 18.1398 26.9993 17.9376 27.3923 17.8219L28.0298 17.6344C30.6548 16.86 30.6548 13.14 28.0298 12.3656L27.3923 12.1781C26.9993 12.0624 26.6372 11.8602 26.3325 11.5864C26.0278 11.3125 25.7883 10.9739 25.6315 10.5954C25.4748 10.2169 25.4047 9.80818 25.4264 9.39909C25.4482 8.99 25.5612 8.59096 25.7573 8.23125L26.076 7.65C27.3848 5.24437 24.7542 2.61375 22.3504 3.92437L21.7673 4.24125C21.4076 4.4373 21.0085 4.55035 20.5994 4.57211C20.1904 4.59386 19.7816 4.52378 19.4031 4.36699C19.0246 4.21021 18.686 3.9707 18.4122 3.66602C18.1383 3.36135 17.9361 2.99924 17.8204 2.60625L17.6329 1.96875V1.96875ZM14.9985 20.4938C16.4556 20.4938 17.8529 19.9149 18.8832 18.8847C19.9135 17.8544 20.4923 16.457 20.4923 15C20.4923 13.543 19.9135 12.1456 18.8832 11.1153C17.8529 10.0851 16.4556 9.50625 14.9985 9.50625C13.542 9.50625 12.1451 10.0849 11.1152 11.1148C10.0853 12.1447 9.50666 13.5416 9.50666 14.9981C9.50666 16.4547 10.0853 17.8515 11.1152 18.8815C12.1451 19.9114 13.542 20.49 14.9985 20.49V20.4938Z" fill="#0A77DB"/>
</g>
<defs>
<clipPath id="clip0_13708_9382">
<rect width="30" height="30" fill="white" transform="translate(-0.00146484)"/>
</clipPath>
</defs>
</svg>
