<svg width="30" height="30" viewBox="0 0 30 30" fill="none" xmlns="http://www.w3.org/2000/svg">
<path fill-rule="evenodd" clip-rule="evenodd" d="M5.62354 26.25C5.62354 26.25 3.74854 26.25 3.74854 24.375C3.74854 22.5 5.62354 16.875 14.9985 16.875C24.3735 16.875 26.2485 22.5 26.2485 24.375C26.2485 26.25 24.3735 26.25 24.3735 26.25H5.62354ZM14.9985 15C16.4904 15 17.9211 14.4074 18.976 13.3525C20.0309 12.2976 20.6235 10.8668 20.6235 9.375C20.6235 7.88316 20.0309 6.45242 18.976 5.39752C17.9211 4.34263 16.4904 3.75 14.9985 3.75C13.5067 3.75 12.076 4.34263 11.0211 5.39752C9.96617 6.45242 9.37354 7.88316 9.37354 9.375C9.37354 10.8668 9.96617 12.2976 11.0211 13.3525C12.076 14.4074 13.5067 15 14.9985 15V15Z" fill="#0A77DB"/>
</svg>
