<svg width="32" height="32" viewBox="0 0 32 32" fill="none" xmlns="http://www.w3.org/2000/svg">
<path d="M3.01374 12C11.2592 12 19.5047 12 28 12C28 13.5917 28 15.1833 28 16.8232C27.6954 16.6502 27.3995 16.4622 27.1076 16.2688C27.1076 15.7383 27.1076 15.2077 27.1076 14.6611C25.3407 14.6611 23.5739 14.6611 21.7534 14.6611C21.7534 15.1916 21.7534 15.7222 21.7534 16.2688C21.5326 16.4152 21.3117 16.5616 21.0842 16.7124C20.0026 17.5108 19.275 18.6226 18.9648 19.9278C18.955 19.9675 18.9452 20.0073 18.9351 20.0482C18.8393 20.4938 18.843 20.9316 18.8499 21.3843C18.8531 21.6224 18.853 21.8605 18.8536 22.0986C18.8545 22.3998 18.8565 22.7008 18.8615 23.0019C18.8654 23.2471 18.8664 23.4921 18.8654 23.7373C18.8656 23.83 18.8668 23.9226 18.8693 24.0153C18.8893 24.8114 18.8893 24.8114 18.5838 25.1319C18.5043 25.2056 18.4206 25.2747 18.3369 25.3435C17.6974 25.8799 17.4566 26.8018 17.3445 27.5928C17.3296 27.6977 17.3296 27.6977 17.3144 27.8048C17.3069 27.8582 17.2994 27.9116 17.2916 27.9666C15.7198 27.973 14.148 27.9779 12.5762 27.9809C11.8464 27.9823 11.1165 27.9843 10.3867 27.9875C9.75032 27.9902 9.11397 27.992 8.47761 27.9926C8.14085 27.993 7.80412 27.9938 7.46737 27.9959C7.14994 27.9978 6.83254 27.9983 6.51511 27.9979C6.39905 27.998 6.283 27.9985 6.16695 27.9996C5.19392 28.0081 4.45336 27.8865 3.73051 27.185C3.20229 26.6316 2.99571 26.037 3.00032 25.287C3.00023 25.2302 3.00013 25.1734 3.00003 25.1149C2.99985 24.9244 3.00046 24.734 3.00107 24.5435C3.00111 24.4047 3.00109 24.2659 3.00103 24.1271C3.00101 23.7931 3.00149 23.4591 3.0022 23.1251C3.00301 22.7386 3.0031 22.3521 3.00318 21.9657C3.00377 20.9457 3.00533 19.9257 3.00676 18.9057C3.00907 16.6268 3.01137 14.3479 3.01374 12ZM7.47557 16.4352C7.47557 17.0206 7.47557 17.606 7.47557 18.2092C8.65349 18.2092 9.83142 18.2092 11.045 18.2092C11.045 17.6238 11.045 17.0383 11.045 16.4352C9.86711 16.4352 8.68919 16.4352 7.47557 16.4352ZM13.7221 16.4352C13.7221 17.0206 13.7221 17.606 13.7221 18.2092C14.9001 18.2092 16.078 18.2092 17.2916 18.2092C17.2916 17.6238 17.2916 17.0383 17.2916 16.4352C16.1137 16.4352 14.9358 16.4352 13.7221 16.4352ZM7.47557 21.7573C7.47557 22.3428 7.47557 22.9282 7.47557 23.5314C8.65349 23.5314 9.83142 23.5314 11.045 23.5314C11.045 22.946 11.045 22.3605 11.045 21.7573C9.86711 21.7573 8.68919 21.7573 7.47557 21.7573ZM13.7221 21.7573C13.7221 22.3428 13.7221 22.9282 13.7221 23.5314C14.6056 23.5314 15.489 23.5314 16.3992 23.5314C16.3992 22.946 16.3992 22.3605 16.3992 21.7573C15.5158 21.7573 14.6323 21.7573 13.7221 21.7573Z" fill="#0A77DB"/>
<path d="M8.33718 3C8.92427 3 9.51136 3 10.1162 3C10.1162 3.5775 10.1162 4.155 10.1162 4.75C13.6388 4.75 17.1613 4.75 20.7906 4.75C20.7906 4.1725 20.7906 3.595 20.7906 3C21.3777 3 21.9648 3 22.5697 3C22.5697 3.5775 22.5697 4.155 22.5697 4.75C22.7947 4.74746 23.0197 4.74492 23.2516 4.74231C23.4328 4.7409 23.614 4.73971 23.7953 4.73868C23.9856 4.73753 24.1759 4.736 24.3662 4.7335C24.5854 4.73063 24.8045 4.7296 25.0237 4.72864C25.1243 4.72694 25.1243 4.72694 25.227 4.72522C26.0356 4.72501 26.6375 4.99586 27.2258 5.53271C28.3714 6.72339 27.9068 8.48798 27.9068 10C19.6876 10 11.4683 10 3 10C3 6.26356 3 6.26356 3.79571 5.41992C4.39934 4.85796 5.06515 4.72388 5.8723 4.73398C5.94308 4.73421 6.01387 4.73444 6.0868 4.73468C6.27307 4.73544 6.45932 4.73691 6.64558 4.73873C6.83642 4.74043 7.02726 4.74117 7.2181 4.74199C7.59115 4.74365 7.96413 4.74686 8.33718 4.75C8.33718 4.1725 8.33718 3.595 8.33718 3Z" fill="#0A77DB"/>
<path opacity="0.6" d="M23.5833 17C24.1883 17 24.7933 17 25.4167 17C25.4167 17.3218 25.4167 17.6435 25.4167 17.975C25.549 17.9929 25.6814 18.0108 25.8177 18.0292C26.8471 18.3695 27.6787 19.0602 28.1667 19.9792C28.3854 20.4643 28.519 20.9478 28.5185 21.4757C28.5187 21.5165 28.5189 21.5572 28.5191 21.5992C28.5196 21.6874 28.5199 21.7756 28.5201 21.8638C28.5205 22.0039 28.5214 22.144 28.5224 22.2842C28.5254 22.6825 28.5282 23.0809 28.5291 23.4793C28.5297 23.7233 28.5314 23.9674 28.5337 24.2114C28.5344 24.3039 28.5347 24.3963 28.5346 24.4887C28.5339 25.2157 28.5955 25.8647 29.1406 26.425C29.2178 26.4965 29.2954 26.5676 29.3734 26.6383C29.683 26.9226 29.8412 27.2413 30 27.6167C30 27.8312 30 28.0457 30 28.2667C28.4875 28.2667 26.975 28.2667 25.4167 28.2667C25.4167 28.8387 25.4167 29.4107 25.4167 30C24.8117 30 24.2067 30 23.5833 30C23.5833 29.428 23.5833 28.856 23.5833 28.2667C22.0708 28.2667 20.5583 28.2667 19 28.2667C19 27.5634 19.1045 27.2036 19.5729 26.6958C19.6499 26.6253 19.7275 26.5554 19.8057 26.4859C20.1919 26.1306 20.4106 25.6469 20.4467 25.1391C20.4473 25.0656 20.4474 24.9922 20.4469 24.9187C20.4472 24.858 20.4472 24.858 20.4476 24.796C20.4479 24.7087 20.4481 24.6213 20.448 24.5339C20.448 24.3949 20.4487 24.2558 20.4497 24.1168C20.4523 23.7216 20.4537 23.3264 20.4541 22.9312C20.4544 22.6888 20.4558 22.4464 20.4579 22.204C20.4584 22.1124 20.4586 22.0209 20.4582 21.9293C20.4547 20.8273 20.729 19.901 21.5208 19.0583C21.5526 19.0238 21.5843 18.9893 21.6171 18.9538C22.1269 18.4348 22.8478 18.0743 23.5833 17.975C23.5833 17.6533 23.5833 17.3315 23.5833 17Z" fill="#0A77DB"/>
</svg>
