<svg width="30" height="30" viewBox="0 0 30 30" fill="none" xmlns="http://www.w3.org/2000/svg">
<path opacity="0.5" d="M14.9985 17C12.237 17 9.99854 19.2385 9.99854 22C9.99854 24.761 12.237 27 14.9985 27C17.76 27 19.9985 24.761 19.9985 22C19.9985 19.2385 17.76 17 14.9985 17ZM17.6225 21.7815L15.1225 23.7815C14.9515 23.918 14.735 24 14.4985 24C14.222 24 13.972 23.888 13.7915 23.707L12.2915 22.207C12.1105 22.0265 11.9985 21.7765 11.9985 21.5C11.9985 20.948 12.4465 20.5 12.9985 20.5C13.275 20.5 13.525 20.612 13.7055 20.793L14.5725 21.66L16.3745 20.2185C16.5455 20.082 16.762 20 16.9985 20C17.5505 20 17.9985 20.448 17.9985 21C17.9985 21.3165 17.852 21.598 17.6225 21.7815V21.7815Z" fill="#0A77DB"/>
<path d="M27.4985 11.5H8.49854C8.02504 11.5 7.63054 11.83 7.52704 12.272L4.52604 25.2765C4.50904 25.3485 4.49854 25.423 4.49854 25.5C4.49854 26.052 4.94654 26.5 5.49854 26.5H10.315C9.19203 25.332 8.49854 23.748 8.49854 22C8.49854 18.41 11.4085 15.5 14.9985 15.5C18.5885 15.5 21.4985 18.41 21.4985 22C21.4985 23.748 20.805 25.332 19.682 26.5H24.4985C24.972 26.5 25.3665 26.17 25.47 25.728L28.471 12.7235C28.488 12.6515 28.4985 12.577 28.4985 12.5C28.4985 11.948 28.0505 11.5 27.4985 11.5V11.5Z" fill="#0A77DB"/>
<path d="M8.49854 10H26.4985V5C26.4985 3.8955 25.603 3 24.4985 3H18.659C17.941 3 17.2785 3.385 16.922 4.008L15.4985 6.5H4.49854C3.39404 6.5 2.49854 7.3955 2.49854 8.5V23.564C2.49854 23.8045 2.69404 24 2.93504 24C3.13804 24 3.31404 23.8615 3.36004 23.663C4.12054 20.3565 6.08054 11.8925 6.08704 11.8695C6.37704 10.7645 7.35604 10 8.49854 10V10Z" fill="#0A77DB"/>
</svg>
