<svg width="30" height="30" viewBox="0 0 30 30" fill="none" xmlns="http://www.w3.org/2000/svg">
<path fill-rule="evenodd" clip-rule="evenodd" d="M10.1048 24.8437C9.8442 24.3072 9.71424 23.7189 9.7251 23.125C9.7251 20.7961 10.9204 18.3984 13.1282 16.7312C12.0262 16.3992 10.8781 16.2369 9.7251 16.25C2.69385 16.25 0.936035 21.4063 0.936035 23.125C0.936035 24.8438 2.69385 24.8437 2.69385 24.8437H10.1048ZM8.84619 14.5313C10.0117 14.5313 11.1295 14.0785 11.9536 13.2727C12.7777 12.4669 13.2407 11.374 13.2407 10.2344C13.2407 9.09477 12.7777 8.00185 11.9536 7.19603C11.1295 6.39021 10.0117 5.9375 8.84619 5.9375C7.68069 5.9375 6.56292 6.39021 5.73879 7.19603C4.91465 8.00185 4.45166 9.09477 4.45166 10.2344C4.45166 11.374 4.91465 12.4669 5.73879 13.2727C6.56292 14.0785 7.68069 14.5313 8.84619 14.5313Z" fill="#0A77DB" fill-opacity="0.5"/>
<path d="M24.0009 13.021C23.0119 13.988 21.6706 14.5312 20.272 14.5312C18.8734 14.5312 17.5321 13.988 16.5431 13.021C15.5541 12.054 14.9985 10.7425 14.9985 9.375C14.9985 8.00748 15.5541 6.69597 16.5431 5.72898C17.5321 4.762 18.8734 4.21875 20.272 4.21875C21.6706 4.21875 23.0119 4.762 24.0009 5.72898C24.9898 6.69597 25.5454 8.00748 25.5454 9.375C25.5454 10.7425 24.9898 12.054 24.0009 13.021Z" fill="#0A77DB"/>
<path d="M11.4829 23.125C11.4829 24.8437 13.2407 24.8437 13.2407 24.8437H27.3032C27.3032 24.8437 29.061 24.8437 29.061 23.125C29.061 21.4062 27.3032 16.25 20.272 16.25C13.2407 16.25 11.4829 21.4062 11.4829 23.125Z" fill="#0A77DB"/>
</svg>
