<svg width="30" height="30" viewBox="0 0 30 30" fill="none" xmlns="http://www.w3.org/2000/svg">
<path fill-rule="evenodd" clip-rule="evenodd" d="M3.51416 24.8438C3.51416 24.8438 1.87354 24.8438 1.87354 23.2031C1.87354 21.5625 3.51416 16.6406 11.7173 16.6406C19.9204 16.6406 21.561 21.5625 21.561 23.2031C21.561 24.8438 19.9204 24.8438 19.9204 24.8438H3.51416Z" fill="#0A77DB"/>
<path d="M15.1976 13.5584C14.2745 14.4814 13.0226 15 11.7173 15C10.4119 15 9.16002 14.4814 8.23699 13.5584C7.31396 12.6354 6.79541 11.3835 6.79541 10.0781C6.79541 8.77276 7.31396 7.52086 8.23699 6.59783C9.16002 5.6748 10.4119 5.15625 11.7173 5.15625C13.0226 5.15625 14.2745 5.6748 15.1976 6.59783C16.1206 7.52086 16.6392 8.77276 16.6392 10.0781C16.6392 11.3835 16.1206 12.6354 15.1976 13.5584Z" fill="#0A77DB"/>
<path fill-rule="evenodd" clip-rule="evenodd" d="M23.436 17.8125C23.436 17.5639 23.5348 17.3254 23.7106 17.1496C23.8864 16.9738 24.1249 16.875 24.3735 16.875H28.1235C28.3722 16.875 28.6106 16.9738 28.7864 17.1496C28.9623 17.3254 29.061 17.5639 29.061 17.8125C29.061 18.0611 28.9623 18.2996 28.7864 18.4754C28.6106 18.6512 28.3722 18.75 28.1235 18.75H24.3735C24.1249 18.75 23.8864 18.6512 23.7106 18.4754C23.5348 18.2996 23.436 18.0611 23.436 17.8125ZM19.686 12.1875C19.686 11.9389 19.7848 11.7004 19.9606 11.5246C20.1364 11.3488 20.3749 11.25 20.6235 11.25H28.1235C28.3722 11.25 28.6106 11.3488 28.7864 11.5246C28.9623 11.7004 29.061 11.9389 29.061 12.1875C29.061 12.4361 28.9623 12.6746 28.7864 12.8504C28.6106 13.0262 28.3722 13.125 28.1235 13.125H20.6235C20.3749 13.125 20.1364 13.0262 19.9606 12.8504C19.7848 12.6746 19.686 12.4361 19.686 12.1875ZM19.686 6.5625C19.686 6.31386 19.7848 6.0754 19.9606 5.89959C20.1364 5.72377 20.3749 5.625 20.6235 5.625H28.1235C28.3722 5.625 28.6106 5.72377 28.7864 5.89959C28.9623 6.0754 29.061 6.31386 29.061 6.5625C29.061 6.81114 28.9623 7.0496 28.7864 7.22541C28.6106 7.40123 28.3722 7.5 28.1235 7.5H20.6235C20.3749 7.5 20.1364 7.40123 19.9606 7.22541C19.7848 7.0496 19.686 6.81114 19.686 6.5625ZM23.436 23.4375C23.436 23.1889 23.5348 22.9504 23.7106 22.7746C23.8864 22.5988 24.1249 22.5 24.3735 22.5H28.1235C28.3722 22.5 28.6106 22.5988 28.7864 22.7746C28.9623 22.9504 29.061 23.1889 29.061 23.4375C29.061 23.6861 28.9623 23.9246 28.7864 24.1004C28.6106 24.2762 28.3722 24.375 28.1235 24.375H24.3735C24.1249 24.375 23.8864 24.2762 23.7106 24.1004C23.5348 23.9246 23.436 23.6861 23.436 23.4375Z" fill="#0A77DB" fill-opacity="0.5"/>
</svg>
