<svg width="30" height="30" viewBox="0 0 30 30" fill="none" xmlns="http://www.w3.org/2000/svg">
<path fill-rule="evenodd" clip-rule="evenodd" d="M4.66667 25C4.66667 25 3 25 3 23.3333C3 21.6667 4.66667 16.6667 13 16.6667C21.3333 16.6667 23 21.6667 23 23.3333C23 25 21.3333 25 21.3333 25H4.66667ZM13 15C14.3261 15 15.5979 14.4732 16.5355 13.5355C17.4732 12.5979 18 11.3261 18 10C18 8.67392 17.4732 7.40215 16.5355 6.46447C15.5979 5.52678 14.3261 5 13 5C11.6739 5 10.4021 5.52678 9.46447 6.46447C8.52678 7.40215 8 8.67392 8 10C8 11.3261 8.52678 12.5979 9.46447 13.5355C10.4021 14.4732 11.6739 15 13 15Z" fill="#0A77DB"/>
<path fill-rule="evenodd" clip-rule="evenodd" d="M22.3735 14.0625C22.3735 13.8139 22.4723 13.5754 22.6481 13.3996C22.8239 13.2238 23.0624 13.125 23.311 13.125H27.061C27.3097 13.125 27.5481 13.2238 27.7239 13.3996C27.8998 13.5754 27.9985 13.8139 27.9985 14.0625C27.9985 14.3111 27.8998 14.5496 27.7239 14.7254C27.5481 14.9012 27.3097 15 27.061 15H24.2485V17.8125C24.2485 18.0611 24.1498 18.2996 23.9739 18.4754C23.7981 18.6512 23.5597 18.75 23.311 18.75C23.0624 18.75 22.8239 18.6512 22.6481 18.4754C22.4723 18.2996 22.3735 18.0611 22.3735 17.8125V14.0625Z" fill="#0A77DB" fill-opacity="0.5"/>
<path d="M23.9739 9.64959C23.7981 9.47377 23.5597 9.375 23.311 9.375C23.0624 9.375 22.8239 9.47377 22.6481 9.64959C22.4723 9.8254 22.3735 10.0639 22.3735 10.3125V13.125H19.561C19.3124 13.125 19.0739 13.2238 18.8981 13.3996C18.7223 13.5754 18.6235 13.8139 18.6235 14.0625C18.6235 14.3111 18.7223 14.5496 18.8981 14.7254C19.0739 14.9012 19.3124 15 19.561 15H23.311C23.5597 15 23.7981 14.9012 23.9739 14.7254C24.1498 14.5496 24.2485 14.3111 24.2485 14.0625V10.3125C24.2485 10.0639 24.1498 9.8254 23.9739 9.64959Z" fill="#0A77DB" fill-opacity="0.5"/>
</svg>
