<svg width="31" height="30" viewBox="0 0 31 30" fill="none" xmlns="http://www.w3.org/2000/svg">
<path opacity="0.6" d="M3 24V24.5C3 25.6045 3.8955 26.5 5 26.5H26C27.1045 26.5 28 25.6045 28 24.5V24H3Z" fill="#91919F"/>
<path d="M26 4H5C3.8955 4 3 4.8955 3 6V22H28V6C28 4.8955 27.1045 4 26 4ZM18.25 6C19.2165 6 20 6.7835 20 7.75C20 8.717 19.2165 9.5 18.25 9.5C17.2835 9.5 16.5 8.717 16.5 7.75C16.5 6.7835 17.2835 6 18.25 6ZM24.5 18.5C24.5 19.052 24.052 19.5 23.5 19.5H7C6.448 19.5 6 19.052 6 18.5V15.5L11.1465 10.3535C11.373 10.127 11.68 10 12 10C12.32 10 12.627 10.127 12.8535 10.3535L18.1895 15.6895C18.388 15.888 18.658 16 18.9395 16C19.525 16 20 15.5255 20 14.9395C20 14.658 19.888 14.388 19.6895 14.1895L18.5 13L20.6465 10.8535C20.873 10.627 21.18 10.5 21.5 10.5C21.82 10.5 22.127 10.627 22.3535 10.8535L24.5 13V18.5Z" fill="#91919F"/>
</svg>
