<svg width="30" height="30" viewBox="0 0 30 30" fill="none" xmlns="http://www.w3.org/2000/svg">
<path opacity="0.6" d="M17 10.5C17 8.84351 18.3435 7.50001 20 7.50001C20.351 7.50001 20.6865 7.56351 21 7.67451V3.00201C21 2.41451 21.481 2.00201 22 2.00001C22.1875 1.99901 22.38 2.05151 22.5565 2.16901L25.5545 4.16851C25.823 4.34751 26 4.65301 26 5.00001C26 5.55201 25.552 6.00001 25 6.00001C24.795 6.00001 24.6045 5.93751 24.4455 5.83151L23 4.86851V10.5H17Z" fill="#91919F"/>
<path d="M19.5 6.028V5.5H13.619L12.0645 3.1685C11.786 2.751 11.3175 2.5 10.8155 2.5H6C5.172 2.5 4.5 3.1715 4.5 4V7.5H11.3155C12.3205 7.5 13.254 7.999 13.8125 8.8355L14.922 10.5H15.5C15.5 8.1875 17.253 6.2775 19.5 6.028Z" fill="#91919F"/>
<path d="M25.5002 12H14.1192L12.5647 9.6685C12.2862 9.251 11.8177 9 11.3157 9H4.00024C3.09224 9 2.39224 9.801 2.51374 10.7005L4.60824 26.2005C4.70924 26.945 5.34424 27.5 6.09474 27.5H23.4832C24.2197 27.5 24.8472 26.966 24.9642 26.239L26.9802 13.739C27.1282 12.827 26.4237 12 25.5002 12ZM19.1167 20.219L13.0377 24.3835C12.9202 24.464 12.7917 24.5 12.6662 24.5C12.3222 24.5005 12.0002 24.2275 12.0002 23.837V15.163C12.0002 14.7725 12.3222 14.4995 12.6662 14.5C12.7917 14.5 12.9202 14.536 13.0377 14.6165L19.1167 18.781C19.3477 18.937 19.5002 19.2005 19.5002 19.5C19.5002 19.7995 19.3477 20.063 19.1167 20.219Z" fill="#91919F"/>
</svg>
