<svg width="32" height="32" viewBox="0 0 32 32" fill="none" xmlns="http://www.w3.org/2000/svg">
<path opacity="0.6" d="M29.9414 3.97119L18.5574 6.70346C18.2956 6.76639 18.1388 6.99306 18.1334 7.22879C18.1302 7.37012 18.1814 7.51466 18.2961 7.62879L22.2897 11.6224L29.9414 3.97119Z" fill="white"/>
<path opacity="0.6" d="M27.0373 16.3699C27.1509 16.4846 27.2954 16.5363 27.4373 16.5331C27.6725 16.5278 27.8997 16.371 27.9626 16.1091L30.6954 4.7251L23.0437 12.3768L27.0373 16.3699Z" fill="white"/>
<path opacity="0.6" d="M20.8 11.6416V15.9989C20.8 16.3189 21.0603 16.5312 21.3334 16.5333C21.4656 16.5344 21.6011 16.4853 21.7104 16.376L23.6224 14.464L20.8 11.6416Z" fill="white"/>
<path d="M27.424 18.1332C26.8517 18.1332 26.3141 17.9102 25.9056 17.5012L24.3765 15.9721L22.8416 17.507C22.4373 17.9113 21.904 18.1332 21.3381 18.1332C21.3322 18.1332 21.3269 18.1332 21.321 18.1332C20.1514 18.1241 19.2 17.1668 19.2 15.9988V10.7956L17.1648 8.76037C16.745 8.34064 16.521 7.78437 16.5338 7.19344C16.5573 6.2153 17.2352 5.37584 18.1834 5.14757L21.8202 4.2745C19.9312 3.24944 17.7669 2.6665 15.4666 2.6665C8.1029 2.6665 2.1333 8.6361 2.1333 15.9998C2.1333 18.5204 2.8373 20.874 4.0533 22.8841L2.7157 27.3401C2.6821 27.4542 2.66663 27.5662 2.66663 27.675C2.66663 28.2889 3.1781 28.7998 3.79037 28.7998C3.8997 28.7998 4.01223 28.7844 4.12583 28.7508L8.58183 27.4132C10.5925 28.6292 12.9461 29.3332 15.4666 29.3332C22.248 29.3332 27.8426 24.2692 28.6864 17.7177C28.3408 17.9684 27.8816 18.1332 27.424 18.1332V18.1332ZM9.06663 17.5998C8.18343 17.5998 7.46663 16.883 7.46663 15.9998C7.46663 15.1161 8.18343 14.3998 9.06663 14.3998C9.94983 14.3998 10.6666 15.1161 10.6666 15.9998C10.6666 16.883 9.94983 17.5998 9.06663 17.5998ZM15.4666 17.5998C14.5834 17.5998 13.8666 16.883 13.8666 15.9998C13.8666 15.1161 14.5834 14.3998 15.4666 14.3998C16.3498 14.3998 17.0666 15.1161 17.0666 15.9998C17.0666 16.883 16.3498 17.5998 15.4666 17.5998Z" fill="white"/>
</svg>
