<svg width="54" height="54" viewBox="0 0 54 54" fill="none" xmlns="http://www.w3.org/2000/svg">
<rect x="1.5" y="1.5" width="50.0222" height="50.0222" rx="11.5" fill="#EE4428" stroke="white" stroke-width="3"/>
<path fill-rule="evenodd" clip-rule="evenodd" d="M15.506 23.2672L15.6623 37.8654C15.6623 37.8654 25.6199 37.5526 28.3511 37.5526C33.6463 37.5526 31.9407 32.0792 31.9407 32.0792L37.6432 31.9156L37.6905 23.2672H39.607L39.7889 40.7457L13.3093 41.0003L13.3893 23.2672H15.506Z" fill="white"/>
<path opacity="0.6" d="M13 16.4659V21.1937L39.8651 20.9573C39.8651 20.9573 39.8287 17.4224 39.8287 16.4695C39.8287 14.6475 39.4396 13 37.0756 13C35.1518 13 18.9244 13.1418 16.1895 13.1418C13.4546 13.1418 13 14.4256 13 16.4659Z" fill="white"/>
<path d="M19.7976 24.5105C22.5579 24.5105 22.627 28.8747 19.9867 28.8747C16.8554 28.8601 17.0845 24.5105 19.7976 24.5105Z" fill="white"/>
<path d="M19.9867 35.3554C16.8554 35.3554 17.0772 30.9913 19.7976 30.9913C22.5179 30.9913 22.627 35.3554 19.9867 35.3554Z" fill="white"/>
<path d="M26.5403 24.5105C26.5378 24.5105 26.5354 24.5105 26.5329 24.5105H26.5475C26.5451 24.5105 26.5427 24.5105 26.5403 24.5105C29.2934 24.5182 29.36 28.8747 26.722 28.8747C23.6081 28.8601 23.834 24.5182 26.5403 24.5105Z" fill="white"/>
<path d="M26.5329 30.9913C23.8126 30.9913 23.5908 35.3554 26.722 35.3554H26.7366C29.3769 35.3554 29.2533 30.9913 26.5329 30.9913Z" fill="white"/>
<path d="M33.283 24.5105C33.2781 24.5105 33.2732 24.5105 33.2683 24.5105H33.2974C33.2926 24.5105 33.2878 24.5105 33.283 24.5105C36.0325 24.526 36.0967 28.8747 33.461 28.8747C30.3644 28.8601 30.5872 24.5259 33.283 24.5105Z" fill="white"/>
</svg>
