<svg width="32" height="32" viewBox="0 0 32 32" fill="none" xmlns="http://www.w3.org/2000/svg">
<path opacity="0.6" d="M27.3563 13.1769C27.5979 12.9353 27.9249 12.7998 28.2667 12.7998C28.6086 12.7998 28.9355 12.9353 29.1771 13.1769L30.5563 14.5561C30.7979 14.7977 30.9334 15.1246 30.9334 15.4665C30.9334 15.8083 30.7979 16.1353 30.5563 16.3769L23.4667 23.4665L19.7334 23.9998L20.2667 20.2665L27.3563 13.1769Z" fill="white"/>
<path d="M24.2208 24.9747L17.848 25.8851L18.7584 19.5123L25.4709 12.7998H2.13332C1.54452 12.7998 1.06665 13.2777 1.06665 13.8665C1.06665 13.9385 1.07412 14.0083 1.08745 14.0766L3.75465 27.4105C3.85225 27.899 4.28318 28.2665 4.79998 28.2665H25.0666C25.5834 28.2665 26.0144 27.899 26.112 27.4105L27.1936 22.0019L24.2208 24.9747ZM10.4 20.2665H5.59998C5.15838 20.2665 4.79998 19.9081 4.79998 19.4665C4.79998 19.0249 5.15838 18.6665 5.59998 18.6665H10.4C10.8416 18.6665 11.2 19.0249 11.2 19.4665C11.2 19.9081 10.8416 20.2665 10.4 20.2665ZM10.4 16.5331H5.59998C5.15838 16.5331 4.79998 16.1747 4.79998 15.7331C4.79998 15.2915 5.15838 14.9331 5.59998 14.9331H10.4C10.8416 14.9331 11.2 15.2915 11.2 15.7331C11.2 16.1747 10.8416 16.5331 10.4 16.5331Z" fill="white"/>
<path d="M27.2001 11.2001V9.06673C27.2001 8.183 26.4833 7.46673 25.6001 7.46673H15.1046L13.5851 4.8086C13.2059 4.14406 12.4993 3.7334 11.7334 3.7334H4.80008C3.62195 3.7334 2.66675 4.6886 2.66675 5.86673V11.2001H27.2001Z" fill="white"/>
</svg>
