<svg width="32" height="32" viewBox="0 0 32 32" fill="none" xmlns="http://www.w3.org/2000/svg">
<path opacity="0.6" d="M28.8 4.7998L21.8666 6.3998L24.024 8.059L16.3568 16.5331H12.2666C11.9664 16.5331 11.673 16.6174 11.4186 16.7763L7.54128 19.1998H3.19995V22.3998H7.99995C8.30022 22.3998 8.59355 22.3155 8.84795 22.1566L12.7253 19.7331H17.0666C17.5189 19.7331 17.9498 19.5422 18.2533 19.2067L26.5685 10.0169L28.8 11.7331V4.7998Z" fill="white"/>
<path d="M3.19995 23.4668H7.46662V30.4001H3.19995V23.4668Z" fill="white"/>
<path d="M19.2 19.7499V30.4H23.4666V15.0342L19.2 19.7499Z" fill="white"/>
<path d="M9.41291 23.0611C9.14198 23.2302 8.84331 23.3422 8.53345 23.4057V30.3998H12.8001V20.9443L9.41291 23.0611Z" fill="white"/>
<path d="M26.6988 11.4624L24.5334 13.8555V30.4H28.8001V13.0789L26.6988 11.4624Z" fill="white"/>
<path d="M17.0667 20.8002H13.8667V30.4002H18.1334V20.5757C17.8 20.7213 17.4374 20.8002 17.0667 20.8002Z" fill="white"/>
</svg>
