<svg width="32" height="32" viewBox="0 0 32 32" fill="none" xmlns="http://www.w3.org/2000/svg">
<path opacity="0.6" d="M14.4001 22.4002C14.4001 23.4092 14.0465 24.3356 13.4583 25.0668H26.6668C28.1399 25.0668 29.3335 23.8732 29.3335 22.4002V21.3335H14.4001V22.4002Z" fill="white"/>
<path d="M25.5999 4.8001V2.66676C25.5999 2.07796 25.122 1.6001 24.5332 1.6001C23.9444 1.6001 23.4666 2.07796 23.4666 2.66676V6.66676C23.4666 7.10836 23.1082 7.46676 22.6666 7.46676C22.225 7.46676 21.8666 7.10836 21.8666 6.66676V4.8001H19.7332V2.66676C19.7332 2.07796 19.2554 1.6001 18.6666 1.6001C18.0778 1.6001 17.5999 2.07796 17.5999 2.66676V6.66676C17.5999 7.10836 17.2415 7.46676 16.7999 7.46676C16.3583 7.46676 15.9999 7.10836 15.9999 6.66676V4.8001H13.8666V2.66676C13.8666 2.07796 13.3887 1.6001 12.7999 1.6001C12.2111 1.6001 11.7332 2.07796 11.7332 2.66676V6.66676C11.7332 7.10836 11.3748 7.46676 10.9332 7.46676C10.4916 7.46676 10.1332 7.10836 10.1332 6.66676V4.8001H9.59989C8.42175 4.8001 7.46655 5.7553 7.46655 6.93343V22.4001C7.46655 23.8732 8.66015 25.0668 10.1332 25.0668C11.6063 25.0668 12.7999 23.8732 12.7999 22.4001V19.7334H27.7332V6.93343C27.7332 5.7553 26.778 4.8001 25.5999 4.8001ZM22.5956 11.9782L17.7956 16.7782C17.6052 16.9574 17.3487 17.0668 17.0666 17.0668C16.7716 17.0668 16.505 16.9473 16.3124 16.7542L13.6458 14.0876C13.4527 13.895 13.3332 13.6284 13.3332 13.3334C13.3332 12.7446 13.8111 12.2668 14.3999 12.2668C14.6948 12.2668 14.9615 12.3862 15.154 12.5793L17.0906 14.5158L21.1375 10.422C21.3279 10.2428 21.5844 10.1334 21.8666 10.1334C22.4554 10.1334 22.9332 10.6113 22.9332 11.2001C22.9332 11.5073 22.8036 11.7841 22.5956 11.9782V11.9782Z" fill="white"/>
<path d="M10.1334 26.6664C7.78086 26.6664 5.86673 24.7523 5.86673 22.3998V6.93311H4.26673C3.9718 6.93311 3.7334 7.17151 3.7334 7.46644V29.3331C3.7334 29.628 3.9718 29.8664 4.26673 29.8664H23.4667C23.7617 29.8664 24.0001 29.628 24.0001 29.3331V26.6664H10.1334Z" fill="white"/>
</svg>
