<svg width="31" height="30" viewBox="0 0 31 30" fill="none" xmlns="http://www.w3.org/2000/svg">
<path opacity="0.6" d="M17.5 10.5C17.5 8.84351 18.8435 7.50001 20.5 7.50001C20.851 7.50001 21.1865 7.56351 21.5 7.67451V3.00201C21.5 2.41451 21.981 2.00201 22.5 2.00001C22.6875 1.99901 22.88 2.05151 23.0565 2.16901L26.0545 4.16851C26.323 4.34751 26.5 4.65301 26.5 5.00001C26.5 5.55201 26.052 6.00001 25.5 6.00001C25.295 6.00001 25.1045 5.93751 24.9455 5.83151L23.5 4.86851V10.5H17.5Z" fill="#0078FF"/>
<path d="M20 6.028V5.5H14.119L12.5645 3.1685C12.286 2.751 11.8175 2.5 11.3155 2.5H6.5C5.672 2.5 5 3.1715 5 4V7.5H11.8155C12.8205 7.5 13.754 7.999 14.3125 8.8355L15.422 10.5H16C16 8.1875 17.753 6.2775 20 6.028Z" fill="#0078FF"/>
<path d="M26.0002 12H14.6192L13.0647 9.6685C12.7862 9.251 12.3177 9 11.8157 9H4.50024C3.59224 9 2.89224 9.801 3.01374 10.7005L5.10824 26.2005C5.20924 26.945 5.84424 27.5 6.59474 27.5H23.9832C24.7197 27.5 25.3472 26.966 25.4642 26.239L27.4802 13.739C27.6282 12.827 26.9237 12 26.0002 12ZM19.6167 20.219L13.5377 24.3835C13.4202 24.464 13.2917 24.5 13.1662 24.5C12.8222 24.5005 12.5002 24.2275 12.5002 23.837V15.163C12.5002 14.7725 12.8222 14.4995 13.1662 14.5C13.2917 14.5 13.4202 14.536 13.5377 14.6165L19.6167 18.781C19.8477 18.937 20.0002 19.2005 20.0002 19.5C20.0002 19.7995 19.8477 20.063 19.6167 20.219Z" fill="#0078FF"/>
</svg>
