<svg width="32" height="32" viewBox="0 0 32 32" fill="none" xmlns="http://www.w3.org/2000/svg">
<g clip-path="url(#clip0_2191_26671)">
<g opacity="0.6">
<path d="M14.6666 13.334H9.33325V18.6673H14.6666V13.334Z" fill="white"/>
<path d="M6.66691 13.334H0.269577C0.0935775 14.1953 0.000244141 15.0873 0.000244141 16.0007C0.000244141 16.9153 0.0935775 17.806 0.269577 18.6673H6.66691V13.334Z" fill="white"/>
<path d="M9.33325 10.6675H14.6666V2.66748H13.3333C11.9399 2.66748 10.5973 2.88481 9.33325 3.28215V10.6675Z" fill="white"/>
<path d="M9.33325 21.334V28.7206C10.5973 29.118 11.9399 29.334 13.3333 29.334H14.6666V21.334H9.33325Z" fill="white"/>
<path d="M6.66545 10.6682V4.47217C4.22012 5.89217 2.26278 8.06017 1.12012 10.6682H6.66545Z" fill="white"/>
<path d="M6.66545 21.334H1.12012C2.26278 23.9433 4.22012 26.11 6.66545 27.5286V21.334Z" fill="white"/>
</g>
<path d="M22.667 10.667C24.8761 10.667 26.667 8.87613 26.667 6.66699C26.667 4.45785 24.8761 2.66699 22.667 2.66699C20.4579 2.66699 18.667 4.45785 18.667 6.66699C18.667 8.87613 20.4579 10.667 22.667 10.667Z" fill="white"/>
<path d="M22.6669 10.667C18.9909 10.667 16.0002 13.6577 16.0002 17.3337V21.3337C16.0002 22.0697 16.5976 22.667 17.3336 22.667H18.6669V28.0003C18.6669 28.7363 19.2642 29.3337 20.0002 29.3337H25.3336C26.0696 29.3337 26.6669 28.7363 26.6669 28.0003V22.667H28.0002C28.7362 22.667 29.3336 22.0697 29.3336 21.3337V17.3337C29.3336 13.6577 26.3429 10.667 22.6669 10.667Z" fill="white"/>
</g>
<defs>
<clipPath id="clip0_2191_26671">
<rect width="32" height="32" fill="white"/>
</clipPath>
</defs>
</svg>
