<svg width="54" height="54" viewBox="0 0 54 54" fill="none" xmlns="http://www.w3.org/2000/svg">
<rect x="1.5" y="1.5" width="50.0222" height="50.0222" rx="11.5" fill="#1BBD67" stroke="white" stroke-width="3"/>
<path d="M33.75 13C31.6785 13 30 14.679 30 16.75C30 17.9755 30.591 19.0605 31.5 19.745V24L33.75 23L36 24V19.745C36.909 19.0605 37.5 17.9755 37.5 16.75C37.5 14.679 35.8215 13 33.75 13V13ZM33.75 18C33.0595 18 32.5 17.4405 32.5 16.75C32.5 16.0595 33.0595 15.5 33.75 15.5C34.4405 15.5 35 16.0595 35 16.75C35 17.4405 34.4405 18 33.75 18Z" fill="white"/>
<path d="M25 21.5H14.5C13.672 21.5 13 22.1715 13 23V37C13 37.8285 13.672 38.5 14.5 38.5H25C25.828 38.5 26.5 37.8285 26.5 37V23C26.5 22.1715 25.828 21.5 25 21.5ZM16.25 36.5H15.25C14.836 36.5 14.5 36.164 14.5 35.75C14.5 35.336 14.836 35 15.25 35H16.25C16.664 35 17 35.336 17 35.75C17 36.164 16.664 36.5 16.25 36.5ZM16.25 33.5H15.25C14.836 33.5 14.5 33.164 14.5 32.75C14.5 32.336 14.836 32 15.25 32H16.25C16.664 32 17 32.336 17 32.75C17 33.164 16.664 33.5 16.25 33.5ZM16.25 30.5H15.25C14.836 30.5 14.5 30.164 14.5 29.75C14.5 29.336 14.836 29 15.25 29H16.25C16.664 29 17 29.336 17 29.75C17 30.164 16.664 30.5 16.25 30.5ZM20.25 36.5H19.25C18.836 36.5 18.5 36.164 18.5 35.75C18.5 35.336 18.836 35 19.25 35H20.25C20.664 35 21 35.336 21 35.75C21 36.164 20.664 36.5 20.25 36.5ZM20.25 33.5H19.25C18.836 33.5 18.5 33.164 18.5 32.75C18.5 32.336 18.836 32 19.25 32H20.25C20.664 32 21 32.336 21 32.75C21 33.164 20.664 33.5 20.25 33.5ZM20.25 30.5H19.25C18.836 30.5 18.5 30.164 18.5 29.75C18.5 29.336 18.836 29 19.25 29H20.25C20.664 29 21 29.336 21 29.75C21 30.164 20.664 30.5 20.25 30.5ZM24.25 36.5H23.25C22.836 36.5 22.5 36.164 22.5 35.75C22.5 35.336 22.836 35 23.25 35H24.25C24.664 35 25 35.336 25 35.75C25 36.164 24.664 36.5 24.25 36.5ZM24.25 33.5H23.25C22.836 33.5 22.5 33.164 22.5 32.75C22.5 32.336 22.836 32 23.25 32H24.25C24.664 32 25 32.336 25 32.75C25 33.164 24.664 33.5 24.25 33.5ZM24.25 30.5H23.25C22.836 30.5 22.5 30.164 22.5 29.75C22.5 29.336 22.836 29 23.25 29H24.25C24.664 29 25 29.336 25 29.75C25 30.164 24.664 30.5 24.25 30.5ZM24.5 27H15V23.5H24.5V27Z" fill="white"/>
<path opacity="0.8" d="M37.5 22.3635V26.308L33.75 24.6415L30 26.308V20.4205C29.0385 19.445 28.5 18.1445 28.5 16.75C28.5 16.701 28.506 16.654 28.5075 16.6055C25.8635 15.151 21.7265 14 14 14V20H25C26.6545 20 28 21.3455 28 23V34.583C32.0315 35.4425 33.5625 36.5 39.5 36.5V22.5C38.752 22.5 38.0925 22.4515 37.5 22.3635Z" fill="white"/>
</svg>
