<svg xmlns="http://www.w3.org/2000/svg" viewBox="0 0 100 100" id="accounting"><path d="M88 9H60c-4.17 0-7.85 2.14-10 5.38C47.85 11.14 44.17 9 40 9H12c-3.31 0-6 2.69-6 6v60c0 3.31 2.69 6 6 6h54v8c0 .78.46 1.49 1.16 1.82.72.32 1.55.21 2.14-.3l5.7-4.89 5.7 4.89c.37.31.83.48 1.3.48.28 0 .57-.06.84-.18.7-.33 1.16-1.04 1.16-1.82v-8h4c3.31 0 6-2.69 6-6V15c0-3.31-2.69-6-6-6zM12 77c-1.1 0-2-.9-2-2v-4h30c3.72 0 6.86 2.55 7.75 6H12zm36-6.92C45.87 68.17 43.07 67 40 67H10V15c0-1.1.9-2 2-2h28c4.41 0 8 3.59 8 8v49.08zM66 77H52.25c.89-3.45 4.03-6 7.75-6h6v6zm14 7.65-3.7-3.17c-.37-.32-.84-.48-1.3-.48s-.93.16-1.3.48L70 84.65V71h10v13.65zM90 75c0 1.1-.9 2-2 2h-4v-6h6v4zm0-8H60c-3.08 0-5.87 1.17-8 3.08V21c0-4.41 3.59-8 8-8h28c1.1 0 2 .9 2 2v52z"></path><path d="M82 53H60c-1.1 0-2 .9-2 2s.9 2 2 2h22c1.1 0 2-.9 2-2s-.9-2-2-2zm0-10H60c-1.1 0-2 .9-2 2s.9 2 2 2h22c1.1 0 2-.9 2-2s-.9-2-2-2zm0-10H60c-1.1 0-2 .9-2 2s.9 2 2 2h22c1.1 0 2-.9 2-2s-.9-2-2-2zm0-10H60c-1.1 0-2 .9-2 2s.9 2 2 2h22c1.1 0 2-.9 2-2s-.9-2-2-2zm-54 9h7c1.1 0 2-.9 2-2s-.9-2-2-2h-4v-3c0-1.1-.9-2-2-2s-2 .9-2 2v3.08c-3.39.49-6 3.4-6 6.92 0 3.86 3.14 7 7 7h2c1.65 0 3 1.35 3 3s-1.35 3-3 3h-7c-1.1 0-2 .9-2 2s.9 2 2 2h4v3c0 1.1.9 2 2 2s2-.9 2-2v-3.08c3.39-.49 6-3.4 6-6.92 0-3.86-3.14-7-7-7h-2c-1.65 0-3-1.35-3-3s1.35-3 3-3z"></path></svg>