<svg width="32" height="32" viewBox="0 0 32 32" fill="none" xmlns="http://www.w3.org/2000/svg">
<path opacity="0.6" d="M28.7992 4.80078L21.8659 6.40078L24.0232 8.05998L16.356 16.5341H12.2659C11.9656 16.5341 11.6723 16.6184 11.4179 16.7773L7.54055 19.2008H3.19922V22.4008H7.99922C8.29949 22.4008 8.59282 22.3165 8.84722 22.1576L12.7246 19.7341H17.0659C17.5182 19.7341 17.9491 19.5432 18.2526 19.2077L26.5678 10.0178L28.7992 11.7341V4.80078Z" fill="white"/>
<path d="M3.19922 23.4648H7.46589V30.3982H3.19922V23.4648Z" fill="white"/>
<path d="M19.1992 19.7509V30.401H23.4659V15.0352L19.1992 19.7509Z" fill="white"/>
<path d="M9.41462 23.0621C9.14369 23.2312 8.84502 23.3432 8.53516 23.4066V30.4008H12.8018V20.9453L9.41462 23.0621Z" fill="white"/>
<path d="M26.7005 11.4609L24.5352 13.854V30.3985H28.8018V13.0775L26.7005 11.4609Z" fill="white"/>
<path d="M17.0672 20.7988H13.8672V30.3988H18.1339V20.5742C17.8005 20.7198 17.4379 20.7988 17.0672 20.7988Z" fill="white"/>
</svg>
