<svg width="32" height="32" viewBox="0 0 32 32" fill="none" xmlns="http://www.w3.org/2000/svg">
<path d="M14.3984 17.0664H17.5984V19.1997H14.3984V17.0664Z" fill="#F4F7FF"/>
<path d="M20.268 29.8656H18.9346L18.1346 28.2656H13.868L13.068 29.8656H11.7346C11.1458 29.8656 10.668 30.3435 10.668 30.9323C10.668 31.5211 11.1458 31.999 11.7346 31.999H20.268C20.8568 31.999 21.3346 31.5211 21.3346 30.9323C21.3346 30.3435 20.8568 29.8656 20.268 29.8656Z" fill="#F4F7FF"/>
<path d="M25.599 9.06641H18.5264L20.3168 11.1997H25.599V23.4664H6.39896V11.1997H11.6934L13.4768 9.06641H6.39896C5.22082 9.06641 4.26562 10.0216 4.26562 11.1997V25.0664C4.26562 26.2445 5.22082 27.1997 6.39896 27.1997H25.599C26.7771 27.1997 27.7323 26.2445 27.7323 25.0664V11.1997C27.7323 10.0216 26.7771 9.06641 25.599 9.06641Z" fill="#F4F7FF"/>
<path d="M17.6008 16V12.2667H18.6674C18.9618 12.2667 19.2008 12.0283 19.2008 11.7333C19.2008 11.6053 19.1496 11.4917 19.0738 11.3995L16.4024 8.192C16.3042 8.07733 16.1634 8 16.0008 8C15.8381 8 15.6973 8.07733 15.5997 8.192L12.9282 11.3995C12.852 11.4917 12.8008 11.6053 12.8008 11.7333C12.8008 12.0283 13.0397 12.2667 13.3341 12.2667H14.4008V16H17.6008Z" fill="#F4F7FF"/>
<path d="M9.06641 16.8C9.06641 16.3584 9.42427 16 9.86641 16C10.308 16 10.6664 16.3584 10.6664 16.8V20C10.6664 20.4416 10.308 20.8 9.86641 20.8C9.42427 20.8 9.06641 20.4416 9.06641 20V16.8Z" fill="#F4F7FF"/>
<path d="M21.8672 14.6672C21.8672 14.2256 22.2251 13.8672 22.6672 13.8672C23.1088 13.8672 23.4672 14.2256 23.4672 14.6672V17.8672C23.4672 18.3088 23.1088 18.6672 22.6672 18.6672C22.2251 18.6672 21.8672 18.3088 21.8672 17.8672V14.6672Z" fill="#F4F7FF"/>
<path d="M26.668 5.06563C26.668 4.62403 27.0258 4.26562 27.468 4.26562C27.9096 4.26562 28.268 4.62403 28.268 5.06563V7.73229C28.268 8.17389 27.9096 8.53229 27.468 8.53229C27.0258 8.53229 26.668 8.17389 26.668 7.73229V5.06563Z" fill="#F4F7FF"/>
<path d="M4.80078 3.46797C4.80078 3.02637 5.15865 2.66797 5.60078 2.66797C6.04238 2.66797 6.40078 3.02637 6.40078 3.46797V7.2013C6.40078 7.6429 6.04238 8.0013 5.60078 8.0013C5.15865 8.0013 4.80078 7.6429 4.80078 7.2013V3.46797Z" fill="#F4F7FF"/>
<path d="M19.4659 3.20182C20.4968 3.20182 21.3326 4.03756 21.3326 5.06849C21.3326 6.09996 20.4968 6.93516 19.4659 6.93516C18.475 6.93516 14.4696 6.93516 13.3326 6.93516C12.1544 6.93516 11.1992 5.97996 11.1992 4.80182C11.1992 3.62369 12.1544 2.66849 13.3326 2.66849C13.7246 2.66849 14.0835 2.75062 14.3992 2.93516C14.3992 1.60982 15.4739 0.535156 16.7992 0.535156C18.1246 0.535156 19.1992 1.60982 19.1992 2.93516V3.20182H19.4659Z" fill="#F4F7FF"/>
</svg>
