<svg width="32" height="32" viewBox="0 0 32 32" fill="none" xmlns="http://www.w3.org/2000/svg">
<path d="M30.2421 13.8629C30.2069 13.864 30.1712 13.8682 30.1349 13.8682C28.2202 13.8682 26.6682 12.3162 26.6682 10.4016C26.6682 9.36796 27.1237 8.44263 27.8405 7.80796C26.9984 6.5925 25.9733 5.51463 24.8064 4.61116C24.1701 5.37863 23.2101 5.86823 22.1349 5.86823C20.2202 5.86823 18.6682 4.31623 18.6682 2.40156C18.6682 2.21703 18.6869 2.03676 18.7146 1.86023C17.8357 1.69276 16.9296 1.60156 16.0016 1.60156C15.0736 1.60156 14.1674 1.69276 13.2885 1.86023C13.3162 2.03676 13.3349 2.21703 13.3349 2.40156C13.3349 4.31623 11.7829 5.86823 9.86823 5.86823C8.79303 5.86823 7.83303 5.37863 7.19676 4.61116C6.02983 5.51463 5.00476 6.5925 4.16263 7.80796C4.87996 8.44263 5.3349 9.3685 5.3349 10.4016C5.3349 12.3162 3.7829 13.8682 1.86823 13.8682C1.83196 13.8682 1.79623 13.864 1.76103 13.8629C1.65703 14.561 1.60156 15.2746 1.60156 16.0016C1.60156 16.9136 1.6901 17.8042 1.85223 18.6693C1.85756 18.6693 1.8629 18.6682 1.86823 18.6682C3.7829 18.6682 5.3349 20.2202 5.3349 22.1349C5.3349 23.056 4.9733 23.8912 4.38716 24.512C5.18503 25.5984 6.1317 26.5674 7.1973 27.392C7.83303 26.6245 8.79303 26.1349 9.86823 26.1349C11.7829 26.1349 13.3349 27.6869 13.3349 29.6016C13.3349 29.7861 13.3162 29.9664 13.2885 30.1429C14.1674 30.3104 15.0736 30.4016 16.0016 30.4016C16.9296 30.4016 17.8357 30.3104 18.7146 30.1429C18.6869 29.9664 18.6682 29.7861 18.6682 29.6016C18.6682 27.6869 20.2202 26.1349 22.1349 26.1349C23.2101 26.1349 24.1701 26.6245 24.8064 27.392C25.8714 26.5674 26.8181 25.5984 27.6165 24.512C27.0298 23.8912 26.6682 23.056 26.6682 22.1349C26.6682 20.2202 28.2202 18.6682 30.1349 18.6682C30.1402 18.6682 30.1456 18.6693 30.1509 18.6693C30.313 17.8042 30.4016 16.9136 30.4016 16.0016C30.4016 15.2746 30.3461 14.561 30.2421 13.8629V13.8629ZM22.3765 17.9109C21.5472 20.8122 18.8768 22.9349 15.7093 22.9349C14.0048 22.9349 12.448 22.3162 11.2405 21.296L9.82236 22.7141C9.6805 22.856 9.48903 22.9349 9.28903 22.9349C8.8725 22.9349 8.5349 22.5973 8.5349 22.1808V17.6016C8.5349 17.3066 8.7733 17.0682 9.06823 17.0682H13.6474C14.064 17.0682 14.4016 17.4058 14.4016 17.8224C14.4016 18.0224 14.3226 18.2138 14.1808 18.3557L13.1712 19.3653C13.9402 19.6005 14.7994 19.7349 15.7093 19.7349C18.1962 19.7349 20.3221 18.7498 21.176 17.3594C21.2912 17.1712 21.5066 17.0682 21.7274 17.0682C22.0997 17.0682 22.4016 17.3664 22.4016 17.7178C22.4016 17.7808 22.3952 17.8464 22.3765 17.9109V17.9109ZM22.9349 14.4016C22.9349 14.6965 22.6965 14.9349 22.4016 14.9349H17.8224C17.4058 14.9349 17.0682 14.5973 17.0682 14.1808C17.0682 13.9808 17.1472 13.7893 17.289 13.6474L18.2986 12.6378C17.5296 12.4026 16.6704 12.2682 15.7605 12.2682C13.2736 12.2682 11.1477 13.2533 10.2938 14.6437C10.1786 14.832 9.96316 14.9349 9.74236 14.9349C9.36316 14.9349 9.06823 14.6213 9.06823 14.2634C9.06823 14.2069 9.07676 14.1493 9.0933 14.0922C9.92263 11.1914 12.593 9.06823 15.7605 9.06823C17.465 9.06823 19.0218 9.6869 20.2293 10.7072L21.6474 9.28903C21.7893 9.14716 21.9808 9.06823 22.1808 9.06823C22.5973 9.06823 22.9349 9.40583 22.9349 9.82236V14.4016Z" fill="#F4F7FF"/>
</svg>
