<svg width="32" height="32" viewBox="0 0 32 32" fill="none" xmlns="http://www.w3.org/2000/svg">
<path opacity="0.6" d="M12.2677 2.66797H19.7344C20.0288 2.66797 20.2677 2.90637 20.2677 3.2013V5.33464C20.2677 5.62957 20.0288 5.86797 19.7344 5.86797H12.2677C11.9733 5.86797 11.7344 5.62957 11.7344 5.33464V3.2013C11.7344 2.90637 11.9733 2.66797 12.2677 2.66797Z" fill="white"/>
<path d="M26.1341 5.33203H21.3341C21.3341 6.21416 20.6162 6.93203 19.7341 6.93203H12.2674C11.3853 6.93203 10.6674 6.21416 10.6674 5.33203H5.86745C5.27865 5.33203 4.80078 5.8099 4.80078 6.3987V28.2654C4.80078 28.8542 5.27865 29.332 5.86745 29.332H26.1341C26.7229 29.332 27.2008 28.8542 27.2008 28.2654V6.3987C27.2008 5.8099 26.7229 5.33203 26.1341 5.33203ZM24.5341 26.6654H7.46745V8.53203H24.5341V26.6654Z" fill="white"/>
<path d="M10.9331 13.8661C11.964 13.8661 12.7997 13.0304 12.7997 11.9995C12.7997 10.9685 11.964 10.1328 10.9331 10.1328C9.90214 10.1328 9.06641 10.9685 9.06641 11.9995C9.06641 13.0304 9.90214 13.8661 10.9331 13.8661Z" fill="white"/>
<path d="M10.9331 24.5341C11.964 24.5341 12.7997 23.6984 12.7997 22.6674C12.7997 21.6365 11.964 20.8008 10.9331 20.8008C9.90214 20.8008 9.06641 21.6365 9.06641 22.6674C9.06641 23.6984 9.90214 24.5341 10.9331 24.5341Z" fill="white"/>
<path d="M10.9331 19.1982C11.964 19.1982 12.7997 18.3624 12.7997 17.3315C12.7997 16.3006 11.964 15.4648 10.9331 15.4648C9.90214 15.4648 9.06641 16.3006 9.06641 17.3315C9.06641 18.3624 9.90214 19.1982 10.9331 19.1982Z" fill="white"/>
<path d="M21.5982 11.1992C22.0398 11.1992 22.3982 11.5576 22.3982 11.9992C22.3982 12.4408 22.0398 12.7992 21.5982 12.7992H16.2648C15.8227 12.7992 15.4648 12.4408 15.4648 11.9992C15.4648 11.5576 15.8227 11.1992 16.2648 11.1992H21.5982Z" fill="white"/>
<path d="M21.5982 16.5352C22.0398 16.5352 22.3982 16.8936 22.3982 17.3352C22.3982 17.7768 22.0398 18.1352 21.5982 18.1352H16.2648C15.8227 18.1352 15.4648 17.7768 15.4648 17.3352C15.4648 16.8936 15.8227 16.5352 16.2648 16.5352H21.5982Z" fill="white"/>
<path d="M21.5982 21.8672C22.0398 21.8672 22.3982 22.2256 22.3982 22.6672C22.3982 23.1088 22.0398 23.4672 21.5982 23.4672H16.2648C15.8227 23.4672 15.4648 23.1088 15.4648 22.6672C15.4648 22.2256 15.8227 21.8672 16.2648 21.8672H21.5982Z" fill="white"/>
</svg>
