<svg width="32" height="32" viewBox="0 0 32 32" fill="none" xmlns="http://www.w3.org/2000/svg">
<path d="M24.3936 20.9805C24.4789 21.0749 24.5344 21.197 24.5344 21.3346C24.5344 21.6296 24.296 21.868 24.001 21.868C23.857 21.868 23.7269 21.8098 23.6314 21.717L21.1301 18.9384C20.9834 18.7736 20.7717 18.668 20.5344 18.668C20.0928 18.668 19.7344 19.0264 19.7344 19.468C19.7344 19.5917 19.7653 19.708 19.8154 19.813C20.9685 22.2114 21.4165 22.9602 21.6789 24.4957C22.0613 26.7373 23.4677 26.6722 23.4677 29.3346H28.2677V19.7346H23.2768L24.3936 20.9805Z" fill="white"/>
<path opacity="0.6" d="M29.0685 16H18.1352L16.5352 17.3333L18.1352 18.6667H18.8562C19.1565 18.0384 19.7938 17.6 20.5352 17.6C21.4466 17.6 21.8418 18.1333 22.3224 18.6667H29.0685C29.805 18.6667 30.4018 18.0699 30.4018 17.3333C30.4018 16.5968 29.805 16 29.0685 16Z" fill="white"/>
<path d="M27.199 14.932C26.2331 14.3336 24.2272 13.332 23.1398 13.332C22.2971 13.332 21.5094 13.6883 20.2656 14.932H27.199Z" fill="white"/>
<path d="M19.3189 21.2347C18.8789 20.3264 18.7632 20.1824 18.6965 19.7328H17.7472L14.8677 17.3328L17.7472 14.9328H18.7584C19.8832 13.808 20.9307 12.6629 22.368 12.3515L19.1653 2.49708C19.0944 2.28641 18.9003 2.13281 18.6661 2.13281C18.6101 2.13281 18.5579 2.14828 18.5067 2.16535L2.49335 7.50081C2.28481 7.57335 2.13281 7.76641 2.13281 7.99948C2.13281 8.05441 2.14828 8.10401 2.16428 8.15415L9.10081 29.5019C9.17121 29.7125 9.36535 29.8661 9.59948 29.8661C9.65548 29.8661 9.70775 29.8507 9.75895 29.8336L21.0549 26.0693C20.8784 25.6896 20.7227 25.2395 20.6261 24.6731C20.4283 23.5141 20.1259 22.8933 19.3189 21.2347V21.2347ZM5.37335 9.35201L8.48641 8.31521L9.53388 11.5387L6.40855 12.5797L5.37335 9.35201ZM9.83095 18.8624C9.20375 18.5253 9.75841 18.8235 6.63681 17.1467L7.39361 15.7371L9.13708 16.6731L10.7792 13.3888L12.2107 14.1045C9.76535 18.9941 10.1589 18.2075 9.83095 18.8624V18.8624ZM12.5328 9.59948C12.0912 9.59948 11.7328 9.24108 11.7328 8.79948C11.7328 8.44641 11.9632 8.14988 12.2805 8.04375L17.0805 6.44375C17.1605 6.41708 17.2443 6.39948 17.3328 6.39948C17.7744 6.39948 18.1328 6.75788 18.1328 7.19948C18.1328 7.55255 17.9024 7.84908 17.5851 7.95521L12.7851 9.55521C12.7051 9.58188 12.6213 9.59948 12.5328 9.59948V9.59948ZM14.1328 13.3328C13.6912 13.3328 13.3328 12.9744 13.3328 12.5328C13.3328 12.1797 13.5632 11.8832 13.8805 11.7771L18.6805 10.1771C18.7605 10.1504 18.8443 10.1328 18.9328 10.1328C19.3744 10.1328 19.7328 10.4912 19.7328 10.9328C19.7328 11.2859 19.5024 11.5824 19.1851 11.6885L14.3851 13.2885C14.3051 13.3152 14.2213 13.3328 14.1328 13.3328V13.3328Z" fill="white"/>
</svg>
