<svg xmlns="http://www.w3.org/2000/svg" xmlns:xlink="http://www.w3.org/1999/xlink" data-name="Layer 1" viewBox="0 0 686.19 592.15" id="sticky-note"><defs><linearGradient id="d" x1="222.72" x2="408.56" y1="572.89" y2="572.89" gradientUnits="userSpaceOnUse"><stop offset="0" stop-color="#183866"></stop><stop offset="1" stop-color="#1a7fc1"></stop></linearGradient><linearGradient id="a" x1="161.43" x2="195.9" y1="173.05" y2="610.69" gradientUnits="userSpaceOnUse"><stop offset="0" stop-opacity="0"></stop><stop offset=".98"></stop></linearGradient><linearGradient id="e" x1="349.2" x2="239.88" y1="227.46" y2="546.91" xlink:href="#a"></linearGradient><linearGradient id="f" x1="541.48" x2="700.76" y1="126.45" y2="530.27" xlink:href="#a"></linearGradient><linearGradient id="b" x1="554.44" x2="580.42" y1="72.58" y2="503.06" gradientUnits="userSpaceOnUse"><stop offset="0" stop-color="#68e1fd"></stop><stop offset=".09" stop-color="#64d0ec"></stop><stop offset=".52" stop-color="#50819c"></stop><stop offset=".83" stop-color="#445069"></stop><stop offset=".99" stop-color="#3f3d56"></stop></linearGradient><linearGradient id="g" x1="552.9" x2="578.88" y1="72.67" y2="503.15" xlink:href="#b"></linearGradient><linearGradient id="h" x1="551.36" x2="577.34" y1="72.77" y2="503.24" xlink:href="#b"></linearGradient><linearGradient id="i" x1="90.22" x2="116.2" y1="100.59" y2="531.07" xlink:href="#b"></linearGradient><linearGradient id="j" x1="88.68" x2="114.66" y1="100.69" y2="531.17" xlink:href="#b"></linearGradient><linearGradient id="k" x1="87.14" x2="113.12" y1="100.78" y2="531.26" xlink:href="#b"></linearGradient><linearGradient id="l" x1="336.61" x2="362.58" y1="85.72" y2="516.2" xlink:href="#b"></linearGradient><linearGradient id="m" x1="335.07" x2="361.04" y1="85.82" y2="516.3" xlink:href="#b"></linearGradient><linearGradient id="n" x1="333.53" x2="359.5" y1="85.91" y2="516.39" xlink:href="#b"></linearGradient><linearGradient id="o" x1="321.52" x2="91.44" y1="264.77" y2="222.09" xlink:href="#b"></linearGradient><linearGradient id="c" x1="360.25" x2="383.9" y1="215.87" y2="215.87" gradientUnits="userSpaceOnUse"><stop offset="0" stop-color="#ecc4d7"></stop><stop offset=".42" stop-color="#efd4d1"></stop><stop offset="1" stop-color="#f2eac9"></stop></linearGradient><linearGradient id="p" x1="286.95" x2="286.64" y1="367.64" y2="448.59" gradientTransform="rotate(-180 286.85 393.38)" xlink:href="#a"></linearGradient><linearGradient id="q" x1="7283.59" x2="7309.1" y1="271.73" y2="271.26" gradientTransform="matrix(1 0 0 -1 -7000.72 543.28)" xlink:href="#c"></linearGradient><linearGradient id="r" x1="7285.07" x2="7279.81" y1="267.59" y2="270.37" gradientTransform="matrix(-1 0 0 1 7576.04 0)" xlink:href="#c"></linearGradient><linearGradient id="s" x1="313.79" x2="323.91" y1="210.73" y2="210.73" xlink:href="#c"></linearGradient><linearGradient id="t" x1="298.57" x2="417.37" y1="276.56" y2="388.76" xlink:href="#a"></linearGradient></defs><path fill="#68e1fd" d="M192.67 23.07c25.33 6.47 48.89 20.71 75.16 20.62 25.43-.08 48.16-13.53 71.53-22.8C373.58 7.31 411.1 2.34 448.28.54c30.65-1.49 62.73-.63 90 12.49s46.82 37.72 57.89 64.38 14.31 55.52 15.56 84.05c1 24.14.75 48.56 6.55 72.12 8 32.53 27.17 61.58 42.53 91.77 12.29 24.14 22.37 49.73 24.84 76.35s-3.24 54.56-20.08 76.26c-25.2 32.46-70.58 45.92-113.59 49.39-24.11 1.94-49 1.5-71.56 9.56-15.21 5.42-28.57 14.45-43.11 21.26-29 13.59-62 18.09-94.45 19.66a578 578 0 0 1-241.69-40.34c-11.42-4.58-22.86-9.65-32.07-17.4-10.25-8.62-17.18-20.12-22.59-31.92a172.31 172.31 0 0 1-2.64-136.62c13.34-32.32 37-63.43 33.14-97.84-5.79-51.26-57-96.61-35.47-150.86C64.32 45.56 126.1 6.08 192.67 23.07Z" opacity=".18"></path><path fill="url(#d)" d="M234.47 570c-4.56 1.29-9.74 3.14-11.33 7.6-1.45 4.09 1 8.76 4.65 11.14s8.11 3 12.44 3.34c13 1.06 26 .48 39-.09l80.41-3.57c15.73-.69 32.41-1.7 45.32-10.72 2-1.39 4-3.45 3.57-5.82-.35-1.78-2-3-3.59-3.84-14-7.8-31.13-6.33-47.16-7.5-21.15-1.55-42.06-8.21-63.38-7.33-20.25.79-40.4 11.24-59.93 16.79Z" opacity=".19" transform="translate(-68.9 -.51)"></path><path fill="#68e1fd" d="m0 115.93 4.1-1.81h188v134.1s0 21.45-15.56 30.14C170.18 281.93 0 115.93 0 115.93Z"></path><path fill="#68e1fd" d="M189.27 115.93v139.29a27.45 27.45 0 0 1-27.45 27.44H0V115.93Z"></path><path fill="url(#a)" d="M258.17 116.44v139.29a27.45 27.45 0 0 1-27.45 27.44H68.9V116.44Z" transform="translate(-68.9 -.51)" style="isolation:isolate"></path><path fill="#68e1fd" d="M189.27 255.22a27.45 27.45 0 0 1-27.45 27.44h-4.33c9.59-3.09 8.35-20.1 8.35-20.1 17.94 3.09 23.43-7.34 23.43-7.34ZM250.45 156.13h189.26v166.73H250.45z"></path><path fill="url(#e)" style="isolation:isolate" d="M250.45 156.13h189.26v166.73H250.45z"></path><path fill="#68e1fd" d="M464.85 88.72h189.26v166.73H464.85z"></path><path fill="url(#f)" style="isolation:isolate" d="M464.85 88.72h189.26v166.73H464.85z"></path><path fill="#68e1fd" d="m120.47 91.24-26.81 61.48c0-.63 0-1.26-.06-1.88-1.5.56-2.52-1.13-3-2.67-.82-2.44-1.85-5.42-4.21-5.25-1.23.09-2.42 1.08-3.51 2a8.47 8.47 0 0 1-3.47 2.29 1.92 1.92 0 0 1-2.32-2.19l-2.51 1.65c-2.41 1.57-1.26-2.07-1.81-3.28a11 11 0 0 0-3.94 2.48L97.1 81.04ZM313.55 169.27c.57-.25 1.13-.53 1.69-.83-1.13-1.14 0-2.75 1.19-3.86 1.89-1.74 4.18-3.9 3.06-6-.59-1.09-2-1.78-3.31-2.37a8.37 8.37 0 0 1-3.5-2.22 1.91 1.91 0 0 1 1-3c-.85-.53-1.69-1.07-2.53-1.61-2.43-1.55 1.37-2 2.24-3a10.81 10.81 0 0 0-3.87-2.59l65.56-.75a5.34 5.34 0 0 0-1 2.79c0 1.09 1.69 1.85 2.19 2.68a2.49 2.49 0 0 1 .16.33l.27 1.27a4.64 4.64 0 0 1-.84 2.4 12 12 0 0 0-1.84 3.28 6.3 6.3 0 0 0 .81 4.19c1 2 2.54 3.86 4.68 4.45a.79.79 0 0 0 .2 0l.84 4ZM525.51 85.21c.63 0 1.26.07 1.89.07-.45-1.53 1.3-2.42 2.88-2.82 2.49-.63 5.54-1.44 5.55-3.8 0-1.24-.9-2.5-1.79-3.66a8.43 8.43 0 0 1-2-3.62 1.91 1.91 0 0 1 2.34-2.16l-1.46-2.63c-1.39-2.52 2.16-1.1 3.41-1.56a11.13 11.13 0 0 0-2.17-4.12l57.94 30.58a5.35 5.35 0 0 0-2.19 2c-.52.95.62 2.43.65 3.4a1.51 1.51 0 0 1 0 .37l-.34 1.23a4.86 4.86 0 0 1-1.89 1.72 11.54 11.54 0 0 0-3.18 2 6.29 6.29 0 0 0-1.29 4.07c-.07 2.22.39 4.61 2 6.15a.65.65 0 0 0 .16.13l-1.19 3.93Z" opacity=".34"></path><path fill="#fff" d="m120.47 91.24-26.81 61.48c0-.63 0-1.26-.06-1.88-1.5.56-2.52-1.13-3-2.67-.82-2.44-1.85-5.42-4.21-5.25-1.23.09-2.42 1.08-3.51 2a8.47 8.47 0 0 1-3.47 2.29 1.92 1.92 0 0 1-2.32-2.19l-2.51 1.65c-2.41 1.57-1.26-2.07-1.81-3.28a11 11 0 0 0-3.94 2.48L97.1 81.04ZM313.55 169.27c.57-.25 1.13-.53 1.69-.83-1.13-1.14 0-2.75 1.19-3.86 1.89-1.74 4.18-3.9 3.06-6-.59-1.09-2-1.78-3.31-2.37a8.37 8.37 0 0 1-3.5-2.22 1.91 1.91 0 0 1 1-3c-.85-.53-1.69-1.07-2.53-1.61-2.43-1.55 1.37-2 2.24-3a10.81 10.81 0 0 0-3.87-2.59l65.56-.75a5.34 5.34 0 0 0-1 2.79c0 1.09 1.69 1.85 2.19 2.68a2.49 2.49 0 0 1 .16.33l.27 1.27a4.64 4.64 0 0 1-.84 2.4 12 12 0 0 0-1.84 3.28 6.3 6.3 0 0 0 .81 4.19c1 2 2.54 3.86 4.68 4.45a.79.79 0 0 0 .2 0l.84 4ZM525.51 85.21c.63 0 1.26.07 1.89.07-.45-1.53 1.3-2.42 2.88-2.82 2.49-.63 5.54-1.44 5.55-3.8 0-1.24-.9-2.5-1.79-3.66a8.43 8.43 0 0 1-2-3.62 1.91 1.91 0 0 1 2.34-2.16l-1.46-2.63c-1.39-2.52 2.16-1.1 3.41-1.56a11.13 11.13 0 0 0-2.17-4.12l57.94 30.58a5.35 5.35 0 0 0-2.19 2c-.52.95.62 2.43.65 3.4a1.51 1.51 0 0 1 0 .37l-.34 1.23a4.86 4.86 0 0 1-1.89 1.72 11.54 11.54 0 0 0-3.18 2 6.29 6.29 0 0 0-1.29 4.07c-.07 2.22.39 4.61 2 6.15a.65.65 0 0 0 .16.13l-1.19 3.93Z" opacity=".34"></path><path fill="url(#b)" style="isolation:isolate" d="M495 154.43h128.96v3.41H495z"></path><path fill="url(#g)" style="isolation:isolate" d="M495 180.02h128.96v3.41H495z"></path><path fill="url(#h)" style="isolation:isolate" d="M495 205.62h128.96v3.41H495z"></path><path fill="url(#i)" style="isolation:isolate" d="M47.28 171.99h94.7v3.41h-94.7z"></path><path fill="url(#j)" style="isolation:isolate" d="M47.28 197.59h94.7V201h-94.7z"></path><path fill="url(#k)" style="isolation:isolate" d="M47.28 223.19h94.7v3.41h-94.7z"></path><path fill="url(#l)" style="isolation:isolate" d="M296.21 199.3h94.7v3.41h-94.7z"></path><path fill="url(#m)" style="isolation:isolate" d="M296.21 224.9h94.7v3.41h-94.7z"></path><path fill="url(#n)" style="isolation:isolate" d="M296.21 250.49h94.7v3.41h-94.7z"></path><path fill="#68e1fd" d="M189.27 296.04s34.06-59.35 46-78.13l7.66-9.28 7.51 12.77.17 10.28-31.42 59.21s-22.46 20.5-29.92 5.15Z"></path><path fill="url(#o)" style="isolation:isolate" d="m250.95 210.16-37.45 76.09 26.79-34.05 10.35-20.52.31-21.52z"></path><path fill="url(#c)" d="M363.83 206.12a10.25 10.25 0 0 1 1.93 6.79c4.56-3.74 4.63-11.6 9.82-14.41a25.56 25.56 0 0 1-1.57 8.83c1.65-3.4 3.68-7.15 7.31-8.23a24.09 24.09 0 0 1-4.13 10.77l4.73-4.78c.42-.43 1-.9 1.57-.61s.42 1.28.11 1.94l-5.22 11.16a28.48 28.48 0 0 1 5.35-3.4l-5.73 9.44a16.67 16.67 0 0 1-2.38 3.31c-2.13 2.14-5.52 3.39-6.25 6.32.16-.63-8.24-3.31-8.83-4.22-1-1.57.84-4.87 1.05-6.75.6-5.28-.84-11.38 2.24-16.16Z" transform="translate(-68.9 -.51)"></path><path fill="#3f3d56" d="m244.87 397.35 11.54 84.06a22.47 22.47 0 0 1-1.08 10.51l-12.81 59.18-19.86-2.14 9.09-60.47a8.56 8.56 0 0 0-.23-3.73l-15.66-54-2.95 61.16-25.67 52-18-7.2 22.81-46.7-3.67-57.76c-3.25-20.1 2.69-34.94 2.69-34.94Z"></path><path fill="#68e1fd" d="M244.87 397.35h-53.84v-8.95h53.84z"></path><path fill="url(#p)" d="M259.93 388.9h53.84v8.95h-53.84z" transform="rotate(180 252.4 393.125)" style="isolation:isolate"></path><path fill="#68e1fd" d="m304.04 234.6-50.65 83.66-2.64 62.79c0 6-.24 11-4.7 12.37a9.2 9.2 0 0 1-2.67.35h-44.85a12.81 12.81 0 0 1-12.82-12.81v-57.68s-3.3-32.71 12.22-32.71h31.08a24.53 24.53 0 0 0 19.27-9.33l41.46-54.63Z"></path><path fill="url(#q)" d="M279.89 251.89h15.54v39.51h-15.54z" transform="rotate(180 253.205 271.385)"></path><path fill="url(#r)" d="M279.89 247.56v43.84h8.2v-2.67a5.92 5.92 0 0 1 5.92-5.92h.47a14.72 14.72 0 0 0 14.72-14.72v-20.53Z" transform="translate(-68.9 -.51)"></path><path fill="url(#s)" d="M315.28 209.22c.31-.65.54-1.33.88-2a14 14 0 0 1 2.6-3.21l3.24-3.3a1.61 1.61 0 0 1 .88-.56c.67-.08 1.14.74 1 1.4a4.11 4.11 0 0 1-1.05 1.68 15 15 0 0 0-3 7.41 63.77 63.77 0 0 0-.37 8.07 4.86 4.86 0 0 1-.52 2.56 73.23 73.23 0 0 0-3.38-6.53c-.43-.72-1.74-2.13-1.78-2.94s1.22-1.87 1.5-2.58Z" transform="translate(-68.9 -.51)"></path><path fill="#3f3d56" d="M241.71 240.15a11 11 0 0 0-5.07-7.4v2.2c-5.81-2.81-12.76-.6-19.13-1.65a9.17 9.17 0 0 1 1.76 2.64 26.86 26.86 0 0 0-12 2.83c.34.49.68 1 1 1.46a1.06 1.06 0 0 1 .23.52c0 .39-.37.65-.68.89-1.8 1.37-2 4-1.9 6.26.33 6.84 2.1 13.51 3.86 20.13.67 2.51 1.33 5 2 7.53l1.4-1.93 1.33.93c1.82-2.82 9.76-3.41 10.48-6.69-2-.46-4.39-3.17-4.17-5.22s.88-2.51 2.83-1.85c1.36.45-.87-2.33-1.11-3.46s-.75-2.28-.19-3.25c.77-1.35 2.78-1 4.22-.44a8.77 8.77 0 0 1 8.74-5.86c2 .15 3.93 1.36 5.25-.54s1.54-4.9 1.15-7.1Z"></path><path fill="url(#t)" d="m372.94 235.11-50.65 83.66-2.64 62.79c0 6 .11 11.82-6.18 12.72H305s7.12-71.8 5.81-78.76 58.6-82.28 58.6-82.28Z" transform="translate(-68.9 -.51)" style="isolation:isolate"></path><path fill="#3f3d56" d="m226.02 549.32-3.47 15h45s.47-7.42-8.81-10a36.11 36.11 0 0 0-17.16-.47l-1.19-3ZM172.87 538.21l-7.92 12 9.28 5.41 2.93-1.54 6.65 6.8 23.35.77s-1.54-11.68-12.37-11.71-9.87-6.9-9.87-6.9Z"></path></svg>