<svg width="36" height="36" viewBox="0 0 36 36" fill="none" xmlns="http://www.w3.org/2000/svg">
<g clip-path="url(#clip0_5044_56384)">
<path d="M20 6.042C20 7.154 19.097 8.056 18 8.056C16.903 8.056 16 7.154 16 6.042V2.014C16 0.901 16.903 0 18 0C19.097 0 20 0.901 20 2.014V6.042Z" fill="#FFCC4D"/>
<path d="M9.18189 35.9996C8.95789 35.9996 8.72989 35.9476 8.51589 35.8406C7.77989 35.4666 7.48089 34.5606 7.84889 33.8136L16.7889 15.6866C17.0409 15.1746 17.5569 14.8516 18.1219 14.8516C18.6869 14.8516 19.2029 15.1746 19.4549 15.6866L28.3959 33.8136C28.7639 34.5606 28.4659 35.4666 27.7299 35.8406C26.9939 36.2126 26.0989 35.9106 25.7309 35.1646L18.1229 19.7396L10.5159 35.1646C10.2539 35.6936 9.72789 35.9996 9.18189 35.9996Z" fill="#FFAC33"/>
<path d="M18.1227 20.395C17.8597 20.395 17.6067 20.289 17.4207 20.1L3.51366 6.001C3.12566 5.607 3.12566 4.97 3.51366 4.577C3.90166 4.184 4.53066 4.184 4.91766 4.577L18.1227 17.963L31.3257 4.576C31.7147 4.183 32.3427 4.183 32.7307 4.576C33.1187 4.97 33.1187 5.607 32.7307 6L18.8257 20.1C18.6387 20.288 18.3867 20.395 18.1227 20.395Z" fill="#58595B"/>
<path d="M34.0136 19.3864C34.0136 28.2844 26.8986 35.4974 18.1196 35.4974C9.34256 35.4974 2.22656 28.2844 2.22656 19.3864C2.22656 10.4864 9.34256 3.27344 18.1196 3.27344C26.8976 3.27244 34.0136 10.4864 34.0136 19.3864Z" fill="#DD2E44"/>
<path d="M30.0421 19.3819C30.0421 26.0559 24.7071 31.4659 18.1221 31.4659C11.5391 31.4659 6.20312 26.0559 6.20312 19.3819C6.20312 12.7069 11.5391 7.29688 18.1221 7.29688C24.7071 7.29588 30.0421 12.7069 30.0421 19.3819Z" fill="#E6E7E8"/>
<path d="M30.04 1.25781C28.394 1.25781 26.905 1.93381 25.826 3.02781L34.255 11.5718C35.333 10.4788 36 8.96881 36 7.29981C36 3.96381 33.331 1.25781 30.04 1.25781ZM5.96 1.25781C7.605 1.25781 9.095 1.93381 10.174 3.02781L1.745 11.5718C0.667 10.4788 0 8.96881 0 7.29981C0 3.96381 2.668 1.25781 5.96 1.25781Z" fill="#FFCC4D"/>
<path d="M23 20H18C17.448 20 17 19.553 17 19V10C17 9.448 17.448 9 18 9C18.552 9 19 9.448 19 10V18H23C23.553 18 24 18.448 24 19C24 19.553 23.553 20 23 20Z" fill="#414042"/>
</g>
<defs>
<clipPath id="clip0_5044_56384">
<rect width="36" height="36" fill="white"/>
</clipPath>
</defs>
</svg>
