<svg width="30" height="30" viewBox="0 0 30 30" fill="none" xmlns="http://www.w3.org/2000/svg">
<path d="M16.875 7.96875V0H5.15625C4.37695 0 3.75 0.626953 3.75 1.40625V28.5938C3.75 29.373 4.37695 30 5.15625 30H24.8438C25.623 30 26.25 29.373 26.25 28.5938V9.375H18.2812C17.5078 9.375 16.875 8.74219 16.875 7.96875ZM7.5 4.21875C7.5 3.95977 7.70977 3.75 7.96875 3.75H12.6562C12.9152 3.75 13.125 3.95977 13.125 4.21875V5.15625C13.125 5.41523 12.9152 5.625 12.6562 5.625H7.96875C7.70977 5.625 7.5 5.41523 7.5 5.15625V4.21875ZM7.5 7.96875C7.5 7.70977 7.70977 7.5 7.96875 7.5H12.6562C12.9152 7.5 13.125 7.70977 13.125 7.96875V8.90625C13.125 9.16523 12.9152 9.375 12.6562 9.375H7.96875C7.70977 9.375 7.5 9.16523 7.5 8.90625V7.96875Z" fill="#0A77DB"/>
<path opacity="0.6" d="M20.1035 0.410156L25.8398 6.15234C26.1035 6.41602 26.25 6.77344 26.25 7.14258V7.5H18.75V0H19.1074C19.4824 0 19.8398 0.146484 20.1035 0.410156Z" fill="#0A77DB"/>
<path d="M8.73438 20.9639H6.90332V19.9092H8.73438C9.03386 19.9092 9.27637 19.8604 9.46191 19.7627C9.65072 19.6618 9.78906 19.5251 9.87695 19.3525C9.96484 19.1768 10.0088 18.9766 10.0088 18.752C10.0088 18.5339 9.96484 18.3304 9.87695 18.1416C9.78906 17.9528 9.65072 17.7998 9.46191 17.6826C9.27637 17.5654 9.03386 17.5068 8.73438 17.5068H7.34277V23.5566H6V16.4473H8.73438C9.28776 16.4473 9.75977 16.5465 10.1504 16.7451C10.5443 16.9404 10.8437 17.2122 11.0488 17.5606C11.2572 17.9056 11.3613 18.2995 11.3613 18.7422C11.3613 19.2012 11.2572 19.5967 11.0488 19.9287C10.8437 20.2607 10.5443 20.5163 10.1504 20.6953C9.75977 20.8744 9.28776 20.9639 8.73438 20.9639ZM16.5762 21.2178H17.919C17.8831 21.693 17.7513 22.1146 17.5234 22.4824C17.2956 22.847 16.9782 23.1335 16.5713 23.3418C16.1644 23.5501 15.6712 23.6543 15.0918 23.6543C14.6458 23.6543 14.2438 23.5762 13.8857 23.4199C13.5309 23.2604 13.2266 23.0342 12.9727 22.7412C12.722 22.445 12.5299 22.0902 12.3965 21.6768C12.263 21.2601 12.1963 20.793 12.1963 20.2754V19.7334C12.1963 19.2158 12.2646 18.7487 12.4014 18.332C12.5381 17.9154 12.7334 17.5606 12.9873 17.2676C13.2445 16.9714 13.5521 16.7435 13.9102 16.584C14.2715 16.4245 14.6751 16.3447 15.1211 16.3447C15.7005 16.3447 16.1904 16.4521 16.5908 16.667C16.9912 16.8786 17.3021 17.1699 17.5234 17.541C17.7448 17.9121 17.8783 18.3385 17.9238 18.8203H16.5811C16.555 18.5208 16.4899 18.2669 16.3858 18.0586C16.2848 17.8503 16.1318 17.6924 15.9268 17.585C15.7249 17.4743 15.4564 17.4189 15.1211 17.4189C14.8607 17.4189 14.6312 17.4678 14.4326 17.5654C14.2373 17.6631 14.0745 17.8096 13.9443 18.0049C13.8141 18.1969 13.7165 18.4378 13.6514 18.7275C13.5863 19.014 13.5537 19.346 13.5537 19.7236V20.2754C13.5537 20.6367 13.583 20.9606 13.6416 21.2471C13.7002 21.5335 13.7913 21.776 13.915 21.9746C14.0387 22.1732 14.1982 22.3245 14.3936 22.4287C14.5889 22.5329 14.8216 22.585 15.0918 22.585C15.4206 22.585 15.6875 22.5329 15.8926 22.4287C16.1009 22.3245 16.2588 22.1716 16.3662 21.9697C16.4769 21.7679 16.5469 21.5173 16.5762 21.2178Z" fill="white"/>
</svg>
