<svg width="30" height="30" viewBox="0 0 30 30" fill="none" xmlns="http://www.w3.org/2000/svg">
<path d="M16.875 7.96875V0H5.15625C4.37695 0 3.75 0.626953 3.75 1.40625V28.5938C3.75 29.373 4.37695 30 5.15625 30H24.8438C25.623 30 26.25 29.373 26.25 28.5938V9.375H18.2812C17.5078 9.375 16.875 8.74219 16.875 7.96875ZM7.5 4.21875C7.5 3.95977 7.70977 3.75 7.96875 3.75H12.6562C12.9152 3.75 13.125 3.95977 13.125 4.21875V5.15625C13.125 5.41523 12.9152 5.625 12.6562 5.625H7.96875C7.70977 5.625 7.5 5.41523 7.5 5.15625V4.21875ZM7.5 7.96875C7.5 7.70977 7.70977 7.5 7.96875 7.5H12.6562C12.9152 7.5 13.125 7.70977 13.125 7.96875V8.90625C13.125 9.16523 12.9152 9.375 12.6562 9.375H7.96875C7.70977 9.375 7.5 9.16523 7.5 8.90625V7.96875Z" fill="#0A77DB"/>
<path opacity="0.6" d="M20.1035 0.410156L25.8398 6.15234C26.1035 6.41602 26.25 6.77344 26.25 7.14258V7.5H18.75V0H19.1074C19.4824 0 19.8398 0.146484 20.1035 0.410156Z" fill="#0A77DB"/>
<path d="M8.12402 23.5566H6.59082L6.60059 22.502H8.12402C8.53744 22.502 8.88412 22.4108 9.16406 22.2285C9.44401 22.043 9.6556 21.7777 9.79883 21.4326C9.94206 21.0843 10.0137 20.6676 10.0137 20.1826V19.8164C10.0137 19.4421 9.97298 19.1117 9.8916 18.8252C9.81022 18.5387 9.68978 18.2979 9.53027 18.1025C9.37402 17.9072 9.18034 17.7591 8.94922 17.6582C8.7181 17.5573 8.4528 17.5068 8.15332 17.5068H6.56152V16.4473H8.15332C8.62858 16.4473 9.06152 16.527 9.45215 16.6865C9.84603 16.846 10.1862 17.0755 10.4727 17.375C10.7624 17.6712 10.9837 18.026 11.1367 18.4395C11.293 18.8529 11.3711 19.3151 11.3711 19.8262V20.1826C11.3711 20.6904 11.293 21.1527 11.1367 21.5693C10.9837 21.9828 10.7624 22.3376 10.4727 22.6338C10.1862 22.93 9.8444 23.1579 9.44727 23.3174C9.05013 23.4769 8.60905 23.5566 8.12402 23.5566ZM7.34277 16.4473V23.5566H6V16.4473H7.34277ZM16.6738 21.2178H18.0166C17.9808 21.693 17.849 22.1146 17.6211 22.4824C17.3932 22.847 17.0759 23.1335 16.669 23.3418C16.2621 23.5501 15.7689 23.6543 15.1894 23.6543C14.7435 23.6543 14.3415 23.5762 13.9834 23.4199C13.6286 23.2604 13.3242 23.0342 13.0703 22.7412C12.8197 22.445 12.6276 22.0902 12.4941 21.6768C12.3607 21.2601 12.2939 20.793 12.2939 20.2754V19.7334C12.2939 19.2158 12.3623 18.7487 12.499 18.332C12.6357 17.9154 12.8311 17.5606 13.085 17.2676C13.3421 16.9714 13.6497 16.7435 14.0078 16.584C14.3691 16.4245 14.7728 16.3447 15.2187 16.3447C15.7982 16.3447 16.2881 16.4521 16.6885 16.667C17.0889 16.8786 17.3998 17.1699 17.6211 17.541C17.8425 17.9121 17.9759 18.3385 18.0215 18.8203H16.6787C16.6527 18.5208 16.5876 18.2669 16.4834 18.0586C16.3825 17.8503 16.2295 17.6924 16.0244 17.585C15.8226 17.4743 15.554 17.4189 15.2187 17.4189C14.9583 17.4189 14.7288 17.4678 14.5303 17.5654C14.335 17.6631 14.1722 17.8096 14.042 18.0049C13.9118 18.1969 13.8141 18.4378 13.749 18.7275C13.6839 19.014 13.6514 19.346 13.6514 19.7236V20.2754C13.6514 20.6367 13.6807 20.9606 13.7393 21.2471C13.7978 21.5335 13.889 21.776 14.0127 21.9746C14.1364 22.1732 14.2959 22.3245 14.4912 22.4287C14.6865 22.5329 14.9193 22.585 15.1894 22.585C15.5182 22.585 15.7852 22.5329 15.9902 22.4287C16.1986 22.3245 16.3565 22.1716 16.4639 21.9697C16.5746 21.7679 16.6445 21.5173 16.6738 21.2178ZM20.3994 16.4473V23.5566H19.0567V16.4473H20.3994ZM24.667 16.4473L21.8154 19.9141L20.1846 21.6572L19.9453 20.3535L21.0781 18.8838L23.0215 16.4473H24.667ZM23.1729 23.5566L20.9609 20.2266L21.9229 19.3574L24.7695 23.5566H23.1729Z" fill="white"/>
</svg>
