<svg width="30" height="30" viewBox="0 0 30 30" fill="none" xmlns="http://www.w3.org/2000/svg">
<path d="M16.875 7.96875V0H5.15625C4.37695 0 3.75 0.626953 3.75 1.40625V28.5938C3.75 29.373 4.37695 30 5.15625 30H24.8438C25.623 30 26.25 29.373 26.25 28.5938V9.375H18.2812C17.5078 9.375 16.875 8.74219 16.875 7.96875ZM7.5 4.21875C7.5 3.95977 7.70977 3.75 7.96875 3.75H12.6562C12.9152 3.75 13.125 3.95977 13.125 4.21875V5.15625C13.125 5.41523 12.9152 5.625 12.6562 5.625H7.96875C7.70977 5.625 7.5 5.41523 7.5 5.15625V4.21875ZM7.5 7.96875C7.5 7.70977 7.70977 7.5 7.96875 7.5H12.6562C12.9152 7.5 13.125 7.70977 13.125 7.96875V8.90625C13.125 9.16523 12.9152 9.375 12.6562 9.375H7.96875C7.70977 9.375 7.5 9.16523 7.5 8.90625V7.96875Z" fill="#0A77DB"/>
<path opacity="0.6" d="M20.1035 0.410156L25.8398 6.15234C26.1035 6.41602 26.25 6.77344 26.25 7.14258V7.5H18.75V0H19.1074C19.4824 0 19.8398 0.146484 20.1035 0.410156Z" fill="#0A77DB"/>
<path d="M11.7129 16.4473V23.5566H10.3652L7.34277 18.625V23.5566H6V16.4473H7.34277L10.375 21.3838V16.4473H11.7129ZM14.4228 16.4473V23.5566H13.0801V16.4473H14.4228ZM18.6904 16.4473L15.8389 19.9141L14.208 21.6572L13.9687 20.3535L15.1016 18.8838L17.0449 16.4473H18.6904ZM17.1963 23.5566L14.9844 20.2266L15.9463 19.3574L18.793 23.5566H17.1963ZM23.4219 21.2178H24.7647C24.7289 21.693 24.597 22.1146 24.3692 22.4824C24.1413 22.847 23.8239 23.1335 23.417 23.3418C23.0101 23.5501 22.5169 23.6543 21.9375 23.6543C21.4915 23.6543 21.0895 23.5762 20.7315 23.4199C20.3766 23.2604 20.0723 23.0342 19.8184 22.7412C19.5677 22.445 19.3757 22.0902 19.2422 21.6768C19.1087 21.2601 19.042 20.793 19.042 20.2754V19.7334C19.042 19.2158 19.1104 18.7487 19.2471 18.332C19.3838 17.9154 19.5791 17.5606 19.833 17.2676C20.0902 16.9714 20.3978 16.7435 20.7559 16.584C21.1172 16.4245 21.5208 16.3447 21.9668 16.3447C22.5462 16.3447 23.0361 16.4521 23.4365 16.667C23.8369 16.8786 24.1478 17.1699 24.3692 17.541C24.5905 17.9121 24.724 18.3385 24.7695 18.8203H23.4268C23.4007 18.5208 23.3356 18.2669 23.2315 18.0586C23.1305 17.8503 22.9775 17.6924 22.7725 17.585C22.5706 17.4743 22.3021 17.4189 21.9668 17.4189C21.7064 17.4189 21.4769 17.4678 21.2783 17.5654C21.083 17.6631 20.9203 17.8096 20.7901 18.0049C20.6598 18.1969 20.5622 18.4378 20.4971 18.7275C20.432 19.014 20.3994 19.346 20.3994 19.7236V20.2754C20.3994 20.6367 20.4287 20.9606 20.4873 21.2471C20.5459 21.5335 20.6371 21.776 20.7608 21.9746C20.8845 22.1732 21.044 22.3245 21.2393 22.4287C21.4346 22.5329 21.6673 22.585 21.9375 22.585C22.2663 22.585 22.5332 22.5329 22.7383 22.4287C22.9466 22.3245 23.1045 22.1716 23.2119 21.9697C23.3226 21.7679 23.3926 21.5173 23.4219 21.2178Z" fill="white"/>
</svg>
