<svg width="30" height="30" viewBox="0 0 30 30" fill="none" xmlns="http://www.w3.org/2000/svg">
<path d="M16.875 7.96875V0H5.15625C4.37695 0 3.75 0.626953 3.75 1.40625V28.5938C3.75 29.373 4.37695 30 5.15625 30H24.8438C25.623 30 26.25 29.373 26.25 28.5938V9.375H18.2812C17.5078 9.375 16.875 8.74219 16.875 7.96875ZM7.5 4.21875C7.5 3.95977 7.70977 3.75 7.96875 3.75H12.6562C12.9152 3.75 13.125 3.95977 13.125 4.21875V5.15625C13.125 5.41523 12.9152 5.625 12.6562 5.625H7.96875C7.70977 5.625 7.5 5.41523 7.5 5.15625V4.21875ZM7.5 7.96875C7.5 7.70977 7.70977 7.5 7.96875 7.5H12.6562C12.9152 7.5 13.125 7.70977 13.125 7.96875V8.90625C13.125 9.16523 12.9152 9.375 12.6562 9.375H7.96875C7.70977 9.375 7.5 9.16523 7.5 8.90625V7.96875Z" fill="#0A77DB"/>
<path opacity="0.6" d="M20.1035 0.410156L25.8398 6.15234C26.1035 6.41602 26.25 6.77344 26.25 7.14258V7.5H18.75V0H19.1074C19.4824 0 19.8398 0.146484 20.1035 0.410156Z" fill="#0A77DB"/>
<path d="M8.72461 20.3857H6.9082L6.89844 19.4385H8.45606C8.72298 19.4385 8.94596 19.401 9.125 19.3262C9.30404 19.2513 9.43913 19.1423 9.53027 18.999C9.62468 18.8558 9.67188 18.6816 9.67188 18.4766C9.67188 18.2487 9.62793 18.0631 9.54004 17.9199C9.4554 17.7767 9.32194 17.6725 9.13965 17.6074C8.95736 17.5391 8.72624 17.5049 8.44629 17.5049H7.34277V23.5547H6V16.4453H8.44629C8.84994 16.4453 9.20964 16.4844 9.52539 16.5625C9.8444 16.6374 10.1146 16.7546 10.3359 16.9141C10.5573 17.0736 10.7249 17.2738 10.8389 17.5146C10.9561 17.7555 11.0146 18.042 11.0146 18.374C11.0146 18.667 10.9463 18.9372 10.8096 19.1846C10.6761 19.4287 10.4694 19.6273 10.1894 19.7803C9.91276 19.9333 9.5612 20.0212 9.13477 20.0439L8.72461 20.3857ZM8.66602 23.5547H6.5127L7.07422 22.5H8.66602C8.93294 22.5 9.15267 22.4561 9.3252 22.3682C9.50098 22.2803 9.63119 22.1598 9.71582 22.0068C9.80371 21.8506 9.84766 21.6715 9.84766 21.4697C9.84766 21.2484 9.80859 21.0563 9.73047 20.8936C9.6556 20.7308 9.53516 20.6055 9.36914 20.5176C9.20638 20.4297 8.99154 20.3857 8.72461 20.3857H7.32813L7.33789 19.4385H9.11524L9.42285 19.8047C9.83301 19.8079 10.1667 19.8893 10.4238 20.0488C10.6842 20.2083 10.8763 20.4134 11 20.6641C11.1237 20.9147 11.1855 21.1849 11.1855 21.4746C11.1855 21.9303 11.0863 22.3128 10.8877 22.6221C10.6924 22.9313 10.4059 23.1641 10.0283 23.3203C9.65397 23.4766 9.19987 23.5547 8.66602 23.5547ZM17.0645 19.3799V20.4346H13.3242V19.3799H17.0645ZM13.6904 16.4453V23.5547H12.3477V16.4453H13.6904ZM18.0606 16.4453V23.5547H16.7178V16.4453H18.0606Z" fill="white"/>
</svg>
