<svg width="30" height="30" viewBox="0 0 30 30" fill="none" xmlns="http://www.w3.org/2000/svg">
<path d="M16.875 7.96875V0H5.15625C4.37695 0 3.75 0.626953 3.75 1.40625V28.5938C3.75 29.373 4.37695 30 5.15625 30H24.8438C25.623 30 26.25 29.373 26.25 28.5938V9.375H18.2812C17.5078 9.375 16.875 8.74219 16.875 7.96875ZM7.5 4.21875C7.5 3.95977 7.70977 3.75 7.96875 3.75H12.6562C12.9152 3.75 13.125 3.95977 13.125 4.21875V5.15625C13.125 5.41523 12.9152 5.625 12.6562 5.625H7.96875C7.70977 5.625 7.5 5.41523 7.5 5.15625V4.21875ZM7.5 7.96875C7.5 7.70977 7.70977 7.5 7.96875 7.5H12.6562C12.9152 7.5 13.125 7.70977 13.125 7.96875V8.90625C13.125 9.16523 12.9152 9.375 12.6562 9.375H7.96875C7.70977 9.375 7.5 9.16523 7.5 8.90625V7.96875Z" fill="#0A77DB"/>
<path opacity="0.6" d="M20.1035 0.410156L25.8398 6.15234C26.1035 6.41602 26.25 6.77344 26.25 7.14258V7.5H18.75V0H19.1074C19.4824 0 19.8398 0.146484 20.1035 0.410156Z" fill="#0A77DB"/>
<path d="M9.85454 16.4473H11.1363V21.1689C11.1363 21.7126 11.0244 22.1699 10.8007 22.541C10.577 22.9089 10.2725 23.1872 9.88716 23.376C9.50186 23.5615 9.06374 23.6543 8.5728 23.6543C8.07564 23.6543 7.63286 23.5615 7.24445 23.376C6.85604 23.1872 6.55153 22.9089 6.33092 22.541C6.11031 22.1699 6 21.7126 6 21.1689V16.4473H7.28174V21.1689C7.28174 21.501 7.33457 21.7728 7.44021 21.9844C7.54585 22.1927 7.695 22.3473 7.88765 22.4482C8.0803 22.5492 8.30868 22.5996 8.5728 22.5996C8.84002 22.5996 9.0684 22.5492 9.25795 22.4482C9.45059 22.3473 9.59818 22.1927 9.70073 21.9844C9.80327 21.7728 9.85454 21.501 9.85454 21.1689V16.4473ZM17.806 16.4473V23.5566H16.5196L13.6345 18.625V23.5566H12.3528V16.4473H13.6345L16.5289 21.3838V16.4473H17.806ZM23.0821 21.2178H24.3638C24.3297 21.693 24.2038 22.1146 23.9863 22.4824C23.7688 22.847 23.4658 23.1335 23.0774 23.3418C22.689 23.5501 22.2183 23.6543 21.6651 23.6543C21.2395 23.6543 20.8558 23.5762 20.514 23.4199C20.1753 23.2604 19.8847 23.0342 19.6424 22.7412C19.4031 22.445 19.2198 22.0902 19.0924 21.6768C18.965 21.2601 18.9013 20.793 18.9013 20.2754V19.7334C18.9013 19.2158 18.9665 18.7487 19.097 18.332C19.2275 17.9154 19.4139 17.5606 19.6563 17.2676C19.9018 16.9714 20.1954 16.7435 20.5372 16.584C20.8821 16.4245 21.2675 16.3447 21.6931 16.3447C22.2463 16.3447 22.7139 16.4521 23.0961 16.667C23.4782 16.8786 23.775 17.1699 23.9863 17.541C24.1975 17.9121 24.325 18.3385 24.3685 18.8203H23.0867C23.0619 18.5208 22.9997 18.2669 22.9003 18.0586C22.804 17.8503 22.658 17.6924 22.4622 17.585C22.2696 17.4743 22.0132 17.4189 21.6931 17.4189C21.4445 17.4189 21.2255 17.4678 21.036 17.5654C20.8495 17.6631 20.6942 17.8096 20.5699 18.0049C20.4456 18.1969 20.3524 18.4378 20.2902 18.7275C20.2281 19.014 20.197 19.346 20.197 19.7236V20.2754C20.197 20.6367 20.2249 20.9606 20.2809 21.2471C20.3368 21.5335 20.4238 21.776 20.5419 21.9746C20.66 22.1732 20.8123 22.3245 20.9987 22.4287C21.1851 22.5329 21.4073 22.585 21.6651 22.585C21.979 22.585 22.2338 22.5329 22.4295 22.4287C22.6285 22.3245 22.7791 22.1716 22.8816 21.9697C22.9873 21.7679 23.0541 21.5173 23.0821 21.2178Z" fill="white"/>
</svg>
