<svg width="30" height="31" viewBox="0 0 30 31" fill="none" xmlns="http://www.w3.org/2000/svg">
<g clip-path="url(#clip0_9243_63362)">
<path d="M16.875 8.19922V0.230469H5.15625C4.37695 0.230469 3.75 0.857422 3.75 1.63672V28.8242C3.75 29.6035 4.37695 30.2305 5.15625 30.2305H24.8438C25.623 30.2305 26.25 29.6035 26.25 28.8242V9.60547H18.2812C17.5078 9.60547 16.875 8.97266 16.875 8.19922ZM7.5 4.44922C7.5 4.19023 7.70977 3.98047 7.96875 3.98047H12.6562C12.9152 3.98047 13.125 4.19023 13.125 4.44922V5.38672C13.125 5.6457 12.9152 5.85547 12.6562 5.85547H7.96875C7.70977 5.85547 7.5 5.6457 7.5 5.38672V4.44922ZM7.5 8.19922C7.5 7.94023 7.70977 7.73047 7.96875 7.73047H12.6562C12.9152 7.73047 13.125 7.94023 13.125 8.19922V9.13672C13.125 9.3957 12.9152 9.60547 12.6562 9.60547H7.96875C7.70977 9.60547 7.5 9.3957 7.5 9.13672V8.19922Z" fill="#0A77DB"/>
<path opacity="0.6" d="M20.1035 0.640625L25.8398 6.38281C26.1035 6.64648 26.25 7.00391 26.25 7.37305V7.73047H18.75V0.230469H19.1074C19.4824 0.230469 19.8398 0.376953 20.1035 0.640625Z" fill="#0A77DB"/>
<path d="M11.0957 22.8887H8.89844V21.6231H11.0957C11.4551 21.6231 11.7461 21.5644 11.9688 21.4473C12.1953 21.3262 12.3613 21.1621 12.4668 20.9551C12.5723 20.7441 12.625 20.5039 12.625 20.2344C12.625 19.9727 12.5723 19.7285 12.4668 19.502C12.3613 19.2754 12.1953 19.0918 11.9688 18.9512C11.7461 18.8105 11.4551 18.7402 11.0957 18.7402H9.42578V26H7.81445V17.4688H11.0957C11.7598 17.4688 12.3262 17.5879 12.7949 17.8262C13.2676 18.0605 13.627 18.3867 13.8731 18.8047C14.1231 19.2188 14.2481 19.6914 14.2481 20.2227C14.2481 20.7734 14.1231 21.2481 13.8731 21.6465C13.627 22.0449 13.2676 22.3516 12.7949 22.5664C12.3262 22.7813 11.7598 22.8887 11.0957 22.8887ZM19.1758 17.4688V26H17.5703V17.4688H19.1758ZM21.8242 17.4688V18.7402H14.9512V17.4688H21.8242Z" fill="white"/>
</g>
<defs>
<clipPath id="clip0_9243_63362">
<rect width="30" height="30" fill="white" transform="translate(0 0.230469)"/>
</clipPath>
</defs>
</svg>
