<svg width="30" height="30" viewBox="0 0 30 30" fill="none" xmlns="http://www.w3.org/2000/svg">
<path d="M16.875 7.96875V0H5.15625C4.37695 0 3.75 0.626953 3.75 1.40625V28.5938C3.75 29.373 4.37695 30 5.15625 30H24.8438C25.623 30 26.25 29.373 26.25 28.5938V9.375H18.2812C17.5078 9.375 16.875 8.74219 16.875 7.96875ZM7.5 4.21875C7.5 3.95977 7.70977 3.75 7.96875 3.75H12.6562C12.9152 3.75 13.125 3.95977 13.125 4.21875V5.15625C13.125 5.41523 12.9152 5.625 12.6562 5.625H7.96875C7.70977 5.625 7.5 5.41523 7.5 5.15625V4.21875ZM7.5 7.96875C7.5 7.70977 7.70977 7.5 7.96875 7.5H12.6562C12.9152 7.5 13.125 7.70977 13.125 7.96875V8.90625C13.125 9.16523 12.9152 9.375 12.6562 9.375H7.96875C7.70977 9.375 7.5 9.16523 7.5 8.90625V7.96875Z" fill="#0A77DB"/>
<path opacity="0.6" d="M20.1035 0.410156L25.8398 6.15234C26.1035 6.41602 26.25 6.77344 26.25 7.14258V7.5H18.75V0H19.1074C19.4824 0 19.8398 0.146484 20.1035 0.410156Z" fill="#0A77DB"/>
<path d="M8.22265 22.4443H7.12402V21.8115H8.22265C8.40234 21.8115 8.54785 21.7822 8.65918 21.7236C8.77246 21.6631 8.85547 21.5811 8.9082 21.4775C8.96093 21.3721 8.9873 21.2519 8.9873 21.1172C8.9873 20.9863 8.96093 20.8643 8.9082 20.751C8.85547 20.6377 8.77246 20.5459 8.65918 20.4756C8.54785 20.4053 8.40234 20.3701 8.22265 20.3701H7.38769V24H6.58203V19.7344H8.22265C8.55469 19.7344 8.83789 19.7939 9.07226 19.9131C9.30859 20.0303 9.48828 20.1934 9.61133 20.4023C9.73633 20.6094 9.79883 20.8457 9.79883 21.1113C9.79883 21.3867 9.73633 21.624 9.61133 21.8232C9.48828 22.0225 9.30859 22.1758 9.07226 22.2832C8.83789 22.3906 8.55469 22.4443 8.22265 22.4443ZM12.2627 19.7344V24H11.46V19.7344H12.2627ZM13.5869 19.7344V20.3701H10.1504V19.7344H13.5869Z" fill="white"/>
</svg>
