<svg width="30" height="30" viewBox="0 0 30 30" fill="none" xmlns="http://www.w3.org/2000/svg">
<path d="M16.875 7.96875V0H5.15625C4.37695 0 3.75 0.626953 3.75 1.40625V28.5938C3.75 29.373 4.37695 30 5.15625 30H24.8438C25.623 30 26.25 29.373 26.25 28.5938V9.375H18.2812C17.5078 9.375 16.875 8.74219 16.875 7.96875ZM7.5 4.21875C7.5 3.95977 7.70977 3.75 7.96875 3.75H12.6562C12.9152 3.75 13.125 3.95977 13.125 4.21875V5.15625C13.125 5.41523 12.9152 5.625 12.6562 5.625H7.96875C7.70977 5.625 7.5 5.41523 7.5 5.15625V4.21875ZM7.5 7.96875C7.5 7.70977 7.70977 7.5 7.96875 7.5H12.6562C12.9152 7.5 13.125 7.70977 13.125 7.96875V8.90625C13.125 9.16523 12.9152 9.375 12.6562 9.375H7.96875C7.70977 9.375 7.5 9.16523 7.5 8.90625V7.96875Z" fill="#0A77DB"/>
<path opacity="0.6" d="M20.1035 0.410156L25.8398 6.15234C26.1035 6.41602 26.25 6.77344 26.25 7.14258V7.5H18.75V0H19.1074C19.4824 0 19.8398 0.146484 20.1035 0.410156Z" fill="#0A77DB"/>
<path d="M10.707 17.3125H11.7813V21.0898C11.7813 21.5247 11.6875 21.8906 11.5 22.1875C11.3125 22.4818 11.0573 22.7044 10.7344 22.8555C10.4115 23.0039 10.0443 23.0781 9.63281 23.0781C9.21615 23.0781 8.84505 23.0039 8.51953 22.8555C8.19401 22.7044 7.9388 22.4818 7.75391 22.1875C7.56901 21.8906 7.47656 21.5247 7.47656 21.0898V17.3125H8.55078V21.0898C8.55078 21.3555 8.59505 21.5729 8.68359 21.7422C8.77214 21.9088 8.89714 22.0325 9.05859 22.1133C9.22005 22.194 9.41146 22.2344 9.63281 22.2344C9.85677 22.2344 10.0482 22.194 10.207 22.1133C10.3685 22.0325 10.4922 21.9088 10.5781 21.7422C10.6641 21.5729 10.707 21.3555 10.707 21.0898V17.3125ZM17.3711 17.3125V23H16.293L13.875 19.0547V23H12.8008V17.3125H13.875L16.3008 21.2617V17.3125H17.3711ZM21.793 21.1289H22.8672C22.8385 21.5091 22.7331 21.8463 22.5508 22.1406C22.3685 22.4323 22.1146 22.6615 21.7891 22.8281C21.4635 22.9948 21.069 23.0781 20.6055 23.0781C20.2487 23.0781 19.9271 23.0156 19.6406 22.8906C19.3568 22.763 19.1133 22.582 18.9102 22.3477C18.7096 22.1107 18.556 21.8268 18.4492 21.4961C18.3424 21.1628 18.2891 20.7891 18.2891 20.375V19.9414C18.2891 19.5273 18.3438 19.1536 18.4531 18.8203C18.5625 18.487 18.7188 18.2031 18.9219 17.9687C19.1276 17.7318 19.3737 17.5495 19.6602 17.4219C19.9492 17.2943 20.2721 17.2305 20.6289 17.2305C21.0924 17.2305 21.4844 17.3164 21.8047 17.4883C22.125 17.6576 22.3737 17.8906 22.5508 18.1875C22.7279 18.4844 22.8346 18.8255 22.8711 19.2109H21.7969C21.776 18.9713 21.724 18.7682 21.6406 18.6016C21.5599 18.4349 21.4375 18.3086 21.2734 18.2227C21.112 18.1341 20.8971 18.0898 20.6289 18.0898C20.4206 18.0898 20.237 18.1289 20.0781 18.207C19.9219 18.2852 19.7917 18.4023 19.6875 18.5586C19.5833 18.7122 19.5052 18.9049 19.4531 19.1367C19.401 19.3659 19.375 19.6315 19.375 19.9336V20.375C19.375 20.6641 19.3984 20.9232 19.4453 21.1523C19.4922 21.3815 19.5651 21.5755 19.6641 21.7344C19.763 21.8932 19.8906 22.0143 20.0469 22.0977C20.2031 22.181 20.3893 22.2227 20.6055 22.2227C20.8685 22.2227 21.082 22.181 21.2461 22.0977C21.4128 22.0143 21.5391 21.8919 21.625 21.7305C21.7135 21.569 21.7695 21.3685 21.793 21.1289Z" fill="white"/>
</svg>
