<svg xmlns="http://www.w3.org/2000/svg" viewBox="0 0 32 32" id="attachment"><path fill="#ffb300" d="M16.88,22a1,1,0,0,1-.71-.29,1,1,0,0,1,0-1.42l3.11-3.1a1,1,0,0,0,0-1.4,1,1,0,0,0-1.39,0l-3.11,3.11a1,1,0,1,1-1.42-1.42l3.11-3.1a3.05,3.05,0,0,1,4.22,0,3,3,0,0,1,0,4.22l-3.1,3.11A1,1,0,0,1,16.88,22Z"></path><path d="M10.52,26.9a4.49,4.49,0,0,1-3.18-7.66l3.9-3.9a1,1,0,0,1,1.42,1.42l-3.9,3.9a2.47,2.47,0,0,0,0,3.51,2.54,2.54,0,0,0,3.51,0l3.9-3.9a1,1,0,1,1,1.42,1.42l-3.9,3.9A4.51,4.51,0,0,1,10.52,26.9Z"></path><path d="M16.9 26.24a1 1 0 0 1-.71-.29 1 1 0 0 1 0-1.41L26.8 13.93a4 4 0 0 0-5.66-5.66L10.54 18.88a1 1 0 1 1-1.42-1.42L19.73 6.86a6 6 0 0 1 8.48 8.48L17.61 26A1 1 0 0 1 16.9 26.24zM25 30H3a1 1 0 0 1 0-2H25a1 1 0 0 1 0 2z"></path></svg>