<svg width="36" height="36" viewBox="0 0 36 36" fill="none" xmlns="http://www.w3.org/2000/svg">
<path d="M2 11C0 11 0 13 0 13V34C0 34 0 36 2 36H34C36 36 36 34 36 34V13C36 13 36 11 34 11H2Z" fill="#5C913B"/>
<path d="M2 6C0 6 0 8 0 8V28C0 28 0 30 2 30H34C36 30 36 28 36 28V8C36 8 36 6 34 6H2Z" fill="#A7D28B"/>
<path d="M25 24.5C28.5899 24.5 31.5 21.5899 31.5 18C31.5 14.4101 28.5899 11.5 25 11.5C21.4101 11.5 18.5 14.4101 18.5 18C18.5 21.5899 21.4101 24.5 25 24.5Z" fill="#77B255"/>
<path d="M33 28.5H3C2.173 28.5 1.5 27.827 1.5 27V9C1.5 8.173 2.173 7.5 3 7.5H33C33.827 7.5 34.5 8.173 34.5 9V27C34.5 27.827 33.827 28.5 33 28.5ZM3 8.5C2.725 8.5 2.5 8.724 2.5 9V27C2.5 27.275 2.725 27.5 3 27.5H33C33.275 27.5 33.5 27.275 33.5 27V9C33.5 8.724 33.275 8.5 33 8.5H3Z" fill="#5C913B"/>
<path d="M14 6H22V30.062H14V6Z" fill="#FFE8B6"/>
<path d="M14 30H22V36H14V30Z" fill="#FFAC33"/>
<path d="M11.8114 20.0228C11.8114 17.0438 6.31841 17.2378 6.31841 15.4388C6.31841 14.5678 7.15141 14.1428 8.11741 14.1428C9.74241 14.1428 10.0314 15.1868 10.7674 15.1868C11.2884 15.1868 11.5394 14.8588 11.5394 14.4908C11.5394 13.6348 10.2434 12.9888 9.00041 12.7648V11.9398C9.00041 11.4248 8.58341 11.0078 8.06841 11.0078C7.55341 11.0078 7.13641 11.4258 7.13641 11.9398V12.7928C5.78241 13.1028 4.61541 14.0428 4.61541 15.5738C4.61541 18.4358 10.1084 18.3198 10.1084 20.3318C10.1084 21.0268 9.35441 21.7228 8.11641 21.7228C6.25941 21.7228 5.64041 20.4658 4.88741 20.4658C4.51941 20.4658 4.19141 20.7748 4.19141 21.2408C4.19141 21.9818 5.43141 22.8718 7.13841 23.1218L7.13741 23.1258V24.0598C7.13741 24.5738 7.55541 24.9918 8.07041 24.9918C8.58441 24.9908 9.00141 24.5728 9.00141 24.0598V23.1258C9.00141 23.1158 8.99641 23.1068 8.99541 23.0978C10.5304 22.8108 11.8114 21.8118 11.8114 20.0228Z" fill="#5C913B"/>
</svg>
