<svg width="60" height="60" viewBox="0 0 60 60" fill="none" xmlns="http://www.w3.org/2000/svg">
<path d="M23 5H37C37.552 5 38 5.447 38 6V10C38 10.553 37.552 11 37 11H23C22.448 11 22 10.553 22 10V6C22 5.447 22.448 5 23 5Z" fill="#005DC7"/>
<path d="M49 10H40C40 11.654 38.654 13 37 13H23C21.346 13 20 11.654 20 10H11C9.896 10 9 10.896 9 12V53C9 54.104 9.896 55 11 55H49C50.104 55 51 54.104 51 53V12C51 10.896 50.104 10 49 10ZM46 50H14V16H46V50Z" fill="#005DC7"/>
<path d="M20.5 26C22.433 26 24 24.433 24 22.5C24 20.567 22.433 19 20.5 19C18.567 19 17 20.567 17 22.5C17 24.433 18.567 26 20.5 26Z" fill="#005DC7"/>
<path d="M20.5 46C22.433 46 24 44.433 24 42.5C24 40.567 22.433 39 20.5 39C18.567 39 17 40.567 17 42.5C17 44.433 18.567 46 20.5 46Z" fill="#005DC7"/>
<path d="M20.5 36C22.433 36 24 34.433 24 32.5C24 30.567 22.433 29 20.5 29C18.567 29 17 30.567 17 32.5C17 34.433 18.567 36 20.5 36Z" fill="#005DC7"/>
<path d="M40.5 21C41.328 21 42 21.672 42 22.5C42 23.328 41.328 24 40.5 24H30.5C29.671 24 29 23.328 29 22.5C29 21.672 29.671 21 30.5 21H40.5Z" fill="#005DC7"/>
<path d="M40.5 31C41.328 31 42 31.672 42 32.5C42 33.328 41.328 34 40.5 34H30.5C29.671 34 29 33.328 29 32.5C29 31.672 29.671 31 30.5 31H40.5Z" fill="#005DC7"/>
<path d="M40.5 41C41.328 41 42 41.672 42 42.5C42 43.328 41.328 44 40.5 44H30.5C29.671 44 29 43.328 29 42.5C29 41.672 29.671 41 30.5 41H40.5Z" fill="#005DC7"/>
</svg>
