<svg width="800" height="800" viewBox="0 0 800 800" fill="none" xmlns="http://www.w3.org/2000/svg">
<g clip-path="url(#clip0_9199_62526)">
<path d="M0 0H800V761H0V0Z" fill="white"/>
<path d="M783.359 0H800V25.1473H783.359V0ZM767.031 25.1473H750.702V0H767.031V25.1473ZM734.373 25.1473H718.045V0H734.373V25.1473ZM701.82 25.1473H685.491V0H701.82V25.1473ZM669.163 25.1473H652.834V0H669.163V25.1473ZM636.505 25.1473H620.177V0H636.505V25.1473ZM603.952 25.1473H587.623V0H603.952V25.1473ZM571.295 25.1473H554.966V0H571.295V25.1473ZM538.638 25.1473H522.309V0H538.638V25.1473ZM506.084 25.1473H489.756V0H506.084V25.1473ZM473.427 25.1473H457.098V0H473.427V25.1473ZM440.77 25.1473H424.441V0H440.77V25.1473ZM408.112 25.1473H391.784V0H408.112V25.1473ZM375.559 25.1473H359.23V0H375.559V25.1473ZM342.902 25.1473H326.573V0H342.902V25.1473ZM310.244 25.1473H294.02V0H310.348V25.1473H310.244ZM277.691 25.1473H261.362V0H277.691V25.1473ZM245.034 25.1473H228.705V0H245.034V25.1473ZM212.376 25.1473H196.048V0H212.376V25.1473ZM179.823 25.1473H163.495V0H179.823V25.1473ZM147.166 25.1473H130.837V0H147.166V25.1473ZM114.509 25.1473H98.1799V0H114.509V25.1473ZM81.9553 25.1473H65.6266V0H81.9553V25.1473ZM49.298 25.1473H32.9693V0H49.298V25.1473ZM0 0H16.6407V25.1473H0V0ZM16.6407 748.919H0V723.143H16.6407V748.919ZM16.6407 697.21H0V671.434H16.6407V697.21ZM16.6407 645.658H0V619.882H16.6407V645.658ZM16.6407 593.949H0V568.173H16.6407V593.949ZM16.6407 542.24H0V516.464H16.6407V542.24ZM16.6407 490.53H0V464.754H16.6407V490.53ZM16.6407 438.821H0V413.045H16.6407V438.821ZM16.6407 387.112H0V361.336H16.6407V387.112ZM16.6407 335.403H0V309.627H16.6407V335.403ZM16.6407 283.694H0V257.917H16.6407V283.694ZM16.6407 231.984H0V206.208H16.6407V231.984ZM16.6407 180.275H0V154.499H16.6407V180.275ZM16.6407 128.566H0V102.79H16.6407V128.566ZM16.6407 76.8566H0V51.0806H16.6407V76.8566ZM0 774.853H16.6407V800H0V774.853ZM767.031 800H750.702V774.853H767.031V800ZM734.373 800H718.045V774.853H734.373V800ZM701.82 800H685.491V774.853H701.82V800ZM669.163 800H652.834V774.853H669.163V800ZM636.505 800H620.177V774.853H636.505V800ZM603.952 800H587.623V774.853H603.952V800ZM571.295 800H554.966V774.853H571.295V800ZM538.638 800H522.309V774.853H538.638V800ZM506.084 800H489.756V774.853H506.084V800ZM473.427 800H457.098V774.853H473.427V800ZM440.77 800H424.441V774.853H440.77V800ZM408.112 800H391.784V774.853H408.112V800ZM375.559 800H359.23V774.853H375.559V800ZM342.902 800H326.573V774.853H342.902V800ZM310.244 800H294.02V774.853H310.348V800H310.244ZM277.691 800H261.362V774.853H277.691V800ZM245.034 800H228.705V774.853H245.034V800ZM212.376 800H196.048V774.853H212.376V800ZM179.823 800H163.495V774.853H179.823V800ZM147.166 800H130.837V774.853H147.166V800ZM114.509 800H98.1799V774.853H114.509V800ZM81.9553 800H65.6266V774.853H81.9553V800ZM49.298 800H32.9693V774.853H49.298V800ZM783.359 774.853H800V800H783.359V774.853ZM800 748.919H783.359V723.143H800V748.919ZM800 697.21H783.359V671.434H800V697.21ZM800 645.658H783.359V619.882H800V645.658ZM800 593.949H783.359V568.173H800V593.949ZM800 542.24H783.359V516.464H800V542.24ZM800 490.53H783.359V464.754H800V490.53ZM800 438.821H783.359V413.045H800V438.821ZM800 387.112H783.359V361.336H800V387.112ZM800 335.403H783.359V309.627H800V335.403ZM800 283.694H783.359V257.917H800V283.694ZM800 231.984H783.359V206.208H800V231.984ZM800 180.275H783.359V154.499H800V180.275ZM800 128.566H783.359V102.79H800V128.566ZM800 76.8566H783.359V51.0806H800V76.8566Z" fill="#0A0408"/>
<path d="M80 24H721V761H80V24Z" fill="#EBB866"/>
<path d="M245.703 261.016H311.641V510.781H245.703V261.016Z" fill="#55B7A8"/>
<path d="M317.891 517.031H239.453V254.766H317.891V517.031ZM251.953 504.531H305.391V267.266H251.953V504.531Z" fill="#0A0408"/>
<path d="M371.328 113.828H437.266V510.781H371.328V113.828Z" fill="#DC444A"/>
<path d="M443.437 517.031H365.078V107.578H443.516V517.031H443.437ZM377.578 504.531H431.016V120.078H377.578V504.531Z" fill="#0A0408"/>
<path d="M496.875 188.906H562.813V510.781H496.875V188.906Z" fill="#68A4D9"/>
<path d="M569.063 517.031H490.625V182.656H569.063V517.031ZM503.125 504.531H556.563V195.156H503.125V504.531Z" fill="#0A0408"/>
<path d="M245.703 241.172H311.641V327.734H245.703V241.172Z" fill="white"/>
<path d="M317.891 333.984H239.453V234.922H317.891V333.984ZM251.953 321.484H305.391V247.422H251.953V321.484Z" fill="#0A0408"/>
<path d="M371.328 81.25H437.266V167.813H371.328V81.25Z" fill="white"/>
<path d="M443.437 174.063H365.078V75H443.516V174.063H443.437ZM377.578 161.563H431.016V87.5H377.578V161.563Z" fill="#0A0408"/>
<path d="M496.875 174.453H562.813V261.016H496.875V174.453Z" fill="white"/>
<path d="M569.063 267.266H490.625V168.203H569.063V267.266ZM503.125 254.766H556.563V180.703H503.125V254.766Z" fill="#0A0408"/>
<path d="M245.703 579.844H251.953V592.344H245.703V579.844ZM544.375 592.344H532.188V579.844H544.375V592.344ZM520 592.344H507.812V579.844H520V592.344ZM495.625 592.344H483.437V579.844H495.625V592.344ZM471.25 592.344H459.062V579.844H471.25V592.344ZM446.875 592.344H434.688V579.844H446.875V592.344ZM422.5 592.344H410.313V579.844H422.5V592.344ZM398.203 592.344H386.016V579.844H398.203V592.344ZM373.828 592.344H361.641V579.844H373.828V592.344ZM349.453 592.344H337.266V579.844H349.453V592.344ZM325.078 592.344H312.891V579.844H325.078V592.344ZM300.703 592.344H288.516V579.844H300.703V592.344ZM276.328 592.344H264.141V579.844H276.328V592.344ZM556.563 579.844H562.813V592.344H556.563V579.844Z" fill="#0A0408"/>
<path d="M245.703 613.844H251.953V626.344H245.703V613.844ZM544.375 626.344H532.188V613.844H544.375V626.344ZM520 626.344H507.812V613.844H520V626.344ZM495.625 626.344H483.437V613.844H495.625V626.344ZM471.25 626.344H459.062V613.844H471.25V626.344ZM446.875 626.344H434.688V613.844H446.875V626.344ZM422.5 626.344H410.313V613.844H422.5V626.344ZM398.203 626.344H386.016V613.844H398.203V626.344ZM373.828 626.344H361.641V613.844H373.828V626.344ZM349.453 626.344H337.266V613.844H349.453V626.344ZM325.078 626.344H312.891V613.844H325.078V626.344ZM300.703 626.344H288.516V613.844H300.703V626.344ZM276.328 626.344H264.141V613.844H276.328V626.344ZM556.563 613.844H562.813V626.344H556.563V613.844Z" fill="#0A0408"/>
<path d="M245.703 649.844H251.953V662.344H245.703V649.844ZM544.375 662.344H532.188V649.844H544.375V662.344ZM520 662.344H507.812V649.844H520V662.344ZM495.625 662.344H483.437V649.844H495.625V662.344ZM471.25 662.344H459.062V649.844H471.25V662.344ZM446.875 662.344H434.688V649.844H446.875V662.344ZM422.5 662.344H410.313V649.844H422.5V662.344ZM398.203 662.344H386.016V649.844H398.203V662.344ZM373.828 662.344H361.641V649.844H373.828V662.344ZM349.453 662.344H337.266V649.844H349.453V662.344ZM325.078 662.344H312.891V649.844H325.078V662.344ZM300.703 662.344H288.516V649.844H300.703V662.344ZM276.328 662.344H264.141V649.844H276.328V662.344ZM556.563 649.844H562.813V662.344H556.563V649.844Z" fill="#0A0408"/>
<path d="M245.703 692.844H251.953V705.344H245.703V692.844ZM544.375 705.344H532.188V692.844H544.375V705.344ZM520 705.344H507.812V692.844H520V705.344ZM495.625 705.344H483.437V692.844H495.625V705.344ZM471.25 705.344H459.062V692.844H471.25V705.344ZM446.875 705.344H434.688V692.844H446.875V705.344ZM422.5 705.344H410.313V692.844H422.5V705.344ZM398.203 705.344H386.016V692.844H398.203V705.344ZM373.828 705.344H361.641V692.844H373.828V705.344ZM349.453 705.344H337.266V692.844H349.453V705.344ZM325.078 705.344H312.891V692.844H325.078V705.344ZM300.703 705.344H288.516V692.844H300.703V705.344ZM276.328 705.344H264.141V692.844H276.328V705.344ZM556.563 692.844H562.813V705.344H556.563V692.844Z" fill="#0A0408"/>
<path d="M85.8594 271.562H125.625V311.328H85.8594V271.562Z" fill="#DC444A"/>
<path d="M130.875 317.578H78.6094V265.312H130.875V317.578ZM91.1094 305.078H118.375V277.812H91.1094V305.078Z" fill="#0A0408"/>
<path d="M674.766 271.016H714.531V310.781H674.766V271.016Z" fill="#DC444A"/>
<path d="M720.781 316.953H668.516V264.688H720.781V316.953ZM681.016 304.453H708.281V277.188H681.016V304.453Z" fill="#0A0408"/>
</g>
<defs>
<clipPath id="clip0_9199_62526">
<rect width="800" height="800" fill="white"/>
</clipPath>
</defs>
</svg>
