<svg xmlns="http://www.w3.org/2000/svg" width="24" height="24" viewBox="0 0 24 24" id="book-dollar"><path fill="#86efac" d="M20,4v14h-2l-14,2V4c0-1.1046,.8954-2,2-2h12c1.1046,0,2,.8954,2,2Z"></path><path fill="#fff" d="M18,18v4H6c-1.1046,0-2-.8954-2-2s.8954-2,2-2h12Z"></path><path fill="#0f172a" d="M10.5,8.5c0,.5518,.4487,1,1,1h1c1.103,0,2,.8975,2,2s-.897,2-2,2v.5c0,.2764-.2236,.5-.5,.5s-.5-.2236-.5-.5v-.5h-1.5c-.2764,0-.5-.2236-.5-.5s.2236-.5,.5-.5h2.5c.5513,0,1-.4482,1-1s-.4487-1-1-1h-1c-1.103,0-2-.8975-2-2s.897-2,2-2v-.5c0-.2764,.2236-.5,.5-.5s.5,.2236,.5,.5v.5h1.5c.2764,0,.5,.2236,.5,.5s-.2236,.5-.5,.5h-2.5c-.5513,0-1,.4482-1,1Zm8,10v3h1.5c.2764,0,.5,.2236,.5,.5s-.2236,.5-.5,.5H6c-1.3784,0-2.5-1.1211-2.5-2.5V4c0-1.3784,1.1216-2.5,2.5-2.5h12c1.3789,0,2.5,1.1216,2.5,2.5v14c0,.2764-.2236,.5-.5,.5h-1.5Zm-1,0H6c-.8271,0-1.5,.6729-1.5,1.5s.6729,1.5,1.5,1.5h11.5v-3Zm2-1V4c0-.8271-.6729-1.5-1.5-1.5H6c-.8271,0-1.5,.6729-1.5,1.5v14.0126c.4191-.3172,.9351-.5126,1.5-.5126h13.5Z"></path></svg>