<svg width="144" height="140" viewBox="0 0 144 140" fill="none" xmlns="http://www.w3.org/2000/svg">
<path d="M111.351 37.2328C112.034 36.8203 112.769 36.501 113.537 36.2833L113.987 34.1182L117.646 34.0547L118.173 36.2016C118.949 36.3923 119.697 36.6862 120.395 37.0755L122.243 35.866L124.876 38.4091L123.73 40.299C124.143 40.9819 124.463 41.7173 124.68 42.4853L126.845 42.9358L126.909 46.5947L124.762 47.1209C124.57 47.8962 124.276 48.6426 123.888 49.3404L125.097 51.191L122.554 53.8218L120.664 52.6757C119.981 53.0891 119.246 53.4095 118.478 53.6283L118.027 55.7934L114.368 55.8569L113.842 53.7099C113.067 53.5184 112.321 53.2245 111.623 52.836L109.772 54.0456L107.138 51.5025L108.284 49.6125C107.872 48.9293 107.553 48.1941 107.335 47.4263L105.17 46.9727L105.109 43.3168L107.256 42.7877C107.449 42.0126 107.743 41.2664 108.13 40.5681L106.921 38.7205L109.464 36.0867L111.354 37.2328H111.351ZM113.301 42.1073C112.76 42.666 112.396 43.3729 112.257 44.1384C112.117 44.9038 112.208 45.6935 112.518 46.4073C112.827 47.1211 113.342 47.727 113.996 48.1482C114.65 48.5694 115.415 48.787 116.193 48.7734C116.971 48.7598 117.727 48.5157 118.366 48.072C119.005 47.6282 119.498 47.0048 119.783 46.2806C120.067 45.5564 120.131 44.7641 119.964 44.0039C119.798 43.2438 119.411 42.55 118.85 42.0105C118.1 41.2892 117.096 40.8944 116.055 40.9125C115.015 40.9307 114.025 41.3603 113.301 42.1073Z" fill="#E0E0E0"/>
<path d="M113.303 42.1064C113.509 41.8536 113.757 41.637 114.035 41.4654C114.791 40.9729 115.696 40.7591 116.593 40.8606C117.213 40.9219 117.81 41.1292 118.335 41.4654C118.937 41.8586 119.423 42.407 119.741 43.0529C119.917 43.3989 120.038 43.7702 120.1 44.1536C120.171 44.5531 120.178 44.9614 120.122 45.3631C120.009 46.2163 119.624 47.0105 119.025 47.6284C118.426 48.2464 117.645 48.6555 116.795 48.7952C116.396 48.8657 115.988 48.8728 115.586 48.8164C115.205 48.7723 114.834 48.6692 114.485 48.511C113.829 48.2157 113.264 47.75 112.849 47.1624C112.412 46.5368 112.165 45.7988 112.136 45.0364C112.107 44.2739 112.298 43.5193 112.686 42.8624C112.845 42.5803 113.05 42.326 113.291 42.1095C113.097 42.366 112.916 42.6325 112.749 42.9078C112.33 43.6741 112.178 44.5582 112.317 45.4206C112.419 46.0529 112.677 46.6498 113.068 47.1568C113.46 47.6638 113.972 48.0649 114.558 48.3235C115.249 48.6267 116.015 48.7203 116.759 48.5926C117.559 48.4558 118.294 48.0672 118.857 47.4837C119.421 46.9001 119.783 46.1519 119.892 45.348C119.991 44.6 119.87 43.8393 119.544 43.1587C119.265 42.5819 118.846 42.0841 118.325 41.7107C117.804 41.3373 117.198 41.1002 116.563 41.0209C115.696 40.9112 114.817 41.0954 114.068 41.544C113.551 41.8585 113.321 42.1276 113.303 42.1064Z" fill="#E0E0E0"/>
<path d="M111.351 37.2343C111.308 37.2167 111.266 37.1954 111.227 37.1708L110.855 36.9621L109.44 36.1155H109.485L106.96 38.7614V38.6918L108.17 40.5333L108.191 40.5666L108.173 40.6029C107.789 41.296 107.5 42.0374 107.314 42.8073V42.8527H107.271L105.124 43.3849L105.185 43.3062C105.209 44.4593 105.233 45.679 105.258 46.9651L105.188 46.8805L107.353 47.325H107.411L107.426 47.3794C107.642 48.1392 107.959 48.8665 108.369 49.5415L108.399 49.5929L108.369 49.6443L107.226 51.5554L107.211 51.4314L109.845 53.9715H109.715L111.562 52.7619L111.617 52.7287L111.674 52.7589C112.363 53.1427 113.101 53.4325 113.867 53.6207H113.93L113.948 53.6842C114.111 54.3585 114.293 55.0903 114.474 55.8312L114.365 55.7495L118.024 55.683L117.915 55.7707L118.366 53.6056V53.539L118.433 53.5209C119.19 53.307 119.915 52.9917 120.589 52.5835L120.646 52.5472L120.707 52.5835L122.596 53.7296L122.457 53.7477L124.997 51.1139V51.253L123.788 49.4024L123.749 49.348L123.782 49.2905C124.166 48.6014 124.457 47.8642 124.647 47.0982L124.662 47.0317L124.725 47.0165L126.875 46.4934L126.794 46.5992C126.771 45.3514 126.751 44.1318 126.733 42.9404L126.815 43.0401L124.65 42.5866H124.589L124.574 42.5261C124.359 41.7662 124.043 41.0382 123.637 40.361L123.606 40.3126L123.637 40.2612L124.786 38.3713V38.4892L122.158 35.9431H122.267L120.413 37.1526L120.374 37.1799L120.332 37.1557C119.64 36.7698 118.901 36.477 118.133 36.2848H118.088V36.2425C117.897 35.4593 117.728 34.7577 117.568 34.0925L117.634 34.1439L113.975 34.1923L114.024 34.1499C113.836 35.0148 113.685 35.7224 113.558 36.312V36.3362H113.537C112.96 36.4983 112.399 36.7139 111.862 36.9803L111.469 37.1859C111.427 37.2115 111.384 37.2338 111.339 37.2524L111.46 37.1708C111.544 37.1194 111.671 37.0408 111.847 36.947C112.378 36.6635 112.937 36.4355 113.516 36.2667L113.492 36.2939C113.609 35.7042 113.752 34.9936 113.927 34.1257V34.0864H113.966L117.625 34.0078H117.677L117.692 34.0592C117.855 34.7245 118.03 35.426 118.224 36.2062L118.17 36.1517C118.953 36.3432 119.707 36.637 120.413 37.0256H120.329L122.173 35.8161L122.231 35.7798L122.282 35.8282L124.919 38.3622L124.973 38.4136L124.934 38.4801L123.812 40.3489V40.2491C124.226 40.9425 124.547 41.6879 124.765 42.4656L124.689 42.3961L126.854 42.8436L126.936 42.8587V42.9434C126.96 44.1308 126.983 45.3504 127.005 46.6023V46.6869L126.924 46.7081L124.774 47.2343L124.855 47.1556C124.662 47.9403 124.365 48.6958 123.972 49.4024V49.2875L125.182 51.1381L125.23 51.2107L125.167 51.2742L122.627 53.908L122.566 53.9745L122.488 53.9261L120.598 52.7801H120.713C120.021 53.197 119.276 53.5204 118.499 53.7416L118.578 53.654L118.127 55.8191L118.109 55.9067H118.018L114.359 55.9703H114.272L114.251 55.8856C114.069 55.1447 113.891 54.4099 113.727 53.7356L113.806 53.8172C113.021 53.6223 112.266 53.3244 111.559 52.9313H111.671L109.821 54.1408L109.751 54.1862L109.691 54.1287C108.783 53.2427 107.876 52.3809 107.06 51.5826L107.002 51.5282L107.045 51.4586L108.194 49.5717V49.6715C107.778 48.9794 107.455 48.2351 107.235 47.458L107.308 47.5246L105.143 47.0679H105.073V46.9984C105.053 45.7143 105.034 44.4946 105.016 43.3395V43.276L105.076 43.2609L107.226 42.7408L107.172 42.7952C107.368 42.0144 107.667 41.2631 108.061 40.5606V40.6271L106.851 38.7734L106.827 38.7372L106.86 38.7039L109.415 36.0852L109.437 36.0641L109.461 36.0792L110.852 36.947L111.212 37.1738L111.351 37.2343Z" fill="#E0E0E0"/>
<path d="M17.2725 58.9858C17.9558 58.5734 18.691 58.254 19.4588 58.0363L19.9094 55.8712L23.5683 55.8047L24.0944 57.9547C24.8702 58.1448 25.6168 58.4387 26.3139 58.8286L28.1646 57.619L30.7983 60.1591L29.6493 62.049C30.0637 62.7316 30.3841 63.467 30.6018 64.2353L32.7669 64.6858L32.8304 68.3447L30.6834 68.8709C30.492 69.6462 30.1981 70.3926 29.8095 71.0904L31.0191 72.941L28.476 75.5718L26.5861 74.4257C25.903 74.8391 25.1677 75.1595 24.3998 75.3783L23.9523 77.5403L20.2934 77.6038L19.7672 75.4569C18.9911 75.2648 18.2438 74.971 17.5447 74.583L15.6971 75.7925L13.0633 73.2494L14.2093 71.3595C13.7963 70.6755 13.477 69.9392 13.2598 69.1702L11.0948 68.7197L11.0312 65.0608L13.1843 64.5377C13.3768 63.7626 13.6706 63.0164 14.0582 62.3181L12.8486 60.4705L15.3917 57.8367L17.2816 58.9828L17.2725 58.9858ZM19.232 63.8603C18.6905 64.419 18.3271 65.1259 18.1876 65.8914C18.0481 66.6569 18.139 67.4465 18.4486 68.1603C18.7582 68.8741 19.2727 69.48 19.9269 69.9012C20.5811 70.3224 21.3456 70.54 22.1235 70.5264C22.9015 70.5129 23.6579 70.2687 24.297 69.825C24.9361 69.3812 25.4292 68.7578 25.7137 68.0336C25.9983 67.3094 26.0615 66.5171 25.8954 65.757C25.7294 64.9968 25.3415 64.3031 24.7808 63.7635C24.0313 63.0422 23.0265 62.6474 21.9864 62.6655C20.9464 62.6837 19.9559 63.1133 19.232 63.8603Z" fill="#F5F5F5"/>
<path d="M19.2291 63.8562C19.4351 63.6038 19.6813 63.3872 19.9579 63.2151C20.7159 62.7232 21.6211 62.5094 22.5191 62.6104C23.1393 62.6717 23.7361 62.8789 24.2609 63.2151C24.8636 63.6084 25.3494 64.1568 25.667 64.8027C26.0226 65.5172 26.1553 66.3221 26.048 67.1129C25.9349 67.9661 25.5505 68.7602 24.9516 69.3782C24.3526 69.9962 23.5709 70.4053 22.7217 70.545C22.3221 70.616 21.9137 70.6221 21.5122 70.5632C21.1277 70.5213 20.7522 70.4193 20.3994 70.2608C19.7425 69.9654 19.1774 69.4985 18.7634 68.9091C18.3265 68.2842 18.0787 67.5467 18.0497 66.7847C18.0208 66.0227 18.2119 65.2685 18.6002 64.6122C18.7596 64.3301 18.9639 64.0758 19.2049 63.8592C19.0112 64.115 18.8305 64.3804 18.6637 64.6545C18.2443 65.4208 18.0922 66.305 18.2312 67.1674C18.3323 67.7585 18.5705 68.3178 18.9267 68.8002C19.3278 69.3543 19.8682 69.7924 20.4931 70.0703C21.1848 70.3735 21.9502 70.4671 22.6945 70.3394C23.493 70.2013 24.2266 69.8123 24.7889 69.2288C25.3512 68.6454 25.7128 67.8978 25.8212 67.0948C25.8756 66.7152 25.8694 66.3294 25.803 65.9518C25.748 65.588 25.6368 65.2351 25.4734 64.9055C25.174 64.2929 24.7169 63.771 24.149 63.3935C23.6518 63.0646 23.0841 62.8574 22.4919 62.7888C21.6252 62.6791 20.7468 62.8633 19.9972 63.3119C19.468 63.6264 19.2291 63.8774 19.2291 63.8562Z" fill="#F5F5F5"/>
<path d="M17.2695 58.9838C17.2264 58.9662 17.185 58.9449 17.1455 58.9203L16.7857 58.7116L15.3584 57.8831H15.4038L12.8788 60.5108V60.4383L14.0884 62.2828L14.1095 62.3161L14.0914 62.3524C13.7079 63.0455 13.419 63.7869 13.2326 64.5568V64.5991H13.1903L11.0464 65.1404L11.1068 65.0618C11.131 66.2149 11.1552 67.4345 11.1794 68.7207L11.1099 68.636L13.275 69.0715H13.3294L13.3475 69.1259C13.5634 69.8857 13.8808 70.6129 14.291 71.288L14.3212 71.3394L14.291 71.3908C13.9372 71.9774 13.5441 72.6215 13.148 73.2807L13.1298 73.1567L15.7666 75.6968H15.6366L17.4842 74.4872L17.5386 74.4509L17.5961 74.4842C18.2857 74.8667 19.0229 75.1565 19.7884 75.346L19.8519 75.3611V75.4246C20.0182 76.0959 20.1996 76.8307 20.3811 77.5716L20.2722 77.4899L23.9311 77.4234L23.8223 77.5111L24.2728 75.346V75.2795L24.3363 75.2613C25.0946 75.0467 25.8208 74.7314 26.4954 74.3239L26.5528 74.2907L26.6103 74.3239L28.5032 75.473L28.3641 75.4881L30.9042 72.8573V72.9965L29.6946 71.1458L29.6583 71.0914L29.6916 71.0309C30.076 70.3429 30.3669 69.6066 30.5564 68.8416V68.7751L30.6199 68.76L32.7699 68.2369L32.6883 68.3427C32.6661 67.0948 32.6459 65.8752 32.6278 64.6838L32.7094 64.7836L30.5443 64.33H30.4839V64.2695C30.2683 63.5096 29.9531 62.7816 29.5465 62.1044L29.5162 62.053L29.5465 62.0046L30.6955 60.1147V60.2327L28.0678 57.6835H28.1766L26.323 58.8931L26.2837 58.9203L26.2383 58.8961C25.5563 58.511 24.8263 58.2181 24.0672 58.0252H24.0218V57.9829C23.8313 57.1997 23.662 56.4982 23.5017 55.8329L23.5682 55.8843L19.9094 55.9297L19.9577 55.8904C19.7703 56.7552 19.6191 57.4628 19.4921 58.0524V58.0736H19.4739C18.8962 58.2342 18.3352 58.4499 17.7987 58.7177L17.4056 58.9233C17.3641 58.9489 17.3206 58.9712 17.2756 58.9898L17.3965 58.9082C17.4812 58.8568 17.6082 58.7782 17.7836 58.6844C18.3151 58.4009 18.8745 58.1729 19.4527 58.004L19.4286 58.0313C19.5465 57.4416 19.6886 56.731 19.864 55.8631V55.8238H19.9033L23.5622 55.7422H23.6136V55.7936C23.7769 56.4588 23.9523 57.1604 24.1458 57.9405L24.0914 57.8861C24.8741 58.0757 25.6277 58.3696 26.3321 58.76H26.2504L28.095 57.5505L28.1524 57.5142L28.2039 57.5595C29.0354 58.3639 29.9123 59.2045 30.8407 60.0966L30.8951 60.148L30.8558 60.2115C30.4839 60.8163 30.1059 61.4573 29.7128 62.1044V62.0046C30.1307 62.6955 30.4551 63.4388 30.6774 64.2151L30.6018 64.1425L32.7669 64.5931L32.8485 64.6082V64.6929C32.8727 65.8803 32.8959 67.0989 32.9181 68.3487V68.4364L32.8364 68.4546L30.7197 68.9747L30.8014 68.8961C30.6077 69.6807 30.3108 70.4362 29.9184 71.1428V71.0279L31.1279 72.8785L31.1763 72.9511L31.1128 73.0146L28.5728 75.6484L28.5093 75.7119L28.4337 75.6665L26.5286 74.5144H26.6435C25.9521 74.9327 25.2076 75.2561 24.43 75.476L24.5087 75.3914L24.0672 77.5625L24.049 77.6502H23.9583L20.2994 77.7107H20.2117L20.1906 77.626C20.0091 76.8821 19.8307 76.1504 19.6674 75.476L19.7461 75.5577C18.9618 75.3614 18.2065 75.0636 17.4993 74.6717H17.6112L15.7606 75.8812L15.691 75.9266L15.6306 75.8691L12.9998 73.323L12.9423 73.2686L12.9847 73.199L14.1337 71.3091V71.4119C13.7204 70.7202 13.4001 69.977 13.1812 69.2015L13.2538 69.265L11.0645 68.8114H10.995V68.7418C10.9728 67.4577 10.9536 66.2381 10.9375 65.083V65.0195L10.998 65.0043L13.148 64.4842L13.0935 64.5356C13.2902 63.7558 13.5891 63.0054 13.9825 62.304V62.3705L12.773 60.5169L12.7488 60.4776L12.7821 60.4473L15.3372 57.8287L15.3584 57.8075L15.3826 57.8226L16.7736 58.6905L17.1334 58.9173L17.2695 58.9838Z" fill="#F5F5F5"/>
<path d="M118.157 17.2417C118.652 16.943 119.185 16.7112 119.741 16.5523L120.068 14.9829L122.72 14.9375L123.101 16.4948C123.663 16.6326 124.204 16.8452 124.709 17.1268L126.049 16.2468L127.957 18.0914L127.128 19.4582C127.427 19.9542 127.658 20.4882 127.815 21.0457L129.384 21.3723L129.433 24.0243L127.875 24.4053C127.737 24.9672 127.524 25.5082 127.243 26.014L128.12 27.3535L126.276 29.2616L124.906 28.43C124.41 28.7287 123.878 28.9606 123.321 29.1195L122.995 30.6889L120.343 30.7342L119.962 29.1769C119.4 29.0391 118.859 28.8266 118.353 28.545L117.014 29.4249L115.105 27.5803L115.934 26.2105C115.635 25.7148 115.405 25.1807 115.251 24.623L113.681 24.2964L113.633 21.6445L115.19 21.2635C115.328 20.7014 115.54 20.1603 115.822 19.6548L114.945 18.3152L116.787 16.4071L118.157 17.2387V17.2417ZM119.569 20.7736C119.179 21.1796 118.919 21.692 118.82 22.246C118.722 22.8 118.79 23.3708 119.016 23.8861C119.242 24.4015 119.615 24.8383 120.09 25.1413C120.564 25.4443 121.117 25.5999 121.68 25.5885C122.242 25.5771 122.789 25.3992 123.25 25.0772C123.712 24.7552 124.067 24.3036 124.272 23.7795C124.477 23.2554 124.522 22.6824 124.401 22.1328C124.28 21.5832 123.999 21.0818 123.593 20.6919C123.324 20.4329 123.006 20.2295 122.658 20.0934C122.31 19.9573 121.938 19.8912 121.564 19.8988C121.19 19.9063 120.822 19.9875 120.479 20.1376C120.137 20.2877 119.828 20.5038 119.569 20.7736Z" fill="#F5F5F5"/>
<path d="M119.568 20.7687C119.719 20.5863 119.899 20.4291 120.1 20.3031C120.564 20.0032 121.105 19.8438 121.657 19.8438C122.21 19.8438 122.751 20.0032 123.215 20.3031C123.651 20.5886 124.004 20.9852 124.237 21.4521C124.49 21.9717 124.586 22.5541 124.512 23.1274C124.429 23.7445 124.152 24.3191 123.719 24.767C123.286 25.2148 122.722 25.5123 122.108 25.616C121.818 25.6628 121.523 25.6628 121.234 25.616C120.954 25.5825 120.682 25.5049 120.427 25.3862C119.951 25.171 119.542 24.8328 119.241 24.4065C118.982 24.0364 118.813 23.6107 118.748 23.1637C118.654 22.5152 118.787 21.854 119.123 21.2919C119.242 21.0879 119.392 20.9042 119.568 20.7476C119.586 20.7476 119.398 20.9351 119.178 21.3251C118.878 21.8794 118.771 22.5179 118.875 23.1395C118.948 23.5996 119.135 24.0342 119.419 24.4039C119.702 24.7735 120.074 25.0665 120.499 25.2562C120.743 25.3661 121.002 25.4375 121.267 25.4678C121.543 25.5071 121.822 25.501 122.096 25.4497C122.675 25.352 123.208 25.0711 123.616 24.6482C124.025 24.2254 124.287 23.6828 124.364 23.1002C124.437 22.5578 124.349 22.006 124.113 21.5126C123.91 21.0951 123.607 20.7348 123.23 20.4645C122.853 20.1941 122.414 20.0222 121.954 19.9644C121.324 19.883 120.684 20.0161 120.139 20.3424C119.749 20.5903 119.583 20.7839 119.568 20.7687Z" fill="#F5F5F5"/>
<path d="M118.157 17.2414C118.126 17.2299 118.096 17.2147 118.069 17.1961L117.806 17.0419L116.772 16.4371H116.805L114.976 18.3572V18.3058L115.862 19.6424L115.877 19.6666L115.862 19.6908C115.586 20.1937 115.376 20.7304 115.239 21.2874V21.3207H115.205L113.651 21.7077L113.694 21.6503C113.712 22.4848 113.73 23.3708 113.748 24.3022L113.697 24.2387L115.266 24.5623H115.305V24.6016C115.462 25.1518 115.692 25.6786 115.989 26.1679L116.013 26.2042L115.989 26.2435L115.16 27.6133V27.5226L117.071 29.3611H116.977C117.395 29.086 117.851 28.7836 118.317 28.4812L118.356 28.454L118.396 28.4782C118.896 28.7553 119.431 28.9648 119.986 29.1011H120.032V29.1465C120.153 29.6333 120.283 30.1655 120.416 30.7037L120.334 30.6433L122.986 30.5949L122.907 30.6584C123.01 30.1625 123.122 29.6303 123.234 29.089V29.0406H123.279C123.829 28.8849 124.356 28.656 124.846 28.3602L124.888 28.3361L124.93 28.3602L126.3 29.1918H126.2L128.042 27.2837V27.3835L127.183 26.056L127.159 26.0167L127.18 25.9744C127.454 25.4754 127.659 24.9413 127.788 24.3869V24.3385H127.836L129.394 23.9605L129.333 24.0361C129.318 23.1289 129.303 22.246 129.288 21.3842L129.348 21.4567L127.788 21.1181H127.746V21.0757C127.59 20.5258 127.363 19.999 127.068 19.5093L127.044 19.47L127.068 19.4337L127.9 18.067V18.1516L125.995 16.304H126.073L124.731 17.1779L124.7 17.1961L124.67 17.181C124.17 16.9001 123.634 16.6875 123.077 16.549H123.046V16.5187C122.91 15.9533 122.786 15.4422 122.671 14.9614L122.717 14.9977L120.068 15.031L120.101 15.0038C119.968 15.6297 119.856 16.1407 119.765 16.5701H119.75C119.333 16.6869 118.928 16.8438 118.541 17.0388L118.238 17.187C118.209 17.2067 118.178 17.2229 118.145 17.2354C118.172 17.2125 118.201 17.1923 118.232 17.1749C118.293 17.1386 118.387 17.0812 118.514 17.0146C118.899 16.8086 119.304 16.6434 119.723 16.5218L119.705 16.5399C119.79 16.1135 119.896 15.5964 120.007 14.9705V14.9403H120.038L122.69 14.8828H122.726V14.9191C122.844 15.3999 122.971 15.9079 123.11 16.4734L123.074 16.4341C123.641 16.5725 124.187 16.7861 124.697 17.0691H124.637L125.974 16.1861L126.016 16.1589L126.052 16.1952C126.657 16.7758 127.294 17.3876 127.963 18.0307L128.003 18.07L127.972 18.1153L127.183 19.4973V19.4217C127.484 19.9236 127.719 20.4623 127.882 21.0243L127.824 20.9729L129.4 21.2965H129.46V21.3539C129.475 22.2187 129.493 23.1017 129.508 24.0059V24.0694H129.448L127.891 24.4504L127.948 24.3929C127.81 24.9624 127.595 25.5106 127.31 26.0228V25.9381L128.187 27.2777L128.223 27.3321L128.178 27.3775L126.336 29.2856L126.291 29.3339L126.237 29.3007L124.867 28.4691H124.948C124.448 28.7722 123.909 29.0071 123.346 29.1676L123.403 29.1041L123.077 30.6735L123.062 30.737H122.998L120.346 30.7824H120.283L120.267 30.7189C120.137 30.1836 120.007 29.6514 119.886 29.1646L119.944 29.222C119.375 29.0811 118.828 28.8645 118.317 28.578H118.414L117.071 29.4549L117.023 29.4881L116.977 29.4458L115.072 27.6012L115.03 27.5589L115.06 27.5105L115.895 26.1407V26.2163C115.593 25.714 115.36 25.1741 115.199 24.6106L115.251 24.659L113.681 24.3294H113.633V24.281C113.633 23.3497 113.606 22.4667 113.594 21.6291V21.5988H113.639L115.196 21.2209L115.157 21.2602C115.297 20.6941 115.514 20.1499 115.801 19.6424V19.6908C115.499 19.207 115.196 18.7534 114.927 18.3482L114.912 18.3179L114.933 18.2968L116.787 16.3978H116.802H116.817C117.256 16.6699 117.594 16.8786 117.827 17.0267L118.087 17.19C118.111 17.2062 118.134 17.2234 118.157 17.2414Z" fill="#F5F5F5"/>
<path d="M35.2334 9.77295C35.7299 9.47423 36.2637 9.24241 36.8209 9.0835L37.1475 7.51411L39.7964 7.46875L40.1805 9.02605C40.7426 9.16358 41.2837 9.37616 41.7892 9.65804L43.1167 8.77809L45.0247 10.6196L44.1932 11.9894C44.4919 12.486 44.7237 13.0198 44.8826 13.577L46.452 13.9036L46.4974 16.5555L44.9401 16.9365C44.8069 17.4974 44.6005 18.0382 44.3262 18.5452L45.2031 19.8848L43.3616 21.7929L41.9918 20.9613C41.4925 21.261 40.9556 21.4928 40.3952 21.6507L40.0686 23.2201L37.4166 23.2655L37.0356 21.7082C36.4736 21.5704 35.9325 21.3578 35.4269 21.0762L34.0874 21.9531L32.1793 20.1116L33.0109 18.7418C32.7116 18.2466 32.4798 17.7137 32.3214 17.1573L30.752 16.8307L30.7188 14.1787L32.273 13.7977C32.4119 13.2355 32.6255 12.6945 32.908 12.189L32.0281 10.8494L33.8696 8.94138L35.2394 9.77295H35.2334ZM36.6486 13.3048C36.2576 13.7098 35.9956 14.2216 35.8956 14.7756C35.7956 15.3295 35.8621 15.9006 36.0867 16.4167C36.3114 16.9329 36.6841 17.3707 37.1576 17.675C37.6312 17.9793 38.1843 18.1363 38.7471 18.1261C39.3099 18.116 39.857 17.9391 40.3193 17.618C40.7816 17.2968 41.1382 16.8457 41.3441 16.3219C41.55 15.798 41.5958 15.2248 41.4759 14.6749C41.356 14.1249 41.0756 13.6229 40.6703 13.2323C40.4016 12.9727 40.0844 12.7687 39.7367 12.6319C39.3891 12.4951 39.0179 12.4281 38.6444 12.4349C38.2709 12.4416 37.9024 12.5219 37.5599 12.6712C37.2174 12.8205 36.9078 13.0358 36.6486 13.3048Z" fill="#E0E0E0"/>
<path d="M36.6483 13.3011C36.7974 13.1149 36.9762 12.9545 37.1774 12.8263C37.6421 12.5266 38.1833 12.3672 38.7363 12.3672C39.2892 12.3672 39.8304 12.5266 40.2951 12.8263C40.7316 13.1111 41.0835 13.508 41.3141 13.9754C41.5801 14.4975 41.6813 15.0879 41.6044 15.6688C41.5229 16.2885 41.2434 16.8652 40.8074 17.3131C40.3715 17.761 39.8025 18.0561 39.1853 18.1544C38.615 18.251 38.0288 18.1763 37.501 17.9397C37.0261 17.7252 36.6177 17.3868 36.3187 16.96C36.0009 16.5075 35.8205 15.973 35.799 15.4205C35.7776 14.868 35.916 14.3211 36.1977 13.8454C36.3151 13.64 36.4665 13.456 36.6452 13.3011C36.5053 13.4867 36.3751 13.6795 36.2552 13.8786C35.9552 14.4329 35.8488 15.0714 35.9528 15.693C36.0195 16.12 36.1864 16.5251 36.4396 16.8753C36.7324 17.2723 37.1245 17.5851 37.5766 17.7825C37.8192 17.892 38.0773 17.9634 38.3416 17.9941C38.617 18.0334 38.8968 18.0272 39.1702 17.976C39.7461 17.8752 40.2754 17.5947 40.6821 17.1747C41.088 16.7498 41.3503 16.2083 41.432 15.6264C41.4743 15.3519 41.4743 15.0725 41.432 14.7979C41.3915 14.5338 41.3099 14.2777 41.1901 14.0389C40.9824 13.6261 40.6751 13.2714 40.2961 13.0069C39.9171 12.7425 39.4782 12.5765 39.019 12.5239C38.3889 12.443 37.75 12.5761 37.2047 12.9019C37.0122 13.025 36.8265 13.1582 36.6483 13.3011Z" fill="#E0E0E0"/>
<path d="M35.2362 9.7684L35.1485 9.72002L34.8854 9.56883L33.8543 8.96405H33.8845L32.0702 10.8842V10.8328C32.3363 11.238 32.6356 11.6855 32.9531 12.1694L32.9683 12.1905V12.2177C32.6891 12.7192 32.4795 13.2563 32.3453 13.8144V13.8476H32.3151L30.7215 14.2317L30.7669 14.1742C30.7669 15.0088 30.8001 15.8948 30.8183 16.8261L30.7669 16.7626L32.3363 17.0862H32.3786V17.1255C32.5379 17.6754 32.7686 18.202 33.065 18.6919L33.0862 18.7282L33.065 18.7644L32.2365 20.1373V20.0466L34.1476 21.8972H34.0478L35.3874 21.0203L35.4267 20.993L35.469 21.0172C35.9739 21.2907 36.5128 21.4961 37.0717 21.6281H37.12V21.6734C37.241 22.1603 37.371 22.6925 37.5041 23.2307L37.4255 23.1702L40.0744 23.1219L39.9988 23.1854L40.3254 21.616V21.5676H40.3737C40.9228 21.4112 41.4485 21.1824 41.9371 20.8872L41.9794 20.863L42.0218 20.8872L43.3916 21.7188H43.2918L45.1333 19.8107V19.9105L44.2564 18.5709L44.2292 18.5316L44.2534 18.4893C44.5317 17.9892 44.7422 17.4543 44.8793 16.8987V16.8534H44.9247L46.482 16.4754L46.4215 16.551C46.4064 15.6438 46.3943 14.7608 46.3792 13.899L46.4396 13.9716L44.8702 13.642H44.8249V13.5997C44.6703 13.0495 44.4425 12.5227 44.1475 12.0333L44.1264 11.994L44.1475 11.9577L44.9791 10.5909V10.6756L43.0741 8.82798H43.1527L41.8101 9.70188L41.7798 9.72002H41.7496C41.2494 9.4383 40.7133 9.2257 40.156 9.08803H40.1258V9.05779C39.9897 8.4893 39.8657 7.98129 39.7508 7.5005L39.7992 7.53678L37.1473 7.57004L37.1805 7.54283C37.0475 8.16877 36.9386 8.67981 36.8449 9.1092H36.8298C36.4123 9.22591 36.0073 9.38288 35.6202 9.5779L35.336 9.72607L35.2392 9.77445C35.2673 9.75121 35.2977 9.73094 35.3299 9.71398C35.3904 9.67769 35.4811 9.62024 35.6081 9.55371C35.993 9.3477 36.3984 9.18251 36.8177 9.06082L36.7995 9.07896C36.8872 8.64957 36.99 8.13551 37.1019 7.50957V7.47933H37.1291L39.7811 7.42188H39.8204V7.45816C39.9383 7.93896 40.0653 8.44697 40.2074 9.01244L40.1681 8.97312C40.7354 9.11107 41.2816 9.32465 41.7919 9.60814H41.7315L43.068 8.72517L43.1104 8.69795L43.1466 8.73424L45.0577 10.5697L45.097 10.609L45.0698 10.6544L44.2413 12.0272V11.9486C44.5445 12.4493 44.7794 12.9883 44.9398 13.5513L44.8854 13.4999L46.4548 13.8234H46.5122V13.8839C46.5304 14.7457 46.5455 15.6317 46.5636 16.5358V16.5993H46.5031L44.9458 16.9834L45.0063 16.9259C44.8748 17.4988 44.6684 18.0519 44.3925 18.5709V18.4862L45.2724 19.8258L45.3057 19.8803L45.2634 19.9256L43.4218 21.8428L43.3765 21.8911L43.319 21.8579L41.9492 21.0263H42.0339C41.532 21.3294 40.992 21.5643 40.4282 21.7248L40.4856 21.6613L40.159 23.2307V23.2942H40.0925L37.4436 23.3426H37.3741L37.3589 23.2791C37.2259 22.7439 37.0959 22.2117 36.9779 21.7248L37.0354 21.7823C36.4667 21.6413 35.9196 21.4247 35.4085 21.1382H35.4871L34.1476 22.0151L34.0962 22.0484L34.0538 22.0091L32.1458 20.1645L32.1065 20.1222L32.1367 20.0738C32.424 19.596 32.7112 19.1303 32.9683 18.704V18.7765C32.6658 18.2762 32.4329 17.737 32.2758 17.1739L32.3242 17.2223L30.7578 16.8927H30.7064V16.8413C30.7064 15.9129 30.6792 15.0269 30.6641 14.1923V14.144H30.7094L32.2576 13.7327L32.2183 13.772C32.3598 13.2064 32.5764 12.6623 32.8624 12.1542V12.2208C32.56 11.737 32.2576 11.2834 31.9915 10.8782L31.9734 10.8479L31.9946 10.8268L33.8482 8.92777H33.8664L34.8733 9.55673L35.1334 9.72002C35.1697 9.73142 35.2042 9.7477 35.2362 9.7684Z" fill="#E0E0E0"/>
<path d="M105.373 18.0315L105.085 16.8613C104.664 16.7554 104.257 16.5959 103.876 16.3865L102.863 17.0488L101.414 15.6517L102.04 14.6206C101.816 14.2481 101.642 13.8475 101.523 13.4292L100.338 13.1812L100.305 11.1734L101.475 10.871C101.581 10.4491 101.74 10.0426 101.95 9.66142L101.287 8.64842L102.688 7.19394L103.719 7.81686C104.092 7.59369 104.492 7.41988 104.91 7.29977L105.158 6.11441L107.169 6.07812L107.456 7.24837C107.879 7.35394 108.285 7.51457 108.666 7.72614L109.679 7.06089L111.154 8.47001L110.513 9.50418C110.739 9.8824 110.913 10.2892 111.03 10.7137L112.216 10.9587L112.252 12.9695L111.082 13.2719C110.976 13.6943 110.816 14.101 110.604 14.4815L111.269 15.4945L109.872 16.9399L108.841 16.314C108.468 16.5389 108.066 16.7128 107.647 16.831L107.402 18.0194L105.373 18.0315ZM103.876 16.3623C104.256 16.5743 104.663 16.7339 105.085 16.8371L105.373 18.0073L107.365 17.9741L107.61 16.7887C108.035 16.6694 108.441 16.4945 108.82 16.2686L109.848 16.8915L111.233 15.4612L110.571 14.4482C110.785 14.0688 110.945 13.6618 111.049 13.2387L112.219 12.9363L112.182 10.9435L111.018 10.7137C110.9 10.2889 110.725 9.88199 110.498 9.50418L111.121 8.47606L109.688 7.08508L108.678 7.75033C108.298 7.53737 107.891 7.37666 107.468 7.27256L107.184 6.10232L105.191 6.1386L104.946 7.32094C104.526 7.43889 104.124 7.61389 103.752 7.84105L102.688 7.21208L101.303 8.6454L101.965 9.65538C101.752 10.035 101.592 10.442 101.49 10.8649L100.32 11.1673L100.353 13.157L101.538 13.402C101.659 13.826 101.833 14.2326 102.059 14.6115L101.436 15.6427L102.869 17.0246L103.876 16.3623ZM106.34 14.1458C105.775 14.1483 105.231 13.9273 104.827 13.5309C104.423 13.1346 104.192 12.5948 104.184 12.0291C104.177 11.7456 104.227 11.4635 104.331 11.1997C104.435 10.9358 104.591 10.6955 104.789 10.493C105.036 10.2366 105.343 10.0455 105.683 9.93673C106.022 9.82797 106.383 9.80495 106.733 9.86974C107.083 9.93453 107.412 10.0851 107.69 10.308C107.968 10.5309 108.186 10.8192 108.325 11.1471C108.465 11.4749 108.52 11.8322 108.488 12.187C108.455 12.5417 108.335 12.8828 108.139 13.1799C107.942 13.4769 107.675 13.7206 107.361 13.8892C107.047 14.0577 106.697 14.1459 106.34 14.1458ZM106.34 9.85193C106.053 9.85122 105.768 9.90872 105.503 10.021C105.238 10.1332 104.998 10.2979 104.798 10.5051C104.406 10.914 104.191 11.4616 104.201 12.0283C104.212 12.5949 104.446 13.1345 104.853 13.529C105.105 13.7726 105.413 13.9507 105.75 14.0475C106.087 14.1443 106.442 14.1569 106.785 14.0841C107.128 14.0114 107.448 13.8555 107.716 13.6303C107.985 13.405 108.194 13.1172 108.326 12.7922C108.457 12.4672 108.507 12.1149 108.47 11.7663C108.433 11.4176 108.312 11.0833 108.116 10.7927C107.92 10.502 107.655 10.264 107.346 10.0994C107.036 9.93487 106.691 9.84884 106.34 9.8489V9.85193Z" fill="#E0E0E0"/>
<path d="M104.806 10.4934C104.918 10.3546 105.053 10.2359 105.205 10.1426C105.621 9.87283 106.116 9.75528 106.609 9.80999C106.975 9.84992 107.324 9.98176 107.626 10.1932C107.927 10.4047 108.17 10.689 108.332 11.0195C108.427 11.2103 108.492 11.4141 108.526 11.6243C108.562 11.8425 108.562 12.0653 108.526 12.2835C108.465 12.7502 108.256 13.1851 107.929 13.5238C107.603 13.8625 107.176 14.0871 106.711 14.1644C106.281 14.2389 105.839 14.182 105.441 14.0011C105.077 13.8408 104.764 13.5848 104.534 13.2602C104.294 12.9183 104.158 12.5146 104.142 12.0973C104.126 11.68 104.231 11.267 104.443 10.9077C104.539 10.7494 104.662 10.6092 104.806 10.4934C104.698 10.6328 104.597 10.7782 104.504 10.9288C104.307 11.2805 104.215 11.681 104.238 12.0832C104.261 12.4855 104.398 12.8729 104.634 13.1998C104.854 13.5035 105.15 13.7435 105.493 13.8952C105.676 13.9782 105.871 14.0322 106.07 14.0555C106.279 14.0872 106.491 14.0872 106.699 14.0555C107.137 13.9807 107.54 13.7679 107.848 13.448C108.157 13.1281 108.355 12.7179 108.414 12.2775C108.447 12.0702 108.447 11.8588 108.414 11.6515C108.382 11.453 108.321 11.2603 108.232 11.08C108.068 10.7428 107.818 10.4549 107.507 10.2454C107.234 10.065 106.924 9.95014 106.599 9.90977C106.125 9.84891 105.644 9.949 105.233 10.194C105.086 10.2865 104.943 10.3865 104.806 10.4934Z" fill="#EBEBEB"/>
<path d="M103.728 7.82693L103.661 7.79367L103.465 7.67876L102.691 7.2161H102.715L101.33 8.66757V8.62826C101.53 8.93064 101.756 9.27234 101.995 9.63823V9.65638V9.67452C101.786 10.0552 101.627 10.4619 101.524 10.8841V10.9083H101.499L100.326 11.2106L100.359 11.1653C100.371 11.7983 100.385 12.4666 100.399 13.1701L100.359 13.1217L101.545 13.3667H101.575V13.3969C101.693 13.8117 101.865 14.2092 102.086 14.5793L102.104 14.6065L102.086 14.6428L101.481 15.6678V15.6013L102.924 16.9923H102.854L103.864 16.3301L103.894 16.3089L103.925 16.3271C104.305 16.5373 104.712 16.696 105.134 16.7988H105.167V16.832L105.47 18.0083L105.409 17.963L107.411 17.9267L107.354 17.9751C107.432 17.6001 107.514 17.1979 107.599 16.7897V16.7534H107.635C108.05 16.6346 108.447 16.4618 108.817 16.2394L108.85 16.2182L108.881 16.2394L109.915 16.8653H109.839L111.23 15.4259V15.5015L110.553 14.4885L110.532 14.4583L110.55 14.425C110.761 14.0451 110.92 13.6382 111.022 13.2155V13.1822H111.058L112.234 12.8798L112.189 12.9373C112.189 12.2539 112.168 11.5856 112.156 10.9355L112.201 10.9899L111.016 10.7419H110.982V10.7117C110.867 10.2951 110.695 9.89626 110.471 9.52635L110.453 9.49913L110.471 9.46889L111.1 8.43775V8.50125L109.664 7.10422H109.721L108.708 7.76645L108.684 7.78157L108.663 7.76645C108.282 7.55532 107.876 7.39471 107.453 7.28868H107.429V7.26751L107.145 6.0882L107.181 6.11844L105.176 6.14263L105.204 6.12146C105.101 6.59319 105.019 6.98327 104.95 7.30682C104.637 7.39457 104.333 7.51203 104.042 7.65759L103.828 7.76947L103.755 7.80576L103.822 7.7604L104.033 7.63945C104.322 7.48399 104.626 7.35933 104.941 7.26751H104.925C104.992 6.94396 105.071 6.55388 105.164 6.07913V6.05796H105.185L107.187 6.01562H107.218V6.04586L107.52 7.21913L107.49 7.18889C107.918 7.29491 108.331 7.45655 108.717 7.66969H108.672L109.682 7.00443L109.712 6.98327L109.739 7.01048L111.158 8.4317L111.188 8.46194L111.167 8.49521L110.553 9.5324V9.47797C110.782 9.85579 110.959 10.2626 111.079 10.6875L111.04 10.6482L112.225 10.8931H112.267V10.9385C112.279 11.5876 112.292 12.2549 112.304 12.9403V12.9887H112.258L111.082 13.276L111.127 13.2336C111.021 13.6634 110.858 14.0772 110.644 14.4643V14.4008L111.309 15.4138L111.336 15.4532L111.3 15.4894L109.909 16.9318L109.876 16.9651L109.833 16.9409L108.799 16.3119H108.863C108.484 16.5387 108.077 16.7156 107.653 16.8381L107.695 16.7897C107.611 17.1979 107.526 17.6031 107.45 17.9751V18.0234H107.402L105.4 18.0597H105.352V18.0144C105.252 17.6062 105.155 17.204 105.065 16.8381L105.107 16.8804C104.678 16.7749 104.265 16.6122 103.879 16.3966H103.94L102.927 17.0588L102.887 17.083L102.854 17.0528L101.415 15.6588L101.384 15.6285L101.406 15.5923C101.626 15.2324 101.841 14.8786 102.035 14.5581V14.6428C101.796 14.2667 101.61 13.8597 101.481 13.4332L101.521 13.4695L100.335 13.2215H100.296V13.1611C100.296 12.4595 100.275 11.7882 100.266 11.1592V11.123H100.299L101.475 10.8387L101.445 10.869C101.554 10.4463 101.718 10.0397 101.932 9.6594V9.69569L101.273 8.67966V8.65849L101.291 8.64035L102.691 7.18587L103.456 7.66062L103.649 7.78459L103.728 7.82693Z" fill="#EBEBEB"/>
<path d="M12.1023 54.1696L11.7999 52.9994C11.3775 52.8938 10.9709 52.7332 10.5904 52.5216L9.57736 53.1869L8.13194 51.7898L8.75788 50.7587C8.5324 50.3868 8.35845 49.986 8.2408 49.5673L7.05242 49.3223L7.03125 47.2994L8.20149 47.0121C8.30734 46.5903 8.4669 46.1838 8.67624 45.8026L8.01401 44.7896L9.41104 43.3441L10.4634 43.9731C10.8365 43.7499 11.2369 43.5761 11.6548 43.456L11.9027 42.2676L13.9106 42.2344L14.213 43.4046C14.6348 43.5105 15.0413 43.67 15.4225 43.8794L16.4355 43.2171L17.8809 44.6142L17.258 45.6453C17.4812 46.0184 17.655 46.4189 17.7751 46.8367L18.9605 47.0847L18.9967 49.0956L17.8265 49.3979C17.7209 49.8203 17.5603 50.227 17.3487 50.6075L18.014 51.6205L16.5928 53.0447L15.5556 52.44C15.183 52.6642 14.7824 52.8381 14.3642 52.9571L14.1192 54.1424L12.1023 54.1696ZM10.5904 52.5004C10.9702 52.7134 11.3771 52.8741 11.7999 52.9782L12.1023 54.1485L14.095 54.1152L14.34 52.9298C14.7594 52.8116 15.1612 52.6377 15.5344 52.4128L16.5625 53.0357L17.9475 51.6024L17.2852 50.5924C17.4994 50.2131 17.6602 49.8061 17.763 49.3828L18.9332 49.0986L18.9302 47.0938L17.7479 46.8488C17.631 46.4241 17.457 46.0172 17.2308 45.6393L17.8537 44.6081L16.4204 43.2262L15.4104 43.8884C15.0311 43.6743 14.6241 43.5135 14.2009 43.4107L13.9166 42.2404L11.9239 42.2737L11.6729 43.453C11.2486 43.5723 10.8419 43.7472 10.4634 43.9731L9.43221 43.3502L8.04425 44.7835L8.70043 45.7874C8.48627 46.1667 8.32549 46.5737 8.22266 46.997L7.04637 47.2994L7.07963 49.2921L8.26499 49.537C8.38555 49.9562 8.5604 50.3577 8.7851 50.7315L8.16218 51.7596L9.5955 53.1445L10.5904 52.5004ZM13.0548 50.2839C12.4895 50.2848 11.9465 50.0633 11.5432 49.6673C11.1398 49.2713 10.9083 48.7324 10.8988 48.1672C10.8916 47.8837 10.9414 47.6017 11.0452 47.3378C11.1491 47.0739 11.305 46.8336 11.5036 46.6311C11.7509 46.3747 12.0579 46.1836 12.3971 46.0748C12.7363 45.9661 13.0972 45.9431 13.4475 46.0078C13.7977 46.0726 14.1265 46.2232 14.4044 46.4461C14.6823 46.669 14.9006 46.9573 15.0398 47.2852C15.1791 47.613 15.2349 47.9703 15.2023 48.3251C15.1698 48.6798 15.0498 49.0209 14.8532 49.318C14.6565 49.615 14.3894 49.8587 14.0756 50.0273C13.7617 50.1958 13.411 50.284 13.0548 50.2839ZM13.0548 45.987H13.0155C12.4366 45.9922 11.8833 46.2265 11.4767 46.6386C11.0701 47.0507 10.8433 47.6071 10.8459 48.186C10.8485 48.765 11.0803 49.3193 11.4906 49.7277C11.9009 50.1362 12.4562 50.3655 13.0352 50.3655C13.6141 50.3655 14.1695 50.1362 14.5797 49.7277C14.99 49.3193 15.2218 48.765 15.2244 48.186C15.227 47.6071 15.0002 47.0507 14.5936 46.6386C14.187 46.2265 13.6337 45.9922 13.0548 45.987Z" fill="#E0E0E0"/>
<path d="M11.5251 46.6343C11.6375 46.495 11.7724 46.3754 11.9242 46.2806C12.3399 46.0121 12.8356 45.8956 13.3273 45.951C13.667 45.9874 13.9933 46.1035 14.2798 46.2896C14.609 46.5057 14.8751 46.8052 15.0509 47.1575C15.1455 47.3482 15.2107 47.5521 15.2444 47.7623C15.2808 47.9815 15.2808 48.2052 15.2444 48.4245C15.184 48.8912 14.9749 49.3261 14.6481 49.6648C14.3214 50.0035 13.8943 50.2281 13.4301 50.3053C12.9999 50.3758 12.5585 50.319 12.1601 50.1421C11.7958 49.9825 11.4821 49.7263 11.2529 49.4012C11.0132 49.0593 10.8771 48.6555 10.861 48.2383C10.8449 47.821 10.9495 47.408 11.1622 47.0486C11.251 46.8934 11.3655 46.7543 11.5009 46.6374C11.3912 46.7762 11.2902 46.9216 11.1985 47.0728C11.0555 47.3296 10.9676 47.6133 10.9404 47.9059C10.9131 48.1985 10.947 48.4936 11.0401 48.7723C11.1331 49.0511 11.2831 49.3075 11.4806 49.525C11.6781 49.7426 11.9188 49.9167 12.1873 50.0362C12.3702 50.1201 12.5651 50.1752 12.7648 50.1995C12.974 50.2276 13.1863 50.2225 13.3938 50.1844C13.8318 50.1107 14.2346 49.8985 14.5432 49.5791C14.8518 49.2596 15.0499 48.8497 15.1084 48.4094C15.1417 48.202 15.1417 47.9907 15.1084 47.7834C15.0769 47.5839 15.0157 47.3903 14.9269 47.2089C14.773 46.8938 14.5432 46.622 14.2582 46.4177C13.9731 46.2134 13.6418 46.0832 13.294 46.0386C12.8192 45.9801 12.3383 46.0812 11.9272 46.3259C11.7873 46.4209 11.653 46.5239 11.5251 46.6343Z" fill="#EBEBEB"/>
<path d="M10.4606 43.9734C10.4369 43.9643 10.4145 43.9521 10.3941 43.9371L10.1975 43.8252L9.40827 43.3686H9.43246L8.04147 44.8019V44.7656C8.24105 45.068 8.46784 45.4097 8.70673 45.7726V45.7907V45.8119C8.49697 46.1926 8.33836 46.5992 8.235 47.0214V47.0456H8.21081L7.03755 47.348L7.07081 47.3057C7.0829 47.9367 7.09601 48.6039 7.11012 49.3075L7.07081 49.2621L8.25617 49.5071H8.28641V49.5373C8.4052 49.9527 8.57911 50.3504 8.80349 50.7196L8.82164 50.7468L8.80349 50.7771L8.17755 51.8113V51.7447L9.61994 53.1327H9.55039L10.5604 52.4674L10.5906 52.4493L10.6208 52.4674C11.0014 52.6767 11.4082 52.8343 11.8304 52.9361H11.8637V52.9724L12.166 54.1487L12.1056 54.1034L14.1074 54.0671L14.0499 54.1154C14.1285 53.7405 14.2102 53.3353 14.2949 52.9301V52.8938H14.3311C14.7455 52.7748 15.1429 52.603 15.5135 52.3828L15.5467 52.3646L15.577 52.3828L16.6111 53.0117H16.5356L17.9265 51.5724V51.648L17.2673 50.6259L17.2462 50.5956L17.2643 50.5624C17.4757 50.1825 17.6344 49.7756 17.736 49.3528V49.3196H17.7723L18.9486 49.0323L18.9032 49.0898C18.9032 48.4064 18.8821 47.7381 18.87 47.0849L18.9153 47.1394L17.73 46.8914H17.6967V46.8581C17.5801 46.442 17.4082 46.0433 17.1857 45.6728L17.1675 45.6456L17.1857 45.6183L17.8147 44.5781V44.6416L16.3783 43.2476H16.4358L15.4228 43.9099H15.3986H15.3774C14.9973 43.6974 14.5905 43.5368 14.1679 43.4321H14.1437V43.4079L13.8594 42.2316L13.8957 42.2588L11.8909 42.286L11.9181 42.2649C11.8153 42.7366 11.7336 43.1236 11.6641 43.4472C11.3508 43.5351 11.047 43.6536 10.7569 43.801L10.5422 43.9129C10.5186 43.9375 10.491 43.9579 10.4606 43.9734L10.5271 43.928L10.7388 43.807C11.0273 43.6516 11.3313 43.5269 11.6459 43.4351L11.6308 43.4502C11.6973 43.1236 11.776 42.7366 11.8697 42.2618V42.2407H11.8909L13.8927 42.1953H13.9229V42.2225L14.2253 43.3988L14.1951 43.3686C14.624 43.4732 15.0369 43.635 15.4228 43.8494H15.3774L16.3874 43.1841L16.4176 43.163L16.4448 43.1902L17.8933 44.5781L17.9235 44.6053L17.9023 44.6416L17.2764 45.6758V45.6214C17.5049 45.9993 17.6818 46.4061 17.8026 46.8309L17.7632 46.7916L18.9486 47.0365H18.9909V47.0819C19.003 47.731 19.0151 48.3983 19.0272 49.0837V49.1321H18.9819L17.8056 49.4345L17.8509 49.3921C17.7439 49.8217 17.5813 50.2354 17.3671 50.6229V50.5594C17.5879 50.892 17.8086 51.2307 18.0324 51.5724L18.0596 51.6117L18.0233 51.648L16.6323 53.0873L16.5991 53.1236L16.5567 53.0994L15.5226 52.4705H15.6012C15.2236 52.6997 14.8167 52.8767 14.3916 52.9966L14.434 52.9513C14.3493 53.3595 14.2646 53.7617 14.189 54.1366V54.185H14.1406L12.1388 54.2213H12.0904V54.1729C11.9907 53.7677 11.8939 53.3655 11.7881 52.9966L11.8304 53.042C11.4012 52.9355 10.9883 52.7717 10.6027 52.5551H10.6632L9.65018 53.2174L9.61087 53.2415L9.57761 53.2113L8.11102 51.8354L8.08078 51.8052L8.10195 51.7659L8.73092 50.7317V50.7892C8.50273 50.4115 8.32675 50.0046 8.20779 49.5796L8.2471 49.6159L7.06174 49.3649H7.02243V49.3256C7.02243 48.6241 7.00126 47.9528 6.99219 47.3238V47.2875H7.02545L8.20174 47.0033L8.1715 47.0335C8.27344 46.5989 8.43311 46.1799 8.64625 45.7877V45.827L7.98704 44.811V44.7898V44.7717L9.3871 43.3383L10.1521 43.8131L10.3457 43.9371C10.3852 43.9448 10.4238 43.957 10.4606 43.9734Z" fill="#EBEBEB"/>
<path d="M101.558 112.263C100.303 111.477 98.8849 110.989 97.4123 110.835C96.7349 110.766 95.9941 110.787 95.4498 111.195C95.3872 111.232 95.3356 111.284 95.3005 111.348C95.2653 111.411 95.248 111.483 95.2502 111.555C95.282 111.657 95.3496 111.744 95.4407 111.8C96.3214 112.427 97.3568 112.802 98.4349 112.883C99.513 112.965 100.593 112.75 101.558 112.263Z" fill="#E0E0E0"/>
<path d="M101.454 112.147C100.494 111.442 99.597 110.654 98.775 109.791C97.9513 108.922 97.3723 107.851 97.0968 106.686C97.0424 106.513 97.0262 106.331 97.0492 106.152C97.0722 105.973 97.1338 105.801 97.2298 105.648C99.3647 107.315 101.043 109.471 101.463 112.147" fill="#E0E0E0"/>
<path d="M101.535 112.248C101.338 111.082 101.354 109.891 101.584 108.731C101.822 107.562 102.491 106.526 103.458 105.828C103.827 106.693 103.667 107.685 103.407 108.586C103.004 109.981 102.377 111.302 101.55 112.496" fill="#E0E0E0"/>
<path d="M103.627 116C102.357 116.154 101.25 116.822 100.3 117.681C99.348 118.55 98.6843 119.69 98.3984 120.947C99.6443 120.871 100.703 119.992 101.468 119.006C102.233 118.02 102.768 116.94 103.609 116.018" fill="#E0E0E0"/>
<path d="M104.086 116.6C103.586 115.33 103.411 113.956 103.576 112.602C103.741 111.248 104.242 109.956 105.032 108.844C105.758 111.417 105.492 114.326 104.086 116.6Z" fill="#E0E0E0"/>
<path d="M106.851 119.894C105.69 119.823 104.533 120.094 103.525 120.674C102.516 121.254 101.7 122.117 101.178 123.157C101.109 123.299 101.048 123.477 101.142 123.601C101.191 123.649 101.25 123.684 101.315 123.703C101.381 123.723 101.45 123.726 101.517 123.713C102.636 123.641 103.633 122.969 104.444 122.201C105.254 121.433 105.971 120.553 106.863 119.891" fill="#E0E0E0"/>
<path d="M106.762 119.716C106.169 117.799 106.133 115.753 106.659 113.817C106.864 113.058 107.215 112.256 107.917 111.9C107.945 111.881 107.977 111.869 108.01 111.863C108.043 111.857 108.077 111.858 108.11 111.866C108.166 111.898 108.209 111.948 108.231 112.008C108.469 112.54 108.573 113.121 108.534 113.702C108.493 114.279 108.404 114.851 108.267 115.413C108.047 116.46 107.929 117.587 107.36 118.489C107.226 118.707 107.105 118.933 106.997 119.166C106.889 119.396 106.886 119.468 106.786 119.659" fill="#E0E0E0"/>
<path d="M114.078 120.804C113.537 118.741 114.111 116.241 115.411 114.55C115.505 114.426 115.632 114.293 115.789 114.305C116.028 114.33 116.092 114.647 116.092 114.889C115.994 117.01 115.301 119.06 114.09 120.804" fill="#E0E0E0"/>
<path d="M114.742 121.249C116.022 121.552 117.352 121.574 118.641 121.312C119.93 121.051 121.147 120.514 122.208 119.737C120.958 119.11 119.53 118.934 118.165 119.241C116.817 119.544 115.583 120.149 114.742 121.255" fill="#E0E0E0"/>
<path d="M115.292 119.877C116.695 117.588 119.386 116.097 122.069 115.961C121.766 117.05 120.859 117.896 119.852 118.41C118.816 118.878 117.72 119.2 116.595 119.366C116.163 119.45 115.57 119.544 115.289 119.883" fill="#E0E0E0"/>
<path d="M114.223 113.225C114.648 111.934 114.939 110.602 115.091 109.251C115.239 107.891 114.962 106.517 114.298 105.32C112.989 107.857 112.856 110.821 114.184 113.349" fill="#E0E0E0"/>
<path d="M118.633 110.989C120.166 108.201 123.293 105.976 126.459 105.664C125.249 108.703 121.908 111.053 118.633 110.989Z" fill="#E0E0E0"/>
<path d="M117.672 111.528C119.958 111.875 121.905 113.342 124.043 114.222C124.491 114.438 124.987 114.532 125.483 114.497C125.713 114.495 125.938 114.422 126.125 114.287C126.313 114.153 126.455 113.965 126.532 113.747C126.609 113.53 126.617 113.294 126.555 113.071C126.494 112.849 126.365 112.651 126.187 112.504C125.885 112.224 125.529 112.008 125.141 111.869C122.815 110.899 120.318 110.874 117.868 111.464" fill="#E0E0E0"/>
<path d="M116.344 113.13C116.861 113.278 117.039 113.548 117.447 113.898C118.848 115.086 120.503 115.935 122.286 116.378C122.47 116.423 122.712 116.444 122.803 116.275C122.893 116.106 122.782 115.955 122.679 115.824C121.902 114.914 120.894 114.23 119.761 113.844C118.648 113.43 117.68 112.937 116.35 113.036" fill="#E0E0E0"/>
<path d="M114.851 103.45C115.789 104.315 116.897 104.974 118.105 105.385C119.313 105.796 120.593 105.949 121.863 105.836C121.975 105.834 122.082 105.794 122.166 105.721C122.341 105.53 122.13 105.234 121.924 105.074C119.865 103.465 117.367 102.8 114.836 103.45" fill="#E0E0E0"/>
<path d="M116.625 102.799C117.866 101.886 119.305 101.279 120.825 101.029C122.344 100.778 123.902 100.89 125.37 101.356C124.226 102.417 122.758 103.062 121.203 103.186C119.666 103.327 118.116 103.195 116.625 102.799Z" fill="#E0E0E0"/>
<path d="M115.915 98.3489C115.713 96.2927 115.846 94.6688 115.701 92.6035C115.701 92.4372 115.655 92.2376 115.501 92.1802C115.286 92.0955 115.105 92.3616 115.035 92.5793C114.735 93.5371 114.658 94.5509 114.81 95.5431C114.962 96.5352 115.339 97.4795 115.912 98.3035" fill="#E0E0E0"/>
<path d="M115.773 98.5817C117.118 97.7089 118.276 96.5784 119.181 95.2555C119.856 94.3483 120.421 93.2325 120.27 92.1016C119.797 92.1125 119.332 92.2263 118.907 92.4352C118.483 92.6441 118.109 92.943 117.812 93.3111C117.225 94.0556 116.797 94.9131 116.557 95.83C116.284 96.7372 116.094 97.6655 115.773 98.5515" fill="#E0E0E0"/>
<path d="M119.12 97.6448C122.188 96.5085 125.029 94.8343 127.509 92.7008C126.505 92.2956 125.359 92.5375 124.358 92.9427C122.084 93.8034 120.205 95.4691 119.078 97.6237" fill="#E0E0E0"/>
<path d="M116.711 99.708C118.255 99.9282 119.822 99.9353 121.368 99.7292C122.88 99.4782 124.304 98.8795 125.716 98.2868C125.842 98.2524 125.95 98.1713 126.018 98.06C126.04 97.9945 126.041 97.9242 126.022 97.858C126.003 97.7918 125.965 97.7326 125.913 97.6881C125.803 97.603 125.676 97.544 125.541 97.5157C124.008 97.0863 122.35 97.2859 120.842 97.7969C119.404 98.2879 118.021 98.9285 116.717 99.708" fill="#E0E0E0"/>
<path d="M107.869 103.522C106.813 101.39 106.883 98.9015 107.793 96.7031C108.437 97.6829 108.516 98.9287 108.398 100.093C108.28 101.257 107.926 102.458 107.902 103.628" fill="#E0E0E0"/>
<path d="M103.653 101.391C102.33 101.374 101.019 101.633 99.8023 102.151C98.5856 102.669 97.4901 103.435 96.5859 104.4C97.919 104.561 99.2693 104.311 100.456 103.684C101.639 103.06 102.753 102.316 103.783 101.464" fill="#E0E0E0"/>
<path d="M100.818 100.443C99.5272 100.34 98.2874 100.18 97.0476 100.561C96.4209 100.736 95.8394 101.044 95.343 101.465C94.8466 101.886 94.4471 102.409 94.1719 102.998C95.3883 103.099 96.6093 102.87 97.7068 102.336C98.7987 101.802 99.8402 101.171 100.818 100.449" fill="#E0E0E0"/>
<path d="M105.016 100.489C103.855 99.7268 102.663 98.9527 101.312 98.6382C99.9599 98.3237 98.3936 98.5566 97.4531 99.5726C98.5447 100.217 99.8722 100.292 101.142 100.292C102.412 100.292 103.964 100.274 105.161 100.697" fill="#E0E0E0"/>
<path d="M105.026 100.551C103.042 98.6032 102.289 95.1076 103.087 92.4375C104.654 94.8355 105.339 97.7033 105.026 100.551Z" fill="#E0E0E0"/>
<path d="M110.477 95.0296C110.852 94.1738 111.115 93.2485 111.456 92.3595C111.762 91.4608 112.233 90.627 112.844 89.9011C113.464 89.1707 114.346 88.7125 115.3 88.625C114.996 89.9677 114.414 91.2321 113.593 92.3371C112.772 93.4421 111.729 94.3633 110.531 95.0417" fill="#E0E0E0"/>
<path d="M109.491 96.177C108.871 95.3243 108.154 94.1661 107.317 93.5311C106.479 92.8961 105.381 92.509 104.359 92.754C104.891 93.6852 105.632 94.4796 106.525 95.0739C107.417 95.6681 108.436 96.0459 109.5 96.177" fill="#E0E0E0"/>
<path d="M109.687 95.0956C109.244 94.079 108.915 93.0161 108.707 91.9266C108.504 90.8269 108.679 89.6909 109.203 88.7031C110.295 90.7624 110.646 92.9698 109.742 95.1198" fill="#E0E0E0"/>
<path d="M110.492 88.7027C111.097 86.6616 112.978 85.1587 114.995 84.4692C115.244 84.366 115.515 84.3255 115.784 84.3513C115.918 84.3655 116.044 84.4191 116.148 84.5052C116.251 84.5913 116.326 84.7061 116.365 84.8351C116.44 85.1829 116.153 85.4943 115.884 85.7241C114.307 87.0716 112.472 88.0849 110.492 88.7027Z" fill="#E0E0E0"/>
<path d="M110.51 87.0409C110.588 85.7255 110.67 84.3889 111.096 83.1431C111.523 81.8972 112.351 80.724 113.552 80.1797C113.754 81.5102 113.168 82.8316 112.46 83.9747C111.753 85.1177 110.903 86.2002 110.477 87.4733" fill="#E0E0E0"/>
<path d="M110.478 87.9405C109.97 86.4558 109.916 84.5659 109.027 83.2686C108.404 82.3615 107.406 81.7567 106.871 80.7891C106.547 81.7082 106.591 82.7172 106.995 83.6043C107.399 84.4824 107.957 85.2812 108.643 85.9629C109.302 86.6675 109.867 87.1967 110.478 87.9405Z" fill="#E0E0E0"/>
<path d="M110.493 131.74C110.451 131.74 110.417 121.819 110.414 109.581C110.411 97.3432 110.441 87.4219 110.481 87.4219C110.52 87.4219 110.556 97.3402 110.559 109.581C110.562 121.822 110.532 131.74 110.493 131.74Z" fill="#E0E0E0"/>
<path d="M119.162 102.031C119.042 102.089 118.916 102.135 118.787 102.17L117.762 102.515C116.897 102.817 115.706 103.238 114.418 103.767C113.129 104.296 111.932 104.753 111.249 105.358C110.973 105.585 110.755 105.874 110.611 106.201C110.511 106.434 110.496 106.576 110.481 106.573C110.475 106.539 110.475 106.504 110.481 106.47C110.493 106.367 110.518 106.266 110.553 106.168C110.681 105.819 110.894 105.507 111.173 105.261C111.588 104.911 112.051 104.624 112.549 104.408C113.099 104.151 113.71 103.882 114.363 103.616C115.657 103.087 116.855 102.672 117.732 102.406C118.167 102.267 118.524 102.167 118.772 102.104C118.899 102.066 119.03 102.042 119.162 102.031Z" fill="#E0E0E0"/>
<path d="M122 95.0391C121.97 95.0804 121.934 95.1179 121.895 95.1509L121.592 95.4533L120.404 96.5329L116.449 100.056C114.903 101.429 113.57 102.744 112.645 103.733C112.182 104.226 111.816 104.64 111.568 104.921L111.281 105.248C111.25 105.289 111.213 105.325 111.172 105.357C111.196 105.312 111.225 105.269 111.257 105.23C111.317 105.151 111.405 105.033 111.526 104.885C111.762 104.582 112.115 104.168 112.569 103.675C113.763 102.37 115.026 101.13 116.352 99.9589C117.9 98.5891 119.312 97.3553 120.337 96.4694L121.547 95.4231L121.882 95.1449C121.917 95.105 121.957 95.0695 122 95.0391Z" fill="#E0E0E0"/>
<path d="M114.769 101.451C114.73 101.433 115.053 100.689 115.374 99.7453C115.694 98.8019 115.851 98.0096 115.891 98.0157C115.858 98.6237 115.729 99.2228 115.51 99.7907C115.371 100.202 115.21 100.606 115.029 101C114.964 101.162 114.876 101.314 114.769 101.451Z" fill="#E0E0E0"/>
<path d="M110.5 107.459C110.406 107.374 110.322 107.278 110.249 107.174L109.644 106.391C109.133 105.729 108.434 104.816 107.63 103.815C106.826 102.814 106.118 101.919 105.58 101.269C105.332 100.966 105.12 100.703 104.957 100.498C104.874 100.405 104.802 100.304 104.742 100.195C104.836 100.273 104.922 100.359 104.999 100.452C105.156 100.625 105.383 100.879 105.658 101.196C106.206 101.828 106.95 102.708 107.745 103.718C108.54 104.728 109.233 105.644 109.726 106.322C109.97 106.66 110.167 106.926 110.3 107.132C110.376 107.235 110.443 107.344 110.5 107.459Z" fill="#E0E0E0"/>
<path d="M108.594 105.02C108.21 104.595 107.936 104.084 107.796 103.529C107.647 103.039 107.586 102.527 107.617 102.017H107.681C107.671 102.078 107.651 102.138 107.62 102.192C107.62 102.192 107.62 102.126 107.62 102.008H107.684C107.714 102.503 107.8 102.992 107.938 103.468C108.118 104.001 108.337 104.519 108.594 105.02Z" fill="#E0E0E0"/>
<path d="M106.145 101.93C105.975 101.798 105.788 101.689 105.589 101.607C105.089 101.457 104.564 101.415 104.047 101.483C103.523 101.523 103.003 101.607 102.493 101.734C102.283 101.802 102.069 101.853 101.852 101.888C102.04 101.776 102.244 101.691 102.456 101.637C102.966 101.476 103.493 101.375 104.026 101.335C104.563 101.262 105.11 101.321 105.619 101.507C105.839 101.581 106.026 101.731 106.145 101.93Z" fill="#E0E0E0"/>
<path d="M105.559 101.178C105.559 101.202 105.236 101.048 104.706 100.876C103.326 100.402 101.848 100.289 100.412 100.549C99.8651 100.646 99.5325 100.749 99.5234 100.725C99.5943 100.682 99.6706 100.65 99.7502 100.628C99.9609 100.555 100.176 100.495 100.394 100.449C101.844 100.131 103.355 100.246 104.74 100.779C104.947 100.858 105.149 100.951 105.344 101.057C105.422 101.086 105.494 101.127 105.559 101.178Z" fill="#E0E0E0"/>
<path d="M110.479 98.0154C110.228 97.3091 110.021 96.588 109.859 95.8564C109.652 95.1363 109.491 94.4041 109.375 93.6641C109.629 94.3695 109.837 95.0907 109.998 95.8231C110.204 96.543 110.365 97.2752 110.479 98.0154Z" fill="#E0E0E0"/>
<path d="M110.515 98.0171C110.317 97.5712 110.087 97.1397 109.829 96.726C109.536 96.3353 109.194 95.9836 108.812 95.6797C108.958 95.7138 109.093 95.7834 109.206 95.8823C109.493 96.0912 109.743 96.3479 109.943 96.6413C110.253 97.0406 110.451 97.5157 110.515 98.0171Z" fill="#E0E0E0"/>
<path d="M110.488 126.45C110.47 126.45 110.443 126.211 110.331 125.791C110.165 125.199 109.943 124.624 109.669 124.073C108.712 122.278 107.529 120.612 106.149 119.117C105.363 118.21 104.601 117.372 103.957 116.562C103.375 115.85 102.85 115.094 102.387 114.3C102.076 113.764 101.811 113.203 101.595 112.622C101.522 112.413 101.468 112.253 101.438 112.141C101.418 112.086 101.404 112.028 101.398 111.969C101.398 111.969 101.483 112.196 101.646 112.601C101.881 113.17 102.158 113.721 102.475 114.249C102.948 115.03 103.478 115.776 104.059 116.48C104.707 117.282 105.472 118.122 106.258 119.023C107.845 120.808 109.091 122.604 109.759 124.028C110.03 124.587 110.239 125.173 110.385 125.776C110.431 125.994 110.461 126.16 110.473 126.275C110.482 126.333 110.487 126.391 110.488 126.45Z" fill="#E0E0E0"/>
<path d="M118.327 117.603C118.327 117.603 118.179 117.688 117.916 117.833C117.544 118.042 117.189 118.277 116.851 118.538C116.352 118.925 115.884 119.351 115.451 119.811C114.961 120.331 114.453 120.933 113.939 121.58C112.905 122.874 111.941 124.02 111.363 124.933C111.061 125.387 110.855 125.771 110.716 126.037C110.651 126.18 110.576 126.318 110.492 126.451C110.492 126.451 110.492 126.409 110.528 126.336C110.565 126.264 110.601 126.149 110.668 126.013C110.846 125.623 111.048 125.244 111.272 124.879C112.055 123.7 112.906 122.568 113.821 121.489C114.339 120.842 114.85 120.24 115.349 119.72C115.79 119.26 116.27 118.837 116.782 118.456C117.129 118.201 117.497 117.975 117.883 117.782C118.019 117.715 118.131 117.673 118.203 117.64C118.276 117.606 118.324 117.597 118.327 117.603Z" fill="#E0E0E0"/>
<path d="M118.479 120.479C118.193 120.542 117.903 120.585 117.611 120.606C116.914 120.676 116.226 120.811 115.555 121.011C114.889 121.226 114.265 121.553 113.71 121.979C113.287 122.305 113.084 122.583 113.066 122.562C113.048 122.541 113.099 122.484 113.193 122.363C113.328 122.193 113.48 122.038 113.647 121.9C114.195 121.441 114.828 121.093 115.509 120.875C116.191 120.672 116.893 120.547 117.602 120.503C117.893 120.468 118.186 120.46 118.479 120.479Z" fill="#E0E0E0"/>
<path d="M113.316 122.241C113.271 122.217 113.661 121.618 113.963 120.817C114.266 120.015 114.314 119.305 114.365 119.305C114.391 119.459 114.391 119.616 114.365 119.77C114.321 120.144 114.236 120.513 114.111 120.868C113.98 121.22 113.81 121.556 113.606 121.872C113.531 122.01 113.433 122.135 113.316 122.241Z" fill="#E0E0E0"/>
<path d="M120.862 109.898C120.818 109.927 120.772 109.951 120.723 109.971L120.315 110.155C120.137 110.234 119.919 110.331 119.674 110.458C119.429 110.585 119.145 110.715 118.845 110.896L118.371 111.165C118.207 111.259 118.044 111.371 117.872 111.468C117.524 111.68 117.173 111.94 116.801 112.206C115.199 113.401 113.803 114.849 112.668 116.494C112.414 116.875 112.166 117.234 111.963 117.588C111.863 117.767 111.754 117.933 111.661 118.099L111.407 118.583C111.24 118.885 111.119 119.188 111.001 119.427C110.884 119.666 110.79 119.895 110.72 120.074L110.551 120.482C110.534 120.532 110.511 120.579 110.484 120.624C110.49 120.572 110.503 120.521 110.524 120.473L110.672 120.05C110.735 119.865 110.817 119.641 110.932 119.387C111.047 119.133 111.156 118.84 111.322 118.529L111.567 118.042C111.655 117.869 111.757 117.703 111.869 117.522C112.066 117.162 112.311 116.799 112.565 116.412C113.697 114.752 115.103 113.297 116.723 112.109C117.101 111.843 117.454 111.583 117.808 111.374C117.984 111.268 118.15 111.159 118.316 111.072L118.797 110.809C119.099 110.633 119.402 110.506 119.641 110.391C119.853 110.285 120.071 110.19 120.294 110.107L120.711 109.947C120.759 109.924 120.81 109.908 120.862 109.898Z" fill="#E0E0E0"/>
<path d="M114.664 114.053C114.722 113.852 114.841 113.674 115.006 113.545C115.387 113.212 115.873 113.025 116.379 113.016C116.874 113.014 117.366 113.111 117.824 113.3C118.019 113.36 118.204 113.449 118.371 113.566C118.173 113.525 117.979 113.467 117.791 113.394C117.338 113.24 116.863 113.162 116.385 113.161C115.909 113.169 115.449 113.331 115.072 113.62C114.926 113.754 114.789 113.899 114.664 114.053Z" fill="#E0E0E0"/>
<path d="M113.734 115.009C113.918 114.603 114.049 114.177 114.124 113.739C114.151 113.295 114.121 112.85 114.037 112.414C114.119 112.522 114.174 112.649 114.197 112.783C114.28 113.101 114.303 113.431 114.267 113.757C114.225 114.082 114.123 114.397 113.964 114.685C113.855 114.906 113.746 115.018 113.734 115.009Z" fill="#E0E0E0"/>
<path d="M103.633 127.875C103.848 131.667 104.991 135.522 106.747 139.423H114.392C116.067 135.562 117.131 131.712 117.319 127.875H103.633Z" fill="#E0E0E0"/>
<path d="M116.084 134.007C116.084 134.046 113.568 134.08 110.465 134.08C107.363 134.08 104.844 134.046 104.844 134.007C104.844 133.968 107.36 133.938 110.465 133.938C113.571 133.938 116.084 133.968 116.084 134.007Z" fill="#FAFAFA"/>
<path d="M115.913 135.385C115.913 135.424 113.555 135.455 110.646 135.455C107.737 135.455 105.375 135.424 105.375 135.385C105.375 135.346 107.734 135.312 110.646 135.312C113.558 135.312 115.913 135.343 115.913 135.385Z" fill="#FAFAFA"/>
<path d="M106.877 130.367C106.974 131.538 106.974 132.716 106.877 133.887C106.78 132.716 106.78 131.538 106.877 130.367Z" fill="#FAFAFA"/>
<path d="M110.971 130.367C111.068 131.58 111.068 132.798 110.971 134.011C110.874 132.798 110.874 131.58 110.971 130.367Z" fill="#FAFAFA"/>
<path d="M114.812 130.336C114.908 131.574 114.908 132.817 114.812 134.055C114.719 132.817 114.719 131.574 114.812 130.336Z" fill="#FAFAFA"/>
<path d="M117.083 130.369C117.083 130.409 114.131 130.439 110.491 130.439C106.85 130.439 103.898 130.409 103.898 130.369C103.898 130.33 106.85 130.297 110.491 130.297C114.131 130.297 117.083 130.327 117.083 130.369Z" fill="#FAFAFA"/>
<path d="M54.2971 38.0259C55.7478 36.7065 57.3689 35.5877 59.1172 34.6996L59.1686 29.2566L67.956 27.3516L70.2541 32.2805C72.2153 32.3691 74.1557 32.72 76.0237 33.3237L79.9033 29.5167L87.463 34.3851L85.6033 39.4924C86.9227 40.9431 88.0415 42.5642 88.9296 44.3125L94.3726 44.3639L96.2776 53.1513L91.3517 55.4495C91.2594 57.4079 90.9054 59.3453 90.2994 61.2099L94.1035 65.0896L89.238 72.6493L84.1307 70.7896C82.6788 72.1073 81.0578 73.2259 79.3107 74.1159L79.2592 79.5588L70.4688 81.4699L68.1737 76.544C66.2127 76.4542 64.2724 76.1033 62.4041 75.5008L58.5306 79.3079L50.9709 74.4394L52.8305 69.3351C51.5126 67.8833 50.394 66.2623 49.5043 64.515L44.0613 64.4636L42.1562 55.6732L47.0852 53.3751C47.1684 51.4136 47.5142 49.4721 48.1133 47.6025L44.3183 43.7289L49.1868 36.1692L54.2971 38.0259ZM59.2049 47.9623C57.9297 49.9432 57.2705 52.2577 57.3108 54.6131C57.351 56.9686 58.0888 59.2593 59.4309 61.1954C60.773 63.1316 62.6591 64.6262 64.8507 65.4904C67.0423 66.3546 69.4409 66.5495 71.7432 66.0505C74.0456 65.5515 76.1483 64.3809 77.7853 62.6868C79.4224 60.9927 80.5204 58.8513 80.9403 56.5332C81.3603 54.2151 81.0835 51.8246 80.1448 49.6638C79.2061 47.5031 77.6478 45.6692 75.6669 44.3941C74.3511 43.5452 72.8808 42.9641 71.3402 42.6839C69.7996 42.4038 68.2188 42.4302 66.6884 42.7616C65.158 43.093 63.708 43.723 62.4213 44.6154C61.1346 45.5078 60.0365 46.6451 59.1898 47.9623H59.2049Z" fill="#E0E0E0"/>
<path d="M59.1917 47.9609L59.2975 47.8006C59.3762 47.6917 59.482 47.5345 59.6241 47.3349L59.863 46.9932C59.9598 46.8693 60.0747 46.7483 60.1926 46.6092L60.5797 46.1647C60.7317 46.0003 60.8922 45.8438 61.0605 45.696C61.8939 44.896 62.8454 44.229 63.8817 43.7184C65.2515 43.0303 66.7414 42.6135 68.2694 42.4907L68.9135 42.4453C69.1312 42.4453 69.3489 42.4453 69.5727 42.4453C69.7964 42.4453 70.0202 42.4453 70.247 42.4756L70.9304 42.5572L71.2781 42.6026L71.6229 42.6782L72.3214 42.8354C72.5572 42.8959 72.784 42.9836 73.0199 43.0561C73.2577 43.1264 73.491 43.2112 73.7184 43.3101C74.1902 43.5003 74.6479 43.7236 75.0882 43.9784C75.309 44.1084 75.5418 44.2294 75.7595 44.3745L76.4066 44.8342C76.5125 44.9158 76.6274 44.9854 76.7302 45.0731L77.0326 45.3392C77.2322 45.5206 77.4438 45.693 77.6374 45.8865C78.0288 46.28 78.3935 46.6992 78.729 47.1414C79.0756 47.5947 79.3917 48.0705 79.6755 48.5656C79.8115 48.8166 79.9295 49.0827 80.0625 49.3428C80.123 49.4758 80.1956 49.6028 80.247 49.7419L80.4012 50.1532C80.6126 50.7104 80.7864 51.2812 80.9213 51.8617C81.0404 52.4605 81.1192 53.0666 81.1572 53.676L81.1904 54.1356V54.5983V55.0609C81.19 55.2167 81.1789 55.3723 81.1572 55.5266C81.1178 55.829 81.0785 56.1314 81.0422 56.458L80.8336 57.3803C80.197 59.8865 78.7593 62.1162 76.7393 63.7304L75.9833 64.3019L75.1638 64.8039L74.9643 64.9248L74.7526 65.0276L74.3353 65.2302L73.918 65.4328L73.4886 65.5931C72.9205 65.8084 72.3386 65.9851 71.7468 66.1223C71.1629 66.2393 70.572 66.318 69.9779 66.3582L69.5364 66.3884C69.3912 66.3884 69.234 66.3884 69.0979 66.3884C68.7955 66.3884 68.5173 66.3884 68.2301 66.3582C67.6633 66.306 67.1006 66.2161 66.5458 66.089C66.004 65.9651 65.4707 65.8065 64.9492 65.6143C64.6921 65.5145 64.4472 65.3935 64.1992 65.2847L63.8303 65.1214C63.7094 65.0639 63.5975 64.9883 63.4796 64.9248L62.7962 64.5348C62.5724 64.3957 62.3698 64.2324 62.1581 64.0842C61.7439 63.7895 61.3509 63.4662 60.9818 63.1166C60.7979 62.9498 60.6242 62.7721 60.4617 62.5844C60.2984 62.3999 60.123 62.2306 59.9719 62.0401L59.5394 61.4685L59.3278 61.1873L59.1433 60.8849C59.0224 60.6884 58.9044 60.4918 58.7835 60.2983C58.6625 60.1048 58.5809 59.8931 58.4811 59.6935C58.3813 59.4939 58.2845 59.2974 58.1968 59.0887C58.1091 58.8801 58.0487 58.6835 57.9731 58.484C57.4524 57.0421 57.2152 55.5133 57.2746 53.9814C57.3115 52.8269 57.5246 51.6848 57.9065 50.5947C57.9882 50.3739 58.0396 50.1532 58.1333 49.9627L58.3783 49.4274C58.4569 49.2611 58.5204 49.1069 58.593 48.9708C58.6655 48.8348 58.7411 48.7168 58.8046 48.608L59.107 48.1211C59.1735 48.0123 59.2098 47.9578 59.2098 47.9578C59.2098 47.9578 59.1826 48.0183 59.1221 48.1302C59.0617 48.2421 58.9649 48.4114 58.847 48.6261L58.6413 48.989C58.5718 49.1251 58.5113 49.2914 58.4357 49.4486L58.1999 49.9838C58.1157 50.1907 58.0421 50.4016 57.9791 50.6158C57.6094 51.7019 57.4056 52.8376 57.3743 53.9844C57.3242 55.5034 57.5675 57.0178 58.091 58.4447L58.3148 59.0494C58.4025 59.246 58.5023 59.4395 58.599 59.6542C58.6958 59.8689 58.7804 60.0594 58.9014 60.259C59.0224 60.4586 59.1373 60.646 59.2582 60.8396L59.4397 61.142L59.6513 61.4202C59.7934 61.6076 59.9537 61.7951 60.0807 61.9856C60.2077 62.1761 60.4043 62.3394 60.5676 62.5208C60.7281 62.7056 60.8997 62.8803 61.0816 63.044C61.4482 63.389 61.8382 63.7083 62.2488 63.9995C62.4575 64.1477 62.6601 64.3019 62.8808 64.444L63.5612 64.8341C63.6761 64.8976 63.788 64.9702 63.9089 65.0276L64.2779 65.1395C64.5228 65.2454 64.7647 65.3663 65.0157 65.4631C65.5315 65.6515 66.0587 65.807 66.5942 65.9288C67.1427 66.0553 67.6995 66.1432 68.2603 66.1918C68.5446 66.216 68.8318 66.21 69.1191 66.2221C69.2612 66.2221 69.4064 66.2221 69.5515 66.2221L69.9869 66.1918C70.573 66.1527 71.1559 66.075 71.7317 65.959C72.3156 65.8233 72.8895 65.6475 73.4493 65.4328L73.8757 65.2726L74.2869 65.076L74.7012 64.8734L74.9068 64.7736L75.1033 64.6557L75.8926 64.1689L76.6365 63.6064C78.6338 62.0118 80.0538 59.8069 80.6794 57.3288C80.7489 57.0265 80.8155 56.7241 80.885 56.4217C80.9546 56.1193 80.9606 55.8169 80.9969 55.5145C81.02 55.3634 81.0311 55.2108 81.0301 55.0579V54.5983V54.1417L80.9969 53.6881C80.9592 53.0899 80.8814 52.4948 80.764 51.907C80.6317 51.3348 80.461 50.772 80.253 50.2227L80.1018 49.8145C80.0534 49.6784 79.9809 49.5514 79.9204 49.4214C79.7904 49.1644 79.6755 48.9013 79.5394 48.6533C79.2614 48.1639 78.9503 47.6941 78.608 47.2472C78.2768 46.8089 77.9172 46.3927 77.5315 46.0014C77.338 45.8109 77.1293 45.6416 76.9267 45.4631L76.6244 45.197C76.5215 45.1124 76.4097 45.0398 76.3038 44.9612C76.0922 44.807 75.8775 44.6588 75.6688 44.5016C75.4602 44.3443 75.2213 44.2415 75.0036 44.1115C74.5687 43.8572 74.116 43.6348 73.6489 43.4462C73.4245 43.3473 73.1943 43.2625 72.9594 43.1922C72.7266 43.1196 72.5028 43.0319 72.27 42.9715L71.5805 42.8172L71.2388 42.7386L70.8941 42.6933L70.2168 42.6086C69.996 42.5753 69.7692 42.5874 69.5515 42.5753C69.3338 42.5632 69.113 42.5602 68.8983 42.5753L68.2603 42.6177C66.7447 42.733 65.2654 43.1385 63.9029 43.8121C62.8702 44.3134 61.9199 44.969 61.0846 45.7565C60.9156 45.9013 60.7541 46.0547 60.6008 46.2161L60.2107 46.6546C60.0898 46.7906 59.9719 46.9116 59.8781 47.0325L59.6302 47.3682L59.2945 47.8248C59.2624 47.8717 59.2281 47.9171 59.1917 47.9609Z" fill="#263238"/>
<path d="M54.3024 38.0238L53.9758 37.9089L53.0021 37.5612L49.1618 36.1883H49.1921L44.3357 43.748V43.6997L48.1458 47.5732L48.1639 47.5914V47.6186C47.5669 49.4796 47.2192 51.4116 47.1298 53.364V53.3972H47.1026L42.1767 55.6984L42.2069 55.6349C42.8117 58.4018 43.4467 61.341 44.118 64.4253L44.0575 64.3739L49.5005 64.4223H49.5398L49.5579 64.4586C50.4484 66.2008 51.567 67.8167 52.8842 69.2635L52.9114 69.2938V69.3331L51.0548 74.4374L51.0275 74.3557L58.5872 79.2212H58.4965L62.3731 75.4141L62.4064 75.3808H62.4487C64.3094 75.9804 66.2414 76.3302 68.1941 76.4211H68.2395L68.2576 76.4634C68.9773 78.0086 69.7696 79.6899 70.5558 81.3923L70.4711 81.347L79.2585 79.4419L79.198 79.5175C79.198 77.803 79.2313 75.9493 79.2494 74.0745V74.0292L79.2918 74.008C81.0314 73.1163 82.6451 71.9978 84.0907 70.6817L84.1269 70.6515H84.1723L89.2766 72.5112L89.1859 72.5414L94.0543 64.9817V65.0785L90.2503 61.1988L90.217 61.1656V61.1202C90.8202 59.2604 91.171 57.328 91.2603 55.3749V55.3295L91.3026 55.3083L96.2315 53.0132L96.1892 53.0979C95.5401 50.0962 94.9061 47.166 94.2872 44.3075L94.3567 44.3649L88.9137 44.3105H88.8684L88.8502 44.2712C87.9609 42.5283 86.8422 40.9123 85.524 39.4662L85.4968 39.436V39.3967L87.3564 34.2924L87.3837 34.368L79.824 29.4965H79.8996L76.0169 33.3005L75.9927 33.3247H75.9594C74.0995 32.7216 72.1672 32.3697 70.2141 32.2785H70.1838V32.2512L67.9099 27.3647L67.9613 27.3889L59.1678 29.2818L59.195 29.2485C59.1709 31.4257 59.1527 33.2068 59.1346 34.6915V34.7066C57.8192 35.3763 56.5734 36.1745 55.4152 37.0895C55.0342 37.3918 54.759 37.6307 54.5746 37.788C54.3901 37.9452 54.3024 38.0238 54.3024 38.0238C54.3024 38.0238 54.6411 37.6852 55.4001 37.0713C56.5512 36.1406 57.7944 35.33 59.1104 34.6522V34.6764C59.1104 33.1977 59.1376 31.4167 59.1527 29.2334V29.2062H59.1799L67.9673 27.2891H68.0036V27.3223C68.7172 28.8343 69.4702 30.4551 70.3078 32.2452L70.2624 32.218C72.2284 32.3053 74.1739 32.6552 76.0471 33.2582H75.9897L79.8512 29.4572L79.8844 29.4239L79.9268 29.4481L87.4865 34.3135L87.5318 34.3407L87.5137 34.3922C86.9089 36.0492 86.3041 37.7456 85.657 39.4965L85.6419 39.4269C86.97 40.8833 88.0978 42.5104 88.9954 44.2651L88.9319 44.2258L94.3749 44.2772H94.4323V44.3347C95.0532 47.1912 95.6892 50.1204 96.3404 53.1221V53.1825L96.286 53.2067L91.3601 55.5049L91.4024 55.4384C91.314 57.4067 90.9621 59.3543 90.3561 61.2291L90.338 61.1505L94.1451 65.0301L94.1874 65.0724L94.1541 65.1269L89.2857 72.6866L89.2524 72.738L89.195 72.7168L84.0876 70.8571L84.1693 70.842C82.7126 72.1681 81.0855 73.2938 79.3311 74.1894L79.3734 74.1199C79.3553 75.9856 79.3371 77.8393 79.322 79.5629V79.6233L79.2585 79.6385L70.4711 81.5405L70.4106 81.5556L70.3834 81.4981L68.0883 76.5722L68.1518 76.6146C66.1844 76.5243 64.2379 76.1714 62.3641 75.5653L62.4397 75.5472L58.5812 79.3512L58.5389 79.3905L58.4905 79.3603L50.9308 74.4888L50.8824 74.4586L50.9005 74.4041C51.5507 72.6291 52.1857 70.8813 52.7633 69.2998V69.3694C51.4383 67.9125 50.3136 66.2854 49.4188 64.5312L49.4763 64.5644L44.0333 64.51H43.9849V64.4616C43.3197 61.3773 42.6847 58.438 42.0859 55.6712V55.6289L42.1252 55.6077L47.0542 53.3156L47.027 53.361C47.1191 51.4029 47.4709 49.4658 48.0732 47.6005V47.6458L44.2722 43.7632L44.248 43.742L44.2662 43.7148L49.1467 36.1551V36.1369H49.1648L52.9598 37.534L53.9335 37.8938L54.3024 38.0238Z" fill="#263238"/>
<path d="M94.6411 83.7812L77.1328 94.9696H134.529V83.7812H94.6411Z" fill="#455A64"/>
<path d="M127.016 76.875V77.9999V101.879L143.314 89.3757L127.016 76.875Z" fill="#455A64"/>
<path d="M105.703 88.875H106.175V90.5381H107.215V90.9222H105.703V88.875Z" fill="#263238"/>
<path d="M108.834 90.4807H107.884L107.703 90.9161H107.219L108.126 88.875H108.595L109.502 90.9161H109.006L108.834 90.4807ZM108.682 90.1208L108.359 89.3286L108.035 90.1087L108.682 90.1208Z" fill="#263238"/>
<path d="M109.656 90.018V88.875H110.128V89.9999C110.128 90.39 110.297 90.5502 110.585 90.5502C110.872 90.5502 111.038 90.39 111.038 89.9999V88.875H111.507V90.018C111.507 90.2634 111.409 90.4988 111.236 90.6723C111.062 90.8458 110.827 90.9433 110.582 90.9433C110.336 90.9433 110.101 90.8458 109.927 90.6723C109.754 90.4988 109.656 90.2634 109.656 90.018Z" fill="#263238"/>
<path d="M113.848 88.875V90.9161H113.461L112.442 89.6763V90.9161H111.977V88.875H112.361L113.374 90.1148V88.875H113.848Z" fill="#263238"/>
<path d="M114.203 89.8991C114.217 89.6793 114.295 89.4684 114.427 89.2925C114.559 89.1166 114.74 88.9833 114.948 88.9093C115.155 88.8352 115.379 88.8237 115.593 88.876C115.807 88.9283 116.001 89.0422 116.151 89.2036L115.848 89.4848C115.786 89.4091 115.707 89.3483 115.618 89.307C115.529 89.2656 115.432 89.2448 115.334 89.2459C115.161 89.2459 114.995 89.3147 114.872 89.4372C114.75 89.5597 114.681 89.7258 114.681 89.8991C114.681 90.0723 114.75 90.2384 114.872 90.3609C114.995 90.4834 115.161 90.5522 115.334 90.5522C115.432 90.5534 115.53 90.5323 115.619 90.4904C115.708 90.4485 115.786 90.3869 115.848 90.3103L116.151 90.5885C116.002 90.751 115.808 90.8662 115.595 90.9195C115.381 90.9729 115.156 90.9622 114.949 90.8886C114.741 90.8151 114.559 90.682 114.427 90.5061C114.294 90.3301 114.216 90.119 114.203 89.8991Z" fill="#263238"/>
<path d="M118.333 88.875V90.9161H117.861V90.0815H116.933V90.9161H116.461V88.875H116.933V89.6794H117.861V88.875H118.333Z" fill="#263238"/>
<path d="M23.9862 55.862C25.7824 78.6409 44.8933 96.6239 68.1349 96.6239V85.4356C59.3607 85.4284 50.9477 81.9405 44.7423 75.7373C38.5369 69.5342 35.0459 61.1225 35.0355 52.3483C35.0355 52.3483 35.5344 46.5727 35.8822 44.834L24.8662 42.7656C24.464 44.7402 23.826 53.8542 23.9862 55.862Z" fill="#FF725E"/>
<path d="M38.1991 75.0884L38.0086 75.7506V75.7688L38.2686 76.0893L38.7101 75.7295L39.0125 76.0923L37.434 77.3866L36.8746 76.7032C36.5299 76.2798 36.5329 75.8383 36.8746 75.548C36.9776 75.4564 37.1066 75.399 37.2436 75.3838C37.3807 75.3687 37.5191 75.3965 37.6396 75.4634L37.8574 74.6953L38.1991 75.0884ZM37.1982 76.4794L37.4431 76.7818L37.9934 76.3312L37.7485 76.0288C37.5671 75.8051 37.3705 75.7779 37.1982 75.917C37.0258 76.0561 37.0167 76.2556 37.1982 76.4794Z" fill="#263238"/>
<path d="M36.4548 73.3987L36.7571 73.1719L37.6945 74.4419L36.0556 75.6515L35.1484 74.4117L35.4508 74.1849L36.0858 75.0497L36.4427 74.7866L35.8802 74.0246L36.1826 73.8069L36.7451 74.5689L37.123 74.2877L36.4548 73.3987Z" fill="#263238"/>
<path d="M33.7812 72.3944L35.9675 71.9922L36.2276 72.3792L35.018 74.245L34.7338 73.8216L35.5986 72.4941L34.0383 72.7814L33.7812 72.3944Z" fill="#263238"/>
<path d="M33.6729 72.2161L33.4219 71.8139L35.1546 70.7344L35.4055 71.1335L33.6729 72.2161Z" fill="#263238"/>
<path d="M33.7836 69.1593L34.1132 68.9688L34.9055 70.3355L33.1335 71.3606L32.3594 70.0271L32.689 69.8366L33.2272 70.7649L33.6113 70.5412L33.1335 69.7217L33.454 69.5372L33.9288 70.3567L34.337 70.1208L33.7836 69.1593Z" fill="#263238"/>
<path d="M30.7109 66.8765L32.8277 66.5469L33.0605 66.9974L32.0324 68.0256L33.4748 67.8109L33.7016 68.2584L32.1896 69.7703L31.9689 69.3349L33.0363 68.2735L31.5395 68.4943L31.3429 68.1072L32.4164 67.0337L30.9045 67.2666L30.7109 66.8765Z" fill="#263238"/>
<path d="M42.7505 42.0639L20.7578 36.0312L27.873 53.1978L42.7505 42.0639Z" fill="#455A64"/>
<path d="M37.1443 41.6372C39.4817 35.2764 43.7126 29.7847 49.2668 25.9022C54.8211 22.0197 61.4319 19.9328 68.2086 19.9227V8.73438C49.0644 8.73438 32.7204 20.9448 26.5547 37.9874L37.1443 41.6372Z" fill="#455A64"/>
<path d="M38.6875 26.3857L39.4525 25.8626C40.0059 25.4846 40.6107 25.5602 40.9645 26.0712C41.3183 26.5823 41.161 27.1719 40.6107 27.5469L39.8456 28.07L38.6875 26.3857ZM40.3658 27.2415C40.4414 27.1978 40.5073 27.1389 40.5592 27.0686C40.6111 26.9982 40.6479 26.918 40.6673 26.8328C40.6867 26.7476 40.6884 26.6593 40.6721 26.5734C40.6559 26.4875 40.622 26.4059 40.5728 26.3337C40.5236 26.2615 40.4599 26.2003 40.3859 26.1538C40.3119 26.1073 40.2291 26.0766 40.1427 26.0636C40.0563 26.0506 39.9681 26.0556 39.8837 26.0782C39.7993 26.1009 39.7204 26.1407 39.6521 26.1952L39.2953 26.4401L40.0089 27.4834L40.3658 27.2415Z" fill="#263238"/>
<path d="M42.9209 25.5079L43.1356 25.8103L41.8293 26.6993L40.6953 25.0271L41.9684 24.1562L42.1831 24.4586L41.2971 25.0634L41.545 25.4293L42.3131 24.9213L42.5187 25.2237L41.7386 25.7589L42.0047 26.149L42.9209 25.5079Z" fill="#263238"/>
<path d="M44.1669 23.5391C44.4239 23.9171 44.303 24.3434 43.8645 24.6488L43.5258 24.8817L43.8282 25.3474L43.4412 25.6135L42.2891 23.9261L43.0178 23.4272C43.4684 23.1097 43.9099 23.1611 44.1669 23.5391ZM43.7738 23.8112C43.6468 23.6238 43.4533 23.5996 43.2144 23.7598L42.912 23.9776L43.3111 24.5642L43.6135 24.3465C43.8524 24.1832 43.8978 23.9927 43.7738 23.8112Z" fill="#263238"/>
<path d="M44.0156 22.7427L44.4057 22.4766L45.3401 23.8434L46.1837 23.2658L46.4015 23.5682L45.1647 24.4118L44.0156 22.7427Z" fill="#263238"/>
<path d="M45.9215 22.6785C45.7842 22.5011 45.7034 22.2865 45.6896 22.0626C45.6758 21.8388 45.7296 21.6159 45.8441 21.423C45.9586 21.23 46.1284 21.076 46.3315 20.9808C46.5346 20.8856 46.7616 20.8536 46.9831 20.8891C47.2046 20.9245 47.4103 21.0257 47.5736 21.1795C47.7369 21.3333 47.8501 21.5327 47.8987 21.7517C47.9472 21.9707 47.9288 22.1992 47.8458 22.4076C47.7629 22.6161 47.6192 22.7947 47.4334 22.9204C47.3195 23.0071 47.1891 23.0697 47.0503 23.1045C46.9115 23.1393 46.767 23.1456 46.6257 23.123C46.4843 23.1004 46.3491 23.0493 46.228 22.9729C46.107 22.8965 46.0027 22.7964 45.9215 22.6785ZM47.3729 21.6867C47.2991 21.5858 47.1972 21.5088 47.08 21.4653C46.9628 21.4218 46.8353 21.4137 46.7135 21.442C46.5917 21.4703 46.481 21.5338 46.3949 21.6245C46.3089 21.7153 46.2515 21.8293 46.2297 21.9525C46.208 22.0756 46.2229 22.2024 46.2726 22.3171C46.3223 22.4319 46.4046 22.5295 46.5093 22.5978C46.6141 22.6661 46.7366 22.7022 46.8616 22.7015C46.9866 22.7008 47.1087 22.6634 47.2127 22.5939C47.286 22.5475 47.3488 22.4864 47.3971 22.4144C47.4454 22.3424 47.4782 22.2611 47.4932 22.1757C47.5083 22.0903 47.5054 22.0027 47.4847 21.9185C47.464 21.8343 47.4259 21.7553 47.3729 21.6867Z" fill="#263238"/>
<path d="M48.9668 20.9658L49.372 21.5706L48.9819 21.8367L48.5737 21.2319L47.1797 20.5939L47.594 20.3127L48.5525 20.7481L48.4921 19.6897L48.8761 19.4297L48.9668 20.9658Z" fill="#263238"/>
<path d="M74.5222 28.1243L59.9531 12.1854L78.5439 1.65625L74.5222 28.1243Z" fill="#E0E0E0"/>
<path d="M94.6259 30.5801C91.5196 27.0245 87.6885 24.1747 83.3899 22.222C79.0912 20.2693 74.4245 19.2589 69.7031 19.2587V8.07031C76.02 8.07085 82.2636 9.4224 88.0152 12.0343C93.7667 14.6462 98.8932 18.458 103.05 23.2139L94.6259 30.5801Z" fill="#E0E0E0"/>
<path d="M82.0345 15.5458L81.4297 15.313L81.5658 14.9531L83.2289 15.5881L83.0898 15.948L82.485 15.7151L81.8802 17.2603L81.4418 17.091L82.0345 15.5458Z" fill="#263238"/>
<path d="M84.3413 17.7886L84.2083 18.1454L82.7266 17.5769L83.4583 15.6719L84.8977 16.2252L84.7616 16.579L83.7607 16.195L83.6005 16.6093L84.4865 16.948L84.3564 17.2896L83.4704 16.951L83.3011 17.3925L84.3413 17.7886Z" fill="#263238"/>
<path d="M84.4766 18.0332L84.7517 17.758C84.8885 17.956 85.0812 18.1086 85.3051 18.1965C85.5682 18.2963 85.7073 18.2509 85.7526 18.133C85.8887 17.7762 84.6852 17.5978 84.9574 16.8902C85.0813 16.5666 85.4472 16.3973 85.9885 16.5878C86.2246 16.6717 86.4336 16.818 86.5933 17.0111L86.3302 17.2954C86.2057 17.1391 86.0433 17.0173 85.8585 16.9416C85.5984 16.8418 85.4593 16.9023 85.414 17.0202C85.2779 17.374 86.4784 17.5554 86.2123 18.2539C86.0883 18.5563 85.7224 18.7438 85.1751 18.5352C84.8962 18.4435 84.6524 18.2682 84.4766 18.0332Z" fill="#263238"/>
<path d="M87.261 17.538L86.6562 17.3052L86.7923 16.9453L88.4524 17.5803L88.3164 17.9402L87.7116 17.7073L87.1068 19.2525L86.6562 19.0862L87.261 17.538Z" fill="#263238"/>
<path d="M108.965 72.7466L98.8352 67.996C100.898 63.5963 102.79 57.2522 102.79 52.3475C102.806 47.1606 101.591 42.044 99.2435 37.4186C98.8352 36.6112 97.3535 33.929 96.9453 33.2547L106.519 27.4609C107.106 28.4346 108.726 31.392 109.222 32.3626C112.369 38.5532 113.999 45.403 113.979 52.3475C113.979 58.9063 111.732 66.847 108.965 72.7466Z" fill="#FF725E"/>
<path d="M93.0078 38.3554L112.061 25.8184L94.4714 19.8281L93.0078 38.3554Z" fill="#FF725E"/>
<path d="M107.306 40.4297L107.557 41.3217C107.739 41.9658 107.476 42.5313 106.883 42.6825C106.29 42.8337 105.776 42.5192 105.595 41.8781L105.344 40.971L107.306 40.4297ZM105.961 41.7481C105.973 41.8384 106.004 41.9251 106.052 42.0023C106.101 42.0794 106.165 42.1453 106.241 42.1954C106.317 42.2455 106.403 42.2786 106.493 42.2925C106.583 42.3064 106.675 42.3008 106.763 42.276C106.85 42.2513 106.932 42.2079 107.001 42.149C107.071 42.09 107.127 42.0168 107.165 41.9343C107.204 41.8518 107.224 41.762 107.225 41.6709C107.226 41.5798 107.207 41.4896 107.17 41.4064L107.052 40.9891L105.843 41.3338L105.961 41.7481Z" fill="#263238"/>
<path d="M106.685 44.7362L106.316 44.8178L105.969 43.2787L107.955 42.8281L108.297 44.3401L107.928 44.4247L107.692 43.3785L107.26 43.4783L107.469 44.3854L107.109 44.4671L106.9 43.5418L106.44 43.6476L106.685 44.7362Z" fill="#263238"/>
<path d="M108.728 46.7084L106.566 46.1974L106.484 45.7408L108.338 44.5312L108.426 45.0332L107.101 45.898L108.646 46.2639L108.728 46.7084Z" fill="#263238"/>
<path d="M107.332 48.7324L106.954 48.7838L106.742 47.2175L108.765 46.9453L108.971 48.4573L108.596 48.5056L108.451 47.4443L108.012 47.5047L108.139 48.4421L107.776 48.4905L107.649 47.5531L107.181 47.6166L107.332 48.7324Z" fill="#263238"/>
<path d="M109.032 48.9453L109.077 49.417L107.429 49.5713L107.523 50.5903L107.142 50.6266L107 49.1388L109.032 48.9453Z" fill="#263238"/>
<path d="M108.161 50.6549C108.383 50.6309 108.608 50.6744 108.806 50.7797C109.004 50.885 109.165 51.0472 109.27 51.2454C109.374 51.4436 109.417 51.6686 109.392 51.8912C109.367 52.1139 109.276 52.324 109.131 52.4943C108.985 52.6646 108.792 52.7873 108.575 52.8464C108.359 52.9056 108.131 52.8985 107.918 52.826C107.706 52.7536 107.521 52.6192 107.386 52.4402C107.252 52.2612 107.174 52.0459 107.163 51.8221C107.147 51.679 107.16 51.5342 107.203 51.3967C107.245 51.2591 107.315 51.1317 107.409 51.0223C107.502 50.9129 107.617 50.8238 107.747 50.7606C107.876 50.6974 108.017 50.6614 108.161 50.6549ZM108.248 52.4057C108.373 52.3966 108.493 52.3508 108.593 52.2739C108.692 52.1971 108.766 52.0926 108.807 51.9737C108.847 51.8547 108.851 51.7265 108.819 51.6052C108.786 51.4838 108.719 51.3747 108.625 51.2915C108.531 51.2083 108.414 51.1547 108.29 51.1374C108.166 51.1201 108.039 51.1398 107.926 51.1942C107.813 51.2486 107.718 51.3352 107.654 51.4431C107.59 51.551 107.559 51.6755 107.565 51.8009C107.567 51.8864 107.587 51.9704 107.624 52.0479C107.66 52.1253 107.712 52.1945 107.776 52.2512C107.84 52.3078 107.915 52.3508 107.996 52.3773C108.077 52.4039 108.163 52.4136 108.248 52.4057Z" fill="#263238"/>
<path d="M108.569 55.0316C108.112 55.0316 107.828 54.6929 107.828 54.1486V53.7373H107.266V53.2656H109.304V54.1486C109.307 54.6868 109.035 55.0286 108.569 55.0316ZM108.569 54.5538C108.793 54.5538 108.923 54.4056 108.923 54.1184V53.7343H108.215V54.1214C108.212 54.4087 108.345 54.5568 108.566 54.5568L108.569 54.5538Z" fill="#263238"/>
<path d="M69.7029 96.6207H34V85.4324H69.7029C74.7955 85.4507 79.8227 84.2857 84.3881 82.0293C88.9535 79.7728 92.9323 76.4865 96.0107 72.4297L104.898 79.2274C100.779 84.654 95.456 89.0497 89.3484 92.0681C83.2408 95.0865 76.5156 96.645 69.7029 96.6207Z" fill="#FF725E"/>
<path d="M90.3516 69.6279L109.335 82.2647L107.975 63.7344L90.3516 69.6279Z" fill="#FF725E"/>
<g opacity="0.3">
<path d="M109.334 82.2647L107.973 63.7344L90.35 69.6279L95.4906 73.06C92.4017 76.9363 88.4756 80.0632 84.0065 82.2067C79.5374 84.3501 74.6413 85.4543 69.6848 85.4368H34V96.6251H69.7029C76.5041 96.6489 83.218 95.0949 89.317 92.0853C95.4161 89.0756 100.734 84.6924 104.853 79.2801L109.334 82.2647Z" fill="black"/>
</g>
<path d="M90.0862 84.6355C90.3584 84.9983 90.2556 85.4308 89.8232 85.7573L89.4936 86.0053L89.8322 86.4528L89.4543 86.7371L88.2266 85.1012L88.9311 84.5689C89.3756 84.2484 89.8111 84.2696 90.0862 84.6355ZM89.7022 84.9379C89.5692 84.7595 89.3726 84.7413 89.1428 84.9137L88.8404 85.1465L89.2668 85.712L89.5692 85.4822C89.799 85.2917 89.8383 85.1012 89.7022 84.9227V84.9379Z" fill="#263238"/>
<path d="M89.9062 83.8389L90.2842 83.5547L91.2791 84.8761L92.0955 84.2713L92.3284 84.5737L91.1339 85.4809L89.9062 83.8389Z" fill="#263238"/>
<path d="M93.3708 83.2373L92.6148 83.8088L92.7328 84.2654L92.3457 84.5678L91.8438 82.3906L92.2157 82.1094L94.1752 83.1919L93.779 83.4943L93.3708 83.2373ZM93.0352 83.0407L92.3064 82.6113L92.5181 83.4308L93.0352 83.0407Z" fill="#263238"/>
<path d="M94.6049 80.2969L95.8326 81.9267L95.5302 82.1626L93.9699 81.7846L94.7168 82.7734L94.3449 83.0547L93.1172 81.4248L93.4196 81.1889L94.9738 81.5669L94.23 80.5781L94.6049 80.2969Z" fill="#263238"/>
<path d="M31.0312 78.5234V103.531L47.1213 91.0272L31.0312 78.5234Z" fill="#E0E0E0"/>
<path d="M34.0033 85.4297H0.601562V96.618H34.0033V85.4297Z" fill="#E0E0E0"/>
<path d="M14.9126 90.6471C14.9126 91.1007 14.5709 91.3849 14.0236 91.3849H13.6123V91.9474H13.1406V89.9062H14.0236C14.5709 89.9062 14.9126 90.1905 14.9126 90.6471ZM14.4318 90.6471C14.4318 90.4233 14.2867 90.2903 13.9994 90.2903H13.6123V91.0009H13.9994C14.2867 91.0009 14.4318 90.8678 14.4318 90.6471Z" fill="#263238"/>
<path d="M15.2495 89.9062H15.7212V91.5633H16.7463V91.9474H15.2344L15.2495 89.9062Z" fill="#263238"/>
<path d="M18.3726 91.5119H17.4231L17.2447 91.9474H16.7578L17.665 89.9062H18.1337L19.0408 91.9474H18.554L18.3726 91.5119ZM18.2244 91.143L17.9008 90.3598L17.5743 91.143H18.2244Z" fill="#263238"/>
<path d="M21.1374 89.9062V91.9474H20.7383L19.7192 90.7076V91.9474H19.2656V89.9062H19.6557L20.6687 91.146V89.9062H21.1374Z" fill="#263238"/>
<path d="M133.298 139.916C133.298 139.961 105.644 139.997 71.544 139.997C37.4437 139.997 9.78125 139.961 9.78125 139.916C9.78125 139.87 37.4286 139.828 71.541 139.828C105.653 139.828 133.298 139.873 133.298 139.916Z" fill="#263238"/>
<path d="M59.2082 44.8473L55.882 44.1034C54.5669 45.5993 52.7397 46.549 50.7599 46.7659C48.78 46.9828 46.7906 46.4512 45.1828 45.2757C43.575 44.1001 42.4651 42.3655 42.0715 40.4131C41.6778 38.4606 42.0287 36.4316 43.0553 34.7248C44.0819 33.018 45.7099 31.757 47.6192 31.1898C49.5284 30.6225 51.5808 30.79 53.3728 31.6593C55.1648 32.5287 56.5667 34.0369 57.303 35.8876C58.0393 37.7382 58.0566 39.7974 57.3516 41.6601L59.2082 44.8473Z" fill="white"/>
<path d="M59.2117 44.8465L57.3974 41.6412C57.3914 41.6363 57.384 41.6336 57.3762 41.6336C57.3685 41.6336 57.361 41.6363 57.3551 41.6412L57.4095 41.6684C57.9138 40.3575 58.0609 38.9363 57.8359 37.5499C57.7723 37.1383 57.671 36.7334 57.5335 36.3403C57.4579 36.1347 57.3883 35.9261 57.3067 35.7174L57.0043 35.1126C56.0463 33.302 54.4305 31.9276 52.4896 31.2723C51.4214 30.9067 50.2875 30.7727 49.1634 30.8792C47.9756 31.0014 46.8294 31.3845 45.8069 32.0011C44.7362 32.6417 43.8334 33.5279 43.1731 34.5865C42.4904 35.6632 42.0757 36.8878 41.9635 38.1577C41.8661 39.3718 42.0428 40.5923 42.4806 41.7289C42.8892 42.8058 43.5316 43.7786 44.3615 44.5774C45.8523 46.0128 47.8378 46.8204 49.9073 46.8332C50.7818 46.8232 51.6496 46.6794 52.4806 46.4068C53.8043 45.9604 54.9863 45.1717 55.9066 44.1208H55.8794L59.2057 44.8374L55.8794 44.0633C55.8747 44.0612 55.8695 44.06 55.8643 44.06C55.8591 44.06 55.8539 44.0612 55.8492 44.0633C54.9308 45.0992 53.7552 45.8742 52.4413 46.3101C51.6185 46.576 50.7599 46.7147 49.8952 46.7213C47.8525 46.7007 45.8951 45.8989 44.425 44.4806C43.6109 43.6896 42.9802 42.7296 42.5774 41.6684C42.1468 40.548 41.9742 39.3449 42.0724 38.1486C42.18 36.8997 42.5854 35.6948 43.2547 34.6349C43.9029 33.5906 44.7914 32.7166 45.8462 32.0857C46.8586 31.4838 47.9912 31.1122 49.1634 30.9971C50.2725 30.8882 51.392 31.017 52.4473 31.3751C54.3543 32.0223 55.9456 33.3673 56.9015 35.1399C56.9983 35.3455 57.095 35.5481 57.2039 35.7446C57.3127 35.9412 57.3551 36.1559 57.4307 36.3494C57.5664 36.7431 57.6675 37.1478 57.7331 37.559C57.9594 38.9314 57.8207 40.3393 57.3309 41.6412C57.3294 41.645 57.3288 41.649 57.3289 41.653C57.329 41.6571 57.33 41.661 57.3317 41.6647C57.3334 41.6683 57.3358 41.6716 57.3387 41.6743C57.3417 41.6771 57.3452 41.6792 57.349 41.6805C57.3538 41.6842 57.3596 41.6862 57.3657 41.6862C57.3717 41.6862 57.3775 41.6842 57.3823 41.6805H57.3279L59.2117 44.8465Z" fill="#263238"/>
<path d="M45.5391 39.0055L46.6791 37.8654L48.8805 39.8219L53.2016 35.6641L54.2599 36.8041L48.7172 42.0203L45.5391 39.0055Z" fill="#FF725E"/>
</svg>
