<svg width="36" height="36" viewBox="0 0 36 36" fill="none" xmlns="http://www.w3.org/2000/svg">
<path d="M31 2H5C3.343 2 2 3.343 2 5V31C2 32.657 3.343 34 5 34H31C32.657 34 34 32.657 34 31V5C34 3.343 32.657 2 31 2Z" fill="#CCD6DD"/>
<path d="M31 1H5C2.791 1 1 2.791 1 5V31C1 33.209 2.791 35 5 35H31C33.209 35 35 33.209 35 31V5C35 2.791 33.209 1 31 1ZM31 3C32.103 3 33 3.897 33 5V9H27V3H31ZM27 19H33V25H27V19ZM27 17V11H33V17H27ZM25 3V9H19V3H25ZM19 11H25V17H19V11ZM19 19H25V25H19V19ZM17 3V9H11V3H17ZM11 11H17V17H11V11ZM11 19H17V25H11V19ZM3 5C3 3.897 3.897 3 5 3H9V9H3V5ZM3 11H9V17H3V11ZM3 19H9V25H3V19ZM5 33C3.897 33 3 32.103 3 31V27H9V33H5ZM11 33V27H17V33H11ZM19 33V27H25V33H19ZM31 33H27V27H33V31C33 32.103 32.103 33 31 33Z" fill="#E1E8ED"/>
<path d="M4.99818 33.0004C4.67818 33.0004 4.35318 32.9244 4.05218 32.7614C3.07918 32.2384 2.71618 31.0254 3.23918 30.0524L10.2392 17.0524C10.5382 16.4954 11.0842 16.1134 11.7092 16.0214C12.3352 15.9294 12.9672 16.1394 13.4142 16.5864L19.4902 22.6624L29.2282 4.07245C29.7402 3.09445 30.9492 2.71545 31.9272 3.22945C32.9062 3.74145 33.2832 4.95045 32.7712 5.92945L21.7712 26.9294C21.4762 27.4934 20.9302 27.8824 20.3012 27.9794C19.6742 28.0704 19.0352 27.8664 18.5852 27.4164L12.4852 21.3174L6.76118 31.9484C6.40018 32.6194 5.71018 33.0004 4.99818 33.0004Z" fill="#DD2E44"/>
</svg>
