<svg width="36" height="36" viewBox="0 0 36 36" fill="none" xmlns="http://www.w3.org/2000/svg">
<path d="M7 11H29V29H7V11Z" fill="#292F33"/>
<path d="M8 29C8 30.104 7.403 31 6.667 31H5.333C4.597 31 4 30.104 4 29V11C4 9.896 4.597 9 5.333 9H6.666C7.403 9 8 9.896 8 11V29ZM32 29C32 30.104 31.403 31 30.667 31H29.333C28.597 31 28 30.104 28 29V11C28 9.896 28.597 9 29.333 9H30.667C31.403 9 32 9.896 32 11V29ZM16 29C16 30.104 15.403 31 14.667 31H13.334C12.597 31 12 30.104 12 29V11C12 9.896 12.597 9 13.333 9H14.666C15.403 9 16 9.896 16 11V29ZM24 29C24 30.104 23.402 31 22.666 31H21.334C20.598 31 20 30.104 20 29V11C20 9.896 20.598 9 21.334 9H22.666C23.402 9 24 9.896 24 11V29Z" fill="#CCD6DD"/>
<path d="M33 30C33 31.104 32.104 32 31 32H5C3.896 32 3 31.104 3 30C3 28.896 3.896 28 5 28H31C32.104 28 33 28.896 33 30Z" fill="#9AAAB4"/>
<path d="M35 32C35 33.104 34.104 34 33 34H3C1.896 34 1 33.104 1 32C1 30.896 1.896 30 3 30H33C34.104 30 35 30.896 35 32Z" fill="#CCD6DD"/>
<path d="M36 33.5C36 34.328 35.328 35 34.5 35H1.5C0.671 35 0 34.328 0 33.5C0 32.672 0.671 32 1.5 32H34.5C35.328 32 36 32.672 36 33.5Z" fill="#E1E8ED"/>
<path d="M33 10C33 8.896 32.044 8 30.867 8H5C3.821 8 3 8.896 3 10C3 10.751 3.386 11.398 4 11.74V13H8V12H12V13H16V12H20V13H24V12H28V13H32V11.688C32.599 11.334 33 10.713 33 10Z" fill="#9AAAB4"/>
<path d="M2 8.444C2 7.413 3.012 7 3.012 7L17.916 0L32.963 7C32.963 7 34 7.231 34 8.45V9H2V8.444Z" fill="#CCD6DD"/>
<path d="M18.0002 2.53906C18.0002 2.53906 7.68116 7.40406 6.65016 7.84106C5.61916 8.27806 5.96416 8.99706 6.65116 8.99706H29.2972C30.3592 8.99706 30.1092 8.18506 29.2662 7.74706C28.4222 7.30906 18.0002 2.53906 18.0002 2.53906Z" fill="#9AAAB4"/>
<path d="M34 9C34 9.552 33.553 10 33 10H3C2.448 10 2 9.552 2 9C2 8.448 2.448 8 3 8L33 8.006C33.553 8.006 34 8.448 34 9Z" fill="#CCD6DD"/>
</svg>
