<svg width="36" height="36" viewBox="0 0 36 36" fill="none" xmlns="http://www.w3.org/2000/svg">
<path d="M32 34C32 35.104 31.104 36 30 36H6C4.896 36 4 35.104 4 34V7C4 5.896 4.896 5 6 5H30C31.104 5 32 5.896 32 7V34Z" fill="#C1694F"/>
<path d="M29 32C29 32.553 28.553 33 28 33H8C7.448 33 7 32.553 7 32V9C7 8.448 7.448 8 8 8H28C28.553 8 29 8.448 29 9V32Z" fill="white"/>
<path d="M25 3H21C21 1.343 19.657 0 18 0C16.343 0 15 1.343 15 3H11C9.896 3 9 3.896 9 5V10H27V5C27 3.896 26.104 3 25 3Z" fill="#CCD6DD"/>
<path d="M18 5C19.1046 5 20 4.10457 20 3C20 1.89543 19.1046 1 18 1C16.8954 1 16 1.89543 16 3C16 4.10457 16.8954 5 18 5Z" fill="#292F33"/>
<path d="M20 14C20 14.552 19.553 15 19 15H10C9.448 15 9 14.552 9 14C9 13.448 9.448 13 10 13H19C19.553 13 20 13.448 20 14ZM27 18C27 18.552 26.553 19 26 19H10C9.448 19 9 18.552 9 18C9 17.448 9.448 17 10 17H26C26.553 17 27 17.448 27 18ZM27 22C27 22.553 26.553 23 26 23H10C9.448 23 9 22.553 9 22C9 21.447 9.448 21 10 21H26C26.553 21 27 21.447 27 22ZM27 26C27 26.553 26.553 27 26 27H10C9.448 27 9 26.553 9 26C9 25.447 9.448 25 10 25H26C26.553 25 27 25.447 27 26ZM27 30C27 30.553 26.553 31 26 31H17C16.448 31 16 30.553 16 30C16 29.447 16.448 29 17 29H26C26.553 29 27 29.447 27 30Z" fill="#99AAB5"/>
</svg>
