<svg xmlns="http://www.w3.org/2000/svg" data-name="Layer 1" viewBox="0 0 32 32" id="clock"><circle cx="16" cy="16" r="13.5" fill="#fff"></circle><path fill="#e0e0e2" d="M4.5,16A13.49127,13.49127,0,0,1,17,2.55048C16.66864,2.52612,16.33759,2.5,16,2.5a13.5,13.5,0,0,0,0,27c.33759,0,.66864-.02612,1-.05048A13.49131,13.49131,0,0,1,4.5,16Z"></path><path fill="#3c3b41" d="M16 6a.49971.49971 0 0 1-.5-.5v-2a.5.5 0 0 1 1 0v2A.49971.49971 0 0 1 16 6zM16 29a.49971.49971 0 0 1-.5-.5v-2a.5.5 0 0 1 1 0v2A.49971.49971 0 0 1 16 29zM5.5 16.5h-2a.5.5 0 0 1 0-1h2a.5.5 0 0 1 0 1zM28.5 16.5h-2a.5.5 0 0 1 0-1h2a.5.5 0 0 1 0 1zM8.5752 9.0752a.49838.49838 0 0 1-.35352-.14648L6.80762 7.51465a.49995.49995 0 0 1 .707-.707L8.92871 8.22168a.5.5 0 0 1-.35352.85352zM24.83887 25.33887a.49838.49838 0 0 1-.35352-.14648l-1.41406-1.41406a.49995.49995 0 0 1 .707-.707l1.41406 1.41406a.5.5 0 0 1-.35352.85352zM7.16113 25.33887a.5.5 0 0 1-.35352-.85352l1.41406-1.41406a.49995.49995 0 0 1 .707.707L7.51465 25.19238A.49838.49838 0 0 1 7.16113 25.33887zM23.4248 9.0752a.5.5 0 0 1-.35352-.85352l1.41406-1.41406a.49995.49995 0 0 1 .707.707L23.77832 8.92871A.49838.49838 0 0 1 23.4248 9.0752zM16 15a.49971.49971 0 0 1-.5-.5v-6a.5.5 0 0 1 1 0v6A.49971.49971 0 0 1 16 15zM21.5 16.5h-4a.5.5 0 0 1 0-1h4a.5.5 0 0 1 0 1z"></path><circle cx="16" cy="16" r="1.5" fill="#e5303e"></circle><path fill="#e5303e" d="M16,.5A15.5,15.5,0,1,0,31.5,16,15.5,15.5,0,0,0,16,.5Zm0,28A12.5,12.5,0,1,1,28.5,16,12.5,12.5,0,0,1,16,28.5Z"></path><path fill="#b72732" d="M1.5,16A15.48877,15.48877,0,0,1,16.5.52527C16.33252.5199,16.16882.5,16,.5a15.5,15.5,0,0,0,0,31c.16882,0,.33252-.0199.5-.02527A15.48877,15.48877,0,0,1,1.5,16Z"></path></svg>