<svg width="191" height="141" viewBox="0 0 191 141" fill="none" xmlns="http://www.w3.org/2000/svg">
<path d="M41.0914 107.021C26.7652 106.728 16.9879 79.5644 24.4377 60.8299C34.5985 35.2797 81.9322 20.384 111.298 20.4219C126.71 20.4219 151.167 20.4219 164.836 51.0032C172.077 67.1975 171.082 113.768 148.023 119.942C111.549 129.712 111.602 93.2564 97.143 91.6085C76.5214 89.2582 73.2939 107.659 41.0914 107.021Z" fill="#407BFF"/>
<path opacity="0.9" d="M41.0914 107.021C26.7652 106.728 16.9879 79.5644 24.4377 60.8299C34.5985 35.2797 81.9322 20.384 111.298 20.4219C126.71 20.4219 151.167 20.4219 164.836 51.0032C172.077 67.1975 171.082 113.768 148.023 119.942C111.549 129.712 111.602 93.2564 97.143 91.6085C76.5214 89.2582 73.2939 107.659 41.0914 107.021Z" fill="white"/>
<path d="M93.5189 140.331C134.178 140.331 167.139 138.406 167.139 136.033C167.139 133.659 134.178 131.734 93.5189 131.734C52.8594 131.734 19.8984 133.659 19.8984 136.033C19.8984 138.406 52.8594 140.331 93.5189 140.331Z" fill="#F5F5F5"/>
<path d="M121.315 66.5078H70.9628C70.3232 66.5078 69.8047 67.0263 69.8047 67.6659V69.1619C69.8047 69.8015 70.3232 70.32 70.9628 70.32H121.315C121.955 70.32 122.473 69.8015 122.473 69.1619V67.6659C122.473 67.0263 121.955 66.5078 121.315 66.5078Z" fill="#407BFF"/>
<path opacity="0.8" d="M121.315 66.5078H70.9628C70.3232 66.5078 69.8047 67.0263 69.8047 67.6659V69.1619C69.8047 69.8015 70.3232 70.32 70.9628 70.32H121.315C121.955 70.32 122.473 69.8015 122.473 69.1619V67.6659C122.473 67.0263 121.955 66.5078 121.315 66.5078Z" fill="white"/>
<path d="M121.314 72.4034H70.9654C70.1067 72.4024 69.2835 72.0609 68.6763 71.4537C68.0691 70.8465 67.7276 70.0233 67.7266 69.1646V67.6685C67.7276 66.8099 68.0691 65.9866 68.6763 65.3794C69.2835 64.7723 70.1067 64.4307 70.9654 64.4297H121.314C122.173 64.4307 122.997 64.7721 123.604 65.3792C124.212 65.9863 124.555 66.8095 124.557 67.6685V69.1646C124.555 70.0236 124.212 70.8468 123.604 71.4539C122.997 72.061 122.173 72.4024 121.314 72.4034ZM70.9654 65.1245C70.2907 65.1255 69.6438 65.3938 69.1663 65.8705C68.6888 66.3473 68.4196 66.9938 68.4176 67.6685V69.1646C68.4186 69.8396 68.6875 70.4867 69.1652 70.9637C69.6429 71.4407 70.2904 71.7086 70.9654 71.7086H121.314C121.989 71.7086 122.636 71.4407 123.114 70.9637C123.592 70.4867 123.861 69.8396 123.862 69.1646V67.6685C123.86 66.9938 123.591 66.3473 123.113 65.8705C122.636 65.3938 121.989 65.1255 121.314 65.1245H70.9654Z" fill="#263238"/>
<g opacity="0.3">
<path d="M121.314 72.4034H70.9654C70.1067 72.4024 69.2835 72.0609 68.6763 71.4537C68.0691 70.8465 67.7276 70.0233 67.7266 69.1646V67.6685C67.7276 66.8099 68.0691 65.9866 68.6763 65.3794C69.2835 64.7723 70.1067 64.4307 70.9654 64.4297H121.314C122.173 64.4307 122.997 64.7721 123.604 65.3792C124.212 65.9863 124.555 66.8095 124.557 67.6685V69.1646C124.555 70.0236 124.212 70.8468 123.604 71.4539C122.997 72.061 122.173 72.4024 121.314 72.4034ZM70.9654 65.1245C70.2907 65.1255 69.6438 65.3938 69.1663 65.8705C68.6888 66.3473 68.4196 66.9938 68.4176 67.6685V69.1646C68.4186 69.8396 68.6875 70.4867 69.1652 70.9637C69.6429 71.4407 70.2904 71.7086 70.9654 71.7086H121.314C121.989 71.7086 122.636 71.4407 123.114 70.9637C123.592 70.4867 123.861 69.8396 123.862 69.1646V67.6685C123.86 66.9938 123.591 66.3473 123.113 65.8705C122.636 65.3938 121.989 65.1255 121.314 65.1245H70.9654Z" fill="white"/>
</g>
<path d="M109.742 66.5078H70.9672C70.6637 66.5138 70.3746 66.6383 70.1617 66.8547C69.9488 67.0712 69.8291 67.3623 69.8281 67.6659V69.1619C69.8291 69.4655 69.9488 69.7567 70.1617 69.9731C70.3746 70.1896 70.6637 70.3141 70.9672 70.32H105.93L109.742 66.5078Z" fill="#407BFF"/>
<path d="M144.854 72.4034H129.716C129.58 72.4038 129.446 72.3763 129.321 72.3228C129.196 72.2692 129.084 72.1907 128.99 72.0921L126.127 69.0772C125.95 68.8915 125.852 68.6447 125.852 68.3881C125.852 68.1314 125.95 67.8847 126.127 67.6989L128.983 64.7335C129.076 64.6376 129.188 64.5614 129.311 64.5093C129.434 64.4571 129.567 64.4301 129.7 64.4297H144.847C145.112 64.4297 145.366 64.5349 145.553 64.7222C145.74 64.9095 145.845 65.1635 145.845 65.4283V71.4086C145.845 71.6718 145.741 71.9243 145.555 72.1107C145.37 72.2972 145.118 72.4024 144.854 72.4034Z" fill="#407BFF"/>
<path d="M134.246 66.0585V66.7837L132.481 70.82H131.284L132.989 66.966H131.421V67.7254H130.445V66.0547L134.246 66.0585Z" fill="white"/>
<path d="M138.277 69.9108V70.8069H134.685V70.0969L136.519 68.3654C136.669 68.2262 136.797 68.0649 136.898 67.887C136.961 67.77 136.996 67.6401 137.001 67.5073C137.006 67.4244 136.99 67.3416 136.957 67.2656C136.923 67.1897 136.872 67.1229 136.807 67.0707C136.64 66.9575 136.439 66.904 136.238 66.9188C136.044 66.9155 135.852 66.9557 135.676 67.0365C135.507 67.1171 135.362 67.2401 135.254 67.3934L134.453 66.858C134.643 66.5767 134.905 66.3522 135.213 66.2087C135.564 66.0483 135.947 65.9691 136.333 65.9771C136.65 65.9704 136.965 66.0286 137.259 66.148C137.507 66.2502 137.722 66.4199 137.878 66.6378C138.032 66.8604 138.109 67.1269 138.098 67.3972C138.1 67.6483 138.044 67.8964 137.935 68.1224C137.77 68.4096 137.556 68.6664 137.305 68.8818L136.211 69.9108H138.277Z" fill="white"/>
<path d="M139.053 68.2631C138.842 67.992 138.727 67.6578 138.727 67.3138C138.727 66.9698 138.842 66.6356 139.053 66.3646C139.164 66.2516 139.297 66.1619 139.443 66.1006C139.589 66.0394 139.746 66.0078 139.904 66.0078C140.062 66.0078 140.219 66.0394 140.365 66.1006C140.511 66.1619 140.644 66.2516 140.755 66.3646C140.962 66.6375 141.074 66.9709 141.074 67.3138C141.074 67.6567 140.962 67.9901 140.755 68.2631C140.644 68.376 140.511 68.4658 140.365 68.527C140.219 68.5883 140.062 68.6198 139.904 68.6198C139.746 68.6198 139.589 68.5883 139.443 68.527C139.297 68.4658 139.164 68.376 139.053 68.2631ZM140.269 67.8834C140.368 67.7134 140.414 67.5178 140.401 67.3214C140.414 67.1238 140.368 66.927 140.269 66.7557C140.228 66.6969 140.174 66.6489 140.111 66.6157C140.048 66.5825 139.977 66.5652 139.906 66.5652C139.835 66.5652 139.764 66.5825 139.701 66.6157C139.638 66.6489 139.584 66.6969 139.543 66.7557C139.453 66.9318 139.405 67.1271 139.405 67.3252C139.405 67.5233 139.453 67.7186 139.543 67.8948C139.584 67.9535 139.638 68.0015 139.701 68.0347C139.764 68.0679 139.835 68.0852 139.906 68.0852C139.977 68.0852 140.048 68.0679 140.111 68.0347C140.174 68.0015 140.228 67.9535 140.269 67.8948V67.8834ZM142.737 66.0646H143.542L140.299 70.8147H139.49L142.737 66.0646ZM142.52 70.7121C142.34 70.6016 142.195 70.4423 142.102 70.2527C141.999 70.0372 141.949 69.8004 141.954 69.5617C141.95 69.3217 142 69.0839 142.102 68.8668C142.196 68.6783 142.34 68.5202 142.52 68.4112C142.704 68.3036 142.914 68.2484 143.128 68.2517C143.287 68.2461 143.446 68.2747 143.593 68.3356C143.74 68.3966 143.873 68.4883 143.982 68.6048C144.191 68.8772 144.304 69.2108 144.304 69.5541C144.304 69.8973 144.191 70.2309 143.982 70.5033C143.873 70.6193 143.74 70.711 143.593 70.7725C143.446 70.834 143.287 70.8639 143.128 70.8602C142.914 70.8635 142.704 70.8083 142.52 70.7008V70.7121ZM143.492 70.1198C143.583 69.9436 143.63 69.7484 143.63 69.5503C143.63 69.3521 143.583 69.1569 143.492 68.9807C143.452 68.9173 143.396 68.8659 143.329 68.8318C143.262 68.7977 143.187 68.7823 143.113 68.7871C143.041 68.7863 142.971 68.8033 142.908 68.8364C142.845 68.8696 142.791 68.9178 142.752 68.9769C142.653 69.1482 142.606 69.3451 142.619 69.5427C142.606 69.739 142.653 69.9346 142.752 70.1046C142.791 70.1637 142.845 70.212 142.908 70.2451C142.971 70.2783 143.041 70.2952 143.113 70.2945C143.187 70.3001 143.261 70.2858 143.328 70.253C143.394 70.2203 143.451 70.1704 143.492 70.1084V70.1198Z" fill="white"/>
<path d="M161.67 31.6127L158.348 31.6659C157.927 30.7675 157.429 29.9074 156.859 29.0953L158.568 26.2438C157.69 25.1574 156.7 24.1671 155.614 23.2897L152.762 24.9983C151.95 24.4271 151.088 23.929 150.188 23.5099L150.245 20.1837C148.947 19.6835 147.601 19.3208 146.227 19.1016L144.61 22.0139C144.12 21.9721 143.626 21.9455 143.125 21.9455C142.624 21.9455 142.13 21.9721 141.641 22.0139L140.023 19.1016C138.64 19.3192 137.283 19.6819 135.975 20.1837L136.032 23.5099C135.133 23.929 134.273 24.4271 133.462 24.9983L130.61 23.2897C129.524 24.1681 128.532 25.1583 127.652 26.2438L129.365 29.0953C128.792 29.9056 128.294 30.7659 127.876 31.6659L124.55 31.6127C124.042 32.9119 123.671 34.2609 123.445 35.6376L126.358 37.2513C126.312 37.7411 126.285 38.2386 126.285 38.736C126.285 39.2334 126.312 39.7346 126.358 40.2206L123.445 41.8495C123.668 43.2311 124.036 44.5852 124.543 45.8896L127.869 45.8364C128.287 46.7364 128.785 47.5967 129.357 48.407L127.645 51.2585C128.525 52.3441 129.516 53.3342 130.603 54.2126L133.454 52.504C134.265 53.0752 135.126 53.5733 136.025 53.9924L135.968 57.3148C137.271 57.8188 138.624 58.1828 140.004 58.4007L141.622 55.4884C142.111 55.5302 142.605 55.5568 143.106 55.5568C143.607 55.5568 144.101 55.5302 144.591 55.4884L146.208 58.4007C147.589 58.1833 148.942 57.8193 150.245 57.3148L150.188 53.9924C151.088 53.5733 151.95 53.0752 152.762 52.504L155.614 54.2126C156.7 53.3352 157.69 52.3449 158.568 51.2585L156.859 48.407C157.429 47.595 157.927 46.7348 158.348 45.8364L161.67 45.8896C162.175 44.587 162.538 43.2338 162.752 41.8533L159.844 40.2358C159.885 39.7498 159.912 39.2524 159.912 38.7512C159.912 38.2499 159.885 37.7563 159.844 37.2665L162.752 35.6528C162.538 34.271 162.175 32.9165 161.67 31.6127Z" fill="#407BFF"/>
<path opacity="0.4" d="M161.67 31.6127L158.348 31.6659C157.927 30.7675 157.429 29.9074 156.859 29.0953L158.568 26.2438C157.69 25.1574 156.7 24.1671 155.614 23.2897L152.762 24.9983C151.95 24.4271 151.088 23.929 150.188 23.5099L150.245 20.1837C148.947 19.6835 147.601 19.3208 146.227 19.1016L144.61 22.0139C144.12 21.9721 143.626 21.9455 143.125 21.9455C142.624 21.9455 142.13 21.9721 141.641 22.0139L140.023 19.1016C138.64 19.3192 137.283 19.6819 135.975 20.1837L136.032 23.5099C135.133 23.929 134.273 24.4271 133.462 24.9983L130.61 23.2897C129.524 24.1681 128.532 25.1583 127.652 26.2438L129.365 29.0953C128.792 29.9056 128.294 30.7659 127.876 31.6659L124.55 31.6127C124.042 32.9119 123.671 34.2609 123.445 35.6376L126.358 37.2513C126.312 37.7411 126.285 38.2386 126.285 38.736C126.285 39.2334 126.312 39.7346 126.358 40.2206L123.445 41.8495C123.668 43.2311 124.036 44.5852 124.543 45.8896L127.869 45.8364C128.287 46.7364 128.785 47.5967 129.357 48.407L127.645 51.2585C128.525 52.3441 129.516 53.3342 130.603 54.2126L133.454 52.504C134.265 53.0752 135.126 53.5733 136.025 53.9924L135.968 57.3148C137.271 57.8188 138.624 58.1828 140.004 58.4007L141.622 55.4884C142.111 55.5302 142.605 55.5568 143.106 55.5568C143.607 55.5568 144.101 55.5302 144.591 55.4884L146.208 58.4007C147.589 58.1833 148.942 57.8193 150.245 57.3148L150.188 53.9924C151.088 53.5733 151.95 53.0752 152.762 52.504L155.614 54.2126C156.7 53.3352 157.69 52.3449 158.568 51.2585L156.859 48.407C157.429 47.595 157.927 46.7348 158.348 45.8364L161.67 45.8896C162.175 44.587 162.538 43.2338 162.752 41.8533L159.844 40.2358C159.885 39.7498 159.912 39.2524 159.912 38.7512C159.912 38.2499 159.885 37.7563 159.844 37.2665L162.752 35.6528C162.538 34.271 162.175 32.9165 161.67 31.6127Z" fill="white"/>
<path opacity="0.2" d="M143.104 48.7154C148.611 48.7154 153.075 44.2512 153.075 38.7444C153.075 33.2376 148.611 28.7734 143.104 28.7734C137.597 28.7734 133.133 33.2376 133.133 38.7444C133.133 44.2512 137.597 48.7154 143.104 48.7154Z" fill="black"/>
<path d="M148.41 40.8184C148.638 40.563 148.764 40.2325 148.764 39.89C148.764 39.5475 148.638 39.217 148.41 38.9616L148.384 38.9313V38.9123C147.343 37.8719 146.302 36.8302 145.259 35.7873C144.006 34.5343 142.058 36.4784 143.315 37.7352L144.074 38.4946H138.758C136.989 38.4946 136.985 41.2474 138.758 41.2474H144.074L143.315 42.0068C142.058 43.2637 144.006 45.2077 145.259 43.9547L148.384 40.8298V40.807L148.41 40.8184Z" fill="#407BFF"/>
<path opacity="0.4" d="M148.41 40.8184C148.638 40.563 148.764 40.2325 148.764 39.89C148.764 39.5475 148.638 39.217 148.41 38.9616L148.384 38.9313V38.9123C147.343 37.8719 146.302 36.8302 145.259 35.7873C144.006 34.5343 142.058 36.4784 143.315 37.7352L144.074 38.4946H138.758C136.989 38.4946 136.985 41.2474 138.758 41.2474H144.074L143.315 42.0068C142.058 43.2637 144.006 45.2077 145.259 43.9547L148.384 40.8298V40.807L148.41 40.8184Z" fill="black"/>
<path d="M148.41 39.6778C148.638 39.4223 148.764 39.0919 148.764 38.7494C148.764 38.4069 148.638 38.0764 148.41 37.821L148.384 37.7906V37.7717C147.343 36.7313 146.302 35.6896 145.259 34.6467C144.006 33.3937 142.058 35.3378 143.315 36.5946L144.074 37.354H138.758C136.989 37.354 136.985 40.1068 138.758 40.1068H144.074L143.315 40.8662C142.058 42.123 144.006 44.0671 145.259 42.8141L148.384 39.6891V39.6664L148.41 39.6778Z" fill="#407BFF"/>
<path d="M148.184 17.7066C149.031 17.9136 149.866 18.1671 150.686 18.466C150.891 18.5419 150.982 18.2116 150.777 18.1394C149.957 17.8406 149.122 17.587 148.275 17.38C148.062 17.3307 147.971 17.661 148.184 17.7104V17.7066Z" fill="#407BFF"/>
<path d="M127.621 23.5779C131.745 19.4889 137.303 17.1726 143.11 17.123C143.155 17.123 143.198 17.105 143.23 17.0729C143.262 17.0409 143.28 16.9974 143.28 16.9521C143.28 16.9068 143.262 16.8633 143.23 16.8313C143.198 16.7993 143.155 16.7812 143.11 16.7812C137.21 16.8378 131.566 19.1947 127.378 23.3501C127.362 23.3661 127.35 23.385 127.341 23.4058C127.333 23.4267 127.328 23.449 127.328 23.4716C127.328 23.4942 127.333 23.5165 127.341 23.5374C127.35 23.5582 127.362 23.5772 127.378 23.5931C127.394 23.6091 127.413 23.6217 127.434 23.6304C127.455 23.639 127.477 23.6434 127.5 23.6434C127.523 23.6434 127.545 23.639 127.566 23.6304C127.587 23.6217 127.606 23.6091 127.621 23.5931V23.5779Z" fill="#407BFF"/>
<path d="M120.118 42.7057C120.326 41.9135 120.471 41.106 120.55 40.2907L124.291 39.3301C124.291 38.8555 124.291 38.3846 124.291 37.9138L120.531 37.0025C120.348 35.3752 119.911 33.7865 119.237 32.2942L121.993 29.5907C121.769 29.1731 121.53 28.7668 121.276 28.3681L117.57 29.454C116.596 28.1418 115.424 26.9889 114.096 26.0367L115.132 22.3118C114.752 22.065 114.32 21.8372 113.902 21.617L111.244 24.4116C110.494 24.0841 109.72 23.8162 108.928 23.6104C108.137 23.4023 107.331 23.2576 106.517 23.1776L105.552 19.4375C105.078 19.4375 104.607 19.4375 104.14 19.4375L103.225 23.1966C101.597 23.3805 100.008 23.8187 98.5163 24.4951L95.8128 21.7347C95.3952 21.9587 94.9889 22.1979 94.5902 22.4523L95.6762 26.1582C94.3639 27.1322 93.211 28.3043 92.2588 29.6325L88.515 28.5845C88.2682 28.9832 88.0403 29.3971 87.8201 29.8148L90.6147 32.4727C90.2872 33.2212 90.0194 33.9944 89.8136 34.7851C89.6073 35.5764 89.4626 36.3825 89.3807 37.1962L85.6406 38.1606C85.6406 38.6352 85.6406 39.1061 85.6406 39.5769L89.3997 40.4882C89.5836 42.1159 90.0218 43.7046 90.6983 45.1965L87.9416 47.9C88.1656 48.3176 88.4011 48.7239 88.6555 49.1226L92.3614 48.0367C93.3354 49.3489 94.5075 50.5018 95.8356 51.454L94.799 55.1789C95.1977 55.4257 95.6116 55.6535 96.0331 55.8737L98.691 53.0791C99.4395 53.4066 100.213 53.6745 101.003 53.8803C101.796 54.0887 102.603 54.2335 103.418 54.3131L104.379 58.0532C104.854 58.0532 105.324 58.0532 105.795 58.0532L106.707 54.2942C108.334 54.1112 109.923 53.673 111.415 52.9956L114.118 55.756C114.536 55.532 114.942 55.2928 115.341 55.0384L114.255 51.3325C115.568 50.3595 116.721 49.1873 117.672 47.8582L121.397 48.8948C121.644 48.4961 121.872 48.0822 122.092 47.6608L119.297 45.0028C119.631 44.2598 119.905 43.4917 120.118 42.7057Z" fill="#407BFF"/>
<path opacity="0.2" d="M120.118 42.7057C120.326 41.9135 120.471 41.106 120.55 40.2907L124.291 39.3301C124.291 38.8555 124.291 38.3846 124.291 37.9138L120.531 37.0025C120.348 35.3752 119.911 33.7865 119.237 32.2942L121.993 29.5907C121.769 29.1731 121.53 28.7668 121.276 28.3681L117.57 29.454C116.596 28.1418 115.424 26.9889 114.096 26.0367L115.132 22.3118C114.752 22.065 114.32 21.8372 113.902 21.617L111.244 24.4116C110.494 24.0841 109.72 23.8162 108.928 23.6104C108.137 23.4023 107.331 23.2576 106.517 23.1776L105.552 19.4375C105.078 19.4375 104.607 19.4375 104.14 19.4375L103.225 23.1966C101.597 23.3805 100.008 23.8187 98.5163 24.4951L95.8128 21.7347C95.3952 21.9587 94.9889 22.1979 94.5902 22.4523L95.6762 26.1582C94.3639 27.1322 93.211 28.3043 92.2588 29.6325L88.515 28.5845C88.2682 28.9832 88.0403 29.3971 87.8201 29.8148L90.6147 32.4727C90.2872 33.2212 90.0194 33.9944 89.8136 34.7851C89.6073 35.5764 89.4626 36.3825 89.3807 37.1962L85.6406 38.1606C85.6406 38.6352 85.6406 39.1061 85.6406 39.5769L89.3997 40.4882C89.5836 42.1159 90.0218 43.7046 90.6983 45.1965L87.9416 47.9C88.1656 48.3176 88.4011 48.7239 88.6555 49.1226L92.3614 48.0367C93.3354 49.3489 94.5075 50.5018 95.8356 51.454L94.799 55.1789C95.1977 55.4257 95.6116 55.6535 96.0331 55.8737L98.691 53.0791C99.4395 53.4066 100.213 53.6745 101.003 53.8803C101.796 54.0887 102.603 54.2335 103.418 54.3131L104.379 58.0532C104.854 58.0532 105.324 58.0532 105.795 58.0532L106.707 54.2942C108.334 54.1112 109.923 53.673 111.415 52.9956L114.118 55.756C114.536 55.532 114.942 55.2928 115.341 55.0384L114.255 51.3325C115.568 50.3595 116.721 49.1873 117.672 47.8582L121.397 48.8948C121.644 48.4961 121.872 48.0822 122.092 47.6608L119.297 45.0028C119.631 44.2598 119.905 43.4917 120.118 42.7057Z" fill="white"/>
<path opacity="0.3" d="M104.96 48.6787C110.444 48.6787 114.89 44.2333 114.89 38.7495C114.89 33.2658 110.444 28.8203 104.96 28.8203C99.4767 28.8203 95.0312 33.2658 95.0312 38.7495C95.0312 44.2333 99.4767 48.6787 104.96 48.6787Z" fill="black"/>
<path d="M109.737 40.6686C109.943 40.4388 110.056 40.1414 110.056 39.8332C110.056 39.525 109.943 39.2276 109.737 38.9979L109.714 38.9713L106.901 36.1577C105.762 35.0186 104.023 36.7804 105.15 37.9081C105.382 38.1435 105.617 38.3752 105.849 38.6068H101.065C99.4699 38.6068 99.4661 41.0862 101.065 41.0862H105.841C105.61 41.3179 105.374 41.5495 105.143 41.7849C104.004 42.924 105.765 44.663 106.893 43.5353L109.707 40.7217L109.737 40.6686Z" fill="#407BFF"/>
<path opacity="0.4" d="M109.737 40.6686C109.943 40.4388 110.056 40.1414 110.056 39.8332C110.056 39.525 109.943 39.2276 109.737 38.9979L109.714 38.9713L106.901 36.1577C105.762 35.0186 104.023 36.7804 105.15 37.9081C105.382 38.1435 105.617 38.3752 105.849 38.6068H101.065C99.4699 38.6068 99.4661 41.0862 101.065 41.0862H105.841C105.61 41.3179 105.374 41.5495 105.143 41.7849C104.004 42.924 105.765 44.663 106.893 43.5353L109.707 40.7217L109.737 40.6686Z" fill="black"/>
<path d="M109.737 39.6451C109.943 39.4154 110.056 39.118 110.056 38.8098C110.056 38.5016 109.943 38.2042 109.737 37.9744L109.714 37.9479L106.901 35.1343C105.762 33.9952 104.023 35.757 105.15 36.8847C105.382 37.1201 105.617 37.3517 105.849 37.5833H101.065C99.4699 37.5833 99.4661 40.0628 101.065 40.0628H105.841C105.61 40.2944 105.374 40.526 105.143 40.7615C104.004 41.9006 105.765 43.6396 106.893 42.5119L109.707 39.6983C109.708 39.6921 109.708 39.6855 109.707 39.6793L109.737 39.6451Z" fill="#407BFF"/>
<path d="M104.966 59.4075C99.9593 59.3617 95.1329 57.5321 91.3539 54.2473C91.1868 54.103 90.9438 54.346 91.1108 54.4903C94.9562 57.8369 99.8687 59.7028 104.966 59.753C105.011 59.753 105.055 59.735 105.087 59.7029C105.119 59.6709 105.137 59.6274 105.137 59.5821C105.137 59.5368 105.119 59.4933 105.087 59.4613C105.055 59.4293 105.011 59.4113 104.966 59.4113V59.4075Z" fill="#407BFF"/>
<path d="M110.876 58.5391C109.62 58.9092 108.332 59.1634 107.03 59.2985C106.813 59.3212 106.813 59.6782 107.03 59.6402C108.362 59.507 109.68 59.2528 110.967 58.8808C111.011 58.8687 111.048 58.8397 111.07 58.8002C111.093 58.7607 111.099 58.7139 111.087 58.6701C111.075 58.6263 111.046 58.589 111.006 58.5666C110.967 58.5442 110.92 58.5384 110.876 58.5505V58.5391Z" fill="#407BFF"/>
<path d="M84.6841 32.5671L81.8022 32.6164C81.4382 31.8378 81.0075 31.092 80.515 30.3876L81.9958 27.9195C81.2334 26.9793 80.3758 26.1204 79.4367 25.3565L76.9648 26.8412C76.2623 26.3444 75.5163 25.9123 74.7359 25.5502L74.7853 22.672C73.6561 22.2364 72.4839 21.922 71.2882 21.7342L69.9061 24.2478C69.4809 24.2098 69.0518 24.187 68.6189 24.187C68.1861 24.187 67.757 24.2098 67.3317 24.2478L65.9306 21.7266C64.7363 21.9144 63.5652 22.2288 62.4374 22.6644L62.4829 25.5426C61.7042 25.9056 60.9596 26.3377 60.2579 26.8336L57.7557 25.3565C56.8147 26.1184 55.9569 26.9775 55.1965 27.9195L56.6773 30.3876C56.1822 31.0911 55.7502 31.8369 55.3863 32.6164L52.5082 32.5671C52.073 33.6964 51.7586 34.8686 51.5703 36.0641L54.0915 37.4652C54.0536 37.8867 54.0308 38.3158 54.0308 38.7486C54.0308 39.1815 54.0536 39.6105 54.0915 40.0358L51.5703 41.4369C51.7586 42.6324 52.073 43.8047 52.5082 44.934L55.3863 44.8846C55.7502 45.6641 56.1822 46.41 56.6773 47.1135L55.1965 49.5815C55.956 50.5233 56.8139 51.3812 57.7557 52.1407L60.2275 50.6599C60.9292 51.1558 61.6738 51.5878 62.4526 51.9509L62.407 54.829C63.5349 55.2647 64.7059 55.5791 65.9003 55.7669L67.3014 53.2456C67.7266 53.2836 68.1557 53.3064 68.5886 53.3064C69.0214 53.3064 69.4505 53.2836 69.8758 53.2456L71.2731 55.7669C72.4687 55.579 73.6409 55.2646 74.7701 54.829L74.7207 51.9509C75.5011 51.5887 76.2471 51.1566 76.9496 50.6599L79.4215 52.1407C80.3614 51.3792 81.2192 50.5215 81.9807 49.5815L80.4998 47.1135C80.9923 46.409 81.423 45.6633 81.787 44.8846L84.6689 44.934C85.1024 43.8041 85.4167 42.632 85.6068 41.4369L83.0856 40.0358C83.1198 39.6105 83.1425 39.1853 83.1425 38.7486C83.1425 38.312 83.1198 37.8867 83.0856 37.4652L85.6068 36.0641C85.4216 34.8695 85.1124 33.6975 84.6841 32.5671Z" fill="#407BFF"/>
<path opacity="0.3" d="M84.6841 32.5671L81.8022 32.6164C81.4382 31.8378 81.0075 31.092 80.515 30.3876L81.9958 27.9195C81.2334 26.9793 80.3758 26.1204 79.4367 25.3565L76.9648 26.8412C76.2623 26.3444 75.5163 25.9123 74.7359 25.5502L74.7853 22.672C73.6561 22.2364 72.4839 21.922 71.2882 21.7342L69.9061 24.2478C69.4809 24.2098 69.0518 24.187 68.6189 24.187C68.1861 24.187 67.757 24.2098 67.3317 24.2478L65.9306 21.7266C64.7363 21.9144 63.5652 22.2288 62.4374 22.6644L62.4829 25.5426C61.7042 25.9056 60.9596 26.3377 60.2579 26.8336L57.7557 25.3565C56.8147 26.1184 55.9569 26.9775 55.1965 27.9195L56.6773 30.3876C56.1822 31.0911 55.7502 31.8369 55.3863 32.6164L52.5082 32.5671C52.073 33.6964 51.7586 34.8686 51.5703 36.0641L54.0915 37.4652C54.0536 37.8867 54.0308 38.3158 54.0308 38.7486C54.0308 39.1815 54.0536 39.6105 54.0915 40.0358L51.5703 41.4369C51.7586 42.6324 52.073 43.8047 52.5082 44.934L55.3863 44.8846C55.7502 45.6641 56.1822 46.41 56.6773 47.1135L55.1965 49.5815C55.956 50.5233 56.8139 51.3812 57.7557 52.1407L60.2275 50.6599C60.9292 51.1558 61.6738 51.5878 62.4526 51.9509L62.407 54.829C63.5349 55.2647 64.7059 55.5791 65.9003 55.7669L67.3014 53.2456C67.7266 53.2836 68.1557 53.3064 68.5886 53.3064C69.0214 53.3064 69.4505 53.2836 69.8758 53.2456L71.2731 55.7669C72.4687 55.579 73.6409 55.2646 74.7701 54.829L74.7207 51.9509C75.5011 51.5887 76.2471 51.1566 76.9496 50.6599L79.4215 52.1407C80.3614 51.3792 81.2192 50.5215 81.9807 49.5815L80.4998 47.1135C80.9923 46.409 81.423 45.6633 81.787 44.8846L84.6689 44.934C85.1024 43.8041 85.4167 42.632 85.6068 41.4369L83.0856 40.0358C83.1198 39.6105 83.1425 39.1853 83.1425 38.7486C83.1425 38.312 83.1198 37.8867 83.0856 37.4652L85.6068 36.0641C85.4216 34.8695 85.1124 33.6975 84.6841 32.5671Z" fill="white"/>
<path opacity="0.4" d="M68.6045 50.5919C75.1473 50.5919 80.4512 45.2879 80.4512 38.7451C80.4512 32.2024 75.1473 26.8984 68.6045 26.8984C62.0618 26.8984 56.7578 32.2024 56.7578 38.7451C56.7578 45.2879 62.0618 50.5919 68.6045 50.5919Z" fill="black"/>
<path d="M72.609 40.5206C72.7917 40.3166 72.8928 40.0522 72.8928 39.7783C72.8928 39.5043 72.7917 39.24 72.609 39.036V39.0094L70.1067 36.5109C69.1043 35.5085 67.5475 37.0653 68.5499 38.0677L69.1461 38.6752H64.901C63.4809 38.6752 63.4809 40.8775 64.901 40.8775H69.1461L68.5234 41.5002C67.5209 42.5026 69.0777 44.0594 70.0801 43.057L72.5824 40.5548L72.609 40.5206Z" fill="#407BFF"/>
<path opacity="0.4" d="M72.609 40.5206C72.7917 40.3166 72.8928 40.0522 72.8928 39.7783C72.8928 39.5043 72.7917 39.24 72.609 39.036V39.0094L70.1067 36.5109C69.1043 35.5085 67.5475 37.0653 68.5499 38.0677L69.1461 38.6752H64.901C63.4809 38.6752 63.4809 40.8775 64.901 40.8775H69.1461L68.5234 41.5002C67.5209 42.5026 69.0777 44.0594 70.0801 43.057L72.5824 40.5548L72.609 40.5206Z" fill="black"/>
<path d="M72.609 39.6144C72.7917 39.4103 72.8928 39.146 72.8928 38.872C72.8928 38.5981 72.7917 38.3338 72.609 38.1297V38.1031L70.1067 35.6047C69.1043 34.6023 67.5475 36.1591 68.5499 37.1615L69.1727 37.7804H64.901C63.4809 37.7804 63.4809 39.9827 64.901 39.9827H69.1461L68.5234 40.5788C67.5209 41.5812 69.0777 43.138 70.0801 42.1356L72.5824 39.6333L72.609 39.6144Z" fill="#407BFF"/>
<path d="M53.6306 28.1325C55.3595 25.7778 57.6127 23.8579 60.2119 22.5247C62.8111 21.1915 65.685 20.4815 68.6061 20.4511C68.6514 20.4511 68.6948 20.4331 68.7269 20.4011C68.7589 20.369 68.7769 20.3256 68.7769 20.2802C68.7769 20.2349 68.7589 20.1915 68.7269 20.1594C68.6948 20.1274 68.6514 20.1094 68.6061 20.1094C65.6263 20.141 62.6949 20.8668 60.0446 22.2292C57.3943 23.5915 55.0981 25.553 53.3382 27.9578C53.2053 28.1325 53.5015 28.3033 53.6306 28.1287V28.1325Z" fill="#407BFF"/>
<path d="M71.0211 20.6098C71.8147 20.7187 72.6008 20.876 73.3753 21.0806C73.5879 21.1338 73.679 20.8034 73.4664 20.7503C72.6923 20.5451 71.906 20.3891 71.1122 20.2832C70.8996 20.2528 70.8047 20.5832 71.0211 20.6098Z" fill="#407BFF"/>
</svg>
