<svg width="800" height="800" viewBox="0 0 800 800" fill="none" xmlns="http://www.w3.org/2000/svg">
<g clip-path="url(#clip0_9196_62511)">
<path fill-rule="evenodd" clip-rule="evenodd" d="M800.001 426.667C793.681 514.507 745.187 608 700.001 666.667L453.334 426.667H800.001Z" fill="#E7669A"/>
<path fill-rule="evenodd" clip-rule="evenodd" d="M645.761 716.427C586.469 762.294 515.498 790.607 440.917 798.145C366.335 805.684 291.135 792.146 223.864 759.072C156.593 725.998 99.9517 674.714 60.3777 611.05C20.8037 547.385 -0.114816 473.895 0.000473996 398.933C0.000473996 189.6 153.067 18.4533 373.334 0V426.667L645.761 716.427Z" fill="#65C5E2"/>
<path fill-rule="evenodd" clip-rule="evenodd" d="M426.666 0C523.564 6.43549 614.828 47.8352 683.496 116.503C752.164 185.171 793.564 276.436 799.999 373.333H426.666V0Z" fill="#EBD052"/>
</g>
<defs>
<clipPath id="clip0_9196_62511">
<rect width="800" height="800" fill="white"/>
</clipPath>
</defs>
</svg>
