<svg width="123" height="140" viewBox="0 0 123 140" fill="none" xmlns="http://www.w3.org/2000/svg">
<path d="M59.1801 139.998C89.4998 139.998 114.079 135.249 114.079 129.39C114.079 123.531 89.4998 118.781 59.1801 118.781C28.8603 118.781 4.28125 123.531 4.28125 129.39C4.28125 135.249 28.8603 139.998 59.1801 139.998Z" fill="#FF725E"/>
<path opacity="0.5" d="M59.1801 139.998C89.4998 139.998 114.079 135.249 114.079 129.39C114.079 123.531 89.4998 118.781 59.1801 118.781C28.8603 118.781 4.28125 123.531 4.28125 129.39C4.28125 135.249 28.8603 139.998 59.1801 139.998Z" fill="white"/>
<path d="M83.0488 83.9844H41.795C40.8036 83.9844 40 84.788 40 85.7794V89.108C40 90.0993 40.8036 90.9029 41.795 90.9029H83.0488C84.0402 90.9029 84.8438 90.0993 84.8438 89.108V85.7794C84.8438 84.788 84.0402 83.9844 83.0488 83.9844Z" fill="white"/>
<path d="M83.0457 91.092H41.7919C41.2655 91.092 40.7606 90.8832 40.3881 90.5113C40.0155 90.1395 39.8057 89.635 39.8047 89.1087V85.7762C39.8057 85.2495 40.0154 84.7447 40.3878 84.3722C40.7603 83.9998 41.2651 83.7901 41.7919 83.7891H83.0457C83.5724 83.7901 84.0773 83.9998 84.4497 84.3722C84.8222 84.7447 85.0319 85.2495 85.0329 85.7762V89.1087C85.0319 89.635 84.8221 90.1395 84.4495 90.5113C84.0769 90.8832 83.5721 91.092 83.0457 91.092ZM41.7919 84.1734C41.3668 84.1734 40.9591 84.3423 40.6585 84.6429C40.3579 84.9435 40.1891 85.3511 40.1891 85.7762V89.1087C40.1901 89.5331 40.3594 89.9398 40.6599 90.2395C40.9603 90.5393 41.3674 90.7076 41.7919 90.7076H83.0457C83.4701 90.7076 83.8772 90.5393 84.1777 90.2395C84.4782 89.9398 84.6475 89.5331 84.6485 89.1087V85.7762C84.6485 85.3511 84.4796 84.9435 84.1791 84.6429C83.8785 84.3423 83.4708 84.1734 83.0457 84.1734H41.7919Z" fill="#263238"/>
<path d="M44.6065 84.7031H41.7891V90.3879H44.6065V84.7031Z" fill="#FF725E"/>
<path d="M48.1221 84.7031H45.3047V90.3879H48.1221V84.7031Z" fill="#FF725E"/>
<path d="M51.6377 84.7031H48.8203V90.3879H51.6377V84.7031Z" fill="#FF725E"/>
<path d="M55.1455 84.7031H52.3281V90.3879H55.1455V84.7031Z" fill="#FF725E"/>
<path d="M58.6611 84.7031H55.8438V90.3879H58.6611V84.7031Z" fill="#FF725E"/>
<path d="M62.1768 84.7031H59.3594V90.3879H62.1768V84.7031Z" fill="#FF725E"/>
<path d="M65.6846 84.7031H62.8672V90.3879H65.6846V84.7031Z" fill="#FF725E"/>
<path d="M69.2002 84.7031H66.3828V90.3879H69.2002V84.7031Z" fill="#FF725E"/>
<path d="M68.5845 36.9619L72.2783 35.2784L71.5095 30.8428L67.4353 30.5276C66.9155 29.1674 66.23 27.8765 65.3943 26.684L67.4968 23.1363L64.3104 19.9499L60.7358 22.0754C58.6768 20.6738 56.3456 19.7217 53.8941 19.2811L52.864 15.1953H48.3592L47.3215 19.3042C45.9258 19.5705 44.5671 20.0028 43.2741 20.5918L40.0531 17.8051L36.3671 20.3881L37.9045 24.3739C36.9125 25.3861 36.0442 26.5125 35.3177 27.7294L31.0897 27.2913L29.5523 31.5193L33.0615 33.8985C32.8931 34.8864 32.8083 35.8867 32.8078 36.8889C32.8078 37.3155 32.8078 37.7345 32.8578 38.1534L29.1641 40.2136L30.3172 44.5646L34.499 44.5108C35.1187 45.816 35.893 47.0419 36.8052 48.1623L34.9987 51.9098L38.458 54.8041L41.802 52.4095C43.0682 53.1406 44.4199 53.7125 45.8263 54.1122L46.4989 58.1442L50.9844 58.5286L52.3374 54.7118C53.8097 54.5806 55.2598 54.2656 56.6538 53.774L59.4828 56.6529L63.3841 54.4005L62.3117 50.5223C63.4424 49.5616 64.4495 48.4641 65.3097 47.2552L69.2725 47.9855L71.1943 43.9074L68.0848 41.3398C68.4328 39.9069 68.6006 38.4363 68.5845 36.9619ZM61.9235 36.885C61.9235 39.1086 61.2641 41.2823 60.0287 43.1311C58.7934 44.98 57.0375 46.421 54.9832 47.2719C52.9289 48.1228 50.6683 48.3455 48.4875 47.9117C46.3066 47.4779 44.3034 46.4071 42.731 44.8348C41.1587 43.2625 40.088 41.2592 39.6542 39.0784C39.2204 36.8975 39.443 34.637 40.2939 32.5826C41.1449 30.5283 42.5859 28.7724 44.4347 27.5371C46.2836 26.3017 48.4572 25.6423 50.6808 25.6423C52.1575 25.6423 53.6198 25.9333 54.9841 26.4985C56.3483 27.0637 57.5879 27.8922 58.6319 28.9366C59.676 29.981 60.504 31.2208 61.0688 32.5853C61.6335 33.9498 61.924 35.4121 61.9235 36.8889V36.885Z" fill="#FF725E"/>
<path d="M50.9501 58.7398L46.4645 58.3555C46.4183 58.3518 46.3747 58.3328 46.3406 58.3014C46.3064 58.2701 46.2838 58.2282 46.2762 58.1825L45.6074 54.2543C44.2683 53.8661 42.9785 53.3244 41.7637 52.64L38.5274 54.9462C38.4913 54.9748 38.4466 54.9905 38.4006 54.9905C38.3545 54.9905 38.3098 54.9748 38.2737 54.9462L34.8144 52.0519C34.7789 52.0222 34.7543 51.9815 34.7445 51.9362C34.7348 51.891 34.7404 51.8437 34.7606 51.802L36.5056 48.1698C35.6519 47.102 34.9209 45.9416 34.3263 44.7105L30.2789 44.7605C30.2324 44.7626 30.1865 44.7484 30.1493 44.7204C30.1121 44.6923 30.0859 44.6521 30.0752 44.6067L28.9221 40.2557C28.9093 40.2115 28.9118 40.1643 28.9293 40.1217C28.9467 40.0792 28.9781 40.0438 29.0182 40.0213L32.5967 38.0226C32.5697 37.5921 32.5582 37.2269 32.5582 36.8695C32.5586 35.9 32.637 34.9321 32.7927 33.9752L29.391 31.669C29.3529 31.6422 29.3247 31.6036 29.3108 31.5591C29.2969 31.5146 29.2981 31.4668 29.3142 31.423L30.8516 27.195C30.8688 27.152 30.8994 27.1157 30.9389 27.0914C30.9784 27.0672 31.0246 27.0564 31.0707 27.0605L35.1796 27.4833C35.8757 26.3343 36.6983 25.2668 37.6318 24.3008L36.1597 20.4379C36.1425 20.3949 36.1407 20.3472 36.1547 20.303C36.1687 20.2589 36.1977 20.2209 36.2366 20.1957L39.9226 17.6128C39.9593 17.5838 40.0047 17.568 40.0514 17.568C40.0981 17.568 40.1435 17.5838 40.1802 17.6128L43.2974 20.3034C44.5292 19.7553 45.8184 19.3466 47.141 19.0849L48.1442 15.1029C48.1566 15.0582 48.1832 15.0187 48.2199 14.9903C48.2566 14.9619 48.3015 14.9461 48.3479 14.9453H52.8527C52.8988 14.9457 52.9434 14.9613 52.9796 14.9899C53.0158 15.0184 53.0414 15.0582 53.0525 15.1029L54.0519 19.058C56.4361 19.5044 58.7048 20.4302 60.7206 21.7793L64.1799 19.723C64.2193 19.6984 64.266 19.688 64.3122 19.6936C64.3583 19.6992 64.4011 19.7204 64.4336 19.7537L67.6161 22.9363C67.6482 22.9694 67.6686 23.0121 67.6742 23.0579C67.6797 23.1037 67.6701 23.1501 67.6469 23.1899L65.6251 26.6569C66.4106 27.8035 67.0618 29.0364 67.5661 30.3314L71.5097 30.6351C71.5559 30.6387 71.5996 30.6578 71.6337 30.6891C71.6678 30.7205 71.6905 30.7623 71.6981 30.808L72.4668 35.2436C72.4738 35.2892 72.4661 35.3358 72.4446 35.3767C72.4232 35.4175 72.3892 35.4503 72.3476 35.4704L68.7731 37.0963C68.7591 38.5023 68.5811 39.9019 68.2426 41.2666L71.2484 43.7496C71.2837 43.7785 71.3085 43.8183 71.3189 43.8628C71.3294 43.9073 71.3248 43.954 71.306 43.9956L69.4034 48.0775C69.3839 48.1195 69.3511 48.1539 69.3101 48.1754C69.2692 48.1969 69.2223 48.2044 69.1766 48.1967L65.333 47.4895C64.5037 48.6311 63.5468 49.6743 62.481 50.599L63.5149 54.3465C63.5273 54.3913 63.5246 54.4389 63.5073 54.482C63.4899 54.525 63.4588 54.5612 63.4189 54.5849L59.5176 56.8372C59.4777 56.8591 59.4319 56.8675 59.3869 56.8613C59.3419 56.855 59.3001 56.8345 59.2677 56.8026L56.5272 54.0198C55.1969 54.4751 53.8179 54.7731 52.4183 54.9077L51.1115 58.6015C51.0992 58.6367 51.0778 58.6681 51.0494 58.6924C51.0211 58.7167 50.9868 58.7331 50.9501 58.7398ZM46.6413 57.948L50.8078 58.3093L52.107 54.6425C52.1199 54.6051 52.1435 54.5724 52.175 54.5484C52.2065 54.5245 52.2443 54.5104 52.2838 54.508C53.739 54.378 55.1722 54.0668 56.5503 53.5817C56.5878 53.5685 56.6282 53.5663 56.667 53.5751C56.7057 53.584 56.7412 53.6035 56.7693 53.6316L59.4868 56.3952L63.1075 54.3043L62.0774 50.5798C62.0663 50.542 62.0665 50.5018 62.0782 50.4642C62.0898 50.4266 62.1123 50.3933 62.1428 50.3684C63.259 49.4175 64.2543 48.3332 65.1062 47.1397C65.1291 47.1072 65.1608 47.082 65.1976 47.067C65.2344 47.052 65.2747 47.0479 65.3138 47.0551L69.1151 47.7547L70.8832 43.9687L67.9005 41.5049C67.8686 41.4802 67.8449 41.4464 67.8326 41.408C67.8202 41.3696 67.8198 41.3283 67.8314 41.2897C68.1923 39.8739 68.3769 38.4189 68.381 36.9579C68.3812 36.918 68.393 36.879 68.4148 36.8456C68.4366 36.8122 68.4676 36.7858 68.504 36.7695L72.0517 35.1514L71.3252 31.0348L67.4086 30.7312C67.3692 30.7283 67.3316 30.714 67.3002 30.6901C67.2688 30.6663 67.245 30.6338 67.2317 30.5966C66.7195 29.2478 66.0431 27.9672 65.2177 26.7837C65.1961 26.7498 65.1847 26.7105 65.1847 26.6704C65.1847 26.6302 65.1961 26.5909 65.2177 26.557L67.2356 23.1477L64.2798 20.1919L60.8436 22.2329C60.8105 22.2545 60.7717 22.2661 60.7321 22.2661C60.6926 22.2661 60.6538 22.2545 60.6207 22.2329C58.5879 20.854 56.2886 19.9165 53.8712 19.4808C53.8318 19.4739 53.7952 19.4557 53.7659 19.4284C53.7365 19.4011 53.7157 19.3659 53.706 19.3271L52.7105 15.3989H48.5247L47.5292 19.354C47.519 19.3926 47.4981 19.4275 47.4688 19.4548C47.4396 19.482 47.4032 19.5003 47.3639 19.5077C45.9846 19.7701 44.6414 20.1959 43.3627 20.7761C43.3265 20.793 43.2862 20.799 43.2467 20.7936C43.2072 20.7881 43.17 20.7714 43.1398 20.7454L40.0456 18.0548L36.6209 20.4494L38.0854 24.2931C38.0994 24.3302 38.1026 24.3705 38.0944 24.4094C38.0862 24.4482 38.0671 24.4839 38.0393 24.5121C37.0605 25.5141 36.2026 26.6274 35.4832 27.8292C35.4626 27.8629 35.4329 27.8901 35.3976 27.9077C35.3623 27.9254 35.3227 27.9328 35.2834 27.9292L31.2053 27.5102L29.7754 31.4384L33.1501 33.7446C33.1837 33.7666 33.21 33.7981 33.2257 33.835C33.2414 33.8719 33.2459 33.9127 33.2385 33.9521C33.074 34.9288 32.9904 35.9175 32.9887 36.9079C32.9887 37.2923 32.9887 37.6766 33.0387 38.1571C33.0404 38.1965 33.0313 38.2356 33.0123 38.2702C32.9933 38.3048 32.9652 38.3334 32.931 38.3531L29.3795 40.3364L30.4634 44.3723L34.4916 44.2992C34.531 44.2991 34.5697 44.3103 34.6031 44.3314C34.6364 44.3525 34.6631 44.3827 34.6799 44.4184C35.2875 45.7085 36.049 46.9204 36.9477 48.0276C36.9723 48.0579 36.9879 48.0945 36.9926 48.1333C36.9974 48.172 36.9911 48.2113 36.9746 48.2467L35.2372 51.852L38.439 54.5426L41.6523 52.2364C41.6862 52.2148 41.7255 52.2034 41.7657 52.2034C41.8058 52.2034 41.8452 52.2148 41.8791 52.2364C43.1319 52.956 44.4678 53.52 45.8572 53.916C45.8954 53.9265 45.9297 53.9476 45.9563 53.9768C45.9828 54.0061 46.0005 54.0424 46.0071 54.0813L46.6413 57.948ZM50.6849 48.3389C48.4204 48.3382 46.207 47.666 44.3245 46.4073C42.442 45.1487 40.975 43.3602 40.109 41.2678C39.2429 39.1755 39.0167 36.8734 39.459 34.6525C39.9012 32.4316 40.992 30.3918 42.5935 28.7908C44.195 27.1898 46.2353 26.0997 48.4563 25.6582C50.6773 25.2167 52.9794 25.4437 55.0714 26.3104C57.1634 27.1772 58.9515 28.6448 60.2095 30.5277C61.4675 32.4106 62.1389 34.6242 62.1389 36.8887C62.1338 39.9242 60.9252 42.8339 58.778 44.9796C56.6308 47.1253 53.7204 48.332 50.6849 48.3351V48.3389ZM50.6849 25.8536C48.5023 25.8536 46.3688 26.5008 44.5541 27.7133C42.7394 28.9259 41.325 30.6493 40.4897 32.6657C39.6545 34.6821 39.436 36.9009 39.8618 39.0415C40.2876 41.1821 41.3386 43.1484 42.8819 44.6917C44.4251 46.235 46.3914 47.286 48.532 47.7118C50.6726 48.1376 52.8914 47.919 54.9078 47.0838C56.9242 46.2486 58.6477 44.8342 59.8602 43.0195C61.0728 41.2048 61.72 39.0712 61.72 36.8887C61.7179 33.9623 60.5548 31.1562 58.4858 29.0866C56.4169 27.0169 53.6113 25.8528 50.6849 25.8497V25.8536Z" fill="#263238"/>
<path d="M26.0527 45.7386C25.9208 45.7383 25.7923 45.696 25.6859 45.618C25.5795 45.5399 25.5007 45.43 25.4608 45.3043C25.0441 44.0083 24.7279 42.6822 24.5153 41.3376C24.4898 41.174 24.5303 41.007 24.628 40.8733C24.7257 40.7395 24.8725 40.6501 25.0361 40.6246C25.1997 40.5991 25.3667 40.6397 25.5004 40.7374C25.6341 40.835 25.7236 40.9818 25.7491 41.1454C25.9523 42.4259 26.253 43.689 26.6485 44.9237C26.6935 45.0792 26.6767 45.2461 26.6014 45.3894C26.5262 45.5327 26.3984 45.6413 26.2449 45.6925C26.1841 45.7192 26.119 45.7348 26.0527 45.7386Z" fill="#263238"/>
<path d="M24.8296 38.4991C24.6668 38.4992 24.5102 38.4358 24.3933 38.3225C24.2763 38.2091 24.2081 38.0546 24.2031 37.8918C24.2031 37.6497 24.2031 37.4075 24.2031 37.1654C24.2045 31.7308 25.8693 26.4269 28.9739 21.9664C32.0784 17.5059 36.474 14.1026 41.5697 12.2139C46.6655 10.3252 52.2173 10.0415 57.4791 11.401C62.7408 12.7606 67.4603 15.6982 71.0034 19.819C71.0569 19.8811 71.0976 19.9531 71.1233 20.0309C71.149 20.1088 71.1591 20.1909 71.153 20.2726C71.1469 20.3544 71.1248 20.4341 71.0879 20.5073C71.051 20.5805 71.0001 20.6457 70.938 20.6992C70.8759 20.7527 70.8039 20.7934 70.7261 20.8191C70.6483 20.8448 70.5661 20.8549 70.4844 20.8488C70.4027 20.8427 70.3229 20.8206 70.2497 20.7838C70.1765 20.7469 70.1113 20.6959 70.0578 20.6338C66.6822 16.7032 62.1838 13.9004 57.1678 12.6024C52.1518 11.3044 46.8586 11.5734 42 13.3734C37.1414 15.1733 32.9505 18.4178 29.9908 22.6705C27.0311 26.9232 25.4446 31.9803 25.4446 37.1615C25.4446 37.3921 25.4446 37.6228 25.4446 37.8534C25.4472 37.9355 25.4335 38.0173 25.4043 38.094C25.3751 38.1708 25.331 38.2411 25.2746 38.3007C25.2181 38.3604 25.1504 38.4083 25.0754 38.4417C25.0003 38.4751 24.9194 38.4933 24.8373 38.4953L24.8296 38.4991Z" fill="#263238"/>
<path d="M72.2769 17.8672L72.9649 23.5558L67.6953 21.3111L72.2769 17.8672Z" fill="#263238"/>
<path d="M99.1469 57.2171L102.303 56.2754L101.488 51.663L98.1783 51.8628C97.7464 50.7267 97.1771 49.6476 96.4833 48.6496L98.5627 46.0282L95.2494 42.7303L92.605 44.829C90.8932 43.672 88.958 42.8864 86.9241 42.5228L86.5397 39.125H81.8505L81.4661 42.5458C80.304 42.7666 79.1723 43.1253 78.0953 43.6144L75.7891 41.0276L71.9454 43.7182L73.5943 46.7662C72.7691 47.608 72.0466 48.5447 71.4419 49.5567L68.0749 48.7533L66.4836 53.1082L69.5585 54.6457C69.4177 55.4671 69.347 56.2991 69.3471 57.1325C69.3471 57.4861 69.3471 57.8359 69.3894 58.1857L66.1953 59.4464L67.4061 63.9703L70.7616 63.4745C71.277 64.5607 71.9223 65.5803 72.6834 66.511L70.8231 69.3284L74.413 72.338L76.8345 70.0318C77.8896 70.6388 79.0152 71.1139 80.1862 71.4462L80.2746 74.7595L84.9408 75.1669L85.6019 71.9498C86.8257 71.8429 88.0316 71.5846 89.1919 71.181L91.1406 73.8062L95.1956 71.4655L93.9003 68.4751C94.839 67.6738 95.6766 66.7613 96.3948 65.7576L99.4928 66.7877L101.472 62.5597L98.678 60.8608C98.9851 59.6704 99.1426 58.4464 99.1469 57.2171ZM93.6044 57.1517C93.6044 59.0022 93.0556 60.8111 92.0274 62.3497C90.9993 63.8883 89.5379 65.0874 87.8282 65.7954C86.1185 66.5033 84.2372 66.6884 82.4224 66.3271C80.6075 65.9658 78.9405 65.0744 77.6323 63.7656C76.324 62.4569 75.4333 60.7895 75.0728 58.9745C74.7122 57.1595 74.8981 55.2783 75.6067 53.5689C76.3154 51.8595 77.5151 50.3986 79.0541 49.3711C80.5931 48.3435 82.4023 47.7955 84.2528 47.7963C85.4812 47.7963 86.6975 48.0383 87.8324 48.5085C88.9672 48.9787 89.9983 49.6679 90.8667 50.5366C91.7351 51.4054 92.4239 52.4368 92.8936 53.5718C93.3634 54.7069 93.6049 55.9233 93.6044 57.1517Z" fill="#FF725E"/>
<path d="M84.9366 75.3976H84.9174L80.255 75.0132C80.204 75.0095 80.1562 74.987 80.1207 74.9501C80.0852 74.9132 80.0646 74.8645 80.0629 74.8134L79.9783 71.65C78.893 71.3307 77.8473 70.8897 76.8611 70.3355L74.5549 72.5225C74.5169 72.5566 74.4676 72.5754 74.4165 72.5754C74.3655 72.5754 74.3162 72.5566 74.2782 72.5225L70.6882 69.513C70.6492 69.4794 70.6238 69.4328 70.6168 69.3818C70.6097 69.3309 70.6214 69.2791 70.6498 69.2362L72.4255 66.5457C71.7328 65.6734 71.1386 64.7272 70.6536 63.7244L67.448 64.201C67.3973 64.2092 67.3453 64.1979 67.3025 64.1694C67.2598 64.1409 67.2293 64.0973 67.2174 64.0473L66.0066 59.5156C65.9938 59.4662 65.9997 59.4138 66.0231 59.3684C66.0465 59.323 66.0858 59.2879 66.1335 59.2696L69.1853 58.0627C69.1623 57.7206 69.1546 57.4285 69.1546 57.1479C69.1549 56.3537 69.2178 55.5607 69.3429 54.7764L66.391 53.3043C66.345 53.2818 66.3089 53.243 66.2897 53.1954C66.2706 53.1479 66.2697 53.0949 66.2872 53.0468L67.89 48.6458C67.9089 48.5984 67.944 48.5592 67.989 48.5353C68.0341 48.5114 68.0862 48.5042 68.136 48.5151L71.3532 49.2838C71.9227 48.3521 72.5916 47.4847 73.348 46.6971L71.7721 43.7836C71.748 43.7386 71.7413 43.6862 71.7534 43.6366C71.7654 43.5869 71.7954 43.5435 71.8375 43.5145L75.6811 40.824C75.7233 40.7943 75.775 40.7815 75.8262 40.7879C75.8773 40.7943 75.9243 40.8195 75.9579 40.8586L78.1487 43.33C79.1485 42.8877 80.1938 42.5564 81.2659 42.3422L81.6503 39.0751C81.6568 39.0245 81.6814 38.9779 81.7195 38.944C81.7577 38.9101 81.8068 38.8911 81.8578 38.8906H86.5432C86.5939 38.8912 86.6425 38.9103 86.68 38.9443C86.7175 38.9783 86.7413 39.0248 86.747 39.0751L87.1313 42.323C89.089 42.6944 90.9526 43.4537 92.6124 44.5562L95.1376 42.5536C95.1761 42.5204 95.2252 42.502 95.276 42.502C95.3268 42.502 95.376 42.5204 95.4144 42.5536L98.7238 45.8668C98.7578 45.9049 98.7766 45.9542 98.7766 46.0052C98.7766 46.0563 98.7578 46.1055 98.7238 46.1436L96.7404 48.642C97.377 49.5753 97.9069 50.5771 98.3202 51.6285L101.476 51.4401C101.527 51.4374 101.578 51.4535 101.618 51.4853C101.658 51.5171 101.686 51.5626 101.695 51.6131L102.506 56.2255C102.515 56.2758 102.506 56.3278 102.479 56.3712C102.452 56.4147 102.409 56.4463 102.36 56.4599L99.3541 57.3555C99.3388 58.4994 99.1944 59.6379 98.9236 60.7494L101.576 62.3792C101.619 62.4062 101.651 62.448 101.666 62.4967C101.68 62.5454 101.677 62.5979 101.656 62.6444L99.677 66.8724C99.6552 66.9184 99.6176 66.955 99.571 66.9755C99.5244 66.9959 99.4719 66.9989 99.4233 66.9838L96.4675 65.9999C95.7964 66.9269 95.0227 67.7753 94.1614 68.529L95.3952 71.381C95.4153 71.4274 95.4179 71.4795 95.4023 71.5277C95.3867 71.5758 95.3541 71.6166 95.3106 71.6423L91.2517 73.9831C91.2082 74.0093 91.1565 74.0183 91.1068 74.0083C91.057 73.9984 91.0128 73.9702 90.9827 73.9293L89.1223 71.4233C88.0401 71.7905 86.9195 72.0329 85.7822 72.1459L85.1519 75.2208C85.1443 75.2717 85.1181 75.318 85.0783 75.3507C85.0385 75.3833 84.988 75.4001 84.9366 75.3976ZM80.4741 74.5866L84.7713 74.9709L85.3902 71.9345C85.3998 71.8904 85.4233 71.8506 85.4572 71.8209C85.4911 71.7912 85.5336 71.773 85.5785 71.7692C86.7857 71.6602 87.9748 71.402 89.1185 71.0005C89.1608 70.9858 89.2067 70.985 89.2496 70.9981C89.2924 71.0112 89.3299 71.0376 89.3568 71.0735L91.1941 73.5488L94.9301 71.3925L93.704 68.5713C93.6873 68.5299 93.6839 68.4844 93.6942 68.441C93.7046 68.3976 93.7281 68.3585 93.7616 68.3291C94.6901 67.539 95.5153 66.635 96.2177 65.6386C96.2448 65.6029 96.2822 65.5765 96.3248 65.5627C96.3674 65.549 96.4132 65.5486 96.456 65.5617L99.3772 66.538L101.199 62.629L98.5739 61.0147C98.5361 60.9909 98.5069 60.9558 98.4903 60.9143C98.4737 60.8729 98.4707 60.8273 98.4816 60.784C98.7826 59.6097 98.9363 58.4025 98.939 57.1902C98.9391 57.1457 98.9538 57.1023 98.9809 57.0669C99.008 57.0315 99.0459 57.006 99.0889 56.9942L102.064 56.1063L101.314 51.8591L98.1933 52.0474C98.1488 52.0509 98.1043 52.0396 98.0668 52.0153C98.0293 51.991 98.0008 51.955 97.9858 51.9129C97.559 50.7933 96.9975 49.7297 96.3138 48.7457C96.287 48.7103 96.2725 48.6671 96.2725 48.6227C96.2725 48.5783 96.287 48.5351 96.3138 48.4997L98.2741 46.0244L95.2184 42.9918L92.72 44.9751C92.6846 45.0019 92.6414 45.0164 92.597 45.0164C92.5526 45.0164 92.5094 45.0019 92.474 44.9751C90.7883 43.8293 88.8801 43.0513 86.8738 42.692C86.83 42.684 86.7898 42.6622 86.7594 42.6296C86.7289 42.5971 86.7097 42.5556 86.7047 42.5113L86.3203 39.2942H82.0347L81.6503 42.5306C81.6467 42.5747 81.6285 42.6165 81.5986 42.6492C81.5686 42.6819 81.5287 42.7037 81.485 42.7112C80.3398 42.9297 79.2249 43.2846 78.1641 43.7682C78.1232 43.7859 78.0778 43.7902 78.0343 43.7806C77.9908 43.7709 77.9515 43.7477 77.922 43.7144L75.7503 41.2698L72.218 43.7413L73.7785 46.624C73.7989 46.6636 73.8065 46.7085 73.8003 46.7525C73.7941 46.7966 73.7744 46.8376 73.7439 46.87C72.9294 47.6994 72.217 48.6233 71.6222 49.6221C71.5981 49.6597 71.5632 49.6891 71.5219 49.7062C71.4807 49.7234 71.4353 49.7276 71.3916 49.7182L68.2052 48.9494L66.7331 53.0007L69.6466 54.4574C69.6864 54.478 69.7186 54.5106 69.7387 54.5507C69.7587 54.5908 69.7655 54.6362 69.758 54.6803C69.6208 55.4905 69.5513 56.3108 69.5505 57.1326C69.5505 57.4439 69.5505 57.7745 69.5928 58.1704C69.5953 58.2142 69.584 58.2578 69.5606 58.295C69.5372 58.3322 69.5027 58.3612 69.4621 58.3779L66.441 59.5733L67.5556 63.736L70.7266 63.267C70.7711 63.2605 70.8166 63.2685 70.8561 63.29C70.8956 63.3115 70.9271 63.3453 70.9457 63.3862C71.4516 64.4559 72.0839 65.4612 72.8291 66.3804C72.8553 66.416 72.8695 66.4591 72.8695 66.5034C72.8695 66.5476 72.8553 66.5907 72.8291 66.6264L71.0726 69.29L74.3743 72.0613L76.6804 69.8973C76.7124 69.8659 76.7538 69.8458 76.7982 69.8402C76.8427 69.8347 76.8878 69.8439 76.9264 69.8666C77.9651 70.4663 79.0741 70.935 80.2281 71.2618C80.2709 71.2733 80.3089 71.2981 80.3366 71.3327C80.3642 71.3672 80.3801 71.4098 80.3819 71.454L80.4741 74.5866ZM84.2524 66.6994C82.3611 66.6994 80.5121 66.1386 78.9395 65.0878C77.3669 64.037 76.1412 62.5434 75.4174 60.796C74.6936 59.0486 74.5042 57.1258 74.8732 55.2708C75.2422 53.4157 76.153 51.7118 77.4904 50.3744C78.8278 49.037 80.5318 48.1262 82.3868 47.7572C84.2418 47.3882 86.1646 47.5776 87.912 48.3014C89.6594 49.0252 91.153 50.2509 92.2038 51.8235C93.2546 53.3961 93.8154 55.245 93.8154 57.1364C93.8154 59.6737 92.8083 62.1073 91.0152 63.9026C89.2221 65.6978 86.7898 66.7079 84.2524 66.7109V66.6994ZM84.2524 47.9885C82.443 47.9878 80.674 48.5236 79.1691 49.5284C77.6642 50.5331 76.4911 51.9615 75.7982 53.633C75.1052 55.3045 74.9235 57.144 75.276 58.9187C75.6286 60.6935 76.4995 62.3238 77.7787 63.6036C79.0579 64.8833 80.6879 65.755 82.4625 66.1082C84.2371 66.4615 86.0767 66.2806 87.7484 65.5883C89.4202 64.8961 90.8492 63.7235 91.8545 62.2191C92.8599 60.7147 93.3965 58.9459 93.3965 57.1364C93.3904 54.7139 92.4248 52.3924 90.7111 50.6801C88.9973 48.9678 86.675 48.0041 84.2524 48.0001V47.9885Z" fill="#263238"/>
<path d="M84.1047 79.876C78.9371 79.8633 73.9334 78.061 69.9447 74.7755C69.8173 74.67 69.737 74.5182 69.7215 74.3535C69.706 74.1888 69.7566 74.0247 69.8621 73.8972C69.9676 73.7698 70.1194 73.6895 70.2841 73.674C70.4488 73.6585 70.6129 73.7091 70.7403 73.8146C74.4348 76.8689 79.0623 78.5686 83.8554 78.6317C88.6485 78.6948 93.3191 77.1175 97.0927 74.1615C100.866 71.2055 103.516 67.0483 104.602 62.3796C105.689 57.7108 105.146 52.8109 103.065 48.4926C103.023 48.418 102.996 48.3353 102.986 48.2497C102.977 48.1642 102.985 48.0776 103.011 47.9954C103.036 47.9133 103.078 47.8372 103.135 47.772C103.191 47.7069 103.26 47.654 103.337 47.6167C103.415 47.5793 103.499 47.5584 103.585 47.5551C103.671 47.5519 103.757 47.5664 103.837 47.5977C103.917 47.6291 103.99 47.6766 104.051 47.7373C104.112 47.798 104.16 47.8707 104.192 47.9507C105.827 51.3469 106.573 55.1027 106.36 58.866C106.148 62.6294 104.983 66.2771 102.976 69.4675C100.968 72.6579 98.184 75.2865 94.8834 77.107C91.5828 78.9274 87.874 79.8802 84.1047 79.876Z" fill="#263238"/>
<path d="M101.511 50.4184L101.492 44.6875L106.462 47.5356L101.511 50.4184Z" fill="#263238"/>
<path d="M31.282 134.329C42.2504 134.329 51.1421 132.092 51.1421 129.333C51.1421 126.573 42.2504 124.336 31.282 124.336C20.3136 124.336 11.4219 126.573 11.4219 129.333C11.4219 132.092 20.3136 134.329 31.282 134.329Z" fill="#263238"/>
<path d="M73.1169 125.174C73.1169 124.951 73.1438 124.728 73.1438 124.498C73.1438 119.117 68.0894 114.766 61.8512 114.766C55.6129 114.766 50.5547 119.124 50.5547 124.498C50.5547 124.728 50.5547 124.951 50.5854 125.174H73.1169Z" fill="white"/>
<path d="M73.1213 125.382H50.5899C50.5374 125.382 50.4868 125.363 50.4483 125.327C50.4098 125.291 50.3862 125.242 50.3823 125.19C50.3631 124.929 50.3516 124.706 50.3516 124.494C50.3516 119.013 55.5136 114.555 61.8556 114.555C68.1976 114.555 73.3596 119.013 73.3596 124.494C73.3596 124.706 73.3596 124.925 73.3289 125.19C73.3241 125.242 73.3003 125.29 73.262 125.326C73.2237 125.361 73.1735 125.382 73.1213 125.382ZM50.782 124.975H72.9215C72.9215 124.806 72.9215 124.652 72.9215 124.506C72.9215 119.255 67.9478 114.981 61.8364 114.981C55.725 114.981 50.7475 119.255 50.7475 124.506C50.7667 124.644 50.7744 124.794 50.782 124.975Z" fill="#263238"/>
<path d="M73.1169 126.096C73.1169 125.873 73.1438 125.646 73.1438 125.42C73.1438 120.039 68.0894 115.688 61.8512 115.688C55.6129 115.688 50.5547 120.046 50.5547 125.42C50.5547 125.646 50.5547 125.873 50.5854 126.096H73.1169Z" fill="#263238"/>
<path d="M73.1213 126.308H50.5899C50.538 126.308 50.4879 126.289 50.4495 126.254C50.4111 126.219 50.3871 126.171 50.3823 126.12C50.3631 125.855 50.3516 125.635 50.3516 125.424C50.3516 119.943 55.5136 115.484 61.8556 115.484C68.1976 115.484 73.3596 119.943 73.3596 125.424C73.3596 125.635 73.3596 125.855 73.3289 126.12C73.3241 126.171 73.3001 126.219 73.2617 126.254C73.2233 126.289 73.1732 126.308 73.1213 126.308ZM50.782 125.893H72.9215C72.9215 125.724 72.9215 125.57 72.9215 125.424C72.9215 120.174 67.9478 115.899 61.8364 115.899C55.725 115.899 50.7475 120.174 50.7475 125.424C50.7667 125.57 50.7744 125.724 50.782 125.893Z" fill="#263238"/>
<path d="M37.5873 63.3046L45.3553 75.5851L53.8921 70.7805L54.411 74.947C54.411 74.947 46.1894 81.4159 45.044 81.9271C43.8986 82.4383 41.8153 82.1385 41.2964 81.512C40.7776 80.8855 36.4073 65.3994 36.4073 65.3994C36.4073 65.3994 35.6386 62.4744 37.5873 63.3046Z" fill="white"/>
<path d="M43.5789 82.4096C42.5719 82.4096 41.5302 82.1328 41.1343 81.6409C40.6001 80.999 36.6488 67.035 36.2029 65.4284C36.153 65.2477 35.7724 63.6872 36.422 63.1222C36.7103 62.8762 37.1292 62.8646 37.6674 63.0953C37.7062 63.1111 37.7387 63.1395 37.7596 63.176L45.4238 75.2912L53.7876 70.5981C53.8178 70.5819 53.8514 70.5735 53.8856 70.5735C53.9198 70.5735 53.9535 70.5819 53.9836 70.5981C54.0142 70.614 54.0406 70.6369 54.0606 70.665C54.0807 70.693 54.0938 70.7254 54.0989 70.7595L54.6178 74.9222C54.6227 74.9575 54.6181 74.9936 54.6046 75.0266C54.5911 75.0597 54.5692 75.0886 54.541 75.1105C54.2027 75.3757 46.281 81.587 45.1279 82.1136C44.6373 82.3175 44.1101 82.4183 43.5789 82.4096ZM36.9793 63.3643C36.8766 63.3601 36.7757 63.3928 36.6949 63.4566C36.3528 63.7525 36.4566 64.7672 36.6027 65.3361C38.3438 71.509 41.0728 80.8875 41.4572 81.391C41.9107 81.933 43.9018 82.2289 44.9549 81.7485C46.0081 81.268 53.2803 75.5986 54.1797 74.8722L53.7107 71.1323L45.4546 75.7793C45.4079 75.805 45.3531 75.8117 45.3016 75.7981C45.2501 75.7845 45.2058 75.7516 45.1778 75.7063L37.4444 63.4796C37.2975 63.4137 37.14 63.3747 36.9793 63.3643Z" fill="#263238"/>
<path d="M53.4737 70.1711L47.5391 73.9186L50.6947 80.0608L55.6568 74.6489L55.138 68.9219L53.4737 70.1711Z" fill="#FF725E"/>
<path d="M50.7002 80.2706H50.6733C50.6404 80.2648 50.6093 80.2517 50.582 80.2325C50.5548 80.2132 50.5322 80.1882 50.5157 80.1591L47.3601 74.0093C47.3355 73.963 47.3294 73.9091 47.343 73.8585C47.3565 73.8079 47.3887 73.7643 47.4331 73.7364L53.36 70.0119L55.0166 68.7704C55.0461 68.7474 55.0812 68.7328 55.1183 68.7282C55.1554 68.7235 55.193 68.729 55.2273 68.7439C55.2615 68.7589 55.2911 68.7828 55.3129 68.8132C55.3347 68.8435 55.3478 68.8792 55.351 68.9165L55.8699 74.6435C55.8736 74.6721 55.8707 74.7012 55.8614 74.7286C55.852 74.7559 55.8365 74.7807 55.8161 74.8011L50.8539 80.2168C50.8333 80.2357 50.809 80.2502 50.7826 80.2594C50.7561 80.2687 50.7281 80.2725 50.7002 80.2706ZM47.8175 73.9939L50.7502 79.7017L55.4471 74.5782L54.9705 69.3162L53.6021 70.3386L47.8175 73.9939Z" fill="#263238"/>
<path d="M28.9844 92.0456L43.4749 106.609C43.4749 106.609 39.8311 110.045 37.229 112.963C34.6268 115.88 30.3604 119.624 30.3604 119.624L31.8171 121.392C31.8171 121.392 48.6831 108.708 49.4979 107.858C50.3128 107.009 50.332 105.36 50.1244 103.177C49.9169 100.994 43.7747 83.8125 43.7747 83.8125L28.9844 92.0456Z" fill="#263238"/>
<path d="M31.8228 121.599C31.7919 121.599 31.7614 121.592 31.7335 121.579C31.7057 121.566 31.681 121.546 31.6614 121.523L30.2046 119.751C30.1702 119.709 30.1534 119.656 30.1577 119.602C30.162 119.548 30.1871 119.498 30.2277 119.462C30.27 119.428 34.5172 115.692 37.0809 112.821C39.3563 110.272 42.462 107.293 43.1846 106.601L28.844 92.1878C28.8214 92.1655 28.8041 92.1383 28.7935 92.1084C28.7828 92.0784 28.7791 92.0464 28.7825 92.0148C28.7876 91.9828 28.8 91.9523 28.8186 91.9256C28.8373 91.899 28.8617 91.8769 28.8901 91.8611L43.7112 83.628C43.739 83.6157 43.7692 83.6094 43.7996 83.6094C43.83 83.6094 43.8601 83.6157 43.888 83.628C43.9161 83.6396 43.9414 83.6569 43.9626 83.6787C43.9837 83.7005 44.0002 83.7264 44.011 83.7548C44.2608 84.4544 50.1608 100.982 50.3722 103.165C50.5952 105.518 50.5567 107.147 49.6881 108.02C48.8194 108.892 32.6569 121.054 31.9689 121.572C31.9246 121.598 31.8731 121.607 31.8228 121.599ZM30.6697 119.643L31.8728 121.104C33.5947 119.804 48.6195 108.477 49.3883 107.708C50.157 106.94 50.157 105.356 49.9533 103.192C49.7611 101.193 44.43 86.1648 43.6958 84.1085L29.3475 92.0917L43.6459 106.459C43.6841 106.5 43.706 106.553 43.7074 106.609C43.7043 106.665 43.6811 106.719 43.642 106.759C43.6036 106.794 39.9752 110.218 37.4076 113.097C35.0861 115.676 31.4384 118.947 30.6428 119.643H30.6697Z" fill="#263238"/>
<path d="M36.7338 110.969L40.2469 117.099L33.1284 120.824C32.8778 121.644 32.8778 122.521 33.1284 123.341C33.5666 124.548 34.6659 125.751 34.7697 126.416C34.8734 127.081 34.9888 127.4 33.5666 127.4C32.1445 127.4 30.6108 126.197 29.8421 125.321C29.0734 124.445 28.9658 122.035 28.3047 121.051C27.6435 120.067 26.5519 118.641 27.4283 117.326C28.3047 116.012 30.0535 115.789 30.0535 115.789L36.7338 110.969Z" fill="#FF725E"/>
<path d="M33.5608 127.598C31.9849 127.598 30.3821 126.249 29.6826 125.45C29.2367 124.942 29.0061 124.001 28.7832 123.09C28.6618 122.421 28.443 121.773 28.1336 121.168L27.9914 120.956C27.3034 119.942 26.3617 118.554 27.2572 117.213C28.0952 115.952 29.6595 115.648 29.9747 115.598L36.6127 110.809C36.6363 110.787 36.6643 110.771 36.6948 110.761C36.7253 110.751 36.7576 110.748 36.7895 110.751C36.8178 110.757 36.8445 110.769 36.8677 110.787C36.891 110.804 36.9102 110.826 36.924 110.851L40.4294 117.001C40.4431 117.026 40.4519 117.052 40.4552 117.08C40.4585 117.108 40.4563 117.136 40.4486 117.163C40.441 117.189 40.4278 117.214 40.41 117.235C40.3921 117.257 40.3699 117.274 40.3449 117.286L33.3033 120.968C33.0885 121.723 33.0965 122.524 33.3264 123.274C33.5784 123.88 33.8941 124.457 34.2681 124.996C34.582 125.412 34.8225 125.879 34.9791 126.376V126.445C35.0329 126.776 35.0829 127.06 34.8907 127.287C34.6985 127.514 34.3296 127.598 33.5608 127.598ZM36.6703 111.27L30.1784 115.952C30.1509 115.974 30.1175 115.987 30.0823 115.99C30.0823 115.99 28.4142 116.217 27.6032 117.432C26.8652 118.539 27.68 119.738 28.3335 120.71L28.4795 120.926C28.8207 121.573 29.0605 122.269 29.1906 122.99C29.3982 123.851 29.6172 124.742 29.9939 125.173C30.8395 126.141 32.3193 127.183 33.5608 127.183C34.1412 127.183 34.4833 127.125 34.5756 127.014C34.6678 126.902 34.6101 126.749 34.5756 126.51V126.441C34.4232 126.003 34.2041 125.591 33.926 125.219C33.5338 124.654 33.2038 124.048 32.942 123.412C32.6732 122.548 32.6732 121.621 32.942 120.756C32.949 120.731 32.9615 120.706 32.9788 120.686C32.9961 120.665 33.0176 120.649 33.0419 120.637L39.9605 117.013L36.6703 111.27Z" fill="#263238"/>
<path d="M34.5153 127.28C32.9778 126.838 31.5518 125.608 30.5755 124.267C29.4839 122.768 29.7568 120.174 28.6537 119.22C27.9849 118.632 27.9311 117.479 27.9888 116.68C27.7703 116.862 27.5787 117.074 27.4199 117.31C26.5435 118.625 27.639 120.051 28.2962 121.035C28.9535 122.019 29.065 124.428 29.8337 125.305C30.6024 126.181 32.1399 127.384 33.5582 127.384C33.8807 127.402 34.204 127.367 34.5153 127.28Z" fill="#263238"/>
<path d="M33.5608 127.602C31.9849 127.602 30.3821 126.253 29.6826 125.454C29.2367 124.946 29.0061 124.005 28.7832 123.094C28.6618 122.425 28.443 121.777 28.1336 121.172L27.9914 120.961C27.3034 119.946 26.3617 118.558 27.2572 117.217C27.4271 116.963 27.633 116.735 27.8684 116.54C27.8996 116.515 27.9376 116.498 27.9778 116.494C28.018 116.489 28.0588 116.496 28.0952 116.513C28.1323 116.532 28.1628 116.561 28.1828 116.598C28.2027 116.634 28.211 116.676 28.2066 116.717C28.1605 117.367 28.172 118.535 28.8024 119.085C29.4328 119.635 29.6249 120.592 29.844 121.618C30.04 122.533 30.2284 123.478 30.7434 124.166C31.8197 125.646 33.2149 126.715 34.5871 127.103C34.6302 127.114 34.6685 127.138 34.6963 127.173C34.724 127.208 34.7397 127.25 34.7408 127.295C34.7414 127.339 34.7284 127.382 34.7037 127.418C34.6789 127.455 34.6436 127.483 34.6025 127.499C34.2634 127.591 33.9114 127.626 33.5608 127.602ZM27.7954 117.225C27.732 117.296 27.6742 117.371 27.6224 117.451C26.8844 118.558 27.6993 119.758 28.3527 120.73L28.4987 120.945C28.8399 121.593 29.0797 122.289 29.2098 123.009C29.4174 123.87 29.6365 124.762 30.0131 125.192C30.8587 126.161 32.3385 127.203 33.58 127.203H33.6646C32.3684 126.559 31.2543 125.601 30.4244 124.416C29.8709 123.647 29.6557 122.667 29.4558 121.725C29.2559 120.784 29.0714 119.865 28.5449 119.419C27.9491 118.873 27.78 117.993 27.7761 117.209L27.7954 117.225Z" fill="#263238"/>
<path d="M27.7969 90.3359C27.7969 90.3359 30.6066 95.5095 32.7936 98.5267C35.7071 102.551 40.9806 108.693 40.9806 108.693L40.1504 128.161L42.7525 128.473C42.7525 128.473 47.4379 109.32 47.5417 107.755C47.6455 106.191 40.773 91.5159 40.773 91.5159" fill="#263238"/>
<path d="M42.7508 128.677H42.7239L40.1218 128.365C40.0695 128.359 40.0217 128.332 39.9881 128.292C39.9546 128.251 39.9378 128.199 39.9411 128.146L40.7675 108.763C40.2063 108.102 35.3518 102.413 32.6228 98.6463C30.455 95.6521 27.6261 90.4862 27.6261 90.4324C27.6002 90.384 27.5945 90.3272 27.6104 90.2746C27.6262 90.222 27.6623 90.1779 27.7107 90.1518C27.7343 90.1383 27.7604 90.1297 27.7874 90.1264C27.8144 90.1232 27.8418 90.1254 27.868 90.1329C27.8941 90.1405 27.9185 90.1532 27.9397 90.1703C27.9609 90.1874 27.9784 90.2085 27.9912 90.2325C28.022 90.2863 30.824 95.4291 32.988 98.4003C35.863 102.375 41.1134 108.494 41.1673 108.555C41.1989 108.596 41.2164 108.646 41.2172 108.697L40.3639 127.973L42.5933 128.242C43.066 126.29 47.2364 109.186 47.3325 107.74C47.4132 106.503 42.4895 95.6713 40.583 91.597C40.5605 91.5469 40.5583 91.4901 40.5769 91.4384C40.5956 91.3868 40.6336 91.3444 40.683 91.3203C40.7077 91.3086 40.7345 91.3019 40.7618 91.3006C40.7891 91.2993 40.8164 91.3035 40.8421 91.3127C40.8678 91.322 40.8914 91.3363 40.9116 91.3547C40.9318 91.3732 40.9481 91.3954 40.9597 91.4202C41.6669 92.9269 47.8514 106.195 47.7476 107.763C47.6438 109.332 43.1352 127.731 42.9507 128.519C42.9402 128.564 42.9147 128.604 42.8784 128.633C42.8421 128.662 42.7971 128.677 42.7508 128.677Z" fill="#263238"/>
<path d="M47.4949 108.833C47.4395 108.833 47.3863 108.811 47.3467 108.772C47.3072 108.733 47.2845 108.68 47.2835 108.625C47.2604 103.136 44.9773 98.7623 42.5481 94.1307L42.0984 93.2697C42.085 93.2415 42.0781 93.2106 42.0781 93.1794C42.0781 93.1481 42.085 93.1173 42.0984 93.089L43.3245 90.3062C43.3354 90.281 43.3511 90.2582 43.3708 90.239C43.3905 90.2198 43.4137 90.2047 43.4392 90.1946C43.4648 90.1844 43.492 90.1793 43.5195 90.1797C43.547 90.1801 43.5741 90.1859 43.5993 90.1967C43.6246 90.2076 43.6474 90.2233 43.6666 90.243C43.6858 90.2626 43.7009 90.2859 43.711 90.3114C43.7212 90.3369 43.7262 90.3642 43.7259 90.3917C43.7255 90.4191 43.7197 90.4463 43.7089 90.4715L42.5558 93.1621L42.9402 93.9308C45.3886 98.6085 47.6986 103.025 47.7255 108.614C47.7255 108.669 47.7038 108.722 47.6649 108.762C47.6261 108.801 47.5733 108.824 47.5179 108.825L47.4949 108.833Z" fill="white"/>
<path d="M42.4586 117.67H42.4355C42.3811 117.665 42.3311 117.638 42.2966 117.595C42.262 117.553 42.2456 117.498 42.251 117.444C42.251 117.444 42.301 116.932 42.3932 116.206C42.3961 116.179 42.4043 116.152 42.4176 116.129C42.4308 116.105 42.4487 116.084 42.4702 116.067C42.4917 116.05 42.5164 116.038 42.5428 116.03C42.5692 116.023 42.5968 116.022 42.6238 116.025C42.651 116.028 42.6774 116.036 42.7013 116.05C42.7252 116.063 42.7462 116.081 42.7631 116.102C42.7799 116.124 42.7923 116.149 42.7994 116.175C42.8065 116.201 42.8082 116.229 42.8045 116.256C42.7161 116.979 42.6661 117.482 42.6661 117.486C42.6596 117.537 42.635 117.583 42.5969 117.617C42.5587 117.651 42.5096 117.67 42.4586 117.67Z" fill="white"/>
<path d="M42.7802 115.03H42.7533C42.7261 115.027 42.6998 115.018 42.676 115.004C42.6523 114.991 42.6315 114.972 42.615 114.951C42.5985 114.929 42.5866 114.904 42.58 114.877C42.5733 114.85 42.5722 114.823 42.5765 114.796C42.8379 112.932 43.0839 111.755 43.3106 111.302C43.3785 111.203 43.4251 111.091 43.4476 110.973C43.47 110.856 43.4679 110.735 43.4413 110.618C43.3375 110.399 42.9532 110.302 42.5804 110.21C42.5083 110.199 42.4408 110.169 42.3856 110.121C42.3305 110.073 42.2901 110.011 42.269 109.941C42.1921 109.641 42.5381 109.326 43.0377 108.85C43.4002 108.547 43.7231 108.199 43.9987 107.816C44.0563 107.72 44.0409 107.673 44.0332 107.658C43.9641 107.447 43.4106 107.216 42.8802 106.997C42.1123 106.722 41.3934 106.327 40.7508 105.825C39.6361 104.848 34.6586 97.0995 32.5715 93.8132C32.5422 93.7666 32.5322 93.7104 32.5437 93.6566C32.5552 93.6028 32.5872 93.5555 32.633 93.5249C32.6562 93.5101 32.682 93.5 32.7091 93.4953C32.7362 93.4906 32.764 93.4912 32.7908 93.4973C32.8176 93.5034 32.843 93.5147 32.8654 93.5307C32.8878 93.5467 32.9068 93.5669 32.9213 93.5903C37.2492 100.401 40.278 104.86 41.0237 105.506C41.6311 105.979 42.3113 106.35 43.0377 106.605C43.7757 106.912 44.31 107.131 44.4368 107.524C44.4631 107.608 44.4702 107.696 44.4576 107.784C44.445 107.871 44.4129 107.954 44.3638 108.027C44.0699 108.445 43.7222 108.822 43.3299 109.149C43.0961 109.347 42.8823 109.567 42.6918 109.807C43.1531 109.922 43.6297 110.045 43.8103 110.441C43.869 110.614 43.8874 110.798 43.8641 110.979C43.8408 111.16 43.7764 111.334 43.6758 111.486C43.5336 111.767 43.2914 112.582 42.9801 114.85C42.973 114.898 42.9491 114.943 42.9127 114.976C42.8762 115.009 42.8293 115.028 42.7802 115.03Z" fill="white"/>
<path d="M32.3468 93.2651C32.3112 93.2653 32.2761 93.2562 32.2451 93.2387C32.2141 93.2212 32.1882 93.1958 32.17 93.1651L31.6934 92.3964C31.6775 92.3735 31.6663 92.3475 31.6606 92.3201C31.6549 92.2928 31.6548 92.2645 31.6603 92.2371C31.6658 92.2097 31.6768 92.1836 31.6926 92.1606C31.7084 92.1375 31.7287 92.1179 31.7523 92.1028C31.7758 92.0878 31.8022 92.0777 31.8298 92.0731C31.8574 92.0685 31.8856 92.0696 31.9128 92.0762C31.9399 92.0828 31.9655 92.0948 31.9879 92.1115C32.0103 92.1282 32.0291 92.1493 32.0432 92.1735L32.5198 92.9422C32.5348 92.9651 32.5451 92.9908 32.5502 93.0177C32.5552 93.0447 32.5548 93.0723 32.5491 93.0991C32.5434 93.1259 32.5324 93.1514 32.5168 93.1739C32.5013 93.1964 32.4814 93.2157 32.4583 93.2305C32.4254 93.2528 32.3866 93.2649 32.3468 93.2651Z" fill="white"/>
<path d="M39.7766 117.914L46.6029 118.491L44.7502 128.1C45.0073 128.65 45.3773 129.139 45.8363 129.537C46.2952 129.934 46.8328 130.23 47.4139 130.406C49.378 130.982 50.189 131.328 50.189 132.255C50.189 133.181 49.378 133.408 46.1416 133.758C42.9053 134.107 39.5459 132.835 39.5459 132.835C39.5459 132.835 38.0431 132.601 37.9278 131.563C37.8124 130.525 39.4306 127.627 39.4306 127.627L39.7766 117.914Z" fill="#FF725E"/>
<path d="M44.963 134.024C43.0952 133.997 41.2443 133.667 39.4819 133.048C39.2744 133.014 37.8369 132.721 37.71 131.599C37.5947 130.561 38.9592 128.044 39.2129 127.586L39.5588 117.92C39.56 117.891 39.5671 117.863 39.5796 117.837C39.5922 117.811 39.61 117.788 39.6318 117.77C39.6527 117.751 39.6771 117.737 39.7036 117.729C39.73 117.72 39.7579 117.717 39.7856 117.72L46.6119 118.296C46.6406 118.298 46.6686 118.307 46.6938 118.321C46.719 118.335 46.7409 118.354 46.758 118.377C46.7752 118.4 46.7876 118.427 46.7942 118.456C46.8008 118.484 46.8015 118.513 46.7964 118.542L44.9707 128.051C45.2193 128.56 45.5696 129.013 46 129.381C46.4303 129.749 46.9316 130.025 47.4729 130.192C49.3409 130.742 50.3979 131.107 50.3979 132.241C50.3979 133.375 49.2986 133.617 46.1699 133.951C45.7692 133.997 45.3663 134.021 44.963 134.024ZM39.9662 118.135L39.6242 127.632C39.6248 127.666 39.6155 127.7 39.5973 127.729C39.1591 128.497 38.0329 130.738 38.1213 131.538C38.2174 132.406 39.5511 132.625 39.5665 132.625H39.6049C39.6395 132.625 42.9528 133.874 46.1045 133.536C49.3178 133.194 49.9482 132.975 49.9482 132.241C49.9482 131.507 49.2909 131.172 47.3191 130.592C46.7069 130.408 46.141 130.095 45.6592 129.675C45.1773 129.255 44.7906 128.737 44.5248 128.155C44.5135 128.118 44.5135 128.077 44.5248 128.04L46.3313 118.665L39.9662 118.135Z" fill="#263238"/>
<path d="M46.1388 133.753C49.2137 133.426 50.0978 133.199 50.1785 132.381C48.3136 132.813 46.39 132.932 44.486 132.734C42.2401 132.453 40.0558 131.804 38.021 130.812C37.9438 131.053 37.9112 131.306 37.9249 131.558C38.0402 132.596 39.5431 132.83 39.5431 132.83C39.5431 132.83 42.8986 134.103 46.1388 133.753Z" fill="#263238"/>
<path d="M44.9595 134.021C43.0917 133.994 41.2407 133.664 39.4784 133.045C39.2709 133.01 37.8334 132.718 37.7065 131.596C37.6917 131.318 37.7255 131.04 37.8064 130.773C37.8148 130.744 37.8294 130.717 37.8493 130.693C37.8692 130.67 37.894 130.652 37.9218 130.639C37.9498 130.625 37.9807 130.617 38.0121 130.617C38.0435 130.617 38.0744 130.625 38.1024 130.639C40.1175 131.617 42.2794 132.259 44.5021 132.538C46.3815 132.739 48.2816 132.621 50.1215 132.188C50.154 132.18 50.1878 132.181 50.22 132.19C50.2521 132.198 50.2817 132.215 50.306 132.238C50.3302 132.259 50.3491 132.286 50.3611 132.316C50.3731 132.346 50.3779 132.378 50.3752 132.411C50.2752 133.433 49.1375 133.652 46.1472 133.971C45.7524 134.008 45.356 134.025 44.9595 134.021ZM38.1639 131.123C38.1328 131.26 38.1224 131.402 38.1332 131.542C38.2293 132.411 39.563 132.63 39.5784 132.63H39.6168C39.6514 132.63 42.9646 133.879 46.1164 133.541C48.6532 133.272 49.5757 133.072 49.8717 132.653C48.0949 133.04 46.267 133.135 44.4598 132.933C42.2787 132.667 40.1536 132.056 38.1639 131.123Z" fill="#263238"/>
<path d="M27.7113 65.8355C27.7113 65.8355 19.8126 69.8637 17.9946 71.8393C16.1765 73.8149 17.6102 75.6291 18.3098 77.6816C19.0093 79.7342 28.2763 91.4919 28.9874 92.0454C29.6985 92.5988 33.3307 90.8615 38.2314 88.7283C43.132 86.5951 44.312 85.7264 44.312 84.5425C44.312 83.3587 37.9777 64.1712 37.5856 63.3064C37.1936 62.4416 29.7638 64.6325 27.7113 65.8355Z" fill="white"/>
<path d="M29.402 92.3543C29.2114 92.3667 29.0221 92.3153 28.8639 92.2083C28.3065 91.7739 18.8704 79.9086 18.1017 77.7485C17.9633 77.3641 17.7942 76.9567 17.6327 76.5723C16.9678 75.0041 16.2798 73.3782 17.8288 71.6947C19.643 69.7229 27.2111 65.8447 27.5993 65.6487C29.5442 64.5301 36.0784 62.5276 37.439 62.9581C37.5084 62.9748 37.5733 63.0065 37.6291 63.051C37.6848 63.0955 37.7302 63.1517 37.7619 63.2156C38.2001 64.1765 44.5075 83.341 44.5075 84.5363C44.5075 85.8662 43.2314 86.7657 38.3 88.9142C37.6235 89.2064 36.9701 89.4946 36.3474 89.7714C32.6191 91.4203 30.4436 92.3505 29.402 92.3543ZM36.9663 63.2925C35.3327 63.2925 29.771 64.8838 27.8184 66.0138C27.7415 66.0522 19.9312 70.0458 18.1632 71.9715C16.7948 73.4589 17.3714 74.8234 18.044 76.407C18.2093 76.7914 18.3784 77.1988 18.5206 77.6101C19.2624 79.7548 28.5794 91.4472 29.1291 91.8739C29.6787 92.3005 32.8305 90.8745 36.2052 89.387L38.1616 88.5299C42.774 86.5197 44.1193 85.6202 44.1193 84.5363C44.1193 83.5216 37.9349 64.5494 37.4083 63.3963C37.343 63.3232 37.1777 63.2925 36.9663 63.2925Z" fill="#263238"/>
<path d="M25.5395 81.5427L30.8322 81.7541L23.7215 80.3627C23.7215 80.3627 18.744 78.1372 18.744 75.489C18.744 72.8407 21.8189 71.8913 21.8189 71.8913L29.3409 69.8772L29.8713 65.2188C29.7522 65.2188 29.4101 65.2188 28.9335 65.2495C28.5117 65.4183 28.1009 65.6135 27.7035 65.8337C27.7035 65.8337 19.8048 69.8619 17.9868 71.8375C16.1687 73.8131 17.6024 75.6274 18.3019 77.6799C19.0015 79.7324 28.2685 91.4901 28.9796 92.0436C29.6907 92.5971 33.3229 90.8597 38.2236 88.7265L38.3773 88.6573C36.9705 88.9417 32.4542 90.0487 31.0359 88.8341C29.5561 87.5619 26.4851 84.387 26.4851 84.387L37.9199 84.4908L25.5395 81.5427Z" fill="#FF725E"/>
<path opacity="0.5" d="M25.5395 81.5427L30.8322 81.7541L23.7215 80.3627C23.7215 80.3627 18.744 78.1372 18.744 75.489C18.744 72.8407 21.8189 71.8913 21.8189 71.8913L29.3409 69.8772L29.8713 65.2188C29.7522 65.2188 29.4101 65.2188 28.9335 65.2495C28.5117 65.4183 28.1009 65.6135 27.7035 65.8337C27.7035 65.8337 19.8048 69.8619 17.9868 71.8375C16.1687 73.8131 17.6024 75.6274 18.3019 77.6799C19.0015 79.7324 28.2685 91.4901 28.9796 92.0436C29.6907 92.5971 33.3229 90.8597 38.2236 88.7265L38.3773 88.6573C36.9705 88.9417 32.4542 90.0487 31.0359 88.8341C29.5561 87.5619 26.4851 84.387 26.4851 84.387L37.9199 84.4908L25.5395 81.5427Z" fill="white"/>
<path d="M25.5 67.0062C26.4544 68.4318 27.6906 69.647 29.1322 70.5769C31.6575 72.1567 33.318 71.8415 34.1866 70.2579C34.8977 68.9665 33.76 65.1382 33.3218 63.7891C31.1425 64.381 28.744 65.2381 27.7101 65.8377C27.7101 65.8377 26.7953 66.3066 25.5 67.0062Z" fill="#263238"/>
<path d="M32.0255 71.8218C31.1645 71.8218 30.1575 71.4643 29.0198 70.7533C27.5563 69.8038 26.2999 68.5683 25.326 67.121C25.3092 67.0974 25.2977 67.0703 25.2924 67.0418C25.2871 67.0132 25.2881 66.9839 25.2953 66.9557C25.3025 66.9274 25.3155 66.9009 25.3333 66.8778C25.3512 66.8547 25.3735 66.8354 25.3991 66.8212C26.6751 66.1294 27.6053 65.6681 27.613 65.6489C28.62 65.0685 30.9493 64.2191 33.2632 63.5849C33.3151 63.5714 33.3702 63.5782 33.4173 63.6039C33.4644 63.6296 33.5 63.6723 33.5168 63.7232C34.0204 65.2607 35.1081 69.0159 34.3663 70.3612C34.2028 70.6937 33.9711 70.988 33.6863 71.2251C33.4016 71.4622 33.0701 71.6367 32.7135 71.7372C32.4888 71.795 32.2575 71.8234 32.0255 71.8218ZM25.7988 67.0787C26.7265 68.3988 27.9013 69.5265 29.2581 70.3996C30.6187 71.2491 31.7526 71.5527 32.629 71.3337C32.9304 71.2462 33.2101 71.0963 33.4498 70.8936C33.6895 70.691 33.8839 70.4402 34.0204 70.1575C34.6699 68.9852 33.636 65.3952 33.2017 64.0423C31.0108 64.6496 28.7776 65.4683 27.8206 66.0179C27.7937 66.0256 26.9634 66.4484 25.7988 67.0787Z" fill="#263238"/>
<path d="M32.6864 62.8308C32.5092 63.035 32.3759 63.2734 32.2945 63.5312C32.2132 63.7891 32.1857 64.0609 32.2137 64.3298C32.3712 65.1216 33.163 68.2004 33.0823 69.2266C33.0016 70.2529 32.0561 70.4143 30.0804 69.611C28.1048 68.8077 26.8441 66.5361 26.5251 65.9787C26.206 65.4214 24.9453 62.1082 24.9453 62.1082L25.814 61.5547C25.814 61.5547 26.6865 62.8961 28.8159 62.8961C30.9452 62.8961 32.452 61.7892 32.6864 62.2658C32.9209 62.7424 32.6864 62.8308 32.6864 62.8308Z" fill="white"/>
<path d="M32.0508 70.336C31.3436 70.2872 30.6509 70.1114 30.006 69.8171C28.6838 69.2905 27.4653 68.0528 26.3737 66.1426L26.3468 66.0964C26.0278 65.5353 24.8094 62.3297 24.7556 62.1951C24.7389 62.1505 24.7378 62.1015 24.7524 62.0562C24.7671 62.0108 24.7966 61.9717 24.8363 61.9453L25.7049 61.3918C25.7515 61.3625 25.8077 61.3525 25.8616 61.364C25.9154 61.3755 25.9626 61.4075 25.9932 61.4533C26.0278 61.5033 26.835 62.7025 28.8183 62.7025C29.7373 62.6758 30.6459 62.5006 31.5088 62.1836C32.1853 61.9607 32.6619 61.7992 32.8695 62.1836C32.929 62.276 32.9681 62.38 32.984 62.4888C32.9999 62.5975 32.9923 62.7084 32.9617 62.814C32.9332 62.8859 32.8836 62.9475 32.8195 62.9908C32.6679 63.1681 32.5537 63.3743 32.4837 63.5969C32.4137 63.8194 32.3893 64.0539 32.4121 64.2861C32.4467 64.4552 32.5082 64.7243 32.5851 65.0548C32.8695 66.3078 33.3538 68.4026 33.2846 69.2405C33.285 69.4194 33.241 69.5956 33.1564 69.7533C33.0719 69.9109 32.9495 70.0451 32.8003 70.1438C32.5742 70.2788 32.3139 70.3456 32.0508 70.336ZM25.2053 62.2067C25.4589 62.8716 26.4429 65.4238 26.7081 65.8889L26.735 65.935C27.7767 67.7646 28.9298 68.9407 30.1597 69.4327C31.678 70.0362 32.316 69.9631 32.5889 69.794C32.6814 69.7289 32.7563 69.6417 32.8066 69.5404C32.8569 69.439 32.8812 69.3267 32.8772 69.2136C32.9387 68.4449 32.4467 66.3001 32.1853 65.1509C32.1084 64.8165 32.047 64.5436 32.0124 64.3822C31.9773 64.0812 32.0057 63.7762 32.0957 63.4869C32.1857 63.1976 32.3354 62.9304 32.5351 62.7025C32.5489 62.6853 32.5659 62.671 32.5851 62.6602C32.5869 62.5607 32.5588 62.4629 32.5043 62.3796C32.2078 62.4004 31.9168 62.4705 31.6434 62.5872C30.7371 62.9185 29.7829 63.1003 28.8183 63.1253C28.2478 63.1515 27.6786 63.051 27.1516 62.831C26.6246 62.611 26.1529 62.277 25.7703 61.853L25.2053 62.2067Z" fill="#263238"/>
<path d="M29.0503 66.2863L32.6864 62.8271L32.5711 62.1775C32.1329 62.0199 30.73 62.9039 28.8159 62.9039C26.6865 62.9039 25.814 61.5625 25.814 61.5625L24.9453 62.116C24.9453 62.116 26.2099 65.4331 26.5251 65.9865C26.8402 66.54 28.1048 68.8308 30.0804 69.6188C30.2803 69.6995 30.4648 69.7687 30.6493 69.8263L29.0503 66.2863Z" fill="#FF725E"/>
<path opacity="0.5" d="M29.0503 66.2863L32.6864 62.8271L32.5711 62.1775C32.1329 62.0199 30.73 62.9039 28.8159 62.9039C26.6865 62.9039 25.814 61.5625 25.814 61.5625L24.9453 62.116C24.9453 62.116 26.2099 65.4331 26.5251 65.9865C26.8402 66.54 28.1048 68.8308 30.0804 69.6188C30.2803 69.6995 30.4648 69.7687 30.6493 69.8263L29.0503 66.2863Z" fill="white"/>
<path d="M21.7109 59.5082L23.3676 61.6414L25.5008 60.7727L23.921 57.8516L21.7109 59.5082Z" fill="#263238"/>
<path d="M23.3661 61.8542C23.3351 61.8545 23.3044 61.8477 23.2765 61.8344C23.2485 61.8211 23.2239 61.8015 23.2046 61.7773L21.5442 59.6364C21.527 59.6142 21.5145 59.5889 21.5072 59.5618C21.5 59.5348 21.4982 59.5065 21.5019 59.4788C21.5107 59.4243 21.5395 59.3749 21.5826 59.3404L23.7966 57.6838C23.8202 57.6653 23.8476 57.6523 23.8768 57.6457C23.906 57.639 23.9364 57.6389 23.9657 57.6454C23.9948 57.6517 24.0223 57.6642 24.0462 57.6822C24.0701 57.7001 24.0898 57.7229 24.104 57.7491L25.6838 60.6703C25.7066 60.7257 25.7066 60.7879 25.6838 60.8433C25.6744 60.8704 25.6593 60.8951 25.6393 60.9157C25.6194 60.9362 25.5952 60.9522 25.5685 60.9624L23.4353 61.8311C23.4138 61.843 23.3903 61.8508 23.3661 61.8542ZM22.0016 59.548L23.4353 61.3891L25.2072 60.6665L23.8504 58.1604L22.0016 59.548Z" fill="#263238"/>
<path d="M24.5497 60.4056C24.5497 60.4056 22.1782 57.2423 22.2435 56.2967C22.3089 55.3512 27.2595 51.7574 28.6048 51.9957C29.95 52.234 32.064 56.2545 32.064 56.2545L33.2517 57.4421L32.8674 58.5491C32.8674 58.5491 34.893 61.3511 34.6546 61.747C34.4163 62.1429 32.6021 63.2461 30.3882 63.7227C28.1743 64.1993 26.0449 62.7733 26.0449 62.7733C26.0449 62.7733 24.5459 63.4036 23.9117 63.0116C23.2775 62.6195 22.4126 61.1935 22.5702 60.8784C22.7278 60.5632 24.5497 60.4056 24.5497 60.4056Z" fill="white"/>
<path d="M29.4562 64.008C28.2472 63.9687 27.0688 63.6179 26.0353 62.9894C25.651 63.1355 24.4364 63.5583 23.8137 63.1701C23.191 62.7819 22.1456 61.2482 22.3915 60.7678C22.5414 60.4641 23.3755 60.3027 24.1712 60.2143C23.5562 59.3687 21.9841 57.1125 22.0571 56.2592C22.1033 55.6826 23.3371 54.6525 24.0674 54.0875C25.2205 53.2073 27.6381 51.5891 28.6797 51.7813C30.0558 52.0235 31.9891 55.5865 32.2697 56.1208L33.4228 57.2739C33.4515 57.3016 33.4712 57.3373 33.4794 57.3764C33.4876 57.4154 33.484 57.456 33.4689 57.493L33.1115 58.4962C34.4644 60.3757 35.0333 61.4981 34.8488 61.8325C34.5721 62.2899 32.6964 63.4199 30.4478 63.9042C30.1217 63.9727 29.7894 64.0074 29.4562 64.008ZM26.0545 62.5474C26.0956 62.547 26.1358 62.5591 26.1698 62.582C26.1929 62.582 28.2569 63.9503 30.3556 63.5006C32.6195 63.0163 34.3107 61.9132 34.4875 61.6211C34.5144 61.3597 33.5881 59.8684 32.7079 58.6538C32.6878 58.6265 32.6748 58.5946 32.6701 58.5611C32.6654 58.5275 32.6691 58.4933 32.681 58.4616L33.0308 57.4776L31.9353 56.386C31.9204 56.3697 31.9075 56.3516 31.8969 56.3322C31.3242 55.2406 29.5907 52.3617 28.5875 52.1811C27.9648 52.0735 26.0891 53.0536 24.3211 54.4181C23.0757 55.3751 22.4915 56.0632 22.4723 56.2938C22.4185 56.928 23.8214 59.065 24.7208 60.2604C24.743 60.2905 24.7568 60.3259 24.7608 60.363C24.7649 60.4001 24.759 60.4377 24.7439 60.4718C24.7289 60.5058 24.7048 60.5349 24.6743 60.5559C24.6437 60.577 24.6079 60.5891 24.5709 60.591C23.7061 60.6678 22.872 60.837 22.7567 60.9753C22.7183 61.1983 23.4293 62.4513 24.0328 62.828C24.4748 63.1047 25.6125 62.728 25.9546 62.5743C25.985 62.5567 26.0194 62.5474 26.0545 62.5474Z" fill="#263238"/>
<path d="M30.3966 63.6992C31.2627 63.5091 32.1055 63.2256 32.9104 62.8536C32.8357 62.8503 32.7612 62.8426 32.6874 62.8306C31.7534 62.6422 29.0514 62.0349 28.0059 60.7281C27.545 60.1065 27.0193 59.5357 26.4377 59.0254L32.2877 56.4386L32.0802 56.231C32.0802 56.231 29.9661 52.2106 28.6209 51.9723C27.2756 51.734 22.3365 55.3239 22.2596 56.2733C22.1828 57.2227 24.5658 60.3783 24.5658 60.3783C24.5658 60.3783 22.7478 60.5398 22.5902 60.8549C22.4326 61.1701 23.3013 62.5923 23.9316 62.9882C24.562 63.3841 26.0648 62.7499 26.0648 62.7499C26.0648 62.7499 28.1865 64.172 30.3966 63.6992Z" fill="#FF725E"/>
<path opacity="0.5" d="M30.3966 63.6992C31.2627 63.5091 32.1055 63.2256 32.9104 62.8536C32.8357 62.8503 32.7612 62.8426 32.6874 62.8306C31.7534 62.6422 29.0514 62.0349 28.0059 60.7281C27.545 60.1065 27.0193 59.5357 26.4377 59.0254L32.2877 56.4386L32.0802 56.231C32.0802 56.231 29.9661 52.2106 28.6209 51.9723C27.2756 51.734 22.3365 55.3239 22.2596 56.2733C22.1828 57.2227 24.5658 60.3783 24.5658 60.3783C24.5658 60.3783 22.7478 60.5398 22.5902 60.8549C22.4326 61.1701 23.3013 62.5923 23.9316 62.9882C24.562 63.3841 26.0648 62.7499 26.0648 62.7499C26.0648 62.7499 28.1865 64.172 30.3966 63.6992Z" fill="white"/>
<path d="M51.7188 61.0131L60.4899 118.599L61.5931 118.441L53.1371 60.9323C52.6696 60.7909 52.1672 60.8195 51.7188 61.0131Z" fill="#263238"/>
<path d="M60.4925 118.824C60.4424 118.824 60.3938 118.807 60.3557 118.774C60.3175 118.742 60.2924 118.696 60.285 118.647L51.5176 61.042C51.511 60.9946 51.5208 60.9463 51.5452 60.9051C51.5696 60.8639 51.6074 60.8322 51.6522 60.8153C52.1512 60.6003 52.7113 60.5744 53.2281 60.7422C53.2607 60.7564 53.2891 60.7786 53.3106 60.8069C53.3322 60.8352 53.3461 60.8685 53.351 60.9037L61.8071 118.408C61.8114 118.436 61.8102 118.464 61.8036 118.491C61.797 118.518 61.7851 118.544 61.7686 118.566C61.7341 118.609 61.6848 118.638 61.6303 118.647L60.5233 118.804L60.4925 118.824ZM51.9558 61.1689L60.6655 118.362L61.3612 118.262L52.959 61.092C52.6236 61.0297 52.2778 61.0562 51.9558 61.1689Z" fill="#263238"/>
<path d="M51.958 68.1261C51.958 68.1261 50.2206 67.7417 50.2206 68.7565C50.2206 69.7712 50.063 71.52 50.6934 71.9159C51.3238 72.3118 52.1156 72.1542 52.1963 71.2049C52.277 70.2555 52.1963 67.8878 51.958 68.1261Z" fill="#FF725E"/>
<path d="M51.3522 72.3172C51.079 72.3129 50.8125 72.2316 50.5834 72.0827C49.9492 71.6984 49.9761 70.403 50.003 69.273C50.003 69.0847 50.003 68.9079 50.003 68.7464C49.9985 68.6211 50.0233 68.4965 50.0753 68.3824C50.1274 68.2683 50.2053 68.1679 50.3028 68.0892C50.7756 67.7048 51.652 67.8432 51.9249 67.897C51.976 67.88 52.0313 67.88 52.0825 67.897C52.5437 68.1084 52.3938 71.1679 52.3938 71.1987C52.3921 71.4017 52.3368 71.6007 52.2335 71.7755C52.1303 71.9503 51.9827 72.0947 51.8057 72.1942C51.6661 72.2697 51.5108 72.3118 51.3522 72.3172ZM51.2638 68.2468C51.0228 68.2284 50.7821 68.2862 50.5757 68.412C50.5263 68.4517 50.4874 68.503 50.4626 68.5614C50.4378 68.6197 50.4278 68.6833 50.4335 68.7464C50.4335 68.9079 50.4335 69.0924 50.4335 69.2807C50.4143 70.1494 50.3874 71.46 50.8179 71.7291C50.9356 71.8149 51.0729 71.8697 51.2173 71.8885C51.3617 71.9073 51.5086 71.8895 51.6443 71.8367C51.7565 71.7684 51.8486 71.6716 51.9114 71.5562C51.9742 71.4408 52.0053 71.3108 52.0017 71.1795C52.0671 70.2227 52.0323 69.2617 51.898 68.3121C51.6891 68.2714 51.4766 68.252 51.2638 68.2544V68.2468Z" fill="#263238"/>
<path d="M52.9759 72.4206C52.9759 72.4206 52.9144 73.6621 53.1527 73.7851C53.391 73.9081 56.5774 73.6621 56.6965 73.4007C56.8157 73.1393 56.758 72.1592 56.5197 72.0977C56.2814 72.0362 53.2718 72.1131 52.9759 72.4206Z" fill="#FF725E"/>
<path d="M53.6067 74.0276C53.4215 74.0404 53.2355 74.0209 53.0571 73.9699C52.8226 73.8469 52.7227 73.3242 52.7688 72.4132C52.7693 72.3632 52.7885 72.3152 52.8226 72.2787C53.23 71.852 56.4087 71.8674 56.574 71.8943C56.632 71.9136 56.685 71.9458 56.7289 71.9884C56.7728 72.031 56.8066 72.0829 56.8277 72.1403C56.9872 72.573 57.0073 73.0447 56.8853 73.4894C56.8551 73.537 56.8158 73.5782 56.7697 73.6105C56.7235 73.6429 56.6713 73.6657 56.6163 73.6778C55.6276 73.8964 54.6192 74.0136 53.6067 74.0276ZM53.2646 73.6009C54.3593 73.6189 55.4525 73.5144 56.524 73.2896C56.5776 72.9609 56.5486 72.6241 56.4395 72.3094C56.0551 72.2595 53.6567 72.3479 53.18 72.5401C53.1515 72.8959 53.18 73.2541 53.2646 73.6009Z" fill="#263238"/>
<path d="M52.0401 70.8094C52.0401 70.8094 51.9632 72.3891 52.263 72.5467C52.5628 72.7043 56.6332 72.3891 56.7831 72.0739C56.9331 71.7588 56.8562 70.4942 56.5564 70.4173C56.2566 70.3405 52.4168 70.4173 52.0401 70.8094Z" fill="#FF725E"/>
<path d="M52.8161 72.7943C52.5974 72.8103 52.3776 72.7882 52.1665 72.7289C51.8206 72.5483 51.7822 71.5758 51.8283 70.8071C51.8312 70.7569 51.8516 70.7093 51.886 70.6726C52.3741 70.1614 56.4023 70.1652 56.6098 70.219C56.6755 70.241 56.7353 70.2777 56.7846 70.3263C56.8339 70.375 56.8714 70.4342 56.8942 70.4996C57.0883 71.035 57.1151 71.6168 56.9711 72.1678C56.8999 72.2779 56.7879 72.3553 56.6598 72.383C55.395 72.6449 54.1077 72.7827 52.8161 72.7943ZM52.2434 70.9186C52.1923 71.4068 52.2367 71.9002 52.3741 72.3715C52.7162 72.4714 56.1563 72.2024 56.6021 71.9525C56.7059 71.6566 56.6213 70.7341 56.4753 70.6034C56.1063 70.5265 52.8008 70.6495 52.2434 70.9186Z" fill="#263238"/>
<path d="M51.8843 69.0725C51.8843 69.0725 51.8035 70.6523 52.1187 70.8099C52.4339 70.9675 56.7004 70.6523 56.8579 70.3371C57.0155 70.0219 56.9387 68.7574 56.6235 68.6767C56.3083 68.5959 52.2763 68.6767 51.8843 69.0725Z" fill="#FF725E"/>
<path d="M52.6924 71.0374C52.4698 71.0492 52.2467 71.035 52.0274 70.9952C51.6661 70.8145 51.6431 69.8421 51.6738 69.0733C51.6772 69.0214 51.699 68.9723 51.7353 68.935C52.2465 68.4238 56.4591 68.4315 56.6744 68.4853C56.7444 68.5078 56.8083 68.5463 56.8609 68.5976C56.9136 68.649 56.9537 68.7118 56.978 68.7812C57.1749 69.3124 57.1991 69.8921 57.0472 70.4378C56.8435 70.8376 54.0184 71.0374 52.6924 71.0374ZM52.0851 69.1848C52.062 69.8651 52.1235 70.5262 52.2273 70.63C52.5694 70.7338 56.2285 70.4571 56.6859 70.2111C56.7897 69.9228 56.7051 68.9888 56.5514 68.8696C56.2247 68.8004 52.677 68.9081 52.0851 69.1848Z" fill="#263238"/>
<path d="M51.6419 67.3212C51.6419 67.3212 51.5612 68.901 51.8802 69.0586C52.1993 69.2161 56.4619 68.901 56.6195 68.5858C56.777 68.2706 56.6963 67.006 56.3811 66.9253C56.066 66.8446 52.0378 66.9369 51.6419 67.3212Z" fill="#FF725E"/>
<path d="M52.4559 69.299C52.2302 69.306 52.0044 69.2867 51.7832 69.2413C51.4219 69.0607 51.3989 68.0882 51.4335 67.3195C51.436 67.2684 51.458 67.2203 51.495 67.185C52.0023 66.6738 56.215 66.6815 56.4302 66.7353C56.5002 66.7578 56.5641 66.7963 56.6168 66.8476C56.6694 66.899 56.7095 66.9618 56.7339 67.0312C56.9307 67.5624 56.9549 68.1421 56.803 68.6878C56.607 69.0953 53.7819 69.299 52.4559 69.299ZM51.8524 67.4463C51.8 67.9325 51.847 68.4242 51.9908 68.8916C52.3367 68.9953 55.9959 68.7147 56.4533 68.4726C56.557 68.1843 56.4533 67.2503 56.3187 67.1312C56.0113 67.062 52.4443 67.1658 51.8524 67.4463Z" fill="#263238"/>
<path d="M17.2422 74.6485C17.3498 77.0316 19.4138 78.7266 20.7015 79.553C21.2865 79.9296 21.9699 80.1249 22.6656 80.1142L45.6275 79.8106V74.7562L20.8245 71.2969C20.8245 71.2969 18.8527 71.3737 18.3223 72.8574" fill="white"/>
<path d="M22.6163 80.3258C21.8964 80.328 21.1914 80.121 20.5869 79.73C19.3108 78.9075 17.1545 77.1548 17.0392 74.6603C17.0371 74.6048 17.0569 74.5508 17.0943 74.5098C17.1317 74.4688 17.1837 74.4442 17.2391 74.4412C17.2665 74.4396 17.2939 74.4436 17.3197 74.4529C17.3455 74.4622 17.3692 74.4766 17.3893 74.4953C17.4094 74.514 17.4255 74.5365 17.4367 74.5615C17.4478 74.5866 17.4539 74.6136 17.4543 74.6411C17.562 76.9473 19.6029 78.6039 20.8137 79.3803C21.3616 79.741 22.0066 79.9261 22.6625 79.9107L45.4361 79.6109V74.9409L20.8098 71.4816C20.829 71.4816 19.011 71.5777 18.5344 72.9076C18.5253 72.9333 18.5113 72.9571 18.4931 72.9774C18.4748 72.9977 18.4528 73.0143 18.4281 73.026C18.4035 73.0378 18.3768 73.0446 18.3495 73.0461C18.3222 73.0475 18.2949 73.0435 18.2692 73.0344C18.2175 73.0145 18.1754 72.9754 18.1518 72.9253C18.1282 72.8752 18.1248 72.8179 18.1423 72.7654C18.7112 71.1702 20.7445 71.0703 20.8329 71.0703L45.6705 74.5296C45.7205 74.5369 45.7661 74.5619 45.7993 74.6C45.8324 74.638 45.8508 74.6867 45.8512 74.7372V79.8146C45.8512 79.869 45.8299 79.9212 45.7918 79.96C45.7537 79.9989 45.7019 80.0212 45.6475 80.0222L22.6663 80.3258H22.6163Z" fill="#263238"/>
<path d="M20.836 71.2812C20.836 71.2812 18.8642 71.3581 18.3338 72.8418L17.2422 74.6483C17.3498 77.0314 19.4138 78.7264 20.7015 79.5528C21.2865 79.9294 21.9699 80.1246 22.6656 80.114L45.6275 79.8103V75.9667C45.1509 75.4209 44.6974 74.9212 44.386 74.5791L43.8594 74.5022L42.6794 78.5534C42.6794 78.5534 28.9115 78.2383 24.7834 77.4964C20.6553 76.7546 19.3831 75.909 19.2755 74.0026C19.2536 73.4481 19.3883 72.8988 19.6643 72.4175C19.9403 71.9361 20.3464 71.5423 20.836 71.2812Z" fill="#FF725E"/>
<path opacity="0.5" d="M20.836 71.2812C20.836 71.2812 18.8642 71.3581 18.3338 72.8418L17.2422 74.6483C17.3498 77.0314 19.4138 78.7264 20.7015 79.5528C21.2865 79.9294 21.9699 80.1246 22.6656 80.114L45.6275 79.8103V75.9667C45.1509 75.4209 44.6974 74.9212 44.386 74.5791L43.8594 74.5022L42.6794 78.5534C42.6794 78.5534 28.9115 78.2383 24.7834 77.4964C20.6553 76.7546 19.3831 75.909 19.2755 74.0026C19.2536 73.4481 19.3883 72.8988 19.6643 72.4175C19.9403 71.9361 20.3464 71.5423 20.836 71.2812Z" fill="white"/>
<path d="M43.9779 74.1307L43.8203 81.5451L51.3923 79.9769C51.3923 79.9769 55.2628 80.292 56.1315 80.2152C57.0002 80.1383 57.7113 78.8699 57.7113 78.2395V76.8174C57.884 76.6893 58.0241 76.5224 58.1203 76.33C58.2165 76.1377 58.2659 75.9254 58.2647 75.7104C58.1879 75.08 56.9233 74.6841 56.9233 74.6841C56.9233 74.6841 53.2911 73.8923 52.261 74.1307C51.2309 74.369 43.9779 74.1307 43.9779 74.1307Z" fill="#FF725E"/>
<path d="M43.8247 81.7645C43.7771 81.7652 43.7307 81.7489 43.6941 81.7184C43.6701 81.698 43.6509 81.6726 43.6376 81.6441C43.6244 81.6156 43.6174 81.5846 43.6172 81.5531L43.7748 74.1272C43.7777 74.0721 43.801 74.0201 43.8401 73.9811C43.8588 73.9604 43.8821 73.9443 43.9081 73.9343C43.9342 73.9243 43.9623 73.9206 43.99 73.9235C46.4961 74.0042 51.439 74.1118 52.2308 73.9235C53.2916 73.6775 56.8432 74.4462 56.9815 74.4769C57.1199 74.5077 58.396 74.9382 58.4883 75.68C58.5014 75.9181 58.4578 76.1559 58.3609 76.3738C58.2639 76.5917 58.1166 76.7834 57.9309 76.933V78.2591C57.9309 78.951 57.1622 80.3462 56.159 80.4423C55.3172 80.5192 51.8042 80.2386 51.4159 80.2078L43.8593 81.7799L43.8247 81.7645ZM44.1861 74.3463L44.04 81.2994L51.366 79.762H51.4275C51.4659 79.762 55.2711 80.0733 56.1283 80.0003C56.8778 79.9311 57.5197 78.7703 57.5197 78.2322V76.81C57.5196 76.7778 57.5273 76.746 57.542 76.7172C57.5567 76.6885 57.578 76.6637 57.6042 76.6448C57.6042 76.6448 58.1385 76.2297 58.077 75.73C58.027 75.3456 57.2468 74.992 56.8778 74.8767C55.8976 74.6653 53.1302 74.1387 52.3269 74.3271C51.3698 74.5538 45.4122 74.3847 44.1861 74.3463Z" fill="#263238"/>
<path d="M20.6821 60.4617L33.9504 54.381C33.9504 54.381 34.5038 53.9966 33.6352 53.9044C32.7609 53.9012 31.8883 53.981 31.0292 54.1427C31.0292 54.1427 28.2272 50.1568 27.6737 49.9992C27.1202 49.8417 26.805 49.9992 26.7281 50.3183L26.6474 50.6335C26.6474 50.6335 22.1042 51.9288 20.3631 54.2196C18.6219 56.5104 20.6821 60.4617 20.6821 60.4617Z" fill="#FF725E"/>
<path d="M20.6813 60.668C20.6433 60.6681 20.6059 60.6578 20.5734 60.6381C20.5409 60.6185 20.5144 60.5903 20.4968 60.5566C20.4084 60.3913 18.402 56.4631 20.197 54.0954C21.8228 51.9545 25.7318 50.6899 26.4736 50.467L26.5236 50.2633C26.5441 50.1743 26.5826 50.0906 26.6368 50.0172C26.691 49.9438 26.7598 49.8823 26.8388 49.8366C26.9774 49.7713 27.1277 49.7342 27.2808 49.7276C27.4339 49.721 27.5868 49.745 27.7305 49.7982C28.2878 49.9596 30.3749 52.8731 31.1206 53.9147C31.9554 53.7566 32.804 53.6832 33.6536 53.6957C33.9073 53.7187 34.2493 53.7802 34.3224 54.0454C34.3954 54.3106 34.1263 54.5105 34.0725 54.5489H34.0379L20.7658 60.6296C20.7418 60.65 20.7125 60.6634 20.6813 60.668ZM27.2808 50.1441C27.2005 50.1409 27.1208 50.1595 27.0502 50.1979C27.0187 50.2156 26.9914 50.2398 26.9701 50.269C26.9489 50.2982 26.9343 50.3316 26.9272 50.3671L26.8503 50.6822C26.8411 50.7177 26.8227 50.7502 26.7971 50.7765C26.7715 50.8028 26.7395 50.822 26.7043 50.8321C26.6581 50.8321 22.2033 52.139 20.5314 54.3452C19.0938 56.2401 20.4161 59.4035 20.7774 60.1876L33.8458 54.1992L33.888 54.1607C33.8003 54.1349 33.7101 54.1181 33.619 54.1108C32.7641 54.1091 31.9109 54.1875 31.0706 54.3452C31.0316 54.3525 30.9913 54.3484 30.9545 54.3334C30.9177 54.3184 30.886 54.2931 30.8631 54.2607C29.5217 52.3388 27.9419 50.3171 27.619 50.1979C27.5092 50.1652 27.3954 50.1471 27.2808 50.1441Z" fill="#263238"/>
<path d="M27.0868 56.561C27.0518 56.5606 27.0173 56.5517 26.9865 56.5349C26.9557 56.5182 26.9294 56.4941 26.91 56.4649C26.787 56.2728 25.7031 54.5431 25.7031 53.7359C25.7031 53.0018 26.6986 52.3791 27.1368 52.1408L26.641 51.1492C26.6165 51.0982 26.6133 51.0396 26.632 50.9863C26.6508 50.9329 26.6899 50.8892 26.7409 50.8647C26.7919 50.8403 26.8505 50.8371 26.9038 50.8558C26.9572 50.8745 27.0009 50.9137 27.0253 50.9647L27.6173 52.1408C27.6386 52.1925 27.6386 52.2506 27.6173 52.3023C27.609 52.3287 27.5951 52.3531 27.5765 52.3736C27.5579 52.3942 27.5351 52.4105 27.5096 52.4214C27.1522 52.5944 26.1259 53.1901 26.1259 53.7359C26.1259 54.3279 26.9523 55.7423 27.279 56.2382C27.308 56.2852 27.3173 56.3417 27.3051 56.3956C27.2929 56.4495 27.2601 56.4965 27.2137 56.5264C27.1755 56.5496 27.1315 56.5616 27.0868 56.561Z" fill="#263238"/>
<path d="M22.7765 58.3851C22.7391 58.3844 22.7025 58.3741 22.6702 58.3553C22.6379 58.3364 22.611 58.3096 22.592 58.2775C22.5497 58.1967 21.5234 56.321 21.5234 55.2986C21.5585 54.596 21.8293 53.9258 22.2922 53.396C22.331 53.3575 22.3835 53.3359 22.4382 53.3359C22.4929 53.3359 22.5454 53.3575 22.5843 53.396C22.623 53.4355 22.6447 53.4887 22.6447 53.544C22.6447 53.5993 22.623 53.6525 22.5843 53.692C22.1908 54.1451 21.9571 54.715 21.9193 55.314C21.9193 56.2288 22.9302 58.0699 22.9379 58.0891C22.9515 58.113 22.9602 58.1394 22.9635 58.1667C22.9667 58.1941 22.9646 58.2218 22.9571 58.2482C22.9495 58.2747 22.9368 58.2994 22.9197 58.3209C22.9026 58.3424 22.8813 58.3603 22.8572 58.3735C22.8312 58.3822 22.8038 58.3861 22.7765 58.3851Z" fill="#263238"/>
<path d="M20.8137 59.5025C20.7701 59.4985 20.7289 59.4809 20.696 59.4521C20.6631 59.4234 20.6401 59.3849 20.6303 59.3423C20.6205 59.2997 20.6244 59.2551 20.6414 59.2148C20.6585 59.1746 20.6878 59.1407 20.7253 59.1181L28.3703 55.5897C28.4212 55.5662 28.4794 55.564 28.5321 55.5834C28.5847 55.6029 28.6274 55.6425 28.6509 55.6935C28.6743 55.7444 28.6765 55.8026 28.6571 55.8552C28.6376 55.9079 28.598 55.9506 28.5471 55.974L20.8982 59.5063C20.87 59.5104 20.8414 59.5091 20.8137 59.5025Z" fill="#263238"/>
<path d="M73.1169 126.897C73.1169 126.674 73.1438 126.447 73.1438 126.22C73.1438 120.839 68.0894 116.484 61.8512 116.484C55.6129 116.484 50.5547 120.843 50.5547 126.22C50.5547 126.447 50.5547 126.674 50.5854 126.897H73.1169Z" fill="white"/>
<path d="M73.1213 127.117H50.5899C50.5374 127.117 50.4868 127.097 50.4483 127.061C50.4098 127.026 50.3862 126.977 50.3823 126.924C50.3631 126.663 50.3516 126.444 50.3516 126.233C50.3516 120.752 55.5136 116.289 61.8556 116.289C68.1976 116.289 73.3596 120.752 73.3596 126.233C73.3596 126.44 73.3596 126.663 73.3289 126.924C73.3241 126.976 73.3003 127.025 73.262 127.06C73.2237 127.096 73.1735 127.116 73.1213 127.117ZM50.782 126.702H72.9215C72.9215 126.529 72.9215 126.379 72.9215 126.233C72.9215 120.978 67.9478 116.708 61.8364 116.708C55.725 116.708 50.7475 120.978 50.7475 126.233C50.7667 126.379 50.7744 126.532 50.782 126.702Z" fill="#263238"/>
<path d="M73.1169 127.834C73.1169 127.608 73.1438 127.385 73.1438 127.158C73.1438 121.777 68.0894 117.422 61.8512 117.422C55.6129 117.422 50.5547 121.781 50.5547 127.158C50.5547 127.385 50.5547 127.608 50.5854 127.834H73.1169Z" fill="white"/>
<path d="M73.1213 128.054H50.5899C50.5374 128.054 50.4868 128.035 50.4483 127.999C50.4098 127.963 50.3862 127.914 50.3823 127.862C50.3631 127.601 50.3516 127.378 50.3516 127.17C50.3516 121.685 55.5136 117.227 61.8556 117.227C68.1976 117.227 73.3596 121.685 73.3596 127.17C73.3596 127.378 73.3596 127.597 73.3289 127.862C73.3241 127.914 73.3003 127.962 73.262 127.998C73.2237 128.033 73.1735 128.053 73.1213 128.054ZM50.782 127.635H72.9215C72.9215 127.466 72.9215 127.312 72.9215 127.17C72.9215 121.916 67.9478 117.642 61.8364 117.642C55.725 117.642 50.7667 121.904 50.7667 127.162C50.7667 127.308 50.7744 127.458 50.782 127.627V127.635Z" fill="#263238"/>
<path d="M61.8567 117.422C58.013 117.422 54.6191 119.078 52.5781 121.608L55.2264 123.699C55.9847 122.758 56.9442 121.998 58.0343 121.477C59.1245 120.955 60.3176 120.685 61.5261 120.685C62.7346 120.685 63.9278 120.955 65.0179 121.477C66.1081 121.998 67.0675 122.758 67.8259 123.699L71.2851 121.777C69.248 119.152 65.7849 117.422 61.8567 117.422Z" fill="#FF725E"/>
<path d="M67.8231 123.914C67.7917 123.915 67.7607 123.908 67.7326 123.894C67.7045 123.88 67.6802 123.859 67.6617 123.834C66.9229 122.917 65.988 122.177 64.9257 121.669C63.8635 121.161 62.701 120.897 61.5234 120.897C60.3459 120.897 59.1833 121.161 58.1211 121.669C57.0589 122.177 56.124 122.917 55.3851 123.834C55.3511 123.876 55.3019 123.903 55.248 123.91C55.1941 123.916 55.1399 123.901 55.0968 123.868L52.4447 121.773C52.4018 121.739 52.3742 121.69 52.3678 121.635C52.3636 121.58 52.38 121.525 52.414 121.481C54.5664 118.814 58.0949 117.219 61.854 117.219C65.6976 117.219 69.2914 118.879 71.4323 121.654C71.4497 121.679 71.4621 121.706 71.4687 121.735C71.4753 121.764 71.476 121.794 71.4708 121.823C71.465 121.853 71.4526 121.882 71.4347 121.906C71.4168 121.931 71.3937 121.951 71.367 121.966L67.9077 123.887C67.8816 123.902 67.8528 123.911 67.8231 123.914ZM61.5234 120.482C62.734 120.48 63.9303 120.744 65.0276 121.255C66.1248 121.767 67.0963 122.513 67.8731 123.442L70.948 121.724C68.8686 119.16 65.4901 117.638 61.8501 117.638C58.2947 117.638 54.9546 119.11 52.8675 121.585L55.1737 123.419C55.9534 122.495 56.926 121.754 58.023 121.246C59.12 120.739 60.3148 120.478 61.5234 120.482Z" fill="#263238"/>
<path d="M64.939 127.544C64.9092 126.654 64.5348 125.811 63.8947 125.192C63.2546 124.573 62.399 124.227 61.5086 124.227C60.6181 124.227 59.7626 124.573 59.1225 125.192C58.4824 125.811 58.1079 126.654 58.0781 127.544C58.0781 127.64 58.0781 127.736 58.0781 127.832H64.9083C64.9313 127.736 64.939 127.64 64.939 127.544Z" fill="#263238"/>
<path d="M64.9205 128.049H58.0904C58.0381 128.048 57.988 128.028 57.9497 127.992C57.9114 127.957 57.8876 127.909 57.8828 127.857C57.8828 127.757 57.8828 127.657 57.8828 127.553C57.9135 126.609 58.3102 125.713 58.9892 125.056C59.6681 124.399 60.5759 124.031 61.5208 124.031C62.4657 124.031 63.3736 124.399 64.0525 125.056C64.7314 125.713 65.1281 126.609 65.1588 127.553C65.1588 127.657 65.1588 127.757 65.1588 127.857C65.157 127.885 65.1493 127.913 65.136 127.939C65.1228 127.964 65.1044 127.987 65.082 128.005C65.0596 128.023 65.0336 128.036 65.0058 128.044C64.978 128.051 64.949 128.053 64.9205 128.049ZM58.2864 127.63H64.7283V127.553C64.7283 126.699 64.389 125.879 63.7849 125.275C63.1809 124.671 62.3616 124.332 61.5074 124.332C60.6531 124.332 59.8338 124.671 59.2298 125.275C58.6257 125.879 58.2864 126.699 58.2864 127.553V127.63Z" fill="#263238"/>
</svg>
