<svg xmlns="http://www.w3.org/2000/svg" data-name="Layer 1" viewBox="0 0 64 64" id="financial-book"><path d="M9,61h8.013c3.276,0,6.591.165,9.85.491L31.9,62l0-.018c.034,0,.064.023.1.023s.064-.02.1-.023l0,.018,5.037-.5C40.4,61.165,43.711,61,46.987,61H55a1,1,0,0,0,1-1V24a1,1,0,0,0-1-1H53.181a48.644,48.644,0,0,0-5.29.29l.218,1.988A46.654,46.654,0,0,1,53.181,25H54V55h-.819A48.616,48.616,0,0,0,33,59.433V40H31V59.433A48.616,48.616,0,0,0,10.819,55H10V25h.819a46.654,46.654,0,0,1,5.072.278l.218-1.988a48.644,48.644,0,0,0-5.29-.29H9a1,1,0,0,0-1,1V60A1,1,0,0,0,9,61Zm44.181-4H54v2H46.987c-2.757,0-5.539.121-8.3.348A46.575,46.575,0,0,1,53.181,57ZM10,57h.819a46.575,46.575,0,0,1,14.49,2.348c-2.757-.227-5.539-.348-8.3-.348H10Z"></path><path d="M32,38A14,14,0,1,0,18,24,14.015,14.015,0,0,0,32,38Zm0-26A12,12,0,1,1,20,24,12.013,12.013,0,0,1,32,12Z"></path><path d="M33,29H31a2,2,0,0,1-2-2H27a4,4,0,0,0,4,4v2h2V31a4,4,0,0,0,0-8H31a2,2,0,0,1,0-4h2a2,2,0,0,1,2,2h2a4,4,0,0,0-4-4V15H31v2a4,4,0,0,0,0,8h2a2,2,0,0,1,0,4Z"></path><rect width="2" height="7" x="24" y="39"></rect><rect width="2" height="7" x="38" y="39"></rect><rect width="2" height="6" x="44" y="35"></rect><rect width="2" height="6" x="18" y="35"></rect><path d="M44.617 8.124a5.339 5.339 0 0 1 3.659 3.659 1 1 0 0 0 1.848 0 5.343 5.343 0 0 1 3.659-3.659 1 1 0 0 0 0-1.848 5.339 5.339 0 0 1-3.659-3.659 1 1 0 0 0-1.848 0 5.336 5.336 0 0 1-3.659 3.659 1 1 0 0 0 0 1.848zM49.2 5.232A6.019 6.019 0 0 0 51.168 7.2 6.019 6.019 0 0 0 49.2 9.168 6.009 6.009 0 0 0 47.232 7.2 6.009 6.009 0 0 0 49.2 5.232zM9.217 11.124a5.343 5.343 0 0 1 3.659 3.659 1 1 0 0 0 1.848 0 5.339 5.339 0 0 1 3.659-3.659 1 1 0 0 0 0-1.848 5.336 5.336 0 0 1-3.659-3.659 1 1 0 0 0-1.848 0A5.339 5.339 0 0 1 9.217 9.276a1 1 0 0 0 0 1.848zM13.8 8.232A6.009 6.009 0 0 0 15.768 10.2 6.009 6.009 0 0 0 13.8 12.168 6.019 6.019 0 0 0 11.832 10.2 6.019 6.019 0 0 0 13.8 8.232z"></path></svg>