<svg width="144" height="130" viewBox="0 0 144 130" fill="none" xmlns="http://www.w3.org/2000/svg">
<path d="M136.23 43.4772C138.592 46.3247 140.057 49.8093 140.439 53.4897C140.82 57.1701 140.101 60.881 138.373 64.1526C136.644 67.4242 133.984 70.1094 130.728 71.8684C127.473 73.6273 123.769 74.3809 120.085 74.0338C116.401 73.6867 112.903 72.2544 110.034 69.9184C107.165 67.5823 105.053 64.4474 103.966 60.9105C102.879 57.3736 102.865 53.5937 103.928 50.0493C104.99 46.5049 107.08 43.3554 109.933 40.9993C113.749 37.8416 118.663 36.3287 123.594 36.7934C128.526 37.258 133.071 39.6622 136.23 43.4772Z" fill="#F5F5F5"/>
<path d="M132.804 46.3042C134.603 48.4747 135.717 51.1302 136.007 53.9345C136.296 56.7388 135.747 59.5659 134.429 62.0579C133.111 64.55 131.083 66.595 128.602 67.9342C126.121 69.2734 123.299 69.8465 120.492 69.581C117.685 69.3155 115.021 68.2234 112.835 66.4428C110.649 64.6622 109.041 62.2733 108.213 59.5782C107.386 56.8832 107.377 54.0033 108.187 51.303C108.997 48.6026 110.589 46.2033 112.764 44.4086C115.674 42.0061 119.419 40.8564 123.176 41.2118C126.933 41.5672 130.395 43.3986 132.804 46.3042Z" fill="#EBEBEB"/>
<path d="M132.511 45.9608C132.446 46.0196 132.003 45.5736 131.13 44.8798C129.909 43.9003 128.543 43.1166 127.081 42.5568C126.081 42.1783 125.043 41.9113 123.984 41.7608C122.77 41.5944 121.539 41.5851 120.323 41.7329C119.666 41.8088 119.015 41.9351 118.378 42.1108C117.713 42.2868 117.063 42.5135 116.433 42.7891C115.779 43.0746 115.149 43.409 114.546 43.7895C113.301 44.5729 112.19 45.5507 111.254 46.6856C110.796 47.2337 110.382 47.8168 110.015 48.4294C109.657 49.0184 109.346 49.6346 109.086 50.2724C108.831 50.8824 108.624 51.5109 108.466 52.1525C108.165 53.3398 108.018 54.5609 108.029 55.7857C108.044 56.8572 108.176 57.9238 108.423 58.9667C108.792 60.4866 109.395 61.94 110.21 63.2751C110.789 64.2291 111.173 64.7247 111.105 64.7836C111.037 64.8424 110.566 64.4212 109.866 63.5136C108.88 62.2154 108.145 60.7449 107.698 59.1773C107.014 56.8175 106.95 54.3212 107.512 51.9294C107.665 51.2369 107.872 50.5575 108.132 49.8976C108.401 49.2069 108.725 48.5389 109.101 47.8998C109.488 47.2343 109.928 46.6014 110.417 46.0073C111.423 44.7801 112.622 43.7255 113.967 42.8851C114.62 42.4772 115.303 42.121 116.011 41.8196C117.351 41.2534 118.768 40.8911 120.214 40.7448C121.518 40.6137 122.832 40.6595 124.123 40.8811C125.243 41.0753 126.336 41.4028 127.379 41.8568C128.877 42.5057 130.242 43.4267 131.405 44.5732C132.223 45.3785 132.561 45.9205 132.511 45.9608Z" fill="#E0E0E0"/>
<path d="M128.468 60.9077L130.075 62.8002L128.387 64.2343L126.823 62.3945C125.064 63.714 123.016 64.5626 121.471 64.6153L120.647 61.7657C122.192 61.6187 123.673 61.0722 124.943 60.1798L122.545 57.3612C120.284 58.498 117.658 59.6533 115.607 57.2373C114.083 55.4502 114.08 52.8081 116.487 50.2373L114.895 48.3603L116.583 46.9262L118.147 48.766C119.501 47.7934 121.022 47.081 122.453 46.8828L123.382 49.6705C122.195 49.8856 121.064 50.3341 120.052 50.9899L122.493 53.8612C124.738 52.7059 127.331 51.5815 129.353 53.9603C130.837 55.7227 130.846 58.3338 128.468 60.9077ZM120.436 54.8802L118.398 52.4829C117.673 53.4462 117.735 54.236 118.209 54.7935C118.683 55.351 119.491 55.2736 120.436 54.8802ZM126.798 56.4816C126.296 55.89 125.534 55.986 124.593 56.3484L126.572 58.6776C127.26 57.7763 127.257 57.0205 126.798 56.4816Z" fill="#E0E0E0"/>
<path d="M141.122 17.9633C140.91 20.1152 140.063 22.1557 138.69 23.8264C137.317 25.4971 135.48 26.7229 133.41 27.3486C131.34 27.9743 129.131 27.9718 127.062 27.3414C124.994 26.711 123.159 25.4811 121.79 23.8073C120.42 22.1335 119.579 20.0911 119.371 17.9387C119.163 15.7862 119.599 13.6205 120.622 11.7157C121.646 9.81089 123.212 8.2526 125.121 7.23811C127.031 6.22363 129.199 5.79855 131.35 6.01669C134.23 6.3054 136.877 7.72614 138.71 9.96647C140.543 12.2068 141.41 15.0833 141.122 17.9633Z" fill="#F5F5F5"/>
<path d="M138.547 17.7066C138.386 19.3463 137.742 20.9014 136.697 22.1751C135.652 23.4488 134.252 24.3838 132.675 24.8619C131.098 25.34 129.415 25.3396 127.839 24.8609C126.262 24.3822 124.863 23.4466 123.818 22.1725C122.773 20.8984 122.13 19.3431 121.969 17.7033C121.809 16.0634 122.138 14.4128 122.916 12.9602C123.693 11.5076 124.885 10.3183 126.338 9.5428C127.792 8.76727 129.443 8.44034 131.083 8.60338C132.171 8.71036 133.227 9.03077 134.191 9.54627C135.156 10.0618 136.009 10.7623 136.702 11.6077C137.395 12.4532 137.915 13.427 138.232 14.4735C138.548 15.52 138.656 16.6186 138.547 17.7066Z" fill="#EBEBEB"/>
<path d="M138.549 17.4437C138.499 17.4437 138.499 17.072 138.431 16.4247C138.335 15.5153 138.099 14.6262 137.731 13.7888C137.477 13.2167 137.16 12.6745 136.787 12.172C136.358 11.5936 135.856 11.0731 135.294 10.6233C134.675 10.134 133.988 9.73653 133.256 9.44318C132.87 9.28782 132.472 9.16353 132.066 9.07149C131.229 8.87566 130.367 8.815 129.511 8.89184C129.093 8.92764 128.679 8.99599 128.272 9.09627C127.881 9.19078 127.497 9.3161 127.126 9.47106C126.768 9.61553 126.422 9.78743 126.091 9.98522C125.474 10.3473 124.905 10.7877 124.4 11.2954C123.962 11.7425 123.574 12.2358 123.242 12.7667C122.763 13.5449 122.407 14.3921 122.186 15.2786C122.028 15.9136 121.978 16.276 121.928 16.2729C121.879 16.2698 121.857 15.8981 121.928 15.2322C122.062 14.2852 122.371 13.3715 122.839 12.5375C123.164 11.9589 123.556 11.4204 124.007 10.933C124.527 10.3713 125.122 9.8836 125.775 9.48345C126.498 9.03697 127.285 8.70278 128.108 8.49228C128.543 8.37954 128.986 8.30186 129.433 8.25998C129.895 8.22584 130.359 8.22584 130.821 8.25998C131.283 8.29566 131.741 8.36502 132.193 8.4675C132.63 8.57153 133.057 8.70926 133.472 8.87946C133.874 9.04396 134.263 9.23969 134.634 9.46486C134.989 9.67822 135.328 9.91845 135.647 10.1835C136.236 10.672 136.757 11.2377 137.195 11.8653C137.573 12.411 137.885 12.9994 138.125 13.6184C138.47 14.5074 138.65 15.4523 138.654 16.4061C138.682 17.0844 138.595 17.4468 138.549 17.4437Z" fill="#E0E0E0"/>
<path d="M130.687 21.8989L130.563 23.3454L129.259 23.2277L129.383 21.8214C128.113 21.6325 126.921 21.1276 126.258 20.5113L127.103 18.9966C127.799 19.579 128.635 19.9697 129.529 20.1303L129.714 17.9621C128.314 17.4913 126.753 16.8749 126.927 15.0289C127.045 13.663 128.141 12.5727 130.198 12.52L130.325 11.0859L131.613 11.1974L131.492 12.6037C132.411 12.7366 133.285 13.087 134.042 13.6258L133.261 15.1745C132.684 14.7693 132.032 14.483 131.344 14.332L131.155 16.5249C132.558 16.9864 134.091 17.5997 133.942 19.4179C133.815 20.7498 132.734 21.8307 130.687 21.8989ZM129.879 16.0851L130.037 14.2546C129.34 14.3475 129.039 14.7006 129.002 15.1249C128.965 15.5493 129.34 15.8559 129.879 16.0851ZM131.83 19.3869C131.87 18.9347 131.52 18.659 130.978 18.4174L130.823 20.1953C131.492 20.1117 131.805 19.7989 131.842 19.3869H131.83Z" fill="#E0E0E0"/>
<path d="M7.75832 99.6228C6.44526 98.8013 4.9623 98.2897 3.42199 98.1268C2.70959 98.0525 1.93215 98.0742 1.36224 98.5047C1.29614 98.5421 1.24138 98.5967 1.20375 98.6626C1.16613 98.7286 1.14705 98.8035 1.14852 98.8795C1.18206 98.9868 1.25365 99.0783 1.34985 99.1366C3.12155 100.49 5.80078 100.66 7.7738 99.6228" fill="#E0E0E0"/>
<path d="M7.64281 99.5016C6.63536 98.7586 5.69435 97.9295 4.8304 97.0237C3.96622 96.1105 3.35829 94.9854 3.06799 93.7621C3.01128 93.5811 2.99438 93.39 3.01844 93.2018C3.0425 93.0136 3.10694 92.8328 3.20737 92.6719C5.44987 94.4219 7.20918 96.6985 7.64281 99.4861" fill="#E0E0E0"/>
<path d="M7.73031 99.6071C7.52149 98.3836 7.53934 97.1321 7.78297 95.915C8.03167 94.6885 8.73268 93.6005 9.7467 92.8672C10.137 93.7747 9.96971 94.8154 9.69714 95.7632C9.27438 97.2283 8.61526 98.6146 7.7458 99.8673" fill="#E0E0E0"/>
<path d="M9.92753 103.539C8.59256 103.703 7.43105 104.406 6.43679 105.308C5.43117 106.217 4.73032 107.414 4.42969 108.736C5.73678 108.656 6.84874 107.733 7.65406 106.698C8.45937 105.664 9.0169 104.53 9.89966 103.561" fill="#E0E0E0"/>
<path d="M10.4058 104.171C9.87924 102.836 9.69437 101.391 9.868 99.9671C10.0416 98.5429 10.5683 97.1846 11.4001 96.0156C12.162 98.7165 11.8833 101.771 10.4058 104.162" fill="#E0E0E0"/>
<path d="M13.3126 107.629C12.0932 107.553 10.8784 107.837 9.81938 108.447C8.76033 109.056 7.90378 109.963 7.35634 111.055C7.28201 111.204 7.21696 111.389 7.31608 111.523C7.36804 111.572 7.43123 111.609 7.50026 111.629C7.56929 111.649 7.64211 111.652 7.71254 111.637C8.88645 111.563 9.92407 110.857 10.782 110.051C11.64 109.246 12.3896 108.32 13.3374 107.626" fill="#E0E0E0"/>
<path d="M13.2176 107.444C12.5928 105.431 12.5541 103.282 13.1061 101.249C13.3229 100.453 13.6915 99.6134 14.4287 99.2387C14.4581 99.2193 14.491 99.2061 14.5256 99.1997C14.5602 99.1933 14.5957 99.1939 14.63 99.2015C14.6891 99.2339 14.7343 99.2867 14.757 99.3502C15.0048 99.9083 15.1111 100.519 15.0668 101.128C15.0233 101.735 14.9301 102.336 14.788 102.928C14.5557 104.027 14.4318 105.207 13.8278 106.155C13.6887 106.383 13.5625 106.619 13.4499 106.861C13.3353 107.103 13.3353 107.19 13.23 107.382" fill="#E0E0E0"/>
<path d="M20.9013 108.583C20.3314 106.414 20.9354 103.791 22.3013 102.013C22.4004 101.883 22.5336 101.744 22.6978 101.759C22.9487 101.781 23.0075 102.115 23.0075 102.378C22.9039 104.606 22.1751 106.759 20.9044 108.592" fill="#E0E0E0"/>
<path d="M21.5999 109.061C22.9438 109.378 24.3403 109.399 25.6932 109.124C27.0461 108.848 28.3232 108.283 29.4363 107.466C28.123 106.805 26.6207 106.621 25.1867 106.945C23.7712 107.255 22.4734 107.903 21.5938 109.061" fill="#E0E0E0"/>
<path d="M22.1797 107.613C23.654 105.21 26.4788 103.642 29.3037 103.5C28.9939 104.643 28.0399 105.535 26.9775 106.071C25.9151 106.607 24.7319 106.845 23.5704 107.071C23.1182 107.158 22.4925 107.257 22.1983 107.613" fill="#E0E0E0"/>
<path d="M21.0518 100.617C21.4986 99.2633 21.8038 97.8672 21.9624 96.4507C22.0708 95.029 21.8695 93.5454 21.1323 92.3281C19.7571 94.9919 19.6177 98.1047 21.0115 100.759" fill="#E0E0E0"/>
<path d="M25.6875 98.2784C27.295 95.3545 30.5814 93.0129 33.9048 92.7031C32.6225 95.8934 29.1256 98.362 25.6875 98.2784Z" fill="#E0E0E0"/>
<path d="M24.6719 98.8498C27.0723 99.2153 29.1166 100.749 31.3591 101.678C31.8303 101.904 32.3524 102.003 32.8737 101.966C33.1158 101.963 33.3511 101.885 33.5479 101.744C33.7447 101.603 33.8935 101.405 33.9742 101.177C34.0549 100.949 34.0636 100.701 33.9992 100.468C33.9348 100.235 33.8004 100.027 33.614 99.872C33.2961 99.5782 32.9221 99.3516 32.5144 99.206C30.0706 98.187 27.4502 98.1622 24.8763 98.7786" fill="#E0E0E0"/>
<path d="M23.2812 100.537C23.8233 100.692 24.0091 100.974 24.4397 101.342C25.9099 102.59 27.6482 103.481 29.5194 103.947C29.7145 103.997 29.9685 104.015 30.0645 103.839C30.1605 103.662 30.0428 103.501 29.9344 103.365C29.1194 102.408 28.061 101.69 26.8711 101.286C25.7003 100.85 24.6844 100.323 23.2874 100.438" fill="#E0E0E0"/>
<path d="M21.7188 90.3617C22.7032 91.2688 23.8665 91.9601 25.1339 92.3911C26.4012 92.8221 27.7447 92.9833 29.0781 92.8644C29.2006 92.866 29.3195 92.8231 29.4126 92.7436C29.5985 92.5423 29.3755 92.2325 29.1617 92.0653C26.9936 90.3772 24.3763 89.6772 21.728 90.3617" fill="#E0E0E0"/>
<path d="M23.5703 89.6837C24.873 88.7246 26.3842 88.0874 27.9804 87.8242C29.5765 87.5609 31.2123 87.6791 32.754 88.1691C31.5529 89.2836 30.0109 89.9602 28.3774 90.0895C26.7637 90.2367 25.1366 90.0994 23.5703 89.6837Z" fill="#E0E0E0"/>
<path d="M22.8373 85.0115C22.6267 82.8434 22.763 81.146 22.6143 78.9779C22.6143 78.8044 22.5647 78.5938 22.4037 78.5318C22.1776 78.4451 21.9886 78.7239 21.9143 78.9531C21.6009 79.9597 21.5217 81.0247 21.6828 82.0667C21.8438 83.1086 22.2408 84.1 22.8435 84.9651" fill="#E0E0E0"/>
<path d="M22.6797 85.2457C24.0912 84.3351 25.3073 83.1527 26.2572 81.7673C26.9665 80.7978 27.5612 79.6394 27.4001 78.4531C26.9025 78.4654 26.4136 78.5866 25.9678 78.8081C25.5221 79.0297 25.1303 79.3462 24.82 79.7354C24.202 80.5183 23.7537 81.4213 23.5036 82.3868C23.2186 83.3346 23.0173 84.3134 22.6797 85.2457Z" fill="#E0E0E0"/>
<path d="M26.1949 84.2688C29.4157 83.0762 32.3977 81.3182 35.0007 79.0776C33.9507 78.6533 32.7459 78.9073 31.6927 79.3316C29.3064 80.2365 27.3341 81.984 26.1484 84.2441" fill="#E0E0E0"/>
<path d="M23.6672 86.4311C25.2933 86.6076 26.9442 86.7253 28.5579 86.4528C30.1717 86.1802 31.6553 85.5607 33.1235 84.9382C33.2516 84.8994 33.3616 84.8159 33.4332 84.7028C33.457 84.6341 33.4591 84.5598 33.4391 84.49C33.4192 84.4202 33.3782 84.3582 33.3217 84.3125C33.2082 84.2211 33.0743 84.1584 32.9314 84.1297C31.3208 83.6775 29.5831 83.8881 28.0004 84.424C26.4884 84.9387 25.0349 85.6115 23.6641 86.4311" fill="#E0E0E0"/>
<path d="M14.3853 90.4424C13.2765 88.203 13.3477 85.5888 14.3048 83.2812C14.98 84.3096 15.0636 85.6198 14.9243 86.8432C14.7849 88.0667 14.4287 89.3211 14.4039 90.5601" fill="#E0E0E0"/>
<path d="M9.95728 88.2038C8.56844 88.1872 7.1914 88.4605 5.9141 89.006C4.6368 89.5516 3.48732 90.3576 2.53906 91.3725C3.93965 91.5386 5.35755 91.2727 6.60282 90.6105C7.8394 89.9519 9.00588 89.1695 10.0843 88.2751" fill="#E0E0E0"/>
<path d="M6.97839 87.207C5.62174 87.0986 4.32084 86.9313 3.01685 87.3309C2.35964 87.5154 1.74994 87.8395 1.22932 88.281C0.708704 88.7225 0.289402 89.2711 0 89.8893C1.27933 89.9939 2.56322 89.7521 3.71685 89.1893C4.86351 88.6282 5.9572 87.9647 6.98459 87.207" fill="#E0E0E0"/>
<path d="M11.387 87.2515C10.1666 86.4523 8.90909 85.6408 7.49668 85.3094C6.08428 84.978 4.43338 85.2227 3.44531 86.2944C4.59134 86.9665 5.98516 87.047 7.31703 87.0439C8.64891 87.0408 10.2812 87.0439 11.5388 87.4745" fill="#E0E0E0"/>
<path d="M11.3965 87.3147C9.312 85.2704 8.52216 81.5938 9.36155 78.7969C11.0063 81.3146 11.7256 84.3254 11.3965 87.3147Z" fill="#E0E0E0"/>
<path d="M17.1328 81.5213C17.5262 80.6076 17.8018 79.6474 18.1549 78.7182C18.4769 77.7748 18.9705 76.899 19.6107 76.1349C20.2631 75.3692 21.1891 74.889 22.1908 74.7969C21.8713 76.2063 21.2611 77.5335 20.3992 78.6936C19.5373 79.8536 18.4427 80.821 17.1855 81.5337" fill="#E0E0E0"/>
<path d="M16.0911 82.7296C15.4406 81.8345 14.688 80.6172 13.8083 79.942C12.9287 79.2668 11.7764 78.8703 10.7109 79.1243C11.2682 80.1012 12.0454 80.9348 12.9809 81.559C13.9164 82.1832 14.9844 82.5808 16.1004 82.7203" fill="#E0E0E0"/>
<path d="M16.297 81.5948C15.8305 80.5275 15.4876 79.4104 15.2749 78.2652C15.0603 77.1113 15.2437 75.9188 15.7952 74.8828C16.9381 77.051 17.3067 79.3647 16.3589 81.6196" fill="#E0E0E0"/>
<path d="M17.1328 74.8868C17.7802 72.7434 19.7408 71.1699 21.8594 70.442C22.1276 70.3305 22.4188 70.2858 22.7081 70.3119C22.8504 70.3262 22.9852 70.3824 23.0955 70.4734C23.2058 70.5643 23.2865 70.686 23.3276 70.823C23.405 71.1885 23.1046 71.5137 22.8227 71.7522C21.1582 73.172 19.2223 74.2385 17.1328 74.8868Z" fill="#E0E0E0"/>
<path d="M17.1591 73.1296C17.2427 71.7482 17.3294 70.342 17.7785 69.0349C18.2277 67.7278 19.0949 66.4981 20.3525 65.9375C20.5693 67.3344 19.9529 68.7251 19.2095 69.9238C18.4662 71.1225 17.571 72.2561 17.125 73.5973" fill="#E0E0E0"/>
<path d="M17.1305 74.0845C16.5946 72.5359 16.542 70.538 15.6066 69.1783C14.953 68.2274 13.9061 67.5801 13.3424 66.5703C13.0022 67.5372 13.0489 68.5981 13.4725 69.5314C13.8981 70.4535 14.4843 71.2926 15.2039 72.0093C15.8946 72.7496 16.4893 73.304 17.1305 74.0876" fill="#E0E0E0"/>
<path d="M17.1354 120.077C17.0921 120.077 17.058 109.658 17.0549 96.8096C17.0518 83.9617 17.0828 73.5391 17.123 73.5391C17.1633 73.5391 17.2005 83.9555 17.2036 96.8096C17.2067 109.664 17.1788 120.077 17.1354 120.077Z" fill="#E0E0E0"/>
<path d="M26.2369 88.8672C26.1117 88.9279 25.981 88.9766 25.8466 89.0128L24.7687 89.3783C23.8581 89.688 22.6006 90.1371 21.2532 90.6915C19.9058 91.246 18.6483 91.7354 17.9266 92.3579C17.6405 92.5948 17.4118 92.8934 17.2576 93.2314C17.1554 93.4761 17.1368 93.6248 17.1213 93.6217C17.1158 93.5857 17.1158 93.5492 17.1213 93.5133C17.1358 93.4078 17.1607 93.304 17.1956 93.2035C17.3352 92.8455 17.5595 92.5267 17.8492 92.2743C18.2855 91.9043 18.7739 91.6006 19.2988 91.373C19.878 91.1035 20.5191 90.8216 21.1974 90.5429C22.5572 89.9853 23.8147 89.5517 24.7347 89.2668C25.1931 89.1243 25.5678 89.019 25.828 88.957C25.9611 88.9142 26.0981 88.8841 26.2369 88.8672Z" fill="#E0E0E0"/>
<path d="M29.2079 81.5312C29.2079 81.5312 29.1707 81.5777 29.0964 81.649L28.7619 81.9587L27.5229 83.0923L23.3724 86.7968C21.7525 88.2402 20.3494 89.6185 19.3799 90.6561C18.8936 91.1765 18.5095 91.6039 18.2494 91.8951L17.9396 92.2389C17.9082 92.2823 17.8706 92.3209 17.8281 92.3535C17.8526 92.3056 17.8827 92.2609 17.9179 92.2203C17.9799 92.1367 18.0728 92.0128 18.1967 91.8579C18.4445 91.5482 18.8162 91.1052 19.2932 90.5756C20.548 89.2054 21.8745 87.9027 23.2671 86.6729C24.8932 85.2357 26.3645 83.941 27.4517 83.0087L28.7309 81.9091L29.084 81.618C29.1217 81.5843 29.1633 81.5552 29.2079 81.5312Z" fill="#E0E0E0"/>
<path d="M21.6286 88.2725C21.5853 88.2509 21.9384 87.4703 22.2481 86.4823C22.5578 85.4942 22.7468 84.6579 22.7901 84.6641C22.7554 85.3007 22.6206 85.9279 22.3906 86.5225C22.2449 86.9444 22.0764 87.358 21.8857 87.7615C21.8241 87.9429 21.7376 88.1149 21.6286 88.2725Z" fill="#E0E0E0"/>
<path d="M17.1304 94.5681C17.0359 94.4821 16.9518 94.3854 16.8795 94.28L16.2384 93.4592C15.7025 92.7623 14.9591 91.8052 14.1259 90.7552C13.2927 89.7052 12.5277 88.7636 11.9578 88.0822L11.3042 87.2707C11.2188 87.1752 11.143 87.0714 11.0781 86.9609C11.1777 87.0426 11.269 87.1339 11.3507 87.2335C11.5149 87.4132 11.7534 87.6795 12.0414 88.0141C12.6175 88.6769 13.395 89.6092 14.2313 90.6592C15.0675 91.7092 15.7799 92.6818 16.3127 93.3942C16.5698 93.7504 16.7773 94.0415 16.9136 94.246C16.9959 94.3462 17.0685 94.4541 17.1304 94.5681Z" fill="#E0E0E0"/>
<path d="M15.1499 92.0078C14.7464 91.5633 14.4591 91.026 14.3136 90.4436C14.1579 89.9324 14.0939 89.3975 14.1247 88.864H14.1929C14.1619 88.9848 14.1402 89.0467 14.1278 89.0467C14.1154 89.0467 14.1278 88.9755 14.1278 88.8516H14.1959C14.2274 89.376 14.3167 89.8954 14.4623 90.4003C14.6513 90.9524 14.8811 91.4898 15.1499 92.0078Z" fill="#E0E0E0"/>
<path d="M12.5723 88.7643C12.3935 88.6273 12.1978 88.5138 11.99 88.4267C11.4642 88.2693 10.9111 88.2249 10.3669 88.2966C9.81678 88.3415 9.271 88.4295 8.73463 88.5599C8.51481 88.6299 8.29017 88.6837 8.0625 88.721C8.26399 88.6038 8.48083 88.5151 8.70675 88.4577C9.24367 88.2928 9.79747 88.1889 10.3577 88.148C10.9215 88.0733 11.4951 88.1349 12.0302 88.3276C12.257 88.4043 12.4491 88.5591 12.5723 88.7643Z" fill="#E0E0E0"/>
<path d="M11.956 87.9821C11.956 88.0037 11.6153 87.8458 11.0609 87.6568C9.61295 87.1579 8.06108 87.0395 6.55421 87.313C5.9781 87.4152 5.625 87.5236 5.625 87.4989C5.69913 87.4534 5.77947 87.419 5.8635 87.3967C6.08422 87.319 6.30978 87.2559 6.53873 87.2077C7.29593 87.0417 8.07335 86.9874 8.84627 87.0466C9.61947 87.1064 10.38 87.2775 11.1043 87.5546C11.3231 87.6377 11.5362 87.7349 11.7423 87.8458C11.8817 87.9232 11.9622 87.9635 11.956 87.9821Z" fill="#E0E0E0"/>
<path d="M17.135 84.6624C16.8702 83.9212 16.653 83.1639 16.4845 82.3951C16.2658 81.6397 16.0961 80.871 15.9766 80.0938C16.2416 80.8351 16.4599 81.5924 16.6301 82.361C16.847 83.1167 17.0156 83.8853 17.135 84.6624Z" fill="#E0E0E0"/>
<path d="M17.1622 84.6595C16.9515 84.1964 16.7094 83.7483 16.4374 83.3183C16.1294 82.9099 15.7726 82.5406 15.375 82.2188C15.5262 82.2568 15.6663 82.3301 15.7839 82.4325C16.0864 82.6529 16.3493 82.9231 16.5613 83.2316C16.8823 83.6472 17.0895 84.1394 17.1622 84.6595Z" fill="#E0E0E0"/>
<path d="M17.129 114.518C17.1104 114.518 17.0825 114.27 16.9648 113.827C16.7918 113.204 16.5584 112.599 16.2679 112.021C15.2643 110.135 14.0224 108.386 12.5727 106.817C11.7488 105.888 10.9497 104.987 10.2714 104.135C9.66007 103.388 9.10907 102.594 8.62356 101.759C8.29474 101.197 8.01594 100.608 7.79036 99.997C7.71293 99.7802 7.65718 99.6098 7.6262 99.4921C7.60533 99.4342 7.5918 99.3738 7.58594 99.3125C7.58594 99.3125 7.67266 99.551 7.84612 99.9753C8.09072 100.574 8.38065 101.153 8.71338 101.707C9.21153 102.526 9.76736 103.308 10.3767 104.048C11.0612 104.891 11.8603 105.777 12.6873 106.718C14.3568 108.592 15.6639 110.482 16.3639 111.984C16.6488 112.57 16.869 113.186 17.0205 113.821C17.0607 113.993 17.0917 114.168 17.1135 114.344C17.1236 114.401 17.1288 114.459 17.129 114.518Z" fill="#E0E0E0"/>
<path d="M25.3594 105.227C25.2222 105.318 25.0782 105.398 24.9289 105.468C24.5395 105.689 24.1659 105.936 23.8108 106.208C23.2856 106.616 22.7936 107.064 22.3395 107.55C21.8253 108.095 21.2926 108.727 20.7505 109.408C19.6696 110.768 18.6536 111.973 18.0496 112.933C17.7399 113.41 17.5169 113.809 17.3682 114.091C17.3 114.241 17.2213 114.386 17.1328 114.525C17.1328 114.525 17.1328 114.482 17.1731 114.404C17.2133 114.327 17.2474 114.209 17.3156 114.066C17.5058 113.658 17.7199 113.261 17.9567 112.877C18.7804 111.639 19.6749 110.45 20.6359 109.315C21.178 108.637 21.7138 108.002 22.2404 107.457C22.703 106.971 23.2067 106.527 23.7457 106.128C24.1091 105.859 24.4958 105.622 24.901 105.422C25.0435 105.35 25.1612 105.304 25.2386 105.273C25.2763 105.252 25.3171 105.236 25.3594 105.227Z" fill="#E0E0E0"/>
<path d="M25.5211 108.246C25.2209 108.31 24.9166 108.354 24.6105 108.376C23.8762 108.452 23.1505 108.595 22.4423 108.804C21.7441 109.03 21.0894 109.374 20.5065 109.82C20.0604 110.164 19.8498 110.439 19.8281 110.439C19.8609 110.362 19.907 110.29 19.9644 110.229C20.1062 110.051 20.2649 109.889 20.4383 109.742C21.0157 109.26 21.6802 108.893 22.3959 108.661C23.1105 108.448 23.8474 108.317 24.5919 108.271C24.9001 108.233 25.2113 108.224 25.5211 108.246Z" fill="#E0E0E0"/>
<path d="M20.1052 110.096C20.0587 110.068 20.4676 109.442 20.7866 108.597C21.1056 107.751 21.1552 106.999 21.211 107.008C21.2382 107.17 21.2382 107.335 21.211 107.497C21.1251 108.286 20.8522 109.043 20.4149 109.706C20.3354 109.853 20.2306 109.985 20.1052 110.096Z" fill="#E0E0E0"/>
<path d="M28.0263 97.1328C27.9822 97.1663 27.9331 97.1924 27.8807 97.2102L27.4533 97.4054C27.2643 97.4859 27.0382 97.5881 26.7811 97.7151C26.5241 97.8421 26.2236 97.9846 25.9108 98.1735L25.4121 98.4554C25.2386 98.5545 25.0683 98.6722 24.8886 98.7868C24.5201 99.0067 24.1546 99.2824 23.7612 99.5612C22.0826 100.812 20.6181 102.326 19.4249 104.046C19.1585 104.449 18.8983 104.824 18.6877 105.198C18.5793 105.384 18.4678 105.558 18.378 105.734C18.2881 105.911 18.1983 106.078 18.1116 106.239C17.935 106.549 17.8018 106.859 17.6841 107.125C17.5664 107.391 17.4642 107.617 17.3744 107.809C17.2846 108.002 17.2443 108.119 17.1948 108.243C17.1797 108.3 17.1589 108.355 17.1328 108.407C17.1392 108.353 17.1538 108.299 17.1762 108.249L17.331 107.803C17.3961 107.608 17.4828 107.373 17.6005 107.109C17.7182 106.846 17.839 106.533 18.0125 106.208L18.2695 105.694C18.3625 105.517 18.4709 105.338 18.5793 105.152C18.7868 104.771 19.0439 104.39 19.3103 103.984C20.4982 102.24 21.9752 100.712 23.6776 99.4651C24.074 99.1864 24.4457 98.9138 24.8174 98.697C25.0032 98.5824 25.1767 98.4678 25.3502 98.3718L25.855 98.093C26.1648 97.9103 26.4745 97.7833 26.7409 97.6532C27.0072 97.5231 27.2334 97.4302 27.4254 97.3589L27.8652 97.1886C27.9168 97.1643 27.9708 97.1456 28.0263 97.1328Z" fill="#E0E0E0"/>
<path d="M21.5156 101.493C21.5779 101.287 21.7022 101.104 21.8718 100.97C22.2748 100.615 22.7908 100.415 23.3276 100.406C23.8489 100.409 24.3647 100.514 24.8453 100.716C25.0505 100.779 25.2448 100.873 25.4214 100.995C25.2097 100.955 25.0023 100.894 24.8019 100.815C24.3259 100.654 23.827 100.572 23.3245 100.57C22.8252 100.58 22.342 100.749 21.9462 101.054C21.7925 101.19 21.6486 101.337 21.5156 101.493Z" fill="#E0E0E0"/>
<path d="M20.5391 102.504C20.7311 102.079 20.8685 101.631 20.9479 101.172C20.9787 100.706 20.9475 100.239 20.855 99.7812C20.8736 99.7812 20.9541 99.9144 21.0254 100.168C21.1992 100.84 21.1164 101.552 20.793 102.166C20.7354 102.297 20.6485 102.412 20.5391 102.504Z" fill="#E0E0E0"/>
<path d="M9.9375 116.008C10.1605 119.991 11.3592 124.039 13.2052 128.134H21.2305C22.9898 124.08 24.108 120.037 24.3062 116.008H9.9375Z" fill="#E0E0E0"/>
<path d="M23.0199 122.457C23.0199 122.501 20.3778 122.535 17.1349 122.535C13.8919 122.535 11.2344 122.501 11.2344 122.457C11.2344 122.414 13.8764 122.383 17.1349 122.383C20.3933 122.383 23.0199 122.417 23.0199 122.457Z" fill="#FAFAFA"/>
<path d="M22.8295 123.895C22.8295 123.938 20.3516 123.969 17.2975 123.969C14.2435 123.969 11.7656 123.938 11.7656 123.895C11.7656 123.851 14.2435 123.82 17.2975 123.82C20.3516 123.82 22.8295 123.857 22.8295 123.895Z" fill="#FAFAFA"/>
<path d="M13.34 118.625C13.4391 119.856 13.4391 121.093 13.34 122.323C13.2408 121.093 13.2408 119.856 13.34 118.625Z" fill="#FAFAFA"/>
<path d="M17.6368 118.625C17.7401 119.899 17.7401 121.179 17.6368 122.453C17.5377 121.179 17.5377 119.899 17.6368 118.625Z" fill="#FAFAFA"/>
<path d="M21.6759 118.594C21.7791 119.894 21.7791 121.2 21.6759 122.5C21.5768 121.199 21.5768 119.894 21.6759 118.594Z" fill="#FAFAFA"/>
<path d="M24.0531 118.629C24.0531 118.672 20.9557 118.706 17.1305 118.706C13.3052 118.706 10.2109 118.672 10.2109 118.629C10.2109 118.586 13.3083 118.555 17.1305 118.555C20.9526 118.555 24.0531 118.586 24.0531 118.629Z" fill="#FAFAFA"/>
<path d="M143.886 128.987C143.886 129.03 112.355 129.067 73.4735 129.067C34.5922 129.067 3.05469 129.03 3.05469 128.987C3.05469 128.943 34.5767 128.906 73.4735 128.906C112.37 128.906 143.886 128.94 143.886 128.987Z" fill="#263238"/>
<path d="M142.348 97.1328H114.438V128.989H142.348V97.1328Z" fill="#455A64"/>
<g opacity="0.3">
<path d="M142.342 97.1328H138.07V128.989H142.342V97.1328Z" fill="black"/>
</g>
<path d="M135.69 97.4062C135.658 97.4786 135.619 97.548 135.575 97.6138C135.495 97.747 135.38 97.9421 135.222 98.1899C134.763 98.881 134.255 99.5383 133.701 100.157C132.875 101.075 131.919 101.868 130.864 102.511C129.575 103.334 128.079 103.773 126.55 103.777C125.02 103.781 123.522 103.349 122.229 102.532C121.172 101.891 120.215 101.1 119.385 100.185C118.829 99.5683 118.319 98.912 117.858 98.2209C117.7 97.9762 117.586 97.7779 117.505 97.6478C117.46 97.583 117.421 97.5134 117.391 97.4403C117.443 97.4996 117.49 97.5627 117.533 97.6293L117.911 98.1868C118.385 98.8598 118.902 99.5012 119.46 100.107C120.291 101.003 121.245 101.775 122.294 102.402C123.567 103.197 125.039 103.617 126.54 103.613C128.041 103.61 129.511 103.184 130.781 102.384C131.827 101.753 132.779 100.977 133.608 100.079C134.165 99.472 134.683 98.8295 135.157 98.1558L135.535 97.5983C135.581 97.5299 135.633 97.4656 135.69 97.4062Z" fill="#263238"/>
<path d="M125.936 128.863H97.1641L100.723 101.641H122.315L125.936 128.863Z" fill="#263238"/>
<path d="M135.827 128.99L111.547 128.863L114.396 108.969H132.826L135.827 128.99Z" fill="#FF725E"/>
<path d="M132.828 108.969H135.278L139.903 128.99H135.278L132.828 108.969Z" fill="#FF725E"/>
<g opacity="0.3">
<path d="M132.828 108.969H135.278L139.903 128.99H135.278L132.828 108.969Z" fill="black"/>
</g>
<path d="M128.7 119.766H118.906V122.132H128.7V119.766Z" fill="white"/>
<path d="M130.245 109.082C130.249 109.107 130.249 109.132 130.245 109.156C130.245 109.212 130.245 109.28 130.245 109.367C130.245 109.55 130.208 109.822 130.171 110.172C130.074 111.162 129.909 112.144 129.675 113.112C129.512 113.781 129.306 114.439 129.056 115.081C128.916 115.425 128.768 115.778 128.591 116.132C128.414 116.501 128.207 116.855 127.972 117.191C127.47 117.918 126.841 118.548 126.113 119.049C125.731 119.311 125.314 119.52 124.874 119.669C124.411 119.811 123.927 119.869 123.443 119.842C122.492 119.782 121.574 119.468 120.786 118.932C120.06 118.43 119.439 117.792 118.955 117.055C118.161 115.803 117.571 114.433 117.205 112.997C116.953 112.034 116.77 111.055 116.657 110.067C116.614 109.717 116.589 109.447 116.57 109.262C116.57 109.175 116.57 109.107 116.57 109.051V108.977C116.58 108.999 116.586 109.023 116.589 109.048L116.62 109.255C116.648 109.454 116.685 109.72 116.734 110.058C116.872 111.039 117.071 112.01 117.332 112.966C117.708 114.385 118.302 115.736 119.095 116.971C119.57 117.69 120.179 118.311 120.888 118.801C121.654 119.32 122.545 119.623 123.468 119.681C123.933 119.708 124.398 119.653 124.843 119.517C125.272 119.371 125.68 119.168 126.054 118.913C127.097 118.192 127.937 117.215 128.492 116.076C128.669 115.726 128.82 115.376 128.96 115.038C129.209 114.403 129.416 113.752 129.579 113.09C129.82 112.129 130.002 111.155 130.124 110.172L130.227 109.37L130.258 109.159C130.252 109.134 130.248 109.108 130.245 109.082Z" fill="#263238"/>
<path d="M134.072 108.969C134.116 108.969 134.94 113.426 135.912 118.939C136.885 124.453 137.637 128.931 137.594 128.941C137.551 128.95 136.727 124.484 135.754 118.967C134.782 113.451 134.026 108.978 134.072 108.969Z" fill="#263238"/>
<path d="M22.7845 19.1403L21.0438 16.0739C22.1156 14.3251 22.4947 12.2388 22.1065 10.2248C21.7184 8.21076 20.591 6.41472 18.9461 5.18956C17.3011 3.9644 15.2575 3.39871 13.2166 3.60364C11.1758 3.80856 9.28544 4.76929 7.91691 6.29705C6.54838 7.82481 5.80067 9.80913 5.8207 11.8601C5.84073 13.9111 6.62706 15.8804 8.02516 17.3812C9.42326 18.8819 11.3321 19.8055 13.3765 19.9706C15.4209 20.1356 17.4531 19.5301 19.0739 18.273L22.7845 19.1403Z" fill="white"/>
<path d="M22.7858 19.1385L19.0689 18.2898H19.0318L19.0565 18.2588L19.0937 18.296C17.9525 19.1898 16.5935 19.7629 15.1569 19.9562C14.7261 20.0167 14.2908 20.0395 13.856 20.0243C13.633 20.0243 13.4069 20.0058 13.1777 19.9872L12.487 19.8664C10.4213 19.4599 8.58749 18.2828 7.35775 16.5739C6.67405 15.6278 6.2009 14.5463 5.97012 13.4021C5.73139 12.1928 5.76419 10.9455 6.06614 9.75034C6.37613 8.50121 6.97921 7.34389 7.82545 6.3742L8.15068 6.00561C8.26218 5.88172 8.39227 5.77951 8.51307 5.6649C8.63387 5.5503 8.75157 5.4357 8.88476 5.35517L9.27812 5.04543C9.41209 4.9459 9.55285 4.85586 9.69937 4.77595L10.1144 4.52507L10.5511 4.31135C10.6937 4.23745 10.8405 4.17229 10.991 4.11621C12.1546 3.65592 13.407 3.46326 14.6552 3.55249C15.8403 3.63189 16.9933 3.97248 18.0313 4.54985C19.8996 5.58772 21.297 7.30453 21.934 9.34459C22.1888 10.2111 22.3089 11.1116 22.2902 12.0145C22.2679 12.7981 22.1323 13.5743 21.8875 14.319C21.6836 14.9374 21.4081 15.5299 21.0667 16.0845V16.0597C22.1632 18.0234 22.696 18.9836 22.7858 19.1385L21.0234 16.0845V16.069C21.7699 14.8488 22.1822 13.4537 22.219 12.0238C22.2325 11.1288 22.1104 10.237 21.8566 9.37866C21.2231 7.36273 19.8392 5.66727 17.991 4.64277C16.9657 4.07058 15.8266 3.73212 14.6552 3.65161C13.4174 3.56342 12.1756 3.75504 11.0219 4.21223C10.8725 4.26831 10.7267 4.33348 10.5852 4.40737L10.1547 4.61489L9.74583 4.86578C9.60449 4.94332 9.46981 5.03241 9.34317 5.13215L8.9529 5.42331C8.81971 5.51623 8.70821 5.63702 8.58431 5.73304C8.46042 5.82906 8.33652 5.94676 8.22811 6.07066L7.89979 6.43305C7.06401 7.39059 6.46743 8.53282 6.15906 9.76583C5.86174 10.9469 5.82895 12.1791 6.06304 13.3743C6.29039 14.5043 6.75606 15.5729 7.42899 16.5088C8.63998 18.2014 10.4473 19.3724 12.487 19.7858L13.1715 19.8912C13.4007 19.9097 13.6237 19.9159 13.8468 19.9283C14.2772 19.9465 14.7083 19.9268 15.1353 19.8695C15.9052 19.7695 16.6571 19.5609 17.3685 19.25C17.9663 18.9834 18.5307 18.6476 19.0503 18.2495L19.2083 18.1287L19.0875 18.2867V18.2464L22.7858 19.1385Z" fill="#263238"/>
<path d="M14.5371 14.2787V15.2079H13.8681V14.288C13.1479 14.2692 12.4503 14.0327 11.8672 13.6096L12.2327 12.7857C12.7083 13.1426 13.2754 13.3574 13.8681 13.4052V11.7698C12.9606 11.5499 11.988 11.2556 11.988 10.1189C11.988 9.28571 12.6075 8.57021 13.8681 8.43703V7.50781H14.5371V8.42464C15.126 8.44597 15.6997 8.61764 16.2035 8.92331L15.869 9.74722C15.462 9.50356 15.0081 9.34841 14.5371 9.2919V10.9428C15.4447 11.1627 16.4327 11.4508 16.4327 12.5844C16.4327 13.43 15.8194 14.1486 14.5371 14.2787ZM13.8681 10.7848V9.32907C13.2889 9.4189 13.0442 9.71314 13.0442 10.0724C13.0442 10.4317 13.3942 10.6455 13.8681 10.7848ZM15.3858 12.6711C15.3858 12.2716 15.0265 12.0826 14.5371 11.9433V13.3897C15.1349 13.2999 15.3858 13.0088 15.3858 12.6711Z" fill="#263238"/>
<path d="M110.124 4.33286L105.162 0.132812L100.203 4.33286L95.2438 0.132812L90.2849 4.33286L85.3291 0.132812L80.3702 4.33286L75.4113 0.132812L70.4555 4.33286L65.4935 0.132812L60.5377 4.33286L55.5788 0.132812L50.623 4.33286L45.6641 0.132812V4.60852V6.8727V122.123V122.625V128.863L50.6261 124.663L55.5881 128.863L60.547 124.663L65.5059 128.863L70.4648 124.663L75.4206 128.863L80.3795 124.663L85.3384 128.863L90.2973 124.663L95.2562 128.863L100.212 124.663L105.171 128.863L110.127 124.663L115.086 128.863V124.39V122.625V122.123V6.8727V4.60852V0.132812L110.124 4.33286Z" fill="#FAFAFA"/>
<path d="M110.123 4.33633L115.079 0.120798L115.11 0.0960191V0.136284C115.11 15.8059 115.138 64.1436 115.166 128.866V129.027L115.045 128.922L110.089 124.725H110.185L105.229 128.925L105.18 128.965L105.13 128.925L100.174 124.725H100.273L95.3176 128.925L95.268 128.969L95.2153 128.925L90.2595 124.725H90.3618L85.406 128.928L85.3564 128.972L85.3068 128.928L80.351 124.728H80.4532L75.4974 128.928L75.4448 128.972L75.3952 128.928L70.4394 124.728H70.5447L65.5889 128.928L65.5363 128.972L65.4836 128.928L60.5278 124.728H60.6331L55.6773 128.928L55.6247 128.972L55.572 128.928L50.5852 124.731H50.6905L45.7347 128.931L45.6016 129.043V128.851C45.6016 79.6243 45.6016 34.5667 45.6201 0.120798V0L45.7224 0.0867262L50.6782 4.28987H50.5852L55.541 0.0898242L55.5782 0.0588497L55.6185 0.0898242C57.4057 1.60754 59.007 2.96729 60.5743 4.29296H60.4968L65.4526 0.0929211L65.4867 0.0619478L65.5239 0.0929211L70.4797 4.29296H70.4084L75.3643 0.0960191L75.3952 0.0681427L75.4262 0.0960191L80.382 4.29916H80.3262L85.282 0.102214L85.3099 0.0774344L85.3347 0.102214L90.2905 4.30535H90.2441L95.1999 0.108408L95.2215 0.0898242L95.2432 0.108408L100.199 4.31155H100.165L105.121 0.117701L110.077 4.33323L105.149 0.145577H105.173L100.218 4.35182H100.199H100.184L95.2277 0.157966H95.2711L90.3153 4.36111L90.2905 4.38279L90.2688 4.36111L85.313 0.164161H85.3657L80.4099 4.3673L80.382 4.39208L80.3541 4.3673L75.3983 0.170355H75.4603L70.5045 4.3735L70.4704 4.40137L70.4394 4.3735L65.4526 0.173454H65.5239L60.5681 4.37659L60.5309 4.40757L60.4937 4.37659L55.541 0.17655H55.6185L50.6627 4.37969L50.6255 4.41376L50.5852 4.37969L45.6294 0.179648L45.7317 0.133187C45.7317 34.5791 45.7317 79.6367 45.7502 128.863L45.6171 128.801L50.5729 124.601L50.6255 124.558L50.6782 124.601L55.634 128.795H55.541L60.4968 124.595L60.5495 124.552L60.6022 124.595C62.3026 126.038 64.0093 127.476 65.558 128.795H65.4526L70.4084 124.595L70.4611 124.552L70.5138 124.595L75.4696 128.798H75.3643C77.0709 127.349 78.7714 125.908 80.3201 124.598L80.3696 124.555L80.4223 124.598L85.3781 128.798H85.2759L90.2317 124.598L90.2843 124.555L90.3339 124.598L95.2897 128.798H95.1906L100.146 124.598L100.196 124.558L100.245 124.598L105.201 128.798H105.102L110.058 124.601L110.104 124.558L110.154 124.601L115.11 128.801L114.986 128.857C115.014 64.1219 115.035 15.8028 115.042 0.126992H115.073L110.123 4.33633Z" fill="#263238"/>
<path d="M74.6731 17.5196L74.1837 16.8165H73.6448V17.5196H73.0625V14.9922H74.1559C74.8311 14.9922 75.2523 15.3422 75.2523 15.9214C75.2592 16.0921 75.2128 16.2607 75.1195 16.4039C75.0263 16.5471 74.8909 16.6577 74.732 16.7205L75.2988 17.532L74.6731 17.5196ZM74.1218 15.4692H73.6448V16.3488H74.1218C74.4811 16.3488 74.6607 16.1847 74.6607 15.909C74.6607 15.6333 74.4811 15.4692 74.1218 15.4692Z" fill="#263238"/>
<path d="M77.6763 17.0365V17.5073H75.7188V14.9922H77.6267V15.463H76.2918V16.0112H77.4657V16.4665H76.2918V17.0365H77.6763Z" fill="#263238"/>
<path d="M77.9797 16.2583C77.9964 15.9863 78.0927 15.7253 78.2566 15.5076C78.4204 15.2899 78.6446 15.1251 78.9013 15.0337C79.158 14.9423 79.4358 14.9283 79.7004 14.9935C79.965 15.0587 80.2046 15.2001 80.3894 15.4003L80.0115 15.7441C79.9338 15.6515 79.8366 15.5771 79.7269 15.5262C79.6171 15.4754 79.4975 15.4493 79.3766 15.4499C79.2704 15.4499 79.1653 15.4708 79.0672 15.5114C78.9691 15.552 78.88 15.6116 78.8049 15.6866C78.7299 15.7617 78.6703 15.8508 78.6297 15.9489C78.5891 16.047 78.5682 16.1521 78.5682 16.2583C78.5682 16.3644 78.5891 16.4696 78.6297 16.5676C78.6703 16.6657 78.7299 16.7548 78.8049 16.8299C78.88 16.905 78.9691 16.9645 79.0672 17.0051C79.1653 17.0458 79.2704 17.0667 79.3766 17.0667C79.4991 17.0672 79.6201 17.0395 79.7302 16.9858C79.8402 16.9321 79.9365 16.8538 80.0115 16.7569L80.3863 17.1038C80.2023 17.3053 79.9629 17.4481 79.6982 17.5142C79.4334 17.5803 79.1551 17.567 78.8979 17.4757C78.6407 17.3845 78.4161 17.2195 78.2523 17.0013C78.0884 16.7831 77.9925 16.5214 77.9766 16.249L77.9797 16.2583Z" fill="#263238"/>
<path d="M82.7357 17.0365V17.5073H80.7812V14.9922H82.6892V15.463H81.3605V16.0112H82.5344V16.4665H81.3605V17.0365H82.7357Z" fill="#263238"/>
<path d="M83.2031 14.9922H83.7885V17.5196H83.2031V14.9922Z" fill="#263238"/>
<path d="M86.5851 15.909C86.5851 16.4727 86.1638 16.8382 85.4886 16.8382H84.9682V17.5351H84.3828V14.9922H85.4793C86.1638 14.9922 86.5851 15.3422 86.5851 15.909ZM85.9935 15.909C85.9935 15.6302 85.8138 15.4692 85.4545 15.4692H84.9682V16.3457H85.4452C85.8138 16.3457 85.9935 16.1847 85.9935 15.909Z" fill="#263238"/>
<path d="M87.4412 15.4692H86.6328V14.9922H88.835V15.4692H88.0266V17.5196H87.4412V15.4692Z" fill="#263238"/>
<path d="M115.086 11.768C115.086 11.8114 99.5429 11.8486 80.3764 11.8486C61.2098 11.8486 45.6641 11.8176 45.6641 11.768C45.6641 11.7185 61.2036 11.6875 80.3764 11.6875C99.5491 11.6875 115.086 11.7278 115.086 11.768Z" fill="#263238"/>
<path d="M115.086 20.7133C115.086 20.7567 99.5429 20.7939 80.3764 20.7939C61.2098 20.7939 45.6641 20.7567 45.6641 20.7133C45.6641 20.67 61.2036 20.6328 80.3764 20.6328C99.5491 20.6328 115.086 20.67 115.086 20.7133Z" fill="#263238"/>
<path d="M70.8205 25.2368C70.8205 25.2801 66.5894 25.3173 61.3704 25.3173C56.1513 25.3173 51.9141 25.2801 51.9141 25.2368C51.9141 25.1934 56.1482 25.1562 61.3704 25.1562C66.5925 25.1562 70.8205 25.1934 70.8205 25.2368Z" fill="#263238"/>
<path d="M47.454 30.1587C47.454 30.202 47.2806 30.2392 47.0669 30.2392C46.8531 30.2392 46.6797 30.202 46.6797 30.1587C46.6797 30.1153 46.8531 30.0781 47.0669 30.0781C47.2806 30.0781 47.454 30.1153 47.454 30.1587Z" fill="#263238"/>
<path d="M50.5643 30.158C50.0536 30.2645 49.5264 30.2645 49.0156 30.158C49.5264 30.0515 50.0536 30.0515 50.5643 30.158Z" fill="#263238"/>
<path d="M53.6815 30.158C53.1708 30.2645 52.6436 30.2645 52.1328 30.158C52.6436 30.0515 53.1708 30.0515 53.6815 30.158Z" fill="#263238"/>
<path d="M56.7831 30.158C56.2723 30.2645 55.7451 30.2645 55.2344 30.158C55.7451 30.0515 56.2723 30.0515 56.7831 30.158Z" fill="#263238"/>
<path d="M59.8768 30.158C59.3661 30.2645 58.8389 30.2645 58.3281 30.158C58.8389 30.0515 59.3661 30.0515 59.8768 30.158Z" fill="#263238"/>
<path d="M63.0018 30.158C62.4911 30.2645 61.9639 30.2645 61.4531 30.158C61.9639 30.0515 62.4911 30.0515 63.0018 30.158Z" fill="#263238"/>
<path d="M66.1112 30.158C65.6004 30.2645 65.0732 30.2645 64.5625 30.158C65.0732 30.0515 65.6004 30.0515 66.1112 30.158Z" fill="#263238"/>
<path d="M69.2206 30.158C68.7098 30.2645 68.1826 30.2645 67.6719 30.158C68.1826 30.0515 68.7098 30.0515 69.2206 30.158Z" fill="#263238"/>
<path d="M72.3299 30.158C71.8192 30.2645 71.292 30.2645 70.7812 30.158C71.292 30.0515 71.8192 30.0515 72.3299 30.158Z" fill="#263238"/>
<path d="M75.4393 30.158C74.9286 30.2645 74.4014 30.2645 73.8906 30.158C74.4014 30.0515 74.9286 30.0515 75.4393 30.158Z" fill="#263238"/>
<path d="M78.5487 30.158C78.0379 30.2645 77.5107 30.2645 77 30.158C77.5107 30.0515 78.0379 30.0515 78.5487 30.158Z" fill="#263238"/>
<path d="M81.6581 30.158C81.1473 30.2645 80.6201 30.2645 80.1094 30.158C80.6201 30.0515 81.1473 30.0515 81.6581 30.158Z" fill="#263238"/>
<path d="M84.7674 30.158C84.2567 30.2645 83.7295 30.2645 83.2188 30.158C83.7295 30.0515 84.2567 30.0515 84.7674 30.158Z" fill="#263238"/>
<path d="M87.8768 30.158C87.3661 30.2645 86.8389 30.2645 86.3281 30.158C86.8389 30.0515 87.3661 30.0515 87.8768 30.158Z" fill="#263238"/>
<path d="M90.9862 30.158C90.4754 30.2645 89.9482 30.2645 89.4375 30.158C89.9482 30.0515 90.4754 30.0515 90.9862 30.158Z" fill="#263238"/>
<path d="M94.0956 30.158C93.5848 30.2645 93.0576 30.2645 92.5469 30.158C93.0576 30.0515 93.5848 30.0515 94.0956 30.158Z" fill="#263238"/>
<path d="M97.2049 30.158C96.6942 30.2645 96.167 30.2645 95.6562 30.158C96.167 30.0515 96.6942 30.0515 97.2049 30.158Z" fill="#263238"/>
<path d="M100.314 30.158C99.8036 30.2645 99.2764 30.2645 98.7656 30.158C99.2764 30.0515 99.8036 30.0515 100.314 30.158Z" fill="#263238"/>
<path d="M103.424 30.158C102.913 30.2645 102.386 30.2645 101.875 30.158C102.386 30.0515 102.913 30.0515 103.424 30.158Z" fill="#263238"/>
<path d="M106.533 30.158C106.022 30.2645 105.495 30.2645 104.984 30.158C105.495 30.0515 106.022 30.0515 106.533 30.158Z" fill="#263238"/>
<path d="M109.642 30.158C109.132 30.2645 108.604 30.2645 108.094 30.158C108.604 30.0515 109.132 30.0515 109.642 30.158Z" fill="#263238"/>
<path d="M112.76 30.158C112.249 30.2645 111.722 30.2645 111.211 30.158C111.722 30.0515 112.249 30.0515 112.76 30.158Z" fill="#263238"/>
<path d="M114.7 30.2392C114.914 30.2392 115.087 30.2031 115.087 30.1587C115.087 30.1142 114.914 30.0781 114.7 30.0781C114.486 30.0781 114.312 30.1142 114.312 30.1587C114.312 30.2031 114.486 30.2392 114.7 30.2392Z" fill="#263238"/>
<path d="M51.9255 37.2422V40.1816H51.3773V37.7037H50.7578V37.2453L51.9255 37.2422Z" fill="#263238"/>
<path d="M54.097 40.1878L53.5209 39.4104L52.9417 40.1878H52.3594L53.2359 39.0511L52.3996 37.9453H52.9819L53.5333 38.6794L54.0846 37.9453H54.6514L53.8089 39.0294L54.6886 40.1754L54.097 40.1878Z" fill="#263238"/>
<path d="M53.1578 46.2483V46.7098H50.9896V46.3443L52.1573 45.2355C52.4423 44.9629 52.4918 44.7895 52.4918 44.616C52.4918 44.3496 52.3091 44.1917 51.9467 44.1917C51.8158 44.1858 51.6854 44.2108 51.566 44.2646C51.4466 44.3184 51.3414 44.3995 51.2591 44.5014L50.875 44.2072C51.0105 44.0445 51.1822 43.9158 51.3764 43.8313C51.5705 43.7469 51.7818 43.709 51.9932 43.7209C52.6312 43.7209 53.0432 44.0306 53.0432 44.5665C53.0432 44.8514 52.9626 45.1116 52.5569 45.4957L51.7701 46.2452L53.1578 46.2483Z" fill="#263238"/>
<path d="M55.0392 46.7113L54.4631 45.9338L53.8839 46.7113H53.3047L54.1782 45.5745L53.3419 44.4688H53.9273L54.4786 45.2028L55.0268 44.4688H55.5936L54.7543 45.5652L55.6339 46.7113H55.0392Z" fill="#263238"/>
<path d="M52.0476 50.0469V52.9863H51.5179V50.5084H50.8984V50.05L52.0476 50.0469Z" fill="#263238"/>
<path d="M54.2158 52.9847L53.6428 52.2072L53.0636 52.9847H52.4844L53.3578 51.8479L52.5215 50.7422H53.1069L53.6583 51.4763L54.2065 50.7422H54.7764L53.9339 51.8387L54.8136 52.9847H54.2158Z" fill="#263238"/>
<path d="M52.0476 57.0547V59.9972H51.5179V57.5193H50.8984V57.0609L52.0476 57.0547Z" fill="#263238"/>
<path d="M54.2158 60.0003L53.6428 59.2229L53.0636 60.0003H52.4844L53.3578 58.8605L52.5215 57.7578H53.1069L53.6583 58.4919L54.2065 57.7578H54.7764L53.9308 58.8512L54.8105 59.9972L54.2158 60.0003Z" fill="#263238"/>
<path d="M51.6419 67.3368H50.7344V66.9062H53.0605V67.3368H52.153V69.6474H51.6419V67.3368Z" fill="#263238"/>
<path d="M53.2124 68.2691C53.1994 67.9744 53.2749 67.6826 53.4291 67.4313C53.5834 67.1799 53.8093 66.9805 54.0779 66.8586C54.3465 66.7367 54.6454 66.698 54.9361 66.7475C55.2269 66.7969 55.4961 66.9323 55.7093 67.136C55.9225 67.3398 56.0698 67.6028 56.1323 67.891C56.1948 68.1792 56.1696 68.4796 56.0599 68.7533C55.9503 69.0271 55.7612 69.2618 55.517 69.4272C55.2728 69.5926 54.9847 69.6812 54.6898 69.6815C54.4986 69.6916 54.3074 69.6625 54.1278 69.596C53.9483 69.5294 53.7843 69.4269 53.6459 69.2945C53.5075 69.1622 53.3976 69.003 53.3231 68.8266C53.2485 68.6503 53.2108 68.4605 53.2124 68.2691ZM55.6531 68.2691C55.6531 68.0785 55.5966 67.8923 55.4908 67.7339C55.3849 67.5755 55.2345 67.452 55.0585 67.3791C54.8824 67.3062 54.6888 67.2871 54.5019 67.3243C54.315 67.3614 54.1434 67.4532 54.0087 67.5879C53.874 67.7226 53.7822 67.8943 53.745 68.0811C53.7079 68.268 53.727 68.4617 53.7999 68.6377C53.8728 68.8137 53.9962 68.9641 54.1546 69.07C54.3131 69.1758 54.4993 69.2323 54.6898 69.2323C54.8176 69.2371 54.945 69.2155 55.064 69.1688C55.1831 69.122 55.2912 69.0512 55.3816 68.9608C55.472 68.8704 55.5428 68.7623 55.5895 68.6433C55.6362 68.5242 55.6579 68.3968 55.6531 68.2691Z" fill="#263238"/>
<path d="M57.22 67.3368H56.3125V66.9062H58.6355V67.3368H57.728V69.6474H57.2169L57.22 67.3368Z" fill="#263238"/>
<path d="M60.6682 69.0125H59.296L59.0266 69.6474H58.5L59.739 66.9062H60.2407L61.4797 69.6474H60.9469L60.6682 69.0125ZM60.5009 68.6129L59.9836 67.4142L59.4695 68.6129H60.5009Z" fill="#263238"/>
<path d="M61.8203 66.9062H62.3283V69.2169H63.7624V69.6474H61.8203V66.9062Z" fill="#263238"/>
<path d="M50.8986 73.8323C50.9129 73.5425 51.0119 73.2632 51.1834 73.0291C51.3548 72.795 51.5911 72.6162 51.863 72.515C52.135 72.4138 52.4307 72.3946 52.7134 72.4597C52.9962 72.5248 53.2537 72.6715 53.454 72.8814L53.1256 73.1911C53.0326 73.09 52.9189 73.01 52.7922 72.9565C52.6656 72.9031 52.529 72.8775 52.3916 72.8814C52.1361 72.8814 51.8911 72.9829 51.7104 73.1636C51.5298 73.3442 51.4283 73.5892 51.4283 73.8447C51.4283 74.1002 51.5298 74.3452 51.7104 74.5258C51.8911 74.7065 52.1361 74.808 52.3916 74.808C52.5302 74.8104 52.6677 74.7825 52.7945 74.7264C52.9213 74.6702 53.0343 74.5871 53.1256 74.4828L53.454 74.7925C53.3177 74.9452 53.1492 75.0659 52.9606 75.1457C52.7721 75.2255 52.5682 75.2625 52.3637 75.254C52.1726 75.2629 51.9817 75.2326 51.8028 75.1648C51.6239 75.0971 51.4608 74.9935 51.3235 74.8602C51.1862 74.727 51.0777 74.5671 51.0046 74.3903C50.9315 74.2135 50.8955 74.0236 50.8986 73.8323Z" fill="#263238"/>
<path d="M55.6574 74.5703H54.3038L54.0313 75.2052H53.5078L54.7468 72.4609H55.2331L56.472 75.2052H55.9393L55.6574 74.5703ZM55.4901 74.1707L54.9729 72.972L54.4587 74.1707H55.4901Z" fill="#263238"/>
<path d="M56.5781 74.9138L56.7547 74.5174C57.0149 74.7154 57.3321 74.824 57.6591 74.8271C58.0865 74.8271 58.2786 74.6723 58.2786 74.4709C58.2786 73.8793 56.6494 74.2665 56.6494 73.232C56.6494 72.789 57.0025 72.4143 57.752 72.4143C58.073 72.4093 58.3892 72.4929 58.6658 72.6559L58.5047 73.0523C58.2763 72.9148 58.0155 72.84 57.7489 72.8355C57.3277 72.8355 57.1542 72.9997 57.1542 73.2103C57.1542 73.7926 58.7804 73.4116 58.7804 74.4183C58.7804 74.8581 58.4242 75.236 57.6715 75.236C57.2815 75.2522 56.897 75.1389 56.5781 74.9138Z" fill="#263238"/>
<path d="M61.7111 72.4609V75.2052H61.2V74.0282H59.7814V75.2052H59.2734V72.4609H59.7814V73.5946H61.2V72.4609H61.7111Z" fill="#263238"/>
<path d="M50.8984 79.3196C50.9122 79.0295 51.0108 78.7499 51.182 78.5153C51.3532 78.2807 51.5894 78.1015 51.8615 78C52.1336 77.8984 52.4295 77.8789 52.7125 77.9439C52.9955 78.0089 53.2533 78.1555 53.4538 78.3656L53.1255 78.6754C53.032 78.5747 52.9183 78.495 52.7917 78.4416C52.6651 78.3882 52.5287 78.3623 52.3914 78.3656C52.1359 78.3656 51.8909 78.4671 51.7102 78.6478C51.5296 78.8284 51.4281 79.0734 51.4281 79.3289C51.4281 79.5844 51.5296 79.8294 51.7102 80.0101C51.8909 80.1907 52.1359 80.2922 52.3914 80.2922C52.53 80.2946 52.6675 80.2667 52.7943 80.2106C52.9211 80.1544 53.0341 80.0713 53.1255 79.967L53.4538 80.2767C53.2535 80.4867 52.996 80.6333 52.7132 80.6984C52.4305 80.7635 52.1348 80.7443 51.8628 80.6431C51.5909 80.5419 51.3546 80.3632 51.1832 80.129C51.0118 79.8949 50.9128 79.6156 50.8984 79.3258V79.3196Z" fill="#263238"/>
<path d="M56.3719 77.9453V80.6896H55.8484V79.5126H54.4298V80.6896H53.9219V77.9453H54.4298V79.079H55.8484V77.9453H56.3719Z" fill="#263238"/>
<path d="M58.8869 80.0545H57.5148L57.2453 80.674H56.7188L57.9577 77.9297H58.4595L59.6984 80.674H59.1657L58.8869 80.0545ZM58.7166 79.6549L58.1993 78.4562L57.6882 79.6549H58.7166Z" fill="#263238"/>
<path d="M62.4845 77.9453V80.6896H62.0633L60.5517 78.8312V80.6896H60.0469V77.9453H60.465L61.9765 79.8037V77.9453H62.4845Z" fill="#263238"/>
<path d="M65.0936 79.2893H65.5737V80.3827C65.2648 80.6139 64.8878 80.7359 64.502 80.7296C64.3111 80.7385 64.1205 80.7086 63.9415 80.6418C63.7625 80.5749 63.599 80.4724 63.4608 80.3405C63.3226 80.2086 63.2125 80.0501 63.1374 79.8745C63.0622 79.6988 63.0234 79.5098 63.0234 79.3187C63.0234 79.1277 63.0622 78.9386 63.1374 78.763C63.2125 78.5873 63.3226 78.4288 63.4608 78.2969C63.599 78.165 63.7625 78.0625 63.9415 77.9956C64.1205 77.9288 64.3111 77.8989 64.502 77.9079C64.7086 77.898 64.9148 77.9334 65.1063 78.0115C65.2978 78.0896 65.47 78.2086 65.6108 78.3601L65.3011 78.6698C65.2038 78.5682 65.0862 78.4882 64.956 78.4348C64.8259 78.3815 64.686 78.356 64.5453 78.3601C64.2898 78.3601 64.0448 78.4616 63.8642 78.6422C63.6835 78.8229 63.582 79.0679 63.582 79.3233C63.582 79.5788 63.6835 79.8238 63.8642 80.0045C64.0448 80.1852 64.2898 80.2866 64.5453 80.2866C64.7421 80.2898 64.9364 80.2417 65.1091 80.1473L65.0936 79.2893Z" fill="#263238"/>
<path d="M68.2988 80.2622V80.6896H66.2422V77.9453H68.24V78.3604H66.7471V79.0728H68.0727V79.494H66.7471V80.2498L68.2988 80.2622Z" fill="#263238"/>
<path d="M114.274 90.9008C114.274 90.9473 99.14 90.9814 80.4783 90.9814C61.8166 90.9814 46.6797 90.9473 46.6797 90.9008C46.6797 90.8544 61.8104 90.8203 80.4783 90.8203C99.1462 90.8203 114.274 90.8575 114.274 90.9008Z" fill="#263238"/>
<path d="M114.269 101.643C114.269 101.686 99.3271 101.724 80.8977 101.724C62.4683 101.724 47.5234 101.686 47.5234 101.643C47.5234 101.6 62.4621 101.562 80.8977 101.562C99.3333 101.562 114.269 101.597 114.269 101.643Z" fill="#263238"/>
<path d="M67.6245 95.4717H66.6953V94.9297H69.198V95.4717H68.2688V97.8041H67.6245V95.4717Z" fill="#263238"/>
<path d="M72.1906 94.9297V97.8041H71.5246V96.6394H70.2175V97.8164H69.5547V94.9421H70.2175V96.0757H71.5246V94.9421L72.1906 94.9297Z" fill="#263238"/>
<path d="M74.7626 97.1846H73.4276L73.1736 97.8041H72.4922L73.7714 94.9297H74.4342L75.7197 97.8041H75.0227L74.7626 97.1846ZM74.5519 96.6797L74.0966 95.5801L73.6413 96.6797H74.5519Z" fill="#263238"/>
<path d="M78.6515 94.9297V97.8041H78.1064L76.6723 96.0602V97.8041H76.0156V94.9297H76.567L77.9948 96.6766V94.9297H78.6515Z" fill="#263238"/>
<path d="M80.375 96.6766L79.9879 97.0793V97.8041H79.3281V94.9297H79.9879V96.2739L81.264 94.9297H82.0012L80.8118 96.212L82.0724 97.8041H81.295L80.375 96.6766Z" fill="#263238"/>
<path d="M84.9138 96.7896V97.8055H84.2479V96.7803L83.1328 94.9219H83.839L84.6072 96.2011L85.3753 94.9219H86.0289L84.9138 96.7896Z" fill="#263238"/>
<path d="M86.0026 96.3617C85.9846 96.0466 86.0616 95.7333 86.2237 95.4624C86.3858 95.1915 86.6254 94.9755 86.9117 94.8424C87.1979 94.7093 87.5175 94.6651 87.8291 94.7157C88.1406 94.7662 88.4299 94.9092 88.6593 95.1259C88.8888 95.3427 89.0479 95.6234 89.116 95.9317C89.1841 96.2399 89.1581 96.5615 89.0414 96.8548C88.9247 97.1481 88.7227 97.3996 88.4614 97.5767C88.2001 97.7539 87.8917 97.8486 87.576 97.8484C87.3736 97.8603 87.1709 97.8306 86.9804 97.7612C86.7899 97.6918 86.6156 97.5841 86.4682 97.4449C86.3208 97.3056 86.2035 97.1377 86.1234 96.9514C86.0434 96.7651 86.0022 96.5645 86.0026 96.3617ZM88.4805 96.3617C88.4744 96.1855 88.4166 96.015 88.3143 95.8714C88.2119 95.7278 88.0696 95.6175 87.905 95.5542C87.7405 95.491 87.5609 95.4776 87.3888 95.5156C87.2166 95.5537 87.0595 95.6416 86.9369 95.7684C86.8144 95.8952 86.7319 96.0552 86.6996 96.2285C86.6674 96.4019 86.6869 96.5809 86.7557 96.7432C86.8245 96.9055 86.9396 97.044 87.0866 97.1414C87.2335 97.2388 87.4059 97.2908 87.5822 97.2909C87.7032 97.2933 87.8233 97.2706 87.9351 97.2242C88.0469 97.1779 88.1478 97.1089 88.2316 97.0216C88.3154 96.9343 88.3803 96.8306 88.422 96.717C88.4638 96.6035 88.4816 96.4825 88.4743 96.3617H88.4805Z" fill="#263238"/>
<path d="M89.6094 96.5403V94.9297H90.2753V96.5155C90.2753 97.0607 90.5138 97.2868 90.9165 97.2868C91.3191 97.2868 91.5576 97.0607 91.5576 96.5155V94.9297H92.2143V96.5403C92.2143 97.3859 91.728 97.8536 90.9103 97.8536C90.0926 97.8536 89.6094 97.3859 89.6094 96.5403Z" fill="#263238"/>
<path d="M92.75 97.4633C92.75 97.359 92.7914 97.259 92.8652 97.1852C92.939 97.1114 93.039 97.07 93.1434 97.07C93.2477 97.07 93.3477 97.1114 93.4215 97.1852C93.4953 97.259 93.5367 97.359 93.5367 97.4633C93.5367 97.5677 93.4953 97.6677 93.4215 97.7415C93.3477 97.8153 93.2477 97.8567 93.1434 97.8567C93.039 97.8567 92.939 97.8153 92.8652 97.7415C92.7914 97.6677 92.75 97.5677 92.75 97.4633ZM92.75 94.9297H93.512L93.385 96.8067H92.877L92.75 94.9297Z" fill="#263238"/>
<path d="M60.1288 105.867H59.5V118.662H60.1288V105.867Z" fill="#263238"/>
<path d="M61.9056 105.867H60.6016V118.662H61.9056V105.867Z" fill="#263238"/>
<path d="M62.8734 105.867H62.5234V118.662H62.8734V105.867Z" fill="#263238"/>
<path d="M73.1156 105.867H72.7656V118.662H73.1156V105.867Z" fill="#263238"/>
<path d="M65.35 105.867H65V118.662H65.35V105.867Z" fill="#263238"/>
<path d="M68.0094 105.867H67.8359V118.662H68.0094V105.867Z" fill="#263238"/>
<path d="M69.6344 105.867H69.4609V118.662H69.6344V105.867Z" fill="#263238"/>
<path d="M78.4235 105.867H78.25V118.662H78.4235V105.867Z" fill="#263238"/>
<path d="M77.7594 105.867H77.5859V118.662H77.7594V105.867Z" fill="#263238"/>
<path d="M74.0875 105.867H73.9141V118.662H74.0875V105.867Z" fill="#263238"/>
<path d="M64.012 105.867H63.4297V118.662H64.012V105.867Z" fill="#263238"/>
<path d="M69.1448 105.867H68.5625V118.662H69.1448V105.867Z" fill="#263238"/>
<path d="M81.512 105.867H80.9297V118.662H81.512V105.867Z" fill="#263238"/>
<path d="M70.635 105.867H70.1797V118.662H70.635V105.867Z" fill="#263238"/>
<path d="M79.9709 105.867H79.5156V118.662H79.9709V105.867Z" fill="#263238"/>
<path d="M75.6116 105.867H75.1562V118.662H75.6116V105.867Z" fill="#263238"/>
<path d="M71.6741 105.867H71.2188V118.662H71.6741V105.867Z" fill="#263238"/>
<path d="M67.243 105.867H66.1094V118.662H67.243V105.867Z" fill="#263238"/>
<path d="M83.3211 105.867H82.1875V118.662H83.3211V105.867Z" fill="#263238"/>
<path d="M100.184 118.664H100.812V105.869H100.184V118.664Z" fill="#263238"/>
<path d="M98.3991 118.664H99.7031V105.869H98.3991V118.664Z" fill="#263238"/>
<path d="M97.4391 118.664H97.7891V105.869H97.4391V118.664Z" fill="#263238"/>
<path d="M87.1969 118.664H87.5469V105.869H87.1969V118.664Z" fill="#263238"/>
<path d="M94.9547 118.664H95.3047V105.869H94.9547V118.664Z" fill="#263238"/>
<path d="M92.3031 118.664H92.4766V105.869H92.3031V118.664Z" fill="#263238"/>
<path d="M90.6781 118.664H90.8516V105.869H90.6781V118.664Z" fill="#263238"/>
<path d="M86.2172 118.664H86.3906V105.869H86.2172V118.664Z" fill="#263238"/>
<path d="M96.2927 118.664H96.875V105.869H96.2927V118.664Z" fill="#263238"/>
<path d="M91.1677 118.664H91.75V105.869H91.1677V118.664Z" fill="#263238"/>
<path d="M89.6775 118.664H90.1328V105.869H89.6775V118.664Z" fill="#263238"/>
<path d="M84.6931 118.664H85.1484V105.869H84.6931V118.664Z" fill="#263238"/>
<path d="M88.6306 118.664H89.0859V105.869H88.6306V118.664Z" fill="#263238"/>
<path d="M93.0695 118.664H94.2031V105.869H93.0695V118.664Z" fill="#263238"/>
<path d="M93.594 40.222V40.6928H93.2471V40.2282C92.8771 40.2166 92.519 40.0947 92.2188 39.8782L92.4077 39.4539C92.6524 39.6348 92.9435 39.7422 93.2471 39.7636V38.9242C92.7825 38.8096 92.2807 38.6578 92.2807 38.0755C92.2807 37.645 92.5904 37.2733 93.2471 37.2083V36.7344H93.594V37.2021C93.8947 37.2142 94.1875 37.3015 94.4458 37.4561L94.2723 37.8804C94.0643 37.7588 93.8333 37.6818 93.594 37.6543V38.503C94.0586 38.6176 94.5666 38.7632 94.5666 39.3486C94.5666 39.7853 94.2568 40.157 93.594 40.222ZM93.2471 38.4255V37.676C92.9373 37.7224 92.8227 37.8742 92.8227 38.0601C92.8227 38.2459 93.0179 38.3543 93.2471 38.4255ZM94.0307 39.395C94.0307 39.1906 93.8449 39.0853 93.594 39.0202V39.7636C93.9006 39.7171 94.0307 39.5747 94.0307 39.395Z" fill="#263238"/>
<path d="M97.0484 39.7199V40.1814H94.8802V39.8159L96.0479 38.707C96.3329 38.4345 96.3855 38.261 96.3855 38.0876C96.3855 37.8181 96.1997 37.6632 95.8373 37.6632C95.7064 37.6566 95.5757 37.6813 95.4561 37.7351C95.3366 37.789 95.2315 37.8705 95.1497 37.973L94.7656 37.6787C94.9011 37.5158 95.0728 37.3868 95.2669 37.3018C95.4609 37.2169 95.6722 37.1784 95.8838 37.1893C96.5218 37.1893 96.9338 37.4991 96.9338 38.0349C96.9338 38.3199 96.8564 38.58 96.4475 38.9641L95.6608 39.7106L97.0484 39.7199Z" fill="#263238"/>
<path d="M99.4813 39.2879C99.4813 39.8052 99.1065 40.2172 98.3167 40.2172C97.9212 40.2241 97.5339 40.1048 97.2109 39.8764L97.4432 39.4521C97.6903 39.6437 97.9948 39.7463 98.3074 39.7433C98.7008 39.7433 98.9269 39.5698 98.9269 39.2941C98.9269 39.0185 98.7472 38.8357 98.1371 38.8357H97.4277L97.5795 37.2344H99.3048V37.6928H98.041L97.9791 38.3711H98.2579C99.1313 38.3866 99.4813 38.7676 99.4813 39.2879Z" fill="#263238"/>
<path d="M100.469 39.8625C100.463 39.9887 100.43 40.1121 100.373 40.2249L100.16 40.8165H99.8345L100.002 40.1754C99.9311 40.1415 99.874 40.0848 99.8397 40.0145C99.8055 39.9441 99.796 39.8642 99.8128 39.7878C99.8297 39.7113 99.8719 39.6428 99.9327 39.5934C99.9934 39.544 100.069 39.5166 100.147 39.5156C100.192 39.5164 100.235 39.5261 100.275 39.5441C100.316 39.5621 100.352 39.5881 100.382 39.6205C100.412 39.6529 100.436 39.691 100.451 39.7326C100.466 39.7742 100.472 39.8184 100.469 39.8625Z" fill="#263238"/>
<path d="M102.966 39.2879C102.966 39.8052 102.591 40.2172 101.801 40.2172C101.406 40.2241 101.018 40.1048 100.695 39.8764L100.928 39.4521C101.175 39.6437 101.479 39.7463 101.792 39.7433C102.182 39.7433 102.411 39.5698 102.411 39.2941C102.411 39.0185 102.232 38.8357 101.621 38.8357H100.912L101.064 37.2344H102.789V37.6928H101.525L101.46 38.3711H101.742C102.625 38.3866 102.966 38.7676 102.966 39.2879Z" fill="#263238"/>
<path d="M103.273 38.7177C103.273 37.7514 103.803 37.2031 104.512 37.2031C105.222 37.2031 105.751 37.7514 105.751 38.7177C105.751 39.6841 105.222 40.2293 104.512 40.2293C103.803 40.2293 103.273 39.6841 103.273 38.7177ZM105.181 38.7177C105.181 38.0053 104.906 37.6801 104.5 37.6801C104.094 37.6801 103.825 37.9899 103.825 38.7177C103.825 39.4456 104.1 39.7554 104.5 39.7554C104.9 39.7554 105.181 39.427 105.181 38.7177Z" fill="#263238"/>
<path d="M93.594 46.8579V47.3287H93.2471V46.861C92.8771 46.8522 92.5185 46.7312 92.2188 46.5141L92.4077 46.0898C92.653 46.2695 92.9438 46.3768 93.2471 46.3995V45.5663C92.7825 45.4548 92.2807 45.303 92.2807 44.7176C92.2807 44.2902 92.5904 43.9154 93.2471 43.8535V43.3672H93.594V43.8318C93.8949 43.8448 94.1878 43.9332 94.4458 44.0889L94.2723 44.5132C94.0643 44.3916 93.8333 44.3146 93.594 44.2871V45.1358C94.0586 45.2473 94.5666 45.396 94.5666 45.9783C94.5666 46.4212 94.2568 46.7898 93.594 46.8579ZM93.2471 45.0584V44.3119C92.9373 44.3583 92.8227 44.5101 92.8227 44.6929C92.8227 44.8756 93.0179 44.9871 93.2471 45.0584ZM94.0307 46.0309C94.0307 45.8234 93.8449 45.7212 93.594 45.6561V46.3995C93.9006 46.3531 94.0307 46.2106 94.0307 46.0309Z" fill="#263238"/>
<path d="M97.0484 46.359V46.8205H94.8802V46.4612L96.0479 45.3524C96.3329 45.0798 96.3855 44.9063 96.3855 44.7329C96.3855 44.4634 96.1997 44.3086 95.8373 44.3086C95.7064 44.302 95.5757 44.3266 95.4561 44.3805C95.3366 44.4343 95.2315 44.5159 95.1497 44.6183L94.7656 44.3086C94.9014 44.1462 95.0732 44.0178 95.2673 43.9334C95.4614 43.849 95.6724 43.8109 95.8838 43.8223C96.5218 43.8223 96.9338 44.132 96.9338 44.6679C96.9308 44.8499 96.8853 45.0288 96.8008 45.1901C96.7164 45.3515 96.5954 45.4908 96.4475 45.5971L95.6608 46.3466L97.0484 46.359Z" fill="#263238"/>
<path d="M99.6087 45.3009C99.6087 46.3106 99.0202 46.865 98.1653 46.865C97.8959 46.8735 97.6292 46.8081 97.3941 46.6761L97.5954 46.2641C97.7632 46.3655 97.9571 46.4151 98.1529 46.4066C98.7074 46.4066 99.0574 46.0597 99.0574 45.3938C98.9568 45.4997 98.8343 45.5823 98.6983 45.6358C98.5624 45.6893 98.4164 45.7124 98.2707 45.7035C98.1441 45.715 98.0165 45.7004 97.8958 45.6606C97.7752 45.6208 97.6639 45.5567 97.569 45.4723C97.474 45.3878 97.3975 45.2847 97.3439 45.1695C97.2904 45.0542 97.2611 44.9292 97.2578 44.8022C97.261 44.6674 97.292 44.5347 97.3487 44.4124C97.4055 44.2901 97.4868 44.1808 97.5876 44.0913C97.6884 44.0018 97.8066 43.934 97.9348 43.8922C98.063 43.8504 98.1984 43.8354 98.3326 43.8482C99.1379 43.8389 99.6087 44.3562 99.6087 45.3009ZM98.9892 44.7619C98.9892 44.4862 98.7693 44.2663 98.3698 44.2663C98.2982 44.2571 98.2255 44.2632 98.1564 44.2842C98.0873 44.3051 98.0235 44.3404 97.969 44.3879C97.9146 44.4353 97.8708 44.4937 97.8406 44.5592C97.8104 44.6247 97.7944 44.6959 97.7937 44.7681C97.7937 45.0778 98.026 45.2668 98.3822 45.2668C98.4545 45.2745 98.5277 45.2673 98.5972 45.2458C98.6667 45.2242 98.7311 45.1888 98.7865 45.1415C98.8418 45.0943 98.887 45.0363 98.9192 44.971C98.9514 44.9057 98.97 44.8346 98.9738 44.7619H98.9892Z" fill="#263238"/>
<path d="M102.242 45.2965C102.242 46.3063 101.653 46.8607 100.801 46.8607C100.531 46.8686 100.263 46.8033 100.027 46.6718L100.228 46.2598C100.396 46.3609 100.59 46.4104 100.786 46.4023C101.343 46.4023 101.69 46.0554 101.69 45.3895C101.59 45.4954 101.467 45.578 101.331 45.6315C101.195 45.685 101.049 45.7081 100.903 45.6992C100.777 45.7107 100.649 45.6961 100.529 45.6563C100.408 45.6165 100.297 45.5524 100.202 45.4679C100.107 45.3835 100.03 45.2804 99.9768 45.1652C99.9232 45.0499 99.8939 44.9249 99.8906 44.7979C99.8906 44.2125 100.368 43.8439 100.969 43.8439C101.771 43.8346 102.242 44.3518 102.242 45.2965ZM101.622 44.7576C101.622 44.4819 101.402 44.262 101.003 44.262C100.931 44.2528 100.858 44.2589 100.789 44.2799C100.72 44.3008 100.656 44.3361 100.602 44.3835C100.547 44.4309 100.504 44.4893 100.473 44.5549C100.443 44.6204 100.427 44.6916 100.426 44.7638C100.426 45.0735 100.659 45.2625 101.015 45.2625C101.087 45.2701 101.161 45.263 101.23 45.2415C101.3 45.2199 101.364 45.1845 101.419 45.1372C101.475 45.09 101.52 45.0319 101.552 44.9667C101.584 44.9014 101.603 44.8303 101.607 44.7576H101.622Z" fill="#263238"/>
<path d="M103.237 46.497C103.229 46.6232 103.195 46.7466 103.138 46.8594L102.924 47.451H102.583L102.754 46.8067C102.692 46.783 102.639 46.7402 102.604 46.6844C102.568 46.6287 102.551 46.563 102.555 46.497C102.555 46.4066 102.591 46.3199 102.655 46.256C102.719 46.1921 102.806 46.1563 102.896 46.1562C102.986 46.1563 103.073 46.1921 103.137 46.256C103.201 46.3199 103.237 46.4066 103.237 46.497Z" fill="#263238"/>
<path d="M103.547 45.3475C103.547 44.3811 104.077 43.8359 104.786 43.8359C105.495 43.8359 106.025 44.3811 106.025 45.3475C106.025 46.3138 105.495 46.8621 104.786 46.8621C104.077 46.8621 103.547 46.3138 103.547 45.3475ZM105.455 45.3475C105.455 44.6382 105.179 44.3098 104.773 44.3098C104.368 44.3098 104.098 44.6382 104.098 45.3475C104.098 46.0568 104.377 46.3851 104.773 46.3851C105.17 46.3851 105.439 46.0568 105.439 45.3475H105.455Z" fill="#263238"/>
<path d="M106.359 45.3475C106.359 44.3811 106.889 43.8359 107.598 43.8359C108.308 43.8359 108.837 44.3811 108.837 45.3475C108.837 46.3138 108.311 46.8621 107.598 46.8621C106.886 46.8621 106.359 46.3138 106.359 45.3475ZM108.267 45.3475C108.267 44.6382 107.989 44.3098 107.586 44.3098C107.183 44.3098 106.911 44.6382 106.911 45.3475C106.911 46.0568 107.186 46.3851 107.586 46.3851C107.986 46.3851 108.267 46.0568 108.267 45.3475Z" fill="#263238"/>
<path d="M93.8174 53.2751V53.7459H93.4736V53.2751C93.1033 53.2653 92.7447 53.1433 92.4453 52.9251L92.6343 52.5007C92.8789 52.6816 93.1701 52.7891 93.4736 52.8105V51.9711C93.009 51.8565 92.5073 51.7047 92.5073 51.1224C92.5073 50.695 92.817 50.3202 93.4736 50.2582V49.7812H93.8174V50.249C94.1196 50.2605 94.4139 50.349 94.6723 50.506L94.4989 50.9304C94.2907 50.8061 94.0584 50.7279 93.8174 50.7012V51.5498C94.2852 51.6645 94.7931 51.81 94.7931 52.3954C94.7931 52.8384 94.4772 53.21 93.8174 53.2751ZM93.4736 51.4786V50.729C93.1639 50.7755 93.0493 50.9273 93.0493 51.1131C93.0493 51.299 93.229 51.4167 93.4736 51.4786ZM94.2542 52.4481C94.2542 52.2437 94.0714 52.1384 93.8174 52.0733V52.8198C94.1241 52.7733 94.2573 52.6277 94.2573 52.4481H94.2542Z" fill="#263238"/>
<path d="M97.1892 52.3644C97.1892 52.86 96.8175 53.2937 96.0276 53.2937C95.6322 53.3006 95.2448 53.1813 94.9219 52.9529L95.1573 52.5286C95.4029 52.7207 95.7066 52.8234 96.0183 52.8198C96.4086 52.8198 96.6378 52.6463 96.6378 52.3737C96.6378 52.1012 96.4427 51.937 95.9967 51.937H95.7303V51.5622L96.3962 50.7693H95.0613V50.3047H97.0653V50.6702L96.3498 51.5189C96.4605 51.5189 96.5702 51.5408 96.6724 51.5833C96.7747 51.6259 96.8675 51.6883 96.9455 51.7669C97.0235 51.8455 97.0852 51.9388 97.127 52.0413C97.1689 52.1439 97.19 52.2537 97.1892 52.3644Z" fill="#263238"/>
<path d="M99.6547 52.7825V53.2471H97.4865V52.8816L98.6573 51.7696C98.9423 51.497 98.9918 51.3267 98.9918 51.1501C98.9918 50.8807 98.806 50.7258 98.4467 50.7258C98.3153 50.7192 98.1842 50.7439 98.0641 50.7977C97.9441 50.8515 97.8385 50.933 97.756 51.0355L97.375 50.7413C97.5104 50.5782 97.6819 50.4491 97.8761 50.3641C98.0702 50.2791 98.2815 50.2407 98.4931 50.2519C99.1312 50.2519 99.5432 50.5771 99.5432 51.0975C99.5432 51.3824 99.4626 51.6426 99.0538 52.0267L98.2825 52.7825H99.6547Z" fill="#263238"/>
<path d="M100.688 52.9248C100.681 53.0509 100.649 53.1743 100.592 53.2871L100.378 53.8787H100.037L100.204 53.2376C100.143 53.2134 100.091 53.1703 100.056 53.1146C100.021 53.0589 100.005 52.9935 100.009 52.9278C100.005 52.8806 100.01 52.8329 100.025 52.7878C100.04 52.7428 100.064 52.7014 100.096 52.6662C100.128 52.6311 100.167 52.603 100.211 52.5838C100.254 52.5646 100.301 52.5547 100.349 52.5547C100.396 52.5547 100.443 52.5646 100.486 52.5838C100.53 52.603 100.569 52.6311 100.601 52.6662C100.633 52.7014 100.657 52.7428 100.672 52.7878C100.687 52.8329 100.692 52.8806 100.688 52.9278V52.9248Z" fill="#263238"/>
<path d="M103.301 51.7258C103.301 52.7356 102.716 53.29 101.861 53.29C101.591 53.2999 101.324 53.2344 101.089 53.1011L101.291 52.6891C101.458 52.7905 101.652 52.8401 101.848 52.8316C102.403 52.8316 102.753 52.4878 102.753 51.8187C102.652 51.9242 102.529 52.0065 102.393 52.0599C102.257 52.1134 102.112 52.1368 101.966 52.1285C101.839 52.14 101.711 52.1253 101.59 52.0853C101.47 52.0454 101.358 51.981 101.263 51.8962C101.168 51.8114 101.092 51.7079 101.038 51.5923C100.985 51.4767 100.956 51.3513 100.953 51.2241C100.956 51.0893 100.987 50.9566 101.044 50.8343C101.101 50.712 101.182 50.6027 101.283 50.5132C101.384 50.4237 101.502 50.3559 101.63 50.3141C101.758 50.2722 101.894 50.2573 102.028 50.2701C102.83 50.2577 103.301 50.7749 103.301 51.7258ZM102.681 51.19C102.681 50.9112 102.462 50.6944 102.062 50.6944C101.991 50.6852 101.918 50.6912 101.849 50.712C101.78 50.7328 101.717 50.7678 101.662 50.8149C101.608 50.862 101.564 50.92 101.534 50.9851C101.503 51.0503 101.487 51.1212 101.486 51.1931C101.486 51.5028 101.718 51.6948 102.074 51.6948C102.147 51.7025 102.221 51.6952 102.291 51.6733C102.361 51.6514 102.426 51.6155 102.482 51.5676C102.538 51.5197 102.583 51.461 102.615 51.395C102.647 51.329 102.666 51.2571 102.669 51.1838L102.681 51.19Z" fill="#263238"/>
<path d="M105.937 51.7294C105.937 52.7392 105.348 53.2936 104.493 53.2936C104.224 53.3031 103.957 53.2377 103.722 53.1047L103.924 52.6927C104.091 52.7941 104.285 52.8437 104.481 52.8352C105.036 52.8352 105.386 52.4914 105.386 51.8223C105.285 51.9278 105.162 52.0101 105.026 52.0635C104.89 52.117 104.745 52.1404 104.599 52.1321C104.472 52.1436 104.344 52.1289 104.223 52.0889C104.102 52.049 103.991 51.9846 103.896 51.8998C103.801 51.815 103.724 51.7115 103.671 51.5959C103.618 51.4803 103.589 51.3549 103.586 51.2276C103.586 50.6453 104.063 50.2737 104.664 50.2737C105.466 50.2613 105.937 50.7785 105.937 51.7294ZM105.317 51.1936C105.317 50.9148 105.097 50.698 104.698 50.698C104.627 50.6888 104.554 50.6948 104.485 50.7156C104.416 50.7364 104.353 50.7714 104.298 50.8185C104.244 50.8656 104.2 50.9236 104.17 50.9887C104.139 51.0539 104.123 51.1248 104.122 51.1967C104.122 51.5064 104.354 51.6984 104.71 51.6984C104.783 51.7057 104.857 51.698 104.926 51.6759C104.996 51.6538 105.061 51.6178 105.116 51.57C105.171 51.5222 105.216 51.4636 105.248 51.3978C105.28 51.332 105.298 51.2604 105.302 51.1874L105.317 51.1936Z" fill="#263238"/>
<path d="M93.8174 58.7611V59.2319H93.4736V58.7642C93.1036 58.7553 92.7451 58.6344 92.4453 58.4173L92.6343 57.9929C92.8796 58.1726 93.1704 58.2799 93.4736 58.3027V57.4633C93.009 57.3487 92.5073 57.1969 92.5073 56.6146C92.5073 56.1841 92.817 55.8093 93.4736 55.7473V55.2734H93.8174V55.7504C94.1191 55.7654 94.4125 55.8536 94.6723 56.0075L94.4989 56.4319C94.29 56.3098 94.0579 56.2328 93.8174 56.2057V57.0544C94.2852 57.169 94.7931 57.3146 94.7931 57.9C94.7931 58.3244 94.4772 58.6929 93.8174 58.7611ZM93.4736 56.9615V56.215C93.1639 56.2615 93.0493 56.4133 93.0493 56.596C93.0493 56.7788 93.229 56.8903 93.4736 56.9615ZM94.2542 57.9341C94.2542 57.7266 94.0714 57.6243 93.8174 57.5593V58.3027C94.1241 58.2562 94.2573 58.1137 94.2573 57.9341H94.2542Z" fill="#263238"/>
<path d="M97.4728 57.8152C97.4696 57.95 97.4387 58.0827 97.3819 58.205C97.3252 58.3273 97.2439 58.4366 97.143 58.5261C97.0422 58.6156 96.924 58.6834 96.7958 58.7252C96.6677 58.767 96.5322 58.782 96.398 58.7692C95.5958 58.7692 95.125 58.252 95.125 57.3073C95.125 56.2975 95.7135 55.7431 96.5653 55.7431C96.8359 55.7336 97.1038 55.799 97.3396 55.932L97.1383 56.344C96.9695 56.2425 96.7745 56.1929 96.5777 56.2015C96.0232 56.2015 95.6763 56.5453 95.6763 57.2143C95.7769 57.1093 95.8991 57.0273 96.0343 56.9738C96.1696 56.9204 96.3147 56.8968 96.46 56.9046C96.5873 56.8931 96.7156 56.908 96.8369 56.9483C96.9582 56.9886 97.0699 57.0536 97.165 57.139C97.26 57.2245 97.3365 57.3287 97.3894 57.445C97.4424 57.5614 97.4708 57.6874 97.4728 57.8152ZM96.9432 57.84C96.9432 57.5303 96.714 57.3413 96.3547 57.3413C96.2822 57.3328 96.2088 57.3391 96.1389 57.3601C96.069 57.3811 96.0042 57.4162 95.9485 57.4632C95.8927 57.5103 95.8472 57.5682 95.8148 57.6336C95.7824 57.6989 95.7637 57.7703 95.76 57.8431C95.76 58.1219 95.9768 58.3387 96.3794 58.3387C96.4499 58.3465 96.5212 58.3394 96.5888 58.318C96.6564 58.2966 96.7187 58.2612 96.7718 58.2143C96.8249 58.1673 96.8676 58.1097 96.8971 58.0453C96.9266 57.9808 96.9423 57.9109 96.9432 57.84Z" fill="#263238"/>
<path d="M98.4712 58.411C98.4628 58.5369 98.4302 58.6599 98.3751 58.7734L98.1583 59.365H97.8207L97.988 58.7208C97.9262 58.6971 97.8736 58.6542 97.8379 58.5985C97.8022 58.5428 97.7854 58.4771 97.7897 58.411C97.7897 58.3663 97.7986 58.322 97.8157 58.2806C97.8328 58.2393 97.8579 58.2017 97.8895 58.1701C97.9212 58.1385 97.9587 58.1134 98.0001 58.0963C98.0414 58.0791 98.0857 58.0703 98.1305 58.0703C98.1752 58.0703 98.2195 58.0791 98.2608 58.0963C98.3022 58.1134 98.3397 58.1385 98.3714 58.1701C98.403 58.2017 98.4281 58.2393 98.4452 58.2806C98.4624 58.322 98.4712 58.3663 98.4712 58.411Z" fill="#263238"/>
<path d="M100.963 57.8271C100.963 58.3413 100.588 58.7718 99.798 58.7718C99.4033 58.7801 99.0165 58.6606 98.6953 58.4311L98.9245 58.0068C99.1725 58.1989 99.4781 58.3015 99.7918 58.2979C100.182 58.2979 100.411 58.1245 100.411 57.8457C100.411 57.567 100.232 57.3873 99.6214 57.3873H98.9028L99.0546 55.7891H100.78V56.2475H99.5223L99.4604 56.9258H99.7422C100.616 56.9258 100.963 57.3006 100.963 57.8271Z" fill="#263238"/>
<path d="M101.281 57.2615C101.281 56.2951 101.808 55.75 102.52 55.75C103.233 55.75 103.759 56.2951 103.759 57.2615C103.759 58.2279 103.23 58.7761 102.52 58.7761C101.811 58.7761 101.281 58.2341 101.281 57.2615ZM103.186 57.2615C103.186 56.5522 102.91 56.2239 102.508 56.2239C102.105 56.2239 101.829 56.5522 101.829 57.2615C101.829 57.9708 102.108 58.3022 102.508 58.3022C102.907 58.3022 103.186 57.9739 103.186 57.2615Z" fill="#263238"/>
<path d="M93.594 69.6939V70.1647H93.2471V69.6939C92.8771 69.685 92.5185 69.5641 92.2188 69.347L92.4077 68.9226C92.653 69.1023 92.9438 69.2096 93.2471 69.2324V68.3899C92.7825 68.2784 92.2807 68.1266 92.2807 67.5412C92.2807 67.1137 92.5904 66.739 93.2471 66.677V66.2031H93.594V66.6677C93.8947 66.6823 94.1872 66.7706 94.4458 66.9248L94.2723 67.3491C94.0643 67.2276 93.8333 67.1506 93.594 67.123V67.9717C94.0586 68.0832 94.5666 68.2319 94.5666 68.8142C94.5666 69.2447 94.2568 69.6133 93.594 69.6939ZM93.2471 67.8943V67.1478C92.9373 67.1943 92.8227 67.3461 92.8227 67.5288C92.8227 67.7115 93.0179 67.8107 93.2471 67.8819V67.8943ZM94.0307 68.8669C94.0307 68.6593 93.8449 68.5571 93.594 68.4921V69.2355C93.9006 69.1766 94.0307 69.0341 94.0307 68.8545V68.8669Z" fill="#263238"/>
<path d="M96.9657 68.7598C96.9657 69.2554 96.5909 69.689 95.8011 69.689C95.4056 69.696 95.0183 69.5766 94.6953 69.3483L94.9307 68.9239C95.1767 69.1149 95.4804 69.2165 95.7918 69.212C96.182 69.212 96.4113 69.0416 96.4113 68.766C96.4113 68.4903 96.2161 68.3292 95.7732 68.3292H95.4944V67.9576L96.1604 67.1615H94.8254V66.7031H96.8294V67.0686L96.117 67.9173C96.6838 67.9885 96.9657 68.32 96.9657 68.7598Z" fill="#263238"/>
<path d="M99.6712 68.7373C99.6685 68.8726 99.6377 69.0059 99.581 69.1288C99.5242 69.2517 99.4427 69.3615 99.3415 69.4514C99.2403 69.5413 99.1215 69.6093 98.9928 69.6511C98.8641 69.6929 98.728 69.7076 98.5933 69.6943C97.7911 69.6943 97.3203 69.1771 97.3203 68.2293C97.3203 67.2226 97.9088 66.6806 98.7606 66.6806C99.0312 66.6711 99.2991 66.7365 99.5349 66.8695L99.3305 67.2815C99.1628 67.1801 98.9688 67.1305 98.773 67.139C98.2185 67.139 97.8685 67.4828 97.8685 68.1518C97.9695 68.0464 98.0921 67.9641 98.2279 67.9107C98.3637 67.8572 98.5096 67.8338 98.6553 67.8421C98.7816 67.8302 98.909 67.8443 99.0296 67.8835C99.1503 67.9227 99.2616 67.9862 99.3568 68.07C99.452 68.1539 99.529 68.2563 99.583 68.3711C99.6371 68.4859 99.6671 68.6105 99.6712 68.7373ZM99.1416 68.762C99.1416 68.4523 98.9093 68.2603 98.5531 68.2603C98.4803 68.2521 98.4066 68.2589 98.3366 68.2802C98.2665 68.3015 98.2015 68.3369 98.1456 68.3841C98.0897 68.4314 98.0439 68.4895 98.0112 68.555C97.9785 68.6205 97.9594 68.692 97.9553 68.7651C97.9553 69.0439 98.1752 69.2607 98.5747 69.2607C98.6451 69.2685 98.7163 69.2615 98.7838 69.2403C98.8514 69.2191 98.9138 69.184 98.967 69.1375C99.0203 69.0909 99.0634 69.0337 99.0934 68.9696C99.1234 68.9055 99.1398 68.8359 99.1416 68.7651V68.762Z" fill="#263238"/>
<path d="M102.049 68.7598C102.049 69.2554 101.674 69.689 100.884 69.689C100.49 69.6953 100.103 69.576 99.7812 69.3483L100.017 68.9239C100.262 69.1158 100.566 69.2175 100.878 69.212C101.268 69.212 101.497 69.0416 101.497 68.766C101.497 68.4903 101.305 68.3292 100.859 68.3292H100.59V67.9576L101.259 67.1615H99.9237V66.7031H101.928V67.0686L101.212 67.9173C101.767 67.9885 102.049 68.32 102.049 68.7598Z" fill="#263238"/>
<path d="M103.073 69.3251C103.064 69.4509 103.032 69.574 102.977 69.6875L102.763 70.2791H102.422L102.59 69.6348C102.528 69.6111 102.475 69.5683 102.439 69.5126C102.404 69.4568 102.387 69.3911 102.391 69.3251C102.391 69.2347 102.427 69.1481 102.491 69.0842C102.555 69.0203 102.642 68.9844 102.732 68.9844C102.822 68.9844 102.909 69.0203 102.973 69.0842C103.037 69.1481 103.073 69.2347 103.073 69.3251Z" fill="#263238"/>
<path d="M105.692 68.1247C105.692 69.1313 105.103 69.6888 104.251 69.6888C103.981 69.6967 103.713 69.6315 103.477 69.4999L103.678 69.0879C103.847 69.1894 104.042 69.239 104.239 69.2304C104.793 69.2304 105.143 68.8835 105.143 68.2176C105.043 68.3235 104.92 68.4061 104.784 68.4597C104.648 68.5132 104.502 68.5363 104.357 68.5273C104.23 68.5388 104.102 68.5242 103.982 68.4844C103.861 68.4447 103.75 68.3805 103.655 68.2961C103.56 68.2116 103.483 68.1085 103.43 67.9933C103.376 67.878 103.347 67.753 103.344 67.626C103.344 67.0406 103.818 66.672 104.419 66.672C105.221 66.6627 105.692 67.18 105.692 68.1247ZM105.057 67.5857C105.057 67.3101 104.84 67.0901 104.437 67.0901C104.366 67.081 104.293 67.087 104.224 67.108C104.155 67.1289 104.091 67.1643 104.036 67.2117C103.982 67.2591 103.938 67.3175 103.908 67.383C103.878 67.4485 103.862 67.5197 103.861 67.5919C103.861 67.9017 104.09 68.0906 104.45 68.0906C104.523 68.101 104.598 68.0959 104.67 68.0756C104.741 68.0553 104.808 68.0203 104.865 67.9727C104.922 67.9252 104.969 67.8662 105.002 67.7995C105.035 67.7329 105.053 67.66 105.057 67.5857Z" fill="#263238"/>
<path d="M108.324 68.1247C108.324 69.1313 107.739 69.6888 106.884 69.6888C106.615 69.6973 106.348 69.6319 106.113 69.4999L106.314 69.0879C106.482 69.1894 106.676 69.2389 106.872 69.2304C107.426 69.2304 107.776 68.8835 107.776 68.2176C107.676 68.3235 107.553 68.4061 107.417 68.4597C107.281 68.5132 107.135 68.5363 106.989 68.5273C106.863 68.5388 106.735 68.5242 106.615 68.4844C106.494 68.4447 106.383 68.3805 106.288 68.2961C106.193 68.2116 106.116 68.1085 106.063 67.9933C106.009 67.878 105.98 67.753 105.977 67.626C105.977 67.0406 106.45 66.672 107.051 66.672C107.854 66.6627 108.324 67.18 108.324 68.1247ZM107.705 67.5857C107.705 67.3101 107.485 67.0901 107.085 67.0901C107.014 67.081 106.941 67.087 106.872 67.108C106.803 67.1289 106.739 67.1643 106.685 67.2117C106.63 67.2591 106.587 67.3175 106.556 67.383C106.526 67.4485 106.51 67.5197 106.509 67.5919C106.509 67.9017 106.742 68.0906 107.098 68.0906C107.17 68.0987 107.244 68.0919 107.314 68.0706C107.384 68.0492 107.448 68.0139 107.504 67.9666C107.56 67.9193 107.605 67.8611 107.638 67.7956C107.67 67.7301 107.689 67.6587 107.693 67.5857H107.705Z" fill="#263238"/>
<path d="M93.594 75.2407V75.7115H93.2471V75.2438C92.8767 75.2341 92.5181 75.112 92.2188 74.8938L92.4077 74.4695C92.6524 74.6504 92.9435 74.7578 93.2471 74.7792V73.9367C92.7825 73.8252 92.2807 73.6735 92.2807 73.0881C92.2807 72.6606 92.5904 72.2858 93.2471 72.2239V71.75H93.594V72.2146C93.8952 72.2262 94.1884 72.3147 94.4458 72.4717L94.2723 72.896C94.0643 72.7744 93.8333 72.6974 93.594 72.6699V73.5186C94.0586 73.6301 94.5666 73.7788 94.5666 74.3611C94.5666 74.804 94.2568 75.1726 93.594 75.2407ZM93.2471 73.4412V72.6947C92.9373 72.7412 92.8227 72.8898 92.8227 73.0757C92.8227 73.2615 93.0179 73.3699 93.2471 73.4412ZM94.0307 74.4106C94.0307 74.2062 93.8449 74.1009 93.594 74.039V74.7823C93.9006 74.7359 94.0307 74.5934 94.0307 74.4106Z" fill="#263238"/>
<path d="M97.5669 74.5391H97.0496V75.2081H96.52V74.5391H94.9062V74.1612L96.3558 72.2656H96.9412L95.5753 74.0776H96.5355V73.486H97.0496V74.0776H97.57L97.5669 74.5391Z" fill="#263238"/>
<path d="M97.7891 73.7303C97.7891 72.7639 98.3187 72.2188 99.028 72.2188C99.7373 72.2188 100.267 72.7639 100.267 73.7303C100.267 74.6966 99.7373 75.2418 99.028 75.2418C98.3187 75.2418 97.7891 74.6966 97.7891 73.7303ZM99.697 73.7303C99.697 73.021 99.4214 72.6926 99.0187 72.6926C98.6161 72.6926 98.3404 73.021 98.3404 73.7303C98.3404 74.4396 98.6192 74.7679 99.0187 74.7679C99.4183 74.7679 99.697 74.4396 99.697 73.7303Z" fill="#263238"/>
<path d="M100.617 73.7303C100.617 72.7639 101.147 72.2188 101.856 72.2188C102.565 72.2188 103.095 72.7639 103.095 73.7303C103.095 74.6966 102.565 75.2418 101.856 75.2418C101.147 75.2418 100.617 74.6966 100.617 73.7303ZM102.525 73.7303C102.525 73.021 102.246 72.6926 101.844 72.6926C101.441 72.6926 101.169 73.021 101.169 73.7303C101.169 74.4396 101.444 74.7679 101.844 74.7679C102.243 74.7679 102.525 74.4396 102.525 73.7303Z" fill="#263238"/>
<path d="M104.073 74.8876C104.064 75.0128 104.031 75.135 103.974 75.2469L103.76 75.8416H103.419L103.587 75.1973C103.525 75.1731 103.473 75.1301 103.438 75.0744C103.403 75.0187 103.387 74.9532 103.391 74.8876C103.391 74.7972 103.427 74.7106 103.491 74.6467C103.555 74.5828 103.642 74.5469 103.732 74.5469C103.822 74.5469 103.909 74.5828 103.973 74.6467C104.037 74.7106 104.073 74.7972 104.073 74.8876Z" fill="#263238"/>
<path d="M104.375 73.7303C104.375 72.7639 104.905 72.2188 105.614 72.2188C106.323 72.2188 106.853 72.7639 106.853 73.7303C106.853 74.6966 106.323 75.2418 105.614 75.2418C104.905 75.2418 104.375 74.6966 104.375 73.7303ZM106.283 73.7303C106.283 73.021 106.004 72.6926 105.602 72.6926C105.199 72.6926 104.926 73.021 104.926 73.7303C104.926 74.4396 105.202 74.7679 105.602 74.7679C106.001 74.7679 106.283 74.4396 106.283 73.7303Z" fill="#263238"/>
<path d="M107.195 73.7303C107.195 72.7639 107.725 72.2188 108.434 72.2188C109.144 72.2188 109.673 72.7639 109.673 73.7303C109.673 74.6966 109.144 75.2418 108.434 75.2418C107.725 75.2418 107.195 74.6966 107.195 73.7303ZM109.103 73.7303C109.103 73.021 108.825 72.6926 108.422 72.6926C108.019 72.6926 107.744 73.021 107.744 73.7303C107.744 74.4396 108.022 74.7679 108.422 74.7679C108.821 74.7679 109.103 74.4396 109.103 73.7303Z" fill="#263238"/>
<path d="M93.594 80.7251V81.1928H93.2471V80.7282C92.8767 80.7185 92.5181 80.5964 92.2188 80.3782L92.4077 79.9539C92.6516 80.1362 92.9432 80.2438 93.2471 80.2636V79.4242C92.7825 79.3127 92.2807 79.1609 92.2807 78.5755C92.2807 78.1481 92.5904 77.7733 93.2471 77.7114V77.2344H93.594V77.7021C93.8952 77.7137 94.1884 77.8022 94.4458 77.9592L94.2723 78.3835C94.0638 78.2624 93.8332 78.1845 93.594 78.1543V79.003C94.0586 79.1176 94.5666 79.2663 94.5666 79.8486C94.5666 80.2853 94.2568 80.657 93.594 80.7251ZM93.2471 78.9255V78.176C92.9373 78.2224 92.8227 78.3742 92.8227 78.5601C92.8227 78.7459 93.0179 78.8543 93.2471 78.9255ZM94.0307 79.895C94.0307 79.6906 93.8449 79.5853 93.594 79.5233V80.2667C93.9006 80.2202 94.0307 80.0778 94.0307 79.9105V79.895Z" fill="#263238"/>
<path d="M96.9657 79.8081C96.9657 80.3037 96.5909 80.7374 95.8011 80.7374C95.4054 80.7461 95.0175 80.6266 94.6953 80.3966L94.9307 79.9723C95.1763 80.1644 95.48 80.2671 95.7918 80.2635C96.182 80.2635 96.4113 80.09 96.4113 79.8174C96.4113 79.5449 96.2161 79.3807 95.7732 79.3807H95.4944V79.0059L96.1604 78.213H94.8254V77.7422H96.8294V78.1077L96.117 78.9564C96.2291 78.9551 96.3402 78.9763 96.444 79.0187C96.5477 79.0611 96.6419 79.1239 96.721 79.2032C96.8001 79.2826 96.8625 79.377 96.9045 79.4809C96.9466 79.5848 96.9673 79.6961 96.9657 79.8081Z" fill="#263238"/>
<path d="M99.6759 79.7763C99.6759 80.3617 99.202 80.7303 98.6012 80.7303C97.7989 80.7303 97.3281 80.213 97.3281 79.2683C97.3281 78.2617 97.9166 77.7197 98.7684 77.7197C99.039 77.7102 99.3069 77.7756 99.5427 77.9086L99.3383 78.3205C99.1709 78.218 98.9769 78.1674 98.7808 78.175C98.2264 78.175 97.8764 78.5219 97.8764 79.1878C97.9769 79.0819 98.0995 78.9993 98.2354 78.9457C98.3713 78.8922 98.5173 78.8691 98.6631 78.8781C98.7894 78.8666 98.9167 78.8811 99.0372 78.9207C99.1577 78.9603 99.2688 79.0241 99.3637 79.1083C99.4585 79.1924 99.5352 79.2951 99.5889 79.41C99.6426 79.5249 99.6722 79.6495 99.6759 79.7763ZM99.1463 79.8011C99.1463 79.4914 98.914 79.3024 98.5578 79.3024C98.4849 79.2938 98.4111 79.3003 98.3409 79.3214C98.2706 79.3426 98.2054 79.3779 98.1494 79.4252C98.0934 79.4725 98.0476 79.5309 98.015 79.5966C97.9825 79.6623 97.9637 79.734 97.96 79.8073C97.96 80.083 98.1799 80.3029 98.5795 80.3029C98.6503 80.3106 98.7221 80.3035 98.79 80.2819C98.858 80.2603 98.9206 80.2248 98.974 80.1775C99.0274 80.1303 99.0703 80.0724 99.1 80.0075C99.1296 79.9427 99.1454 79.8724 99.1463 79.8011Z" fill="#263238"/>
<path d="M100.674 80.372C100.666 80.4972 100.632 80.6194 100.575 80.7313L100.361 81.3229H100.021L100.191 80.6817C100.129 80.658 100.077 80.6152 100.041 80.5594C100.005 80.5037 99.9885 80.438 99.9929 80.372C99.9929 80.2816 100.029 80.1949 100.093 80.131C100.157 80.0671 100.243 80.0313 100.334 80.0312C100.424 80.0313 100.511 80.0671 100.574 80.131C100.638 80.1949 100.674 80.2816 100.674 80.372Z" fill="#263238"/>
<path d="M100.977 79.2224C100.977 78.2561 101.506 77.7109 102.216 77.7109C102.925 77.7109 103.454 78.2561 103.454 79.2224C103.454 80.1888 102.925 80.734 102.216 80.734C101.506 80.734 100.977 80.1888 100.977 79.2224ZM102.885 79.2224C102.885 78.5132 102.606 78.1848 102.203 78.1848C101.8 78.1848 101.528 78.5132 101.528 79.2224C101.528 79.9317 101.804 80.2601 102.203 80.2601C102.603 80.2601 102.885 79.9317 102.885 79.2224Z" fill="#263238"/>
<path d="M104.79 77.7422V80.6847H104.244V78.2068H103.625V77.7422H104.79Z" fill="#263238"/>
<path d="M72.2238 39.4321C72.2238 39.4786 68.7827 39.5126 64.5392 39.5126C60.2958 39.5126 56.8516 39.4786 56.8516 39.4321C56.8516 39.3856 60.2927 39.3516 64.5392 39.3516C68.7858 39.3516 72.2238 39.3887 72.2238 39.4321Z" fill="#263238"/>
<path d="M81.8902 45.8774C81.8902 45.9208 76.3861 45.9579 69.6029 45.9579C62.8196 45.9579 57.3125 45.9208 57.3125 45.8774C57.3125 45.834 62.8134 45.7969 69.6029 45.7969C76.3923 45.7969 81.8902 45.8433 81.8902 45.8774Z" fill="#263238"/>
<path d="M73.0534 52.3149C73.0534 52.3583 69.5286 52.3954 65.1829 52.3954C60.8373 52.3954 57.3125 52.3583 57.3125 52.3149C57.3125 52.2715 60.8342 52.2344 65.1829 52.2344C69.5317 52.2344 73.0534 52.2715 73.0534 52.3149Z" fill="#263238"/>
<path d="M71.4027 59.1274C71.4027 59.1708 68.7234 59.2079 65.4185 59.2079C62.1136 59.2079 59.4375 59.1708 59.4375 59.1274C59.4375 59.084 62.1136 59.0469 65.4185 59.0469C68.7234 59.0469 71.4027 59.084 71.4027 59.1274Z" fill="#263238"/>
</svg>
