<svg width="164" height="130" viewBox="0 0 164 130" fill="none" xmlns="http://www.w3.org/2000/svg">
<path d="M23.885 117.52C55.7316 134.157 107.368 134.157 139.215 117.52C171.062 100.883 171.062 73.9088 139.215 57.2682C107.368 40.6275 55.7461 40.6312 23.885 57.2682C-7.97622 73.9052 -7.94708 100.883 23.885 117.52Z" fill="#F5F5F5"/>
<path d="M15.0084 90.2423L4.65625 84.267V62.0625L15.0084 68.0415V90.2423Z" fill="#E0E0E0"/>
<path d="M15.0078 68.0388L29.7987 59.5V81.7009L15.0078 90.2397V68.0388Z" fill="#EBEBEB"/>
<path d="M29.7993 59.5024L15.0084 68.0412L4.65625 62.0622L19.4471 53.5234L29.7993 59.5024Z" fill="#F5F5F5"/>
<path d="M16.488 68.8935L28.3185 62.0625L28.5916 62.2191V70.4447L16.7575 77.2758L16.4844 77.1192L16.488 68.8935Z" fill="#E0E0E0"/>
<path d="M16.7578 69.0534L28.592 62.2188V70.4444L16.7578 77.2754V69.0534Z" fill="#F5F5F5"/>
<path d="M21.3952 67.7664L23.4089 66.6048C23.6674 66.4519 23.8786 66.521 23.8786 66.7577C23.8598 66.9027 23.8076 67.0413 23.7261 67.1626C23.6446 67.284 23.536 67.3847 23.4089 67.4569L21.3952 68.6184C21.1331 68.7714 20.9219 68.7022 20.9219 68.4655C20.9408 68.3201 20.9934 68.1811 21.0756 68.0597C21.1578 67.9384 21.2673 67.8379 21.3952 67.7664Z" fill="#E0E0E0"/>
<path d="M16.2188 79.2998L28.0493 72.4688V80.6944L28.3224 80.851L16.4882 87.682L16.2188 87.5254V79.2998Z" fill="#E0E0E0"/>
<path d="M16.4844 79.456L28.3185 72.625V80.8506L16.4844 87.6817V79.456Z" fill="#F5F5F5"/>
<path d="M21.127 78.1768L23.1589 77.0189C23.421 76.8659 23.6322 76.9351 23.6322 77.1718C23.6134 77.3172 23.5607 77.4561 23.4785 77.5775C23.3963 77.6989 23.2868 77.7994 23.1589 77.8709L21.1452 79.0325C20.8831 79.1854 20.6719 79.1162 20.6719 78.8795C20.6882 78.7352 20.7379 78.5966 20.8168 78.4747C20.8958 78.3527 21.002 78.2507 21.127 78.1768Z" fill="#E0E0E0"/>
<path d="M15.0084 66.758L4.65625 60.779V38.5781L15.0084 44.5535V66.758Z" fill="#E0E0E0"/>
<path d="M15.0078 44.5544L29.7987 36.0156V58.2201L15.0078 66.7589V44.5544Z" fill="#EBEBEB"/>
<path d="M29.7993 36.0144L15.0084 44.5532L4.65625 38.5779L19.4471 30.0391L29.7993 36.0144Z" fill="#F5F5F5"/>
<path d="M16.4844 45.4092L28.3185 38.5781L28.5916 38.7347V46.9603L16.7575 53.7914L16.4844 53.6312V45.4092Z" fill="#E0E0E0"/>
<path d="M21.3952 44.2793L23.4052 43.1177C23.6674 42.9684 23.8786 43.0376 23.8786 43.2743C23.8592 43.4195 23.8063 43.5583 23.7242 43.6796C23.642 43.8009 23.5328 43.9015 23.4052 43.9734L21.3952 45.135C21.1331 45.2843 20.9219 45.2188 20.9219 44.9821C20.941 44.8363 20.9938 44.697 21.0759 44.575C21.158 44.4531 21.2674 44.3519 21.3952 44.2793Z" fill="#E0E0E0"/>
<path d="M16.2188 55.8154L28.0493 48.9844V57.2064L28.3224 57.363L16.4882 64.194L16.2188 64.0374V55.8154Z" fill="#E0E0E0"/>
<path d="M16.4844 55.9717L28.3185 49.1406V57.3626L16.4844 64.1937V55.9717Z" fill="#F5F5F5"/>
<path d="M21.1296 54.6856L23.1614 53.524C23.42 53.3747 23.6348 53.4439 23.6348 53.6806C23.6143 53.8254 23.561 53.9637 23.479 54.0849C23.397 54.206 23.2884 54.3069 23.1614 54.3797L21.1296 55.5303C20.8674 55.6796 20.6562 55.6104 20.6562 55.3774C20.677 55.2336 20.7305 55.0964 20.8125 54.9765C20.8946 54.8565 21.0031 54.757 21.1296 54.6856Z" fill="#E0E0E0"/>
<path d="M16.4844 45.4092L28.3185 38.5781V46.8001L16.4844 53.6312V45.4092Z" fill="#E0E0E0"/>
<path d="M34.2356 42.638L27.7578 38.8984V46.1446L34.2356 49.8805V42.638Z" fill="#E0E0E0"/>
<path d="M20.9219 54.8032V44.553L23.4598 43.0819L23.8786 43.7009L31.274 39.4297V48.8242L20.9219 54.8032Z" fill="#EBEBEB"/>
<path d="M20.9219 54.8032L21.6611 45.8347L32.0132 39.8594L31.274 48.8242L20.9219 54.8032Z" fill="#F5F5F5"/>
<path d="M22.4018 49.4699L16.7578 46.2109V53.4571L22.4018 56.7124V49.4699Z" fill="#EBEBEB"/>
<path d="M22.4062 48.8232L34.2404 41.9922V50.2142L22.4062 57.0452V48.8232Z" fill="#F5F5F5"/>
<path d="M27.0437 47.5371L29.0537 46.3756C29.3158 46.2263 29.527 46.2954 29.527 46.5321C29.5073 46.6773 29.4544 46.8159 29.3722 46.9371C29.2901 47.0584 29.1811 47.1591 29.0537 47.2313L27.0437 48.3928C26.7815 48.5421 26.5703 48.4729 26.5703 48.2399C26.5895 48.0941 26.6422 47.9548 26.7243 47.8328C26.8065 47.7109 26.9158 47.6097 27.0437 47.5371Z" fill="#E0E0E0"/>
<path d="M22.4011 48.8273L22.0078 48.6016V56.8236L22.4011 57.0493V48.8273Z" fill="#E0E0E0"/>
<path d="M22.0078 48.6003L33.8383 41.7656L34.2352 41.995L22.4011 48.8261L22.0078 48.6003Z" fill="#EBEBEB"/>
<path d="M137.309 76.7892L126.953 70.8102V48.6094L137.309 54.5847V76.7892Z" fill="#E0E0E0"/>
<path d="M137.312 54.5857L152.103 46.0469V68.2514L137.312 76.7902V54.5857Z" fill="#EBEBEB"/>
<path d="M152.1 46.0493L137.309 54.5881L126.953 48.6128L141.748 40.0703L152.1 46.0493Z" fill="#F5F5F5"/>
<path d="M138.789 55.4404L150.623 48.6094L150.896 48.7659L150.893 56.988L139.062 63.819L138.789 63.6624V55.4404Z" fill="#E0E0E0"/>
<path d="M139.062 55.5967L150.897 48.7656L150.893 56.9876L139.062 63.8187V55.5967Z" fill="#F5F5F5"/>
<path d="M143.7 54.3107L145.71 53.1492C145.972 52.9999 146.183 53.069 146.183 53.3021C146.164 53.4479 146.111 53.5872 146.029 53.7091C145.947 53.8311 145.838 53.9323 145.71 54.0049L143.7 55.1664C143.438 55.3157 143.227 55.2465 143.227 55.0135C143.246 54.8677 143.298 54.7284 143.381 54.6064C143.463 54.4845 143.572 54.3833 143.7 54.3107Z" fill="#E0E0E0"/>
<path d="M138.516 65.8503L150.35 59.0156V67.2413L150.623 67.3978L138.789 74.2289L138.516 74.0723V65.8503Z" fill="#E0E0E0"/>
<path d="M138.789 66.0029L150.623 59.1719V67.3939L138.789 74.2249V66.0029Z" fill="#F5F5F5"/>
<path d="M143.426 64.717L145.44 63.5554C145.699 63.4061 145.91 63.4753 145.91 63.7083C145.891 63.8536 145.838 63.9925 145.757 64.1144C145.675 64.2362 145.567 64.3377 145.44 64.4111L143.426 65.5727C143.164 65.722 142.953 65.6528 142.953 65.4161C142.973 65.271 143.026 65.1324 143.108 65.0111C143.19 64.8898 143.299 64.7892 143.426 64.717Z" fill="#E0E0E0"/>
<path d="M38.8147 99.9875C38.8147 99.9875 38.8548 94.2125 35.2135 89.883C31.991 86.0487 30.2759 83.6164 31.2919 82.4949C32.3078 81.3733 34.4925 81.1039 37.4383 84.2062C40.3841 87.3086 40.6135 95.902 40.2057 97.8465L38.8147 99.9875Z" fill="#BA68C8"/>
<path opacity="0.2" d="M38.8147 99.9875C38.8147 99.9875 38.8548 94.2125 35.2135 89.883C31.991 86.0487 30.2759 83.6164 31.2919 82.4949C32.3078 81.3733 34.4925 81.1039 37.4383 84.2062C40.3841 87.3086 40.6135 95.902 40.2057 97.8465L38.8147 99.9875Z" fill="black"/>
<path d="M39.4212 93.7835C39.3797 93.7837 39.3394 93.7697 39.307 93.7439C39.2745 93.7181 39.2519 93.682 39.2427 93.6415C37.9683 87.6807 34.6984 84.3854 32.8596 82.9507C32.8215 82.9212 32.7967 82.8778 32.7905 82.83C32.7844 82.7823 32.7974 82.734 32.8268 82.6958C32.857 82.6575 32.901 82.6326 32.9494 82.6265C32.9977 82.6203 33.0466 82.6335 33.0853 82.663C34.9606 84.1196 38.2996 87.4914 39.5996 93.565C39.6049 93.5882 39.6056 93.6123 39.6015 93.6357C39.5974 93.6592 39.5886 93.6816 39.5757 93.7016C39.5628 93.7217 39.546 93.7389 39.5264 93.7523C39.5067 93.7658 39.4846 93.7751 39.4612 93.7799L39.4212 93.7835Z" fill="white"/>
<path d="M38.6751 102.138L37.1931 102.994C37.035 102.562 36.7684 102.178 36.4189 101.879C36.0694 101.58 35.6488 101.376 35.1976 101.286C33.5773 100.922 31.895 100.984 30.7589 99.5783C29.6228 98.1728 31.0065 96.6435 30.7589 95.6093C30.5113 94.5752 30.3511 94.2766 28.3193 93.2425C26.2874 92.2084 25.4864 90.4933 27.0157 89.3318C28.545 88.1702 31.0211 89.0223 32.5213 90.06C33.854 90.9703 35.1212 91.2107 36.6104 91.3964C38.0997 91.5821 40.5248 92.4086 40.1534 95.8679C39.9102 98.009 39.414 100.114 38.6751 102.138Z" fill="#BA68C8"/>
<path d="M32.9872 97.5913C32.9484 97.5909 32.9107 97.5785 32.8793 97.5556C32.848 97.5327 32.8246 97.5007 32.8124 97.4638C32.7986 97.4175 32.8034 97.3676 32.8259 97.3247C32.8483 97.2819 32.8866 97.2495 32.9326 97.2344C33.0636 97.1944 36.2097 96.1967 37.5461 97.2672C37.5792 97.2985 37.5994 97.3411 37.6027 97.3866C37.6059 97.4321 37.592 97.4772 37.5636 97.5129C37.5352 97.5486 37.4945 97.5723 37.4494 97.5794C37.4044 97.5865 37.3583 97.5765 37.3203 97.5512C36.1405 96.6045 33.0746 97.5731 33.0418 97.584L32.9872 97.5913Z" fill="white"/>
<path d="M38.8359 101.855C38.7916 101.856 38.7487 101.839 38.7157 101.81C38.6828 101.78 38.662 101.739 38.6575 101.695C37.8455 94.0266 28.6075 90.389 28.5165 90.3526C28.4939 90.3441 28.4733 90.3312 28.4557 90.3147C28.4382 90.2982 28.4241 90.2783 28.4142 90.2563C28.4044 90.2343 28.3991 90.2105 28.3985 90.1864C28.3979 90.1623 28.4021 90.1383 28.4109 90.1159C28.4288 90.0718 28.463 90.0362 28.5063 90.0166C28.5497 89.9969 28.599 89.9947 28.644 90.0103C28.7423 90.0503 38.1841 93.7644 39.018 101.662C39.0231 101.71 39.0091 101.758 38.9791 101.796C38.9491 101.833 38.9055 101.857 38.8577 101.863L38.8359 101.855Z" fill="white"/>
<path d="M129.405 97.0989C129.445 96.9714 131.007 88.9315 129.405 83.2292C127.948 78.0004 126.048 76.0705 123.339 75.6445C120.629 75.2184 119.453 77.1702 120.892 79.8137C122.33 82.4573 125.793 85.9638 126.641 91.87C127.005 94.3024 127.282 96.4143 127.282 96.4143L129.405 97.0989Z" fill="#BA68C8"/>
<path opacity="0.2" d="M129.405 97.0989C129.445 96.9714 131.007 88.9315 129.405 83.2292C127.948 78.0004 126.048 76.0705 123.339 75.6445C120.629 75.2184 119.453 77.1702 120.892 79.8137C122.33 82.4573 125.793 85.9638 126.641 91.87C127.005 94.3024 127.282 96.4143 127.282 96.4143L129.405 97.0989Z" fill="black"/>
<path d="M128.491 92.4816C128.467 92.4802 128.443 92.4741 128.422 92.4636C128.4 92.4531 128.381 92.4385 128.365 92.4206C128.349 92.4027 128.337 92.3818 128.329 92.3591C128.321 92.3365 128.318 92.3125 128.319 92.2886C128.684 85.778 126.557 79.9665 122.745 77.1154C122.706 77.0864 122.681 77.0433 122.674 76.9955C122.667 76.9477 122.679 76.8991 122.708 76.8605C122.738 76.8226 122.781 76.7977 122.828 76.7909C122.876 76.7841 122.924 76.796 122.963 76.8241C126.87 79.7371 129.062 85.6797 128.68 92.3104C128.677 92.3581 128.656 92.4027 128.62 92.4347C128.585 92.4667 128.538 92.4835 128.491 92.4816Z" fill="white"/>
<path d="M133.599 101.29C133.391 99.7932 134.251 97.5501 136.294 97.0185C138.336 96.4869 139.247 95.3144 138.511 94.0327C137.776 92.7509 137.947 91.5748 139.8 91.0432C141.654 90.5115 143.278 89.5867 142.211 87.6277C141.435 86.2112 141.264 85.2936 143.165 82.5044C144.741 80.1885 143.452 78.8303 141.479 79.0852C139.505 79.3401 138.285 81.6924 137.051 82.0856C135.817 82.4789 135.533 80.3815 133.905 81.321C132.277 82.2604 132.376 84.6673 132.325 86.3459C132.274 88.0246 132.164 88.4033 130.693 88.1993C129.222 87.9954 127.78 88.2358 127.813 91.7933C127.839 94.8447 129.466 98.6243 129.466 98.6243L133.599 101.29Z" fill="#BA68C8"/>
<path d="M131.019 99.01H131.001C130.952 99.0045 130.908 98.98 130.877 98.9418C130.846 98.9036 130.832 98.8548 130.837 98.8061C131.864 89.6337 139.736 81.896 141.79 80.3266C141.829 80.2971 141.877 80.2842 141.925 80.2907C141.974 80.2972 142.017 80.3225 142.047 80.3612C142.076 80.3998 142.089 80.4485 142.082 80.4967C142.076 80.5448 142.051 80.5884 142.012 80.6179C139.984 82.1654 132.213 89.8012 131.201 98.8461C131.196 98.8909 131.174 98.9322 131.141 98.9623C131.107 98.9925 131.064 99.0094 131.019 99.01Z" fill="white"/>
<path d="M134.611 89.2041C134.574 89.2039 134.538 89.1927 134.508 89.1719C134.477 89.1512 134.453 89.1218 134.44 89.0876C134.424 89.0417 134.427 88.9915 134.447 88.9475C134.467 88.9035 134.504 88.8689 134.549 88.8509C137.484 87.7586 140.812 88.2756 140.954 88.2975C141.001 88.3055 141.043 88.3318 141.071 88.3706C141.099 88.4095 141.111 88.4577 141.103 88.505C141.094 88.552 141.068 88.5939 141.03 88.6223C140.991 88.6506 140.943 88.6634 140.896 88.6579C140.863 88.6579 137.52 88.1336 134.676 89.1932C134.655 89.2004 134.633 89.204 134.611 89.2041Z" fill="white"/>
<path d="M131.997 94.7179C131.972 94.7176 131.947 94.712 131.923 94.7013C131.9 94.6906 131.879 94.6752 131.863 94.656C130.642 93.2346 129.815 91.5186 129.463 89.6784C129.459 89.6547 129.46 89.6306 129.466 89.6073C129.472 89.5841 129.482 89.5622 129.496 89.5429C129.511 89.5236 129.529 89.5073 129.549 89.495C129.57 89.4826 129.592 89.4744 129.616 89.4708C129.64 89.4672 129.664 89.4683 129.687 89.474C129.71 89.4798 129.732 89.49 129.751 89.5042C129.771 89.5185 129.787 89.5363 129.799 89.5568C129.812 89.5773 129.82 89.6001 129.824 89.6238C130.172 91.3915 130.968 93.0402 132.136 94.4121C132.158 94.4389 132.173 94.4716 132.178 94.5064C132.183 94.5412 132.178 94.5767 132.163 94.6088C132.149 94.6408 132.126 94.6681 132.096 94.6874C132.067 94.7067 132.033 94.7173 131.997 94.7179Z" fill="white"/>
<path d="M38.6797 45.7814V102.141L96.3648 68.838L96.3611 17.6016L53.4706 42.3659L51.9886 38.0947L38.6797 45.7814Z" fill="#BA68C8"/>
<path opacity="0.7" d="M38.6797 45.7814V102.141L96.3648 68.838L96.3611 17.6016L53.4706 42.3659L51.9886 38.0947L38.6797 45.7814Z" fill="black"/>
<path d="M38.6797 102.141L41.6364 50.9047L99.3215 17.6016L96.3648 68.838L38.6797 102.141Z" fill="#E0E0E0"/>
<path d="M38.6797 102.141L43.1148 51.7599L100.8 18.4531L96.3648 68.8375L38.6797 102.141Z" fill="#BA68C8"/>
<path opacity="0.7" d="M38.6797 102.141L43.1148 51.7599L100.8 18.4531L96.3648 68.8375L38.6797 102.141Z" fill="black"/>
<path d="M47.5469 50.9064V107.27L105.232 73.963V22.7266L62.3377 47.4909L60.8594 43.2197L47.5469 50.9064Z" fill="#BA68C8"/>
<path opacity="0.5" d="M47.5469 50.9064V107.27L105.232 73.963V22.7266L62.3377 47.4909L60.8594 43.2197L47.5469 50.9064Z" fill="black"/>
<path d="M47.5469 107.27L50.5036 56.0297L108.189 22.7266L105.232 73.963L47.5469 107.27Z" fill="#E0E0E0"/>
<path d="M47.5469 107.269L51.9819 56.8849L109.667 23.5781L105.232 73.9625L47.5469 107.269Z" fill="#BA68C8"/>
<path opacity="0.5" d="M47.5469 107.269L51.9819 56.8849L109.667 23.5781L105.232 73.9625L47.5469 107.269Z" fill="black"/>
<path d="M96.3456 125.204C85.9898 119.225 76.3841 112.725 72 105.1L85.3271 97.4062L96.3456 125.204Z" fill="#E0E0E0"/>
<path d="M57.8984 56.883V113.243L115.584 79.9395V28.7031L72.6893 53.4674L71.2109 49.1962L57.8984 56.883Z" fill="#BA68C8"/>
<path opacity="0.2" d="M57.8984 56.883V113.243L115.584 79.9395V28.7031L72.6893 53.4674L71.2109 49.1962L57.8984 56.883Z" fill="black"/>
<path d="M74.5191 73.5488C74.3734 73.5488 74.3516 73.3813 74.3516 73.283V25.2182C74.3633 25.0317 74.418 24.8505 74.5115 24.6888C74.605 24.527 74.7347 24.3892 74.8905 24.286L116.525 0.253574C116.582 0.218012 116.647 0.197929 116.714 0.195312C116.86 0.195312 116.882 0.362812 116.882 0.461127V48.526C116.87 48.713 116.816 48.8948 116.722 49.0572C116.629 49.2196 116.499 49.358 116.343 49.4618L74.7084 73.4942C74.6509 73.528 74.5858 73.5468 74.5191 73.5488Z" fill="white"/>
<path d="M116.691 0.360544C116.694 0.387165 116.694 0.414031 116.691 0.440652V48.5055C116.679 48.6605 116.633 48.8109 116.555 48.9457C116.478 49.0805 116.371 49.1964 116.243 49.2847L74.6088 73.3172L74.536 73.3499C74.5311 73.3235 74.5311 73.2963 74.536 73.2698V25.205C74.5485 25.0506 74.5952 24.9009 74.6726 24.7668C74.7501 24.6326 74.8564 24.5174 74.9839 24.4294L116.618 0.396956C116.641 0.380893 116.667 0.369739 116.695 0.364186M116.717 5.8171e-05C116.617 0.00301022 116.521 0.031886 116.436 0.0838088L74.8018 24.1162C74.6188 24.2365 74.4665 24.3979 74.3571 24.5876C74.2477 24.7773 74.1843 24.99 74.1719 25.2086V73.2735C74.1719 73.5575 74.3139 73.7213 74.536 73.7213C74.6352 73.7187 74.732 73.6898 74.8164 73.6376L116.451 49.6052C116.635 49.4858 116.787 49.3246 116.897 49.1347C117.006 48.9448 117.069 48.7317 117.081 48.5128V0.447936C117.081 0.163917 116.939 -0.00358311 116.717 5.8171e-05Z" fill="#BA68C8"/>
<path opacity="0.7" d="M116.691 0.360544C116.694 0.387165 116.694 0.414031 116.691 0.440652V48.5055C116.679 48.6605 116.633 48.8109 116.555 48.9457C116.478 49.0805 116.371 49.1964 116.243 49.2847L74.6088 73.3172L74.536 73.3499C74.5311 73.3235 74.5311 73.2963 74.536 73.2698V25.205C74.5485 25.0506 74.5952 24.9009 74.6726 24.7668C74.7501 24.6326 74.8564 24.5174 74.9839 24.4294L116.618 0.396956C116.641 0.380893 116.667 0.369739 116.695 0.364186M116.717 5.8171e-05C116.617 0.00301022 116.521 0.031886 116.436 0.0838088L74.8018 24.1162C74.6188 24.2365 74.4665 24.3979 74.3571 24.5876C74.2477 24.7773 74.1843 24.99 74.1719 25.2086V73.2735C74.1719 73.5575 74.3139 73.7213 74.536 73.7213C74.6352 73.7187 74.732 73.6898 74.8164 73.6376L116.451 49.6052C116.635 49.4858 116.787 49.3246 116.897 49.1347C117.006 48.9448 117.069 48.7317 117.081 48.5128V0.447936C117.081 0.163917 116.939 -0.00358311 116.717 5.8171e-05Z" fill="white"/>
<path d="M78.6094 27.0388L93.4002 18.5V35.5776L78.6094 44.1164V27.0388Z" fill="#BA68C8"/>
<path opacity="0.8" d="M78.6094 27.0388L93.4002 18.5V35.5776L78.6094 44.1164V27.0388Z" fill="white"/>
<path d="M91.1766 22.7578V27.892L90.7106 28.1505V26.5812C90.7106 25.7145 90.0078 25.4196 89.1339 25.9221L82.8672 29.5452C81.997 30.0476 81.2906 31.1582 81.2906 32.0249V33.5942L80.8281 33.871V28.7477L91.1766 22.7578Z" fill="white"/>
<path d="M88.331 35.827C87.5736 36.2639 86.9582 35.8051 86.9582 34.7965V26.5781L85.0538 27.6122V35.8962C85.0538 36.9011 84.4385 38.0809 83.6811 38.5069L82.3047 39.3007V39.8469L89.7001 35.5757V35.0332L88.331 35.827Z" fill="white"/>
<path d="M96.3438 17.66C96.3438 18.1334 96.7698 18.2681 97.2905 17.9695L111.681 9.64921C111.936 9.50449 112.154 9.30261 112.319 9.05939C112.483 8.81617 112.589 8.53822 112.628 8.24732C112.628 7.77759 112.202 7.63922 111.681 7.94145L97.3014 16.2436C97.0419 16.388 96.82 16.5915 96.6536 16.8375C96.4872 17.0836 96.3811 17.3654 96.3438 17.66Z" fill="#455A64"/>
<path d="M96.3438 22.759C96.3438 23.2324 96.7698 23.3707 97.2905 23.0685L111.67 14.7664C111.925 14.6217 112.144 14.4198 112.308 14.1766C112.472 13.9334 112.578 13.6554 112.617 13.3645C112.617 12.8948 112.191 12.7564 111.67 13.0586L97.2905 21.3607C97.0356 21.5051 96.8175 21.7064 96.6533 21.949C96.4891 22.1915 96.3831 22.4687 96.3438 22.759Z" fill="#455A64"/>
<path d="M96.3438 27.8916C96.3438 28.365 96.7698 28.5034 97.2905 28.2011L111.67 19.899C111.925 19.7547 112.143 19.5534 112.307 19.3108C112.471 19.0683 112.577 18.791 112.617 18.5008C112.617 18.0274 112.191 17.8891 111.67 18.1913L97.2905 26.4934C97.0356 26.6377 96.8175 26.8391 96.6533 27.0816C96.4891 27.3242 96.3831 27.6014 96.3438 27.8916Z" fill="#455A64"/>
<path d="M96.3438 33.0166C96.3438 33.49 96.7698 33.6284 97.2905 33.3262L111.67 25.024C111.925 24.8797 112.143 24.6784 112.307 24.4358C112.471 24.1933 112.577 23.916 112.617 23.6258C112.617 23.1524 112.191 23.0141 111.67 23.3163L97.2905 31.6184C97.0356 31.7628 96.8175 31.9641 96.6533 32.2066C96.4891 32.4492 96.3831 32.7264 96.3438 33.0166Z" fill="#455A64"/>
<path d="M78.6094 48.3928C78.6094 48.8662 79.0318 49.0045 79.5561 48.7023L111.683 30.1318C111.938 29.9879 112.157 29.7867 112.321 29.5441C112.485 29.3014 112.591 29.024 112.63 28.7336C112.63 28.2602 112.204 28.1255 111.683 28.424L79.5561 46.9946C79.3007 47.1383 79.0822 47.3394 78.9179 47.5821C78.7536 47.8247 78.648 48.1023 78.6094 48.3928Z" fill="#455A64"/>
<path d="M78.6094 53.5134C78.6094 53.9867 79.0318 54.1251 79.5561 53.8229L111.683 35.2742C111.938 35.1295 112.157 34.9276 112.321 34.6844C112.485 34.4412 112.591 34.1632 112.63 33.8723C112.63 33.4026 112.204 33.2642 111.683 33.5664L79.5561 52.1151C79.3007 52.2588 79.0822 52.4599 78.9179 52.7026C78.7536 52.9453 78.648 53.2229 78.6094 53.5134Z" fill="#455A64"/>
<path d="M78.6094 58.642C78.6094 59.1117 79.0318 59.2501 79.5561 58.9479L111.683 40.3992C111.938 40.2545 112.157 40.0526 112.321 39.8094C112.485 39.5662 112.591 39.2882 112.63 38.9973C112.63 38.5276 112.204 38.3892 111.683 38.6914L79.5561 57.2401C79.3002 57.3842 79.0815 57.5859 78.9171 57.8292C78.7528 58.0726 78.6474 58.3508 78.6094 58.642Z" fill="#455A64"/>
<path d="M57.8984 113.244L68.2506 67.9864L125.936 34.6797L115.584 79.9408L57.8984 113.244Z" fill="#BA68C8"/>
<path d="M72.0156 71.5268V105.096L85.3281 97.409V63.8438L72.0156 71.5268Z" fill="#BA68C8"/>
<path opacity="0.2" d="M72.0156 71.5268V105.096L85.3281 97.409V63.8438L72.0156 71.5268Z" fill="black"/>
<path d="M96.3722 124.98C95.2397 124.136 84.3232 115.794 78.7739 103.861C72.8677 91.1749 72.875 76.3767 72.875 70.8092V70.6344L112.448 47.7891C112.448 53.4076 112.448 68.2275 118.38 80.9575C123.802 92.6095 134.3 100.846 135.964 102.106L96.3722 124.98Z" fill="white"/>
<path d="M112.26 48.1216C112.26 53.9768 112.373 68.5128 118.21 81.0533C123.45 92.3049 133.412 100.396 135.63 102.104L96.3767 124.767C94.8437 123.613 84.3387 115.409 78.935 103.804C73.0361 91.1542 73.0361 76.3852 73.0361 70.825V70.7558L112.245 48.118M112.61 47.488L72.672 70.5482C72.672 75.788 72.5628 91.0122 78.5891 103.957C84.5207 116.661 96.3403 125.204 96.3403 125.204L136.289 102.14C136.289 102.14 124.455 93.5975 118.541 80.8931C112.511 67.9484 112.624 52.7242 112.624 47.4844L112.61 47.488Z" fill="#BA68C8"/>
<path opacity="0.7" d="M112.26 48.1216C112.26 53.9768 112.373 68.5128 118.21 81.0533C123.45 92.3049 133.412 100.396 135.63 102.104L96.3767 124.767C94.8437 123.613 84.3387 115.409 78.935 103.804C73.0361 91.1542 73.0361 76.3852 73.0361 70.825V70.7558L112.245 48.118M112.61 47.488L72.672 70.5482C72.672 75.788 72.5628 91.0122 78.5891 103.957C84.5207 116.661 96.3403 125.204 96.3403 125.204L136.289 102.14C136.289 102.14 124.455 93.5975 118.541 80.8931C112.511 67.9484 112.624 52.7242 112.624 47.4844L112.61 47.488Z" fill="white"/>
<path d="M108.108 55.2165L95.4801 62.4991C95.2273 62.6382 95.0119 62.8363 94.8521 63.0766C94.6924 63.3169 94.593 63.5922 94.5625 63.8791C94.5807 64.3416 95.0213 64.4727 95.542 64.1704L108.174 56.8879C108.423 56.75 108.637 56.5546 108.796 56.3177C108.955 56.0808 109.055 55.8094 109.088 55.526C109.066 55.0454 108.632 54.9143 108.108 55.2165Z" fill="#455A64"/>
<path d="M108.376 60.1931L95.7484 67.4756C95.4986 67.6099 95.2869 67.8052 95.1328 68.0433C94.9787 68.2814 94.8874 68.5546 94.8672 68.8374C94.9072 69.2853 95.366 69.4055 95.8867 69.1033L108.518 61.8207C108.767 61.687 108.977 61.492 109.129 61.2544C109.282 61.0168 109.371 60.7442 109.389 60.4625C109.352 60.011 108.901 59.9018 108.376 60.1931Z" fill="#455A64"/>
<path d="M108.882 65.0203L96.2504 72.3029C95.7297 72.6051 95.351 73.2059 95.4129 73.6392C95.4748 74.0725 95.9518 74.1854 96.4761 73.8832L109.108 66.6006C109.628 66.2984 110 65.7012 109.934 65.2679C109.869 64.8346 109.403 64.7181 108.882 65.0203Z" fill="#455A64"/>
<path d="M109.642 69.7066L97.01 76.9892C96.4893 77.2914 96.1288 77.8813 96.2162 78.3037C96.3036 78.7261 96.7988 78.8207 97.3086 78.5185L109.937 71.236C110.461 70.9337 110.81 70.3475 110.723 69.9251C110.636 69.5027 110.18 69.4044 109.642 69.7066Z" fill="#455A64"/>
<path d="M110.669 74.2348L98.0378 81.5173C97.5171 81.8196 97.1784 82.3949 97.3095 82.7991C97.4406 83.2032 97.9395 83.2943 98.4602 82.992L111.092 75.7095C111.616 75.4073 111.944 74.8356 111.82 74.4278C111.696 74.0199 111.19 73.9326 110.669 74.2348Z" fill="#455A64"/>
<path d="M111.997 78.6018L81.2138 96.3749C80.6931 96.6771 80.3763 97.2379 80.5184 97.6275C80.6604 98.0171 81.2029 98.0899 81.7236 97.7877L112.507 80.0146C113.031 79.7124 113.334 79.1553 113.192 78.762C113.05 78.3688 112.5 78.2996 111.997 78.6018Z" fill="#455A64"/>
<path d="M113.624 82.7703L82.8447 100.543C82.3203 100.846 82.0327 101.392 82.2074 101.763C82.3822 102.135 82.9357 102.193 83.4673 101.891L114.251 84.1175C114.775 83.8153 115.055 83.2691 114.881 82.8977C114.706 82.5263 114.149 82.4717 113.624 82.7703Z" fill="#455A64"/>
<path d="M115.641 86.7481L84.858 104.521C84.3336 104.823 84.0751 105.355 84.2826 105.708C84.4902 106.061 85.0837 106.098 85.6081 105.796L116.37 88.0225C116.89 87.7239 117.142 87.1959 116.934 86.8427C116.726 86.4895 116.151 86.4458 115.641 86.7481Z" fill="#455A64"/>
<path d="M117.994 90.5077L87.2148 108.277C86.6904 108.579 86.4574 109.1 86.6941 109.431C86.9308 109.763 87.5534 109.796 88.0778 109.49L118.857 91.7166C119.382 91.4144 119.608 90.901 119.371 90.566C119.134 90.231 118.519 90.2055 117.994 90.5077Z" fill="#455A64"/>
<path d="M120.683 94.0754L89.8998 111.845C89.3791 112.147 89.1716 112.653 89.4337 112.97C89.6959 113.287 90.3404 113.301 90.8647 112.999L121.648 95.2187C122.169 94.9165 122.376 94.4177 122.107 94.1009C121.837 93.7841 121.208 93.7622 120.683 94.0754Z" fill="#455A64"/>
<path d="M123.651 97.4771L92.8781 115.247C92.3538 115.549 92.1499 116.044 92.4557 116.339C92.7616 116.634 93.4098 116.641 93.9305 116.339L124.714 98.5659C125.238 98.2637 125.42 97.7757 125.129 97.4735C124.838 97.1713 124.182 97.1786 123.651 97.4771Z" fill="#455A64"/>
<path d="M126.932 100.726L96.1485 118.495C95.6278 118.798 95.4567 119.282 95.7844 119.569C96.1121 119.857 96.7821 119.846 97.3064 119.544L128.064 101.771C128.585 101.469 128.749 100.995 128.428 100.704C128.108 100.413 127.442 100.424 126.932 100.726Z" fill="#455A64"/>
<path d="M90.9042 65.1562L76.3828 73.5312C76.543 78.7928 77.1438 86.3813 79.3432 94.0243L93.8682 85.6494C91.6653 78.0063 91.0644 70.4143 90.9042 65.1562Z" fill="#BA68C8"/>
<path opacity="0.8" d="M90.9042 65.1562L76.3828 73.5312C76.543 78.7928 77.1438 86.3813 79.3432 94.0243L93.8682 85.6494C91.6653 78.0063 91.0644 70.4143 90.9042 65.1562Z" fill="white"/>
<path d="M82.3035 72.3737C82.3231 72.0341 82.2703 71.6942 82.1485 71.3765C82.0267 71.0589 81.8387 70.7707 81.5971 70.5312L76.3828 73.5389C76.4265 74.9299 76.4993 76.4847 76.6268 78.1597C77.3051 78.2377 77.9911 78.1109 78.5967 77.7956C80.6467 76.8561 82.3035 74.4201 82.3035 72.3737Z" fill="#BA68C8"/>
<path opacity="0.6" d="M82.3035 72.3737C82.3231 72.0341 82.2703 71.6942 82.1485 71.3765C82.0267 71.0589 81.8387 70.7707 81.5971 70.5312L76.3828 73.5389C76.4265 74.9299 76.4993 76.4847 76.6268 78.1597C77.3051 78.2377 77.9911 78.1109 78.5967 77.7956C80.6467 76.8561 82.3035 74.4201 82.3035 72.3737Z" fill="white"/>
<path d="M92.633 80.6265C91.6644 79.4067 89.6945 75.638 88.8533 73.9958C88.8203 73.9309 88.7685 73.8774 88.7047 73.8422C88.641 73.807 88.5681 73.7917 88.4955 73.7984C88.423 73.8051 88.3541 73.8333 88.2978 73.8796C88.2415 73.9258 88.2004 73.9878 88.1797 74.0577C87.2697 77.1682 86.7415 80.3779 86.6067 83.616C85.3939 82.6533 84.3514 81.4938 83.5225 80.1859C83.4872 80.1353 83.4381 80.0958 83.381 80.072C83.324 80.0483 83.2613 80.0415 83.2005 80.0522C83.1397 80.0629 83.0831 80.0908 83.0376 80.1325C82.9921 80.1743 82.9595 80.2282 82.9436 80.2879C81.356 86.4016 82.1534 92.417 82.1534 92.417L93.8674 85.6515C93.3795 83.9619 92.9753 82.2797 92.633 80.6265Z" fill="#BA68C8"/>
<path opacity="0.6" d="M92.633 80.6265C91.6644 79.4067 89.6945 75.638 88.8533 73.9958C88.8203 73.9309 88.7685 73.8774 88.7047 73.8422C88.641 73.807 88.5681 73.7917 88.4955 73.7984C88.423 73.8051 88.3541 73.8333 88.2978 73.8796C88.2415 73.9258 88.2004 73.9878 88.1797 74.0577C87.2697 77.1682 86.7415 80.3779 86.6067 83.616C85.3939 82.6533 84.3514 81.4938 83.5225 80.1859C83.4872 80.1353 83.4381 80.0958 83.381 80.072C83.324 80.0483 83.2613 80.0415 83.2005 80.0522C83.1397 80.0629 83.0831 80.0908 83.0376 80.1325C82.9921 80.1743 82.9595 80.2282 82.9436 80.2879C81.356 86.4016 82.1534 92.417 82.1534 92.417L93.8674 85.6515C93.3795 83.9619 92.9753 82.2797 92.633 80.6265Z" fill="white"/>
</svg>
