<svg width="60" height="60" viewBox="0 0 60 60" fill="none" xmlns="http://www.w3.org/2000/svg">
<path d="M35.0078 56.5379C36.0268 56.3469 37.0248 56.0989 37.9998 55.7969" stroke="#252525" stroke-width="2" stroke-miterlimit="10"/>
<path d="M30 56.9999C31.012 56.9999 32.011 56.9439 32.994 56.8359" stroke="#252525" stroke-width="2" stroke-miterlimit="10"/>
<path d="M25.003 50.402C15.817 48.16 9 39.876 9 30C9 24.201 11.355 18.956 15.156 15.156L16.588 16.588C16.853 16.853 17.213 17.002 17.589 17.002C18.368 17.001 19 16.368 19 15.588V9C19 7.895 18.105 7 17 7H10.415C9.634 7 9 7.634 9.001 8.415C9.001 8.79 9.15 9.15 9.415 9.415L10.91 10.91C6.024 15.796 3 22.544 3 30C3 44.238 14.021 55.902 27.998 56.927" stroke="#252525" stroke-width="2" stroke-miterlimit="10"/>
<path d="M30.002 51.0021C28.983 51.0021 27.98 50.9291 27 50.7891" stroke="#252525" stroke-width="2" stroke-miterlimit="10"/>
<path d="M24.992 3.46094C23.973 3.65194 22.975 3.89994 22 4.20194" stroke="#252525" stroke-width="2" stroke-miterlimit="10"/>
<path d="M30.0018 3C28.9898 3 27.9908 3.056 27.0078 3.164" stroke="#252525" stroke-width="2" stroke-miterlimit="10"/>
<path d="M34.995 9.59531C44.181 11.8373 50.998 20.1213 50.998 29.9973C50.998 35.7963 48.643 41.0413 44.842 44.8413L43.413 43.4123C43.148 43.1473 42.788 42.9983 42.413 42.9983C41.632 42.9973 40.998 43.6313 40.998 44.4123V50.9973C40.998 52.1023 41.893 52.9973 42.998 52.9973H49.586C50.366 52.9973 50.999 52.3653 50.999 51.5853C50.999 51.2103 50.85 50.8503 50.585 50.5843L49.088 49.0873C53.974 44.2013 56.998 37.4533 56.998 29.9973C56.998 15.7593 45.977 4.09531 32 3.07031" stroke="#252525" stroke-width="2" stroke-miterlimit="10"/>
<path d="M30 9C31.019 9 32.022 9.073 33.002 9.213" stroke="#252525" stroke-width="2" stroke-miterlimit="10"/>
<path d="M12.4375 34.563L33.9995 13L46.9995 26L25.4375 47.563" stroke="#252525" stroke-width="2" stroke-miterlimit="10"/>
<path d="M28 37C30.7614 37 33 34.7614 33 32C33 29.2386 30.7614 27 28 27C25.2386 27 23 29.2386 23 32C23 34.7614 25.2386 37 28 37Z" stroke="#252525" stroke-width="2" stroke-miterlimit="10"/>
<path d="M20 40H18V42H20V40Z" fill="#252525"/>
<path d="M23 37H21V39H23V37Z" fill="#252525"/>
<path d="M35 25H33V27H35V25Z" fill="#252525"/>
<path d="M38 22H36V24H38V22Z" fill="#252525"/>
</svg>
