<svg width="60" height="60" viewBox="0 0 60 60" fill="none" xmlns="http://www.w3.org/2000/svg">
<path d="M39.46 30H56.5C57.881 30 59 28.881 59 27.5C59 26.119 57.881 25 56.5 25H30L27.5 27.5L30 30H35" stroke="black" stroke-width="2" stroke-miterlimit="10"/>
<path d="M53.4844 46C54.9974 42.312 56.0414 39.083 56.0004 35V30" stroke="black" stroke-width="2" stroke-miterlimit="10"/>
<path d="M45 23V25" stroke="black" stroke-width="2" stroke-miterlimit="10"/>
<path d="M45.0002 30.0005L45.0012 35.1785C45.0012 35.6805 44.5962 36.0005 44.1802 36.0005C43.9382 36.0005 43.6852 35.8975 43.5122 35.6565L38.6312 28.8425C38.1962 28.2305 37.4252 27.8735 36.5872 28.0415C35.8472 28.1895 35.2282 28.7845 35.0562 29.5195C34.9302 30.0605 35.0232 30.5755 35.2652 30.9955L40.2332 39.6385C41.2602 41.4245 43.7082 44.5625 45.2702 46.0005" stroke="black" stroke-width="2" stroke-miterlimit="10"/>
<path d="M36.6328 25L42.9758 19.832C43.6358 19.294 44.4618 19 45.3138 19C45.7648 19 46.2128 19.084 46.6338 19.245L52.8618 21.628C53.8018 21.988 54.5718 22.689 55.0178 23.591L55.7158 25" stroke="black" stroke-width="2" stroke-miterlimit="10"/>
<path d="M11.1875 10.2625L37.1515 4.9375L40.7045 21.6835" stroke="black" stroke-width="2" stroke-miterlimit="10"/>
<path d="M41.8281 8.15625L43.2341 14.7892" stroke="black" stroke-width="2" stroke-miterlimit="10"/>
<path d="M40.7656 3.14062L41.3426 5.86163" stroke="black" stroke-width="2" stroke-miterlimit="10"/>
<path d="M10.1118 47.824L2.71875 12.004L8.83475 10.75" stroke="black" stroke-width="2" stroke-miterlimit="10"/>
<path d="M14.9793 24.1252L14.0993 19.8202C13.9863 19.2652 13.4493 18.9072 12.8993 19.0212L9.81234 19.6612C9.26134 19.7752 8.90734 20.3192 9.02134 20.8752L9.90134 25.1802C10.0143 25.7352 10.5513 26.0932 11.1013 25.9792L14.1883 25.3392C14.7383 25.2252 15.0923 24.6812 14.9793 24.1252Z" stroke="black" stroke-width="2" stroke-miterlimit="10"/>
<path d="M5.35375 43.8501L3.96875 37.2031" stroke="black" stroke-width="2" stroke-miterlimit="10"/>
<path d="M8.24594 57.7439L5.83594 46.1719" stroke="black" stroke-width="2" stroke-miterlimit="10"/>
<path d="M40.0007 50.9754L12.0007 56.9654L10.5938 50.1484" stroke="black" stroke-width="2" stroke-miterlimit="10"/>
<path d="M18.2812 22.1539L33.7522 18.7969" stroke="black" stroke-width="2" stroke-miterlimit="10"/>
<path d="M40 54V48C40 46.895 40.895 46 42 46H56C57.105 46 58 46.895 58 48V54" stroke="black" stroke-width="2" stroke-miterlimit="10"/>
<path d="M45 49H43V51H45V49Z" fill="black"/>
<path d="M22.2812 37.1534L32.7673 34.7344" stroke="black" stroke-width="2" stroke-miterlimit="10"/>
<path d="M12.4766 37.5214L15.9986 39.3784L19.1696 34.1094" stroke="black" stroke-width="2" stroke-miterlimit="10"/>
<path d="M30 48H28V50H30V48Z" fill="black"/>
<path d="M35 47H33V49H35V47Z" fill="black"/>
<path d="M25 49H23V51H25V49Z" fill="black"/>
</svg>
