<svg width="60" height="60" viewBox="0 0 60 60" fill="none" xmlns="http://www.w3.org/2000/svg">
<path d="M1 41H6C7.105 41 8 41.895 8 43V55C8 56.105 7.105 57 6 57H1" stroke="#252525" stroke-width="2" stroke-miterlimit="10"/>
<path d="M5 44H3V46H5V44Z" fill="#252525"/>
<path d="M8 44H9.978C10.599 44 11.182 43.716 11.56 43.223C13.097 41.213 17.693 36 24 36H38C39.657 36 41 37.343 41 39C41 40.657 39.657 42 38 42H26" stroke="#252525" stroke-width="2" stroke-miterlimit="10"/>
<path d="M39.464 41.619L54.278 33.318C54.651 33.11 55.08 33 55.507 33C56.884 33 58 34.116 58 35.493C58 36.233 57.671 36.934 57.103 37.408L43.08 49.1C42.367 49.694 41.543 50.141 40.656 50.414L30.581 53.514C29.533 53.836 28.442 54 27.346 54H8" stroke="#252525" stroke-width="2" stroke-miterlimit="10"/>
<path d="M40 9V15" stroke="#252525" stroke-width="2" stroke-miterlimit="10"/>
<path d="M36 3V9" stroke="#252525" stroke-width="2" stroke-miterlimit="10"/>
<path d="M26 22V28" stroke="#252525" stroke-width="2" stroke-miterlimit="10"/>
<path d="M22 29V33" stroke="#252525" stroke-width="2" stroke-miterlimit="10"/>
<path d="M26.3849 13.3858C28.9713 10.7994 29.7776 7.41234 28.1859 5.82058C26.5941 4.22882 23.207 5.03515 20.6206 7.62156C18.0342 10.208 17.2279 13.5951 18.8196 15.1868C20.4114 16.7786 23.7985 15.9723 26.3849 13.3858Z" stroke="#252525" stroke-width="2" stroke-miterlimit="10"/>
<path d="M18.8125 15.1873L21.8125 18.1873C23.4045 19.7793 26.7915 18.9723 29.3785 16.3863C31.9645 13.7993 32.7715 10.4123 31.1795 8.82031L28.1795 5.82031" stroke="#252525" stroke-width="2" stroke-miterlimit="10"/>
<path d="M43.2651 29.7535C45.2251 28.8165 45.5761 25.4805 44.0491 22.3025C42.5221 19.1255 39.6941 17.3095 37.7341 18.2465C35.7741 19.1835 35.4231 22.5195 36.9501 25.6975C38.4771 28.8755 41.3041 30.6915 43.2651 29.7535Z" stroke="#252525" stroke-width="2" stroke-miterlimit="10"/>
<path d="M37.6939 18.2656L33.6969 20.2716C31.7719 21.2346 31.4319 24.5416 32.9489 27.6976C34.4759 30.8746 37.3039 32.6906 39.2639 31.7536C39.2769 31.7476 43.3029 29.7346 43.3029 29.7346" stroke="#252525" stroke-width="2" stroke-miterlimit="10"/>
<path d="M36 11V13" stroke="#252525" stroke-width="2" stroke-miterlimit="10"/>
</svg>
