<svg width="60" height="60" viewBox="0 0 60 60" fill="none" xmlns="http://www.w3.org/2000/svg">
<path d="M38.658 13.1641L47.319 16.0511C47.539 16.1251 47.726 16.2741 47.847 16.4681L57.849 32.4711C57.945 32.6241 58 32.8051 58 32.9991C58 33.2661 57.895 33.5091 57.724 33.6881C44.504 47.5721 43.375 48.2281 25.492 58.8691C25.349 58.9551 25.179 58.9991 25 58.9991C24.638 58.9991 24.32 58.8061 24.145 58.5181L9.142 33.5121C9.052 33.3621 9 33.1871 9 32.9991V22.5081" stroke="black" stroke-width="2" stroke-miterlimit="10"/>
<path d="M22.1019 46.776L17.5859 39.25" stroke="black" stroke-width="2" stroke-miterlimit="10"/>
<path d="M26.3091 53.802L23.5781 49.25" stroke="black" stroke-width="2" stroke-miterlimit="10"/>
<path d="M47.6222 16.2188L39.8052 35.5078C39.4392 36.4118 38.5613 37.0037 37.5853 37.0037C37.4793 37.0037 37.3742 36.9967 37.2692 36.9827L9.03125 33.2378" stroke="black" stroke-width="2" stroke-miterlimit="10"/>
<path d="M44.729 23.3418L36.275 9.16475L23.604 5.59375L4 13.9958L15.905 34.1427" stroke="black" stroke-width="2" stroke-miterlimit="10"/>
<path d="M34.8186 15.5781L26.2266 19.2611" stroke="black" stroke-width="2" stroke-miterlimit="10"/>
<path d="M37.7092 19.6094L29.2422 23.2384" stroke="black" stroke-width="2" stroke-miterlimit="10"/>
<path d="M36.2726 9.16375L27.9976 12.9957L23.6016 5.59375" stroke="black" stroke-width="2" stroke-miterlimit="10"/>
<path d="M16.0935 16.909L14.5625 14.25" stroke="black" stroke-width="2" stroke-miterlimit="10"/>
<path d="M20.8281 25.1328L22.4191 27.8968" stroke="black" stroke-width="2" stroke-miterlimit="10"/>
<path d="M17.102 25.573C17.501 25.843 17.982 26 18.5 26C18.901 26 19.28 25.906 19.616 25.738L21.616 24.738C22.437 24.328 23 23.48 23 22.5C23 21.173 21.946 20 20.799 20C19.577 20 17.466 22 16.179 22C15.095 22 14 20.859 14 19.5C14 18.52 14.563 17.672 15.384 17.262L17.384 16.262C17.72 16.094 18.099 16 18.5 16C18.994 16 19.454 16.143 19.841 16.39" stroke="black" stroke-width="2" stroke-miterlimit="10"/>
<path d="M31.3438 29.6935L36.0028 31.9995L38.3307 25.3125" stroke="black" stroke-width="2" stroke-miterlimit="10"/>
<path d="M4.39844 57.6004L6.60044 55.3984" stroke="black" stroke-width="2" stroke-miterlimit="10"/>
<path d="M8.39844 53.6004L13.6004 48.3984" stroke="black" stroke-width="2" stroke-miterlimit="10"/>
<path d="M1.39844 53.6004L10.6004 44.3984" stroke="black" stroke-width="2" stroke-miterlimit="10"/>
<path d="M54.6004 1.39844L52.3984 3.60044" stroke="black" stroke-width="2" stroke-miterlimit="10"/>
<path d="M50.6004 5.39844L45.3984 10.6004" stroke="black" stroke-width="2" stroke-miterlimit="10"/>
<path d="M57.6004 5.39844L50.3984 12.6004" stroke="black" stroke-width="2" stroke-miterlimit="10"/>
</svg>
