<svg width="60" height="60" viewBox="0 0 60 60" fill="none" xmlns="http://www.w3.org/2000/svg">
<path d="M47 5V41" stroke="#252525" stroke-width="2" stroke-miterlimit="10"/>
<path d="M22 6H27.001" stroke="#252525" stroke-width="2" stroke-miterlimit="10"/>
<path d="M47 50V56H10V6H19.001" stroke="#252525" stroke-width="2" stroke-miterlimit="10"/>
<path d="M36 41H56V42C56 44.761 53.761 47 51 47H19" stroke="#252525" stroke-width="2" stroke-miterlimit="10"/>
<path d="M14 17V42C14 44.761 16.239 47 19 47C21.761 47 24 44.761 24 42V41H37.004" stroke="#252525" stroke-width="2" stroke-miterlimit="10"/>
<path d="M14 6V15" stroke="#252525" stroke-width="2" stroke-miterlimit="10"/>
<path d="M19 3V9" stroke="#252525" stroke-width="2" stroke-miterlimit="10"/>
<path d="M27 3V9" stroke="#252525" stroke-width="2" stroke-miterlimit="10"/>
<path d="M30 6H35.004" stroke="#252525" stroke-width="2" stroke-miterlimit="10"/>
<path d="M35 3V9" stroke="#252525" stroke-width="2" stroke-miterlimit="10"/>
<path d="M38 6H43" stroke="#252525" stroke-width="2" stroke-miterlimit="10"/>
<path d="M43 3V9" stroke="#252525" stroke-width="2" stroke-miterlimit="10"/>
<path d="M35.729 17.568C34.229 16.577 32.432 16 30.5 16C25.253 16 21 20.253 21 25.5C21 30.747 25.253 35 30.5 35C35.747 35 40 30.747 40 25.5C40 24.7 39.901 23.923 39.715 23.181" stroke="#252525" stroke-width="2" stroke-miterlimit="10"/>
<path d="M53 17H51V19H53V17Z" fill="#252525"/>
<path d="M53 21H51V23H53V21Z" fill="#252525"/>
<path d="M53 25H51V27H53V25Z" fill="#252525"/>
<path d="M26.3906 25.391L29.4996 28.5L39.6246 18.375" stroke="#252525" stroke-width="2" stroke-miterlimit="10"/>
</svg>
