<svg width="60" height="60" viewBox="0 0 60 60" fill="none" xmlns="http://www.w3.org/2000/svg">
<path d="M5.42969 6.17969L11.4527 16.8747C12.0017 17.5837 12.8477 17.9967 13.7447 17.9977C14.0977 17.9977 14.4477 17.9357 14.7787 17.8107L18.1727 16.1727" stroke="black" stroke-width="2" stroke-miterlimit="10"/>
<path d="M19.664 10.29L6.271 6.037C6.185 6.013 6.094 6 6 6C5.545 6 5.161 6.304 5.04 6.72L1.041 20.717C1.014 20.807 1 20.902 1 21C1 21.459 1.309 21.845 1.73 21.963L15.622 26.363" stroke="black" stroke-width="2" stroke-miterlimit="10"/>
<path d="M56.6659 30.2578L44.4739 39.5198C44.0399 39.8498 43.5189 40.0028 43.0009 40.0038C42.4829 40.0028 41.9619 39.8498 41.5279 39.5198L29.3359 30.2578" stroke="black" stroke-width="2" stroke-miterlimit="10"/>
<path d="M34.002 50H56C56.552 50 57 49.552 57 49V31C57 30.448 56.552 30 56 30H30C29.448 30 29 30.448 29 31V43" stroke="black" stroke-width="2" stroke-miterlimit="10"/>
<path d="M34.2692 55.9451L15.9922 52.1641" stroke="black" stroke-width="2" stroke-miterlimit="10"/>
<path d="M40.411 50L39.837 52.272C39.274 54.417 37.063 56 35 56C32.239 56 30 53.761 30 51C30 49.364 30.785 47.912 32 47L3 41C1.786 41.912 1 43.364 1 45C1 47.511 2.85 49.589 5.262 49.946L17.7 52.519" stroke="black" stroke-width="2" stroke-miterlimit="10"/>
<path d="M54.4007 11.005C54.3227 11.002 54.2447 11 54.1657 11C51.8437 11 49.8918 12.583 49.3288 14.728L45.4688 30" stroke="black" stroke-width="2" stroke-miterlimit="10"/>
<path d="M52.147 19.018L57.001 20C58.215 19.088 59.001 17.636 59.001 16C59.001 13.489 57.044 11.411 54.633 11.054L25.628 5.053C25.628 5.053 25.079 5 24.895 5C22.548 5 20.621 6.583 20.058 8.728L11.5 42.758" stroke="black" stroke-width="2" stroke-miterlimit="10"/>
<path d="M45.0018 17.1032L23.5078 12.6562" stroke="black" stroke-width="2" stroke-miterlimit="10"/>
<path d="M38.1718 21.0012L22.0078 17.6562" stroke="black" stroke-width="2" stroke-miterlimit="10"/>
<path d="M43.0084 22.0011L40.3594 21.4531" stroke="black" stroke-width="2" stroke-miterlimit="10"/>
<path d="M35.0008 25.6552L20.5078 22.6562" stroke="black" stroke-width="2" stroke-miterlimit="10"/>
<path d="M26.0078 29.1042L19.0078 27.6562" stroke="black" stroke-width="2" stroke-miterlimit="10"/>
<path d="M45 54H54" stroke="black" stroke-width="2" stroke-miterlimit="10"/>
<path d="M56 54H58" stroke="black" stroke-width="2" stroke-miterlimit="10"/>
</svg>
