<svg width="60" height="60" viewBox="0 0 60 60" fill="none" xmlns="http://www.w3.org/2000/svg">
<path d="M30.4596 54.6135L29.4476 51.4005C29.1156 50.3465 27.9926 49.7615 26.9386 50.0925L17.4006 53.0965C16.3456 53.4285 15.7616 54.5515 16.0926 55.6055L17.1206 58.8735" stroke="white" stroke-width="2" stroke-miterlimit="10"/>
<path d="M27.0005 50.074V47.861C27.0005 47.289 27.0705 46.718 27.2095 46.164L27.7015 44.194C27.8995 43.401 28.0005 42.587 28.0005 41.769V37.542C28.0005 36.706 28.1175 35.873 28.3465 35.069L29.9245 29.55C29.9735 29.376 30.0005 29.191 30.0005 29C30.0005 27.896 29.1045 27 28.0005 27C27.0865 27 26.3755 27.632 26.0765 28.449L22.6875 37.75" stroke="white" stroke-width="2" stroke-miterlimit="10"/>
<path d="M24.418 33H20C18.896 33 18 32.104 18 31V17C18 15.896 18.896 15 20 15H46C47.104 15 48 15.896 48 17V31C48 32.104 47.104 33 46 33H28.939" stroke="white" stroke-width="2" stroke-miterlimit="10"/>
<path d="M44 15V33" stroke="white" stroke-width="2" stroke-miterlimit="10"/>
<path d="M22 15V33" stroke="white" stroke-width="2" stroke-miterlimit="10"/>
<path d="M46.4507 15.0514C47.1587 13.3134 49.0317 8.91937 50.9997 6.00038C47.4997 6.00038 41.9997 3.35938 41.9997 3.35938C41.9997 8.06738 39.5938 15.0004 39.5938 15.0004" stroke="white" stroke-width="2" stroke-miterlimit="10"/>
<path d="M49.152 9.16406C49.822 9.88006 52.777 12.9491 56 15.0001C56 15.0001 50.5 17.2501 48 20.0001" stroke="white" stroke-width="2" stroke-miterlimit="10"/>
<path d="M48 21.4375C48 21.4375 51.25 23.0005 55.375 23.0005C55.375 23.0005 54 26.1045 54 30.6255C54 30.6255 50.148 28.9985 48 28.5005" stroke="white" stroke-width="2" stroke-miterlimit="10"/>
<path d="M54 15.9219V22.9449" stroke="white" stroke-width="2" stroke-miterlimit="10"/>
<path d="M11 15C14.3137 15 17 12.3137 17 9C17 5.68629 14.3137 3 11 3C7.68629 3 5 5.68629 5 9C5 12.3137 7.68629 15 11 15Z" stroke="white" stroke-width="2" stroke-miterlimit="10"/>
<path d="M7 27C9.20914 27 11 25.2091 11 23C11 20.7909 9.20914 19 7 19C4.79086 19 3 20.7909 3 23C3 25.2091 4.79086 27 7 27Z" stroke="white" stroke-width="2" stroke-miterlimit="10"/>
<path d="M34 30V20" stroke="white" stroke-width="2" stroke-miterlimit="10"/>
<path d="M39 30V18" stroke="white" stroke-width="2" stroke-miterlimit="10"/>
<path d="M29 27.271V22" stroke="white" stroke-width="2" stroke-miterlimit="10"/>
<path d="M37 4H28V2C28 1.447 27.553 1 27 1C26.764 1 26.547 1.082 26.375 1.219L21.375 5.219C21.146 5.402 21 5.684 21 6C21 6.316 21.146 6.598 21.375 6.781L26.375 10.781C26.547 10.918 26.764 11 27 11C27.553 11 28 10.553 28 10V8H33" stroke="white" stroke-width="2" stroke-miterlimit="10"/>
<path d="M37 8H35" stroke="white" stroke-width="2" stroke-miterlimit="10"/>
<path d="M45 40V45" stroke="white" stroke-width="2" stroke-miterlimit="10"/>
<path d="M45 49V54" stroke="white" stroke-width="2" stroke-miterlimit="10"/>
<path d="M52 47H47" stroke="white" stroke-width="2" stroke-miterlimit="10"/>
<path d="M43 47H38" stroke="white" stroke-width="2" stroke-miterlimit="10"/>
<path d="M17.748 52.9884L13.299 38.0094C13.101 37.3424 13 36.6484 13 35.9514C13 34.6744 13.338 33.4214 13.979 32.3174L18 25.3984" stroke="white" stroke-width="2" stroke-miterlimit="10"/>
</svg>
