<svg width="60" height="60" viewBox="0 0 60 60" fill="none" xmlns="http://www.w3.org/2000/svg">
<path d="M44.4322 58.8429L43.1962 56.6699C42.7872 55.9489 43.0382 55.0339 43.7582 54.6239L55.0572 48.1949C55.7782 47.7849 56.6802 48.0449 57.1042 48.7569C57.4032 49.2609 58.3402 50.7479 58.3402 50.7479" stroke="white" stroke-width="2" stroke-miterlimit="10"/>
<path d="M44.88 53.986C44.88 53.986 32.785 47.94 28.382 45.736C27.563 45.326 27 44.479 27 43.5C27 42.119 28.119 41 29.5 41C29.902 41 30.28 41.098 30.616 41.263C32 41.944 36.172 43.943 36.172 43.943C36.697 44.188 37.217 43.596 36.906 43.108L29.303 31.061C29.111 30.753 29 30.39 29 30C29 28.896 29.896 28 31 28C31.717 28 32.338 28.38 32.697 28.942C34.005 30.988 38.013 37.071 38.013 37.071L44.32 34.332C46.193 33.518 48.38 34.247 49.39 36.022L51.035 38.912C51.718 40.113 52.22 41.408 52.523 42.756L53.898 48.855" stroke="white" stroke-width="2" stroke-miterlimit="10"/>
<path d="M32.198 35.648C31.507 35.876 30.768 36 30 36C26.135 36 23 32.866 23 29C23 25.134 26.135 22 30 22C33.866 22 37 25.134 37 29C37 30.617 36.451 32.106 35.529 33.292" stroke="white" stroke-width="2" stroke-miterlimit="10"/>
<path d="M37 12H41C42.104 12 43 12.896 43 14V34.905" stroke="white" stroke-width="2" stroke-miterlimit="10"/>
<path d="M17 46H28.908" stroke="white" stroke-width="2" stroke-miterlimit="10"/>
<path d="M36.907 50H19C17.896 50 17 49.104 17 48V14C17 12.896 17.896 12 19 12H23" stroke="white" stroke-width="2" stroke-miterlimit="10"/>
<path d="M32 19V8H34C34.553 8 35 7.553 35 7C35 6.764 34.918 6.547 34.781 6.376L30.781 1.376C30.598 1.146 30.316 1 30 1C29.684 1 29.402 1.146 29.219 1.376L25.219 6.376C25.082 6.547 25 6.764 25 7C25 7.553 25.447 8 26 8H28V15" stroke="white" stroke-width="2" stroke-miterlimit="10"/>
<path d="M28 19V17" stroke="white" stroke-width="2" stroke-miterlimit="10"/>
<path d="M47 2V4" stroke="white" stroke-width="2" stroke-miterlimit="10"/>
<path d="M47 6V8" stroke="white" stroke-width="2" stroke-miterlimit="10"/>
<path d="M47 10V12" stroke="white" stroke-width="2" stroke-miterlimit="10"/>
<path d="M54 8V10" stroke="white" stroke-width="2" stroke-miterlimit="10"/>
<path d="M54 12V18" stroke="white" stroke-width="2" stroke-miterlimit="10"/>
<path d="M48 18V27" stroke="white" stroke-width="2" stroke-miterlimit="10"/>
<path d="M54 24V26" stroke="white" stroke-width="2" stroke-miterlimit="10"/>
<path d="M54 28V30" stroke="white" stroke-width="2" stroke-miterlimit="10"/>
<path d="M54 32V37" stroke="white" stroke-width="2" stroke-miterlimit="10"/>
<path d="M3 55V46" stroke="white" stroke-width="2" stroke-miterlimit="10"/>
<path d="M3 44V42" stroke="white" stroke-width="2" stroke-miterlimit="10"/>
<path d="M11 49V43" stroke="white" stroke-width="2" stroke-miterlimit="10"/>
<path d="M11 41V39" stroke="white" stroke-width="2" stroke-miterlimit="10"/>
<path d="M11 37V35" stroke="white" stroke-width="2" stroke-miterlimit="10"/>
<path d="M4 34V23" stroke="white" stroke-width="2" stroke-miterlimit="10"/>
<path d="M12 26V24" stroke="white" stroke-width="2" stroke-miterlimit="10"/>
<path d="M12 22V20" stroke="white" stroke-width="2" stroke-miterlimit="10"/>
<path d="M12 18V16" stroke="white" stroke-width="2" stroke-miterlimit="10"/>
<path d="M5 14V6" stroke="white" stroke-width="2" stroke-miterlimit="10"/>
<path d="M13 9V2" stroke="white" stroke-width="2" stroke-miterlimit="10"/>
</svg>
