<svg width="60" height="60" viewBox="0 0 60 60" fill="none" xmlns="http://www.w3.org/2000/svg">
<g clip-path="url(#clip0_7617_50594)">
<path d="M27.683 25.5703C26.088 26.4063 25 28.0773 25 30.0023C25 32.7633 27.239 35.0023 30 35.0023C31.934 35.0023 33.612 33.9033 34.444 32.2963" stroke="#252525" stroke-width="2" stroke-miterlimit="10"/>
<path d="M37 35H35V37H37V35Z" fill="#252525"/>
<path d="M40 38H38V40H40V38Z" fill="#252525"/>
<path d="M13 26L10 23L23 10L29 16" stroke="#252525" stroke-width="2" stroke-miterlimit="10"/>
<path d="M42.9981 30L49.9991 37.001L36.9991 50.001L18.4531 31.455" stroke="#252525" stroke-width="2" stroke-miterlimit="10"/>
<path d="M15.3906 54.609L19.6406 50.359C20.5246 49.475 21.6636 48.889 22.8966 48.683L25.1036 48.315C26.3376 48.109 27.4756 47.524 28.3596 46.639L30.9996 44" stroke="#252525" stroke-width="2" stroke-miterlimit="10"/>
<path d="M17.5161 38.619C18.0931 37.946 19.0001 36.391 19.0001 34C19.0001 33.21 18.6481 31.772 18.2071 30.872C18.0651 30.579 18.0001 30.258 18.0001 29.933C18.0001 29.336 18.2371 28.763 18.6601 28.34L22.1721 24.828C22.7021 24.298 23.0001 23.578 23.0001 22.828C23.0001 21.266 21.7341 20 20.1721 20C19.4221 20 18.7021 20.298 18.1721 20.828L12.5571 26.443C10.9201 28.08 10.0001 30.301 10.0001 32.616V34.757C10.0001 35.553 9.68413 36.316 9.12113 36.878L3.45312 42.546" stroke="#252525" stroke-width="2" stroke-miterlimit="10"/>
<path d="M45 27C45 27.64 44.746 28.254 44.293 28.706L41.707 31.292C41.254 31.745 40.64 32 40 32C39.36 32 38.746 31.746 38.294 31.293L27.707 20.707C27.254 20.254 27 19.64 27 19C27 18.36 27.255 17.745 27.708 17.293L30.298 14.706C30.75 14.254 31.363 14 32.004 14C32.644 14 33.258 14.254 33.711 14.707L44.294 25.293C44.746 25.745 45 26.36 45 27V27Z" stroke="#252525" stroke-width="2" stroke-miterlimit="10"/>
<path d="M47.3906 12.6093L51.5936 8.40625" stroke="#252525" stroke-width="2" stroke-miterlimit="10"/>
<path d="M47.3906 47.3906L51.5776 51.5776" stroke="#252525" stroke-width="2" stroke-miterlimit="10"/>
<path d="M36.6875 6.97L38.2205 1.25" stroke="#252525" stroke-width="2" stroke-miterlimit="10"/>
<path d="M6.82938 24.2986L1.10938 22.7656" stroke="#252525" stroke-width="2" stroke-miterlimit="10"/>
<path d="M23.3142 6.97L21.7812 1.25" stroke="#252525" stroke-width="2" stroke-miterlimit="10"/>
<path d="M53.1719 24.2986L58.8919 22.7656" stroke="#252525" stroke-width="2" stroke-miterlimit="10"/>
<path d="M12.6093 12.6093L8.40625 8.40625" stroke="#252525" stroke-width="2" stroke-miterlimit="10"/>
<path d="M36.6875 53.0312L38.2205 58.7513" stroke="#252525" stroke-width="2" stroke-miterlimit="10"/>
<path d="M53.1719 35.7031L58.8919 37.2361" stroke="#252525" stroke-width="2" stroke-miterlimit="10"/>
</g>
<defs>
<clipPath id="clip0_7617_50594">
<rect width="60" height="60" fill="white"/>
</clipPath>
</defs>
</svg>
