<svg width="60" height="60" viewBox="0 0 60 60" fill="none" xmlns="http://www.w3.org/2000/svg">
<path d="M34 30H46V33.583C46 34.365 46.634 35 47.416 35C47.791 35 48.15 34.849 48.416 34.584L56.293 26.707C56.746 26.254 57 25.64 57 25C57 24.359 56.746 23.746 56.293 23.293L48.416 15.416C48.15 15.15 47.788 14.999 47.412 15C46.632 15.002 46 15.637 46 16.417V20H27" stroke="black" stroke-width="2" stroke-miterlimit="10"/>
<path d="M33 40H14V43.583C14 44.365 13.366 45 12.584 45C12.209 45 11.85 44.849 11.584 44.584L3.707 36.707C3.254 36.254 3 35.64 3 35C3 34.359 3.254 33.746 3.707 33.293L11.584 25.416C11.85 25.15 12.212 24.999 12.588 25C13.368 25.002 14 25.637 14 26.417V30H26" stroke="black" stroke-width="2" stroke-miterlimit="10"/>
<path d="M29.1123 50.9817C29.4073 50.9937 29.7033 50.9997 30.0003 50.9997C33.6203 50.9997 37.0263 50.0837 39.9993 48.4707" stroke="black" stroke-width="2" stroke-miterlimit="10"/>
<path d="M23.042 49.8203C24.256 50.2463 25.521 50.5643 26.825 50.7623" stroke="black" stroke-width="2" stroke-miterlimit="10"/>
<path d="M13.3086 52.4842C17.9696 55.9492 23.7456 58.0002 29.9996 58.0002C43.3636 58.0002 54.5406 48.6382 57.3296 36.1152" stroke="black" stroke-width="2" stroke-miterlimit="10"/>
<path d="M30.888 9.018C30.593 9.006 30.297 9 30 9C26.38 9 22.974 9.916 20.001 11.529" stroke="black" stroke-width="2" stroke-miterlimit="10"/>
<path d="M36.9576 10.1793C35.7456 9.75428 34.4836 9.43628 33.1816 9.23828" stroke="black" stroke-width="2" stroke-miterlimit="10"/>
<path d="M46.6899 7.516C42.0289 4.05 36.2539 2 29.9999 2C16.6359 2 5.45892 11.362 2.66992 23.885" stroke="black" stroke-width="2" stroke-miterlimit="10"/>
<path d="M25 20H23" stroke="black" stroke-width="2" stroke-miterlimit="10"/>
<path d="M21 20H19" stroke="black" stroke-width="2" stroke-miterlimit="10"/>
<path d="M37 40H35" stroke="black" stroke-width="2" stroke-miterlimit="10"/>
<path d="M41 40H39" stroke="black" stroke-width="2" stroke-miterlimit="10"/>
</svg>
