<svg width="60" height="60" viewBox="0 0 60 60" fill="none" xmlns="http://www.w3.org/2000/svg">
<path d="M12 44V44.5C12 45.881 13.119 47 14.5 47H17.5C18.881 47 20 45.881 20 44.5C20 43.119 18.881 42 17.5 42H14.5C13.119 42 12 40.881 12 39.5C12 38.119 13.119 37 14.5 37H17.5C18.881 37 20 38.119 20 39.5V40" stroke="black" stroke-width="2" stroke-miterlimit="10"/>
<path d="M16 34V37" stroke="black" stroke-width="2" stroke-miterlimit="10"/>
<path d="M16 47V50" stroke="black" stroke-width="2" stroke-miterlimit="10"/>
<path d="M4.18848 39.879C5.18848 34.263 10.0965 30 16.0005 30C22.6275 30 28.0005 35.373 28.0005 42C28.0005 48.627 22.6275 54 16.0005 54C10.8405 54 6.44048 50.743 4.74548 46.173" stroke="black" stroke-width="2" stroke-miterlimit="10"/>
<path d="M4.139 43.832C4.047 43.234 4 42.623 4 42" stroke="black" stroke-width="2" stroke-miterlimit="10"/>
<path d="M45 56.999H44C42.896 56.999 42 56.103 42 54.999V31.999L44.5 28.707L47 31.999V54.999C47 56.103 46.104 56.999 45 56.999Z" stroke="black" stroke-width="2" stroke-miterlimit="10"/>
<path d="M42 52H47" stroke="black" stroke-width="2" stroke-miterlimit="10"/>
<path d="M41.9997 49.9081L26.7677 54.0921L25.4707 49.3691" stroke="black" stroke-width="2" stroke-miterlimit="10"/>
<path d="M20.3775 30.8248L18.1035 22.5468L23.7555 12.6098L44.9115 6.80078L55.7165 46.1408L46.9995 48.5348" stroke="black" stroke-width="2" stroke-miterlimit="10"/>
<path d="M29.291 32.167L38.693 29.584" stroke="black" stroke-width="2" stroke-miterlimit="10"/>
<path d="M38.6926 33.7324L30.3516 36.0234" stroke="black" stroke-width="2" stroke-miterlimit="10"/>
<path d="M35.7371 38.6934L31.4111 39.8824" stroke="black" stroke-width="2" stroke-miterlimit="10"/>
<path d="M23.7555 12.6113L25.8955 20.4043L18.1035 22.5443" stroke="black" stroke-width="2" stroke-miterlimit="10"/>
<path d="M40.9999 14L33.9999 24L29.9999 22L25.5059 28.706" stroke="black" stroke-width="2" stroke-miterlimit="10"/>
<path d="M36.375 15L41 14L42.166 18.158" stroke="black" stroke-width="2" stroke-miterlimit="10"/>
<path d="M7 26V5H35V9.522" stroke="black" stroke-width="2" stroke-miterlimit="10"/>
<path d="M7 28V30" stroke="black" stroke-width="2" stroke-miterlimit="10"/>
<path d="M51 10H49V12H51V10Z" fill="black"/>
<path d="M52 14H50V16H52V14Z" fill="black"/>
<path d="M53 18H51V20H53V18Z" fill="black"/>
<path d="M54 22H52V24H54V22Z" fill="black"/>
<path d="M55 26H53V28H55V26Z" fill="black"/>
</svg>
