<svg width="143" height="141" viewBox="0 0 143 141" fill="none" xmlns="http://www.w3.org/2000/svg">
<path d="M128.145 119.013C150.422 96.7366 144.787 55.0666 116.527 26.806C88.266 -1.45459 48.1132 -5.57186 25.8365 16.7048C-28.5946 71.1359 18.4519 135.885 47.0398 107.968C109.013 47.4333 105.884 141.29 128.145 119.013Z" fill="#92E3A9"/>
<path opacity="0.7" d="M128.145 119.013C150.422 96.7366 144.787 55.0666 116.527 26.806C88.266 -1.45459 48.1132 -5.57186 25.8365 16.7048C-28.5946 71.1359 18.4519 135.885 47.0398 107.968C109.013 47.4333 105.884 141.29 128.145 119.013Z" fill="white"/>
<path d="M94.9537 97.8326L93.1217 97.8609C92.8917 97.3663 92.6178 96.8933 92.3033 96.4476L93.2476 94.8737C92.7633 94.2761 92.2178 93.7307 91.6202 93.2463L90.0463 94.1907C89.5996 93.8751 89.1255 93.6002 88.6298 93.3691L88.6613 91.5402C87.9441 91.2627 87.199 91.0632 86.439 90.9453L85.5482 92.5475C85.2775 92.5223 85.0068 92.5097 84.7298 92.5097C84.4528 92.5097 84.182 92.5097 83.9145 92.5475L83.0237 90.9453C82.2637 91.0632 81.5186 91.2627 80.8014 91.5402L80.8328 93.3691C80.3368 93.5995 79.8626 93.8745 79.4163 94.1907L77.8425 93.2463C77.2448 93.7307 76.6994 94.2761 76.2151 94.8737L77.1594 96.4476C76.8449 96.8933 76.571 97.3663 76.341 97.8609L74.509 97.8326C74.2329 98.5503 74.0335 99.2952 73.9141 100.055L75.5163 100.946C75.4911 101.213 75.4785 101.487 75.4785 101.761C75.4785 102.035 75.4785 102.309 75.5163 102.579L73.9141 103.461C74.0335 104.22 74.2329 104.965 74.509 105.683L76.341 105.652C76.571 106.147 76.8449 106.621 77.1594 107.068L76.2151 108.642C76.6994 109.24 77.2448 109.785 77.8425 110.269L79.4163 109.325L80.8328 110.144L80.8014 111.972C81.519 112.25 82.2639 112.45 83.0237 112.57L83.9145 110.968C84.182 110.99 84.4559 111.006 84.7298 111.006C85.0036 111.006 85.2775 110.99 85.5482 110.968L86.439 112.57C87.1988 112.45 87.9437 112.25 88.6613 111.972L88.6298 110.144C89.1248 109.912 89.5988 109.638 90.0463 109.325L91.6202 110.269C92.2178 109.785 92.7633 109.24 93.2476 108.642L92.3033 107.068C92.6178 106.621 92.8917 106.147 93.1217 105.652L94.9537 105.683C95.2298 104.965 95.4292 104.22 95.5486 103.461L93.9464 102.57C93.9684 102.299 93.9842 102.029 93.9842 101.752C93.9842 101.475 93.9684 101.204 93.9464 100.936L95.5486 100.045C95.4286 99.289 95.2292 98.5473 94.9537 97.8326Z" fill="white" stroke="#263238" stroke-linecap="round" stroke-linejoin="round"/>
<path d="M84.7357 109.292C88.8958 109.292 92.2683 105.919 92.2683 101.759C92.2683 97.599 88.8958 94.2266 84.7357 94.2266C80.5756 94.2266 77.2031 97.599 77.2031 101.759C77.2031 105.919 80.5756 109.292 84.7357 109.292Z" fill="white" stroke="#263238" stroke-linecap="round" stroke-linejoin="round"/>
<path d="M88.338 103.84V99.6822L84.7339 97.6016L81.1328 99.6822V103.84L84.7339 105.921L88.338 103.84Z" fill="white" stroke="#263238" stroke-linecap="round" stroke-linejoin="round"/>
<path d="M73.6234 107.588L72.0495 107.613C71.8511 107.186 71.6152 106.778 71.3444 106.392L72.1565 105.035C71.7378 104.521 71.2674 104.05 70.7526 103.632L69.396 104.444C69.0102 104.173 68.6015 103.936 68.1746 103.735L68.1998 102.162C67.5805 101.924 66.938 101.752 66.2828 101.648L65.5148 103.03C65.2818 103.011 65.0457 102.999 64.8097 102.999C64.5736 102.999 64.3344 102.999 64.1014 103.03L63.3334 101.648C62.6782 101.752 62.0357 101.924 61.4164 102.162L61.4416 103.735C61.0147 103.936 60.606 104.173 60.2202 104.444L58.8667 103.632C58.3502 104.049 57.8787 104.52 57.4597 105.035L58.2718 106.392C58.001 106.778 57.7651 107.186 57.5667 107.613L55.9928 107.588C55.7528 108.207 55.5798 108.85 55.4766 109.505L56.8616 110.273C56.8395 110.506 56.8269 110.742 56.8269 110.978C56.8269 111.214 56.8269 111.451 56.8616 111.683L55.4766 112.452C55.5798 113.108 55.7529 113.752 55.9928 114.372L57.5667 114.343C57.765 114.772 58.001 115.181 58.2718 115.568L57.4597 116.921C57.8778 117.438 58.3495 117.908 58.8667 118.325L60.2202 117.513C60.606 117.784 61.0147 118.021 61.4416 118.221L61.4164 119.795C62.0353 120.034 62.6779 120.206 63.3334 120.308L64.1014 118.926C64.3344 118.945 64.5704 118.958 64.8097 118.958C65.0489 118.958 65.2818 118.958 65.5148 118.926L66.2828 120.308C66.9383 120.206 67.5809 120.034 68.1998 119.795L68.1746 118.221C68.6015 118.021 69.0102 117.784 69.396 117.513L70.7526 118.325C71.2681 117.907 71.7386 117.437 72.1565 116.921L71.3444 115.568C71.6152 115.181 71.8512 114.772 72.0495 114.343L73.6234 114.372C73.8633 113.752 74.0364 113.108 74.1396 112.452L72.7546 111.683C72.7766 111.451 72.7892 111.218 72.7892 110.978C72.7892 110.739 72.7892 110.506 72.7546 110.273L74.1396 109.505C74.0364 108.85 73.8633 108.207 73.6234 107.588Z" fill="white" stroke="#263238" stroke-linecap="round" stroke-linejoin="round"/>
<path opacity="0.3" d="M73.6234 107.588L72.0495 107.613C71.8511 107.186 71.6152 106.778 71.3444 106.392L72.1565 105.035C71.7378 104.521 71.2674 104.05 70.7526 103.632L69.396 104.444C69.0102 104.173 68.6015 103.936 68.1746 103.735L68.1998 102.162C67.5805 101.924 66.938 101.752 66.2828 101.648L65.5148 103.03C65.2818 103.011 65.0457 102.999 64.8097 102.999C64.5736 102.999 64.3344 102.999 64.1014 103.03L63.3334 101.648C62.6782 101.752 62.0357 101.924 61.4164 102.162L61.4416 103.735C61.0147 103.936 60.606 104.173 60.2202 104.444L58.8667 103.632C58.3502 104.049 57.8787 104.52 57.4597 105.035L58.2718 106.392C58.001 106.778 57.7651 107.186 57.5667 107.613L55.9928 107.588C55.7528 108.207 55.5798 108.85 55.4766 109.505L56.8616 110.273C56.8395 110.506 56.8269 110.742 56.8269 110.978C56.8269 111.214 56.8269 111.451 56.8616 111.683L55.4766 112.452C55.5798 113.108 55.7529 113.752 55.9928 114.372L57.5667 114.343C57.765 114.772 58.001 115.181 58.2718 115.568L57.4597 116.921C57.8778 117.438 58.3495 117.908 58.8667 118.325L60.2202 117.513C60.606 117.784 61.0147 118.021 61.4416 118.221L61.4164 119.795C62.0353 120.034 62.6779 120.206 63.3334 120.308L64.1014 118.926C64.3344 118.945 64.5704 118.958 64.8097 118.958C65.0489 118.958 65.2818 118.958 65.5148 118.926L66.2828 120.308C66.9383 120.206 67.5809 120.034 68.1998 119.795L68.1746 118.221C68.6015 118.021 69.0102 117.784 69.396 117.513L70.7526 118.325C71.2681 117.907 71.7386 117.437 72.1565 116.921L71.3444 115.568C71.6152 115.181 71.8512 114.772 72.0495 114.343L73.6234 114.372C73.8633 113.752 74.0364 113.108 74.1396 112.452L72.7546 111.683C72.7766 111.451 72.7892 111.218 72.7892 110.978C72.7892 110.739 72.7892 110.506 72.7546 110.273L74.1396 109.505C74.0364 108.85 73.8633 108.207 73.6234 107.588Z" fill="white" stroke="#263238" stroke-linecap="round" stroke-linejoin="round"/>
<path d="M65.128 113.841C66.6119 113.659 67.6672 112.308 67.4849 110.824C67.3027 109.34 65.9521 108.285 64.4681 108.467C62.9842 108.649 61.929 110 62.1112 111.484C62.2934 112.968 63.644 114.023 65.128 113.841Z" fill="white" stroke="#263238" stroke-linecap="round" stroke-linejoin="round"/>
<path d="M27.9219 79.3708L30.6573 74.3281" stroke="#263238" stroke-linecap="round" stroke-linejoin="round"/>
<path d="M49.7422 79.4118L51.0139 74.3281" stroke="#263238" stroke-linecap="round" stroke-linejoin="round"/>
<path d="M71.5639 79.4558L71.375 74.3281" stroke="#263238" stroke-linecap="round" stroke-linejoin="round"/>
<path d="M93.3838 79.4999L91.7344 74.3281" stroke="#263238" stroke-linecap="round" stroke-linejoin="round"/>
<path d="M115.199 79.544L112.086 74.3281" stroke="#263238" stroke-linecap="round" stroke-linejoin="round"/>
<path d="M134.917 79.4936C135.594 79.4877 136.261 79.6557 136.854 79.9814C137.448 80.3071 137.948 80.7797 138.307 81.3539L138.09 80.8377L132.443 74.3281H10.3095L5.10938 80.3089C5.81859 79.7694 6.68618 79.4795 7.57722 79.4841L134.917 79.4936Z" stroke="#263238" stroke-linecap="round" stroke-linejoin="round"/>
<path d="M138.971 82.9403L138.719 82.3359C138.769 82.5339 138.801 82.7363 138.813 82.9403H138.971Z" stroke="#263238" stroke-linecap="round" stroke-linejoin="round"/>
<path d="M138.722 82.3348C138.634 81.989 138.495 81.6581 138.31 81.3527C137.951 80.778 137.45 80.3051 136.856 79.9794C136.262 79.6536 135.594 79.4859 134.917 79.4924H7.56783C6.6768 79.4877 5.80921 79.7777 5.09999 80.3171C4.99297 80.4021 4.89224 80.4871 4.78522 80.5783C4.50958 80.8376 4.27595 81.1381 4.09271 81.4692C3.83771 81.92 3.68711 82.4224 3.65202 82.9392C3.64724 83.0272 3.64724 83.1155 3.65202 83.2036C3.65202 85.2528 5.40532 86.9148 7.56783 86.9148H134.917C135.941 86.9192 136.929 86.5318 137.677 85.832C138.038 85.4959 138.325 85.0896 138.522 84.638C138.719 84.1865 138.822 83.6994 138.823 83.2067C138.828 83.1187 138.828 83.0304 138.823 82.9423C138.809 82.7371 138.775 82.5336 138.722 82.3348ZM8.3957 85.832C7.88787 85.8042 7.39933 85.6282 6.99054 85.3257C6.58175 85.0231 6.27067 84.6073 6.09582 84.1297C5.92096 83.6521 5.89 83.1338 6.00678 82.6388C6.12355 82.1438 6.38293 81.6939 6.75281 81.3448C7.12268 80.9958 7.5868 80.7628 8.08772 80.6749C8.58863 80.5869 9.10435 80.6478 9.57101 80.85C10.0377 81.0522 10.4348 81.3868 10.7132 81.8124C10.9916 82.238 11.1391 82.7359 11.1374 83.2445C11.116 83.9509 10.8154 84.6199 10.3014 85.105C9.78745 85.59 9.10212 85.8514 8.3957 85.832V85.832ZM29.3629 85.832C28.8555 85.8043 28.3673 85.6285 27.9587 85.3264C27.5501 85.0242 27.239 84.609 27.0638 84.1319C26.8887 83.6549 26.8572 83.137 26.9732 82.6422C27.0892 82.1475 27.3476 81.6975 27.7166 81.3481C28.0855 80.9986 28.5488 80.7649 29.0491 80.6759C29.5494 80.5869 30.0649 80.6464 30.5317 80.8472C30.9986 81.048 31.3963 81.3811 31.6759 81.8055C31.9554 82.2299 32.1045 82.7269 32.1046 83.2351C32.0952 83.5856 32.0169 83.9309 31.874 84.2512C31.7311 84.5715 31.5265 84.8605 31.2719 85.1016C31.0173 85.3428 30.7176 85.5314 30.3901 85.6567C30.0625 85.7821 29.7135 85.8416 29.3629 85.832V85.832ZM50.3301 85.832C49.8227 85.8043 49.3345 85.6285 48.9259 85.3264C48.5173 85.0242 48.2062 84.609 48.0311 84.1319C47.8559 83.6549 47.8244 83.137 47.9404 82.6422C48.0564 82.1475 48.3149 81.6975 48.6838 81.3481C49.0528 80.9986 49.516 80.7649 50.0163 80.6759C50.5167 80.5869 51.0321 80.6464 51.4989 80.8472C51.9658 81.048 52.3636 81.3811 52.6431 81.8055C52.9226 82.2299 53.0717 82.7269 53.0718 83.2351C53.0625 83.5856 52.9841 83.9309 52.8412 84.2512C52.6983 84.5715 52.4937 84.8605 52.2391 85.1016C51.9845 85.3428 51.6849 85.5314 51.3573 85.6567C51.0298 85.7821 50.6807 85.8416 50.3301 85.832V85.832ZM71.2974 85.832C70.7899 85.8043 70.3018 85.6285 69.8932 85.3264C69.4846 85.0242 69.1734 84.609 68.9983 84.1319C68.8231 83.6549 68.7916 83.137 68.9076 82.6422C69.0236 82.1475 69.2821 81.6975 69.651 81.3481C70.02 80.9986 70.4832 80.7649 70.9836 80.6759C71.4839 80.5869 71.9993 80.6464 72.4662 80.8472C72.933 81.048 73.3308 81.3811 73.6103 81.8055C73.8899 82.2299 74.0389 82.7269 74.0391 83.2351C74.0297 83.5856 73.9513 83.9309 73.8084 84.2512C73.6655 84.5715 73.4609 84.8605 73.2063 85.1016C72.9517 85.3428 72.6521 85.5314 72.3245 85.6567C71.997 85.7821 71.6479 85.8416 71.2974 85.832V85.832ZM92.2646 85.832C91.7572 85.8043 91.269 85.6285 90.8604 85.3264C90.4518 85.0242 90.1407 84.609 89.9655 84.1319C89.7904 83.6549 89.7588 83.137 89.8748 82.6422C89.9909 82.1475 90.2493 81.6975 90.6183 81.3481C90.9872 80.9986 91.4505 80.7649 91.9508 80.6759C92.4511 80.5869 92.9665 80.6464 93.4334 80.8472C93.9002 81.048 94.298 81.3811 94.5776 81.8055C94.8571 82.2299 95.0062 82.7269 95.0063 83.2351C94.9969 83.5856 94.9185 83.9309 94.7757 84.2512C94.6328 84.5715 94.4282 84.8605 94.1736 85.1016C93.9189 85.3428 93.6193 85.5314 93.2918 85.6567C92.9642 85.7821 92.6152 85.8416 92.2646 85.832V85.832ZM113.232 85.832C112.724 85.8043 112.236 85.6285 111.828 85.3264C111.419 85.0242 111.108 84.609 110.933 84.1319C110.758 83.6549 110.726 83.137 110.842 82.6422C110.958 82.1475 111.217 81.6975 111.585 81.3481C111.954 80.9986 112.418 80.7649 112.918 80.6759C113.418 80.5869 113.934 80.6464 114.401 80.8472C114.867 81.048 115.265 81.3811 115.545 81.8055C115.824 82.2299 115.973 82.7269 115.974 83.2351C115.964 83.5856 115.886 83.9309 115.743 84.2512C115.6 84.5715 115.395 84.8605 115.141 85.1016C114.886 85.3428 114.587 85.5314 114.259 85.6567C113.931 85.7821 113.582 85.8416 113.232 85.832V85.832ZM134.215 85.832C133.707 85.8049 133.219 85.6296 132.81 85.3278C132.401 85.026 132.089 84.611 131.913 84.1339C131.738 83.6569 131.706 83.1389 131.821 82.6439C131.937 82.1489 132.195 81.6987 132.564 81.3489C132.933 80.9992 133.396 80.7652 133.897 80.6759C134.397 80.5867 134.913 80.6461 135.38 80.8468C135.847 81.0475 136.245 81.3807 136.524 81.8051C136.804 82.2296 136.953 82.7267 136.953 83.2351C136.934 83.9425 136.635 84.6135 136.122 85.1005C135.608 85.5875 134.922 85.8506 134.215 85.832V85.832Z" stroke="#263238" stroke-linecap="round" stroke-linejoin="round"/>
<path d="M8.3959 80.6494C7.88848 80.6771 7.40029 80.8529 6.99169 81.155C6.58308 81.4572 6.27198 81.8724 6.09682 82.3495C5.92167 82.8265 5.89015 83.3444 6.00615 83.8392C6.12216 84.3339 6.38061 84.7839 6.74956 85.1333C7.11851 85.4828 7.58177 85.7165 8.08209 85.8055C8.58241 85.8945 9.09785 85.835 9.56469 85.6342C10.0315 85.4334 10.4293 85.1003 10.7089 84.6759C10.9884 84.2515 11.1375 83.7545 11.1376 83.2463C11.1282 82.8958 11.0498 82.5505 10.907 82.2302C10.7641 81.9099 10.5595 81.6209 10.3049 81.3798C10.0502 81.1386 9.7506 80.95 9.42305 80.8247C9.0955 80.6993 8.74647 80.6398 8.3959 80.6494V80.6494ZM8.3959 84.112C8.22826 84.1028 8.06699 84.0446 7.93202 83.9448C7.79705 83.8449 7.69429 83.7077 7.63642 83.5501C7.57856 83.3925 7.56814 83.2214 7.60644 83.0579C7.64474 82.8944 7.73008 82.7458 7.85193 82.6303C7.97378 82.5148 8.1268 82.4375 8.29208 82.408C8.45736 82.3785 8.62767 82.398 8.78196 82.4642C8.93625 82.5304 9.06777 82.6404 9.16027 82.7805C9.25277 82.9206 9.3022 83.0847 9.30246 83.2526C9.29505 83.4859 9.19546 83.7067 9.02552 83.8666C8.85558 84.0265 8.62915 84.1125 8.3959 84.1057V84.112Z" stroke="#263238" stroke-linecap="round" stroke-linejoin="round"/>
<path d="M8.39806 82.3832C8.23042 82.3924 8.06915 82.4505 7.93418 82.5504C7.79921 82.6503 7.69644 82.7875 7.63858 82.9451C7.58072 83.1027 7.5703 83.2738 7.6086 83.4372C7.64689 83.6007 7.73224 83.7494 7.85409 83.8649C7.97594 83.9804 8.12896 84.0577 8.29424 84.0872C8.45952 84.1167 8.62982 84.0971 8.78412 84.0309C8.93841 83.9647 9.06993 83.8548 9.16243 83.7147C9.25493 83.5746 9.30436 83.4104 9.30461 83.2425C9.30176 83.1265 9.27602 83.0122 9.22887 82.9061C9.18172 82.8001 9.11408 82.7044 9.02985 82.6245C8.94562 82.5447 8.84645 82.4823 8.73803 82.4408C8.62961 82.3994 8.51407 82.3798 8.39806 82.3832V82.3832Z" stroke="#263238" stroke-linecap="round" stroke-linejoin="round"/>
<path d="M29.3647 80.6494C28.8572 80.6771 28.369 80.8529 27.9604 81.155C27.5518 81.4572 27.2407 81.8724 27.0656 82.3495C26.8904 82.8265 26.8589 83.3444 26.9749 83.8392C27.0909 84.3339 27.3494 84.7839 27.7183 85.1333C28.0873 85.4828 28.5505 85.7165 29.0508 85.8055C29.5512 85.8945 30.0666 85.835 30.5334 85.6342C31.0003 85.4334 31.3981 85.1003 31.6776 84.6759C31.9572 84.2515 32.1062 83.7545 32.1063 83.2463C32.097 82.8958 32.0186 82.5505 31.8757 82.2302C31.7328 81.9099 31.5282 81.6209 31.2736 81.3798C31.019 81.1386 30.7194 80.95 30.3918 80.8247C30.0643 80.6993 29.7152 80.6398 29.3647 80.6494V80.6494ZM29.3647 84.112C29.197 84.1028 29.0357 84.0446 28.9008 83.9448C28.7658 83.8449 28.663 83.7077 28.6052 83.5501C28.5473 83.3925 28.5369 83.2214 28.5752 83.0579C28.6135 82.8944 28.6988 82.7458 28.8207 82.6303C28.9425 82.5148 29.0955 82.4375 29.2608 82.408C29.4261 82.3785 29.5964 82.398 29.7507 82.4642C29.905 82.5304 30.0365 82.6404 30.129 82.7805C30.2215 82.9206 30.271 83.0847 30.2712 83.2526C30.2638 83.4859 30.1642 83.7067 29.9943 83.8666C29.8243 84.0265 29.5979 84.1125 29.3647 84.1057V84.112Z" stroke="#263238" stroke-linecap="round" stroke-linejoin="round"/>
<path d="M29.3668 82.3832C29.1992 82.3924 29.0379 82.4505 28.9029 82.5504C28.768 82.6503 28.6652 82.7875 28.6073 82.9451C28.5495 83.1027 28.539 83.2738 28.5773 83.4372C28.6156 83.6007 28.701 83.7494 28.8228 83.8649C28.9447 83.9804 29.0977 84.0577 29.263 84.0872C29.4283 84.1167 29.5986 84.0971 29.7529 84.0309C29.9072 83.9647 30.0387 83.8548 30.1312 83.7147C30.2237 83.5746 30.2731 83.4104 30.2734 83.2425C30.2705 83.1265 30.2448 83.0122 30.1976 82.9061C30.1505 82.8001 30.0828 82.7044 29.9986 82.6245C29.9144 82.5447 29.8152 82.4823 29.7068 82.4408C29.5984 82.3994 29.4828 82.3798 29.3668 82.3832V82.3832Z" stroke="#263238" stroke-linecap="round" stroke-linejoin="round"/>
<path d="M50.3334 80.6494C49.826 80.6771 49.3378 80.8529 48.9292 81.155C48.5206 81.4572 48.2095 81.8724 48.0343 82.3495C47.8592 82.8265 47.8276 83.3444 47.9437 83.8392C48.0597 84.3339 48.3181 84.7839 48.6871 85.1333C49.056 85.4828 49.5193 85.7165 50.0196 85.8055C50.5199 85.8945 51.0354 85.835 51.5022 85.6342C51.969 85.4334 52.3668 85.1003 52.6464 84.6759C52.9259 84.2515 53.075 83.7545 53.0751 83.2463C53.0657 82.8958 52.9873 82.5505 52.8445 82.2302C52.7016 81.9099 52.497 81.6209 52.2424 81.3798C51.9877 81.1386 51.6881 80.95 51.3606 80.8247C51.033 80.6993 50.684 80.6398 50.3334 80.6494V80.6494ZM50.3334 84.112C50.1658 84.1028 50.0045 84.0446 49.8695 83.9448C49.7345 83.8449 49.6318 83.7077 49.5739 83.5501C49.5161 83.3925 49.5056 83.2214 49.5439 83.0579C49.5822 82.8944 49.6676 82.7458 49.7894 82.6303C49.9113 82.5148 50.0643 82.4375 50.2296 82.408C50.3949 82.3785 50.5652 82.398 50.7195 82.4642C50.8737 82.5304 51.0053 82.6404 51.0978 82.7805C51.1903 82.9206 51.2397 83.0847 51.24 83.2526C51.2326 83.4859 51.133 83.7067 50.963 83.8666C50.7931 84.0265 50.5667 84.1125 50.3334 84.1057V84.112Z" stroke="#263238" stroke-linecap="round" stroke-linejoin="round"/>
<path d="M50.3277 82.3832C50.1601 82.3924 49.9988 82.4505 49.8639 82.5504C49.7289 82.6503 49.6261 82.7875 49.5683 82.9451C49.5104 83.1027 49.5 83.2738 49.5383 83.4372C49.5766 83.6007 49.6619 83.7494 49.7838 83.8649C49.9056 83.9804 50.0586 84.0577 50.2239 84.0872C50.3892 84.1167 50.5595 84.0971 50.7138 84.0309C50.8681 83.9647 50.9996 83.8548 51.0921 83.7147C51.1846 83.5746 51.234 83.4104 51.2343 83.2425C51.2314 83.1265 51.2057 83.0122 51.1586 82.9061C51.1114 82.8001 51.0438 82.7044 50.9595 82.6245C50.8753 82.5447 50.7761 82.4823 50.6677 82.4408C50.5593 82.3994 50.4438 82.3798 50.3277 82.3832Z" stroke="#263238" stroke-linecap="round" stroke-linejoin="round"/>
<path d="M71.2943 80.6494C70.7869 80.6771 70.2987 80.8529 69.8901 81.155C69.4815 81.4572 69.1704 81.8724 68.9953 82.3495C68.8201 82.8265 68.7886 83.3444 68.9046 83.8392C69.0206 84.3339 69.2791 84.7839 69.648 85.1333C70.0169 85.4828 70.4802 85.7165 70.9805 85.8055C71.4808 85.8945 71.9963 85.835 72.4631 85.6342C72.93 85.4334 73.3278 85.1003 73.6073 84.6759C73.8868 84.2515 74.0359 83.7545 74.036 83.2463C74.0267 82.8958 73.9483 82.5505 73.8054 82.2302C73.6625 81.9099 73.4579 81.6209 73.2033 81.3798C72.9487 81.1386 72.649 80.95 72.3215 80.8247C71.9939 80.6993 71.6449 80.6398 71.2943 80.6494V80.6494ZM71.2943 84.112C71.1267 84.1028 70.9654 84.0446 70.8305 83.9448C70.6955 83.8449 70.5927 83.7077 70.5349 83.5501C70.477 83.3925 70.4666 83.2214 70.5049 83.0579C70.5432 82.8944 70.6285 82.7458 70.7504 82.6303C70.8722 82.5148 71.0252 82.4375 71.1905 82.408C71.3558 82.3785 71.5261 82.398 71.6804 82.4642C71.8347 82.5304 71.9662 82.6404 72.0587 82.7805C72.1512 82.9206 72.2006 83.0847 72.2009 83.2526C72.1935 83.4859 72.0939 83.7067 71.924 83.8666C71.754 84.0265 71.5276 84.1125 71.2943 84.1057V84.112Z" stroke="#263238" stroke-linecap="round" stroke-linejoin="round"/>
<path d="M71.2965 82.3832C71.1289 82.3924 70.9676 82.4505 70.8326 82.5504C70.6976 82.6503 70.5949 82.7875 70.537 82.9451C70.4792 83.1027 70.4687 83.2738 70.507 83.4372C70.5453 83.6007 70.6307 83.7494 70.7525 83.8649C70.8744 83.9804 71.0274 84.0577 71.1927 84.0872C71.358 84.1167 71.5283 84.0971 71.6826 84.0309C71.8368 83.9647 71.9684 83.8548 72.0609 83.7147C72.1534 83.5746 72.2028 83.4104 72.2031 83.2425C72.2002 83.1265 72.1745 83.0122 72.1273 82.9061C72.0802 82.8001 72.0125 82.7044 71.9283 82.6245C71.8441 82.5447 71.7449 82.4823 71.6365 82.4408C71.528 82.3994 71.4125 82.3798 71.2965 82.3832V82.3832Z" stroke="#263238" stroke-linecap="round" stroke-linejoin="round"/>
<path d="M92.2631 80.6494C91.7557 80.6771 91.2675 80.8529 90.8589 81.155C90.4503 81.4572 90.1392 81.8724 89.964 82.3495C89.7889 82.8265 89.7573 83.3444 89.8733 83.8392C89.9893 84.3339 90.2478 84.7839 90.6168 85.1333C90.9857 85.4828 91.449 85.7165 91.9493 85.8055C92.4496 85.8945 92.965 85.835 93.4319 85.6342C93.8987 85.4334 94.2965 85.1003 94.576 84.6759C94.8556 84.2515 95.0047 83.7545 95.0048 83.2463C94.9954 82.8958 94.917 82.5505 94.7742 82.2302C94.6313 81.9099 94.4267 81.6209 94.1721 81.3798C93.9174 81.1386 93.6178 80.95 93.2902 80.8247C92.9627 80.6993 92.6137 80.6398 92.2631 80.6494V80.6494ZM92.2631 84.112C92.0955 84.1028 91.9342 84.0446 91.7992 83.9448C91.6642 83.8449 91.5615 83.7077 91.5036 83.5501C91.4458 83.3925 91.4353 83.2214 91.4736 83.0579C91.5119 82.8944 91.5973 82.7458 91.7191 82.6303C91.841 82.5148 91.994 82.4375 92.1593 82.408C92.3246 82.3785 92.4949 82.398 92.6491 82.4642C92.8034 82.5304 92.935 82.6404 93.0275 82.7805C93.12 82.9206 93.1694 83.0847 93.1696 83.2526C93.1614 83.4856 93.0616 83.7059 92.8918 83.8656C92.7221 84.0254 92.4961 84.1116 92.2631 84.1057V84.112Z" stroke="#263238" stroke-linecap="round" stroke-linejoin="round"/>
<path d="M92.2652 82.3831C92.0976 82.3923 91.9363 82.4505 91.8014 82.5503C91.6664 82.6502 91.5636 82.7874 91.5058 82.945C91.4479 83.1026 91.4375 83.2737 91.4758 83.4372C91.5141 83.6006 91.5994 83.7493 91.7213 83.8648C91.8431 83.9803 91.9961 84.0576 92.1614 84.0871C92.3267 84.1166 92.497 84.0971 92.6513 84.0309C92.8056 83.9647 92.9371 83.8547 93.0296 83.7146C93.1221 83.5745 93.1715 83.4103 93.1718 83.2424C93.1652 83.0084 93.0661 82.7865 92.8961 82.6254C92.7262 82.4643 92.4993 82.3772 92.2652 82.3831V82.3831Z" stroke="#263238" stroke-linecap="round" stroke-linejoin="round"/>
<path d="M113.232 80.6494C112.724 80.6771 112.236 80.8529 111.828 81.155C111.419 81.4572 111.108 81.8724 110.933 82.3495C110.758 82.8265 110.726 83.3444 110.842 83.8392C110.958 84.3339 111.217 84.7839 111.585 85.1333C111.954 85.4828 112.418 85.7165 112.918 85.8055C113.418 85.8945 113.934 85.835 114.401 85.6342C114.867 85.4334 115.265 85.1003 115.545 84.6759C115.824 84.2515 115.973 83.7545 115.974 83.2463C115.964 82.8958 115.886 82.5505 115.743 82.2302C115.6 81.9099 115.395 81.6209 115.141 81.3798C114.886 81.1386 114.587 80.95 114.259 80.8247C113.931 80.6993 113.582 80.6398 113.232 80.6494V80.6494ZM113.232 84.112C113.064 84.1028 112.903 84.0446 112.768 83.9448C112.633 83.8449 112.53 83.7077 112.472 83.5501C112.414 83.3925 112.404 83.2214 112.442 83.0579C112.481 82.8944 112.566 82.7458 112.688 82.6303C112.81 82.5148 112.963 82.4375 113.128 82.408C113.293 82.3785 113.464 82.398 113.618 82.4642C113.772 82.5304 113.904 82.6404 113.996 82.7805C114.089 82.9206 114.138 83.0847 114.138 83.2526C114.13 83.4856 114.03 83.7059 113.861 83.8656C113.691 84.0254 113.465 84.1116 113.232 84.1057V84.112Z" stroke="#263238" stroke-linecap="round" stroke-linejoin="round"/>
<path d="M113.234 82.3831C113.066 82.3923 112.905 82.4505 112.77 82.5503C112.635 82.6502 112.532 82.7874 112.475 82.945C112.417 83.1026 112.406 83.2737 112.445 83.4372C112.483 83.6006 112.568 83.7493 112.69 83.8648C112.812 83.9803 112.965 84.0576 113.13 84.0871C113.295 84.1166 113.466 84.0971 113.62 84.0309C113.774 83.9647 113.906 83.8547 113.998 83.7146C114.091 83.5745 114.14 83.4103 114.141 83.2424C114.134 83.0084 114.035 82.7865 113.865 82.6254C113.695 82.4643 113.468 82.3772 113.234 82.3831V82.3831Z" stroke="#263238" stroke-linecap="round" stroke-linejoin="round"/>
<path d="M134.212 80.6494C133.704 80.6764 133.215 80.8517 132.806 81.1535C132.397 81.4553 132.086 81.8704 131.91 82.3474C131.734 82.8244 131.703 83.3424 131.818 83.8374C131.934 84.3324 132.192 84.7826 132.561 85.1324C132.93 85.4821 133.393 85.7161 133.894 85.8054C134.394 85.8946 134.91 85.8352 135.377 85.6345C135.844 85.4339 136.242 85.1007 136.521 84.6762C136.801 84.2517 136.95 83.7546 136.95 83.2463C136.931 82.5388 136.632 81.8678 136.118 81.3808C135.605 80.8939 134.919 80.6307 134.212 80.6494V80.6494ZM134.212 84.1119C134.044 84.1027 133.883 84.0445 133.748 83.9447C133.613 83.8448 133.51 83.7076 133.452 83.55C133.394 83.3924 133.384 83.2213 133.422 83.0578C133.46 82.8944 133.546 82.7457 133.668 82.6302C133.789 82.5147 133.942 82.4374 134.108 82.4079C134.273 82.3784 134.443 82.3979 134.598 82.4641C134.752 82.5303 134.883 82.6403 134.976 82.7804C135.068 82.9205 135.118 83.0847 135.118 83.2526C135.11 83.4855 135.01 83.7058 134.84 83.8655C134.671 84.0253 134.445 84.1116 134.212 84.1056V84.1119Z" stroke="#263238" stroke-linecap="round" stroke-linejoin="round"/>
<path d="M134.218 82.3831C134.051 82.3923 133.889 82.4505 133.754 82.5503C133.62 82.6502 133.517 82.7874 133.459 82.945C133.401 83.1026 133.391 83.2737 133.429 83.4372C133.467 83.6006 133.553 83.7493 133.674 83.8648C133.796 83.9803 133.949 84.0576 134.115 84.0871C134.28 84.1166 134.45 84.0971 134.604 84.0309C134.759 83.9647 134.89 83.8547 134.983 83.7146C135.075 83.5745 135.125 83.4103 135.125 83.2424C135.118 83.0084 135.019 82.7865 134.849 82.6254C134.679 82.4643 134.452 82.3772 134.218 82.3831V82.3831Z" stroke="#263238" stroke-linecap="round" stroke-linejoin="round"/>
<path d="M35.7426 43.0263C37.5175 38.6022 35.3699 33.5769 30.9458 31.802C26.5217 30.0271 21.4964 32.1747 19.7215 36.5988C17.9466 41.0229 20.0943 46.0482 24.5184 47.8231C28.9425 49.598 33.9677 47.4504 35.7426 43.0263Z" fill="white" stroke="#263238" stroke-linecap="round" stroke-linejoin="round"/>
<path d="M63.0916 58.939C64.903 54.5058 62.7776 49.4435 58.3445 47.6321C53.9113 45.8207 48.8491 47.9461 47.0377 52.3793C45.2262 56.8125 47.3516 61.8747 51.7848 63.6861C56.218 65.4975 61.2802 63.3721 63.0916 58.939Z" fill="white" stroke="#263238" stroke-width="1.00464" stroke-linecap="round" stroke-linejoin="round"/>
<path d="M70.2891 25.8516L71.2397 26.8022L70.2891 27.7528" stroke="#263238" stroke-linecap="round" stroke-linejoin="round"/>
<path d="M65.3516 26.8047H70.8822" stroke="#263238" stroke-width="2" stroke-linecap="round" stroke-linejoin="round"/>
<path d="M69.3828 55.2734L70.3334 56.2241L69.3828 57.1747" stroke="#263238" stroke-linecap="round" stroke-linejoin="round"/>
<path d="M64.6797 56.2266H70.0749" stroke="#263238" stroke-width="2" stroke-linecap="round" stroke-linejoin="round"/>
<path d="M100.945 25.8516L101.896 26.8022L100.945 27.7528" stroke="#263238" stroke-linecap="round" stroke-linejoin="round"/>
<path d="M93.2891 26.8047C93.2891 26.94 101.41 26.8047 101.41 26.8047" stroke="#263238" stroke-width="2" stroke-linecap="round" stroke-linejoin="round"/>
<path d="M111.672 32.8984H113.016V34.2425" stroke="#263238" stroke-linecap="round" stroke-linejoin="round"/>
<path d="M91.3984 50.1307C91.4708 50.0174 112.69 33.1328 112.69 33.1328" stroke="#263238" stroke-width="2" stroke-linecap="round" stroke-linejoin="round"/>
<path d="M36.3594 38.908H54.7171V34.7812" stroke="#263238" stroke-width="2" stroke-linecap="round" stroke-linejoin="round"/>
<path d="M35.7426 14.6903C37.5175 10.2662 35.3699 5.24096 30.9458 3.46607C26.5217 1.69118 21.4964 3.83879 19.7215 8.26289C17.9466 12.687 20.0943 17.7123 24.5184 19.4872C28.9425 21.2621 33.9677 19.1144 35.7426 14.6903Z" fill="white" stroke="#263238" stroke-linecap="round" stroke-linejoin="round"/>
<path d="M53.7734 13.3906L54.7209 14.3412L55.6747 13.3906" stroke="#263238" stroke-linecap="round" stroke-linejoin="round"/>
<path d="M36.3594 11.1797H54.7171V14.3306" stroke="#263238" stroke-width="2" stroke-linecap="round" stroke-linejoin="round"/>
<path d="M55.6747 35.6303L54.7209 34.6797L53.7734 35.6303" stroke="#263238" stroke-linecap="round" stroke-linejoin="round"/>
<path d="M126.223 15.0703V15.426V27.2553L115.039 32.5467V19.6818L126.223 15.0703Z" fill="#92E3A9" stroke="#263238" stroke-linecap="round" stroke-linejoin="round"/>
<path d="M103.852 15.0703V15.426V27.2553L115.036 32.5467V19.6818L103.852 15.0703Z" fill="#263238" stroke="#263238" stroke-linecap="round" stroke-linejoin="round"/>
<path d="M126.22 15.0693L115.036 19.6808L103.852 15.0693L115.036 10.0234L126.22 15.0693Z" fill="white" stroke="#263238" stroke-linecap="round" stroke-linejoin="round"/>
<path d="M120.938 17.0409V25.3416L123.179 23.0972L125.41 25.329V17L120.938 17.0409Z" fill="white" stroke="#263238" stroke-linecap="round" stroke-linejoin="round"/>
<path d="M123.172 11.8942L124.286 11.1797L124.894 12.3538L126.213 12.294L126.15 13.6129L127.324 14.2204L126.613 15.3316L127.324 16.4427L126.15 17.0503L126.213 18.3692L124.894 18.3094L124.286 19.4835L123.172 18.7689L122.061 19.4835L121.454 18.3094L120.135 18.3692L120.198 17.0503L119.023 16.4427L119.735 15.3316L119.023 14.2204L120.198 13.6129L120.135 12.294L121.454 12.3538L122.061 11.1797L123.172 11.8942Z" fill="#92E3A9"/>
<mask id="mask0_146_12339" style="mask-type:luminance" maskUnits="userSpaceOnUse" x="119" y="11" width="9" height="9">
<path d="M123.172 11.8942L124.286 11.1797L124.894 12.3538L126.213 12.294L126.15 13.6129L127.324 14.2204L126.613 15.3316L127.324 16.4427L126.15 17.0503L126.213 18.3692L124.894 18.3094L124.286 19.4835L123.172 18.7689L122.061 19.4835L121.454 18.3094L120.135 18.3692L120.198 17.0503L119.023 16.4427L119.735 15.3316L119.023 14.2204L120.198 13.6129L120.135 12.294L121.454 12.3538L122.061 11.1797L123.172 11.8942Z" fill="white"/>
</mask>
<g mask="url(#mask0_146_12339)">
<path d="M123.172 11.8942L124.286 11.1797L124.894 12.3538L126.213 12.294L126.15 13.6129L127.324 14.2204L126.613 15.3316L127.324 16.4427L126.15 17.0503L126.213 18.3692L124.894 18.3094L124.286 19.4835L123.172 18.7689L122.061 19.4835L121.454 18.3094L120.135 18.3692L120.198 17.0503L119.023 16.4427L119.735 15.3316L119.023 14.2204L120.198 13.6129L120.135 12.294L121.454 12.3538L122.061 11.1797L123.172 11.8942Z" fill="white" stroke="#263238" stroke-linecap="round" stroke-linejoin="round"/>
</g>
<path d="M123.172 11.8942L124.286 11.1797L124.894 12.3538L126.213 12.294L126.15 13.6129L127.324 14.2204L126.613 15.3316L127.324 16.4427L126.15 17.0503L126.213 18.3692L124.894 18.3094L124.286 19.4835L123.172 18.7689L122.061 19.4835L121.454 18.3094L120.135 18.3692L120.198 17.0503L119.023 16.4427L119.735 15.3316L119.023 14.2204L120.198 13.6129L120.135 12.294L121.454 12.3538L122.061 11.1797L123.172 11.8942Z" stroke="#263238" stroke-linecap="round" stroke-linejoin="round"/>
<path d="M92.3061 32.6414V21.0482L82.2679 15.25L72.2266 21.0482V32.6414L82.2679 38.4395L92.3061 32.6414Z" fill="white" stroke="#263238" stroke-linecap="round" stroke-linejoin="round"/>
<path d="M91.4108 61.7273V50.1341L81.3695 44.3359L71.3281 50.1341V61.7273L81.3695 67.5255L91.4108 61.7273Z" fill="white" stroke="#263238" stroke-linecap="round" stroke-linejoin="round"/>
<path d="M63.6987 27.1172V21.8384C63.696 21.0265 63.4797 20.2296 63.0713 19.5279C62.663 18.8261 62.0771 18.2442 61.3725 17.8408L56.8019 15.1967C56.0988 14.7914 55.3015 14.5781 54.4899 14.5781C53.6783 14.5781 52.881 14.7914 52.1779 15.1967L47.6073 17.8408C46.9052 18.2473 46.3222 18.8311 45.9167 19.5338C45.5112 20.2365 45.2975 21.0334 45.2969 21.8447V27.1235C45.2968 27.935 45.5103 28.7321 45.9159 29.4349C46.3214 30.1378 46.9048 30.7215 47.6073 31.1275L52.1779 33.7653C52.8805 34.1721 53.678 34.3863 54.4899 34.3863C55.3018 34.3863 56.0993 34.1721 56.8019 33.7653L61.3725 31.1275C62.0795 30.7237 62.6672 30.14 63.0757 29.4357C63.4843 28.7313 63.6992 27.9315 63.6987 27.1172Z" fill="white" stroke="#263238" stroke-linecap="round" stroke-linejoin="round"/>
<path d="M1.07031 140.25H141.549" stroke="#263238" stroke-linecap="round" stroke-linejoin="round"/>
</svg>
