<svg width="36" height="36" viewBox="0 0 36 36" fill="none" xmlns="http://www.w3.org/2000/svg">
<g clip-path="url(#clip0_5044_58067)">
<path d="M36 26C36 28.209 34.209 30 32 30H8C5.791 30 4 28.209 4 26V6.313C4 4.104 9.791 0 12 0H30.625C33.719 0 36 2.312 36 5.375V26Z" fill="#F4900C"/>
<path d="M34 30.0004C34 32.2094 32.209 34.0004 30 34.0004H10C7.791 34.0004 6 32.2094 6 30.0004V6.00036C6 1.88136 5.979 2.00036 11 2.00036H30C32.209 2.00036 34 3.79136 34 6.00036V30.0004Z" fill="#CCD6DD"/>
<path d="M32 31C32 32.657 30.657 34 29 34H7C5.343 34 4 32.657 4 31V7C4 5.343 5.343 4 7 4H29C30.657 4 32 5.343 32 7V31Z" fill="#E1E8ED"/>
<path d="M32 32C32 34.209 30.209 36 28 36H9C6.791 36 5 34.209 5 32V10C5 7.791 6.791 6 9 6H28C30.209 6 32 7.791 32 10V32Z" fill="#FFAC33"/>
<path d="M30 32C30 34.209 28.209 36 26 36H9C6.791 36 5 34.209 5 32V12C5 9.791 6.791 8 9 8H26.335C28.544 8 30 9.456 30 11.665V32Z" fill="#FFCC4D"/>
<path d="M9 6C7.312 6 7.269 4.078 8 3.25C8.832 2.309 10.125 2 12.438 2H14V0H11.281C7.312 0 4 2.5 4 5.375V32C4 34.209 5.791 36 8 36H10V6H9Z" fill="#F4900C"/>
<path d="M8.5415 32.9819C8.5415 33.6839 7.8745 34.2529 7.0515 34.2529C6.2295 34.2529 5.5625 33.6839 5.5625 32.9819C5.5625 32.2809 6.2295 31.7109 7.0515 31.7109C7.8745 31.7109 8.5415 32.2799 8.5415 32.9819Z" fill="#662113"/>
<path d="M6.89303 32.2748C6.41303 32.3298 6.10103 32.6498 5.87603 33.0038C5.56903 33.4888 4.86903 34.0038 3.99903 34.0038C2.89503 34.0038 1.99903 33.3328 1.99903 32.5038C1.99903 31.6748 2.89503 31.0038 3.99903 31.0038V29.0078C1.83203 29.0288 0.0820312 30.5828 0.0820312 32.5038C0.0820312 34.4378 1.85403 36.0038 4.04003 36.0038C5.89403 36.0038 7.38703 34.9588 7.94103 33.4348C8.21803 32.6758 7.47203 32.2108 6.89303 32.2748Z" fill="#66757F"/>
<path d="M8.5415 24.9819C8.5415 25.6839 7.8745 26.2529 7.0515 26.2529C6.2295 26.2529 5.5625 25.6839 5.5625 24.9819C5.5625 24.2809 6.2295 23.7109 7.0515 23.7109C7.8745 23.7109 8.5415 24.2799 8.5415 24.9819Z" fill="#662113"/>
<path d="M6.89303 24.2748C6.41303 24.3298 6.10103 24.6498 5.87603 25.0038C5.56903 25.4888 4.86903 26.0038 3.99903 26.0038C2.89503 26.0038 1.99903 25.3328 1.99903 24.5038C1.99903 23.6748 2.89503 23.0038 3.99903 23.0038V21.0078C1.83203 21.0288 0.0820312 22.5828 0.0820312 24.5038C0.0820312 26.4378 1.85403 28.0038 4.04003 28.0038C5.89403 28.0038 7.38703 26.9588 7.94103 25.4348C8.21803 24.6758 7.47203 24.2108 6.89303 24.2748Z" fill="#66757F"/>
<path d="M8.5415 16.9819C8.5415 17.6839 7.8745 18.2529 7.0515 18.2529C6.2295 18.2529 5.5625 17.6839 5.5625 16.9819C5.5625 16.2809 6.2295 15.7109 7.0515 15.7109C7.8745 15.7109 8.5415 16.2799 8.5415 16.9819Z" fill="#662113"/>
<path d="M6.89303 16.2748C6.41303 16.3298 6.10103 16.6498 5.87603 17.0038C5.56903 17.4888 4.86903 18.0038 3.99903 18.0038C2.89503 18.0038 1.99903 17.3328 1.99903 16.5038C1.99903 15.6748 2.89503 15.0038 3.99903 15.0038V13.0078C1.83203 13.0288 0.0820312 14.5828 0.0820312 16.5038C0.0820312 18.4378 1.85403 20.0038 4.04003 20.0038C5.89403 20.0038 7.38703 18.9588 7.94103 17.4348C8.21803 16.6758 7.47203 16.2108 6.89303 16.2748Z" fill="#66757F"/>
<path d="M8.5415 8.98194C8.5415 9.68394 7.8745 10.2529 7.0515 10.2529C6.2295 10.2529 5.5625 9.68394 5.5625 8.98194C5.5625 8.28094 6.2295 7.71094 7.0515 7.71094C7.8745 7.71094 8.5415 8.27994 8.5415 8.98194Z" fill="#662113"/>
<path d="M6.89303 8.27481C6.41303 8.32981 6.10103 8.64981 5.87603 9.00381C5.56903 9.48881 4.86903 10.0038 3.99903 10.0038C2.89503 10.0038 1.99903 9.33281 1.99903 8.50381C1.99903 7.67481 2.89503 7.00381 3.99903 7.00381V5.00781C1.83303 5.02781 0.0820312 6.58281 0.0820312 8.50381C0.0820312 10.4378 1.85403 12.0038 4.04003 12.0038C5.89403 12.0038 7.38703 10.9588 7.94103 9.43481C8.21803 8.67581 7.47203 8.21081 6.89303 8.27481Z" fill="#66757F"/>
</g>
<defs>
<clipPath id="clip0_5044_58067">
<rect width="36" height="36" fill="white"/>
</clipPath>
</defs>
</svg>
