<svg xmlns="http://www.w3.org/2000/svg" viewBox="0 0 47.5 47.5" id="memo"><defs><clipPath id="a"><path d="M0 38h38V0H0v38Z"></path></clipPath></defs><g clip-path="url(#a)" transform="matrix(1.25 0 0 -1.25 0 47.5)"><path fill="#ccd6dd" d="M32 5a4 4 0 0 0-4-4H6a4 4 0 0 0-4 4v28a4 4 0 0 0 4 4h22a4 4 0 0 0 4-4V5Z"></path><path fill="#99aab5" d="M28 13a1 1 0 0 0-1-1H7a1 1 0 1 0 0 2h20a1 1 0 0 0 1-1M12 9a1 1 0 0 0-1-1H7a1 1 0 1 0 0 2h4a1 1 0 0 0 1-1M28 29a1 1 0 0 0-1-1H7a1 1 0 0 0 0 2h20a1 1 0 0 0 1-1M28 25a1 1 0 0 0-1-1H7a1 1 0 1 0 0 2h20a1 1 0 0 0 1-1M28 21a1 1 0 0 0-1-1H7a1 1 0 1 0 0 2h20a1 1 0 0 0 1-1M28 17a1 1 0 0 0-1-1H7a1 1 0 1 0 0 2h20a1 1 0 0 0 1-1"></path><path fill="#66757f" d="M32 30.728c-.827.535-1.837.579-2.521.022l-.792-.645-1.484-1.211-.099-.08-2.376-1.938-11.879-9.686c-.437-.357-.793-1.218-1.173-2.074-.379-.849-.969-2.851-1.443-4.39-.149-.25-1.065-1.846-.551-2.454.519-.615 2.326-.009 2.568.077 1.626.173 3.731.373 4.648.58.925.211 1.854.394 2.291.752.008.005.01.017.018.023l11.857 9.666.792.646.144.117v10.595Z"></path><path fill="#d99e82" d="M19.145 14.474s-1.274 1.881-2.117 2.553c-.672.843-2.55 2.116-2.55 2.116-.448.446-1.191.48-1.628.043-.437-.438-.793-1.366-1.174-2.291-.471-1.146-1.276-4.154-1.768-5.752-.083-.273.517.45.504.21-.01-.187.026-.394.073-.581l-.145-.158.209-.068c.025-.082.05-.154.068-.21l.159.146c.187-.047.394-.084.581-.074.24.013-.483-.587-.211-.503 1.598.493 4.608 1.296 5.753 1.767.924.381 1.854.737 2.291 1.174.437.437.404 1.18-.045 1.628"></path><path fill="#ea596e" d="M26.313 32.649a2.238 2.238 0 0 1 0-3.168l3.167-3.168a2.242 2.242 0 0 1 3.168 0l3.169 3.168a2.242 2.242 0 0 1 0 3.168l-3.169 3.167a2.24 2.24 0 0 1-3.168 0l-3.167-3.167Z"></path><path fill="#ffcc4d" d="m12.85 19.186 3.17-3.17c2.374-2.374 3.164-3.166 3.164-3.166l11.881 11.879-6.337 6.336L12.85 19.186Z"></path><path fill="#292f33" d="M12.298 10.258s-2.06-1.133-2.616-.576c-.557.557.581 2.611.581 2.611s1.952-.036 2.035-2.035"></path><path fill="#ccd6dd" d="m28.688 35.025 6.336-6.336-3.959-3.96-6.337 6.336 3.96 3.96Z"></path><path fill="#99aab5" d="m27.104 33.44 6.336-6.335.793.791-6.336 6.336-.793-.792ZM25.52 31.857l6.336-6.336.791.792-6.335 6.336-.792-.792Z"></path></g></svg>