<svg width="36" height="36" viewBox="0 0 36 36" fill="none" xmlns="http://www.w3.org/2000/svg">
<path d="M31 32C31 34.209 29.209 36 27 36H5C2.791 36 1 34.209 1 32V4C1 1.791 2.791 0 5 0H27C29.209 0 31 1.791 31 4V32Z" fill="#CCD6DD"/>
<path d="M27 24C27 24.553 26.553 25 26 25H6C5.448 25 5 24.553 5 24C5 23.447 5.448 23 6 23H26C26.553 23 27 23.447 27 24ZM11 28C11 28.553 10.552 29 10 29H6C5.448 29 5 28.553 5 28C5 27.447 5.448 27 6 27H10C10.552 27 11 27.447 11 28ZM27 8C27 8.552 26.553 9 26 9H6C5.448 9 5 8.552 5 8C5 7.448 5.448 7 6 7H26C26.553 7 27 7.448 27 8ZM27 12C27 12.553 26.553 13 26 13H6C5.448 13 5 12.553 5 12C5 11.447 5.448 11 6 11H26C26.553 11 27 11.447 27 12ZM27 16C27 16.553 26.553 17 26 17H6C5.448 17 5 16.553 5 16C5 15.447 5.448 15 6 15H26C26.553 15 27 15.447 27 16ZM27 20C27 20.553 26.553 21 26 21H6C5.448 21 5 20.553 5 20C5 19.447 5.448 19 6 19H26C26.553 19 27 19.447 27 20Z" fill="#99AAB5"/>
<path d="M31.0003 6.27257C30.1733 5.73757 29.1633 5.69357 28.4793 6.24957L27.6873 6.89557L26.2033 8.10657L26.1033 8.18657L23.7273 10.1246L11.8493 19.8106C11.4123 20.1676 11.0563 21.0296 10.6763 21.8846C10.2983 22.7346 9.70729 24.7366 9.23329 26.2756C9.08529 26.5256 8.16829 28.1216 8.68229 28.7286C9.20229 29.3436 11.0083 28.7386 11.2503 28.6526C12.8763 28.4786 14.9813 28.2796 15.8983 28.0726C16.8223 27.8616 17.7523 27.6776 18.1893 27.3206C18.1973 27.3146 18.1993 27.3026 18.2063 27.2976L30.0643 17.6316L30.8563 16.9856L31.0003 16.8676V6.27257Z" fill="#66757F"/>
<path d="M18.1462 22.5223C18.1462 22.5223 16.8722 20.6413 16.0292 19.9693C15.3572 19.1263 13.4802 17.8533 13.4802 17.8533C13.0322 17.4073 12.2892 17.3733 11.8512 17.8103C11.4142 18.2483 11.0582 19.1763 10.6782 20.1013C10.2062 21.2473 9.40223 24.2553 8.91023 25.8533C8.82723 26.1253 9.42723 25.4033 9.41323 25.6433C9.40323 25.8303 9.44023 26.0373 9.48723 26.2243L9.34123 26.3833L9.54923 26.4503C9.57423 26.5323 9.59923 26.6043 9.61723 26.6603L9.77623 26.5143C9.96323 26.5613 10.1702 26.5983 10.3562 26.5883C10.5962 26.5743 9.87323 27.1753 10.1462 27.0913C11.7442 26.5983 14.7532 25.7953 15.8982 25.3233C16.8222 24.9423 17.7522 24.5873 18.1892 24.1493C18.6282 23.7143 18.5952 22.9713 18.1462 22.5223Z" fill="#D99E82"/>
<path d="M25.3133 4.34769C24.4373 5.22269 24.4373 6.64069 25.3133 7.51569L28.4802 10.6837C29.3562 11.5577 30.7742 11.5577 31.6482 10.6837L34.8173 7.51569C35.6913 6.64069 35.6913 5.22269 34.8173 4.34769L31.6482 1.17969C30.7742 0.304688 29.3562 0.304688 28.4802 1.17969L25.3133 4.34769Z" fill="#EA596E"/>
<path d="M11.8477 17.8165L15.0177 20.9865L18.1827 24.1525L30.0637 12.2735L23.7267 5.9375L11.8477 17.8165Z" fill="#FFCC4D"/>
<path d="M11.2968 26.7381C11.2968 26.7381 9.23685 27.8711 8.68085 27.3141C8.12385 26.7561 9.26185 24.7031 9.26185 24.7031C9.26185 24.7031 11.2128 24.7391 11.2968 26.7381Z" fill="#292F33"/>
<path d="M23.7266 5.93656L27.6866 1.97656L34.0226 8.31356L30.0626 12.2736L23.7266 5.93656Z" fill="#CCD6DD"/>
<path d="M26.1025 3.55763L26.8945 2.76562L33.2305 9.10063L32.4385 9.89262L26.1025 3.55763ZM24.5195 5.14163L25.3105 4.35062L31.6465 10.6856L30.8545 11.4776L24.5195 5.14163Z" fill="#99AAB5"/>
</svg>
