<svg width="36" height="36" viewBox="0 0 36 36" fill="none" xmlns="http://www.w3.org/2000/svg">
<g clip-path="url(#clip0_5044_56513)">
<path d="M35.6034 16.2764C33.0214 12.5154 27.6834 18.0504 17.9414 19.1754C14.3344 19.5914 11.0844 22.6034 6.89436 22.3164C5.17636 22.1984 2.77736 17.2554 0.981355 18.0434C0.057355 18.4494 -0.366645 19.8044 0.583355 20.8224L11.1314 33.4084C11.1314 33.4084 11.6674 34.0264 13.4734 33.5984C13.9184 33.7294 20.6084 31.0484 24.4764 25.6814C25.4024 24.3964 26.5064 23.3264 27.6494 22.4324C31.3604 19.6884 35.3944 18.7324 35.3944 18.7324C35.9104 18.3064 36.0314 17.8534 36.0034 17.4604C36.0374 16.8044 35.6034 16.2764 35.6034 16.2764Z" fill="#5C913B"/>
<path d="M11.4768 10.2736C7.69379 15.5236 1.06879 18.0106 1.06879 18.0106C-0.167211 19.0576 0.876789 20.2916 0.876789 20.2916L11.3148 32.6506C11.3148 32.6506 11.8368 33.2676 13.5948 32.8396C13.5948 32.8396 20.2198 30.3576 24.0018 25.1076C27.9008 19.6976 34.9318 17.9896 34.9318 17.9896C36.1668 16.9426 35.1238 15.7066 35.1238 15.7066L24.6858 3.34961C24.6858 3.34961 24.1638 2.73161 22.4058 3.15761C22.4058 3.15761 15.3758 4.86161 11.4768 10.2736Z" fill="#A7D28B"/>
<path d="M22 19.5C25.0376 19.5 27.5 17.0376 27.5 14C27.5 10.9624 25.0376 8.5 22 8.5C18.9624 8.5 16.5 10.9624 16.5 14C16.5 17.0376 18.9624 19.5 22 19.5Z" fill="#77B255"/>
<path d="M12.8723 31.9274C11.9913 31.9274 11.6683 31.5994 11.6243 31.5494L2.21533 20.5664C2.19733 20.5454 1.72033 19.9994 1.77833 19.3054C1.81333 18.8844 2.03133 18.5094 2.42533 18.1904L2.48833 18.1524C2.54933 18.1284 8.65132 15.6204 12.0713 11.0874L12.2713 11.2374L12.0713 11.0874C15.6893 6.2914 21.9303 4.2334 21.9923 4.2134C23.7373 3.8074 24.3083 4.3874 24.3693 4.4554L33.6543 15.4994C33.6713 15.5174 34.1473 16.0654 34.0893 16.7604C34.0543 17.1804 33.8363 17.5554 33.4423 17.8744L33.3433 17.9234C33.2823 17.9384 27.2143 19.4464 23.6993 24.1044C20.2003 28.7444 14.0923 31.7464 14.0313 31.7754C13.5673 31.8854 13.1853 31.9274 12.8723 31.9274ZM12.0013 31.2204C12.0023 31.2204 12.4533 31.6364 13.8663 31.3084C13.8743 31.2974 19.8753 28.3464 23.3023 23.8044C26.7393 19.2494 32.5273 17.6224 33.1693 17.4534C33.4263 17.2324 33.5683 16.9874 33.5913 16.7244C33.6333 16.2444 33.2793 15.8314 33.2763 15.8274L23.9913 4.7824C23.9893 4.7824 23.5413 4.3674 22.1273 4.6954C22.0863 4.7094 15.9923 6.7214 12.4713 11.3884C9.10532 15.8494 3.23232 18.3834 2.71332 18.6014C2.44532 18.8264 2.29932 19.0774 2.27632 19.3464C2.23632 19.8224 2.58832 20.2334 2.59132 20.2374L12.0013 31.2204Z" fill="#5C913B"/>
<path d="M21.2755 22.1676L21.2695 28.1076L21.7665 28.6976C22.7355 27.8136 23.6665 26.8196 24.4715 25.7016C25.3065 24.5436 26.2765 23.5526 27.2995 22.7156L26.8165 22.1406L21.2755 22.1676Z" fill="#FFAC33"/>
<path d="M26.7974 22.1177L14.2914 7.30469C13.2754 8.14069 12.2994 9.11569 11.4694 10.2687C10.6584 11.3947 9.71438 12.3857 8.73438 13.2597L10.1964 14.9907L10.1954 14.9917L21.2704 28.1057C22.2504 27.2307 23.1834 26.2297 23.9954 25.1027C24.8254 23.9507 25.8004 22.9767 26.8154 22.1407L26.7964 22.1177H26.7974Z" fill="#FFE8B6"/>
<path d="M14.4788 22.5567C12.9218 20.7127 9.62578 23.7047 8.68578 22.5917C8.23078 22.0527 8.52378 21.3537 9.12178 20.8497C10.1268 19.9997 10.8518 20.4947 11.3068 20.1097C11.6298 19.8377 11.6128 19.5047 11.4208 19.2757C10.9748 18.7487 9.83478 19.0237 8.94878 19.5357L8.51778 19.0257C8.24878 18.7077 7.77278 18.6667 7.45478 18.9357C7.13678 19.2057 7.09678 19.6797 7.36578 19.9977L7.81178 20.5267C7.13478 21.4247 6.90478 22.6167 7.70578 23.5637C9.20178 25.3337 12.5388 22.3917 13.5888 23.6357C13.9528 24.0677 13.8508 24.8917 13.0848 25.5377C11.9368 26.5087 10.8968 26.0537 10.4298 26.4477C10.2018 26.6387 10.1608 27.0027 10.4038 27.2917C10.7908 27.7487 12.0238 27.6507 13.2088 26.9127C13.2108 26.9147 13.2108 26.9167 13.2108 26.9187L13.6978 27.4947C13.9668 27.8127 14.4438 27.8517 14.7618 27.5847C15.0808 27.3147 15.1198 26.8387 14.8508 26.5207L14.3638 25.9447C14.3588 25.9387 14.3508 25.9347 14.3448 25.9287C15.1438 24.9507 15.4138 23.6617 14.4788 22.5567Z" fill="#5C913B"/>
<path d="M32.4576 32.5863C32.4666 32.5783 32.4766 32.5723 32.4856 32.5653C32.5536 32.4973 32.6066 32.4193 32.6666 32.3443C32.7086 32.2923 32.7556 32.2423 32.7946 32.1893C32.8296 32.1393 32.8586 32.0883 32.8906 32.0373C34.3106 29.8503 33.3806 26.1423 30.5696 23.3303C27.7576 20.5183 24.0486 19.5883 21.8626 21.0093C21.8106 21.0403 21.7596 21.0693 21.7096 21.1053C21.6566 21.1443 21.6056 21.1913 21.5556 21.2323C21.4816 21.2933 21.4036 21.3453 21.3346 21.4143C21.3256 21.4233 21.3196 21.4333 21.3126 21.4423C21.3016 21.4533 21.2886 21.4603 21.2766 21.4723L21.2826 21.4773C20.2826 22.5393 20.2706 24.1823 21.2766 25.1893C22.2846 26.1973 23.9266 26.1833 24.9896 25.1833L25.0006 25.1953C24.9796 25.2153 24.9566 25.2283 24.9366 25.2483C23.8776 26.3073 23.8526 27.9963 24.8776 29.0233C25.9036 30.0483 27.5946 30.0233 28.6526 28.9643C28.6726 28.9443 28.6856 28.9213 28.7056 28.9003L28.7166 28.9123C27.7166 29.9743 27.7036 31.6173 28.7116 32.6253C29.7186 33.6313 31.3606 33.6193 32.4226 32.6193L32.4286 32.6253C32.4386 32.6113 32.4466 32.5983 32.4576 32.5863Z" fill="#E1E8ED"/>
<path d="M21.2761 25.2309C22.1821 26.1359 23.5971 26.2099 24.6461 25.4919C25.0851 24.7419 25.2111 24.0289 25.2111 23.8059C23.0041 25.4519 21.0341 23.8149 20.5931 22.8359C20.4101 23.6819 20.6321 24.5859 21.2761 25.2309ZM28.5751 29.0709C28.8731 28.6519 29.1041 28.2469 29.2121 27.9729C27.8071 29.2609 25.1211 28.3179 24.3071 26.2749C23.9491 27.2249 24.1321 28.3189 24.8781 29.0649C25.8801 30.0669 27.5121 30.0589 28.5751 29.0709ZM32.4291 32.6659L32.4581 32.6299C32.4681 32.6219 32.4781 32.6159 32.4861 32.6079C32.5551 32.5399 32.6081 32.4619 32.6671 32.3879C32.7101 32.3349 32.7561 32.2859 32.7951 32.2319C32.8311 32.1829 32.8601 32.1309 32.8921 32.0799C32.9571 31.9799 32.9921 31.8619 33.0471 31.7559C30.5191 32.8869 28.6321 30.9679 28.1031 30.0109C27.8081 30.9279 28.0001 31.9549 28.7121 32.6679C29.7181 33.6749 31.3601 33.6629 32.4231 32.6619L32.4291 32.6659Z" fill="#CCD6DD"/>
<path d="M13.9556 12.5015L13.9836 12.4795C14.0526 12.4115 14.1056 12.3335 14.1646 12.2595C14.2066 12.2075 14.2526 12.1585 14.2916 12.1045C14.3276 12.0545 14.3566 12.0035 14.3886 11.9525C15.8086 9.76545 14.8776 6.05645 12.0666 3.24545C9.25458 0.433453 5.54658 -0.497547 3.35958 0.922453C3.30858 0.954453 3.25658 0.983453 3.20658 1.01945C3.15258 1.05845 3.10358 1.10445 3.05158 1.14645C2.97758 1.20645 2.89958 1.25845 2.83158 1.32745C2.82258 1.33645 2.81658 1.34745 2.80958 1.35545C2.79858 1.36545 2.78458 1.37445 2.77358 1.38545L2.77858 1.39045C1.77858 2.45245 1.76658 4.09545 2.77358 5.10245C3.78058 6.10945 5.42358 6.09745 6.48558 5.09745L6.49658 5.10845C6.47558 5.12745 6.45258 5.14145 6.43258 5.16145C5.37358 6.22045 5.34858 7.90945 6.37458 8.93645C7.40058 9.96345 9.09058 9.93745 10.1496 8.87845C10.1696 8.85845 10.1826 8.83545 10.2026 8.81445L10.2136 8.82545C9.21358 9.88745 9.20058 11.5305 10.2086 12.5375C11.2156 13.5445 12.8576 13.5325 13.9196 12.5315L13.9246 12.5375C13.9356 12.5265 13.9446 12.5135 13.9556 12.5015Z" fill="#E1E8ED"/>
<path d="M2.77217 5.10012C3.67817 6.00612 5.09317 6.08013 6.14217 5.36013C6.58117 4.61013 6.70617 3.89812 6.70617 3.67512C4.50017 5.32012 2.52917 3.68212 2.08917 2.70312C1.90617 3.55013 2.12817 4.45512 2.77217 5.10012ZM10.0732 8.93812C10.3702 8.51912 10.6012 8.11613 10.7082 7.84212C9.30217 9.13013 6.61617 8.18612 5.80317 6.14313C5.44517 7.09312 5.62817 8.18712 6.37317 8.93312C7.37717 9.93612 9.01017 9.92712 10.0732 8.93812ZM13.9242 12.5351C13.9352 12.5241 13.9442 12.5111 13.9542 12.4991L13.9822 12.4771C14.0512 12.4091 14.1042 12.3311 14.1632 12.2571C14.2052 12.2051 14.2512 12.1561 14.2902 12.1021C14.3262 12.0521 14.3552 12.0011 14.3872 11.9501C14.4522 11.8501 14.4872 11.7311 14.5422 11.6251C12.0142 12.7561 10.1272 10.8381 9.59817 9.88112C9.30317 10.7981 9.49517 11.8251 10.2072 12.5371C11.2142 13.5441 12.8562 13.5321 13.9182 12.5311L13.9242 12.5351Z" fill="#CCD6DD"/>
</g>
<defs>
<clipPath id="clip0_5044_56513">
<rect width="36" height="36" fill="white"/>
</clipPath>
</defs>
</svg>
