<svg xmlns="http://www.w3.org/2000/svg" width="64" height="64" id="notes"><path d="M59.614 11.268H42.271V4.375a1 1 0 0 0-1.874-.486l-.445.801-.449-.803a1.001 1.001 0 0 0-.873-.512h-.003a1.001 1.001 0 0 0-.873.517l-.433.785-.437-.787a1.001 1.001 0 0 0-1.748 0l-.441.795-.442-.795a1 1 0 0 0-1.874.486v6.893H16.203a1 1 0 0 0-1 1l.001 27.777c-.208 4.289-.549 7.873-1.012 10.688H4.386a1 1 0 0 0-.93 1.366c.033.085 3.459 8.527 7.402 8.527H54.277c.007 0 .012-.003.018-.003.756-.01 1.447-.298 2.043-.854.838-.756 1.526-1.994 2.102-3.777 1.099-3.334 1.83-8.735 2.176-16.098V12.268c-.002-.553-.449-1-1.002-1zM34.378 7.692c.436.147.962-.05 1.19-.463l.441-.793.44.793a.999.999 0 0 0 .874.515h.001c.364 0 .699-.199.875-.517l.437-.792.445.797c.177.316.511.512.873.512h.001c.109 0 .215-.018.315-.051v11.52a.999.999 0 0 0-1.19.464l-.441.794-.441-.794a1.001 1.001 0 0 0-.874-.514h-.002a1 1 0 0 0-.874.518l-.436.791-.445-.796a1.001 1.001 0 0 0-.873-.512h-.001c-.109 0-.215.018-.315.051V7.692zM10.857 58.625c-1.534 0-3.715-3.474-4.918-5.893h41.194c.36.782 1.028 2.138 1.864 3.47.202.328.402.63.603.921l.152.22c.197.278.393.544.587.786l.063.074c.118.146.236.289.354.421H10.857zm45.679-3.254c-.572 1.775-1.153 2.564-1.552 2.923-.317.297-.567.331-.728.331-.887 0-2.217-1.298-3.562-3.479-1.188-1.894-1.97-3.756-1.974-3.764-.006-.015-.017-.026-.022-.041-.006-.014-.016-.025-.021-.039a1.017 1.017 0 0 0-.256-.329.972.972 0 0 0-.165-.111c-.049-.028-.096-.055-.15-.074-.044-.015-.091-.019-.137-.028-.065-.013-.125-.039-.194-.039-.019 0-.034.01-.053.011H16.221c.452-2.85.774-6.336.982-10.64v-.005l.002-.01c.006-.063.01-.127.01-.186 0-.021-.011-.038-.012-.058V13.268h15.175v9.261a1 1 0 0 0 1.874.486l.445-.801.449.803c.177.316.511.512.873.512h.003a1 1 0 0 0 .873-.518l.433-.785.438.789a1.001 1.001 0 0 0 1.748-.001l.441-.794.441.794c.051.091.116.168.188.237.026.025.056.043.084.065a.974.974 0 0 0 .27.148c.057.02.113.033.173.043.039.006.076.014.116.015.015.001.027.006.042.006a1 1 0 0 0 1-1v-9.261h16.343l.001 26.578c-.334 7.136-1.032 12.357-2.077 15.526z"></path><path d="M51.726 26.501c-1.157 0-1.799.411-2.268.71-.386.247-.619.396-1.191.396s-.806-.149-1.19-.396c-.469-.299-1.111-.71-2.268-.71s-1.798.411-2.266.71c-.385.247-.617.395-1.188.395s-.803-.148-1.188-.395c-.468-.3-1.109-.71-2.265-.71s-1.797.411-2.265.711c-.385.246-.616.395-1.187.395-.568 0-.8-.148-1.184-.395-.468-.3-1.109-.711-2.265-.711s-1.797.411-2.265.711c-.385.246-.616.395-1.187.395s-.803-.148-1.188-.395c-.468-.3-1.109-.71-2.265-.71a1 1 0 1 0 0 2c.57 0 .802.148 1.187.395.468.3 1.109.711 2.266.711 1.155 0 1.797-.411 2.265-.711.385-.246.616-.395 1.187-.395.569 0 .801.148 1.185.395.468.3 1.109.711 2.264.711 1.155 0 1.797-.411 2.265-.711.385-.246.616-.395 1.187-.395s.802.148 1.187.395c.468.3 1.109.711 2.266.711s1.798-.411 2.266-.71c.385-.247.617-.395 1.188-.395s.805.149 1.189.395c.469.3 1.111.71 2.269.71s1.799-.411 2.268-.71c.386-.247.619-.396 1.191-.396a1 1 0 1 0 0-2.001zm0 7.696c-1.157 0-1.799.411-2.268.71-.386.247-.619.396-1.191.396s-.806-.149-1.19-.396c-.469-.299-1.111-.71-2.268-.71s-1.798.411-2.266.71c-.385.247-.617.395-1.188.395s-.803-.148-1.188-.395c-.468-.3-1.109-.71-2.265-.71s-1.797.411-2.265.711c-.385.246-.616.395-1.187.395-.568 0-.8-.148-1.184-.395-.468-.3-1.109-.711-2.265-.711s-1.797.411-2.265.711c-.385.246-.616.395-1.187.395s-.803-.148-1.188-.395c-.468-.3-1.109-.71-2.265-.71a1 1 0 1 0 0 2c.57 0 .802.148 1.187.395.468.3 1.109.711 2.266.711 1.155 0 1.797-.411 2.265-.711.385-.246.616-.395 1.187-.395.569 0 .801.148 1.185.395.468.3 1.109.711 2.264.711 1.155 0 1.797-.411 2.265-.711.385-.246.616-.395 1.187-.395s.802.148 1.187.395c.468.3 1.109.711 2.266.711s1.798-.411 2.266-.71c.385-.247.617-.395 1.188-.395s.805.149 1.189.395c.469.3 1.111.71 2.269.71s1.799-.411 2.268-.71c.386-.247.619-.396 1.191-.396a1 1 0 1 0 0-2.001zm0 7.5c-1.157 0-1.799.411-2.268.71-.386.247-.619.396-1.191.396s-.806-.149-1.19-.396c-.469-.299-1.111-.71-2.268-.71s-1.798.411-2.266.71c-.385.247-.617.395-1.188.395s-.803-.148-1.188-.395c-.468-.3-1.109-.71-2.265-.71s-1.797.411-2.265.711c-.385.246-.616.395-1.187.395-.568 0-.8-.148-1.184-.395-.468-.3-1.109-.711-2.265-.711s-1.797.411-2.265.711c-.385.246-.616.395-1.187.395s-.803-.148-1.188-.395c-.468-.3-1.109-.71-2.265-.71a1 1 0 1 0 0 2c.57 0 .802.148 1.187.395.468.3 1.109.711 2.266.711 1.155 0 1.797-.411 2.265-.711.385-.246.616-.395 1.187-.395.569 0 .801.148 1.185.395.468.3 1.109.711 2.264.711 1.155 0 1.797-.411 2.265-.711.385-.246.616-.395 1.187-.395s.802.148 1.187.395c.468.3 1.109.711 2.266.711s1.798-.411 2.266-.71c.385-.247.617-.395 1.188-.395s.805.149 1.189.395c.469.3 1.111.71 2.269.71s1.799-.411 2.268-.71c.386-.247.619-.396 1.191-.396a1 1 0 1 0 0-2.001z"></path></svg>