<svg xmlns="http://www.w3.org/2000/svg" viewBox="0 0 80 80" id="payment"><path d="M5 66.267a1 1 0 0 0 1 1h4.342a5.274 5.274 0 0 0 5.268-5.269v-.01c2.309.132 4.601.692 6.684 1.692l15.75 7.562c1.054.506 2.19.76 3.328.76a7.69 7.69 0 0 0 3.17-.686l29.43-13.322c.466-.241.814-.669.956-1.174a1.912 1.912 0 0 0-.202-1.5c-2.259-3.737-6.51-5.716-10.78-5.044l-14.53 1.725a5.363 5.363 0 0 0 .342-1.874 5.408 5.408 0 0 0-5.402-5.402h-7.723l-.027-.028a15.29 15.29 0 0 0-10.883-4.508H15.61v-.6a5.274 5.274 0 0 0-5.268-5.269H6a1 1 0 0 0-1 1v30.947zm20.723-24.078c3.576 0 6.94 1.393 9.469 3.922l.32.32a1 1 0 0 0 .707.294h8.137c1.876 0 3.402 1.526 3.402 3.402s-1.526 3.401-3.402 3.401H26.749a1 1 0 1 0 0 2h17.607a5.374 5.374 0 0 0 3.542-1.333l16.32-1.937a8.714 8.714 0 0 1 8.766 3.99L43.718 69.494a5.68 5.68 0 0 1-4.809-.055l-15.75-7.562a19.882 19.882 0 0 0-7.549-1.918V42.19h10.113zM7 36.32h3.342a3.272 3.272 0 0 1 3.268 3.269v22.409a3.272 3.272 0 0 1-3.268 3.269H7V36.32zM73 8H29c-1.103 0-2 .897-2 2v26c0 1.103.897 2 2 2h44c1.103 0 2-.897 2-2V10c0-1.103-.897-2-2-2zm0 8.173A7.254 7.254 0 0 1 66.827 10H73v6.173zM35.173 10A7.254 7.254 0 0 1 29 16.173V10h6.173zM29 29.827A7.254 7.254 0 0 1 35.173 36H29v-6.173zM37.196 36A9.267 9.267 0 0 0 29 27.804v-9.608A9.267 9.267 0 0 0 37.196 10h27.608A9.267 9.267 0 0 0 73 18.196v9.608A9.267 9.267 0 0 0 64.804 36H37.196zm29.631 0A7.254 7.254 0 0 1 73 29.827V36h-6.173z"></path><path d="M51 16.585c1.654 0 3 1.215 3 2.707a1 1 0 1 0 2 0c0-2.273-1.72-4.175-4-4.612V14a1 1 0 1 0-2 0v.68c-2.28.437-4 2.339-4 4.612C46 21.888 48.243 24 51 24c1.654 0 3 1.215 3 2.708 0 1.492-1.346 2.707-3 2.707s-3-1.215-3-2.707a1 1 0 1 0-2 0c0 2.273 1.72 4.175 4 4.612V32a1 1 0 1 0 2 0v-.68c2.28-.437 4-2.339 4-4.612C56 24.112 53.757 22 51 22c-1.654 0-3-1.215-3-2.708 0-1.492 1.346-2.707 3-2.707zM65 20h-3a1 1 0 1 0 0 2h3a1 1 0 1 0 0-2zm0 4h-3a1 1 0 1 0 0 2h3a1 1 0 1 0 0-2zm-25-4h-3a1 1 0 1 0 0 2h3a1 1 0 1 0 0-2zm0 4h-3a1 1 0 1 0 0 2h3a1 1 0 1 0 0-2z"></path></svg>