<svg width="140" height="140" viewBox="0 0 140 140" fill="none" xmlns="http://www.w3.org/2000/svg">
<path d="M104.648 69.0434C104.403 69.2267 104.129 69.3679 103.837 69.4612C103.035 69.7382 102.162 69.7271 101.368 69.4298C100.817 69.2288 100.322 68.9005 99.9225 68.4716C99.463 67.9762 99.1451 67.3664 99.002 66.7059C98.9214 66.3507 98.896 65.9851 98.9266 65.6221C98.9529 65.2424 99.0388 64.8692 99.1811 64.5162C99.4775 63.7667 100.006 63.132 100.69 62.7051C101.374 62.2782 102.176 62.0816 102.979 62.1442C103.726 62.203 104.439 62.4818 105.028 62.9453C105.558 63.3639 105.966 63.9173 106.209 64.5476C106.42 65.0944 106.498 65.6832 106.438 66.2661C106.354 67.1107 105.98 67.9001 105.38 68.4999C105.167 68.7203 104.92 68.904 104.648 69.0434C104.884 68.8586 105.11 68.6603 105.323 68.4496C105.884 67.8462 106.225 67.0714 106.291 66.2504C106.34 65.6923 106.257 65.1305 106.049 64.6104C105.811 64.0137 105.418 63.4911 104.912 63.0961C104.64 62.8831 104.338 62.7115 104.016 62.5872C103.681 62.4525 103.327 62.3729 102.967 62.3515C102.208 62.294 101.45 62.4802 100.804 62.8831C100.158 63.286 99.658 63.8845 99.3759 64.5916C99.2397 64.9253 99.157 65.2783 99.1308 65.6378C99.0992 65.9814 99.1204 66.3279 99.1937 66.6651C99.317 67.2537 99.5854 67.8022 99.9743 68.2608C100.363 68.7195 100.861 69.0738 101.421 69.2916C102.186 69.5894 103.029 69.6215 103.815 69.3827C104.381 69.2099 104.635 69.0214 104.648 69.0434Z" fill="#E0E0E0"/>
<path d="M105.319 73.9285L105.413 74.0133L105.696 74.2866L106.802 75.3768H106.761L109.664 73.5389L109.642 73.6018C109.431 73.0111 109.199 72.3451 108.951 71.6445V71.6099L108.976 71.5816C109.484 71.0384 109.917 70.4286 110.261 69.7689L110.28 69.7312H112.4L112.325 69.7877C112.567 68.7352 112.824 67.6137 113.091 66.4387L113.135 66.5329L111.266 65.6344L111.219 65.6124V65.559C111.195 64.8128 111.071 64.0732 110.851 63.3598L110.836 63.3064L110.873 63.2687C111.332 62.8163 111.835 62.3262 112.347 61.8046V61.924L110.487 59.0242L110.603 59.0651L108.646 59.75L108.586 59.7688L108.542 59.728C108.001 59.2221 107.396 58.7901 106.742 58.443L106.685 58.4147V58.3519C106.685 57.7016 106.685 56.9947 106.685 56.2752L106.767 56.3789L103.434 55.6092L103.553 55.5526L102.648 57.4377L102.623 57.4942H102.557C101.819 57.518 101.087 57.6395 100.38 57.8555L100.273 57.8272L100.251 57.8052L100.204 57.7581L100.113 57.6639L99.9308 57.4785L99.5632 57.1109L98.8344 56.3758L98.9663 56.3915L96.0508 58.2105L96.0948 58.0848C96.3231 58.7446 96.5503 59.3981 96.7765 60.0453L96.7985 60.105L96.7545 60.1521C96.2466 60.6911 95.8143 61.2968 95.4696 61.9523L95.4382 62.0057H95.3785H93.3018L93.3992 61.9272C93.1353 63.0666 92.8766 64.1819 92.6232 65.2731L92.5698 65.1631L94.4391 66.0679L94.4894 66.0931V66.1496C94.5098 66.8957 94.6313 67.6355 94.8507 68.3488L94.8664 68.4022L94.8255 68.4399L93.3489 69.8977V69.7877L95.1617 72.7064L95.0674 72.675L97.0279 71.9963L97.0719 71.9806L97.1064 72.0121C97.6478 72.5211 98.2542 72.9564 98.9098 73.3064L98.9475 73.3253V73.3693C98.9475 74.1233 98.9475 74.8019 98.9318 75.4428L98.8815 75.3831L102.224 76.1717L102.171 76.1968L103.088 74.3338V74.3149H103.107C103.67 74.2991 104.229 74.2297 104.778 74.1076L105.184 74.0102L105.319 73.9819L105.187 74.029C105.099 74.0573 104.967 74.0982 104.785 74.1421C104.236 74.2802 103.675 74.3613 103.11 74.3841L103.139 74.3621L102.249 76.2471L102.231 76.2816H102.196L98.8438 75.5245H98.7967V75.4742C98.7967 74.8459 98.7967 74.1516 98.7967 73.3976L98.8312 73.4604C98.162 73.1087 97.5429 72.6692 96.9902 72.1534L97.0656 72.1691L95.1083 72.8572L95.0486 72.8792L95.014 72.8258L93.1887 69.9134L93.151 69.8537L93.2013 69.8034L94.6716 68.3425L94.6496 68.4336C94.4254 67.7092 94.2997 66.9579 94.2757 66.1999L94.3291 66.2816L92.4441 65.383L92.375 65.3485L92.3907 65.2731L93.173 61.8518L93.1887 61.7732H93.2704H95.3471L95.256 61.8266C95.6107 61.1551 96.0534 60.5338 96.5723 59.9793L96.5503 60.0861C96.3241 59.4389 96.0958 58.7855 95.8654 58.1257L95.8372 58.0472L95.9094 58.0032L98.8218 56.1841L98.8941 56.137L98.9537 56.1967L99.6826 56.9318L100.047 57.3026L100.232 57.4879L100.324 57.5822L100.371 57.6262L100.393 57.6513C100.179 57.5979 100.333 57.6356 100.286 57.623C101.011 57.4011 101.762 57.2764 102.52 57.2523L102.428 57.312L103.333 55.427L103.368 55.3516L103.45 55.3704L106.795 56.1433L106.877 56.1621V56.247C106.877 56.9633 106.877 57.6733 106.877 58.3236L106.824 58.2325C107.494 58.5874 108.114 59.0301 108.668 59.5489L108.567 59.5269L110.528 58.8483L110.6 58.82L110.644 58.8891L112.46 61.8046L112.498 61.8675L112.444 61.9209C111.932 62.4298 111.426 62.9262 110.968 63.3786L110.993 63.2875C111.213 64.0127 111.337 64.7638 111.36 65.5213L111.31 65.4459L113.179 66.3538L113.239 66.3821L113.223 66.4449C112.95 67.6199 112.686 68.7384 112.441 69.7909V69.8506H112.381H110.305L110.364 69.8129C110.01 70.4796 109.567 71.0956 109.048 71.6445V71.5816C109.293 72.2885 109.519 72.9514 109.724 73.5452L109.739 73.5861L109.702 73.608L106.777 75.4114H106.755L106.736 75.3925L105.664 74.2866L105.391 73.9976C105.365 73.9764 105.341 73.9533 105.319 73.9285Z" fill="#E0E0E0"/>
<path fill-rule="evenodd" clip-rule="evenodd" d="M112.157 49.073C111.144 49.3851 110.094 49.5605 109.035 49.5945L107.756 52.2367L103.024 51.1434V48.2059C102.086 47.7117 101.219 47.0935 100.445 46.368L97.6741 47.3356L95.1042 43.2137L97.1871 41.1496C96.8757 40.1354 96.7014 39.084 96.6688 38.0236L94.0234 36.748L95.1325 32.0072H98.0668C98.5632 31.0694 99.1823 30.202 99.9079 29.4279L98.9402 26.6663L103.062 24.0964L105.126 26.1793C106.139 25.8679 107.19 25.6936 108.249 25.6609L109.528 23.0156L114.259 24.1121V27.0464C115.196 27.542 116.062 28.1601 116.835 28.8843L119.606 27.9198L122.179 32.0386L120.09 34.1184C120.404 35.1311 120.58 36.1816 120.612 37.2413L123.254 38.52L122.161 43.2514H119.226C118.73 44.1881 118.111 45.0544 117.385 45.8276L118.353 48.5986L114.221 51.1716L112.157 49.0855V49.073ZM111.215 42.1612C112.089 41.6153 112.782 40.8224 113.206 39.8827C113.63 38.9431 113.765 37.8989 113.596 36.8821C113.426 35.8653 112.959 34.9217 112.253 34.1706C111.547 33.4194 110.634 32.8944 109.63 32.662C108.626 32.4296 107.575 32.5003 106.611 32.8649C105.647 33.2296 104.812 33.872 104.213 34.7109C103.614 35.5498 103.277 36.5474 103.245 37.5777C103.213 38.608 103.487 39.6247 104.033 40.4992C104.395 41.0808 104.867 41.5853 105.424 41.9841C105.981 42.3828 106.611 42.668 107.278 42.8232C107.945 42.9784 108.636 43.0007 109.311 42.8887C109.987 42.7767 110.634 42.5327 111.215 42.1706V42.1612Z" fill="#E0E0E0"/>
<path fill-rule="evenodd" clip-rule="evenodd" d="M123.306 64.7285C122.767 64.8934 122.208 64.9863 121.644 65.005L120.965 66.4093L118.452 65.8281V64.2572C117.953 63.9936 117.492 63.665 117.079 63.2802L115.606 63.7923L114.239 61.5931L115.348 60.4966C115.181 59.9578 115.088 59.3986 115.072 58.8347L113.664 58.1529L114.245 55.6395H115.816C116.082 55.1422 116.411 54.6817 116.796 54.2697L116.281 52.7963L118.48 51.4265L119.58 52.5355C120.119 52.3707 120.678 52.2777 121.242 52.259L121.92 50.8516L124.434 51.4359V53.0068C124.932 53.2697 125.393 53.5984 125.804 53.9838L127.28 53.4717L128.647 55.6709L127.538 56.7705C127.705 57.3094 127.798 57.8685 127.814 58.4325L129.222 59.1111L128.641 61.6245H127.07C126.805 62.1233 126.475 62.585 126.09 62.9974L126.605 64.4709L124.406 65.8407L123.306 64.7316V64.7285ZM122.806 61.0558C123.272 60.7657 123.641 60.3439 123.867 59.8438C124.094 59.3438 124.166 58.7879 124.076 58.2466C123.986 57.7052 123.738 57.2027 123.362 56.8026C122.987 56.4025 122.501 56.1228 121.966 55.9988C121.432 55.8748 120.872 55.9122 120.359 56.1062C119.846 56.3001 119.401 56.642 119.082 57.0885C118.763 57.535 118.584 58.0661 118.567 58.6146C118.55 59.1631 118.696 59.7043 118.986 60.1699C119.375 60.7937 119.997 61.2375 120.713 61.4036C121.429 61.5698 122.182 61.4447 122.806 61.0558Z" fill="#EBEBEB"/>
<path d="M26.8908 36.9224C26.9254 36.9538 25.4519 38.465 23.6014 40.2934C21.751 42.1219 20.2272 43.5797 20.1958 43.5482C20.1644 43.5168 21.6378 42.0057 23.4883 40.1772C25.3388 38.3487 26.8594 36.891 26.8908 36.9224Z" fill="#E0E0E0"/>
<path d="M26.9066 43.5326C26.8752 43.564 25.3357 42.1125 23.4884 40.2935C21.6411 38.4744 20.1488 36.9727 20.1802 36.9381C20.2116 36.9035 21.751 38.355 23.6015 40.1772C25.452 41.9994 26.9411 43.498 26.9066 43.5326Z" fill="#E0E0E0"/>
<path d="M33.5586 78.737C33.5586 78.781 31.6736 78.6176 29.3613 78.3757C27.049 78.1338 25.1765 77.895 25.1797 77.851C25.1828 77.807 27.0647 77.9673 29.377 78.2123C31.6893 78.4574 33.5649 78.6898 33.5586 78.737Z" fill="#E0E0E0"/>
<path d="M33.2227 81.8901C33.2227 81.9341 31.3377 81.7738 29.0254 81.5288C26.7131 81.2837 24.8375 81.0513 24.8438 81.0073C24.85 80.9633 26.7288 81.1235 29.0411 81.3654C31.3534 81.6073 33.229 81.8461 33.2227 81.8901Z" fill="#E0E0E0"/>
<path d="M10.5684 71.8132C10.5684 71.8132 8.0802 71.6341 8.30954 77.2169C8.53889 82.7997 9.10754 85.7687 9.10754 85.7687C9.10754 85.7687 9.03528 87.0065 8.07705 86.7646C7.11883 86.5227 5.31549 85.3163 4.42325 86.2179C3.531 87.1196 3.82946 88.5836 5.05159 90.2707C6.27371 91.9578 8.82164 95.7499 9.05413 96.0923C9.28661 96.4348 9.3683 97.0631 8.68969 97.0034C8.01108 96.9437 3.42418 95.3886 2.81783 97.6098C2.21148 99.831 6.39624 103.956 6.8455 104.427C7.29477 104.899 7.3199 105.181 7.13768 105.461C6.95546 105.741 5.46315 105.071 4.14049 104.682C2.81783 104.292 1.21556 104.075 0.973647 105.385C0.731735 106.696 2.57278 110.528 9.47512 114.559L12.7959 116.209L15.9376 114.204C22.4001 109.492 23.8516 105.505 23.4777 104.223C23.1039 102.941 21.533 103.321 20.2575 103.843C18.9819 104.364 17.5619 105.175 17.3545 104.914C17.1472 104.653 17.1409 104.364 17.5399 103.859C17.9389 103.353 21.6901 98.8319 20.8638 96.6704C20.0375 94.5089 15.6297 96.529 14.9605 96.6704C14.2914 96.8118 14.3322 96.1583 14.5081 95.8001C14.6841 95.442 16.855 91.4018 17.9075 89.6047C18.9599 87.8076 19.139 86.3467 18.1274 85.5205C17.1158 84.6942 15.4695 86.0797 14.5521 86.4159C13.6347 86.752 13.4274 85.5299 13.4274 85.5299C13.4274 85.5299 13.6944 82.5139 13.3646 76.9405C13.0347 71.3671 10.5182 71.8132 10.5182 71.8132" fill="#EBEBEB"/>
<path d="M10.7578 76.8047C10.7603 76.8434 10.7603 76.8822 10.7578 76.9209C10.7578 77.0058 10.7578 77.1189 10.7829 77.2634C10.8049 77.5775 10.8332 78.0142 10.8741 78.5829C10.9495 79.7265 11.0468 81.3853 11.16 83.4306C11.3862 87.5148 11.6532 93.1887 11.9265 99.4533C12.1999 105.718 12.4512 111.37 12.6554 115.476C12.7591 117.518 12.8439 119.177 12.9036 120.327C12.9319 120.895 12.9539 121.338 12.9696 121.646C12.9696 121.791 12.9696 121.907 12.9696 121.989C12.9717 122.027 12.9717 122.066 12.9696 122.105C12.9696 122.105 12.9696 122.067 12.9696 121.989C12.9696 121.91 12.9696 121.794 12.9444 121.646C12.9225 121.332 12.891 120.899 12.8533 120.33C12.7779 119.186 12.6805 117.528 12.5674 115.479C12.3381 111.395 12.0742 105.724 11.8009 99.4564C11.5275 93.1887 11.2762 87.5431 11.0688 83.4337C10.9652 81.3884 10.8803 79.7328 10.8238 78.5829C10.7955 78.0142 10.7735 77.5713 10.7578 77.2634C10.7578 77.1157 10.7578 77.0026 10.7578 76.9209C10.7578 76.8392 10.7578 76.8047 10.7578 76.8047Z" fill="#E0E0E0"/>
<path d="M6.88281 88C6.9575 88.0493 7.02605 88.1073 7.08702 88.1728C7.21583 88.289 7.4012 88.4618 7.61483 88.6786C8.05153 89.1122 8.64217 89.7279 9.27994 90.4191L10.9042 92.1973L11.3975 92.7314C11.4639 92.7927 11.522 92.8624 11.5702 92.9388C11.4953 92.8898 11.4258 92.8329 11.3629 92.7691C11.2372 92.6497 11.0487 92.4769 10.8382 92.257C10.4047 91.8203 9.81717 91.1983 9.18883 90.5071L7.552 88.7414L7.05561 88.2074C6.9886 88.1466 6.93044 88.0769 6.88281 88Z" fill="#E0E0E0"/>
<path d="M11.8988 92.8301C11.8737 92.8049 13.0895 91.5325 14.6101 90.0025C16.1307 88.4725 17.3905 87.2252 17.4157 87.2504C17.4408 87.2755 16.225 88.5479 14.7012 90.0779C13.1775 91.6079 11.924 92.8552 11.8988 92.8301Z" fill="#E0E0E0"/>
<path d="M11.8828 102.452C11.953 102.394 12.03 102.344 12.1122 102.304L12.7625 101.94C13.3123 101.626 14.0663 101.205 14.8831 100.702C15.7 100.2 16.4257 99.722 16.9473 99.3733L17.5756 98.9617C17.648 98.905 17.7271 98.8575 17.8112 98.8203C17.7492 98.8878 17.6796 98.9479 17.6039 98.9994C17.4656 99.1094 17.2614 99.2633 17.0069 99.4487C16.4948 99.8162 15.7754 100.309 14.9554 100.809C14.1354 101.309 13.3846 101.73 12.8128 102.019C12.53 102.16 12.3038 102.273 12.1436 102.348C12.0602 102.391 11.9729 102.426 11.8828 102.452Z" fill="#E0E0E0"/>
<path d="M6.38281 99.0859C6.46371 99.1111 6.54086 99.147 6.61216 99.1928C6.75668 99.2682 6.96089 99.3844 7.21537 99.5289C7.71804 99.8148 8.41236 100.22 9.17579 100.672C9.93923 101.125 10.6241 101.543 11.1174 101.851L11.6986 102.218C11.7731 102.259 11.8418 102.31 11.9028 102.369C11.8226 102.342 11.7457 102.306 11.6735 102.262C11.5321 102.184 11.3247 102.071 11.0734 101.926C10.5676 101.64 9.87325 101.235 9.10982 100.782C8.34638 100.33 7.66149 99.9122 7.16824 99.6043L6.58702 99.243C6.51276 99.1992 6.44417 99.1465 6.38281 99.0859Z" fill="#E0E0E0"/>
<path d="M5.29688 107.578C5.39716 107.617 5.49388 107.664 5.58591 107.72L6.36191 108.147C7.01225 108.511 7.90764 109.023 8.87528 109.595C9.84293 110.167 10.7446 110.688 11.3887 111.075L12.1427 111.537C12.2371 111.589 12.3265 111.65 12.4097 111.719C12.3067 111.684 12.2086 111.637 12.1175 111.578L11.3447 111.153C10.6943 110.789 9.80209 110.277 8.8313 109.705C7.86051 109.133 6.96198 108.609 6.31793 108.225L5.56706 107.763C5.46961 107.713 5.37885 107.651 5.29688 107.578Z" fill="#E0E0E0"/>
<path d="M12.2656 111.568C12.3536 111.491 12.4507 111.426 12.5547 111.373L13.3589 110.883C14.0407 110.465 14.9801 109.89 15.998 109.224C17.0159 108.558 17.927 107.936 18.5836 107.48L19.3596 106.943C19.4488 106.869 19.547 106.807 19.6518 106.758C19.5712 106.84 19.4828 106.915 19.3879 106.981C19.2119 107.122 18.9543 107.317 18.6339 107.556C18.0055 108.03 17.0913 108.668 16.0702 109.331C15.0492 109.994 14.1004 110.562 13.4061 110.958C13.0573 111.156 12.7777 111.313 12.5767 111.417C12.4771 111.475 12.3731 111.526 12.2656 111.568Z" fill="#E0E0E0"/>
<path d="M17.2567 117.305H8.07031L11.0675 140H14.2595L17.2567 117.305Z" fill="#E0E0E0"/>
<path d="M8.55469 120.09C8.55469 120.09 8.55469 120.122 8.60181 120.169C8.6623 120.239 8.73879 120.294 8.82487 120.329C8.9852 120.384 9.15583 120.402 9.32397 120.381C9.4921 120.36 9.65337 120.302 9.79566 120.21C10.1664 120.006 10.49 119.603 10.9864 119.424C11.538 119.248 12.1327 119.26 12.6766 119.459C13.2288 119.649 13.7562 119.904 14.2475 120.219C14.6551 120.481 15.0802 120.714 15.5199 120.917C15.8201 121.05 16.1372 121.142 16.4624 121.19C16.5508 121.202 16.6401 121.209 16.7294 121.209C16.7891 121.209 16.8205 121.209 16.8205 121.209C16.3859 121.141 15.9629 121.013 15.5638 120.829C15.1323 120.616 14.7128 120.38 14.3072 120.122C13.8094 119.793 13.2721 119.528 12.708 119.333C12.1325 119.125 11.5033 119.118 10.9235 119.314C10.6791 119.415 10.453 119.555 10.2544 119.729C10.0879 119.877 9.91152 120.013 9.72655 120.137C9.59808 120.227 9.45163 120.287 9.29748 120.313C9.14334 120.34 8.98524 120.332 8.8343 120.291C8.72908 120.243 8.63416 120.175 8.55469 120.09Z" fill="#F5F5F5"/>
<path d="M8.875 124.267C8.875 124.267 8.94726 124.172 9.08864 124.025C9.2977 123.818 9.5483 123.659 9.8238 123.557C10.2331 123.409 10.6678 123.343 11.1025 123.365C11.6384 123.406 12.1713 123.48 12.6985 123.585C13.2377 123.689 13.7895 123.711 14.3353 123.651C14.7808 123.594 15.2151 123.47 15.6234 123.283C15.9034 123.16 16.1689 123.006 16.4151 122.825C16.5075 122.763 16.5901 122.688 16.6602 122.602C16.3202 122.821 15.9654 123.016 15.5983 123.186C15.196 123.348 14.773 123.454 14.3416 123.5C13.8086 123.552 13.2709 123.526 12.7456 123.422C12.2116 123.316 11.671 123.247 11.1276 123.214C10.6754 123.2 10.2251 123.279 9.80495 123.447C9.521 123.559 9.2687 123.739 9.06979 123.971C9.01689 124.035 8.96959 124.104 8.92841 124.176C8.89385 124.238 8.875 124.264 8.875 124.267Z" fill="#F5F5F5"/>
<path d="M16.2206 126.507C16.1442 126.449 16.058 126.405 15.9661 126.378C15.7224 126.285 15.4661 126.23 15.2058 126.214C14.8213 126.189 14.4351 126.211 14.056 126.28C13.6256 126.349 13.1669 126.466 12.6862 126.569C12.2373 126.675 11.7775 126.726 11.3164 126.723C10.9426 126.713 10.5739 126.633 10.2294 126.488C9.91436 126.338 9.63404 126.124 9.40625 125.859C9.44227 125.949 9.49566 126.03 9.56334 126.098C9.73794 126.297 9.95189 126.457 10.1917 126.569C10.5442 126.736 10.9267 126.83 11.3164 126.846C11.7888 126.858 12.2607 126.809 12.7208 126.701C13.2109 126.598 13.6633 126.475 14.0843 126.387C14.4534 126.314 14.8295 126.281 15.2058 126.29C15.5516 126.321 15.8923 126.394 16.2206 126.507Z" fill="#F5F5F5"/>
<path d="M9.69572 129.656C9.97704 129.536 10.2886 129.505 10.588 129.568C10.9143 129.647 11.2305 129.763 11.5305 129.914C11.9101 130.098 12.3199 130.211 12.74 130.25C13.5084 130.315 14.2779 130.137 14.9392 129.741C15.1305 129.619 15.3084 129.478 15.4702 129.32C15.5801 129.2 15.6398 129.131 15.6304 129.125C15.3874 129.313 15.1335 129.488 14.8701 129.647C14.2206 130.005 13.4792 130.162 12.74 130.099C11.8698 130.049 11.2006 129.53 10.5974 129.471C10.3655 129.431 10.1272 129.453 9.90622 129.533C9.75541 129.584 9.68944 129.653 9.69572 129.656Z" fill="#F5F5F5"/>
<path d="M10.2031 134.011C10.467 134.018 10.7289 133.965 10.9697 133.857C11.4316 133.704 12.0002 133.352 12.6694 133.085C12.9805 132.96 13.3113 132.89 13.6465 132.88C13.9174 132.88 14.1848 132.942 14.4288 133.059C14.6523 133.179 14.8466 133.346 14.9974 133.55C14.9851 133.478 14.9548 133.411 14.9094 133.355C14.7983 133.193 14.6509 133.06 14.479 132.965C14.2238 132.824 13.938 132.748 13.6465 132.742C13.293 132.743 12.9431 132.812 12.616 132.946C11.9248 133.22 11.3593 133.575 10.9289 133.76C10.4985 133.945 10.2 133.986 10.2031 134.011Z" fill="#F5F5F5"/>
<path d="M10.6562 136.036C10.8404 136.126 11.036 136.189 11.2375 136.225C11.716 136.341 12.2021 136.423 12.6921 136.47C13.1817 136.518 13.674 136.533 14.1655 136.514C14.3711 136.518 14.5761 136.494 14.775 136.442C14.775 136.395 13.8325 136.442 12.7078 136.322C11.5831 136.203 10.6688 135.996 10.6562 136.036Z" fill="#F5F5F5"/>
<path d="M139.652 139.629C139.652 139.676 108.386 139.71 69.8277 139.71C31.2695 139.71 0 139.676 0 139.629C0 139.581 31.2569 139.547 69.8277 139.547C108.398 139.547 139.652 139.585 139.652 139.629Z" fill="#263238"/>
<path d="M39.4609 41.4321C39.4609 41.4321 40.3155 36.308 40.5197 35.9184C40.7239 35.5289 43.0833 33.1349 43.3629 33.0909C43.6426 33.0469 47.3655 31.8719 47.1581 32.4626C46.9508 33.0532 44.3306 33.8261 44.3306 33.8261L44.0824 34.1402C44.0824 34.1402 46.3162 33.4114 46.8691 33.4302C47.422 33.4491 47.4723 33.98 47.0733 34.1308C46.6743 34.2816 44.7076 34.8565 44.6322 34.9822C44.5568 35.1079 46.8314 34.4575 47.1079 34.4701C47.4911 34.4858 47.7676 34.9696 47.378 35.1362C47.1456 35.2304 44.9589 35.7331 44.9589 35.7331C45.6332 35.6445 46.3117 35.592 46.9916 35.576C47.3278 35.6671 47.3058 36.0755 46.9288 36.1729C46.6743 36.2389 45.3391 36.2986 44.9998 36.3897C44.9998 36.3897 44.7453 36.6033 44.7547 37.2819C44.7641 37.9605 43.8845 39.7607 43.8845 39.7607L39.4609 41.4321Z" fill="#FFBE9D"/>
<path d="M47.1576 32.4472C47.0077 32.6391 46.8221 32.8002 46.6109 32.9216C46.3905 33.0702 46.1571 33.1984 45.9135 33.3049C45.637 33.4085 45.3291 33.5154 45.0087 33.619L44.3206 33.8515L44.3583 33.8295C43.9657 34.255 43.5403 34.6489 43.0859 35.0077C43.4353 34.5492 43.8197 34.1185 44.2358 33.7196V33.7039H44.2578L44.9364 33.4651L45.8381 33.1509C46.0762 33.0542 46.3071 32.9408 46.5293 32.8116C46.9251 32.6011 47.1419 32.4252 47.1576 32.4472Z" fill="#EB996E"/>
<path d="M96.7648 97.7123L46.0513 92.4876C45.308 92.4084 44.6263 92.038 44.1553 91.4575C43.6843 90.877 43.4623 90.1336 43.538 89.3899L52.3128 4.13014C52.4229 3.07296 52.9478 2.10261 53.7723 1.43182C54.5968 0.761032 55.6537 0.44454 56.7112 0.551733L105.068 5.53134C106.126 5.64153 107.096 6.16641 107.767 6.99091C108.437 7.81541 108.754 8.87226 108.647 9.92974L99.85 95.1895C99.773 95.9321 99.4054 96.6142 98.8274 97.0868C98.2494 97.5594 97.508 97.7843 96.7648 97.7123Z" fill="#FF725E"/>
<path opacity="0.4" d="M96.7648 97.7123L46.0513 92.4876C45.308 92.4084 44.6263 92.038 44.1553 91.4575C43.6843 90.877 43.4623 90.1336 43.538 89.3899L52.3128 4.13014C52.4229 3.07296 52.9478 2.10261 53.7723 1.43182C54.5968 0.761032 55.6537 0.44454 56.7112 0.551733L105.068 5.53134C106.126 5.64153 107.096 6.16641 107.767 6.99091C108.437 7.81541 108.754 8.87226 108.647 9.92974L99.85 95.1895C99.773 95.9321 99.4054 96.6142 98.8274 97.0868C98.2494 97.5594 97.508 97.7843 96.7648 97.7123Z" fill="black"/>
<path d="M91.6418 97.1816L40.9188 91.9601C40.1749 91.8809 39.4927 91.5101 39.0216 90.9289C38.5505 90.3477 38.3289 89.6035 38.4055 88.8592L47.2023 3.59948C47.256 3.07569 47.4124 2.56762 47.6626 2.10429C47.9128 1.64096 48.2517 1.23145 48.6602 0.899151C49.0686 0.566851 49.5385 0.318271 50.0431 0.167609C50.5476 0.0169467 51.0769 -0.0328456 51.6006 0.0210757L99.9453 4.99126C100.469 5.04503 100.977 5.20145 101.44 5.45161C101.904 5.70176 102.313 6.04075 102.646 6.44919C102.978 6.85764 103.227 7.32755 103.377 7.83208C103.528 8.33661 103.578 8.86588 103.524 9.38966L94.7269 94.6526C94.6515 95.3963 94.2845 96.08 93.7064 96.5539C93.1282 97.0279 92.3859 97.2536 91.6418 97.1816Z" fill="#FF725E"/>
<path d="M65.862 73.9727L48.3735 72.1716C47.9558 72.1286 47.5823 72.4323 47.5393 72.85L46.8306 79.7317C46.7876 80.1494 47.0913 80.5229 47.509 80.5659L64.9975 82.367C65.4152 82.41 65.7887 82.1062 65.8317 81.6886L66.5404 74.8069C66.5834 74.3892 66.2797 74.0157 65.862 73.9727Z" fill="#FF725E"/>
<g opacity="0.4">
<path d="M65.862 73.9727L48.3735 72.1716C47.9558 72.1286 47.5823 72.4323 47.5393 72.85L46.8306 79.7317C46.7876 80.1494 47.0913 80.5229 47.509 80.5659L64.9975 82.367C65.4152 82.41 65.7887 82.1062 65.8317 81.6886L66.5404 74.8069C66.5834 74.3892 66.2797 74.0157 65.862 73.9727Z" fill="black"/>
</g>
<path d="M50.7269 9.55359L48.7812 28.4453L96.9403 33.4051L98.8859 14.5134L50.7269 9.55359Z" fill="#FAFAFA"/>
<path d="M96.9394 33.4023C96.9394 33.4023 96.9394 33.2861 96.9677 33.0661C96.996 32.8462 97.0211 32.5163 97.062 32.0891C97.1468 31.2282 97.2725 29.9653 97.4358 28.3347C97.75 25.0768 98.237 20.3611 98.8276 14.5112L98.8779 14.574L50.7186 9.63212L50.8097 9.55986C50.1279 16.1575 49.4682 22.5508 48.8587 28.451L48.7896 28.363L83.3013 31.9571L93.3233 33.0096L96.0095 33.2986L96.7038 33.374L96.9426 33.4023C96.9426 33.4023 96.864 33.4023 96.7101 33.3835L96.0252 33.3175L93.3547 33.0536L83.3327 32.0451L48.7739 28.5201H48.6953V28.4447C49.3017 22.5414 49.952 16.1575 50.6369 9.55044V9.46875H50.7186L98.8904 14.4546H98.947V14.5112C98.3186 20.3768 97.8317 25.105 97.4892 28.3693C97.3164 29.9904 97.1751 31.2502 97.0902 32.1048C97.0431 32.5289 97.0085 32.8525 96.9834 33.0724L96.9394 33.4023Z" fill="#263238"/>
<path d="M58.2301 37.026L51.3454 36.3169C50.9863 36.28 50.6653 36.541 50.6284 36.9L49.9193 43.7848C49.8824 44.1438 50.1434 44.4648 50.5024 44.5018L57.3872 45.2108C57.7462 45.2478 58.0672 44.9868 58.1042 44.6277L58.8132 37.743C58.8502 37.384 58.5891 37.063 58.2301 37.026Z" fill="#FF725E"/>
<g opacity="0.4">
<path d="M58.2301 37.026L51.3454 36.3169C50.9863 36.28 50.6653 36.541 50.6284 36.9L49.9193 43.7848C49.8824 44.1438 50.1434 44.4648 50.5024 44.5018L57.3872 45.2108C57.7462 45.2478 58.0672 44.9868 58.1042 44.6277L58.8132 37.743C58.8502 37.384 58.5891 37.063 58.2301 37.026Z" fill="black"/>
</g>
<path d="M56.9723 36.901L50.0875 36.1919C49.7285 36.155 49.4075 36.416 49.3706 36.775L48.6615 43.6598C48.6245 44.0188 48.8856 44.3398 49.2446 44.3768L56.1294 45.0858C56.4884 45.1228 56.8094 44.8618 56.8464 44.5027L57.5554 37.618C57.5924 37.259 57.3313 36.938 56.9723 36.901Z" fill="#263238"/>
<path d="M53.8566 38.9585L53.5079 42.3799L52.7162 42.2982L53.0021 39.5209L52.3203 39.4487L52.3863 38.8203L53.8566 38.9585Z" fill="white"/>
<path d="M69.6442 38.2057L62.7594 37.4966C62.4004 37.4597 62.0794 37.7207 62.0424 38.0797L61.3334 44.9645C61.2964 45.3235 61.5575 45.6445 61.9165 45.6815L68.8013 46.3905C69.1603 46.4275 69.4813 46.1664 69.5182 45.8074L70.2273 38.9227C70.2643 38.5637 70.0032 38.2426 69.6442 38.2057Z" fill="#FF725E"/>
<g opacity="0.4">
<path d="M69.6442 38.2057L62.7594 37.4966C62.4004 37.4597 62.0794 37.7207 62.0424 38.0797L61.3334 44.9645C61.2964 45.3235 61.5575 45.6445 61.9165 45.6815L68.8013 46.3905C69.1603 46.4275 69.4813 46.1664 69.5182 45.8074L70.2273 38.9227C70.2643 38.5637 70.0032 38.2426 69.6442 38.2057Z" fill="black"/>
</g>
<path d="M68.3786 38.0729L61.4938 37.3638C61.1348 37.3268 60.8138 37.5879 60.7768 37.9469L60.0678 44.8317C60.0308 45.1907 60.2918 45.5117 60.6509 45.5487L67.5356 46.2577C67.8946 46.2947 68.2156 46.0336 68.2526 45.6746L68.9617 38.7898C68.9986 38.4308 68.7376 38.1098 68.3786 38.0729Z" fill="#263238"/>
<path d="M66.2203 43.025L66.1543 43.6533L63.5781 43.3894L63.6315 42.8773L65.0736 41.7683C65.4066 41.5138 65.4789 41.3442 65.4946 41.1777C65.5228 40.9106 65.3532 40.7347 64.9919 40.697C64.8556 40.6777 64.7167 40.6923 64.5874 40.7394C64.4581 40.7866 64.3424 40.8648 64.2505 40.9672L63.7132 40.5368C63.8907 40.3435 64.1133 40.1974 64.3611 40.1113C64.6089 40.0252 64.8742 40.0019 65.1333 40.0435C65.8936 40.1221 66.3617 40.5619 66.2957 41.1808C66.2643 41.5138 66.1386 41.8092 65.6171 42.1987L64.7563 42.8585L66.2203 43.025Z" fill="white"/>
<path d="M81.4801 39.4244L74.5953 38.7154C74.2363 38.6784 73.9153 38.9395 73.8784 39.2985L73.1693 46.1832C73.1324 46.5423 73.3934 46.8633 73.7524 46.9002L80.6372 47.6093C80.9962 47.6462 81.3172 47.3852 81.3542 47.0262L82.0632 40.1414C82.1002 39.7824 81.8391 39.4614 81.4801 39.4244Z" fill="#FF725E"/>
<g opacity="0.4">
<path d="M81.4801 39.4244L74.5953 38.7154C74.2363 38.6784 73.9153 38.9395 73.8784 39.2985L73.1693 46.1832C73.1324 46.5423 73.3934 46.8633 73.7524 46.9002L80.6372 47.6093C80.9962 47.6462 81.3172 47.3852 81.3542 47.0262L82.0632 40.1414C82.1002 39.7824 81.8391 39.4614 81.4801 39.4244Z" fill="black"/>
</g>
<path d="M80.2145 39.2916L73.3297 38.5826C72.9707 38.5456 72.6497 38.8067 72.6127 39.1657L71.9037 46.0504C71.8667 46.4094 72.1278 46.7304 72.4868 46.7674L79.3716 47.4765C79.7306 47.5134 80.0516 47.2524 80.0885 46.8934L80.7976 40.0086C80.8346 39.6496 80.5735 39.3286 80.2145 39.2916Z" fill="#263238"/>
<path d="M78.0726 43.8421C78.0129 44.417 77.5165 44.8977 76.5457 44.8003C76.0873 44.7591 75.6507 44.5855 75.2891 44.3008L75.6566 43.7258C75.9199 43.9579 76.2498 44.1008 76.5992 44.1343C76.995 44.1751 77.2558 44.04 77.2841 43.7604C77.3123 43.4808 77.1364 43.3237 76.6903 43.2766L76.329 43.2389L76.3824 42.7173L77.1647 41.9948L75.7132 41.8471L75.7792 41.2188L78.1669 41.4638L78.1135 41.9759L77.2526 42.7739C77.5006 42.8121 77.7242 42.9444 77.877 43.1434C78.0297 43.3424 78.0998 43.5927 78.0726 43.8421Z" fill="white"/>
<path d="M93.3161 40.6432L86.4313 39.9341C86.0723 39.8972 85.7513 40.1582 85.7143 40.5172L85.0053 47.402C84.9683 47.761 85.2294 48.082 85.5884 48.119L92.4731 48.828C92.8321 48.865 93.1531 48.6039 93.1901 48.2449L93.8992 41.3602C93.9361 41.0012 93.6751 40.6801 93.3161 40.6432Z" fill="#FF725E"/>
<g opacity="0.4">
<path d="M93.3161 40.6432L86.4313 39.9341C86.0723 39.8972 85.7513 40.1582 85.7143 40.5172L85.0053 47.402C84.9683 47.761 85.2294 48.082 85.5884 48.119L92.4731 48.828C92.8321 48.865 93.1531 48.6039 93.1901 48.2449L93.8992 41.3602C93.9361 41.0012 93.6751 40.6801 93.3161 40.6432Z" fill="black"/>
</g>
<path d="M92.0817 40.5104L85.1969 39.8013C84.8379 39.7643 84.5169 40.0254 84.4799 40.3844L83.7709 47.2692C83.7339 47.6282 83.995 47.9492 84.354 47.9862L91.2388 48.6952C91.5978 48.7322 91.9188 48.4711 91.9557 48.1121L92.6648 41.2273C92.7018 40.8683 92.4407 40.5473 92.0817 40.5104Z" fill="#263238"/>
<path d="M86.3603 43.7656L86.3281 44.0781L89.9846 44.4547L90.0168 44.1422L86.3603 43.7656Z" fill="white"/>
<path d="M88.9331 42.5862C88.9213 42.7037 88.8749 42.815 88.7999 42.9061C88.7248 42.9973 88.6244 43.0641 88.5113 43.0982C88.3983 43.1322 88.2776 43.132 88.1647 43.0975C88.0518 43.063 87.9516 42.9958 87.8769 42.9044C87.8022 42.8129 87.7563 42.7014 87.7449 42.5839C87.7336 42.4664 87.7574 42.3481 87.8133 42.2441C87.8692 42.1401 87.9546 42.055 88.0589 41.9996C88.1631 41.9441 88.2815 41.9209 88.399 41.9327C88.5564 41.9486 88.7012 42.0263 88.8013 42.1489C88.9015 42.2714 88.9488 42.4287 88.9331 42.5862Z" fill="white"/>
<path d="M88.6049 45.774C88.593 45.8916 88.5465 46.003 88.4713 46.0942C88.396 46.1853 88.2954 46.2521 88.1822 46.286C88.069 46.3199 87.9482 46.3194 87.8353 46.2846C87.7223 46.2498 87.6222 46.1823 87.5477 46.0905C87.4732 45.9988 87.4276 45.887 87.4166 45.7693C87.4057 45.6516 87.4299 45.5334 87.4863 45.4295C87.5427 45.3256 87.6286 45.2408 87.7332 45.1858C87.8378 45.1308 87.9564 45.1081 88.0739 45.1205C88.2308 45.1372 88.3748 45.2152 88.4743 45.3377C88.5738 45.4602 88.6207 45.617 88.6049 45.774Z" fill="white"/>
<path d="M56.9957 49.0182L50.111 48.3091C49.752 48.2722 49.431 48.5332 49.394 48.8922L48.6849 55.777C48.648 56.136 48.909 56.457 49.268 56.494L56.1528 57.203C56.5118 57.24 56.8328 56.9789 56.8698 56.6199L57.5788 49.7352C57.6158 49.3762 57.3548 49.0551 56.9957 49.0182Z" fill="#FF725E"/>
<g opacity="0.4">
<path d="M56.9957 49.0182L50.111 48.3091C49.752 48.2722 49.431 48.5332 49.394 48.8922L48.6849 55.777C48.648 56.136 48.909 56.457 49.268 56.494L56.1528 57.203C56.5118 57.24 56.8328 56.9789 56.8698 56.6199L57.5788 49.7352C57.6158 49.3762 57.3548 49.0551 56.9957 49.0182Z" fill="black"/>
</g>
<path d="M55.7379 48.8932L48.8532 48.1841C48.4942 48.1472 48.1732 48.4082 48.1362 48.7672L47.4271 55.652C47.3902 56.011 47.6512 56.332 48.0102 56.369L54.895 57.078C55.254 57.115 55.575 56.8539 55.612 56.4949L56.321 49.6102C56.358 49.2512 56.0969 48.9301 55.7379 48.8932Z" fill="#263238"/>
<path d="M53.3434 53.7464L52.7873 53.6899L52.7119 54.4062L51.9422 54.3277L52.0176 53.6113L50.1797 53.4197L50.2331 52.8888L52.0647 50.8906L52.8941 50.9786L51.1913 52.8636L52.1087 52.9579L52.1747 52.3295L52.9193 52.4049L52.8533 53.0333L53.4094 53.0898L53.3434 53.7464Z" fill="white"/>
<path d="M68.4098 50.1979L61.525 49.4888C61.166 49.4518 60.845 49.7129 60.8081 50.0719L60.099 56.9567C60.062 57.3157 60.3231 57.6367 60.6821 57.6737L67.5669 58.3827C67.9259 58.4197 68.2469 58.1586 68.2839 57.7996L68.9929 50.9148C69.0299 50.5558 68.7688 50.2348 68.4098 50.1979Z" fill="#FF725E"/>
<g opacity="0.4">
<path d="M68.4098 50.1979L61.525 49.4888C61.166 49.4518 60.845 49.7129 60.8081 50.0719L60.099 56.9567C60.062 57.3157 60.3231 57.6367 60.6821 57.6737L67.5669 58.3827C67.9259 58.4197 68.2469 58.1586 68.2839 57.7996L68.9929 50.9148C69.0299 50.5558 68.7688 50.2348 68.4098 50.1979Z" fill="black"/>
</g>
<path d="M67.152 50.0651L60.2672 49.356C59.9082 49.319 59.5872 49.5801 59.5502 49.9391L58.8412 56.8239C58.8042 57.1829 59.0653 57.5039 59.4243 57.5409L66.3091 58.2499C66.6681 58.2869 66.9891 58.0258 67.026 57.6668L67.7351 50.782C67.7721 50.423 67.511 50.102 67.152 50.0651Z" fill="#263238"/>
<path d="M64.657 54.5527C64.5973 55.1559 64.0978 55.6366 63.1239 55.536C62.6655 55.4943 62.2291 55.3208 61.8672 55.0365L62.2411 54.4647C62.5039 54.6969 62.8342 54.839 63.1836 54.87C63.5794 54.9108 63.8402 54.7726 63.8685 54.493C63.8967 54.2134 63.7396 54.0312 63.1207 53.9683L62.2473 53.8772L62.6212 51.9922L64.701 52.2058L64.6382 52.8342L63.215 52.6865L63.0925 53.3306L63.3721 53.3588C64.368 53.4531 64.7199 53.9463 64.657 54.5527Z" fill="white"/>
<path d="M80.2458 51.4166L73.361 50.7076C73.002 50.6706 72.681 50.9317 72.644 51.2907L71.9349 58.1754C71.898 58.5344 72.159 58.8554 72.518 58.8924L79.4028 59.6015C79.7618 59.6384 80.0828 59.3774 80.1198 59.0184L80.8288 52.1336C80.8658 51.7746 80.6048 51.4536 80.2458 51.4166Z" fill="#FF725E"/>
<g opacity="0.4">
<path d="M80.2458 51.4166L73.361 50.7076C73.002 50.6706 72.681 50.9317 72.644 51.2907L71.9349 58.1754C71.898 58.5344 72.159 58.8554 72.518 58.8924L79.4028 59.6015C79.7618 59.6384 80.0828 59.3774 80.1198 59.0184L80.8288 52.1336C80.8658 51.7746 80.6048 51.4536 80.2458 51.4166Z" fill="black"/>
</g>
<path d="M78.9801 51.2838L72.0954 50.5748C71.7363 50.5378 71.4153 50.7988 71.3784 51.1579L70.6693 58.0426C70.6324 58.4016 70.8934 58.7226 71.2524 58.7596L78.1372 59.4687C78.4962 59.5056 78.8172 59.2446 78.8542 58.8856L79.5632 52.0008C79.6002 51.6418 79.3391 51.3208 78.9801 51.2838Z" fill="#263238"/>
<path d="M76.7346 55.7898C76.6624 56.4873 76.0466 56.8674 75.3271 56.792C74.3846 56.6946 73.8631 56.0443 73.9762 54.9447C74.0987 53.7634 74.8779 53.179 75.9052 53.2859C76.2385 53.3113 76.5588 53.4263 76.832 53.6189L76.4802 54.1687C76.2994 54.0279 76.0804 53.9448 75.8518 53.9299C75.28 53.8734 74.881 54.1718 74.7899 54.8222C74.9139 54.7299 75.0549 54.6633 75.2048 54.6261C75.3548 54.5889 75.5106 54.5818 75.6633 54.6054C75.8133 54.6069 75.9614 54.6395 76.0982 54.7011C76.235 54.7627 76.3575 54.8519 76.4581 54.9632C76.5588 55.0744 76.6353 55.2053 76.6829 55.3476C76.7305 55.4898 76.7481 55.6404 76.7346 55.7898ZM75.9649 55.749C75.973 55.6759 75.9654 55.602 75.9425 55.5321C75.9197 55.4622 75.8821 55.3981 75.8324 55.3439C75.7827 55.2897 75.722 55.2469 75.6544 55.2181C75.5867 55.1893 75.5137 55.1754 75.4402 55.1772C75.368 55.1618 75.2934 55.1615 75.221 55.1763C75.1486 55.191 75.0801 55.2206 75.0196 55.263C74.9592 55.3055 74.9082 55.3599 74.8697 55.423C74.8313 55.4861 74.8062 55.5564 74.7962 55.6296C74.7648 55.9218 74.9627 56.1574 75.3429 56.1982C75.413 56.2127 75.4853 56.2122 75.5553 56.197C75.6252 56.1817 75.6912 56.1519 75.7489 56.1096C75.8066 56.0673 75.8548 56.0133 75.8904 55.9512C75.926 55.8891 75.9482 55.8202 75.9555 55.749H75.9649Z" fill="white"/>
<path d="M92.0817 52.6354L85.1969 51.9263C84.8379 51.8893 84.5169 52.1504 84.4799 52.5094L83.7709 59.3942C83.7339 59.7532 83.995 60.0742 84.354 60.1112L91.2388 60.8202C91.5978 60.8572 91.9188 60.5961 91.9557 60.2371L92.6648 53.3523C92.7018 52.9933 92.4407 52.6723 92.0817 52.6354Z" fill="#FF725E"/>
<g opacity="0.4">
<path d="M92.0817 52.6354L85.1969 51.9263C84.8379 51.8893 84.5169 52.1504 84.4799 52.5094L83.7709 59.3942C83.7339 59.7532 83.995 60.0742 84.354 60.1112L91.2388 60.8202C91.5978 60.8572 91.9188 60.5961 91.9557 60.2371L92.6648 53.3523C92.7018 52.9933 92.4407 52.6723 92.0817 52.6354Z" fill="black"/>
</g>
<path d="M90.8161 52.5026L83.9313 51.7935C83.5723 51.7565 83.2513 52.0176 83.2143 52.3766L82.5053 59.2614C82.4683 59.6204 82.7293 59.9414 83.0883 59.9784L89.9731 60.6874C90.3321 60.7244 90.6531 60.4633 90.6901 60.1043L91.3992 53.2195C91.4361 52.8605 91.1751 52.5395 90.8161 52.5026Z" fill="#263238"/>
<path d="M88.2925 54.9816L85.4062 57.2578L85.6008 57.5045L88.4871 55.2283L88.2925 54.9816Z" fill="white"/>
<path d="M85.9156 54.7315L85.6719 54.9297L87.9911 57.7815L88.2349 57.5832L85.9156 54.7315Z" fill="white"/>
<path d="M55.7692 60.9166L48.8844 60.2076C48.5254 60.1706 48.2044 60.4317 48.1674 60.7907L47.4584 67.6754C47.4214 68.0344 47.6825 68.3554 48.0415 68.3924L54.9263 69.1015C55.2853 69.1384 55.6063 68.8774 55.6432 68.5184L56.3523 61.6336C56.3893 61.2746 56.1282 60.9536 55.7692 60.9166Z" fill="#FF725E"/>
<g opacity="0.4">
<path d="M55.7692 60.9166L48.8844 60.2076C48.5254 60.1706 48.2044 60.4317 48.1674 60.7907L47.4584 67.6754C47.4214 68.0344 47.6825 68.3554 48.0415 68.3924L54.9263 69.1015C55.2853 69.1384 55.6063 68.8774 55.6432 68.5184L56.3523 61.6336C56.3893 61.2746 56.1282 60.9536 55.7692 60.9166Z" fill="black"/>
</g>
<path d="M54.5114 60.7838L47.6266 60.0748C47.2676 60.0378 46.9466 60.2988 46.9096 60.6579L46.2006 67.5426C46.1636 67.9016 46.4247 68.2226 46.7837 68.2596L53.6684 68.9687C54.0274 69.0056 54.3484 68.7446 54.3854 68.3856L55.0945 61.5008C55.1314 61.1418 54.8704 60.8208 54.5114 60.7838Z" fill="#263238"/>
<path d="M51.9434 62.8968L51.89 63.4089L50.3191 66.1799L49.4614 66.0888L50.9694 63.4466L49.8384 63.3304L49.7819 63.8864L49.0781 63.8142L49.2038 62.6172L51.9434 62.8968Z" fill="white"/>
<path d="M67.1911 62.0885L60.3063 61.3794C59.9473 61.3425 59.6263 61.6035 59.5893 61.9625L58.8803 68.8473C58.8433 69.2063 59.1043 69.5273 59.4634 69.5643L66.3481 70.2733C66.7071 70.3103 67.0281 70.0493 67.0651 69.6902L67.7742 62.8055C67.8111 62.4465 67.5501 62.1255 67.1911 62.0885Z" fill="#FF725E"/>
<g opacity="0.4">
<path d="M67.1911 62.0885L60.3063 61.3794C59.9473 61.3425 59.6263 61.6035 59.5893 61.9625L58.8803 68.8473C58.8433 69.2063 59.1043 69.5273 59.4634 69.5643L66.3481 70.2733C66.7071 70.3103 67.0281 70.0493 67.0651 69.6902L67.7742 62.8055C67.8111 62.4465 67.5501 62.1255 67.1911 62.0885Z" fill="black"/>
</g>
<path d="M65.9254 61.9635L59.0407 61.2544C58.6817 61.2175 58.3607 61.4785 58.3237 61.8375L57.6146 68.7223C57.5777 69.0813 57.8387 69.4023 58.1977 69.4393L65.0825 70.1483C65.4415 70.1853 65.7625 69.9243 65.7995 69.5652L66.5085 62.6805C66.5455 62.3215 66.2844 62.0005 65.9254 61.9635Z" fill="#263238"/>
<path d="M63.7005 66.5711C63.6346 67.1994 63.0188 67.5607 62.1517 67.4696C61.2846 67.3785 60.7599 66.9167 60.8259 66.2758C60.8407 66.1054 60.9056 65.9432 61.0124 65.8096C61.1191 65.676 61.263 65.5769 61.4259 65.5249C61.3118 65.4402 61.2224 65.3265 61.1672 65.1955C61.1119 65.0646 61.0928 64.9212 61.1118 64.7803C61.1746 64.1803 61.7401 63.8629 62.5224 63.9415C63.3047 64.02 63.8042 64.4536 63.7445 65.0537C63.7318 65.196 63.6811 65.3324 63.5976 65.4484C63.5141 65.5645 63.4011 65.656 63.2701 65.7134C63.4183 65.7981 63.5382 65.9247 63.6148 66.0773C63.6914 66.2299 63.7212 66.4016 63.7005 66.5711ZM62.9026 66.4643C62.934 66.1501 62.7046 65.9522 62.3119 65.9113C61.9192 65.8705 61.6584 66.0307 61.627 66.3323C61.5956 66.6339 61.8187 66.8507 62.2114 66.8916C62.6041 66.9324 62.8743 66.7533 62.9151 66.4517L62.9026 66.4643ZM61.8846 64.8934C61.8564 65.151 62.0449 65.3333 62.3653 65.3678C62.6858 65.4024 62.9183 65.261 62.9465 65.0034C62.9748 64.7458 62.7769 64.551 62.4533 64.5196C62.1297 64.4881 61.9098 64.617 61.8846 64.884V64.8934Z" fill="white"/>
<path d="M79.0192 63.3072L72.1344 62.5982C71.7754 62.5612 71.4544 62.8223 71.4174 63.1813L70.7084 70.0661C70.6714 70.4251 70.9325 70.7461 71.2915 70.783L78.1763 71.4921C78.5353 71.5291 78.8563 71.268 78.8932 70.909L79.6023 64.0242C79.6393 63.6652 79.3782 63.3442 79.0192 63.3072Z" fill="#FF725E"/>
<g opacity="0.4">
<path d="M79.0192 63.3072L72.1344 62.5982C71.7754 62.5612 71.4544 62.8223 71.4174 63.1813L70.7084 70.0661C70.6714 70.4251 70.9325 70.7461 71.2915 70.783L78.1763 71.4921C78.5353 71.5291 78.8563 71.268 78.8932 70.909L79.6023 64.0242C79.6393 63.6652 79.3782 63.3442 79.0192 63.3072Z" fill="black"/>
</g>
<path d="M77.5302 62.6247L70.6782 61.9325C70.3209 61.8964 70.002 62.1568 69.9659 62.5141L69.2738 69.3661C69.2377 69.7234 69.4981 70.0423 69.8554 70.0784L76.7073 70.7705C77.0646 70.8066 77.3836 70.5462 77.4196 70.1889L78.1118 63.3369C78.1479 62.9796 77.8875 62.6607 77.5302 62.6247Z" fill="#263238"/>
<path d="M75.4823 66.974C75.3598 68.1552 74.587 68.7396 73.5533 68.6328C73.2222 68.6084 72.904 68.4944 72.6328 68.3029L72.9847 67.7531C73.165 67.8943 73.3844 67.9766 73.613 67.9887C74.1785 68.0453 74.5838 67.7468 74.6749 67.0933C74.5501 67.1863 74.4081 67.2536 74.2571 67.2913C74.1061 67.3291 73.9491 67.3365 73.7952 67.3133C73.6459 67.3104 73.4988 67.2768 73.3629 67.2147C73.2271 67.1526 73.1055 67.0633 73.0056 66.9522C72.9058 66.8412 72.8298 66.7108 72.7824 66.5691C72.735 66.4275 72.7173 66.2776 72.7302 66.1288C72.8025 65.4314 73.4182 65.0512 74.1408 65.1266C75.0802 65.224 75.5986 65.8744 75.4823 66.974ZM74.6624 66.2891C74.6906 65.9969 74.4927 65.7613 74.1188 65.7204C74.0482 65.7067 73.9754 65.708 73.9053 65.7241C73.8352 65.7403 73.7692 65.7709 73.7116 65.8141C73.654 65.8573 73.6062 65.9121 73.571 65.9749C73.5359 66.0377 73.5144 66.1072 73.5078 66.1789C73.5011 66.2506 73.5096 66.3228 73.5326 66.391C73.5556 66.4592 73.5927 66.5218 73.6414 66.5748C73.6901 66.6278 73.7493 66.67 73.8153 66.6987C73.8813 66.7274 73.9526 66.742 74.0246 66.7415C74.0966 66.7568 74.1711 66.7571 74.2433 66.7423C74.3155 66.7275 74.3838 66.698 74.444 66.6555C74.5042 66.613 74.555 66.5585 74.5931 66.4954C74.6312 66.4324 74.6559 66.3621 74.6655 66.2891H74.6624Z" fill="white"/>
<path d="M90.8551 64.526L83.9703 63.8169C83.6113 63.78 83.2903 64.041 83.2534 64.4L82.5443 71.2848C82.5074 71.6438 82.7684 71.9648 83.1274 72.0018L90.0122 72.7108C90.3712 72.7478 90.6922 72.4867 90.7292 72.1277L91.4382 65.243C91.4752 64.884 91.2141 64.563 90.8551 64.526Z" fill="#FF725E"/>
<g opacity="0.4">
<path d="M90.8551 64.526L83.9703 63.8169C83.6113 63.78 83.2903 64.041 83.2534 64.4L82.5443 71.2848C82.5074 71.6438 82.7684 71.9648 83.1274 72.0018L90.0122 72.7108C90.3712 72.7478 90.6922 72.4867 90.7292 72.1277L91.4382 65.243C91.4752 64.884 91.2141 64.563 90.8551 64.526Z" fill="black"/>
</g>
<path d="M89.5895 64.3932L82.7047 63.6841C82.3457 63.6472 82.0247 63.9082 81.9877 64.2672L81.2787 71.152C81.2417 71.511 81.5028 71.832 81.8618 71.869L88.7466 72.578C89.1056 72.615 89.4266 72.3539 89.4635 71.9949L90.1726 65.1102C90.2096 64.7512 89.9485 64.4301 89.5895 64.3932Z" fill="#263238"/>
<path d="M83.915 67.7969L83.8828 68.1094L87.5393 68.4859L87.5715 68.1734L83.915 67.7969Z" fill="white"/>
<path d="M77.7848 75.3072L70.9 74.5982C70.541 74.5612 70.22 74.8223 70.1831 75.1813L69.474 82.0661C69.437 82.4251 69.6981 82.7461 70.0571 82.783L76.9419 83.4921C77.3009 83.5291 77.6219 83.268 77.6589 82.909L78.3679 76.0242C78.4049 75.6652 78.1438 75.3442 77.7848 75.3072Z" fill="#FF725E"/>
<g opacity="0.4">
<path d="M77.7848 75.3072L70.9 74.5982C70.541 74.5612 70.22 74.8223 70.1831 75.1813L69.474 82.0661C69.437 82.4251 69.6981 82.7461 70.0571 82.783L76.9419 83.4921C77.3009 83.5291 77.6219 83.268 77.6589 82.909L78.3679 76.0242C78.4049 75.6652 78.1438 75.3442 77.7848 75.3072Z" fill="black"/>
</g>
<path d="M76.5192 75.1822L69.6344 74.4732C69.2754 74.4362 68.9544 74.6973 68.9174 75.0563L68.2084 81.9411C68.1714 82.3001 68.4325 82.6211 68.7915 82.658L75.6762 83.3671C76.0353 83.4041 76.3563 83.143 76.3932 82.784L77.1023 75.8992C77.1393 75.5402 76.8782 75.2192 76.5192 75.1822Z" fill="#263238"/>
<path d="M89.6207 76.526L82.736 75.8169C82.377 75.78 82.056 76.041 82.019 76.4L81.3099 83.2848C81.273 83.6438 81.534 83.9648 81.893 84.0018L88.7778 84.7108C89.1368 84.7478 89.4578 84.4867 89.4948 84.1277L90.2038 77.243C90.2408 76.884 89.9798 76.563 89.6207 76.526Z" fill="#FF725E"/>
<g opacity="0.4">
<path d="M89.6207 76.526L82.736 75.8169C82.377 75.78 82.056 76.041 82.019 76.4L81.3099 83.2848C81.273 83.6438 81.534 83.9648 81.893 84.0018L88.7778 84.7108C89.1368 84.7478 89.4578 84.4867 89.4948 84.1277L90.2038 77.243C90.2408 76.884 89.9798 76.563 89.6207 76.526Z" fill="black"/>
</g>
<path d="M88.3551 76.3932L81.4704 75.6841C81.1113 75.6472 80.7903 75.9082 80.7534 76.2672L80.0443 83.152C80.0074 83.511 80.2684 83.832 80.6274 83.869L87.5122 84.578C87.8712 84.615 88.1922 84.3539 88.2292 83.9949L88.9382 77.1102C88.9752 76.7512 88.7141 76.4301 88.3551 76.3932Z" fill="#455A64"/>
<path d="M82.7275 79.3515L82.6953 79.6641L86.3518 80.0406L86.384 79.7281L82.7275 79.3515Z" fill="white"/>
<path d="M82.5869 80.7422L82.5547 81.0547L86.2112 81.4313L86.2433 81.1187L82.5869 80.7422Z" fill="white"/>
<path d="M64.2995 73.814L46.1016 71.9398C45.6701 71.8954 45.2843 72.2092 45.2398 72.6407L44.5363 79.4723C44.4918 79.9038 44.8056 80.2896 45.2371 80.3341L63.435 82.2082C63.8665 82.2527 64.2524 81.9389 64.2968 81.5074L65.0004 74.6757C65.0448 74.2443 64.731 73.8584 64.2995 73.814Z" fill="#263238"/>
<path d="M54.031 76.834C54.1472 75.7061 54.8384 75.1344 55.6772 75.2192C56.5161 75.304 57.0721 76.0078 56.9559 77.1356C56.8396 78.2635 56.1548 78.8353 55.3128 78.7473C54.4708 78.6594 53.9147 77.9588 54.031 76.834ZM56.161 77.0539C56.2427 76.2779 56.0008 75.9292 55.6081 75.8884C55.2154 75.8475 54.9106 76.1397 54.8321 76.9157C54.7536 77.6917 54.9923 78.0404 55.3819 78.0813C55.7715 78.1221 56.0825 77.8268 56.161 77.0539Z" fill="white"/>
<path d="M72.712 77.0683L72.2812 80.7188L72.5933 80.7556L73.024 77.1051L72.712 77.0683Z" fill="white"/>
<path d="M70.8447 78.5781L70.8125 78.8906L74.469 79.2672L74.5012 78.9547L70.8447 78.5781Z" fill="white"/>
<path d="M69.1347 21.0868L68.6101 26.1858L68.3681 26.1606L68.8834 21.2878L67.6016 21.1559L67.6236 20.9297L69.1347 21.0868Z" fill="#263238"/>
<path d="M73.3248 26.4486L73.2996 26.6748L69.8438 26.3198L69.8626 26.1439L72.2754 24.1678C72.9666 23.6054 73.1331 23.2472 73.1771 22.8325C73.2462 22.1539 72.819 21.6701 71.9204 21.5759C71.638 21.525 71.3477 21.5394 71.0717 21.6178C70.7956 21.6962 70.5411 21.8366 70.3276 22.0283L70.1768 21.8523C70.4172 21.6428 70.7011 21.489 71.008 21.4021C71.3149 21.3152 71.6372 21.2973 71.9518 21.3496C72.9258 21.4502 73.4944 22.0157 73.4096 22.8388C73.3593 23.3226 73.1645 23.7279 72.4231 24.328L70.2239 26.1282L73.3248 26.4486Z" fill="#263238"/>
<path d="M77.3627 25.6621C77.2748 26.5104 76.6181 27.0445 75.4965 26.9188C75.1661 26.901 74.8433 26.8125 74.55 26.6591C74.2568 26.5057 73.9999 26.291 73.7969 26.0297L73.9477 25.8694C74.1346 26.1119 74.3718 26.311 74.6429 26.4531C74.9141 26.5952 75.2128 26.6769 75.5185 26.6926C76.4925 26.7931 77.0517 26.3784 77.1302 25.6307C77.2088 24.883 76.7595 24.374 75.6788 24.2515L75.396 24.2201L75.4149 24.0473L77.2151 22.1402L74.4032 21.8512L74.4252 21.625L77.5669 21.9392L77.5481 22.112L75.7385 24.0253C76.9197 24.1572 77.4507 24.8107 77.3627 25.6621Z" fill="#263238"/>
<path d="M82.3884 26.117L81.2794 26.0039L81.1286 27.4774L80.8866 27.4523L81.0375 25.9788L78.1094 25.6646L78.1282 25.4887L81.3045 22.3281L81.5873 22.3564L78.4455 25.4793L81.0563 25.7494L81.1882 24.4519L81.4302 24.4771L81.2951 25.7714L82.4041 25.8877L82.3884 26.117Z" fill="#263238"/>
<path d="M83.4533 27.4921C83.4387 27.5835 83.4145 27.673 83.3811 27.7592L83.0166 28.7017L82.8281 28.6829L83.158 27.6995C83.0947 27.6891 83.0381 27.6539 83.0007 27.6018C82.9633 27.5497 82.9481 27.4848 82.9585 27.4215C82.9689 27.3581 83.0041 27.3015 83.0562 27.2641C83.1084 27.2267 83.1732 27.2115 83.2365 27.222C83.3008 27.2299 83.3594 27.2625 83.3999 27.313C83.4404 27.3635 83.4595 27.4277 83.4533 27.4921Z" fill="#263238"/>
<path d="M88.5024 26.7482L87.3965 26.6351L87.2458 28.1054L87.0038 28.0803L87.1546 26.61L84.2266 26.2958L84.2454 26.1199L87.4185 22.9688L87.7013 23.0002L84.5596 26.123L87.1703 26.3901L87.3023 25.0925L87.5442 25.1177L87.4185 26.4152L88.5276 26.5283L88.5024 26.7482Z" fill="#263238"/>
<path d="M92.294 27.1695C92.2061 27.9989 91.5651 28.5801 90.409 28.4607C90.0801 28.4419 89.7591 28.3528 89.4675 28.1994C89.1759 28.046 88.9206 27.832 88.7188 27.5716L88.8758 27.4114C89.0619 27.6548 89.2989 27.8546 89.5702 27.9968C89.8415 28.1389 90.1407 28.2201 90.4467 28.2345C91.4426 28.3382 91.9861 27.8638 92.0615 27.1412C92.1432 26.3558 91.7222 25.8405 90.2645 25.6897L89.2748 25.5892L89.7775 23.2109L92.4071 23.4843L92.3851 23.7105L89.9566 23.4591L89.5387 25.3881L90.3242 25.4698C91.8824 25.6301 92.3851 26.2647 92.294 27.1695Z" fill="#263238"/>
<path d="M36.5606 131.656L34.5625 139.042L41.0564 139.633L42.4199 132.602L36.5606 131.656Z" fill="#FF725E"/>
<path d="M41.2358 139.034C40.9214 139.056 40.6055 139.046 40.2933 139.002C39.7089 138.955 38.9046 138.864 38.0155 138.751L35.7472 138.437C35.4285 138.413 35.1129 138.358 34.8047 138.274C35.1193 138.256 35.435 138.268 35.7472 138.311C36.3316 138.358 37.1358 138.449 38.0249 138.563L40.2933 138.877C40.6113 138.902 40.9266 138.955 41.2358 139.034Z" fill="#263238"/>
<g opacity="0.6">
<path d="M34.5625 139.045L41.0564 139.635L41.1601 139.095L34.751 138.281L34.5719 138.969" fill="white"/>
</g>
<path d="M37.7812 138.71C38.146 136.813 38.6074 134.936 39.1636 133.086C39.0038 134.039 38.794 134.983 38.5353 135.913C38.3324 136.858 38.0808 137.791 37.7812 138.71Z" fill="#263238"/>
<path d="M40.887 138.983C40.989 138.531 40.989 138.062 40.887 137.61C40.773 137.125 40.5273 136.68 40.177 136.325C39.7402 135.899 39.17 135.636 38.5622 135.581C37.9553 135.518 37.3446 135.657 36.8248 135.976C36.4029 136.244 36.055 136.614 35.8132 137.051C35.598 137.461 35.4585 137.907 35.4016 138.367C35.3974 138.335 35.3974 138.302 35.4016 138.27C35.4004 138.176 35.4056 138.083 35.4173 137.99C35.4625 137.644 35.5689 137.309 35.7315 137.001C35.97 136.537 36.3251 136.142 36.762 135.857C37.3061 135.513 37.9502 135.362 38.5904 135.43C39.2324 135.488 39.8337 135.769 40.2901 136.225C40.6516 136.602 40.8998 137.073 41.0064 137.585C41.0767 137.927 41.0767 138.28 41.0064 138.622C40.9862 138.714 40.9589 138.804 40.9247 138.892C40.9164 138.924 40.9037 138.954 40.887 138.983Z" fill="#263238"/>
<path d="M63.3437 130.813L62.9573 136.629C62.9573 136.629 68.7444 138.548 68.7789 139.629L57.4688 139.711L57.6981 130.625L63.3437 130.813Z" fill="#FF725E"/>
<g opacity="0.6">
<path d="M59.4743 136.038C59.3645 136.068 59.2696 136.138 59.2077 136.233C59.1457 136.329 59.121 136.444 59.1381 136.556C59.1638 136.668 59.2313 136.765 59.3267 136.827C59.4221 136.89 59.538 136.913 59.6502 136.892C59.7662 136.86 59.8661 136.786 59.931 136.685C59.9959 136.583 60.0212 136.462 60.0021 136.343C59.9633 136.23 59.8825 136.137 59.7765 136.082C59.6705 136.028 59.5476 136.016 59.4334 136.051" fill="white"/>
</g>
<g opacity="0.6">
<path d="M57.4688 139.714L57.5284 138.797L68.4176 139.111C68.5327 139.17 68.6311 139.257 68.7041 139.364C68.7771 139.471 68.8222 139.595 68.8355 139.724L57.4688 139.714Z" fill="white"/>
</g>
<path d="M63.1434 136.58C63.1434 136.637 62.8638 136.652 62.5841 136.822C62.3045 136.992 62.1569 137.218 62.1066 137.196C62.0563 137.174 62.1475 136.856 62.4868 136.655C62.8261 136.454 63.1559 136.53 63.1434 136.58Z" fill="#263238"/>
<path d="M64.315 137.104C64.315 137.157 64.0856 137.242 63.8908 137.471C63.6961 137.701 63.6332 137.942 63.5767 137.939C63.5201 137.936 63.495 137.625 63.7432 137.342C63.9914 137.06 64.3181 137.05 64.315 137.104Z" fill="#263238"/>
<path d="M64.9431 138.542C64.8929 138.542 64.8238 138.271 64.9746 137.976C65.1254 137.681 65.3893 137.565 65.4113 137.612C65.4333 137.659 65.2667 137.816 65.1474 138.061C65.028 138.306 64.9997 138.539 64.9431 138.542Z" fill="#263238"/>
<path d="M63.0835 135.245C63.0584 135.296 62.807 135.211 62.496 135.223C62.185 135.236 61.9368 135.327 61.9085 135.277C61.8802 135.226 62.1221 135.041 62.4897 135.032C62.8573 135.022 63.1118 135.204 63.0835 135.245Z" fill="#263238"/>
<g opacity="0.3">
<path d="M63.2643 131.968L63.1952 133.005L57.6406 132.785L57.6626 131.852L63.2643 131.968Z" fill="black"/>
</g>
<path d="M63.1384 134.072C62.9516 134.116 62.7564 134.11 62.5729 134.053C62.3696 134.011 62.1723 133.943 61.9854 133.852C61.8762 133.8 61.7712 133.739 61.6712 133.67C61.6082 133.634 61.5518 133.587 61.5047 133.532C61.4693 133.492 61.4485 133.441 61.4456 133.387C61.4428 133.333 61.4581 133.28 61.489 133.237C61.5183 133.2 61.5555 133.17 61.5979 133.149C61.6403 133.128 61.6869 133.117 61.7341 133.117C61.8058 133.119 61.8768 133.131 61.9446 133.155C62.0648 133.187 62.1816 133.232 62.2933 133.287C62.4821 133.378 62.655 133.499 62.8054 133.645C63.0599 133.896 63.1447 134.104 63.1196 134.113C63.0944 134.123 62.9719 133.956 62.7111 133.746C62.5596 133.625 62.3927 133.524 62.2148 133.447C62.1134 133.401 62.0083 133.365 61.9006 133.337C61.7812 133.303 61.6807 133.296 61.6461 133.337C61.6115 133.378 61.6461 133.365 61.6461 133.4C61.6823 133.44 61.7235 133.474 61.7686 133.504C61.8671 133.571 61.9645 133.63 62.0608 133.683C62.2336 133.775 62.4145 133.85 62.6012 133.909C62.7835 133.952 62.9629 134.007 63.1384 134.072Z" fill="#263238"/>
<path d="M63.0641 134.147C62.9642 133.981 62.9182 133.787 62.9321 133.594C62.9263 133.263 63.0133 132.936 63.1835 132.651C63.2158 132.578 63.2666 132.513 63.331 132.465C63.3954 132.417 63.4712 132.386 63.5511 132.375C63.6018 132.377 63.6509 132.394 63.6922 132.424C63.7335 132.453 63.7652 132.494 63.7835 132.542C63.8105 132.608 63.8284 132.678 63.837 132.749C63.8566 132.919 63.8426 133.091 63.7957 133.255C63.7488 133.42 63.6699 133.573 63.5636 133.707C63.3343 133.996 63.1018 134.053 63.0986 134.021C63.0955 133.99 63.2777 133.892 63.4537 133.616C63.556 133.457 63.6225 133.278 63.6484 133.091C63.6642 132.982 63.6642 132.871 63.6484 132.761C63.6484 132.642 63.5919 132.545 63.5479 132.554C63.5039 132.564 63.394 132.639 63.3437 132.733C63.2855 132.834 63.2351 132.939 63.1929 133.047C63.1252 133.227 63.0829 133.415 63.0672 133.607C63.0421 133.93 63.0955 134.138 63.0641 134.147Z" fill="#263238"/>
<path d="M38.8207 40.2214C38.8207 40.2214 37.5923 46.9132 36.6215 50.9629C35.8549 54.1046 33.8756 60.0047 37.4603 61.717C41.045 63.4292 45.8518 56.5143 45.8518 56.5143L47.8971 40.7617C46.4739 41.0288 44.859 42.6813 43.1405 45.1099L43.4547 39.1406L38.8207 40.2214Z" fill="#455A64"/>
<path d="M88.1536 50.1102L86.2686 51.0087L84.5312 48.2848L85.546 46.183C85.6434 45.9883 85.7471 45.7715 85.8602 45.5201C85.9859 45.2259 86.0613 44.9126 86.0833 44.5933C86.127 44.2001 86.1175 43.8027 86.055 43.412C85.9607 43.0602 86.3315 42.7837 86.5828 42.9785C86.8341 43.1733 87.1169 44.1409 86.9315 45.3002C86.7462 46.4595 88.0908 45.2311 88.5903 44.7913C89.0899 44.3514 90.6953 43.0696 90.9498 43.1199C91.3174 43.1921 91.3079 43.6131 90.799 44.0373C90.29 44.4614 88.8542 45.8532 89.0899 46.1108C89.3843 46.1439 89.661 46.2679 89.8817 46.4655C90.1024 46.6632 90.2561 46.9246 90.3214 47.2135C90.4471 47.7822 90.5508 48.5707 90.2303 48.8315C89.5663 49.3019 88.8726 49.729 88.1536 50.1102Z" fill="#FFBE9D"/>
<path d="M51.605 24.7153L51.5547 41.0868L58.5733 41.4324L58.7775 37.4518C58.7775 37.4518 61.272 37.9482 61.9192 35.6297C62.3308 34.1499 62.2334 22.7109 62.2334 22.7109L51.605 24.7153Z" fill="#FFBE9D"/>
<path d="M63.8055 24.3194C63.3311 25.2965 61.0785 27.0872 61.0785 27.0872L60.0606 29.8142C59.1777 29.1231 57.9902 29.1639 57.7671 30.7159C57.6037 31.8407 58.9987 32.0669 58.9987 32.0669C58.185 33.4492 57.6352 34.5802 56.4539 35.8809C55.1721 37.3072 54.4557 37.4517 53.0671 37.4737H51.534C51.534 37.4737 48.3922 34.8536 49.0206 27.9575C49.6489 21.0614 55.8412 23.0753 57.321 21.3599C59.7307 18.5449 65.3858 21.0552 63.8055 24.3194Z" fill="#263238"/>
<path d="M49.375 33.716H49.5698C49.7567 33.7127 49.9429 33.6916 50.1259 33.6532C50.7975 33.5003 51.4178 33.1755 51.9261 32.7107C52.6549 31.9951 53.2694 31.1718 53.7483 30.2696C54.0624 29.7763 54.3578 29.2516 54.7348 28.7458C55.1145 28.2143 55.5807 27.7502 56.114 27.3729C56.6627 27.0176 57.2685 26.7594 57.9047 26.6095C58.5142 26.4524 59.1143 26.355 59.6798 26.245C60.8108 26.0345 61.8256 25.7204 62.5074 25.1831C63.0653 24.7749 63.4693 24.1905 63.6541 23.5243C63.6987 23.3433 63.7218 23.1577 63.7232 22.9714C63.7232 22.8426 63.7232 22.7734 63.7232 22.7734C63.7232 22.7734 63.7232 22.8426 63.7452 22.9714C63.7493 23.1594 63.7303 23.3472 63.6886 23.5306C63.51 24.2073 63.1068 24.8033 62.5451 25.2208C61.8476 25.7675 60.8234 26.0911 59.6924 26.3016C59.1237 26.4147 58.5268 26.5121 57.9205 26.6723C57.2915 26.8218 56.6924 27.0767 56.1485 27.4263C55.6234 27.8017 55.1629 28.2601 54.785 28.7835C54.4112 29.2862 54.1001 29.8077 53.8017 30.301C53.317 31.2061 52.6948 32.0307 51.9575 32.7452C51.4427 33.2147 50.813 33.5398 50.1322 33.6877C49.9469 33.724 49.7585 33.7419 49.5698 33.7411C49.441 33.7254 49.375 33.716 49.375 33.716Z" fill="#455A64"/>
<path d="M49.0078 28.1098C49.0078 28.1098 49.1178 28.0659 49.322 27.9968C49.6346 27.8868 49.9578 27.8099 50.2865 27.7674C50.8096 27.6877 51.3439 27.7992 51.7914 28.0816C51.9296 28.1735 52.0482 28.2919 52.1405 28.43C52.2327 28.568 52.2966 28.723 52.3286 28.8859C52.3661 29.0697 52.357 29.26 52.3021 29.4395C52.2472 29.6189 52.1483 29.7818 52.0144 29.9132C51.8618 30.0474 51.6677 30.125 51.4646 30.1331C51.2536 30.1362 51.0459 30.0808 50.8646 29.9729C50.4799 29.7446 50.1934 29.382 50.0603 28.955C49.909 28.505 49.8884 28.0213 50.0006 27.5601C50.1162 27.0726 50.3809 26.6334 50.7577 26.3034C51.1521 25.9499 51.648 25.73 52.1747 25.675C52.7202 25.641 53.2672 25.7113 53.7864 25.8824C54.3204 26.0538 54.8665 26.1851 55.42 26.2751C55.9915 26.3505 56.5703 26.3505 57.1417 26.2751C57.7137 26.207 58.2719 26.0524 58.7974 25.8164C59.0544 25.7128 59.2863 25.5555 59.4775 25.3551C59.6688 25.1546 59.815 24.9155 59.9064 24.654C59.9813 24.3978 59.9867 24.1264 59.9221 23.8675C59.8575 23.6086 59.7252 23.3715 59.5388 23.1805C59.3493 23.0092 59.1134 22.8978 58.8607 22.8604C58.608 22.8229 58.3498 22.8611 58.1188 22.97C57.8939 23.0688 57.7098 23.2418 57.5972 23.4601C57.4901 23.6748 57.4507 23.9169 57.4841 24.1544C57.5162 24.3818 57.5964 24.5998 57.7194 24.7937C57.8424 24.9877 58.0053 25.1532 58.1973 25.2792C58.5669 25.5059 58.9922 25.6256 59.4257 25.6248C59.8255 25.6319 60.2236 25.5725 60.6039 25.4488C61.2626 25.2415 61.861 24.8771 62.3475 24.3869C62.7176 24.0226 63.0226 23.5975 63.2492 23.1302C63.3922 22.8286 63.5028 22.5127 63.5791 22.1877C63.6199 21.9678 63.6482 21.8516 63.6482 21.8516L63.5916 22.1909C63.5219 22.5156 63.4166 22.8317 63.2775 23.1334C63.0557 23.6093 62.7515 24.0421 62.3789 24.4121C61.8914 24.9098 61.2895 25.2808 60.6259 25.4928C60.2403 25.6173 59.8372 25.6788 59.432 25.675C58.9888 25.6778 58.5537 25.5571 58.1753 25.3263C57.9759 25.1967 57.8065 25.0259 57.6786 24.8254C57.5507 24.6249 57.4673 24.3993 57.4339 24.1639C57.3968 23.9147 57.4374 23.6602 57.5501 23.435C57.6694 23.2049 57.8632 23.0221 58.0999 22.9166C58.342 22.8018 58.6128 22.7614 58.8779 22.8006C59.143 22.8397 59.3905 22.9566 59.5891 23.1365C59.7833 23.3351 59.9214 23.5816 59.9893 23.8509C60.0571 24.1203 60.0524 24.4028 59.9755 24.6697C59.8812 24.9403 59.7305 25.1878 59.5334 25.3958C59.3362 25.6037 59.0971 25.7675 58.8319 25.8761C58.3001 26.1138 57.7357 26.2705 57.1574 26.3411C56.5796 26.4149 55.9947 26.4149 55.4169 26.3411C54.8614 26.2503 54.3133 26.119 53.7769 25.9484C53.2647 25.7802 52.7256 25.7088 52.1872 25.7379C51.822 25.7768 51.4701 25.8971 51.1575 26.0899C50.8449 26.2828 50.5795 26.5433 50.3809 26.8522C50.1823 27.1612 50.0554 27.5107 50.0097 27.8752C49.964 28.2396 50.0006 28.6097 50.1168 28.9581C50.2461 29.3726 50.5234 29.7249 50.896 29.9478C51.0687 30.0512 51.2664 30.1055 51.4678 30.1048C51.6603 30.0977 51.8444 30.0244 51.9893 29.8975C52.1166 29.7704 52.2104 29.6139 52.2625 29.4417C52.3145 29.2696 52.3232 29.0873 52.2878 28.911C52.2247 28.5938 52.0397 28.3141 51.7725 28.1318C51.332 27.8524 50.8056 27.7408 50.2896 27.8177C49.9626 27.8571 49.6405 27.9297 49.3283 28.0344L49.0078 28.1098Z" fill="#455A64"/>
<path d="M44.381 72.6797L35.0312 134.094L42.7976 135.077L53.7527 83.5688L56.5143 135.426L64.9309 135.278L63.536 72.8242L44.381 72.6797Z" fill="#263238"/>
<path d="M56.3629 135.584V135.433L53.6673 84.7635L42.9195 135.254L34.8516 134.23L44.2453 72.5391L63.6893 72.6836L65.0905 135.449L56.3629 135.584ZM53.8495 82.3726L56.677 135.266L64.7858 135.125L63.3971 72.982L44.5155 72.8532L35.2097 133.956L42.6713 134.899L53.8495 82.3726Z" fill="#263238"/>
<path d="M62.4333 135.18C62.3861 135.18 62.3516 122.877 62.3516 107.702C62.3516 92.528 62.3861 80.2188 62.4333 80.2188C62.4804 80.2188 62.5149 92.5217 62.5149 107.702C62.5149 122.883 62.4772 135.18 62.4333 135.18Z" fill="#455A64"/>
<path d="M41.0859 134.954C41.0881 134.909 41.0944 134.865 41.1048 134.822C41.1048 134.725 41.1456 134.596 41.177 134.432C41.243 134.084 41.3404 133.581 41.4629 132.94C41.7268 131.636 42.0913 129.767 42.5657 127.458C43.5082 122.83 44.8434 116.446 46.3766 109.409C47.9097 102.371 49.3518 96.0062 50.42 91.4099C50.9572 89.1164 51.3939 87.2596 51.6986 85.9653C51.8526 85.3369 51.9751 84.8343 52.0568 84.4887C52.0976 84.3253 52.1322 84.1996 52.1542 84.1054C52.1649 84.0616 52.1785 84.0185 52.195 83.9766C52.195 83.9766 52.195 84.0205 52.1699 84.1085C52.1448 84.1965 52.1259 84.3316 52.0913 84.4949C52.0128 84.8437 51.9028 85.3432 51.7615 85.981C51.4693 87.2754 51.0514 89.1227 50.5331 91.435C49.4932 96.0407 48.07 102.406 46.5368 109.443C45.0037 116.481 43.6496 122.862 42.6788 127.48C42.1918 129.786 41.7991 131.652 41.5258 132.953C41.3907 133.581 41.2839 134.09 41.2116 134.439L41.1236 134.825C41.1154 134.869 41.1028 134.912 41.0859 134.954Z" fill="#455A64"/>
<path d="M56.5105 83.5117C56.3947 83.5427 56.2754 83.5585 56.1555 83.5588L55.1847 83.6279C54.3647 83.6813 53.2306 83.7379 51.9864 83.8604C50.7423 83.983 49.6207 84.1526 48.807 84.2594L47.8425 84.382C47.7246 84.4046 47.6042 84.412 47.4844 84.4039C47.5971 84.3627 47.7141 84.3342 47.8331 84.3191C48.0562 84.272 48.3829 84.2123 48.7756 84.1432C49.5862 84.0081 50.7078 83.829 51.9582 83.6971C53.2086 83.5651 54.3459 83.5368 55.1659 83.5117C55.5774 83.5117 55.9104 83.496 56.1398 83.496C56.2636 83.4877 56.3879 83.493 56.5105 83.5117Z" fill="#455A64"/>
<path d="M63.697 79.5285C63.6204 79.5622 63.5386 79.5824 63.4551 79.5882C63.2305 79.6208 63.0032 79.6313 62.7765 79.6196C62.0222 79.5793 61.2955 79.3231 60.6827 78.8814C60.07 78.4397 59.5972 77.8311 59.3206 77.1283C59.237 76.9172 59.1749 76.6983 59.1352 76.4748C59.107 76.3177 59.1038 76.2297 59.1164 76.2266C59.129 76.2234 59.1981 76.5722 59.4306 77.0811C59.7317 77.7457 60.1992 78.3214 60.7878 78.7525C61.3825 79.1735 62.0765 79.4323 62.8016 79.5034C63.342 79.5599 63.6907 79.4971 63.697 79.5285Z" fill="#455A64"/>
<path d="M42.7812 73.8865L64.2957 73.8173L63.1175 59.6199C62.9887 56.3714 63.0076 55.9818 62.9259 52.9846C62.9259 52.9846 65.9796 56.6762 68.3831 59.2681C69.0912 60.0296 70.0236 60.5459 71.0449 60.7419C72.0662 60.9379 73.1234 60.8035 74.0633 60.3582L86.6301 51.5897L84.277 45.5671L72.8568 52.5574C72.3322 52.2432 67.8867 45.8875 64.8141 42.7929C62.8468 40.8122 60.1933 39.6637 57.4028 39.5853C55.0869 39.531 52.7699 39.6244 50.4659 39.8649C48.7875 40.0446 47.2242 40.8034 46.0448 42.0109C44.8654 43.2185 44.1435 44.7992 44.0034 46.4813C43.7803 49.1361 43.9594 52.2181 43.9594 57.4553L42.7812 73.8865Z" fill="#455A64"/>
<path d="M43.7957 47.9141C43.7957 47.9141 43.7957 47.9738 43.7957 48.0806C43.7957 48.1874 43.7957 48.3665 43.7957 48.555C43.7957 48.9697 43.7957 49.5666 43.7957 50.3049C43.7957 51.7815 43.8617 53.8173 43.9277 56.0699C43.9937 58.3225 44.0031 60.3647 43.9465 61.8381C43.9214 62.5764 43.8868 63.1733 43.8523 63.5849C43.8523 63.7766 43.824 63.9336 43.8146 64.0593C43.8052 64.185 43.7957 64.2227 43.7957 64.2227C43.7957 64.2227 43.7957 64.1661 43.7957 64.0593C43.7957 63.9525 43.8114 63.7734 43.8209 63.5849C43.8491 63.1733 43.8743 62.5764 43.8931 61.8381C43.9371 60.3615 43.9183 58.3225 43.8554 56.0699C43.7926 53.8173 43.7392 51.7815 43.7423 50.3049C43.7423 49.5666 43.7423 48.9697 43.7643 48.555C43.7643 48.3633 43.7643 48.2094 43.78 48.0806C43.7957 47.9518 43.7957 47.9141 43.7957 47.9141Z" fill="#263238"/>
<path d="M72.3828 54.5903C72.3865 54.4905 72.4012 54.3915 72.4268 54.2949C72.4645 54.1127 72.5179 53.8614 72.5839 53.5881C72.6499 53.3147 72.7096 53.0634 72.7567 52.8875C72.7752 52.7888 72.8058 52.6928 72.8478 52.6016C72.8439 52.7015 72.8281 52.8007 72.8007 52.8969C72.7661 53.0791 72.7095 53.3273 72.6467 53.6038C72.5839 53.8802 72.5211 54.1253 72.4739 54.3044C72.4541 54.4027 72.4235 54.4986 72.3828 54.5903Z" fill="#263238"/>
<path d="M73.5293 54.7621C73.4091 54.3914 73.3115 54.0137 73.2372 53.6311C73.1404 53.2532 73.0638 52.8704 73.0078 52.4844C73.1263 52.8556 73.2238 53.2332 73.3 53.6154C73.3968 53.9933 73.4733 54.3761 73.5293 54.7621Z" fill="#263238"/>
<path d="M63.4604 53.5129L63.3441 53.406L63.0142 53.0919C62.7315 52.8154 62.3231 52.4101 61.833 51.8917C61.2583 51.2891 60.7231 50.65 60.2307 49.9784C59.6215 49.1563 59.1298 48.2533 58.7698 47.2954C58.4058 46.3355 58.2422 45.3112 58.2891 44.2857C58.3048 43.4481 58.4886 42.6223 58.8295 41.8571C59.0736 41.3453 59.4366 40.8993 59.8882 40.5564C60.0093 40.4644 60.1363 40.3804 60.2684 40.3051L60.4098 40.2266C60.4098 40.2266 60.215 40.3334 59.904 40.5753C59.4631 40.9227 59.1092 41.368 58.8703 41.876C58.5387 42.6378 58.3614 43.4579 58.3488 44.2888C58.3049 45.3063 58.4695 46.3219 58.8326 47.2734C59.1907 48.2252 59.6769 49.1236 60.2778 49.9439C60.7679 50.6147 61.2988 51.2547 61.8675 51.8603C62.3513 52.3818 62.7535 52.8028 63.0331 53.0762L63.3473 53.3903C63.4258 53.472 63.4604 53.5129 63.4604 53.5129Z" fill="#263238"/>
<path d="M49.4728 47.6762C49.1887 47.4469 48.9399 47.177 48.7345 46.8751C48.4893 46.6064 48.284 46.3038 48.125 45.9766C48.4086 46.2052 48.6573 46.4741 48.8633 46.7746C49.1098 47.0435 49.3151 47.3473 49.4728 47.6762Z" fill="#FAFAFA"/>
<path d="M54.363 53.2266C54.0652 53.6389 53.7239 54.0181 53.3451 54.3576C53.0041 54.7361 52.6239 55.0773 52.2109 55.3755C52.8499 54.5847 53.5713 53.8643 54.363 53.2266Z" fill="#FAFAFA"/>
<path d="M59.0966 61.1902C59.0526 61.1902 58.8798 60.719 58.5594 60.1754C58.2389 59.6319 57.9059 59.2329 57.931 59.2109C58.2551 59.4361 58.5167 59.7399 58.6913 60.0938C58.9158 60.4197 59.0551 60.7966 59.0966 61.1902Z" fill="#FAFAFA"/>
<path d="M46.8289 60.2859C46.3508 59.2828 46.1553 58.1684 46.2634 57.0625C46.3136 57.0625 46.3262 57.7977 46.4864 58.6836C46.6466 59.5696 46.8917 60.267 46.8289 60.2859Z" fill="#FAFAFA"/>
<path d="M53.3394 63.7893C52.948 62.9461 52.8635 61.9926 53.1006 61.0938C53.1477 61.0937 53.0786 61.7064 53.1477 62.4478C53.2169 63.1893 53.3865 63.7736 53.3394 63.7893Z" fill="#FAFAFA"/>
<path d="M50.7668 68.8845C50.2485 68.6587 49.7538 68.3819 49.2902 68.0583C48.7968 67.7815 48.3308 67.4586 47.8984 67.0938C48.4176 67.3199 48.9133 67.5966 49.3782 67.92C49.8707 68.1966 50.3357 68.5196 50.7668 68.8845Z" fill="#FAFAFA"/>
<path d="M60.8929 67.3828C60.9149 67.4268 60.186 67.7881 59.3409 68.3253C58.4958 68.8626 57.8517 69.3621 57.8203 69.3244C58.2381 68.8756 58.721 68.4922 59.2529 68.1871C59.7554 67.837 60.3085 67.5658 60.8929 67.3828Z" fill="#FAFAFA"/>
<path d="M48.1463 73.1362C47.6162 73.1114 47.09 73.0335 46.5754 72.9037C46.0458 72.8257 45.5257 72.693 45.0234 72.5078C45.5537 72.5328 46.08 72.6118 46.5943 72.7434C47.1236 72.8214 47.6436 72.9529 48.1463 73.1362Z" fill="#FAFAFA"/>
<path d="M54.9468 72.0349C54.3474 71.4535 53.9407 70.7025 53.7812 69.8828C53.8252 69.8828 54.02 70.3792 54.3436 70.9698C54.6672 71.5605 54.9845 72.0035 54.9468 72.0349Z" fill="#FAFAFA"/>
<path d="M62.6028 72.5641C62.4849 72.8301 62.3187 73.0719 62.1127 73.2773C61.7985 73.6417 61.5346 73.9056 61.4844 73.8868C61.5998 73.6176 61.7663 73.3733 61.9745 73.1673C62.2887 72.8092 62.5557 72.539 62.6028 72.5641Z" fill="#FAFAFA"/>
<path d="M48.6072 50.9688C48.6323 51.0065 48.3527 51.2389 47.9788 51.484C47.7665 51.6578 47.5221 51.7881 47.2594 51.8673C47.2342 51.8296 47.517 51.5971 47.8877 51.3489C48.0996 51.1753 48.3443 51.046 48.6072 50.9688Z" fill="#FAFAFA"/>
<path d="M53.9109 45.0488C53.6589 44.5338 53.4691 43.9907 53.3454 43.4308C53.1755 42.8847 53.07 42.3206 53.0312 41.75C53.2286 42.2848 53.3882 42.8328 53.5088 43.39C53.682 43.9327 53.8163 44.487 53.9109 45.0488Z" fill="#FAFAFA"/>
<path d="M59.0083 50.434C58.9863 50.478 58.5276 50.3021 57.9401 50.1921C57.3526 50.0821 56.8594 50.0727 56.8594 50.0224C57.6019 49.8931 58.3661 50.0394 59.0083 50.434Z" fill="#FAFAFA"/>
<path d="M62.503 45.857C62.1127 45.971 61.7 45.985 61.3029 45.8978C60.8981 45.8629 60.5089 45.7256 60.1719 45.4988C60.1907 45.4548 60.6871 45.6402 61.328 45.7345C61.9689 45.8287 62.4967 45.8099 62.503 45.857Z" fill="#FAFAFA"/>
<path d="M66.0842 50.965C66.0252 50.3868 66.0548 49.8031 66.1721 49.2339C66.2393 48.656 66.3962 48.0921 66.6371 47.5625C66.6811 47.5625 66.4832 48.3228 66.323 49.259C66.1627 50.1953 66.1344 50.9681 66.0842 50.965Z" fill="#FAFAFA"/>
<path d="M70.2972 56.9804C69.5141 56.326 68.8041 55.5886 68.1797 54.7812C68.9608 55.4379 69.6706 56.175 70.2972 56.9804Z" fill="#FAFAFA"/>
<path d="M73.7957 56.5156C73.4711 57.2259 73.048 57.8869 72.5391 58.4792C72.6786 58.112 72.8689 57.7661 73.1046 57.4519C73.2899 57.1089 73.5226 56.7937 73.7957 56.5156Z" fill="#FAFAFA"/>
<path d="M77.858 54.5429C77.5844 54.1693 77.3566 53.7643 77.1794 53.3365C76.9534 52.9312 76.7752 52.5011 76.6484 52.0547C76.9216 52.4297 77.1494 52.8357 77.327 53.2642C77.5527 53.6686 77.7309 54.0977 77.858 54.5429Z" fill="#FAFAFA"/>
<path d="M83.3824 52.2511C82.4132 52.1905 81.454 52.0197 80.5234 51.7422C81.0102 51.7471 81.4949 51.8061 81.9686 51.9181C82.451 51.9753 82.9253 52.087 83.3824 52.2511Z" fill="#FAFAFA"/>
<path d="M39.4609 58.1367C39.7965 57.161 40.2368 56.2246 40.7742 55.3438C40.6306 55.8396 40.4348 56.3188 40.1898 56.7732C39.9956 57.2522 39.7513 57.7092 39.4609 58.1367Z" fill="#FAFAFA"/>
<path d="M42.3923 52.9653C42.041 52.6905 41.7245 52.374 41.4497 52.0228C41.1327 51.7074 40.8534 51.3563 40.6172 50.9766C40.9695 51.2501 41.2861 51.5668 41.5597 51.9191C41.8783 52.233 42.1579 52.5843 42.3923 52.9653Z" fill="#FAFAFA"/>
<path d="M42.1509 61.2714C42.1792 61.3059 41.9624 61.5353 41.667 61.7835C41.3717 62.0317 41.1047 62.2013 41.0733 62.1667C41.0418 62.1322 41.2649 61.9028 41.5602 61.6578C41.8556 61.4127 42.1226 61.2305 42.1509 61.2714Z" fill="#FAFAFA"/>
<path d="M43.1359 47.4717C43.1736 47.5 43.0416 47.7231 42.8437 47.9713C42.6458 48.2195 42.4541 48.3954 42.4196 48.3671C42.385 48.3388 42.517 48.1158 42.7149 47.8676C42.9128 47.6194 43.117 47.4435 43.1359 47.4717Z" fill="#FAFAFA"/>
<g opacity="0.3">
<path d="M59.5625 48.8984C60.8914 53.0738 61.9156 57.4565 63.2446 61.6318L62.9304 52.9858C61.6381 51.7725 60.5063 50.3989 59.5625 48.8984Z" fill="black"/>
</g>
<path d="M37.9453 54.3566C37.9562 54.3221 37.9699 54.2885 37.9862 54.2561L38.1118 53.9639C38.2249 53.7126 38.3914 53.3544 38.6051 52.9115C39.0323 52.0255 39.6481 50.8159 40.3896 49.509C41.131 48.202 41.8505 47.0522 42.3908 46.2322C42.661 45.8206 42.8841 45.4907 43.0412 45.2677L43.2234 45.0101C43.2674 44.9504 43.2894 44.9189 43.2925 44.9221L43.236 45.0163L43.0632 45.2802L42.4348 46.2573C41.9039 47.0836 41.1781 48.2366 40.4524 49.5404C39.7267 50.8442 39.0889 52.0538 38.6553 52.9303L38.1432 53.9765C38.0898 54.0833 38.0427 54.1776 38.005 54.2593C37.9886 54.2937 37.9686 54.3264 37.9453 54.3566Z" fill="#263238"/>
<path d="M40.0645 50.3594C39.9526 50.415 39.8371 50.4632 39.7189 50.5039C39.4459 50.6231 39.185 50.7683 38.9398 50.9374C38.6961 51.1086 38.4699 51.3033 38.2643 51.5187C38.1041 51.6852 38.0161 51.7951 38.0098 51.7889C38.0035 51.7826 38.0098 51.7574 38.0601 51.704C38.1122 51.6284 38.1689 51.556 38.2297 51.4872C38.4274 51.2585 38.6533 51.0558 38.9021 50.884C39.1509 50.7114 39.4199 50.57 39.7032 50.4631C39.7884 50.4298 39.8755 50.4015 39.964 50.3782C39.9964 50.3673 40.0303 50.361 40.0645 50.3594Z" fill="#263238"/>
<path d="M40.3608 43.9141C40.0918 44.4287 39.7763 44.9177 39.4183 45.375C39.099 45.863 38.734 46.3196 38.3281 46.7385C38.5985 46.2256 38.9139 45.7377 39.2706 45.2807C39.5905 44.792 39.9555 44.3345 40.3608 43.9141Z" fill="#FAFAFA"/>
<path d="M42.625 38.8056C42.7807 38.8331 42.9411 38.8116 43.084 38.7441C43.2269 38.6766 43.3454 38.5663 43.423 38.4286C43.5989 38.1647 43.6806 37.8505 43.8346 37.5741C44.3027 36.7541 45.3646 36.3959 45.7918 35.5539C45.8515 35.4346 45.8861 35.2712 45.7918 35.1895C45.6976 35.1078 45.5562 35.1644 45.4463 35.2178L42.6501 36.619" fill="#FFBE9D"/>
<path d="M42.6469 36.621C42.7332 36.5473 42.8295 36.4859 42.9328 36.4388C43.1213 36.332 43.4009 36.1844 43.7465 36.0021L44.9592 35.3738L45.3142 35.1947C45.4462 35.1007 45.6094 35.0613 45.7698 35.0847C45.819 35.1035 45.8614 35.1366 45.8916 35.1797C45.9219 35.2228 45.9385 35.274 45.9394 35.3267C45.9409 35.4137 45.9215 35.4999 45.8829 35.578C45.8147 35.7163 45.7304 35.8461 45.6315 35.9644C45.2382 36.362 44.8183 36.7326 44.3749 37.0735C44.1972 37.229 44.0437 37.41 43.9193 37.6107C43.8062 37.8023 43.7339 38.0003 43.646 38.1793C43.5904 38.3307 43.5022 38.468 43.3876 38.5814C43.2731 38.6949 43.1349 38.7818 42.9831 38.836C42.9278 38.858 42.8683 38.8672 42.809 38.8628C42.7496 38.8584 42.6921 38.8407 42.6406 38.8108C42.7469 38.8146 42.853 38.8008 42.9548 38.77C43.0877 38.7095 43.2069 38.6225 43.3052 38.5145C43.4035 38.4065 43.4788 38.2797 43.5266 38.1416C43.6022 37.9415 43.6882 37.7453 43.7842 37.5541C43.9108 37.3366 44.0697 37.1396 44.2555 36.9698C44.6956 36.6271 45.1152 36.2589 45.5121 35.867C45.5997 35.7585 45.6765 35.6417 45.7415 35.5183C45.798 35.4021 45.798 35.2795 45.7415 35.2638C45.6849 35.2481 45.5404 35.3015 45.4273 35.3612L45.0723 35.5372L43.8408 36.1341C43.4889 36.3006 43.2124 36.4483 43.0019 36.5205C42.8895 36.5721 42.7697 36.606 42.6469 36.621Z" fill="#EB996E"/>
<path d="M126.058 9.6645C126.058 9.71163 123.95 9.73676 121.345 9.7242C118.741 9.71163 116.633 9.66136 116.633 9.61738C116.633 9.5734 118.741 9.54512 121.345 9.55769C123.95 9.57025 126.058 9.62052 126.058 9.6645Z" fill="#263238"/>
<path d="M121.383 14.347C121.339 14.347 121.282 12.2421 121.254 9.63444C121.225 7.02682 121.254 4.92188 121.288 4.92188C121.323 4.92188 121.392 7.02682 121.417 9.63444C121.442 12.2421 121.43 14.347 121.383 14.347Z" fill="#263238"/>
<path d="M131.015 79.9796C130.029 79.5682 129.064 79.1068 128.124 78.5973C127.156 78.1356 126.212 77.6238 125.297 77.0641C125.316 77.0264 126.61 77.6454 128.187 78.4496C129.764 79.2539 131.037 79.9419 131.015 79.9796Z" fill="#263238"/>
<path d="M126.75 81.3962C127.146 80.4026 127.594 79.4304 128.092 78.4838C128.538 77.5164 129.034 76.5726 129.578 75.6562C129.18 76.6492 128.732 77.6213 128.236 78.5686C127.789 79.5356 127.293 80.4793 126.75 81.3962Z" fill="#263238"/>
<path d="M18.2377 57.8536C18.2377 57.8976 16.7486 58.5354 14.8792 59.28C13.0099 60.0245 11.4768 60.5963 11.4611 60.5555C11.4454 60.5146 12.9471 59.8737 14.8195 59.1292C16.692 58.3846 18.2189 57.8128 18.2377 57.8536Z" fill="#263238"/>
<path d="M14.768 55.811C14.768 55.811 14.7146 55.7199 14.6015 55.5754C14.4413 55.3754 14.221 55.2322 13.9731 55.167C13.774 55.1139 13.5639 55.1172 13.3665 55.1765C13.1691 55.2358 12.9921 55.3488 12.8551 55.5029C12.7182 55.657 12.6268 55.8461 12.5911 56.0491C12.5555 56.2521 12.5769 56.4611 12.6531 56.6526C12.7293 56.8442 12.8572 57.0108 13.0226 57.1338C13.1879 57.2569 13.3842 57.3316 13.5896 57.3495C13.7949 57.3675 14.0013 57.328 14.1855 57.2356C14.3697 57.1431 14.5246 57.0012 14.6329 56.8258C14.7698 56.6075 14.8316 56.3505 14.8088 56.0938C14.8088 55.9116 14.7554 55.8142 14.768 55.8079C14.8254 55.891 14.861 55.9871 14.8717 56.0875C14.9222 56.3615 14.8731 56.6445 14.7334 56.8855C14.6301 57.0686 14.4819 57.2224 14.3027 57.3323C14.1235 57.4422 13.9192 57.5047 13.7092 57.5139C13.4501 57.5234 13.1943 57.4526 12.977 57.311C12.7598 57.1695 12.5916 56.9642 12.4956 56.7233C12.3995 56.4824 12.3804 56.2177 12.4408 55.9655C12.5011 55.7133 12.638 55.486 12.8327 55.3147C12.9898 55.1764 13.1796 55.0805 13.3841 55.036C13.5886 54.9915 13.801 54.9998 14.0014 55.0602C14.2687 55.1374 14.4995 55.308 14.6517 55.5409C14.7113 55.6205 14.7512 55.7131 14.768 55.811Z" fill="#263238"/>
<path d="M17.1273 61.7215C17.1116 61.7215 17.0739 61.6303 16.9608 61.4858C16.8015 61.2847 16.5808 61.1413 16.3324 61.0774C16.152 61.0312 15.963 61.0302 15.7821 61.0746C15.6013 61.119 15.4342 61.2074 15.2957 61.3319C15.1275 61.4836 15.0098 61.6832 14.9584 61.9037C14.907 62.1243 14.9244 62.3554 15.0082 62.5658C15.0921 62.7762 15.2383 62.9559 15.4273 63.0807C15.6163 63.2055 15.8389 63.2695 16.0654 63.264C16.2538 63.2623 16.4388 63.2133 16.6034 63.1217C16.7681 63.03 16.9071 62.8986 17.0079 62.7394C17.1433 62.5205 17.205 62.2639 17.1838 62.0073C17.1838 61.8251 17.1273 61.7277 17.143 61.7215C17.2 61.8035 17.2357 61.8986 17.2467 61.9979C17.2961 62.2733 17.246 62.5573 17.1053 62.7991C17.0027 62.9821 16.8551 63.1359 16.6764 63.2459C16.4977 63.3558 16.2938 63.4183 16.0842 63.4274C15.8251 63.4369 15.5693 63.3661 15.352 63.2246C15.1348 63.083 14.9666 62.8777 14.8706 62.6369C14.7745 62.396 14.7554 62.1313 14.8158 61.8791C14.8761 61.6269 15.013 61.3995 15.2077 61.2282C15.3657 61.0915 15.5553 60.9963 15.7594 60.9513C15.9635 60.9064 16.1755 60.913 16.3764 60.9706C16.6431 61.0508 16.8732 61.222 17.0267 61.4544C17.0812 61.534 17.1157 61.6256 17.1273 61.7215Z" fill="#263238"/>
<path d="M35.8035 25.1972C35.8035 25.1972 35.838 25.282 35.8977 25.4454C35.9574 25.6088 36.0454 25.857 36.1585 26.1711C36.3847 26.7995 36.7177 27.742 37.1418 28.961L37.1638 29.0175H37.101L33.067 28.4583H33.1079C31.7005 29.5639 30.034 30.2916 28.2665 30.5727C27.7687 30.6525 27.2657 30.6956 26.7616 30.7015C26.504 30.7015 26.2432 30.6795 25.9793 30.6732L25.5866 30.6544C25.4547 30.6544 25.3227 30.6167 25.1908 30.5978C24.0868 30.4632 23.0132 30.1446 22.0145 29.6553C20.9485 29.1389 19.9751 28.45 19.1336 27.6163C18.0208 26.5053 17.1699 25.16 16.6428 23.6786C16.1157 22.1971 15.9258 20.6166 16.0868 19.0524C16.2479 17.4882 16.7558 15.9797 17.5736 14.6366C18.3915 13.2936 19.4986 12.1499 20.8144 11.2889C21.7542 10.6711 22.789 10.2115 23.8775 9.9285L24.2765 9.82483L24.4745 9.77456L24.6755 9.74314L25.4798 9.62376C25.7469 9.59862 26.0139 9.59234 26.2809 9.57663C26.5445 9.55779 26.8091 9.55779 27.0727 9.57663C27.3334 9.59862 27.5973 9.57663 27.8518 9.63318L28.6152 9.75257C28.8666 9.79341 29.1116 9.87195 29.3567 9.93165L29.7211 10.0259C29.8405 10.0636 29.9567 10.1107 30.073 10.1516C32.6556 11.0471 34.787 12.9147 36.014 15.3574C36.6544 16.6302 37.0306 18.0195 37.1198 19.4416C37.2391 21.2015 36.9015 22.9623 36.1396 24.5532C36.036 24.7637 35.9543 24.9207 35.8977 25.0213C35.8412 25.1218 35.8035 25.1784 35.8035 25.1784C35.8035 25.1784 35.8255 25.125 35.8789 25.0181C35.9323 24.9113 36.014 24.7511 36.1082 24.5406C36.3889 23.9254 36.6098 23.2847 36.768 22.6273C37.0233 21.5881 37.1103 20.5146 37.0256 19.4479C36.8939 17.4005 36.1602 15.4377 34.9164 13.8061C33.6727 12.1745 31.9746 10.9468 30.0353 10.2772C29.919 10.2364 29.8059 10.1924 29.6866 10.1547L29.3284 10.0605C29.0865 10.0039 28.8446 9.92536 28.5964 9.88766L27.8424 9.77142C27.591 9.72743 27.3334 9.73686 27.0727 9.71801C26.8133 9.69758 26.5528 9.69758 26.2935 9.71801C26.0328 9.71801 25.7688 9.74 25.5049 9.76199L24.7132 9.88452L24.5153 9.91594L24.3174 9.9662L23.9247 10.0667C22.8534 10.3466 21.8355 10.8009 20.9118 11.4114C19.3663 12.4174 18.1161 13.8163 17.2893 15.4647C16.4626 17.1131 16.0891 18.9517 16.2071 20.792C16.325 22.6323 16.9303 24.4082 17.9607 25.9375C18.9912 27.4668 20.4097 28.6946 22.0711 29.4951C23.058 29.9832 24.1201 30.3018 25.2128 30.4376C25.3416 30.4564 25.4704 30.4816 25.6023 30.4941L25.9919 30.513C26.2527 30.513 26.5072 30.5507 26.7616 30.5444C27.2593 30.5407 27.7561 30.4997 28.2477 30.4219C29.9968 30.1528 31.6481 29.4412 33.045 28.3546H33.0639H33.067L37.1073 28.9327L37.0664 28.9798C36.6549 27.764 36.3376 26.8183 36.1239 26.1523L35.882 25.4266C35.8255 25.282 35.8035 25.1972 35.8035 25.1972Z" fill="#263238"/>
<path d="M27.1512 17.6893C27.2226 17.724 27.2828 17.778 27.325 17.8452C27.3672 17.9124 27.3897 17.9901 27.39 18.0694V20.1618C27.3895 20.2265 27.3741 20.2901 27.345 20.3479C27.3159 20.4056 27.2739 20.4559 27.2222 20.4948C27.1706 20.5336 27.1107 20.5601 27.0472 20.5721C26.9836 20.5841 26.9182 20.5813 26.8559 20.564C26.6834 20.5199 26.5038 20.511 26.3278 20.538C26.1518 20.565 25.9831 20.6273 25.8317 20.721C25.693 20.8017 25.572 20.9095 25.476 21.038C25.3799 21.1664 25.3107 21.3129 25.2725 21.4688C25.2461 21.6277 25.2513 21.7903 25.288 21.9472C25.3247 22.1041 25.392 22.2522 25.4861 22.383C25.5854 22.5305 25.7129 22.6569 25.8611 22.755C26.0094 22.8531 26.1755 22.921 26.3501 22.9548C26.7046 22.9903 27.0606 22.9042 27.3598 22.7107C27.6589 22.5171 27.8834 22.2277 27.9963 21.8898C28.0347 21.7894 28.11 21.7075 28.2068 21.6608C28.3036 21.6142 28.4146 21.6063 28.517 21.6389C28.6194 21.6714 28.7055 21.7419 28.7577 21.8358C28.8098 21.9298 28.8241 22.0401 28.7975 22.1442C28.622 22.6727 28.2695 23.1244 27.7996 23.4232C27.3297 23.722 26.7711 23.8495 26.2181 23.7842C25.9312 23.7333 25.6573 23.6254 25.4129 23.4667C25.1684 23.308 24.9583 23.1019 24.7949 22.8605C24.6347 22.6354 24.5214 22.3802 24.4621 22.1103C24.4027 21.8404 24.3984 21.5613 24.4494 21.2897C24.5109 21.0219 24.6261 20.7693 24.7881 20.5474C24.9501 20.3254 25.1555 20.1387 25.3919 19.9984C25.7407 19.7887 26.141 19.68 26.548 19.6843V18.0694C26.548 17.9583 26.5919 17.8517 26.6702 17.7729C26.7485 17.694 26.8548 17.6493 26.9659 17.6484C27.0299 17.6481 27.0932 17.662 27.1512 17.6893Z" fill="#FF725E"/>
<path d="M26.5704 16.8081C26.5686 16.7396 26.5871 16.6722 26.6237 16.6143C26.6602 16.5564 26.7131 16.5106 26.7757 16.4828C26.8383 16.4551 26.9077 16.4465 26.9752 16.4583C27.0427 16.47 27.1051 16.5015 27.1546 16.5488C27.2041 16.5961 27.2385 16.6571 27.2533 16.7239C27.2681 16.7908 27.2627 16.8605 27.2378 16.9243C27.213 16.9881 27.1697 17.0431 27.1135 17.0822C27.0573 17.1214 26.9908 17.143 26.9223 17.1442C26.8314 17.1451 26.7438 17.1105 26.678 17.0477C26.6123 16.9849 26.5737 16.8989 26.5704 16.8081Z" fill="#FF725E"/>
</svg>
