<svg width="60" height="60" viewBox="0 0 60 60" fill="none" xmlns="http://www.w3.org/2000/svg">
<path d="M45.736 39.336C45.896 39.513 46 39.742 46 40C46 40.553 45.553 41 45 41C44.73 41 44.486 40.891 44.307 40.717L39.617 35.507C39.342 35.198 38.945 35 38.5 35C37.672 35 37 35.672 37 36.5C37 36.732 37.058 36.95 37.152 37.147C39.314 41.644 40.154 43.048 40.646 45.927C41.363 50.13 44 50.008 44 55H53V37H43.642L45.736 39.336Z" fill="#005DC7"/>
<path opacity="0.6" d="M54.5 30H34L31 32.5L34 35H35.352C35.915 33.822 37.11 33 38.5 33C40.209 33 40.95 34 41.851 35H54.5C55.881 35 57 33.881 57 32.5C57 31.119 55.881 30 54.5 30Z" fill="#005DC7"/>
<path d="M51 28C49.189 26.878 45.428 25 43.389 25C41.809 25 40.332 25.668 38 28H51Z" fill="#005DC7"/>
<path d="M36.224 39.816C35.399 38.113 35.182 37.843 35.057 37H33.277L27.878 32.5L33.277 28H35.173C37.282 25.891 39.246 23.744 41.941 23.16L35.936 4.683C35.803 4.288 35.439 4 35 4C34.895 4 34.797 4.029 34.701 4.061L4.676 14.065C4.285 14.201 4 14.563 4 15C4 15.103 4.029 15.196 4.059 15.29L17.065 55.317C17.197 55.712 17.561 56 18 56C18.105 56 18.203 55.971 18.299 55.939L39.479 48.881C39.148 48.169 38.856 47.325 38.675 46.263C38.304 44.09 37.737 42.926 36.224 39.816V39.816ZM10.076 17.536L15.913 15.592L17.877 21.636L12.017 23.588L10.076 17.536ZM18.434 35.368C17.258 34.736 18.298 35.295 12.445 32.151L13.864 29.508L17.133 31.263L20.212 25.105L22.896 26.447C18.311 35.615 19.049 34.14 18.434 35.368V35.368ZM23.5 18C22.672 18 22 17.328 22 16.5C22 15.838 22.432 15.282 23.027 15.083L32.027 12.083C32.177 12.033 32.334 12 32.5 12C33.328 12 34 12.672 34 13.5C34 14.162 33.568 14.718 32.973 14.917L23.973 17.917C23.823 17.967 23.666 18 23.5 18V18ZM26.5 25C25.672 25 25 24.328 25 23.5C25 22.838 25.432 22.282 26.027 22.083L35.027 19.083C35.177 19.033 35.334 19 35.5 19C36.328 19 37 19.672 37 20.5C37 21.162 36.568 21.718 35.973 21.917L26.973 24.917C26.823 24.967 26.666 25 26.5 25V25Z" fill="#005DC7"/>
</svg>
