<svg width="152" height="140" viewBox="0 0 152 140" fill="none" xmlns="http://www.w3.org/2000/svg">
<path d="M22.1693 128.685C51.6867 143.774 99.5436 143.774 129.058 128.685C158.571 113.596 158.575 89.1246 129.058 74.0356C99.5401 58.9466 51.6867 58.9255 22.1693 74.0356C-7.34811 89.1457 -7.34811 113.592 22.1693 128.685Z" fill="#F5F5F5"/>
<path d="M38.5045 128.249C38.0555 128.254 37.6125 128.144 37.2184 127.929L25.8893 121.389C25.6365 121.265 25.4236 121.072 25.2747 120.833C25.1258 120.594 25.0469 120.318 25.0469 120.036C25.0469 119.755 25.1258 119.479 25.2747 119.239C25.4236 119 25.6365 118.808 25.8893 118.683L57.8103 100.263L51.58 96.6649C50.6734 96.1413 50.7507 95.4069 50.7964 95.196C50.8421 94.9852 51.0705 94.2824 52.1142 94.177L86.3368 90.6876H86.5687C86.9407 90.6839 87.3075 90.7745 87.635 90.9509C87.9625 91.1272 88.24 91.3836 88.4417 91.6961C88.5237 91.8247 88.5768 91.9694 88.5975 92.1205C88.6181 92.2716 88.6057 92.4253 88.5611 92.5711L82.5804 112.084C82.4812 112.444 82.2667 112.762 81.9696 112.989C81.6726 113.215 81.3094 113.338 80.9358 113.339C80.6174 113.337 80.3049 113.252 80.0292 113.093L72.7483 108.876L39.7942 127.897C39.4024 128.125 38.9577 128.246 38.5045 128.249Z" fill="#E0E0E0"/>
<path d="M126.997 114.288C136.211 114.288 143.681 110.227 143.681 105.218C143.681 100.209 136.211 96.1484 126.997 96.1484C117.782 96.1484 110.312 100.209 110.312 105.218C110.312 110.227 117.782 114.288 126.997 114.288Z" fill="#E0E0E0"/>
<path d="M132.125 96.0223C132.125 96.0223 132.273 92.5892 133.78 89.8237C135.288 87.0582 137.501 85.2555 139.662 84.9217C141.824 84.5879 143.718 86.4713 141.49 88.007C139.262 89.5426 135.231 91.2363 133.692 96.5073L132.125 96.0223Z" fill="#BA68C8"/>
<path opacity="0.15" d="M132.125 96.0223C132.125 96.0223 132.273 92.5892 133.78 89.8237C135.288 87.0582 137.501 85.2555 139.662 84.9217C141.824 84.5879 143.718 86.4713 141.49 88.007C139.262 89.5426 135.231 91.2363 133.692 96.5073L132.125 96.0223Z" fill="black"/>
<path d="M132.698 95.0979H132.674C132.659 95.0932 132.646 95.0856 132.634 95.0755C132.622 95.0655 132.613 95.0533 132.606 95.0396C132.599 95.0258 132.595 95.0109 132.594 94.9956C132.593 94.9802 132.595 94.9649 132.6 94.9503C134.494 89.1417 138.693 86.4781 140.65 85.8808C140.665 85.8759 140.68 85.8741 140.696 85.8754C140.711 85.8767 140.726 85.8811 140.739 85.8884C140.753 85.8956 140.765 85.9055 140.774 85.9175C140.784 85.9295 140.791 85.9433 140.795 85.9581C140.803 85.9874 140.8 86.0191 140.786 86.046C140.771 86.073 140.747 86.0932 140.717 86.1021C138.802 86.689 134.687 89.3069 132.821 95.0241C132.811 95.0478 132.794 95.0676 132.772 95.0808C132.75 95.094 132.724 95.1 132.698 95.0979Z" fill="white"/>
<path d="M144.368 94.3345C144.192 94.823 143.697 95.1041 143.229 95.329C142.762 95.5539 142.259 95.7999 142.031 96.2637C141.574 97.202 142.519 98.4073 142.031 99.3244C141.911 99.5062 141.756 99.6622 141.575 99.7829C141.394 99.9036 141.191 99.9867 140.977 100.027C140.625 100.119 140.274 100.143 139.901 100.199C139.729 100.208 139.557 100.208 139.385 100.199C138.876 100.121 138.356 100.213 137.906 100.463C137.203 100.916 137.062 101.833 136.676 102.571C136.436 103.002 136.105 103.375 135.708 103.666C135.31 103.956 134.853 104.157 134.37 104.255C133.961 104.367 133.529 104.367 133.119 104.255L133.046 104.216C132.997 104.172 132.951 104.125 132.909 104.075V104.054C132.747 103.597 132.909 103.095 132.909 102.613C132.91 102.584 132.91 102.555 132.909 102.526C132.849 101.967 132.796 101.412 132.743 100.853C132.645 99.8222 132.562 98.7926 132.494 97.7642C132.455 97.093 132.322 96.3586 132.561 95.7156C132.824 95.0128 133.615 94.9319 133.85 94.2327C133.949 93.9515 133.991 93.6564 134.086 93.3752C134.231 92.9652 134.486 92.6026 134.822 92.3265C135.158 92.0504 135.563 91.8711 135.994 91.808C137.35 91.6393 138.65 92.6584 140 92.4616C140.348 92.3892 140.692 92.2977 141.029 92.1875C142.115 91.9064 143.412 92.1278 144.097 93.0168C144.249 93.1963 144.353 93.411 144.4 93.6412C144.448 93.8714 144.436 94.1098 144.368 94.3345Z" fill="#BA68C8"/>
<g opacity="0.07">
<path d="M144.368 94.3345C144.192 94.823 143.697 95.1041 143.229 95.329C142.762 95.5539 142.259 95.7999 142.031 96.2637C141.574 97.202 142.519 98.4073 142.031 99.3244C141.911 99.5062 141.756 99.6622 141.575 99.7829C141.394 99.9036 141.191 99.9867 140.977 100.027C140.625 100.118 140.264 100.176 139.901 100.199C139.729 100.208 139.557 100.208 139.385 100.199C138.876 100.121 138.356 100.213 137.906 100.463C137.203 100.916 137.062 101.833 136.676 102.571C136.436 103.002 136.105 103.375 135.708 103.666C135.31 103.956 134.853 104.157 134.37 104.255C133.961 104.367 133.529 104.367 133.119 104.255L133.046 104.216C133.024 104.206 133.005 104.192 132.989 104.174C132.957 104.146 132.929 104.113 132.909 104.075V104.054C132.698 103.682 132.909 103.032 132.909 102.613C132.91 102.584 132.91 102.555 132.909 102.526C132.849 101.967 132.796 101.412 132.743 100.853C132.645 99.8222 132.562 98.7926 132.494 97.7642C132.455 97.093 132.322 96.3586 132.561 95.7156C132.824 95.0128 133.615 94.9319 133.85 94.2327C133.949 93.9515 133.991 93.6564 134.086 93.3752C134.231 92.9652 134.486 92.6026 134.822 92.3265C135.158 92.0504 135.563 91.8711 135.994 91.808C137.35 91.6393 138.65 92.6584 140 92.4616C140.348 92.3892 140.692 92.2977 141.029 92.1875C142.115 91.9064 143.412 92.1278 144.097 93.0168C144.249 93.1963 144.353 93.411 144.4 93.6412C144.448 93.8714 144.436 94.1098 144.368 94.3345Z" fill="#263238"/>
</g>
<path d="M132.617 101.917C132.587 101.91 132.561 101.892 132.544 101.867C132.526 101.841 132.52 101.81 132.525 101.78C133.885 94.5938 141.264 93.0512 143.021 93.0547C143.052 93.0547 143.082 93.0669 143.103 93.0887C143.125 93.1104 143.137 93.1399 143.137 93.1707C143.137 93.2014 143.125 93.2309 143.103 93.2526C143.082 93.2744 143.052 93.2866 143.021 93.2866C141.314 93.2866 134.114 94.7941 132.761 101.826C132.758 101.842 132.753 101.857 132.744 101.871C132.735 101.884 132.723 101.896 132.71 101.904C132.696 101.913 132.681 101.919 132.664 101.921C132.648 101.923 132.632 101.922 132.617 101.917Z" fill="white"/>
<path d="M140.619 97.7668C140.596 97.7626 140.574 97.753 140.556 97.7387C139.826 97.1945 138.986 96.8178 138.094 96.6356C137.203 96.4534 136.282 96.4701 135.397 96.6845C135.367 96.6898 135.336 96.6833 135.311 96.6662C135.285 96.6492 135.267 96.6231 135.26 96.5932C135.254 96.5634 135.26 96.5323 135.276 96.5066C135.293 96.481 135.318 96.4629 135.348 96.4561C136.269 96.2368 137.228 96.2236 138.155 96.4174C139.082 96.6112 139.954 97.0071 140.71 97.5771C140.721 97.5879 140.73 97.6007 140.736 97.6149C140.742 97.6291 140.745 97.6443 140.745 97.6597C140.745 97.675 140.742 97.6902 140.736 97.7044C140.73 97.7186 140.721 97.7315 140.71 97.7422C140.684 97.7619 140.652 97.7708 140.619 97.7668Z" fill="white"/>
<path d="M39.0516 1.77937L35.9347 3.57853C35.9498 3.44198 35.958 3.30476 35.9593 3.16739V2.2643C35.9593 0.658412 34.8313 0.00481115 33.4398 0.809512C32.8423 1.17833 32.3307 1.67078 31.9393 2.25376C31.7109 0.233219 30.1261 -0.518771 28.2039 0.591646C26.1201 1.79343 24.4334 4.71706 24.4334 7.12062V8.46999C24.4202 9.00872 24.5295 9.54343 24.7532 10.0337L22.1634 11.5271C21.7552 11.7917 21.4152 12.1488 21.1709 12.5695C20.9267 12.9902 20.7852 13.4626 20.7578 13.9483C20.7578 14.8408 21.3833 15.1993 22.1634 14.7565L39.0516 5.0052C39.4597 4.7414 39.7998 4.38492 40.044 3.96479C40.2883 3.54467 40.4298 3.07279 40.4572 2.58759C40.4466 1.69504 39.8211 1.33309 39.0516 1.77937Z" fill="#EBEBEB"/>
<path d="M52.0039 9.80653L49.7198 11.1278C49.7308 11.0274 49.7367 10.9265 49.7374 10.8256V10.179C49.7374 9.00183 48.9116 8.52392 47.8925 9.12481C47.4532 9.39276 47.0768 9.75234 46.7891 10.179C46.624 8.69962 45.4608 8.14793 44.0517 8.96317C43.2476 9.48691 42.5784 10.193 42.0985 11.024C41.6186 11.855 41.3415 12.7875 41.2898 13.7457V14.7366C41.28 15.1311 41.3593 15.5226 41.5217 15.8822L39.6241 16.9786C39.3285 17.1714 39.082 17.4307 38.9045 17.7358C38.7269 18.0408 38.6232 18.3832 38.6016 18.7355C38.6016 19.3891 39.0584 19.6527 39.6241 19.3259L52.0039 12.1749C52.3018 11.9804 52.5497 11.7183 52.7274 11.41C52.9051 11.1016 53.0075 10.7557 53.0264 10.4004C53.0159 9.74679 52.5591 9.47621 52.0039 9.80653Z" fill="#EBEBEB"/>
<path d="M87.751 87.2695V89.5922C87.7264 90.4593 87.599 91.3204 87.3715 92.1574L81.7105 110.666C81.6489 110.893 81.5128 111.094 81.3239 111.235C81.1596 111.355 80.9628 111.422 80.7596 111.427C80.5563 111.433 80.3561 111.377 80.1854 111.266L72.7603 106.979L39.6376 126.102C39.2874 126.289 38.8957 126.383 38.4991 126.377C38.1065 126.385 37.7182 126.293 37.3711 126.109L26.794 119.999C26.4609 119.783 26.1834 119.492 25.9843 119.149C25.7852 118.805 25.6701 118.42 25.6484 118.024V115.701C25.6668 115.302 25.7879 114.915 25.9998 114.577C26.1935 114.228 26.4729 113.934 26.8116 113.723L55.6508 97.077L52.5093 95.2638C52.1766 95.0481 51.8997 94.7567 51.7012 94.4134C51.5027 94.0702 51.3883 93.6849 51.3672 93.2889V90.9978C51.3696 90.8006 51.4113 90.6058 51.4897 90.4248C51.5681 90.2438 51.6818 90.0802 51.8241 89.9436C52.0517 89.7159 52.3507 89.5732 52.6709 89.5395L86.4403 86.0782C86.6555 86.0531 86.8736 86.088 87.0702 86.1792C87.2668 86.2704 87.4343 86.4142 87.5542 86.5948C87.6858 86.795 87.7543 87.03 87.751 87.2695Z" fill="#BA68C8"/>
<path opacity="0.1" d="M38.4991 121.799V126.368C38.1065 126.376 37.7182 126.284 37.3711 126.1L26.794 119.99C26.4609 119.774 26.1834 119.483 25.9843 119.14C25.7852 118.796 25.6701 118.411 25.6484 118.015V115.703C25.6668 115.304 25.7879 114.916 25.9998 114.578L38.4991 121.799Z" fill="black"/>
<path opacity="0.1" d="M59.9151 94.6084L55.6351 97.0681L52.4936 95.2549C52.161 95.0382 51.8843 94.7462 51.6859 94.4024C51.4874 94.0586 51.3729 93.6729 51.3516 93.2766V90.9995C51.3532 90.8021 51.3944 90.6071 51.4729 90.426C51.5514 90.2449 51.6655 90.0814 51.8084 89.9453L59.9151 94.6084Z" fill="black"/>
<path opacity="0.1" d="M81.3214 106.968V111.22C81.1575 111.34 80.9606 111.408 80.7571 111.414C80.5536 111.419 80.3532 111.363 80.1829 111.251L72.7578 106.968V102.023L81.3214 106.968Z" fill="black"/>
<path opacity="0.2" d="M72.7613 102.023V106.968L39.6385 126.087C39.2884 126.274 38.8966 126.368 38.5 126.361V121.793L72.7613 102.023Z" fill="black"/>
<path opacity="0.2" d="M87.7474 87.2712V89.5939C87.7228 90.461 87.5954 91.3221 87.3679 92.1591L81.7069 110.667C81.6453 110.895 81.5092 111.095 81.3203 111.236V106.967L87.5471 86.5859C87.6819 86.7887 87.7518 87.0277 87.7474 87.2712Z" fill="black"/>
<path d="M116.974 16.9843L106.931 11.1863C106.835 9.40911 106.449 7.6596 105.789 6.00665C107.79 5.7284 109.828 6.08093 111.619 7.01517L111.84 7.14518C114.725 8.81081 116.619 12.2018 116.974 16.9843Z" fill="#BA68C8"/>
<path opacity="0.3" d="M116.974 16.9843L106.931 11.1863C106.835 9.40911 106.449 7.6596 105.789 6.00665C107.79 5.7284 109.828 6.08093 111.619 7.01517L111.84 7.14518C114.725 8.81081 116.619 12.2018 116.974 16.9843Z" fill="black"/>
<path d="M115.505 18.4835C115.393 18.4566 115.275 18.469 115.171 18.5186L111.411 20.2124C111.352 20.241 111.287 20.2561 111.221 20.2567C111.155 20.2573 111.09 20.2433 111.031 20.2158C110.971 20.1882 110.918 20.1478 110.875 20.0974C110.833 20.047 110.803 19.9879 110.786 19.9242C110.638 19.4498 108.062 18.9016 107.852 18.494L109.282 14.9062L115.505 18.4835Z" fill="#455A64"/>
<path d="M109.301 14.9207C109.25 14.8942 109.194 14.8804 109.137 14.8804C109.08 14.8804 109.024 14.8942 108.974 14.9207L106.198 8.49713C106.259 8.36863 106.271 8.22183 106.23 8.08538C106.189 7.94894 106.098 7.83264 105.976 7.7592L103.257 6.19196C103.133 6.12123 102.987 6.09968 102.849 6.13159C102.71 6.1635 102.588 6.24654 102.508 6.36415L99.3841 11.0623C99.287 11.1874 99.163 11.289 99.0213 11.3596C98.8795 11.4301 98.7237 11.4679 98.5654 11.47C98.2016 11.4605 97.8375 11.4769 97.4761 11.5192V8.07194L95.3888 6.86665C95.3326 6.84047 95.2705 6.82961 95.2088 6.83516C95.1471 6.84071 95.0879 6.86249 95.0374 6.89827L90.8206 9.33697C90.6832 9.42576 90.5664 9.54285 90.4779 9.68041C90.3895 9.81797 90.3314 9.97283 90.3075 10.1346L89.8859 14.8328C89.8381 15.1654 89.684 15.4736 89.4466 15.7113C88.6095 16.486 87.8253 17.316 87.0993 18.1957C86.9969 18.3085 86.8649 18.3904 86.7183 18.432C86.5717 18.4736 86.4164 18.4733 86.27 18.4312L83.5607 17.4824C83.42 17.4385 83.2688 17.4427 83.1307 17.4942C82.9927 17.5457 82.8757 17.6417 82.7982 17.767L79.6918 23.1434C79.6227 23.2733 79.5987 23.4224 79.6235 23.5674C79.6483 23.7124 79.7205 23.8451 79.8289 23.9446L82.004 25.821C82.1149 25.9261 82.1936 26.0605 82.2309 26.2086C82.2683 26.3567 82.2627 26.5123 82.2149 26.6574C81.8149 27.7243 81.4885 28.8174 81.238 29.9289C81.1511 30.2532 80.9611 30.5406 80.6968 30.7476L76.8314 33.464C76.7045 33.5642 76.6004 33.6903 76.5258 33.8339C76.4513 33.9775 76.4082 34.1353 76.3992 34.2968V39.1742C76.3952 39.2349 76.4069 39.2957 76.4334 39.3505C76.4599 39.4053 76.5002 39.4523 76.5503 39.4869L81.4383 42.2981L79.6567 45.8929C79.5946 46.0207 79.5829 46.1673 79.6239 46.3034C79.6649 46.4394 79.7557 46.5551 79.8781 46.6273L86.5265 50.4927C86.65 50.5634 86.7957 50.585 86.9344 50.5531C87.0732 50.5211 87.1948 50.4381 87.275 50.3205L90.297 47.2282C90.2977 47.2864 90.3128 47.3435 90.341 47.3944C90.3692 47.4453 90.4097 47.4884 90.4586 47.5199L96.6503 51.0936L96.8154 46.2443C96.8154 46.2443 95.5082 44.5541 95.5328 44.2624L102.283 36.9112C102.423 36.956 102.575 36.9527 102.713 36.9017C102.851 36.8508 102.968 36.7552 103.046 36.63L106.152 31.2537C106.221 31.1238 106.245 30.9747 106.22 30.8297C106.196 30.6846 106.123 30.552 106.015 30.4525L109.005 20.9296C109.132 20.8301 109.236 20.7046 109.31 20.5615C109.384 20.4185 109.426 20.2612 109.434 20.1003L109.301 14.9207ZM92.936 35.4388C91.1228 36.493 89.6258 36.7074 88.5365 36.2013C87.2574 35.6075 97.6272 17.8338 98.727 18.8036C99.609 19.5872 100.087 21.042 100.087 23.0766C100.073 27.6307 96.8752 33.1618 92.936 35.4388Z" fill="#263238"/>
<path d="M110.339 10.8807L109.499 12.578L106.8 15.6914L103.62 13.8536L99.1641 11.2778C99.2537 11.222 99.3304 11.1478 99.389 11.06L102.513 6.36528C102.592 6.24895 102.712 6.16623 102.849 6.13312C102.986 6.10002 103.13 6.11888 103.254 6.18607L105.981 7.76033L110.117 10.1463C110.239 10.2191 110.329 10.3348 110.37 10.4707C110.411 10.6065 110.4 10.7528 110.339 10.8807Z" fill="#455A64"/>
<path d="M80.9952 30.4453C80.9179 30.5603 80.8217 30.6613 80.7106 30.744L76.8452 33.4603C76.7368 33.545 76.6461 33.65 76.5781 33.7695L83.0684 37.5225L88.2024 34.6094L80.9952 30.4453Z" fill="#455A64"/>
<path d="M83.3161 17.4531C83.2132 17.4621 83.1138 17.495 83.0259 17.5493C82.938 17.6036 82.8641 17.6778 82.8101 17.7659L79.7037 23.1423C79.635 23.2689 79.6103 23.4147 79.6335 23.5569L86.4436 27.4926L90.6955 21.7402L83.3161 17.4531Z" fill="#455A64"/>
<path d="M101.6 10.4597V12.0058L97.8403 14.1775L90.3906 9.87284C90.4776 9.65616 90.6299 9.47194 90.8264 9.34574L95.0431 6.90704C95.1068 6.86826 95.1794 6.84649 95.254 6.84379C95.2993 6.84297 95.3441 6.85387 95.384 6.87542L97.4186 8.04557L97.4713 8.0772L100.282 9.70066L101.6 10.4597Z" fill="#455A64"/>
<path d="M115.662 23.679V18.8016C115.671 18.7423 115.662 18.6816 115.637 18.627C115.613 18.5723 115.573 18.5259 115.522 18.4933C115.472 18.4607 115.413 18.4433 115.353 18.4431C115.293 18.4429 115.234 18.4601 115.184 18.4924L111.424 20.1861C111.364 20.2147 111.299 20.2297 111.233 20.2301C111.167 20.2305 111.102 20.2162 111.042 20.1883C110.982 20.1604 110.929 20.1196 110.887 20.0688C110.845 20.018 110.815 19.9584 110.798 19.8945C110.593 19.2425 110.312 18.6173 109.959 18.0321C109.882 17.8942 109.837 17.7409 109.827 17.5834C109.817 17.4259 109.843 17.2682 109.902 17.1219L112.408 12.0688C112.469 11.9403 112.481 11.7935 112.44 11.6571C112.399 11.5206 112.309 11.4044 112.187 11.3309L109.467 9.76016C109.343 9.69059 109.197 9.67004 109.058 9.70257C108.92 9.73509 108.798 9.81832 108.718 9.93586L105.594 14.634C105.498 14.7598 105.374 14.8617 105.232 14.9318C105.09 15.0019 104.934 15.0383 104.776 15.0382C104.093 15.0265 103.411 15.0961 102.744 15.2455C102.681 15.2634 102.614 15.2669 102.549 15.2557C102.483 15.2446 102.422 15.2191 102.367 15.1811C102.313 15.1431 102.268 15.0935 102.236 15.036C102.203 14.9785 102.184 14.9144 102.179 14.8484L101.768 10.7441C101.769 10.6841 101.754 10.6249 101.724 10.5733C101.693 10.5217 101.649 10.4798 101.595 10.4526C101.542 10.4253 101.482 10.4138 101.422 10.4194C101.362 10.4249 101.305 10.4474 101.258 10.484L97.0413 12.9227C96.9065 13.0108 96.7919 13.1265 96.7053 13.2622C96.6187 13.3979 96.5619 13.5505 96.5388 13.7099L96.1136 18.4116C96.0658 18.7441 95.9117 19.0523 95.6743 19.2901C94.8372 20.0648 94.053 20.8948 93.327 21.7745C93.2246 21.8873 93.0926 21.9691 92.946 22.0108C92.7994 22.0524 92.6441 22.0521 92.4977 22.0099L89.7814 21.0681C89.6411 21.0239 89.4901 21.0276 89.3521 21.0785C89.2141 21.1293 89.0969 21.2246 89.0188 21.3493L85.9125 26.7292C85.8434 26.859 85.8193 27.0082 85.8441 27.1532C85.8689 27.2982 85.9412 27.4308 86.0495 27.5303L88.2247 29.4068C88.3356 29.5118 88.4143 29.6462 88.4516 29.7943C88.4889 29.9424 88.4834 30.0981 88.4355 30.2431C88.0356 31.3101 87.7092 32.4031 87.4586 33.5147C87.3717 33.839 87.1818 34.1263 86.9175 34.3334L83.0521 37.0497C82.9252 37.15 82.821 37.2761 82.7465 37.4197C82.672 37.5633 82.6288 37.721 82.6199 37.8825V42.7599C82.6121 42.8194 82.6213 42.8799 82.6466 42.9343C82.6719 42.9887 82.7121 43.0348 82.7625 43.0672C82.813 43.0996 82.8716 43.117 82.9316 43.1174C82.9916 43.1177 83.0505 43.101 83.1013 43.0692L86.8613 41.3754C86.9205 41.3468 86.9854 41.3317 87.0512 41.3311C87.117 41.3305 87.1822 41.3445 87.2419 41.372C87.3017 41.3996 87.3547 41.44 87.397 41.4904C87.4393 41.5408 87.47 41.5999 87.4867 41.6636C87.6896 42.3175 87.9716 42.9441 88.3266 43.5295C88.4035 43.6673 88.4485 43.8206 88.4582 43.9782C88.4679 44.1357 88.4422 44.2934 88.3828 44.4396L85.8773 49.4927C85.8126 49.6205 85.7987 49.7681 85.8385 49.9057C85.8782 50.0433 85.9687 50.1607 86.0917 50.2342L88.8115 51.8049C88.9355 51.8753 89.0814 51.8963 89.2202 51.8637C89.359 51.8312 89.4803 51.7474 89.56 51.6292L92.6839 46.9345C92.7807 46.8099 92.9041 46.7086 93.0452 46.6381C93.1863 46.5675 93.3414 46.5295 93.4992 46.5269C94.1833 46.5421 94.8667 46.4725 95.5338 46.3196C95.5974 46.3024 95.6641 46.2994 95.729 46.3108C95.794 46.3222 95.8557 46.3477 95.9096 46.3856C95.9636 46.4235 96.0086 46.4728 96.0414 46.53C96.0742 46.5872 96.0941 46.651 96.0995 46.7167L96.5106 50.821C96.5081 50.8812 96.5228 50.9409 96.553 50.9931C96.5833 51.0452 96.6278 51.0877 96.6813 51.1153C96.7349 51.143 96.7952 51.1549 96.8552 51.1494C96.9153 51.1439 96.9725 51.1214 97.0202 51.0846L101.237 48.6459C101.372 48.5574 101.487 48.4411 101.574 48.3048C101.66 48.1684 101.717 48.0152 101.739 47.8552L102.165 43.157C102.212 42.8245 102.366 42.5163 102.604 42.2785C103.44 41.5038 104.223 40.6738 104.948 39.7941C105.05 39.6803 105.183 39.5978 105.33 39.5562C105.477 39.5145 105.634 39.5154 105.781 39.5587L108.49 40.5075C108.63 40.5507 108.782 40.5463 108.919 40.4948C109.057 40.4433 109.174 40.3477 109.252 40.2228L112.359 34.8429C112.428 34.7136 112.451 34.5651 112.427 34.4207C112.402 34.2763 112.33 34.1442 112.222 34.0453L110.046 32.1688C109.936 32.0638 109.857 31.9294 109.82 31.7813C109.782 31.6332 109.788 31.4775 109.836 31.3325C110.233 30.2635 110.559 29.1694 110.813 28.0574C110.901 27.7339 111.091 27.4471 111.354 27.2387L115.219 24.5224C115.35 24.4228 115.458 24.2956 115.534 24.1499C115.611 24.0042 115.654 23.8434 115.662 23.679ZM99.1461 39.0175C95.2034 41.2911 92.0092 39.4463 92.0092 34.8957C92.0092 30.3451 95.2034 24.8105 99.1461 22.537C103.089 20.2634 106.283 22.1048 106.283 26.6554C106.283 31.206 103.085 36.7405 99.1461 39.0175Z" fill="#37474F"/>
<path d="M102.728 25.5992L100.848 24.5168H100.83C99.9975 24.046 98.8519 24.1163 97.5869 24.8472C95.0428 26.316 92.9766 29.8932 92.9766 32.8344C92.9766 34.2998 93.4931 35.3329 94.3224 35.8143L96.0302 36.7912L96.4378 36.1095C96.9016 36.0044 97.347 35.8303 97.7591 35.5929C100.307 34.1241 102.369 30.5468 102.373 27.6056C102.372 27.2087 102.323 26.8133 102.225 26.4285L102.728 25.5992Z" fill="#BA68C8"/>
<path opacity="0.1" d="M92.9766 32.8251C92.9766 34.2939 93.4931 35.3235 94.3224 35.8049L96.0302 36.7818L96.4378 36.1001C96.9015 35.9945 97.3467 35.8204 97.7591 35.5835C99.2226 34.6665 100.411 33.371 101.199 31.8341L94.5227 27.9688C93.5787 29.4184 93.0445 31.0965 92.9766 32.8251Z" fill="black"/>
<path opacity="0.4" d="M102.735 25.5992L100.855 24.5168H100.834C100.001 24.046 98.8554 24.1163 97.5904 24.8472C96.3264 25.6286 95.2712 26.7055 94.5156 27.9851L101.192 31.8505C101.919 30.5602 102.324 29.1138 102.373 27.6337C102.372 27.2368 102.323 26.8414 102.225 26.4566L102.735 25.5992Z" fill="white"/>
<path d="M99.376 25.8578C96.8283 27.3266 94.7656 30.9038 94.7656 33.8451C94.7656 36.7863 96.8283 37.9775 99.376 36.5051C101.924 35.0328 103.986 31.4591 103.986 28.5179C103.986 25.5767 101.924 24.3854 99.376 25.8578Z" fill="#BA68C8"/>
<path d="M100.435 27.9709C100.447 27.9595 100.463 27.9531 100.479 27.9531C100.496 27.9531 100.511 27.9595 100.523 27.9709C100.536 27.9861 100.547 28.0039 100.553 28.0233C100.559 28.0427 100.561 28.0632 100.558 28.0833V28.8283C100.557 28.8825 100.546 28.936 100.527 28.9864C100.509 29.0343 100.489 29.0812 100.467 29.127L99.9151 30.3006C100.016 30.2752 100.121 30.2747 100.222 30.2992C100.323 30.3236 100.417 30.3724 100.495 30.4412C100.582 30.5446 100.646 30.6647 100.685 30.794C100.724 30.9233 100.736 31.0591 100.72 31.1932C100.733 31.685 100.611 32.171 100.368 32.5988C100.129 33.0054 99.7857 33.3413 99.374 33.5721C99.1978 33.684 99.0004 33.7582 98.7942 33.79C98.6474 33.8108 98.4979 33.7863 98.3655 33.7197C98.2477 33.6534 98.1542 33.5512 98.0984 33.4281C98.033 33.2859 97.9994 33.1312 98 32.9748C98.0005 32.9307 98.0113 32.8874 98.0316 32.8483C98.0442 32.8127 98.0692 32.7827 98.1019 32.7639L98.6782 32.4301C98.7415 32.395 98.7907 32.3879 98.8223 32.4125L98.9347 32.4934C98.9821 32.5237 99.0367 32.5407 99.0928 32.5425C99.1939 32.5393 99.2917 32.5063 99.374 32.4477C99.5123 32.367 99.632 32.258 99.7254 32.1279C99.8223 32.001 99.8731 31.8448 99.8694 31.6851C99.8694 31.52 99.8238 31.4286 99.7254 31.411C99.6007 31.4003 99.4763 31.4339 99.374 31.5059L98.9945 31.7273C98.9829 31.7377 98.9679 31.7434 98.9523 31.7434C98.9367 31.7434 98.9217 31.7377 98.9101 31.7273C98.8964 31.7122 98.8859 31.6944 98.8793 31.675C98.8726 31.6557 98.87 31.6352 98.8715 31.6149V31.0105C98.8717 30.9562 98.8825 30.9025 98.9031 30.8523C98.9242 30.7961 98.9488 30.7469 98.9699 30.7012L99.4513 29.6716L98.26 30.3569C98.2484 30.3672 98.2334 30.373 98.2179 30.373C98.2023 30.373 98.1873 30.3672 98.1757 30.3569C98.1622 30.3416 98.1518 30.3238 98.1451 30.3045C98.1385 30.2852 98.1357 30.2648 98.137 30.2444V29.503C98.1379 29.4491 98.1511 29.3962 98.1757 29.3483C98.1921 29.3043 98.2215 29.2663 98.26 29.2394L100.435 27.9709Z" fill="#37474F"/>
<path d="M102.009 1.33664L101.84 1.23824C98.607 -0.680388 94.1091 -0.43441 89.1403 2.433C79.3012 8.1151 71.2999 21.9531 71.2999 33.3349C71.2999 44.7167 63.3091 58.5618 53.4559 64.2579C51.4411 65.4789 49.1998 66.2786 46.8672 66.6088C47.6049 68.5314 48.9337 70.1703 50.6623 71.2894L50.838 71.3948C54.0708 73.2994 58.5687 73.0429 63.5129 70.1825C73.352 64.4934 81.3534 50.6518 81.3534 39.2595C81.3534 27.8672 89.3406 14.0432 99.1973 8.35757C101.213 7.13504 103.455 6.33521 105.79 6.00671C107.79 5.72846 109.828 6.08099 111.619 7.01523L102.009 1.33664Z" fill="#BA68C8"/>
<path d="M70.6602 45.4034L79.3397 43.4567H79.3222L75.6114 41.3096L72.1677 39.3172C72.0946 39.2726 72.0109 39.2484 71.9252 39.2469L68.8786 39.0747C68.8121 39.0771 68.7458 39.066 68.6836 39.0422C68.6215 39.0184 68.5647 38.9822 68.5169 38.936C68.469 38.8897 68.4309 38.8343 68.4049 38.773C68.3789 38.7117 68.3655 38.6458 68.3656 38.5793C68.4534 37.602 68.4534 36.6188 68.3656 35.6416C68.3774 35.3106 68.5013 34.9934 68.717 34.742L73.5909 34.3449C73.7982 34.0919 77.7866 30.2441 77.7866 30.2441H77.7655L70.604 26.0941C70.5613 26.0738 70.5142 26.0641 70.4669 26.066C68.4042 24.8748 64.7883 22.7804 64.704 22.7277C64.5969 22.6688 64.4739 22.6454 64.3526 22.6609L60.8 23.0123C60.6357 23.0306 60.4785 23.0897 60.3429 23.1842C60.2073 23.2787 60.0974 23.4057 60.0234 23.5535L58.0977 28.7191C57.9277 29.0477 57.6551 29.3117 57.3211 29.471C56.9452 29.6467 56.5692 29.847 56.1896 30.0649L52.4613 27.9073C52.3137 27.8089 52.0783 27.8722 51.885 28.076L47.9845 32.1944C47.8719 32.3046 47.786 32.4393 47.7336 32.5879C47.6813 32.7366 47.6637 32.8953 47.6823 33.0518L48.7681 36.7274C48.8164 37.0373 48.7448 37.354 48.5678 37.6129C47.9081 38.6148 47.3096 39.6557 46.7757 40.7298C46.5858 41.0415 46.2821 41.2671 45.9288 41.3588L42.5905 42.1635C42.4244 42.2023 42.2695 42.2794 42.1383 42.3886C42.0072 42.4978 41.9033 42.6361 41.835 42.7925L40.1554 48.4465C40.1279 48.5194 40.1255 48.5993 40.1484 48.6737C40.1712 48.7481 40.2182 48.8128 40.2819 48.8577C40.3557 48.9174 44.0629 51.0504 44.0629 51.0504C44.0629 51.5669 44.0629 52.073 44.1262 52.5649C44.1214 52.8936 44.0049 53.2108 43.7958 53.4645L40.3908 57.5829C40.2901 57.6966 40.2189 57.8332 40.1833 57.9809C40.1478 58.1286 40.149 58.2827 40.187 58.4297L41.8034 62.0035C41.8247 62.0517 41.8602 62.0922 41.9053 62.1194L49.0774 66.2694C49.0868 66.2607 49.094 66.2499 49.0984 66.2378L49.2039 66.3011L54.9703 69.6358C55.0687 69.3688 57.9958 57.242 58.1329 57.4353L59.9531 60.2148C59.969 60.2383 59.9879 60.2595 60.0093 60.2781L63.4776 62.2916L67.22 64.4597L64.5143 56.0262C66.9038 56.8239 72.3539 46.5455 70.6602 45.4034ZM49.6466 51.0469L62.8346 37.128C63.2214 38.043 63.4071 39.0305 63.3792 40.0235C63.668 39.8526 63.9673 39.7 64.2753 39.5667C64.3034 39.8736 64.3175 40.1969 64.3175 40.5366C64.3175 45.1047 61.1233 50.6217 57.1806 52.8987C56.8924 53.0639 56.6078 53.2115 56.3372 53.338C56.2952 52.9953 56.2764 52.6501 56.281 52.3049C53.4663 53.9494 50.7922 53.5734 49.6466 51.0469Z" fill="#263238"/>
<path d="M49.0712 66.2571L48.7198 62.9328L40.1597 57.9922C40.1134 58.1289 40.1134 58.2771 40.1597 58.4139L41.7762 61.9876C41.7974 62.0358 41.833 62.0763 41.8781 62.1035H41.8956L49.0712 66.2571Z" fill="#455A64"/>
<path d="M50.1511 47.2775L41.9389 42.5547C41.8852 42.6188 41.8446 42.6928 41.8194 42.7726L40.1397 48.4301C40.1123 48.5029 40.1098 48.5828 40.1327 48.6572C40.1556 48.7317 40.2026 48.7964 40.2662 48.8412L40.326 48.8798L44.0262 51.0199H44.0473L47.4875 53.0123L50.1511 47.2775Z" fill="#455A64"/>
<path d="M47.6953 32.6659L54.8779 36.7878L59.6147 32.0369L52.4497 27.8869C52.3021 27.7921 52.0702 27.8553 51.877 28.0591L47.9729 32.1775C47.8445 32.3172 47.7496 32.4842 47.6953 32.6659Z" fill="#455A64"/>
<path d="M64.6932 22.713C64.5867 22.6523 64.4631 22.6288 64.3418 22.6462L60.7892 22.9976C60.5657 23.0234 60.357 23.1222 60.1953 23.2787L69.5355 28.6727L71.9215 27.2917L71.8547 26.8595C71.8547 26.8595 64.8092 22.7868 64.6932 22.713Z" fill="#455A64"/>
<path d="M79.343 43.4567H79.3254C79.2566 43.422 79.181 43.4028 79.104 43.4005L76.0574 43.2283C75.9909 43.2307 75.9245 43.2196 75.8624 43.1957C75.8002 43.1719 75.7435 43.1358 75.6956 43.0895C75.6478 43.0433 75.6097 42.9879 75.5837 42.9266C75.5577 42.8653 75.5443 42.7994 75.5444 42.7328C75.5865 42.2514 75.6111 41.7735 75.6146 41.3097C75.6192 40.804 75.597 40.2984 75.5479 39.7951C75.5558 39.4665 75.6733 39.1499 75.8817 38.8956L79.2832 34.7737C79.3843 34.6601 79.456 34.5236 79.4921 34.376C79.5283 34.2284 79.5277 34.0742 79.4906 33.9268L77.8741 30.3531C77.8542 30.306 77.8197 30.2666 77.7757 30.2406H77.7547C77.6617 30.2138 77.5628 30.2149 77.4704 30.2436C77.378 30.2723 77.296 30.3275 77.2346 30.4023L73.6011 33.7195C73.5037 33.8288 73.3719 33.9017 73.2275 33.9259C73.0831 33.9502 72.9348 33.9245 72.807 33.853C72.3408 33.471 71.8164 33.1661 71.2538 32.9499C71.1315 32.8998 71.03 32.8094 70.9661 32.6938C70.9022 32.5781 70.8797 32.4441 70.9024 32.3139L72.0234 27.2292C72.0397 27.1617 72.0334 27.0908 72.0055 27.0273C71.9775 26.9638 71.9295 26.9113 71.8687 26.8778C71.7605 26.8223 71.6378 26.8015 71.5173 26.818L67.9647 27.1694C67.8 27.1864 67.6423 27.245 67.5065 27.3397C67.3707 27.4343 67.2611 27.5619 67.1881 27.7106L65.2625 32.8761C65.0942 33.2052 64.8209 33.4686 64.4859 33.6246C63.72 33.9909 62.9844 34.4174 62.2861 34.9002C61.9874 35.1005 61.6536 35.1145 61.5236 34.9002L59.7069 32.1241C59.5768 31.9273 59.2852 31.9695 59.0497 32.212L55.1492 36.3339C55.0369 36.4436 54.9512 36.5776 54.8988 36.7257C54.8464 36.8737 54.8287 37.0318 54.847 37.1878L55.9328 40.8669C55.98 41.1763 55.9098 41.4921 55.7361 41.7524C55.0752 42.753 54.4756 43.7927 53.9404 44.8658C53.7512 45.1788 53.4474 45.4057 53.0936 45.4983L49.7553 46.303C49.5898 46.3422 49.4355 46.4191 49.3045 46.5275C49.1734 46.636 49.0692 46.7732 48.9998 46.9285L47.3201 52.586C47.3024 52.648 47.2999 52.7134 47.3129 52.7766C47.3258 52.8398 47.3539 52.8989 47.3946 52.9489C47.4353 52.9989 47.4875 53.0384 47.5467 53.0639C47.6059 53.0894 47.6704 53.1003 47.7347 53.0956L50.7849 53.2677C50.8508 53.2644 50.9167 53.2743 50.9788 53.2969C51.0409 53.3194 51.0978 53.3541 51.1462 53.399C51.1947 53.4438 51.2337 53.4979 51.2609 53.558C51.2882 53.6182 51.3032 53.6832 51.3049 53.7492C51.2154 54.7263 51.2154 55.7097 51.3049 56.6868C51.3019 57.028 51.1773 57.357 50.9535 57.6145L47.552 61.7364C47.4507 61.8498 47.3788 61.9863 47.3427 62.134C47.3065 62.2817 47.3072 62.436 47.3447 62.5833L48.9611 66.1535C48.9799 66.2013 49.0147 66.241 49.0595 66.2659C49.0983 66.2871 49.1418 66.2979 49.186 66.2976C49.3364 66.2851 49.4774 66.219 49.5831 66.1113L53.213 62.7906C53.3108 62.6818 53.4425 62.6094 53.5868 62.5851C53.731 62.5609 53.8792 62.5862 54.0072 62.6571C54.4744 63.0376 54.9985 63.3424 55.5604 63.5602C55.6831 63.6097 55.785 63.7 55.8489 63.8158C55.9129 63.9317 55.9351 64.066 55.9118 64.1962L54.8189 69.2739C54.8014 69.3406 54.8063 69.4111 54.833 69.4747C54.8597 69.5382 54.9066 69.5912 54.9665 69.6253C55.0738 69.6836 55.1974 69.7046 55.3179 69.6851L58.8705 69.3337C59.0348 69.3154 59.192 69.2563 59.3276 69.1618C59.4633 69.0673 59.5731 68.9403 59.6471 68.7925L61.5763 63.6269C61.7452 63.2976 62.0182 63.0332 62.3529 62.875C62.7254 62.6993 63.1049 62.499 63.4809 62.2811C63.8569 62.0632 64.1837 61.8454 64.5526 61.6029C64.8478 61.3991 65.1852 61.385 65.3117 61.5818L67.1319 64.3614C67.1539 64.3953 67.1841 64.4231 67.2197 64.4422C67.3673 64.5336 67.5957 64.4703 67.7855 64.27L71.686 60.1516C71.7973 60.0413 71.882 59.907 71.9338 59.7591C71.9855 59.6112 72.003 59.4534 71.9847 59.2977L70.8989 55.6221C70.8524 55.3123 70.9239 54.9963 71.0992 54.7366C71.7602 53.7355 72.3587 52.6946 72.8913 51.6197C73.0821 51.3073 73.3871 51.0816 73.7417 50.9907L77.0765 50.186C77.2429 50.1477 77.398 50.0708 77.5292 49.9615C77.6604 49.8523 77.7641 49.7137 77.832 49.557L79.5222 43.91C79.551 43.8255 79.5488 43.7334 79.516 43.6504C79.4831 43.5673 79.4218 43.4987 79.343 43.4567ZM61.5306 57.2631L61.3338 57.3123L61.1933 57.344C61.0879 57.365 60.9824 57.3826 60.877 57.3967C60.7505 57.4177 60.631 57.4248 60.5081 57.4353H60.2832H60.1742C59.4545 57.4413 58.7497 57.2293 58.1526 56.8273C57.5556 56.4253 57.0941 55.852 56.8289 55.1829C56.569 54.5917 56.4041 53.9631 56.3405 53.3204C56.2984 52.9777 56.2796 52.6326 56.2842 52.2873C56.3053 49.065 57.9604 45.0731 60.6908 42.1882C61.48 41.3368 62.3863 40.6021 63.3825 40.006C63.6713 39.835 63.9706 39.6825 64.2785 39.5492C65.0663 39.1801 65.9284 38.9974 66.7981 39.015H66.8262H66.9527H67.0827C67.1288 39.0174 67.1746 39.0233 67.2197 39.0326C67.8412 39.1203 68.4284 39.3706 68.922 39.7581C69.4157 40.1456 69.7982 40.6566 70.0309 41.2394C71.5384 44.5742 69.8095 50.3757 66.1656 54.2411C64.6264 55.8856 63.0065 56.9117 61.5306 57.2631Z" fill="#37474F"/>
<path d="M67.0505 42.9273L65.1741 41.845C64.3412 41.3741 63.1957 41.4444 61.9307 42.1753C59.3865 43.6441 57.3203 47.2214 57.3203 50.1626C57.3203 51.6314 57.8334 52.661 58.6662 53.1459L60.374 54.1193L60.7816 53.4376C61.247 53.3342 61.6938 53.16 62.1063 52.921C64.654 51.4522 66.7167 47.875 66.7167 44.9338C66.7169 44.537 66.6685 44.1416 66.5726 43.7566L67.0505 42.9273Z" fill="#BA68C8"/>
<path opacity="0.1" d="M57.2969 50.1591C57.2969 51.6279 57.8099 52.6575 58.6427 53.1424L60.354 54.1158L60.7617 53.4341C61.2253 53.3284 61.6706 53.1544 62.0829 52.9175C63.5432 52.0052 64.7304 50.716 65.5196 49.1857L58.843 45.3203C57.9033 46.7655 57.3693 48.4367 57.2969 50.1591Z" fill="black"/>
<path opacity="0.4" d="M67.0462 42.9273L65.1697 41.845C64.3369 41.3741 63.1948 41.4444 61.9298 42.1753C60.6655 42.9575 59.6093 44.0342 58.8516 45.3133L65.5281 49.1787C66.2571 47.8817 66.6621 46.4279 66.7088 44.9408C66.7079 44.5438 66.6584 44.1485 66.5612 43.7636L67.0462 42.9273Z" fill="white"/>
<path d="M63.692 43.2085C61.1443 44.6774 59.0781 48.2546 59.0781 51.1958C59.0781 54.137 61.1443 55.3282 63.692 53.8594C66.2396 52.3905 68.3023 48.8133 68.3023 45.8721C68.3023 42.9309 66.2396 41.7186 63.692 43.2085Z" fill="#BA68C8"/>
<path d="M64.9349 46.6866C64.9361 46.8242 64.9267 46.9616 64.9068 47.0977C64.8874 47.2405 64.8569 47.3815 64.8155 47.5194C64.7666 47.6748 64.7091 47.8273 64.6433 47.9762C64.5695 48.1344 64.4816 48.2995 64.3797 48.4787L63.7402 49.5927L64.8857 48.9285C64.8984 48.9191 64.9138 48.914 64.9297 48.914C64.9455 48.914 64.9609 48.9191 64.9736 48.9285C64.9997 48.9599 65.0123 49.0003 65.0087 49.041V49.7859C65.0089 49.8395 64.9969 49.8924 64.9736 49.9405C64.956 49.9849 64.9254 50.0229 64.8857 50.0495L62.4751 51.4551C62.4624 51.4645 62.447 51.4696 62.4312 51.4696C62.4154 51.4696 62.4 51.4645 62.3873 51.4551C62.3612 51.4237 62.3486 51.3833 62.3522 51.3426V50.7382C62.3532 50.6566 62.3626 50.5754 62.3803 50.4958C62.402 50.4075 62.4376 50.3233 62.4857 50.2463L63.8491 47.9551C63.9388 47.8165 64.0063 47.6647 64.0494 47.5054C64.0759 47.402 64.09 47.2958 64.0916 47.1891C64.0943 47.1458 64.0943 47.1024 64.0916 47.0591C64.0858 47.0075 64.0677 46.9581 64.0389 46.915C64.0266 46.8936 64.0099 46.875 63.9899 46.8605C63.9699 46.8459 63.9471 46.8358 63.9229 46.8307C63.8507 46.8212 63.7776 46.8401 63.7191 46.8834C63.6376 46.9301 63.5669 46.9936 63.5118 47.0696C63.4623 47.1383 63.421 47.2127 63.3888 47.291C63.359 47.3584 63.3378 47.4292 63.3255 47.5018L63.2939 47.6494C63.2871 47.7053 63.2669 47.7588 63.2351 47.8052C63.2033 47.8517 63.1608 47.8899 63.1112 47.9165L62.5489 48.2398C62.5393 48.2484 62.5268 48.2532 62.5138 48.2532C62.5008 48.2532 62.4883 48.2484 62.4787 48.2398C62.4677 48.2268 62.4595 48.2116 62.4546 48.1953C62.4498 48.179 62.4484 48.1618 62.4506 48.1449C62.455 47.9318 62.482 47.7198 62.5314 47.5124C62.5856 47.282 62.6646 47.0582 62.7668 46.8447C62.8725 46.6256 63.0047 46.4202 63.1604 46.2333C63.315 46.0446 63.5033 45.8862 63.7156 45.7659C63.8744 45.6633 64.0573 45.604 64.2462 45.5938C64.3882 45.5934 64.5256 45.6446 64.6327 45.7378C64.7439 45.8451 64.8251 45.9796 64.8682 46.1279C64.9175 46.3099 64.94 46.4981 64.9349 46.6866Z" fill="#37474F"/>
<path d="M46.87 66.5993C46.0342 64.4528 45.6306 62.1623 45.6822 59.8595C45.6822 54.2371 43.739 50.2733 40.5835 48.3793L40.2637 48.1931C38.4732 47.261 36.4358 46.9132 34.4375 47.1986C35.2739 49.3439 35.6799 51.6328 35.6323 53.9349C35.6323 59.5959 37.6036 63.5808 40.8013 65.4607L50.6791 71.2799C48.9453 70.163 47.6113 68.5239 46.87 66.5993Z" fill="#BA68C8"/>
<path opacity="0.3" d="M46.87 66.5993C46.0342 64.4528 45.6306 62.1623 45.6822 59.8595C45.6822 54.2371 43.739 50.2733 40.5835 48.3793L40.2637 48.1931C38.4732 47.261 36.4358 46.9132 34.4375 47.1986C35.2739 49.3439 35.6799 51.6328 35.6323 53.9349C35.6323 59.5959 37.6036 63.5808 40.8013 65.4607L50.6791 71.2799C48.9453 70.163 47.6113 68.5239 46.87 66.5993Z" fill="black"/>
<path d="M44.2081 59.6511C44.0967 59.6209 43.9781 59.6322 43.8743 59.6827L40.1143 61.3764C40.0551 61.405 39.9902 61.4202 39.9244 61.4208C39.8586 61.4213 39.7934 61.4074 39.7337 61.3798C39.6739 61.3523 39.6209 61.3119 39.5786 61.2615C39.5363 61.2111 39.5056 61.1519 39.4889 61.0883C39.3413 60.6139 36.7655 60.0692 36.5547 59.6616L37.9989 56.0703L44.2081 59.6511Z" fill="#455A64"/>
<path d="M38.001 56.0854C37.9506 56.0589 37.8945 56.0451 37.8376 56.0451C37.7807 56.0451 37.7246 56.0589 37.6742 56.0854L34.8982 49.6618C34.9594 49.5338 34.9707 49.3876 34.9297 49.2517C34.8888 49.1159 34.7986 49.0002 34.6768 48.9274L31.9745 47.3461C31.8504 47.2765 31.7047 47.256 31.5661 47.2885C31.4276 47.321 31.3063 47.4043 31.226 47.5218L28.1021 52.22C28.0047 52.3444 27.8805 52.4453 27.7388 52.5153C27.597 52.5852 27.4414 52.6224 27.2834 52.6241C26.9195 52.6159 26.5554 52.6335 26.194 52.6768V49.2401L24.1067 48.0383C24.0506 48.0122 23.9885 48.0013 23.9268 48.0069C23.8651 48.0124 23.8059 48.0342 23.7553 48.07L19.5386 50.5087C19.4012 50.5949 19.2838 50.7093 19.1941 50.8445C19.1044 50.9796 19.0446 51.1322 19.0185 51.2923L18.5968 55.994C18.5483 56.3253 18.3943 56.6321 18.1576 56.869C17.3206 57.6513 16.5364 58.4883 15.8102 59.3744C15.7083 59.488 15.5763 59.5703 15.4296 59.612C15.2828 59.6536 15.1273 59.6529 14.9809 59.6099L12.2716 58.6646C12.1314 58.6192 11.98 58.6222 11.8417 58.6732C11.7034 58.7241 11.5863 58.8201 11.5091 58.9457L8.40276 64.294C8.33364 64.4239 8.3096 64.573 8.3344 64.718C8.35921 64.863 8.43145 64.9957 8.5398 65.0952L10.715 66.9682C10.8258 67.0732 10.9046 67.2076 10.9419 67.3557C10.9792 67.5038 10.9736 67.6594 10.9258 67.8045C10.5258 68.8726 10.1994 69.9668 9.94891 71.0795C9.86106 71.4034 9.67133 71.6905 9.40776 71.8983L5.54238 74.6146C5.41556 74.7142 5.31142 74.8396 5.23689 74.9826C5.16236 75.1256 5.11916 75.2829 5.11016 75.4439V80.3213C5.10609 80.382 5.11788 80.4428 5.14437 80.4976C5.17086 80.5524 5.21114 80.5994 5.26126 80.634L10.1492 83.4452L8.36762 87.0435C8.30552 87.1714 8.29382 87.3179 8.33484 87.454C8.37586 87.5901 8.46659 87.7057 8.589 87.7779L15.2374 91.6433C15.3616 91.7129 15.5073 91.7334 15.6458 91.7009C15.7844 91.6684 15.9057 91.5852 15.9859 91.4676L19.0079 88.3788C19.0092 88.4364 19.0246 88.4928 19.0528 88.5431C19.081 88.5933 19.1211 88.6359 19.1696 88.667L25.3612 92.2407L25.5264 87.3914C25.5264 87.3914 24.2438 85.7293 24.2438 85.4271L30.9941 78.0758C31.1344 78.1194 31.2852 78.1155 31.4231 78.0647C31.561 78.0138 31.6782 77.919 31.7567 77.7947L34.863 72.4148C34.9321 72.285 34.9562 72.1358 34.9314 71.9908C34.9066 71.8458 34.8343 71.7131 34.726 71.6136L37.7164 62.0943C37.8419 61.9937 37.9449 61.868 38.0187 61.7251C38.0926 61.5823 38.1356 61.4255 38.1451 61.265L38.001 56.0854ZM21.6364 76.5929C19.8232 77.6471 18.3262 77.865 17.2369 77.359C15.9578 76.7616 26.3276 58.9879 27.4274 59.9578C28.3094 60.7449 28.7873 62.1997 28.7873 64.2343C28.7733 68.7919 25.5756 74.3264 21.6364 76.5929Z" fill="#263238"/>
<path d="M31.4958 66.5288L29.6194 65.4465C28.7866 64.9757 27.6445 65.0459 26.3795 65.7769C23.8318 67.2457 21.7656 70.8229 21.7656 73.7641C21.7656 75.233 22.2822 76.2626 23.115 76.7475L24.8228 77.7209L25.2304 77.0392C25.6943 76.936 26.1398 76.7631 26.5517 76.5261C29.0993 75.0538 31.1655 71.4765 31.1655 68.5353C31.1639 68.1386 31.1156 67.7435 31.0214 67.3581L31.4958 66.5288Z" fill="#BA68C8"/>
<path opacity="0.1" d="M21.75 73.7626C21.75 75.2314 22.263 76.261 23.0923 76.7459L24.8001 77.7193L25.2078 77.0376C25.6717 76.9332 26.1172 76.759 26.529 76.521C27.9903 75.6034 29.1765 74.3079 29.9622 72.7716L23.2856 68.9062C22.345 70.3569 21.8144 72.0349 21.75 73.7626Z" fill="black"/>
<path opacity="0.4" d="M31.5012 66.5288L29.6248 65.4465H29.6072C28.7744 64.9757 27.6323 65.0459 26.3673 65.7769C25.1022 66.5581 24.0458 67.635 23.2891 68.9148L29.9656 72.7802C30.6946 71.4832 31.0996 70.0294 31.1463 68.5424C31.1447 68.1457 31.0964 67.7505 31.0022 67.3652L31.5012 66.5288Z" fill="white"/>
<path d="M28.1416 66.793C25.594 68.2654 23.5312 71.8391 23.5312 74.7803C23.5312 77.7215 25.594 78.9127 28.1416 77.4439C30.6892 75.975 32.7554 72.3978 32.7554 69.4566C32.7554 66.5154 30.6892 65.3242 28.1416 66.793Z" fill="#BA68C8"/>
<path d="M26.7941 71.9516C26.7815 71.9327 26.7728 71.9115 26.7686 71.8891C26.7643 71.8668 26.7647 71.8438 26.7695 71.8216C26.7773 71.7677 26.794 71.7155 26.8187 71.667L27.8027 69.9416C27.8237 69.8994 27.8554 69.8502 27.8905 69.7905C27.9196 69.7403 27.9606 69.698 28.01 69.6675L28.5687 69.3442C28.5803 69.3339 28.5953 69.3281 28.6109 69.3281C28.6264 69.3281 28.6414 69.3339 28.653 69.3442C28.6671 69.3591 28.6778 69.3769 28.6845 69.3963C28.6912 69.4157 28.6936 69.4363 28.6917 69.4567V73.9967C28.6901 74.0505 28.6769 74.1032 28.653 74.1514C28.6377 74.1951 28.608 74.2322 28.5687 74.2568L27.9713 74.6082C27.9595 74.6195 27.9438 74.6259 27.9274 74.6259C27.911 74.6259 27.8953 74.6195 27.8835 74.6082C27.8703 74.5935 27.8604 74.5762 27.8543 74.5574C27.8483 74.5387 27.8462 74.5188 27.8483 74.4992V71.428L27.3037 72.3733C27.2848 72.4135 27.2525 72.4458 27.2123 72.4646C27.1978 72.4709 27.1814 72.4715 27.1664 72.4663C27.1515 72.4611 27.139 72.4505 27.1315 72.4365L26.7941 71.9516Z" fill="#37474F"/>
<path d="M39.0389 52.037L38.1991 53.7518L35.4933 56.8476L32.3307 55.0098L27.875 52.4341C27.9646 52.3783 28.0413 52.304 28.0999 52.2162L31.2238 47.5215C31.3033 47.4052 31.4231 47.3225 31.5601 47.2894C31.697 47.2563 31.8414 47.2751 31.9653 47.3423L34.6921 48.9166L38.8175 51.292C38.942 51.365 39.034 51.4826 39.0751 51.6209C39.1162 51.7591 39.1033 51.9079 39.0389 52.037Z" fill="#455A64"/>
<path d="M9.69832 71.6094C9.62109 71.7254 9.52487 71.8275 9.41369 71.9116L5.54831 74.6279C5.43827 74.7107 5.34721 74.8162 5.28125 74.9371L11.7786 78.7006L16.902 75.7875L9.69832 71.6094Z" fill="#455A64"/>
<path d="M12.0194 58.6172C11.9167 58.6255 11.8174 58.6578 11.7295 58.7115C11.6416 58.7652 11.5676 58.8388 11.5134 58.9264L8.40701 64.2923C8.33803 64.4188 8.3133 64.5647 8.33673 64.7069L15.1363 68.6391L19.3882 62.8902L12.0194 58.6172Z" fill="#455A64"/>
<path d="M30.3033 51.6237V53.1699L26.5434 55.3415L19.0938 51.0369C19.1807 50.8202 19.333 50.636 19.5295 50.5098L23.7463 48.0711C23.81 48.0323 23.8826 48.0105 23.9571 48.0079C24.0024 48.007 24.0472 48.0179 24.0871 48.0395L26.1217 49.2096L26.1744 49.2413L28.9856 50.8647L30.3033 51.6237Z" fill="#455A64"/>
<path d="M44.3663 64.8458V59.9684C44.375 59.909 44.3666 59.8484 44.3418 59.7937C44.3171 59.7391 44.2772 59.6926 44.2268 59.66C44.1764 59.6274 44.1177 59.61 44.0577 59.6099C43.9977 59.6097 43.9389 59.6268 43.8884 59.6592L40.1284 61.3529C40.0691 61.3815 40.0043 61.3966 39.9384 61.3972C39.8726 61.3978 39.8075 61.3839 39.7477 61.3563C39.6879 61.3288 39.635 61.2884 39.5927 61.2379C39.5503 61.1875 39.5197 61.1284 39.5029 61.0648C39.2963 60.4111 39.012 59.7847 38.656 59.1988C38.5791 59.061 38.5342 58.9077 38.5244 58.7502C38.5147 58.5926 38.5405 58.4349 38.5998 58.2887L41.1158 53.2356C41.1771 53.1076 41.1884 52.9614 41.1474 52.8255C41.1065 52.6897 41.0162 52.574 40.8944 52.5012L38.1711 50.941C38.0472 50.8706 37.9012 50.8496 37.7624 50.8822C37.6237 50.9147 37.5023 50.9985 37.4226 51.1167L34.2987 55.8114C34.2016 55.9364 34.0776 56.038 33.9358 56.1086C33.7941 56.1792 33.6383 56.2169 33.48 56.219C32.797 56.2038 32.1147 56.2735 31.4489 56.4263C31.3852 56.4435 31.3185 56.4465 31.2536 56.4351C31.1886 56.4237 31.127 56.3982 31.073 56.3603C31.019 56.3224 30.974 56.2731 30.9412 56.2159C30.9084 56.1587 30.8886 56.0949 30.8831 56.0292L30.472 51.9249C30.4754 51.8644 30.4611 51.8042 30.4309 51.7517C30.4007 51.6992 30.3559 51.6565 30.3019 51.629C30.2479 51.6014 30.1871 51.5902 30.1269 51.5965C30.0666 51.6029 30.0095 51.6266 29.9625 51.6649L25.7457 54.1036C25.6103 54.1909 25.4953 54.3065 25.4086 54.4423C25.3218 54.5781 25.2654 54.7311 25.2432 54.8907L24.818 59.5889C24.7702 59.9214 24.6161 60.2296 24.3788 60.4674C23.5425 61.2429 22.7583 62.0729 22.0314 62.9518C21.9295 63.0653 21.7975 63.1476 21.6508 63.1893C21.504 63.2309 21.3485 63.2302 21.2021 63.1872L18.4928 62.2419C18.3526 62.1965 18.2012 62.1995 18.0629 62.2505C17.9246 62.3015 17.8075 62.3975 17.7303 62.5231L14.6239 67.903C14.5551 68.0323 14.5312 68.1808 14.556 68.3252C14.5808 68.4696 14.6529 68.6017 14.761 68.7006L16.9361 70.5771C17.047 70.6821 17.1257 70.8165 17.1631 70.9646C17.2004 71.1127 17.1948 71.2684 17.147 71.4134C16.7458 72.4779 16.4183 73.5686 16.1666 74.6779C16.0787 75.0018 15.889 75.2889 15.6254 75.4967L11.7601 78.213C11.6322 78.3137 11.5277 78.441 11.4537 78.586C11.3797 78.7309 11.338 78.8902 11.3313 79.0528V83.9302C11.3228 83.99 11.3314 84.0509 11.3564 84.1059C11.3813 84.1609 11.4215 84.2076 11.4721 84.2405C11.5227 84.2733 11.5817 84.2911 11.6421 84.2915C11.7024 84.2919 11.7617 84.2751 11.8128 84.243L15.5727 82.5457C15.6322 82.5171 15.6973 82.5021 15.7634 82.5018C15.8294 82.5014 15.8946 82.5157 15.9545 82.5436C16.0143 82.5715 16.0672 82.6123 16.1093 82.6631C16.1515 82.7139 16.1818 82.7734 16.1982 82.8374C16.4016 83.4899 16.6837 84.1153 17.0381 84.6998C17.1155 84.838 17.1608 84.992 17.1705 85.1502C17.1802 85.3083 17.1542 85.4667 17.0943 85.6134L14.5888 90.6489C14.5267 90.7768 14.515 90.9233 14.556 91.0594C14.597 91.1955 14.6878 91.3111 14.8102 91.3834L17.53 92.9541C17.6541 93.0237 17.7998 93.0442 17.9384 93.0117C18.0769 92.9792 18.1983 92.896 18.2785 92.7784L21.4024 88.0802C21.4995 87.9563 21.6231 87.8556 21.7642 87.7857C21.9053 87.7158 22.0602 87.6783 22.2177 87.6761C22.8998 87.6933 23.5816 87.6296 24.2487 87.4864C24.3124 87.4691 24.3791 87.4661 24.444 87.4775C24.509 87.4889 24.5706 87.5145 24.6246 87.5524C24.6786 87.5903 24.7236 87.6396 24.7564 87.6968C24.7892 87.754 24.809 87.8177 24.8145 87.8834L25.2256 91.9878C25.2238 92.0477 25.239 92.1069 25.2695 92.1585C25.3 92.2101 25.3446 92.252 25.398 92.2793C25.4514 92.3065 25.5114 92.3181 25.5711 92.3125C25.6308 92.3069 25.6877 92.2845 25.7351 92.2478L29.9519 89.8091C30.087 89.7214 30.2018 89.6058 30.2885 89.47C30.3751 89.3342 30.4317 89.1814 30.4544 89.022L30.8902 84.3238C30.9387 83.9915 31.0926 83.6835 31.3294 83.4453C32.1663 82.6727 32.9494 81.8438 33.6732 80.9644C33.7752 80.8499 33.9077 80.7669 34.0553 80.7252C34.2028 80.6835 34.3592 80.6848 34.506 80.729L37.2153 81.6742C37.3556 81.7178 37.5064 81.7139 37.6443 81.6631C37.7821 81.6122 37.8994 81.5174 37.9778 81.3931L41.0842 76.0132C41.1533 75.8834 41.1774 75.7342 41.1526 75.5892C41.1278 75.4442 41.0555 75.3115 40.9472 75.212L38.772 73.3391C38.6615 73.2338 38.583 73.0994 38.5457 72.9514C38.5084 72.8034 38.5138 72.6478 38.5612 72.5028C38.9574 71.4334 39.2838 70.3394 39.5381 69.2277C39.625 68.9034 39.8149 68.6161 40.0792 68.409L43.9446 65.6927C44.0715 65.59 44.1748 65.4612 44.2475 65.3151C44.3203 65.169 44.3608 65.0089 44.3663 64.8458ZM27.8506 80.1843C23.9079 82.4614 20.7137 80.6165 20.7137 76.0659C20.7137 71.5153 23.9079 65.9808 27.8506 63.7038C31.7932 61.4267 34.9874 63.275 34.9874 67.8257C34.9874 72.3763 31.7897 77.9108 27.8506 80.1843Z" fill="#37474F"/>
<path d="M40.2526 48.1921C38.4652 47.2622 36.4318 46.9145 34.437 47.1976C32.1018 47.526 29.8577 48.3258 27.8413 49.5485C18.48 54.953 10.8055 67.7157 10.0605 78.7356L0 72.8145C0.741449 61.7947 8.43355 49.0284 17.7842 43.6239C22.6511 40.8127 27.0611 40.5175 30.28 42.3097L30.6595 42.5346L40.2526 48.1921Z" fill="#BA68C8"/>
</svg>
