<svg width="160" height="140" viewBox="0 0 160 140" fill="none" xmlns="http://www.w3.org/2000/svg">
<path d="M22.2966 8.25C19.2789 8.25 16.3291 9.28251 13.82 11.2169C11.3109 13.1514 9.35528 15.9009 8.20048 19.1178C7.04567 22.3346 6.74352 25.8744 7.33224 29.2894C7.92095 32.7044 9.37409 35.8412 11.5079 38.3033C13.6417 40.7654 16.3603 42.4421 19.32 43.1214C22.2797 43.8007 25.3474 43.452 28.1354 42.1196C30.9233 40.7871 33.3062 38.5306 34.9827 35.6355C36.6593 32.7404 37.5541 29.3367 37.5541 25.8548C37.5541 21.1857 35.9466 16.7079 33.0853 13.4063C30.2239 10.1048 26.3431 8.25 22.2966 8.25ZM22.2966 34.062C20.8875 34.062 19.51 33.5798 18.3384 32.6765C17.1669 31.7731 16.2538 30.4891 15.7147 28.9869C15.1756 27.4846 15.0348 25.8317 15.3099 24.2371C15.5851 22.6425 16.2639 21.1779 17.2606 20.0285C18.2572 18.8791 19.5269 18.0966 20.909 17.7799C22.2912 17.4632 23.7236 17.6266 25.0253 18.2494C26.3269 18.8722 27.4392 19.9264 28.2216 21.2786C29.0039 22.6309 29.4211 24.2205 29.4204 25.8464C29.4185 28.0246 28.667 30.1128 27.3311 31.6518C25.9952 33.1908 24.1843 34.0548 22.2966 34.0536V34.062Z" fill="#455A64"/>
<path d="M25.2226 8.98215H19.3594L19.6827 4.19531H24.8993L25.2226 8.98215Z" fill="#455A64"/>
<path d="M14.0623 11.2556L9.91733 16.0424L7.21094 12.3915L10.8982 8.13281L14.0623 11.2556Z" fill="#455A64"/>
<path d="M7.56266 21.9844V28.7497L3.41406 28.3766V22.3574L7.56266 21.9844Z" fill="#455A64"/>
<path d="M9.54233 34.8594L13.6909 39.6462L10.5268 42.769L6.83594 38.5145L9.54233 34.8594Z" fill="#455A64"/>
<path d="M18.8281 42.3594H24.695L24.3717 47.1462H19.1551L18.8281 42.3594Z" fill="#455A64"/>
<path d="M30 40.0759L34.1486 35.2891L36.855 38.94L33.1641 43.1987L30 40.0759Z" fill="#455A64"/>
<path d="M36.4922 29.3512V22.5859L40.6444 22.959V28.9782L36.4922 29.3512Z" fill="#455A64"/>
<path d="M34.5158 16.4679L30.3672 11.6853L33.5313 8.5625L37.2185 12.817L34.5158 16.4679Z" fill="#455A64"/>
<path d="M23.3098 21.5481V29.7805C23.307 29.9858 23.234 30.1815 23.1068 30.3251C22.9796 30.4687 22.8085 30.5487 22.6305 30.5475C22.5429 30.5486 22.456 30.5296 22.3749 30.4914C22.2938 30.4533 22.2202 30.3968 22.1582 30.3254C22.0963 30.2539 22.0474 30.1689 22.0143 30.0753C21.9813 29.9817 21.9647 29.8815 21.9657 29.7805V22.9146L21.4825 23.2331C21.3822 23.3088 21.2646 23.3482 21.1447 23.3463C20.9996 23.3436 20.8591 23.2873 20.7438 23.1857C20.6285 23.0842 20.5443 22.9427 20.5037 22.782C20.4631 22.6213 20.4682 22.4498 20.5181 22.2926C20.5681 22.1354 20.6604 22.0009 20.7814 21.9086L22.2709 20.89C22.2709 20.89 22.3072 20.89 22.3181 20.8607C22.329 20.8313 22.3544 20.8355 22.3798 20.8188H22.4489C22.4654 20.8129 22.4831 20.8129 22.4997 20.8188C22.5271 20.8104 22.5559 20.8104 22.5833 20.8188H22.7177C22.7177 20.8188 22.754 20.8188 22.7649 20.8188C22.7907 20.8194 22.8158 20.8281 22.8376 20.8439C22.8376 20.8439 22.8739 20.8439 22.8848 20.8439C22.8957 20.8439 22.9356 20.8858 22.9574 20.8858L23.0083 20.9277C23.0083 20.9277 23.0446 20.9529 23.0555 20.9697C23.0664 20.9864 23.0919 21.0116 23.1028 21.0242C23.1185 21.0386 23.131 21.0573 23.1391 21.0786L23.1899 21.1373V21.1625C23.1899 21.1625 23.1899 21.1918 23.1899 21.2044C23.1899 21.217 23.2154 21.2463 23.2154 21.2756C23.2154 21.305 23.2154 21.3301 23.2408 21.3469C23.2398 21.3692 23.2398 21.3916 23.2408 21.414C23.2383 21.4319 23.2392 21.4502 23.2436 21.4676C23.248 21.485 23.2558 21.5011 23.2662 21.5146L23.3098 21.5481Z" fill="#263238"/>
<path d="M37.1032 7.18864C36.6709 11.4264 34.3096 12.2186 33.9137 13.3336C33.7124 14.0441 33.5474 14.7677 33.4196 15.5006H29.5798C29.4538 14.7677 29.29 14.044 29.0894 13.3336C28.697 12.2018 26.3357 11.418 25.9107 7.17606C25.631 4.39283 27.451 -0.00418863 31.5124 2.99467e-06C35.5738 0.00419462 37.372 4.40121 37.1032 7.18864Z" fill="#FF725E"/>
<path d="M29.5355 8.70506L29.2891 8.75781L30.4222 15.8052L30.6686 15.7525L29.5355 8.70506Z" fill="white"/>
<path d="M33.4673 8.72119L32.3203 15.7656L32.5667 15.819L33.7136 8.77459L33.4673 8.72119Z" fill="white"/>
<path d="M31.5025 11.1006C31.3034 11.0621 31.1164 10.9646 30.9598 10.8176C30.8031 10.6707 30.6822 10.4793 30.6089 10.2623C30.5695 10.3188 30.5205 10.3654 30.4649 10.3993C30.4093 10.4332 30.3483 10.4536 30.2856 10.4593C29.7007 10.4593 29.4682 9.07605 29.4609 9.01737L29.5844 8.99222C29.6426 9.35689 29.886 10.3126 30.2856 10.3126C30.3387 10.3042 30.3898 10.2831 30.4354 10.2506C30.4811 10.2181 30.5204 10.175 30.5508 10.124C30.3802 9.73267 30.2836 9.30405 30.2674 8.86647C30.2674 8.47246 30.3982 8.2503 30.6307 8.2503C30.6975 8.24738 30.7637 8.26579 30.822 8.30351C30.8804 8.34123 30.9285 8.39679 30.9613 8.46407C31.1393 8.82875 31.0049 9.54132 30.7796 9.99821C30.753 10.0485 30.7276 10.0946 30.7033 10.1365C30.9068 10.585 31.1974 10.9455 31.5098 10.9455C31.7895 10.9455 32.0402 10.6479 32.2364 10.2539C31.996 9.91982 31.8672 9.49759 31.8731 9.06348C31.8731 8.56048 32.0365 8.2503 32.3054 8.2503C32.5233 8.2503 32.6469 8.49761 32.6469 8.92515C32.633 9.37689 32.539 9.82055 32.3708 10.2287C32.4687 10.3368 32.5985 10.3982 32.734 10.4006C33.0973 10.4006 33.3843 9.44072 33.4606 9.06767L33.5805 9.10958C33.5478 9.25629 33.2172 10.5431 32.7195 10.5431C32.5635 10.5408 32.4132 10.4755 32.2945 10.3587C32.2324 10.553 32.1261 10.7245 31.9868 10.8551C31.8474 10.9856 31.6801 11.0704 31.5025 11.1006ZM32.2836 8.40958C32.0547 8.40958 31.9748 8.76587 31.9748 9.07605C31.9725 9.45215 32.0715 9.8198 32.2581 10.1281C32.406 9.75372 32.4875 9.349 32.4979 8.93773C32.4979 8.77845 32.4761 8.40958 32.2836 8.40958ZM30.6125 8.40958C30.42 8.40958 30.38 8.66946 30.38 8.88324C30.3933 9.27119 30.4749 9.65196 30.6198 10.0024L30.6525 9.94372C30.8595 9.52455 30.9831 8.85809 30.8341 8.5521C30.8128 8.50647 30.7806 8.46883 30.7413 8.44359C30.7021 8.41834 30.6574 8.40655 30.6125 8.40958Z" fill="white"/>
<path d="M33.8933 15.2578H29.1562V16.3267H33.8933V15.2578Z" fill="#263238"/>
<path d="M33.8621 16.5526L29.125 16.5469L29.124 17.6157L33.8611 17.6215L33.8621 16.5526Z" fill="#263238"/>
<path d="M33.8621 17.7948L29.125 17.7891L29.124 18.8579L33.8611 18.8637L33.8621 17.7948Z" fill="#263238"/>
<path d="M47.4803 61.3464C43.8701 61.3439 40.3404 62.5769 37.3377 64.8893C34.3349 67.2018 31.9939 70.4898 30.6109 74.3376C29.2278 78.1853 28.8649 82.4199 29.5678 86.5058C30.2708 90.5916 32.0082 94.345 34.5602 97.2914C37.1122 100.238 40.3642 102.245 43.9048 103.058C47.4454 103.872 51.1156 103.456 54.4512 101.862C57.7867 100.269 60.6378 97.5694 62.6437 94.106C64.6496 90.6427 65.7203 86.5707 65.7203 82.4051C65.7155 76.8239 63.7926 71.4726 60.3733 67.5249C56.9539 63.5772 52.3173 61.3553 47.4803 61.3464ZM47.4803 98.9788C44.638 98.9813 41.859 98.011 39.4948 96.1907C37.1305 94.3705 35.2873 91.782 34.1983 88.7528C33.1093 85.7235 32.8235 82.3896 33.3769 79.1729C33.9303 75.9562 35.2982 73.0011 37.3075 70.6816C39.3167 68.362 41.8771 66.7822 44.6646 66.142C47.4522 65.5018 50.3417 65.83 52.9676 67.085C55.5935 68.34 57.8378 70.4655 59.4165 73.1925C60.9953 75.9195 61.8376 79.1256 61.8369 82.4051C61.8373 84.5811 61.4664 86.7358 60.7452 88.7463C60.0239 90.7568 58.9666 92.5837 57.6334 94.1227C56.3003 95.6617 54.7175 96.8827 52.9754 97.7159C51.2333 98.5491 49.3661 98.9783 47.4803 98.9788ZM47.4803 61.3464C43.8701 61.3439 40.3404 62.5769 37.3377 64.8893C34.3349 67.2018 31.9939 70.4898 30.6109 74.3376C29.2278 78.1853 28.8649 82.4199 29.5678 86.5058C30.2708 90.5916 32.0082 94.345 34.5602 97.2914C37.1122 100.238 40.3642 102.245 43.9048 103.058C47.4454 103.872 51.1156 103.456 54.4512 101.862C57.7867 100.269 60.6378 97.5694 62.6437 94.106C64.6496 90.6427 65.7203 86.5707 65.7203 82.4051C65.7155 76.8239 63.7926 71.4726 60.3733 67.5249C56.9539 63.5772 52.3173 61.3553 47.4803 61.3464ZM47.4803 98.9788C44.638 98.9813 41.859 98.011 39.4948 96.1907C37.1305 94.3705 35.2873 91.782 34.1983 88.7528C33.1093 85.7235 32.8235 82.3896 33.3769 79.1729C33.9303 75.9562 35.2982 73.0011 37.3075 70.6816C39.3167 68.362 41.8771 66.7822 44.6646 66.142C47.4522 65.5018 50.3417 65.83 52.9676 67.085C55.5935 68.34 57.8378 70.4655 59.4165 73.1925C60.9953 75.9195 61.8376 79.1256 61.8369 82.4051C61.8373 84.5811 61.4664 86.7358 60.7452 88.7463C60.0239 90.7568 58.9666 92.5837 57.6334 94.1227C56.3003 95.6617 54.7175 96.8827 52.9754 97.7159C51.2333 98.5491 49.3661 98.9783 47.4803 98.9788ZM47.4803 46.9063C41.396 46.9046 35.4479 48.9848 30.3882 52.8838C25.3285 56.7828 21.3845 62.3255 19.055 68.8109C16.7255 75.2963 16.115 82.4332 17.3009 89.3189C18.4867 96.2046 21.4156 102.53 25.7171 107.495C30.0186 112.46 35.4995 115.842 41.4667 117.212C47.4339 118.583 53.6194 117.881 59.2409 115.196C64.8625 112.51 69.6675 107.961 73.0485 102.125C76.4294 96.2879 78.2343 89.4255 78.2351 82.4051C78.2351 72.9924 74.9952 63.965 69.2279 57.3081C63.4605 50.6511 55.638 46.9096 47.4803 46.9063ZM47.4803 105.48C43.5224 105.485 39.6523 104.135 36.3596 101.601C33.067 99.0669 30.4999 95.4627 28.9833 91.2445C27.4667 87.0264 27.0688 82.3838 27.8399 77.9046C28.611 73.4254 30.5164 69.3107 33.315 66.0816C36.1137 62.8524 39.6796 60.6538 43.5617 59.7641C47.4437 58.8744 51.4672 59.3335 55.1229 61.0835C58.7787 62.8334 61.9023 65.7954 64.0985 69.5946C66.2947 73.3937 67.4647 77.8593 67.4604 82.4261C67.4488 88.5363 65.3401 94.3924 61.5956 98.713C57.8511 103.034 52.7758 105.467 47.4803 105.48ZM47.4803 61.3464C43.8701 61.3439 40.3404 62.5769 37.3377 64.8893C34.3349 67.2018 31.9939 70.4898 30.6109 74.3376C29.2278 78.1853 28.8649 82.4199 29.5678 86.5058C30.2708 90.5916 32.0082 94.345 34.5602 97.2914C37.1122 100.238 40.3642 102.245 43.9048 103.058C47.4454 103.872 51.1156 103.456 54.4512 101.862C57.7867 100.269 60.6378 97.5694 62.6437 94.106C64.6496 90.6427 65.7203 86.5707 65.7203 82.4051C65.7155 76.8239 63.7926 71.4726 60.3733 67.5249C56.9539 63.5772 52.3173 61.3553 47.4803 61.3464ZM47.4803 98.9788C44.638 98.9813 41.859 98.011 39.4948 96.1907C37.1305 94.3705 35.2873 91.782 34.1983 88.7528C33.1093 85.7235 32.8235 82.3896 33.3769 79.1729C33.9303 75.9562 35.2982 73.0011 37.3075 70.6816C39.3167 68.362 41.8771 66.7822 44.6646 66.142C47.4522 65.5018 50.3417 65.83 52.9676 67.085C55.5935 68.34 57.8378 70.4655 59.4165 73.1925C60.9953 75.9195 61.8376 79.1256 61.8369 82.4051C61.8373 84.5811 61.4664 86.7358 60.7452 88.7463C60.0239 90.7568 58.9666 92.5837 57.6334 94.1227C56.3003 95.6617 54.7175 96.8827 52.9754 97.7159C51.2333 98.5491 49.3661 98.9783 47.4803 98.9788Z" fill="#FF725E"/>
<path d="M51.0908 47.5483H44.0469L44.748 39.4375H50.3896L51.0908 47.5483Z" fill="#FF725E"/>
<path d="M35.5056 50.1384L29.4062 54.2001L26.5 46.7725L31.3824 43.5156L35.5056 50.1384Z" fill="#FF725E"/>
<path d="M23.127 61.3689L19.6033 68.4067L13.8672 63.6492L16.6862 58.0156L23.127 61.3689Z" fill="#FF725E"/>
<path d="M17.2752 78.2344V86.3619L10.2422 85.553V79.0434L17.2752 78.2344Z" fill="#FF725E"/>
<path d="M19.5095 96.2188L23.0333 103.256L16.5924 106.61L13.7734 100.972L19.5095 96.2188Z" fill="#FF725E"/>
<path d="M29.2458 110.5L35.3451 114.562L31.222 121.184L26.3359 117.932L29.2458 110.5Z" fill="#FF725E"/>
<path d="M43.8672 117.25H50.9111L50.2063 125.365H44.5683L43.8672 117.25Z" fill="#FF725E"/>
<path d="M59.4531 114.671L65.5525 110.609L68.4623 118.041L63.5763 121.294L59.4531 114.671Z" fill="#FF725E"/>
<path d="M71.8359 103.444L75.3561 96.4062L81.0958 101.164L78.2732 106.801L71.8359 103.444Z" fill="#FF725E"/>
<path d="M77.6797 86.5729V78.4453L84.709 79.2543V85.7639L77.6797 86.5729Z" fill="#FF725E"/>
<path d="M75.442 68.5864L71.9219 61.5486L78.3591 58.1953L81.1817 63.833L75.442 68.5864Z" fill="#FF725E"/>
<path d="M65.7088 54.3016L59.6094 50.2399L63.7289 43.6172L68.6149 46.8741L65.7088 54.3016Z" fill="#FF725E"/>
<path d="M50.1605 87.562C50.1615 87.6631 50.145 87.7633 50.1119 87.8569C50.0788 87.9504 50.0299 88.0355 49.968 88.1069C49.906 88.1784 49.8324 88.2348 49.7513 88.273C49.6702 88.3111 49.5833 88.3302 49.4957 88.3291H45.1909C45.0972 88.3305 45.0043 88.3088 44.9185 88.2654C44.8327 88.222 44.7559 88.158 44.6932 88.0776C44.6337 88.0036 44.5874 87.9168 44.557 87.8222C44.5267 87.7276 44.5127 87.6269 44.5161 87.5261C44.5195 87.4252 44.5401 87.3261 44.5767 87.2345C44.6133 87.1428 44.6653 87.0604 44.7296 86.992L48.3114 83.2488C48.4748 83.0814 48.6048 82.8753 48.6925 82.6445C48.7803 82.4137 48.8238 82.1637 48.82 81.9117C48.8218 81.4634 48.6794 81.0303 48.4204 80.6961C48.2742 80.5082 48.0948 80.3586 47.8943 80.2574C47.6938 80.1562 47.4768 80.1057 47.2579 80.1093C46.871 80.1102 46.4976 80.2742 46.2081 80.5704L45.8448 80.9602C45.7807 81.0297 45.7051 81.0835 45.6226 81.1185C45.54 81.1535 45.4522 81.1689 45.3643 81.1638C45.2765 81.1587 45.1904 81.1333 45.1113 81.0889C45.0322 81.0446 44.9617 80.9822 44.9039 80.9057C44.845 80.8306 44.7994 80.7428 44.7699 80.6474C44.7404 80.5519 44.7274 80.4507 44.7318 80.3495C44.7362 80.2483 44.7578 80.1491 44.7955 80.0575C44.8331 79.9659 44.886 79.8838 44.9512 79.8159L45.3144 79.4261C45.8457 78.8648 46.5413 78.5564 47.2616 78.5626C47.6675 78.5626 48.0688 78.6607 48.4399 78.8505C48.8109 79.0404 49.1433 79.3179 49.4158 79.665C49.9028 80.2775 50.1703 81.0805 50.1641 81.9117C50.1636 82.3793 50.0784 82.8416 49.9138 83.269C49.7493 83.6963 49.5091 84.0793 49.2087 84.3931L46.9237 86.7824H49.4993C49.5873 86.7829 49.6742 86.8036 49.7552 86.8431C49.8361 86.8827 49.9095 86.9404 49.971 87.013C50.0325 87.0855 50.0809 87.1713 50.1134 87.2656C50.1459 87.3598 50.162 87.4606 50.1605 87.562Z" fill="#263238"/>
<path d="M71.424 65.8725L69.2443 67.7672L65.2265 61.6516L63.7734 59.4133C64.0759 59.2781 64.3597 59.0932 64.6162 58.8642C65.1091 58.4289 65.4928 57.8503 65.7279 57.1875L67.2899 59.56L71.424 65.8725Z" fill="#263238"/>
<path d="M67.1577 51.4699C66.445 50.4001 65.4734 49.5981 64.3658 49.1653C63.2582 48.7325 62.0642 48.6882 60.9348 49.0382C59.8054 49.3882 58.7913 50.1167 58.0206 51.1315C57.25 52.1464 56.7574 53.4021 56.6051 54.74C56.4528 56.0778 56.6476 57.4377 57.165 58.6478C57.6824 59.8579 58.4991 60.8638 59.5119 61.5385C60.5246 62.2131 61.688 62.5262 62.8549 62.4381C64.0218 62.35 65.1399 61.8647 66.0679 61.0435C66.5372 60.6249 66.9509 60.1293 67.2957 59.5723C68.025 58.3815 68.4051 56.9527 68.3802 55.4949C68.3554 54.0371 67.927 52.6267 67.1577 51.4699ZM64.6148 58.8639C64.3583 59.0929 64.0744 59.2778 63.772 59.413C62.9435 59.7903 62.0219 59.7909 61.1931 59.4146C60.3643 59.0382 59.6902 58.3131 59.3068 57.3855C58.9234 56.4579 58.8593 55.397 59.1276 54.417C59.3958 53.4371 59.9763 52.611 60.7518 52.1058C61.5274 51.6005 62.4402 51.4536 63.306 51.6947C64.1717 51.9358 64.926 52.5471 65.4163 53.4049C65.9067 54.2628 66.0967 55.3035 65.9479 56.3167C65.7991 57.3299 65.3227 58.2403 64.6148 58.8639Z" fill="#263238"/>
<path d="M148.607 40.8769C148.479 39.2963 147.948 37.795 147.08 36.5628C146.213 35.3307 145.048 34.423 143.734 33.9546C142.419 33.4861 141.014 33.4779 139.695 33.931C138.376 34.3841 137.204 35.2782 136.326 36.5002C135.447 37.7222 134.903 39.2172 134.761 40.7962C134.619 42.3752 134.886 43.9673 135.529 45.3712C136.171 46.7751 137.159 47.9277 138.369 48.6834C139.579 49.439 140.956 49.7637 142.326 49.6164C143.236 49.5191 144.121 49.2158 144.929 48.7238C145.737 48.2318 146.454 47.5607 147.037 46.749C147.62 45.9373 148.059 45.0009 148.329 43.9933C148.598 42.9857 148.693 41.9267 148.607 40.8769ZM142.25 48.6397C141.046 48.7698 139.837 48.485 138.773 47.8215C137.71 47.158 136.841 46.1456 136.277 44.9123C135.713 43.679 135.478 42.2803 135.603 40.893C135.727 39.5058 136.206 38.1923 136.977 37.1189C137.749 36.0455 138.779 35.2602 139.938 34.8625C141.096 34.4648 142.331 34.4726 143.486 34.8847C144.641 35.2969 145.664 36.0949 146.425 37.178C147.187 38.261 147.653 39.5803 147.764 40.9691C147.914 42.8299 147.417 44.683 146.383 46.1214C145.349 47.5597 143.862 48.4655 142.25 48.6397ZM148.607 40.8769C148.479 39.2963 147.948 37.795 147.08 36.5628C146.213 35.3307 145.048 34.423 143.734 33.9546C142.419 33.4861 141.014 33.4779 139.695 33.931C138.376 34.3841 137.204 35.2782 136.326 36.5002C135.447 37.7222 134.903 39.2172 134.761 40.7962C134.619 42.3752 134.886 43.9673 135.529 45.3712C136.171 46.7751 137.159 47.9277 138.369 48.6834C139.579 49.439 140.956 49.7637 142.326 49.6164C143.236 49.5191 144.121 49.2158 144.929 48.7238C145.737 48.2318 146.454 47.5607 147.037 46.749C147.62 45.9373 148.059 45.0009 148.329 43.9933C148.598 42.9857 148.693 41.9267 148.607 40.8769ZM142.25 48.6397C141.046 48.7698 139.837 48.485 138.773 47.8215C137.71 47.158 136.841 46.1456 136.277 44.9123C135.713 43.679 135.478 42.2803 135.603 40.893C135.727 39.5058 136.206 38.1923 136.977 37.1189C137.749 36.0455 138.779 35.2602 139.938 34.8625C141.096 34.4648 142.331 34.4726 143.486 34.8847C144.641 35.2969 145.664 36.0949 146.425 37.178C147.187 38.261 147.653 39.5803 147.764 40.9691C147.914 42.8299 147.417 44.683 146.383 46.1214C145.349 47.5597 143.862 48.4655 142.25 48.6397ZM148.607 40.8769C148.479 39.2963 147.948 37.795 147.08 36.5628C146.213 35.3307 145.048 34.423 143.734 33.9546C142.419 33.4861 141.014 33.4779 139.695 33.931C138.376 34.3841 137.204 35.2782 136.326 36.5002C135.447 37.7222 134.903 39.2172 134.761 40.7962C134.619 42.3752 134.886 43.9673 135.529 45.3712C136.171 46.7751 137.159 47.9277 138.369 48.6834C139.579 49.439 140.956 49.7637 142.326 49.6164C143.236 49.5191 144.121 49.2158 144.929 48.7238C145.737 48.2318 146.454 47.5607 147.037 46.749C147.62 45.9373 148.059 45.0009 148.329 43.9933C148.598 42.9857 148.693 41.9267 148.607 40.8769ZM142.25 48.6397C141.046 48.7698 139.837 48.485 138.773 47.8215C137.71 47.158 136.841 46.1456 136.277 44.9123C135.713 43.679 135.478 42.2803 135.603 40.893C135.727 39.5058 136.206 38.1923 136.977 37.1189C137.749 36.0455 138.779 35.2602 139.938 34.8625C141.096 34.4648 142.331 34.4726 143.486 34.8847C144.641 35.2969 145.664 36.0949 146.425 37.178C147.187 38.261 147.653 39.5803 147.764 40.9691C147.914 42.8299 147.417 44.683 146.383 46.1214C145.349 47.5597 143.862 48.4655 142.25 48.6397ZM156.283 40.0553C156.014 36.7229 154.895 33.5574 153.067 30.9591C151.238 28.3608 148.783 26.4464 146.012 25.4579C143.241 24.4695 140.278 24.4515 137.498 25.4061C134.718 26.3607 132.246 28.2451 130.394 30.821C128.542 33.3968 127.394 36.5485 127.094 39.8774C126.795 43.2064 127.357 46.563 128.711 49.5229C130.065 52.4828 132.149 54.9129 134.7 56.5061C137.251 58.0993 140.154 58.7839 143.042 58.4733C146.914 58.0558 150.484 55.8811 152.967 52.4274C155.45 48.9736 156.643 44.5235 156.283 40.0553ZM142.428 50.8571C140.844 51.0268 139.252 50.6506 137.853 49.776C136.454 48.9015 135.312 47.568 134.57 45.9441C133.828 44.3203 133.52 42.479 133.685 40.6533C133.85 38.8275 134.481 37.0993 135.497 35.6872C136.514 34.2751 137.87 33.2425 139.396 32.7201C140.921 32.1977 142.546 32.2089 144.065 32.7523C145.585 33.2957 146.931 34.3469 147.933 35.7729C148.934 37.199 149.547 38.9358 149.693 40.7637C149.887 43.2132 149.231 45.6516 147.869 47.5438C146.507 49.436 144.55 50.6276 142.428 50.8571ZM141.04 33.6295C139.669 33.7749 138.366 34.3863 137.296 35.3864C136.226 36.3865 135.437 37.7304 135.029 39.248C134.621 40.7656 134.612 42.3887 135.004 43.9119C135.396 45.4351 136.171 46.7901 137.23 47.8052C138.289 48.8204 139.586 49.4502 140.955 49.6149C142.325 49.7796 143.706 49.4719 144.924 48.7306C146.142 47.9893 147.142 46.8479 147.798 45.4506C148.453 44.0533 148.735 42.4631 148.607 40.8811C148.437 38.7618 147.544 36.8073 146.125 35.4475C144.706 34.0876 142.877 33.4337 141.04 33.6295ZM142.25 48.6439C141.046 48.774 139.837 48.4892 138.773 47.8257C137.71 47.1622 136.841 46.1498 136.277 44.9165C135.713 43.6832 135.478 42.2845 135.603 40.8972C135.727 39.51 136.206 38.1965 136.977 37.1231C137.749 36.0496 138.779 35.2644 139.938 34.8667C141.096 34.469 142.331 34.4767 143.486 34.8889C144.641 35.3011 145.664 36.0991 146.425 37.1822C147.187 38.2652 147.653 39.5845 147.764 40.9733C147.913 42.8334 147.416 44.6855 146.382 46.1229C145.348 47.5603 143.862 48.4655 142.25 48.6397V48.6439ZM148.607 40.8811C148.479 39.3005 147.948 37.7992 147.08 36.567C146.213 35.3349 145.048 34.4272 143.734 33.9587C142.419 33.4903 141.014 33.4821 139.695 33.9352C138.376 34.3883 137.204 35.2824 136.326 36.5044C135.447 37.7264 134.903 39.2214 134.761 40.8004C134.619 42.3794 134.886 43.9715 135.529 45.3754C136.171 46.7793 137.159 47.9319 138.369 48.6876C139.579 49.4432 140.956 49.7679 142.326 49.6206C143.237 49.5233 144.121 49.2198 144.93 48.7276C145.738 48.2353 146.455 47.5639 147.038 46.7517C147.622 45.9396 148.061 45.0027 148.33 43.9946C148.599 42.9865 148.693 41.927 148.607 40.8769V40.8811ZM142.25 48.6439C141.046 48.774 139.837 48.4892 138.773 47.8257C137.71 47.1622 136.841 46.1498 136.277 44.9165C135.713 43.6832 135.478 42.2845 135.603 40.8972C135.727 39.51 136.206 38.1965 136.977 37.1231C137.749 36.0496 138.779 35.2644 139.938 34.8667C141.096 34.469 142.331 34.4767 143.486 34.8889C144.641 35.3011 145.664 36.0991 146.425 37.1822C147.187 38.2652 147.653 39.5845 147.764 40.9733C147.913 42.8334 147.416 44.6855 146.382 46.1229C145.348 47.5603 143.862 48.4655 142.25 48.6397V48.6439ZM148.607 40.8811C148.479 39.3005 147.948 37.7992 147.08 36.567C146.213 35.3349 145.048 34.4272 143.734 33.9587C142.419 33.4903 141.014 33.4821 139.695 33.9352C138.376 34.3883 137.204 35.2824 136.326 36.5044C135.447 37.7264 134.903 39.2214 134.761 40.8004C134.619 42.3794 134.886 43.9715 135.529 45.3754C136.171 46.7793 137.159 47.9319 138.369 48.6876C139.579 49.4432 140.956 49.7679 142.326 49.6206C143.237 49.5233 144.121 49.2198 144.93 48.7276C145.738 48.2353 146.455 47.5639 147.038 46.7517C147.622 45.9396 148.061 45.0027 148.33 43.9946C148.599 42.9865 148.693 41.927 148.607 40.8769V40.8811ZM142.25 48.6439C141.046 48.774 139.837 48.4892 138.773 47.8257C137.71 47.1622 136.841 46.1498 136.277 44.9165C135.713 43.6832 135.478 42.2845 135.603 40.8972C135.727 39.51 136.206 38.1965 136.977 37.1231C137.749 36.0496 138.779 35.2644 139.938 34.8667C141.096 34.469 142.331 34.4767 143.486 34.8889C144.641 35.3011 145.664 36.0991 146.425 37.1822C147.187 38.2652 147.653 39.5845 147.764 40.9733C147.913 42.8334 147.416 44.6855 146.382 46.1229C145.348 47.5603 143.862 48.4655 142.25 48.6397V48.6439Z" fill="#FF725E"/>
<path d="M143.182 25.1693L137.566 25.7729L137.508 21.1537L142.503 20.6172L143.182 25.1693Z" fill="#FF725E"/>
<path d="M132.669 28.5018L129.069 33.5066L126.195 30.2916L129.399 25.8359L132.669 28.5018Z" fill="#FF725E"/>
<path d="M127.277 39.4375L127.796 45.9136L123.793 45.9848L123.328 40.2213L127.277 39.4375Z" fill="#FF725E"/>
<path d="M130.162 51.5625L134.499 55.7164L131.71 59.032L127.852 55.335L130.162 51.5625Z" fill="#FF725E"/>
<path d="M139.641 57.7869L145.257 57.1875L145.315 61.8067L140.32 62.3432L139.641 57.7869Z" fill="#FF725E"/>
<path d="M150.156 54.4543L153.756 49.4453L156.63 52.6645L153.426 57.1202L150.156 54.4543Z" fill="#FF725E"/>
<path d="M155.535 43.5239L155.016 37.0436L159.019 36.9766L159.484 42.74L155.535 43.5239Z" fill="#FF725E"/>
<path d="M152.654 31.3914L148.312 27.2375L151.102 23.9219L154.964 27.6189L152.654 31.3914Z" fill="#FF725E"/>
<path d="M144.648 43.503C144.648 43.6048 144.63 43.7056 144.596 43.7995C144.562 43.8934 144.512 43.9785 144.449 44.0499C144.387 44.1213 144.312 44.1776 144.23 44.2154C144.148 44.2532 144.061 44.2718 143.972 44.2701H143.852V45.3306C143.84 45.5248 143.764 45.7064 143.641 45.8389C143.517 45.9714 143.355 46.045 143.186 46.045C143.017 46.045 142.855 45.9714 142.731 45.8389C142.607 45.7064 142.532 45.5248 142.519 45.3306V44.2701H138.719C138.568 44.2762 138.42 44.2164 138.305 44.1024C138.235 44.0414 138.177 43.9645 138.133 43.8766C138.089 43.7886 138.061 43.6914 138.051 43.5907C138.041 43.49 138.049 43.388 138.074 43.2908C138.099 43.1936 138.14 43.1033 138.196 43.0252L142.672 36.6078C142.672 36.6078 142.672 36.6078 142.697 36.5785C142.713 36.5638 142.725 36.5451 142.734 36.524C142.756 36.5143 142.777 36.5001 142.795 36.4821L142.843 36.4402C142.868 36.4402 142.879 36.4108 142.915 36.4108C142.919 36.3993 142.925 36.3892 142.933 36.3818C142.942 36.3743 142.952 36.3698 142.962 36.3689C142.986 36.3569 143.01 36.3485 143.035 36.3438C143.051 36.3512 143.07 36.3512 143.086 36.3438H143.289C143.309 36.3514 143.331 36.3514 143.351 36.3438C143.351 36.3438 143.398 36.3437 143.424 36.3689H143.471L143.533 36.4234L143.591 36.4653C143.591 36.4653 143.627 36.4653 143.627 36.4946C143.642 36.5139 143.658 36.5321 143.674 36.5491L143.711 36.6036C143.728 36.6256 143.744 36.6495 143.758 36.6749C143.762 36.6954 143.771 36.7142 143.783 36.7294C143.783 36.7587 143.783 36.7713 143.809 36.8132C143.834 36.8551 143.809 36.8551 143.809 36.8719C143.815 36.8993 143.815 36.9283 143.809 36.9557C143.809 36.9809 143.809 36.9976 143.809 37.0228V42.7024H143.929C144.023 42.6954 144.117 42.711 144.205 42.7484C144.293 42.7857 144.374 42.844 144.442 42.9193C144.509 42.9947 144.563 43.0855 144.598 43.1861C144.634 43.2866 144.651 43.3945 144.648 43.503ZM142.519 39.2863L140.114 42.7318H142.519V39.2863Z" fill="#263238"/>
<path d="M155.653 25.145C155.653 25.145 156.663 23.2294 155.195 22.3869C153.727 21.5444 153.062 23.6444 153.062 23.6444L155.653 25.145Z" fill="#DD6A57"/>
<path d="M147.211 37.8171L149.801 39.3009L155.693 25.062L153.103 23.5781L147.211 37.8171Z" fill="#455A64"/>
<path d="M152.672 23.9487L155.694 25.684L155.93 25.1181L152.908 23.3828L152.672 23.9487Z" fill="#263238"/>
<path d="M152.43 24.5737L155.452 26.3048L155.688 25.739L152.662 24.0078L152.43 24.5737Z" fill="#263238"/>
<path d="M147.211 37.8226L147.458 40.1405L147.534 40.9034L148.101 40.5094L149.801 39.3064L149.688 38.8034L149.285 39.013L149.169 38.5058L148.766 38.7154L148.657 38.2124L148.246 38.4178L148.137 37.9148L147.73 38.1202L147.618 37.6172L147.211 37.8226Z" fill="white"/>
<path d="M147.453 40.1406L147.529 40.9035L148.096 40.5095L147.453 40.1406Z" fill="#37474F"/>
<path d="M148.281 37.3566C148.645 36.3464 149.008 35.3488 149.393 34.3554C149.778 33.362 150.181 32.3853 150.577 31.3961C150.973 30.4069 151.398 29.4428 151.827 28.462C152.255 27.4811 152.688 26.5254 153.153 25.5781C152.789 26.5925 152.426 27.5859 152.041 28.5793C151.656 29.5727 151.253 30.5536 150.857 31.5386C150.461 32.5236 150.036 33.4961 149.607 34.4728C149.179 35.4494 148.746 36.4093 148.281 37.3566Z" fill="#263238"/>
<path d="M149.461 38.0008C149.824 36.9865 150.187 35.993 150.569 34.9996C150.95 34.0062 151.361 33.0254 151.753 32.0403C152.146 31.0553 152.578 30.0829 153.003 29.1062C153.428 28.1296 153.864 27.1739 154.329 26.2266C153.984 27.2367 153.602 28.2344 153.221 29.2278C152.839 30.2212 152.429 31.1978 152.033 32.1871C151.637 33.1763 151.212 34.1404 150.783 35.1212C150.355 36.102 149.922 37.0493 149.461 38.0008Z" fill="#263238"/>
<path d="M103.666 29.2422C99.8033 29.2414 96.0271 30.5623 92.815 33.0378C89.6029 35.5134 87.0992 39.0325 85.6205 43.15C84.1418 47.2675 83.7545 51.7985 84.5076 56.17C85.2608 60.5415 87.1205 64.5571 89.8516 67.709C92.5828 70.8609 96.0626 73.0074 99.8511 73.8773C103.64 74.7471 107.567 74.3011 111.135 72.5956C114.704 70.8902 117.754 68.002 119.901 64.2961C122.047 60.5903 123.192 56.2334 123.192 51.7764C123.192 45.8007 121.135 40.0696 117.473 35.8438C113.812 31.6179 108.845 29.2433 103.666 29.2422ZM103.666 62.2974C101.862 62.2982 100.098 61.6815 98.5969 60.5253C97.0963 59.3691 95.9266 57.7253 95.2357 55.8019C94.5448 53.8785 94.3639 51.7619 94.7157 49.7199C95.0676 47.6778 95.9364 45.802 97.2124 44.3298C98.4883 42.8575 100.114 41.855 101.884 41.449C103.654 41.0431 105.488 41.2518 107.155 42.049C108.822 42.8461 110.246 44.1958 111.248 45.9273C112.251 47.6588 112.785 49.6943 112.784 51.7764C112.783 54.5664 111.822 57.2418 110.113 59.2146C108.403 61.1874 106.084 62.2963 103.666 62.2974Z" fill="#455A64"/>
<path d="M107.415 30.1792H99.9062L100.324 24.0469H107.001L107.415 30.1792Z" fill="#455A64"/>
<path d="M93.1283 33.0926L87.8172 39.2165L84.3516 34.5429L89.0741 29.0938L93.1283 33.0926Z" fill="#455A64"/>
<path d="M84.8069 46.8203V55.4844L79.4922 55.0066V47.2982L84.8069 46.8203Z" fill="#455A64"/>
<path d="M87.3406 63.3125L92.6481 69.4365L88.5976 73.4353L83.875 67.9862L87.3406 63.3125Z" fill="#455A64"/>
<path d="M99.2344 72.9141H106.743L106.329 79.0464H99.6485L99.2344 72.9141Z" fill="#455A64"/>
<path d="M113.523 69.9953L118.831 63.8672L122.297 68.545L117.574 73.9942L113.523 69.9953Z" fill="#455A64"/>
<path d="M121.844 56.2657V47.6016L127.158 48.0794V55.7878L121.844 56.2657Z" fill="#455A64"/>
<path d="M119.311 39.7754L114 33.6472L118.054 29.6484L122.777 35.0975L119.311 39.7754Z" fill="#455A64"/>
<path d="M105.4 51.4448C105.681 51.7628 105.904 52.1425 106.055 52.5615C106.207 52.9805 106.284 53.4303 106.283 53.8843C106.284 54.5706 106.108 55.2417 105.778 55.8128C105.449 56.3838 104.979 56.8291 104.43 57.0921C103.881 57.3551 103.276 57.4241 102.693 57.2904C102.109 57.1566 101.574 56.8261 101.153 56.3406C101.025 56.1928 100.953 55.9922 100.953 55.7831C100.953 55.574 101.025 55.3735 101.153 55.2257C101.281 55.0778 101.455 54.9947 101.636 54.9947C101.818 54.9947 101.991 55.0778 102.12 55.2257C102.271 55.3994 102.451 55.537 102.648 55.6305C102.846 55.724 103.058 55.7716 103.271 55.7706C103.704 55.7694 104.12 55.574 104.43 55.2257C104.584 55.0506 104.706 54.8417 104.789 54.6114C104.872 54.381 104.914 54.1338 104.913 53.8843C104.915 53.6372 104.873 53.3922 104.79 53.1644C104.707 52.9366 104.585 52.7308 104.43 52.5598C104.28 52.3833 104.102 52.2431 103.905 52.1474C103.708 52.0516 103.496 52.0023 103.282 52.0023C103.188 52.0079 103.094 51.9881 103.007 51.9444C102.921 51.9008 102.845 51.8345 102.784 51.7508C102.654 51.6058 102.579 51.4078 102.574 51.1993C102.569 50.9908 102.636 50.7885 102.759 50.6358L103.994 49.1855H102.032C101.851 49.1855 101.678 49.1025 101.549 48.9547C101.421 48.8069 101.349 48.6065 101.349 48.3975C101.349 48.1885 101.421 47.9881 101.549 47.8403C101.678 47.6925 101.851 47.6095 102.032 47.6095H105.6C105.69 47.6078 105.779 47.6267 105.862 47.6651C105.946 47.7035 106.022 47.7606 106.086 47.8331C106.15 47.9056 106.201 47.9921 106.236 48.0875C106.271 48.183 106.289 48.2855 106.29 48.3891C106.287 48.521 106.257 48.6503 106.203 48.7664C106.169 48.8369 106.129 48.9029 106.083 48.9634L104.561 50.7742C104.874 50.9364 105.158 51.1638 105.4 51.4448Z" fill="#263238"/>
<path d="M116.77 35.1302C118.024 35.1302 119.041 33.9572 119.041 32.5104C119.041 31.0635 118.024 29.8906 116.77 29.8906C115.517 29.8906 114.5 31.0635 114.5 32.5104C114.5 33.9572 115.517 35.1302 116.77 35.1302Z" fill="#FF725E"/>
<path d="M119.173 34.7188H114.359V35.5194H119.173V34.7188Z" fill="#FF725E"/>
<path opacity="0.1" d="M119.173 34.7188H114.359V35.5194H119.173V34.7188Z" fill="black"/>
<path d="M121.641 45.75H111.891V46.5506H121.641V45.75Z" fill="#FF725E"/>
<path opacity="0.1" d="M121.641 45.75H111.891V46.5506H121.641V45.75Z" fill="black"/>
<path d="M121.641 47.9922H111.891V48.7928H121.641V47.9922Z" fill="#FF725E"/>
<path opacity="0.1" d="M121.641 47.9922H111.891V48.7928H121.641V47.9922Z" fill="black"/>
<path d="M121.282 46.5469H112.258V47.993H121.282V46.5469Z" fill="#FF725E"/>
<path d="M118.732 35.5234H114.805V36.324H118.732V35.5234Z" fill="#FF725E"/>
<path d="M120.758 45.7431H112.766C112.766 45.7431 114.582 43.6473 114.963 41.1323C115.283 39.0113 115.436 36.3203 115.436 36.3203H118.069C118.069 36.3203 118.226 39.0113 118.545 41.1323C118.938 43.6431 120.758 45.7431 120.758 45.7431Z" fill="#FF725E"/>
<path d="M8.30027 7.42674L8.08594 7.08303C8.46738 6.76866 8.69261 6.61357 8.7035 6.60938L8.88877 6.96986C8.68583 7.11019 8.48939 7.26269 8.30027 7.42674Z" fill="#263238"/>
<path d="M103.482 79.8551C102.988 79.8551 102.498 79.83 102.029 79.7965L102.051 79.3773C102.52 79.4108 103.006 79.4276 103.504 79.436L103.482 79.8551ZM104.935 79.8216L104.917 79.4024C105.4 79.3773 105.884 79.3312 106.345 79.2641L106.388 79.6833C105.938 79.742 105.451 79.7923 104.957 79.8216H104.935ZM100.558 79.6539C100.071 79.5911 99.588 79.5114 99.1048 79.4192L99.1666 79C99.6352 79.0923 100.111 79.1719 100.594 79.2348L100.558 79.6539ZM107.823 79.4192L107.751 79C108.227 78.8911 108.695 78.7569 109.142 78.606L109.244 79.0252C108.815 79.1719 108.339 79.3228 107.842 79.4192H107.823ZM97.6771 79.0839C97.1976 78.9497 96.7254 78.803 96.2676 78.6354L96.373 78.2162C96.8234 78.3755 97.2921 78.5222 97.7607 78.6354L97.6771 79.0839ZM110.653 78.4845L110.519 78.0947C110.961 77.8914 111.392 77.6605 111.812 77.403L111.983 77.7761C111.554 78.0192 111.111 78.2539 110.653 78.4845ZM94.9163 78.0653C94.4622 77.8599 94.0117 77.6461 93.5758 77.3947L93.732 77.0174C94.1607 77.2521 94.6039 77.4743 95.0471 77.6755L94.9163 78.0653ZM113.24 76.8791L113.036 76.5312C113.433 76.2255 113.815 75.8953 114.181 75.5419L114.413 75.8647C114.037 76.2311 113.646 76.5753 113.24 76.8958V76.8791ZM92.2789 76.615C91.8575 76.3384 91.4397 76.0407 91.0329 75.7264L91.2363 75.3785C91.6323 75.6845 92.0464 75.9779 92.4569 76.2503L92.2789 76.615ZM89.845 74.7414C89.4817 74.406 89.0857 74.0455 88.7188 73.6725L88.9549 73.3581C89.3182 73.7228 89.6815 74.0791 90.0666 74.4102L89.845 74.7414ZM115.492 74.7204L115.234 74.427C115.561 74.0455 115.884 73.6306 116.193 73.1988L116.473 73.4629C116.157 73.924 115.834 74.3473 115.492 74.7372V74.7204ZM87.6471 72.5282C87.3093 72.1425 86.9678 71.736 86.63 71.3168L86.8952 71.0318C87.2294 71.4509 87.5672 71.8701 87.9014 72.2264L87.6471 72.5282ZM117.356 72.109L117.058 71.8701C117.327 71.4258 117.588 70.9563 117.839 70.4743L118.151 70.688C117.893 71.2036 117.628 71.6815 117.356 72.1342V72.109ZM85.66 70.0425C85.3585 69.6234 85.0497 69.2042 84.741 68.7348L85.0243 68.4749C85.3331 68.9276 85.6419 69.3635 85.9398 69.7701L85.66 70.0425ZM118.86 69.2042L118.54 69.0114C118.751 68.5377 118.965 68.0347 119.168 67.515L119.499 67.6868C119.292 68.2485 119.078 68.7599 118.86 69.2378V69.2042ZM83.8655 67.4228C83.5785 66.9743 83.2951 66.5174 83.0118 66.0605L83.3097 65.8174C83.5894 66.2743 83.8727 66.727 84.1561 67.1755L83.8655 67.4228ZM120.088 66.1653L119.753 66.006C119.928 65.5072 120.117 64.9832 120.273 64.4467L120.614 64.5934C120.433 65.1425 120.255 65.6707 120.077 66.1737L120.088 66.1653ZM82.1799 64.6689C81.9074 64.2078 81.6386 63.7467 81.3661 63.2773L81.6713 63.0467C81.9401 63.512 82.2089 63.9731 82.4814 64.4341L82.1799 64.6689ZM121.094 62.9922L120.749 62.8623C120.901 62.3341 121.047 61.806 121.192 61.2653L121.537 61.391C121.384 61.9485 121.235 62.4808 121.083 63.009L121.094 62.9922ZM80.5633 61.8731L79.7568 60.4689L80.062 60.2383L80.8648 61.6425L80.5633 61.8731ZM121.951 59.7772L121.588 59.6599C121.722 59.1275 121.849 58.591 121.98 58.0461L122.343 58.1551C122.21 58.7112 122.076 59.2575 121.94 59.794L121.951 59.7772ZM78.9504 59.0731C78.6779 58.612 78.4055 58.1467 78.1294 57.6898L78.4273 57.4509C78.7033 57.912 78.9794 58.3731 79.2482 58.8383L78.9504 59.0731ZM122.718 56.5287L122.354 56.424C122.473 55.8874 122.594 55.3467 122.718 54.8018L123.081 54.9024C122.946 55.4641 122.827 56.009 122.707 56.5455L122.718 56.5287ZM77.3084 56.3192C77.025 55.8665 76.738 55.4138 76.4474 54.9695L76.738 54.718C77.0323 55.1665 77.3193 55.6192 77.6026 56.0719L77.3084 56.3192ZM75.5574 53.6491C75.2522 53.2048 74.9398 52.773 74.6347 52.3623L74.9108 52.0898C75.2195 52.509 75.532 52.9281 75.8444 53.3892L75.5574 53.6491ZM123.444 53.2719L123.081 53.1712L123.444 51.5407L123.807 51.6413L123.444 53.2719ZM73.6756 51.1132C73.345 50.694 73.0036 50.3 72.6694 49.9144L72.9237 49.6168C73.2651 50.0024 73.6066 50.4132 73.9408 50.8281L73.6756 51.1132ZM124.145 50.0191L123.782 49.9144C123.898 49.3736 124.018 48.8329 124.145 48.288L124.509 48.3928C124.352 48.9503 124.232 49.491 124.116 50.0359L124.145 50.0191ZM19.1591 49.0048C18.6723 49.0048 18.1782 48.9629 17.706 48.9126L17.7387 48.4934C18.2146 48.5395 18.6977 48.573 19.1918 48.5814L19.1591 49.0048ZM20.6122 48.9754V48.5563C21.0881 48.5227 21.5712 48.4724 22.0435 48.4012L22.0907 48.8203C21.5857 48.9084 21.0917 48.9587 20.6049 48.9922L20.6122 48.9754ZM71.5977 48.7742C71.2344 48.4012 70.8711 48.0407 70.5079 47.697L70.7367 47.37C71.1 47.7179 71.4851 48.0868 71.8484 48.4641L71.5977 48.7742ZM16.2202 48.7239C15.7407 48.6317 15.2575 48.5185 14.7671 48.3886L14.8506 47.9694C15.312 48.0994 15.7879 48.2084 16.2602 48.2964L16.2202 48.7239ZM23.5111 48.5605L23.4384 48.1413C23.9071 48.0281 24.3757 47.894 24.8371 47.7221L24.9351 48.1413C24.4701 48.3048 23.9906 48.4389 23.5111 48.5563V48.5605ZM13.3685 47.9443C12.9035 47.7724 12.4385 47.5838 11.988 47.3784L12.1225 46.9886C12.562 47.1898 13.0197 47.3784 13.4775 47.5419L13.3685 47.9443ZM26.3301 47.6635L26.2211 47.2443L27.6088 46.7413L27.7178 47.1395C27.2601 47.3281 26.7951 47.4958 26.3301 47.6593V47.6635ZM124.836 46.7874L124.472 46.6784C124.596 46.1377 124.723 45.5928 124.854 45.0521L125.217 45.1652C125.086 45.6976 124.959 46.2425 124.836 46.7832V46.7874ZM69.3345 46.7078C68.9458 46.385 68.5462 46.0706 68.143 45.7772L68.3355 45.4251C68.746 45.7227 69.1529 46.0413 69.5488 46.3682L69.3345 46.7078ZM10.6367 46.7078C10.1971 46.4605 9.76118 46.1964 9.33978 45.9197L9.52141 45.5551C9.93191 45.8275 10.3606 46.0874 10.7929 46.3263L10.6367 46.7078ZM29.0946 46.6533L28.9856 46.2551L30.3661 45.7395L30.4787 46.1377L29.0946 46.6533ZM31.8591 45.6179L31.7465 45.2197L33.1306 44.7L33.2432 45.1191L31.8591 45.6179ZM8.09375 45.0227C7.69051 44.7042 7.29454 44.3688 6.91311 44.0209L7.13834 43.6898C7.50161 44.0335 7.90121 44.3646 8.30081 44.6748L8.09375 45.0227ZM66.9042 44.9389C66.4864 44.6748 66.0541 44.4191 65.6255 44.1802L65.7817 43.803C66.2176 44.0419 66.6535 44.3018 67.0786 44.5742L66.9042 44.9389ZM34.6237 44.5868L34.5147 44.1676L35.9133 43.694L36.0223 44.1131L34.6237 44.5868ZM37.3991 43.5934L37.2937 43.1742C37.7623 43.0107 38.2273 42.8557 38.6923 42.7048L38.7904 43.1239L37.3991 43.5934ZM125.602 43.5557L125.239 43.4383C125.373 42.9018 125.515 42.361 125.657 41.8287L126.02 41.9545C125.882 42.4742 125.744 43.0107 125.609 43.5473L125.602 43.5557ZM64.3068 43.5054C63.9072 43.3167 63.4967 43.1407 63.0862 42.973L62.959 42.9227L63.0789 42.5245L63.1734 42.5622C63.6238 42.7467 64.0416 42.9269 64.4448 43.1197L64.3068 43.5054ZM5.81965 42.9143C5.45638 42.5287 5.1149 42.1263 4.78795 41.7113L5.05678 41.4305C5.37646 41.8497 5.71794 42.2311 6.06668 42.6084L5.81965 42.9143ZM40.2072 42.6838L40.1164 42.2646C40.5886 42.1221 41.0572 41.9838 41.5295 41.8455L41.6131 42.2646C41.1372 42.3946 40.6685 42.5329 40.1963 42.6754L40.2072 42.6838ZM61.6004 42.4072C61.139 42.2437 60.6704 42.0928 60.2091 41.9545L60.2999 41.5353C60.7649 41.6778 61.2371 41.8287 61.7057 41.9922L61.6004 42.4072ZM43.0262 41.8958L42.9499 41.4766C43.4258 41.3593 43.9017 41.2461 44.3776 41.1413L44.4466 41.5605C43.9634 41.6569 43.4875 41.77 43.0153 41.8874L43.0262 41.8958ZM58.8032 41.5688C58.3346 41.4557 57.855 41.3467 57.3828 41.2545L57.4445 40.8353C57.9241 40.9317 58.4036 41.0365 58.8795 41.1581L58.8032 41.5688ZM45.8743 41.2754L45.8161 40.8563C46.3029 40.7682 46.7897 40.6886 47.2692 40.6215L47.3128 41.0407C46.8115 41.0994 46.3429 41.179 45.8634 41.267L45.8743 41.2754ZM55.9551 41.0113C55.4756 40.9401 54.9924 40.8814 54.502 40.8395L54.5311 40.4203C55.0142 40.4664 55.501 40.5251 55.9842 40.5922L55.9551 41.0113ZM48.7441 40.8688L48.7114 40.4497C49.1982 40.4036 49.6886 40.3658 50.1645 40.3407V40.7598C49.7177 40.7598 49.2164 40.8143 48.7332 40.8604L48.7441 40.8688ZM53.0744 40.7389C52.653 40.7221 52.2352 40.7137 51.8211 40.7137H51.6285V40.2946H51.8211C52.2388 40.2946 52.6638 40.2946 53.0889 40.3197L53.0744 40.7389ZM3.83981 40.4161C3.54192 39.9718 3.25494 39.5066 2.98975 39.0371L3.2949 38.8066C3.55282 39.2676 3.83617 39.7245 4.12679 40.1604L3.83981 40.4161ZM126.481 40.3575L126.136 40.2275C126.289 39.691 126.448 39.1628 126.612 38.6347L126.953 38.7772C126.779 39.2928 126.623 39.8209 126.47 40.3407L126.481 40.3575ZM2.2414 37.5784C2.00891 37.0838 1.79457 36.5724 1.60204 36.0568L1.93262 35.8892C2.12515 36.3964 2.33585 36.8952 2.56108 37.3814L2.2414 37.5784ZM127.458 37.2054L127.121 37.0545C127.299 36.5263 127.484 36.0107 127.673 35.4952L128.007 35.6628C127.822 36.17 127.633 36.6856 127.458 37.2054ZM1.06076 34.4724C0.904553 33.9443 0.766508 33.3994 0.646627 32.8503L1.0099 32.7497C1.12615 33.2862 1.26419 33.8185 1.41677 34.3383L1.06076 34.4724ZM128.599 34.1455L128.272 33.9652C128.486 33.4455 128.704 32.9383 128.926 32.4562L129.246 32.6532C129.031 33.1227 128.813 33.6341 128.599 34.1413V34.1455ZM129.947 31.2113L129.634 31.0017C129.881 30.5113 130.143 30.0293 130.404 29.564L130.71 29.7946C130.448 30.2305 130.194 30.6999 129.947 31.1904V31.2113ZM0.348743 31.2113C0.30515 30.9095 0.26519 30.6077 0.232495 30.3017C0.199801 29.9958 0.178004 29.7862 0.156208 29.5347L0.519482 29.4928C0.541279 29.7443 0.566708 29.9958 0.592137 30.2514C0.617566 30.5071 0.66116 30.8467 0.704753 31.1401L0.348743 31.2113ZM131.534 28.4281L131.24 28.1808C131.531 27.7281 131.836 27.2796 132.141 26.8604L132.421 27.1287C132.119 27.5227 131.818 27.9628 131.534 28.4071V28.4281ZM0.0290626 27.8496C0.0108989 27.3802 0 26.9065 0 26.4413V26.1646H0.363274V26.4413C0.363274 26.9023 0.363275 27.3676 0.392337 27.8329L0.0290626 27.8496ZM133.351 25.888L133.089 25.5987C133.427 25.1796 133.776 24.7898 134.128 24.4167L134.375 24.7269C134.055 25.0748 133.71 25.4646 133.376 25.867L133.351 25.888ZM0.439561 24.4838L0.0762872 24.4544C0.108982 23.8928 0.159841 23.3269 0.221597 22.7778L0.584872 22.8323C0.523115 23.373 0.475889 23.9305 0.439561 24.4838ZM135.49 23.6454L135.262 23.3185C135.625 22.9706 136.035 22.6311 136.435 22.3125L136.642 22.6562C136.25 22.9496 135.861 23.2808 135.49 23.6245V23.6454ZM137.852 21.7592L137.663 21.3987C138.081 21.1137 138.513 20.8412 138.949 20.5897L139.112 20.9628C138.684 21.1892 138.258 21.4784 137.852 21.7383V21.7592ZM0.824632 21.1892L0.461358 21.1053C0.559442 20.552 0.67569 19.9987 0.802835 19.4622L1.16611 19.5754C1.03896 20.1035 0.922716 20.64 0.824632 21.1892ZM1.59114 17.9868L1.24966 17.8484C1.41314 17.3203 1.61294 16.7921 1.78731 16.2766L2.12879 16.4484C1.92899 16.9472 1.76551 17.467 1.59114 17.9868ZM2.74635 14.9478L2.42304 14.7718C2.6519 14.273 2.8953 13.7826 3.14959 13.3047L3.45837 13.5269C3.21861 13.9712 2.96795 14.4574 2.74635 14.9478ZM4.26847 12.1311L3.97422 11.8837C4.26121 11.4269 4.56636 10.9825 4.88241 10.5508L5.15849 10.8233C4.84971 11.2424 4.55182 11.6825 4.26847 12.1311ZM6.1248 9.59512L5.86688 9.30171C6.21199 8.88254 6.57163 8.5053 6.9349 8.14062L7.17466 8.45919C6.82592 8.81548 6.48808 9.19692 6.1248 9.59512Z" fill="#263238"/>
<path d="M140.587 20.1609L140.445 19.7753C140.671 19.6663 140.896 19.5615 141.128 19.4609L141.259 19.8549C141.03 19.9514 140.809 20.0561 140.587 20.1609Z" fill="#263238"/>
<path d="M9.92973 9.94672C11.4417 9.22836 12.1627 7.23174 11.5401 5.48715C10.9176 3.74256 9.18716 2.91063 7.67518 3.62899C6.1632 4.34734 5.4422 6.34396 6.06477 8.08855C6.68735 9.83314 8.41775 10.6651 9.92973 9.94672Z" fill="#263238"/>
<path d="M60.6638 45.0667C62.2989 45.0667 63.6245 43.5372 63.6245 41.6505C63.6245 39.7638 62.2989 38.2344 60.6638 38.2344C59.0287 38.2344 57.7031 39.7638 57.7031 41.6505C57.7031 43.5372 59.0287 45.0667 60.6638 45.0667Z" fill="#263238"/>
<path d="M141.187 23.0745C142.822 23.0745 144.148 21.5451 144.148 19.6584C144.148 17.7717 142.822 16.2422 141.187 16.2422C139.552 16.2422 138.227 17.7717 138.227 19.6584C138.227 21.5451 139.552 23.0745 141.187 23.0745Z" fill="#263238"/>
<path d="M103.797 83.7386C105.432 83.7386 106.757 82.2091 106.757 80.3224C106.757 78.4357 105.432 76.9062 103.797 76.9062C102.161 76.9062 100.836 78.4357 100.836 80.3224C100.836 82.2091 102.161 83.7386 103.797 83.7386Z" fill="#263238"/>
</svg>
