<svg width="129" height="141" viewBox="0 0 129 141" fill="none" xmlns="http://www.w3.org/2000/svg">
<path opacity="0.5" d="M112.853 41.5349C112.618 41.5948 112.371 41.5886 112.139 41.517C111.907 41.4453 111.7 41.311 111.539 41.1289C111.45 41.0299 111.357 40.9308 111.261 40.8349C111.165 40.739 111.066 40.6431 110.964 40.5536C110.783 40.3937 110.65 40.1871 110.579 39.9565C110.508 39.7259 110.502 39.4802 110.561 39.2463L110.999 37.613L105.684 36.1875L105.246 37.8208C105.181 38.0543 105.053 38.2653 104.876 38.4306C104.699 38.5958 104.48 38.7089 104.242 38.7573C103.974 38.8114 103.709 38.8819 103.449 38.9683C103.219 39.0436 102.973 39.0536 102.738 38.9971C102.502 38.9407 102.287 38.8201 102.117 38.6486L100.924 37.4596L97.0313 41.3495L98.2236 42.5417C98.395 42.7125 98.5156 42.9275 98.5721 43.1629C98.6285 43.3982 98.6185 43.6446 98.5432 43.8745C98.4601 44.1366 98.3898 44.4019 98.3322 44.6672C98.2852 44.9052 98.1726 45.1253 98.0071 45.3026C97.8416 45.48 97.6299 45.6075 97.3957 45.6708L95.7656 46.1087L97.1912 51.4241L98.8309 50.9799C99.0642 50.92 99.3096 50.9259 99.5398 50.997C99.77 51.0681 99.976 51.2015 100.135 51.3826C100.228 51.4849 100.32 51.5807 100.416 51.6766C100.512 51.7725 100.608 51.8652 100.71 51.9579C100.892 52.1175 101.027 52.3245 101.098 52.5558C101.17 52.7871 101.176 53.0338 101.116 53.2684L100.675 54.9017L105.991 56.3272L106.425 54.7003C106.489 54.4661 106.617 54.2542 106.794 54.0883C106.971 53.9223 107.191 53.8089 107.429 53.7606C107.698 53.7046 107.963 53.6342 108.225 53.5497C108.455 53.4743 108.701 53.4644 108.936 53.5208C109.172 53.5772 109.387 53.6979 109.558 53.8693L110.75 55.0615L114.64 51.1684L113.451 49.9762C113.278 49.806 113.157 49.591 113.1 49.3554C113.044 49.1199 113.055 48.8732 113.131 48.6434C113.215 48.3821 113.286 48.1164 113.342 47.8475C113.39 47.61 113.503 47.3904 113.668 47.2133C113.834 47.0361 114.045 46.9082 114.278 46.8439L115.905 46.4092L114.493 41.097L112.853 41.5349ZM109.017 49.452C108.387 50.083 107.583 50.5127 106.708 50.6869C105.833 50.8611 104.926 50.7719 104.102 50.4306C103.278 50.0893 102.574 49.5113 102.078 48.7696C101.582 48.0279 101.318 47.1558 101.318 46.2637C101.318 45.3717 101.582 44.4996 102.078 43.7579C102.574 43.0162 103.278 42.4382 104.102 42.0969C104.926 41.7556 105.833 41.6664 106.708 41.8406C107.583 42.0148 108.387 42.4445 109.017 43.0755C109.863 43.9208 110.338 45.0669 110.339 46.2624C110.341 47.4579 109.867 48.6051 109.024 49.452H109.017Z" fill="#EBEBEB"/>
<path d="M25.0827 18.613C24.8476 18.6729 24.6005 18.6667 24.3686 18.5951C24.1368 18.5235 23.9293 18.3892 23.769 18.2071C23.6795 18.1048 23.5868 18.0089 23.4909 17.913C23.395 17.8171 23.2959 17.7212 23.1937 17.6317C23.013 17.4718 22.8798 17.2653 22.8087 17.0347C22.7377 16.804 22.7315 16.5583 22.7909 16.3245L23.2288 14.6912L17.9134 13.2656L17.4755 14.8957C17.4107 15.1281 17.2824 15.3378 17.1052 15.5015C16.928 15.6652 16.7087 15.7764 16.4719 15.8226C16.2034 15.8802 15.9413 15.9505 15.6792 16.0336C15.4492 16.1089 15.2029 16.1189 14.9676 16.0625C14.7322 16.006 14.5172 15.8854 14.3464 15.714L13.167 14.5441L9.26111 18.434L10.4533 19.6262C10.6241 19.7974 10.7443 20.0125 10.8007 20.2476C10.8571 20.4828 10.8475 20.729 10.7729 20.9591C10.687 21.2189 10.6165 21.4836 10.562 21.7517C10.5139 21.9893 10.401 22.2088 10.2357 22.386C10.0703 22.5632 9.85912 22.691 9.62548 22.7554L7.99219 23.1932L9.42092 28.5087L11.0574 28.0708C11.2913 28.0114 11.537 28.0175 11.7676 28.0885C11.9982 28.1596 12.2048 28.2928 12.3647 28.4735C12.4542 28.5726 12.5469 28.6717 12.6428 28.7675C12.7387 28.8634 12.8377 28.9561 12.9368 29.0456C13.1189 29.2059 13.2532 29.4135 13.3249 29.6453C13.3965 29.8771 13.4027 30.1242 13.3428 30.3593L12.9017 31.9926L18.2171 33.4181L18.6518 31.788C18.7161 31.5544 18.844 31.3432 19.0211 31.1779C19.1983 31.0125 19.4179 30.8996 19.6554 30.8515C19.9239 30.794 20.1892 30.7237 20.4513 30.6406C20.6811 30.5641 20.9278 30.5536 21.1633 30.6101C21.3989 30.6665 21.6139 30.7878 21.7841 30.9602L22.9763 32.1492L26.8694 28.2561L25.6772 27.0671C25.5055 26.8958 25.3847 26.6802 25.3283 26.4444C25.2718 26.2085 25.282 25.9616 25.3575 25.7311C25.4439 25.4714 25.5144 25.2067 25.5685 24.9384C25.6168 24.7005 25.7302 24.4807 25.8962 24.3035C26.0621 24.1263 26.274 23.9986 26.5082 23.9348L28.1351 23.5001L26.7096 18.1847L25.0827 18.613ZM21.2471 26.5302C20.6156 27.1588 19.812 27.5863 18.9377 27.7587C18.0634 27.931 17.1577 27.8405 16.3348 27.4986C15.5119 27.1566 14.8087 26.5785 14.3141 25.8373C13.8194 25.0961 13.5555 24.225 13.5555 23.3339C13.5555 22.4428 13.8194 21.5716 14.3141 20.8304C14.8087 20.0892 15.5119 19.5112 16.3348 19.1692C17.1577 18.8273 18.0634 18.7368 18.9377 18.9091C19.812 19.0815 20.6156 19.5089 21.2471 20.1376C21.6674 20.5569 22.0009 21.0548 22.2287 21.603C22.4564 22.1512 22.574 22.7389 22.5746 23.3326C22.5751 23.9262 22.4588 24.5141 22.2321 25.0628C22.0055 25.6114 21.6729 26.11 21.2535 26.5302H21.2471Z" fill="#EBEBEB"/>
<path opacity="0.5" d="M8.69347 41.4986C8.5987 41.4423 8.52137 41.3608 8.47004 41.2632C8.4187 41.1656 8.39537 41.0557 8.40261 40.9457C8.40261 40.8849 8.40261 40.8242 8.40261 40.7635C8.40261 40.7028 8.40261 40.6388 8.40261 40.5781C8.39529 40.4689 8.41827 40.3597 8.46903 40.2627C8.51979 40.1657 8.59635 40.0846 8.69027 40.0283L9.3551 39.6448L8.10855 37.4809L7.44692 37.8741C7.35127 37.9288 7.24223 37.9557 7.1321 37.9517C7.02197 37.9478 6.91513 37.9131 6.82365 37.8517C6.72137 37.7846 6.6127 37.7238 6.50402 37.6663C6.40738 37.6163 6.32641 37.5406 6.27001 37.4476C6.21362 37.3545 6.18399 37.2477 6.1844 37.1389V36.375H3.67852V37.1389C3.67821 37.2476 3.64829 37.3541 3.59197 37.447C3.53565 37.5399 3.45507 37.6157 3.35889 37.6663C3.24702 37.7238 3.14154 37.7846 3.03926 37.8517C2.94826 37.9128 2.84198 37.9473 2.73241 37.9513C2.62285 37.9552 2.51435 37.9285 2.41918 37.8741L1.75436 37.4905L0.507812 39.6544L1.17264 40.0411C1.26707 40.096 1.34412 40.1764 1.395 40.2731C1.44587 40.3697 1.4685 40.4788 1.4603 40.5877C1.4603 40.6484 1.4603 40.7091 1.4603 40.7731C1.4603 40.837 1.4603 40.8945 1.4603 40.9553C1.46836 41.0646 1.4457 41.174 1.39487 41.2712C1.34404 41.3683 1.26706 41.4493 1.17264 41.505L0.507812 41.8886L1.75436 44.0525L2.41599 43.6689C2.51347 43.6109 2.62556 43.5822 2.7389 43.5862C2.85224 43.5902 2.96206 43.6266 3.05524 43.6913C3.15776 43.7598 3.26451 43.8217 3.37487 43.8767C3.47105 43.9272 3.55163 44.003 3.60795 44.0959C3.66427 44.1889 3.69419 44.2954 3.6945 44.404V45.168H6.19079V44.3944C6.19039 44.2856 6.22001 44.1788 6.27641 44.0858C6.3328 43.9927 6.41377 43.9171 6.51041 43.8671C6.6204 43.8114 6.72711 43.7495 6.83004 43.6817C6.92323 43.617 7.03304 43.5806 7.14638 43.5766C7.25973 43.5726 7.37182 43.6013 7.4693 43.6593L8.13092 44.0429L9.37747 41.879L8.69347 41.4986ZM4.92506 42.8091C4.52034 42.8097 4.12453 42.6903 3.78771 42.4659C3.45089 42.2415 3.1882 41.9223 3.03288 41.5485C2.87757 41.1748 2.8366 40.7634 2.91517 40.3664C2.99374 39.9693 3.18831 39.6046 3.47427 39.3182C3.76022 39.0317 4.12471 38.8366 4.52161 38.7574C4.91851 38.6782 5.32998 38.7185 5.70395 38.8733C6.07792 39.028 6.39759 39.2902 6.62251 39.6267C6.84743 39.9631 6.96748 40.3588 6.96748 40.7635C6.96664 41.3046 6.75173 41.8235 6.36967 42.2068C5.9876 42.59 5.46942 42.8066 4.92826 42.8091H4.92506Z" fill="#EBEBEB"/>
<path d="M127.461 59.1801C127.367 59.1232 127.29 59.0416 127.238 58.9441C127.187 58.8467 127.163 58.7371 127.17 58.6271C127.17 58.5664 127.17 58.5057 127.17 58.4449C127.17 58.3842 127.17 58.3203 127.17 58.2596C127.163 58.1501 127.187 58.0408 127.238 57.9439C127.29 57.8469 127.367 57.7659 127.461 57.7098L128.122 57.3262L126.876 55.1624L126.211 55.5459C126.116 55.6004 126.007 55.6271 125.898 55.6232C125.788 55.6192 125.682 55.5847 125.591 55.5236C125.486 55.4564 125.38 55.3957 125.271 55.3382C125.175 55.2876 125.095 55.2118 125.038 55.1189C124.982 55.026 124.952 54.9194 124.952 54.8108V54.0469H122.456V54.814C122.456 54.9228 122.426 55.0296 122.37 55.1226C122.313 55.2157 122.233 55.2914 122.136 55.3414C122.027 55.3989 121.919 55.4596 121.816 55.5267C121.723 55.5914 121.613 55.6279 121.5 55.6318C121.387 55.6358 121.274 55.6071 121.177 55.5491L120.512 55.1656L119.266 57.3294L119.93 57.7162C120.025 57.7715 120.102 57.8519 120.153 57.9484C120.204 58.0448 120.228 58.1537 120.221 58.2628C120.221 58.3235 120.221 58.3842 120.221 58.4481C120.221 58.5121 120.221 58.5696 120.221 58.6303C120.228 58.7398 120.204 58.8491 120.153 58.946C120.102 59.043 120.025 59.124 119.93 59.1801L119.266 59.5636L120.512 61.7275L121.174 61.344C121.269 61.2892 121.378 61.2623 121.489 61.2663C121.599 61.2703 121.706 61.3049 121.797 61.3663C121.9 61.4342 122.007 61.4961 122.117 61.5517C122.213 61.6017 122.294 61.6774 122.351 61.7704C122.407 61.8635 122.437 61.9703 122.436 62.0791V62.843H124.933V62.0791C124.933 61.9705 124.963 61.8639 125.019 61.771C125.075 61.6781 125.156 61.6023 125.252 61.5517C125.363 61.4968 125.469 61.4348 125.572 61.3663C125.663 61.3049 125.77 61.2703 125.88 61.2663C125.99 61.2623 126.099 61.2892 126.195 61.344L126.857 61.7275L128.103 59.5636L127.461 59.1801ZM123.692 60.4906C123.288 60.4906 122.892 60.3706 122.556 60.1458C122.22 59.921 121.957 59.6016 121.803 59.2278C121.648 58.854 121.607 58.4427 121.686 58.0459C121.765 57.6491 121.96 57.2846 122.246 56.9985C122.532 56.7124 122.897 56.5176 123.293 56.4386C123.69 56.3597 124.101 56.4002 124.475 56.555C124.849 56.7099 125.169 56.9721 125.393 57.3085C125.618 57.6449 125.738 58.0404 125.738 58.4449C125.737 58.9872 125.521 59.507 125.138 59.8905C124.755 60.2739 124.235 60.4897 123.692 60.4906Z" fill="#EBEBEB"/>
<path d="M80.1797 87.0625V139.705H113.162V87.0625H80.1797ZM110.167 121.486H83.1682V107.285H110.161L110.167 121.486ZM110.167 103.907H83.1682V89.6994H110.161L110.167 103.907Z" fill="#DBDBDB"/>
<path d="M128.078 87.0625H113.164V139.705H128.078V87.0625Z" fill="#EBEBEB"/>
<path d="M89.5868 89.6953H83.1719V103.9H89.5868V89.6953Z" fill="#EBEBEB"/>
<path d="M110.244 136.363H83.2578V124.578H110.244V136.363ZM83.4176 136.203H110.084V124.738H83.4176V136.203Z" fill="#EBEBEB"/>
<path d="M99.4141 127.188H94.0859V129.134H99.4141V127.188Z" fill="#EBEBEB"/>
<path d="M89.5868 107.289H83.1719V121.493H89.5868V107.289Z" fill="#EBEBEB"/>
<path d="M106.477 121.494V108.398H101.963V121.494H106.477Z" fill="#A6A6A6"/>
<path d="M106.477 119.388V116.562H101.963V119.388H106.477Z" fill="#DBDBDB"/>
<path d="M106.477 114.284V112.609H101.963V114.284H106.477Z" fill="#DBDBDB"/>
<path d="M102.443 92.9453H91.0391V103.905H102.443V92.9453Z" fill="#EBEBEB"/>
<path d="M106.779 92.9453H102.445V103.905H106.779V92.9453Z" fill="#C7C7C7"/>
<path d="M91.0391 98.4219H102.443L93.5385 98.7031L91.0391 98.4219Z" fill="#C7C7C7"/>
<path d="M102.443 102.578H91.0391L99.9471 102.859L102.443 102.578Z" fill="#C7C7C7"/>
<path d="M91.0391 95.3594H98.2626L91.8413 95.5895L91.0391 95.3594Z" fill="#C7C7C7"/>
<path d="M102.45 100.961H95.2266L101.648 101.194L102.45 100.961Z" fill="#C7C7C7"/>
<path d="M93.7812 94.1406H101.929L100.57 94.2781L93.7812 94.1406Z" fill="#C7C7C7"/>
<path d="M92.1484 99.6016H100.296L98.9373 99.739L92.1484 99.6016Z" fill="#C7C7C7"/>
<path d="M97.1641 96.4062H102.448L103.394 96.7738L97.1641 96.4062Z" fill="#EBEBEB"/>
<path d="M89.5859 96.4062H94.8694L95.8155 96.7738L89.5859 96.4062Z" fill="#EBEBEB"/>
<path d="M96.3734 101.328H91.0867L90.1406 101.696L96.3734 101.328Z" fill="#EBEBEB"/>
<path d="M102.445 100.078H106.69L107.636 100.446L102.445 100.078Z" fill="#C7C7C7"/>
<path d="M103.93 98.4255H107.222L106.781 98.125L103.93 98.4255Z" fill="#C7C7C7"/>
<path d="M110.168 107.523H106.477V121.494H110.168V107.523Z" fill="#EBEBEB"/>
<path d="M108.32 110.275C108.168 110.276 108.019 110.231 107.892 110.147C107.764 110.062 107.665 109.942 107.606 109.802C107.548 109.661 107.532 109.506 107.561 109.356C107.591 109.207 107.664 109.069 107.771 108.961C107.879 108.853 108.016 108.779 108.166 108.749C108.315 108.719 108.47 108.734 108.611 108.793C108.752 108.851 108.873 108.95 108.957 109.076C109.042 109.203 109.087 109.352 109.087 109.505C109.087 109.708 109.007 109.904 108.863 110.048C108.719 110.193 108.524 110.274 108.32 110.275Z" fill="white"/>
<path d="M108.319 109.945C108.232 109.945 108.146 109.92 108.073 109.872C108 109.824 107.943 109.755 107.91 109.675C107.876 109.594 107.866 109.505 107.883 109.419C107.9 109.334 107.942 109.255 108.003 109.193C108.065 109.131 108.143 109.088 108.229 109.071C108.315 109.054 108.403 109.062 108.484 109.096C108.565 109.129 108.634 109.186 108.683 109.258C108.731 109.331 108.757 109.416 108.757 109.504C108.757 109.62 108.711 109.732 108.629 109.814C108.547 109.897 108.436 109.944 108.319 109.945Z" fill="#A6A6A6"/>
<path d="M110.164 119.288V115.891H106.472V119.288H110.164Z" fill="white"/>
<path d="M101.963 118.602H87.9922V121.507H101.963V118.602Z" fill="#C7C7C7"/>
<path d="M99.2031 120.063C99.2025 119.91 99.2472 119.761 99.3316 119.633C99.416 119.506 99.5363 119.407 99.6772 119.348C99.8181 119.29 99.9732 119.274 100.123 119.304C100.273 119.333 100.41 119.407 100.518 119.515C100.626 119.623 100.699 119.76 100.729 119.91C100.759 120.06 100.743 120.215 100.684 120.356C100.626 120.497 100.527 120.617 100.399 120.701C100.272 120.786 100.123 120.83 99.9702 120.83C99.7668 120.83 99.5717 120.749 99.4278 120.605C99.284 120.461 99.2031 120.266 99.2031 120.063Z" fill="white"/>
<path d="M99.5313 120.061C99.5306 119.974 99.556 119.888 99.6043 119.815C99.6525 119.742 99.7213 119.685 99.8021 119.651C99.8828 119.618 99.9718 119.609 100.058 119.626C100.143 119.642 100.222 119.684 100.284 119.746C100.346 119.808 100.388 119.887 100.405 119.973C100.422 120.059 100.413 120.148 100.379 120.229C100.345 120.309 100.288 120.378 100.215 120.426C100.142 120.475 100.057 120.5 99.9691 120.499C99.9116 120.499 99.8547 120.488 99.8016 120.466C99.7485 120.444 99.7002 120.412 99.6595 120.371C99.6189 120.33 99.5866 120.282 99.5646 120.229C99.5426 120.176 99.5313 120.119 99.5313 120.061Z" fill="#A6A6A6"/>
<path d="M90.1961 121.508H93.5938V118.602H90.1961V121.508Z" fill="white"/>
<path d="M0 139.711C41.1968 139.513 87.4149 139.513 128.612 139.711C87.4149 139.909 41.1968 139.909 0 139.711Z" fill="#263238"/>
<path d="M113.045 90.3665V85.8821H64.3047V76.8686H113.045V72.3906L128.611 81.3753L113.045 90.3665Z" fill="#FF725E"/>
<g opacity="0.4">
<path d="M113.045 90.3665V85.8821H64.3047V76.8686H113.045V72.3906L128.611 81.3753L113.045 90.3665Z" fill="black"/>
</g>
<path d="M64.3055 85.8864C54.5396 85.8815 45.0978 82.382 37.6878 76.0209C30.2777 69.6597 25.3886 60.8569 23.9047 51.2044C22.4207 41.5519 24.4399 31.687 29.597 23.3938C34.7541 15.1006 42.7087 8.92669 52.0221 5.98853C61.3355 3.05038 71.3929 3.54202 80.3754 7.37454C89.3579 11.2071 96.6723 18.1274 100.996 26.8841C105.32 35.6407 106.367 45.6555 103.949 55.1172C101.53 64.579 95.806 72.863 87.8109 78.471C80.93 83.3118 72.7185 85.9023 64.3055 85.8864ZM64.3055 13.136C57.0565 13.1366 50.0244 15.6086 44.3697 20.1441C38.7149 24.6796 34.7755 31.0075 33.2015 38.0835C31.6275 45.1595 32.513 52.5607 35.712 59.0656C38.9109 65.5705 44.232 70.7904 50.7972 73.8638C57.3623 76.9372 64.7791 77.6804 71.8236 75.9708C78.868 74.2612 85.1191 70.2009 89.5452 64.4601C93.9712 58.7193 96.3077 51.641 96.1691 44.3934C96.0304 37.1458 93.4249 30.162 88.7825 24.5947C85.7882 21.0116 82.0447 18.1286 77.8157 16.1489C73.5866 14.1691 68.975 13.1407 64.3055 13.136Z" fill="#FF725E"/>
<path opacity="0.4" d="M64.3055 85.8864C54.5396 85.8815 45.0978 82.382 37.6878 76.0209C30.2777 69.6597 25.3886 60.8569 23.9047 51.2044C22.4207 41.5519 24.4399 31.687 29.597 23.3938C34.7541 15.1006 42.7087 8.92669 52.0221 5.98853C61.3355 3.05038 71.3929 3.54202 80.3754 7.37454C89.3579 11.2071 96.6723 18.1274 100.996 26.8841C105.32 35.6407 106.367 45.6555 103.949 55.1172C101.53 64.579 95.806 72.863 87.8109 78.471C80.93 83.3118 72.7185 85.9023 64.3055 85.8864ZM64.3055 13.136C57.0565 13.1366 50.0244 15.6086 44.3697 20.1441C38.7149 24.6796 34.7755 31.0075 33.2015 38.0835C31.6275 45.1595 32.513 52.5607 35.712 59.0656C38.9109 65.5705 44.232 70.7904 50.7972 73.8638C57.3623 76.9372 64.7791 77.6804 71.8236 75.9708C78.868 74.2612 85.1191 70.2009 89.5452 64.4601C93.9712 58.7193 96.3077 51.641 96.1691 44.3934C96.0304 37.1458 93.4249 30.162 88.7825 24.5947C85.7882 21.0116 82.0447 18.1286 77.8157 16.1489C73.5866 14.1691 68.975 13.1407 64.3055 13.136Z" fill="black"/>
<path d="M105.188 45.0037C105.189 50.3727 104.132 55.6892 102.078 60.6496C100.024 65.61 97.0121 70.1171 93.2155 73.9134C89.4189 77.7097 84.9115 80.7209 79.951 82.7748C74.9904 84.8287 69.6737 85.8853 64.3048 85.884V76.8705C70.0149 76.8646 75.6184 75.3239 80.5288 72.4097C85.4393 69.4955 89.4761 65.3149 92.2168 60.3056C94.9575 55.2962 96.3013 49.6422 96.1075 43.9354C95.9137 38.2286 94.1895 32.6788 91.1153 27.8669C88.0411 23.055 83.73 19.1579 78.6331 16.5835C73.5363 14.0091 67.8411 12.8521 62.1438 13.2336C56.4465 13.615 50.9564 15.5209 46.2482 18.7518C41.5401 21.9827 37.787 26.4197 35.3817 31.5985L39.4857 33.104L25.6906 44.6105L22.6094 26.9032L26.9084 28.4853C30.6898 19.8944 37.3119 12.8661 45.6629 8.58059C54.0138 4.29511 63.585 3.01341 72.7693 4.95073C81.9535 6.88804 90.1915 11.9264 96.1001 19.2197C102.009 26.5131 105.228 35.6173 105.217 45.0037H105.188Z" fill="#FF725E"/>
<g opacity="0.3">
<path d="M105.188 45.0037C105.189 50.3727 104.132 55.6892 102.078 60.6496C100.024 65.61 97.0121 70.1171 93.2155 73.9134C89.4189 77.7097 84.9115 80.7209 79.951 82.7748C74.9904 84.8287 69.6737 85.8853 64.3048 85.884V76.8705C70.0149 76.8646 75.6184 75.3239 80.5288 72.4097C85.4393 69.4955 89.4761 65.3149 92.2168 60.3056C94.9575 55.2962 96.3013 49.6422 96.1075 43.9354C95.9137 38.2286 94.1895 32.6788 91.1153 27.8669C88.0411 23.055 83.73 19.1579 78.6331 16.5835C73.5363 14.0091 67.8411 12.8521 62.1438 13.2336C56.4465 13.615 50.9564 15.5209 46.2482 18.7518C41.5401 21.9827 37.787 26.4197 35.3817 31.5985L39.4857 33.104L25.6906 44.6105L22.6094 26.9032L26.9084 28.4853C30.6898 19.8944 37.3119 12.8661 45.6629 8.58059C54.0138 4.29511 63.585 3.01341 72.7693 4.95073C81.9535 6.88804 90.1915 11.9264 96.1001 19.2197C102.009 26.5131 105.228 35.6173 105.217 45.0037H105.188Z" fill="black"/>
</g>
<path d="M105.187 45.0035C105.188 50.3725 104.131 55.6891 102.077 60.6495C100.023 65.6099 97.0111 70.117 93.2145 73.9133C89.4179 77.7096 84.9106 80.7207 79.95 82.7747C74.9894 84.8286 69.6728 85.8851 64.3038 85.8839V76.8704C68.5157 76.9126 72.6941 76.1194 76.5976 74.5368C80.501 72.9542 84.0521 70.6135 87.0453 67.65C90.0386 64.6866 92.4147 61.1592 94.0364 57.2717C95.658 53.3843 96.493 49.214 96.493 45.0019C96.493 40.7898 95.658 36.6195 94.0364 32.7321C92.4147 28.8447 90.0386 25.3173 87.0453 22.3538C84.0521 19.3904 80.501 17.0497 76.5976 15.4671C72.6941 13.8845 68.5157 13.0913 64.3038 13.1335C63.0223 13.1333 61.7418 13.2048 60.4682 13.3476L61.3216 17.6306L44.3047 11.855L57.8153 0L58.7071 4.47478C60.563 4.23503 62.4325 4.11652 64.3038 4.12C69.6729 4.11916 74.9896 5.17607 79.9502 7.23036C84.9108 9.28465 89.4181 12.2961 93.2147 16.0926C97.0112 19.8892 100.023 24.3965 102.077 29.3571C104.131 34.3177 105.188 39.6344 105.187 45.0035Z" fill="#FF725E"/>
<g opacity="0.2">
<path d="M105.187 45.0035C105.188 50.3725 104.131 55.6891 102.077 60.6495C100.023 65.6099 97.0111 70.117 93.2145 73.9133C89.4179 77.7096 84.9106 80.7207 79.95 82.7747C74.9894 84.8286 69.6728 85.8851 64.3038 85.8839V76.8704C68.5157 76.9126 72.6941 76.1194 76.5976 74.5368C80.501 72.9542 84.0521 70.6135 87.0453 67.65C90.0386 64.6866 92.4147 61.1592 94.0364 57.2717C95.658 53.3843 96.493 49.214 96.493 45.0019C96.493 40.7898 95.658 36.6195 94.0364 32.7321C92.4147 28.8447 90.0386 25.3173 87.0453 22.3538C84.0521 19.3904 80.501 17.0497 76.5976 15.4671C72.6941 13.8845 68.5157 13.0913 64.3038 13.1335C63.0223 13.1333 61.7418 13.2048 60.4682 13.3476L61.3216 17.6306L44.3047 11.855L57.8153 0L58.7071 4.47478C60.563 4.23503 62.4325 4.11652 64.3038 4.12C69.6729 4.11916 74.9896 5.17607 79.9502 7.23036C84.9108 9.28465 89.4181 12.2961 93.2147 16.0926C97.0112 19.8892 100.023 24.3965 102.077 29.3571C104.131 34.3177 105.188 39.6344 105.187 45.0035Z" fill="black"/>
</g>
<path d="M105.188 45.0065C105.189 50.3755 104.132 55.6921 102.078 60.6525C100.023 65.6129 97.012 70.12 93.2154 73.9163C89.4188 77.7126 84.9115 80.7237 79.9509 82.7776C74.9903 84.8316 69.6737 85.8881 64.3047 85.8868V76.8734C70.1384 76.8739 75.8604 75.273 80.8467 72.245C85.8331 69.217 89.8924 64.8782 92.5823 59.7016C95.2721 54.525 96.4892 48.7093 96.1009 42.8885C95.7125 37.0677 93.7336 31.4652 90.3799 26.6919L87.027 29.4918L83.949 11.7812L100.825 17.9692L97.3094 20.9002C102.423 27.8982 105.182 36.3394 105.188 45.0065Z" fill="#FF725E"/>
<g opacity="0.1">
<path d="M105.188 45.0065C105.189 50.3755 104.132 55.6921 102.078 60.6525C100.023 65.6129 97.012 70.12 93.2154 73.9163C89.4188 77.7126 84.9115 80.7237 79.9509 82.7776C74.9903 84.8316 69.6737 85.8881 64.3047 85.8868V76.8734C70.1384 76.8739 75.8604 75.273 80.8467 72.245C85.8331 69.217 89.8924 64.8782 92.5823 59.7016C95.2721 54.525 96.4892 48.7093 96.1009 42.8885C95.7125 37.0677 93.7336 31.4652 90.3799 26.6919L87.027 29.4918L83.949 11.7812L100.825 17.9692L97.3094 20.9002C102.423 27.8982 105.182 36.3394 105.188 45.0065Z" fill="black"/>
</g>
<path d="M105.825 63.4861L101.555 61.872C98.3111 69.0314 93.0723 75.1041 86.466 79.363C79.8597 83.6219 72.1659 85.8865 64.3058 85.8856H0V76.8721H64.3058C70.3343 76.873 76.2395 75.1645 81.3362 71.9449C86.4329 68.7253 90.5123 64.1265 93.1011 58.6821L89.0098 57.1383L102.917 45.75L105.825 63.4861Z" fill="#FF725E"/>
<g opacity="0.4">
<path d="M32.0478 59.5675C32.0642 59.551 32.0836 59.538 32.105 59.5291C32.1264 59.5202 32.1493 59.5156 32.1725 59.5156C32.1957 59.5156 32.2186 59.5202 32.24 59.5291C32.2614 59.538 32.2808 59.551 32.2971 59.5675C32.3139 59.5849 32.3269 59.6056 32.3355 59.6282C32.3545 59.6679 32.3612 59.7125 32.3547 59.756C32.35 59.8076 32.3299 59.8566 32.2971 59.8967C32.2095 59.9951 32.1 60.0717 31.9775 60.1204C31.9336 60.1409 31.896 60.173 31.8688 60.2131C31.845 60.252 31.8297 60.2956 31.8241 60.341C31.8149 60.4046 31.8149 60.4691 31.8241 60.5327L31.9839 60.8747L32.6232 60.5807C32.664 60.5692 32.7075 60.5725 32.7461 60.5901C32.7847 60.6077 32.8158 60.6384 32.8338 60.6768C32.8518 60.7152 32.8557 60.7587 32.8446 60.7996C32.8335 60.8406 32.8083 60.8762 32.7734 60.9003L31.0666 61.6994C31.0457 61.7095 31.0229 61.7153 30.9997 61.7164C30.9765 61.7175 30.9533 61.7139 30.9315 61.7059C30.9098 61.6978 30.8898 61.6855 30.8729 61.6695C30.856 61.6536 30.8425 61.6344 30.8332 61.6131L30.5903 61.0985C30.5123 60.9352 30.5021 60.7477 30.562 60.577C30.6219 60.4063 30.747 60.2662 30.91 60.1875C31.0002 60.1442 31.0991 60.1217 31.1992 60.1217C31.2994 60.1217 31.3982 60.1442 31.4885 60.1875C31.5017 60.1339 31.5222 60.0823 31.5492 60.0341C31.6121 59.9287 31.7058 59.845 31.8177 59.7944C31.8754 59.7698 31.9301 59.7387 31.9807 59.7017C31.9811 59.6757 31.9873 59.6502 31.9989 59.6269C32.0105 59.6037 32.0273 59.5833 32.0478 59.5675ZM31.0889 60.5263C31.0485 60.5432 31.0119 60.5682 30.9816 60.5998C30.9512 60.6313 30.9276 60.6688 30.9123 60.7099C30.897 60.7509 30.8904 60.7947 30.8927 60.8385C30.895 60.8822 30.9064 60.925 30.9259 60.9642L31.0953 61.3222L31.6898 61.0409L31.5236 60.6862C31.5076 60.6439 31.4827 60.6055 31.4507 60.5735C31.4187 60.5416 31.3803 60.5168 31.338 60.5008C31.2957 60.4848 31.2505 60.4779 31.2054 60.4807C31.1602 60.4834 31.1162 60.4957 31.0762 60.5168L31.0889 60.5263Z" fill="black"/>
<path d="M31.9378 59.08L30.1927 59.7864C30.1713 59.7958 30.1483 59.8007 30.125 59.8009C30.1017 59.8011 30.0786 59.7966 30.0571 59.7876C30.0356 59.7786 30.0162 59.7654 29.9999 59.7487C29.9837 59.7321 29.9709 59.7123 29.9625 59.6905L29.5758 58.7317C29.567 58.7105 29.5624 58.6878 29.5625 58.6648C29.5626 58.6419 29.5672 58.6192 29.5761 58.5981C29.585 58.5769 29.5981 58.5578 29.6145 58.5418C29.6309 58.5257 29.6503 58.5131 29.6717 58.5047C29.7145 58.4866 29.7628 58.4862 29.8059 58.5035C29.849 58.5209 29.8835 58.5547 29.9018 58.5974L30.2214 59.3997L30.7648 59.1823L30.4835 58.4919C30.4778 58.4527 30.4852 58.4126 30.5047 58.378C30.5243 58.3434 30.5547 58.3163 30.5913 58.3009C30.6279 58.2856 30.6686 58.2828 30.7069 58.2931C30.7453 58.3033 30.7791 58.3261 30.8032 58.3577L31.0812 59.0481L31.6278 58.8275L31.3082 58.0253C31.3024 57.986 31.3099 57.9459 31.3294 57.9113C31.3489 57.8768 31.3794 57.8497 31.416 57.8343C31.4526 57.8189 31.4932 57.8161 31.5316 57.8264C31.5699 57.8367 31.6038 57.8594 31.6278 57.891L32.0177 58.8499C32.0359 58.8913 32.0378 58.938 32.023 58.9807C32.0082 59.0234 31.9777 59.0589 31.9378 59.08Z" fill="black"/>
<path d="M28.7401 55.7285C28.6956 55.7414 28.6478 55.7363 28.6071 55.7141C28.5664 55.692 28.5361 55.6546 28.5228 55.6103C28.5097 55.5649 28.5147 55.5163 28.5367 55.4745C28.5588 55.4328 28.5962 55.4012 28.6411 55.3865L30.4502 54.8591C30.4726 54.8523 30.4962 54.8501 30.5195 54.8525C30.5429 54.855 30.5655 54.8621 30.586 54.8734C30.6066 54.8847 30.6247 54.9 30.6392 54.9184C30.6537 54.9368 30.6645 54.958 30.6707 54.9806C30.6775 55.0026 30.6799 55.0258 30.6776 55.0488C30.6753 55.0717 30.6685 55.094 30.6575 55.1143C30.6464 55.1345 30.6315 55.1524 30.6134 55.1667C30.5954 55.1811 30.5746 55.1917 30.5524 55.198L28.7401 55.7285Z" fill="black"/>
<path d="M30.2873 54.2873L28.4559 54.7443C28.4334 54.7505 28.4099 54.7521 28.3868 54.749C28.3637 54.7459 28.3415 54.7381 28.3215 54.7261C28.3015 54.7142 28.2841 54.6983 28.2704 54.6795C28.2567 54.6606 28.2469 54.6392 28.2417 54.6165L27.9892 53.6129C27.9785 53.5675 27.9858 53.5198 28.0097 53.4798C28.0336 53.4399 28.0721 53.4108 28.117 53.3987C28.1628 53.3879 28.2109 53.3951 28.2514 53.4189C28.2919 53.4428 28.3216 53.4813 28.3344 53.5266L28.5453 54.3672L29.1111 54.2265L28.9321 53.5042C28.9214 53.4589 28.9287 53.4112 28.9526 53.3712C28.9765 53.3312 29.015 53.3021 29.0599 53.29C29.0824 53.2843 29.1058 53.283 29.1287 53.2864C29.1517 53.2897 29.1737 53.2975 29.1936 53.3094C29.2135 53.3213 29.2309 53.337 29.2447 53.3556C29.2585 53.3742 29.2685 53.3954 29.2741 53.4179L29.4563 54.1402L30.0252 53.9964L29.8175 53.1558C29.8077 53.1101 29.8158 53.0624 29.8402 53.0225C29.8646 52.9827 29.9034 52.9537 29.9485 52.9416C29.9934 52.9318 30.0403 52.9396 30.0795 52.9634C30.1188 52.9872 30.1474 53.0252 30.1595 53.0695L30.412 54.0763C30.4177 54.0984 30.4191 54.1213 30.4159 54.1439C30.4127 54.1664 30.4052 54.1881 30.3936 54.2077C30.382 54.2274 30.3666 54.2445 30.3484 54.2581C30.3302 54.2718 30.3094 54.2817 30.2873 54.2873Z" fill="black"/>
<path d="M34.9172 25.3709L33.3862 24.2682C33.3671 24.2548 33.351 24.2378 33.3386 24.218C33.3263 24.1983 33.3181 24.1763 33.3146 24.1533C33.311 24.1303 33.3121 24.1068 33.3178 24.0843C33.3235 24.0617 33.3337 24.0405 33.3478 24.022L33.5684 23.7024C33.7435 23.4663 34.0045 23.3085 34.295 23.2633C34.5855 23.2181 34.8822 23.2891 35.1207 23.4609C35.3593 23.6327 35.5207 23.8915 35.5699 24.1813C35.6192 24.4712 35.5523 24.7687 35.3839 25.0097L35.1633 25.3293C35.1503 25.3486 35.1334 25.3651 35.1138 25.3777C35.0941 25.3903 35.0722 25.3988 35.0492 25.4027C35.0262 25.4066 35.0026 25.4058 34.9799 25.4003C34.9572 25.3948 34.9359 25.3848 34.9172 25.3709ZM34.9811 24.9777L35.0962 24.8179C35.2149 24.6535 35.2634 24.4486 35.231 24.2484C35.1986 24.0482 35.0881 23.869 34.9236 23.7504C34.7592 23.6317 34.5543 23.5832 34.3541 23.6156C34.1539 23.6479 33.9747 23.7585 33.8561 23.923L33.741 24.086L34.9811 24.9777Z" fill="black"/>
<path d="M36.1757 23.6457L34.6926 22.479C34.6743 22.465 34.6589 22.4474 34.6475 22.4273C34.6361 22.4072 34.6288 22.385 34.6262 22.3621C34.6235 22.3391 34.6254 22.3159 34.6319 22.2937C34.6384 22.2715 34.6493 22.2508 34.6639 22.2329L35.3031 21.4179C35.332 21.3815 35.3741 21.3581 35.4202 21.3528C35.4663 21.3474 35.5127 21.3604 35.5492 21.3891C35.5856 21.4186 35.6091 21.4609 35.6151 21.5074C35.621 21.5538 35.6089 21.6007 35.5812 21.6384L35.0474 22.3192L35.5045 22.6804L35.9647 22.0955C35.9777 22.0738 35.9952 22.0551 36.0159 22.0406C36.0367 22.0261 36.0602 22.0162 36.0851 22.0115C36.1099 22.0068 36.1355 22.0074 36.1601 22.0133C36.1847 22.0192 36.2078 22.0303 36.2278 22.0457C36.2478 22.0612 36.2643 22.0807 36.2762 22.1031C36.2881 22.1254 36.2952 22.15 36.2969 22.1752C36.2986 22.2004 36.295 22.2257 36.2862 22.2495C36.2774 22.2732 36.2637 22.2948 36.246 22.3128L35.7858 22.8977L36.246 23.2621L36.783 22.5813C36.8125 22.5448 36.8551 22.5213 36.9018 22.5159C36.9484 22.5105 36.9953 22.5237 37.0323 22.5525C37.0675 22.5829 37.09 22.6254 37.0953 22.6716C37.1006 22.7178 37.0884 22.7643 37.0611 22.8019L36.4218 23.6137C36.3934 23.6505 36.3515 23.6745 36.3054 23.6805C36.2592 23.6865 36.2126 23.674 36.1757 23.6457Z" fill="black"/>
<path d="M37.3038 21.1645L37.045 21.4618L37.5659 21.9188C37.5834 21.9342 37.5976 21.9528 37.6078 21.9736C37.6181 21.9944 37.6241 22.017 37.6256 22.0402C37.6271 22.0633 37.624 22.0866 37.6165 22.1085C37.609 22.1305 37.5972 22.1507 37.5819 22.1682C37.5666 22.1856 37.548 22.1998 37.5272 22.21C37.5064 22.2203 37.4837 22.2263 37.4606 22.2278C37.4374 22.2293 37.4142 22.2262 37.3923 22.2187C37.3703 22.2112 37.35 22.1995 37.3326 22.1841L35.9135 20.9408C35.8958 20.926 35.8813 20.9079 35.8708 20.8875C35.8602 20.867 35.8539 20.8447 35.8521 20.8218C35.8503 20.7988 35.8531 20.7758 35.8604 20.754C35.8676 20.7321 35.8791 20.712 35.8943 20.6947L36.2683 20.2664C36.3272 20.1986 36.399 20.1431 36.4794 20.103C36.5598 20.063 36.6474 20.0391 36.737 20.0329C36.8266 20.0267 36.9166 20.0381 37.0018 20.0667C37.087 20.0952 37.1657 20.1403 37.2335 20.1993C37.3013 20.2582 37.3568 20.33 37.3969 20.4104C37.4369 20.4908 37.4608 20.5784 37.467 20.668C37.4732 20.7576 37.4618 20.8476 37.4332 20.9328C37.4047 21.018 37.3596 21.0967 37.3007 21.1645H37.3038ZM36.7765 21.2285L37.0354 20.9312C37.0926 20.8655 37.1214 20.7798 37.1154 20.6928C37.1094 20.6059 37.0691 20.525 37.0034 20.4677C36.9377 20.4105 36.852 20.3817 36.765 20.3877C36.6781 20.3937 36.5972 20.434 36.5399 20.4997L36.281 20.7938L36.7765 21.2285Z" fill="black"/>
<path d="M38.5587 20.804L37.2003 19.4967C37.1838 19.4804 37.1708 19.461 37.1619 19.4396C37.153 19.4182 37.1484 19.3952 37.1484 19.3721C37.1484 19.3489 37.153 19.326 37.1619 19.3046C37.1708 19.2832 37.1838 19.2638 37.2003 19.2474C37.2338 19.214 37.2792 19.1953 37.3265 19.1953C37.3738 19.1953 37.4192 19.214 37.4528 19.2474L38.6801 20.43L39.281 19.7908C39.3146 19.7574 39.36 19.7387 39.4073 19.7387C39.4546 19.7387 39.5 19.7574 39.5336 19.7908C39.5658 19.8237 39.5838 19.8678 39.5838 19.9138C39.5838 19.9599 39.5658 20.004 39.5336 20.0369L38.8144 20.7848C38.7996 20.8039 38.7809 20.8197 38.7597 20.8312C38.7384 20.8426 38.7149 20.8495 38.6908 20.8513C38.6667 20.8531 38.6425 20.8498 38.6197 20.8417C38.597 20.8335 38.5762 20.8207 38.5587 20.804Z" fill="black"/>
<path d="M39.7906 17.1048C40.0914 17.1224 40.3734 17.2565 40.5769 17.4788C40.7841 17.6981 40.8986 17.9889 40.8965 18.2907C40.8991 18.4341 40.8721 18.5766 40.8171 18.7092C40.7621 18.8417 40.6803 18.9615 40.5769 19.061C40.4687 19.1601 40.3415 19.2361 40.2031 19.2845C40.0646 19.3328 39.9177 19.3525 39.7714 19.3422C39.4721 19.3189 39.1926 19.1835 38.9888 18.9631C38.7849 18.7426 38.6718 18.4534 38.6719 18.1532C38.6726 18.0063 38.7034 17.8611 38.7622 17.7264C38.821 17.5918 38.9066 17.4705 39.0139 17.3701C39.1183 17.2752 39.2411 17.2026 39.3747 17.157C39.5083 17.1114 39.6498 17.0936 39.7906 17.1048ZM40.3116 17.7441C40.1708 17.592 39.978 17.4984 39.7714 17.482C39.6766 17.4726 39.5808 17.4834 39.4905 17.5137C39.4001 17.544 39.3172 17.5931 39.2472 17.6578C39.1753 17.7235 39.1179 17.8035 39.0789 17.8926C39.0398 17.9818 39.0198 18.0782 39.0203 18.1756C39.0201 18.3833 39.099 18.5832 39.2408 18.7349C39.3793 18.8878 39.5719 18.9807 39.7778 18.9938C39.874 19.0039 39.9713 18.9933 40.0631 18.9627C40.1549 18.9322 40.2391 18.8825 40.3102 18.8169C40.3812 18.7512 40.4375 18.6712 40.4752 18.5821C40.5129 18.4931 40.5312 18.397 40.5289 18.3002C40.5291 18.0941 40.4515 17.8955 40.3116 17.7441Z" fill="black"/>
<path d="M41.6419 15.5813L41.709 16.6904L42.246 17.3584C42.2756 17.3945 42.2898 17.4408 42.2853 17.4873C42.2808 17.5337 42.258 17.5765 42.222 17.6062C42.186 17.6358 42.1396 17.65 42.0932 17.6455C42.0467 17.641 42.0039 17.6182 41.9743 17.5822L41.4245 16.9142L40.3506 16.6329C40.3281 16.6285 40.3069 16.6195 40.2882 16.6064C40.2695 16.5932 40.2537 16.5763 40.242 16.5568C40.2302 16.5372 40.2227 16.5153 40.22 16.4927C40.2172 16.47 40.2192 16.447 40.2259 16.4251C40.2307 16.4026 40.2401 16.3813 40.2535 16.3626C40.2669 16.3438 40.2841 16.3281 40.304 16.3164C40.3238 16.3047 40.3459 16.2972 40.3687 16.2945C40.3916 16.2917 40.4148 16.2938 40.4369 16.3005L41.335 16.5306L41.2807 15.6037C41.283 15.5607 41.301 15.5201 41.3313 15.4896C41.3616 15.459 41.402 15.4406 41.4449 15.4379C41.4879 15.4351 41.5303 15.4482 41.5642 15.4746C41.5982 15.5011 41.6212 15.539 41.6291 15.5813H41.6419Z" fill="black"/>
<path d="M71.4297 8.4725L70.9279 8.3862L70.6435 10.0706C70.6354 10.1168 70.6093 10.1579 70.571 10.1849C70.5326 10.2119 70.4851 10.2225 70.4389 10.2145C70.3927 10.2064 70.3516 10.1803 70.3246 10.142C70.2976 10.1036 70.287 10.0561 70.2951 10.0099L70.5827 8.32867L70.0841 8.24237C70.0612 8.23851 70.0392 8.23014 70.0196 8.21774C69.9999 8.20534 69.9829 8.18915 69.9695 8.17013C69.9561 8.1511 69.9466 8.12961 69.9416 8.10689C69.9366 8.08418 69.9362 8.0607 69.9403 8.03781C69.9437 8.01468 69.9518 7.99249 69.9641 7.97259C69.9764 7.95268 69.9926 7.93549 70.0117 7.92203C70.0309 7.90858 70.0525 7.89916 70.0754 7.89434C70.0983 7.88951 70.1219 7.88939 70.1448 7.89398L71.4905 8.12411C71.5362 8.13194 71.5769 8.15749 71.6038 8.1952C71.6308 8.23291 71.6417 8.27973 71.6343 8.32547C71.6257 8.37161 71.5996 8.41265 71.5615 8.44004C71.5234 8.46743 71.4762 8.47906 71.4297 8.4725Z" fill="black"/>
<path d="M71.8177 10.2977L72.2332 8.4566C72.2381 8.43394 72.2475 8.4125 72.2608 8.39355C72.2742 8.3746 72.2912 8.35853 72.3109 8.3463C72.3306 8.33407 72.3525 8.32593 72.3754 8.32237C72.3983 8.3188 72.4217 8.31989 72.4442 8.32556L73.4542 8.55249C73.4991 8.56387 73.5378 8.59221 73.5623 8.63154C73.5867 8.67088 73.5949 8.71816 73.5853 8.76344C73.5745 8.8091 73.5466 8.84887 73.5073 8.87447C73.468 8.90007 73.4204 8.90953 73.3743 8.90088L72.5305 8.70911L72.3994 9.27804L73.1282 9.44425C73.1728 9.45492 73.2115 9.48262 73.236 9.52144C73.2605 9.56027 73.2688 9.60713 73.2592 9.65201C73.2493 9.69808 73.2215 9.73836 73.182 9.76409C73.1425 9.78982 73.0945 9.79894 73.0483 9.78945L72.3227 9.62324L72.1917 10.1986L73.0355 10.3903C73.081 10.401 73.1205 10.4291 73.1456 10.4685C73.1706 10.5079 73.1793 10.5556 73.1697 10.6013C73.1583 10.6464 73.1301 10.6854 73.0909 10.7103C73.0517 10.7353 73.0044 10.7443 72.9588 10.7355L71.9743 10.5086C71.9492 10.5075 71.9246 10.5008 71.9024 10.489C71.8802 10.4772 71.8609 10.4606 71.8459 10.4404C71.8309 10.4202 71.8206 10.3969 71.8157 10.3722C71.8108 10.3475 71.8115 10.322 71.8177 10.2977Z" fill="black"/>
<path d="M73.6811 10.3447C73.7177 10.3198 73.7626 10.3102 73.8062 10.3179C73.8498 10.3257 73.8887 10.3502 73.9144 10.3863C74.0374 10.5744 74.2196 10.7161 74.4322 10.789C74.5673 10.8325 74.7126 10.8325 74.8477 10.789C74.8928 10.7772 74.9342 10.7543 74.9682 10.7225C75.0022 10.6907 75.0278 10.651 75.0427 10.6068C75.0537 10.5725 75.0537 10.5357 75.0427 10.5014C75.0305 10.4561 75.0074 10.4144 74.9756 10.3799C74.8661 10.2697 74.7372 10.1808 74.5952 10.1178C74.4655 10.0555 74.3441 9.97715 74.234 9.88448C74.133 9.80045 74.0577 9.68968 74.0167 9.56485C73.9912 9.47609 73.9912 9.38194 74.0167 9.29317C74.0453 9.20515 74.094 9.12497 74.1589 9.05896C74.2238 8.99296 74.3031 8.94293 74.3907 8.91282C74.5787 8.85198 74.7811 8.85198 74.9692 8.91282C75.2089 8.99357 75.4184 9.14515 75.5701 9.34751C75.5975 9.38139 75.6109 9.42456 75.6073 9.46802C75.6037 9.51148 75.5835 9.55189 75.5509 9.58084C75.5347 9.59541 75.5157 9.60657 75.4951 9.61367C75.4745 9.62077 75.4526 9.62366 75.4309 9.62217C75.4091 9.62068 75.3879 9.61484 75.3684 9.605C75.349 9.59515 75.3317 9.5815 75.3176 9.56485C75.2103 9.40922 75.0573 9.29082 74.8797 9.22605C74.7583 9.1856 74.6271 9.1856 74.5057 9.22605C74.4663 9.23693 74.43 9.25712 74.4 9.28493C74.3699 9.31274 74.347 9.34736 74.3331 9.38586C74.3253 9.41626 74.3253 9.44816 74.3331 9.47856C74.3468 9.51615 74.3674 9.55084 74.3939 9.58084C74.4919 9.68443 74.6091 9.76801 74.7391 9.82695C74.8785 9.89374 75.0085 9.97864 75.1258 10.0795C75.2358 10.1684 75.3179 10.2872 75.3623 10.4215C75.3895 10.5132 75.3895 10.6109 75.3623 10.7027C75.3336 10.797 75.2821 10.8827 75.2124 10.9524C75.1428 11.0221 75.057 11.0735 74.9628 11.1023C74.7628 11.1702 74.5459 11.1702 74.3459 11.1023C74.0606 11.0072 73.8146 10.8207 73.6459 10.5717C73.6222 10.5364 73.6127 10.4934 73.6192 10.4513C73.6257 10.4093 73.6478 10.3712 73.6811 10.3447Z" fill="black"/>
<path d="M77.4757 10.1459L76.9962 9.9797L76.4369 11.5778C76.4346 11.6047 76.4262 11.6307 76.4123 11.6537C76.3983 11.6768 76.3793 11.6964 76.3566 11.7109C76.3339 11.7255 76.3082 11.7346 76.2814 11.7376C76.2547 11.7406 76.2275 11.7375 76.2022 11.7283C76.1768 11.7192 76.1539 11.7044 76.1352 11.685C76.1165 11.6656 76.1025 11.6422 76.0943 11.6165C76.0861 11.5908 76.0839 11.5636 76.0879 11.537C76.0919 11.5103 76.1019 11.4849 76.1173 11.4628L76.6766 9.86464L76.2004 9.69843C76.1616 9.67903 76.1312 9.64624 76.1148 9.60612C76.0984 9.56601 76.0971 9.52131 76.1112 9.48031C76.1252 9.43932 76.1537 9.40482 76.1912 9.38321C76.2288 9.3616 76.2729 9.35436 76.3154 9.36282L77.5939 9.8135C77.616 9.82061 77.6364 9.83218 77.6538 9.84749C77.6712 9.8628 77.6853 9.88152 77.6952 9.90249C77.7051 9.92347 77.7106 9.94625 77.7113 9.96943C77.712 9.9926 77.708 10.0157 77.6994 10.0372C77.6919 10.0591 77.6801 10.0792 77.6648 10.0965C77.6494 10.1138 77.6309 10.1278 77.6101 10.1379C77.5893 10.148 77.5667 10.1539 77.5437 10.1553C77.5206 10.1567 77.4975 10.1535 77.4757 10.1459Z" fill="black"/>
<path d="M95.9956 29.0049L97.712 28.2282C97.7329 28.218 97.7556 28.2123 97.7788 28.2111C97.802 28.21 97.8252 28.2136 97.847 28.2217C97.8688 28.2297 97.8887 28.2421 97.9056 28.258C97.9225 28.274 97.936 28.2932 97.9453 28.3145L98.1019 28.6597C98.2222 28.9298 98.2307 29.2366 98.1255 29.513C98.0202 29.7894 97.8098 30.0128 97.5403 30.1345C97.2707 30.2562 96.964 30.2662 96.6871 30.1623C96.4102 30.0584 96.1857 29.8491 96.0627 29.5802L95.9061 29.235C95.8966 29.214 95.8913 29.1914 95.8907 29.1684C95.8901 29.1454 95.894 29.1225 95.9024 29.1011C95.9107 29.0796 95.9232 29.0601 95.9392 29.0436C95.9553 29.027 95.9744 29.0139 95.9956 29.0049ZM96.3152 29.2542L96.3983 29.4332C96.4403 29.5247 96.4998 29.607 96.5736 29.6755C96.6474 29.7439 96.734 29.7972 96.8284 29.8322C96.9228 29.8673 97.0231 29.8834 97.1237 29.8796C97.2243 29.8758 97.3232 29.8523 97.4147 29.8103C97.5062 29.7683 97.5885 29.7088 97.657 29.635C97.7255 29.5612 97.7788 29.4746 97.8138 29.3802C97.8488 29.2858 97.8649 29.1855 97.8611 29.0849C97.8574 28.9843 97.8338 28.8854 97.7919 28.7939L97.7088 28.6149L96.3152 29.2542Z" fill="black"/>
<path d="M96.8519 30.9392L98.6098 30.2552C98.6314 30.2464 98.6546 30.242 98.6779 30.2422C98.7012 30.2424 98.7242 30.2473 98.7456 30.2565C98.7671 30.2657 98.7864 30.2791 98.8026 30.2959C98.8188 30.3127 98.8315 30.3325 98.84 30.3543L99.2171 31.3131C99.2329 31.3568 99.231 31.4049 99.2119 31.4473C99.1928 31.4896 99.158 31.5229 99.1148 31.5401C99.0934 31.549 99.0705 31.5535 99.0473 31.5535C99.0242 31.5535 99.0012 31.5489 98.9798 31.54C98.9584 31.5311 98.939 31.518 98.9227 31.5016C98.9064 31.4851 98.8935 31.4656 98.8847 31.4442L98.5651 30.6355L98.0185 30.8465L98.2902 31.5433C98.3059 31.587 98.3041 31.6351 98.285 31.6774C98.2659 31.7198 98.2311 31.753 98.1879 31.7702C98.1442 31.7871 98.0956 31.7862 98.0526 31.7676C98.0096 31.7491 97.9756 31.7145 97.9578 31.6711L97.6893 30.9775L97.1395 31.1885L97.4592 31.9971C97.4736 32.0189 97.483 32.0436 97.4867 32.0695C97.4903 32.0953 97.4882 32.1217 97.4804 32.1466C97.4727 32.1716 97.4594 32.1944 97.4417 32.2136C97.4239 32.2328 97.4022 32.2478 97.3779 32.2575C97.3537 32.2672 97.3276 32.2713 97.3015 32.2697C97.2754 32.268 97.2501 32.2606 97.2272 32.2479C97.2044 32.2352 97.1847 32.2176 97.1695 32.1963C97.1544 32.1751 97.1441 32.1507 97.1395 32.125L96.7624 31.1661C96.7458 31.124 96.7459 31.0771 96.7625 31.035C96.7791 30.9929 96.811 30.9587 96.8519 30.9392Z" fill="black"/>
<path d="M97.6184 33.442C97.6184 33.442 97.6184 33.426 97.6184 33.4132C97.6168 33.4059 97.6168 33.3982 97.6184 33.3909L97.6376 33.3653L99.1718 32.0452C99.2076 32.0213 99.2509 32.0114 99.2935 32.0173C99.3361 32.0232 99.3751 32.0445 99.403 32.0771C99.431 32.1098 99.446 32.1516 99.4452 32.1946C99.4444 32.2377 99.4279 32.2789 99.3988 32.3105L98.1842 33.3621L99.7823 33.4995C99.8289 33.5034 99.8721 33.5255 99.9024 33.5612C99.9327 33.5969 99.9475 33.6431 99.9437 33.6897C99.9399 33.7363 99.9177 33.7795 99.8821 33.8098C99.8464 33.8401 99.8002 33.8549 99.7535 33.8511L97.7335 33.6753C97.7335 33.6753 97.7111 33.6753 97.7047 33.6753C97.7047 33.6753 97.7047 33.6753 97.6792 33.6753H97.6568C97.6568 33.6753 97.6376 33.6753 97.6344 33.6562C97.6355 33.6487 97.6355 33.6412 97.6344 33.6338C97.6332 33.6242 97.6332 33.6146 97.6344 33.605C97.6326 33.5944 97.6326 33.5836 97.6344 33.5731C97.636 33.5635 97.636 33.5538 97.6344 33.5443C97.6334 33.5337 97.6334 33.523 97.6344 33.5123L97.6184 33.442Z" fill="black"/>
<path d="M98.2044 34.8709L100.029 34.3883C100.052 34.3825 100.075 34.3813 100.098 34.3846C100.121 34.388 100.143 34.3958 100.163 34.4077C100.183 34.4195 100.2 34.4352 100.214 34.4539C100.228 34.4725 100.238 34.4937 100.244 34.5161L100.506 35.5166C100.517 35.5615 100.511 35.6092 100.488 35.6494C100.464 35.6895 100.426 35.7187 100.381 35.7307C100.336 35.7425 100.288 35.7361 100.247 35.7128C100.206 35.6895 100.176 35.6512 100.164 35.6061L99.9432 34.7687L99.3774 34.9189L99.566 35.638C99.5719 35.6605 99.5733 35.6839 99.5701 35.7069C99.5669 35.7299 99.5593 35.752 99.5476 35.7721C99.5358 35.7921 99.5203 35.8096 99.5018 35.8236C99.4833 35.8377 99.4622 35.8479 99.4397 35.8538C99.4173 35.8597 99.3939 35.8611 99.3709 35.8579C99.3479 35.8547 99.3257 35.8471 99.3057 35.8353C99.2857 35.8236 99.2682 35.8081 99.2541 35.7896C99.2401 35.7711 99.2299 35.75 99.224 35.7275L99.0322 35.0084L98.4633 35.1586L98.6838 35.996C98.6957 36.0414 98.6891 36.0896 98.6654 36.13C98.6417 36.1705 98.6029 36.1999 98.5576 36.2118C98.5122 36.2236 98.464 36.217 98.4236 36.1933C98.3831 36.1697 98.3537 36.1309 98.3418 36.0855L98.0765 35.0851C98.0703 35.0626 98.0687 35.0391 98.0719 35.016C98.075 34.9929 98.0828 34.9707 98.0947 34.9507C98.1067 34.9307 98.1225 34.9133 98.1414 34.8996C98.1602 34.8859 98.1817 34.8761 98.2044 34.8709Z" fill="black"/>
<path d="M98.6644 36.7035L100.509 36.3167C100.531 36.3116 100.555 36.3111 100.578 36.3153C100.601 36.3195 100.622 36.3283 100.642 36.3411C100.661 36.354 100.678 36.3706 100.691 36.39C100.703 36.4095 100.712 36.4313 100.716 36.4542C100.726 36.4999 100.717 36.5476 100.692 36.587C100.667 36.6264 100.628 36.6544 100.582 36.6651L98.9137 37.0135L99.0895 37.8605C99.0943 37.8832 99.0946 37.9066 99.0904 37.9294C99.0862 37.9522 99.0776 37.9739 99.0649 37.9933C99.0523 38.0128 99.036 38.0295 99.0169 38.0427C98.9978 38.0558 98.9763 38.0651 98.9537 38.0699C98.931 38.0747 98.9076 38.075 98.8848 38.0708C98.862 38.0666 98.8403 38.0579 98.8208 38.0453C98.8014 38.0327 98.7846 38.0164 98.7715 37.9973C98.7584 37.9782 98.7491 37.9567 98.7443 37.934L98.5302 36.9208C98.5235 36.8977 98.5218 36.8735 98.525 36.8496C98.5283 36.8258 98.5366 36.8029 98.5492 36.7824C98.5618 36.762 98.5786 36.7444 98.5984 36.7308C98.6183 36.7172 98.6408 36.7079 98.6644 36.7035Z" fill="black"/>
<path d="M101.029 39.7998C100.844 40.0363 100.575 40.1929 100.278 40.2375C99.9809 40.2821 99.6779 40.2112 99.4313 40.0395C99.3119 39.9596 99.2102 39.8559 99.1327 39.7349C99.0551 39.6139 99.0034 39.4782 98.9806 39.3363C98.9588 39.1906 98.9671 39.0419 99.0051 38.8995C99.043 38.7571 99.1097 38.624 99.2012 38.5085C99.3885 38.2739 99.6583 38.1196 99.9555 38.077C100.251 38.0296 100.554 38.0995 100.799 38.2719C100.921 38.3538 101.025 38.4604 101.103 38.5849C101.181 38.7093 101.232 38.8488 101.253 38.9943C101.275 39.1367 101.266 39.2821 101.227 39.4209C101.189 39.5597 101.121 39.6888 101.029 39.7998ZM100.224 39.8797C100.428 39.8486 100.614 39.7427 100.745 39.5824C100.805 39.5085 100.85 39.4229 100.875 39.3311C100.901 39.2393 100.908 39.1432 100.895 39.0486C100.88 38.9524 100.846 38.8603 100.795 38.7778C100.743 38.6954 100.675 38.6244 100.595 38.5692C100.423 38.4523 100.212 38.4054 100.007 38.4382C99.8023 38.4672 99.617 38.5736 99.4888 38.7354C99.4274 38.8112 99.3823 38.8989 99.3565 38.993C99.3306 39.087 99.3245 39.1854 99.3386 39.282C99.3545 39.376 99.3896 39.4657 99.4419 39.5455C99.4942 39.6253 99.5624 39.6933 99.6423 39.7454C99.8126 39.861 100.02 39.9078 100.224 39.8765V39.8797Z" fill="black"/>
<path d="M100.127 41.671L100.092 41.2779L99.4017 41.3386C99.3551 41.3425 99.3088 41.3276 99.2732 41.2973C99.2375 41.267 99.2153 41.2238 99.2115 41.1772C99.2077 41.1306 99.2226 41.0844 99.2528 41.0487C99.2831 41.013 99.3263 40.9909 99.3729 40.987L101.249 40.8208C101.296 40.8173 101.342 40.8319 101.377 40.8618C101.413 40.8916 101.436 40.9343 101.441 40.9807L101.492 41.5496C101.5 41.6392 101.49 41.7295 101.463 41.8152C101.436 41.901 101.392 41.9806 101.334 42.0494C101.276 42.1183 101.205 42.1751 101.125 42.2166C101.046 42.258 100.958 42.2834 100.869 42.2911C100.779 42.2989 100.689 42.2889 100.603 42.2618C100.517 42.2347 100.438 42.1909 100.369 42.1331C100.3 42.0752 100.243 42.0043 100.202 41.9245C100.16 41.8447 100.135 41.7575 100.127 41.6679V41.671ZM100.447 41.2491L100.482 41.6391C100.49 41.726 100.532 41.8063 100.598 41.8623C100.665 41.9184 100.752 41.9456 100.838 41.9379C100.925 41.9303 101.006 41.8885 101.062 41.8216C101.118 41.7548 101.145 41.6684 101.137 41.5816L101.102 41.1916L100.447 41.2491Z" fill="black"/>
<path d="M81.7882 78.0848L80.8294 76.4547C80.8174 76.4348 80.8096 76.4128 80.8064 76.3899C80.8031 76.367 80.8045 76.3436 80.8105 76.3212C80.8165 76.2989 80.8269 76.278 80.8411 76.2597C80.8553 76.2414 80.8731 76.2262 80.8933 76.2149L81.2129 76.0264C81.4642 75.9145 81.748 75.8992 82.0099 75.9833C82.2718 76.0674 82.4935 76.245 82.6327 76.4823C82.7719 76.7196 82.8188 76.9998 82.7645 77.2695C82.7101 77.5392 82.5583 77.7793 82.338 77.9441L82.0184 78.1359C81.9803 78.1567 81.936 78.163 81.8937 78.1536C81.8514 78.1442 81.8139 78.1197 81.7882 78.0848ZM82.0056 77.7492L82.1782 77.6501C82.3532 77.5479 82.4805 77.3804 82.5321 77.1844C82.5836 76.9884 82.5552 76.7799 82.4531 76.6049C82.3509 76.4298 82.1834 76.3025 81.9874 76.251C81.7914 76.1994 81.5829 76.2279 81.4079 76.33L81.2353 76.4323L82.0056 77.7492Z" fill="black"/>
<path d="M83.6778 76.9629L82.639 75.3871C82.6261 75.368 82.6171 75.3463 82.6126 75.3236C82.6081 75.3009 82.6083 75.2775 82.6131 75.2548C82.6179 75.2322 82.6271 75.2107 82.6404 75.1917C82.6536 75.1727 82.6706 75.1565 82.6902 75.1442L83.5564 74.5753C83.5954 74.5499 83.6429 74.5411 83.6884 74.5506C83.7339 74.5602 83.7738 74.5875 83.7993 74.6264C83.8243 74.6658 83.8333 74.7132 83.8244 74.759C83.8155 74.8048 83.7893 74.8454 83.7513 74.8725L83.029 75.3488L83.3486 75.8378L83.9719 75.4255C84.0113 75.4017 84.0583 75.3938 84.1034 75.4033C84.1485 75.4128 84.1883 75.439 84.2148 75.4766C84.2406 75.5158 84.2501 75.5635 84.2411 75.6095C84.2322 75.6555 84.2055 75.6962 84.1669 75.7227L83.5468 76.1319L83.8664 76.6241L84.5888 76.1478C84.6283 76.1223 84.6763 76.1134 84.7223 76.1229C84.7684 76.1325 84.8088 76.1598 84.8349 76.199C84.8594 76.2382 84.8678 76.2855 84.8583 76.3307C84.8487 76.376 84.822 76.4159 84.7837 76.4419L83.9207 77.014C83.8817 77.0394 83.8343 77.0483 83.7887 77.0387C83.7432 77.0291 83.7033 77.0018 83.6778 76.9629Z" fill="black"/>
<path d="M85.0214 75.5955C85.0239 75.5511 85.0437 75.5095 85.0766 75.4796C85.1095 75.4497 85.1528 75.4339 85.1972 75.4356C85.4228 75.4532 85.6479 75.3947 85.8364 75.2694C85.9505 75.1911 86.0376 75.0795 86.0857 74.9498C86.1035 74.9069 86.1104 74.8602 86.106 74.814C86.1015 74.7677 86.0858 74.7233 86.0602 74.6845C86.0389 74.6552 86.0102 74.632 85.9771 74.6174C85.9342 74.6015 85.8884 74.5949 85.8428 74.5982C85.6885 74.6179 85.539 74.6655 85.4017 74.7389C85.2733 74.805 85.1369 74.8545 84.9958 74.8859C84.8674 74.9153 84.7332 74.9076 84.6091 74.8635C84.523 74.8302 84.4486 74.7724 84.3949 74.6973C84.3418 74.6215 84.3074 74.5342 84.2947 74.4425C84.2819 74.3508 84.291 74.2574 84.3214 74.1699C84.3846 73.9829 84.5041 73.8199 84.6634 73.7033C84.8749 73.5639 85.1229 73.4905 85.3762 73.4923C85.3976 73.4915 85.419 73.4948 85.4391 73.5022C85.4592 73.5096 85.4776 73.521 85.4933 73.5355C85.5091 73.55 85.5218 73.5675 85.5308 73.587C85.5397 73.6065 85.5448 73.6275 85.5456 73.6489C85.5473 73.6704 85.5447 73.6921 85.5378 73.7125C85.531 73.733 85.5201 73.7519 85.5057 73.768C85.4914 73.7841 85.4739 73.7972 85.4544 73.8064C85.4349 73.8156 85.4137 73.8207 85.3922 73.8215C85.204 73.816 85.0183 73.8661 84.8584 73.9654C84.7555 74.0409 84.6775 74.1456 84.6346 74.2658C84.6195 74.3037 84.6136 74.3446 84.6175 74.3852C84.6214 74.4258 84.635 74.4649 84.657 74.4991C84.6749 74.5263 84.7005 74.5474 84.7305 74.5599C84.7696 74.5677 84.8098 74.5677 84.8488 74.5599C84.9898 74.5446 85.1265 74.5023 85.2515 74.4352C85.3898 74.3663 85.5357 74.3137 85.6862 74.2786C85.823 74.2472 85.9659 74.255 86.0985 74.301C86.1883 74.3371 86.2666 74.3967 86.3255 74.4736C86.3816 74.5547 86.4175 74.6481 86.4303 74.7459C86.4431 74.8438 86.4324 74.9433 86.399 75.0361C86.3323 75.237 86.2036 75.4116 86.0314 75.5347C85.7823 75.7033 85.4847 75.7853 85.1844 75.7681C85.1403 75.7656 85.0988 75.7463 85.0685 75.7142C85.0382 75.6821 85.0213 75.6396 85.0214 75.5955Z" fill="black"/>
<path d="M85.8618 73.0677C85.8466 73.0502 85.8352 73.0298 85.8282 73.0076C85.8212 72.9855 85.8188 72.9622 85.8212 72.9391C85.8236 72.916 85.8307 72.8937 85.8421 72.8735C85.8535 72.8533 85.8689 72.8356 85.8874 72.8216C85.9236 72.792 85.97 72.7778 86.0166 72.782C86.0632 72.7861 86.1063 72.8084 86.1367 72.844L87.3193 74.3143C87.3474 74.3516 87.3601 74.3983 87.3547 74.4447C87.3494 74.4911 87.3264 74.5336 87.2906 74.5636C87.2731 74.5788 87.2526 74.5902 87.2305 74.5972C87.2084 74.6042 87.185 74.6066 87.162 74.6042C87.1389 74.6018 87.1166 74.5947 87.0963 74.5833C87.0761 74.5719 87.0585 74.5565 87.0445 74.538L85.8618 73.0677Z" fill="black"/>
<path d="M87.1135 73.2396C86.971 73.0736 86.8773 72.8714 86.8429 72.6554C86.8084 72.4394 86.8346 72.2181 86.9184 72.0161C87.0022 71.814 87.1403 71.6392 87.3175 71.511C87.4948 71.3828 87.7041 71.3062 87.9222 71.2898C87.9461 71.2876 87.9703 71.2902 87.9932 71.2974C88.0161 71.3046 88.0374 71.3162 88.0559 71.3317C88.0743 71.3471 88.0895 71.3661 88.1005 71.3874C88.1116 71.4087 88.1183 71.4321 88.1203 71.456C88.1221 71.4802 88.119 71.5045 88.1112 71.5275C88.1034 71.5505 88.0911 71.5716 88.075 71.5898C88.059 71.608 88.0394 71.6227 88.0176 71.6332C87.9957 71.6437 87.972 71.6498 87.9477 71.651C87.7662 71.6665 87.5946 71.7405 87.4587 71.862C87.3786 71.9325 87.3134 72.0183 87.2667 72.1144C87.2201 72.2104 87.193 72.3147 87.187 72.4213C87.1795 72.5249 87.1928 72.6289 87.2263 72.7272C87.2598 72.8255 87.3128 72.916 87.382 72.9934C87.4514 73.0699 87.5357 73.1315 87.6296 73.1743C87.7236 73.2172 87.8253 73.2405 87.9286 73.2428C88.0349 73.2472 88.141 73.2306 88.2408 73.1939C88.3407 73.1571 88.4323 73.1009 88.5103 73.0286C88.6248 72.9248 88.7098 72.7924 88.7564 72.645L88.4623 72.3254L88.1235 72.645C88.0889 72.6788 88.0425 72.6977 87.9941 72.6977C87.9457 72.6977 87.8993 72.6788 87.8646 72.645C87.8313 72.6115 87.8125 72.5661 87.8125 72.5188C87.8125 72.4715 87.8313 72.4261 87.8646 72.3925L88.3313 71.9706C88.348 71.9536 88.3679 71.9401 88.3898 71.9309C88.4118 71.9217 88.4353 71.9169 88.4591 71.9169C88.483 71.9169 88.5065 71.9217 88.5285 71.9309C88.5504 71.9401 88.5703 71.9536 88.587 71.9706L89.06 72.4948C89.0718 72.5082 89.0815 72.5233 89.0888 72.5396C89.0888 72.5396 89.0888 72.5396 89.0888 72.5555C89.1003 72.5876 89.1003 72.6226 89.0888 72.6546C89.0427 72.9132 88.9124 73.1492 88.718 73.3258C88.4912 73.5213 88.1975 73.6215 87.8984 73.6054C87.5994 73.5893 87.3181 73.4582 87.1135 73.2396Z" fill="black"/>
<path d="M90.0537 71.8168C90.0852 71.8501 90.1027 71.8941 90.1027 71.9399C90.1027 71.9857 90.0852 72.0297 90.0537 72.0629C90.0376 72.0798 90.0183 72.0932 89.9968 72.1023C89.9754 72.1114 89.9524 72.1162 89.9291 72.1162C89.9058 72.1162 89.8827 72.1114 89.8613 72.1023C89.8399 72.0932 89.8205 72.0798 89.8044 72.0629L88.4652 70.7844C88.4438 70.7655 88.4275 70.7416 88.4174 70.7148C88.4074 70.6881 88.4041 70.6593 88.4076 70.631C88.4108 70.6082 88.4184 70.5863 88.4301 70.5665C88.4418 70.5468 88.4573 70.5295 88.4758 70.5158C88.4943 70.5021 88.5153 70.4922 88.5376 70.4868C88.5599 70.4813 88.5831 70.4804 88.6058 70.484L90.3478 70.7237L89.3889 69.816C89.3723 69.8002 89.359 69.7814 89.3497 69.7605C89.3404 69.7396 89.3353 69.7171 89.3347 69.6942C89.3341 69.6714 89.3381 69.6486 89.3462 69.6273C89.3544 69.6059 89.3668 69.5864 89.3825 69.5698C89.3982 69.5533 89.4171 69.54 89.438 69.5307C89.4589 69.5214 89.4814 69.5163 89.5042 69.5157C89.5271 69.5151 89.5498 69.519 89.5712 69.5272C89.5925 69.5354 89.612 69.5477 89.6286 69.5635L90.9711 70.842C91.0033 70.8748 91.0213 70.919 91.0213 70.965C91.0213 71.011 91.0033 71.0552 90.9711 71.0881C90.9539 71.1061 90.933 71.12 90.9097 71.1289C90.8865 71.1378 90.8616 71.1413 90.8368 71.1392H90.8304L89.098 70.8963L90.0537 71.8168Z" fill="black"/>
<path d="M15.5448 81.8836H15.1517V82.574C15.1459 82.617 15.1247 82.6564 15.0921 82.6849C15.0595 82.7134 15.0176 82.7291 14.9743 82.7291C14.9309 82.7291 14.8891 82.7134 14.8564 82.6849C14.8238 82.6564 14.8027 82.617 14.7969 82.574V80.6914C14.7969 80.6448 14.8154 80.6001 14.8484 80.5671C14.8813 80.5341 14.926 80.5156 14.9727 80.5156H15.5448C15.7262 80.5156 15.9002 80.5877 16.0285 80.716C16.1567 80.8442 16.2288 81.0182 16.2288 81.1996C16.2288 81.381 16.1567 81.555 16.0285 81.6833C15.9002 81.8116 15.7262 81.8836 15.5448 81.8836ZM15.1517 81.5288H15.5448C15.6321 81.5288 15.7159 81.4942 15.7776 81.4324C15.8393 81.3707 15.874 81.2869 15.874 81.1996C15.874 81.1123 15.8393 81.0286 15.7776 80.9668C15.7159 80.9051 15.6321 80.8704 15.5448 80.8704H15.1517V81.5288Z" fill="black"/>
<path d="M16.6797 82.574V80.6914C16.6797 80.6448 16.6982 80.6001 16.7312 80.5671C16.7641 80.5341 16.8089 80.5156 16.8555 80.5156C16.9024 80.5156 16.9475 80.534 16.9809 80.5669C17.0144 80.5998 17.0336 80.6445 17.0345 80.6914V82.395H17.9007C17.9436 82.4008 17.983 82.422 18.0115 82.4546C18.0401 82.4872 18.0558 82.5291 18.0558 82.5724C18.0558 82.6158 18.0401 82.6576 18.0115 82.6902C17.983 82.7229 17.9436 82.744 17.9007 82.7498H16.8395C16.7957 82.7458 16.755 82.7255 16.7254 82.693C16.6958 82.6605 16.6795 82.618 16.6797 82.574Z" fill="black"/>
<path d="M19.601 82.2176H18.8275L18.6709 82.6331C18.6575 82.6662 18.6345 82.6945 18.6049 82.7144C18.5753 82.7344 18.5404 82.745 18.5047 82.7449C18.4846 82.7483 18.464 82.7483 18.4439 82.7449C18.3999 82.7277 18.3644 82.6941 18.3447 82.6512C18.325 82.6083 18.3228 82.5594 18.3385 82.5148L19.0448 80.6354C19.0584 80.6018 19.0819 80.5731 19.1121 80.5531C19.1424 80.5331 19.178 80.5228 19.2142 80.5235C19.2506 80.5224 19.2864 80.5325 19.3167 80.5525C19.3471 80.5726 19.3704 80.6015 19.3836 80.6354L20.0868 82.5148C20.1025 82.5594 20.1003 82.6083 20.0806 82.6512C20.0609 82.6941 20.0253 82.7277 19.9813 82.7449C19.938 82.7597 19.8907 82.7573 19.8491 82.7383C19.8075 82.7193 19.7748 82.6851 19.7576 82.6427L19.601 82.2176ZM19.4699 81.8692L19.2142 81.182L18.9553 81.8692H19.4699Z" fill="black"/>
<path d="M20.8812 82.5742C20.8846 82.5991 20.8826 82.6244 20.8754 82.6484C20.8682 82.6724 20.8559 82.6946 20.8394 82.7135C20.8229 82.7324 20.8026 82.7476 20.7798 82.7579C20.7569 82.7683 20.7321 82.7737 20.707 82.7737C20.682 82.7737 20.6572 82.7683 20.6343 82.7579C20.6115 82.7476 20.5911 82.7324 20.5746 82.7135C20.5581 82.6946 20.5459 82.6724 20.5387 82.6484C20.5315 82.6244 20.5295 82.5991 20.5328 82.5742V80.7108C20.5316 80.6824 20.5373 80.6541 20.5496 80.6285C20.5618 80.6028 20.5802 80.5806 20.6032 80.5638C20.6406 80.5371 20.687 80.5262 20.7324 80.5334C20.7779 80.5406 20.8186 80.5652 20.8461 80.6021L21.8785 82.0277V80.7108C21.8785 80.665 21.8967 80.6211 21.929 80.5888C21.9614 80.5564 22.0053 80.5382 22.0511 80.5382C22.0972 80.5382 22.1414 80.5563 22.1743 80.5886C22.2071 80.6208 22.226 80.6647 22.2269 80.7108V82.5646C22.2269 82.6113 22.2084 82.656 22.1754 82.6889C22.1424 82.7219 22.0977 82.7404 22.0511 82.7404C22.0259 82.74 22.0011 82.734 21.9785 82.723C21.9558 82.7119 21.9359 82.6961 21.92 82.6765L21.904 82.6573L20.8812 81.2414V82.5742Z" fill="black"/>
<path d="M92.4297 82.574V80.6914C92.4297 80.6448 92.4482 80.6001 92.4812 80.5671C92.5141 80.5341 92.5589 80.5156 92.6055 80.5156C92.6524 80.5156 92.6975 80.534 92.7309 80.5669C92.7644 80.5998 92.7836 80.6445 92.7845 80.6914V82.395H93.6507C93.6936 82.4008 93.733 82.422 93.7615 82.4546C93.7901 82.4872 93.8058 82.5291 93.8058 82.5724C93.8058 82.6158 93.7901 82.6576 93.7615 82.6902C93.733 82.7229 93.6936 82.744 93.6507 82.7498H92.6055C92.5589 82.7498 92.5141 82.7313 92.4812 82.6983C92.4482 82.6654 92.4297 82.6206 92.4297 82.574Z" fill="black"/>
<path d="M95.3854 82.2176H94.6087L94.4521 82.6331C94.4387 82.6662 94.4158 82.6945 94.3861 82.7144C94.3565 82.7344 94.3216 82.745 94.2859 82.7449C94.2658 82.7483 94.2453 82.7483 94.2252 82.7449C94.1812 82.7277 94.1456 82.6941 94.1259 82.6512C94.1063 82.6083 94.104 82.5594 94.1197 82.5148L94.8261 80.6354C94.8397 80.6018 94.8631 80.5731 94.8934 80.5531C94.9236 80.5331 94.9592 80.5228 94.9955 80.5235C95.0318 80.5224 95.0676 80.5325 95.098 80.5525C95.1283 80.5726 95.1517 80.6015 95.1649 80.6354L95.8713 82.5148C95.8869 82.5594 95.8847 82.6083 95.865 82.6512C95.8453 82.6941 95.8098 82.7277 95.7658 82.7449C95.7225 82.7597 95.6752 82.7573 95.6336 82.7383C95.5919 82.7193 95.5592 82.6851 95.542 82.6427L95.3854 82.2176ZM95.2544 81.8692L94.9955 81.182L94.7366 81.8692H95.2544Z" fill="black"/>
<path d="M97.1581 82.7498C97.037 82.7503 96.9169 82.7268 96.8049 82.6807C96.6928 82.6346 96.591 82.5669 96.5051 82.4814C96.4193 82.3958 96.3512 82.2942 96.3048 82.1823C96.2583 82.0704 96.2344 81.9505 96.2344 81.8293V80.6914C96.234 80.6682 96.2382 80.6452 96.2469 80.6237C96.2556 80.6021 96.2685 80.5826 96.2849 80.5662C96.3013 80.5498 96.3209 80.5368 96.3424 80.5282C96.3639 80.5195 96.387 80.5152 96.4102 80.5157C96.4571 80.5156 96.5022 80.5341 96.5356 80.5669C96.5691 80.5998 96.5883 80.6445 96.5892 80.6914V81.8293C96.5892 81.9802 96.6491 82.1249 96.7558 82.2316C96.8625 82.3383 97.0072 82.3983 97.1581 82.3983C97.309 82.3983 97.4537 82.3383 97.5604 82.2316C97.6671 82.1249 97.7271 81.9802 97.7271 81.8293V80.6914C97.7271 80.6681 97.7317 80.645 97.7407 80.6234C97.7498 80.6019 97.763 80.5824 97.7797 80.566C97.7963 80.5496 97.8161 80.5367 97.8378 80.5281C97.8595 80.5195 97.8827 80.5152 97.906 80.5157C97.9293 80.5152 97.9523 80.5195 97.9738 80.5282C97.9954 80.5368 98.0149 80.5498 98.0313 80.5662C98.0477 80.5826 98.0607 80.6021 98.0693 80.6237C98.078 80.6452 98.0823 80.6682 98.0819 80.6914V81.8293C98.081 82.0738 97.9833 82.3079 97.8102 82.4804C97.637 82.653 97.4026 82.7498 97.1581 82.7498Z" fill="black"/>
<path d="M99.1469 82.5742C99.1502 82.5991 99.1483 82.6244 99.1411 82.6484C99.1338 82.6724 99.1216 82.6946 99.1051 82.7135C99.0886 82.7324 99.0682 82.7476 99.0454 82.7579C99.0225 82.7683 98.9977 82.7737 98.9727 82.7737C98.9476 82.7737 98.9228 82.7683 98.9 82.7579C98.8771 82.7476 98.8568 82.7324 98.8403 82.7135C98.8238 82.6946 98.8115 82.6724 98.8043 82.6484C98.7971 82.6244 98.7951 82.5991 98.7985 82.5742V80.7108C98.7972 80.6824 98.8029 80.6541 98.8152 80.6285C98.8275 80.6028 98.8459 80.5806 98.8688 80.5638C98.9063 80.5371 98.9527 80.5262 98.9981 80.5334C99.0435 80.5406 99.0843 80.5652 99.1117 80.6021L100.141 82.0277V80.7108C100.141 80.665 100.159 80.6211 100.191 80.5888C100.224 80.5564 100.268 80.5382 100.314 80.5382C100.36 80.5382 100.404 80.5563 100.437 80.5886C100.47 80.6208 100.488 80.6647 100.489 80.7108V82.5646C100.489 82.6113 100.471 82.656 100.438 82.6889C100.405 82.7219 100.36 82.7404 100.314 82.7404C100.288 82.74 100.264 82.734 100.241 82.723C100.218 82.7119 100.198 82.6961 100.182 82.6765L100.166 82.6573L99.1469 81.251V82.5742Z" fill="black"/>
<path d="M101.148 81.6038C101.154 81.2966 101.28 81.0039 101.5 80.7888C101.719 80.5736 102.014 80.4531 102.321 80.4531C102.589 80.4514 102.848 80.5392 103.06 80.7025C103.098 80.7321 103.124 80.7759 103.13 80.8242C103.136 80.8724 103.123 80.9212 103.093 80.9598C103.064 80.9983 103.02 81.0235 102.972 81.0298C102.923 81.0361 102.875 81.023 102.836 80.9933C102.69 80.8761 102.508 80.8139 102.321 80.8175C102.108 80.8188 101.902 80.901 101.746 81.0477C101.598 81.1949 101.514 81.3949 101.513 81.6038C101.513 81.7069 101.533 81.809 101.573 81.9039C101.613 81.9989 101.672 82.0849 101.746 82.1568C101.902 82.3034 102.108 82.3856 102.321 82.3869C102.508 82.39 102.69 82.3278 102.836 82.2111C102.876 82.1848 102.923 82.1738 102.971 82.1803C103.018 82.1868 103.061 82.2102 103.092 82.2463C103.12 82.285 103.132 82.3329 103.126 82.3804C103.12 82.4279 103.097 82.4713 103.06 82.502C102.848 82.6652 102.589 82.753 102.321 82.7513C102.014 82.7522 101.719 82.6324 101.5 82.4177C101.281 82.203 101.154 81.9107 101.148 81.6038Z" fill="black"/>
<path d="M103.719 82.574V80.6914C103.718 80.6682 103.723 80.6452 103.731 80.6237C103.74 80.6021 103.753 80.5826 103.769 80.5662C103.786 80.5498 103.805 80.5368 103.827 80.5282C103.848 80.5195 103.871 80.5152 103.895 80.5157C103.918 80.5152 103.941 80.5195 103.963 80.5281C103.985 80.5367 104.004 80.5496 104.021 80.566C104.038 80.5824 104.051 80.6019 104.06 80.6234C104.069 80.645 104.074 80.6681 104.074 80.6914V81.4585H104.895V80.6914C104.895 80.6682 104.899 80.6452 104.908 80.6237C104.916 80.6021 104.929 80.5826 104.946 80.5662C104.962 80.5498 104.981 80.5368 105.003 80.5282C105.025 80.5195 105.048 80.5152 105.071 80.5157C105.094 80.5152 105.117 80.5195 105.139 80.5281C105.161 80.5367 105.181 80.5496 105.197 80.566C105.214 80.5824 105.227 80.6019 105.236 80.6234C105.245 80.645 105.25 80.6681 105.25 80.6914V82.574C105.25 82.5974 105.245 82.6205 105.236 82.6421C105.227 82.6636 105.214 82.6831 105.197 82.6995C105.181 82.7159 105.161 82.7287 105.139 82.7374C105.117 82.746 105.094 82.7503 105.071 82.7498C105.048 82.7503 105.025 82.746 105.003 82.7374C104.981 82.7287 104.962 82.7157 104.946 82.6993C104.929 82.6829 104.916 82.6634 104.908 82.6418C104.899 82.6203 104.895 82.5973 104.895 82.574V81.8101H104.067V82.574C104.067 82.5974 104.063 82.6205 104.053 82.6421C104.044 82.6636 104.031 82.6831 104.015 82.6995C103.998 82.7159 103.978 82.7287 103.956 82.7374C103.935 82.746 103.912 82.7503 103.888 82.7498C103.866 82.7494 103.843 82.7445 103.822 82.7355C103.802 82.7264 103.783 82.7134 103.767 82.697C103.751 82.6807 103.739 82.6614 103.731 82.6403C103.722 82.6192 103.718 82.5967 103.719 82.574Z" fill="black"/>
</g>
<path d="M43.496 31.6261C37.9697 34.7521 27.9174 44.261 28.6557 46.9043C30.1452 52.2357 38.6345 59.0502 40.4084 60.4853C41.444 61.3259 45.6791 51.8969 44.7042 50.8581C43.5695 49.6435 38.7336 46.3386 38.7176 45.6897C38.7016 45.1975 42.7289 39.9109 45.6982 35.4137C49.1406 30.2102 46.1297 30.1367 43.496 31.6261Z" fill="#EB9481"/>
<path d="M39.0312 58.9335C39.7952 59.8572 43.669 63.7726 44.9891 64.6228C46.3092 65.4731 50.2917 67.6401 51.0428 66.694C51.794 65.7479 50.6817 65.0192 50.6817 65.0192C50.6817 65.0192 52.5067 65.6584 53.178 64.6484C53.8492 63.6384 52.0784 62.5517 52.0784 62.5517C52.0784 62.5517 53.9962 63.079 54.6003 62.0147C55.2044 60.9503 53.2323 60.164 53.2323 60.164C53.2323 60.164 54.9711 60.7298 55.0925 59.6462C55.2396 58.339 51.9186 57.6582 50.5314 56.6098C50.2118 56.3733 44.4841 51.3359 44.4841 51.3359L39.0312 58.9335Z" fill="#EB9481"/>
<path d="M53.3997 60.2296C50.9609 59.7214 49.9797 59.079 48.2185 57.3722C48.1833 57.3402 48.1258 57.3722 48.1578 57.4233C49.7335 59.2484 50.8458 60.2328 53.3805 60.3511C53.5051 60.3543 53.5147 60.2488 53.3997 60.2296Z" fill="#263238"/>
<path d="M52.273 62.5859C49.7863 61.8379 48.7187 61.1475 46.7402 59.4983C46.7115 59.4759 46.6699 59.5206 46.6955 59.5462C48.5014 61.3265 49.6329 62.2854 52.2154 62.7073C52.3337 62.7265 52.388 62.621 52.273 62.5859Z" fill="#263238"/>
<path d="M50.581 64.9296C48.2253 64.0282 47.0235 63.3314 45.3071 61.4776C45.2995 61.4683 45.2885 61.4624 45.2765 61.4612C45.2645 61.46 45.2525 61.4636 45.2432 61.4712C45.2339 61.4788 45.228 61.4899 45.2268 61.5018C45.2256 61.5138 45.2292 61.5258 45.2368 61.5351C46.803 63.5903 48.2989 64.4821 50.5458 64.9967C50.7025 65.0446 50.7312 64.9839 50.581 64.9296Z" fill="#263238"/>
<path d="M43.3758 50.2266C43.3758 50.2266 46.4953 50.2873 47.8506 50.6165C49.2058 50.9457 53.8532 54.0461 53.2395 55.0913C52.45 56.4337 49.4199 55.1712 48.0168 54.3593C48.0168 54.3593 46.1917 57.4661 43.8233 57.0314C41.4548 56.5967 43.3758 50.2266 43.3758 50.2266Z" fill="#EB9481"/>
<path d="M52.9177 55.3794C51.3195 56.0826 49.5392 54.9 48.1233 54.2128C48.1029 54.2017 48.0802 54.1957 48.057 54.1953C48.0339 54.1949 48.011 54.2001 47.9903 54.2105C47.9696 54.2209 47.9517 54.2361 47.9381 54.2548C47.9245 54.2736 47.9157 54.2953 47.9123 54.3182C47.0589 55.5712 45.4927 57.0862 43.8946 57.1022C43.8867 57.1045 43.8797 57.1094 43.8748 57.116C43.8699 57.1226 43.8672 57.1307 43.8672 57.1389C43.8672 57.1472 43.8699 57.1552 43.8748 57.1619C43.8797 57.1685 43.8867 57.1733 43.8946 57.1757C45.611 57.3899 47.273 56.0282 48.1169 54.5963C49.5648 55.3219 51.393 56.4342 52.9336 55.3954L52.9177 55.3794Z" fill="#263238"/>
<path d="M44.4543 49.625L37.9819 59.2937C37.9819 59.2937 27.6931 49.7656 28.2652 46.2402C28.8373 42.7147 37.9211 34.4139 42.8818 31.6492C47.8424 28.8844 48.2707 31.7131 46.0588 35.4304C43.847 39.1476 39.027 45.7032 39.1101 45.8854C39.1933 46.0676 44.4543 49.625 44.4543 49.625Z" fill="#455A64"/>
<path d="M39.6402 54.8567C40.2283 54.3037 40.8068 53.738 41.3822 53.1723C41.6602 52.9006 41.9415 52.6289 42.21 52.3476C42.4785 52.0663 42.8173 51.7595 43.0826 51.4367C43.1018 51.4143 43.0826 51.3855 43.0538 51.4047C42.715 51.6508 42.4146 51.9513 42.0949 52.223C41.7753 52.4947 41.5132 52.7344 41.2224 52.9965C40.6247 53.5366 40.0238 54.08 39.4356 54.633C38.2594 55.7485 37.1183 56.8895 35.9869 58.0498C35.9824 58.0519 35.9784 58.0551 35.9754 58.0591C35.9723 58.0631 35.9702 58.0677 35.9693 58.0726C35.9684 58.0776 35.9686 58.0826 35.97 58.0874C35.9714 58.0922 35.9739 58.0967 35.9773 58.1003C35.9807 58.104 35.9849 58.1068 35.9896 58.1086C35.9943 58.1103 35.9993 58.1109 36.0043 58.1103C36.0093 58.1098 36.0141 58.1081 36.0182 58.1053C36.0224 58.1026 36.0259 58.0989 36.0284 58.0945C37.2494 57.0366 38.4576 55.9658 39.6402 54.8567Z" fill="#263238"/>
<path d="M46.0628 35.4286C43.851 39.1459 39.031 45.7015 39.1109 45.8837C39.1908 46.0658 44.4583 49.6233 44.4583 49.6233L37.9826 59.292C37.9826 59.292 29.8993 51.8032 28.4609 47.648L46.3601 30.5703C47.8431 30.8452 47.5491 32.926 46.0628 35.4286Z" fill="#37474F"/>
<path d="M30.1701 116.458C30.1701 116.458 29.8281 131.769 29.8281 131.778C29.9144 134.604 30.0359 137.084 30.2213 138.359C30.2198 138.366 30.2198 138.372 30.2213 138.378C30.2328 138.681 30.3126 138.977 30.4546 139.245L30.4738 139.264C31.3304 139.807 53.9472 139.794 54.7367 139.526C55.5262 139.257 54.8294 136.991 53.9504 136.291C53.0714 135.591 44.4063 131.727 44.4063 131.727L44.2465 116.43L30.1701 116.458Z" fill="#EB9481"/>
<path d="M29.8952 128.744C29.8952 128.744 29.8281 131.771 29.8281 131.781C29.9144 134.606 30.0359 137.087 30.2213 138.362C30.2198 138.368 30.2198 138.375 30.2213 138.381C30.2642 138.678 30.3425 138.969 30.4546 139.247L30.4738 139.266C31.3304 139.81 53.9472 139.797 54.7367 139.529C55.5262 139.26 54.8294 136.994 53.9504 136.294C53.0714 135.594 44.4063 131.73 44.4063 131.73L44.3424 128.648L29.8952 128.744Z" fill="white"/>
<path d="M45.8014 131.7C44.2895 131.493 42.4677 131.809 41.3745 132.931C41.3298 132.976 41.3937 133.036 41.4417 133.017C42.8515 132.486 44.3142 132.108 45.8046 131.889C45.8266 131.884 45.8463 131.873 45.8603 131.855C45.8744 131.838 45.8819 131.816 45.8815 131.793C45.8811 131.771 45.8729 131.749 45.8583 131.732C45.8436 131.715 45.8235 131.704 45.8014 131.7Z" fill="#263238"/>
<path d="M46.9108 132.303C45.3989 132.092 43.577 132.412 42.4839 133.534C42.4392 133.578 42.5031 133.636 42.551 133.62C43.961 133.09 45.4236 132.711 46.9139 132.492C46.9359 132.487 46.9557 132.475 46.9697 132.458C46.9838 132.44 46.9913 132.418 46.9909 132.396C46.9905 132.374 46.9823 132.352 46.9676 132.335C46.953 132.318 46.9329 132.307 46.9108 132.303Z" fill="#263238"/>
<path d="M48.0266 132.895C46.5148 132.688 44.6929 133.007 43.5998 134.129C43.5582 134.171 43.619 134.231 43.6669 134.215C45.0764 133.684 46.5392 133.305 48.0298 133.087C48.0552 133.087 48.0795 133.076 48.0971 133.058C48.1148 133.04 48.1245 133.015 48.1241 132.99C48.1237 132.964 48.1132 132.94 48.0949 132.922C48.0766 132.905 48.052 132.895 48.0266 132.895Z" fill="#263238"/>
<path d="M54.7459 139.522C53.9564 139.79 31.3428 139.806 30.483 139.259C30.1634 139.055 29.9556 135.763 29.8438 131.774C29.8438 131.732 29.8438 131.691 29.8438 131.649L44.4315 131.477V131.723C44.4315 131.723 53.0902 135.59 53.9724 136.29C54.8546 136.99 55.5354 139.266 54.7459 139.522Z" fill="#37474F"/>
<path d="M29.8281 131.654V131.782C29.9528 135.771 30.1478 139.066 30.4674 139.267C30.8541 139.513 35.7604 139.648 41.0598 139.696C47.4012 139.75 54.302 139.676 54.7303 139.533C55.5198 139.267 54.8198 136.995 53.944 136.295C53.0682 135.595 44.4031 131.73 44.4031 131.73V131.484L39.5352 131.542L29.8281 131.654Z" fill="#FF725E"/>
<path d="M54.4878 138.655C50.6746 138.565 35.291 138.555 31.5162 138.757C31.4842 138.757 31.4842 138.779 31.5162 138.779C35.291 138.952 50.6746 138.837 54.4878 138.718C54.5677 138.715 54.5677 138.658 54.4878 138.655Z" fill="#263238"/>
<path opacity="0.1" d="M39.5547 131.526C39.9766 133.959 40.6159 137.545 41.0729 139.68C47.4143 139.734 54.3151 139.661 54.7434 139.517C55.5329 139.252 54.8329 136.979 53.9571 136.279C53.0813 135.579 44.4162 131.715 44.4162 131.715V131.469L39.5547 131.526Z" fill="black"/>
<path d="M28.7422 131.594L45.1007 131.75C45.1007 131.75 45.513 103.217 45.5865 94.3349C45.6665 84.1899 45.0911 53.7422 45.0911 53.7422H32.859C32.859 53.7422 29.5764 60.4544 31.4526 67.9976L31.9704 95.1659L28.7422 131.594Z" fill="#263238"/>
<path d="M29.951 128.729C30.3835 128.671 30.8188 128.637 31.2551 128.627C31.7377 128.592 32.214 128.556 32.7062 128.534C33.6363 128.496 34.5664 128.48 35.4965 128.477C37.3759 128.477 39.2553 128.477 41.1316 128.54C42.2023 128.576 43.2699 128.617 44.3278 128.678C44.335 128.68 44.3412 128.685 44.3457 128.691C44.3501 128.697 44.3525 128.704 44.3525 128.711C44.3525 128.719 44.3501 128.726 44.3457 128.732C44.3412 128.738 44.335 128.743 44.3278 128.745C42.4644 128.812 40.601 128.844 38.7407 128.879C36.8805 128.914 35.0139 128.95 33.1537 128.914C32.6199 128.914 32.0861 128.914 31.5555 128.87C31.0249 128.825 30.4784 128.87 29.9574 128.793C29.9286 128.787 29.9158 128.735 29.951 128.729Z" fill="#37474F"/>
<path d="M43.6045 113.707C43.7931 109.303 43.7388 103.319 43.8602 98.9118C44.1032 90.1007 44.1671 81.2843 44.052 72.4626C43.9881 67.518 43.857 62.5701 43.71 57.6255C43.71 57.5712 43.7931 57.5744 43.7963 57.6255C44.263 66.476 44.4356 75.3456 44.4356 84.2121C44.4356 93.0274 44.4579 103.425 44.0232 112.231C43.7771 117.175 43.7963 122.44 43.3329 127.368C43.3329 127.41 43.2625 127.41 43.2657 127.368C43.4799 122.922 43.4128 118.157 43.6045 113.707Z" fill="#37474F"/>
<path d="M47.4297 116.734C47.4297 116.734 47.5543 131.524 47.5543 131.536C47.5543 134.365 47.6215 136.845 47.7717 138.124C47.7704 138.131 47.7704 138.139 47.7717 138.146C47.7735 138.449 47.8457 138.748 47.9826 139.019L47.9986 139.035C48.8424 139.604 71.4497 140.189 72.2456 139.946C73.0414 139.703 72.4054 137.414 71.5456 136.692C70.6858 135.97 62.1294 131.872 62.1294 131.872L61.8641 117.089L47.4297 116.734Z" fill="#EB9481"/>
<path d="M47.5312 128.5C47.5312 128.5 47.5568 131.524 47.5568 131.536C47.5568 134.365 47.6239 136.845 47.7742 138.124C47.7729 138.131 47.7729 138.139 47.7742 138.146C47.8093 138.445 47.8801 138.738 47.9851 139.019L48.0011 139.035C48.8449 139.604 71.4522 140.189 72.248 139.946C73.0439 139.703 72.4078 137.414 71.548 136.692C70.6883 135.97 62.1318 131.872 62.1318 131.872L62.1478 128.791L47.5312 128.5Z" fill="white"/>
<path d="M63.5195 131.883C62.0141 131.634 60.1858 131.902 59.0607 132.995C59.0192 133.04 59.0799 133.101 59.1278 133.085C60.5513 132.591 62.0236 132.251 63.5195 132.072C63.5416 132.068 63.5615 132.056 63.5758 132.039C63.5901 132.021 63.598 132 63.598 131.977C63.598 131.955 63.5901 131.933 63.5758 131.916C63.5615 131.899 63.5416 131.887 63.5195 131.883Z" fill="#263238"/>
<path d="M64.6292 132.508C63.1238 132.259 61.2955 132.527 60.1545 133.62C60.1129 133.662 60.1736 133.726 60.2216 133.707C61.6507 133.214 63.1283 132.876 64.6292 132.697C64.6513 132.693 64.6712 132.681 64.6855 132.664C64.6999 132.646 64.7077 132.625 64.7077 132.602C64.7077 132.58 64.6999 132.558 64.6855 132.541C64.6712 132.524 64.6513 132.512 64.6292 132.508Z" fill="#263238"/>
<path d="M65.707 133.131C64.2016 132.885 62.3733 133.154 61.2482 134.247C61.2067 134.288 61.2674 134.349 61.3153 134.333C62.7393 133.842 64.2115 133.503 65.707 133.323C65.7324 133.323 65.7568 133.313 65.7748 133.295C65.7928 133.277 65.8029 133.253 65.8029 133.227C65.8029 133.202 65.7928 133.177 65.7748 133.159C65.7568 133.141 65.7324 133.131 65.707 133.131Z" fill="#263238"/>
<path d="M72.2491 139.948C71.4532 140.194 48.846 139.606 48.0022 139.037C47.6825 138.826 47.5707 135.521 47.5547 131.539V131.414L62.1457 131.628V131.874C62.1457 131.874 70.6989 135.972 71.5619 136.694C72.4249 137.417 73.0482 139.705 72.2491 139.948Z" fill="#FF725E"/>
<path d="M72.0193 139.066C68.2125 138.871 52.8416 138.455 49.054 138.554C49.0253 138.554 49.0221 138.576 49.054 138.576C52.8256 138.851 68.2061 139.142 72.0193 139.126C72.0992 139.126 72.1024 139.069 72.0193 139.066Z" fill="#263238"/>
<path d="M39.9576 69.4085C39.9576 69.4085 46.6697 90.5615 46.7912 94.4513C46.8935 97.7659 46.4716 131.777 46.4716 131.777L63.4598 131.88C63.4598 131.88 62.0246 97.1937 61.7529 93.7386C61.2575 87.2789 55.6001 69.5492 51.5536 53.75H33.2422C33.2422 53.75 33.402 62.0251 37.164 68.0054C37.164 68.0054 38.8676 68.7949 39.9576 69.4085Z" fill="#263238"/>
<path d="M47.3654 128.654C49.3279 128.597 51.3639 128.539 53.3264 128.59C55.2889 128.641 57.2259 128.667 59.1692 128.782C60.2719 128.849 61.3746 128.884 62.4742 128.993C62.4806 128.995 62.4861 128.999 62.4901 129.004C62.494 129.01 62.4961 129.016 62.4961 129.023C62.4961 129.03 62.494 129.037 62.4901 129.042C62.4861 129.047 62.4806 129.051 62.4742 129.054C60.5116 129.169 58.5427 129.146 56.577 129.127C54.6113 129.108 52.6808 129.089 50.7342 128.999C49.6315 128.948 48.5288 128.894 47.4293 128.817C47.3142 128.801 47.2503 128.654 47.3654 128.654Z" fill="#37474F"/>
<path d="M51.0806 63.717C51.6879 65.737 52.1993 67.789 52.7395 69.8282C53.2797 71.8675 53.8326 73.9386 54.3728 75.997C55.4212 79.9764 56.4536 83.9622 57.2494 88.0022C58.0514 92.058 58.5058 96.1748 58.6078 100.308C58.6973 104.517 58.6078 108.736 58.5823 112.949C58.5567 117.162 58.5183 121.416 58.4448 125.651C58.4448 126.179 58.4225 126.706 58.4033 127.23C58.4033 127.24 58.3992 127.25 58.392 127.257C58.3849 127.264 58.3751 127.268 58.3649 127.268C58.3548 127.268 58.345 127.264 58.3378 127.257C58.3306 127.25 58.3266 127.24 58.3266 127.23C58.2147 123.017 58.2722 118.798 58.2882 114.586C58.3042 110.373 58.3553 106.154 58.3202 101.941C58.3051 97.7633 57.9437 93.5939 57.2398 89.4757C56.5303 85.4197 55.5298 81.4243 54.4942 77.445C53.9061 75.1724 53.3084 72.903 52.7203 70.6305C52.1322 68.3579 51.4897 66.063 50.9688 63.7585C50.9689 63.7456 50.973 63.733 50.9804 63.7225C50.9878 63.7119 50.9983 63.7038 51.0104 63.6993C51.0225 63.6948 51.0357 63.6941 51.0483 63.6972C51.0608 63.7004 51.0721 63.7073 51.0806 63.717Z" fill="#37474F"/>
<path d="M44.1723 69.822C43.3267 69.8159 42.4832 69.7389 41.6504 69.5919C40.824 69.4096 40.0078 69.1834 39.2053 68.9143C38.4151 68.7346 37.6145 68.6044 36.8081 68.5243C35.9951 68.4065 35.2037 68.1707 34.4588 67.8244C34.4237 67.8052 34.3949 67.8595 34.4301 67.8755C35.1476 68.2627 35.896 68.5898 36.6675 68.8536C37.4729 69.1061 38.3167 69.1412 39.1318 69.3426C39.9574 69.5878 40.7975 69.781 41.6472 69.9211C42.4859 70.023 43.3346 70.0079 44.1691 69.8764C44.2011 69.8732 44.1915 69.822 44.1723 69.822Z" fill="#37474F"/>
<path d="M45.2304 86.6509C45.0706 86.0117 44.9108 85.3948 44.7478 84.7715C44.4058 83.509 44.0542 82.2432 43.6738 80.9935C42.9163 78.5036 42.2003 76.0009 41.3981 73.527C40.941 72.1238 40.5351 70.7015 40.0013 69.3239C39.9987 69.3167 39.9934 69.3108 39.9866 69.3075C39.9797 69.3042 39.9717 69.3038 39.9645 69.3063C39.9573 69.3089 39.9514 69.3142 39.9481 69.3211C39.9448 69.328 39.9444 69.3359 39.947 69.3431C40.2154 70.6216 40.5862 71.8809 40.9346 73.1466C41.283 74.4124 41.6378 75.6685 42.0022 76.9246C42.7277 79.4241 43.4373 81.9268 44.2396 84.4071C44.4633 85.1007 44.6902 85.7943 44.9299 86.4847C45.1697 87.1751 45.3678 87.9134 45.6619 88.6006C45.665 88.608 45.6707 88.614 45.6779 88.6174C45.6852 88.6208 45.6934 88.6213 45.701 88.6189C45.7087 88.6165 45.7151 88.6113 45.7191 88.6044C45.7231 88.5974 45.7244 88.5893 45.7226 88.5815C45.598 87.9294 45.3966 87.2934 45.2304 86.6509Z" fill="#37474F"/>
<path d="M80.7932 52.7353L82.4105 47.9122L78.8179 46.3876C79.0143 44.4828 78.8384 42.5581 78.3001 40.7206L81.5667 38.7548L79.3293 34.197L75.7079 35.6449C74.5102 34.1262 73.0256 32.8577 71.3386 31.9116L72.2464 28.3126L67.4296 26.6953L65.9785 30.1121C63.9972 29.8515 61.9838 29.9939 60.059 30.5308L58.2691 27.5391L53.7144 29.8021L55.0184 33.0303C53.3674 34.2734 51.9982 35.8517 51.0007 37.6617L47.8236 36.8627L46.2031 41.689L49.2588 42.9867C48.9868 45.0718 49.1666 47.1909 49.7861 49.2003L47.0469 50.8304L49.2843 55.3851L52.3783 54.1353C53.6785 55.7712 55.3131 57.1104 57.1727 58.0635L56.3641 61.279L61.1873 62.8963L62.5616 59.6617C64.5736 59.8556 66.6039 59.6381 68.5291 59.0224L70.3414 62.0557L74.9025 59.7927L73.4961 56.3088C75.0033 55.0701 76.2485 53.5434 77.159 51.818L80.7932 52.7353ZM62.0886 52.0258C60.658 51.587 59.3897 50.734 58.444 49.5744C57.4983 48.4148 56.9176 47.0009 56.7755 45.5113C56.6334 44.0218 56.9361 42.5235 57.6455 41.206C58.3549 39.8885 59.439 38.811 60.7608 38.1096C62.0826 37.4083 63.5826 37.1147 65.0713 37.2658C66.56 37.417 67.9704 38.0063 69.1242 38.959C70.2779 39.9118 71.1233 41.1853 71.5533 42.6185C71.9833 44.0517 71.9787 45.5803 71.54 47.0108C71.2487 47.9607 70.7732 48.8439 70.1405 49.61C69.5079 50.3761 68.7306 51.0101 67.8529 51.4758C66.9753 51.9415 66.0145 52.2297 65.0255 52.3241C64.0364 52.4185 63.0385 52.3171 62.0886 52.0258Z" fill="#DBDBDB"/>
<path d="M62.4157 50.9596C61.1964 50.5851 60.1155 49.8575 59.3097 48.8688C58.5038 47.8801 58.0092 46.6747 57.8884 45.4049C57.7675 44.1352 58.0259 42.8581 58.6307 41.7351C59.2356 40.6122 60.1598 39.6937 61.2866 39.096C62.4133 38.4982 63.692 38.2479 64.961 38.3767C66.23 38.5056 67.4322 39.0078 68.4159 39.8198C69.3995 40.6318 70.1202 41.7173 70.4871 42.9389C70.8539 44.1605 70.8503 45.4635 70.4767 46.683C69.9739 48.3185 68.8426 49.6875 67.3311 50.4894C65.8197 51.2912 64.0517 51.4604 62.4157 50.9596ZM66.0115 39.2357C64.9132 38.8956 63.7387 38.8891 62.6366 39.2168C61.5345 39.5445 60.5545 40.1918 59.8204 41.0767C59.0864 41.9616 58.6313 43.0444 58.5129 44.188C58.3945 45.3317 58.618 46.4847 59.1552 47.5013C59.6923 48.5179 60.519 49.3522 61.5305 49.8988C62.542 50.4454 63.693 50.6796 64.8376 50.5718C65.9823 50.464 67.0693 50.019 67.961 49.2932C68.8527 48.5674 69.5091 47.5934 69.847 46.4944C70.2967 45.0232 70.1458 43.4338 69.427 42.0736C68.7083 40.7134 67.4803 39.6931 66.0115 39.2357Z" fill="#DBDBDB"/>
<path d="M50.5091 35.1594C49.2753 35.2777 47.2361 32.9828 46.6288 31.391C46.5873 31.2823 46.8909 30.234 47.1978 28.9427C47.38 28.1596 47.5653 27.2838 47.6772 26.4688L52.6059 28.4089C52.1751 29.3851 51.8649 30.4101 51.6821 31.4613C51.6727 31.5741 51.6727 31.6874 51.6821 31.8001C51.6837 31.8182 51.6837 31.8364 51.6821 31.8545C51.6885 32.5033 51.7013 35.0412 50.5091 35.1594Z" fill="#EB9481"/>
<path d="M51.6718 31.8065V31.8673C51.494 31.8671 51.3166 31.8522 51.1412 31.8225C48.1591 31.2887 47.8363 27.8208 47.8203 26.5391L52.6147 28.4185C52.1845 29.3949 51.8744 30.4198 51.691 31.4709C51.6752 31.582 51.6688 31.6943 51.6718 31.8065Z" fill="#263238"/>
<path d="M45.9457 21.3611C45.6931 23.2533 47.5022 28.2938 48.9757 29.2431C51.1076 30.6175 54.1729 30.2755 55.2308 27.808C56.26 25.4171 53.7861 18.8904 52.1816 18.0721C49.8195 16.8671 46.3196 18.5707 45.9457 21.3611Z" fill="#EB9481"/>
<path d="M51.7266 23.625C51.7266 23.625 51.7074 23.6506 51.7106 23.6634C51.8384 24.0022 51.9247 24.4113 51.6562 24.6222C51.6562 24.6222 51.6562 24.6478 51.6562 24.6414C52.0238 24.4528 51.9024 23.9254 51.7266 23.625Z" fill="#263238"/>
<path d="M51.3015 23.3764C50.7389 23.5202 51.0681 24.6357 51.5891 24.5047C52.1101 24.3736 51.7745 23.2549 51.3015 23.3764Z" fill="#263238"/>
<path d="M53.6719 23.0469C53.6719 23.0469 53.7038 23.0469 53.707 23.0692C53.7997 23.4176 53.9627 23.8012 54.3079 23.8268C54.3079 23.8268 54.3239 23.8268 54.3079 23.8459C53.9148 23.9035 53.7006 23.3921 53.6719 23.0469Z" fill="#263238"/>
<path d="M53.8728 22.5955C54.4162 22.3909 54.7901 23.4937 54.2851 23.6854C53.7801 23.8772 53.4157 22.7681 53.8728 22.5955Z" fill="#263238"/>
<path d="M50.7134 22.9929C50.847 22.9056 50.9761 22.8118 51.1002 22.7116C51.2472 22.6029 51.3783 22.5294 51.4422 22.3504C51.4552 22.2976 51.4503 22.242 51.4283 22.1923C51.4063 22.1426 51.3685 22.1015 51.3207 22.0756C51.218 22.0383 51.1071 22.0294 50.9998 22.0496C50.8924 22.0699 50.7924 22.1186 50.7103 22.1906C50.5217 22.3087 50.3847 22.4936 50.3267 22.7084C50.3155 22.7581 50.3191 22.81 50.3369 22.8577C50.3547 22.9054 50.3861 22.9469 50.4271 22.977C50.4681 23.0072 50.5171 23.0248 50.5679 23.0276C50.6188 23.0304 50.6693 23.0183 50.7134 22.9929Z" fill="#263238"/>
<path d="M54.1379 21.8974C53.9793 21.907 53.8203 21.907 53.6617 21.8974C53.4937 21.9288 53.3199 21.9017 53.1695 21.8206C53.1274 21.7866 53.0977 21.7397 53.085 21.6871C53.0723 21.6346 53.0773 21.5793 53.0991 21.5298C53.157 21.4378 53.2386 21.3631 53.3354 21.3136C53.4321 21.2641 53.5404 21.2416 53.6489 21.2485C53.8763 21.2212 54.1054 21.2831 54.2882 21.4211C54.3336 21.4532 54.3676 21.4988 54.3854 21.5515C54.4032 21.6041 54.4037 21.6611 54.387 21.7141C54.3703 21.7671 54.3371 21.8134 54.2924 21.8464C54.2476 21.8793 54.1935 21.8972 54.1379 21.8974Z" fill="#263238"/>
<path d="M52.2947 26.8768C52.4034 26.9311 52.5184 27.0206 52.6463 26.9918C52.7745 26.9513 52.893 26.8849 52.9947 26.7969C52.9947 26.7969 53.017 26.7969 53.0138 26.7969C52.9851 26.8801 52.9342 26.9538 52.8666 27.0101C52.799 27.0665 52.7173 27.1033 52.6303 27.1165C52.5547 27.1194 52.4799 27.0996 52.4155 27.0598C52.3512 27.0199 52.3002 26.9618 52.2691 26.8928C52.2563 26.8832 52.2819 26.8672 52.2947 26.8768Z" fill="#263238"/>
<path d="M52.351 25.7344C52.4789 25.8454 52.6285 25.9286 52.7902 25.9787C52.952 26.0287 53.1224 26.0446 53.2907 26.0253C53.4378 26.011 53.5821 25.9755 53.719 25.9198L53.7989 25.8878L53.8692 25.8527C53.8871 25.8439 53.9015 25.8293 53.9102 25.8114C53.9189 25.7934 53.9213 25.7731 53.9172 25.7536C53.9185 25.7419 53.9185 25.7301 53.9172 25.7184V25.6897C53.8468 25.4212 53.6998 25.0216 53.6998 25.0216C53.8117 25.044 54.3742 25.1175 54.3391 24.9833C53.9441 23.7894 53.4279 22.6391 52.7985 21.5505C52.7934 21.5449 52.7867 21.5412 52.7793 21.5397C52.7719 21.5383 52.7643 21.5392 52.7575 21.5424C52.7507 21.5457 52.7451 21.551 52.7415 21.5576C52.738 21.5642 52.7367 21.5718 52.7377 21.5792C53.0893 22.682 53.6327 23.7176 54.0003 24.8203C53.7998 24.7932 53.5966 24.7932 53.3962 24.8203C53.361 24.8426 53.6902 25.5842 53.7158 25.7088C53.5042 25.7951 53.2775 25.8379 53.049 25.8346C52.8206 25.8313 52.5951 25.782 52.3861 25.6897C52.3414 25.6833 52.319 25.7152 52.351 25.7344Z" fill="#263238"/>
<path d="M53.5289 25.832C53.4382 26.0656 53.2898 26.2724 53.0974 26.4329C52.988 26.5149 52.8567 26.5627 52.7202 26.5704C52.423 26.5704 52.3431 26.3275 52.3303 26.0941C52.3237 25.971 52.3323 25.8476 52.3558 25.7266C52.7253 25.8869 53.1367 25.9239 53.5289 25.832Z" fill="#263238"/>
<path d="M53.0952 26.4304C52.9858 26.5124 52.8546 26.5602 52.7181 26.5678C52.4208 26.5678 52.3409 26.3249 52.3281 26.0916C52.4755 26.0538 52.6312 26.0666 52.7704 26.1281C52.9095 26.1895 53.0239 26.296 53.0952 26.4304Z" fill="#FF97B8"/>
<path d="M46.8593 26.3191C48.2209 25.9419 48.3552 24.1072 47.5913 22.9406C47.5913 22.9406 51.2957 22.1575 50.4679 19.2553C50.4679 19.2553 51.8551 20.2909 53.4756 19.7667L53.987 20.6265C54.3066 20.3932 54.3322 19.2233 53.1592 18.7279C53.1592 18.7279 52.5966 17.3343 51.2414 16.8517C50.8732 16.7077 50.4711 16.6733 50.0837 16.7527C49.6964 16.8321 49.3402 17.0219 49.0584 17.2992C48.2847 17.071 47.4527 17.1524 46.7379 17.5261C46.3673 17.7279 46.0504 18.0154 45.8136 18.3646C45.5767 18.7137 45.4268 19.1145 45.3762 19.5334C45.3762 19.5334 43.743 20.4922 43.8836 21.8411C43.9162 22.2252 44.0293 22.5981 44.2154 22.9356C44.4015 23.2732 44.6565 23.5678 44.9639 23.8004C44.9639 23.8004 44.6986 24.4396 45.2836 25.4273C45.6863 26.0538 46.447 26.4309 46.8593 26.3191Z" fill="#263238"/>
<path d="M50.2946 19.0234C50.4028 19.2444 50.4885 19.4757 50.5503 19.7138C50.6148 19.9484 50.6512 20.1898 50.659 20.433C50.6777 20.9115 50.5131 21.3791 50.1987 21.7403C49.8724 22.0984 49.4646 22.3725 49.0097 22.5393C48.7796 22.616 48.5494 22.7055 48.3129 22.7663C48.0764 22.827 47.8335 22.8781 47.5938 22.9421C47.8399 22.9165 48.086 22.8813 48.3321 22.8494C48.5782 22.8174 48.8147 22.7279 49.0576 22.6672C49.544 22.5104 49.9834 22.2346 50.3362 21.8649C50.6686 21.4663 50.8326 20.9538 50.7932 20.4362C50.7502 19.9305 50.5786 19.4441 50.2946 19.0234Z" fill="#263238"/>
<path d="M45.3758 19.5312C44.9266 19.6948 44.5155 19.9482 44.1676 20.276C43.8029 20.6105 43.5685 21.0635 43.506 21.5545C43.488 21.7984 43.5107 22.0436 43.5731 22.28C43.6248 22.5171 43.7178 22.7433 43.848 22.9481C44.0972 23.3639 44.4946 23.67 44.9603 23.8047C44.5356 23.6144 44.1852 23.2899 43.9631 22.8809C43.7435 22.4808 43.6446 22.0256 43.6786 21.5705C43.7008 21.3479 43.7637 21.1312 43.864 20.9312C43.9733 20.7318 44.1076 20.547 44.2635 20.3815C44.5869 20.041 44.9624 19.754 45.3758 19.5312Z" fill="#263238"/>
<path d="M49.0625 17.2979C49.3496 17.0581 49.6733 16.866 50.0214 16.729C50.363 16.5927 50.7339 16.5465 51.0985 16.5947C51.4601 16.6604 51.7996 16.8153 52.0862 17.0454C52.3801 17.2808 52.6385 17.5575 52.8533 17.8668C52.6918 17.5157 52.4601 17.2013 52.1725 16.9431C51.8803 16.6729 51.5162 16.4931 51.1241 16.4253C50.7303 16.371 50.3291 16.4333 49.9702 16.6043C49.621 16.7671 49.3113 17.0037 49.0625 17.2979Z" fill="#263238"/>
<path d="M52.7005 20.0267C52.2662 20.033 51.834 19.966 51.422 19.8285C51.222 19.7584 51.0318 19.6628 50.8562 19.5441C50.6777 19.4177 50.5136 19.2719 50.3672 19.1094C50.462 19.3193 50.6004 19.5067 50.7731 19.6591C50.948 19.8025 51.1487 19.911 51.3644 19.9788C51.5805 20.0539 51.807 20.0948 52.0356 20.1002C52.2598 20.1125 52.4844 20.0877 52.7005 20.0267Z" fill="#263238"/>
<path d="M47.9262 25.4107C47.9262 25.4107 46.4431 23.9532 45.7591 24.5093C45.0751 25.0655 46.3984 27.3348 47.3572 27.501C47.478 27.5307 47.6036 27.5356 47.7263 27.5155C47.849 27.4954 47.9665 27.4508 48.0715 27.3842C48.1766 27.3176 48.2671 27.2306 48.3377 27.1282C48.4083 27.0257 48.4575 26.9101 48.4823 26.7883L47.9262 25.4107Z" fill="#EB9481"/>
<path d="M46.1562 25.1529V25.1753C46.8307 25.3128 47.2686 25.8337 47.6106 26.3899C47.5623 26.3343 47.5026 26.2898 47.4356 26.2593C47.3686 26.2287 47.2958 26.2129 47.2222 26.2129C47.1486 26.2129 47.0758 26.2287 47.0088 26.2593C46.9418 26.2898 46.8822 26.3343 46.8339 26.3899C46.8339 26.4059 46.8339 26.4283 46.8594 26.4219C46.9615 26.3686 47.0773 26.3477 47.1915 26.3619C47.3058 26.3762 47.4129 26.425 47.4987 26.5018C47.6434 26.6342 47.7731 26.7821 47.8854 26.9428C47.927 26.994 48.0229 26.9428 47.9877 26.8853C47.8535 26.0735 47.0256 25.073 46.1562 25.1529Z" fill="#263238"/>
<path d="M46.1641 30.8226L46.4262 28.8281L51.9333 31.9988L52.0932 33.9549L46.1641 30.8226Z" fill="#EBEBEB"/>
<path d="M30.2882 57.5359C30.3298 57.6062 53.8799 61.9148 54.1388 61.7198C54.5 61.4449 55.3214 38.3359 51.6873 33.0908C50.7923 31.8123 47.3244 29.9776 46.0458 30.5785C42.7345 32.1255 40.3341 36.2359 38.8319 38.6043C37.7132 40.3623 36.1853 43.4275 34.7374 46.595C32.3434 51.8081 30.1412 57.2802 30.2882 57.5359Z" fill="#455A64"/>
<path d="M48.6457 37.2072C50.394 43.1523 53.6574 52.3319 57.4226 54.0803C59.2701 54.9369 69.1529 52.7634 72.1255 52.0507C73.404 51.7311 69.495 43.0723 68.1014 43.0628C66.7078 43.0532 60.7947 44.7951 60.1107 44.3413C59.2349 43.7755 56.2208 38.9076 52.8264 34.6853C48.8438 29.7279 47.2297 32.3776 48.6457 37.2072Z" fill="#EB9481"/>
<path d="M79.6747 40.118C80.0263 40.7572 79.0674 41.4476 79.0674 41.4476C79.5565 41.6134 79.9725 41.9446 80.2436 42.3841C80.6847 43.18 79.6267 44.2188 79.6267 44.2188C80.0981 44.4958 80.4755 44.9077 80.7103 45.4014C81.0555 46.2069 80.1413 47.4087 80.1413 47.4087C80.4333 47.9021 80.5388 48.4838 80.4386 49.0484C80.119 50.5474 77.9008 51.3305 76.5008 51.8451C75.1008 52.3597 70.658 52.5003 69.8142 52.6154L66.4453 43.6658C66.4453 43.6658 72.0612 39.5842 73.7967 39.2134C75.2478 38.897 78.9268 38.7212 79.6747 40.118Z" fill="#EB9481"/>
<path d="M79.0329 41.4095C77.4028 41.368 75.7695 41.7292 74.1937 42.0712C74.1586 42.0712 74.1713 42.1351 74.1937 42.1255C75.7567 41.7579 77.4539 41.8059 79.0265 41.4862C79.084 41.4798 79.0744 41.4095 79.0329 41.4095Z" fill="#263238"/>
<path d="M79.5575 44.1016C79.1859 44.1283 78.8195 44.2035 78.4675 44.3253C78.0904 44.4318 77.7132 44.5437 77.336 44.6609C76.5849 44.8974 75.837 45.1499 75.0987 45.4248C75.0667 45.4248 75.0763 45.4887 75.0987 45.4792C75.8498 45.2458 76.6041 45.0221 77.3616 44.8207C77.742 44.7184 78.1223 44.6194 78.5027 44.5267C78.868 44.4591 79.2249 44.3519 79.567 44.207C79.577 44.2017 79.5852 44.1936 79.5905 44.1836C79.5959 44.1737 79.5982 44.1624 79.5972 44.1511C79.5961 44.1399 79.5918 44.1292 79.5848 44.1204C79.5777 44.1116 79.5682 44.105 79.5575 44.1016Z" fill="#263238"/>
<path d="M80.1056 47.4062C79.7738 47.4347 79.4495 47.5201 79.1467 47.6588L78.1239 47.9976C77.4399 48.2181 76.7591 48.4386 76.0687 48.6368C76.0336 48.6368 76.0463 48.7007 76.0687 48.6912C76.7687 48.493 77.4751 48.3076 78.1751 48.103C78.5203 48.004 78.8623 47.9017 79.2043 47.7834C79.5272 47.7208 79.836 47.5995 80.1152 47.4254C80.1152 47.4254 80.1216 47.4062 80.1056 47.4062Z" fill="#263238"/>
<path d="M65.904 43.0472L69.177 54.183C69.177 54.183 57.795 55.6916 55.7015 53.7803C52.16 50.5361 49.0692 41.1997 48.1519 36.2839C47.2345 31.368 49.6158 30.3164 52.7641 34.3054C55.9124 38.2943 59.9206 43.8942 60.1667 44.0924C60.4128 44.2905 65.904 43.0472 65.904 43.0472Z" fill="#455A64"/>
<path d="M65.2231 48.9286C64.9994 48.1487 64.7565 47.3784 64.5136 46.6081C64.3953 46.2374 64.2834 45.8666 64.1524 45.499C64.0213 45.1315 63.9031 44.6872 63.7401 44.3036C63.7401 44.2977 63.7377 44.292 63.7335 44.2878C63.7293 44.2836 63.7236 44.2812 63.7177 44.2812C63.7118 44.2812 63.7061 44.2836 63.7019 44.2878C63.6977 44.292 63.6953 44.2977 63.6953 44.3036C63.7624 44.7159 63.8935 45.1251 63.9862 45.5342C64.0789 45.9433 64.1811 46.2853 64.2802 46.6593C64.4912 47.4392 64.7021 48.2223 64.9195 48.9958C65.3766 50.5523 65.8784 52.0865 66.3962 53.6208C66.3994 53.6275 66.4048 53.6329 66.4116 53.636C66.4183 53.6391 66.426 53.6398 66.4331 53.6379C66.4403 53.636 66.4466 53.6317 66.451 53.6256C66.4553 53.6196 66.4574 53.6122 66.4569 53.6048C66.0797 52.045 65.6738 50.482 65.2231 48.9286Z" fill="#263238"/>
<path d="M54.5082 52.292C53.7379 51.3331 51.2672 46.5643 49.7138 41.4407C49.2951 40.0631 48.886 38.6823 48.4673 37.3047H48.4449C48.5887 38.1581 48.7645 39.0019 48.9851 39.8425C48.9595 39.785 48.9371 39.7307 48.9115 39.6763C48.7549 39.3407 48.5919 39.0115 48.4193 38.6823C48.4193 38.6631 48.3746 38.6823 48.3842 38.6983C48.5216 39.0499 48.659 39.4014 48.8125 39.7466C48.9084 39.964 49.0202 40.1781 49.1321 40.3859C49.228 40.7503 49.3239 41.1146 49.4517 41.4758C52.648 51.2053 54.3836 52.1258 54.4667 52.2984C54.4699 52.3463 54.5338 52.3208 54.5082 52.292Z" fill="#263238"/>
</svg>
