<svg width="165" height="140" viewBox="0 0 165 140" fill="none" xmlns="http://www.w3.org/2000/svg">
<path d="M108.052 19.237C107.163 19.191 106.273 19.1779 105.39 19.1943C97.0471 19.3453 90.1392 23.4625 83.3528 27.862C77.9683 31.3652 72.9679 34.3299 66.6083 35.814C54.9463 38.539 44.568 40.9161 35.201 48.9304C31.9178 51.7277 28.9628 54.9847 27.121 58.8786C25.5056 62.2964 24.8227 66.082 24.4386 69.8479C23.887 75.3801 23.9658 81.0601 25.6501 86.3625C28.1585 94.3309 34.1438 100.93 41.2946 105.257C48.4455 109.585 56.7258 111.765 65.0094 112.783C83.3101 115.032 103.095 110.445 117.708 98.9701C135.993 84.6125 147.182 53.8027 133.75 32.685C128.234 24.0009 118.056 19.7262 108.052 19.237Z" fill="#407BFF"/>
<path opacity="0.9" d="M108.052 19.237C107.163 19.191 106.273 19.1779 105.39 19.1943C97.0471 19.3453 90.1392 23.4625 83.3528 27.862C77.9683 31.3652 72.9679 34.3299 66.6083 35.814C54.9463 38.539 44.568 40.9161 35.201 48.9304C31.9178 51.7277 28.9628 54.9847 27.121 58.8786C25.5056 62.2964 24.8227 66.082 24.4386 69.8479C23.887 75.3801 23.9658 81.0601 25.6501 86.3625C28.1585 94.3309 34.1438 100.93 41.2946 105.257C48.4455 109.585 56.7258 111.765 65.0094 112.783C83.3101 115.032 103.095 110.445 117.708 98.9701C135.993 84.6125 147.182 53.8027 133.75 32.685C128.234 24.0009 118.056 19.7262 108.052 19.237Z" fill="white"/>
<path d="M147.998 53.707V80.5966C147.999 81.1249 147.895 81.6481 147.693 82.1362C147.491 82.6244 147.195 83.0679 146.821 83.4415C146.448 83.815 146.004 84.1113 145.516 84.3133C145.028 84.5152 144.505 84.6189 143.976 84.6185H93.2407C92.174 84.6185 91.151 84.1948 90.3968 83.4405C89.6425 82.6863 89.2188 81.6633 89.2188 80.5966V53.707C89.2187 53.55 89.2285 53.3932 89.2483 53.2375C89.3596 52.2565 89.8281 51.3508 90.5645 50.6932C91.3008 50.0356 92.2534 49.672 93.2407 49.6719H143.976C144.961 49.6715 145.912 50.0326 146.649 50.6868C147.385 51.341 147.856 52.2428 147.972 53.221C147.991 53.3823 148 53.5446 147.998 53.707Z" fill="white" stroke="#407BFF" stroke-linecap="round" stroke-linejoin="round"/>
<path d="M100.983 70.7284C100.237 68.8901 100.01 66.8822 100.326 64.9237C100.931 61.4435 103.649 58.3047 107.113 57.6185C112.149 56.6336 116.963 60.5964 122.104 60.3797C125.716 60.2287 129.462 58.0486 132.696 59.6377C137.818 62.1592 136.38 70.0061 133.911 73.8344C131.346 77.8136 126.671 80.1316 122.124 80.9787" stroke="#407BFF" stroke-linecap="round" stroke-linejoin="round" stroke-dasharray="5 5"/>
<path d="M102.23 87.3956L107.68 89.6183L110.957 86.8637L110.645 76.4986L108.813 75.75L101.445 82.9797L102.23 87.3956Z" fill="white" stroke="#263238" stroke-miterlimit="10"/>
<path d="M105.299 92.119L102.134 90.8287C101.981 90.7668 101.841 90.675 101.723 90.5587C101.606 90.4424 101.512 90.3039 101.448 90.1512C101.385 89.9985 101.352 89.8347 101.352 89.6692C101.352 89.5037 101.384 89.3399 101.448 89.1871C101.51 89.0337 101.602 88.8941 101.718 88.7764C101.834 88.6588 101.973 88.5655 102.126 88.502C102.279 88.4384 102.442 88.4059 102.608 88.4063C102.773 88.4066 102.937 88.4399 103.09 88.5042L106.242 89.8208C106.395 89.8827 106.535 89.9745 106.652 90.0908C106.77 90.2071 106.864 90.3456 106.927 90.4983C106.991 90.651 107.024 90.8148 107.024 90.9803C107.024 91.1458 106.991 91.3097 106.928 91.4624C106.797 91.7638 106.553 92.0016 106.248 92.1244C105.943 92.2473 105.603 92.2454 105.299 92.119Z" fill="#407BFF"/>
<path d="M109.738 76.1328L107.125 82.5384" stroke="#263238" stroke-miterlimit="10"/>
<path d="M107.688 82.7597C107.645 82.8675 107.57 82.9601 107.474 83.0257C107.379 83.0913 107.266 83.1271 107.149 83.1285C107.033 83.1299 106.919 83.0968 106.822 83.0335C106.725 82.9701 106.648 82.8793 106.602 82.7726C106.557 82.6659 106.543 82.548 106.565 82.4337C106.586 82.3195 106.64 82.2141 106.721 82.1309C106.802 82.0477 106.906 81.9903 107.02 81.9661C107.133 81.9418 107.252 81.9518 107.359 81.9947C107.504 82.0531 107.62 82.1663 107.681 82.3096C107.743 82.4529 107.745 82.6147 107.688 82.7597Z" fill="#263238"/>
<path opacity="0.2" d="M105.299 92.119L102.134 90.8287C101.981 90.7668 101.841 90.675 101.723 90.5587C101.606 90.4424 101.512 90.3039 101.448 90.1512C101.385 89.9985 101.352 89.8347 101.352 89.6692C101.352 89.5037 101.384 89.3399 101.448 89.1871C101.51 89.0337 101.602 88.8941 101.718 88.7764C101.834 88.6588 101.973 88.5655 102.126 88.502C102.279 88.4384 102.442 88.4059 102.608 88.4063C102.773 88.4066 102.937 88.4399 103.09 88.5042L106.242 89.8208C106.395 89.8827 106.535 89.9745 106.652 90.0908C106.77 90.2071 106.864 90.3456 106.927 90.4983C106.991 90.651 107.024 90.8148 107.024 90.9803C107.024 91.1458 106.991 91.3097 106.928 91.4624C106.797 91.7638 106.553 92.0016 106.248 92.1244C105.943 92.2473 105.603 92.2454 105.299 92.119Z" fill="black"/>
<path d="M94.5 83.0934C95.6372 80.128 97.9059 77.7358 100.807 76.4431C103.708 75.1504 107.004 75.063 109.969 76.2003C112.934 77.3375 115.326 79.6061 116.619 82.5071C117.912 85.4081 117.999 88.7038 116.862 91.6692" stroke="#263238" stroke-miterlimit="10"/>
<path d="M117.196 91.7702L116.602 91.4688L116.3 92.0632L116.895 92.3646L117.196 91.7702Z" stroke="#263238" stroke-miterlimit="10"/>
<path d="M94.8288 83.2233L94.2344 82.9219L93.9329 83.5163L94.5274 83.8177L94.8288 83.2233Z" stroke="#263238" stroke-miterlimit="10"/>
<path d="M101.891 72.6641L120.218 80.6127" stroke="#263238" stroke-miterlimit="10"/>
<path d="M120.645 80.7134C120.619 80.7852 120.569 80.8458 120.503 80.8846C120.437 80.9234 120.36 80.938 120.284 80.926C120.209 80.9139 120.14 80.8759 120.09 80.8185C120.039 80.7612 120.01 80.688 120.008 80.6116C120.007 80.5633 120.016 80.5153 120.035 80.4709C120.054 80.4266 120.083 80.3871 120.119 80.3552C120.156 80.3233 120.199 80.2998 120.245 80.2863C120.291 80.2729 120.34 80.2699 120.388 80.2776C120.436 80.2852 120.481 80.3032 120.521 80.3305C120.561 80.3577 120.594 80.3934 120.619 80.435C120.644 80.4766 120.659 80.5232 120.663 80.5713C120.668 80.6194 120.661 80.6679 120.645 80.7134Z" fill="#407BFF"/>
<path d="M102.234 72.729C102.237 72.778 102.229 72.8269 102.21 72.8722C102.191 72.9175 102.162 72.958 102.126 72.9908C102.09 73.0236 102.046 73.0478 101.999 73.0616C101.952 73.0755 101.903 73.0787 101.854 73.0709C101.806 73.0631 101.76 73.0446 101.72 73.0167C101.679 72.9888 101.646 72.9523 101.621 72.9097C101.597 72.8672 101.583 72.8197 101.579 72.7709C101.575 72.722 101.583 72.6729 101.601 72.6273C101.598 72.5783 101.606 72.5294 101.625 72.4841C101.644 72.4388 101.672 72.3983 101.709 72.3655C101.745 72.3327 101.789 72.3085 101.836 72.2947C101.883 72.2808 101.932 72.2776 101.981 72.2854C102.029 72.2932 102.075 72.3117 102.115 72.3396C102.156 72.3675 102.189 72.404 102.213 72.4466C102.238 72.4891 102.252 72.5366 102.256 72.5854C102.26 72.6343 102.252 72.6834 102.234 72.729Z" fill="#407BFF"/>
<path d="M147.973 53.221H89.2422C89.3574 52.2419 89.8284 51.3393 90.5658 50.6849C91.3031 50.0305 92.2553 49.67 93.2412 49.6719H143.977C144.962 49.6715 145.913 50.0326 146.649 50.6868C147.386 51.341 147.857 52.2428 147.973 53.221Z" fill="#407BFF"/>
<path d="M135.516 51.2738C135.516 51.4037 135.478 51.5307 135.406 51.6386C135.334 51.7466 135.231 51.8308 135.111 51.8805C134.991 51.9302 134.859 51.9432 134.732 51.9179C134.604 51.8925 134.487 51.83 134.395 51.7382C134.304 51.6463 134.241 51.5293 134.216 51.4019C134.19 51.2746 134.203 51.1425 134.253 51.0225C134.303 50.9026 134.387 50.8 134.495 50.7278C134.603 50.6557 134.73 50.6172 134.86 50.6172C135.034 50.6172 135.201 50.6864 135.324 50.8095C135.447 50.9327 135.516 51.0997 135.516 51.2738Z" fill="white"/>
<path d="M138.211 51.9305C138.574 51.9305 138.868 51.6365 138.868 51.2738C138.868 50.9112 138.574 50.6172 138.211 50.6172C137.849 50.6172 137.555 50.9112 137.555 51.2738C137.555 51.6365 137.849 51.9305 138.211 51.9305Z" fill="white"/>
<path d="M142.212 51.2738C142.212 51.4037 142.173 51.5307 142.101 51.6386C142.029 51.7466 141.926 51.8308 141.806 51.8805C141.686 51.9302 141.554 51.9432 141.427 51.9179C141.3 51.8925 141.183 51.83 141.091 51.7382C140.999 51.6463 140.936 51.5293 140.911 51.4019C140.886 51.2746 140.899 51.1425 140.948 51.0225C140.998 50.9026 141.082 50.8 141.19 50.7278C141.298 50.6557 141.425 50.6172 141.555 50.6172C141.729 50.6172 141.896 50.6864 142.019 50.8095C142.143 50.9327 142.212 51.0997 142.212 51.2738Z" fill="white"/>
<path d="M145.795 54.4297H139.836V64.3089H145.795V54.4297Z" stroke="#407BFF" stroke-width="0.75" stroke-linecap="round" stroke-linejoin="round"/>
<path d="M142.215 55.2734H140.898V56.59H142.215V55.2734Z" fill="#407BFF"/>
<path d="M144.895 55.2734H143.578V56.59H144.895V55.2734Z" fill="#407BFF"/>
<path d="M142.215 57.4922H140.898V58.8088H142.215V57.4922Z" fill="#407BFF"/>
<path d="M144.895 57.4922H143.578V58.8088H144.895V57.4922Z" fill="#407BFF"/>
<path d="M142.215 59.7031H140.898V61.0197H142.215V59.7031Z" fill="#407BFF"/>
<path d="M144.895 59.7031H143.578V61.0197H144.895V59.7031Z" fill="#407BFF"/>
<path d="M142.215 61.9219H140.898V63.2385H142.215V61.9219Z" fill="#407BFF"/>
<path d="M144.895 61.9219H143.578V63.2385H144.895V61.9219Z" fill="#407BFF"/>
<path opacity="0.1" d="M144.895 55.2734H143.578V56.59H144.895V55.2734Z" fill="black"/>
<path opacity="0.2" d="M142.215 57.4922H140.898V58.8088H142.215V57.4922Z" fill="black"/>
<path opacity="0.3" d="M144.895 57.4922H143.578V58.8088H144.895V57.4922Z" fill="black"/>
<path opacity="0.4" d="M142.215 59.7031H140.898V61.0197H142.215V59.7031Z" fill="black"/>
<path opacity="0.5" d="M144.895 59.7031H143.578V61.0197H144.895V59.7031Z" fill="black"/>
<path opacity="0.6" d="M142.215 61.9219H140.898V63.2385H142.215V61.9219Z" fill="black"/>
<path opacity="0.7" d="M144.895 61.9219H143.578V63.2385H144.895V61.9219Z" fill="black"/>
<path d="M25.3516 46.9099C27.6914 36.1344 33.6486 26.4841 42.2328 19.5633C50.8171 12.6425 61.5114 8.86798 72.5381 8.86719C95.1628 8.86719 114.035 23.97 119.265 44.9827" stroke="#E6E6E6" stroke-linecap="round" stroke-linejoin="round" stroke-dasharray="4 4"/>
<path d="M25.3537 42.2891C24.3385 42.2891 23.3332 42.4891 22.3953 42.8777C21.4574 43.2663 20.6052 43.8359 19.8875 44.5539C19.1698 45.2719 18.6006 46.1243 18.2124 47.0624C17.8242 48.0005 17.6246 49.0058 17.625 50.0211C17.625 51.5543 18.807 53.7968 19.3553 54.7522C19.5949 55.1724 19.8215 55.596 20.0415 56.0228L21.5714 59.0269C21.6638 59.2095 21.8045 59.3633 21.9781 59.4715C22.1518 59.5798 22.3518 59.6384 22.5564 59.6409H28.1379C28.3425 59.6384 28.5425 59.5798 28.7161 59.4715C28.8898 59.3633 29.0305 59.2095 29.1229 59.0269L30.6528 56.0228C30.8695 55.596 31.0994 55.1724 31.339 54.7522C31.8873 53.7968 33.0693 51.5543 33.0693 50.0211C33.0693 47.9732 32.2569 46.0091 30.8104 44.5595C29.364 43.1099 27.4015 42.2934 25.3537 42.2891Z" fill="#407BFF"/>
<path d="M23.7074 59.6435C23.7074 59.6435 23.4414 52.5091 21.8819 52.7488C20.3224 52.9884 21.153 55.2998 25.0469 55.4246C28.9408 55.5493 28.7307 52.7389 27.9099 52.7422C27.0891 52.7455 25.766 55.8842 26.6426 59.637" stroke="#FAFAFA" stroke-linecap="round" stroke-linejoin="round"/>
<path d="M21.1406 45.0218C22.188 43.9219 23.7442 43.1635 26.0129 43.4524" stroke="#FAFAFA" stroke-linecap="round" stroke-linejoin="round"/>
<path d="M19.7656 46.6164C19.9581 46.3068 20.1961 46.0279 20.4715 45.7891" stroke="#FAFAFA" stroke-linecap="round" stroke-linejoin="round"/>
<path d="M29.0632 63.0864C29.0632 63.1225 29.0632 63.1554 29.0632 63.1882C29.0568 63.3432 29.0348 63.4972 28.9975 63.6479C28.9124 63.999 28.7422 64.3237 28.5018 64.5934C28.3308 64.7877 28.1208 64.9436 27.8854 65.0511C27.6501 65.1586 27.3947 65.2152 27.1359 65.2172H23.1173C22.676 65.2021 22.2526 65.0392 21.915 64.7546C21.5774 64.47 21.3452 64.0802 21.2557 63.6479C21.2184 63.4972 21.1964 63.3432 21.19 63.1882C21.19 63.1554 21.19 63.1225 21.19 63.0864C21.1867 63.0219 21.1867 62.9572 21.19 62.8927C21.1884 62.8731 21.1884 62.8533 21.19 62.8336C21.2422 62.3713 21.4387 61.9371 21.7514 61.5926C21.9224 61.3983 22.1324 61.2424 22.3678 61.1349C22.6031 61.0274 22.8585 60.9708 23.1173 60.9688H27.1327C27.5536 60.9847 27.9584 61.1352 28.2876 61.3982C28.6167 61.6612 28.8529 62.0227 28.9614 62.4298C29.0052 62.5652 29.0339 62.705 29.0468 62.8468C29.0484 62.8664 29.0484 62.8862 29.0468 62.9059C29.0552 62.9657 29.0606 63.026 29.0632 63.0864Z" fill="#407BFF"/>
<path opacity="0.2" d="M28.9652 62.4166H21.2891C21.3823 62.1112 21.5415 61.8298 21.7553 61.5926C21.9262 61.3983 22.1362 61.2424 22.3716 61.1349C22.607 61.0274 22.8624 60.9708 23.1211 60.9688H27.1365C27.5558 60.9839 27.9593 61.1325 28.2882 61.3929C28.6171 61.6534 28.8543 62.012 28.9652 62.4166Z" fill="black"/>
<path opacity="0.2" d="M28.9964 63.6484C28.9113 63.9996 28.741 64.3243 28.5006 64.594C28.3297 64.7882 28.1196 64.9442 27.8843 65.0517C27.6489 65.1592 27.3935 65.2158 27.1348 65.2178H23.1194C22.6781 65.2027 22.2547 65.0398 21.9171 64.7552C21.5795 64.4706 21.3473 64.0808 21.2578 63.6484H28.9964Z" fill="black"/>
<g opacity="0.3">
<path d="M29.0619 63.0809C29.0619 63.1171 29.0619 63.1499 29.0619 63.1827H21.1822C21.1822 63.1499 21.1822 63.1171 21.1822 63.0809C21.1788 63.0164 21.1788 62.9518 21.1822 62.8872C21.1806 62.8676 21.1806 62.8478 21.1822 62.8281H29.0455C29.0471 62.8478 29.0471 62.8676 29.0455 62.8872C29.0544 62.9515 29.0598 63.0161 29.0619 63.0809Z" fill="black"/>
</g>
<path d="M25.1234 67.453C25.1241 67.5557 25.0942 67.6563 25.0376 67.7421C24.981 67.8278 24.9002 67.8948 24.8055 67.9346C24.7107 67.9743 24.6063 67.9851 24.5055 67.9654C24.4047 67.9458 24.3119 67.8967 24.239 67.8242C24.1662 67.7518 24.1164 67.6594 24.0961 67.5587C24.0759 67.458 24.0859 67.3535 24.1251 67.2585C24.1643 67.1635 24.2308 67.0823 24.3161 67.0252C24.4015 66.968 24.5019 66.9375 24.6047 66.9375C24.6726 66.9371 24.74 66.9501 24.8029 66.9758C24.8659 67.0015 24.9231 67.0394 24.9713 67.0873C25.0195 67.1352 25.0578 67.1922 25.0839 67.255C25.11 67.3177 25.1234 67.385 25.1234 67.453Z" fill="#407BFF"/>
<path d="M24.6016 67.4531V80.0771H27.6484V102.846" stroke="#407BFF" stroke-miterlimit="10"/>
<path d="M42.8 24.6475V23.8891L42.3305 23.7512C42.3037 23.4948 42.2553 23.2411 42.186 22.9928L42.58 22.6907L42.2943 21.9881L41.8051 22.0373C41.6853 21.8076 41.547 21.588 41.3914 21.3807L41.6311 20.9539L41.0992 20.4121L40.6691 20.6485C40.4711 20.4882 40.2603 20.3443 40.0388 20.2184L40.0979 19.7325L39.3985 19.437L39.0899 19.8179C38.8445 19.7429 38.5929 19.6901 38.3381 19.6603L38.2067 19.1875H37.445L37.3071 19.657C37.0518 19.6825 36.7992 19.7297 36.552 19.7982L36.2466 19.4075L35.544 19.6898L35.5933 20.1758C35.3642 20.2979 35.1446 20.4373 34.9366 20.5927L34.5131 20.3498L33.9812 20.8751L34.2176 21.3085C34.0531 21.5065 33.908 21.7197 33.7842 21.9454L33.2983 21.883L32.9995 22.5824L33.3804 22.8877C33.3053 23.1353 33.2525 23.3891 33.2228 23.6461L32.75 23.7774V24.5326L33.2195 24.6738C33.2463 24.9302 33.2946 25.1839 33.364 25.4322L32.97 25.731L33.2556 26.4369L33.7448 26.3843C33.8618 26.6157 34.0003 26.8356 34.1585 27.041L33.9155 27.4711L34.4507 28.0095L34.8808 27.7764C35.0795 27.9393 35.2915 28.0854 35.5145 28.2131L35.4554 28.699L36.1547 28.9945L36.4633 28.6169C36.7114 28.6894 36.9651 28.741 37.2218 28.7712L37.3498 29.244H38.1082L38.2461 28.7745C38.5028 28.7496 38.7567 28.7012 39.0045 28.6301L39.3066 29.024L40.0092 28.7417L39.96 28.2558C40.1895 28.1344 40.4091 27.995 40.6166 27.8388L41.0434 28.0818L41.5852 27.5499L41.3521 27.1165C41.5158 26.9179 41.6609 26.7047 41.7854 26.4795L42.2714 26.5419L42.5701 25.8426L42.1893 25.534C42.2617 25.2881 42.3134 25.0366 42.3436 24.7821L42.8 24.6475ZM37.7602 25.9903C37.4125 25.9864 37.0737 25.8796 36.7866 25.6833C36.4995 25.487 36.2771 25.21 36.1473 24.8874C36.0175 24.5647 35.9862 24.2109 36.0574 23.8704C36.1286 23.53 36.299 23.2183 36.5472 22.9747C36.7954 22.7311 37.1102 22.5665 37.4519 22.5017C37.7936 22.4369 38.1468 22.4747 38.467 22.6105C38.7871 22.7462 39.0599 22.9738 39.2508 23.2645C39.4418 23.5552 39.5423 23.8959 39.5397 24.2437C39.538 24.4753 39.4906 24.7044 39.4001 24.9177C39.3097 25.1309 39.178 25.3243 39.0127 25.4865C38.8474 25.6488 38.6516 25.7769 38.4367 25.8633C38.2217 25.9498 37.9919 25.9929 37.7602 25.9903Z" fill="#407BFF"/>
<path d="M133.94 35.29L132.853 34.1638C132.82 33.6877 132.741 33.216 132.617 32.7553L133.194 31.5602L131.773 29.239L130.459 29.216C130.109 28.8946 129.727 28.6087 129.32 28.3624L128.808 26.8915L126.162 26.2578L125.036 27.3413C124.559 27.3736 124.087 27.4539 123.627 27.581L122.432 26.9965L120.114 28.428L120.091 29.7413C119.767 30.0901 119.482 30.4732 119.241 30.8839L117.77 31.3829L117.133 34.0095L118.22 35.1357C118.249 35.6154 118.328 36.0907 118.456 36.554L117.872 37.7688L119.293 40.09L120.606 40.1163C120.957 40.4377 121.339 40.7236 121.746 40.9699L122.255 42.4375L124.904 43.0745L126.024 41.991C126.504 41.9587 126.98 41.8796 127.445 41.7546L128.644 42.3325L130.965 40.9141L130.991 39.6008C131.313 39.2498 131.598 38.867 131.842 38.4583L133.303 37.9494L133.94 35.29ZM124.806 37.6408C124.217 37.4993 123.684 37.1864 123.273 36.7418C122.863 36.2972 122.593 35.7408 122.499 35.143C122.404 34.5451 122.489 33.9327 122.743 33.3832C122.996 32.8337 123.407 32.3717 123.924 32.0557C124.44 31.7398 125.038 31.584 125.643 31.608C126.248 31.6321 126.832 31.835 127.321 32.1911C127.811 32.5471 128.183 33.0403 128.393 33.6083C128.602 34.1762 128.638 34.7935 128.496 35.3819C128.305 36.1698 127.809 36.8498 127.117 37.2731C126.426 37.6965 125.595 37.8286 124.806 37.6408Z" fill="#263238"/>
<path d="M75.7636 7.74513L74.4011 6.80941C74.2662 6.32264 74.0825 5.85074 73.8528 5.40091L74.2008 4.01867L72.2309 1.91412L70.865 2.17021C70.4342 1.90581 69.9777 1.6858 69.5025 1.51357L68.662 0.0952138L65.7826 0L64.8469 1.36254C64.3597 1.49481 63.8877 1.67747 63.4384 1.90755L62.0759 1.55625L59.9713 3.52618L60.2241 4.88872C59.9634 5.3203 59.7488 5.77809 59.5839 6.25454L58.1688 7.09505L58.0703 9.97115L59.4263 10.9233C59.5622 11.4143 59.7492 11.8897 59.9844 12.3416L59.6561 13.7075L61.626 15.812L62.9919 15.5625C63.4241 15.8243 63.8804 16.0441 64.3544 16.2191L65.1916 17.6309L68.071 17.7327L69.0035 16.3669C69.4959 16.2347 69.9734 16.052 70.4284 15.8219L71.7909 16.1699L73.8955 14.1999L73.6459 12.8374C73.904 12.4056 74.1185 11.9492 74.2862 11.4749L75.7012 10.6344L75.7636 7.74513ZM66.7938 12.102C66.1538 12.0801 65.5347 11.869 65.0147 11.4952C64.4947 11.1214 64.0972 10.6018 63.8726 10.0022C63.648 9.40246 63.6062 8.74962 63.7527 8.1262C63.8992 7.50279 64.2272 6.93682 64.6954 6.49989C65.1636 6.06296 65.7508 5.7747 66.3828 5.67158C67.0149 5.56845 67.6633 5.6551 68.2461 5.92055C68.8288 6.186 69.3198 6.61833 69.6568 7.16285C69.9939 7.70738 70.1618 8.33963 70.1395 8.97962C70.1086 9.8369 69.7391 10.647 69.112 11.2323C68.4848 11.8176 67.6512 12.1303 66.7938 12.102Z" fill="#263238"/>
<path d="M70.127 12.071C71.8964 10.3016 71.8964 7.4328 70.127 5.66339C68.3576 3.89399 65.4888 3.89398 63.7194 5.66339C61.95 7.4328 61.95 10.3016 63.7194 12.071C65.4888 13.8404 68.3576 13.8404 70.127 12.071Z" stroke="white" stroke-miterlimit="10"/>
<path d="M116.66 23.1737L117.093 21.3745L116.053 20.7803C116.132 20.1587 116.157 19.5315 116.128 18.9055L117.228 18.3999L116.936 16.5646L115.747 16.4234C115.587 15.8107 115.374 15.213 115.11 14.6374L115.921 13.7509L114.936 12.1684L113.781 12.4967C113.396 11.9993 112.971 11.5348 112.51 11.1079L112.943 9.99488L111.44 8.90156L110.501 9.637C109.954 9.32815 109.383 9.06461 108.793 8.84903L108.744 7.65722L106.935 7.22383L106.351 8.26133C105.727 8.18369 105.097 8.15843 104.469 8.18582L103.944 7.08594L102.112 7.37486L101.967 8.56339C101.363 8.72452 100.773 8.93763 100.204 9.20033L99.3245 8.39923L97.7387 9.36778L98.067 10.5235C97.5693 10.9085 97.1067 11.337 96.6848 11.8039L95.5422 11.3705L94.4456 12.8743L95.2139 13.8133C94.8994 14.3597 94.6345 14.9333 94.4226 15.5271L93.2243 15.5829L92.7941 17.3788L93.8349 17.9698C93.7563 18.5947 93.7299 19.2251 93.7561 19.8544L92.6562 20.3535L92.9517 22.1888L94.137 22.3332C94.2976 22.9373 94.5107 23.5261 94.7739 24.093L93.9597 24.9795L94.9447 26.562L96.0971 26.2337C96.4816 26.7298 96.9078 27.1923 97.371 27.6159L96.9376 28.7552L98.4413 29.8485L99.3836 29.1164C99.9322 29.4249 100.505 29.6874 101.097 29.9011L101.147 31.0994L102.949 31.5328L103.537 30.4921C104.162 30.5714 104.792 30.5967 105.421 30.5676L105.92 31.6674L107.753 31.3785L107.9 30.1966C108.503 30.029 109.093 29.8161 109.663 29.5596L110.543 30.3673L112.129 29.402L111.801 28.243C112.297 27.8611 112.758 27.4347 113.176 26.9691L114.303 27.3796L115.396 25.8758L114.66 24.9368C114.971 24.3915 115.233 23.8203 115.445 23.2296L116.66 23.1737ZM103.58 24.9861C102.074 24.9826 100.632 24.3817 99.5694 23.3155C98.5068 22.2493 97.911 20.8048 97.9127 19.2996C97.9144 17.7943 98.5136 16.3512 99.5786 15.2874C100.644 14.2237 102.087 13.6261 103.593 13.6261C105.098 13.6261 106.542 14.2237 107.607 15.2874C108.672 16.3512 109.271 17.7943 109.273 19.2996C109.274 20.8048 108.679 22.2493 107.616 23.3155C106.553 24.3817 105.111 24.9826 103.606 24.9861H103.58Z" fill="#407BFF"/>
<path opacity="0.2" d="M116.66 23.1737L117.093 21.3745L116.053 20.7803C116.132 20.1587 116.157 19.5315 116.128 18.9055L117.228 18.3999L116.936 16.5646L115.747 16.4234C115.587 15.8107 115.374 15.213 115.11 14.6374L115.921 13.7509L114.936 12.1684L113.781 12.4967C113.396 11.9993 112.971 11.5348 112.51 11.1079L112.943 9.99488L111.44 8.90156L110.501 9.637C109.954 9.32815 109.383 9.06461 108.793 8.84903L108.744 7.65722L106.935 7.22383L106.351 8.26133C105.727 8.18369 105.097 8.15843 104.469 8.18582L103.944 7.08594L102.112 7.37486L101.967 8.56339C101.363 8.72452 100.773 8.93763 100.204 9.20033L99.3245 8.39923L97.7387 9.36778L98.067 10.5235C97.5693 10.9085 97.1067 11.337 96.6848 11.8039L95.5422 11.3705L94.4456 12.8743L95.2139 13.8133C94.8994 14.3597 94.6345 14.9333 94.4226 15.5271L93.2243 15.5829L92.7941 17.3788L93.8349 17.9698C93.7563 18.5947 93.7299 19.2251 93.7561 19.8544L92.6562 20.3535L92.9517 22.1888L94.137 22.3332C94.2976 22.9373 94.5107 23.5261 94.7739 24.093L93.9597 24.9795L94.9447 26.562L96.0971 26.2337C96.4816 26.7298 96.9078 27.1923 97.371 27.6159L96.9376 28.7552L98.4413 29.8485L99.3836 29.1164C99.9322 29.4249 100.505 29.6874 101.097 29.9011L101.147 31.0994L102.949 31.5328L103.537 30.4921C104.162 30.5714 104.792 30.5967 105.421 30.5676L105.92 31.6674L107.753 31.3785L107.9 30.1966C108.503 30.029 109.093 29.8161 109.663 29.5596L110.543 30.3673L112.129 29.402L111.801 28.243C112.297 27.8611 112.758 27.4347 113.176 26.9691L114.303 27.3796L115.396 25.8758L114.66 24.9368C114.971 24.3915 115.233 23.8203 115.445 23.2296L116.66 23.1737ZM103.58 24.9861C102.074 24.9826 100.632 24.3817 99.5694 23.3155C98.5068 22.2493 97.911 20.8048 97.9127 19.2996C97.9144 17.7943 98.5136 16.3512 99.5786 15.2874C100.644 14.2237 102.087 13.6261 103.593 13.6261C105.098 13.6261 106.542 14.2237 107.607 15.2874C108.672 16.3512 109.271 17.7943 109.273 19.2996C109.274 20.8048 108.679 22.2493 107.616 23.3155C106.553 24.3817 105.111 24.9826 103.606 24.9861H103.58Z" fill="black"/>
<path d="M104.936 26.8946C109.068 26.8946 112.418 23.5446 112.418 19.4122C112.418 15.2797 109.068 11.9297 104.936 11.9297C100.803 11.9297 97.4531 15.2797 97.4531 19.4122C97.4531 23.5446 100.803 26.8946 104.936 26.8946Z" stroke="white" stroke-miterlimit="10"/>
<path d="M144.745 38.8513L142.86 38.8415L141.783 40.3912L141.209 38.5953L139.406 38.047L140.936 36.9471L140.897 35.0625L142.417 36.1788L144.196 35.5616L143.605 37.3509L144.745 38.8513Z" fill="#407BFF"/>
<path d="M146.133 45.5639L146.743 44.5855L146.287 43.525L147.407 43.8041L148.273 43.0391L148.352 44.1915L149.347 44.7825L148.277 45.2126L148.024 46.342L147.282 45.4555L146.133 45.5639Z" fill="#407BFF"/>
<path d="M128.571 98.1172L128.216 100.823L130.242 102.648L127.559 103.144L126.45 105.636L125.149 103.239L122.438 102.953L124.312 100.977L123.748 98.3076L126.207 99.4797L128.571 98.1172Z" stroke="#407BFF" stroke-miterlimit="10"/>
<path d="M135.236 97.8132L134.343 97.0811L133.233 97.4028L133.65 96.3259L133 95.3705L134.156 95.4362L134.862 94.5234L135.157 95.6397L136.244 96.0304L135.272 96.6575L135.236 97.8132Z" fill="#407BFF"/>
<path d="M82.0771 140C118.756 140 148.49 138.323 148.49 136.254C148.49 134.185 118.756 132.508 82.0771 132.508C45.3982 132.508 15.6641 134.185 15.6641 136.254C15.6641 138.323 45.3982 140 82.0771 140Z" fill="#F5F5F5"/>
<path d="M42.1675 114.426C46.0023 116.941 47.9953 121.731 47.7819 126.308C47.6768 128.538 47.0628 130.819 45.6051 132.507C44.1473 134.195 42.0461 135.117 39.9415 135.79C37.7812 136.48 35.4895 136.956 33.247 136.618C31.0046 136.279 28.8015 135.015 27.8166 132.973C26.7791 130.826 27.2223 128.272 27.9348 126C28.6472 123.728 29.6223 121.462 29.5764 119.082C29.5567 117.23 28.9197 115.447 28.4601 113.655C28.0004 111.862 27.6951 109.931 28.3189 108.188C28.9427 106.445 30.7649 105.01 32.5871 105.401" stroke="#263238" stroke-linecap="round" stroke-linejoin="round" stroke-dasharray="5 5"/>
<path d="M65.6618 34.8558C65.6618 34.8558 62.6773 32.2095 59.6009 34.8558C56.5246 37.5021 56.1601 44.341 53.875 47.3616C53.875 47.3616 55.1161 49.916 60.0245 50.2279C64.9329 50.5398 70.2846 45.5558 70.2846 45.5558C70.2846 45.5558 71.1119 33.7658 65.6618 34.8558Z" fill="#263238"/>
<path d="M60.7749 48.2769C60.4926 48.3722 58.2764 48.9861 54.6484 51.2975L57.275 57.3649C57.275 57.3649 58.1024 62.0468 60.0953 64.9492L64.1993 68.7741L72.2597 65.202L70.0829 53.8584L70.2799 48.0537C70.2799 48.0537 67.4957 46.087 60.7749 48.2769Z" fill="#407BFF"/>
<path d="M67.4753 41.7831C67.4347 42.1942 67.2456 42.5764 66.9434 42.858C66.6412 43.1397 66.2466 43.3015 65.8337 43.3131C65.5106 43.7556 65.1334 44.156 64.7108 44.5049C65.0654 47.2496 66.7957 47.2496 66.7957 47.2496C64.0739 51.7411 60.7644 48.2806 60.7644 48.2806C61.1172 48.161 61.4284 47.9428 61.6612 47.6519C61.8939 47.3609 62.0384 47.0094 62.0777 46.639C62.1088 46.2756 62.0583 45.9099 61.9299 45.5686C59.5496 45.5358 58.3184 43.9007 58.3939 41.4843C58.4694 39.0678 59.9239 36.8582 59.9239 36.8582C61.49 37.4722 64.3136 36.6875 64.3136 36.6875C64.1757 40.3975 65.8764 41.0443 65.8764 41.0443C65.8764 41.0443 67.715 40.2531 67.4753 41.7831Z" fill="#B55B52"/>
<path d="M60.8516 42.5484C61.1725 42.6346 61.513 42.6114 61.8193 42.4823C62.1255 42.3533 62.38 42.1258 62.5424 41.8359" stroke="#263238" stroke-width="0.5" stroke-linecap="round" stroke-linejoin="round"/>
<path d="M61.9928 40.04C61.9928 40.2567 61.868 40.4307 61.7334 40.4241C61.5988 40.4176 61.4937 40.237 61.5003 40.0203C61.5069 39.8036 61.6251 39.6296 61.7629 39.6329C61.9008 39.6361 62.0026 39.82 61.9928 40.04Z" fill="#263238"/>
<path d="M59.43 39.8009C59.43 40.0044 59.3151 40.162 59.1903 40.1588C59.0655 40.1555 58.9703 39.9847 58.9769 39.7845C58.9834 39.5842 59.0918 39.4233 59.2198 39.4299C59.3479 39.4364 59.43 39.594 59.43 39.8009Z" fill="#263238"/>
<path d="M62.0078 38.5557C62.0078 38.5557 62.5889 38.4999 63.0716 39.2124" stroke="#263238" stroke-width="0.75" stroke-linecap="round" stroke-linejoin="round"/>
<path d="M60.4116 41.5633V39.7969L59.5547 41.294C59.7973 41.4865 60.1025 41.5824 60.4116 41.5633Z" fill="#A02724"/>
<path d="M58.3872 53.7125L58.1475 59.3827L57.7732 59.4812C57.5631 59.5337 57.3595 59.5731 57.1593 59.6059C53.4492 60.2363 51.3906 58.0858 51.3906 58.0858L54.6443 51.3125L58.3872 53.7125Z" fill="#407BFF"/>
<path d="M59.7221 38.1641C59.5092 38.1623 59.2981 38.2036 59.1016 38.2856" stroke="#263238" stroke-width="0.75" stroke-linecap="round" stroke-linejoin="round"/>
<path d="M60.4531 73.662C60.4531 73.662 60.7814 82.9995 61.6811 96.9499C62.5807 110.9 67.4989 129.825 67.4989 129.825H72.2596C72.2596 129.825 69.633 94.6582 69.4557 85.8657C69.4557 85.8657 80.924 115.49 90.0974 125.238L93.1573 123.327C93.1573 123.327 80.7336 94.274 79.3941 90.0715C78.0545 85.869 76.5902 70.3722 72.2596 65.2109H64.4882L60.4531 73.662Z" fill="#263238"/>
<path d="M69.2188 130.742L69.8984 134.682L72.85 134.603L72.3608 130.742H69.2188Z" fill="#B55B52"/>
<path d="M90.9453 126.051C91.011 126.182 92.6493 128.933 92.6493 128.933L94.6783 126.773L92.8135 124.219L90.9453 126.051Z" fill="#B55B52"/>
<path d="M66.5547 129.331L73.5841 128.789L73.2229 131.314L67.7563 131.793L66.5547 129.331Z" fill="#407BFF"/>
<path d="M88.9688 125.816L93.585 122.312L94.2416 124.575L90.5086 127.159L88.9688 125.816Z" fill="#407BFF"/>
<path d="M39.0703 112.576L39.0966 101.57L48.375 106.328L39.0703 112.576Z" fill="#407BFF"/>
<path d="M88.1747 28.6982L48.3754 106.327L45.4304 104.82L41.9797 103.05L39.0938 101.569L78.8897 23.9375L82.081 25.5725L85.8075 27.4834L88.1747 28.6982Z" fill="#407BFF"/>
<path opacity="0.4" d="M42.8198 110.06L39.0703 112.575L39.0834 108.234L42.8198 110.06Z" fill="black"/>
<path opacity="0.2" d="M88.1818 28.6992L48.3826 106.328L45.4375 104.821L85.8146 27.4844L88.1818 28.6992Z" fill="black"/>
<path opacity="0.2" d="M82.081 25.5725L41.9797 103.05L39.0938 101.569L78.8897 23.9375L82.081 25.5725Z" fill="black"/>
<path opacity="0.4" d="M48.3783 106.323L39.0703 112.571L39.0834 108.05L39.0966 101.562L48.3783 106.323Z" fill="black"/>
<path d="M80.0341 60.0567C74.0882 66.1274 66.2446 62.9656 66.2446 62.9656C65.7062 62.8424 65.2312 62.5272 64.9083 62.0791L62.7578 61.3109L63.5786 59.2359L65.9196 59.8662L67.6268 61.1303C73.7599 62.2072 76.7903 58.438 76.7903 58.438C76.4811 56.7968 75.9706 55.2001 75.2702 53.6839L77.5684 49.2188L77.6768 49.3862C81.1406 54.9677 80.0341 60.0567 80.0341 60.0567Z" fill="#B55B52"/>
<path d="M61.8577 66.3267L60.2161 66.9833C58.7682 68.1587 56.7983 67.5021 56.7983 67.5021C50.6915 69.0714 48.0156 67.1376 48.0156 67.1376C48.8594 64.3764 50.5962 61.1621 52.1098 58.6406C53.0665 59.2396 54.1531 59.5999 55.2781 59.6913C53.7974 62.134 52.3823 65.1677 52.3823 65.1677C53.9189 65.9721 57.6125 64.7212 57.6125 64.7212L61.3948 64.3502L61.8577 66.3267Z" fill="#B55B52"/>
<path opacity="0.4" d="M69.4547 85.8728L67.8984 80.1797C67.8984 80.1797 69.5762 89.1823 69.586 89.3727C69.5959 89.5631 69.4547 85.8728 69.4547 85.8728Z" fill="black"/>
<path d="M92.5495 129.352C92.5495 129.352 91.0064 128.521 90.7831 129.109C90.5598 129.696 92.5495 129.352 92.5495 129.352Z" stroke="#407BFF" stroke-miterlimit="10"/>
<path d="M92.5486 129.555C92.5486 129.555 90.9069 129.962 90.9299 130.326C90.9529 130.691 92.5486 129.555 92.5486 129.555Z" stroke="#407BFF" stroke-miterlimit="10"/>
<path d="M95.4485 126.826L96.7355 127.873C96.8101 127.934 96.8716 128.009 96.9161 128.094C96.9606 128.18 96.9872 128.273 96.9943 128.369C97.0013 128.465 96.9887 128.561 96.9572 128.652C96.9257 128.743 96.8759 128.827 96.811 128.898L92.5855 133.494L92.5166 133.56C92.3196 133.724 91.4232 134.427 90.9899 134.072C90.5007 133.671 91.9748 132.187 92.0602 131.413C92.1357 130.818 92.2867 129.577 92.3524 129.036C92.3723 128.866 92.4541 128.709 92.5822 128.596L94.5521 126.839C94.6769 126.733 94.8345 126.674 94.998 126.672C95.1614 126.67 95.3207 126.724 95.4485 126.826Z" fill="#263238"/>
<path d="M69.2247 134.995C69.2247 134.995 68.463 133.4 68.0461 133.682C67.6291 133.964 69.2247 134.995 69.2247 134.995Z" stroke="#407BFF" stroke-miterlimit="10"/>
<path d="M69.0996 134.992C69.0996 134.992 67.4054 134.069 67.2084 134.604C67.0114 135.14 69.0996 134.992 69.0996 134.992Z" stroke="#407BFF" stroke-miterlimit="10"/>
<path d="M73.3446 134.602H69.2241C68.3516 135.388 67.307 135.959 66.174 136.269C64.5127 136.64 64.667 136.926 64.667 136.926C64.667 136.926 64.3912 137.635 65.4057 137.786C66.4203 137.937 72.7832 137.973 73.5875 137.786C74.3919 137.599 73.3446 134.602 73.3446 134.602Z" fill="#263238"/>
<path d="M61.766 39.6577L61.1094 39.5625C61.1427 39.6162 61.1874 39.662 61.2402 39.6967C61.2931 39.7313 61.353 39.754 61.4155 39.763C61.4781 39.7721 61.5419 39.7674 61.6024 39.7492C61.663 39.731 61.7188 39.6998 61.766 39.6577Z" fill="#263238"/>
<path d="M59.2181 39.4344L58.6797 39.3359C58.7038 39.3831 58.7384 39.424 58.7809 39.4556C58.8234 39.4872 58.8725 39.5086 58.9246 39.5181C58.9767 39.5276 59.0302 39.525 59.0811 39.5105C59.132 39.496 59.1789 39.47 59.2181 39.4344Z" fill="#263238"/>
<path opacity="0.2" d="M63.637 45.3125C63.5258 45.6553 63.3208 45.9601 63.0451 46.1923C62.7694 46.4244 62.4342 46.5746 62.0774 46.6258C62.1086 46.2625 62.0581 45.8968 61.9297 45.5555C62.5058 45.5352 63.0781 45.4538 63.637 45.3125Z" fill="black"/>
<path opacity="0.2" d="M57.7858 59.4648C57.5757 59.5173 57.3722 59.5567 57.1719 59.5895L57.5199 56.5L57.7858 59.4648Z" fill="black"/>
</svg>
