<svg width="199" height="135" viewBox="0 0 199 135" fill="none" xmlns="http://www.w3.org/2000/svg">
<path d="M101.062 60.5746C102.124 59.9333 103.266 59.4378 104.46 59.1014L105.158 55.7504L110.822 55.6484L111.637 58.9748C112.838 59.2715 113.994 59.7264 115.075 60.3275L117.938 58.4528L122.015 62.3876L120.242 65.3124C120.883 66.3736 121.379 67.5163 121.715 68.7097L125.066 69.4077L125.165 75.072L121.839 75.8874C121.544 77.0884 121.09 78.2445 120.489 79.3249L122.364 82.1879L118.429 86.2648L115.489 84.4951C114.427 85.1353 113.284 85.6308 112.091 85.9683L111.393 89.3193L105.729 89.4181L104.914 86.0918C103.713 85.7981 102.556 85.3441 101.476 84.7421L98.6225 86.6014L94.5456 82.6667L96.3215 79.7388C95.68 78.6777 95.1845 77.5349 94.8483 76.3414L91.4973 75.6434L91.3984 69.9791L94.7248 69.1637C95.021 67.9629 95.4759 66.8069 96.0775 65.7262L94.2028 62.8755L98.1376 58.7987L101.062 60.5746Z" fill="#FF725E"/>
<path d="M104.723 67.1484H101.609V76.868H104.723V67.1484Z" fill="white"/>
<path d="M109.371 69.375H106.258V76.8739H109.371V69.375Z" fill="white"/>
<path d="M113.668 72.4141H110.555V76.8677H113.668V72.4141Z" fill="white"/>
<path d="M54.4172 59.8918C55.479 59.2525 56.6216 58.7581 57.8146 58.4217L58.5126 55.0676L64.1769 54.9688L64.9922 58.2951C66.1935 58.5899 67.3497 59.0449 68.4297 59.6478L71.2928 57.77L75.3696 61.7048L73.5937 64.6327C74.235 65.6939 74.7305 66.8366 75.0669 68.03L78.418 68.728L78.5168 74.3923L75.1936 75.2077C74.8919 76.4047 74.4328 77.5565 73.8284 78.6329L75.7032 81.4959L71.7561 85.5727L68.8312 83.7999C67.7693 84.439 66.6267 84.9334 65.4339 85.2701L64.7359 88.6242L59.0716 88.723L58.2562 85.3967C57.0555 85.0999 55.8996 84.645 54.8187 84.0439L51.9896 85.9217L47.9128 81.987L49.6887 79.0591C49.0474 77.9979 48.5519 76.8551 48.2155 75.6617L44.8645 74.9637L44.7656 69.2994L48.0919 68.484C48.3821 67.2826 48.8319 66.1255 49.4293 65.0434L47.5545 62.1804L51.4893 58.1067L54.4172 59.8795V59.8918Z" fill="#FF725E"/>
<path d="M62.5313 81.3397C60.4607 81.3308 58.4474 80.6587 56.7866 79.422C55.1258 78.1853 53.9049 76.449 53.3029 74.4678C53.2923 74.4285 53.2972 74.3866 53.3168 74.3509C53.3364 74.3152 53.369 74.2884 53.4079 74.2763C53.4468 74.2647 53.4887 74.2689 53.5246 74.2879C53.5604 74.307 53.5873 74.3394 53.5994 74.3782C54.245 76.5404 55.6533 78.3949 57.5628 79.5973C59.4723 80.7997 61.7532 81.2683 63.9821 80.9162C66.211 80.564 68.2363 79.415 69.6821 77.6824C71.1279 75.9499 71.8959 73.7516 71.8434 71.4957C71.7909 69.2397 70.9216 67.0795 69.3969 65.4161C67.8721 63.7526 65.7955 62.699 63.5527 62.4508C61.3098 62.2026 59.0531 62.7768 57.2016 64.0667C55.35 65.3566 54.0295 67.2745 53.4851 69.4644C53.4753 69.5053 53.4496 69.5407 53.4137 69.5627C53.3778 69.5847 53.3346 69.5916 53.2936 69.5817C53.2527 69.5719 53.2173 69.5462 53.1953 69.5103C53.1733 69.4744 53.1664 69.4312 53.1763 69.3903C53.6115 67.6394 54.53 66.0462 55.8269 64.7921C57.1239 63.538 58.7471 62.6737 60.5116 62.2975C62.276 61.9214 64.1107 62.0486 65.8063 62.6647C67.5019 63.2808 68.9903 64.3609 70.1018 65.782C71.2132 67.2031 71.903 68.9079 72.0924 70.702C72.2818 72.4961 71.9633 74.3074 71.1731 75.9292C70.383 77.5511 69.153 78.9183 67.6234 79.8749C66.0938 80.8315 64.3262 81.3391 62.5221 81.3397H62.5313Z" fill="white"/>
<path d="M62.4918 78.395C61.0326 78.3921 59.6142 77.9135 58.4516 77.0318C57.2889 76.1501 56.4455 74.9133 56.0491 73.509C56.0435 73.4897 56.0417 73.4695 56.044 73.4496C56.0462 73.4296 56.0524 73.4103 56.0622 73.3928C56.072 73.3753 56.0851 73.3599 56.1009 73.3475C56.1167 73.3351 56.1348 73.3259 56.1541 73.3206C56.1935 73.3091 56.2357 73.3138 56.2716 73.3334C56.3075 73.3531 56.3342 73.3863 56.3456 73.4256C56.7613 74.9096 57.7003 76.1928 58.9888 77.0381C60.2774 77.8834 61.8285 78.2335 63.3552 78.0237C64.882 77.8139 66.2811 77.0584 67.2939 75.8969C68.3068 74.7354 68.8648 73.2464 68.8648 71.7053C68.8648 70.1642 68.3068 68.6753 67.2939 67.5137C66.2811 66.3522 64.882 65.5967 63.3552 65.3869C61.8285 65.1771 60.2774 65.5272 58.9888 66.3725C57.7003 67.2178 56.7613 68.5011 56.3456 69.985C56.3402 70.0053 56.3307 70.0243 56.3179 70.0409C56.3051 70.0576 56.2891 70.0715 56.2709 70.082C56.2527 70.0925 56.2326 70.0992 56.2118 70.102C56.1909 70.1047 56.1698 70.1032 56.1495 70.0977C56.1292 70.0923 56.1102 70.0829 56.0936 70.07C56.0769 70.0572 56.063 70.0412 56.0525 70.023C56.0421 70.0048 56.0353 69.9847 56.0326 69.9639C56.0299 69.9431 56.0313 69.9219 56.0368 69.9016C56.3724 68.7029 57.0359 67.6215 57.9526 66.7793C58.8693 65.937 60.0028 65.3672 61.2256 65.134C62.4484 64.9009 63.7121 65.0135 64.8744 65.4593C66.0367 65.9051 67.0516 66.6664 67.8048 67.6575C68.5581 68.6486 69.0198 69.8303 69.1381 71.0695C69.2565 72.3087 69.0267 73.5564 68.4746 74.6722C67.9225 75.7879 67.07 76.7275 66.0131 77.3852C64.9561 78.0429 63.7366 78.3926 62.4918 78.395Z" fill="white"/>
<path d="M62.4918 73.2049C62.1508 73.2061 61.8173 73.105 61.5343 72.9146C61.5014 72.8905 61.4789 72.8546 61.4715 72.8145C61.464 72.7743 61.4721 72.7328 61.4942 72.6984C61.5173 72.6651 61.5526 72.6422 61.5925 72.6347C61.6324 72.6271 61.6736 72.6356 61.7073 72.6583C61.8886 72.7801 62.0959 72.8578 62.3127 72.8851C62.5294 72.9124 62.7495 72.8886 62.9554 72.8156C63.1613 72.7425 63.3472 72.6223 63.4982 72.4645C63.6493 72.3067 63.7613 72.1157 63.8253 71.9069C63.8893 71.698 63.9035 71.4771 63.8668 71.2617C63.83 71.0464 63.7434 70.8426 63.6138 70.6668C63.4841 70.491 63.3151 70.3479 63.1203 70.2491C62.9255 70.1504 62.7102 70.0986 62.4918 70.0979C62.2601 70.0985 62.0322 70.1558 61.8277 70.2647C61.8101 70.2744 61.7908 70.2805 61.7708 70.2827C61.7508 70.2848 61.7306 70.283 61.7113 70.2772C61.6921 70.2715 61.6741 70.2619 61.6586 70.2492C61.643 70.2364 61.6302 70.2207 61.6208 70.2029C61.611 70.1851 61.6049 70.1655 61.6027 70.1453C61.6005 70.1251 61.6023 70.1046 61.6081 70.0851C61.6138 70.0656 61.6233 70.0474 61.6361 70.0315C61.6489 70.0157 61.6647 70.0026 61.6826 69.9929C61.9114 69.8698 62.1653 69.8005 62.4249 69.7904C62.6845 69.7802 62.943 69.8294 63.1807 69.9342C63.4184 70.039 63.6291 70.1967 63.7967 70.3952C63.9644 70.5937 64.0845 70.8278 64.1479 71.0798C64.2114 71.3317 64.2166 71.5948 64.163 71.849C64.1095 72.1033 63.9986 72.3419 63.8389 72.5469C63.6792 72.7518 63.4749 72.9176 63.2414 73.0316C63.008 73.1457 62.7516 73.2049 62.4918 73.2049Z" fill="white"/>
<path d="M62.5302 71.4403L60.0347 70.2266L60.0811 71.3075L53.4531 71.465L53.5242 71.9499L60.1644 71.8418L60.183 72.9414L62.5302 71.4403Z" fill="white"/>
<path d="M55.2736 71.6226L55.2397 71.5547C55.1513 71.3838 55.0187 71.2398 54.8557 71.1377C54.6928 71.0356 54.5054 70.979 54.3131 70.974L52.1172 70.8906L53.0684 71.7492L52.2253 72.7901L54.3255 72.7468C54.5562 72.7421 54.7792 72.6633 54.9617 72.522C55.1441 72.3807 55.2762 72.1845 55.3385 71.9623L55.2736 71.6226Z" fill="white"/>
<path d="M62.5315 75.7452C61.6585 75.7417 60.8098 75.4568 60.1115 74.9327C59.4133 74.4085 58.9026 73.6732 58.6555 72.8359C58.6494 72.8166 58.6473 72.7963 58.6493 72.7762C58.6514 72.7561 58.6575 72.7366 58.6673 72.719C58.6772 72.7014 58.6905 72.6859 58.7065 72.6736C58.7225 72.6613 58.7409 72.6524 58.7605 72.6475C58.7799 72.6418 58.8003 72.64 58.8205 72.6422C58.8407 72.6444 58.8602 72.6506 58.878 72.6603C58.8958 72.6701 58.9114 72.6832 58.9241 72.699C58.9368 72.7148 58.9463 72.733 58.952 72.7525C59.2069 73.6121 59.7629 74.3511 60.5182 74.8343C61.2735 75.3175 62.1776 75.5126 63.0649 75.3838C63.9522 75.255 64.7635 74.8109 65.3502 74.1329C65.9369 73.4548 66.2598 72.5882 66.2598 71.6916C66.2598 70.7949 65.9369 69.9283 65.3502 69.2503C64.7635 68.5722 63.9522 68.1282 63.0649 67.9994C62.1776 67.8705 61.2735 68.0656 60.5182 68.5488C59.7629 69.032 59.2069 69.771 58.952 70.6307C58.9463 70.6501 58.9368 70.6683 58.9241 70.6841C58.9114 70.6999 58.8958 70.7131 58.878 70.7228C58.8602 70.7326 58.8407 70.7387 58.8205 70.7409C58.8003 70.7431 58.7799 70.7414 58.7605 70.7357C58.7407 70.73 58.7222 70.7205 58.7061 70.7075C58.6901 70.6946 58.6767 70.6786 58.667 70.6605C58.6572 70.6424 58.6511 70.6225 58.6491 70.602C58.6472 70.5815 58.6493 70.5608 58.6555 70.5411C58.8718 69.8252 59.2827 69.1834 59.8425 68.6874C60.4022 68.1914 61.0888 67.8606 61.8255 67.732C62.5623 67.6034 63.3203 67.682 64.015 67.9591C64.7097 68.2361 65.3137 68.7007 65.7598 69.301C66.2058 69.9014 66.4764 70.6138 66.5411 71.3589C66.6059 72.104 66.4624 72.8524 66.1267 73.5207C65.7909 74.189 65.2761 74.7509 64.6397 75.1437C64.0032 75.5365 63.2702 75.7447 62.5223 75.7452H62.5315Z" fill="white"/>
<path d="M147.212 59.634C148.274 58.995 149.417 58.5006 150.61 58.1639L151.308 54.8098L156.972 54.7109L157.787 58.0373C158.989 58.3313 160.145 58.7863 161.225 59.39L164.088 57.5122L168.165 61.447L166.389 64.3749C167.03 65.4361 167.526 66.5788 167.862 67.7722L171.204 68.461L171.303 74.1253L167.976 74.9283C167.682 76.1283 167.228 77.2834 166.627 78.3627L168.501 81.2257L164.567 85.3026L161.629 83.539C160.568 84.1798 159.425 84.6753 158.232 85.0122L157.534 88.3664L151.87 88.4652L151.054 85.1389C149.854 84.8427 148.697 84.3877 147.617 83.7861L144.754 85.6639L140.699 81.723L142.474 78.7951C141.833 77.7339 141.338 76.5912 141.001 75.3977L137.65 74.6997L137.539 69.0601L140.862 68.2448C141.159 67.0441 141.614 65.8882 142.215 64.8073L140.34 61.9442L144.275 57.8705L147.2 59.6433L147.212 59.634Z" fill="#FF725E"/>
<path d="M146.133 72.0749L148.304 69.9037L152.489 73.6253L160.707 65.7188L162.724 67.89L152.18 77.8133L146.133 72.0749Z" fill="white"/>
<path d="M90.0312 61.4004C90.0391 61.3659 90.0516 61.3327 90.0683 61.3016L90.1918 61.0236C90.2474 60.897 90.3154 60.7487 90.3957 60.5727C90.4843 60.3599 90.5875 60.1535 90.7045 59.955L91.1122 59.2137C91.2728 58.945 91.4643 58.6702 91.6589 58.3644C91.8535 58.0586 92.0975 57.7467 92.3414 57.4379C92.6026 57.0916 92.8809 56.7586 93.1753 56.4403C93.4657 56.0882 93.8239 55.767 94.1698 55.4118C94.3428 55.2296 94.5435 55.0751 94.735 54.9022C94.9265 54.7292 95.1273 54.5563 95.3342 54.3864L95.9859 53.8923C96.0971 53.8089 96.2052 53.7224 96.3194 53.6421L96.6746 53.4074C96.9155 53.2498 97.1533 53.0985 97.4035 52.9317L98.1818 52.4901C98.4382 52.3326 98.7192 52.2121 98.9972 52.0762C99.2751 51.9403 99.5531 51.7952 99.8496 51.6871L100.736 51.3288L101.663 51.0199C104.262 50.216 107.016 50.0518 109.693 50.5412L110.65 50.7296L111.577 50.9798C111.885 51.0539 112.176 51.1682 112.469 51.2639C112.763 51.3597 113.053 51.4554 113.328 51.5728L114.149 51.9187C114.418 52.0391 114.674 52.1781 114.931 52.3017L115.311 52.4932C115.434 52.5611 115.555 52.6352 115.672 52.7032L116.379 53.117C116.605 53.2591 116.821 53.4259 117.034 53.5587C117.247 53.6915 117.463 53.8397 117.652 53.9973C118.041 54.3061 118.433 54.5841 118.761 54.9022C119.088 55.2203 119.431 55.489 119.709 55.7917C119.987 56.0944 120.274 56.3569 120.496 56.641C120.719 56.9252 120.95 57.1753 121.139 57.4193L121.633 58.1081C121.769 58.2886 121.894 58.4774 122.007 58.6733L122.263 59.0964C122.325 59.2045 122.377 59.294 122.417 59.3589C122.437 59.3872 122.453 59.4184 122.464 59.4516C122.441 59.4251 122.421 59.3972 122.402 59.3682L122.235 59.1118L121.966 58.698C121.849 58.506 121.721 58.3204 121.583 58.142L121.077 57.4657C120.885 57.2247 120.66 56.9777 120.428 56.7028C120.197 56.4279 119.919 56.1592 119.635 55.8658C119.35 55.5724 119.017 55.2883 118.686 54.9856C118.356 54.6829 117.964 54.4049 117.578 54.0992C117.386 53.9417 117.17 53.8119 116.96 53.6637C116.75 53.5155 116.531 53.3703 116.305 53.2313C116.08 53.0923 115.842 52.9595 115.601 52.8236C115.484 52.7557 115.366 52.6816 115.243 52.6167L114.863 52.4283C114.606 52.3048 114.353 52.172 114.088 52.0515L113.269 51.7087C112.997 51.5851 112.704 51.5018 112.417 51.3998C112.129 51.2979 111.836 51.1898 111.53 51.1188L110.604 50.8717L109.653 50.6864C108.327 50.4601 106.981 50.3793 105.637 50.4455C104.307 50.5469 102.991 50.7944 101.715 51.1836L100.789 51.4925L99.9052 51.8446C99.6118 51.9496 99.3369 52.0978 99.0589 52.2275C98.781 52.3573 98.5061 52.4808 98.2498 52.6352L97.4776 53.0707C97.2275 53.222 96.9896 53.3796 96.7518 53.5402L96.3967 53.7718C96.2824 53.849 96.1743 53.9355 96.0631 54.0189L95.4145 54.5069C95.2076 54.6736 95.013 54.8466 94.8153 55.0134C94.6177 55.1802 94.4231 55.3377 94.2532 55.5168C93.9042 55.8689 93.546 56.1839 93.2556 56.5329C92.9653 56.8819 92.6596 57.1846 92.4187 57.5151C92.1778 57.8455 91.9214 58.1328 91.7299 58.4416C91.5384 58.7505 91.3377 59.013 91.1771 59.2755L90.754 60.0075C90.6405 60.2006 90.5374 60.3996 90.4451 60.6036L90.2258 61.0483C90.1702 61.1626 90.1239 61.2522 90.0899 61.3201C90.0733 61.3489 90.0536 61.3758 90.0312 61.4004Z" fill="#263238"/>
<path d="M96.4219 51.1832C96.5318 51.0917 96.6497 51.01 96.774 50.9392C97.0056 50.7909 97.3515 50.5933 97.787 50.3709C100.084 49.2102 102.626 48.6171 105.199 48.6413C105.69 48.6413 106.089 48.6722 106.361 48.7031C106.504 48.7101 106.645 48.7318 106.784 48.768C106.642 48.7799 106.499 48.7799 106.358 48.768C106.083 48.7525 105.687 48.7463 105.199 48.768C102.649 48.8029 100.136 49.3887 97.8333 50.4852C97.3948 50.6921 97.0427 50.8743 96.8018 51.0071C96.6809 51.0776 96.5538 51.1366 96.4219 51.1832Z" fill="#263238"/>
<path d="M170.646 82.5859C170.638 82.6199 170.627 82.653 170.612 82.6848C170.582 82.7527 170.538 82.8454 170.489 82.9627L170.285 83.4137C170.194 83.6255 170.091 83.8318 169.976 84.0314C169.853 84.2537 169.717 84.5039 169.565 84.7726C169.414 85.0413 169.216 85.3162 169.019 85.6219C168.821 85.9277 168.583 86.2396 168.336 86.5485C168.089 86.8573 167.802 87.2002 167.502 87.5461C167.203 87.892 166.857 88.2163 166.508 88.5746C166.338 88.7537 166.137 88.9112 165.946 89.0842C165.754 89.2571 165.553 89.4301 165.347 89.5999C165.14 89.7698 164.914 89.9273 164.695 90.0941C164.584 90.1775 164.472 90.264 164.358 90.3443L164.003 90.579C163.765 90.7334 163.524 90.8878 163.274 91.0546L162.499 91.4963C162.24 91.6507 161.958 91.7742 161.684 91.9101C161.409 92.046 161.128 92.1912 160.831 92.2993L159.942 92.6545L159.015 92.9633C156.416 93.7672 153.661 93.9315 150.985 93.442L150.028 93.2505L149.101 93.0035C148.792 92.9293 148.502 92.8151 148.208 92.7162C147.915 92.6174 147.625 92.5278 147.35 92.4074L146.525 92.0615C146.26 91.9379 146.003 91.802 145.747 91.6754L145.367 91.487C145.24 91.4191 145.123 91.3449 145.003 91.277L144.298 90.8631C144.07 90.718 143.857 90.5543 143.641 90.4215C143.424 90.2887 143.211 90.1404 143.023 89.9798C142.637 89.671 142.245 89.3961 141.914 89.078C141.584 88.7599 141.244 88.4912 140.969 88.1854C140.694 87.8796 140.404 87.6233 140.181 87.3361C139.959 87.0488 139.727 86.8048 139.536 86.5608C139.344 86.3168 139.193 86.079 139.042 85.8721C138.907 85.6916 138.783 85.5028 138.671 85.3069C138.569 85.1432 138.486 84.9981 138.415 84.8838C138.344 84.7695 138.301 84.6861 138.26 84.6213L138.211 84.5286C138.211 84.5286 138.236 84.5564 138.276 84.612C138.316 84.6676 138.372 84.7602 138.443 84.8653L138.711 85.2822C138.828 85.4739 138.956 85.6585 139.094 85.835L139.598 86.5145C139.789 86.7554 140.015 87.0025 140.246 87.2774C140.478 87.5523 140.759 87.8209 141.04 88.1144C141.321 88.4078 141.658 88.6919 141.988 88.9915C142.319 89.2911 142.711 89.5721 143.097 89.881C143.288 90.0385 143.505 90.1682 143.715 90.3165C143.925 90.4647 144.141 90.6068 144.369 90.7489L145.071 91.1565C145.191 91.2245 145.308 91.2986 145.432 91.3635L145.809 91.5519C146.065 91.6754 146.321 91.8082 146.584 91.9287L147.402 92.2684C147.677 92.3919 147.968 92.4784 148.258 92.5772C148.548 92.6761 148.838 92.7873 149.144 92.8583L150.071 93.1023L151.019 93.2876C153.675 93.7728 156.41 93.6107 158.99 92.8151L159.917 92.5062L160.797 92.1541C161.106 92.046 161.369 91.9009 161.643 91.7711C161.918 91.6414 162.199 91.5179 162.456 91.3604L163.228 90.9249C163.478 90.7766 163.713 90.616 163.954 90.4585L164.306 90.2269C164.42 90.1497 164.528 90.0632 164.639 89.9798L165.291 89.4918C165.498 89.3251 165.692 89.149 165.887 88.9853C166.082 88.8216 166.279 88.6579 166.452 88.4819C166.798 88.1298 167.156 87.8148 167.447 87.4658C167.737 87.1168 168.046 86.8141 168.284 86.4836C168.522 86.1532 168.784 85.8659 168.972 85.5571C169.161 85.2482 169.368 84.9826 169.528 84.7201C169.689 84.4576 169.837 84.2105 169.948 83.9881C170.063 83.7956 170.166 83.5966 170.257 83.392L170.473 82.9504L170.612 82.6755L170.646 82.5859Z" fill="#263238"/>
<path d="M164.382 93.7422C164.273 93.8347 164.155 93.9164 164.03 93.9862C163.702 94.1924 163.364 94.3821 163.017 94.5545C160.72 95.7151 158.178 96.3082 155.605 96.284C155.217 96.2827 154.829 96.261 154.443 96.2192C154.302 96.2147 154.161 96.194 154.023 96.1574C154.165 96.1453 154.308 96.1453 154.45 96.1574C154.721 96.1728 155.117 96.1759 155.605 96.1574C158.155 96.1233 160.668 95.5375 162.971 94.4402C163.412 94.2302 163.765 94.051 164.002 93.9182C164.123 93.8477 164.25 93.7888 164.382 93.7422Z" fill="#263238"/>
<path d="M78.2449 81.8986C78.2366 81.932 78.2242 81.9642 78.2078 81.9944C78.1769 82.0654 78.1368 82.1581 78.0843 82.2724L77.8804 82.7264C77.7905 82.9385 77.6874 83.1448 77.5716 83.3441L77.1639 84.0853C77.0033 84.3509 76.8118 84.6289 76.6172 84.9316C76.4227 85.2342 76.1787 85.5493 75.9347 85.8581C75.6907 86.167 75.4004 86.5098 75.1008 86.8526C74.8012 87.1954 74.4522 87.5259 74.1063 87.8811C73.9333 88.0633 73.7326 88.2208 73.5411 88.3938C73.3496 88.5667 73.1488 88.7397 72.9419 88.9065L72.2902 89.4037C72.1791 89.484 72.071 89.5736 71.9536 89.6539L71.6015 89.8886C71.3606 90.043 71.1228 90.1975 70.8726 90.3611L70.0943 90.8028C69.838 90.9603 69.5569 91.0808 69.2789 91.2198C69.001 91.3587 68.723 91.4977 68.4265 91.6058L67.5401 91.9641L66.6136 92.2729C64.0152 93.0808 61.2594 93.2451 58.5835 92.7517L57.626 92.5633L56.6995 92.3131C56.3906 92.242 56.1003 92.1278 55.8069 92.0289C55.5135 91.9301 55.2232 91.8375 54.9483 91.7201L54.1268 91.3711C53.8581 91.2506 53.6017 91.1147 53.3454 90.9881L52.9655 90.7966C52.8419 90.7318 52.7215 90.6576 52.6041 90.5866L51.8969 90.1728C51.6714 90.0307 51.4552 89.8639 51.2421 89.7342C51.029 89.6045 50.8128 89.4531 50.6244 89.2925C50.2352 88.9837 49.843 88.7057 49.5125 88.3907C49.1821 88.0757 48.8454 87.8039 48.5674 87.4981C48.2895 87.1923 48.0022 86.936 47.7799 86.6488C47.5575 86.3615 47.3259 86.1176 47.1375 85.8705L46.6433 85.1848C46.508 85.0038 46.3832 84.8151 46.2696 84.6196L46.0133 84.1934L45.8588 83.9309C45.8387 83.9026 45.823 83.8713 45.8125 83.8382C45.8352 83.8655 45.8558 83.8944 45.8743 83.9247L46.041 84.178L46.3097 84.5918C46.4274 84.7838 46.5552 84.9694 46.6927 85.1478L47.1961 85.8241C47.3907 86.065 47.6162 86.3152 47.8478 86.5901C48.0795 86.865 48.3574 87.1306 48.6416 87.4271C48.9257 87.7236 49.2593 88.0015 49.5897 88.3042C49.9202 88.6069 50.3124 88.8848 50.6985 89.1937C50.89 89.3512 51.1062 89.4809 51.3162 89.6261C51.5262 89.7712 51.7455 89.9195 51.971 90.0616L52.6721 90.4692C52.7925 90.5372 52.9099 90.6082 53.0334 90.6731L53.4133 90.8615C53.6666 90.985 53.9229 91.1209 54.1885 91.2414L55.007 91.5811C55.2788 91.7047 55.5722 91.7911 55.8594 91.89C56.1466 91.9888 56.44 92.0969 56.7458 92.1679L57.6724 92.415L58.6236 92.6003C61.2791 93.0853 64.0124 92.9232 66.5919 92.1278L67.5185 91.8189L68.4018 91.4668C68.7107 91.3587 68.9701 91.2105 69.2481 91.0839C69.526 90.9572 69.8009 90.8275 70.0572 90.6731L70.8294 90.2376C71.0795 90.0863 71.3174 89.9288 71.5552 89.7712L71.9104 89.5396C72.0246 89.4593 72.1327 89.3728 72.2439 89.2925L72.8925 88.8045C73.0994 88.6378 73.294 88.4617 73.4917 88.2949C73.6893 88.1282 73.8839 87.9707 74.0538 87.7915C74.4028 87.4394 74.761 87.1275 75.0514 86.7785C75.3417 86.4295 75.6474 86.1237 75.8883 85.7933C76.1292 85.4628 76.3856 85.1756 76.5771 84.8667C76.7686 84.5579 76.9693 84.2922 77.1299 84.0297C77.2905 83.7672 77.4388 83.517 77.5531 83.2977C77.6671 83.105 77.7702 82.906 77.8619 82.7017L78.0812 82.2569L78.2171 81.9851C78.2171 81.9264 78.2449 81.8956 78.2449 81.8986Z" fill="#263238"/>
<path d="M71.9682 93.0547C71.8598 93.146 71.743 93.2266 71.6192 93.2956C71.3876 93.4469 71.0417 93.6415 70.6062 93.867C68.3091 95.0276 65.7673 95.6207 63.1938 95.5965C62.7027 95.5965 62.3043 95.5656 62.0325 95.5317C61.89 95.5229 61.7484 95.5023 61.6094 95.4699C61.751 95.454 61.894 95.454 62.0356 95.4699C62.3105 95.4699 62.7058 95.4884 63.1938 95.4699C65.7408 95.4348 68.2506 94.8534 70.5537 93.765C70.9953 93.555 71.3474 93.3759 71.5883 93.2431C71.7079 93.167 71.8353 93.1039 71.9682 93.0547Z" fill="#263238"/>
<path d="M144.027 44.2567H81.7377C80.3403 44.2567 79.0001 43.7016 78.012 42.7135C77.0239 41.7253 76.4688 40.3852 76.4688 38.9877C76.4688 37.5903 77.0239 36.2501 78.012 35.262C79.0001 34.2739 80.3403 33.7188 81.7377 33.7188H144.027C145.424 33.7188 146.764 34.2739 147.752 35.262C148.741 36.2501 149.296 37.5903 149.296 38.9877C149.296 40.3852 148.741 41.7253 147.752 42.7135C146.764 43.7016 145.424 44.2567 144.027 44.2567Z" fill="#FAFAFA"/>
<path d="M144.03 44.2573L144.435 44.2295C144.831 44.1953 145.223 44.1186 145.602 44.0009C146.218 43.7956 146.792 43.4818 147.298 43.0744C147.986 42.5191 148.525 41.8017 148.867 40.9865C149.061 40.5007 149.186 39.9904 149.241 39.4701C149.288 38.8944 149.245 38.3148 149.111 37.7529C148.87 36.7623 148.343 35.8644 147.595 35.1708C146.848 34.4773 145.913 34.0187 144.907 33.8521C144.134 33.7724 143.356 33.7476 142.579 33.778H137.492L81.7476 33.7996C80.7562 33.8007 79.7858 34.0856 78.9512 34.6207C78.1166 35.1558 77.4527 35.9186 77.0378 36.8191C76.623 37.7195 76.4747 38.7199 76.6104 39.7019C76.7461 40.684 77.1601 41.6067 77.8035 42.3609C78.6383 43.3441 79.8126 43.977 81.0928 44.1337C81.7105 44.2048 82.3622 44.1708 82.9953 44.1801H95.8806L120.944 44.1986L137.838 44.2233H142.43H143.626H144.033H143.626H142.43L137.853 44.2912L120.959 44.316L95.896 44.3314H82.9953C82.3622 44.3314 81.7229 44.3561 81.0743 44.2851C80.075 44.1588 79.1318 43.7528 78.3532 43.1139C77.5746 42.475 76.9924 41.6291 76.6735 40.6737C76.3546 39.7184 76.3121 38.6924 76.5508 37.7139C76.7895 36.7354 77.2998 35.8442 78.0228 35.1431C79.0218 34.176 80.3572 33.6345 81.7476 33.6328L137.492 33.6575H142.579C143.361 33.6289 144.145 33.6568 144.923 33.7409C145.655 33.8617 146.353 34.1376 146.971 34.5501C148.089 35.2916 148.883 36.4313 149.191 37.7374C149.324 38.308 149.364 38.896 149.312 39.4794C149.256 40.0097 149.126 40.5295 148.926 41.0236C148.628 41.7381 148.177 42.3788 147.605 42.9006C147.033 43.4224 146.354 43.8127 145.615 44.0442C145.233 44.1595 144.839 44.231 144.441 44.2573C144.172 44.2573 144.03 44.2573 144.03 44.2573Z" fill="#263238"/>
<path d="M116.559 43.0067H81.7729C80.708 43.0067 79.6868 42.5837 78.9338 41.8307C78.1808 41.0777 77.7578 40.0565 77.7578 38.9916C77.7578 37.9268 78.1808 36.9055 78.9338 36.1525C79.6868 35.3996 80.708 34.9766 81.7729 34.9766H116.559C117.624 34.9766 118.645 35.3996 119.398 36.1525C120.151 36.9055 120.574 37.9268 120.574 38.9916C120.574 40.0565 120.151 41.0777 119.398 41.8307C118.645 42.5837 117.624 43.0067 116.559 43.0067Z" fill="#FF725E"/>
<g opacity="0.4">
<path d="M82.9297 43.0019L87.9207 34.9688H93.27L88.3809 43.0019H82.9297Z" fill="white"/>
</g>
<g opacity="0.4">
<path d="M93.6562 43.0019L98.6504 34.9688H103.997L99.1075 43.0019H93.6562Z" fill="white"/>
</g>
<g opacity="0.4">
<path d="M105.172 43.0019L110.163 34.9688H115.512L110.62 43.0019H105.172Z" fill="white"/>
</g>
<path d="M104.708 30.3508C104.708 30.9685 104.251 31.3391 103.519 31.3391H102.969V32.0958H102.336V29.3594H103.519C104.251 29.3594 104.708 29.7393 104.708 30.3508ZM104.066 30.3508C104.066 30.0419 103.871 29.8752 103.485 29.8752H102.969V30.8233H103.485C103.88 30.8233 104.066 30.6504 104.066 30.3508Z" fill="#263238"/>
<path d="M106.898 32.0958L106.373 31.3329H105.789V32.0958H105.156V29.3594H106.351C107.083 29.3594 107.541 29.7393 107.541 30.3508C107.548 30.5355 107.498 30.718 107.398 30.873C107.297 31.0279 107.15 31.1477 106.978 31.2156L107.596 32.0958H106.898ZM106.305 29.8752H105.789V30.8295H106.305C106.691 30.8295 106.886 30.6504 106.886 30.3508C106.886 30.0512 106.691 29.8752 106.305 29.8752Z" fill="#263238"/>
<path d="M107.854 30.7298C107.837 30.4304 107.911 30.1329 108.065 29.8757C108.219 29.6186 108.447 29.4137 108.719 29.2875C108.991 29.1613 109.295 29.1197 109.591 29.168C109.887 29.2163 110.161 29.3523 110.379 29.5584C110.597 29.7644 110.748 30.0312 110.812 30.324C110.877 30.6168 110.852 30.9223 110.741 31.2008C110.63 31.4794 110.438 31.7182 110.19 31.8864C109.942 32.0546 109.649 32.1444 109.349 32.1443C109.156 32.1552 108.964 32.1267 108.783 32.0606C108.602 31.9944 108.436 31.8919 108.296 31.7595C108.156 31.627 108.045 31.4674 107.969 31.2903C107.893 31.1132 107.854 30.9225 107.854 30.7298ZM110.204 30.7298C110.201 30.5614 110.147 30.3978 110.051 30.2596C109.955 30.1214 109.82 30.0146 109.663 29.9527C109.507 29.8908 109.335 29.8765 109.171 29.9115C109.006 29.9466 108.855 30.0295 108.738 30.1499C108.62 30.2702 108.54 30.4226 108.509 30.5881C108.477 30.7535 108.495 30.9246 108.56 31.0798C108.626 31.2351 108.735 31.3676 108.875 31.4608C109.016 31.554 109.18 31.6038 109.349 31.6038C109.463 31.6069 109.578 31.5863 109.684 31.5432C109.791 31.5002 109.887 31.4356 109.967 31.3535C110.048 31.2715 110.11 31.1737 110.151 31.0664C110.192 30.959 110.21 30.8444 110.204 30.7298Z" fill="#263238"/>
<path d="M111.148 30.7264C111.166 30.4316 111.27 30.1486 111.448 29.9125C111.625 29.6765 111.868 29.498 112.147 29.3992C112.425 29.3004 112.726 29.2857 113.013 29.3569C113.299 29.4282 113.559 29.5822 113.758 29.7998L113.354 30.1736C113.269 30.0746 113.163 29.9955 113.044 29.9422C112.925 29.8888 112.795 29.8623 112.665 29.8647C112.442 29.878 112.232 29.976 112.079 30.1387C111.925 30.3015 111.84 30.5167 111.84 30.7403C111.84 30.9639 111.925 31.1791 112.079 31.3419C112.232 31.5046 112.442 31.6026 112.665 31.6159C112.796 31.6194 112.925 31.5934 113.044 31.54C113.164 31.4865 113.269 31.4069 113.354 31.307L113.761 31.6529C113.562 31.8706 113.302 32.0246 113.016 32.0959C112.729 32.1671 112.428 32.1524 112.15 32.0536C111.871 31.9548 111.628 31.7763 111.451 31.5403C111.273 31.3042 111.169 31.0212 111.152 30.7264H111.148Z" fill="#263238"/>
<path d="M116.306 31.5862V32.0958H114.188V29.3594H116.254V29.869H114.818V30.4496H116.087V30.9407H114.818V31.5738L116.306 31.5862Z" fill="#263238"/>
<path d="M116.594 31.8237L116.81 31.3481C117.075 31.5308 117.39 31.6298 117.712 31.6322C118.085 31.6322 118.24 31.5087 118.24 31.3234C118.24 30.8138 116.649 31.1659 116.649 30.1498C116.649 29.6834 117.023 29.2973 117.801 29.2973C118.133 29.2899 118.461 29.3732 118.75 29.5382L118.555 30.02C118.326 29.8838 118.065 29.8094 117.798 29.8039C117.421 29.8039 117.276 29.9459 117.276 30.1127C117.276 30.6161 118.867 30.2671 118.867 31.2709C118.867 31.728 118.49 32.1202 117.709 32.1202C117.316 32.1368 116.927 32.0334 116.594 31.8237Z" fill="#263238"/>
<path d="M119.086 31.8237L119.299 31.3481C119.566 31.5309 119.881 31.6298 120.204 31.6322C120.578 31.6322 120.729 31.5087 120.729 31.3234C120.729 30.8138 119.142 31.1659 119.142 30.1498C119.142 29.6834 119.515 29.2973 120.294 29.2973C120.626 29.2899 120.953 29.3732 121.242 29.5382L121.047 30.02C120.817 29.8833 120.555 29.8088 120.287 29.8039C119.914 29.8039 119.768 29.9459 119.768 30.1127C119.768 30.6161 121.359 30.2671 121.359 31.2709C121.359 31.728 120.979 32.1202 120.198 32.1202C119.806 32.1363 119.418 32.0329 119.086 31.8237Z" fill="#263238"/>
<path d="M194.892 134.783C194.892 134.827 151.375 134.864 97.7061 134.864C44.0372 134.864 0.507812 134.842 0.507812 134.783C0.507812 134.725 44.0156 134.703 97.7061 134.703C151.397 134.703 194.892 134.74 194.892 134.783Z" fill="#263238"/>
</svg>
