<svg width="60" height="60" viewBox="0 0 60 60" fill="none" xmlns="http://www.w3.org/2000/svg">
<path d="M27 32H33V36H27V32Z" fill="#005DC7"/>
<path d="M38 56H35.5L34 53H26L24.5 56H22C20.896 56 20 56.896 20 58C20 59.104 20.896 60 22 60H38C39.104 60 40 59.104 40 58C40 56.896 39.104 56 38 56Z" fill="#005DC7"/>
<path d="M48 17H34.739L38.096 21H48V44H12V21H21.927L25.271 17H12C9.791 17 8 18.791 8 21V47C8 49.209 9.791 51 12 51H48C50.209 51 52 49.209 52 47V21C52 18.791 50.209 17 48 17Z" fill="#005DC7"/>
<path d="M33 30V23H35C35.552 23 36 22.553 36 22C36 21.76 35.904 21.547 35.762 21.374L30.753 15.36C30.569 15.145 30.305 15 30 15C29.695 15 29.431 15.145 29.248 15.36L24.239 21.374C24.096 21.547 24 21.76 24 22C24 22.553 24.448 23 25 23H27V30H33Z" fill="#005DC7"/>
<path d="M17 31.5C17 30.672 17.671 30 18.5 30C19.328 30 20 30.672 20 31.5V37.5C20 38.328 19.328 39 18.5 39C17.671 39 17 38.328 17 37.5V31.5Z" fill="#005DC7"/>
<path d="M41 27.5C41 26.672 41.671 26 42.5 26C43.328 26 44 26.672 44 27.5V33.5C44 34.328 43.328 35 42.5 35C41.671 35 41 34.328 41 33.5V27.5Z" fill="#005DC7"/>
<path d="M50 9.5C50 8.672 50.671 8 51.5 8C52.328 8 53 8.672 53 9.5V14.5C53 15.328 52.328 16 51.5 16C50.671 16 50 15.328 50 14.5V9.5Z" fill="#005DC7"/>
<path d="M9 6.5C9 5.672 9.671 5 10.5 5C11.328 5 12 5.672 12 6.5V13.5C12 14.328 11.328 15 10.5 15C9.671 15 9 14.328 9 13.5V6.5Z" fill="#005DC7"/>
<path d="M36.5 6C38.433 6 40 7.567 40 9.5C40 11.434 38.433 13 36.5 13C34.642 13 27.132 13 25 13C22.791 13 21 11.209 21 9C21 6.791 22.791 5 25 5C25.735 5 26.408 5.154 27 5.5C27 3.015 29.015 1 31.5 1C33.985 1 36 3.015 36 5.5V6H36.5Z" fill="#005DC7"/>
</svg>
