<svg width="175" height="130" viewBox="0 0 175 130" fill="none" xmlns="http://www.w3.org/2000/svg">
<path d="M174.469 114.242H0V114.329H174.469V114.242Z" fill="#E0E0E0"/>
<path d="M149.945 118.797H140.039V118.884H149.945V118.797Z" fill="#E0E0E0"/>
<path d="M137.478 118.844H128.625V118.931H137.478V118.844Z" fill="#E0E0E0"/>
<path d="M96.5256 116.82H84.6094V116.908H96.5256V116.82Z" fill="#E0E0E0"/>
<path d="M118.998 119.523H102.438V119.611H118.998V119.523Z" fill="#E0E0E0"/>
<path d="M49.8383 116.719H33.8047V116.806H49.8383V116.719Z" fill="#E0E0E0"/>
<path d="M57.2282 116.719H51.7812V116.806H57.2282V116.719Z" fill="#E0E0E0"/>
<path d="M35.8276 118.289H21.7969V118.376H35.8276V118.289Z" fill="#E0E0E0"/>
<path d="M82.7011 98.6794H15.3249C14.7971 98.6785 14.2912 98.4682 13.9183 98.0946C13.5454 97.7211 13.3359 97.2148 13.3359 96.687V1.97498C13.3405 1.45019 13.552 0.948404 13.9244 0.578615C14.2968 0.208825 14.8001 0.000898997 15.3249 0L82.7011 0C83.2296 0 83.7363 0.209916 84.11 0.583569C84.4837 0.957223 84.6936 1.46401 84.6936 1.99243V1.99243V96.687C84.6936 97.2154 84.4837 97.7222 84.11 98.0958C83.7363 98.4695 83.2296 98.6794 82.7011 98.6794V98.6794ZM15.3249 0.0697874C14.8202 0.0707118 14.3365 0.271845 13.98 0.629039C13.6234 0.986232 13.4232 1.4703 13.4232 1.97498V96.687C13.4232 97.1917 13.6234 97.6757 13.98 98.0329C14.3365 98.3901 14.8202 98.5912 15.3249 98.5922H82.7011C83.2059 98.5903 83.6894 98.389 84.0463 98.0321C84.4032 97.6752 84.6045 97.1917 84.6063 96.687V1.97498C84.6045 1.47026 84.4032 0.986734 84.0463 0.629838C83.6894 0.272942 83.2059 0.0716261 82.7011 0.0697874H15.3249Z" fill="#E0E0E0"/>
<path d="M158.177 98.6794H90.7971C90.2693 98.6776 89.7635 98.4671 89.3903 98.0938C89.017 97.7206 88.8065 97.2148 88.8047 96.687V1.97498C88.8102 1.44987 89.0224 0.948089 89.3954 0.578396C89.7684 0.208703 90.272 0.000889193 90.7971 0L158.177 0C158.701 0.00181604 159.203 0.210147 159.575 0.579839C159.947 0.94953 160.158 1.45079 160.162 1.97498V96.687C160.163 96.9482 160.112 97.2069 160.012 97.4484C159.913 97.6899 159.767 97.9094 159.582 98.0944C159.398 98.2794 159.179 98.4263 158.938 98.5267C158.697 98.627 158.438 98.6789 158.177 98.6794V98.6794ZM90.7971 0.0697874C90.2924 0.0716261 89.8089 0.272942 89.452 0.629838C89.0951 0.986734 88.8938 1.47026 88.8919 1.97498V96.687C88.8938 97.1917 89.0951 97.6752 89.452 98.0321C89.8089 98.389 90.2924 98.5903 90.7971 98.5922H158.177C158.682 98.5903 159.165 98.389 159.522 98.0321C159.879 97.6752 160.08 97.1917 160.082 96.687V1.97498C160.08 1.47026 159.879 0.986734 159.522 0.629838C159.165 0.272942 158.682 0.0716261 158.177 0.0697874H90.7971Z" fill="#E0E0E0"/>
<path d="M114.575 8.46875H24.8984V53.677H114.575V8.46875Z" fill="#E0E0E0"/>
<path d="M115.747 8.46875H26.0703V53.677H115.747V8.46875Z" fill="#EFEFEF"/>
<path d="M113.651 10.5859H28.1719V51.5512H113.651V10.5859Z" fill="#F4F4F4"/>
<path d="M34.5 51.559L57.6834 10.5938H68.5458L45.3659 51.559H34.5Z" fill="white"/>
<path d="M49.0156 51.559L72.199 10.5938H83.0614L59.8815 51.559H49.0156Z" fill="white"/>
<path d="M79.2109 51.559L102.391 10.5938H106.864L83.6843 51.559H79.2109Z" fill="white"/>
<path d="M85.8176 10.5859H82.6562V51.5512H85.8176V10.5859Z" fill="#E0E0E0"/>
<path d="M56.8254 10.5859H53.6641V51.5512H56.8254V10.5859Z" fill="#E0E0E0"/>
<path d="M86.927 9.01562H83.7656V52.9049H86.927V9.01562Z" fill="#F4F4F4"/>
<path d="M57.9348 9.01562H54.7734V52.9049H57.9348V9.01562Z" fill="#F4F4F4"/>
<path d="M113.648 10.5859H112.766V51.5512H113.648V10.5859Z" fill="#E0E0E0"/>
<path d="M136.731 67.0201C136.731 67.0201 130.332 55.9902 139.209 47.2109C139.209 47.2109 141.526 48.7183 141.491 50.7492C141.456 52.78 139.01 53.2929 139.533 54.9887C140.057 56.6846 142.37 58.3455 140.856 59.7448C139.341 61.144 141.096 62.3932 140.995 64.1065C140.894 65.8198 136.731 67.0201 136.731 67.0201Z" fill="#E0E0E0"/>
<path d="M137.734 68.8238C137.734 68.8238 140.327 56.3388 129.133 50.8047C129.133 50.8047 127.413 52.9681 128.086 54.8838C128.759 56.7994 131.244 56.5168 131.279 58.2894C131.314 60.062 129.646 62.3685 131.527 63.2199C133.407 64.0713 132.13 65.809 132.769 67.4071C133.407 69.0052 137.734 68.8238 137.734 68.8238Z" fill="#EBEBEB"/>
<path d="M132.031 65.6562C132.031 65.6562 132.143 70.8624 136.449 70.8624C140.755 70.8624 140.87 65.6562 140.87 65.6562H132.031Z" fill="#F4F4F4"/>
<path d="M102.156 66.8047C102.156 66.8047 102.303 70.8593 107.966 70.8593C113.629 70.8593 113.779 66.8047 113.779 66.8047H102.156Z" fill="#EBEBEB"/>
<path d="M115.297 67.8125C115.297 67.8125 115.409 70.8622 119.666 70.8622C123.923 70.8622 124.031 67.8125 124.031 67.8125H115.297Z" fill="#EBEBEB"/>
<path d="M106.142 73.3906H96.6094V111.624H106.142V73.3906Z" fill="#EBEBEB"/>
<path d="M145.446 111.625H98.4375V114.246H145.446V111.625Z" fill="#EBEBEB"/>
<path d="M147.277 73.3906H106.141V111.624H147.277V73.3906Z" fill="#F4F4F4"/>
<path d="M143.532 77.0859H109.891V90.6456H143.532V77.0859Z" fill="#EBEBEB"/>
<path d="M143.532 93.1172H109.891V106.677H143.532V93.1172Z" fill="#EBEBEB"/>
<path d="M130.5 78.5708H122.932C122.685 78.5708 122.449 78.4731 122.274 78.2991C122.099 78.1252 122.001 77.8891 122 77.6426C122.002 77.3961 122.101 77.1602 122.275 76.9858C122.449 76.8115 122.685 76.7128 122.932 76.7109H130.5C130.747 76.7128 130.983 76.8115 131.157 76.9858C131.331 77.1602 131.43 77.3961 131.432 77.6426V77.6426C131.431 77.8891 131.332 78.1252 131.158 78.2991C130.983 78.4731 130.747 78.5708 130.5 78.5708V78.5708Z" fill="#F4F4F4"/>
<path d="M130.5 94.602H122.932C122.685 94.602 122.449 94.5043 122.274 94.3304C122.099 94.1564 122.001 93.9203 122 93.6738C122.002 93.4273 122.101 93.1914 122.275 93.0171C122.449 92.8428 122.685 92.744 122.932 92.7422H130.5C130.747 92.744 130.983 92.8428 131.157 93.0171C131.331 93.1914 131.43 93.4273 131.432 93.6738V93.6738C131.431 93.9203 131.332 94.1564 131.158 94.3304C130.983 94.5043 130.747 94.602 130.5 94.602Z" fill="#F4F4F4"/>
<path d="M148.547 70.8594H106.141V73.3892H148.547V70.8594Z" fill="#EBEBEB"/>
<path d="M106.139 70.8594H95.2734V73.3892H106.139V70.8594Z" fill="#E0E0E0"/>
<path d="M146.424 14.8359H125.773V38.6265H146.424V14.8359Z" fill="#EBEBEB"/>
<path d="M148.768 14.8359H126.391V38.6265H148.768V14.8359Z" fill="#F4F4F4"/>
<path d="M146.895 16.7109H128.266V36.7504H146.895V16.7109Z" fill="white"/>
<path d="M140.737 21.5625H134.425C133.517 21.5625 132.781 22.2983 132.781 23.206V30.2441C132.781 31.1517 133.517 31.8875 134.425 31.8875H140.737C141.645 31.8875 142.381 31.1517 142.381 30.2441V23.206C142.381 22.2983 141.645 21.5625 140.737 21.5625Z" fill="#F4F4F4"/>
<path d="M93.8972 92.0938H91.5V114.244H93.8972V92.0938Z" fill="#E0E0E0"/>
<path opacity="0.5" d="M93.8957 92.0938H92.6953V114.244H93.8957V92.0938Z" fill="#F4F4F4"/>
<path d="M83.3949 98.2969H81.7479C81.9284 98.1442 82.0735 97.9539 82.1729 97.7393C82.2723 97.5248 82.3238 97.2912 82.3237 97.0547H62.8076C62.8079 97.2914 62.8599 97.5252 62.96 97.7398C63.06 97.9544 63.2057 98.1445 63.3869 98.2969H61.7608C61.1778 98.2969 60.6186 98.5285 60.2064 98.9408C59.7941 99.353 59.5625 99.9122 59.5625 100.495V106.905C59.5625 107.488 59.7941 108.047 60.2064 108.46C60.6186 108.872 61.1778 109.103 61.7608 109.103H83.3949C83.9779 109.103 84.5371 108.872 84.9493 108.46C85.3616 108.047 85.5932 107.488 85.5932 106.905V100.495C85.5932 99.9122 85.3616 99.353 84.9493 98.9408C84.5371 98.5285 83.9779 98.2969 83.3949 98.2969V98.2969Z" fill="#F4F4F4"/>
<path d="M65.3452 103.031H52.2217C51.4046 103.031 50.7422 103.694 50.7422 104.511V107.623C50.7422 108.44 51.4046 109.103 52.2217 109.103H65.3452C66.1623 109.103 66.8247 108.44 66.8247 107.623V104.511C66.8247 103.694 66.1623 103.031 65.3452 103.031Z" fill="#EBEBEB"/>
<path d="M66.3292 101.688H51.2377C50.964 101.688 50.7422 101.909 50.7422 102.183V102.748C50.7422 103.022 50.964 103.244 51.2377 103.244H66.3292C66.6029 103.244 66.8247 103.022 66.8247 102.748V102.183C66.8247 101.909 66.6029 101.688 66.3292 101.688Z" fill="#E0E0E0"/>
<path d="M68.3047 82.2031C68.3047 82.2031 68.5315 89.5308 77.1153 89.5308C85.6992 89.5308 85.926 82.2031 85.926 82.2031H68.3047Z" fill="#EBEBEB"/>
<path d="M37.6116 89.5312H26.9062V92.0925H37.6116V89.5312Z" fill="#E0E0E0"/>
<path d="M102.205 89.5312H37.6172V92.0925H102.205V89.5312Z" fill="#F4F4F4"/>
<path d="M37.6116 109.102H26.9062V111.663H37.6116V109.102Z" fill="#E0E0E0"/>
<path d="M29.3034 92.0938H26.9062V114.244H29.3034V92.0938Z" fill="#E0E0E0"/>
<path opacity="0.5" d="M29.3097 92.0938H28.1094V114.244H29.3097V92.0938Z" fill="#F4F4F4"/>
<path d="M38.8113 92.0938H36.4141V114.244H38.8113V92.0938Z" fill="#F4F4F4"/>
<path d="M37.6144 92.0938H36.4141V114.244H37.6144V92.0938Z" fill="#E0E0E0"/>
<path d="M102.202 92.0938H99.8047V114.244H102.202V92.0938Z" fill="#F4F4F4"/>
<path d="M101.005 92.0938H99.8047V114.244H101.005V92.0938Z" fill="#E0E0E0"/>
<path d="M102.205 109.102H37.6172V111.663H102.205V109.102Z" fill="#F4F4F4"/>
<path d="M54.8426 88.0156H41.8203V89.5265H54.8426V88.0156Z" fill="#E0E0E0"/>
<path d="M59.5012 88.0156H54.8359V89.5265H59.5012V88.0156Z" fill="#EBEBEB"/>
<path d="M87.2335 130.001C124.599 130.001 154.889 128.233 154.889 126.052C154.889 123.87 124.599 122.102 87.2335 122.102C49.8685 122.102 19.5781 123.87 19.5781 126.052C19.5781 128.233 49.8685 130.001 87.2335 130.001Z" fill="#F5F5F5"/>
<path d="M76.0247 33.3918C76.0491 37.5267 73.0866 37.4849 73.1459 36.1833C73.2053 34.8818 72.4725 31.8251 73.1459 32.1217C73.8194 32.4183 76.0142 31.5634 76.0247 33.3918Z" fill="#1A2E35"/>
<path d="M74.1586 40.8846C74.5668 40.8532 75.3868 41.2335 75.4601 42.3117C75.4792 42.625 75.5708 42.9296 75.7276 43.2015C75.8844 43.4734 76.1022 43.7051 76.3639 43.8785C76.3639 43.8785 75.0065 44.0425 74.1167 43.3376C73.3909 42.7689 73.0699 41.5231 73.4502 41.244C73.6592 41.0768 73.9003 40.9544 74.1586 40.8846V40.8846Z" fill="#1A2E35"/>
<path d="M73.6287 37.9453C74.3266 38.5629 74.9651 40.196 73.3914 40.9706C71.8177 41.7452 69.3438 39.9238 69.3438 39.9238L72.062 38.6641L73.6287 37.9453Z" fill="#1A2E35"/>
<path d="M74.3996 41.0338C74.3614 40.8077 74.2982 40.5865 74.2112 40.3743C74.2046 40.3567 74.1946 40.3405 74.1817 40.3267C74.1688 40.3129 74.1534 40.3018 74.1362 40.294C74.119 40.2862 74.1004 40.2819 74.0816 40.2813C74.0627 40.2807 74.0439 40.2839 74.0263 40.2906H73.9984L73.0318 40.9361C73.0162 40.9467 73.0028 40.9602 72.9925 40.9759C72.9821 40.9916 72.9749 41.0091 72.9713 41.0276C72.9678 41.0461 72.9679 41.0651 72.9717 41.0835C72.9755 41.102 72.9829 41.1195 72.9934 41.135V41.135C73.0044 41.1495 73.0173 41.1624 73.0318 41.1734C73.1713 41.2748 73.321 41.3613 73.4784 41.4316C73.7052 41.5224 74.1763 41.2641 74.3368 41.1525C74.3569 41.1401 74.3733 41.1226 74.3843 41.1017C74.3954 41.0808 74.4007 41.0574 74.3996 41.0338V41.0338Z" fill="#407BFF"/>
<path opacity="0.3" d="M74.3996 41.0338C74.3614 40.8077 74.2982 40.5865 74.2112 40.3743C74.2046 40.3567 74.1946 40.3405 74.1817 40.3267C74.1688 40.3129 74.1534 40.3018 74.1362 40.294C74.119 40.2862 74.1004 40.2819 74.0816 40.2813C74.0627 40.2807 74.0439 40.2839 74.0263 40.2906H73.9984L73.0318 40.9361C73.0162 40.9467 73.0028 40.9602 72.9925 40.9759C72.9821 40.9916 72.9749 41.0091 72.9713 41.0276C72.9678 41.0461 72.9679 41.0651 72.9717 41.0835C72.9755 41.102 72.9829 41.1195 72.9934 41.135V41.135C73.0044 41.1495 73.0173 41.1624 73.0318 41.1734C73.1713 41.2748 73.321 41.3613 73.4784 41.4316C73.7052 41.5224 74.1763 41.2641 74.3368 41.1525C74.3569 41.1401 74.3733 41.1226 74.3843 41.1017C74.3954 41.0808 74.4007 41.0574 74.3996 41.0338V41.0338Z" fill="black"/>
<path d="M63.9993 39.3182C63.6119 39.1891 62.7256 39.3636 62.3976 40.3964C62.3042 40.696 62.1429 40.97 61.9262 41.1969C61.7095 41.4239 61.4433 41.5978 61.1484 41.705C61.1484 41.705 62.429 42.1865 63.4619 41.705C64.2993 41.3246 64.8925 40.1871 64.6029 39.8242C64.4388 39.6156 64.2333 39.4433 63.9993 39.3182V39.3182Z" fill="#1A2E35"/>
<path d="M67.8428 32.2188C66.4297 32.6026 64.528 34.2775 65.3724 36.3327C64.5384 36.9015 63.4707 38.538 64.7199 39.5848C66.0633 40.7119 69.3677 39.1312 69.3677 39.1312L69.3921 38.5938L69.7864 34.595L67.8428 32.2188Z" fill="#1A2E35"/>
<path d="M63.7319 39.4083C63.8248 39.1966 63.9419 38.9964 64.0808 38.8116C64.1054 38.7816 64.1409 38.7625 64.1794 38.7586C64.218 38.7546 64.2566 38.7662 64.2867 38.7906L64.3076 38.8116L65.0893 39.6665C65.1026 39.6798 65.1131 39.6955 65.1203 39.7129C65.1275 39.7303 65.1312 39.7489 65.1312 39.7677C65.1312 39.7865 65.1275 39.8051 65.1203 39.8224C65.1131 39.8398 65.1026 39.8556 65.0893 39.8689V39.8689C65.0783 39.8821 65.0638 39.8918 65.0474 39.8968C64.8889 39.9618 64.724 40.0098 64.5554 40.0398C64.3111 40.0747 63.9343 39.7153 63.7877 39.5688C63.7633 39.5508 63.7449 39.5258 63.7349 39.4972C63.7249 39.4685 63.7239 39.4375 63.7319 39.4083Z" fill="#407BFF"/>
<path opacity="0.3" d="M63.7319 39.4083C63.8248 39.1966 63.9419 38.9964 64.0808 38.8116C64.1054 38.7816 64.1409 38.7625 64.1794 38.7586C64.218 38.7546 64.2566 38.7662 64.2867 38.7906L64.3076 38.8116L65.0893 39.6665C65.1026 39.6798 65.1131 39.6955 65.1203 39.7129C65.1275 39.7303 65.1312 39.7489 65.1312 39.7677C65.1312 39.7865 65.1275 39.8051 65.1203 39.8224C65.1131 39.8398 65.1026 39.8556 65.0893 39.8689V39.8689C65.0783 39.8821 65.0638 39.8918 65.0474 39.8968C64.8889 39.9618 64.724 40.0098 64.5554 40.0398C64.3111 40.0747 63.9343 39.7153 63.7877 39.5688C63.7633 39.5508 63.7449 39.5258 63.7349 39.4972C63.7249 39.4685 63.7239 39.4375 63.7319 39.4083Z" fill="black"/>
<path d="M76.4506 46.7812C77.1171 47.2977 77.8464 47.849 78.5791 48.3515C79.3119 48.8539 80.0482 49.3599 80.8054 49.824C81.5625 50.2881 82.3302 50.7207 83.1048 51.1325L83.6876 51.4291L84.2808 51.7047C84.4762 51.799 84.6751 51.8827 84.8774 51.9595L85.174 52.0816C85.2752 52.12 85.3834 52.1688 85.4462 52.1863C85.8111 52.2975 86.1846 52.378 86.5628 52.427C86.9746 52.4864 87.4072 52.5282 87.8469 52.5596C88.7227 52.6155 89.623 52.6399 90.5267 52.6434C91.4305 52.6469 92.3447 52.6434 93.2554 52.6155L95.9946 52.5387L96.1656 53.91C94.3328 54.2791 92.4821 54.5528 90.621 54.73C89.6823 54.8138 88.7402 54.8766 87.7771 54.8836C87.2956 54.8836 86.8071 54.8836 86.3046 54.8382C85.7642 54.807 85.2286 54.7193 84.7065 54.5765C84.546 54.5346 84.4448 54.4928 84.3261 54.4544L83.9772 54.3322C83.7434 54.2555 83.5131 54.1717 83.2793 54.0775L82.6024 53.8053L81.9394 53.5122C81.0631 53.1177 80.2092 52.675 79.3817 52.1863C78.5582 51.7013 77.7487 51.1988 76.967 50.6614C76.1692 50.1209 75.4004 49.5385 74.6641 48.9167L76.4506 46.7812Z" fill="#FD897B"/>
<path d="M72.8234 45.2203C73.6923 44.5434 77.2689 46.7591 78.3576 47.6838L77.5655 52.4747C77.5655 52.4747 72.4187 50.3183 72.1081 48.8458C71.7871 47.3069 72.1674 45.7367 72.8234 45.2203Z" fill="#1A2E35"/>
<path d="M95.6083 52.6636L97.7648 50.9922L97.9357 53.5778C97.9357 53.5778 96.4493 54.499 95.4688 53.9267L95.6083 52.6636Z" fill="#FD897B"/>
<path d="M99.6866 50.7344L100.789 51.9626L97.921 53.5747L97.75 50.9891L99.6866 50.7344Z" fill="#FD897B"/>
<path d="M58.7188 122.639L61.437 122.842L62.428 116.585L59.7132 116.383L58.7188 122.639Z" fill="#FD897B"/>
<path d="M39.4922 113.898L41.7987 115.35L45.9057 110.478L43.5992 109.023L39.4922 113.898Z" fill="#FD897B"/>
<path d="M42.5271 114.832L40.3672 112.658C40.3299 112.621 40.2805 112.598 40.228 112.594C40.1755 112.59 40.1233 112.606 40.081 112.637L38.1165 114.106C38.0259 114.179 37.9681 114.285 37.9556 114.401C37.9432 114.517 37.9772 114.633 38.0502 114.724L38.0816 114.759C38.8458 115.502 39.2541 115.823 40.2032 116.779C40.7859 117.369 41.578 118.286 42.384 119.099C43.1901 119.912 44.0345 119.155 43.7798 118.75C42.6004 116.911 42.8132 116.224 42.733 115.289C42.7233 115.116 42.65 114.953 42.5271 114.832V114.832Z" fill="#1A2E35"/>
<path d="M61.6182 122.453H58.5545C58.5006 122.453 58.4484 122.472 58.407 122.506C58.3656 122.541 58.3375 122.589 58.3277 122.642L57.8427 125.063C57.8232 125.17 57.8463 125.279 57.907 125.369C57.9677 125.458 58.0612 125.52 58.1672 125.541V125.541C58.1997 125.545 58.2324 125.545 58.2649 125.541C59.3326 125.541 59.8526 125.461 61.1995 125.461C62.0264 125.461 64.3399 125.545 65.4949 125.545C66.6499 125.545 66.765 124.414 66.2939 124.313C64.2003 123.853 62.7592 123.221 62.0718 122.614C61.9454 122.507 61.7839 122.449 61.6182 122.453Z" fill="#1A2E35"/>
<path d="M62.4265 116.59L61.8752 120.065L59.1953 119.615L59.7083 116.391L62.4265 116.59Z" fill="#E77064"/>
<path d="M43.5954 109.031L45.9019 110.483L44.2026 112.5L41.8438 111.107L43.5954 109.031Z" fill="#E77064"/>
<path d="M60.7891 59.7177L71.655 61.8357C77.2694 46.6325 76.0481 46.1336 76.0481 46.1336C75.2586 45.6993 74.4429 45.3147 73.6055 44.9821L73.459 44.9262C72.7611 44.6715 72.6215 44.6331 71.6933 44.361C70.0952 43.9806 68.6053 43.6631 66.7594 43.4014L66.4104 43.3525C66.0615 43.3107 65.744 43.2758 65.4229 43.2444C65.2066 43.2199 64.9903 43.206 64.7844 43.192L64.0865 43.1536C62.8932 43.0943 62.0383 43.1118 62.0383 43.1118C62.3697 52.6063 61.8324 55.3315 60.7891 59.7177Z" fill="#1A2E35"/>
<path d="M68.3237 37.9453C68.3237 39.5923 68.069 42.5618 66.75 43.4062C66.75 43.4062 66.8721 45.102 69.8206 45.6743C73.0658 46.3058 71.684 44.3658 71.684 44.3658C69.9986 43.5981 70.2882 42.2931 70.8465 41.1206L68.3237 37.9453Z" fill="#FD897B"/>
<path d="M69.3583 39.2422L70.8518 41.123C70.7222 41.3953 70.6149 41.6777 70.5307 41.9674C69.8712 41.7371 69.0861 40.8159 69.135 40.0936C69.1564 39.7985 69.2321 39.5098 69.3583 39.2422V39.2422Z" fill="#E77064"/>
<path d="M68.1741 34.1629C67.8252 36.8462 67.6124 37.9733 68.6871 39.5958C70.3027 42.0384 73.6734 41.8814 74.8214 39.3586C75.8682 37.087 76.259 33.0777 73.8688 31.5249C73.4645 31.2578 73.0115 31.073 72.5357 30.9811C72.0599 30.8891 71.5706 30.8918 71.0959 30.989C70.6212 31.0863 70.1702 31.2761 69.7689 31.5476C69.3676 31.8192 69.0237 32.1672 68.7569 32.5717V32.5717C68.4429 33.0503 68.2435 33.5948 68.1741 34.1629Z" fill="#FD897B"/>
<path d="M76.9048 29.913C76.9539 30.3385 76.9219 30.7695 76.8106 31.1831C76.7855 31.0428 76.7517 30.9041 76.7094 30.7679C75.7533 27.6065 71.4474 28.3602 70.1494 29.7211C68.0557 29.1209 66.0633 29.599 66.3285 32.1637C66.3616 32.8244 66.5994 33.4585 67.0089 33.9781C66.6844 34.8784 67.0089 36.3125 68.0802 36.3544C69.5876 36.4137 71.0182 34.4178 71.594 33.3221C72.6408 33.5001 74.1482 33.6711 75.2927 33.3919C75.4846 33.5071 75.6416 33.5873 75.6416 33.5873C76.8594 32.9348 77.7876 32.3032 76.9048 29.913Z" fill="#1A2E35"/>
<path d="M67.2408 35.9943C67.1989 36.5149 67.363 37.0311 67.6979 37.4319C68.1515 37.9588 68.7447 37.6483 68.9576 37.0237C69.1355 36.4584 69.1111 35.5058 68.504 35.2092C68.3986 35.1596 68.2845 35.1314 68.1681 35.126C68.0518 35.1205 67.9356 35.1381 67.8261 35.1776C67.7165 35.2172 67.6159 35.2779 67.5298 35.3564C67.4438 35.4348 67.374 35.5295 67.3246 35.6349C67.2722 35.7477 67.2437 35.87 67.2408 35.9943Z" fill="#FD897B"/>
<path opacity="0.3" d="M71.4903 61.8305C71.4903 61.8305 71.5322 83.4018 69.7666 91.5251C67.9311 99.9763 62.5331 119.203 62.5331 119.203L58.625 118.697C58.625 118.697 61.6852 99.275 62.9867 90.8761C64.4069 81.7234 63.538 60.2812 63.538 60.2812L71.4903 61.8305Z" fill="black"/>
<path d="M63.1976 119.541L57.9531 118.864L58.1764 117.008L64.1293 117.706L63.1976 119.541Z" fill="#1A2E35"/>
<path d="M68.786 61.2785C68.786 61.2785 62.9343 79.1057 60.0277 89.3749C56.964 100.209 45.2188 112.192 45.2188 112.192L41.8516 110.245C41.8516 110.245 49.8771 98.8695 52.8256 88.7608C58.8308 68.2398 56.3639 63.892 60.7884 59.7188L68.786 61.2785Z" fill="#407BFF"/>
<path opacity="0.3" d="M68.786 61.2785C68.786 61.2785 62.9343 79.1057 60.0277 89.3749C56.964 100.209 45.2188 112.192 45.2188 112.192L41.8516 110.245C41.8516 110.245 49.8771 98.8695 52.8256 88.7608C58.8308 68.2398 56.3639 63.892 60.7884 59.7188L68.786 61.2785Z" fill="black"/>
<path d="M45.7652 112.728L41.0859 110.027L42.2514 108.359L47.4471 111.224L45.7652 112.728Z" fill="#1A2E35"/>
<path d="M72.0423 35.6915C72.0005 35.9078 72.0807 36.1032 72.2238 36.1311C72.3668 36.159 72.5134 36.0055 72.5727 35.7822C72.632 35.5589 72.5343 35.367 72.3913 35.339C72.2482 35.3111 72.0842 35.4751 72.0423 35.6915Z" fill="#1A2E35"/>
<path d="M74.4798 36.1605C74.438 36.3769 74.5182 36.5758 74.6613 36.6037C74.8043 36.6316 74.9509 36.4781 74.9928 36.2548C75.0346 36.0314 74.9544 35.8395 74.8113 35.8151C74.6683 35.7907 74.5217 35.9407 74.4798 36.1605Z" fill="#1A2E35"/>
<path d="M74.75 35.8188L75.2978 35.7734C75.2978 35.7734 74.9524 36.1259 74.75 35.8188Z" fill="#1A2E35"/>
<path d="M73.7653 36.4062C73.8618 36.9353 74.0309 37.4484 74.2678 37.9311C74.1428 37.9897 74.0064 38.02 73.8683 38.02C73.7302 38.02 73.5938 37.9897 73.4688 37.9311L73.7653 36.4062Z" fill="#FD5652"/>
<path d="M72.5585 38.6303C72.2668 38.5826 71.9911 38.4649 71.7547 38.2875C71.5183 38.1101 71.3284 37.8781 71.2011 37.6114C71.1976 37.6039 71.1957 37.5957 71.1954 37.5874C71.195 37.579 71.1964 37.5708 71.1993 37.563C71.2022 37.5552 71.2067 37.548 71.2124 37.542C71.2181 37.5359 71.2249 37.531 71.2325 37.5277V37.5277C71.2483 37.5217 71.2658 37.5221 71.2813 37.5285C71.2969 37.535 71.3094 37.5472 71.3163 37.5626C71.4381 37.8077 71.616 38.0207 71.8354 38.1843C72.0549 38.348 72.3097 38.4578 72.5794 38.5047C72.5877 38.5059 72.5957 38.5089 72.6028 38.5133C72.61 38.5176 72.6162 38.5234 72.6211 38.5303C72.6259 38.5371 72.6294 38.5448 72.6313 38.553C72.6331 38.5612 72.6333 38.5697 72.6318 38.578V38.578C72.6284 38.5943 72.619 38.6088 72.6054 38.6185C72.5918 38.6282 72.575 38.6324 72.5585 38.6303Z" fill="#1A2E35"/>
<path d="M71.4885 34.7603C71.4548 34.7586 71.4229 34.7444 71.3991 34.7206C71.3752 34.6967 71.3611 34.6648 71.3594 34.6312C71.3608 34.5956 71.3758 34.5619 71.4012 34.5369C71.5507 34.3964 71.7317 34.2936 71.9289 34.2372C72.1262 34.1807 72.3341 34.1722 72.5353 34.2124C72.5683 34.2222 72.5962 34.2444 72.6131 34.2743C72.63 34.3043 72.6347 34.3396 72.626 34.3729C72.622 34.389 72.6147 34.4041 72.6048 34.4174C72.5949 34.4307 72.5824 34.4418 72.5681 34.4503C72.5539 34.4587 72.5381 34.4642 72.5217 34.4665C72.5052 34.4688 72.4885 34.4679 72.4725 34.4637V34.4637C72.3127 34.4353 72.1485 34.4445 71.9928 34.4906C71.8372 34.5366 71.6944 34.6182 71.5757 34.7289C71.5517 34.7501 71.5205 34.7613 71.4885 34.7603V34.7603Z" fill="#1A2E35"/>
<path d="M75.8338 35.2432C75.8082 35.2435 75.7831 35.236 75.7619 35.2216C75.7407 35.2073 75.7244 35.1868 75.7152 35.1629C75.6548 35.0135 75.5607 34.88 75.4403 34.7729C75.3198 34.6657 75.1763 34.5879 75.0208 34.5453C75.004 34.5424 74.9881 34.5362 74.9737 34.527C74.9594 34.5179 74.947 34.506 74.9373 34.492C74.9276 34.4781 74.9207 34.4624 74.917 34.4458C74.9134 34.4292 74.9131 34.412 74.9161 34.3953C74.9229 34.3619 74.9423 34.3324 74.9702 34.3129C74.9981 34.2934 75.0325 34.2854 75.0662 34.2906C75.2652 34.3403 75.4495 34.4369 75.6036 34.5722C75.7578 34.7076 75.8774 34.8778 75.9525 35.0687C75.9594 35.0843 75.9632 35.1011 75.9636 35.1181C75.9641 35.1352 75.9611 35.1521 75.9549 35.168C75.9488 35.1839 75.9395 35.1984 75.9277 35.2107C75.9159 35.223 75.9018 35.2329 75.8862 35.2397V35.2397L75.8338 35.2432Z" fill="#1A2E35"/>
<path d="M72.3374 37.5979C72.2293 37.5983 72.1226 37.5736 72.0258 37.5258C71.9289 37.4779 71.8444 37.4083 71.7791 37.3222C71.615 37.0663 71.5055 36.7792 71.4574 36.479C71.4094 36.1788 71.4239 35.8719 71.4999 35.5775C71.6988 34.4749 72.3897 33.5781 73.0422 33.5781C73.1508 33.5797 73.2576 33.6056 73.3548 33.6539C73.452 33.7022 73.5372 33.7717 73.604 33.8573C73.7681 34.1132 73.8776 34.4003 73.9256 34.7005C73.9737 35.0007 73.9592 35.3076 73.8831 35.602C73.6843 36.7046 72.9899 37.5979 72.3374 37.5979ZM73.0352 33.6758C72.4246 33.6758 71.7686 34.5412 71.5767 35.602C71.4545 36.2998 71.5522 36.9279 71.8384 37.2664C71.8963 37.3419 71.9708 37.4032 72.0561 37.4455C72.1414 37.4878 72.2352 37.5101 72.3304 37.5106C72.9445 37.5106 73.597 36.6488 73.7889 35.588C73.863 35.3076 73.878 35.0148 73.8329 34.7283C73.7879 34.4418 73.6838 34.1677 73.5272 33.9236C73.4707 33.848 73.3976 33.7863 73.3135 33.7434C73.2294 33.7004 73.1366 33.6773 73.0422 33.6758H73.0352Z" fill="#F9F9F9"/>
<path d="M75.0495 37.9525C74.9365 37.9509 74.8254 37.9237 74.7244 37.873C74.6235 37.8222 74.5354 37.7492 74.4668 37.6594C74.3101 37.4245 74.2041 37.1595 74.1554 36.8814C74.1068 36.6032 74.1166 36.318 74.1841 36.0438C74.3621 35.018 75.0321 34.1875 75.6776 34.1875C75.7907 34.1905 75.9016 34.2187 76.0025 34.27C76.1033 34.3213 76.1913 34.3944 76.2603 34.4841C76.4155 34.719 76.5207 34.9834 76.5693 35.2607C76.618 35.5381 76.609 35.8225 76.543 36.0962V36.0962C76.3685 37.1256 75.6985 37.9525 75.0495 37.9525ZM75.6671 34.2747C75.06 34.2747 74.4319 35.0738 74.2714 36.0613C74.2088 36.3229 74.2 36.5945 74.2456 36.8597C74.2912 37.1248 74.3902 37.3779 74.5366 37.6036C74.5989 37.6816 74.6773 37.7454 74.7664 37.7905C74.8555 37.8357 74.9532 37.8612 75.053 37.8653C75.6601 37.8653 76.2917 37.0697 76.4487 36.0822C76.5108 35.8207 76.5197 35.5494 76.4747 35.2845C76.4297 35.0195 76.3319 34.7663 76.187 34.5399C76.125 34.4612 76.0468 34.3968 75.9577 34.3511C75.8686 34.3053 75.7707 34.2793 75.6706 34.2747H75.6671Z" fill="#F9F9F9"/>
<path d="M43.3284 116.095C42.9795 116.095 42.6305 115.557 42.4246 115.247C42.4177 115.237 42.4141 115.224 42.4141 115.212C42.4141 115.2 42.4177 115.187 42.4246 115.177C42.4321 115.167 42.4422 115.159 42.4539 115.154C42.4656 115.149 42.4784 115.147 42.4909 115.149C42.6026 115.174 43.5622 115.383 43.6843 115.711C43.6982 115.747 43.702 115.786 43.6952 115.824C43.6884 115.863 43.6714 115.898 43.6459 115.927C43.6131 115.981 43.5663 116.025 43.5104 116.055C43.4544 116.084 43.3915 116.098 43.3284 116.095V116.095ZM42.5991 115.31C42.8678 115.714 43.1295 115.955 43.3179 115.966C43.3598 115.966 43.401 115.956 43.4376 115.935C43.4743 115.915 43.5052 115.886 43.5273 115.851C43.5391 115.838 43.547 115.823 43.5501 115.806C43.5532 115.789 43.5513 115.772 43.5447 115.756C43.4819 115.582 42.9829 115.407 42.5991 115.31Z" fill="#407BFF"/>
<path d="M42.7552 115.308C42.6495 115.309 42.5442 115.297 42.4412 115.273C42.4307 115.27 42.4211 115.264 42.4133 115.256C42.4054 115.248 42.3994 115.238 42.3958 115.228C42.3889 115.207 42.3889 115.185 42.3958 115.165C42.4202 115.144 42.9541 114.617 43.3484 114.617H43.3763C43.4252 114.62 43.4728 114.634 43.516 114.657C43.5593 114.68 43.5973 114.711 43.6276 114.75C43.6631 114.787 43.6852 114.835 43.6903 114.886C43.6953 114.938 43.6831 114.989 43.6555 115.032C43.5438 115.221 43.0972 115.308 42.7552 115.308ZM42.5982 115.172C42.9262 115.21 43.4566 115.116 43.5647 114.959C43.5822 114.935 43.5962 114.896 43.5438 114.83C43.5256 114.804 43.5015 114.783 43.4736 114.769C43.4457 114.754 43.4148 114.747 43.3833 114.746C43.0834 114.802 42.8088 114.951 42.5982 115.172Z" fill="#407BFF"/>
<path d="M62.6221 122.933C62.3333 122.926 62.0458 122.891 61.7637 122.828C61.7503 122.825 61.7381 122.818 61.7287 122.808C61.7193 122.798 61.7133 122.786 61.7114 122.772C61.7098 122.759 61.7123 122.745 61.7186 122.733C61.7248 122.722 61.7345 122.712 61.7463 122.706C61.8754 122.643 62.9955 122.085 63.32 122.273C63.3493 122.292 63.3736 122.318 63.3906 122.348C63.4076 122.378 63.4169 122.413 63.4177 122.448C63.4214 122.506 63.411 122.565 63.3873 122.619C63.3636 122.673 63.3274 122.721 63.2816 122.758C63.0874 122.888 62.8553 122.95 62.6221 122.933V122.933ZM61.9836 122.744C62.5802 122.842 63.0304 122.817 63.2048 122.667C63.2348 122.642 63.2583 122.609 63.2734 122.573C63.2886 122.537 63.295 122.497 63.2921 122.458C63.2928 122.445 63.2899 122.432 63.2837 122.42C63.2776 122.408 63.2684 122.399 63.2572 122.392C63.0827 122.29 62.4616 122.528 61.9836 122.741V122.744Z" fill="#407BFF"/>
<path d="M61.778 122.831H61.7397C61.7294 122.824 61.7213 122.815 61.7164 122.803C61.7114 122.792 61.7098 122.78 61.7117 122.768C61.7117 122.719 61.8792 121.609 62.4864 121.609H62.5387C62.7132 121.627 62.762 121.714 62.7725 121.787C62.8214 122.094 62.1444 122.688 61.8025 122.834L61.778 122.831ZM62.4759 121.728C62.0816 121.728 61.9072 122.37 61.8478 122.649C62.1968 122.443 62.6609 121.979 62.6329 121.794C62.6329 121.794 62.6329 121.738 62.5108 121.728H62.4759Z" fill="#407BFF"/>
<path d="M72.3125 35.3457L72.8603 35.2969C72.8603 35.2969 72.5149 35.6528 72.3125 35.3457Z" fill="#1A2E35"/>
<path d="M69.9129 47.9925C65.3767 46.2723 63.96 43.6971 64.0682 43.1562L64.7661 43.1981H64.9021C65.0762 43.2027 65.2498 43.2178 65.4221 43.2435C65.7431 43.2714 66.0746 43.3063 66.4096 43.3517L66.7585 43.4005C68.4238 43.6031 70.0726 43.9237 71.6925 44.3601C72.4322 44.5764 72.6765 44.6462 73.0882 44.7928L73.4371 44.9254L73.5837 44.9812C73.9466 45.7628 73.8663 47.3609 69.9129 47.9925Z" fill="#FD897B"/>
<path d="M69.9129 47.9925C65.3767 46.2723 63.96 43.6971 64.0682 43.1562L64.7661 43.1981H64.9021C65.8233 44.5066 67.8402 46.3141 69.8954 46.5619C71.5494 46.2129 73.1091 45.8151 73.0952 44.7928L73.4441 44.9254L73.5907 44.9812C73.9466 45.7628 73.8663 47.3609 69.9129 47.9925Z" fill="#407BFF"/>
<path opacity="0.3" d="M69.9129 47.9925C65.3767 46.2723 63.96 43.6971 64.0682 43.1562L64.7661 43.1981H64.9021C65.8233 44.5066 67.8402 46.3141 69.8954 46.5619C71.5494 46.2129 73.1091 45.8151 73.0952 44.7928L73.4441 44.9254L73.5907 44.9812C73.9466 45.7628 73.8663 47.3609 69.9129 47.9925Z" fill="black"/>
<path d="M60.7458 59.0422L60.0479 59.9215C59.9956 59.9878 60.0723 60.082 60.198 60.1064L71.5942 62.3257C71.6919 62.3466 71.7827 62.3257 71.8001 62.2524L72.0862 61.2998C72.1072 61.2335 72.0339 61.1602 71.9257 61.1393L60.9202 58.9968C60.8896 58.9901 60.8579 58.9907 60.8276 58.9986C60.7973 59.0065 60.7692 59.0214 60.7458 59.0422V59.0422Z" fill="#1A2E35"/>
<path d="M61.9836 60.5595L61.6905 60.5036C61.6312 60.5036 61.5928 60.4548 61.6033 60.4164L61.9871 59.1812C61.9871 59.1428 62.0569 59.1253 62.1127 59.1358L62.4093 59.1916C62.4686 59.1916 62.507 59.244 62.4966 59.2789L62.1127 60.5176C62.0992 60.5383 62.079 60.5537 62.0556 60.5613C62.0321 60.5689 62.0067 60.5683 61.9836 60.5595V60.5595Z" fill="#407BFF"/>
<path opacity="0.3" d="M61.9836 60.5595L61.6905 60.5036C61.6312 60.5036 61.5928 60.4548 61.6033 60.4164L61.9871 59.1812C61.9871 59.1428 62.0569 59.1253 62.1127 59.1358L62.4093 59.1916C62.4686 59.1916 62.507 59.244 62.4966 59.2789L62.1127 60.5176C62.0992 60.5383 62.079 60.5537 62.0556 60.5613C62.0321 60.5689 62.0067 60.5683 61.9836 60.5595V60.5595Z" fill="black"/>
<path d="M62.7626 47.3211C62.63 48.1481 62.5044 49.0658 62.4137 49.9242C62.323 50.7826 62.2427 51.6689 62.2008 52.5621C62.1776 53.0018 62.1636 53.4415 62.159 53.8811V55.1896C62.1764 56.0442 62.2428 56.897 62.3579 57.7439C62.4244 58.0336 62.5426 58.309 62.7068 58.5569C62.9168 58.896 63.1499 59.2201 63.4047 59.5269C63.9621 60.189 64.5587 60.817 65.1912 61.4077C65.8298 62.0218 66.4997 62.615 67.1871 63.1943C67.8746 63.7735 68.5829 64.3492 69.2808 64.9041L68.5306 66.0625C66.8882 65.1629 65.3179 64.1374 63.8339 62.9954C63.067 62.4092 62.3439 61.7678 61.6705 61.0762C61.3104 60.7063 60.9802 60.3084 60.683 59.8863C60.3138 59.3881 60.0513 58.8191 59.9118 58.2149L59.7827 57.4752C59.7373 57.2344 59.7059 56.9936 59.678 56.7564C59.6082 56.2748 59.5699 55.7968 59.5315 55.3188C59.4588 54.368 59.4366 53.4141 59.4652 52.461C59.4931 51.5153 59.5454 50.5732 59.6396 49.6346C59.7339 48.6959 59.8525 47.7747 60.0409 46.8047L62.7626 47.3211Z" fill="#FD897B"/>
<path d="M60.4481 43.8422C58.9546 45.0495 59.3105 48.6366 59.3105 48.6366L64.3352 50.2905C64.3352 50.2905 64.1049 46.1556 63.8607 44.6691C63.5606 42.9 61.9136 42.6523 60.4481 43.8422Z" fill="#1A2E35"/>
<path d="M68.6625 64.6804L70.9341 63.8359L70.5852 65.9959C70.5852 65.9959 68.9382 66.589 68.0938 65.8284L68.6625 64.6804Z" fill="#FD897B"/>
<path d="M73.6391 64.157V65.8249L70.5859 65.9959L70.9349 63.8359L73.6391 64.157Z" fill="#FD897B"/>
<path d="M70.7649 62.2704L70.4718 62.2146C70.4124 62.2146 70.3741 62.1657 70.3845 62.1273L70.7684 60.8921C70.7684 60.8537 70.8381 60.8363 70.8975 60.8467L71.1906 60.9026C71.2499 60.9026 71.2883 60.9549 71.2778 60.9898L70.894 62.2285C70.8835 62.2634 70.8381 62.2844 70.7649 62.2704Z" fill="#407BFF"/>
<path opacity="0.3" d="M70.7649 62.2704L70.4718 62.2146C70.4124 62.2146 70.3741 62.1657 70.3845 62.1273L70.7684 60.8921C70.7684 60.8537 70.8381 60.8363 70.8975 60.8467L71.1906 60.9026C71.2499 60.9026 71.2883 60.9549 71.2778 60.9898L70.894 62.2285C70.8835 62.2634 70.8381 62.2844 70.7649 62.2704Z" fill="black"/>
<path d="M66.3754 61.411L66.0788 61.3552C66.0195 61.3552 65.9811 61.3063 65.9951 61.268L66.3789 60.0327C66.3789 59.9943 66.4452 59.9769 66.5045 59.9874L66.8011 60.0432C66.8569 60.0432 66.8988 60.0955 66.8848 60.1304L66.501 61.3692C66.4905 61.411 66.4347 61.4285 66.3754 61.411Z" fill="#407BFF"/>
<path opacity="0.3" d="M66.3754 61.411L66.0788 61.3552C66.0195 61.3552 65.9811 61.3063 65.9951 61.268L66.3789 60.0327C66.3789 59.9943 66.4452 59.9769 66.5045 59.9874L66.8011 60.0432C66.8569 60.0432 66.8988 60.0955 66.8848 60.1304L66.501 61.3692C66.4905 61.411 66.4347 61.4285 66.3754 61.411Z" fill="black"/>
<path d="M44.1515 81.7652L62.2404 121.272C62.655 122.17 63.4081 122.867 64.3351 123.212C65.2622 123.556 66.2879 123.52 67.1883 123.111L70.06 121.799L136.557 91.354C137.455 90.9407 138.153 90.1885 138.499 89.262C138.844 88.3355 138.808 87.3099 138.399 86.4096L122.415 51.5159L120.321 46.9064C119.905 46.0098 119.152 45.3137 118.225 44.9694C117.299 44.625 116.274 44.6603 115.373 45.0675L46.0008 76.8208C45.1026 77.2343 44.4042 77.986 44.0578 78.9121C43.7114 79.8383 43.7451 80.8638 44.1515 81.7652V81.7652Z" fill="#407BFF"/>
<path opacity="0.1" d="M44.1515 81.7652L62.2404 121.272C62.655 122.17 63.4081 122.867 64.3351 123.212C65.2622 123.556 66.2879 123.52 67.1883 123.111L70.06 121.799L136.557 91.354C137.455 90.9407 138.153 90.1885 138.499 89.262C138.844 88.3355 138.808 87.3099 138.399 86.4096L122.415 51.5159L120.321 46.9064C119.905 46.0098 119.152 45.3137 118.225 44.9694C117.299 44.625 116.274 44.6603 115.373 45.0675L46.0008 76.8208C45.1026 77.2343 44.4042 77.986 44.0578 78.9121C43.7114 79.8383 43.7451 80.8638 44.1515 81.7652V81.7652Z" fill="white"/>
<path d="M127.649 62.9297L51.4922 97.7969L60.4051 117.264L136.562 82.3971L127.649 62.9297Z" fill="#407BFF"/>
<path opacity="0.3" d="M127.649 62.9297L51.4922 97.7969L60.4051 117.264L136.562 82.3971L127.649 62.9297Z" fill="white"/>
<path d="M124.501 71.9349L76.375 93.9688L79.5648 100.936L127.691 78.9021L124.501 71.9349Z" fill="#407BFF"/>
<path opacity="0.8" d="M124.501 71.9349L76.375 93.9688L79.5648 100.936L127.691 78.9021L124.501 71.9349Z" fill="white"/>
<path d="M125.046 55.8304L48.8281 91.0156L53.6266 101.41L129.844 66.2248L125.046 55.8304Z" fill="#407BFF"/>
<path opacity="0.3" d="M125.046 55.8304L48.8281 91.0156L53.6266 101.41L129.844 66.2248L125.046 55.8304Z" fill="black"/>
<path d="M54.4968 82.2588L70.0628 121.783L136.56 91.3381C137.458 90.9248 138.156 90.1727 138.501 89.2461C138.847 88.3196 138.811 87.294 138.402 86.3937L122.417 51.5L56.6043 77.419C55.6856 77.7846 54.9486 78.4984 54.5538 79.4049C54.1591 80.3114 54.1386 81.3372 54.4968 82.2588Z" fill="#407BFF"/>
<path d="M142.509 69.7671L142.18 69.8828L142.725 71.4334L143.054 71.3177L142.509 69.7671Z" fill="#407BFF"/>
<path opacity="0.1" d="M142.509 69.7671L142.18 69.8828L142.725 71.4334L143.054 71.3177L142.509 69.7671Z" fill="white"/>
<path d="M139.759 61.9703L139.43 62.0859L141.576 68.1964L141.905 68.0808L139.759 61.9703Z" fill="#407BFF"/>
<path opacity="0.1" d="M139.759 61.9703L139.43 62.0859L141.576 68.1964L141.905 68.0808L139.759 61.9703Z" fill="white"/>
<path d="M59.1263 77.5508L131.112 52.2703C132.046 51.9453 133.07 52.0033 133.962 52.4316C134.853 52.8599 135.538 53.6236 135.868 54.5559L150.265 95.5525C150.59 96.4864 150.533 97.511 150.106 98.4028C149.678 99.2945 148.915 99.9808 147.983 100.312L75.9974 125.592C75.063 125.916 74.0388 125.857 73.1475 125.429C72.2562 125.001 71.5699 124.238 71.2379 123.307L56.8408 82.3103C56.5157 81.376 56.5735 80.3509 57.0018 79.4591C57.43 78.5673 58.1938 77.8813 59.1263 77.5508V77.5508Z" fill="#407BFF"/>
<path opacity="0.1" d="M59.1263 77.5508L131.112 52.2703C132.046 51.9453 133.07 52.0033 133.962 52.4316C134.853 52.8599 135.538 53.6236 135.868 54.5559L150.265 95.5525C150.59 96.4864 150.533 97.511 150.106 98.4028C149.678 99.2945 148.915 99.9808 147.983 100.312L75.9974 125.592C75.063 125.916 74.0388 125.857 73.1475 125.429C72.2562 125.001 71.5699 124.238 71.2379 123.307L56.8408 82.3103C56.5157 81.376 56.5735 80.3509 57.0018 79.4591C57.43 78.5673 58.1938 77.8813 59.1263 77.5508V77.5508Z" fill="white"/>
<path d="M141.379 70.2475L62.3516 98L68.6145 115.834L147.642 88.0817L141.379 70.2475Z" fill="#407BFF"/>
<path opacity="0.3" d="M141.379 70.2475L62.3516 98L68.6145 115.834L147.642 88.0817L141.379 70.2475Z" fill="white"/>
<path d="M131.922 61.5678L115.586 67.3047L116.48 69.8496L132.816 64.1127L131.922 61.5678Z" fill="#407BFF"/>
<path opacity="0.8" d="M131.922 61.5678L115.586 67.3047L116.48 69.8496L132.816 64.1127L131.922 61.5678Z" fill="white"/>
<path d="M142.864 92.7333L129.758 97.3359L130.225 98.666L143.331 94.0633L142.864 92.7333Z" fill="#407BFF"/>
<path opacity="0.8" d="M142.864 92.7333L129.758 97.3359L130.225 98.666L143.331 94.0633L142.864 92.7333Z" fill="white"/>
<path d="M143.757 95.2798L126.867 101.211L127.334 102.541L144.224 96.6099L143.757 95.2798Z" fill="#407BFF"/>
<path opacity="0.8" d="M143.757 95.2798L126.867 101.211L127.334 102.541L144.224 96.6099L143.757 95.2798Z" fill="white"/>
<path d="M83.5306 114.706L75.0859 117.672L76.0906 120.533L84.5353 117.567L83.5306 114.706Z" fill="#407BFF"/>
<path opacity="0.8" d="M83.5306 114.706L75.0859 117.672L76.0906 120.533L84.5353 117.567L83.5306 114.706Z" fill="white"/>
<path d="M128.687 90.2038L138.548 86.7424C139.068 86.5574 139.494 86.1746 139.733 85.6774C139.972 85.1801 140.006 84.6085 139.826 84.087V84.087C139.641 83.5671 139.258 83.1413 138.761 82.9022C138.263 82.663 137.692 82.6298 137.17 82.8098L127.306 86.2748C126.786 86.4598 126.36 86.8425 126.121 87.3398C125.882 87.8371 125.849 88.4086 126.029 88.9302V88.9302C126.214 89.4502 126.598 89.8758 127.096 90.1144C127.594 90.3529 128.166 90.3851 128.687 90.2038Z" fill="#407BFF"/>
<path d="M111.793 96.1356L121.658 92.6706C122.174 92.4848 122.596 92.104 122.834 91.6101C123.073 91.1162 123.107 90.5485 122.931 90.0292C122.746 89.51 122.363 89.085 121.866 88.8465C121.368 88.6081 120.797 88.5754 120.276 88.7555L110.415 92.2205C109.895 92.4055 109.469 92.7882 109.23 93.2855C108.991 93.7827 108.958 94.3543 109.138 94.8759C109.326 95.3925 109.711 95.8143 110.207 96.05C110.704 96.2857 111.274 96.3164 111.793 96.1356V96.1356Z" fill="#407BFF"/>
<path d="M94.9093 102.065L104.774 98.6003C105.288 98.4131 105.709 98.0318 105.946 97.538C106.183 97.0442 106.217 96.4773 106.04 95.9588V95.9588C105.855 95.4397 105.472 95.0147 104.974 94.7762C104.477 94.5378 103.906 94.5051 103.385 94.6852L93.5135 98.1362C92.9943 98.3219 92.5694 98.705 92.3309 99.2021C92.0924 99.6993 92.0597 100.27 92.2399 100.792C92.4255 101.314 92.8108 101.742 93.3112 101.98C93.8117 102.219 94.3864 102.25 94.9093 102.065Z" fill="#407BFF"/>
<path d="M78.0121 107.995L87.8766 104.53C88.3931 104.345 88.8164 103.964 89.0552 103.47C89.2941 102.976 89.3294 102.408 89.1537 101.889V101.889C88.968 101.369 88.585 100.944 88.0878 100.706C87.5906 100.467 87.0194 100.435 86.4983 100.615L76.6338 104.08C76.114 104.265 75.6882 104.648 75.4491 105.145C75.2099 105.642 75.1767 106.214 75.3567 106.735V106.735C75.5452 107.252 75.9294 107.674 76.4262 107.909C76.9231 108.145 77.4928 108.176 78.0121 107.995V107.995Z" fill="#407BFF"/>
<g opacity="0.8">
<path d="M128.687 90.2038L138.548 86.7424C139.068 86.5574 139.494 86.1746 139.733 85.6774C139.972 85.1801 140.006 84.6085 139.826 84.087V84.087C139.641 83.5671 139.258 83.1413 138.761 82.9022C138.263 82.663 137.692 82.6298 137.17 82.8098L127.306 86.2748C126.786 86.4598 126.36 86.8425 126.121 87.3398C125.882 87.8371 125.849 88.4086 126.029 88.9302V88.9302C126.214 89.4502 126.598 89.8758 127.096 90.1144C127.594 90.3529 128.166 90.3851 128.687 90.2038Z" fill="white"/>
<path d="M111.793 96.1356L121.658 92.6706C122.174 92.4848 122.596 92.104 122.834 91.6101C123.073 91.1162 123.107 90.5485 122.931 90.0292C122.746 89.51 122.363 89.085 121.866 88.8465C121.368 88.6081 120.797 88.5754 120.276 88.7555L110.415 92.2205C109.895 92.4055 109.469 92.7882 109.23 93.2855C108.991 93.7827 108.958 94.3543 109.138 94.8759C109.326 95.3925 109.711 95.8143 110.207 96.05C110.704 96.2857 111.274 96.3164 111.793 96.1356V96.1356Z" fill="white"/>
<path d="M94.9093 102.065L104.774 98.6003C105.288 98.4131 105.709 98.0318 105.946 97.538C106.183 97.0442 106.217 96.4773 106.04 95.9588V95.9588C105.855 95.4397 105.472 95.0147 104.974 94.7762C104.477 94.5378 103.906 94.5051 103.385 94.6852L93.5135 98.1362C92.9943 98.3219 92.5694 98.705 92.3309 99.2021C92.0924 99.6993 92.0597 100.27 92.2399 100.792C92.4255 101.314 92.8108 101.742 93.3112 101.98C93.8117 102.219 94.3864 102.25 94.9093 102.065Z" fill="white"/>
<path d="M78.0121 108.003L87.8766 104.538C88.3931 104.353 88.8164 103.972 89.0552 103.478C89.2941 102.984 89.3294 102.416 89.1537 101.896V101.896C88.968 101.377 88.585 100.952 88.0878 100.714C87.5906 100.475 87.0194 100.443 86.4983 100.623L76.6338 104.088C76.114 104.273 75.6882 104.655 75.4491 105.153C75.2099 105.65 75.1767 106.222 75.3567 106.743V106.743C75.5452 107.26 75.9294 107.681 76.4262 107.917C76.9231 108.153 77.4928 108.184 78.0121 108.003V108.003Z" fill="white"/>
</g>
<path d="M133.814 71.2796L125.037 74.3619C124.292 74.6237 123.9 75.4403 124.162 76.1858L125.991 81.3941C126.252 82.1396 127.069 82.5317 127.814 82.2699L136.592 79.1876C137.337 78.9258 137.729 78.1092 137.467 77.3638L135.638 72.1554C135.377 71.4099 134.56 71.0178 133.814 71.2796Z" fill="#407BFF"/>
<path opacity="0.3" d="M133.814 71.2796L125.037 74.3619C124.292 74.6237 123.9 75.4403 124.162 76.1858L125.991 81.3941C126.252 82.1396 127.069 82.5317 127.814 82.2699L136.592 79.1876C137.337 78.9258 137.729 78.1092 137.467 77.3638L135.638 72.1554C135.377 71.4099 134.56 71.0178 133.814 71.2796Z" fill="black"/>
<path d="M80.8408 80.9549C80.6219 80.3294 80.2818 79.7532 79.8401 79.2592C79.3983 78.7652 78.8635 78.3631 78.2662 78.076C77.6689 77.7888 77.0209 77.6223 76.3592 77.5858C75.6975 77.5493 75.0351 77.6436 74.4099 77.8633V77.8633L67.3195 80.5257L67.2287 80.5501L67.0194 80.6374L66.8903 80.6862C65.7454 81.2032 64.8437 82.1414 64.3724 83.3058C63.9012 84.4702 63.8966 85.7715 64.3596 86.9392C64.8227 88.1069 65.7178 89.0514 66.859 89.5764C68.0002 90.1015 69.2998 90.1667 70.4878 89.7586L77.2014 87.5254C77.3948 87.4821 77.5859 87.4285 77.7736 87.3649C77.9126 87.3163 78.0488 87.2604 78.1819 87.1974V87.1974C79.3229 86.6749 80.2278 85.7454 80.7196 84.5908C81.2113 83.4362 81.2546 82.1397 80.8408 80.9549V80.9549Z" fill="#407BFF"/>
<path opacity="0.8" d="M80.8408 80.9549C80.6219 80.3294 80.2818 79.7532 79.8401 79.2592C79.3983 78.7652 78.8635 78.3631 78.2662 78.076C77.6689 77.7888 77.0209 77.6223 76.3592 77.5858C75.6975 77.5493 75.0351 77.6436 74.4099 77.8633V77.8633L67.3195 80.5257L67.2287 80.5501L67.0194 80.6374L66.8903 80.6862C65.7454 81.2032 64.8437 82.1414 64.3724 83.3058C63.9012 84.4702 63.8966 85.7715 64.3596 86.9392C64.8227 88.1069 65.7178 89.0514 66.859 89.5764C68.0002 90.1015 69.2998 90.1667 70.4878 89.7586L77.2014 87.5254C77.3948 87.4821 77.5859 87.4285 77.7736 87.3649C77.9126 87.3163 78.0488 87.2604 78.1819 87.1974V87.1974C79.3229 86.6749 80.2278 85.7454 80.7196 84.5908C81.2113 83.4362 81.2546 82.1397 80.8408 80.9549V80.9549Z" fill="white"/>
</svg>
