<svg width="30" height="31" viewBox="0 0 30 31" fill="none" xmlns="http://www.w3.org/2000/svg">
<path d="M18.498 25.7305H16.998L16.248 23.2305H11.748L10.998 25.7305H9.49805C8.94605 25.7305 8.49805 26.1785 8.49805 26.7305C8.49805 27.2825 8.94605 27.7305 9.49805 27.7305H18.498C19.05 27.7305 19.498 27.2825 19.498 26.7305C19.498 26.1785 19.05 25.7305 18.498 25.7305Z" fill="#0A77DB"/>
<path opacity="0.6" d="M19.748 8.23047C16.8485 8.23047 14.498 10.581 14.498 13.4805C14.498 16.38 16.8485 18.7305 19.748 18.7305C22.6475 18.7305 24.998 16.38 24.998 13.4805C24.998 10.581 22.6475 8.23047 19.748 8.23047ZM19.5095 16.1565L16.7905 13.4375L18.2045 12.0235L19.498 13.3165L21.791 11.0235L23.205 12.4375L19.5095 16.1565Z" fill="#0A77DB"/>
<path opacity="0.6" d="M27.9849 19.2436L25.6039 16.8496C25.0104 17.8766 24.1559 18.7311 23.1289 19.3241L25.5104 21.7181C25.8269 22.0351 26.2644 22.2311 26.7474 22.2311C27.7139 22.2311 28.4974 21.4476 28.4974 20.4811C28.4974 19.9976 28.3014 19.5606 27.9849 19.2436V19.2436Z" fill="#0A77DB"/>
<path d="M19.748 20.2305C18.142 20.2305 16.6685 19.6675 15.5095 18.7305H3.99805V4.73047H23.998V8.23947C24.8735 8.95047 25.566 9.87597 25.998 10.9365V4.73047C25.998 3.62597 25.1025 2.73047 23.998 2.73047H3.99805C2.89355 2.73047 1.99805 3.62597 1.99805 4.73047V19.7305C1.99805 20.835 2.89355 21.7305 3.99805 21.7305H23.402L21.631 19.959C21.0325 20.1325 20.402 20.2305 19.748 20.2305Z" fill="#0A77DB"/>
</svg>
