<svg width="512" height="512" viewBox="0 0 512 512" fill="none" xmlns="http://www.w3.org/2000/svg">
<path d="M491.744 113.744H20.2402V507.984H491.744V113.744Z" fill="white"/>
<path d="M487.752 117.744V504H24.248V117.744H487.752ZM495.752 109.744H16.248V512H495.752V109.744Z" fill="#161719"/>
<path d="M456.943 164.504H55.0234V473.216H456.943V164.504Z" fill="white"/>
<path d="M426.975 172.78V465.22H81.0252V172.78H426.975ZM434 165H74V473H434V165Z" fill="#91919F"/>
<path d="M495.752 41.3203H16.248V133.744H495.752V41.3203Z" fill="#21B3D2"/>
<path d="M127.191 0H103.191V83.152H127.191V0Z" fill="#1A1718"/>
<path d="M408.799 0H384.799V83.152H408.799V0Z" fill="#1A1718"/>
<path d="M148.625 366.624C159.601 372.696 171.889 376.016 184.433 376.304C207.177 376.304 216.369 363.504 216.129 351.136C216.129 332.504 198.705 324.52 180.569 324.52H166.777V302.752H180.081C193.873 302.752 211.281 296.464 211.281 280.736C211.281 270.088 203.281 261.144 186.113 261.144C174.689 261.488 163.569 264.912 153.937 271.056L147.201 249.52C160.849 241.328 176.529 237.136 192.441 237.424C224.865 237.424 241.561 255.32 241.561 275.896C241.561 292.352 231.881 305.896 212.529 312.696V313.184C232.249 315.744 247.033 332.496 247.121 352.384C247.097 378.96 224.801 400 185.881 400C170.505 400.376 155.305 396.616 141.881 389.112L148.625 366.624Z" fill="#666666"/>
<path d="M318.936 266.944H318.448L289.648 281.456L284.568 258.96L322.792 240.088H347.712V397.352H318.912L318.936 266.944Z" fill="#666666"/>
</svg>
