<svg width="800" height="787" viewBox="0 0 800 787" fill="none" xmlns="http://www.w3.org/2000/svg">
<path d="M750.167 729.943H48.9433C21.3571 729.943 0 709.094 0 684.075V129.487C0 103.634 22.2469 83.6191 48.9433 83.6191H751.057C778.643 83.6191 800 104.468 800 129.487V684.075C800 709.094 777.753 729.943 750.167 729.943Z" fill="#FFF8E9"/>
<path d="M750.167 278.767H48.9433C21.3571 278.767 0 257.918 0 232.899V129.487C0 103.634 22.2469 83.6191 48.9433 83.6191H751.057C778.643 83.6191 800 104.468 800 129.487V232.899C800 257.918 777.753 278.767 750.167 278.767Z" fill="#21B3D2"/>
<path d="M169.968 350.484H81.8702C75.641 350.484 70.3018 355.488 70.3018 361.326V413.032C70.3018 418.87 75.641 423.873 81.8702 423.873H169.968C176.197 423.873 181.536 418.87 181.536 413.032V361.326C180.647 355.488 176.197 350.484 169.968 350.484Z" fill="#B5F3FF"/>
<path d="M352.394 350.484H264.296C258.067 350.484 252.728 355.488 252.728 361.326V413.032C252.728 418.87 258.067 423.873 264.296 423.873H352.394C358.623 423.873 363.962 418.87 363.962 413.032V361.326C363.962 355.488 358.623 350.484 352.394 350.484Z" fill="#B5F3FF"/>
<path d="M534.817 350.484H446.719C440.49 350.484 435.15 355.488 435.15 361.326V413.032C435.15 418.87 440.49 423.873 446.719 423.873H534.817C541.046 423.873 546.385 418.87 546.385 413.032V361.326C546.385 355.488 541.046 350.484 534.817 350.484Z" fill="#B5F3FF"/>
<path d="M169.968 467.24H81.8702C75.641 467.24 70.3018 472.244 70.3018 478.082V529.788C70.3018 535.625 75.641 540.629 81.8702 540.629H169.968C176.197 540.629 181.536 535.625 181.536 529.788V478.082C180.647 472.244 176.197 467.24 169.968 467.24Z" fill="#B5F3FF"/>
<path d="M352.394 467.24H264.296C258.067 467.24 252.728 472.244 252.728 478.082V529.788C252.728 535.625 258.067 540.629 264.296 540.629H352.394C358.623 540.629 363.962 535.625 363.962 529.788V478.082C363.962 472.244 358.623 467.24 352.394 467.24Z" fill="#B5F3FF"/>
<path d="M534.817 467.24H446.719C440.49 467.24 435.15 472.244 435.15 478.082V529.788C435.15 535.625 440.49 540.629 446.719 540.629H534.817C541.046 540.629 546.385 535.625 546.385 529.788V478.082C546.385 472.244 541.046 467.24 534.817 467.24Z" fill="#B5F3FF"/>
<path d="M169.968 584.83H81.8702C75.641 584.83 70.3018 589.834 70.3018 595.672V647.378C70.3018 653.215 75.641 658.219 81.8702 658.219H169.968C176.197 658.219 181.536 653.215 181.536 647.378V595.672C180.647 589.834 176.197 584.83 169.968 584.83Z" fill="#B5F3FF"/>
<path d="M352.394 584.83H264.296C258.067 584.83 252.728 589.834 252.728 595.672V647.378C252.728 653.215 258.067 658.219 264.296 658.219H352.394C358.623 658.219 363.962 653.215 363.962 647.378V595.672C363.962 589.834 358.623 584.83 352.394 584.83Z" fill="#B5F3FF"/>
<path d="M534.817 584.83H446.719C440.49 584.83 435.15 589.834 435.15 595.672V647.378C435.15 653.215 440.49 658.219 446.719 658.219H534.817C541.046 658.219 546.385 653.215 546.385 647.378V595.672C546.385 589.834 541.046 584.83 534.817 584.83Z" fill="#B5F3FF"/>
<path d="M717.241 350.484H629.144C622.914 350.484 617.575 355.488 617.575 361.326V413.032C617.575 418.87 622.914 423.873 629.144 423.873H717.241C723.471 423.873 728.81 418.87 728.81 413.032V361.326C728.81 355.488 723.471 350.484 717.241 350.484Z" fill="#FC889C"/>
<path d="M717.241 467.24H629.144C622.914 467.24 617.575 472.244 617.575 478.082V529.788C617.575 535.625 622.914 540.629 629.144 540.629H717.241C723.471 540.629 728.81 535.625 728.81 529.788V478.082C728.81 472.244 723.471 467.24 717.241 467.24Z" fill="#FC889C"/>
<path d="M717.241 584.83H629.144C622.914 584.83 617.575 589.834 617.575 595.672V647.378C617.575 653.215 622.914 658.219 629.144 658.219H717.241C723.471 658.219 728.81 653.215 728.81 647.378V595.672C728.81 589.834 723.471 584.83 717.241 584.83Z" fill="#FC889C"/>
<path d="M113.904 405.53C118.354 405.53 121.023 404.696 124.583 402.194L186.874 344.65C192.213 339.647 193.103 331.307 187.764 325.469C182.425 320.465 173.526 319.631 167.297 324.635L113.904 373.005L83.6483 341.315C79.1989 335.477 69.4103 335.477 63.1811 340.481C56.952 344.65 56.952 353.824 62.2912 359.662L102.336 402.194C105.895 403.862 108.565 405.53 113.904 405.53Z" fill="#6DE8B1"/>
<path d="M380.867 438.055C375.528 433.051 366.629 432.217 360.4 437.221L307.897 484.757L277.641 453.067C273.192 447.229 263.403 447.229 257.174 452.233C250.945 457.236 250.945 465.576 256.284 471.414L296.329 513.946C298.999 516.448 302.558 518.116 307.007 518.116C311.457 518.116 314.126 517.282 317.686 514.78L379.977 457.236C385.317 451.399 386.207 443.059 380.867 438.055Z" fill="#6DE8B1"/>
<path d="M185.095 562.316L132.593 609.852L102.337 578.161C97.8874 572.323 88.0987 572.324 81.8696 577.327C75.6404 582.331 75.6405 590.671 80.9797 596.509L121.024 639.041C123.694 641.543 127.253 643.211 131.703 643.211C136.152 643.211 138.822 642.377 142.381 639.875L204.673 582.331C210.012 577.327 210.902 568.988 205.563 563.15C200.223 558.146 190.435 557.312 185.095 562.316Z" fill="#6DE8B1"/>
</svg>
