<svg width="60" height="60" viewBox="0 0 60 60" fill="none" xmlns="http://www.w3.org/2000/svg">
<path d="M56.701 25.99C56.635 25.992 56.568 26 56.5 26C52.91 26 50 23.09 50 19.5C50 17.562 50.854 15.827 52.198 14.637C50.619 12.358 48.697 10.337 46.509 8.643C45.316 10.082 43.516 11 41.5 11C37.91 11 35 8.09 35 4.5C35 4.154 35.035 3.816 35.087 3.485C33.439 3.171 31.74 3 30 3C28.26 3 26.561 3.171 24.913 3.485C24.965 3.816 25 4.154 25 4.5C25 8.09 22.09 11 18.5 11C16.484 11 14.684 10.082 13.491 8.643C11.303 10.337 9.381 12.358 7.802 14.637C9.147 15.827 10 17.563 10 19.5C10 23.09 7.09 26 3.5 26C3.432 26 3.365 25.992 3.299 25.99C3.104 27.299 3 28.637 3 30C3 31.71 3.166 33.38 3.47 35.002C3.48 35.002 3.49 35 3.5 35C7.09 35 10 37.91 10 41.5C10 43.227 9.322 44.793 8.223 45.957C9.719 47.994 11.494 49.811 13.492 51.357C14.684 49.918 16.484 49 18.5 49C22.09 49 25 51.91 25 55.5C25 55.846 24.965 56.184 24.913 56.515C26.561 56.829 28.26 57 30 57C31.74 57 33.439 56.829 35.087 56.515C35.035 56.184 35 55.846 35 55.5C35 51.91 37.91 49 41.5 49C43.516 49 45.316 49.918 46.509 51.357C48.506 49.811 50.281 47.994 51.778 45.957C50.678 44.793 50 43.227 50 41.5C50 37.91 52.91 35 56.5 35C56.51 35 56.52 35.002 56.53 35.002C56.834 33.38 57 31.71 57 30C57 28.637 56.896 27.299 56.701 25.99V25.99ZM41.953 33.58C40.398 39.02 35.391 43 29.452 43C26.256 43 23.337 41.84 21.073 39.927L18.414 42.586C18.148 42.852 17.789 43 17.414 43C16.633 43 16 42.367 16 41.586V33C16 32.447 16.447 32 17 32H25.586C26.367 32 27 32.633 27 33.414C27 33.789 26.852 34.148 26.586 34.414L24.693 36.307C26.135 36.748 27.746 37 29.452 37C34.115 37 38.101 35.153 39.702 32.546C39.918 32.193 40.322 32 40.736 32C41.434 32 42 32.559 42 33.218C42 33.336 41.988 33.459 41.953 33.58V33.58ZM43 27C43 27.553 42.553 28 42 28H33.414C32.633 28 32 27.367 32 26.586C32 26.211 32.148 25.852 32.414 25.586L34.307 23.693C32.865 23.252 31.254 23 29.548 23C24.885 23 20.899 24.847 19.298 27.454C19.082 27.807 18.678 28 18.264 28C17.553 28 17 27.412 17 26.741C17 26.635 17.016 26.527 17.047 26.42C18.602 20.981 23.609 17 29.548 17C32.744 17 35.663 18.16 37.927 20.073L40.586 17.414C40.852 17.148 41.211 17 41.586 17C42.367 17 43 17.633 43 18.414V27Z" fill="#005DC7"/>
</svg>
