<svg width="33" height="33" viewBox="0 0 33 33" fill="none" xmlns="http://www.w3.org/2000/svg">
<path opacity="0.6" d="M11.7135 1H20.4635C20.8085 1 21.0885 1.298 21.0885 1.66667V4.33333C21.0885 4.702 20.8085 5 20.4635 5H11.7135C11.3685 5 11.0885 4.702 11.0885 4.33333V1.66667C11.0885 1.298 11.3685 1 11.7135 1Z" fill="#1E7BD2"/>
<path d="M27.8504 4H22.279C22.279 5.02916 21.4457 5.86667 20.4218 5.86667H11.7552C10.7313 5.86667 9.89803 5.02916 9.89803 4H4.3266C3.64317 4 3.0885 4.55751 3.0885 5.24444V30.7556C3.0885 31.4425 3.64317 32 4.3266 32H27.8504C28.5338 32 29.0885 31.4425 29.0885 30.7556V5.24444C29.0885 4.55751 28.5338 4 27.8504 4ZM25.9933 28.8889H6.18374V7.73333H25.9933V28.8889Z" fill="#1E7BD2"/>
<path d="M9.5885 14C10.9692 14 12.0885 12.8807 12.0885 11.5C12.0885 10.1193 10.9692 9 9.5885 9C8.20779 9 7.0885 10.1193 7.0885 11.5C7.0885 12.8807 8.20779 14 9.5885 14Z" fill="#1E7BD2"/>
<path d="M9.5885 27C10.9692 27 12.0885 25.8807 12.0885 24.5C12.0885 23.1193 10.9692 22 9.5885 22C8.20779 22 7.0885 23.1193 7.0885 24.5C7.0885 25.8807 8.20779 27 9.5885 27Z" fill="#1E7BD2"/>
<path d="M9.5885 20C10.9692 20 12.0885 19.1046 12.0885 18C12.0885 16.8954 10.9692 16 9.5885 16C8.20779 16 7.0885 16.8954 7.0885 18C7.0885 19.1046 8.20779 20 9.5885 20Z" fill="#1E7BD2"/>
<path opacity="0.6" d="M23.05 10C23.6233 10 24.0885 10.672 24.0885 11.5C24.0885 12.328 23.6233 13 23.05 13H16.127C15.553 13 15.0885 12.328 15.0885 11.5C15.0885 10.672 15.553 10 16.127 10H23.05Z" fill="#1E7BD2"/>
<path opacity="0.6" d="M23.05 17C23.6233 17 24.0885 17.448 24.0885 18C24.0885 18.552 23.6233 19 23.05 19H16.127C15.553 19 15.0885 18.552 15.0885 18C15.0885 17.448 15.553 17 16.127 17H23.05Z" fill="#1E7BD2"/>
<path opacity="0.6" d="M23.05 23C23.6233 23 24.0885 23.672 24.0885 24.5C24.0885 25.328 23.6233 26 23.05 26H16.127C15.553 26 15.0885 25.328 15.0885 24.5C15.0885 23.672 15.553 23 16.127 23H23.05Z" fill="#1E7BD2"/>
</svg>
