<svg width="33" height="33" viewBox="0 0 33 33" fill="none" xmlns="http://www.w3.org/2000/svg">
<path d="M29.7309 19.9847L27.2188 18.5464C27.4723 17.1899 27.4723 15.7984 27.2188 14.4419L29.7309 13.0036C30.0198 12.8399 30.1495 12.5008 30.0552 12.1851C29.4006 10.1037 28.2861 8.221 26.8296 6.65407C26.6055 6.41435 26.2399 6.35589 25.9568 6.51959L23.4447 7.9579C22.3891 7.0575 21.1744 6.36173 19.8594 5.90569V3.03493C19.8594 2.70751 19.6294 2.42102 19.305 2.35086C17.1409 1.87143 14.9236 1.89481 12.8656 2.35086C12.5412 2.42102 12.3112 2.70751 12.3112 3.03493V5.91153C11.0021 6.37343 9.78734 7.06919 8.72589 7.96374L6.21968 6.52544C5.93073 6.36173 5.57102 6.41435 5.34693 6.65992C3.89038 8.221 2.77586 10.1037 2.1213 12.1909C2.02105 12.5067 2.15668 12.8458 2.44563 13.0095L4.95773 14.4478C4.70416 15.8042 4.70416 17.1958 4.95773 18.5522L2.44563 19.9905C2.15668 20.1542 2.02694 20.4933 2.1213 20.8091C2.77586 22.8905 3.89038 24.7732 5.34693 26.3401C5.57102 26.5798 5.93663 26.6383 6.21968 26.4746L8.73179 25.0363C9.78734 25.9367 11.0021 26.6324 12.3171 27.0885V29.9651C12.3171 30.2925 12.5471 30.579 12.8715 30.6491C15.0356 31.1286 17.2529 31.1052 19.3109 30.6491C19.6353 30.579 19.8652 30.2925 19.8652 29.9651V27.0885C21.1744 26.6266 22.3891 25.9308 23.4506 25.0363L25.9627 26.4746C26.2517 26.6383 26.6114 26.5856 26.8355 26.3401C28.292 24.779 29.4065 22.8963 30.0611 20.8091C30.1495 20.4875 30.0198 20.1484 29.7309 19.9847ZM16.0853 21.1716C13.4847 21.1716 11.3677 19.0726 11.3677 16.4942C11.3677 13.9157 13.4847 11.8168 16.0853 11.8168C18.6859 11.8168 20.8029 13.9157 20.8029 16.4942C20.8029 19.0726 18.6859 21.1716 16.0853 21.1716Z" fill="#1E7BD2"/>
</svg>
