<svg width="33" height="33" viewBox="0 0 33 33" fill="none" xmlns="http://www.w3.org/2000/svg">
<g clip-path="url(#clip0_12474_27378)">
<path d="M11.2885 15.9623C14.8238 15.9623 17.6889 13.0971 17.6889 9.56188C17.6889 6.03167 14.8238 3.1665 11.2885 3.1665C7.75334 3.1665 4.88817 6.03167 4.88817 9.56688C4.88817 13.0971 7.75334 15.9623 11.2885 15.9623ZM17.6789 21.5226V17.8674C17.0689 17.6874 16.4338 17.5573 15.7688 17.5573H14.9338C13.8237 18.0674 12.5886 18.3574 11.2885 18.3574C9.98847 18.3574 8.7584 18.0674 7.64333 17.5573H6.80828C3.09807 17.5623 0.0878906 20.5725 0.0878906 24.2827V26.3629C0.0878906 27.6879 1.16295 28.763 2.48803 28.763H20.0891C20.8641 28.763 21.5441 28.388 21.9842 27.8179L19.084 24.9178C18.179 24.0127 17.6789 22.8077 17.6789 21.5226Z" fill="#1E7BD2"/>
<path opacity="0.6" d="M31.4336 21.9453L26.9183 17.4351C26.3183 16.835 25.5033 16.5 24.6532 16.5H20.688C19.8029 16.5 19.0879 17.215 19.0879 18.1001V22.0603C19.0879 22.9104 19.4229 23.7204 20.0229 24.3205L24.5382 28.8307C25.1632 29.4558 26.1783 29.4558 26.8033 28.8307L31.4286 24.2055C32.0586 23.5804 32.0586 22.5704 31.4336 21.9453ZM22.2931 20.8953C21.628 20.8953 21.093 20.3602 21.093 19.6952C21.093 19.0301 21.628 18.4951 22.2931 18.4951C22.9581 18.4951 23.4931 19.0301 23.4931 19.6952C23.4931 20.3552 22.9581 20.8953 22.2931 20.8953Z" fill="#1E7BD2"/>
</g>
<defs>
<clipPath id="clip0_12474_27378">
<rect width="32" height="32" fill="white" transform="translate(0.0878906 0.5)"/>
</clipPath>
</defs>
</svg>
