<svg width="33" height="33" viewBox="0 0 33 33" fill="none" xmlns="http://www.w3.org/2000/svg">
<path opacity="0.6" d="M27.8212 13.8331C28.9993 13.8331 29.9545 12.8779 29.9545 11.6998C29.9545 10.6363 29.1743 9.76167 28.1561 9.60007C28.282 9.2566 28.3545 8.887 28.3545 8.4998C28.3545 6.73287 26.9215 5.2998 25.1545 5.2998C23.7327 5.2998 22.5295 6.22727 22.1124 7.50994C21.8895 7.46087 21.6585 7.43314 21.4212 7.43314C19.6543 7.43314 18.2212 8.8662 18.2212 10.6331C18.2212 12.4001 19.6543 13.8331 21.4212 13.8331H27.8212Z" fill="#1E7BD2"/>
<path d="M28.3546 15.9668H16.0879C15.2047 15.9668 14.4879 16.6831 14.4879 17.5668V28.2335C14.4879 29.1172 15.2047 29.8335 16.0879 29.8335H28.3546C29.2378 29.8335 29.9546 29.1172 29.9546 28.2335V17.5668C29.9546 16.6831 29.2378 15.9668 28.3546 15.9668ZM27.8212 27.7001H16.6212V23.9668H27.8212V27.7001ZM27.8212 21.8335H16.6212V18.1001H27.8212V21.8335Z" fill="#1E7BD2"/>
<path d="M15.5545 3.1665C15.4431 3.1665 15.3295 3.1841 15.2164 3.22197L2.95079 6.24437C2.51506 6.3889 2.22119 6.7969 2.22119 7.2561V27.1665C2.22119 27.7553 2.69906 28.2332 3.28786 28.2332H12.8879V17.5665C12.8879 15.7996 14.3204 14.3665 16.0879 14.3665H16.6212V4.23317C16.6212 3.6241 16.122 3.16597 15.5545 3.1665ZM8.62119 24.4998H5.42119C4.83239 24.4998 4.35452 24.022 4.35452 23.4332C4.35452 22.8444 4.83239 22.3665 5.42119 22.3665H8.62119C9.20999 22.3665 9.68786 22.8444 9.68786 23.4332C9.68786 24.022 9.20999 24.4998 8.62119 24.4998ZM8.62119 20.2332H5.42119C4.83239 20.2332 4.35452 19.7553 4.35452 19.1665C4.35452 18.5777 4.83239 18.0998 5.42119 18.0998H8.62119C9.20999 18.0998 9.68786 18.5777 9.68786 19.1665C9.68786 19.7553 9.20999 20.2332 8.62119 20.2332ZM8.62119 15.9665H5.42119C4.83239 15.9665 4.35452 15.4886 4.35452 14.8998C4.35452 14.311 4.83239 13.8332 5.42119 13.8332H8.62119C9.20999 13.8332 9.68786 14.311 9.68786 14.8998C9.68786 15.4886 9.20999 15.9665 8.62119 15.9665ZM8.62119 11.6998H5.42119C4.83239 11.6998 4.35452 11.222 4.35452 10.6332C4.35452 10.0444 4.83239 9.5665 5.42119 9.5665H8.62119C9.20999 9.5665 9.68786 10.0444 9.68786 10.6332C9.68786 11.222 9.20999 11.6998 8.62119 11.6998ZM13.4212 11.6998H12.3545C11.7657 11.6998 11.2879 11.222 11.2879 10.6332C11.2879 10.0444 11.7657 9.5665 12.3545 9.5665H13.4212C14.01 9.5665 14.4879 10.0444 14.4879 10.6332C14.4879 11.222 14.01 11.6998 13.4212 11.6998Z" fill="#1E7BD2"/>
</svg>
