<svg width="33" height="33" viewBox="0 0 33 33" fill="none" xmlns="http://www.w3.org/2000/svg">
<path fill-rule="evenodd" clip-rule="evenodd" d="M6.08789 28.5C6.08789 28.5 4.08789 28.5 4.08789 26.5C4.08789 24.5 6.08789 18.5 16.0879 18.5C26.0879 18.5 28.0879 24.5 28.0879 26.5C28.0879 28.5 26.0879 28.5 26.0879 28.5H6.08789ZM16.0879 16.5C17.6792 16.5 19.2053 15.8679 20.3305 14.7426C21.4558 13.6174 22.0879 12.0913 22.0879 10.5C22.0879 8.9087 21.4558 7.38258 20.3305 6.25736C19.2053 5.13214 17.6792 4.5 16.0879 4.5C14.4966 4.5 12.9705 5.13214 11.8453 6.25736C10.72 7.38258 10.0879 8.9087 10.0879 10.5C10.0879 12.0913 10.72 13.6174 11.8453 14.7426C12.9705 15.8679 14.4966 16.5 16.0879 16.5V16.5Z" fill="#1E7BD2"/>
</svg>
