<svg width="30" height="31" viewBox="0 0 30 31" fill="none" xmlns="http://www.w3.org/2000/svg">
<g clip-path="url(#clip0_12474_27381)">
<path d="M26.9711 30.149C27.7843 30.149 28.4436 29.4898 28.4436 28.6766C28.4436 27.8633 27.7843 27.2041 26.9711 27.2041C26.1579 27.2041 25.4987 27.8633 25.4987 28.6766C25.4987 29.4898 26.1579 30.149 26.9711 30.149Z" fill="#0A77DB"/>
<path d="M3.41202 30.149C4.22524 30.149 4.88447 29.4898 4.88447 28.6766C4.88447 27.8633 4.22524 27.2041 3.41202 27.2041C2.59881 27.2041 1.93958 27.8633 1.93958 28.6766C1.93958 29.4898 2.59881 30.149 3.41202 30.149Z" fill="#0A77DB"/>
<path d="M0.467041 12.479V18.3688C0.467041 19.9929 1.78783 21.3137 3.41194 21.3137H13.7191V27.2035H6.35684V30.1484H24.0262V27.2035H16.664V21.3137H26.9711C28.5953 21.3137 29.916 19.9929 29.916 18.3688V12.479H0.467041ZM12.2466 18.3688H4.88439V15.4239H12.2466V18.3688ZM19.6089 18.3688C18.7961 18.3688 18.1364 17.7106 18.1364 16.8964C18.1364 16.0836 18.7961 15.4239 19.6089 15.4239C20.4217 15.4239 21.0813 16.0836 21.0813 16.8964C21.0813 17.7106 20.4217 18.3688 19.6089 18.3688ZM24.0262 18.3688C23.2135 18.3688 22.5538 17.7106 22.5538 16.8964C22.5538 16.0836 23.2135 15.4239 24.0262 15.4239C24.839 15.4239 25.4987 16.0836 25.4987 16.8964C25.4987 17.7106 24.839 18.3688 24.0262 18.3688Z" fill="#0A77DB"/>
<path opacity="0.6" d="M29.9164 9.53441V3.64461C29.9164 2.0205 28.5956 0.699707 26.9715 0.699707H3.41231C1.7882 0.699707 0.467407 2.0205 0.467407 3.64461V9.53441H29.9164ZM24.0266 3.64461C24.8394 3.64461 25.4991 4.30427 25.4991 5.11706C25.4991 5.93132 24.8394 6.58951 24.0266 6.58951C23.2138 6.58951 22.5542 5.93132 22.5542 5.11706C22.5542 4.30427 23.2138 3.64461 24.0266 3.64461ZM19.6093 3.64461C20.4221 3.64461 21.0817 4.30427 21.0817 5.11706C21.0817 5.93132 20.4221 6.58951 19.6093 6.58951C18.7965 6.58951 18.1368 5.93132 18.1368 5.11706C18.1368 4.30427 18.7965 3.64461 19.6093 3.64461ZM4.88476 3.64461H12.247V6.58951H4.88476V3.64461Z" fill="#0A77DB"/>
</g>
<defs>
<clipPath id="clip0_12474_27381">
<rect width="30" height="30" fill="white" transform="translate(-0.0012207 0.230957)"/>
</clipPath>
</defs>
</svg>
