<svg width="33" height="33" viewBox="0 0 33 33" fill="none" xmlns="http://www.w3.org/2000/svg">
<path fill-rule="evenodd" clip-rule="evenodd" d="M10.8679 27.0002C10.5899 26.4278 10.4513 25.8003 10.4629 25.1668C10.4629 22.6827 11.7379 20.1252 14.0929 18.3468C12.9174 17.9927 11.6928 17.8195 10.4629 17.8335C2.96289 17.8335 1.08789 23.3335 1.08789 25.1668C1.08789 27.0002 2.96289 27.0002 2.96289 27.0002H10.8679ZM9.52539 16.0002C10.7686 16.0002 11.9609 15.5173 12.84 14.6577C13.719 13.7982 14.2129 12.6324 14.2129 11.4168C14.2129 10.2013 13.719 9.03547 12.84 8.17592C11.9609 7.31638 10.7686 6.8335 9.52539 6.8335C8.28219 6.8335 7.0899 7.31638 6.21083 8.17592C5.33175 9.03547 4.83789 10.2013 4.83789 11.4168C4.83789 12.6324 5.33175 13.7982 6.21083 14.6577C7.0899 15.5173 8.28219 16.0002 9.52539 16.0002Z" fill="#1472C9" fill-opacity="0.6"/>
<path d="M25.6904 14.3891C24.6355 15.4205 23.2047 16 21.7129 16C20.221 16 18.7903 15.4205 17.7354 14.3891C16.6805 13.3576 16.0879 11.9587 16.0879 10.5C16.0879 9.04131 16.6805 7.64236 17.7354 6.61091C18.7903 5.57946 20.221 5 21.7129 5C23.2047 5 24.6355 5.57946 25.6904 6.61091C26.7453 7.64236 27.3379 9.04131 27.3379 10.5C27.3379 11.9587 26.7453 13.3576 25.6904 14.3891Z" fill="#1E7BD2"/>
<path d="M12.3379 25.1668C12.3379 27.0002 14.2129 27.0002 14.2129 27.0002H29.2129C29.2129 27.0002 31.0879 27.0002 31.0879 25.1668C31.0879 23.3335 29.2129 17.8335 21.7129 17.8335C14.2129 17.8335 12.3379 23.3335 12.3379 25.1668Z" fill="#1E7BD2"/>
</svg>
