<svg width="33" height="33" viewBox="0 0 33 33" fill="none" xmlns="http://www.w3.org/2000/svg">
<path fill-rule="evenodd" clip-rule="evenodd" d="M3.83789 27C3.83789 27 2.08789 27 2.08789 25.25C2.08789 23.5 3.83789 18.25 12.5879 18.25C21.3379 18.25 23.0879 23.5 23.0879 25.25C23.0879 27 21.3379 27 21.3379 27H3.83789Z" fill="#1E7BD2"/>
<path d="M16.3002 14.9623C15.3156 15.9469 13.9803 16.5 12.5879 16.5C11.1955 16.5 9.86015 15.9469 8.87558 14.9623C7.89101 13.9777 7.33789 12.6424 7.33789 11.25C7.33789 9.85761 7.89101 8.52226 8.87558 7.53769C9.86015 6.55312 11.1955 6 12.5879 6C13.9803 6 15.3156 6.55312 16.3002 7.53769C17.2848 8.52226 17.8379 9.85761 17.8379 11.25C17.8379 12.6424 17.2848 13.9777 16.3002 14.9623Z" fill="#1E7BD2"/>
<path fill-rule="evenodd" clip-rule="evenodd" d="M25.0879 19.5C25.0879 19.2348 25.1932 18.9804 25.3808 18.7929C25.5683 18.6054 25.8227 18.5 26.0879 18.5H30.0879C30.3531 18.5 30.6075 18.6054 30.795 18.7929C30.9825 18.9804 31.0879 19.2348 31.0879 19.5C31.0879 19.7652 30.9825 20.0196 30.795 20.2071C30.6075 20.3946 30.3531 20.5 30.0879 20.5H26.0879C25.8227 20.5 25.5683 20.3946 25.3808 20.2071C25.1932 20.0196 25.0879 19.7652 25.0879 19.5ZM21.0879 13.5C21.0879 13.2348 21.1932 12.9804 21.3808 12.7929C21.5683 12.6054 21.8227 12.5 22.0879 12.5H30.0879C30.3531 12.5 30.6075 12.6054 30.795 12.7929C30.9825 12.9804 31.0879 13.2348 31.0879 13.5C31.0879 13.7652 30.9825 14.0196 30.795 14.2071C30.6075 14.3946 30.3531 14.5 30.0879 14.5H22.0879C21.8227 14.5 21.5683 14.3946 21.3808 14.2071C21.1932 14.0196 21.0879 13.7652 21.0879 13.5ZM21.0879 7.5C21.0879 7.23478 21.1932 6.98043 21.3808 6.79289C21.5683 6.60536 21.8227 6.5 22.0879 6.5H30.0879C30.3531 6.5 30.6075 6.60536 30.795 6.79289C30.9825 6.98043 31.0879 7.23478 31.0879 7.5C31.0879 7.76522 30.9825 8.01957 30.795 8.20711C30.6075 8.39464 30.3531 8.5 30.0879 8.5H22.0879C21.8227 8.5 21.5683 8.39464 21.3808 8.20711C21.1932 8.01957 21.0879 7.76522 21.0879 7.5ZM25.0879 25.5C25.0879 25.2348 25.1932 24.9804 25.3808 24.7929C25.5683 24.6054 25.8227 24.5 26.0879 24.5H30.0879C30.3531 24.5 30.6075 24.6054 30.795 24.7929C30.9825 24.9804 31.0879 25.2348 31.0879 25.5C31.0879 25.7652 30.9825 26.0196 30.795 26.2071C30.6075 26.3946 30.3531 26.5 30.0879 26.5H26.0879C25.8227 26.5 25.5683 26.3946 25.3808 26.2071C25.1932 26.0196 25.0879 25.7652 25.0879 25.5Z" fill="#1472C9" fill-opacity="0.6"/>
</svg>
