<svg width="31" height="31" viewBox="0 0 31 31" fill="none" xmlns="http://www.w3.org/2000/svg">
<g clip-path="url(#clip0_12474_27381)">
<path d="M27.0602 30.418C27.8734 30.418 28.5327 29.7588 28.5327 28.9456C28.5327 28.1324 27.8734 27.4731 27.0602 27.4731C26.247 27.4731 25.5878 28.1324 25.5878 28.9456C25.5878 29.7588 26.247 30.418 27.0602 30.418Z" fill="#1E7BD2"/>
<path d="M3.50114 30.418C4.31435 30.418 4.97359 29.7588 4.97359 28.9456C4.97359 28.1324 4.31435 27.4731 3.50114 27.4731C2.68792 27.4731 2.02869 28.1324 2.02869 28.9456C2.02869 29.7588 2.68792 30.418 3.50114 30.418Z" fill="#1E7BD2"/>
<path d="M0.556152 12.748V18.6378C0.556152 20.262 1.87694 21.5828 3.50105 21.5828H13.8082V27.4726H6.44595V30.4175H24.1154V27.4726H16.7531V21.5828H27.0603C28.6844 21.5828 30.0052 20.262 30.0052 18.6378V12.748H0.556152ZM12.3358 18.6378H4.9735V15.6929H12.3358V18.6378ZM19.698 18.6378C18.8852 18.6378 18.2256 17.9797 18.2256 17.1654C18.2256 16.3526 18.8852 15.6929 19.698 15.6929C20.5108 15.6929 21.1705 16.3526 21.1705 17.1654C21.1705 17.9797 20.5108 18.6378 19.698 18.6378ZM24.1154 18.6378C23.3026 18.6378 22.6429 17.9797 22.6429 17.1654C22.6429 16.3526 23.3026 15.6929 24.1154 15.6929C24.9282 15.6929 25.5878 16.3526 25.5878 17.1654C25.5878 17.9797 24.9282 18.6378 24.1154 18.6378Z" fill="#1E7BD2"/>
<path opacity="0.6" d="M30.0055 9.80345V3.91365C30.0055 2.28954 28.6847 0.96875 27.0606 0.96875H3.50142C1.87731 0.96875 0.556519 2.28954 0.556519 3.91365V9.80345H30.0055ZM24.1157 3.91365C24.9285 3.91365 25.5882 4.57331 25.5882 5.3861C25.5882 6.20037 24.9285 6.85855 24.1157 6.85855C23.3029 6.85855 22.6433 6.20037 22.6433 5.3861C22.6433 4.57331 23.3029 3.91365 24.1157 3.91365ZM19.6984 3.91365C20.5112 3.91365 21.1708 4.57331 21.1708 5.3861C21.1708 6.20037 20.5112 6.85855 19.6984 6.85855C18.8856 6.85855 18.2259 6.20037 18.2259 5.3861C18.2259 4.57331 18.8856 3.91365 19.6984 3.91365ZM4.97387 3.91365H12.3361V6.85855H4.97387V3.91365Z" fill="#1E7BD2"/>
</g>
<defs>
<clipPath id="clip0_12474_27381">
<rect width="30" height="30" fill="white" transform="translate(0.0878906 0.5)"/>
</clipPath>
</defs>
</svg>
