<svg width="30" height="31" viewBox="0 0 30 31" fill="none" xmlns="http://www.w3.org/2000/svg">
<path fill-rule="evenodd" clip-rule="evenodd" d="M3.5144 25.0747C3.5144 25.0747 1.87378 25.0747 1.87378 23.4341C1.87378 21.7935 3.5144 16.8716 11.7175 16.8716C19.9207 16.8716 21.5613 21.7935 21.5613 23.4341C21.5613 25.0747 19.9207 25.0747 19.9207 25.0747H3.5144Z" fill="#0A77DB"/>
<path d="M15.1978 13.7894C14.2748 14.7124 13.0229 15.231 11.7175 15.231C10.4122 15.231 9.16027 14.7124 8.23724 13.7894C7.31421 12.8663 6.79565 11.6144 6.79565 10.3091C6.79565 9.00372 7.31421 7.75182 8.23724 6.82879C9.16027 5.90576 10.4122 5.38721 11.7175 5.38721C13.0229 5.38721 14.2748 5.90576 15.1978 6.82879C16.1209 7.75182 16.6394 9.00372 16.6394 10.3091C16.6394 11.6144 16.1209 12.8663 15.1978 13.7894Z" fill="#0A77DB"/>
<path fill-rule="evenodd" clip-rule="evenodd" d="M23.4363 18.0435C23.4363 17.7948 23.5351 17.5564 23.7109 17.3805C23.8867 17.2047 24.1251 17.106 24.3738 17.106H28.1238C28.3724 17.106 28.6109 17.2047 28.7867 17.3805C28.9625 17.5564 29.0613 17.7948 29.0613 18.0435C29.0613 18.2921 28.9625 18.5306 28.7867 18.7064C28.6109 18.8822 28.3724 18.981 28.1238 18.981H24.3738C24.1251 18.981 23.8867 18.8822 23.7109 18.7064C23.5351 18.5306 23.4363 18.2921 23.4363 18.0435ZM19.6863 12.4185C19.6863 12.1698 19.7851 11.9314 19.9609 11.7555C20.1367 11.5797 20.3751 11.481 20.6238 11.481H28.1238C28.3724 11.481 28.6109 11.5797 28.7867 11.7555C28.9625 11.9314 29.0613 12.1698 29.0613 12.4185C29.0613 12.6671 28.9625 12.9056 28.7867 13.0814C28.6109 13.2572 28.3724 13.356 28.1238 13.356H20.6238C20.3751 13.356 20.1367 13.2572 19.9609 13.0814C19.7851 12.9056 19.6863 12.6671 19.6863 12.4185ZM19.6863 6.79346C19.6863 6.54482 19.7851 6.30636 19.9609 6.13054C20.1367 5.95473 20.3751 5.85596 20.6238 5.85596H28.1238C28.3724 5.85596 28.6109 5.95473 28.7867 6.13054C28.9625 6.30636 29.0613 6.54482 29.0613 6.79346C29.0613 7.0421 28.9625 7.28055 28.7867 7.45637C28.6109 7.63218 28.3724 7.73096 28.1238 7.73096H20.6238C20.3751 7.73096 20.1367 7.63218 19.9609 7.45637C19.7851 7.28055 19.6863 7.0421 19.6863 6.79346ZM23.4363 23.6685C23.4363 23.4198 23.5351 23.1814 23.7109 23.0055C23.8867 22.8297 24.1251 22.731 24.3738 22.731H28.1238C28.3724 22.731 28.6109 22.8297 28.7867 23.0055C28.9625 23.1814 29.0613 23.4198 29.0613 23.6685C29.0613 23.9171 28.9625 24.1556 28.7867 24.3314C28.6109 24.5072 28.3724 24.606 28.1238 24.606H24.3738C24.1251 24.606 23.8867 24.5072 23.7109 24.3314C23.5351 24.1556 23.4363 23.9171 23.4363 23.6685Z" fill="#0A77DB" fill-opacity="0.5"/>
</svg>
