<svg width="30" height="31" viewBox="0 0 30 31" fill="none" xmlns="http://www.w3.org/2000/svg">
<path d="M27.789 18.4978L25.4339 17.1494C25.6716 15.8778 25.6716 14.5732 25.4339 13.3015L27.789 11.9531C28.0599 11.7996 28.1815 11.4817 28.093 11.1857C27.4794 9.23438 26.4345 7.46939 25.069 6.0004C24.8589 5.77566 24.5162 5.72085 24.2508 5.87433L21.8957 7.22273C20.9061 6.37861 19.7673 5.72633 18.5344 5.29879V2.60745C18.5344 2.3005 18.3188 2.03191 18.0148 1.96614C15.9858 1.51667 13.9072 1.53859 11.9778 1.96614C11.6737 2.03191 11.4581 2.3005 11.4581 2.60745V5.30427C10.2308 5.73729 9.09193 6.38957 8.09682 7.22822L5.74725 5.87981C5.47636 5.72633 5.13913 5.77566 4.92905 6.00588C3.56353 7.46939 2.51866 9.23438 1.90501 11.1912C1.81103 11.4872 1.93818 11.8051 2.20907 11.9586L4.56417 13.307C4.32645 14.5787 4.32645 15.8832 4.56417 17.1549L2.20907 18.5033C1.93818 18.6568 1.81656 18.9747 1.90501 19.2707C2.51866 21.2221 3.56353 22.987 4.92905 24.456C5.13913 24.6808 5.48189 24.7356 5.74725 24.5821L8.10235 23.2337C9.09193 24.0778 10.2308 24.7301 11.4636 25.1576V27.8545C11.4636 28.1614 11.6792 28.43 11.9833 28.4958C14.0122 28.9452 16.0909 28.9233 18.0203 28.4958C18.3244 28.43 18.54 28.1614 18.54 27.8545V25.1576C19.7673 24.7246 20.9061 24.0723 21.9012 23.2337L24.2563 24.5821C24.5272 24.7356 24.8645 24.6863 25.0745 24.456C26.4401 22.9925 27.4849 21.2275 28.0986 19.2707C28.1815 18.9692 28.0599 18.6513 27.789 18.4978ZM14.9963 19.6105C12.5582 19.6105 10.5735 17.6427 10.5735 15.2255C10.5735 12.8082 12.5582 10.8404 14.9963 10.8404C17.4343 10.8404 19.419 12.8082 19.419 15.2255C19.419 17.6427 17.4343 19.6105 14.9963 19.6105Z" fill="#0A77DB"/>
</svg>
