<svg width="33" height="33" viewBox="0 0 33 33" fill="none" xmlns="http://www.w3.org/2000/svg">
<path d="M6.94539 21.0708H2.37405C1.11171 21.0708 0.0883789 22.0941 0.0883789 23.3565V30.2135C0.0883789 31.4758 1.11171 32.4992 2.37405 32.4992H6.94539C8.20774 32.4992 9.23107 31.4758 9.23107 30.2135V23.3565C9.23107 22.0941 8.20774 21.0708 6.94539 21.0708Z" fill="#1E7BD2"/>
<path d="M18.3739 11.9287H13.8025C12.5402 11.9287 11.5168 12.952 11.5168 14.2144V30.2141C11.5168 31.4764 12.5402 32.4998 13.8025 32.4998H18.3739C19.6362 32.4998 20.6595 31.4764 20.6595 30.2141V14.2144C20.6595 12.952 19.6362 11.9287 18.3739 11.9287Z" fill="#1472C9" fill-opacity="0.6"/>
<path d="M29.8021 0.5H25.2307C23.9684 0.5 22.9451 1.52333 22.9451 2.78567V30.2137C22.9451 31.4761 23.9684 32.4994 25.2307 32.4994H29.8021C31.0644 32.4994 32.0878 31.4761 32.0878 30.2137V2.78567C32.0878 1.52333 31.0644 0.5 29.8021 0.5Z" fill="#1E7BD2"/>
</svg>
