<svg width="30" height="31" viewBox="0 0 30 31" fill="none" xmlns="http://www.w3.org/2000/svg">
<g clip-path="url(#clip0_12473_26982)">
<path opacity="0.6" d="M10.8978 0.699707H19.1009C19.4243 0.699707 19.6868 0.979082 19.6868 1.32471V3.82471C19.6868 4.17033 19.4243 4.44971 19.1009 4.44971H10.8978C10.5743 4.44971 10.3118 4.17033 10.3118 3.82471V1.32471C10.3118 0.979082 10.5743 0.699707 10.8978 0.699707Z" fill="#0A77DB"/>
<path d="M26.0261 3.51221H20.8029C20.8029 4.47704 20.0217 5.26221 19.0618 5.26221H10.9368C9.97692 5.26221 9.19576 4.47704 9.19576 3.51221H3.97254C3.33183 3.51221 2.81183 4.03487 2.81183 4.67887V28.5955C2.81183 29.2395 3.33183 29.7622 3.97254 29.7622H26.0261C26.6668 29.7622 27.1868 29.2395 27.1868 28.5955V4.67887C27.1868 4.03487 26.6668 3.51221 26.0261 3.51221ZM24.285 26.8455H5.71361V7.01221H24.285V26.8455Z" fill="#0A77DB"/>
<path d="M8.90558 12.8872C10.2 12.8872 11.2493 11.8379 11.2493 10.5435C11.2493 9.24904 10.2 8.19971 8.90558 8.19971C7.61116 8.19971 6.56183 9.24904 6.56183 10.5435C6.56183 11.8379 7.61116 12.8872 8.90558 12.8872Z" fill="#0A77DB"/>
<path d="M8.90558 25.0747C10.2 25.0747 11.2493 24.0254 11.2493 22.731C11.2493 21.4365 10.2 20.3872 8.90558 20.3872C7.61116 20.3872 6.56183 21.4365 6.56183 22.731C6.56183 24.0254 7.61116 25.0747 8.90558 25.0747Z" fill="#0A77DB"/>
<path d="M8.90558 18.5122C10.2 18.5122 11.2493 17.6727 11.2493 16.6372C11.2493 15.6017 10.2 14.7622 8.90558 14.7622C7.61116 14.7622 6.56183 15.6017 6.56183 16.6372C6.56183 17.6727 7.61116 18.5122 8.90558 18.5122Z" fill="#0A77DB"/>
<path opacity="0.6" d="M21.5258 9.13721C22.0632 9.13721 22.4993 9.76721 22.4993 10.5435C22.4993 11.3197 22.0632 11.9497 21.5258 11.9497H15.0354C14.4973 11.9497 14.0618 11.3197 14.0618 10.5435C14.0618 9.76721 14.4973 9.13721 15.0354 9.13721H21.5258Z" fill="#0A77DB"/>
<path opacity="0.6" d="M21.5258 15.6997C22.0632 15.6997 22.4993 16.1197 22.4993 16.6372C22.4993 17.1547 22.0632 17.5747 21.5258 17.5747H15.0354C14.4973 17.5747 14.0618 17.1547 14.0618 16.6372C14.0618 16.1197 14.4973 15.6997 15.0354 15.6997H21.5258Z" fill="#0A77DB"/>
<path opacity="0.6" d="M21.5258 21.3247C22.0632 21.3247 22.4993 21.9547 22.4993 22.731C22.4993 23.5072 22.0632 24.1372 21.5258 24.1372H15.0354C14.4973 24.1372 14.0618 23.5072 14.0618 22.731C14.0618 21.9547 14.4973 21.3247 15.0354 21.3247H21.5258Z" fill="#0A77DB"/>
</g>
<defs>
<clipPath id="clip0_12473_26982">
<rect width="30" height="30" fill="white" transform="translate(-0.0012207 0.230957)"/>
</clipPath>
</defs>
</svg>
