<svg width="33" height="33" viewBox="0 0 33 33" fill="none" xmlns="http://www.w3.org/2000/svg">
<path opacity="0.6" d="M11.7134 1H20.4634C20.8084 1 21.0884 1.298 21.0884 1.66667V4.33333C21.0884 4.702 20.8084 5 20.4634 5H11.7134C11.3684 5 11.0884 4.702 11.0884 4.33333V1.66667C11.0884 1.298 11.3684 1 11.7134 1Z" fill="#1E7BD2"/>
<path d="M27.8503 4H22.2789C22.2789 5.02916 21.4456 5.86667 20.4217 5.86667H11.755C10.7311 5.86667 9.8979 5.02916 9.8979 4H4.32647C3.64305 4 3.08838 4.55751 3.08838 5.24444V30.7556C3.08838 31.4425 3.64305 32 4.32647 32H27.8503C28.5337 32 29.0884 31.4425 29.0884 30.7556V5.24444C29.0884 4.55751 28.5337 4 27.8503 4ZM25.9931 28.8889H6.18362V7.73333H25.9931V28.8889Z" fill="#1E7BD2"/>
<path d="M9.58838 14C10.9691 14 12.0884 12.8807 12.0884 11.5C12.0884 10.1193 10.9691 9 9.58838 9C8.20767 9 7.08838 10.1193 7.08838 11.5C7.08838 12.8807 8.20767 14 9.58838 14Z" fill="#1E7BD2"/>
<path d="M9.58838 27C10.9691 27 12.0884 25.8807 12.0884 24.5C12.0884 23.1193 10.9691 22 9.58838 22C8.20767 22 7.08838 23.1193 7.08838 24.5C7.08838 25.8807 8.20767 27 9.58838 27Z" fill="#1E7BD2"/>
<path d="M9.58838 20C10.9691 20 12.0884 19.1046 12.0884 18C12.0884 16.8954 10.9691 16 9.58838 16C8.20767 16 7.08838 16.8954 7.08838 18C7.08838 19.1046 8.20767 20 9.58838 20Z" fill="#1E7BD2"/>
<path opacity="0.6" d="M23.0499 10C23.6231 10 24.0884 10.672 24.0884 11.5C24.0884 12.328 23.6231 13 23.0499 13H16.1268C15.5529 13 15.0884 12.328 15.0884 11.5C15.0884 10.672 15.5529 10 16.1268 10H23.0499Z" fill="#1E7BD2"/>
<path opacity="0.6" d="M23.0499 17C23.6231 17 24.0884 17.448 24.0884 18C24.0884 18.552 23.6231 19 23.0499 19H16.1268C15.5529 19 15.0884 18.552 15.0884 18C15.0884 17.448 15.5529 17 16.1268 17H23.0499Z" fill="#1E7BD2"/>
<path opacity="0.6" d="M23.0499 23C23.6231 23 24.0884 23.672 24.0884 24.5C24.0884 25.328 23.6231 26 23.0499 26H16.1268C15.5529 26 15.0884 25.328 15.0884 24.5C15.0884 23.672 15.5529 23 16.1268 23H23.0499Z" fill="#1E7BD2"/>
</svg>
