<svg width="33" height="33" viewBox="0 0 33 33" fill="none" xmlns="http://www.w3.org/2000/svg">
<path d="M29.7307 19.9847L27.2186 18.5464C27.4722 17.1899 27.4722 15.7984 27.2186 14.4419L29.7307 13.0036C30.0197 12.8399 30.1494 12.5008 30.0551 12.1851C29.4005 10.1037 28.286 8.221 26.8294 6.65407C26.6054 6.41435 26.2397 6.35589 25.9567 6.51959L23.4446 7.9579C22.389 7.0575 21.1743 6.36173 19.8592 5.90569V3.03493C19.8592 2.70751 19.6292 2.42102 19.3049 2.35086C17.1407 1.87143 14.9235 1.89481 12.8654 2.35086C12.5411 2.42102 12.3111 2.70751 12.3111 3.03493V5.91153C11.002 6.37343 9.78722 7.06919 8.72577 7.96374L6.21956 6.52544C5.93061 6.36173 5.57089 6.41435 5.34681 6.65992C3.89026 8.221 2.77574 10.1037 2.12117 12.1909C2.02092 12.5067 2.15655 12.8458 2.44551 13.0095L4.95761 14.4478C4.70404 15.8042 4.70404 17.1958 4.95761 18.5522L2.44551 19.9905C2.15655 20.1542 2.02682 20.4933 2.12117 20.8091C2.77574 22.8905 3.89026 24.7732 5.34681 26.3401C5.57089 26.5798 5.93651 26.6383 6.21956 26.4746L8.73167 25.0363C9.78722 25.9367 11.002 26.6324 12.317 27.0885V29.9651C12.317 30.2925 12.547 30.579 12.8713 30.6491C15.0355 31.1286 17.2528 31.1052 19.3108 30.6491C19.6351 30.579 19.8651 30.2925 19.8651 29.9651V27.0885C21.1743 26.6266 22.389 25.9308 23.4505 25.0363L25.9626 26.4746C26.2515 26.6383 26.6112 26.5856 26.8353 26.3401C28.2919 24.779 29.4064 22.8963 30.061 20.8091C30.1494 20.4875 30.0197 20.1484 29.7307 19.9847ZM16.0852 21.1716C13.4846 21.1716 11.3676 19.0726 11.3676 16.4942C11.3676 13.9157 13.4846 11.8168 16.0852 11.8168C18.6857 11.8168 20.8027 13.9157 20.8027 16.4942C20.8027 19.0726 18.6857 21.1716 16.0852 21.1716Z" fill="#1E7BD2"/>
</svg>
