<svg width="32" height="33" viewBox="0 0 32 33" fill="none" xmlns="http://www.w3.org/2000/svg">
<g clip-path="url(#clip0_12372_27261)">
<path fill-rule="evenodd" clip-rule="evenodd" d="M17.6891 3.76662C17.1971 2.09662 14.8331 2.09662 14.3411 3.76662L14.1531 4.40462C13.995 4.94052 13.719 5.43425 13.3454 5.84967C12.9717 6.26508 12.5099 6.59165 11.9937 6.80546C11.4775 7.01926 10.92 7.11489 10.3621 7.08533C9.8041 7.05577 9.25984 6.90178 8.76911 6.63462L8.18511 6.31462C6.65711 5.48462 4.98511 7.15462 5.81711 8.68462L6.13511 9.26862C6.40226 9.75935 6.55626 10.3036 6.58582 10.8616C6.61538 11.4195 6.51975 11.977 6.30595 12.4932C6.09214 13.0094 5.76557 13.4712 5.35015 13.8449C4.93474 14.2185 4.441 14.4945 3.90511 14.6526L3.26711 14.8406C1.59711 15.3326 1.59711 17.6966 3.26711 18.1886L3.90511 18.3766C4.44128 18.5347 4.93529 18.8107 5.35091 19.1845C5.76654 19.5583 6.09324 20.0203 6.30707 20.5368C6.52091 21.0532 6.61645 21.611 6.58669 22.1692C6.55694 22.7274 6.40264 23.2718 6.13511 23.7626L5.81511 24.3446C4.98511 25.8726 6.65511 27.5446 8.18511 26.7126L8.76911 26.3946C9.25997 26.1275 9.80437 25.9736 10.3624 25.9441C10.9205 25.9147 11.4781 26.0105 11.9943 26.2245C12.5105 26.4385 12.9723 26.7653 13.3459 27.181C13.7194 27.5966 13.9952 28.0906 14.1531 28.6266L14.3411 29.2626C14.8331 30.9326 17.1971 30.9326 17.6891 29.2626L17.8771 28.6246C18.0352 28.0885 18.3112 27.5944 18.685 27.1788C19.0587 26.7632 19.5208 26.4365 20.0373 26.2227C20.5537 26.0088 21.1115 25.9133 21.6697 25.943C22.2279 25.9728 22.7723 26.1271 23.2631 26.3946L23.8451 26.7146C25.3731 27.5446 27.0451 25.8746 26.2131 24.3446L25.8951 23.7626C25.6276 23.2717 25.4734 22.7271 25.4438 22.1688C25.4141 21.6105 25.5098 21.0527 25.7239 20.5362C25.9379 20.0197 26.2649 19.5577 26.6807 19.184C27.0965 18.8103 27.5908 18.5344 28.1271 18.3766L28.7631 18.1886C30.4331 17.6966 30.4331 15.3326 28.7631 14.8406L28.1251 14.6526C27.5892 14.4945 27.0955 14.2185 26.6801 13.8449C26.2647 13.4712 25.9381 13.0094 25.7243 12.4932C25.5105 11.977 25.4149 11.4195 25.4444 10.8616C25.474 10.3036 25.628 9.75935 25.8951 9.26862L26.2151 8.68462C27.0451 7.15662 25.3751 5.48462 23.8451 6.31662L23.2631 6.63462C22.7722 6.90253 22.2276 7.05713 21.6692 7.08708C21.1108 7.11703 20.5527 7.02157 20.036 6.80771C19.5193 6.59385 19.057 6.26701 18.6831 5.85118C18.3092 5.43535 18.0331 4.94107 17.8751 4.40462L17.6871 3.76662H17.6891ZM12.4231 3.20062C13.4771 -0.379375 18.5531 -0.379375 19.6071 3.20062L19.7951 3.83862C19.8687 4.08853 19.9973 4.31879 20.1715 4.51254C20.3456 4.70629 20.561 4.85861 20.8016 4.95833C21.0423 5.05805 21.3022 5.10265 21.5624 5.08886C21.8226 5.07507 22.0763 5.00324 22.3051 4.87862L22.8891 4.55862C26.1691 2.77463 29.7571 6.36062 27.9691 9.64062L27.6511 10.2246C27.5265 10.4534 27.4547 10.7072 27.4409 10.9673C27.4271 11.2275 27.4717 11.4874 27.5714 11.7281C27.6711 11.9688 27.8235 12.1841 28.0172 12.3583C28.2109 12.5324 28.4412 12.661 28.6911 12.7346L29.3291 12.9226C32.9091 13.9766 32.9091 19.0526 29.3291 20.1066L28.6911 20.2946C28.4412 20.3682 28.2109 20.4968 28.0172 20.671C27.8235 20.8452 27.6711 21.0605 27.5714 21.3011C27.4717 21.5418 27.4271 21.8018 27.4409 22.0619C27.4547 22.3221 27.5265 22.5758 27.6511 22.8046L27.9711 23.3886C29.7571 26.6686 26.1671 30.2566 22.8891 28.4686L22.3051 28.1506C22.0763 28.026 21.8226 27.9542 21.5624 27.9404C21.3022 27.9266 21.0423 27.9712 20.8016 28.0709C20.561 28.1706 20.3456 28.323 20.1715 28.5167C19.9973 28.7105 19.8687 28.9407 19.7951 29.1906L19.6071 29.8286C18.5531 33.4086 13.4771 33.4086 12.4231 29.8286L12.2351 29.1906C12.1615 28.9407 12.0329 28.7105 11.8587 28.5167C11.6846 28.323 11.4693 28.1706 11.2286 28.0709C10.9879 27.9712 10.728 27.9266 10.4678 27.9404C10.2077 27.9542 9.9539 28.026 9.72511 28.1506L9.14111 28.4706C5.86111 30.2566 2.27511 26.6666 4.06111 23.3886L4.37911 22.8046C4.50372 22.5758 4.57556 22.3221 4.58935 22.0619C4.60314 21.8018 4.55854 21.5418 4.45882 21.3011C4.35909 21.0605 4.20678 20.8452 4.01303 20.671C3.81928 20.4968 3.58902 20.3682 3.33911 20.2946L2.70111 20.1066C-0.878887 19.0526 -0.878887 13.9766 2.70111 12.9226L3.33911 12.7346C3.58902 12.661 3.81928 12.5324 4.01303 12.3583C4.20678 12.1841 4.35909 11.9688 4.45882 11.7281C4.55854 11.4874 4.60314 11.2275 4.58935 10.9673C4.57556 10.7072 4.50372 10.4534 4.37911 10.2246L4.05911 9.64062C2.27511 6.36062 5.86311 2.77462 9.14111 4.56062L9.72511 4.87862C9.9539 5.00324 10.2077 5.07507 10.4678 5.08886C10.728 5.10265 10.9879 5.05805 11.2286 4.95833C11.4693 4.85861 11.6846 4.70629 11.8587 4.51254C12.0329 4.31879 12.1615 4.08853 12.2351 3.83862L12.4231 3.20062Z" fill="#EF8556"/>
<path fill-rule="evenodd" clip-rule="evenodd" d="M16.0001 12.0078C14.8087 12.0078 13.6661 12.4811 12.8237 13.3235C11.9813 14.1659 11.5081 15.3085 11.5081 16.4998C11.5081 17.6912 11.9813 18.8337 12.8237 19.6761C13.6661 20.5186 14.8087 20.9918 16.0001 20.9918C17.1914 20.9918 18.334 20.5186 19.1764 19.6761C20.0188 18.8337 20.4921 17.6912 20.4921 16.4998C20.4921 15.3085 20.0188 14.1659 19.1764 13.3235C18.334 12.4811 17.1914 12.0078 16.0001 12.0078ZM9.50806 16.4998C9.50806 15.6473 9.67598 14.8031 10.0022 14.0154C10.3285 13.2278 10.8067 12.5121 11.4095 11.9093C12.0124 11.3064 12.728 10.8282 13.5157 10.502C14.3033 10.1757 15.1475 10.0078 16.0001 10.0078C16.8526 10.0078 17.6968 10.1757 18.4844 10.502C19.2721 10.8282 19.9878 11.3064 20.5906 11.9093C21.1934 12.5121 21.6716 13.2278 21.9979 14.0154C22.3241 14.8031 22.4921 15.6473 22.4921 16.4998C22.4921 18.2216 21.8081 19.8729 20.5906 21.0904C19.3731 22.3078 17.7218 22.9918 16.0001 22.9918C14.2783 22.9918 12.627 22.3078 11.4095 21.0904C10.192 19.8729 9.50806 18.2216 9.50806 16.4998Z" fill="#EF8556"/>
</g>
<defs>
<clipPath id="clip0_12372_27261">
<rect width="32" height="32" fill="white" transform="translate(0 0.5)"/>
</clipPath>
</defs>
</svg>
