<svg width="30" height="31" viewBox="0 0 30 31" fill="none" xmlns="http://www.w3.org/2000/svg">
<g clip-path="url(#clip0_12474_27169)">
<path d="M28.9571 10.6475H6.79045C6.23803 10.6475 5.77778 11.0325 5.65703 11.5481L2.15586 26.72C2.13603 26.804 2.12378 26.891 2.12378 26.9808C2.12378 27.6248 2.64645 28.1475 3.29045 28.1475H8.9097C14 28.1475 8.9097 28.1475 14 28.1475C19.8379 28.1475 14 28.1475 19.8379 28.1475H25.4571C26.0095 28.1475 26.4698 27.7625 26.5905 27.2468L30.0917 12.0749C30.1115 11.9909 30.1238 11.904 30.1238 11.8141C30.1238 11.1701 29.6011 10.6475 28.9571 10.6475Z" fill="#0A77DB"/>
<g clip-path="url(#clip1_12474_27169)">
<path fill-rule="evenodd" clip-rule="evenodd" d="M13.161 14.481C12.9621 14.481 12.7713 14.56 12.6307 14.7006C12.49 14.8413 12.411 15.032 12.411 15.231V18.6705C12.4111 18.8694 12.4901 19.0601 12.6308 19.2007L17.8808 24.4507C18.0214 24.5913 18.2121 24.6703 18.411 24.6703C18.6099 24.6703 18.8006 24.5913 18.9413 24.4507L22.3808 21.0112C22.5214 20.8706 22.6004 20.6798 22.6004 20.481C22.6004 20.2821 22.5214 20.0914 22.3808 19.9507L17.1308 14.7007C16.9901 14.56 16.7994 14.481 16.6005 14.481H13.161ZM16.161 17.106C16.161 17.2537 16.1319 17.4 16.0754 17.5365C16.0188 17.673 15.936 17.797 15.8315 17.9015C15.727 18.0059 15.603 18.0888 15.4665 18.1453C15.33 18.2019 15.1837 18.231 15.036 18.231C14.8883 18.231 14.742 18.2019 14.6055 18.1453C14.469 18.0888 14.345 18.0059 14.2405 17.9015C14.136 17.797 14.0532 17.673 13.9966 17.5365C13.9401 17.4 13.911 17.2537 13.911 17.106C13.911 16.8076 14.0295 16.5214 14.2405 16.3105C14.4515 16.0995 14.7376 15.981 15.036 15.981C15.3344 15.981 15.6205 16.0995 15.8315 16.3105C16.0425 16.5214 16.161 16.8076 16.161 17.106Z" fill="white" fill-opacity="0.9"/>
<path d="M11.661 19.0455C11.6611 19.2444 11.7401 19.4351 11.8808 19.5757L17.4735 25.1685L17.4413 25.2007C17.3006 25.3413 17.1099 25.4203 16.911 25.4203C16.7121 25.4203 16.5214 25.3413 16.3808 25.2007L11.1308 19.9507C10.9901 19.8101 10.9111 19.6194 10.911 19.4205V15.981C10.911 15.782 10.99 15.5913 11.1307 15.4506C11.2713 15.31 11.4621 15.231 11.661 15.231V19.0455Z" fill="white" fill-opacity="0.9"/>
</g>
<path d="M6.79053 8.89762H27.7905V3.06429C27.7905 1.77571 26.7458 0.730957 25.4572 0.730957H18.6444C17.8068 0.730957 17.0339 1.18012 16.6179 1.90696L14.9572 4.81429H2.12386C0.835277 4.81429 -0.209473 5.85904 -0.209473 7.14762V24.7223C-0.209473 25.0029 0.0186108 25.231 0.299777 25.231C0.536611 25.231 0.741944 25.0694 0.795611 24.8378C1.68286 20.9802 3.96953 11.1055 3.97711 11.0787C4.31544 9.78954 5.45761 8.89762 6.79053 8.89762Z" fill="#0A77DB" fill-opacity="0.5"/>
</g>
<defs>
<clipPath id="clip0_12474_27169">
<rect width="30" height="30" fill="white" transform="translate(-0.0012207 0.230957)"/>
</clipPath>
<clipPath id="clip1_12474_27169">
<rect width="12" height="12" fill="white" transform="translate(10.911 13.731)"/>
</clipPath>
</defs>
</svg>
