<svg width="32" height="33" viewBox="0 0 32 33" fill="none" xmlns="http://www.w3.org/2000/svg">
<path fill-rule="evenodd" clip-rule="evenodd" d="M4 10.5V25.5C4 27.228 5.284 28.5 6.714 28.5H25.286C26.716 28.5 28 27.228 28 25.5V10.5H30V25.5C30 28.19 27.958 30.5 25.286 30.5H6.714C4.042 30.5 2 28.19 2 25.5V10.5H4Z" fill="#EF8556"/>
<path fill-rule="evenodd" clip-rule="evenodd" d="M11 15.5C11 15.2348 11.1054 14.9804 11.2929 14.7929C11.4804 14.6054 11.7348 14.5 12 14.5H20C20.2652 14.5 20.5196 14.6054 20.7071 14.7929C20.8946 14.9804 21 15.2348 21 15.5C21 15.7652 20.8946 16.0196 20.7071 16.2071C20.5196 16.3946 20.2652 16.5 20 16.5H12C11.7348 16.5 11.4804 16.3946 11.2929 16.2071C11.1054 16.0196 11 15.7652 11 15.5ZM30 4.5H2V8.5H30V4.5ZM2 2.5C1.46957 2.5 0.960859 2.71071 0.585786 3.08579C0.210714 3.46086 0 3.96957 0 4.5L0 8.5C0 9.03043 0.210714 9.53914 0.585786 9.91421C0.960859 10.2893 1.46957 10.5 2 10.5H30C30.5304 10.5 31.0391 10.2893 31.4142 9.91421C31.7893 9.53914 32 9.03043 32 8.5V4.5C32 3.96957 31.7893 3.46086 31.4142 3.08579C31.0391 2.71071 30.5304 2.5 30 2.5H2Z" fill="#032D60"/>
</svg>
