<svg width="31" height="31" viewBox="0 0 31 31" fill="none" xmlns="http://www.w3.org/2000/svg">
<g clip-path="url(#clip0_12473_27129)">
<path d="M27.0602 30.418C27.8734 30.418 28.5326 29.7588 28.5326 28.9456C28.5326 28.1324 27.8734 27.4731 27.0602 27.4731C26.2469 27.4731 25.5877 28.1324 25.5877 28.9456C25.5877 29.7588 26.2469 30.418 27.0602 30.418Z" fill="#1E7BD2"/>
<path d="M3.50101 30.418C4.31423 30.418 4.97346 29.7588 4.97346 28.9456C4.97346 28.1324 4.31423 27.4731 3.50101 27.4731C2.6878 27.4731 2.02856 28.1324 2.02856 28.9456C2.02856 29.7588 2.6878 30.418 3.50101 30.418Z" fill="#1E7BD2"/>
<path d="M0.556091 12.748V18.6378C0.556091 20.262 1.87688 21.5828 3.50099 21.5828H13.8081V27.4726H6.44589V30.4175H24.1153V27.4726H16.753V21.5828H27.0602C28.6843 21.5828 30.0051 20.262 30.0051 18.6378V12.748H0.556091ZM12.3357 18.6378H4.97344V15.6929H12.3357V18.6378ZM19.6979 18.6378C18.8852 18.6378 18.2255 17.9797 18.2255 17.1654C18.2255 16.3526 18.8852 15.6929 19.6979 15.6929C20.5107 15.6929 21.1704 16.3526 21.1704 17.1654C21.1704 17.9797 20.5107 18.6378 19.6979 18.6378ZM24.1153 18.6378C23.3025 18.6378 22.6428 17.9797 22.6428 17.1654C22.6428 16.3526 23.3025 15.6929 24.1153 15.6929C24.9281 15.6929 25.5877 16.3526 25.5877 17.1654C25.5877 17.9797 24.9281 18.6378 24.1153 18.6378Z" fill="#1E7BD2"/>
<path opacity="0.6" d="M30.0055 9.80345V3.91365C30.0055 2.28954 28.6847 0.96875 27.0606 0.96875H3.50136C1.87725 0.96875 0.556458 2.28954 0.556458 3.91365V9.80345H30.0055ZM24.1157 3.91365C24.9285 3.91365 25.5881 4.57331 25.5881 5.3861C25.5881 6.20037 24.9285 6.85855 24.1157 6.85855C23.3029 6.85855 22.6432 6.20037 22.6432 5.3861C22.6432 4.57331 23.3029 3.91365 24.1157 3.91365ZM19.6983 3.91365C20.5111 3.91365 21.1708 4.57331 21.1708 5.3861C21.1708 6.20037 20.5111 6.85855 19.6983 6.85855C18.8855 6.85855 18.2259 6.20037 18.2259 5.3861C18.2259 4.57331 18.8855 3.91365 19.6983 3.91365ZM4.97381 3.91365H12.3361V6.85855H4.97381V3.91365Z" fill="#1E7BD2"/>
</g>
<defs>
<clipPath id="clip0_12473_27129">
<rect width="30" height="30" fill="white" transform="translate(0.0877686 0.5)"/>
</clipPath>
</defs>
</svg>
