<svg width="31" height="31" viewBox="0 0 31 31" fill="none" xmlns="http://www.w3.org/2000/svg">
<path d="M3.18002 7C2.58984 6.99892 2.08911 7.47013 2.08911 8.08032V19.8032C2.08911 20.3401 2.48347 20.7961 3.01638 20.877L12.9982 22.3818V25.4507C11.5162 25.1548 10.302 24.9149 10.2709 24.9149C9.66875 24.9149 9.18002 25.765 9.18002 26.815C9.18002 27.8649 9.68675 28.5695 10.2709 28.715C11.6711 29.0635 14.6433 29.6352 16.5938 30C16.3904 29.5467 16.2709 29.0152 16.2709 28.4436C16.2709 27.5733 16.5447 26.7932 16.9784 26.2476C16.3097 26.113 15.4795 25.9463 14.6346 25.7781V22.6288L18.8346 23.2738C18.8897 23.2819 18.9442 23.2863 18.9982 23.2863C19.5906 23.2873 20.0891 22.8091 20.0891 22.2005V12.9657C20.0891 12.4315 19.6986 11.9765 19.1684 11.8929L10.338 10.5184C9.95838 10.4587 9.6382 10.2041 9.49529 9.84901L8.86257 8.27522C8.72075 7.92343 8.40493 7.66991 8.02911 7.60802L3.35893 7.0152C3.29893 7.00489 3.23838 7 3.18002 7V7Z" fill="#1E7BD2"/>
<path d="M7.18002 4C6.58984 3.99894 6.08911 4.46591 6.08911 5.0625V6.22063L8.61838 6.50856C9.41311 6.59994 10.0922 7.10675 10.3895 7.82978L10.882 9.02988C10.954 9.20466 11.116 9.3295 11.3075 9.35766L20.0489 10.6348C21.1169 10.791 21.9073 11.6845 21.9073 12.7364V20.8497L22.8346 20.9872C22.8897 20.9957 22.9442 21 22.9982 21C23.5906 21.0011 24.0891 20.533 24.0891 19.9375V9.831C24.0891 9.30825 23.6986 8.86306 23.1684 8.78125L13.9715 7.44888C13.5924 7.39044 13.2717 7.14181 13.1287 6.79384L12.496 5.25375C12.3547 4.9095 12.0389 4.66141 11.6631 4.60085L7.35893 4.01488C7.29893 4.00478 7.23838 4 7.18002 4Z" fill="#1472C9" fill-opacity="0.6"/>
<path d="M25.8624 19.9875C25.9163 19.9957 25.9696 20 26.0224 20C26.6016 20.0011 27.0891 19.5228 27.0891 18.9143V6.97143C27.0891 6.43726 26.7072 5.98234 26.1888 5.89874L18.263 4.52423C17.8923 4.46452 17.5787 4.21046 17.439 3.85489L16.8203 2.28114C16.6822 1.92937 16.3734 1.67586 16.0059 1.61397L12.3307 1.0152C12.272 1.00489 12.2128 1 12.1558 1C11.5787 0.998916 11.0891 1.47609 11.0891 2.08572V2.91574L11.9622 3.01997C12.7392 3.11334 13.4032 3.63123 13.6939 4.37006L14.1755 5.59637C14.2459 5.77497 14.4043 5.90254 14.5915 5.93132L23.1387 7.23634C24.183 7.39649 24.9558 8.30957 24.9558 9.38443V19.8453L25.8624 19.9875Z" fill="#1E7BD2"/>
<path d="M19.0891 30C19.6414 30 20.0891 29.1046 20.0891 28C20.0891 26.8954 19.6414 26 19.0891 26C18.5368 26 18.0891 26.8954 18.0891 28C18.0891 29.1046 18.5368 30 19.0891 30Z" fill="#1E7BD2"/>
<path d="M6.08911 27C6.6414 27 7.08911 26.5523 7.08911 26C7.08911 25.4477 6.6414 25 6.08911 25C5.53683 25 5.08911 25.4477 5.08911 26C5.08911 26.5523 5.53683 27 6.08911 27Z" fill="#1472C9" fill-opacity="0.6"/>
<path d="M22.0891 30C22.6414 30 23.0891 29.5523 23.0891 29C23.0891 28.4477 22.6414 28 22.0891 28C21.5368 28 21.0891 28.4477 21.0891 29C21.0891 29.5523 21.5368 30 22.0891 30Z" fill="#1472C9" fill-opacity="0.6"/>
</svg>
