<svg width="32" height="33" viewBox="0 0 32 33" fill="none" xmlns="http://www.w3.org/2000/svg">
<g clip-path="url(#clip0_12372_27262)">
<path fill-rule="evenodd" clip-rule="evenodd" d="M20.8839 21.3844C21.0696 21.1985 21.2902 21.051 21.533 20.9503C21.7758 20.8497 22.0361 20.7979 22.2989 20.7979C22.5617 20.7979 22.822 20.8497 23.0648 20.9503C23.3076 21.051 23.5281 21.1985 23.7139 21.3844L31.4139 29.0844C31.7892 29.4594 32.0001 29.9682 32.0003 30.4987C32.0005 31.0293 31.7899 31.5381 31.4149 31.9134C31.0399 32.2887 30.5311 32.4996 30.0006 32.4998C29.4701 32.5 28.9612 32.2894 28.5859 31.9144L20.8859 24.2144C20.6999 24.0287 20.5524 23.8081 20.4518 23.5653C20.3511 23.3225 20.2993 23.0623 20.2993 22.7994C20.2993 22.5366 20.3511 22.2763 20.4518 22.0335C20.5524 21.7907 20.6999 21.5702 20.8859 21.3844H20.8839Z" fill="#032D60"/>
<path fill-rule="evenodd" clip-rule="evenodd" d="M13 24.5C14.4445 24.5 15.8749 24.2155 17.2095 23.6627C18.5441 23.1099 19.7567 22.2996 20.7782 21.2782C21.7996 20.2567 22.6099 19.0441 23.1627 17.7095C23.7155 16.3749 24 14.9445 24 13.5C24 12.0555 23.7155 10.6251 23.1627 9.29048C22.6099 7.9559 21.7996 6.74327 20.7782 5.72183C19.7567 4.70038 18.5441 3.89013 17.2095 3.33733C15.8749 2.78452 14.4445 2.5 13 2.5C10.0826 2.5 7.28473 3.65893 5.22183 5.72183C3.15893 7.78473 2 10.5826 2 13.5C2 16.4174 3.15893 19.2153 5.22183 21.2782C7.28473 23.3411 10.0826 24.5 13 24.5ZM26 13.5C26 16.9478 24.6304 20.2544 22.1924 22.6924C19.7544 25.1304 16.4478 26.5 13 26.5C9.55219 26.5 6.24558 25.1304 3.80761 22.6924C1.36964 20.2544 0 16.9478 0 13.5C0 10.0522 1.36964 6.74558 3.80761 4.30761C6.24558 1.86964 9.55219 0.5 13 0.5C16.4478 0.5 19.7544 1.86964 22.1924 4.30761C24.6304 6.74558 26 10.0522 26 13.5Z" fill="#EF8556"/>
</g>
<defs>
<clipPath id="clip0_12372_27262">
<rect width="32" height="32" fill="white" transform="translate(0 0.5)"/>
</clipPath>
</defs>
</svg>
