<svg width="32" height="33" viewBox="0 0 32 33" fill="none" xmlns="http://www.w3.org/2000/svg">
<g clip-path="url(#clip0_12372_27278)">
<path fill-rule="evenodd" clip-rule="evenodd" d="M19.6559 8.5H4.37989C4.10206 8.49998 3.82728 8.55785 3.57306 8.66992C3.31883 8.78198 3.09074 8.94579 2.90333 9.15088C2.71592 9.35598 2.5733 9.59788 2.48455 9.86115C2.39581 10.1244 2.36289 10.4033 2.38789 10.68L3.66189 24.68C3.7068 25.1769 3.93582 25.6391 4.30401 25.9758C4.67219 26.3126 5.15294 26.4995 5.65189 26.5H17.9999V28.5H5.65189C4.65397 28.4996 3.69223 28.1262 2.95549 27.4531C2.21874 26.78 1.7602 25.8558 1.66989 24.862L0.395892 10.862C0.310664 9.93557 0.55268 9.00855 1.07989 8.242L0.999892 6.5C0.999892 5.43913 1.42132 4.42172 2.17146 3.67157C2.92161 2.92143 3.93903 2.5 4.99989 2.5H12.3439C13.4047 2.50023 14.4219 2.9218 15.1719 3.672L16.8279 5.328C17.5779 6.0782 18.5951 6.49977 19.6559 6.5H27.6199C28.1757 6.49994 28.7255 6.61573 29.2341 6.83998C29.7427 7.06423 30.199 7.39202 30.5738 7.80244C30.9487 8.21286 31.2339 8.6969 31.4112 9.22369C31.5886 9.75047 31.6542 10.3084 31.6039 10.862L31.0919 16.5H29.0799L29.6099 10.68C29.6349 10.4035 29.602 10.1248 29.5134 9.86162C29.4248 9.59849 29.2823 9.35669 29.0951 9.15162C28.9079 8.94655 28.6801 8.78271 28.4261 8.67052C28.1721 8.55833 27.8976 8.50026 27.6199 8.5H19.6559ZM13.7559 5.086L15.1739 6.5H4.37989C3.89989 6.5 3.43989 6.584 3.01189 6.74L2.99989 6.46C3.01036 5.93653 3.22569 5.43804 3.59963 5.07157C3.97358 4.70511 4.47632 4.4999 4.99989 4.5H12.3439C12.8743 4.50011 13.3829 4.7109 13.7579 5.086H13.7559Z" fill="#EF8556"/>
<path d="M26.643 25.2069L31.6819 22.1441C31.7796 22.0815 31.8598 21.9959 31.9154 21.8951C31.9709 21.7944 32 21.6816 32 21.567C32 21.4524 31.9709 21.3396 31.9154 21.2389C31.8598 21.1381 31.7796 21.0525 31.6819 20.9899L26.643 17.9256C26.2154 17.6673 25.6675 17.9816 25.6675 18.5042V19.7004C24.3104 19.7004 20.2376 19.7004 19.3333 27.1668C21.5962 22.967 25.6675 23.4336 25.6675 23.4336V24.6298C25.6675 25.1524 26.2154 25.4667 26.643 25.2069Z" fill="#032D60"/>
</g>
<defs>
<clipPath id="clip0_12372_27278">
<rect width="32" height="32" fill="white" transform="translate(0 0.5)"/>
</clipPath>
</defs>
</svg>
