<svg width="32" height="33" viewBox="0 0 32 33" fill="none" xmlns="http://www.w3.org/2000/svg">
<path fill-rule="evenodd" clip-rule="evenodd" d="M4 10.5V25.5C4 27.228 5.284 28.5 6.714 28.5H25.286C26.716 28.5 28 27.228 28 25.5V10.5H30V25.5C30 28.19 27.958 30.5 25.286 30.5H6.714C4.042 30.5 2 28.19 2 25.5V10.5H4Z" fill="#EF8556"/>
<path fill-rule="evenodd" clip-rule="evenodd" d="M30 4.5H2V8.5H30V4.5ZM2 2.5C1.46957 2.5 0.960859 2.71071 0.585786 3.08579C0.210714 3.46086 0 3.96957 0 4.5L0 8.5C0 9.03043 0.210714 9.53914 0.585786 9.91421C0.960859 10.2893 1.46957 10.5 2 10.5H30C30.5304 10.5 31.0391 10.2893 31.4142 9.91421C31.7893 9.53914 32 9.03043 32 8.5V4.5C32 3.96957 31.7893 3.46086 31.4142 3.08579C31.0391 2.71071 30.5304 2.5 30 2.5H2Z" fill="#EF8556"/>
<path fill-rule="evenodd" clip-rule="evenodd" d="M15.4375 26.8335C15.4375 26.8335 14.375 26.8335 14.375 25.7502C14.375 24.6668 15.4375 21.4168 19.6875 21.4168C23.9375 21.4168 25 24.6668 25 25.7502C25 26.8335 23.9375 26.8335 23.9375 26.8335H15.4375ZM19.6875 20.3335C20.5329 20.3335 21.3436 19.9911 21.9414 19.3816C22.5392 18.7721 22.875 17.9454 22.875 17.0835C22.875 16.2215 22.5392 15.3949 21.9414 14.7854C21.3436 14.1759 20.5329 13.8335 19.6875 13.8335C18.8421 13.8335 18.0314 14.1759 17.4336 14.7854C16.8358 15.3949 16.5 16.2215 16.5 17.0835C16.5 17.9454 16.8358 18.7721 17.4336 19.3816C18.0314 19.9911 18.8421 20.3335 19.6875 20.3335ZM13.542 26.8335C13.3845 26.4953 13.3059 26.1245 13.3125 25.7502C13.3125 24.2822 14.035 22.771 15.3695 21.7202C14.7034 21.5109 14.0094 21.4086 13.3125 21.4168C9.0625 21.4168 8 24.6668 8 25.7502C8 26.8335 9.0625 26.8335 9.0625 26.8335H13.542ZM12.7812 20.3335C13.4857 20.3335 14.1614 20.0482 14.6595 19.5402C15.1576 19.0323 15.4375 18.3435 15.4375 17.6252C15.4375 16.9069 15.1576 16.218 14.6595 15.7101C14.1614 15.2022 13.4857 14.9168 12.7812 14.9168C12.0768 14.9168 11.4011 15.2022 10.903 15.7101C10.4049 16.218 10.125 16.9069 10.125 17.6252C10.125 18.3435 10.4049 19.0323 10.903 19.5402C11.4011 20.0482 12.0768 20.3335 12.7812 20.3335Z" fill="#032D60"/>
</svg>
