<svg width="32" height="33" viewBox="0 0 32 33" fill="none" xmlns="http://www.w3.org/2000/svg">
<g clip-path="url(#clip0_12372_27285)">
<path fill-rule="evenodd" clip-rule="evenodd" d="M19.6559 8.5H4.37989C4.10206 8.49998 3.82728 8.55785 3.57306 8.66992C3.31883 8.78198 3.09074 8.94579 2.90333 9.15088C2.71592 9.35598 2.5733 9.59788 2.48455 9.86115C2.39581 10.1244 2.36289 10.4033 2.38789 10.68L3.66189 24.68C3.7068 25.1769 3.93582 25.6391 4.30401 25.9758C4.67219 26.3126 5.15294 26.4995 5.65189 26.5H17.9999V28.5H5.65189C4.65397 28.4996 3.69223 28.1262 2.95549 27.4531C2.21874 26.78 1.7602 25.8558 1.66989 24.862L0.395892 10.862C0.310664 9.93557 0.55268 9.00855 1.07989 8.242L0.999892 6.5C0.999892 5.43913 1.42132 4.42172 2.17146 3.67157C2.92161 2.92143 3.93903 2.5 4.99989 2.5H12.3439C13.4047 2.50023 14.4219 2.9218 15.1719 3.672L16.8279 5.328C17.5779 6.0782 18.5951 6.49977 19.6559 6.5H27.6199C28.1757 6.49994 28.7255 6.61573 29.2341 6.83998C29.7427 7.06423 30.199 7.39202 30.5738 7.80244C30.9487 8.21286 31.2339 8.6969 31.4112 9.22369C31.5886 9.75047 31.6542 10.3084 31.6039 10.862L31.0919 16.5H29.0799L29.6099 10.68C29.6349 10.4035 29.602 10.1248 29.5134 9.86162C29.4248 9.59849 29.2823 9.35669 29.0951 9.15162C28.9079 8.94655 28.6801 8.78271 28.4261 8.67052C28.1721 8.55833 27.8976 8.50026 27.6199 8.5H19.6559ZM13.7559 5.086L15.1739 6.5H4.37989C3.89989 6.5 3.43989 6.584 3.01189 6.74L2.99989 6.46C3.01036 5.93653 3.22569 5.43804 3.59963 5.07157C3.97358 4.70511 4.47632 4.4999 4.99989 4.5H12.3439C12.8743 4.50011 13.3829 4.7109 13.7579 5.086H13.7559Z" fill="#EF8556"/>
<path fill-rule="evenodd" clip-rule="evenodd" d="M31.708 20.7918C31.8012 20.8847 31.8751 20.9951 31.9255 21.1166C31.9759 21.2381 32.0018 21.3683 32.0018 21.4998C32.0018 21.6314 31.9759 21.7616 31.9255 21.8831C31.8751 22.0046 31.8012 22.1149 31.708 22.2078L25.708 28.2078C25.6152 28.301 25.5048 28.3748 25.3833 28.4253C25.2618 28.4757 25.1316 28.5016 25 28.5016C24.8685 28.5016 24.7383 28.4757 24.6168 28.4253C24.4953 28.3748 24.3849 28.301 24.292 28.2078L21.292 25.2078C21.1991 25.1149 21.1253 25.0045 21.075 24.883C21.0247 24.7615 20.9988 24.6313 20.9988 24.4998C20.9988 24.3683 21.0247 24.2381 21.075 24.1167C21.1253 23.9952 21.1991 23.8848 21.292 23.7918C21.385 23.6989 21.4954 23.6251 21.6169 23.5748C21.7384 23.5245 21.8686 23.4986 22 23.4986C22.1315 23.4986 22.2617 23.5245 22.3832 23.5748C22.5047 23.6251 22.6151 23.6989 22.708 23.7918L25 26.0858L30.292 20.7918C30.3849 20.6987 30.4953 20.6248 30.6168 20.5744C30.7383 20.524 30.8685 20.498 31 20.498C31.1316 20.498 31.2618 20.524 31.3833 20.5744C31.5048 20.6248 31.6152 20.6987 31.708 20.7918Z" fill="#032D60"/>
</g>
<defs>
<clipPath id="clip0_12372_27285">
<rect width="32" height="32" fill="white" transform="translate(0 0.5)"/>
</clipPath>
</defs>
</svg>
