<svg width="31" height="31" viewBox="0 0 31 31" fill="none" xmlns="http://www.w3.org/2000/svg">
<g clip-path="url(#clip0_12474_27242)">
<path d="M29.0462 10.9165H6.87956C6.32714 10.9165 5.86689 11.3015 5.74614 11.8172L2.24497 26.9891C2.22514 27.0731 2.21289 27.16 2.21289 27.2498C2.21289 27.8938 2.73556 28.4165 3.37956 28.4165H8.99881C14.0891 28.4165 8.99881 28.4165 14.0891 28.4165C19.927 28.4165 14.0891 28.4165 19.927 28.4165H25.5462C26.0986 28.4165 26.5589 28.0315 26.6796 27.5158L30.1808 12.3439C30.2006 12.2599 30.2129 12.173 30.2129 12.0832C30.2129 11.4392 29.6902 10.9165 29.0462 10.9165Z" fill="#1E7BD2"/>
<g clip-path="url(#clip1_12474_27242)">
<path fill-rule="evenodd" clip-rule="evenodd" d="M22.0885 20C22.0885 21.5913 21.4564 23.1174 20.3311 24.2426C19.2059 25.3679 17.6798 26 16.0885 26C14.4972 26 12.9711 25.3679 11.8459 24.2426C10.7206 23.1174 10.0885 21.5913 10.0885 20C10.0885 18.4087 10.7206 16.8826 11.8459 15.7574C12.9711 14.6321 14.4972 14 16.0885 14C17.6798 14 19.2059 14.6321 20.3311 15.7574C21.4564 16.8826 22.0885 18.4087 22.0885 20V20ZM19.111 17.7275C19.0574 17.6741 18.9936 17.6321 18.9234 17.6039C18.8533 17.5757 18.7781 17.562 18.7025 17.5636C18.6269 17.5651 18.5523 17.5819 18.4834 17.6129C18.4144 17.6439 18.3524 17.6885 18.301 17.744L15.6963 21.0627L14.1265 19.4922C14.0199 19.3929 13.8788 19.3388 13.7331 19.3414C13.5874 19.3439 13.4483 19.403 13.3453 19.506C13.2422 19.6091 13.1832 19.7481 13.1806 19.8939C13.178 20.0396 13.2321 20.1806 13.3315 20.2873L15.316 22.2725C15.3695 22.3259 15.4331 22.3679 15.5032 22.3961C15.5733 22.4244 15.6483 22.4382 15.7238 22.4368C15.7993 22.4354 15.8738 22.4188 15.9428 22.388C16.0117 22.3572 16.0738 22.3128 16.1253 22.2575L19.1193 18.515C19.2213 18.4089 19.2777 18.267 19.2763 18.1197C19.2749 17.9725 19.2158 17.8317 19.1118 17.7275H19.111Z" fill="white"/>
</g>
<path d="M6.87964 9.16667H27.8796V3.33333C27.8796 2.04475 26.8349 1 25.5463 1H18.7336C17.8959 1 17.123 1.44917 16.7071 2.176L15.0463 5.08333H2.21297C0.924389 5.08333 -0.120361 6.12808 -0.120361 7.41667V24.9913C-0.120361 25.2719 0.107722 25.5 0.388889 25.5C0.625722 25.5 0.831055 25.3384 0.884722 25.1068C1.77197 21.2492 4.05864 11.3746 4.06622 11.3477C4.40456 10.0586 5.54672 9.16667 6.87964 9.16667V9.16667Z" fill="#1472C9" fill-opacity="0.6"/>
</g>
<defs>
<clipPath id="clip0_12474_27242">
<rect width="30" height="30" fill="white" transform="translate(0.0878906 0.5)"/>
</clipPath>
<clipPath id="clip1_12474_27242">
<rect width="12" height="12" fill="white" transform="translate(10.0885 14)"/>
</clipPath>
</defs>
</svg>
