<svg width="31" height="31" viewBox="0 0 31 31" fill="none" xmlns="http://www.w3.org/2000/svg">
<g clip-path="url(#clip0_12474_27247)">
<path d="M29.0462 10.9165H6.87956C6.32714 10.9165 5.86689 11.3015 5.74614 11.8172L2.24497 26.9891C2.22514 27.0731 2.21289 27.16 2.21289 27.2498C2.21289 27.8938 2.73556 28.4165 3.37956 28.4165H8.99881C14.0891 28.4165 8.99881 28.4165 14.0891 28.4165C19.927 28.4165 14.0891 28.4165 19.927 28.4165H25.5462C26.0986 28.4165 26.5589 28.0315 26.6796 27.5158L30.1808 12.3439C30.2006 12.2599 30.2129 12.173 30.2129 12.0832C30.2129 11.4392 29.6902 10.9165 29.0462 10.9165Z" fill="#1E7BD2"/>
<path d="M6.87964 9.16667H27.8796V3.33333C27.8796 2.04475 26.8349 1 25.5463 1H18.7336C17.8959 1 17.123 1.44917 16.7071 2.176L15.0463 5.08333H2.21297C0.924389 5.08333 -0.120361 6.12808 -0.120361 7.41667V24.9913C-0.120361 25.2719 0.107722 25.5 0.388889 25.5C0.625722 25.5 0.831055 25.3384 0.884722 25.1068C1.77197 21.2492 4.05864 11.3746 4.06622 11.3477C4.40456 10.0586 5.54672 9.16667 6.87964 9.16667V9.16667Z" fill="#1472C9" fill-opacity="0.6"/>
<path fill-rule="evenodd" clip-rule="evenodd" d="M11.75 24.5C11.75 24.5 11 24.5 11 23.75C11 23 11.75 20.75 15.5 20.75C19.25 20.75 20 23 20 23.75C20 24.5 19.25 24.5 19.25 24.5H11.75ZM15.5 20C16.0967 20 16.669 19.7629 17.091 19.341C17.5129 18.919 17.75 18.3467 17.75 17.75C17.75 17.1533 17.5129 16.581 17.091 16.159C16.669 15.7371 16.0967 15.5 15.5 15.5C14.9033 15.5 14.331 15.7371 13.909 16.159C13.4871 16.581 13.25 17.1533 13.25 17.75C13.25 18.3467 13.4871 18.919 13.909 19.341C14.331 19.7629 14.9033 20 15.5 20Z" fill="white"/>
<path fill-rule="evenodd" clip-rule="evenodd" d="M20.75 19.625C20.75 19.5255 20.7895 19.4302 20.8598 19.3598C20.9302 19.2895 21.0255 19.25 21.125 19.25H22.625C22.7245 19.25 22.8198 19.2895 22.8902 19.3598C22.9605 19.4302 23 19.5255 23 19.625C23 19.7245 22.9605 19.8198 22.8902 19.8902C22.8198 19.9605 22.7245 20 22.625 20H21.5V21.125C21.5 21.2245 21.4605 21.3198 21.3902 21.3902C21.3198 21.4605 21.2245 21.5 21.125 21.5C21.0255 21.5 20.9302 21.4605 20.8598 21.3902C20.7895 21.3198 20.75 21.2245 20.75 21.125V19.625Z" fill="white"/>
<path d="M21.3902 17.8598C21.3198 17.7895 21.2245 17.75 21.125 17.75C21.0255 17.75 20.9302 17.7895 20.8598 17.8598C20.7895 17.9302 20.75 18.0255 20.75 18.125V19.25H19.625C19.5255 19.25 19.4302 19.2895 19.3598 19.3598C19.2895 19.4302 19.25 19.5255 19.25 19.625C19.25 19.7245 19.2895 19.8198 19.3598 19.8902C19.4302 19.9605 19.5255 20 19.625 20H21.125C21.2245 20 21.3198 19.9605 21.3902 19.8902C21.4605 19.8198 21.5 19.7245 21.5 19.625V18.125C21.5 18.0255 21.4605 17.9302 21.3902 17.8598Z" fill="white"/>
</g>
<defs>
<clipPath id="clip0_12474_27247">
<rect width="30" height="30" fill="white" transform="translate(0.0878906 0.5)"/>
</clipPath>
</defs>
</svg>
