<svg width="33" height="33" viewBox="0 0 33 33" fill="none" xmlns="http://www.w3.org/2000/svg">
<path d="M19.8212 27.6999H18.2212L17.4212 25.0332H12.6212L11.8212 27.6999H10.2212C9.63241 27.6999 9.15454 28.1777 9.15454 28.7665C9.15454 29.3553 9.63241 29.8332 10.2212 29.8332H19.8212C20.41 29.8332 20.8879 29.3553 20.8879 28.7665C20.8879 28.1777 20.41 27.6999 19.8212 27.6999Z" fill="#1E7BD2"/>
<path opacity="0.6" d="M21.1546 9.0332C18.0618 9.0332 15.5546 11.5404 15.5546 14.6332C15.5546 17.726 18.0618 20.2332 21.1546 20.2332C24.2474 20.2332 26.7546 17.726 26.7546 14.6332C26.7546 11.5404 24.2474 9.0332 21.1546 9.0332ZM20.9002 17.4876L17.9999 14.5873L19.5082 13.0791L20.8879 14.4583L23.3338 12.0124L24.842 13.5207L20.9002 17.4876Z" fill="#1E7BD2"/>
<path opacity="0.6" d="M29.9412 20.7802L27.4015 18.2266C26.7684 19.322 25.8569 20.2335 24.7615 20.866L27.3017 23.4196C27.6393 23.7578 28.106 23.9668 28.6212 23.9668C29.6521 23.9668 30.4879 23.1311 30.4879 22.1002C30.4879 21.5844 30.2788 21.1183 29.9412 20.7802V20.7802Z" fill="#1E7BD2"/>
<path d="M21.1545 21.8332C19.4415 21.8332 17.8697 21.2326 16.6335 20.2332H4.35452V5.29984H25.6879V9.04277C26.6217 9.80117 27.3604 10.7884 27.8212 11.9196V5.29984C27.8212 4.1217 26.866 3.1665 25.6879 3.1665H4.35452C3.17639 3.1665 2.22119 4.1217 2.22119 5.29984V21.2998C2.22119 22.478 3.17639 23.4332 4.35452 23.4332H25.0521L23.1631 21.5436C22.5247 21.7286 21.8521 21.8332 21.1545 21.8332Z" fill="#1E7BD2"/>
</svg>
