<svg width="31" height="31" viewBox="0 0 31 31" fill="none" xmlns="http://www.w3.org/2000/svg">
<g clip-path="url(#clip0_12474_27161)">
<path d="M29.0461 10.9165H6.87944C6.32702 10.9165 5.86677 11.3015 5.74602 11.8172L2.24485 26.9891C2.22502 27.0731 2.21277 27.16 2.21277 27.2498C2.21277 27.8938 2.73544 28.4165 3.37944 28.4165H8.99868C14.089 28.4165 8.99868 28.4165 14.089 28.4165C19.9269 28.4165 14.089 28.4165 19.9269 28.4165H25.5461C26.0985 28.4165 26.5588 28.0315 26.6795 27.5158L30.1807 12.3439C30.2005 12.2599 30.2128 12.173 30.2128 12.0832C30.2128 11.4392 29.6901 10.9165 29.0461 10.9165Z" fill="#1E7BD2"/>
<path fill-rule="evenodd" clip-rule="evenodd" d="M11 26C11 26 10 26 10 25C10 24 11 21 16 21C21 21 22 24 22 25C22 26 21 26 21 26H11ZM16 20C16.7956 20 17.5587 19.6839 18.1213 19.1213C18.6839 18.5587 19 17.7956 19 17C19 16.2044 18.6839 15.4413 18.1213 14.8787C17.5587 14.3161 16.7956 14 16 14C15.2044 14 14.4413 14.3161 13.8787 14.8787C13.3161 15.4413 13 16.2044 13 17C13 17.7956 13.3161 18.5587 13.8787 19.1213C14.4413 19.6839 15.2044 20 16 20Z" fill="white"/>
<path d="M6.87946 9.16667H27.8795V3.33333C27.8795 2.04475 26.8347 1 25.5461 1H18.7334C17.8957 1 17.1228 1.44917 16.7069 2.176L15.0461 5.08333H2.21279C0.924205 5.08333 -0.120544 6.12808 -0.120544 7.41667V24.9913C-0.120544 25.2719 0.107539 25.5 0.388706 25.5C0.625539 25.5 0.830872 25.3384 0.884539 25.1068C1.77179 21.2492 4.05846 11.3746 4.06604 11.3477C4.40437 10.0586 5.54654 9.16667 6.87946 9.16667V9.16667Z" fill="#1472C9" fill-opacity="0.6"/>
</g>
<defs>
<clipPath id="clip0_12474_27161">
<rect width="30" height="30" fill="white" transform="translate(0.0877686 0.5)"/>
</clipPath>
</defs>
</svg>
