<svg width="32" height="33" viewBox="0 0 32 33" fill="none" xmlns="http://www.w3.org/2000/svg">
<path fill-rule="evenodd" clip-rule="evenodd" d="M19.6559 8.5H4.37989C4.10206 8.49998 3.82728 8.55785 3.57306 8.66992C3.31883 8.78198 3.09074 8.94579 2.90333 9.15088C2.71592 9.35598 2.5733 9.59788 2.48455 9.86115C2.39581 10.1244 2.36289 10.4033 2.38789 10.68L3.66189 24.68C3.7068 25.1769 3.93582 25.6391 4.30401 25.9758C4.67219 26.3126 5.15294 26.4995 5.65189 26.5H17.9999V28.5H5.65189C4.65397 28.4996 3.69223 28.1262 2.95549 27.4531C2.21874 26.78 1.7602 25.8558 1.66989 24.862L0.395892 10.862C0.310664 9.93557 0.55268 9.00855 1.07989 8.242L0.999892 6.5C0.999892 5.43913 1.42132 4.42172 2.17146 3.67157C2.92161 2.92143 3.93903 2.5 4.99989 2.5H12.3439C13.4047 2.50023 14.4219 2.9218 15.1719 3.672L16.8279 5.328C17.5779 6.0782 18.5951 6.49977 19.6559 6.5H27.6199C28.1757 6.49994 28.7255 6.61573 29.2341 6.83998C29.7427 7.06423 30.199 7.39202 30.5738 7.80244C30.9487 8.21286 31.2339 8.6969 31.4112 9.22369C31.5886 9.75047 31.6542 10.3084 31.6039 10.862L31.0919 16.5H29.0799L29.6099 10.68C29.6349 10.4035 29.602 10.1248 29.5134 9.86162C29.4248 9.59849 29.2823 9.35669 29.0951 9.15162C28.9079 8.94655 28.6801 8.78271 28.4261 8.67052C28.1721 8.55833 27.8976 8.50026 27.6199 8.5H19.6559ZM13.7559 5.086L15.1739 6.5H4.37989C3.89989 6.5 3.43989 6.584 3.01189 6.74L2.99989 6.46C3.01036 5.93653 3.22569 5.43804 3.59963 5.07157C3.97358 4.70511 4.47632 4.4999 4.99989 4.5H12.3439C12.8743 4.50011 13.3829 4.7109 13.7579 5.086H13.7559Z" fill="#EF8556"/>
<g clip-path="url(#clip0_12372_27288)">
<path fill-rule="evenodd" clip-rule="evenodd" d="M31 22.5C31 24.0913 30.3679 25.6174 29.2426 26.7426C28.1174 27.8679 26.5913 28.5 25 28.5C23.4087 28.5 21.8826 27.8679 20.7574 26.7426C19.6321 25.6174 19 24.0913 19 22.5C19 20.9087 19.6321 19.3826 20.7574 18.2574C21.8826 17.1321 23.4087 16.5 25 16.5C26.5913 16.5 28.1174 17.1321 29.2426 18.2574C30.3679 19.3826 31 20.9087 31 22.5ZM25 19.125C25 19.0255 24.9605 18.9302 24.8902 18.8598C24.8198 18.7895 24.7245 18.75 24.625 18.75C24.5255 18.75 24.4302 18.7895 24.3598 18.8598C24.2895 18.9302 24.25 19.0255 24.25 19.125V23.25C24.25 23.3161 24.2675 23.381 24.3007 23.4382C24.3339 23.4953 24.3816 23.5427 24.439 23.5755L27.064 25.0755C27.1501 25.1221 27.2511 25.1331 27.3452 25.1062C27.4394 25.0793 27.5193 25.0167 27.5679 24.9316C27.6165 24.8466 27.6299 24.746 27.6052 24.6512C27.5806 24.5564 27.5198 24.4751 27.436 24.4245L25 23.0325V19.125Z" fill="#032D60"/>
</g>
<defs>
<clipPath id="clip0_12372_27288">
<rect width="12" height="12" fill="white" transform="translate(19 16.5)"/>
</clipPath>
</defs>
</svg>
