<svg width="33" height="33" viewBox="0 0 33 33" fill="none" xmlns="http://www.w3.org/2000/svg">
<path d="M22.1405 18.6429H10.9642L9.67002 15.8118C9.3282 15.3047 8.75322 15 8.13711 15H2.84197C1.59382 15 0.707096 16.2027 1.09001 17.3788L5.42849 30.7359C5.67333 31.4889 6.38209 32 7.18106 32H26.1574C27.4658 32 28.3568 30.6874 27.8609 29.4889L23.8446 19.7745C23.5617 19.0897 22.8885 18.6429 22.1405 18.6429Z" fill="#1E7BD2"/>
<path opacity="0.6" d="M10.5855 15L15.1596 4.87268C15.523 4.06838 16.2292 3.57788 17 3.49016L16.0333 1.35028C15.9339 1.12974 15.7258 1.00002 15.5101 1.00002C15.4293 0.999402 15.3479 1.01669 15.2707 1.05439L2.34295 7.22569C2.1273 7.32885 2 7.55372 2 7.78845C2 7.87865 2.01802 7.96946 2.05696 8.05595L4.72213 13.9727H8.17959C9.08756 13.9727 9.94266 14.3489 10.5855 15Z" fill="#1E7BD2"/>
<path d="M30.1805 15H29.0181L26 21.2876L28.7533 28L31.9241 17.3281C32.2688 16.1664 31.3962 15 30.1805 15Z" fill="#1E7BD2"/>
<path opacity="0.6" d="M20.2266 17.3046L15.4043 15.1631C15.1887 15.0634 15.1654 14.7589 15.3636 14.6255L20.0195 11.8184C20.071 11.7839 20.1285 11.768 20.1835 11.768C20.3105 11.7685 20.4321 11.8516 20.4716 11.9887L21.2554 15.7033L22.7226 15.4621C22.8836 15.4357 23.0352 15.5464 23.0645 15.7106L23.4297 17.5802C24.1118 17.8631 24.6957 18.3529 25.1004 19L28.9413 10.7965C29.0862 10.4846 28.9533 10.1118 28.6467 9.96971L18.014 5.0544C17.7182 4.91721 17.3697 5.04825 17.2283 5.34907L12 16.5387L12.3377 17.3046H20.2266ZM24.2101 10.5376C24.8712 10.5376 25.4076 11.0888 25.4076 11.768C25.4076 12.4471 24.8712 12.9983 24.2101 12.9983C23.549 12.9983 23.0124 12.4471 23.0124 11.768C23.0124 11.0888 23.549 10.5376 24.2101 10.5376Z" fill="#1E7BD2"/>
</svg>
