<svg width="32" height="33" viewBox="0 0 32 33" fill="none" xmlns="http://www.w3.org/2000/svg">
<g clip-path="url(#clip0_12372_27295)">
<path d="M11 11.5C11.2652 11.5 11.5196 11.6054 11.7071 11.7929C11.8946 11.9804 12 12.2348 12 12.5V24.5C12 24.7652 11.8946 25.0196 11.7071 25.2071C11.5196 25.3946 11.2652 25.5 11 25.5C10.7348 25.5 10.4804 25.3946 10.2929 25.2071C10.1054 25.0196 10 24.7652 10 24.5V12.5C10 12.2348 10.1054 11.9804 10.2929 11.7929C10.4804 11.6054 10.7348 11.5 11 11.5ZM16 11.5C16.2652 11.5 16.5196 11.6054 16.7071 11.7929C16.8946 11.9804 17 12.2348 17 12.5V24.5C17 24.7652 16.8946 25.0196 16.7071 25.2071C16.5196 25.3946 16.2652 25.5 16 25.5C15.7348 25.5 15.4804 25.3946 15.2929 25.2071C15.1054 25.0196 15 24.7652 15 24.5V12.5C15 12.2348 15.1054 11.9804 15.2929 11.7929C15.4804 11.6054 15.7348 11.5 16 11.5ZM22 12.5C22 12.2348 21.8946 11.9804 21.7071 11.7929C21.5196 11.6054 21.2652 11.5 21 11.5C20.7348 11.5 20.4804 11.6054 20.2929 11.7929C20.1054 11.9804 20 12.2348 20 12.5V24.5C20 24.7652 20.1054 25.0196 20.2929 25.2071C20.4804 25.3946 20.7348 25.5 21 25.5C21.2652 25.5 21.5196 25.3946 21.7071 25.2071C21.8946 25.0196 22 24.7652 22 24.5V12.5Z" fill="#032D60"/>
<path fill-rule="evenodd" clip-rule="evenodd" d="M29 6.5C29 7.03043 28.7893 7.53914 28.4142 7.91421C28.0391 8.28929 27.5304 8.5 27 8.5H26V26.5C26 27.5609 25.5786 28.5783 24.8284 29.3284C24.0783 30.0786 23.0609 30.5 22 30.5H10C8.93913 30.5 7.92172 30.0786 7.17157 29.3284C6.42143 28.5783 6 27.5609 6 26.5V8.5H5C4.46957 8.5 3.96086 8.28929 3.58579 7.91421C3.21071 7.53914 3 7.03043 3 6.5V4.5C3 3.96957 3.21071 3.46086 3.58579 3.08579C3.96086 2.71071 4.46957 2.5 5 2.5H12C12 1.96957 12.2107 1.46086 12.5858 1.08579C12.9609 0.710714 13.4696 0.5 14 0.5L18 0.5C18.5304 0.5 19.0391 0.710714 19.4142 1.08579C19.7893 1.46086 20 1.96957 20 2.5H27C27.5304 2.5 28.0391 2.71071 28.4142 3.08579C28.7893 3.46086 29 3.96957 29 4.5V6.5ZM8.236 8.5L8 8.618V26.5C8 27.0304 8.21071 27.5391 8.58579 27.9142C8.96086 28.2893 9.46957 28.5 10 28.5H22C22.5304 28.5 23.0391 28.2893 23.4142 27.9142C23.7893 27.5391 24 27.0304 24 26.5V8.618L23.764 8.5H8.236ZM5 6.5V4.5H27V6.5H5Z" fill="#EF8556"/>
</g>
<defs>
<clipPath id="clip0_12372_27295">
<rect width="32" height="32" fill="white" transform="translate(0 0.5)"/>
</clipPath>
</defs>
</svg>
