<svg width="30" height="31" viewBox="0 0 30 31" fill="none" xmlns="http://www.w3.org/2000/svg">
<g clip-path="url(#clip0_12474_27263)">
<path d="M28.9571 10.6475H6.79045C6.23803 10.6475 5.77778 11.0325 5.65703 11.5481L2.15586 26.72C2.13603 26.804 2.12378 26.891 2.12378 26.9808C2.12378 27.6248 2.64645 28.1475 3.29045 28.1475H8.9097C14 28.1475 8.9097 28.1475 14 28.1475C19.8379 28.1475 14 28.1475 19.8379 28.1475H25.4571C26.0095 28.1475 26.4698 27.7625 26.5905 27.2468L30.0917 12.0749C30.1115 11.9909 30.1238 11.904 30.1238 11.8141C30.1238 11.1701 29.6011 10.6475 28.9571 10.6475Z" fill="#0A77DB"/>
<g clip-path="url(#clip1_12474_27263)">
<path fill-rule="evenodd" clip-rule="evenodd" d="M22.9994 19.731C22.9994 21.3223 22.3672 22.8484 21.242 23.9736C20.1168 25.0988 18.5907 25.731 16.9994 25.731C15.4081 25.731 13.882 25.0988 12.7567 23.9736C11.6315 22.8484 10.9994 21.3223 10.9994 19.731C10.9994 18.1397 11.6315 16.6135 12.7567 15.4883C13.882 14.3631 15.4081 13.731 16.9994 13.731C18.5907 13.731 20.1168 14.3631 21.242 15.4883C22.3672 16.6135 22.9994 18.1397 22.9994 19.731ZM16.9994 16.356C16.9994 16.2565 16.9599 16.1611 16.8896 16.0908C16.8192 16.0205 16.7238 15.981 16.6244 15.981C16.5249 15.981 16.4296 16.0205 16.3592 16.0908C16.2889 16.1611 16.2494 16.2565 16.2494 16.356V20.481C16.2494 20.5471 16.2669 20.612 16.3001 20.6691C16.3333 20.7263 16.381 20.7737 16.4384 20.8065L19.0634 22.3065C19.1495 22.353 19.2505 22.364 19.3446 22.3371C19.4388 22.3103 19.5187 22.2476 19.5673 22.1626C19.6159 22.0776 19.6293 21.9769 19.6046 21.8822C19.58 21.7874 19.5192 21.706 19.4354 21.6555L16.9994 20.2635V16.356Z" fill="white" fill-opacity="0.9"/>
</g>
<path d="M6.79047 8.89762H27.7905V3.06429C27.7905 1.77571 26.7457 0.730957 25.4571 0.730957H18.6444C17.8067 0.730957 17.0338 1.18012 16.6179 1.90696L14.9571 4.81429H2.1238C0.835216 4.81429 -0.209534 5.85904 -0.209534 7.14762V24.7223C-0.209534 25.0029 0.0185497 25.231 0.299716 25.231C0.53655 25.231 0.741883 25.0694 0.79555 24.8378C1.6828 20.9802 3.96947 11.1055 3.97705 11.0787C4.31538 9.78954 5.45755 8.89762 6.79047 8.89762Z" fill="#0A77DB" fill-opacity="0.5"/>
</g>
<defs>
<clipPath id="clip0_12474_27263">
<rect width="30" height="30" fill="white" transform="translate(-0.0012207 0.230957)"/>
</clipPath>
<clipPath id="clip1_12474_27263">
<rect width="12" height="12" fill="white" transform="translate(10.9994 13.731)"/>
</clipPath>
</defs>
</svg>
