<svg width="30" height="31" viewBox="0 0 30 31" fill="none" xmlns="http://www.w3.org/2000/svg">
<g clip-path="url(#clip0_12474_27242)">
<path d="M28.9571 10.6475H6.79045C6.23803 10.6475 5.77778 11.0325 5.65703 11.5481L2.15586 26.72C2.13603 26.804 2.12378 26.891 2.12378 26.9808C2.12378 27.6248 2.64645 28.1475 3.29045 28.1475H8.9097C14 28.1475 8.9097 28.1475 14 28.1475C19.8379 28.1475 14 28.1475 19.8379 28.1475H25.4571C26.0095 28.1475 26.4698 27.7625 26.5905 27.2468L30.0917 12.0749C30.1115 11.9909 30.1238 11.904 30.1238 11.8141C30.1238 11.1701 29.6011 10.6475 28.9571 10.6475Z" fill="#0A77DB"/>
<g clip-path="url(#clip1_12474_27242)">
<path fill-rule="evenodd" clip-rule="evenodd" d="M21.9994 19.731C21.9994 21.3223 21.3672 22.8484 20.242 23.9736C19.1168 25.0988 17.5907 25.731 15.9994 25.731C14.4081 25.731 12.882 25.0988 11.7567 23.9736C10.6315 22.8484 9.99939 21.3223 9.99939 19.731C9.99939 18.1397 10.6315 16.6135 11.7567 15.4883C12.882 14.3631 14.4081 13.731 15.9994 13.731C17.5907 13.731 19.1168 14.3631 20.242 15.4883C21.3672 16.6135 21.9994 18.1397 21.9994 19.731ZM19.0219 17.4585C18.9683 17.4051 18.9045 17.363 18.8343 17.3349C18.7641 17.3067 18.689 17.293 18.6134 17.2945C18.5378 17.2961 18.4632 17.3128 18.3943 17.3438C18.3253 17.3748 18.2632 17.4194 18.2119 17.475L15.6071 20.7937L14.0374 19.2232C13.9308 19.1238 13.7897 19.0698 13.644 19.0723C13.4983 19.0749 13.3592 19.1339 13.2562 19.237C13.1531 19.3401 13.0941 19.4791 13.0915 19.6248C13.0889 19.7705 13.143 19.9116 13.2424 20.0182L15.2269 22.0035C15.2804 22.0568 15.344 22.0989 15.4141 22.1271C15.4841 22.1553 15.5592 22.1692 15.6347 22.1678C15.7102 22.1664 15.7847 22.1498 15.8537 22.1189C15.9226 22.0881 15.9847 22.0438 16.0361 21.9885L19.0301 18.246C19.1322 18.1398 19.1886 17.9979 19.1872 17.8507C19.1858 17.7034 19.1267 17.5626 19.0226 17.4585H19.0219Z" fill="white" fill-opacity="0.9"/>
</g>
<path d="M6.79053 8.89762H27.7905V3.06429C27.7905 1.77571 26.7458 0.730957 25.4572 0.730957H18.6444C17.8068 0.730957 17.0339 1.18012 16.6179 1.90696L14.9572 4.81429H2.12386C0.835277 4.81429 -0.209473 5.85904 -0.209473 7.14762V24.7223C-0.209473 25.0029 0.0186108 25.231 0.299777 25.231C0.536611 25.231 0.741944 25.0694 0.795611 24.8378C1.68286 20.9802 3.96953 11.1055 3.97711 11.0787C4.31544 9.78954 5.45761 8.89762 6.79053 8.89762Z" fill="#0A77DB" fill-opacity="0.5"/>
</g>
<defs>
<clipPath id="clip0_12474_27242">
<rect width="30" height="30" fill="white" transform="translate(-0.0012207 0.230957)"/>
</clipPath>
<clipPath id="clip1_12474_27242">
<rect width="12" height="12" fill="white" transform="translate(9.99939 13.731)"/>
</clipPath>
</defs>
</svg>
