<svg width="31" height="31" viewBox="0 0 31 31" fill="none" xmlns="http://www.w3.org/2000/svg">
<g clip-path="url(#clip0_12474_27169)">
<path d="M29.0462 10.9165H6.87956C6.32714 10.9165 5.86689 11.3015 5.74614 11.8172L2.24497 26.9891C2.22514 27.0731 2.21289 27.16 2.21289 27.2498C2.21289 27.8938 2.73556 28.4165 3.37956 28.4165H8.99881C14.0891 28.4165 8.99881 28.4165 14.0891 28.4165C19.927 28.4165 14.0891 28.4165 19.927 28.4165H25.5462C26.0986 28.4165 26.5589 28.0315 26.6796 27.5158L30.1808 12.3439C30.2006 12.2599 30.2129 12.173 30.2129 12.0832C30.2129 11.4392 29.6902 10.9165 29.0462 10.9165Z" fill="#1E7BD2"/>
<g clip-path="url(#clip1_12474_27169)">
<path fill-rule="evenodd" clip-rule="evenodd" d="M13.2501 14.75C13.0512 14.75 12.8604 14.829 12.7198 14.9697C12.5791 15.1103 12.5001 15.3011 12.5001 15.5V18.9395C12.5002 19.1384 12.5792 19.3291 12.7199 19.4698L17.9699 24.7198C18.1105 24.8604 18.3012 24.9393 18.5001 24.9393C18.699 24.9393 18.8897 24.8604 19.0304 24.7198L22.4699 21.2803C22.6105 21.1396 22.6895 20.9489 22.6895 20.75C22.6895 20.5511 22.6105 20.3604 22.4699 20.2198L17.2199 14.9698C17.0793 14.8291 16.8885 14.75 16.6896 14.75H13.2501ZM16.2501 17.375C16.2501 17.5227 16.221 17.669 16.1645 17.8055C16.108 17.942 16.0251 18.066 15.9206 18.1705C15.8162 18.275 15.6921 18.3578 15.5556 18.4144C15.4191 18.4709 15.2729 18.5 15.1251 18.5C14.9774 18.5 14.8311 18.4709 14.6946 18.4144C14.5581 18.3578 14.4341 18.275 14.3296 18.1705C14.2252 18.066 14.1423 17.942 14.0858 17.8055C14.0292 17.669 14.0001 17.5227 14.0001 17.375C14.0001 17.0766 14.1186 16.7905 14.3296 16.5795C14.5406 16.3685 14.8268 16.25 15.1251 16.25C15.4235 16.25 15.7096 16.3685 15.9206 16.5795C16.1316 16.7905 16.2501 17.0766 16.2501 17.375V17.375Z" fill="white"/>
<path d="M11.7501 19.3145C11.7502 19.5134 11.8292 19.7041 11.9699 19.8448L17.5626 25.4375L17.5304 25.4698C17.3897 25.6104 17.199 25.6893 17.0001 25.6893C16.8012 25.6893 16.6105 25.6104 16.4699 25.4698L11.2199 20.2198C11.0792 20.0791 11.0002 19.8884 11.0001 19.6895V16.25C11.0001 16.0511 11.0791 15.8603 11.2198 15.7197C11.3604 15.579 11.5512 15.5 11.7501 15.5V19.3145Z" fill="white"/>
</g>
<path d="M6.87958 9.16667H27.8796V3.33333C27.8796 2.04475 26.8348 1 25.5462 1H18.7335C17.8958 1 17.1229 1.44917 16.707 2.176L15.0462 5.08333H2.21291C0.924328 5.08333 -0.120422 6.12808 -0.120422 7.41667V24.9913C-0.120422 25.2719 0.107661 25.5 0.388828 25.5C0.625661 25.5 0.830994 25.3384 0.884661 25.1068C1.77191 21.2492 4.05858 11.3746 4.06616 11.3477C4.40449 10.0586 5.54666 9.16667 6.87958 9.16667V9.16667Z" fill="#1472C9" fill-opacity="0.6"/>
</g>
<defs>
<clipPath id="clip0_12474_27169">
<rect width="30" height="30" fill="white" transform="translate(0.0878906 0.5)"/>
</clipPath>
<clipPath id="clip1_12474_27169">
<rect width="12" height="12" fill="white" transform="translate(11.0001 14)"/>
</clipPath>
</defs>
</svg>
