<svg width="32" height="33" viewBox="0 0 32 33" fill="none" xmlns="http://www.w3.org/2000/svg">
<path fill-rule="evenodd" clip-rule="evenodd" d="M19.6559 8.5H4.37989C4.10206 8.49998 3.82728 8.55785 3.57306 8.66992C3.31883 8.78198 3.09074 8.94579 2.90333 9.15088C2.71592 9.35598 2.5733 9.59788 2.48455 9.86115C2.39581 10.1244 2.36289 10.4033 2.38789 10.68L3.66189 24.68C3.7068 25.1769 3.93582 25.6391 4.30401 25.9758C4.67219 26.3126 5.15294 26.4995 5.65189 26.5H17.9999V28.5H5.65189C4.65397 28.4996 3.69223 28.1262 2.95549 27.4531C2.21874 26.78 1.7602 25.8558 1.66989 24.862L0.395892 10.862C0.310664 9.93557 0.55268 9.00855 1.07989 8.242L0.999892 6.5C0.999892 5.43913 1.42132 4.42172 2.17146 3.67157C2.92161 2.92143 3.93903 2.5 4.99989 2.5H12.3439C13.4047 2.50023 14.4219 2.9218 15.1719 3.672L16.8279 5.328C17.5779 6.0782 18.5951 6.49977 19.6559 6.5H27.6199C28.1757 6.49994 28.7255 6.61573 29.2341 6.83998C29.7427 7.06423 30.199 7.39202 30.5738 7.80244C30.9487 8.21286 31.2339 8.6969 31.4112 9.22369C31.5886 9.75047 31.6542 10.3084 31.6039 10.862L31.0919 16.5H29.0799L29.6099 10.68C29.6349 10.4035 29.602 10.1248 29.5134 9.86162C29.4248 9.59849 29.2823 9.35669 29.0951 9.15162C28.9079 8.94655 28.6801 8.78271 28.4261 8.67052C28.1721 8.55833 27.8976 8.50026 27.6199 8.5H19.6559ZM13.7559 5.086L15.1739 6.5H4.37989C3.89989 6.5 3.43989 6.584 3.01189 6.74L2.99989 6.46C3.01036 5.93653 3.22569 5.43804 3.59963 5.07157C3.97358 4.70511 4.47632 4.4999 4.99989 4.5H12.3439C12.8743 4.50011 13.3829 4.7109 13.7579 5.086H13.7559Z" fill="#EF8556"/>
<path fill-rule="evenodd" clip-rule="evenodd" d="M21 28.5C21 28.5 20 28.5 20 27.5C20 26.5 21 23.5 26 23.5C31 23.5 32 26.5 32 27.5C32 28.5 31 28.5 31 28.5H21ZM26 22.5C26.7956 22.5 27.5587 22.1839 28.1213 21.6213C28.6839 21.0587 29 20.2956 29 19.5C29 18.7044 28.6839 17.9413 28.1213 17.3787C27.5587 16.8161 26.7956 16.5 26 16.5C25.2044 16.5 24.4413 16.8161 23.8787 17.3787C23.3161 17.9413 23 18.7044 23 19.5C23 20.2956 23.3161 21.0587 23.8787 21.6213C24.4413 22.1839 25.2044 22.5 26 22.5Z" fill="#032D60"/>
</svg>
