<svg width="30" height="31" viewBox="0 0 30 31" fill="none" xmlns="http://www.w3.org/2000/svg">
<g clip-path="url(#clip0_12474_27161)">
<path d="M28.9571 10.6475H6.79045C6.23803 10.6475 5.77778 11.0325 5.65703 11.5481L2.15586 26.72C2.13603 26.804 2.12378 26.891 2.12378 26.9808C2.12378 27.6248 2.64645 28.1475 3.29045 28.1475H8.9097C14 28.1475 8.9097 28.1475 14 28.1475C19.8379 28.1475 14 28.1475 19.8379 28.1475H25.4571C26.0095 28.1475 26.4698 27.7625 26.5905 27.2468L30.0917 12.0749C30.1115 11.9909 30.1238 11.904 30.1238 11.8141C30.1238 11.1701 29.6011 10.6475 28.9571 10.6475Z" fill="#0A77DB"/>
<path fill-rule="evenodd" clip-rule="evenodd" d="M10.911 25.731C10.911 25.731 9.91101 25.731 9.91101 24.731C9.91101 23.731 10.911 20.731 15.911 20.731C20.911 20.731 21.911 23.731 21.911 24.731C21.911 25.731 20.911 25.731 20.911 25.731H10.911ZM15.911 19.731C16.7067 19.731 17.4697 19.4149 18.0323 18.8523C18.5949 18.2897 18.911 17.5266 18.911 16.731C18.911 15.9353 18.5949 15.1722 18.0323 14.6096C17.4697 14.047 16.7067 13.731 15.911 13.731C15.1154 13.731 14.3523 14.047 13.7897 14.6096C13.2271 15.1722 12.911 15.9353 12.911 16.731C12.911 17.5266 13.2271 18.2897 13.7897 18.8523C14.3523 19.4149 15.1154 19.731 15.911 19.731Z" fill="white" fill-opacity="0.9"/>
<path d="M6.79053 8.89762H27.7905V3.06429C27.7905 1.77571 26.7458 0.730957 25.4572 0.730957H18.6444C17.8068 0.730957 17.0339 1.18012 16.6179 1.90696L14.9572 4.81429H2.12386C0.835277 4.81429 -0.209473 5.85904 -0.209473 7.14762V24.7223C-0.209473 25.0029 0.0186108 25.231 0.299777 25.231C0.536611 25.231 0.741944 25.0694 0.795611 24.8378C1.68286 20.9802 3.96953 11.1055 3.97711 11.0787C4.31544 9.78954 5.45761 8.89762 6.79053 8.89762Z" fill="#0A77DB" fill-opacity="0.5"/>
</g>
<defs>
<clipPath id="clip0_12474_27161">
<rect width="30" height="30" fill="white" transform="translate(-0.0012207 0.230957)"/>
</clipPath>
</defs>
</svg>
