<svg width="30" height="31" viewBox="0 0 30 31" fill="none" xmlns="http://www.w3.org/2000/svg">
<g clip-path="url(#clip0_12474_27182)">
<path d="M3.09091 6.73096C2.50073 6.72987 2 7.20109 2 7.81128V19.5341C2 20.071 2.39436 20.527 2.92727 20.6079L12.9091 22.1128V25.1817C11.4271 24.8858 10.2129 24.6458 10.1818 24.6458C9.57964 24.6458 9.09091 25.496 9.09091 26.5459C9.09091 27.5958 9.59764 28.3005 10.1818 28.446C11.582 28.7945 14.5542 29.3661 16.5047 29.731C16.3013 29.2777 16.1818 28.7462 16.1818 28.1745C16.1818 27.3043 16.4556 26.5242 16.8893 25.9786C16.2205 25.844 15.3904 25.6773 14.5455 25.509V22.3598L18.7455 23.0047C18.8005 23.0129 18.8551 23.0172 18.9091 23.0172C19.5015 23.0183 20 22.54 20 21.9315V12.6966C20 12.1624 19.6095 11.7075 19.0793 11.6239L10.2489 10.2493C9.86927 10.1896 9.54909 9.93501 9.40618 9.57997L8.77345 8.00617C8.63164 7.65439 8.31582 7.40087 7.94 7.33898L3.26982 6.74616C3.20982 6.73584 3.14927 6.73096 3.09091 6.73096Z" fill="#0A77DB"/>
<path d="M7.09091 3.73096C6.50073 3.7299 6 4.19686 6 4.79346V5.95158L8.52927 6.23952C9.324 6.3309 10.0031 6.83771 10.3004 7.56074L10.7929 8.76083C10.8649 8.93561 11.0269 9.06046 11.2184 9.08861L19.9598 10.3657C21.0278 10.5219 21.8182 11.4155 21.8182 12.4674V20.5806L22.7455 20.7182C22.8005 20.7267 22.8551 20.731 22.9091 20.731C23.5015 20.732 24 20.264 24 19.6685V9.56196C24 9.03921 23.6095 8.59402 23.0793 8.51221L13.8824 7.17983C13.5033 7.1214 13.1825 6.87277 13.0396 6.5248L12.4069 4.98471C12.2656 4.64046 11.9498 4.39236 11.574 4.3318L7.26982 3.74583C7.20982 3.73574 7.14927 3.73096 7.09091 3.73096Z" fill="#0A77DB" fill-opacity="0.5"/>
<path d="M25.7733 19.7185C25.8272 19.7266 25.8805 19.731 25.9333 19.731C26.5125 19.732 27 19.2538 27 18.6452V6.70239C27 6.16822 26.6181 5.7133 26.0997 5.6297L18.1739 4.25519C17.8032 4.19547 17.4896 3.94142 17.3499 3.58584L16.7312 2.0121C16.5931 1.66033 16.2843 1.40682 15.9168 1.34493L12.2416 0.746159C12.1829 0.735845 12.1237 0.730959 12.0667 0.730959C11.4896 0.729873 11 1.20704 11 1.81667V2.6467L11.8731 2.75093C12.6501 2.8443 13.3141 3.36219 13.6048 4.10102L14.0864 5.32733C14.1568 5.50593 14.3152 5.6335 14.5024 5.66227L23.0496 6.9673C24.0939 7.12744 24.8667 8.04053 24.8667 9.11539V19.5762L25.7733 19.7185Z" fill="#0A77DB"/>
<path d="M19 29.731C19.5523 29.731 20 28.8355 20 27.731C20 26.6264 19.5523 25.731 19 25.731C18.4477 25.731 18 26.6264 18 27.731C18 28.8355 18.4477 29.731 19 29.731Z" fill="#0A77DB"/>
<path d="M6 26.731C6.55228 26.731 7 26.2832 7 25.731C7 25.1787 6.55228 24.731 6 24.731C5.44772 24.731 5 25.1787 5 25.731C5 26.2832 5.44772 26.731 6 26.731Z" fill="#0A77DB" fill-opacity="0.5"/>
<path d="M22 29.731C22.5523 29.731 23 29.2832 23 28.731C23 28.1787 22.5523 27.731 22 27.731C21.4477 27.731 21 28.1787 21 28.731C21 29.2832 21.4477 29.731 22 29.731Z" fill="#0A77DB" fill-opacity="0.5"/>
</g>
<defs>
<clipPath id="clip0_12474_27182">
<rect width="30" height="30" fill="white" transform="translate(-0.0012207 0.230957)"/>
</clipPath>
</defs>
</svg>
