<svg width="30" height="31" viewBox="0 0 30 31" fill="none" xmlns="http://www.w3.org/2000/svg">
<path d="M18.4988 25.731H16.9988L16.2488 23.231H11.7488L10.9988 25.731H9.49878C8.94678 25.731 8.49878 26.179 8.49878 26.731C8.49878 27.283 8.94678 27.731 9.49878 27.731H18.4988C19.0508 27.731 19.4988 27.283 19.4988 26.731C19.4988 26.179 19.0508 25.731 18.4988 25.731Z" fill="#0A77DB"/>
<path opacity="0.6" d="M19.7488 8.23096C16.8493 8.23096 14.4988 10.5815 14.4988 13.481C14.4988 16.3805 16.8493 18.731 19.7488 18.731C22.6483 18.731 24.9988 16.3805 24.9988 13.481C24.9988 10.5815 22.6483 8.23096 19.7488 8.23096ZM19.5103 16.157L16.7913 13.438L18.2053 12.024L19.4988 13.317L21.7918 11.024L23.2058 12.438L19.5103 16.157Z" fill="#0A77DB"/>
<path opacity="0.6" d="M27.9862 19.2436L25.6052 16.8496C25.0117 17.8766 24.1572 18.7311 23.1302 19.3241L25.5117 21.7181C25.8282 22.0351 26.2657 22.2311 26.7487 22.2311C27.7152 22.2311 28.4987 21.4476 28.4987 20.4811C28.4987 19.9976 28.3027 19.5606 27.9862 19.2436Z" fill="#0A77DB"/>
<path d="M19.7488 20.231C18.1428 20.231 16.6693 19.668 15.5103 18.731H3.99878V4.73096H23.9988V8.23996C24.8743 8.95096 25.5668 9.87646 25.9988 10.937V4.73096C25.9988 3.62646 25.1033 2.73096 23.9988 2.73096H3.99878C2.89428 2.73096 1.99878 3.62646 1.99878 4.73096V19.731C1.99878 20.8355 2.89428 21.731 3.99878 21.731H23.4028L21.6318 19.9595C21.0333 20.133 20.4028 20.231 19.7488 20.231Z" fill="#0A77DB"/>
</svg>
