<svg width="31" height="31" viewBox="0 0 31 31" fill="none" xmlns="http://www.w3.org/2000/svg">
<g clip-path="url(#clip0_12474_27263)">
<path d="M29.0461 10.9165H6.87944C6.32702 10.9165 5.86677 11.3015 5.74602 11.8172L2.24485 26.9891C2.22502 27.0731 2.21277 27.16 2.21277 27.2498C2.21277 27.8938 2.73544 28.4165 3.37944 28.4165H8.99868C14.089 28.4165 8.99868 28.4165 14.089 28.4165C19.9269 28.4165 14.089 28.4165 19.9269 28.4165H25.5461C26.0985 28.4165 26.5588 28.0315 26.6795 27.5158L30.1807 12.3439C30.2005 12.2599 30.2128 12.173 30.2128 12.0832C30.2128 11.4392 29.6901 10.9165 29.0461 10.9165Z" fill="#1E7BD2"/>
<g clip-path="url(#clip1_12474_27263)">
<path fill-rule="evenodd" clip-rule="evenodd" d="M23.0884 20C23.0884 21.5913 22.4562 23.1174 21.331 24.2426C20.2058 25.3679 18.6797 26 17.0884 26C15.4971 26 13.971 25.3679 12.8457 24.2426C11.7205 23.1174 11.0884 21.5913 11.0884 20C11.0884 18.4087 11.7205 16.8826 12.8457 15.7574C13.971 14.6321 15.4971 14 17.0884 14C18.6797 14 20.2058 14.6321 21.331 15.7574C22.4562 16.8826 23.0884 18.4087 23.0884 20V20ZM17.0884 16.625C17.0884 16.5255 17.0489 16.4302 16.9785 16.3598C16.9082 16.2895 16.8128 16.25 16.7134 16.25C16.6139 16.25 16.5185 16.2895 16.4482 16.3598C16.3779 16.4302 16.3384 16.5255 16.3384 16.625V20.75C16.3384 20.8161 16.3559 20.881 16.3891 20.9382C16.4223 20.9953 16.47 21.0427 16.5274 21.0755L19.1524 22.5755C19.2385 22.6221 19.3395 22.6331 19.4336 22.6062C19.5278 22.5793 19.6077 22.5167 19.6563 22.4316C19.7048 22.3466 19.7182 22.246 19.6936 22.1512C19.669 22.0564 19.6082 21.9751 19.5244 21.9245L17.0884 20.5325V16.625Z" fill="white"/>
</g>
<path d="M6.87946 9.16667H27.8795V3.33333C27.8795 2.04475 26.8347 1 25.5461 1H18.7334C17.8957 1 17.1228 1.44917 16.7069 2.176L15.0461 5.08333H2.21279C0.924205 5.08333 -0.120544 6.12808 -0.120544 7.41667V24.9913C-0.120544 25.2719 0.107539 25.5 0.388706 25.5C0.625539 25.5 0.830872 25.3384 0.884539 25.1068C1.77179 21.2492 4.05846 11.3746 4.06604 11.3477C4.40437 10.0586 5.54654 9.16667 6.87946 9.16667V9.16667Z" fill="#1472C9" fill-opacity="0.6"/>
</g>
<defs>
<clipPath id="clip0_12474_27263">
<rect width="30" height="30" fill="white" transform="translate(0.0877686 0.5)"/>
</clipPath>
<clipPath id="clip1_12474_27263">
<rect width="12" height="12" fill="white" transform="translate(11.0884 14)"/>
</clipPath>
</defs>
</svg>
