<svg width="31" height="31" viewBox="0 0 31 31" fill="none" xmlns="http://www.w3.org/2000/svg">
<g clip-path="url(#clip0_12474_27268)">
<path d="M29.0462 10.9165H6.87956C6.32714 10.9165 5.86689 11.3015 5.74614 11.8172L2.24497 26.9891C2.22514 27.0731 2.21289 27.16 2.21289 27.2498C2.21289 27.8938 2.73556 28.4165 3.37956 28.4165H8.99881C14.0891 28.4165 8.99881 28.4165 14.0891 28.4165C19.927 28.4165 14.0891 28.4165 19.927 28.4165H25.5462C26.0986 28.4165 26.5589 28.0315 26.6796 27.5158L30.1808 12.3439C30.2006 12.2599 30.2129 12.173 30.2129 12.0832C30.2129 11.4392 29.6902 10.9165 29.0462 10.9165Z" fill="#1E7BD2"/>
<path d="M6.87964 9.16667H27.8796V3.33333C27.8796 2.04475 26.8349 1 25.5463 1H18.7336C17.8959 1 17.123 1.44917 16.7071 2.176L15.0463 5.08333H2.21297C0.924389 5.08333 -0.120361 6.12808 -0.120361 7.41667V24.9913C-0.120361 25.2719 0.107722 25.5 0.388889 25.5C0.625722 25.5 0.831055 25.3384 0.884722 25.1068C1.77197 21.2492 4.05864 11.3746 4.06622 11.3477C4.40456 10.0586 5.54672 9.16667 6.87964 9.16667V9.16667Z" fill="#1472C9" fill-opacity="0.6"/>
<path d="M16.25 26C16.6478 26 17.0294 25.842 17.3107 25.5607C17.592 25.2794 17.75 24.8979 17.75 24.5001H14.75C14.75 24.8979 14.908 25.2794 15.1893 25.5607C15.4706 25.842 15.8522 26 16.25 26ZM16.9962 14.8249C17.0067 14.7206 16.9952 14.6153 16.9625 14.5157C16.9297 14.4161 16.8765 14.3246 16.8062 14.2468C16.7359 14.1691 16.65 14.107 16.5543 14.0645C16.4585 14.022 16.3548 14 16.25 14C16.1452 14 16.0415 14.022 15.9457 14.0645C15.85 14.107 15.7641 14.1691 15.6938 14.2468C15.6235 14.3246 15.5703 14.4161 15.5375 14.5157C15.5048 14.6153 15.4933 14.7206 15.5038 14.8249C14.656 14.9973 13.894 15.4573 13.3466 16.1272C12.7992 16.797 12.5001 17.6354 12.5 18.5004C12.5 19.3239 12.125 23.0002 11 23.7501H21.5C20.375 23.0002 20 19.3239 20 18.5004C20 16.6855 18.71 15.1706 16.9962 14.8249V14.8249Z" fill="white"/>
</g>
<defs>
<clipPath id="clip0_12474_27268">
<rect width="30" height="30" fill="white" transform="translate(0.0878906 0.5)"/>
</clipPath>
</defs>
</svg>
