<svg width="32" height="33" viewBox="0 0 32 33" fill="none" xmlns="http://www.w3.org/2000/svg">
<path fill-rule="evenodd" clip-rule="evenodd" d="M19.6559 8.5H4.37989C4.10206 8.49998 3.82728 8.55785 3.57306 8.66992C3.31883 8.78198 3.09074 8.94579 2.90333 9.15088C2.71592 9.35598 2.5733 9.59788 2.48455 9.86115C2.39581 10.1244 2.36289 10.4033 2.38789 10.68L3.66189 24.68C3.7068 25.1769 3.93582 25.6391 4.30401 25.9758C4.67219 26.3126 5.15294 26.4995 5.65189 26.5H17.9999V28.5H5.65189C4.65397 28.4996 3.69223 28.1262 2.95549 27.4531C2.21874 26.78 1.7602 25.8558 1.66989 24.862L0.395892 10.862C0.310664 9.93557 0.55268 9.00855 1.07989 8.242L0.999892 6.5C0.999892 5.43913 1.42132 4.42172 2.17146 3.67157C2.92161 2.92143 3.93903 2.5 4.99989 2.5H12.3439C13.4047 2.50023 14.4219 2.9218 15.1719 3.672L16.8279 5.328C17.5779 6.0782 18.5951 6.49977 19.6559 6.5H27.6199C28.1757 6.49994 28.7255 6.61573 29.2341 6.83998C29.7427 7.06423 30.199 7.39202 30.5738 7.80244C30.9487 8.21286 31.2339 8.6969 31.4112 9.22369C31.5886 9.75047 31.6542 10.3084 31.6039 10.862L31.0919 16.5H29.0799L29.6099 10.68C29.6349 10.4035 29.602 10.1248 29.5134 9.86162C29.4248 9.59849 29.2823 9.35669 29.0951 9.15162C28.9079 8.94655 28.6801 8.78271 28.4261 8.67052C28.1721 8.55833 27.8976 8.50026 27.6199 8.5H19.6559ZM13.7559 5.086L15.1739 6.5H4.37989C3.89989 6.5 3.43989 6.584 3.01189 6.74L2.99989 6.46C3.01036 5.93653 3.22569 5.43804 3.59963 5.07157C3.97358 4.70511 4.47632 4.4999 4.99989 4.5H12.3439C12.8743 4.50011 13.3829 4.7109 13.7579 5.086H13.7559Z" fill="#EF8556"/>
<path d="M26.25 29C26.6478 29 27.0294 28.842 27.3107 28.5607C27.592 28.2794 27.75 27.8979 27.75 27.5001H24.75C24.75 27.8979 24.908 28.2794 25.1893 28.5607C25.4706 28.842 25.8522 29 26.25 29ZM26.9963 17.8249C27.0067 17.7206 26.9952 17.6153 26.9625 17.5157C26.9297 17.4161 26.8765 17.3246 26.8062 17.2468C26.7359 17.1691 26.65 17.107 26.5543 17.0645C26.4585 17.022 26.3548 17 26.25 17C26.1452 17 26.0415 17.022 25.9457 17.0645C25.85 17.107 25.7641 17.1691 25.6938 17.2468C25.6235 17.3246 25.5703 17.4161 25.5375 17.5157C25.5048 17.6153 25.4933 17.7206 25.5037 17.8249C24.656 17.9973 23.894 18.4573 23.3466 19.1272C22.7992 19.797 22.5001 20.6354 22.5 21.5004C22.5 22.3239 22.125 26.0002 21 26.7501H31.5C30.375 26.0002 30 22.3239 30 21.5004C30 19.6855 28.71 18.1706 26.9963 17.8249Z" fill="#032D60"/>
</svg>
