<svg width="32" height="33" viewBox="0 0 32 33" fill="none" xmlns="http://www.w3.org/2000/svg">
<path d="M6.85518 21.0708H2.28384C1.0215 21.0708 -0.00183105 22.0941 -0.00183105 23.3565V30.2135C-0.00183105 31.4758 1.0215 32.4992 2.28384 32.4992H6.85518C8.11753 32.4992 9.14086 31.4758 9.14086 30.2135V23.3565C9.14086 22.0941 8.11753 21.0708 6.85518 21.0708Z" fill="#1E7BD2"/>
<path d="M18.2837 11.9287H13.7123C12.45 11.9287 11.4267 12.952 11.4267 14.2144V30.2141C11.4267 31.4764 12.45 32.4998 13.7123 32.4998H18.2837C19.546 32.4998 20.5693 31.4764 20.5693 30.2141V14.2144C20.5693 12.952 19.546 11.9287 18.2837 11.9287Z" fill="#1472C9" fill-opacity="0.6"/>
<path d="M29.7119 0.5H25.1405C23.8782 0.5 22.8549 1.52333 22.8549 2.78567V30.2137C22.8549 31.4761 23.8782 32.4994 25.1405 32.4994H29.7119C30.9742 32.4994 31.9976 31.4761 31.9976 30.2137V2.78567C31.9976 1.52333 30.9742 0.5 29.7119 0.5Z" fill="#1E7BD2"/>
</svg>
