<svg width="30" height="31" viewBox="0 0 30 31" fill="none" xmlns="http://www.w3.org/2000/svg">
<path d="M6.42778 19.5161H2.14211C0.958649 19.5161 -0.000732422 20.4755 -0.000732422 21.659V28.0875C-0.000732422 29.2709 0.958649 30.2303 2.14211 30.2303H6.42778C7.61124 30.2303 8.57062 29.2709 8.57062 28.0875V21.659C8.57062 20.4755 7.61124 19.5161 6.42778 19.5161Z" fill="#0A77DB"/>
<path d="M17.1421 10.9453H12.8564C11.6729 10.9453 10.7136 11.9047 10.7136 13.0882V28.088C10.7136 29.2715 11.6729 30.2309 12.8564 30.2309H17.1421C18.3255 30.2309 19.2849 29.2715 19.2849 28.088V13.0882C19.2849 11.9047 18.3255 10.9453 17.1421 10.9453Z" fill="#0A77DB" fill-opacity="0.5"/>
<path d="M27.8562 0.230957H23.5705C22.387 0.230957 21.4276 1.19034 21.4276 2.3738V28.0879C21.4276 29.2713 22.387 30.2307 23.5705 30.2307H27.8562C29.0396 30.2307 29.999 29.2713 29.999 28.0879V2.3738C29.999 1.19034 29.0396 0.230957 27.8562 0.230957Z" fill="#0A77DB"/>
</svg>
