<svg width="30" height="31" viewBox="0 0 30 31" fill="none" xmlns="http://www.w3.org/2000/svg">
<g clip-path="url(#clip0_12470_26823)">
<path opacity="0.6" d="M10.898 0.699707H19.1012C19.4246 0.699707 19.6871 0.979082 19.6871 1.32471V3.82471C19.6871 4.17033 19.4246 4.44971 19.1012 4.44971H10.898C10.5746 4.44971 10.3121 4.17033 10.3121 3.82471V1.32471C10.3121 0.979082 10.5746 0.699707 10.898 0.699707Z" fill="#0A77DB"/>
<path d="M26.0264 3.51221H20.8032C20.8032 4.47704 20.022 5.26221 19.0621 5.26221H10.9371C9.97719 5.26221 9.19603 4.47704 9.19603 3.51221H3.97282C3.3321 3.51221 2.8121 4.03487 2.8121 4.67887V28.5955C2.8121 29.2395 3.3321 29.7622 3.97282 29.7622H26.0264C26.6671 29.7622 27.1871 29.2395 27.1871 28.5955V4.67887C27.1871 4.03487 26.6671 3.51221 26.0264 3.51221ZM24.2853 26.8455H5.71389V7.01221H24.2853V26.8455Z" fill="#0A77DB"/>
<path d="M8.90585 12.8872C10.2003 12.8872 11.2496 11.8379 11.2496 10.5435C11.2496 9.24904 10.2003 8.19971 8.90585 8.19971C7.61144 8.19971 6.5621 9.24904 6.5621 10.5435C6.5621 11.8379 7.61144 12.8872 8.90585 12.8872Z" fill="#0A77DB"/>
<path d="M8.90585 25.0747C10.2003 25.0747 11.2496 24.0254 11.2496 22.731C11.2496 21.4365 10.2003 20.3872 8.90585 20.3872C7.61144 20.3872 6.5621 21.4365 6.5621 22.731C6.5621 24.0254 7.61144 25.0747 8.90585 25.0747Z" fill="#0A77DB"/>
<path d="M8.90585 18.5122C10.2003 18.5122 11.2496 17.6727 11.2496 16.6372C11.2496 15.6017 10.2003 14.7622 8.90585 14.7622C7.61144 14.7622 6.5621 15.6017 6.5621 16.6372C6.5621 17.6727 7.61144 18.5122 8.90585 18.5122Z" fill="#0A77DB"/>
<path opacity="0.6" d="M21.526 9.13721C22.0634 9.13721 22.4996 9.76721 22.4996 10.5435C22.4996 11.3197 22.0634 11.9497 21.526 11.9497H15.0357C14.4976 11.9497 14.0621 11.3197 14.0621 10.5435C14.0621 9.76721 14.4976 9.13721 15.0357 9.13721H21.526Z" fill="#0A77DB"/>
<path opacity="0.6" d="M21.526 15.6997C22.0634 15.6997 22.4996 16.1197 22.4996 16.6372C22.4996 17.1547 22.0634 17.5747 21.526 17.5747H15.0357C14.4976 17.5747 14.0621 17.1547 14.0621 16.6372C14.0621 16.1197 14.4976 15.6997 15.0357 15.6997H21.526Z" fill="#0A77DB"/>
<path opacity="0.6" d="M21.526 21.3247C22.0634 21.3247 22.4996 21.9547 22.4996 22.731C22.4996 23.5072 22.0634 24.1372 21.526 24.1372H15.0357C14.4976 24.1372 14.0621 23.5072 14.0621 22.731C14.0621 21.9547 14.4976 21.3247 15.0357 21.3247H21.526Z" fill="#0A77DB"/>
</g>
<defs>
<clipPath id="clip0_12470_26823">
<rect width="30" height="30" fill="white" transform="translate(-0.000976562 0.230957)"/>
</clipPath>
</defs>
</svg>
