<svg width="32" height="33" viewBox="0 0 32 33" fill="none" xmlns="http://www.w3.org/2000/svg">
<path opacity="0.6" d="M11.6232 1H20.3732C20.7182 1 20.9982 1.298 20.9982 1.66667V4.33333C20.9982 4.702 20.7182 5 20.3732 5H11.6232C11.2782 5 10.9982 4.702 10.9982 4.33333V1.66667C10.9982 1.298 11.2782 1 11.6232 1Z" fill="#1E7BD2"/>
<path d="M27.7601 4H22.1886C22.1886 5.02916 21.3554 5.86667 20.3315 5.86667H11.6648C10.6409 5.86667 9.80769 5.02916 9.80769 4H4.23626C3.55284 4 2.99817 4.55751 2.99817 5.24444V30.7556C2.99817 31.4425 3.55284 32 4.23626 32H27.7601C28.4435 32 28.9982 31.4425 28.9982 30.7556V5.24444C28.9982 4.55751 28.4435 4 27.7601 4ZM25.9029 28.8889H6.09341V7.73333H25.9029V28.8889Z" fill="#1E7BD2"/>
<path d="M9.49817 14C10.8789 14 11.9982 12.8807 11.9982 11.5C11.9982 10.1193 10.8789 9 9.49817 9C8.11746 9 6.99817 10.1193 6.99817 11.5C6.99817 12.8807 8.11746 14 9.49817 14Z" fill="#1E7BD2"/>
<path d="M9.49817 27C10.8789 27 11.9982 25.8807 11.9982 24.5C11.9982 23.1193 10.8789 22 9.49817 22C8.11746 22 6.99817 23.1193 6.99817 24.5C6.99817 25.8807 8.11746 27 9.49817 27Z" fill="#1E7BD2"/>
<path d="M9.49817 20C10.8789 20 11.9982 19.1046 11.9982 18C11.9982 16.8954 10.8789 16 9.49817 16C8.11746 16 6.99817 16.8954 6.99817 18C6.99817 19.1046 8.11746 20 9.49817 20Z" fill="#1E7BD2"/>
<path opacity="0.6" d="M22.9597 10C23.5329 10 23.9982 10.672 23.9982 11.5C23.9982 12.328 23.5329 13 22.9597 13H16.0366C15.4627 13 14.9982 12.328 14.9982 11.5C14.9982 10.672 15.4627 10 16.0366 10H22.9597Z" fill="#1E7BD2"/>
<path opacity="0.6" d="M22.9597 17C23.5329 17 23.9982 17.448 23.9982 18C23.9982 18.552 23.5329 19 22.9597 19H16.0366C15.4627 19 14.9982 18.552 14.9982 18C14.9982 17.448 15.4627 17 16.0366 17H22.9597Z" fill="#1E7BD2"/>
<path opacity="0.6" d="M22.9597 23C23.5329 23 23.9982 23.672 23.9982 24.5C23.9982 25.328 23.5329 26 22.9597 26H16.0366C15.4627 26 14.9982 25.328 14.9982 24.5C14.9982 23.672 15.4627 23 16.0366 23H22.9597Z" fill="#1E7BD2"/>
</svg>
