<svg width="32" height="33" viewBox="0 0 32 33" fill="none" xmlns="http://www.w3.org/2000/svg">
<path d="M29.6405 19.9847L27.1284 18.5464C27.382 17.1899 27.382 15.7984 27.1284 14.4419L29.6405 13.0036C29.9295 12.8399 30.0592 12.5008 29.9649 12.1851C29.3103 10.1037 28.1958 8.221 26.7392 6.65407C26.5151 6.41435 26.1495 6.35589 25.8665 6.51959L23.3544 7.9579C22.2988 7.0575 21.084 6.36173 19.769 5.90569V3.03493C19.769 2.70751 19.539 2.42102 19.2147 2.35086C17.0505 1.87143 14.8333 1.89481 12.7752 2.35086C12.4509 2.42102 12.2209 2.70751 12.2209 3.03493V5.91153C10.9118 6.37343 9.69701 7.06919 8.63556 7.96374L6.12935 6.52544C5.8404 6.36173 5.48069 6.41435 5.2566 6.65992C3.80005 8.221 2.68553 10.1037 2.03096 12.1909C1.93071 12.5067 2.06634 12.8458 2.3553 13.0095L4.8674 14.4478C4.61383 15.8042 4.61383 17.1958 4.8674 18.5522L2.3553 19.9905C2.06634 20.1542 1.93661 20.4933 2.03096 20.8091C2.68553 22.8905 3.80005 24.7732 5.2566 26.3401C5.48069 26.5798 5.8463 26.6383 6.12935 26.4746L8.64146 25.0363C9.69701 25.9367 10.9118 26.6324 12.2268 27.0885V29.9651C12.2268 30.2925 12.4568 30.579 12.7811 30.6491C14.9453 31.1286 17.1626 31.1052 19.2206 30.6491C19.5449 30.579 19.7749 30.2925 19.7749 29.9651V27.0885C21.084 26.6266 22.2988 25.9308 23.3603 25.0363L25.8724 26.4746C26.1613 26.6383 26.521 26.5856 26.7451 26.3401C28.2017 24.779 29.3162 22.8963 29.9708 20.8091C30.0592 20.4875 29.9295 20.1484 29.6405 19.9847ZM15.995 21.1716C13.3944 21.1716 11.2774 19.0726 11.2774 16.4942C11.2774 13.9157 13.3944 11.8168 15.995 11.8168C18.5955 11.8168 20.7125 13.9157 20.7125 16.4942C20.7125 19.0726 18.5955 21.1716 15.995 21.1716Z" fill="#1E7BD2"/>
</svg>
