<svg width="30" height="31" viewBox="0 0 30 31" fill="none" xmlns="http://www.w3.org/2000/svg">
<path d="M27.7893 18.4978L25.4342 17.1494C25.6719 15.8778 25.6719 14.5732 25.4342 13.3015L27.7893 11.9531C28.0602 11.7996 28.1818 11.4817 28.0934 11.1857C27.4797 9.23438 26.4349 7.46939 25.0693 6.0004C24.8593 5.77566 24.5165 5.72085 24.2511 5.87433L21.896 7.22273C20.9065 6.37861 19.7676 5.72633 18.5348 5.29879V2.60745C18.5348 2.3005 18.3192 2.03191 18.0151 1.96614C15.9862 1.51667 13.9075 1.53859 11.9781 1.96614C11.674 2.03191 11.4584 2.3005 11.4584 2.60745V5.30427C10.2311 5.73729 9.09227 6.38957 8.09716 7.22822L5.74759 5.87981C5.47669 5.72633 5.13946 5.77566 4.92938 6.00588C3.56387 7.46939 2.519 9.23438 1.90535 11.1912C1.81136 11.4872 1.93852 11.8051 2.20941 11.9586L4.56451 13.307C4.32679 14.5787 4.32679 15.8832 4.56451 17.1549L2.20941 18.5033C1.93852 18.6568 1.81689 18.9747 1.90535 19.2707C2.519 21.2221 3.56387 22.987 4.92938 24.456C5.13946 24.6808 5.48222 24.7356 5.74759 24.5821L8.10268 23.2337C9.09227 24.0778 10.2311 24.7301 11.464 25.1576V27.8545C11.464 28.1614 11.6796 28.43 11.9836 28.4958C14.0125 28.9452 16.0912 28.9233 18.0206 28.4958C18.3247 28.43 18.5403 28.1614 18.5403 27.8545V25.1576C19.7676 24.7246 20.9065 24.0723 21.9016 23.2337L24.2567 24.5821C24.5276 24.7356 24.8648 24.6863 25.0749 24.456C26.4404 22.9925 27.4853 21.2275 28.0989 19.2707C28.1818 18.9692 28.0602 18.6513 27.7893 18.4978ZM14.9966 19.6105C12.5586 19.6105 10.5739 17.6427 10.5739 15.2255C10.5739 12.8082 12.5586 10.8404 14.9966 10.8404C17.4346 10.8404 19.4193 12.8082 19.4193 15.2255C19.4193 17.6427 17.4346 19.6105 14.9966 19.6105Z" fill="#0A77DB"/>
</svg>
