<svg width="30" height="31" viewBox="0 0 30 31" fill="none" xmlns="http://www.w3.org/2000/svg">
<path d="M26.4545 5.47619H23.9091V3H21.3636V9.19048H18.8182V5.47619H11.1818V3H8.63636V9.19048H6.09091V5.47619H3.54546C2.14164 5.47619 1 6.588 1 7.95238V26.5238C1 27.8895 2.14164 29 3.54546 29H26.4545C27.8584 29 29 27.8895 29 26.5238V7.95238C29 6.588 27.8584 5.47619 26.4545 5.47619ZM9.90914 25.2857H4.81818V20.3333H9.90914V25.2857ZM9.90914 17.8572H4.81818V12.9048H9.90914V17.8572ZM17.5454 25.2857H12.4545V20.3333H17.5454V25.2857ZM17.5454 17.8572H12.4545V12.9048H17.5454V17.8572ZM25.1819 17.8572H20.0909V12.9048H25.1819V17.8572Z" fill="#1E7BD2"/>
</svg>
