<svg width="30" height="31" viewBox="0 0 30 31" fill="none" xmlns="http://www.w3.org/2000/svg">
<g clip-path="url(#clip0_12470_26882)">
<path d="M21.7995 27.2695C23.5196 27.2695 24.914 25.9103 24.914 24.2336C24.914 22.557 23.5196 21.1978 21.7995 21.1978C20.0795 21.1978 18.6851 22.557 18.6851 24.2336C18.6851 25.9103 20.0795 27.2695 21.7995 27.2695Z" fill="#1472C9" fill-opacity="0.6"/>
<path d="M7.78387 27.2695C9.50393 27.2695 10.8984 25.9103 10.8984 24.2336C10.8984 22.557 9.50393 21.1978 7.78387 21.1978C6.06381 21.1978 4.66943 22.557 4.66943 24.2336C4.66943 25.9103 6.06381 27.2695 7.78387 27.2695Z" fill="#1472C9" fill-opacity="0.6"/>
<path d="M26.4112 9.4105C24.4569 6.43233 21.0466 4.5 17.2283 4.5C17.2111 4.5 17.1955 4.50304 17.1784 4.50304C17.1613 4.50304 17.1442 4.5 17.127 4.5C10.8654 4.5 5.69699 9.00977 4.81716 14.8751L4.66922 15.1255H3.112C1.39283 15.1255 -0.00244141 16.4856 -0.00244141 18.1614V22.7152C-0.00244141 23.5531 0.695194 24.2331 1.55478 24.2331H3.112C3.112 21.7194 5.20491 19.6793 7.78367 19.6793C10.3625 19.6793 12.4554 21.7194 12.4554 24.2331H17.127C17.127 21.7194 19.2199 19.6793 21.7987 19.6793C24.3775 19.6793 26.4704 21.7194 26.4704 24.2331H28.0276C28.8872 24.2331 29.5848 23.5531 29.5848 22.7152V18.1614C29.5832 15.0572 28.378 11.9075 26.4112 9.4105ZM7.92226 15.1255C8.66661 10.8191 12.4974 7.53586 17.1255 7.53586C21.7535 7.53586 25.5859 10.8191 26.3287 15.1255H7.92226Z" fill="#1E7BD2"/>
</g>
<defs>
<clipPath id="clip0_12470_26882">
<rect width="30" height="30" fill="white" transform="translate(-0.00244141 0.5)"/>
</clipPath>
</defs>
</svg>
