<svg width="31" height="31" viewBox="0 0 31 31" fill="none" xmlns="http://www.w3.org/2000/svg">
<g clip-path="url(#clip0_12470_26928)">
<path d="M26.7652 13.1392H3.84603C2.58089 13.1392 1.55411 14.1659 1.55411 15.4311V28.0366C1.55411 29.3018 2.58089 30.3286 3.84603 30.3286H26.7652C28.0304 30.3286 29.0571 29.3018 29.0571 28.0366V15.4311C29.0571 14.1659 28.0304 13.1392 26.7652 13.1392ZM15.3056 25.7447H4.99199V23.4528H15.3056V25.7447ZM15.3056 21.1609H4.99199V18.869H15.3056V21.1609ZM25.6193 20.0149H21.0354V15.4311H25.6193V20.0149Z" fill="#1E7BD2"/>
<path d="M21.6419 7.62154L15.8473 1.73779L10.0527 7.62154L11.7935 9.38904L14.6163 6.52279V12.2553H17.0784V6.52279L19.9012 9.38904L21.6419 7.62154Z" fill="#1472C9" fill-opacity="0.6"/>
</g>
<defs>
<clipPath id="clip0_12470_26928">
<rect width="29.5455" height="30" fill="white" transform="translate(0.542969 0.5)"/>
</clipPath>
</defs>
</svg>
