<svg width="30" height="31" viewBox="0 0 30 31" fill="none" xmlns="http://www.w3.org/2000/svg">
<g clip-path="url(#clip0_12470_26903)">
<path d="M19.1156 4.17939L16.2493 7.08974V1.26904H13.7493V7.08974L10.8831 4.17939L9.11557 5.97408L14.9993 11.9483L20.8831 5.97408L19.1156 4.17939Z" fill="#0A77DB" fill-opacity="0.5"/>
<path d="M26.6247 12.8335H3.35291C2.0683 12.8335 1.02573 13.8761 1.02573 15.1607V27.9602C1.02573 29.2448 2.0683 30.2873 3.35291 30.2873H26.6247C27.9093 30.2873 28.9519 29.2448 28.9519 27.9602V15.1607C28.9519 13.8761 27.9093 12.8335 26.6247 12.8335ZM14.9888 25.633H4.5165V23.3058H14.9888V25.633ZM14.9888 20.9786H4.5165V18.6514H14.9888V20.9786ZM25.4611 19.815H20.8068V15.1607H25.4611V19.815Z" fill="#0A77DB"/>
</g>
<defs>
<clipPath id="clip0_12470_26903">
<rect width="30" height="30.4615" fill="white" transform="translate(-0.000976562)"/>
</clipPath>
</defs>
</svg>
