<svg width="30" height="31" viewBox="0 0 30 31" fill="none" xmlns="http://www.w3.org/2000/svg">
<g clip-path="url(#clip0_12470_26928)">
<path d="M26.6247 12.834H3.35288C2.06827 12.834 1.0257 13.8766 1.0257 15.1612V27.9607C1.0257 29.2453 2.06827 30.2878 3.35288 30.2878H26.6247C27.9093 30.2878 28.9519 29.2453 28.9519 27.9607V15.1612C28.9519 13.8766 27.9093 12.834 26.6247 12.834ZM14.9888 25.6335H4.51647V23.3063H14.9888V25.6335ZM14.9888 20.9791H4.51647V18.6519H14.9888V20.9791ZM25.4611 19.8155H20.8067V15.1612H25.4611V19.8155Z" fill="#0A77DB"/>
<path d="M21.4226 7.2311L15.5388 1.25684L9.65509 7.2311L11.4226 9.0258L14.2888 6.11545V11.9361H16.7888V6.11545L19.6551 9.0258L21.4226 7.2311Z" fill="#0A77DB" fill-opacity="0.5"/>
</g>
<defs>
<clipPath id="clip0_12470_26928">
<rect width="30" height="30.4615" fill="white" transform="translate(-0.000976562)"/>
</clipPath>
</defs>
</svg>
