<svg width="30" height="31" viewBox="0 0 30 31" fill="none" xmlns="http://www.w3.org/2000/svg">
<g clip-path="url(#clip0_12470_26903)">
<path d="M18.8245 4.61625L16.0016 7.4825V1.75H13.5395V7.4825L10.7167 4.61625L8.97598 6.38375L14.7706 12.2675L20.5652 6.38375L18.8245 4.61625Z" fill="#1472C9" fill-opacity="0.6"/>
<path d="M26.2198 13.1392H3.30062C2.03548 13.1392 1.0087 14.1659 1.0087 15.4311V28.0366C1.0087 29.3018 2.03548 30.3286 3.30062 30.3286H26.2198C27.485 30.3286 28.5117 29.3018 28.5117 28.0366V15.4311C28.5117 14.1659 27.485 13.1392 26.2198 13.1392ZM14.7602 25.7447H4.44658V23.4528H14.7602V25.7447ZM14.7602 21.1609H4.44658V18.869H14.7602V21.1609ZM25.0739 20.0149H20.49V15.4311H25.0739V20.0149Z" fill="#1E7BD2"/>
</g>
<defs>
<clipPath id="clip0_12470_26903">
<rect width="29.5455" height="30" fill="white" transform="translate(-0.00244141 0.5)"/>
</clipPath>
</defs>
</svg>
