<svg width="33" height="33" viewBox="0 0 33 33" fill="none" xmlns="http://www.w3.org/2000/svg">
<path fill-rule="evenodd" clip-rule="evenodd" d="M25.3744 30.5C28.0464 30.5 30.0884 28.19 30.0884 25.5V10.5H2.08838V25.5C2.08838 28.19 4.13038 30.5 6.80238 30.5H25.3744ZM12.0884 14.5C11.8232 14.5 11.5688 14.6054 11.3813 14.7929C11.1937 14.9804 11.0884 15.2348 11.0884 15.5C11.0884 15.7652 11.1937 16.0196 11.3813 16.2071C11.5688 16.3946 11.8232 16.5 12.0884 16.5H20.0884C20.3536 16.5 20.608 16.3946 20.7955 16.2071C20.983 16.0196 21.0884 15.7652 21.0884 15.5C21.0884 15.2348 20.983 14.9804 20.7955 14.7929C20.608 14.6054 20.3536 14.5 20.0884 14.5H12.0884Z" fill="#1E7BD2"/>
<path d="M0.557008 2.96863C0.857066 2.66857 1.26403 2.5 1.68838 2.5H30.4884C30.9127 2.5 31.3197 2.66857 31.6197 2.96863C31.9198 3.26869 32.0884 3.67565 32.0884 4.1V6.5C32.0884 6.92435 31.9198 7.33131 31.6197 7.63137C31.3197 7.93143 30.9127 8.1 30.4884 8.1H1.68838C1.26403 8.1 0.857066 7.93143 0.557008 7.63137C0.25695 7.33131 0.0883789 6.92435 0.0883789 6.5V4.1C0.0883789 3.67565 0.25695 3.26869 0.557008 2.96863Z" fill="#1472C9" fill-opacity="0.6"/>
</svg>
