<svg width="31" height="31" viewBox="0 0 31 31" fill="none" xmlns="http://www.w3.org/2000/svg">
<g clip-path="url(#clip0_12473_26965)">
<path d="M29.0467 10.9165H6.88005C6.32763 10.9165 5.86738 11.3015 5.74663 11.8172L2.24546 26.9891C2.22563 27.0731 2.21338 27.16 2.21338 27.2498C2.21338 27.8938 2.73605 28.4165 3.38005 28.4165H8.9993C14.0896 28.4165 8.9993 28.4165 14.0896 28.4165C19.9275 28.4165 14.0896 28.4165 19.9275 28.4165H25.5467C26.0991 28.4165 26.5594 28.0315 26.6801 27.5158L30.1813 12.3439C30.2011 12.2599 30.2134 12.173 30.2134 12.0832C30.2134 11.4392 29.6907 10.9165 29.0467 10.9165Z" fill="#1E7BD2"/>
<path d="M13.2381 26.0002L14.4762 24.1431H12L13.2381 26.0002Z" fill="white"/>
<path d="M14.4762 17.3335H12V23.524H14.4762V17.3335Z" fill="white"/>
<path d="M13.2381 14.8569C12.5547 14.8569 12 15.4537 12 16.1904V16.7141H14.4762V16.1904C14.4762 15.4537 13.9215 14.8569 13.2381 14.8569Z" fill="white"/>
<path d="M16.3334 13V14.2381H18.1905V15.4762H16.3334V17.3333H18.1905V18.5714H16.3334V20.4285H18.1905V21.6666H16.3334V23.5238H18.1905V24.7619H16.3334V26H21.2857V13H16.3334Z" fill="white"/>
<path d="M6.88007 9.16667H27.8801V3.33333C27.8801 2.04475 26.8353 1 25.5467 1H18.734C17.8963 1 17.1234 1.44917 16.7075 2.176L15.0467 5.08333H2.2134C0.924816 5.08333 -0.119934 6.12808 -0.119934 7.41667V24.9913C-0.119934 25.2719 0.108149 25.5 0.389316 25.5C0.626149 25.5 0.831483 25.3384 0.885149 25.1068C1.7724 21.2492 4.05907 11.3746 4.06665 11.3477C4.40498 10.0586 5.54715 9.16667 6.88007 9.16667V9.16667Z" fill="#1472C9" fill-opacity="0.6"/>
</g>
<defs>
<clipPath id="clip0_12473_26965">
<rect width="30" height="30" fill="white" transform="translate(0.0883789 0.5)"/>
</clipPath>
</defs>
</svg>
