<svg width="31" height="31" viewBox="0 0 31 31" fill="none" xmlns="http://www.w3.org/2000/svg">
<g clip-path="url(#clip0_12473_26949)">
<path d="M29.0467 10.9165H6.88005C6.32763 10.9165 5.86738 11.3015 5.74663 11.8172L2.24546 26.9891C2.22563 27.0731 2.21338 27.16 2.21338 27.2498C2.21338 27.8938 2.73605 28.4165 3.38005 28.4165H8.9993C14.0896 28.4165 8.9993 28.4165 14.0896 28.4165C19.9275 28.4165 14.0896 28.4165 19.9275 28.4165H25.5467C26.0991 28.4165 26.5594 28.0315 26.6801 27.5158L30.1813 12.3439C30.2011 12.2599 30.2134 12.173 30.2134 12.0832C30.2134 11.4392 29.6907 10.9165 29.0467 10.9165Z" fill="#1E7BD2"/>
<path d="M21.8182 15.1429H20.6364V14H19.4545V16.8571H18.2727V15.1429H14.7273V14H13.5455V16.8571H12.3636V15.1429H11.1818C10.53 15.1429 10 15.656 10 16.2857V24.8571C10 25.4874 10.53 26 11.1818 26H21.8182C22.47 26 23 25.4874 23 24.8571V16.2857C23 15.656 22.47 15.1429 21.8182 15.1429ZM14.1364 24.2857H11.7727V22H14.1364V24.2857ZM14.1364 20.8572H11.7727V18.5714H14.1364V20.8572ZM17.6818 24.2857H15.3182V22H17.6818V24.2857ZM17.6818 20.8572H15.3182V18.5714H17.6818V20.8572ZM21.2273 20.8572H18.8637V18.5714H21.2273V20.8572Z" fill="white"/>
<path d="M6.88007 9.16667H27.8801V3.33333C27.8801 2.04475 26.8353 1 25.5467 1H18.734C17.8963 1 17.1234 1.44917 16.7075 2.176L15.0467 5.08333H2.2134C0.924816 5.08333 -0.119934 6.12808 -0.119934 7.41667V24.9913C-0.119934 25.2719 0.108149 25.5 0.389316 25.5C0.626149 25.5 0.831483 25.3384 0.885149 25.1068C1.7724 21.2492 4.05907 11.3746 4.06665 11.3477C4.40498 10.0586 5.54715 9.16667 6.88007 9.16667V9.16667Z" fill="#1472C9" fill-opacity="0.6"/>
</g>
<defs>
<clipPath id="clip0_12473_26949">
<rect width="30" height="30" fill="white" transform="translate(0.0883789 0.5)"/>
</clipPath>
</defs>
</svg>
