<svg width="31" height="31" viewBox="0 0 31 31" fill="none" xmlns="http://www.w3.org/2000/svg">
<g clip-path="url(#clip0_12473_26953)">
<path d="M29.0467 10.9165H6.88005C6.32763 10.9165 5.86738 11.3015 5.74663 11.8172L2.24546 26.9891C2.22563 27.0731 2.21338 27.16 2.21338 27.2498C2.21338 27.8938 2.73605 28.4165 3.38005 28.4165H8.9993C14.0896 28.4165 8.9993 28.4165 14.0896 28.4165C19.9275 28.4165 14.0896 28.4165 19.9275 28.4165H25.5467C26.0991 28.4165 26.5594 28.0315 26.6801 27.5158L30.1813 12.3439C30.2011 12.2599 30.2134 12.173 30.2134 12.0832C30.2134 11.4392 29.6907 10.9165 29.0467 10.9165Z" fill="#1E7BD2"/>
<path d="M19.4475 24.6003C20.1929 24.6003 20.7971 24.0113 20.7971 23.2848C20.7971 22.5582 20.1929 21.9692 19.4475 21.9692C18.7021 21.9692 18.0979 22.5582 18.0979 23.2848C18.0979 24.0113 18.7021 24.6003 19.4475 24.6003Z" fill="white"/>
<path d="M13.3741 24.6003C14.1194 24.6003 14.7237 24.0113 14.7237 23.2848C14.7237 22.5582 14.1194 21.9692 13.3741 21.9692C12.6287 21.9692 12.0245 22.5582 12.0245 23.2848C12.0245 24.0113 12.6287 24.6003 13.3741 24.6003Z" fill="white"/>
<path d="M21.4459 16.8613C20.599 15.5707 19.1212 14.7334 17.4666 14.7334C17.4592 14.7334 17.4524 14.7347 17.445 14.7347C17.4376 14.7347 17.4302 14.7334 17.4227 14.7334C14.7094 14.7334 12.4698 16.6876 12.0885 19.2293L12.0244 19.3378H11.3496C10.6046 19.3378 10 19.9272 10 20.6533V22.6267C10 22.9897 10.3023 23.2844 10.6748 23.2844H11.3496C11.3496 22.1951 12.2565 21.3111 13.374 21.3111C14.4915 21.3111 15.3984 22.1951 15.3984 23.2844H17.4227C17.4227 22.1951 18.3297 21.3111 19.4471 21.3111C20.5646 21.3111 21.4715 22.1951 21.4715 23.2844H22.1463C22.5188 23.2844 22.8211 22.9897 22.8211 22.6267V20.6533C22.8204 19.3082 22.2982 17.9433 21.4459 16.8613ZM13.434 19.3378C13.7566 17.4717 15.4166 16.0489 17.4221 16.0489C19.4276 16.0489 21.0883 17.4717 21.4101 19.3378H13.434Z" fill="white"/>
<path d="M6.88007 9.16667H27.8801V3.33333C27.8801 2.04475 26.8353 1 25.5467 1H18.734C17.8963 1 17.1234 1.44917 16.7075 2.176L15.0467 5.08333H2.2134C0.924816 5.08333 -0.119934 6.12808 -0.119934 7.41667V24.9913C-0.119934 25.2719 0.108149 25.5 0.389316 25.5C0.626149 25.5 0.831483 25.3384 0.885149 25.1068C1.7724 21.2492 4.05907 11.3746 4.06665 11.3477C4.40498 10.0586 5.54715 9.16667 6.88007 9.16667V9.16667Z" fill="#1472C9" fill-opacity="0.6"/>
</g>
<defs>
<clipPath id="clip0_12473_26953">
<rect width="30" height="30" fill="white" transform="translate(0.0883789 0.5)"/>
</clipPath>
</defs>
</svg>
