<svg width="32" height="33" viewBox="0 0 32 33" fill="none" xmlns="http://www.w3.org/2000/svg">
<path d="M6.85579 21.0708H2.28445C1.02211 21.0708 -0.0012207 22.0941 -0.0012207 23.3565V30.2135C-0.0012207 31.4758 1.02211 32.4992 2.28445 32.4992H6.85579C8.11814 32.4992 9.14147 31.4758 9.14147 30.2135V23.3565C9.14147 22.0941 8.11814 21.0708 6.85579 21.0708Z" fill="#1E7BD2"/>
<path d="M18.2843 11.9287H13.7129C12.4506 11.9287 11.4273 12.952 11.4273 14.2144V30.2141C11.4273 31.4764 12.4506 32.4998 13.7129 32.4998H18.2843C19.5466 32.4998 20.5699 31.4764 20.5699 30.2141V14.2144C20.5699 12.952 19.5466 11.9287 18.2843 11.9287Z" fill="#1472C9" fill-opacity="0.6"/>
<path d="M29.7125 0.5H25.1412C23.8788 0.5 22.8555 1.52333 22.8555 2.78567V30.2137C22.8555 31.4761 23.8788 32.4994 25.1412 32.4994H29.7125C30.9748 32.4994 31.9982 31.4761 31.9982 30.2137V2.78567C31.9982 1.52333 30.9748 0.5 29.7125 0.5Z" fill="#1E7BD2"/>
</svg>
