<svg width="32" height="33" viewBox="0 0 32 33" fill="none" xmlns="http://www.w3.org/2000/svg">
<path opacity="0.6" d="M11.6238 1H20.3738C20.7188 1 20.9988 1.298 20.9988 1.66667V4.33333C20.9988 4.702 20.7188 5 20.3738 5H11.6238C11.2788 5 10.9988 4.702 10.9988 4.33333V1.66667C10.9988 1.298 11.2788 1 11.6238 1Z" fill="#1E7BD2"/>
<path d="M27.7607 4H22.1893C22.1893 5.02916 21.356 5.86667 20.3321 5.86667H11.6654C10.6415 5.86667 9.8083 5.02916 9.8083 4H4.23687C3.55345 4 2.99878 4.55751 2.99878 5.24444V30.7556C2.99878 31.4425 3.55345 32 4.23687 32H27.7607C28.4441 32 28.9988 31.4425 28.9988 30.7556V5.24444C28.9988 4.55751 28.4441 4 27.7607 4ZM25.9035 28.8889H6.09402V7.73333H25.9035V28.8889Z" fill="#1E7BD2"/>
<path d="M9.49878 14C10.8795 14 11.9988 12.8807 11.9988 11.5C11.9988 10.1193 10.8795 9 9.49878 9C8.11807 9 6.99878 10.1193 6.99878 11.5C6.99878 12.8807 8.11807 14 9.49878 14Z" fill="#1E7BD2"/>
<path d="M9.49878 27C10.8795 27 11.9988 25.8807 11.9988 24.5C11.9988 23.1193 10.8795 22 9.49878 22C8.11807 22 6.99878 23.1193 6.99878 24.5C6.99878 25.8807 8.11807 27 9.49878 27Z" fill="#1E7BD2"/>
<path d="M9.49878 20C10.8795 20 11.9988 19.1046 11.9988 18C11.9988 16.8954 10.8795 16 9.49878 16C8.11807 16 6.99878 16.8954 6.99878 18C6.99878 19.1046 8.11807 20 9.49878 20Z" fill="#1E7BD2"/>
<path opacity="0.6" d="M22.9603 10C23.5335 10 23.9988 10.672 23.9988 11.5C23.9988 12.328 23.5335 13 22.9603 13H16.0372C15.4633 13 14.9988 12.328 14.9988 11.5C14.9988 10.672 15.4633 10 16.0372 10H22.9603Z" fill="#1E7BD2"/>
<path opacity="0.6" d="M22.9603 17C23.5335 17 23.9988 17.448 23.9988 18C23.9988 18.552 23.5335 19 22.9603 19H16.0372C15.4633 19 14.9988 18.552 14.9988 18C14.9988 17.448 15.4633 17 16.0372 17H22.9603Z" fill="#1E7BD2"/>
<path opacity="0.6" d="M22.9603 23C23.5335 23 23.9988 23.672 23.9988 24.5C23.9988 25.328 23.5335 26 22.9603 26H16.0372C15.4633 26 14.9988 25.328 14.9988 24.5C14.9988 23.672 15.4633 23 16.0372 23H22.9603Z" fill="#1E7BD2"/>
</svg>
