<svg width="30" height="31" viewBox="0 0 30 31" fill="none" xmlns="http://www.w3.org/2000/svg">
<path d="M27.7896 18.4978L25.4345 17.1494C25.6722 15.8778 25.6722 14.5732 25.4345 13.3015L27.7896 11.9531C28.0605 11.7996 28.1821 11.4817 28.0936 11.1857C27.48 9.23438 26.4351 7.46939 25.0696 6.0004C24.8595 5.77566 24.5167 5.72085 24.2514 5.87433L21.8963 7.22273C20.9067 6.37861 19.7679 5.72633 18.535 5.29879V2.60745C18.535 2.3005 18.3194 2.03191 18.0154 1.96614C15.9864 1.51667 13.9077 1.53859 11.9783 1.96614C11.6743 2.03191 11.4587 2.3005 11.4587 2.60745V5.30427C10.2314 5.73729 9.09251 6.38957 8.0974 7.22822L5.74783 5.87981C5.47694 5.72633 5.13971 5.77566 4.92963 6.00588C3.56411 7.46939 2.51924 9.23438 1.90559 11.1912C1.81161 11.4872 1.93876 11.8051 2.20965 11.9586L4.56475 13.307C4.32703 14.5787 4.32703 15.8832 4.56475 17.1549L2.20965 18.5033C1.93876 18.6568 1.81714 18.9747 1.90559 19.2707C2.51924 21.2221 3.56411 22.987 4.92963 24.456C5.13971 24.6808 5.48247 24.7356 5.74783 24.5821L8.10293 23.2337C9.09251 24.0778 10.2314 24.7301 11.4642 25.1576V27.8545C11.4642 28.1614 11.6798 28.43 11.9839 28.4958C14.0128 28.9452 16.0915 28.9233 18.0209 28.4958C18.3249 28.43 18.5405 28.1614 18.5405 27.8545V25.1576C19.7679 24.7246 20.9067 24.0723 21.9018 23.2337L24.2569 24.5821C24.5278 24.7356 24.865 24.6863 25.0751 24.456C26.4406 22.9925 27.4855 21.2275 28.0992 19.2707C28.1821 18.9692 28.0605 18.6513 27.7896 18.4978ZM14.9968 19.6105C12.5588 19.6105 10.5741 17.6427 10.5741 15.2255C10.5741 12.8082 12.5588 10.8404 14.9968 10.8404C17.4349 10.8404 19.4196 12.8082 19.4196 15.2255C19.4196 17.6427 17.4349 19.6105 14.9968 19.6105Z" fill="#0A77DB"/>
</svg>
