<svg width="30" height="31" viewBox="0 0 30 31" fill="none" xmlns="http://www.w3.org/2000/svg">
<g clip-path="url(#clip0_12474_27237)">
<path d="M28.9565 10.9165H6.78984C6.23742 10.9165 5.77717 11.3015 5.65642 11.8172L2.15525 26.9891C2.13542 27.0731 2.12317 27.16 2.12317 27.2498C2.12317 27.8938 2.64584 28.4165 3.28984 28.4165H8.90909C13.9994 28.4165 8.90909 28.4165 13.9994 28.4165C19.8373 28.4165 13.9994 28.4165 19.8373 28.4165H25.4565C26.0089 28.4165 26.4692 28.0315 26.5899 27.5158L30.0911 12.3439C30.1109 12.2599 30.1232 12.173 30.1232 12.0832C30.1232 11.4392 29.6005 10.9165 28.9565 10.9165Z" fill="#1E7BD2"/>
<g clip-path="url(#clip1_12474_27237)">
<path fill-rule="evenodd" clip-rule="evenodd" d="M21.9988 20C21.9988 21.5913 21.3666 23.1174 20.2414 24.2426C19.1162 25.3679 17.5901 26 15.9988 26C14.4075 26 12.8814 25.3679 11.7561 24.2426C10.6309 23.1174 9.99878 21.5913 9.99878 20C9.99878 18.4087 10.6309 16.8826 11.7561 15.7574C12.8814 14.6321 14.4075 14 15.9988 14C17.5901 14 19.1162 14.6321 20.2414 15.7574C21.3666 16.8826 21.9988 18.4087 21.9988 20V20ZM19.0213 17.7275C18.9677 17.6741 18.9039 17.6321 18.8337 17.6039C18.7635 17.5757 18.6884 17.562 18.6128 17.5636C18.5372 17.5651 18.4626 17.5819 18.3936 17.6129C18.3247 17.6439 18.2626 17.6885 18.2113 17.744L15.6065 21.0627L14.0368 19.4922C13.9301 19.3929 13.7891 19.3388 13.6434 19.3414C13.4977 19.3439 13.3586 19.403 13.2556 19.506C13.1525 19.6091 13.0935 19.7481 13.0909 19.8939C13.0883 20.0396 13.1424 20.1806 13.2418 20.2873L15.2263 22.2725C15.2797 22.3259 15.3434 22.3679 15.4135 22.3961C15.4835 22.4244 15.5586 22.4382 15.6341 22.4368C15.7096 22.4354 15.7841 22.4188 15.8531 22.388C15.922 22.3572 15.9841 22.3128 16.0355 22.2575L19.0295 18.515C19.1316 18.4089 19.188 18.267 19.1866 18.1197C19.1852 17.9725 19.1261 17.8317 19.022 17.7275H19.0213Z" fill="white"/>
</g>
<path d="M6.78986 9.16667H27.7899V3.33333C27.7899 2.04475 26.7451 1 25.4565 1H18.6438C17.8061 1 17.0332 1.44917 16.6173 2.176L14.9565 5.08333H2.12319C0.834606 5.08333 -0.210144 6.12808 -0.210144 7.41667V24.9913C-0.210144 25.2719 0.0179394 25.5 0.299106 25.5C0.535939 25.5 0.741273 25.3384 0.794939 25.1068C1.68219 21.2492 3.96886 11.3746 3.97644 11.3477C4.31477 10.0586 5.45694 9.16667 6.78986 9.16667V9.16667Z" fill="#1472C9" fill-opacity="0.6"/>
</g>
<defs>
<clipPath id="clip0_12474_27237">
<rect width="30" height="30" fill="white" transform="translate(-0.00183105 0.5)"/>
</clipPath>
<clipPath id="clip1_12474_27237">
<rect width="12" height="12" fill="white" transform="translate(9.99878 14)"/>
</clipPath>
</defs>
</svg>
