<svg width="32" height="33" viewBox="0 0 32 33" fill="none" xmlns="http://www.w3.org/2000/svg">
<path d="M19.7315 27.6999H18.1315L17.3315 25.0332H12.5315L11.7315 27.6999H10.1315C9.5427 27.6999 9.06483 28.1777 9.06483 28.7665C9.06483 29.3553 9.5427 29.8332 10.1315 29.8332H19.7315C20.3203 29.8332 20.7982 29.3553 20.7982 28.7665C20.7982 28.1777 20.3203 27.6999 19.7315 27.6999Z" fill="#1E7BD2"/>
<path opacity="0.6" d="M21.0648 9.0332C17.972 9.0332 15.4648 11.5404 15.4648 14.6332C15.4648 17.726 17.972 20.2332 21.0648 20.2332C24.1576 20.2332 26.6648 17.726 26.6648 14.6332C26.6648 11.5404 24.1576 9.0332 21.0648 9.0332ZM20.8104 17.4876L17.9102 14.5873L19.4184 13.0791L20.7982 14.4583L23.244 12.0124L24.7523 13.5207L20.8104 17.4876Z" fill="#1E7BD2"/>
<path opacity="0.6" d="M29.8515 20.7802L27.3118 18.2266C26.6787 19.322 25.7672 20.2335 24.6718 20.866L27.212 23.4196C27.5496 23.7578 28.0163 23.9668 28.5315 23.9668C29.5624 23.9668 30.3982 23.1311 30.3982 22.1002C30.3982 21.5844 30.1891 21.1183 29.8515 20.7802V20.7802Z" fill="#1E7BD2"/>
<path d="M21.0648 21.8332C19.3518 21.8332 17.78 21.2326 16.5438 20.2332H4.26483V5.29984H25.5982V9.04277C26.532 9.80117 27.2707 10.7884 27.7315 11.9196V5.29984C27.7315 4.1217 26.7763 3.1665 25.5982 3.1665H4.26483C3.0867 3.1665 2.1315 4.1217 2.1315 5.29984V21.2998C2.1315 22.478 3.0867 23.4332 4.26483 23.4332H24.9624L23.0734 21.5436C22.435 21.7286 21.7624 21.8332 21.0648 21.8332Z" fill="#1E7BD2"/>
</svg>
