<svg width="30" height="31" viewBox="0 0 30 31" fill="none" xmlns="http://www.w3.org/2000/svg">
<g clip-path="url(#clip0_12469_26808)">
<path opacity="0.6" d="M0.99939 4V2.28571C0.99939 1.57557 1.67089 1 2.49939 1C3.32739 1 3.99939 1.57557 3.99939 2.28571V4H0.99939Z" fill="#1E7BD2"/>
<path d="M28.1854 19.6522H14.4346L12.5563 16.8138C12.2198 16.3056 11.6537 16 11.0471 16H2.81297C1.62579 16 0.759416 17.1297 1.05908 18.2875L3.73854 28.6353C3.94698 29.4388 4.66714 30 5.49243 30H25.84C26.6079 30 27.293 29.5118 27.5486 28.7814L29.8946 22.0857C30.3108 20.8982 29.4354 19.6522 28.1854 19.6522V19.6522Z" fill="#1E7BD2"/>
<path opacity="0.6" d="M25.9994 9H26.7994C27.4618 9 27.9994 9.86336 27.9994 10.9286V18H25.9994" fill="#1E7BD2"/>
<path opacity="0.6" d="M3.99939 13H1.99939V10.5C1.99939 9.6715 2.53659 9 3.19939 9H3.99939V13Z" fill="#1E7BD2"/>
<path d="M20.3249 1H4.99939C5.38766 1.50879 5.62711 2.13536 5.62711 2.82143V14.3571H10.9128C12.1438 14.3571 13.2871 14.9631 13.9712 15.9788L15.3301 18H23.9994V4.64286C23.9994 2.63139 22.3538 1 20.3249 1ZM9.91397 4.03571H16.0381C16.7142 4.03571 17.2629 4.57971 17.2629 5.25C17.2629 5.92029 16.7142 6.46429 16.0381 6.46429H9.91397C9.23787 6.46429 8.68916 5.92029 8.68916 5.25C8.68916 4.57971 9.23787 4.03571 9.91397 4.03571ZM19.7125 11.3214H9.91397C9.23787 11.3214 8.68916 10.7774 8.68916 10.1071C8.68916 9.43686 9.23787 8.89286 9.91397 8.89286H19.7125C20.3886 8.89286 20.9373 9.43686 20.9373 10.1071C20.9373 10.7774 20.3886 11.3214 19.7125 11.3214Z" fill="#1E7BD2"/>
</g>
<defs>
<clipPath id="clip0_12469_26808">
<rect width="30" height="30" fill="white" transform="translate(-0.00183105 0.5)"/>
</clipPath>
</defs>
</svg>
