<svg width="30" height="31" viewBox="0 0 30 31" fill="none" xmlns="http://www.w3.org/2000/svg">
<g clip-path="url(#clip0_12512_9377)">
<path d="M16.8743 8.19971V0.230957H5.15552C4.37622 0.230957 3.74927 0.85791 3.74927 1.63721V28.8247C3.74927 29.604 4.37622 30.231 5.15552 30.231H24.843C25.6223 30.231 26.2493 29.604 26.2493 28.8247V9.60596H18.2805C17.5071 9.60596 16.8743 8.97314 16.8743 8.19971ZM7.49927 4.44971C7.49927 4.19072 7.70903 3.98096 7.96802 3.98096H12.6555C12.9145 3.98096 13.1243 4.19072 13.1243 4.44971V5.38721C13.1243 5.64619 12.9145 5.85596 12.6555 5.85596H7.96802C7.70903 5.85596 7.49927 5.64619 7.49927 5.38721V4.44971ZM7.49927 8.19971C7.49927 7.94072 7.70903 7.73096 7.96802 7.73096H12.6555C12.9145 7.73096 13.1243 7.94072 13.1243 8.19971V9.13721C13.1243 9.39619 12.9145 9.60596 12.6555 9.60596H7.96802C7.70903 9.60596 7.49927 9.39619 7.49927 9.13721V8.19971ZM18.7967 22.731H21.5618C22.0797 22.731 22.4993 23.1505 22.4993 23.6685C22.4993 24.1864 22.0797 24.606 21.5618 24.606H18.7967C17.8329 24.606 16.9645 24.0704 16.5327 23.2079C16.3598 22.861 16.0586 22.8259 15.9368 22.8259C15.8149 22.8259 15.5137 22.8604 15.3497 23.1886L14.9002 24.0874C14.8224 24.2431 14.7027 24.3741 14.5546 24.4656C14.4065 24.5571 14.2359 24.6055 14.0618 24.6054C14.0395 24.6054 14.0178 24.6042 13.995 24.6024C13.617 24.5761 13.2918 24.3241 13.1729 23.9644L12.1868 21.0077L11.5651 22.8757C11.22 23.9105 10.2538 24.606 9.16274 24.606H8.43677C7.9188 24.606 7.49927 24.1864 7.49927 23.6685C7.49927 23.1505 7.9188 22.731 8.43677 22.731H9.16274C9.44575 22.731 9.69653 22.5505 9.78618 22.2821L10.852 19.0806C11.0454 18.5058 11.5809 18.119 12.1868 18.119C12.7926 18.119 13.3282 18.5052 13.5209 19.0806L14.3342 21.5204C15.4926 20.5718 17.5012 20.9521 18.2014 22.3501C18.3198 22.588 18.5506 22.731 18.7967 22.731Z" fill="#0A77DB"/>
<path opacity="0.6" d="M20.1028 0.641113L25.8391 6.3833C26.1028 6.64697 26.2493 7.0044 26.2493 7.37354V7.73096H18.7493V0.230957H19.1067C19.4817 0.230957 19.8391 0.377441 20.1028 0.641113Z" fill="#0A77DB"/>
</g>
<defs>
<clipPath id="clip0_12512_9377">
<rect width="30" height="30" fill="white" transform="translate(-0.000732422 0.230957)"/>
</clipPath>
</defs>
</svg>
