<svg width="30" height="31" viewBox="0 0 30 31" fill="none" xmlns="http://www.w3.org/2000/svg">
<path d="M18.4993 25.731H16.9993L16.2493 23.231H11.7493L10.9993 25.731H9.49927C8.94727 25.731 8.49927 26.179 8.49927 26.731C8.49927 27.283 8.94727 27.731 9.49927 27.731H18.4993C19.0513 27.731 19.4993 27.283 19.4993 26.731C19.4993 26.179 19.0513 25.731 18.4993 25.731Z" fill="#0A77DB"/>
<path opacity="0.6" d="M19.7493 8.23096C16.8498 8.23096 14.4993 10.5815 14.4993 13.481C14.4993 16.3805 16.8498 18.731 19.7493 18.731C22.6488 18.731 24.9993 16.3805 24.9993 13.481C24.9993 10.5815 22.6488 8.23096 19.7493 8.23096ZM19.5108 16.157L16.7918 13.438L18.2058 12.024L19.4993 13.317L21.7923 11.024L23.2063 12.438L19.5108 16.157Z" fill="#0A77DB"/>
<path opacity="0.6" d="M27.9868 19.2436L25.6058 16.8496C25.0123 17.8766 24.1578 18.7311 23.1308 19.3241L25.5123 21.7181C25.8288 22.0351 26.2663 22.2311 26.7493 22.2311C27.7158 22.2311 28.4993 21.4476 28.4993 20.4811C28.4993 19.9976 28.3033 19.5606 27.9868 19.2436Z" fill="#0A77DB"/>
<path d="M19.7493 20.231C18.1433 20.231 16.6698 19.668 15.5108 18.731H3.99927V4.73096H23.9993V8.23996C24.8748 8.95096 25.5673 9.87646 25.9993 10.937V4.73096C25.9993 3.62646 25.1038 2.73096 23.9993 2.73096H3.99927C2.89477 2.73096 1.99927 3.62646 1.99927 4.73096V19.731C1.99927 20.8355 2.89477 21.731 3.99927 21.731H23.4033L21.6323 19.9595C21.0338 20.133 20.4033 20.231 19.7493 20.231Z" fill="#0A77DB"/>
</svg>
