<svg width="30" height="31" viewBox="0 0 30 31" fill="none" xmlns="http://www.w3.org/2000/svg">
<g clip-path="url(#clip0_12478_27447)">
<path d="M4.87378 15.481H13.8738V17.731H16.1238V15.481H25.1238V17.731H27.3738V15.0314C27.3738 14.0391 26.5661 13.231 25.5733 13.231H16.1238V10.231H17.9988C18.8271 10.231 19.4988 9.55924 19.4988 8.73096V4.23096C19.4988 3.40268 18.8271 2.73096 17.9988 2.73096H11.9988C11.1705 2.73096 10.4988 3.40268 10.4988 4.23096V8.73096C10.4988 9.55924 11.1705 10.231 11.9988 10.231H13.8738V13.231H4.42425C3.43144 13.231 2.62378 14.0386 2.62378 15.0314V17.731H4.87378V15.481Z" fill="#0A77DB"/>
<path d="M1.49878 19.231H5.99878C6.82706 19.231 7.49878 19.9027 7.49878 20.731V25.231C7.49878 26.0592 6.82706 26.731 5.99878 26.731H1.49878C0.670498 26.731 -0.0012207 26.0592 -0.0012207 25.231V20.731C-0.0012207 19.9027 0.670498 19.231 1.49878 19.231Z" fill="#0A77DB" fill-opacity="0.5"/>
<path d="M12.7488 19.231H17.2488C18.0771 19.231 18.7488 19.9027 18.7488 20.731V25.231C18.7488 26.0592 18.0771 26.731 17.2488 26.731H12.7488C11.9205 26.731 11.2488 26.0592 11.2488 25.231V20.731C11.2488 19.9027 11.9205 19.231 12.7488 19.231Z" fill="#0A77DB" fill-opacity="0.5"/>
<path d="M23.9988 19.231H28.4988C29.3271 19.231 29.9988 19.9027 29.9988 20.731V25.231C29.9988 26.0592 29.3271 26.731 28.4988 26.731H23.9988C23.1705 26.731 22.4988 26.0592 22.4988 25.231V20.731C22.4988 19.9027 23.1705 19.231 23.9988 19.231Z" fill="#0A77DB" fill-opacity="0.5"/>
</g>
<defs>
<clipPath id="clip0_12478_27447">
<rect width="30" height="30" fill="white" transform="translate(-0.0012207 0.230957)"/>
</clipPath>
</defs>
</svg>
