<svg width="32" height="33" viewBox="0 0 32 33" fill="none" xmlns="http://www.w3.org/2000/svg">
<path d="M6.85641 21.0708H2.28506C1.02272 21.0708 -0.000610352 22.0941 -0.000610352 23.3565V30.2135C-0.000610352 31.4758 1.02272 32.4992 2.28506 32.4992H6.85641C8.11875 32.4992 9.14208 31.4758 9.14208 30.2135V23.3565C9.14208 22.0941 8.11875 21.0708 6.85641 21.0708Z" fill="#1E7BD2"/>
<path d="M18.2849 11.9287H13.7135C12.4512 11.9287 11.4279 12.952 11.4279 14.2144V30.2141C11.4279 31.4764 12.4512 32.4998 13.7135 32.4998H18.2849C19.5472 32.4998 20.5705 31.4764 20.5705 30.2141V14.2144C20.5705 12.952 19.5472 11.9287 18.2849 11.9287Z" fill="#1472C9" fill-opacity="0.6"/>
<path d="M29.7131 0.5H25.1418C23.8794 0.5 22.8561 1.52333 22.8561 2.78567V30.2137C22.8561 31.4761 23.8794 32.4994 25.1418 32.4994H29.7131C30.9755 32.4994 31.9988 31.4761 31.9988 30.2137V2.78567C31.9988 1.52333 30.9755 0.5 29.7131 0.5Z" fill="#1E7BD2"/>
</svg>
