<svg width="30" height="31" viewBox="0 0 30 31" fill="none" xmlns="http://www.w3.org/2000/svg">
<path d="M6.42827 19.5161H2.14259C0.959137 19.5161 -0.000244141 20.4755 -0.000244141 21.659V28.0875C-0.000244141 29.2709 0.959137 30.2303 2.14259 30.2303H6.42827C7.61173 30.2303 8.57111 29.2709 8.57111 28.0875V21.659C8.57111 20.4755 7.61173 19.5161 6.42827 19.5161Z" fill="#0A77DB"/>
<path d="M17.1426 10.9453H12.8569C11.6734 10.9453 10.7141 11.9047 10.7141 13.0882V28.088C10.7141 29.2715 11.6734 30.2309 12.8569 30.2309H17.1426C18.326 30.2309 19.2854 29.2715 19.2854 28.088V13.0882C19.2854 11.9047 18.326 10.9453 17.1426 10.9453Z" fill="#0A77DB" fill-opacity="0.5"/>
<path d="M27.8566 0.230957H23.571C22.3875 0.230957 21.4281 1.19034 21.4281 2.3738V28.0879C21.4281 29.2713 22.3875 30.2307 23.571 30.2307H27.8566C29.0401 30.2307 29.9995 29.2713 29.9995 28.0879V2.3738C29.9995 1.19034 29.0401 0.230957 27.8566 0.230957Z" fill="#0A77DB"/>
</svg>
