<svg width="32" height="33" viewBox="0 0 32 33" fill="none" xmlns="http://www.w3.org/2000/svg">
<path fill-rule="evenodd" clip-rule="evenodd" d="M8 22.5H4V28.5H8V22.5ZM2 22.5C2 21.9696 2.21071 21.4609 2.58579 21.0858C2.96086 20.7107 3.46957 20.5 4 20.5H8C8.53043 20.5 9.03914 20.7107 9.41421 21.0858C9.78929 21.4609 10 21.9696 10 22.5V28.5C10 29.0304 9.78929 29.5391 9.41421 29.9142C9.03914 30.2893 8.53043 30.5 8 30.5H4C3.46957 30.5 2.96086 30.2893 2.58579 29.9142C2.21071 29.5391 2 29.0304 2 28.5V22.5Z" fill="#032D60"/>
<path fill-rule="evenodd" clip-rule="evenodd" d="M18 14.5H14V28.5H18V14.5ZM12 14.5C12 13.9696 12.2107 13.4609 12.5858 13.0858C12.9609 12.7107 13.4696 12.5 14 12.5H18C18.5304 12.5 19.0391 12.7107 19.4142 13.0858C19.7893 13.4609 20 13.9696 20 14.5V28.5C20 29.0304 19.7893 29.5391 19.4142 29.9142C19.0391 30.2893 18.5304 30.5 18 30.5H14C13.4696 30.5 12.9609 30.2893 12.5858 29.9142C12.2107 29.5391 12 29.0304 12 28.5V14.5Z" fill="#EF8556"/>
<path fill-rule="evenodd" clip-rule="evenodd" d="M28 4.5H24V28.5H28V4.5ZM24 2.5C23.4696 2.5 22.9609 2.71071 22.5858 3.08579C22.2107 3.46086 22 3.96957 22 4.5V28.5C22 29.0304 22.2107 29.5391 22.5858 29.9142C22.9609 30.2893 23.4696 30.5 24 30.5H28C28.5304 30.5 29.0391 30.2893 29.4142 29.9142C29.7893 29.5391 30 29.0304 30 28.5V4.5C30 3.96957 29.7893 3.46086 29.4142 3.08579C29.0391 2.71071 28.5304 2.5 28 2.5H24Z" fill="#032D60"/>
</svg>
