<svg width="32" height="33" viewBox="0 0 32 33" fill="none" xmlns="http://www.w3.org/2000/svg">
<path opacity="0.6" d="M11.6244 1H20.3744C20.7194 1 20.9994 1.298 20.9994 1.66667V4.33333C20.9994 4.702 20.7194 5 20.3744 5H11.6244C11.2794 5 10.9994 4.702 10.9994 4.33333V1.66667C10.9994 1.298 11.2794 1 11.6244 1Z" fill="#1E7BD2"/>
<path d="M27.7613 4H22.1899C22.1899 5.02916 21.3566 5.86667 20.3327 5.86667H11.6661C10.6422 5.86667 9.80891 5.02916 9.80891 4H4.23748C3.55406 4 2.99939 4.55751 2.99939 5.24444V30.7556C2.99939 31.4425 3.55406 32 4.23748 32H27.7613C28.4447 32 28.9994 31.4425 28.9994 30.7556V5.24444C28.9994 4.55751 28.4447 4 27.7613 4ZM25.9042 28.8889H6.09463V7.73333H25.9042V28.8889Z" fill="#1E7BD2"/>
<path d="M9.49939 14C10.8801 14 11.9994 12.8807 11.9994 11.5C11.9994 10.1193 10.8801 9 9.49939 9C8.11868 9 6.99939 10.1193 6.99939 11.5C6.99939 12.8807 8.11868 14 9.49939 14Z" fill="#1E7BD2"/>
<path d="M9.49939 27C10.8801 27 11.9994 25.8807 11.9994 24.5C11.9994 23.1193 10.8801 22 9.49939 22C8.11868 22 6.99939 23.1193 6.99939 24.5C6.99939 25.8807 8.11868 27 9.49939 27Z" fill="#1E7BD2"/>
<path d="M9.49939 20C10.8801 20 11.9994 19.1046 11.9994 18C11.9994 16.8954 10.8801 16 9.49939 16C8.11868 16 6.99939 16.8954 6.99939 18C6.99939 19.1046 8.11868 20 9.49939 20Z" fill="#1E7BD2"/>
<path opacity="0.6" d="M22.9609 10C23.5342 10 23.9994 10.672 23.9994 11.5C23.9994 12.328 23.5342 13 22.9609 13H16.0379C15.4639 13 14.9994 12.328 14.9994 11.5C14.9994 10.672 15.4639 10 16.0379 10H22.9609Z" fill="#1E7BD2"/>
<path opacity="0.6" d="M22.9609 17C23.5342 17 23.9994 17.448 23.9994 18C23.9994 18.552 23.5342 19 22.9609 19H16.0379C15.4639 19 14.9994 18.552 14.9994 18C14.9994 17.448 15.4639 17 16.0379 17H22.9609Z" fill="#1E7BD2"/>
<path opacity="0.6" d="M22.9609 23C23.5342 23 23.9994 23.672 23.9994 24.5C23.9994 25.328 23.5342 26 22.9609 26H16.0379C15.4639 26 14.9994 25.328 14.9994 24.5C14.9994 23.672 15.4639 23 16.0379 23H22.9609Z" fill="#1E7BD2"/>
</svg>
