<svg width="30" height="31" viewBox="0 0 30 31" fill="none" xmlns="http://www.w3.org/2000/svg">
<g clip-path="url(#clip0_12463_15011)">
<path opacity="0.6" d="M10.8985 0.699707H19.1017C19.4251 0.699707 19.6876 0.979082 19.6876 1.32471V3.82471C19.6876 4.17033 19.4251 4.44971 19.1017 4.44971H10.8985C10.5751 4.44971 10.3126 4.17033 10.3126 3.82471V1.32471C10.3126 0.979082 10.5751 0.699707 10.8985 0.699707Z" fill="#0A77DB"/>
<path d="M26.0269 3.51221H20.8037C20.8037 4.47704 20.0225 5.26221 19.0626 5.26221H10.9376C9.97768 5.26221 9.19652 4.47704 9.19652 3.51221H3.97331C3.33259 3.51221 2.81259 4.03487 2.81259 4.67887V28.5955C2.81259 29.2395 3.33259 29.7622 3.97331 29.7622H26.0269C26.6676 29.7622 27.1876 29.2395 27.1876 28.5955V4.67887C27.1876 4.03487 26.6676 3.51221 26.0269 3.51221ZM24.2858 26.8455H5.71438V7.01221H24.2858V26.8455Z" fill="#0A77DB"/>
<path d="M8.90634 12.8872C10.2008 12.8872 11.2501 11.8379 11.2501 10.5435C11.2501 9.24904 10.2008 8.19971 8.90634 8.19971C7.61192 8.19971 6.56259 9.24904 6.56259 10.5435C6.56259 11.8379 7.61192 12.8872 8.90634 12.8872Z" fill="#0A77DB"/>
<path d="M8.90634 25.0747C10.2008 25.0747 11.2501 24.0254 11.2501 22.731C11.2501 21.4365 10.2008 20.3872 8.90634 20.3872C7.61192 20.3872 6.56259 21.4365 6.56259 22.731C6.56259 24.0254 7.61192 25.0747 8.90634 25.0747Z" fill="#0A77DB"/>
<path d="M8.90634 18.5122C10.2008 18.5122 11.2501 17.6727 11.2501 16.6372C11.2501 15.6017 10.2008 14.7622 8.90634 14.7622C7.61192 14.7622 6.56259 15.6017 6.56259 16.6372C6.56259 17.6727 7.61192 18.5122 8.90634 18.5122Z" fill="#0A77DB"/>
<path opacity="0.6" d="M21.5265 9.13721C22.0639 9.13721 22.5001 9.76721 22.5001 10.5435C22.5001 11.3197 22.0639 11.9497 21.5265 11.9497H15.0361C14.4981 11.9497 14.0626 11.3197 14.0626 10.5435C14.0626 9.76721 14.4981 9.13721 15.0361 9.13721H21.5265Z" fill="#0A77DB"/>
<path opacity="0.6" d="M21.5265 15.6997C22.0639 15.6997 22.5001 16.1197 22.5001 16.6372C22.5001 17.1547 22.0639 17.5747 21.5265 17.5747H15.0361C14.4981 17.5747 14.0626 17.1547 14.0626 16.6372C14.0626 16.1197 14.4981 15.6997 15.0361 15.6997H21.5265Z" fill="#0A77DB"/>
<path opacity="0.6" d="M21.5265 21.3247C22.0639 21.3247 22.5001 21.9547 22.5001 22.731C22.5001 23.5072 22.0639 24.1372 21.5265 24.1372H15.0361C14.4981 24.1372 14.0626 23.5072 14.0626 22.731C14.0626 21.9547 14.4981 21.3247 15.0361 21.3247H21.5265Z" fill="#0A77DB"/>
</g>
<defs>
<clipPath id="clip0_12463_15011">
<rect width="30" height="30" fill="white" transform="translate(-0.000488281 0.230957)"/>
</clipPath>
</defs>
</svg>
