<svg width="32" height="33" viewBox="0 0 32 33" fill="none" xmlns="http://www.w3.org/2000/svg">
<g clip-path="url(#clip0_12372_27205)">
<path fill-rule="evenodd" clip-rule="evenodd" d="M8 3.5H6C4.93913 3.5 3.92172 3.92143 3.17157 4.67157C2.42143 5.42172 2 6.43913 2 7.5V28.5C2 29.5609 2.42143 30.5783 3.17157 31.3284C3.92172 32.0786 4.93913 32.5 6 32.5H26C27.0609 32.5 28.0783 32.0786 28.8284 31.3284C29.5786 30.5783 30 29.5609 30 28.5V7.5C30 6.43913 29.5786 5.42172 28.8284 4.67157C28.0783 3.92143 27.0609 3.5 26 3.5H24V5.5H26C26.5304 5.5 27.0391 5.71071 27.4142 6.08579C27.7893 6.46086 28 6.96957 28 7.5V28.5C28 29.0304 27.7893 29.5391 27.4142 29.9142C27.0391 30.2893 26.5304 30.5 26 30.5H6C5.46957 30.5 4.96086 30.2893 4.58579 29.9142C4.21071 29.5391 4 29.0304 4 28.5V7.5C4 6.96957 4.21071 6.46086 4.58579 6.08579C4.96086 5.71071 5.46957 5.5 6 5.5H8V3.5Z" fill="#EF8556"/>
<path fill-rule="evenodd" clip-rule="evenodd" d="M19 2.5H13C12.7348 2.5 12.4804 2.60536 12.2929 2.79289C12.1054 2.98043 12 3.23478 12 3.5V5.5C12 5.76522 12.1054 6.01957 12.2929 6.20711C12.4804 6.39464 12.7348 6.5 13 6.5H19C19.2652 6.5 19.5196 6.39464 19.7071 6.20711C19.8946 6.01957 20 5.76522 20 5.5V3.5C20 3.23478 19.8946 2.98043 19.7071 2.79289C19.5196 2.60536 19.2652 2.5 19 2.5ZM13 0.5C12.2044 0.5 11.4413 0.81607 10.8787 1.37868C10.3161 1.94129 10 2.70435 10 3.5V5.5C10 6.29565 10.3161 7.05871 10.8787 7.62132C11.4413 8.18393 12.2044 8.5 13 8.5H19C19.7956 8.5 20.5587 8.18393 21.1213 7.62132C21.6839 7.05871 22 6.29565 22 5.5V3.5C22 2.70435 21.6839 1.94129 21.1213 1.37868C20.5587 0.81607 19.7956 0.5 19 0.5L13 0.5Z" fill="#EF8556"/>
<path fill-rule="evenodd" clip-rule="evenodd" d="M6 13.5C6 13.2348 6.10536 12.9804 6.29289 12.7929C6.48043 12.6054 6.73478 12.5 7 12.5H25C25.2652 12.5 25.5196 12.6054 25.7071 12.7929C25.8946 12.9804 26 13.2348 26 13.5C26 13.7652 25.8946 14.0196 25.7071 14.2071C25.5196 14.3946 25.2652 14.5 25 14.5H7C6.73478 14.5 6.48043 14.3946 6.29289 14.2071C6.10536 14.0196 6 13.7652 6 13.5ZM6 18.5C6 18.2348 6.10536 17.9804 6.29289 17.7929C6.48043 17.6054 6.73478 17.5 7 17.5H25C25.2652 17.5 25.5196 17.6054 25.7071 17.7929C25.8946 17.9804 26 18.2348 26 18.5C26 18.7652 25.8946 19.0196 25.7071 19.2071C25.5196 19.3946 25.2652 19.5 25 19.5H7C6.73478 19.5 6.48043 19.3946 6.29289 19.2071C6.10536 19.0196 6 18.7652 6 18.5ZM6 23.5C6 23.2348 6.10536 22.9804 6.29289 22.7929C6.48043 22.6054 6.73478 22.5 7 22.5H17C17.2652 22.5 17.5196 22.6054 17.7071 22.7929C17.8946 22.9804 18 23.2348 18 23.5C18 23.7652 17.8946 24.0196 17.7071 24.2071C17.5196 24.3946 17.2652 24.5 17 24.5H7C6.73478 24.5 6.48043 24.3946 6.29289 24.2071C6.10536 24.0196 6 23.7652 6 23.5Z" fill="#032D60"/>
</g>
<defs>
<clipPath id="clip0_12372_27205">
<rect width="32" height="32" fill="white" transform="translate(0 0.5)"/>
</clipPath>
</defs>
</svg>
