<svg width="32" height="33" viewBox="0 0 32 33" fill="none" xmlns="http://www.w3.org/2000/svg">
<path d="M29.6418 19.9847L27.1296 18.5464C27.3832 17.1899 27.3832 15.7984 27.1296 14.4419L29.6418 13.0036C29.9307 12.8399 30.0604 12.5008 29.9661 12.1851C29.3115 10.1037 28.197 8.221 26.7404 6.65407C26.5164 6.41435 26.1508 6.35589 25.8677 6.51959L23.3556 7.9579C22.3 7.0575 21.0853 6.36173 19.7702 5.90569V3.03493C19.7702 2.70751 19.5403 2.42102 19.2159 2.35086C17.0517 1.87143 14.8345 1.89481 12.7764 2.35086C12.4521 2.42102 12.2221 2.70751 12.2221 3.03493V5.91153C10.913 6.37343 9.69823 7.06919 8.63678 7.96374L6.13057 6.52544C5.84162 6.36173 5.48191 6.41435 5.25782 6.65992C3.80127 8.221 2.68675 10.1037 2.03218 12.1909C1.93194 12.5067 2.06757 12.8458 2.35652 13.0095L4.86862 14.4478C4.61505 15.8042 4.61505 17.1958 4.86862 18.5522L2.35652 19.9905C2.06757 20.1542 1.93783 20.4933 2.03218 20.8091C2.68675 22.8905 3.80127 24.7732 5.25782 26.3401C5.48191 26.5798 5.84752 26.6383 6.13057 26.4746L8.64268 25.0363C9.69823 25.9367 10.913 26.6324 12.228 27.0885V29.9651C12.228 30.2925 12.458 30.579 12.7823 30.6491C14.9465 31.1286 17.1638 31.1052 19.2218 30.6491C19.5462 30.579 19.7761 30.2925 19.7761 29.9651V27.0885C21.0853 26.6266 22.3 25.9308 23.3615 25.0363L25.8736 26.4746C26.1625 26.6383 26.5223 26.5856 26.7463 26.3401C28.2029 24.779 29.3174 22.8963 29.972 20.8091C30.0604 20.4875 29.9307 20.1484 29.6418 19.9847ZM15.9962 21.1716C13.3956 21.1716 11.2786 19.0726 11.2786 16.4942C11.2786 13.9157 13.3956 11.8168 15.9962 11.8168C18.5967 11.8168 20.7138 13.9157 20.7138 16.4942C20.7138 19.0726 18.5967 21.1716 15.9962 21.1716Z" fill="#1E7BD2"/>
</svg>
