<svg width="32" height="33" viewBox="0 0 32 33" fill="none" xmlns="http://www.w3.org/2000/svg">
<path d="M19.656 8.5C18.0655 8.49913 16.5405 7.86681 15.416 6.742L13.756 5.086C13.382 4.71188 12.875 4.50117 12.346 4.5H5C4.47609 4.49991 3.97305 4.70539 3.59905 5.07229C3.22505 5.43918 3.00995 5.93818 3 6.462L3.092 8.5H1.092L1 6.5C1 5.43913 1.42143 4.42172 2.17157 3.67157C2.92172 2.92143 3.93913 2.5 5 2.5H12.344C13.4048 2.50023 14.422 2.9218 15.172 3.672L16.828 5.328C17.578 6.0782 18.5952 6.49977 19.656 6.5V8.5Z" fill="#EF8556"/>
<path fill-rule="evenodd" clip-rule="evenodd" d="M27.6201 8.5H4.38005C4.10223 8.49998 3.82744 8.55785 3.57322 8.66992C3.31899 8.78198 3.0909 8.94579 2.90349 9.15088C2.71608 9.35598 2.57346 9.59788 2.48471 9.86115C2.39597 10.1244 2.36305 10.4033 2.38805 10.68L3.66205 24.68C3.70696 25.1769 3.93598 25.6391 4.30417 25.9758C4.67235 26.3126 5.15311 26.4995 5.65205 26.5H26.3481C26.847 26.4995 27.3278 26.3126 27.6959 25.9758C28.0641 25.6391 28.2931 25.1769 28.3381 24.68L29.6121 10.68C29.6371 10.4033 29.6041 10.1244 29.5154 9.86115C29.4266 9.59788 29.284 9.35598 29.0966 9.15088C28.9092 8.94579 28.6811 8.78198 28.4269 8.66992C28.1727 8.55785 27.8979 8.49998 27.6201 8.5ZM4.38005 6.5C3.82421 6.49994 3.27446 6.61573 2.76586 6.83998C2.25727 7.06423 1.80099 7.39202 1.42614 7.80244C1.05128 8.21286 0.766083 8.6969 0.588726 9.22369C0.411369 9.75047 0.34575 10.3084 0.396053 10.862L1.67005 24.862C1.76037 25.8558 2.2189 26.78 2.95565 27.4531C3.69239 28.1262 4.65413 28.4996 5.65205 28.5H26.3481C27.346 28.4996 28.3077 28.1262 29.0445 27.4531C29.7812 26.78 30.2397 25.8558 30.3301 24.862L31.6041 10.862C31.6544 10.3084 31.5887 9.75047 31.4114 9.22369C31.234 8.6969 30.9488 8.21286 30.574 7.80244C30.1991 7.39202 29.7428 7.06423 29.2342 6.83998C28.7256 6.61573 28.1759 6.49994 27.6201 6.5H4.38005Z" fill="#EF8556"/>
<path d="M17.232 20.9804L23.596 17.0424C23.7194 16.9619 23.8208 16.8518 23.8909 16.7223C23.9611 16.5927 23.9978 16.4477 23.9978 16.3004C23.9978 16.153 23.9611 16.008 23.8909 15.8785C23.8208 15.7489 23.7194 15.6389 23.596 15.5584L17.232 11.6184C16.692 11.2864 16 11.6904 16 12.3624V13.9004C14.286 13.9004 9.142 13.9004 8 23.5004C10.858 18.1004 16 18.7004 16 18.7004V20.2384C16 20.9104 16.692 21.3144 17.232 20.9804Z" fill="#032D60"/>
</svg>
