<svg width="30" height="31" viewBox="0 0 30 31" fill="none" xmlns="http://www.w3.org/2000/svg">
<g clip-path="url(#clip0_12463_15028)">
<path d="M28.9571 10.9165H6.79045C6.23803 10.9165 5.77778 11.3015 5.65703 11.8172L2.15586 26.9891C2.13603 27.0731 2.12378 27.16 2.12378 27.2498C2.12378 27.8938 2.64645 28.4165 3.29045 28.4165H8.9097C14 28.4165 8.9097 28.4165 14 28.4165C19.8379 28.4165 14 28.4165 19.8379 28.4165H25.4571C26.0095 28.4165 26.4698 28.0315 26.5905 27.5158L30.0917 12.3439C30.1115 12.2599 30.1238 12.173 30.1238 12.0832C30.1238 11.4392 29.6011 10.9165 28.9571 10.9165Z" fill="#1E7BD2"/>
<path d="M6.79047 9.16667H27.7905V3.33333C27.7905 2.04475 26.7457 1 25.4571 1H18.6444C17.8067 1 17.0338 1.44917 16.6179 2.176L14.9571 5.08333H2.1238C0.835216 5.08333 -0.209534 6.12808 -0.209534 7.41667V24.9913C-0.209534 25.2719 0.0185497 25.5 0.299716 25.5C0.53655 25.5 0.741883 25.3384 0.79555 25.1068C1.6828 21.2492 3.96947 11.3746 3.97705 11.3477C4.31538 10.0586 5.45755 9.16667 6.79047 9.16667V9.16667Z" fill="#1472C9" fill-opacity="0.6"/>
<path d="M14.7658 16.5201L8.4018 20.4581C8.27841 20.5386 8.17705 20.6487 8.10689 20.7782C8.03673 20.9078 7.99998 21.0528 7.99998 21.2001C7.99998 21.3475 8.03673 21.4925 8.10689 21.622C8.17705 21.7516 8.27841 21.8616 8.4018 21.9421L14.7658 25.8821C15.3058 26.2141 15.9978 25.8101 15.9978 25.1381V23.6001C17.7118 23.6001 22.8558 23.6001 23.9978 14.0001C21.1398 19.4001 15.9978 18.8001 15.9978 18.8001V17.2621C15.9978 16.5901 15.3058 16.1861 14.7658 16.5201Z" fill="white"/>
</g>
<defs>
<clipPath id="clip0_12463_15028">
<rect width="30" height="30" fill="white" transform="translate(-0.0012207 0.5)"/>
</clipPath>
</defs>
</svg>
