<svg width="32" height="33" viewBox="0 0 32 33" fill="none" xmlns="http://www.w3.org/2000/svg">
<path d="M19.656 8.5C18.0655 8.49913 16.5405 7.86681 15.416 6.742L13.756 5.086C13.382 4.71188 12.875 4.50117 12.346 4.5H5C4.47609 4.49991 3.97305 4.70539 3.59905 5.07229C3.22505 5.43918 3.00995 5.93818 3 6.462L3.092 8.5H1.092L1 6.5C1 5.43913 1.42143 4.42172 2.17157 3.67157C2.92172 2.92143 3.93913 2.5 5 2.5H12.344C13.4048 2.50023 14.422 2.9218 15.172 3.672L16.828 5.328C17.578 6.0782 18.5952 6.49977 19.656 6.5V8.5Z" fill="#032D60"/>
<path fill-rule="evenodd" clip-rule="evenodd" d="M27.6201 8.5H4.38005C4.10223 8.49998 3.82744 8.55785 3.57322 8.66992C3.31899 8.78198 3.0909 8.94579 2.90349 9.15088C2.71608 9.35598 2.57346 9.59788 2.48471 9.86115C2.39597 10.1244 2.36305 10.4033 2.38805 10.68L3.66205 24.68C3.70696 25.1769 3.93598 25.6391 4.30417 25.9758C4.67235 26.3126 5.15311 26.4995 5.65205 26.5H26.3481C26.847 26.4995 27.3278 26.3126 27.6959 25.9758C28.0641 25.6391 28.2931 25.1769 28.3381 24.68L29.6121 10.68C29.6371 10.4033 29.6041 10.1244 29.5154 9.86115C29.4266 9.59788 29.284 9.35598 29.0966 9.15088C28.9092 8.94579 28.6811 8.78198 28.4269 8.66992C28.1727 8.55785 27.8979 8.49998 27.6201 8.5ZM4.38005 6.5C3.82421 6.49994 3.27446 6.61573 2.76586 6.83998C2.25727 7.06423 1.80099 7.39202 1.42614 7.80244C1.05128 8.21286 0.766083 8.6969 0.588726 9.22369C0.411369 9.75047 0.34575 10.3084 0.396053 10.862L1.67005 24.862C1.76037 25.8558 2.2189 26.78 2.95565 27.4531C3.69239 28.1262 4.65413 28.4996 5.65205 28.5H26.3481C27.346 28.4996 28.3077 28.1262 29.0445 27.4531C29.7812 26.78 30.2397 25.8558 30.3301 24.862L31.6041 10.862C31.6544 10.3084 31.5887 9.75047 31.4114 9.22369C31.234 8.6969 30.9488 8.21286 30.574 7.80244C30.1991 7.39202 29.7428 7.06423 29.2342 6.83998C28.7256 6.61573 28.1759 6.49994 27.6201 6.5H4.38005Z" fill="#032D60"/>
<path fill-rule="evenodd" clip-rule="evenodd" d="M7.14052 18.704C7.19324 18.64 7.25812 18.5887 7.33086 18.5535C7.40361 18.5184 7.48254 18.5001 7.5624 18.5H13.1875C13.3367 18.5 13.4797 18.5632 13.5852 18.6757C13.6907 18.7883 13.75 18.9409 13.75 19.1C13.75 20.0936 14.4531 21.5 16 21.5C17.5469 21.5 18.2501 20.0936 18.2501 19.1C18.2501 18.9409 18.3093 18.7883 18.4148 18.6757C18.5203 18.5632 18.6634 18.5 18.8126 18.5H24.4377C24.5174 18.5 24.5962 18.5181 24.6689 18.5531C24.7416 18.5881 24.8065 18.6392 24.8592 18.703C24.912 18.7667 24.9515 18.8418 24.975 18.923C24.9985 19.0043 25.0055 19.09 24.9957 19.1744L24.5569 22.9232C24.5059 23.3587 24.3075 23.7593 23.999 24.0496C23.6905 24.34 23.2932 24.5002 22.8818 24.5H9.1183C8.70687 24.5002 8.30955 24.34 8.00107 24.0496C7.69258 23.7593 7.49417 23.3587 7.44315 22.9232L7.0044 19.1744C6.99444 19.09 7.00144 19.0043 7.0249 18.923C7.04837 18.8417 7.08778 18.7666 7.14052 18.7028V18.704Z" fill="#EF8556"/>
<path fill-rule="evenodd" clip-rule="evenodd" d="M16.5663 10.7203C16.492 10.6505 16.4037 10.5951 16.3065 10.5573C16.2094 10.5195 16.1052 10.5 16 10.5C15.8948 10.5 15.7906 10.5195 15.6935 10.5573C15.5963 10.5951 15.508 10.6505 15.4337 10.7203L12.2346 13.7199C12.1602 13.7896 12.1012 13.8724 12.061 13.9634C12.0207 14.0545 12 14.1522 12 14.2508C12 14.3494 12.0207 14.447 12.061 14.5381C12.1012 14.6292 12.1602 14.712 12.2346 14.7817C12.3089 14.8514 12.3972 14.9067 12.4944 14.9445C12.5915 14.9822 12.6956 15.0016 12.8008 15.0016C12.906 15.0016 13.0101 14.9822 13.1073 14.9445C13.2044 14.9067 13.2927 14.8514 13.3671 14.7817L15.2002 13.0615V18.7501C15.2002 18.949 15.2845 19.1397 15.4345 19.2804C15.5844 19.421 15.7879 19.5 16 19.5C16.2121 19.5 16.4156 19.421 16.5655 19.2804C16.7155 19.1397 16.7998 18.949 16.7998 18.7501V13.0615L18.6329 14.7817C18.7831 14.9225 18.9868 15.0016 19.1992 15.0016C19.4116 15.0016 19.6153 14.9225 19.7654 14.7817C19.9156 14.6409 20 14.4499 20 14.2508C20 14.0516 19.9156 13.8607 19.7654 13.7199L16.5663 10.7203Z" fill="#EF8556"/>
</svg>
