<svg width="30" height="31" viewBox="0 0 30 31" fill="none" xmlns="http://www.w3.org/2000/svg">
<g clip-path="url(#clip0_12467_26776)">
<path opacity="0.6" d="M1 4V2.28571C1 1.57557 1.6715 1 2.5 1C3.328 1 4 1.57557 4 2.28571V4H1Z" fill="#1E7BD2"/>
<path d="M28.186 19.6522H14.4353L12.5569 16.8138C12.2204 16.3056 11.6543 16 11.0477 16H2.81358C1.6264 16 0.760026 17.1297 1.05969 18.2875L3.73915 28.6353C3.94759 29.4388 4.66775 30 5.49304 30H25.8406C26.6085 30 27.2937 29.5118 27.5492 28.7814L29.8952 22.0857C30.3114 20.8982 29.436 19.6522 28.186 19.6522V19.6522Z" fill="#1E7BD2"/>
<path opacity="0.6" d="M26 9H26.8C27.4624 9 28 9.86336 28 10.9286V18H26" fill="#1E7BD2"/>
<path opacity="0.6" d="M4 13H2V10.5C2 9.6715 2.5372 9 3.2 9H4V13Z" fill="#1E7BD2"/>
<path d="M20.3255 1H5C5.38827 1.50879 5.62772 2.13536 5.62772 2.82143V14.3571H10.9134C12.1444 14.3571 13.2877 14.9631 13.9718 15.9788L15.3307 18H24V4.64286C24 2.63139 22.3545 1 20.3255 1ZM9.91458 4.03571H16.0387C16.7148 4.03571 17.2635 4.57971 17.2635 5.25C17.2635 5.92029 16.7148 6.46429 16.0387 6.46429H9.91458C9.23848 6.46429 8.68977 5.92029 8.68977 5.25C8.68977 4.57971 9.23848 4.03571 9.91458 4.03571ZM19.7131 11.3214H9.91458C9.23848 11.3214 8.68977 10.7774 8.68977 10.1071C8.68977 9.43686 9.23848 8.89286 9.91458 8.89286H19.7131C20.3892 8.89286 20.938 9.43686 20.938 10.1071C20.938 10.7774 20.3892 11.3214 19.7131 11.3214Z" fill="#1E7BD2"/>
</g>
<defs>
<clipPath id="clip0_12467_26776">
<rect width="30" height="30" fill="white" transform="translate(-0.0012207 0.5)"/>
</clipPath>
</defs>
</svg>
