<svg width="30" height="31" viewBox="0 0 30 31" fill="none" xmlns="http://www.w3.org/2000/svg">
<g clip-path="url(#clip0_12467_26776)">
<path opacity="0.6" d="M1.00073 3.73096V2.01667C1.00073 1.30653 1.67223 0.730957 2.50073 0.730957C3.32873 0.730957 4.00073 1.30653 4.00073 2.01667V3.73096H1.00073Z" fill="#0A77DB"/>
<path d="M28.1867 19.3831H14.436L12.5576 16.5448C12.2211 16.0365 11.655 15.731 11.0484 15.731H2.81431C1.62713 15.731 0.760759 16.8607 1.06042 18.0184L3.73989 28.3663C3.94832 29.1697 4.66848 29.731 5.49377 29.731H25.8414C26.6093 29.731 27.2944 29.2428 27.5499 28.5123L29.8959 21.8167C30.3122 20.6291 29.4367 19.3831 28.1867 19.3831Z" fill="#0A77DB"/>
<path opacity="0.6" d="M26.0007 8.73096H26.8007C27.4631 8.73096 28.0007 9.59431 28.0007 10.6595V17.731H26.0007" fill="#0A77DB"/>
<path opacity="0.6" d="M4.00073 12.731H2.00073V10.231C2.00073 9.40246 2.53793 8.73096 3.20073 8.73096H4.00073V12.731Z" fill="#0A77DB"/>
<path d="M20.3263 0.730957H5.00073C5.389 1.23974 5.62845 1.86631 5.62845 2.55239V14.0881H10.9142C12.1451 14.0881 13.2885 14.694 13.9725 15.7098L15.3315 17.731H24.0007V4.37381C24.0007 2.36235 22.3552 0.730957 20.3263 0.730957ZM9.91532 3.76667H16.0394C16.7155 3.76667 17.2642 4.31067 17.2642 4.98096C17.2642 5.65124 16.7155 6.19524 16.0394 6.19524H9.91532C9.23922 6.19524 8.6905 5.65124 8.6905 4.98096C8.6905 4.31067 9.23922 3.76667 9.91532 3.76667ZM19.7139 11.0524H9.91532C9.23922 11.0524 8.6905 10.5084 8.6905 9.8381C8.6905 9.16781 9.23922 8.62381 9.91532 8.62381H19.7139C20.39 8.62381 20.9387 9.16781 20.9387 9.8381C20.9387 10.5084 20.39 11.0524 19.7139 11.0524Z" fill="#0A77DB"/>
</g>
<defs>
<clipPath id="clip0_12467_26776">
<rect width="30" height="30" fill="white" transform="translate(-0.000488281 0.230957)"/>
</clipPath>
</defs>
</svg>
