<svg width="30" height="31" viewBox="0 0 30 31" fill="none" xmlns="http://www.w3.org/2000/svg">
<path d="M18.4995 25.731H16.9995L16.2495 23.231H11.7495L10.9995 25.731H9.49951C8.94751 25.731 8.49951 26.179 8.49951 26.731C8.49951 27.283 8.94751 27.731 9.49951 27.731H18.4995C19.0515 27.731 19.4995 27.283 19.4995 26.731C19.4995 26.179 19.0515 25.731 18.4995 25.731Z" fill="#0A77DB"/>
<path opacity="0.6" d="M19.7495 8.23096C16.85 8.23096 14.4995 10.5815 14.4995 13.481C14.4995 16.3805 16.85 18.731 19.7495 18.731C22.649 18.731 24.9995 16.3805 24.9995 13.481C24.9995 10.5815 22.649 8.23096 19.7495 8.23096ZM19.511 16.157L16.792 13.438L18.206 12.024L19.4995 13.317L21.7925 11.024L23.2065 12.438L19.511 16.157Z" fill="#0A77DB"/>
<path opacity="0.6" d="M27.987 19.2436L25.606 16.8496C25.0125 17.8766 24.158 18.7311 23.131 19.3241L25.5125 21.7181C25.829 22.0351 26.2665 22.2311 26.7495 22.2311C27.716 22.2311 28.4995 21.4476 28.4995 20.4811C28.4995 19.9976 28.3035 19.5606 27.987 19.2436Z" fill="#0A77DB"/>
<path d="M19.7495 20.231C18.1435 20.231 16.67 19.668 15.511 18.731H3.99951V4.73096H23.9995V8.23996C24.875 8.95096 25.5675 9.87646 25.9995 10.937V4.73096C25.9995 3.62646 25.104 2.73096 23.9995 2.73096H3.99951C2.89501 2.73096 1.99951 3.62646 1.99951 4.73096V19.731C1.99951 20.8355 2.89501 21.731 3.99951 21.731H23.4035L21.6325 19.9595C21.034 20.133 20.4035 20.231 19.7495 20.231Z" fill="#0A77DB"/>
</svg>
