<svg width="32" height="33" viewBox="0 0 32 33" fill="none" xmlns="http://www.w3.org/2000/svg">
<path d="M19.7321 27.6999H18.1321L17.3321 25.0332H12.5321L11.7321 27.6999H10.1321C9.54331 27.6999 9.06544 28.1777 9.06544 28.7665C9.06544 29.3553 9.54331 29.8332 10.1321 29.8332H19.7321C20.3209 29.8332 20.7988 29.3553 20.7988 28.7665C20.7988 28.1777 20.3209 27.6999 19.7321 27.6999Z" fill="#1E7BD2"/>
<path opacity="0.6" d="M21.0654 9.0332C17.9726 9.0332 15.4654 11.5404 15.4654 14.6332C15.4654 17.726 17.9726 20.2332 21.0654 20.2332C24.1582 20.2332 26.6654 17.726 26.6654 14.6332C26.6654 11.5404 24.1582 9.0332 21.0654 9.0332ZM20.811 17.4876L17.9108 14.5873L19.419 13.0791L20.7988 14.4583L23.2446 12.0124L24.7529 13.5207L20.811 17.4876Z" fill="#1E7BD2"/>
<path opacity="0.6" d="M29.8521 20.7802L27.3124 18.2266C26.6793 19.322 25.7678 20.2335 24.6724 20.866L27.2126 23.4196C27.5502 23.7578 28.0169 23.9668 28.5321 23.9668C29.563 23.9668 30.3988 23.1311 30.3988 22.1002C30.3988 21.5844 30.1897 21.1183 29.8521 20.7802V20.7802Z" fill="#1E7BD2"/>
<path d="M21.0654 21.8332C19.3524 21.8332 17.7806 21.2326 16.5444 20.2332H4.26545V5.29984H25.5988V9.04277C26.5326 9.80117 27.2713 10.7884 27.7321 11.9196V5.29984C27.7321 4.1217 26.7769 3.1665 25.5988 3.1665H4.26545C3.08731 3.1665 2.13211 4.1217 2.13211 5.29984V21.2998C2.13211 22.478 3.08731 23.4332 4.26545 23.4332H24.963L23.074 21.5436C22.4356 21.7286 21.763 21.8332 21.0654 21.8332Z" fill="#1E7BD2"/>
</svg>
