<svg width="30" height="31" viewBox="0 0 30 31" fill="none" xmlns="http://www.w3.org/2000/svg">
<g clip-path="url(#clip0_12474_27232)">
<path d="M28.9571 10.9165H6.79045C6.23803 10.9165 5.77778 11.3015 5.65703 11.8172L2.15586 26.9891C2.13603 27.0731 2.12378 27.16 2.12378 27.2498C2.12378 27.8938 2.64645 28.4165 3.29045 28.4165H8.9097C14 28.4165 8.9097 28.4165 14 28.4165C19.8379 28.4165 14 28.4165 19.8379 28.4165H25.4571C26.0095 28.4165 26.4698 28.0315 26.5905 27.5158L30.0917 12.3439C30.1115 12.2599 30.1238 12.173 30.1238 12.0832C30.1238 11.4392 29.6011 10.9165 28.9571 10.9165Z" fill="#1E7BD2"/>
<g clip-path="url(#clip1_12474_27232)">
<path fill-rule="evenodd" clip-rule="evenodd" d="M21.9994 20C21.9994 21.5913 21.3672 23.1174 20.242 24.2426C19.1168 25.3679 17.5907 26 15.9994 26C14.4081 26 12.882 25.3679 11.7567 24.2426C10.6315 23.1174 9.99939 21.5913 9.99939 20C9.99939 18.4087 10.6315 16.8826 11.7567 15.7574C12.882 14.6321 14.4081 14 15.9994 14C17.5907 14 19.1168 14.6321 20.242 15.7574C21.3672 16.8826 21.9994 18.4087 21.9994 20V20ZM19.0219 17.7275C18.9683 17.6741 18.9045 17.6321 18.8343 17.6039C18.7641 17.5757 18.689 17.562 18.6134 17.5636C18.5378 17.5651 18.4632 17.5819 18.3943 17.6129C18.3253 17.6439 18.2632 17.6885 18.2119 17.744L15.6071 21.0627L14.0374 19.4922C13.9308 19.3929 13.7897 19.3388 13.644 19.3414C13.4983 19.3439 13.3592 19.403 13.2562 19.506C13.1531 19.6091 13.0941 19.7481 13.0915 19.8939C13.0889 20.0396 13.143 20.1806 13.2424 20.2873L15.2269 22.2725C15.2804 22.3259 15.344 22.3679 15.4141 22.3961C15.4841 22.4244 15.5592 22.4382 15.6347 22.4368C15.7102 22.4354 15.7847 22.4188 15.8537 22.388C15.9226 22.3572 15.9847 22.3128 16.0361 22.2575L19.0301 18.515C19.1322 18.4089 19.1886 18.267 19.1872 18.1197C19.1858 17.9725 19.1267 17.8317 19.0226 17.7275H19.0219Z" fill="white"/>
</g>
<path d="M6.79047 9.16667H27.7905V3.33333C27.7905 2.04475 26.7457 1 25.4571 1H18.6444C17.8067 1 17.0338 1.44917 16.6179 2.176L14.9571 5.08333H2.1238C0.835216 5.08333 -0.209534 6.12808 -0.209534 7.41667V24.9913C-0.209534 25.2719 0.0185497 25.5 0.299716 25.5C0.53655 25.5 0.741883 25.3384 0.79555 25.1068C1.6828 21.2492 3.96947 11.3746 3.97705 11.3477C4.31538 10.0586 5.45755 9.16667 6.79047 9.16667V9.16667Z" fill="#1472C9" fill-opacity="0.6"/>
</g>
<defs>
<clipPath id="clip0_12474_27232">
<rect width="30" height="30" fill="white" transform="translate(-0.0012207 0.5)"/>
</clipPath>
<clipPath id="clip1_12474_27232">
<rect width="12" height="12" fill="white" transform="translate(9.99939 14)"/>
</clipPath>
</defs>
</svg>
