<svg width="30" height="31" viewBox="0 0 30 31" fill="none" xmlns="http://www.w3.org/2000/svg">
<g clip-path="url(#clip0_12474_27232)">
<path d="M28.9578 10.6475H6.79118C6.23876 10.6475 5.77851 11.0325 5.65776 11.5481L2.1566 26.72C2.13676 26.804 2.12451 26.891 2.12451 26.9808C2.12451 27.6248 2.64718 28.1475 3.29118 28.1475H8.91043C14.0007 28.1475 8.91043 28.1475 14.0007 28.1475C19.8386 28.1475 14.0007 28.1475 19.8386 28.1475H25.4578C26.0103 28.1475 26.4705 27.7625 26.5913 27.2468L30.0924 12.0749C30.1123 11.9909 30.1245 11.904 30.1245 11.8141C30.1245 11.1701 29.6018 10.6475 28.9578 10.6475Z" fill="#0A77DB"/>
<g clip-path="url(#clip1_12474_27232)">
<path fill-rule="evenodd" clip-rule="evenodd" d="M22.0001 19.731C22.0001 21.3223 21.368 22.8484 20.2428 23.9736C19.1175 25.0988 17.5914 25.731 16.0001 25.731C14.4088 25.731 12.8827 25.0988 11.7575 23.9736C10.6323 22.8484 10.0001 21.3223 10.0001 19.731C10.0001 18.1397 10.6323 16.6135 11.7575 15.4883C12.8827 14.3631 14.4088 13.731 16.0001 13.731C17.5914 13.731 19.1175 14.3631 20.2428 15.4883C21.368 16.6135 22.0001 18.1397 22.0001 19.731ZM19.0226 17.4585C18.969 17.4051 18.9053 17.363 18.8351 17.3349C18.7649 17.3067 18.6897 17.293 18.6141 17.2945C18.5385 17.2961 18.464 17.3128 18.395 17.3438C18.326 17.3748 18.264 17.4194 18.2126 17.475L15.6079 20.7937L14.0381 19.2232C13.9315 19.1238 13.7905 19.0698 13.6447 19.0723C13.499 19.0749 13.36 19.1339 13.2569 19.237C13.1538 19.3401 13.0948 19.4791 13.0922 19.6248C13.0897 19.7705 13.1438 19.9116 13.2431 20.0182L15.2276 22.0035C15.2811 22.0568 15.3447 22.0989 15.4148 22.1271C15.4849 22.1553 15.5599 22.1692 15.6354 22.1678C15.711 22.1664 15.7854 22.1498 15.8544 22.1189C15.9234 22.0881 15.9854 22.0438 16.0369 21.9885L19.0309 18.246C19.1329 18.1398 19.1893 17.9979 19.1879 17.8507C19.1865 17.7034 19.1274 17.5626 19.0234 17.4585H19.0226Z" fill="white" fill-opacity="0.9"/>
</g>
<path d="M6.7912 8.89762H27.7912V3.06429C27.7912 1.77571 26.7464 0.730957 25.4579 0.730957H18.6451C17.8074 0.730957 17.0345 1.18012 16.6186 1.90696L14.9579 4.81429H2.12453C0.835949 4.81429 -0.208801 5.85904 -0.208801 7.14762V24.7223C-0.208801 25.0029 0.0192821 25.231 0.300449 25.231C0.537282 25.231 0.742615 25.0694 0.796282 24.8378C1.68353 20.9802 3.9702 11.1055 3.97778 11.0787C4.31612 9.78954 5.45828 8.89762 6.7912 8.89762Z" fill="#0A77DB" fill-opacity="0.5"/>
</g>
<defs>
<clipPath id="clip0_12474_27232">
<rect width="30" height="30" fill="white" transform="translate(-0.000488281 0.230957)"/>
</clipPath>
<clipPath id="clip1_12474_27232">
<rect width="12" height="12" fill="white" transform="translate(10.0001 13.731)"/>
</clipPath>
</defs>
</svg>
