<svg width="30" height="31" viewBox="0 0 30 31" fill="none" xmlns="http://www.w3.org/2000/svg">
<path d="M3.09091 7C2.50073 6.99892 2 7.47013 2 8.08032V19.8032C2 20.3401 2.39436 20.7961 2.92727 20.877L12.9091 22.3818V25.4507C11.4271 25.1548 10.2129 24.9149 10.1818 24.9149C9.57964 24.9149 9.09091 25.765 9.09091 26.815C9.09091 27.8649 9.59764 28.5695 10.1818 28.715C11.582 29.0635 14.5542 29.6352 16.5047 30C16.3013 29.5467 16.1818 29.0152 16.1818 28.4436C16.1818 27.5733 16.4556 26.7932 16.8893 26.2476C16.2205 26.113 15.3904 25.9463 14.5455 25.7781V22.6288L18.7455 23.2738C18.8005 23.2819 18.8551 23.2863 18.9091 23.2863C19.5015 23.2873 20 22.8091 20 22.2005V12.9657C20 12.4315 19.6095 11.9765 19.0793 11.8929L10.2489 10.5184C9.86927 10.4587 9.54909 10.2041 9.40618 9.84901L8.77345 8.27522C8.63164 7.92343 8.31582 7.66991 7.94 7.60802L3.26982 7.0152C3.20982 7.00489 3.14927 7 3.09091 7V7Z" fill="#1E7BD2"/>
<path d="M7.09091 4C6.50073 3.99894 6 4.46591 6 5.0625V6.22063L8.52927 6.50856C9.324 6.59994 10.0031 7.10675 10.3004 7.82978L10.7929 9.02988C10.8649 9.20466 11.0269 9.3295 11.2184 9.35766L19.9598 10.6348C21.0278 10.791 21.8182 11.6845 21.8182 12.7364V20.8497L22.7455 20.9872C22.8005 20.9957 22.8551 21 22.9091 21C23.5015 21.0011 24 20.533 24 19.9375V9.831C24 9.30825 23.6095 8.86306 23.0793 8.78125L13.8824 7.44888C13.5033 7.39044 13.1825 7.14181 13.0396 6.79384L12.4069 5.25375C12.2656 4.9095 11.9498 4.66141 11.574 4.60085L7.26982 4.01488C7.20982 4.00478 7.14927 4 7.09091 4Z" fill="#1472C9" fill-opacity="0.6"/>
<path d="M25.7733 19.9875C25.8272 19.9957 25.8805 20 25.9333 20C26.5125 20.0011 27 19.5228 27 18.9143V6.97143C27 6.43726 26.6181 5.98234 26.0997 5.89874L18.1739 4.52423C17.8032 4.46452 17.4896 4.21046 17.3499 3.85489L16.7312 2.28114C16.5931 1.92937 16.2843 1.67586 15.9168 1.61397L12.2416 1.0152C12.1829 1.00489 12.1237 1 12.0667 1C11.4896 0.998916 11 1.47609 11 2.08572V2.91574L11.8731 3.01997C12.6501 3.11334 13.3141 3.63123 13.6048 4.37006L14.0864 5.59637C14.1568 5.77497 14.3152 5.90254 14.5024 5.93132L23.0496 7.23634C24.0939 7.39649 24.8667 8.30957 24.8667 9.38443V19.8453L25.7733 19.9875Z" fill="#1E7BD2"/>
<path d="M19 30C19.5523 30 20 29.1046 20 28C20 26.8954 19.5523 26 19 26C18.4477 26 18 26.8954 18 28C18 29.1046 18.4477 30 19 30Z" fill="#1E7BD2"/>
<path d="M6 27C6.55228 27 7 26.5523 7 26C7 25.4477 6.55228 25 6 25C5.44772 25 5 25.4477 5 26C5 26.5523 5.44772 27 6 27Z" fill="#1472C9" fill-opacity="0.6"/>
<path d="M22 30C22.5523 30 23 29.5523 23 29C23 28.4477 22.5523 28 22 28C21.4477 28 21 28.4477 21 29C21 29.5523 21.4477 30 22 30Z" fill="#1472C9" fill-opacity="0.6"/>
</svg>
