<svg width="32" height="33" viewBox="0 0 32 33" fill="none" xmlns="http://www.w3.org/2000/svg">
<path fill-rule="evenodd" clip-rule="evenodd" d="M19.6559 8.5H4.3799C4.10207 8.49998 3.82728 8.55785 3.57306 8.66992C3.31884 8.78198 3.09075 8.94579 2.90334 9.15088C2.71592 9.35598 2.5733 9.59788 2.48456 9.86115C2.39581 10.1244 2.36289 10.4033 2.3879 10.68L3.6619 24.68C3.7068 25.1769 3.93583 25.6391 4.30401 25.9758C4.67219 26.3126 5.15295 26.4995 5.6519 26.5H17.9999V28.5H5.6519C4.65397 28.4996 3.69223 28.1262 2.95549 27.4531C2.21875 26.78 1.76021 25.8558 1.6699 24.862L0.395896 10.862C0.310668 9.93557 0.552684 9.00855 1.0799 8.242L0.999896 6.5C0.999896 5.43913 1.42132 4.42172 2.17147 3.67157C2.92161 2.92143 3.93903 2.5 4.9999 2.5H12.3439C13.4047 2.50023 14.4219 2.9218 15.1719 3.672L16.8279 5.328C17.5779 6.0782 18.5951 6.49977 19.6559 6.5H27.6199C28.1757 6.49994 28.7255 6.61573 29.2341 6.83998C29.7427 7.06423 30.199 7.39202 30.5738 7.80244C30.9487 8.21286 31.2339 8.6969 31.4112 9.22369C31.5886 9.75047 31.6542 10.3084 31.6039 10.862L31.0919 16.5H29.0799L29.6099 10.68C29.6349 10.4035 29.602 10.1248 29.5134 9.86162C29.4248 9.59849 29.2823 9.35669 29.0951 9.15162C28.9079 8.94655 28.6801 8.78271 28.4261 8.67052C28.1721 8.55833 27.8976 8.50026 27.6199 8.5H19.6559ZM13.7559 5.086L15.1739 6.5H4.3799C3.8999 6.5 3.4399 6.584 3.0119 6.74L2.9999 6.46C3.01037 5.93653 3.22569 5.43804 3.59964 5.07157C3.97358 4.70511 4.47632 4.4999 4.9999 4.5H12.3439C12.8743 4.50011 13.3829 4.7109 13.7579 5.086H13.7559Z" fill="#032D60"/>
<path fill-rule="evenodd" clip-rule="evenodd" d="M19.0937 23.636C19.1288 23.5933 19.1721 23.5591 19.2206 23.5357C19.2691 23.5122 19.3217 23.5001 19.3749 23.5H23.125C23.2244 23.5 23.3198 23.5421 23.3902 23.6172C23.4605 23.6922 23.5 23.7939 23.5 23.9C23.5 24.5624 23.9688 25.5 25 25.5C26.0313 25.5 26.5 24.5624 26.5 23.9C26.5 23.7939 26.5395 23.6922 26.6099 23.6172C26.6802 23.5421 26.7756 23.5 26.875 23.5H30.6251C30.6783 23.5 30.7308 23.5121 30.7793 23.5354C30.8277 23.5587 30.871 23.5928 30.9062 23.6353C30.9413 23.6778 30.9676 23.7278 30.9833 23.782C30.999 23.8362 31.0037 23.8933 30.9971 23.9496L30.7046 26.4488C30.6706 26.7391 30.5383 27.0062 30.3327 27.1998C30.127 27.3933 29.8621 27.5001 29.5878 27.5H20.4122C20.1379 27.5001 19.873 27.3933 19.6674 27.1998C19.4617 27.0062 19.3294 26.7391 19.2954 26.4488L19.0029 23.9496C18.9963 23.8933 19.001 23.8362 19.0166 23.782C19.0322 23.7278 19.0585 23.6777 19.0937 23.6352V23.636Z" fill="#EF8556"/>
<path fill-rule="evenodd" clip-rule="evenodd" d="M25.4247 17.6469C25.369 17.6003 25.3028 17.5634 25.2299 17.5382C25.157 17.513 25.0789 17.5 25 17.5C24.9211 17.5 24.843 17.513 24.7701 17.5382C24.6972 17.5634 24.631 17.6003 24.5753 17.6469L22.1759 19.6466C22.1201 19.6931 22.0759 19.7482 22.0457 19.809C22.0155 19.8697 22 19.9348 22 20.0005C22 20.0663 22.0155 20.1313 22.0457 20.1921C22.0759 20.2528 22.1201 20.308 22.1759 20.3545C22.2317 20.4009 22.2979 20.4378 22.3708 20.463C22.4436 20.4881 22.5217 20.5011 22.6006 20.5011C22.6795 20.5011 22.7576 20.4881 22.8304 20.463C22.9033 20.4378 22.9695 20.4009 23.0253 20.3545L24.4002 19.2076V23.0001C24.4002 23.1327 24.4633 23.2598 24.5758 23.3536C24.6883 23.4473 24.8409 23.5 25 23.5C25.1591 23.5 25.3117 23.4473 25.4242 23.3536C25.5367 23.2598 25.5998 23.1327 25.5998 23.0001V19.2076L26.9747 20.3545C27.0873 20.4483 27.2401 20.5011 27.3994 20.5011C27.5587 20.5011 27.7115 20.4483 27.8241 20.3545C27.9367 20.2606 28 20.1333 28 20.0005C28 19.8678 27.9367 19.7404 27.8241 19.6466L25.4247 17.6469Z" fill="#EF8556"/>
<path fill-rule="evenodd" clip-rule="evenodd" d="M9.375 17.5C9.375 17.5 8.75 17.5 8.75 16.8333C8.75 16.1667 9.375 14.1667 11.875 14.1667C14.375 14.1667 15 16.1667 15 16.8333C15 17.5 14.375 17.5 14.375 17.5H9.375ZM11.875 13.5C12.3723 13.5 12.8492 13.2893 13.2008 12.9142C13.5525 12.5391 13.75 12.0304 13.75 11.5C13.75 10.9696 13.5525 10.4609 13.2008 10.0858C12.8492 9.71071 12.3723 9.5 11.875 9.5C11.3777 9.5 10.9008 9.71071 10.5492 10.0858C10.1975 10.4609 10 10.9696 10 11.5C10 12.0304 10.1975 12.5391 10.5492 12.9142C10.9008 13.2893 11.3777 13.5 11.875 13.5ZM8.26 17.5C8.16735 17.2919 8.12114 17.0637 8.125 16.8333C8.125 15.93 8.55 15 9.335 14.3533C8.94318 14.2246 8.53497 14.1616 8.125 14.1667C5.625 14.1667 5 16.1667 5 16.8333C5 17.5 5.625 17.5 5.625 17.5H8.26ZM7.8125 13.5C8.2269 13.5 8.62433 13.3244 8.91735 13.0118C9.21038 12.6993 9.375 12.2754 9.375 11.8333C9.375 11.3913 9.21038 10.9674 8.91735 10.6548C8.62433 10.3423 8.2269 10.1667 7.8125 10.1667C7.3981 10.1667 7.00067 10.3423 6.70765 10.6548C6.41462 10.9674 6.25 11.3913 6.25 11.8333C6.25 12.2754 6.41462 12.6993 6.70765 13.0118C7.00067 13.3244 7.3981 13.5 7.8125 13.5Z" fill="#EF8556"/>
</svg>
