<svg width="32" height="33" viewBox="0 0 32 33" fill="none" xmlns="http://www.w3.org/2000/svg">
<path fill-rule="evenodd" clip-rule="evenodd" d="M19.6559 8.5H4.37989C4.10206 8.49998 3.82728 8.55785 3.57306 8.66992C3.31883 8.78198 3.09074 8.94579 2.90333 9.15088C2.71592 9.35598 2.5733 9.59788 2.48455 9.86115C2.39581 10.1244 2.36289 10.4033 2.38789 10.68L3.66189 24.68C3.7068 25.1769 3.93582 25.6391 4.30401 25.9758C4.67219 26.3126 5.15294 26.4995 5.65189 26.5H17.9999V28.5H5.65189C4.65397 28.4996 3.69223 28.1262 2.95549 27.4531C2.21874 26.78 1.7602 25.8558 1.66989 24.862L0.395892 10.862C0.310664 9.93557 0.55268 9.00855 1.07989 8.242L0.999892 6.5C0.999892 5.43913 1.42132 4.42172 2.17146 3.67157C2.92161 2.92143 3.93903 2.5 4.99989 2.5H12.3439C13.4047 2.50023 14.4219 2.9218 15.1719 3.672L16.8279 5.328C17.5779 6.0782 18.5951 6.49977 19.6559 6.5H27.6199C28.1757 6.49994 28.7255 6.61573 29.2341 6.83998C29.7427 7.06423 30.199 7.39202 30.5738 7.80244C30.9487 8.21286 31.2339 8.6969 31.4112 9.22369C31.5886 9.75047 31.6542 10.3084 31.6039 10.862L31.0919 16.5H29.0799L29.6099 10.68C29.6349 10.4035 29.602 10.1248 29.5134 9.86162C29.4248 9.59849 29.2823 9.35669 29.0951 9.15162C28.9079 8.94655 28.6801 8.78271 28.4261 8.67052C28.1721 8.55833 27.8976 8.50026 27.6199 8.5H19.6559ZM13.7559 5.086L15.1739 6.5H4.37989C3.89989 6.5 3.43989 6.584 3.01189 6.74L2.99989 6.46C3.01036 5.93653 3.22569 5.43804 3.59963 5.07157C3.97358 4.70511 4.47632 4.4999 4.99989 4.5H12.3439C12.8743 4.50011 13.3829 4.7109 13.7579 5.086H13.7559Z" fill="#EF8556"/>
<path fill-rule="evenodd" clip-rule="evenodd" d="M19.0937 23.636C19.1288 23.5933 19.1721 23.5591 19.2206 23.5357C19.2691 23.5122 19.3217 23.5001 19.3749 23.5H23.125C23.2244 23.5 23.3198 23.5421 23.3902 23.6172C23.4605 23.6922 23.5 23.7939 23.5 23.9C23.5 24.5624 23.9688 25.5 25 25.5C26.0313 25.5 26.5 24.5624 26.5 23.9C26.5 23.7939 26.5395 23.6922 26.6099 23.6172C26.6802 23.5421 26.7756 23.5 26.875 23.5H30.6251C30.6783 23.5 30.7308 23.5121 30.7793 23.5354C30.8277 23.5587 30.871 23.5928 30.9062 23.6353C30.9413 23.6778 30.9676 23.7278 30.9833 23.782C30.999 23.8362 31.0037 23.8933 30.9971 23.9496L30.7046 26.4488C30.6706 26.7391 30.5383 27.0062 30.3327 27.1998C30.127 27.3933 29.8621 27.5001 29.5878 27.5H20.4122C20.1379 27.5001 19.873 27.3933 19.6674 27.1998C19.4617 27.0062 19.3294 26.7391 19.2954 26.4488L19.0029 23.9496C18.9963 23.8933 19.001 23.8362 19.0166 23.782C19.0322 23.7278 19.0585 23.6777 19.0937 23.6352V23.636Z" fill="#032D60"/>
<path fill-rule="evenodd" clip-rule="evenodd" d="M24.5753 23.3531C24.631 23.3997 24.6972 23.4366 24.7701 23.4618C24.843 23.487 24.9211 23.5 25 23.5C25.0789 23.5 25.157 23.487 25.2299 23.4618C25.3028 23.4366 25.369 23.3997 25.4247 23.3531L27.8241 21.3534C27.8799 21.3069 27.9241 21.2518 27.9543 21.191C27.9845 21.1303 28 21.0652 28 20.9995C28 20.9337 27.9845 20.8687 27.9543 20.8079C27.9241 20.7472 27.8799 20.692 27.8241 20.6455C27.7683 20.5991 27.7021 20.5622 27.6292 20.537C27.5564 20.5119 27.4783 20.4989 27.3994 20.4989C27.3205 20.4989 27.2424 20.5119 27.1696 20.537C27.0967 20.5622 27.0305 20.5991 26.9747 20.6455L25.5998 21.7924V17.9999C25.5998 17.8673 25.5367 17.7402 25.4242 17.6464C25.3117 17.5527 25.1591 17.5 25 17.5C24.8409 17.5 24.6883 17.5527 24.5758 17.6464C24.4633 17.7402 24.4002 17.8673 24.4002 17.9999V21.7924L23.0253 20.6455C22.9127 20.5517 22.7599 20.4989 22.6006 20.4989C22.4413 20.4989 22.2885 20.5517 22.1759 20.6455C22.0633 20.7394 22 20.8667 22 20.9995C22 21.1322 22.0633 21.2596 22.1759 21.3534L24.5753 23.3531Z" fill="#032D60"/>
<path fill-rule="evenodd" clip-rule="evenodd" d="M9.375 17.5C9.375 17.5 8.75 17.5 8.75 16.8333C8.75 16.1667 9.375 14.1667 11.875 14.1667C14.375 14.1667 15 16.1667 15 16.8333C15 17.5 14.375 17.5 14.375 17.5H9.375ZM11.875 13.5C12.3723 13.5 12.8492 13.2893 13.2008 12.9142C13.5525 12.5391 13.75 12.0304 13.75 11.5C13.75 10.9696 13.5525 10.4609 13.2008 10.0858C12.8492 9.71071 12.3723 9.5 11.875 9.5C11.3777 9.5 10.9008 9.71071 10.5492 10.0858C10.1975 10.4609 10 10.9696 10 11.5C10 12.0304 10.1975 12.5391 10.5492 12.9142C10.9008 13.2893 11.3777 13.5 11.875 13.5ZM8.26 17.5C8.16735 17.2919 8.12114 17.0637 8.125 16.8333C8.125 15.93 8.55 15 9.335 14.3533C8.94318 14.2246 8.53497 14.1616 8.125 14.1667C5.625 14.1667 5 16.1667 5 16.8333C5 17.5 5.625 17.5 5.625 17.5H8.26ZM7.8125 13.5C8.2269 13.5 8.62433 13.3244 8.91735 13.0118C9.21038 12.6993 9.375 12.2754 9.375 11.8333C9.375 11.3913 9.21038 10.9674 8.91735 10.6548C8.62433 10.3423 8.2269 10.1667 7.8125 10.1667C7.3981 10.1667 7.00067 10.3423 6.70765 10.6548C6.41462 10.9674 6.25 11.3913 6.25 11.8333C6.25 12.2754 6.41462 12.6993 6.70765 13.0118C7.00067 13.3244 7.3981 13.5 7.8125 13.5Z" fill="#032D60"/>
</svg>
