<svg width="32" height="33" viewBox="0 0 32 33" fill="none" xmlns="http://www.w3.org/2000/svg">
<path fill-rule="evenodd" clip-rule="evenodd" d="M19.6559 8.5H4.37989C4.10206 8.49998 3.82728 8.55785 3.57306 8.66992C3.31883 8.78198 3.09074 8.94579 2.90333 9.15088C2.71592 9.35598 2.5733 9.59788 2.48455 9.86115C2.39581 10.1244 2.36289 10.4033 2.38789 10.68L3.66189 24.68C3.7068 25.1769 3.93582 25.6391 4.30401 25.9758C4.67219 26.3126 5.15294 26.4995 5.65189 26.5H17.9999V28.5H5.65189C4.65397 28.4996 3.69223 28.1262 2.95549 27.4531C2.21874 26.78 1.7602 25.8558 1.66989 24.862L0.395892 10.862C0.310664 9.93557 0.55268 9.00855 1.07989 8.242L0.999892 6.5C0.999892 5.43913 1.42132 4.42172 2.17146 3.67157C2.92161 2.92143 3.93903 2.5 4.99989 2.5H12.3439C13.4047 2.50023 14.4219 2.9218 15.1719 3.672L16.8279 5.328C17.5779 6.0782 18.5951 6.49977 19.6559 6.5H27.6199C28.1757 6.49994 28.7255 6.61573 29.2341 6.83998C29.7427 7.06423 30.199 7.39202 30.5738 7.80244C30.9487 8.21286 31.2339 8.6969 31.4112 9.22369C31.5886 9.75047 31.6542 10.3084 31.6039 10.862L31.0919 16.5H29.0799L29.6099 10.68C29.6349 10.4035 29.602 10.1248 29.5134 9.86162C29.4248 9.59849 29.2823 9.35669 29.0951 9.15162C28.9079 8.94655 28.6801 8.78271 28.4261 8.67052C28.1721 8.55833 27.8976 8.50026 27.6199 8.5H19.6559ZM13.7559 5.086L15.1739 6.5H4.37989C3.89989 6.5 3.43989 6.584 3.01189 6.74L2.99989 6.46C3.01036 5.93653 3.22569 5.43804 3.59963 5.07157C3.97358 4.70511 4.47632 4.4999 4.99989 4.5H12.3439C12.8743 4.50011 13.3829 4.7109 13.7579 5.086H13.7559Z" fill="#032D60"/>
<path d="M24.6903 25.2069L19.6515 22.1441C19.5538 22.0815 19.4735 21.9959 19.418 21.8951C19.3624 21.7944 19.3333 21.6816 19.3333 21.567C19.3333 21.4524 19.3624 21.3396 19.418 21.2389C19.4735 21.1381 19.5538 21.0525 19.6515 20.9899L24.6903 17.9256C25.1179 17.6673 25.6658 17.9816 25.6658 18.5042V19.7004C27.0229 19.7004 31.0958 19.7004 32 27.1668C29.7371 22.967 25.6658 23.4336 25.6658 23.4336V24.6298C25.6658 25.1524 25.1179 25.4667 24.6903 25.2069Z" fill="#EF8556"/>
<path fill-rule="evenodd" clip-rule="evenodd" d="M9.375 17.5C9.375 17.5 8.75 17.5 8.75 16.8333C8.75 16.1667 9.375 14.1667 11.875 14.1667C14.375 14.1667 15 16.1667 15 16.8333C15 17.5 14.375 17.5 14.375 17.5H9.375ZM11.875 13.5C12.3723 13.5 12.8492 13.2893 13.2008 12.9142C13.5525 12.5391 13.75 12.0304 13.75 11.5C13.75 10.9696 13.5525 10.4609 13.2008 10.0858C12.8492 9.71071 12.3723 9.5 11.875 9.5C11.3777 9.5 10.9008 9.71071 10.5492 10.0858C10.1975 10.4609 10 10.9696 10 11.5C10 12.0304 10.1975 12.5391 10.5492 12.9142C10.9008 13.2893 11.3777 13.5 11.875 13.5ZM8.26 17.5C8.16735 17.2919 8.12114 17.0637 8.125 16.8333C8.125 15.93 8.55 15 9.335 14.3533C8.94318 14.2246 8.53497 14.1616 8.125 14.1667C5.625 14.1667 5 16.1667 5 16.8333C5 17.5 5.625 17.5 5.625 17.5H8.26ZM7.8125 13.5C8.2269 13.5 8.62433 13.3244 8.91735 13.0118C9.21038 12.6993 9.375 12.2754 9.375 11.8333C9.375 11.3913 9.21038 10.9674 8.91735 10.6548C8.62433 10.3423 8.2269 10.1667 7.8125 10.1667C7.3981 10.1667 7.00067 10.3423 6.70765 10.6548C6.41462 10.9674 6.25 11.3913 6.25 11.8333C6.25 12.2754 6.41462 12.6993 6.70765 13.0118C7.00067 13.3244 7.3981 13.5 7.8125 13.5Z" fill="#EF8556"/>
</svg>
