<svg width="32" height="33" viewBox="0 0 32 33" fill="none" xmlns="http://www.w3.org/2000/svg">
<path d="M6.85702 21.0708H2.28567C1.02333 21.0708 0 22.0941 0 23.3565V30.2135C0 31.4758 1.02333 32.4992 2.28567 32.4992H6.85702C8.11936 32.4992 9.14269 31.4758 9.14269 30.2135V23.3565C9.14269 22.0941 8.11936 21.0708 6.85702 21.0708Z" fill="#1E7BD2"/>
<path d="M18.2855 11.9287H13.7141C12.4518 11.9287 11.4285 12.952 11.4285 14.2144V30.2141C11.4285 31.4764 12.4518 32.4998 13.7141 32.4998H18.2855C19.5478 32.4998 20.5712 31.4764 20.5712 30.2141V14.2144C20.5712 12.952 19.5478 11.9287 18.2855 11.9287Z" fill="#1472C9" fill-opacity="0.6"/>
<path d="M29.7137 0.5H25.1424C23.88 0.5 22.8567 1.52333 22.8567 2.78567V30.2137C22.8567 31.4761 23.88 32.4994 25.1424 32.4994H29.7137C30.976 32.4994 31.9994 31.4761 31.9994 30.2137V2.78567C31.9994 1.52333 30.976 0.5 29.7137 0.5Z" fill="#1E7BD2"/>
</svg>
