<svg width="30" height="31" viewBox="0 0 30 31" fill="none" xmlns="http://www.w3.org/2000/svg">
<path d="M6.42851 19.5161H2.14284C0.959381 19.5161 0 20.4755 0 21.659V28.0875C0 29.2709 0.959381 30.2303 2.14284 30.2303H6.42851C7.61197 30.2303 8.57135 29.2709 8.57135 28.0875V21.659C8.57135 20.4755 7.61197 19.5161 6.42851 19.5161Z" fill="#0A77DB"/>
<path d="M17.1428 10.9453H12.8571C11.6737 10.9453 10.7143 11.9047 10.7143 13.0882V28.088C10.7143 29.2715 11.6737 30.2309 12.8571 30.2309H17.1428C18.3263 30.2309 19.2856 29.2715 19.2856 28.088V13.0882C19.2856 11.9047 18.3263 10.9453 17.1428 10.9453Z" fill="#0A77DB" fill-opacity="0.5"/>
<path d="M27.8569 0.230957H23.5712C22.3877 0.230957 21.4283 1.19034 21.4283 2.3738V28.0879C21.4283 29.2713 22.3877 30.2307 23.5712 30.2307H27.8569C29.0403 30.2307 29.9997 29.2713 29.9997 28.0879V2.3738C29.9997 1.19034 29.0403 0.230957 27.8569 0.230957Z" fill="#0A77DB"/>
</svg>
