<svg width="32" height="32" viewBox="0 0 32 32" fill="none" xmlns="http://www.w3.org/2000/svg">
<path fill-rule="evenodd" clip-rule="evenodd" d="M8 22H4V28H8V22ZM2 22C2 21.4696 2.21071 20.9609 2.58579 20.5858C2.96086 20.2107 3.46957 20 4 20H8C8.53043 20 9.03914 20.2107 9.41421 20.5858C9.78929 20.9609 10 21.4696 10 22V28C10 28.5304 9.78929 29.0391 9.41421 29.4142C9.03914 29.7893 8.53043 30 8 30H4C3.46957 30 2.96086 29.7893 2.58579 29.4142C2.21071 29.0391 2 28.5304 2 28V22Z" fill="#EF8556"/>
<path fill-rule="evenodd" clip-rule="evenodd" d="M18 14H14V28H18V14ZM12 14C12 13.4696 12.2107 12.9609 12.5858 12.5858C12.9609 12.2107 13.4696 12 14 12H18C18.5304 12 19.0391 12.2107 19.4142 12.5858C19.7893 12.9609 20 13.4696 20 14V28C20 28.5304 19.7893 29.0391 19.4142 29.4142C19.0391 29.7893 18.5304 30 18 30H14C13.4696 30 12.9609 29.7893 12.5858 29.4142C12.2107 29.0391 12 28.5304 12 28V14Z" fill="#032D60"/>
<path fill-rule="evenodd" clip-rule="evenodd" d="M28 4H24V28H28V4ZM24 2C23.4696 2 22.9609 2.21071 22.5858 2.58579C22.2107 2.96086 22 3.46957 22 4V28C22 28.5304 22.2107 29.0391 22.5858 29.4142C22.9609 29.7893 23.4696 30 24 30H28C28.5304 30 29.0391 29.7893 29.4142 29.4142C29.7893 29.0391 30 28.5304 30 28V4C30 3.46957 29.7893 2.96086 29.4142 2.58579C29.0391 2.21071 28.5304 2 28 2H24Z" fill="#EF8556"/>
</svg>
