<svg width="32" height="33" viewBox="0 0 32 33" fill="none" xmlns="http://www.w3.org/2000/svg">
<path opacity="0.6" d="M11.625 1H20.375C20.72 1 21 1.298 21 1.66667V4.33333C21 4.702 20.72 5 20.375 5H11.625C11.28 5 11 4.702 11 4.33333V1.66667C11 1.298 11.28 1 11.625 1Z" fill="#005DC7"/>
<path d="M27.7619 4H22.1905C22.1905 5.02916 21.3572 5.86667 20.3333 5.86667H11.6667C10.6428 5.86667 9.80952 5.02916 9.80952 4H4.2381C3.55467 4 3 4.55751 3 5.24444V30.7556C3 31.4425 3.55467 32 4.2381 32H27.7619C28.4453 32 29 31.4425 29 30.7556V5.24444C29 4.55751 28.4453 4 27.7619 4ZM25.9048 28.8889H6.09524V7.73333H25.9048V28.8889Z" fill="#005DC7"/>
<path d="M9.5 14C10.8807 14 12 12.8807 12 11.5C12 10.1193 10.8807 9 9.5 9C8.11929 9 7 10.1193 7 11.5C7 12.8807 8.11929 14 9.5 14Z" fill="#005DC7"/>
<path d="M9.5 27C10.8807 27 12 25.8807 12 24.5C12 23.1193 10.8807 22 9.5 22C8.11929 22 7 23.1193 7 24.5C7 25.8807 8.11929 27 9.5 27Z" fill="#005DC7"/>
<path d="M9.5 20C10.8807 20 12 19.1046 12 18C12 16.8954 10.8807 16 9.5 16C8.11929 16 7 16.8954 7 18C7 19.1046 8.11929 20 9.5 20Z" fill="#005DC7"/>
<path opacity="0.6" d="M22.9615 10C23.5348 10 24 10.672 24 11.5C24 12.328 23.5348 13 22.9615 13H16.0385C15.4645 13 15 12.328 15 11.5C15 10.672 15.4645 10 16.0385 10H22.9615Z" fill="#005DC7"/>
<path opacity="0.6" d="M22.9615 17C23.5348 17 24 17.448 24 18C24 18.552 23.5348 19 22.9615 19H16.0385C15.4645 19 15 18.552 15 18C15 17.448 15.4645 17 16.0385 17H22.9615Z" fill="#005DC7"/>
<path opacity="0.6" d="M22.9615 23C23.5348 23 24 23.672 24 24.5C24 25.328 23.5348 26 22.9615 26H16.0385C15.4645 26 15 25.328 15 24.5C15 23.672 15.4645 23 16.0385 23H22.9615Z" fill="#005DC7"/>
</svg>
