<svg width="30" height="31" viewBox="0 0 30 31" fill="none" xmlns="http://www.w3.org/2000/svg">
<g clip-path="url(#clip0_12462_14847)">
<path opacity="0.6" d="M10.8987 0.699707H19.1019C19.4253 0.699707 19.6878 0.979082 19.6878 1.32471V3.82471C19.6878 4.17033 19.4253 4.44971 19.1019 4.44971H10.8987C10.5753 4.44971 10.3128 4.17033 10.3128 3.82471V1.32471C10.3128 0.979082 10.5753 0.699707 10.8987 0.699707Z" fill="#0A77DB"/>
<path d="M26.0271 3.51221H20.8039C20.8039 4.47704 20.0227 5.26221 19.0628 5.26221H10.9378C9.97789 5.26221 9.19673 4.47704 9.19673 3.51221H3.97352C3.33281 3.51221 2.81281 4.03487 2.81281 4.67887V28.5955C2.81281 29.2395 3.33281 29.7622 3.97352 29.7622H26.0271C26.6678 29.7622 27.1878 29.2395 27.1878 28.5955V4.67887C27.1878 4.03487 26.6678 3.51221 26.0271 3.51221ZM24.286 26.8455H5.71459V7.01221H24.286V26.8455Z" fill="#0A77DB"/>
<path d="M8.90656 12.8872C10.201 12.8872 11.2503 11.8379 11.2503 10.5435C11.2503 9.24904 10.201 8.19971 8.90656 8.19971C7.61214 8.19971 6.56281 9.24904 6.56281 10.5435C6.56281 11.8379 7.61214 12.8872 8.90656 12.8872Z" fill="#0A77DB"/>
<path d="M8.90656 25.0747C10.201 25.0747 11.2503 24.0254 11.2503 22.731C11.2503 21.4365 10.201 20.3872 8.90656 20.3872C7.61214 20.3872 6.56281 21.4365 6.56281 22.731C6.56281 24.0254 7.61214 25.0747 8.90656 25.0747Z" fill="#0A77DB"/>
<path d="M8.90656 18.5122C10.201 18.5122 11.2503 17.6727 11.2503 16.6372C11.2503 15.6017 10.201 14.7622 8.90656 14.7622C7.61214 14.7622 6.56281 15.6017 6.56281 16.6372C6.56281 17.6727 7.61214 18.5122 8.90656 18.5122Z" fill="#0A77DB"/>
<path opacity="0.6" d="M21.5267 9.13721C22.0642 9.13721 22.5003 9.76721 22.5003 10.5435C22.5003 11.3197 22.0642 11.9497 21.5267 11.9497H15.0364C14.4983 11.9497 14.0628 11.3197 14.0628 10.5435C14.0628 9.76721 14.4983 9.13721 15.0364 9.13721H21.5267Z" fill="#0A77DB"/>
<path opacity="0.6" d="M21.5267 15.6997C22.0642 15.6997 22.5003 16.1197 22.5003 16.6372C22.5003 17.1547 22.0642 17.5747 21.5267 17.5747H15.0364C14.4983 17.5747 14.0628 17.1547 14.0628 16.6372C14.0628 16.1197 14.4983 15.6997 15.0364 15.6997H21.5267Z" fill="#0A77DB"/>
<path opacity="0.6" d="M21.5267 21.3247C22.0642 21.3247 22.5003 21.9547 22.5003 22.731C22.5003 23.5072 22.0642 24.1372 21.5267 24.1372H15.0364C14.4983 24.1372 14.0628 23.5072 14.0628 22.731C14.0628 21.9547 14.4983 21.3247 15.0364 21.3247H21.5267Z" fill="#0A77DB"/>
</g>
<defs>
<clipPath id="clip0_12462_14847">
<rect width="30" height="30" fill="white" transform="translate(-0.000244141 0.230957)"/>
</clipPath>
</defs>
</svg>
