<svg width="32" height="33" viewBox="0 0 32 33" fill="none" xmlns="http://www.w3.org/2000/svg">
<path d="M29.6424 19.9847L27.1303 18.5464C27.3838 17.1899 27.3838 15.7984 27.1303 14.4419L29.6424 13.0036C29.9313 12.8399 30.061 12.5008 29.9667 12.1851C29.3121 10.1037 28.1976 8.221 26.7411 6.65407C26.517 6.41435 26.1514 6.35589 25.8683 6.51959L23.3562 7.9579C22.3006 7.0575 21.0859 6.36173 19.7709 5.90569V3.03493C19.7709 2.70751 19.5409 2.42102 19.2165 2.35086C17.0524 1.87143 14.8351 1.89481 12.7771 2.35086C12.4527 2.42102 12.2227 2.70751 12.2227 3.03493V5.91153C10.9136 6.37343 9.69884 7.06919 8.63739 7.96374L6.13118 6.52544C5.84223 6.36173 5.48252 6.41435 5.25843 6.65992C3.80188 8.221 2.68736 10.1037 2.03279 12.1909C1.93255 12.5067 2.06818 12.8458 2.35713 13.0095L4.86923 14.4478C4.61566 15.8042 4.61566 17.1958 4.86923 18.5522L2.35713 19.9905C2.06818 20.1542 1.93844 20.4933 2.03279 20.8091C2.68736 22.8905 3.80188 24.7732 5.25843 26.3401C5.48252 26.5798 5.84813 26.6383 6.13118 26.4746L8.64329 25.0363C9.69884 25.9367 10.9136 26.6324 12.2286 27.0885V29.9651C12.2286 30.2925 12.4586 30.579 12.783 30.6491C14.9471 31.1286 17.1644 31.1052 19.2224 30.6491C19.5468 30.579 19.7767 30.2925 19.7767 29.9651V27.0885C21.0859 26.6266 22.3006 25.9308 23.3621 25.0363L25.8742 26.4746C26.1632 26.6383 26.5229 26.5856 26.747 26.3401C28.2035 24.779 29.318 22.8963 29.9726 20.8091C30.061 20.4875 29.9313 20.1484 29.6424 19.9847ZM15.9968 21.1716C13.3962 21.1716 11.2792 19.0726 11.2792 16.4942C11.2792 13.9157 13.3962 11.8168 15.9968 11.8168C18.5974 11.8168 20.7144 13.9157 20.7144 16.4942C20.7144 19.0726 18.5974 21.1716 15.9968 21.1716Z" fill="#25A0DB"/>
</svg>
