<svg width="32" height="33" viewBox="0 0 32 33" fill="none" xmlns="http://www.w3.org/2000/svg">
<path fill-rule="evenodd" clip-rule="evenodd" d="M25.2854 30.5C27.9574 30.5 29.9994 28.19 29.9994 25.5V10.5H1.99939V25.5C1.99939 28.19 4.04139 30.5 6.71339 30.5H25.2854ZM11.9994 14.5C11.7342 14.5 11.4798 14.6054 11.2923 14.7929C11.1047 14.9804 10.9994 15.2348 10.9994 15.5C10.9994 15.7652 11.1047 16.0196 11.2923 16.2071C11.4798 16.3946 11.7342 16.5 11.9994 16.5H19.9994C20.2646 16.5 20.519 16.3946 20.7065 16.2071C20.894 16.0196 20.9994 15.7652 20.9994 15.5C20.9994 15.2348 20.894 14.9804 20.7065 14.7929C20.519 14.6054 20.2646 14.5 19.9994 14.5H11.9994Z" fill="#1E7BD2"/>
<path d="M0.468019 2.96863C0.768077 2.66857 1.17504 2.5 1.59939 2.5H30.3994C30.8237 2.5 31.2307 2.66857 31.5308 2.96863C31.8308 3.26869 31.9994 3.67565 31.9994 4.1V6.5C31.9994 6.92435 31.8308 7.33131 31.5308 7.63137C31.2307 7.93143 30.8237 8.1 30.3994 8.1H1.59939C1.17504 8.1 0.768077 7.93143 0.468019 7.63137C0.167961 7.33131 -0.000610352 6.92435 -0.000610352 6.5V4.1C-0.000610352 3.67565 0.167961 3.26869 0.468019 2.96863Z" fill="#1472C9" fill-opacity="0.6"/>
</svg>
