<svg width="30" height="31" viewBox="0 0 30 31" fill="none" xmlns="http://www.w3.org/2000/svg">
<g clip-path="url(#clip0_12474_27224)">
<path d="M28.9577 10.9165H6.79106C6.23864 10.9165 5.77839 11.3015 5.65764 11.8172L2.15647 26.9891C2.13664 27.0731 2.12439 27.16 2.12439 27.2498C2.12439 27.8938 2.64706 28.4165 3.29106 28.4165H8.91031C14.0006 28.4165 8.91031 28.4165 14.0006 28.4165C19.8385 28.4165 14.0006 28.4165 19.8385 28.4165H25.4577C26.0101 28.4165 26.4704 28.0315 26.5911 27.5158L30.0923 12.3439C30.1121 12.2599 30.1244 12.173 30.1244 12.0832C30.1244 11.4392 29.6017 10.9165 28.9577 10.9165Z" fill="#1E7BD2"/>
<path d="M6.79108 9.16667H27.7911V3.33333C27.7911 2.04475 26.7463 1 25.4577 1H18.645C17.8073 1 17.0344 1.44917 16.6185 2.176L14.9577 5.08333H2.12441C0.835827 5.08333 -0.208923 6.12808 -0.208923 7.41667V24.9913C-0.208923 25.2719 0.0191601 25.5 0.300327 25.5C0.53716 25.5 0.742493 25.3384 0.79616 25.1068C1.68341 21.2492 3.97008 11.3746 3.97766 11.3477C4.31599 10.0586 5.45816 9.16667 6.79108 9.16667V9.16667Z" fill="#1472C9" fill-opacity="0.6"/>
<path fill-rule="evenodd" clip-rule="evenodd" d="M11 26C11 26 10 26 10 25C10 24 11 21 16 21C21 21 22 24 22 25C22 26 21 26 21 26H11ZM16 20C16.7956 20 17.5587 19.6839 18.1213 19.1213C18.6839 18.5587 19 17.7956 19 17C19 16.2044 18.6839 15.4413 18.1213 14.8787C17.5587 14.3161 16.7956 14 16 14C15.2044 14 14.4413 14.3161 13.8787 14.8787C13.3161 15.4413 13 16.2044 13 17C13 17.7956 13.3161 18.5587 13.8787 19.1213C14.4413 19.6839 15.2044 20 16 20Z" fill="white"/>
</g>
<defs>
<clipPath id="clip0_12474_27224">
<rect width="30" height="30" fill="white" transform="translate(-0.000610352 0.5)"/>
</clipPath>
</defs>
</svg>
