<svg width="30" height="31" viewBox="0 0 30 31" fill="none" xmlns="http://www.w3.org/2000/svg">
<g clip-path="url(#clip0_12474_27224)">
<path d="M28.9581 10.6475H6.79142C6.23901 10.6475 5.77876 11.0325 5.65801 11.5481L2.15684 26.72C2.13701 26.804 2.12476 26.891 2.12476 26.9808C2.12476 27.6248 2.64742 28.1475 3.29142 28.1475H8.91067C14.001 28.1475 8.91067 28.1475 14.001 28.1475C19.8388 28.1475 14.001 28.1475 19.8388 28.1475H25.4581C26.0105 28.1475 26.4708 27.7625 26.5915 27.2468L30.0927 12.0749C30.1125 11.9909 30.1248 11.904 30.1248 11.8141C30.1248 11.1701 29.6021 10.6475 28.9581 10.6475Z" fill="#0A77DB"/>
<path d="M6.79144 8.89762H27.7914V3.06429C27.7914 1.77571 26.7467 0.730957 25.4581 0.730957H18.6454C17.8077 0.730957 17.0348 1.18012 16.6189 1.90696L14.9581 4.81429H2.12478C0.836193 4.81429 -0.208557 5.85904 -0.208557 7.14762V24.7223C-0.208557 25.0029 0.0195263 25.231 0.300693 25.231C0.537526 25.231 0.74286 25.0694 0.796526 24.8378C1.68378 20.9802 3.97044 11.1055 3.97803 11.0787C4.31636 9.78954 5.45853 8.89762 6.79144 8.89762Z" fill="#0A77DB" fill-opacity="0.5"/>
<path fill-rule="evenodd" clip-rule="evenodd" d="M11.0004 25.731C11.0004 25.731 10.0004 25.731 10.0004 24.731C10.0004 23.731 11.0004 20.731 16.0004 20.731C21.0004 20.731 22.0004 23.731 22.0004 24.731C22.0004 25.731 21.0004 25.731 21.0004 25.731H11.0004ZM16.0004 19.731C16.796 19.731 17.5591 19.4149 18.1217 18.8523C18.6843 18.2897 19.0004 17.5266 19.0004 16.731C19.0004 15.9353 18.6843 15.1722 18.1217 14.6096C17.5591 14.047 16.796 13.731 16.0004 13.731C15.2047 13.731 14.4417 14.047 13.879 14.6096C13.3164 15.1722 13.0004 15.9353 13.0004 16.731C13.0004 17.5266 13.3164 18.2897 13.879 18.8523C14.4417 19.4149 15.2047 19.731 16.0004 19.731Z" fill="white" fill-opacity="0.9"/>
</g>
<defs>
<clipPath id="clip0_12474_27224">
<rect width="30" height="30" fill="white" transform="translate(-0.000244141 0.230957)"/>
</clipPath>
</defs>
</svg>
