<svg width="32" height="32" viewBox="0 0 32 32" fill="none" xmlns="http://www.w3.org/2000/svg">
<g clip-path="url(#clip0_12367_26788)">
<path fill-rule="evenodd" clip-rule="evenodd" d="M21.708 16.2918C21.8012 16.3847 21.8751 16.4951 21.9255 16.6166C21.9759 16.7381 22.0018 16.8683 22.0018 16.9998C22.0018 17.1314 21.9759 17.2616 21.9255 17.3831C21.8751 17.5046 21.8012 17.6149 21.708 17.7078L15.708 23.7078C15.6152 23.801 15.5048 23.8748 15.3833 23.9253C15.2618 23.9757 15.1316 24.0016 15 24.0016C14.8685 24.0016 14.7383 23.9757 14.6168 23.9253C14.4953 23.8748 14.3849 23.801 14.292 23.7078L11.292 20.7078C11.1991 20.6149 11.1253 20.5045 11.075 20.383C11.0247 20.2615 10.9988 20.1313 10.9988 19.9998C10.9988 19.8683 11.0247 19.7381 11.075 19.6167C11.1253 19.4952 11.1991 19.3848 11.292 19.2918C11.4798 19.1041 11.7345 18.9986 12 18.9986C12.1315 18.9986 12.2617 19.0245 12.3832 19.0748C12.5047 19.1251 12.6151 19.1989 12.708 19.2918L15 21.5858L20.292 16.2918C20.3849 16.1987 20.4953 16.1248 20.6168 16.0744C20.7383 16.024 20.8685 15.998 21 15.998C21.1316 15.998 21.2618 16.024 21.3833 16.0744C21.5048 16.1248 21.6152 16.1987 21.708 16.2918V16.2918Z" fill="black"/>
<path fill-rule="evenodd" clip-rule="evenodd" d="M28 4H4C3.46957 4 2.96086 4.21071 2.58579 4.58579C2.21071 4.96086 2 5.46957 2 6V28C2 28.5304 2.21071 29.0391 2.58579 29.4142C2.96086 29.7893 3.46957 30 4 30H28C28.5304 30 29.0391 29.7893 29.4142 29.4142C29.7893 29.0391 30 28.5304 30 28V6C30 5.46957 29.7893 4.96086 29.4142 4.58579C29.0391 4.21071 28.5304 4 28 4V4ZM4 2C2.93913 2 1.92172 2.42143 1.17157 3.17157C0.421427 3.92172 0 4.93913 0 6L0 28C0 29.0609 0.421427 30.0783 1.17157 30.8284C1.92172 31.5786 2.93913 32 4 32H28C29.0609 32 30.0783 31.5786 30.8284 30.8284C31.5786 30.0783 32 29.0609 32 28V6C32 4.93913 31.5786 3.92172 30.8284 3.17157C30.0783 2.42143 29.0609 2 28 2H4Z" fill="black" fill-opacity="0.6"/>
<path fill-rule="evenodd" clip-rule="evenodd" d="M7 0C7.26522 0 7.51957 0.105357 7.70711 0.292893C7.89464 0.48043 8 0.734784 8 1V2C8 2.26522 7.89464 2.51957 7.70711 2.70711C7.51957 2.89464 7.26522 3 7 3C6.73478 3 6.48043 2.89464 6.29289 2.70711C6.10536 2.51957 6 2.26522 6 2V1C6 0.734784 6.10536 0.48043 6.29289 0.292893C6.48043 0.105357 6.73478 0 7 0V0ZM25 0C25.2652 0 25.5196 0.105357 25.7071 0.292893C25.8946 0.48043 26 0.734784 26 1V2C26 2.26522 25.8946 2.51957 25.7071 2.70711C25.5196 2.89464 25.2652 3 25 3C24.7348 3 24.4804 2.89464 24.2929 2.70711C24.1054 2.51957 24 2.26522 24 2V1C24 0.734784 24.1054 0.48043 24.2929 0.292893C24.4804 0.105357 24.7348 0 25 0V0Z" fill="black" fill-opacity="0.6"/>
<path d="M5 8C5 7.73478 5.10536 7.48043 5.29289 7.29289C5.48043 7.10536 5.73478 7 6 7H26C26.2652 7 26.5196 7.10536 26.7071 7.29289C26.8946 7.48043 27 7.73478 27 8V10C27 10.2652 26.8946 10.5196 26.7071 10.7071C26.5196 10.8946 26.2652 11 26 11H6C5.73478 11 5.48043 10.8946 5.29289 10.7071C5.10536 10.5196 5 10.2652 5 10V8Z" fill="black"/>
</g>
<defs>
<clipPath id="clip0_12367_26788">
<rect width="32" height="32" fill="white"/>
</clipPath>
</defs>
</svg>
