<svg width="32" height="33" viewBox="0 0 32 33" fill="none" xmlns="http://www.w3.org/2000/svg">
<path fill-rule="evenodd" clip-rule="evenodd" d="M5.99939 28.5C5.99939 28.5 3.99939 28.5 3.99939 26.5C3.99939 24.5 5.99939 18.5 15.9994 18.5C25.9994 18.5 27.9994 24.5 27.9994 26.5C27.9994 28.5 25.9994 28.5 25.9994 28.5H5.99939ZM15.9994 16.5C17.5907 16.5 19.1168 15.8679 20.242 14.7426C21.3672 13.6174 21.9994 12.0913 21.9994 10.5C21.9994 8.9087 21.3672 7.38258 20.242 6.25736C19.1168 5.13214 17.5907 4.5 15.9994 4.5C14.4081 4.5 12.882 5.13214 11.7567 6.25736C10.6315 7.38258 9.99939 8.9087 9.99939 10.5C9.99939 12.0913 10.6315 13.6174 11.7567 14.7426C12.882 15.8679 14.4081 16.5 15.9994 16.5V16.5Z" fill="#25A0DB"/>
</svg>
