<svg width="30" height="31" viewBox="0 0 30 31" fill="none" xmlns="http://www.w3.org/2000/svg">
<g clip-path="url(#clip0_12400_9785)">
<path opacity="0.6" d="M14.3744 17.3335C11.1527 17.3335 8.54108 19.9451 8.54108 23.1668C8.54108 26.388 11.1527 29.0002 14.3744 29.0002C17.5962 29.0002 20.2077 26.388 20.2077 23.1668C20.2077 19.9451 17.5962 17.3335 14.3744 17.3335ZM17.4357 22.9119L14.5191 25.2452C14.3196 25.4045 14.067 25.5002 13.7911 25.5002C13.4685 25.5002 13.1768 25.3695 12.9662 25.1583L11.2162 23.4083C11.0051 23.1977 10.8744 22.9061 10.8744 22.5835C10.8744 21.9395 11.3971 21.4168 12.0411 21.4168C12.3637 21.4168 12.6553 21.5475 12.8659 21.7587L13.8774 22.7702L15.9797 21.0884C16.1792 20.9292 16.4318 20.8335 16.7077 20.8335C17.3517 20.8335 17.8744 21.3562 17.8744 22.0002C17.8744 22.3694 17.7035 22.6978 17.4357 22.9119V22.9119Z" fill="#25A0DB"/>
<path d="M28.9577 10.9165H6.79106C6.23864 10.9165 5.77839 11.3015 5.65764 11.8172L2.15647 26.9891C2.13664 27.0731 2.12439 27.16 2.12439 27.2498C2.12439 27.8938 2.64706 28.4165 3.29106 28.4165H8.91031C7.60014 27.0538 6.79106 25.2058 6.79106 23.1665C6.79106 18.9782 10.1861 15.5832 14.3744 15.5832C18.5627 15.5832 21.9577 18.9782 21.9577 23.1665C21.9577 25.2058 21.1486 27.0538 19.8385 28.4165H25.4577C26.0101 28.4165 26.4704 28.0315 26.5911 27.5158L30.0923 12.3439C30.1121 12.2599 30.1244 12.173 30.1244 12.0832C30.1244 11.4392 29.6017 10.9165 28.9577 10.9165V10.9165Z" fill="#25A0DB"/>
<path d="M6.79108 9.16667H27.7911V3.33333C27.7911 2.04475 26.7463 1 25.4577 1H18.645C17.8073 1 17.0344 1.44917 16.6185 2.176L14.9577 5.08333H2.12441C0.835827 5.08333 -0.208923 6.12808 -0.208923 7.41667V24.9913C-0.208923 25.2719 0.0191601 25.5 0.300327 25.5C0.53716 25.5 0.742493 25.3384 0.79616 25.1068C1.68341 21.2492 3.97008 11.3746 3.97766 11.3477C4.31599 10.0586 5.45816 9.16667 6.79108 9.16667V9.16667Z" fill="#25A0DB"/>
</g>
<defs>
<clipPath id="clip0_12400_9785">
<rect width="30" height="30" fill="white" transform="translate(-0.000610352 0.5)"/>
</clipPath>
</defs>
</svg>
