<svg width="32" height="32" viewBox="0 0 32 32" fill="none" xmlns="http://www.w3.org/2000/svg">
<path fill-rule="evenodd" clip-rule="evenodd" d="M22 28C22 28 24 28 24 26C24 24 22 18 12 18C2 18 0 24 0 26C0 28 2 28 2 28H22ZM2.044 26H21.956C21.9654 25.9989 21.9747 25.9976 21.984 25.996L22 25.992C21.998 25.5 21.692 24.02 20.336 22.664C19.032 21.36 16.578 20 12 20C7.42 20 4.968 21.36 3.664 22.664C2.308 24.02 2.004 25.5 2 25.992C2.01464 25.9948 2.02931 25.9975 2.044 26ZM12 14C13.0609 14 14.0783 13.5786 14.8284 12.8284C15.5786 12.0783 16 11.0609 16 10C16 8.93913 15.5786 7.92172 14.8284 7.17157C14.0783 6.42143 13.0609 6 12 6C10.9391 6 9.92172 6.42143 9.17157 7.17157C8.42143 7.92172 8 8.93913 8 10C8 11.0609 8.42143 12.0783 9.17157 12.8284C9.92172 13.5786 10.9391 14 12 14ZM18 10C18 11.5913 17.3679 13.1174 16.2426 14.2426C15.1174 15.3679 13.5913 16 12 16C10.4087 16 8.88258 15.3679 7.75736 14.2426C6.63214 13.1174 6 11.5913 6 10C6 8.4087 6.63214 6.88258 7.75736 5.75736C8.88258 4.63214 10.4087 4 12 4C13.5913 4 15.1174 4.63214 16.2426 5.75736C17.3679 6.88258 18 8.4087 18 10Z" fill="#EF8556"/>
<path fill-rule="evenodd" clip-rule="evenodd" d="M26 15C26 14.7348 26.1054 14.4804 26.2929 14.2929C26.4804 14.1054 26.7348 14 27 14H31C31.2652 14 31.5196 14.1054 31.7071 14.2929C31.8946 14.4804 32 14.7348 32 15C32 15.2652 31.8946 15.5196 31.7071 15.7071C31.5196 15.8946 31.2652 16 31 16H28V19C28 19.2652 27.8946 19.5196 27.7071 19.7071C27.5196 19.8946 27.2652 20 27 20C26.7348 20 26.4804 19.8946 26.2929 19.7071C26.1054 19.5196 26 19.2652 26 19V15Z" fill="#032D60"/>
<path d="M27.7071 10.2929C27.5196 10.1054 27.2652 10 27 10C26.7348 10 26.4804 10.1054 26.2929 10.2929C26.1054 10.4804 26 10.7348 26 11V14H23C22.7348 14 22.4804 14.1054 22.2929 14.2929C22.1054 14.4804 22 14.7348 22 15C22 15.2652 22.1054 15.5196 22.2929 15.7071C22.4804 15.8946 22.7348 16 23 16H27C27.2652 16 27.5196 15.8946 27.7071 15.7071C27.8946 15.5196 28 15.2652 28 15V11C28 10.7348 27.8946 10.4804 27.7071 10.2929Z" fill="#032D60"/>
</svg>
