<svg width="32" height="33" viewBox="0 0 32 33" fill="none" xmlns="http://www.w3.org/2000/svg">
<g clip-path="url(#clip0_12392_9712)">
<path fill-rule="evenodd" clip-rule="evenodd" d="M1.99939 28.5C1.99939 28.5 -0.000610352 28.5 -0.000610352 26.5C-0.000610352 24.5 1.99939 18.5 11.9994 18.5C21.9994 18.5 23.9994 24.5 23.9994 26.5C23.9994 28.5 21.9994 28.5 21.9994 28.5H1.99939ZM11.9994 16.5C13.5907 16.5 15.1168 15.8679 16.242 14.7426C17.3672 13.6174 17.9994 12.0913 17.9994 10.5C17.9994 8.9087 17.3672 7.38258 16.242 6.25736C15.1168 5.13214 13.5907 4.5 11.9994 4.5C10.4081 4.5 8.88197 5.13214 7.75675 6.25736C6.63153 7.38258 5.99939 8.9087 5.99939 10.5C5.99939 12.0913 6.63153 13.6174 7.75675 14.7426C8.88197 15.8679 10.4081 16.5 11.9994 16.5Z" fill="#189032"/>
<path fill-rule="evenodd" clip-rule="evenodd" d="M25.9994 15.5C25.9994 15.2348 26.1047 14.9804 26.2923 14.7929C26.4798 14.6054 26.7342 14.5 26.9994 14.5H30.9994C31.2646 14.5 31.519 14.6054 31.7065 14.7929C31.894 14.9804 31.9994 15.2348 31.9994 15.5C31.9994 15.7652 31.894 16.0196 31.7065 16.2071C31.519 16.3946 31.2646 16.5 30.9994 16.5H27.9994V19.5C27.9994 19.7652 27.894 20.0196 27.7065 20.2071C27.519 20.3946 27.2646 20.5 26.9994 20.5C26.7342 20.5 26.4798 20.3946 26.2923 20.2071C26.1047 20.0196 25.9994 19.7652 25.9994 19.5V15.5Z" fill="#189032" fill-opacity="0.6"/>
<path d="M27.7065 10.7929C27.519 10.6054 27.2646 10.5 26.9994 10.5C26.7342 10.5 26.4798 10.6054 26.2923 10.7929C26.1047 10.9804 25.9994 11.2348 25.9994 11.5V14.5H22.9994C22.7342 14.5 22.4798 14.6054 22.2923 14.7929C22.1047 14.9804 21.9994 15.2348 21.9994 15.5C21.9994 15.7652 22.1047 16.0196 22.2923 16.2071C22.4798 16.3946 22.7342 16.5 22.9994 16.5H26.9994C27.2646 16.5 27.519 16.3946 27.7065 16.2071C27.894 16.0196 27.9994 15.7652 27.9994 15.5V11.5C27.9994 11.2348 27.894 10.9804 27.7065 10.7929Z" fill="#189032" fill-opacity="0.6"/>
</g>
<defs>
<clipPath id="clip0_12392_9712">
<rect width="32" height="32" fill="white" transform="translate(-0.000610352 0.5)"/>
</clipPath>
</defs>
</svg>
