<svg width="32" height="33" viewBox="0 0 32 33" fill="none" xmlns="http://www.w3.org/2000/svg">
<path fill-rule="evenodd" clip-rule="evenodd" d="M10.7794 27.0002C10.5014 26.4278 10.3628 25.8003 10.3744 25.1668C10.3744 22.6827 11.6494 20.1252 14.0044 18.3468C12.8289 17.9927 11.6043 17.8195 10.3744 17.8335C2.87439 17.8335 0.99939 23.3335 0.99939 25.1668C0.99939 27.0002 2.87439 27.0002 2.87439 27.0002H10.7794ZM9.43689 16.0002C10.6801 16.0002 11.8724 15.5173 12.7515 14.6577C13.6305 13.7982 14.1244 12.6324 14.1244 11.4168C14.1244 10.2013 13.6305 9.03547 12.7515 8.17592C11.8724 7.31638 10.6801 6.8335 9.43689 6.8335C8.19369 6.8335 7.0014 7.31638 6.12233 8.17592C5.24325 9.03547 4.74939 10.2013 4.74939 11.4168C4.74939 12.6324 5.24325 13.7982 6.12233 14.6577C7.0014 15.5173 8.19369 16.0002 9.43689 16.0002Z" fill="#25A0DB" fill-opacity="0.6"/>
<path d="M25.6019 14.3891C24.547 15.4205 23.1162 16 21.6244 16C20.1325 16 18.7018 15.4205 17.6469 14.3891C16.592 13.3576 15.9994 11.9587 15.9994 10.5C15.9994 9.04131 16.592 7.64236 17.6469 6.61091C18.7018 5.57946 20.1325 5 21.6244 5C23.1162 5 24.547 5.57946 25.6019 6.61091C26.6568 7.64236 27.2494 9.04131 27.2494 10.5C27.2494 11.9587 26.6568 13.3576 25.6019 14.3891Z" fill="#25A0DB"/>
<path d="M12.2494 25.1668C12.2494 27.0002 14.1244 27.0002 14.1244 27.0002H29.1244C29.1244 27.0002 30.9994 27.0002 30.9994 25.1668C30.9994 23.3335 29.1244 17.8335 21.6244 17.8335C14.1244 17.8335 12.2494 23.3335 12.2494 25.1668Z" fill="#25A0DB"/>
</svg>
