<svg width="30" height="31" viewBox="0 0 30 31" fill="none" xmlns="http://www.w3.org/2000/svg">
<g clip-path="url(#clip0_12400_9794)">
<path d="M28.4671 10.6792H6.83208C6.29292 10.6792 5.8437 11.055 5.72585 11.5583L2.30866 26.3663C2.2893 26.4483 2.27734 26.5331 2.27734 26.6208C2.27734 27.2493 2.78747 27.7595 3.41603 27.7595H8.9005C7.62176 26.4295 6.83208 24.6258 6.83208 22.6354C6.83208 18.5475 10.1457 15.2339 14.2335 15.2339C18.3214 15.2339 21.635 18.5475 21.635 22.6354C21.635 24.6258 20.8453 26.4295 19.5666 27.7595H25.051C25.5902 27.7595 26.0394 27.3837 26.1573 26.8804L29.5745 12.0724C29.5938 11.9904 29.6058 11.9056 29.6058 11.8179C29.6058 11.1893 29.0956 10.6792 28.4671 10.6792V10.6792Z" fill="#25A0DB"/>
<path d="M6.83211 8.97079H27.3284V3.27737C27.3284 2.01969 26.3087 1 25.0511 1H18.4017C17.5841 1 16.8298 1.43839 16.4238 2.14779L14.8029 4.9854H2.27737C1.01969 4.9854 0 6.00509 0 7.26277V24.4159C0 24.6898 0.222613 24.9124 0.497036 24.9124C0.728189 24.9124 0.928597 24.7547 0.980977 24.5286C1.84695 20.7636 4.07877 11.1258 4.08617 11.0996C4.41639 9.84132 5.53116 8.97079 6.83211 8.97079V8.97079Z" fill="#25A0DB"/>
<path fill-rule="evenodd" clip-rule="evenodd" d="M9.48968 27.7594C9.48968 27.7594 8.54077 27.7594 8.54077 26.8105C8.54077 25.8616 9.48968 23.0149 14.2342 23.0149C18.9787 23.0149 19.9276 25.8616 19.9276 26.8105C19.9276 27.7594 18.9787 27.7594 18.9787 27.7594H9.48968ZM14.2342 22.066C14.9892 22.066 15.7133 21.7661 16.2471 21.2322C16.781 20.6983 17.0809 19.9743 17.0809 19.2193C17.0809 18.4643 16.781 17.7402 16.2471 17.2063C15.7133 16.6725 14.9892 16.3726 14.2342 16.3726C13.4792 16.3726 12.7551 16.6725 12.2213 17.2063C11.6874 17.7402 11.3875 18.4643 11.3875 19.2193C11.3875 19.9743 11.6874 20.6983 12.2213 21.2322C12.7551 21.7661 13.4792 22.066 14.2342 22.066Z" fill="#25A0DB" fill-opacity="0.6"/>
</g>
<defs>
<clipPath id="clip0_12400_9794">
<rect width="30" height="30" fill="white" transform="translate(-0.000610352 0.5)"/>
</clipPath>
</defs>
</svg>
