<svg width="32" height="32" viewBox="0 0 32 32" fill="none" xmlns="http://www.w3.org/2000/svg">
<path fill-rule="evenodd" clip-rule="evenodd" d="M16 14C17.0609 14 18.0783 13.5786 18.8284 12.8284C19.5786 12.0783 20 11.0609 20 10C20 8.93913 19.5786 7.92172 18.8284 7.17157C18.0783 6.42143 17.0609 6 16 6C14.9391 6 13.9217 6.42143 13.1716 7.17157C12.4214 7.92172 12 8.93913 12 10C12 11.0609 12.4214 12.0783 13.1716 12.8284C13.9217 13.5786 14.9391 14 16 14ZM22 10C22 11.5913 21.3679 13.1174 20.2426 14.2426C19.1174 15.3679 17.5913 16 16 16C14.4087 16 12.8826 15.3679 11.7574 14.2426C10.6321 13.1174 10 11.5913 10 10C10 8.4087 10.6321 6.88258 11.7574 5.75736C12.8826 4.63214 14.4087 4 16 4C17.5913 4 19.1174 4.63214 20.2426 5.75736C21.3679 6.88258 22 8.4087 22 10Z" fill="black" fill-opacity="0.6"/>
<path fill-rule="evenodd" clip-rule="evenodd" d="M26 28C26 28 28 28 28 26C28 24 26 18 16 18C6 18 4 24 4 26C4 28 6 28 6 28H26ZM6.044 26H25.956C25.9654 25.9989 25.9747 25.9976 25.984 25.996L26 25.992C25.998 25.5 25.692 24.02 24.336 22.664C23.032 21.36 20.578 20 16 20C11.42 20 8.968 21.36 7.664 22.664C6.308 24.02 6.004 25.5 6 25.992C6.01464 25.9948 6.02931 25.9975 6.044 26Z" fill="black"/>
</svg>
