<svg width="30" height="31" viewBox="0 0 30 31" fill="none" xmlns="http://www.w3.org/2000/svg">
<path fill-rule="evenodd" clip-rule="evenodd" d="M3.51538 25.0747C3.51538 25.0747 1.87476 25.0747 1.87476 23.4341C1.87476 21.7935 3.51538 16.8716 11.7185 16.8716C19.9216 16.8716 21.5623 21.7935 21.5623 23.4341C21.5623 25.0747 19.9216 25.0747 19.9216 25.0747H3.51538Z" fill="#0A77DB"/>
<path d="M15.1988 13.7894C14.2758 14.7124 13.0239 15.231 11.7185 15.231C10.4131 15.231 9.16125 14.7124 8.23821 13.7894C7.31518 12.8663 6.79663 11.6144 6.79663 10.3091C6.79663 9.00372 7.31518 7.75182 8.23821 6.82879C9.16125 5.90576 10.4131 5.38721 11.7185 5.38721C13.0239 5.38721 14.2758 5.90576 15.1988 6.82879C16.1218 7.75182 16.6404 9.00372 16.6404 10.3091C16.6404 11.6144 16.1218 12.8663 15.1988 13.7894Z" fill="#0A77DB"/>
<path fill-rule="evenodd" clip-rule="evenodd" d="M23.4373 18.0435C23.4373 17.7948 23.536 17.5564 23.7118 17.3805C23.8877 17.2047 24.1261 17.106 24.3748 17.106H28.1248C28.3734 17.106 28.6119 17.2047 28.7877 17.3805C28.9635 17.5564 29.0623 17.7948 29.0623 18.0435C29.0623 18.2921 28.9635 18.5306 28.7877 18.7064C28.6119 18.8822 28.3734 18.981 28.1248 18.981H24.3748C24.1261 18.981 23.8877 18.8822 23.7118 18.7064C23.536 18.5306 23.4373 18.2921 23.4373 18.0435ZM19.6873 12.4185C19.6873 12.1698 19.786 11.9314 19.9618 11.7555C20.1377 11.5797 20.3761 11.481 20.6248 11.481H28.1248C28.3734 11.481 28.6119 11.5797 28.7877 11.7555C28.9635 11.9314 29.0623 12.1698 29.0623 12.4185C29.0623 12.6671 28.9635 12.9056 28.7877 13.0814C28.6119 13.2572 28.3734 13.356 28.1248 13.356H20.6248C20.3761 13.356 20.1377 13.2572 19.9618 13.0814C19.786 12.9056 19.6873 12.6671 19.6873 12.4185ZM19.6873 6.79346C19.6873 6.54482 19.786 6.30636 19.9618 6.13054C20.1377 5.95473 20.3761 5.85596 20.6248 5.85596H28.1248C28.3734 5.85596 28.6119 5.95473 28.7877 6.13054C28.9635 6.30636 29.0623 6.54482 29.0623 6.79346C29.0623 7.0421 28.9635 7.28055 28.7877 7.45637C28.6119 7.63218 28.3734 7.73096 28.1248 7.73096H20.6248C20.3761 7.73096 20.1377 7.63218 19.9618 7.45637C19.786 7.28055 19.6873 7.0421 19.6873 6.79346ZM23.4373 23.6685C23.4373 23.4198 23.536 23.1814 23.7118 23.0055C23.8877 22.8297 24.1261 22.731 24.3748 22.731H28.1248C28.3734 22.731 28.6119 22.8297 28.7877 23.0055C28.9635 23.1814 29.0623 23.4198 29.0623 23.6685C29.0623 23.9171 28.9635 24.1556 28.7877 24.3314C28.6119 24.5072 28.3734 24.606 28.1248 24.606H24.3748C24.1261 24.606 23.8877 24.5072 23.7118 24.3314C23.536 24.1556 23.4373 23.9171 23.4373 23.6685Z" fill="#0A77DB" fill-opacity="0.5"/>
</svg>
