<svg width="30" height="31" viewBox="0 0 30 31" fill="none" xmlns="http://www.w3.org/2000/svg">
<path fill-rule="evenodd" clip-rule="evenodd" d="M5.62476 26.481C5.62476 26.481 3.74976 26.481 3.74976 24.606C3.74976 22.731 5.62476 17.106 14.9998 17.106C24.3748 17.106 26.2498 22.731 26.2498 24.606C26.2498 26.481 24.3748 26.481 24.3748 26.481H5.62476ZM14.9998 15.231C16.4916 15.231 17.9223 14.6383 18.9772 13.5834C20.0321 12.5285 20.6248 11.0978 20.6248 9.60596C20.6248 8.11411 20.0321 6.68337 18.9772 5.62848C17.9223 4.57359 16.4916 3.98096 14.9998 3.98096C13.5079 3.98096 12.0772 4.57359 11.0223 5.62848C9.96739 6.68337 9.37476 8.11411 9.37476 9.60596C9.37476 11.0978 9.96739 12.5285 11.0223 13.5834C12.0772 14.6383 13.5079 15.231 14.9998 15.231Z" fill="#0A77DB"/>
</svg>
