<svg width="30" height="31" viewBox="0 0 30 31" fill="none" xmlns="http://www.w3.org/2000/svg">
<path fill-rule="evenodd" clip-rule="evenodd" d="M23.7054 28.356C26.2104 28.356 28.1248 26.1903 28.1248 23.6685V9.60596H1.87476V23.6685C1.87476 26.1903 3.78913 28.356 6.29413 28.356H23.7054ZM11.2498 13.356C11.0011 13.356 10.7627 13.4547 10.5868 13.6305C10.411 13.8064 10.3123 14.0448 10.3123 14.2935C10.3123 14.5421 10.411 14.7806 10.5868 14.9564C10.7627 15.1322 11.0011 15.231 11.2498 15.231H18.7498C18.9984 15.231 19.2369 15.1322 19.4127 14.9564C19.5885 14.7806 19.6873 14.5421 19.6873 14.2935C19.6873 14.0448 19.5885 13.8064 19.4127 13.6305C19.2369 13.4547 18.9984 13.356 18.7498 13.356H11.2498Z" fill="#0A77DB"/>
<path d="M0.439096 2.5453C0.7204 2.26399 1.10193 2.10596 1.49976 2.10596H28.4998C28.8976 2.10596 29.2791 2.26399 29.5604 2.5453C29.8417 2.8266 29.9998 3.20813 29.9998 3.60596V5.85596C29.9998 6.25378 29.8417 6.63531 29.5604 6.91662C29.2791 7.19792 28.8976 7.35596 28.4998 7.35596H1.49976C1.10193 7.35596 0.7204 7.19792 0.439096 6.91662C0.157791 6.63531 -0.000244141 6.25378 -0.000244141 5.85596V3.60596C-0.000244141 3.20813 0.157791 2.8266 0.439096 2.5453Z" fill="#0A77DB" fill-opacity="0.5"/>
</svg>
