<svg width="30" height="31" viewBox="0 0 30 31" fill="none" xmlns="http://www.w3.org/2000/svg">
<g clip-path="url(#clip0_12474_27204)">
<path d="M28.9577 10.9165H6.79106C6.23864 10.9165 5.77839 11.3015 5.65764 11.8172L2.15647 26.9891C2.13664 27.0731 2.12439 27.16 2.12439 27.2498C2.12439 27.8938 2.64706 28.4165 3.29106 28.4165H8.91031C14.0006 28.4165 8.91031 28.4165 14.0006 28.4165C19.8385 28.4165 14.0006 28.4165 19.8385 28.4165H25.4577C26.0101 28.4165 26.4704 28.0315 26.5911 27.5158L30.0923 12.3439C30.1121 12.2599 30.1244 12.173 30.1244 12.0832C30.1244 11.4392 29.6017 10.9165 28.9577 10.9165Z" fill="#1E7BD2"/>
<g clip-path="url(#clip1_12474_27204)">
<path fill-rule="evenodd" clip-rule="evenodd" d="M23 20C23 21.5913 22.3679 23.1174 21.2426 24.2426C20.1174 25.3679 18.5913 26 17 26C15.4087 26 13.8826 25.3679 12.7574 24.2426C11.6321 23.1174 11 21.5913 11 20C11 18.4087 11.6321 16.8826 12.7574 15.7574C13.8826 14.6321 15.4087 14 17 14C18.5913 14 20.1174 14.6321 21.2426 15.7574C22.3679 16.8826 23 18.4087 23 20V20ZM17 16.625C17 16.5255 16.9605 16.4302 16.8902 16.3598C16.8198 16.2895 16.7245 16.25 16.625 16.25C16.5255 16.25 16.4302 16.2895 16.3598 16.3598C16.2895 16.4302 16.25 16.5255 16.25 16.625V20.75C16.25 20.8161 16.2675 20.881 16.3007 20.9382C16.3339 20.9953 16.3816 21.0427 16.439 21.0755L19.064 22.5755C19.1501 22.6221 19.2511 22.6331 19.3452 22.6062C19.4394 22.5793 19.5193 22.5167 19.5679 22.4316C19.6165 22.3466 19.6299 22.246 19.6052 22.1512C19.5806 22.0564 19.5198 21.9751 19.436 21.9245L17 20.5325V16.625Z" fill="white"/>
</g>
<path d="M6.79108 9.16667H27.7911V3.33333C27.7911 2.04475 26.7463 1 25.4577 1H18.645C17.8073 1 17.0344 1.44917 16.6185 2.176L14.9577 5.08333H2.12441C0.835827 5.08333 -0.208923 6.12808 -0.208923 7.41667V24.9913C-0.208923 25.2719 0.0191601 25.5 0.300327 25.5C0.53716 25.5 0.742493 25.3384 0.79616 25.1068C1.68341 21.2492 3.97008 11.3746 3.97766 11.3477C4.31599 10.0586 5.45816 9.16667 6.79108 9.16667V9.16667Z" fill="#1472C9" fill-opacity="0.6"/>
</g>
<defs>
<clipPath id="clip0_12474_27204">
<rect width="30" height="30" fill="white" transform="translate(-0.000610352 0.5)"/>
</clipPath>
<clipPath id="clip1_12474_27204">
<rect width="12" height="12" fill="white" transform="translate(11 14)"/>
</clipPath>
</defs>
</svg>
