<svg width="32" height="33" viewBox="0 0 32 33" fill="none" xmlns="http://www.w3.org/2000/svg">
<path fill-rule="evenodd" clip-rule="evenodd" d="M3.74939 27C3.74939 27 1.99939 27 1.99939 25.25C1.99939 23.5 3.74939 18.25 12.4994 18.25C21.2494 18.25 22.9994 23.5 22.9994 25.25C22.9994 27 21.2494 27 21.2494 27H3.74939Z" fill="#25A0DB"/>
<path d="M16.2117 14.9623C15.2271 15.9469 13.8918 16.5 12.4994 16.5C11.107 16.5 9.77165 15.9469 8.78708 14.9623C7.80251 13.9777 7.24939 12.6424 7.24939 11.25C7.24939 9.85761 7.80251 8.52226 8.78708 7.53769C9.77165 6.55312 11.107 6 12.4994 6C13.8918 6 15.2271 6.55312 16.2117 7.53769C17.1963 8.52226 17.7494 9.85761 17.7494 11.25C17.7494 12.6424 17.1963 13.9777 16.2117 14.9623Z" fill="#25A0DB"/>
<path fill-rule="evenodd" clip-rule="evenodd" d="M24.9994 19.5C24.9994 19.2348 25.1047 18.9804 25.2923 18.7929C25.4798 18.6054 25.7342 18.5 25.9994 18.5H29.9994C30.2646 18.5 30.519 18.6054 30.7065 18.7929C30.894 18.9804 30.9994 19.2348 30.9994 19.5C30.9994 19.7652 30.894 20.0196 30.7065 20.2071C30.519 20.3946 30.2646 20.5 29.9994 20.5H25.9994C25.7342 20.5 25.4798 20.3946 25.2923 20.2071C25.1047 20.0196 24.9994 19.7652 24.9994 19.5ZM20.9994 13.5C20.9994 13.2348 21.1047 12.9804 21.2923 12.7929C21.4798 12.6054 21.7342 12.5 21.9994 12.5H29.9994C30.2646 12.5 30.519 12.6054 30.7065 12.7929C30.894 12.9804 30.9994 13.2348 30.9994 13.5C30.9994 13.7652 30.894 14.0196 30.7065 14.2071C30.519 14.3946 30.2646 14.5 29.9994 14.5H21.9994C21.7342 14.5 21.4798 14.3946 21.2923 14.2071C21.1047 14.0196 20.9994 13.7652 20.9994 13.5ZM20.9994 7.5C20.9994 7.23478 21.1047 6.98043 21.2923 6.79289C21.4798 6.60536 21.7342 6.5 21.9994 6.5H29.9994C30.2646 6.5 30.519 6.60536 30.7065 6.79289C30.894 6.98043 30.9994 7.23478 30.9994 7.5C30.9994 7.76522 30.894 8.01957 30.7065 8.20711C30.519 8.39464 30.2646 8.5 29.9994 8.5H21.9994C21.7342 8.5 21.4798 8.39464 21.2923 8.20711C21.1047 8.01957 20.9994 7.76522 20.9994 7.5ZM24.9994 25.5C24.9994 25.2348 25.1047 24.9804 25.2923 24.7929C25.4798 24.6054 25.7342 24.5 25.9994 24.5H29.9994C30.2646 24.5 30.519 24.6054 30.7065 24.7929C30.894 24.9804 30.9994 25.2348 30.9994 25.5C30.9994 25.7652 30.894 26.0196 30.7065 26.2071C30.519 26.3946 30.2646 26.5 29.9994 26.5H25.9994C25.7342 26.5 25.4798 26.3946 25.2923 26.2071C25.1047 26.0196 24.9994 25.7652 24.9994 25.5Z" fill="#25A0DB" fill-opacity="0.6"/>
</svg>
