<svg width="32" height="32" viewBox="0 0 32 32" fill="none" xmlns="http://www.w3.org/2000/svg">
<path fill-rule="evenodd" clip-rule="evenodd" d="M4 10V25C4 26.728 5.284 28 6.714 28H25.286C26.716 28 28 26.728 28 25V10H30V25C30 27.69 27.958 30 25.286 30H6.714C4.042 30 2 27.69 2 25V10H4Z" fill="#032D60"/>
<path fill-rule="evenodd" clip-rule="evenodd" d="M30 4H2V8H30V4ZM2 2C1.46957 2 0.960859 2.21071 0.585786 2.58579C0.210714 2.96086 0 3.46957 0 4L0 8C0 8.53043 0.210714 9.03914 0.585786 9.41421C0.960859 9.78929 1.46957 10 2 10H30C30.5304 10 31.0391 9.78929 31.4142 9.41421C31.7893 9.03914 32 8.53043 32 8V4C32 3.46957 31.7893 2.96086 31.4142 2.58579C31.0391 2.21071 30.5304 2 30 2H2Z" fill="#032D60"/>
<path fill-rule="evenodd" clip-rule="evenodd" d="M23.5834 26.0002C23.5834 26.0002 24.6667 26.0002 24.6667 24.9446C24.6667 23.8891 23.5834 20.7224 19.25 20.7224C14.9167 20.7224 13.8334 23.8891 13.8334 24.9446C13.8334 26.0002 14.9167 26.0002 14.9167 26.0002H23.5834ZM14.9405 24.9446H23.5595C23.5646 24.944 23.5697 24.9433 23.5747 24.9425L23.5834 24.9404C23.5812 24.6617 23.4025 23.8532 22.76 23.1248C22.162 22.4419 21.1112 21.7779 19.25 21.7779C17.39 21.7779 16.3391 22.4429 15.74 23.1248C15.0976 23.8532 14.9178 24.6628 14.9167 24.9404C14.9246 24.9419 14.9326 24.9433 14.9405 24.9446ZM19.25 18.6113C19.8247 18.6113 20.3758 18.3889 20.7821 17.9929C21.1884 17.597 21.4167 17.0601 21.4167 16.5002C21.4167 15.9403 21.1884 15.4033 20.7821 15.0074C20.3758 14.6115 19.8247 14.3891 19.25 14.3891C18.6754 14.3891 18.1243 14.6115 17.718 15.0074C17.3116 15.4033 17.0834 15.9403 17.0834 16.5002C17.0834 17.0601 17.3116 17.597 17.718 17.9929C18.1243 18.3889 18.6754 18.6113 19.25 18.6113ZM22.5 16.5002C22.5 16.916 22.416 17.3278 22.2527 17.712C22.0893 18.0962 21.8499 18.4453 21.5481 18.7393C21.2463 19.0334 20.8881 19.2666 20.4938 19.4258C20.0995 19.5849 19.6768 19.6668 19.25 19.6668C18.8232 19.6668 18.4006 19.5849 18.0063 19.4258C17.612 19.2666 17.2537 19.0334 16.9519 18.7393C16.6502 18.4453 16.4108 18.0962 16.2474 17.712C16.0841 17.3278 16 16.916 16 16.5002C16 15.6603 16.3425 14.8549 16.9519 14.261C17.5614 13.6671 18.3881 13.3335 19.25 13.3335C20.112 13.3335 20.9386 13.6671 21.5481 14.261C22.1576 14.8549 22.5 15.6603 22.5 16.5002ZM14.8474 21.0179C14.414 20.885 13.9673 20.7976 13.5149 20.7572C13.2607 20.7337 13.0054 20.722 12.75 20.7224C8.41671 20.7224 7.33337 23.8891 7.33337 24.9446C7.33337 25.6487 7.69412 26.0002 8.41671 26.0002H12.984C12.8234 25.6706 12.7433 25.3093 12.75 24.9446C12.75 23.8785 13.1585 22.7892 13.9309 21.8793C14.1941 21.5689 14.5007 21.2787 14.8474 21.0179ZM12.6634 21.7779C10.8564 21.7991 9.83046 22.4535 9.24004 23.1248C8.59329 23.8574 8.41671 24.6691 8.41671 24.9446H11.6667C11.6667 23.8416 12.0166 22.7427 12.6634 21.7779ZM8.95837 17.0279C8.95837 16.1881 9.30078 15.3826 9.91028 14.7888C10.5198 14.1949 11.3464 13.8613 12.2084 13.8613C13.0703 13.8613 13.897 14.1949 14.5065 14.7888C15.116 15.3826 15.4584 16.1881 15.4584 17.0279C15.4584 17.8678 15.116 18.6732 14.5065 19.2671C13.897 19.861 13.0703 20.1946 12.2084 20.1946C11.3464 20.1946 10.5198 19.861 9.91028 19.2671C9.30078 18.6732 8.95837 17.8678 8.95837 17.0279ZM12.2084 14.9168C11.6337 14.9168 11.0826 15.1392 10.6763 15.5352C10.27 15.9311 10.0417 16.468 10.0417 17.0279C10.0417 17.5878 10.27 18.1248 10.6763 18.5207C11.0826 18.9166 11.6337 19.1391 12.2084 19.1391C12.783 19.1391 13.3341 18.9166 13.7404 18.5207C14.1468 18.1248 14.375 17.5878 14.375 17.0279C14.375 16.468 14.1468 15.9311 13.7404 15.5352C13.3341 15.1392 12.783 14.9168 12.2084 14.9168Z" fill="#EF8556"/>
</svg>
