<svg width="32" height="32" viewBox="0 0 32 32" fill="none" xmlns="http://www.w3.org/2000/svg">
<path fill-rule="evenodd" clip-rule="evenodd" d="M19.6559 8H4.37989C4.10206 7.99998 3.82728 8.05785 3.57306 8.16992C3.31883 8.28198 3.09074 8.44578 2.90333 8.65088C2.71592 8.85598 2.5733 9.09788 2.48455 9.36115C2.39581 9.62442 2.36289 9.9033 2.38789 10.18L3.66189 24.18C3.7068 24.6769 3.93582 25.1391 4.30401 25.4758C4.67219 25.8126 5.15294 25.9995 5.65189 26H17.9999V28H5.65189C4.65397 27.9996 3.69223 27.6262 2.95549 26.9531C2.21874 26.28 1.7602 25.3558 1.66989 24.362L0.395892 10.362C0.310664 9.43557 0.55268 8.50855 1.07989 7.742L0.999892 6C0.999892 4.93913 1.42132 3.92172 2.17146 3.17157C2.92161 2.42143 3.93903 2 4.99989 2H12.3439C13.4047 2.00023 14.4219 2.4218 15.1719 3.172L16.8279 4.828C17.5779 5.5782 18.5951 5.99977 19.6559 6H27.6199C28.1757 5.99994 28.7255 6.11573 29.2341 6.33998C29.7427 6.56423 30.199 6.89202 30.5738 7.30244C30.9487 7.71286 31.2339 8.1969 31.4112 8.72369C31.5886 9.25047 31.6542 9.80844 31.6039 10.362L31.0919 16H29.0799L29.6099 10.18C29.6349 9.90347 29.602 9.62476 29.5134 9.36162C29.4248 9.09849 29.2823 8.85669 29.0951 8.65162C28.9079 8.44655 28.6801 8.28271 28.4261 8.17052C28.1721 8.05833 27.8976 8.00026 27.6199 8H19.6559ZM13.7559 4.586L15.1739 6H4.37989C3.89989 6 3.43989 6.084 3.01189 6.24L2.99989 5.96C3.01036 5.43653 3.22569 4.93804 3.59963 4.57157C3.97358 4.20511 4.47632 3.9999 4.99989 4H12.3439C12.8743 4.00011 13.3829 4.2109 13.7579 4.586H13.7559Z" fill="black"/>
<g clip-path="url(#clip0_12367_26793)">
<path fill-rule="evenodd" clip-rule="evenodd" d="M31 22C31 23.5913 30.3679 25.1174 29.2426 26.2426C28.1174 27.3679 26.5913 28 25 28C23.4087 28 21.8826 27.3679 20.7574 26.2426C19.6321 25.1174 19 23.5913 19 22C19 20.4087 19.6321 18.8826 20.7574 17.7574C21.8826 16.6321 23.4087 16 25 16C26.5913 16 28.1174 16.6321 29.2426 17.7574C30.3679 18.8826 31 20.4087 31 22V22ZM25 18.625C25 18.5255 24.9605 18.4302 24.8902 18.3598C24.8198 18.2895 24.7245 18.25 24.625 18.25C24.5255 18.25 24.4302 18.2895 24.3598 18.3598C24.2895 18.4302 24.25 18.5255 24.25 18.625V22.75C24.25 22.8161 24.2675 22.881 24.3007 22.9382C24.3339 22.9953 24.3816 23.0427 24.439 23.0755L27.064 24.5755C27.1501 24.6221 27.2511 24.6331 27.3452 24.6062C27.4394 24.5793 27.5193 24.5167 27.5679 24.4316C27.6165 24.3466 27.6299 24.246 27.6052 24.1512C27.5806 24.0564 27.5198 23.9751 27.436 23.9245L25 22.5325V18.625Z" fill="black" fill-opacity="0.6"/>
</g>
<defs>
<clipPath id="clip0_12367_26793">
<rect width="12" height="12" fill="white" transform="translate(19 16)"/>
</clipPath>
</defs>
</svg>
