<svg width="30" height="31" viewBox="0 0 30 31" fill="none" xmlns="http://www.w3.org/2000/svg">
<path fill-rule="evenodd" clip-rule="evenodd" d="M23.7054 28.356C26.2104 28.356 28.1248 26.1903 28.1248 23.6685V9.60596H1.87476V23.6685C1.87476 26.1903 3.78913 28.356 6.29413 28.356H23.7054Z" fill="#0A77DB"/>
<path fill-rule="evenodd" clip-rule="evenodd" d="M14.473 24.9185C14.473 24.9185 13.4769 24.9185 13.4769 23.9028C13.4769 22.8872 14.473 19.8403 18.4573 19.8403C22.4417 19.8403 23.4378 22.8872 23.4378 23.9028C23.4378 24.9185 22.4417 24.9185 22.4417 24.9185H14.473ZM18.4573 18.8247C19.2499 18.8247 20.01 18.5037 20.5704 17.9323C21.1308 17.3609 21.4456 16.5859 21.4456 15.7778C21.4456 14.9698 21.1308 14.1948 20.5704 13.6234C20.01 13.052 19.2499 12.731 18.4573 12.731C17.6648 12.731 16.9047 13.052 16.3443 13.6234C15.7839 14.1948 15.4691 14.9698 15.4691 15.7778C15.4691 16.5859 15.7839 17.3609 16.3443 17.9323C16.9047 18.5037 17.6648 18.8247 18.4573 18.8247ZM12.6959 24.9185C12.5483 24.6014 12.4746 24.2538 12.4808 23.9028C12.4808 22.5267 13.1581 21.1099 14.4092 20.1247C13.7848 19.9285 13.1342 19.8326 12.4808 19.8403C8.4964 19.8403 7.50031 22.8872 7.50031 23.9028C7.50031 24.9185 8.4964 24.9185 8.4964 24.9185H12.6959ZM11.9827 18.8247C12.6432 18.8247 13.2766 18.5572 13.7436 18.081C14.2106 17.6049 14.473 16.959 14.473 16.2856C14.473 15.6122 14.2106 14.9664 13.7436 14.4903C13.2766 14.0141 12.6432 13.7466 11.9827 13.7466C11.3223 13.7466 10.6889 14.0141 10.2219 14.4903C9.75486 14.9664 9.49249 15.6122 9.49249 16.2856C9.49249 16.959 9.75486 17.6049 10.2219 18.081C10.6889 18.5572 11.3223 18.8247 11.9827 18.8247Z" fill="white" fill-opacity="0.9"/>
<path d="M0.439096 2.5453C0.7204 2.26399 1.10193 2.10596 1.49976 2.10596H28.4998C28.8976 2.10596 29.2791 2.26399 29.5604 2.5453C29.8417 2.8266 29.9998 3.20813 29.9998 3.60596V5.85596C29.9998 6.25378 29.8417 6.63531 29.5604 6.91662C29.2791 7.19792 28.8976 7.35596 28.4998 7.35596H1.49976C1.10193 7.35596 0.7204 7.19792 0.439096 6.91662C0.157791 6.63531 -0.000244141 6.25378 -0.000244141 5.85596V3.60596C-0.000244141 3.20813 0.157791 2.8266 0.439096 2.5453Z" fill="#0A77DB" fill-opacity="0.5"/>
</svg>
