<svg width="32" height="32" viewBox="0 0 32 32" fill="none" xmlns="http://www.w3.org/2000/svg">
<path fill-rule="evenodd" clip-rule="evenodd" d="M4 10V25C4 26.728 5.284 28 6.714 28H25.286C26.716 28 28 26.728 28 25V10H30V25C30 27.69 27.958 30 25.286 30H6.714C4.042 30 2 27.69 2 25V10H4Z" fill="black"/>
<path fill-rule="evenodd" clip-rule="evenodd" d="M11 15C11 14.7348 11.1054 14.4804 11.2929 14.2929C11.4804 14.1054 11.7348 14 12 14H20C20.2652 14 20.5196 14.1054 20.7071 14.2929C20.8946 14.4804 21 14.7348 21 15C21 15.2652 20.8946 15.5196 20.7071 15.7071C20.5196 15.8946 20.2652 16 20 16H12C11.7348 16 11.4804 15.8946 11.2929 15.7071C11.1054 15.5196 11 15.2652 11 15ZM30 4H2V8H30V4ZM2 2C1.46957 2 0.960859 2.21071 0.585786 2.58579C0.210714 2.96086 0 3.46957 0 4L0 8C0 8.53043 0.210714 9.03914 0.585786 9.41421C0.960859 9.78929 1.46957 10 2 10H30C30.5304 10 31.0391 9.78929 31.4142 9.41421C31.7893 9.03914 32 8.53043 32 8V4C32 3.46957 31.7893 2.96086 31.4142 2.58579C31.0391 2.21071 30.5304 2 30 2H2Z" fill="black" fill-opacity="0.6"/>
</svg>
