<svg width="30" height="31" viewBox="0 0 30 31" fill="none" xmlns="http://www.w3.org/2000/svg">
<g clip-path="url(#clip0_12400_9789)">
<path d="M28.8461 10.9526H6.92306C6.37672 10.9526 5.92152 11.3334 5.8021 11.8434L2.33941 26.8486C2.31979 26.9317 2.30768 27.0176 2.30768 27.1065C2.30768 27.7434 2.8246 28.2603 3.46152 28.2603H9.01902C7.72325 26.9126 6.92306 25.0849 6.92306 23.068C6.92306 18.9257 10.2808 15.568 14.4231 15.568C18.5654 15.568 21.9231 18.9257 21.9231 23.068C21.9231 25.0849 21.1229 26.9126 19.8271 28.2603H25.3846C25.9309 28.2603 26.3861 27.8796 26.5056 27.3696L29.9683 12.3644C29.9879 12.2813 30 12.1953 30 12.1065C30 11.4696 29.4831 10.9526 28.8461 10.9526V10.9526Z" fill="#25A0DB"/>
<path d="M6.92308 9.22194H27.6923V3.45271C27.6923 2.17829 26.659 1.14502 25.3846 1.14502H18.6467C17.8183 1.14502 17.0538 1.58925 16.6425 2.3081L15 5.18348H2.30769C1.03327 5.18348 0 6.21675 0 7.49117V24.8727C0 25.1502 0.225577 25.3758 0.503654 25.3758C0.737885 25.3758 0.940962 25.216 0.994038 24.9869C1.87154 21.1718 4.13308 11.4056 4.14058 11.3791C4.47519 10.1041 5.60481 9.22194 6.92308 9.22194V9.22194Z" fill="#25A0DB"/>
<g clip-path="url(#clip1_12400_9789)">
<path fill-rule="evenodd" clip-rule="evenodd" d="M20.193 23.6452C20.193 25.1753 19.5852 26.6427 18.5032 27.7247C17.4213 28.8066 15.9539 29.4144 14.4238 29.4144C12.8937 29.4144 11.4263 28.8066 10.3443 27.7247C9.26237 26.6427 8.65454 25.1753 8.65454 23.6452C8.65454 22.1151 9.26237 20.6477 10.3443 19.5657C11.4263 18.4838 12.8937 17.876 14.4238 17.876C15.9539 17.876 17.4213 18.4838 18.5032 19.5657C19.5852 20.6477 20.193 22.1151 20.193 23.6452V23.6452ZM14.4238 20.4C14.4238 20.3044 14.3858 20.2127 14.3182 20.145C14.2505 20.0774 14.1588 20.0394 14.0632 20.0394C13.9676 20.0394 13.8758 20.0774 13.8082 20.145C13.7406 20.2127 13.7026 20.3044 13.7026 20.4V24.3664C13.7026 24.4299 13.7195 24.4923 13.7514 24.5473C13.7833 24.6023 13.8292 24.6478 13.8843 24.6793L16.4084 26.1216C16.4912 26.1664 16.5883 26.177 16.6788 26.1512C16.7693 26.1253 16.8462 26.0651 16.8929 25.9833C16.9396 25.9016 16.9525 25.8048 16.9288 25.7137C16.9051 25.6226 16.8467 25.5443 16.7661 25.4957L14.4238 24.1572V20.4Z" fill="#25A0DB" fill-opacity="0.6"/>
</g>
</g>
<defs>
<clipPath id="clip0_12400_9789">
<rect width="30" height="30" fill="white" transform="translate(-0.000610352 0.5)"/>
</clipPath>
<clipPath id="clip1_12400_9789">
<rect width="11.5385" height="11.5385" fill="white" transform="translate(8.65454 17.876)"/>
</clipPath>
</defs>
</svg>
