<svg width="32" height="32" viewBox="0 0 32 32" fill="none" xmlns="http://www.w3.org/2000/svg">
<g clip-path="url(#clip0_12367_26775)">
<path fill-rule="evenodd" clip-rule="evenodd" d="M19.6559 8H4.37989C4.10206 7.99998 3.82728 8.05785 3.57306 8.16992C3.31883 8.28198 3.09074 8.44578 2.90333 8.65088C2.71592 8.85598 2.5733 9.09788 2.48455 9.36115C2.39581 9.62442 2.36289 9.9033 2.38789 10.18L3.66189 24.18C3.7068 24.6769 3.93582 25.1391 4.30401 25.4758C4.67219 25.8126 5.15294 25.9995 5.65189 26H17.9999V28H5.65189C4.65397 27.9996 3.69223 27.6262 2.95549 26.9531C2.21874 26.28 1.7602 25.3558 1.66989 24.362L0.395892 10.362C0.310664 9.43557 0.55268 8.50855 1.07989 7.742L0.999892 6C0.999892 4.93913 1.42132 3.92172 2.17146 3.17157C2.92161 2.42143 3.93903 2 4.99989 2H12.3439C13.4047 2.00023 14.4219 2.4218 15.1719 3.172L16.8279 4.828C17.5779 5.5782 18.5951 5.99977 19.6559 6H27.6199C28.1757 5.99994 28.7255 6.11573 29.2341 6.33998C29.7427 6.56423 30.199 6.89202 30.5738 7.30244C30.9487 7.71286 31.2339 8.1969 31.4112 8.72369C31.5886 9.25047 31.6542 9.80844 31.6039 10.362L31.0919 16H29.0799L29.6099 10.18C29.6349 9.90347 29.602 9.62476 29.5134 9.36162C29.4248 9.09849 29.2823 8.85669 29.0951 8.65162C28.9079 8.44655 28.6801 8.28271 28.4261 8.17052C28.1721 8.05833 27.8976 8.00026 27.6199 8H19.6559ZM13.7559 4.586L15.1739 6H4.37989C3.89989 6 3.43989 6.084 3.01189 6.24L2.99989 5.96C3.01036 5.43653 3.22569 4.93804 3.59963 4.57157C3.97358 4.20511 4.47632 3.9999 4.99989 4H12.3439C12.8743 4.00011 13.3829 4.2109 13.7579 4.586H13.7559Z" fill="black"/>
<path fill-rule="evenodd" clip-rule="evenodd" d="M31.708 20.2918C31.8012 20.3847 31.8751 20.4951 31.9255 20.6166C31.9759 20.7381 32.0018 20.8683 32.0018 20.9998C32.0018 21.1314 31.9759 21.2616 31.9255 21.3831C31.8751 21.5046 31.8012 21.6149 31.708 21.7078L25.708 27.7078C25.6152 27.801 25.5048 27.8748 25.3833 27.9253C25.2618 27.9757 25.1316 28.0016 25 28.0016C24.8685 28.0016 24.7383 27.9757 24.6168 27.9253C24.4953 27.8748 24.3849 27.801 24.292 27.7078L21.292 24.7078C21.1991 24.6149 21.1253 24.5045 21.075 24.383C21.0247 24.2615 20.9988 24.1313 20.9988 23.9998C20.9988 23.8683 21.0247 23.7381 21.075 23.6167C21.1253 23.4952 21.1991 23.3848 21.292 23.2918C21.385 23.1989 21.4954 23.1251 21.6169 23.0748C21.7384 23.0245 21.8686 22.9986 22 22.9986C22.1315 22.9986 22.2617 23.0245 22.3832 23.0748C22.5047 23.1251 22.6151 23.1989 22.708 23.2918L25 25.5858L30.292 20.2918C30.3849 20.1987 30.4953 20.1248 30.6168 20.0744C30.7383 20.024 30.8685 19.998 31 19.998C31.1316 19.998 31.2618 20.024 31.3833 20.0744C31.5048 20.1248 31.6152 20.1987 31.708 20.2918Z" fill="black" fill-opacity="0.6"/>
</g>
<defs>
<clipPath id="clip0_12367_26775">
<rect width="32" height="32" fill="white"/>
</clipPath>
</defs>
</svg>
