<svg width="32" height="32" viewBox="0 0 32 32" fill="none" xmlns="http://www.w3.org/2000/svg">
<path fill-rule="evenodd" clip-rule="evenodd" d="M22 28C22 28 24 28 24 26C24 24 22 18 12 18C2 18 0 24 0 26C0 28 2 28 2 28H22ZM2.01 26.112V26.108V26.112ZM2.044 26H21.956C21.9654 25.9989 21.9747 25.9976 21.984 25.996L22 25.992C21.998 25.5 21.692 24.02 20.336 22.664C19.032 21.36 16.578 20 12 20C7.42 20 4.968 21.36 3.664 22.664C2.308 24.02 2.004 25.5 2 25.992C2.01464 25.9948 2.02931 25.9975 2.044 26V26ZM21.992 26.112V26.108V26.112ZM12 14C13.0609 14 14.0783 13.5786 14.8284 12.8284C15.5786 12.0783 16 11.0609 16 10C16 8.93913 15.5786 7.92172 14.8284 7.17157C14.0783 6.42143 13.0609 6 12 6C10.9391 6 9.92172 6.42143 9.17157 7.17157C8.42143 7.92172 8 8.93913 8 10C8 11.0609 8.42143 12.0783 9.17157 12.8284C9.92172 13.5786 10.9391 14 12 14V14ZM18 10C18 11.5913 17.3679 13.1174 16.2426 14.2426C15.1174 15.3679 13.5913 16 12 16C10.4087 16 8.88258 15.3679 7.75736 14.2426C6.63214 13.1174 6 11.5913 6 10C6 8.4087 6.63214 6.88258 7.75736 5.75736C8.88258 4.63214 10.4087 4 12 4C13.5913 4 15.1174 4.63214 16.2426 5.75736C17.3679 6.88258 18 8.4087 18 10V10Z" fill="black" fill-opacity="0.6"/>
<path fill-rule="evenodd" clip-rule="evenodd" d="M26 19C26 18.7348 26.1054 18.4804 26.2929 18.2929C26.4804 18.1054 26.7348 18 27 18H31C31.2652 18 31.5196 18.1054 31.7071 18.2929C31.8946 18.4804 32 18.7348 32 19C32 19.2652 31.8946 19.5196 31.7071 19.7071C31.5196 19.8946 31.2652 20 31 20H27C26.7348 20 26.4804 19.8946 26.2929 19.7071C26.1054 19.5196 26 19.2652 26 19ZM22 13C22 12.7348 22.1054 12.4804 22.2929 12.2929C22.4804 12.1054 22.7348 12 23 12H31C31.2652 12 31.5196 12.1054 31.7071 12.2929C31.8946 12.4804 32 12.7348 32 13C32 13.2652 31.8946 13.5196 31.7071 13.7071C31.5196 13.8946 31.2652 14 31 14H23C22.7348 14 22.4804 13.8946 22.2929 13.7071C22.1054 13.5196 22 13.2652 22 13ZM22 7C22 6.73478 22.1054 6.48043 22.2929 6.29289C22.4804 6.10536 22.7348 6 23 6H31C31.2652 6 31.5196 6.10536 31.7071 6.29289C31.8946 6.48043 32 6.73478 32 7C32 7.26522 31.8946 7.51957 31.7071 7.70711C31.5196 7.89464 31.2652 8 31 8H23C22.7348 8 22.4804 7.89464 22.2929 7.70711C22.1054 7.51957 22 7.26522 22 7ZM26 25C26 24.7348 26.1054 24.4804 26.2929 24.2929C26.4804 24.1054 26.7348 24 27 24H31C31.2652 24 31.5196 24.1054 31.7071 24.2929C31.8946 24.4804 32 24.7348 32 25C32 25.2652 31.8946 25.5196 31.7071 25.7071C31.5196 25.8946 31.2652 26 31 26H27C26.7348 26 26.4804 25.8946 26.2929 25.7071C26.1054 25.5196 26 25.2652 26 25Z" fill="black"/>
</svg>
