<svg width="30" height="31" viewBox="0 0 30 31" fill="none" xmlns="http://www.w3.org/2000/svg">
<g clip-path="url(#clip0_12462_14859)">
<path fill-rule="evenodd" clip-rule="evenodd" d="M1.87476 26.481C1.87476 26.481 -0.000244141 26.481 -0.000244141 24.606C-0.000244141 22.731 1.87476 17.106 11.2498 17.106C20.6248 17.106 22.4998 22.731 22.4998 24.606C22.4998 26.481 20.6248 26.481 20.6248 26.481H1.87476ZM11.2498 15.231C12.7416 15.231 14.1723 14.6383 15.2272 13.5834C16.2821 12.5285 16.8748 11.0978 16.8748 9.60596C16.8748 8.11411 16.2821 6.68337 15.2272 5.62848C14.1723 4.57359 12.7416 3.98096 11.2498 3.98096C9.75791 3.98096 8.32717 4.57359 7.27228 5.62848C6.21739 6.68337 5.62476 8.11411 5.62476 9.60596C5.62476 11.0978 6.21739 12.5285 7.27228 13.5834C8.32717 14.6383 9.75791 15.231 11.2498 15.231Z" fill="#0A77DB"/>
<path fill-rule="evenodd" clip-rule="evenodd" d="M24.3748 14.2935C24.3748 14.0448 24.4735 13.8064 24.6493 13.6305C24.8252 13.4547 25.0636 13.356 25.3123 13.356H29.0623C29.3109 13.356 29.5494 13.4547 29.7252 13.6305C29.901 13.8064 29.9998 14.0448 29.9998 14.2935C29.9998 14.5421 29.901 14.7806 29.7252 14.9564C29.5494 15.1322 29.3109 15.231 29.0623 15.231H26.2498V18.0435C26.2498 18.2921 26.151 18.5306 25.9752 18.7064C25.7994 18.8822 25.5609 18.981 25.3123 18.981C25.0636 18.981 24.8252 18.8822 24.6493 18.7064C24.4735 18.5306 24.3748 18.2921 24.3748 18.0435V14.2935Z" fill="#0A77DB" fill-opacity="0.5"/>
<path d="M25.9752 9.88054C25.7994 9.70473 25.5609 9.60596 25.3123 9.60596C25.0636 9.60596 24.8252 9.70473 24.6493 9.88054C24.4735 10.0564 24.3748 10.2948 24.3748 10.5435V13.356H21.5623C21.3136 13.356 21.0752 13.4547 20.8993 13.6305C20.7235 13.8064 20.6248 14.0448 20.6248 14.2935C20.6248 14.5421 20.7235 14.7806 20.8993 14.9564C21.0752 15.1322 21.3136 15.231 21.5623 15.231H25.3123C25.5609 15.231 25.7994 15.1322 25.9752 14.9564C26.151 14.7806 26.2498 14.5421 26.2498 14.2935V10.5435C26.2498 10.2948 26.151 10.0564 25.9752 9.88054Z" fill="#0A77DB" fill-opacity="0.5"/>
</g>
<defs>
<clipPath id="clip0_12462_14859">
<rect width="30" height="30" fill="white" transform="translate(-0.000244141 0.230957)"/>
</clipPath>
</defs>
</svg>
