<svg width="30" height="31" viewBox="0 0 30 31" fill="none" xmlns="http://www.w3.org/2000/svg">
<g clip-path="url(#clip0_12474_27210)">
<path d="M28.9577 10.9165H6.79106C6.23864 10.9165 5.77839 11.3015 5.65764 11.8172L2.15647 26.9891C2.13664 27.0731 2.12439 27.16 2.12439 27.2498C2.12439 27.8938 2.64706 28.4165 3.29106 28.4165H8.91031C14.0006 28.4165 8.91031 28.4165 14.0006 28.4165C19.8385 28.4165 14.0006 28.4165 19.8385 28.4165H25.4577C26.0101 28.4165 26.4704 28.0315 26.5911 27.5158L30.0923 12.3439C30.1121 12.2599 30.1244 12.173 30.1244 12.0832C30.1244 11.4392 29.6017 10.9165 28.9577 10.9165Z" fill="#1E7BD2"/>
<g clip-path="url(#clip1_12474_27210)">
<path fill-rule="evenodd" clip-rule="evenodd" d="M22 20C22 21.5913 21.3679 23.1174 20.2426 24.2426C19.1174 25.3679 17.5913 26 16 26C14.4087 26 12.8826 25.3679 11.7574 24.2426C10.6321 23.1174 10 21.5913 10 20C10 18.4087 10.6321 16.8826 11.7574 15.7574C12.8826 14.6321 14.4087 14 16 14C17.5913 14 19.1174 14.6321 20.2426 15.7574C21.3679 16.8826 22 18.4087 22 20V20ZM19.0225 17.7275C18.9689 17.6741 18.9051 17.6321 18.8349 17.6039C18.7648 17.5757 18.6896 17.562 18.614 17.5636C18.5384 17.5651 18.4638 17.5819 18.3949 17.6129C18.3259 17.6439 18.2639 17.6885 18.2125 17.744L15.6078 21.0627L14.038 19.4922C13.9314 19.3929 13.7903 19.3388 13.6446 19.3414C13.4989 19.3439 13.3598 19.403 13.2568 19.506C13.1537 19.6091 13.0947 19.7481 13.0921 19.8939C13.0895 20.0396 13.1436 20.1806 13.243 20.2873L15.2275 22.2725C15.281 22.3259 15.3446 22.3679 15.4147 22.3961C15.4848 22.4244 15.5598 22.4382 15.6353 22.4368C15.7108 22.4354 15.7853 22.4188 15.8543 22.388C15.9232 22.3572 15.9853 22.3128 16.0367 22.2575L19.0308 18.515C19.1328 18.4089 19.1892 18.267 19.1878 18.1197C19.1864 17.9725 19.1273 17.8317 19.0233 17.7275H19.0225Z" fill="white"/>
</g>
<path d="M6.79108 9.16667H27.7911V3.33333C27.7911 2.04475 26.7463 1 25.4577 1H18.645C17.8073 1 17.0344 1.44917 16.6185 2.176L14.9577 5.08333H2.12441C0.835827 5.08333 -0.208923 6.12808 -0.208923 7.41667V24.9913C-0.208923 25.2719 0.0191601 25.5 0.300327 25.5C0.53716 25.5 0.742493 25.3384 0.79616 25.1068C1.68341 21.2492 3.97008 11.3746 3.97766 11.3477C4.31599 10.0586 5.45816 9.16667 6.79108 9.16667V9.16667Z" fill="#1472C9" fill-opacity="0.6"/>
</g>
<defs>
<clipPath id="clip0_12474_27210">
<rect width="30" height="30" fill="white" transform="translate(-0.000610352 0.5)"/>
</clipPath>
<clipPath id="clip1_12474_27210">
<rect width="12" height="12" fill="white" transform="translate(10 14)"/>
</clipPath>
</defs>
</svg>
