<svg width="32" height="33" viewBox="0 0 32 33" fill="none" xmlns="http://www.w3.org/2000/svg">
<g clip-path="url(#clip0_12400_9798)">
<path fill-rule="evenodd" clip-rule="evenodd" d="M-0.000610352 10.5H31.9994V28.5C31.9994 29.5609 31.578 30.5783 30.8278 31.3284C30.0777 32.0786 29.0603 32.5 27.9994 32.5H3.99939C2.93852 32.5 1.92111 32.0786 1.17096 31.3284C0.420817 30.5783 -0.000610352 29.5609 -0.000610352 28.5V10.5ZM18.9994 14.5C18.7342 14.5 18.4798 14.6054 18.2923 14.7929C18.1047 14.9804 17.9994 15.2348 17.9994 15.5V17.5C17.9994 17.7652 18.1047 18.0196 18.2923 18.2071C18.4798 18.3946 18.7342 18.5 18.9994 18.5H20.9994C21.2646 18.5 21.519 18.3946 21.7065 18.2071C21.894 18.0196 21.9994 17.7652 21.9994 17.5V15.5C21.9994 15.2348 21.894 14.9804 21.7065 14.7929C21.519 14.6054 21.2646 14.5 20.9994 14.5H18.9994ZM24.9994 14.5C24.7342 14.5 24.4798 14.6054 24.2923 14.7929C24.1047 14.9804 23.9994 15.2348 23.9994 15.5V17.5C23.9994 17.7652 24.1047 18.0196 24.2923 18.2071C24.4798 18.3946 24.7342 18.5 24.9994 18.5H26.9994C27.2646 18.5 27.519 18.3946 27.7065 18.2071C27.894 18.0196 27.9994 17.7652 27.9994 17.5V15.5C27.9994 15.2348 27.894 14.9804 27.7065 14.7929C27.519 14.6054 27.2646 14.5 26.9994 14.5H24.9994ZM3.99939 21.5C3.99939 21.2348 4.10475 20.9804 4.29228 20.7929C4.47982 20.6054 4.73417 20.5 4.99939 20.5H6.99939C7.26461 20.5 7.51896 20.6054 7.7065 20.7929C7.89403 20.9804 7.99939 21.2348 7.99939 21.5V23.5C7.99939 23.7652 7.89403 24.0196 7.7065 24.2071C7.51896 24.3946 7.26461 24.5 6.99939 24.5H4.99939C4.73417 24.5 4.47982 24.3946 4.29228 24.2071C4.10475 24.0196 3.99939 23.7652 3.99939 23.5V21.5ZM10.9994 20.5C10.7342 20.5 10.4798 20.6054 10.2923 20.7929C10.1047 20.9804 9.99939 21.2348 9.99939 21.5V23.5C9.99939 23.7652 10.1047 24.0196 10.2923 24.2071C10.4798 24.3946 10.7342 24.5 10.9994 24.5H12.9994C13.2646 24.5 13.519 24.3946 13.7065 24.2071C13.894 24.0196 13.9994 23.7652 13.9994 23.5V21.5C13.9994 21.2348 13.894 20.9804 13.7065 20.7929C13.519 20.6054 13.2646 20.5 12.9994 20.5H10.9994Z" fill="#25A0DB"/>
<path d="M7.7065 0.792893C7.89403 0.98043 7.99939 1.23478 7.99939 1.5V2.5H23.9994V1.5C23.9994 1.23478 24.1047 0.98043 24.2923 0.792893C24.4798 0.605357 24.7342 0.5 24.9994 0.5C25.2646 0.5 25.519 0.605357 25.7065 0.792893C25.894 0.98043 25.9994 1.23478 25.9994 1.5V2.5H27.9994C29.0603 2.5 30.0777 2.92143 30.8278 3.67157C31.578 4.42172 31.9994 5.43913 31.9994 6.5V8.5H-0.000610352V6.5C-0.000610352 5.43913 0.420817 4.42172 1.17096 3.67157C1.92111 2.92143 2.93852 2.5 3.99939 2.5H5.99939V1.5C5.99939 1.23478 6.10475 0.98043 6.29228 0.792893C6.47982 0.605357 6.73417 0.5 6.99939 0.5C7.26461 0.5 7.51896 0.605357 7.7065 0.792893Z" fill="#25A0DB" fill-opacity="0.6"/>
</g>
<defs>
<clipPath id="clip0_12400_9798">
<rect width="32" height="32" fill="white" transform="translate(-0.000610352 0.5)"/>
</clipPath>
</defs>
</svg>
