<svg width="32" height="32" viewBox="0 0 32 32" fill="none" xmlns="http://www.w3.org/2000/svg">
<path fill-rule="evenodd" clip-rule="evenodd" d="M13.872 18.56C13.072 18.3081 12.2473 18.1425 11.412 18.066C10.9427 18.0214 10.4715 17.9993 10 18C2 18 0 24 0 26C0 27.334 0.666 28 2 28H10.432C10.1355 27.3756 9.98765 26.6911 10 26C10 23.98 10.754 21.916 12.18 20.192C12.666 19.604 13.232 19.054 13.872 18.56ZM9.84 20C6.504 20.04 4.61 21.28 3.52 22.552C2.326 23.94 2 25.478 2 26H8C8 23.91 8.646 21.828 9.84 20ZM3 11C3 9.4087 3.63214 7.88258 4.75736 6.75736C5.88258 5.63214 7.4087 5 9 5C10.5913 5 12.1174 5.63214 13.2426 6.75736C14.3679 7.88258 15 9.4087 15 11C15 12.5913 14.3679 14.1174 13.2426 15.2426C12.1174 16.3679 10.5913 17 9 17C7.4087 17 5.88258 16.3679 4.75736 15.2426C3.63214 14.1174 3 12.5913 3 11ZM9 7C7.93913 7 6.92172 7.42143 6.17157 8.17157C5.42143 8.92172 5 9.93913 5 11C5 12.0609 5.42143 13.0783 6.17157 13.8284C6.92172 14.5786 7.93913 15 9 15C10.0609 15 11.0783 14.5786 11.8284 13.8284C12.5786 13.0783 13 12.0609 13 11C13 9.93913 12.5786 8.92172 11.8284 8.17157C11.0783 7.42143 10.0609 7 9 7Z" fill="#032D60"/>
<path fill-rule="evenodd" clip-rule="evenodd" d="M30 28C30 28 32 28 32 26C32 24 30 18 22 18C14 18 12 24 12 26C12 28 14 28 14 28H30ZM14.044 26H29.956C29.9654 25.9989 29.9747 25.9976 29.984 25.996L30 25.992C29.996 25.464 29.666 23.932 28.48 22.552C27.376 21.258 25.436 20 22 20C18.566 20 16.626 21.26 15.52 22.552C14.334 23.932 14.002 25.466 14 25.992C14.0146 25.9948 14.0293 25.9975 14.044 26ZM22 14C23.0609 14 24.0783 13.5786 24.8284 12.8284C25.5786 12.0783 26 11.0609 26 10C26 8.93913 25.5786 7.92172 24.8284 7.17157C24.0783 6.42143 23.0609 6 22 6C20.9391 6 19.9217 6.42143 19.1716 7.17157C18.4214 7.92172 18 8.93913 18 10C18 11.0609 18.4214 12.0783 19.1716 12.8284C19.9217 13.5786 20.9391 14 22 14ZM28 10C28 10.7879 27.8448 11.5681 27.5433 12.2961C27.2418 13.0241 26.7998 13.6855 26.2426 14.2426C25.6855 14.7998 25.0241 15.2417 24.2961 15.5433C23.5681 15.8448 22.7879 16 22 16C21.2121 16 20.4319 15.8448 19.7039 15.5433C18.9759 15.2417 18.3145 14.7998 17.7574 14.2426C17.2002 13.6855 16.7583 13.0241 16.4567 12.2961C16.1552 11.5681 16 10.7879 16 10C16 8.4087 16.6321 6.88258 17.7574 5.75736C18.8826 4.63214 20.4087 4 22 4C23.5913 4 25.1174 4.63214 26.2426 5.75736C27.3679 6.88258 28 8.4087 28 10Z" fill="#EF8556"/>
</svg>
