<svg width="38" height="42" viewBox="0 0 38 42" fill="none" xmlns="http://www.w3.org/2000/svg">
<path d="M19.1417 22.0688C19.875 22.0688 20.4333 22.2586 20.8333 22.6383C21.6333 23.4047 21.65 24.9375 20.8167 25.7391C20.4083 26.1328 19.825 26.3367 19.0583 26.3367H16.8167V22.0688H19.1417V22.0688ZM34.4167 10.3828L26.25 3.49219C25.875 3.17578 25.3667 3 24.8333 3H24.3333V12H35V11.5711C35 11.1281 34.7917 10.6992 34.4167 10.3828ZM21.6667 12.5625V3H5C3.89167 3 3 3.75234 3 4.6875V37.3125C3 38.2477 3.89167 39 5 39H33C34.1083 39 35 38.2477 35 37.3125V14.25H23.6667C22.5667 14.25 21.6667 13.4906 21.6667 12.5625ZM26.0833 24.1781C26.0833 30.5273 18.6833 29.6344 16.825 29.6344V33.6562C16.825 34.1203 16.375 34.5 15.825 34.5H13.2583C12.7083 34.5 12.2583 34.1203 12.2583 33.6562V19.6078C12.2583 19.1437 12.7083 18.7641 13.2583 18.7641H20.0083C23.7167 18.7641 26.0833 21.0703 26.0833 24.1781Z" fill="#E67C00"/>
</svg>
