<svg width="50" height="50" viewBox="0 0 50 50" fill="none" xmlns="http://www.w3.org/2000/svg">
<g clip-path="url(#clip0_7164_67861)">
<path d="M18.75 31.251L25 18.751L31.25 31.251L25 27.0843L18.75 31.251Z" fill="white" fill-opacity="0.8"/>
<path d="M33.9945 10.9843L31.2487 0.000976562H18.7487L16.0029 10.9843C11.3924 13.9489 8.33203 19.1135 8.33203 25.001C8.33203 30.8906 11.3924 36.0531 16.0029 39.0176L18.7487 50.001H31.2487L33.9945 39.0176C38.6049 36.0531 41.6654 30.8906 41.6654 25.001C41.6654 19.1135 38.6049 13.9489 33.9945 10.9843ZM24.9987 37.501C18.0966 37.501 12.4987 31.9031 12.4987 25.001C12.4987 18.0989 18.0966 12.501 24.9987 12.501C31.9008 12.501 37.4987 18.0989 37.4987 25.001C37.4987 31.9031 31.9008 37.501 24.9987 37.501Z" fill="white" fill-opacity="0.8"/>
</g>
<defs>
<clipPath id="clip0_7164_67861">
<rect width="50" height="50" fill="white"/>
</clipPath>
</defs>
</svg>
