<svg width="30" height="30" viewBox="0 0 30 30" fill="none" xmlns="http://www.w3.org/2000/svg">
<path d="M6.42851 19.2852H2.14284C0.959381 19.2852 0 20.2445 0 21.428V27.8565C0 29.04 0.959381 29.9993 2.14284 29.9993H6.42851C7.61197 29.9993 8.57135 29.04 8.57135 27.8565V21.428C8.57135 20.2445 7.61197 19.2852 6.42851 19.2852Z" fill="#0A77DB"/>
<path d="M17.1434 10.7144H12.8577C11.6742 10.7144 10.7148 11.6737 10.7148 12.8572V27.8571C10.7148 29.0405 11.6742 29.9999 12.8577 29.9999H17.1434C18.3268 29.9999 19.2862 29.0405 19.2862 27.8571V12.8572C19.2862 11.6737 18.3268 10.7144 17.1434 10.7144Z" fill="#0A77DB" fill-opacity="0.5"/>
<path d="M27.8582 0H23.5725C22.3891 0 21.4297 0.959381 21.4297 2.14284V27.8569C21.4297 29.0403 22.3891 29.9997 23.5725 29.9997H27.8582C29.0417 29.9997 30.001 29.0403 30.001 27.8569V2.14284C30.001 0.959381 29.0417 0 27.8582 0Z" fill="#0A77DB"/>
</svg>
