<svg width="30" height="30" viewBox="0 0 30 30" fill="none" xmlns="http://www.w3.org/2000/svg">
<path opacity="0.6" d="M10.8984 0.46875H19.1016C19.425 0.46875 19.6875 0.748125 19.6875 1.09375V3.59375C19.6875 3.93937 19.425 4.21875 19.1016 4.21875H10.8984C10.575 4.21875 10.3125 3.93937 10.3125 3.59375V1.09375C10.3125 0.748125 10.575 0.46875 10.8984 0.46875Z" fill="#0A77DB"/>
<path d="M26.0268 3.28125H20.8036C20.8036 4.24608 20.0224 5.03125 19.0625 5.03125H10.9375C9.97759 5.03125 9.19643 4.24608 9.19643 3.28125H3.97321C3.3325 3.28125 2.8125 3.80392 2.8125 4.44792V28.3646C2.8125 29.0086 3.3325 29.5312 3.97321 29.5312H26.0268C26.6675 29.5312 27.1875 29.0086 27.1875 28.3646V4.44792C27.1875 3.80392 26.6675 3.28125 26.0268 3.28125ZM24.2857 26.6146H5.71429V6.78125H24.2857V26.6146Z" fill="#0A77DB"/>
<path d="M8.90625 12.6562C10.2007 12.6562 11.25 11.6069 11.25 10.3125C11.25 9.01808 10.2007 7.96875 8.90625 7.96875C7.61183 7.96875 6.5625 9.01808 6.5625 10.3125C6.5625 11.6069 7.61183 12.6562 8.90625 12.6562Z" fill="#0A77DB"/>
<path d="M8.90625 24.8438C10.2007 24.8438 11.25 23.7944 11.25 22.5C11.25 21.2056 10.2007 20.1562 8.90625 20.1562C7.61183 20.1562 6.5625 21.2056 6.5625 22.5C6.5625 23.7944 7.61183 24.8438 8.90625 24.8438Z" fill="#0A77DB"/>
<path d="M8.90625 18.2812C10.2007 18.2812 11.25 17.4418 11.25 16.4062C11.25 15.3707 10.2007 14.5312 8.90625 14.5312C7.61183 14.5312 6.5625 15.3707 6.5625 16.4062C6.5625 17.4418 7.61183 18.2812 8.90625 18.2812Z" fill="#0A77DB"/>
<path opacity="0.6" d="M21.5264 8.90625C22.0638 8.90625 22.5 9.53625 22.5 10.3125C22.5 11.0888 22.0638 11.7188 21.5264 11.7188H15.0361C14.498 11.7188 14.0625 11.0888 14.0625 10.3125C14.0625 9.53625 14.498 8.90625 15.0361 8.90625H21.5264Z" fill="#0A77DB"/>
<path opacity="0.6" d="M21.5264 15.4688C22.0638 15.4688 22.5 15.8887 22.5 16.4062C22.5 16.9238 22.0638 17.3438 21.5264 17.3438H15.0361C14.498 17.3438 14.0625 16.9238 14.0625 16.4062C14.0625 15.8887 14.498 15.4688 15.0361 15.4688H21.5264Z" fill="#0A77DB"/>
<path opacity="0.6" d="M21.5264 21.0938C22.0638 21.0938 22.5 21.7237 22.5 22.5C22.5 23.2763 22.0638 23.9062 21.5264 23.9062H15.0361C14.498 23.9062 14.0625 23.2763 14.0625 22.5C14.0625 21.7237 14.498 21.0938 15.0361 21.0938H21.5264Z" fill="#0A77DB"/>
</svg>
