<svg width="31" height="31" viewBox="0 0 31 31" fill="none" xmlns="http://www.w3.org/2000/svg">
<g clip-path="url(#clip0_9538_98866)">
<path d="M11.2812 3.41992C5.75875 3.41992 1.28125 7.89724 1.28125 13.4195C1.28125 18.9418 11.2812 28.4189 11.2812 28.4189C11.2812 28.4189 21.2812 18.9418 21.2812 13.4195C21.2812 7.89724 16.8038 3.41992 11.2812 3.41992ZM17.5312 14.6695H12.5312V19.6692H10.0313V14.6695H5.03125V12.1696H10.0313V7.16977H12.5312V12.1696H17.5312V14.6695Z" fill="#0A77DB"/>
<circle cx="24.2773" cy="25.916" r="9" fill="white"/>
<path d="M18.1239 23.7197L15.4453 26.1304L22.9453 30.9518L30.4453 19.3804L21.8739 27.0947L18.1239 23.7197Z" fill="#FF003D"/>
</g>
<defs>
<clipPath id="clip0_9538_98866">
<rect width="30" height="30" fill="white" transform="translate(0.277344 0.916016)"/>
</clipPath>
</defs>
</svg>
