<svg width="31" height="31" viewBox="0 0 31 31" fill="none" xmlns="http://www.w3.org/2000/svg">
<g clip-path="url(#clip0_9538_98803)">
<path d="M14.0273 13.4165H9.02734V18.4165H14.0273V13.4165Z" fill="#0A77DB"/>
<path d="M6.52734 13.4165H0.529844C0.364844 14.224 0.277344 15.0603 0.277344 15.9165C0.277344 16.774 0.364844 17.609 0.529844 18.4165H6.52734V13.4165Z" fill="#0A77DB"/>
<path d="M9.02734 10.9165H14.0273V3.4165H12.7773C11.4711 3.4165 10.2123 3.62025 9.02734 3.99275V10.9165Z" fill="#0A77DB"/>
<path d="M9.02734 20.9165V27.8415C10.2123 28.214 11.4711 28.4165 12.7773 28.4165H14.0273V20.9165H9.02734Z" fill="#0A77DB"/>
<path d="M6.52688 10.9171V5.1084C4.23438 6.43965 2.39938 8.47215 1.32812 10.9171H6.52688Z" fill="#0A77DB"/>
<path d="M6.52688 20.9165H1.32812C2.39938 23.3628 4.23438 25.394 6.52688 26.724V20.9165Z" fill="#0A77DB"/>
<path d="M21.5273 10.916C23.5984 10.916 25.2773 9.23708 25.2773 7.16602C25.2773 5.09495 23.5984 3.41602 21.5273 3.41602C19.4563 3.41602 17.7773 5.09495 17.7773 7.16602C17.7773 9.23708 19.4563 10.916 21.5273 10.916Z" fill="#0A77DB" fill-opacity="0.5"/>
<path d="M21.5273 10.916C18.0811 10.916 15.2773 13.7198 15.2773 17.166V20.916C15.2773 21.606 15.8373 22.166 16.5273 22.166H17.7773V27.166C17.7773 27.856 18.3373 28.416 19.0273 28.416H24.0273C24.7173 28.416 25.2773 27.856 25.2773 27.166V22.166H26.5273C27.2173 22.166 27.7773 21.606 27.7773 20.916V17.166C27.7773 13.7198 24.9736 10.916 21.5273 10.916Z" fill="#0A77DB" fill-opacity="0.5"/>
</g>
<defs>
<clipPath id="clip0_9538_98803">
<rect width="30" height="30" fill="white" transform="translate(0.277344 0.916016)"/>
</clipPath>
</defs>
</svg>
