<svg width="32" height="31" viewBox="0 0 32 31" fill="none" xmlns="http://www.w3.org/2000/svg">
<path d="M30.3682 11.0946C30.3682 16.184 26.3352 20.2732 21.4048 20.2732C16.4745 20.2732 12.4414 16.184 12.4414 11.0946C12.4414 6.00515 16.4745 1.91602 21.4048 1.91602C26.3352 1.91602 30.3682 6.00515 30.3682 11.0946Z" stroke="#0A77DB" stroke-width="2"/>
<rect x="20.2969" y="4.30859" width="1.66057" height="7.91667" rx="0.830285" fill="#0A77DB" fill-opacity="0.8"/>
<rect x="25.832" y="11.0947" width="1.69643" height="5.53523" rx="0.848214" transform="rotate(90 25.832 11.0947)" fill="#0A77DB" fill-opacity="0.8"/>
<line y1="-0.75" x2="8.27554" y2="-0.75" transform="matrix(0.762195 0.647347 -0.647337 0.762204 3.07422 24.4873)" stroke="#0A77DB" stroke-width="1.5"/>
<line y1="-0.75" x2="9.60966" y2="-0.75" transform="matrix(0.74329 -0.66897 0.74329 0.66897 9.38281 29.8447)" stroke="#0A77DB" stroke-width="1.5"/>
<line y1="-0.75" x2="10.3571" y2="-0.75" transform="matrix(0.68965 0.724143 -0.791778 0.610809 14.1445 23.416)" stroke="#0A77DB" stroke-width="1.5"/>
<line y1="-0.75" x2="4.07203" y2="-0.75" transform="matrix(0.613935 -0.789356 0.789348 0.613946 2 26.6304)" stroke="#0A77DB" stroke-width="1.5"/>
<line y1="-0.75" x2="13.0783" y2="-0.75" transform="matrix(0.819228 -0.573468 0.653858 0.756617 21.2891 30.916)" stroke="#0A77DB" stroke-width="1.5"/>
</svg>
