<svg width="372" height="253" viewBox="0 0 372 253" fill="none" xmlns="http://www.w3.org/2000/svg">
<path d="M51.9135 16.6472C44.8868 16.6472 38.0179 18.7309 32.1754 22.6347C26.3328 26.5386 21.7792 32.0872 19.0901 38.5791C16.4011 45.0709 15.6976 52.2144 17.0684 59.1061C18.4393 65.9978 21.823 72.3283 26.7916 77.2969C31.7603 82.2656 38.0907 85.6492 44.9824 87.0201C51.8741 88.3909 59.0176 87.6874 65.5094 84.9984C72.0013 82.3093 77.5499 77.7557 81.4538 71.9132C85.3576 66.0706 87.4413 59.2017 87.4413 52.175C87.4413 42.7524 83.6982 33.7158 77.0355 27.0531C70.3727 20.3903 61.3361 16.6472 51.9135 16.6472ZM51.9135 68.7377C48.6324 68.7377 45.4249 67.7646 42.6968 65.9415C39.9687 64.1184 37.8426 61.5272 36.5873 58.4956C35.3321 55.4641 35.0041 52.1283 35.6448 48.9103C36.2855 45.6923 37.8662 42.7366 40.187 40.4171C42.5077 38.0975 45.4642 36.5183 48.6825 35.8792C51.9009 35.2401 55.2365 35.5698 58.2674 36.8266C61.2983 38.0835 63.8884 40.2109 65.7101 42.9399C67.5318 45.6689 68.5033 48.8769 68.5016 52.1581C68.4971 56.5538 66.7472 60.7678 63.6366 63.8737C60.526 66.9795 56.3093 68.723 51.9135 68.7208V68.7377Z" fill="#455A64" fill-opacity="0.3"/>
<path d="M31.6629 30.0208C31.6239 29.9577 31.6086 29.8829 31.6197 29.8096C31.6308 29.7363 31.6676 29.6694 31.7234 29.6206C31.7792 29.5719 31.8506 29.5446 31.9247 29.5435C31.9988 29.5424 32.0709 29.5677 32.1281 29.6148L37.6095 35.8152C37.6674 35.8738 37.6998 35.9528 37.6998 36.0352C37.6998 36.1175 37.6674 36.1965 37.6095 36.2551C37.5812 36.2835 37.5476 36.306 37.5106 36.3214C37.4736 36.3368 37.4339 36.3447 37.3938 36.3447C37.3537 36.3447 37.3141 36.3368 37.277 36.3214C37.24 36.306 37.2064 36.2835 37.1781 36.2551L31.6629 30.0208Z" fill="white"/>
<path d="M40.0025 34.1234H39.9602C39.8881 34.1524 39.8077 34.1528 39.7354 34.1245C39.663 34.0962 39.6043 34.0414 39.5711 33.9711L35.9844 26.5188C35.9491 26.4469 35.9434 26.364 35.9688 26.288C35.9941 26.212 36.0483 26.149 36.1198 26.1127L37.5917 25.4022C38.6457 24.9482 39.8344 24.9191 40.9094 25.3209C41.9844 25.7227 42.8626 26.5244 43.3605 27.5584C43.8584 28.5924 43.9375 29.7788 43.5813 30.8698C43.2251 31.9608 42.4611 32.8719 41.4489 33.4129L40.0025 34.1234ZM41.2121 32.8461C42.1102 32.3963 42.7953 31.6112 43.1193 30.6604C43.4432 29.7096 43.38 28.6695 42.9433 27.765C42.5065 26.8604 41.7314 26.164 40.7854 25.8264C39.8394 25.4887 38.7985 25.5369 37.8877 25.9605L36.6781 26.5442L39.994 33.4298L41.2121 32.8461Z" fill="white"/>
<path d="M45.8215 22.687C45.8119 22.6074 45.8341 22.5273 45.8832 22.4639C45.9323 22.4006 46.0043 22.3592 46.0838 22.3486L50.6347 21.7903C50.7151 21.7831 50.7952 21.8072 50.8583 21.8576C50.9214 21.9081 50.9625 21.981 50.9731 22.061C50.979 22.1017 50.9766 22.1431 50.9661 22.1829C50.9555 22.2226 50.9371 22.2598 50.9118 22.2922C50.8865 22.3246 50.8549 22.3516 50.8189 22.3714C50.7829 22.3913 50.7433 22.4037 50.7024 22.4078L46.4729 22.9238L46.8958 26.4174L50.6347 25.9606C50.6754 25.9559 50.7166 25.9595 50.7559 25.9711C50.7951 25.9828 50.8316 26.0022 50.8632 26.0282C50.8948 26.0543 50.9208 26.0865 50.9397 26.1228C50.9586 26.1592 50.9699 26.1989 50.9731 26.2398C50.979 26.2793 50.9768 26.3197 50.9667 26.3584C50.9566 26.3971 50.9388 26.4334 50.9143 26.465C50.8898 26.4966 50.8591 26.5229 50.8241 26.5424C50.7892 26.5618 50.7506 26.574 50.7108 26.5781L47.0227 27.0349L47.4457 30.5115L51.6752 29.9955C51.716 29.9896 51.7577 29.9923 51.7975 30.0034C51.8373 30.0145 51.8743 30.0339 51.9062 30.0602C51.9381 30.0864 51.9641 30.1191 51.9826 30.1561C52.001 30.193 52.0116 30.2334 52.0135 30.2747C52.0231 30.3542 52.001 30.4344 51.9519 30.4977C51.9028 30.5611 51.8307 30.6025 51.7513 30.6131L47.2511 31.1629H47.1919C47.1155 31.166 47.0407 31.141 46.9815 31.0927C46.9223 31.0444 46.8828 30.9761 46.8705 30.9007L45.8215 22.687Z" fill="white"/>
<path d="M58.909 29.4035L54.9502 28.5576L53.7406 30.444C53.7065 30.4959 53.6577 30.5365 53.6004 30.5606C53.5432 30.5847 53.4801 30.5912 53.4191 30.5793H53.3092C53.2409 30.5314 53.1934 30.4593 53.1761 30.3777C53.1588 30.2961 53.1731 30.211 53.2161 30.1395L57.9531 22.7294C57.9918 22.6784 58.0441 22.6395 58.104 22.617C58.1638 22.5945 58.2289 22.5895 58.2915 22.6025C58.3547 22.6137 58.413 22.644 58.4584 22.6894C58.5038 22.7348 58.5341 22.7931 58.5453 22.8563L59.8479 31.5014C59.8553 31.5408 59.8547 31.5813 59.8464 31.6206C59.838 31.6598 59.8219 31.697 59.7991 31.73C59.7763 31.763 59.7472 31.7912 59.7135 31.8129C59.6798 31.8347 59.6421 31.8495 59.6026 31.8566H59.4842C59.4234 31.8409 59.3686 31.8076 59.3265 31.761C59.2844 31.7144 59.2569 31.6565 59.2474 31.5944L58.909 29.4035ZM55.3055 27.9994L58.8159 28.7437L58.0631 23.6683L55.3055 27.9994Z" fill="white"/>
<path d="M58.7397 18.1194H45.0869L45.8398 8.45923H57.9869L58.7397 18.1194Z" fill="#455A64" fill-opacity="0.3"/>
<path d="M32.7447 22.7209L23.093 32.3811L16.791 25.0133L25.3769 16.4189L32.7447 22.7209Z" fill="#455A64" fill-opacity="0.3"/>
<path d="M17.6211 44.3589V58.0117L7.96094 57.2588V45.1117L17.6211 44.3589Z" fill="#455A64" fill-opacity="0.3"/>
<path d="M22.2219 70.345L31.882 80.0051L24.5143 86.3071L15.9199 77.7212L22.2219 70.345Z" fill="#455A64" fill-opacity="0.3"/>
<path d="M43.8506 85.478H57.5119L56.759 95.1382H44.6119L43.8506 85.478Z" fill="#455A64" fill-opacity="0.3"/>
<path d="M69.8457 80.8765L79.5059 71.2163L85.8078 78.5841L77.2135 87.1784L69.8457 80.8765Z" fill="#455A64" fill-opacity="0.3"/>
<path d="M84.9707 59.2383V45.5854L94.6393 46.3383V58.4854L84.9707 59.2383Z" fill="#455A64" fill-opacity="0.3"/>
<path d="M80.377 33.2439L70.7168 23.5922L78.0846 17.2903L86.6705 25.8762L80.377 33.2439Z" fill="#455A64" fill-opacity="0.3"/>
<path d="M54.2731 43.4877V60.1011C54.2665 60.5155 54.0966 60.9105 53.8004 61.2003C53.5042 61.4901 53.1057 61.6514 52.6913 61.6491C52.4874 61.6514 52.2851 61.6129 52.0962 61.5359C51.9074 61.4589 51.7359 61.345 51.5917 61.2008C51.4475 61.0566 51.3335 60.885 51.2565 60.6962C51.1795 60.5074 51.141 60.305 51.1433 60.1011V46.2453L50.0183 46.8882C49.7846 47.0408 49.5107 47.1203 49.2316 47.1166C48.8938 47.111 48.5666 46.9975 48.2981 46.7925C48.0295 46.5876 47.8336 46.302 47.739 45.9777C47.6444 45.6534 47.6562 45.3073 47.7726 44.9901C47.8889 44.673 48.1038 44.4014 48.3857 44.2152L51.8539 42.1596C51.8539 42.1596 51.9385 42.1596 51.9638 42.1004C51.9892 42.0412 52.0484 42.0496 52.1076 42.0158H52.2684C52.307 42.004 52.3482 42.004 52.3868 42.0158C52.4505 41.999 52.5176 41.999 52.5813 42.0158H52.8943C52.8943 42.0158 52.9789 42.0158 53.0043 42.0158C53.0642 42.017 53.1227 42.0346 53.1735 42.0666C53.1735 42.0666 53.2581 42.0666 53.2834 42.0666C53.3088 42.0666 53.4019 42.1512 53.4526 42.1512L53.571 42.2357C53.571 42.2357 53.6556 42.2865 53.681 42.3203C53.7064 42.3542 53.7656 42.4049 53.791 42.4303C53.8277 42.4595 53.8568 42.4973 53.8756 42.5403L53.994 42.6587V42.7095C53.994 42.7095 53.994 42.7687 53.994 42.794C53.994 42.8194 54.0532 42.8786 54.0532 42.9378C54.0532 42.9971 54.0532 43.0478 54.1124 43.0816C54.1101 43.1267 54.1101 43.1719 54.1124 43.217C54.1065 43.2531 54.1088 43.2901 54.119 43.3252C54.1293 43.3603 54.1472 43.3927 54.1716 43.42L54.2731 43.4877Z" fill="#263238"/>
<path d="M86.384 14.5072C85.3774 23.0592 79.879 24.658 78.957 26.9081C78.4883 28.3421 78.1041 29.8023 77.8066 31.2814H68.8654C68.5719 29.8022 68.1906 28.3419 67.7234 26.9081C66.8099 24.6241 61.3115 23.0423 60.3218 14.4818C59.6705 8.86503 63.9084 -0.00845295 73.3656 6.04345e-06C82.8227 0.00846503 87.0099 8.88195 86.384 14.5072Z" fill="#EC5E20" fill-opacity="0.8"/>
<path d="M68.7799 17.57L68.2061 17.6765L70.8446 31.8987L71.4184 31.7922L68.7799 17.57Z" fill="white"/>
<path d="M77.9227 17.5946L75.252 31.8108L75.8256 31.9186L78.4963 17.7024L77.9227 17.5946Z" fill="white"/>
<path d="M73.3477 22.3992C72.8841 22.3215 72.4486 22.1247 72.0838 21.8281C71.719 21.5316 71.4375 21.1454 71.2668 20.7074C71.175 20.8215 71.0609 20.9156 70.9314 20.984C70.802 21.0523 70.6599 21.0935 70.5139 21.105C69.152 21.105 68.6107 18.3135 68.5938 18.1951L68.8814 18.1443C69.0167 18.8803 69.5834 20.8089 70.5139 20.8089C70.6377 20.792 70.7566 20.7494 70.8629 20.6838C70.9692 20.6183 71.0607 20.5312 71.1314 20.4283C70.7343 19.6386 70.5094 18.7736 70.4716 17.8906C70.4716 17.0954 70.7762 16.6471 71.3175 16.6471C71.4731 16.6412 71.6273 16.6784 71.7631 16.7545C71.899 16.8306 72.0111 16.9427 72.0873 17.0785C72.5018 17.8144 72.1888 19.2525 71.6644 20.1745C71.6023 20.276 71.5431 20.369 71.4867 20.4536C71.9604 21.3587 72.6371 22.0862 73.3646 22.0862C74.016 22.0862 74.5996 21.4856 75.0564 20.6905C74.4968 20.0163 74.1968 19.1642 74.2105 18.2881C74.2105 17.2731 74.5912 16.6471 75.2171 16.6471C75.7247 16.6471 76.0123 17.1462 76.0123 18.009C75.98 18.9206 75.7612 19.816 75.3694 20.6397C75.5976 20.8578 75.8997 20.9817 76.2153 20.9866C77.0612 20.9866 77.7295 19.0494 77.9071 18.2966L78.1862 18.3812C78.1101 18.6773 77.3403 21.2742 76.1815 21.2742C75.8182 21.2694 75.4681 21.1377 75.1918 20.902C75.0473 21.2942 74.7997 21.6402 74.4752 21.9037C74.1507 22.1672 73.7612 22.3383 73.3477 22.3992ZM75.1664 16.9685C74.6335 16.9685 74.4474 17.6875 74.4474 18.3135C74.442 19.0725 74.6726 19.8144 75.1072 20.4367C75.4514 19.6811 75.6412 18.8643 75.6655 18.0344C75.6655 17.7129 75.6147 16.9685 75.1664 16.9685ZM71.2752 16.9685C70.8269 16.9685 70.7339 17.493 70.7339 17.9244C70.7649 18.7073 70.9548 19.4757 71.2922 20.183L71.3683 20.0645C71.8505 19.2186 72.1381 17.8736 71.7912 17.2561C71.7415 17.1641 71.6666 17.0881 71.5752 17.0372C71.4838 16.9862 71.3797 16.9624 71.2752 16.9685Z" fill="white"/>
<path d="M78.9133 30.7908H67.8828V32.9478H78.9133V30.7908Z" fill="#263238"/>
<path d="M78.846 33.4063L67.8154 33.3948L67.8132 35.5518L78.8437 35.5634L78.846 33.4063Z" fill="#263238"/>
<path d="M78.844 35.9102L67.8135 35.8987L67.8112 38.0557L78.8417 38.0673L78.844 35.9102Z" fill="#263238"/>
<path d="M110.568 123.797C102.161 123.792 93.9422 126.28 86.9501 130.947C79.958 135.614 74.507 142.249 71.2865 150.014C68.0661 157.779 67.2208 166.325 68.8578 174.571C70.4947 182.816 74.5402 190.391 80.4827 196.337C86.4251 202.283 93.9975 206.333 102.242 207.975C110.486 209.617 119.033 208.776 126.8 205.561C134.567 202.345 141.205 196.898 145.876 189.908C150.547 182.919 153.04 174.702 153.04 166.295C153.029 155.032 148.551 144.233 140.589 136.266C132.627 128.299 121.831 123.815 110.568 123.797ZM110.568 199.742C103.949 199.747 97.4783 197.789 91.9731 194.116C86.4678 190.442 82.1758 185.218 79.64 179.105C77.1043 172.992 76.4386 166.264 77.7273 159.772C79.016 153.281 82.2011 147.317 86.8798 142.636C91.5584 137.955 97.5203 134.767 104.011 133.475C110.502 132.183 117.231 132.845 123.345 135.378C129.46 137.911 134.685 142.2 138.362 147.703C142.038 153.207 143.999 159.677 143.998 166.295C143.999 170.686 143.135 175.035 141.455 179.092C139.776 183.15 137.314 186.836 134.21 189.942C131.105 193.048 127.42 195.512 123.363 197.193C119.307 198.875 114.959 199.741 110.568 199.742ZM110.568 123.797C102.161 123.792 93.9422 126.28 86.9501 130.947C79.958 135.614 74.507 142.249 71.2865 150.014C68.0661 157.779 67.2208 166.325 68.8578 174.571C70.4947 182.816 74.5402 190.391 80.4827 196.337C86.4251 202.283 93.9975 206.333 102.242 207.975C110.486 209.617 119.033 208.776 126.8 205.561C134.567 202.345 141.205 196.898 145.876 189.908C150.547 182.919 153.04 174.702 153.04 166.295C153.029 155.032 148.551 144.233 140.589 136.266C132.627 128.299 121.831 123.815 110.568 123.797ZM110.568 199.742C103.949 199.747 97.4783 197.789 91.9731 194.116C86.4678 190.442 82.1758 185.218 79.64 179.105C77.1043 172.992 76.4386 166.264 77.7273 159.772C79.016 153.281 82.2011 147.317 86.8798 142.636C91.5584 137.955 97.5203 134.767 104.011 133.475C110.502 132.183 117.231 132.845 123.345 135.378C129.46 137.911 134.685 142.2 138.362 147.703C142.038 153.207 143.999 159.677 143.998 166.295C143.999 170.686 143.135 175.035 141.455 179.092C139.776 183.15 137.314 186.836 134.21 189.942C131.105 193.048 127.42 195.512 123.363 197.193C119.307 198.875 114.959 199.741 110.568 199.742ZM110.568 94.656C96.4 94.6527 82.5496 98.8507 70.768 106.719C58.9863 114.588 49.8026 125.773 44.3782 138.861C38.9538 151.949 37.5323 166.352 40.2936 180.248C43.0549 194.144 49.8749 206.909 59.8911 216.928C69.9074 226.948 82.6699 233.773 96.5648 236.539C110.46 239.305 124.863 237.889 137.953 232.469C151.043 227.049 162.232 217.869 170.104 206.091C177.977 194.312 182.18 180.463 182.181 166.295C182.181 147.3 174.637 129.082 161.208 115.648C147.778 102.213 129.563 94.6627 110.568 94.656ZM110.568 212.862C101.352 212.872 92.3398 210.148 84.6727 205.034C77.0057 199.92 71.0282 192.646 67.4967 184.134C63.9653 175.621 63.0386 166.252 64.8341 157.213C66.6296 148.173 71.0665 139.87 77.5833 133.353C84.1 126.836 92.4035 122.4 101.443 120.604C110.482 118.809 119.851 119.735 128.364 123.267C136.876 126.798 144.15 132.776 149.264 140.443C154.378 148.11 157.102 157.121 157.092 166.337C157.065 178.668 152.155 190.486 143.436 199.206C134.717 207.925 122.898 212.835 110.568 212.862ZM110.568 123.797C102.161 123.792 93.9422 126.28 86.9501 130.947C79.958 135.614 74.507 142.249 71.2865 150.014C68.0661 157.779 67.2208 166.325 68.8578 174.571C70.4947 182.816 74.5402 190.391 80.4827 196.337C86.4251 202.283 93.9975 206.333 102.242 207.975C110.486 209.617 119.033 208.776 126.8 205.561C134.567 202.345 141.205 196.898 145.876 189.908C150.547 182.919 153.04 174.702 153.04 166.295C153.029 155.032 148.551 144.233 140.589 136.266C132.627 128.299 121.831 123.815 110.568 123.797ZM110.568 199.742C103.949 199.747 97.4783 197.789 91.9731 194.116C86.4678 190.442 82.1758 185.218 79.64 179.105C77.1043 172.992 76.4386 166.264 77.7273 159.772C79.016 153.281 82.2011 147.317 86.8798 142.636C91.5584 137.955 97.5203 134.767 104.011 133.475C110.502 132.183 117.231 132.845 123.345 135.378C129.46 137.911 134.685 142.2 138.362 147.703C142.038 153.207 143.999 159.677 143.998 166.295C143.999 170.686 143.135 175.035 141.455 179.092C139.776 183.15 137.314 186.836 134.21 189.942C131.105 193.048 127.42 195.512 123.363 197.193C119.307 198.875 114.959 199.741 110.568 199.742Z" fill="#EC5E20" fill-opacity="0.8"/>
<path d="M72.1632 129.879C71.9626 129.704 71.7219 129.58 71.4622 129.52C71.2026 129.459 70.932 129.464 70.6745 129.532C70.3073 129.619 69.9618 129.78 69.6594 130.006H69.6002L68.1621 131.622L70.7929 133.956C70.8226 133.985 70.8462 134.019 70.8623 134.057C70.8785 134.095 70.8868 134.135 70.8868 134.176C70.8868 134.217 70.8785 134.258 70.8623 134.296C70.8462 134.334 70.8226 134.368 70.7929 134.396C70.7347 134.452 70.6575 134.482 70.5772 134.482C70.4969 134.482 70.4197 134.452 70.3615 134.396L64.1695 128.949C64.1212 128.892 64.0947 128.82 64.0947 128.746C64.0947 128.671 64.1212 128.599 64.1695 128.543L65.8105 126.69C66.1953 126.26 66.715 125.974 67.2841 125.879C67.8532 125.784 68.4377 125.886 68.9412 126.168C69.4447 126.45 69.8372 126.894 70.0538 127.429C70.2705 127.964 70.2984 128.557 70.1331 129.109L70.2684 129.059C70.6489 128.915 71.0613 128.879 71.461 128.953C71.8607 129.028 72.2323 129.211 72.5354 129.482C72.786 129.72 73.0712 129.92 73.3813 130.074C73.4566 130.114 73.5417 130.131 73.6267 130.125C73.669 130.057 73.7351 130.009 73.8118 129.989C73.8885 129.969 73.9699 129.978 74.0397 130.016C74.1095 130.054 74.1625 130.116 74.1878 130.191C74.2132 130.266 74.2092 130.348 74.1765 130.421C74.1495 130.466 74.1183 130.508 74.0834 130.547C73.9943 130.631 73.885 130.689 73.7664 130.718C73.6477 130.746 73.5238 130.742 73.4067 130.708C72.9324 130.534 72.5062 130.25 72.1632 129.879ZM66.3012 127.088L64.8462 128.729L67.7138 131.266L69.1265 129.676L69.2026 129.592C69.5391 129.207 69.709 128.704 69.6749 128.194C69.6408 127.684 69.4055 127.209 69.0207 126.872C68.636 126.536 68.1333 126.366 67.6233 126.4C67.1133 126.434 66.6377 126.669 66.3012 127.054V127.088Z" fill="white"/>
<path d="M70.3867 122.376C70.3586 122.349 70.3362 122.316 70.321 122.279C70.3057 122.243 70.2979 122.204 70.2979 122.165C70.2979 122.125 70.3057 122.086 70.321 122.05C70.3362 122.014 70.3586 121.981 70.3867 121.953L73.8634 119.018C73.8944 118.992 73.9302 118.973 73.9687 118.961C74.0073 118.949 74.0478 118.945 74.0879 118.949C74.128 118.953 74.167 118.965 74.2025 118.984C74.238 119.003 74.2694 119.029 74.2948 119.06C74.3245 119.089 74.3481 119.123 74.3642 119.161C74.3803 119.198 74.3887 119.239 74.3887 119.28C74.3887 119.321 74.3803 119.362 74.3642 119.4C74.3481 119.438 74.3245 119.472 74.2948 119.5L71.0381 122.241L73.3051 124.931L76.1473 122.528C76.179 122.502 76.2159 122.482 76.2556 122.47C76.2953 122.458 76.337 122.454 76.3782 122.459C76.4193 122.464 76.4591 122.477 76.4951 122.498C76.531 122.518 76.5623 122.546 76.5872 122.579C76.6153 122.607 76.6376 122.64 76.6529 122.676C76.6682 122.712 76.676 122.751 76.676 122.791C76.676 122.83 76.6682 122.869 76.6529 122.905C76.6376 122.942 76.6153 122.975 76.5872 123.002L73.7365 125.396L75.995 128.069L79.2433 125.328C79.2755 125.303 79.3124 125.284 79.352 125.273C79.3915 125.261 79.4329 125.258 79.4737 125.263C79.5146 125.267 79.5541 125.28 79.59 125.3C79.626 125.32 79.6576 125.347 79.6831 125.379C79.7115 125.407 79.7341 125.441 79.7494 125.478C79.7648 125.515 79.7727 125.555 79.7727 125.595C79.7727 125.635 79.7648 125.675 79.7494 125.712C79.7341 125.749 79.7115 125.782 79.6831 125.811L76.2234 128.729C76.1605 128.771 76.084 128.789 76.0089 128.778C75.9338 128.767 75.8655 128.728 75.8174 128.67L70.3867 122.376Z" fill="white"/>
<path d="M80.292 123.205C80.2948 123.168 80.3055 123.132 80.3233 123.1C80.3411 123.067 80.3656 123.039 80.3952 123.016C80.4247 122.994 80.4587 122.978 80.4949 122.97C80.5311 122.962 80.5686 122.961 80.6049 122.968C81.6675 123.124 82.7517 122.928 83.6925 122.41C84.2925 122.055 84.7681 121.523 85.0544 120.887C85.1656 120.647 85.2189 120.385 85.2101 120.12C85.2013 119.856 85.1306 119.597 85.0036 119.365C84.872 119.154 84.6868 118.982 84.4668 118.866C84.2469 118.75 84.0001 118.694 83.7517 118.705C83.0192 118.726 82.2968 118.881 81.62 119.162C80.9317 119.462 80.1887 119.618 79.4376 119.619C79.1225 119.625 78.811 119.55 78.5327 119.402C78.2544 119.254 78.0185 119.037 77.8473 118.773C77.6853 118.484 77.594 118.161 77.5808 117.83C77.5675 117.499 77.6328 117.17 77.7712 116.869C78.0733 116.16 78.5952 115.567 79.26 115.178C80.1394 114.703 81.1429 114.508 82.136 114.619C82.2108 114.624 82.281 114.657 82.3315 114.712C82.3821 114.768 82.409 114.841 82.4067 114.915C82.4023 114.988 82.3699 115.056 82.3161 115.105C82.2624 115.154 82.1917 115.18 82.1191 115.178C81.245 115.081 80.3617 115.246 79.5814 115.651C79.0306 115.983 78.5917 116.472 78.321 117.056C78.2076 117.272 78.1484 117.513 78.1484 117.758C78.1484 118.002 78.2076 118.243 78.321 118.46C78.4419 118.646 78.6095 118.796 78.8068 118.897C79.0042 118.998 79.2246 119.046 79.4461 119.035C80.1243 119.024 80.7939 118.88 81.417 118.612C82.1617 118.298 82.9603 118.131 83.7686 118.121C84.1052 118.121 84.4364 118.206 84.732 118.367C85.0275 118.528 85.278 118.761 85.4604 119.043C85.6334 119.353 85.7306 119.699 85.7438 120.054C85.757 120.408 85.686 120.76 85.5365 121.082C85.2105 121.829 84.6569 122.453 83.9547 122.867C82.8998 123.445 81.6856 123.665 80.495 123.493C80.4341 123.474 80.3811 123.436 80.3443 123.384C80.3076 123.332 80.2892 123.269 80.292 123.205Z" fill="white"/>
<path d="M85.2068 112.428C85.1779 112.354 85.1785 112.272 85.2084 112.198C85.2382 112.124 85.2951 112.064 85.3675 112.031L89.5547 110.254C89.5919 110.239 89.6317 110.232 89.6719 110.232C89.7121 110.232 89.7518 110.241 89.7887 110.256C89.8257 110.272 89.8591 110.295 89.8872 110.324C89.9153 110.352 89.9374 110.386 89.9523 110.424C89.9702 110.461 89.9803 110.501 89.9819 110.542C89.9834 110.583 89.9764 110.624 89.9613 110.662C89.9462 110.7 89.9233 110.735 89.8941 110.764C89.8648 110.792 89.8299 110.815 89.7916 110.83L85.8835 112.521L87.2539 115.753L90.6375 114.306C90.7129 114.278 90.7964 114.28 90.8705 114.312C90.9445 114.343 91.0035 114.402 91.0351 114.477C91.0667 114.551 91.0685 114.634 91.0402 114.71C91.0118 114.785 90.9554 114.847 90.8828 114.881L87.4569 116.328L88.8188 119.551L92.7353 117.859C92.7736 117.844 92.8145 117.837 92.8557 117.837C92.8968 117.838 92.9375 117.847 92.9752 117.864C93.0129 117.88 93.047 117.904 93.0755 117.934C93.104 117.963 93.1264 117.998 93.1413 118.037C93.1724 118.111 93.1729 118.194 93.1428 118.269C93.1127 118.343 93.0544 118.403 92.9806 118.434L88.8103 120.202C88.7361 120.223 88.6568 120.217 88.587 120.184C88.5171 120.152 88.4613 120.095 88.4297 120.025L85.2068 112.428Z" fill="white"/>
<path d="M99.3757 114.23L95.4677 115.245L95.2224 117.47C95.215 117.533 95.1894 117.592 95.1488 117.64C95.1082 117.688 95.0544 117.723 94.994 117.741H94.8755C94.7948 117.728 94.7218 117.685 94.6716 117.621C94.6213 117.557 94.5974 117.475 94.6048 117.394L95.5438 108.647C95.558 108.586 95.5894 108.529 95.6343 108.484C95.6791 108.439 95.7357 108.408 95.7976 108.394C95.8585 108.376 95.9235 108.376 95.9839 108.396C96.0443 108.416 96.0974 108.453 96.1359 108.504L101.169 115.711C101.213 115.778 101.232 115.858 101.221 115.938C101.21 116.017 101.17 116.09 101.11 116.142L101 116.184C100.938 116.197 100.875 116.191 100.816 116.169C100.758 116.146 100.707 116.108 100.67 116.058L99.3757 114.23ZM95.5269 114.577L99.0035 113.681L96.0852 109.502L95.5269 114.577Z" fill="white"/>
<path d="M107.092 113.46C107.066 113.196 106.975 112.941 106.828 112.72C106.68 112.499 106.48 112.317 106.246 112.192C105.917 112.009 105.554 111.894 105.18 111.853H105.112L102.972 112.073L103.319 115.567C103.324 115.648 103.296 115.729 103.242 115.79C103.189 115.852 103.113 115.89 103.031 115.897C102.952 115.904 102.873 115.879 102.811 115.829C102.749 115.778 102.71 115.705 102.701 115.626L101.855 107.395C101.85 107.32 101.871 107.245 101.916 107.184C101.961 107.124 102.027 107.082 102.101 107.065H102.168L104.63 106.82C105.205 106.763 105.783 106.904 106.268 107.22C106.752 107.536 107.114 108.007 107.294 108.557C107.473 109.107 107.46 109.701 107.255 110.242C107.051 110.783 106.668 111.238 106.17 111.532L106.296 111.583C106.674 111.737 107.002 111.99 107.246 112.317C107.491 112.643 107.642 113.03 107.684 113.435C107.702 113.779 107.773 114.119 107.895 114.442C107.925 114.523 107.978 114.593 108.047 114.645C108.117 114.63 108.19 114.638 108.254 114.669C108.318 114.699 108.371 114.75 108.403 114.814C108.435 114.892 108.436 114.979 108.406 115.057C108.376 115.136 108.318 115.2 108.242 115.237H108.09C107.966 115.234 107.846 115.2 107.739 115.138C107.633 115.076 107.544 114.988 107.481 114.882C107.241 114.445 107.107 113.958 107.092 113.46ZM104.706 107.412L102.524 107.624L102.904 111.439L105.019 111.227H105.138C105.642 111.17 106.104 110.915 106.42 110.517C106.737 110.12 106.882 109.613 106.825 109.108C106.768 108.603 106.512 108.142 106.115 107.826C105.718 107.509 105.211 107.363 104.706 107.421V107.412Z" fill="white"/>
<path d="M115.271 106.55C116.307 106.624 117.29 107.034 118.071 107.717C118.129 107.777 118.162 107.857 118.162 107.941C118.162 108.025 118.129 108.105 118.071 108.165C118.043 108.195 118.01 108.218 117.973 108.234C117.936 108.25 117.896 108.259 117.855 108.259C117.815 108.259 117.775 108.25 117.738 108.234C117.701 108.218 117.667 108.195 117.64 108.165C116.966 107.564 116.112 107.201 115.212 107.133C114.69 107.075 114.161 107.122 113.658 107.274C113.154 107.425 112.687 107.676 112.283 108.013C111.88 108.35 111.549 108.765 111.31 109.233C111.072 109.702 110.93 110.213 110.895 110.738C110.86 111.262 110.931 111.788 111.104 112.284C111.278 112.78 111.55 113.236 111.904 113.624C112.258 114.012 112.688 114.324 113.166 114.542C113.645 114.76 114.162 114.878 114.687 114.89C115.59 114.965 116.49 114.717 117.225 114.188C117.26 114.166 117.3 114.15 117.341 114.144C117.382 114.137 117.424 114.139 117.465 114.149C117.505 114.16 117.543 114.178 117.576 114.204C117.609 114.229 117.636 114.261 117.656 114.298C117.685 114.33 117.706 114.367 117.718 114.408C117.73 114.449 117.733 114.492 117.727 114.534C117.72 114.576 117.705 114.616 117.681 114.651C117.657 114.687 117.625 114.716 117.589 114.738C116.725 115.311 115.696 115.581 114.662 115.508C114.058 115.486 113.464 115.344 112.916 115.089C112.369 114.834 111.878 114.471 111.473 114.022C111.068 113.573 110.757 113.048 110.56 112.476C110.362 111.905 110.281 111.3 110.322 110.697C110.363 110.094 110.524 109.505 110.797 108.966C111.07 108.427 111.449 107.948 111.91 107.558C112.372 107.168 112.908 106.874 113.485 106.695C114.062 106.516 114.67 106.455 115.271 106.516V106.55Z" fill="white"/>
<path d="M125.844 113.359L121.411 112.259L120.481 115.973C120.459 116.052 120.407 116.12 120.336 116.161C120.264 116.202 120.18 116.214 120.1 116.193C120.023 116.171 119.957 116.12 119.916 116.051C119.875 115.982 119.862 115.899 119.88 115.821L121.885 107.793C121.894 107.754 121.91 107.718 121.934 107.686C121.957 107.654 121.986 107.627 122.02 107.606C122.054 107.586 122.092 107.572 122.131 107.567C122.17 107.561 122.21 107.563 122.249 107.573C122.289 107.581 122.328 107.597 122.362 107.621C122.396 107.644 122.425 107.674 122.447 107.709C122.469 107.743 122.484 107.782 122.491 107.823C122.497 107.864 122.496 107.905 122.486 107.945L121.555 111.667L125.988 112.767L126.918 109.054C126.947 108.984 127 108.927 127.067 108.893C127.134 108.859 127.211 108.851 127.284 108.869C127.357 108.888 127.421 108.932 127.464 108.994C127.507 109.056 127.527 109.131 127.519 109.206L125.522 117.233C125.499 117.313 125.445 117.381 125.372 117.422C125.3 117.463 125.214 117.474 125.133 117.453C125.057 117.43 124.992 117.379 124.951 117.31C124.911 117.241 124.897 117.159 124.913 117.081L125.844 113.359Z" fill="white"/>
<path d="M118.967 95.9587H102.565L104.198 79.5906H117.335L118.967 95.9587Z" fill="#EC5E20" fill-opacity="0.8"/>
<path d="M82.67 101.178L68.4674 109.375L61.7002 94.3854L73.0691 87.8127L82.67 101.178Z" fill="#EC5E20" fill-opacity="0.8"/>
<path d="M53.8501 123.839L45.6448 138.042L32.2881 128.441L38.8523 117.072L53.8501 123.839Z" fill="#EC5E20" fill-opacity="0.8"/>
<path d="M40.2233 157.878V174.28L23.8467 172.648V159.511L40.2233 157.878Z" fill="#EC5E20" fill-opacity="0.8"/>
<path d="M45.4329 194.176L53.6381 208.379L38.6404 215.146L32.0762 203.769L45.4329 194.176Z" fill="#EC5E20" fill-opacity="0.8"/>
<path d="M68.1028 222.996L82.3055 231.193L72.7045 244.558L61.3271 237.994L68.1028 222.996Z" fill="#EC5E20" fill-opacity="0.8"/>
<path d="M102.143 236.623H118.545L116.904 253H103.775L102.143 236.623Z" fill="#EC5E20" fill-opacity="0.8"/>
<path d="M138.432 231.404L152.634 223.208L159.41 238.205L148.033 244.769L138.432 231.404Z" fill="#EC5E20" fill-opacity="0.8"/>
<path d="M167.26 208.742L175.457 194.54L188.822 204.141L182.249 215.518L167.26 208.742Z" fill="#EC5E20" fill-opacity="0.8"/>
<path d="M180.887 174.704V158.302L197.255 159.934V173.071L180.887 174.704Z" fill="#EC5E20" fill-opacity="0.8"/>
<path d="M175.667 138.406L167.471 124.203L182.46 117.436L189.033 128.814L175.667 138.406Z" fill="#EC5E20" fill-opacity="0.8"/>
<path d="M153.005 109.586L138.803 101.39L148.395 88.0244L159.773 94.597L153.005 109.586Z" fill="#EC5E20" fill-opacity="0.8"/>
<path d="M116.802 176.709C116.804 176.912 116.765 177.115 116.688 177.304C116.611 177.492 116.497 177.664 116.353 177.808C116.209 177.952 116.037 178.066 115.849 178.143C115.66 178.22 115.458 178.259 115.254 178.257H105.23C105.011 178.259 104.795 178.216 104.595 178.128C104.395 178.041 104.217 177.911 104.071 177.749C103.932 177.6 103.824 177.425 103.754 177.234C103.683 177.043 103.651 176.84 103.658 176.636C103.666 176.432 103.714 176.232 103.799 176.048C103.885 175.863 104.006 175.696 104.155 175.558L112.496 168.004C112.876 167.666 113.179 167.25 113.383 166.785C113.588 166.319 113.689 165.814 113.68 165.306C113.684 164.401 113.353 163.527 112.75 162.853C112.409 162.474 111.991 162.172 111.525 161.967C111.058 161.763 110.552 161.661 110.043 161.668C109.142 161.67 108.272 162.001 107.598 162.599L106.752 163.386C106.603 163.526 106.427 163.634 106.235 163.705C106.043 163.776 105.838 163.807 105.633 163.797C105.429 163.786 105.229 163.735 105.044 163.645C104.86 163.556 104.696 163.43 104.561 163.276C104.424 163.124 104.318 162.947 104.249 162.754C104.181 162.562 104.15 162.357 104.161 162.153C104.171 161.949 104.221 161.749 104.309 161.564C104.396 161.379 104.52 161.213 104.671 161.076L105.517 160.29C106.754 159.157 108.374 158.534 110.051 158.547C110.996 158.547 111.931 158.745 112.795 159.128C113.659 159.511 114.433 160.071 115.067 160.772C116.202 162.008 116.824 163.628 116.81 165.306C116.809 166.249 116.61 167.182 116.227 168.045C115.844 168.907 115.285 169.68 114.585 170.314L109.265 175.135H115.262C115.467 175.136 115.669 175.178 115.858 175.258C116.046 175.338 116.217 175.454 116.36 175.6C116.503 175.747 116.616 175.92 116.692 176.11C116.768 176.3 116.805 176.504 116.802 176.709Z" fill="#263238"/>
<path d="M166.32 132.933L161.245 136.756L151.889 124.415L148.506 119.898C149.21 119.625 149.871 119.252 150.468 118.79C151.616 117.911 152.509 116.744 153.057 115.406L156.694 120.194L166.32 132.933Z" fill="#263238"/>
<path d="M156.372 103.868C154.713 101.709 152.45 100.091 149.871 99.2172C147.292 98.3437 144.512 98.2545 141.882 98.9608C139.252 99.6671 136.891 101.137 135.096 103.185C133.302 105.233 132.155 107.767 131.8 110.467C131.445 113.167 131.899 115.912 133.104 118.354C134.309 120.796 136.21 122.826 138.568 124.187C140.927 125.549 143.636 126.18 146.353 126.003C149.07 125.825 151.674 124.845 153.834 123.188C154.927 122.344 155.891 121.343 156.694 120.219C158.392 117.816 159.277 114.933 159.219 111.991C159.161 109.049 158.164 106.202 156.372 103.868ZM150.451 118.79C149.854 119.252 149.193 119.625 148.488 119.898C146.559 120.659 144.413 120.66 142.483 119.901C140.553 119.142 138.984 117.678 138.091 115.806C137.198 113.934 137.049 111.793 137.674 109.816C138.298 107.838 139.65 106.171 141.456 105.151C143.262 104.132 145.387 103.835 147.403 104.322C149.419 104.808 151.175 106.042 152.317 107.773C153.459 109.504 153.902 111.604 153.555 113.649C153.209 115.694 152.099 117.531 150.451 118.79Z" fill="#263238"/>
<path d="M346.023 82.5006C345.725 79.3108 344.487 76.2811 342.467 73.7946C340.447 71.308 337.736 69.4762 334.675 68.5309C331.614 67.5855 328.341 67.569 325.271 68.4834C322.2 69.3978 319.47 71.2021 317.425 73.6682C315.38 76.1342 314.112 79.1513 313.782 82.3378C313.451 85.5244 314.073 88.7374 315.569 91.5705C317.064 94.4037 319.366 96.7297 322.184 98.2547C325.001 99.7796 328.208 100.435 331.397 100.138C333.516 99.9412 335.576 99.3291 337.458 98.3362C339.34 97.3433 341.008 95.9891 342.366 94.351C343.725 92.7129 344.747 90.8232 345.374 88.7898C346.002 86.7564 346.222 84.6192 346.023 82.5006ZM331.22 98.1666C328.417 98.429 325.6 97.8544 323.125 96.5154C320.649 95.1764 318.626 93.1333 317.312 90.6444C315.997 88.1555 315.451 85.3327 315.741 82.5332C316.031 79.7336 317.145 77.083 318.942 74.9167C320.739 72.7505 323.138 71.1658 325.836 70.3632C328.534 69.5607 331.409 69.5762 334.098 70.408C336.787 71.2398 339.169 72.8503 340.942 75.036C342.715 77.2216 343.801 79.8841 344.061 82.6867C344.409 86.4419 343.252 90.1817 340.844 93.0844C338.436 95.987 334.975 97.815 331.22 98.1666ZM346.023 82.5006C345.725 79.3108 344.487 76.2811 342.467 73.7946C340.447 71.308 337.736 69.4762 334.675 68.5309C331.614 67.5855 328.341 67.569 325.271 68.4834C322.2 69.3978 319.47 71.2021 317.425 73.6682C315.38 76.1342 314.112 79.1513 313.782 82.3378C313.451 85.5244 314.073 88.7374 315.569 91.5705C317.064 94.4037 319.366 96.7297 322.184 98.2547C325.001 99.7796 328.208 100.435 331.397 100.138C333.516 99.9412 335.576 99.3291 337.458 98.3362C339.34 97.3433 341.008 95.9891 342.366 94.351C343.725 92.7129 344.747 90.8232 345.374 88.7898C346.002 86.7564 346.222 84.6192 346.023 82.5006ZM331.22 98.1666C328.417 98.429 325.6 97.8544 323.125 96.5154C320.649 95.1764 318.626 93.1333 317.312 90.6444C315.997 88.1555 315.451 85.3327 315.741 82.5332C316.031 79.7336 317.145 77.083 318.942 74.9167C320.739 72.7505 323.138 71.1658 325.836 70.3632C328.534 69.5607 331.409 69.5762 334.098 70.408C336.787 71.2398 339.169 72.8503 340.942 75.036C342.715 77.2216 343.801 79.8841 344.061 82.6867C344.409 86.4419 343.252 90.1817 340.844 93.0844C338.436 95.987 334.975 97.815 331.22 98.1666ZM346.023 82.5006C345.725 79.3108 344.487 76.2811 342.467 73.7946C340.447 71.308 337.736 69.4762 334.675 68.5309C331.614 67.5855 328.341 67.569 325.271 68.4834C322.2 69.3978 319.47 71.2021 317.425 73.6682C315.38 76.1342 314.112 79.1513 313.782 82.3378C313.451 85.5244 314.073 88.7374 315.569 91.5705C317.064 94.4037 319.366 96.7297 322.184 98.2547C325.001 99.7796 328.208 100.435 331.397 100.138C333.516 99.9412 335.576 99.3291 337.458 98.3362C339.34 97.3433 341.008 95.9891 342.366 94.351C343.725 92.7129 344.747 90.8232 345.374 88.7898C346.002 86.7564 346.222 84.6192 346.023 82.5006ZM331.22 98.1666C328.417 98.429 325.6 97.8544 323.125 96.5154C320.649 95.1764 318.626 93.1333 317.312 90.6444C315.997 88.1555 315.451 85.3327 315.741 82.5332C316.031 79.7336 317.145 77.083 318.942 74.9167C320.739 72.7505 323.138 71.1658 325.836 70.3632C328.534 69.5607 331.409 69.5762 334.098 70.408C336.787 71.2398 339.169 72.8503 340.942 75.036C342.715 77.2216 343.801 79.8841 344.061 82.6867C344.409 86.4419 343.252 90.1817 340.844 93.0844C338.436 95.987 334.975 97.815 331.22 98.1666ZM363.897 80.8426C363.27 74.1176 360.664 67.7294 356.407 62.4858C352.15 57.2423 346.433 53.3788 339.98 51.3841C333.528 49.3894 326.628 49.3529 320.155 51.2794C313.681 53.2059 307.924 57.0087 303.612 62.2071C299.3 67.4054 296.626 73.7657 295.929 80.4837C295.231 87.2017 296.542 93.9756 299.694 99.9488C302.847 105.922 307.7 110.826 313.639 114.041C319.579 117.257 326.339 118.638 333.064 118.011C342.08 117.169 350.393 112.78 356.175 105.81C361.957 98.8404 364.734 89.8597 363.897 80.8426ZM331.634 102.641C327.946 102.984 324.238 102.225 320.981 100.46C317.724 98.6949 315.063 96.0038 313.336 92.7267C311.609 89.4496 310.892 85.7339 311.276 82.0494C311.661 78.3649 313.129 74.8772 315.496 72.0274C317.863 69.1777 321.022 67.0939 324.573 66.0396C328.125 64.9853 331.909 65.0079 335.447 66.1046C338.986 67.2012 342.12 69.3226 344.452 72.2005C346.785 75.0783 348.212 78.5833 348.552 82.2722C349.004 87.2155 347.477 92.1362 344.305 95.9549C341.133 99.7735 336.577 102.178 331.634 102.641ZM328.403 67.875C325.21 68.1683 322.176 69.4022 319.684 71.4205C317.192 73.4388 315.355 76.1508 314.406 79.2134C313.456 82.276 313.436 85.5515 314.348 88.6255C315.26 91.6995 317.064 94.4338 319.531 96.4825C321.997 98.5311 325.016 99.8021 328.205 100.135C331.395 100.467 334.611 99.8459 337.447 98.35C340.283 96.854 342.612 94.5504 344.138 91.7307C345.665 88.9109 346.321 85.7017 346.023 82.509C345.626 78.2322 343.547 74.288 340.243 71.5437C336.939 68.7994 332.68 67.4798 328.403 67.875ZM331.22 98.1751C328.417 98.4375 325.6 97.8628 323.125 96.5239C320.649 95.1849 318.626 93.1417 317.312 90.6528C315.997 88.164 315.451 85.3412 315.741 82.5416C316.031 79.7421 317.145 77.0915 318.942 74.9252C320.739 72.7589 323.138 71.1743 325.836 70.3717C328.534 69.5691 331.409 69.5847 334.098 70.4165C336.787 71.2482 339.169 72.8588 340.942 75.0444C342.715 77.2301 343.801 79.8926 344.061 82.6951C344.406 86.4489 343.248 90.1866 340.841 93.0874C338.433 95.9882 334.973 97.815 331.22 98.1666V98.1751ZM346.023 82.509C345.725 79.3193 344.487 76.2896 342.467 73.803C340.447 71.3165 337.736 69.4847 334.675 68.5393C331.614 67.594 328.341 67.5774 325.271 68.4919C322.2 69.4063 319.47 71.2106 317.425 73.6766C315.38 76.1427 314.112 79.1597 313.782 82.3463C313.451 85.5328 314.073 88.7458 315.569 91.579C317.064 94.4121 319.366 96.7382 322.184 98.2631C325.001 99.788 328.208 100.443 331.397 100.146C333.517 99.9497 335.577 99.3373 337.46 98.3439C339.343 97.3504 341.011 95.9954 342.37 94.3564C343.728 92.7175 344.75 90.8267 345.377 88.7923C346.004 86.7579 346.223 84.6199 346.023 82.5006V82.509ZM331.22 98.1751C328.417 98.4375 325.6 97.8628 323.125 96.5239C320.649 95.1849 318.626 93.1417 317.312 90.6528C315.997 88.164 315.451 85.3412 315.741 82.5416C316.031 79.7421 317.145 77.0915 318.942 74.9252C320.739 72.7589 323.138 71.1743 325.836 70.3717C328.534 69.5691 331.409 69.5847 334.098 70.4165C336.787 71.2482 339.169 72.8588 340.942 75.0444C342.715 77.2301 343.801 79.8926 344.061 82.6951C344.406 86.4489 343.248 90.1866 340.841 93.0874C338.433 95.9882 334.973 97.815 331.22 98.1666V98.1751ZM346.023 82.509C345.725 79.3193 344.487 76.2896 342.467 73.803C340.447 71.3165 337.736 69.4847 334.675 68.5393C331.614 67.594 328.341 67.5774 325.271 68.4919C322.2 69.4063 319.47 71.2106 317.425 73.6766C315.38 76.1427 314.112 79.1597 313.782 82.3463C313.451 85.5328 314.073 88.7458 315.569 91.579C317.064 94.4121 319.366 96.7382 322.184 98.2631C325.001 99.788 328.208 100.443 331.397 100.146C333.517 99.9497 335.577 99.3373 337.46 98.3439C339.343 97.3504 341.011 95.9954 342.37 94.3564C343.728 92.7175 344.75 90.8267 345.377 88.7923C346.004 86.7579 346.223 84.6199 346.023 82.5006V82.509ZM331.22 98.1751C328.417 98.4375 325.6 97.8628 323.125 96.5239C320.649 95.1849 318.626 93.1417 317.312 90.6528C315.997 88.164 315.451 85.3412 315.741 82.5416C316.031 79.7421 317.145 77.0915 318.942 74.9252C320.739 72.7589 323.138 71.1743 325.836 70.3717C328.534 69.5691 331.409 69.5847 334.098 70.4165C336.787 71.2482 339.169 72.8588 340.942 75.0444C342.715 77.2301 343.801 79.8926 344.061 82.6951C344.406 86.4489 343.248 90.1866 340.841 93.0874C338.433 95.9882 334.973 97.815 331.22 98.1666V98.1751Z" fill="#EC5E20" fill-opacity="0.8"/>
<path d="M333.402 50.7963L320.325 52.0144L320.189 42.6926L331.821 41.6099L333.402 50.7963Z" fill="#EC5E20" fill-opacity="0.8"/>
<path d="M308.923 57.521L300.54 67.6211L293.849 61.133L301.309 52.1411L308.923 57.521Z" fill="#EC5E20" fill-opacity="0.8"/>
<path d="M296.37 79.582L297.579 92.6512L288.258 92.795L287.175 81.1639L296.37 79.582Z" fill="#EC5E20" fill-opacity="0.8"/>
<path d="M303.086 104.062L313.186 112.445L306.69 119.136L297.706 111.676L303.086 104.062Z" fill="#EC5E20" fill-opacity="0.8"/>
<path d="M325.146 116.616L338.224 115.406L338.359 124.728L326.728 125.811L325.146 116.616Z" fill="#EC5E20" fill-opacity="0.8"/>
<path d="M349.628 109.899L358.011 99.7908L364.702 106.287L357.241 115.279L349.628 109.899Z" fill="#EC5E20" fill-opacity="0.8"/>
<path d="M362.181 87.8382L360.972 74.7606L370.294 74.6252L371.376 86.2564L362.181 87.8382Z" fill="#EC5E20" fill-opacity="0.8"/>
<path d="M355.464 63.3579L345.355 54.975L351.852 48.2839L360.844 55.7448L355.464 63.3579Z" fill="#EC5E20" fill-opacity="0.8"/>
<path d="M309.228 80.0981V80.1489C309.194 80.2173 309.138 80.2714 309.068 80.301C308.997 80.3306 308.919 80.3336 308.847 80.3096L301.022 77.5604C300.948 77.5336 300.887 77.4788 300.852 77.4078C300.818 77.3367 300.812 77.255 300.836 77.1798L301.378 75.6487C301.796 74.5761 302.616 73.7082 303.662 73.2279C304.709 72.7477 305.901 72.6927 306.987 73.0746C308.073 73.4564 308.969 74.2452 309.485 75.2747C310.001 76.3041 310.096 77.4937 309.752 78.5924L309.228 80.0981ZM309.177 78.3471C309.343 77.8745 309.415 77.3736 309.388 76.8731C309.361 76.3727 309.236 75.8824 309.02 75.4304C308.803 74.9783 308.5 74.5733 308.127 74.2385C307.754 73.9037 307.319 73.6456 306.846 73.479C306.374 73.3123 305.873 73.2405 305.372 73.2674C304.872 73.2943 304.382 73.4196 303.93 73.636C303.478 73.8524 303.073 74.1557 302.738 74.5286C302.403 74.9015 302.145 75.3368 301.978 75.8094L301.53 77.0783L308.737 79.616L309.177 78.3471Z" fill="white"/>
<path d="M305.319 67.8748C305.258 67.8223 305.219 67.748 305.211 67.6676C305.204 67.5872 305.227 67.5069 305.277 67.4434L308.111 63.8906C308.166 63.8394 308.238 63.8097 308.313 63.8071C308.388 63.8044 308.462 63.829 308.52 63.8763C308.579 63.9236 308.619 63.9904 308.632 64.0645C308.645 64.1386 308.631 64.215 308.593 64.2797L305.945 67.6041L308.686 69.795L311.004 66.8936C311.057 66.8298 311.133 66.7895 311.215 66.7815C311.297 66.7736 311.38 66.7987 311.444 66.8513C311.506 66.9011 311.546 66.9733 311.555 67.0524C311.565 67.1315 311.543 67.2111 311.494 67.2742L309.177 70.1841L311.909 72.3665L314.557 69.0422C314.585 69.0125 314.619 68.9889 314.657 68.9727C314.695 68.9566 314.735 68.9483 314.777 68.9483C314.818 68.9483 314.858 68.9566 314.896 68.9727C314.934 68.9889 314.968 69.0125 314.996 69.0422C315.028 69.0662 315.055 69.0963 315.074 69.1308C315.094 69.1653 315.107 69.2034 315.112 69.2429C315.116 69.2823 315.113 69.3224 315.102 69.3605C315.091 69.3987 315.072 69.4343 315.047 69.4651L312.239 72.9502C312.185 73.0039 312.112 73.0341 312.036 73.0341C311.96 73.0341 311.887 73.0039 311.833 72.9502L305.319 67.8748Z" fill="white"/>
<path d="M315.234 66.8432C315.238 66.8067 315.249 66.7714 315.268 66.7395C315.286 66.7076 315.31 66.6797 315.339 66.6576C315.369 66.6354 315.402 66.6194 315.438 66.6106C315.473 66.6018 315.511 66.6003 315.547 66.6063C316.609 66.767 317.695 66.5707 318.634 66.048C319.233 65.6977 319.707 65.168 319.988 64.5339C320.106 64.2959 320.164 64.0327 320.156 63.7673C320.149 63.5018 320.076 63.2422 319.945 63.0112C319.814 62.8003 319.629 62.628 319.409 62.5121C319.189 62.3962 318.942 62.3407 318.693 62.3514C317.961 62.3724 317.239 62.5272 316.562 62.8082C315.876 63.108 315.136 63.2634 314.388 63.265C314.073 63.271 313.761 63.1964 313.483 63.0484C313.205 62.9003 312.969 62.6838 312.798 62.4191C312.632 62.132 312.537 61.8091 312.523 61.4778C312.508 61.1465 312.573 60.8165 312.713 60.5158C313.02 59.8101 313.541 59.2184 314.202 58.824C315.078 58.35 316.079 58.1552 317.069 58.2657C317.107 58.2656 317.145 58.2733 317.179 58.2885C317.214 58.3037 317.245 58.3259 317.27 58.3538C317.296 58.3817 317.315 58.4146 317.327 58.4504C317.339 58.4862 317.344 58.5242 317.34 58.5618C317.341 58.5981 317.335 58.6342 317.321 58.6678C317.307 58.7014 317.287 58.7317 317.26 58.7565C317.234 58.7814 317.202 58.8003 317.168 58.8119C317.134 58.8236 317.097 58.8277 317.061 58.824C316.186 58.724 315.301 58.8921 314.523 59.3062C313.964 59.6308 313.521 60.1217 313.254 60.7104C313.145 60.9268 313.088 61.1658 313.088 61.4083C313.088 61.6507 313.145 61.8897 313.254 62.1061C313.376 62.2907 313.544 62.4407 313.741 62.5415C313.938 62.6422 314.158 62.6904 314.379 62.6813C315.06 62.6702 315.733 62.5266 316.359 62.2584C317.103 61.9439 317.902 61.7773 318.71 61.7678C319.046 61.7661 319.377 61.8489 319.673 62.0085C319.969 62.1681 320.219 62.3995 320.402 62.6813C320.575 62.9909 320.672 63.3371 320.686 63.6915C320.699 64.0459 320.628 64.3984 320.478 64.72C320.155 65.4705 319.601 66.0986 318.897 66.5133C317.842 67.0926 316.627 67.3123 315.437 67.1392C315.376 67.1177 315.323 67.0775 315.287 67.0243C315.251 66.9711 315.232 66.9077 315.234 66.8432Z" fill="white"/>
<path d="M321.129 56.1847C321.106 56.105 321.115 56.0193 321.154 55.9463C321.194 55.8734 321.261 55.8191 321.341 55.7956C321.42 55.772 321.506 55.7811 321.579 55.8207C321.652 55.8604 321.706 55.9274 321.73 56.007L324.022 63.95C324.032 64.0239 324.015 64.0988 323.975 64.1614C323.935 64.224 323.873 64.2702 323.802 64.2916C323.73 64.313 323.654 64.3082 323.586 64.2782C323.517 64.2482 323.462 64.1948 323.43 64.1277L321.129 56.1847Z" fill="white"/>
<path d="M330.764 59.4753C330.722 59.4766 330.682 59.4693 330.644 59.4539C330.605 59.4385 330.571 59.4153 330.542 59.3859C330.514 59.3564 330.492 59.3213 330.477 59.2829C330.463 59.2444 330.457 59.2033 330.459 59.1623C330.459 59.1209 330.467 59.0799 330.484 59.0418C330.5 59.0037 330.524 58.9693 330.554 58.9408C330.584 58.9123 330.62 58.8902 330.659 58.876C330.698 58.8617 330.739 58.8555 330.78 58.8578L333.521 58.934C333.599 58.9443 333.67 58.9826 333.722 59.0418C333.773 59.101 333.801 59.177 333.8 59.2554L333.716 62.3006V62.3514C333.701 62.438 333.66 62.5178 333.597 62.5798C333.022 63.0408 332.344 63.3556 331.621 63.4972C330.898 63.6388 330.151 63.603 329.444 63.3928C328.738 63.1826 328.093 62.8043 327.565 62.2903C327.037 61.7763 326.641 61.1419 326.412 60.4415C326.183 59.7411 326.126 58.9956 326.248 58.2687C326.37 57.5419 326.666 56.8554 327.112 56.2682C327.557 55.6809 328.138 55.2103 328.805 54.8967C329.472 54.5831 330.205 54.4359 330.941 54.4676C331.986 54.4987 332.99 54.88 333.792 55.5504C333.845 55.6074 333.874 55.6822 333.875 55.76C333.876 55.8378 333.848 55.9132 333.796 55.9713C333.744 56.0294 333.673 56.0661 333.595 56.0743C333.518 56.0825 333.44 56.0616 333.377 56.0156C332.905 55.5908 332.336 55.287 331.721 55.1303C331.105 54.9736 330.461 54.9688 329.843 55.1161C329.224 55.2635 328.651 55.5587 328.173 55.9763C327.694 56.394 327.324 56.9216 327.094 57.5139C326.864 58.1062 326.781 58.7454 326.853 59.3767C326.925 60.008 327.148 60.6124 327.505 61.1381C327.862 61.6638 328.341 62.0951 328.901 62.3948C329.461 62.6945 330.086 62.8538 330.721 62.8589C331.562 62.8788 332.388 62.6331 333.081 62.1568L333.157 59.543L330.764 59.4753Z" fill="white"/>
<path d="M339.933 57.5721L336.676 64.0686C336.64 64.1415 336.577 64.1972 336.5 64.2234C336.423 64.2495 336.339 64.2441 336.266 64.2082C336.193 64.1723 336.137 64.1089 336.111 64.032C336.085 63.955 336.09 63.8708 336.126 63.7979L339.781 56.5147C339.791 56.451 339.82 56.3921 339.866 56.3465C339.912 56.3009 339.971 56.2709 340.034 56.261C340.116 56.2488 340.199 56.2696 340.266 56.3187C340.333 56.3679 340.377 56.4414 340.39 56.5232L341.853 65.6081L345.101 59.137C345.138 59.0641 345.203 59.0089 345.28 58.9835C345.358 58.9581 345.443 58.9647 345.516 59.0017C345.589 59.0387 345.644 59.1032 345.669 59.1809C345.695 59.2586 345.688 59.3432 345.651 59.4162L341.98 66.7332C341.962 66.7698 341.937 66.8023 341.906 66.8287C341.875 66.8552 341.839 66.875 341.8 66.8869C341.761 66.8988 341.72 66.9025 341.68 66.8979C341.64 66.8933 341.601 66.8804 341.565 66.8601C341.523 66.8422 341.486 66.8145 341.456 66.7791C341.427 66.7438 341.406 66.702 341.396 66.6571C341.391 66.6348 341.391 66.6117 341.396 66.5894L339.933 57.5721Z" fill="white"/>
<path d="M336.82 87.7959C336.82 88.0013 336.779 88.2047 336.7 88.3942C336.621 88.5837 336.504 88.7554 336.358 88.8995C336.212 89.0436 336.038 89.1571 335.847 89.2334C335.656 89.3097 335.452 89.3472 335.247 89.3439H334.968V91.484C334.939 91.8759 334.763 92.2423 334.475 92.5097C334.187 92.7771 333.809 92.9258 333.416 92.9258C333.023 92.9258 332.644 92.7771 332.356 92.5097C332.068 92.2423 331.892 91.8759 331.863 91.484V89.3439H323.015C322.663 89.3562 322.318 89.2354 322.051 89.0055C321.888 88.8822 321.751 88.7272 321.649 88.5497C321.548 88.3722 321.483 88.1759 321.459 87.9727C321.436 87.7696 321.453 87.5637 321.511 87.3676C321.569 87.1714 321.667 86.9891 321.797 86.8315L332.219 73.8808C332.219 73.8808 332.219 73.8808 332.278 73.8216C332.314 73.7919 332.343 73.7543 332.362 73.7116C332.415 73.692 332.464 73.6634 332.506 73.627L332.616 73.5425C332.675 73.5425 332.701 73.4832 332.785 73.4832C332.793 73.46 332.808 73.4396 332.828 73.4246C332.847 73.4096 332.871 73.4006 332.895 73.3987C332.949 73.3745 333.006 73.3574 333.064 73.3479C333.103 73.363 333.145 73.363 333.183 73.3479H333.657C333.703 73.3634 333.754 73.3634 333.8 73.3479C333.8 73.3479 333.91 73.3479 333.97 73.3987H334.08L334.223 73.5086L334.359 73.5932C334.359 73.5932 334.443 73.5932 334.443 73.6524C334.478 73.6913 334.514 73.728 334.553 73.7624L334.638 73.8724C334.679 73.9168 334.716 73.9649 334.748 74.0162C334.757 74.0575 334.778 74.0954 334.807 74.1261C334.807 74.1853 334.807 74.2107 334.866 74.2953C334.925 74.3799 334.866 74.3799 334.866 74.4137C334.881 74.4691 334.881 74.5275 334.866 74.5829C334.866 74.6337 334.866 74.6675 334.866 74.7183V86.1802H335.145C335.364 86.166 335.583 86.1975 335.789 86.2729C335.995 86.3483 336.182 86.4658 336.34 86.6179C336.498 86.77 336.622 86.9533 336.704 87.1561C336.787 87.359 336.827 87.5769 336.82 87.7959ZM331.863 79.2861L326.263 86.2394H331.863V79.2861Z" fill="#263238"/>
<path d="M362.435 50.7455C362.435 50.7455 364.786 46.8797 361.369 45.1795C357.951 43.4792 356.403 47.7172 356.403 47.7172L362.435 50.7455Z" fill="#DD6A57"/>
<path d="M342.758 76.3255L348.789 79.32L362.51 50.5848L356.478 47.5903L342.758 76.3255Z" fill="#455A64" fill-opacity="0.3"/>
<path d="M355.506 48.3263L362.544 51.8283L363.094 50.6863L356.056 47.1843L355.506 48.3263Z" fill="#263238"/>
<path d="M354.905 49.5951L361.943 53.0886L362.493 51.9467L355.447 48.4531L354.905 49.5951Z" fill="#263238"/>
<path d="M342.758 76.3339L343.333 81.0117L343.511 82.5513L344.83 81.7561L348.789 79.3284L348.527 78.3133L347.588 78.7363L347.317 77.7127L346.378 78.1357L346.125 77.1206L345.169 77.5351L344.915 76.52L343.967 76.9345L343.705 75.9194L342.758 76.3339Z" fill="white"/>
<path d="M343.333 81.0032L343.511 82.5427L344.83 81.7476L343.333 81.0032Z" fill="#37474F"/>
<path d="M345.262 75.3865C346.108 73.3478 346.954 71.3346 347.85 69.3298C348.747 67.325 349.686 65.3541 350.608 63.3578C351.53 61.3615 352.52 59.4159 353.518 57.4365C354.516 55.4571 355.522 53.5284 356.605 51.6167C355.759 53.6638 354.913 55.6686 354.017 57.6733C353.12 59.6781 352.181 61.6575 351.259 63.6454C350.337 65.6332 349.347 67.5957 348.349 69.5667C347.351 71.5376 346.344 73.4747 345.262 75.3865Z" fill="#263238"/>
<path d="M347.994 76.6978C348.84 74.6508 349.686 72.646 350.574 70.6412C351.462 68.6364 352.418 66.657 353.332 64.6691C354.245 62.6813 355.252 60.7188 356.242 58.7479C357.231 56.7769 358.246 54.8483 359.329 52.9365C358.526 54.9751 357.637 56.9884 356.749 58.9932C355.861 60.9979 354.905 62.9689 353.983 64.9652C353.061 66.9615 352.071 68.9071 351.073 70.8865C350.075 72.8659 349.068 74.7776 347.994 76.6978Z" fill="#263238"/>
<path d="M241.385 59.0098C232.391 59.0081 223.598 61.6738 216.118 66.6697C208.639 71.6656 202.809 78.7673 199.365 87.0767C195.922 95.3861 195.02 104.53 196.774 113.352C198.528 122.174 202.858 130.278 209.218 136.638C215.577 142.999 223.68 147.331 232.502 149.086C241.324 150.842 250.468 149.942 258.778 146.5C267.088 143.058 274.191 137.23 279.188 129.751C284.185 122.272 286.852 113.48 286.852 104.485C286.852 92.4259 282.062 80.8603 273.536 72.3322C265.01 63.8042 253.445 59.012 241.385 59.0098ZM241.385 125.717C237.184 125.719 233.076 124.475 229.582 122.141C226.087 119.808 223.364 116.491 221.755 112.609C220.146 108.728 219.725 104.456 220.544 100.335C221.363 96.2141 223.387 92.4286 226.358 89.4575C229.329 86.4865 233.114 84.4633 237.235 83.644C241.356 82.8247 245.628 83.2461 249.509 84.8548C253.391 86.4635 256.708 89.1872 259.041 92.6815C261.375 96.1758 262.619 100.284 262.617 104.485C262.615 110.116 260.378 115.515 256.396 119.496C252.415 123.477 247.016 125.715 241.385 125.717Z" fill="#455A64" fill-opacity="0.3"/>
<path d="M250.123 60.8965H232.639L233.611 48.521H249.159L250.123 60.8965Z" fill="#455A64" fill-opacity="0.3"/>
<path d="M216.846 66.7923L204.479 79.1509L196.409 69.7191L207.406 58.7224L216.846 66.7923Z" fill="#455A64" fill-opacity="0.3"/>
<path d="M197.475 94.4871V111.972L185.1 111.007V95.4514L197.475 94.4871Z" fill="#455A64" fill-opacity="0.3"/>
<path d="M203.371 127.773L215.729 140.132L206.297 148.201L195.301 137.205L203.371 127.773Z" fill="#455A64" fill-opacity="0.3"/>
<path d="M231.066 147.136H248.551L247.587 159.511H232.031L231.066 147.136Z" fill="#455A64" fill-opacity="0.3"/>
<path d="M264.352 141.248L276.71 128.881L284.78 138.321L273.783 149.318L264.352 141.248Z" fill="#455A64" fill-opacity="0.3"/>
<path d="M283.715 113.545V96.0603L296.09 97.0246V112.581L283.715 113.545Z" fill="#455A64" fill-opacity="0.3"/>
<path d="M277.827 80.2673L265.46 67.9002L274.9 59.8303L285.897 70.827L277.827 80.2673Z" fill="#455A64" fill-opacity="0.3"/>
<path d="M214.486 111.93C214.454 111.911 214.427 111.887 214.405 111.857C214.383 111.828 214.367 111.795 214.358 111.759C214.349 111.724 214.348 111.687 214.354 111.65C214.36 111.614 214.373 111.58 214.393 111.549C214.956 110.636 215.2 109.562 215.087 108.495C215 107.808 214.705 107.165 214.241 106.651C214.068 106.449 213.848 106.292 213.6 106.195C213.352 106.097 213.084 106.062 212.82 106.093C212.575 106.133 212.345 106.238 212.154 106.395C211.962 106.552 211.816 106.757 211.728 106.989C211.458 107.671 211.32 108.397 211.322 109.13C211.33 109.879 211.183 110.622 210.891 111.312C210.777 111.604 210.589 111.862 210.346 112.06C210.103 112.259 209.813 112.392 209.504 112.446C209.174 112.485 208.84 112.445 208.53 112.329C208.219 112.212 207.941 112.023 207.719 111.777C207.194 111.222 206.859 110.514 206.763 109.756C206.667 108.761 206.876 107.761 207.364 106.888C207.398 106.821 207.457 106.771 207.528 106.747C207.599 106.723 207.677 106.728 207.744 106.761C207.778 106.774 207.809 106.795 207.834 106.821C207.86 106.848 207.879 106.879 207.891 106.914C207.903 106.948 207.908 106.985 207.904 107.022C207.901 107.058 207.889 107.093 207.871 107.125C207.431 107.894 207.236 108.779 207.313 109.663C207.401 110.294 207.679 110.883 208.108 111.354C208.27 111.537 208.474 111.678 208.702 111.766C208.93 111.855 209.176 111.887 209.419 111.862C209.64 111.818 209.846 111.717 210.015 111.569C210.185 111.42 210.312 111.229 210.383 111.016C210.642 110.386 210.772 109.71 210.764 109.028C210.757 108.221 210.916 107.42 211.229 106.676C211.356 106.362 211.561 106.086 211.825 105.873C212.088 105.66 212.401 105.517 212.735 105.458C213.088 105.421 213.446 105.468 213.778 105.594C214.11 105.721 214.407 105.923 214.647 106.186C215.207 106.78 215.567 107.534 215.679 108.343C215.795 109.539 215.522 110.74 214.901 111.769C214.886 111.808 214.863 111.844 214.834 111.874C214.804 111.904 214.769 111.928 214.73 111.943C214.69 111.958 214.648 111.965 214.606 111.962C214.564 111.96 214.523 111.949 214.486 111.93Z" fill="white"/>
<path d="M207.329 100.273L206.966 102.921C206.953 103.002 206.909 103.076 206.842 103.125C206.776 103.174 206.692 103.195 206.61 103.183C206.531 103.168 206.46 103.125 206.412 103.06C206.363 102.996 206.34 102.916 206.348 102.836L207.194 96.9146C207.207 96.8345 207.25 96.7624 207.314 96.7135C207.379 96.6646 207.46 96.6427 207.541 96.6524C207.582 96.6566 207.621 96.6689 207.657 96.6888C207.693 96.7087 207.725 96.7356 207.75 96.768C207.776 96.8004 207.794 96.8376 207.805 96.8774C207.815 96.9171 207.817 96.9585 207.812 96.9992L207.448 99.6469L215.332 100.73C215.412 100.741 215.485 100.784 215.535 100.849C215.584 100.914 215.605 100.996 215.594 101.076C215.583 101.157 215.54 101.23 215.475 101.279C215.41 101.329 215.328 101.35 215.247 101.339L207.329 100.273Z" fill="white"/>
<path d="M216.551 91.3401C216.309 91.2288 216.043 91.1797 215.777 91.1975C215.511 91.2152 215.254 91.2991 215.028 91.4416C214.697 91.6313 214.409 91.8877 214.183 92.1945L214.132 92.2368L213.244 94.1992L216.441 95.6542C216.516 95.6891 216.574 95.7523 216.603 95.83C216.631 95.9077 216.628 95.9935 216.593 96.0687C216.558 96.1416 216.497 96.1981 216.421 96.2265C216.345 96.2549 216.262 96.2529 216.187 96.2209L208.65 92.8373C208.582 92.8042 208.528 92.7474 208.498 92.6773C208.469 92.6073 208.466 92.5288 208.49 92.4567L209.513 90.2066C209.752 89.6814 210.164 89.2534 210.679 88.9932C211.194 88.733 211.782 88.6562 212.347 88.7755C212.912 88.8947 213.419 89.2029 213.785 89.6491C214.151 90.0954 214.354 90.653 214.36 91.2301L214.47 91.1455C214.791 90.8959 215.175 90.7388 215.579 90.691C215.983 90.6433 216.392 90.7069 216.763 90.8749C217.073 91.0267 217.403 91.1348 217.744 91.1963C217.824 91.2216 217.909 91.2216 217.989 91.1963C218.013 91.128 218.057 91.069 218.117 91.0279C218.176 90.9868 218.247 90.9658 218.319 90.9679C218.4 90.982 218.474 91.0247 218.527 91.0883C218.58 91.1518 218.608 91.2321 218.607 91.3147L218.556 91.467C218.492 91.5725 218.403 91.6602 218.297 91.7223C218.19 91.7844 218.07 91.8188 217.947 91.8223C217.45 91.772 216.973 91.607 216.551 91.3401ZM210.122 90.3673L209.217 92.4059L212.702 93.9878L213.548 92.0422L213.599 91.9407C213.768 91.4817 213.755 90.9757 213.563 90.5258C213.372 90.0759 213.016 89.7161 212.568 89.5197C212.12 89.3233 211.614 89.3051 211.153 89.4689C210.693 89.6328 210.312 89.9662 210.088 90.4012L210.122 90.3673Z" fill="white"/>
<path d="M221.237 84.4544L218.597 87.5251L219.68 89.4875C219.715 89.5402 219.734 89.602 219.734 89.6652C219.734 89.7284 219.715 89.7902 219.68 89.8428C219.654 89.8703 219.626 89.8957 219.596 89.9189C219.522 89.9558 219.438 89.9632 219.359 89.9396C219.28 89.916 219.214 89.8632 219.173 89.7921L214.943 82.0859C214.919 82.0271 214.911 81.9626 214.922 81.8998C214.932 81.8369 214.96 81.7783 215.002 81.7306C215.04 81.6792 215.093 81.6408 215.154 81.6211C215.215 81.6014 215.28 81.6012 215.341 81.6207L223.605 84.649C223.681 84.6777 223.742 84.7336 223.778 84.8056C223.814 84.8777 223.822 84.9607 223.8 85.0381C223.8 85.0381 223.8 85.1058 223.741 85.1396C223.696 85.1847 223.64 85.2164 223.579 85.2314C223.518 85.2463 223.454 85.2438 223.394 85.2242L221.237 84.4544ZM218.276 86.9921L220.619 84.2683L215.831 82.5173L218.276 86.9921Z" fill="white"/>
<path d="M221.168 76.7739L218.969 78.3219C218.9 78.3674 218.816 78.384 218.736 78.3681C218.655 78.3523 218.584 78.3053 218.537 78.2374C218.491 78.1721 218.472 78.0912 218.484 78.012C218.497 77.9328 218.54 77.8618 218.605 77.8144L223.477 74.3631C223.545 74.3292 223.622 74.3207 223.695 74.339C223.768 74.3574 223.832 74.4014 223.875 74.4631C223.918 74.5247 223.937 74.5999 223.93 74.6747C223.922 74.7496 223.888 74.8191 223.833 74.8707L221.65 76.4187L226.252 82.9067C226.299 82.9733 226.318 83.0556 226.306 83.1362C226.293 83.2168 226.25 83.2892 226.184 83.3381C226.116 83.3823 226.034 83.3991 225.954 83.3849C225.874 83.3708 225.802 83.3269 225.753 83.262L221.168 76.7739Z" fill="white"/>
<path d="M227.631 72.6206C227.606 72.5442 227.611 72.4612 227.646 72.3888C227.681 72.3164 227.742 72.2601 227.817 72.2314L232.097 70.7257C232.171 70.7092 232.249 70.7203 232.316 70.7569C232.382 70.7935 232.433 70.8531 232.459 70.9246C232.485 70.9961 232.484 71.0746 232.456 71.1454C232.429 71.2163 232.376 71.2745 232.308 71.3094L228.299 72.7221L229.466 76.0295L232.968 74.803C233.042 74.7864 233.12 74.7975 233.187 74.8341C233.253 74.8707 233.305 74.9303 233.33 75.0019C233.356 75.0734 233.355 75.1519 233.328 75.2227C233.3 75.2935 233.247 75.3518 233.18 75.3866L229.669 76.6217L230.828 79.9207L234.838 78.5165C234.876 78.5019 234.918 78.4955 234.959 78.4975C235.001 78.4995 235.041 78.5099 235.078 78.5281C235.116 78.5463 235.149 78.5719 235.176 78.6034C235.203 78.6348 235.223 78.6715 235.235 78.711C235.26 78.7874 235.254 78.8703 235.22 78.9428C235.185 79.0152 235.124 79.0715 235.049 79.1001L230.811 80.5635H230.769C230.694 80.5811 230.615 80.5712 230.547 80.5355C230.478 80.4997 230.425 80.4407 230.397 80.369L227.631 72.6206Z" fill="white"/>
<path d="M241.022 74.4392C240.981 74.4415 240.941 74.4356 240.902 74.4218C240.864 74.4081 240.829 74.3867 240.799 74.3591C240.769 74.3315 240.745 74.2982 240.728 74.2611C240.711 74.224 240.702 74.1839 240.701 74.1431C240.698 74.1013 240.704 74.0595 240.719 74.0201C240.733 73.9807 240.755 73.9446 240.783 73.9138C240.811 73.8831 240.846 73.8583 240.884 73.841C240.922 73.8237 240.963 73.8143 241.005 73.8132L243.746 73.754C243.824 73.7622 243.896 73.7986 243.949 73.8562C244.002 73.9138 244.032 73.9888 244.033 74.067L244.101 77.1122V77.1799C244.093 77.2668 244.054 77.3478 243.991 77.4083C243.184 78.0646 242.18 78.4309 241.14 78.4488C240.535 78.4846 239.929 78.398 239.358 78.1941C238.787 77.9902 238.263 77.6732 237.817 77.2622C237.371 76.8511 237.013 76.3543 236.764 75.8016C236.515 75.2489 236.379 74.6515 236.366 74.0453C236.353 73.4392 236.462 72.8365 236.688 72.2736C236.913 71.7106 237.249 71.1988 237.677 70.7689C238.104 70.3389 238.614 69.9996 239.176 69.7713C239.738 69.543 240.34 69.4302 240.946 69.4399C241.991 69.4187 243.013 69.7494 243.847 70.3789C243.909 70.4314 243.947 70.5057 243.955 70.5861C243.963 70.6665 243.94 70.7468 243.89 70.8103C243.838 70.8748 243.763 70.917 243.682 70.928C243.6 70.939 243.517 70.9181 243.45 70.8695C242.876 70.4252 242.188 70.1507 241.466 70.0773C240.744 70.0039 240.015 70.1345 239.363 70.4543C238.712 70.7741 238.162 71.2703 237.778 71.8864C237.394 72.5026 237.191 73.2141 237.191 73.9401C237.191 74.6661 237.394 75.3776 237.778 75.9938C238.162 76.61 238.712 77.1061 239.363 77.4259C240.015 77.7457 240.744 77.8763 241.466 77.8029C242.188 77.7295 242.876 77.4551 243.45 77.0107L243.39 74.3969L241.022 74.4392Z" fill="white"/>
<path d="M249.812 75.3612L248.12 70.6073C248.095 70.532 248.099 70.4499 248.132 70.3776C248.165 70.3054 248.224 70.2484 248.297 70.2182C248.334 70.199 248.374 70.1882 248.416 70.1865C248.457 70.1848 248.498 70.1924 248.536 70.2086C248.574 70.2248 248.608 70.2492 248.636 70.2801C248.663 70.311 248.683 70.3477 248.695 70.3874L250.294 74.8283L254.05 71.9438C254.081 71.9187 254.118 71.9007 254.158 71.8909C254.197 71.8811 254.238 71.8798 254.278 71.887C254.318 71.8941 254.356 71.9097 254.39 71.9326C254.423 71.9556 254.451 71.9853 254.473 72.0199C254.497 72.052 254.516 72.0887 254.526 72.1278C254.537 72.167 254.539 72.2079 254.534 72.2481C254.528 72.2883 254.515 72.327 254.494 72.3619C254.473 72.3968 254.446 72.4272 254.413 72.4513L250.404 75.4881L249.287 79.3116C249.276 79.3507 249.258 79.3873 249.233 79.4192C249.208 79.4511 249.177 79.4777 249.141 79.4974C249.106 79.5171 249.067 79.5295 249.026 79.5339C248.986 79.5383 248.945 79.5346 248.907 79.5231C248.829 79.4995 248.763 79.4466 248.724 79.3755C248.684 79.3045 248.674 79.2209 248.695 79.1424L249.812 75.3612Z" fill="white"/>
<path d="M245.42 103.817C246.074 104.459 246.593 105.225 246.946 106.071C247.299 106.916 247.479 107.824 247.476 108.74C247.478 110.125 247.069 111.48 246.301 112.632C245.533 113.785 244.441 114.683 243.161 115.214C241.882 115.745 240.475 115.884 239.116 115.614C237.758 115.344 236.51 114.677 235.531 113.697C235.233 113.399 235.065 112.994 235.065 112.572C235.065 112.15 235.233 111.746 235.531 111.447C235.83 111.149 236.235 110.981 236.656 110.981C237.078 110.981 237.483 111.149 237.782 111.447C238.134 111.798 238.553 112.076 239.013 112.264C239.473 112.453 239.966 112.549 240.463 112.547C241.471 112.545 242.439 112.15 243.161 111.447C243.52 111.094 243.804 110.673 243.998 110.208C244.191 109.743 244.289 109.244 244.287 108.74C244.291 108.242 244.194 107.747 244 107.288C243.807 106.828 243.521 106.413 243.161 106.067C242.813 105.711 242.397 105.428 241.938 105.235C241.479 105.042 240.986 104.942 240.488 104.942C240.269 104.954 240.05 104.914 239.849 104.826C239.648 104.737 239.47 104.604 239.33 104.435C239.027 104.142 238.851 103.743 238.84 103.322C238.829 102.901 238.984 102.493 239.27 102.185L242.146 99.2579H237.579C237.157 99.2579 236.752 99.0904 236.454 98.7922C236.156 98.4939 235.988 98.0894 235.988 97.6676C235.988 97.2459 236.156 96.8414 236.454 96.5431C236.752 96.2449 237.157 96.0774 237.579 96.0774H245.885C246.094 96.074 246.302 96.1121 246.496 96.1896C246.691 96.2671 246.868 96.3823 247.017 96.5286C247.167 96.6749 247.286 96.8495 247.367 97.0421C247.449 97.2347 247.491 97.4416 247.492 97.6507C247.486 97.9169 247.416 98.1778 247.289 98.412C247.211 98.5543 247.118 98.6876 247.01 98.8096L243.466 102.464C244.195 102.791 244.857 103.25 245.42 103.817Z" fill="#263238"/>
<path d="M271.897 70.8862C274.817 70.8862 277.184 68.5192 277.184 65.5994C277.184 62.6795 274.817 60.3125 271.897 60.3125C268.977 60.3125 266.61 62.6795 266.61 65.5994C266.61 68.5192 268.977 70.8862 271.897 70.8862Z" fill="#EC5E20" fill-opacity="0.8"/>
<path d="M277.498 70.0742H266.29V71.6899H277.498V70.0742Z" fill="#EC5E20" fill-opacity="0.8"/>
<path opacity="0.1" d="M277.498 70.0742H266.29V71.6899H277.498V70.0742Z" fill="black"/>
<path d="M283.25 92.3215H260.546V93.9372H283.25V92.3215Z" fill="#EC5E20" fill-opacity="0.8"/>
<path opacity="0.1" d="M283.25 92.3215H260.546V93.9372H283.25V92.3215Z" fill="black"/>
<path d="M283.25 96.8555H260.546V98.4711H283.25V96.8555Z" fill="#EC5E20" fill-opacity="0.8"/>
<path opacity="0.1" d="M283.25 96.8555H260.546V98.4711H283.25V96.8555Z" fill="black"/>
<path d="M282.404 93.9373H261.392V96.8556H282.404V93.9373Z" fill="#EC5E20" fill-opacity="0.8"/>
<path d="M276.465 71.6899H267.321V73.3056H276.465V71.6899Z" fill="#EC5E20" fill-opacity="0.8"/>
<path d="M281.185 92.3215H262.575C262.575 92.3215 266.805 88.092 267.693 83.0166C268.437 78.7363 268.793 73.3057 268.793 73.3057H274.925C274.925 73.3057 275.289 78.7363 276.033 83.0166C276.947 88.0835 281.185 92.3215 281.185 92.3215Z" fill="#EC5E20" fill-opacity="0.8"/>
<path d="M19.337 14.9896L18.8379 14.296C19.7261 13.6615 20.2505 13.3485 20.2759 13.3401L20.7073 14.0676C20.2348 14.3508 19.7773 14.6585 19.337 14.9896Z" fill="#263238"/>
<path d="M240.963 161.152C239.812 161.152 238.67 161.102 237.579 161.034L237.63 160.188C238.721 160.256 239.855 160.29 241.014 160.306L240.963 161.152ZM244.346 161.085L244.304 160.239C245.429 160.188 246.554 160.095 247.629 159.96L247.73 160.806C246.681 160.924 245.548 161.025 244.397 161.085H244.346ZM234.153 160.746C233.02 160.619 231.895 160.459 230.77 160.273L230.914 159.427C232.005 159.613 233.113 159.774 234.238 159.9L234.153 160.746ZM251.071 160.273L250.902 159.427C252.01 159.207 253.102 158.936 254.142 158.632L254.379 159.477C253.381 159.774 252.273 160.078 251.114 160.273H251.071ZM227.445 159.596C226.329 159.325 225.229 159.029 224.163 158.691L224.409 157.845C225.458 158.166 226.549 158.462 227.64 158.691L227.445 159.596ZM257.661 158.386L257.348 157.6C258.376 157.189 259.382 156.724 260.359 156.204L260.757 156.957C259.759 157.447 258.727 157.921 257.661 158.386ZM221.017 157.54C219.959 157.126 218.91 156.694 217.895 156.187L218.259 155.426C219.257 155.899 220.289 156.348 221.321 156.754L221.017 157.54ZM263.684 155.146L263.21 154.444C264.134 153.828 265.023 153.161 265.875 152.448L266.416 153.099C265.541 153.839 264.629 154.533 263.684 155.18V155.146ZM214.875 154.614C213.894 154.055 212.921 153.455 211.974 152.82L212.448 152.118C213.37 152.736 214.334 153.328 215.29 153.878L214.875 154.614ZM209.208 150.832C208.362 150.156 207.44 149.428 206.586 148.675L207.135 148.041C207.981 148.777 208.827 149.496 209.724 150.164L209.208 150.832ZM268.928 150.79L268.328 150.198C269.089 149.428 269.842 148.591 270.561 147.719L271.212 148.252C270.476 149.183 269.723 150.037 268.928 150.824V150.79ZM204.09 146.366C203.303 145.588 202.508 144.767 201.722 143.921L202.339 143.346C203.117 144.192 203.904 145.038 204.682 145.757L204.09 146.366ZM273.268 145.52L272.574 145.038C273.2 144.141 273.809 143.194 274.393 142.221L275.12 142.653C274.52 143.693 273.902 144.657 273.268 145.571V145.52ZM199.463 141.35C198.761 140.504 198.042 139.658 197.323 138.711L197.983 138.186C198.702 139.1 199.421 139.98 200.114 140.8L199.463 141.35ZM276.77 139.658L276.025 139.269C276.516 138.313 277.015 137.298 277.489 136.249L278.259 136.596C277.776 137.729 277.277 138.761 276.77 139.726V139.658ZM195.284 136.063C194.616 135.158 193.956 134.236 193.296 133.314L193.99 132.823C194.641 133.745 195.301 134.659 195.961 135.564L195.284 136.063ZM279.629 133.525L278.851 133.204C279.257 132.197 279.697 131.14 280.06 130.057L280.855 130.353C280.433 131.461 280.018 132.527 279.604 133.542L279.629 133.525ZM191.359 130.505C190.725 129.575 190.099 128.644 189.465 127.697L190.175 127.232C190.801 128.171 191.427 129.101 192.061 130.032L191.359 130.505ZM281.972 127.122L281.168 126.86C281.524 125.794 281.862 124.728 282.2 123.637L283.004 123.891C282.649 125.016 282.302 126.09 281.947 127.156L281.972 127.122ZM187.595 124.863L185.717 122.03L186.428 121.564L188.297 124.398L187.595 124.863ZM283.968 120.634L283.122 120.397C283.435 119.323 283.732 118.24 284.036 117.14L284.882 117.36C284.572 118.482 284.259 119.585 283.943 120.668L283.968 120.634ZM183.839 119.213C183.205 118.282 182.57 117.343 181.928 116.421L182.621 115.939C183.264 116.87 183.907 117.8 184.533 118.739L183.839 119.213ZM285.753 114.078L284.907 113.867C285.184 112.784 285.466 111.693 285.753 110.593L286.599 110.796C286.286 111.93 286.007 113.029 285.728 114.112L285.753 114.078ZM180.016 113.655C179.356 112.742 178.688 111.828 178.011 110.931L178.688 110.424C179.373 111.329 180.041 112.242 180.701 113.156L180.016 113.655ZM175.939 108.267C175.228 107.37 174.501 106.499 173.79 105.67L174.433 105.12C175.152 105.966 175.879 106.812 176.607 107.742L175.939 108.267ZM287.445 107.505L286.599 107.302L287.445 104.012L288.291 104.215L287.445 107.505ZM171.557 103.149C170.787 102.303 169.992 101.508 169.214 100.73L169.806 100.129C170.601 100.907 171.396 101.736 172.174 102.574L171.557 103.149ZM289.078 100.941L288.232 100.73C288.502 99.6386 288.782 98.5474 289.078 97.4477L289.924 97.6592C289.56 98.7842 289.281 99.8755 289.01 100.975L289.078 100.941ZM44.6127 98.8942C43.4792 98.8942 42.3288 98.8096 41.2291 98.7081L41.3053 97.8622C42.4134 97.9552 43.5384 98.0229 44.6889 98.0398L44.6127 98.8942ZM47.9963 98.835V97.9891C49.1045 97.9214 50.2295 97.8199 51.3292 97.6761L51.4391 98.522C50.2633 98.6996 49.1129 98.8011 47.9794 98.8688L47.9963 98.835ZM166.718 98.4289C165.872 97.6761 165.026 96.9486 164.181 96.255L164.714 95.5952C165.559 96.2973 166.456 97.0417 167.302 97.803L166.718 98.4289ZM37.7694 98.3274C36.6528 98.1413 35.5278 97.913 34.3858 97.6507L34.5804 96.8048C35.6547 97.0671 36.7628 97.287 37.8625 97.4646L37.7694 98.3274ZM54.7466 97.9975L54.5774 97.1516C55.6686 96.9233 56.7598 96.6526 57.8341 96.3057L58.0625 97.1516C56.9798 97.4816 55.8632 97.7522 54.7466 97.9891V97.9975ZM31.1291 96.7541C30.0463 96.4073 28.9636 96.0266 27.9147 95.6121L28.2277 94.8254C29.2512 95.2315 30.317 95.6121 31.3829 95.942L31.1291 96.7541ZM61.3108 96.1873L61.057 95.3414L64.2883 94.3263L64.5421 95.13C63.4763 95.5106 62.3935 95.849 61.3108 96.1789V96.1873ZM290.685 94.4194L289.839 94.1995C290.127 93.1082 290.423 92.0086 290.727 90.9174L291.573 91.1458C291.268 92.22 290.972 93.3197 290.685 94.4109V94.4194ZM161.448 94.2587C160.543 93.6073 159.613 92.9729 158.674 92.3808L159.122 91.6702C160.078 92.2708 161.025 92.9137 161.947 93.5735L161.448 94.2587ZM24.7679 94.2587C23.7444 93.7596 22.7293 93.2267 21.7481 92.6684L22.171 91.9324C23.1269 92.4823 24.125 93.0067 25.1317 93.4889L24.7679 94.2587ZM67.7481 94.1487L67.4943 93.3451L70.7087 92.3046L70.971 93.1083L67.7481 94.1487ZM74.1854 92.0593L73.9231 91.2557L77.146 90.2068L77.4082 91.0527L74.1854 92.0593ZM18.8466 90.8582C17.9077 90.2153 16.9857 89.5386 16.0975 88.8365L16.6219 88.1682C17.4678 88.8618 18.3983 89.5301 19.3288 90.1561L18.8466 90.8582ZM155.789 90.689C154.816 90.1561 153.81 89.6401 152.812 89.1579L153.175 88.3966C154.191 88.8787 155.206 89.4032 156.195 89.953L155.789 90.689ZM80.6227 89.9784L80.3689 89.1325L83.6256 88.1767L83.8794 89.0226L80.6227 89.9784ZM87.0853 87.9736L86.84 87.1277C87.9312 86.7978 89.014 86.4849 90.0967 86.1803L90.3251 87.0262L87.0853 87.9736ZM292.47 87.8975L291.624 87.6607C291.937 86.5779 292.267 85.4867 292.597 84.4124L293.442 84.6662C293.121 85.7151 292.8 86.7978 292.487 87.8806L292.47 87.8975ZM149.741 87.796C148.811 87.4154 147.855 87.0601 146.899 86.7217L146.603 86.6202L146.882 85.8166L147.102 85.8927C148.151 86.2649 149.124 86.6287 150.063 87.0178L149.741 87.796ZM13.5513 86.6033C12.7054 85.8251 11.9103 85.013 11.149 84.1756L11.7749 83.6088C12.5193 84.4547 13.3145 85.2245 14.1265 85.9858L13.5513 86.6033ZM93.6241 86.138L93.4127 85.2921C94.5123 85.0045 95.6035 84.7254 96.7032 84.4462L96.8978 85.2921C95.7896 85.5544 94.6984 85.8335 93.5987 86.1211L93.6241 86.138ZM143.439 85.5798C142.365 85.2498 141.274 84.9453 140.199 84.6662L140.411 83.8203C141.494 84.1079 142.593 84.4124 143.684 84.7423L143.439 85.5798ZM100.188 84.5478L100.011 83.7019C101.119 83.465 102.227 83.2366 103.335 83.0251L103.496 83.871C102.371 84.0656 101.263 84.294 100.163 84.5308L100.188 84.5478ZM136.926 83.8879C135.835 83.6596 134.718 83.4396 133.618 83.2535L133.762 82.4076C134.879 82.6022 135.995 82.8137 137.103 83.059L136.926 83.8879ZM106.82 83.2958L106.685 82.4499C107.818 82.2723 108.952 82.1116 110.068 81.9762L110.17 82.8221C109.003 82.9405 107.911 83.1013 106.795 83.2789L106.82 83.2958ZM130.294 82.7629C129.177 82.6191 128.052 82.5007 126.91 82.4161L126.978 81.5702C128.103 81.6632 129.236 81.7817 130.362 81.917L130.294 82.7629ZM113.503 82.4753L113.427 81.6294C114.56 81.5364 115.702 81.4602 116.81 81.4095V82.2554C115.77 82.2554 114.602 82.3653 113.477 82.4584L113.503 82.4753ZM123.586 82.2131C122.605 82.1792 121.632 82.1623 120.668 82.1623H120.219V81.3164H120.668C121.64 81.3164 122.63 81.3164 123.62 81.3672L123.586 82.2131ZM8.94116 81.5617C8.24752 80.6651 7.57926 79.7261 6.96175 78.7787L7.67231 78.3135C8.27289 79.244 8.9327 80.166 9.60942 81.0457L8.94116 81.5617ZM294.517 81.4433L293.713 81.1811C294.068 80.0983 294.441 79.0325 294.821 77.9667L295.616 78.2543C295.21 79.2947 294.847 80.3605 294.491 81.4095L294.517 81.4433ZM5.2192 75.835C4.67782 74.8368 4.17874 73.8048 3.73042 72.7644L4.50018 72.426C4.94851 73.4496 5.43913 74.4562 5.96359 75.4374L5.2192 75.835ZM296.792 75.0821L296.006 74.7776C296.42 73.7118 296.851 72.6713 297.291 71.6309L298.07 71.9692C297.638 72.9928 297.198 74.0332 296.792 75.0821ZM2.47003 69.5669C2.10629 68.501 1.78485 67.4014 1.5057 66.2932L2.3516 66.0902C2.62229 67.173 2.94373 68.2473 3.29901 69.2962L2.47003 69.5669ZM299.448 68.9071L298.687 68.5433C299.186 67.4944 299.694 66.4709 300.21 65.4981L300.954 65.8957C300.455 66.8431 299.947 67.8751 299.448 68.8986V68.9071ZM302.587 62.9858L301.859 62.5628C302.434 61.5731 303.043 60.6003 303.652 59.6614L304.363 60.1266C303.754 61.0064 303.162 61.9538 302.587 62.9435V62.9858ZM0.812063 62.9858C0.710555 62.3767 0.617506 61.7677 0.541375 61.1502C0.465244 60.5327 0.414491 60.1097 0.363737 59.6022L1.20964 59.5176C1.26039 60.0251 1.3196 60.5327 1.37882 61.0487C1.43803 61.5647 1.53954 62.2499 1.64105 62.842L0.812063 62.9858ZM306.283 57.369L305.598 56.8699C306.275 55.9564 306.985 55.0512 307.696 54.2053L308.347 54.7467C307.645 55.5419 306.943 56.4301 306.283 57.3267V57.369ZM0.0676735 56.2017C0.0253785 55.2543 0 54.2984 0 53.3594V52.8012H0.845899V53.3594C0.845899 54.2899 0.845901 55.2289 0.913573 56.1678L0.0676735 56.2017ZM310.513 52.2429L309.904 51.6592C310.69 50.8133 311.502 50.0266 312.323 49.2738L312.898 49.8997C312.154 50.6018 311.35 51.3885 310.572 52.2006L310.513 52.2429ZM1.02354 49.4091L0.177638 49.3499C0.253769 48.2164 0.372196 47.0744 0.515999 45.9663L1.3619 46.0763C1.2181 47.1675 1.10813 48.2925 1.02354 49.4091ZM315.495 47.7173L314.962 47.0575C315.808 46.3554 316.764 45.6702 317.694 45.0273L318.177 45.721C317.263 46.3131 316.358 46.9814 315.495 47.675V47.7173ZM320.993 43.9108L320.554 43.1833C321.526 42.6081 322.533 42.0582 323.548 41.5507L323.929 42.3035C322.931 42.7603 321.941 43.344 320.993 43.8685V43.9108ZM1.92019 42.7603L1.07429 42.5912C1.30269 41.4746 1.57337 40.358 1.86944 39.2752L2.71534 39.5036C2.41927 40.5695 2.14858 41.6522 1.92019 42.7603ZM3.70504 36.2977L2.9099 36.0185C3.29055 34.9527 3.75579 33.8868 4.16183 32.8464L4.95697 33.1932C4.49173 34.1998 4.11107 35.2487 3.70504 36.2977ZM6.395 30.1649L5.64215 29.8096C6.17507 28.803 6.74182 27.8133 7.33395 26.849L8.05296 27.2973C7.49467 28.1939 6.911 29.1752 6.395 30.1649ZM9.93932 24.4805L9.25414 23.9814C9.9224 23.0593 10.633 22.1627 11.3689 21.2914L12.0118 21.8412C11.2928 22.6871 10.5991 23.5753 9.93932 24.4805ZM14.2619 19.3628L13.6613 18.7706C14.4649 17.9247 15.3023 17.1634 16.1482 16.4275L16.7065 17.0704C15.8944 17.7894 15.1078 18.5592 14.2619 19.3628Z" fill="#263238"/>
<path d="M327.338 40.6878L327.008 39.9096C327.532 39.6896 328.057 39.4782 328.598 39.2751L328.903 40.0703C328.37 40.2648 327.854 40.4763 327.338 40.6878Z" fill="#263238"/>
<path d="M23.11 20.082C26.6307 18.6323 28.3096 14.603 26.8599 11.0823C25.4102 7.56156 21.3809 5.88268 17.8602 7.33237C14.3395 8.78207 12.6606 12.8114 14.1103 16.3321C15.5599 19.8528 19.5893 21.5317 23.11 20.082Z" fill="#263238"/>
<path d="M141.265 90.9512C145.073 90.9512 148.159 87.8647 148.159 84.0572C148.159 80.2497 145.073 77.1631 141.265 77.1631C137.458 77.1631 134.371 80.2497 134.371 84.0572C134.371 87.8647 137.458 90.9512 141.265 90.9512Z" fill="#263238"/>
<path d="M328.75 46.5667C332.557 46.5667 335.644 43.4801 335.644 39.6726C335.644 35.8651 332.557 32.7786 328.75 32.7786C324.942 32.7786 321.855 35.8651 321.855 39.6726C321.855 43.4801 324.942 46.5667 328.75 46.5667Z" fill="#263238"/>
<path d="M241.691 168.985C245.498 168.985 248.585 165.899 248.585 162.091C248.585 158.284 245.498 155.197 241.691 155.197C237.883 155.197 234.797 158.284 234.797 162.091C234.797 165.899 237.883 168.985 241.691 168.985Z" fill="#263238"/>
</svg>
