<svg width="32" height="32" viewBox="0 0 32 32" fill="none" xmlns="http://www.w3.org/2000/svg">
<g clip-path="url(#clip0_3496_76874)">
<path d="M24 14.666C24 15.5593 24 16.4393 24 17.3327C25.6 17.3327 27.68 17.3327 29.3333 17.3327C29.3333 16.4393 29.3333 15.5593 29.3333 14.666C27.68 14.666 25.6 14.666 24 14.666Z" fill="white"/>
<path d="M21.3335 23.4807C22.6135 24.4273 24.2802 25.6806 25.6002 26.6673C26.1335 25.9606 26.6668 25.2406 27.2002 24.534C25.8802 23.5473 24.2135 22.294 22.9335 21.334C22.4002 22.054 21.8668 22.774 21.3335 23.4807Z" fill="white"/>
<path d="M27.2002 7.46732C26.6668 6.76065 26.1335 6.04065 25.6002 5.33398C24.2802 6.32065 22.6135 7.57398 21.3335 8.53398C21.8668 9.24065 22.4002 9.96065 22.9335 10.6673C24.2135 9.70732 25.8802 8.46732 27.2002 7.46732Z" fill="white"/>
<path d="M5.33317 12C3.8665 12 2.6665 13.2 2.6665 14.6667V17.3333C2.6665 18.8 3.8665 20 5.33317 20H6.6665V25.3333H9.33317V20H10.6665L17.3332 24V8L10.6665 12H5.33317ZM12.0398 14.28L14.6665 12.7067V19.2933L12.0398 17.72L11.3998 17.3333H10.6665H5.33317V14.6667H10.6665H11.3998L12.0398 14.28Z" fill="white"/>
<path d="M20.6665 15.9999C20.6665 14.2265 19.8932 12.6265 18.6665 11.5332V20.4532C19.8932 19.3732 20.6665 17.7732 20.6665 15.9999Z" fill="white"/>
</g>
<defs>
<clipPath id="clip0_3496_76874">
<rect width="32" height="32" fill="white"/>
</clipPath>
</defs>
</svg>
