<svg width="32" height="32" viewBox="0 0 32 32" fill="none" xmlns="http://www.w3.org/2000/svg">
<path d="M24.3926 20.9785C24.4779 21.0729 24.5334 21.1951 24.5334 21.3327C24.5334 21.6276 24.295 21.866 24.0001 21.866C23.8561 21.866 23.7259 21.8079 23.6305 21.7151L21.1291 18.9364C20.9825 18.7716 20.7707 18.666 20.5334 18.666C20.0918 18.666 19.7334 19.0244 19.7334 19.466C19.7334 19.5897 19.7643 19.706 19.8145 19.8111C20.9675 22.2095 21.4155 22.9583 21.6779 24.4937C22.0603 26.7353 23.4667 26.6703 23.4667 29.3327H28.2667V19.7327H23.2758L24.3926 20.9785Z" fill="white"/>
<path opacity="0.6" d="M29.0665 16H18.1332L16.5332 17.3333L18.1332 18.6667H18.8543C19.1545 18.0384 19.7919 17.6 20.5332 17.6C21.4447 17.6 21.8399 18.1333 22.3204 18.6667H29.0665C29.8031 18.6667 30.3999 18.0699 30.3999 17.3333C30.3999 16.5968 29.8031 16 29.0665 16Z" fill="white"/>
<path d="M27.1999 14.934C26.2341 14.3356 24.2282 13.334 23.1407 13.334C22.2981 13.334 21.5103 13.6903 20.2666 14.934H27.1999Z" fill="white"/>
<path d="M19.3194 21.2347C18.8794 20.3264 18.7637 20.1824 18.697 19.7328H17.7477L14.8682 17.3328L17.7477 14.9328H18.7589C19.8837 13.808 20.9312 12.6629 22.3685 12.3515L19.1658 2.49708C19.0949 2.28641 18.9008 2.13281 18.6666 2.13281C18.6106 2.13281 18.5584 2.14828 18.5072 2.16535L2.49383 7.50081C2.2853 7.57335 2.1333 7.76641 2.1333 7.99948C2.1333 8.05441 2.14877 8.10401 2.16477 8.15415L9.1013 29.5019C9.1717 29.7125 9.36583 29.8661 9.59997 29.8661C9.65597 29.8661 9.70823 29.8507 9.75943 29.8336L21.0554 26.0693C20.8789 25.6896 20.7232 25.2395 20.6266 24.6731C20.4288 23.5141 20.1264 22.8933 19.3194 21.2347ZM5.37383 9.35201L8.4869 8.31521L9.53437 11.5387L6.40903 12.5797L5.37383 9.35201ZM9.83143 18.8624C9.20423 18.5253 9.7589 18.8235 6.6373 17.1467L7.3941 15.7371L9.13757 16.6731L10.7797 13.3888L12.2112 14.1045C9.76583 18.9941 10.1594 18.2075 9.83143 18.8624ZM12.5333 9.59948C12.0917 9.59948 11.7333 9.24108 11.7333 8.79948C11.7333 8.44641 11.9637 8.14988 12.281 8.04375L17.081 6.44375C17.161 6.41708 17.2448 6.39948 17.3333 6.39948C17.7749 6.39948 18.1333 6.75788 18.1333 7.19948C18.1333 7.55255 17.9029 7.84908 17.5856 7.95521L12.7856 9.55521C12.7056 9.58188 12.6218 9.59948 12.5333 9.59948ZM14.1333 13.3328C13.6917 13.3328 13.3333 12.9744 13.3333 12.5328C13.3333 12.1797 13.5637 11.8832 13.881 11.7771L18.681 10.1771C18.761 10.1504 18.8448 10.1328 18.9333 10.1328C19.3749 10.1328 19.7333 10.4912 19.7333 10.9328C19.7333 11.2859 19.5029 11.5824 19.1856 11.6885L14.3856 13.2885C14.3056 13.3152 14.2218 13.3328 14.1333 13.3328Z" fill="white"/>
</svg>
