<svg width="30" height="30" viewBox="0 0 30 30" fill="none" xmlns="http://www.w3.org/2000/svg">
<path d="M21.4997 15.5C18.1862 15.5 15.4997 18.1865 15.4997 21.5C15.4997 24.8135 18.1862 27.5 21.4997 27.5C24.8132 27.5 27.4997 24.8135 27.4997 21.5C27.4997 18.1865 24.8132 15.5 21.4997 15.5ZM20.9997 24.914L17.7927 21.707L19.2067 20.293L20.9997 22.086L24.2927 18.793L25.7067 20.207L20.9997 24.914Z" fill="#0A77DB"/>
<path d="M13.4997 21.5C13.4997 17.0815 17.0817 13.5 21.4997 13.5C23.1687 13.5 24.7177 14.012 25.9997 14.8865V6C25.9997 4.619 24.8807 3.5 23.4997 3.5H5.49973C4.11923 3.5 2.99973 4.619 2.99973 6V19.5C2.99973 20.881 4.11923 22 5.49973 22H7.99973V26.7825C7.99973 27.1785 8.32073 27.5 8.71723 27.5C8.89873 27.5 9.07373 27.431 9.20673 27.307L13.6697 23.1415C13.5592 22.6115 13.4997 22.0625 13.4997 21.5V21.5Z" fill="#0A77DB"/>
</svg>
