<svg width="30" height="30" viewBox="0 0 30 30" fill="none" xmlns="http://www.w3.org/2000/svg">
<path d="M9.99973 22.8285C9.99973 22.0935 10.2857 21.403 10.8052 20.8835L12.6332 19.0555C12.8697 18.8195 12.9997 18.5055 12.9997 18.1715V8.78295C12.9997 8.29545 12.7137 7.84995 12.2707 7.64695L3.49973 3.62695V23.943C3.49973 24.577 3.89823 25.1425 4.49523 25.3555L9.99973 27.3215V22.8285Z" fill="#0A77DB"/>
<path d="M11.4997 25.703C13.3367 26.8165 15.4752 27.5 17.1542 27.5C21.4997 27.5 24.6057 23.5735 25.1567 19.5H26.9997C27.2762 19.5 27.4997 19.2765 27.4997 19C27.4997 18.9045 27.4722 18.8145 27.4257 18.7385L23.4257 12.2385C23.3377 12.095 23.1797 12 22.9997 12C22.8197 12 22.6617 12.095 22.5732 12.2385L18.5732 18.7385C18.5267 18.8145 18.4997 18.9045 18.4997 19C18.4997 19.2765 18.7232 19.5 18.9997 19.5H20.8427C20.4697 22.1605 18.4997 24 16.5682 24C15.2032 24 13.1747 23.4395 11.4997 22.375V25.703Z" fill="#0A77DB"/>
<path d="M14.4997 8.783V18.171C14.4997 18.906 14.2137 19.5965 13.6942 20.116L12.5557 21.2545C14.0007 22.105 15.6237 22.4995 16.5682 22.4995C17.3062 22.4995 18.1387 21.951 18.6872 20.975C17.7322 20.825 16.9997 19.9965 16.9997 19C16.9997 18.6295 17.1022 18.267 17.2962 17.952L21.2962 11.452C21.6647 10.855 22.3012 10.5 22.9997 10.5C23.5847 10.5 24.1237 10.7515 24.4997 11.181V4.5C24.4997 3.6715 23.8277 3 22.9997 3H5.73123L12.8957 6.2835C13.8697 6.73 14.4997 7.711 14.4997 8.783V8.783Z" fill="#0A77DB" fill-opacity="0.5"/>
</svg>
