<svg width="30" height="30" viewBox="0 0 30 30" fill="none" xmlns="http://www.w3.org/2000/svg">
<path d="M4.99973 12.5H2.49973C1.94773 12.5 1.49973 12.948 1.49973 13.5V16.5C1.49973 17.052 1.94773 17.5 2.49973 17.5H4.99973V12.5Z" fill="#0A77DB"/>
<path d="M19.6667 14.2225L14.7967 9.709C14.3032 9.249 13.4997 9.598 13.4997 10.2725V12.5H6.49973V17.5H13.4997V19.728C13.4997 20.402 14.3032 20.751 14.7962 20.291L19.6667 15.7775C19.8922 15.5675 19.9997 15.2835 19.9997 15C19.9997 14.7165 19.8922 14.433 19.6667 14.2225Z" fill="#0A77DB" fill-opacity="0.5"/>
<path d="M3.99973 9C3.44773 9 2.99973 8.552 2.99973 8C2.99973 7.448 3.44773 7 3.99973 7H6.49973C7.05173 7 7.49973 7.448 7.49973 8C7.49973 8.552 7.05173 9 6.49973 9H3.99973Z" fill="#0A77DB"/>
<path d="M2.49973 24.5C1.94773 24.5 1.49973 24.052 1.49973 23.5C1.49973 22.948 1.94773 22.5 2.49973 22.5H4.99973C5.55173 22.5 5.99973 22.948 5.99973 23.5C5.99973 24.052 5.55173 24.5 4.99973 24.5H2.49973Z" fill="#0A77DB"/>
<path d="M24.9997 2H11.9997C10.6187 2 9.49973 3.119 9.49973 4.5V10.5H11.4997V10.2725C11.4997 9.169 12.1537 8.1715 13.1657 7.7315C14.1767 7.291 15.3532 7.493 16.1607 8.2465L21.0257 12.756C21.6467 13.3345 21.9997 14.151 21.9997 15C21.9997 15.849 21.6467 16.6655 21.0307 17.2395L16.1552 21.7575C15.6357 22.243 14.9587 22.5 14.2712 22.5C13.8982 22.5 13.5222 22.424 13.1662 22.269C12.1542 21.829 11.4997 20.832 11.4997 19.728V19.5H9.49973V25.5C9.49973 26.881 10.6187 28 11.9997 28H24.9997C26.3807 28 27.4997 26.881 27.4997 25.5V4.5C27.4997 3.119 26.3807 2 24.9997 2V2Z" fill="#0A77DB"/>
</svg>
