<svg width="30" height="30" viewBox="0 0 30 30" fill="none" xmlns="http://www.w3.org/2000/svg">
<path opacity="0.6" d="M15 17C12.2385 17 10 19.2385 10 22C10 24.761 12.2385 27 15 27C17.7615 27 20 24.761 20 22C20 19.2385 17.7615 17 15 17ZM17.624 21.7815L15.124 23.7815C14.953 23.918 14.7365 24 14.5 24C14.2235 24 13.9735 23.888 13.793 23.707L12.293 22.207C12.112 22.0265 12 21.7765 12 21.5C12 20.948 12.448 20.5 13 20.5C13.2765 20.5 13.5265 20.612 13.707 20.793L14.574 21.66L16.376 20.2185C16.547 20.082 16.7635 20 17 20C17.552 20 18 20.448 18 21C18 21.3165 17.8535 21.598 17.624 21.7815V21.7815Z" fill="white"/>
<path d="M27.5 11.5H8.5C8.0265 11.5 7.632 11.83 7.5285 12.272L4.5275 25.2765C4.5105 25.3485 4.5 25.423 4.5 25.5C4.5 26.052 4.948 26.5 5.5 26.5H10.3165C9.1935 25.332 8.5 23.748 8.5 22C8.5 18.41 11.41 15.5 15 15.5C18.59 15.5 21.5 18.41 21.5 22C21.5 23.748 20.8065 25.332 19.6835 26.5H24.5C24.9735 26.5 25.368 26.17 25.4715 25.728L28.4725 12.7235C28.4895 12.6515 28.5 12.577 28.5 12.5C28.5 11.948 28.052 11.5 27.5 11.5V11.5Z" fill="white"/>
<path d="M8.5 10H26.5V5C26.5 3.8955 25.6045 3 24.5 3H18.6605C17.9425 3 17.28 3.385 16.9235 4.008L15.5 6.5H4.5C3.3955 6.5 2.5 7.3955 2.5 8.5V23.564C2.5 23.8045 2.6955 24 2.9365 24C3.1395 24 3.3155 23.8615 3.3615 23.663C4.122 20.3565 6.082 11.8925 6.0885 11.8695C6.3785 10.7645 7.3575 10 8.5 10V10Z" fill="white"/>
</svg>
