<svg width="48" height="48" viewBox="0 0 48 48" fill="none" xmlns="http://www.w3.org/2000/svg">
<rect width="47.0222" height="47.0222" rx="10" fill="#1BBD67"/>
<g clip-path="url(#clip0_5902_125579)">
<path opacity="0.8" d="M27.4346 21.184C29.0928 21.184 30.6514 21.8285 31.8232 23.0004L32.9599 24.1371C33.8857 23.7328 34.7646 23.1703 35.5264 22.4086C37.7002 20.2348 38.4385 17.1762 37.7471 14.3988C37.6181 13.8715 36.956 13.6899 36.5693 14.0766L32.2099 18.436L28.2314 17.7738L27.5693 13.7953L31.9287 9.43595C32.3154 9.04923 32.1279 8.38713 31.5947 8.25236C28.8174 7.56681 25.7588 8.30509 23.5908 10.4731C21.9209 12.143 21.1357 14.3461 21.1768 16.5434L25.9873 21.3539C26.4619 21.2426 26.9541 21.184 27.4346 21.184ZM21.3467 25.9887L18.0244 22.6664L9.09473 31.602C7.62988 33.0668 7.62988 35.4399 9.09473 36.9047C10.5596 38.3695 12.9326 38.3695 14.3975 36.9047L21.6396 29.6625C21.1943 28.4965 21.0596 27.225 21.3467 25.9887ZM11.749 35.6567C10.9756 35.6567 10.3428 35.0238 10.3428 34.2504C10.3428 33.4711 10.9697 32.8442 11.749 32.8442C12.5283 32.8442 13.1553 33.4711 13.1553 34.2504C13.1553 35.0238 12.5283 35.6567 11.749 35.6567Z" fill="white"/>
<path d="M30.5 24.3242L37.3613 31.1855C38.2109 32.0352 38.2109 33.418 37.3613 34.2734L34.2734 37.3613C33.4238 38.2168 32.041 38.2168 31.1855 37.3613L24.3242 30.5C22.9707 29.1465 22.7129 27.125 23.5098 25.4961L17.2637 19.25H13.625L8 11.75L11.75 8L19.25 13.625V17.2637L25.4961 23.5098C27.125 22.707 29.1465 22.9707 30.5 24.3242Z" fill="white"/>
</g>
<defs>
<clipPath id="clip0_5902_125579">
<rect width="30" height="30" fill="white" transform="translate(8 8)"/>
</clipPath>
</defs>
</svg>
