<svg width="52" height="52" viewBox="0 0 52 52" fill="none" xmlns="http://www.w3.org/2000/svg">
<circle cx="26" cy="26" r="24.5" fill="#EE4428" stroke="white" stroke-width="3"/>
<g clip-path="url(#clip0_5880_33400)">
<path d="M37.2495 13.5H25.9995C23.932 13.5 22.2495 15.1825 22.2495 17.25V28.5H28.4995C30.9995 28.5 32.2495 31 32.2495 32.25V34.75C31.557 34.75 30.9995 34.0663 30.9995 33.5C30.9995 31.5725 29.177 29.75 27.2495 29.75H17.2495C12.5295 29.75 11.0832 36.7088 11.0245 37.005C10.9507 37.3725 11.0457 37.7538 11.2832 38.0425C11.5207 38.3325 11.8745 38.5 12.2495 38.5H22.2495C22.9395 38.5 23.4995 37.94 23.4995 37.25H32.2495C34.317 37.25 35.9995 35.5675 35.9995 33.5V22.25H39.7495C40.4395 22.25 40.9995 21.69 40.9995 21V17.25C40.9995 15.1825 39.317 13.5 37.2495 13.5ZM23.9582 34.75C24.4232 33.5 25.3582 32.25 27.2495 32.25C27.8107 32.25 28.4995 32.94 28.4995 33.5C28.4995 33.935 28.5957 34.3537 28.7457 34.75H23.9582ZM33.4995 27.25H24.7495V24.75H33.4995V27.25ZM33.4995 23.5H24.7495V21H33.4995V23.5ZM33.4995 19.75H24.7495V17.25H33.4995V19.75ZM38.4995 19.75H35.9995V17.25C35.9995 16.56 36.5607 16 37.2495 16C37.9382 16 38.4995 16.56 38.4995 17.25V19.75Z" fill="white"/>
</g>
<defs>
<clipPath id="clip0_5880_33400">
<rect width="30" height="30" fill="white" transform="translate(11 11)"/>
</clipPath>
</defs>
</svg>
