<svg width="25" height="25" viewBox="0 0 25 25" fill="none" xmlns="http://www.w3.org/2000/svg">
<g clip-path="url(#clip0_1672_15793)">
<path opacity="0.6" d="M8.04061 13.542H10.1885L7.58437 3.12533H10.5656L11.4583 9.37532H13.5417L14.4344 3.12533H17.4156L14.8114 13.542H16.9594L19.7604 2.33678C19.8385 2.02637 19.7677 1.69512 19.5708 1.44303C19.3739 1.18991 19.0708 1.04199 18.75 1.04199H6.24999C5.92916 1.04199 5.62603 1.18991 5.42916 1.44303C5.23124 1.69512 5.16145 2.02533 5.23957 2.33678L8.04061 13.542Z" fill="#C9C9D4"/>
<path d="M12.5 11.458L14.2854 15.9226H18.75L14.8875 19.183L16.9635 23.958L12.5 21.0049L8.03542 23.958L10.1125 19.183L6.25 15.9226H10.7135L12.5 11.458Z" fill="#C9C9D4"/>
</g>
<defs>
<clipPath id="clip0_1672_15793">
<rect width="25" height="25" fill="white"/>
</clipPath>
</defs>
</svg>
