<svg width="25" height="25" viewBox="0 0 25 25" fill="none" xmlns="http://www.w3.org/2000/svg">
<g clip-path="url(#clip0_1672_15783)">
<path d="M21.8749 3.12565H18.4603C18.0989 2.50586 17.4343 2.08398 16.6666 2.08398H8.33325C7.56554 2.08398 6.90096 2.50586 6.5395 3.12565H3.12492C2.54992 3.12565 2.08325 3.59232 2.08325 4.16732V8.33398C2.08325 8.65065 2.227 8.94961 2.47388 9.14753L7.60721 13.2538C8.54783 14.4371 9.90617 15.2704 11.4583 15.5319V16.6673H9.37492C8.79992 16.6673 8.33325 17.134 8.33325 17.709V19.7923H16.6666V17.709C16.6666 17.134 16.1999 16.6673 15.6249 16.6673H13.5416V15.5319C15.0937 15.2704 16.452 14.4381 17.3916 13.2548L22.5249 9.14857C22.7728 8.94961 22.9166 8.65065 22.9166 8.33398V4.16732C22.9166 3.59232 22.4499 3.12565 21.8749 3.12565ZM4.16659 7.83398V5.20898H6.24992V9.37565C6.24992 9.4194 6.25513 9.46211 6.25617 9.50586L4.16659 7.83398ZM20.8333 7.83398L18.7437 9.50586C18.7447 9.46211 18.7499 9.4194 18.7499 9.37565V5.20898H20.8333V7.83398Z" fill="#C9C9D4"/>
<path opacity="0.6" d="M17.7082 20.876H7.2915V22.9593H17.7082V20.876Z" fill="#C9C9D4"/>
</g>
<defs>
<clipPath id="clip0_1672_15783">
<rect width="25" height="25" fill="white"/>
</clipPath>
</defs>
</svg>
