<svg width="25" height="25" viewBox="0 0 25 25" fill="none" xmlns="http://www.w3.org/2000/svg">
<path d="M7.91667 20.2737C7.91667 19.6658 8.15833 19.0833 8.58792 18.6529L10.1112 17.1295C10.3067 16.9345 10.4167 16.6691 10.4167 16.3929V7.31913C10.4167 6.91163 10.1792 6.54204 9.80917 6.37246L2.5 3.02246V20.7858C2.5 21.3141 2.83208 21.785 3.32958 21.9629L7.05625 23.2941C7.12708 23.3191 7.19792 23.3325 7.26708 23.3333C7.61167 23.337 7.91667 23.0583 7.91667 22.6879V20.2737Z" fill="#C9C9D4"/>
<path d="M18.7499 6.66667V3.75C18.7499 3.05958 18.1899 2.5 17.4999 2.5H4.36035L10.3299 5.23583C10.9383 5.515 11.3849 6.04333 11.5712 6.66667H18.7499Z" fill="#C9C9D4"/>
<path opacity="0.6" d="M11.6667 7.91699H20.4167C20.6472 7.91699 20.8334 8.10324 20.8334 8.33366V9.16699C20.8334 9.39741 20.6472 9.58366 20.4167 9.58366H11.6667V7.91699Z" fill="#C9C9D4"/>
<path d="M22.0834 10.833H11.6667V12.9163H13.9584C14.3034 12.9163 14.5834 13.1963 14.5834 13.5413C14.5834 13.8863 14.3034 14.1663 13.9584 14.1663H11.6667V15.833H13.9584C14.3034 15.833 14.5834 16.113 14.5834 16.458C14.5834 16.803 14.3034 17.083 13.9584 17.083H11.5479C11.4371 17.4301 11.255 17.7534 10.9954 18.013L9.4721 19.5363C9.34169 19.6668 9.25502 19.8263 9.20752 19.9993H22.0834C22.3138 19.9993 22.5 19.813 22.5 19.5826V11.2497C22.5 11.0193 22.3138 10.833 22.0834 10.833ZM18.75 12.4997C19.44 12.4997 20 13.0593 20 13.7497C20 14.4397 19.44 14.9997 18.75 14.9997C18.06 14.9997 17.5 14.4397 17.5 13.7497C17.5 13.0593 18.06 12.4997 18.75 12.4997ZM20.83 18.333H16.67C16.4179 18.333 16.2517 18.1122 16.25 17.8597C16.2446 17.083 17.0834 15.833 18.75 15.833C20.4167 15.833 21.2554 17.083 21.25 17.8597C21.2484 18.1122 21.0825 18.333 20.83 18.333Z" fill="#C9C9D4"/>
</svg>
