<svg width="25" height="25" viewBox="0 0 25 25" fill="none" xmlns="http://www.w3.org/2000/svg">
<path d="M20.8008 3.125C21.53 3.125 22.1191 3.72475 22.1191 4.46429C22.1191 5.20382 21.53 5.80357 20.8008 5.80357H5.63965C5.27545 5.80357 4.98047 6.10491 4.98047 6.47321C4.98047 6.84152 5.27545 7.14286 5.63965 7.14286H20.8008C22.2551 7.14286 23.4375 8.34403 23.4375 9.82143V19.1964C23.4375 20.6738 22.2551 21.875 20.8008 21.875H4.98047C3.52409 21.875 2.34375 20.6738 2.34375 19.1964V5.80357C2.34375 4.32408 3.52409 3.125 4.98047 3.125H20.8008ZM19.4824 15.8482C20.2116 15.8482 20.8008 15.2497 20.8008 14.5089C20.8008 13.7681 20.2116 13.1696 19.4824 13.1696C18.7532 13.1696 18.1641 13.7681 18.1641 14.5089C18.1641 15.2497 18.7532 15.8482 19.4824 15.8482Z" fill="#C9C9D4"/>
</svg>
