<svg width="25" height="25" viewBox="0 0 25 25" fill="none" xmlns="http://www.w3.org/2000/svg">
<path opacity="0.6" d="M9.49784 14.1559C9.38534 14.163 9.27825 14.1663 9.16659 14.1663C8.437 14.1663 7.72867 14.0067 7.08325 13.7096V14.8596C7.29534 15.1188 7.98575 15.833 9.16659 15.833C10.3449 15.833 11.0391 15.1159 11.2499 14.8596V13.6992C10.7108 13.9538 10.1212 14.1155 9.49784 14.1559Z" fill="#C9C9D4"/>
<path d="M9.16659 3.74967C7.25159 3.74967 6.03575 3.09301 5.41659 2.08301C5.41659 2.08301 4.58325 3.43801 4.58325 4.36134C4.58325 5.18884 4.8795 5.94676 5.41659 6.45092V9.58301C5.41659 11.6543 7.09534 13.333 9.16659 13.333C11.2378 13.333 12.9166 11.6543 12.9166 9.58301V7.49967C12.9166 5.42842 11.2378 3.74967 9.16659 3.74967Z" fill="#C9C9D4"/>
<path d="M12.5 17.4996C12.5 16.8338 12.6067 16.1933 12.7992 15.5917L11.9979 15.2529C11.8683 15.4363 10.9333 16.6663 9.16667 16.6663C7.4 16.6663 6.465 15.4363 6.33542 15.2529L3.54333 16.4304C2.15333 17.0167 1.25 18.3779 1.25 19.8863V22.0829C1.25 22.3133 1.43625 22.4996 1.66667 22.4996H15.0113C13.4896 21.3596 12.5 19.5475 12.5 17.4996Z" fill="#C9C9D4"/>
<path opacity="0.6" d="M18.752 19.0632C19.6149 19.0632 20.3145 18.3637 20.3145 17.5008C20.3145 16.638 19.6149 15.9385 18.752 15.9385C17.889 15.9385 17.1895 16.638 17.1895 17.5008C17.1895 18.3637 17.889 19.0632 18.752 19.0632Z" fill="#C9C9D4"/>
<path d="M23.9604 16.9801H22.8828C22.6463 15.0995 21.1541 13.6069 19.2729 13.3705V12.293H18.2312V13.3705C16.3505 13.6069 14.8578 15.0995 14.6213 16.9801H13.5437V18.0217H14.6213C14.8578 19.9022 16.35 21.3948 18.2312 21.6313V22.7088H19.2729V21.6313C21.1541 21.3948 22.6463 19.9022 22.8828 18.0217H23.9604V16.9801ZM18.752 20.6256C17.0286 20.6256 15.627 19.2242 15.627 17.5009C15.627 15.7776 17.0286 14.3761 18.752 14.3761C20.4755 14.3761 21.877 15.7776 21.877 17.5009C21.877 19.2242 20.4755 20.6256 18.752 20.6256Z" fill="#C9C9D4"/>
</svg>
