<svg width="50" height="50" viewBox="0 0 50 50" fill="none" xmlns="http://www.w3.org/2000/svg">
<g clip-path="url(#clip0_7164_67814)">
<path d="M10.1659 10.1093L6.98047 7.42389C10.9534 2.70514 16.7659 0.000976562 22.9242 0.000976562C29.07 0.000976562 34.87 2.69473 38.8409 7.39056L35.6596 10.0801C32.4805 6.32389 27.8409 4.16764 22.9242 4.16764C17.9971 4.16764 13.3471 6.33431 10.1659 10.1093Z" fill="white" fill-opacity="0.8"/>
<path d="M29.5927 15.8391C28.001 13.7183 25.5698 12.5016 22.9219 12.5016C20.276 12.5016 17.8448 13.7162 16.2552 15.8391L12.9219 13.335C15.2719 10.2037 19.0094 8.33496 22.9219 8.33496C26.8948 8.33496 30.5406 10.1579 32.926 13.3391L29.5927 15.8391Z" fill="white" fill-opacity="0.8"/>
<path d="M33.3148 42.535L26.2023 35.4225L30.8211 30.8038L33.3148 32.0517V22.7809C33.2398 20.5496 31.4128 18.7559 29.1628 18.7559H16.6628C14.3648 18.7559 12.4961 20.6246 12.4961 22.9225V43.7559C12.4961 46.0538 14.3648 47.9225 16.6628 47.9225H29.1628C31.4128 47.9225 33.2398 46.1288 33.3148 43.8954V42.535ZM22.8982 40.11C21.4607 40.11 20.294 38.9434 20.294 37.5059C20.294 36.0684 21.4607 34.9017 22.8982 34.9017C24.3357 34.9017 25.5023 36.0684 25.5023 37.5059C25.5023 38.9434 24.3378 40.11 22.8982 40.11ZM22.8982 31.7767C21.4607 31.7767 20.294 30.61 20.294 29.1725C20.294 27.735 21.4607 26.5684 22.8982 26.5684C24.3357 26.5684 25.5023 27.735 25.5023 29.1725C25.5023 30.61 24.3378 31.7767 22.8982 31.7767Z" fill="white" fill-opacity="0.8"/>
<path d="M35.3984 22.9219L41.6484 29.1719V39.5885L45.8151 50.0052H35.3984V41.6719L29.1484 35.4219L31.2318 33.3385L35.3984 35.4219V22.9219Z" fill="white" fill-opacity="0.8"/>
</g>
<defs>
<clipPath id="clip0_7164_67814">
<rect width="50" height="50" fill="white"/>
</clipPath>
</defs>
</svg>
