<svg width="50" height="50" viewBox="0 0 50 50" fill="none" xmlns="http://www.w3.org/2000/svg">
<g clip-path="url(#clip0_7164_67842)">
<path d="M31.2422 19.3069L24.9922 8.36523L18.7422 19.3027V22.9152H31.2422V19.3069Z" fill="white" fill-opacity="0.8"/>
<path d="M8.32552 22.9158H14.5755V18.7492C14.5755 18.3867 14.6693 18.0304 14.8505 17.7158L21.3151 6.40332L7.07552 17.0825C6.55052 17.4742 6.24219 18.0929 6.24219 18.7492V20.8325C6.24219 21.9825 7.17552 22.9158 8.32552 22.9158Z" fill="white" fill-opacity="0.8"/>
<path d="M35.4076 18.7533V22.9158H41.6575C42.8075 22.9158 43.7409 21.9825 43.7409 20.8325V18.7492C43.7409 18.095 43.4326 17.4762 42.9076 17.0825L28.668 6.40332L35.1326 17.72C35.3138 18.0346 35.4076 18.3908 35.4076 18.7533Z" fill="white" fill-opacity="0.8"/>
<path d="M27.0729 24.999H22.9062V45.8324H27.0729V24.999Z" fill="white" fill-opacity="0.8"/>
<path d="M41.7214 30.7441L40.0318 37.5004H33.3255C32.1755 37.5004 31.2422 38.4337 31.2422 39.5837V45.8337H35.4089V41.6671H39.5755V45.8337H43.7422V39.84L45.763 31.7566L41.7214 30.7441Z" fill="white" fill-opacity="0.8"/>
<path d="M16.6602 37.5004H9.95391L8.26432 30.7441L4.22266 31.7566L6.24349 39.84V45.8337H10.4102V41.6671H14.5768V45.8337H18.7435V39.5837C18.7435 38.4337 17.8102 37.5004 16.6602 37.5004Z" fill="white" fill-opacity="0.8"/>
</g>
<defs>
<clipPath id="clip0_7164_67842">
<rect width="50" height="50" fill="white"/>
</clipPath>
</defs>
</svg>
