<svg width="350" height="350" viewBox="0 0 350 350" fill="none" xmlns="http://www.w3.org/2000/svg">
<g opacity="0.6">
<rect width="350" height="350" fill="white"/>
<path d="M89.7531 282.709C139.278 309.141 219.575 309.141 269.1 282.709C318.625 256.277 318.632 213.409 269.1 186.977C219.568 160.545 139.278 160.538 89.7531 186.977C40.2281 213.416 40.2281 256.27 89.7531 282.709Z" fill="#EBEBEB"/>
<path d="M283.667 217.126L276.443 212.926C276.443 212.926 274.672 197.449 275.848 185.465C277.507 168.616 288.385 148.365 301.356 153.111C314.327 157.857 295.399 175.056 291.199 189.336C286.999 203.616 283.667 217.126 283.667 217.126Z" fill="#407BFF"/>
<path opacity="0.1" d="M283.667 217.126L276.443 212.926C276.443 212.926 274.672 197.449 275.848 185.465C277.507 168.616 288.385 148.365 301.356 153.111C314.327 157.857 295.399 175.056 291.199 189.336C286.999 203.616 283.667 217.126 283.667 217.126Z" fill="black"/>
<path d="M279.908 215.229C279.84 215.229 279.775 215.206 279.723 215.162C279.672 215.118 279.638 215.057 279.628 214.991C277.171 196.091 283.898 167.524 297.478 156.688C297.506 156.665 297.538 156.648 297.572 156.638C297.607 156.628 297.643 156.625 297.679 156.629C297.715 156.632 297.749 156.643 297.781 156.661C297.812 156.678 297.84 156.702 297.863 156.73C297.909 156.787 297.93 156.861 297.922 156.934C297.914 157.008 297.878 157.075 297.821 157.122C284.388 167.846 277.745 196.189 280.181 214.914C280.191 214.987 280.171 215.061 280.127 215.12C280.082 215.179 280.016 215.218 279.943 215.229H279.908Z" fill="white"/>
<path d="M287.525 220.114L282.387 217.139C282.387 217.139 281.512 206.52 286.72 193.619C291.249 182.419 302.498 173.067 308.154 175.027C313.81 176.987 313.67 180.998 310.912 185.205C308.154 189.412 291.375 199.443 287.525 220.114Z" fill="#407BFF"/>
<path d="M284.342 220.388C284.305 220.386 284.27 220.377 284.237 220.361C284.204 220.345 284.174 220.323 284.15 220.295C284.126 220.268 284.108 220.236 284.096 220.201C284.085 220.167 284.08 220.13 284.083 220.094C285.777 193.662 299.147 180.663 307.183 178.682C307.255 178.664 307.331 178.676 307.395 178.714C307.459 178.752 307.506 178.813 307.526 178.885C307.543 178.956 307.531 179.031 307.493 179.094C307.455 179.157 307.394 179.202 307.323 179.221C298.86 181.321 286.232 195.391 284.65 220.129C284.647 220.166 284.637 220.203 284.62 220.236C284.603 220.27 284.579 220.299 284.551 220.323C284.522 220.348 284.489 220.366 284.453 220.377C284.417 220.388 284.379 220.391 284.342 220.388Z" fill="white"/>
<path d="M75.6012 219.184C75.6012 219.184 76.5602 203.665 67.5442 193.025C58.5282 182.385 46.7892 182.427 42.9042 184.408C39.0192 186.389 36.4082 192.052 43.0932 196.105C49.7782 200.158 63.9952 208.271 66.3612 215.509L75.6012 219.184Z" fill="#407BFF"/>
<path opacity="0.1" d="M75.6012 219.184C75.6012 219.184 76.5602 203.665 67.5442 193.025C58.5282 182.385 46.7892 182.427 42.9042 184.408C39.0192 186.389 36.4082 192.052 43.0932 196.105C49.7782 200.158 63.9952 208.271 66.3612 215.509L75.6012 219.184Z" fill="black"/>
<path d="M71.3571 215.299C71.2704 215.297 71.1872 215.265 71.1228 215.207C71.0584 215.149 71.0173 215.07 71.0071 214.984C69.1521 197.813 51.9881 188.299 45.1491 187.221C45.1031 187.215 45.059 187.199 45.0191 187.175C44.9793 187.151 44.9446 187.119 44.917 187.082C44.8893 187.044 44.8693 187.002 44.8581 186.957C44.8469 186.912 44.8447 186.865 44.8516 186.819C44.8585 186.773 44.8743 186.729 44.8983 186.689C44.9223 186.649 44.9538 186.615 44.9912 186.587C45.0286 186.559 45.071 186.539 45.1161 186.528C45.1612 186.517 45.2081 186.515 45.2541 186.521C52.2541 187.62 69.8031 197.351 71.7071 214.907C71.7119 214.953 71.7076 214.999 71.6943 215.043C71.6811 215.088 71.6592 215.129 71.6299 215.165C71.6006 215.201 71.5645 215.23 71.5237 215.252C71.4828 215.274 71.4381 215.287 71.3921 215.292L71.3571 215.299Z" fill="white"/>
<path d="M68.0188 211.357C65.7578 206.205 63.2028 203.895 55.8528 205.127C48.5028 206.359 49.5528 206.17 40.5578 203.867C36.7638 202.901 32.5008 202.747 28.8608 204.385C25.7878 205.785 23.4918 208.585 26.4668 211.567C29.8128 214.899 34.8038 216.04 38.4998 218.973C39.3382 219.566 40.0048 220.37 40.4318 221.304C41.4048 223.782 39.4588 226.575 40.0258 229.172C40.5928 231.769 43.3228 233.155 45.8848 233.323C48.4468 233.491 50.9738 232.721 53.5288 232.427C56.0838 232.133 58.9538 232.427 60.7178 234.324C62.6078 236.333 62.6568 239.546 64.4138 241.681C67.0458 244.88 73.5138 245.769 77.0138 243.781L86.1768 238.496C92.2318 230.334 82.6768 223.866 77.6718 217.531C75.2428 214.444 69.3768 214.458 68.0188 211.357Z" fill="#407BFF"/>
<path d="M80.4989 233.569C80.4392 233.571 80.3804 233.556 80.3286 233.526C80.2768 233.496 80.234 233.453 80.2049 233.401C69.7539 216.468 41.2989 207.9 31.2329 207.2C31.1412 207.193 31.0561 207.15 30.9958 207.081C30.9356 207.011 30.9051 206.921 30.9109 206.829C30.918 206.737 30.9607 206.651 31.0299 206.59C31.0991 206.529 31.1894 206.496 31.2819 206.5C41.4809 207.2 70.2089 215.894 80.7999 233.051C80.8467 233.131 80.8605 233.227 80.8383 233.317C80.8161 233.407 80.7596 233.485 80.6809 233.534C80.6236 233.56 80.5614 233.572 80.4989 233.569Z" fill="white"/>
<path d="M47.3969 225.588C47.3423 225.59 47.2884 225.577 47.2396 225.553C47.1908 225.529 47.1487 225.493 47.1169 225.449C47.0612 225.374 47.0373 225.281 47.0504 225.189C47.0635 225.097 47.1126 225.014 47.1869 224.958C47.5509 224.685 56.2309 218.316 64.6869 218.19C64.7325 218.189 64.7779 218.197 64.8203 218.214C64.8627 218.23 64.9014 218.256 64.9339 218.287C64.9665 218.319 64.9924 218.358 65.0101 218.4C65.0278 218.442 65.0369 218.487 65.0369 218.533C65.0378 218.578 65.0297 218.624 65.0129 218.667C64.9962 218.71 64.9712 218.749 64.9393 218.782C64.9075 218.815 64.8694 218.842 64.8273 218.86C64.7852 218.879 64.7398 218.889 64.6939 218.89C56.4829 219.009 47.7119 225.456 47.6209 225.519C47.5577 225.569 47.4777 225.594 47.3969 225.588Z" fill="white"/>
<path d="M79.8477 239.519C79.9225 240.537 80.2358 241.523 80.7624 242.397C81.2889 243.272 82.0139 244.01 82.8787 244.552L167.81 293.587C168.749 294.064 169.787 294.312 170.841 294.312C171.894 294.312 172.932 294.064 173.872 293.587L290.072 226.492C290.988 226.009 291.754 225.285 292.289 224.398C292.824 223.511 293.106 222.495 293.106 221.459C293.106 220.423 292.824 219.407 292.289 218.521C291.754 217.634 290.988 216.91 290.072 216.426L205.148 167.426C204.208 166.95 203.17 166.701 202.117 166.701C201.063 166.701 200.025 166.95 199.086 167.426L82.8787 234.5C82.0157 235.041 81.2919 235.777 80.7654 236.649C80.2389 237.52 79.9246 238.504 79.8477 239.519Z" fill="#37474F"/>
<path d="M114.889 216.006L82.8784 234.5C81.9625 234.983 81.1958 235.707 80.6611 236.594C80.1263 237.481 79.8438 238.497 79.8438 239.533C79.8438 240.569 80.1263 241.585 80.6611 242.471C81.1958 243.358 81.9625 244.082 82.8784 244.566L167.809 293.601C168.743 294.089 169.787 294.33 170.84 294.301V216.006H114.889Z" fill="#263238"/>
<path d="M76.9982 234.599C76.1546 234.024 75.4579 233.259 74.9643 232.365C74.4706 231.471 74.1938 230.474 74.1562 229.454V128.101C74.2126 127.049 74.5165 126.025 75.0432 125.113C75.5699 124.201 76.3045 123.426 77.1872 122.851L193.387 55.7557C194.264 55.2056 195.275 54.9048 196.31 54.8857C197.345 54.8667 198.366 55.13 199.263 55.6475C200.16 56.165 200.898 56.9171 201.4 57.8229C201.901 58.7287 202.147 59.754 202.109 60.7887V162.149C202.052 163.2 201.747 164.224 201.221 165.136C200.694 166.048 199.96 166.823 199.078 167.399L82.8782 234.501C81.9746 234.977 80.9714 235.235 79.9499 235.252C78.9285 235.269 77.9173 235.045 76.9982 234.599Z" fill="#455A64"/>
<path d="M88.3812 132.811L75.0462 125.111C74.5152 126.02 74.2237 127.048 74.1992 128.1V229.453C74.2368 230.474 74.5136 231.471 75.0072 232.364C75.5009 233.258 76.1976 234.023 77.0412 234.598C77.9604 235.041 78.9709 235.262 79.9911 235.242C81.0112 235.223 82.0126 234.964 82.9142 234.486L96.1722 226.835L88.3812 132.811Z" fill="#263238"/>
<path d="M79.8477 131.391V232.737C79.8477 234.669 81.2057 235.453 82.8787 234.487L199.079 167.399C199.961 166.824 200.695 166.049 201.221 165.136C201.748 164.224 202.052 163.201 202.11 162.149V60.7964C202.11 58.8644 200.752 58.0804 199.079 59.0464L82.8787 126.141C81.9959 126.716 81.2613 127.491 80.7346 128.404C80.2079 129.316 79.904 130.34 79.8477 131.391Z" fill="#37474F"/>
<path d="M82.8772 238.002L167.808 287.002C168.747 287.478 169.786 287.726 170.839 287.726C171.892 287.726 172.931 287.478 173.87 287.002L290.07 219.907C291.75 218.941 291.75 217.373 290.07 216.407L205.146 167.407C204.207 166.93 203.168 166.682 202.115 166.682C201.062 166.682 200.023 166.93 199.084 167.407L82.8772 234.502C81.1972 235.454 81.1972 237.022 82.8772 238.002Z" fill="#455A64"/>
<path d="M84.5075 131.761L197.452 66.5559C198.453 65.9749 199.272 66.4439 199.272 67.6059V155.337C199.237 155.968 199.054 156.582 198.738 157.129C198.422 157.676 197.981 158.141 197.452 158.487L84.5075 223.692C83.4995 224.273 82.6875 223.804 82.6875 222.642V134.911C82.7211 134.28 82.9035 133.665 83.2198 133.118C83.5361 132.57 83.9773 132.105 84.5075 131.761Z" fill="white"/>
<path d="M92.7326 235.361L200.596 173.061C201.065 172.823 201.584 172.699 202.111 172.699C202.638 172.699 203.157 172.823 203.627 173.061L209.15 176.246C209.332 176.308 209.491 176.426 209.604 176.583C209.716 176.74 209.777 176.928 209.777 177.121C209.777 177.314 209.716 177.503 209.604 177.66C209.491 177.816 209.332 177.934 209.15 177.996L101.266 240.289C100.796 240.527 100.277 240.651 99.7501 240.651C99.2235 240.651 98.7043 240.527 98.2346 240.289L92.7326 237.111C92.5497 237.049 92.3909 236.931 92.2784 236.774C92.166 236.618 92.1055 236.429 92.1055 236.236C92.1055 236.043 92.166 235.855 92.2784 235.698C92.3909 235.541 92.5497 235.423 92.7326 235.361Z" fill="#263238"/>
<path d="M106.959 243.602L214.815 181.302C215.286 181.063 215.807 180.939 216.334 180.939C216.862 180.939 217.382 181.063 217.853 181.302L251.782 200.902C251.965 200.964 252.124 201.081 252.236 201.238C252.349 201.395 252.409 201.583 252.409 201.777C252.409 201.97 252.349 202.158 252.236 202.315C252.124 202.472 251.965 202.59 251.782 202.652L144.045 264.826C143.574 265.064 143.054 265.188 142.526 265.188C141.999 265.188 141.478 265.064 141.007 264.826L106.959 245.317C106.785 245.251 106.635 245.133 106.53 244.98C106.424 244.827 106.367 244.645 106.367 244.459C106.367 244.273 106.424 244.091 106.53 243.938C106.635 243.785 106.785 243.668 106.959 243.602Z" fill="#263238"/>
<path d="M203.642 209.301L207.023 207.348C207.163 207.264 207.156 207.131 207.023 207.04L203.117 204.786C203.034 204.743 202.941 204.72 202.847 204.72C202.754 204.72 202.661 204.743 202.578 204.786L199.204 206.739C199.057 206.823 199.064 206.956 199.204 207.047L203.11 209.301C203.192 209.343 203.283 209.364 203.376 209.364C203.468 209.364 203.559 209.343 203.642 209.301ZM196.978 201.601L193.604 203.554C193.457 203.631 193.464 203.771 193.604 203.862L197.51 206.116C197.593 206.159 197.686 206.181 197.779 206.181C197.873 206.181 197.966 206.159 198.049 206.116L201.43 204.163C201.57 204.079 201.563 203.939 201.43 203.855L197.517 201.601C197.434 201.558 197.341 201.535 197.247 201.535C197.154 201.535 197.061 201.558 196.978 201.601ZM186.072 207.901L180.353 211.198C180.213 211.282 180.22 211.422 180.353 211.513L184.259 213.767C184.342 213.81 184.435 213.832 184.528 213.832C184.622 213.832 184.715 213.81 184.798 213.767L190.51 210.47C190.657 210.386 190.643 210.246 190.51 210.162L186.604 207.901C186.522 207.858 186.431 207.835 186.338 207.835C186.245 207.835 186.154 207.858 186.072 207.901ZM192.043 204.45L188.669 206.403C188.522 206.487 188.529 206.627 188.669 206.711L192.575 208.965C192.658 209.008 192.751 209.03 192.844 209.03C192.938 209.03 193.031 209.008 193.114 208.965L196.495 207.012C196.635 206.928 196.628 206.795 196.495 206.704L192.582 204.401C192.499 204.358 192.406 204.335 192.312 204.335C192.219 204.335 192.126 204.358 192.043 204.401V204.45ZM178.792 212.101L175.418 214.047C175.271 214.131 175.285 214.271 175.418 214.362L179.324 216.616C179.406 216.657 179.498 216.679 179.59 216.679C179.682 216.679 179.773 216.657 179.856 216.616L183.237 214.663C183.377 214.579 183.37 214.439 183.237 214.355L179.331 212.101C179.248 212.058 179.155 212.035 179.061 212.035C178.968 212.035 178.875 212.058 178.792 212.101ZM173.892 214.95L170.518 216.903C170.371 216.98 170.385 217.12 170.518 217.211L174.424 219.465C174.507 219.508 174.6 219.53 174.693 219.53C174.787 219.53 174.88 219.508 174.963 219.465L178.344 217.512C178.484 217.428 178.477 217.288 178.344 217.204L174.396 214.901C174.313 214.858 174.22 214.835 174.126 214.835C174.033 214.835 173.94 214.858 173.857 214.901L173.892 214.95ZM189.257 224.12L192.631 222.167C192.778 222.083 192.764 221.95 192.631 221.859L188.725 219.605C188.643 219.562 188.552 219.539 188.459 219.539C188.366 219.539 188.275 219.562 188.193 219.605L184.812 221.558C184.672 221.642 184.679 221.775 184.812 221.866L188.718 224.12C188.799 224.152 188.887 224.165 188.974 224.159C189.061 224.153 189.146 224.128 189.222 224.085L189.257 224.12ZM184.315 226.969L187.696 225.016C187.836 224.939 187.829 224.799 187.696 224.708L183.79 222.454C183.707 222.411 183.614 222.388 183.52 222.388C183.427 222.388 183.334 222.411 183.251 222.454L179.877 224.407C179.73 224.491 179.744 224.631 179.877 224.715L183.783 226.969C183.863 227.001 183.949 227.014 184.035 227.008C184.121 227.002 184.205 226.977 184.28 226.934L184.315 226.969ZM179.38 229.818L182.761 227.872C182.901 227.788 182.894 227.648 182.761 227.557L178.855 225.303C178.771 225.261 178.679 225.24 178.585 225.24C178.492 225.24 178.4 225.261 178.316 225.303L174.942 227.256C174.795 227.34 174.809 227.48 174.942 227.564L178.841 229.818C178.922 229.85 179.01 229.863 179.097 229.857C179.184 229.851 179.269 229.826 179.345 229.783L179.38 229.818ZM174.48 232.667L177.861 230.721C178.001 230.637 177.994 230.497 177.861 230.406L173.955 228.152C173.872 228.109 173.779 228.086 173.685 228.086C173.592 228.086 173.499 228.109 173.416 228.152L170.042 230.098C169.895 230.182 169.902 230.322 170.042 230.413L173.948 232.667C174.1 232.716 174.267 232.704 174.41 232.632L174.48 232.667ZM198.777 212.199L202.158 210.246C202.298 210.169 202.291 210.029 202.158 209.938L198.252 207.684C198.168 207.642 198.076 207.621 197.982 207.621C197.889 207.621 197.797 207.642 197.713 207.684L194.339 209.637C194.192 209.721 194.199 209.861 194.339 209.945L198.245 212.199C198.32 212.225 198.4 212.235 198.479 212.229C198.559 212.223 198.636 212.201 198.707 212.164L198.777 212.199ZM194.227 221.299L201.759 216.945C201.899 216.868 201.892 216.728 201.759 216.637L192.274 211.163C192.191 211.12 192.098 211.097 192.004 211.097C191.911 211.097 191.818 211.12 191.735 211.163L187.843 213.417C187.696 213.494 187.71 213.634 187.843 213.725L192.869 216.623C193.023 216.714 193.03 216.854 192.869 216.938L189.698 218.66C189.558 218.737 189.565 218.877 189.698 218.968L193.618 221.201C193.698 221.249 193.789 221.278 193.883 221.284C193.977 221.29 194.071 221.273 194.157 221.236L194.227 221.299ZM168.992 217.799L165.618 219.752C165.471 219.836 165.478 219.969 165.618 220.06L169.524 222.314C169.607 222.357 169.7 222.379 169.793 222.379C169.887 222.379 169.98 222.357 170.063 222.314L173.444 220.361C173.584 220.277 173.577 220.144 173.444 220.053L169.538 217.799C169.449 217.736 169.344 217.7 169.235 217.694C169.126 217.688 169.018 217.712 168.922 217.764L168.992 217.799ZM164.092 220.648L160.606 222.601C160.466 222.685 160.473 222.825 160.606 222.909L164.512 225.163C164.595 225.206 164.688 225.228 164.781 225.228C164.875 225.228 164.968 225.206 165.051 225.163L168.432 223.21C168.572 223.133 168.565 222.993 168.432 222.902L164.498 220.627C164.419 220.586 164.332 220.564 164.244 220.561C164.156 220.559 164.068 220.577 163.987 220.613L164.092 220.648ZM139.298 252.568C139.381 252.611 139.474 252.633 139.567 252.633C139.661 252.633 139.754 252.611 139.837 252.568L143.218 250.615C143.358 250.538 143.351 250.398 143.218 250.307L139.298 248.067C139.215 248.024 139.122 248.001 139.028 248.001C138.935 248.001 138.842 248.024 138.759 248.067L135.385 250.02C135.238 250.104 135.245 250.244 135.385 250.328L139.298 252.568ZM124.479 243.412L121.098 245.365C120.958 245.449 120.965 245.582 121.098 245.673L125.004 247.927C125.087 247.97 125.18 247.992 125.273 247.992C125.367 247.992 125.46 247.97 125.543 247.927L128.924 245.974C129.064 245.89 129.057 245.757 128.924 245.666L125.018 243.412C124.937 243.372 124.849 243.352 124.759 243.352C124.669 243.352 124.581 243.372 124.5 243.412H124.479ZM132.424 250.097C132.507 250.14 132.6 250.162 132.693 250.162C132.787 250.162 132.88 250.14 132.963 250.097L136.337 248.144C136.484 248.067 136.47 247.927 136.337 247.836L132.438 245.582C132.355 245.539 132.262 245.516 132.168 245.516C132.075 245.516 131.982 245.539 131.899 245.582L128.518 247.535C128.378 247.619 128.385 247.759 128.518 247.843L132.424 250.097ZM148.013 254.297L151.394 252.344C151.534 252.26 151.527 252.127 151.394 252.036L147.488 249.782C147.405 249.739 147.312 249.716 147.218 249.716C147.125 249.716 147.032 249.739 146.949 249.782L143.575 251.735C143.428 251.812 143.442 251.952 143.575 252.043L147.474 254.297C147.559 254.344 147.655 254.37 147.753 254.371C147.851 254.372 147.947 254.349 148.034 254.304L148.013 254.297ZM142.539 257.097C142.622 257.14 142.715 257.162 142.808 257.162C142.902 257.162 142.995 257.14 143.078 257.097L146.459 255.144C146.599 255.067 146.592 254.927 146.459 254.836L142.553 252.582C142.47 252.539 142.377 252.516 142.283 252.516C142.19 252.516 142.097 252.539 142.014 252.582L138.64 254.535C138.493 254.619 138.5 254.759 138.64 254.843L142.539 257.097ZM129.414 240.521L126.04 242.474C125.893 242.551 125.9 242.691 126.04 242.782L129.946 245.036C130.029 245.079 130.122 245.101 130.215 245.101C130.309 245.101 130.402 245.079 130.485 245.036L133.866 243.083C134.006 242.999 133.999 242.859 133.866 242.775L129.96 240.521C129.875 240.487 129.784 240.472 129.692 240.48C129.601 240.487 129.513 240.515 129.435 240.563L129.414 240.521ZM154.096 226.276L150.715 228.222C150.575 228.306 150.582 228.446 150.715 228.53L154.621 230.791C154.705 230.832 154.797 230.854 154.89 230.854C154.984 230.854 155.076 230.832 155.16 230.791L158.534 228.845C158.681 228.761 158.674 228.621 158.534 228.53L154.628 226.276C154.545 226.244 154.456 226.231 154.368 226.238C154.279 226.245 154.193 226.273 154.117 226.318L154.096 226.276ZM134.398 237.714L131.024 239.66C130.877 239.744 130.884 239.884 131.024 239.975L134.93 242.229C135.014 242.27 135.106 242.292 135.199 242.292C135.293 242.292 135.385 242.27 135.469 242.229L138.85 240.276C138.99 240.192 138.983 240.052 138.85 239.968L134.944 237.707C134.859 237.665 134.765 237.644 134.67 237.646C134.575 237.647 134.482 237.67 134.398 237.714ZM159.08 223.462L155.671 225.401C155.531 225.485 155.538 225.625 155.671 225.709L159.577 227.963C159.66 228.006 159.753 228.028 159.846 228.028C159.94 228.028 160.033 228.006 160.116 227.963L163.49 226.017C163.637 225.933 163.63 225.793 163.49 225.702L159.598 223.476C159.514 223.431 159.421 223.407 159.327 223.404C159.232 223.402 159.138 223.421 159.052 223.462H159.08ZM149.21 229.167L145.829 231.113C145.689 231.197 145.696 231.337 145.829 231.428L149.735 233.682C149.819 233.723 149.911 233.745 150.004 233.745C150.098 233.745 150.19 233.723 150.274 233.682L153.648 231.736C153.795 231.652 153.781 231.512 153.648 231.421L149.749 229.167C149.661 229.121 149.564 229.097 149.465 229.097C149.367 229.097 149.269 229.121 149.182 229.167H149.21ZM144.268 232.016L140.894 233.962C140.747 234.046 140.761 234.186 140.894 234.277L144.8 236.531C144.884 236.572 144.976 236.594 145.069 236.594C145.163 236.594 145.255 236.572 145.339 236.531L148.713 234.585C148.853 234.501 148.846 234.361 148.713 234.27L144.807 232.016C144.719 231.97 144.622 231.946 144.523 231.946C144.425 231.946 144.327 231.97 144.24 232.016H144.268ZM139.298 234.865L135.924 236.811C135.777 236.895 135.791 237.035 135.924 237.126L139.823 239.38C139.906 239.423 139.999 239.445 140.092 239.445C140.186 239.445 140.279 239.423 140.362 239.38L143.743 237.434C143.883 237.35 143.876 237.21 143.743 237.119L139.837 234.865C139.753 234.823 139.661 234.802 139.567 234.802C139.474 234.802 139.382 234.823 139.298 234.865ZM164.533 238.365L167.907 236.419C168.054 236.335 168.047 236.195 167.907 236.104L163.994 233.801C163.91 233.759 163.818 233.738 163.724 233.738C163.631 233.738 163.539 233.759 163.455 233.801L160.074 235.747C159.934 235.831 159.941 235.971 160.074 236.062L163.98 238.316C164.065 238.365 164.16 238.391 164.258 238.394C164.356 238.396 164.453 238.374 164.54 238.33L164.533 238.365ZM207.898 195.301L204.517 197.254C204.377 197.338 204.384 197.471 204.517 197.562L208.423 199.816C208.506 199.859 208.599 199.881 208.692 199.881C208.786 199.881 208.879 199.859 208.962 199.816L212.336 197.863C212.483 197.779 212.476 197.646 212.336 197.555L208.43 195.301C208.347 195.259 208.256 195.237 208.164 195.237C208.071 195.237 207.98 195.259 207.898 195.301ZM201.92 198.752L198.546 200.705C198.399 200.782 198.413 200.922 198.546 201.013L202.445 203.267C202.529 203.308 202.621 203.33 202.714 203.33C202.808 203.33 202.9 203.308 202.984 203.267L206.365 201.314C206.505 201.23 206.498 201.09 206.365 201.006L202.459 198.752C202.378 198.702 202.285 198.673 202.19 198.667C202.095 198.661 202 198.678 201.913 198.717L201.92 198.752ZM212.833 192.452L209.459 194.405C209.312 194.482 209.319 194.622 209.459 194.713L213.365 196.967C213.448 197.01 213.541 197.032 213.634 197.032C213.728 197.032 213.821 197.01 213.904 196.967L217.285 195.014C217.425 194.93 217.418 194.79 217.285 194.706L213.379 192.452C213.293 192.396 213.195 192.364 213.093 192.357C212.991 192.351 212.889 192.372 212.798 192.417L212.833 192.452ZM187.283 218.8L190.664 216.847C190.804 216.763 190.797 216.623 190.664 216.539L186.758 214.285C186.675 214.242 186.582 214.219 186.488 214.219C186.395 214.219 186.302 214.242 186.219 214.285L182.845 216.238C182.698 216.315 182.705 216.455 182.845 216.546L186.751 218.8C186.835 218.835 186.926 218.85 187.018 218.844C187.109 218.838 187.197 218.811 187.276 218.765L187.283 218.8ZM218.307 189.617C218.224 189.574 218.131 189.551 218.037 189.551C217.944 189.551 217.851 189.574 217.768 189.617L214.394 191.57C214.247 191.647 214.254 191.787 214.394 191.878L218.3 194.132C218.384 194.173 218.476 194.195 218.569 194.195C218.663 194.195 218.755 194.173 218.839 194.132L222.22 192.179C222.36 192.095 222.353 191.955 222.22 191.871L218.307 189.617ZM169.475 235.481L172.856 233.535C172.996 233.451 172.989 233.311 172.856 233.22L168.929 231.001C168.846 230.958 168.753 230.935 168.659 230.935C168.566 230.935 168.473 230.958 168.39 231.001L165.016 232.947C164.869 233.031 164.876 233.171 165.016 233.262L168.922 235.516C169.01 235.554 169.106 235.571 169.203 235.565C169.299 235.559 169.392 235.53 169.475 235.481ZM230.004 200.537L233.385 198.584C233.525 198.507 233.518 198.367 233.385 198.276L229.458 196.001C229.375 195.958 229.282 195.935 229.188 195.935C229.095 195.935 229.002 195.958 228.919 196.001L225.545 197.954C225.398 198.038 225.405 198.178 225.545 198.262L229.451 200.516C229.534 200.564 229.628 200.592 229.725 200.595C229.821 200.599 229.917 200.579 230.004 200.537ZM219.504 200.166L222.885 198.213C223.025 198.129 223.018 197.996 222.885 197.905L218.979 195.651C218.896 195.608 218.803 195.585 218.709 195.585C218.616 195.585 218.523 195.608 218.44 195.651L215.066 197.604C214.919 197.688 214.926 197.821 215.066 197.912L218.972 200.166C219.05 200.211 219.137 200.238 219.227 200.244C219.317 200.25 219.407 200.235 219.49 200.201L219.504 200.166ZM223.893 192.802C223.81 192.759 223.717 192.736 223.623 192.736C223.53 192.736 223.437 192.759 223.354 192.802L219.98 194.755C219.833 194.832 219.84 194.972 219.98 195.063L223.886 197.317C223.969 197.36 224.062 197.382 224.155 197.382C224.249 197.382 224.342 197.36 224.425 197.317L227.806 195.364C227.946 195.28 227.939 195.14 227.806 195.056L223.893 192.802ZM224.936 192.2L234.414 197.674C234.497 197.717 234.59 197.739 234.683 197.739C234.777 197.739 234.87 197.717 234.953 197.674L238.334 195.721C238.474 195.637 238.467 195.504 238.334 195.413L228.849 189.939C228.766 189.896 228.673 189.873 228.579 189.873C228.486 189.873 228.393 189.896 228.31 189.939L224.936 191.892C224.754 191.969 224.768 192.109 224.922 192.2H224.936ZM213.484 198.5L210.103 200.453C209.963 200.537 209.97 200.677 210.103 200.761L214.009 203.015C214.092 203.058 214.185 203.08 214.278 203.08C214.372 203.08 214.465 203.058 214.548 203.015L217.922 201.062C218.069 200.985 218.062 200.845 217.922 200.754L214.016 198.5C213.936 198.458 213.848 198.435 213.759 198.433C213.669 198.43 213.58 198.448 213.498 198.486L213.484 198.5ZM176.335 219.948L172.94 221.901C172.8 221.985 172.807 222.125 172.94 222.209L176.846 224.463C176.929 224.506 177.022 224.528 177.115 224.528C177.209 224.528 177.302 224.506 177.385 224.463L180.759 222.51C180.906 222.433 180.899 222.293 180.759 222.202L176.853 219.948C176.772 219.904 176.681 219.88 176.589 219.877C176.496 219.875 176.404 219.894 176.321 219.934L176.335 219.948ZM224.544 203.386C224.627 203.429 224.72 203.451 224.813 203.451C224.907 203.451 225 203.429 225.083 203.386L228.464 201.433C228.604 201.356 228.597 201.216 228.464 201.125L224.558 198.871C224.474 198.829 224.382 198.808 224.288 198.808C224.195 198.808 224.103 198.829 224.019 198.871L220.645 200.824C220.498 200.908 220.505 201.048 220.645 201.132L224.544 203.386ZM181.27 217.099L177.896 219.052C177.749 219.136 177.756 219.269 177.896 219.36L181.802 221.614C181.885 221.657 181.978 221.679 182.071 221.679C182.165 221.679 182.258 221.657 182.341 221.614L185.722 219.661C185.862 219.577 185.855 219.444 185.722 219.353L181.816 217.099C181.731 217.05 181.635 217.023 181.538 217.021C181.44 217.018 181.343 217.04 181.256 217.085L181.27 217.099ZM144.268 249.733C144.351 249.776 144.444 249.798 144.537 249.798C144.631 249.798 144.724 249.776 144.807 249.733L148.188 247.78C148.328 247.696 148.321 247.563 148.188 247.472L144.282 245.218C144.199 245.175 144.106 245.152 144.012 245.152C143.919 245.152 143.826 245.175 143.743 245.218L140.369 247.171C140.222 247.255 140.236 247.388 140.369 247.479L144.268 249.733ZM136.848 242.733L133.467 244.686C133.327 244.77 133.334 244.903 133.467 244.994L137.373 247.248C137.456 247.291 137.549 247.313 137.642 247.313C137.736 247.313 137.829 247.291 137.912 247.248L141.286 245.295C141.433 245.211 141.426 245.078 141.286 244.987L137.38 242.733C137.296 242.689 137.202 242.666 137.107 242.666C137.012 242.666 136.918 242.689 136.834 242.733H136.848ZM149.749 246.884L153.123 244.931C153.263 244.847 153.256 244.707 153.123 244.623L149.217 242.369C149.134 242.326 149.041 242.303 148.947 242.303C148.854 242.303 148.761 242.326 148.678 242.369L145.269 244.301C145.129 244.378 145.136 244.518 145.269 244.609L149.175 246.863C149.259 246.913 149.354 246.941 149.452 246.944C149.55 246.948 149.647 246.927 149.735 246.884H149.749ZM154.684 244.035L158.058 242.082C158.205 241.998 158.191 241.858 158.058 241.774L154.159 239.52C154.076 239.477 153.983 239.454 153.889 239.454C153.796 239.454 153.703 239.477 153.62 239.52L150.239 241.466C150.099 241.55 150.106 241.69 150.239 241.781L154.145 244.035C154.231 244.078 154.325 244.101 154.421 244.101C154.518 244.101 154.612 244.078 154.698 244.035H154.684ZM159.584 241.179L162.958 239.233C163.105 239.149 163.098 239.009 162.958 238.925L159.052 236.664C158.968 236.622 158.876 236.601 158.782 236.601C158.689 236.601 158.597 236.622 158.513 236.664L155.132 238.61C154.992 238.694 154.999 238.834 155.132 238.925L159.038 241.179C159.124 241.225 159.22 241.25 159.318 241.25C159.416 241.25 159.512 241.225 159.598 241.179H159.584ZM141.748 239.884L138.367 241.837C138.227 241.914 138.234 242.054 138.367 242.145L142.273 244.399C142.356 244.442 142.449 244.464 142.542 244.464C142.636 244.464 142.729 244.442 142.812 244.399L146.193 242.446C146.333 242.362 146.326 242.222 146.193 242.138L142.287 239.884C142.206 239.844 142.118 239.824 142.028 239.824C141.938 239.824 141.85 239.844 141.769 239.884H141.748ZM146.683 237.035L143.309 238.981C143.162 239.065 143.169 239.205 143.309 239.296L147.215 241.55C147.299 241.591 147.391 241.613 147.484 241.613C147.578 241.613 147.67 241.591 147.754 241.55L151.198 239.611C151.338 239.527 151.331 239.387 151.198 239.303L147.292 237.049C147.204 236.995 147.103 236.965 147 236.963C146.897 236.961 146.795 236.985 146.704 237.035H146.683ZM166.43 225.639L163.098 227.585C162.958 227.669 162.965 227.809 163.098 227.9L167.004 230.154C167.088 230.195 167.18 230.217 167.273 230.217C167.367 230.217 167.459 230.195 167.543 230.154L170.917 228.208C171.064 228.124 171.05 227.984 170.917 227.893L167.018 225.639C166.931 225.591 166.834 225.566 166.734 225.566C166.635 225.566 166.538 225.591 166.451 225.639H166.43ZM161.488 228.488L158.114 230.434C157.974 230.518 157.981 230.658 158.114 230.749L162.02 233.003C162.104 233.044 162.196 233.066 162.289 233.066C162.383 233.066 162.475 233.044 162.559 233.003L165.933 231.057C166.08 230.973 166.066 230.833 165.933 230.742L162.027 228.488C161.946 228.45 161.857 228.43 161.768 228.43C161.678 228.43 161.59 228.45 161.509 228.488H161.488ZM171.365 222.783L167.998 224.736C167.858 224.82 167.865 224.96 167.998 225.044L171.904 227.305C171.988 227.346 172.08 227.368 172.173 227.368C172.267 227.368 172.359 227.346 172.443 227.305L175.817 225.352C175.964 225.275 175.957 225.135 175.817 225.044L171.911 222.79C171.829 222.75 171.74 222.728 171.649 222.727C171.558 222.726 171.468 222.745 171.386 222.783H171.365ZM151.618 234.186L148.244 236.132C148.097 236.216 148.104 236.356 148.244 236.447L152.15 238.701C152.234 238.742 152.326 238.764 152.419 238.764C152.513 238.764 152.605 238.742 152.689 238.701L156.07 236.748C156.21 236.664 156.203 236.524 156.07 236.44L152.164 234.179C152.081 234.141 151.991 234.122 151.901 234.123C151.81 234.124 151.72 234.146 151.639 234.186H151.618ZM156.553 231.337L153.179 233.283C153.032 233.367 153.046 233.507 153.179 233.598L157.085 235.852C157.167 235.895 157.258 235.917 157.351 235.917C157.444 235.917 157.535 235.895 157.617 235.852L160.998 233.906C161.138 233.822 161.131 233.682 160.998 233.591L157.092 231.337C157.011 231.299 156.922 231.279 156.833 231.279C156.743 231.279 156.655 231.299 156.574 231.337H156.553ZM152.955 251.455L156.329 249.502C156.469 249.418 156.462 249.278 156.329 249.194L152.423 246.94C152.34 246.897 152.247 246.874 152.153 246.874C152.06 246.874 151.967 246.897 151.884 246.94L148.51 248.893C148.363 248.97 148.377 249.11 148.51 249.201L152.416 251.455C152.502 251.501 152.598 251.526 152.696 251.526C152.794 251.526 152.89 251.501 152.976 251.455H152.955ZM124.01 248.501L120.104 246.247C120.021 246.204 119.928 246.181 119.834 246.181C119.741 246.181 119.648 246.204 119.565 246.247L116.198 248.214C116.058 248.298 116.065 248.431 116.198 248.522L120.104 250.776C120.187 250.819 120.28 250.841 120.373 250.841C120.467 250.841 120.56 250.819 120.643 250.776L124.017 248.823C124.171 248.76 124.164 248.62 124.01 248.501ZM131.402 250.671L127.496 248.417C127.413 248.376 127.322 248.354 127.23 248.354C127.138 248.354 127.046 248.376 126.964 248.417L121.798 251.434C121.658 251.518 121.665 251.658 121.798 251.742L125.704 253.996C125.787 254.039 125.88 254.061 125.973 254.061C126.067 254.061 126.16 254.039 126.243 253.996L131.437 251C131.598 250.93 131.556 250.79 131.402 250.699V250.671ZM118.018 244.14L114.098 241.914C114.015 241.871 113.922 241.848 113.828 241.848C113.735 241.848 113.642 241.871 113.559 241.914L109.415 244.301C109.275 244.385 109.282 244.525 109.415 244.616L113.321 246.87C113.404 246.913 113.497 246.935 113.59 246.935C113.684 246.935 113.777 246.913 113.86 246.87L118.011 244.476C118.179 244.399 118.172 244.259 118.018 244.168V244.14ZM121.203 242.299C121.286 242.342 121.379 242.364 121.472 242.364C121.566 242.364 121.659 242.342 121.742 242.299L125.116 240.346C125.263 240.269 125.256 240.129 125.116 240.038L121.21 237.784C121.127 237.741 121.034 237.718 120.94 237.718C120.847 237.718 120.754 237.741 120.671 237.784L117.29 239.737C117.15 239.821 117.157 239.961 117.29 240.045L121.203 242.299ZM138.283 253.142L134.398 250.916C134.314 250.874 134.222 250.853 134.128 250.853C134.035 250.853 133.943 250.874 133.859 250.916L127.363 254.668C127.223 254.752 127.23 254.892 127.363 254.976L131.269 257.237C131.353 257.278 131.445 257.3 131.538 257.3C131.632 257.3 131.724 257.278 131.808 257.237L138.304 253.485C138.444 253.401 138.437 253.261 138.283 253.17V253.142ZM141.524 257.713L137.618 255.501C137.535 255.458 137.442 255.435 137.348 255.435C137.255 255.435 137.162 255.458 137.079 255.501L132.921 257.902C132.781 257.986 132.788 258.126 132.921 258.217L136.827 260.471C136.911 260.512 137.003 260.534 137.096 260.534C137.19 260.534 137.282 260.512 137.366 260.471L141.524 258.07C141.685 257.972 141.678 257.832 141.524 257.741V257.713ZM157.904 221.11C157.987 221.153 158.08 221.175 158.173 221.175C158.267 221.175 158.36 221.153 158.443 221.11L161.817 219.164C161.964 219.08 161.95 218.94 161.817 218.849L157.911 216.595C157.827 216.553 157.735 216.532 157.641 216.532C157.548 216.532 157.456 216.553 157.372 216.595L153.998 218.576C153.858 218.66 153.865 218.8 153.998 218.884L157.904 221.11ZM148.027 226.815C148.111 226.856 148.203 226.878 148.296 226.878C148.39 226.878 148.482 226.856 148.566 226.815L151.947 224.869C152.087 224.785 152.08 224.645 151.947 224.554L148.041 222.3C147.957 222.258 147.865 222.237 147.771 222.237C147.678 222.237 147.586 222.258 147.502 222.3L144.128 224.246C143.981 224.33 143.995 224.47 144.128 224.561L148.027 226.815ZM126.138 239.478C126.221 239.521 126.314 239.543 126.407 239.543C126.501 239.543 126.594 239.521 126.677 239.478L130.051 237.525C130.198 237.441 130.191 237.308 130.051 237.217L126.145 234.963C126.062 234.92 125.969 234.897 125.875 234.897C125.782 234.897 125.689 234.92 125.606 234.963L122.225 236.916C122.085 237 122.092 237.133 122.225 237.224L126.138 239.478ZM152.969 224.001C153.051 224.042 153.143 224.064 153.235 224.064C153.327 224.064 153.418 224.042 153.501 224.001L156.882 222.055C157.022 221.971 157.015 221.831 156.882 221.74L152.976 219.486C152.893 219.443 152.8 219.42 152.706 219.42C152.613 219.42 152.52 219.443 152.437 219.486L149.063 221.432C148.916 221.516 148.93 221.656 149.063 221.747L152.969 224.001ZM143.092 229.699C143.175 229.742 143.268 229.764 143.361 229.764C143.455 229.764 143.548 229.742 143.631 229.699L147.012 227.753C147.152 227.669 147.145 227.529 147.012 227.438L143.106 225.184C143.022 225.142 142.93 225.121 142.836 225.121C142.743 225.121 142.651 225.142 142.567 225.184L139.193 227.13C139.046 227.214 139.053 227.354 139.193 227.445L143.092 229.699ZM144.233 258.112C144.149 258.07 144.057 258.049 143.963 258.049C143.87 258.049 143.778 258.07 143.694 258.112L138.5 261.101C138.36 261.185 138.367 261.325 138.5 261.416L142.406 263.67C142.489 263.713 142.582 263.735 142.675 263.735C142.769 263.735 142.862 263.713 142.945 263.67L148.139 260.674C148.286 260.59 148.272 260.45 148.139 260.359L144.233 258.112ZM136.008 233.801C136.092 233.842 136.184 233.864 136.277 233.864C136.371 233.864 136.463 233.842 136.547 233.801L139.928 231.848C140.068 231.764 140.061 231.624 139.928 231.54L136.022 229.286C135.939 229.243 135.846 229.22 135.752 229.22C135.659 229.22 135.566 229.243 135.483 229.286L132.109 231.239C131.962 231.316 131.969 231.456 132.109 231.547L136.008 233.801ZM131.073 236.601C131.156 236.644 131.249 236.666 131.342 236.666C131.436 236.666 131.529 236.644 131.612 236.601L134.993 234.648C135.133 234.564 135.126 234.424 134.993 234.34L131.087 232.086C131.004 232.043 130.911 232.02 130.817 232.02C130.724 232.02 130.631 232.043 130.548 232.086L127.174 234.039C127.027 234.116 127.034 234.256 127.174 234.347L131.073 236.601ZM235.681 205.311C235.598 205.268 235.505 205.245 235.411 205.245C235.318 205.245 235.225 205.268 235.142 205.311L226.798 210.099C226.658 210.183 226.665 210.323 226.798 210.414L230.704 212.668C230.788 212.709 230.88 212.731 230.973 212.731C231.067 212.731 231.159 212.709 231.243 212.668L239.601 207.901C239.748 207.817 239.741 207.677 239.601 207.586L235.681 205.311ZM224.768 211.611C224.685 211.568 224.592 211.545 224.498 211.545C224.405 211.545 224.312 211.568 224.229 211.611L220.855 213.557C220.708 213.641 220.715 213.781 220.855 213.872L224.761 216.126C224.845 216.167 224.937 216.189 225.03 216.189C225.124 216.189 225.216 216.167 225.3 216.126L228.681 214.18C228.821 214.096 228.814 213.956 228.681 213.865L224.768 211.611ZM157.911 248.606L161.285 246.653C161.432 246.569 161.418 246.429 161.285 246.345L157.386 244.084C157.302 244.042 157.21 244.021 157.116 244.021C157.023 244.021 156.931 244.042 156.847 244.084L153.466 246.03C153.326 246.114 153.333 246.254 153.466 246.345L157.372 248.599C157.455 248.641 157.547 248.664 157.641 248.665C157.734 248.666 157.827 248.646 157.911 248.606ZM214.898 217.309C214.814 217.267 214.722 217.246 214.628 217.246C214.535 217.246 214.443 217.267 214.359 217.309L210.978 219.255C210.838 219.339 210.845 219.479 210.978 219.57L214.884 221.824C214.967 221.867 215.06 221.889 215.153 221.889C215.247 221.889 215.34 221.867 215.423 221.824L218.797 219.878C218.944 219.794 218.937 219.654 218.797 219.563L214.898 217.309ZM240.616 202.462C240.532 202.42 240.44 202.399 240.346 202.399C240.253 202.399 240.161 202.42 240.077 202.462L236.703 204.401C236.556 204.485 236.563 204.625 236.703 204.709L240.609 206.97C240.693 207.011 240.785 207.033 240.878 207.033C240.972 207.033 241.064 207.011 241.148 206.97L244.529 205.024C244.669 204.94 244.662 204.8 244.529 204.709L240.616 202.462ZM249.457 201.867L239.972 196.393C239.889 196.35 239.796 196.327 239.702 196.327C239.609 196.327 239.516 196.35 239.433 196.393L236.059 198.346C235.912 198.43 235.919 198.57 236.059 198.654L245.544 204.128C245.627 204.171 245.72 204.193 245.813 204.193C245.907 204.193 246 204.171 246.083 204.128L249.464 202.175C249.618 202.098 249.611 201.958 249.457 201.867ZM196.453 227.963C196.37 227.92 196.277 227.897 196.183 227.897C196.09 227.897 195.997 227.92 195.914 227.963L191.756 230.364C191.616 230.448 191.623 230.588 191.756 230.672L195.662 232.926C195.745 232.969 195.838 232.991 195.931 232.991C196.025 232.991 196.118 232.969 196.201 232.926L200.359 230.525C200.499 230.441 200.492 230.301 200.359 230.217L196.453 227.963ZM208.92 220.76C208.837 220.717 208.744 220.694 208.65 220.694C208.557 220.694 208.464 220.717 208.381 220.76L203.187 223.756C203.047 223.84 203.054 223.98 203.187 224.064L207.093 226.325C207.177 226.366 207.269 226.388 207.362 226.388C207.456 226.388 207.548 226.366 207.632 226.325L212.826 223.329C212.966 223.245 212.959 223.105 212.826 223.014L208.92 220.76ZM185.022 234.557C184.938 234.515 184.846 234.494 184.752 234.494C184.659 234.494 184.567 234.515 184.483 234.557L156.686 250.601C156.546 250.685 156.553 250.825 156.686 250.916L160.592 253.17C160.676 253.211 160.768 253.233 160.861 253.233C160.955 253.233 161.047 253.211 161.131 253.17L188.928 237.119C189.068 237.035 189.061 236.895 188.928 236.804L185.022 234.557ZM155.664 251.511C155.581 251.468 155.488 251.445 155.394 251.445C155.301 251.445 155.208 251.468 155.125 251.511L150.974 253.912C150.827 253.996 150.834 254.136 150.974 254.22L154.88 256.474C154.963 256.517 155.056 256.539 155.149 256.539C155.243 256.539 155.336 256.517 155.419 256.474L159.598 254.101C159.738 254.017 159.731 253.877 159.598 253.793L155.664 251.511ZM190.734 231.26C190.65 231.218 190.558 231.197 190.464 231.197C190.371 231.197 190.279 231.218 190.195 231.26L186.044 233.661C185.897 233.745 185.904 233.885 186.044 233.976L189.95 236.23C190.034 236.271 190.126 236.293 190.219 236.293C190.313 236.293 190.405 236.271 190.489 236.23L194.647 233.829C194.794 233.752 194.78 233.612 194.647 233.521L190.734 231.26ZM149.952 254.801C149.868 254.759 149.776 254.738 149.682 254.738C149.589 254.738 149.497 254.759 149.413 254.801L145.255 257.202C145.115 257.286 145.122 257.426 145.255 257.517L149.161 259.771C149.245 259.812 149.337 259.834 149.43 259.834C149.524 259.834 149.616 259.812 149.7 259.771L153.851 257.377C153.998 257.293 153.991 257.153 153.851 257.062L149.952 254.801ZM202.165 224.652C202.081 224.61 201.989 224.589 201.895 224.589C201.802 224.589 201.71 224.61 201.626 224.652L197.475 227.046C197.328 227.13 197.335 227.27 197.475 227.361L201.381 229.615C201.465 229.656 201.557 229.678 201.65 229.678C201.744 229.678 201.836 229.656 201.92 229.615L206.078 227.214C206.225 227.13 206.211 226.99 206.078 226.899L202.165 224.652ZM219.833 214.453C219.75 214.41 219.657 214.387 219.563 214.387C219.47 214.387 219.377 214.41 219.294 214.453L215.92 216.399C215.773 216.483 215.78 216.623 215.92 216.714L219.826 218.968C219.91 219.009 220.002 219.031 220.095 219.031C220.189 219.031 220.281 219.009 220.365 218.968L223.746 217.022C223.886 216.938 223.879 216.798 223.746 216.707L219.833 214.453ZM230.648 206.599L234.022 204.653C234.169 204.569 234.162 204.429 234.022 204.338L230.116 202.084C230.032 202.042 229.94 202.021 229.846 202.021C229.753 202.021 229.661 202.042 229.577 202.084L226.196 204.037C226.056 204.121 226.063 204.261 226.196 204.345L230.102 206.606C230.187 206.648 230.28 206.67 230.375 206.67C230.47 206.67 230.563 206.648 230.648 206.606V206.599ZM208.598 206.501L211.979 204.548C212.119 204.464 212.112 204.324 211.979 204.24L208.073 201.986C207.99 201.943 207.897 201.92 207.803 201.92C207.71 201.92 207.617 201.943 207.534 201.986L204.16 203.939C204.013 204.023 204.027 204.156 204.16 204.247L208.059 206.501C208.142 206.544 208.235 206.566 208.328 206.566C208.422 206.566 208.515 206.544 208.598 206.501ZM197.398 225.842L207.268 220.144C207.408 220.06 207.401 219.92 207.268 219.829L203.362 217.575C203.278 217.533 203.186 217.512 203.092 217.512C202.999 217.512 202.907 217.533 202.823 217.575L192.953 223.28C192.813 223.357 192.82 223.497 192.953 223.588L196.859 225.842C196.945 225.879 197.039 225.896 197.133 225.89C197.226 225.884 197.317 225.855 197.398 225.807V225.842ZM225.174 209.483C225.258 209.524 225.35 209.546 225.443 209.546C225.537 209.546 225.629 209.524 225.713 209.483L229.087 207.537C229.234 207.453 229.227 207.313 229.087 207.222L225.181 204.968C225.098 204.925 225.005 204.902 224.911 204.902C224.818 204.902 224.725 204.925 224.642 204.968L221.261 206.914C221.121 206.998 221.128 207.138 221.261 207.229L225.174 209.483ZM220.134 206.27L223.508 204.324C223.655 204.24 223.648 204.1 223.508 204.009L219.602 201.755C219.518 201.713 219.426 201.692 219.332 201.692C219.239 201.692 219.147 201.713 219.063 201.755L215.682 203.708C215.542 203.792 215.549 203.932 215.682 204.016L219.588 206.277C219.676 206.313 219.771 206.328 219.866 206.321C219.961 206.313 220.052 206.284 220.134 206.235V206.27ZM192.463 228.67L195.837 226.717C195.984 226.633 195.97 226.5 195.837 226.409L191.931 224.155C191.848 224.112 191.755 224.089 191.661 224.089C191.568 224.089 191.475 224.112 191.392 224.155L187.997 226.101C187.85 226.185 187.864 226.318 187.997 226.409L191.903 228.663C191.994 228.715 192.097 228.741 192.201 228.74C192.306 228.739 192.408 228.71 192.498 228.656L192.463 228.67ZM214.261 215.762C214.345 215.803 214.437 215.825 214.53 215.825C214.624 215.825 214.716 215.803 214.8 215.762L218.181 213.816C218.321 213.732 218.314 213.592 218.181 213.501L214.275 211.247C214.191 211.205 214.099 211.184 214.005 211.184C213.912 211.184 213.82 211.205 213.736 211.247L210.362 213.2C210.215 213.284 210.222 213.424 210.362 213.508L214.261 215.762ZM167.781 242.901L171.155 240.955C171.302 240.871 171.295 240.731 171.155 240.64L167.249 238.386C167.165 238.344 167.073 238.323 166.979 238.323C166.886 238.323 166.794 238.344 166.71 238.386L163.329 240.332C163.189 240.416 163.196 240.556 163.329 240.647L167.235 242.901C167.32 242.943 167.413 242.965 167.508 242.965C167.603 242.965 167.696 242.943 167.781 242.901ZM172.716 240.052L176.097 238.106C176.237 238.022 176.23 237.882 176.097 237.791L172.198 235.537C172.115 235.494 172.022 235.471 171.928 235.471C171.835 235.471 171.742 235.494 171.659 235.537L168.278 237.483C168.138 237.567 168.145 237.707 168.278 237.798L172.184 240.052C172.267 240.092 172.358 240.113 172.45 240.113C172.542 240.113 172.633 240.092 172.716 240.052ZM162.846 245.75L166.22 243.804C166.367 243.72 166.36 243.58 166.22 243.489L162.321 241.235C162.237 241.193 162.145 241.172 162.051 241.172C161.958 241.172 161.866 241.193 161.782 241.235L158.401 243.181C158.261 243.265 158.268 243.405 158.401 243.496L162.307 245.75C162.39 245.793 162.483 245.815 162.576 245.815C162.67 245.815 162.763 245.793 162.846 245.75ZM182.586 234.354L185.967 232.408C186.107 232.324 186.1 232.184 185.967 232.093L182.061 229.839C181.977 229.797 181.885 229.776 181.791 229.776C181.698 229.776 181.606 229.797 181.522 229.839L178.148 231.792C178.001 231.876 178.008 232.016 178.148 232.1L182.054 234.354C182.136 234.396 182.227 234.417 182.32 234.417C182.412 234.417 182.503 234.396 182.586 234.354ZM177.686 237.203L181.067 235.257C181.207 235.173 181.2 235.033 181.067 234.942L177.098 232.688C177.015 232.645 176.922 232.622 176.828 232.622C176.735 232.622 176.642 232.645 176.559 232.688L173.185 234.634C173.038 234.718 173.045 234.858 173.185 234.942L177.091 237.203C177.177 237.248 177.273 237.271 177.371 237.271C177.468 237.271 177.564 237.248 177.651 237.203H177.686ZM187.556 231.505L190.937 229.552C191.077 229.475 191.07 229.335 190.937 229.244L187.031 226.99C186.948 226.947 186.855 226.924 186.761 226.924C186.668 226.924 186.575 226.947 186.492 226.99L183.062 228.901C182.915 228.985 182.929 229.125 183.062 229.209L186.961 231.463C187.043 231.516 187.138 231.548 187.236 231.555C187.333 231.562 187.431 231.545 187.521 231.505H187.556ZM210.138 189.344C210.221 189.387 210.314 189.409 210.407 189.409C210.501 189.409 210.594 189.387 210.677 189.344L214.058 187.391C214.198 187.314 214.191 187.174 214.058 187.083L213.022 186.481C212.938 186.439 212.846 186.418 212.752 186.418C212.659 186.418 212.567 186.439 212.483 186.481L209.102 188.427C208.962 188.511 208.969 188.651 209.102 188.742L210.138 189.344ZM185.855 205.024C185.938 205.067 186.031 205.089 186.124 205.089C186.218 205.089 186.311 205.067 186.394 205.024L189.768 203.078C189.915 202.994 189.908 202.854 189.768 202.763L185.862 200.509C185.778 200.467 185.686 200.446 185.592 200.446C185.499 200.446 185.407 200.467 185.323 200.509L181.942 202.455C181.802 202.539 181.809 202.679 181.942 202.77L185.855 205.024ZM195.725 199.326C195.809 199.367 195.901 199.389 195.994 199.389C196.088 199.389 196.18 199.367 196.264 199.326L199.645 197.38C199.785 197.296 199.778 197.156 199.645 197.065L195.739 194.811C195.656 194.768 195.563 194.745 195.469 194.745C195.376 194.745 195.283 194.768 195.2 194.811L191.798 196.757C191.651 196.841 191.658 196.981 191.798 197.072L195.725 199.326ZM179.828 208.503C179.912 208.544 180.004 208.566 180.097 208.566C180.191 208.566 180.283 208.544 180.367 208.503L183.741 206.55C183.888 206.466 183.881 206.326 183.741 206.242L179.835 203.981C179.751 203.939 179.659 203.918 179.565 203.918C179.472 203.918 179.38 203.939 179.296 203.981L175.915 205.927C175.775 206.011 175.782 206.151 175.915 206.242L179.828 208.503ZM190.79 202.203C190.874 202.244 190.966 202.266 191.059 202.266C191.153 202.266 191.245 202.244 191.329 202.203L194.71 200.257C194.85 200.173 194.843 200.033 194.71 199.942L190.804 197.688C190.72 197.646 190.628 197.625 190.534 197.625C190.441 197.625 190.349 197.646 190.265 197.688L186.891 199.634C186.744 199.718 186.751 199.858 186.891 199.949L190.79 202.203ZM169.923 214.201C170.006 214.244 170.099 214.266 170.192 214.266C170.286 214.266 170.379 214.244 170.462 214.201L173.836 212.248C173.983 212.164 173.969 212.024 173.836 211.94L169.937 209.686C169.854 209.643 169.761 209.62 169.667 209.62C169.574 209.62 169.481 209.643 169.398 209.686L166.017 211.639C165.877 211.716 165.884 211.856 166.017 211.947L169.923 214.201ZM174.858 211.352C174.942 211.393 175.034 211.415 175.127 211.415C175.221 211.415 175.313 211.393 175.397 211.352L178.771 209.399C178.918 209.315 178.911 209.175 178.771 209.091L174.872 206.837C174.789 206.794 174.696 206.771 174.602 206.771C174.509 206.771 174.416 206.794 174.333 206.837L170.952 208.79C170.812 208.867 170.819 209.007 170.952 209.098L174.858 211.352ZM200.233 195.049C200.317 195.09 200.409 195.112 200.502 195.112C200.596 195.112 200.688 195.09 200.772 195.049L204.153 193.103C204.293 193.019 204.286 192.879 204.153 192.788L203.11 192.186C203.026 192.144 202.934 192.123 202.84 192.123C202.747 192.123 202.655 192.144 202.571 192.186L199.197 194.132C199.05 194.216 199.064 194.356 199.197 194.447L200.233 195.049ZM215.045 186.495C215.127 186.538 215.218 186.56 215.311 186.56C215.404 186.56 215.495 186.538 215.577 186.495L218.958 184.542C219.098 184.458 219.091 184.325 218.958 184.234L217.922 183.632C217.839 183.589 217.746 183.566 217.652 183.566C217.559 183.566 217.466 183.589 217.383 183.632L214.002 185.578C213.862 185.662 213.869 185.802 214.002 185.893L215.045 186.495ZM223.242 191.234C223.326 191.275 223.418 191.297 223.511 191.297C223.605 191.297 223.697 191.275 223.781 191.234L227.162 189.281C227.302 189.197 227.295 189.057 227.162 188.973L223.256 186.712C223.172 186.67 223.08 186.649 222.986 186.649C222.893 186.649 222.801 186.67 222.717 186.712L219.343 188.658C219.196 188.742 219.21 188.882 219.343 188.973L223.242 191.234ZM235.583 203.757L238.964 201.804C239.104 201.727 239.097 201.587 238.964 201.496L235.058 199.242C234.974 199.2 234.882 199.179 234.788 199.179C234.695 199.179 234.603 199.2 234.519 199.242L231.145 201.195C230.998 201.279 231.005 201.419 231.145 201.503L235.051 203.757C235.133 203.799 235.224 203.82 235.317 203.82C235.409 203.82 235.5 203.799 235.583 203.757ZM205.168 192.2C205.252 192.241 205.344 192.263 205.437 192.263C205.531 192.263 205.623 192.241 205.707 192.2L209.088 190.254C209.228 190.17 209.221 190.03 209.088 189.939L208.045 189.337C207.961 189.295 207.869 189.274 207.775 189.274C207.682 189.274 207.59 189.295 207.506 189.337L204.132 191.283C203.992 191.367 203.999 191.507 204.132 191.598L205.168 192.2ZM164.988 217.05C165.071 217.093 165.164 217.115 165.257 217.115C165.351 217.115 165.444 217.093 165.527 217.05L168.901 215.097C169.041 215.013 169.034 214.88 168.901 214.789L164.995 212.535C164.912 212.492 164.819 212.469 164.725 212.469C164.632 212.469 164.539 212.492 164.456 212.535L161.082 214.488C160.942 214.572 160.949 214.705 161.082 214.796L164.988 217.05Z" fill="#455A64"/>
<path d="M185.059 247.732L222.019 226.389L244.769 239.521L207.802 260.864L185.059 247.732Z" fill="#263238"/>
<path d="M102.899 140.181L213.051 76.5861C215.2 75.3401 216.964 76.3621 216.964 78.8471V164.156C216.929 164.787 216.746 165.401 216.429 165.948C216.113 166.495 215.673 166.96 215.144 167.306L102.199 232.518C101.198 233.092 100.379 232.623 100.379 231.468V144.542C100.429 143.669 100.683 142.82 101.121 142.062C101.559 141.305 102.167 140.661 102.899 140.181Z" fill="#F5F5F5"/>
<path d="M216.999 80.89V78.846C216.999 76.361 215.235 75.346 213.086 76.585L102.899 140.18C102.167 140.66 101.559 141.304 101.121 142.061C100.683 142.819 100.429 143.668 100.379 144.541V148.202L216.999 80.89Z" fill="#407BFF"/>
<path d="M200.562 85.5452C200.169 85.8012 199.841 86.1463 199.607 86.5525C199.372 86.9588 199.236 87.4147 199.211 87.8832C199.211 88.7442 199.813 89.0942 200.562 88.6602C200.954 88.405 201.28 88.0609 201.513 87.6558C201.747 87.2507 201.881 86.7962 201.906 86.3292C201.906 85.4682 201.304 85.1182 200.562 85.5452Z" fill="white"/>
<path d="M205.91 82.4599C205.518 82.7166 205.193 83.0621 204.959 83.4683C204.726 83.8745 204.591 84.33 204.566 84.7979C204.566 85.6589 205.168 86.0019 205.91 85.5749C206.304 85.3189 206.631 84.9738 206.866 84.5676C207.1 84.1613 207.236 83.7054 207.261 83.2369C207.261 82.3759 206.659 82.0259 205.91 82.4599Z" fill="white"/>
<path d="M211.265 79.3655C210.873 79.6227 210.547 79.9681 210.312 80.3741C210.077 80.7801 209.941 81.2354 209.914 81.7035C209.914 82.5645 210.523 82.9145 211.265 82.4805C211.658 82.2257 211.985 81.8818 212.22 81.4767C212.454 81.0717 212.59 80.617 212.616 80.1495C212.616 79.2885 212.007 78.9385 211.265 79.3655Z" fill="white"/>
<path d="M127.583 189.971L123.297 187.496L112.8 205.677L117.086 208.151L127.583 189.971Z" fill="#37474F"/>
<path d="M127.589 189.966L125.449 188.73L114.953 206.911L117.093 208.146L127.589 189.966Z" fill="#263238"/>
<path d="M101.291 241.179C99.338 244.574 90.091 239.184 92.037 235.838L116.152 198.227C116.217 198.125 116.319 198.052 116.436 198.023C116.553 197.994 116.677 198.012 116.782 198.073L121.626 200.873C121.73 200.932 121.808 201.029 121.842 201.144C121.875 201.259 121.863 201.382 121.808 201.489L101.291 241.179Z" fill="#407BFF"/>
<path opacity="0.1" d="M101.292 241.178L121.802 201.488C121.858 201.381 121.87 201.258 121.836 201.143C121.802 201.028 121.725 200.931 121.62 200.872L119.415 199.598L95.9023 241.395C98.0443 242.452 100.41 242.711 101.292 241.178Z" fill="black"/>
<path d="M172.202 152.636C172.202 152.349 172.202 152.069 172.16 151.789C172.118 151.509 172.16 151.236 172.097 150.963C172.034 150.69 172.097 150.599 172.041 150.417C171.992 149.941 171.922 149.472 171.845 149.017C171.81 148.814 171.775 148.604 171.733 148.401C171.691 148.198 171.656 148.016 171.614 147.827C171.495 147.309 171.369 146.805 171.222 146.322C171.145 146.091 171.075 145.86 170.998 145.622C170.983 145.588 170.971 145.553 170.963 145.517C170.879 145.293 170.802 145.076 170.718 144.866C170.634 144.656 170.522 144.376 170.41 144.166C170.298 143.956 170.256 143.823 170.165 143.655C170.114 143.529 170.053 143.407 169.983 143.291C169.913 143.144 169.836 142.997 169.752 142.857C169.668 142.717 169.717 142.787 169.696 142.759C169.675 142.731 169.549 142.507 169.472 142.381C169.395 142.255 169.367 142.22 169.318 142.143C168.959 141.578 168.557 141.042 168.114 140.54L167.89 140.288L167.701 140.092C167.624 140.008 167.54 139.931 167.456 139.847C167.236 139.616 167.002 139.398 166.756 139.196C166.637 139.091 166.511 138.993 166.385 138.902L166 138.622C165.8 138.475 165.592 138.339 165.377 138.216L165.209 138.111H165.174L155.255 132.385L155.199 132.35C153.296 131.288 151.148 130.745 148.969 130.775C145.721 130.775 142.053 131.839 138.168 134.079C124.826 141.779 114.004 160.525 114.004 175.939C114.004 183.639 116.692 189.029 121.039 191.563H121.081L131.007 197.282H131.049L131.168 197.345C131.354 197.455 131.546 197.555 131.742 197.646C131.98 197.765 132.225 197.87 132.442 197.968C132.659 198.066 132.883 198.143 133.107 198.213L133.464 198.318C133.589 198.365 133.718 198.403 133.849 198.43C133.978 198.469 134.109 198.501 134.241 198.528C134.335 198.555 134.431 198.576 134.528 198.591C134.696 198.626 134.878 198.661 135.053 198.682C135.092 198.688 135.133 198.688 135.172 198.682C135.382 198.719 135.592 198.747 135.802 198.766C139.4 199.144 143.586 198.129 148.066 195.546C161.415 187.846 172.237 169.093 172.237 153.686C172.202 153.364 172.202 153 172.202 152.636ZM156.011 141.737C156.535 143.652 156.792 145.631 156.774 147.617C156.774 161.211 146.827 178.417 135.074 185.235C133.356 186.256 131.501 187.027 129.565 187.524C129.044 185.605 128.787 183.624 128.802 181.637C128.802 168.043 138.749 150.837 150.502 144.019C152.214 143.001 154.061 142.233 155.99 141.737H156.011Z" fill="#407BFF"/>
<path opacity="0.1" d="M130.6 197.085L120.961 191.527C116.614 188.986 113.926 183.582 113.926 175.91C113.926 169.036 116.082 161.504 119.645 154.588L129.571 160.3C126.001 167.216 123.852 174.748 123.852 181.622C123.852 189.154 126.414 194.481 130.6 197.085Z" fill="black"/>
<path opacity="0.4" d="M172.203 152.636C172.203 152.349 172.203 152.069 172.161 151.789C172.119 151.509 172.161 151.236 172.098 150.963C172.035 150.69 172.098 150.599 172.042 150.417C171.993 149.941 171.923 149.472 171.846 149.017C171.811 148.814 171.776 148.604 171.734 148.401C171.692 148.198 171.657 148.016 171.615 147.827C171.496 147.309 171.37 146.805 171.223 146.322C171.146 146.091 171.076 145.86 170.999 145.622C170.984 145.588 170.973 145.553 170.964 145.517C170.88 145.293 170.803 145.076 170.719 144.866C170.635 144.656 170.523 144.376 170.411 144.166C170.299 143.956 170.257 143.823 170.166 143.655C170.115 143.529 170.055 143.407 169.984 143.291C169.914 143.144 169.837 142.997 169.753 142.857C169.669 142.717 169.718 142.787 169.697 142.759C169.676 142.731 169.55 142.507 169.473 142.381C169.396 142.255 169.368 142.22 169.319 142.143C168.96 141.578 168.558 141.042 168.115 140.54L167.891 140.288L167.702 140.092C167.625 140.008 167.541 139.931 167.457 139.847C167.237 139.616 167.004 139.398 166.757 139.196C166.638 139.091 166.512 138.993 166.386 138.902L166.001 138.622C165.801 138.475 165.593 138.34 165.378 138.216C160.989 135.549 154.878 135.864 148.081 139.777C134.732 147.477 123.91 166.223 123.91 181.637C123.91 189.442 126.71 194.895 131.155 197.373C131.341 197.483 131.533 197.583 131.729 197.674C131.967 197.793 132.212 197.898 132.429 197.996C132.646 198.094 132.87 198.171 133.094 198.241L133.451 198.346C133.576 198.394 133.705 198.431 133.836 198.458C133.965 198.497 134.096 198.53 134.228 198.556C134.322 198.584 134.418 198.605 134.515 198.619C134.683 198.654 134.865 198.689 135.04 198.71C135.08 198.717 135.12 198.717 135.159 198.71C135.369 198.747 135.579 198.775 135.789 198.794C139.387 199.172 143.573 198.157 148.053 195.574C161.402 187.874 172.224 169.121 172.224 153.714C172.203 153.364 172.203 153 172.203 152.636ZM145.603 191.353C142.607 193.082 139.723 193.992 137.259 193.992C132.632 193.992 130.504 190.835 129.559 187.524C129.038 185.605 128.781 183.625 128.796 181.637C128.796 168.043 138.743 150.837 150.496 144.019C152.214 143 154.069 142.231 156.005 141.737C156.922 141.51 157.861 141.39 158.805 141.38C166.456 141.38 167.275 150.018 167.275 153.735C167.303 167.301 157.356 184.556 145.603 191.353Z" fill="white"/>
<path opacity="0.1" d="M167.303 153.734C167.303 167.328 157.363 184.534 145.603 191.352C142.607 193.081 139.723 193.991 137.259 193.991C132.632 193.991 130.504 190.834 129.559 187.523C131.494 187.026 133.35 186.255 135.068 185.234C146.842 178.437 156.768 161.21 156.768 147.616C156.786 145.63 156.529 143.651 156.005 141.736C156.921 141.509 157.861 141.389 158.805 141.379C166.477 141.4 167.303 150.017 167.303 153.734Z" fill="black"/>
<path opacity="0.7" d="M163.102 151.361C163.102 164.955 153.162 182.161 141.402 188.979C138.406 190.708 135.522 191.618 133.058 191.618C132.568 191.619 132.079 191.579 131.595 191.499C130.649 190.33 129.96 188.976 129.572 187.523C129.051 185.605 128.794 183.624 128.809 181.636C128.809 168.042 138.756 150.836 150.509 144.018C152.227 142.999 154.083 142.23 156.018 141.736C156.935 141.509 157.874 141.389 158.818 141.379C159.311 141.378 159.802 141.418 160.288 141.498C162.71 144.347 163.102 148.918 163.102 151.361Z" fill="white"/>
<path d="M180.02 137.2V152.698C180.02 153.86 180.839 154.329 181.84 153.748L283.41 95.1089C283.939 94.7632 284.379 94.298 284.695 93.7508C285.011 93.2037 285.194 92.5898 285.23 91.9589V76.4399C285.23 75.2779 284.411 74.8089 283.41 75.3899L181.84 134.029C181.308 134.377 180.866 134.846 180.55 135.397C180.234 135.948 180.052 136.565 180.02 137.2Z" fill="#E6E6E6"/>
<path d="M181.84 134.029L199.928 123.592V143.29L181.84 153.727C180.839 154.308 180.02 153.839 180.02 152.677V137.2C180.052 136.565 180.234 135.948 180.55 135.397C180.866 134.846 181.308 134.377 181.84 134.029Z" fill="#407BFF"/>
<path d="M193.942 132.188C192.801 131.53 191.359 131.635 189.882 132.489C188.479 133.389 187.311 134.611 186.477 136.054C185.642 137.497 185.166 139.119 185.087 140.784C185.038 141.864 185.378 142.924 186.046 143.773L184.1 147.105C183.974 147.344 183.943 147.622 184.014 147.882C184.086 148.142 184.254 148.365 184.485 148.505C184.646 148.596 184.826 148.644 185.01 148.645C185.195 148.646 185.376 148.597 185.536 148.505C185.695 148.413 185.828 148.28 185.92 148.12L187.845 144.788C188.053 144.827 188.264 144.848 188.475 144.851C189.335 144.836 190.175 144.594 190.911 144.151C192.312 143.25 193.478 142.027 194.311 140.584C195.144 139.141 195.62 137.52 195.699 135.856C195.72 134.155 195.09 132.853 193.942 132.188ZM189.882 142.338C189.636 142.603 189.308 142.776 188.951 142.83C188.594 142.884 188.229 142.815 187.916 142.634C187.603 142.454 187.361 142.173 187.228 141.837C187.096 141.501 187.082 141.13 187.187 140.784C187.269 139.489 187.65 138.231 188.299 137.107C188.949 135.984 189.85 135.026 190.932 134.309C191.352 134.042 191.835 133.89 192.332 133.868C192.537 133.861 192.741 133.909 192.92 134.008C193.184 134.234 193.386 134.522 193.508 134.846C193.631 135.17 193.669 135.52 193.62 135.863C193.54 137.158 193.16 138.416 192.511 139.54C191.863 140.663 190.963 141.621 189.882 142.338Z" fill="white"/>
</g>
</svg>
