<svg width="16" height="16" viewBox="0 0 16 16" fill="none" xmlns="http://www.w3.org/2000/svg">
<rect x="0.785645" y="0.5" width="14.7143" height="14.7143" rx="7.35714" fill="#EF6023"/>
<rect x="0.785645" y="0.5" width="14.7143" height="14.7143" rx="7.35714" stroke="white"/>
<path d="M4.78345 8.32983H3.33423V7.41577H4.78345C5.00741 7.41577 5.1897 7.37931 5.33032 7.3064C5.47095 7.23088 5.57381 7.12671 5.63892 6.9939C5.70402 6.86108 5.73657 6.71134 5.73657 6.54468C5.73657 6.37541 5.70402 6.21785 5.63892 6.07202C5.57381 5.92619 5.47095 5.809 5.33032 5.72046C5.1897 5.63192 5.00741 5.58765 4.78345 5.58765H3.74048V10.3572H2.5686V4.66968H4.78345C5.22876 4.66968 5.61027 4.75041 5.92798 4.91187C6.24829 5.07072 6.49308 5.29077 6.66235 5.57202C6.83162 5.85327 6.91626 6.17489 6.91626 6.53687C6.91626 6.90405 6.83162 7.22176 6.66235 7.48999C6.49308 7.75822 6.24829 7.96525 5.92798 8.11108C5.61027 8.25692 5.22876 8.32983 4.78345 8.32983ZM8.26001 4.66968H9.2522L10.7131 8.84546L12.1741 4.66968H13.1663L11.1116 10.3572H10.3147L8.26001 4.66968ZM7.72485 4.66968H8.71313L8.89282 8.73999V10.3572H7.72485V4.66968ZM12.7131 4.66968H13.7053V10.3572H12.5334V8.73999L12.7131 4.66968Z" fill="white"/>
</svg>
