<svg width="69" height="57" viewBox="0 0 69 57" fill="none" xmlns="http://www.w3.org/2000/svg">
<path d="M0.807129 8.50746C0.807129 3.80892 4.15562 0 8.28618 0H23.7019C29.1736 0 30.4344 0.838779 34.6101 3.22735C38.8339 5.56164 38.1886 11.3457 40.4925 15.6343C42.8443 19.9229 42.2485 22.8 42.2485 28.5C42.2485 34.2 42.8443 35.4327 40.4925 39.7212C38.1886 44.0098 38.8339 49.2491 34.6101 51.6376C30.4344 53.9719 29.1736 57 23.7019 57H8.28618C4.15561 57 0.807129 53.1911 0.807129 48.4925C0.807129 43.794 4.92061 36.9989 4.92061 29.1381C4.92061 21.2772 0.807129 13.206 0.807129 8.50746ZM21.7702 46.17C27.6225 46.17 30.645 39.9431 32.5309 36.3882C33.8901 33.826 34.2299 30.8367 34.2299 28.061C34.2299 25.2853 33.8524 21.6318 32.5309 19.3068C30.4066 15.5695 28.0001 10.83 21.7702 10.83H16.21C14.1447 10.83 12.4705 12.7345 12.4705 15.0837C12.4705 17.433 15.2043 19.9925 15.2043 29.1381C15.2043 37.4328 12.4705 39.567 12.4705 41.9163C12.4705 44.2655 14.1447 46.17 16.21 46.17H21.7702Z" fill="url(#paint0_linear_849_15763)"/>
<path d="M63.0743 56.8773C59.4282 56.8773 56.0096 54.8618 53.9076 51.473L46.5544 39.618C45.8057 38.4108 44.2297 38.4184 43.4899 39.6326L36.3297 51.385C34.2339 54.825 30.7884 56.8773 27.109 56.8773H21.7271C20.8066 56.8773 20.2779 55.6858 20.8245 54.8434L32.586 36.7166C35.9728 31.4971 35.9984 24.3839 32.6494 19.1329L21.7386 2.02549C21.2006 1.18185 21.7304 0 22.6467 0H28.0319C31.6412 0 35.0301 1.97536 37.1382 5.30797L43.9157 16.0225C44.6659 17.2085 46.2198 17.2007 46.9608 16.0071L53.545 5.40036C55.6473 2.01385 59.0647 0 62.7092 0H65.8921C67.4231 0 68.3052 1.97852 67.4006 3.38353L52.7058 26.2077C52.2243 26.9555 52.2241 27.9719 52.7051 28.72L68.6359 53.4948C69.5394 54.8999 68.6572 56.8773 67.1268 56.8773H63.0743Z" fill="url(#paint1_linear_849_15763)"/>
<defs>
<linearGradient id="paint0_linear_849_15763" x1="34.9035" y1="0" x2="34.9035" y2="57" gradientUnits="userSpaceOnUse">
<stop stop-color="#F4B941"/>
<stop offset="1" stop-color="#EA496F"/>
</linearGradient>
<linearGradient id="paint1_linear_849_15763" x1="34.9035" y1="0" x2="34.9035" y2="57" gradientUnits="userSpaceOnUse">
<stop stop-color="#F4B941"/>
<stop offset="1" stop-color="#EA496F"/>
</linearGradient>
</defs>
</svg>
