<svg width="60" height="60" viewBox="0 0 60 60" fill="none" xmlns="http://www.w3.org/2000/svg">
<path d="M58.154 26.2926L44.307 12.3496L38.447 34.3256C38.171 35.3616 37.362 36.1726 36.327 36.4496L14.528 42.3046L28.397 56.1636C28.948 56.7156 29.67 56.9996 30.393 56.9996C31.15 56.9996 31.867 56.7246 32.428 56.1616L58.147 30.4486C58.722 29.8736 59 29.1206 59 28.3666C59 27.5956 58.725 26.8666 58.154 26.2926V26.2926Z" fill="black"/>
<path d="M16.209 5.212L21.498 10.792C21.637 10.931 21.818 11 22 11C22.182 11 22.363 10.931 22.502 10.792L27.791 5.211C28.237 4.765 27.922 4.002 27.29 4.002L16.711 4C16.078 4 15.762 4.765 16.209 5.212V5.212Z" fill="black"/>
<path d="M35.808 34.5184C36.153 34.4264 36.422 34.1554 36.514 33.8104L41.031 16.8744L29.971 5.81836L23.954 12.1684C23.404 12.7184 22.724 13.0004 22 13.0004C21.276 13.0004 20.596 12.7184 20.084 12.2064L14.485 6.32936L1.293 19.5594C1.102 19.7504 1.004 19.9994 0.999996 20.2504C0.995996 20.5114 1.094 20.7734 1.293 20.9734L19.278 38.9584L35.808 34.5184ZM34.561 30.5614C34.268 30.8544 33.883 31.0004 33.498 31.0004H30.502C30.117 31.0004 29.732 30.8544 29.439 30.5614C28.853 29.9754 28.853 29.0264 29.439 28.4404C29.733 28.1464 30.117 28.0004 30.502 28.0004H32V24.5024C32 24.1174 32.146 23.7324 32.439 23.4394C33.025 22.8534 33.974 22.8534 34.56 23.4394C34.854 23.7324 35 24.1174 35 24.5024V29.4984C35 29.8834 34.854 30.2684 34.561 30.5614V30.5614ZM34.561 15.4394C35.147 16.0254 35.147 16.9744 34.561 17.5604L30.561 21.5604C29.975 22.1464 29.026 22.1464 28.44 21.5604C27.854 20.9744 27.854 20.0254 28.44 19.4394L32.44 15.4394C33.025 14.8544 33.975 14.8544 34.561 15.4394ZM24.439 15.4394L28.439 11.4394C29.025 10.8534 29.974 10.8534 30.56 11.4394C31.146 12.0254 31.146 12.9744 30.56 13.5604L26.56 17.5604C25.974 18.1464 25.025 18.1464 24.439 17.5604C23.853 16.9744 23.854 16.0254 24.439 15.4394V15.4394ZM20.5 24.0004C19.502 24.0004 19.053 24.2964 18.372 24.7424C17.521 25.3034 16.46 26.0004 14.5 26.0004C11.468 26.0004 9 23.5324 9 20.5004C9 19.5274 9.256 18.6154 9.701 17.8224L9.441 17.5614C9.168 17.2904 9 16.9154 9 16.5004C9 15.6724 9.672 15.0004 10.5 15.0004C10.915 15.0004 11.29 15.1684 11.563 15.4404L11.823 15.7014C12.615 15.2564 13.527 15.0004 14.5 15.0004C16 15.0004 17.498 15.4924 18.508 16.3904C18.811 16.6644 19 17.0604 19 17.5004C19 18.3284 18.328 19.0004 17.5 19.0004C17.152 19.0004 16.833 18.8824 16.579 18.6844C16.123 18.2424 15.29 18.0004 14.5 18.0004C13.121 18.0004 12 19.1214 12 20.5004C12 21.8794 13.121 23.0004 14.5 23.0004C15.562 23.0004 16.024 22.6964 16.725 22.2354C17.562 21.6864 18.604 21.0004 20.5 21.0004C23.532 21.0004 26 23.4684 26 26.5004C26 27.4734 25.744 28.3854 25.299 29.1784L25.559 29.4394C25.832 29.7104 26 30.0854 26 30.5004C26 31.3284 25.328 32.0004 24.5 32.0004C24.086 32.0004 23.71 31.8324 23.437 31.5604L23.177 31.2994C22.385 31.7444 21.473 32.0004 20.5 32.0004C18.963 32.0004 17.393 31.4814 16.379 30.4964C16.143 30.2314 16 29.8834 16 29.5004C16 28.6724 16.672 28.0004 17.5 28.0004C17.861 28.0004 18.192 28.1284 18.451 28.3404C18.908 28.7384 19.809 29.0004 20.5 29.0004C21.879 29.0004 23 27.8794 23 26.5004C23 25.1214 21.879 24.0004 20.5 24.0004V24.0004Z" fill="black"/>
<path d="M6 51C6 52.104 6.896 53 8 53C8.553 53 9.053 52.776 9.414 52.414L13.414 48.414C13.776 48.053 14 47.553 14 47C14 45.896 13.104 45 12 45C11.447 45 10.947 45.225 10.586 45.586L6.586 49.586C6.224 49.947 6 50.447 6 51Z" fill="black"/>
<path d="M14 54C14 55.104 14.896 56 16 56C16.553 56 17.053 55.776 17.414 55.414L19.414 53.414C19.776 53.053 20 52.553 20 52C20 50.896 19.104 50 18 50C17.447 50 16.947 50.225 16.586 50.586L14.586 52.586C14.224 52.947 14 53.447 14 54V54Z" fill="black"/>
<path d="M51 14C51 15.104 51.896 16 53 16C53.553 16 54.053 15.776 54.414 15.414L58.414 11.414C58.776 11.053 59 10.553 59 10C59 8.896 58.104 8 57 8C56.447 8 55.947 8.225 55.586 8.586L51.586 12.586C51.224 12.947 51 13.447 51 14Z" fill="black"/>
<path d="M47 8C47 9.104 47.896 10 49 10C49.553 10 50.053 9.776 50.414 9.414L52.414 7.414C52.776 7.053 53 6.553 53 6C53 4.896 52.104 4 51 4C50.447 4 49.947 4.225 49.586 4.586L47.586 6.586C47.224 6.947 47 7.447 47 8Z" fill="black"/>
<path d="M45 49C45 50.104 45.896 51 47 51C47.553 51 48.053 50.776 48.414 50.414L52.414 46.414C52.776 46.053 53 45.553 53 45C53 43.896 52.104 43 51 43C50.447 43 49.947 43.225 49.586 43.586L45.586 47.586C45.224 47.947 45 48.447 45 49Z" fill="black"/>
</svg>
