<svg width="12" height="12" viewBox="0 0 12 12" fill="none" xmlns="http://www.w3.org/2000/svg">
<rect width="12" height="12" rx="6" fill="#FA6C30"/>
<path d="M4.79297 7.0625C4.79297 6.92969 4.77214 6.8125 4.73047 6.71094C4.69141 6.60677 4.62109 6.51302 4.51953 6.42969C4.42057 6.34635 4.28255 6.26693 4.10547 6.19141C3.93099 6.11589 3.70964 6.03906 3.44141 5.96094C3.16016 5.8776 2.90625 5.78516 2.67969 5.68359C2.45312 5.57943 2.25911 5.46094 2.09766 5.32812C1.9362 5.19531 1.8125 5.04297 1.72656 4.87109C1.64062 4.69922 1.59766 4.5026 1.59766 4.28125C1.59766 4.0599 1.64323 3.85547 1.73438 3.66797C1.82552 3.48047 1.95573 3.31771 2.125 3.17969C2.29688 3.03906 2.5013 2.92969 2.73828 2.85156C2.97526 2.77344 3.23958 2.73438 3.53125 2.73438C3.95833 2.73438 4.32031 2.81641 4.61719 2.98047C4.91667 3.14193 5.14453 3.35417 5.30078 3.61719C5.45703 3.8776 5.53516 4.15625 5.53516 4.45312H4.78516C4.78516 4.23958 4.73958 4.05078 4.64844 3.88672C4.55729 3.72005 4.41927 3.58984 4.23438 3.49609C4.04948 3.39974 3.8151 3.35156 3.53125 3.35156C3.26302 3.35156 3.04167 3.39193 2.86719 3.47266C2.69271 3.55339 2.5625 3.66276 2.47656 3.80078C2.39323 3.9388 2.35156 4.09635 2.35156 4.27344C2.35156 4.39323 2.3763 4.5026 2.42578 4.60156C2.47786 4.69792 2.55729 4.78776 2.66406 4.87109C2.77344 4.95443 2.91146 5.03125 3.07812 5.10156C3.2474 5.17188 3.44922 5.23958 3.68359 5.30469C4.00651 5.39583 4.28516 5.4974 4.51953 5.60938C4.75391 5.72135 4.94661 5.84766 5.09766 5.98828C5.2513 6.1263 5.36458 6.28385 5.4375 6.46094C5.51302 6.63542 5.55078 6.83333 5.55078 7.05469C5.55078 7.28646 5.50391 7.49609 5.41016 7.68359C5.31641 7.87109 5.18229 8.03125 5.00781 8.16406C4.83333 8.29688 4.6237 8.39974 4.37891 8.47266C4.13672 8.54297 3.86589 8.57812 3.56641 8.57812C3.30339 8.57812 3.04427 8.54167 2.78906 8.46875C2.53646 8.39583 2.30599 8.28646 2.09766 8.14062C1.89193 7.99479 1.72656 7.8151 1.60156 7.60156C1.47917 7.38542 1.41797 7.13542 1.41797 6.85156H2.16797C2.16797 7.04688 2.20573 7.21484 2.28125 7.35547C2.35677 7.49349 2.45964 7.60807 2.58984 7.69922C2.72266 7.79036 2.8724 7.85807 3.03906 7.90234C3.20833 7.94401 3.38411 7.96484 3.56641 7.96484C3.82943 7.96484 4.05208 7.92839 4.23438 7.85547C4.41667 7.78255 4.55469 7.67839 4.64844 7.54297C4.74479 7.40755 4.79297 7.2474 4.79297 7.0625ZM8.60938 6.26953H7.08984V5.65625H8.60938C8.90365 5.65625 9.14193 5.60938 9.32422 5.51562C9.50651 5.42188 9.63932 5.29167 9.72266 5.125C9.80859 4.95833 9.85156 4.76823 9.85156 4.55469C9.85156 4.35938 9.80859 4.17578 9.72266 4.00391C9.63932 3.83203 9.50651 3.69401 9.32422 3.58984C9.14193 3.48307 8.90365 3.42969 8.60938 3.42969H7.26562V8.5H6.51172V2.8125H8.60938C9.03906 2.8125 9.40234 2.88672 9.69922 3.03516C9.99609 3.18359 10.2214 3.38932 10.375 3.65234C10.5286 3.91276 10.6055 4.21094 10.6055 4.54688C10.6055 4.91146 10.5286 5.22266 10.375 5.48047C10.2214 5.73828 9.99609 5.9349 9.69922 6.07031C9.40234 6.20312 9.03906 6.26953 8.60938 6.26953Z" fill="white"/>
</svg>
