<svg width="32" height="36" viewBox="0 0 32 36" fill="none" xmlns="http://www.w3.org/2000/svg">
<path d="M18.6667 9.5625V0H2C0.891667 0 0 0.752344 0 1.6875V34.3125C0 35.2477 0.891667 36 2 36H30C31.1083 36 32 35.2477 32 34.3125V11.25H20.6667C19.5667 11.25 18.6667 10.4906 18.6667 9.5625ZM24 26.1562C24 26.6203 23.55 27 23 27H9C8.45 27 8 26.6203 8 26.1562V25.5938C8 25.1297 8.45 24.75 9 24.75H23C23.55 24.75 24 25.1297 24 25.5938V26.1562ZM24 21.6562C24 22.1203 23.55 22.5 23 22.5H9C8.45 22.5 8 22.1203 8 21.6562V21.0938C8 20.6297 8.45 20.25 9 20.25H23C23.55 20.25 24 20.6297 24 21.0938V21.6562ZM24 16.5938V17.1562C24 17.6203 23.55 18 23 18H9C8.45 18 8 17.6203 8 17.1562V16.5938C8 16.1297 8.45 15.75 9 15.75H23C23.55 15.75 24 16.1297 24 16.5938ZM32 8.57109V9H21.3333V0H21.8417C22.375 0 22.8833 0.175781 23.2583 0.492188L31.4167 7.38281C31.7917 7.69922 32 8.12813 32 8.57109Z" fill="#6C757D"/>
</svg>
