<svg width="32" height="36" viewBox="0 0 32 36" fill="none" xmlns="http://www.w3.org/2000/svg">
<path d="M26.4348 12.8881V3.87092C26.4348 3.40074 26.7325 2.97085 27.2039 2.76062L29.2174 1.8623L31.2309 2.76062C31.7023 2.97085 32 3.40067 32 3.87092V12.8882C32 13.3584 31.7023 13.7883 31.2309 13.9985L29.2174 14.8967L27.2039 13.9984C26.7325 13.7882 26.4348 13.3584 26.4348 12.8881Z" fill="#FFC36E"/>
<path d="M26.4348 12.8881V3.87092C26.4348 3.40074 26.7325 2.97085 27.2039 2.76062L29.2174 1.8623L31.2309 2.76062C31.7023 2.97085 32 3.40067 32 3.87092V12.8882C32 13.3584 31.7023 13.7883 31.2309 13.9985L29.2174 14.8967L27.2039 13.9984C26.7325 13.7882 26.4348 13.3584 26.4348 12.8881Z" fill="#FFC36E"/>
<path d="M30.6088 34.138V1.86217C30.6088 1.5194 30.2973 1.24146 29.9131 1.24146H26.4348V34.7587H29.9132C30.2973 34.7587 30.6088 34.4808 30.6088 34.138Z" fill="#EFF2FA"/>
<path d="M27.8261 34.7587V1.24146H26.4348V34.7587H27.8261Z" fill="#E1E6F2"/>
<path d="M29.2174 34.7586V15.2802C29.2174 15.0451 29.0685 14.8302 28.8329 14.7251L27.204 13.9983C26.7325 13.7881 26.4348 13.3581 26.4348 12.888V3.8707C26.4348 3.40052 26.7325 2.97063 27.204 2.7604L28.8329 2.03358C29.0685 1.92846 29.2174 1.71352 29.2174 1.47846V1.24137C29.2174 0.555751 28.5945 1.06095e-06 27.8261 1.03098e-06L1.39129 0C0.622871 -2.99742e-08 0 0.55575 0 1.24137V34.7586C0 35.4443 0.622871 36 1.39129 36H27.8261C28.5945 36 29.2174 35.4443 29.2174 34.7586Z" fill="#FFD782"/>
<path d="M1.39124 34.138V1.86217C1.39124 1.5194 1.70275 1.24146 2.08692 1.24146C2.47109 1.24146 2.78261 1.5194 2.78261 1.86217V34.138C2.78261 34.4808 2.47109 34.7587 2.08692 34.7587C1.70267 34.7587 1.39124 34.4808 1.39124 34.138Z" fill="#FFC36E"/>
<path d="M18.7826 22.9654V32.2758C18.7826 32.6186 19.0941 32.8965 19.4783 32.8965H25.0435C25.4277 32.8965 25.7392 32.6186 25.7392 32.2758V22.9654C25.7392 22.6227 25.4277 22.3447 25.0435 22.3447H19.4783C19.0941 22.3447 18.7826 22.6227 18.7826 22.9654Z" fill="#EFF2FA"/>
<path d="M22.9564 31.0344V24.2069C22.9564 23.8641 23.2679 23.5862 23.6521 23.5862C24.0363 23.5862 24.3478 23.8641 24.3478 24.2069V31.0344C24.3478 31.3772 24.0363 31.6552 23.6521 31.6552C23.2679 31.6552 22.9564 31.3772 22.9564 31.0344Z" fill="#C7CFE2"/>
<path d="M20.174 31.0344V24.2069C20.174 23.8641 20.4855 23.5862 20.8696 23.5862C21.2538 23.5862 21.5653 23.8641 21.5653 24.2069V31.0344C21.5653 31.3772 21.2538 31.6552 20.8696 31.6552C20.4854 31.6552 20.174 31.3772 20.174 31.0344Z" fill="#D7DEED"/>
</svg>
