<svg width="32" height="36" viewBox="0 0 32 36" fill="none" xmlns="http://www.w3.org/2000/svg">
<path d="M22.6865 0H1.08874C0.487442 0 0 0.421071 0 1.23814V35.3571C0 35.5789 0.487442 36 1.08874 36H30.9113C31.5126 36 32 35.5789 32 35.3571V8.343C32 7.89557 31.9308 7.75157 31.8087 7.6455L23.1494 0.165214C23.0266 0.0597857 22.8599 0 22.6865 0Z" fill="#E9E9E0"/>
<path d="M30.9113 35.9999H1.08874C0.487442 35.9999 0 35.5788 0 35.0594V25.0713H32V35.0594C32 35.5788 31.5126 35.9999 30.9113 35.9999Z" fill="#FF5364"/>
<path d="M11.8325 27.5938H13.0738V34.0712H11.8325V29.6149L10.1536 33.2181H9.07526L7.38595 29.6149V34.0712H6.14465V27.5938H7.38595L9.61405 32.0237L11.8325 27.5938Z" fill="white"/>
<path d="M16.1569 34.0712H14.9357V27.5938H17.0923C17.4108 27.5938 17.7264 27.6375 18.0382 27.7255C18.35 27.8136 18.6298 27.9454 18.8776 28.1209C19.1254 28.2964 19.3256 28.5092 19.4782 28.758C19.6307 29.0067 19.7074 29.2864 19.7074 29.5975C19.7074 29.926 19.6426 30.223 19.5139 30.4898C19.3852 30.7566 19.2051 30.981 18.9744 31.1622C18.7437 31.3435 18.4653 31.4843 18.1401 31.584C17.8149 31.6836 17.4547 31.7331 17.0618 31.7331H16.1561V34.0712H16.1569ZM16.1569 28.3935V30.9597H17.2761C17.425 30.9597 17.5723 30.9379 17.7189 30.8935C17.8648 30.8498 17.9987 30.7778 18.1208 30.6782C18.2428 30.5785 18.3411 30.4397 18.4155 30.261C18.4899 30.0822 18.5271 29.8611 18.5271 29.5975C18.5271 29.4921 18.51 29.37 18.4765 29.233C18.4423 29.0955 18.3731 28.9637 18.2681 28.8377C18.1625 28.7117 18.0151 28.6062 17.8253 28.5214C17.6356 28.4365 17.384 28.3941 17.0722 28.3941H16.1569V28.3935Z" fill="white"/>
<path d="M23.798 32.5592H20.5526V31.7247L23.798 27.5938H25.0393V31.7247H25.8229V32.5598H25.0393V34.0712H23.798V32.5592ZM23.798 31.7247V28.8242L21.6406 31.7247H23.798Z" fill="white"/>
<path d="M13.3953 17.9994C13.2718 17.9994 13.149 17.9731 13.0374 17.9204C12.7992 17.8072 12.6511 17.5912 12.6511 17.3566V8.35659C12.6511 8.12194 12.7992 7.90594 13.0374 7.7928C13.2762 7.6803 13.5657 7.68866 13.7957 7.81402L21.9817 12.314C22.1953 12.4323 22.3255 12.6367 22.3255 12.8566C22.3255 13.0764 22.1953 13.2809 21.981 13.3992L13.7949 17.8992C13.6736 17.9654 13.5345 17.9994 13.3953 17.9994ZM14.1395 9.52723V16.1853L20.1949 12.8566L14.1395 9.52723Z" fill="#C8BDB8"/>
<path d="M16.372 22.4996C10.2169 22.4996 5.20923 18.1738 5.20923 12.8567C5.20923 7.53965 10.2169 3.21387 16.372 3.21387C22.5272 3.21387 27.5348 7.53965 27.5348 12.8567C27.5348 18.1738 22.5272 22.4996 16.372 22.4996ZM16.372 4.49958C11.0377 4.49958 6.6976 8.24872 6.6976 12.8567C6.6976 17.4647 11.0377 21.2139 16.372 21.2139C21.7063 21.2139 26.0464 17.4647 26.0464 12.8567C26.0464 8.24872 21.7063 4.49958 16.372 4.49958Z" fill="#C8BDB8"/>
<path d="M23.0698 0.097168V7.71438H31.8877L23.0698 0.097168Z" fill="#D9D7CA"/>
</svg>
