<svg width="32" height="36" viewBox="0 0 32 36" fill="none" xmlns="http://www.w3.org/2000/svg">
<path d="M15.1583 18.007C14.7417 16.882 14.75 14.7094 14.9917 14.7094C15.6917 14.7094 15.625 17.3039 15.1583 18.007ZM15.0167 21.3258C14.375 22.7461 13.575 24.3703 12.65 25.7344C14.175 25.2422 15.9 24.525 17.8917 24.1945C16.8333 23.5195 15.8167 22.5492 15.0167 21.3258ZM7.175 30.1008C7.175 30.157 8.275 29.7211 10.0833 27.2742C9.525 27.7172 7.65833 28.9969 7.175 30.1008ZM20.6667 11.25H32V34.3125C32 35.2477 31.1083 36 30 36H2C0.891667 36 0 35.2477 0 34.3125V1.6875C0 0.752344 0.891667 0 2 0H18.6667V9.5625C18.6667 10.4906 19.5667 11.25 20.6667 11.25ZM20 23.3297C18.3333 22.4719 17.225 21.2906 16.4417 19.5469C16.8167 18.2461 17.4083 16.2703 16.9583 15.0328C16.5667 12.9656 13.425 13.1695 12.975 14.5547C12.5583 15.8414 12.9417 17.6555 13.65 19.9688C12.6833 21.9094 11.2583 24.5109 10.25 26.0016C10.2417 26.0016 10.2417 26.0086 10.2333 26.0086C7.975 26.9859 4.1 29.1375 5.69167 30.7898C6.15833 31.275 7.025 31.493 7.48333 31.493C8.975 31.493 10.4583 30.2273 12.575 27.1477C14.725 26.55 17.0833 25.8047 19.1583 25.5164C20.9667 26.3461 23.0833 26.8875 24.4917 26.8875C26.925 26.8875 27.0917 24.6375 26.1333 23.8359C24.975 22.8797 21.6083 23.1539 20 23.3297V23.3297ZM31.4167 7.38281L23.25 0.492188C22.875 0.175781 22.3667 0 21.8333 0H21.3333V9H32V8.57109C32 8.12813 31.7917 7.69922 31.4167 7.38281ZM25.2417 25.3336C25.5833 25.1437 25.0333 24.4969 21.675 24.7008C24.7667 25.8117 25.2417 25.3336 25.2417 25.3336Z" fill="#A70505"/>
</svg>
