<svg width="38" height="42" viewBox="0 0 38 42" fill="none" xmlns="http://www.w3.org/2000/svg">
<path d="M21.6667 12.5625V3H5C3.89167 3 3 3.75234 3 4.6875V37.3125C3 38.2477 3.89167 39 5 39H33C34.1083 39 35 38.2477 35 37.3125V14.25H23.6667C22.5667 14.25 21.6667 13.4906 21.6667 12.5625ZM26.675 20.0508L21.6667 26.625L26.675 33.1992C27.1 33.7617 26.625 34.5 25.8333 34.5H22.925C22.5583 34.5 22.2167 34.3313 22.0417 34.057C20.4083 31.5117 19 29.2266 19 29.2266C18.4667 30.2672 18.1667 30.6328 15.95 34.0641C15.775 34.3383 15.4417 34.507 15.075 34.507H12.1667C11.375 34.507 10.9 33.7688 11.325 33.2063L16.35 26.632L11.325 20.0578C10.8917 19.4953 11.375 18.757 12.1667 18.757H15.0667C15.4333 18.757 15.775 18.9258 15.95 19.2C18.125 22.6312 17.6167 21.5625 19 24.0164C19 24.0164 19.5083 23.1937 22.05 19.2C22.225 18.9258 22.5667 18.757 22.9333 18.757H25.8333C26.625 18.75 27.1 19.4883 26.675 20.0508V20.0508ZM35 11.5711V12H24.3333V3H24.8417C25.375 3 25.8833 3.17578 26.2583 3.49219L34.4167 10.3828C34.7917 10.6992 35 11.1281 35 11.5711Z" fill="#347442"/>
</svg>
