<svg width="38" height="42" viewBox="0 0 38 42" fill="none" xmlns="http://www.w3.org/2000/svg">
<path d="M21.6667 12.5625V3H5C3.89167 3 3 3.75234 3 4.6875V37.3125C3 38.2477 3.89167 39 5 39H33C34.1083 39 35 38.2477 35 37.3125V14.25H23.6667C22.5667 14.25 21.6667 13.4906 21.6667 12.5625ZM26.425 21H28.4167C29.0583 21 29.5333 21.4992 29.3917 22.0336L26.225 33.8461C26.125 34.2328 25.7167 34.5 25.25 34.5H22.0833C21.625 34.5 21.225 34.2328 21.1167 33.8602C18.9667 26.5828 19.3833 28.1508 18.9833 26.0906H18.9417C18.85 27.0961 18.7417 27.3141 16.8083 33.8602C16.7 34.2328 16.3 34.5 15.8417 34.5H12.75C12.2833 34.5 11.875 34.2258 11.775 33.8391L8.625 22.0266C8.48333 21.4992 8.95833 21 9.6 21H11.6417C12.1167 21 12.5333 21.2813 12.625 21.682C13.925 27.1664 14.3 29.3812 14.375 30.2742C14.5083 29.557 14.9833 27.975 16.825 21.6469C16.9333 21.2672 17.3333 21.007 17.8 21.007H20.225C20.6917 21.007 21.0917 21.2742 21.2 21.6539C23.2 28.7133 23.6 30.3727 23.6667 30.7523C23.65 29.9648 23.45 29.5008 25.4667 21.668C25.55 21.2742 25.9583 21 26.425 21V21ZM35 11.5711V12H24.3333V3H24.8417C25.375 3 25.8833 3.17578 26.2583 3.49219L34.4167 10.3828C34.7917 10.6992 35 11.1281 35 11.5711Z" fill="#005DC7"/>
</svg>
