<svg width="38" height="42" viewBox="0 0 38 42" fill="none" xmlns="http://www.w3.org/2000/svg">
<path d="M34.4167 10.3828L26.2583 3.49219C25.8833 3.17578 25.375 3 24.8417 3H24.3333V12H35V11.5711C35 11.1281 34.7917 10.6992 34.4167 10.3828ZM13.7 26.625C12.2083 26.625 11 27.4758 11 28.5234C11 29.5781 12.2167 30.4219 13.7083 30.4219C15.2 30.4219 16.4083 29.5711 16.4083 28.5234C16.4083 27.4758 15.1917 26.625 13.7 26.625ZM21.6667 12.5625V3H16.3667V5.25H13.7V3H5C3.89167 3 3 3.75234 3 4.6875V37.3125C3 38.2477 3.89167 39 5 39H33C34.1083 39 35 38.2477 35 37.3125V14.25H23.6667C22.5667 14.25 21.6667 13.4906 21.6667 12.5625ZM10.9917 5.25H13.6583V7.5H10.9917V5.25ZM13.6833 32.25C10.9167 32.25 8.85 30.1125 9.4 27.8273L11.0333 21V18.75H13.7V16.5H11.0333V14.25H13.7V12H11.0333V9.75H13.7V7.5H16.3667V9.75H13.7V12H16.3667V14.25H13.7V16.5H16.3667V18.75H13.7V21H15.5417C16.0167 21 16.4333 21.2883 16.525 21.682L17.9667 27.8484C18.5 30.1266 16.4333 32.25 13.6833 32.25V32.25Z" fill="#FFDE50"/>
</svg>
