<svg width="38" height="42" viewBox="0 0 38 42" fill="none" xmlns="http://www.w3.org/2000/svg">
<path d="M18.1583 21.007C17.7417 19.882 17.75 17.7094 17.9917 17.7094C18.6917 17.7094 18.625 20.3039 18.1583 21.007ZM18.0167 24.3258C17.375 25.7461 16.575 27.3703 15.65 28.7344C17.175 28.2422 18.9 27.525 20.8917 27.1945C19.8333 26.5195 18.8167 25.5492 18.0167 24.3258ZM10.175 33.1008C10.175 33.157 11.275 32.7211 13.0833 30.2742C12.525 30.7172 10.6583 31.9969 10.175 33.1008ZM23.6667 14.25H35V37.3125C35 38.2477 34.1083 39 33 39H5C3.89167 39 3 38.2477 3 37.3125V4.6875C3 3.75234 3.89167 3 5 3H21.6667V12.5625C21.6667 13.4906 22.5667 14.25 23.6667 14.25ZM23 26.3297C21.3333 25.4719 20.225 24.2906 19.4417 22.5469C19.8167 21.2461 20.4083 19.2703 19.9583 18.0328C19.5667 15.9656 16.425 16.1695 15.975 17.5547C15.5583 18.8414 15.9417 20.6555 16.65 22.9688C15.6833 24.9094 14.2583 27.5109 13.25 29.0016C13.2417 29.0016 13.2417 29.0086 13.2333 29.0086C10.975 29.9859 7.1 32.1375 8.69167 33.7898C9.15833 34.275 10.025 34.493 10.4833 34.493C11.975 34.493 13.4583 33.2273 15.575 30.1477C17.725 29.55 20.0833 28.8047 22.1583 28.5164C23.9667 29.3461 26.0833 29.8875 27.4917 29.8875C29.925 29.8875 30.0917 27.6375 29.1333 26.8359C27.975 25.8797 24.6083 26.1539 23 26.3297V26.3297ZM34.4167 10.3828L26.25 3.49219C25.875 3.17578 25.3667 3 24.8333 3H24.3333V12H35V11.5711C35 11.1281 34.7917 10.6992 34.4167 10.3828ZM28.2417 28.3336C28.5833 28.1437 28.0333 27.4969 24.675 27.7008C27.7667 28.8117 28.2417 28.3336 28.2417 28.3336Z" fill="#A70505"/>
</svg>
