<svg width="38" height="42" viewBox="0 0 38 42" fill="none" xmlns="http://www.w3.org/2000/svg">
<path d="M35 11.574V12H24.3333V3H24.8382C25.3687 3 25.8773 3.17778 26.2524 3.49423L34.4142 10.3807C34.7893 10.6972 35 11.1264 35 11.574ZM23.6667 14.25C22.5667 14.25 21.6667 13.4906 21.6667 12.5625V3H5C3.89542 3 3 3.75551 3 4.6875V37.3125C3 38.2445 3.89542 39 5 39H33C34.1046 39 35 38.2445 35 37.3125V14.25H23.6667ZM12.3788 15.375C14.5879 15.375 16.3787 16.886 16.3787 18.75C16.3787 20.614 14.5879 22.125 12.3788 22.125C10.1696 22.125 8.37875 20.614 8.37875 18.75C8.37875 16.886 10.1697 15.375 12.3788 15.375ZM29.7121 32.25H8.37875L8.41917 28.8409L11.7121 26.0625C12.1026 25.733 12.6953 25.7671 13.0858 26.0966L16.3787 28.875L25.005 21.5966C25.3955 21.2671 26.0287 21.2671 26.4193 21.5966L29.7121 24.375V32.25Z" fill="#3699FF"/>
</svg>
