<svg width="32" height="38" viewBox="0 0 32 38" fill="none" xmlns="http://www.w3.org/2000/svg">
<g clip-path="url(#clip0)">
<path d="M32 9.05031V9.5H21.3333V0H21.8382C22.3687 2.46997e-06 22.8773 0.187657 23.2524 0.521684L31.4142 7.79074C31.7893 8.1248 32 8.57788 32 9.05031ZM20.6667 11.875C19.5667 11.875 18.6667 11.0734 18.6667 10.0938V0H2C0.895417 0 0 0.797481 0 1.78125V36.2188C0 37.2025 0.895417 38 2 38H30C31.1046 38 32 37.2025 32 36.2188V11.875H20.6667ZM9.37875 13.0625C11.5879 13.0625 13.3787 14.6575 13.3787 16.625C13.3787 18.5925 11.5879 20.1875 9.37875 20.1875C7.16958 20.1875 5.37875 18.5925 5.37875 16.625C5.37875 14.6575 7.16967 13.0625 9.37875 13.0625ZM26.7121 30.875H5.37875L5.41917 27.2765L8.71208 24.3438C9.10258 23.996 9.69533 24.032 10.0858 24.3797L13.3787 27.3125L22.005 19.6297C22.3955 19.282 23.0287 19.282 23.4193 19.6297L26.7121 22.5625V30.875Z" fill="#3699FF"/>
<rect x="2" y="11" width="13" height="10" fill="#3699FF"/>
<path d="M13 15.5C13 17.433 11.433 19 9.5 19C7.567 19 6 17.433 6 15.5C6 13.567 7.567 12 9.5 12C11.433 12 13 13.567 13 15.5Z" fill="white"/>
</g>
<defs>
<clipPath id="clip0">
<rect width="32" height="38" fill="white"/>
</clipPath>
</defs>
</svg>
