<svg width="32" height="36" viewBox="0 0 32 36" fill="none" xmlns="http://www.w3.org/2000/svg">
<path d="M16.1417 19.0688C16.875 19.0688 17.4333 19.2586 17.8333 19.6383C18.6333 20.4047 18.65 21.9375 17.8167 22.7391C17.4083 23.1328 16.825 23.3367 16.0583 23.3367H13.8167V19.0688H16.1417V19.0688ZM31.4167 7.38281L23.25 0.492188C22.875 0.175781 22.3667 0 21.8333 0H21.3333V9H32V8.57109C32 8.12813 31.7917 7.69922 31.4167 7.38281ZM18.6667 9.5625V0H2C0.891667 0 0 0.752344 0 1.6875V34.3125C0 35.2477 0.891667 36 2 36H30C31.1083 36 32 35.2477 32 34.3125V11.25H20.6667C19.5667 11.25 18.6667 10.4906 18.6667 9.5625ZM23.0833 21.1781C23.0833 27.5273 15.6833 26.6344 13.825 26.6344V30.6562C13.825 31.1203 13.375 31.5 12.825 31.5H10.2583C9.70833 31.5 9.25833 31.1203 9.25833 30.6562V16.6078C9.25833 16.1437 9.70833 15.7641 10.2583 15.7641H17.0083C20.7167 15.7641 23.0833 18.0703 23.0833 21.1781Z" fill="#E67C00"/>
</svg>
