<svg width="32" height="36" viewBox="0 0 32 36" fill="none" xmlns="http://www.w3.org/2000/svg">
<path d="M18.6667 0V9.5625C18.6667 10.4906 19.5667 11.25 20.6667 11.25H32V34.3125C32 35.2477 31.1083 36 30 36H2C0.891667 36 0 35.2477 0 34.3125V1.6875C0 0.752344 0.891667 0 2 0H18.6667Z" fill="#91919F"/>
<path d="M32 9V8.57109C32 8.12813 31.7917 7.69922 31.4167 7.38281L23.2583 0.492188C22.8833 0.175781 22.375 0 21.8417 0H21.3333V9H32Z" fill="#91919F"/>
<path d="M9.43665 21.3461C9.06555 21.3461 8.74286 21.2128 8.46857 20.9462C8.19427 20.663 8.05713 20.3297 8.05713 19.9465V18.9102C8.05713 18.527 8.19427 18.1937 8.46857 17.9105C8.74286 17.6272 9.06555 17.4856 9.43665 17.4856H20.6776C21.0487 17.4856 21.3714 17.6272 21.6457 17.9105C21.92 18.1937 22.0571 18.527 22.0571 18.9102V19.9465C22.0571 20.3297 21.92 20.663 21.6457 20.9462C21.3714 21.2128 21.0487 21.3461 20.6776 21.3461H17.4345C17.3054 21.3461 17.2409 21.4211 17.2409 21.571V30.461C17.2409 30.8442 17.1038 31.1775 16.8295 31.4607C16.5552 31.744 16.2325 31.8856 15.8614 31.8856H14.2529C13.8818 31.8856 13.5591 31.744 13.2848 31.4607C13.0105 31.1775 12.8734 30.8442 12.8734 30.461V21.571C12.8734 21.4211 12.8088 21.3461 12.6797 21.3461H9.43665Z" fill="white"/>
</svg>
