<svg width="119" height="124" viewBox="0 0 119 124" fill="none" xmlns="http://www.w3.org/2000/svg">
<path opacity="0.3" d="M84.7814 29.3398C84.8307 29.347 84.8811 29.3425 84.9284 29.3268C84.9757 29.311 85.0187 29.2843 85.0538 29.2489C85.0889 29.2136 85.1153 29.1704 85.1307 29.123C85.1462 29.0756 85.1503 29.0252 85.1427 28.9759C85.1352 28.9266 85.1161 28.8798 85.0872 28.8391C85.0582 28.7985 85.0202 28.7653 84.976 28.7421C84.9319 28.7188 84.8829 28.7063 84.833 28.7054C84.7832 28.7046 84.7338 28.7154 84.6889 28.7371L83.4804 28.9252L83.4453 28.6956L84.6538 28.5075C84.7153 28.4778 84.7656 28.4292 84.7974 28.3688C84.8291 28.3084 84.8407 28.2394 84.8304 28.172C84.82 28.1045 84.7883 28.0422 84.7399 27.9941C84.6914 27.946 84.6289 27.9147 84.5613 27.9048L83.3496 28.0961L83.0913 26.4284L79.4625 23.1504L31.9277 110.522L35.5693 112.984L95.1161 103.705L94.4529 99.4318L95.6614 99.2437C95.7111 99.2517 95.7619 99.2479 95.8099 99.2325C95.8578 99.2172 95.9014 99.1907 95.9371 99.1553C95.9728 99.1198 95.9996 99.0764 96.0154 99.0286C96.0311 98.9809 96.0353 98.93 96.0276 98.8803C96.02 98.8306 96.0006 98.7834 95.9712 98.7425C95.9418 98.7017 95.9032 98.6684 95.8584 98.6454C95.8137 98.6224 95.7641 98.6102 95.7138 98.61C95.6635 98.6098 95.6139 98.6215 95.5689 98.6442L94.3572 98.8323L94.3221 98.5995L95.5339 98.4114C95.5731 98.4056 95.6108 98.392 95.6448 98.3715C95.6788 98.351 95.7084 98.3239 95.7318 98.2919C95.7552 98.2598 95.7721 98.2234 95.7813 98.1848C95.7906 98.1462 95.7921 98.1062 95.7858 98.067C95.7703 97.9887 95.726 97.919 95.6616 97.8718C95.5973 97.8246 95.5175 97.8032 95.4382 97.8119L94.2296 98L93.8789 95.752L95.0906 95.5638C95.1494 95.5339 95.1975 95.4864 95.2282 95.4279C95.2589 95.3694 95.2707 95.3029 95.2619 95.2374C95.2532 95.172 95.2243 95.1109 95.1794 95.0626C95.1344 95.0142 95.0755 94.981 95.0109 94.9675L93.8024 95.1557L93.7673 94.9261L94.9758 94.7379C95.0373 94.7083 95.0876 94.6597 95.1194 94.5993C95.1511 94.5389 95.1627 94.4699 95.1524 94.4024C95.142 94.335 95.1103 94.2726 95.0619 94.2245C95.0134 94.1764 94.9509 94.1452 94.8834 94.1353L93.6716 94.3234L93.324 92.0913L94.5326 91.9C94.572 91.8945 94.61 91.8812 94.6442 91.8608C94.6784 91.8404 94.7081 91.8134 94.7316 91.7812C94.7551 91.7491 94.7719 91.7125 94.781 91.6738C94.7901 91.635 94.7913 91.5948 94.7845 91.5556C94.769 91.4779 94.7252 91.4087 94.6616 91.3615C94.5979 91.3144 94.5189 91.2926 94.4401 91.3005L93.2284 91.4886L93.1933 91.259L94.4018 91.0709C94.4633 91.0412 94.5136 90.9926 94.5454 90.9322C94.5772 90.8718 94.5887 90.8028 94.5784 90.7354C94.568 90.6679 94.5363 90.6055 94.4879 90.5574C94.4395 90.5094 94.3769 90.4781 94.3094 90.4682L93.1008 90.6563L92.7501 88.4242L93.9586 88.2361C94.0201 88.2064 94.0704 88.1578 94.1022 88.0974C94.1339 88.037 94.1455 87.968 94.1352 87.9006C94.1248 87.8331 94.0931 87.7707 94.0447 87.7227C93.9962 87.6746 93.9337 87.6433 93.8661 87.6334L92.6576 87.8215L92.6193 87.5919L93.8311 87.4038C93.9088 87.3876 93.9777 87.343 94.0243 87.2788C94.0708 87.2145 94.0918 87.1351 94.083 87.0562C94.0776 87.0168 94.0643 86.9788 94.0439 86.9446C94.0235 86.9104 93.9964 86.8807 93.9642 86.8572C93.9321 86.8337 93.8956 86.8169 93.8568 86.8078C93.818 86.7987 93.7778 86.7975 93.7386 86.8043L92.5269 86.9925L92.1793 84.7603L93.3878 84.5722C93.4655 84.556 93.5344 84.5114 93.581 84.4471C93.6276 84.3829 93.6485 84.3035 93.6397 84.2246C93.6343 84.1852 93.621 84.1472 93.6006 84.113C93.5802 84.0788 93.5532 84.0491 93.521 84.0256C93.4889 84.0021 93.4523 83.9853 93.4136 83.9762C93.3748 83.9671 93.3346 83.9659 93.2953 83.9727L92.0836 84.1608L92.0485 83.9281L93.2571 83.7399C93.3067 83.748 93.3576 83.7442 93.4055 83.7288C93.4534 83.7135 93.497 83.687 93.5328 83.6515C93.5685 83.6161 93.5953 83.5727 93.611 83.5249C93.6268 83.4771 93.631 83.4263 93.6233 83.3766C93.6156 83.3268 93.5963 83.2796 93.5669 83.2388C93.5375 83.198 93.4988 83.1647 93.4541 83.1417C93.4094 83.1186 93.3598 83.1065 93.3095 83.1063C93.2592 83.1061 93.2095 83.1178 93.1646 83.1404L91.9561 83.3286L91.6053 81.0805L92.8138 80.8924C92.8635 80.9004 92.9144 80.8966 92.9623 80.8813C93.0102 80.8659 93.0538 80.8394 93.0895 80.804C93.1252 80.7685 93.1521 80.7252 93.1678 80.6774C93.1835 80.6296 93.1877 80.5787 93.1801 80.529C93.1724 80.4793 93.1531 80.4321 93.1237 80.3912C93.0943 80.3504 93.0556 80.3171 93.0109 80.2941C92.9661 80.2711 92.9166 80.2589 92.8663 80.2587C92.8159 80.2585 92.7663 80.2702 92.7214 80.2929L91.5128 80.481L91.4746 80.2482L92.6863 80.0601C92.736 80.0678 92.7867 80.0636 92.8345 80.0479C92.8822 80.0322 92.9256 80.0055 92.961 79.9699C92.9964 79.9343 93.023 79.8908 93.0384 79.8429C93.0538 79.7951 93.0578 79.7443 93.0498 79.6947C93.0419 79.6451 93.0224 79.598 92.9928 79.5574C92.9633 79.5168 92.9245 79.4837 92.8798 79.4609C92.835 79.438 92.7855 79.4261 92.7352 79.4261C92.685 79.426 92.6354 79.4379 92.5906 79.4606L91.3821 79.6488L91.0313 77.4007L92.2431 77.2126C92.2927 77.2202 92.3435 77.216 92.3912 77.2004C92.439 77.1847 92.4823 77.1579 92.5178 77.1223C92.5532 77.0867 92.5797 77.0432 92.5952 76.9954C92.6106 76.9476 92.6145 76.8968 92.6066 76.8472C92.5987 76.7975 92.5792 76.7505 92.5496 76.7099C92.5201 76.6692 92.4813 76.6361 92.4365 76.6133C92.3918 76.5905 92.3422 76.5786 92.292 76.5785C92.2417 76.5785 92.1922 76.5903 92.1474 76.6131L90.9389 76.8012L90.9038 76.5684L92.1123 76.3803C92.19 76.3648 92.2592 76.321 92.3064 76.2573C92.3535 76.1937 92.3753 76.1147 92.3674 76.0359C92.3519 75.9576 92.3076 75.8879 92.2433 75.8407C92.1789 75.7935 92.0992 75.7721 92.0198 75.7808L90.8081 75.9689L90.4605 73.7368L91.6691 73.5487C91.7468 73.5332 91.816 73.4894 91.8631 73.4257C91.9103 73.3621 91.932 73.2831 91.9242 73.2043C91.9087 73.126 91.8644 73.0563 91.8 73.0091C91.7357 72.9619 91.656 72.9405 91.5766 72.9492L90.3681 73.1373L90.3298 72.9077L91.5415 72.7196C91.603 72.6897 91.6533 72.6408 91.6849 72.5802C91.7165 72.5195 91.7278 72.4503 91.7171 72.3828C91.7064 72.3153 91.6742 72.2529 91.6254 72.2051C91.5765 72.1572 91.5136 72.1263 91.4459 72.1169L90.2373 72.305L89.8866 70.0729L91.0983 69.8848C91.1598 69.8549 91.2101 69.806 91.2417 69.7454C91.2733 69.6847 91.2846 69.6155 91.2739 69.548C91.2631 69.4804 91.231 69.4181 91.1822 69.3703C91.1333 69.3224 91.0704 69.2915 91.0026 69.2821L89.7941 69.4703L89.759 69.2407L90.9676 69.0525C91.029 69.0229 91.0793 68.9742 91.1111 68.9138C91.1429 68.8535 91.1545 68.7845 91.1441 68.717C91.1338 68.6495 91.102 68.5872 91.0536 68.5391C91.0052 68.491 90.9426 68.4597 90.8751 68.4498L89.6634 68.6412L89.3158 66.409L90.5243 66.2209C90.5858 66.1912 90.6361 66.1426 90.6679 66.0822C90.6996 66.0218 90.7112 65.9528 90.7009 65.8854C90.6905 65.8179 90.6588 65.7556 90.6104 65.7075C90.5619 65.6594 90.4994 65.6281 90.4318 65.6182L89.2201 65.8064L89.185 65.5768L90.3936 65.3886C90.4432 65.3967 90.4941 65.3929 90.542 65.3775C90.5899 65.3622 90.6335 65.3357 90.6693 65.3003C90.705 65.2648 90.7318 65.2214 90.7475 65.1736C90.7633 65.1258 90.7675 65.075 90.7598 65.0253C90.7521 64.9755 90.7328 64.9283 90.7034 64.8875C90.674 64.8467 90.6353 64.8134 90.5906 64.7904C90.5459 64.7673 90.4963 64.7552 90.446 64.755C90.3957 64.7548 90.346 64.7665 90.3011 64.7892L89.0926 64.9773L88.7418 62.7292L89.9503 62.5411C90 62.5491 90.0509 62.5453 90.0988 62.53C90.1467 62.5146 90.1903 62.4881 90.226 62.4527C90.2617 62.4173 90.2886 62.3739 90.3043 62.3261C90.32 62.2783 90.3243 62.2274 90.3166 62.1777C90.3089 62.128 90.2896 62.0808 90.2602 62.04C90.2308 61.9991 90.1921 61.9658 90.1474 61.9428C90.1026 61.9198 90.0531 61.9077 90.0028 61.9075C89.9524 61.9072 89.9028 61.9189 89.8579 61.9416L88.6493 62.1297L88.6143 61.897L89.8228 61.7088C89.8829 61.6785 89.9319 61.6299 89.9627 61.57C89.9936 61.5101 90.0046 61.442 89.9944 61.3755C89.9841 61.3089 89.953 61.2473 89.9056 61.1995C89.8582 61.1517 89.7968 61.1201 89.7303 61.1093L88.5186 61.2975L88.171 59.0653L89.3796 58.8772C89.4397 58.8469 89.4887 58.7983 89.5195 58.7384C89.5503 58.6785 89.5614 58.6104 89.5511 58.5439C89.5409 58.4773 89.5098 58.4157 89.4624 58.3679C89.4149 58.3201 89.3536 58.2885 89.2871 58.2777L88.0754 58.4659L88.0403 58.2331L89.2488 58.0449C89.3265 58.0295 89.3957 57.9857 89.4428 57.922C89.49 57.8583 89.5118 57.7794 89.5039 57.7006C89.4884 57.6222 89.4441 57.5526 89.3798 57.5054C89.3154 57.4581 89.2357 57.4368 89.1563 57.4455L87.9478 57.6336L87.597 55.3855L88.8056 55.1974C88.8552 55.2054 88.9061 55.2016 88.954 55.1863C89.0019 55.1709 89.0455 55.1444 89.0813 55.109C89.117 55.0735 89.1438 55.0302 89.1595 54.9824C89.1753 54.9346 89.1795 54.8837 89.1718 54.834C89.1641 54.7843 89.1448 54.7371 89.1154 54.6962C89.086 54.6554 89.0473 54.6221 89.0026 54.5991C88.9579 54.5761 88.9083 54.564 88.858 54.5638C88.8077 54.5635 88.758 54.5752 88.7131 54.5979L87.5046 54.786L87.4663 54.5564L88.678 54.3683C88.7395 54.3384 88.7898 54.2895 88.8214 54.2289C88.853 54.1683 88.8643 54.0991 88.8536 54.0315C88.8429 53.964 88.8107 53.9017 88.7619 53.8538C88.713 53.8059 88.6501 53.775 88.5824 53.7656L87.3738 53.9538L87.0231 51.7216L88.2348 51.5303C88.2949 51.5 88.3439 51.4514 88.3747 51.3915C88.4056 51.3316 88.4166 51.2635 88.4064 51.197C88.3961 51.1304 88.365 51.0688 88.3176 51.021C88.2702 50.9732 88.2088 50.9416 88.1423 50.9308L86.9306 51.119L86.8955 50.8894L88.104 50.7012C88.1655 50.6716 88.2158 50.623 88.2476 50.5626C88.2794 50.5022 88.2909 50.4332 88.2806 50.3657C88.2702 50.2983 88.2385 50.2359 88.1901 50.1878C88.1417 50.1397 88.0791 50.1084 88.0116 50.0986L86.803 50.2867L86.4523 48.0546L87.6608 47.8664C87.7102 47.8737 87.7605 47.8692 87.8078 47.8534C87.8551 47.8377 87.8981 47.811 87.9332 47.7756C87.9684 47.7402 87.9947 47.6971 88.0102 47.6497C88.0256 47.6022 88.0297 47.5518 88.0222 47.5026C88.0146 47.4533 87.9956 47.4064 87.9666 47.3658C87.9377 47.3252 87.8996 47.2919 87.8555 47.2687C87.8113 47.2455 87.7624 47.233 87.7125 47.2321C87.6626 47.2312 87.6133 47.2421 87.5683 47.2638L86.3598 47.4519L86.3215 47.2223L87.5333 47.0342C87.5829 47.0418 87.6337 47.0377 87.6814 47.022C87.7292 47.0063 87.7725 46.9796 87.808 46.9439C87.8434 46.9083 87.8699 46.8648 87.8854 46.817C87.9008 46.7692 87.9047 46.7184 87.8968 46.6688C87.8889 46.6192 87.8694 46.5721 87.8398 46.5315C87.8102 46.4908 87.7715 46.4578 87.7267 46.4349C87.682 46.4121 87.6325 46.4002 87.5822 46.4002C87.532 46.4001 87.4824 46.4119 87.4376 46.4347L86.2291 46.6228L85.8783 44.3907L87.09 44.2026C87.1502 44.172 87.1991 44.1232 87.2298 44.063C87.2604 44.0029 87.2712 43.9346 87.2606 43.868C87.25 43.8013 87.2185 43.7398 87.1706 43.6922C87.1228 43.6446 87.0611 43.6134 86.9944 43.6031L85.7858 43.7912L85.7507 43.5584L86.9593 43.3703C87.009 43.3783 87.0598 43.3745 87.1077 43.3592C87.1557 43.3438 87.1992 43.3173 87.235 43.2819C87.2707 43.2465 87.2975 43.2031 87.3133 43.1553C87.329 43.1075 87.3332 43.0566 87.3255 43.0069C87.3179 42.9572 87.2985 42.91 87.2691 42.8692C87.2397 42.8283 87.2011 42.795 87.1563 42.772C87.1116 42.749 87.062 42.7369 87.0117 42.7367C86.9614 42.7364 86.9117 42.7481 86.8668 42.7708L85.6551 42.9589L85.3075 40.7109L86.516 40.5227C86.5657 40.5308 86.6166 40.527 86.6645 40.5116C86.7124 40.4963 86.756 40.4698 86.7917 40.4343C86.8275 40.3989 86.8543 40.3555 86.87 40.3077C86.8858 40.2599 86.89 40.2091 86.8823 40.1594C86.8746 40.1096 86.8553 40.0624 86.8259 40.0216C86.7965 39.9808 86.7578 39.9475 86.7131 39.9245C86.6683 39.9014 86.6188 39.8893 86.5685 39.8891C86.5182 39.8889 86.4685 39.9006 86.4236 39.9232L85.2118 40.1114L85.1768 39.8786L86.3885 39.6905C86.4487 39.6599 86.4976 39.6111 86.5283 39.5509C86.5589 39.4908 86.5697 39.4225 86.5591 39.3559C86.5484 39.2892 86.5169 39.2277 86.4691 39.1801C86.4212 39.1325 86.3595 39.1013 86.2928 39.091L85.0843 39.2791L84.7335 37.031L85.9453 36.8429C86.0054 36.8124 86.0544 36.7635 86.085 36.7034C86.1157 36.6433 86.1265 36.575 86.1158 36.5083C86.1052 36.4417 86.0737 36.3801 86.0259 36.3325C85.978 36.2849 85.9163 36.2537 85.8496 36.2434L84.6411 36.4316L84.606 36.1988L85.8145 36.0106C85.8922 35.9952 85.9614 35.9514 86.0086 35.8877C86.0557 35.824 86.0775 35.7451 86.0696 35.6663C86.0541 35.5879 86.0098 35.5183 85.9455 35.4711C85.8811 35.4238 85.8014 35.4025 85.722 35.4112L84.5103 35.5993L84.1628 33.3512L85.3713 33.1631C85.449 33.1476 85.5182 33.1038 85.5653 33.0401C85.6125 32.9765 85.6343 32.8975 85.6264 32.8187C85.6109 32.7404 85.5666 32.6707 85.5022 32.6235C85.4379 32.5763 85.3582 32.5549 85.2788 32.5636L84.0671 32.7517L84.032 32.5221L85.2405 32.334C85.302 32.3043 85.3523 32.2557 85.3841 32.1953C85.4159 32.1349 85.4274 32.0659 85.4171 31.9985C85.4067 31.931 85.375 31.8687 85.3266 31.8206C85.2782 31.7725 85.2156 31.7412 85.1481 31.7313L83.9395 31.9195L83.5888 29.6873L84.7814 29.3398Z" fill="black"/>
<path d="M33.8495 111.355L89.0628 102.764L76.7415 23.5713L21.525 32.1809C21.1902 32.233 20.8689 32.3505 20.5795 32.5268C20.2901 32.7031 20.0383 32.9346 19.8384 33.2082C19.6385 33.4819 19.4945 33.7922 19.4146 34.1214C19.3347 34.4507 19.3204 34.7925 19.3726 35.1273L30.9159 109.202C31.0204 109.876 31.3879 110.481 31.9378 110.885C32.4878 111.288 33.1752 111.457 33.8495 111.355Z" fill="#263238" stroke="#263238" stroke-miterlimit="10" stroke-linecap="round"/>
<path d="M34.875 108.587L31.7242 109.077C31.5028 109.112 31.2767 109.057 31.0957 108.925C30.9148 108.793 30.7937 108.594 30.7592 108.373L29.6505 101.252C29.616 101.03 29.6709 100.804 29.8031 100.623C29.9354 100.442 30.134 100.321 30.3555 100.287L33.5063 99.7962L34.875 108.587Z" fill="white" stroke="#263238" stroke-miterlimit="10" stroke-linecap="round"/>
<path d="M33.4395 99.3447L30.2887 99.8353C30.0672 99.8698 29.8411 99.8149 29.6602 99.6827C29.4792 99.5505 29.3582 99.3518 29.3237 99.1304L28.215 92.0096C28.1805 91.7881 28.2354 91.562 28.3676 91.3811C28.4998 91.2001 28.6985 91.0791 28.9199 91.0446L32.0707 90.554L33.4395 99.3447Z" fill="#65AEFF" stroke="#263238" stroke-miterlimit="10" stroke-linecap="round"/>
<path d="M31.9961 90.0889L28.8453 90.5795C28.6239 90.6139 28.3978 90.559 28.2168 90.4268C28.0359 90.2946 27.9148 90.0959 27.8803 89.8745L26.7716 82.7537C26.7371 82.5323 26.792 82.3062 26.9242 82.1252C27.0564 81.9443 27.2551 81.8232 27.4766 81.7887L30.6274 81.2982L31.9961 90.0889Z" fill="white" stroke="#263238" stroke-miterlimit="10" stroke-linecap="round"/>
<path d="M30.5625 80.8516L27.4117 81.3421C27.1903 81.3766 26.9642 81.3217 26.7832 81.1895C26.6023 81.0573 26.4812 80.8586 26.4467 80.6372L25.338 73.5164C25.3035 73.295 25.3584 73.0689 25.4906 72.8879C25.6229 72.707 25.8215 72.5859 26.043 72.5514L29.1938 72.0609L30.5625 80.8516Z" fill="#65AEFF" stroke="#263238" stroke-miterlimit="10" stroke-linecap="round"/>
<path d="M24.6162 63.3098L26.5008 63.0164L21.6953 32.1493L79.4628 23.1602L91.7842 102.35L34.0199 111.329L27.8687 71.8078L25.9842 72.1012C25.7639 72.1341 25.5396 72.0785 25.3603 71.9464C25.181 71.8143 25.0614 71.6166 25.0276 71.3965L23.9019 64.276C23.8848 64.1655 23.8897 64.0528 23.9164 63.9443C23.943 63.8358 23.991 63.7337 24.0574 63.6438C24.1238 63.5539 24.2074 63.4781 24.3034 63.4208C24.3993 63.3635 24.5056 63.3257 24.6162 63.3098Z" fill="white" stroke="#263238" stroke-miterlimit="10" stroke-linecap="round"/>
<path d="M30.791 49.0107L30.9823 53.3379L52.5383 49.8207L51.9739 46.1982L30.791 49.0107Z" fill="#65AEFF"/>
<path d="M76.2498 28.0043C76.2816 28.2259 76.3787 28.4331 76.5286 28.5995C76.6786 28.7658 76.8746 28.8838 77.0918 28.9384C77.309 28.993 77.5375 28.9818 77.7483 28.9062C77.9591 28.8305 78.1427 28.6939 78.2756 28.5137C78.4085 28.3334 78.4848 28.1177 78.4948 27.894C78.5048 27.6703 78.448 27.4486 78.3317 27.2573C78.2153 27.0659 78.0447 26.9135 77.8415 26.8194C77.6383 26.7252 77.4116 26.6937 77.1904 26.7288C76.8975 26.7752 76.6346 26.935 76.4586 27.1737C76.2826 27.4123 76.2076 27.7107 76.2498 28.0043Z" fill="#263238" stroke="#263238" stroke-miterlimit="10" stroke-linecap="round"/>
<path d="M77.4727 27.653L80.8464 27.1268C80.9241 27.1107 80.993 27.0661 81.0396 27.0018C81.0862 26.9375 81.1071 26.8582 81.0983 26.7793C81.0822 26.7016 81.0376 26.6327 80.9733 26.5861C80.909 26.5395 80.8297 26.5186 80.7508 26.5274L77.3898 27.0471C77.3115 27.0626 77.2419 27.1069 77.1946 27.1713C77.1474 27.2356 77.126 27.3154 77.1347 27.3947C77.1494 27.4718 77.192 27.5408 77.2544 27.5884C77.3167 27.6361 77.3945 27.6591 77.4727 27.653Z" fill="white" stroke="#263238" stroke-miterlimit="10" stroke-linecap="round"/>
<path d="M77.6125 28.482L80.9798 27.9591C81.0581 27.9436 81.1278 27.8993 81.175 27.8349C81.2222 27.7706 81.2436 27.6908 81.2349 27.6115C81.2194 27.5332 81.1751 27.4635 81.1108 27.4163C81.0464 27.3691 80.9667 27.3477 80.8874 27.3564L77.5137 27.8825C77.4359 27.8987 77.367 27.9433 77.3204 28.0076C77.2739 28.0719 77.2529 28.1512 77.2617 28.2301C77.2779 28.3084 77.323 28.3778 77.388 28.4245C77.453 28.4711 77.5331 28.4917 77.6125 28.482Z" fill="white" stroke="#263238" stroke-miterlimit="10" stroke-linecap="round"/>
<path d="M76.8334 31.6806C76.8647 31.9018 76.961 32.1087 77.1099 32.2751C77.2589 32.4416 77.4539 32.5601 77.6702 32.6157C77.8866 32.6713 78.1146 32.6614 78.3253 32.5874C78.5361 32.5133 78.7201 32.3784 78.8541 32.1997C78.9882 32.021 79.0662 31.8065 79.0783 31.5835C79.0903 31.3604 79.036 31.1388 78.922 30.9466C78.8081 30.7545 78.6397 30.6005 78.4382 30.5041C78.2367 30.4077 78.0111 30.3732 77.79 30.4051C77.4942 30.4477 77.2274 30.606 77.048 30.8451C76.8687 31.0842 76.7915 31.3847 76.8334 31.6806Z" fill="#263238" stroke="#263238" stroke-miterlimit="10" stroke-linecap="round"/>
<path d="M78.0546 31.3297L81.4251 30.8067C81.5034 30.7912 81.5731 30.7469 81.6203 30.6826C81.6676 30.6182 81.6889 30.5385 81.6802 30.4592C81.6648 30.3808 81.6205 30.3112 81.5561 30.264C81.4917 30.2167 81.412 30.1953 81.3327 30.204L77.959 30.7302C77.8812 30.7464 77.8124 30.791 77.7658 30.8552C77.7192 30.9195 77.6982 30.9989 77.707 31.0778C77.7232 31.1555 77.7678 31.2244 77.8321 31.271C77.8964 31.3176 77.9757 31.3385 78.0546 31.3297Z" fill="white" stroke="#263238" stroke-miterlimit="10" stroke-linecap="round"/>
<path d="M78.1835 32.149L81.5572 31.6261C81.6349 31.6099 81.7038 31.5653 81.7504 31.501C81.7969 31.4367 81.8179 31.3574 81.8091 31.2785C81.7936 31.2002 81.7493 31.1305 81.6849 31.0833C81.6206 31.0361 81.5408 31.0147 81.4615 31.0234L78.091 31.5495C78.0127 31.565 77.943 31.6093 77.8958 31.6737C77.8486 31.738 77.8272 31.8178 77.8359 31.8971C77.8521 31.9748 77.8967 32.0437 77.9609 32.0903C78.0252 32.1369 78.1046 32.1578 78.1835 32.149Z" fill="white" stroke="#263238" stroke-miterlimit="10" stroke-linecap="round"/>
<path d="M77.3963 35.3607C77.4281 35.5824 77.5252 35.7896 77.6751 35.9559C77.8251 36.1222 78.0211 36.2402 78.2383 36.2948C78.4555 36.3495 78.684 36.3382 78.8948 36.2626C79.1056 36.187 79.2891 36.0503 79.4221 35.8701C79.555 35.6899 79.6313 35.4742 79.6413 35.2504C79.6513 35.0267 79.5945 34.8051 79.4781 34.6137C79.3618 34.4223 79.1912 34.2699 78.988 34.1758C78.7847 34.0817 78.5581 34.0502 78.3369 34.0852C78.044 34.1316 77.7811 34.2914 77.6051 34.5301C77.4291 34.7688 77.3541 35.0671 77.3963 35.3607Z" fill="#263238" stroke="#263238" stroke-miterlimit="10" stroke-linecap="round"/>
<path d="M78.6268 35.0182L82.0005 34.4952C82.0782 34.479 82.1471 34.4344 82.1937 34.3701C82.2403 34.3059 82.2612 34.2265 82.2524 34.1476C82.2369 34.0693 82.1926 33.9997 82.1283 33.9524C82.0639 33.9052 81.9842 33.8838 81.9049 33.8925L78.5343 34.4187C78.456 34.4342 78.3864 34.4785 78.3392 34.5428C78.2919 34.6072 78.2705 34.6869 78.2792 34.7662C78.2954 34.844 78.34 34.9129 78.4043 34.9594C78.4686 35.006 78.5479 35.027 78.6268 35.0182Z" fill="white" stroke="#263238" stroke-miterlimit="10" stroke-linecap="round"/>
<path d="M78.7456 35.8414L82.1161 35.3153C82.1939 35.2998 82.263 35.256 82.3102 35.1923C82.3573 35.1286 82.3791 35.0497 82.3712 34.9709C82.3558 34.8926 82.3115 34.8229 82.2471 34.7757C82.1827 34.7284 82.103 34.7071 82.0237 34.7158L78.6532 35.2419C78.5754 35.2574 78.5063 35.3012 78.4591 35.3649C78.412 35.4285 78.3902 35.5075 78.3981 35.5863C78.4135 35.6646 78.4578 35.7343 78.5222 35.7815C78.5866 35.8287 78.6663 35.8501 78.7456 35.8414Z" fill="white" stroke="#263238" stroke-miterlimit="10" stroke-linecap="round"/>
<path d="M77.9662 39.04C77.9975 39.2612 78.0938 39.4681 78.2427 39.6345C78.3917 39.801 78.5867 39.9195 78.8031 39.9751C79.0194 40.0307 79.2474 40.0208 79.4582 39.9467C79.6689 39.8727 79.8529 39.7377 79.987 39.559C80.121 39.3803 80.199 39.1659 80.2111 38.9428C80.2232 38.7198 80.1688 38.4982 80.0549 38.306C79.9409 38.1139 79.7726 37.9598 79.571 37.8635C79.3695 37.7671 79.1439 37.7326 78.9229 37.7645C78.627 37.8071 78.3602 37.9653 78.1809 38.2045C78.0015 38.4436 77.9243 38.744 77.9662 39.04Z" fill="#263238" stroke="#263238" stroke-miterlimit="10" stroke-linecap="round"/>
<path d="M79.1998 38.6891L82.5735 38.1629C82.6512 38.1475 82.7204 38.1036 82.7675 38.04C82.8147 37.9763 82.8365 37.8974 82.8286 37.8185C82.8131 37.7402 82.7688 37.6706 82.7045 37.6233C82.6401 37.5761 82.5604 37.5547 82.481 37.5634L79.1073 38.0896C79.0681 38.0954 79.0303 38.109 78.9964 38.1295C78.9624 38.15 78.9328 38.1771 78.9094 38.2091C78.8859 38.2411 78.8691 38.2775 78.8598 38.3161C78.8506 38.3547 78.8491 38.3948 78.8554 38.434C78.8709 38.5117 78.9147 38.5808 78.9784 38.628C79.042 38.6751 79.121 38.6969 79.1998 38.6891Z" fill="white" stroke="#263238" stroke-miterlimit="10" stroke-linecap="round"/>
<path d="M79.3268 39.5211L82.7005 38.9949C82.7401 38.9891 82.7781 38.9755 82.8124 38.9547C82.8466 38.934 82.8763 38.9067 82.8998 38.8743C82.9232 38.8419 82.94 38.8051 82.949 38.7661C82.9581 38.7272 82.9593 38.6868 82.9524 38.6474C82.9466 38.6081 82.9331 38.5704 82.9125 38.5364C82.892 38.5024 82.865 38.4729 82.8329 38.4494C82.8009 38.426 82.7645 38.4091 82.7259 38.3999C82.6873 38.3906 82.6472 38.3891 82.6081 38.3955L79.2344 38.9184C79.1566 38.9346 79.0877 38.9792 79.0412 39.0435C78.9946 39.1077 78.9736 39.1871 78.9824 39.266C78.9979 39.3437 79.0417 39.4129 79.1054 39.46C79.169 39.5072 79.248 39.5289 79.3268 39.5211Z" fill="white" stroke="#263238" stroke-miterlimit="10" stroke-linecap="round"/>
<path d="M78.5408 42.7201C78.5726 42.9417 78.6697 43.1489 78.8197 43.3153C78.9696 43.4816 79.1656 43.5996 79.3828 43.6542C79.6 43.7088 79.8286 43.6976 80.0393 43.622C80.2501 43.5463 80.4337 43.4097 80.5666 43.2295C80.6995 43.0493 80.7758 42.8335 80.7858 42.6098C80.7958 42.3861 80.739 42.1644 80.6227 41.9731C80.5063 41.7817 80.3357 41.6293 80.1325 41.5352C79.9293 41.4411 79.7027 41.4095 79.4815 41.4446C79.1885 41.491 78.9257 41.6508 78.7496 41.8895C78.5736 42.1282 78.4986 42.4265 78.5408 42.7201Z" fill="#263238" stroke="#263238" stroke-miterlimit="10" stroke-linecap="round"/>
<path d="M79.7721 42.3687L83.1458 41.8426C83.2236 41.8264 83.2925 41.7818 83.339 41.7175C83.3856 41.6533 83.4066 41.5739 83.3977 41.495C83.3919 41.4558 83.3784 41.418 83.3578 41.3841C83.3373 41.3501 83.3103 41.3205 83.2782 41.2971C83.2462 41.2736 83.2098 41.2568 83.1712 41.2475C83.1326 41.2383 83.0926 41.2368 83.0534 41.2431L79.6797 41.7661C79.6019 41.7822 79.533 41.8268 79.4865 41.8911C79.4399 41.9554 79.4189 42.0347 79.4278 42.1136C79.4432 42.1913 79.487 42.2605 79.5507 42.3077C79.6144 42.3548 79.6933 42.3766 79.7721 42.3687Z" fill="white" stroke="#263238" stroke-miterlimit="10" stroke-linecap="round"/>
<path d="M79.9022 43.2011L83.2727 42.6718C83.351 42.6563 83.4207 42.612 83.4679 42.5476C83.5151 42.4833 83.5365 42.4035 83.5278 42.3242C83.5116 42.2465 83.4671 42.1776 83.4028 42.131C83.3385 42.0844 83.2591 42.0635 83.1802 42.0723L79.8097 42.5952C79.7314 42.6107 79.6618 42.655 79.6145 42.7194C79.5673 42.7837 79.5459 42.8635 79.5546 42.9428C79.5694 43.0217 79.6134 43.0921 79.6779 43.14C79.7423 43.1879 79.8224 43.2097 79.9022 43.2011Z" fill="white" stroke="#263238" stroke-miterlimit="10" stroke-linecap="round"/>
<path d="M79.1111 46.3993C79.1454 46.6193 79.244 46.8242 79.3944 46.9883C79.5448 47.1524 79.7404 47.2683 79.9565 47.3216C80.1727 47.3748 80.3998 47.3629 80.6092 47.2875C80.8186 47.212 81.001 47.0763 81.1335 46.8974C81.266 46.7185 81.3427 46.5045 81.3539 46.2821C81.365 46.0598 81.3102 45.8391 81.1963 45.6479C81.0824 45.4566 80.9145 45.3033 80.7137 45.2072C80.5129 45.1112 80.2881 45.0766 80.0678 45.1079C79.9197 45.1289 79.7773 45.1791 79.6489 45.2557C79.5204 45.3322 79.4084 45.4334 79.3194 45.5536C79.2304 45.6737 79.1662 45.8104 79.1304 45.9556C79.0946 46.1008 79.0881 46.2516 79.1111 46.3993Z" fill="#263238" stroke="#263238" stroke-miterlimit="10" stroke-linecap="round"/>
<path d="M80.3417 46.0485L83.7122 45.5224C83.7905 45.5069 83.8601 45.4626 83.9074 45.3982C83.9546 45.3339 83.976 45.2541 83.9673 45.1748C83.9511 45.0971 83.9065 45.0282 83.8422 44.9816C83.7779 44.935 83.6986 44.9141 83.6197 44.9229L80.2492 45.4458C80.1709 45.4613 80.1012 45.5056 80.054 45.57C80.0068 45.6343 79.9854 45.714 79.9941 45.7934C80.0096 45.8717 80.0539 45.9414 80.1182 45.9886C80.1826 46.0358 80.2623 46.0572 80.3417 46.0485Z" fill="white" stroke="#263238" stroke-miterlimit="10" stroke-linecap="round"/>
<path d="M80.4753 46.8775L83.849 46.3546C83.9273 46.3391 83.9969 46.2948 84.0442 46.2304C84.0914 46.1661 84.1128 46.0864 84.1041 46.007C84.0886 45.9287 84.0443 45.859 83.9799 45.8118C83.9156 45.7646 83.8358 45.7432 83.7565 45.7519L80.3828 46.278C80.3051 46.2942 80.2362 46.3388 80.1896 46.4031C80.143 46.4674 80.1221 46.5467 80.1309 46.6256C80.147 46.7027 80.1911 46.7711 80.2547 46.8177C80.3183 46.8642 80.3969 46.8855 80.4753 46.8775Z" fill="white" stroke="#263238" stroke-miterlimit="10" stroke-linecap="round"/>
<path d="M79.6853 50.0765C79.7172 50.2982 79.8142 50.5054 79.9642 50.6717C80.1141 50.8381 80.3102 50.9561 80.5274 51.0107C80.7446 51.0653 80.9731 51.0541 81.1839 50.9784C81.3947 50.9028 81.5782 50.7662 81.7111 50.5859C81.8441 50.4057 81.9204 50.19 81.9303 49.9663C81.9403 49.7425 81.8835 49.5209 81.7672 49.3295C81.6509 49.1382 81.4802 48.9857 81.277 48.8916C81.0738 48.7975 80.8472 48.766 80.626 48.801C80.3331 48.8474 80.0702 49.0073 79.8942 49.2459C79.7182 49.4846 79.6431 49.783 79.6853 50.0765Z" fill="#263238" stroke="#263238" stroke-miterlimit="10" stroke-linecap="round"/>
<path d="M80.9147 49.726L84.2884 49.203C84.3667 49.1875 84.4364 49.1432 84.4836 49.0789C84.5308 49.0145 84.5522 48.9348 84.5435 48.8554C84.5273 48.7777 84.4828 48.7088 84.4185 48.6622C84.3542 48.6157 84.2748 48.5947 84.1959 48.6035L80.8222 49.1265C80.7445 49.1427 80.6756 49.1873 80.629 49.2515C80.5825 49.3158 80.5615 49.3952 80.5703 49.4741C80.5757 49.5135 80.589 49.5515 80.6094 49.5857C80.6298 49.6199 80.6569 49.6496 80.6891 49.6731C80.7212 49.6966 80.7577 49.7134 80.7965 49.7225C80.8353 49.7316 80.8755 49.7328 80.9147 49.726Z" fill="white" stroke="#263238" stroke-miterlimit="10" stroke-linecap="round"/>
<path d="M81.0467 50.5572L84.4204 50.0343C84.4982 50.0181 84.5671 49.9735 84.6136 49.9092C84.6602 49.8449 84.6812 49.7656 84.6724 49.6867C84.6569 49.6084 84.6126 49.5387 84.5482 49.4915C84.4839 49.4443 84.4041 49.4229 84.3248 49.4316L80.9543 49.9577C80.876 49.9732 80.8063 50.0175 80.7591 50.0819C80.7118 50.1462 80.6905 50.226 80.6992 50.3053C80.7153 50.383 80.7599 50.4519 80.8242 50.4985C80.8885 50.5451 80.9678 50.566 81.0467 50.5572Z" fill="white" stroke="#263238" stroke-miterlimit="10" stroke-linecap="round"/>
<path d="M80.2595 53.7562C80.2914 53.9779 80.3885 54.1851 80.5384 54.3514C80.6884 54.5178 80.8844 54.6357 81.1016 54.6904C81.3188 54.745 81.5473 54.7337 81.7581 54.6581C81.9689 54.5825 82.1524 54.4459 82.2853 54.2656C82.4183 54.0854 82.4946 53.8697 82.5046 53.646C82.5146 53.4222 82.4578 53.2006 82.3414 53.0092C82.2251 52.8179 82.0545 52.6654 81.8512 52.5713C81.648 52.4772 81.4214 52.4457 81.2002 52.4807C80.9073 52.5271 80.6444 52.6869 80.4684 52.9256C80.2924 53.1643 80.2173 53.4627 80.2595 53.7562Z" fill="#263238" stroke="#263238" stroke-miterlimit="10" stroke-linecap="round"/>
<path d="M81.4901 53.4054L84.8638 52.8761C84.9415 52.8599 85.0104 52.8153 85.057 52.751C85.1036 52.6867 85.1245 52.6074 85.1157 52.5285C85.1002 52.4502 85.0559 52.3805 84.9916 52.3333C84.9272 52.2861 84.8475 52.2647 84.7681 52.2734L81.3976 52.7995C81.3193 52.815 81.2497 52.8593 81.2024 52.9237C81.1552 52.988 81.1338 53.0678 81.1425 53.1471C81.1573 53.226 81.2013 53.2964 81.2657 53.3443C81.3302 53.3922 81.4103 53.414 81.4901 53.4054Z" fill="white" stroke="#263238" stroke-miterlimit="10" stroke-linecap="round"/>
<path d="M81.6171 54.2379L84.9876 53.7117C85.0653 53.6963 85.1345 53.6525 85.1817 53.5888C85.2288 53.5251 85.2506 53.4462 85.2427 53.3673C85.2272 53.289 85.1829 53.2194 85.1186 53.1722C85.0542 53.1249 84.9745 53.1036 84.8952 53.1123L81.5215 53.6384C81.4437 53.6546 81.3748 53.6992 81.3283 53.7634C81.2817 53.8277 81.2607 53.9071 81.2695 53.986C81.2857 54.0637 81.3303 54.1326 81.3946 54.1792C81.4589 54.2258 81.5382 54.2467 81.6171 54.2379Z" fill="white" stroke="#263238" stroke-miterlimit="10" stroke-linecap="round"/>
<path d="M80.8295 57.4365C80.8608 57.6576 80.957 57.8646 81.106 58.031C81.255 58.1975 81.45 58.316 81.6663 58.3716C81.8827 58.4271 82.1107 58.4173 82.3214 58.3432C82.5322 58.2692 82.7162 58.1342 82.8502 57.9555C82.9843 57.7768 83.0623 57.5624 83.0743 57.3393C83.0864 57.1163 83.0321 56.8946 82.9181 56.7025C82.8042 56.5104 82.6358 56.3563 82.4343 56.2599C82.2328 56.1635 82.0072 56.1291 81.7861 56.161C81.4903 56.2036 81.2235 56.3618 81.0441 56.6009C80.8648 56.8401 80.7876 57.1405 80.8295 57.4365Z" fill="#263238" stroke="#263238" stroke-miterlimit="10" stroke-linecap="round"/>
<path d="M82.0626 57.0855L85.4427 56.5626C85.521 56.5471 85.5907 56.5028 85.6379 56.4384C85.6851 56.3741 85.7065 56.2944 85.6978 56.215C85.6823 56.1367 85.638 56.067 85.5737 56.0198C85.5093 55.9726 85.4296 55.9512 85.3502 55.9599L81.9765 56.4861C81.8988 56.5022 81.8299 56.5468 81.7833 56.6111C81.7367 56.6754 81.7158 56.7547 81.7246 56.8336C81.7407 56.9096 81.7838 56.977 81.8461 57.0234C81.9083 57.0698 81.9853 57.0919 82.0626 57.0855Z" fill="white" stroke="#263238" stroke-miterlimit="10" stroke-linecap="round"/>
<path d="M82.1909 57.9176L85.5647 57.3915C85.6424 57.3753 85.7113 57.3307 85.7578 57.2664C85.8044 57.2022 85.8254 57.1228 85.8166 57.0439C85.8004 56.9662 85.7558 56.8973 85.6915 56.8507C85.6272 56.8041 85.5479 56.7832 85.469 56.792L82.0985 57.3182C82.0208 57.3336 81.9516 57.3774 81.9044 57.4411C81.8573 57.5048 81.8355 57.5837 81.8434 57.6625C81.8589 57.7408 81.9032 57.8105 81.9675 57.8577C82.0319 57.905 82.1116 57.9263 82.1909 57.9176Z" fill="white" stroke="#263238" stroke-miterlimit="10" stroke-linecap="round"/>
<path d="M81.4041 61.1156C81.4359 61.3373 81.533 61.5444 81.683 61.7108C81.8329 61.8771 82.0289 61.9951 82.2461 62.0497C82.4633 62.1043 82.6918 62.0931 82.9026 62.0175C83.1134 61.9419 83.297 61.8052 83.4299 61.625C83.5628 61.4448 83.6391 61.2291 83.6491 61.0053C83.6591 60.7816 83.6023 60.56 83.486 60.3686C83.3696 60.1772 83.199 60.0248 82.9958 59.9307C82.7926 59.8366 82.5659 59.805 82.3448 59.8401C82.0518 59.8865 81.789 60.0463 81.6129 60.285C81.4369 60.5237 81.3619 60.822 81.4041 61.1156Z" fill="#263238" stroke="#263238" stroke-miterlimit="10" stroke-linecap="round"/>
<path d="M82.6343 60.7653L86.008 60.2391C86.0857 60.223 86.1546 60.1784 86.2012 60.1141C86.2478 60.0498 86.2687 59.9705 86.2599 59.8916C86.2437 59.8139 86.1991 59.745 86.1349 59.6984C86.0706 59.6518 85.9912 59.6309 85.9123 59.6397L82.5418 60.1658C82.4641 60.1813 82.395 60.2251 82.3478 60.2888C82.3006 60.3524 82.2789 60.4314 82.2867 60.5102C82.3022 60.5885 82.3465 60.6582 82.4109 60.7054C82.4752 60.7526 82.555 60.774 82.6343 60.7653Z" fill="white" stroke="#263238" stroke-miterlimit="10" stroke-linecap="round"/>
<path d="M82.7656 61.5973L86.1361 61.0712C86.2144 61.0557 86.284 61.0114 86.3313 60.947C86.3785 60.8827 86.3999 60.803 86.3912 60.7236C86.375 60.6459 86.3304 60.577 86.2661 60.5304C86.2018 60.4838 86.1225 60.4629 86.0436 60.4717L82.6699 60.9947C82.5922 61.0108 82.5233 61.0554 82.4767 61.1197C82.4301 61.184 82.4092 61.2633 82.418 61.3422C82.4335 61.4205 82.4778 61.4902 82.5421 61.5374C82.6065 61.5847 82.6862 61.606 82.7656 61.5973Z" fill="white" stroke="#263238" stroke-miterlimit="10" stroke-linecap="round"/>
<path d="M81.9744 64.7958C82.0087 65.0158 82.1072 65.2207 82.2577 65.3848C82.4081 65.5489 82.6037 65.6648 82.8198 65.7181C83.036 65.7713 83.263 65.7594 83.4725 65.6839C83.6819 65.6085 83.8643 65.4728 83.9968 65.2939C84.1293 65.115 84.206 64.9009 84.2172 64.6786C84.2283 64.4563 84.1735 64.2356 84.0596 64.0444C83.9457 63.8531 83.7778 63.6998 83.577 63.6037C83.3762 63.5076 83.1514 63.4731 82.931 63.5044C82.783 63.5254 82.6406 63.5756 82.5121 63.6521C82.3837 63.7287 82.2717 63.8299 82.1827 63.9501C82.0937 64.0702 82.0294 64.2069 81.9937 64.3521C81.9579 64.4972 81.9514 64.6481 81.9744 64.7958Z" fill="#263238" stroke="#263238" stroke-miterlimit="10" stroke-linecap="round"/>
<path d="M83.2109 64.444L86.5814 63.9179C86.6597 63.9024 86.7293 63.8581 86.7766 63.7937C86.8238 63.7294 86.8452 63.6496 86.8365 63.5703C86.8203 63.4926 86.7757 63.4237 86.7114 63.3771C86.6472 63.3305 86.5678 63.3096 86.4889 63.3184L83.1152 63.8413C83.0375 63.8575 82.9686 63.9021 82.922 63.9664C82.8754 64.0307 82.8545 64.11 82.8633 64.1889C82.8788 64.2672 82.9231 64.3369 82.9874 64.3841C83.0518 64.4313 83.1315 64.4527 83.2109 64.444Z" fill="white" stroke="#263238" stroke-miterlimit="10" stroke-linecap="round"/>
<path d="M83.3358 65.2733L86.7191 64.7503C86.7968 64.7341 86.8657 64.6895 86.9123 64.6253C86.9589 64.561 86.9798 64.4816 86.971 64.4027C86.9656 64.3633 86.9523 64.3253 86.9319 64.2911C86.9115 64.2569 86.8844 64.2272 86.8523 64.2037C86.8201 64.1802 86.7836 64.1634 86.7448 64.1543C86.706 64.1452 86.6658 64.144 86.6266 64.1508L83.2433 64.6738C83.165 64.6893 83.0954 64.7336 83.0481 64.7979C83.0009 64.8623 82.9795 64.942 82.9882 65.0214C83.0044 65.0991 83.049 65.168 83.1133 65.2146C83.1776 65.2612 83.2569 65.2821 83.3358 65.2733Z" fill="white" stroke="#263238" stroke-miterlimit="10" stroke-linecap="round"/>
<path d="M82.5486 68.472C82.5805 68.6937 82.6775 68.9009 82.8275 69.0672C82.9774 69.2336 83.1735 69.3516 83.3906 69.4062C83.6078 69.4608 83.8364 69.4496 84.0472 69.3739C84.258 69.2983 84.4415 69.1617 84.5744 68.9814C84.7073 68.8012 84.7836 68.5855 84.7936 68.3618C84.8036 68.138 84.7468 67.9164 84.6305 67.725C84.5141 67.5337 84.3435 67.3812 84.1403 67.2871C83.9371 67.193 83.7105 67.1615 83.4893 67.1965C83.1964 67.2429 82.9335 67.4028 82.7574 67.6414C82.5814 67.8801 82.5064 68.1785 82.5486 68.472Z" fill="#263238" stroke="#263238" stroke-miterlimit="10" stroke-linecap="round"/>
<path d="M83.7792 68.1253L87.1529 67.5992C87.2306 67.583 87.2995 67.5384 87.3461 67.4741C87.3927 67.4098 87.4136 67.3305 87.4048 67.2516C87.3886 67.1745 87.3445 67.1061 87.2809 67.0596C87.2173 67.013 87.1388 66.9917 87.0604 66.9997L83.6867 67.5226C83.6084 67.5381 83.5387 67.5824 83.4915 67.6468C83.4443 67.7111 83.4229 67.7909 83.4316 67.8702C83.4471 67.9485 83.4914 68.0182 83.5557 68.0654C83.6201 68.1126 83.6998 68.134 83.7792 68.1253Z" fill="white" stroke="#263238" stroke-miterlimit="10" stroke-linecap="round"/>
<path d="M83.91 68.9537L87.2805 68.4307C87.3588 68.4153 87.4285 68.371 87.4757 68.3066C87.523 68.2422 87.5443 68.1625 87.5356 68.0832C87.5201 68.0049 87.4758 67.9352 87.4115 67.888C87.3471 67.8407 87.2674 67.8194 87.1881 67.8281L83.8175 68.3542C83.7392 68.3697 83.6696 68.414 83.6224 68.4784C83.5751 68.5427 83.5537 68.6224 83.5624 68.7018C83.5786 68.7795 83.6232 68.8484 83.6875 68.895C83.7518 68.9416 83.8311 68.9625 83.91 68.9537Z" fill="white" stroke="#263238" stroke-miterlimit="10" stroke-linecap="round"/>
<path d="M83.1182 72.1513C83.1495 72.3725 83.2457 72.5794 83.3947 72.7459C83.5436 72.9123 83.7386 73.0308 83.955 73.0864C84.1714 73.142 84.3993 73.1321 84.6101 73.0581C84.8208 72.984 85.0049 72.8491 85.1389 72.6704C85.2729 72.4917 85.3509 72.2772 85.363 72.0542C85.3751 71.8311 85.3207 71.6095 85.2068 71.4173C85.0929 71.2252 84.9245 71.0712 84.723 70.9748C84.5215 70.8784 84.2959 70.8439 84.0748 70.8758C83.7793 70.9192 83.513 71.0777 83.3338 71.3166C83.1546 71.5555 83.0771 71.8555 83.1182 72.1513Z" fill="#263238" stroke="#263238" stroke-miterlimit="10" stroke-linecap="round"/>
<path d="M84.3534 71.8014L87.7239 71.2784C87.8022 71.2629 87.8719 71.2186 87.9191 71.1543C87.9663 71.0899 87.9877 71.0102 87.979 70.9308C87.9635 70.8525 87.9192 70.7829 87.8549 70.7356C87.7905 70.6884 87.7108 70.667 87.6314 70.6757L84.2609 71.2019C84.1826 71.2174 84.1129 71.2617 84.0657 71.326C84.0185 71.3904 83.9971 71.4701 84.0058 71.5494C84.022 71.6272 84.0666 71.6961 84.1309 71.7426C84.1951 71.7892 84.2745 71.8102 84.3534 71.8014Z" fill="white" stroke="#263238" stroke-miterlimit="10" stroke-linecap="round"/>
<path d="M84.487 72.6467L87.8607 72.1238C87.9384 72.1076 88.0073 72.063 88.0539 71.9987C88.1005 71.9344 88.1214 71.8551 88.1126 71.7762C88.0971 71.6985 88.0533 71.6293 87.9896 71.5822C87.926 71.535 87.847 71.5132 87.7682 71.5211L84.3945 72.0472C84.3168 72.0634 84.2479 72.108 84.2013 72.1723C84.1547 72.2366 84.1338 72.3159 84.1426 72.3948C84.1484 72.4341 84.162 72.4718 84.1825 72.5058C84.203 72.5398 84.2301 72.5693 84.2621 72.5928C84.2942 72.6162 84.3305 72.633 84.3691 72.6423C84.4077 72.6516 84.4478 72.6531 84.487 72.6467Z" fill="white" stroke="#263238" stroke-miterlimit="10" stroke-linecap="round"/>
<path d="M83.6931 75.8353C83.725 76.057 83.8221 76.2642 83.972 76.4305C84.122 76.5969 84.318 76.7148 84.5352 76.7695C84.7524 76.8241 84.9809 76.8128 85.1917 76.7372C85.4025 76.6616 85.586 76.525 85.7189 76.3447C85.8519 76.1645 85.9282 75.9488 85.9382 75.7251C85.9481 75.5013 85.8914 75.2797 85.775 75.0883C85.6587 74.897 85.488 74.7445 85.2848 74.6504C85.0816 74.5563 84.855 74.5248 84.6338 74.5598C84.3409 74.6062 84.078 74.766 83.902 75.0047C83.726 75.2434 83.6509 75.5418 83.6931 75.8353Z" fill="#263238" stroke="#263238" stroke-miterlimit="10" stroke-linecap="round"/>
<path d="M84.9249 75.4817L88.3146 74.9587C88.3542 74.9529 88.3922 74.9393 88.4264 74.9186C88.4606 74.8978 88.4903 74.8705 88.5138 74.8381C88.5373 74.8057 88.554 74.7689 88.5631 74.7299C88.5721 74.691 88.5733 74.6506 88.5665 74.6112C88.551 74.5335 88.5072 74.4643 88.4435 74.4171C88.3799 74.37 88.3009 74.3482 88.2221 74.3561L84.8324 74.879C84.7929 74.8848 84.7549 74.8985 84.7206 74.9192C84.6864 74.9399 84.6567 74.9673 84.6332 74.9997C84.6097 75.0321 84.593 75.0689 84.5839 75.1078C84.5749 75.1468 84.5737 75.1872 84.5805 75.2266C84.586 75.2661 84.5993 75.3042 84.6196 75.3386C84.64 75.3729 84.667 75.4028 84.6991 75.4266C84.7312 75.4504 84.7677 75.4675 84.8064 75.4769C84.8452 75.4864 84.8855 75.488 84.9249 75.4817Z" fill="white" stroke="#263238" stroke-miterlimit="10" stroke-linecap="round"/>
<path d="M85.0542 76.3131L88.4247 75.7869C88.4643 75.7815 88.5024 75.7682 88.5367 75.7478C88.571 75.7275 88.601 75.7005 88.6247 75.6684C88.6485 75.6363 88.6656 75.5998 88.6751 75.561C88.6845 75.5222 88.6862 75.482 88.6798 75.4425C88.6643 75.3642 88.6201 75.2946 88.5557 75.2474C88.4913 75.2001 88.4116 75.1787 88.3323 75.1874L84.9617 75.7136C84.884 75.729 84.8149 75.7729 84.7677 75.8365C84.7206 75.9002 84.6988 75.9791 84.7067 76.058C84.7221 76.1363 84.7664 76.2059 84.8308 76.2532C84.8951 76.3004 84.9749 76.3218 85.0542 76.3131Z" fill="white" stroke="#263238" stroke-miterlimit="10" stroke-linecap="round"/>
<path d="M84.2627 79.5117C84.294 79.7328 84.3902 79.9397 84.5392 80.1062C84.6882 80.2727 84.8832 80.3912 85.0995 80.4468C85.3159 80.5023 85.5439 80.4925 85.7546 80.4184C85.9654 80.3443 86.1494 80.2094 86.2834 80.0307C86.4175 79.852 86.4955 79.6376 86.5075 79.4145C86.5196 79.1915 86.4653 78.9698 86.3513 78.7777C86.2374 78.5856 86.069 78.4315 85.8675 78.3351C85.666 78.2387 85.4404 78.2043 85.2193 78.2362C84.9239 78.2796 84.6575 78.438 84.4784 78.6769C84.2992 78.9158 84.2217 79.2159 84.2627 79.5117Z" fill="#263238" stroke="#263238" stroke-miterlimit="10" stroke-linecap="round"/>
<path d="M85.4976 79.1617L88.8681 78.6356C88.9458 78.6201 89.015 78.5763 89.0621 78.5126C89.1093 78.449 89.1311 78.37 89.1232 78.2912C89.1077 78.2129 89.0634 78.1432 88.9991 78.096C88.9347 78.0488 88.855 78.0274 88.7756 78.0361L85.4051 78.5622C85.3274 78.5777 85.2582 78.6215 85.2111 78.6852C85.1639 78.7488 85.1422 78.8278 85.15 78.9066C85.1655 78.9849 85.2098 79.0546 85.2742 79.1018C85.3385 79.149 85.4182 79.1704 85.4976 79.1617Z" fill="white" stroke="#263238" stroke-miterlimit="10" stroke-linecap="round"/>
<path d="M85.6288 79.9801L88.9994 79.454C89.0777 79.4385 89.1473 79.3942 89.1945 79.3299C89.2418 79.2655 89.2632 79.1858 89.2545 79.1064C89.2383 79.0287 89.1937 78.9598 89.1294 78.9132C89.0651 78.8666 88.9858 78.8457 88.9069 78.8545L85.5332 79.3775C85.4555 79.3936 85.3866 79.4382 85.34 79.5025C85.2934 79.5668 85.2725 79.6461 85.2813 79.725C85.2968 79.8034 85.3411 79.873 85.4054 79.9202C85.4698 79.9675 85.5495 79.9888 85.6288 79.9801Z" fill="white" stroke="#263238" stroke-miterlimit="10" stroke-linecap="round"/>
<path d="M84.8377 83.1918C84.8695 83.4134 84.9666 83.6206 85.1165 83.787C85.2665 83.9533 85.4625 84.0713 85.6797 84.1259C85.8969 84.1805 86.1254 84.1693 86.3362 84.0937C86.547 84.018 86.7305 83.8814 86.8635 83.7012C86.9964 83.5209 87.0727 83.3052 87.0827 83.0815C87.0927 82.8578 87.0359 82.6361 86.9196 82.4448C86.8032 82.2534 86.6326 82.101 86.4294 82.0069C86.2262 81.9127 85.9995 81.8812 85.7783 81.9163C85.4854 81.9627 85.2225 82.1225 85.0465 82.3612C84.8705 82.5998 84.7955 82.8982 84.8377 83.1918Z" fill="#263238" stroke="#263238" stroke-miterlimit="10" stroke-linecap="round"/>
<path d="M86.08 82.8503L89.4505 82.3241C89.5288 82.3086 89.5985 82.2643 89.6457 82.2C89.693 82.1356 89.7143 82.0559 89.7056 81.9765C89.6894 81.8988 89.6449 81.8299 89.5806 81.7833C89.5163 81.7367 89.437 81.7158 89.3581 81.7246L85.9844 82.2476C85.9066 82.2638 85.8377 82.3084 85.7911 82.3726C85.7446 82.4369 85.7236 82.5163 85.7324 82.5952C85.7479 82.6735 85.7922 82.7431 85.8566 82.7904C85.9209 82.8376 86.0007 82.859 86.08 82.8503Z" fill="white" stroke="#263238" stroke-miterlimit="10" stroke-linecap="round"/>
<path d="M86.1988 83.6735L89.5884 83.1474C89.6661 83.1312 89.735 83.0866 89.7816 83.0223C89.8282 82.958 89.8491 82.8787 89.8403 82.7998C89.8242 82.7221 89.7796 82.6532 89.7153 82.6066C89.651 82.56 89.5717 82.5391 89.4928 82.5479L86.1222 83.0708C86.0439 83.0863 85.9743 83.1306 85.9271 83.195C85.8798 83.2593 85.8584 83.3391 85.8671 83.4184C85.8824 83.4938 85.9243 83.5611 85.9853 83.6079C86.0462 83.6548 86.122 83.6781 86.1988 83.6735Z" fill="white" stroke="#263238" stroke-miterlimit="10" stroke-linecap="round"/>
<path d="M85.4119 86.872C85.4462 87.0919 85.5447 87.2969 85.6952 87.461C85.8456 87.625 86.0412 87.741 86.2573 87.7942C86.4735 87.8475 86.7005 87.8356 86.91 87.7601C87.1194 87.6847 87.3018 87.5489 87.4343 87.3701C87.5668 87.1912 87.6435 86.9771 87.6547 86.7548C87.6658 86.5325 87.611 86.3118 87.4971 86.1205C87.3832 85.9293 87.2153 85.776 87.0145 85.6799C86.8137 85.5838 86.5889 85.5493 86.3685 85.5806C86.2205 85.6016 86.0781 85.6518 85.9496 85.7283C85.8212 85.8048 85.7092 85.9061 85.6202 86.0263C85.5312 86.1464 85.4669 86.283 85.4312 86.4282C85.3954 86.5734 85.3889 86.7243 85.4119 86.872Z" fill="#263238" stroke="#263238" stroke-miterlimit="10" stroke-linecap="round"/>
<path d="M86.6435 86.5205L90.0172 85.9944C90.0949 85.9782 90.1638 85.9336 90.2104 85.8693C90.257 85.805 90.2779 85.7257 90.2691 85.6468C90.2514 85.5678 90.2044 85.4984 90.1375 85.4528C90.0705 85.4072 89.9888 85.3888 89.9088 85.4013L86.5382 85.9242C86.4599 85.9397 86.3903 85.984 86.3431 86.0484C86.2958 86.1127 86.2744 86.1925 86.2832 86.2718C86.3001 86.3514 86.3469 86.4215 86.4139 86.4678C86.4809 86.514 86.563 86.5329 86.6435 86.5205Z" fill="white" stroke="#263238" stroke-miterlimit="10" stroke-linecap="round"/>
<path d="M86.7734 87.3492L90.1439 86.8263C90.2222 86.8108 90.2919 86.7665 90.3391 86.7021C90.3863 86.6378 90.4077 86.558 90.399 86.4787C90.3835 86.4004 90.3392 86.3307 90.2749 86.2835C90.2105 86.2363 90.1308 86.2149 90.0514 86.2236L86.6777 86.7497C86.6 86.7659 86.5311 86.8105 86.4845 86.8748C86.4379 86.9391 86.417 87.0184 86.4258 87.0973C86.442 87.175 86.4866 87.2439 86.5509 87.2905C86.6151 87.3371 86.6945 87.358 86.7734 87.3492Z" fill="white" stroke="#263238" stroke-miterlimit="10" stroke-linecap="round"/>
<path d="M85.9822 90.5482C86.014 90.7699 86.1111 90.9771 86.2611 91.1434C86.411 91.3097 86.607 91.4277 86.8242 91.4823C87.0414 91.537 87.27 91.5257 87.4808 91.4501C87.6915 91.3745 87.8751 91.2378 88.008 91.0576C88.1409 90.8774 88.2172 90.6617 88.2272 90.4379C88.2372 90.2142 88.1804 89.9926 88.0641 89.8012C87.9477 89.6098 87.7771 89.4574 87.5739 89.3633C87.3707 89.2692 87.1441 89.2377 86.9229 89.2727C86.63 89.3191 86.3671 89.4789 86.1911 89.7176C86.015 89.9563 85.94 90.2547 85.9822 90.5482Z" fill="#263238" stroke="#263238" stroke-miterlimit="10" stroke-linecap="round"/>
<path d="M87.2167 90.1844L90.5872 89.6615C90.6656 89.646 90.7352 89.6017 90.7824 89.5373C90.8297 89.473 90.851 89.3932 90.8423 89.3139C90.8365 89.2743 90.8229 89.2363 90.8022 89.2021C90.7814 89.1679 90.7541 89.1381 90.7217 89.1147C90.6893 89.0912 90.6525 89.0744 90.6136 89.0654C90.5746 89.0563 90.5342 89.0552 90.4948 89.062L87.1211 89.5849C87.0434 89.6011 86.9745 89.6457 86.9279 89.71C86.8813 89.7743 86.8603 89.8536 86.8692 89.9325C86.875 89.9721 86.8886 90.0101 86.9093 90.0443C86.9301 90.0786 86.9574 90.1083 86.9898 90.1318C87.0222 90.1552 87.059 90.172 87.098 90.181C87.1369 90.1901 87.1773 90.1912 87.2167 90.1844Z" fill="white" stroke="#263238" stroke-miterlimit="10" stroke-linecap="round"/>
<path d="M87.3564 91.0301L90.7173 90.504C90.795 90.4878 90.8639 90.4432 90.9105 90.3789C90.9571 90.3147 90.978 90.2353 90.9692 90.1564C90.9537 90.0781 90.9094 90.0085 90.8451 89.9612C90.7807 89.914 90.701 89.8926 90.6217 89.9013L87.2511 90.4275C87.1728 90.443 87.1032 90.4873 87.0559 90.5516C87.0087 90.616 86.9873 90.6957 86.996 90.775C87.0116 90.8558 87.0578 90.9275 87.1249 90.975C87.1921 91.0226 87.275 91.0423 87.3564 91.0301Z" fill="white" stroke="#263238" stroke-miterlimit="10" stroke-linecap="round"/>
<path d="M86.5564 94.2269C86.5883 94.4486 86.6854 94.6558 86.8353 94.8221C86.9852 94.9885 87.1813 95.1064 87.3985 95.1611C87.6157 95.2157 87.8442 95.2045 88.055 95.1288C88.2658 95.0532 88.4493 94.9166 88.5822 94.7363C88.7151 94.5561 88.7915 94.3404 88.8015 94.1167C88.8114 93.8929 88.7546 93.6713 88.6383 93.4799C88.522 93.2886 88.3513 93.1361 88.1481 93.042C87.9449 92.9479 87.7183 92.9164 87.4971 92.9514C87.2042 92.9978 86.9413 93.1576 86.7653 93.3963C86.5892 93.635 86.5142 93.9334 86.5564 94.2269Z" fill="#263238" stroke="#263238" stroke-miterlimit="10" stroke-linecap="round"/>
<path d="M87.787 93.8766L91.1607 93.3536C91.2384 93.3374 91.3073 93.2928 91.3539 93.2286C91.4005 93.1643 91.4214 93.0849 91.4126 93.006C91.3971 92.9277 91.3528 92.8581 91.2884 92.8108C91.2241 92.7636 91.1444 92.7422 91.065 92.7509L87.6945 93.2771C87.6162 93.2926 87.5465 93.3369 87.4993 93.4012C87.4521 93.4656 87.4307 93.5453 87.4394 93.6246C87.4556 93.7024 87.5002 93.7713 87.5644 93.8178C87.6287 93.8644 87.7081 93.8854 87.787 93.8766Z" fill="white" stroke="#263238" stroke-miterlimit="10" stroke-linecap="round"/>
<path d="M87.9179 94.7086L91.2884 94.1824C91.3661 94.167 91.4353 94.1232 91.4824 94.0595C91.5296 93.9958 91.5514 93.9169 91.5435 93.8381C91.528 93.7597 91.4837 93.6901 91.4194 93.6429C91.355 93.5956 91.2753 93.5743 91.1959 93.583L87.8222 94.1091C87.7445 94.1253 87.6756 94.1699 87.629 94.2341C87.5825 94.2984 87.5615 94.3778 87.5703 94.4567C87.5865 94.5344 87.6311 94.6033 87.6954 94.6499C87.7597 94.6965 87.839 94.7174 87.9179 94.7086Z" fill="white" stroke="#263238" stroke-miterlimit="10" stroke-linecap="round"/>
<path d="M87.1283 97.9072C87.1596 98.1283 87.2559 98.3353 87.4048 98.5017C87.5538 98.6682 87.7488 98.7867 87.9652 98.8423C88.1815 98.8978 88.4095 98.888 88.6203 98.8139C88.831 98.7399 89.015 98.6049 89.1491 98.4262C89.2831 98.2475 89.3611 98.0331 89.3732 97.81C89.3853 97.587 89.3309 97.3653 89.217 97.1732C89.103 96.9811 88.9347 96.827 88.7331 96.7306C88.5316 96.6342 88.3061 96.5998 88.085 96.6317C87.7891 96.6743 87.5223 96.8325 87.343 97.0716C87.1636 97.3108 87.0864 97.6112 87.1283 97.9072Z" fill="#263238" stroke="#263238" stroke-miterlimit="10" stroke-linecap="round"/>
<path d="M88.3613 97.5572L91.7318 97.0343C91.8101 97.0188 91.8797 96.9745 91.927 96.9101C91.9742 96.8458 91.9956 96.766 91.9869 96.6867C91.9714 96.6084 91.9271 96.5387 91.8627 96.4915C91.7984 96.4443 91.7187 96.4229 91.6393 96.4316L88.2656 96.9577C88.1879 96.9739 88.119 97.0185 88.0724 97.0828C88.0258 97.1471 88.0049 97.2264 88.0137 97.3053C88.0299 97.383 88.0745 97.4519 88.1387 97.4985C88.203 97.5451 88.2824 97.566 88.3613 97.5572Z" fill="white" stroke="#263238" stroke-miterlimit="10" stroke-linecap="round"/>
<path d="M88.4894 98.3892L91.8631 97.8631C91.9408 97.8469 92.0097 97.8023 92.0563 97.738C92.1028 97.6738 92.1238 97.5944 92.115 97.5155C92.1092 97.4763 92.0956 97.4385 92.0751 97.4046C92.0545 97.3706 92.0275 97.341 91.9954 97.3176C91.9634 97.2941 91.927 97.2773 91.8884 97.268C91.8498 97.2588 91.8098 97.2573 91.7706 97.2636L88.3969 97.7898C88.3574 97.7952 88.3195 97.8085 88.2853 97.8289C88.2511 97.8493 88.2213 97.8763 88.1978 97.9085C88.1743 97.9406 88.1575 97.9772 88.1484 98.0159C88.1394 98.0547 88.1382 98.0949 88.145 98.1341C88.1604 98.2118 88.2043 98.281 88.2679 98.3282C88.3316 98.3753 88.4105 98.3971 88.4894 98.3892Z" fill="white" stroke="#263238" stroke-miterlimit="10" stroke-linecap="round"/>
<g opacity="0.3">
<path d="M38.9141 35.4996L39.7527 35.3721" stroke="black" stroke-miterlimit="10" stroke-linecap="round"/>
<path d="M40.5918 35.2411L41.4304 35.1104" stroke="black" stroke-miterlimit="10" stroke-linecap="round"/>
<path d="M30.7188 37.9579L31.5542 37.8271" stroke="black" stroke-miterlimit="10" stroke-linecap="round"/>
<path d="M32.3945 37.6971L33.2332 37.5664" stroke="black" stroke-miterlimit="10" stroke-linecap="round"/>
<path d="M34.0703 37.4384L34.9058 37.3076" stroke="black" stroke-miterlimit="10" stroke-linecap="round"/>
<path d="M35.7461 37.1766L36.5847 37.0459" stroke="black" stroke-miterlimit="10" stroke-linecap="round"/>
<path d="M37.418 36.9159L38.2566 36.7852" stroke="black" stroke-miterlimit="10" stroke-linecap="round"/>
<path d="M39.0977 36.6542L39.9331 36.5234" stroke="black" stroke-miterlimit="10" stroke-linecap="round"/>
<path d="M40.7695 36.3922L41.6082 36.2646" stroke="black" stroke-miterlimit="10" stroke-linecap="round"/>
<path d="M30.8984 39.1122L31.7371 38.9814" stroke="black" stroke-miterlimit="10" stroke-linecap="round"/>
<path d="M32.5703 38.8505L33.409 38.7197" stroke="black" stroke-miterlimit="10" stroke-linecap="round"/>
<path d="M34.25 38.5895L35.0886 38.4619" stroke="black" stroke-miterlimit="10" stroke-linecap="round"/>
<path d="M35.9219 38.3309L36.7605 38.2002" stroke="black" stroke-miterlimit="10" stroke-linecap="round"/>
<path d="M37.6016 38.0692L38.437 37.9385" stroke="black" stroke-miterlimit="10" stroke-linecap="round"/>
<path d="M39.2734 37.8085L40.1121 37.6777" stroke="black" stroke-miterlimit="10" stroke-linecap="round"/>
<path d="M40.9492 37.5468L41.7879 37.416" stroke="black" stroke-miterlimit="10" stroke-linecap="round"/>
<path d="M31.0762 40.2675L31.9148 40.1367" stroke="black" stroke-miterlimit="10" stroke-linecap="round"/>
<path d="M32.7539 40.0048L33.5894 39.874" stroke="black" stroke-miterlimit="10" stroke-linecap="round"/>
<path d="M34.4277 39.744L35.2664 39.6133" stroke="black" stroke-miterlimit="10" stroke-linecap="round"/>
<path d="M36.1035 39.4862L36.939 39.3555" stroke="black" stroke-miterlimit="10" stroke-linecap="round"/>
<path d="M37.7793 39.2235L38.6179 39.0928" stroke="black" stroke-miterlimit="10" stroke-linecap="round"/>
<path d="M39.4531 38.9628L40.2918 38.832" stroke="black" stroke-miterlimit="10" stroke-linecap="round"/>
<path d="M41.1309 38.7011L41.9663 38.5703" stroke="black" stroke-miterlimit="10" stroke-linecap="round"/>
<path d="M31.2578 41.4208L32.0933 41.29" stroke="black" stroke-miterlimit="10" stroke-linecap="round"/>
<path d="M32.9316 41.16L33.7703 41.0293" stroke="black" stroke-miterlimit="10" stroke-linecap="round"/>
<path d="M34.6074 40.8973L35.4461 40.7666" stroke="black" stroke-miterlimit="10" stroke-linecap="round"/>
<path d="M36.2832 40.6363L37.1218 40.5088" stroke="black" stroke-miterlimit="10" stroke-linecap="round"/>
<path d="M37.959 40.3788L38.7976 40.248" stroke="black" stroke-miterlimit="10" stroke-linecap="round"/>
<path d="M39.6348 40.1161L40.4702 39.9854" stroke="black" stroke-miterlimit="10" stroke-linecap="round"/>
<path d="M41.3086 39.8553L42.1472 39.7246" stroke="black" stroke-miterlimit="10" stroke-linecap="round"/>
<path d="M30.3027 35.2889L31.1414 35.1582" stroke="black" stroke-miterlimit="10" stroke-linecap="round"/>
<path d="M31.9785 35.027L32.8172 34.8994" stroke="black" stroke-miterlimit="10" stroke-linecap="round"/>
<path d="M33.6543 34.7694L34.4929 34.6387" stroke="black" stroke-miterlimit="10" stroke-linecap="round"/>
<path d="M35.3301 34.5077L36.1655 34.377" stroke="black" stroke-miterlimit="10" stroke-linecap="round"/>
<path d="M37.0039 34.247L37.8426 34.1162" stroke="black" stroke-miterlimit="10" stroke-linecap="round"/>
<path d="M38.6816 33.985L39.5171 33.8574" stroke="black" stroke-miterlimit="10" stroke-linecap="round"/>
<path d="M40.3555 33.7264L41.1941 33.5957" stroke="black" stroke-miterlimit="10" stroke-linecap="round"/>
<path d="M41.3651 34.2334L30.332 35.949" stroke="black" stroke-miterlimit="10" stroke-linecap="round"/>
<path d="M33.3926 33.3312L37.6496 32.668" stroke="black" stroke-miterlimit="10" stroke-linecap="round"/>
<path d="M28.1074 45.2312L75.0555 37.9258" stroke="black" stroke-miterlimit="10" stroke-linecap="round"/>
<path d="M28.6973 49.0134L75.6421 41.708" stroke="black" stroke-miterlimit="10" stroke-linecap="round"/>
<path d="M29.2832 52.7918L76.2312 45.4863" stroke="black" stroke-miterlimit="10" stroke-linecap="round"/>
<path d="M29.873 56.574L76.8179 49.2686" stroke="black" stroke-miterlimit="10" stroke-linecap="round"/>
<path d="M30.4609 60.3552L77.409 53.0498" stroke="black" stroke-miterlimit="10" stroke-linecap="round"/>
<path d="M31.0508 64.1377L77.9956 56.8291" stroke="black" stroke-miterlimit="10" stroke-linecap="round"/>
<path d="M31.6367 67.9158L78.5848 60.6104" stroke="black" stroke-miterlimit="10" stroke-linecap="round"/>
<path d="M32.2266 71.698L79.1714 64.3926" stroke="black" stroke-miterlimit="10" stroke-linecap="round"/>
<path d="M32.8145 75.4802L79.7625 68.1748" stroke="black" stroke-miterlimit="10" stroke-linecap="round"/>
<path d="M33.4023 79.2627L80.3472 71.9541" stroke="black" stroke-miterlimit="10" stroke-linecap="round"/>
<path d="M33.9902 83.0408L80.9383 75.7354" stroke="black" stroke-miterlimit="10" stroke-linecap="round"/>
<path d="M34.582 86.822L81.5301 79.5166" stroke="black" stroke-miterlimit="10" stroke-linecap="round"/>
<path d="M35.168 90.6043L82.116 83.2988" stroke="black" stroke-miterlimit="10" stroke-linecap="round"/>
<path d="M36.5684 99.5838L83.5132 92.2783" stroke="black" stroke-miterlimit="10" stroke-linecap="round"/>
<path d="M37.0332 102.578L83.9781 95.2695" stroke="black" stroke-miterlimit="10" stroke-linecap="round"/>
<path d="M37.498 105.569L84.4429 98.2637" stroke="black" stroke-miterlimit="10" stroke-linecap="round"/>
</g>
<path d="M34.803 48.8704C34.803 48.8704 30.7979 53.2039 33.113 52.5215C35.428 51.8391 38.5945 47.3111 37.9216 49.1925C37.2488 51.0738 37.2839 52.3557 38.3712 51.0579C39.4586 49.7601 40.0677 49.5018 39.8476 50.181C39.6276 50.8602 40.5268 50.3978 40.5268 50.3978C40.5268 50.3978 42.759 49.084 42.5262 49.7601C42.2934 50.4361 42.1531 50.4648 42.7845 50.3659L44.8317 50.0471C44.8317 50.0471 44.6977 50.232 46.5887 49.9354C48.4796 49.6389 49.2162 49.2052 50.1633 49.0585" stroke="#263238" stroke-miterlimit="10" stroke-linecap="round"/>
<path d="M32.9863 54.7892C32.9863 54.7892 36.073 52.8568 36.4621 53.2809C36.8511 53.705 36.3186 54.4321 37.7121 54.0558C39.1055 53.6795 40.3747 52.5125 40.4735 53.1406C40.5724 53.7688 41.4684 53.3096 41.4684 53.3096L42.256 53.1853C42.256 53.1853 43.6974 53.1247 44.147 52.8919C44.5966 52.6591 45.0621 50.4908 44.7178 53.4499C44.3734 56.4091 43.1648 53.8517 46.0379 52.5985C48.911 51.3454 49.4435 52.7133 49.4435 52.7133C49.7615 52.6415 50.0706 52.5345 50.365 52.3945C50.9677 52.1362 51.5002 51.4091 52.071 51.9672C52.6418 52.5252 53.6654 50.7523 53.6654 50.7523C54.0637 50.8266 54.4568 50.9267 54.8421 51.052C55.2112 51.181 55.6037 51.2299 55.9932 51.1955C56.4746 51.214 56.9567 51.1926 57.4345 51.1317C58.0723 51.0329 58.5984 50.3058 59.1182 50.5482C59.638 50.7905 60.4256 48.568 60.0302 51.2114C59.6348 53.8549 57.0774 55.0603 58.1169 53.4436C59.0345 52.0314 60.2131 50.8074 61.5895 49.8371C62.7534 49.0112 63.0914 49.1196 63.3465 49.7255C63.6016 50.3313 63.9173 50.2803 64.5231 50.0252C65.129 49.7701 64.6092 49.5278 65.129 49.7701C65.302 49.8685 65.4928 49.9318 65.6903 49.9564C65.8878 49.9811 66.0882 49.9665 66.2801 49.9136C66.7553 49.8403 64.5391 51.154 66.7553 49.8403C68.9714 48.5265 69.7622 43.2395 68.6015 46.1636C67.4408 49.0877 67.8809 49.8275 69.4338 49.4225" stroke="#263238" stroke-miterlimit="10" stroke-linecap="round"/>
<path d="M33.3203 60.0731C33.3203 60.0731 37.1086 56.4188 36.8758 55.9692C36.643 55.5196 35.4345 56.033 34.5512 57.621C33.6679 59.209 34.2897 60.0827 36.6653 58.7466C39.0409 57.4105 35.5843 59.0655 38.0237 59.1803C40.4631 59.2951 41.1838 57.7198 41.2571 58.1918C41.3305 58.6637 40.5173 58.6286 42.4338 58.5107C44.3502 58.3927 43.4127 57.554 45.377 57.7294C47.3413 57.9048 48.215 57.2862 48.215 57.2862L49.4745 57.0917C49.4745 57.0917 46.9235 57.3244 50.2367 56.811C53.5498 56.2977 55.0038 52.1969 53.4095 54.3812C51.8151 56.5655 52.5645 57.2511 54.2003 56.3551L55.8361 55.4558C55.8361 55.4558 57.9024 53.1982 56.9267 56.253C55.9509 59.3078 54.7966 57.0693 58.4286 55.5355C62.0606 54.0018 61.9681 55.4686 63.1798 54.9584C64.3915 54.4482 64.1938 53.1854 64.9974 54.1899C65.801 55.1943 65.75 54.8818 67.0095 54.6841C68.2691 54.4864 67.9311 54.3653 69.0344 54.209L71.4132 53.8327" stroke="#263238" stroke-miterlimit="10" stroke-linecap="round"/>
<path d="M33.959 71.4313C33.959 71.4313 36.5993 69.7285 37.0202 67.2413C37.4411 64.7541 35.3589 67.9843 35.5853 71.4983C35.8117 75.0123 34.5744 70.2037 38.2574 68.9856C41.9404 67.7674 37.9386 70.006 38.3467 70.5799C38.7549 71.1539 41.7746 68.756 41.7396 69.5659C41.7045 70.3758 42.3773 70.5959 44.2332 69.0174C46.089 67.439 43.0693 67.7419 42.9258 68.8995C42.7823 70.057 43.6783 69.5882 45.9678 68.7464C48.2574 67.9046 46.0157 69.0653 47.4347 68.8421C48.8537 68.6188 51.9755 65.8765 51.36 67.101C50.7446 68.3255 51.3377 69.043 52.0265 68.2904C52.7152 67.5379 54.1821 65.5321 54.3032 66.3198C54.3763 66.7849 54.2752 67.2606 54.0195 67.6558" stroke="#263238" stroke-miterlimit="10" stroke-linecap="round"/>
<path opacity="0.3" d="M19.1583 41.4246C19.0968 41.3594 19.0307 41.2987 18.9606 41.2428C18.7583 41.0852 18.5364 40.9545 18.3005 40.8538L18.1602 40.8028H18.1252C16.8688 40.4137 12.5735 40.2288 11.1322 40.165C10.7727 40.1525 10.4195 40.262 10.13 40.4756C9.84059 40.6892 9.63188 40.9944 9.53784 41.3417V41.3768C9.23172 42.547 4.86313 71.418 4.86313 71.418C4.86313 71.418 4.83124 72.0558 4.7866 73.0538C4.76747 73.4907 4.74833 74.0105 4.72282 74.5366C4.72282 74.6737 4.72282 74.8109 4.72282 74.9512C4.72282 75.2318 4.7005 75.5188 4.68775 75.8089C4.64629 76.8325 4.60803 77.9103 4.57933 78.8956C4.55701 79.5972 4.54107 80.2541 4.5315 80.8089C4.5315 81.2521 4.5315 81.6284 4.5315 81.9154C4.52781 82.5835 4.56508 83.2512 4.6431 83.9147C4.76747 84.7374 5.05445 85.1169 5.76236 85.2413C5.93774 85.2732 6.19284 85.3114 6.50215 85.3497L6.69347 85.372L7.57038 85.4677L7.81273 85.49L8.56209 85.5506L9.07866 85.5825L9.59843 85.608C9.93963 85.6239 10.2776 85.6303 10.5997 85.6303C11.0687 85.6372 11.5376 85.6106 12.0028 85.5506H12.0442L12.1622 85.5283L12.2929 85.4964H12.3184L12.4492 85.4549L12.6692 85.372L12.8701 85.2891C13.1407 85.1809 13.3984 85.0429 13.6386 84.8777C13.7162 84.8224 13.7907 84.7627 13.8618 84.6992C13.9298 84.6397 13.9936 84.5759 14.0531 84.5079L14.136 84.409C14.2522 84.2631 14.3587 84.1097 14.4549 83.9498C14.4708 83.9249 14.4836 83.8981 14.4932 83.8701L14.5123 83.8223L14.5442 83.7394C14.5513 83.7144 14.5598 83.69 14.5697 83.666C14.5697 83.6309 14.5888 83.6022 14.6016 83.564L14.6303 83.4747C14.6303 83.4332 14.6526 83.395 14.6654 83.3503C14.6781 83.3057 14.6877 83.2802 14.6973 83.2451C14.7068 83.21 14.7228 83.1494 14.7387 83.0984C14.7546 83.0474 14.761 83.0123 14.7738 82.9709C14.7865 82.9294 14.7993 82.8688 14.8152 82.8114C14.8312 82.754 14.8407 82.7158 14.8535 82.6679C14.8663 82.6201 14.8822 82.5531 14.8981 82.4894L14.9364 82.3395L14.9842 82.145C14.9842 82.0908 15.0129 82.0302 15.0289 81.9728L15.0767 81.7687C15.0927 81.7113 15.1054 81.6475 15.1214 81.587C15.1373 81.5264 15.1564 81.4435 15.1724 81.3701L15.2202 81.1756C15.2202 81.1023 15.2553 81.0289 15.2712 80.9524C15.2872 80.8759 15.3031 80.8121 15.3222 80.7419C15.3414 80.6718 15.3573 80.5889 15.3733 80.5092C15.3747 80.4869 15.3747 80.4645 15.3733 80.4422C15.3733 80.3976 15.3956 80.3529 15.4052 80.3083C15.4147 80.2636 15.4434 80.1361 15.4657 80.0468C15.4881 79.9575 15.4944 79.9129 15.5104 79.8427C15.5263 79.7726 15.5486 79.6673 15.571 79.578L15.6188 79.3676L15.6762 79.1029C15.6762 79.0264 15.7113 78.9467 15.7272 78.8701L15.7846 78.6182C15.7846 78.5385 15.8197 78.4556 15.8356 78.3759L15.893 78.124C15.893 78.0857 15.893 78.0474 15.9154 78.0092C15.9377 77.9709 15.9377 77.9199 15.9472 77.8752C15.9568 77.8306 15.9823 77.7094 15.9983 77.6265C16.0142 77.5436 16.0333 77.4639 16.0525 77.381C16.0716 77.2981 16.0875 77.2088 16.1067 77.1259C16.1258 77.043 16.1418 76.9601 16.1609 76.8772C16.18 76.7943 16.1928 76.7177 16.2119 76.638C16.231 76.5583 16.247 76.4626 16.2661 76.3733L16.314 76.1438C16.3331 76.0608 16.349 75.9811 16.365 75.9014C16.3809 75.8217 16.4 75.7324 16.4192 75.6495L16.467 75.4103C16.467 75.337 16.4989 75.2637 16.5117 75.1903C16.5244 75.117 16.534 75.0819 16.5467 75.0277L16.5659 74.9352C16.5659 74.8651 16.5946 74.7949 16.6073 74.7248C16.6201 74.6546 16.6424 74.5653 16.6583 74.4856C16.6743 74.4059 16.6838 74.3485 16.6998 74.2815L16.7476 74.036C16.7476 73.9818 16.7699 73.9244 16.7795 73.8702L16.8178 73.6852C16.8178 73.6629 16.8178 73.6406 16.8178 73.6151C16.8178 73.5896 16.8401 73.5098 16.8497 73.4556L16.8975 73.2229L16.9262 73.0634C16.9421 72.9901 16.9549 72.9167 16.9676 72.8498L16.9963 72.7095L17.0346 72.4958C17.0346 72.4576 17.0346 72.4225 17.0569 72.3874L17.0952 72.1801L17.1143 72.0781C17.1143 72.0143 17.1367 71.9537 17.1462 71.8963C17.1462 71.8198 17.1717 71.7433 17.1845 71.6763C17.2387 71.3574 17.312 70.6527 17.4013 69.6674C17.4364 69.2975 17.4715 68.8893 17.5097 68.4429C17.6469 66.8166 17.8063 64.7248 17.9753 62.4289C17.9753 62.2216 18.004 62.0112 18.0199 61.7912C18.6577 53.1114 19.3656 41.9731 19.3656 41.9731C19.3697 41.8724 19.3534 41.7719 19.3178 41.6777C19.2822 41.5835 19.228 41.4974 19.1583 41.4246Z" fill="black"/>
<path d="M3.37455 71.0993C3.37455 71.0993 2.98234 79.3136 3.02698 81.5904C3.07162 83.8671 3.12583 84.7185 4.25465 84.9194C5.38347 85.1203 9.73931 85.5572 10.951 85.1171C12.1628 84.6771 12.5454 84.288 12.9536 83.6152C13.3617 82.9424 15.2814 73.8672 15.715 71.3194C16.1487 68.7716 17.8993 41.6257 17.8993 41.6257C17.8993 41.6257 17.9663 41.0485 16.8024 40.5351C15.8458 40.1046 11.1519 39.8974 9.63408 39.8464C9.2723 39.83 8.91572 39.9373 8.62304 40.1506C8.33035 40.3638 8.119 40.6704 8.02376 41.0198C8.02376 41.0198 8.02376 41.0453 8.02376 41.0549C7.73358 42.2252 3.37455 71.0993 3.37455 71.0993Z" fill="#65AEFF"/>
<mask id="mask0_2256_8477" style="mask-type:luminance" maskUnits="userSpaceOnUse" x="3" y="39" width="15" height="47">
<path d="M3.37455 71.0984C3.37455 71.0984 2.98234 79.3126 3.02698 81.5894C3.07162 83.8661 3.12583 84.7175 4.25465 84.9184C5.38347 85.1193 9.73931 85.5562 10.951 85.1161C12.1628 84.6761 12.5454 84.2871 12.9536 83.6142C13.3617 82.9414 15.2814 73.8662 15.715 71.3184C16.1487 68.7706 17.8993 41.6247 17.8993 41.6247C17.8993 41.6247 17.9663 41.0475 16.8024 40.5342C15.8458 40.1037 11.1519 39.8964 9.63408 39.8454C9.2723 39.829 8.91572 39.9363 8.62304 40.1496C8.33035 40.3629 8.119 40.6694 8.02376 41.0188C8.02376 41.0188 8.02376 41.0444 8.02376 41.0539C7.73358 42.2242 3.37455 71.0984 3.37455 71.0984Z" fill="white"/>
</mask>
<g mask="url(#mask0_2256_8477)">
<path opacity="0.5" d="M10.3066 85.2504C10.5236 85.2301 10.7376 85.1852 10.9444 85.1164C12.1689 84.6764 12.5388 84.2874 12.9469 83.6145C13.3551 82.9417 15.2747 73.8665 15.7084 71.3187C16.1421 68.7709 17.8927 41.625 17.8927 41.625C17.8927 41.625 17.9597 41.0478 16.7958 40.5345C16.6833 40.4874 16.567 40.4501 16.4482 40.4229C16.1963 46.7206 15.3449 54.1983 13.8493 63.0822C12.4527 71.4877 10.8679 81.6471 10.3066 85.2504Z" fill="black"/>
</g>
<path d="M3.37455 71.0993C3.37455 71.0993 2.98234 79.3136 3.02698 81.5904C3.07162 83.8671 3.12583 84.7185 4.25465 84.9194C5.38347 85.1203 9.73931 85.5572 10.951 85.1171C12.1628 84.6771 12.5454 84.288 12.9536 83.6152C13.3617 82.9424 15.2814 73.8672 15.715 71.3194C16.1487 68.7716 17.8993 41.6257 17.8993 41.6257C17.8993 41.6257 17.9663 41.0485 16.8024 40.5351C15.8458 40.1046 11.1519 39.8974 9.63408 39.8464C9.2723 39.83 8.91572 39.9373 8.62304 40.1506C8.33035 40.3638 8.119 40.6704 8.02376 41.0198C8.02376 41.0198 8.02376 41.0453 8.02376 41.0549C7.73358 42.2252 3.37455 71.0993 3.37455 71.0993Z" stroke="#263238" stroke-linecap="round" stroke-linejoin="round"/>
<path d="M12.2841 72.0533C10.9225 72.0533 5.05841 71.4347 4.14962 71.2402C3.89093 71.1864 3.63544 71.1183 3.38432 71.0361V71.0999C3.38432 71.0999 2.9921 79.3141 3.03674 81.5909C3.08139 83.8677 3.1356 84.7191 4.26441 84.92C5.39323 85.1209 9.74907 85.5577 10.9608 85.1177C12.1725 84.6776 12.5552 84.2886 12.9633 83.6158C13.3715 82.9429 15.1955 74.3684 15.6865 71.5431C14.5386 72.1394 13.4034 72.0438 12.2841 72.0533Z" fill="#263238"/>
<mask id="mask1_2256_8477" style="mask-type:luminance" maskUnits="userSpaceOnUse" x="3" y="71" width="13" height="15">
<path d="M12.2822 72.0533C10.9206 72.0533 5.05646 71.4347 4.14767 71.2402C3.88898 71.1864 3.63349 71.1183 3.38237 71.0361V71.0999C3.38237 71.0999 2.99015 79.3141 3.03479 81.5909C3.07943 83.8677 3.13364 84.7191 4.26246 84.92C5.39128 85.1209 9.74712 85.5577 10.9588 85.1177C12.1706 84.6776 12.5532 84.2886 12.9614 83.6158C13.3695 82.9429 15.1935 74.3684 15.6846 71.5431C14.5366 72.1394 13.4014 72.0438 12.2822 72.0533Z" fill="white"/>
</mask>
<g mask="url(#mask1_2256_8477)">
<path opacity="0.5" d="M10.3047 85.2514C10.5217 85.2311 10.7356 85.1861 10.9424 85.1174C12.1669 84.6774 12.5368 84.2883 12.945 83.6155C13.3531 82.9427 15.2728 73.8675 15.7064 71.3197C16.1401 68.7719 17.8907 41.626 17.8907 41.626C17.8907 41.626 17.9577 41.0488 16.7938 40.5354C16.6813 40.4884 16.5651 40.451 16.4462 40.4238C16.1943 46.7216 15.3429 54.1993 13.8474 63.0831C12.4507 71.4887 10.8659 81.6481 10.3047 85.2514Z" fill="black"/>
<path opacity="0.26" d="M12.2949 72.8125C13.1905 72.7743 14.0792 72.6374 14.9448 72.4043" stroke="white" stroke-linecap="round" stroke-linejoin="round"/>
<path d="M3.83789 71.8711C3.83789 71.8711 11.0349 72.8564 12.2945 72.8118" stroke="white" stroke-linecap="round" stroke-linejoin="round"/>
</g>
<path d="M12.2841 72.0533C10.9225 72.0533 5.05841 71.4347 4.14962 71.2402C3.89093 71.1864 3.63544 71.1183 3.38432 71.0361V71.0999C3.38432 71.0999 2.9921 79.3141 3.03674 81.5909C3.08139 83.8677 3.1356 84.7191 4.26441 84.92C5.39323 85.1209 9.74907 85.5577 10.9608 85.1177C12.1725 84.6776 12.5552 84.2886 12.9633 83.6158C13.3715 82.9429 15.1955 74.3684 15.6865 71.5431C14.5386 72.1394 13.4034 72.0438 12.2841 72.0533Z" stroke="#263238" stroke-linecap="round" stroke-linejoin="round"/>
<path d="M106.067 38.3714C112.77 34.8808 115.373 26.6178 111.883 19.9153C108.392 13.2129 100.129 10.6092 93.4268 14.0997C86.7244 17.5903 84.1207 25.8533 87.6112 32.5557C91.1018 39.2582 99.3648 41.8619 106.067 38.3714Z" fill="#263238" stroke="#263238" stroke-linecap="round" stroke-linejoin="round"/>
<path d="M112.303 26.567C113.235 19.0679 107.912 12.2325 100.413 11.2998C92.914 10.3671 86.0786 15.6902 85.1459 23.1893C84.2132 30.6884 89.5363 37.5237 97.0354 38.4564C104.534 39.3892 111.37 34.0661 112.303 26.567Z" fill="white" stroke="#263238" stroke-linecap="round" stroke-linejoin="round"/>
<path d="M110.887 26.8776C111.991 20.161 107.441 13.8215 100.724 12.718C94.0074 11.6145 87.668 16.1649 86.5645 22.8815C85.461 29.5981 90.0113 35.9375 96.7279 37.041C103.445 38.1445 109.784 33.5942 110.887 26.8776Z" fill="#263238" stroke="#263238" stroke-linecap="round" stroke-linejoin="round"/>
<path d="M97.2818 15.6151C97.2818 15.6151 95.9234 12.2159 93.5414 9.82748C91.1594 7.4391 81.4751 5.91806 81.4751 5.91806C83.039 7.4277 84.4608 9.07792 85.7225 10.8479C87.9323 13.9059 95.2441 20.8765 95.2441 20.8765C95.2441 20.8765 91.6727 17.8153 88.4425 17.4773C85.2123 17.1393 77.0555 18.8357 76.5453 18.8357C76.0351 18.8357 79.6033 20.1973 82.1543 21.3867C84.7053 22.5761 94.5618 23.5965 94.5618 23.5965C94.5618 23.5965 90.3143 24.7859 87.4221 25.8063C84.5299 26.8267 81.8131 34.3044 81.8131 34.3044C81.8131 34.3044 85.5535 30.9051 88.7837 30.0537C92.0139 29.2024 96.6026 27.6845 96.6026 27.6845C96.6026 27.6845 93.7135 30.9147 93.0343 33.1245C92.3551 35.3343 92.8621 40.4331 92.8621 40.4331C92.8621 40.4331 94.3928 35.6723 96.2614 33.8037C98.13 31.9351 100.171 28.7017 100.171 28.7017C101.112 30.2369 101.964 31.8254 102.722 33.4593C104.08 36.3515 104.932 40.599 104.932 40.599C104.932 40.599 107.141 35.8413 106.972 33.4593C106.803 31.0773 104.256 26.8331 104.256 26.8331C104.256 26.8331 105.955 25.6437 108.503 26.6641C111.051 27.6845 115.474 31.9351 115.474 31.9351C115.474 31.9351 114.453 26.3261 112.754 24.1163C111.054 21.9065 103.745 21.2241 103.745 21.2241C103.745 21.2241 107.824 18.8453 110.375 18.3351C112.926 17.8249 116.325 19.0143 116.325 19.0143C116.325 19.0143 112.412 13.5934 109.354 13.2363C106.296 12.8791 101.701 17.6559 101.701 17.6559C101.701 17.6559 102.722 12.5539 103.063 10.8574C103.404 9.16103 102.722 4.90723 102.722 4.90723C102.722 4.90723 100.853 5.92763 98.6434 9.15784C97.995 10.0879 97.5403 11.1388 97.3064 12.2481C97.0725 13.3574 97.0641 14.5024 97.2818 15.6151Z" fill="#65AEFF"/>
<path opacity="0.5" d="M97.2818 15.6151C97.2818 15.6151 95.9234 12.2159 93.5414 9.82748C91.1594 7.4391 81.4751 5.91806 81.4751 5.91806C83.039 7.4277 84.4608 9.07792 85.7225 10.8479C87.9323 13.9059 95.2441 20.8765 95.2441 20.8765C95.2441 20.8765 91.6727 17.8153 88.4425 17.4773C85.2123 17.1393 77.0555 18.8357 76.5453 18.8357C76.0351 18.8357 79.6033 20.1973 82.1543 21.3867C84.7053 22.5761 94.5618 23.5965 94.5618 23.5965C94.5618 23.5965 90.3143 24.7859 87.4221 25.8063C84.5299 26.8267 81.8131 34.3044 81.8131 34.3044C81.8131 34.3044 85.5535 30.9051 88.7837 30.0537C92.0139 29.2024 96.6026 27.6845 96.6026 27.6845C96.6026 27.6845 93.7135 30.9147 93.0343 33.1245C92.3551 35.3343 92.8621 40.4331 92.8621 40.4331C92.8621 40.4331 94.3928 35.6723 96.2614 33.8037C98.13 31.9351 100.171 28.7017 100.171 28.7017C101.112 30.2369 101.964 31.8254 102.722 33.4593C104.08 36.3515 104.932 40.599 104.932 40.599C104.932 40.599 107.141 35.8413 106.972 33.4593C106.803 31.0773 104.256 26.8331 104.256 26.8331C104.256 26.8331 105.955 25.6437 108.503 26.6641C111.051 27.6845 115.474 31.9351 115.474 31.9351C115.474 31.9351 114.453 26.3261 112.754 24.1163C111.054 21.9065 103.745 21.2241 103.745 21.2241C103.745 21.2241 107.824 18.8453 110.375 18.3351C112.926 17.8249 116.325 19.0143 116.325 19.0143C116.325 19.0143 112.412 13.5934 109.354 13.2363C106.296 12.8791 101.701 17.6559 101.701 17.6559C101.701 17.6559 102.722 12.5539 103.063 10.8574C103.404 9.16103 102.722 4.90723 102.722 4.90723C102.722 4.90723 100.853 5.92763 98.6434 9.15784C97.995 10.0879 97.5403 11.1388 97.3064 12.2481C97.0725 13.3574 97.0641 14.5024 97.2818 15.6151Z" fill="black"/>
<path d="M100.629 10.4436C100.747 9.95252 100.878 9.46783 101.021 8.98633" stroke="#263238" stroke-width="0.5" stroke-linecap="round" stroke-linejoin="round"/>
<path d="M89.2695 10.4404C90.8639 11.6043 92.8505 13.2019 93.8741 14.5858C95.7427 17.1368 99.4831 22.5768 99.4831 22.5768C99.3768 18.9243 99.6666 15.271 100.347 11.6809" stroke="#263238" stroke-width="0.5" stroke-linecap="round" stroke-linejoin="round"/>
<path d="M86.9141 8.81738C86.9141 8.81738 87.4083 9.13626 88.1513 9.64327" stroke="#263238" stroke-width="0.5" stroke-linecap="round" stroke-linejoin="round"/>
<path d="M99.4902 22.5828C99.4902 22.5828 105.951 16.1224 108.671 15.6122C111.391 15.102 113.773 17.1428 113.773 17.1428" stroke="#263238" stroke-width="0.5" stroke-linecap="round" stroke-linejoin="round"/>
<path d="M87.948 28.0039C86.3759 29.0052 86.2324 29.5696 86.2324 29.5696" stroke="#263238" stroke-width="0.5" stroke-linecap="round" stroke-linejoin="round"/>
<path d="M113.602 28.5366C113.602 28.5366 112.581 25.9856 109.01 24.7962C105.439 23.6068 99.8328 23.4346 99.8328 23.4346C99.8328 23.4346 91.9661 26.0111 89.0898 27.3536" stroke="#263238" stroke-width="0.5" stroke-linecap="round" stroke-linejoin="round"/>
<path d="M96.3984 22.4648C98.3117 23.0165 99.8327 23.4215 99.8327 23.4215" stroke="#263238" stroke-width="0.5" stroke-linecap="round" stroke-linejoin="round"/>
<path d="M84.4238 19.4453C86.2701 19.5569 88.6489 19.8088 89.9723 20.3764C91.0501 20.8388 93.177 21.5084 95.1795 22.1047" stroke="#263238" stroke-width="0.5" stroke-linecap="round" stroke-linejoin="round"/>
<path d="M81.8125 19.3555C81.8125 19.3555 82.4343 19.3555 83.3527 19.3905" stroke="#263238" stroke-width="0.5" stroke-linecap="round" stroke-linejoin="round"/>
<path d="M99.492 24.4541C99.492 24.4541 94.7344 31.5937 94.39 33.2933C94.1855 34.3016 94.0713 35.326 94.0488 36.3545" stroke="#263238" stroke-width="0.5" stroke-linecap="round" stroke-linejoin="round"/>
<path d="M101.609 26.7031C102.525 27.8862 103.625 29.4614 104.081 30.7465C104.618 32.2939 105.017 33.886 105.273 35.5041" stroke="#263238" stroke-width="0.5" stroke-linecap="round" stroke-linejoin="round"/>
<path d="M100.172 24.9648C100.172 24.9648 100.551 25.3858 101.077 26.0331" stroke="#263238" stroke-width="0.5" stroke-linecap="round" stroke-linejoin="round"/>
<path d="M95.1239 17.0822C95.1239 17.0822 94.2438 13.5267 94.7891 10.204C95.3344 6.88133 102.315 0 102.315 0C101.923 2.13856 101.73 4.30867 101.737 6.48274C101.737 10.2582 99.8528 20.1944 99.8528 20.1944C99.8528 20.1944 100.969 15.6249 103.396 13.4661C105.822 11.3073 113.437 7.91449 113.851 7.59562C114.266 7.27674 112.161 10.4846 110.784 12.94C109.406 15.3953 101.992 21.9705 101.992 21.9705C101.992 21.9705 106.138 20.4591 109.081 19.6013C112.024 18.7435 118.606 23.246 118.606 23.246C118.606 23.246 113.587 22.6657 110.468 23.8583C107.35 25.0509 102.729 26.4858 102.729 26.4858C102.729 26.4858 106.961 27.4265 108.788 28.8232C110.615 30.2198 113.185 34.6618 113.185 34.6618C113.185 34.6618 109.167 31.6867 106.559 31.2594C103.95 30.8321 100.408 29.3971 100.408 29.3971C100.54 31.1938 100.776 32.9813 101.112 34.7511C101.693 37.892 103.482 41.8397 103.482 41.8397C103.482 41.8397 98.9122 39.2631 97.6622 37.2287C96.4122 35.1943 96.004 30.2581 96.004 30.2581C96.004 30.2581 93.9281 30.2836 92.4517 32.5986C90.9754 34.9137 89.8657 40.9436 89.8657 40.9436C89.8657 40.9436 87.4199 35.7938 87.5124 33.0068C87.6048 30.2198 93.1469 25.4048 93.1469 25.4048C93.1469 25.4048 88.4435 25.8512 86.0742 26.9227C83.705 27.9941 81.6387 30.9469 81.6387 30.9469C81.6387 30.9469 81.6387 24.2505 83.9282 22.1874C86.2177 20.1242 92.7228 21.3073 92.7228 21.3073L87.6527 16.5752C86.3772 15.3953 84.4639 11.5465 84.4639 11.5465C84.4639 11.5465 86.5749 11.2818 90.2547 12.6179C91.3246 12.9967 92.3072 13.5873 93.1438 14.3543C93.9804 15.1213 94.6538 16.0491 95.1239 17.0822Z" fill="#65AEFF"/>
<path d="M89.3858 14.8307C89.0032 14.5011 88.6142 14.1823 88.2188 13.874" stroke="#263238" stroke-width="0.5" stroke-linecap="round" stroke-linejoin="round"/>
<path d="M98.6063 8.20801C97.9909 10.0798 97.3085 12.5383 97.2894 14.2666C97.2575 17.4267 97.3946 24.0274 97.3946 24.0274C95.3515 20.9975 92.9854 18.1984 90.3379 15.6793" stroke="#263238" stroke-width="0.5" stroke-linecap="round" stroke-linejoin="round"/>
<path d="M99.5808 5.50977C99.5808 5.50977 99.3576 6.05504 99.0547 6.90325" stroke="#263238" stroke-width="0.5" stroke-linecap="round" stroke-linejoin="round"/>
<path d="M97.3934 24.0309C97.3934 24.0309 88.3788 22.5513 85.8724 23.712C83.366 24.8727 82.623 27.9276 82.623 27.9276" stroke="#263238" stroke-width="0.5" stroke-linecap="round" stroke-linejoin="round"/>
<path d="M109.922 21.6836C111.784 21.5815 112.227 21.9578 112.227 21.9578" stroke="#263238" stroke-width="0.5" stroke-linecap="round" stroke-linejoin="round"/>
<path d="M89.4022 37.0919C89.4022 37.0919 88.7453 34.4261 90.9487 31.3777C93.1522 28.3292 97.6132 24.9204 97.6132 24.9204C97.6132 24.9204 105.502 22.4236 108.624 21.8369" stroke="#263238" stroke-width="0.5" stroke-linecap="round" stroke-linejoin="round"/>
<path d="M99.8356 22.1299C98.6144 23.686 97.6035 24.92 97.6035 24.92" stroke="#263238" stroke-width="0.5" stroke-linecap="round" stroke-linejoin="round"/>
<path d="M107.801 12.6982C106.363 13.8653 104.581 15.4565 103.835 16.6906C103.229 17.695 101.896 19.4807 100.617 21.1325" stroke="#263238" stroke-width="0.5" stroke-linecap="round" stroke-linejoin="round"/>
<path d="M109.868 11.1035C109.868 11.1035 109.364 11.4638 108.641 12.0283" stroke="#263238" stroke-width="0.5" stroke-linecap="round" stroke-linejoin="round"/>
<path d="M98.4844 25.5479C98.4844 25.5479 106.514 28.5708 107.783 29.7538C108.535 30.454 109.224 31.2191 109.843 32.0402" stroke="#263238" stroke-width="0.5" stroke-linecap="round" stroke-linejoin="round"/>
<path d="M98.0762 28.6064C98.022 30.1052 98.0475 32.028 98.4238 33.3354C98.8911 34.906 99.4973 36.432 100.235 37.8953" stroke="#263238" stroke-width="0.5" stroke-linecap="round" stroke-linejoin="round"/>
<path d="M98.2288 26.3613C98.2288 26.3613 98.165 26.9194 98.1172 27.7548" stroke="#263238" stroke-width="0.5" stroke-linecap="round" stroke-linejoin="round"/>
<path opacity="0.3" d="M101.455 95.3916C100.843 93.6665 100.735 84.6168 100.872 78.1723L104.453 78.9472C105.075 79.0818 105.724 78.9855 106.28 78.6761C106.415 78.6008 106.543 78.5133 106.663 78.4147C106.78 78.3194 106.886 78.2126 106.982 78.0958C107.321 77.7203 107.543 77.2536 107.619 76.7533C107.633 76.6646 107.641 76.5751 107.645 76.4855C107.669 75.9683 107.539 75.4555 107.272 75.0123C107.185 74.8681 107.085 74.7325 106.972 74.6073C106.564 74.1541 106.01 73.8575 105.406 73.7687L101.082 73.1309C101.121 72.5697 101.165 72.1328 101.21 71.8554C101.287 71.4349 101.319 71.0073 101.306 70.5799L101.602 69.6233C102.039 68.2234 101.707 66.1635 100.518 64.9932C99.3286 63.8229 95.0971 61.763 93.8599 60.682C92.6226 59.601 83.3593 53.0035 81.698 53.3925C80.0366 53.7815 78.0723 56.1508 76.3983 57.4614C74.7242 58.7719 68.6942 63.7177 68.6942 63.7177C68.7133 63.5104 65.5947 64.77 64.8358 65.9913C64.7787 66.046 64.7344 66.1127 64.7063 66.1866C64.6782 66.2605 64.6669 66.3397 64.6732 66.4186C64.7623 66.7661 64.935 67.0866 65.1762 67.3523C65.4174 67.6179 65.7198 67.8206 66.0571 67.9428L63.353 67.5442C63.2 67.5217 63.0436 67.5434 62.9024 67.6066C62.7612 67.6699 62.641 67.7721 62.5559 67.9013C61.5992 67.7578 59.6477 67.5442 58.2383 67.93C58.2383 67.93 60.5374 69.0557 62.2561 69.4319C62.3015 69.5649 62.3806 69.6839 62.4857 69.7772C62.5907 69.8706 62.7182 69.9351 62.8556 69.9645L66.443 70.733C66.3771 70.9413 66.3281 71.1546 66.2963 71.3707C66.2709 71.5678 66.2984 71.7681 66.376 71.9511C66.3919 72.0722 66.4143 72.1966 66.443 72.3273C66.9532 74.4957 69.7082 77.1296 71.7172 78.8707C73.7261 80.6117 75.6489 83.5932 76.8415 87.0498C78.0341 90.5064 78.7803 93.692 81.4333 97.1996C81.8847 97.7924 82.3758 98.3539 82.9033 98.8801L107.638 114.505C107.638 114.505 102.345 97.9267 101.455 95.3916ZM69.1821 68.1979C69.1406 68.2617 69.0992 68.3254 69.0641 68.3924L68.3817 68.2904C68.6503 68.2784 68.9178 68.2475 69.1821 68.1979Z" fill="black"/>
<path d="M93.1489 123L77.3582 95.7041C77.3582 95.7041 75.5917 83.303 71.8257 78.3126C68.0598 73.3222 62.7792 69.6807 65.8436 67.1297C68.908 64.5787 76.6854 59.6999 78.2798 60.0124C79.8741 60.3249 90.6075 65.7521 93.64 66.629C96.6725 67.5059 97.7344 68.7942 97.2816 71.4122C96.8288 74.0301 96.6438 92.3878 97.5399 94.9229C98.4359 97.4579 108.404 115.525 108.404 115.525" fill="white"/>
<mask id="mask2_2256_8477" style="mask-type:luminance" maskUnits="userSpaceOnUse" x="64" y="59" width="45" height="64">
<path d="M93.1509 123L77.3602 95.7041C77.3602 95.7041 75.5936 83.303 71.8277 78.3126C68.0618 73.3222 62.7812 69.6807 65.8456 67.1297C68.91 64.5787 76.6873 59.6999 78.2817 60.0124C79.8761 60.3249 90.6095 65.7521 93.642 66.629C96.6745 67.5059 97.7363 68.7942 97.2835 71.4122C96.8307 74.0301 96.6458 92.3878 97.5418 94.9229C98.4378 97.4579 108.406 115.525 108.406 115.525" fill="white"/>
</mask>
<g mask="url(#mask2_2256_8477)">
<path d="M97.5616 94.9295C96.6592 92.3944 96.8506 74.0431 97.3034 71.4188C97.5808 69.8244 97.2874 68.7115 96.3212 67.9111C96.3558 69.3654 96.1189 70.8134 95.6229 72.1809C94.7715 74.5948 94.3474 76.2976 94.3474 76.2976C94.3474 76.2976 94.2071 84.955 94.7747 89.3715C95.3423 93.7879 98.1803 101.578 100.878 105.838C102.874 108.989 105.722 111.827 107.071 113.093C104.296 108.042 98.2377 96.881 97.5616 94.9295Z" fill="#65AEFF"/>
<path opacity="0.5" d="M97.5616 94.9295C96.6592 92.3944 96.8506 74.0431 97.3034 71.4188C97.5808 69.8244 97.2874 68.7115 96.3212 67.9111C96.3558 69.3654 96.1189 70.8134 95.6229 72.1809C94.7715 74.5948 94.3474 76.2976 94.3474 76.2976C94.3474 76.2976 94.2071 84.955 94.7747 89.3715C95.3423 93.7879 98.1803 101.578 100.878 105.838C102.874 108.989 105.722 111.827 107.071 113.093C104.296 108.042 98.2377 96.881 97.5616 94.9295Z" fill="white"/>
</g>
<path d="M93.1489 123L77.3582 95.7041C77.3582 95.7041 75.5917 83.303 71.8257 78.3126C68.0598 73.3222 62.7792 69.6807 65.8436 67.1297C68.908 64.5787 76.6854 59.6999 78.2798 60.0124C79.8741 60.3249 90.6075 65.7521 93.64 66.629C96.6725 67.5059 97.7344 68.7942 97.2816 71.4122C96.8288 74.0301 96.6438 92.3878 97.5399 94.9229C98.4359 97.4579 108.404 115.525 108.404 115.525" stroke="#263238" stroke-miterlimit="10" stroke-linecap="round"/>
<path d="M61.6818 67.6209C64.1585 67.4841 66.5562 66.7014 68.6365 65.3505C72.1856 63.0801 71.0504 62.6528 71.0504 62.6528C71.0504 62.6528 72.8935 62.0852 74.0287 61.6611C74.9803 61.2365 75.8845 60.7128 76.7264 60.0986C76.7264 60.0986 81.2703 63.0801 83.3972 63.9251C84.4158 64.3577 85.4645 64.7158 86.535 64.9966L89.5037 68.8932C87.8346 69.6804 86.4114 70.9073 85.387 72.4423C83.6842 74.9933 81.5605 78.4021 80.5592 78.8198C79.558 79.2375 79.9917 79.6712 75.5912 77.9684C71.1907 76.2656 61.398 70.1783 61.6818 67.6209Z" fill="#65AEFF"/>
<path opacity="0.5" d="M61.6818 67.6209C64.1585 67.4841 66.5562 66.7014 68.6365 65.3505C72.1856 63.0801 71.0504 62.6528 71.0504 62.6528C71.0504 62.6528 72.8935 62.0852 74.0287 61.6611C74.9803 61.2365 75.8845 60.7128 76.7264 60.0986C76.7264 60.0986 81.2703 63.0801 83.3972 63.9251C84.4158 64.3577 85.4645 64.7158 86.535 64.9966L89.5037 68.8932C87.8346 69.6804 86.4114 70.9073 85.387 72.4423C83.6842 74.9933 81.5605 78.4021 80.5592 78.8198C79.558 79.2375 79.9917 79.6712 75.5912 77.9684C71.1907 76.2656 61.398 70.1783 61.6818 67.6209Z" fill="white"/>
<path d="M69.5449 68.9319C69.5449 68.9319 72.9569 68.511 75.3612 64.1328C75.3612 64.1328 78.1928 65.3318 81.1392 64.5633" stroke="#263238" stroke-miterlimit="10" stroke-linecap="round"/>
<path d="M78.7942 65.7656C78.7942 65.7656 77.1488 70.1215 80.6182 75.8835" stroke="#263238" stroke-miterlimit="10" stroke-linecap="round"/>
<path d="M75.1504 66.1631C75.1504 66.1631 76.8691 68.2772 77.1497 70.1203" stroke="#263238" stroke-miterlimit="10" stroke-linecap="round"/>
<path d="M78.3672 77.9206C78.3672 77.9206 81.2371 76.1061 82.7645 74.2184C84.2919 72.3307 84.9807 70.3409 87.3882 69.5469" stroke="#263238" stroke-miterlimit="10" stroke-linecap="round"/>
<path d="M75.3604 64.1325L74.6621 63.3066" stroke="#263238" stroke-miterlimit="10" stroke-linecap="round"/>
<path d="M59.2261 67.5444C59.2261 67.5444 56.2605 66.9449 54.3281 67.4742C54.3281 67.4742 57.1725 68.8677 58.8976 69.0686L59.2261 67.5444Z" fill="#263238" stroke="#263238" stroke-miterlimit="10" stroke-linecap="round"/>
<path d="M101.482 73.3289L59.4415 67.0821C59.241 67.0523 59.0365 67.0981 58.868 67.2107C58.6994 67.3233 58.5788 67.4946 58.5295 67.6912L58.3382 68.5011C58.3108 68.6074 58.3053 68.7181 58.3218 68.8265C58.3384 68.935 58.3767 69.0389 58.4345 69.1322C58.4923 69.2254 58.5684 69.306 58.6581 69.3691C58.7479 69.4322 58.8495 69.4764 58.9568 69.4992L100.554 78.4915C100.905 78.5674 101.269 78.5704 101.621 78.5004C101.974 78.4303 102.308 78.2887 102.604 78.0843C102.899 77.8798 103.15 77.6169 103.34 77.3118C103.53 77.0067 103.655 76.6659 103.708 76.3104C103.758 75.9684 103.74 75.6199 103.655 75.2849C103.57 74.9498 103.42 74.6348 103.214 74.3579C103.007 74.0809 102.747 73.8474 102.45 73.6709C102.153 73.4943 101.824 73.3781 101.482 73.3289Z" fill="#65AEFF" stroke="#263238" stroke-miterlimit="10" stroke-linecap="round"/>
<path d="M101.483 73.3297L95.1278 72.373C94.5475 72.7247 94.0946 73.2523 93.8348 73.8791C93.575 74.506 93.5219 75.1993 93.6833 75.8584C93.7905 76.3236 93.9996 76.7592 94.2955 77.1339L100.542 78.4827C100.894 78.5586 101.257 78.5616 101.609 78.4916C101.962 78.4215 102.296 78.2799 102.592 78.0755C102.887 77.871 103.138 77.6081 103.328 77.303C103.518 76.9979 103.643 76.6571 103.696 76.3016C103.795 75.6143 103.617 74.916 103.203 74.3591C102.788 73.8023 102.17 73.4322 101.483 73.3297Z" fill="#263238" stroke="#263238" stroke-miterlimit="10" stroke-linecap="round"/>
<path d="M84.4679 77.2505C84.4679 77.2505 80.8519 78.0987 79.2352 77.7161C77.6185 77.3334 74.3181 72.6906 72.0509 71.1632C69.7837 69.6358 68.403 69.2722 66.0305 68.9151C63.6581 68.558 62.0191 69.7027 62.5229 71.8743C63.0267 74.0458 65.785 76.6765 67.7971 78.4176C69.8092 80.1587 71.7289 83.137 72.9215 86.5968C74.114 90.0566 74.8602 93.2357 77.5133 96.7306C80.1663 100.225 83.4762 101.664 84.5891 101.858" fill="white"/>
<mask id="mask3_2256_8477" style="mask-type:luminance" maskUnits="userSpaceOnUse" x="62" y="68" width="23" height="34">
<path d="M84.4699 77.2495C84.4699 77.2495 80.8538 78.0977 79.2371 77.7151C77.6204 77.3324 74.3201 72.6896 72.0529 71.1622C69.7857 69.6348 68.4049 69.2713 66.0325 68.9141C63.6601 68.557 62.021 69.7017 62.5249 71.8733C63.0287 74.0448 65.787 76.6756 67.7991 78.4166C69.8112 80.1577 71.7308 83.136 72.9234 86.5958C74.116 90.0556 74.8622 93.2348 77.5152 96.7296C80.1683 100.225 83.4782 101.663 84.5911 101.857" fill="white"/>
</mask>
<g mask="url(#mask3_2256_8477)">
<path d="M82.6729 77.7625L82.4178 77.6317C81.3209 77.7912 80.0358 77.9028 79.229 77.7146C77.6155 77.332 74.312 72.6892 72.0479 71.1617C69.7839 69.6343 68.4 69.2708 66.0276 68.9137C65.649 68.8548 65.2651 68.8377 64.8828 68.8627C66.7115 69.3217 68.4407 70.1117 69.9848 71.1936C72.5103 73.0176 74.3343 77.6445 77.1372 78.4863C79.9401 79.3282 82.6729 77.7625 82.6729 77.7625Z" fill="#65AEFF"/>
<path opacity="0.5" d="M82.6729 77.7625L82.4178 77.6317C81.3209 77.7912 80.0358 77.9028 79.229 77.7146C77.6155 77.332 74.312 72.6892 72.0479 71.1617C69.7839 69.6343 68.4 69.2708 66.0276 68.9137C65.649 68.8548 65.2651 68.8377 64.8828 68.8627C66.7115 69.3217 68.4407 70.1117 69.9848 71.1936C72.5103 73.0176 74.3343 77.6445 77.1372 78.4863C79.9401 79.3282 82.6729 77.7625 82.6729 77.7625Z" fill="white"/>
</g>
<path d="M84.4679 77.2505C84.4679 77.2505 80.8519 78.0987 79.2352 77.7161C77.6185 77.3334 74.3181 72.6906 72.0509 71.1632C69.7837 69.6358 68.403 69.2722 66.0305 68.9151C63.6581 68.558 62.0191 69.7027 62.5229 71.8743C63.0267 74.0458 65.785 76.6765 67.7971 78.4176C69.8092 80.1587 71.7289 83.137 72.9215 86.5968C74.1141 90.0566 74.8602 93.2357 77.5133 96.7306C80.1663 100.225 83.4762 101.664 84.5891 101.858" stroke="#263238" stroke-miterlimit="10" stroke-linecap="round"/>
<path d="M64.3479 73.431C64.3479 73.431 64.5201 71.5592 67.0839 69.815C67.0839 69.815 65.3715 68.6893 64.198 68.8902C63.0246 69.0911 62.5622 69.7321 62.3836 70.9183C62.205 72.1045 64.3479 73.431 64.3479 73.431Z" fill="white" stroke="#263238" stroke-miterlimit="10" stroke-linecap="round"/>
<path d="M66.0312 75.418C66.2282 75.6164 66.4488 75.7899 66.6881 75.9345" stroke="#263238" stroke-miterlimit="10" stroke-linecap="round"/>
<path d="M67.9061 70.9951C67.9061 70.9951 65.1829 72.3982 65.6197 74.5856" stroke="#263238" stroke-miterlimit="10" stroke-linecap="round"/>
<path d="M97.2415 70.5896L97.6752 69.1898C98.1089 67.7931 97.7804 65.7331 96.591 64.5629C95.4016 63.3926 91.1701 61.3327 89.9329 60.2517C88.6957 59.1707 79.4355 52.5572 77.7901 52.9622C76.1447 53.3671 74.1645 55.7204 72.4872 57.0278C70.8099 58.3352 64.7959 63.2587 64.7959 63.2587C64.7959 63.2587 60.5708 65.089 60.7622 65.95C60.9535 66.8109 61.8304 67.9111 64.4803 67.825C67.1301 67.7389 71.5465 65.0986 72.2162 64.7095C72.8858 64.3205 77.0535 61.5909 77.0535 61.5909C78.1329 62.6588 79.3723 63.5518 80.727 64.2376C82.6944 65.1496 82.9591 65.2421 82.9591 65.2421C82.9591 65.2421 83.4725 67.1075 84.917 68.0641" fill="white"/>
<mask id="mask4_2256_8477" style="mask-type:luminance" maskUnits="userSpaceOnUse" x="60" y="52" width="38" height="19">
<path d="M97.2435 70.5896L97.6772 69.1898C98.1108 67.7931 97.7824 65.7331 96.593 64.5629C95.4036 63.3926 91.1721 61.3327 89.9349 60.2517C88.6976 59.1707 79.4375 52.5572 77.7921 52.9622C76.1467 53.3671 74.1665 55.7204 72.4892 57.0278C70.8119 58.3352 64.7979 63.2587 64.7979 63.2587C64.7979 63.2587 60.5728 65.089 60.7641 65.95C60.9554 66.8109 61.8324 67.9111 64.4822 67.825C67.1321 67.7389 71.5485 65.0986 72.2181 64.7095C72.8878 64.3205 77.0555 61.5909 77.0555 61.5909C78.1349 62.6588 79.3742 63.5518 80.7289 64.2376C82.6964 65.1496 82.961 65.2421 82.961 65.2421C82.961 65.2421 83.4744 67.1075 84.9189 68.0641" fill="white"/>
</mask>
<g mask="url(#mask4_2256_8477)">
<path d="M94.8934 64.6393C96.424 65.8415 96.5228 68.2235 96.0987 70.3568L97.2435 70.5895L97.6772 69.1897C98.1108 67.793 97.7824 65.7331 96.593 64.5628C95.4036 63.3925 91.1721 61.3326 89.9349 60.2516C89.616 59.971 88.7359 59.3109 87.5975 58.501L87.3711 58.5361C87.3711 58.5361 92.9068 63.08 94.8934 64.6393Z" fill="#65AEFF"/>
<path opacity="0.5" d="M94.8934 64.6393C96.424 65.8415 96.5228 68.2235 96.0987 70.3568L97.2435 70.5895L97.6772 69.1897C98.1108 67.793 97.7824 65.7331 96.593 64.5628C95.4036 63.3925 91.1721 61.3326 89.9349 60.2516C89.616 59.971 88.7359 59.3109 87.5975 58.501L87.3711 58.5361C87.3711 58.5361 92.9068 63.08 94.8934 64.6393Z" fill="white"/>
<path d="M61.6799 67.6209C64.1565 67.4841 66.5542 66.7014 68.6345 65.3505C72.1836 63.0801 71.0484 62.6528 71.0484 62.6528C71.0484 62.6528 72.8915 62.0852 74.0267 61.6611C74.9783 61.2365 75.8826 60.7128 76.7244 60.0986C76.7244 60.0986 81.2684 63.0801 83.3953 63.9251C84.4139 64.3577 85.4626 64.7158 86.533 64.9966L89.5018 68.8932C87.8327 69.6804 86.4095 70.9073 85.3851 72.4423C83.6823 74.9933 81.5586 78.4021 80.5573 78.8198C79.556 79.2375 79.9897 79.6712 75.5892 77.9684C71.1887 76.2656 61.3961 70.1783 61.6799 67.6209Z" fill="#65AEFF"/>
<path opacity="0.5" d="M61.6799 67.6209C64.1565 67.4841 66.5542 66.7014 68.6345 65.3505C72.1836 63.0801 71.0484 62.6528 71.0484 62.6528C71.0484 62.6528 72.8915 62.0852 74.0267 61.6611C74.9783 61.2365 75.8826 60.7128 76.7244 60.0986C76.7244 60.0986 81.2684 63.0801 83.3953 63.9251C84.4139 64.3577 85.4626 64.7158 86.533 64.9966L89.5018 68.8932C87.8327 69.6804 86.4095 70.9073 85.3851 72.4423C83.6823 74.9933 81.5586 78.4021 80.5573 78.8198C79.556 79.2375 79.9897 79.6712 75.5892 77.9684C71.1887 76.2656 61.3961 70.1783 61.6799 67.6209Z" fill="white"/>
</g>
<path d="M97.2415 70.5896L97.6752 69.1898C98.1089 67.7931 97.7804 65.7331 96.591 64.5629C95.4016 63.3926 91.1701 61.3327 89.9329 60.2517C88.6957 59.1707 79.4355 52.5572 77.7901 52.9622C76.1447 53.3671 74.1645 55.7204 72.4872 57.0278C70.8099 58.3352 64.7959 63.2587 64.7959 63.2587C64.7959 63.2587 60.5708 65.089 60.7622 65.95C60.9535 66.8109 61.8304 67.9111 64.4803 67.825C67.1301 67.7389 71.5465 65.0986 72.2162 64.7095C72.8858 64.3205 77.0535 61.5909 77.0535 61.5909C78.1329 62.6588 79.3723 63.5518 80.727 64.2376C82.6944 65.1496 82.9591 65.2421 82.9591 65.2421C82.9591 65.2421 83.4725 67.1075 84.917 68.0641" stroke="#263238" stroke-miterlimit="10" stroke-linecap="round"/>
<path d="M60.7617 65.9506C60.7617 65.9506 61.189 66.1547 62.0946 65.7911C63.0002 65.4276 64.7604 63.4889 64.7796 63.2401C64.7987 62.9914 60.9052 64.6272 60.7617 65.9506Z" fill="white" stroke="#263238" stroke-miterlimit="10" stroke-linecap="round"/>
<path d="M76.8848 58.5039C76.9251 58.3133 76.9751 58.1249 77.0346 57.9395" stroke="#263238" stroke-miterlimit="10" stroke-linecap="round"/>
<path d="M77.0545 61.597C76.8114 60.8312 76.7194 60.0255 76.7834 59.2246" stroke="#263238" stroke-miterlimit="10" stroke-linecap="round"/>
</svg>
