<svg width="32" height="32" viewBox="0 0 32 32" fill="none" xmlns="http://www.w3.org/2000/svg">
<g clip-path="url(#clip0_14275_15575)">
<path d="M15.1205 1.06931C13.1707 1.35235 11.3467 2.49709 10.2648 4.11357C8.20177 7.18298 8.85591 11.3342 11.7618 13.5797C14.6174 15.7874 18.5296 15.5484 21.0644 13.0136C23.4545 10.6235 23.813 6.91881 21.9261 4.11357C21.2405 3.08833 20.3599 2.32098 19.2089 1.75489C17.9069 1.10705 16.498 0.868035 15.1205 1.06931ZM16.4414 3.1701C16.5861 3.30847 16.5986 3.36508 16.5986 3.95003V4.57901L16.9005 4.71109C17.5232 4.97527 18.0201 5.67343 18.0893 6.37789C18.1208 6.6798 18.1082 6.73012 17.9635 6.87478C17.6113 7.22701 17.1836 7.02574 17.0955 6.47223C17.0012 5.86842 16.6615 5.56022 16.0955 5.56022C15.4853 5.56022 15.1205 5.92502 15.1205 6.53513C15.1205 7.14524 15.435 7.45344 16.1583 7.54779C17.3471 7.69245 18.0767 8.45981 18.0767 9.55423C18.0767 10.3656 17.6553 11.0323 16.932 11.3594L16.5986 11.5104V12.1393C16.5986 12.7243 16.5861 12.7809 16.4414 12.9193C16.347 13.0199 16.215 13.0765 16.0955 13.0765C15.9759 13.0765 15.8439 13.0199 15.7495 12.9193C15.6048 12.7809 15.5923 12.7243 15.5923 12.1393V11.5104L15.2589 11.3594C14.6236 11.0701 14.1582 10.4222 14.1016 9.73663C14.0701 9.40956 14.0827 9.35925 14.2274 9.21458C14.5796 8.86235 15.0073 9.06363 15.0954 9.61713C15.1897 10.2209 15.5294 10.5291 16.0955 10.5291C16.7056 10.5291 17.0704 10.1643 17.0704 9.55423C17.0704 8.93154 16.7496 8.62963 16.02 8.54786C15.2023 8.45352 14.6865 8.12645 14.3343 7.46602C14.1393 7.11379 14.1205 7.01945 14.1142 6.56658C14.1142 6.17661 14.1456 5.99421 14.2588 5.74891C14.4475 5.34007 14.9067 4.87463 15.2904 4.71109L15.5923 4.57901V3.95003C15.5923 3.36508 15.6048 3.30847 15.7495 3.1701C15.8439 3.06946 15.9759 3.01285 16.0955 3.01285C16.215 3.01285 16.347 3.06946 16.4414 3.1701Z" fill="#0A77DB" fill-opacity="0.6"/>
<path d="M28.1279 13.7935C27.631 13.9571 27.2662 14.2653 25.6245 15.9069L23.9892 17.5422L24.1842 17.9008C24.5238 18.5297 24.6182 18.8882 24.6182 19.6179C24.6182 20.6242 24.31 21.3853 23.6307 22.0709C23.203 22.4986 22.8759 22.7061 22.2658 22.9452L21.8507 23.1087L18.6303 23.1276L15.4036 23.1464L15.2464 22.9892C15.0577 22.8005 15.0388 22.5237 15.2087 22.3162L15.3282 22.1652L18.5297 22.1338C21.7249 22.1023 21.7249 22.1023 22.1023 21.9514C22.5551 21.769 23.1715 21.184 23.3791 20.7312C24.0772 19.2279 23.2344 17.5171 21.6305 17.1711C21.3726 17.1145 19.7939 17.1019 15.4665 17.1145C10.0322 17.1334 9.62332 17.146 9.23965 17.2529C8.70501 17.4039 8.13264 17.6617 7.71123 17.9448C7.26465 18.2404 6.28345 19.1021 6.28345 19.1964C6.28345 19.2405 7.83702 20.8255 9.73025 22.7187L13.1771 26.1655L18.0768 26.1467C23.5992 26.1215 23.2344 26.1529 24.3163 25.6246C24.7754 25.3982 25.0207 25.2221 25.461 24.8069C25.9516 24.3352 26.2724 23.9012 28.1467 21.2092C30.8765 17.2781 30.8576 17.3032 31.0149 16.8692C31.2728 16.1333 31.2162 15.3597 30.8513 14.781C30.6438 14.4539 30.1658 14.0325 29.8198 13.8816C29.4424 13.7118 28.5178 13.6677 28.1279 13.7935Z" fill="#0A77DB"/>
<path d="M2.65421 20.7687C1.1258 22.2909 1 22.4355 1 22.6368C1 22.8444 1.25159 23.1085 5.17013 27.0208C9.08237 30.9393 9.34655 31.1909 9.55411 31.1909C9.75538 31.1909 9.90005 31.0651 11.4222 29.5367C12.9506 28.0146 13.0764 27.8699 13.0764 27.6686C13.0764 27.4611 12.8248 27.1969 8.90626 23.2847C4.99401 19.3661 4.72984 19.1145 4.52228 19.1145C4.32101 19.1145 4.17634 19.2403 2.65421 20.7687Z" fill="#0A77DB" fill-opacity="0.6"/>
</g>
<defs>
<clipPath id="clip0_14275_15575">
<rect width="32" height="32" fill="white" transform="translate(-0.00146484)"/>
</clipPath>
</defs>
</svg>
