<svg width="33" height="32" viewBox="0 0 33 32" fill="none" xmlns="http://www.w3.org/2000/svg">
<path d="M10.0763 1.0856C9.58124 1.20864 9.20993 1.41955 8.83273 1.7945C8.44964 2.17532 8.21389 2.59128 8.1078 3.10099C8.06065 3.31776 8.04297 4.96405 8.04297 8.43238V13.4591L8.63234 13.4357C9.87593 13.383 11.3081 13.6407 12.5458 14.1329C13.7776 14.6191 14.9033 15.3691 15.8935 16.365L16.4651 16.9392H21.3334C26.0955 16.9392 26.2075 16.9392 26.4315 17.0564C26.6967 17.1911 26.903 17.525 26.903 17.818C26.903 18.1109 26.6967 18.4449 26.4315 18.5796C26.2075 18.6968 26.0955 18.6968 21.9051 18.6968H17.6026L17.8266 19.2123C18.2038 20.0853 18.469 21.0344 18.5692 21.878L18.6105 22.212H22.4061C26.0897 22.212 26.2075 22.2178 26.4315 22.3292C26.6967 22.4639 26.903 22.7979 26.903 23.0908C26.903 23.3837 26.6967 23.7177 26.4315 23.8524C26.2075 23.9637 26.0897 23.9696 22.4061 23.9696H18.6164L18.5397 24.5027C18.2038 26.8696 16.7893 29.2893 14.9151 30.6953L14.5084 31H21.5574C26.5199 31 28.7006 30.9824 28.9187 30.9356C29.9206 30.7246 30.7516 29.8927 30.9638 28.9026C31.0109 28.68 31.0286 25.6979 31.0286 18.6089V8.61986H27.5454H24.0622L23.8264 8.49097C23.685 8.40895 23.5435 8.26834 23.4787 8.13945C23.3726 7.9344 23.3667 7.74106 23.3667 4.4602V1.00358L16.8718 1.00944C11.8798 1.0153 10.3003 1.03288 10.0763 1.0856ZM26.4315 11.7835C26.6967 11.9183 26.903 12.2522 26.903 12.5452C26.903 12.8381 26.6967 13.1721 26.4315 13.3068C26.2016 13.424 26.1014 13.424 19.5299 13.424H12.8641L12.6283 13.2951C12.033 12.9611 12.0271 12.1585 12.6165 11.807L12.8464 11.6664H19.524C26.1014 11.6664 26.2016 11.6664 26.4315 11.7835Z" fill="#0A77DB"/>
<path d="M25.1348 4.19612V6.86182H27.8282H30.5276L27.8459 4.19612C26.3725 2.73145 25.1583 1.53042 25.1524 1.53042C25.1407 1.53042 25.1348 2.73145 25.1348 4.19612Z" fill="#0A77DB" fill-opacity="0.6"/>
<path d="M8.10198 15.2167C6.20419 15.4511 4.61877 16.2186 3.29857 17.5485C2.12571 18.7261 1.45382 19.9798 1.10609 21.6261C0.964637 22.3174 0.964637 23.8641 1.10609 24.5555C1.45382 26.2017 2.1316 27.4614 3.29857 28.6331C4.48321 29.8224 5.77984 30.5196 7.45366 30.8652C8.14323 31.0059 9.69329 31.0059 10.4123 30.8652C12.0036 30.5489 13.3238 29.8458 14.5026 28.6858C15.6931 27.5199 16.4004 26.2193 16.7481 24.5555C16.8896 23.8641 16.8896 22.3174 16.7481 21.6261C16.5183 20.5423 16.0998 19.5404 15.4986 18.6382C15.1273 18.0816 13.9781 16.9333 13.4299 16.5759C12.481 15.9491 11.4555 15.5214 10.4477 15.328C9.9703 15.2343 8.51454 15.164 8.10198 15.2167ZM9.33967 18.2281C9.62257 18.3746 9.81117 18.7026 9.81117 19.06C9.81117 19.3119 9.81706 19.3119 10.1059 19.4174C10.4595 19.5404 10.9487 19.9974 11.1078 20.3548C11.3553 20.9114 11.3318 21.3859 11.043 21.714C10.5715 22.2471 9.75812 22.0362 9.55184 21.3273L9.47522 21.0695H8.92121H8.3672V21.6261V22.1827L9.13338 22.212C10.0351 22.253 10.3003 22.3467 10.7247 22.7686C11.1962 23.2373 11.2551 23.4306 11.2551 24.5555C11.2551 25.4284 11.2433 25.5514 11.1255 25.8034C10.9487 26.1842 10.4654 26.6353 10.1059 26.7642C9.81706 26.8696 9.81117 26.8696 9.81117 27.1216C9.81117 27.6371 9.4045 28.0707 8.92121 28.0707C8.4556 28.0707 8.04304 27.6254 8.04304 27.1216C8.04304 26.8696 8.04304 26.8696 7.74246 26.7583C7.37705 26.6353 6.90554 26.19 6.74641 25.8268C6.49888 25.2702 6.52245 24.7957 6.81124 24.4676C7.28275 23.9344 8.09608 24.1453 8.30237 24.8542L8.37898 25.112H8.933H9.48701V24.5555V23.9989L8.72082 23.9696C7.81908 23.9286 7.55386 23.8348 7.12951 23.413C6.65801 22.9443 6.59907 22.751 6.59907 21.6261C6.59907 20.7532 6.61086 20.6301 6.72873 20.3841C6.91144 19.9857 7.37115 19.5521 7.74246 19.4233L8.04304 19.3119V19.0483C8.04893 18.7026 8.20806 18.4214 8.49097 18.2515C8.77387 18.0816 9.03319 18.0758 9.33967 18.2281Z" fill="#0A77DB" fill-opacity="0.6"/>
</svg>
