<svg width="32" height="32" viewBox="0 0 32 32" fill="none" xmlns="http://www.w3.org/2000/svg">
<g clip-path="url(#clip0_14274_15567)">
<path d="M11.1139 2.08994C10.1385 2.35003 9.38191 3.11256 9.12182 4.09381C9.06862 4.28297 9.03906 4.74404 9.03906 5.40608V6.42871H9.92573H10.8124V5.4652C10.8124 4.58444 10.8242 4.48986 10.9484 4.27115C11.0252 4.1411 11.1848 3.9815 11.3149 3.90466L11.5513 3.7687H16.1324H20.7136L20.95 3.90466C21.08 3.9815 21.2397 4.1411 21.3165 4.27115C21.4406 4.48986 21.4525 4.58444 21.4525 5.4652V6.42871H22.3391H23.2258V5.45337C23.2258 4.33026 23.1726 4.00514 22.8889 3.46132C22.5283 2.77563 21.8071 2.21998 21.0505 2.06038C20.8318 2.01309 19.3185 1.99536 16.0851 2.00127C12.2193 2.00127 11.3799 2.019 11.1139 2.08994Z" fill="#0A77DB"/>
<path d="M1 13.4751C1 18.4936 1.00591 18.7655 1.11231 18.9961C1.17142 19.132 1.31329 19.3034 1.41969 19.3803L1.62067 19.5222L3.79597 19.5399L5.96536 19.5576V17.9557V16.3597H8.71403H11.4627V17.9557V19.5517H16.1325H20.8023V17.9557V16.3597H23.551H26.2997V17.9557V19.5517H28.4159C30.4907 19.5517 30.532 19.5458 30.7626 19.4157C30.9163 19.333 31.0463 19.197 31.135 19.0197L31.265 18.7596V13.481V8.20232H16.1325H1V13.4751Z" fill="#0A77DB" fill-opacity="0.6"/>
<path d="M7.73877 20.4383V22.7437H8.71411H9.68944V20.4383V18.133H8.71411H7.73877V20.4383Z" fill="#0A77DB"/>
<path d="M22.5757 20.4383V22.7437H23.551H24.5264V20.4383V18.133H23.551H22.5757V20.4383Z" fill="#0A77DB"/>
<path d="M1 25.4686V29.7778H16.1325H31.265V25.4686V21.1653L30.9576 21.2422C30.7271 21.3072 30.1123 21.3249 28.475 21.3249H26.2997V22.9209V24.5169H23.551H20.8023L20.7905 22.9327L20.7728 21.3545H16.1325H11.4923L11.4745 22.9327L11.4627 24.5169H8.71403H5.96536V22.9209V21.3249H3.79006C2.15267 21.3249 1.53791 21.3072 1.30738 21.2422L1 21.1653V25.4686Z" fill="#0A77DB"/>
</g>
<defs>
<clipPath id="clip0_14274_15567">
<rect width="32" height="32" fill="white" transform="translate(-0.00146484)"/>
</clipPath>
</defs>
</svg>
