<svg width="50" height="50" viewBox="0 0 50 50" fill="none" xmlns="http://www.w3.org/2000/svg">
<g clip-path="url(#clip0_7164_67805)">
<path d="M25.0078 12.5081C28.4536 12.5081 31.2578 9.70409 31.2578 6.2584C31.2578 2.81271 28.4536 0.0107422 25.0078 0.0107422C21.562 0.0107422 18.7578 2.81479 18.7578 6.2584C18.7578 9.70409 21.562 12.5081 25.0078 12.5081Z" fill="white" fill-opacity="0.8"/>
<path d="M16.6771 31.2558H18.7604V39.5888C18.7604 40.7408 19.6938 41.672 20.8438 41.672H29.1771C30.3271 41.672 31.2604 40.7408 31.2604 39.5888V31.2558H33.3438C34.4938 31.2558 35.4271 30.3246 35.4271 29.1726V25.0061C35.4271 19.2646 30.7542 14.5898 25.0104 14.5898C19.2667 14.5898 14.5938 19.2646 14.5938 25.0061V29.1726C14.5938 30.3246 15.5271 31.2558 16.6771 31.2558Z" fill="white" fill-opacity="0.8"/>
<path d="M38.2174 35.056L37.0133 39.0433C40.8654 40.2079 41.6758 41.4724 41.6758 41.6724C41.6758 42.7432 35.9466 45.8389 25.0091 45.8389C14.0716 45.8389 8.34245 42.7432 8.34245 41.6724C8.34245 41.462 9.2112 40.1349 13.3341 38.9454L12.1779 34.9414C5.56536 36.8517 4.17578 39.6558 4.17578 41.6724C4.17578 47.3971 14.9758 50.0054 25.0091 50.0054C35.0424 50.0054 45.8424 47.3971 45.8424 41.6724C45.8424 39.7058 44.5216 36.958 38.2174 35.056Z" fill="white" fill-opacity="0.8"/>
</g>
<defs>
<clipPath id="clip0_7164_67805">
<rect width="50" height="50" fill="white"/>
</clipPath>
</defs>
</svg>
