<svg width="50" height="50" viewBox="0 0 50 50" fill="none" xmlns="http://www.w3.org/2000/svg">
<g clip-path="url(#clip0_7164_67926)">
<path d="M41.668 12.499V10.4157H37.5013V12.499H33.3346V8.33236C33.3346 7.18236 32.4013 6.24902 31.2513 6.24902H18.7513C17.6013 6.24902 16.668 7.18236 16.668 8.33236V12.499H12.5013V10.4157H8.33464V12.499C6.03672 12.499 4.16797 14.3678 4.16797 16.6657V41.6657C4.16797 43.9657 6.03672 45.8324 8.33464 45.8324H41.668C43.9659 45.8324 45.8346 43.9657 45.8346 41.6657V16.6657C45.8346 14.3678 43.9659 12.499 41.668 12.499ZM20.8346 10.4157H29.168V12.499H20.8346V10.4157ZM31.2513 24.999H23.9596C23.3846 24.999 22.918 25.4678 22.918 26.0407C22.918 26.6157 23.3846 27.0824 23.9596 27.0824H26.043C28.9138 27.0824 31.2513 29.4199 31.2513 32.2907C31.2513 34.8074 29.4596 36.9115 27.0846 37.3949V39.5824H22.918V37.499H18.7513V33.3324H26.043C26.618 33.3324 27.0846 32.8657 27.0846 32.2907C27.0846 31.7178 26.618 31.249 26.043 31.249H23.9596C21.0867 31.249 18.7513 28.9115 18.7513 26.0407C18.7513 23.5261 20.543 21.4219 22.918 20.9386V18.749H27.0846V20.8324H31.2513V24.999Z" fill="white" fill-opacity="0.8"/>
</g>
<defs>
<clipPath id="clip0_7164_67926">
<rect width="50" height="50" fill="white"/>
</clipPath>
</defs>
</svg>
