<svg width="50" height="50" viewBox="0 0 50 50" fill="none" xmlns="http://www.w3.org/2000/svg">
<g clip-path="url(#clip0_7164_67853)">
<path d="M35.4245 45.8441C37.7257 45.8441 39.5912 43.9786 39.5912 41.6774C39.5912 39.3762 37.7257 37.5107 35.4245 37.5107C33.1233 37.5107 31.2578 39.3762 31.2578 41.6774C31.2578 43.9786 33.1233 45.8441 35.4245 45.8441Z" fill="white" fill-opacity="0.8"/>
<path d="M16.6745 45.8441C18.9757 45.8441 20.8412 43.9786 20.8412 41.6774C20.8412 39.3762 18.9757 37.5107 16.6745 37.5107C14.3733 37.5107 12.5078 39.3762 12.5078 41.6774C12.5078 43.9786 14.3733 45.8441 16.6745 45.8441Z" fill="white" fill-opacity="0.8"/>
<path d="M41.5953 21.3343C38.9807 17.2468 34.4182 14.5947 29.3099 14.5947C29.287 14.5947 29.2661 14.5989 29.2432 14.5989C29.2203 14.5989 29.1974 14.5947 29.1745 14.5947C20.7974 14.5947 13.8828 20.7843 12.7057 28.8343L12.5078 29.1781H10.4245C8.12448 29.1781 6.25781 31.0447 6.25781 33.3447V39.5947C6.25781 40.7447 7.19115 41.6781 8.34115 41.6781H10.4245C10.4245 38.2281 13.2245 35.4281 16.6745 35.4281C20.1245 35.4281 22.9245 38.2281 22.9245 41.6781H29.1745C29.1745 38.2281 31.9745 35.4281 35.4245 35.4281C38.8745 35.4281 41.6745 38.2281 41.6745 41.6781H43.7578C44.9078 41.6781 45.8411 40.7447 45.8411 39.5947V33.3447C45.8391 29.0843 44.2266 24.7614 41.5953 21.3343ZM16.8599 29.1781C17.8557 23.2676 22.9807 18.7614 29.1724 18.7614C35.3641 18.7614 40.4911 23.2676 41.4849 29.1781H16.8599Z" fill="white" fill-opacity="0.8"/>
</g>
<defs>
<clipPath id="clip0_7164_67853">
<rect width="50" height="50" fill="white"/>
</clipPath>
</defs>
</svg>
