<svg width="48" height="48" viewBox="0 0 48 48" fill="none" xmlns="http://www.w3.org/2000/svg">
<rect width="47.0222" height="47.0222" rx="10" fill="#1BBD67"/>
<path d="M30.75 10C28.6785 10 27 11.679 27 13.75C27 14.9755 27.591 16.0605 28.5 16.745V21L30.75 20L33 21V16.745C33.909 16.0605 34.5 14.9755 34.5 13.75C34.5 11.679 32.8215 10 30.75 10ZM30.75 15C30.0595 15 29.5 14.4405 29.5 13.75C29.5 13.0595 30.0595 12.5 30.75 12.5C31.4405 12.5 32 13.0595 32 13.75C32 14.4405 31.4405 15 30.75 15Z" fill="white"/>
<path d="M22 18.5H11.5C10.672 18.5 10 19.1715 10 20V34C10 34.8285 10.672 35.5 11.5 35.5H22C22.828 35.5 23.5 34.8285 23.5 34V20C23.5 19.1715 22.828 18.5 22 18.5ZM13.25 33.5H12.25C11.836 33.5 11.5 33.164 11.5 32.75C11.5 32.336 11.836 32 12.25 32H13.25C13.664 32 14 32.336 14 32.75C14 33.164 13.664 33.5 13.25 33.5ZM13.25 30.5H12.25C11.836 30.5 11.5 30.164 11.5 29.75C11.5 29.336 11.836 29 12.25 29H13.25C13.664 29 14 29.336 14 29.75C14 30.164 13.664 30.5 13.25 30.5ZM13.25 27.5H12.25C11.836 27.5 11.5 27.164 11.5 26.75C11.5 26.336 11.836 26 12.25 26H13.25C13.664 26 14 26.336 14 26.75C14 27.164 13.664 27.5 13.25 27.5ZM17.25 33.5H16.25C15.836 33.5 15.5 33.164 15.5 32.75C15.5 32.336 15.836 32 16.25 32H17.25C17.664 32 18 32.336 18 32.75C18 33.164 17.664 33.5 17.25 33.5ZM17.25 30.5H16.25C15.836 30.5 15.5 30.164 15.5 29.75C15.5 29.336 15.836 29 16.25 29H17.25C17.664 29 18 29.336 18 29.75C18 30.164 17.664 30.5 17.25 30.5ZM17.25 27.5H16.25C15.836 27.5 15.5 27.164 15.5 26.75C15.5 26.336 15.836 26 16.25 26H17.25C17.664 26 18 26.336 18 26.75C18 27.164 17.664 27.5 17.25 27.5ZM21.25 33.5H20.25C19.836 33.5 19.5 33.164 19.5 32.75C19.5 32.336 19.836 32 20.25 32H21.25C21.664 32 22 32.336 22 32.75C22 33.164 21.664 33.5 21.25 33.5ZM21.25 30.5H20.25C19.836 30.5 19.5 30.164 19.5 29.75C19.5 29.336 19.836 29 20.25 29H21.25C21.664 29 22 29.336 22 29.75C22 30.164 21.664 30.5 21.25 30.5ZM21.25 27.5H20.25C19.836 27.5 19.5 27.164 19.5 26.75C19.5 26.336 19.836 26 20.25 26H21.25C21.664 26 22 26.336 22 26.75C22 27.164 21.664 27.5 21.25 27.5ZM21.5 24H12V20.5H21.5V24Z" fill="white"/>
<path opacity="0.8" d="M34.5 19.3635V23.308L30.75 21.6415L27 23.308V17.4205C26.0385 16.445 25.5 15.1445 25.5 13.75C25.5 13.701 25.506 13.654 25.5075 13.6055C22.8635 12.151 18.7265 11 11 11V17H22C23.6545 17 25 18.3455 25 20V31.583C29.0315 32.4425 30.5625 33.5 36.5 33.5V19.5C35.752 19.5 35.0925 19.4515 34.5 19.3635Z" fill="white"/>
</svg>
