<svg width="46" height="46" viewBox="0 0 46 46" fill="none" xmlns="http://www.w3.org/2000/svg">
<circle cx="23" cy="23" r="23" fill="#C7762F"/>
<path opacity="0.8" d="M36.5 25C36.5 25.8285 35.8285 26.5 35 26.5C34.1715 26.5 33.5 25.8285 33.5 25V24H36.5V25Z" fill="white"/>
<path d="M18.5 18.5V16.5C18.5 15.953 18.6495 15.442 18.906 15H11C10.1715 15 9.5 15.6715 9.5 16.5V18.5H18.5Z" fill="white"/>
<path d="M32 25V11.5C32 10.6715 31.3285 10 30.5 10C29.6715 10 29 10.6715 29 11.5V27H32.7705C32.293 26.469 32 25.7685 32 25Z" fill="white"/>
<path opacity="0.8" d="M15.5 10C14.6715 10 14 10.6715 14 11.5V13.5H21.5C23.1565 13.5 24.5 14.8435 24.5 16.5V33.9445C24.5 34.67 24.9905 35.335 25.703 35.472C26.6615 35.6555 27.5 34.926 27.5 34V11.5C27.5 10.953 27.6495 10.442 27.906 10H15.5Z" fill="white"/>
<path d="M23 33.9445V16.5C23 15.673 22.327 15 21.5 15C20.6715 15 20 15.6715 20 16.5V20H11V34.5C11 35.324 11.676 36 12.5 36H23.785C23.2985 35.4525 23 34.7315 23 33.9445ZM17 27C18.9295 27 20.5 28.3455 20.5 30C20.5 31.3565 19.444 32.504 18 32.8735V33C18 33.552 17.552 34 17 34C16.448 34 16 33.552 16 33V32.8735C14.6835 32.5275 13.888 31.5505 13.5945 30.9245C13.5305 30.787 13.5 30.6425 13.5 30.5C13.5 29.944 13.9525 29.5 14.5 29.5C14.876 29.5 15.236 29.7135 15.4055 30.0755C15.448 30.159 15.904 31 17 31C17.799 31 18.5 30.5325 18.5 30C18.5 29.4675 17.799 29 17 29C15.0705 29 13.5 27.6545 13.5 26C13.5 24.6435 14.556 23.496 16 23.1265V23C16 22.448 16.448 22 17 22C17.552 22 18 22.448 18 23V23.1265C19.3165 23.4725 20.112 24.4495 20.4055 25.0755C20.4695 25.213 20.5 25.3575 20.5 25.5C20.5 26.055 20.048 26.5005 19.5 26.5C19.125 26.5 18.765 26.287 18.5945 25.9245C18.552 25.841 18.096 25 17 25C16.201 25 15.5 25.4675 15.5 26C15.5 26.5325 16.201 27 17 27Z" fill="white"/>
</svg>
