<svg width="48" height="48" viewBox="0 0 48 48" fill="none" xmlns="http://www.w3.org/2000/svg">
<rect width="47.0222" height="47.0222" rx="10" fill="#1BBD67"/>
<path d="M37.25 28H36.5V22.9328C36.5 22.3375 36.2609 21.7656 35.8391 21.3438L31.1562 16.6609C30.7344 16.2391 30.1625 16 29.5672 16H27.5V13.75C27.5 12.5078 26.4922 11.5 25.25 11.5H13.25C12.0078 11.5 11 12.5078 11 13.75V16H8.375C8.16875 16 8 16.1688 8 16.375V17.125C8 17.3313 8.16875 17.5 8.375 17.5H21.125C21.3313 17.5 21.5 17.6688 21.5 17.875V18.625C21.5 18.8313 21.3313 19 21.125 19H9.875C9.66875 19 9.5 19.1688 9.5 19.375V20.125C9.5 20.3313 9.66875 20.5 9.875 20.5H19.625C19.8313 20.5 20 20.6688 20 20.875V21.625C20 21.8313 19.8313 22 19.625 22H8.375C8.16875 22 8 22.1688 8 22.375V23.125C8 23.3313 8.16875 23.5 8.375 23.5H18.125C18.3313 23.5 18.5 23.6688 18.5 23.875V24.625C18.5 24.8313 18.3313 25 18.125 25H11V31C11 33.4844 13.0156 35.5 15.5 35.5C17.9844 35.5 20 33.4844 20 31H26C26 33.4844 28.0156 35.5 30.5 35.5C32.9844 35.5 35 33.4844 35 31H37.25C37.6625 31 38 30.6625 38 30.25V28.75C38 28.3375 37.6625 28 37.25 28ZM15.5 33.25C14.2578 33.25 13.25 32.2422 13.25 31C13.25 29.7578 14.2578 28.75 15.5 28.75C16.7422 28.75 17.75 29.7578 17.75 31C17.75 32.2422 16.7422 33.25 15.5 33.25ZM30.5 33.25C29.2578 33.25 28.25 32.2422 28.25 31C28.25 29.7578 29.2578 28.75 30.5 28.75C31.7422 28.75 32.75 29.7578 32.75 31C32.75 32.2422 31.7422 33.25 30.5 33.25ZM34.25 23.5H27.5V18.25H29.5672L34.25 22.9328V23.5Z" fill="white"/>
</svg>
