<svg width="48" height="48" viewBox="0 0 48 48" fill="none" xmlns="http://www.w3.org/2000/svg">
<rect width="47.0222" height="47.0222" rx="10" fill="#EE4428"/>
<g clip-path="url(#clip0_23_321)">
<path d="M16.7493 22.0015H29.2493C29.6418 22.0015 30.0105 21.8177 30.2468 21.504C30.483 21.1915 30.5593 20.7852 30.4506 20.409L27.9506 11.659C27.798 11.1227 27.3068 10.7515 26.7493 10.7515H19.2493C18.6918 10.7515 18.2005 11.1227 18.048 11.659L15.548 20.409C15.4405 20.7852 15.5155 21.1902 15.7518 21.504C15.988 21.8177 16.3568 22.0015 16.7493 22.0015ZM20.3205 14.5015H23.178L22.1068 18.2515H19.2493L20.3205 14.5015Z" fill="white"/>
<path d="M20.4506 24.1597C20.298 23.6222 19.8068 23.251 19.2493 23.251H11.7493C11.1918 23.251 10.7005 23.6222 10.548 24.1585L8.04805 32.9085C7.94055 33.2847 8.01555 33.6897 8.2518 34.0035C8.48805 34.3172 8.8568 34.501 9.2493 34.501H21.7493C22.1418 34.501 22.5105 34.3172 22.7468 34.0035C22.983 33.691 23.0593 33.2847 22.9506 32.9085L20.4506 24.1597ZM15.678 30.751H12.8205L13.8918 27.001H16.7493L15.678 30.751Z" fill="white"/>
<path d="M37.9506 32.9109L35.4506 24.1609C35.2968 23.6247 34.8068 23.2534 34.2493 23.2534H26.7493C26.1918 23.2534 25.7005 23.6247 25.548 24.1609L23.048 32.9109C22.9405 33.2872 23.0155 33.6922 23.2518 34.0059C23.488 34.3197 23.8568 34.5034 24.2493 34.5034H36.7493C37.1418 34.5034 37.5106 34.3197 37.7468 34.0059C37.9831 33.6922 38.0593 33.2859 37.9506 32.9109ZM30.8568 30.7522H27.9993L29.0705 27.0022H31.928L30.8568 30.7522Z" fill="white"/>
</g>
<defs>
<clipPath id="clip0_23_321">
<rect width="30" height="30" fill="white" transform="translate(8 7)"/>
</clipPath>
</defs>
</svg>
