<svg width="46" height="46" viewBox="0 0 46 46" fill="none" xmlns="http://www.w3.org/2000/svg">
<circle cx="23" cy="23" r="23" fill="#EE4428"/>
<g clip-path="url(#clip0_23_326)">
<path d="M32.9914 19.1125C32.9214 18.4787 32.3864 18 31.7489 18H29.2489V16.75H31.7489C32.4389 16.75 32.9989 16.19 32.9989 15.5V11.75C32.9989 11.06 32.4389 10.5 31.7489 10.5H24.2489C23.5589 10.5 22.9989 11.06 22.9989 11.75V15.5C22.9989 16.19 23.5589 16.75 24.2489 16.75H26.7489V18H21.7489V13C21.7489 12.5662 21.5239 12.165 21.1564 11.9375C20.7877 11.7087 20.3264 11.6887 19.9402 11.8825L17.9989 12.8525L16.0577 11.8825C15.6714 11.6887 15.2102 11.7087 14.8414 11.9375C14.4739 12.165 14.2489 12.5662 14.2489 13V18C13.6114 18 13.0777 18.4787 13.0064 19.1125L12.0039 29.25H33.9939L32.9914 19.1125ZM16.7489 15.0237L17.4402 15.3675C17.7914 15.5437 18.2064 15.5437 18.5589 15.3675L19.2489 15.0237V18H16.7489V15.0237ZM20.4989 23H15.4989V20.5H20.4989V23ZM25.4989 14.25V13H30.4989V14.25H25.4989ZM24.2489 26.75C23.5589 26.75 22.9989 26.1912 22.9989 25.5C22.9989 24.81 23.5589 24.25 24.2489 24.25C24.9389 24.25 25.4989 24.81 25.4989 25.5C25.4989 26.1912 24.9389 26.75 24.2489 26.75ZM24.2489 23C23.5589 23 22.9989 22.4412 22.9989 21.75C22.9989 21.06 23.5589 20.5 24.2489 20.5C24.9389 20.5 25.4989 21.06 25.4989 21.75C25.4989 22.4412 24.9389 23 24.2489 23ZM27.9989 26.75C27.3089 26.75 26.7489 26.1912 26.7489 25.5C26.7489 24.81 27.3089 24.25 27.9989 24.25C28.6889 24.25 29.2489 24.81 29.2489 25.5C29.2489 26.1912 28.6889 26.75 27.9989 26.75ZM27.9989 23C27.3089 23 26.7489 22.4412 26.7489 21.75C26.7489 21.06 27.3089 20.5 27.9989 20.5C28.6889 20.5 29.2489 21.06 29.2489 21.75C29.2489 22.4412 28.6889 23 27.9989 23Z" fill="white"/>
<path opacity="0.8" d="M34.2501 30.5005H11.7501C11.0601 30.5005 10.5001 31.0605 10.5001 31.7505V35.5005C10.5001 36.1905 11.0601 36.7505 11.7501 36.7505H34.2501C34.9401 36.7505 35.5001 36.1905 35.5001 35.5005V31.7505C35.5001 31.0605 34.9401 30.5005 34.2501 30.5005Z" fill="white"/>
</g>
<defs>
<clipPath id="clip0_23_326">
<rect width="30" height="30" fill="white" transform="translate(8 8)"/>
</clipPath>
</defs>
</svg>
