<svg width="46" height="46" viewBox="0 0 46 46" fill="none" xmlns="http://www.w3.org/2000/svg">
<circle cx="23" cy="23" r="23" fill="#27A0EC"/>
<path d="M28 8V14.0938C28 14.8672 28.6328 15.5 29.4062 15.5H35.5V30.9688C35.5 31.7454 34.8704 32.375 34.0938 32.375H18.1562C17.3796 32.375 16.75 31.7454 16.75 30.9688V9.40625C16.75 8.62959 17.3796 8 18.1562 8H28Z" fill="white"/>
<path d="M31.2244 8.41186L35.0881 12.2756C35.3519 12.5394 35.5 12.897 35.5 13.27V13.625H29.875V8H30.23C30.603 8 30.9606 8.14815 31.2244 8.41186Z" fill="white"/>
<path opacity="0.8" d="M28 34.25V36.5938C28 37.3704 27.3704 38 26.5938 38H10.6562C9.87959 38 9.25 37.3704 9.25 36.5938C9.25 36.5938 9.25 15.8079 9.25 15.0312C9.25 14.2546 9.87959 13.625 10.6562 13.625C11.4329 13.625 14.875 13.625 14.875 13.625V30.9688C14.875 32.7781 16.3469 34.25 18.1562 34.25C19.9656 34.25 28 34.25 28 34.25Z" fill="white"/>
<path d="M20.3893 23.4868L21.4319 28.1785C21.4975 28.4756 21.7614 28.6868 22.0663 28.6868H29.8663C30.1711 28.6868 30.435 28.4749 30.5007 28.1779L31.5433 23.4868H20.3893Z" fill="#27A0EC"/>
<path d="M32.5 23.0231V21.7231H30.277L27.8642 17.5L26.7358 18.1455L28.7801 21.7231H23.2206L25.2642 18.1455L24.1358 17.5L21.723 21.7231H19.5V23.0231H32.5Z" fill="#27A0EC"/>
</svg>
