<svg width="46" height="46" viewBox="0 0 46 46" fill="none" xmlns="http://www.w3.org/2000/svg">
<circle cx="23" cy="23" r="23" fill="#1DB054"/>
<g clip-path="url(#clip0_23_341)">
<path d="M31.3945 18.1548C33.4656 18.1548 35.1445 16.4759 35.1445 14.4048C35.1445 12.3337 33.4656 10.6548 31.3945 10.6548C29.3235 10.6548 27.6445 12.3337 27.6445 14.4048C27.6445 16.4759 29.3235 18.1548 31.3945 18.1548Z" fill="white"/>
<path d="M31.3943 18.1548C27.948 18.1548 25.1443 20.9585 25.1443 24.4048V28.1548C25.1443 28.846 25.7043 29.4048 26.3943 29.4048H27.6443V34.4048C27.6443 35.096 28.2043 35.6548 28.8943 35.6548H33.8943C34.5843 35.6548 35.1443 35.096 35.1443 34.4048V29.4048H36.3943C37.0843 29.4048 37.6443 28.846 37.6443 28.1548V24.4048C37.6443 20.9585 34.8405 18.1548 31.3943 18.1548Z" fill="white"/>
<path d="M15.1444 28.1548C15.8344 28.1548 16.3944 27.596 16.3944 26.9048V19.4048C16.3944 18.7148 15.8344 18.1548 15.1444 18.1548H8.89441C8.20441 18.1548 7.64441 18.7148 7.64441 19.4048V26.9048C7.64441 27.596 8.20441 28.1548 8.89441 28.1548H15.1444Z" fill="white"/>
<path d="M20.1443 35.655C21.525 35.655 22.6443 34.5357 22.6443 33.155C22.6443 31.7743 21.525 30.655 20.1443 30.655C18.7636 30.655 17.6443 31.7743 17.6443 33.155C17.6443 34.5357 18.7636 35.655 20.1443 35.655Z" fill="white"/>
<path opacity="0.8" d="M18.8983 15.551L17.7445 29.4048H8.89453V31.9048H16.6245C17.1445 30.4498 18.537 29.3635 20.252 29.416L21.2945 16.9048H23.8945V14.4048H20.1445C19.4945 14.4048 18.9533 14.9023 18.8983 15.551Z" fill="white"/>
</g>
<defs>
<clipPath id="clip0_23_341">
<rect width="30" height="30" fill="white" transform="translate(7.64429 8.15527)"/>
</clipPath>
</defs>
</svg>
