<svg width="46" height="46" viewBox="0 0 46 46" fill="none" xmlns="http://www.w3.org/2000/svg">
<circle cx="23" cy="23" r="23" fill="#27A0EC"/>
<g clip-path="url(#clip0_23_346)">
<path d="M34.6668 9.00269H30.0001V15.8966L26.5001 13.5986L23.0001 15.8966V9.00269H18.3335C17.0466 9.00269 16.0001 10.0333 16.0001 11.3007V25.0885L20.6668 23.9396L24.1668 27.3865H34.6668C35.9536 27.3865 37.0001 26.3559 37.0001 25.0885V11.3007C37.0001 10.0333 35.9536 9.00269 34.6668 9.00269Z" fill="white"/>
<path d="M31.1668 29.6842H21.1498L21.4917 29.3476C21.9478 28.8994 21.9478 28.1733 21.4917 27.7229L20.325 26.5739C19.9948 26.2487 19.5002 26.1499 19.0662 26.3188L14.8335 27.986V35.4292H27.6668C27.976 35.4292 28.2735 35.3085 28.4917 35.0925L31.9917 31.6455C32.3253 31.3169 32.4257 30.8229 32.2448 30.3943C32.064 29.9646 31.6382 29.6842 31.1668 29.6842Z" fill="white"/>
<path opacity="0.8" d="M12.5001 26.2375H10.1668C9.52279 26.2375 9.00012 26.7523 9.00012 27.3865V35.4295C9.00012 36.0637 9.52279 36.5785 10.1668 36.5785H12.5001C13.1441 36.5785 13.6668 36.0637 13.6668 35.4295V27.3865C13.6668 26.7523 13.1441 26.2375 12.5001 26.2375Z" fill="white"/>
</g>
<defs>
<clipPath id="clip0_23_346">
<rect width="28" height="27.5758" fill="white" transform="translate(9 9)"/>
</clipPath>
</defs>
</svg>
