<svg width="46" height="46" viewBox="0 0 46 46" fill="none" xmlns="http://www.w3.org/2000/svg">
<circle cx="23" cy="23" r="23" fill="#FFDA00"/>
<path d="M39.5072 27.4473L36.5012 25.7114C36.8046 24.0744 36.8046 22.3949 36.5012 20.7578L39.5072 19.022C39.853 18.8244 40.0082 18.4151 39.8953 18.0341C39.1121 15.522 37.7784 13.2498 36.0355 11.3587C35.7673 11.0694 35.3298 10.9988 34.9911 11.1964L31.9851 12.9323C30.722 11.8456 29.2683 11.0059 27.6948 10.4555V6.99075C27.6948 6.59559 27.4196 6.24983 27.0315 6.16515C24.4418 5.58652 21.7885 5.61475 19.3259 6.16515C18.9377 6.24983 18.6625 6.59559 18.6625 6.99075V10.4625C17.096 11.02 15.6424 11.8597 14.3722 12.9393L11.3733 11.2034C11.0275 11.0059 10.5971 11.0694 10.3289 11.3657C8.58598 13.2498 7.25231 15.522 6.46905 18.0411C6.34909 18.4222 6.51139 18.8314 6.85715 19.029L9.86319 20.7649C9.55976 22.402 9.55976 24.0814 9.86319 25.7185L6.85715 27.4544C6.51139 27.652 6.35615 28.0612 6.46905 28.4423C7.25231 30.9544 8.58598 33.2265 10.3289 35.1177C10.5971 35.407 11.0346 35.4775 11.3733 35.28L14.3793 33.5441C15.6424 34.6308 17.096 35.4705 18.6696 36.0209V39.4926C18.6696 39.8878 18.9448 40.2336 19.3329 40.3182C21.9226 40.8969 24.5758 40.8686 27.0385 40.3182C27.4266 40.2336 27.7018 39.8878 27.7018 39.4926V36.0209C29.2683 35.4634 30.722 34.6237 31.9921 33.5441L34.9982 35.28C35.3439 35.4775 35.7744 35.414 36.0425 35.1177C37.7854 33.2336 39.1191 30.9614 39.9024 28.4423C40.0082 28.0542 39.853 27.6449 39.5072 27.4473ZM23.1787 28.8798C20.0668 28.8798 17.5335 26.3465 17.5335 23.2346C17.5335 20.1228 20.0668 17.5895 23.1787 17.5895C26.2905 17.5895 28.8238 20.1228 28.8238 23.2346C28.8238 26.3465 26.2905 28.8798 23.1787 28.8798Z" fill="white"/>
<circle cx="23" cy="23" r="10" fill="#FFDA00"/>
<path d="M30.0275 18.8009L23.2093 14.71C22.9932 14.5804 22.7238 14.5804 22.5077 14.71L15.6895 18.8009C15.4263 18.9584 15.3015 19.272 15.3827 19.5679C15.4645 19.8625 15.7331 20.067 16.04 20.067V29.6125H17.4036V20.067H28.3127V29.6125H29.6764V20.067C29.9832 20.067 30.2518 19.8625 30.3336 19.5679C30.4148 19.272 30.29 18.9584 30.0275 18.8009Z" fill="white"/>
<path opacity="0.8" d="M20.8127 20.749V24.8399H24.9037V20.749H23.54V22.1127H22.1764V20.749H20.8127Z" fill="white"/>
<path opacity="0.8" d="M20.813 26.8856H19.4493V25.522H18.0857V29.6129H22.1766V25.522H20.813V26.8856Z" fill="white"/>
<path opacity="0.8" d="M26.2673 26.8856H24.9037V25.522H23.54V29.6129H27.631V25.522H26.2673V26.8856Z" fill="white"/>
</svg>
