<svg width="46" height="46" viewBox="0 0 46 46" fill="none" xmlns="http://www.w3.org/2000/svg">
<circle cx="23" cy="23" r="23" fill="#27A0EC"/>
<path opacity="0.8" d="M37.8202 25.4099C37.8202 22.9742 35.8452 21 33.4101 21C30.975 21 29 22.9742 29 25.4099C29 28.3499 33.4101 33.4948 33.4101 33.4948C33.4101 33.4948 37.8202 28.3499 37.8202 25.4099ZM31.5726 25.4099C31.5726 24.3957 32.3958 23.5725 33.4101 23.5725C34.4245 23.5725 35.2477 24.3957 35.2477 25.4099C35.2477 26.4242 34.4245 27.2474 33.4101 27.2474C32.3958 27.2474 31.5726 26.4242 31.5726 25.4099Z" fill="white"/>
<path d="M36.3503 34.23H30.4701V35.7H36.3503V34.23Z" fill="white"/>
<path d="M16.2025 28.338H12.9587V25.1301H16.2025V28.338ZM13.6564 27.648H15.5048V25.8201H13.6564V27.648Z" fill="white"/>
<path d="M26.6676 28.338H23.4241V25.1301H26.6676V28.338ZM24.1217 27.648H25.9699V25.8201H24.1217V27.648V27.648Z" fill="white"/>
<path d="M16.1307 15.9179H12.8872V12.71H16.1309V15.9179H16.1307ZM13.5849 15.2279H15.4333V13.4H13.5849V15.2279Z" fill="white"/>
<path d="M20.3166 15.9179H17.0731V12.71H20.3168V15.9179H20.3166ZM17.7708 15.2279H19.6192V13.4H17.7708V15.2279Z" fill="white"/>
<path d="M16.1307 20.058H12.8872V16.8499H16.1309V20.058H16.1307ZM13.5849 19.368H15.4333V17.5401H13.5849V19.368Z" fill="white"/>
<path d="M20.3166 20.058H17.0731V16.8499H20.3168V20.058H20.3166ZM17.7708 19.368H19.6192V17.5401H17.7708V19.368Z" fill="white"/>
<path d="M16.1307 24.1981H12.8872V20.99H16.1309V24.1981H16.1307ZM13.5849 23.5081H15.4333V21.6802H13.5849V23.5081Z" fill="white"/>
<path d="M20.3166 24.1981H17.0731V20.99H20.3168V24.1981H20.3166ZM17.7708 23.5081H19.6192V21.6802H17.7708V23.5081Z" fill="white"/>
<path d="M26.5958 20.058H23.3523V16.8499H26.5958V20.058ZM24.05 19.368H25.8981V17.5401H24.05V19.368Z" fill="white"/>
<path d="M26.5958 24.1981H23.3523V20.99H26.5958V24.1981ZM24.05 23.5081H25.8981V21.6802H24.05V23.5081Z" fill="white"/>
<path d="M28.452 31.4321V15.2279H22.1883V11.1919H11.0255V31.4321H9.73877V32.1221H17.1448H20.3885H29.7388V31.4321H28.452ZM27.7544 15.9179V31.4321H22.1883V15.9179H27.7544ZM17.8425 31.4321V25.8203H19.6909V31.4321H17.8425ZM17.1448 25.1303V31.4321H11.7232V11.8819H21.4906V31.4321H20.3885V25.1303H17.1448Z" fill="white"/>
</svg>
