<svg width="46" height="46" viewBox="0 0 46 46" fill="none" xmlns="http://www.w3.org/2000/svg">
<circle cx="23" cy="23" r="23" fill="#1DB054"/>
<path d="M12 22.2341C12 18.3538 12 14.3989 12 10.5185C12 10.22 12.0745 10.0708 12.447 10.0708C13.5643 10.0708 14.6072 10.0708 15.7246 10.0708C16.0226 10.0708 16.097 10.1454 16.097 10.4439C16.0226 10.817 16.097 11.1901 16.0226 11.6379C16.0226 11.7871 16.097 11.8617 16.246 11.8617C16.395 11.8617 16.6185 11.8617 16.7675 11.8617C19.6726 11.8617 22.6523 11.8617 25.5575 11.8617C26.0044 11.8617 26.0044 11.8617 26.0044 11.414C26.0044 11.0409 26.0044 10.7424 25.93 10.3693C25.93 10.1454 25.9299 10.0708 26.1534 10.1454C27.3453 10.1454 28.5372 10.1454 29.729 10.1454C30.027 10.1454 29.9525 10.2947 29.9525 10.5185C29.9525 12.3841 29.9525 14.3242 29.9525 16.1898C29.9525 17.4583 29.9525 18.8015 29.9525 20.0701C29.9525 20.4432 29.8035 20.5178 29.5056 20.5178C28.0902 20.5178 26.7494 20.5178 25.334 20.5178C24.1421 20.5178 23.2482 21.1148 22.8758 22.0103C22.7268 22.3834 22.7268 22.7565 22.7268 23.1296C22.7268 26.786 22.7268 30.4425 22.7268 34.0989C22.7268 34.3974 22.6523 34.4721 22.3543 34.4721C19.0767 34.4721 15.7246 34.4721 12.447 34.4721C12.149 34.4721 12.0745 34.3974 12.0745 34.0989C12 30.144 12 26.1891 12 22.2341ZM20.8645 19.697C23.0993 19.697 25.334 19.697 27.5688 19.697C27.9412 19.697 27.9412 19.4731 27.9412 19.2493C27.9412 19.0254 28.0157 18.8015 27.6433 18.8015C27.1218 18.8015 26.5259 18.8015 26.0044 18.8015C25.7065 18.8015 25.632 18.7269 25.632 18.4284C25.632 17.1599 25.632 15.8913 25.632 14.6227C25.632 14.2496 25.781 13.7273 25.5575 13.4288C25.334 13.2049 24.7381 13.3541 24.3656 13.3541C24.0677 13.3541 23.9932 13.4288 23.9932 13.7273C23.9932 15.1451 23.9932 16.4883 23.9932 17.9061C23.9932 18.8015 23.9932 18.7269 23.1738 18.8015C22.8013 18.8015 22.7268 18.7269 22.7268 18.3538C22.7268 17.0852 22.7268 15.742 22.7268 14.4735C22.7268 14.2496 22.6523 14.175 22.4288 14.175C22.1309 14.175 21.7584 14.175 21.4604 14.175C21.1625 14.175 21.1625 14.2496 21.1625 14.4735C21.1625 15.5928 21.1625 16.7121 21.1625 17.8314C21.1625 18.8015 21.1625 18.8015 20.1941 18.8015C19.9706 18.8015 19.8961 18.7269 19.8961 18.503C19.8961 18.0553 19.8961 17.6822 19.8961 17.2345C19.8961 16.8614 20.0451 16.2644 19.8216 16.0405C19.5237 15.742 19.0022 15.9659 18.6298 15.9659H18.5553C18.3318 15.9659 18.3318 16.0405 18.3318 16.1898C18.3318 16.7121 18.3318 17.2345 18.3318 17.8314C18.3318 18.8761 18.3318 18.8761 17.2889 18.8015C17.1399 18.8015 17.0654 18.7269 17.0654 18.5777C17.0654 18.2046 17.0654 17.8314 17.0654 17.3837C17.0654 17.1598 16.9909 17.0852 16.7675 17.0852C16.395 17.0852 16.097 17.0852 15.7246 17.0852C15.5011 17.0852 15.4266 17.1598 15.4266 17.3837C15.4266 17.7568 15.4266 18.1299 15.4266 18.503C15.4266 18.7269 15.3521 18.8015 15.1287 18.8015C14.8307 18.8015 14.5327 18.8015 14.2348 18.8015C14.1603 18.8015 14.0113 18.8015 14.0113 18.8761C13.9368 19.1 13.9368 19.3239 14.0113 19.5477C14.0858 19.7716 14.2348 19.6224 14.3837 19.6224C16.4695 19.697 18.7043 19.697 20.8645 19.697ZM17.8848 23.2042C15.7991 23.1296 14.0113 24.8459 14.0113 27.0099C14.0113 29.1739 15.6501 30.8902 17.8104 30.8902C19.8961 30.9648 21.6839 29.2485 21.6839 27.1591C21.6839 24.9951 20.0451 23.2788 17.8848 23.2042Z" fill="#FDFEFE"/>
<path d="M34.1241 29.0245C34.1241 30.9647 34.1241 32.9049 34.1241 34.845C34.1241 36.1136 33.3791 36.8598 32.1128 36.8598C29.8035 36.8598 27.5688 36.8598 25.2595 36.8598C24.0677 36.8598 23.3228 36.039 23.3228 34.7704C23.3228 31.6363 23.3228 28.4276 23.3228 25.2935C23.3228 24.5473 23.3228 23.8757 23.3228 23.1294C23.3228 21.8609 24.0677 21.1147 25.334 21.04C26.1534 21.04 26.9728 21.04 27.7178 21.04C29.1331 21.04 30.5484 21.04 31.9638 21.04C33.3791 21.04 34.1241 21.7863 34.1241 23.2041C34.1241 25.1442 34.1241 27.0844 34.1241 29.0245ZM28.8351 22.3832C27.5688 22.3832 26.2279 22.3832 24.9616 22.3832C24.4401 22.3832 24.2911 22.5325 24.2911 23.0548C24.2911 23.5772 24.2911 24.1741 24.2911 24.6965C24.2911 25.1442 24.4401 25.2935 24.9616 25.3681C25.632 25.3681 26.3024 25.3681 26.9728 25.3681C28.9096 25.3681 30.7719 25.3681 32.7087 25.3681C33.3046 25.3681 33.4536 25.2188 33.4536 24.6219C33.4536 24.0995 33.4536 23.5772 33.4536 23.0548C33.4536 22.5325 33.3046 22.3832 32.7832 22.3832C31.4424 22.3832 30.1015 22.3832 28.8351 22.3832ZM25.4085 26.7113C25.1106 26.7113 24.8126 26.7113 24.5146 26.7113C24.2911 26.7113 24.1422 26.7859 24.1422 27.0098C24.1422 27.3829 24.1422 27.756 24.1422 28.2037C24.1422 28.4276 24.2167 28.5768 24.4401 28.5768C25.0361 28.5768 25.632 28.5768 26.1534 28.5768C26.3769 28.5768 26.5259 28.5022 26.5259 28.2783C26.5259 27.9052 26.5259 27.5321 26.5259 27.0844C26.5259 26.8605 26.3769 26.7859 26.1534 26.7859C26.0045 26.7113 25.7065 26.7113 25.4085 26.7113ZM25.483 29.0992C25.185 29.0992 24.8871 29.0992 24.5891 29.0992C24.3656 29.0992 24.2167 29.1738 24.2167 29.3977C24.2167 29.7708 24.2167 30.1439 24.2167 30.5916C24.2167 30.8155 24.3656 30.9647 24.5891 30.9647C25.185 30.9647 25.781 30.9647 26.3769 30.9647C26.6004 30.9647 26.7494 30.8155 26.7494 30.5916C26.7494 30.2185 26.7494 29.8454 26.7494 29.4723C26.7494 29.1738 26.6004 29.0992 26.3024 29.0992C26.0045 29.0992 25.781 29.0992 25.483 29.0992ZM32.0383 35.6659C32.3363 35.6659 32.6342 35.6659 32.9322 35.6659C33.1557 35.6659 33.3046 35.5912 33.3046 35.3674C33.3046 34.9943 33.3046 34.5465 33.3046 34.1734C33.3046 33.9496 33.1557 33.8749 33.0067 33.8749C32.4107 33.8749 31.8148 33.8749 31.2189 33.8749C30.9954 33.8749 30.9209 33.9496 30.9209 34.1734C30.9209 34.5465 30.9209 34.9197 30.9209 35.3674C30.9209 35.5912 31.0699 35.7405 31.2934 35.7405C31.5168 35.6659 31.7403 35.6659 32.0383 35.6659ZM32.0383 33.278C32.3363 33.278 32.6342 33.278 32.8577 33.278C33.0812 33.278 33.2302 33.1287 33.2302 32.9049C33.2302 32.5318 33.2302 32.1587 33.2302 31.7855C33.2302 31.4871 33.0812 31.4124 32.8577 31.4124C32.2618 31.4124 31.7403 31.4124 31.1444 31.4124C30.9209 31.4124 30.7719 31.5617 30.7719 31.7855C30.7719 32.1587 30.7719 32.5318 30.7719 32.9049C30.7719 33.1287 30.9209 33.278 31.1444 33.278C31.5168 33.278 31.7403 33.278 32.0383 33.278ZM25.483 33.8749C25.185 33.8749 24.9616 33.8749 24.6636 33.8749C24.3656 33.8749 24.2167 33.9496 24.2911 34.2481C24.2911 34.6212 24.2911 34.9943 24.2911 35.3674C24.2911 35.5912 24.3656 35.7405 24.6636 35.7405C25.2595 35.7405 25.781 35.7405 26.3769 35.7405C26.6749 35.7405 26.7494 35.5912 26.7494 35.3674C26.7494 34.9943 26.7494 34.6958 26.7494 34.3227C26.7494 34.0242 26.6749 33.9496 26.3769 33.9496C26.0045 33.8749 25.7065 33.8749 25.483 33.8749ZM28.8351 29.0992C28.5372 29.0992 28.2392 29.0992 28.0157 29.0992C27.7923 29.0992 27.6433 29.1738 27.6433 29.4723C27.6433 29.8454 27.6433 30.2185 27.6433 30.5916C27.6433 30.8155 27.7923 30.9647 27.9412 30.9647C28.5372 30.9647 29.1331 30.9647 29.6545 30.9647C29.878 30.9647 30.027 30.8155 30.027 30.5916C30.027 30.2185 30.027 29.8454 30.027 29.4723C30.027 29.2484 29.9525 29.0992 29.6545 29.0992C29.3566 29.0992 29.0586 29.0992 28.8351 29.0992ZM28.7606 33.278C29.0586 33.278 29.3566 33.278 29.5801 33.278C29.8035 33.278 29.9525 33.1287 29.9525 32.9049C29.9525 32.5318 29.9525 32.1587 29.9525 31.7855C29.9525 31.5617 29.8035 31.4124 29.5801 31.4124C28.9841 31.4124 28.3882 31.4124 27.8667 31.4124C27.6433 31.4124 27.4943 31.5617 27.5688 31.7855C27.5688 32.1587 27.5688 32.5318 27.5688 32.9049C27.5688 33.2034 27.7178 33.278 27.9412 33.278C28.1647 33.278 28.4627 33.278 28.7606 33.278ZM28.7606 33.8749C28.4627 33.8749 28.1647 33.8749 27.9412 33.8749C27.7178 33.8749 27.5688 33.9496 27.5688 34.2481C27.5688 34.6212 27.5688 34.9943 27.5688 35.3674C27.5688 35.5912 27.7178 35.7405 27.9412 35.7405C28.4627 35.7405 29.0586 35.7405 29.5801 35.7405C29.8035 35.7405 29.9525 35.6659 29.9525 35.3674C29.9525 34.9943 29.9525 34.6212 29.9525 34.2481C29.9525 34.0242 29.8035 33.8749 29.5801 33.8749C29.2821 33.8749 29.0586 33.8749 28.7606 33.8749ZM25.4085 31.4871C25.1106 31.4871 24.8126 31.4871 24.5146 31.4871C24.2911 31.4871 24.1422 31.6363 24.1422 31.8602C24.1422 32.2333 24.1422 32.6064 24.1422 33.0541C24.1422 33.278 24.2911 33.4272 24.5146 33.4272C25.1106 33.4272 25.7065 33.4272 26.3024 33.4272C26.5259 33.4272 26.6749 33.278 26.6749 33.0541C26.6749 32.681 26.6749 32.3079 26.6749 31.9348C26.6749 31.7109 26.5259 31.5617 26.3024 31.5617C25.93 31.4871 25.7065 31.4871 25.4085 31.4871ZM32.1128 29.0992C31.8148 29.0992 31.5168 29.0992 31.2189 29.0992C30.9954 29.0992 30.8464 29.1738 30.8464 29.4723C30.8464 29.8454 30.8464 30.2185 30.8464 30.5916C30.8464 30.8155 30.9954 30.9647 31.2189 30.9647C31.8148 30.9647 32.3362 30.9647 32.9322 30.9647C33.1557 30.9647 33.3046 30.8155 33.3046 30.5916C33.3046 30.2185 33.3046 29.8454 33.3046 29.4723C33.3046 29.2484 33.1557 29.0992 32.9322 29.0992C32.7087 29.0992 32.4107 29.0992 32.1128 29.0992ZM32.0383 28.5022C32.3363 28.5022 32.6342 28.5022 32.9322 28.5022C33.1557 28.5022 33.3046 28.4276 33.3046 28.1291C33.3046 27.756 33.3046 27.3829 33.3046 27.0098C33.3046 26.7859 33.2302 26.6367 33.0067 26.6367C32.4107 26.6367 31.8148 26.6367 31.2189 26.6367C30.9954 26.6367 30.9209 26.7859 30.9209 27.0098C30.9209 27.3829 30.9209 27.756 30.9209 28.1291C30.9209 28.353 31.0699 28.5022 31.2934 28.5022C31.5168 28.5022 31.7403 28.5022 32.0383 28.5022ZM28.7606 26.7113C28.4627 26.7113 28.2392 26.7113 27.9412 26.7113C27.7178 26.7113 27.5688 26.7859 27.5688 27.0844C27.5688 27.4575 27.5688 27.8306 27.5688 28.2037C27.5688 28.4276 27.7178 28.5768 27.9412 28.5768C28.4627 28.5768 29.0586 28.5768 29.5801 28.5768C29.8035 28.5768 29.9525 28.5022 29.9525 28.2037C29.9525 27.8306 29.9525 27.4575 29.9525 27.0844C29.9525 26.8605 29.8035 26.7113 29.5801 26.7113C29.2821 26.7113 29.0586 26.7113 28.7606 26.7113Z" fill="#FDFEFE"/>
<path d="M21.0134 11.4139C19.598 11.4139 18.1827 11.4139 16.7674 11.4139C16.4694 11.4139 16.3949 11.3393 16.3949 11.0408C16.3949 10.817 16.3949 10.5185 16.4694 10.2946C16.6184 9.1753 17.4378 8.42908 18.6296 8.42908C18.7041 8.42908 18.7786 8.42908 18.7786 8.42908C19.2256 8.5037 19.598 8.5037 19.747 7.83211C19.896 7.23513 20.5664 6.93665 21.1624 7.01127C21.7583 7.08589 22.2797 7.459 22.4287 8.13059C22.5032 8.42908 22.5777 8.5037 22.8757 8.42908C23.1736 8.42908 23.4716 8.42908 23.8441 8.42908C24.589 8.5037 25.0359 8.87681 25.3339 9.47378C25.5574 9.99613 25.6319 10.5185 25.7064 11.0408C25.7064 11.3393 25.6319 11.4139 25.3339 11.4139C23.8441 11.4139 22.4287 11.4139 21.0134 11.4139ZM21.6093 8.5037C21.6093 8.13059 21.3113 7.83211 21.0134 7.90673C20.6409 7.90673 20.4174 8.20521 20.4174 8.57832C20.4174 8.87681 20.7154 9.1753 21.0134 9.1753C21.3113 9.10067 21.6093 8.80219 21.6093 8.5037Z" fill="#FDFEFE"/>
<path d="M20.8643 19.697C18.7041 19.697 16.4693 19.697 14.3091 19.697C14.1601 19.697 13.9366 19.7716 13.9366 19.6224C13.8621 19.3985 13.8621 19.1746 13.9366 18.9508C13.9366 18.8762 14.0856 18.8762 14.1601 18.8762C14.4581 18.8762 14.756 18.8762 15.054 18.8762C15.2775 18.8762 15.3519 18.8015 15.3519 18.5777C15.3519 18.2046 15.3519 17.8315 15.3519 17.4583C15.3519 17.2345 15.4264 17.1599 15.6499 17.1599C16.0224 17.1599 16.3203 17.1599 16.6928 17.1599C16.9163 17.1599 16.9908 17.2345 16.9908 17.4583C16.9908 17.8315 16.9908 18.2046 16.9908 18.6523C16.9908 18.8015 17.0653 18.8762 17.2142 18.8762C18.2571 18.9508 18.2571 18.9508 18.2571 17.9061C18.2571 17.3837 18.2571 16.8614 18.2571 16.2644C18.2571 16.1152 18.3316 15.9659 18.4806 16.0405H18.5551C19.002 16.0405 19.5235 15.8913 19.747 16.1152C19.9704 16.339 19.8215 16.8614 19.8215 17.3091C19.8215 17.7568 19.8215 18.1299 19.8215 18.5777C19.8215 18.8015 19.8959 18.8762 20.1194 18.8762C21.0878 18.8762 21.0878 18.8762 21.0878 17.9061C21.0878 16.7868 21.0878 15.6674 21.0878 14.5481C21.0878 14.3242 21.1623 14.175 21.3858 14.2496C21.6837 14.2496 22.0562 14.2496 22.3542 14.2496C22.5776 14.2496 22.6521 14.3242 22.6521 14.5481C22.6521 15.8167 22.6521 17.1599 22.6521 18.4284C22.6521 18.7269 22.7266 18.8762 23.0991 18.8762C23.9185 18.8762 23.9185 18.8762 23.9185 17.9807C23.9185 16.5629 23.9185 15.2197 23.9185 13.8019C23.9185 13.5034 23.993 13.3542 24.291 13.4288C24.6634 13.5034 25.2593 13.2795 25.4828 13.5034C25.7063 13.7273 25.5573 14.2496 25.5573 14.6973C25.5573 15.9659 25.5573 17.2345 25.5573 18.503C25.5573 18.8015 25.6318 18.8762 25.9298 18.8762C26.4512 18.8762 27.0472 18.8762 27.5686 18.8762C27.9411 18.8762 27.8666 19.1 27.8666 19.3239C27.8666 19.5478 27.8666 19.7716 27.4941 19.7716C25.3338 19.697 23.0991 19.697 20.8643 19.697Z" fill="#179647"/>
<path d="M17.8848 23.204C20.0451 23.2786 21.7584 24.9949 21.6839 27.1589C21.6839 29.2484 19.8216 30.9646 17.8103 30.89C15.6501 30.8154 13.9368 29.0991 14.0113 27.0097C14.0113 24.8457 15.7246 23.1294 17.8848 23.204ZM17.8848 23.5771C16.0225 23.4279 14.2347 25.2188 14.3092 27.0843C14.4582 29.7707 17.2889 31.2631 19.5236 29.9199C21.1625 28.9499 21.7584 26.7112 20.7155 25.2188C20.1196 24.2487 19.1512 23.6517 17.8848 23.5771Z" fill="#179647"/>
<path d="M28.8349 22.3833C30.1013 22.3833 31.4421 22.3833 32.7085 22.3833C33.2299 22.3833 33.3789 22.5325 33.3789 23.0549C33.3789 23.5772 33.3789 24.0996 33.3789 24.6219C33.3789 25.2935 33.2299 25.3682 32.634 25.3682C30.6972 25.3682 28.8349 25.3682 26.8981 25.3682C26.2277 25.3682 25.5573 25.3682 24.8869 25.3682C24.4399 25.3682 24.2164 25.2189 24.2164 24.6966C24.2164 24.1742 24.2164 23.5772 24.2164 23.0549C24.2164 22.5325 24.3654 22.3833 24.8869 22.3833C26.2277 22.3833 27.4941 22.3833 28.8349 22.3833Z" fill="#179647"/>
<path d="M25.4084 26.7113C25.7064 26.7113 26.0043 26.7113 26.3023 26.7113C26.5258 26.7113 26.6748 26.786 26.6748 27.0098C26.6748 27.3829 26.6748 27.756 26.6748 28.2038C26.6748 28.4276 26.5258 28.5023 26.3023 28.5023C25.7064 28.5023 25.1104 28.5023 24.589 28.5023C24.3655 28.5023 24.291 28.353 24.291 28.1292C24.291 27.756 24.291 27.3829 24.291 26.9352C24.291 26.7113 24.44 26.6367 24.6635 26.6367C24.8125 26.7113 25.1104 26.7113 25.4084 26.7113Z" fill="#179647"/>
<path d="M25.4828 29.0991C25.7808 29.0991 26.0042 29.0991 26.3022 29.0991C26.6002 29.0991 26.7491 29.1737 26.7491 29.4722C26.7491 29.8453 26.7491 30.2184 26.7491 30.5916C26.7491 30.8154 26.6002 30.9647 26.3767 30.9647C25.7808 30.9647 25.1848 30.9647 24.5889 30.9647C24.3654 30.9647 24.2909 30.8154 24.2164 30.5916C24.2164 30.2184 24.2164 29.8453 24.2164 29.3976C24.2164 29.1737 24.3654 29.0991 24.5889 29.0991C24.8869 29.0991 25.1848 29.0991 25.4828 29.0991Z" fill="#179647"/>
<path d="M32.0382 35.6658C31.7402 35.6658 31.4422 35.6658 31.2188 35.6658C30.9953 35.6658 30.8463 35.5912 30.8463 35.2927C30.8463 34.9196 30.8463 34.5465 30.8463 34.0988C30.8463 33.8749 30.9953 33.8003 31.1443 33.8003C31.7402 33.8003 32.3361 33.8003 32.9321 33.8003C33.1556 33.8003 33.23 33.9495 33.23 34.0988C33.23 34.4719 33.23 34.9196 33.23 35.2927C33.23 35.5166 33.0811 35.5912 32.8576 35.5912C32.6341 35.6658 32.3361 35.6658 32.0382 35.6658Z" fill="#179647"/>
<path d="M32.0382 33.2781C31.7402 33.2781 31.4422 33.2781 31.2188 33.2781C30.9953 33.2781 30.8463 33.1289 30.8463 32.905C30.8463 32.5319 30.8463 32.1588 30.8463 31.7857C30.8463 31.5618 30.9953 31.4126 31.2188 31.4126C31.8147 31.4126 32.3361 31.4126 32.9321 31.4126C33.1556 31.4126 33.3045 31.4872 33.3045 31.7857C33.3045 32.1588 33.3045 32.5319 33.3045 32.905C33.3045 33.2035 33.1556 33.2781 32.9321 33.2781C32.6341 33.2781 32.3361 33.2781 32.0382 33.2781Z" fill="#179647"/>
<path d="M25.4828 33.8749C25.7808 33.8749 26.0042 33.8749 26.3022 33.8749C26.6002 33.8749 26.6747 34.0242 26.6747 34.248C26.6747 34.6211 26.6747 34.9196 26.6747 35.2927C26.6747 35.5166 26.6002 35.6658 26.3022 35.6658C25.7063 35.6658 25.1848 35.6658 24.5889 35.6658C24.3654 35.6658 24.2164 35.5166 24.2164 35.2927C24.2164 34.9196 24.2164 34.5465 24.2164 34.1734C24.2164 33.8749 24.3654 33.8003 24.5889 33.8003C24.8869 33.8749 25.1848 33.8749 25.4828 33.8749Z" fill="#179647"/>
<path d="M28.8349 29.0991C29.1329 29.0991 29.4309 29.0991 29.6543 29.0991C29.9523 29.0991 30.0268 29.2484 30.0268 29.4722C30.0268 29.8453 30.0268 30.2184 30.0268 30.5916C30.0268 30.8154 29.8778 30.9647 29.6543 30.9647C29.0584 30.9647 28.4625 30.9647 27.941 30.9647C27.7176 30.9647 27.6431 30.8154 27.6431 30.5916C27.6431 30.2184 27.6431 29.8453 27.6431 29.4722C27.6431 29.1737 27.792 29.0991 28.0155 29.0991C28.239 29.0991 28.537 29.0991 28.8349 29.0991Z" fill="#179647"/>
<path d="M28.7605 33.2781C28.4625 33.2781 28.1645 33.2781 27.9411 33.2781C27.7176 33.2781 27.5686 33.2035 27.5686 32.905C27.5686 32.5319 27.5686 32.1588 27.5686 31.7857C27.5686 31.5618 27.7176 31.4126 27.8666 31.4126C28.4625 31.4126 29.0584 31.4126 29.5799 31.4126C29.8034 31.4126 29.9523 31.5618 29.9523 31.7857C29.9523 32.1588 29.9523 32.5319 29.9523 32.905C29.9523 33.1289 29.8034 33.2781 29.5799 33.2781C29.2819 33.2781 28.9839 33.2781 28.7605 33.2781Z" fill="#179647"/>
<path d="M28.7605 33.875C29.0584 33.875 29.3564 33.875 29.5799 33.875C29.8034 33.875 29.9523 33.9496 29.9523 34.2481C29.9523 34.6212 29.9523 34.9943 29.9523 35.3674C29.9523 35.6659 29.8034 35.7405 29.5799 35.7405C29.0584 35.7405 28.4625 35.7405 27.9411 35.7405C27.6431 35.7405 27.5686 35.5913 27.5686 35.3674C27.5686 34.9943 27.5686 34.6212 27.5686 34.2481C27.5686 33.9496 27.7176 33.875 27.9411 33.875C28.1645 33.875 28.4625 33.875 28.7605 33.875Z" fill="#179647"/>
<path d="M25.4085 31.4872C25.7064 31.4872 26.0044 31.4872 26.2279 31.4872C26.4514 31.4872 26.6003 31.6365 26.6003 31.8603C26.6003 32.2334 26.6003 32.6065 26.6003 32.9797C26.6003 33.2035 26.5259 33.3528 26.2279 33.3528C25.632 33.3528 25.036 33.3528 24.4401 33.3528C24.2166 33.3528 24.0676 33.2035 24.0676 32.9797C24.0676 32.6065 24.0676 32.2334 24.0676 31.7857C24.0676 31.5618 24.2166 31.4872 24.4401 31.4126C24.8125 31.4872 25.1105 31.4872 25.4085 31.4872Z" fill="#179647"/>
<path d="M32.1127 29.0991C32.4106 29.0991 32.7086 29.0991 32.9321 29.0991C33.1556 29.0991 33.3045 29.2484 33.3045 29.4722C33.3045 29.8453 33.3045 30.2184 33.3045 30.5916C33.3045 30.8154 33.1556 30.9647 32.9321 30.9647C32.3361 30.9647 31.8147 30.9647 31.2188 30.9647C30.9953 30.9647 30.8463 30.8154 30.8463 30.5916C30.8463 30.2184 30.8463 29.8453 30.8463 29.4722C30.8463 29.2484 30.9953 29.0991 31.2188 29.0991C31.5912 29.0991 31.8147 29.0991 32.1127 29.0991Z" fill="#179647"/>
<path d="M32.0382 28.5023C31.7402 28.5023 31.5167 28.5023 31.2188 28.5023C30.9953 28.5023 30.8463 28.353 30.8463 28.1292C30.8463 27.756 30.8463 27.3829 30.8463 27.0098C30.8463 26.786 30.9208 26.6367 31.1443 26.6367C31.7402 26.6367 32.3361 26.6367 32.9321 26.6367C33.1556 26.6367 33.23 26.786 33.23 27.0098C33.23 27.3829 33.23 27.756 33.23 28.1292C33.23 28.353 33.0811 28.5023 32.8576 28.5023C32.6341 28.5023 32.3361 28.5023 32.0382 28.5023Z" fill="#179647"/>
<path d="M28.7605 26.7114C29.0584 26.7114 29.2819 26.7114 29.5799 26.7114C29.8034 26.7114 29.9523 26.786 29.9523 27.0845C29.9523 27.4576 29.9523 27.8307 29.9523 28.2039C29.9523 28.5023 29.8034 28.577 29.5799 28.577C29.0584 28.577 28.4625 28.577 27.9411 28.577C27.7176 28.577 27.5686 28.4277 27.5686 28.2039C27.5686 27.8307 27.5686 27.4576 27.5686 27.0845C27.5686 26.786 27.7176 26.7114 27.9411 26.7114C28.1645 26.7114 28.4625 26.7114 28.7605 26.7114Z" fill="#179647"/>
<path d="M21.6093 8.50363C21.6093 8.80211 21.3113 9.1006 20.9388 9.1006C20.6409 9.1006 20.3429 8.80211 20.3429 8.50363C20.3429 8.20514 20.6409 7.83203 20.9388 7.83203C21.3113 7.83203 21.6093 8.13052 21.6093 8.50363Z" fill="#179647"/>
<path d="M20.79 25.368C21.8329 26.7858 21.237 29.0991 19.5981 30.0692C17.2889 31.4124 14.5327 29.8453 14.3837 27.2336C14.3092 25.2934 16.097 23.5771 17.9593 23.7263C17.9593 24.8457 17.7358 25.965 17.6614 27.0097C17.6614 27.1589 17.5869 27.3082 17.6614 27.3828C17.8103 27.4574 17.8848 27.3082 18.0338 27.2336C18.9277 26.562 19.8216 25.965 20.79 25.368Z" fill="white" fill-opacity="0.6"/>
</svg>
