<svg width="48" height="48" viewBox="0 0 48 48" fill="none" xmlns="http://www.w3.org/2000/svg">
<rect width="47.0222" height="47.0222" rx="10" fill="#EE4428"/>
<path opacity="0.4" d="M13.632 9.51469C11.6469 9.89204 10.0719 11.4944 9.71641 13.5014C9.67812 13.7202 9.65625 16.2905 9.65625 21.2069V28.5842L9.91328 28.2397C11.0781 26.6428 13.1781 25.7241 15.1031 25.9592C15.3984 25.992 15.743 26.0249 15.8633 26.0249L16.082 26.0303V17.9256C16.082 10.4499 16.0766 9.81001 15.9891 9.72798C15.7484 9.48735 14.4141 9.36704 13.632 9.51469Z" fill="white"/>
<path d="M16.9841 20.9528C16.9841 27.1107 17.0005 26.8044 16.6615 27.0068C16.4591 27.1271 16.3224 27.1216 15.9177 26.9958C14.2388 26.4708 12.2208 27.0122 10.9794 28.3193C9.58491 29.7958 9.25678 32.0271 10.1646 33.8536C10.6896 34.9091 11.6685 35.8005 12.7951 36.238C13.6646 36.5771 13.1013 36.5607 25.0177 36.5607C35.7747 36.5607 35.8787 36.5607 36.0591 36.4513C36.1576 36.3911 36.2615 36.2763 36.2888 36.1997C36.3216 36.1122 36.3435 32.3825 36.3435 25.9458C36.3435 14.7841 36.3708 15.6099 35.9935 15.4294C35.824 15.3474 34.9927 15.3419 26.3958 15.3419H16.9841V20.9528ZM26.3466 18.8255C26.4341 18.9075 26.4451 19.0224 26.4451 20.22C26.4451 21.4505 26.4396 21.5271 26.3357 21.631C26.2318 21.7349 26.1552 21.7403 24.8044 21.7403H23.3826L23.3935 22.8724L23.4099 24.0044L24.8044 24.8083L26.199 25.6177H29.0537L31.9083 25.6232L31.9904 25.7435C32.0669 25.8474 32.0779 26.1591 32.0779 28.0075V30.1458L32.7232 30.1732C33.4396 30.206 33.5982 30.2607 33.8716 30.5724C34.1013 30.8349 34.1287 30.9497 34.1287 31.7482C34.1287 32.5138 34.0849 32.645 33.7513 32.9404C33.456 33.1974 33.1497 33.2357 31.5146 33.2138C30.1529 33.1974 30.0708 33.1919 29.8521 33.0716C29.7208 33.006 29.5513 32.8474 29.4693 32.7216C29.3216 32.4974 29.3162 32.4755 29.3162 31.6935C29.3162 30.9114 29.3216 30.8896 29.4693 30.6654C29.7044 30.3044 29.9669 30.2005 30.7271 30.1732L31.3669 30.1513V28.2427V26.3341H28.7638H26.1607L24.7716 27.1325L23.3826 27.931V29.0466V30.1622H24.9302C25.7779 30.1622 26.5271 30.1786 26.5927 30.195C26.6583 30.2114 26.7294 30.2716 26.7458 30.3263C26.7677 30.4029 26.3138 32.2404 26.106 32.8857C26.0021 33.2247 26.024 33.2247 22.606 33.2247C20.9107 33.2247 19.4724 33.2083 19.4068 33.1919C19.3412 33.1755 19.2755 33.1208 19.2537 33.0716C19.2099 32.9513 19.8826 30.4521 19.9974 30.3044C20.0849 30.195 20.1451 30.1896 21.3537 30.1732L22.6169 30.1568V29.0411V27.931L21.2115 27.1271C20.4349 26.6841 19.7458 26.2685 19.6802 26.2083C19.538 26.0825 19.5216 25.913 19.6255 25.7654C19.6638 25.7161 20.3474 25.295 21.1404 24.8411L22.5896 24.0044L22.606 22.8724L22.6169 21.7403H21.1951C19.8443 21.7403 19.7677 21.7349 19.6638 21.631C19.5599 21.5271 19.5544 21.4505 19.5544 20.2255C19.5544 19.0989 19.5654 18.9185 19.6474 18.831C19.7294 18.738 19.9044 18.7325 22.9888 18.7325C25.9419 18.7325 26.2537 18.7435 26.3466 18.8255Z" fill="white"/>
</svg>
