<svg width="48" height="48" viewBox="0 0 48 48" fill="none" xmlns="http://www.w3.org/2000/svg">
<rect width="47.0222" height="47.0222" rx="10" fill="#FFDA00"/>
<g clip-path="url(#clip0_22_10)">
<path d="M18.0747 21.6211H22.9247V16.3184H18.7489C18.3601 17.9507 18.1297 19.7477 18.0747 21.6211Z" fill="white" fill-opacity="0.8"/>
<path d="M24.6826 21.6211H29.5327C29.4776 19.7477 29.2473 17.9507 28.8584 16.3184H24.6826V21.6211Z" fill="white" fill-opacity="0.8"/>
<path d="M31.291 21.6211H38.7776C38.671 19.7664 38.2282 17.9752 37.4784 16.3184H30.6599C31.024 17.9734 31.2391 19.766 31.291 21.6211Z" fill="white" fill-opacity="0.8"/>
<path d="M16.9475 16.3184H10.1291C9.37927 17.9752 8.93647 19.7664 8.82983 21.6211H16.3165C16.3683 19.766 16.5834 17.9734 16.9475 16.3184Z" fill="white" fill-opacity="0.8"/>
<path d="M22.9246 9.43164C21.8329 9.86025 20.771 11.0673 19.9175 12.8876C19.6723 13.4106 19.45 13.9703 19.251 14.5602H22.9246V9.43164Z" fill="white" fill-opacity="0.8"/>
<path d="M18.3259 12.1417C19.7294 9.14848 21.6746 7.5 23.8034 7.5C19.7968 7.5 16.03 9.06029 13.1968 11.8934C12.38 12.7102 11.6696 13.6051 11.0713 14.5605H17.406C17.6689 13.6986 17.9761 12.8877 18.3259 12.1417Z" fill="white" fill-opacity="0.8"/>
<path d="M29.2813 12.1417C29.631 12.8876 29.9382 13.6986 30.2011 14.5605H36.5358C35.9374 13.6051 35.2271 12.7102 34.4102 11.8934C31.5772 9.06029 27.8104 7.5 23.8037 7.5C25.9325 7.5 27.8778 9.14848 29.2813 12.1417Z" fill="white" fill-opacity="0.8"/>
<path d="M24.6826 9.43164V14.5602H28.3563C28.1572 13.9703 27.935 13.4106 27.6898 12.8876C26.8363 11.0674 25.7745 9.86031 24.6826 9.43164Z" fill="white" fill-opacity="0.8"/>
<path d="M8.80371 23.3789V36.6211C8.80371 37.1065 9.19723 37.5 9.68262 37.5H37.9248C38.4102 37.5 38.8037 37.1065 38.8037 36.6211V23.3789H8.80371ZM16.8529 33.7141C16.5153 33.8196 16.16 33.6895 15.9477 33.3828L13.7236 30.1622V33.0762C13.7236 33.4807 13.3957 33.8087 12.9912 33.8087C12.5867 33.8087 12.2587 33.4807 12.2587 33.0762V27.8127C12.2587 27.4921 12.4672 27.2088 12.7732 27.1134C13.0792 27.0179 13.4116 27.1327 13.5939 27.3965L15.9336 30.7846L15.9048 27.8099C15.9009 27.4054 16.2257 27.0744 16.6301 27.0704H16.6373C17.0386 27.0704 17.3657 27.3937 17.3696 27.7958L17.4189 32.8915V32.8986C17.4189 33.2866 17.1967 33.6067 16.8529 33.7141ZM21.2353 29.7071C21.6397 29.7071 21.9677 30.035 21.9677 30.4396C21.9677 30.8441 21.6397 31.172 21.2353 31.172H19.9095V32.3439H21.3991C21.8036 32.3439 22.1315 32.6718 22.1315 33.0763C22.1315 33.4808 21.8036 33.8087 21.3991 33.8087H19.1771C18.7726 33.8087 18.4447 33.4808 18.4447 33.0763V27.8029C18.4447 27.3984 18.7726 27.0704 19.1771 27.0704H21.3991C21.8036 27.0704 22.1315 27.3984 22.1315 27.8029C22.1315 28.2073 21.8036 28.5353 21.3991 28.5353H19.9095V29.7071H21.2353ZM30.1325 27.9555L29.101 33.1385C29.0947 33.17 29.0864 33.201 29.076 33.2314C28.9594 33.5743 28.6378 33.8062 28.2756 33.8087C28.2738 33.8087 28.2718 33.8087 28.2699 33.8087C27.9101 33.8087 27.5882 33.5816 27.4676 33.2422C27.4641 33.2324 27.461 33.2226 27.4579 33.2127L26.5575 30.2901L25.653 33.2121C25.6511 33.2186 25.6489 33.225 25.6468 33.2314C25.5302 33.5742 25.2086 33.8061 24.8466 33.8087C24.8446 33.8087 24.8427 33.8087 24.8406 33.8087C24.4809 33.8087 24.1591 33.5818 24.0384 33.2425C24.0265 33.2088 24.017 33.1742 24.01 33.1391L22.9826 27.9449C22.9041 27.5481 23.1622 27.1628 23.559 27.0843C23.9557 27.0057 24.3411 27.2638 24.4196 27.6606L24.9727 30.4564L25.8434 27.6433C25.899 27.3952 26.0818 27.1829 26.3422 27.1028C26.7287 26.9836 27.1386 27.2005 27.2578 27.5871L28.1415 30.4557L28.696 27.6695C28.775 27.2728 29.1605 27.0154 29.5573 27.0941C29.9539 27.1731 30.2115 27.5588 30.1325 27.9555ZM35.4195 32.0621C35.2388 33.0742 34.2752 33.8087 33.1283 33.8087C32.2042 33.8087 31.3366 33.4361 30.7479 32.7864C30.4762 32.4867 30.499 32.0235 30.7988 31.7519C31.0986 31.4803 31.5617 31.5031 31.8333 31.8028C32.1404 32.1416 32.6245 32.3439 33.1283 32.3439C33.5995 32.3439 33.9301 32.0697 33.9774 31.8046C34.0394 31.4577 33.4996 31.2298 33.3327 31.1683C32.5126 30.8658 31.7842 30.5416 31.7537 30.5279C31.7183 30.5122 31.6844 30.4937 31.6521 30.4726C31.0719 30.0943 30.773 29.4311 30.872 28.7416C30.9772 28.0087 31.5119 27.4121 32.2675 27.1845C33.6619 26.7642 34.8224 27.6324 34.992 27.7679C35.1637 27.902 35.2744 28.1104 35.2744 28.345C35.2744 28.7495 34.9465 29.0774 34.542 29.0774C34.3622 29.0774 34.1978 29.0124 34.0702 28.9049L34.0696 28.9057L34.0743 28.9096C34.0677 28.9042 33.401 28.3727 32.6899 28.5871C32.3919 28.6769 32.3332 28.8707 32.3219 28.9498C32.3143 29.0026 32.3104 29.1277 32.4175 29.2197C32.6124 29.3049 33.2046 29.5597 33.8396 29.794C35.2126 30.3004 35.556 31.2977 35.4195 32.0621Z" fill="white"/>
</g>
<defs>
<clipPath id="clip0_22_10">
<rect width="30" height="30" fill="white" transform="translate(8.80371 7.5)"/>
</clipPath>
</defs>
</svg>
