<svg width="46" height="46" viewBox="0 0 46 46" fill="none" xmlns="http://www.w3.org/2000/svg">
<circle cx="23" cy="23" r="23" fill="#C7762F"/>
<path d="M38.4411 26.5552C37.8265 25.9979 36.8683 26.0343 36.2225 26.5552L31.4102 30.4041C30.8217 30.8781 30.0874 31.1333 29.327 31.1333H23.1659C22.7076 31.1333 22.3326 30.7583 22.3326 30.3C22.3326 29.8416 22.7076 29.4666 23.1659 29.4666H27.2438C28.0719 29.4666 28.8427 28.8989 28.9781 28.0812C29.1499 27.0396 28.3479 26.1333 27.3323 26.1333H18.9994C17.5933 26.1333 16.234 26.6177 15.1403 27.5031L12.7185 29.4666H9.83329C9.37498 29.4666 9 29.8416 9 30.3V35.3C9 35.7583 9.37498 36.1333 9.83329 36.1333H28.4156C29.1708 36.1333 29.9051 35.8781 30.4988 35.4041L38.3734 29.1021C39.165 28.4718 39.2275 27.2635 38.4411 26.5552Z" fill="white"/>
<path opacity="0.8" d="M32.1826 21.08C32.2548 20.674 32.2548 20.2593 32.1826 19.8532L32.8991 19.4242C32.9824 19.3752 33.0185 19.2744 32.9908 19.1794C32.8047 18.5574 32.4853 17.9929 32.0688 17.5264C32.0049 17.4544 31.9021 17.4371 31.8188 17.4861L31.1023 17.9152C30.7996 17.6473 30.4524 17.44 30.0775 17.3018V16.4436C30.0775 16.3457 30.0109 16.2593 29.9192 16.2391C29.2999 16.0952 28.6695 16.1009 28.0808 16.2391C27.9891 16.2593 27.9225 16.3457 27.9225 16.4436V17.3018C27.5476 17.44 27.2004 17.6473 26.8977 17.9152L26.1812 17.4861C26.1007 17.4371 25.9951 17.4544 25.9312 17.5264C25.5147 17.9929 25.1953 18.5574 25.0092 19.1794C24.9815 19.2744 25.0203 19.3752 25.1009 19.4242L25.8174 19.8532C25.7452 20.2593 25.7452 20.674 25.8174 21.08L25.1009 21.5091C25.0176 21.5581 24.9815 21.6589 25.0092 21.7539C25.1953 22.3759 25.5147 22.9375 25.9312 23.4069C25.9951 23.4789 26.0979 23.4961 26.1812 23.4472L26.8977 23.0181C27.2004 23.2859 27.5476 23.4933 27.9225 23.6315V24.4897C27.9225 24.5876 27.9891 24.674 28.0808 24.6941C28.7001 24.8381 29.3305 24.8324 29.9192 24.6941C30.0109 24.674 30.0775 24.5876 30.0775 24.4897V23.6315C30.4524 23.4933 30.7996 23.2859 31.1023 23.0181L31.8188 23.4472C31.8993 23.4961 32.0049 23.4789 32.0688 23.4069C32.4853 22.9404 32.8047 22.3759 32.9908 21.7539C33.0185 21.6589 32.9797 21.5581 32.8991 21.5091L32.1826 21.08ZM29.0028 21.8633C28.2585 21.8633 27.6559 21.2355 27.6559 20.4666C27.6559 19.6977 28.2613 19.0699 29.0028 19.0699C29.7443 19.0699 30.3497 19.6977 30.3497 20.4666C30.3497 21.2355 29.7471 21.8633 29.0028 21.8633Z" fill="white"/>
<path d="M21.2921 17.4666C23.2781 17.4666 24.8876 15.8252 24.8876 13.8C24.8876 11.7747 23.2781 10.1333 21.2921 10.1333C19.3062 10.1333 17.6966 11.7747 17.6966 13.8C17.6966 15.8252 19.3062 17.4666 21.2921 17.4666ZM26.9438 23.9549C26.8792 23.9205 26.8146 23.8804 26.7528 23.8432L26.5309 23.975C26.3624 24.0724 26.1713 24.1268 25.9803 24.1268C25.6742 24.1268 25.3792 23.995 25.1685 23.7659C24.6545 23.1987 24.2612 22.5083 24.0393 21.7721C23.8848 21.2651 24.0927 20.7294 24.5421 20.463L24.764 20.3312C24.7612 20.2567 24.7612 20.1823 24.764 20.1078L24.5421 19.976C24.0927 19.7125 23.8848 19.1739 24.0393 18.6669C24.0646 18.5838 24.1011 18.5007 24.1292 18.4177C24.0225 18.4091 23.9185 18.3833 23.809 18.3833H23.3399C22.7163 18.6755 22.0225 18.8416 21.2921 18.8416C20.5618 18.8416 19.8708 18.6755 19.2444 18.3833C19.2444 18.3833 20.8595 18.3833 18.7753 18.3833C16.691 18.3833 15 20.1078 15 22.2333C15 24.3588 15 22.6659 15 23.425C15 24.1841 15.6039 24.8 16.3483 24.8C17.0927 24.8 26.236 24.8 26.236 24.8C26.5197 24.8 26.7837 24.7083 27 24.5565C26.9663 24.4476 26.9438 24.3359 26.9438 24.2185V23.9549Z" fill="white"/>
</svg>
