<svg width="48" height="48" viewBox="0 0 48 48" fill="none" xmlns="http://www.w3.org/2000/svg">
<rect width="47.0222" height="47.0222" rx="10" fill="#EE4428"/>
<path opacity="0.4" d="M13.632 9.51494C11.6469 9.89228 10.0719 11.4946 9.71641 13.5017C9.67812 13.7204 9.65625 16.2907 9.65625 21.2071V28.5845L9.91328 28.2399C11.0781 26.6431 13.1781 25.7243 15.1031 25.9595C15.3984 25.9923 15.743 26.0251 15.8633 26.0251L16.082 26.0306V17.9259C16.082 10.4501 16.0766 9.81025 15.9891 9.72822C15.7484 9.48759 14.4141 9.36728 13.632 9.51494Z" fill="white"/>
<path d="M16.9839 20.9531C16.9839 27.1109 17.0003 26.8047 16.6612 27.007C16.4589 27.1273 16.3222 27.1218 15.9175 26.9961C14.2386 26.4711 12.2206 27.0125 10.9792 28.3195C9.58466 29.7961 9.25654 32.0273 10.1643 33.8539C10.6893 34.9093 11.6683 35.8008 12.7948 36.2383C13.6643 36.5773 13.1011 36.5609 25.0175 36.5609C35.7745 36.5609 35.8784 36.5609 36.0589 36.4515C36.1573 36.3914 36.2612 36.2765 36.2886 36.2C36.3214 36.1125 36.3433 32.3828 36.3433 25.9461C36.3433 14.7843 36.3706 15.6101 35.9933 15.4297C35.8237 15.3476 34.9925 15.3422 26.3956 15.3422H16.9839V20.9531ZM26.3464 18.8258C26.4339 18.9078 26.4448 19.0226 26.4448 20.2203C26.4448 21.4507 26.4394 21.5273 26.3354 21.6312C26.2315 21.7351 26.155 21.7406 24.8042 21.7406H23.3823L23.3933 22.8726L23.4097 24.0047L24.8042 24.8086L26.1987 25.6179H29.0534L31.9081 25.6234L31.9901 25.7437C32.0667 25.8476 32.0776 26.1593 32.0776 28.0078V30.1461L32.7229 30.1734C33.4393 30.2062 33.5979 30.2609 33.8714 30.5726C34.1011 30.8351 34.1284 30.95 34.1284 31.7484C34.1284 32.514 34.0847 32.6453 33.7511 32.9406C33.4558 33.1976 33.1495 33.2359 31.5144 33.214C30.1526 33.1976 30.0706 33.1922 29.8519 33.0718C29.7206 33.0062 29.5511 32.8476 29.469 32.7218C29.3214 32.4976 29.3159 32.4758 29.3159 31.6937C29.3159 30.9117 29.3214 30.8898 29.469 30.6656C29.7042 30.3047 29.9667 30.2008 30.7269 30.1734L31.3667 30.1515V28.2429V26.3343H28.7636H26.1604L24.7714 27.1328L23.3823 27.9312V29.0468V30.1625H24.93C25.7776 30.1625 26.5268 30.1789 26.5925 30.1953C26.6581 30.2117 26.7292 30.2718 26.7456 30.3265C26.7675 30.4031 26.3136 32.2406 26.1058 32.8859C26.0019 33.225 26.0237 33.225 22.6058 33.225C20.9104 33.225 19.4722 33.2086 19.4065 33.1922C19.3409 33.1758 19.2753 33.1211 19.2534 33.0718C19.2097 32.9515 19.8823 30.4523 19.9972 30.3047C20.0847 30.1953 20.1448 30.1898 21.3534 30.1734L22.6167 30.157V29.0414V27.9312L21.2112 27.1273C20.4347 26.6843 19.7456 26.2687 19.68 26.2086C19.5378 26.0828 19.5214 25.9133 19.6253 25.7656C19.6636 25.7164 20.3472 25.2953 21.1401 24.8414L22.5893 24.0047L22.6058 22.8726L22.6167 21.7406H21.1948C19.844 21.7406 19.7675 21.7351 19.6636 21.6312C19.5597 21.5273 19.5542 21.4507 19.5542 20.2257C19.5542 19.0992 19.5651 18.9187 19.6472 18.8312C19.7292 18.7382 19.9042 18.7328 22.9886 18.7328C25.9417 18.7328 26.2534 18.7437 26.3464 18.8258Z" fill="white"/>
</svg>
