<svg width="46" height="46" viewBox="0 0 46 46" fill="none" xmlns="http://www.w3.org/2000/svg">
<circle cx="23" cy="23" r="23" fill="#EE4428"/>
<path d="M15.9582 21.9169H27.8749C28.1743 21.9169 28.4166 21.6746 28.4166 21.3752C28.4166 21.0758 28.1743 20.8335 27.8749 20.8335H15.9582C15.6588 20.8335 15.4165 21.0758 15.4165 21.3752C15.4165 21.6746 15.6588 21.9169 15.9582 21.9169Z" fill="white" fill-opacity="0.8"/>
<path d="M22.4582 27.3335H15.9582C15.6588 27.3335 15.4165 27.5758 15.4165 27.8752C15.4165 28.1746 15.6588 28.4169 15.9582 28.4169H22.4582C22.7576 28.4169 22.9999 28.1746 22.9999 27.8752C22.9999 27.5758 22.7576 27.3335 22.4582 27.3335Z" fill="white" fill-opacity="0.8"/>
<path d="M33.9264 17.5835C33.8951 17.5835 33.8646 17.5914 33.8334 17.5928V13.2502C33.8334 12.0552 32.8611 11.0835 31.6667 11.0835H12.1667C10.9723 11.0835 10 12.0552 10 13.2502V32.7502C10 33.9451 10.9723 34.9169 12.1667 34.9169H31.6667C32.8611 34.9169 33.8334 33.9452 33.8334 32.7502V22.6825L35.3928 21.1234C35.3928 21.1234 35.3928 21.1234 35.3928 21.1229C35.7789 20.7368 36 20.2025 36 19.6571C36 18.5135 35.0701 17.5835 33.9264 17.5835ZM17.0417 13.2502C17.3408 13.2502 17.5834 13.4927 17.5834 13.7919C17.5834 14.091 17.3408 14.3335 17.0417 14.3335C16.7425 14.3335 16.5 14.091 16.5 13.7919C16.5 13.4927 16.7425 13.2502 17.0417 13.2502ZM14.875 13.2502C15.1742 13.2502 15.4167 13.4927 15.4167 13.7919C15.4167 14.091 15.1742 14.3335 14.875 14.3335C14.5758 14.3335 14.3333 14.091 14.3333 13.7919C14.3333 13.4927 14.5758 13.2502 14.875 13.2502ZM12.7083 13.2502C13.0075 13.2502 13.25 13.4927 13.25 13.7919C13.25 14.091 13.0075 14.3335 12.7083 14.3335C12.4092 14.3335 12.1666 14.091 12.1666 13.7919C12.1667 13.4927 12.4092 13.2502 12.7083 13.2502ZM31.6667 32.7502H12.1667V16.5002H31.6667V18.9841L26.5665 24.0835H15.9583C15.6589 24.0835 15.4166 24.3258 15.4166 24.6252C15.4166 24.9246 15.6589 25.1669 15.9583 25.1669H25.6974L25.1772 27.7689C25.1413 27.9466 25.1974 28.1302 25.3254 28.2582C25.428 28.3608 25.5666 28.4169 25.7084 28.4169C25.7433 28.4169 25.7793 28.4132 25.8141 28.4063L28.5214 27.8646C28.6272 27.8434 28.7235 27.7922 28.7986 27.7165L31.6667 24.8489V32.7502ZM33.0673 21.9168L31.6664 20.5159L32.4324 19.7499L33.8334 21.1509L33.0673 21.9168Z" fill="white"/>
</svg>
