<svg width="48" height="48" viewBox="0 0 48 48" fill="none" xmlns="http://www.w3.org/2000/svg">
<rect width="47.0222" height="47.0222" rx="10" fill="#1DB054"/>
<path d="M34.3625 16.7249C33.3 15.5499 31.525 14.9624 28.95 14.9624H28.65V14.9124C28.65 12.8124 28.65 10.2124 23.95 10.2124H22.05C17.35 10.2124 17.35 12.8249 17.35 14.9124V14.9749H17.05C14.4625 14.9749 12.7 15.5624 11.6375 16.7374C10.4 18.1124 10.4375 19.9624 10.5625 21.2249L10.575 21.3124L10.7 22.6249C10.7125 22.6374 10.7375 22.6624 10.7625 22.6749C11.175 22.9499 11.6 23.2249 12.05 23.4749C12.225 23.5874 12.4125 23.6874 12.6 23.7874C14.7375 24.9624 17.0875 25.7499 19.475 26.1374C19.5875 27.3124 20.1 28.6874 22.8375 28.6874C25.575 28.6874 26.1125 27.3249 26.2 26.1124C28.75 25.6999 31.2125 24.8124 33.4375 23.5124C33.5125 23.4749 33.5625 23.4374 33.625 23.3999C34.2 23.0749 34.7375 22.7249 35.2625 22.3374C35.2875 22.3249 35.3125 22.2999 35.325 22.2749L35.375 21.8249L35.4375 21.2374C35.45 21.1624 35.45 21.0999 35.4625 21.0124C35.5625 19.7499 35.5375 18.0249 34.3625 16.7249ZM24.3625 25.2874C24.3625 26.6124 24.3625 26.8124 22.825 26.8124C21.2875 26.8124 21.2875 26.5749 21.2875 25.2999V23.7249H24.3625V25.2874ZM19.1375 14.9624V14.9124C19.1375 12.7874 19.1375 11.9999 22.05 11.9999H23.95C26.8625 11.9999 26.8625 12.7999 26.8625 14.9124V14.9749H19.1375V14.9624Z" fill="white"/>
<path opacity="0.4" d="M33.625 23.375C33.5625 23.4125 33.5 23.45 33.4375 23.4875C31.2125 24.7875 28.75 25.6625 26.2 26.0875C26.1 27.2875 25.575 28.6625 22.8375 28.6625C20.1 28.6625 19.575 27.3 19.475 26.1125C17.0875 25.7375 14.7375 24.95 12.6 23.7625C12.4125 23.6625 12.225 23.5625 12.05 23.45C11.6 23.2 11.175 22.925 10.7625 22.65C10.7375 22.6375 10.7125 22.6125 10.7 22.6L11.4625 30.7375C11.725 33.225 12.75 35.7875 18.25 35.7875H27.775C33.275 35.7875 34.3 33.225 34.5625 30.725L35.35 22.25C35.3375 22.275 35.3125 22.3 35.2875 22.3125C34.75 22.7 34.2 23.0625 33.625 23.375Z" fill="white"/>
</svg>
