<svg width="46" height="46" viewBox="0 0 46 46" fill="none" xmlns="http://www.w3.org/2000/svg">
<circle cx="23" cy="23" r="23" fill="#FFDA00"/>
<path opacity="0.6" d="M8.58668 12.0644C8.50457 12.0996 8.37554 12.1817 8.30516 12.2521C7.98257 12.5512 8.00017 11.8298 8.00017 23.5131V34.3284L8.13507 34.522C8.20545 34.6276 8.34035 34.7742 8.42833 34.8387C8.59255 34.9619 8.65707 34.9619 11.3785 34.9795L14.1586 34.9971V23.4955V11.9999L11.4489 12.0057C9.78904 12.0057 8.67466 12.0292 8.58668 12.0644Z" fill="white"/>
<path d="M15.9763 23.4955V34.9912L26.7037 34.9795L37.4369 34.9619L37.5952 34.8387C37.6832 34.7742 37.8122 34.6452 37.8767 34.5572L37.9999 34.3988V23.4955V12.5923L37.8767 12.4339C37.8122 12.3459 37.6832 12.2169 37.5952 12.1524L37.4369 12.0292L26.7037 12.0116L15.9763 11.9999V23.4955ZM24.3459 15.6714C24.9148 16.0937 24.9148 16.7624 24.3459 17.1847C24.1816 17.302 24.1054 17.3078 21.8356 17.3254C20.3693 17.3371 19.4133 17.3196 19.2725 17.2844C19.1494 17.2492 18.9617 17.1319 18.8561 17.0204C18.4045 16.5571 18.645 15.7301 19.2725 15.5776C19.3781 15.5483 20.5277 15.5307 21.8239 15.5366C24.1113 15.5483 24.1816 15.5541 24.3459 15.6714ZM32.7389 19.214C33.3195 19.5718 33.2961 20.4046 32.692 20.7213L32.4398 20.8562H28.7682C25.2726 20.8562 25.0849 20.8504 24.8503 20.7389C24.2286 20.4574 24.1934 19.5776 24.7858 19.214C24.9734 19.1026 25.0907 19.0967 28.7623 19.0967C32.4339 19.0967 32.5512 19.1026 32.7389 19.214ZM29.1611 22.7272C29.4133 22.8562 29.6421 23.2199 29.6421 23.4955C29.6421 23.7712 29.4133 24.1348 29.1611 24.2639C28.9559 24.3694 28.7858 24.3753 26.5512 24.3753C23.8825 24.3753 23.8884 24.3753 23.6186 23.9706C23.3371 23.5542 23.5013 22.9442 23.9529 22.7213C24.1406 22.6275 24.3928 22.6158 26.5512 22.6158C28.7858 22.6158 28.9559 22.6216 29.1611 22.7272ZM26.9207 26.2463C27.5482 26.5278 27.5834 27.4135 26.991 27.7771C26.8034 27.8885 26.6861 27.8944 24.3283 27.8944H21.8591L21.6596 27.7595C21.0966 27.3841 21.1494 26.5513 21.7476 26.2522C21.9764 26.1407 22.0995 26.1349 24.3341 26.1349C26.4925 26.1349 26.6978 26.1466 26.9207 26.2463ZM24.3459 29.8064C25.0321 30.3167 24.862 31.2375 24.0467 31.4135C23.8473 31.4604 23.0028 31.4721 21.4778 31.4604C19.2843 31.4428 19.208 31.4369 19.0438 31.3196C18.6743 31.044 18.5218 30.61 18.6684 30.2287C18.7447 30.0293 19.0145 29.7771 19.2256 29.7185C19.3253 29.6833 20.4749 29.6657 21.7945 29.6715C24.1113 29.6833 24.1816 29.6891 24.3459 29.8064Z" fill="white"/>
</svg>
