<svg width="48" height="48" viewBox="0 0 48 48" fill="none" xmlns="http://www.w3.org/2000/svg">
<rect width="47.0222" height="47.0222" rx="10" fill="#27A0EC"/>
<g clip-path="url(#clip0_22_97)">
<path d="M37.449 23.0217L32.9524 20.7735L37.449 18.5251C38.2533 18.1231 38.2541 16.9712 37.449 16.5685L24.5427 10.1154C24.2346 9.96155 23.8723 9.96155 23.5643 10.1154L10.658 16.5685C9.85369 16.9708 9.85284 18.1226 10.658 18.5251L15.1546 20.7735L10.658 23.0217C9.85369 23.4239 9.85284 24.5756 10.658 24.9782L15.1546 27.2266L10.658 29.4748C9.85369 29.8771 9.85284 31.0287 10.658 31.4314L23.5643 37.8846C23.8717 38.0381 24.234 38.0388 24.5427 37.8846L37.449 31.4314C38.2533 31.0291 38.2541 29.8775 37.449 29.4748L32.9524 27.2266L37.449 24.9782C38.2533 24.5762 38.2541 23.4243 37.449 23.0217ZM24.0535 12.3165L34.514 17.5469L24.0535 22.7771L13.593 17.5469L24.0535 12.3165ZM34.514 30.4532L24.0535 35.6834L13.593 30.4532L17.6003 28.4494L23.5643 31.4314C23.8719 31.585 24.234 31.5856 24.5427 31.4314L30.5066 28.4494L34.514 30.4532ZM24.0535 29.2302L13.593 24.0001L17.6003 21.9963L23.5643 24.9782C23.8719 25.1318 24.234 25.1325 24.5427 24.9782L30.5066 21.9963L34.514 24.0001L24.0535 29.2302Z" fill="white"/>
</g>
<defs>
<clipPath id="clip0_22_97">
<rect width="28" height="28" fill="white" transform="translate(10 10)"/>
</clipPath>
</defs>
</svg>
