<svg width="48" height="48" viewBox="0 0 48 48" fill="none" xmlns="http://www.w3.org/2000/svg">
<rect width="47.0222" height="47.0222" rx="10" fill="#27A0EC"/>
<g clip-path="url(#clip0_22_107)">
<path d="M28.375 11.75H26.4745C26.114 10.7315 25.141 10 24 10C22.859 10 21.886 10.7315 21.5238 11.75H19.625C19.142 11.75 18.75 12.142 18.75 12.625V16.125C18.75 16.608 19.142 17 19.625 17H28.375C28.858 17 29.25 16.608 29.25 16.125V12.625C29.25 12.142 28.858 11.75 28.375 11.75Z" fill="white" fill-opacity="0.8"/>
<path d="M32.75 13.5H31V16.125C31 17.5722 29.8223 18.75 28.375 18.75H19.625C18.1778 18.75 17 17.5722 17 16.125V13.5H15.25C14.2858 13.5 13.5 14.2858 13.5 15.25V36.25C13.5 37.2318 14.2682 38 15.25 38H32.75C33.7318 38 34.5 37.2318 34.5 36.25V15.25C34.5 14.2682 33.7318 13.5 32.75 13.5ZM23.7445 28.9945L20.2445 32.4945C20.073 32.6642 19.849 32.75 19.625 32.75C19.401 32.75 19.177 32.6642 19.0055 32.4945L17.2555 30.7445C16.9142 30.4032 16.9142 29.8485 17.2555 29.5072C17.5967 29.166 18.1515 29.166 18.4928 29.5072L19.625 30.6378L22.5055 27.7573C22.8468 27.416 23.4015 27.416 23.7428 27.7573C24.084 28.0985 24.0858 28.6515 23.7445 28.9945ZM23.7445 21.9945L20.2445 25.4945C20.073 25.6643 19.849 25.75 19.625 25.75C19.401 25.75 19.177 25.6643 19.0055 25.4945L17.2555 23.7445C16.9142 23.4032 16.9142 22.8485 17.2555 22.5072C17.5967 22.166 18.1515 22.166 18.4928 22.5072L19.625 23.6378L22.5055 20.7572C22.8468 20.416 23.4015 20.416 23.7428 20.7572C24.084 21.0985 24.0858 21.6515 23.7445 21.9945ZM30.125 31H26.625C26.142 31 25.75 30.608 25.75 30.125C25.75 29.642 26.142 29.25 26.625 29.25H30.125C30.608 29.25 31 29.642 31 30.125C31 30.608 30.608 31 30.125 31ZM30.125 24H26.625C26.142 24 25.75 23.608 25.75 23.125C25.75 22.642 26.142 22.25 26.625 22.25H30.125C30.608 22.25 31 22.642 31 23.125C31 23.608 30.608 24 30.125 24Z" fill="white"/>
</g>
<defs>
<clipPath id="clip0_22_107">
<rect width="28" height="28" fill="white" transform="translate(10 10)"/>
</clipPath>
</defs>
</svg>
