<svg width="46" height="46" viewBox="0 0 46 46" fill="none" xmlns="http://www.w3.org/2000/svg">
<circle cx="23" cy="23" r="23" fill="#C7762F"/>
<path d="M29.8768 11.9336V13.3231L12.0643 17.1933V29.3462C12.0643 29.879 12.4348 30.3421 12.9644 30.4733L17.7144 31.6341C17.8094 31.6562 17.9068 31.6678 18.0018 31.6678C18.3711 31.6678 18.7238 31.4995 18.9518 31.2035L19.2018 30.8777V27.0074L17.5244 29.1941L14.4393 28.4395V25.7614L19.2018 26.7971V24.1689C19.2018 22.2071 20.8135 20.6167 22.8018 20.6167H32.2518V11.9336H29.8768Z" fill="white"/>
<path d="M10.8765 17.188H8.50146V25.8638H10.8765V17.188Z" fill="white"/>
<g opacity="0.8">
<path d="M35.2796 24.4638L29.0789 28.8928C28.928 28.9998 28.7529 29.0533 28.5769 29.0533C28.401 29.0533 28.2259 28.9989 28.0758 28.8928L21.7233 24.356C21.6949 24.4802 21.6768 24.6087 21.6768 24.7406V31.6408C21.6768 32.5922 22.4504 33.3659 23.4018 33.3659H33.7521C34.7034 33.3659 35.4771 32.5922 35.4771 31.6408V24.7406C35.4771 24.6613 35.4642 24.5845 35.4538 24.5078C35.3952 24.494 35.3365 24.4802 35.2796 24.4638Z" fill="white"/>
<path d="M28.5772 27.1302L33.4677 23.637C33.1788 23.4498 32.9062 23.242 32.6492 23.0151H23.4021C23.2348 23.0151 23.0761 23.0471 22.9234 23.091L28.5772 27.1302Z" fill="white"/>
</g>
</svg>
