<svg width="46" height="46" viewBox="0 0 46 46" fill="none" xmlns="http://www.w3.org/2000/svg">
<circle cx="23" cy="23" r="23" fill="#FFDA00"/>
<path d="M27.2215 15.3615C25.6408 12.1339 22.3342 10 18.6252 10C13.3181 10 9.00042 14.2931 9.00042 19.5701C9.00042 21.0042 9.3083 22.3787 9.91598 23.6603L9.01634 28.159C8.90182 28.7317 9.40701 29.2379 9.9798 29.1246L14.534 28.2242C15.1472 28.515 15.7816 28.7362 16.4334 28.8887C14.9723 21.9686 20.2176 15.473 27.2215 15.3615Z" fill="white" fill-opacity="0.8"/>
<path d="M36.0843 30.6604C36.2415 30.329 36.3781 29.9912 36.495 29.648H36.465C38.5129 23.637 34.2062 17.3194 27.8483 17.0118C27.8482 17.0115 27.8481 17.0112 27.848 17.0109C22.3774 16.7587 17.8323 21.1389 17.8323 26.5702C17.8323 31.8427 22.1176 36.1325 27.3884 36.1401C28.818 36.1382 30.1884 35.8304 31.4662 35.2243C36.454 36.2104 36.065 36.1403 36.1795 36.1403C36.6979 36.1403 37.0852 35.6653 36.9839 35.1592L36.0843 30.6604Z" fill="white"/>
</svg>
