<svg width="59" height="59" viewBox="0 0 59 59" fill="none" xmlns="http://www.w3.org/2000/svg">
<rect x="6.30347" y="6.18604" width="47.0222" height="47.0222" rx="10" fill="#C7762F"/>
<g clip-path="url(#clip0_231_207)">
<path opacity="0.8" d="M40.3045 22.8797H40.1845C39.454 17.7993 35.0846 13.8799 29.8047 13.8799C24.5248 13.8799 20.1554 17.7993 19.4249 22.8797H19.3049C17.6489 22.8797 16.3049 24.2237 16.3049 25.8796V28.8796C16.3049 30.5355 17.6489 31.8795 19.3049 31.8795H22.3048V24.3797C22.3048 20.2443 25.6692 16.8798 29.8047 16.8798C33.9401 16.8798 37.3045 20.2443 37.3045 24.3797V31.8795H40.3045C41.9604 31.8795 43.3044 30.5355 43.3044 28.8796V25.8796C43.3044 24.2222 41.9604 22.8797 40.3045 22.8797Z" fill="white"/>
<path d="M35.8044 25.8803C35.8044 22.5713 33.1135 19.8804 29.8046 19.8804C26.4956 19.8804 23.8047 22.5713 23.8047 25.8803C23.8047 29.1877 26.4956 31.8801 29.8046 31.8801C33.1135 31.8801 35.8044 29.1877 35.8044 25.8803Z" fill="white"/>
<path d="M29.8048 33.3799C22.7399 33.3799 17.805 37.0803 17.805 42.3797V43.8797H41.8045V42.3797C41.8045 37.0803 36.8696 33.3799 29.8048 33.3799Z" fill="white"/>
</g>
<defs>
<clipPath id="clip0_231_207">
<rect width="58.4399" height="58.4399" fill="white"/>
</clipPath>
</defs>
</svg>
