<svg width="46" height="47" viewBox="0 0 46 47" fill="none" xmlns="http://www.w3.org/2000/svg">
<circle cx="23" cy="23.4399" r="23" fill="#FFDA00"/>
<path d="M19.1992 11.3915C18.7398 11.5063 18.3953 11.7032 18.0453 12.0532C17.3016 12.797 17.1102 13.8907 17.5695 14.8587C17.8539 15.4657 18.6195 16.0618 19.2266 16.1603C19.3469 16.1821 19.4453 16.2149 19.4453 16.2313C19.4453 16.2532 19.2977 16.297 19.1227 16.3353C18.5758 16.4501 18.0453 16.7509 17.5859 17.2157C17.1102 17.6915 16.8695 18.1126 16.7109 18.7306C16.6125 19.1024 16.6016 19.3376 16.6016 20.6501C16.6016 22.3563 16.6234 22.4493 17.0281 22.679L17.2469 22.7993H26.4398C35.5508 22.7993 35.6383 22.7993 35.8516 22.6899C35.9937 22.6188 36.1086 22.504 36.1797 22.3618C36.2836 22.1649 36.2891 22.0446 36.2891 20.6501C36.2891 19.3376 36.2781 19.1024 36.1797 18.7306C36.0211 18.1126 35.7805 17.6915 35.3047 17.2212C34.8125 16.7235 34.3969 16.4938 33.7023 16.3243L33.1992 16.1985L33.4398 16.1603C34.0633 16.0618 34.8125 15.4712 35.1023 14.8587C35.5562 13.8907 35.3703 12.797 34.6266 12.0478C33.6531 11.0798 32.1438 11.0798 31.1703 12.0478C30.4266 12.797 30.2406 13.8907 30.6945 14.8587C30.9789 15.4657 31.7445 16.0618 32.3516 16.1603C32.4719 16.1821 32.5703 16.2149 32.5703 16.2313C32.5703 16.2532 32.4227 16.297 32.2477 16.3353C31.132 16.5649 30.0547 17.6423 29.825 18.7579C29.7867 18.9329 29.743 19.0806 29.7266 19.0806C29.7102 19.0806 29.6664 18.9329 29.6281 18.7579C29.5133 18.211 29.2125 17.6806 28.7477 17.2212C28.25 16.7235 27.8344 16.4938 27.1398 16.3243L26.6367 16.1985L26.8773 16.1603C27.2766 16.1001 27.7086 15.8595 28.0641 15.504C28.8078 14.7548 28.9937 13.661 28.5398 12.6931C28.3484 12.2884 27.8234 11.7634 27.4187 11.572C26.4508 11.1181 25.357 11.304 24.6078 12.0478C23.8641 12.797 23.6781 13.8907 24.132 14.8587C24.4164 15.4657 25.182 16.0618 25.7891 16.1603C25.9094 16.1821 26.0078 16.2149 26.0078 16.2313C26.0078 16.2532 25.8602 16.297 25.6852 16.3353C24.5695 16.5649 23.4922 17.6423 23.2625 18.7579C23.2242 18.9329 23.1805 19.0806 23.1641 19.0806C23.1477 19.0806 23.1039 18.9329 23.0656 18.7579C22.9508 18.211 22.65 17.6806 22.1852 17.2212C21.6875 16.7235 21.2719 16.4938 20.5773 16.3243L20.0742 16.1985L20.3148 16.1603C20.9383 16.0618 21.6875 15.4712 21.9773 14.8587C22.4313 13.8907 22.2453 12.797 21.5016 12.0478C20.8781 11.4298 20.025 11.1837 19.1992 11.3915Z" fill="white"/>
<path d="M27.4837 24.5324C27.2704 24.5871 26.6853 24.6254 25.515 24.6582C24.3611 24.6856 23.6939 24.7293 23.3548 24.7895C21.5283 25.1285 19.7673 25.9379 18.3509 27.0863C17.8259 27.5074 9.22356 36.1481 9.09778 36.3778C8.89544 36.7387 9.0595 37.2637 9.43685 37.466C9.61731 37.559 9.81966 37.5645 13.9595 37.5535C18.2415 37.5371 18.2908 37.5371 18.4439 37.4223C18.6025 37.3074 18.6298 37.2582 19.1658 36.1426C20.0298 34.3434 21.0197 33.3973 22.4197 33.0309C23.0431 32.8668 24.1587 32.7957 25.4329 32.8395C28.8673 32.9488 31.0384 32.2981 33.3353 30.466C34.0134 29.9246 36.7587 27.2067 36.8954 26.9442C37.1634 26.4192 36.8462 25.8613 36.1572 25.6426C35.7415 25.5113 35.4353 25.5934 34.4126 26.1238C33.297 26.6981 32.5806 27.1246 31.1751 28.0215C29.1079 29.3504 28.5283 29.5309 26.297 29.5473C25.154 29.5528 25.0775 29.5473 24.9353 29.4379C24.4267 29.0606 24.4103 28.3988 24.897 28.0707C25.0501 27.9668 25.1704 27.9559 26.2642 27.9231C28.1345 27.8629 28.654 27.7207 29.8462 26.9223C30.6447 26.3918 30.6228 26.452 30.3111 25.8067C29.8189 24.7785 28.6103 24.2317 27.4837 24.5324Z" fill="white"/>
</svg>
