<svg width="48" height="48" viewBox="0 0 48 48" fill="none" xmlns="http://www.w3.org/2000/svg">
<rect width="47.0222" height="47.0222" rx="10" fill="#EE4428"/>
<g clip-path="url(#clip0_231_286)">
<path d="M13.9999 22.9572V12.0916H31.9999V22.9572L34.9999 21.2163V9.04541H10.9999V21.2163L13.9999 22.9572Z" fill="white"/>
<path d="M27.8991 28.8466H18.1011L8.00006 22.9858V36.462C8.00006 38.1435 9.34406 39.5082 11.0001 39.5082H35.0001C36.6561 39.5082 38.0001 38.1435 38.0001 36.462V22.9858L27.8991 28.8466Z" fill="white"/>
<g opacity="0.8">
<g clip-path="url(#clip1_231_286)">
<path d="M17.69 21.5232C18.5054 21.5232 19.1684 20.8602 19.1684 20.0448C19.1684 19.2293 18.5054 18.5663 17.69 18.5663C16.8745 18.5663 16.2115 19.2293 16.2115 20.0448C16.2115 20.8602 16.8745 21.5232 17.69 21.5232ZM28.0391 21.5232C28.8545 21.5232 29.5175 20.8602 29.5175 20.0448C29.5175 19.2293 28.8545 18.5663 28.0391 18.5663C27.2236 18.5663 26.5606 19.2293 26.5606 20.0448C26.5606 20.8602 27.2236 21.5232 28.0391 21.5232ZM28.7783 22.2624H27.2998C26.8933 22.2624 26.526 22.4265 26.258 22.6921C27.1889 23.2026 27.8496 24.1244 27.9929 25.2193H29.5175C29.9264 25.2193 30.2567 24.889 30.2567 24.4801V23.7409C30.2567 22.9254 29.5937 22.2624 28.7783 22.2624ZM22.8645 22.2624C24.2944 22.2624 25.4518 21.1051 25.4518 19.6752C25.4518 18.2452 24.2944 17.0879 22.8645 17.0879C21.4346 17.0879 20.2772 18.2452 20.2772 19.6752C20.2772 21.1051 21.4346 22.2624 22.8645 22.2624ZM24.6386 23.0017H24.4469C23.9664 23.2327 23.4328 23.3713 22.8645 23.3713C22.2962 23.3713 21.7649 23.2327 21.2821 23.0017H21.0904C19.6212 23.0017 18.4292 24.1937 18.4292 25.6629V26.3282C18.4292 26.9403 18.9258 27.437 19.538 27.437H26.191C26.8032 27.437 27.2998 26.9403 27.2998 26.3282V25.6629C27.2998 24.1937 26.1078 23.0017 24.6386 23.0017ZM19.471 22.6921C19.203 22.4265 18.8357 22.2624 18.4292 22.2624H16.9507C16.1353 22.2624 15.4723 22.9254 15.4723 23.7409V24.4801C15.4723 24.889 15.8026 25.2193 16.2115 25.2193H17.7338C17.8794 24.1244 18.5401 23.2026 19.471 22.6921Z" fill="white"/>
</g>
</g>
</g>
<defs>
<clipPath id="clip0_231_286">
<rect width="36" height="36.5538" fill="white" transform="translate(5 6)"/>
</clipPath>
<clipPath id="clip1_231_286">
<rect width="14.7844" height="14.7844" fill="white" transform="translate(15.4723 14.624)"/>
</clipPath>
</defs>
</svg>
