<svg width="48" height="48" viewBox="0 0 48 48" fill="none" xmlns="http://www.w3.org/2000/svg">
<rect y="0.439941" width="47.0222" height="47.0222" rx="10" fill="#1BBD67"/>
<g clip-path="url(#clip0_23_286)">
<path opacity="0.8" d="M27.4355 21.6235C29.0937 21.6235 30.6523 22.268 31.8242 23.4399L32.9609 24.5766C33.8867 24.1723 34.7656 23.6098 35.5273 22.8481C37.7012 20.6742 38.4394 17.6156 37.748 14.8383C37.6191 14.311 36.957 14.1293 36.5703 14.516L32.2109 18.8754L28.2324 18.2133L27.5703 14.2348L31.9297 9.87541C32.3164 9.48869 32.1289 8.82658 31.5957 8.69181C28.8183 8.00627 25.7598 8.74455 23.5918 10.9125C21.9219 12.5824 21.1367 14.7856 21.1777 16.9828L25.9883 21.7934C26.4629 21.682 26.9551 21.6235 27.4355 21.6235ZM21.3476 26.4281L18.0254 23.1059L9.0957 32.0414C7.63086 33.5063 7.63086 35.8793 9.0957 37.3442C10.5605 38.809 12.9336 38.809 14.3984 37.3442L21.6406 30.102C21.1953 28.936 21.0605 27.6645 21.3476 26.4281ZM11.75 36.0961C10.9766 36.0961 10.3437 35.4633 10.3437 34.6899C10.3437 33.9106 10.9707 33.2836 11.75 33.2836C12.5293 33.2836 13.1562 33.9106 13.1562 34.6899C13.1562 35.4633 12.5293 36.0961 11.75 36.0961Z" fill="white"/>
<path d="M30.5 24.7642L37.3613 31.6255C38.2109 32.4751 38.2109 33.8579 37.3613 34.7134L34.2734 37.8013C33.4238 38.6567 32.041 38.6567 31.1855 37.8013L24.3242 30.9399C22.9707 29.5864 22.7129 27.5649 23.5098 25.936L17.2637 19.6899H13.625L8 12.1899L11.75 8.43994L19.25 14.0649V17.7036L25.4961 23.9497C27.125 23.147 29.1465 23.4106 30.5 24.7642Z" fill="white"/>
</g>
<defs>
<clipPath id="clip0_23_286">
<rect width="30" height="30" fill="white" transform="translate(8 8.43994)"/>
</clipPath>
</defs>
</svg>
