<svg width="46" height="47" viewBox="0 0 46 47" fill="none" xmlns="http://www.w3.org/2000/svg">
<circle cx="23" cy="23.4399" r="23" fill="#FFDA00"/>
<g clip-path="url(#clip0_4_3724)">
<path d="M22.5425 10.5212C21.6284 10.7142 20.7296 11.42 20.3132 12.2681C19.9425 13.0298 19.9527 12.8063 19.9527 18.504C19.9527 23.506 19.9527 23.5974 20.0542 23.7954C20.171 24.029 20.4656 24.2017 20.7347 24.2017C20.8617 24.2017 21.3492 23.9833 22.441 23.4399L23.9644 22.6782H28.4992C33.5722 22.6782 33.4148 22.6884 34.1714 22.3177C35.0296 21.8962 35.7304 20.9974 35.9234 20.063C36.0351 19.5399 36.0351 13.5782 35.9234 13.0552C35.6695 11.8364 34.6031 10.77 33.3843 10.5161C32.8714 10.4095 23.0452 10.4095 22.5425 10.5212ZM32.4957 14.4009C32.7242 14.5177 32.9019 14.8071 32.9019 15.061C32.9019 15.3149 32.7242 15.6044 32.4957 15.7212C32.3027 15.8228 32.2062 15.8228 27.971 15.8228H23.6495L23.4464 15.711C22.9335 15.4216 22.9285 14.7259 23.4363 14.4212L23.6343 14.2993H27.966C32.2062 14.2993 32.3027 14.2993 32.4957 14.4009ZM32.4957 17.4478C32.7242 17.5646 32.9019 17.854 32.9019 18.1079C32.9019 18.3618 32.7242 18.6513 32.4957 18.7681C32.3027 18.8696 32.2062 18.8696 27.971 18.8696H23.6495L23.4464 18.7579C22.9335 18.4685 22.9285 17.7728 23.4363 17.4681L23.6343 17.3462H27.966C32.2062 17.3462 32.3027 17.3462 32.4957 17.4478Z" fill="white" fill-opacity="0.6"/>
<path d="M11.8019 15.1324C11.3754 15.239 11.0554 15.4218 10.7304 15.7468C9.85192 16.6253 9.82653 17.971 10.6746 18.9003C10.8168 19.0578 11.0453 19.2304 11.2433 19.332L11.5734 19.5046V21.1246C11.5734 22.5972 11.5785 22.7394 11.6547 22.7089C11.7004 22.6886 11.8324 22.6531 11.9492 22.6226C12.1523 22.5718 12.1777 22.5464 12.3554 22.1859C12.4621 21.9726 12.6703 21.6121 12.8226 21.3835L13.0968 20.9722V20.2359V19.5046L13.366 19.3777C13.691 19.2253 14.1988 18.7277 14.3613 18.3976C14.8132 17.4632 14.6558 16.4628 13.9347 15.7418C13.366 15.1679 12.5687 14.9394 11.8019 15.1324Z" fill="white"/>
<path d="M17.9777 19.7193C15.8957 20.0443 14.0879 21.5881 13.4023 23.6346C13.118 24.4928 13.0977 24.7467 13.0977 28.0373C13.0977 31.3279 13.118 31.5818 13.4023 32.44C13.702 33.3287 14.1539 34.0549 14.8191 34.7201C15.7281 35.624 16.825 36.1775 18.059 36.3654C18.7953 36.4771 27.2047 36.4771 27.941 36.3654C29.1801 36.1775 30.2871 35.6139 31.1809 34.7201C32.0848 33.8111 32.6383 32.7143 32.8262 31.4803C32.9227 30.8354 32.9328 25.2799 32.8363 24.635L32.7754 24.2287L28.5504 24.2135L24.3254 24.2033L22.9137 24.9041C21.9742 25.3713 21.4004 25.6252 21.2023 25.6658C20.0648 25.8943 19.034 25.3408 18.5719 24.249C18.4602 23.9799 18.4551 23.9189 18.4297 21.8166L18.4043 19.6533L17.9777 19.7193ZM19.5469 25.8283C19.9023 26.0111 19.9531 26.1838 19.9531 27.2502C19.9531 28.3166 19.9023 28.4893 19.5469 28.6721C19.2879 28.8041 19.0746 28.799 18.8258 28.6619C18.4703 28.4588 18.4297 28.3115 18.4297 27.24C18.4348 26.1787 18.4703 26.0568 18.8156 25.8486C19.0594 25.7014 19.2828 25.6963 19.5469 25.8283ZM27.1641 25.8283C27.5195 26.0111 27.5703 26.1838 27.5703 27.2502C27.5703 28.3166 27.5195 28.4893 27.1641 28.6721C26.9051 28.8041 26.6918 28.799 26.443 28.6619C26.0875 28.4588 26.0469 28.3115 26.0469 27.24C26.052 26.1787 26.0875 26.0568 26.4328 25.8486C26.6766 25.7014 26.9 25.6963 27.1641 25.8283ZM24.8789 30.3986C25.1074 30.5154 25.2852 30.8049 25.2852 31.0588C25.2852 31.3127 25.1074 31.6021 24.8789 31.7189C24.691 31.8154 24.5844 31.8205 22.9949 31.8205C21.3445 31.8205 21.309 31.8205 21.1109 31.7088C20.598 31.4193 20.593 30.7236 21.1008 30.4189C21.2988 30.2971 21.3039 30.2971 22.9898 30.2971C24.5844 30.2971 24.691 30.3021 24.8789 30.3986Z" fill="white"/>
<path d="M11.2695 24.4454C10.9191 24.613 10.4113 25.1157 10.259 25.4357C10.0152 25.9384 10 26.0958 10 28.0103C10 29.9247 10.0152 30.0821 10.259 30.5849C10.4164 30.9149 10.9242 31.4075 11.2797 31.5802C11.4371 31.6563 11.5895 31.7173 11.6148 31.7173C11.6402 31.7173 11.6402 31.5599 11.6148 31.3517C11.559 30.8896 11.5844 24.5165 11.6453 24.3896C11.7063 24.2677 11.6047 24.2778 11.2695 24.4454Z" fill="white"/>
<path d="M34.3544 24.3896C34.4154 24.5114 34.4408 30.8896 34.3849 31.3466C34.3595 31.5599 34.3595 31.7173 34.3849 31.7173C34.5119 31.7173 35.0349 31.4075 35.2685 31.1993C35.5681 30.9251 35.8575 30.4071 35.9439 30.0009C36.02 29.6353 36.02 26.3802 35.9439 26.0196C35.8525 25.5778 35.6493 25.2173 35.3193 24.8872C34.9283 24.5013 34.2376 24.1458 34.3544 24.3896Z" fill="white"/>
</g>
<defs>
<clipPath id="clip0_4_3724">
<rect width="26" height="26" fill="white" transform="translate(10 10.4399)"/>
</clipPath>
</defs>
</svg>
