<svg width="46" height="46" viewBox="0 0 46 46" fill="none" xmlns="http://www.w3.org/2000/svg">
<circle cx="23" cy="23" r="23" fill="#27A0EC"/>
<path opacity="0.6" d="M14.248 15.3457V19.6914H16.4453H18.6426L19.8242 21.1074L21.001 22.5234H24.5361H28.0664V16.7617V11H21.1572H14.248V15.3457ZM24.8926 14.8574V15.5898H21.3037H17.7148V14.8574V14.125H21.3037H24.8926V14.8574ZM24.8926 17.7871V18.5195H21.3037H17.7148V17.7871V17.0547H21.3037H24.8926V17.7871Z" fill="white"/>
<path opacity="0.6" d="M29.5801 17.4697V22.5234H30.459H31.3379L31.3281 17.4795L31.3135 12.4404L30.4492 12.4258L29.5801 12.416V17.4697Z" fill="white"/>
<path d="M11.3672 28.5781V36H22.5H33.6328V29.9941V23.9883H26.9727H20.3125L19.1309 22.5723L17.9492 21.1562H14.6582H11.3672V28.5781ZM31.1426 30.3359V31.0684H28.7256H26.3086V30.3359V29.6035H28.7256H31.1426V30.3359ZM31.1426 32.7773V33.5098H28.7256H26.3086V32.7773V32.0449H28.7256H31.1426V32.7773Z" fill="white"/>
</svg>
