<svg width="48" height="48" viewBox="0 0 48 48" fill="none" xmlns="http://www.w3.org/2000/svg">
<rect width="47.0222" height="47.0222" rx="10" fill="#FFDA00"/>
<path d="M11.5377 27.2876C11.5377 27.3251 11.5127 27.3751 11.5127 27.4126C12.6627 29.7126 14.5377 31.6001 16.8377 32.7376C16.8752 32.7376 16.9252 32.7126 16.9627 32.7126C16.5377 31.2626 16.2127 29.7751 15.9752 28.2876C14.4752 28.0376 12.9877 27.7126 11.5377 27.2876Z" fill="white"/>
<path d="M32.8376 17.0373C31.6626 14.5748 29.6751 12.5873 27.2251 11.4248C27.6751 12.9123 28.0501 14.4373 28.3001 15.9623C29.8251 16.2123 31.3501 16.5748 32.8376 17.0373Z" fill="white"/>
<path d="M11.4126 17.0374C12.9126 16.5874 14.4376 16.2124 15.9626 15.9624C16.2126 14.4749 16.5251 12.9999 16.9501 11.5499C16.9126 11.5499 16.8626 11.5249 16.8251 11.5249C14.4751 12.6874 12.5626 14.6499 11.4126 17.0374Z" fill="white"/>
<path d="M26.2751 15.6998C25.9751 14.0748 25.6001 12.4498 25.0626 10.8748C25.0376 10.7873 25.0376 10.7123 25.0251 10.6123C24.1001 10.3873 23.1251 10.2373 22.1251 10.2373C21.1126 10.2373 20.1501 10.3748 19.2126 10.6123C19.2001 10.6998 19.2126 10.7748 19.1876 10.8748C18.6626 12.4498 18.2751 14.0748 17.9751 15.6998C20.7376 15.3998 23.5126 15.3998 26.2751 15.6998Z" fill="white"/>
<path d="M15.6998 17.9751C14.0623 18.2751 12.4498 18.6501 10.8748 19.1876C10.7873 19.2126 10.7123 19.2126 10.6123 19.2251C10.3873 20.1501 10.2373 21.1251 10.2373 22.1251C10.2373 23.1376 10.3748 24.1001 10.6123 25.0376C10.6998 25.0501 10.7748 25.0376 10.8748 25.0626C12.4498 25.5876 14.0623 25.9751 15.6998 26.2751C15.3998 23.5126 15.3998 20.7376 15.6998 17.9751Z" fill="white"/>
<path d="M33.6567 18.905C33.5767 18.905 33.508 18.8959 33.4165 18.8778C31.9748 18.4977 30.4874 18.2172 29 18C29.286 20 29.286 22.0091 29 24C30.4874 23.7828 31.9748 23.5113 33.4165 23.1222C33.4966 23.1041 33.5652 23.1131 33.6567 23.1041C33.8627 22.4253 34 21.7285 34 20.9955C34 20.2805 33.8741 19.5837 33.6567 18.905Z" fill="white"/>
<path d="M17.9751 28.5498C18.2751 30.1873 18.6501 31.7998 19.1876 33.3748C19.2126 33.4623 19.2001 33.5373 19.2126 33.6373C20.1501 33.8623 21.1126 34.0123 22.1251 34.0123C23.1251 34.0123 24.1001 33.8748 25.0251 33.6373C25.0376 33.5498 25.0376 33.4748 25.0626 33.3748C25.5876 31.7998 25.9751 30.1873 26.2751 28.5498C24.9001 28.6998 23.5126 28.8123 22.1251 28.8123C20.7376 28.7998 19.3501 28.6998 17.9751 28.5498Z" fill="white"/>
<path d="M17.6875 17.6875C17.3125 20.6375 17.3125 23.6125 17.6875 26.575C20.6375 26.95 23.6125 26.95 26.575 26.575C26.95 23.625 26.95 20.65 26.575 17.6875C23.6125 17.3125 20.6375 17.3125 17.6875 17.6875Z" fill="white"/>
<path opacity="0.6" d="M31.5 31C32.8807 31 34 29.8807 34 28.5C34 27.1193 32.8807 26 31.5 26C30.1193 26 29 27.1193 29 28.5C29 29.8807 30.1193 31 31.5 31Z" fill="white"/>
<path opacity="0.6" d="M28 36V33.6667C28 32.746 28.9215 32 30.0588 32H32.9412C34.0785 32 35 32.746 35 33.6667V36H28Z" fill="white"/>
</svg>
