<svg width="48" height="48" viewBox="0 0 48 48" fill="none" xmlns="http://www.w3.org/2000/svg">
<rect width="47.0222" height="47.0222" rx="10" fill="#EE4428"/>
<path d="M37.6911 20.577L36.2619 26.6729C35.0369 31.9375 32.6161 34.0666 28.0661 33.6291C27.3369 33.5708 26.5494 33.4395 25.7036 33.2354L23.2536 32.652C17.1724 31.2083 15.2911 28.2041 16.7203 22.1083L18.1494 15.9979C18.4411 14.7583 18.7911 13.6791 19.2286 12.7895C20.9349 9.26038 23.8369 8.31246 28.7078 9.46454L31.1432 10.0333C37.2536 11.4625 39.1203 14.4812 37.6911 20.577Z" fill="white"/>
<path d="M28.0663 33.6289C27.1621 34.2414 26.0246 34.7518 24.6392 35.2039L22.335 35.9622C16.5454 37.8289 13.4975 36.2685 11.6163 30.4789L9.7496 24.7185C7.88294 18.9289 9.42877 15.8664 15.2184 13.9997L17.5225 13.2414C18.1204 13.0518 18.6892 12.8914 19.2288 12.7893C18.7913 13.6789 18.4413 14.7581 18.1496 15.9976L16.7204 22.1081C15.2913 28.2039 17.1725 31.2081 23.2538 32.6518L25.7038 33.2351C26.5496 33.4393 27.3371 33.5706 28.0663 33.6289Z" fill="white" fill-opacity="0.8"/>
<path opacity="0.4" d="M31.61 20.6791C31.5225 20.6791 31.435 20.6645 31.3329 20.6499L24.26 18.8561C23.6767 18.7103 23.3267 18.1124 23.4725 17.5291C23.6183 16.9457 24.2163 16.5957 24.7996 16.7416L31.8725 18.5353C32.4558 18.6811 32.8058 19.2791 32.66 19.8624C32.5433 20.3436 32.0913 20.6791 31.61 20.6791Z" fill="#EE4428"/>
<path opacity="0.4" d="M27.337 25.608C27.2495 25.608 27.162 25.5934 27.0599 25.5789L22.8162 24.4997C22.2328 24.3539 21.8828 23.7559 22.0287 23.1726C22.1745 22.5893 22.7724 22.2393 23.3557 22.3851L27.5995 23.4643C28.1828 23.6101 28.5328 24.208 28.387 24.7914C28.2703 25.2872 27.8328 25.608 27.337 25.608Z" fill="#EE4428"/>
</svg>
