<svg width="46" height="46" viewBox="0 0 46 46" fill="none" xmlns="http://www.w3.org/2000/svg">
<circle cx="23" cy="23" r="23" fill="#1DB054"/>
<path d="M29.6123 13.175L29.5248 17.9125C29.5123 18.5625 29.9249 19.425 30.4499 19.8125L33.5498 22.1625C35.5373 23.6625 35.2123 25.5 32.8373 26.25L28.7999 27.5125C28.1249 27.725 27.4124 28.4625 27.2374 29.15L26.2748 32.825C25.5123 35.725 23.6123 36.0125 22.0373 33.4625L19.8373 29.9C19.4373 29.25 18.4873 28.7625 17.7373 28.8L13.5624 29.0125C10.5749 29.1625 9.72485 27.4375 11.6748 25.1625L14.1498 22.2875C14.6123 21.75 14.8248 20.75 14.6123 20.075L13.3499 16.0375C12.6124 13.6625 13.9374 12.35 16.2999 13.125L19.9874 14.3375C20.6124 14.5375 21.5499 14.4 22.0749 14.0125L25.9249 11.2375C27.9999 9.73747 29.6623 10.6125 29.6123 13.175Z" fill="white"/>
<path opacity="0.4" d="M34.7999 33.5874L31.0124 29.8C30.6499 29.4375 30.0499 29.4375 29.6874 29.8C29.3249 30.1625 29.3249 30.7624 29.6874 31.1249L33.4749 34.9124C33.6624 35.0999 33.8999 35.1874 34.1374 35.1874C34.3749 35.1874 34.6124 35.0999 34.7999 34.9124C35.1624 34.5499 35.1624 33.9499 34.7999 33.5874Z" fill="white"/>
</svg>
