<svg width="46" height="46" viewBox="0 0 46 46" fill="none" xmlns="http://www.w3.org/2000/svg">
<circle cx="23" cy="23" r="23" fill="#C7762F"/>
<path opacity="0.6" d="M22.1953 10.047L21.4242 11.105L20.1555 11.5106L18.8867 11.9217L19.6852 13.0181L20.4836 14.1144V15.4355V16.7566L21.7469 16.3509L23.0047 15.9398L24.2625 16.3509L25.5148 16.7566V15.4355V14.1144L26.3133 13.0181L27.1117 11.9217L25.843 11.5106L24.5688 11.0995L23.8141 10.0579C23.3984 9.48785 23.0375 9.01094 23.0102 8.99998C22.9828 8.9945 22.6164 9.46044 22.1953 10.047Z" fill="white"/>
<path d="M19.7188 27.2973V33.7109H23H26.2812V27.2973V20.8837H23H19.7188V27.2973Z" fill="white"/>
<path d="M11.5703 28.8596V33.7109H14.8242H18.0781V28.8596V24.0083H14.8242H11.5703V28.8596Z" fill="white"/>
<path d="M27.9219 29.8463V33.7109H31.1758H34.4297V29.8463V25.9817H31.1758H27.9219V29.8463Z" fill="white"/>
<path opacity="0.6" d="M9 36.1777V37H23H37V36.1777V35.3555H23H9V36.1777Z" fill="white"/>
</svg>
