<svg width="25" height="25" viewBox="0 0 25 25" fill="none" xmlns="http://www.w3.org/2000/svg">
<path d="M21.3379 14.6484H13.2324V12.4951H15.4297C17.5976 11.4111 19.0918 9.16992 19.0918 6.5918C19.0918 2.95894 16.1328 0 12.5 0C8.86724 0 5.9082 2.95894 5.9082 6.5918C5.9082 9.16992 7.40239 11.4111 9.57031 12.4951H11.7676V14.6484H3.66211C3.25728 14.6484 2.92969 14.976 2.92969 15.3809V18.4082C2.92969 18.813 3.25728 19.1406 3.66211 19.1406C4.06694 19.1406 4.39453 18.813 4.39453 18.4082V16.1133H11.7676V18.4082C11.7676 18.813 12.0952 19.1406 12.5 19.1406C12.9048 19.1406 13.2324 18.813 13.2324 18.4082V16.1133H20.6055V18.4082C20.6055 18.813 20.9331 19.1406 21.3379 19.1406C21.7427 19.1406 22.0703 18.813 22.0703 18.4082V15.3809C22.0703 14.976 21.7427 14.6484 21.3379 14.6484Z" fill="url(#paint0_linear)"/>
<path d="M14.6973 5.85938C14.6973 4.64775 13.7116 3.66211 12.5 3.66211C11.2884 3.66211 10.3027 4.64775 10.3027 5.85938C10.3027 7.071 11.2884 8.05664 12.5 8.05664C13.7116 8.05664 14.6973 7.071 14.6973 5.85938ZM15.4297 12.4951V9.52148C15.4297 8.71582 14.7706 8.05664 13.9648 8.05664H12.5H11.0352C10.2294 8.05664 9.57031 8.71582 9.57031 9.52148V12.4951C10.4492 12.9345 11.4454 13.1836 12.5 13.1836C13.5546 13.1836 14.5508 12.9345 15.4297 12.4951ZM3.66211 17.6758C1.64224 17.6758 0 19.3187 0 21.3379C0 23.3571 1.64224 25 3.66211 25C5.68198 25 7.32422 23.3571 7.32422 21.3379C7.32422 19.3187 5.68198 17.6758 3.66211 17.6758ZM12.5 17.6758C10.4801 17.6758 8.83789 19.3187 8.83789 21.3379C8.83789 23.3571 10.4801 25 12.5 25C14.5199 25 16.1621 23.3571 16.1621 21.3379C16.1621 19.3187 14.5199 17.6758 12.5 17.6758ZM21.3379 17.6758C19.318 17.6758 17.6758 19.3187 17.6758 21.3379C17.6758 23.3571 19.318 25 21.3379 25C23.3578 25 25 23.3571 25 21.3379C25 19.3187 23.3578 17.6758 21.3379 17.6758Z" fill="url(#paint1_linear)"/>
<defs>
<linearGradient id="paint0_linear" x1="12.5" y1="19.1406" x2="12.5" y2="0" gradientUnits="userSpaceOnUse">
<stop stop-color="#FD3A84"/>
<stop offset="1" stop-color="#FFA68D"/>
</linearGradient>
<linearGradient id="paint1_linear" x1="12.5" y1="25" x2="12.5" y2="3.66211" gradientUnits="userSpaceOnUse">
<stop stop-color="#FFC2CC"/>
<stop offset="1" stop-color="#FFF2F4"/>
</linearGradient>
</defs>
</svg>
