<svg width="46" height="46" viewBox="0 0 46 46" fill="none" xmlns="http://www.w3.org/2000/svg">
<circle cx="23" cy="23" r="23" fill="#EE4428"/>
<path d="M13.6242 11.041C12.8777 11.2495 12.2683 11.8646 12.0702 12.617C12.0144 12.8305 11.9991 14.5692 11.9991 22.8914C11.9991 33.8572 11.9839 33.2167 12.2886 33.7454C12.4765 34.0606 12.8523 34.4266 13.1468 34.5741C13.2839 34.6402 14.9242 35.2095 16.798 35.8349L20.2004 36.9736H20.6575C21.2161 36.9736 21.5309 36.872 21.9524 36.5618C22.2926 36.3127 22.5669 35.9365 22.7141 35.5095C22.7954 35.2756 22.8157 35.0926 22.8157 34.4826V33.7454H24.6083C26.6497 33.7454 26.8529 33.72 27.5384 33.3845C28.3611 32.9828 29.0263 32.144 29.2345 31.2543C29.3513 30.7612 29.3513 26.0027 29.2396 25.7231C28.8994 24.9097 27.7212 24.8589 27.2947 25.6367C27.2185 25.7689 27.2032 26.0892 27.1829 28.2803L27.1575 30.7714L27.0306 31.0001C26.9595 31.1221 26.8021 31.295 26.6853 31.3814L26.4618 31.5339L24.6388 31.5492L22.8157 31.5644L22.8055 23.1609L22.7903 14.7573L22.6278 14.4167C22.3637 13.8575 22.0083 13.527 21.3989 13.2728L21.1145 13.1559L23.7907 13.1712L26.4618 13.1813L26.6853 13.3338C26.8021 13.4203 26.9595 13.5931 27.0306 13.7151L27.1575 13.9439L27.1829 15.9012C27.2083 17.8178 27.2083 17.8635 27.32 18.0415C27.3861 18.1431 27.5333 18.2906 27.6501 18.3719C27.838 18.5041 27.904 18.5193 28.2494 18.5193C28.5896 18.5193 28.6607 18.5041 28.8384 18.3821C28.9451 18.3058 29.0923 18.1584 29.1634 18.0516L29.2904 17.8635L29.3056 15.8452C29.3209 13.5677 29.3056 13.4304 28.9705 12.7492C28.6962 12.19 28.1173 11.6155 27.5384 11.3308C26.7665 10.9546 27.1322 10.9699 20.1243 10.9749C15.2644 10.98 13.8019 10.9953 13.6242 11.041Z" fill="white"/>
<path d="M32.1339 16.5068C31.8749 16.6237 31.621 16.9084 31.5549 17.1575C31.5194 17.2745 31.4991 18.0167 31.4991 19.0386V20.7315H29.2241H26.949L26.6799 20.8637C26.2228 21.0924 25.9994 21.5754 26.1213 22.0736C26.2025 22.4142 26.5529 22.7752 26.8881 22.8565C27.0506 22.8972 27.8072 22.9175 29.3104 22.9175H31.4991V24.6003C31.4991 25.7899 31.5194 26.3491 31.56 26.4965C31.687 26.9083 32.1593 27.2388 32.6214 27.2388C33.0276 27.2337 33.1647 27.1168 35.5007 24.7833C37.8418 22.4447 37.9992 22.2566 37.9992 21.8601C37.9992 21.3771 38.0296 21.4127 35.5667 18.9369C34.0382 17.4066 33.18 16.578 33.0429 16.5119C32.7839 16.3848 32.403 16.3848 32.1339 16.5068Z" fill="white" fill-opacity="0.8"/>
</svg>
