<svg width="46" height="46" viewBox="0 0 46 46" fill="none" xmlns="http://www.w3.org/2000/svg">
<circle cx="23" cy="23" r="23" fill="#27A0EC"/>
<path d="M16.4657 7.03825C16.1417 7.09294 15.6255 7.29528 15.329 7.48669C14.5163 8.01716 14.0276 8.84295 13.9562 9.82732L13.9232 10.2812H12.6108C11.4027 10.2812 11.2819 10.2922 11.0842 10.3906C10.8261 10.5219 10.6449 10.8336 10.6449 11.1562V11.375H10.1507C9.53568 11.375 9.27759 11.4844 9.10736 11.8125C8.97007 12.0859 8.97007 12.3047 9.10736 12.5781C9.27759 12.9062 9.53568 13.0156 10.1507 13.0156H10.6449V13.2344C10.6449 13.557 10.8261 13.8687 11.0842 14C11.2819 14.0984 11.4027 14.1094 12.6218 14.1094H13.9397V12.1953V10.2812H14.7634H15.5871V12.1953V14.1094H22.1767H28.7662V12.1953V10.2812H22.1767H15.5871V10.0461C15.5871 9.67967 15.7408 9.30232 15.9989 9.05076C16.4163 8.63513 16.3449 8.6406 19.9637 8.6406C23.0662 8.6406 23.1761 8.63513 23.3847 8.53122C23.6318 8.40544 23.824 8.09372 23.824 7.82028C23.824 7.54685 23.6318 7.23513 23.3847 7.10934C23.1761 7.00544 23.0772 6.99997 19.8868 7.00544C18.0801 7.01091 16.5426 7.02731 16.4657 7.03825Z" fill="white" fill-opacity="0.8"/>
<path d="M30.4141 12.1954V14.1204L31.9956 14.093C33.4178 14.0766 33.61 14.0602 33.9779 13.9508C34.4831 13.8032 35.0981 13.5024 35.466 13.2235C35.7077 13.043 35.7791 13.0157 36.0481 13.0157C36.449 13.0157 36.7455 12.8625 36.8938 12.5782C37.2068 11.9711 36.784 11.375 36.0481 11.375C35.7791 11.375 35.7077 11.3477 35.4551 11.1563C35.0817 10.8719 34.4996 10.593 33.9834 10.4399C33.61 10.3305 33.4178 10.3141 31.9956 10.2977L30.4141 10.2703V12.1954Z" fill="white" fill-opacity="0.8"/>
<path d="M22.1762 17.4174V19.0854H17.8381C13.5933 19.0854 13.489 19.0854 13.2803 19.1948C13.1375 19.2659 13.0222 19.3807 12.9508 19.5229C12.8465 19.7253 12.841 19.8401 12.841 21.694V23.6518L12.5554 23.7831C12.1985 23.9471 11.6439 24.4886 11.4736 24.844C10.9849 25.8558 11.1552 26.9276 11.9349 27.6987C13.0991 28.8636 15.065 28.5792 15.8228 27.1409C16.2236 26.3643 16.2346 25.6261 15.8557 24.844C15.6745 24.4831 15.1309 23.9471 14.7794 23.7831L14.4884 23.6518V22.1917V20.726H18.3323H22.1762V22.1917V23.6518L21.8906 23.7831C21.5337 23.9471 20.9791 24.4886 20.8089 24.844C20.3201 25.8558 20.4904 26.9276 21.2701 27.6987C22.4343 28.8636 24.4002 28.5792 25.158 27.1409C25.5588 26.3643 25.5698 25.6261 25.1909 24.844C25.0097 24.4831 24.4661 23.9471 24.1146 23.7831L23.8236 23.6518V22.1917V20.726H27.6675H31.5114V22.1917V23.6518L31.2259 23.7831C30.8689 23.9471 30.3143 24.4886 30.1441 24.844C29.6553 25.8558 29.8256 26.9276 30.6053 27.6987C31.7695 28.8636 33.7354 28.5792 34.4932 27.1409C34.894 26.3643 34.905 25.6261 34.5261 24.844C34.3449 24.4831 33.8013 23.9471 33.4498 23.7831L33.1588 23.6518V21.694C33.1588 19.8401 33.1533 19.7253 33.049 19.5229C32.9776 19.3807 32.8623 19.2659 32.7195 19.1948C32.5108 19.0854 32.4065 19.0854 28.1617 19.0854H23.8236V17.4174V15.7495H22.9999H22.1762V17.4174Z" fill="white"/>
<path d="M10.859 29.3781C10.0957 29.9304 9.48616 30.8109 9.18414 31.8117C9.05784 32.2328 9.03587 32.4133 9.01391 33.3101C8.98645 34.2672 8.99194 34.3383 9.10177 34.5516C9.17865 34.7047 9.29397 34.8195 9.43674 34.8906C9.64541 34.9945 9.75523 35 13.1653 35H16.6743L16.7017 33.5945C16.7292 32.0305 16.7786 31.7133 17.1026 30.8711C17.2124 30.5976 17.3113 30.3406 17.3222 30.2914C17.3552 30.1875 16.6578 29.4601 16.3723 29.3015C16.213 29.2086 16.202 29.214 16.0043 29.3453C15.6803 29.564 15.2136 29.7828 14.7633 29.9195C14.2197 30.089 13.1708 30.1 12.6217 29.9469C12.2153 29.832 11.5838 29.5312 11.3203 29.3343C11.2269 29.2633 11.1336 29.2031 11.1226 29.2031C11.1116 29.2031 10.9908 29.2797 10.859 29.3781Z" fill="white"/>
<path d="M20.1938 29.3781C19.4305 29.925 18.821 30.8109 18.519 31.8117C18.3762 32.2656 18.3707 32.375 18.3433 33.6437L18.3213 35H22.9999H27.6785L27.6565 33.6437C27.629 32.375 27.6236 32.2656 27.4808 31.8117C27.316 31.2594 27.1458 30.9039 26.8273 30.4336C26.5802 30.0781 25.9652 29.4492 25.7071 29.3015C25.5533 29.214 25.5478 29.214 25.1689 29.4492C24.9603 29.5804 24.5539 29.7664 24.2684 29.8648C23.7796 30.0289 23.6863 30.0453 23.0273 30.0453C22.4892 30.0453 22.2256 30.0234 21.9565 29.9469C21.5557 29.8265 20.9187 29.5312 20.6551 29.3343C20.5617 29.2633 20.4684 29.2031 20.4574 29.2031C20.4464 29.2031 20.3256 29.2797 20.1938 29.3781Z" fill="white"/>
<path d="M29.5289 29.3781C29.1555 29.6461 28.6448 30.1929 28.6778 30.2914C28.6943 30.3406 28.7876 30.5976 28.8974 30.8711C29.2214 31.7133 29.2708 32.0305 29.2983 33.5891L29.3258 35H32.8347C36.2448 35 36.3546 34.9945 36.5633 34.8906C36.7061 34.8195 36.8214 34.7047 36.8983 34.5516C37.0081 34.3383 37.0136 34.2672 36.9861 33.3101C36.9642 32.4133 36.9422 32.2328 36.8159 31.8117C36.6512 31.2648 36.4809 30.9039 36.1624 30.4336C35.9153 30.0781 35.3003 29.4492 35.0422 29.3015C34.883 29.2086 34.872 29.214 34.6743 29.3453C34.3503 29.564 33.8835 29.7828 33.4333 29.9195C32.8896 30.089 31.8408 30.1 31.2916 29.9469C30.8853 29.832 30.2538 29.5312 29.9902 29.3343C29.8969 29.2633 29.8035 29.2031 29.7925 29.2031C29.7815 29.2031 29.6607 29.2797 29.5289 29.3781Z" fill="white"/>
</svg>
