<svg width="48" height="48" viewBox="0 0 48 48" fill="none" xmlns="http://www.w3.org/2000/svg">
<rect width="47.0222" height="47.0222" rx="10" fill="#EE4428"/>
<g clip-path="url(#clip0_4_3355)">
<path d="M13.587 30.0598C13.587 29.2303 13.2657 28.5598 12.8697 28.5598H10.7169C10.3209 28.5598 9.99951 29.2303 9.99951 30.0598V33.0598C9.99951 33.8893 10.3209 34.5598 10.7169 34.5598H12.869C13.2649 34.5598 13.5863 33.8893 13.5863 33.0598V30.0598H13.587Z" fill="white" fill-opacity="0.8"/>
<path d="M19.7369 20.9237C19.7369 20.1696 19.4155 19.5601 19.0194 19.5601H16.8669C16.4709 19.5601 16.1494 20.1696 16.1494 20.9237V33.1964C16.1494 33.9505 16.4709 34.56 16.8669 34.56H19.0194C19.4155 34.56 19.7369 33.9505 19.7369 33.1964V20.9237Z" fill="white" fill-opacity="0.8"/>
<path d="M25.8873 11.8932C25.8873 11.1558 25.5659 10.5598 25.1698 10.5598H23.0173C22.6213 10.5598 22.2998 11.1558 22.2998 11.8932V33.2264C22.2998 33.9638 22.6213 34.5598 23.0173 34.5598H25.1698C25.5659 34.5598 25.8873 33.9638 25.8873 33.2264V11.8932Z" fill="white" fill-opacity="0.8"/>
<path d="M32.5519 17.6102C34.6196 17.6102 36.2958 15.934 36.2958 13.8664C36.2958 11.7987 34.6196 10.1226 32.5519 10.1226C30.4843 10.1226 28.8081 11.7987 28.8081 13.8664C28.8081 15.934 30.4843 17.6102 32.5519 17.6102Z" fill="white"/>
<path d="M32.6003 17.6101C30.057 17.6101 27.9878 20.4092 27.9878 23.8498V27.5936C27.9878 28.2825 28.4011 28.8416 28.9103 28.8416H29.8328V33.8333C29.8328 34.5222 30.2461 35.0813 30.7553 35.0813H34.4453C34.9546 35.0813 35.3678 34.5222 35.3678 33.8333V28.8416H36.2903C36.7996 28.8416 37.2128 28.2825 37.2128 27.5936V23.8498C37.2128 20.4092 35.1437 17.6101 32.6003 17.6101Z" fill="white"/>
</g>
<defs>
<clipPath id="clip0_4_3355">
<rect width="30" height="30" fill="white" transform="translate(7 7.56006)"/>
</clipPath>
</defs>
</svg>
