<svg width="46" height="46" viewBox="0 0 46 46" fill="none" xmlns="http://www.w3.org/2000/svg">
<circle cx="23" cy="23" r="23" fill="#EE4428"/>
<g clip-path="url(#clip0_23_372)">
<path d="M33.5665 25.5C32.4426 30.5025 28.0342 34.25 22.7726 34.25C17.7807 34.25 13.5532 30.88 12.1719 26.2638L15.3862 23H7.99988V30.5L10.249 28.2163C12.2778 33.2175 17.1245 36.75 22.7726 36.75C29.3982 36.75 34.917 31.89 36.0791 25.5H33.5665Z" fill="white"/>
<path d="M35.2966 17.7838C33.2678 12.7838 28.4212 9.25 22.7731 9.25C16.1475 9.25 10.6286 14.11 9.46652 20.5H11.9791C13.1031 15.4975 17.5115 11.75 22.7731 11.75C27.765 11.75 31.9925 15.12 33.3737 19.7375L30.1594 23H37.5458V15.5L35.2966 17.7838Z" fill="white"/>
<g clip-path="url(#clip1_23_372)">
<path opacity="0.8" d="M22.1571 20.68V16.9868H19.695C19.4894 16.9868 19.2974 17.0902 19.1829 17.2613L16.9036 20.68H22.1571Z" fill="white"/>
<path opacity="0.8" d="M28.6418 20.68L26.3624 17.2613C26.248 17.0902 26.0559 16.9868 25.8503 16.9868H23.3882V20.68H28.6418Z" fill="white"/>
<path d="M16.6174 28.682C16.6174 29.0217 16.8932 29.2975 17.2329 29.2975H28.3125C28.6523 29.2975 28.928 29.0217 28.928 28.682V21.9111H16.6174V28.682ZM23.3882 25.6043H27.0814V27.4509H23.3882V25.6043Z" fill="white"/>
</g>
</g>
<defs>
<clipPath id="clip0_23_372">
<rect width="29.5455" height="30" fill="white" transform="translate(8 8)"/>
</clipPath>
<clipPath id="clip1_23_372">
<rect width="14.7727" height="14.7727" fill="white" transform="translate(15.3864 15.7559)"/>
</clipPath>
</defs>
</svg>
