<svg width="48" height="48" viewBox="0 0 48 48" fill="none" xmlns="http://www.w3.org/2000/svg">
<rect width="47.0222" height="47.0222" rx="10" fill="#FFDA00"/>
<path d="M39.5114 26.4229C38.8328 25.8075 37.7745 25.8478 37.0613 26.4229L31.7469 30.6733C31.0946 31.1966 30.2827 31.4808 29.4463 31.4785H22.6441C22.4 31.4785 22.1659 31.3815 21.9933 31.2089C21.8208 31.0364 21.7238 30.8023 21.7238 30.5582C21.7238 30.3142 21.8208 30.0801 21.9933 29.9075C22.1659 29.7349 22.4 29.638 22.6441 29.638H27.1469C28.0614 29.638 28.9132 29.0111 29.0593 28.1081C29.0773 28.0044 29.0861 27.8993 29.0857 27.7941C29.0848 27.3065 28.8905 26.8393 28.5454 26.4949C28.2004 26.1505 27.7328 25.957 27.2452 25.957H18.0429C16.4909 25.9574 14.9862 26.4913 13.781 27.4691L11.1066 29.638H7.92024C7.67618 29.638 7.44211 29.7349 7.26953 29.9075C7.09695 30.0801 7 30.3142 7 30.5582V36.0797C7 36.3237 7.09695 36.5578 7.26953 36.7304C7.44211 36.9029 7.67618 36.9999 7.92024 36.9999H28.4398C29.2759 37.0005 30.0873 36.7166 30.7404 36.1947L39.4384 29.2354C39.6476 29.068 39.8178 28.857 39.937 28.6171C40.0563 28.3772 40.1217 28.1141 40.1287 27.8462C40.1357 27.5784 40.0841 27.3123 39.9776 27.0664C39.8711 26.8206 39.7116 26.601 39.5114 26.4229Z" fill="white"/>
<path d="M30.1957 13.588L29.9127 14.0815C29.8092 14.2645 29.5883 14.3404 29.3916 14.2679C28.9843 14.1161 28.6116 13.8986 28.2837 13.626C28.125 13.4948 28.0836 13.2636 28.1871 13.0841L28.4701 12.5906C28.232 12.3145 28.0456 11.9935 27.9214 11.645H27.3519C27.1448 11.645 26.9654 11.4966 26.9309 11.2895C26.8618 10.8753 26.8584 10.4405 26.9309 10.0091C26.9654 9.80199 27.1448 9.65013 27.3519 9.65013H27.9214C28.0456 9.30156 28.232 8.98059 28.4701 8.70449L28.1871 8.21096C28.0836 8.0315 28.1215 7.80026 28.2837 7.66912C28.6116 7.39647 28.9878 7.17904 29.3916 7.02718C29.5883 6.95471 29.8092 7.03063 29.9127 7.21355L30.1957 7.70708C30.5581 7.64151 30.9274 7.64151 31.2898 7.70708L31.5728 7.21355C31.6763 7.03063 31.8972 6.95471 32.0939 7.02718C32.5012 7.17904 32.8739 7.39647 33.2018 7.66912C33.3605 7.80026 33.402 8.0315 33.2984 8.21096L33.0154 8.70449C33.2535 8.98059 33.4399 9.30156 33.5642 9.65013H34.1336C34.3407 9.65013 34.5202 9.79854 34.5547 10.0056C34.6237 10.4198 34.6271 10.8546 34.5547 11.286C34.5202 11.4931 34.3407 11.645 34.1336 11.645H33.5642C33.4399 11.9935 33.2535 12.3145 33.0154 12.5906L33.2984 13.0841C33.402 13.2636 33.364 13.4948 33.2018 13.626C32.8739 13.8986 32.4977 14.1161 32.0939 14.2679C31.8972 14.3404 31.6763 14.2645 31.5728 14.0815L31.2898 13.588C30.9309 13.6536 30.5581 13.6536 30.1957 13.588ZM29.8334 11.5587C31.1621 12.5802 32.6772 11.0651 31.6556 9.73641C30.3269 8.71139 28.8118 10.2299 29.8334 11.5587ZM25.8541 16.8701L27.0171 17.45C27.3657 17.6501 27.5176 18.0746 27.3795 18.4543C27.0724 19.2895 26.4684 20.0557 25.9093 20.7252C25.6539 21.0324 25.2121 21.1083 24.8636 20.9081L23.8592 20.3283C23.307 20.8011 22.6651 21.1773 21.9645 21.4223V22.582C21.9645 22.9823 21.678 23.3274 21.2846 23.3965C20.4356 23.5414 19.5452 23.5483 18.6651 23.3965C18.2682 23.3274 17.9748 22.9858 17.9748 22.582V21.4223C17.2742 21.1739 16.6323 20.8011 16.0801 20.3283L15.0758 20.9047C14.7307 21.1048 14.2855 21.0289 14.0301 20.7217C13.471 20.0522 12.8808 19.286 12.5736 18.4543C12.4356 18.0781 12.5874 17.6536 12.936 17.45L14.0853 16.8701C13.9507 16.1488 13.9507 15.4068 14.0853 14.6821L12.936 14.0988C12.5874 13.8986 12.4321 13.4741 12.5736 13.0979C12.8808 12.2627 13.471 11.4966 14.0301 10.827C14.2855 10.5198 14.7272 10.4439 15.0758 10.6441L16.0801 11.2239C16.6323 10.7511 17.2742 10.3749 17.9748 10.1299V8.96679C17.9748 8.56989 18.2579 8.22477 18.6513 8.15574C19.5003 8.01079 20.3942 8.00389 21.2742 8.15229C21.6711 8.22132 21.9645 8.56299 21.9645 8.96679V10.1264C22.6651 10.3749 23.307 10.7476 23.8592 11.2205L24.8636 10.6406C25.2087 10.4405 25.6539 10.5164 25.9093 10.8236C26.4684 11.4931 27.0551 12.2593 27.3623 13.0945C27.5003 13.4707 27.3657 13.8952 27.0171 14.0988L25.8541 14.6786C25.9887 15.4034 25.9887 16.1454 25.8541 16.8701ZM21.7954 17.5984C23.8385 14.9409 20.8049 11.9073 18.1474 13.9504C16.1043 16.6079 19.1379 19.6415 21.7954 17.5984ZM30.1957 23.9038L29.9127 24.3973C29.8092 24.5802 29.5883 24.6562 29.3916 24.5837C28.9843 24.4318 28.6116 24.2144 28.2837 23.9418C28.125 23.8106 28.0836 23.5794 28.1871 23.3999L28.4701 22.9064C28.232 22.6303 28.0456 22.3093 27.9214 21.9607H27.3519C27.1448 21.9607 26.9654 21.8123 26.9309 21.6053C26.8618 21.1911 26.8584 20.7563 26.9309 20.3248C26.9654 20.1178 27.1448 19.9659 27.3519 19.9659H27.9214C28.0456 19.6173 28.232 19.2964 28.4701 19.0203L28.1871 18.5267C28.0836 18.3473 28.1215 18.116 28.2837 17.9849C28.6116 17.7123 28.9878 17.4948 29.3916 17.343C29.5883 17.2705 29.8092 17.3464 29.9127 17.5293L30.1957 18.0229C30.5581 17.9573 30.9274 17.9573 31.2898 18.0229L31.5728 17.5293C31.6763 17.3464 31.8972 17.2705 32.0939 17.343C32.5012 17.4948 32.8739 17.7123 33.2018 17.9849C33.3605 18.116 33.402 18.3473 33.2984 18.5267L33.0154 19.0203C33.2535 19.2964 33.4399 19.6173 33.5642 19.9659H34.1336C34.3407 19.9659 34.5202 20.1143 34.5547 20.3214C34.6237 20.7355 34.6271 21.1704 34.5547 21.6018C34.5202 21.8089 34.3407 21.9607 34.1336 21.9607H33.5642C33.4399 22.3093 33.2535 22.6303 33.0154 22.9064L33.2984 23.3999C33.402 23.5794 33.364 23.8106 33.2018 23.9418C32.8739 24.2144 32.4977 24.4318 32.0939 24.5837C31.8972 24.6562 31.6763 24.5802 31.5728 24.3973L31.2898 23.9038C30.9309 23.9694 30.5581 23.9694 30.1957 23.9038ZM29.8334 21.871C31.1621 22.8926 32.6772 21.3775 31.6556 20.0487C30.3269 19.0272 28.8118 20.5423 29.8334 21.871Z" fill="white"/>
</svg>
