<svg width="46" height="46" viewBox="0 0 46 46" fill="none" xmlns="http://www.w3.org/2000/svg">
<circle cx="23" cy="23" r="23" fill="#27A0EC"/>
<g clip-path="url(#clip0_238_417)">
<path d="M29.7898 9.55701C29.5573 9.20951 29.1685 8.99951 28.7498 8.99951H23.7498V16.4995H34.4185L29.7898 9.55701Z" fill="white"/>
<path d="M21.2495 8.99951H16.2495C15.832 8.99951 15.442 9.20951 15.2095 9.55701L10.5808 16.4995H21.2495V8.99951Z" fill="white"/>
<path d="M33.7498 26.4965C34.1773 26.4965 34.5923 26.5403 34.9998 26.609V18.999H9.99982V32.749C9.99982 33.439 10.5598 33.999 11.2498 33.999H26.2498C26.2498 33.999 26.2498 33.9978 26.2498 33.9965C26.2498 29.854 29.6086 26.4965 33.7498 26.4965Z" fill="white"/>
<path opacity="0.8" d="M37.8659 29.3633L32.4997 34.7295L29.6334 31.8633L27.8659 33.6308L32.4997 38.2645L39.6334 31.1308L37.8659 29.3633Z" fill="white"/>
</g>
<defs>
<clipPath id="clip0_238_417">
<rect width="30" height="30" fill="white" transform="translate(10 9)"/>
</clipPath>
</defs>
</svg>
