<svg width="46" height="46" viewBox="0 0 46 46" fill="none" xmlns="http://www.w3.org/2000/svg">
<circle cx="23" cy="23" r="23" fill="#EE4428"/>
<path d="M37.2782 26.4747C36.667 25.9205 35.714 25.9568 35.0718 26.4747L30.2859 30.3024C29.6984 30.7737 28.9672 31.0296 28.2141 31.0275H22.0883C21.8685 31.0275 21.6577 30.9402 21.5023 30.7848C21.3469 30.6294 21.2595 30.4186 21.2595 30.1988C21.2595 29.979 21.3469 29.7682 21.5023 29.6128C21.6577 29.4574 21.8685 29.3701 22.0883 29.3701H26.1433C26.9669 29.3701 27.7339 28.8055 27.8655 27.9923C27.8817 27.8989 27.8897 27.8043 27.8893 27.7095C27.8885 27.2705 27.7135 26.8497 27.4028 26.5395C27.092 26.2294 26.6709 26.0552 26.2319 26.0552H17.9447C16.547 26.0555 15.192 26.5363 14.1066 27.4169L11.6982 29.3701H8.82872C8.60893 29.3701 8.39814 29.4574 8.24273 29.6128C8.08731 29.7682 8 29.979 8 30.1988V35.1711C8 35.3909 8.08731 35.6017 8.24273 35.7571C8.39814 35.9125 8.60893 35.9998 8.82872 35.9998H27.3077C28.0606 36.0004 28.7913 35.7447 29.3795 35.2747L37.2124 29.0075C37.4009 28.8568 37.5541 28.6668 37.6615 28.4507C37.7689 28.2346 37.8277 27.9977 37.8341 27.7565C37.8404 27.5153 37.794 27.2756 37.698 27.0543C37.6021 26.8329 37.4585 26.6351 37.2782 26.4747Z" fill="white"/>
<g clip-path="url(#clip0_23_397)">
<path d="M31.6049 14.055L23.3175 9.53441C23.0705 9.39934 22.7705 9.39934 22.5236 9.53441L14.2362 14.055C13.9701 14.2 13.8044 14.4785 13.8044 14.7826V15.9478C13.8044 16.406 14.1757 16.7765 14.6331 16.7765H15.4619V23.4061C15.4619 23.8644 15.8331 24.2348 16.2906 24.2348H17.9481V17.6052H27.893V24.2348H29.5504C30.0079 24.2348 30.3792 23.8644 30.3792 23.4061V16.7765H31.2079C31.6654 16.7765 32.0367 16.406 32.0367 15.9478V14.7826C32.0367 14.4785 31.8709 14.2 31.6049 14.055Z" fill="white"/>
<path opacity="0.8" d="M26.2354 19.2627H19.6055V20.9201H26.2354V19.2627Z" fill="white"/>
<path opacity="0.8" d="M26.2354 22.5781H19.6055V24.2355H26.2354V22.5781Z" fill="white"/>
</g>
<defs>
<clipPath id="clip0_23_397">
<rect width="19.8898" height="19.8898" fill="white" transform="translate(12.9724 6)"/>
</clipPath>
</defs>
</svg>
