<svg width="46" height="46" viewBox="0 0 46 46" fill="none" xmlns="http://www.w3.org/2000/svg">
<circle cx="23" cy="23" r="23" fill="#C7762F"/>
<path d="M34.1877 26.502V23.4005H32.12L31.5292 11.8066H29.0923L28.7969 23.4005H26.36V17.1236C26.36 17.1236 22.7415 19.6343 21.7815 20.2989V16.902C21.7815 16.902 18.3108 19.3389 17.2769 20.0036V16.902C17.2769 16.902 12.6246 20.1513 12.4769 20.1513L12.5508 23.4005H12.2554V26.502H11V31.8189H35V26.502H34.1877ZM27.2462 23.6959H28.7231H31.2338V26.502V27.6097H28.6492H27.2462V26.502V23.6959ZM20.6 26.502V25.6159V23.5482H21.6338H21.7815H24.5877V25.9113V26.502V27.5359H20.6V26.502ZM14.6185 27.6836V26.5759V25.6159V23.6959H17.0554H17.2769H18.6062V25.542V26.502V27.6097H14.6185V27.6836Z" fill="white"/>
<path d="M29.7863 11.4755C29.2897 10.7306 28.6277 10.2341 27.7173 10.1513C26.2277 10.0686 24.5725 11.972 23.5794 10.0686C23.4966 9.90304 23.2484 10.0686 23.3311 10.2341C23.6621 10.8961 24.2415 11.3099 24.9863 11.3099C25.4001 11.3099 25.6484 11.1444 25.9794 10.9789C27.3035 10.3168 28.5449 10.2341 29.4552 11.7237C29.6208 11.7237 29.869 11.5582 29.7863 11.4755Z" fill="white"/>
</svg>
