<svg width="46" height="46" viewBox="0 0 46 46" fill="none" xmlns="http://www.w3.org/2000/svg">
<circle cx="23" cy="23" r="23" fill="#1DB054"/>
<path opacity="0.8" d="M28 34.25V36.5938C28 37.3704 27.3704 38 26.5938 38H10.6562C9.87959 38 9.25 37.3704 9.25 36.5938V15.0312C9.25 14.2546 9.87959 13.625 10.6562 13.625H14.875V30.9688C14.875 32.7781 16.3469 34.25 18.1562 34.25H28Z" fill="white"/>
<path d="M28 8V14.0938C28 14.8672 28.6328 15.5 29.4062 15.5H35.5V30.9688C35.5 31.7454 34.8704 32.375 34.0938 32.375H18.1562C17.3796 32.375 16.75 31.7454 16.75 30.9688V9.40625C16.75 8.62959 17.3796 8 18.1562 8H28Z" fill="white"/>
<path d="M31.2244 8.41186L35.0881 12.2756C35.3519 12.5394 35.5 12.897 35.5 13.27V13.625H29.875V8H30.23C30.603 8 30.9606 8.14815 31.2244 8.41186Z" fill="white"/>
<path d="M23.1362 17V22.4546H28.5908V17H26.7726V18.8182H24.9544V17H23.1362Z" fill="#1DB054"/>
<path d="M23.1364 25.182H21.3182V23.3638H19.5V28.8183H24.9546V23.3638H23.1364V25.182Z" fill="#1DB054"/>
<path d="M30.4088 25.182H28.5906V23.3638H26.7725V28.8183H32.227V23.3638H30.4088V25.182Z" fill="#1DB054"/>
</svg>
