<svg width="46" height="46" viewBox="0 0 46 46" fill="none" xmlns="http://www.w3.org/2000/svg">
<circle cx="23" cy="23" r="23" fill="#EE4428"/>
<rect opacity="0.6" x="15" y="13" width="12" height="14" fill="#FFBBAF"/>
<path d="M19.8763 10.5445C19.4802 10.5801 18.5001 10.768 18.0482 10.8949C12.8126 12.3676 9.62866 17.6895 10.7154 23.1535C11.2486 25.8246 12.8482 28.1758 15.2146 29.7652C15.7783 30.1461 16.8244 30.659 17.515 30.8977C19.8255 31.6949 22.4154 31.6797 24.6548 30.8418C25.1626 30.6539 26.0919 30.2121 26.4474 29.9836L26.6455 29.8617L27.1431 30.6082C28.2349 32.2535 29.4181 33.7973 30.0681 34.4371C30.7943 35.148 31.4849 35.4578 32.3685 35.4629C33.2572 35.4629 33.8615 35.209 34.5064 34.559C35.1818 33.8734 35.4814 33.1066 35.4255 32.1926C35.3798 31.4969 35.1107 30.8164 34.6791 30.334C34.1408 29.7246 31.9927 28.0488 30.4236 27.018L29.8548 26.6473L29.9869 26.434C30.8705 24.9969 31.3986 23.1637 31.4646 21.3508C31.622 16.8871 29.0169 12.8957 24.8783 11.2504C24.1369 10.9609 23.106 10.6918 22.2986 10.5902C21.7248 10.5141 20.4451 10.4937 19.8763 10.5445ZM21.9177 14.1449C22.9587 14.5512 23.6291 15.4652 23.6951 16.5621C23.7306 17.1207 23.6544 17.5371 23.4209 18.0195C23.2025 18.4766 22.7099 18.9895 22.263 19.2281C20.6685 20.066 18.6423 19.157 18.1955 17.4C18.0736 16.943 18.1193 16.232 18.297 15.7648C18.6119 14.932 19.3685 14.2617 20.247 14.0383C20.7091 13.9215 21.4658 13.9672 21.9177 14.1449ZM19.531 21.2949C19.7595 21.366 20.0998 21.4473 20.2876 21.4828C20.7955 21.5691 21.7451 21.5133 22.3392 21.3609L22.8216 21.234L23.1619 21.3762C23.6138 21.5641 24.0505 21.884 24.5533 22.402C25.0408 22.8945 25.315 23.2855 25.5841 23.8695C25.8837 24.5094 25.9548 24.7582 25.9142 25.0121C25.8685 25.3371 25.6451 25.657 25.3759 25.7891C25.1525 25.8957 25.1423 25.8957 20.9326 25.8957H16.7177L16.4943 25.7789C16.2302 25.6418 15.9712 25.2457 15.9255 24.9258C15.89 24.6516 15.9966 24.2402 16.2505 23.7172C16.6009 22.9809 17.1494 22.3105 17.8146 21.8129C18.1498 21.5691 18.9876 21.1172 19.0689 21.1426C19.0994 21.1527 19.3076 21.2187 19.531 21.2949Z" fill="white"/>
</svg>
