<svg width="48" height="48" viewBox="0 0 48 48" fill="none" xmlns="http://www.w3.org/2000/svg">
<rect width="47.0222" height="47.0222" rx="10" fill="#C7762F"/>
<path d="M25.6624 23.1752C26.1499 21.1252 24.3624 19.3377 22.3124 19.8252C21.3499 20.0627 20.5624 20.8502 20.3249 21.8127C19.8374 23.8627 21.6249 25.6502 23.6749 25.1627C24.6499 24.9252 25.4374 24.1377 25.6624 23.1752Z" fill="white"/>
<path opacity="0.4" d="M15.5249 31.4625C15.2999 31.4625 15.0624 31.375 14.8874 31.2125C12.4624 28.9625 11.075 25.7875 11.075 22.4875C11.075 15.9125 16.4249 10.5625 22.9999 10.5625C29.5749 10.5625 34.9249 15.9125 34.9249 22.4875C34.9249 25.8125 33.5874 28.8875 31.1624 31.175C30.7874 31.525 30.1874 31.5125 29.8374 31.1375C29.4874 30.7625 29.4999 30.1625 29.8749 29.8125C31.9249 27.8875 33.0499 25.3 33.0499 22.5C33.0499 16.9625 28.5374 12.45 22.9999 12.45C17.4624 12.45 12.95 16.9625 12.95 22.5C12.95 25.325 14.0874 27.925 16.1624 29.85C16.5374 30.2 16.5625 30.8 16.2125 31.175C16.025 31.3625 15.7749 31.4625 15.5249 31.4625Z" fill="white"/>
<path opacity="0.4" d="M27.9999 28.1252C27.7749 28.1252 27.5374 28.0377 27.3624 27.8752C26.9874 27.5252 26.9624 26.9252 27.3249 26.5502C28.3624 25.4502 28.9374 24.0002 28.9374 22.5002C28.9374 19.2252 26.2749 16.5752 23.0124 16.5752C19.7499 16.5752 17.0874 19.2377 17.0874 22.5002C17.0874 24.0127 17.6624 25.4502 18.6999 26.5502C19.0499 26.9252 19.0374 27.5252 18.6624 27.8752C18.2874 28.2377 17.6874 28.2127 17.3374 27.8377C15.9749 26.3877 15.2124 24.4877 15.2124 22.5002C15.2124 18.2002 18.7124 14.7002 23.0124 14.7002C27.3124 14.7002 30.8124 18.2002 30.8124 22.5002C30.8124 24.4877 30.0624 26.3877 28.6874 27.8377C28.4999 28.0252 28.2499 28.1252 27.9999 28.1252Z" fill="white"/>
<path d="M20.8749 29.8251L19.0749 32.0626C17.6499 33.8501 18.9124 36.4876 21.1999 36.4876H24.7874C27.0749 36.4876 28.3499 33.8376 26.9124 32.0626L25.1124 29.8251C24.0374 28.4626 21.9624 28.4626 20.8749 29.8251Z" fill="white"/>
</svg>
