<svg width="46" height="46" viewBox="0 0 46 46" fill="none" xmlns="http://www.w3.org/2000/svg">
<circle cx="23" cy="23" r="23" fill="#FFDA00"/>
<path d="M13.6244 11.041C12.8779 11.2495 12.2685 11.8646 12.0705 12.617C12.0146 12.8305 11.9994 14.5692 11.9994 22.8914C11.9994 33.8572 11.9842 33.2167 12.2889 33.7454C12.4767 34.0606 12.8525 34.4266 13.1471 34.5741C13.2842 34.6402 14.9244 35.2095 16.7983 35.8349L20.2007 36.9736H20.6577C21.2163 36.9736 21.5312 36.872 21.9526 36.5618C22.2929 36.3127 22.5671 35.9365 22.7144 35.5095C22.7956 35.2756 22.8159 35.0926 22.8159 34.4826V33.7454H24.6085C26.65 33.7454 26.8531 33.72 27.5387 33.3845C28.3613 32.9828 29.0266 32.144 29.2348 31.2543C29.3516 30.7612 29.3516 26.0027 29.2398 25.7231C28.8996 24.9097 27.7215 24.8589 27.2949 25.6367C27.2187 25.7689 27.2035 26.0892 27.1832 28.2803L27.1578 30.7714L27.0308 31.0001C26.9597 31.1221 26.8023 31.295 26.6855 31.3814L26.4621 31.5339L24.639 31.5492L22.8159 31.5644L22.8058 23.1609L22.7905 14.7573L22.628 14.4167C22.364 13.8575 22.0085 13.527 21.3991 13.2728L21.1147 13.1559L23.7909 13.1712L26.4621 13.1813L26.6855 13.3338C26.8023 13.4203 26.9597 13.5931 27.0308 13.7151L27.1578 13.9439L27.1832 15.9012C27.2086 17.8178 27.2086 17.8635 27.3203 18.0415C27.3863 18.1431 27.5336 18.2906 27.6504 18.3719C27.8383 18.5041 27.9043 18.5193 28.2496 18.5193C28.5898 18.5193 28.6609 18.5041 28.8387 18.3821C28.9453 18.3058 29.0926 18.1584 29.1637 18.0516L29.2906 17.8635L29.3059 15.8452C29.3211 13.5677 29.3059 13.4304 28.9707 12.7492C28.6965 12.19 28.1176 11.6155 27.5387 11.3308C26.7668 10.9546 27.1324 10.9699 20.1245 10.9749C15.2647 10.98 13.8022 10.9953 13.6244 11.041Z" fill="white"/>
<path d="M32.1339 16.5068C31.8749 16.6237 31.621 16.9084 31.5549 17.1575C31.5194 17.2745 31.4991 18.0167 31.4991 19.0386V20.7315H29.2241H26.949L26.6799 20.8637C26.2228 21.0924 25.9994 21.5754 26.1213 22.0736C26.2025 22.4142 26.5529 22.7752 26.8881 22.8565C27.0506 22.8972 27.8072 22.9175 29.3104 22.9175H31.4991V24.6003C31.4991 25.7899 31.5194 26.3491 31.56 26.4965C31.687 26.9083 32.1593 27.2388 32.6214 27.2388C33.0276 27.2337 33.1647 27.1168 35.5007 24.7833C37.8418 22.4447 37.9992 22.2566 37.9992 21.8601C37.9992 21.3771 38.0296 21.4127 35.5667 18.9369C34.0382 17.4066 33.18 16.578 33.0429 16.5119C32.7839 16.3848 32.403 16.3848 32.1339 16.5068Z" fill="white" fill-opacity="0.8"/>
</svg>
