<svg width="48" height="48" viewBox="0 0 48 48" fill="none" xmlns="http://www.w3.org/2000/svg">
<rect width="47.0222" height="47.0222" rx="10" fill="#27A0EC"/>
<path opacity="0.6" d="M14.5835 9.78174C14.4897 9.82275 14.3081 9.9751 14.1909 10.1099C13.728 10.6548 13.8627 11.4282 14.4897 11.7974L14.7651 11.9556H23.0034H31.2417L31.5229 11.7798C31.9272 11.5278 32.0971 11.1938 32.062 10.731C32.0268 10.3677 31.8686 10.104 31.5288 9.85205C31.3706 9.729 31.353 9.729 23.0678 9.71729C16.2358 9.70557 14.7358 9.71729 14.5835 9.78174Z" fill="white"/>
<path opacity="0.6" d="M11.8953 13.8896C11.866 13.9014 11.7664 13.9248 11.6785 13.9424C11.4617 13.9893 11.1805 14.2412 11.034 14.5225C10.9461 14.7041 10.9227 14.8389 10.9403 15.1025C10.9695 15.5127 11.1805 15.8115 11.5731 16.0107L11.8309 16.1455H22.9988H34.1668L34.4246 16.0107C34.8172 15.8115 35.0281 15.5127 35.0574 15.0967C35.0926 14.6162 34.8758 14.2178 34.4539 13.9893C34.2899 13.8955 33.3817 13.8896 23.116 13.8779C16.9754 13.8721 11.9305 13.8779 11.8953 13.8896Z" fill="white"/>
<path d="M9.00656 17.9189C8.74875 18.001 8.31515 18.3936 8.16867 18.6689C8.11007 18.792 8.03976 19.0088 8.02218 19.1436C8.0046 19.2842 8.32101 22.9404 8.72531 27.2764C9.45773 35.0693 9.46359 35.1631 9.62765 35.4795C9.80343 35.8369 10.155 36.1416 10.5066 36.2412C10.8112 36.3232 35.1862 36.3232 35.4909 36.2412C35.8425 36.1416 36.1941 35.8369 36.3698 35.4795C36.5339 35.1631 36.5398 35.0635 37.2663 27.2764C37.6765 22.9404 37.9929 19.2842 37.9753 19.1436C37.9577 19.0088 37.8874 18.792 37.8288 18.6689C37.6765 18.3701 37.2429 18.001 36.9558 17.9131C36.6452 17.8193 9.29953 17.8252 9.00656 17.9189ZM24.1823 21.3174C24.7624 21.5283 25.1901 21.8096 25.6003 22.2373C26.0398 22.7002 26.2273 23.0107 26.4382 23.6201C26.6491 24.2412 26.6609 25.0967 26.4616 25.7412C26.2273 26.5088 25.6823 27.2588 24.9616 27.7861L24.7859 27.915H25.5534C26.8952 27.9209 27.6101 28.1963 28.4245 29.0049C28.9401 29.5205 29.1452 29.8369 29.3679 30.499C29.5788 31.1025 29.5964 31.9346 29.403 32.2861C29.239 32.5967 28.946 32.8662 28.6237 33.0127C28.3659 33.1299 28.2663 33.1357 22.9987 33.1357C17.7312 33.1357 17.6316 33.1299 17.3737 33.0127C17.0515 32.8662 16.7585 32.5967 16.5944 32.2861C16.489 32.0928 16.4655 31.958 16.4714 31.4951C16.4773 30.5049 16.8698 29.6436 17.655 28.9053C18.4167 28.1904 19.1726 27.9209 20.4441 27.915H21.2116L21.0359 27.7861C20.3152 27.2588 19.7702 26.5088 19.5359 25.7412C19.3366 25.0967 19.3484 24.2412 19.5593 23.6201C19.7644 23.0342 19.9519 22.7178 20.3444 22.29C20.8659 21.7334 21.5515 21.335 22.2663 21.1826C22.3952 21.1533 22.7937 21.1357 23.1452 21.1475C23.6491 21.165 23.8777 21.2002 24.1823 21.3174Z" fill="white"/>
</svg>
