<svg width="48" height="48" viewBox="0 0 48 48" fill="none" xmlns="http://www.w3.org/2000/svg">
<rect width="47.0222" height="47.0222" rx="10" fill="#FFDA00"/>
<path d="M14.5664 9.05367C14.0918 9.20602 13.7402 9.52828 13.5996 9.92672C13.5352 10.1201 13.5117 10.4365 13.5117 11.0927V11.9892H11.9414C10.1602 11.9892 9.94922 12.0244 9.53906 12.3759C9.39844 12.4931 9.22852 12.6982 9.1582 12.833L9.0293 13.0732V24.0009V34.9287L9.1582 35.1689C9.22852 35.3037 9.39844 35.5088 9.53906 35.6259C10.002 36.0244 9.86133 36.0127 14.9883 36.0127C17.5254 36.0127 19.6055 35.9951 19.6055 35.9716C19.6055 35.9482 19.4883 35.708 19.3477 35.4326C18.7852 34.3427 18.4219 33.247 18.1582 31.8818C18.0352 31.2373 17.9941 29.4443 18.0762 28.6826C18.6973 23.2334 23.0156 18.8271 28.4414 18.1123C29.291 18.0009 30.7441 18.0009 31.5176 18.1123C33.5977 18.417 35.4023 19.1787 37.3477 20.5791L37.4766 20.6728V16.9345C37.4766 12.7392 37.4941 12.9502 37.043 12.499C36.627 12.083 36.4453 12.0244 35.4141 12.0009L34.4883 11.9775V11.0869C34.4883 10.0732 34.4238 9.78024 34.125 9.47555C33.7969 9.14156 33.5215 9.03024 32.9941 9.03024C32.4727 9.03024 32.1855 9.14156 31.9043 9.45211C31.5645 9.80953 31.5293 9.95016 31.5117 11.0048L31.4883 11.9892H24H16.5117L16.4883 11.0048C16.4707 10.1904 16.4531 9.99117 16.3594 9.82125C16.0898 9.31149 15.6797 9.05367 15.0938 9.02438C14.8828 9.01266 14.6484 9.02438 14.5664 9.05367Z" fill="white"/>
<path d="M28.7173 21.0988C25.0903 21.6555 22.1782 24.298 21.2818 27.8371C20.8775 29.4367 20.9419 31.2414 21.4575 32.7883C22.3599 35.4777 24.4517 37.5988 27.1118 38.507C28.9693 39.1398 30.9204 39.1457 32.8013 38.5305C37.5357 36.9719 40.1138 31.8156 38.5083 27.1105C38.0689 25.8273 37.4126 24.7668 36.4282 23.7414C35.1568 22.4289 33.6099 21.5793 31.7642 21.1867C31.0025 21.0226 29.479 20.9816 28.7173 21.0988ZM30.7095 24.1633C30.979 24.298 31.2075 24.5265 31.3599 24.8195C31.4595 25.0012 31.4712 25.2004 31.4888 26.7648L31.5064 28.4992L32.5142 28.5226C33.6157 28.5402 33.7153 28.5695 34.0728 28.9269C34.3423 29.1965 34.4419 29.4308 34.4771 29.8644C34.5239 30.55 34.2661 31.0363 33.7036 31.341C33.4693 31.464 33.4048 31.4699 31.5005 31.4699C29.5962 31.4699 29.5318 31.464 29.2974 31.341C28.9634 31.1594 28.7056 30.8781 28.6001 30.5734C28.4653 30.175 28.4653 25.3234 28.6001 24.925C28.7407 24.5265 29.0923 24.2043 29.5669 24.0519C29.8189 23.9699 30.4575 24.0285 30.7095 24.1633Z" fill="white" fill-opacity="0.8"/>
</svg>
