<svg width="46" height="46" viewBox="0 0 46 46" fill="none" xmlns="http://www.w3.org/2000/svg">
<circle cx="23" cy="23" r="23" fill="#27A0EC"/>
<path opacity="0.8" d="M23.5 27.5H11C10.172 27.5 9.5 28.1715 9.5 29V30C9.5 30.8285 10.172 31.5 11 31.5H12V30C12 29.7235 12.2235 29.5 12.5 29.5C12.7765 29.5 13 29.7235 13 30V31.5H23.5L25.5 29.5L23.5 27.5Z" fill="white"/>
<path opacity="0.8" d="M13 9.5C10.2385 9.5 8 11.7385 8 14.5C8 17.2615 10.2385 19.5 13 19.5C15.7615 19.5 18 17.2615 18 14.5C18 11.7385 15.7615 9.5 13 9.5ZM14.5 17.5C14.3365 17.5 14.198 17.4165 14.107 17.295L12.601 15.3005C12.535 15.2135 12.5 15.108 12.5 14.999V11.5C12.5 11.2235 12.7235 11 13 11C13.2765 11 13.5 11.2235 13.5 11.5V14.8335L14.893 16.705C14.956 16.789 15 16.8875 15 17C15 17.2765 14.7765 17.5 14.5 17.5Z" fill="white"/>
<path d="M31 9.5H16.314C17.932 10.5745 19 12.412 19 14.5C19 17.8135 16.3135 20.5 13 20.5V26.5H23.914L26.914 29.5L23.914 32.5H13V34C13 34.552 13.448 35 14 35H31C31.552 35 32 34.552 32 34V10.5C32 9.948 31.552 9.5 31 9.5ZM18.25 20.5H21.25C21.664 20.5 22 20.836 22 21.25C22 21.664 21.664 22 21.25 22H18.25C17.836 22 17.5 21.664 17.5 21.25C17.5 20.836 17.836 20.5 18.25 20.5ZM22.25 25H18.25C17.836 25 17.5 24.664 17.5 24.25C17.5 23.836 17.836 23.5 18.25 23.5H22.25C22.664 23.5 23 23.836 23 24.25C23 24.664 22.664 25 22.25 25ZM29.2795 24.281L27.2815 26.28C27.145 26.416 26.9575 26.5 26.75 26.5C26.543 26.5 26.355 26.416 26.2185 26.28L25.2205 25.281C25.084 25.145 25 24.9575 25 24.75C25 24.336 25.336 24 25.75 24C25.9575 24 26.145 24.084 26.2815 24.22L26.7505 24.689L28.2195 23.22C28.355 23.084 28.543 23 28.75 23C29.164 23 29.5 23.336 29.5 23.75C29.5 23.9575 29.416 24.145 29.2795 24.281ZM26.75 16C28.266 16 29.5 17.1215 29.5 18.5C29.5 19.6415 28.6525 20.6055 27.5 20.9035V21.25C27.5 21.664 27.164 22 26.75 22C26.336 22 26 21.664 26 21.25V20.903C24.8925 20.619 24 19.7395 24 18.75C24 18.3245 24.336 18 24.75 18C25.164 18 25.439 18.3405 25.5 18.75C25.5675 19.202 26.163 19.5 26.75 19.5C27.4395 19.5 28 19.0515 28 18.5C28 17.9485 27.4395 17.5 26.75 17.5C25.234 17.5 24 16.3785 24 15C24 13.8585 24.8475 12.8945 26 12.5965V12.25C26 11.836 26.336 11.5 26.75 11.5C27.164 11.5 27.5 11.836 27.5 12.25V12.597C28.6075 12.881 29.5 13.7605 29.5 14.75C29.5 15.1755 29.164 15.5 28.75 15.5C28.336 15.5 28.061 15.1595 28 14.75C27.9325 14.298 27.337 14 26.75 14C26.0605 14 25.5 14.4485 25.5 15C25.5 15.5515 26.0605 16 26.75 16Z" fill="white"/>
</svg>
