<svg width="46" height="46" viewBox="0 0 46 46" fill="none" xmlns="http://www.w3.org/2000/svg">
<circle cx="23" cy="23" r="23" fill="#1DB054"/>
<path d="M29.6126 13.175L29.5251 17.9125C29.5126 18.5625 29.9251 19.425 30.4501 19.8125L33.5501 22.1625C35.5376 23.6625 35.2126 25.5 32.8376 26.25L28.8001 27.5125C28.1251 27.725 27.4126 28.4625 27.2376 29.15L26.2751 32.825C25.5126 35.725 23.6126 36.0125 22.0376 33.4625L19.8376 29.9C19.4376 29.25 18.4876 28.7625 17.7376 28.8L13.5626 29.0125C10.5751 29.1625 9.72509 27.4375 11.6751 25.1625L14.1501 22.2875C14.6126 21.75 14.8251 20.75 14.6126 20.075L13.3501 16.0375C12.6126 13.6625 13.9376 12.35 16.3001 13.125L19.9876 14.3375C20.6126 14.5375 21.5501 14.4 22.0751 14.0125L25.9251 11.2375C28.0001 9.73747 29.6626 10.6125 29.6126 13.175Z" fill="white"/>
<path opacity="0.4" d="M34.7999 33.5874L31.0124 29.8C30.6499 29.4375 30.0499 29.4375 29.6874 29.8C29.3249 30.1625 29.3249 30.7624 29.6874 31.1249L33.4749 34.9124C33.6624 35.0999 33.8999 35.1874 34.1374 35.1874C34.3749 35.1874 34.6124 35.0999 34.7999 34.9124C35.1624 34.5499 35.1624 33.9499 34.7999 33.5874Z" fill="white"/>
</svg>
