<svg width="48" height="48" viewBox="0 0 48 48" fill="none" xmlns="http://www.w3.org/2000/svg">
<rect width="47.0222" height="47.0222" rx="10" fill="#27A0EC"/>
<path opacity="0.8" d="M30.8098 35.4329H15.8098V38.4329H30.8098V35.4329Z" fill="white"/>
<path d="M36.8098 9.93237H31.8928C31.3723 9.03987 30.4153 8.43237 29.3098 8.43237H17.3098C16.2043 8.43237 15.2473 9.03987 14.7268 9.93237H9.80981C8.98181 9.93237 8.30981 10.6044 8.30981 11.4324V17.4324C8.30981 17.8884 8.51681 18.3189 8.87231 18.6039L16.2643 24.5169C17.6188 26.2209 19.5748 27.4209 21.8098 27.7974V29.4324H18.8098C17.9818 29.4324 17.3098 30.1044 17.3098 30.9324V33.9324H29.3098V30.9324C29.3098 30.1044 28.6378 29.4324 27.8098 29.4324H24.8098V27.7974C27.0448 27.4209 29.0008 26.2224 30.3538 24.5184L37.7458 18.6054C38.1028 18.3189 38.3098 17.8884 38.3098 17.4324V11.4324C38.3098 10.6044 37.6378 9.93237 36.8098 9.93237ZM11.3098 16.7124V12.9324H14.3098V18.9324C14.3098 18.9954 14.3173 19.0569 14.3188 19.1199L11.3098 16.7124ZM35.3098 16.7124L32.3008 19.1199C32.3023 19.0569 32.3098 18.9954 32.3098 18.9324V12.9324H35.3098V16.7124Z" fill="white"/>
</svg>
