<svg width="48" height="48" viewBox="0 0 48 48" fill="none" xmlns="http://www.w3.org/2000/svg">
<rect width="47.0222" height="47.0222" rx="10" fill="#EE4428"/>
<g clip-path="url(#clip0_23_206)">
<path d="M13.587 30.0598C13.587 29.2303 13.2657 28.5598 12.8697 28.5598H10.7169C10.3209 28.5598 9.99951 29.2303 9.99951 30.0598V33.0598C9.99951 33.8893 10.3209 34.5598 10.7169 34.5598H12.869C13.2649 34.5598 13.5863 33.8893 13.5863 33.0598V30.0598H13.587Z" fill="white" fill-opacity="0.8"/>
<path d="M19.7372 20.9237C19.7372 20.1696 19.4157 19.5601 19.0197 19.5601H16.8672C16.4711 19.5601 16.1497 20.1696 16.1497 20.9237V33.1964C16.1497 33.9505 16.4711 34.56 16.8672 34.56H19.0197C19.4157 34.56 19.7372 33.9505 19.7372 33.1964V20.9237Z" fill="white" fill-opacity="0.8"/>
<path d="M25.8871 11.8932C25.8871 11.1558 25.5656 10.5598 25.1696 10.5598H23.0171C22.621 10.5598 22.2996 11.1558 22.2996 11.8932V33.2264C22.2996 33.9638 22.621 34.5598 23.0171 34.5598H25.1696C25.5656 34.5598 25.8871 33.9638 25.8871 33.2264V11.8932Z" fill="white" fill-opacity="0.8"/>
<path d="M32.5514 17.6102C34.6191 17.6102 36.2953 15.934 36.2953 13.8664C36.2953 11.7987 34.6191 10.1226 32.5514 10.1226C30.4838 10.1226 28.8076 11.7987 28.8076 13.8664C28.8076 15.934 30.4838 17.6102 32.5514 17.6102Z" fill="white"/>
<path d="M32.6001 17.6101C30.0567 17.6101 27.9875 20.4092 27.9875 23.8498V27.5936C27.9875 28.2825 28.4008 28.8416 28.9101 28.8416H29.8326V33.8333C29.8326 34.5222 30.2458 35.0813 30.7551 35.0813H34.4451C34.9543 35.0813 35.3676 34.5222 35.3676 33.8333V28.8416H36.2901C36.7993 28.8416 37.2126 28.2825 37.2126 27.5936V23.8498C37.2126 20.4092 35.1434 17.6101 32.6001 17.6101Z" fill="white"/>
</g>
<defs>
<clipPath id="clip0_23_206">
<rect width="30" height="30" fill="white" transform="translate(7 7.56006)"/>
</clipPath>
</defs>
</svg>
