<svg width="46" height="46" viewBox="0 0 46 46" fill="none" xmlns="http://www.w3.org/2000/svg">
<circle cx="23" cy="23" r="23" fill="#27A0EC"/>
<g clip-path="url(#clip0_23_216)">
<path d="M21.7502 14.2108L20.0315 12.8345C19.809 12.657 19.534 12.5608 19.2502 12.5608H11.7502C11.0602 12.5608 10.5002 13.1208 10.5002 13.8108V30.0608C10.5002 30.7508 11.0602 31.3108 11.7502 31.3108H18.8115L21.7502 33.6233V14.2108Z" fill="white"/>
<path d="M32.9499 12.5608H25.4499C25.1662 12.5608 24.8912 12.657 24.6687 12.8345L22.9499 14.2108V33.6233L25.8887 31.3108H32.9499C33.6399 31.3108 34.1999 30.7508 34.1999 30.0608V13.8108C34.1999 13.1208 33.6399 12.5608 32.9499 12.5608Z" fill="white"/>
<path d="M33.0002 12.5613H25.5002C25.2165 12.5613 24.9415 12.6575 24.719 12.835L23.0002 14.2113V33.6238L25.939 31.3113H33.0002C33.6902 31.3113 34.2502 30.7513 34.2502 30.0613V13.8113C34.2502 13.1213 33.6902 12.5613 33.0002 12.5613Z" fill="white"/>
</g>
<defs>
<clipPath id="clip0_23_216">
<rect width="30" height="30" fill="white" transform="translate(8 7.56006)"/>
</clipPath>
</defs>
</svg>
