<svg width="46" height="46" viewBox="0 0 46 46" fill="none" xmlns="http://www.w3.org/2000/svg">
<circle cx="23" cy="23" r="23" fill="#27A0EC"/>
<path d="M27.0426 35C24.3274 35 21.6121 35 18.8969 35C18.6081 34.8261 18.2037 34.8261 17.8571 34.8261C15.1418 34.4205 13.8709 32.6818 14.2753 29.9579C14.5641 27.9875 15.5462 26.3648 16.9905 25.0318C17.9726 24.1045 19.1858 23.467 20.399 22.9454C20.9767 22.6557 20.9767 22.6557 20.5145 22.192C20.399 22.0761 20.2834 21.9022 20.1101 21.7863C18.6081 20.3375 17.8571 18.5409 17.7415 16.5125C17.626 14.2522 18.1459 12.1659 19.7057 10.4852C21.5544 8.51471 24.2118 8.51471 26.1183 10.4272C28.8335 13.1511 28.8912 18.5409 26.2338 21.3807C25.9449 21.6704 25.6561 22.0182 25.3672 22.3079C25.0784 22.5977 25.0206 22.7716 25.4828 22.9454C25.8872 23.0613 26.2338 23.2932 26.5804 23.467C29.2956 24.8579 31.1443 26.9443 31.6642 30.0159C32.0686 32.6239 30.971 34.2466 28.4291 34.8261C27.9669 34.8261 27.5047 34.7682 27.0426 35Z" fill="white"/>
<path opacity="0.55" d="M35.9969 29.2045C35.8814 29.4943 35.7659 29.842 35.6503 30.1318C35.2459 31.0591 34.4371 31.5807 33.455 31.8125C33.1662 31.8705 33.0507 31.8125 33.0507 31.5227C33.2817 27.7557 31.6064 24.9159 28.7756 22.6557C28.429 22.4238 27.9091 22.3079 27.8513 21.9602C27.7935 21.6704 28.1979 21.3227 28.3712 20.975C29.8155 18.2511 29.9888 15.4113 29.1223 12.4556C28.9489 11.8761 29.0067 11.8181 29.5844 11.8761C30.7976 12.05 31.6642 12.7454 32.3574 13.7306C34.0328 16.1068 33.8594 19.7 31.953 21.9023C31.8375 22.0761 31.6064 22.192 31.953 22.3659C34.0328 23.467 35.4192 25.0318 35.8814 27.408L35.9392 27.4659C35.997 28.0455 35.9969 28.625 35.9969 29.2045Z" fill="white"/>
<path opacity="0.55" d="M10 27.9295C10.1733 25.6692 11.502 23.7567 13.8129 22.4817C14.2173 22.2499 14.3328 22.134 13.9862 21.7283C11.7909 19.1783 12.1953 14.5419 14.6794 12.6294C15.1994 12.2237 15.8348 11.934 16.4703 11.876C17.048 11.8181 17.1058 11.876 16.9325 12.3976C16.1237 15.0056 16.2392 17.5556 17.2791 20.1056C17.4524 20.5692 17.6835 21.0908 18.0301 21.4965C18.2612 21.8442 18.2612 22.0181 17.9146 22.2499C15.7771 23.5829 14.275 25.4374 13.4662 27.8136C13.0618 28.9726 12.8885 30.1897 13.0041 31.4067C13.0618 31.8704 12.8885 31.8704 12.5419 31.8124C10.8666 31.3488 10 30.1317 10 27.9295Z" fill="white"/>
</svg>
