<svg width="46" height="46" viewBox="0 0 46 46" fill="none" xmlns="http://www.w3.org/2000/svg">
<circle cx="23" cy="23" r="23" fill="#FFDA00"/>
<path d="M27.0423 35C24.3271 35 21.6119 35 18.8967 35C18.6078 34.8261 18.2034 34.8261 17.8568 34.8261C15.1416 34.4205 13.8706 32.6818 14.275 29.9579C14.5639 27.9875 15.546 26.3648 16.9903 25.0318C17.9724 24.1045 19.1855 23.467 20.3987 22.9454C20.9764 22.6557 20.9764 22.6557 20.5143 22.192C20.3987 22.0761 20.2832 21.9022 20.1099 21.7863C18.6078 20.3375 17.8568 18.5409 17.7413 16.5125C17.6257 14.2522 18.1457 12.1659 19.7055 10.4852C21.5541 8.51471 24.2116 8.51471 26.118 10.4272C28.8332 13.1511 28.891 18.5409 26.2335 21.3807C25.9447 21.6704 25.6558 22.0182 25.367 22.3079C25.0781 22.5977 25.0204 22.7716 25.4825 22.9454C25.8869 23.0613 26.2335 23.2932 26.5802 23.467C29.2954 24.8579 31.144 26.9443 31.664 30.0159C32.0684 32.6239 30.9707 34.2466 28.4288 34.8261C27.9667 34.8261 27.5045 34.7682 27.0423 35Z" fill="white"/>
<path opacity="0.55" d="M35.9967 29.2045C35.8812 29.4943 35.7656 29.842 35.6501 30.1318C35.2457 31.0591 34.4369 31.5807 33.4548 31.8125C33.1659 31.8705 33.0504 31.8125 33.0504 31.5227C33.2815 27.7557 31.6061 24.9159 28.7754 22.6557C28.4288 22.4238 27.9088 22.3079 27.8511 21.9602C27.7933 21.6704 28.1977 21.3227 28.371 20.975C29.8153 18.2511 29.9886 15.4113 29.122 12.4556C28.9487 11.8761 29.0065 11.8181 29.5842 11.8761C30.7974 12.05 31.6639 12.7454 32.3572 13.7306C34.0325 16.1068 33.8592 19.7 31.9528 21.9023C31.8372 22.0761 31.6061 22.192 31.9528 22.3659C34.0325 23.467 35.419 25.0318 35.8812 27.408L35.9389 27.4659C35.9967 28.0455 35.9967 28.625 35.9967 29.2045Z" fill="white"/>
<path opacity="0.55" d="M10 27.9295C10.1733 25.6692 11.502 23.7567 13.8129 22.4817C14.2173 22.2499 14.3328 22.134 13.9862 21.7283C11.7909 19.1783 12.1953 14.5419 14.6794 12.6294C15.1994 12.2237 15.8348 11.934 16.4703 11.876C17.048 11.8181 17.1058 11.876 16.9325 12.3976C16.1237 15.0056 16.2392 17.5556 17.2791 20.1056C17.4524 20.5692 17.6835 21.0908 18.0301 21.4965C18.2612 21.8442 18.2612 22.0181 17.9146 22.2499C15.7771 23.5829 14.275 25.4374 13.4662 27.8136C13.0618 28.9726 12.8885 30.1897 13.0041 31.4067C13.0618 31.8704 12.8885 31.8704 12.5419 31.8124C10.8666 31.3488 10 30.1317 10 27.9295Z" fill="white"/>
</svg>
