<svg width="46" height="46" viewBox="0 0 46 46" fill="none" xmlns="http://www.w3.org/2000/svg">
<circle cx="23" cy="23" r="23" fill="#27A0EC"/>
<g clip-path="url(#clip0_4_3533)">
<path d="M34.6667 9.00269H30V15.8966L26.5 13.5986L23 15.8966V9.00269H18.3333C17.0465 9.00269 16 10.0333 16 11.3007V25.0885L20.6667 23.9396L24.1667 27.3865H34.6667C35.9535 27.3865 37 26.3559 37 25.0885V11.3007C37 10.0333 35.9535 9.00269 34.6667 9.00269Z" fill="white"/>
<path d="M31.1668 29.6842H21.1498L21.4917 29.3476C21.9478 28.8994 21.9478 28.1733 21.4917 27.7229L20.325 26.5739C19.9948 26.2487 19.5002 26.1499 19.0662 26.3188L14.8335 27.986V35.4292H27.6668C27.976 35.4292 28.2735 35.3085 28.4917 35.0925L31.9917 31.6455C32.3253 31.3169 32.4257 30.8229 32.2448 30.3943C32.064 29.9646 31.6382 29.6842 31.1668 29.6842Z" fill="white"/>
<path opacity="0.8" d="M12.5 26.2375H10.1667C9.52267 26.2375 9 26.7523 9 27.3865V35.4295C9 36.0637 9.52267 36.5785 10.1667 36.5785H12.5C13.144 36.5785 13.6667 36.0637 13.6667 35.4295V27.3865C13.6667 26.7523 13.144 26.2375 12.5 26.2375Z" fill="white"/>
</g>
<defs>
<clipPath id="clip0_4_3533">
<rect width="28" height="27.5758" fill="white" transform="translate(9 9)"/>
</clipPath>
</defs>
</svg>
