<svg width="46" height="46" viewBox="0 0 46 46" fill="none" xmlns="http://www.w3.org/2000/svg">
<circle cx="23" cy="23" r="23" fill="#005DC7"/>
<g clip-path="url(#clip0_4_3820)">
<path d="M33.9034 20.0466C33.9034 20.0232 33.8915 20.0053 33.8915 19.9831L31.8173 12.4331C31.7544 11.866 31.1839 11.3999 30.5481 11.3999H14.3866C13.7506 11.3999 13.1791 11.866 13.1167 12.4331L11.0429 19.9831C11.0429 20.0053 11.0308 20.0232 11.0308 20.0466V22.1249C11.0308 22.6645 11.2427 23.1544 11.5829 23.5243L11.0429 26.6474C11.0429 26.6702 11.0308 26.6888 11.0308 26.7118V28.7898C11.0308 29.329 11.2427 29.8193 11.5829 30.1894L11.0429 33.3125C11.0429 33.3351 11.0308 33.3535 11.0308 33.3763V35.4547C11.0308 36.6013 11.9637 37.5342 13.1101 37.5342H31.8234C32.9701 37.5342 33.903 36.6013 33.903 35.4547V33.3763C33.903 33.3535 33.8911 33.3351 33.8911 33.3125L33.3507 30.1894C33.6913 29.8195 33.9028 29.3314 33.9028 28.7898V26.7118C33.9028 26.6888 33.8909 26.6702 33.8909 26.6474L33.3505 23.5245C33.6911 23.1546 33.9026 22.6657 33.9026 22.1251V20.0466H33.9034ZM32.863 35.4547C32.863 36.0286 32.3963 36.4948 31.8236 36.4948H13.1113C12.5392 36.4948 12.0717 36.0284 12.0717 35.4547V33.3763C12.0717 32.8024 12.5392 32.3359 13.1113 32.3359H31.8252C32.3965 32.3359 32.8652 32.8026 32.8652 33.3763V35.4547H32.863ZM32.863 28.7898C32.863 29.3639 32.3963 29.8302 31.8236 29.8302H13.1113C12.5392 29.8302 12.0717 29.3637 12.0717 28.7898V26.7118C12.0717 26.1377 12.5392 25.6713 13.1113 25.6713H31.8252C32.3965 25.6713 32.8652 26.1379 32.8652 26.7118V28.7898H32.863ZM32.863 22.1251C32.863 22.6984 32.3963 23.1659 31.8236 23.1659H13.1113C12.5392 23.1659 12.0717 22.6984 12.0717 22.1251V20.0466C12.0717 19.4733 12.5392 19.0058 13.1113 19.0058H31.8252C32.3965 19.0058 32.8652 19.4733 32.8652 20.0466V22.1249H32.863V22.1251Z" fill="white"/>
<path d="M14.3136 33.668C14.7261 33.668 15.0608 34.0022 15.0608 34.4145C15.0608 34.8277 14.7261 35.1629 14.3136 35.1629C13.9001 35.1629 13.5654 34.8277 13.5654 34.4145C13.5654 34.002 13.9001 33.668 14.3136 33.668Z" fill="white"/>
<path d="M14.3136 27.0034C14.7261 27.0034 15.0608 27.3377 15.0608 27.7498C15.0608 28.1631 14.7261 28.4982 14.3136 28.4982C13.9001 28.4982 13.5654 28.1631 13.5654 27.7498C13.5654 27.3377 13.9001 27.0034 14.3136 27.0034Z" fill="white"/>
<path d="M14.3136 20.3379C14.7261 20.3379 15.0608 20.6727 15.0608 21.0853C15.0608 21.498 14.7261 21.8326 14.3136 21.8326C13.9001 21.8326 13.5654 21.498 13.5654 21.0853C13.5654 20.6727 13.9001 20.3379 14.3136 20.3379Z" fill="white"/>
</g>
<defs>
<clipPath id="clip0_4_3820">
<rect width="26.1345" height="26.1345" fill="white" transform="translate(9.3999 11.3999)"/>
</clipPath>
</defs>
</svg>
