<svg width="48" height="48" viewBox="0 0 48 48" fill="none" xmlns="http://www.w3.org/2000/svg">
<rect width="47.0222" height="47.0222" rx="10" fill="#FFDA00"/>
<g clip-path="url(#clip0_4_3453)">
<path d="M35.9168 31.5002H23.7533L24.1684 31.0852C24.7223 30.5327 24.7223 29.6359 24.1684 29.082L22.7517 27.6653C22.3508 27.2644 21.7502 27.1412 21.2232 27.3508L16.0835 29.4064V38.5836H31.6668C32.0422 38.5836 32.4035 38.4348 32.6684 38.1685L36.9184 33.9185C37.3236 33.5133 37.4454 32.9056 37.2258 32.3757C37.0062 31.8459 36.4892 31.5002 35.9168 31.5002Z" fill="white"/>
<path opacity="0.8" d="M13.25 27.25H10.4167C9.63467 27.25 9 27.8847 9 28.6667V38.5833C9 39.3653 9.63467 40 10.4167 40H13.25C14.032 40 14.6667 39.3653 14.6667 38.5833V28.6667C14.6667 27.8847 14.032 27.25 13.25 27.25Z" fill="white"/>
<path d="M26.4977 7.94108H24.8311C24.8311 7.02108 24.0844 6.27441 23.1644 6.27441C22.2444 6.27441 21.4977 7.02108 21.4977 7.94108H19.8311V10.4411H26.4977V7.94108Z" fill="white"/>
<path d="M28.9979 8.77441H28.1645V11.2744H18.1646V8.77441H17.3312C16.4112 8.77441 15.6646 9.52108 15.6646 10.4411V22.1077C15.6646 23.0277 16.4112 23.7744 17.3312 23.7744H28.9979C29.9179 23.7744 30.6645 23.0277 30.6645 22.1077V10.4411C30.6645 9.52108 29.9179 8.77441 28.9979 8.77441ZM26.4979 17.9411H23.9979V20.4411H22.3312V17.9411H19.8312V16.2744H22.3312V13.7744H23.9979V16.2744H26.4979V17.9411Z" fill="white"/>
</g>
<defs>
<clipPath id="clip0_4_3453">
<rect width="29.0001" height="36.0002" fill="white" transform="translate(9 4)"/>
</clipPath>
</defs>
</svg>
