<svg width="48" height="48" viewBox="0 0 48 48" fill="none" xmlns="http://www.w3.org/2000/svg">
<rect width="47.0222" height="47.0222" rx="10" fill="#EE4428"/>
<g clip-path="url(#clip0_4_3476)">
<path opacity="0.8" d="M16.7493 22.0015H29.2493C29.6418 22.0015 30.0105 21.8177 30.2468 21.504C30.483 21.1915 30.5593 20.7852 30.4506 20.409L27.9506 11.659C27.798 11.1227 27.3068 10.7515 26.7493 10.7515H19.2493C18.6918 10.7515 18.2005 11.1227 18.048 11.659L15.548 20.409C15.4405 20.7852 15.5155 21.1902 15.7518 21.504C15.988 21.8177 16.3568 22.0015 16.7493 22.0015ZM20.3205 14.5015H23.178L22.1068 18.2515H19.2493L20.3205 14.5015Z" fill="white"/>
<path d="M20.4506 24.1595C20.298 23.622 19.8068 23.2507 19.2493 23.2507H11.7493C11.1918 23.2507 10.7005 23.622 10.548 24.1582L8.04805 32.9082C7.94055 33.2845 8.01555 33.6895 8.2518 34.0032C8.48805 34.317 8.8568 34.5007 9.2493 34.5007H21.7493C22.1418 34.5007 22.5105 34.317 22.7468 34.0032C22.983 33.6907 23.0593 33.2845 22.9506 32.9082L20.4506 24.1595ZM15.678 30.7507H12.8205L13.8918 27.0007H16.7493L15.678 30.7507Z" fill="white"/>
<path d="M37.9506 32.9112L35.4506 24.1612C35.2968 23.6249 34.8068 23.2537 34.2493 23.2537H26.7493C26.1918 23.2537 25.7005 23.6249 25.548 24.1612L23.048 32.9112C22.9405 33.2874 23.0155 33.6924 23.2518 34.0062C23.488 34.3199 23.8568 34.5037 24.2493 34.5037H36.7493C37.1418 34.5037 37.5106 34.3199 37.7468 34.0062C37.9831 33.6924 38.0593 33.2862 37.9506 32.9112ZM30.8568 30.7524H27.9993L29.0705 27.0024H31.928L30.8568 30.7524Z" fill="white"/>
</g>
<defs>
<clipPath id="clip0_4_3476">
<rect width="30" height="30" fill="white" transform="translate(8 7)"/>
</clipPath>
</defs>
</svg>
