<svg width="46" height="46" viewBox="0 0 46 46" fill="none" xmlns="http://www.w3.org/2000/svg">
<circle cx="23" cy="23" r="23" fill="#FFDA00"/>
<path d="M15.9582 21.9166H27.8749C28.1743 21.9166 28.4166 21.6743 28.4166 21.3749C28.4166 21.0755 28.1743 20.8333 27.8749 20.8333H15.9582C15.6588 20.8333 15.4165 21.0755 15.4165 21.3749C15.4165 21.6743 15.6588 21.9166 15.9582 21.9166Z" fill="white" fill-opacity="0.8"/>
<path d="M22.4582 27.3333H15.9582C15.6588 27.3333 15.4165 27.5755 15.4165 27.8749C15.4165 28.1743 15.6588 28.4166 15.9582 28.4166H22.4582C22.7576 28.4166 22.9999 28.1743 22.9999 27.8749C22.9999 27.5755 22.7576 27.3333 22.4582 27.3333Z" fill="white" fill-opacity="0.8"/>
<path d="M33.9264 17.5833C33.8951 17.5833 33.8646 17.5911 33.8334 17.5926V13.2499C33.8334 12.055 32.8611 11.0833 31.6667 11.0833H12.1667C10.9723 11.0833 10 12.055 10 13.2499V32.7499C10 33.9449 10.9723 34.9166 12.1667 34.9166H31.6667C32.8611 34.9166 33.8334 33.9449 33.8334 32.7499V22.6823L35.3928 21.1232C35.3928 21.1232 35.3928 21.1232 35.3928 21.1227C35.7789 20.7365 36 20.2022 36 19.6569C36 18.5132 35.0701 17.5833 33.9264 17.5833ZM17.0417 13.2499C17.3408 13.2499 17.5834 13.4924 17.5834 13.7916C17.5834 14.0908 17.3408 14.3333 17.0417 14.3333C16.7425 14.3333 16.5 14.0907 16.5 13.7916C16.5 13.4924 16.7425 13.2499 17.0417 13.2499ZM14.875 13.2499C15.1742 13.2499 15.4167 13.4924 15.4167 13.7916C15.4167 14.0908 15.1742 14.3333 14.875 14.3333C14.5758 14.3333 14.3333 14.0908 14.3333 13.7916C14.3333 13.4924 14.5758 13.2499 14.875 13.2499ZM12.7083 13.2499C13.0075 13.2499 13.25 13.4924 13.25 13.7916C13.25 14.0908 13.0075 14.3333 12.7083 14.3333C12.4092 14.3333 12.1666 14.0908 12.1666 13.7916C12.1667 13.4924 12.4092 13.2499 12.7083 13.2499ZM31.6667 32.7499H12.1667V16.4999H31.6667V18.9839L26.5665 24.0833H15.9583C15.6589 24.0833 15.4166 24.3255 15.4166 24.6249C15.4166 24.9243 15.6589 25.1666 15.9583 25.1666H25.6974L25.1772 27.7687C25.1413 27.9464 25.1974 28.13 25.3254 28.2579C25.428 28.3606 25.5666 28.4166 25.7084 28.4166C25.7433 28.4166 25.7793 28.4129 25.8141 28.4061L28.5214 27.8644C28.6272 27.8432 28.7235 27.7919 28.7986 27.7162L31.6667 24.8486V32.7499ZM33.0673 21.9165L31.6664 20.5156L32.4324 19.7497L33.8334 21.1507L33.0673 21.9165Z" fill="white"/>
</svg>
