<svg width="46" height="47" viewBox="0 0 46 47" fill="none" xmlns="http://www.w3.org/2000/svg">
<circle cx="23" cy="23.4399" r="23" fill="#27A0EC"/>
<path opacity="0.8" d="M18.75 32.4399C18.0595 32.4399 17.5 32.9994 17.5 33.6899C17.5 35.4299 20.9805 36.9399 22 36.9399C22.552 36.9399 23 36.4919 23 35.9399C23 34.9519 21.0095 32.4399 18.75 32.4399Z" fill="white"/>
<path opacity="0.8" d="M32.266 26.4399C30.6445 26.4399 30.0595 24.9399 26.765 24.9399C25.2065 24.9399 23.8385 25.3439 22.6385 26.0759L20.9575 27.1019C20.6825 27.2804 20.5 27.5879 20.5 27.9399C20.5 28.4919 20.948 28.9399 21.5 28.9399C21.621 28.9399 21.7355 28.9149 21.843 28.8759L24.6345 27.8544L28.7935 32.2914C29.249 32.7769 29.5 33.4109 29.5 34.0769C29.5 34.2859 29.4735 34.4909 29.426 34.6889C29.426 34.6889 31.4095 33.4884 32.0135 32.9479C32.841 32.2079 33.787 31.6094 34.813 31.1789L36.5 30.4714V24.4399C33.487 26.1614 33.216 26.4399 32.266 26.4399Z" fill="white"/>
<path opacity="0.8" d="M28.064 32.9749L24.357 29.0204L22.1865 29.8149C21.958 29.8979 21.7275 29.9399 21.5 29.9399C20.397 29.9399 19.5 29.0429 19.5 27.9399C19.5 27.2614 19.8415 26.6344 20.4125 26.2629L20.8065 26.0229C19.9505 25.6439 19.0175 25.4399 18.062 25.4399C16.783 25.4399 15.158 25.9399 14 25.9399C12.6615 25.9399 12.128 25.5664 9.5 24.4399V30.4399L11.291 30.7979C11.7545 30.8909 12.1835 31.1099 12.5305 31.4304C14.489 33.2419 14.1065 32.9859 16.554 34.1804C16.5205 34.0204 16.5 33.8574 16.5 33.6899C16.5 32.4494 17.5095 31.4399 18.75 31.4399C21.536 31.4399 24 34.3374 24 35.9399C24 36.3044 23.895 36.6419 23.7235 36.9364C25.7475 36.9064 26.931 35.9859 27.782 35.4184C28.2305 35.1194 28.5 34.6164 28.5 34.0774C28.5 33.6679 28.344 33.2734 28.064 32.9749Z" fill="white"/>
<path d="M30.9865 24.9974C31.548 25.2879 31.86 25.4399 32.2655 25.4399C32.7355 25.4399 32.877 25.3804 34.5 24.4394V11.4399C34.5 10.8879 34.052 10.4399 33.5 10.4399H28.5C27.948 10.4399 27.5 10.8879 27.5 11.4399V23.9659C29.219 24.0844 30.2275 24.6044 30.9865 24.9974Z" fill="white"/>
<path d="M21.845 25.3884C23.2775 24.5144 24.632 23.9989 26.5 23.9484V14.4399C26.5 13.8879 26.052 13.4399 25.5 13.4399H20.5C19.948 13.4399 19.5 13.8879 19.5 14.4399V24.5814C20.5305 24.7764 21.0995 25.0589 21.845 25.3884Z" fill="white"/>
<path d="M14 24.9399C15.197 24.9399 16.7315 24.3629 18.5 24.4624V17.9399C18.5 17.3879 18.052 16.9399 17.5 16.9399H12.5C11.948 16.9399 11.5 17.3879 11.5 17.9399V24.2224C12.768 24.7794 13.1905 24.9399 14 24.9399Z" fill="white"/>
</svg>
