<svg width="46" height="46" viewBox="0 0 46 46" fill="none" xmlns="http://www.w3.org/2000/svg">
<circle cx="23" cy="23" r="23" fill="#27A0EC"/>
<path d="M24.847 22.1938H24.4962C24.0298 22.4081 23.5109 22.53 22.9647 22.53C22.4185 22.53 21.9016 22.4081 21.4332 22.1938H21.0823C19.5235 22.1938 18.2588 23.4586 18.2588 25.0174V25.8913C18.2588 26.448 18.7105 26.8997 19.2672 26.8997H26.6621C27.2189 26.8997 27.6706 26.448 27.6706 25.8913V25.0174C27.6706 23.4586 26.4058 22.1938 24.847 22.1938Z" fill="white"/>
<path d="M25.6535 18.8321C25.6535 20.3174 24.4498 21.5212 22.9645 21.5212C21.4792 21.5212 20.2754 20.3174 20.2754 18.8321C20.2754 17.3468 21.4792 16.1431 22.9645 16.1431C24.4498 16.1431 25.6535 17.3468 25.6535 18.8321Z" fill="white"/>
<path opacity="0.8" d="M32.6705 20.2373C32.6705 14.2585 28.3837 10.0256 22.9646 10.0256C17.5455 10.0256 13.2587 14.2585 13.2587 20.2373C13.2587 24.0914 16.4131 29.1973 22.9646 35.2914C29.5161 29.1973 32.6705 24.0914 32.6705 20.2373ZM22.9646 6.73145C29.7587 6.73145 35.9058 12.035 35.9058 20.2373C35.9058 25.7056 31.5867 32.1785 22.9646 39.6726C14.3426 32.1785 10.0234 25.7056 10.0234 20.2373C10.0234 12.035 16.1705 6.73145 22.9646 6.73145Z" fill="white"/>
</svg>
