<svg width="48" height="48" viewBox="0 0 48 48" fill="none" xmlns="http://www.w3.org/2000/svg">
<rect width="47.0222" height="47.0222" rx="10" fill="#1DB054"/>
<path d="M34.3623 16.7249C33.2998 15.5499 31.5248 14.9624 28.9498 14.9624H28.6498V14.9124C28.6498 12.8124 28.6498 10.2124 23.9498 10.2124H22.0498C17.3498 10.2124 17.3498 12.8249 17.3498 14.9124V14.9749H17.0498C14.4623 14.9749 12.6998 15.5624 11.6373 16.7374C10.3998 18.1124 10.4373 19.9624 10.5623 21.2249L10.5748 21.3124L10.6998 22.6249C10.7123 22.6374 10.7373 22.6624 10.7623 22.6749C11.1748 22.9499 11.5998 23.2249 12.0498 23.4749C12.2248 23.5874 12.4123 23.6874 12.5998 23.7874C14.7373 24.9624 17.0873 25.7499 19.4748 26.1374C19.5873 27.3124 20.0998 28.6874 22.8373 28.6874C25.5748 28.6874 26.1123 27.3249 26.1998 26.1124C28.7498 25.6999 31.2123 24.8124 33.4373 23.5124C33.5123 23.4749 33.5623 23.4374 33.6248 23.3999C34.1998 23.0749 34.7373 22.7249 35.2623 22.3374C35.2873 22.3249 35.3123 22.2999 35.3248 22.2749L35.3748 21.8249L35.4373 21.2374C35.4498 21.1624 35.4498 21.0999 35.4623 21.0124C35.5623 19.7499 35.5373 18.0249 34.3623 16.7249ZM24.3623 25.2874C24.3623 26.6124 24.3623 26.8124 22.8248 26.8124C21.2873 26.8124 21.2873 26.5749 21.2873 25.2999V23.7249H24.3623V25.2874ZM19.1373 14.9624V14.9124C19.1373 12.7874 19.1373 11.9999 22.0498 11.9999H23.9498C26.8623 11.9999 26.8623 12.7999 26.8623 14.9124V14.9749H19.1373V14.9624Z" fill="white"/>
<path opacity="0.4" d="M33.6252 23.375C33.5627 23.4125 33.5002 23.45 33.4377 23.4875C31.2127 24.7875 28.7502 25.6625 26.2002 26.0875C26.1002 27.2875 25.5752 28.6625 22.8377 28.6625C20.1002 28.6625 19.5752 27.3 19.4752 26.1125C17.0877 25.7375 14.7377 24.95 12.6002 23.7625C12.4127 23.6625 12.2252 23.5625 12.0502 23.45C11.6002 23.2 11.1752 22.925 10.7627 22.65C10.7377 22.6375 10.7127 22.6125 10.7002 22.6L11.4627 30.7375C11.7252 33.225 12.7502 35.7875 18.2502 35.7875H27.7752C33.2752 35.7875 34.3002 33.225 34.5627 30.725L35.3502 22.25C35.3377 22.275 35.3127 22.3 35.2877 22.3125C34.7502 22.7 34.2002 23.0625 33.6252 23.375Z" fill="white"/>
</svg>
