<svg width="48" height="48" viewBox="0 0 48 48" fill="none" xmlns="http://www.w3.org/2000/svg">
<rect width="47.0222" height="47.0222" rx="10" fill="#C7762F"/>
<path d="M16.5252 13.5063C10.6423 15.1938 10.2439 15.3169 10.0681 15.4926C9.73414 15.8208 9.74 16.3598 10.0681 16.6938C10.2498 16.8696 10.6072 16.9809 16.5837 18.686C20.0642 19.6762 22.9646 20.4907 23.0291 20.4848C23.0935 20.4848 25.9763 19.6762 29.4392 18.686C35.4334 16.9751 35.7439 16.8813 35.9255 16.6938C36.2654 16.3598 36.2654 15.8208 35.9314 15.4868C35.7498 15.311 35.3923 15.1997 29.4158 13.4946C25.9353 12.5044 23.0232 11.6958 22.9412 11.7016C22.8591 11.7016 19.9763 12.5161 16.5252 13.5063Z" fill="white"/>
<path d="M31.7188 19.8516L30.9102 20.0918V22.5762C30.9102 24.8965 30.916 25.0723 31.0215 25.2773C31.1504 25.5293 31.5137 25.7578 31.7832 25.7578C32.082 25.7578 32.416 25.5527 32.5508 25.2891C32.6621 25.0664 32.668 24.9492 32.668 22.3301C32.668 20.1855 32.6504 19.6055 32.5977 19.6113C32.5566 19.6172 32.1582 19.7227 31.7188 19.8516Z" fill="white" fill-opacity="0.8"/>
<path d="M16.8477 21.9642C16.8477 23.265 16.8535 23.3412 16.9824 23.5638C17.1055 23.7865 17.2402 23.8627 19.4727 24.9994C21.3125 25.931 21.9219 26.2709 22.1973 26.5111C22.6309 26.8803 22.9062 26.9799 23.2227 26.8861C23.3398 26.851 23.6035 26.681 23.8027 26.5111C24.084 26.2709 24.6934 25.931 26.5273 24.9994C28.7598 23.8627 28.8945 23.7865 29.0176 23.5638C29.1465 23.3412 29.1523 23.265 29.1523 21.9642C29.1523 20.6869 29.1465 20.599 29.0527 20.6283C28.9941 20.6459 27.7344 21.0033 26.252 21.431C24.2188 22.0111 23.4512 22.2103 23.1172 22.2279C22.6895 22.2572 22.5898 22.2279 19.7891 21.431C18.2012 20.974 16.8945 20.6049 16.877 20.6049C16.8594 20.6049 16.8477 21.2201 16.8477 21.9642Z" fill="white" fill-opacity="0.8"/>
<path d="M10.2734 29.4012C9.93359 29.577 9.81641 29.8641 9.81641 30.5028V31.0301L14.2285 31.0477C18.5234 31.0712 18.6523 31.077 19.3672 31.2059C20.6562 31.4462 21.5645 31.7626 22.5547 32.3133C23.0059 32.5712 23.0234 32.5712 23.1699 32.4774C23.5273 32.2489 24.4766 31.7977 24.957 31.6278C25.6016 31.3993 26.6855 31.1766 27.541 31.0946C27.9102 31.0594 29.8848 31.036 32.1875 31.036H36.1836V30.5087C36.1836 29.8524 36.0664 29.577 35.7148 29.3954C35.4922 29.2782 35.3809 29.2782 30.793 29.2782C26.7559 29.2782 26.041 29.2899 25.6543 29.3719C24.7695 29.5536 24.1484 29.8876 23.457 30.5614L23 30.995L22.5488 30.5614C21.8516 29.8876 21.2305 29.5536 20.3457 29.3719C19.959 29.2899 19.25 29.2782 15.1953 29.2782C10.625 29.2841 10.4844 29.2841 10.2734 29.4012Z" fill="white"/>
<path d="M8.45703 32.914C8.20508 33.043 8 33.3887 8 33.6699C8 33.957 8.20508 34.2969 8.46289 34.4258C8.67969 34.5371 8.86133 34.543 13.5723 34.5664C18.2773 34.584 18.4824 34.5898 19.0156 34.7129C20.0059 34.9297 20.5449 35.1641 21.3184 35.7031C21.957 36.1543 22.3086 36.2715 23 36.2715C23.6914 36.2715 24.0488 36.1484 24.6934 35.6973C25.5664 35.082 26.4922 34.748 27.7051 34.6133C28.0566 34.5723 29.9609 34.5488 32.7852 34.5488C37.1973 34.5488 37.3086 34.5488 37.5312 34.4316C37.7949 34.2969 38 33.9629 38 33.6699C38 33.3769 37.7949 33.043 37.5254 32.9082C37.291 32.7851 37.25 32.7851 32.3574 32.8086C28.0391 32.8262 27.3594 32.8437 26.9258 32.9258C25.7012 33.1719 24.6641 33.5703 23.9023 34.1094C23.0938 34.6719 22.8711 34.6836 22.2383 34.1973C21.3652 33.5234 19.9238 33.0137 18.418 32.8555C18.0664 32.8144 16.0977 32.791 13.2617 32.791C8.80859 32.7969 8.66797 32.7969 8.45703 32.914Z" fill="white"/>
</svg>
