<svg width="46" height="46" viewBox="0 0 46 46" fill="none" xmlns="http://www.w3.org/2000/svg">
<circle cx="23" cy="23" r="23" fill="#27A0EC"/>
<g clip-path="url(#clip0_4_3378)">
<path d="M21.75 14.2108L20.0313 12.8345C19.8088 12.657 19.5338 12.5608 19.25 12.5608H11.75C11.06 12.5608 10.5 13.1208 10.5 13.8108V30.0608C10.5 30.7508 11.06 31.3108 11.75 31.3108H18.8113L21.75 33.6233V14.2108Z" fill="white"/>
<path d="M32.9497 12.5608H25.4497C25.166 12.5608 24.891 12.657 24.6685 12.8345L22.9497 14.2108V33.6233L25.8885 31.3108H32.9497C33.6397 31.3108 34.1997 30.7508 34.1997 30.0608V13.8108C34.1997 13.1208 33.6397 12.5608 32.9497 12.5608Z" fill="white"/>
<path d="M33 12.5613H25.5C25.2162 12.5613 24.9412 12.6575 24.7187 12.835L23 14.2113V33.6238L25.9387 31.3113H33C33.69 31.3113 34.25 30.7513 34.25 30.0613V13.8113C34.25 13.1213 33.69 12.5613 33 12.5613Z" fill="white"/>
</g>
<defs>
<clipPath id="clip0_4_3378">
<rect width="30" height="30" fill="white" transform="translate(8 7.56006)"/>
</clipPath>
</defs>
</svg>
