<svg width="48" height="48" viewBox="0 0 48 48" fill="none" xmlns="http://www.w3.org/2000/svg">
<rect width="47.0222" height="47.0222" rx="10" fill="#1BBD67"/>
<g clip-path="url(#clip0_4_3389)">
<path d="M10.045 9.10547C9.33605 9.29297 8.77941 9.71484 8.38683 10.3652C7.98253 11.0449 8.00011 10.6113 8.00011 19.7051C8.00011 27.5684 8.00597 27.9082 8.11144 28.1367C8.17003 28.2715 8.31066 28.4414 8.41613 28.5176L8.61535 28.6582H23.0001H37.3849L37.5841 28.5176C37.6896 28.4414 37.8302 28.2715 37.8888 28.1367C37.9943 27.9082 38.0001 27.5684 38.0001 19.6934C38.0001 10.7285 38.0118 11.0918 37.6603 10.4414C37.297 9.77344 36.5177 9.19922 35.7794 9.05859C35.5743 9.02344 31.1036 9 22.9474 9.00586C11.3107 9.00586 10.4025 9.01172 10.045 9.10547ZM32.8204 11.9648C33.0372 12.0703 33.2189 12.3281 33.2833 12.6152C33.336 12.873 33.1485 13.2773 32.8966 13.459L32.6974 13.5996H22.9943H13.2911L13.0861 13.4414C12.7931 13.2188 12.6583 12.8496 12.7403 12.5332C12.8048 12.2871 13.0392 12.0117 13.2443 11.9238C13.3087 11.9004 17.6974 11.877 22.9884 11.877C31.7189 11.8711 32.6388 11.8828 32.8204 11.9648ZM16.7892 16.6641C17.1993 16.8691 17.3868 17.4316 17.1759 17.8359C17.0763 18.0234 15.0548 20.0332 14.8732 20.127C14.6446 20.2441 14.3107 20.2031 14.0294 20.0273C13.6193 19.7637 12.8165 18.8789 12.7462 18.6094C12.5997 18.0586 13.0333 17.4961 13.6017 17.4961C13.8009 17.4961 14.1466 17.6836 14.3575 17.9004L14.5275 18.082L15.2364 17.3848C15.6232 16.998 16.004 16.6523 16.0861 16.623C16.3087 16.5352 16.5665 16.5469 16.7892 16.6641ZM32.879 17.6484C33.172 17.8652 33.2775 18.0586 33.2775 18.375C33.2775 18.7031 33.1603 18.9082 32.8439 19.1191L32.6505 19.2539H26.3165C20.4044 19.2539 19.9708 19.248 19.7833 19.1484C19.5021 19.0078 19.3556 18.7852 19.3263 18.4512C19.2911 18.0703 19.4435 17.8008 19.7833 17.625L20.0411 17.4961L26.381 17.5078C32.6798 17.5254 32.7208 17.5254 32.879 17.6484ZM14.0821 22.3652C14.1349 22.4062 14.2638 22.5176 14.3634 22.6055L14.5392 22.7695L14.715 22.5879C14.9493 22.3359 15.1778 22.2305 15.4767 22.2305C15.9747 22.2305 16.3204 22.5879 16.3204 23.0977C16.3204 23.4023 16.2501 23.543 15.9571 23.8594C15.7989 24.0293 15.7931 24.0469 15.8868 24.123C15.9454 24.1699 16.0626 24.3105 16.1564 24.4336C16.4435 24.832 16.3439 25.5 15.9571 25.7051C15.5411 25.9277 15.1486 25.8691 14.7677 25.5176L14.5216 25.2891L14.4103 25.4121C13.9708 25.8984 13.3614 25.9746 12.9747 25.5879C12.6173 25.2246 12.6407 24.7031 13.0392 24.2695L13.2618 24.0293L13.0392 23.7832C12.6759 23.3965 12.6232 22.9688 12.8927 22.5586C13.1095 22.2188 13.754 22.1191 14.0821 22.3652ZM32.8907 23.2969C33.1368 23.4492 33.336 23.877 33.2892 24.1406C33.2364 24.4102 33.0489 24.6855 32.8321 24.8027C32.6505 24.9023 32.2931 24.9082 26.2696 24.9082H19.9005L19.7364 24.7852C19.2208 24.4043 19.1622 23.7832 19.6134 23.3789C19.6837 23.3086 19.7892 23.2383 19.8361 23.2207C19.8829 23.2031 22.8009 23.1855 26.3107 23.1855C32.6212 23.1797 32.6974 23.1797 32.8907 23.2969Z" fill="white"/>
<path d="M8 31.0002C8 31.3987 8.0293 31.8674 8.06445 32.0373C8.29297 33.1331 9.26562 34.0354 10.373 34.1936C10.9297 34.2698 35.0703 34.2698 35.627 34.1936C36.2305 34.1057 36.793 33.8127 37.2207 33.3557C37.8184 32.717 38 32.1663 38 31.0237V30.2795L37.7246 30.3616C37.3203 30.4846 8.67969 30.4846 8.27539 30.3616L8 30.2795V31.0002Z" fill="white" fill-opacity="0.6"/>
<path d="M18.3716 36.627V37.2363L16.7661 37.2539C15.2368 37.2715 15.1489 37.2773 14.9907 37.3945C14.4868 37.7754 14.4868 38.4668 14.9907 38.8477L15.1548 38.9707H23.0005H30.8462L31.0103 38.8477C31.5142 38.4668 31.5142 37.7754 31.0103 37.3945C30.8521 37.2773 30.7642 37.2715 29.2349 37.2539L27.6294 37.2363V36.627V36.0117H23.0005H18.3716V36.627Z" fill="white"/>
</g>
<defs>
<clipPath id="clip0_4_3389">
<rect width="30" height="30" fill="white" transform="translate(8 9)"/>
</clipPath>
</defs>
</svg>
