<svg width="100" height="100" viewBox="0 0 100 100" fill="none" xmlns="http://www.w3.org/2000/svg">
<g clip-path="url(#clip0_12130_803)">
<path opacity="0.5" fill-rule="evenodd" clip-rule="evenodd" d="M35 33.5C35 31.5109 35.7902 29.6032 37.1967 28.1967C38.6032 26.7902 40.5109 26 42.5 26C44.4891 26 46.3968 26.7902 47.8033 28.1967C49.2098 29.6032 50 31.5109 50 33.5C50 31.5109 50.7902 29.6032 52.1967 28.1967C53.6032 26.7902 55.5109 26 57.5 26C59.4891 26 61.3968 26.7902 62.8033 28.1967C64.2098 29.6032 65 31.5109 65 33.5V33.518C65 33.728 65 34.328 64.886 35H71C71.7956 35 72.5587 35.3161 73.1213 35.8787C73.6839 36.4413 74 37.2044 74 38V41C74 41.7956 73.6839 42.5587 73.1213 43.1213C72.5587 43.6839 71.7956 44 71 44H29C28.2044 44 27.4413 43.6839 26.8787 43.1213C26.3161 42.5587 26 41.7956 26 41V38C26 37.2044 26.3161 36.4413 26.8787 35.8787C27.4413 35.3161 28.2044 35 29 35H35.114C35.0348 34.51 34.9966 34.0143 35 33.518V33.5ZM38.204 35H47V33.5C47 32.9091 46.8836 32.3239 46.6575 31.7779C46.4313 31.232 46.0998 30.7359 45.682 30.318C45.2641 29.9002 44.768 29.5687 44.2221 29.3425C43.6761 29.1164 43.0909 29 42.5 29C41.9091 29 41.3239 29.1164 40.7779 29.3425C40.232 29.5687 39.7359 29.9002 39.318 30.318C38.9002 30.7359 38.5687 31.232 38.3425 31.7779C38.1164 32.3239 38 32.9091 38 33.5C38 33.755 38.006 34.322 38.135 34.79C38.153 34.8615 38.1761 34.9317 38.204 35V35ZM53 35H61.796C61.8236 34.9316 61.8466 34.8614 61.865 34.79C61.994 34.322 62 33.755 62 33.5C62 32.3065 61.5259 31.1619 60.682 30.318C59.8381 29.4741 58.6935 29 57.5 29C56.3065 29 55.1619 29.4741 54.318 30.318C53.4741 31.1619 53 32.3065 53 33.5V35Z" fill="url(#paint0_linear_12130_803)"/>
<path d="M71 47V69.5C71 70.6935 70.5259 71.8381 69.682 72.682C68.8381 73.5259 67.6935 74 66.5 74H53V47H71ZM33.5 74C32.3065 74 31.1619 73.5259 30.318 72.682C29.4741 71.8381 29 70.6935 29 69.5V47H47V74H33.5Z" fill="url(#paint1_linear_12130_803)"/>
</g>
<defs>
<linearGradient id="paint0_linear_12130_803" x1="29.456" y1="26.2398" x2="68.2328" y2="52.2969" gradientUnits="userSpaceOnUse">
<stop stop-color="#006FED"/>
<stop offset="0.1875" stop-color="#0077FF"/>
<stop offset="1" stop-color="#00F0FF"/>
</linearGradient>
<linearGradient id="paint1_linear_12130_803" x1="32.024" y1="47.3598" x2="74.7151" y2="64.0941" gradientUnits="userSpaceOnUse">
<stop stop-color="#006FED"/>
<stop offset="0.1875" stop-color="#0077FF"/>
<stop offset="1" stop-color="#00F0FF"/>
</linearGradient>
<clipPath id="clip0_12130_803">
<rect width="48" height="48" fill="white" transform="translate(26 26)"/>
</clipPath>
</defs>
</svg>
