<svg width="100" height="100" viewBox="0 0 100 100" fill="none" xmlns="http://www.w3.org/2000/svg">
<path fill-rule="evenodd" clip-rule="evenodd" d="M36.9381 29.9378C37.0775 29.7981 37.243 29.6872 37.4252 29.6116C37.6075 29.536 37.8028 29.4971 38.0001 29.4971C38.1974 29.4971 38.3928 29.536 38.575 29.6116C38.7573 29.6872 38.9228 29.7981 39.0621 29.9378L57.0621 47.9378C57.2018 48.0771 57.3126 48.2426 57.3883 48.4249C57.4639 48.6071 57.5028 48.8024 57.5028 48.9998C57.5028 49.1971 57.4639 49.3924 57.3883 49.5747C57.3126 49.7569 57.2018 49.9224 57.0621 50.0618L39.0621 68.0618C38.7805 68.3434 38.3984 68.5016 38.0001 68.5016C37.6018 68.5016 37.2198 68.3434 36.9381 68.0618C36.6565 67.7801 36.4982 67.3981 36.4982 66.9998C36.4982 66.6014 36.6565 66.2194 36.9381 65.9378L53.8791 48.9998L36.9381 32.0618C36.7984 31.9224 36.6876 31.7569 36.612 31.5747C36.5364 31.3924 36.4974 31.1971 36.4974 30.9998C36.4974 30.8024 36.5364 30.6071 36.612 30.4249C36.6876 30.2426 36.7984 30.0771 36.9381 29.9378V29.9378Z" fill="url(#paint0_linear_12130_853)"/>
<path fill-rule="evenodd" clip-rule="evenodd" d="M48.9381 29.9378C49.0775 29.7981 49.243 29.6872 49.4252 29.6116C49.6075 29.536 49.8028 29.4971 50.0001 29.4971C50.1974 29.4971 50.3928 29.536 50.575 29.6116C50.7573 29.6872 50.9228 29.7981 51.0621 29.9378L69.0621 47.9378C69.2018 48.0771 69.3126 48.2426 69.3883 48.4249C69.4639 48.6071 69.5028 48.8024 69.5028 48.9998C69.5028 49.1971 69.4639 49.3924 69.3883 49.5747C69.3126 49.7569 69.2018 49.9224 69.0621 50.0618L51.0621 68.0618C50.7805 68.3434 50.3984 68.5016 50.0001 68.5016C49.6018 68.5016 49.2198 68.3434 48.9381 68.0618C48.6565 67.7801 48.4982 67.3981 48.4982 66.9998C48.4982 66.6014 48.6565 66.2194 48.9381 65.9378L65.8791 48.9998L48.9381 32.0618C48.7984 31.9224 48.6876 31.7569 48.612 31.5747C48.5364 31.3924 48.4974 31.1971 48.4974 30.9998C48.4974 30.8024 48.5364 30.6071 48.612 30.4249C48.6876 30.2426 48.7984 30.0771 48.9381 29.9378V29.9378Z" fill="url(#paint1_linear_12130_853)"/>
<defs>
<linearGradient id="paint0_linear_12130_853" x1="47.0001" y1="29.4971" x2="47.0001" y2="68.5016" gradientUnits="userSpaceOnUse">
<stop stop-color="#F4B941"/>
<stop offset="1" stop-color="#EA496F"/>
</linearGradient>
<linearGradient id="paint1_linear_12130_853" x1="59.0001" y1="29.4971" x2="59.0001" y2="68.5016" gradientUnits="userSpaceOnUse">
<stop stop-color="#F4B941"/>
<stop offset="1" stop-color="#EA496F"/>
</linearGradient>
</defs>
</svg>
