<svg width="100" height="100" viewBox="0 0 100 100" fill="none" xmlns="http://www.w3.org/2000/svg">
<path fill-rule="evenodd" clip-rule="evenodd" d="M68 44H56V50H68V44ZM68 53H56V59H68V53ZM68 62H56V71H62C63.5913 71 65.1174 70.3679 66.2426 69.2426C67.3679 68.1174 68 66.5913 68 65V62ZM53 71V62H44V71H53ZM41 71V62H32V65C32 66.5913 32.6321 68.1174 33.7574 69.2426C34.8826 70.3679 36.4087 71 38 71H41ZM32 59H41V53H32V59ZM32 50H41V44H32V50ZM44 50V44H53V50H44ZM44 53H53V59H44V53Z" fill="url(#paint0_linear_12130_771)"/>
<path d="M38 29H62C63.5913 29 65.1174 29.6321 66.2426 30.7574C67.3679 31.8826 68 33.4087 68 35V41H32V35C32 33.4087 32.6321 31.8826 33.7574 30.7574C34.8826 29.6321 36.4087 29 38 29Z" fill="url(#paint1_linear_12130_771)"/>
<defs>
<linearGradient id="paint0_linear_12130_771" x1="34.592" y1="44.3598" x2="72.5247" y2="57.1047" gradientUnits="userSpaceOnUse">
<stop stop-color="#006FED"/>
<stop offset="0.1875" stop-color="#0077FF"/>
<stop offset="1" stop-color="#00F0FF"/>
</linearGradient>
<linearGradient id="paint1_linear_12130_771" x1="50" y1="29" x2="50" y2="41" gradientUnits="userSpaceOnUse">
<stop stop-color="#F4B941"/>
<stop offset="1" stop-color="#EA496F"/>
</linearGradient>
</defs>
</svg>
