<svg width="100" height="100" viewBox="0 0 100 100" fill="none" xmlns="http://www.w3.org/2000/svg">
<path d="M49.9998 26L55.0068 28.592L60.5808 29.438L63.1068 34.478L67.1178 38.438L66.1998 44L67.1178 49.562L63.1068 53.522L60.5808 58.562L55.0068 59.408L49.9998 62L44.9928 59.408L39.4188 58.562L36.8928 53.522L32.8818 49.562L33.7998 44L32.8818 38.438L36.8928 34.478L39.4188 29.438L44.9928 28.592L49.9998 26Z" fill="url(#paint0_linear_12130_797)"/>
<path opacity="0.5" d="M38 61.3818V73.9998L50 70.9998L62 73.9998V61.3818L55.946 62.2998L50 65.3778L44.054 62.2998L38 61.3818Z" fill="url(#paint1_linear_12130_797)"/>
<defs>
<linearGradient id="paint0_linear_12130_797" x1="35.3468" y1="26.4797" x2="73.3128" y2="35.578" gradientUnits="userSpaceOnUse">
<stop stop-color="#006FED"/>
<stop offset="0.1875" stop-color="#0077FF"/>
<stop offset="1" stop-color="#00F0FF"/>
</linearGradient>
<linearGradient id="paint1_linear_12130_797" x1="39.728" y1="61.55" x2="62.6138" y2="72.5191" gradientUnits="userSpaceOnUse">
<stop stop-color="#006FED"/>
<stop offset="0.1875" stop-color="#0077FF"/>
<stop offset="1" stop-color="#00F0FF"/>
</linearGradient>
</defs>
</svg>
