<svg width="100" height="100" viewBox="0 0 100 100" fill="none" xmlns="http://www.w3.org/2000/svg">
<path fill-rule="evenodd" clip-rule="evenodd" d="M26 32C26 30.8065 26.4741 29.6619 27.318 28.818C28.1619 27.9741 29.3065 27.5 30.5 27.5H63.5C64.6935 27.5 65.8381 27.9741 66.682 28.818C67.5259 29.6619 68 30.8065 68 32V68C68 69.1935 67.5259 70.3381 66.682 71.182C65.8381 72.0259 64.6935 72.5 63.5 72.5H30.5C29.3065 72.5 28.1619 72.0259 27.318 71.182C26.4741 70.3381 26 69.1935 26 68V32ZM30.5 30.5C30.1022 30.5 29.7206 30.658 29.4393 30.9393C29.158 31.2206 29 31.6022 29 32V68C29 68.3978 29.158 68.7794 29.4393 69.0607C29.7206 69.342 30.1022 69.5 30.5 69.5H63.5C63.8978 69.5 64.2794 69.342 64.5607 69.0607C64.842 68.7794 65 68.3978 65 68V32C65 31.6022 64.842 31.2206 64.5607 30.9393C64.2794 30.658 63.8978 30.5 63.5 30.5H30.5Z" fill="url(#paint0_linear_12130_740)"/>
<path fill-rule="evenodd" clip-rule="evenodd" d="M72.5 35C72.8978 35 73.2794 35.158 73.5607 35.4393C73.842 35.7206 74 36.1022 74 36.5V68C74 69.1935 73.5259 70.3381 72.682 71.182C71.8381 72.0259 70.6935 72.5 69.5 72.5H60.5V69.5H69.5C69.8978 69.5 70.2794 69.342 70.5607 69.0607C70.842 68.7794 71 68.3978 71 68V36.5C71 36.1022 71.158 35.7206 71.4393 35.4393C71.7206 35.158 72.1022 35 72.5 35V35Z" fill="url(#paint1_linear_12130_740)"/>
<path d="M32 56H44V59H32V56ZM32 62H44V65H32V62ZM47 56H53V59H47V56ZM56 56H62V59H56V56ZM47 62H53V65H47V62ZM56 62H62V65H56V62Z" fill="url(#paint2_linear_12130_740)"/>
<path d="M62 35H32V41H62V35Z" fill="url(#paint3_linear_12130_740)"/>
<path d="M44 44H32V53H44V44Z" fill="url(#paint4_linear_12130_740)"/>
<path d="M53 44H47V47H53V44Z" fill="url(#paint5_linear_12130_740)"/>
<path d="M62 44H56V47H62V44Z" fill="url(#paint6_linear_12130_740)"/>
<path d="M53 50H47V53H53V50Z" fill="url(#paint7_linear_12130_740)"/>
<path d="M62 50H56V53H62V50Z" fill="url(#paint8_linear_12130_740)"/>
<defs>
<linearGradient id="paint0_linear_12130_740" x1="29.024" y1="28.0996" x2="75.6932" y2="39.0758" gradientUnits="userSpaceOnUse">
<stop stop-color="#006FED"/>
<stop offset="0.1875" stop-color="#0077FF"/>
<stop offset="1" stop-color="#00F0FF"/>
</linearGradient>
<linearGradient id="paint1_linear_12130_740" x1="61.472" y1="35.4997" x2="77.1734" y2="36.9241" gradientUnits="userSpaceOnUse">
<stop stop-color="#006FED"/>
<stop offset="0.1875" stop-color="#0077FF"/>
<stop offset="1" stop-color="#00F0FF"/>
</linearGradient>
<linearGradient id="paint2_linear_12130_740" x1="34.16" y1="56.1199" x2="54.7862" y2="73.4453" gradientUnits="userSpaceOnUse">
<stop stop-color="#006FED"/>
<stop offset="0.1875" stop-color="#0077FF"/>
<stop offset="1" stop-color="#00F0FF"/>
</linearGradient>
<linearGradient id="paint3_linear_12130_740" x1="47" y1="35" x2="47" y2="41" gradientUnits="userSpaceOnUse">
<stop stop-color="#F4B941"/>
<stop offset="1" stop-color="#EA496F"/>
</linearGradient>
<linearGradient id="paint4_linear_12130_740" x1="32.864" y1="44.1199" x2="45.5082" y2="48.3682" gradientUnits="userSpaceOnUse">
<stop stop-color="#006FED"/>
<stop offset="0.1875" stop-color="#0077FF"/>
<stop offset="1" stop-color="#00F0FF"/>
</linearGradient>
<linearGradient id="paint5_linear_12130_740" x1="48.08" y1="44.1199" x2="63.0322" y2="50.3996" gradientUnits="userSpaceOnUse">
<stop stop-color="#006FED"/>
<stop offset="0.1875" stop-color="#0077FF"/>
<stop offset="1" stop-color="#00F0FF"/>
</linearGradient>
<linearGradient id="paint6_linear_12130_740" x1="48.08" y1="44.1199" x2="63.0322" y2="50.3996" gradientUnits="userSpaceOnUse">
<stop stop-color="#006FED"/>
<stop offset="0.1875" stop-color="#0077FF"/>
<stop offset="1" stop-color="#00F0FF"/>
</linearGradient>
<linearGradient id="paint7_linear_12130_740" x1="48.08" y1="44.1199" x2="63.0322" y2="50.3996" gradientUnits="userSpaceOnUse">
<stop stop-color="#006FED"/>
<stop offset="0.1875" stop-color="#0077FF"/>
<stop offset="1" stop-color="#00F0FF"/>
</linearGradient>
<linearGradient id="paint8_linear_12130_740" x1="48.08" y1="44.1199" x2="63.0322" y2="50.3996" gradientUnits="userSpaceOnUse">
<stop stop-color="#006FED"/>
<stop offset="0.1875" stop-color="#0077FF"/>
<stop offset="1" stop-color="#00F0FF"/>
</linearGradient>
</defs>
</svg>
