<svg width="30" height="30" viewBox="0 0 30 30" fill="none" xmlns="http://www.w3.org/2000/svg">
<path d="M25.6055 17.5781H15.8789V14.9941H18.5156C21.1171 13.6933 22.9102 11.0039 22.9102 7.91016C22.9102 3.55072 19.3593 0 15 0C10.6407 0 7.08984 3.55072 7.08984 7.91016C7.08984 11.0039 8.88287 13.6933 11.4844 14.9941H14.1211V17.5781H4.39453C3.90873 17.5781 3.51562 17.9712 3.51562 18.457V22.0898C3.51562 22.5756 3.90873 22.9688 4.39453 22.9688C4.88033 22.9688 5.27344 22.5756 5.27344 22.0898V19.3359H14.1211V22.0898C14.1211 22.5756 14.5142 22.9688 15 22.9688C15.4858 22.9688 15.8789 22.5756 15.8789 22.0898V19.3359H24.7266V22.0898C24.7266 22.5756 25.1197 22.9688 25.6055 22.9688C26.0913 22.9688 26.4844 22.5756 26.4844 22.0898V18.457C26.4844 17.9712 26.0913 17.5781 25.6055 17.5781Z" fill="url(#paint0_linear_193_4462)"/>
<path d="M4.39453 21.2109C1.97068 21.2109 0 23.1824 0 25.6055C0 28.0285 1.97068 30 4.39453 30C6.81838 30 8.78906 28.0285 8.78906 25.6055C8.78906 23.1824 6.81838 21.2109 4.39453 21.2109ZM15 21.2109C12.5762 21.2109 10.6055 23.1824 10.6055 25.6055C10.6055 28.0285 12.5762 30 15 30C17.4238 30 19.3945 28.0285 19.3945 25.6055C19.3945 23.1824 17.4238 21.2109 15 21.2109ZM25.6055 21.2109C23.1816 21.2109 21.2109 23.1824 21.2109 25.6055C21.2109 28.0285 23.1816 30 25.6055 30C28.0293 30 30 28.0285 30 25.6055C30 23.1824 28.0293 21.2109 25.6055 21.2109Z" fill="url(#paint1_linear_193_4462)"/>
<path d="M15 3.39453C16.4539 3.39453 17.6367 4.5773 17.6367 6.03125C17.6367 7.4852 16.4539 8.66797 15 8.66797H16.7578C17.7247 8.66797 18.5156 9.45898 18.5156 10.4258V13.9941C17.461 14.5214 16.2656 14.8203 15 14.8203C13.7344 14.8203 12.539 14.5214 11.4844 13.9941V10.4258C11.4844 9.45898 12.2753 8.66797 13.2422 8.66797H15C13.5461 8.66797 12.3633 7.4852 12.3633 6.03125C12.3633 4.5773 13.5461 3.39453 15 3.39453Z" fill="url(#paint2_linear_193_4462)"/>
<defs>
<linearGradient id="paint0_linear_193_4462" x1="5.16938" y1="0.306055" x2="30.4952" y2="6.68793" gradientUnits="userSpaceOnUse">
<stop stop-color="#006FED"/>
<stop offset="0.1875" stop-color="#0077FF"/>
<stop offset="1" stop-color="#00F0FF"/>
</linearGradient>
<linearGradient id="paint1_linear_193_4462" x1="15" y1="21.2109" x2="15" y2="30" gradientUnits="userSpaceOnUse">
<stop stop-color="#F4B941"/>
<stop offset="1" stop-color="#EA496F"/>
</linearGradient>
<linearGradient id="paint2_linear_193_4462" x1="11.4844" y1="9.10742" x2="18.5156" y2="9.10742" gradientUnits="userSpaceOnUse">
<stop stop-color="#FFF1B0"/>
<stop offset="1" stop-color="#FFC994"/>
</linearGradient>
</defs>
</svg>
