<svg width="12" height="12" viewBox="0 0 12 12" fill="none" xmlns="http://www.w3.org/2000/svg">
<rect width="12" height="12" rx="6" fill="#3E4347"/>
<path d="M7.1875 6.61328H8.35547C8.33203 6.99609 8.22656 7.33594 8.03906 7.63281C7.85417 7.92969 7.59505 8.16146 7.26172 8.32812C6.93099 8.49479 6.53255 8.57812 6.06641 8.57812C5.70182 8.57812 5.375 8.51562 5.08594 8.39062C4.79688 8.26302 4.54948 8.08073 4.34375 7.84375C4.14062 7.60677 3.98568 7.32031 3.87891 6.98438C3.77214 6.64844 3.71875 6.27214 3.71875 5.85547V5.46094C3.71875 5.04427 3.77344 4.66797 3.88281 4.33203C3.99479 3.99349 4.15365 3.70573 4.35938 3.46875C4.56771 3.23177 4.81641 3.04948 5.10547 2.92188C5.39453 2.79427 5.71745 2.73047 6.07422 2.73047C6.54818 2.73047 6.94792 2.81641 7.27344 2.98828C7.60156 3.16016 7.85547 3.39714 8.03516 3.69922C8.21745 4.0013 8.32682 4.34505 8.36328 4.73047H7.19141C7.17839 4.5013 7.13281 4.30729 7.05469 4.14844C6.97656 3.98698 6.85807 3.86589 6.69922 3.78516C6.54297 3.70182 6.33464 3.66016 6.07422 3.66016C5.87891 3.66016 5.70833 3.69661 5.5625 3.76953C5.41667 3.84245 5.29427 3.95312 5.19531 4.10156C5.09635 4.25 5.02214 4.4375 4.97266 4.66406C4.92578 4.88802 4.90234 5.15104 4.90234 5.45312V5.85547C4.90234 6.14974 4.92448 6.40885 4.96875 6.63281C5.01302 6.85417 5.08073 7.04167 5.17188 7.19531C5.26562 7.34635 5.38542 7.46094 5.53125 7.53906C5.67969 7.61458 5.85807 7.65234 6.06641 7.65234C6.3112 7.65234 6.51302 7.61328 6.67188 7.53516C6.83073 7.45703 6.95182 7.34115 7.03516 7.1875C7.12109 7.03385 7.17188 6.84245 7.1875 6.61328Z" fill="#F4F7FF"/>
</svg>
