<svg width="32" height="32" viewBox="0 0 32 32" fill="none" xmlns="http://www.w3.org/2000/svg">
<g clip-path="url(#clip0_946_21356)" filter="url(#filter0_d_946_21356)">
<circle cx="16.2655" cy="12.7695" r="7.42462" transform="rotate(92.59 16.2655 12.7695)" fill="white"/>
<path fill-rule="evenodd" clip-rule="evenodd" d="M19.3845 11.8497L18.4186 12.3112L17.5951 9.7117L15.4341 10.7548L15.0678 9.59849L18.1921 8.08574L19.3845 11.8497ZM13.6244 13.5144L14.5903 13.0529L15.4138 15.6525L17.5748 14.6094L17.9458 15.7681L14.8168 17.2784L13.6244 13.5144Z" fill="#505D6F"/>
<mask id="mask0_946_21356" style="mask-type:alpha" maskUnits="userSpaceOnUse" x="13" y="8" width="7" height="10">
<path fill-rule="evenodd" clip-rule="evenodd" d="M19.3845 11.8497L18.4186 12.3112L17.5951 9.7117L15.4341 10.7548L15.0678 9.59849L18.1921 8.08574L19.3845 11.8497ZM13.6244 13.5144L14.5903 13.0529L15.4138 15.6525L17.5748 14.6094L17.9458 15.7681L14.8168 17.2784L13.6244 13.5144Z" fill="white"/>
</mask>
<g mask="url(#mask0_946_21356)">
</g>
</g>
<defs>
<filter id="filter0_d_946_21356" x="0.512939" y="0.0170898" width="31.5051" height="31.5049" filterUnits="userSpaceOnUse" color-interpolation-filters="sRGB">
<feFlood flood-opacity="0" result="BackgroundImageFix"/>
<feColorMatrix in="SourceAlpha" type="matrix" values="0 0 0 0 0 0 0 0 0 0 0 0 0 0 0 0 0 0 127 0" result="hardAlpha"/>
<feOffset dy="3"/>
<feGaussianBlur stdDeviation="4"/>
<feColorMatrix type="matrix" values="0 0 0 0 0.439216 0 0 0 0 0.470588 0 0 0 0 0.529412 0 0 0 0.24 0"/>
<feBlend mode="normal" in2="BackgroundImageFix" result="effect1_dropShadow_946_21356"/>
<feBlend mode="normal" in="SourceGraphic" in2="effect1_dropShadow_946_21356" result="shape"/>
</filter>
<clipPath id="clip0_946_21356">
<rect width="14.8492" height="14.8492" fill="white" transform="translate(24.0181 5.68799) rotate(92.59)"/>
</clipPath>
</defs>
</svg>
