<svg width="42" height="42" viewBox="0 0 42 42" fill="none" xmlns="http://www.w3.org/2000/svg">
<rect width="42" height="42" rx="5" fill="#3A9679"/>
<path d="M28.2336 10.6994H24.2056C23.6735 9.23003 22.2802 8.16602 20.6335 8.16602C18.9868 8.16602 17.5934 9.23003 17.0614 10.6994H13.0334C11.64 10.6994 10.5 11.8394 10.5 13.2328V32.2331C10.5 33.6264 11.64 34.7665 13.0334 34.7665H20.7728C20.0255 34.0445 19.4175 33.1831 18.9741 32.2331H13.0334V13.2328H15.5667V17.0328H25.7002V13.2328H28.2336V19.6675C29.133 19.7942 29.9817 20.0602 30.767 20.4276V13.2328C30.767 11.8394 29.627 10.6994 28.2336 10.6994ZM20.6335 13.2328C19.9368 13.2328 19.3668 12.6628 19.3668 11.9661C19.3668 11.2694 19.9368 10.6994 20.6335 10.6994C21.3302 10.6994 21.9002 11.2694 21.9002 11.9661C21.9002 12.6628 21.3302 13.2328 20.6335 13.2328Z" fill="white"/>
<path d="M30.7672 22.1006L32.6672 24.0006L31.5604 25.109L30.4536 26.2173L28.2401 28.434L26.0266 30.6507L23.813 32.8674L20.9567 30.0174L18.1003 27.1673L20.0003 25.2673L23.813 29.0674L25.5516 27.3257L27.2901 25.584C27.2901 25.584 28.3497 24.5225 29.0286 23.8423C29.7076 23.1621 30.7672 22.1006 30.7672 22.1006Z" fill="white"/>
</svg>
