<svg width="40" height="40" viewBox="0 0 40 40" fill="none" xmlns="http://www.w3.org/2000/svg">
<path d="M0 20C0 8.95431 8.95431 0 20 0V0C31.0457 0 40 8.95431 40 20V20C40 31.0457 31.0457 40 20 40V40C8.95431 40 0 31.0457 0 20V20Z" fill="#F0F2F5"/>
<path fill-rule="evenodd" clip-rule="evenodd" d="M20.7188 30.3125C20.6276 30.3125 20.5401 30.2763 20.4757 30.2118C20.4112 30.1474 20.375 30.0599 20.375 29.9688C20.375 29.8776 20.4112 29.7901 20.4757 29.7257C20.5401 29.6612 20.6276 29.625 20.7188 29.625H21.4062V28.9375C21.4061 28.3538 21.5711 27.7819 21.8822 27.288C22.1932 26.7941 22.6377 26.3983 23.1642 26.1462C23.3636 26.0507 23.4688 25.8871 23.4688 25.7406V25.2594C23.4688 25.1129 23.3629 24.9493 23.1642 24.8537C22.6377 24.6017 22.1932 24.2059 21.8822 23.712C21.5711 23.2181 21.4061 22.6462 21.4062 22.0625V21.375H20.7188C20.6276 21.375 20.5401 21.3388 20.4757 21.2743C20.4112 21.2099 20.375 21.1224 20.375 21.0312C20.375 20.9401 20.4112 20.8526 20.4757 20.7882C20.5401 20.7237 20.6276 20.6875 20.7188 20.6875H28.2812C28.3724 20.6875 28.4599 20.7237 28.5243 20.7882C28.5888 20.8526 28.625 20.9401 28.625 21.0312C28.625 21.1224 28.5888 21.2099 28.5243 21.2743C28.4599 21.3388 28.3724 21.375 28.2812 21.375H27.5938V22.0625C27.5939 22.6462 27.4289 23.2181 27.1178 23.712C26.8068 24.2059 26.3623 24.6017 25.8358 24.8537C25.6364 24.9493 25.5312 25.1129 25.5312 25.2594V25.7406C25.5312 25.8871 25.6371 26.0507 25.8358 26.1462C26.3623 26.3983 26.8068 26.7941 27.1178 27.288C27.4289 27.7819 27.5939 28.3538 27.5938 28.9375V29.625H28.2812C28.3724 29.625 28.4599 29.6612 28.5243 29.7257C28.5888 29.7901 28.625 29.8776 28.625 29.9688C28.625 30.0599 28.5888 30.1474 28.5243 30.2118C28.4599 30.2763 28.3724 30.3125 28.2812 30.3125H20.7188ZM22.0938 21.375V22.0625C22.0938 22.4317 22.1762 22.7809 22.3254 23.0938H26.6746C26.8231 22.7809 26.9062 22.4317 26.9062 22.0625V21.375H22.0938ZM24.1562 25.7406C24.1562 26.2226 23.8276 26.5904 23.4612 26.7664C23.0516 26.9624 22.7059 27.2703 22.4639 27.6545C22.222 28.0387 22.0936 28.4835 22.0938 28.9375C22.0938 28.9375 22.6891 28.0444 24.1562 27.92V25.7406ZM24.8438 25.7406C24.8438 26.2226 25.1724 26.5904 25.5388 26.7664C25.9484 26.9624 26.2941 27.2703 26.5361 27.6545C26.778 28.0387 26.9064 28.4835 26.9062 28.9375C26.9062 28.9375 26.3109 28.0444 24.8438 27.92V25.7406Z" fill="#99AAB5" fill-opacity="0.6"/>
<path d="M26 12H22.82C22.4 10.84 21.3 10 20 10C18.7 10 17.6 10.84 17.18 12H14C12.9 12 12 12.9 12 14V29C12 30.1 12.9 31 14 31H20.11C19.52 30.43 19.04 29.75 18.69 29H14V14H16V17H24V14H26V19.08C26.71 19.18 27.38 19.39 28 19.68V14C28 12.9 27.1 12 26 12ZM20 14C19.45 14 19 13.55 19 13C19 12.45 19.45 12 20 12C20.55 12 21 12.45 21 13C21 13.55 20.55 14 20 14Z" fill="#99AAB5"/>
</svg>
