<svg width="54" height="54" viewBox="0 0 54 54" fill="none" xmlns="http://www.w3.org/2000/svg">
<rect x="1.5" y="1.5" width="50.0222" height="50.0222" rx="11.5" fill="#1DB054" stroke="white" stroke-width="3"/>
<path d="M37.3623 19.7249C36.2998 18.5499 34.5248 17.9624 31.9498 17.9624H31.6498V17.9124C31.6498 15.8124 31.6498 13.2124 26.9498 13.2124H25.0498C20.3498 13.2124 20.3498 15.8249 20.3498 17.9124V17.9749H20.0498C17.4623 17.9749 15.6998 18.5624 14.6373 19.7374C13.3998 21.1124 13.4373 22.9624 13.5623 24.2249L13.5748 24.3124L13.6998 25.6249C13.7123 25.6374 13.7373 25.6624 13.7623 25.6749C14.1748 25.9499 14.5998 26.2249 15.0498 26.4749C15.2248 26.5874 15.4123 26.6874 15.5998 26.7874C17.7373 27.9624 20.0873 28.7499 22.4748 29.1374C22.5873 30.3124 23.0998 31.6874 25.8373 31.6874C28.5748 31.6874 29.1123 30.3249 29.1998 29.1124C31.7498 28.6999 34.2123 27.8124 36.4373 26.5124C36.5123 26.4749 36.5623 26.4374 36.6248 26.3999C37.1998 26.0749 37.7373 25.7249 38.2623 25.3374C38.2873 25.3249 38.3123 25.2999 38.3248 25.2749L38.3748 24.8249L38.4373 24.2374C38.4498 24.1624 38.4498 24.0999 38.4623 24.0124C38.5623 22.7499 38.5373 21.0249 37.3623 19.7249ZM27.3623 28.2874C27.3623 29.6124 27.3623 29.8124 25.8248 29.8124C24.2873 29.8124 24.2873 29.5749 24.2873 28.2999V26.7249H27.3623V28.2874ZM22.1373 17.9624V17.9124C22.1373 15.7874 22.1373 14.9999 25.0498 14.9999H26.9498C29.8623 14.9999 29.8623 15.7999 29.8623 17.9124V17.9749H22.1373V17.9624Z" fill="white"/>
<path opacity="0.4" d="M36.6252 26.375C36.5627 26.4125 36.5002 26.45 36.4377 26.4875C34.2127 27.7875 31.7502 28.6625 29.2002 29.0875C29.1002 30.2875 28.5752 31.6625 25.8377 31.6625C23.1002 31.6625 22.5752 30.3 22.4752 29.1125C20.0877 28.7375 17.7377 27.95 15.6002 26.7625C15.4127 26.6625 15.2252 26.5625 15.0502 26.45C14.6002 26.2 14.1752 25.925 13.7627 25.65C13.7377 25.6375 13.7127 25.6125 13.7002 25.6L14.4627 33.7375C14.7252 36.225 15.7502 38.7875 21.2502 38.7875H30.7752C36.2752 38.7875 37.3002 36.225 37.5627 33.725L38.3502 25.25C38.3377 25.275 38.3127 25.3 38.2877 25.3125C37.7502 25.7 37.2002 26.0625 36.6252 26.375Z" fill="white"/>
</svg>
