<svg width="32" height="32" viewBox="0 0 32 32" fill="none" xmlns="http://www.w3.org/2000/svg">
<path opacity="0.6" d="M16.0001 18.1333C13.0545 18.1333 10.6667 20.521 10.6667 23.4666C10.6667 26.4117 13.0545 28.8 16.0001 28.8C18.9457 28.8 21.3334 26.4117 21.3334 23.4666C21.3334 20.521 18.9457 18.1333 16.0001 18.1333ZM18.799 23.2336L16.1323 25.3669C15.9499 25.5125 15.719 25.6 15.4667 25.6C15.1718 25.6 14.9051 25.4805 14.7126 25.2874L13.1126 23.6874C12.9195 23.4949 12.8001 23.2282 12.8001 22.9333C12.8001 22.3445 13.2779 21.8666 13.8667 21.8666C14.1617 21.8666 14.4283 21.9861 14.6209 22.1792L15.5457 23.104L17.4678 21.5664C17.6502 21.4208 17.8811 21.3333 18.1334 21.3333C18.7222 21.3333 19.2001 21.8112 19.2001 22.4C19.2001 22.7376 19.0438 23.0378 18.799 23.2336Z" fill="white"/>
<path d="M29.3334 12.2666H9.06672C8.56165 12.2666 8.14085 12.6186 8.03045 13.0901L4.82938 26.9615C4.81125 27.0383 4.80005 27.1178 4.80005 27.1999C4.80005 27.7887 5.27792 28.2666 5.86672 28.2666H11.0043C9.80645 27.0207 9.06672 25.3311 9.06672 23.4666C9.06672 19.6373 12.1707 16.5333 16 16.5333C19.8294 16.5333 22.9334 19.6373 22.9334 23.4666C22.9334 25.3311 22.1936 27.0207 20.9958 28.2666H26.1334C26.6385 28.2666 27.0592 27.9146 27.1697 27.4431L30.3707 13.5717C30.3888 13.4949 30.4001 13.4154 30.4001 13.3333C30.4001 12.7445 29.9222 12.2666 29.3334 12.2666Z" fill="white"/>
<path d="M9.06675 10.6669H28.2668V5.33353C28.2668 4.1554 27.3116 3.2002 26.1334 3.2002H19.9046C19.1387 3.2002 18.4321 3.61086 18.0518 4.2754L16.5334 6.93353H4.80008C3.62195 6.93353 2.66675 7.88873 2.66675 9.06686V25.1351C2.66675 25.3917 2.87528 25.6002 3.13235 25.6002C3.34888 25.6002 3.53661 25.4525 3.58568 25.2407C4.39688 21.7138 6.48755 12.6855 6.49448 12.661C6.80381 11.4823 7.84808 10.6669 9.06675 10.6669Z" fill="white"/>
</svg>
