<svg width="32" height="32" viewBox="0 0 32 32" fill="none" xmlns="http://www.w3.org/2000/svg">
<g clip-path="url(#clip0_927_22043)">
<path d="M28.0002 3.99967H25.3335V1.33301H22.6668V7.99967H20.0002V3.99967H12.0002V1.33301H9.3335V7.99967H6.66683V3.99967H4.00016C2.5295 3.99967 1.3335 5.19701 1.3335 6.66634V26.6663C1.3335 28.137 2.5295 29.333 4.00016 29.333H28.0002C29.4708 29.333 30.6668 28.137 30.6668 26.6663V6.66634C30.6668 5.19701 29.4708 3.99967 28.0002 3.99967ZM10.6668 25.333H5.3335V19.9997H10.6668V25.333ZM10.6668 17.333H5.3335V11.9997H10.6668V17.333ZM18.6668 25.333H13.3335V19.9997H18.6668V25.333ZM18.6668 17.333H13.3335V11.9997H18.6668V17.333ZM26.6668 17.333H21.3335V11.9997H26.6668V17.333Z" fill="white"/>
</g>
<defs>
<clipPath id="clip0_927_22043">
<rect width="32" height="32" fill="white"/>
</clipPath>
</defs>
</svg>
