<svg width="37" height="37" viewBox="0 0 37 37" fill="none" xmlns="http://www.w3.org/2000/svg">
<path d="M35.9875 24.4567L31.0489 19.5237C30.3927 18.8674 29.5012 18.501 28.5714 18.501H24.2345C23.2665 18.501 22.4844 19.283 22.4844 20.2511V24.5825C22.4844 25.5123 22.8508 26.3982 23.5071 27.0545L28.4457 31.9876C29.1293 32.6712 30.2395 32.6712 30.9232 31.9876L35.982 26.9287C36.6711 26.2451 36.6711 25.1404 35.9875 24.4567ZM25.99 23.3082C25.2627 23.3082 24.6775 22.7231 24.6775 21.9957C24.6775 21.2683 25.2627 20.6831 25.99 20.6831C26.7174 20.6831 27.3026 21.2683 27.3026 21.9957C27.3026 22.7176 26.7174 23.3082 25.99 23.3082Z" fill="#3E4347" fill-opacity="0.6"/>
<path d="M20.7508 11.4949C20.7508 15.3615 17.617 18.4952 13.7504 18.4952C9.88378 18.4952 6.75 15.3615 6.75 11.5003C6.75 7.63375 9.88378 4.5 13.7504 4.5C17.617 4.5 20.7508 7.63375 20.7508 11.4949Z" fill="#3E4347"/>
<path d="M20.7402 20.5793V24.5772C20.7402 25.9827 21.2871 27.3007 22.277 28.2906L25.4491 31.4627C24.9678 32.0861 24.224 32.4963 23.3763 32.4963H4.12515C2.67585 32.4963 1.5 31.3205 1.5 29.8712V27.5961C1.5 23.5381 4.79238 20.2457 8.85043 20.2402H9.76377C10.9834 20.7981 12.3288 21.1153 13.7507 21.1153C15.1727 21.1153 16.5235 20.7981 17.7377 20.2402H18.651C19.3784 20.2402 20.073 20.3824 20.7402 20.5793Z" fill="#3E4347"/>
</svg>
