<svg width="32" height="32" viewBox="0 0 32 32" fill="none" xmlns="http://www.w3.org/2000/svg">
<path d="M6.13353 7.99997C7.75356 7.99997 9.06686 6.68667 9.06686 5.06663C9.06686 3.4466 7.75356 2.1333 6.13353 2.1333C4.51349 2.1333 3.2002 3.4466 3.2002 5.06663C3.2002 6.68667 4.51349 7.99997 6.13353 7.99997Z" fill="white"/>
<path d="M10.6668 16.0002H1.6001V11.7336C1.6001 10.2605 2.7937 9.06689 4.26676 9.06689H8.0001C9.47316 9.06689 10.6668 10.2605 10.6668 11.7336V16.0002Z" fill="white"/>
<path d="M13.0666 22.3999C14.6867 22.3999 16 21.0866 16 19.4665C16 17.8465 14.6867 16.5332 13.0666 16.5332C11.4466 16.5332 10.1333 17.8465 10.1333 19.4665C10.1333 21.0866 11.4466 22.3999 13.0666 22.3999Z" fill="white"/>
<path d="M8.5332 29.8668V26.1335C8.5332 24.6604 9.7268 23.4668 11.1999 23.4668H14.9332C16.4063 23.4668 17.5999 24.6604 17.5999 26.1335V29.8668H8.5332Z" fill="white"/>
<path d="M25.3334 13.3332C27.248 13.3332 28.8 11.7812 28.8 9.86657C28.8 7.95198 27.248 6.3999 25.3334 6.3999C23.4188 6.3999 21.8667 7.95198 21.8667 9.86657C21.8667 11.7812 23.4188 13.3332 25.3334 13.3332Z" fill="white"/>
<path d="M20.2666 23.4666V17.0666C20.2666 15.5935 21.4602 14.3999 22.9333 14.3999H27.7333C29.2063 14.3999 30.3999 15.5935 30.3999 17.0666V23.4666H20.2666Z" fill="white"/>
<path opacity="0.6" d="M20.4665 6.55207C19.6468 6.07367 16.8489 3.7334 11.4665 3.7334C11.0249 3.7334 10.6665 4.0918 10.6665 4.5334C10.6665 4.975 11.0249 5.3334 11.4665 5.3334C14.4425 5.3334 17.1022 6.09607 19.5177 7.83473C19.6521 7.93713 19.818 8.00007 19.9998 8.00007C20.4414 8.00007 20.7998 7.64167 20.7998 7.20007C20.7998 6.93287 20.6681 6.69713 20.4665 6.55207Z" fill="white"/>
<path opacity="0.6" d="M18.1465 12.7469C18.4499 12.6338 18.6665 12.3431 18.6665 12.0002C18.6665 11.5586 18.3081 11.2002 17.8665 11.2002C17.8073 11.2002 17.7497 11.2077 17.6942 11.2199C15.9678 11.7378 14.4259 12.5506 13.1342 13.4855C12.9321 13.6306 12.7998 13.8658 12.7998 14.1335C12.7998 14.5751 13.1582 14.9335 13.5998 14.9335C13.7811 14.9335 13.9481 14.8733 14.0825 14.7709C15.2931 13.8994 16.6793 13.1757 18.1465 12.7469Z" fill="white"/>
</svg>
