<svg width="30" height="31" viewBox="0 0 30 31" fill="none" xmlns="http://www.w3.org/2000/svg">
<g clip-path="url(#clip0_12474_27204)">
<path d="M28.9581 10.6475H6.79142C6.23901 10.6475 5.77876 11.0325 5.65801 11.5481L2.15684 26.72C2.13701 26.804 2.12476 26.891 2.12476 26.9808C2.12476 27.6248 2.64742 28.1475 3.29142 28.1475H8.91067C14.001 28.1475 8.91067 28.1475 14.001 28.1475C19.8388 28.1475 14.001 28.1475 19.8388 28.1475H25.4581C26.0105 28.1475 26.4708 27.7625 26.5915 27.2468L30.0927 12.0749C30.1125 11.9909 30.1248 11.904 30.1248 11.8141C30.1248 11.1701 29.6021 10.6475 28.9581 10.6475Z" fill="#0A77DB"/>
<g clip-path="url(#clip1_12474_27204)">
<path fill-rule="evenodd" clip-rule="evenodd" d="M23.0004 19.731C23.0004 21.3223 22.3682 22.8484 21.243 23.9736C20.1178 25.0988 18.5917 25.731 17.0004 25.731C15.4091 25.731 13.8829 25.0988 12.7577 23.9736C11.6325 22.8484 11.0004 21.3223 11.0004 19.731C11.0004 18.1397 11.6325 16.6135 12.7577 15.4883C13.8829 14.3631 15.4091 13.731 17.0004 13.731C18.5917 13.731 20.1178 14.3631 21.243 15.4883C22.3682 16.6135 23.0004 18.1397 23.0004 19.731ZM17.0004 16.356C17.0004 16.2565 16.9609 16.1611 16.8905 16.0908C16.8202 16.0205 16.7248 15.981 16.6254 15.981C16.5259 15.981 16.4305 16.0205 16.3602 16.0908C16.2899 16.1611 16.2504 16.2565 16.2504 16.356V20.481C16.2504 20.5471 16.2679 20.612 16.3011 20.6691C16.3343 20.7263 16.382 20.7737 16.4394 20.8065L19.0644 22.3065C19.1505 22.353 19.2514 22.364 19.3456 22.3371C19.4398 22.3103 19.5197 22.2476 19.5683 22.1626C19.6168 22.0776 19.6302 21.9769 19.6056 21.8822C19.5809 21.7874 19.5202 21.706 19.4364 21.6555L17.0004 20.2635V16.356Z" fill="white" fill-opacity="0.9"/>
</g>
<path d="M6.79144 8.89762H27.7914V3.06429C27.7914 1.77571 26.7467 0.730957 25.4581 0.730957H18.6454C17.8077 0.730957 17.0348 1.18012 16.6189 1.90696L14.9581 4.81429H2.12478C0.836193 4.81429 -0.208557 5.85904 -0.208557 7.14762V24.7223C-0.208557 25.0029 0.0195263 25.231 0.300693 25.231C0.537526 25.231 0.74286 25.0694 0.796526 24.8378C1.68378 20.9802 3.97044 11.1055 3.97803 11.0787C4.31636 9.78954 5.45853 8.89762 6.79144 8.89762Z" fill="#0A77DB" fill-opacity="0.5"/>
</g>
<defs>
<clipPath id="clip0_12474_27204">
<rect width="30" height="30" fill="white" transform="translate(-0.000244141 0.230957)"/>
</clipPath>
<clipPath id="clip1_12474_27204">
<rect width="12" height="12" fill="white" transform="translate(11.0004 13.731)"/>
</clipPath>
</defs>
</svg>
