<svg width="24" height="24" viewBox="0 0 24 24" fill="none" xmlns="http://www.w3.org/2000/svg">
<path d="M7.13083 23.9997H18.1078C19.9309 23.9997 21 22.9119 21 20.8431V9.84813C21 7.7793 19.9309 6.70117 17.8692 6.70117H7.13083C5.06906 6.70117 4 7.76958 4 9.84813V20.8431C4 22.9216 5.06906 23.9997 7.13083 23.9997ZM15.3111 16.6763C14.1752 16.6763 13.2207 15.6564 13.2207 14.3452C13.2111 13.0534 14.1943 12.0529 15.3206 12.0529C16.4469 12.0529 17.4015 13.0339 17.4015 14.3355C17.4015 15.6564 16.4469 16.6763 15.3111 16.6763ZM9.30713 16.8025C8.32398 16.8025 7.484 15.9187 7.484 14.7628C7.47445 13.6361 8.32398 12.7717 9.30713 12.7717C10.2903 12.7717 11.1303 13.6264 11.1303 14.7531C11.1303 15.9187 10.2998 16.8025 9.30713 16.8025ZM7.15946 22.1543C6.23358 22.1543 5.77541 21.6978 5.77541 20.7265V19.5998C6.35766 18.5897 7.63672 17.6961 9.30713 17.6961C10.1089 17.6961 10.7485 17.8904 11.3307 18.2497C10.4048 18.9588 9.78439 20.3283 9.78439 21.3481C9.78439 21.6687 9.83212 21.9503 9.96575 22.1543H7.15946ZM11.4166 22.1543C11.2448 22.1252 10.9966 21.8532 10.9966 21.387C10.9966 19.6678 12.667 17.7155 15.3111 17.7155C17.0483 17.7155 18.5373 18.5994 19.2341 19.8038V20.7265C19.2341 21.6978 18.6805 22.1543 17.8596 22.1543H11.4166Z" fill="#99AAB5"/>
<g opacity="0.6">
<path d="M17.1914 2.33066H7.75115C7.80842 1.46622 8.31432 1 9.2402 1H15.6928C16.6186 1 17.1245 1.46622 17.1914 2.33066Z" fill="#99AAB5"/>
<path d="M18.8236 5.15709H6.10938C6.24301 4.23438 6.70118 3.70017 7.72251 3.70017H17.2104C18.2318 3.70017 18.6899 4.23438 18.8236 5.15709Z" fill="#99AAB5"/>
</g>
</svg>
