<svg width="30" height="31" viewBox="0 0 30 31" fill="none" xmlns="http://www.w3.org/2000/svg">
<g clip-path="url(#clip0_12462_14886)">
<path fill-rule="evenodd" clip-rule="evenodd" d="M-0.000244141 9.60596H29.9998V26.481C29.9998 27.4755 29.6047 28.4293 28.9014 29.1326C28.1981 29.8359 27.2443 30.231 26.2498 30.231H3.74976C2.75519 30.231 1.80137 29.8359 1.09811 29.1326C0.394844 28.4293 -0.000244141 27.4755 -0.000244141 26.481V9.60596ZM17.8123 13.356C17.5636 13.356 17.3252 13.4547 17.1493 13.6305C16.9735 13.8064 16.8748 14.0448 16.8748 14.2935V16.1685C16.8748 16.4171 16.9735 16.6556 17.1493 16.8314C17.3252 17.0072 17.5636 17.106 17.8123 17.106H19.6873C19.9359 17.106 20.1744 17.0072 20.3502 16.8314C20.526 16.6556 20.6248 16.4171 20.6248 16.1685V14.2935C20.6248 14.0448 20.526 13.8064 20.3502 13.6305C20.1744 13.4547 19.9359 13.356 19.6873 13.356H17.8123ZM23.4373 13.356C23.1886 13.356 22.9502 13.4547 22.7743 13.6305C22.5985 13.8064 22.4998 14.0448 22.4998 14.2935V16.1685C22.4998 16.4171 22.5985 16.6556 22.7743 16.8314C22.9502 17.0072 23.1886 17.106 23.4373 17.106H25.3123C25.5609 17.106 25.7994 17.0072 25.9752 16.8314C26.151 16.6556 26.2498 16.4171 26.2498 16.1685V14.2935C26.2498 14.0448 26.151 13.8064 25.9752 13.6305C25.7994 13.4547 25.5609 13.356 25.3123 13.356H23.4373ZM3.74976 19.9185C3.74976 19.6698 3.84853 19.4314 4.02434 19.2555C4.20016 19.0797 4.43862 18.981 4.68726 18.981H6.56226C6.8109 18.981 7.04935 19.0797 7.22517 19.2555C7.40098 19.4314 7.49976 19.6698 7.49976 19.9185V21.7935C7.49976 22.0421 7.40098 22.2806 7.22517 22.4564C7.04935 22.6322 6.8109 22.731 6.56226 22.731H4.68726C4.43862 22.731 4.20016 22.6322 4.02434 22.4564C3.84853 22.2806 3.74976 22.0421 3.74976 21.7935V19.9185ZM10.3123 18.981C10.0636 18.981 9.82516 19.0797 9.64934 19.2555C9.47353 19.4314 9.37476 19.6698 9.37476 19.9185V21.7935C9.37476 22.0421 9.47353 22.2806 9.64934 22.4564C9.82516 22.6322 10.0636 22.731 10.3123 22.731H12.1873C12.4359 22.731 12.6744 22.6322 12.8502 22.4564C13.026 22.2806 13.1248 22.0421 13.1248 21.7935V19.9185C13.1248 19.6698 13.026 19.4314 12.8502 19.2555C12.6744 19.0797 12.4359 18.981 12.1873 18.981H10.3123Z" fill="#0A77DB"/>
<path d="M7.22517 0.505544C7.40098 0.68136 7.49976 0.919817 7.49976 1.16846V2.10596H22.4998V1.16846C22.4998 0.919817 22.5985 0.68136 22.7743 0.505544C22.9502 0.329729 23.1886 0.230957 23.4373 0.230957C23.6859 0.230957 23.9244 0.329729 24.1002 0.505544C24.276 0.68136 24.3748 0.919817 24.3748 1.16846V2.10596H26.2498C27.2443 2.10596 28.1981 2.50105 28.9014 3.20431C29.6047 3.90757 29.9998 4.8614 29.9998 5.85596V7.73096H-0.000244141V5.85596C-0.000244141 4.8614 0.394844 3.90757 1.09811 3.20431C1.80137 2.50105 2.75519 2.10596 3.74976 2.10596H5.62476V1.16846C5.62476 0.919817 5.72353 0.68136 5.89934 0.505544C6.07516 0.329729 6.31362 0.230957 6.56226 0.230957C6.8109 0.230957 7.04935 0.329729 7.22517 0.505544Z" fill="#0A77DB" fill-opacity="0.5"/>
</g>
<defs>
<clipPath id="clip0_12462_14886">
<rect width="30" height="30" fill="white" transform="translate(-0.000244141 0.230957)"/>
</clipPath>
</defs>
</svg>
