<svg width="24" height="24" viewBox="0 0 24 24" fill="none" xmlns="http://www.w3.org/2000/svg">
<path d="M18.2944 15.7344C18.3584 15.8052 18.4 15.8968 18.4 16C18.4 16.2212 18.2212 16.4 18 16.4C17.892 16.4 17.7944 16.3564 17.7228 16.2868L15.8468 14.2028C15.7368 14.0792 15.578 14 15.4 14C15.0688 14 14.8 14.2688 14.8 14.6C14.8 14.6928 14.8232 14.78 14.8608 14.8588C15.7256 16.6576 16.0616 17.2192 16.2584 18.3708C16.5452 20.052 17.6 20.0032 17.6 22H21.2V14.8H17.4568L18.2944 15.7344Z" fill="#99AAB5"/>
<path opacity="0.6" d="M21.7999 12H13.5999L12.3999 13L13.5999 14H14.1407C14.3659 13.5288 14.8439 13.2 15.3999 13.2C16.0835 13.2 16.3799 13.6 16.7403 14H21.7999C22.3523 14 22.7999 13.5524 22.7999 13C22.7999 12.4476 22.3523 12 21.7999 12Z" fill="#99AAB5"/>
<path d="M20.4 11.2C19.6756 10.7512 18.1712 10 17.3556 10C16.7236 10 16.1328 10.2672 15.2 11.2H20.4Z" fill="#99AAB5"/>
<path d="M14.4897 15.926C14.1597 15.2448 14.0729 15.1368 14.0229 14.7996H13.3109L11.1513 12.9996L13.3109 11.1996H14.0693C14.9129 10.356 15.6985 9.49721 16.7765 9.26361L14.3745 1.87281C14.3213 1.71481 14.1757 1.59961 14.0001 1.59961C13.9581 1.59961 13.9189 1.61121 13.8805 1.62401L1.8705 5.62561C1.7141 5.68001 1.6001 5.82481 1.6001 5.99961C1.6001 6.04081 1.6117 6.07801 1.6237 6.11561L6.8261 22.1264C6.8789 22.2844 7.0245 22.3996 7.2001 22.3996C7.2421 22.3996 7.2813 22.388 7.3197 22.3752L15.7917 19.552C15.6593 19.2672 15.5425 18.9296 15.4701 18.5048C15.3217 17.6356 15.0949 17.17 14.4897 15.926V15.926ZM4.0305 7.01401L6.3653 6.23641L7.1509 8.65401L4.8069 9.43481L4.0305 7.01401ZM7.3737 14.1468C6.9033 13.894 7.3193 14.1176 4.9781 12.86L5.5457 11.8028L6.8533 12.5048L8.0849 10.0416L9.1585 10.5784C7.3245 14.2456 7.6197 13.6556 7.3737 14.1468V14.1468ZM9.4001 7.19961C9.0689 7.19961 8.8001 6.93081 8.8001 6.59961C8.8001 6.33481 8.9729 6.11241 9.2109 6.03281L12.8109 4.83281C12.8709 4.81281 12.9337 4.79961 13.0001 4.79961C13.3313 4.79961 13.6001 5.06841 13.6001 5.39961C13.6001 5.66441 13.4273 5.88681 13.1893 5.96641L9.5893 7.16641C9.5293 7.18641 9.4665 7.19961 9.4001 7.19961V7.19961ZM10.6001 9.99961C10.2689 9.99961 10.0001 9.73081 10.0001 9.39961C10.0001 9.13481 10.1729 8.91241 10.4109 8.83281L14.0109 7.63281C14.0709 7.61281 14.1337 7.59961 14.2001 7.59961C14.5313 7.59961 14.8001 7.86841 14.8001 8.19961C14.8001 8.46441 14.6273 8.68681 14.3893 8.76641L10.7893 9.96641C10.7293 9.98641 10.6665 9.99961 10.6001 9.99961V9.99961Z" fill="#99AAB5"/>
</svg>
