<svg width="30" height="31" viewBox="0 0 30 31" fill="none" xmlns="http://www.w3.org/2000/svg">
<g clip-path="url(#clip0_12474_27210)">
<path d="M28.9581 10.6475H6.79142C6.23901 10.6475 5.77876 11.0325 5.65801 11.5481L2.15684 26.72C2.13701 26.804 2.12476 26.891 2.12476 26.9808C2.12476 27.6248 2.64742 28.1475 3.29142 28.1475H8.91067C14.001 28.1475 8.91067 28.1475 14.001 28.1475C19.8388 28.1475 14.001 28.1475 19.8388 28.1475H25.4581C26.0105 28.1475 26.4708 27.7625 26.5915 27.2468L30.0927 12.0749C30.1125 11.9909 30.1248 11.904 30.1248 11.8141C30.1248 11.1701 29.6021 10.6475 28.9581 10.6475Z" fill="#0A77DB"/>
<g clip-path="url(#clip1_12474_27210)">
<path fill-rule="evenodd" clip-rule="evenodd" d="M22.0004 19.731C22.0004 21.3223 21.3682 22.8484 20.243 23.9736C19.1178 25.0988 17.5917 25.731 16.0004 25.731C14.4091 25.731 12.8829 25.0988 11.7577 23.9736C10.6325 22.8484 10.0004 21.3223 10.0004 19.731C10.0004 18.1397 10.6325 16.6135 11.7577 15.4883C12.8829 14.3631 14.4091 13.731 16.0004 13.731C17.5917 13.731 19.1178 14.3631 20.243 15.4883C21.3682 16.6135 22.0004 18.1397 22.0004 19.731ZM19.0229 17.4585C18.9693 17.4051 18.9055 17.363 18.8353 17.3349C18.7651 17.3067 18.69 17.293 18.6144 17.2945C18.5387 17.2961 18.4642 17.3128 18.3952 17.3438C18.3262 17.3748 18.2642 17.4194 18.2129 17.475L15.6081 20.7937L14.0384 19.2232C13.9317 19.1238 13.7907 19.0698 13.645 19.0723C13.4992 19.0749 13.3602 19.1339 13.2571 19.237C13.1541 19.3401 13.0951 19.4791 13.0925 19.6248C13.0899 19.7705 13.144 19.9116 13.2434 20.0182L15.2279 22.0035C15.2813 22.0568 15.345 22.0989 15.4151 22.1271C15.4851 22.1553 15.5602 22.1692 15.6357 22.1678C15.7112 22.1664 15.7857 22.1498 15.8546 22.1189C15.9236 22.0881 15.9857 22.0438 16.0371 21.9885L19.0311 18.246C19.1332 18.1398 19.1896 17.9979 19.1882 17.8507C19.1868 17.7034 19.1277 17.5626 19.0236 17.4585H19.0229Z" fill="white" fill-opacity="0.9"/>
</g>
<path d="M6.79144 8.89762H27.7914V3.06429C27.7914 1.77571 26.7467 0.730957 25.4581 0.730957H18.6454C17.8077 0.730957 17.0348 1.18012 16.6189 1.90696L14.9581 4.81429H2.12478C0.836193 4.81429 -0.208557 5.85904 -0.208557 7.14762V24.7223C-0.208557 25.0029 0.0195263 25.231 0.300693 25.231C0.537526 25.231 0.74286 25.0694 0.796526 24.8378C1.68378 20.9802 3.97044 11.1055 3.97803 11.0787C4.31636 9.78954 5.45853 8.89762 6.79144 8.89762Z" fill="#0A77DB" fill-opacity="0.5"/>
</g>
<defs>
<clipPath id="clip0_12474_27210">
<rect width="30" height="30" fill="white" transform="translate(-0.000244141 0.230957)"/>
</clipPath>
<clipPath id="clip1_12474_27210">
<rect width="12" height="12" fill="white" transform="translate(10.0004 13.731)"/>
</clipPath>
</defs>
</svg>
