<svg width="24" height="24" viewBox="0 0 24 24" fill="none" xmlns="http://www.w3.org/2000/svg">
<path d="M18.304 8.8L14.2852 4.1396C14.2064 4.0472 14.1036 4 13.9812 4C13.8896 4 13.7972 4.032 13.7224 4.0964L12.1392 5.4548C12.0468 5.5336 12 5.6456 12 5.7584C12 5.85 12.0316 5.942 12.096 6.0172L16.1224 10.662C16.2028 10.756 16.3176 10.802 16.4324 10.8C16.5224 10.7984 16.612 10.7684 16.6856 10.7052L18.2608 9.3624C18.3528 9.2828 18.4008 9.1704 18.4 9.0572C18.3992 8.966 18.368 8.8748 18.304 8.8Z" fill="#99AAB5" fill-opacity="0.6"/>
<path d="M13.1999 19.6H12.1999L11.5999 18H6.7999L6.1999 19.6H5.1999C4.7583 19.6 4.3999 19.9584 4.3999 20.4C4.3999 20.8416 4.7583 21.2 5.1999 21.2H13.1999C13.6415 21.2 13.9999 20.8416 13.9999 20.4C13.9999 19.9584 13.6415 19.6 13.1999 19.6Z" fill="#99AAB5" fill-opacity="0.6"/>
<path d="M23.2001 12.0001C23.2001 11.8929 23.1781 11.7913 23.1401 11.6981L21.2193 7.03125C21.0769 7.21125 20.9189 7.38085 20.7417 7.53285L19.9681 8.19565L21.5257 11.9773L18.4829 18.4001H16.4001C15.9585 18.4001 15.6001 18.7585 15.6001 19.2001V20.4001C15.6001 20.8417 15.9585 21.2001 16.4001 21.2001H22.0001C22.4417 21.2001 22.8001 20.8417 22.8001 20.4001V19.2001C22.8001 18.7585 22.4417 18.4001 22.0001 18.4001H20.2533L23.1237 12.3365C23.1713 12.2341 23.2001 12.1209 23.2001 12.0001V12.0001Z" fill="#99AAB5"/>
<path d="M18.4001 2.40039C17.8041 2.40039 17.2597 2.61879 16.8401 2.97879L15.7061 3.94999L18.8393 7.58359L19.9605 6.62199C20.4737 6.18199 20.8001 5.52959 20.8001 4.80039C20.8001 3.47519 19.7253 2.40039 18.4001 2.40039V2.40039Z" fill="#99AAB5"/>
<path d="M16.8 11.9996C16.3584 11.9996 16 12.358 16 12.7996V14.3996H2.40005V5.19961H10.4C10.8416 5.19961 11.2 4.84121 11.2 4.39961C11.2 3.95801 10.8416 3.59961 10.4 3.59961H2.40005C1.51645 3.59961 0.800049 4.31601 0.800049 5.19961V15.1996C0.800049 16.0832 1.51645 16.7996 2.40005 16.7996H16C16.8836 16.7996 17.6 16.0832 17.6 15.1996V12.7996C17.6 12.358 17.2416 11.9996 16.8 11.9996Z" fill="#99AAB5"/>
</svg>
