<svg width="24" height="24" viewBox="0 0 24 24" fill="none" xmlns="http://www.w3.org/2000/svg">
<path d="M5.78613 20.875H18.416C20.2441 20.875 21.2021 19.9258 21.2021 18.1152V9.26465C21.2021 7.4541 20.2441 6.50488 18.416 6.50488H5.78613C3.94922 6.50488 3 7.44531 3 9.26465V18.1152C3 19.9258 3.94922 20.875 5.78613 20.875ZM12.1143 14.9863C10.6465 14.9688 9.49512 13.7471 9.48633 12.1123C9.48633 10.5654 10.6465 9.29102 12.1143 9.29102C13.5908 9.29102 14.751 10.5654 14.751 12.1123C14.751 13.7471 13.5996 15.0039 12.1143 14.9863ZM7.12207 19.2139C7.81641 17.4473 9.77637 16.208 12.1143 16.208C14.4609 16.208 16.4209 17.4473 17.1152 19.2139H7.12207Z" fill="#99AAB5"/>
<path opacity="0.6" d="M17.6689 3.19531H6.54199C6.59473 2.42188 7.06055 2 7.89551 2H16.3066C17.1504 2 17.6074 2.42188 17.6689 3.19531Z" fill="#99AAB5"/>
<path opacity="0.6" d="M19.4619 5.50488H4.74902C4.87207 4.66992 5.29395 4.19531 6.22559 4.19531H17.9854C18.917 4.19531 19.3389 4.66992 19.4619 5.50488Z" fill="#99AAB5"/>
</svg>
