<svg width="30" height="31" viewBox="0 0 30 31" fill="none" xmlns="http://www.w3.org/2000/svg">
<path fill-rule="evenodd" clip-rule="evenodd" d="M10.106 25.0747C9.84542 24.5381 9.71546 23.9499 9.72632 23.356C9.72632 21.0271 10.9216 18.6294 13.1294 16.9622C12.0275 16.6302 10.8794 16.4678 9.72632 16.481C2.69507 16.481 0.937256 21.6372 0.937256 23.356C0.937256 25.0747 2.69507 25.0747 2.69507 25.0747H10.106ZM8.84741 14.7622C10.0129 14.7622 11.1307 14.3095 11.9548 13.5037C12.7789 12.6979 13.2419 11.6049 13.2419 10.4653C13.2419 9.32573 12.7789 8.2328 11.9548 7.42698C11.1307 6.62116 10.0129 6.16846 8.84741 6.16846C7.68191 6.16846 6.56414 6.62116 5.74001 7.42698C4.91587 8.2328 4.45288 9.32573 4.45288 10.4653C4.45288 11.6049 4.91587 12.6979 5.74001 13.5037C6.56414 14.3095 7.68191 14.7622 8.84741 14.7622Z" fill="#0A77DB" fill-opacity="0.5"/>
<path d="M24.0021 13.252C23.0131 14.219 21.6718 14.7622 20.2732 14.7622C18.8746 14.7622 17.5333 14.219 16.5443 13.252C15.5553 12.285 14.9998 10.9735 14.9998 9.60596C14.9998 8.23843 15.5553 6.92692 16.5443 5.95994C17.5333 4.99295 18.8746 4.44971 20.2732 4.44971C21.6718 4.44971 23.0131 4.99295 24.0021 5.95994C24.991 6.92692 25.5466 8.23843 25.5466 9.60596C25.5466 10.9735 24.991 12.285 24.0021 13.252Z" fill="#0A77DB"/>
<path d="M11.4841 23.356C11.4841 25.0747 13.2419 25.0747 13.2419 25.0747H27.3044C27.3044 25.0747 29.0623 25.0747 29.0623 23.356C29.0623 21.6372 27.3044 16.481 20.2732 16.481C13.2419 16.481 11.4841 21.6372 11.4841 23.356Z" fill="#0A77DB"/>
</svg>
