<svg width="32" height="32" viewBox="0 0 32 32" fill="none" xmlns="http://www.w3.org/2000/svg">
<path d="M24.3926 20.979C24.4779 21.0734 24.5334 21.1956 24.5334 21.3332C24.5334 21.6281 24.295 21.8665 24.0001 21.8665C23.8561 21.8665 23.7259 21.8084 23.6305 21.7156L21.1291 18.9369C20.9825 18.7721 20.7707 18.6665 20.5334 18.6665C20.0918 18.6665 19.7334 19.0249 19.7334 19.4665C19.7334 19.5902 19.7643 19.7065 19.8145 19.8116C20.9675 22.21 21.4155 22.9588 21.6779 24.4942C22.0603 26.7358 23.4667 26.6708 23.4667 29.3332H28.2667V19.7332H23.2758L24.3926 20.979Z" fill="white"/>
<path opacity="0.6" d="M29.0668 16H18.1334L16.5334 17.3333L18.1334 18.6667H18.8545C19.1548 18.0384 19.7921 17.6 20.5334 17.6C21.4449 17.6 21.8401 18.1333 22.3206 18.6667H29.0668C29.8033 18.6667 30.4001 18.0699 30.4001 17.3333C30.4001 16.5968 29.8033 16 29.0668 16Z" fill="white"/>
<path d="M27.1999 14.9335C26.2341 14.3351 24.2282 13.3335 23.1407 13.3335C22.2981 13.3335 21.5103 13.6898 20.2666 14.9335H27.1999Z" fill="white"/>
<path d="M19.3194 21.2352C18.8794 20.3269 18.7637 20.1829 18.697 19.7333H17.7477L14.8682 17.3333L17.7477 14.9333H18.7589C19.8837 13.8085 20.9312 12.6634 22.3685 12.352L19.1658 2.49757C19.0949 2.2869 18.9008 2.1333 18.6666 2.1333C18.6106 2.1333 18.5584 2.14877 18.5072 2.16583L2.49383 7.5013C2.2853 7.57383 2.1333 7.7669 2.1333 7.99997C2.1333 8.0549 2.14877 8.1045 2.16477 8.15463L9.1013 29.5024C9.1717 29.713 9.36583 29.8666 9.59997 29.8666C9.65597 29.8666 9.70823 29.8512 9.75943 29.8341L21.0554 26.0698C20.8789 25.6901 20.7232 25.24 20.6266 24.6736C20.4288 23.5146 20.1264 22.8938 19.3194 21.2352ZM5.37383 9.3525L8.4869 8.3157L9.53437 11.5392L6.40903 12.5802L5.37383 9.3525ZM9.83143 18.8629C9.20423 18.5258 9.7589 18.824 6.6373 17.1472L7.3941 15.7376L9.13757 16.6736L10.7797 13.3893L12.2112 14.105C9.76583 18.9946 10.1594 18.208 9.83143 18.8629ZM12.5333 9.59997C12.0917 9.59997 11.7333 9.24157 11.7333 8.79997C11.7333 8.4469 11.9637 8.15037 12.281 8.04423L17.081 6.44423C17.161 6.41757 17.2448 6.39997 17.3333 6.39997C17.7749 6.39997 18.1333 6.75837 18.1333 7.19997C18.1333 7.55303 17.9029 7.84957 17.5856 7.9557L12.7856 9.5557C12.7056 9.58237 12.6218 9.59997 12.5333 9.59997ZM14.1333 13.3333C13.6917 13.3333 13.3333 12.9749 13.3333 12.5333C13.3333 12.1802 13.5637 11.8837 13.881 11.7776L18.681 10.1776C18.761 10.1509 18.8448 10.1333 18.9333 10.1333C19.3749 10.1333 19.7333 10.4917 19.7333 10.9333C19.7333 11.2864 19.5029 11.5829 19.1856 11.689L14.3856 13.289C14.3056 13.3157 14.2218 13.3333 14.1333 13.3333Z" fill="white"/>
</svg>
