<svg width="30" height="30" viewBox="0 0 30 30" fill="none" xmlns="http://www.w3.org/2000/svg">
<g clip-path="url(#clip0_9130_25711)">
<path d="M22.1797 3.3335H23.843V5.326H22.1797V3.3335Z" fill="#66757F"/>
<path d="M24.168 3.3335H7.5013C5.66047 3.3335 4.16797 4.826 4.16797 6.66683V26.6668C4.16797 28.5077 5.66047 30.0002 7.5013 30.0002H24.168C26.0088 30.0002 27.5013 28.5077 27.5013 26.6668V6.66683C27.5013 4.826 26.0088 3.3335 24.168 3.3335Z" fill="#0A77DB" fill-opacity="0.5"/>
<path d="M21.5 3.3335H4.83333C2.9925 3.3335 1.5 4.826 1.5 6.66683V26.6668C1.5 28.5077 2.9925 30.0002 4.83333 30.0002H21.5C23.3408 30.0002 24.8333 28.5077 24.8333 26.6668V6.66683C24.8333 4.826 23.3408 3.3335 21.5 3.3335Z" fill="#0A77DB"/>
<path d="M24 11.8235C24 12.2789 23.5733 12.6471 23.0455 12.6471H3.95455C3.42764 12.6471 3 12.2789 3 11.8235C3 11.3689 3.42764 11 3.95455 11H23.0455C23.5733 11 24 11.3689 24 11.8235ZM24 15.9412C24 16.3966 23.5733 16.7647 23.0455 16.7647H3.95455C3.42764 16.7647 3 16.3966 3 15.9412C3 15.4858 3.42764 15.1176 3.95455 15.1176H23.0455C23.5733 15.1176 24 15.4858 24 15.9412ZM24 20.0588C24 20.5142 23.5733 20.8824 23.0455 20.8824H3.95455C3.42764 20.8824 3 20.5142 3 20.0588C3 19.6034 3.42764 19.2353 3.95455 19.2353H23.0455C23.5733 19.2353 24 19.6034 24 20.0588ZM16.3636 24.1765C16.3636 24.6319 15.937 25 15.4091 25H3.95455C3.42764 25 3 24.6319 3 24.1765C3 23.7211 3.42764 23.3529 3.95455 23.3529H15.4091C15.937 23.3529 16.3636 23.7211 16.3636 24.1765Z" fill="#A0C7FF" fill-opacity="0.7"/>
<path d="M5.53182 7.27561C4.94682 7.27561 4.47266 6.72061 4.47266 6.03478C4.47266 5.34978 4.94682 4.79395 5.53182 4.79395C6.11599 4.79395 6.59016 5.34978 6.59016 6.03478C6.59016 6.71978 6.11599 7.27561 5.53182 7.27561Z" fill="#292F33"/>
<path d="M6.11922 5.9026C6.07339 5.5026 5.80755 5.2426 5.51172 5.0551C5.10755 4.79927 4.67839 4.2151 4.67839 3.49094C4.67839 2.57094 5.23755 1.7451 5.92839 1.7451C6.61922 1.7451 7.17839 2.49927 7.17839 3.3326H8.84172C8.82422 1.66594 7.52922 0.148438 5.92839 0.148438C4.31672 0.148438 3.01172 1.66427 3.01172 3.48594C3.01172 5.0301 3.88255 6.2951 5.15255 6.7576C5.78589 6.9876 6.17255 6.3851 6.11922 5.9026Z" fill="#66757F"/>
<path d="M10.5318 7.27561C9.94682 7.27561 9.47266 6.72061 9.47266 6.03478C9.47266 5.34978 9.94682 4.79395 10.5318 4.79395C11.116 4.79395 11.5902 5.34978 11.5902 6.03478C11.5902 6.71978 11.116 7.27561 10.5318 7.27561V7.27561Z" fill="#292F33"/>
<path d="M11.1192 5.9026C11.0734 5.5026 10.8076 5.2426 10.5117 5.0551C10.1076 4.79927 9.67839 4.2151 9.67839 3.49094C9.67839 2.57094 10.2376 1.7451 10.9284 1.7451C11.6192 1.7451 12.1784 2.49927 12.1784 3.3326H13.8417C13.8251 1.66594 12.5292 0.148438 10.9284 0.148438C9.31672 0.148438 8.01172 1.66427 8.01172 3.48594C8.01172 5.0301 8.88255 6.2951 10.1526 6.7576C10.7859 6.9876 11.1726 6.3851 11.1192 5.9026Z" fill="#66757F"/>
<path d="M15.5318 7.27561C14.9468 7.27561 14.4727 6.72061 14.4727 6.03478C14.4727 5.34978 14.9468 4.79395 15.5318 4.79395C16.116 4.79395 16.591 5.34978 16.591 6.03478C16.5902 6.71978 16.116 7.27561 15.5318 7.27561Z" fill="#292F33"/>
<path d="M16.1184 5.9026C16.0726 5.5026 15.8067 5.2426 15.5117 5.0551C15.1076 4.79927 14.6784 4.2151 14.6784 3.49094C14.6784 2.57094 15.2376 1.7451 15.9284 1.7451C16.6192 1.7451 17.1784 2.49927 17.1784 3.3326H18.8417C18.8251 1.66594 17.5292 0.148438 15.9284 0.148438C14.3167 0.148438 13.0117 1.66427 13.0117 3.48594C13.0117 5.0301 13.8826 6.2951 15.1526 6.7576C15.7851 6.9876 16.1717 6.3851 16.1184 5.9026V5.9026Z" fill="#66757F"/>
<path d="M20.5318 7.27561C19.9468 7.27561 19.4727 6.72061 19.4727 6.03478C19.4727 5.34978 19.9468 4.79395 20.5318 4.79395C21.116 4.79395 21.591 5.34978 21.591 6.03478C21.5902 6.71978 21.116 7.27561 20.5318 7.27561Z" fill="#292F33"/>
<path d="M21.1184 5.9026C21.0726 5.5026 20.8067 5.2426 20.5117 5.0551C20.1076 4.79927 19.6784 4.2151 19.6784 3.49094C19.6784 2.57094 20.2376 1.7451 20.9284 1.7451C21.6192 1.7451 22.1784 2.49927 22.1784 3.3326H23.8417C23.8251 1.66594 22.5292 0.148438 20.9284 0.148438C19.3167 0.148438 18.0117 1.66427 18.0117 3.48594C18.0117 5.0301 18.8826 6.2951 20.1526 6.7576C20.7851 6.9876 21.1717 6.3851 21.1184 5.9026V5.9026Z" fill="#66757F"/>
<path d="M13.5 26C17.6421 26 21 22.6421 21 18.5C21 14.3579 17.6421 11 13.5 11C9.35786 11 6 14.3579 6 18.5C6 22.6421 9.35786 26 13.5 26Z" fill="#0A77DB"/>
<path d="M10.668 20.625C10.668 21.7987 11.9366 22.75 13.5013 22.75C15.066 22.75 16.3346 21.7987 16.3346 20.625C16.3346 19.4513 15.066 18.5 13.5013 18.5C11.9366 18.5 10.668 17.5487 10.668 16.375C10.668 15.2013 11.9366 14.25 13.5013 14.25C15.066 14.25 16.3346 15.2013 16.3346 16.375" fill="#0A77DB"/>
<path d="M10.668 20.625C10.668 21.7987 11.9366 22.75 13.5013 22.75C15.066 22.75 16.3346 21.7987 16.3346 20.625C16.3346 19.4513 15.066 18.5 13.5013 18.5C11.9366 18.5 10.668 17.5487 10.668 16.375C10.668 15.2013 11.9366 14.25 13.5013 14.25C15.066 14.25 16.3346 15.2013 16.3346 16.375" stroke="white" stroke-width="2" stroke-miterlimit="10"/>
<path d="M13.5 14.125V11.125Z" fill="#0A77DB"/>
<path d="M13.5 14.125V11.125" stroke="white" stroke-width="2" stroke-miterlimit="10"/>
<path d="M13.5 25.75V22.75Z" fill="#0A77DB"/>
<path d="M13.5 25.75V22.75" stroke="white" stroke-width="2" stroke-miterlimit="10"/>
</g>
<defs>
<clipPath id="clip0_9130_25711">
<rect width="30" height="30" fill="white"/>
</clipPath>
</defs>
</svg>
