<svg width="30" height="30" viewBox="0 0 30 30" fill="none" xmlns="http://www.w3.org/2000/svg">
<path d="M24.0117 3.3335H25.6751V4.16683H24.0117V3.3335Z" fill="#66757F"/>
<path d="M1.66797 10V26.6667C1.66797 28.5075 3.16047 30 5.0013 30H25.0013C26.8421 30 28.3346 28.5075 28.3346 26.6667V10H1.66797Z" fill="#0A77DB" fill-opacity="0.5"/>
<path d="M25.0013 3.3335H5.0013C3.16047 3.3335 1.66797 4.826 1.66797 6.66683V10.8335H28.3346V6.66683C28.3346 4.826 26.8421 3.3335 25.0013 3.3335Z" fill="#0A77DB"/>
<path d="M7.36385 7.27561C6.77885 7.27561 6.30469 6.72061 6.30469 6.03478C6.30469 5.34978 6.77885 4.79395 7.36385 4.79395C7.94802 4.79395 8.42219 5.34978 8.42219 6.03478C8.42219 6.71978 7.94802 7.27561 7.36385 7.27561ZM12.3639 7.27561C11.7789 7.27561 11.3047 6.72061 11.3047 6.03478C11.3047 5.34978 11.7789 4.79395 12.3639 4.79395C12.948 4.79395 13.4222 5.34978 13.4222 6.03478C13.4222 6.71978 12.948 7.27561 12.3639 7.27561V7.27561ZM17.3639 7.27561C16.7789 7.27561 16.3047 6.72061 16.3047 6.03478C16.3047 5.34978 16.7789 4.79395 17.3639 4.79395C17.948 4.79395 18.423 5.34978 18.423 6.03478C18.4222 6.71978 17.948 7.27561 17.3639 7.27561ZM22.3639 7.27561C21.7789 7.27561 21.3047 6.72061 21.3047 6.03478C21.3047 5.34978 21.7789 4.79395 22.3639 4.79395C22.948 4.79395 23.423 5.34978 23.423 6.03478C23.4222 6.71978 22.948 7.27561 22.3639 7.27561Z" fill="#292F33"/>
<path d="M22.7643 0.148926C21.7002 0.148926 20.7785 0.817259 20.2693 1.79059C19.7643 0.838092 18.8385 0.148926 17.7643 0.148926C16.7002 0.148926 15.7785 0.817259 15.2693 1.79059C14.7643 0.838092 13.8385 0.148926 12.7643 0.148926C11.7002 0.148926 10.7785 0.817259 10.2693 1.79059C9.76432 0.838092 8.83849 0.148926 7.76432 0.148926C6.15266 0.148926 4.84766 1.66476 4.84766 3.48643C4.84766 5.03143 5.71849 6.29559 6.98849 6.75809C7.62099 6.98726 8.00849 6.38559 7.95432 5.90309C7.90849 5.50309 7.64266 5.24226 7.34682 5.05476C6.94266 4.79893 6.51349 4.21476 6.51349 3.49059C6.51349 2.57059 7.07266 1.74476 7.76349 1.74476C8.45432 1.74476 9.01349 2.49893 9.01349 3.33226H9.86016C9.85766 3.38393 9.84682 3.43309 9.84682 3.48559C9.84682 5.03059 10.7177 6.29476 11.9877 6.75726C12.6202 6.98643 13.0077 6.38476 12.9535 5.90226C12.9077 5.50309 12.6418 5.24226 12.346 5.05476C11.9418 4.79893 11.5127 4.21476 11.5127 3.49059C11.5127 2.57059 12.0718 1.74476 12.7627 1.74476C13.4535 1.74476 14.0143 2.49976 14.0143 3.33309H14.861C14.8585 3.38476 14.8477 3.43393 14.8477 3.48643C14.8477 5.03143 15.7185 6.29559 16.9885 6.75809C17.621 6.98726 18.0085 6.38559 17.9543 5.90309C17.9085 5.50393 17.6427 5.24309 17.3468 5.05559C16.9427 4.79976 16.5135 4.21559 16.5135 3.49143C16.5135 2.57143 17.0727 1.74559 17.7635 1.74559C18.4543 1.74559 19.0143 2.49976 19.0143 3.33309H19.861C19.8585 3.38476 19.8477 3.43393 19.8477 3.48643C19.8477 5.03143 20.7185 6.29559 21.9885 6.75809C22.621 6.98726 23.0085 6.38559 22.9543 5.90309C22.9085 5.50393 22.6427 5.24309 22.3468 5.05559C21.9427 4.79976 21.5135 4.21559 21.5135 3.49143C21.5135 2.57143 22.0727 1.74559 22.7635 1.74559C23.4543 1.74559 24.0143 2.49976 24.0143 3.33309H25.6777C25.6602 1.66643 24.3643 0.148926 22.7643 0.148926Z" fill="#66757F"/>
<path d="M9.16667 12.5H12.5V15.8333H9.16667V12.5ZM13.3333 12.5H16.6667V15.8333H13.3333V12.5ZM17.5 12.5H20.8333V15.8333H17.5V12.5ZM21.6667 12.5H25V15.8333H21.6667V12.5ZM5 16.6667H8.33333V20H5V16.6667ZM9.16667 16.6667H12.5V20H9.16667V16.6667ZM13.3333 16.6667H16.6667V20H13.3333V16.6667ZM17.5 16.6667H20.8333V20H17.5V16.6667ZM21.6667 16.6667H25V20H21.6667V16.6667ZM5 20.8333H8.33333V24.1667H5V20.8333ZM9.16667 20.8333H12.5V24.1667H9.16667V20.8333ZM13.3333 20.8333H16.6667V24.1667H13.3333V20.8333ZM17.5 20.8333H20.8333V24.1667H17.5V20.8333ZM21.6667 20.8333H25V24.1667H21.6667V20.8333ZM5 25H8.33333V28.3333H5V25ZM9.16667 25H12.5V28.3333H9.16667V25ZM13.3333 25H16.6667V28.3333H13.3333V25Z" fill="white"/>
</svg>
