<svg width="34" height="32" viewBox="0 0 34 32" fill="none" xmlns="http://www.w3.org/2000/svg">
<g clip-path="url(#clip0_9137_25954)">
<path d="M21.1797 3.3335H22.843V5.326H21.1797V3.3335Z" fill="#66757F"/>
<path d="M23.168 3.3335H6.5013C4.66047 3.3335 3.16797 4.826 3.16797 6.66683V26.6668C3.16797 28.5077 4.66047 30.0002 6.5013 30.0002H23.168C25.0088 30.0002 26.5013 28.5077 26.5013 26.6668V6.66683C26.5013 4.826 25.0088 3.3335 23.168 3.3335Z" fill="#0A77DB" fill-opacity="0.5"/>
<path d="M20.5 3.3335H3.83333C1.9925 3.3335 0.5 4.826 0.5 6.66683V26.6668C0.5 28.5077 1.9925 30.0002 3.83333 30.0002H20.5C22.3408 30.0002 23.8333 28.5077 23.8333 26.6668V6.66683C23.8333 4.826 22.3408 3.3335 20.5 3.3335Z" fill="#0A77DB"/>
<path d="M23 11.8235C23 12.2789 22.5733 12.6471 22.0455 12.6471H2.95455C2.42764 12.6471 2 12.2789 2 11.8235C2 11.3689 2.42764 11 2.95455 11H22.0455C22.5733 11 23 11.3689 23 11.8235ZM23 15.9412C23 16.3966 22.5733 16.7647 22.0455 16.7647H2.95455C2.42764 16.7647 2 16.3966 2 15.9412C2 15.4858 2.42764 15.1176 2.95455 15.1176H22.0455C22.5733 15.1176 23 15.4858 23 15.9412ZM23 20.0588C23 20.5142 22.5733 20.8824 22.0455 20.8824H2.95455C2.42764 20.8824 2 20.5142 2 20.0588C2 19.6034 2.42764 19.2353 2.95455 19.2353H22.0455C22.5733 19.2353 23 19.6034 23 20.0588ZM15.3636 24.1765C15.3636 24.6319 14.937 25 14.4091 25H2.95455C2.42764 25 2 24.6319 2 24.1765C2 23.7211 2.42764 23.3529 2.95455 23.3529H14.4091C14.937 23.3529 15.3636 23.7211 15.3636 24.1765Z" fill="#A0C7FF" fill-opacity="0.7"/>
<path d="M4.53182 7.27561C3.94682 7.27561 3.47266 6.72061 3.47266 6.03478C3.47266 5.34978 3.94682 4.79395 4.53182 4.79395C5.11599 4.79395 5.59016 5.34978 5.59016 6.03478C5.59016 6.71978 5.11599 7.27561 4.53182 7.27561Z" fill="#292F33"/>
<path d="M5.11922 5.9026C5.07339 5.5026 4.80755 5.2426 4.51172 5.0551C4.10755 4.79927 3.67839 4.2151 3.67839 3.49094C3.67839 2.57094 4.23755 1.7451 4.92839 1.7451C5.61922 1.7451 6.17839 2.49927 6.17839 3.3326H7.84172C7.82422 1.66594 6.52922 0.148438 4.92839 0.148438C3.31672 0.148438 2.01172 1.66427 2.01172 3.48594C2.01172 5.0301 2.88255 6.2951 4.15255 6.7576C4.78589 6.9876 5.17255 6.3851 5.11922 5.9026Z" fill="#66757F"/>
<path d="M9.53182 7.27561C8.94682 7.27561 8.47266 6.72061 8.47266 6.03478C8.47266 5.34978 8.94682 4.79395 9.53182 4.79395C10.116 4.79395 10.5902 5.34978 10.5902 6.03478C10.5902 6.71978 10.116 7.27561 9.53182 7.27561Z" fill="#292F33"/>
<path d="M10.1192 5.9026C10.0734 5.5026 9.80755 5.2426 9.51172 5.0551C9.10755 4.79927 8.67839 4.2151 8.67839 3.49094C8.67839 2.57094 9.23755 1.7451 9.92839 1.7451C10.6192 1.7451 11.1784 2.49927 11.1784 3.3326H12.8417C12.8251 1.66594 11.5292 0.148438 9.92839 0.148438C8.31672 0.148438 7.01172 1.66427 7.01172 3.48594C7.01172 5.0301 7.88255 6.2951 9.15255 6.7576C9.78589 6.9876 10.1726 6.3851 10.1192 5.9026Z" fill="#66757F"/>
<path d="M14.5318 7.27561C13.9468 7.27561 13.4727 6.72061 13.4727 6.03478C13.4727 5.34978 13.9468 4.79395 14.5318 4.79395C15.116 4.79395 15.591 5.34978 15.591 6.03478C15.5902 6.71978 15.116 7.27561 14.5318 7.27561Z" fill="#292F33"/>
<path d="M15.1184 5.9026C15.0726 5.5026 14.8067 5.2426 14.5117 5.0551C14.1076 4.79927 13.6784 4.2151 13.6784 3.49094C13.6784 2.57094 14.2376 1.7451 14.9284 1.7451C15.6192 1.7451 16.1784 2.49927 16.1784 3.3326H17.8417C17.8251 1.66594 16.5292 0.148438 14.9284 0.148438C13.3167 0.148438 12.0117 1.66427 12.0117 3.48594C12.0117 5.0301 12.8826 6.2951 14.1526 6.7576C14.7851 6.9876 15.1717 6.3851 15.1184 5.9026Z" fill="#66757F"/>
<path d="M19.5318 7.27561C18.9468 7.27561 18.4727 6.72061 18.4727 6.03478C18.4727 5.34978 18.9468 4.79395 19.5318 4.79395C20.116 4.79395 20.591 5.34978 20.591 6.03478C20.5902 6.71978 20.116 7.27561 19.5318 7.27561Z" fill="#292F33"/>
<path d="M20.1184 5.9026C20.0726 5.5026 19.8067 5.2426 19.5117 5.0551C19.1076 4.79927 18.6784 4.2151 18.6784 3.49094C18.6784 2.57094 19.2376 1.7451 19.9284 1.7451C20.6192 1.7451 21.1784 2.49927 21.1784 3.3326H22.8417C22.8251 1.66594 21.5292 0.148438 19.9284 0.148438C18.3167 0.148438 17.0117 1.66427 17.0117 3.48594C17.0117 5.0301 17.8826 6.2951 19.1526 6.7576C19.7851 6.9876 20.1717 6.3851 20.1184 5.9026Z" fill="#66757F"/>
<path d="M10.5 26C14.6421 26 18 22.6421 18 18.5C18 14.3579 14.6421 11 10.5 11C6.35786 11 3 14.3579 3 18.5C3 22.6421 6.35786 26 10.5 26Z" fill="#0A77DB"/>
<path d="M7.66797 20.625C7.66797 21.7987 8.93659 22.75 10.5013 22.75C12.066 22.75 13.3346 21.7987 13.3346 20.625C13.3346 19.4513 12.066 18.5 10.5013 18.5C8.93659 18.5 7.66797 17.5487 7.66797 16.375C7.66797 15.2013 8.93659 14.25 10.5013 14.25C12.066 14.25 13.3346 15.2013 13.3346 16.375" fill="#0A77DB"/>
<path d="M7.66797 20.625C7.66797 21.7987 8.93659 22.75 10.5013 22.75C12.066 22.75 13.3346 21.7987 13.3346 20.625C13.3346 19.4513 12.066 18.5 10.5013 18.5C8.93659 18.5 7.66797 17.5487 7.66797 16.375C7.66797 15.2013 8.93659 14.25 10.5013 14.25C12.066 14.25 13.3346 15.2013 13.3346 16.375" stroke="white" stroke-width="2" stroke-miterlimit="10"/>
<path d="M10.5 14.125V11.125V14.125Z" fill="#0A77DB"/>
<path d="M10.5 14.125V11.125" stroke="white" stroke-width="2" stroke-miterlimit="10"/>
<path d="M10.5 25.75V22.75V25.75Z" fill="#0A77DB"/>
<path d="M10.5 25.75V22.75" stroke="white" stroke-width="2" stroke-miterlimit="10"/>
</g>
<g clip-path="url(#clip1_9137_25954)">
<rect x="14" y="12" width="20" height="20" rx="5" fill="white"/>
<path d="M17.332 17.8333H30.6654V19.5H17.332V17.8333ZM17.332 22.8333H30.6654V21.1667H17.332V22.8333ZM17.332 26.1667H23.1654V24.5H17.332V26.1667ZM17.332 29.5H23.1654V27.8333H17.332V29.5ZM26.8404 27.1417L25.6654 25.9583L24.4904 27.1333L26.8404 29.5L30.6654 25.6833L29.482 24.5L26.8404 27.1417ZM17.332 14.5V16.1667H30.6654V14.5H17.332Z" fill="#FF003D" fill-opacity="0.6"/>
</g>
<defs>
<clipPath id="clip0_9137_25954">
<rect width="30" height="30" fill="white"/>
</clipPath>
<clipPath id="clip1_9137_25954">
<rect x="14" y="12" width="20" height="20" rx="5" fill="white"/>
</clipPath>
</defs>
</svg>
