<svg width="256" height="241" viewBox="0 0 256 241" fill="none" xmlns="http://www.w3.org/2000/svg">
<g clip-path="url(#clip0_3406:32329)">
<path d="M85.2938 104.944C85.2938 104.944 80.4541 108.048 77.7665 110.825C74.9401 113.75 92.4937 128.537 93.7185 129.147C94.9433 129.752 102.461 125.968 102.461 125.968L100.656 119.18L91.2987 102.613L85.2938 104.944Z" fill="#F6DBD4"/>
<path d="M142.685 101.547C142.452 100.739 142.358 99.9209 142.358 99.0681C142.373 69.1327 142.368 39.2024 142.368 9.26705C142.368 4.48692 144.451 1.4919 148.566 0.222489C149.231 0.0191846 149.885 -0.00560866 150.55 -0.00560866C183.004 -0.00560866 215.463 -0.0105673 247.918 -0.00560866C252.177 -0.00560866 255.732 3.5299 255.732 7.76458C255.737 48.0139 255.732 88.2582 255.732 128.508C255.172 128.631 254.88 128.25 254.696 127.848C254.022 126.41 252.852 126.321 251.577 126.737C250.407 127.124 249.252 126.752 248.136 126.827C245.22 127.02 242.305 126.693 239.404 127.04C239.295 127.055 239.181 127.139 239.081 127.119C236.324 126.648 233.552 127.303 230.795 127C230.577 126.975 230.344 126.807 230.146 126.851C227.587 127.446 224.984 127.159 222.401 127.233C222.182 127.238 221.959 127.441 221.761 127.407C218.91 126.936 216.044 127.63 213.197 127.258C212.87 127.213 212.508 126.965 212.22 127.084C209.468 128.225 206.538 127.531 203.776 127.526C200.93 127.526 198.063 127.813 195.197 127.709C192.53 127.615 189.792 127.397 187.105 127.719C186.267 127.818 185.439 128.036 184.606 127.868C183.197 127.575 181.824 127.645 180.45 128.027C179.905 128.18 179.33 128.205 178.784 128.051C177.396 127.655 176.032 127.61 174.654 128.106C174.287 128.24 173.86 128.319 173.493 128.215C171.718 127.704 169.908 128.324 168.212 128.15C165.406 127.863 162.639 128.235 159.857 128.15C157.1 128.066 154.269 127.927 151.507 128.453C150.669 128.612 149.831 128.686 149.003 128.508C147.768 128.245 146.558 128.443 145.328 128.562C144.099 128.686 143.682 129.316 143.742 130.451C143.771 131.056 143.9 131.696 143.38 132.192C142.666 131.036 142.343 129.787 142.358 128.418C142.388 125.527 142.378 122.636 142.358 119.746C142.353 119.16 142.576 118.501 141.986 118.035C141.917 116.027 143.206 114.405 143.568 112.496C144.069 109.848 144.218 109.878 141.709 109.739C141.322 108.97 141.783 108.331 142.07 107.691C142.626 106.471 143.266 105.291 143.851 104.086C144.768 102.227 144.699 102.073 142.685 101.547Z" fill="#0078FF"/>
<path d="M167.161 223.291C169.749 223.97 172.352 224.575 174.951 225.22C179.438 226.336 183.901 227.555 188.413 228.542C190.962 229.102 193.427 230.114 196.094 230.114C196.833 230.114 197.557 230.164 197.959 229.326C198.212 228.8 198.742 228.74 199.268 228.77C201.514 228.899 203.696 229.301 205.719 230.337C206.175 230.57 206.676 230.788 206.557 231.433C206.453 232.023 205.922 232.231 205.451 232.345C202.258 233.104 199.069 233.878 195.787 234.145C193.769 234.309 191.874 234.716 190.084 235.812C187.704 237.269 184.878 237.359 182.2 237.835C178.476 238.499 174.673 238.494 170.934 239.109C168.688 239.476 166.367 239.357 164.086 239.461C159.46 239.664 154.804 240.195 150.222 239.997C147.321 239.873 144.529 240.527 141.638 240.413C139.551 240.334 137.592 240.24 135.614 239.61C135.212 239.481 134.493 239.436 134.329 239.654C133.392 240.894 132.614 240.463 131.726 239.63C131.414 239.337 130.967 239.178 130.477 239.397C130.234 239.506 129.872 239.61 129.663 239.511C127.06 238.266 124.258 239.768 121.615 238.901C120.569 238.554 119.518 239.392 118.477 239.173C115.447 238.539 112.377 239.109 109.348 239.064C106.744 239.025 104.047 238.935 101.404 239.025C98.5528 239.119 95.6073 238.792 92.7214 238.811C89.8057 238.831 86.9495 238.192 84.0091 238.43C81.9264 238.598 79.8488 237.879 77.7165 237.8C72.9314 237.626 68.1612 237.126 63.3761 236.888C61.1447 236.778 58.9183 236.694 56.6919 236.521C52.0308 236.149 47.3796 235.767 42.7283 235.266C40.0209 234.973 37.2937 234.795 34.5763 234.552C29.9053 234.135 25.3334 233.248 20.7368 232.425C16.5864 231.686 13.3484 229.593 10.3881 226.812C9.41121 225.894 10.1302 225.433 10.8542 225.066C12.5203 224.218 14.4046 224.164 16.1946 223.772C16.8293 223.633 17.3401 223.395 17.8409 223.043C18.669 223.415 18.6392 224.084 18.4558 224.808C18.3318 225.091 18.1136 225.289 17.8558 225.433C17.1864 225.83 17.3996 226.093 17.9946 226.271C19.3434 226.668 20.7467 226.752 22.1252 226.936C23.6177 227.134 25.1202 227.278 26.6227 227.451C28.9185 227.714 31.0904 228.329 33.1334 229.494C34.9978 230.555 37.1647 230.689 39.2275 231.16C42.287 231.859 45.3911 232.172 48.4605 232.727C51.3167 233.243 54.2274 233.407 57.1134 233.645C70.1744 234.716 83.2702 234.884 96.366 234.661C99.5891 234.607 102.817 234.398 106.045 234.398C109.006 234.398 111.966 234.314 114.926 234.349C115.318 234.309 115.71 234.324 116.101 234.339C117.351 234.428 118.61 234.304 119.86 234.438C120.053 234.458 120.247 234.497 120.435 234.552C124.526 234.651 128.562 235.256 132.609 235.772C135.49 236.362 138.43 236.486 141.346 236.833C142.819 237.23 144.311 237.021 145.799 237.011C147.554 237.041 149.314 236.892 151.06 237.145C154.209 237.552 157.362 237.512 160.511 237.16C165.351 236.952 170.2 236.843 175.005 236.109C176.483 236.154 177.906 235.777 179.161 235.102C181.159 234.031 183.316 233.64 185.473 233.159C187.015 232.965 188.552 232.727 190.079 232.44C191.25 232.365 192.41 232.221 193.546 231.983C185.294 230.208 177.078 228.16 168.856 226.127C170.17 226.891 171.579 227.387 173.056 227.684C173.77 227.828 174.494 227.952 175.144 228.289C176.294 228.894 176.825 230.203 176.438 231.428C176.007 232.797 174.951 233.02 173.756 232.782C171.941 232.42 170.116 232.192 168.286 231.949C160.799 230.957 153.321 229.916 145.819 229.058C144.252 228.879 142.903 228.369 141.847 227.183C139.04 226.331 136.119 226.281 133.248 225.909C131.101 225.626 128.9 225.83 126.792 225.195" fill="#EFF5FE"/>
<path d="M144.574 221.734C144.41 222.092 144.123 222.379 143.994 222.756C143.473 224.288 144.049 225.354 145.66 225.528C150.45 226.029 155.21 226.728 159.986 227.338C163.962 227.843 167.959 228.28 171.212 228.865C165.673 226.539 159.986 222.969 154.085 219.82C153.539 218.725 152.637 217.738 152.964 216.359" fill="#EFF5FE"/>
<path d="M143.375 132.218C143.489 131.176 143.032 130.155 143.34 129.079C143.503 128.504 143.657 128.151 144.287 128.186C145.08 128.231 145.913 127.799 146.583 127.928C149.246 128.444 151.849 127.641 154.487 127.809C155.642 127.884 156.822 127.988 157.988 127.636C158.796 127.388 159.644 127.427 160.472 127.651C160.74 127.72 161.047 127.884 161.28 127.814C164.305 126.951 167.429 127.69 170.488 127.512C172.883 127.373 175.477 126.937 177.941 127.457C179.067 127.695 180.128 127.765 181.204 127.398C182.196 127.061 183.202 127.383 184.159 127.304C187.159 127.051 190.164 127.571 193.135 127.17C194.087 127.041 194.92 126.778 195.857 127.289C196.611 127.695 197.483 127.606 198.296 127.274C198.609 127.145 198.941 126.852 199.219 126.902C201.941 127.413 204.673 126.847 207.391 127.046C208.045 127.095 208.67 127.393 209.364 127.204C211.01 126.753 212.652 126.917 214.343 126.951C216.589 127.001 218.875 127.016 221.131 126.991C222.792 126.971 224.592 127.145 226.09 126.897C228.49 126.5 230.776 126.857 233.076 126.669C234.628 126.54 236.324 126.971 237.554 126.614C240.296 125.816 242.974 127.289 245.617 126.272C246.351 125.989 247.387 125.93 248.086 126.232C249.38 126.788 250.496 126.585 251.741 126.188C253.362 125.672 254.736 125.925 255.162 127.933C255.212 128.156 255.534 128.32 255.728 128.508C256.253 132.178 252.078 136.269 248.379 136.313C242.275 136.388 236.171 136.125 230.067 136.259C226.075 136.343 222.068 136.73 218.101 136.482C215.503 136.318 212.89 136.279 210.326 136.358C207.063 136.462 203.781 135.857 200.538 136.532C199.774 136.69 199.11 136.189 198.401 136.274C195.088 136.67 191.746 135.956 188.449 136.571C187.868 136.269 187.239 136.418 186.634 136.418C175.055 136.408 163.482 136.413 151.903 136.403C151.298 136.403 150.674 136.551 150.089 136.249C146.999 136.338 144.857 134.826 143.375 132.218Z" fill="#198AFA"/>
<path d="M72.0394 127.843C71.4295 127.039 71.7121 126.112 71.7319 125.249C71.7865 122.413 71.4344 119.562 72.0047 116.74C72.4262 112.739 75.3418 110.969 78.5055 109.367C80.9947 108.107 83.1616 107.264 85.6707 109.783C87.3318 111.454 89.8855 112.188 92.1963 113.021C93.2574 113.76 94.5516 113.924 95.7169 114.4C96.188 114.593 96.5797 114.484 96.8524 114.038C97.1748 113.507 97.6359 113.121 98.1219 112.754C98.8111 112.198 99.4805 111.603 100.204 111.117C101.479 110.254 101.568 109.268 100.943 107.988C100.7 107.488 100.185 106.962 100.666 106.312C103.532 105.985 105.401 107.577 107.028 109.625C110.161 113.582 112.239 118.198 115.046 122.363C116.325 124.268 117.723 126.063 119.236 127.778C118.616 129.816 118.006 130.193 115.983 129.806C114.669 129.554 113.35 129.335 112.031 129.137C110.142 128.854 109.705 129.246 109.909 131.18C110.042 132.449 110.176 133.729 110.588 134.954C111.188 139.937 113.791 144.053 116.32 148.198C117.51 150.152 118.755 152.066 120.099 153.925C120.49 154.466 121.135 155.001 120.738 155.839C120.322 156.038 119.965 155.869 119.647 155.631C117.768 154.208 115.735 153.023 113.796 151.699C112.671 150.93 111.57 150.35 110.261 149.929C108.694 149.428 107.533 148.059 105.991 147.355C103.294 146.13 101.052 144.122 98.459 142.699C97.7202 142.297 97.0062 141.871 96.2177 141.563C93.3715 140.458 92.8558 139.496 93.2773 136.406C93.793 132.628 94.7797 128.939 95.3252 125.17C95.5929 123.345 95.9648 121.525 95.8409 119.661C95.8161 119.289 95.9698 118.798 95.5086 118.625C95.1715 118.496 94.8541 118.803 94.6508 119.041C92.2855 121.788 89.0277 123.692 87.193 126.94C86.7814 127.669 86.3252 128.383 85.7401 128.993C84.7286 130.049 83.9401 129.916 83.2856 128.587C83.0624 128.13 82.8939 127.649 82.8641 127.144C82.8393 126.742 82.7451 126.355 82.7153 125.954C82.9087 127.243 83.0228 128.547 83.1914 129.836C83.355 131.086 82.6707 132.048 81.6988 132.653C80.7319 133.253 79.8988 132.554 79.1302 131.958C76.9385 130.287 74.5088 129.028 72.0394 127.843Z" fill="#E76730"/>
<path d="M166.189 171.308C168.514 180.794 170.855 190.28 173.161 199.776C174.048 203.44 174.842 207.124 175.724 210.794C175.883 211.453 175.972 211.989 175.303 212.375C174.668 213.372 173.994 214.285 172.586 213.699C172.065 210.952 170.592 208.597 169.273 206.222C167.146 202.404 165.41 198.392 163.353 194.539C158.736 185.896 154.506 177.06 149.974 168.368C147.569 163.756 145.358 159.03 142.829 154.473C142.69 154.225 142.615 153.958 142.601 153.67C146.23 152.321 149.92 151.493 153.842 151.93C157.234 152.306 159.564 154.201 161.453 156.839C162.029 157.156 162.336 157.677 162.559 158.267C164.176 162.501 165.673 166.766 166.189 171.308Z" fill="#555277"/>
<path d="M126.901 225.068C131.791 225.048 136.615 225.707 141.43 226.431C141.753 226.481 142.055 226.645 142.367 226.759C143.027 228.375 142.918 230.036 142.7 231.717C142.447 233.651 142.883 234.137 144.782 234.306C152.443 234.985 160.124 234.578 167.795 234.588C169.789 234.588 171.812 234.32 173.81 234.023C174.837 233.869 175.63 233.517 175.977 232.471C176.27 231.588 176.974 231.311 177.817 231.301C181.68 231.246 185.547 231.271 189.41 231.335C189.688 231.34 189.97 231.39 190.233 231.494C190.645 231.658 191.175 231.831 191.116 232.347C191.061 232.818 190.412 232.52 190.139 232.813C188.602 233.294 187.03 233.527 185.418 233.487C183.127 233.844 180.861 234.271 178.789 235.421C177.728 236.011 176.528 236.274 175.332 236.507C170.433 237.37 165.485 237.583 160.521 237.524C157.382 237.791 154.248 237.791 151.109 237.524C149.314 237.524 147.514 237.519 145.719 237.519C144.291 237.038 142.784 237.653 141.356 237.186C138.4 237.147 135.475 236.899 132.599 236.175C128.806 235.486 125.007 234.826 121.12 234.99C120.792 235.005 120.45 235.054 120.158 234.831L120.153 234.826C118.809 234.544 117.465 234.544 116.121 234.826C115.784 234.826 115.442 234.826 115.105 234.826C111.659 234.434 108.197 234.757 104.741 234.677C102.009 234.618 99.2768 234.762 96.5445 234.811C90.1727 234.93 83.8008 234.965 77.429 234.836C71.4488 234.717 65.4885 234.286 59.5233 233.879C53.9448 233.502 48.4258 232.744 42.9168 231.876C41.0325 231.578 39.0887 231.201 37.4573 230.284C33.8474 228.261 29.8904 228.028 25.9533 227.602C23.7913 227.368 21.6343 227.086 19.4673 226.878C18.912 226.823 18.3665 226.63 17.8756 226.352C17.1814 225.955 17.2756 225.499 17.8756 225.073C17.9946 224.954 18.1136 224.835 18.2326 224.716C19.5566 225.226 20.9301 225.37 22.3285 225.256C24.0243 225.122 25.6855 225.42 27.3268 225.717C30.5945 226.312 33.7433 224.889 36.9862 225.216C37.6557 225.286 38.1218 224.884 38.4143 224.249C38.6325 223.783 38.6276 223.089 39.3912 223.054C46.373 222.608 53.3498 222.088 60.3415 221.75C63.9067 221.577 67.4918 221.731 71.067 221.736C71.3794 222.251 71.1067 222.673 70.8637 223.104C69.8125 225.147 68.2455 225.97 65.8555 225.985C62.1167 226.015 58.3778 226.456 54.6688 227.002C53.7514 227.135 52.3184 227.19 52.2539 228.112C52.1746 229.253 53.6572 229.124 54.5002 229.302C58.7745 230.215 63.1183 230.631 67.472 231.008C70.4869 231.266 73.5116 231.187 76.5215 231.549C78.5744 231.796 80.6521 231.554 82.7149 231.578C87.3512 231.638 92.0024 231.474 96.6338 231.687C101.548 231.915 106.467 232.149 111.376 232.53C111.877 232.57 112.378 232.654 112.883 232.644C120.267 232.511 127.67 233.071 135.034 232C136.645 231.767 138.222 231.4 139.824 231.112C140.424 231.003 141.133 230.81 141.143 230.046C141.153 229.297 140.443 229.084 139.868 228.896C136.541 227.805 133.085 227.453 129.614 227.249C128.617 227.19 127.571 227.314 126.777 226.496C126.515 225.995 126.48 225.514 126.901 225.068Z" fill="#D8E0F2"/>
<path d="M142.596 153.672C144.247 155.407 145.056 157.659 146.132 159.716C149.573 166.302 152.791 173.001 156.158 179.625C159.624 186.444 163.279 193.167 166.626 200.04C168.535 203.962 170.692 207.751 172.551 211.698C172.874 212.382 172.829 212.962 172.636 213.607C172.472 214.093 172.08 214.341 171.624 214.356C169.467 214.435 167.29 214.832 165.193 213.969C163.14 214.024 162.168 212.789 161.444 211.043C159.386 206.08 157.249 201.146 155.404 196.093C155.037 195.067 154.631 194.055 154.185 193.063C152.553 188.412 150.669 183.86 149.003 179.224C148.328 177.483 147.877 175.649 146.92 174.017C146.662 173.516 146.613 172.941 146.404 172.425C146.047 171.548 145.953 170.268 144.421 171.216C143.965 171.498 143.558 171.022 143.36 170.625C140.955 165.89 138.148 161.358 136.13 156.424C136.066 156.27 136.095 156.092 136.125 155.923C136.21 155.655 136.448 155.566 136.666 155.462C138.639 154.872 140.618 154.272 142.596 153.672Z" fill="#2D406A"/>
<path d="M15.2129 210.281C14.5039 208.158 14.4394 205.922 14.2212 203.73C13.7849 199.411 13.6559 195.077 14.1518 190.739C14.2658 189.747 14.5039 189.325 15.5253 189.395C16.4129 189.454 17.3105 189.4 18.203 189.395C18.7832 188.815 19.5418 188.874 20.2608 188.874C25.3038 188.854 30.3467 188.854 35.3847 188.874C36.1037 188.879 36.8574 188.815 37.4426 189.39C38.95 189.395 40.4624 189.4 41.9698 189.4C42.5748 189.4 43.1053 189.454 43.1202 190.253C43.1797 193.372 43.6756 196.481 43.4128 199.61C43.3979 199.813 43.2293 199.996 43.1301 200.195C42.2376 199.426 41.9549 200.279 41.6624 200.81C40.0905 203.646 37.9979 206.006 35.4393 208C31.5715 211.015 27.2327 211.634 22.5914 210.638C21.3517 210.37 20.2658 209.775 19.5666 211.471C19.2642 212.2 18.4757 212.219 17.8212 211.808C16.9633 211.267 16.0311 210.866 15.2129 210.281Z" fill="#E04B00"/>
<path d="M15.2133 210.28C16.2893 210.072 17.0034 210.781 17.7621 211.326C18.7191 212.016 19.3439 211.827 19.5521 210.682C19.7753 209.437 20.4943 209.472 21.4017 209.824C25.3488 211.356 29.3108 210.89 32.9405 209.145C35.8462 207.746 38.1966 205.391 40.0264 202.644C40.6462 201.717 41.2016 200.745 41.7966 199.798C42.0247 199.436 42.1041 198.806 42.6594 198.915C43.3586 199.049 43.0065 199.743 43.1355 200.189C42.9074 207.637 41.5784 214.912 39.5751 222.072C39.4859 222.389 39.4611 222.726 39.4066 223.054C38.3256 225.761 38.3256 225.756 35.1867 225.771C33.9124 225.776 32.6777 225.806 31.4182 226.277C29.8959 226.847 28.1752 226.401 26.6827 226.133C24.4463 225.731 22.2447 225.816 20.0331 225.786C19.1158 225.771 18.61 225.459 18.2431 224.715C18.2331 224.13 18.2629 223.54 17.8563 223.049C17.286 220.014 16.1356 217.118 15.7439 214.039C15.5803 212.784 15.1687 211.564 15.2133 210.28Z" fill="#E04B00"/>
<path d="M82.5519 93.8066C79.2644 89.795 78.466 85.2529 79.7999 80.3141C81.0346 75.7522 84.9916 73.4761 89.6825 74.2447C94.5767 75.048 99.4758 75.9307 104.479 75.7026C104.95 75.6827 105.55 75.4943 105.62 76.2778C105.848 78.7373 105.406 83.3587 102.01 84.8215C100.696 86.1901 99.0147 85.4165 97.4973 85.5901C95.2114 85.7091 92.9651 85.1637 90.6742 85.1984C89.5436 85.2132 89.0329 85.5504 88.9982 86.6909C88.9536 88.0347 88.666 89.3438 88.061 90.5587C87.6246 91.4314 87.0643 91.7338 86.0478 91.2429C84.1139 90.3157 83.6577 90.6082 83.2511 92.676C83.1619 93.1272 83.2908 93.7421 82.5519 93.8066Z" fill="#2B2F3F"/>
<path d="M82.5518 93.8068C82.9782 93.3308 82.7749 92.7407 82.8294 92.2052C83.0228 90.2416 84.5699 89.4383 86.0774 90.7226C87.2129 91.6895 87.5054 90.9556 87.7831 90.1821C88.2096 88.992 88.6063 87.7821 88.5567 86.473C88.5071 85.2979 88.7897 84.5194 90.3319 84.7078C92.6426 84.9904 94.9781 85.0301 97.3037 85.1739C97.9087 85.883 97.6211 86.6664 97.4426 87.4053C96.4409 91.516 95.1963 95.5622 93.9616 99.6084C93.3319 101.671 93.436 103.412 94.9385 104.993C95.479 105.157 96.0343 104.587 96.5748 105.023C96.9765 105.365 97.2393 105.812 97.3137 106.312C97.6608 108.559 98.5037 110.731 98.3103 113.056C98.1417 113.195 97.988 113.354 97.7996 113.463C97.1054 113.86 97.1103 115.248 96.3765 115.094C94.9137 114.792 93.5352 114.063 92.1319 113.488C92.0922 113.473 92.1666 113.185 92.1914 113.022C92.2162 112.912 92.2509 112.803 92.2608 112.694C92.5732 109.055 92.5732 109.055 89.1716 107.86C88.6955 107.691 88.2245 107.517 87.7633 107.324C85.2146 106.253 85.1898 106.074 85.3286 103.352C85.4179 101.632 85.2096 99.8911 85.1451 98.1605C85.1352 97.8531 85.036 97.6448 84.7484 97.506C83.1914 96.7671 82.8344 95.3093 82.5518 93.8068Z" fill="#F6DBD4"/>
<path d="M110.404 135.244C109.343 133.439 109.328 131.436 109.452 129.462C109.536 128.113 110.761 128.495 111.565 128.57C112.879 128.694 114.282 128.743 115.462 129.254C117.361 130.077 118.328 129.185 119.226 127.786C119.999 127.994 120.733 129.13 121.561 127.88C123.044 127.499 124.398 128.213 125.816 128.376C127.531 128.575 129.202 129.006 130.874 129.427C131.637 129.621 132.411 129.874 132.321 130.925C129.703 134.768 127.194 138.695 123.832 141.973C123.178 143.356 122.022 143.525 120.708 143.208C117.297 142.389 114.768 140.153 112.289 137.872C111.495 137.143 110.533 136.479 110.404 135.244Z" fill="#E76730"/>
<path d="M95.0126 105.586C93.7135 104.778 92.7069 102.626 93.0887 101.277C94.249 97.1564 95.449 93.0506 96.6292 88.9349C96.9812 87.7052 97.2936 86.4705 97.3085 85.1763C98.8754 85.0176 100.482 85.4193 102.019 84.8242C102.029 89.5548 101.657 94.2556 100.616 98.9316C101.265 99.001 101.826 98.158 102.327 98.882C102.768 99.5117 102.054 99.8638 101.846 100.335C101.712 100.637 101.518 100.915 101.32 101.183C100.145 102.775 98.9696 104.361 100.665 106.315C102.257 110.317 102.257 110.317 98.3101 113.054C97.968 111.551 97.5416 110.064 97.3135 108.546C97.125 107.272 96.8573 106.052 96.2622 104.907C95.4936 104.49 95.3399 105.194 95.0126 105.586Z" fill="#F6DBD4"/>
<path d="M132.322 130.928C131.955 130.243 131.375 130.015 130.611 129.812C127.621 129.019 124.502 128.86 121.562 127.878C124.135 124.789 127.115 122.096 129.937 119.255C131.013 118.169 131.667 116.622 133.239 116.047C133.239 118.179 134.489 119.622 135.902 121.001C136.423 121.511 136.988 121.725 137.677 121.725C138.173 122.255 138.148 122.885 137.781 123.405C135.991 125.929 134.147 128.424 132.322 130.928Z" fill="#E76730"/>
<path d="M137.677 121.726C137.295 121.894 137.211 122.841 136.541 122.222C135.158 120.932 133.764 119.623 133.035 117.813C132.792 117.213 132.931 116.608 133.234 116.043C134.85 114.357 134.295 112.339 134.161 110.36C134.111 109.582 133.169 108.417 134.22 108.089C135.247 107.772 135.559 109.156 135.996 109.954C136.477 110.827 136.918 111.719 137.374 112.607C137.83 113.465 137.166 114.079 136.893 114.774C136.601 115.522 136.035 116.192 136.368 117.119C137.245 115.537 137.944 113.881 138.673 112.24C139.263 110.911 140.052 109.825 141.668 109.711C142.09 109.592 142.506 109.458 142.928 109.349C144.163 109.037 144.723 109.77 144.46 110.767C143.796 113.246 143.215 115.77 141.981 118.066C141.143 118.78 140.305 119.42 139.11 119.519C137.81 119.628 137.751 120.724 137.677 121.726Z" fill="#F6DBD4"/>
<path d="M119.489 193.125C118.903 194.191 117.837 194.097 116.89 194.107C111.679 194.141 106.452 194.384 101.266 194.067C91.8739 193.497 82.4872 194.002 73.1054 193.789C73.0658 193.363 72.8724 193.09 72.4062 193.08C72.4509 192.376 72.8823 192.059 73.5269 192.123C75.2922 192.297 77.0227 191.86 78.8277 192.034C81.7136 192.312 84.6442 192.083 87.5549 192.113C90.9466 192.148 94.373 191.751 97.6705 193.036C98.3102 193.283 99.1135 193.115 99.8375 193.115C106.383 193.12 112.938 193.12 119.489 193.125Z" fill="#0875E1"/>
<path d="M164.821 213.694C166.893 213.996 168.976 214.021 171.064 213.977C171.624 213.967 172.165 213.947 172.641 213.615C173.831 213.853 174.46 212.881 175.303 212.375C175.432 212.851 175.472 213.372 175.7 213.798C176.414 215.137 176.94 216.362 175.036 217.2C174.624 217.383 174.421 217.899 174.46 218.345C174.589 219.793 173.612 220.299 172.517 220.641C171.336 221.008 170.146 221.266 169.189 220.076C168.441 219.148 167.404 218.623 166.289 218.261C165.793 216.838 165.302 215.41 164.806 213.987L164.727 213.843L164.821 213.694Z" fill="#F6DBD4"/>
<path d="M23.2213 165.883C22.4676 165.977 22.5718 166.567 22.6114 167.038C22.8544 169.86 23.0032 172.696 23.4247 175.493C23.8858 178.547 23.1271 179.197 20.1966 179.777C18.104 180.189 15.7536 179.504 13.8842 181.002C12.3718 178.329 10.6908 175.751 9.45117 172.929C9.70902 172.007 10.547 172.017 11.2512 171.769C11.8958 171.541 12.8379 171.635 12.8925 170.569C12.0545 166.999 11.2214 163.428 10.3636 159.863C10.2693 159.476 10.1107 159.129 10.4181 158.46C13.7553 163.617 15.952 169.205 19.0412 174.308C19.0313 170.103 17.0627 166.528 15.3916 162.878C13.7057 159.209 11.7619 155.668 9.61481 152.207C13.0908 154.493 14.9106 158.157 17.4594 161.554C17.504 161.009 17.5239 160.741 17.5437 160.478C17.4792 159.105 18.1933 158.509 19.5123 158.891C20.5685 159.199 21.2924 159.943 21.8974 160.825C22.3387 162.516 22.78 164.197 23.2213 165.883Z" fill="#0C7A5B"/>
<path d="M37.4423 189.39C31.0308 189.39 24.6143 189.395 18.2028 189.395C16.7648 186.598 15.3218 183.801 13.8838 181.005C14.1912 180.053 14.9301 179.636 15.8325 179.76C17.6772 180.013 19.3433 179.175 21.1333 179.056C22.6259 178.962 23.2308 177.925 23.0375 176.259C22.7052 173.423 22.5912 170.572 22.2391 167.735C22.1499 167.006 21.7383 165.876 23.2259 165.881C23.7019 167.646 24.173 169.416 24.649 171.181C25.3482 172.208 25.0705 173.338 24.9217 174.419C24.7829 175.416 24.7333 176.418 24.6391 177.414C24.6093 177.737 24.5201 178.129 24.8969 178.307C25.1845 178.446 25.4374 178.233 25.6159 178.024C26.5978 176.884 27.6887 176.894 28.8887 177.653C29.2258 177.866 29.6473 177.955 30.0192 177.811C31.9134 177.072 34.0556 176.978 35.6126 175.372C36.9316 174.008 38.7911 173.854 40.5613 173.616C41.072 173.547 41.5729 173.681 41.7811 174.266C41.682 174.732 41.5828 175.193 41.3795 176.115C43.7745 172.396 45.6836 168.955 47.6224 165.062C46.229 172.208 42.4208 183.613 37.4423 189.39Z" fill="#0C7A5B"/>
<path d="M41.7767 174.272C39.4263 173.91 37.2346 174.282 35.5239 176.017C33.8627 177.703 31.5024 177.485 29.5735 178.422C29.3454 178.531 28.8297 178.229 28.5421 178.001C27.3967 177.078 26.5438 177.306 25.8099 178.531C25.5669 178.938 25.2297 179.463 24.6149 179.087C24.0992 178.769 23.9752 178.318 24.0744 177.654C24.4066 175.516 24.714 173.364 24.6397 171.187C25.0066 169.774 25.2446 168.401 25.1058 166.883C24.9967 165.683 24.0992 164.097 25.8496 163.125C26.0678 163.006 25.9487 162.287 25.9884 161.845C27.4859 160.04 29.5586 159.386 31.309 160.164C31.309 162.401 31.309 164.637 31.309 166.873C31.4231 166.883 31.5421 166.893 31.6561 166.908C32.9206 158.136 34.19 149.369 35.4545 140.598C35.6528 143.573 35.8759 146.528 35.5338 149.484C35.4346 150.317 35.3801 151.16 35.4049 151.998C35.504 154.968 35.1669 157.923 35.0627 160.883C35.0429 161.414 34.8545 162.014 35.3355 162.475C37.0759 161.077 39.1338 161.231 40.0858 162.837C39.8627 164.399 39.6396 165.966 39.4164 167.528C39.5007 167.548 39.5801 167.573 39.6644 167.592C40.3734 165.792 41.0825 163.992 41.7916 162.193C43.5222 161.087 44.3999 161.087 45.7734 162.188C44.6527 166.283 43.5123 170.374 41.7767 174.272Z" fill="#0C7A5B"/>
<path d="M31.3138 160.164C29.2758 159.891 27.6593 160.947 25.9932 161.845C26.3551 158.755 26.7122 155.661 27.0741 152.572C27.4857 149.041 27.9022 145.511 28.3237 141.975C28.7303 138.554 29.1617 135.132 29.5485 131.711C29.9353 128.304 30.2923 124.888 31.0014 121.496C31.0014 122.071 30.9816 122.642 31.0064 123.217C31.4328 134.855 31.3287 146.503 31.3535 158.145C31.3535 158.82 31.3287 159.489 31.3138 160.164Z" fill="#0C7A5B"/>
<path d="M21.8974 160.828C21.2082 160.367 20.5635 159.817 19.8247 159.46C18.7388 158.934 17.7371 158.88 17.5437 160.486C16.5817 157.809 16.4181 154.967 15.9074 152.2C14.9107 146.795 14.0528 141.361 13.2545 135.926C12.4809 130.65 11.8264 125.359 11.1867 120.063C11.0925 119.295 10.4777 118.526 11.2016 117.391C11.8958 120.212 12.5305 122.766 13.1504 125.324C15.2925 134.141 17.3999 142.962 19.5966 151.759C19.9635 153.232 21.2726 154.337 21.2925 156.048C21.3123 157.64 21.6792 159.237 21.8974 160.828Z" fill="#0C7A5B"/>
<path d="M40.0902 162.833C38.5927 161.614 36.9812 161.876 35.3398 162.471C36.7382 157.374 38.0919 152.262 39.5547 147.184C41.4043 140.762 43.2588 134.341 44.8902 127.86C45.0092 127.379 44.9894 126.729 45.7282 126.348C45.4902 128.52 45.3216 130.592 45.029 132.645C44.31 137.648 43.5563 142.642 42.7679 147.635C41.9795 152.624 41.1365 157.607 40.3084 162.59C40.2935 162.68 40.1646 162.754 40.0902 162.833Z" fill="#0C7A5B"/>
<path d="M45.7787 162.181C44.4497 161.566 43.1258 161.869 41.7969 162.186C45.8927 151.833 49.2844 141.216 53.3753 130.848C53.3902 132.92 52.6563 134.824 52.215 136.793C50.4745 144.618 48.5952 152.403 46.4828 160.138C46.2944 160.828 46.0167 161.497 45.7787 162.181Z" fill="#0C7A5B"/>
<path d="M12.8925 170.568C13.5173 171.451 12.9024 171.689 12.2131 171.957C11.3008 172.309 10.2099 172.155 9.44622 172.928C7.78012 171.094 6.9421 168.743 5.57352 166.72C3.67932 163.914 1.919 161.018 0 158.003C1.00165 157.844 1.30412 158.563 1.6909 158.975C4.05121 161.499 6.37682 164.057 8.70242 166.611C9.63961 167.643 10.5272 168.719 11.514 169.7C11.8859 170.072 12.0991 170.831 12.8925 170.568Z" fill="#0C7A5B"/>
<path d="M141.674 109.71C138.654 111.168 138.436 114.406 137.092 116.93C136.864 117.356 137.067 118.264 136.195 117.991C135.456 117.758 135.51 116.974 135.723 116.414C136.214 115.125 136.824 113.875 137.385 112.611C139.393 109.041 140.92 105.237 142.69 101.553C143.375 101.196 144.039 101.013 144.654 101.697C145.229 102.332 144.887 102.956 144.609 103.551C143.647 105.609 142.656 107.657 141.674 109.71Z" fill="#6298FD"/>
<path d="M73.3486 196.179C77.5635 196.165 81.7783 196.145 85.9931 196.14C86.4196 196.14 86.9055 196.026 87.1634 196.537C83.0824 196.517 79.0064 196.507 74.9255 196.467C74.3999 196.462 73.7999 196.685 73.3486 196.179Z" fill="#0875E1"/>
<path d="M199.04 102.615C188.22 102.615 177.4 102.615 166.581 102.615C163.67 102.615 161.017 102.035 158.662 100.057C155.513 97.4087 154.199 92.6087 155.83 88.8302C157.685 84.536 160.923 82.4038 165.668 82.4087C188.037 82.4434 210.41 82.4782 232.778 82.379C237.335 82.3591 242.165 86.5294 242.641 90.9971C243.335 97.4732 238.635 101.807 234.489 102.333C233.378 102.472 232.283 102.615 231.162 102.615C220.456 102.61 209.746 102.615 199.04 102.615Z" fill="#FDFDFD"/>
<path d="M199.158 138C185.075 138 170.992 138 156.908 138C153.12 138 149.667 137.427 146.601 135.471C142.502 132.854 140.792 128.11 142.915 124.376C145.329 120.132 149.544 118.025 155.721 118.029C184.836 118.064 213.958 118.098 243.073 118C249.005 117.98 255.291 122.102 255.911 126.518C256.814 132.918 250.696 137.201 245.3 137.721C243.854 137.858 242.428 138 240.969 138C227.034 137.995 213.093 138 199.158 138Z" fill="#3699FF"/>
<path d="M178.645 58.1898C177.341 57.9567 176.994 56.722 176.394 55.8592C170.041 46.7651 170.478 33.2181 177.281 24.4462C181.684 18.7686 187.357 15.0794 194.428 13.924C203.2 12.491 210.995 14.7471 217.59 20.8711C221.998 24.9669 224.859 29.871 225.906 35.8263C227.364 44.1073 225.415 51.5155 220.268 58.1154C220.04 58.408 219.747 58.522 219.395 58.5419C218.478 58.4972 218.324 57.6691 217.992 57.084C217.01 55.3336 215.612 54.2526 213.638 53.7419C210.673 52.9733 207.663 52.4725 204.638 52.0262C203.403 50.494 203.225 48.8428 204.207 47.2709C204.886 46.175 205.536 45.0643 206.041 43.8841C206.517 42.7783 207.162 41.9007 208.178 41.1817C209.939 39.9271 210.018 38.2709 208.63 35.8114C208.937 33.0842 208.778 30.347 208.838 27.6099C208.873 26.0082 209.736 24.6198 209.959 23.0628C210.217 21.2479 210.122 21.0545 208.288 21.3471C204.668 21.9322 201.013 21.8132 197.398 21.6198C193.466 21.4066 191.284 23.7024 189.44 26.4942C188.423 28.0313 188.919 29.985 189.048 31.7602C189.127 32.871 189.43 33.9619 189.544 35.0776C189.559 35.6577 189.355 36.1387 189.003 36.6197C187.823 38.2164 188.126 40.2296 189.802 41.2362C190.784 41.8263 191.379 42.5899 191.785 43.6163C192.256 44.8163 192.861 45.9667 193.65 46.9932C194.85 48.5601 194.631 50.0874 193.605 51.6196C190.58 52.6312 187.526 53.5584 184.481 54.5105C182.82 55.0311 181.402 55.77 180.256 57.0791C179.825 57.565 179.394 58.1303 178.645 58.1898Z" fill="#FDFDFD"/>
<path d="M178.646 58.191C180.346 55.9398 182.464 54.4076 185.3 53.7828C188.057 53.1729 190.606 51.7795 193.467 51.5117C196.016 54.839 201.703 54.958 204.639 51.7398C208.115 51.8043 211.442 52.6919 214.764 53.5844C217.313 54.2687 218.171 56.5943 219.401 58.5431C218.736 60.2687 217.149 61.1563 215.835 62.2026C204.911 70.9001 188.826 69.591 179.305 59.3117C179.003 58.9844 178.66 58.6869 178.646 58.191Z" fill="#6A9FFE"/>
<path d="M198.881 112.367C194.791 112.367 190.695 112.357 186.604 112.377C185.558 112.382 184.7 112.338 184.734 110.914C184.769 109.65 185.091 108.971 186.569 108.981C194.81 109.035 203.052 109.025 211.293 108.986C212.622 108.981 213.058 109.457 213.048 110.756C213.038 112.03 212.528 112.402 211.328 112.387C207.177 112.343 203.032 112.367 198.881 112.367Z" fill="#FDFDFD"/>
<path d="M228.181 112.367C224.259 112.367 220.337 112.352 216.41 112.377C215.383 112.382 214.659 112.228 214.679 110.944C214.699 109.734 215.081 109 216.405 109C224.14 109.005 231.876 109 239.606 109.01C239.988 109.01 240.37 109.144 240.747 109.233C241.634 109.446 242.398 109.833 242.234 110.909C242.071 111.965 241.302 112.362 240.285 112.362C237.821 112.362 235.352 112.362 232.887 112.362C231.315 112.367 229.748 112.367 228.181 112.367Z" fill="#FDFDFD"/>
<path d="M170.141 109.293C174.054 109.293 177.971 109.347 181.883 109.263C183.212 109.233 183.435 109.744 183.455 110.924C183.47 112.154 183.014 112.402 181.893 112.392C174.123 112.352 166.348 112.372 158.578 112.372C158.409 112.372 158.24 112.377 158.077 112.367C157.001 112.323 156.183 111.896 156.197 110.706C156.212 109.531 157.085 109.298 158.072 109.298C162.093 109.293 166.115 109.293 170.141 109.293Z" fill="#FC98A4"/>
<path d="M130.501 196.451C129.862 195.226 129.227 194.006 128.587 192.781C127.556 190.758 126.525 188.735 125.488 186.712C124.561 184.778 123.718 182.795 122.538 180.99C122.057 180.315 121.992 179.363 121.169 178.917C120.475 177.955 120.172 176.8 119.632 175.758C119.161 174.851 118.556 174.578 117.589 174.846C115.804 175.342 113.984 175.639 112.139 175.818C110.771 175.947 109.635 175.535 108.906 174.449C107.88 172.917 106.68 171.509 105.758 169.907C105.718 167.884 105.683 165.856 105.644 163.833C105.068 163.064 105.52 162.196 105.411 161.383C105.287 161.081 105.163 160.778 105.034 160.476C104.568 159.94 103.918 159.459 104.439 158.606C106.378 157.798 108.42 157.545 110.493 157.406C112.174 157.862 113.002 159.35 113.786 160.61C115.784 163.808 118.353 166.56 120.47 169.664C125.359 176.829 130.645 183.712 135.777 190.704C138.653 194.621 141.4 198.647 144.227 202.604C146.305 205.515 148.591 208.287 150.718 211.173C151.467 212.189 152.195 213.186 151.63 214.55C150.177 216.097 148.134 215.963 146.3 216.424C144.931 216.518 143.572 216.578 142.387 215.705C140.667 215.601 139.705 214.723 138.936 213.127C136.224 207.518 133.328 202.004 130.501 196.451Z" fill="#37446D"/>
<path d="M190.145 232.809C190.363 232.655 190.586 232.501 190.869 232.298C190.492 231.837 189.971 231.797 189.431 231.797C185.518 231.797 181.611 231.807 177.703 231.782C176.865 231.777 176.265 231.886 176.34 232.937C176.414 233.959 175.655 234.341 174.862 234.435C172.378 234.728 169.889 235.08 167.394 235.124C161.91 235.228 156.421 235.085 150.937 235.189C148.581 235.233 146.271 234.812 143.925 234.797C142.457 234.787 141.763 233.909 142.085 232.258C142.447 230.418 142.314 228.589 142.378 226.749C143.38 228.837 145.447 228.509 147.168 228.728C152.013 229.342 156.867 229.893 161.702 230.642C164.87 231.133 168.079 231.4 171.262 231.802C172.085 231.906 172.894 232.134 173.707 232.313C174.748 232.536 175.69 232.65 176.057 231.261C176.424 229.873 175.963 228.876 174.654 228.504C172.998 228.033 171.252 227.86 169.685 227.091C168.907 226.709 168.188 226.209 167.166 225.594C168.381 225.628 193.348 231.232 195.326 231.871C193.482 232.67 191.831 232.828 190.145 232.809Z" fill="#E8E9EA"/>
<path d="M154.1 219.671C154.531 219.775 155.032 219.766 155.374 219.999C158.538 222.116 162.088 223.514 165.321 225.523C167.711 227.01 170.399 228.027 172.933 229.445C170.751 229.182 168.574 228.914 166.392 228.652C161.32 228.042 156.282 227.199 151.194 226.713C149.156 226.519 147.138 226.078 145.09 225.899C144.317 225.83 143.439 225.617 143.429 224.595C143.419 223.559 142.849 222.29 144.336 221.704C145.403 221.67 146.087 222.369 146.781 223.014C147.634 223.807 148.541 224.199 149.672 223.638C150.827 223.311 151.591 222.696 151.834 221.392C152.042 220.261 152.796 219.523 154.1 219.671Z" fill="#FDFDFD"/>
<path d="M17.8861 225.074C17.3704 225.887 17.9159 226.18 18.5555 226.368C20.058 226.815 21.61 226.914 23.1571 227.097C26.6332 227.504 30.1687 227.365 33.61 228.094C35.7521 228.55 37.4926 229.973 39.6446 230.534C43.7454 231.605 47.9107 232.264 52.1008 232.775C57.7883 233.474 63.5007 233.881 69.2279 234.233C73.423 234.491 77.6378 234.074 81.7832 234.575C84.6245 234.917 87.4609 234.853 90.2278 234.699C97.8939 234.272 105.55 234.674 113.211 234.501C113.851 234.486 114.565 234.243 115.12 234.818C111.243 235.041 107.36 234.947 103.477 235.046C93.5997 235.304 83.7122 235.264 73.8296 235.11C68.1569 235.021 62.4693 234.669 56.8264 234.079C52.8049 233.658 48.7686 233.261 44.7521 232.676C42.1388 232.294 39.6248 231.292 36.8926 231.377C35.2612 231.426 33.61 230.534 32.2463 229.636C30.0645 228.198 27.6348 228.129 25.2348 227.767C22.7654 227.395 20.2811 227.097 17.8117 226.73C17.2216 226.641 16.3787 226.492 16.4183 225.798C16.4431 225.089 17.2663 225.089 17.8861 225.074Z" fill="#E8E9EA"/>
<path d="M154.1 219.671C153.5 221.498 152.5 221.998 152.017 222.24C152.022 223.564 150.693 223.623 149.776 224.01C148.864 223.653 148.834 222.696 148.432 221.997C147.659 220.643 147.153 219.165 146.523 217.742C146.285 217.202 145.963 216.622 146.384 216.012C148.08 215.456 150.004 215.59 151.457 214.321C151.665 214.107 151.874 214.107 152.082 214.316C152.389 214.995 152.702 215.679 153.009 216.359C153.118 217.549 154.169 218.427 154.1 219.671Z" fill="#F6DBD4"/>
<path d="M146.389 216.013C147.198 218.815 148.695 221.324 149.776 224.012C148.74 224.691 147.763 224.522 146.955 223.674C146.181 222.871 145.224 222.351 144.337 221.716C144.059 219.594 143.077 217.699 142.378 215.711C143.717 215.81 145.051 215.909 146.389 216.013Z" fill="#F6DBD4"/>
<path d="M175.338 236.509C178.66 235.368 181.705 233.301 185.424 233.484C181.893 233.925 178.953 236.335 175.338 236.509Z" fill="#E8E9EA"/>
<path d="M120.163 234.833C124.17 234.639 128.122 235.11 132.044 235.869C132.242 235.908 132.421 236.072 132.604 236.176C130.353 235.933 128.082 235.809 125.866 235.398C124.527 235.145 123.213 235.274 121.894 235.165C121.309 235.115 120.659 235.378 120.163 234.833Z" fill="#E8E9EA"/>
<path d="M151.115 237.523C154.254 237.523 157.388 237.523 160.527 237.523C159.57 238.193 158.484 237.866 157.482 237.826C155.36 237.742 153.208 238.247 151.115 237.523Z" fill="#E8E9EA"/>
<path d="M141.361 237.188C142.809 237.371 144.317 236.791 145.725 237.52C144.277 237.341 142.77 237.922 141.361 237.188Z" fill="#E8E9EA"/>
<path d="M116.127 234.828C117.471 234.297 118.815 234.297 120.158 234.828C118.815 234.828 117.471 234.828 116.127 234.828Z" fill="#E8E9EA"/>
<path d="M110.692 157.744C108.584 158.111 106.472 158.473 104.364 158.84C103.76 158.964 103.502 158.627 103.378 158.106C102.287 156.822 100.784 156.738 99.2719 156.728C95.31 156.708 91.348 156.738 87.391 156.703C84.8819 156.678 82.3778 156.569 79.8737 156.515C79.358 156.505 78.8721 156.465 78.4803 156.088C77.8208 155.632 77.7316 154.873 77.4936 154.209C75.1134 147.639 73.5713 140.855 72.3068 134.002C72.1977 133.412 71.9647 132.802 72.3762 132.227C72.2622 130.769 72.1531 129.307 72.0391 127.849C73.2738 127.774 74.3647 128.28 75.2969 128.959C76.8192 130.07 78.6688 130.675 79.9878 132.108C80.3696 132.52 81.1729 132.907 81.639 132.316C82.2291 131.573 83.1464 130.844 82.7696 129.683C82.3233 128.31 82.5068 126.921 82.5018 125.419C83.2109 126.054 83.0621 126.907 83.3547 127.581C83.6373 128.231 83.6175 129.217 84.4059 129.351C85.1943 129.485 85.5464 128.612 85.9381 128.007C87.153 126.133 88.2439 124.13 90.0885 122.796C91.9133 121.477 93.0637 119.483 94.9331 118.239C95.2455 118.031 95.4488 117.5 95.8753 117.664C96.3711 117.857 96.2521 118.407 96.2769 118.849C96.4405 122.221 95.7166 125.493 95.1216 128.781C94.6356 131.459 94.0703 134.126 93.624 136.809C93.2026 139.328 93.8422 140.141 96.1827 141.123C98.4686 142.085 100.616 143.28 102.56 144.931C103.968 146.126 105.862 146.736 107.488 147.688C109.12 148.645 110.95 149.335 112.477 150.277C114.956 151.804 117.589 153.242 119.791 155.23C120.083 155.498 120.361 155.781 120.807 155.721L120.852 155.806C120.852 156.227 120.545 156.406 120.217 156.45C117.039 156.882 113.935 157.849 110.692 157.744Z" fill="#E76730"/>
<path d="M105.748 169.906C106.77 170.62 107.533 171.572 108.198 172.609C110.127 175.633 110.543 175.832 114.019 175.232C114.674 175.118 115.313 174.929 115.973 174.835C117.089 174.681 118.502 173.561 119.226 174.414C120.247 175.614 121.179 177.136 121.169 178.921C120.386 178.961 119.603 178.995 118.819 179.035C118.368 179.357 117.922 179.357 117.47 179.035C116.012 179.035 114.555 179.035 113.097 179.03C112.646 179.352 112.199 179.352 111.748 179.03C110.29 179.025 108.832 179.02 107.375 179.015C106.14 178.886 105.624 178.142 105.639 176.957C105.679 174.612 105.713 172.262 105.748 169.906Z" fill="#283E69"/>
<path d="M101.305 161.782C101.276 162.308 101.107 162.704 100.576 162.754C100.026 162.809 99.9863 162.382 99.9863 161.985C99.9863 161.47 100.056 160.919 100.73 160.959C101.167 160.984 101.286 161.42 101.305 161.782Z" fill="#BCD2FE"/>
<path d="M104.563 170.642C104.349 171.242 103.854 171.252 103.353 171.223C102.991 171.203 102.683 171.064 102.743 170.642C102.832 170.023 103.293 169.874 103.829 169.928C104.245 169.973 104.553 170.171 104.563 170.642Z" fill="#BCD2FE"/>
<path d="M103.681 164.176C104.003 164.255 104.583 164.037 104.504 164.662C104.444 165.113 104.048 165.425 103.557 165.465C103.111 165.505 102.783 165.252 102.749 164.81C102.689 164.121 103.239 164.22 103.681 164.176Z" fill="#BCD2FE"/>
<path d="M100.7 174.521C100.076 174.357 99.9666 173.945 100.006 173.484C100.041 173.083 100.21 172.681 100.691 172.735C101.246 172.8 101.32 173.266 101.3 173.727C101.276 174.154 101.038 174.411 100.7 174.521Z" fill="#BCD2FE"/>
<path d="M101.305 179.336C101.275 179.772 101.151 180.174 100.685 180.189C100.11 180.209 99.9961 179.747 99.9961 179.281C100.001 178.87 100.145 178.473 100.606 178.458C101.191 178.433 101.275 178.899 101.305 179.336Z" fill="#BCD2FE"/>
<path d="M103.779 177.233C103.278 177.099 102.758 177.02 102.758 176.46C102.758 175.9 103.264 175.969 103.64 175.969C104.017 175.964 104.518 175.88 104.593 176.395C104.682 177 104.082 177.005 103.779 177.233Z" fill="#BCD2FE"/>
<path d="M101.296 167.607C101.261 168.098 101.043 168.46 100.517 168.48C100.096 168.5 99.9864 168.173 100.001 167.816C100.021 167.32 100.254 166.963 100.775 166.938C101.196 166.923 101.296 167.245 101.296 167.607Z" fill="#BCD2FE"/>
<path d="M98.4191 164.76C98.3249 165.171 98.1315 165.478 97.6703 165.488C97.2092 165.498 96.9662 165.27 96.9811 164.794C96.996 164.398 97.2241 164.209 97.6009 164.199C97.9976 164.199 98.3645 164.269 98.4191 164.76Z" fill="#BCD2FE"/>
<path d="M97.5908 171.22C97.2041 171.195 96.9462 171.027 97.0206 170.605C97.095 170.174 97.3875 169.926 97.8338 169.951C98.1908 169.976 98.4933 170.139 98.404 170.566C98.3148 170.977 98.0669 171.255 97.5908 171.22Z" fill="#BCD2FE"/>
<path d="M92.6973 158.775C92.7171 159.266 92.4246 159.4 92.0775 159.434C91.6709 159.474 91.2593 159.429 91.294 158.874C91.3238 158.433 91.6213 158.185 92.0626 158.18C92.4791 158.175 92.5684 158.527 92.6973 158.775Z" fill="#BCD2FE"/>
<path d="M94.8144 162.858C94.6012 162.064 94.3582 161.504 94.8838 160.998C94.9384 160.944 95.226 161.023 95.3053 161.122C95.831 161.747 95.464 162.218 94.8144 162.858Z" fill="#BCD2FE"/>
<path d="M98.4289 158.972C98.3 159.359 98.0471 159.667 97.6207 159.682C97.2339 159.696 97.0356 159.394 97.0058 159.032C96.9761 158.581 97.2934 158.482 97.6554 158.477C98.0075 158.477 98.3198 158.561 98.4289 158.972Z" fill="#BCD2FE"/>
<path d="M97.6511 177.203C97.2643 177.153 97.0461 176.925 97.0114 176.553C96.9718 176.117 97.2643 175.983 97.6362 175.973C97.9883 175.968 98.3849 176.057 98.3998 176.434C98.4197 176.855 98.0478 177.088 97.6511 177.203Z" fill="#BCD2FE"/>
<path d="M86.7913 158.83C86.821 159.242 86.6078 159.425 86.221 159.435C85.864 159.445 85.5665 159.336 85.5764 158.91C85.5863 158.553 85.7797 158.28 86.1467 158.245C86.5334 158.21 86.702 158.493 86.7913 158.83Z" fill="#BCD2FE"/>
<path d="M124.576 224.712C125.028 225.764 125.479 226.815 125.965 227.941C126.654 227.588 126.768 227.008 126.887 226.423C128.945 227.053 131.092 226.736 133.194 227.028C135.575 227.36 137.92 227.772 140.216 228.456C141.014 228.694 141.966 228.987 141.946 230.013C141.927 231.074 141.103 231.407 140.122 231.605C136.026 232.433 131.9 233.048 127.72 233.127C123.689 233.202 119.647 233.216 115.616 233.127C109.819 232.998 104.043 232.537 98.2558 232.22C95.6228 232.076 92.9501 232.071 90.2972 232.066C86.9749 232.061 83.6179 231.972 80.3105 231.997C77.5287 232.017 74.7519 231.833 71.9899 231.734C65.5982 231.511 59.2115 231.025 52.9685 229.453C52.5917 229.359 52.2099 229.26 51.8578 229.096C50.8165 228.61 50.8314 227.916 51.7636 227.42C52.6363 226.959 53.6181 226.557 54.59 226.453C58.909 226.002 63.218 225.422 67.5668 225.417C68.3899 225.417 68.9205 225.099 69.3568 224.415C69.7436 223.81 70.2445 223.279 70.7006 222.719C71.6031 224.083 72.4858 223.046 73.3734 222.699C74.6031 223.136 75.8676 223.235 77.1618 223.22C84.089 223.141 90.9964 223.532 97.8939 224.162C99.8922 224.346 99.9963 224.266 100.854 222.154C100.934 222.079 101.092 221.98 101.117 222.015C101.727 222.878 102.679 223.225 103.581 223.661C103.765 224.231 104.057 224.653 104.732 224.683C111.352 224.95 117.966 225.104 124.576 224.712Z" fill="#C5D2ED"/>
<path d="M132.941 156.83C134.057 156.468 135.108 155.903 136.303 155.809C137.716 159.131 139.288 162.364 141.098 165.488C141.936 166.931 142.61 168.463 143.394 169.936C143.736 170.576 143.954 171.865 144.926 170.293C145.323 169.653 145.794 170.075 146.052 170.576C146.587 171.612 147.123 172.658 147.063 173.878C145.759 175.425 143.81 175.42 142.085 175.956C140.954 175.901 140.657 175.033 140.359 174.176C139.253 170.952 138.262 167.695 136.933 164.551C136.01 162.374 134.86 160.356 133.308 158.561C132.921 158.109 131.934 157.638 132.941 156.83Z" fill="#253C67"/>
<path d="M95.0126 105.584C95.0275 105.137 94.6358 104.542 95.3449 104.339C95.7565 104.22 96.2672 104.23 96.2623 104.909C95.8259 105.098 95.6275 105.732 95.0126 105.584Z" fill="#F4EFED"/>
<path d="M105.644 176.965C105.946 177.882 106.511 178.576 107.379 179.023C107.379 179.608 107.335 180.218 106.591 180.262C105.837 180.312 105.723 179.707 105.673 179.127C105.609 178.408 104.191 177.704 105.644 176.965Z" fill="#0875E1"/>
<path d="M103.378 158.105C103.705 158.348 104.032 158.596 104.364 158.839C104.488 159.424 105.178 159.782 105.034 160.476C104.32 160.471 103.903 159.886 103.328 159.603C102.321 159.117 102.584 158.582 103.378 158.105Z" fill="#0875E1"/>
<path d="M105.405 161.387C105.891 162.165 105.658 163.008 105.638 163.836C104.255 163.142 104.969 162.255 105.405 161.387Z" fill="#0875E1"/>
<path d="M117.47 179.039C117.921 179.039 118.367 179.039 118.818 179.039C118.794 179.575 118.823 180.249 118.065 180.19C117.465 180.14 117.475 179.53 117.47 179.039Z" fill="#0875E1"/>
<path d="M111.748 179.031C112.199 179.031 112.646 179.031 113.097 179.031C113.072 179.572 113.102 180.246 112.343 180.182C111.743 180.137 111.758 179.522 111.748 179.031Z" fill="#0875E1"/>
<path d="M56.8953 163.854C56.1019 161.246 55.963 158.529 55.5812 155.851C54.6589 149.385 54.3961 142.874 54.1085 136.349C53.9002 131.589 54.3267 127.101 56.563 122.916C58.6407 119.028 62.0126 116.946 66.4555 116.762C68.3002 116.683 70.1547 116.747 72.0043 116.747C72.4952 117.273 72.2621 117.908 72.2621 118.503C72.277 121.572 72.0786 124.642 72.401 127.701C72.4357 129.129 72.9415 130.537 72.6588 131.985C70.7497 132.848 68.9398 134.291 66.6539 132.947C65.9944 132.56 65.2109 132.615 64.5514 132.977C63.2523 133.686 62.0027 133.681 60.7382 132.927C60.5498 132.813 60.3118 132.823 60.0837 132.987C59.8605 133.527 60.2671 133.919 60.4754 134.346C62.9894 139.527 65.8555 144.521 68.801 149.465C69.753 151.061 70.8787 152.519 72.1431 153.858C73.9977 155.821 76.3679 156.208 78.9365 155.866C85.6753 156.317 92.419 156.298 99.1628 156.273C100.626 156.268 102.078 156.342 103.224 157.443C103.219 158.846 103.898 159.803 105.183 160.349C105.485 160.646 105.659 161.003 105.644 161.435C105.064 162.521 105.634 163.433 106.09 164.365C106.308 166.215 106.179 168.074 106.204 169.929C106.154 172.101 106.358 174.273 106.095 176.44C106.031 176.707 105.912 176.955 105.778 177.198C105.277 178.125 105.852 178.909 106.397 179.4C106.938 179.886 107.116 178.74 107.672 178.681C108.907 178.403 110.136 178.428 111.371 178.646C112.04 179.355 112.72 179.603 113.419 178.671C114.644 178.408 115.873 178.423 117.098 178.646C117.718 179.092 118.328 179.816 119.017 178.721C119.711 178.473 120.416 178.492 121.125 178.636C122.181 179.102 122.697 179.901 122.597 181.066C120.991 182.216 119.121 182.157 117.311 182.043C115.958 181.959 114.644 181.805 113.345 182.296C113.082 182.395 112.779 182.469 112.516 182.41C109.799 181.78 107.052 182.737 104.335 182.251C103.65 182.127 102.996 182.256 102.356 182.484C101.548 182.772 100.7 182.906 99.8719 182.737C98.4934 182.459 97.1942 182.256 95.781 182.797C94.7744 183.183 93.981 182.271 94.3083 181.051C94.6752 179.682 94.2339 178.393 94.2984 177.104C94.4174 174.615 94.3926 172.155 94.2141 169.676C94.1496 168.808 94.8984 168.005 94.5314 167.063C93.8918 165.412 93.5199 163.597 91.0306 163.805C89.9695 163.894 89.2554 162.997 88.9083 161.816C88.5761 163.329 87.6786 163.909 86.3348 163.924C84.9315 163.939 83.7711 163.572 83.2257 161.742C82.5959 163.264 81.5646 163.8 80.2703 163.835C78.9315 163.869 77.9199 163.24 77.2654 162.059C75.1976 164.226 72.8572 164.167 71.3696 161.876C70.8142 163.185 69.8125 163.616 68.4886 163.626C67.1349 163.636 66.277 163.002 65.7415 161.802C63.5746 164.251 61.6209 164.261 59.5829 161.911C58.7895 162.714 58.3184 163.959 56.8953 163.854Z" fill="#0875E1"/>
<path d="M72.4062 193.074C69.2525 192.757 67.1253 190.783 65.36 188.443C62.0228 184.015 60.2823 178.853 58.9237 173.547C58.8394 173.225 58.7203 172.912 58.6162 172.6C59.2509 171.757 60.0989 171.479 61.1302 171.583C64.1352 171.891 67.155 171.697 70.16 171.821C73.3285 171.955 76.5269 171.42 79.6657 172.178C79.9979 172.258 80.3301 172.243 80.6624 172.168C80.8805 172.119 81.0938 172.054 81.312 172C81.6194 171.925 90.8226 172.263 91.1251 172.337C92.5532 172.694 93.2028 173.686 93.535 175.054C94.2193 177.871 94.0656 180.727 94.0755 183.578C94.0904 187.863 94.1152 188.021 98.3895 187.863C106.77 187.555 115.165 187.476 123.53 186.851C124.09 186.811 124.626 186.628 125.186 186.568C125.692 186.553 126.009 186.866 126.232 187.253C127.105 188.785 127.869 190.377 128.667 191.948C128.875 192.365 128.865 192.801 128.538 193.188C127.75 193.743 126.842 193.624 125.965 193.624C123.808 193.624 121.646 193.684 119.489 193.595C112.725 193.595 105.956 193.639 99.1928 193.58C98.3499 193.575 97.5168 193.535 96.7086 193.282C94.6507 192.648 92.5383 192.573 90.4061 192.618C85.0458 192.742 79.6806 192.434 74.3203 192.658C73.6756 192.692 72.9616 192.553 72.4062 193.074Z" fill="#0875E1"/>
<path d="M125.489 186.72C125.027 187.018 124.636 187.39 124.006 187.41C121.497 187.484 118.993 187.638 116.489 187.727C109.908 187.96 103.328 188.208 96.7482 188.391C94.0308 188.466 93.6292 187.955 93.5796 185.153C93.5201 181.811 93.7779 178.469 93.0788 175.137C92.7366 173.496 91.8342 172.777 90.411 172.653C87.7234 172.42 84.9069 172.236 82.3383 172.484C79.5863 172.752 76.9086 172.236 74.1962 172.375C71.4045 172.519 68.4591 172.747 65.5979 172.276C64.031 172.018 62.4194 172.722 60.8277 171.993C60.074 171.646 59.4095 172.558 58.6211 172.608C57.9467 169.712 56.9897 166.871 56.8955 163.861C57.6641 163.127 58.9286 162.844 59.0128 161.476C59.0327 161.134 59.3451 160.891 59.7269 160.891C60.1732 160.891 60.2476 161.233 60.2674 161.585C60.3566 163.087 61.4624 163.097 62.5533 163.182C63.7186 163.271 64.6955 163.117 64.9533 161.734C65.0227 161.367 64.9781 160.881 65.5434 160.891C66.0045 160.901 66.2525 161.223 66.2971 161.649C66.4855 163.375 67.7649 163.177 68.945 163.177C70.0458 163.177 70.8194 162.859 70.7252 161.545C70.7004 161.183 70.8541 160.871 71.2954 160.896C71.6772 160.916 71.9797 161.178 71.9797 161.516C71.9748 162.884 72.7781 163.221 73.9433 163.172C75.0194 163.122 76.2838 163.449 76.5119 161.783C76.5615 161.406 76.8689 161.015 77.3053 161.054C77.6921 161.089 77.7218 161.506 77.7813 161.843C78.0094 163.226 79.1896 163.489 80.1863 163.42C81.1334 163.355 82.6111 163.489 82.5168 161.724C82.497 161.317 82.7102 160.911 83.2111 160.96C83.6871 161.005 83.8061 161.411 83.821 161.828C83.8904 163.563 85.1747 163.464 86.3548 163.509C87.53 163.554 88.3284 163.201 88.2292 161.803C88.1945 161.317 88.4573 160.901 89.0077 160.896C89.5631 160.896 89.5532 161.372 89.5433 161.759C89.5135 163.251 90.54 163.529 91.6755 163.489C93.2027 163.43 94.0358 163.732 94.4424 165.542C94.7548 166.94 95.3697 168.046 94.6953 169.573C94.3284 170.401 94.3284 171.641 95.0523 172.623C95.4887 173.213 95.325 173.917 94.973 174.532C94.492 175.365 94.4474 176.297 94.6705 177.14C95.0275 178.499 95.3796 179.714 94.7003 181.152C94.1895 182.228 95.0374 182.907 96.1234 182.302C97.2292 181.687 98.1267 181.663 99.2424 182.218C99.7878 182.491 100.68 182.56 101.206 182.297C103.661 181.087 106.299 181.866 108.743 181.866C111.649 181.866 114.53 181.147 117.46 181.628C119.151 181.905 120.882 181.454 122.553 180.998C122.791 180.948 123.029 181.008 123.128 181.211C123.996 183.006 125.469 184.548 125.489 186.72Z" fill="#0875E1"/>
<path d="M119.488 193.126C121.997 193.121 124.506 193.126 127.015 193.106C127.551 193.101 128.146 193.28 128.592 192.789C129.995 193.612 130.521 194.896 130.506 196.458C128.771 196.454 127.035 196.478 125.299 196.424C124.402 196.394 124.055 196.533 124.164 197.609C124.585 201.824 124.883 206.048 125.225 210.268C125.567 211.012 125.111 211.419 124.531 211.642C123.623 211.994 122.845 211.652 122.2 210.972C121.62 210.159 121.62 209.177 121.461 208.25C120.911 205.057 120.371 201.858 119.88 198.655C119.696 197.44 119.151 196.93 117.896 196.959C115.214 197.024 112.531 197.014 109.848 196.964C108.529 196.939 107.924 197.485 107.766 198.784C107.513 200.837 107.185 202.88 106.814 204.913C106.625 205.954 106.491 207.02 105.871 207.928C104.756 208.736 103.64 208.627 102.529 207.913C101.805 206.148 102.638 204.412 102.668 202.662C102.698 200.792 103.243 198.938 102.911 197.058C102.683 196.781 102.395 196.627 102.038 196.632C98.855 196.687 95.6665 196.449 92.488 196.766C91.4319 197.45 90.8319 198.521 90.1426 199.518C89.6418 200.242 89.2401 201.05 88.417 201.496C86.0666 202.265 85.4567 202.096 84.7873 200.495C85.3823 199.057 86.374 197.857 87.1674 196.538C86.6269 196.087 85.9872 196.33 85.3972 196.32C81.3807 196.225 77.3642 196.463 73.3526 196.186C72.7774 195.437 73.1295 194.594 73.1047 193.791C73.7443 193.191 74.5526 193.26 75.3261 193.265C83.0914 193.325 90.8666 193.012 98.6269 193.439C104.662 193.771 110.696 193.528 116.731 193.617C117.668 193.627 118.625 193.622 119.488 193.126Z" fill="#0875E1"/>
<path d="M110.404 135.242C112.869 138.178 115.71 140.642 119.196 142.303C120.803 143.072 122.379 143.32 123.837 141.971C124.636 144.039 126.331 145.472 127.641 147.163C129.569 149.647 131.627 152.062 134.102 154.065C134.875 154.69 135.584 155.414 136.665 155.469C136.546 155.583 136.427 155.692 136.308 155.806C135.317 156.728 134.047 156.961 132.783 157.194C131.925 157.244 131.141 156.951 130.348 156.698C128.146 155.999 125.915 155.682 123.604 156.123C122.736 156.287 121.834 156.381 120.991 155.94C120.927 155.865 120.867 155.791 120.803 155.721C117.421 150.748 113.905 145.844 111.575 140.25C110.915 138.659 110.107 137.072 110.404 135.242Z" fill="#0875E1"/>
<path d="M70.7051 222.722C70.829 222.395 70.9481 222.063 71.072 221.736C74.2009 216.901 77.3249 212.066 80.4538 207.227C81.3959 207.638 82.3579 207.995 83.2405 208.536C83.4538 208.932 83.3397 209.299 83.1017 209.632C79.8885 214.099 76.8141 218.666 73.4621 223.035C71.6968 224.046 71.31 224.002 70.7051 222.722Z" fill="#0875E1"/>
<path d="M83.1755 208.605C82.1045 208.466 81.0334 208.337 80.4482 207.231C81.8714 204.97 83.1359 202.61 84.7822 200.492C85.7541 202.168 87.197 201.345 88.5111 201.186C88.7243 201.608 88.4962 201.955 88.278 202.262C86.8946 204.211 85.5706 206.2 84.1425 208.114C83.9144 208.421 83.6466 208.729 83.1755 208.605Z" fill="#0875E1"/>
<path d="M166.189 171.308C164.91 167.371 164.096 163.29 162.539 159.437C162.187 158.569 161.81 157.707 161.443 156.844C164.429 157.528 166.125 159.715 166.224 163.235C166.303 165.923 166.209 168.616 166.189 171.308Z" fill="#0875E1"/>
<path d="M122.533 210.936C123.594 211.372 124.719 212.057 125.215 210.262C125.751 211.967 125.671 213.748 125.875 215.498C126.247 218.686 126.559 221.88 126.896 225.073C126.891 225.524 126.886 225.976 126.886 226.427C127.328 227.191 126.961 227.771 126.321 228.053C125.607 228.366 125.433 227.617 125.171 227.171C124.69 226.357 124.417 225.455 124.184 224.543C123.549 220.744 122.904 216.951 122.29 213.153C122.161 212.399 121.868 211.606 122.533 210.936Z" fill="#0875E1"/>
<path d="M72.376 132.223C73.5512 137.593 74.4239 143.028 76.0751 148.289C76.8883 150.883 77.6768 153.491 78.4751 156.089C76.4272 156.873 73.2487 155.841 71.7016 154.106C68.5033 150.521 66.4256 146.236 64.0702 142.131C62.4834 139.369 61.0752 136.503 59.5628 133.696C59.3347 133.274 59.1016 132.838 59.4388 132.466C59.8206 132.045 60.4603 132.074 60.8272 132.397C62.0669 133.478 63.2272 133.235 64.5066 132.486C65.4636 131.931 66.4752 132.139 67.3479 132.784C68.0669 133.309 68.7909 133.453 69.4999 132.888C70.3727 132.193 71.3594 132.174 72.376 132.223Z" fill="#0875E1"/>
<path d="M149.354 178.987C151.094 183.688 152.835 188.389 154.575 193.09C153.797 193.848 152.805 193.635 151.888 193.63C150.395 193.625 148.888 193.809 147.41 193.452C146.646 193.144 146.453 192.42 146.195 191.746C144.777 188.052 143.815 184.204 142.372 180.515C142.139 179.919 141.837 179.23 142.595 178.71C144.866 178.412 147.137 178.065 149.354 178.987Z" fill="#0875E1"/>
<path d="M142.02 175.638C143.706 175.053 145.387 174.468 147.073 173.883C148.308 174.557 148.055 175.97 148.595 176.992C148.927 177.617 149.106 178.321 149.354 178.99C147.048 178.99 144.742 178.995 142.432 178.995C141.564 178.475 141.524 177.532 141.276 176.699C141.093 176.045 141.529 175.822 142.02 175.638Z" fill="#0875E1"/>
<path d="M147.138 193.086C149.617 193.086 152.096 193.086 154.576 193.091C154.962 193.988 155.349 194.886 155.731 195.783C155.225 196.433 154.531 196.423 153.777 196.463C151.962 196.552 150.118 196.106 148.333 196.74C147.034 195.818 146.86 194.524 147.138 193.086Z" fill="#0875E1"/>
<path d="M105.673 207.907C105.465 211.19 104.627 214.373 104.17 217.616C103.903 219.54 103.605 221.459 103.318 223.378C101.726 224.286 101.681 224.256 101.324 222.054C101.592 217.319 102.053 212.603 102.708 207.902C103.694 207.902 104.681 207.907 105.673 207.907Z" fill="#0875E1"/>
<path d="M103.66 196.511C99.7381 196.486 95.8207 196.461 91.8984 196.436C92.6422 195.861 93.505 196.163 94.3133 196.148C96.9216 196.109 99.5298 196.119 102.138 196.143C102.659 196.148 103.264 195.925 103.66 196.511Z" fill="#0875E1"/>
<path d="M147.137 193.083C147.539 194.303 147.936 195.518 148.337 196.738C149.934 201.463 151.471 206.209 153.162 210.904C153.723 212.457 153.757 213.587 152.086 214.316C151.878 214.316 151.67 214.321 151.461 214.321C151.62 213.304 151.213 212.471 150.628 211.693C147.197 207.106 143.647 202.604 140.369 197.898C137.2 193.351 134.101 188.739 130.675 184.391C126.331 178.882 122.513 173.001 118.318 167.392C116.156 164.506 114.078 161.546 111.817 158.735C111.51 158.353 111.068 158.07 110.691 157.743C113.662 156.89 116.731 156.582 119.766 156.111C120.143 156.052 120.549 156.131 120.847 155.804C123.554 155.834 126.237 155.07 128.984 155.72C130.323 156.037 131.478 157.004 132.941 156.825C132.747 157.143 132.728 157.42 133.03 157.708C136.263 160.768 137.597 164.854 139.03 168.88C139.68 170.71 140.295 172.549 140.895 174.399C141.088 174.999 141.222 175.604 142.02 175.634C141.222 176.1 141.638 176.729 141.817 177.305C141.99 177.875 142.228 178.43 142.437 178.991C144.004 183.686 145.571 188.382 147.137 193.083Z" fill="#555277"/>
<path d="M165.41 89.3089C166.992 89.2841 168.549 90.7717 168.599 92.3585C168.653 94.0494 167.146 95.5568 165.415 95.5469C163.759 95.532 162.336 94.1089 162.326 92.4527C162.321 90.8262 163.779 89.3387 165.41 89.3089Z" fill="#243C67"/>
<path d="M187.362 95.5444C185.671 95.5741 184.263 94.1857 184.243 92.475C184.224 90.7841 185.617 89.356 187.303 89.3361C188.974 89.3163 190.422 90.7444 190.427 92.4155C190.432 94.1212 189.068 95.5146 187.362 95.5444Z" fill="#243C67"/>
<path d="M223.208 92.4508C223.213 94.1664 221.83 95.5598 220.144 95.5449C218.463 95.5301 217.055 94.1169 217.055 92.4408C217.055 90.7499 218.468 89.3417 220.154 89.3516C221.899 89.3714 223.203 90.6954 223.208 92.4508Z" fill="#243C67"/>
<path d="M206.19 92.2765C206.269 90.5657 207.712 89.2616 209.423 89.3608C211.119 89.455 212.443 90.9327 212.344 92.6186C212.249 94.2847 210.752 95.6236 209.076 95.5443C207.405 95.4699 206.111 94.0021 206.19 92.2765Z" fill="#243C67"/>
<path d="M179.389 92.4868C179.374 94.2372 178.04 95.5661 176.325 95.5413C174.644 95.5165 173.29 94.1083 173.305 92.3975C173.315 90.6719 174.693 89.3232 176.409 89.348C178.145 89.3777 179.404 90.7017 179.389 92.4868Z" fill="#243B67"/>
<path d="M201.345 92.3952C201.36 94.1059 199.997 95.5291 198.331 95.5439C196.63 95.5588 195.217 94.1853 195.192 92.4894C195.167 90.7936 196.55 89.3705 198.236 89.3556C199.972 89.3407 201.331 90.6696 201.345 92.3952Z" fill="#243C67"/>
<path d="M204.633 51.7369C204.752 52.7584 204.128 53.2642 203.304 53.6113C200.443 54.8113 197.597 54.8311 194.726 53.5865C193.744 53.1601 193.367 52.5204 193.466 51.5088C194.007 49.9072 194.433 48.3799 193.04 46.8874C192.38 46.1783 191.959 45.2014 191.577 44.2841C191.096 43.1287 190.709 42.132 189.356 41.4924C187.481 40.6048 187.372 37.5701 188.934 36.2759C189.257 36.0131 189.078 35.656 189.182 35.3536C189.995 35.056 189.971 34.3321 189.995 33.6726C190.03 32.6065 190.114 31.5453 190.427 30.5189C191.215 27.9106 194.037 27.0577 196.218 28.6396C199 30.6528 202.104 30.5883 205.199 29.5817C207.514 28.8329 207.847 28.942 208.293 31.3718C208.575 32.904 208.526 34.4759 208.898 35.9932C210.747 37.0891 210.514 40.6147 208.382 41.6659C207.41 42.1469 207.004 42.7767 206.642 43.6692C206.22 44.6907 205.818 45.8014 205.104 46.6097C203.642 48.2808 203.899 49.9518 204.633 51.7369Z" fill="#E3ACA9"/>
<path d="M208.897 36.0004C207.722 35.207 208.515 33.8434 207.99 32.8467C207.851 32.5789 207.98 32.1822 207.935 31.85C207.588 29.2368 207.638 29.4401 205.099 30.1343C201.623 31.0814 198.112 31.2797 195.286 28.369C194.711 27.774 194.24 27.9723 193.64 28.1608C192.301 28.5773 191.23 29.212 190.783 30.6847C190.243 32.4897 190.764 34.4582 189.95 36.2037C189.33 36.164 189.544 35.5244 189.177 35.3657C188.845 33.7839 188.706 32.1674 188.403 30.5905C187.764 27.2186 189.712 25.0616 191.681 22.9046C192.866 21.6054 194.532 21.2236 196.243 21.2038C198.653 21.179 201.058 21.1641 203.468 21.2236C205.496 21.2732 207.489 21.055 209.453 20.6186C210.469 20.3955 210.653 20.8071 210.558 21.6401C210.449 22.5823 210.553 23.6385 210.157 24.4418C209.106 26.569 209.319 28.7905 209.339 31.007C209.358 32.693 209.284 34.3591 208.897 36.0004Z" fill="#141F35"/>
<path d="M143.543 222.301C143.543 222.301 142.889 224.051 142.596 227.17C142.304 230.289 141.952 233.195 141.952 233.195C141.952 233.195 141.614 234.623 144.138 234.786C146.662 234.95 158.766 235.163 159.758 235.163C160.75 235.168 169.298 235.054 170.226 234.965C171.153 234.876 175.586 234.583 176.127 233.82C176.667 233.056 177.287 229.322 175.194 228.727C173.102 228.132 161.523 223.416 160.323 222.797C159.123 222.177 155.122 219.782 154.442 219.648C153.763 219.514 152.469 221.284 152.023 222.236C151.576 223.188 148.304 224.279 147.361 223.635C146.419 222.99 144.639 220.511 143.543 222.301Z" fill="#37446D"/>
<path d="M165.46 217.941C165.46 217.941 164.806 219.692 164.513 222.811C164.221 225.93 163.869 228.836 163.869 228.836C163.869 228.836 163.531 230.264 166.055 230.427C168.579 230.591 180.683 230.804 181.675 230.804C182.667 230.809 191.215 230.695 192.143 230.606C193.07 230.517 197.503 230.224 198.044 229.46C198.584 228.697 199.204 224.963 197.111 224.368C195.019 223.773 183.44 219.057 182.24 218.437C181.04 217.817 177.039 215.422 176.359 215.288C175.675 215.155 174.386 216.925 173.94 217.877C173.493 218.829 170.221 219.92 169.278 219.275C168.336 218.631 166.556 216.151 165.46 217.941Z" fill="#37446D"/>
<path d="M71.9993 116.742C71.9993 116.742 72.8571 132.481 74.4935 138.253C76.1298 144.025 76.6654 155.727 78.9265 155.861C81.1926 155.995 97.4669 154.021 99.9859 155.459C102.505 156.897 105.976 158.102 106.085 164.365C106.189 170.628 106.779 177.233 106.779 177.233C106.779 177.233 108.544 178.844 114.812 178.393C121.08 177.942 122.141 177.798 124.576 181.963C127.01 186.129 131.106 196.735 131.106 196.735L101.756 191.985C101.756 191.985 83.4686 170.519 82.5513 170.583C81.6339 170.648 65.2853 166.418 65.1216 164.072C64.958 161.727 61.2539 148.413 61.2539 146.519C61.2539 144.625 71.9993 116.742 71.9993 116.742Z" fill="#0875E1"/>
<path d="M10.6908 48.0655C10.5619 46.0771 10.5123 44.0936 10.7205 42.1102C18.58 42.1102 26.4345 42.1052 34.2939 42.1052C34.7204 41.6986 35.2658 41.6887 35.7964 41.6837C37.5319 41.6788 39.2724 41.6391 41.008 41.7036C42.7286 41.6639 44.4542 41.6589 46.1749 41.7036C47.9749 41.6639 49.7699 41.654 51.5699 41.7036C53.0922 41.6689 54.6145 41.6589 56.1368 41.7085C56.8013 41.6837 57.4657 41.6738 58.1302 41.7085C61.0161 41.6292 63.907 41.7631 66.788 41.6342C67.2938 41.4953 67.1797 40.7614 67.7152 40.6523C67.6557 42.0308 68.4293 42.1846 69.6095 42.1548C73.016 42.0755 73.016 42.1251 73.016 45.4721C73.016 47.8473 72.7929 48.0606 70.3632 48.0655C50.474 48.0655 30.5799 48.0655 10.6908 48.0655Z" fill="#C06D02"/>
<path d="M46.2001 42.0722C44.4645 42.0771 42.724 42.0821 40.9885 42.092C40.5621 41.5515 40.6117 40.9069 40.6117 40.2821C40.6017 34.2078 40.6067 28.1334 40.6067 22.0591C40.6067 21.469 40.6315 20.8889 40.8844 20.3434C40.9141 16.9219 40.9786 13.5054 40.9489 10.084C40.9389 9.07737 41.1373 8.53687 42.2579 8.73026C42.4761 8.76993 42.7092 8.73522 42.9323 8.73522C46.1951 8.73522 46.1951 8.73522 46.2348 11.9831C46.6513 12.5236 46.6364 13.1633 46.6364 13.793C46.6414 22.6244 46.6463 31.4508 46.6315 40.2821C46.6315 40.9069 46.681 41.5565 46.2001 42.0722Z" fill="#0875E0"/>
<path d="M46.2002 42.0734C46.2101 32.0421 46.22 22.0108 46.2349 11.9844C47.6729 12.0092 49.1109 12.0687 50.5489 12.0439C51.3175 12.029 51.5803 12.3216 51.5655 13.0703C51.5407 14.2802 51.5902 15.4951 51.6051 16.71C52.0564 17.1215 52.0464 17.6819 52.0464 18.2124C52.0663 25.6256 52.0663 33.0438 52.0464 40.4569C52.0464 41.0371 52.0564 41.642 51.5407 42.0685C49.7555 42.0685 47.9754 42.0685 46.2002 42.0734Z" fill="#40B3E4"/>
<path d="M40.879 20.3464C40.9088 23.5844 40.9484 26.8274 40.9633 30.0654C40.9831 34.0769 40.9831 38.0835 40.9881 42.0951C38.7567 42.0951 36.5253 42.1 34.2939 42.105C34.3088 35.3612 34.3634 28.6224 34.3138 21.8836C34.3039 20.6142 34.6758 20.2671 35.8956 20.3365C37.5518 20.4258 39.2179 20.3464 40.879 20.3464Z" fill="#F49F2E"/>
<path d="M51.5354 42.0632C51.5354 34.1045 51.5304 26.1459 51.5354 18.1873C51.5354 17.6964 51.5751 17.2005 51.5999 16.7096C52.7255 16.7096 53.861 16.784 54.9817 16.6848C56.1073 16.5857 56.3205 17.0567 56.3156 18.0732C56.3056 19.8683 56.1222 21.6683 56.4296 23.4583C56.7123 23.9046 56.6528 24.4104 56.6528 24.9013C56.6528 30.0236 56.6627 35.1459 56.6478 40.2632C56.6478 40.888 56.7123 41.5326 56.3057 42.083C54.7139 42.0731 53.1271 42.0681 51.5354 42.0632Z" fill="#F49F2E"/>
</g>
<defs>
<clipPath id="clip0_3406:32329">
<rect width="256" height="240.43" fill="white"/>
</clipPath>
</defs>
</svg>
