<svg width="42" height="42" viewBox="0 0 42 42" fill="none" xmlns="http://www.w3.org/2000/svg">
<rect width="42" height="42" rx="5" fill="#3A9679"/>
<rect width="42" height="42" rx="5" fill="#91919F"/>
<path d="M28 9.57143H23.9114C23.3714 8.08 21.9571 7 20.2857 7C18.6143 7 17.2 8.08 16.66 9.57143H12.5714C11.1571 9.57143 10 10.7286 10 12.1429V31.4286C10 32.8429 11.1571 34 12.5714 34H20.4271C19.6686 33.2671 19.0514 32.3929 18.6014 31.4286H12.5714V12.1429H15.1429V16H25.4286V12.1429H28V18.6743C28.9129 18.8029 29.7743 19.0729 30.5714 19.4457V12.1429C30.5714 10.7286 29.4143 9.57143 28 9.57143ZM20.2857 12.1429C19.5786 12.1429 19 11.5643 19 10.8571C19 10.15 19.5786 9.57143 20.2857 9.57143C20.9929 9.57143 21.5714 10.15 21.5714 10.8571C21.5714 11.5643 20.9929 12.1429 20.2857 12.1429Z" fill="white"/>
<path d="M24.1421 22.4277H26.7135V26.2849H30.5706V28.8563H26.7135V32.7135H24.1421V28.8563H20.2849V26.2849H24.1421V22.4277Z" fill="white"/>
</svg>
