<svg width="42" height="42" viewBox="0 0 42 42" fill="none" xmlns="http://www.w3.org/2000/svg">
<rect width="42" height="42" rx="5" fill="#3A9679"/>
<rect width="42" height="42" rx="5" fill="#3A9679"/>
<rect width="42" height="42" rx="5" fill="#FFA800"/>
<path d="M27.3333 10.4762H23.3962C22.8762 9.04 21.5143 8 19.9048 8C18.2952 8 16.9333 9.04 16.4133 10.4762H12.4762C11.1143 10.4762 10 11.5905 10 12.9524V31.5238C10 32.8857 11.1143 34 12.4762 34H20.041C19.3105 33.2943 18.7162 32.4524 18.2829 31.5238H12.4762V12.9524H14.9524V16.6667H24.8571V12.9524H27.3333V19.2419C28.2124 19.3657 29.0419 19.6257 29.8095 19.9848V12.9524C29.8095 11.5905 28.6952 10.4762 27.3333 10.4762ZM19.9048 12.9524C19.2238 12.9524 18.6667 12.3952 18.6667 11.7143C18.6667 11.0333 19.2238 10.4762 19.9048 10.4762C20.5857 10.4762 21.1429 11.0333 21.1429 11.7143C21.1429 12.3952 20.5857 12.9524 19.9048 12.9524Z" fill="white"/>
<path d="M22.1168 26.5199L19.4409 29.2024L22.1168 31.885V29.8731H26.8179V28.5318H22.1168V26.5199ZM31.5123 25.1786L28.8365 22.4961V24.508H24.1354V25.8493H28.8365V27.8612L31.5123 25.1786Z" fill="white"/>
</svg>
