<svg width="42" height="42" viewBox="0 0 42 42" fill="none" xmlns="http://www.w3.org/2000/svg">
<rect width="42" height="42" rx="5" fill="#3A9679"/>
<rect width="42" height="42" rx="5" fill="#F64E60"/>
<path d="M27.6 10.5143H23.6023C23.0743 9.056 21.6914 8 20.0571 8C18.4229 8 17.04 9.056 16.512 10.5143H12.5143C11.1314 10.5143 10 11.6457 10 13.0286V31.8857C10 33.2686 11.1314 34.4 12.5143 34.4H20.1954C19.4537 33.6834 18.8503 32.8286 18.4103 31.8857H12.5143V13.0286H15.0286V16.8H25.0857V13.0286H27.6V19.4149C28.4926 19.5406 29.3349 19.8046 30.1143 20.1691V13.0286C30.1143 11.6457 28.9829 10.5143 27.6 10.5143ZM20.0571 13.0286C19.3657 13.0286 18.8 12.4629 18.8 11.7714C18.8 11.08 19.3657 10.5143 20.0571 10.5143C20.7486 10.5143 21.3143 11.08 21.3143 11.7714C21.3143 12.4629 20.7486 13.0286 20.0571 13.0286Z" fill="white"/>
<path d="M26.5 34.4002C27.2562 34.4002 27.875 33.791 27.875 33.0463H25.125C25.125 33.791 25.7438 34.4002 26.5 34.4002ZM30.625 30.3387V26.954C30.625 24.8759 29.5044 23.1362 27.5312 22.6759V22.2156C27.5312 21.6537 27.0706 21.2002 26.5 21.2002C25.9294 21.2002 25.4688 21.6537 25.4688 22.2156V22.6759C23.5025 23.1362 22.375 24.8691 22.375 26.954V30.3387L21 31.6925V32.3694H32V31.6925L30.625 30.3387ZM29.25 31.0156H23.75V26.954C23.75 25.2753 24.7881 23.9079 26.5 23.9079C28.2119 23.9079 29.25 25.2753 29.25 26.954V31.0156Z" fill="white"/>
</svg>
