<svg width="18" height="19" viewBox="0 0 18 19" fill="none" xmlns="http://www.w3.org/2000/svg">
<g clip-path="url(#clip0_4617_34022)">
<path d="M16.1973 13.2368C15.5181 12.5069 14.2472 11.409 14.2472 7.8125C14.2472 5.08086 12.3319 2.89414 9.74931 2.35766V1.625C9.74931 1.00379 9.24588 0.5 8.62502 0.5C8.00416 0.5 7.50072 1.00379 7.50072 1.625V2.35766C4.91815 2.89414 3.00283 5.08086 3.00283 7.8125C3.00283 11.409 1.73194 12.5069 1.05272 13.2368C0.841782 13.4635 0.748266 13.7346 0.750024 14C0.753891 14.5766 1.20635 15.125 1.87854 15.125H15.3715C16.0437 15.125 16.4965 14.5766 16.5 14C16.5018 13.7346 16.4083 13.4632 16.1973 13.2368Z" fill="#ABABC0"/>
<path opacity="0.4" d="M10.8736 16.25C10.8736 17.4928 9.86639 18.5 8.62468 18.5C7.38296 18.5 6.37573 17.4928 6.37573 16.25H10.8736Z" fill="#ABABC0"/>
</g>
<defs>
<clipPath id="clip0_4617_34022">
<rect width="18" height="18" fill="white" transform="translate(0 0.5)"/>
</clipPath>
</defs>
</svg>
