<svg width="54" height="54" viewBox="0 0 54 54" fill="none" xmlns="http://www.w3.org/2000/svg">
<rect x="1.5" y="1.5" width="50.0222" height="50.0222" rx="11.5" fill="#EE4428" stroke="white" stroke-width="3"/>
<path d="M40.6914 23.577L39.2622 29.6729C38.0372 34.9375 35.6164 37.0666 31.0664 36.6291C30.3372 36.5708 29.5497 36.4395 28.7039 36.2354L26.2539 35.652C20.1726 34.2083 18.2914 31.2041 19.7205 25.1083L21.1497 18.9979C21.4414 17.7583 21.7914 16.6791 22.2289 15.7895C23.9351 12.2604 26.8372 11.3125 31.708 12.4645L34.1434 13.0333C40.2539 14.4625 42.1205 17.4812 40.6914 23.577Z" fill="white"/>
<path d="M31.0663 36.6289C30.1621 37.2414 29.0246 37.7518 27.6392 38.2039L25.335 38.9622C19.5454 40.8289 16.4975 39.2685 14.6163 33.4789L12.7496 27.7185C10.8829 21.9289 12.4288 18.8664 18.2184 16.9997L20.5225 16.2414C21.1204 16.0518 21.6892 15.8914 22.2288 15.7893C21.7913 16.6789 21.4413 17.7581 21.1496 18.9976L19.7204 25.1081C18.2913 31.2039 20.1725 34.2081 26.2538 35.6518L28.7038 36.2351C29.5496 36.4393 30.3371 36.5706 31.0663 36.6289Z" fill="white" fill-opacity="0.8"/>
<path opacity="0.4" d="M34.61 23.6791C34.5225 23.6791 34.435 23.6645 34.3329 23.6499L27.26 21.8561C26.6767 21.7103 26.3267 21.1124 26.4725 20.5291C26.6183 19.9457 27.2163 19.5957 27.7996 19.7416L34.8725 21.5353C35.4558 21.6811 35.8058 22.2791 35.66 22.8624C35.5433 23.3436 35.0913 23.6791 34.61 23.6791Z" fill="#EE4428"/>
<path opacity="0.4" d="M30.337 28.608C30.2495 28.608 30.162 28.5934 30.0599 28.5789L25.8162 27.4997C25.2328 27.3539 24.8828 26.7559 25.0287 26.1726C25.1745 25.5893 25.7724 25.2393 26.3557 25.3851L30.5995 26.4643C31.1828 26.6101 31.5328 27.208 31.387 27.7914C31.2703 28.2872 30.8328 28.608 30.337 28.608Z" fill="#EE4428"/>
</svg>
