<svg width="12" height="12" viewBox="0 0 12 12" fill="none" xmlns="http://www.w3.org/2000/svg">
<rect width="12" height="12" rx="6" fill="#1BC5BD"/>
<path d="M5.65234 8.5H4.41406L4.42188 7.58594H5.65234C5.95964 7.58594 6.21875 7.51693 6.42969 7.37891C6.64062 7.23828 6.79948 7.03385 6.90625 6.76562C7.01562 6.4974 7.07031 6.17318 7.07031 5.79297V5.51562C7.07031 5.22396 7.03906 4.96745 6.97656 4.74609C6.91667 4.52474 6.82682 4.33854 6.70703 4.1875C6.58724 4.03646 6.4401 3.92318 6.26562 3.84766C6.09115 3.76953 5.89062 3.73047 5.66406 3.73047H4.39062V2.8125H5.66406C6.04427 2.8125 6.39193 2.8776 6.70703 3.00781C7.02474 3.13542 7.29948 3.31901 7.53125 3.55859C7.76302 3.79818 7.94141 4.08464 8.06641 4.41797C8.19401 4.7487 8.25781 5.11719 8.25781 5.52344V5.79297C8.25781 6.19661 8.19401 6.5651 8.06641 6.89844C7.94141 7.23177 7.76302 7.51823 7.53125 7.75781C7.30208 7.99479 7.02734 8.17839 6.70703 8.30859C6.38932 8.4362 6.03776 8.5 5.65234 8.5ZM5.07812 2.8125V8.5H3.90625V2.8125H5.07812Z" fill="#F4F7FF"/>
</svg>
