<svg width="46" height="46" viewBox="0 0 46 46" fill="none" xmlns="http://www.w3.org/2000/svg">
<g clip-path="url(#clip0_2248_33681)">
<path d="M23 46C35.7025 46 46 35.7025 46 23C46 10.2975 35.7025 0 23 0C10.2975 0 0 10.2975 0 23C0 35.7025 10.2975 46 23 46Z" fill="#4A8CFF"/>
<path d="M8.24292 15.7989V26.6076C8.24859 27.7799 8.71947 28.902 9.55208 29.7273C10.3847 30.5526 11.5109 31.0136 12.6832 31.0089H28.4385C28.6515 31.01 28.8562 30.9265 29.0077 30.7768C29.1592 30.6271 29.2452 30.4234 29.2467 30.2104V19.4018C29.2411 18.2295 28.7702 17.1074 27.9376 16.2821C27.105 15.4568 25.9788 14.9958 24.8064 15.0005H9.056C8.95013 14.9993 8.84508 15.0191 8.74686 15.0586C8.64864 15.0981 8.5592 15.1567 8.48366 15.2309C8.40812 15.305 8.34796 15.3934 8.30665 15.4909C8.26534 15.5884 8.24368 15.6931 8.24292 15.7989ZM30.2497 20.0153L36.7544 15.2634C37.3191 14.795 37.7573 14.9128 37.7573 15.76V30.2494C37.7573 31.2134 37.2218 31.0966 36.7544 30.745L30.2497 26.0038V20.0153Z" fill="white"/>
</g>
<defs>
<clipPath id="clip0_2248_33681">
<rect width="46" height="46" fill="white"/>
</clipPath>
</defs>
</svg>
