<svg width="48" height="48" viewBox="0 0 48 48" fill="none" xmlns="http://www.w3.org/2000/svg">
<rect width="47.0222" height="47.0222" rx="10" fill="#EE4428"/>
<path fill-rule="evenodd" clip-rule="evenodd" d="M11.6117 19.7007L11.7747 34.9155C11.7747 34.9155 22.1529 34.5895 24.9995 34.5895C30.5184 34.5895 28.7407 28.8849 28.7407 28.8849L34.6841 28.7144L34.7334 19.7007H36.731L36.9205 37.9176L9.32227 38.1829L9.40566 19.7007H11.6117Z" fill="white"/>
<path opacity="0.6" d="M9 12.6123V17.5399L37 17.2935C37 17.2935 36.9621 13.6092 36.9621 12.6161C36.9621 10.7171 36.5565 9 34.0927 9C32.0876 9 15.1746 9.14783 12.3242 9.14783C9.47381 9.14783 9 10.4859 9 12.6123Z" fill="white"/>
<path d="M16.0845 20.9971C18.9615 20.9971 19.0335 25.5456 16.2816 25.5456C13.0181 25.5304 13.2569 20.9971 16.0845 20.9971Z" fill="white"/>
<path d="M16.2816 32.3002C13.0181 32.3002 13.2493 27.7516 16.0845 27.7516C18.9198 27.7516 19.0335 32.3002 16.2816 32.3002Z" fill="white"/>
<path d="M23.1121 20.9971C23.1095 20.9971 23.107 20.9971 23.1044 20.9971H23.1196C23.1171 20.9971 23.1146 20.9971 23.1121 20.9971C25.9815 21.0051 26.0509 25.5456 23.3015 25.5456C20.056 25.5305 20.2915 21.0051 23.1121 20.9971Z" fill="white"/>
<path d="M23.1044 27.7516C20.2692 27.7516 20.038 32.3002 23.3015 32.3002H23.3167C26.0685 32.3002 25.9397 27.7516 23.1044 27.7516Z" fill="white"/>
<path d="M30.1396 20.9971C30.1345 20.9971 30.1294 20.9971 30.1243 20.9971H30.1546C30.1496 20.9971 30.1446 20.9971 30.1396 20.9971C33.0053 21.0132 33.0722 25.5456 30.3252 25.5456C27.0977 25.5305 27.3299 21.0132 30.1396 20.9971Z" fill="white"/>
</svg>
