<svg width="52" height="52" viewBox="0 0 52 52" fill="none" xmlns="http://www.w3.org/2000/svg">
<circle cx="26" cy="26" r="24.5" fill="#FEE700" stroke="white" stroke-width="3"/>
<path opacity="0.6" d="M33.0215 37.0002C34.759 37.0002 36.1675 35.6273 36.1675 33.9336C36.1675 32.24 34.759 30.867 33.0215 30.867C31.284 30.867 29.8755 32.24 29.8755 33.9336C29.8755 35.6273 31.284 37.0002 33.0215 37.0002Z" fill="white"/>
<path opacity="0.6" d="M18.8674 37.0002C20.6049 37.0002 22.0134 35.6273 22.0134 33.9336C22.0134 32.24 20.6049 30.867 18.8674 30.867C17.1299 30.867 15.7214 32.24 15.7214 33.9336C15.7214 35.6273 17.1299 37.0002 18.8674 37.0002Z" fill="white"/>
<path d="M37.6811 18.9602C35.707 15.9519 32.2622 14 28.4052 14C28.3879 14 28.3721 14.0031 28.3548 14.0031C28.3375 14.0031 28.3202 14 28.3029 14C21.9779 14 16.7572 18.5554 15.8684 24.4801L15.719 24.7331H14.146C12.4094 24.7331 11 26.107 11 27.7997V32.3997C11 33.246 11.7047 33.933 12.573 33.933H14.146C14.146 31.3938 16.2601 29.333 18.865 29.333C21.4698 29.333 23.5839 31.3938 23.5839 33.933H28.3029C28.3029 31.3938 30.417 29.333 33.0219 29.333C35.6268 29.333 37.7409 31.3938 37.7409 33.933H39.3139C40.1822 33.933 40.8869 33.246 40.8869 32.3997V27.7997C40.8853 24.6641 39.6678 21.4825 37.6811 18.9602ZM19.005 24.7331C19.7569 20.3831 23.6264 17.0666 28.3014 17.0666C32.9763 17.0666 36.8474 20.3831 37.5978 24.7331H19.005Z" fill="white"/>
<path d="M37.6811 18.9602C35.707 15.9519 32.2622 14 28.4052 14C28.3879 14 28.3721 14.0031 28.3548 14.0031C28.3375 14.0031 28.3202 14 28.3029 14C21.9779 14 16.7572 18.5554 15.8684 24.4801L15.719 24.7331H14.146C12.4094 24.7331 11 26.107 11 27.7997V32.3997C11 33.246 11.7047 33.933 12.573 33.933H14.146C14.146 31.3938 16.2601 29.333 18.865 29.333C21.4698 29.333 23.5839 31.3938 23.5839 33.933H28.3029C28.3029 31.3938 30.417 29.333 33.0219 29.333C35.6268 29.333 37.7409 31.3938 37.7409 33.933H39.3139C40.1822 33.933 40.8869 33.246 40.8869 32.3997V27.7997C40.8853 24.6641 39.6678 21.4825 37.6811 18.9602ZM19.005 24.7331C19.7569 20.3831 23.6264 17.0666 28.3014 17.0666C32.9763 17.0666 36.8474 20.3831 37.5978 24.7331H19.005Z" fill="white"/>
</svg>
