<svg width="48" height="48" viewBox="0 0 48 48" fill="none" xmlns="http://www.w3.org/2000/svg">
<rect width="47.0222" height="47.0222" rx="10" fill="#EE4428"/>
<path opacity="0.6" d="M30.5784 36.6264C32.4387 36.6264 33.9468 35.1564 33.9468 33.343C33.9468 31.5296 32.4387 30.0596 30.5784 30.0596C28.7181 30.0596 27.21 31.5296 27.21 33.343C27.21 35.1564 28.7181 36.6264 30.5784 36.6264Z" fill="white"/>
<path opacity="0.6" d="M15.4236 36.6264C17.2839 36.6264 18.792 35.1564 18.792 33.343C18.792 31.5296 17.2839 30.0596 15.4236 30.0596C13.5633 30.0596 12.0552 31.5296 12.0552 33.343C12.0552 35.1564 13.5633 36.6264 15.4236 36.6264Z" fill="white"/>
<path d="M35.5676 17.3109C33.4539 14.0899 29.7655 12 25.6358 12C25.6173 12 25.6004 12.0033 25.5819 12.0033C25.5634 12.0033 25.5448 12 25.5263 12C18.7541 12 13.1642 16.8775 12.2126 23.2211L12.0526 23.492H10.3684C8.50905 23.492 7 24.963 7 26.7754V31.7006C7 32.6068 7.75453 33.3423 8.68421 33.3423H10.3684C10.3684 30.6236 12.632 28.4172 15.4211 28.4172C18.2101 28.4172 20.4737 30.6236 20.4737 33.3423H25.5263C25.5263 30.6236 27.7899 28.4172 30.5789 28.4172C33.368 28.4172 35.6316 30.6236 35.6316 33.3423H37.3158C38.2455 33.3423 39 32.6068 39 31.7006V26.7754C38.9983 23.4181 37.6947 20.0116 35.5676 17.3109ZM15.5709 23.492C16.376 18.8345 20.5192 15.2834 25.5246 15.2834C30.5301 15.2834 34.6749 18.8345 35.4783 23.492H15.5709Z" fill="white"/>
<path d="M35.5676 17.3109C33.4539 14.0899 29.7655 12 25.6358 12C25.6173 12 25.6004 12.0033 25.5819 12.0033C25.5634 12.0033 25.5448 12 25.5263 12C18.7541 12 13.1642 16.8775 12.2126 23.2211L12.0526 23.492H10.3684C8.50905 23.492 7 24.963 7 26.7754V31.7006C7 32.6068 7.75453 33.3423 8.68421 33.3423H10.3684C10.3684 30.6236 12.632 28.4172 15.4211 28.4172C18.2101 28.4172 20.4737 30.6236 20.4737 33.3423H25.5263C25.5263 30.6236 27.7899 28.4172 30.5789 28.4172C33.368 28.4172 35.6316 30.6236 35.6316 33.3423H37.3158C38.2455 33.3423 39 32.6068 39 31.7006V26.7754C38.9983 23.4181 37.6947 20.0116 35.5676 17.3109ZM15.5709 23.492C16.376 18.8345 20.5192 15.2834 25.5246 15.2834C30.5301 15.2834 34.6749 18.8345 35.4783 23.492H15.5709Z" fill="white"/>
</svg>
