<svg width="52" height="52" viewBox="0 0 52 52" fill="none" xmlns="http://www.w3.org/2000/svg">
<circle cx="26" cy="26" r="24.5" fill="#27A0EC" stroke="white" stroke-width="3"/>
<path d="M38.9212 23.8629L37.5802 29.5826C36.4307 34.5225 34.1592 36.5203 29.8899 36.1098C29.2057 36.055 28.4668 35.9319 27.6732 35.7403L25.3743 35.193C19.6682 33.8383 17.903 31.0194 19.244 25.2996L20.585 19.5662C20.8587 18.4031 21.1871 17.3905 21.5976 16.5558C23.1986 13.2443 25.9217 12.3549 30.492 13.4359L32.7772 13.9695C38.5107 15.3106 40.2622 18.1431 38.9212 23.8629Z" fill="white"/>
<path d="M29.8901 36.1098C29.0417 36.6845 27.9744 37.1634 26.6744 37.5876L24.5124 38.2992C19.08 40.0507 16.2201 38.5865 14.4549 33.1541L12.7034 27.749C10.9518 22.3166 12.4023 19.443 17.8347 17.6915L19.9968 16.98C20.5578 16.8021 21.0915 16.6516 21.5978 16.5558C21.1872 17.3905 20.8588 18.4031 20.5852 19.5662L19.2442 25.2997C17.9032 31.0194 19.6684 33.8383 25.3745 35.193L27.6733 35.7403C28.467 35.9319 29.2059 36.055 29.8901 36.1098Z" fill="white" fill-opacity="0.8"/>
<path opacity="0.4" d="M33.2151 23.9586C33.133 23.9586 33.0509 23.9449 32.9551 23.9312L26.3185 22.2481C25.7712 22.1113 25.4428 21.5503 25.5796 21.0029C25.7164 20.4556 26.2775 20.1272 26.8248 20.264L33.4614 21.9471C34.0088 22.0839 34.3372 22.645 34.2003 23.1923C34.0909 23.6439 33.6667 23.9586 33.2151 23.9586Z" fill="#27A0EC"/>
<path opacity="0.4" d="M29.2057 28.5835C29.1236 28.5835 29.0415 28.5698 28.9457 28.5561L24.9638 27.5435C24.4164 27.4067 24.088 26.8457 24.2249 26.2983C24.3617 25.751 24.9227 25.4226 25.4701 25.5594L29.452 26.572C29.9994 26.7088 30.3278 27.2699 30.191 27.8172C30.0815 28.2825 29.671 28.5835 29.2057 28.5835Z" fill="#27A0EC"/>
</svg>
