<svg width="33" height="33" viewBox="0 0 33 33" fill="none" xmlns="http://www.w3.org/2000/svg">
<path d="M27.6097 19.3692L25.5124 18.1581C25.7241 17.0159 25.7241 15.8442 25.5124 14.702L27.6097 13.4909C27.8509 13.3531 27.9592 13.0676 27.8804 12.8017C27.334 11.0491 26.4035 9.46383 25.1875 8.14444C25.0004 7.94259 24.6952 7.89336 24.4589 8.03121L22.3616 9.24229C21.4804 8.48413 20.4662 7.89828 19.3684 7.51428V5.09702C19.3684 4.82133 19.1763 4.5801 18.9056 4.52102C17.0988 4.11732 15.2477 4.13702 13.5295 4.52102C13.2588 4.5801 13.0668 4.82133 13.0668 5.09702V7.5192C11.9738 7.90813 10.9597 8.49398 10.0735 9.24722L7.98117 8.03613C7.73994 7.89828 7.43963 7.94259 7.25255 8.14936C6.03654 9.46384 5.10607 11.0491 4.5596 12.8066C4.47591 13.0725 4.58914 13.358 4.83038 13.4959L6.92763 14.707C6.71593 15.8491 6.71593 17.0208 6.92763 18.163L4.83038 19.3741C4.58914 19.5119 4.48084 19.7975 4.5596 20.0633C5.10607 21.816 6.03654 23.4012 7.25255 24.7206C7.43963 24.9224 7.74486 24.9717 7.98117 24.8338L10.0784 23.6227C10.9597 24.3809 11.9738 24.9668 13.0717 25.3508V27.7729C13.0717 28.0486 13.2637 28.2899 13.5345 28.3489C15.3412 28.7526 17.1923 28.7329 18.9105 28.3489C19.1813 28.2899 19.3733 28.0486 19.3733 27.7729V25.3508C20.4662 24.9618 21.4804 24.376 22.3665 23.6227L24.4638 24.8338C24.705 24.9717 25.0053 24.9274 25.1924 24.7206C26.4084 23.4061 27.3389 21.8209 27.8853 20.0633C27.9592 19.7925 27.8509 19.507 27.6097 19.3692ZM16.2176 20.3686C14.0465 20.3686 12.2791 18.6012 12.2791 16.4301C12.2791 14.259 14.0465 12.4916 16.2176 12.4916C18.3886 12.4916 20.156 14.259 20.156 16.4301C20.156 18.6012 18.3886 20.3686 16.2176 20.3686Z" fill="white"/>
</svg>
