<svg width="30" height="30" viewBox="0 0 30 30" fill="none" xmlns="http://www.w3.org/2000/svg">
<path d="M24.8126 6.19048H22.6267V4H20.4407V9.47619H18.2548V6.19048H11.6969V4H9.51098V9.47619H7.32503V6.19048H5.13908C3.93352 6.19048 2.95312 7.174 2.95312 8.38095V24.8095C2.95312 26.0176 3.93352 27 5.13908 27H24.8126C26.0182 27 26.9986 26.0176 26.9986 24.8095V8.38095C26.9986 7.174 26.0182 6.19048 24.8126 6.19048ZM10.604 23.7143H6.23205V19.3333H10.604V23.7143ZM10.604 17.1429H6.23205V12.7619H10.604V17.1429ZM17.1618 23.7143H12.7899V19.3333H17.1618V23.7143ZM17.1618 17.1429H12.7899V12.7619H17.1618V17.1429ZM23.7197 17.1429H19.3478V12.7619H23.7197V17.1429Z" fill="white"/>
</svg>
