<svg width="30" height="30" viewBox="0 0 30 30" fill="none" xmlns="http://www.w3.org/2000/svg">
<path d="M21.8019 26.7695C23.522 26.7695 24.9164 25.4103 24.9164 23.7336C24.9164 22.057 23.522 20.6978 21.8019 20.6978C20.0819 20.6978 18.6875 22.057 18.6875 23.7336C18.6875 25.4103 20.0819 26.7695 21.8019 26.7695Z" fill="white"/>
<path d="M7.78632 26.7695C9.50638 26.7695 10.9008 25.4103 10.9008 23.7336C10.9008 22.057 9.50638 20.6978 7.78632 20.6978C6.06626 20.6978 4.67188 22.057 4.67188 23.7336C4.67188 25.4103 6.06626 26.7695 7.78632 26.7695Z" fill="white"/>
<path d="M26.4136 8.9105C24.4593 5.93233 21.049 4 17.2307 4C17.2135 4 17.1979 4.00304 17.1808 4.00304C17.1637 4.00304 17.1466 4 17.1294 4C10.8678 4 5.69943 8.50977 4.8196 14.3751L4.67166 14.6255H3.11444C1.39527 14.6255 0 15.9856 0 17.6614V22.2152C0 23.0531 0.697635 23.7331 1.55722 23.7331H3.11444C3.11444 21.2194 5.20735 19.1793 7.78611 19.1793C10.3649 19.1793 12.4578 21.2194 12.4578 23.7331H17.1294C17.1294 21.2194 19.2223 19.1793 21.8011 19.1793C24.3799 19.1793 26.4728 21.2194 26.4728 23.7331H28.03C28.8896 23.7331 29.5872 23.0531 29.5872 22.2152V17.6614C29.5856 14.5572 28.3804 11.4075 26.4136 8.9105ZM7.9247 14.6255C8.66905 10.3191 12.4998 7.03586 17.1279 7.03586C21.7559 7.03586 25.5883 10.3191 26.3311 14.6255H7.9247Z" fill="white"/>
<path d="M26.4136 8.9105C24.4593 5.93233 21.049 4 17.2307 4C17.2135 4 17.1979 4.00304 17.1808 4.00304C17.1637 4.00304 17.1466 4 17.1294 4C10.8678 4 5.69943 8.50977 4.8196 14.3751L4.67166 14.6255H3.11444C1.39527 14.6255 0 15.9856 0 17.6614V22.2152C0 23.0531 0.697635 23.7331 1.55722 23.7331H3.11444C3.11444 21.2194 5.20735 19.1793 7.78611 19.1793C10.3649 19.1793 12.4578 21.2194 12.4578 23.7331H17.1294C17.1294 21.2194 19.2223 19.1793 21.8011 19.1793C24.3799 19.1793 26.4728 21.2194 26.4728 23.7331H28.03C28.8896 23.7331 29.5872 23.0531 29.5872 22.2152V17.6614C29.5856 14.5572 28.3804 11.4075 26.4136 8.9105ZM7.9247 14.6255C8.66905 10.3191 12.4998 7.03586 17.1279 7.03586C21.7559 7.03586 25.5883 10.3191 26.3311 14.6255H7.9247Z" fill="white"/>
</svg>
