<svg width="30" height="30" viewBox="0 0 30 30" fill="none" xmlns="http://www.w3.org/2000/svg">
<g opacity="0.6">
<path d="M20.121 1H6C4.3455 1 3 2.2572 3 3.8V26.2C3 27.7442 4.3455 29 6 29H24C25.6545 29 27 27.7442 27 26.2V7.4204L20.121 1ZM18 9.4V2.4L25.5 9.4H18Z" fill="white"/>
</g>
<g clip-path="url(#clip0_1398_13148)">
<path d="M11.75 25.3757L13 23.5007H10.5L11.75 25.3757Z" fill="white"/>
<path d="M13 16.626H10.5V22.876H13V16.626Z" fill="white"/>
<path d="M11.75 14.1257C11.06 14.1257 10.5 14.7282 10.5 15.472V16.0007H13V15.472C13 14.7282 12.44 14.1257 11.75 14.1257Z" fill="white"/>
<path d="M14.875 12.2507V13.5007H16.75V14.7507H14.875V16.6257H16.75V17.8757H14.875V19.7507H16.75V21.0007H14.875V22.8757H16.75V24.1257H14.875V25.3757H19.875V12.2507H14.875Z" fill="white"/>
</g>
<defs>
<clipPath id="clip0_1398_13148">
<rect width="15" height="15" fill="white" transform="translate(8 11)"/>
</clipPath>
</defs>
</svg>
