<svg width="30" height="31" viewBox="0 0 30 31" fill="none" xmlns="http://www.w3.org/2000/svg">
<path fill-rule="evenodd" clip-rule="evenodd" d="M23.7046 28.356C26.2096 28.356 28.124 26.1903 28.124 23.6685V9.60596H1.87402V23.6685C1.87402 26.1903 3.7884 28.356 6.2934 28.356H23.7046ZM11.249 13.356C11.0004 13.356 10.7619 13.4547 10.5861 13.6305C10.4103 13.8064 10.3115 14.0448 10.3115 14.2935C10.3115 14.5421 10.4103 14.7806 10.5861 14.9564C10.7619 15.1322 11.0004 15.231 11.249 15.231H18.749C18.9977 15.231 19.2361 15.1322 19.4119 14.9564C19.5878 14.7806 19.6865 14.5421 19.6865 14.2935C19.6865 14.0448 19.5878 13.8064 19.4119 13.6305C19.2361 13.4547 18.9977 13.356 18.749 13.356H11.249Z" fill="#0A77DB"/>
<path d="M0.438363 2.5453C0.719668 2.26399 1.1012 2.10596 1.49902 2.10596H28.499C28.8968 2.10596 29.2784 2.26399 29.5597 2.5453C29.841 2.8266 29.999 3.20813 29.999 3.60596V5.85596C29.999 6.25378 29.841 6.63531 29.5597 6.91662C29.2784 7.19792 28.8968 7.35596 28.499 7.35596H1.49902C1.1012 7.35596 0.719668 7.19792 0.438363 6.91662C0.157059 6.63531 -0.000976562 6.25378 -0.000976562 5.85596V3.60596C-0.000976562 3.20813 0.157059 2.8266 0.438363 2.5453Z" fill="#0A77DB" fill-opacity="0.5"/>
</svg>
