<svg width="30" height="31" viewBox="0 0 30 31" fill="none" xmlns="http://www.w3.org/2000/svg">
<g clip-path="url(#clip0_12473_26949)">
<path d="M28.9574 10.6475H6.79069C6.23827 10.6475 5.77802 11.0325 5.65727 11.5481L2.15611 26.72C2.13627 26.804 2.12402 26.891 2.12402 26.9808C2.12402 27.6248 2.64669 28.1475 3.29069 28.1475H8.90994C14.0002 28.1475 8.90994 28.1475 14.0002 28.1475C19.8381 28.1475 14.0002 28.1475 19.8381 28.1475H25.4574C26.0098 28.1475 26.47 27.7625 26.5908 27.2468L30.0919 12.0749C30.1118 11.9909 30.124 11.904 30.124 11.8141C30.124 11.1701 29.6014 10.6475 28.9574 10.6475Z" fill="#0A77DB"/>
<path d="M21.7288 14.8738H20.547V13.731H19.3652V16.5881H18.1834V14.8738H14.6379V13.731H13.4561V16.5881H12.2743V14.8738H11.0925C10.4407 14.8738 9.91064 15.387 9.91064 16.0167V24.5881C9.91064 25.2184 10.4407 25.731 11.0925 25.731H21.7288C22.3806 25.731 22.9106 25.2184 22.9106 24.5881V16.0167C22.9106 15.387 22.3806 14.8738 21.7288 14.8738ZM14.047 24.0167H11.6834V21.7309H14.047V24.0167ZM14.047 20.5881H11.6834V18.3024H14.047V20.5881ZM17.5925 24.0167H15.2288V21.7309H17.5925V24.0167ZM17.5925 20.5881H15.2288V18.3024H17.5925V20.5881ZM21.1379 20.5881H18.7743V18.3024H21.1379V20.5881Z" fill="white" fill-opacity="0.9"/>
<path d="M6.79071 8.89762H27.7907V3.06429C27.7907 1.77571 26.746 0.730957 25.4574 0.730957H18.6446C17.807 0.730957 17.034 1.18012 16.6181 1.90696L14.9574 4.81429H2.12404C0.83546 4.81429 -0.20929 5.85904 -0.20929 7.14762V24.7223C-0.20929 25.0029 0.0187939 25.231 0.29996 25.231C0.536794 25.231 0.742127 25.0694 0.795794 24.8378C1.68304 20.9802 3.96971 11.1055 3.97729 11.0787C4.31563 9.78954 5.45779 8.89762 6.79071 8.89762Z" fill="#0A77DB" fill-opacity="0.5"/>
</g>
<defs>
<clipPath id="clip0_12473_26949">
<rect width="30" height="30" fill="white" transform="translate(-0.000976562 0.230957)"/>
</clipPath>
</defs>
</svg>
