<svg width="30" height="31" viewBox="0 0 30 31" fill="none" xmlns="http://www.w3.org/2000/svg">
<g clip-path="url(#clip0_12473_26965)">
<path d="M28.9574 10.6475H6.79069C6.23827 10.6475 5.77802 11.0325 5.65727 11.5481L2.15611 26.72C2.13627 26.804 2.12402 26.891 2.12402 26.9808C2.12402 27.6248 2.64669 28.1475 3.29069 28.1475H8.90994C14.0002 28.1475 8.90994 28.1475 14.0002 28.1475C19.8381 28.1475 14.0002 28.1475 19.8381 28.1475H25.4574C26.0098 28.1475 26.47 27.7625 26.5908 27.2468L30.0919 12.0749C30.1118 11.9909 30.124 11.904 30.124 11.8141C30.124 11.1701 29.6014 10.6475 28.9574 10.6475Z" fill="#0A77DB"/>
<path d="M13.1487 25.7312L14.3868 23.874H11.9106L13.1487 25.7312Z" fill="white" fill-opacity="0.9"/>
<path d="M14.3868 17.0645H11.9106V23.2549H14.3868V17.0645Z" fill="white" fill-opacity="0.9"/>
<path d="M13.1487 14.5879C12.4653 14.5879 11.9106 15.1847 11.9106 15.9213V16.445H14.3868V15.9213C14.3868 15.1847 13.8322 14.5879 13.1487 14.5879Z" fill="white" fill-opacity="0.9"/>
<path d="M16.244 12.731V13.969H18.1012V15.2071H16.244V17.0643H18.1012V18.3024H16.244V20.1595H18.1012V21.3976H16.244V23.2547H18.1012V24.4928H16.244V25.7309H21.1964V12.731H16.244Z" fill="white" fill-opacity="0.9"/>
<path d="M6.79071 8.89762H27.7907V3.06429C27.7907 1.77571 26.746 0.730957 25.4574 0.730957H18.6446C17.807 0.730957 17.034 1.18012 16.6181 1.90696L14.9574 4.81429H2.12404C0.83546 4.81429 -0.20929 5.85904 -0.20929 7.14762V24.7223C-0.20929 25.0029 0.0187939 25.231 0.29996 25.231C0.536794 25.231 0.742127 25.0694 0.795794 24.8378C1.68304 20.9802 3.96971 11.1055 3.97729 11.0787C4.31563 9.78954 5.45779 8.89762 6.79071 8.89762Z" fill="#0A77DB" fill-opacity="0.5"/>
</g>
<defs>
<clipPath id="clip0_12473_26965">
<rect width="30" height="30" fill="white" transform="translate(-0.000976562 0.230957)"/>
</clipPath>
</defs>
</svg>
