<svg width="32" height="32" viewBox="0 0 32 32" fill="none" xmlns="http://www.w3.org/2000/svg">
<rect width="32" height="32" rx="5" fill="#FFE8E5"/>
<path d="M22.1259 7.47557H18.9692C18.5523 6.32408 17.4603 5.49023 16.1699 5.49023C14.8794 5.49023 13.7875 6.32408 13.3705 7.47557H10.2139C9.12192 7.47557 8.22852 8.36897 8.22852 9.46091V24.3509C8.22852 25.4429 9.12192 26.3363 10.2139 26.3363H16.2791C15.6934 25.7705 15.2169 25.0954 14.8695 24.3509H10.2139V9.46091H12.1992V12.4389H20.1405V9.46091H22.1259V14.5037C22.8307 14.6029 23.4958 14.8114 24.1112 15.0993V9.46091C24.1112 8.36897 23.2178 7.47557 22.1259 7.47557ZM16.1699 9.46091C15.6239 9.46091 15.1772 9.01421 15.1772 8.46824C15.1772 7.92227 15.6239 7.47557 16.1699 7.47557C16.7158 7.47557 17.1625 7.92227 17.1625 8.46824C17.1625 9.01421 16.7158 9.46091 16.1699 9.46091Z" fill="#F64E60"/>
<path d="M25.6003 19.3782L21.6561 19.05L20.1146 15.5459L18.5731 19.0553L14.6289 19.3782L17.6241 21.8819L16.7244 25.603L20.1146 23.6287L23.5048 25.603L22.6106 21.8819L25.6003 19.3782ZM20.1146 22.6388L18.052 23.8404L18.6006 21.5749L16.7793 20.0504L19.182 19.8493L20.1146 17.7161L21.0527 19.8546L23.4554 20.0557L21.6342 21.5802L22.1827 23.8457L20.1146 22.6388Z" fill="#F64E60"/>
</svg>
