<svg width="54" height="54" viewBox="0 0 54 54" fill="none" xmlns="http://www.w3.org/2000/svg">
<rect x="1.5" y="1.5" width="50.0222" height="50.0222" rx="11.5" fill="#27A0EC" stroke="white" stroke-width="3"/>
<g clip-path="url(#clip0_1967_30037)">
<path d="M40.4488 26.0217L35.9522 23.7735L40.4488 21.5251C41.253 21.1231 41.2539 19.9712 40.4488 19.5685L27.5424 13.1154C27.2344 12.9615 26.8721 12.9615 26.564 13.1154L13.6577 19.5685C12.8534 19.9708 12.8526 21.1226 13.6577 21.5251L18.1543 23.7735L13.6577 26.0217C12.8534 26.4239 12.8526 27.5756 13.6577 27.9782L18.1543 30.2266L13.6577 32.4748C12.8534 32.8771 12.8526 34.0287 13.6577 34.4314L26.564 40.8846C26.8715 41.0381 27.2338 41.0388 27.5424 40.8846L40.4488 34.4314C41.253 34.0291 41.2539 32.8775 40.4488 32.4748L35.9522 30.2266L40.4488 27.9782C41.253 27.5762 41.2539 26.4243 40.4488 26.0217ZM27.0532 15.3165L37.5138 20.5469L27.0532 25.7771L16.5927 20.5469L27.0532 15.3165ZM37.5138 33.4532L27.0532 38.6834L16.5927 33.4532L20.6001 31.4494L26.564 34.4314C26.8717 34.585 27.2338 34.5856 27.5424 34.4314L33.5064 31.4494L37.5138 33.4532ZM27.0532 32.2302L16.5927 27.0001L20.6001 24.9963L26.564 27.9782C26.8717 28.1318 27.2338 28.1325 27.5424 27.9782L33.5064 24.9963L37.5138 27.0001L27.0532 32.2302Z" fill="white"/>
</g>
<defs>
<clipPath id="clip0_1967_30037">
<rect width="28" height="28" fill="white" transform="translate(13 13)"/>
</clipPath>
</defs>
</svg>
