<svg width="308" height="253" viewBox="0 0 308 253" fill="none" xmlns="http://www.w3.org/2000/svg">
<path d="M92.0127 12.6879C97.8386 14.8964 104.037 16.1011 110.259 16.1073C110.498 16.1076 110.498 16.1076 110.741 16.1079C113.044 16.1057 115.254 15.987 117.506 15.4821C118.034 15.3675 118.563 15.2697 119.093 15.1736C121.475 14.7354 123.751 14.1396 126.043 13.3606C126.331 13.2641 126.62 13.1677 126.908 13.0715C127.469 12.8845 128.03 12.6966 128.59 12.5084C132.317 11.2721 136.18 10.1926 139.923 12.0153C141.81 13.2789 143.255 15.1415 143.729 17.3965C143.761 17.7684 143.784 18.1412 143.8 18.5141C143.809 18.7237 143.819 18.9332 143.828 19.1491C143.837 19.3662 143.846 19.5832 143.855 19.8069C143.87 20.1377 143.87 20.1377 143.884 20.4751C143.908 21.0184 143.931 21.5617 143.953 22.1051C144.122 22.0981 144.291 22.091 144.464 22.0838C149.299 21.9091 153.318 22.1776 157.156 25.3896C160.05 28.1038 161.655 31.9829 161.899 35.9095C162.091 42.165 158.849 47.8481 154.713 52.2906C154.189 52.8448 153.661 53.395 153.132 53.9442C152.944 54.1422 152.755 54.3401 152.561 54.5441C151.54 55.5958 150.46 56.5196 149.297 57.4126C149.09 57.5825 149.09 57.5825 148.878 57.7559C148.878 57.8299 148.878 57.9039 148.878 57.9801C149.162 58.0105 149.446 58.0408 149.738 58.0721C153.785 58.5648 153.785 58.5648 155.147 60.2223C155.658 60.9426 156.09 61.6779 156.49 62.4645C156.611 62.6781 156.732 62.8917 156.857 63.1117C157.526 64.6415 157.377 66.5579 156.854 68.126C156.022 69.9266 154.473 71.3091 152.684 72.1059C151.682 72.4464 150.833 72.6283 149.774 72.5543C149.626 72.4803 149.478 72.4063 149.326 72.3301C149.789 73.2576 150.892 73.5493 151.804 73.9288C152.276 74.1415 152.72 74.3835 153.171 74.638C153.865 75.0281 154.56 75.4154 155.259 75.7976C158.414 77.5305 158.414 77.5305 159.765 78.4725C160.344 78.8648 160.935 79.2321 161.529 79.5993C163.004 80.5102 164.459 81.4458 165.893 82.42C166.05 82.5251 166.207 82.6302 166.369 82.7385C166.741 82.9941 167.102 83.2661 167.46 83.5411C167.46 83.689 167.46 83.837 167.46 83.9895C167.692 84.0662 167.692 84.0662 167.929 84.1445C168.725 84.5036 169.361 84.9992 170.035 85.545C170.171 85.6536 170.307 85.7622 170.447 85.8741C172.356 87.4074 174.215 89.0007 176.049 90.6223C176.365 90.8959 176.69 91.1576 177.017 91.4167C177.606 91.8948 178.121 92.419 178.654 92.9582C179.032 93.3335 179.409 93.7087 179.786 94.0837C180.11 94.4063 180.434 94.729 180.757 95.0518C180.978 95.2713 181.198 95.4907 181.419 95.7098C182.712 96.9941 183.964 98.2969 185.147 99.6848C185.473 100.045 185.799 100.405 186.126 100.764C187.186 101.94 188.186 103.159 189.177 104.393C189.417 104.69 189.417 104.69 189.662 104.992C192.087 108 192.087 108 192.087 108.654C192.235 108.654 192.383 108.654 192.535 108.654C192.859 109.106 192.859 109.106 193.235 109.733C193.777 110.612 194.337 111.456 194.956 112.283C196.881 114.903 198.489 117.749 200.121 120.558C200.344 120.939 200.57 121.319 200.797 121.698C201.789 123.362 202.656 125.075 203.507 126.814C203.724 127.254 203.945 127.691 204.167 128.127C205.308 130.37 205.308 130.37 205.688 131.426C205.933 132.178 205.933 132.178 206.295 132.733C206.633 133.306 206.847 133.838 207.059 134.467C207.369 135.35 207.713 136.197 208.109 137.045C208.534 137.958 208.873 138.865 209.174 139.825C209.331 140.315 209.331 140.315 209.662 140.927C210.023 141.665 210.245 142.383 210.471 143.17C210.718 144.023 210.979 144.872 211.243 145.72C211.314 145.949 211.314 145.949 211.386 146.183C211.578 146.801 211.775 147.409 212.019 148.008C212.302 148.732 212.489 149.466 212.684 150.218C212.97 151.315 213.267 152.408 213.58 153.497C214.137 155.487 214.617 157.464 214.988 159.497C215.133 160.158 215.342 160.72 215.595 161.345C215.671 161.721 215.736 162.1 215.791 162.48C215.988 163.75 216.233 165.005 216.49 166.264C216.792 167.749 217.068 169.231 217.281 170.731C217.377 171.376 217.487 172.016 217.601 172.658C217.914 174.525 218.074 176.406 218.249 178.29C218.276 178.566 218.303 178.841 218.33 179.125C218.353 179.371 218.376 179.617 218.4 179.87C218.493 180.652 218.493 180.652 218.732 181.493C218.987 182.472 219.048 183.423 219.087 184.431C219.096 184.617 219.104 184.803 219.113 184.995C219.141 185.585 219.166 186.175 219.191 186.766C219.217 187.354 219.244 187.943 219.271 188.532C219.287 188.896 219.303 189.26 219.319 189.625C219.357 190.485 219.417 191.334 219.516 192.189C219.684 193.803 219.666 195.423 219.67 197.044C219.671 197.217 219.671 197.391 219.672 197.569C219.675 198.491 219.677 199.412 219.678 200.334C219.679 201.082 219.682 201.83 219.688 202.578C219.768 214.553 219.768 214.553 218.505 216.951C218.423 217.374 218.354 217.8 218.295 218.226C218.138 219.236 217.923 220.156 217.576 221.116C217.256 222.031 216.998 222.967 216.728 223.898C216.494 224.565 216.192 225.099 215.819 225.696C215.759 225.89 215.699 226.084 215.637 226.284C213.034 233.693 205.796 239.549 199.028 242.961C198.51 243.197 197.987 243.415 197.46 243.633C197.189 243.772 196.919 243.912 196.649 244.054C195.623 244.575 194.556 244.973 193.48 245.377C192.869 245.61 192.269 245.858 191.668 246.114C189.377 247.032 186.921 247.519 184.513 248.029C183.81 248.18 183.14 248.339 182.459 248.571C181.624 248.844 180.793 248.985 179.928 249.127C178.942 249.29 177.967 249.463 176.995 249.694C175.722 249.984 174.439 250.076 173.141 250.183C172.135 250.273 171.221 250.43 170.243 250.694C169.047 250.945 167.82 251.014 166.604 251.117C166.124 251.158 165.645 251.201 165.165 251.244C163.908 251.355 162.652 251.464 161.393 251.535C161.242 251.544 161.09 251.552 160.934 251.561C160.525 251.583 160.116 251.604 159.707 251.624C158.846 251.681 157.999 251.806 157.145 251.928C155.458 252.159 153.792 252.246 152.091 252.288C151.789 252.296 151.487 252.305 151.184 252.314C150.398 252.337 149.611 252.359 148.824 252.379C147.567 252.412 146.31 252.449 145.054 252.485C144.623 252.497 144.193 252.509 143.762 252.52C142.37 252.558 140.984 252.619 139.594 252.716C137.095 252.873 134.595 252.858 132.091 252.855C131.56 252.856 131.03 252.856 130.499 252.856C129.068 252.857 127.638 252.857 126.207 252.856C125.311 252.856 124.415 252.856 123.519 252.856C123.295 252.856 123.295 252.856 123.067 252.856C122.763 252.856 122.459 252.856 122.155 252.857C119.318 252.857 116.48 252.856 113.643 252.855C111.216 252.854 108.789 252.854 106.362 252.855C103.533 252.857 100.705 252.857 97.8759 252.856C97.5735 252.856 97.271 252.856 96.9686 252.856C96.8198 252.856 96.6711 252.856 96.5178 252.856C95.4769 252.856 94.436 252.856 93.3951 252.857C91.9906 252.857 90.5861 252.857 89.1816 252.856C88.6686 252.855 88.1557 252.855 87.6427 252.856C85.1662 252.858 82.7042 252.841 80.2338 252.656C78.8634 252.559 77.4904 252.533 76.1172 252.498C75.8096 252.489 75.5021 252.481 75.1945 252.472C73.9105 252.435 72.6264 252.4 71.3422 252.367C64.9953 252.202 64.9953 252.202 62.4464 251.825C61.295 251.669 60.142 251.574 58.9842 251.481C58.758 251.462 58.5319 251.444 58.2988 251.425C57.3638 251.349 56.4287 251.274 55.4934 251.201C54.8006 251.146 54.1079 251.089 53.4151 251.032C53.2066 251.017 52.9981 251.001 52.7832 250.984C51.6474 250.89 50.5688 250.724 49.4603 250.459C48.955 250.343 48.461 250.284 47.9441 250.249C47.7591 250.235 47.5741 250.221 47.3834 250.207C47.1918 250.192 47.0002 250.178 46.8028 250.164C44.7223 249.989 42.7536 249.601 40.7275 249.113C40.1306 248.977 39.5301 248.882 38.925 248.79C35.7486 248.289 32.6544 247.304 29.6156 246.273C29.2391 246.146 28.8618 246.021 28.4839 245.898C27.7925 245.672 27.1038 245.439 26.4157 245.203C26.1949 245.128 25.9741 245.052 25.7467 244.975C20.1085 242.937 14.8279 239.483 10.5202 235.337C10.3787 235.212 10.2373 235.087 10.0916 234.959C8.61817 233.616 7.57257 231.84 6.4903 230.18C6.39532 230.035 6.30033 229.891 6.20247 229.742C5.48853 228.629 4.89745 227.48 4.33545 226.284C4.25003 226.108 4.1646 225.932 4.07659 225.75C3.2072 223.913 2.69507 222.005 2.22258 220.034C1.93642 218.841 1.93642 218.841 1.5664 217.671C-1.05115 209.309 0.304479 198.776 0.739368 190.199C0.759041 189.801 0.759041 189.801 0.779111 189.396C0.943366 186.17 1.24188 182.999 1.71455 179.805C1.88622 178.598 2.00095 177.384 2.12463 176.171C2.32788 174.26 2.57196 172.379 2.96506 170.498C3.10987 169.755 3.22983 169.016 3.34198 168.268C3.56887 166.766 3.83889 165.275 4.12556 163.783C4.19418 163.417 4.19418 163.417 4.26418 163.043C4.52691 161.671 4.83648 160.327 5.2155 158.982C5.4241 158.241 5.60732 157.496 5.79067 156.748C6.89209 152.308 8.16793 147.968 9.62463 143.632C9.77242 143.189 9.91988 142.745 10.0672 142.302C10.2087 141.877 10.3509 141.451 10.493 141.026C10.6423 140.576 10.7894 140.124 10.9321 139.672C11.182 138.883 11.4537 138.146 11.8363 137.411C12.2984 136.5 12.688 135.57 13.0668 134.621C14.1201 132.025 15.3156 129.512 16.5777 127.012C16.8007 126.567 17.0202 126.121 17.2392 125.674C17.9714 124.183 18.7139 122.72 19.5873 121.305C19.9754 120.677 20.3487 120.04 20.7207 119.402C20.8526 119.176 20.9845 118.949 21.1204 118.716C21.4393 118.16 21.7465 117.599 22.05 117.034C22.5467 116.133 23.1144 115.303 23.7116 114.467C24.1703 113.82 24.6175 113.166 25.0633 112.51C26.2169 110.816 27.4064 109.159 28.6545 107.532C28.7872 107.358 28.92 107.184 29.0568 107.005C30.5293 105.091 32.0703 103.233 33.6358 101.394C33.7467 101.264 33.8576 101.133 33.9718 100.998C34.6319 100.227 35.3212 99.5032 36.0425 98.7879C36.3293 98.4676 36.6137 98.1452 36.8961 97.821C37.881 96.7193 38.9071 95.6621 39.9465 94.6119C40.1056 94.4496 40.2647 94.2874 40.4286 94.1202C40.5786 93.9697 40.7286 93.8192 40.8831 93.6642C41.018 93.5282 41.1529 93.3921 41.2919 93.252C41.6396 92.9582 41.6396 92.9582 42.0873 92.9582C42.1396 92.8285 42.1918 92.6987 42.2456 92.565C42.6053 91.9392 43.0156 91.6223 43.5845 91.1785C44.4689 90.4748 45.3311 89.7576 46.1777 89.0089C47.951 87.442 49.794 85.9904 51.6866 84.5714C52.1562 84.2181 52.6229 83.8613 53.0889 83.5034C54.9628 82.0703 56.8779 80.7537 58.8784 79.5051C59.331 79.2159 59.7835 78.9263 60.2356 78.6363C60.9707 78.1667 61.7118 77.7104 62.4605 77.2629C62.6426 77.1519 62.8247 77.0409 63.0123 76.9266C65.8252 75.2176 65.8252 75.2176 67.1619 75.0207C67.2358 74.7988 67.3097 74.5768 67.3858 74.3481C67.8756 74.1239 67.8756 74.1239 68.5052 73.8996C68.9548 73.6791 69.4027 73.455 69.8485 73.227C70.147 73.0775 70.4455 72.928 70.744 72.7785C70.1921 72.5021 69.8074 72.5387 69.1909 72.5263C67.1654 72.3562 65.4745 71.0806 64.1256 69.6062C62.9404 68.0773 62.7349 66.5771 62.7963 64.6585C63.0883 62.4441 64.24 60.9026 65.9245 59.4997C66.7026 58.9517 67.3629 58.678 68.2813 58.4285C68.4568 58.3777 68.6323 58.3268 68.8131 58.2744C69.7534 58.1623 70.6938 58.1878 71.6396 58.2043C71.544 58.1222 71.4485 58.0402 71.3501 57.9556C69.8478 56.6527 68.3849 55.3083 66.9381 53.9442C66.7719 53.7879 66.7719 53.7879 66.6025 53.6285C61.7924 49.0694 58.5389 43.4036 58.191 36.6583C58.2185 35.1254 58.522 33.6813 58.8784 32.195C58.9271 31.9819 58.9759 31.7689 59.0262 31.5494C59.7461 28.7905 61.6668 26.1423 64.0626 24.5882C64.1988 24.5087 64.335 24.4292 64.4754 24.3473C64.6301 24.2563 64.7848 24.1652 64.9441 24.0714C65.5235 23.7571 66.1093 23.488 66.7142 23.2262C66.9543 23.1207 67.1944 23.0152 67.4418 22.9065C70.3391 21.8153 73.2852 21.9959 76.341 22.1051C76.3359 21.8158 76.3307 21.5265 76.3253 21.2284C76.3211 20.8433 76.317 20.4582 76.3131 20.0731C76.3093 19.8831 76.3056 19.693 76.3017 19.4973C76.2846 17.2838 76.9417 15.1478 78.4286 13.4604C82.1123 10.2785 87.897 10.5926 92.0127 12.6879Z" fill="#CD5801"/>
<path d="M137.923 72.2767C138.072 72.2758 138.221 72.2749 138.375 72.2739C139.164 72.2693 139.953 72.266 140.742 72.2639C141.552 72.2614 142.362 72.2537 143.172 72.2448C143.799 72.2389 144.427 72.2371 145.055 72.2363C145.497 72.2347 145.939 72.2288 146.382 72.2227C148.006 72.2267 149.062 72.3622 150.446 73.227C150.793 73.3965 150.793 73.3965 151.146 73.5694C152.289 74.1311 153.384 74.713 154.451 75.4079C155.026 75.7552 155.621 76.0442 156.225 76.338C157.575 77.0019 158.823 77.7745 160.073 78.6082C160.235 78.7163 160.398 78.8244 160.565 78.9358C160.886 79.1505 161.206 79.3657 161.527 79.5813C162.092 79.9558 162.661 80.3222 163.232 80.6871C164.343 81.397 165.449 82.1119 166.538 82.8544C166.717 82.9766 166.897 83.0989 167.082 83.2249C167.207 83.3292 167.332 83.4335 167.461 83.541C167.461 83.689 167.461 83.837 167.461 83.9895C167.616 84.0406 167.771 84.0918 167.93 84.1445C168.726 84.5036 169.362 84.9992 170.036 85.545C170.172 85.6536 170.308 85.7622 170.448 85.8741C172.357 87.4074 174.215 89.0007 176.05 90.6223C176.365 90.8959 176.691 91.1576 177.018 91.4167C177.607 91.8948 178.122 92.419 178.655 92.9582C179.032 93.3335 179.41 93.7087 179.787 94.0837C180.111 94.4063 180.434 94.729 180.758 95.0518C180.978 95.2713 181.199 95.4907 181.42 95.7098C182.713 96.9941 183.965 98.2969 185.148 99.6848C185.473 100.045 185.8 100.405 186.127 100.764C187.187 101.94 188.186 103.159 189.178 104.393C189.418 104.69 189.418 104.69 189.663 104.992C192.088 108 192.088 108 192.088 108.654C192.236 108.654 192.384 108.654 192.536 108.654C192.859 109.106 192.859 109.106 193.235 109.733C193.777 110.612 194.338 111.456 194.957 112.283C196.882 114.903 198.49 117.749 200.122 120.558C200.344 120.939 200.571 121.319 200.798 121.698C201.789 123.362 202.656 125.075 203.508 126.814C203.725 127.254 203.946 127.691 204.168 128.127C205.309 130.37 205.309 130.37 205.689 131.426C205.933 132.178 205.933 132.178 206.296 132.733C206.634 133.306 206.848 133.838 207.06 134.467C207.37 135.35 207.713 136.197 208.11 137.045C208.535 137.958 208.873 138.865 209.175 139.825C209.331 140.315 209.331 140.315 209.663 140.927C210.023 141.665 210.245 142.383 210.472 143.17C210.719 144.023 210.98 144.872 211.244 145.72C211.314 145.949 211.314 145.949 211.386 146.183C211.578 146.801 211.776 147.409 212.02 148.008C212.303 148.732 212.49 149.466 212.685 150.218C212.971 151.315 213.267 152.408 213.581 153.497C214.138 155.487 214.618 157.464 214.989 159.497C215.133 160.158 215.342 160.72 215.596 161.345C215.672 161.721 215.737 162.1 215.791 162.48C215.989 163.75 216.234 165.005 216.491 166.264C216.792 167.749 217.068 169.231 217.282 170.731C217.378 171.376 217.488 172.016 217.602 172.657C217.915 174.525 218.075 176.406 218.25 178.29C218.29 178.703 218.29 178.703 218.331 179.125C218.354 179.371 218.377 179.617 218.401 179.87C218.494 180.652 218.494 180.652 218.732 181.493C218.988 182.472 219.048 183.423 219.088 184.431C219.096 184.617 219.105 184.803 219.114 184.995C219.142 185.585 219.167 186.175 219.192 186.766C219.218 187.354 219.244 187.943 219.271 188.532C219.288 188.896 219.304 189.26 219.319 189.625C219.357 190.485 219.418 191.334 219.517 192.189C219.685 193.803 219.667 195.423 219.671 197.044C219.671 197.217 219.672 197.391 219.673 197.569C219.676 198.491 219.678 199.412 219.679 200.334C219.68 201.082 219.683 201.83 219.688 202.578C219.769 214.553 219.769 214.553 218.506 216.951C218.423 217.374 218.355 217.8 218.296 218.226C218.139 219.236 217.924 220.156 217.577 221.116C217.256 222.031 216.999 222.967 216.729 223.898C216.494 224.565 216.193 225.099 215.819 225.696C215.759 225.89 215.699 226.084 215.637 226.284C213.035 233.693 205.797 239.549 199.028 242.961C198.51 243.197 197.987 243.414 197.461 243.633C197.19 243.772 196.919 243.912 196.65 244.054C195.624 244.575 194.557 244.973 193.48 245.377C192.869 245.609 192.27 245.858 191.668 246.114C189.377 247.032 186.922 247.519 184.513 248.029C183.811 248.18 183.141 248.339 182.459 248.571C181.625 248.844 180.793 248.985 179.929 249.127C178.943 249.29 177.968 249.463 176.995 249.694C175.723 249.984 174.44 250.076 173.142 250.183C172.135 250.273 171.221 250.43 170.244 250.694C169.048 250.945 167.821 251.014 166.605 251.117C166.125 251.158 165.645 251.201 165.166 251.244C163.909 251.355 162.653 251.464 161.394 251.535C161.242 251.544 161.091 251.552 160.935 251.561C160.526 251.583 160.117 251.604 159.708 251.624C158.847 251.681 157.999 251.806 157.146 251.928C155.459 252.159 153.793 252.246 152.092 252.288C151.79 252.296 151.488 252.305 151.185 252.314C150.398 252.337 149.611 252.359 148.825 252.379C147.568 252.412 146.311 252.449 145.054 252.485C144.624 252.497 144.193 252.508 143.763 252.52C142.371 252.558 140.985 252.619 139.595 252.716C137.095 252.873 134.596 252.858 132.092 252.855C131.561 252.856 131.03 252.856 130.5 252.856C129.069 252.857 127.638 252.857 126.208 252.856C125.312 252.856 124.416 252.856 123.52 252.856C123.296 252.856 123.296 252.856 123.067 252.856C122.764 252.856 122.46 252.856 122.156 252.857C119.319 252.857 116.481 252.856 113.644 252.855C111.217 252.854 108.79 252.854 106.363 252.855C103.534 252.857 100.705 252.857 97.8766 252.856C97.5742 252.856 97.2718 252.856 96.9693 252.856C96.8206 252.856 96.6718 252.856 96.5186 252.856C95.4777 252.856 94.4367 252.856 93.3958 252.857C91.9913 252.857 90.5868 252.857 89.1823 252.856C88.6693 252.855 88.1564 252.855 87.6434 252.856C85.1669 252.858 82.705 252.841 80.2346 252.656C78.8641 252.559 77.4911 252.533 76.1179 252.498C75.8104 252.489 75.5028 252.481 75.1953 252.472C73.9112 252.435 72.6271 252.4 71.343 252.367C64.9961 252.202 64.9961 252.202 62.4471 251.825C61.2958 251.669 60.1428 251.574 58.9849 251.481C58.7588 251.462 58.5326 251.444 58.2996 251.425C57.3645 251.349 56.4294 251.274 55.4942 251.201C54.8013 251.146 54.1086 251.089 53.4159 251.032C53.2074 251.017 52.9988 251.001 52.784 250.984C51.6481 250.89 50.5696 250.724 49.4611 250.459C48.9558 250.343 48.4617 250.284 47.9448 250.249C47.7598 250.235 47.5748 250.221 47.3842 250.207C47.1926 250.192 47.001 250.178 46.8036 250.164C44.7231 249.989 42.7543 249.601 40.7283 249.113C40.1313 248.977 39.5309 248.882 38.9258 248.79C35.7493 248.289 32.6551 247.304 29.6163 246.273C29.2399 246.146 28.8625 246.021 28.4847 245.898C27.7933 245.672 27.1045 245.439 26.4164 245.203C26.1956 245.128 25.9749 245.052 25.7474 244.975C20.1092 242.937 14.8287 239.483 10.5209 235.337C10.3795 235.212 10.2381 235.087 10.0924 234.959C8.61892 233.616 7.57331 231.84 6.49105 230.18C6.39607 230.035 6.30108 229.891 6.20322 229.742C5.48928 228.629 4.8982 227.48 4.3362 226.284C4.25078 226.108 4.16535 225.932 4.07734 225.75C3.21244 223.922 2.69965 222.021 2.22333 220.062C2.1874 219.916 2.15147 219.77 2.11445 219.62C2.04265 219.328 1.97104 219.037 1.89964 218.745C1.71596 217.997 1.5287 217.25 1.3418 216.503C1.64162 216.582 1.93981 216.667 2.23732 216.755C2.40355 216.802 2.56978 216.849 2.74105 216.897C3.47519 217.229 4.04302 217.673 4.67814 218.165C9.11884 221.53 14.4951 223.822 19.7 225.696C19.911 225.772 20.122 225.848 20.3394 225.927C24.0954 227.266 27.9271 228.304 31.7896 229.283C32.1191 229.367 32.1191 229.367 32.4553 229.452C39.5565 231.239 46.7882 232.408 54.057 233.253C54.5636 233.312 55.0698 233.373 55.576 233.436C58.2031 233.751 60.8405 233.964 63.4768 234.185C63.6344 234.198 63.7919 234.211 63.9543 234.225C64.2814 234.252 64.6086 234.279 64.9358 234.306C65.8142 234.38 66.6915 234.459 67.5684 234.549C71.3857 234.933 75.2103 235.092 79.0424 235.239C79.2246 235.246 79.4068 235.253 79.5946 235.261C86.4285 235.526 93.2628 235.66 100.101 235.735C100.834 235.743 101.567 235.753 102.299 235.762C113.604 235.904 124.477 235.136 135.446 232.198C135.608 232.155 135.77 232.113 135.937 232.069C141.49 230.593 146.873 228.472 152.013 225.92C152.241 225.807 152.468 225.695 152.703 225.579C155.578 224.145 158.325 222.59 160.969 220.763C161.109 220.666 161.25 220.57 161.394 220.47C163.188 219.231 164.905 217.917 166.566 216.503C166.699 216.39 166.832 216.276 166.969 216.16C169.232 214.233 171.354 212.268 173.282 210C173.447 209.808 173.612 209.617 173.782 209.419C175.126 207.833 176.344 206.2 177.494 204.465C177.58 204.336 177.665 204.206 177.754 204.073C184.995 193.112 188.093 180.32 188.128 167.273C188.129 167.058 188.129 166.843 188.13 166.622C188.133 162.629 187.823 158.728 187.276 154.775C187.178 154.055 187.087 153.335 187.001 152.613C186.606 149.424 185.887 146.307 185.148 143.183C185.111 143.021 185.074 142.859 185.035 142.692C184.813 141.722 184.546 140.77 184.252 139.82C184.187 139.607 184.121 139.395 184.054 139.176C181.14 129.893 176.735 121.154 170.596 113.586C170.301 113.213 170.007 112.839 169.714 112.465C168.784 111.302 167.792 110.202 166.79 109.102C166.449 108.719 166.109 108.336 165.768 107.953C164.333 106.358 162.825 104.887 161.193 103.497C161.084 103.403 160.975 103.31 160.862 103.213C158.312 100.893 158.312 100.893 155.442 99.0402C154.587 98.4913 154.24 97.9585 153.749 97.087C152.727 95.6763 151.352 94.9225 149.817 94.1774C143.429 90.9278 138.724 86.0642 135.446 79.7293C135.37 79.5856 135.295 79.4418 135.216 79.2937C134.664 78.2243 134.238 77.1407 133.851 76.0017C133.795 75.8393 133.739 75.6768 133.681 75.5095C133.367 74.6014 133.061 73.6907 132.76 72.7786C133.693 71.8436 136.715 72.2836 137.923 72.2767Z" fill="#C54707"/>
<path d="M92.0131 12.6879C97.8391 14.8964 104.037 16.1011 110.259 16.1073C110.498 16.1076 110.498 16.1076 110.741 16.1079C113.044 16.1057 115.254 15.987 117.507 15.4821C118.034 15.3675 118.563 15.2697 119.094 15.1736C121.475 14.7354 123.752 14.1396 126.043 13.3606C126.332 13.2641 126.62 13.1677 126.909 13.0715C127.47 12.8845 128.03 12.6966 128.59 12.5084C132.318 11.2721 136.181 10.1926 139.924 12.0153C141.811 13.2789 143.256 15.1415 143.73 17.3965C143.762 17.7684 143.784 18.1412 143.8 18.5141C143.81 18.7237 143.819 18.9332 143.829 19.1491C143.838 19.3662 143.846 19.5832 143.855 19.8069C143.865 20.0274 143.875 20.2479 143.885 20.4751C143.908 21.0184 143.931 21.5617 143.953 22.1051C144.122 22.0981 144.291 22.091 144.465 22.0838C149.3 21.9091 153.318 22.1776 157.156 25.3896C160.051 28.1038 161.655 31.9829 161.9 35.9095C162.091 42.165 158.85 47.8481 154.714 52.2906C154.19 52.8448 153.662 53.395 153.133 53.9442C152.944 54.1422 152.756 54.3401 152.561 54.5441C151.54 55.5958 150.46 56.5196 149.298 57.4126C149.159 57.5259 149.021 57.6392 148.879 57.7559C148.879 57.8299 148.879 57.9039 148.879 57.9801C149.304 58.0256 149.304 58.0256 149.738 58.0721C153.786 58.5648 153.786 58.5648 155.147 60.2223C155.658 60.9426 156.09 61.6779 156.491 62.4645C156.612 62.6781 156.733 62.8917 156.857 63.1117C157.526 64.6415 157.377 66.5579 156.855 68.126C156.022 69.9266 154.474 71.3091 152.685 72.1059C151.683 72.4464 150.833 72.6283 149.774 72.5543C149.627 72.4803 149.479 72.4063 149.327 72.3301C149.253 72.4781 149.179 72.6261 149.103 72.7785C148.955 72.7046 148.807 72.6306 148.655 72.5543C148.223 72.5327 147.791 72.5256 147.358 72.5253C147.086 72.5246 146.814 72.5239 146.534 72.5232C146.235 72.5236 145.936 72.524 145.638 72.5246C145.331 72.5244 145.025 72.5242 144.719 72.5239C144.076 72.5236 143.432 72.5241 142.789 72.5251C141.969 72.5264 141.148 72.5256 140.328 72.5243C139.694 72.5235 139.061 72.5238 138.427 72.5243C137.979 72.5245 137.53 72.5239 137.082 72.5232C135.695 72.5267 134.354 72.5613 132.983 72.7785C133.365 74.1719 133.826 75.5306 134.327 76.8846C134.41 77.1137 134.41 77.1137 134.495 77.3474C134.816 78.2026 135.185 78.9579 135.67 79.7293C135.814 79.9924 135.956 80.2564 136.097 80.5211C137.208 82.582 138.428 84.4324 139.924 86.2317C140.09 86.4323 140.255 86.6329 140.426 86.8395C143.097 89.9383 146.593 92.2901 150.222 94.1214C151.728 94.8862 153.001 95.611 154.028 96.9942C154.141 97.1468 154.255 97.2994 154.372 97.4566C155.482 99.092 155.421 100.679 155.371 102.6C155.375 102.758 155.379 102.916 155.384 103.079C155.341 104.594 154.365 105.587 153.356 106.636C151.684 108.177 150.087 108.539 147.835 108.5C144.562 108.19 141.381 105.934 138.734 104.113C138.545 103.983 138.357 103.854 138.162 103.72C136.836 102.802 135.563 101.843 134.327 100.806C134.125 100.645 133.924 100.485 133.717 100.32C131.607 98.6308 129.849 96.8566 128.27 94.6627C127.865 94.0907 127.865 94.0907 127.44 93.6922C127.162 93.4067 127.162 93.4067 127.162 92.9582C127.015 92.9582 126.867 92.9582 126.715 92.9582C126.451 92.5529 126.207 92.1344 125.973 91.711C125.546 90.9419 125.113 90.2066 124.591 89.4995C124.013 88.7036 123.574 87.8729 123.147 86.9884C123.07 86.8332 122.994 86.678 122.916 86.5181C122.687 86.0499 122.462 85.5806 122.237 85.1106C122.171 84.9719 122.104 84.8333 122.036 84.6904C121.479 83.5194 120.937 82.353 120.502 81.1307C120.308 80.3822 120.308 80.3822 119.774 80.1778C119.754 80.2989 119.734 80.42 119.714 80.5448C119.498 81.2451 119.128 81.7663 118.725 82.3779C117.72 83.9587 117.044 85.5924 116.416 87.3528C116.328 87.5901 116.241 87.8274 116.15 88.0718C115.308 90.5362 115.086 93.0802 115.044 95.6716C114.96 100.602 114.96 100.602 113.066 102.62C111.094 104.473 109.253 104.586 106.654 104.515C105.111 104.41 104.097 103.89 102.983 102.824C102.783 102.658 102.783 102.658 102.579 102.488C101.028 101.001 100.494 98.5454 100.376 96.4639C100.285 91.5231 101.306 85.8539 103.207 81.2989C103.296 81.0812 103.385 80.8636 103.477 80.6393C103.743 80.0271 104.03 79.4305 104.327 78.8325C104.467 78.5432 104.607 78.2538 104.747 77.9645C105.578 76.2627 106.446 74.6042 107.461 73.0028C106.666 72.5094 106.022 72.4994 105.097 72.5019C104.877 72.5016 104.877 72.5016 104.651 72.5012C104.159 72.501 103.666 72.504 103.173 72.507C102.82 72.5075 102.467 72.5078 102.113 72.5079C101.352 72.5085 100.59 72.5106 99.8291 72.5138C98.6237 72.5188 97.4183 72.5206 96.2128 72.522C94.3041 72.5245 92.3954 72.5292 90.4867 72.5347C87.0743 72.5446 83.6619 72.5521 80.2495 72.5572C79.053 72.5591 77.8565 72.5622 76.6601 72.5664C75.9127 72.5688 75.1653 72.5702 74.4179 72.5715C74.0734 72.5723 73.729 72.5734 73.3845 72.575C69.7337 72.5916 67.2914 72.5644 64.4898 70.0038C63.0303 68.4086 62.7282 66.8004 62.7967 64.6585C63.0888 62.4441 64.2404 60.9026 65.9249 59.4997C66.703 58.9517 67.3633 58.678 68.2818 58.4285C68.4572 58.3777 68.6327 58.3268 68.8135 58.2744C69.7538 58.1623 70.6943 58.1878 71.64 58.2043C71.4967 58.0812 71.4967 58.0812 71.3505 57.9556C69.8483 56.6527 68.3853 55.3083 66.9385 53.9442C66.7724 53.7879 66.7724 53.7879 66.6029 53.6285C61.7929 49.0694 58.5393 43.4036 58.1914 36.6583C58.219 35.1254 58.5224 33.6813 58.8788 32.195C58.9276 31.9819 58.9763 31.7689 59.0266 31.5494C59.7465 28.7905 61.6672 26.1423 64.063 24.5882C64.1992 24.5087 64.3355 24.4292 64.4758 24.3473C64.6305 24.2563 64.7852 24.1652 64.9446 24.0714C65.5239 23.7571 66.1098 23.488 66.7146 23.2262C66.9547 23.1207 67.1948 23.0152 67.4422 22.9065C70.3395 21.8153 73.2856 21.9959 76.3415 22.1051C76.3363 21.8158 76.3311 21.5265 76.3257 21.2284C76.3215 20.8433 76.3175 20.4582 76.3135 20.0731C76.3097 19.8831 76.306 19.693 76.3021 19.4973C76.2851 17.2838 76.9421 15.1478 78.429 13.4604C82.1127 10.2785 87.8974 10.5926 92.0131 12.6879Z" fill="#FA7802"/>
<path d="M71.1916 57.7559C71.3348 57.7876 71.4779 57.8193 71.6255 57.852C73.31 58.1955 74.9206 58.2671 76.6361 58.2597C76.9272 58.2603 77.2182 58.2608 77.5181 58.2614C78.3195 58.2628 79.1208 58.2615 79.9222 58.2596C80.7891 58.2581 81.6559 58.2593 82.5228 58.2601C84.2188 58.2612 85.9148 58.2599 87.6108 58.2578C89.5892 58.2555 91.5675 58.2555 93.5458 58.2556C97.0786 58.2558 100.611 58.2537 104.144 58.2504C107.565 58.2473 110.986 58.2457 114.407 58.2458C114.723 58.2459 114.723 58.2459 115.045 58.2459C115.255 58.2459 115.466 58.2459 115.682 58.2459C119.585 58.2461 123.488 58.2447 127.391 58.2427C128.767 58.2421 130.143 58.2418 131.519 58.2417C133.199 58.2416 134.879 58.2405 136.559 58.2385C137.414 58.2375 138.27 58.2368 139.126 58.2371C143.651 58.2458 143.651 58.2458 148.17 58.0211C149.174 57.9629 150.127 58.0341 151.117 58.2043C151.295 58.2345 151.474 58.2647 151.658 58.2958C153.411 58.6378 154.498 59.3076 155.539 60.7758C155.885 61.3289 156.194 61.8836 156.49 62.4645C156.611 62.678 156.732 62.8916 156.857 63.1117C157.525 64.6415 157.377 66.5578 156.854 68.126C156.022 69.9266 154.473 71.3091 152.684 72.1059C151.682 72.4464 150.833 72.6283 149.774 72.5543C149.626 72.4803 149.478 72.4063 149.326 72.3301C149.252 72.4781 149.178 72.626 149.102 72.7785C148.954 72.7045 148.807 72.6305 148.654 72.5543C148.222 72.5327 147.79 72.5256 147.358 72.5253C147.086 72.5246 146.813 72.5239 146.533 72.5231C146.234 72.5235 145.936 72.524 145.637 72.5245C145.331 72.5244 145.025 72.5241 144.718 72.5239C144.075 72.5235 143.432 72.524 142.788 72.5251C141.968 72.5263 141.147 72.5256 140.327 72.5243C139.694 72.5234 139.06 72.5237 138.427 72.5243C137.978 72.5245 137.53 72.5238 137.081 72.5231C135.694 72.5267 134.354 72.5613 132.983 72.7785C133.364 74.1718 133.825 75.5306 134.326 76.8845C134.41 77.1137 134.41 77.1137 134.495 77.3474C134.815 78.2025 135.184 78.9579 135.669 79.7293C135.813 79.9923 135.956 80.2563 136.097 80.5211C137.207 82.582 138.427 84.4324 139.923 86.2316C140.172 86.5325 140.172 86.5325 140.426 86.8395C143.096 89.9382 146.593 92.2901 150.221 94.1213C151.727 94.8862 153 95.611 154.027 96.9941C154.141 97.1468 154.254 97.2994 154.371 97.4566C155.481 99.092 155.42 100.679 155.371 102.6C155.375 102.758 155.379 102.916 155.383 103.079C155.34 104.594 154.364 105.587 153.356 106.636C151.684 108.177 150.086 108.539 147.835 108.5C144.562 108.19 141.38 105.934 138.734 104.113C138.545 103.983 138.356 103.854 138.162 103.72C136.835 102.802 135.563 101.843 134.326 100.806C134.125 100.645 133.924 100.485 133.716 100.32C131.606 98.6307 129.848 96.8565 128.269 94.6626C127.865 94.0906 127.865 94.0906 127.44 93.6922C127.162 93.4066 127.162 93.4066 127.162 92.9582C127.014 92.9582 126.866 92.9582 126.714 92.9582C126.45 92.5529 126.206 92.1344 125.972 91.711C125.546 90.9418 125.112 90.2066 124.591 89.4995C124.013 88.7036 123.573 87.8729 123.146 86.9884C123.07 86.8332 122.994 86.678 122.915 86.518C122.687 86.0499 122.461 85.5806 122.236 85.1105C122.17 84.9719 122.104 84.8332 122.035 84.6904C121.479 83.5193 120.936 82.353 120.501 81.1307C120.308 80.3822 120.308 80.3822 119.774 80.1777C119.754 80.2988 119.734 80.4199 119.713 80.5447C119.497 81.2451 119.128 81.7663 118.724 82.3779C117.719 83.9586 117.043 85.5924 116.415 87.3527C116.328 87.59 116.24 87.8273 116.15 88.0718C115.308 90.5362 115.085 93.0802 115.043 95.6716C114.959 100.602 114.959 100.602 113.065 102.62C111.094 104.473 109.252 104.586 106.653 104.515C105.111 104.41 104.096 103.89 102.983 102.824C102.783 102.658 102.783 102.658 102.579 102.488C101.028 101.001 100.493 98.5454 100.376 96.4639C100.284 91.523 101.305 85.8539 103.207 81.2988C103.34 80.9724 103.34 80.9724 103.477 80.6393C103.743 80.027 104.029 79.4305 104.326 78.8324C104.466 78.5431 104.606 78.2538 104.747 77.9645C105.578 76.2627 106.446 74.6041 107.46 73.0027C106.665 72.5093 106.022 72.4994 105.097 72.5019C104.95 72.5017 104.802 72.5014 104.651 72.5012C104.158 72.501 103.665 72.504 103.173 72.5069C102.819 72.5074 102.466 72.5077 102.112 72.5078C101.351 72.5085 100.59 72.5106 99.8285 72.5137C98.6231 72.5187 97.4176 72.5205 96.2122 72.5219C94.3034 72.5245 92.3947 72.5291 90.486 72.5347C87.0736 72.5446 83.6612 72.5521 80.2488 72.5572C79.0524 72.559 77.8559 72.5622 76.6594 72.5663C75.9121 72.5687 75.1647 72.5702 74.4173 72.5715C74.0728 72.5722 73.7283 72.5734 73.3839 72.575C69.7331 72.5916 67.2907 72.5643 64.4892 70.0038C63.0296 68.4086 62.7276 66.8004 62.7961 64.6585C63.0881 62.4441 64.2398 60.9026 65.9243 59.4997C66.7024 58.9516 67.3627 58.678 68.2811 58.4285C68.4566 58.3776 68.6321 58.3268 68.8129 58.2744C69.7532 58.1623 70.6936 58.1877 71.6393 58.2043C71.4916 58.0563 71.3438 57.9083 71.1916 57.7559Z" fill="#FB9906"/>
<path d="M140.554 12.4374C142.104 13.7283 143.308 15.394 143.729 17.3965C143.761 17.7684 143.784 18.1412 143.8 18.5141C143.809 18.7237 143.819 18.9332 143.828 19.1491C143.837 19.3662 143.846 19.5832 143.855 19.8069C143.865 20.0274 143.874 20.2479 143.884 20.4751C143.908 21.0184 143.931 21.5618 143.953 22.1051C144.122 22.0981 144.29 22.091 144.464 22.0838C149.299 21.9091 153.318 22.1776 157.156 25.3896C160.05 28.1038 161.655 31.9829 161.899 35.9095C162.09 42.165 158.849 47.8482 154.713 52.2906C154.189 52.8448 153.661 53.395 153.132 53.9442C152.946 54.1396 152.76 54.3349 152.569 54.5363C149.915 57.271 148.234 58.3652 144.45 58.441C142.604 58.4628 140.758 58.4591 138.912 58.4576C138.288 58.4577 137.665 58.4583 137.041 58.4588C135.529 58.4597 134.018 58.4595 132.506 58.4589C131.277 58.4584 130.048 58.4583 128.819 58.4586C128.556 58.4586 128.556 58.4586 128.287 58.4587C127.931 58.4587 127.574 58.4588 127.218 58.4589C123.883 58.4595 120.547 58.4588 117.212 58.4576C114.353 58.4566 111.494 58.4567 108.635 58.4578C105.309 58.459 101.984 58.4595 98.658 58.4588C98.3032 58.4587 97.9484 58.4586 97.5936 58.4586C97.4191 58.4585 97.2445 58.4585 97.0647 58.4585C95.8373 58.4583 94.61 58.4586 93.3826 58.4591C91.8868 58.4597 90.3911 58.4596 88.8953 58.4584C88.1328 58.4578 87.3704 58.4576 86.6079 58.4583C85.7803 58.4589 84.9528 58.4581 84.1252 58.457C83.8859 58.4575 83.6465 58.458 83.3998 58.4585C82.0733 58.4551 80.7909 58.3766 79.4753 58.2043C79.4753 58.0563 79.4753 57.9084 79.4753 57.7559C79.2311 57.664 79.2311 57.664 78.982 57.5702C76.3724 56.4751 74.2095 54.422 72.0872 52.5989C71.9574 52.4877 71.8276 52.3765 71.6938 52.262C67.3363 48.4974 63.3806 43.3895 62.8373 37.4781C62.7352 34.5221 63.4798 31.8178 65.4408 29.5884C65.7386 29.3248 65.7386 29.3248 66.0424 29.0559C66.1556 28.9478 66.2687 28.8397 66.3853 28.7283C68.6273 26.7882 71.6856 26.3721 74.5447 26.5159C76.7537 26.6818 76.7537 26.6818 77.4604 27.2621C78.0138 28.0888 78.2854 29.0106 78.5798 29.9528C79.7413 33.6023 81.0511 37.1018 82.6783 40.5717C82.9426 41.1368 83.1996 41.7046 83.4522 42.2751C85.4215 47.0627 85.4215 47.0627 89.3377 50.1669C89.7954 50.3661 90.2322 50.5908 90.6737 50.8235C94.0379 52.5539 98.4765 54.61 102.311 54.3926C102.311 54.4666 102.311 54.5406 102.311 54.6168C103.124 54.6168 103.936 54.6168 104.774 54.6168C104.774 54.7648 104.774 54.9128 104.774 55.0653C105.245 55.0336 105.716 55.0007 106.187 54.9672C106.449 54.949 106.712 54.9308 106.982 54.912C107.69 54.8664 107.69 54.8664 108.356 54.6168C109.07 54.6039 109.78 54.612 110.494 54.6256C111.191 54.6338 111.719 54.6153 112.386 54.3926C112.684 54.3752 112.983 54.3618 113.281 54.3506C118.606 53.8565 123.502 50.7494 126.938 46.7692C130.983 41.8634 134.065 35.9534 136.17 29.9805C136.31 29.5904 136.462 29.2046 136.617 28.8203C138.106 25.1323 138.988 20.2839 137.46 16.4996C136.487 14.8111 134.965 13.3517 133.151 12.6179C132.947 12.567 132.744 12.5161 132.535 12.4637C132.161 12.317 131.787 12.1685 131.416 12.0153C131.416 11.8673 131.416 11.7193 131.416 11.5668C134.372 10.7209 137.921 10.675 140.554 12.4374Z" fill="#ED6902"/>
<path d="M278.285 61.4289L184.189 37.3334C182.58 36.9216 180.879 37.1603 179.434 38.0027L141.429 60.171C138.427 61.9223 137.397 65.7326 139.125 68.6953L161 106.197C161.831 107.622 163.192 108.645 164.8 109.057L258.896 133.152C260.565 133.579 262.261 133.294 263.651 132.483C265.04 131.672 266.124 130.336 266.574 128.674L282.704 69.0042C283.605 65.6712 281.63 62.2854 278.285 61.4289ZM185.021 85.0051C179.016 88.5077 171.363 86.5387 167.913 80.6241C164.456 74.6989 166.517 67.0782 172.521 63.5756C178.515 60.0793 186.174 62.0313 189.63 67.9566C193.08 73.8711 191.015 81.5089 185.021 85.0051Z" fill="#843F00"/>
<path d="M71.1918 57.7559C71.335 57.7876 71.4781 57.8193 71.6257 57.852C73.3102 58.1955 74.9208 58.2671 76.6363 58.2597C76.9274 58.2603 77.2184 58.2608 77.5183 58.2614C78.3197 58.2628 79.121 58.2615 79.9224 58.2596C80.7893 58.2581 81.6561 58.2593 82.523 58.2601C84.219 58.2612 85.915 58.2599 87.611 58.2578C89.5894 58.2555 91.5677 58.2555 93.546 58.2556C97.0788 58.2558 100.611 58.2537 104.144 58.2504C107.565 58.2473 110.986 58.2457 114.408 58.2458C114.723 58.2459 114.723 58.2459 115.045 58.2459C115.256 58.2459 115.466 58.2459 115.682 58.2459C119.585 58.2461 123.488 58.2447 127.391 58.2427C128.767 58.2421 130.143 58.2418 131.519 58.2417C133.199 58.2416 134.879 58.2405 136.559 58.2385C137.415 58.2375 138.27 58.2368 139.126 58.2371C143.651 58.2458 143.651 58.2458 148.17 58.0211C149.174 57.9629 150.127 58.0341 151.117 58.2043C151.296 58.2345 151.474 58.2647 151.658 58.2958C153.411 58.6378 154.498 59.3076 155.54 60.7758C155.884 61.3278 156.191 61.8869 156.49 62.4645C156.638 62.7142 156.786 62.9639 156.938 63.2212C157.162 63.8098 157.162 63.8098 156.98 64.3423C156.892 64.4625 156.805 64.5828 156.714 64.7066C156.566 64.7066 156.419 64.7066 156.266 64.7066C156.183 64.9043 156.183 64.9043 156.098 65.106C155.198 66.7069 153.247 67.5512 151.565 68.0699C150.717 68.2717 149.931 68.3226 149.06 68.3236C148.78 68.3245 148.499 68.3253 148.21 68.3262C147.899 68.326 147.588 68.3258 147.278 68.3256C146.947 68.3262 146.617 68.3269 146.286 68.3276C145.377 68.3295 144.469 68.3299 143.56 68.33C142.58 68.3304 141.6 68.3321 140.62 68.3336C138.477 68.3367 136.334 68.338 134.191 68.339C132.852 68.3396 131.514 68.3406 130.175 68.3416C126.468 68.3443 122.762 68.3466 119.055 68.3474C118.699 68.3475 118.699 68.3475 118.336 68.3476C118.098 68.3476 117.86 68.3477 117.615 68.3477C117.133 68.3478 116.651 68.3479 116.17 68.348C115.931 68.3481 115.691 68.3481 115.445 68.3482C111.574 68.349 107.702 68.353 103.831 68.3582C99.8547 68.3635 95.8787 68.3663 91.9027 68.3665C89.6708 68.3668 87.4389 68.368 85.207 68.3721C83.3061 68.3756 81.4052 68.3767 79.5044 68.3749C78.5351 68.374 77.5658 68.3742 76.5965 68.3773C75.7077 68.3802 74.8191 68.3799 73.9303 68.3772C73.6102 68.3768 73.29 68.3775 72.9698 68.3794C69.9008 68.397 67.3812 67.9804 64.9231 66.052C64.4932 65.6234 64.1649 65.1999 63.8037 64.7066C63.5085 64.4044 63.2105 64.1049 62.9082 63.8098C63.795 61.6761 64.8978 59.9416 66.9931 58.8358C67.4558 58.6527 67.4558 58.6527 68.2813 58.4285C68.4568 58.3776 68.6323 58.3268 68.8131 58.2744C69.7534 58.1623 70.6938 58.1877 71.6395 58.2043C71.4918 58.0563 71.344 57.9083 71.1918 57.7559Z" fill="#FCB60D"/>
<path d="M77.0861 26.9547C77.9931 27.6997 78.2417 28.8707 78.5798 29.9528C81.303 38.5095 85.2317 46.7129 90.1044 54.2577C90.2297 54.4526 90.355 54.6475 90.4842 54.8483C90.722 55.2158 90.9623 55.5818 91.2056 55.9457C91.3117 56.1086 91.4179 56.2716 91.5272 56.4395C91.6213 56.5807 91.7153 56.7219 91.8122 56.8674C92.0603 57.4121 92.0481 57.8367 92.0126 58.4285C90.5509 58.4343 89.0893 58.4382 87.6276 58.4409C87.131 58.442 86.6345 58.4435 86.1379 58.4455C85.4215 58.4482 84.7051 58.4495 83.9888 58.4504C83.769 58.4516 83.5492 58.4528 83.3228 58.4539C82.0217 58.454 80.7658 58.3722 79.4753 58.2043C79.4753 58.0563 79.4753 57.9084 79.4753 57.7559C79.2311 57.664 79.2311 57.664 78.982 57.5702C76.3724 56.4751 74.2095 54.422 72.0872 52.5989C71.8925 52.4321 71.8925 52.4321 71.6938 52.262C67.3363 48.4974 63.3806 43.3894 62.8373 37.4781C62.7352 34.5221 63.4798 31.8178 65.4408 29.5884C65.6393 29.4127 65.8379 29.2369 66.0424 29.0559C66.1556 28.9478 66.2687 28.8397 66.3853 28.7283C68.9077 26.5456 73.9598 25.5895 77.0861 26.9547Z" fill="#D45802"/>
<path d="M153.184 28.121C155.806 29.9178 156.818 32.0865 157.433 35.1455C157.69 36.6432 157.529 37.9087 157.162 39.3696C157.058 39.7958 157.058 39.7958 156.951 40.2306C155.393 46.0601 150.793 50.741 146.192 54.3923C146.073 54.487 145.955 54.5817 145.832 54.6793C144.427 55.7991 143.016 56.8503 141.452 57.7424C141.053 57.9504 141.053 57.9504 140.819 58.204C140.427 58.225 140.034 58.2303 139.642 58.2295C139.391 58.2294 139.14 58.2294 138.882 58.2294C138.472 58.2277 138.472 58.2277 138.054 58.2259C137.776 58.2256 137.498 58.2253 137.212 58.2249C136.472 58.2239 135.732 58.2219 134.991 58.2194C134.237 58.2171 133.482 58.2161 132.727 58.2149C131.245 58.2125 129.763 58.2087 128.281 58.204C128.433 57.3628 128.633 56.7855 129.093 56.0617C129.213 55.8701 129.333 55.6785 129.457 55.4811C129.586 55.279 129.715 55.077 129.848 54.8687C130.116 54.4435 130.383 54.0181 130.649 53.5926C130.781 53.3845 130.912 53.1763 131.047 52.9619C131.865 51.6587 132.652 50.338 133.431 49.011C133.51 48.8765 133.589 48.742 133.671 48.6034C136.613 43.5975 139.145 38.1729 140.976 32.6615C141.025 32.5134 141.075 32.3653 141.126 32.2128C141.365 31.4933 141.597 30.773 141.821 30.0487C142.611 27.6033 142.611 27.6033 143.953 26.8134C146.948 25.9032 150.518 26.6072 153.184 28.121Z" fill="#D45802"/>
<path d="M75.2595 72.2208C75.5999 72.2203 75.9402 72.2195 76.2806 72.2182C77.1997 72.2161 78.1187 72.2195 79.0377 72.224C80.0014 72.228 80.9651 72.2272 81.9288 72.227C83.5457 72.2274 85.1627 72.2313 86.7796 72.2375C88.6482 72.2445 90.5168 72.2469 92.3853 72.2465C94.3774 72.2462 96.3695 72.2494 98.3616 72.2535C98.9348 72.2544 99.508 72.2547 100.081 72.2549C100.982 72.2554 101.882 72.2581 102.782 72.2626C103.113 72.2639 103.443 72.2645 103.773 72.2642C104.224 72.264 104.675 72.2668 105.126 72.2698C105.504 72.2709 105.504 72.2709 105.89 72.2721C106.573 72.3305 107.067 72.4886 107.684 72.7782C107.211 73.7652 106.707 74.7182 106.153 75.6622C105.168 77.3415 104.386 79.0461 103.654 80.8501C103.449 80.8206 103.245 80.7912 103.034 80.7608C92.9421 79.3548 82.4487 79.605 72.3108 80.4016C71.9924 80.4259 71.6739 80.4502 71.3555 80.4744C67.8333 80.7465 64.3351 81.1059 60.8478 81.6864C57.8006 82.183 57.8006 82.183 56.6392 81.9712C56.4914 81.7492 56.3436 81.5272 56.1914 81.2985C58.2545 79.9102 60.3256 78.5391 62.4601 77.2626C62.6422 77.1516 62.8243 77.0406 63.0119 76.9262C65.8248 75.2173 65.8248 75.2173 67.1616 75.0204C67.2354 74.7984 67.3093 74.5764 67.3854 74.3477C67.8752 74.1235 67.8752 74.1235 68.5048 73.8993C68.708 73.7975 68.9112 73.6958 69.1205 73.591C69.3606 73.4707 69.6007 73.3505 69.8481 73.2266C70.0424 73.1138 70.0424 73.1138 70.2405 72.9987C71.8605 72.1441 73.4681 72.206 75.2595 72.2208Z" fill="#C54707"/>
<path d="M123.343 72.5539C124.485 73.6628 124.954 75.4099 125.512 76.8701C127.529 81.99 130.202 86.8159 133.879 90.9398C133.977 91.0504 134.076 91.1609 134.177 91.2748C134.888 92.0703 135.611 92.853 136.342 93.6305C136.48 93.7782 136.618 93.9259 136.76 94.078C139.997 97.4369 146.852 103.228 151.767 103.522C151.923 103.52 152.079 103.519 152.24 103.518C152.494 103.517 152.494 103.517 152.754 103.516C152.93 103.514 153.106 103.512 153.287 103.51C153.554 103.509 153.554 103.509 153.828 103.507C154.268 103.504 154.708 103.5 155.148 103.496C154.916 105.169 153.748 106.381 152.461 107.406C150.811 108.542 149.039 108.614 147.088 108.429C144.061 107.682 141.276 105.861 138.735 104.113C138.451 103.918 138.451 103.918 138.163 103.72C136.836 102.801 135.563 101.842 134.327 100.805C134.126 100.645 133.925 100.485 133.717 100.319C131.607 98.6303 129.849 96.8561 128.27 94.6622C127.866 94.0902 127.866 94.0902 127.441 93.6918C127.163 93.4063 127.163 93.4063 127.163 92.9578C127.015 92.9578 126.867 92.9578 126.715 92.9578C126.451 92.5525 126.207 92.134 125.973 91.7106C125.547 90.9414 125.113 90.2062 124.592 89.4991C124.013 88.7032 123.574 87.8725 123.147 86.988C123.071 86.8328 122.995 86.6776 122.916 86.5177C122.688 86.0495 122.462 85.5802 122.237 85.1102C122.171 84.9715 122.105 84.8328 122.036 84.69C120.222 80.8738 120.222 80.8738 120.222 79.7289C120.055 78.529 119.837 77.3751 119.411 76.2395C119.037 75.1672 118.893 74.1277 119.103 73.0023C120.047 71.8938 122.071 72.1203 123.343 72.5539Z" fill="#F88403"/>
<path d="M126.899 72.2703C127.217 72.2694 127.217 72.2694 127.542 72.2686C127.763 72.2703 127.984 72.272 128.212 72.2738C128.429 72.2721 128.646 72.2703 128.869 72.2686C131.802 72.2765 131.802 72.2765 132.957 73.0665C133.292 73.5804 133.451 74.0826 133.627 74.6701C136.197 82.7298 141.525 89.6241 149.096 93.5501C149.471 93.7411 149.847 93.9315 150.222 94.1211C151.728 94.886 153.001 95.6108 154.028 96.9939C154.142 97.1465 154.255 97.2991 154.372 97.4564C155.463 99.0633 155.477 100.699 155.372 102.599C155.298 102.747 155.224 102.895 155.148 103.048C151.716 103.425 149.371 102.506 146.416 100.806C146.226 100.697 146.037 100.587 145.841 100.475C143.713 99.231 141.743 97.8684 139.904 96.2258C139.288 95.6804 138.654 95.1741 138.007 94.6677C132.287 89.9752 126.43 81.4554 124.924 74.1236C124.972 73.401 124.972 73.401 125.148 72.7783C125.869 72.297 126.068 72.2725 126.899 72.2703Z" fill="#FCA809"/>
<path d="M73.3891 21.9787C73.7758 21.9738 73.7758 21.9738 74.1704 21.9688C74.4127 21.9717 74.655 21.9747 74.9046 21.9778C75.2309 21.9814 75.2309 21.9814 75.5639 21.9852C76.1176 22.1048 76.1176 22.1048 76.5129 22.5091C76.9157 23.2271 77.093 23.9864 77.279 24.7814C77.3187 24.9391 77.3583 25.0967 77.3992 25.2592C77.6007 26.0905 77.7333 26.8544 77.6848 27.7102C77.5739 27.4883 77.5739 27.4883 77.4609 27.2618C74.3274 26.2348 70.8082 26.5988 67.834 27.9345C67.2345 28.3225 66.7062 28.7208 66.1776 29.2001C65.8191 29.504 65.8191 29.504 65.3713 29.504C65.3087 29.6335 65.2461 29.763 65.1816 29.8964C64.9236 30.4009 64.9236 30.4009 64.6586 30.8353C62.9506 33.6489 62.725 36.8245 63.4543 40.0002C64.2912 43.2413 66.1421 46.0377 68.2818 48.5626C68.4728 48.788 68.6639 49.0135 68.8607 49.2458C71.8205 52.6431 75.549 55.5625 79.4758 57.7556C79.4019 57.9775 79.328 58.1995 79.2519 58.4282C78.3564 58.4413 77.4609 58.4492 76.5654 58.4562C76.3134 58.46 76.0615 58.4638 75.8019 58.4676C72.6716 58.486 70.7792 57.6456 68.5476 55.4853C68.3906 55.3351 68.2336 55.1848 68.0718 55.03C67.7595 54.7303 67.4479 54.4299 67.1371 54.1286C66.7814 53.7842 66.423 53.443 66.0631 53.103C61.4978 48.6975 58.5221 43.0707 58.1914 36.658C58.219 35.125 58.5224 33.681 58.8788 32.1946C58.9519 31.8751 58.9519 31.8751 59.0266 31.5491C59.7465 28.7902 61.6672 26.142 64.063 24.5878C64.1992 24.5083 64.3355 24.4289 64.4758 24.347C64.6305 24.2559 64.7852 24.1649 64.9446 24.0711C65.5239 23.7568 66.1096 23.4874 66.7146 23.2259C66.9573 23.1204 67.2 23.0149 67.4501 22.9062C69.4324 22.1651 71.2743 21.9945 73.3891 21.9787Z" fill="#EC6902"/>
<path d="M117.087 72.7783C117.493 72.8904 117.493 72.8904 117.982 73.2268C118.499 74.4705 118.89 75.7432 119.256 77.0385C119.306 77.2078 119.356 77.3772 119.408 77.5517C119.766 78.819 120.108 80.1431 119.519 81.388C119.347 81.6073 119.347 81.6073 119.172 81.8312C117.899 83.5872 117.143 85.4638 116.444 87.5111C116.301 87.9294 116.152 88.3463 115.988 88.7565C115.149 90.9038 115.079 93.3923 115.042 95.6749C114.961 100.6 114.961 100.6 113.065 102.62C111.591 104.005 110.417 104.473 108.399 104.417C108.237 104.409 108.075 104.401 107.908 104.393C105.709 97.727 107.297 89.2634 110.37 83.0924C110.456 82.9203 110.541 82.7481 110.629 82.5708C112.392 79.0471 114.276 75.5937 117.087 72.7783Z" fill="#FCA809"/>
<path d="M111.434 72.0638C111.815 72.064 111.815 72.064 112.204 72.0642C114.082 72.0742 114.082 72.0742 114.848 72.33C115.156 72.8205 115.156 72.8205 115.296 73.4511C114.925 74.3203 114.448 75.0774 113.905 75.8481C111.382 79.4448 109.489 83.4052 108.131 87.5769C108.043 87.8344 107.954 88.092 107.862 88.3573C106.772 91.7659 106.508 95.3828 106.494 98.942C106.492 99.295 106.492 99.295 106.491 99.6552C106.505 101.27 106.704 102.809 107.012 104.393C105.572 104.618 104.735 104.077 103.56 103.264C101.62 101.785 100.806 99.8188 100.451 97.4285C99.9347 92.3337 101.247 85.9924 103.206 81.2988C103.295 81.0811 103.384 80.8635 103.476 80.6393C103.742 80.027 104.029 79.4304 104.325 78.8324C104.466 78.5431 104.606 78.2537 104.746 77.9644C105.577 76.2626 106.445 74.6041 107.46 73.0027C107.312 72.8547 107.164 72.7067 107.012 72.5542C108.48 72.0166 109.883 72.0468 111.434 72.0638Z" fill="#F88403"/>
<path d="M63.356 63.1367C64.0915 63.7545 64.812 64.3679 65.4828 65.0566C65.9081 65.4718 66.3161 65.8438 66.7841 66.2057C66.8987 66.2944 67.0133 66.3832 67.1313 66.4746C68.8641 67.3788 70.7909 67.236 72.6893 67.2296C73.0248 67.2301 73.3603 67.2308 73.6958 67.2317C74.6149 67.2336 75.534 67.2327 76.4531 67.2313C77.4454 67.2303 78.4376 67.2318 79.4299 67.2331C81.3727 67.2351 83.3155 67.2346 85.2583 67.2333C86.8373 67.2323 88.4164 67.2322 89.9954 67.2327C90.3326 67.2328 90.3326 67.2328 90.6766 67.2329C91.1333 67.233 91.5899 67.2332 92.0466 67.2333C96.3281 67.2346 100.61 67.2331 104.891 67.2307C108.564 67.2287 112.238 67.2291 115.911 67.2311C120.177 67.2335 124.443 67.2345 128.71 67.2331C129.165 67.2329 129.62 67.2328 130.075 67.2327C130.299 67.2326 130.522 67.2325 130.753 67.2325C132.33 67.2321 133.907 67.2327 135.484 67.2338C137.406 67.235 139.328 67.2347 141.25 67.2323C142.231 67.2311 143.211 67.2307 144.192 67.2321C145.09 67.2335 145.988 67.2327 146.885 67.2304C147.21 67.2299 147.534 67.2301 147.859 67.2312C150.596 67.2397 153.016 67.0534 155.051 65.0312C155.544 64.4841 156.023 63.9304 156.49 63.3609C156.712 63.5089 156.934 63.6569 157.162 63.8094C157.014 64.1053 156.866 64.4013 156.714 64.7063C156.566 64.7063 156.419 64.7063 156.266 64.7063C156.183 64.9039 156.183 64.9039 156.098 65.1056C155.198 66.7065 153.247 67.5508 151.565 68.0695C150.717 68.2713 149.931 68.3222 149.06 68.3232C148.78 68.3241 148.499 68.3249 148.21 68.3258C147.899 68.3257 147.588 68.3255 147.278 68.3252C146.947 68.3258 146.617 68.3265 146.286 68.3273C145.377 68.3291 144.469 68.3295 143.56 68.3296C142.58 68.33 141.6 68.3317 140.62 68.3333C138.477 68.3363 136.334 68.3376 134.191 68.3386C132.852 68.3393 131.514 68.3402 130.175 68.3412C126.468 68.3439 122.762 68.3463 119.055 68.347C118.699 68.3471 118.699 68.3471 118.336 68.3472C118.098 68.3472 117.86 68.3473 117.615 68.3473C117.133 68.3474 116.651 68.3475 116.17 68.3476C115.931 68.3477 115.691 68.3477 115.445 68.3478C111.574 68.3487 107.702 68.3526 103.831 68.3578C99.8547 68.3631 95.8787 68.3659 91.9027 68.3662C89.6708 68.3664 87.4389 68.3676 85.207 68.3717C83.3061 68.3752 81.4052 68.3763 79.5044 68.3745C78.5351 68.3736 77.5658 68.3738 76.5965 68.377C75.7077 68.3798 74.8191 68.3795 73.9303 68.3768C73.6102 68.3764 73.29 68.3771 72.9698 68.379C69.9008 68.3966 67.3812 67.98 64.9231 66.0516C64.4932 65.623 64.1649 65.1995 63.8037 64.7063C63.5092 64.4033 63.2123 64.1026 62.9082 63.8094C63.056 63.5874 63.2037 63.3654 63.356 63.1367Z" fill="#FCA809"/>
<path d="M107.237 139.596C107.459 139.744 107.681 139.892 107.909 140.044C107.99 140.677 107.99 140.677 107.985 141.495C107.986 141.718 107.986 141.718 107.986 141.946C107.985 142.438 107.98 142.931 107.975 143.423C107.973 143.764 107.973 144.106 107.972 144.447C107.969 145.345 107.963 146.244 107.955 147.143C107.948 148.06 107.945 148.976 107.942 149.893C107.935 151.692 107.923 153.492 107.909 155.291C106.829 155.291 106.209 154.672 105.446 153.946C103.355 151.342 103.197 148.663 103.494 145.42C103.887 142.743 105.188 141.281 107.237 139.596Z" fill="#D25801"/>
<path d="M115.745 177.488C117.069 178.027 117.752 179.196 118.432 180.403C119.526 183.305 119.887 186.682 118.78 189.632C118.119 190.84 117.176 191.78 116.193 192.735C115.971 192.587 115.75 192.439 115.521 192.287C115.439 191.681 115.439 191.681 115.441 190.901C115.441 190.61 115.44 190.319 115.439 190.02C115.442 189.701 115.445 189.382 115.448 189.063C115.449 188.737 115.449 188.412 115.449 188.086C115.45 187.403 115.453 186.721 115.458 186.038C115.465 185.162 115.467 184.285 115.468 183.408C115.469 182.736 115.471 182.064 115.474 181.392C115.475 181.068 115.476 180.745 115.477 180.422C115.479 179.971 115.482 179.52 115.485 179.069C115.487 178.812 115.488 178.555 115.49 178.29C115.521 177.712 115.521 177.712 115.745 177.488Z" fill="#CD5801"/>
<path d="M120.222 160.672C121.558 160.781 122.577 161.363 123.734 161.989C123.925 162.089 124.116 162.19 124.313 162.293C125.148 162.738 125.832 163.127 126.491 163.811C126.812 163.976 127.139 164.129 127.47 164.273C130.256 165.628 132.687 167.855 134.484 170.361C134.787 170.792 134.787 170.792 135.222 171.28C136.144 172.521 137.14 173.872 137.013 175.47C136.527 174.74 136.102 173.992 135.67 173.228C135.596 173.45 135.522 173.672 135.446 173.901C135.298 173.679 135.15 173.457 134.998 173.228C134.666 173.117 134.666 173.117 134.326 173.004C133.957 172.531 133.957 172.531 133.571 171.939C132.987 171.077 132.406 170.351 131.64 169.641C131.392 169.389 131.145 169.137 130.898 168.884C127.957 165.964 124.34 163.489 120.446 162.017C120.446 161.869 120.446 161.721 120.446 161.569C120.298 161.495 120.15 161.421 119.998 161.345C120.22 161.271 120.441 161.197 120.67 161.12C120.522 160.972 120.374 160.824 120.222 160.672Z" fill="#D25801"/>
<path d="M83.2813 193.856C83.5029 194.189 83.5029 194.189 83.7291 194.529C83.8029 194.603 83.8768 194.677 83.9529 194.753C83.9529 194.457 83.9529 194.161 83.9529 193.856C84.1007 193.856 84.2485 193.856 84.4007 193.856C84.5069 194.092 84.6131 194.328 84.7225 194.571C85.2543 195.65 85.938 196.608 86.6399 197.58C87.3111 198.52 87.3111 198.52 87.3111 199.013C87.4497 199.069 87.5882 199.124 87.7309 199.182C88.297 199.515 88.3675 199.784 88.6544 200.359C88.9527 200.509 89.2512 200.658 89.5499 200.807C89.7888 201.025 90.0215 201.25 90.2496 201.48C92.3872 203.39 95.2173 204.621 97.8445 205.705C98.467 205.963 98.9189 206.154 99.4007 206.637C99.4007 206.859 99.4007 207.081 99.4007 207.31C99.7701 207.384 100.14 207.458 100.52 207.534C100.409 207.756 100.409 207.756 100.296 207.982C98.5325 207.898 97.1951 207.361 95.6087 206.609C95.3803 206.505 95.1519 206.402 94.9165 206.295C92.753 205.289 90.4863 203.956 88.8783 202.153C88.7419 201.679 88.7419 201.679 88.6544 201.256C88.1792 200.833 87.6744 200.533 87.1266 200.209C86.3099 199.608 85.8307 198.989 85.2682 198.159C85.175 198.026 85.0818 197.894 84.9858 197.757C83.1321 195.089 83.1321 195.089 83.2813 193.856Z" fill="#D25801"/>
<path d="M87.4172 179.374C88.9491 179.481 90.4766 179.537 92.012 179.562C92.2214 179.565 92.4308 179.569 92.6465 179.573C93.5107 179.588 94.375 179.602 95.2393 179.613C95.88 179.622 96.5206 179.634 97.1612 179.646C97.3576 179.648 97.5539 179.649 97.7562 179.651C99.1262 179.68 99.1262 179.68 99.6248 180.179C98.6994 180.845 98.049 180.934 96.9192 180.928C96.764 180.928 96.6088 180.928 96.4488 180.928C95.9388 180.928 95.4289 180.923 94.9189 180.917C94.5642 180.916 94.2094 180.915 93.8546 180.914C92.923 180.912 91.9915 180.905 91.06 180.898C90.1085 180.891 89.157 180.888 88.2056 180.885C86.3403 180.877 84.4751 180.866 82.6099 180.852C82.6838 180.704 82.7576 180.556 82.8338 180.403C82.6121 180.255 82.3905 180.107 82.1621 179.955C82.5072 179.884 82.8524 179.814 83.1976 179.745C83.4859 179.686 83.4859 179.686 83.78 179.626C83.9849 179.587 84.1898 179.547 84.4009 179.506C84.7008 179.444 84.7008 179.444 85.0068 179.381C85.8381 179.27 86.5809 179.31 87.4172 179.374Z" fill="#D35801"/>
<path d="M116.864 141.613C118.797 143.493 119.553 146.138 119.771 148.794C119.777 149.485 119.681 150.127 119.551 150.806C119.403 150.806 119.255 150.806 119.103 150.806C119.251 151.102 119.399 151.398 119.551 151.703C118.888 151.566 118.57 151.422 117.984 151.03C117.762 151.178 117.541 151.326 117.312 151.479C117.321 151.229 117.331 150.979 117.34 150.722C117.404 149.9 117.404 149.9 116.864 149.461C116.825 148.866 116.813 148.295 116.821 147.7C116.821 147.527 116.822 147.353 116.823 147.175C116.825 146.619 116.831 146.064 116.836 145.509C116.839 145.133 116.841 144.757 116.843 144.381C116.848 143.458 116.855 142.536 116.864 141.613Z" fill="#D35801"/>
<path d="M107.237 113.138C107.458 113.212 107.68 113.286 107.908 113.362C107.908 117.062 107.908 120.761 107.908 124.573C107.156 124.95 106.829 125.085 106.044 125.163C105.865 125.182 105.686 125.201 105.502 125.22C105.317 125.238 105.132 125.255 104.942 125.274C104.754 125.293 104.566 125.312 104.372 125.332C103.909 125.38 103.446 125.425 102.983 125.47C102.983 125.248 102.983 125.026 102.983 124.797C102.835 124.723 102.687 124.649 102.535 124.573C105.115 123.369 105.115 123.369 106.341 123.003C106.117 123.676 106.117 123.676 105.669 123.9C105.965 123.9 106.261 123.9 106.565 123.9C106.833 123.682 106.833 123.682 106.813 123.279C106.811 123.106 106.809 122.934 106.807 122.756C106.806 122.56 106.804 122.365 106.803 122.164C106.8 121.951 106.798 121.739 106.795 121.52C106.792 121.074 106.789 120.628 106.787 120.182C106.781 119.476 106.775 118.77 106.767 118.064C106.761 117.385 106.757 116.705 106.753 116.026C106.75 115.815 106.747 115.603 106.744 115.385C106.743 115.188 106.742 114.991 106.742 114.789C106.74 114.616 106.738 114.443 106.737 114.264C106.789 113.81 106.789 113.81 107.237 113.138Z" fill="#D35801"/>
<path d="M88.8785 132.196C89.174 132.344 89.4695 132.492 89.774 132.645C89.4267 133.38 89.012 134.05 88.5707 134.733C87.5893 136.25 86.7663 137.703 86.15 139.399C86.0918 139.554 86.0336 139.709 85.9737 139.868C85.6777 140.669 85.4485 141.446 85.2964 142.286C85.2225 142.434 85.1486 142.582 85.0725 142.735C84.7031 142.661 84.3337 142.587 83.9531 142.51C84.205 138.664 86.1775 134.901 88.8785 132.196Z" fill="#D25801"/>
<path d="M117.311 179.73C118.037 179.956 118.203 180.171 118.571 180.852C119.727 183.946 119.715 187.236 118.431 190.269C118.209 190.269 117.988 190.269 117.759 190.269C117.611 190.417 117.464 190.565 117.311 190.717C117.068 189.82 117.13 189.284 117.409 188.405C117.997 186.21 118.096 183.854 117.222 181.727C116.998 181.014 117.144 180.448 117.311 179.73Z" fill="#D25801"/>
<path d="M138.804 146.771C139.353 146.99 139.648 147.141 139.98 147.639C140.148 148.116 140.148 148.116 140.148 149.013C140 149.013 139.852 149.013 139.7 149.013C139.818 149.193 139.818 149.193 139.938 149.377C140.221 150.095 140.124 150.516 139.924 151.255C139.658 151.787 139.658 151.787 139.252 152.152C138.338 152.266 138.014 152.222 137.237 151.703C136.573 151.649 135.927 151.62 135.262 151.61C135.069 151.606 134.876 151.602 134.677 151.597C134.061 151.584 133.445 151.574 132.83 151.563C132.412 151.555 131.994 151.546 131.577 151.537C130.553 151.515 129.53 151.497 128.506 151.479C128.506 151.405 128.506 151.331 128.506 151.255C128.788 151.256 129.071 151.257 129.362 151.258C130.407 151.262 131.453 151.265 132.499 151.267C132.952 151.268 133.405 151.27 133.858 151.272C134.508 151.275 135.158 151.276 135.808 151.277C136.113 151.279 136.113 151.279 136.424 151.28C136.707 151.28 136.707 151.28 136.995 151.28C137.161 151.281 137.327 151.281 137.498 151.282C137.931 151.28 137.931 151.28 138.357 151.031C138.351 150.809 138.346 150.588 138.341 150.36C138.337 150.072 138.333 149.785 138.329 149.489C138.323 149.203 138.318 148.917 138.313 148.622C138.357 147.892 138.357 147.892 138.804 147.443C138.804 147.221 138.804 146.999 138.804 146.771Z" fill="#D35801"/>
<path d="M80.5951 181.3C80.7429 181.596 80.8906 181.892 81.0429 182.197C80.969 182.197 80.8951 182.197 80.819 182.197C80.763 182.739 80.763 182.739 80.819 183.318C81.0406 183.466 81.2623 183.614 81.4906 183.767C81.6384 183.693 81.7862 183.619 81.9384 183.542C81.9681 183.832 81.9979 184.121 82.0285 184.419C82.0684 184.804 82.1083 185.189 82.1483 185.574C82.1678 185.765 82.1873 185.955 82.2073 186.15C82.3195 187.228 82.4489 188.3 82.6101 189.372C82.5362 189.224 82.4623 189.076 82.3862 188.924C82.1645 188.85 81.9429 188.776 81.7145 188.7C81.7818 188.918 81.849 189.137 81.9183 189.363C82.0044 189.651 82.0904 189.939 82.1763 190.227C82.2209 190.371 82.2655 190.515 82.3114 190.664C82.6354 191.762 82.6354 191.762 82.3862 192.511C81.1412 190.206 80.7607 187.532 80.4596 184.956C80.4015 184.469 80.3269 183.983 80.2348 183.5C80.1208 182.679 80.3313 182.077 80.5951 181.3Z" fill="#D35801"/>
<path d="M116.192 91.1641C116.34 91.2381 116.487 91.312 116.64 91.3883C116.651 92.2979 116.659 93.2075 116.664 94.1171C116.666 94.4264 116.669 94.7356 116.673 95.0449C116.679 95.4901 116.681 95.9354 116.683 96.3807C116.686 96.6484 116.688 96.9161 116.69 97.1919C116.642 97.8588 116.541 98.2277 116.192 98.7875C115.744 98.5633 115.744 98.5633 115.52 98.3391C115.406 98.2584 115.292 98.1778 115.175 98.0947C114.676 97.4403 114.76 96.7589 114.779 95.9708C114.778 95.8171 114.777 95.6635 114.776 95.5052C114.789 94.3631 114.789 94.3631 115.296 93.8547C115.444 94.0027 115.592 94.1507 115.744 94.3031C115.892 93.2672 116.04 92.2313 116.192 91.1641Z" fill="#D45802"/>
<path d="M88.8789 161.793C89.4027 162.298 89.8525 162.793 90.2922 163.377C90.8703 164.009 91.2206 164.201 92.0036 164.489C93.0099 164.971 93.8948 165.735 94.6998 166.502C94.7737 166.724 94.8476 166.946 94.9237 167.174C94.6282 167.174 94.3326 167.174 94.0282 167.174C94.2498 167.396 94.4714 167.618 94.6998 167.847C93.2322 167.453 92.1647 166.681 91.1177 165.605C90.9192 165.415 90.7206 165.225 90.516 165.03C89.9983 164.484 89.9983 164.484 89.9983 164.035C89.8505 163.887 89.7028 163.739 89.5505 163.587C89.3289 163.587 89.1073 163.587 88.8789 163.587C88.8789 162.995 88.8789 162.403 88.8789 161.793Z" fill="#D25801"/>
<path d="M130.745 202.825C130.819 203.195 130.892 203.565 130.969 203.946C126.881 207.008 126.881 207.008 124.924 206.861C125.576 206.426 126.235 206.085 126.939 205.74C126.717 205.666 126.495 205.592 126.267 205.516C126.538 204.701 126.703 204.671 127.442 204.297C128.079 203.964 128.568 203.67 129.122 203.204C129.714 202.758 130.021 202.742 130.745 202.825Z" fill="#D25801"/>
<path d="M116.864 141.613C118.404 143.107 118.817 144.46 119.103 146.546C118.882 146.546 118.66 146.546 118.432 146.546C118.284 146.398 118.136 146.25 117.984 146.098C117.456 146.627 117.426 146.945 117.312 147.667C117.238 147.667 117.164 147.667 117.088 147.667C116.86 146.356 116.838 145.087 116.85 143.757C116.851 143.551 116.852 143.344 116.853 143.131C116.856 142.625 116.86 142.119 116.864 141.613Z" fill="#CD5801"/>
<path d="M83.9531 152.824C84.1748 153.157 84.1748 153.157 84.4009 153.497C84.4748 153.275 84.5486 153.053 84.6248 152.824C84.7725 152.824 84.9203 152.824 85.0725 152.824C85.1132 152.963 85.1539 153.101 85.1958 153.244C85.5779 154.533 85.9847 155.811 86.4158 157.084C86.6397 157.757 86.6397 157.757 86.8636 158.43C86.4942 158.504 86.1248 158.578 85.7442 158.654C84.5995 156.83 84.0461 154.972 83.9531 152.824Z" fill="#D15801"/>
<path d="M83.2814 145.201C83.4292 145.275 83.577 145.349 83.7292 145.425C83.7292 145.647 83.7292 145.869 83.7292 146.098C84.0247 145.876 84.3202 145.654 84.6247 145.425C84.6247 146.831 84.6247 148.237 84.6247 149.686C84.477 149.686 84.3292 149.686 84.177 149.686C84.177 149.908 84.177 150.129 84.177 150.358C84.1031 150.432 84.0292 150.506 83.9531 150.582C83.0855 150.162 83.0855 150.162 82.8337 149.91C82.7778 149.206 82.7922 148.499 82.7917 147.794C82.789 147.595 82.7862 147.397 82.7834 147.192C82.783 147.003 82.7825 146.813 82.7821 146.617C82.7812 146.443 82.7802 146.268 82.7793 146.088C82.8337 145.65 82.8337 145.65 83.2814 145.201Z" fill="#D35801"/>
<path d="M102.76 188.475C103.614 188.6 103.983 188.961 104.565 189.582C105.074 190.122 105.496 190.526 106.118 190.942C106.044 191.311 105.97 191.681 105.894 192.063C105.509 192.217 105.509 192.217 104.998 192.287C103.631 191.554 102.738 190.535 102.088 189.148C102.461 189.148 102.834 189.148 103.207 189.148C103.06 188.926 102.912 188.704 102.76 188.475Z" fill="#D35801"/>
<path d="M136.171 196.257C136.375 196.279 136.579 196.301 136.79 196.323C136.66 197.209 136.39 197.832 135.922 198.593C135.807 198.783 135.693 198.974 135.574 199.17C135.264 199.626 134.956 199.987 134.551 200.359C134.329 200.285 134.108 200.211 133.879 200.135C133.953 200.061 134.027 199.987 134.103 199.911C133.882 199.837 133.66 199.763 133.432 199.686C133.74 198.847 134.116 198.121 134.607 197.374C134.796 197.077 134.796 197.077 134.988 196.774C135.447 196.323 135.447 196.323 136.171 196.257Z" fill="#D15801"/>
<path d="M118.417 207.492C118.65 207.488 118.883 207.485 119.123 207.482C119.771 207.533 120.12 207.651 120.67 207.982C120.818 208.056 120.965 208.13 121.118 208.206C119.994 208.968 118.674 209.622 117.298 209.482C117.154 209.431 117.011 209.38 116.864 209.327C116.738 208.893 116.738 208.893 116.64 208.43C116.714 208.356 116.788 208.282 116.864 208.206C116.716 208.058 116.568 207.91 116.416 207.758C117.131 207.519 117.666 207.496 118.417 207.492Z" fill="#D35801"/>
<path d="M107.237 113.138C107.458 113.212 107.68 113.286 107.908 113.362C107.908 115.36 107.908 117.357 107.908 119.416C107.76 119.416 107.613 119.416 107.46 119.416C107.46 120.452 107.46 121.488 107.46 122.555C107.387 122.555 107.313 122.555 107.237 122.555C107.231 122.345 107.225 122.136 107.22 121.92C107.198 121.146 107.176 120.372 107.153 119.598C107.143 119.262 107.134 118.926 107.125 118.591C107.112 118.109 107.098 117.628 107.083 117.146C107.075 116.856 107.067 116.566 107.059 116.268C107.087 115.63 107.087 115.63 106.789 115.38C106.708 113.931 106.708 113.931 107.237 113.138Z" fill="#D05801"/>
<path d="M108.804 104.393C108.804 104.541 108.804 104.689 108.804 104.842C109.099 104.916 109.395 104.99 109.699 105.066C109.699 105.14 109.699 105.214 109.699 105.29C109.921 105.364 110.142 105.438 110.371 105.514C109.281 106.242 108.084 106.339 106.789 106.187C106.005 105.851 106.005 105.851 105.445 105.514C105.667 105.44 105.889 105.366 106.117 105.29C106.191 105.216 106.265 105.142 106.341 105.066C106.341 104.844 106.341 104.622 106.341 104.393C107.248 104.09 107.861 104.254 108.804 104.393Z" fill="#D45802"/>
<path d="M104.703 207.52C104.926 207.522 105.148 207.524 105.378 207.526C105.633 207.53 105.633 207.53 105.893 207.534C105.92 207.673 105.948 207.811 105.977 207.954C106.088 208.474 106.088 208.474 106.564 208.879C106.49 209.027 106.417 209.175 106.34 209.328C104.748 209.429 103.718 209.177 102.311 208.431C102.758 208.207 102.758 208.207 103.43 208.207C103.208 208.059 102.987 207.911 102.758 207.758C103.463 207.523 103.965 207.511 104.703 207.52Z" fill="#D35801"/>
<path d="M133.655 132.869C134.507 133.204 134.885 133.681 135.404 134.425C135.544 134.621 135.684 134.817 135.828 135.019C135.923 135.198 136.019 135.376 136.117 135.56C136.043 135.782 135.969 136.004 135.893 136.232C135.746 136.084 135.598 135.936 135.446 135.784C135.446 136.006 135.446 136.228 135.446 136.457C135.298 136.457 135.15 136.457 134.998 136.457C134.648 136.077 134.314 135.682 133.99 135.279C133.813 135.061 133.635 134.842 133.452 134.617C133.075 134.114 132.786 133.666 132.535 133.093C133.089 133.204 133.089 133.204 133.655 133.318C133.655 133.17 133.655 133.022 133.655 132.869Z" fill="#D35801"/>
<path d="M128.953 95.2002C129.872 95.4632 130.288 95.8583 130.865 96.6077C131.379 97.2146 131.982 97.7097 132.587 98.2236C132.983 98.5635 132.983 98.5635 133.431 99.0119C133.347 99.4884 133.347 99.4884 133.207 99.9088C131.686 98.5926 130.196 97.2386 128.953 95.6486C128.953 95.5006 128.953 95.3527 128.953 95.2002Z" fill="#FB7903"/>
<path d="M116.865 123.676C117.008 123.708 117.151 123.741 117.298 123.774C117.951 123.908 117.951 123.908 118.491 123.933C118.67 123.945 118.849 123.958 119.033 123.97C119.205 123.978 119.377 123.987 119.554 123.995C119.999 124.124 119.999 124.124 120.283 124.582C120.337 124.727 120.391 124.872 120.447 125.021C120.225 124.947 120.003 124.873 119.775 124.797C119.701 125.019 119.627 125.241 119.551 125.47C119.149 125.412 118.748 125.351 118.348 125.287C118.124 125.254 117.901 125.22 117.671 125.185C117.088 125.021 117.088 125.021 116.641 124.348C116.715 124.126 116.788 123.904 116.865 123.676Z" fill="#D35801"/>
<path d="M93.1328 204.619C93.7239 204.767 94.3149 204.915 94.9239 205.068C94.85 204.92 94.7761 204.772 94.7 204.619C95.7652 204.752 96.7031 205.178 97.6104 205.74C97.6843 205.888 97.7582 206.036 97.8343 206.189C97.6127 206.263 97.391 206.337 97.1627 206.413C97.3012 206.441 97.4397 206.468 97.5824 206.497C98.0582 206.637 98.0582 206.637 98.5059 207.086C97.4179 206.925 96.4522 206.52 95.4416 206.105C95.2689 206.036 95.0961 205.968 94.9182 205.898C94.753 205.83 94.5877 205.763 94.4175 205.693C94.2675 205.632 94.1175 205.571 93.963 205.509C93.5806 205.292 93.5806 205.292 93.1328 204.619Z" fill="#CD5801"/>
<path d="M2.68408 185.336C3.48513 186.702 3.23817 188.369 2.90796 189.862C2.83408 190.144 2.7602 190.427 2.68408 190.717C2.53632 190.643 2.38856 190.569 2.23632 190.493C1.85797 188.837 2.02269 187.187 2.4602 185.56C2.53408 185.486 2.60796 185.412 2.68408 185.336Z" fill="#D45802"/>
<path d="M119.774 80.1777C120.446 80.402 120.446 80.402 120.666 80.7926C120.723 80.9504 120.78 81.1082 120.838 81.2708C120.897 81.4275 120.956 81.5841 121.016 81.7455C121.118 82.1957 121.118 82.1957 120.894 82.8684C119.896 82.6464 119.896 82.6464 118.879 82.4199C119.006 81.5324 119.284 80.9253 119.774 80.1777Z" fill="#C54708"/>
<path d="M81.2676 187.578C81.4892 187.689 81.4892 187.689 81.7153 187.802C81.7569 188.004 81.7569 188.004 81.7993 188.209C81.9037 188.736 81.9037 188.736 82.3712 189.098C82.9167 189.684 83.0426 190.112 83.2265 190.885C83.2808 191.106 83.335 191.327 83.3909 191.555C83.429 191.722 83.4671 191.89 83.5064 192.062C82.8347 192.062 82.8347 192.062 82.4733 191.782C82.1257 191.343 82.0203 191.036 81.9016 190.49C81.8634 190.321 81.8251 190.151 81.7857 189.976C81.7487 189.8 81.7116 189.623 81.6734 189.442C81.6337 189.263 81.594 189.084 81.5531 188.9C81.4557 188.46 81.3614 188.019 81.2676 187.578Z" fill="#D05801"/>
<path d="M92.3063 129.324C92.431 129.384 92.5557 129.444 92.6841 129.506C92.6841 130.403 92.6841 130.403 92.3081 130.834C92.1459 130.969 91.9837 131.104 91.8166 131.243C91.575 131.45 91.575 131.45 91.3286 131.66C90.8931 131.972 90.8931 131.972 90.4453 131.972C90.5019 131.008 90.5909 130.504 91.1869 129.73C91.7886 129.282 91.7886 129.282 92.3063 129.324Z" fill="#D25801"/>
<path d="M114.849 75.0205C114.849 75.9097 114.524 76.2858 114.038 77.0245C113.887 77.2577 113.736 77.491 113.581 77.7313C113.002 78.4542 112.503 78.8116 111.715 79.2807C112.045 78.3594 112.493 77.5888 113.03 76.7722C113.182 76.5378 113.334 76.3034 113.49 76.0619C113.931 75.4984 114.189 75.262 114.849 75.0205Z" fill="#FC9C06"/>
<path d="M120.223 160.672C121.549 160.784 122.567 161.346 123.721 161.961C123.91 162.058 124.099 162.154 124.294 162.254C125.322 162.796 126.065 163.259 126.715 164.259C126.088 163.948 125.467 163.628 124.849 163.3C124.666 163.204 124.483 163.107 124.294 163.007C123.914 162.806 123.533 162.604 123.152 162.403C122.181 161.89 121.208 161.383 120.223 160.896C120.223 160.822 120.223 160.748 120.223 160.672Z" fill="#D45802"/>
<path d="M121.789 85.7832C124.028 88.4566 124.028 88.4566 124.028 89.3707C124.25 89.4447 124.471 89.5187 124.7 89.5949C124.7 90.2676 124.7 90.2676 124.476 90.716C123.752 89.8576 123.18 88.9697 122.629 87.9974C122.507 87.7888 122.507 87.7888 122.382 87.5761C122.014 86.9318 121.789 86.5378 121.789 85.7832Z" fill="#D45802"/>
<path d="M81.4912 181.3C82.0395 182.124 82.0096 182.57 81.939 183.542C81.7912 183.69 81.6435 183.838 81.4912 183.991C81.2696 183.991 81.0479 183.991 80.8196 183.991C80.7457 183.325 80.6718 182.659 80.5957 181.973C80.8173 182.047 81.039 182.121 81.2673 182.197C81.3412 181.901 81.4151 181.605 81.4912 181.3Z" fill="#D05801"/>
<path d="M89.998 164.484C91.6997 165.27 93.3998 166.489 94.6995 167.847C93.2346 167.454 92.1606 166.683 91.1174 165.605C90.9189 165.406 90.7203 165.207 90.5158 165.002C90.3449 164.831 90.1741 164.66 89.998 164.484Z" fill="#D45802"/>
<path d="M121.788 124.797C122.446 124.853 122.446 124.853 123.132 125.021C123.579 125.694 123.579 125.694 123.579 126.366C123.136 126.366 122.693 126.366 122.236 126.366C122.236 126.218 122.236 126.07 122.236 125.918C122.088 125.844 121.941 125.77 121.788 125.694C121.862 125.62 121.936 125.546 122.012 125.47C121.864 125.322 121.717 125.174 121.564 125.021C121.638 124.947 121.712 124.873 121.788 124.797Z" fill="#D35801"/>
<path d="M136.788 139.371C137.487 139.936 137.672 140.207 137.852 141.109C137.87 141.349 137.889 141.59 137.908 141.838C137.612 141.764 137.317 141.69 137.012 141.613C136.931 141.282 136.852 140.95 136.774 140.618C136.73 140.434 136.686 140.249 136.641 140.059C136.603 139.829 136.603 139.829 136.564 139.595C136.638 139.521 136.712 139.447 136.788 139.371Z" fill="#D25801"/>
<path d="M136.565 196.323C136.723 196.693 136.723 196.693 136.789 197.22C136.492 197.823 136.492 197.823 136.062 198.467C135.922 198.68 135.782 198.893 135.638 199.112C135.3 199.579 134.973 199.971 134.551 200.359C134.329 200.285 134.107 200.211 133.879 200.134C134.031 200.005 134.184 199.875 134.341 199.742C135.314 198.781 135.91 197.51 136.565 196.323Z" fill="#D45802"/>
<path d="M105.67 140.941C106.224 141.163 106.224 141.163 106.789 141.389C106.789 141.537 106.789 141.685 106.789 141.838C106.271 142.216 106.271 142.216 105.67 142.51C105.448 142.436 105.226 142.362 104.998 142.286C105.126 141.643 105.191 141.42 105.67 140.941Z" fill="#CD5801"/>
<path d="M137.686 180.627C138.119 180.782 138.119 180.782 138.581 181.076C138.969 182.047 138.677 182.806 138.357 183.767C138.283 183.767 138.209 183.767 138.133 183.767C138.058 183.412 137.983 183.057 137.909 182.701C137.868 182.504 137.826 182.306 137.783 182.102C137.686 181.524 137.686 181.524 137.686 180.627Z" fill="#D35801"/>
<path d="M127.834 128.609C128.733 128.747 129.363 129.177 130.073 129.73C130.269 130.234 130.269 130.234 130.297 130.627C130.149 130.627 130.001 130.627 129.849 130.627C129.849 130.479 129.849 130.331 129.849 130.178C129.724 130.118 129.6 130.058 129.471 129.996C128.906 129.706 128.363 129.411 127.834 129.057C127.834 128.909 127.834 128.761 127.834 128.609Z" fill="#D15801"/>
<path d="M139.028 186.906C139.476 187.354 139.476 187.354 139.532 188.209C139.515 188.98 139.376 189.572 139.028 190.269C138.88 190.269 138.732 190.269 138.58 190.269C138.728 189.159 138.876 188.049 139.028 186.906Z" fill="#D45802"/>
<path d="M212.416 70.3157L215.569 71.1743L216.598 73.6447L217.662 75.8853L219.597 80.3689L216.136 79.4262L214.791 76.3914L214.156 74.6358L212.416 70.3157ZM222.644 70.2309C222.123 72.1439 221.317 73.6726 220.226 74.817C219.141 75.963 217.879 76.7204 216.442 77.0894C215.011 77.4542 213.522 77.4259 211.974 77.0043C210.416 76.5796 209.113 75.8444 208.067 74.7988C207.02 73.7531 206.32 72.4613 205.966 70.9233C205.612 69.3854 205.695 67.6627 206.215 65.7554C206.736 63.8424 207.539 62.313 208.624 61.167C209.709 60.021 210.967 59.2656 212.397 58.9008C213.829 58.5303 215.325 58.5574 216.884 58.982C218.431 59.4036 219.728 60.1372 220.775 61.1829C221.828 62.2244 222.532 63.5141 222.886 65.0521C223.246 66.5916 223.165 68.3179 222.644 70.2309ZM218.883 69.2065C219.221 67.9674 219.32 66.8718 219.181 65.9198C219.047 64.9694 218.706 64.1833 218.158 63.5616C217.609 62.9399 216.887 62.5069 215.99 62.2627C215.094 62.0185 214.251 62.0252 213.464 62.2829C212.676 62.5406 211.98 63.0443 211.377 63.7941C210.78 64.5454 210.313 65.5406 209.975 66.7798C209.637 68.019 209.536 69.1138 209.669 70.0642C209.809 71.0162 210.153 71.803 210.701 72.4247C211.249 73.0464 211.972 73.4794 212.868 73.7236C213.765 73.9679 214.607 73.9611 215.395 73.7034C216.183 73.4457 216.875 72.9412 217.473 72.1899C218.076 71.4402 218.546 70.4457 218.883 69.2065ZM238.616 65.1598L242.325 66.1701L239.222 77.5625C238.873 78.8417 238.263 79.8777 237.391 80.6706C236.524 81.4651 235.472 81.9821 234.235 82.2218C233 82.4558 231.657 82.3752 230.206 81.9801C228.75 81.5834 227.549 80.971 226.603 80.1428C225.659 79.3089 225.014 78.3298 224.67 77.2055C224.326 76.0813 224.329 74.8796 224.677 73.6004L227.781 62.208L231.49 63.2184L228.472 74.2939C228.29 74.962 228.274 75.5955 228.424 76.1945C228.579 76.7951 228.885 77.3169 229.341 77.7601C229.797 78.2033 230.382 78.5221 231.095 78.7165C231.815 78.9125 232.481 78.9344 233.093 78.7821C233.71 78.6314 234.236 78.3359 234.668 77.8956C235.107 77.4568 235.417 76.9034 235.599 76.2352L238.616 65.1598ZM244.349 66.7214L248.503 67.8531L250.445 76.4977L250.617 76.5444L256.675 70.0792L260.829 71.2108L251.341 80.8088L249.652 87.0104L245.969 86.007L247.658 79.8054L244.349 66.7214ZM250.58 66.6799L248.557 66.1011C248.854 65.0104 249.351 64.247 250.046 63.8107C250.747 63.376 251.487 63.2616 252.265 63.4675C252.665 63.5764 252.99 63.7354 253.239 63.9445C253.496 64.1495 253.716 64.3687 253.897 64.6023C254.085 64.8373 254.266 65.0493 254.442 65.2382C254.619 65.4214 254.83 65.5465 255.076 65.6134C255.409 65.6979 255.693 65.6435 255.93 65.4504C256.174 65.253 256.349 64.9574 256.457 64.5633L258.436 65.167C258.131 66.2432 257.63 67.0022 256.933 67.4442C256.237 67.8804 255.503 67.9964 254.731 67.7921C254.302 67.6754 253.96 67.5146 253.703 67.3096C253.453 67.1005 253.242 66.8836 253.07 66.6589C252.9 66.4285 252.73 66.2196 252.56 66.0322C252.39 65.8449 252.177 65.7162 251.92 65.6462C251.623 65.5653 251.351 65.617 251.105 65.8014C250.864 65.9873 250.689 66.2801 250.58 66.6799ZM217.094 96.9875L213.342 95.9654C213.406 95.4614 213.383 94.9921 213.275 94.5577C213.168 94.1175 212.985 93.7181 212.727 93.3595C212.469 93.0009 212.142 92.6911 211.747 92.4301C211.358 92.1707 210.912 91.9725 210.409 91.8356C209.501 91.5883 208.649 91.5984 207.852 91.866C207.057 92.1278 206.357 92.6365 205.753 93.3919C205.15 94.1417 204.683 95.1247 204.351 96.3411C204.011 97.5916 203.91 98.6929 204.049 99.6449C204.195 100.598 204.545 101.384 205.101 102.002C205.656 102.619 206.377 103.048 207.262 103.29C207.758 103.425 208.236 103.484 208.694 103.468C209.158 103.454 209.59 103.366 209.99 103.205C210.391 103.038 210.75 102.801 211.067 102.495C211.389 102.19 211.657 101.815 211.87 101.37L215.617 102.41C215.301 103.188 214.846 103.899 214.254 104.541C213.669 105.179 212.971 105.704 212.16 106.115C211.356 106.521 210.459 106.774 209.469 106.872C208.487 106.966 207.433 106.86 206.308 106.554C204.743 106.128 203.441 105.392 202.4 104.348C201.365 103.306 200.674 102.016 200.326 100.48C199.983 98.9451 200.071 97.224 200.591 95.3167C201.112 93.4037 201.915 91.8742 203 90.7282C204.085 89.5823 205.34 88.8261 206.765 88.4597C208.192 88.0877 209.676 88.1116 211.217 88.5316C212.234 88.8085 213.137 89.208 213.927 89.7299C214.723 90.2535 215.384 90.8811 215.908 91.6129C216.434 92.3389 216.801 93.1535 217.009 94.0567C217.223 94.9614 217.251 95.9383 217.094 96.9875ZM216.648 109.113L221.427 91.5704L225.136 92.5807L223.164 99.8188L230.693 101.87L232.665 94.6318L236.365 95.6398L231.587 113.182L227.886 112.174L229.86 104.928L222.331 102.877L220.357 110.123L216.648 109.113ZM253.155 109.636C252.633 111.549 251.827 113.077 250.737 114.222C249.652 115.368 248.39 116.125 246.952 116.494C245.522 116.859 244.033 116.831 242.485 116.409C240.926 115.984 239.624 115.249 238.577 114.203C237.531 113.158 236.831 111.866 236.477 110.328C236.123 108.79 236.206 107.067 236.725 105.16C237.247 103.247 238.05 101.718 239.135 100.572C240.22 99.4257 241.478 98.6703 242.908 98.3055C244.34 97.935 245.836 97.962 247.395 98.3867C248.942 98.8083 250.239 99.5419 251.285 100.588C252.339 101.629 253.043 102.919 253.397 104.457C253.756 105.996 253.676 107.723 253.155 109.636ZM249.394 108.611C249.732 107.372 249.831 106.276 249.691 105.324C249.558 104.374 249.217 103.588 248.668 102.966C248.12 102.345 247.398 101.912 246.501 101.667C245.605 101.423 244.762 101.43 243.974 101.688C243.186 101.945 242.491 102.449 241.888 103.199C241.291 103.95 240.823 104.945 240.486 106.184C240.148 107.424 240.046 108.518 240.18 109.469C240.319 110.421 240.663 111.208 241.212 111.829C241.76 112.451 242.482 112.884 243.379 113.128C244.276 113.373 245.118 113.366 245.906 113.108C246.694 112.85 247.386 112.346 247.983 111.595C248.586 110.845 249.057 109.85 249.394 108.611Z" fill="white"/>
</svg>
