<svg width="263" height="145" viewBox="0 0 263 145" fill="none" xmlns="http://www.w3.org/2000/svg">
<rect width="263" height="145" fill="url(#paint0_linear_2417_8004)"/>
<rect opacity="0.3" width="65.75" height="36" fill="#EAFDFC"/>
<rect opacity="0.3" x="131.5" y="144" width="65.75" height="36" transform="rotate(180 131.5 144)" fill="#EAFDFC"/>
<rect opacity="0.3" y="36" width="65.75" height="36" fill="#EAFDFC"/>
<rect opacity="0.3" x="131.5" y="108" width="65.75" height="36" transform="rotate(180 131.5 108)" fill="#EAFDFC"/>
<rect opacity="0.3" x="65.75" width="65.75" height="36" fill="#EAFDFC"/>
<rect opacity="0.3" x="65.75" y="144" width="65.75" height="36" transform="rotate(180 65.75 144)" fill="#EAFDFC"/>
<rect opacity="0.3" width="65.75" height="36" transform="matrix(1 0 0 -1 131.5 144)" fill="#EAFDFC"/>
<rect opacity="0.3" x="65.75" y="36" width="65.75" height="36" fill="#91D8E4"/>
<rect opacity="0.3" x="65.75" y="108" width="65.75" height="36" transform="rotate(180 65.75 108)" fill="#91D8E4"/>
<rect opacity="0.3" x="131.5" width="65.75" height="36" fill="#BFEAF5"/>
<rect opacity="0.3" x="131.5" y="36" width="65.75" height="36" fill="#EAFDFC"/>
<rect opacity="0.3" x="197.25" width="65.75" height="36" fill="#EAFDFC"/>
<rect opacity="0.3" x="197.25" y="36" width="65.75" height="36" fill="#91D8E4"/>
<rect opacity="0.3" x="197.25" y="108" width="65.75" height="36" fill="#91D8E4"/>
<rect opacity="0.3" x="197.25" y="72" width="65.75" height="36" fill="#BFEAF5"/>
<path opacity="0.3" d="M65.75 36L0 0V36H65.75Z" fill="#91D8E4"/>
<path opacity="0.3" d="M65.75 108L131.5 144V108H65.75Z" fill="#91D8E4"/>
<path opacity="0.3" d="M131.5 36L197.25 0V36H131.5Z" fill="#EAFDFC"/>
<path opacity="0.3" d="M197.25 36L263 0V36H197.25Z" fill="#BFEAF5"/>
<path opacity="0.3" d="M197.25 108L263 72V108H197.25Z" fill="#EAFDFC"/>
<path opacity="0.3" d="M65.75 36L131.5 0V36H65.75Z" fill="#91D8E4"/>
<path opacity="0.3" d="M65.75 108L0 144V108H65.75Z" fill="#91D8E4"/>
<path opacity="0.3" d="M131.5 108L197.25 144V108H131.5Z" fill="#91D8E4"/>
<path opacity="0.3" d="M65.75 72L131.5 36V72H65.75Z" fill="#EAFDFC"/>
<rect opacity="0.3" x="131.5" y="72" width="65.75" height="36" fill="#91D8E4"/>
<path opacity="0.3" d="M131.5 108L197.25 72V108H131.5Z" fill="#EAFDFC"/>
<path opacity="0.3" d="M65.75 72L0 108V72H65.75Z" fill="#EAFDFC"/>
<path opacity="0.3" d="M65.75 72L0 36V72H65.75Z" fill="#BFEAF5"/>
<path opacity="0.3" d="M65.75 72L131.5 108V72H65.75Z" fill="#BFEAF5"/>
<path opacity="0.3" d="M131.5 36L197.25 72V36H131.5Z" fill="#BFEAF5"/>
<rect opacity="0.3" width="65.75" height="36" fill="#EAFDFC"/>
<rect opacity="0.3" x="131.5" y="144" width="65.75" height="36" transform="rotate(180 131.5 144)" fill="#EAFDFC"/>
<rect opacity="0.3" y="36" width="65.75" height="36" fill="#EAFDFC"/>
<rect opacity="0.3" x="131.5" y="108" width="65.75" height="36" transform="rotate(180 131.5 108)" fill="#EAFDFC"/>
<rect opacity="0.3" x="65.75" width="65.75" height="36" fill="#EAFDFC"/>
<rect opacity="0.3" x="65.75" y="144" width="65.75" height="36" transform="rotate(180 65.75 144)" fill="#EAFDFC"/>
<rect opacity="0.3" width="65.75" height="36" transform="matrix(1 0 0 -1 131.5 144)" fill="#EAFDFC"/>
<rect opacity="0.3" x="65.75" y="36" width="65.75" height="36" fill="#91D8E4"/>
<rect opacity="0.3" x="65.75" y="108" width="65.75" height="36" transform="rotate(180 65.75 108)" fill="#91D8E4"/>
<rect opacity="0.3" x="131.5" width="65.75" height="36" fill="#BFEAF5"/>
<rect opacity="0.3" x="131.5" y="36" width="65.75" height="36" fill="#EAFDFC"/>
<rect opacity="0.3" x="197.25" width="65.75" height="36" fill="#EAFDFC"/>
<rect opacity="0.3" x="197.25" y="36" width="65.75" height="36" fill="#91D8E4"/>
<rect opacity="0.3" x="197.25" y="108" width="65.75" height="36" fill="#91D8E4"/>
<rect opacity="0.3" x="197.25" y="72" width="65.75" height="36" fill="#BFEAF5"/>
<path opacity="0.3" d="M65.75 36L0 0V36H65.75Z" fill="#91D8E4"/>
<path opacity="0.3" d="M65.75 108L131.5 144V108H65.75Z" fill="#91D8E4"/>
<path opacity="0.3" d="M131.5 36L197.25 0V36H131.5Z" fill="#EAFDFC"/>
<path opacity="0.3" d="M197.25 36L263 0V36H197.25Z" fill="#BFEAF5"/>
<path opacity="0.3" d="M197.25 108L263 72V108H197.25Z" fill="#EAFDFC"/>
<path opacity="0.3" d="M65.75 36L131.5 0V36H65.75Z" fill="#91D8E4"/>
<path opacity="0.3" d="M65.75 108L0 144V108H65.75Z" fill="#91D8E4"/>
<path opacity="0.3" d="M131.5 108L197.25 144V108H131.5Z" fill="#91D8E4"/>
<path opacity="0.3" d="M65.75 72L131.5 36V72H65.75Z" fill="#EAFDFC"/>
<rect opacity="0.3" x="131.5" y="72" width="65.75" height="36" fill="#91D8E4"/>
<path opacity="0.3" d="M131.5 108L197.25 72V108H131.5Z" fill="#EAFDFC"/>
<path opacity="0.3" d="M65.75 72L0 108V72H65.75Z" fill="#EAFDFC"/>
<path opacity="0.3" d="M65.75 72L0 36V72H65.75Z" fill="#BFEAF5"/>
<path opacity="0.3" d="M65.75 72L131.5 108V72H65.75Z" fill="#BFEAF5"/>
<path opacity="0.3" d="M131.5 36L197.25 72V36H131.5Z" fill="#BFEAF5"/>
<defs>
<linearGradient id="paint0_linear_2417_8004" x1="18.936" y1="1.9321" x2="274.046" y2="118.533" gradientUnits="userSpaceOnUse">
<stop stop-color="#EAFDFC"/>
<stop offset="0.320833" stop-color="#BFEAF5"/>
<stop offset="0.701042" stop-color="#91D8E4"/>
<stop offset="1" stop-color="#82AAE3"/>
</linearGradient>
</defs>
</svg>
