<svg width="40" height="40" viewBox="0 0 40 40" fill="none" xmlns="http://www.w3.org/2000/svg">
<circle cx="20" cy="20" r="20" fill="#EAF0FF"/>
<path d="M27.3047 11.75C27.9464 11.75 28.4648 12.2778 28.4648 12.9286C28.4648 13.5794 27.9464 14.1071 27.3047 14.1071H13.9629C13.6424 14.1071 13.3828 14.3723 13.3828 14.6964C13.3828 15.0205 13.6424 15.2857 13.9629 15.2857H27.3047C28.5845 15.2857 29.625 16.3427 29.625 17.6429V25.8929C29.625 27.193 28.5845 28.25 27.3047 28.25H13.3828C12.1012 28.25 11.0625 27.193 11.0625 25.8929V14.1071C11.0625 12.8052 12.1012 11.75 13.3828 11.75H27.3047ZM26.1445 22.9464C26.7862 22.9464 27.3047 22.4198 27.3047 21.7679C27.3047 21.116 26.7862 20.5893 26.1445 20.5893C25.5028 20.5893 24.9844 21.116 24.9844 21.7679C24.9844 22.4198 25.5028 22.9464 26.1445 22.9464Z" fill="url(#paint0_linear_1782_6307)"/>
<defs>
<linearGradient id="paint0_linear_1782_6307" x1="11.0625" y1="15.1735" x2="29.6244" y2="15.2899" gradientUnits="userSpaceOnUse">
<stop stop-color="#5465FF"/>
<stop offset="1" stop-color="#04DEB7"/>
</linearGradient>
</defs>
</svg>
