<svg width="52" height="52" viewBox="0 0 52 52" fill="none" xmlns="http://www.w3.org/2000/svg">
<circle cx="26" cy="26" r="24.5" fill="#1DB054" stroke="white" stroke-width="3"/>
<path d="M32.6123 16.1752L32.5248 20.9127C32.5123 21.5627 32.9249 22.4252 33.4499 22.8127L36.5498 25.1627C38.5373 26.6627 38.2123 28.5002 35.8373 29.2502L31.7999 30.5127C31.1249 30.7252 30.4124 31.4627 30.2374 32.1502L29.2748 35.8252C28.5123 38.7252 26.6123 39.0127 25.0373 36.4627L22.8373 32.9002C22.4373 32.2502 21.4873 31.7627 20.7373 31.8002L16.5624 32.0127C13.5749 32.1627 12.7248 30.4377 14.6748 28.1627L17.1498 25.2877C17.6123 24.7502 17.8248 23.7502 17.6123 23.0752L16.3499 19.0377C15.6124 16.6627 16.9374 15.3502 19.2999 16.1252L22.9874 17.3377C23.6124 17.5377 24.5499 17.4002 25.0749 17.0127L28.9249 14.2377C30.9999 12.7377 32.6623 13.6127 32.6123 16.1752Z" fill="white"/>
<path opacity="0.4" d="M37.7999 36.5867L34.0124 32.7992C33.6499 32.4367 33.0499 32.4367 32.6874 32.7992C32.3249 33.1617 32.3249 33.7617 32.6874 34.1242L36.4749 37.9117C36.6624 38.0992 36.8999 38.1867 37.1374 38.1867C37.3749 38.1867 37.6124 38.0992 37.7999 37.9117C38.1624 37.5492 38.1624 36.9492 37.7999 36.5867Z" fill="white"/>
</svg>
