<svg width="30" height="30" viewBox="0 0 30 30" fill="none" xmlns="http://www.w3.org/2000/svg">
<g clip-path="url(#clip0_13047_15956)">
<path d="M26.2483 3.75098H22.1508C21.717 3.00723 20.9195 2.50098 19.9983 2.50098H9.99829C9.07704 2.50098 8.27954 3.00723 7.84579 3.75098H3.74829C3.05829 3.75098 2.49829 4.31098 2.49829 5.00098V10.001C2.49829 10.381 2.67079 10.7397 2.96704 10.9772L9.12704 15.9047C10.2558 17.3247 11.8858 18.3247 13.7483 18.6385V20.001H11.2483C10.5583 20.001 9.99829 20.561 9.99829 21.251V23.751H19.9983V21.251C19.9983 20.561 19.4383 20.001 18.7483 20.001H16.2483V18.6385C18.1108 18.3247 19.7408 17.326 20.8683 15.906L27.0283 10.9785C27.3258 10.7397 27.4983 10.381 27.4983 10.001V5.00098C27.4983 4.31098 26.9383 3.75098 26.2483 3.75098ZM4.99829 9.40098V6.25098H7.49829V11.251C7.49829 11.3035 7.50454 11.3547 7.50579 11.4072L4.99829 9.40098ZM24.9983 9.40098L22.4908 11.4072C22.492 11.3547 22.4983 11.3035 22.4983 11.251V6.25098H24.9983V9.40098Z" fill="#0A77DB"/>
<path opacity="0.6" d="M21.2483 25.0513H8.74829V27.5513H21.2483V25.0513Z" fill="#0A77DB"/>
</g>
<defs>
<clipPath id="clip0_13047_15956">
<rect width="30" height="30" fill="white" transform="translate(-0.00146484)"/>
</clipPath>
</defs>
</svg>
