<svg width="30" height="30" viewBox="0 0 30 30" fill="none" xmlns="http://www.w3.org/2000/svg">
<path opacity="0.6" d="M10.8975 0.46875H19.1006C19.424 0.46875 19.6865 0.748125 19.6865 1.09375V3.59375C19.6865 3.93937 19.424 4.21875 19.1006 4.21875H10.8975C10.574 4.21875 10.3115 3.93937 10.3115 3.59375V1.09375C10.3115 0.748125 10.574 0.46875 10.8975 0.46875Z" fill="#0A77DB"/>
<path d="M26.0258 3.28125H20.8026C20.8026 4.24608 20.0214 5.03125 19.0615 5.03125H10.9365C9.97661 5.03125 9.19545 4.24608 9.19545 3.28125H3.97224C3.33152 3.28125 2.81152 3.80392 2.81152 4.44792V28.3646C2.81152 29.0086 3.33152 29.5312 3.97224 29.5312H26.0258C26.6665 29.5312 27.1865 29.0086 27.1865 28.3646V4.44792C27.1865 3.80392 26.6665 3.28125 26.0258 3.28125ZM24.2847 26.6146H5.71331V6.78125H24.2847V26.6146Z" fill="#0A77DB"/>
<path d="M8.90527 12.6562C10.1997 12.6562 11.249 11.6069 11.249 10.3125C11.249 9.01808 10.1997 7.96875 8.90527 7.96875C7.61086 7.96875 6.56152 9.01808 6.56152 10.3125C6.56152 11.6069 7.61086 12.6562 8.90527 12.6562Z" fill="#0A77DB"/>
<path d="M8.90527 24.8438C10.1997 24.8438 11.249 23.7944 11.249 22.5C11.249 21.2056 10.1997 20.1562 8.90527 20.1562C7.61086 20.1562 6.56152 21.2056 6.56152 22.5C6.56152 23.7944 7.61086 24.8438 8.90527 24.8438Z" fill="#0A77DB"/>
<path d="M8.90527 18.2812C10.1997 18.2812 11.249 17.4418 11.249 16.4062C11.249 15.3707 10.1997 14.5312 8.90527 14.5312C7.61086 14.5312 6.56152 15.3707 6.56152 16.4062C6.56152 17.4418 7.61086 18.2812 8.90527 18.2812Z" fill="#0A77DB"/>
<path opacity="0.6" d="M21.5255 8.90625C22.0629 8.90625 22.499 9.53625 22.499 10.3125C22.499 11.0888 22.0629 11.7188 21.5255 11.7188H15.0351C14.497 11.7188 14.0615 11.0888 14.0615 10.3125C14.0615 9.53625 14.497 8.90625 15.0351 8.90625H21.5255Z" fill="#0A77DB"/>
<path opacity="0.6" d="M21.5255 15.4688C22.0629 15.4688 22.499 15.8887 22.499 16.4062C22.499 16.9238 22.0629 17.3438 21.5255 17.3438H15.0351C14.497 17.3438 14.0615 16.9238 14.0615 16.4062C14.0615 15.8887 14.497 15.4688 15.0351 15.4688H21.5255Z" fill="#0A77DB"/>
<path opacity="0.6" d="M21.5255 21.0938C22.0629 21.0938 22.499 21.7237 22.499 22.5C22.499 23.2763 22.0629 23.9062 21.5255 23.9062H15.0351C14.497 23.9062 14.0615 23.2763 14.0615 22.5C14.0615 21.7237 14.497 21.0938 15.0351 21.0938H21.5255Z" fill="#0A77DB"/>
</svg>
