<svg width="30" height="30" viewBox="0 0 30 30" fill="none" xmlns="http://www.w3.org/2000/svg">
<path d="M27.7887 18.2669L25.4336 16.9185C25.6714 15.6468 25.6714 14.3422 25.4336 13.0706L27.7887 11.7222C28.0596 11.5687 28.1813 11.2508 28.0928 10.9548C27.4791 9.00343 26.4343 7.23844 25.0688 5.76944C24.8587 5.54471 24.5159 5.48989 24.2506 5.64337L21.8955 6.99178C20.9059 6.14765 19.767 5.49537 18.5342 5.06783V2.3765C18.5342 2.06954 18.3186 1.80096 18.0145 1.73518C15.9856 1.28571 13.9069 1.30764 11.9775 1.73518C11.6735 1.80096 11.4578 2.06954 11.4578 2.3765V5.07331C10.2305 5.50634 9.09169 6.15861 8.09658 6.99726L5.74701 5.64885C5.47611 5.49537 5.13888 5.54471 4.9288 5.77492C3.56329 7.23844 2.51842 9.00342 1.90477 10.9603C1.81079 11.2563 1.93794 11.5742 2.20883 11.7276L4.56393 13.0761C4.32621 14.3477 4.32621 15.6523 4.56393 16.9239L2.20883 18.2724C1.93794 18.4258 1.81631 18.7437 1.90477 19.0397C2.51842 20.9911 3.56329 22.7561 4.9288 24.2251C5.13888 24.4498 5.48164 24.5046 5.74701 24.3512L8.10211 23.0027C9.09169 23.8469 10.2305 24.4991 11.4634 24.9267V27.6235C11.4634 27.9305 11.679 28.199 11.983 28.2648C14.012 28.7143 16.0906 28.6924 18.0201 28.2648C18.3241 28.199 18.5397 27.9305 18.5397 27.6235V24.9267C19.767 24.4937 20.9059 23.8414 21.901 23.0027L24.2561 24.3512C24.527 24.5046 24.8642 24.4553 25.0743 24.2251C26.4398 22.7616 27.4847 20.9966 28.0983 19.0397C28.1813 18.7383 28.0596 18.4204 27.7887 18.2669ZM14.996 19.3796C12.558 19.3796 10.5733 17.4118 10.5733 14.9945C10.5733 12.5773 12.558 10.6095 14.996 10.6095C17.434 10.6095 19.4187 12.5773 19.4187 14.9945C19.4187 17.4118 17.434 19.3796 14.996 19.3796Z" fill="#0A77DB"/>
</svg>
