<svg width="30" height="30" viewBox="0 0 30 30" fill="none" xmlns="http://www.w3.org/2000/svg">
<g clip-path="url(#clip0_13047_15820)">
<path d="M26 12.836C26 11.6456 25.0351 10.6807 23.8438 10.6807H17.2627C18.2856 8.9777 18.8134 7.0474 18.8134 6.36729C18.8125 5.30803 17.9814 4.20654 16.5889 4.20654C13.7529 4.20654 15.4047 7.62734 11.7283 10.5675L10.9961 11.1515C10.466 11.5782 10.1965 12.2026 10.192 12.8315L10.1875 20.019C10.1875 20.6974 10.507 21.3366 11.05 21.7436L12.5836 22.8931C13.8262 23.8284 15.34 24.3315 16.8943 24.3315H19.5312C20.7226 24.3315 21.6875 23.3671 21.6875 22.1762C21.6875 22.0129 21.6659 21.8553 21.6315 21.7023C22.4961 21.4206 23.125 20.621 23.125 19.6597C23.125 19.2487 23.0038 18.8686 22.8043 18.542C23.8033 18.3569 24.5625 17.481 24.5625 16.4298C24.5625 15.8683 24.3427 15.3615 23.9911 14.9779C25.1105 14.9024 26 13.9771 26 12.836Z" fill="#0A77DB"/>
<path opacity="0.5" d="M8.75 12.7911V22.8536C8.75 23.6847 8.10762 24.2911 7.3125 24.2103H4.4375C3.64373 24.2103 3 23.607 3 22.8132V12.7911C3 12.0378 3.64373 11.394 4.4375 11.394H7.3125C8.10627 11.394 8.75 11.9973 8.75 12.7911Z" fill="#0A77DB"/>
</g>
<defs>
<clipPath id="clip0_13047_15820">
<rect width="30" height="30" fill="white" transform="translate(-0.00146484)"/>
</clipPath>
</defs>
</svg>
