<svg width="40" height="40" viewBox="0 0 40 40" fill="none" xmlns="http://www.w3.org/2000/svg">
<circle cx="20" cy="20" r="20" fill="#EAF0FF"/>
<path fill-rule="evenodd" clip-rule="evenodd" d="M20 12.6081C18.758 10.175 15.12 9.853 13.577 12.4221C13.2466 12.9652 13.0641 13.5852 13.0476 14.2207C13.0311 14.8561 13.1812 15.4848 13.483 16.0443C12.7874 16.166 12.1571 16.5292 11.7029 17.0699C11.2487 17.6106 10.9998 18.2943 11 19.0004V27.0008C11 27.7965 11.3161 28.5596 11.8787 29.1223C12.4413 29.6849 13.2044 30.001 14 30.001H26C26.7956 30.001 27.5587 29.6849 28.1213 29.1223C28.6839 28.5596 29 27.7965 29 27.0008V19.0004C29.0002 18.2943 28.7513 17.6106 28.2971 17.0699C27.8429 16.5292 27.2126 16.166 26.517 16.0443C26.8188 15.4848 26.9689 14.8561 26.9524 14.2207C26.9359 13.5852 26.7534 12.9652 26.423 12.4221C24.88 9.853 21.242 10.175 20 12.6081ZM18.782 15.9983L18.379 13.9862C18.078 12.4811 16.082 12.1361 15.292 13.4512C14.62 14.5712 15.425 15.9943 16.73 15.9963L18.782 15.9983ZM19 18.0004H14C13.7348 18.0004 13.4804 18.1058 13.2929 18.2933C13.1054 18.4808 13 18.7352 13 19.0004V22.0006H19V18.0004ZM19 24.0007H13V27.0008C13 27.2661 13.1054 27.5204 13.2929 27.708C13.4804 27.8955 13.7348 28.0009 14 28.0009H19V24.0007ZM21 28.0009V24.0007H27V27.0008C27 27.2661 26.8946 27.5204 26.7071 27.708C26.5196 27.8955 26.2652 28.0009 26 28.0009H21ZM27 22.0006H21V18.0004H26C26.2652 18.0004 26.5196 18.1058 26.7071 18.2933C26.8946 18.4808 27 18.7352 27 19.0004V22.0006ZM21.218 15.9983L23.27 15.9963C24.575 15.9943 25.38 14.5702 24.708 13.4512C23.918 12.1361 21.922 12.4811 21.621 13.9862L21.218 15.9983Z" fill="url(#paint0_linear_809_2652)"/>
<defs>
<linearGradient id="paint0_linear_809_2652" x1="11" y1="14.6528" x2="28.9996" y2="14.746" gradientUnits="userSpaceOnUse">
<stop stop-color="#5465FF"/>
<stop offset="1" stop-color="#04DEB7"/>
</linearGradient>
</defs>
</svg>
