<svg width="120" height="145" viewBox="0 0 120 145" fill="none" xmlns="http://www.w3.org/2000/svg">
<path fill-rule="evenodd" clip-rule="evenodd" d="M62.4003 3.74038L60.3701 0L58.3399 3.74038L54.2095 4.69381L57.0798 7.84747L56.5197 12.3213L60.3701 10.3411L64.1505 12.3213L63.6604 7.84747L66.5307 4.69381L62.4003 3.74038ZM76.5269 32.952L82.7661 27.8405C83.6074 27.1702 84.7991 28.1757 84.3785 29.4326L80.8808 37.9843C96.6221 45.6644 107.462 61.7857 107.462 80.4302C107.462 106.515 86.2437 127.662 60.0698 127.662C33.8959 127.662 12.6777 106.515 12.6777 80.4302C12.6777 61.585 23.7521 45.3176 39.7688 37.7392L36.2175 29.0137C35.867 27.7568 37.0588 26.7512 37.9 27.5054L43.9289 32.7845C47.5743 35.9687 52.7619 34.3766 54.6547 29.4326L59.2815 17.3662C59.632 16.3606 60.8238 16.3606 61.2444 17.3662L66.0114 29.5164C67.8341 34.2928 72.8816 35.9687 76.5269 32.952ZM41.6571 42.3789C27.4619 49.2084 17.6777 63.6883 17.6777 80.4302C17.6777 103.738 36.6413 122.662 60.0698 122.662C83.4983 122.662 102.462 103.738 102.462 80.4302C102.462 63.8859 92.9072 49.5505 78.9832 42.6239L78.2094 44.5158C78.1393 44.6833 77.9991 44.8509 77.7888 44.8509H42.9474C42.8072 44.8509 42.5969 44.7671 42.5268 44.5158L41.6571 42.3789ZM34.8152 26.7538C36.0154 26.7538 36.9884 25.5908 36.9884 24.1562C36.9884 22.7216 36.0154 21.5585 34.8152 21.5585C33.615 21.5585 32.642 22.7216 32.642 24.1562C32.642 25.5908 33.615 26.7538 34.8152 26.7538ZM85.7089 26.7538C86.9091 26.7538 87.8821 25.5908 87.8821 24.1562C87.8821 22.7216 86.9091 21.5585 85.7089 21.5585C84.5087 21.5585 83.5357 22.7216 83.5357 24.1562C83.5357 25.5908 84.5087 26.7538 85.7089 26.7538Z" fill="url(#paint0_linear_2414_7903)"/>
<rect x="21" y="40" width="78" height="79" rx="39" fill="#FFE8D8"/>
<circle cx="60.1958" cy="80.2329" r="41.7661" stroke="white" stroke-width="4"/>
<path d="M2.73768 121.51C1.53391 119.511 2.97395 116.963 5.30784 116.963H114.466C116.8 116.963 118.24 119.511 117.036 121.51L108.671 135.405C108.129 136.306 107.153 136.858 106.101 136.858H13.673C12.6208 136.858 11.6455 136.306 11.1029 135.405L2.73768 121.51Z" fill="#FAF3F3"/>
<path d="M2.06313 124.298C1.10721 122.307 2.55865 120 4.7677 120H60H115.232C117.441 120 118.893 122.307 117.937 124.298L108.817 143.298C108.318 144.338 107.266 145 106.112 145H13.8877C12.7339 145 11.6824 144.338 11.1831 143.298L2.06313 124.298Z" fill="url(#paint1_linear_2414_7903)"/>
<defs>
<linearGradient id="paint0_linear_2414_7903" x1="4.41168" y1="127.447" x2="120.963" y2="127.447" gradientUnits="userSpaceOnUse">
<stop offset="0.106383" stop-color="#FFC27B"/>
<stop offset="0.888889" stop-color="#FF7A00"/>
</linearGradient>
<linearGradient id="paint1_linear_2414_7903" x1="-10.4651" y1="145" x2="137.093" y2="145" gradientUnits="userSpaceOnUse">
<stop offset="0.106383" stop-color="#FFC27B"/>
<stop offset="0.888889" stop-color="#FF7A00"/>
</linearGradient>
</defs>
</svg>
