<svg width="27" height="21" viewBox="0 0 27 21" fill="none" xmlns="http://www.w3.org/2000/svg">
<g clip-path="url(#clip0_3_2239)">
<path d="M25.6067 0.418945H3.50892C3.39161 0.418945 3.27625 0.454453 3.20094 0.523164C3.03632 0.673359 3.10958 0.887695 3.31191 0.970977L8.46603 3.09285C8.46654 3.09305 8.4669 3.09344 8.467 3.09391L9.66704 9.21035C9.71001 9.42227 10.0391 9.5309 10.2691 9.40609L15.3027 6.67164C15.3033 6.67133 15.304 6.67129 15.3047 6.67156L18.8718 8.17152C19.0419 8.24301 19.2612 8.20371 19.3719 8.08191L23.1226 3.9598C23.2437 3.82672 23.2007 3.64375 23.0266 3.55117C22.8525 3.45855 22.6134 3.49145 22.4922 3.62453L18.9399 7.52871C18.9394 7.5293 18.9383 7.52949 18.9375 7.52914L11.8238 4.53781C11.8224 4.53723 11.8226 4.53562 11.8241 4.5352L24.6287 1.27191C24.6304 1.27148 24.6318 1.27297 24.6308 1.27406L23.5692 2.44074C23.4485 2.5734 23.4766 2.76066 23.647 2.85621C23.8218 2.95418 24.0665 2.9223 24.1895 2.78723L25.9248 0.880117C25.9356 0.868125 25.9454 0.855117 25.9538 0.841953C26.0785 0.648516 25.8863 0.418945 25.6067 0.418945ZM14.5538 6.35578C14.5549 6.35629 14.555 6.35762 14.5539 6.3582L10.5474 8.53465C10.5461 8.53535 10.5443 8.53453 10.5445 8.53328L11.1718 4.9359C11.172 4.93492 11.1734 4.93438 11.1746 4.93484L14.5538 6.35578ZM20.7018 1.65383L10.7444 4.19148C10.6071 4.22664 10.5043 4.32133 10.4852 4.43117L10.026 7.06395C10.0257 7.06559 10.0226 7.06559 10.0223 7.06398L9.25381 3.14668C9.25366 3.1459 9.25432 3.1452 9.25535 3.14508L20.7008 1.65105C20.7031 1.65074 20.7039 1.65324 20.7018 1.65383ZM21.0575 1.00887L8.88432 2.59789C8.88391 2.59793 8.8835 2.59789 8.88314 2.59773L5.02332 1.00875C5.02164 1.00805 5.02225 1.00605 5.02419 1.00605H21.0572C21.0595 1.00605 21.0598 1.00859 21.0575 1.00887Z" fill="#161719"/>
<path d="M7.15784 12.1677C7.05014 12.1689 6.94044 12.1722 6.83187 12.1776C6.62025 12.1881 6.45982 12.3277 6.47347 12.4895C6.48655 12.6449 6.65551 12.7641 6.85625 12.7641C6.86457 12.7641 6.87295 12.764 6.88138 12.7635C6.97738 12.7588 7.07425 12.7558 7.16933 12.7547C7.38137 12.7523 7.55068 12.6189 7.54752 12.4568C7.54435 12.2948 7.36885 12.1643 7.15784 12.1677Z" fill="#161719"/>
<path d="M9.04517 12.3744C8.84607 12.325 8.63695 12.2837 8.4237 12.2518C8.21576 12.2205 8.01389 12.3242 7.97307 12.4834C7.93225 12.6424 8.0679 12.7967 8.27599 12.828C8.45916 12.8554 8.63823 12.8907 8.80816 12.9329C9.00732 12.9822 9.22726 12.8964 9.29189 12.7443C9.35729 12.59 9.24678 12.4244 9.04517 12.3744Z" fill="#161719"/>
<path d="M5.04739 15.0911C5.01739 14.9572 5.00002 14.8192 4.99583 14.6808C4.99093 14.5187 4.81456 14.3906 4.60309 14.3941C4.39111 14.3979 4.22323 14.5323 4.22813 14.6944C4.23319 14.8614 4.25419 15.0283 4.29051 15.1903C4.32582 15.3479 4.52753 15.4571 4.73379 15.43C4.94285 15.4026 5.0832 15.2509 5.04739 15.0911Z" fill="#161719"/>
<path d="M6.92031 16.9041C6.75804 16.8601 6.60017 16.8032 6.45113 16.7349C6.26914 16.6517 6.03341 16.6969 5.92443 16.836C5.81555 16.9751 5.87472 17.1554 6.05665 17.2387C6.24932 17.3269 6.45343 17.4005 6.66362 17.4574C6.87146 17.5138 7.10434 17.4203 7.16238 17.258C7.2147 17.1117 7.1071 16.9548 6.92031 16.9041Z" fill="#161719"/>
<path d="M7.41888 11.0331C7.28706 10.9061 7.0455 10.8849 6.87946 10.9856C6.71652 11.0844 6.55676 11.1895 6.40471 11.2979C6.24955 11.4084 6.24096 11.5941 6.38545 11.7127C6.52795 11.8297 6.77497 11.8365 6.92804 11.7274C7.06538 11.6296 7.20966 11.5347 7.3568 11.4455C7.5229 11.3447 7.5507 11.1601 7.41888 11.0331Z" fill="#161719"/>
<path d="M5.67428 16.2036C5.5676 16.0981 5.47124 15.9836 5.38791 15.8632C5.28874 15.7199 5.05633 15.6653 4.86897 15.741C4.68157 15.8169 4.61004 15.9945 4.70921 16.1378C4.81303 16.2878 4.9334 16.4308 5.06685 16.5628C5.2049 16.6993 5.47548 16.714 5.63785 16.594C5.77657 16.4914 5.7923 16.3203 5.67428 16.2036Z" fill="#161719"/>
<path d="M5.09822 13.0856C4.90315 13.022 4.67764 13.0914 4.59451 13.2406C4.50285 13.405 4.42795 13.5668 4.37773 13.7084C4.32225 13.8648 4.44318 14.026 4.6478 14.0685C4.68137 14.0755 4.71519 14.0788 4.74845 14.0788C4.91756 14.0788 5.07247 13.9927 5.11876 13.862C5.14747 13.7811 5.20235 13.6475 5.3009 13.4707C5.38408 13.3215 5.29334 13.1491 5.09822 13.0856Z" fill="#161719"/>
<path d="M6.09804 11.9525C5.93072 11.8527 5.68951 11.8756 5.55918 12.0035C5.43073 12.1294 5.30776 12.2605 5.19382 12.3931C5.07728 12.5286 5.12648 12.7106 5.30367 12.7997C5.47861 12.8876 5.72047 12.8493 5.83543 12.7157C5.93812 12.5963 6.04894 12.4781 6.16477 12.3645C6.29515 12.2366 6.26526 12.0522 6.09804 11.9525Z" fill="#161719"/>
<path d="M10.7232 13.1443C10.5724 13.0246 10.4012 12.9131 10.2143 12.8127C10.0409 12.7194 9.80139 12.7514 9.67944 12.8841C9.55753 13.0168 9.59938 13.1999 9.77288 13.2931C9.91972 13.3719 10.0534 13.4589 10.1701 13.5516C10.3153 13.6668 10.5623 13.6703 10.713 13.5594C10.8657 13.4469 10.8703 13.261 10.7232 13.1443Z" fill="#161719"/>
<path d="M8.92949 17.1889C8.88504 17.0303 8.68108 16.9294 8.47359 16.9633C8.31357 16.9896 8.14594 17.0069 7.97484 17.0149L7.945 17.0162C7.73322 17.0243 7.57004 17.1621 7.58056 17.324C7.59073 17.481 7.7604 17.603 7.9637 17.603C7.97008 17.603 7.97662 17.6029 7.98306 17.6026L8.0222 17.601C8.23106 17.5912 8.43706 17.5698 8.63458 17.5375C8.84191 17.5034 8.97394 17.3474 8.92949 17.1889Z" fill="#161719"/>
<path d="M11.5478 14.5461C11.5296 14.3682 11.487 14.1962 11.4213 14.0348C11.3582 13.88 11.1428 13.7936 10.9405 13.8419C10.738 13.8901 10.6251 14.0547 10.6881 14.2095C10.7369 14.329 10.7685 14.4577 10.7822 14.5919C10.7985 14.7514 10.9863 14.8741 11.195 14.8617C11.4035 14.8492 11.5641 14.7056 11.5478 14.5461Z" fill="#161719"/>
<path d="M11.1437 15.1882C10.9402 15.1424 10.7268 15.2311 10.6666 15.3866C10.6166 15.5161 10.5517 15.6431 10.4739 15.7642C10.3802 15.9096 10.4586 16.0856 10.6489 16.1572C10.8367 16.2279 11.0706 16.1668 11.1629 16.0233C11.26 15.8725 11.3408 15.7142 11.4031 15.5529C11.4632 15.3974 11.347 15.2341 11.1437 15.1882Z" fill="#161719"/>
<path d="M8.98251 10.3735C8.89233 10.2268 8.66365 10.1637 8.47175 10.2326C8.28327 10.3003 8.09648 10.3741 7.91669 10.4518C7.77312 10.5139 7.69623 10.6433 7.72969 10.7668C7.76617 10.9017 7.92604 11.001 8.10609 11.001C8.17015 11.001 8.23504 10.9887 8.29477 10.9629C8.4578 10.8924 8.62722 10.8255 8.79822 10.764C8.99017 10.6951 9.07269 10.5203 8.98251 10.3735Z" fill="#161719"/>
<path d="M10.3966 16.4237C10.2505 16.3061 10.0076 16.3013 9.85377 16.4129C9.72686 16.5051 9.58845 16.5883 9.44233 16.6605C9.26417 16.7485 9.21303 16.9301 9.32804 17.0663C9.44141 17.2007 9.68302 17.2406 9.85888 17.1537C10.045 17.0619 10.2212 16.9559 10.3826 16.8387C10.5363 16.727 10.5426 16.5413 10.3966 16.4237Z" fill="#161719"/>
<path d="M10.4176 10.0305C10.3629 9.87397 10.1524 9.781 9.94757 9.82272C9.84401 9.84389 9.74029 9.86655 9.63933 9.89002C9.44697 9.93487 9.33069 10.0912 9.37836 10.2405C9.42996 10.4021 9.65507 10.5001 9.86327 10.4516C9.95575 10.4301 10.0507 10.4093 10.1458 10.3899C10.3505 10.3481 10.4723 10.1872 10.4176 10.0305Z" fill="#161719"/>
<path d="M1.78738 19.9913C1.74282 19.9253 1.6996 19.8579 1.65878 19.791C1.56921 19.6441 1.34073 19.5805 1.14858 19.649C0.956421 19.7175 0.873193 19.8921 0.962807 20.0391C1.00797 20.1131 1.05579 20.1876 1.105 20.2605C1.20095 20.4026 1.43612 20.4601 1.62225 20.3867C1.81067 20.3124 1.8846 20.1354 1.78738 19.9913Z" fill="#161719"/>
<path d="M1.27781 19.0123C1.22835 18.8791 1.18579 18.7433 1.15146 18.6088C1.11084 18.4497 0.909337 18.3459 0.701037 18.3769C0.492941 18.408 0.35719 18.5622 0.397808 18.7213C0.436229 18.8719 0.483795 19.0238 0.539128 19.1727C0.596248 19.3265 0.812059 19.4187 1.01336 19.3749C1.21742 19.3306 1.3358 19.1682 1.27781 19.0123Z" fill="#161719"/>
<path d="M0.688037 17.0594C0.476824 17.0494 0.293968 17.1719 0.280428 17.3337C0.270823 17.4487 0.265918 17.5654 0.265918 17.6805C0.265918 17.7861 0.260911 17.8888 0.351957 17.9755C0.425886 18.0458 0.541302 18.0876 0.659681 18.0852C0.77709 18.0833 0.888674 18.0393 0.958976 17.9674C1.04415 17.8803 1.03383 17.7835 1.03383 17.6805C1.03383 17.5778 1.03817 17.4737 1.04675 17.371C1.06029 17.2093 0.899659 17.0698 0.688037 17.0594Z" fill="#161719"/>
<path d="M1.10498 15.781C0.902962 15.7311 0.686793 15.8159 0.621651 15.9702C0.559677 16.117 0.504907 16.2672 0.459027 16.4166C0.410439 16.5744 0.538474 16.7324 0.744884 16.7695C0.948587 16.8061 1.15862 16.7066 1.2065 16.5509C1.24773 16.417 1.29683 16.2823 1.35241 16.1506C1.41751 15.9963 1.30679 15.8308 1.10498 15.781Z" fill="#161719"/>
<path d="M3.0631 13.6374C2.91662 13.5201 2.67373 13.5158 2.5202 13.6277C2.48091 13.6563 2.44198 13.6854 2.4032 13.715C2.29949 13.7943 2.197 13.8782 2.09854 13.9643C1.95901 14.0864 1.97526 14.2718 2.13487 14.3786C2.29233 14.4838 2.539 14.4712 2.67664 14.3508C2.76386 14.2745 2.8546 14.2003 2.9462 14.1302C2.98059 14.1039 3.01533 14.078 3.05028 14.0525C3.20376 13.9405 3.20943 13.7547 3.0631 13.6374Z" fill="#161719"/>
<path d="M1.90856 14.6154C1.72795 14.5305 1.4915 14.5736 1.38038 14.7117C1.27523 14.8424 1.17555 14.9783 1.084 15.1154C0.987637 15.2599 1.06269 15.4367 1.25163 15.5103C1.43821 15.5831 1.67308 15.5246 1.76806 15.3821C1.85032 15.2588 1.93993 15.1367 2.03445 15.0192C2.14558 14.8811 2.08917 14.7003 1.90856 14.6154Z" fill="#161719"/>
<path d="M4.27266 13.0157C4.16394 12.8766 3.9282 12.8311 3.74616 12.9143C3.65358 12.9565 3.56105 13.0011 3.47103 13.0468C3.29436 13.1364 3.24613 13.3186 3.36338 13.4537C3.479 13.5869 3.72113 13.6245 3.8956 13.536C3.97556 13.4954 4.05772 13.4558 4.13997 13.4183C4.32201 13.3351 4.38143 13.1549 4.27266 13.0157Z" fill="#161719"/>
</g>
<defs>
<clipPath id="clip0_3_2239">
<rect width="26.1589" height="20" fill="white" transform="translate(0.0498047 0.418945)"/>
</clipPath>
</defs>
</svg>
