<svg width="40" height="40" viewBox="0 0 40 40" fill="none" xmlns="http://www.w3.org/2000/svg">
<circle cx="20" cy="20" r="20" fill="#EAF0FF"/>
<g clip-path="url(#clip0_1783_6314)">
<path d="M28.2499 12.7509H25.2451C24.927 12.2055 24.3422 11.8342 23.6666 11.8342H16.3333C15.6577 11.8342 15.0728 12.2055 14.7548 12.7509H11.7499C11.2439 12.7509 10.8333 13.1616 10.8333 13.6676V17.3342C10.8333 17.6129 10.9598 17.876 11.177 18.0501L15.6943 21.6636C16.5221 22.705 17.7174 23.4383 19.0833 23.6684V24.6676H17.2499C16.7439 24.6676 16.3333 25.0782 16.3333 25.5842V27.4176H23.6666V25.5842C23.6666 25.0782 23.2559 24.6676 22.7499 24.6676H20.9166V23.6684C22.2824 23.4383 23.4777 22.7059 24.3046 21.6646L28.8219 18.0511C29.0401 17.876 29.1666 17.6129 29.1666 17.3342V13.6676C29.1666 13.1616 28.7559 12.7509 28.2499 12.7509ZM12.6666 16.8942V14.5842H14.4999V18.2509C14.4999 18.2894 14.5045 18.327 14.5054 18.3655L12.6666 16.8942ZM27.3333 16.8942L25.4944 18.3655C25.4953 18.327 25.4999 18.2894 25.4999 18.2509V14.5842H27.3333V16.8942Z" fill="url(#paint0_linear_1783_6314)"/>
<path opacity="0.6" d="M24.5832 28.3708H15.4165V30.2042H24.5832V28.3708Z" fill="url(#paint1_linear_1783_6314)"/>
</g>
<defs>
<linearGradient id="paint0_linear_1783_6314" x1="10.8333" y1="15.0676" x2="29.1659" y2="15.1878" gradientUnits="userSpaceOnUse">
<stop stop-color="#5465FF"/>
<stop offset="1" stop-color="#04DEB7"/>
</linearGradient>
<linearGradient id="paint1_linear_1783_6314" x1="15.4165" y1="28.7512" x2="24.5761" y2="29.0065" gradientUnits="userSpaceOnUse">
<stop stop-color="#5465FF"/>
<stop offset="1" stop-color="#04DEB7"/>
</linearGradient>
<clipPath id="clip0_1783_6314">
<rect width="22" height="22" fill="white" transform="translate(9 10)"/>
</clipPath>
</defs>
</svg>
