<svg width="40" height="40" viewBox="0 0 40 40" fill="none" xmlns="http://www.w3.org/2000/svg">
<circle cx="20" cy="20" r="20" fill="#EAF0FF"/>
<g clip-path="url(#clip0_1782_6267)">
<path fill-rule="evenodd" clip-rule="evenodd" d="M24.7816 14.9834L14.905 19.9223L14.317 18.7476L24.1936 13.81L24.7816 14.9834V14.9834ZM24.1936 27.1896L14.317 22.252L14.9063 21.0773L24.7829 26.0162L24.1949 27.1896H24.1936Z" fill="url(#paint0_linear_1782_6267)"/>
<path fill-rule="evenodd" clip-rule="evenodd" d="M26.7188 16.5625C27.589 16.5625 28.4236 16.2168 29.0389 15.6014C29.6543 14.9861 30 14.1515 30 13.2812C30 12.411 29.6543 11.5764 29.0389 10.9611C28.4236 10.3457 27.589 10 26.7188 10C25.8485 10 25.0139 10.3457 24.3986 10.9611C23.7832 11.5764 23.4375 12.411 23.4375 13.2812C23.4375 14.1515 23.7832 14.9861 24.3986 15.6014C25.0139 16.2168 25.8485 16.5625 26.7188 16.5625V16.5625ZM26.7188 31C27.589 31 28.4236 30.6543 29.0389 30.0389C29.6543 29.4236 30 28.589 30 27.7188C30 26.8485 29.6543 26.0139 29.0389 25.3986C28.4236 24.7832 27.589 24.4375 26.7188 24.4375C25.8485 24.4375 25.0139 24.7832 24.3986 25.3986C23.7832 26.0139 23.4375 26.8485 23.4375 27.7188C23.4375 28.589 23.7832 29.4236 24.3986 30.0389C25.0139 30.6543 25.8485 31 26.7188 31V31ZM12.2812 23.7812C13.1515 23.7812 13.9861 23.4355 14.6014 22.8202C15.2168 22.2048 15.5625 21.3702 15.5625 20.5C15.5625 19.6298 15.2168 18.7952 14.6014 18.1798C13.9861 17.5645 13.1515 17.2188 12.2812 17.2188C11.411 17.2188 10.5764 17.5645 9.96106 18.1798C9.3457 18.7952 9 19.6298 9 20.5C9 21.3702 9.3457 22.2048 9.96106 22.8202C10.5764 23.4355 11.411 23.7812 12.2812 23.7812V23.7812Z" fill="url(#paint1_linear_1782_6267)"/>
</g>
<defs>
<linearGradient id="paint0_linear_1782_6267" x1="14.317" y1="16.5861" x2="24.7828" y2="16.6317" gradientUnits="userSpaceOnUse">
<stop stop-color="#5465FF"/>
<stop offset="1" stop-color="#04DEB7"/>
</linearGradient>
<linearGradient id="paint1_linear_1782_6267" x1="9" y1="14.3572" x2="29.9995" y2="14.4743" gradientUnits="userSpaceOnUse">
<stop stop-color="#5465FF"/>
<stop offset="1" stop-color="#04DEB7"/>
</linearGradient>
<clipPath id="clip0_1782_6267">
<rect width="21" height="21" fill="white" transform="translate(9 10)"/>
</clipPath>
</defs>
</svg>
