<svg width="38" height="42" viewBox="0 0 38 42" fill="none" xmlns="http://www.w3.org/2000/svg">
<path d="M21.6667 3V12.5625C21.6667 13.4906 22.5667 14.25 23.6667 14.25H35V37.3125C35 38.2477 34.1083 39 33 39H5C3.89167 39 3 38.2477 3 37.3125V4.6875C3 3.75234 3.89167 3 5 3H21.6667Z" fill="#91919F"/>
<path d="M35 12V11.5711C35 11.1281 34.7917 10.6992 34.4167 10.3828L26.2583 3.49219C25.8833 3.17578 25.375 3 24.8417 3H24.3333V12H35Z" fill="#91919F"/>
<path d="M12.4367 24.3459C12.0656 24.3459 11.7429 24.2126 11.4686 23.946C11.1943 23.6627 11.0571 23.3295 11.0571 22.9462V21.91C11.0571 21.5267 11.1943 21.1935 11.4686 20.9102C11.7429 20.627 12.0656 20.4854 12.4367 20.4854H23.6776C24.0487 20.4854 24.3714 20.627 24.6457 20.9102C24.92 21.1935 25.0571 21.5267 25.0571 21.91V22.9462C25.0571 23.3295 24.92 23.6627 24.6457 23.946C24.3714 24.2126 24.0487 24.3459 23.6776 24.3459H20.4345C20.3054 24.3459 20.2409 24.4208 20.2409 24.5708V33.4607C20.2409 33.844 20.1038 34.1772 19.8295 34.4605C19.5552 34.7437 19.2325 34.8854 18.8614 34.8854H17.2529C16.8818 34.8854 16.5591 34.7437 16.2848 34.4605C16.0105 34.1772 15.8734 33.844 15.8734 33.4607V24.5708C15.8734 24.4208 15.8088 24.3459 15.6797 24.3459H12.4367Z" fill="white"/>
</svg>
