<svg width="24" height="24" viewBox="0 0 24 24" fill="none" xmlns="http://www.w3.org/2000/svg">
<path fill-rule="evenodd" clip-rule="evenodd" d="M5.15506 2.40044C4.74747 2.39719 4.35515 2.5551 4.06381 2.83966C3.77247 3.12423 3.60579 3.51233 3.60017 3.91918V20.2851C3.59815 20.4897 3.63696 20.6926 3.71434 20.882C3.79173 21.0714 3.90613 21.2435 4.05088 21.3883C4.19563 21.533 4.36782 21.6476 4.55741 21.7252C4.74699 21.8028 4.95016 21.842 5.15506 21.8403H19.0851C19.29 21.842 19.4932 21.8028 19.6828 21.7252C19.8724 21.6476 20.0446 21.533 20.1893 21.3883C20.3341 21.2435 20.4485 21.0714 20.5259 20.882C20.6032 20.6926 20.642 20.4897 20.64 20.2851V8.56046L14.8769 2.40044H5.15506Z" fill="#673AB7"/>
<path d="M13.986 13.7345C14.0417 13.6789 14.1134 13.6423 14.1911 13.6298C14.2687 13.6173 14.3484 13.6295 14.4187 13.6647L17.2515 15.125V17.75H6.75146V17L8.73596 15.2345C8.79726 15.1734 8.8778 15.1354 8.96392 15.1269C9.05004 15.1184 9.13643 15.14 9.20846 15.188L11.2035 16.5177L13.986 13.7352V13.7345Z" fill="white"/>
<path fill-rule="evenodd" clip-rule="evenodd" d="M9.37646 13.25C9.5242 13.25 9.67049 13.2209 9.80698 13.1644C9.94348 13.1078 10.0675 13.025 10.172 12.9205C10.2764 12.816 10.3593 12.692 10.4158 12.5555C10.4724 12.419 10.5015 12.2727 10.5015 12.125C10.5015 11.9773 10.4724 11.831 10.4158 11.6945C10.3593 11.558 10.2764 11.434 10.172 11.3295C10.0675 11.225 9.94348 11.1422 9.80698 11.0856C9.67049 11.0291 9.5242 11 9.37646 11C9.0781 11 8.79195 11.1185 8.58097 11.3295C8.36999 11.5405 8.25146 11.8266 8.25146 12.125C8.25146 12.4234 8.36999 12.7095 8.58097 12.9205C8.79195 13.1315 9.0781 13.25 9.37646 13.25V13.25Z" fill="white"/>
<path fill-rule="evenodd" clip-rule="evenodd" d="M14.8799 2.40039V6.86291C14.8791 7.10457 14.9274 7.34384 15.0218 7.566C15.1162 7.78816 15.2547 7.98852 15.4289 8.15474C15.603 8.32097 15.8091 8.44955 16.0344 8.53257C16.2597 8.61559 16.4995 8.6513 16.739 8.6375H20.6399L14.8799 2.40039Z" fill="#B388FF"/>
</svg>
