<svg width="32" height="32" viewBox="0 0 32 32" fill="none" xmlns="http://www.w3.org/2000/svg">
<path opacity="0.6" d="M12.1573 18.1202C12.0133 18.1292 11.8763 18.1335 11.7333 18.1335C10.7995 18.1335 9.89278 17.9292 9.06665 17.549V19.021C9.33812 19.3527 10.2219 20.2668 11.7333 20.2668C13.2416 20.2668 14.1301 19.349 14.4 19.021V17.5356C13.7099 17.8615 12.9552 18.0684 12.1573 18.1202V18.1202Z" fill="white"/>
<path d="M11.7334 4.79984C9.28217 4.79984 7.7259 3.9593 6.93337 2.6665C6.93337 2.6665 5.8667 4.4009 5.8667 5.58277C5.8667 6.64197 6.2459 7.6121 6.93337 8.25744V12.2665C6.93337 14.9177 9.08217 17.0665 11.7334 17.0665C14.3846 17.0665 16.5334 14.9177 16.5334 12.2665V9.59984C16.5334 6.94864 14.3846 4.79984 11.7334 4.79984Z" fill="white"/>
<path d="M16.0001 22.4001C16.0001 21.5479 16.1366 20.7281 16.383 19.958L15.3574 19.5244C15.1916 19.7591 13.9948 21.3335 11.7334 21.3335C9.4721 21.3335 8.2753 19.7591 8.10943 19.5244L4.53556 21.0316C2.75636 21.782 1.6001 23.5244 1.6001 25.4551V28.2668C1.6001 28.5617 1.8385 28.8001 2.13343 28.8001H19.2145C17.2668 27.3409 16.0001 25.0215 16.0001 22.4001V22.4001Z" fill="white"/>
<path opacity="0.6" d="M24.0027 24.4015C25.1073 24.4015 26.0027 23.5062 26.0027 22.4017C26.0027 21.2972 25.1073 20.4019 24.0027 20.4019C22.8981 20.4019 22.0027 21.2972 22.0027 22.4017C22.0027 23.5062 22.8981 24.4015 24.0027 24.4015Z" fill="white"/>
<path d="M30.6693 21.7349H29.2899C28.9873 19.3277 27.0773 17.4172 24.6693 17.1146V15.7354H23.3359V17.1146C20.9286 17.4172 19.0179 19.3277 18.7153 21.7349H17.3359V23.0681H18.7153C19.0179 25.4752 20.9279 27.3857 23.3359 27.6884V29.0676H24.6693V27.6884C27.0773 27.3857 28.9873 25.4752 29.2899 23.0681H30.6693V21.7349ZM24.0026 26.4011C21.7966 26.4011 20.0026 24.6073 20.0026 22.4015C20.0026 20.1956 21.7966 18.4018 24.0026 18.4018C26.2086 18.4018 28.0026 20.1956 28.0026 22.4015C28.0026 24.6073 26.2086 26.4011 24.0026 26.4011Z" fill="white"/>
</svg>
