<svg width="12" height="12" viewBox="0 0 12 12" fill="none" xmlns="http://www.w3.org/2000/svg">
<rect width="12" height="12" rx="6" fill="#FE0000"/>
<path d="M8.28516 5.47656V5.83594C8.28516 6.26302 8.23177 6.64583 8.125 6.98438C8.01823 7.32292 7.86458 7.61068 7.66406 7.84766C7.46354 8.08464 7.22266 8.26562 6.94141 8.39062C6.66276 8.51562 6.35026 8.57812 6.00391 8.57812C5.66797 8.57812 5.35938 8.51562 5.07812 8.39062C4.79948 8.26562 4.55729 8.08464 4.35156 7.84766C4.14844 7.61068 3.99089 7.32292 3.87891 6.98438C3.76693 6.64583 3.71094 6.26302 3.71094 5.83594V5.47656C3.71094 5.04948 3.76562 4.66797 3.875 4.33203C3.98698 3.99349 4.14453 3.70573 4.34766 3.46875C4.55078 3.22917 4.79167 3.04688 5.07031 2.92188C5.35156 2.79688 5.66016 2.73438 5.99609 2.73438C6.34245 2.73438 6.65495 2.79688 6.93359 2.92188C7.21484 3.04688 7.45573 3.22917 7.65625 3.46875C7.85938 3.70573 8.01432 3.99349 8.12109 4.33203C8.23047 4.66797 8.28516 5.04948 8.28516 5.47656ZM7.53906 5.83594V5.46875C7.53906 5.13021 7.50391 4.83073 7.43359 4.57031C7.36589 4.3099 7.26562 4.09115 7.13281 3.91406C7 3.73698 6.83724 3.60286 6.64453 3.51172C6.45443 3.42057 6.23828 3.375 5.99609 3.375C5.76172 3.375 5.54948 3.42057 5.35938 3.51172C5.17188 3.60286 5.01042 3.73698 4.875 3.91406C4.74219 4.09115 4.63932 4.3099 4.56641 4.57031C4.49349 4.83073 4.45703 5.13021 4.45703 5.46875V5.83594C4.45703 6.17708 4.49349 6.47917 4.56641 6.74219C4.63932 7.0026 4.74349 7.22266 4.87891 7.40234C5.01693 7.57943 5.17969 7.71354 5.36719 7.80469C5.55729 7.89583 5.76953 7.94141 6.00391 7.94141C6.2487 7.94141 6.46615 7.89583 6.65625 7.80469C6.84635 7.71354 7.00651 7.57943 7.13672 7.40234C7.26953 7.22266 7.36979 7.0026 7.4375 6.74219C7.50521 6.47917 7.53906 6.17708 7.53906 5.83594Z" fill="white"/>
</svg>
