<svg width="32" height="32" viewBox="0 0 32 32" fill="none" xmlns="http://www.w3.org/2000/svg">
<path opacity="0.6" d="M12.1573 18.12C12.0133 18.1291 11.8763 18.1333 11.7333 18.1333C10.7995 18.1333 9.89278 17.9291 9.06665 17.5488V19.0208C9.33812 19.3525 10.2219 20.2667 11.7333 20.2667C13.2416 20.2667 14.1301 19.3488 14.4 19.0208V17.5355C13.7099 17.8613 12.9552 18.0683 12.1573 18.12Z" fill="white"/>
<path d="M11.7333 4.8C9.2821 4.8 7.72584 3.95946 6.9333 2.66666C6.9333 2.66666 5.86664 4.40106 5.86664 5.58293C5.86664 6.64213 6.24584 7.61226 6.9333 8.2576V12.2667C6.9333 14.9179 9.0821 17.0667 11.7333 17.0667C14.3845 17.0667 16.5333 14.9179 16.5333 12.2667V9.6C16.5333 6.9488 14.3845 4.8 11.7333 4.8Z" fill="white"/>
<path d="M16 22.4C16 21.5477 16.1365 20.728 16.3829 19.9579L15.3573 19.5243C15.1914 19.7589 13.9946 21.3333 11.7333 21.3333C9.47198 21.3333 8.27518 19.7589 8.10931 19.5243L4.53544 21.0315C2.75624 21.7819 1.59998 23.5243 1.59998 25.4549V28.2667C1.59998 28.5616 1.83838 28.8 2.13331 28.8H19.2144C17.2666 27.3408 16 25.0213 16 22.4Z" fill="white"/>
<path opacity="0.6" d="M24.0026 24.4015C25.1071 24.4015 26.0026 23.5061 26.0026 22.4017C26.0026 21.2972 25.1071 20.4018 24.0026 20.4018C22.898 20.4018 22.0026 21.2972 22.0026 22.4017C22.0026 23.5061 22.898 24.4015 24.0026 24.4015Z" fill="white"/>
<path d="M30.6693 21.7349H29.2899C28.9873 19.3278 27.0773 17.4173 24.6693 17.1146V15.7354H23.3359V17.1146C20.9286 17.4173 19.0179 19.3278 18.7153 21.7349H17.3359V23.0681H18.7153C19.0179 25.4753 20.9279 27.3858 23.3359 27.6884V29.0676H24.6693V27.6884C27.0773 27.3858 28.9873 25.4753 29.2899 23.0681H30.6693V21.7349ZM24.0026 26.4012C21.7966 26.4012 20.0026 24.6073 20.0026 22.4015C20.0026 20.1957 21.7966 18.4019 24.0026 18.4019C26.2086 18.4019 28.0026 20.1957 28.0026 22.4015C28.0026 24.6073 26.2086 26.4012 24.0026 26.4012Z" fill="white"/>
</svg>
