<svg width="32" height="32" viewBox="0 0 32 32" fill="none" xmlns="http://www.w3.org/2000/svg">
<path d="M16.613 14.2889C13.0452 13.3711 11.8978 12.4222 11.8978 10.9444C11.8978 9.24889 13.4853 8.06667 16.1415 8.06667C18.9391 8.06667 19.9764 9.38889 20.0707 11.3333H23.5442C23.4342 8.65778 21.7839 6.2 18.499 5.40667V2H13.7839V5.36C10.7348 6.01333 8.28291 7.97333 8.28291 10.9756C8.28291 14.5689 11.2849 16.3578 15.6699 17.4C19.5992 18.3333 20.3851 19.7022 20.3851 21.1489C20.3851 22.2222 19.6149 23.9333 16.1415 23.9333C12.9037 23.9333 11.6306 22.5022 11.4578 20.6667H8C8.18861 24.0733 10.7662 25.9867 13.7839 26.6244V30H18.499V26.6556C21.5638 26.08 24 24.3222 24 21.1333C24 16.7156 20.1807 15.2067 16.613 14.2889Z" fill="white"/>
</svg>
