<svg width="60" height="60" viewBox="0 0 60 60" fill="none" xmlns="http://www.w3.org/2000/svg">
<path d="M40.7139 18.3871C38.9595 7.58468 34.8215 0 30.0061 0C25.1906 0 21.0526 7.58468 19.2982 18.3871H40.7139ZM18.3908 30C18.3908 32.6855 18.536 35.2621 18.7901 37.7419H41.2099C41.464 35.2621 41.6092 32.6855 41.6092 30C41.6092 27.3145 41.464 24.7379 41.2099 22.2581H18.7901C18.536 24.7379 18.3908 27.3145 18.3908 30ZM57.677 18.3871C54.2166 10.1734 47.2111 3.82258 38.5602 1.25806C41.5124 5.34677 43.5451 11.504 44.6098 18.3871H57.677ZM21.4398 1.25806C12.801 3.82258 5.78342 10.1734 2.33515 18.3871H15.4023C16.4549 11.504 18.4876 5.34677 21.4398 1.25806V1.25806ZM58.9716 22.2581H45.0938C45.3479 24.7984 45.493 27.3992 45.493 30C45.493 32.6008 45.3479 35.2016 45.0938 37.7419H58.9595C59.6249 35.2621 60 32.6855 60 30C60 27.3145 59.6249 24.7379 58.9716 22.2581ZM14.5191 30C14.5191 27.3992 14.6642 24.7984 14.9183 22.2581H1.04053C0.387175 24.7379 0 27.3145 0 30C0 32.6855 0.387175 35.2621 1.04053 37.7419H14.9062C14.6642 35.2016 14.5191 32.6008 14.5191 30V30ZM19.2982 41.6129C21.0526 52.4153 25.1906 60 30.0061 60C34.8215 60 38.9595 52.4153 40.7139 41.6129H19.2982ZM38.5723 58.7419C47.2111 56.1774 54.2287 49.8266 57.6891 41.6129H44.6219C43.5572 48.496 41.5245 54.6532 38.5723 58.7419ZM2.33515 41.6129C5.79552 49.8266 12.801 56.1774 21.4519 58.7419C18.4997 54.6532 16.467 48.496 15.4023 41.6129H2.33515V41.6129Z" fill="#3E4347"/>
</svg>
