<svg width="120" height="120" viewBox="0 0 120 120" fill="none" xmlns="http://www.w3.org/2000/svg">
<rect width="120" height="120" fill="#D4DEE2"/>
<path d="M97.2802 75.1207C97.6135 73.3031 97.6135 71.4469 97.2802 69.6293L100.588 67.7086C100.973 67.4895 101.14 67.0383 101.011 66.6129C100.152 63.8285 98.6778 61.302 96.7544 59.2137C96.4595 58.8914 95.9851 58.8141 95.6004 59.0332L92.2923 60.9539C90.8946 59.7551 89.2919 58.827 87.5609 58.2082V54.3668C87.5609 53.9285 87.2531 53.5418 86.83 53.4516C83.9706 52.807 81.0599 52.8328 78.3416 53.4516C77.9185 53.5418 77.6107 53.9285 77.6107 54.3668V58.2082C75.8797 58.827 74.2769 59.7551 72.8793 60.9539L69.5712 59.0332C69.1993 58.8141 68.7121 58.8914 68.4172 59.2137C66.4938 61.302 65.0192 63.8285 64.1602 66.6129C64.0319 67.0383 64.2114 67.4895 64.5833 67.7086L67.8914 69.6293C67.5581 71.4469 67.5581 73.3031 67.8914 75.1207L64.5833 77.0414C64.1986 77.2605 64.0319 77.7117 64.1602 78.1371C65.0192 80.9215 66.4938 83.4352 68.4172 85.5363C68.7121 85.8586 69.1865 85.9359 69.5712 85.7168L72.8793 83.7961C74.2769 84.9949 75.8797 85.923 77.6107 86.5418V90.3832C77.6107 90.8215 77.9185 91.2082 78.3416 91.2984C81.201 91.943 84.1117 91.9172 86.83 91.2984C87.2531 91.2082 87.5609 90.8215 87.5609 90.3832V86.5418C89.2919 85.923 90.8946 84.9949 92.2923 83.7961L95.6004 85.7168C95.9723 85.9359 96.4595 85.8586 96.7544 85.5363C98.6778 83.4481 100.152 80.9215 101.011 78.1371C101.14 77.7117 100.96 77.2605 100.588 77.0414L97.2802 75.1207ZM82.5986 78.627C79.1622 78.627 76.3798 75.8168 76.3798 72.375C76.3798 68.9332 79.1751 66.123 82.5986 66.123C86.0222 66.123 88.8174 68.9332 88.8174 72.375C88.8174 75.8168 86.035 78.627 82.5986 78.627ZM47.722 60C56.7873 60 64.1345 52.6137 64.1345 43.5C64.1345 34.3863 56.7873 27 47.722 27C38.6566 27 31.3094 34.3863 31.3094 43.5C31.3094 52.6137 38.6566 60 47.722 60ZM73.5204 89.1973C73.2255 89.0426 72.9306 88.8621 72.6485 88.6945L71.6356 89.2875C70.8662 89.7258 69.9943 89.9707 69.1224 89.9707C67.7247 89.9707 66.3784 89.3777 65.4167 88.3465C63.0703 85.7941 61.2751 82.6875 60.2622 79.3746C59.5569 77.093 60.5058 74.6824 62.5574 73.4836L63.5703 72.8906C63.5575 72.5555 63.5575 72.2203 63.5703 71.8852L62.5574 71.2922C60.5058 70.1063 59.5569 67.6828 60.2622 65.4012C60.3776 65.0273 60.5443 64.6535 60.6725 64.2797C60.1852 64.241 59.7108 64.125 59.2107 64.125H57.0694C54.2229 65.4398 51.0558 66.1875 47.722 66.1875C44.3882 66.1875 41.2339 65.4398 38.3745 64.125H36.2332C26.719 64.125 19 71.8852 19 81.45V86.8125C19 90.2285 21.7568 93 25.1547 93H70.2892C71.5843 93 72.7896 92.5875 73.7769 91.9043C73.623 91.4145 73.5204 90.9117 73.5204 90.3832V89.1973Z" fill="#3E4347"/>
</svg>
