<svg width="52" height="52" viewBox="0 0 52 52" fill="none" xmlns="http://www.w3.org/2000/svg">
<circle cx="26" cy="26" r="24.5" fill="#FFDA00" stroke="white" stroke-width="3"/>
<path d="M30.0426 38C27.3274 38 24.6121 38 21.8969 38C21.6081 37.8261 21.2037 37.8261 20.8571 37.8261C18.1418 37.4205 16.8709 35.6818 17.2753 32.9579C17.5641 30.9875 18.5462 29.3648 19.9905 28.0318C20.9726 27.1045 22.1858 26.467 23.399 25.9454C23.9767 25.6557 23.9767 25.6557 23.5145 25.192C23.399 25.0761 23.2834 24.9022 23.1101 24.7863C21.6081 23.3375 20.8571 21.5409 20.7415 19.5125C20.626 17.2522 21.1459 15.1659 22.7057 13.4852C24.5544 11.5147 27.2118 11.5147 29.1183 13.4272C31.8335 16.1511 31.8912 21.5409 29.2338 24.3807C28.9449 24.6704 28.6561 25.0182 28.3672 25.3079C28.0784 25.5977 28.0206 25.7716 28.4828 25.9454C28.8872 26.0613 29.2338 26.2932 29.5804 26.467C32.2956 27.8579 34.1443 29.9443 34.6642 33.0159C35.0686 35.6239 33.971 37.2466 31.4291 37.8261C30.9669 37.8261 30.5047 37.7682 30.0426 38Z" fill="white"/>
<path opacity="0.55" d="M38.9969 32.2045C38.8814 32.4943 38.7659 32.842 38.6503 33.1318C38.2459 34.0591 37.4371 34.5807 36.455 34.8125C36.1662 34.8705 36.0507 34.8125 36.0507 34.5227C36.2817 30.7557 34.6064 27.9159 31.7756 25.6557C31.429 25.4238 30.9091 25.3079 30.8513 24.9602C30.7935 24.6704 31.1979 24.3227 31.3712 23.975C32.8155 21.2511 32.9888 18.4113 32.1223 15.4556C31.9489 14.8761 32.0067 14.8181 32.5844 14.8761C33.7976 15.05 34.6642 15.7454 35.3574 16.7306C37.0328 19.1068 36.8594 22.7 34.953 24.9023C34.8375 25.0761 34.6064 25.192 34.953 25.3659C37.0328 26.467 38.4192 28.0318 38.8814 30.408L38.9392 30.4659C38.997 31.0455 38.9969 31.625 38.9969 32.2045Z" fill="white"/>
<path opacity="0.55" d="M13 30.9295C13.1733 28.6692 14.502 26.7567 16.8129 25.4817C17.2173 25.2499 17.3328 25.134 16.9862 24.7283C14.7909 22.1783 15.1953 17.5419 17.6794 15.6294C18.1994 15.2237 18.8348 14.934 19.4703 14.876C20.048 14.8181 20.1058 14.876 19.9325 15.3976C19.1237 18.0056 19.2392 20.5556 20.2791 23.1056C20.4524 23.5692 20.6835 24.0908 21.0301 24.4965C21.2612 24.8442 21.2612 25.0181 20.9146 25.2499C18.7771 26.5829 17.275 28.4374 16.4662 30.8136C16.0618 31.9726 15.8885 33.1897 16.0041 34.4067C16.0618 34.8704 15.8885 34.8704 15.5419 34.8124C13.8666 34.3488 13 33.1317 13 30.9295Z" fill="white"/>
</svg>
