<svg width="32" height="32" viewBox="0 0 32 32" fill="none" xmlns="http://www.w3.org/2000/svg">
<path opacity="0.6" d="M21.3335 2.06576V7.07833C21.3335 7.37699 21.5758 7.61928 21.8744 7.61928H26.8878C27.3693 7.61928 27.6093 7.03795 27.2695 6.69814L22.2569 1.68328C21.9164 1.34271 21.3335 1.58423 21.3335 2.06576Z" fill="white"/>
<path d="M21.8741 9.14297C20.7336 9.14297 19.8094 8.21878 19.8094 7.07821V1.52393H5.33319C4.91186 1.52393 4.57129 1.8645 4.57129 2.28583V28.9525C4.57129 29.3738 4.91186 29.7144 5.33319 29.7144H26.6665C27.0879 29.7144 27.4284 29.3738 27.4284 28.9525V9.14297H21.8741ZM12.1903 7.61916C13.8734 7.61916 15.238 8.98373 15.238 10.6668C15.238 12.3498 13.8734 13.7144 12.1903 13.7144C10.5073 13.7144 9.14272 12.3498 9.14272 10.6668C9.14272 8.98373 10.5073 7.61916 12.1903 7.61916ZM16.7557 20.5715H7.625C7.16405 20.5715 6.79224 20.1616 6.86691 19.706C7.27986 17.1719 9.53967 15.2382 12.1903 15.2382C14.841 15.2382 17.1008 17.1719 17.5138 19.706C17.5892 20.1616 17.2174 20.5715 16.7557 20.5715ZM24.0448 24.0474L21.0002 27.0934C20.7922 27.3007 20.5065 27.4287 20.1903 27.4287C19.8749 27.4287 19.5884 27.3007 19.3804 27.0934L17.8597 25.5712C17.6517 25.3639 17.5237 25.0782 17.5237 24.762C17.5237 24.1312 18.0357 23.6192 18.6665 23.6192C18.9827 23.6192 19.2684 23.7472 19.4764 23.9544L20.1911 24.6691L22.4296 22.4306C22.6361 22.2234 22.9225 22.0954 23.238 22.0954C23.8688 22.0954 24.3808 22.6074 24.3808 23.2382C24.3808 23.5544 24.2528 23.8401 24.0448 24.0474ZM23.9999 18.2858H20.9522C20.3214 18.2858 19.8094 17.7738 19.8094 17.143C19.8094 16.5121 20.3214 16.0001 20.9522 16.0001H23.9999C24.6307 16.0001 25.1427 16.5121 25.1427 17.143C25.1427 17.7738 24.6307 18.2858 23.9999 18.2858ZM23.9999 13.7144H19.4284C18.7976 13.7144 18.2856 13.2024 18.2856 12.5715C18.2856 11.9407 18.7976 11.4287 19.4284 11.4287H23.9999C24.6307 11.4287 25.1427 11.9407 25.1427 12.5715C25.1427 13.2024 24.6307 13.7144 23.9999 13.7144Z" fill="white"/>
</svg>
