<svg width="32" height="32" viewBox="0 0 32 32" fill="none" xmlns="http://www.w3.org/2000/svg">
<g clip-path="url(#clip0_1963_29688)">
<path d="M11.2 15.4665C14.735 15.4665 17.6 12.6015 17.6 9.0665C17.6 5.5315 14.735 2.6665 11.2 2.6665C7.665 2.6665 4.8 5.5315 4.8 9.0665C4.8 12.6015 7.665 15.4665 11.2 15.4665ZM15.68 17.0665H14.845C13.735 17.5765 12.5 17.8665 11.2 17.8665C9.9 17.8665 8.67 17.5765 7.555 17.0665H6.72C3.01 17.0665 0 20.0765 0 23.7865V25.8665C0 27.1915 1.075 28.2665 2.4 28.2665H20C21.325 28.2665 22.4 27.1915 22.4 25.8665V23.7865C22.4 20.0765 19.39 17.0665 15.68 17.0665Z" fill="white"/>
<path opacity="0.6" d="M21.6003 13.0664H31.2003C31.6403 13.0664 32.0003 13.4264 32.0003 13.8664V15.4664C32.0003 15.9064 31.6403 16.2664 31.2003 16.2664H21.6003C21.1603 16.2664 20.8003 15.9064 20.8003 15.4664V13.8664C20.8003 13.4264 21.1603 13.0664 21.6003 13.0664Z" fill="white"/>
</g>
<defs>
<clipPath id="clip0_1963_29688">
<rect width="32" height="32" fill="white"/>
</clipPath>
</defs>
</svg>
