<svg width="30" height="30" viewBox="0 0 30 30" fill="none" xmlns="http://www.w3.org/2000/svg">
<path d="M4.875 15.25H13.875V17.5H16.125V15.25H25.125V17.5H27.375V14.8005C27.375 13.8081 26.5673 13 25.5745 13H16.125V10H18C18.8283 10 19.5 9.32828 19.5 8.5V4C19.5 3.17172 18.8283 2.5 18 2.5H12C11.1717 2.5 10.5 3.17172 10.5 4V8.5C10.5 9.32828 11.1717 10 12 10H13.875V13H4.42547C3.43266 13 2.625 13.8077 2.625 14.8005V17.5H4.875V15.25Z" fill="#0A77DB"/>
<path d="M1.5 19H6C6.82828 19 7.5 19.6717 7.5 20.5V25C7.5 25.8283 6.82828 26.5 6 26.5H1.5C0.671719 26.5 0 25.8283 0 25V20.5C0 19.6717 0.671719 19 1.5 19Z" fill="#0A77DB" fill-opacity="0.5"/>
<path d="M12.75 19H17.25C18.0783 19 18.75 19.6717 18.75 20.5V25C18.75 25.8283 18.0783 26.5 17.25 26.5H12.75C11.9217 26.5 11.25 25.8283 11.25 25V20.5C11.25 19.6717 11.9217 19 12.75 19Z" fill="#0A77DB" fill-opacity="0.5"/>
<path d="M24 19H28.5C29.3283 19 30 19.6717 30 20.5V25C30 25.8283 29.3283 26.5 28.5 26.5H24C23.1717 26.5 22.5 25.8283 22.5 25V20.5C22.5 19.6717 23.1717 19 24 19Z" fill="#0A77DB" fill-opacity="0.5"/>
</svg>
