<svg width="36" height="36" viewBox="0 0 36 36" fill="none" xmlns="http://www.w3.org/2000/svg">
<path fill-rule="evenodd" clip-rule="evenodd" d="M4.5 2.25H31.5C32.0967 2.25 32.669 2.48705 33.091 2.90901C33.5129 3.33097 33.75 3.90326 33.75 4.5V31.5C33.75 32.0967 33.5129 32.669 33.091 33.091C32.669 33.5129 32.0967 33.75 31.5 33.75H4.5C3.90326 33.75 3.33097 33.5129 2.90901 33.091C2.48705 32.669 2.25 32.0967 2.25 31.5V4.5C2.25 3.90326 2.48705 3.33097 2.90901 2.90901C3.33097 2.48705 3.90326 2.25 4.5 2.25V2.25ZM31.5 0C32.6935 0 33.8381 0.474106 34.682 1.31802C35.5259 2.16193 36 3.30653 36 4.5V31.5C36 32.6935 35.5259 33.8381 34.682 34.682C33.8381 35.5259 32.6935 36 31.5 36H4.5C3.30653 36 2.16193 35.5259 1.31802 34.682C0.474106 33.8381 0 32.6935 0 31.5V4.5C0 3.30653 0.474106 2.16193 1.31802 1.31802C2.16193 0.474106 3.30653 0 4.5 0L31.5 0Z" fill="white"/>
<path fill-rule="evenodd" clip-rule="evenodd" d="M11.25 33.75V2.25H9V33.75H11.25ZM29.25 7.875C29.25 7.57663 29.1315 7.29048 28.9205 7.07951C28.7095 6.86853 28.4234 6.75 28.125 6.75H16.875C16.5766 6.75 16.2905 6.86853 16.0795 7.07951C15.8685 7.29048 15.75 7.57663 15.75 7.875C15.75 8.17337 15.8685 8.45952 16.0795 8.67049C16.2905 8.88147 16.5766 9 16.875 9H28.125C28.4234 9 28.7095 8.88147 28.9205 8.67049C29.1315 8.45952 29.25 8.17337 29.25 7.875ZM29.25 14.625C29.25 14.3266 29.1315 14.0405 28.9205 13.8295C28.7095 13.6185 28.4234 13.5 28.125 13.5H16.875C16.5766 13.5 16.2905 13.6185 16.0795 13.8295C15.8685 14.0405 15.75 14.3266 15.75 14.625C15.75 14.9234 15.8685 15.2095 16.0795 15.4205C16.2905 15.6315 16.5766 15.75 16.875 15.75H28.125C28.4234 15.75 28.7095 15.6315 28.9205 15.4205C29.1315 15.2095 29.25 14.9234 29.25 14.625ZM29.25 21.375C29.25 21.0766 29.1315 20.7905 28.9205 20.5795C28.7095 20.3685 28.4234 20.25 28.125 20.25H16.875C16.5766 20.25 16.2905 20.3685 16.0795 20.5795C15.8685 20.7905 15.75 21.0766 15.75 21.375C15.75 21.6734 15.8685 21.9595 16.0795 22.1705C16.2905 22.3815 16.5766 22.5 16.875 22.5H28.125C28.4234 22.5 28.7095 22.3815 28.9205 22.1705C29.1315 21.9595 29.25 21.6734 29.25 21.375ZM29.25 28.125C29.25 27.8266 29.1315 27.5405 28.9205 27.3295C28.7095 27.1185 28.4234 27 28.125 27H16.875C16.5766 27 16.2905 27.1185 16.0795 27.3295C15.8685 27.5405 15.75 27.8266 15.75 28.125C15.75 28.4234 15.8685 28.7095 16.0795 28.9205C16.2905 29.1315 16.5766 29.25 16.875 29.25H28.125C28.4234 29.25 28.7095 29.1315 28.9205 28.9205C29.1315 28.7095 29.25 28.4234 29.25 28.125Z" fill="white"/>
</svg>
