<svg width="30" height="30" viewBox="0 0 30 30" fill="none" xmlns="http://www.w3.org/2000/svg">
<path d="M10.5006 14.496C13.8149 14.496 16.501 11.8099 16.501 8.49566C16.501 5.1861 13.8149 2.5 10.5006 2.5C7.18636 2.5 4.50026 5.18609 4.50026 8.50035C4.50026 11.8099 7.18636 14.496 10.5006 14.496ZM16.4916 19.7088V16.2821C15.9197 16.1133 15.3243 15.9914 14.7009 15.9914H13.918C12.8773 16.4696 11.7194 16.7415 10.5006 16.7415C9.28179 16.7415 8.1286 16.4696 7.08323 15.9914H6.30037C2.82204 15.9961 0 18.8181 0 22.2965V24.2466C0 25.4888 1.00787 26.4967 2.25013 26.4967H18.7511C19.4777 26.4967 20.1152 26.1451 20.5278 25.6107L17.8089 22.8918C16.9604 22.0433 16.4916 20.9136 16.4916 19.7088Z" fill="#0A77DB"/>
<path opacity="0.6" d="M29.3866 20.105L25.1536 15.8766C24.591 15.3141 23.8269 15 23.03 15H19.3126C18.4829 15 17.8125 15.6704 17.8125 16.5001V20.2128C17.8125 21.0097 18.1266 21.7691 18.6891 22.3317L22.9222 26.5601C23.5081 27.146 24.4598 27.146 25.0457 26.5601L29.3819 22.2239C29.9726 21.6379 29.9726 20.691 29.3866 20.105ZM20.8174 19.1206C20.1939 19.1206 19.6923 18.619 19.6923 17.9955C19.6923 17.372 20.1939 16.8704 20.8174 16.8704C21.4408 16.8704 21.9424 17.372 21.9424 17.9955C21.9424 18.6143 21.4408 19.1206 20.8174 19.1206Z" fill="#0A77DB"/>
</svg>
