<svg width="32" height="32" viewBox="0 0 32 32" fill="none" xmlns="http://www.w3.org/2000/svg">
<path d="M6.4 20.2665H1.6C0.7165 20.2665 0 20.983 0 21.8665V26.6665C0 27.55 0.7165 28.2665 1.6 28.2665H6.4C7.2835 28.2665 8 27.55 8 26.6665V21.8665C8 20.983 7.2835 20.2665 6.4 20.2665ZM5.2 16.2665H14.8V18.6665H17.2V16.2665H26.8V18.6665H29.2V15.787C29.2 14.7285 28.3385 13.8665 27.2795 13.8665H17.2V10.6665H19.2C20.0835 10.6665 20.8 9.95 20.8 9.0665V4.2665C20.8 3.383 20.0835 2.6665 19.2 2.6665H12.8C11.9165 2.6665 11.2 3.383 11.2 4.2665V9.0665C11.2 9.95 11.9165 10.6665 12.8 10.6665H14.8V13.8665H4.7205C3.6615 13.8665 2.8 14.728 2.8 15.787V18.6665H5.2V16.2665ZM18.4 20.2665H13.6C12.7165 20.2665 12 20.983 12 21.8665V26.6665C12 27.55 12.7165 28.2665 13.6 28.2665H18.4C19.2835 28.2665 20 27.55 20 26.6665V21.8665C20 20.983 19.2835 20.2665 18.4 20.2665ZM30.4 20.2665H25.6C24.7165 20.2665 24 20.983 24 21.8665V26.6665C24 27.55 24.7165 28.2665 25.6 28.2665H30.4C31.2835 28.2665 32 27.55 32 26.6665V21.8665C32 20.983 31.2835 20.2665 30.4 20.2665Z" fill="white"/>
</svg>
