<svg width="30" height="30" viewBox="0 0 30 30" fill="none" xmlns="http://www.w3.org/2000/svg">
<path fill-rule="evenodd" clip-rule="evenodd" d="M8.03364 26C7.44132 26 7.11781 24.1283 7.12871 23.5C7.12871 21.0364 8.82603 19 11.5484 17.1736C10.4417 16.8223 9.98391 16.8952 8.82603 16.9091C1.7652 16.9091 0 22.3636 0 24.1818C0 26 1.76521 26 1.76521 26H8.03364ZM7.94342 15.0909C9.11383 15.0909 10.2363 14.612 11.0639 13.7596C11.8915 12.9071 12.3564 11.751 12.3564 10.5455C12.3564 9.33993 11.8915 8.18377 11.0639 7.33133C10.2363 6.47889 9.11383 6 7.94342 6C6.77302 6 5.65055 6.47889 4.82295 7.33133C3.99535 8.18377 3.53041 9.33993 3.53041 10.5455C3.53041 11.751 3.99535 12.9071 4.82295 13.7596C5.65055 14.612 6.77302 15.0909 7.94342 15.0909Z" fill="#0A77DB" fill-opacity="0.5"/>
<path fill-rule="evenodd" clip-rule="evenodd" d="M10.3955 26.25C10.3955 26.25 8.61328 26.25 8.61328 24.375C8.61328 22.5 10.3955 16.875 19.3064 16.875C28.2172 16.875 29.9994 22.5 29.9994 24.375C29.9994 26.25 28.2172 26.25 28.2172 26.25H10.3955ZM19.3064 15C20.7243 15 22.0843 14.4074 23.0869 13.3525C24.0896 12.2976 24.6529 10.8668 24.6529 9.375C24.6529 7.88316 24.0896 6.45242 23.0869 5.39752C22.0843 4.34263 20.7243 3.75 19.3064 3.75C17.8884 3.75 16.5284 4.34263 15.5258 5.39752C14.5231 6.45242 13.9598 7.88316 13.9598 9.375C13.9598 10.8668 14.5231 12.2976 15.5258 13.3525C16.5284 14.4074 17.8884 15 19.3064 15Z" fill="#0A77DB"/>
</svg>
