<svg width="30" height="30" viewBox="0 0 30 30" fill="none" xmlns="http://www.w3.org/2000/svg">
<g clip-path="url(#clip0_9219_25786)">
<path fill-rule="evenodd" clip-rule="evenodd" d="M20.3524 19.3985C20.4397 19.4856 20.509 19.589 20.5563 19.7029C20.6035 19.8168 20.6279 19.9389 20.6279 20.0622C20.6279 20.1855 20.6035 20.3076 20.5563 20.4215C20.509 20.5354 20.4397 20.6389 20.3524 20.726L14.7274 26.351C14.6403 26.4383 14.5369 26.5075 14.423 26.5548C14.3091 26.6021 14.187 26.6264 14.0637 26.6264C13.9404 26.6264 13.8183 26.6021 13.7044 26.5548C13.5905 26.5075 13.487 26.4383 13.3999 26.351L10.5874 23.5385C10.5003 23.4513 10.4311 23.3478 10.384 23.2339C10.3368 23.1201 10.3125 22.998 10.3125 22.8747C10.3125 22.7515 10.3368 22.6294 10.384 22.5155C10.4311 22.4016 10.5003 22.2981 10.5874 22.211C10.7635 22.0349 11.0022 21.936 11.2512 21.936C11.3745 21.936 11.4965 21.9603 11.6104 22.0075C11.7243 22.0547 11.8278 22.1238 11.9149 22.211L14.0637 24.3616L19.0249 19.3985C19.112 19.3112 19.2155 19.2419 19.3294 19.1946C19.4433 19.1474 19.5654 19.123 19.6887 19.123C19.812 19.123 19.9341 19.1474 20.048 19.1946C20.1619 19.2419 20.2654 19.3112 20.3524 19.3985V19.3985Z" fill="#0A77DB"/>
<path fill-rule="evenodd" clip-rule="evenodd" d="M1.875 7.5V26.25C1.875 26.7473 2.07254 27.2242 2.42417 27.5758C2.77581 27.9275 3.25272 28.125 3.75 28.125H26.25C26.7473 28.125 27.2242 27.9275 27.5758 27.5758C27.9275 27.2242 28.125 26.7473 28.125 26.25V7.5H1.875ZM3.75 1.875C2.75544 1.875 1.80161 2.27009 1.09835 2.97335C0.395088 3.67661 0 4.63044 0 5.625L0 26.25C0 27.2446 0.395088 28.1984 1.09835 28.9016C1.80161 29.6049 2.75544 30 3.75 30H26.25C27.2446 30 28.1984 29.6049 28.9016 28.9016C29.6049 28.1984 30 27.2446 30 26.25V5.625C30 4.63044 29.6049 3.67661 28.9016 2.97335C28.1984 2.27009 27.2446 1.875 26.25 1.875H3.75Z" fill="#0A77DB"/>
<path fill-rule="evenodd" clip-rule="evenodd" d="M6.5625 0C6.81114 0 7.0496 0.0987721 7.22541 0.274587C7.40123 0.450403 7.5 0.68886 7.5 0.9375V1.875C7.5 2.12364 7.40123 2.3621 7.22541 2.53791C7.0496 2.71373 6.81114 2.8125 6.5625 2.8125C6.31386 2.8125 6.0754 2.71373 5.89959 2.53791C5.72377 2.3621 5.625 2.12364 5.625 1.875V0.9375C5.625 0.68886 5.72377 0.450403 5.89959 0.274587C6.0754 0.0987721 6.31386 0 6.5625 0V0ZM23.4375 0C23.6861 0 23.9246 0.0987721 24.1004 0.274587C24.2762 0.450403 24.375 0.68886 24.375 0.9375V1.875C24.375 2.12364 24.2762 2.3621 24.1004 2.53791C23.9246 2.71373 23.6861 2.8125 23.4375 2.8125C23.1889 2.8125 22.9504 2.71373 22.7746 2.53791C22.5988 2.3621 22.5 2.12364 22.5 1.875V0.9375C22.5 0.68886 22.5988 0.450403 22.7746 0.274587C22.9504 0.0987721 23.1889 0 23.4375 0V0Z" fill="#0A77DB"/>
<path opacity="0.5" d="M9.749 9.675H12.136C12.4 9.675 12.565 9.796 12.631 10.038L15.084 17.056C15.0913 17.078 15.095 17.1147 15.095 17.166C15.095 17.21 15.0693 17.2577 15.018 17.309C14.974 17.353 14.919 17.375 14.853 17.375H12.818C12.598 17.375 12.455 17.2833 12.389 17.1L12.125 16.374H9.76L9.496 17.1C9.43 17.2833 9.287 17.375 9.067 17.375H7.032C6.966 17.375 6.90733 17.353 6.856 17.309C6.812 17.2577 6.79 17.21 6.79 17.166C6.79 17.1147 6.79367 17.078 6.801 17.056L9.254 10.038C9.32 9.796 9.485 9.675 9.749 9.675ZM10.321 14.229H11.564L10.937 12.183L10.321 14.229ZM18.7707 15.12H21.8177C21.8984 15.12 21.9681 15.1493 22.0267 15.208C22.0854 15.2667 22.1147 15.3363 22.1147 15.417V17.078C22.1147 17.1587 22.0854 17.2283 22.0267 17.287C21.9681 17.3457 21.8984 17.375 21.8177 17.375H16.2737C16.1931 17.375 16.1234 17.3457 16.0647 17.287C16.0061 17.2283 15.9767 17.1587 15.9767 17.078V9.972C15.9767 9.89133 16.0061 9.82167 16.0647 9.763C16.1234 9.70433 16.1931 9.675 16.2737 9.675H18.4737C18.5544 9.675 18.6241 9.70433 18.6827 9.763C18.7414 9.82167 18.7707 9.89133 18.7707 9.972V15.12Z" fill="#0A77DB"/>
</g>
<defs>
<clipPath id="clip0_9219_25786">
<rect width="30" height="30" fill="white"/>
</clipPath>
</defs>
</svg>
