<svg width="30" height="30" viewBox="0 0 30 30" fill="none" xmlns="http://www.w3.org/2000/svg">
<rect x="19" y="13" width="9" height="2" rx="1" fill="#0A77DB" fill-opacity="0.5"/>
<path d="M15.0023 13.021C14.0134 13.988 12.672 14.5312 11.2734 14.5312C9.87484 14.5312 8.53351 13.988 7.54455 13.021C6.55559 12.054 6 10.7425 6 9.375C6 8.00748 6.55559 6.69597 7.54455 5.72898C8.53351 4.762 9.87484 4.21875 11.2734 4.21875C12.672 4.21875 14.0134 4.762 15.0023 5.72898C15.9913 6.69597 16.5469 8.00748 16.5469 9.375C16.5469 10.7425 15.9913 12.054 15.0023 13.021Z" fill="#0A77DB"/>
<path d="M2.48438 23.125C2.48438 24.8437 4.24219 24.8437 4.24219 24.8437H18.3047C18.3047 24.8437 20.0625 24.8437 20.0625 23.125C20.0625 21.4062 18.3047 16.25 11.2734 16.25C4.24219 16.25 2.48438 21.4062 2.48438 23.125Z" fill="#0A77DB"/>
</svg>
