<svg width="32" height="33" viewBox="0 0 32 33" fill="none" xmlns="http://www.w3.org/2000/svg">
<path opacity="0.6" d="M3.19922 7.17572V5.04238C3.19922 4.15865 3.91549 3.44238 4.79922 3.44238C5.68242 3.44238 6.39922 4.15865 6.39922 5.04238V7.17572H3.19922Z" fill="white"/>
<path d="M27.198 19.9754H15.0594L13.4012 17.4885C13.1042 17.0431 12.6044 16.7754 12.069 16.7754H4.80018C3.75218 16.7754 2.98738 17.7653 3.25191 18.7797L5.61725 27.8463C5.80125 28.5503 6.43698 29.0421 7.16551 29.0421H25.1276C25.8055 29.0421 26.4103 28.6143 26.6359 27.9743L28.7068 22.1077C29.0743 21.0671 28.3015 19.9754 27.198 19.9754V19.9754Z" fill="white"/>
<path opacity="0.6" d="M24.5352 10.9092H25.6018C26.485 10.9092 27.2018 11.6254 27.2018 12.5092V18.3758H24.5352" fill="white"/>
<path opacity="0.6" d="M6.40104 15.1758H3.73438V12.5092C3.73438 11.6254 4.45064 10.9092 5.33438 10.9092H6.40104V15.1758Z" fill="white"/>
<path d="M20.2685 3.44238H6.92188C7.26001 3.88932 7.46854 4.43972 7.46854 5.04238V15.1757H12.0717C13.1437 15.1757 14.1395 15.708 14.7352 16.6002L15.9187 18.3757H23.4685V6.64238C23.4685 4.87545 22.0355 3.44238 20.2685 3.44238ZM11.2019 6.10905H16.5352C17.124 6.10905 17.6019 6.58692 17.6019 7.17572C17.6019 7.76452 17.124 8.24238 16.5352 8.24238H11.2019C10.6131 8.24238 10.1352 7.76452 10.1352 7.17572C10.1352 6.58692 10.6131 6.10905 11.2019 6.10905ZM19.7352 12.509H11.2019C10.6131 12.509 10.1352 12.0312 10.1352 11.4424C10.1352 10.8536 10.6131 10.3757 11.2019 10.3757H19.7352C20.324 10.3757 20.8019 10.8536 20.8019 11.4424C20.8019 12.0312 20.324 12.509 19.7352 12.509Z" fill="white"/>
</svg>
