<svg width="32" height="33" viewBox="0 0 32 33" fill="none" xmlns="http://www.w3.org/2000/svg">
<g clip-path="url(#clip0_4483_82876)">
<path d="M26.668 8.24219V6.90885H24.0013V8.24219H21.3346V5.57552C21.3346 4.83952 20.7373 4.24219 20.0013 4.24219H12.0013C11.2653 4.24219 10.668 4.83952 10.668 5.57552V8.24219H8.0013V6.90885H5.33464V8.24219C3.86397 8.24219 2.66797 9.43819 2.66797 10.9089V26.9089C2.66797 28.3809 3.86397 29.5755 5.33464 29.5755H26.668C28.1386 29.5755 29.3346 28.3809 29.3346 26.9089V10.9089C29.3346 9.43819 28.1386 8.24219 26.668 8.24219ZM13.3346 6.90885H18.668V8.24219H13.3346V6.90885ZM20.0013 16.2422H15.3346C14.9666 16.2422 14.668 16.5422 14.668 16.9089C14.668 17.2769 14.9666 17.5755 15.3346 17.5755H16.668C18.5053 17.5755 20.0013 19.0715 20.0013 20.9089C20.0013 22.5195 18.8546 23.8662 17.3346 24.1755V25.5755H14.668V24.2422H12.0013V21.5755H16.668C17.036 21.5755 17.3346 21.2769 17.3346 20.9089C17.3346 20.5422 17.036 20.2422 16.668 20.2422H15.3346C13.496 20.2422 12.0013 18.7462 12.0013 16.9089C12.0013 15.2995 13.148 13.9529 14.668 13.6435V12.2422H17.3346V13.5755H20.0013V16.2422Z" fill="white"/>
</g>
<defs>
<clipPath id="clip0_4483_82876">
<rect width="32" height="32" fill="white" transform="translate(0 0.242188)"/>
</clipPath>
</defs>
</svg>
