<svg width="32" height="33" viewBox="0 0 32 33" fill="none" xmlns="http://www.w3.org/2000/svg">
<g clip-path="url(#clip0_6395_138271)">
<path fill-rule="evenodd" clip-rule="evenodd" d="M21.7093 14.7703C21.8024 14.8632 21.8763 14.9736 21.9267 15.0951C21.9771 15.2166 22.0031 15.3468 22.0031 15.4783C22.0031 15.6099 21.9771 15.7401 21.9267 15.8616C21.8763 15.9831 21.8024 16.0935 21.7093 16.1863L15.7093 22.1863C15.6164 22.2795 15.506 22.3534 15.3845 22.4038C15.263 22.4542 15.1328 22.4801 15.0013 22.4801C14.8697 22.4801 14.7395 22.4542 14.618 22.4038C14.4965 22.3534 14.3862 22.2795 14.2933 22.1863L11.2933 19.1863C11.2003 19.0934 11.1265 18.983 11.0762 18.8615C11.0259 18.74 11 18.6098 11 18.4783C11 18.3469 11.0259 18.2167 11.0762 18.0952C11.1265 17.9737 11.2003 17.8633 11.2933 17.7703C11.481 17.5826 11.7357 17.4771 12.0013 17.4771C12.1328 17.4771 12.263 17.503 12.3844 17.5533C12.5059 17.6036 12.6163 17.6774 12.7093 17.7703L15.0013 20.0644L20.2933 14.7703C20.3862 14.6772 20.4965 14.6033 20.618 14.5529C20.7395 14.5025 20.8697 14.4766 21.0013 14.4766C21.1328 14.4766 21.263 14.5025 21.3845 14.5529C21.506 14.6033 21.6164 14.6772 21.7093 14.7703V14.7703Z" fill="white"/>
<path fill-rule="evenodd" clip-rule="evenodd" d="M2 8.47852V28.4785C2 29.0089 2.21071 29.5177 2.58579 29.8927C2.96086 30.2678 3.46957 30.4785 4 30.4785H28C28.5304 30.4785 29.0391 30.2678 29.4142 29.8927C29.7893 29.5177 30 29.0089 30 28.4785V8.47852H2ZM4 2.47852C2.93913 2.47852 1.92172 2.89994 1.17157 3.65009C0.421427 4.40023 0 5.41765 0 6.47852L0 28.4785C0 29.5394 0.421427 30.5568 1.17157 31.3069C1.92172 32.0571 2.93913 32.4785 4 32.4785H28C29.0609 32.4785 30.0783 32.0571 30.8284 31.3069C31.5786 30.5568 32 29.5394 32 28.4785V6.47852C32 5.41765 31.5786 4.40023 30.8284 3.65009C30.0783 2.89994 29.0609 2.47852 28 2.47852H4Z" fill="white"/>
<path fill-rule="evenodd" clip-rule="evenodd" d="M7 0.478516C7.26522 0.478516 7.51957 0.583872 7.70711 0.771409C7.89464 0.958945 8 1.2133 8 1.47852V2.47852C8 2.74373 7.89464 2.99809 7.70711 3.18562C7.51957 3.37316 7.26522 3.47852 7 3.47852C6.73478 3.47852 6.48043 3.37316 6.29289 3.18562C6.10536 2.99809 6 2.74373 6 2.47852V1.47852C6 1.2133 6.10536 0.958945 6.29289 0.771409C6.48043 0.583872 6.73478 0.478516 7 0.478516V0.478516ZM25 0.478516C25.2652 0.478516 25.5196 0.583872 25.7071 0.771409C25.8946 0.958945 26 1.2133 26 1.47852V2.47852C26 2.74373 25.8946 2.99809 25.7071 3.18562C25.5196 3.37316 25.2652 3.47852 25 3.47852C24.7348 3.47852 24.4804 3.37316 24.2929 3.18562C24.1054 2.99809 24 2.74373 24 2.47852V1.47852C24 1.2133 24.1054 0.958945 24.2929 0.771409C24.4804 0.583872 24.7348 0.478516 25 0.478516V0.478516Z" fill="white"/>
</g>
<defs>
<clipPath id="clip0_6395_138271">
<rect width="32" height="32" fill="white" transform="translate(0 0.478516)"/>
</clipPath>
</defs>
</svg>
