<svg width="30" height="30" viewBox="0 0 30 30" fill="none" xmlns="http://www.w3.org/2000/svg">
<path d="M10 17.2501C10 16.5596 9.4405 16.0001 8.75 16.0001C8.454 16.0001 8.1855 16.1076 7.971 16.2796L5.5 18.4186V12.5356L3.1525 14.8046C2.416 15.5166 2 16.4971 2 17.5216V27.5001H6.5V26.0206C6.5 25.5911 6.6815 25.1936 6.9575 24.8646C7.7775 23.8856 7.956 22.3531 7.9885 20.9581C7.998 20.5556 8.133 20.1676 8.374 19.8446L9.767 17.9731C9.9125 17.7686 10 17.5201 10 17.2501Z" fill="#0A77DB"/>
<path d="M25.3055 18.023L21.24 18.8205L18.7975 15.0685C18.5625 14.7065 18.1715 14.5 17.7705 14.5C17.0705 14.5 16.5 15.0625 16.5 15.7655C16.5 15.9945 16.568 16.2255 16.7025 16.4315L19.5 20.7275V23.297C19.4995 23.783 19.6395 24.2605 19.9065 24.67L21.0415 26.414C21.4045 26.9715 21.974 27.362 22.625 27.5L25.587 28.2485L28.9395 26.0665C28.788 23.7985 28.067 20.065 27.329 18.931C26.9475 18.3445 26.298 18 25.612 18.0005C25.5105 18 25.408 18.0075 25.3055 18.023V18.023Z" fill="#0A77DB"/>
<path d="M7.317 15.5235C7.681 15.2305 8.0805 15.0695 8.5 15.0215V4.5H23.5V17.358L25.1135 17.0415C25.3035 17.0115 25.4575 17 25.612 17C26.311 17 26.97 17.2405 27.5 17.6605V4C27.5 3.1715 26.8285 2.5 26 2.5H8C7.1715 2.5 6.5 3.1715 6.5 4V16.23L7.317 15.5235Z" fill="#0A77DB"/>
<path d="M16.5299 18H10.8649C10.7954 18.194 10.7034 18.381 10.5809 18.5525L9.50391 20H17.8324L16.5299 18Z" fill="#0A77DB"/>
<g opacity="0.6" clip-path="url(#clip0_9111_92378)">
<path d="M13.2207 7.64805C13.5215 7.34297 13.8223 7.06797 13.9555 7.12383C14.1703 7.20977 13.9555 7.56641 13.8266 7.77695C13.7191 7.95742 12.5977 9.44844 12.5977 10.4883C12.5977 11.0383 12.8039 11.4938 13.1734 11.7688C13.4957 12.0094 13.9211 12.0824 14.3078 11.9664C14.7676 11.8332 15.1457 11.3648 15.6227 10.7762C16.1426 10.1359 16.8387 9.29805 17.3758 9.29805C18.0762 9.29805 18.0848 9.73203 18.132 10.0672C16.5078 10.3422 15.8203 11.6441 15.8203 12.3746C15.8203 13.1051 16.4391 13.7023 17.1996 13.7023C17.9 13.7023 19.043 13.1309 19.2148 11.0813L20.2719 11.0813V10.007L19.2105 10.007C19.1461 9.29805 18.7422 8.20234 17.4789 8.20234C16.5121 8.20234 15.6828 9.02305 15.3563 9.42266C15.107 9.73633 14.4711 10.4883 14.3723 10.5914C14.2648 10.7203 14.0801 10.9523 13.8953 10.9523C13.702 10.9523 13.5859 10.5957 13.7406 10.1273C13.891 9.65898 14.3422 8.89844 14.5355 8.61484C14.8707 8.125 15.0941 7.78984 15.0941 7.20547C15.0941 6.27305 14.3895 5.97656 14.0156 5.97656C13.4484 5.97656 12.9543 6.40625 12.8469 6.51367C12.6922 6.66836 12.5633 6.79727 12.4687 6.91328L13.2207 7.64805ZM17.2125 12.6582C17.0793 12.6582 16.8945 12.5465 16.8945 12.3488C16.8945 12.091 17.2082 11.4035 18.1277 11.1629C17.9988 12.3188 17.5133 12.6582 17.2125 12.6582Z" fill="#0A77DB"/>
</g>
<defs>
<clipPath id="clip0_9111_92378">
<rect width="10.3125" height="10.3125" fill="white" transform="translate(11.25 4.6875)"/>
</clipPath>
</defs>
</svg>
