<svg width="32" height="32" viewBox="0 0 32 32" fill="none" xmlns="http://www.w3.org/2000/svg">
<g clip-path="url(#clip0_4481_73879)">
<path d="M4 18.627V26.5057C4 27.9541 5.196 29.132 6.66667 29.132H14.6667V18.627H4V18.627Z" fill="white"/>
<path d="M17.3359 18.627V29.132H25.3359C26.8066 29.132 28.0026 27.9541 28.0026 26.5057V18.627H17.3359V18.627Z" fill="white"/>
<path opacity="0.6" d="M26.668 10.7478H22.516C23.1173 10.4405 23.6866 10.0636 24.1626 9.59615C25.7213 8.0611 25.7213 5.56221 24.1626 4.02322C22.6506 2.53806 20.02 2.53675 18.5066 4.02453C16.3253 6.17412 16.0306 10.2199 16.004 10.6742C16.0013 10.6992 16.0146 10.7215 16.0146 10.7478H15.988C15.988 10.7228 16.0013 10.6992 16 10.6729C15.9733 10.2186 15.6786 6.17281 13.496 4.0219C11.984 2.53675 9.35064 2.53675 7.83864 4.02322C6.27997 5.55958 6.27997 8.05847 7.83864 9.59483C8.31464 10.0623 8.8853 10.4392 9.48664 10.7464H5.33464C3.86397 10.7464 2.66797 11.9243 2.66797 13.3727V17.3121H14.668V12.0596H17.3346V17.3121H29.3346V13.3727C29.3346 11.9256 28.1386 10.7478 26.668 10.7478ZM9.7253 7.73806C9.2053 7.22594 9.2053 6.39342 9.7253 5.87998C9.97597 5.63311 10.3106 5.49655 10.668 5.49655C11.0253 5.49655 11.36 5.63311 11.612 5.87998C12.3986 6.65473 12.8573 8.04402 13.1026 9.20352C11.928 8.9619 10.5066 8.50756 9.7253 7.73806ZM18.9 9.20614C19.1453 8.04665 19.604 6.65604 20.3906 5.8813C20.6426 5.63311 20.9786 5.49655 21.3346 5.49655C21.6906 5.49655 22.0266 5.63311 22.276 5.87867C22.796 6.3921 22.7973 7.22594 22.276 7.73806C21.4893 8.51412 20.0773 8.96584 18.9 9.20614Z" fill="white"/>
</g>
<defs>
<clipPath id="clip0_4481_73879">
<rect width="32" height="31.5152" fill="white" transform="translate(0 0.242188)"/>
</clipPath>
</defs>
</svg>
