<svg width="32" height="33" viewBox="0 0 32 33" fill="none" xmlns="http://www.w3.org/2000/svg">
<g clip-path="url(#clip0_6395_138267)">
<path fill-rule="evenodd" clip-rule="evenodd" d="M2 8.47852V28.4785C2 29.0089 2.21071 29.5177 2.58579 29.8927C2.96086 30.2678 3.46957 30.4785 4 30.4785H28C28.5304 30.4785 29.0391 30.2678 29.4142 29.8927C29.7893 29.5177 30 29.0089 30 28.4785V8.47852H2ZM4 2.47852C2.93913 2.47852 1.92172 2.89994 1.17157 3.65009C0.421427 4.40023 0 5.41765 0 6.47852L0 28.4785C0 29.5394 0.421427 30.5568 1.17157 31.3069C1.92172 32.0571 2.93913 32.4785 4 32.4785H28C29.0609 32.4785 30.0783 32.0571 30.8284 31.3069C31.5786 30.5568 32 29.5394 32 28.4785V6.47852C32 5.41765 31.5786 4.40023 30.8284 3.65009C30.0783 2.89994 29.0609 2.47852 28 2.47852H4Z" fill="white"/>
<path fill-rule="evenodd" clip-rule="evenodd" d="M7 0.478516C7.26522 0.478516 7.51957 0.583872 7.70711 0.771409C7.89464 0.958945 8 1.2133 8 1.47852V2.47852C8 2.74373 7.89464 2.99809 7.70711 3.18562C7.51957 3.37316 7.26522 3.47852 7 3.47852C6.73478 3.47852 6.48043 3.37316 6.29289 3.18562C6.10536 2.99809 6 2.74373 6 2.47852V1.47852C6 1.2133 6.10536 0.958945 6.29289 0.771409C6.48043 0.583872 6.73478 0.478516 7 0.478516V0.478516ZM25 0.478516C25.2652 0.478516 25.5196 0.583872 25.7071 0.771409C25.8946 0.958945 26 1.2133 26 1.47852V2.47852C26 2.74373 25.8946 2.99809 25.7071 3.18562C25.5196 3.37316 25.2652 3.47852 25 3.47852C24.7348 3.47852 24.4804 3.37316 24.2929 3.18562C24.1054 2.99809 24 2.74373 24 2.47852V1.47852C24 1.2133 24.1054 0.958945 24.2929 0.771409C24.4804 0.583872 24.7348 0.478516 25 0.478516V0.478516Z" fill="white"/>
<path d="M22 13.4785C22 13.2133 22.1054 12.9589 22.2929 12.7714C22.4804 12.5839 22.7348 12.4785 23 12.4785H25C25.2652 12.4785 25.5196 12.5839 25.7071 12.7714C25.8946 12.9589 26 13.2133 26 13.4785V15.4785C26 15.7437 25.8946 15.9981 25.7071 16.1856C25.5196 16.3732 25.2652 16.4785 25 16.4785H23C22.7348 16.4785 22.4804 16.3732 22.2929 16.1856C22.1054 15.9981 22 15.7437 22 15.4785V13.4785ZM16 13.4785C16 13.2133 16.1054 12.9589 16.2929 12.7714C16.4804 12.5839 16.7348 12.4785 17 12.4785H19C19.2652 12.4785 19.5196 12.5839 19.7071 12.7714C19.8946 12.9589 20 13.2133 20 13.4785V15.4785C20 15.7437 19.8946 15.9981 19.7071 16.1856C19.5196 16.3732 19.2652 16.4785 19 16.4785H17C16.7348 16.4785 16.4804 16.3732 16.2929 16.1856C16.1054 15.9981 16 15.7437 16 15.4785V13.4785ZM6 19.4785C6 19.2133 6.10536 18.9589 6.29289 18.7714C6.48043 18.5839 6.73478 18.4785 7 18.4785H9C9.26522 18.4785 9.51957 18.5839 9.70711 18.7714C9.89464 18.9589 10 19.2133 10 19.4785V21.4785C10 21.7437 9.89464 21.9981 9.70711 22.1856C9.51957 22.3732 9.26522 22.4785 9 22.4785H7C6.73478 22.4785 6.48043 22.3732 6.29289 22.1856C6.10536 21.9981 6 21.7437 6 21.4785V19.4785ZM12 19.4785C12 19.2133 12.1054 18.9589 12.2929 18.7714C12.4804 18.5839 12.7348 18.4785 13 18.4785H15C15.2652 18.4785 15.5196 18.5839 15.7071 18.7714C15.8946 18.9589 16 19.2133 16 19.4785V21.4785C16 21.7437 15.8946 21.9981 15.7071 22.1856C15.5196 22.3732 15.2652 22.4785 15 22.4785H13C12.7348 22.4785 12.4804 22.3732 12.2929 22.1856C12.1054 21.9981 12 21.7437 12 21.4785V19.4785Z" fill="white"/>
</g>
<defs>
<clipPath id="clip0_6395_138267">
<rect width="32" height="32" fill="white" transform="translate(0 0.478516)"/>
</clipPath>
</defs>
</svg>
