<svg width="59" height="59" viewBox="0 0 59 59" fill="none" xmlns="http://www.w3.org/2000/svg">
<g clip-path="url(#clip0_4922_105424)">
<path d="M36.5162 22.5659L29.2112 9.77734L21.9062 22.5611V26.7833H36.5162V22.5659Z" fill="#99AAB5"/>
<path d="M9.73187 26.7841H17.0368V21.9141C17.0368 21.4905 17.1464 21.0741 17.3583 20.7064L24.9141 7.48438L8.27087 19.9662C7.65725 20.4239 7.29688 21.1471 7.29688 21.9141V24.3491C7.29688 25.6933 8.38775 26.7841 9.73187 26.7841Z" fill="#99AAB5"/>
<path d="M41.3889 21.919V26.7841H48.6939C50.038 26.7841 51.1289 25.6933 51.1289 24.3491V21.9141C51.1289 21.1496 50.7685 20.4264 50.1549 19.9662L33.5117 7.48438L41.0675 20.7113C41.2793 21.0789 41.3889 21.4953 41.3889 21.919Z" fill="#99AAB5"/>
<path d="M31.6473 29.2188H26.7773V53.5687H31.6473V29.2188Z" fill="#99AAB5"/>
<path d="M48.7636 35.9336L46.7889 43.8303H38.9506C37.6065 43.8303 36.5156 44.9212 36.5156 46.2653V53.5703H41.3856V48.7003H46.2556V53.5703H51.1256V46.5648L53.4875 37.117L48.7636 35.9336Z" fill="#99AAB5"/>
<path d="M19.4744 43.8303H11.6362L9.66139 35.9336L4.9375 37.117L7.29944 46.5648V53.5703H12.1694V48.7003H17.0394V53.5703H21.9094V46.2653C21.9094 44.9212 20.8185 43.8303 19.4744 43.8303Z" fill="#99AAB5"/>
</g>
<defs>
<clipPath id="clip0_4922_105424">
<rect width="58.4399" height="58.4399" fill="white"/>
</clipPath>
</defs>
</svg>
