<svg width="30" height="30" viewBox="0 0 30 30" fill="none" xmlns="http://www.w3.org/2000/svg">
<g clip-path="url(#clip0_9145_26166)">
<path fill-rule="evenodd" clip-rule="evenodd" d="M20.3524 13.3985C20.4397 13.4856 20.509 13.589 20.5563 13.7029C20.6035 13.8168 20.6279 13.9389 20.6279 14.0622C20.6279 14.1855 20.6035 14.3076 20.5563 14.4215C20.509 14.5354 20.4397 14.6389 20.3524 14.726L14.7274 20.351C14.6403 20.4383 14.5369 20.5075 14.423 20.5548C14.3091 20.6021 14.187 20.6264 14.0637 20.6264C13.9404 20.6264 13.8183 20.6021 13.7044 20.5548C13.5905 20.5075 13.487 20.4383 13.3999 20.351L10.5874 17.5385C10.5003 17.4513 10.4311 17.3478 10.384 17.2339C10.3368 17.1201 10.3125 16.998 10.3125 16.8747C10.3125 16.7515 10.3368 16.6294 10.384 16.5155C10.4311 16.4016 10.5003 16.2981 10.5874 16.211C10.7635 16.0349 11.0022 15.936 11.2512 15.936C11.3745 15.936 11.4965 15.9603 11.6104 16.0075C11.7243 16.0547 11.8278 16.1238 11.9149 16.211L14.0637 18.3616L19.0249 13.3985C19.112 13.3112 19.2155 13.2419 19.3294 13.1946C19.4433 13.1474 19.5654 13.123 19.6887 13.123C19.812 13.123 19.9341 13.1474 20.048 13.1946C20.1619 13.2419 20.2654 13.3112 20.3524 13.3985V13.3985Z" fill="#0A77DB"/>
<path fill-rule="evenodd" clip-rule="evenodd" d="M1.875 7.5V26.25C1.875 26.7473 2.07254 27.2242 2.42417 27.5758C2.77581 27.9275 3.25272 28.125 3.75 28.125H26.25C26.7473 28.125 27.2242 27.9275 27.5758 27.5758C27.9275 27.2242 28.125 26.7473 28.125 26.25V7.5H1.875ZM3.75 1.875C2.75544 1.875 1.80161 2.27009 1.09835 2.97335C0.395088 3.67661 0 4.63044 0 5.625L0 26.25C0 27.2446 0.395088 28.1984 1.09835 28.9016C1.80161 29.6049 2.75544 30 3.75 30H26.25C27.2446 30 28.1984 29.6049 28.9016 28.9016C29.6049 28.1984 30 27.2446 30 26.25V5.625C30 4.63044 29.6049 3.67661 28.9016 2.97335C28.1984 2.27009 27.2446 1.875 26.25 1.875H3.75Z" fill="#0A77DB"/>
<path fill-rule="evenodd" clip-rule="evenodd" d="M6.5625 0C6.81114 0 7.0496 0.0987721 7.22541 0.274587C7.40123 0.450403 7.5 0.68886 7.5 0.9375V1.875C7.5 2.12364 7.40123 2.3621 7.22541 2.53791C7.0496 2.71373 6.81114 2.8125 6.5625 2.8125C6.31386 2.8125 6.0754 2.71373 5.89959 2.53791C5.72377 2.3621 5.625 2.12364 5.625 1.875V0.9375C5.625 0.68886 5.72377 0.450403 5.89959 0.274587C6.0754 0.0987721 6.31386 0 6.5625 0V0ZM23.4375 0C23.6861 0 23.9246 0.0987721 24.1004 0.274587C24.2762 0.450403 24.375 0.68886 24.375 0.9375V1.875C24.375 2.12364 24.2762 2.3621 24.1004 2.53791C23.9246 2.71373 23.6861 2.8125 23.4375 2.8125C23.1889 2.8125 22.9504 2.71373 22.7746 2.53791C22.5988 2.3621 22.5 2.12364 22.5 1.875V0.9375C22.5 0.68886 22.5988 0.450403 22.7746 0.274587C22.9504 0.0987721 23.1889 0 23.4375 0V0Z" fill="#0A77DB"/>
</g>
<defs>
<clipPath id="clip0_9145_26166">
<rect width="30" height="30" fill="white"/>
</clipPath>
</defs>
</svg>
