<svg width="30" height="30" viewBox="0 0 30 30" fill="none" xmlns="http://www.w3.org/2000/svg">
<g clip-path="url(#clip0_9213_25623)">
<path d="M22 7.49951V6.24951H19.5V7.49951H17V4.99951C17 4.30951 16.44 3.74951 15.75 3.74951H8.25C7.56 3.74951 7 4.30951 7 4.99951V7.49951H4.5V6.24951H2V7.49951C0.62125 7.49951 -0.5 8.62076 -0.5 9.99951V24.9995C-0.5 26.3795 0.62125 27.4995 2 27.4995H22C23.3787 27.4995 24.5 26.3795 24.5 24.9995V9.99951C24.5 8.62076 23.3787 7.49951 22 7.49951ZM9.5 6.24951H14.5V7.49951H9.5V6.24951ZM15.75 14.9995H11.375C11.03 14.9995 10.75 15.2808 10.75 15.6245C10.75 15.9695 11.03 16.2495 11.375 16.2495H12.625C14.3475 16.2495 15.75 17.652 15.75 19.3745C15.75 20.8845 14.675 22.147 13.25 22.437V23.7495H10.75V22.4995H8.25V19.9995H12.625C12.97 19.9995 13.25 19.7195 13.25 19.3745C13.25 19.0308 12.97 18.7495 12.625 18.7495H11.375C9.65125 18.7495 8.25 17.347 8.25 15.6245C8.25 14.1158 9.325 12.8533 10.75 12.5633V11.2495H13.25V12.4995H15.75V14.9995Z" fill="#0A77DB"/>
<circle cx="24" cy="25" r="9" fill="white"/>
<path d="M17.8465 22.8036L15.168 25.2144L22.668 30.0358L30.168 18.4644L21.5965 26.1786L17.8465 22.8036Z" fill="#FD0D0D"/>
</g>
<defs>
<clipPath id="clip0_9213_25623">
<rect width="30" height="30" fill="white"/>
</clipPath>
</defs>
</svg>
