<svg width="30" height="30" viewBox="0 0 30 30" fill="none" xmlns="http://www.w3.org/2000/svg">
<g clip-path="url(#clip0_9213_25632)">
<path d="M1.75 17.5005V25.0005C1.75 26.3792 2.87125 27.5005 4.25 27.5005H11.75V17.5005H1.75V17.5005Z" fill="#0A77DB"/>
<path d="M14.25 17.5005V27.5005H21.75C23.1288 27.5005 24.25 26.3792 24.25 25.0005V17.5005H14.25V17.5005Z" fill="#0A77DB"/>
<path d="M23 9.99977H19.1075C19.6713 9.70727 20.205 9.34852 20.6513 8.90352C22.1125 7.44227 22.1125 5.06352 20.6513 3.59852C19.2338 2.18477 16.7675 2.18352 15.3488 3.59977C13.3038 5.64602 13.0275 9.49727 13.0025 9.92977C13 9.95352 13.0125 9.97477 13.0125 9.99977H12.9875C12.9875 9.97602 13 9.95352 12.9988 9.92852C12.9738 9.49602 12.6975 5.64477 10.6513 3.59727C9.23375 2.18352 6.765 2.18352 5.3475 3.59852C3.88625 5.06102 3.88625 7.43977 5.3475 8.90227C5.79375 9.34727 6.32875 9.70602 6.8925 9.99852H3C1.62125 9.99852 0.5 11.1198 0.5 12.4985V16.2485H11.75V11.2485H14.25V16.2485H25.5V12.4985C25.5 11.121 24.3788 9.99977 23 9.99977ZM7.11625 7.13477C6.62875 6.64727 6.62875 5.85477 7.11625 5.36602C7.35125 5.13102 7.665 5.00102 8 5.00102C8.335 5.00102 8.64875 5.13102 8.885 5.36602C9.6225 6.10352 10.0525 7.42602 10.2825 8.52977C9.18125 8.29977 7.84875 7.86727 7.11625 7.13477ZM15.7175 8.53227C15.9475 7.42852 16.3775 6.10477 17.115 5.36727C17.3513 5.13102 17.6663 5.00102 18 5.00102C18.3338 5.00102 18.6488 5.13102 18.8825 5.36477C19.37 5.85352 19.3713 6.64727 18.8825 7.13477C18.145 7.87352 16.8213 8.30352 15.7175 8.53227Z" fill="#0A77DB" fill-opacity="0.5"/>
<circle cx="24" cy="25" r="9" fill="white"/>
<path d="M17.8465 22.8036L15.168 25.2144L22.668 30.0358L30.168 18.4644L21.5965 26.1786L17.8465 22.8036Z" fill="#FD0D0D"/>
</g>
<defs>
<clipPath id="clip0_9213_25632">
<rect width="30" height="30" fill="white"/>
</clipPath>
</defs>
</svg>
