<svg width="30" height="30" viewBox="0 0 30 30" fill="none" xmlns="http://www.w3.org/2000/svg">
<g clip-path="url(#clip0_9213_25644)">
<path d="M13 2.50293C6.0975 2.50293 0.5 8.09918 0.5 15.0029C0.5 21.9042 6.0975 27.5029 13 27.5029C19.9025 27.5029 25.5 21.9042 25.5 15.0029C25.5 8.09918 19.9025 2.50293 13 2.50293ZM15.5 7.50293H18V12.5029H15.5V7.50293ZM8 7.50293H10.5V12.5029H8V7.50293ZM20.5 17.5029C20.5 20.7742 16.925 23.7529 13 23.7529C9.075 23.7529 5.5 20.7742 5.5 17.5029V16.2529H20.5V17.5029Z" fill="#0A77DB"/>
<circle cx="24" cy="25" r="9" fill="white"/>
<path d="M17.8465 22.8036L15.168 25.2144L22.668 30.0358L30.168 18.4644L21.5965 26.1786L17.8465 22.8036Z" fill="#FD0D0D"/>
</g>
<defs>
<clipPath id="clip0_9213_25644">
<rect width="30" height="30" fill="white"/>
</clipPath>
</defs>
</svg>
