<svg width="59" height="60" viewBox="0 0 59 60" fill="none" xmlns="http://www.w3.org/2000/svg">
<g clip-path="url(#clip0_4922_105435)">
<path d="M41.4051 54.4074C44.0948 54.4074 46.2751 52.1935 46.2751 49.4625C46.2751 46.7315 44.0948 44.5176 41.4051 44.5176C38.7155 44.5176 36.5352 46.7315 36.5352 49.4625C36.5352 52.1935 38.7155 54.4074 41.4051 54.4074Z" fill="#99AAB5"/>
<path d="M19.4911 54.4074C22.1807 54.4074 24.3611 52.1935 24.3611 49.4625C24.3611 46.7315 22.1807 44.5176 19.4911 44.5176C16.8015 44.5176 14.6211 46.7315 14.6211 49.4625C14.6211 52.1935 16.8015 54.4074 19.4911 54.4074Z" fill="#99AAB5"/>
<path d="M48.6188 25.3197C45.5629 20.4687 40.2302 17.3213 34.2596 17.3213C34.2328 17.3213 34.2085 17.3262 34.1817 17.3262C34.1549 17.3262 34.1281 17.3213 34.1013 17.3213C24.3102 17.3213 16.2285 24.667 14.8527 34.2205L14.6214 34.6285H12.1864C9.49816 34.6285 7.31641 36.8438 7.31641 39.5734V46.9908C7.31641 48.3556 8.40728 49.4632 9.7514 49.4632H12.1864C12.1864 45.3688 15.459 42.0458 19.4914 42.0458C23.5237 42.0458 26.7964 45.3688 26.7964 49.4632H34.1013C34.1013 45.3688 37.374 42.0458 41.4063 42.0458C45.4387 42.0458 48.7113 45.3688 48.7113 49.4632H51.1463C52.4904 49.4632 53.5813 48.3556 53.5813 46.9908V39.5734C53.5789 34.5172 51.6942 29.3869 48.6188 25.3197ZM19.7081 34.6285C20.872 27.6141 26.8621 22.2662 34.0989 22.2662C41.3357 22.2662 47.3282 27.6141 48.4897 34.6285H19.7081Z" fill="#99AAB5"/>
</g>
<defs>
<clipPath id="clip0_4922_105435">
<rect width="58.4399" height="59.3389" fill="white"/>
</clipPath>
</defs>
</svg>
