<svg width="30" height="30" viewBox="0 0 30 30" fill="none" xmlns="http://www.w3.org/2000/svg">
<g clip-path="url(#clip0_9213_25614)">
<path d="M22 6.25H15.5188C15.0013 4.7975 13.6275 3.75 12 3.75C10.3725 3.75 8.99875 4.7975 8.48125 6.25H2C0.62125 6.25 -0.5 7.37 -0.5 8.75V23.75C-0.5 25.1288 0.62125 26.25 2 26.25H22C23.3788 26.25 24.5 25.1288 24.5 23.75V8.75C24.5 7.37 23.3788 6.25 22 6.25ZM7 11.25C8.38 11.25 9.5 12.37 9.5 13.75C9.5 15.13 8.38 16.25 7 16.25C5.62 16.25 4.5 15.13 4.5 13.75C4.5 12.37 5.62 11.25 7 11.25ZM3.25 21.25C3.25 18.9488 4.69875 17.5 7 17.5C9.30125 17.5 10.75 18.9488 10.75 21.25H3.25ZM12 8.75C11.3113 8.75 10.75 8.18875 10.75 7.5C10.75 6.81125 11.3113 6.25 12 6.25C12.6888 6.25 13.25 6.81125 13.25 7.5C13.25 8.18875 12.6888 8.75 12 8.75ZM20.75 21.25H13.25V18.75H20.75V21.25ZM20.75 16.25H13.25V13.75H20.75V16.25Z" fill="#0A77DB"/>
<circle cx="24" cy="25" r="9" fill="white"/>
<path d="M17.8465 22.8036L15.168 25.2144L22.668 30.0358L30.168 18.4644L21.5965 26.1786L17.8465 22.8036Z" fill="#FD0D0D"/>
</g>
<defs>
<clipPath id="clip0_9213_25614">
<rect width="30" height="30" fill="white"/>
</clipPath>
</defs>
</svg>
