<svg width="30" height="30" viewBox="0 0 30 30" fill="none" xmlns="http://www.w3.org/2000/svg">
<g clip-path="url(#clip0_9213_25606)">
<path d="M8 17.2501C8 16.5596 7.4405 16.0001 6.75 16.0001C6.454 16.0001 6.1855 16.1076 5.971 16.2796L3.5 18.4186V12.5356L1.1525 14.8046C0.416 15.5166 0 16.4971 0 17.5216V27.5001H4.5V26.0206C4.5 25.5911 4.6815 25.1936 4.9575 24.8646C5.7775 23.8856 5.956 22.3531 5.9885 20.9581C5.998 20.5556 6.133 20.1676 6.374 19.8446L7.767 17.9731C7.9125 17.7686 8 17.5201 8 17.2501Z" fill="#0A77DB"/>
<path d="M23.3055 18.023L19.24 18.8205L16.7975 15.0685C16.5625 14.7065 16.1715 14.5 15.7705 14.5C15.0705 14.5 14.5 15.0625 14.5 15.7655C14.5 15.9945 14.568 16.2255 14.7025 16.4315L17.5 20.7275V23.297C17.4995 23.783 17.6395 24.2605 17.9065 24.67L19.0415 26.414C19.4045 26.9715 19.974 27.362 20.625 27.5L23.587 28.2485L26.9395 26.0665C26.788 23.7985 26.067 20.065 25.329 18.931C24.9475 18.3445 24.298 18 23.612 18.0005C23.5105 18 23.408 18.0075 23.3055 18.023V18.023Z" fill="#0A77DB"/>
<path d="M5.317 15.5235C5.681 15.2305 6.0805 15.0695 6.5 15.0215V4.5H21.5V17.358L23.1135 17.0415C23.3035 17.0115 23.4575 17 23.612 17C24.311 17 24.97 17.2405 25.5 17.6605V4C25.5 3.1715 24.8285 2.5 24 2.5H6C5.1715 2.5 4.5 3.1715 4.5 4V16.23L5.317 15.5235Z" fill="#0A77DB"/>
<path d="M14.5299 18H8.86491C8.79541 18.194 8.70341 18.381 8.58091 18.5525L7.50391 20H15.8324L14.5299 18Z" fill="#0A77DB"/>
<g opacity="0.6" clip-path="url(#clip1_9213_25606)">
<path d="M11.2207 7.64805C11.5215 7.34297 11.8223 7.06797 11.9555 7.12383C12.1703 7.20977 11.9555 7.56641 11.8266 7.77695C11.7191 7.95742 10.5977 9.44844 10.5977 10.4883C10.5977 11.0383 10.8039 11.4938 11.1734 11.7688C11.4957 12.0094 11.9211 12.0824 12.3078 11.9664C12.7676 11.8332 13.1457 11.3648 13.6227 10.7762C14.1426 10.1359 14.8387 9.29805 15.3758 9.29805C16.0762 9.29805 16.0848 9.73203 16.132 10.0672C14.5078 10.3422 13.8203 11.6441 13.8203 12.3746C13.8203 13.1051 14.4391 13.7023 15.1996 13.7023C15.9 13.7023 17.043 13.1309 17.2148 11.0813L18.2719 11.0813V10.007L17.2105 10.007C17.1461 9.29805 16.7422 8.20234 15.4789 8.20234C14.5121 8.20234 13.6828 9.02305 13.3563 9.42266C13.107 9.73633 12.4711 10.4883 12.3723 10.5914C12.2648 10.7203 12.0801 10.9523 11.8953 10.9523C11.702 10.9523 11.5859 10.5957 11.7406 10.1273C11.891 9.65898 12.3422 8.89844 12.5355 8.61484C12.8707 8.125 13.0941 7.78984 13.0941 7.20547C13.0941 6.27305 12.3895 5.97656 12.0156 5.97656C11.4484 5.97656 10.9543 6.40625 10.8469 6.51367C10.6922 6.66836 10.5633 6.79727 10.4687 6.91328L11.2207 7.64805ZM15.2125 12.6582C15.0793 12.6582 14.8945 12.5465 14.8945 12.3488C14.8945 12.091 15.2082 11.4035 16.1277 11.1629C15.9988 12.3188 15.5133 12.6582 15.2125 12.6582Z" fill="#0A77DB"/>
</g>
<circle cx="24" cy="25" r="9" fill="white"/>
<path d="M17.8465 22.8036L15.168 25.2144L22.668 30.0358L30.168 18.4644L21.5965 26.1786L17.8465 22.8036Z" fill="#FD0D0D"/>
</g>
<defs>
<clipPath id="clip0_9213_25606">
<rect width="30" height="30" fill="white"/>
</clipPath>
<clipPath id="clip1_9213_25606">
<rect width="10.3125" height="10.3125" fill="white" transform="translate(9.25 4.6875)"/>
</clipPath>
</defs>
</svg>
