<svg width="30" height="30" viewBox="0 0 30 30" fill="none" xmlns="http://www.w3.org/2000/svg">
<g clip-path="url(#clip0_9213_25676)">
<path d="M15.7461 11.5845L11.9961 5.01953L8.24609 11.582V13.7495H15.7461V11.5845Z" fill="#0A77DB"/>
<path d="M1.99609 13.7498H5.74609V11.2498C5.74609 11.0323 5.80234 10.8185 5.91109 10.6298L9.78984 3.84229L1.24609 10.2498C0.931094 10.4848 0.746094 10.856 0.746094 11.2498V12.4998C0.746094 13.1898 1.30609 13.7498 1.99609 13.7498Z" fill="#0A77DB"/>
<path d="M18.2469 11.2523V13.7498H21.9969C22.6869 13.7498 23.2469 13.1898 23.2469 12.4998V11.2498C23.2469 10.8573 23.0619 10.486 22.7469 10.2498L14.2031 3.84229L18.0819 10.6323C18.1906 10.821 18.2469 11.0348 18.2469 11.2523Z" fill="#0A77DB"/>
<path d="M13.2461 14.9995H10.7461V27.4995H13.2461V14.9995Z" fill="#0A77DB"/>
<path d="M22.0336 18.4468L21.0198 22.5005H16.9961C16.3061 22.5005 15.7461 23.0605 15.7461 23.7505V27.5005H18.2461V25.0005H20.7461V27.5005H23.2461V23.9043L24.4586 19.0543L22.0336 18.4468Z" fill="#0A77DB" fill-opacity="0.5"/>
<path d="M6.99766 22.5005H2.97391L1.96016 18.4468L-0.464844 19.0543L0.747656 23.9043V27.5005H3.24766V25.0005H5.74766V27.5005H8.24766V23.7505C8.24766 23.0605 7.68766 22.5005 6.99766 22.5005Z" fill="#0A77DB" fill-opacity="0.5"/>
<circle cx="24" cy="25" r="9" fill="white"/>
<path d="M17.8465 22.8036L15.168 25.2144L22.668 30.0358L30.168 18.4644L21.5965 26.1786L17.8465 22.8036Z" fill="#FD0D0D"/>
</g>
<defs>
<clipPath id="clip0_9213_25676">
<rect width="30" height="30" fill="white"/>
</clipPath>
</defs>
</svg>
