<svg width="32" height="33" viewBox="0 0 32 33" fill="none" xmlns="http://www.w3.org/2000/svg">
<path opacity="0.6" d="M30.1501 10.869C30.2802 10.1639 30.2802 9.44382 30.1501 8.73875L31.4403 7.99367C31.5903 7.90866 31.6553 7.73364 31.6053 7.56862C31.2703 6.48851 30.6952 5.50841 29.9451 4.69832C29.8301 4.57331 29.6451 4.54331 29.4951 4.62831L28.2049 5.37339C27.6599 4.90834 27.0348 4.54831 26.3597 4.30828V2.81812C26.3597 2.64811 26.2397 2.49809 26.0747 2.46309C24.9596 2.21306 23.8245 2.22306 22.7644 2.46309C22.5993 2.49809 22.4793 2.64811 22.4793 2.81812V4.30828C21.8043 4.54831 21.1792 4.90834 20.6341 5.37339L19.344 4.62831C19.199 4.54331 19.009 4.57331 18.894 4.69832C18.1439 5.50841 17.5688 6.48851 17.2338 7.56862C17.1838 7.73364 17.2538 7.90866 17.3988 7.99367L18.6889 8.73875C18.5589 9.44382 18.5589 10.1639 18.6889 10.869L17.3988 11.614C17.2488 11.6991 17.1838 11.8741 17.2338 12.0391C17.5688 13.1192 18.1439 14.0943 18.894 14.9094C19.009 15.0344 19.194 15.0644 19.344 14.9794L20.6341 14.2343C21.1792 14.6994 21.8043 15.0594 22.4793 15.2994V16.7896C22.4793 16.9596 22.5993 17.1096 22.7644 17.1446C23.8795 17.3947 25.0146 17.3847 26.0747 17.1446C26.2397 17.1096 26.3597 16.9596 26.3597 16.7896V15.2994C27.0348 15.0594 27.6599 14.6994 28.2049 14.2343L29.4951 14.9794C29.6401 15.0644 29.8301 15.0344 29.9451 14.9094C30.6952 14.0993 31.2703 13.1192 31.6053 12.0391C31.6553 11.8741 31.5853 11.6991 31.4403 11.614L30.1501 10.869ZM24.4245 12.2291C23.0844 12.2291 21.9993 11.139 21.9993 9.80386C21.9993 8.46872 23.0894 7.3786 24.4245 7.3786C25.7597 7.3786 26.8498 8.46872 26.8498 9.80386C26.8498 11.139 25.7647 12.2291 24.4245 12.2291Z" fill="white"/>
<path d="M28.2651 15.9453H15.9984C15.1152 15.9453 14.3984 16.6616 14.3984 17.5453V28.212C14.3984 29.0957 15.1152 29.812 15.9984 29.812H28.2651C29.1483 29.812 29.8651 29.0957 29.8651 28.212V17.5453C29.8651 16.6616 29.1483 15.9453 28.2651 15.9453ZM27.7318 27.6786H16.5318V23.9453H27.7318V27.6786ZM27.7318 21.812H16.5318V18.0786H27.7318V21.812Z" fill="white"/>
<path d="M15.4661 3.14551C15.3547 3.14551 15.2411 3.16311 15.128 3.20097L2.86241 6.22338C2.42668 6.36791 2.13281 6.77591 2.13281 7.23511V27.1455C2.13281 27.7343 2.61068 28.2122 3.19948 28.2122H12.7995V17.5455C12.7995 15.7786 14.232 14.3455 15.9995 14.3455H16.5328V4.21218C16.5328 3.60311 16.0336 3.14497 15.4661 3.14551ZM8.53281 24.4788H5.33281C4.74401 24.4788 4.26615 24.001 4.26615 23.4122C4.26615 22.8234 4.74401 22.3455 5.33281 22.3455H8.53281C9.12161 22.3455 9.59948 22.8234 9.59948 23.4122C9.59948 24.001 9.12161 24.4788 8.53281 24.4788ZM8.53281 20.2122H5.33281C4.74401 20.2122 4.26615 19.7343 4.26615 19.1455C4.26615 18.5567 4.74401 18.0788 5.33281 18.0788H8.53281C9.12161 18.0788 9.59948 18.5567 9.59948 19.1455C9.59948 19.7343 9.12161 20.2122 8.53281 20.2122ZM8.53281 15.9455H5.33281C4.74401 15.9455 4.26615 15.4676 4.26615 14.8788C4.26615 14.29 4.74401 13.8122 5.33281 13.8122H8.53281C9.12161 13.8122 9.59948 14.29 9.59948 14.8788C9.59948 15.4676 9.12161 15.9455 8.53281 15.9455ZM8.53281 11.6788H5.33281C4.74401 11.6788 4.26615 11.201 4.26615 10.6122C4.26615 10.0234 4.74401 9.54551 5.33281 9.54551H8.53281C9.12161 9.54551 9.59948 10.0234 9.59948 10.6122C9.59948 11.201 9.12161 11.6788 8.53281 11.6788ZM13.3328 11.6788H12.2661C11.6773 11.6788 11.1995 11.201 11.1995 10.6122C11.1995 10.0234 11.6773 9.54551 12.2661 9.54551H13.3328C13.9216 9.54551 14.3995 10.0234 14.3995 10.6122C14.3995 11.201 13.9216 11.6788 13.3328 11.6788Z" fill="white"/>
</svg>
