<svg width="30" height="30" viewBox="0 0 30 30" fill="none" xmlns="http://www.w3.org/2000/svg">
<g clip-path="url(#clip0_9144_26158)">
<path d="M3.75 7.5H26.25V13.75H28.75V7.5C28.75 6.125 27.625 5 26.25 5H3.75C2.375 5 1.25 6.125 1.25 7.5V22.5C1.25 23.875 2.375 25 3.75 25H15V22.5H3.75V7.5Z" fill="#0A77DB"/>
<path opacity="0.5" d="M28.3875 23.0375C28.425 22.675 28.4375 22.3125 28.4 21.9625L29.7375 20.9C29.8625 20.8 29.8875 20.6375 29.8125 20.5L28.525 18.2625C28.45 18.125 28.2875 18.075 28.1375 18.125L26.5375 18.75C26.25 18.5375 25.9375 18.3625 25.6 18.225L25.35 16.525C25.325 16.3625 25.2 16.25 25.0375 16.25H22.45C22.3 16.25 22.1625 16.3625 22.1375 16.5125L21.8875 18.2125C21.5625 18.35 21.25 18.5375 20.9625 18.7375L19.3625 18.1125C19.2125 18.05 19.05 18.1125 18.975 18.25L17.6875 20.4875C17.6125 20.625 17.6375 20.7875 17.7625 20.8875L19.1 21.9625C19.0625 22.325 19.05 22.6875 19.0875 23.0375L17.75 24.1C17.625 24.2 17.6 24.3625 17.675 24.5L18.9625 26.7375C19.0375 26.875 19.2 26.925 19.35 26.875L20.9375 26.25C21.225 26.4625 21.5375 26.6375 21.875 26.775L22.125 28.475C22.15 28.625 22.275 28.7375 22.4375 28.7375H25.025C25.175 28.7375 25.3125 28.625 25.3375 28.475L25.5875 26.775C25.9125 26.6375 26.225 26.45 26.5125 26.25L28.1125 26.875C28.2625 26.9375 28.425 26.875 28.5 26.7375L29.7875 24.5C29.8625 24.3625 29.8375 24.2 29.7125 24.1L28.3875 23.0375ZM23.75 24.375C22.7125 24.375 21.875 23.5375 21.875 22.5C21.875 21.4625 22.7125 20.625 23.75 20.625C24.7875 20.625 25.625 21.4625 25.625 22.5C25.625 23.5375 24.7875 24.375 23.75 24.375Z" fill="#0A77DB"/>
<path d="M8.749 9.675H11.136C11.4 9.675 11.565 9.796 11.631 10.038L14.084 17.056C14.0913 17.078 14.095 17.1147 14.095 17.166C14.095 17.21 14.0693 17.2577 14.018 17.309C13.974 17.353 13.919 17.375 13.853 17.375H11.818C11.598 17.375 11.455 17.2833 11.389 17.1L11.125 16.374H8.76L8.496 17.1C8.43 17.2833 8.287 17.375 8.067 17.375H6.032C5.966 17.375 5.90733 17.353 5.856 17.309C5.812 17.2577 5.79 17.21 5.79 17.166C5.79 17.1147 5.79367 17.078 5.801 17.056L8.254 10.038C8.32 9.796 8.485 9.675 8.749 9.675ZM9.321 14.229H10.564L9.937 12.183L9.321 14.229ZM17.7707 15.12H20.8177C20.8984 15.12 20.9681 15.1493 21.0267 15.208C21.0854 15.2667 21.1147 15.3363 21.1147 15.417V17.078C21.1147 17.1587 21.0854 17.2283 21.0267 17.287C20.9681 17.3457 20.8984 17.375 20.8177 17.375H15.2737C15.1931 17.375 15.1234 17.3457 15.0647 17.287C15.0061 17.2283 14.9767 17.1587 14.9767 17.078V9.972C14.9767 9.89133 15.0061 9.82167 15.0647 9.763C15.1234 9.70433 15.1931 9.675 15.2737 9.675H17.4737C17.5544 9.675 17.6241 9.70433 17.6827 9.763C17.7414 9.82167 17.7707 9.89133 17.7707 9.972V15.12Z" fill="#0A77DB"/>
</g>
<defs>
<clipPath id="clip0_9144_26158">
<rect width="30" height="30" fill="white"/>
</clipPath>
</defs>
</svg>
