<svg width="30" height="30" viewBox="0 0 30 30" fill="none" xmlns="http://www.w3.org/2000/svg">
<g clip-path="url(#clip0_9111_92401)">
<path d="M25 7.49951V6.24951H22.5V7.49951H20V4.99951C20 4.30951 19.44 3.74951 18.75 3.74951H11.25C10.56 3.74951 10 4.30951 10 4.99951V7.49951H7.5V6.24951H5V7.49951C3.62125 7.49951 2.5 8.62076 2.5 9.99951V24.9995C2.5 26.3795 3.62125 27.4995 5 27.4995H25C26.3787 27.4995 27.5 26.3795 27.5 24.9995V9.99951C27.5 8.62076 26.3787 7.49951 25 7.49951ZM12.5 6.24951H17.5V7.49951H12.5V6.24951ZM18.75 14.9995H14.375C14.03 14.9995 13.75 15.2808 13.75 15.6245C13.75 15.9695 14.03 16.2495 14.375 16.2495H15.625C17.3475 16.2495 18.75 17.652 18.75 19.3745C18.75 20.8845 17.675 22.147 16.25 22.437V23.7495H13.75V22.4995H11.25V19.9995H15.625C15.97 19.9995 16.25 19.7195 16.25 19.3745C16.25 19.0308 15.97 18.7495 15.625 18.7495H14.375C12.6512 18.7495 11.25 17.347 11.25 15.6245C11.25 14.1158 12.325 12.8533 13.75 12.5633V11.2495H16.25V12.4995H18.75V14.9995Z" fill="#0A77DB"/>
</g>
<defs>
<clipPath id="clip0_9111_92401">
<rect width="30" height="30" fill="white"/>
</clipPath>
</defs>
</svg>
