<svg width="59" height="60" viewBox="0 0 59 60" fill="none" xmlns="http://www.w3.org/2000/svg">
<g clip-path="url(#clip0_4922_105417)">
<path d="M29.221 4.95117C15.775 4.95117 4.87109 16.0204 4.87109 29.6757C4.87109 43.3262 15.775 54.4003 29.221 54.4003C42.6671 54.4003 53.571 43.3262 53.571 29.6757C53.571 16.0204 42.6671 4.95117 29.221 4.95117ZM34.091 17.3135H38.961V27.2033H34.091V17.3135ZM19.4811 17.3135H24.351V27.2033H19.4811V17.3135ZM36.526 42.038L34.091 38.3293L31.656 42.038H26.786L24.351 38.3293L21.9161 42.038H17.0461L21.9161 34.6206H26.786L29.221 38.3293L31.656 34.6206H36.526L41.396 42.038H36.526Z" fill="#99AAB5"/>
</g>
<defs>
<clipPath id="clip0_4922_105417">
<rect width="58.4399" height="59.3389" fill="white"/>
</clipPath>
</defs>
</svg>
