<svg width="30" height="30" viewBox="0 0 30 30" fill="none" xmlns="http://www.w3.org/2000/svg">
<g clip-path="url(#clip0_9111_92414)">
<path d="M25 6.25H18.5188C18.0013 4.7975 16.6275 3.75 15 3.75C13.3725 3.75 11.9988 4.7975 11.4813 6.25H5C3.62125 6.25 2.5 7.37 2.5 8.75V23.75C2.5 25.1288 3.62125 26.25 5 26.25H25C26.3788 26.25 27.5 25.1288 27.5 23.75V8.75C27.5 7.37 26.3788 6.25 25 6.25ZM10 11.25C11.38 11.25 12.5 12.37 12.5 13.75C12.5 15.13 11.38 16.25 10 16.25C8.62 16.25 7.5 15.13 7.5 13.75C7.5 12.37 8.62 11.25 10 11.25ZM6.25 21.25C6.25 18.9488 7.69875 17.5 10 17.5C12.3013 17.5 13.75 18.9488 13.75 21.25H6.25ZM15 8.75C14.3113 8.75 13.75 8.18875 13.75 7.5C13.75 6.81125 14.3113 6.25 15 6.25C15.6888 6.25 16.25 6.81125 16.25 7.5C16.25 8.18875 15.6888 8.75 15 8.75ZM23.75 21.25H16.25V18.75H23.75V21.25ZM23.75 16.25H16.25V13.75H23.75V16.25Z" fill="#0A77DB"/>
</g>
<defs>
<clipPath id="clip0_9111_92414">
<rect width="30" height="30" fill="white"/>
</clipPath>
</defs>
</svg>
