<svg width="32" height="32" viewBox="0 0 32 32" fill="none" xmlns="http://www.w3.org/2000/svg">
<path d="M10.6666 18.3999C10.6666 17.6634 10.0698 17.0666 9.3333 17.0666C9.01757 17.0666 8.73117 17.1812 8.50237 17.3647L5.86663 19.6463V13.3711L3.36263 15.7914C2.57703 16.5508 2.1333 17.5967 2.1333 18.6895V29.3332H6.9333V27.7551C6.9333 27.297 7.1269 26.873 7.4213 26.522C8.29597 25.4778 8.48637 23.8431 8.52103 22.3551C8.53117 21.9258 8.67517 21.5119 8.93223 21.1674L10.4181 19.1711C10.5733 18.953 10.6666 18.6879 10.6666 18.3999Z" fill="white"/>
<path d="M26.9926 19.2247L22.6561 20.0753L20.0508 16.0732C19.8001 15.6871 19.383 15.4668 18.9553 15.4668C18.2086 15.4668 17.6001 16.0668 17.6001 16.8167C17.6001 17.0609 17.6726 17.3073 17.8161 17.5271L20.8001 22.1095V24.8503C20.7996 25.3687 20.9489 25.878 21.2337 26.3148L22.4444 28.1751C22.8316 28.7697 23.439 29.1863 24.1334 29.3335L27.2929 30.1319L30.8689 27.8044C30.7073 25.3852 29.9382 21.4028 29.151 20.1932C28.7441 19.5676 28.0513 19.2001 27.3196 19.2007C27.2113 19.2001 27.102 19.2081 26.9926 19.2247Z" fill="white"/>
<path d="M7.80457 16.5582C8.19284 16.2457 8.61897 16.074 9.06644 16.0228V4.79984H25.0664V18.515L26.7875 18.1774C26.9902 18.1454 27.1544 18.1332 27.3192 18.1332C28.0648 18.1332 28.7678 18.3897 29.3331 18.8377V4.2665C29.3331 3.38277 28.6168 2.6665 27.7331 2.6665H8.53311C7.64937 2.6665 6.93311 3.38277 6.93311 4.2665V17.3118L7.80457 16.5582Z" fill="white"/>
<path d="M17.6326 19.2002H11.5899C11.5158 19.4071 11.4176 19.6066 11.287 19.7895L10.1382 21.3335H19.0219L17.6326 19.2002Z" fill="white"/>
<g opacity="0.6">
<path d="M14.1038 8.15792C14.4247 7.8325 14.7455 7.53917 14.8876 7.59875C15.1168 7.69042 14.8876 8.07083 14.7501 8.29542C14.6355 8.48792 13.4393 10.0783 13.4393 11.1875C13.4393 11.7742 13.6593 12.26 14.0534 12.5533C14.3972 12.81 14.8509 12.8879 15.2634 12.7642C15.7538 12.6221 16.1572 12.1225 16.6659 11.4946C17.2205 10.8117 17.963 9.91792 18.5359 9.91792C19.283 9.91792 19.2922 10.3808 19.3426 10.7383C17.6101 11.0317 16.8768 12.4204 16.8768 13.1996C16.8768 13.9787 17.5368 14.6158 18.348 14.6158C19.0951 14.6158 20.3143 14.0063 20.4976 11.82L21.6251 11.82V10.6742L20.493 10.6742C20.4243 9.91792 19.9934 8.74917 18.6459 8.74917C17.6147 8.74917 16.7301 9.62458 16.3818 10.0508C16.1159 10.3854 15.4376 11.1875 15.3322 11.2975C15.2176 11.435 15.0205 11.6825 14.8234 11.6825C14.6172 11.6825 14.4934 11.3021 14.6584 10.8025C14.8188 10.3029 15.3001 9.49167 15.5063 9.18917C15.8638 8.66667 16.1022 8.30917 16.1022 7.68583C16.1022 6.69125 15.3505 6.375 14.9518 6.375C14.3468 6.375 13.8197 6.83333 13.7051 6.94792C13.5401 7.11292 13.4026 7.25042 13.3018 7.37417L14.1038 8.15792ZM18.3618 13.5021C18.2197 13.5021 18.0226 13.3829 18.0226 13.1721C18.0226 12.8971 18.3572 12.1638 19.338 11.9071C19.2005 13.14 18.6826 13.5021 18.3618 13.5021Z" fill="white"/>
</g>
</svg>
