<svg width="36" height="36" viewBox="0 0 36 36" fill="none" xmlns="http://www.w3.org/2000/svg">
<g clip-path="url(#clip0_1518_59324)">
<path d="M28 32C28 34.209 26.209 36 24 36H4C1.791 36 0 34.125 0 28V4C0 1.791 1.791 0 4 0H24C26.209 0 28 1.791 28 4V32Z" fill="#CCD6DD"/>
<path d="M31 36H4C8 36 8 28 8 28C8 25.791 9.791 24 12 24H32C34.209 24 36 26 36 28C36 28 36.25 36 31 36Z" fill="#E1E8ED"/>
<path d="M24 7C24 7.552 23.553 8 23 8H5C4.448 8 4 7.552 4 7C4 6.448 4.448 6 5 6H23C23.553 6 24 6.448 24 7ZM24 11C24 11.552 23.553 12 23 12H5C4.448 12 4 11.552 4 11C4 10.448 4.448 10 5 10H23C23.553 10 24 10.448 24 11ZM24 15C24 15.552 23.553 16 23 16H5C4.448 16 4 15.552 4 15C4 14.448 4.448 14 5 14H23C23.553 14 24 14.448 24 15ZM24 19C24 19.553 23.553 20 23 20H5C4.448 20 4 19.553 4 19C4 18.447 4.448 18 5 18H23C23.553 18 24 18.447 24 19Z" fill="#99AAB5"/>
</g>
<defs>
<clipPath id="clip0_1518_59324">
<rect width="36" height="36" fill="white"/>
</clipPath>
</defs>
</svg>
