<svg width="32" height="33" viewBox="0 0 32 33" fill="none" xmlns="http://www.w3.org/2000/svg">
<g clip-path="url(#clip0_7184_69370)">
<path d="M3.9987 8.47819H27.9987V15.1449H30.6654V8.47819C30.6654 7.01152 29.4654 5.81152 27.9987 5.81152H3.9987C2.53203 5.81152 1.33203 7.01152 1.33203 8.47819V24.4782C1.33203 25.9449 2.53203 27.1449 3.9987 27.1449H15.9987V24.4782H3.9987V8.47819Z" fill="white"/>
<path opacity="0.6" d="M30.2803 25.0515C30.3203 24.6649 30.3336 24.2782 30.2936 23.9049L31.7203 22.7715C31.8536 22.6649 31.8803 22.4915 31.8003 22.3449L30.4269 19.9582C30.3469 19.8115 30.1736 19.7582 30.0136 19.8115L28.3069 20.4782C28.0003 20.2515 27.6669 20.0649 27.3069 19.9182L27.0403 18.1049C27.0136 17.9315 26.8803 17.8115 26.7069 17.8115H23.9469C23.7869 17.8115 23.6403 17.9315 23.6136 18.0915L23.3469 19.9049C23.0003 20.0515 22.6669 20.2515 22.3603 20.4649L20.6536 19.7982C20.4936 19.7315 20.3203 19.7982 20.2403 19.9449L18.8669 22.3315C18.7869 22.4782 18.8136 22.6515 18.9469 22.7582L20.3736 23.9049C20.3336 24.2915 20.3203 24.6782 20.3603 25.0515L18.9336 26.1849C18.8003 26.2915 18.7736 26.4649 18.8536 26.6115L20.2269 28.9982C20.3069 29.1449 20.4803 29.1982 20.6403 29.1449L22.3336 28.4782C22.6403 28.7049 22.9736 28.8915 23.3336 29.0382L23.6003 30.8515C23.6269 31.0115 23.7603 31.1315 23.9336 31.1315H26.6936C26.8536 31.1315 27.0003 31.0115 27.0269 30.8515L27.2936 29.0382C27.6403 28.8915 27.9736 28.6915 28.2803 28.4782L29.9869 29.1449C30.1469 29.2115 30.3203 29.1449 30.4003 28.9982L31.7736 26.6115C31.8536 26.4649 31.8269 26.2915 31.6936 26.1849L30.2803 25.0515ZM25.3336 26.4782C24.2269 26.4782 23.3336 25.5849 23.3336 24.4782C23.3336 23.3715 24.2269 22.4782 25.3336 22.4782C26.4403 22.4782 27.3336 23.3715 27.3336 24.4782C27.3336 25.5849 26.4403 26.4782 25.3336 26.4782Z" fill="white"/>
<path d="M9.124 10.7785H11.511C11.775 10.7785 11.94 10.8995 12.006 11.1415L14.459 18.1595C14.4663 18.1815 14.47 18.2182 14.47 18.2695C14.47 18.3135 14.4443 18.3612 14.393 18.4125C14.349 18.4565 14.294 18.4785 14.228 18.4785H12.193C11.973 18.4785 11.83 18.3868 11.764 18.2035L11.5 17.4775H9.135L8.871 18.2035C8.805 18.3868 8.662 18.4785 8.442 18.4785H6.407C6.341 18.4785 6.28233 18.4565 6.231 18.4125C6.187 18.3612 6.165 18.3135 6.165 18.2695C6.165 18.2182 6.16867 18.1815 6.176 18.1595L8.629 11.1415C8.695 10.8995 8.86 10.7785 9.124 10.7785ZM9.696 15.3325H10.939L10.312 13.2865L9.696 15.3325ZM18.1457 16.2235H21.1927C21.2734 16.2235 21.3431 16.2528 21.4017 16.3115C21.4604 16.3702 21.4897 16.4398 21.4897 16.5205V18.1815C21.4897 18.2622 21.4604 18.3318 21.4017 18.3905C21.3431 18.4492 21.2734 18.4785 21.1927 18.4785H15.6487C15.5681 18.4785 15.4984 18.4492 15.4397 18.3905C15.3811 18.3318 15.3517 18.2622 15.3517 18.1815V11.0755C15.3517 10.9948 15.3811 10.9252 15.4397 10.8665C15.4984 10.8078 15.5681 10.7785 15.6487 10.7785H17.8487C17.9294 10.7785 17.9991 10.8078 18.0577 10.8665C18.1164 10.9252 18.1457 10.9948 18.1457 11.0755V16.2235Z" fill="white"/>
</g>
<defs>
<clipPath id="clip0_7184_69370">
<rect width="32" height="32" fill="white" transform="translate(0 0.478516)"/>
</clipPath>
</defs>
</svg>
