<svg width="32" height="33" viewBox="0 0 32 33" fill="none" xmlns="http://www.w3.org/2000/svg">
<path opacity="0.6" d="M28.4717 25.7185C28.5117 25.3318 28.525 24.9452 28.485 24.5718L29.9117 23.4385C30.045 23.3318 30.0717 23.1585 29.9917 23.0118L28.6183 20.6252C28.5383 20.4785 28.365 20.4252 28.205 20.4785L26.4983 21.1452C26.1917 20.9185 25.8583 20.7318 25.4983 20.5852L25.2317 18.7718C25.205 18.5985 25.0717 18.4785 24.8983 18.4785H22.1383C21.9783 18.4785 21.8317 18.5985 21.805 18.7585L21.5383 20.5718C21.1917 20.7185 20.8583 20.9185 20.5517 21.1318L18.845 20.4652C18.685 20.3985 18.5117 20.4652 18.4317 20.6118L17.0583 22.9985C16.9783 23.1452 17.005 23.3185 17.1383 23.4252L18.565 24.5718C18.525 24.9585 18.5117 25.3452 18.5517 25.7185L17.125 26.8519C16.9917 26.9585 16.965 27.1318 17.045 27.2785L18.4183 29.6652C18.4983 29.8118 18.6717 29.8652 18.8317 29.8118L20.525 29.1452C20.8317 29.3718 21.165 29.5585 21.525 29.7052L21.7917 31.5185C21.8183 31.6785 21.9517 31.7985 22.125 31.7985H24.885C25.045 31.7985 25.1917 31.6785 25.2183 31.5185L25.485 29.7052C25.8317 29.5585 26.165 29.3585 26.4717 29.1452L28.1783 29.8118C28.3383 29.8785 28.5117 29.8118 28.5917 29.6652L29.965 27.2785C30.045 27.1318 30.0183 26.9585 29.885 26.8519L28.4717 25.7185ZM23.525 27.1452C22.4183 27.1452 21.525 26.2518 21.525 25.1452C21.525 24.0385 22.4183 23.1452 23.525 23.1452C24.6317 23.1452 25.525 24.0385 25.525 25.1452C25.525 26.2518 24.6317 27.1452 23.525 27.1452Z" fill="white"/>
<path opacity="0.8" d="M15 9.97852C15 10.807 15.8955 11.4785 17 11.4785C18.1045 11.4785 19 10.807 19 9.97852C19 9.15002 18.1045 8.47852 17 8.47852C15.8955 8.47852 15 7.80702 15 6.97852C15 6.15002 15.8955 5.47852 17 5.47852C18.1045 5.47852 19 6.15002 19 6.97852" stroke="white" stroke-width="2" stroke-miterlimit="10"/>
<path opacity="0.8" d="M17 4.97852V3.47852" stroke="white" stroke-width="2" stroke-miterlimit="10"/>
<path opacity="0.8" d="M17 13.4785V11.4785" stroke="white" stroke-width="2" stroke-miterlimit="10"/>
<path d="M17.068 29.8116H6.34477C5.58957 29.8116 4.93677 29.2831 4.77997 28.5444L2.6893 18.7108C2.6749 18.6447 2.66797 18.5775 2.66797 18.5103C2.66797 17.9769 3.09997 17.5449 3.6333 17.5449H10.668" stroke="white" stroke-width="2" stroke-miterlimit="10"/>
<path d="M11.7344 17.5446H14.3306C14.705 17.5446 15.0522 17.3483 15.2453 17.0267L16.2245 15.3953C16.417 15.0742 16.7642 14.8779 17.1392 14.8779H28.3669C28.9013 14.8779 29.3344 15.311 29.3344 15.8454C29.3344 15.9115 29.3274 15.9771 29.3141 16.0417L28.7818 18.6113" stroke="white" stroke-width="2" stroke-miterlimit="10"/>
<path d="M25.069 13.2781V2.07812H11.2023L6.40234 6.87813V15.9448" stroke="white" stroke-width="2" stroke-miterlimit="10"/>
<path d="M11.2025 2.07812V6.87813H6.40625" stroke="white" stroke-width="2" stroke-miterlimit="10"/>
<path d="M8 23.4785H14" stroke="white" stroke-width="2" stroke-miterlimit="10"/>
<path d="M11 26.4785L11 20.4785" stroke="white" stroke-width="2" stroke-miterlimit="10"/>
</svg>
