<svg width="30" height="30" viewBox="0 0 30 30" fill="none" xmlns="http://www.w3.org/2000/svg">
<g clip-path="url(#clip0_9111_92406)">
<path d="M3.75 17.5005V25.0005C3.75 26.3792 4.87125 27.5005 6.25 27.5005H13.75V17.5005H3.75V17.5005Z" fill="#0A77DB"/>
<path d="M16.25 17.5005V27.5005H23.75C25.1288 27.5005 26.25 26.3792 26.25 25.0005V17.5005H16.25V17.5005Z" fill="#0A77DB"/>
<path d="M25 9.99977H21.1075C21.6713 9.70727 22.205 9.34852 22.6513 8.90352C24.1125 7.44227 24.1125 5.06352 22.6513 3.59852C21.2338 2.18477 18.7675 2.18352 17.3488 3.59977C15.3038 5.64602 15.0275 9.49727 15.0025 9.92977C15 9.95352 15.0125 9.97477 15.0125 9.99977H14.9875C14.9875 9.97602 15 9.95352 14.9988 9.92852C14.9738 9.49602 14.6975 5.64477 12.6513 3.59727C11.2338 2.18352 8.765 2.18352 7.3475 3.59852C5.88625 5.06102 5.88625 7.43977 7.3475 8.90227C7.79375 9.34727 8.32875 9.70602 8.8925 9.99852H5C3.62125 9.99852 2.5 11.1198 2.5 12.4985V16.2485H13.75V11.2485H16.25V16.2485H27.5V12.4985C27.5 11.121 26.3788 9.99977 25 9.99977ZM9.11625 7.13477C8.62875 6.64727 8.62875 5.85477 9.11625 5.36602C9.35125 5.13102 9.665 5.00102 10 5.00102C10.335 5.00102 10.6488 5.13102 10.885 5.36602C11.6225 6.10352 12.0525 7.42602 12.2825 8.52977C11.1813 8.29977 9.84875 7.86727 9.11625 7.13477ZM17.7175 8.53227C17.9475 7.42852 18.3775 6.10477 19.115 5.36727C19.3513 5.13102 19.6663 5.00102 20 5.00102C20.3338 5.00102 20.6488 5.13102 20.8825 5.36477C21.37 5.85352 21.3713 6.64727 20.8825 7.13477C20.145 7.87352 18.8213 8.30352 17.7175 8.53227Z" fill="#0A77DB" fill-opacity="0.5"/>
</g>
<defs>
<clipPath id="clip0_9111_92406">
<rect width="30" height="30" fill="white"/>
</clipPath>
</defs>
</svg>
