<svg width="30" height="30" viewBox="0 0 30 30" fill="none" xmlns="http://www.w3.org/2000/svg">
<g clip-path="url(#clip0_9111_92367)">
<path d="M18.7461 11.5845L14.9961 5.01953L11.2461 11.582V13.7495H18.7461V11.5845Z" fill="#0A77DB"/>
<path d="M4.99609 13.7498H8.74609V11.2498C8.74609 11.0323 8.80234 10.8185 8.91109 10.6298L12.7898 3.84229L4.24609 10.2498C3.93109 10.4848 3.74609 10.856 3.74609 11.2498V12.4998C3.74609 13.1898 4.30609 13.7498 4.99609 13.7498Z" fill="#0A77DB"/>
<path d="M21.2469 11.2523V13.7498H24.9969C25.6869 13.7498 26.2469 13.1898 26.2469 12.4998V11.2498C26.2469 10.8573 26.0619 10.486 25.7469 10.2498L17.2031 3.84229L21.0819 10.6323C21.1906 10.821 21.2469 11.0348 21.2469 11.2523Z" fill="#0A77DB"/>
<path d="M16.2461 14.9995H13.7461V27.4995H16.2461V14.9995Z" fill="#0A77DB"/>
<path d="M25.0336 18.4468L24.0198 22.5005H19.9961C19.3061 22.5005 18.7461 23.0605 18.7461 23.7505V27.5005H21.2461V25.0005H23.7461V27.5005H26.2461V23.9043L27.4586 19.0543L25.0336 18.4468Z" fill="#0A77DB" fill-opacity="0.5"/>
<path d="M9.99766 22.5005H5.97391L4.96016 18.4468L2.53516 19.0543L3.74766 23.9043V27.5005H6.24766V25.0005H8.74766V27.5005H11.2477V23.7505C11.2477 23.0605 10.6877 22.5005 9.99766 22.5005Z" fill="#0A77DB" fill-opacity="0.5"/>
</g>
<defs>
<clipPath id="clip0_9111_92367">
<rect width="30" height="30" fill="white"/>
</clipPath>
</defs>
</svg>
