<svg width="32" height="32" viewBox="0 0 32 32" fill="none" xmlns="http://www.w3.org/2000/svg">
<path opacity="0.6" d="M17.8695 1.53173L27.5023 7.44259C27.8116 7.63243 27.8098 8.10293 27.4994 8.28984L16.0002 15.212L4.50154 8.28984C4.19105 8.10293 4.18931 7.63184 4.49806 7.44259L14.1302 1.53173C15.2857 0.822756 16.714 0.822756 17.8695 1.53173Z" fill="white"/>
<path d="M3 22.0664V10.4826C3 10.107 3.38536 9.8715 3.69469 10.0578L15.0714 16.9062V30.0199C15.0714 30.7751 14.2949 31.245 13.6757 30.8654L4.84496 25.4473C3.70281 24.7465 3 23.4592 3 22.0664Z" fill="white"/>
<path d="M28.3767 10.0652L17 16.9135V30.0278C17 30.7824 17.7771 31.2529 18.3958 30.8733L27.2265 25.4546C28.3686 24.7538 29.0714 23.4659 29.0714 22.0738V10.4899C29.0714 10.1144 28.6861 9.87883 28.3767 10.0652Z" fill="white"/>
</svg>
