<svg width="32" height="32" viewBox="0 0 32 32" fill="none" xmlns="http://www.w3.org/2000/svg">
<path d="M0 26.2222C0 27.6944 1.19444 28.8889 2.66667 28.8889H29.3333C30.8056 28.8889 32 27.6944 32 26.2222V16.4444H0V26.2222ZM10.6667 22.4444C10.6667 22.0778 10.9667 21.7778 11.3333 21.7778H18.8889C19.2556 21.7778 19.5556 22.0778 19.5556 22.4444V24.6667C19.5556 25.0333 19.2556 25.3333 18.8889 25.3333H11.3333C10.9667 25.3333 10.6667 25.0333 10.6667 24.6667V22.4444ZM3.55556 22.4444C3.55556 22.0778 3.85556 21.7778 4.22222 21.7778H8.22222C8.58889 21.7778 8.88889 22.0778 8.88889 22.4444V24.6667C8.88889 25.0333 8.58889 25.3333 8.22222 25.3333H4.22222C3.85556 25.3333 3.55556 25.0333 3.55556 24.6667V22.4444ZM32 6.66667V9.33333H0V6.66667C0 5.19444 1.19444 4 2.66667 4H29.3333C30.8056 4 32 5.19444 32 6.66667Z" fill="white"/>
</svg>
