<svg width="32" height="32" viewBox="0 0 32 32" fill="none" xmlns="http://www.w3.org/2000/svg">
<path opacity="0.6" d="M14.3989 22.3987C14.3989 23.4078 14.0453 24.3342 13.457 25.0654H26.6656C28.1386 25.0654 29.3322 23.8718 29.3322 22.3987V21.332H14.3989V22.3987Z" fill="white"/>
<path d="M25.5982 4.80156V2.66823C25.5982 2.07943 25.1203 1.60156 24.5315 1.60156C23.9427 1.60156 23.4648 2.07943 23.4648 2.66823V6.66823C23.4648 7.10983 23.1064 7.46823 22.6648 7.46823C22.2232 7.46823 21.8648 7.10983 21.8648 6.66823V4.80156H19.7315V2.66823C19.7315 2.07943 19.2536 1.60156 18.6648 1.60156C18.076 1.60156 17.5982 2.07943 17.5982 2.66823V6.66823C17.5982 7.10983 17.2398 7.46823 16.7982 7.46823C16.3566 7.46823 15.9982 7.10983 15.9982 6.66823V4.80156H13.8648V2.66823C13.8648 2.07943 13.387 1.60156 12.7982 1.60156C12.2094 1.60156 11.7315 2.07943 11.7315 2.66823V6.66823C11.7315 7.10983 11.3731 7.46823 10.9315 7.46823C10.4899 7.46823 10.1315 7.10983 10.1315 6.66823V4.80156H9.59818C8.42004 4.80156 7.46484 5.75676 7.46484 6.9349V22.4016C7.46484 23.8746 8.65844 25.0682 10.1315 25.0682C11.6046 25.0682 12.7982 23.8746 12.7982 22.4016V19.7349H27.7315V6.9349C27.7315 5.75676 26.7763 4.80156 25.5982 4.80156ZM22.5939 11.9797L17.7939 16.7797C17.6035 16.9589 17.347 17.0682 17.0648 17.0682C16.7699 17.0682 16.5032 16.9488 16.3107 16.7557L13.644 14.089C13.451 13.8965 13.3315 13.6298 13.3315 13.3349C13.3315 12.7461 13.8094 12.2682 14.3982 12.2682C14.6931 12.2682 14.9598 12.3877 15.1523 12.5808L17.0888 14.5173L21.1358 10.4234C21.3262 10.2442 21.5827 10.1349 21.8648 10.1349C22.4536 10.1349 22.9315 10.6128 22.9315 11.2016C22.9315 11.5088 22.8019 11.7856 22.5939 11.9797V11.9797Z" fill="white"/>
<path d="M10.1344 26.6669C7.78184 26.6669 5.86771 24.7528 5.86771 22.4003V6.93359H4.26771C3.97278 6.93359 3.73438 7.17199 3.73438 7.46693V29.3336C3.73438 29.6285 3.97278 29.8669 4.26771 29.8669H23.4677C23.7626 29.8669 24.001 29.6285 24.001 29.3336V26.6669H10.1344Z" fill="white"/>
</svg>
