<svg width="30" height="30" viewBox="0 0 30 30" fill="none" xmlns="http://www.w3.org/2000/svg">
<path d="M16.875 7.96875V0H5.15625C4.37695 0 3.75 0.626953 3.75 1.40625V28.5938C3.75 29.373 4.37695 30 5.15625 30H24.8438C25.623 30 26.25 29.373 26.25 28.5938V9.375H18.2812C17.5078 9.375 16.875 8.74219 16.875 7.96875ZM7.5 4.21875C7.5 3.95977 7.70977 3.75 7.96875 3.75H12.6562C12.9152 3.75 13.125 3.95977 13.125 4.21875V5.15625C13.125 5.41523 12.9152 5.625 12.6562 5.625H7.96875C7.70977 5.625 7.5 5.41523 7.5 5.15625V4.21875ZM7.5 7.96875C7.5 7.70977 7.70977 7.5 7.96875 7.5H12.6562C12.9152 7.5 13.125 7.70977 13.125 7.96875V8.90625C13.125 9.16523 12.9152 9.375 12.6562 9.375H7.96875C7.70977 9.375 7.5 9.16523 7.5 8.90625V7.96875Z" fill="#0A77DB"/>
<path opacity="0.6" d="M20.1035 0.410156L25.8398 6.15234C26.1035 6.41602 26.25 6.77344 26.25 7.14258V7.5H18.75V0H19.1074C19.4824 0 19.8398 0.146484 20.1035 0.410156Z" fill="#0A77DB"/>
<path d="M7.60157 16.4453L9.02247 18.9795L10.4482 16.4453H11.9912L9.88184 19.9707L12.0449 23.5547H10.4873L9.02247 20.9717L7.5625 23.5547H6L8.16309 19.9707L6.05371 16.4453H7.60157ZM14.2129 16.4453V23.5547H12.8701V16.4453H14.2129ZM18.4805 16.4453L15.6289 19.9121L13.998 21.6553L13.7588 20.3516L14.8916 18.8818L16.8349 16.4453H18.4805ZM16.9863 23.5547L14.7744 20.2246L15.7363 19.3555L18.583 23.5547H16.9863Z" fill="white"/>
</svg>
