<svg width="30" height="30" viewBox="0 0 30 30" fill="none" xmlns="http://www.w3.org/2000/svg">
<path d="M16.875 7.96875V0H5.15625C4.37695 0 3.75 0.626953 3.75 1.40625V28.5938C3.75 29.373 4.37695 30 5.15625 30H24.8438C25.623 30 26.25 29.373 26.25 28.5938V9.375H18.2812C17.5078 9.375 16.875 8.74219 16.875 7.96875ZM7.5 4.21875C7.5 3.95977 7.70977 3.75 7.96875 3.75H12.6562C12.9152 3.75 13.125 3.95977 13.125 4.21875V5.15625C13.125 5.41523 12.9152 5.625 12.6562 5.625H7.96875C7.70977 5.625 7.5 5.41523 7.5 5.15625V4.21875ZM7.5 7.96875C7.5 7.70977 7.70977 7.5 7.96875 7.5H12.6562C12.9152 7.5 13.125 7.70977 13.125 7.96875V8.90625C13.125 9.16523 12.9152 9.375 12.6562 9.375H7.96875C7.70977 9.375 7.5 9.16523 7.5 8.90625V7.96875Z" fill="#0A77DB"/>
<path opacity="0.6" d="M20.1035 0.410156L25.8398 6.15234C26.1035 6.41602 26.25 6.77344 26.25 7.14258V7.5H18.75V0H19.1074C19.4824 0 19.8398 0.146484 20.1035 0.410156Z" fill="#0A77DB"/>
<path d="M8.12402 22.9814H6.59082L6.60059 21.9268H8.12402C8.53744 21.9268 8.88412 21.8356 9.16406 21.6533C9.44401 21.4678 9.6556 21.2025 9.79883 20.8574C9.94206 20.5091 10.0137 20.0924 10.0137 19.6074V19.2412C10.0137 18.8669 9.97298 18.5365 9.8916 18.25C9.81022 17.9635 9.68978 17.7227 9.53027 17.5273C9.37402 17.332 9.18034 17.1839 8.94922 17.083C8.7181 16.9821 8.4528 16.9316 8.15332 16.9316H6.56152V15.8721H8.15332C8.62858 15.8721 9.06152 15.9518 9.45215 16.1113C9.84603 16.2708 10.1862 16.5003 10.4727 16.7998C10.7624 17.096 10.9837 17.4508 11.1367 17.8643C11.293 18.2777 11.3711 18.7399 11.3711 19.251V19.6074C11.3711 20.1152 11.293 20.5775 11.1367 20.9941C10.9837 21.4076 10.7624 21.7624 10.4727 22.0586C10.1862 22.3548 9.8444 22.5827 9.44727 22.7422C9.05013 22.9017 8.60905 22.9814 8.12402 22.9814ZM7.34277 15.8721V22.9814H6V15.8721H7.34277ZM16.6738 20.6426H18.0166C17.9808 21.1178 17.849 21.5394 17.6211 21.9072C17.3932 22.2718 17.0759 22.5583 16.669 22.7666C16.2621 22.9749 15.7689 23.0791 15.1894 23.0791C14.7435 23.0791 14.3415 23.001 13.9834 22.8447C13.6286 22.6852 13.3242 22.459 13.0703 22.166C12.8197 21.8698 12.6276 21.515 12.4941 21.1016C12.3607 20.6849 12.2939 20.2178 12.2939 19.7002V19.1582C12.2939 18.6406 12.3623 18.1735 12.499 17.7568C12.6357 17.3402 12.8311 16.9854 13.085 16.6924C13.3421 16.3962 13.6497 16.1683 14.0078 16.0088C14.3691 15.8493 14.7728 15.7695 15.2187 15.7695C15.7982 15.7695 16.2881 15.877 16.6885 16.0918C17.0889 16.3034 17.3998 16.5947 17.6211 16.9658C17.8425 17.3369 17.9759 17.7633 18.0215 18.2451H16.6787C16.6527 17.9456 16.5876 17.6917 16.4834 17.4834C16.3825 17.2751 16.2295 17.1172 16.0244 17.0098C15.8226 16.8991 15.554 16.8437 15.2187 16.8437C14.9583 16.8437 14.7288 16.8926 14.5303 16.9902C14.335 17.0879 14.1722 17.2344 14.042 17.4297C13.9118 17.6217 13.8141 17.8626 13.749 18.1523C13.6839 18.4388 13.6514 18.7708 13.6514 19.1484V19.7002C13.6514 20.0615 13.6807 20.3854 13.7393 20.6719C13.7978 20.9583 13.889 21.2008 14.0127 21.3994C14.1364 21.598 14.2959 21.7493 14.4912 21.8535C14.6865 21.9577 14.9193 22.0098 15.1894 22.0098C15.5182 22.0098 15.7852 21.9577 15.9902 21.8535C16.1986 21.7493 16.3565 21.5964 16.4639 21.3945C16.5746 21.1927 16.6445 20.9421 16.6738 20.6426ZM22.8701 21.9805L24.7647 23.4844L23.9053 24.2314L22.0401 22.7373L22.8701 21.9805ZM24.7988 19.2461V19.6123C24.7988 20.1494 24.7272 20.6328 24.584 21.0625C24.4408 21.4889 24.2357 21.8519 23.9688 22.1514C23.7051 22.4508 23.391 22.6803 23.0264 22.8398C22.6618 22.9993 22.2581 23.0791 21.8154 23.0791C21.376 23.0791 20.9723 22.9993 20.6045 22.8398C20.2399 22.6803 19.9242 22.4508 19.6572 22.1514C19.3903 21.8519 19.1836 21.4889 19.0371 21.0625C18.8906 20.6328 18.8174 20.1494 18.8174 19.6123V19.2461C18.8174 18.7057 18.889 18.2223 19.0322 17.7959C19.1787 17.3695 19.3838 17.0065 19.6475 16.707C19.9144 16.4043 20.2302 16.1732 20.5947 16.0137C20.9626 15.8542 21.3662 15.7744 21.8057 15.7744C22.2484 15.7744 22.652 15.8542 23.0166 16.0137C23.3845 16.1732 23.7002 16.4043 23.9639 16.707C24.2308 17.0065 24.4359 17.3695 24.5791 17.7959C24.7256 18.2223 24.7988 18.7057 24.7988 19.2461ZM23.4414 19.6123V19.2363C23.4414 18.849 23.4056 18.5088 23.334 18.2158C23.2624 17.9196 23.155 17.6706 23.0117 17.4687C22.8718 17.2669 22.7009 17.1156 22.499 17.0146C22.2972 16.9105 22.0661 16.8584 21.8057 16.8584C21.5485 16.8584 21.319 16.9105 21.1172 17.0146C20.9154 17.1156 20.7445 17.2669 20.6045 17.4687C20.4645 17.6706 20.3571 17.9196 20.2822 18.2158C20.2106 18.5088 20.1748 18.849 20.1748 19.2363V19.6123C20.1748 19.9964 20.2106 20.3366 20.2822 20.6328C20.3571 20.929 20.4645 21.1797 20.6045 21.3848C20.7477 21.5866 20.9203 21.7396 21.1221 21.8437C21.3272 21.9479 21.5583 22 21.8154 22C22.0759 22 22.307 21.9479 22.5088 21.8437C22.7106 21.7396 22.8799 21.5866 23.0166 21.3848C23.1566 21.1797 23.2624 20.929 23.334 20.6328C23.4056 20.3366 23.4414 19.9964 23.4414 19.6123Z" fill="white"/>
</svg>
