<svg width="30" height="30" viewBox="0 0 30 30" fill="none" xmlns="http://www.w3.org/2000/svg">
<path d="M16.875 7.96875V0H5.15625C4.37695 0 3.75 0.626953 3.75 1.40625V28.5938C3.75 29.373 4.37695 30 5.15625 30H24.8438C25.623 30 26.25 29.373 26.25 28.5938V9.375H18.2812C17.5078 9.375 16.875 8.74219 16.875 7.96875ZM7.5 4.21875C7.5 3.95977 7.70977 3.75 7.96875 3.75H12.6562C12.9152 3.75 13.125 3.95977 13.125 4.21875V5.15625C13.125 5.41523 12.9152 5.625 12.6562 5.625H7.96875C7.70977 5.625 7.5 5.41523 7.5 5.15625V4.21875ZM7.5 7.96875C7.5 7.70977 7.70977 7.5 7.96875 7.5H12.6562C12.9152 7.5 13.125 7.70977 13.125 7.96875V8.90625C13.125 9.16523 12.9152 9.375 12.6562 9.375H7.96875C7.70977 9.375 7.5 9.16523 7.5 8.90625V7.96875Z" fill="#0A77DB"/>
<path opacity="0.6" d="M20.1035 0.410156L25.8398 6.15234C26.1035 6.41602 26.25 6.77344 26.25 7.14258V7.5H18.75V0H19.1074C19.4824 0 19.8398 0.146484 20.1035 0.410156Z" fill="#0A77DB"/>
<g clip-path="url(#clip0_9248_63396)">
<path d="M9.41211 21.4951V22.1279H7.16797V21.4951H9.41211ZM7.38769 19.7344V24H6.58203V19.7344H7.38769ZM10.0098 19.7344V24H9.2041V19.7344H10.0098ZM12.1045 24H11.1846L11.1904 23.3672H12.1045C12.3525 23.3672 12.5605 23.3125 12.7285 23.2031C12.8965 23.0918 13.0234 22.9326 13.1094 22.7256C13.1953 22.5166 13.2383 22.2666 13.2383 21.9756V21.7559C13.2383 21.5313 13.2139 21.333 13.165 21.1611C13.1162 20.9893 13.0439 20.8447 12.9482 20.7275C12.8545 20.6104 12.7383 20.5215 12.5996 20.4609C12.4609 20.4004 12.3018 20.3701 12.1221 20.3701H11.167V19.7344H12.1221C12.4072 19.7344 12.667 19.7822 12.9014 19.8779C13.1377 19.9736 13.3418 20.1113 13.5137 20.291C13.6875 20.4688 13.8203 20.6816 13.9121 20.9297C14.0059 21.1777 14.0527 21.4551 14.0527 21.7617V21.9756C14.0527 22.2803 14.0059 22.5576 13.9121 22.8076C13.8203 23.0557 13.6875 23.2686 13.5137 23.4463C13.3418 23.624 13.1367 23.7607 12.8984 23.8565C12.6602 23.9522 12.3955 24 12.1045 24ZM11.6357 19.7344V24H10.8301V19.7344H11.6357ZM15.0898 19.7344H15.7871L16.9532 22.9453L18.1163 19.7344H18.8165L17.2315 24H16.6719L15.0898 19.7344ZM14.7383 19.7344H15.4209L15.5439 22.6846V24H14.7383V19.7344ZM18.4825 19.7344H19.168V24H18.3624V22.6846L18.4825 19.7344ZM22.8184 21.4951V22.1279H20.5743V21.4951H22.8184ZM20.794 19.7344V24H19.9883V19.7344H20.794ZM23.4161 19.7344V24H22.6104V19.7344H23.4161Z" fill="white"/>
</g>
<defs>
<clipPath id="clip0_9248_63396">
<rect width="18" height="10" fill="white" transform="translate(5.58203 16.8672)"/>
</clipPath>
</defs>
</svg>
