<svg width="30" height="30" viewBox="0 0 30 30" fill="none" xmlns="http://www.w3.org/2000/svg">
<path d="M16.875 7.96875V0H5.15625C4.37695 0 3.75 0.626953 3.75 1.40625V28.5938C3.75 29.373 4.37695 30 5.15625 30H24.8438C25.623 30 26.25 29.373 26.25 28.5938V9.375H18.2812C17.5078 9.375 16.875 8.74219 16.875 7.96875ZM7.5 4.21875C7.5 3.95977 7.70977 3.75 7.96875 3.75H12.6562C12.9152 3.75 13.125 3.95977 13.125 4.21875V5.15625C13.125 5.41523 12.9152 5.625 12.6562 5.625H7.96875C7.70977 5.625 7.5 5.41523 7.5 5.15625V4.21875ZM7.5 7.96875C7.5 7.70977 7.70977 7.5 7.96875 7.5H12.6562C12.9152 7.5 13.125 7.70977 13.125 7.96875V8.90625C13.125 9.16523 12.9152 9.375 12.6562 9.375H7.96875C7.70977 9.375 7.5 9.16523 7.5 8.90625V7.96875Z" fill="#0A77DB"/>
<path opacity="0.6" d="M20.1035 0.410156L25.8398 6.15234C26.1035 6.41602 26.25 6.77344 26.25 7.14258V7.5H18.75V0H19.1074C19.4824 0 19.8398 0.146484 20.1035 0.410156Z" fill="#0A77DB"/>
<path d="M11.7324 19.8799V22.6484C11.6283 22.7819 11.4639 22.9268 11.2393 23.083C11.0179 23.2393 10.7282 23.3744 10.3701 23.4883C10.012 23.599 9.5726 23.6543 9.05176 23.6543C8.59929 23.6543 8.18588 23.5794 7.81153 23.4297C7.43718 23.2767 7.11491 23.0537 6.84473 22.7607C6.57455 22.4678 6.36621 22.1097 6.21973 21.6865C6.07324 21.2634 6 20.78 6 20.2363V19.7676C6 19.224 6.06836 18.7406 6.20508 18.3174C6.34505 17.8942 6.54362 17.5361 6.80079 17.2432C7.0612 16.9502 7.37207 16.7272 7.7334 16.5742C8.09799 16.4212 8.50489 16.3447 8.95411 16.3447C9.55632 16.3447 10.0511 16.444 10.4385 16.6426C10.8291 16.8412 11.1286 17.1146 11.3369 17.4629C11.5452 17.8079 11.6755 18.2051 11.7275 18.6543H10.4189C10.3831 18.4069 10.3115 18.1904 10.2041 18.0049C10.0967 17.8161 9.94369 17.6696 9.74512 17.5654C9.54981 17.458 9.2959 17.4043 8.9834 17.4043C8.71973 17.4043 8.48698 17.4564 8.28516 17.5606C8.08334 17.6647 7.91407 17.8161 7.77735 18.0147C7.64063 18.2132 7.53646 18.459 7.46485 18.752C7.39649 19.0449 7.36231 19.3802 7.36231 19.7578V20.2363C7.36231 20.6172 7.40137 20.9557 7.4795 21.252C7.55762 21.5449 7.66993 21.7923 7.81641 21.9941C7.96615 22.1927 8.15007 22.3441 8.36817 22.4482C8.58952 22.5492 8.84017 22.5996 9.12012 22.5996C9.37403 22.5996 9.58399 22.5785 9.75 22.5361C9.91927 22.4906 10.0544 22.4369 10.1553 22.375C10.2562 22.3132 10.3343 22.2529 10.3896 22.1943V20.8613H8.97852V19.8799H11.7324ZM15.7265 20.3877H13.9102L13.9004 19.4404H15.458C15.7249 19.4404 15.9479 19.403 16.1269 19.3281C16.306 19.2533 16.441 19.1442 16.5322 19.001C16.6266 18.8578 16.6738 18.6836 16.6738 18.4785C16.6738 18.2507 16.6298 18.0651 16.542 17.9219C16.4573 17.7787 16.3239 17.6745 16.1416 17.6094C15.9593 17.541 15.7282 17.5068 15.4482 17.5068H14.3447V23.5566H13.002V16.4473H15.4482C15.8519 16.4473 16.2116 16.4863 16.5273 16.5645C16.8463 16.6393 17.1165 16.7565 17.3379 16.916C17.5592 17.0755 17.7269 17.2757 17.8408 17.5166C17.958 17.7575 18.0166 18.0439 18.0166 18.376C18.0166 18.6689 17.9482 18.9391 17.8115 19.1865C17.678 19.4307 17.4713 19.6292 17.1914 19.7822C16.9147 19.9352 16.5631 20.0231 16.1367 20.0459L15.7265 20.3877ZM15.6679 23.5566H13.5146L14.0762 22.502H15.6679C15.9349 22.502 16.1546 22.458 16.3271 22.3701C16.5029 22.2822 16.6331 22.1618 16.7177 22.0088C16.8056 21.8525 16.8496 21.6735 16.8496 21.4717C16.8496 21.2503 16.8105 21.0583 16.7324 20.8955C16.6575 20.7328 16.5371 20.6074 16.3711 20.5195C16.2083 20.4316 15.9935 20.3877 15.7265 20.3877H14.3301L14.3398 19.4404H16.1172L16.4248 19.8066C16.8349 19.8099 17.1686 19.8913 17.4257 20.0508C17.6862 20.2103 17.8782 20.4154 18.0019 20.666C18.1256 20.9167 18.1875 21.1869 18.1875 21.4766C18.1875 21.9323 18.0882 22.3148 17.8896 22.624C17.6943 22.9333 17.4078 23.166 17.0302 23.3223C16.6559 23.4785 16.2018 23.5566 15.6679 23.5566ZM23.5097 21.2178H24.8525C24.8167 21.693 24.6849 22.1146 24.457 22.4824C24.2291 22.847 23.9117 23.1335 23.5048 23.3418C23.0979 23.5501 22.6048 23.6543 22.0254 23.6543C21.5794 23.6543 21.1774 23.5762 20.8193 23.4199C20.4645 23.2604 20.1601 23.0342 19.9062 22.7412C19.6556 22.445 19.4635 22.0902 19.33 21.6768C19.1966 21.2601 19.1298 20.793 19.1298 20.2754V19.7334C19.1298 19.2158 19.1982 18.7487 19.3349 18.332C19.4716 17.9154 19.667 17.5606 19.9209 17.2676C20.178 16.9714 20.4856 16.7435 20.8437 16.584C21.205 16.4245 21.6087 16.3447 22.0547 16.3447C22.6341 16.3447 23.124 16.4521 23.5244 16.667C23.9248 16.8786 24.2356 17.1699 24.457 17.541C24.6783 17.9121 24.8118 18.3385 24.8574 18.8203H23.5146C23.4886 18.5208 23.4235 18.2669 23.3193 18.0586C23.2184 17.8503 23.0654 17.6924 22.8603 17.585C22.6585 17.4743 22.3899 17.4189 22.0547 17.4189C21.7942 17.4189 21.5647 17.4678 21.3662 17.5654C21.1709 17.6631 21.0081 17.8096 20.8779 18.0049C20.7477 18.1969 20.65 18.4378 20.5849 18.7275C20.5198 19.014 20.4873 19.346 20.4873 19.7236V20.2754C20.4873 20.6367 20.5166 20.9606 20.5752 21.2471C20.6338 21.5335 20.7249 21.776 20.8486 21.9746C20.9723 22.1732 21.1318 22.3245 21.3271 22.4287C21.5224 22.5329 21.7552 22.585 22.0254 22.585C22.3541 22.585 22.6211 22.5329 22.8261 22.4287C23.0345 22.3245 23.1923 22.1716 23.2998 21.9697C23.4104 21.7679 23.4804 21.5173 23.5097 21.2178Z" fill="white"/>
</svg>
