<svg width="30" height="30" viewBox="0 0 30 30" fill="none" xmlns="http://www.w3.org/2000/svg">
<path d="M16.875 7.96875V0H5.15625C4.37695 0 3.75 0.626953 3.75 1.40625V28.5938C3.75 29.373 4.37695 30 5.15625 30H24.8438C25.623 30 26.25 29.373 26.25 28.5938V9.375H18.2812C17.5078 9.375 16.875 8.74219 16.875 7.96875ZM7.5 4.21875C7.5 3.95977 7.70977 3.75 7.96875 3.75H12.6562C12.9152 3.75 13.125 3.95977 13.125 4.21875V5.15625C13.125 5.41523 12.9152 5.625 12.6562 5.625H7.96875C7.70977 5.625 7.5 5.41523 7.5 5.15625V4.21875ZM7.5 7.96875C7.5 7.70977 7.70977 7.5 7.96875 7.5H12.6562C12.9152 7.5 13.125 7.70977 13.125 7.96875V8.90625C13.125 9.16523 12.9152 9.375 12.6562 9.375H7.96875C7.70977 9.375 7.5 9.16523 7.5 8.90625V7.96875Z" fill="#0A77DB"/>
<path opacity="0.6" d="M20.1035 0.410156L25.8398 6.15234C26.1035 6.41602 26.25 6.77344 26.25 7.14258V7.5H18.75V0H19.1074C19.4824 0 19.8398 0.146484 20.1035 0.410156Z" fill="#0A77DB"/>
<path d="M8.73438 20.9619H6.90332V19.9072H8.73438C9.03386 19.9072 9.27637 19.8584 9.46191 19.7607C9.65072 19.6598 9.78906 19.5231 9.87695 19.3506C9.96484 19.1748 10.0088 18.9746 10.0088 18.75C10.0088 18.5319 9.96484 18.3284 9.87695 18.1396C9.78906 17.9508 9.65072 17.7978 9.46191 17.6807C9.27637 17.5635 9.03386 17.5049 8.73438 17.5049H7.34277V23.5547H6V16.4453H8.73438C9.28776 16.4453 9.75977 16.5446 10.1504 16.7432C10.5443 16.9385 10.8437 17.2103 11.0488 17.5586C11.2572 17.9036 11.3613 18.2975 11.3613 18.7402C11.3613 19.1992 11.2572 19.5947 11.0488 19.9268C10.8437 20.2588 10.5443 20.5143 10.1504 20.6934C9.75977 20.8724 9.28776 20.9619 8.73438 20.9619ZM15.4678 16.4453V23.5547H14.1299V16.4453H15.4678ZM17.6748 16.4453V17.5049H11.9473V16.4453H17.6748Z" fill="white"/>
</svg>
