<svg width="30" height="30" viewBox="0 0 30 30" fill="none" xmlns="http://www.w3.org/2000/svg">
<path d="M16.875 7.96875V0H5.15625C4.37695 0 3.75 0.626953 3.75 1.40625V28.5938C3.75 29.373 4.37695 30 5.15625 30H24.8438C25.623 30 26.25 29.373 26.25 28.5938V9.375H18.2812C17.5078 9.375 16.875 8.74219 16.875 7.96875ZM7.5 4.21875C7.5 3.95977 7.70977 3.75 7.96875 3.75H12.6562C12.9152 3.75 13.125 3.95977 13.125 4.21875V5.15625C13.125 5.41523 12.9152 5.625 12.6562 5.625H7.96875C7.70977 5.625 7.5 5.41523 7.5 5.15625V4.21875ZM7.5 7.96875C7.5 7.70977 7.70977 7.5 7.96875 7.5H12.6562C12.9152 7.5 13.125 7.70977 13.125 7.96875V8.90625C13.125 9.16523 12.9152 9.375 12.6562 9.375H7.96875C7.70977 9.375 7.5 9.16523 7.5 8.90625V7.96875Z" fill="#0A77DB"/>
<path opacity="0.6" d="M20.1035 0.410156L25.8398 6.15234C26.1035 6.41602 26.25 6.77344 26.25 7.14258V7.5H18.75V0H19.1074C19.4824 0 19.8398 0.146484 20.1035 0.410156Z" fill="#0A77DB"/>
<path d="M9.4229 18.8906H10.7046V23.6123C10.7046 24.1559 10.5928 24.6133 10.3691 24.9844C10.1453 25.3522 9.84082 25.6305 9.45552 25.8193C9.07022 26.0049 8.6321 26.0977 8.14116 26.0977C7.644 26.0977 7.20122 26.0049 6.81281 25.8193C6.4244 25.6305 6.11989 25.3522 5.89928 24.9844C5.67867 24.6133 5.56836 24.1559 5.56836 23.6123V18.8906H6.8501V23.6123C6.8501 23.9443 6.90293 24.2162 7.00857 24.4277C7.11421 24.6361 7.26336 24.7907 7.45601 24.8916C7.64866 24.9925 7.87704 25.043 8.14116 25.043C8.40838 25.043 8.63676 24.9925 8.82631 24.8916C9.01895 24.7907 9.16654 24.6361 9.26909 24.4277C9.37163 24.2162 9.4229 23.9443 9.4229 23.6123V18.8906ZM17.3744 18.8906V26H16.0879L13.2029 21.0684V26H11.9211V18.8906H13.2029L16.0973 23.8271V18.8906H17.3744ZM22.6504 23.6611H23.9322C23.898 24.1364 23.7721 24.5579 23.5547 24.9258C23.3371 25.2904 23.0342 25.5768 22.6457 25.7852C22.2573 25.9935 21.7867 26.0977 21.2335 26.0977C20.8079 26.0977 20.4241 26.0195 20.0823 25.8633C19.7436 25.7038 19.4531 25.4775 19.2107 25.1846C18.9714 24.8883 18.7881 24.5335 18.6607 24.1201C18.5334 23.7035 18.4696 23.2363 18.4696 22.7188V22.1768C18.4696 21.6592 18.5349 21.1921 18.6654 20.7754C18.7959 20.3587 18.9823 20.0039 19.2247 19.7109C19.4702 19.4147 19.7638 19.1868 20.1056 19.0273C20.4505 18.8678 20.8358 18.7881 21.2615 18.7881C21.8146 18.7881 22.2823 18.8955 22.6645 19.1103C23.0466 19.3219 23.3433 19.6133 23.5547 19.9844C23.7659 20.3555 23.8933 20.7819 23.9369 21.2637H22.6551C22.6303 20.9642 22.568 20.7103 22.4687 20.502C22.3724 20.2936 22.2263 20.1357 22.0305 20.0283C21.8379 19.9176 21.5815 19.8623 21.2615 19.8623C21.0129 19.8623 20.7938 19.9111 20.6044 20.0088C20.4178 20.1065 20.2625 20.2529 20.1383 20.4482C20.014 20.6403 19.9207 20.8812 19.8586 21.1709C19.7964 21.4574 19.7654 21.7894 19.7654 22.167V22.7188C19.7654 23.0801 19.7933 23.404 19.8492 23.6904C19.9052 23.9769 19.9922 24.2194 20.1103 24.418C20.2284 24.6165 20.3806 24.7679 20.567 24.8721C20.7535 24.9762 20.9757 25.0283 21.2335 25.0283C21.5474 25.0283 21.8021 24.9762 21.9979 24.8721C22.1968 24.7679 22.3475 24.6149 22.45 24.4131C22.5556 24.2113 22.6225 23.9606 22.6504 23.6611Z" fill="white"/>
</svg>
