<svg width="512" height="512" viewBox="0 0 512 512" fill="none" xmlns="http://www.w3.org/2000/svg">
<g clip-path="url(#clip0_9197_62515)">
<path d="M256 512C397.385 512 512 397.385 512 256C512 114.615 397.385 0 256 0C114.615 0 0 114.615 0 256C0 397.385 114.615 512 256 512Z" fill="#8AD5DD"/>
<path d="M115 68V444H353.92V400.92H397V68H115Z" fill="white"/>
<path d="M353.92 444V400.92H397L353.92 444Z" fill="#E0E0E0"/>
<path d="M349.672 324.016H159.824V331.848H349.672V324.016Z" fill="#E0E0E0"/>
<path d="M349.672 344.64H159.824V352.472H349.672V344.64Z" fill="#E0E0E0"/>
<path d="M349.672 365.231H159.824V373.063H349.672V365.231Z" fill="#E0E0E0"/>
<path d="M349.672 385.84H159.824V393.672H349.672V385.84Z" fill="#E0E0E0"/>
<path d="M251.975 129.504C208.559 129.504 173.367 164.696 173.367 208.112C173.367 251.528 208.559 286.72 251.975 286.72C295.391 286.72 330.583 251.528 330.583 208.112H251.975V129.504Z" fill="#DB2B42"/>
<path d="M263.16 118.328V196.936H341.768C341.76 153.52 306.568 118.328 263.16 118.328Z" fill="#2D2D2D"/>
</g>
<defs>
<clipPath id="clip0_9197_62515">
<rect width="512" height="512" fill="white"/>
</clipPath>
</defs>
</svg>
