<svg width="800" height="671" viewBox="0 0 800 671" fill="none" xmlns="http://www.w3.org/2000/svg">
<g clip-path="url(#clip0_9208_62624)">
<path d="M750.798 605.783V82.4988C750.29 76.421 747.442 70.762 742.834 66.6745C738.227 62.5869 732.206 60.3784 725.998 60.4988L75.2026 66.3917C68.7313 66.3917 62.5251 68.9165 57.9493 73.4106C53.3734 77.9048 50.8027 84.0002 50.8027 90.3559V605.783H750.798Z" fill="#EAE2F9"/>
<path fill-rule="evenodd" clip-rule="evenodd" d="M309.601 400.714H481.999C487.304 400.714 492.391 402.783 496.141 406.467C499.892 410.151 501.999 415.147 501.999 420.356C501.999 425.566 499.892 430.562 496.141 434.246C492.391 437.93 487.304 439.999 481.999 439.999H298.001C294.511 439.979 291.087 439.061 288.069 437.338C285.052 435.615 282.546 433.147 280.801 430.178L203.601 298.571C201.956 296.348 200.803 293.811 200.218 291.123C199.633 288.435 199.629 285.657 200.206 282.967C200.783 280.278 201.929 277.737 203.568 275.51C205.207 273.283 207.305 271.418 209.724 270.036C212.143 268.655 214.831 267.788 217.613 267.49C220.395 267.193 223.209 267.472 225.874 268.31C228.54 269.148 230.996 270.526 233.085 272.355C235.174 274.184 236.849 276.424 238.001 278.928L309.601 400.714Z" fill="#9293A5"/>
<path fill-rule="evenodd" clip-rule="evenodd" d="M467.199 308.391H615.998C621.302 308.391 626.389 306.322 630.14 302.638C633.891 298.954 635.998 293.958 635.998 288.748C635.895 283.57 633.755 278.632 630.027 274.97C626.298 271.308 621.27 269.206 615.998 269.105H467.199C461.895 269.105 456.808 271.175 453.057 274.859C449.306 278.542 447.199 283.539 447.199 288.748C447.199 293.958 449.306 298.954 453.057 302.638C456.808 306.322 461.895 308.391 467.199 308.391Z" fill="#9293A5"/>
<path fill-rule="evenodd" clip-rule="evenodd" d="M467.199 247.499H559.598C564.903 247.499 569.99 245.43 573.74 241.746C577.491 238.062 579.598 233.066 579.598 227.857C579.496 222.679 577.356 217.741 573.627 214.078C569.898 210.416 564.871 208.314 559.598 208.214H467.199C461.895 208.214 456.808 210.283 453.057 213.967C449.306 217.651 447.199 222.647 447.199 227.857C447.199 233.066 449.306 238.062 453.057 241.746C456.808 245.43 461.895 247.499 467.199 247.499Z" fill="#9293A5"/>
<path fill-rule="evenodd" clip-rule="evenodd" d="M467.199 186.606H615.998C621.302 186.606 626.389 184.536 630.14 180.853C633.891 177.169 635.998 172.173 635.998 166.963C635.998 161.754 633.891 156.757 630.14 153.074C626.389 149.39 621.302 147.32 615.998 147.32H467.199C461.895 147.32 456.808 149.39 453.057 153.074C449.306 156.757 447.199 161.754 447.199 166.963C447.199 172.173 449.306 177.169 453.057 180.853C456.808 184.536 461.895 186.606 467.199 186.606Z" fill="#9293A5"/>
<path d="M171.601 0C137.68 0.15541 104.566 10.1817 76.4436 28.8122C48.3212 47.4426 26.4519 73.8414 13.5985 104.673C0.745059 135.505 -2.51577 169.387 4.22796 202.039C10.9717 234.69 27.4174 264.646 51.4874 288.121C75.5574 311.597 106.172 327.54 139.463 333.935C172.754 340.33 207.228 336.891 238.53 324.052C269.832 311.213 296.557 289.55 315.329 261.8C334.102 234.05 344.079 201.459 344 168.142C344 163.035 313.2 168.142 312.4 160.678C305.2 82.107 272.4 42.8213 192.401 30.6428C184.801 30.6428 180.401 0 172.401 0M172.401 103.321C185.419 103.476 198.1 107.409 208.848 114.625C219.596 121.842 227.93 132.019 232.803 143.876C237.676 155.733 238.87 168.741 236.233 181.263C233.597 193.785 227.249 205.262 217.988 214.249C208.727 223.236 196.966 229.332 184.186 231.77C171.405 234.208 158.176 232.879 146.163 227.951C134.15 223.022 123.889 214.714 116.671 204.072C109.454 193.43 105.603 180.929 105.602 168.142C105.602 150.951 112.555 134.463 124.932 122.307C137.31 110.151 154.097 103.321 171.601 103.321" fill="#F94060"/>
<path d="M675.198 58.1419H725.998C729.27 58.0888 732.519 58.6825 735.552 59.8878C738.585 61.093 741.341 62.8852 743.654 65.1576C745.968 67.4301 747.793 70.1364 749.02 73.1155C750.247 76.0946 750.852 79.2858 750.798 82.499V605.784H675.198V58.1419Z" fill="#C0C3EE"/>
<path d="M496.4 374.784H616.399C622.719 374.201 629.094 374.92 635.114 376.896C641.135 378.871 646.67 382.06 651.364 386.257C656.058 390.454 659.808 395.568 662.374 401.27C664.939 406.973 666.265 413.139 666.265 419.374C666.265 425.608 664.939 431.774 662.374 437.477C659.808 443.179 656.058 448.293 651.364 452.49C646.67 456.687 641.135 459.876 635.114 461.851C629.094 463.827 622.719 464.546 616.399 463.963H496.4C490.08 464.546 483.705 463.827 477.685 461.851C471.664 459.876 466.129 456.687 461.435 452.49C456.741 448.293 452.991 443.179 450.426 437.477C447.86 431.774 446.534 425.608 446.534 419.374C446.534 413.139 447.86 406.973 450.426 401.27C452.991 395.568 456.741 390.454 461.435 386.257C466.129 382.06 471.664 378.871 477.685 376.896C483.705 374.92 490.08 374.201 496.4 374.784Z" fill="#96CCEE"/>
<path d="M26.8027 535.857C23.2842 535.804 19.7935 536.477 16.5556 537.83C13.3177 539.183 10.4042 541.187 8.00281 543.714C5.43065 546.072 3.38993 548.934 2.01209 552.114C0.634243 555.294 -0.0501902 558.722 0.00286462 562.178V617.963C0.00266914 624.961 1.41256 631.89 4.15127 638.35C6.88998 644.811 10.9034 650.675 15.9601 655.605C21.0169 660.535 27.0171 664.433 33.6149 667.075C40.2126 669.717 47.2776 671.051 54.4025 670.999H745.997C753.104 671.051 760.149 669.715 766.725 667.069C773.301 664.422 779.275 660.517 784.3 655.582C789.324 650.647 793.3 644.779 795.995 638.321C798.69 631.863 800.05 624.943 799.997 617.963V562.178C800.024 555.283 797.295 548.653 792.397 543.714C789.966 541.225 787.047 539.246 783.816 537.895C780.585 536.545 777.109 535.851 773.597 535.857H564.799C561.279 535.857 557.794 536.537 554.543 537.86C551.291 539.183 548.337 541.122 545.848 543.566C543.36 546.01 541.386 548.912 540.039 552.105C538.692 555.299 537.999 558.721 537.999 562.178V587.321H262.001V562.178C262.055 558.707 261.399 555.26 260.071 552.043C258.743 548.825 256.771 545.903 254.272 543.448C251.772 540.993 248.796 539.056 245.52 537.752C242.245 536.448 238.735 535.804 235.201 535.857H26.8027Z" fill="#9293A5"/>
<path d="M715.197 535.856V617.963C715.25 624.943 713.89 631.863 711.195 638.321C708.5 644.779 704.524 650.646 699.499 655.582C694.474 660.517 688.5 664.422 681.925 667.068C675.349 669.715 668.303 671.051 661.197 670.999H745.997C753.103 671.051 760.149 669.715 766.724 667.068C773.3 664.422 779.274 660.517 784.299 655.582C789.324 650.646 793.299 644.779 795.994 638.321C798.689 631.863 800.05 624.943 799.996 617.963V562.178C800.049 558.74 799.406 555.326 798.103 552.135C796.8 548.943 794.864 546.039 792.407 543.589C789.95 541.14 787.022 539.195 783.792 537.867C780.563 536.539 777.097 535.856 773.596 535.856H715.197Z" fill="#6F7188"/>
<path d="M171.601 0C216.727 0.414236 259.863 18.3119 291.623 49.7999C323.384 81.288 341.201 123.819 341.199 168.142H237.6C237.6 159.63 235.893 151.201 232.576 143.336C229.259 135.472 224.398 128.326 218.269 122.307C212.141 116.288 204.865 111.513 196.858 108.255C188.85 104.998 180.268 103.321 171.601 103.321V0Z" fill="#FFEABB"/>
</g>
<defs>
<clipPath id="clip0_9208_62624">
<rect width="800" height="671" fill="white"/>
</clipPath>
</defs>
</svg>
