<svg width="302" height="299" viewBox="0 0 302 299" fill="none" xmlns="http://www.w3.org/2000/svg">
<path d="M287.044 1.125H15.4704C7.66847 1.125 1.34375 7.81558 1.34375 16.0688V282.859C1.34375 291.112 7.66847 297.803 15.4704 297.803H287.044C294.846 297.803 301.171 291.112 301.171 282.859V16.0688C301.171 7.81558 294.846 1.125 287.044 1.125Z" fill="white"/>
<path d="M287.054 298.288H15.4799C7.44479 298.288 0.90332 291.368 0.90332 282.868V16.0682C0.90332 7.56829 7.44479 0.648438 15.4799 0.648438H287.054C295.089 0.648438 301.63 7.56829 301.63 16.0682V282.859C301.63 291.358 295.089 298.278 287.054 298.278V298.288ZM15.4799 1.60027C7.93967 1.60027 1.80311 8.0918 1.80311 16.0682V282.859C1.80311 290.835 7.93967 297.327 15.4799 297.327H287.054C294.594 297.327 300.73 290.835 300.73 282.859V16.0682C300.73 8.0918 294.594 1.60027 287.054 1.60027H15.4799Z" fill="#002346"/>
<path d="M286.819 293.225L14.9839 292.634C9.76513 292.625 5.53613 288.142 5.53613 282.621V34.5058C5.53613 28.9756 9.78313 24.4924 15.0109 24.502C15.0379 24.502 15.0559 24.502 15.0829 24.502H286.873C292.1 24.502 296.329 28.9756 296.338 34.5058V283.221C296.338 288.751 292.1 293.234 286.873 293.234C286.855 293.234 286.837 293.234 286.819 293.234V293.225Z" fill="#F69074"/>
<path d="M286.882 293.71H286.828L14.9934 293.119C9.54065 293.11 5.0957 288.408 5.0957 282.63V34.5149C5.0957 28.7372 9.54965 24.0352 15.0114 24.0352H286.873C292.335 24.0352 296.78 28.7372 296.789 34.5149V283.22C296.789 289.008 292.344 293.71 286.873 293.71H286.882ZM286.828 292.758H286.864C291.849 292.758 295.898 288.475 295.898 283.22V34.5149C295.898 29.2607 291.849 24.987 286.882 24.987H15.0743C10.0355 24.987 5.9955 29.2607 5.9865 34.5149V282.621C5.9865 287.865 10.0265 292.149 14.9844 292.158L286.819 292.748L286.828 292.758Z" fill="#002346"/>
<path d="M84.3579 38.5039H21.0039C18.216 38.5039 15.9561 40.8946 15.9561 43.8437V273.846C15.9561 276.795 18.216 279.185 21.0039 279.185H84.3579C87.1457 279.185 89.4057 276.795 89.4057 273.846V43.8437C89.4057 40.8946 87.1457 38.5039 84.3579 38.5039Z" fill="white"/>
<path d="M84.3674 279.661H21.0133C17.981 279.661 15.5156 277.053 15.5156 273.845V43.8431C15.5156 40.6354 17.981 38.0273 21.0133 38.0273H84.3674C87.3996 38.0273 89.8651 40.6354 89.8651 43.8431V273.845C89.8651 277.053 87.3996 279.661 84.3674 279.661ZM21.0043 38.9887C18.4669 38.9887 16.4064 41.1684 16.4064 43.8526V273.854C16.4064 276.539 18.4669 278.718 21.0043 278.718H84.3584C86.8958 278.718 88.9563 276.539 88.9563 273.854V43.8431C88.9563 41.1589 86.8958 38.9792 84.3584 38.9792H21.0043V38.9887Z" fill="#002346"/>
<path d="M51.921 91.1988C62.7989 91.1988 71.6173 81.8703 71.6173 70.3631C71.6173 58.8558 62.7989 49.5273 51.921 49.5273C41.043 49.5273 32.2246 58.8558 32.2246 70.3631C32.2246 81.8703 41.043 91.1988 51.921 91.1988Z" fill="white"/>
<path d="M51.9304 91.674C40.818 91.674 31.7842 82.1176 31.7842 70.3624C31.7842 58.6072 40.818 49.0508 51.9304 49.0508C63.0428 49.0508 72.0767 58.6072 72.0767 70.3624C72.0767 82.1176 63.0428 91.674 51.9304 91.674ZM51.9304 50.0026C41.3219 50.0026 32.684 59.1403 32.684 70.3624C32.684 81.5846 41.3219 90.7222 51.9304 90.7222C62.5389 90.7222 71.1769 81.5846 71.1769 70.3624C71.1769 59.1403 62.5389 50.0026 51.9304 50.0026Z" fill="#002346"/>
<path d="M51.9209 68.8488C54.5 68.8488 56.5908 66.6371 56.5908 63.9088C56.5908 61.1805 54.5 58.9688 51.9209 58.9688C49.3418 58.9688 47.251 61.1805 47.251 63.9088C47.251 66.6371 49.3418 68.8488 51.9209 68.8488Z" fill="#F69074"/>
<path d="M51.9303 69.3339C49.105 69.3339 46.8105 66.9067 46.8105 63.9179C46.8105 60.9291 49.105 58.502 51.9303 58.502C54.7557 58.502 57.0501 60.9291 57.0501 63.9179C57.0501 66.9067 54.7557 69.3339 51.9303 69.3339ZM51.9303 59.4538C49.5999 59.4538 47.7103 61.4526 47.7103 63.9179C47.7103 66.3832 49.5999 68.382 51.9303 68.382C54.2608 68.382 56.1503 66.3832 56.1503 63.9179C56.1503 61.4526 54.2608 59.4538 51.9303 59.4538Z" fill="#002346"/>
<path d="M43.3183 80.7005H61.521C62.2858 80.7005 62.9066 80.0532 62.9156 79.2442C62.9156 79.0348 62.8796 78.8349 62.7987 78.6445C61.53 75.6367 58.3807 70.373 51.9202 70.373C51.9202 70.373 45.0369 70.3731 42.0226 78.6826C41.7436 79.4441 42.0945 80.3007 42.8054 80.5958C42.9673 80.6624 43.1383 80.7005 43.3183 80.7005Z" fill="#F69074"/>
<path d="M61.5393 81.166H43.3276C43.0937 81.166 42.8687 81.1184 42.6528 81.0327C42.1939 80.8424 41.834 80.4711 41.636 79.9952C41.438 79.5193 41.4291 78.9863 41.609 78.5008C44.6953 69.9914 51.8576 69.8867 51.9206 69.8867C58.606 69.8867 61.8632 75.2456 63.2129 78.4437C63.3209 78.7007 63.3749 78.9672 63.3659 79.2433C63.3659 79.7573 63.1679 80.2522 62.817 80.6139C62.4751 80.9756 62.0162 81.1755 61.5303 81.1755L61.5393 81.166ZM51.9296 70.8386C51.6596 70.8386 45.3161 70.9528 42.4548 78.8435C42.3648 79.1005 42.3648 79.367 42.4638 79.6145C42.5628 79.862 42.7517 80.0523 42.9857 80.1475C43.0937 80.1951 43.2106 80.2142 43.3366 80.2142H61.5393C61.7553 80.2332 62.0252 80.119 62.2051 79.9286C62.3851 79.7478 62.4841 79.4907 62.4841 79.2338C62.4841 79.091 62.4571 78.9577 62.4031 78.834C61.1434 75.8547 58.1111 70.8481 51.9386 70.8481L51.9296 70.8386Z" fill="#002346"/>
<path d="M40.4931 106.59H23.0732V123.038H40.4931V106.59Z" fill="white"/>
<path d="M40.9525 123.513H22.6328V106.113H40.9525V123.513ZM23.5326 122.561H40.0527V107.065H23.5326V122.561Z" fill="#002346"/>
<path d="M82.7471 129.842H23.0732V134.887H82.7471V129.842Z" fill="white"/>
<path d="M83.2065 135.372H22.6328V129.375H83.2065V135.372ZM23.5326 134.42H82.3067V130.327H23.5326V134.42Z" fill="#002346"/>
<path d="M82.5138 138.285H22.8398V143.33H82.5138V138.285Z" fill="white"/>
<path d="M82.9731 143.805H22.3994V137.809H82.9731V143.805ZM23.2992 142.853H82.0733V138.76H23.2992V142.853Z" fill="#002346"/>
<path d="M82.7471 146.699H23.0732V151.744H82.7471V146.699Z" fill="white"/>
<path d="M83.2065 152.219H22.6328V146.223H83.2065V152.219ZM23.5326 151.267H82.3067V147.174H23.5326V151.267Z" fill="#002346"/>
<path d="M82.7471 155.123H23.0732V160.168H82.7471V155.123Z" fill="white"/>
<path d="M83.2065 160.643H22.6328V154.646H83.2065V160.643ZM23.5326 159.691H82.3067V155.598H23.5326V159.691Z" fill="#002346"/>
<path d="M80.4087 167.793H25.4137C24.1216 167.793 23.0742 168.901 23.0742 170.268V207.37C23.0742 208.737 24.1216 209.845 25.4137 209.845H80.4087C81.7007 209.845 82.7481 208.737 82.7481 207.37V170.268C82.7481 168.901 81.7007 167.793 80.4087 167.793Z" fill="white"/>
<path d="M80.4084 210.33H25.4134C23.8747 210.33 22.624 209.007 22.624 207.379V170.277C22.624 168.649 23.8747 167.326 25.4134 167.326H80.4084C81.947 167.326 83.1977 168.649 83.1977 170.277V207.379C83.1977 209.007 81.947 210.33 80.4084 210.33ZM25.4134 168.278C24.3696 168.278 23.5238 169.173 23.5238 170.277V207.379C23.5238 208.484 24.3696 209.378 25.4134 209.378H80.4084C81.4521 209.378 82.2979 208.484 82.2979 207.379V170.277C82.2979 169.173 81.4521 168.278 80.4084 168.278H25.4134Z" fill="#002346"/>
<path d="M61.3964 106.59H43.9766V123.038H61.3964V106.59Z" fill="white"/>
<path d="M61.846 123.513H43.5264V106.113H61.846V123.513ZM44.4262 122.561H60.9463V107.065H44.4262V122.561Z" fill="#002346"/>
<path d="M82.747 106.59H65.3271V123.038H82.747V106.59Z" fill="white"/>
<path d="M83.2064 123.513H64.8867V106.113H83.2064V123.513ZM65.7865 122.561H82.3066V107.065H65.7865V122.561Z" fill="#002346"/>
<path d="M200.989 38.5039H108.203C106.468 38.5039 105.062 39.9912 105.062 41.8258V116.831C105.062 118.665 106.468 120.152 108.203 120.152H200.989C202.723 120.152 204.129 118.665 204.129 116.831V41.8258C204.129 39.9912 202.723 38.5039 200.989 38.5039Z" fill="white"/>
<path d="M200.989 120.628H108.202C106.223 120.628 104.612 118.924 104.612 116.83V41.8252C104.612 39.7311 106.223 38.0273 108.202 38.0273H200.989C202.968 38.0273 204.579 39.7311 204.579 41.8252V116.83C204.579 118.924 202.968 120.628 200.989 120.628ZM108.202 38.9792C106.718 38.9792 105.512 40.2546 105.512 41.8252V116.83C105.512 118.4 106.718 119.676 108.202 119.676H200.989C202.473 119.676 203.679 118.4 203.679 116.83V41.8252C203.679 40.2546 202.473 38.9792 200.989 38.9792H108.202Z" fill="#002346"/>
<path d="M195.275 108.91H112.98C112.728 108.91 112.53 108.701 112.53 108.434V49.5443C112.53 49.2778 112.728 49.0684 112.98 49.0684C113.232 49.0684 113.43 49.2778 113.43 49.5443V107.959H194.825V49.5443C194.825 49.2778 195.023 49.0684 195.275 49.0684C195.527 49.0684 195.725 49.2778 195.725 49.5443V108.434C195.725 108.701 195.527 108.91 195.275 108.91Z" fill="#002346"/>
<path d="M112.98 108.426C112.98 108.426 137.635 104.742 151.266 83.678C151.266 83.678 168.362 50.7254 197.156 51.1346" fill="white"/>
<path d="M113.034 108.901L112.908 107.959C113.151 107.921 137.526 104.056 150.888 83.4109C151.032 83.1158 168.209 50.6582 196.624 50.6582C196.804 50.6582 196.975 50.6582 197.155 50.6582V51.61C168.974 51.2103 151.824 83.5822 151.653 83.9059C138.039 104.941 113.286 108.863 113.034 108.892V108.901Z" fill="#002346"/>
<path d="M133.225 108.91C132.973 108.91 132.775 108.701 132.775 108.434V49.5443C132.775 49.2778 132.973 49.0684 133.225 49.0684C133.477 49.0684 133.675 49.2778 133.675 49.5443V108.434C133.675 108.701 133.477 108.91 133.225 108.91Z" fill="#002346"/>
<path d="M154.119 109.244C153.867 109.244 153.669 109.035 153.669 108.768V49.8783C153.669 49.6117 153.867 49.4023 154.119 49.4023C154.371 49.4023 154.569 49.6117 154.569 49.8783V108.768C154.569 109.035 154.371 109.244 154.119 109.244Z" fill="#002346"/>
<path d="M174.697 109.244C174.445 109.244 174.247 109.035 174.247 108.768V49.8783C174.247 49.6117 174.445 49.4023 174.697 49.4023C174.949 49.4023 175.147 49.6117 175.147 49.8783V108.768C175.147 109.035 174.949 109.244 174.697 109.244Z" fill="#002346"/>
<path d="M195.275 69.3346H112.98C112.728 69.3346 112.53 69.1252 112.53 68.8587C112.53 68.5922 112.728 68.3828 112.98 68.3828H195.275C195.527 68.3828 195.725 68.5922 195.725 68.8587C195.725 69.1252 195.527 69.3346 195.275 69.3346Z" fill="#002346"/>
<path d="M195.275 91.6745H112.98C112.728 91.6745 112.53 91.4651 112.53 91.1986C112.53 90.9321 112.728 90.7227 112.98 90.7227H195.275C195.527 90.7227 195.725 90.9321 195.725 91.1986C195.725 91.4651 195.527 91.6745 195.275 91.6745Z" fill="#002346"/>
<path d="M285.497 38.5059H218.282C217.078 38.5059 216.102 39.9548 216.102 41.7421V116.918C216.102 118.706 217.078 120.154 218.282 120.154H285.497C286.701 120.154 287.677 118.706 287.677 116.918V41.7421C287.677 39.9548 286.701 38.5059 285.497 38.5059Z" fill="#FBE493"/>
<path d="M285.497 120.63H218.282C216.903 120.63 215.781 118.964 215.781 116.918V41.7415C215.781 39.695 216.903 38.0293 218.282 38.0293H285.497C286.876 38.0293 287.998 39.695 287.998 41.7415V116.918C287.998 118.964 286.876 120.63 285.497 120.63ZM218.282 38.9811C217.256 38.9811 216.422 40.2185 216.422 41.7415V116.918C216.422 118.44 217.256 119.678 218.282 119.678H285.497C286.523 119.678 287.357 118.44 287.357 116.918V41.7415C287.357 40.2185 286.523 38.9811 285.497 38.9811H218.282Z" fill="#002346"/>
<path d="M273.88 54.1621H229.088C227.912 54.1621 226.959 55.7431 226.959 57.6934V101.421C226.959 103.371 227.912 104.952 229.088 104.952H273.88C275.056 104.952 276.009 103.371 276.009 101.421V57.6934C276.009 55.7431 275.056 54.1621 273.88 54.1621Z" fill="white"/>
<path d="M273.885 105.427H229.094C227.762 105.427 226.678 103.628 226.678 101.42V57.6928C226.678 55.4845 227.762 53.6855 229.094 53.6855H273.885C275.217 53.6855 276.301 55.4845 276.301 57.6928V101.42C276.301 103.628 275.217 105.427 273.885 105.427ZM229.094 54.6374C228.078 54.6374 227.252 56.008 227.252 57.6928V101.42C227.252 103.105 228.078 104.476 229.094 104.476H273.885C274.901 104.476 275.727 103.105 275.727 101.42V57.6928C275.727 56.008 274.901 54.6374 273.885 54.6374H229.094Z" fill="#002346"/>
<path d="M267.961 98.8117H233.353C233.218 98.8117 233.111 98.6014 233.111 98.3337V74.1859C233.111 73.9182 233.218 73.7079 233.353 73.7079C233.489 73.7079 233.595 73.9182 233.595 74.1859V97.8558H267.719V64.0717C267.719 63.8041 267.826 63.5938 267.961 63.5938C268.097 63.5938 268.203 63.8041 268.203 64.0717V98.3337C268.203 98.6014 268.097 98.8117 267.961 98.8117Z" fill="#002346"/>
<path d="M256.496 80.7266C253.1 80.7266 249.837 75.3157 249.437 74.6382C245.632 69.8666 243.596 76.1364 243.51 76.4036C243.491 76.4609 243.468 76.5181 243.444 76.5658C242.521 78.608 241.232 79.8296 239.857 79.9536C238.601 80.0013 237.379 79.1043 236.432 77.4438C234.321 73.8843 232.97 75.0008 232.96 75.0103C232.699 75.2584 232.385 75.0294 232.261 74.5046C232.137 73.9797 232.251 73.3498 232.513 73.1017C232.589 73.0254 234.449 71.3554 237.108 75.8215C237.855 77.1384 238.82 77.8541 239.814 77.8446C240.904 77.7396 241.931 76.7758 242.668 75.163C243.006 74.2087 245.622 67.3091 250.041 72.8918L250.103 72.9872C250.155 73.0731 255.392 82.0912 259.069 77.0716C259.735 76.1173 260.249 74.7908 260.539 73.2544C261.3 69.4372 263.45 60.8485 266.932 62.9766C267.208 63.1484 267.365 63.74 267.279 64.2935C267.194 64.847 266.899 65.1619 266.623 64.9902C263.969 63.3488 262.166 70.7732 261.509 74.0465C261.143 75.9742 260.496 77.6347 259.659 78.818C258.727 80.0872 257.623 80.7552 256.496 80.7266Z" fill="#F69074"/>
<path d="M281.97 132.365H109.103C105.942 132.365 103.38 135.076 103.38 138.419V212.805C103.38 216.148 105.942 218.859 109.103 218.859H281.97C285.13 218.859 287.692 216.148 287.692 212.805V138.419C287.692 135.076 285.13 132.365 281.97 132.365Z" fill="white"/>
<path d="M281.969 219.334H109.102C105.701 219.334 102.93 216.402 102.93 212.804V138.418C102.93 134.82 105.701 131.889 109.102 131.889H281.969C285.371 131.889 288.142 134.82 288.142 138.418V212.804C288.142 216.402 285.371 219.334 281.969 219.334ZM109.102 132.841C106.196 132.841 103.829 135.344 103.829 138.418V212.804C103.829 215.879 106.196 218.382 109.102 218.382H281.969C284.876 218.382 287.242 215.879 287.242 212.804V138.418C287.242 135.344 284.876 132.841 281.969 132.841H109.102Z" fill="#002346"/>
<path d="M157.349 175.617C157.349 176.026 157.403 176.454 157.403 176.873C157.403 181.404 155.468 185.697 152.13 188.533L160.003 201.316C167.408 195.643 171.79 186.553 171.79 176.873C171.79 175.417 171.691 173.96 171.493 172.514L157.349 175.617Z" fill="#FBE493"/>
<path d="M159.877 202.001L151.527 188.437L151.842 188.17C155.091 185.401 156.953 181.289 156.944 176.882C156.944 176.682 156.935 176.482 156.917 176.282C156.899 176.063 156.89 175.844 156.89 175.625V175.235L171.863 171.951L171.926 172.456C172.123 173.912 172.222 175.406 172.231 176.882C172.231 186.676 167.76 195.966 160.255 201.715L159.868 202.01L159.877 202.001ZM152.715 188.637L160.111 200.64C167.148 195.052 171.341 186.21 171.332 176.882C171.332 175.616 171.251 174.35 171.107 173.093L157.808 176.016C157.808 176.082 157.808 176.149 157.817 176.215C157.835 176.434 157.844 176.663 157.844 176.882C157.844 181.441 155.981 185.696 152.715 188.637Z" fill="#002346"/>
<path d="M170.882 169.304C169.001 161.661 164.368 155.103 157.979 151.02L150.97 164.345C153.759 166.268 155.82 169.162 156.791 172.522L170.882 169.304Z" fill="#E6E7E8"/>
<path d="M156.477 173.084L156.36 172.665C155.415 169.41 153.417 166.602 150.727 164.746L150.376 164.508L157.817 150.363L158.213 150.62C164.746 154.789 169.397 161.386 171.323 169.191L171.44 169.667L156.486 173.084H156.477ZM151.555 164.203C154.137 166.097 156.081 168.829 157.088 171.979L170.315 168.962C168.426 161.766 164.125 155.665 158.132 151.705L151.555 164.213V164.203Z" fill="#002346"/>
<path d="M200.035 147.785H191.766C190.012 147.785 188.59 149.289 188.59 151.145V205.581C188.59 207.436 190.012 208.941 191.766 208.941H200.035C201.789 208.941 203.211 207.436 203.211 205.581V151.145C203.211 149.289 201.789 147.785 200.035 147.785Z" fill="#F69074"/>
<path d="M200.026 209.416H191.757C189.759 209.416 188.131 207.693 188.131 205.58V151.144C188.131 149.031 189.759 147.309 191.757 147.309H200.026C202.024 147.309 203.652 149.031 203.652 151.144V205.58C203.652 207.693 202.024 209.416 200.026 209.416ZM191.757 148.26C190.254 148.26 189.031 149.555 189.031 151.144V205.58C189.031 207.17 190.254 208.464 191.757 208.464H200.026C201.529 208.464 202.752 207.17 202.752 205.58V151.144C202.752 149.555 201.529 148.26 200.026 148.26H191.757Z" fill="#002346"/>
<path d="M200.035 164.852H191.766C190.012 164.852 188.59 166.356 188.59 168.212V205.571C188.59 207.427 190.012 208.931 191.766 208.931H200.035C201.789 208.931 203.211 207.427 203.211 205.571V168.212C203.211 166.356 201.789 164.852 200.035 164.852Z" fill="white"/>
<path d="M200.026 209.416H191.757C189.759 209.416 188.131 207.693 188.131 205.58V168.221C188.131 166.108 189.759 164.385 191.757 164.385H200.026C202.024 164.385 203.652 166.108 203.652 168.221V205.58C203.652 207.693 202.024 209.416 200.026 209.416ZM191.757 165.337C190.254 165.337 189.031 166.631 189.031 168.221V205.58C189.031 207.17 190.254 208.464 191.757 208.464H200.026C201.529 208.464 202.752 207.17 202.752 205.58V168.221C202.752 166.631 201.529 165.337 200.026 165.337H191.757Z" fill="#002346"/>
<path d="M223.457 147.785H215.188C213.434 147.785 212.012 149.289 212.012 151.145V205.581C212.012 207.436 213.434 208.941 215.188 208.941H223.457C225.211 208.941 226.633 207.436 226.633 205.581V151.145C226.633 149.289 225.211 147.785 223.457 147.785Z" fill="#FBE493"/>
<path d="M223.448 209.416H215.179C213.181 209.416 211.553 207.693 211.553 205.58V151.144C211.553 149.031 213.181 147.309 215.179 147.309H223.448C225.445 147.309 227.074 149.031 227.074 151.144V205.58C227.074 207.693 225.445 209.416 223.448 209.416ZM215.179 148.26C213.676 148.26 212.453 149.555 212.453 151.144V205.58C212.453 207.17 213.676 208.464 215.179 208.464H223.448C224.951 208.464 226.174 207.17 226.174 205.58V151.144C226.174 149.555 224.951 148.26 223.448 148.26H215.179Z" fill="#002346"/>
<path d="M223.457 180.252H215.188C213.434 180.252 212.012 181.756 212.012 183.612V205.571C212.012 207.426 213.434 208.931 215.188 208.931H223.457C225.211 208.931 226.633 207.426 226.633 205.571V183.612C226.633 181.756 225.211 180.252 223.457 180.252Z" fill="white"/>
<path d="M223.448 209.416H215.179C213.181 209.416 211.553 207.693 211.553 205.58V183.621C211.553 181.508 213.181 179.785 215.179 179.785H223.448C225.445 179.785 227.074 181.508 227.074 183.621V205.58C227.074 207.693 225.445 209.416 223.448 209.416ZM215.179 180.737C213.676 180.737 212.453 182.031 212.453 183.621V205.58C212.453 207.17 213.676 208.464 215.179 208.464H223.448C224.951 208.464 226.174 207.17 226.174 205.58V183.621C226.174 182.031 224.951 180.737 223.448 180.737H215.179Z" fill="#002346"/>
<path d="M246.608 147.785H238.339C236.585 147.785 235.163 149.289 235.163 151.145V205.581C235.163 207.436 236.585 208.941 238.339 208.941H246.608C248.363 208.941 249.785 207.436 249.785 205.581V151.145C249.785 149.289 248.363 147.785 246.608 147.785Z" fill="#F69074"/>
<path d="M246.608 209.416H238.339C236.342 209.416 234.713 207.693 234.713 205.58V151.144C234.713 149.031 236.342 147.309 238.339 147.309H246.608C248.606 147.309 250.234 149.031 250.234 151.144V205.58C250.234 207.693 248.606 209.416 246.608 209.416ZM238.339 148.26C236.836 148.26 235.613 149.555 235.613 151.144V205.58C235.613 207.17 236.836 208.464 238.339 208.464H246.608C248.111 208.464 249.334 207.17 249.334 205.58V151.144C249.334 149.555 248.111 148.26 246.608 148.26H238.339Z" fill="#002346"/>
<path d="M246.608 191.846H238.339C236.585 191.846 235.163 193.35 235.163 195.206V205.59C235.163 207.446 236.585 208.95 238.339 208.95H246.608C248.363 208.95 249.785 207.446 249.785 205.59V195.206C249.785 193.35 248.363 191.846 246.608 191.846Z" fill="white"/>
<path d="M246.608 209.416H238.339C236.342 209.416 234.713 207.693 234.713 205.58V195.195C234.713 193.082 236.342 191.359 238.339 191.359H246.608C248.606 191.359 250.234 193.082 250.234 195.195V205.58C250.234 207.693 248.606 209.416 246.608 209.416ZM238.339 192.311C236.836 192.311 235.613 193.606 235.613 195.195V205.58C235.613 207.169 236.836 208.464 238.339 208.464H246.608C248.111 208.464 249.334 207.169 249.334 205.58V195.195C249.334 193.606 248.111 192.311 246.608 192.311H238.339Z" fill="#002346"/>
<path d="M270.587 147.785H262.318C260.564 147.785 259.142 149.289 259.142 151.145V205.581C259.142 207.436 260.564 208.941 262.318 208.941H270.587C272.341 208.941 273.763 207.436 273.763 205.581V151.145C273.763 149.289 272.341 147.785 270.587 147.785Z" fill="#FBE493"/>
<path d="M270.596 209.416H262.327C260.33 209.416 258.701 207.693 258.701 205.58V151.144C258.701 149.031 260.33 147.309 262.327 147.309H270.596C272.594 147.309 274.223 149.031 274.223 151.144V205.58C274.223 207.693 272.594 209.416 270.596 209.416ZM262.327 148.26C260.825 148.26 259.601 149.555 259.601 151.144V205.58C259.601 207.17 260.825 208.464 262.327 208.464H270.596C272.099 208.464 273.323 207.17 273.323 205.58V151.144C273.323 149.555 272.099 148.26 270.596 148.26H262.327Z" fill="#002346"/>
<path d="M270.587 172.514H262.318C260.564 172.514 259.142 174.018 259.142 175.874V205.581C259.142 207.436 260.564 208.94 262.318 208.94H270.587C272.341 208.94 273.763 207.436 273.763 205.581V175.874C273.763 174.018 272.341 172.514 270.587 172.514Z" fill="white"/>
<path d="M270.596 209.416H262.327C260.33 209.416 258.701 207.693 258.701 205.58V175.873C258.701 173.76 260.33 172.037 262.327 172.037H270.596C272.594 172.037 274.223 173.76 274.223 175.873V205.58C274.223 207.693 272.594 209.416 270.596 209.416ZM262.327 172.989C260.825 172.989 259.601 174.283 259.601 175.873V205.58C259.601 207.169 260.825 208.464 262.327 208.464H270.596C272.099 208.464 273.323 207.169 273.323 205.58V175.873C273.323 174.283 272.099 172.989 270.596 172.989H262.327Z" fill="#002346"/>
<path d="M158.132 235.307H106.169C104.629 235.307 103.38 236.628 103.38 238.257V276.245C103.38 277.875 104.629 279.196 106.169 279.196H158.132C159.672 279.196 160.921 277.875 160.921 276.245V238.257C160.921 236.628 159.672 235.307 158.132 235.307Z" fill="white"/>
<path d="M158.14 279.661H106.178C104.387 279.661 102.938 278.119 102.938 276.235V238.247C102.938 236.362 104.387 234.82 106.178 234.82H158.14C159.922 234.82 161.38 236.362 161.38 238.247V276.235C161.38 278.119 159.931 279.661 158.14 279.661ZM106.178 235.772C104.891 235.772 103.838 236.886 103.838 238.247V276.235C103.838 277.596 104.891 278.71 106.178 278.71H158.14C159.427 278.71 160.48 277.596 160.48 276.235V238.247C160.48 236.886 159.427 235.772 158.14 235.772H106.178Z" fill="#002346"/>
<path d="M284.903 235.307H169.289C167.749 235.307 166.5 236.628 166.5 238.257V276.245C166.5 277.875 167.749 279.196 169.289 279.196H284.903C286.444 279.196 287.692 277.875 287.692 276.245V238.257C287.692 236.628 286.444 235.307 284.903 235.307Z" fill="#FBE493"/>
<path d="M284.903 279.661H169.289C167.498 279.661 166.05 278.119 166.05 276.235V238.247C166.05 236.362 167.498 234.82 169.289 234.82H284.903C286.693 234.82 288.142 236.362 288.142 238.247V276.235C288.142 278.119 286.693 279.661 284.903 279.661ZM169.289 235.772C168.002 235.772 166.95 236.886 166.95 238.247V276.235C166.95 277.596 168.002 278.71 169.289 278.71H284.903C286.189 278.71 287.242 277.596 287.242 276.235V238.247C287.242 236.886 286.189 235.772 284.903 235.772H169.289Z" fill="#002346"/>
<path d="M269.858 265.507C263.308 265.507 258.098 257.598 257.855 257.217C251.853 249.831 247.012 249.755 246.958 249.755C242.325 249.222 237.358 255.361 237.313 255.418L232.22 261.548C231.158 262.861 229.79 263.899 228.261 264.537C221.063 267.373 216.654 258.778 216.609 258.692C212.775 250.944 206.234 250.183 206.162 250.173C206.135 250.173 206.099 250.164 206.072 250.154C198.37 247.622 192.566 257.322 190.974 260.358C190.533 261.224 189.966 261.995 189.273 262.652C187.455 264.318 185.548 265.041 183.604 264.765C180.041 264.28 177.675 260.691 177.576 260.539C175.2 255.951 171.133 252.591 166.391 251.287C166.149 251.22 166.005 250.963 166.068 250.706C166.131 250.449 166.373 250.297 166.616 250.364C171.592 251.734 175.875 255.266 178.341 260.034C178.341 260.034 180.563 263.394 183.721 263.813C185.395 264.042 187.06 263.404 188.67 261.929C189.282 261.348 189.786 260.663 190.182 259.892C191.864 256.703 197.965 246.518 206.297 249.222C206.981 249.298 213.468 250.278 217.4 258.235C217.562 258.559 221.494 266.174 227.937 263.632C229.323 263.061 230.573 262.119 231.536 260.92L236.629 254.79C236.836 254.523 241.938 248.213 247.003 248.793C247.156 248.784 252.222 248.831 258.566 256.627C258.656 256.77 265.08 266.516 272.107 264.184C272.107 264.184 275.329 262.68 277.74 257.759C278.064 257.074 278.433 256.389 278.829 255.732C280.601 252.896 284.093 248.127 287.62 248.032C287.863 248.003 288.079 248.232 288.079 248.498C288.079 248.765 287.89 248.974 287.638 248.984C284.399 249.069 280.925 254.095 279.576 256.256C279.198 256.874 278.847 257.531 278.532 258.197C275.968 263.451 272.557 265.022 272.413 265.089C271.541 265.374 270.686 265.507 269.849 265.507H269.858Z" fill="#002346"/>
<path d="M287.692 257.217H166.508C166.257 257.217 166.059 257.008 166.059 256.742C166.059 256.475 166.257 256.266 166.508 256.266H287.692C287.944 256.266 288.142 256.475 288.142 256.742C288.142 257.008 287.944 257.217 287.692 257.217Z" fill="#002346"/>
<path d="M187.321 279.661C187.069 279.661 186.871 279.452 186.871 279.185V235.296C186.871 235.03 187.069 234.82 187.321 234.82C187.573 234.82 187.771 235.03 187.771 235.296V279.185C187.771 279.452 187.573 279.661 187.321 279.661Z" fill="#002346"/>
<path d="M207.539 279.661C207.287 279.661 207.089 279.452 207.089 279.185V235.296C207.089 235.03 207.287 234.82 207.539 234.82C207.791 234.82 207.989 235.03 207.989 235.296V279.185C207.989 279.452 207.791 279.661 207.539 279.661Z" fill="#002346"/>
<path d="M227.091 279.661C226.84 279.661 226.642 279.452 226.642 279.185V235.296C226.642 235.03 226.84 234.82 227.091 234.82C227.343 234.82 227.541 235.03 227.541 235.296V279.185C227.541 279.452 227.343 279.661 227.091 279.661Z" fill="#002346"/>
<path d="M247.166 279.661C246.914 279.661 246.716 279.452 246.716 279.185V235.296C246.716 235.03 246.914 234.82 247.166 234.82C247.418 234.82 247.616 235.03 247.616 235.296V279.185C247.616 279.452 247.418 279.661 247.166 279.661Z" fill="#002346"/>
<path d="M267.42 279.661C267.168 279.661 266.97 279.452 266.97 279.185V235.296C266.97 235.03 267.168 234.82 267.42 234.82C267.672 234.82 267.87 235.03 267.87 235.296V279.185C267.87 279.452 267.672 279.661 267.42 279.661Z" fill="#002346"/>
<path d="M145.435 259.139L148.648 259.015L148.441 253.389L145.166 253.523C144.671 251.476 143.744 249.582 142.466 247.964L144.806 245.166L140.811 241.444L138.354 244.395C136.977 243.633 135.493 243.129 133.954 242.91L133.801 238.684L128.483 238.893L128.645 243.281C127.017 243.757 125.496 244.547 124.146 245.622L121.636 243.119L117.983 247.222L120.601 249.82C119.8 251.295 119.243 252.904 118.973 254.579L115.688 254.713L115.895 260.338L119.108 260.205C119.486 261.966 120.187 263.631 121.159 265.116L118.46 268.39L122.446 272.112L125.028 269.019C126.45 269.98 128.043 270.646 129.698 270.979L129.833 274.834L135.151 274.625L135.016 270.922C136.69 270.551 138.273 269.847 139.695 268.838L142.052 271.179L145.696 267.086L143.447 264.84C144.491 263.117 145.175 261.166 145.435 259.139ZM132.506 266.753C127.251 266.858 122.914 262.441 122.815 256.883C122.716 251.324 126.891 246.736 132.146 246.631C137.4 246.527 141.737 250.943 141.836 256.502C141.836 256.569 141.836 256.626 141.836 256.692C141.89 262.194 137.706 266.696 132.506 266.753Z" fill="#F69074"/>
<path d="M129.401 275.33L129.266 271.371C127.8 271.028 126.405 270.447 125.118 269.638L122.491 272.789L117.83 268.439L120.592 265.088C119.756 263.737 119.135 262.271 118.757 260.7L115.464 260.834L115.221 254.256L118.595 254.123C118.874 252.648 119.36 251.239 120.035 249.916L117.344 247.241L121.618 242.444L124.183 245.005C125.406 244.081 126.747 243.386 128.178 242.93L128.016 238.437L134.233 238.189L134.386 242.501C135.727 242.73 137.023 243.168 138.246 243.805L140.766 240.778L145.436 245.128L143.051 247.984C144.167 249.478 145.004 251.211 145.499 253.038L148.864 252.905L149.107 259.482L145.813 259.606C145.526 261.424 144.914 263.194 144.014 264.765L146.326 267.068L142.07 271.856L139.641 269.448C138.354 270.314 136.96 270.933 135.475 271.304L135.61 275.083L129.392 275.33H129.401ZM124.947 268.401L125.271 268.62C126.657 269.552 128.178 270.19 129.788 270.514L130.139 270.59L130.274 274.35L134.692 274.178L134.557 270.552L134.926 270.466C136.546 270.105 138.066 269.429 139.443 268.448L139.74 268.239L142.034 270.514L145.067 267.116L142.871 264.927L143.069 264.593C144.077 262.937 144.734 261.034 144.995 259.082L145.049 258.683L148.189 258.559L148.018 253.885L144.833 254.019L144.743 253.647C144.266 251.687 143.366 249.83 142.133 248.279L141.881 247.965L144.176 245.214L140.856 242.121L138.462 244.995L138.147 244.824C136.816 244.081 135.385 243.605 133.891 243.387L133.513 243.329L133.36 239.179L128.942 239.351L129.104 243.643L128.762 243.748C127.188 244.205 125.721 244.967 124.417 246.014L124.111 246.252L121.654 243.796L118.622 247.203L121.168 249.735L120.988 250.059C120.206 251.487 119.675 253.038 119.414 254.656L119.351 255.037L116.156 255.17L116.327 259.844L119.459 259.711L119.54 260.091C119.909 261.805 120.574 263.394 121.519 264.841L121.717 265.145L119.081 268.344L122.392 271.437L124.929 268.391L124.947 268.401ZM132.326 267.23C126.918 267.23 122.473 262.633 122.365 256.893C122.257 251.087 126.648 246.271 132.137 246.156C137.625 246.08 142.178 250.687 142.286 256.493V256.693C142.34 262.442 137.958 267.173 132.515 267.23C132.452 267.23 132.389 267.23 132.326 267.23ZM132.326 247.108C132.272 247.108 132.209 247.108 132.155 247.108C127.161 247.213 123.175 251.591 123.265 256.874C123.355 262.157 127.503 266.335 132.497 266.278C137.445 266.231 141.431 261.928 141.378 256.693V256.512C141.279 251.287 137.239 247.108 132.317 247.108H132.326Z" fill="#002346"/>
<path d="M113.133 111.111C115.494 111.111 117.407 109.087 117.407 106.59C117.407 104.093 115.494 102.068 113.133 102.068C110.773 102.068 108.859 104.093 108.859 106.59C108.859 109.087 110.773 111.111 113.133 111.111Z" fill="#FBE493"/>
<path d="M113.143 111.586C110.542 111.586 108.419 109.34 108.419 106.589C108.419 103.838 110.542 101.592 113.143 101.592C115.743 101.592 117.867 103.838 117.867 106.589C117.867 109.34 115.743 111.586 113.143 111.586ZM113.143 102.544C111.037 102.544 109.319 104.362 109.319 106.589C109.319 108.816 111.037 110.634 113.143 110.634C115.248 110.634 116.967 108.816 116.967 106.589C116.967 104.362 115.248 102.544 113.143 102.544Z" fill="#002346"/>
<path d="M161.884 73.3706C164.245 73.3706 166.158 71.3464 166.158 68.8494C166.158 66.3523 164.245 64.3281 161.884 64.3281C159.524 64.3281 157.61 66.3523 157.61 68.8494C157.61 71.3464 159.524 73.3706 161.884 73.3706Z" fill="#FBE493"/>
<path d="M161.875 73.8556C159.275 73.8556 157.151 71.6093 157.151 68.8585C157.151 66.1077 159.275 63.8613 161.875 63.8613C164.476 63.8613 166.599 66.1077 166.599 68.8585C166.599 71.6093 164.476 73.8556 161.875 73.8556ZM161.875 64.8132C159.77 64.8132 158.051 66.6312 158.051 68.8585C158.051 71.0858 159.77 72.9038 161.875 72.9038C163.981 72.9038 165.699 71.0858 165.699 68.8585C165.699 66.6312 163.981 64.8132 161.875 64.8132Z" fill="#002346"/>
<path d="M195.265 55.6284C197.626 55.6284 199.539 53.6042 199.539 51.1072C199.539 48.6102 197.626 46.5859 195.265 46.5859C192.905 46.5859 190.991 48.6102 190.991 51.1072C190.991 53.6042 192.905 55.6284 195.265 55.6284Z" fill="#F69074"/>
<path d="M195.275 56.1037C192.674 56.1037 190.551 53.8573 190.551 51.1065C190.551 48.3557 192.674 46.1094 195.275 46.1094C197.875 46.1094 199.999 48.3557 199.999 51.1065C199.999 53.8573 197.875 56.1037 195.275 56.1037ZM195.275 47.0612C193.169 47.0612 191.451 48.8792 191.451 51.1065C191.451 53.3338 193.169 55.1518 195.275 55.1518C197.38 55.1518 199.099 53.3338 199.099 51.1065C199.099 48.8792 197.38 47.0612 195.275 47.0612Z" fill="#002346"/>
<path d="M142.88 97.5464C145.241 97.5464 147.154 95.5221 147.154 93.0251C147.154 90.5281 145.241 88.5039 142.88 88.5039C140.52 88.5039 138.606 90.5281 138.606 93.0251C138.606 95.5221 140.52 97.5464 142.88 97.5464Z" fill="#F69074"/>
<path d="M142.88 98.0216C140.28 98.0216 138.156 95.7753 138.156 93.0245C138.156 90.2737 140.28 88.0273 142.88 88.0273C145.481 88.0273 147.604 90.2737 147.604 93.0245C147.604 95.7753 145.481 98.0216 142.88 98.0216ZM142.88 88.9792C140.775 88.9792 139.056 90.7972 139.056 93.0245C139.056 95.2518 140.775 97.0698 142.88 97.0698C144.986 97.0698 146.704 95.2518 146.704 93.0245C146.704 90.7972 144.986 88.9792 142.88 88.9792Z" fill="#002346"/>
<path d="M155.189 149.468C140.873 142.491 123.93 149.116 117.335 164.26C110.739 179.403 117.002 197.326 131.318 204.303C139.686 208.377 149.403 207.93 157.402 203.095L149.547 190.283C142.556 193.947 134.071 190.921 130.607 183.525C127.142 176.129 130.004 167.153 136.995 163.489C140.45 161.68 144.454 161.442 148.081 162.822L155.189 149.468Z" fill="#F69074"/>
<path d="M143.24 207.531C139.11 207.531 134.971 206.598 131.12 204.723C116.606 197.651 110.236 179.404 116.921 164.051C123.607 148.698 140.856 141.959 155.369 149.021L155.81 149.24L148.279 163.394L147.919 163.261C144.428 161.928 140.514 162.157 137.184 163.898C133.909 165.612 131.462 168.581 130.292 172.246C129.122 175.911 129.374 179.832 130.994 183.306C132.614 186.781 135.421 189.36 138.885 190.597C142.349 191.835 146.056 191.568 149.332 189.855L149.691 189.665L158.023 203.257L157.61 203.504C153.183 206.179 148.207 207.531 143.231 207.531H143.24ZM143.294 147.175C132.667 147.175 122.473 153.59 117.74 164.451C114.6 171.656 114.303 179.727 116.903 187.171C119.504 194.614 124.686 200.544 131.498 203.857C139.569 207.788 148.972 207.426 156.755 202.914L149.377 190.883C145.975 192.549 142.169 192.768 138.597 191.492C134.908 190.179 131.921 187.418 130.193 183.725C128.465 180.032 128.196 175.844 129.446 171.941C130.697 168.039 133.297 164.879 136.789 163.051C140.226 161.252 144.239 160.967 147.865 162.233L154.55 149.678C150.888 147.974 147.064 147.165 143.294 147.165V147.175Z" fill="#002346"/>
<path d="M182.642 266.013C183.924 266.013 184.963 264.914 184.963 263.557C184.963 262.201 183.924 261.102 182.642 261.102C181.36 261.102 180.32 262.201 180.32 263.557C180.32 264.914 181.36 266.013 182.642 266.013Z" fill="#F69074"/>
<path d="M182.651 266.488C181.122 266.488 179.88 265.175 179.88 263.557C179.88 261.939 181.122 260.625 182.651 260.625C184.181 260.625 185.423 261.939 185.423 263.557C185.423 265.175 184.181 266.488 182.651 266.488ZM182.651 261.577C181.616 261.577 180.78 262.462 180.78 263.557C180.78 264.651 181.616 265.536 182.651 265.536C183.686 265.536 184.523 264.651 184.523 263.557C184.523 262.462 183.686 261.577 182.651 261.577Z" fill="#002346"/>
<path d="M206.198 252.363C207.48 252.363 208.52 251.263 208.52 249.907C208.52 248.551 207.48 247.451 206.198 247.451C204.916 247.451 203.877 248.551 203.877 249.907C203.877 251.263 204.916 252.363 206.198 252.363Z" fill="#F69074"/>
<path d="M206.198 252.838C204.668 252.838 203.427 251.524 203.427 249.906C203.427 248.288 204.668 246.975 206.198 246.975C207.728 246.975 208.969 248.288 208.969 249.906C208.969 251.524 207.728 252.838 206.198 252.838ZM206.198 247.926C205.163 247.926 204.327 248.812 204.327 249.906C204.327 251.001 205.163 251.886 206.198 251.886C207.233 251.886 208.07 251.001 208.07 249.906C208.07 248.812 207.233 247.926 206.198 247.926Z" fill="#002346"/>
<path d="M224.779 266.908C226.062 266.908 227.101 265.808 227.101 264.452C227.101 263.096 226.062 261.996 224.779 261.996C223.497 261.996 222.458 263.096 222.458 264.452C222.458 265.808 223.497 266.908 224.779 266.908Z" fill="#F69074"/>
<path d="M224.77 267.383C223.241 267.383 221.999 266.069 221.999 264.451C221.999 262.833 223.241 261.52 224.77 261.52C226.3 261.52 227.542 262.833 227.542 264.451C227.542 266.069 226.3 267.383 224.77 267.383ZM224.77 262.471C223.736 262.471 222.899 263.357 222.899 264.451C222.899 265.546 223.736 266.431 224.77 266.431C225.805 266.431 226.642 265.546 226.642 264.451C226.642 263.357 225.805 262.471 224.77 262.471Z" fill="#002346"/>
<path d="M247.166 252.363C248.448 252.363 249.488 251.263 249.488 249.907C249.488 248.551 248.448 247.451 247.166 247.451C245.884 247.451 244.845 248.551 244.845 249.907C244.845 251.263 245.884 252.363 247.166 252.363Z" fill="#F69074"/>
<path d="M247.166 252.838C245.636 252.838 244.395 251.524 244.395 249.906C244.395 248.288 245.636 246.975 247.166 246.975C248.696 246.975 249.937 248.288 249.937 249.906C249.937 251.524 248.696 252.838 247.166 252.838ZM247.166 247.926C246.131 247.926 245.294 248.812 245.294 249.906C245.294 251.001 246.131 251.886 247.166 251.886C248.201 251.886 249.037 251.001 249.037 249.906C249.037 248.812 248.201 247.926 247.166 247.926Z" fill="#002346"/>
<path d="M278.46 259.206C279.742 259.206 280.782 258.107 280.782 256.751C280.782 255.394 279.742 254.295 278.46 254.295C277.178 254.295 276.139 255.394 276.139 256.751C276.139 258.107 277.178 259.206 278.46 259.206Z" fill="#F69074"/>
<path d="M278.47 259.672C276.94 259.672 275.698 258.358 275.698 256.74C275.698 255.122 276.94 253.809 278.47 253.809C279.999 253.809 281.241 255.122 281.241 256.74C281.241 258.358 279.999 259.672 278.47 259.672ZM278.47 254.76C277.435 254.76 276.598 255.646 276.598 256.74C276.598 257.835 277.435 258.72 278.47 258.72C279.504 258.72 280.341 257.835 280.341 256.74C280.341 255.646 279.504 254.76 278.47 254.76Z" fill="#002346"/>
<path d="M27.7169 17.0507C29.3469 17.0507 30.6682 15.6529 30.6682 13.9287C30.6682 12.2044 29.3469 10.8066 27.7169 10.8066C26.087 10.8066 24.7656 12.2044 24.7656 13.9287C24.7656 15.6529 26.087 17.0507 27.7169 17.0507Z" fill="white"/>
<path d="M27.7166 17.5357C25.8451 17.5357 24.3154 15.9176 24.3154 13.9378C24.3154 11.958 25.8451 10.3398 27.7166 10.3398C29.5882 10.3398 31.1178 11.958 31.1178 13.9378C31.1178 15.9176 29.5882 17.5357 27.7166 17.5357ZM27.7166 11.2917C26.34 11.2917 25.2152 12.4815 25.2152 13.9378C25.2152 15.3941 26.34 16.5839 27.7166 16.5839C29.0933 16.5839 30.218 15.3941 30.218 13.9378C30.218 12.4815 29.0933 11.2917 27.7166 11.2917Z" fill="#002346"/>
<path d="M36.7511 17.0507C38.3811 17.0507 39.7024 15.6529 39.7024 13.9287C39.7024 12.2044 38.3811 10.8066 36.7511 10.8066C35.1211 10.8066 33.7998 12.2044 33.7998 13.9287C33.7998 15.6529 35.1211 17.0507 36.7511 17.0507Z" fill="white"/>
<path d="M36.7508 17.5357C34.8792 17.5357 33.3496 15.9176 33.3496 13.9378C33.3496 11.958 34.8792 10.3398 36.7508 10.3398C38.6224 10.3398 40.152 11.958 40.152 13.9378C40.152 15.9176 38.6224 17.5357 36.7508 17.5357ZM36.7508 11.2917C35.3741 11.2917 34.2494 12.4815 34.2494 13.9378C34.2494 15.3941 35.3741 16.5839 36.7508 16.5839C38.1275 16.5839 39.2522 15.3941 39.2522 13.9378C39.2522 12.4815 38.1275 11.2917 36.7508 11.2917Z" fill="#002346"/>
<path d="M18.9074 17.0507C20.5373 17.0507 21.8587 15.6529 21.8587 13.9287C21.8587 12.2044 20.5373 10.8066 18.9074 10.8066C17.2774 10.8066 15.9561 12.2044 15.9561 13.9287C15.9561 15.6529 17.2774 17.0507 18.9074 17.0507Z" fill="white"/>
<path d="M18.9168 17.5357C17.0453 17.5357 15.5156 15.9176 15.5156 13.9378C15.5156 11.958 17.0453 10.3398 18.9168 10.3398C20.7884 10.3398 22.318 11.958 22.318 13.9378C22.318 15.9176 20.7884 17.5357 18.9168 17.5357ZM18.9168 11.2917C17.5401 11.2917 16.4154 12.4815 16.4154 13.9378C16.4154 15.3941 17.5401 16.5839 18.9168 16.5839C20.2935 16.5839 21.4182 15.3941 21.4182 13.9378C21.4182 12.4815 20.2935 11.2917 18.9168 11.2917Z" fill="#002346"/>
</svg>
