<svg width="800" height="800" viewBox="0 0 800 800" fill="none" xmlns="http://www.w3.org/2000/svg">
<g clip-path="url(#clip0_9195_62335)">
<path d="M728.329 579.375C727.145 581.991 725.909 584.584 724.66 587.173C725.915 584.583 727.14 581.984 728.329 579.375Z" fill="#719436"/>
<path d="M524.839 772.246C524.211 772.498 523.583 772.74 522.955 772.988C523.583 772.741 524.211 772.496 524.839 772.246Z" fill="#719436"/>
<path d="M381.003 799.959C379.103 799.96 377.203 799.952 375.305 799.926C377.205 799.949 379.103 799.963 381.003 799.959Z" fill="#719436"/>
<path d="M403.527 799.287C403.363 799.296 403.197 799.306 403.033 799.315C403.196 799.307 403.361 799.298 403.527 799.287Z" fill="#719436"/>
<path d="M392.35 799.779C391.27 799.812 390.189 799.84 389.109 799.864C390.191 799.84 391.27 799.814 392.35 799.779Z" fill="#719436"/>
<path d="M729.123 577.6C745.865 540.305 755.831 501.284 759.326 462.062C757.873 478.078 755.359 493.977 751.798 509.652C746.515 532.914 738.917 555.675 729.123 577.6Z" fill="#719436"/>
<path d="M369.649 799.812C366.933 799.736 364.219 799.639 361.51 799.506C364.222 799.634 366.935 799.74 369.649 799.812Z" fill="#719436"/>
<path d="M759.369 461.603C759.536 459.704 759.736 457.806 759.872 455.908L759.786 455.901C759.647 457.803 759.538 459.706 759.369 461.603Z" fill="#719436"/>
<path d="M537.624 766.862C536.057 767.558 534.484 768.226 532.91 768.898C534.487 768.23 536.057 767.553 537.624 766.862Z" fill="#719436"/>
<path d="M552.438 759.937C581.97 745.392 609.764 726.992 634.956 704.883C619.598 718.314 602.919 730.711 584.939 741.875C574.302 748.477 563.452 754.484 552.438 759.937Z" fill="#719436"/>
<path d="M719.918 596.64C720.777 594.989 721.626 593.336 722.459 591.678C721.629 593.339 720.773 594.989 719.918 596.64Z" fill="#719436"/>
<path d="M715.997 604.017C715.647 604.657 715.291 605.293 714.938 605.931C715.292 605.293 715.645 604.656 715.997 604.017Z" fill="#719436"/>
<path d="M656.191 684.754C655.891 685.062 655.598 685.374 655.297 685.68C655.598 685.376 655.892 685.062 656.191 684.754Z" fill="#719436"/>
<path d="M546.813 762.701C548.041 762.121 549.249 761.495 550.471 760.902C547.912 762.151 545.338 763.348 542.762 764.537C544.11 763.918 545.473 763.334 546.813 762.701Z" fill="#719436"/>
<path d="M353.465 799.087C355.079 799.197 356.693 799.25 358.309 799.339C356.693 799.247 355.084 799.115 353.471 799.003L353.465 799.087Z" fill="#719436"/>
<path d="M642.244 698.298C640.161 700.218 638.082 702.14 635.947 704.02C638.069 702.145 640.16 700.228 642.244 698.298Z" fill="#719436"/>
<path d="M649.245 691.665C648.092 692.784 646.958 693.915 645.789 695.021C646.952 693.917 648.095 692.785 649.245 691.665Z" fill="#719436"/>
<path d="M760.078 407.178C760.089 407.337 760.098 407.498 760.108 407.659C760.098 407.498 760.089 407.339 760.078 407.178Z" fill="#934D83"/>
<path d="M759.97 453.586C759.97 454.298 759.97 455.127 759.848 455.956H759.727C759.725 455.128 759.847 454.298 759.97 453.586Z" fill="#934D83"/>
<path d="M380.332 429.756L378.262 430.113L367.422 432.127L342.698 436.869L13.7293 498.637L6.90902 499.941C1.3059 471.727 -0.88629 442.917 0.33246 413.989C0.454335 410.433 0.698085 406.997 0.941835 403.439C5.44808 340.723 26.3965 278.245 65.2496 222.289L345.379 406.759L362.187 417.903L370.957 423.594L378.387 428.455L380.332 429.756Z" fill="#914F91"/>
<path d="M407.25 60.3433L382.526 400.237L380.332 429.757L378.384 428.453L370.954 423.592L362.184 417.901L345.376 406.757L65.248 222.287C69.998 215.529 74.9918 208.89 80.1074 202.49C116.768 156.371 162.806 120.806 213.961 96.7387C243.923 82.5137 275.711 72.3168 308.229 66.1543C340.018 60.2262 372.659 58.209 405.179 60.2262C405.911 60.2262 406.518 60.3433 407.25 60.3433Z" fill="#959536"/>
<path d="M275.283 785.535C298.51 792.052 322.121 796.335 345.821 798.423C329.814 796.993 313.924 794.602 298.252 791.229C290.536 789.568 282.88 787.659 275.283 785.535Z" fill="#439494"/>
<path d="M259.877 780.866C257.16 779.984 254.449 779.087 251.752 778.145C254.452 779.091 257.163 779.982 259.877 780.866Z" fill="#439494"/>
<path d="M240.422 774.015C241.955 774.607 243.505 775.127 245.042 775.699C243.505 775.13 241.963 774.577 240.431 773.988L240.422 774.015Z" fill="#439494"/>
<path d="M348.637 798.667C350.246 798.797 351.854 798.976 353.465 799.086L353.471 799.001C351.859 798.89 350.246 798.8 348.637 798.667Z" fill="#439494"/>
<path d="M273.311 784.981C270.106 784.067 266.914 783.104 263.732 782.107C266.918 783.109 270.111 784.065 273.311 784.981Z" fill="#439494"/>
<path d="M120.739 700.301C117.625 697.465 114.538 694.594 111.51 691.644C114.529 694.572 117.605 697.458 120.739 700.301Z" fill="#439494"/>
<path d="M380.332 429.756L126.997 676.35L115.305 687.731L111.408 691.526C95.8176 676.47 81.9332 660.226 69.5113 643.156C57.5754 626.795 47.2223 609.486 38.3316 591.703C23.716 562.539 13.241 531.596 6.9082 499.942L13.7285 498.639L342.697 436.871L367.421 432.129L378.261 430.115L380.332 429.756Z" fill="#439494"/>
<path d="M223.875 767.159C222.556 766.581 221.24 765.993 219.928 765.399C221.242 765.995 222.557 766.579 223.875 767.159Z" fill="#439494"/>
<path d="M185.288 747.553C185.185 747.494 185.082 747.434 184.98 747.375C185.082 747.436 185.185 747.494 185.288 747.553Z" fill="#439494"/>
<path d="M239.436 773.618C239.765 773.746 240.092 773.887 240.421 774.013L240.432 773.987C240.101 773.862 239.765 773.746 239.436 773.618Z" fill="#439494"/>
<path d="M138.912 715.773C137.715 714.815 136.512 713.868 135.326 712.895C136.511 713.863 137.714 714.816 138.912 715.773Z" fill="#439494"/>
<path d="M236.545 772.459C234.182 771.521 231.828 770.563 229.482 769.579C231.829 770.568 234.186 771.52 236.545 772.459Z" fill="#439494"/>
<path d="M130.055 708.473C127.966 706.692 125.883 704.902 123.83 703.07C125.88 704.891 127.955 706.692 130.055 708.473Z" fill="#439494"/>
<path d="M212.918 762.152C212.409 761.909 211.904 761.658 211.396 761.414C211.904 761.659 212.409 761.909 212.918 762.152Z" fill="#439494"/>
<path opacity="0.16" d="M655.296 685.683C653.305 687.712 651.274 689.687 649.244 691.665C651.283 689.686 653.31 687.7 655.296 685.683Z" fill="#040000"/>
<path opacity="0.16" d="M532.911 768.898C530.23 770.037 527.544 771.167 524.838 772.245C527.539 771.164 530.229 770.045 532.911 768.898Z" fill="#040000"/>
<path opacity="0.16" d="M375.305 799.927C373.421 799.903 371.535 799.863 369.65 799.812C371.535 799.866 373.419 799.9 375.305 799.927Z" fill="#040000"/>
<path opacity="0.16" d="M403.527 799.287C443.89 796.929 484.216 788.276 522.954 772.987C500.184 781.928 476.613 788.711 452.59 793.231C436.401 796.279 420.01 798.301 403.527 799.287Z" fill="#040000"/>
<path opacity="0.16" d="M361.508 799.506C360.441 799.454 359.374 799.398 358.307 799.339C359.374 799.4 360.441 799.454 361.508 799.506Z" fill="#040000"/>
<path opacity="0.16" d="M717.932 600.52C718.616 599.236 719.249 597.931 719.918 596.641C718.635 599.106 717.341 601.57 715.996 604.017C716.635 602.848 717.305 601.695 717.932 600.52Z" fill="#040000"/>
<path opacity="0.16" d="M656.189 684.754C679.571 660.832 699.208 634.279 714.935 605.931C709.043 616.499 702.586 626.892 695.525 637.06C683.578 654.263 670.397 670.165 656.189 684.754Z" fill="#040000"/>
<path opacity="0.16" d="M542.763 764.535C541.053 765.318 539.345 766.104 537.625 766.862C539.342 766.101 541.053 765.324 542.763 764.535Z" fill="#040000"/>
<path opacity="0.16" d="M397.182 799.654C399.132 799.573 401.082 799.427 403.032 799.316C399.476 799.524 395.914 799.668 392.35 799.779C393.961 799.732 395.57 799.721 397.182 799.654Z" fill="#040000"/>
<path opacity="0.16" d="M645.788 695.021C644.619 696.131 643.425 697.207 642.244 698.3C643.429 697.207 644.621 696.125 645.788 695.021Z" fill="#040000"/>
<path opacity="0.16" d="M389.108 799.865C386.408 799.928 383.705 799.953 381.002 799.959C383.704 799.957 386.405 799.923 389.108 799.865Z" fill="#040000"/>
<path opacity="0.16" d="M138.912 715.773C153.539 727.486 168.937 738.034 184.979 747.375C179.04 743.913 173.164 740.273 167.357 736.453C157.448 729.933 147.984 723.012 138.912 715.773Z" fill="#040000"/>
<path opacity="0.16" d="M552.436 759.938C551.782 760.259 551.129 760.586 550.471 760.903C551.127 760.583 551.782 760.261 552.436 759.938Z" fill="#040000"/>
<path opacity="0.16" d="M635.949 704.021C635.621 704.312 635.285 704.592 634.955 704.882C635.285 704.593 635.621 704.311 635.949 704.021Z" fill="#040000"/>
<path opacity="0.16" d="M729.123 577.6C728.858 578.192 728.597 578.784 728.328 579.375C728.597 578.784 728.859 578.192 729.123 577.6Z" fill="#040000"/>
<path opacity="0.16" d="M760.578 418.02C760.457 415.055 760.335 412.21 760.213 409.246C760.335 410.668 760.335 411.973 760.457 413.395C760.578 414.937 760.578 416.479 760.578 418.02Z" fill="#040000"/>
<path opacity="0.16" d="M724.66 587.173C723.932 588.676 723.207 590.181 722.457 591.678C723.204 590.181 723.935 588.678 724.66 587.173Z" fill="#040000"/>
<path opacity="0.16" d="M251.752 778.145C249.508 777.357 247.274 776.529 245.041 775.699C247.274 776.524 249.504 777.359 251.752 778.145Z" fill="#040000"/>
<path opacity="0.16" d="M229.483 769.58C227.608 768.79 225.741 767.979 223.875 767.159C225.741 767.976 227.606 768.792 229.483 769.58Z" fill="#040000"/>
<path opacity="0.16" d="M135.327 712.895C133.547 711.439 131.802 709.956 130.057 708.475C131.804 709.962 133.557 711.44 135.327 712.895Z" fill="#040000"/>
<path opacity="0.16" d="M204.898 758.264C207.048 759.35 209.228 760.37 211.395 761.414C202.576 757.153 193.865 752.543 185.287 747.553C191.736 751.3 198.256 754.909 204.898 758.264Z" fill="#040000"/>
<path opacity="0.16" d="M219.927 765.4C217.585 764.337 215.246 763.264 212.918 762.151C215.243 763.259 217.58 764.339 219.927 765.4Z" fill="#040000"/>
<path opacity="0.16" d="M263.734 782.107C262.446 781.703 261.162 781.284 259.879 780.865C261.162 781.284 262.445 781.704 263.734 782.107Z" fill="#040000"/>
<path opacity="0.16" d="M239.436 773.618C238.47 773.242 237.509 772.843 236.545 772.459C237.511 772.843 238.467 773.243 239.436 773.618Z" fill="#040000"/>
<path opacity="0.16" d="M123.829 703.071C122.793 702.152 121.764 701.229 120.74 700.301C121.764 701.232 122.798 702.151 123.829 703.071Z" fill="#040000"/>
<path opacity="0.16" d="M111.395 691.534C111.432 691.572 111.473 691.604 111.51 691.642C111.473 691.606 111.434 691.57 111.395 691.534Z" fill="#040000"/>
<path d="M759.725 455.958C759.604 457.855 759.482 459.752 759.36 461.648V462.005C758.994 466.036 758.507 470.067 758.019 474.097C757.653 477.772 757.046 481.447 756.436 485.241C756.436 485.716 756.314 486.191 756.194 486.783C755.707 489.747 755.219 492.83 754.611 495.911C754.368 497.333 754.124 498.756 753.758 500.177C753.271 503.141 752.539 506.223 751.932 509.188C751.932 509.306 751.81 509.544 751.81 509.663C751.688 509.9 751.688 510.256 751.566 510.494C750.469 515.591 749.13 520.688 747.791 525.786C747.425 526.972 747.182 528.039 746.816 529.106C745.841 532.425 744.868 535.745 743.771 538.945C742.796 542.266 741.7 545.466 740.603 548.667C737.194 558.388 733.418 568.109 729.155 577.594C728.913 578.188 728.546 578.78 728.302 579.372C727.085 581.98 725.866 584.589 724.649 587.197C723.918 588.619 723.188 590.161 722.457 591.7L719.899 596.681C718.682 599.052 717.341 601.541 716.002 604.03C715.636 604.623 715.271 605.334 714.907 605.927C712.471 610.313 709.913 614.819 707.111 619.205C703.458 625.252 699.682 631.178 695.541 637.106C693.105 640.545 690.669 643.983 688.111 647.42C686.528 649.555 684.822 651.688 683.239 653.823C681.899 655.602 680.56 657.261 679.097 658.922C677.149 661.411 675.2 663.781 673.13 666.152C667.771 672.555 662.046 678.838 656.2 684.766C655.835 685.122 655.591 685.359 655.347 685.714C653.277 687.73 651.328 689.744 649.258 691.642C648.041 692.828 646.944 693.895 645.849 694.963C644.63 696.148 643.413 697.216 642.194 698.283C640.124 700.18 638.053 702.195 635.983 703.973C635.618 704.328 635.252 704.566 635.008 704.922C630.989 708.48 626.849 711.917 622.585 715.238C618.81 718.319 614.911 721.283 610.893 724.247C606.75 727.33 602.488 730.413 598.225 733.258C593.841 736.222 589.457 739.067 584.95 741.914C579.957 744.995 574.963 747.959 569.847 750.688C564.002 754.006 558.277 757.089 552.43 759.934C551.821 760.291 551.091 760.645 550.482 760.883C547.924 762.188 545.366 763.373 542.808 764.559C541.104 765.272 539.397 766.1 537.571 766.811C536.11 767.523 534.525 768.234 532.943 768.945C530.263 770.013 527.583 771.198 524.783 772.266C524.174 772.502 523.564 772.739 522.957 772.977C517.353 775.23 511.63 777.364 505.905 779.261C501.277 780.802 496.771 782.225 492.143 783.528C489.341 784.477 486.418 785.306 483.494 786.019C480.083 787.086 476.796 787.914 473.385 788.745C471.68 789.22 469.975 789.575 468.391 789.931C463.763 790.998 459.257 791.947 454.629 792.777C453.897 793.014 453.289 793.133 452.558 793.25C450.364 793.725 448.05 794.081 445.858 794.438C442.693 795.031 439.404 795.505 436.114 795.978C425.274 797.519 414.435 798.705 403.474 799.297H402.986C399.454 799.534 395.922 799.653 392.391 799.772C391.294 799.772 390.197 799.891 389.102 799.891C386.422 799.891 383.743 800.009 380.943 800.009C379.116 800.009 377.168 800.009 375.339 799.891C373.391 799.891 371.564 799.891 369.616 799.772C366.936 799.772 364.257 799.653 361.455 799.534C360.482 799.416 359.385 799.416 358.288 799.297C356.705 799.297 355.122 799.178 353.416 799.061L355.608 769.658L380.332 429.766L756.435 455.728L759.725 455.958Z" fill="#719436"/>
<path opacity="0.16" d="M759.725 455.958C759.604 457.855 759.482 459.752 759.36 461.648V462.005C758.994 466.036 758.507 470.067 758.019 474.097C757.653 477.772 757.046 481.447 756.436 485.241C756.436 485.716 756.314 486.191 756.194 486.783C755.707 489.747 755.219 492.83 754.611 495.911C754.368 497.333 754.124 498.756 753.758 500.177C753.271 503.141 752.539 506.223 751.932 509.188C751.932 509.306 751.81 509.544 751.81 509.663C751.688 509.9 751.688 510.256 751.566 510.494C750.469 515.591 749.13 520.688 747.791 525.786C747.425 526.972 747.182 528.039 746.816 529.106C745.841 532.425 744.868 535.745 743.771 538.945C742.796 542.266 741.7 545.466 740.603 548.667C737.194 558.388 733.418 568.109 729.155 577.594C728.913 578.188 728.546 578.78 728.302 579.372C727.085 581.98 725.866 584.589 724.649 587.197C723.918 588.619 723.188 590.161 722.457 591.7L719.899 596.681C718.682 599.052 717.341 601.541 716.002 604.03C715.636 604.623 715.271 605.334 714.907 605.927C712.471 610.313 709.913 614.819 707.111 619.205C703.458 625.252 699.682 631.178 695.541 637.106C693.105 640.545 690.669 643.983 688.111 647.42C686.528 649.555 684.822 651.688 683.239 653.823C681.899 655.602 680.56 657.261 679.097 658.922C677.149 661.411 675.2 663.781 673.13 666.152C667.771 672.555 662.046 678.838 656.2 684.766C655.835 685.122 655.591 685.359 655.347 685.714C653.277 687.73 651.328 689.744 649.258 691.642C648.041 692.828 646.944 693.895 645.849 694.963C644.63 696.148 643.413 697.216 642.194 698.283C640.124 700.18 638.053 702.195 635.983 703.973C635.618 704.328 635.252 704.566 635.008 704.922C630.989 708.48 626.849 711.917 622.585 715.238C618.81 718.319 614.911 721.283 610.893 724.247C606.75 727.33 602.488 730.413 598.225 733.258C593.841 736.222 589.457 739.067 584.95 741.914C579.957 744.995 574.963 747.959 569.847 750.688C564.002 754.006 558.277 757.089 552.43 759.934C551.821 760.291 551.091 760.645 550.482 760.883C547.924 762.188 545.366 763.373 542.808 764.559C541.104 765.272 539.397 766.1 537.571 766.811C536.11 767.523 534.525 768.234 532.943 768.945C530.263 770.013 527.583 771.198 524.783 772.266C524.174 772.502 523.564 772.739 522.957 772.977C517.353 775.23 511.63 777.364 505.905 779.261C501.277 780.802 496.771 782.225 492.143 783.528C489.341 784.477 486.418 785.306 483.494 786.019C480.083 787.086 476.796 787.914 473.385 788.745C471.68 789.22 469.975 789.575 468.391 789.931C463.763 790.998 459.257 791.947 454.629 792.777C453.897 793.014 453.289 793.133 452.558 793.25C450.364 793.725 448.05 794.081 445.858 794.438C442.693 795.031 439.404 795.505 436.114 795.978C425.274 797.519 414.435 798.705 403.474 799.297H402.986C399.454 799.534 395.922 799.653 392.391 799.772C391.294 799.772 390.197 799.891 389.102 799.891C386.422 799.891 383.743 800.009 380.943 800.009C379.116 800.009 377.168 800.009 375.339 799.891C373.391 799.891 371.564 799.891 369.616 799.772C366.936 799.772 364.257 799.653 361.455 799.534C360.482 799.416 359.385 799.416 358.288 799.297C356.705 799.297 355.122 799.178 353.416 799.061L355.608 769.658L380.332 429.766L756.435 455.728L759.725 455.958Z" fill="#040000"/>
<path d="M761.359 245.901C762.075 247.429 762.764 248.964 763.455 250.498C762.767 248.962 762.07 247.429 761.359 245.901Z" fill="#934D83"/>
<path d="M757.085 236.959C756.49 235.764 755.848 234.589 755.238 233.398C756.521 235.889 757.751 238.394 758.971 240.902C758.335 239.591 757.737 238.266 757.085 236.959Z" fill="#934D83"/>
<path d="M766.889 258.344C767.148 258.959 767.4 259.577 767.657 260.192C767.401 259.575 767.146 258.959 766.889 258.344Z" fill="#934D83"/>
<path d="M754.246 231.485C736.399 197.151 712.901 165.232 684.012 137.16C703.137 155.813 720.53 176.713 735.69 199.848C742.473 210.202 748.645 220.763 754.246 231.485Z" fill="#934D83"/>
<path opacity="0.16" d="M763.457 250.498C764.626 253.104 765.784 255.714 766.89 258.343C765.78 255.72 764.632 253.106 763.457 250.498Z" fill="#040000"/>
<path opacity="0.16" d="M794.674 376.432C792.252 337.148 783.363 297.895 767.658 260.191C776.841 282.354 783.808 305.295 788.452 328.674C791.582 344.434 793.66 360.388 794.674 376.432Z" fill="#040000"/>
<path opacity="0.16" d="M754.246 231.485C754.577 232.123 754.912 232.759 755.24 233.398C754.91 232.76 754.579 232.123 754.246 231.485Z" fill="#040000"/>
<path opacity="0.16" d="M758.971 240.902C759.775 242.565 760.582 244.227 761.36 245.901C760.579 244.23 759.78 242.565 758.971 240.902Z" fill="#040000"/>
<path d="M554.988 41.1371L425.641 359.1L421.257 369.887L414.924 385.418L416.141 369.531V368.346L416.385 366.212L441.961 16.123C478.135 18.6137 514.308 26.1996 549.263 39.123C551.213 39.7152 553.039 40.4246 554.988 41.1371Z" fill="#934D83"/>
<path d="M683.971 123.63C667.118 107.258 648.468 92.1719 628.009 78.7094C604.638 63.3313 580.129 50.8719 554.946 41.1484L414.98 385.459L683.971 123.63Z" fill="#934D83"/>
<path d="M795.411 384.824C795.411 386.721 795.411 388.499 795.289 390.396C795.289 392.293 795.289 394.073 795.167 395.97C795.167 398.578 795.045 401.185 794.923 403.795C794.802 404.862 794.802 405.928 794.68 406.996C794.68 408.535 794.436 410.078 794.436 411.618L760.698 409.248H760.211L414.922 385.418L678.123 129.223L683.97 123.649C702.117 141.313 718.803 161.232 733.419 183.045C734.27 184.113 735.002 185.298 735.733 186.365C742.431 196.679 748.644 207.231 754.245 218.02C754.611 218.612 754.855 219.324 755.22 219.917C756.559 222.406 757.778 224.895 758.995 227.384C759.727 229.045 760.578 230.704 761.309 232.363L763.502 236.987C764.598 239.595 765.816 242.203 766.913 244.812C767.156 245.404 767.4 246.117 767.644 246.709C776.9 268.878 783.842 291.759 788.47 315.232C791.638 330.881 793.708 346.887 794.681 362.892V363.367C794.925 366.923 795.047 370.36 795.169 373.799C795.169 374.867 795.291 375.932 795.291 377.001V379.846C795.411 381.504 795.411 383.165 795.411 384.824Z" fill="#934D83"/>
<path opacity="0.16" d="M795.411 384.824C795.411 386.721 795.411 388.499 795.289 390.396C795.289 392.293 795.289 394.073 795.167 395.97C795.167 398.578 795.045 401.185 794.923 403.795C794.802 404.862 794.802 405.928 794.68 406.996C794.68 408.535 794.436 410.078 794.436 411.618L760.698 409.248H760.211L414.922 385.418L678.123 129.223L683.97 123.649C702.117 141.313 718.803 161.232 733.419 183.045C734.27 184.113 735.002 185.298 735.733 186.365C742.431 196.679 748.644 207.231 754.245 218.02C754.611 218.612 754.855 219.324 755.22 219.917C756.559 222.406 757.778 224.895 758.995 227.384C759.727 229.045 760.578 230.704 761.309 232.363L763.502 236.987C764.598 239.595 765.816 242.203 766.913 244.812C767.156 245.404 767.4 246.117 767.644 246.709C776.9 268.878 783.842 291.759 788.47 315.232C791.638 330.881 793.708 346.887 794.681 362.892V363.367C794.925 366.923 795.047 370.36 795.169 373.799C795.169 374.867 795.291 375.932 795.291 377.001V379.846C795.411 381.504 795.411 383.165 795.411 384.824Z" fill="#040000"/>
<path d="M380.388 429.701L240.432 773.987C241.961 774.576 243.505 775.128 245.043 775.698C247.277 776.528 249.51 777.357 251.753 778.143C254.45 779.086 257.161 779.984 259.879 780.865C261.163 781.284 262.447 781.703 263.733 782.107C266.914 783.104 270.105 784.067 273.311 784.981C273.968 785.168 274.627 785.35 275.285 785.534C282.882 787.657 290.539 789.567 298.254 791.228C313.925 794.601 329.816 796.992 345.822 798.421C346.761 798.504 347.699 798.59 348.638 798.665C350.247 798.798 351.861 798.889 353.472 799.001L380.388 429.701Z" fill="#439494"/>
<path opacity="0.16" d="M380.388 429.701L240.432 773.987C241.961 774.576 243.505 775.128 245.043 775.698C247.277 776.528 249.51 777.357 251.753 778.143C254.45 779.086 257.161 779.984 259.879 780.865C261.163 781.284 262.447 781.703 263.733 782.107C266.914 783.104 270.105 784.067 273.311 784.981C273.968 785.168 274.627 785.35 275.285 785.534C282.882 787.657 290.539 789.567 298.254 791.228C313.925 794.601 329.816 796.992 345.822 798.421C346.761 798.504 347.699 798.59 348.638 798.665C350.247 798.798 351.861 798.889 353.472 799.001L380.388 429.701Z" fill="#040000"/>
<path d="M380.387 429.701L111.396 691.534C111.434 691.571 111.473 691.607 111.511 691.643C114.539 694.593 117.626 697.465 120.74 700.301C121.764 701.229 122.793 702.153 123.829 703.071C125.884 704.901 127.965 706.693 130.054 708.475C131.8 709.957 133.545 711.44 135.325 712.895C136.511 713.868 137.715 714.815 138.911 715.773C147.982 723.012 157.446 729.932 167.357 736.454C173.164 740.275 179.04 743.912 184.979 747.376C185.082 747.436 185.184 747.495 185.287 747.554C193.864 752.545 202.576 757.156 211.395 761.415C211.903 761.661 212.407 761.911 212.917 762.153C215.245 763.265 217.584 764.339 219.926 765.401C221.239 765.995 222.554 766.582 223.873 767.161C225.739 767.981 227.607 768.792 229.481 769.581C231.825 770.565 234.181 771.523 236.543 772.461C237.507 772.845 238.467 773.243 239.434 773.62C239.764 773.748 240.1 773.862 240.429 773.989L380.387 429.701Z" fill="#439494"/>
<path opacity="0.16" d="M380.387 429.701L111.396 691.534C111.434 691.571 111.473 691.607 111.511 691.643C114.539 694.593 117.626 697.465 120.74 700.301C121.764 701.229 122.793 702.153 123.829 703.071C125.884 704.901 127.965 706.693 130.054 708.475C131.8 709.957 133.545 711.44 135.325 712.895C136.511 713.868 137.715 714.815 138.911 715.773C147.982 723.012 157.446 729.932 167.357 736.454C173.164 740.275 179.04 743.912 184.979 747.376C185.082 747.436 185.184 747.495 185.287 747.554C193.864 752.545 202.576 757.156 211.395 761.415C211.903 761.661 212.407 761.911 212.917 762.153C215.245 763.265 217.584 764.339 219.926 765.401C221.239 765.995 222.554 766.582 223.873 767.161C225.739 767.981 227.607 768.792 229.481 769.581C231.825 770.565 234.181 771.523 236.543 772.461C237.507 772.845 238.467 773.243 239.434 773.62C239.764 773.748 240.1 773.862 240.429 773.989L380.387 429.701Z" fill="#040000"/>
<path d="M728.352 549.842C727.168 552.457 725.932 555.051 724.684 557.64C725.938 555.05 727.165 552.451 728.352 549.842Z" fill="#89B551"/>
<path d="M524.861 742.714C524.233 742.965 523.605 743.208 522.977 743.456C523.605 743.209 524.234 742.964 524.861 742.714Z" fill="#89B551"/>
<path d="M381.027 770.426C379.127 770.428 377.227 770.42 375.328 770.394C377.228 770.417 379.128 770.431 381.027 770.426Z" fill="#89B551"/>
<path d="M403.55 769.755C403.386 769.764 403.221 769.774 403.057 769.783C403.221 769.774 403.385 769.766 403.55 769.755Z" fill="#89B551"/>
<path d="M392.373 770.247C391.294 770.28 390.212 770.308 389.133 770.331C390.212 770.308 391.292 770.281 392.373 770.247Z" fill="#89B551"/>
<path d="M369.672 770.28C366.958 770.203 364.243 770.106 361.533 769.974C364.247 770.102 366.96 770.206 369.672 770.28Z" fill="#89B551"/>
<path d="M537.65 737.33C536.082 738.025 534.509 738.694 532.936 739.366C534.511 738.697 536.082 738.021 537.65 737.33Z" fill="#89B551"/>
<path d="M552.461 730.403C581.994 715.858 609.787 697.458 634.98 675.349C619.622 688.78 602.942 701.178 584.962 712.341C574.327 718.944 563.477 724.952 552.461 730.403Z" fill="#89B551"/>
<path d="M719.941 567.108C720.801 565.456 721.649 563.805 722.482 562.146C721.652 563.806 720.796 565.456 719.941 567.108Z" fill="#89B551"/>
<path d="M716.02 574.484C715.67 575.125 715.314 575.761 714.961 576.398C715.316 575.761 715.669 575.123 716.02 574.484Z" fill="#89B551"/>
<path d="M656.214 655.222C655.914 655.529 655.622 655.842 655.32 656.148C655.62 655.844 655.914 655.529 656.214 655.222Z" fill="#89B551"/>
<path d="M546.839 733.169C548.067 732.589 549.275 731.964 550.496 731.37C547.937 732.619 545.364 733.815 542.787 735.003C544.136 734.386 545.496 733.801 546.839 733.169Z" fill="#89B551"/>
<path d="M353.488 769.555C355.102 769.664 356.716 769.718 358.332 769.807C356.718 769.714 355.107 769.583 353.495 769.471L353.488 769.555Z" fill="#89B551"/>
<path d="M642.268 668.766C640.185 670.686 638.105 672.608 635.971 674.487C638.093 672.612 640.185 670.695 642.268 668.766Z" fill="#89B551"/>
<path d="M649.269 662.133C648.117 663.252 646.981 664.383 645.812 665.489C646.975 664.384 648.119 663.253 649.269 662.133Z" fill="#89B551"/>
<path d="M760.791 399.589C760.792 401.428 760.784 403.267 760.758 405.104C760.781 403.265 760.795 401.426 760.791 399.589Z" fill="#E7669A"/>
<path d="M760.609 388.539C760.642 389.578 760.672 390.619 760.695 391.658C760.67 390.619 760.644 389.58 760.609 388.539Z" fill="#E7669A"/>
<path d="M760.102 377.646C760.113 377.805 760.122 377.966 760.131 378.127C760.12 377.966 760.111 377.806 760.102 377.646Z" fill="#E7669A"/>
<path d="M380.454 400.119L345.378 406.759L6.90879 470.42C3.25566 451.808 1.06348 432.958 0.332227 413.989C-0.277148 400.594 -0.0333983 387.314 0.941602 373.919C5.44785 311.203 26.5182 248.725 65.2494 192.769L80.1088 202.49L380.454 400.119Z" fill="#A56FAD"/>
<path d="M407.425 30.8236L406.95 35.8032L406.595 40.4251L405.884 50.5032L405.173 60.2251L381.225 389.922L380.395 400.117L363.205 388.736L156.566 252.755L123.37 230.939L87.9234 207.703L80.1 202.488L72.6313 197.625L65.2812 192.766C84.4875 165.142 106.894 140.958 131.553 119.974C143.289 110.134 155.62 101.005 168.423 92.7079C183.006 83.1048 198.3 74.5689 213.948 67.2173C243.942 52.9908 275.716 42.7954 308.198 36.6314C337.006 31.1782 366.408 29.0439 395.928 30.2298C399.719 30.3501 403.631 30.5876 407.425 30.8236Z" fill="#EBD052"/>
<path d="M275.307 756.003C298.533 762.52 322.144 766.803 345.844 768.89C329.838 767.461 313.947 765.07 298.275 761.697C290.561 760.036 282.904 758.126 275.307 756.003Z" fill="#65C5E2"/>
<path d="M259.902 751.334C257.185 750.453 254.474 749.553 251.777 748.612C254.477 749.558 257.188 750.45 259.902 751.334Z" fill="#65C5E2"/>
<path d="M240.445 744.482C241.978 745.074 243.528 745.594 245.066 746.166C243.528 745.597 241.986 745.044 240.455 744.455L240.445 744.482Z" fill="#65C5E2"/>
<path d="M348.66 769.135C350.27 769.264 351.879 769.444 353.488 769.554L353.495 769.469C351.884 769.358 350.27 769.268 348.66 769.135Z" fill="#65C5E2"/>
<path d="M273.336 755.449C270.131 754.535 266.939 753.572 263.758 752.575C266.942 753.577 270.134 754.533 273.336 755.449Z" fill="#65C5E2"/>
<path d="M120.765 670.769C117.651 667.933 114.563 665.061 111.535 662.111C114.552 665.039 117.63 667.925 120.765 670.769Z" fill="#65C5E2"/>
<path d="M6.94141 470.451C13.2289 502.109 23.7477 532.968 38.307 562.168C56.4742 598.607 80.9789 632.431 111.421 662.001L380.412 400.17L6.94141 470.451Z" fill="#65C5E2"/>
<path d="M223.9 737.627C222.581 737.048 221.266 736.461 219.953 735.867C221.266 736.463 222.581 737.047 223.9 737.627Z" fill="#65C5E2"/>
<path d="M185.312 718.02C185.209 717.961 185.105 717.901 185.004 717.842C185.107 717.901 185.21 717.961 185.312 718.02Z" fill="#65C5E2"/>
<path d="M239.459 744.086C239.789 744.214 240.115 744.355 240.445 744.481L240.456 744.455C240.125 744.328 239.79 744.214 239.459 744.086Z" fill="#65C5E2"/>
<path d="M138.937 686.24C137.741 685.283 136.538 684.336 135.352 683.362C136.534 684.329 137.737 685.284 138.937 686.24Z" fill="#65C5E2"/>
<path d="M236.568 742.927C234.206 741.989 231.851 741.031 229.506 740.047C231.853 741.036 234.211 741.987 236.568 742.927Z" fill="#65C5E2"/>
<path d="M130.079 678.94C127.988 677.159 125.907 675.367 123.854 673.537C125.904 675.357 127.979 677.159 130.079 678.94Z" fill="#65C5E2"/>
<path d="M212.942 732.618C212.432 732.376 211.928 732.125 211.42 731.881C211.928 732.126 212.434 732.376 212.942 732.618Z" fill="#65C5E2"/>
<path opacity="0.16" d="M655.321 656.148C653.33 658.178 651.299 660.153 649.27 662.131C651.307 660.153 653.335 658.167 655.321 656.148Z" fill="#040000"/>
<path opacity="0.16" d="M532.935 739.365C530.254 740.504 527.568 741.634 524.861 742.712C527.561 741.631 530.252 740.512 532.935 739.365Z" fill="#040000"/>
<path opacity="0.16" d="M375.327 770.393C373.442 770.37 371.558 770.329 369.672 770.279C371.556 770.332 373.441 770.367 375.327 770.393Z" fill="#040000"/>
<path opacity="0.16" d="M403.551 769.755C443.913 767.397 484.24 758.744 522.977 743.455C500.205 752.396 476.637 759.179 452.613 763.699C436.426 766.747 420.034 768.769 403.551 769.755Z" fill="#040000"/>
<path opacity="0.16" d="M361.534 769.974C360.466 769.922 359.399 769.866 358.332 769.807C359.399 769.868 360.466 769.922 361.534 769.974Z" fill="#040000"/>
<path opacity="0.16" d="M275.308 756.003C274.65 755.819 273.992 755.637 273.336 755.448C273.992 755.636 274.65 755.819 275.308 756.003Z" fill="#040000"/>
<path opacity="0.16" d="M348.659 769.134C347.72 769.059 346.783 768.971 345.844 768.889C346.783 768.973 347.72 769.057 348.659 769.134Z" fill="#040000"/>
<path opacity="0.16" d="M717.955 570.987C718.64 569.703 719.273 568.398 719.941 567.107C718.657 569.573 717.365 572.037 716.02 574.484C716.659 573.315 717.33 572.162 717.955 570.987Z" fill="#040000"/>
<path opacity="0.16" d="M656.215 655.222C679.596 631.3 699.234 604.747 714.96 576.398C709.068 586.967 702.612 597.359 695.551 607.528C683.604 624.731 670.423 640.633 656.215 655.222Z" fill="#040000"/>
<path opacity="0.16" d="M542.786 735.003C541.077 735.786 539.369 736.572 537.648 737.329C539.364 736.569 541.075 735.792 542.786 735.003Z" fill="#040000"/>
<path opacity="0.16" d="M397.206 770.122C399.156 770.04 401.106 769.895 403.056 769.784C399.5 769.992 395.937 770.136 392.373 770.247C393.986 770.2 395.595 770.189 397.206 770.122Z" fill="#040000"/>
<path opacity="0.16" d="M645.811 665.487C644.643 666.597 643.449 667.673 642.268 668.765C643.452 667.675 644.646 666.592 645.811 665.487Z" fill="#040000"/>
<path opacity="0.16" d="M389.134 770.333C386.432 770.396 383.73 770.421 381.027 770.428C383.727 770.425 386.429 770.391 389.134 770.333Z" fill="#040000"/>
<path opacity="0.16" d="M138.938 686.24C153.564 697.954 168.963 708.501 185.005 717.842C179.066 714.379 173.189 710.742 167.383 706.92C157.473 700.4 148.009 693.479 138.938 686.24Z" fill="#040000"/>
<path opacity="0.16" d="M552.46 730.403C551.805 730.725 551.152 731.052 550.494 731.369C551.15 731.05 551.805 730.728 552.46 730.403Z" fill="#040000"/>
<path opacity="0.16" d="M635.97 674.489C635.642 674.78 635.306 675.06 634.977 675.35C635.308 675.061 635.642 674.778 635.97 674.489Z" fill="#040000"/>
<path opacity="0.16" d="M760.695 391.658C760.759 394.3 760.786 396.944 760.792 399.588C760.791 396.946 760.755 394.304 760.695 391.658Z" fill="#040000"/>
<path opacity="0.16" d="M729.147 548.067C728.881 548.66 728.62 549.252 728.352 549.842C728.619 549.252 728.883 548.66 729.147 548.067Z" fill="#040000"/>
<path opacity="0.16" d="M760.48 383.822C760.395 381.924 760.247 380.025 760.133 378.127C760.347 381.594 760.495 385.066 760.611 388.539C760.559 386.968 760.548 385.394 760.48 383.822Z" fill="#040000"/>
<path opacity="0.16" d="M724.684 557.641C723.955 559.144 723.23 560.648 722.48 562.145C723.227 560.648 723.959 559.145 724.684 557.641Z" fill="#040000"/>
<path opacity="0.16" d="M760.758 405.104C760.734 406.944 760.692 408.784 760.641 410.625C760.694 408.784 760.73 406.945 760.758 405.104Z" fill="#040000"/>
<path opacity="0.16" d="M251.775 748.611C249.532 747.825 247.297 746.996 245.064 746.166C247.299 746.993 249.529 747.827 251.775 748.611Z" fill="#040000"/>
<path opacity="0.16" d="M229.508 740.047C227.633 739.258 225.766 738.447 223.9 737.627C225.764 738.444 227.63 739.26 229.508 740.047Z" fill="#040000"/>
<path opacity="0.16" d="M135.35 683.363C133.571 681.908 131.825 680.424 130.08 678.942C131.825 680.43 133.579 681.908 135.35 683.363Z" fill="#040000"/>
<path opacity="0.16" d="M204.922 728.731C207.072 729.817 209.252 730.838 211.42 731.881C202.602 727.621 193.891 723.011 185.312 718.021C191.759 721.767 198.278 725.377 204.922 728.731Z" fill="#040000"/>
<path opacity="0.16" d="M219.951 735.868C217.609 734.805 215.27 733.732 212.941 732.619C215.268 733.727 217.605 734.807 219.951 735.868Z" fill="#040000"/>
<path opacity="0.16" d="M263.757 752.575C262.47 752.171 261.185 751.752 259.902 751.333C261.187 751.752 262.468 752.172 263.757 752.575Z" fill="#040000"/>
<path opacity="0.16" d="M239.459 744.086C238.493 743.71 237.532 743.311 236.568 742.927C237.534 743.311 238.492 743.711 239.459 744.086Z" fill="#040000"/>
<path opacity="0.16" d="M123.855 673.539C122.819 672.62 121.789 671.697 120.766 670.769C121.789 671.7 122.822 672.619 123.855 673.539Z" fill="#040000"/>
<path opacity="0.16" d="M111.42 662.002C111.457 662.039 111.498 662.072 111.536 662.11C111.496 662.074 111.459 662.038 111.42 662.002Z" fill="#040000"/>
<path d="M759.847 426.319C759.725 428.216 759.604 430.231 759.36 432.128V432.485C758.994 436.516 758.507 440.546 758.019 444.458C757.532 448.252 757.046 452.046 756.436 455.721C756.436 455.958 756.436 456.196 756.314 456.433C755.705 460.227 755.096 463.902 754.366 467.577C754.244 468.17 754.244 468.764 754.122 469.238C753.391 472.794 752.661 476.349 751.808 479.906C751.808 480.025 751.808 480.025 751.808 480.144C751.808 480.263 751.808 480.381 751.686 480.5C750.468 485.953 749.128 491.406 747.546 496.86C747.424 497.572 747.18 498.164 747.058 498.758C746.083 502.314 744.986 505.869 743.769 509.427C742.794 512.747 741.699 515.947 740.602 519.149C737.193 528.869 733.416 538.591 729.153 548.075C728.911 548.669 728.666 549.261 728.3 549.853C727.205 552.461 725.986 555.071 724.647 557.678C723.916 559.1 723.186 560.642 722.455 562.181C721.602 563.842 720.75 565.502 719.897 567.161C718.68 569.533 717.339 572.022 716 574.511C715.635 575.105 715.269 575.817 714.905 576.408C712.104 581.388 709.18 586.366 706.014 591.346C705.893 591.819 705.527 592.413 705.161 592.886C702.116 597.864 698.95 602.725 695.539 607.467C692.616 611.616 689.694 615.766 686.771 619.678C686.283 620.272 685.918 620.745 685.552 621.219C683.36 624.183 681.046 627.028 678.732 629.874C676.905 632.127 675.079 634.497 673.13 636.63C667.649 643.152 662.046 649.316 656.2 655.244C655.957 655.481 655.591 655.838 655.347 656.192C653.277 658.208 651.328 660.105 649.258 662.121C648.163 663.306 646.944 664.374 645.849 665.441C644.63 666.627 643.413 667.694 642.316 668.76C640.246 670.658 638.053 672.553 635.983 674.452C635.618 674.806 635.252 675.044 635.008 675.4C630.868 678.958 626.725 682.514 622.463 685.833C618.932 688.678 615.399 691.406 611.746 694.133C611.136 694.606 610.65 694.963 610.041 695.436C606.143 698.283 602.246 701.01 598.227 703.736C593.843 706.7 589.458 709.546 584.952 712.391C579.958 715.474 574.964 718.438 569.849 721.166C564.125 724.485 558.279 727.567 552.432 730.411C551.822 730.767 551.214 731.003 550.483 731.36C547.925 732.664 545.368 733.85 542.81 735.035C541.105 735.747 539.399 736.575 537.694 737.286L532.944 739.421C530.264 740.488 527.585 741.674 524.907 742.741C524.297 742.977 523.566 743.214 522.958 743.452C517.355 745.705 511.632 747.721 505.907 749.736C505.663 749.736 505.419 749.855 505.175 749.974C499.574 751.869 493.971 753.531 488.368 755.189C488.246 755.189 488.246 755.189 488.124 755.189C483.008 756.731 477.893 758.153 472.777 759.339C471.316 759.696 469.853 760.05 468.393 760.406C463.399 761.592 458.527 762.66 453.533 763.489C453.168 763.606 452.924 763.606 452.56 763.725C452.438 763.725 452.194 763.844 452.072 763.844C449.758 764.319 447.444 764.675 445.008 765.03C442.085 765.624 439.285 765.978 436.361 766.452C425.521 767.992 414.56 769.178 403.599 769.771H403.111C399.457 770.008 395.925 770.127 392.394 770.246C391.297 770.246 390.2 770.364 389.105 770.364C386.425 770.364 383.746 770.364 381.066 770.483C379.118 770.483 377.169 770.364 375.343 770.364C373.394 770.364 371.568 770.364 369.619 770.246C366.939 770.246 364.26 770.127 361.58 770.008C360.485 769.889 359.388 769.889 358.291 769.771C357.439 769.771 356.586 769.652 355.611 769.652C355.002 769.533 354.272 769.416 353.541 769.416L377.9 435.924L378.144 431.892L378.266 430.116L378.388 428.456L380.458 400.122L382.53 400.241L759.847 426.319Z" fill="#89B551"/>
<path opacity="0.16" d="M759.847 426.319C759.725 428.216 759.604 430.231 759.36 432.128V432.485C758.994 436.516 758.507 440.546 758.019 444.458C757.532 448.252 757.046 452.046 756.436 455.721C756.436 455.958 756.436 456.196 756.314 456.433C755.705 460.227 755.096 463.902 754.366 467.577C754.244 468.17 754.244 468.764 754.122 469.238C753.391 472.794 752.661 476.349 751.808 479.906C751.808 480.025 751.808 480.025 751.808 480.144C751.808 480.263 751.808 480.381 751.686 480.5C750.468 485.953 749.128 491.406 747.546 496.86C747.424 497.572 747.18 498.164 747.058 498.758C746.083 502.314 744.986 505.869 743.769 509.427C742.794 512.747 741.699 515.947 740.602 519.149C737.193 528.869 733.416 538.591 729.153 548.075C728.911 548.669 728.666 549.261 728.3 549.853C727.205 552.461 725.986 555.071 724.647 557.678C723.916 559.1 723.186 560.642 722.455 562.181C721.602 563.842 720.75 565.502 719.897 567.161C718.68 569.533 717.339 572.022 716 574.511C715.635 575.105 715.269 575.817 714.905 576.408C712.104 581.388 709.18 586.366 706.014 591.346C705.893 591.819 705.527 592.413 705.161 592.886C702.116 597.864 698.95 602.725 695.539 607.467C692.616 611.616 689.694 615.766 686.771 619.678C686.283 620.272 685.918 620.745 685.552 621.219C683.36 624.183 681.046 627.028 678.732 629.874C676.905 632.127 675.079 634.497 673.13 636.63C667.649 643.152 662.046 649.316 656.2 655.244C655.957 655.481 655.591 655.838 655.347 656.192C653.277 658.208 651.328 660.105 649.258 662.121C648.163 663.306 646.944 664.374 645.849 665.441C644.63 666.627 643.413 667.694 642.316 668.76C640.246 670.658 638.053 672.553 635.983 674.452C635.618 674.806 635.252 675.044 635.008 675.4C630.868 678.958 626.725 682.514 622.463 685.833C618.932 688.678 615.399 691.406 611.746 694.133C611.136 694.606 610.65 694.963 610.041 695.436C606.143 698.283 602.246 701.01 598.227 703.736C593.843 706.7 589.458 709.546 584.952 712.391C579.958 715.474 574.964 718.438 569.849 721.166C564.125 724.485 558.279 727.567 552.432 730.411C551.822 730.767 551.214 731.003 550.483 731.36C547.925 732.664 545.368 733.85 542.81 735.035C541.105 735.747 539.399 736.575 537.694 737.286L532.944 739.421C530.264 740.488 527.585 741.674 524.907 742.741C524.297 742.977 523.566 743.214 522.958 743.452C517.355 745.705 511.632 747.721 505.907 749.736C505.663 749.736 505.419 749.855 505.175 749.974C499.574 751.869 493.971 753.531 488.368 755.189C488.246 755.189 488.246 755.189 488.124 755.189C483.008 756.731 477.893 758.153 472.777 759.339C471.316 759.696 469.853 760.05 468.393 760.406C463.399 761.592 458.527 762.66 453.533 763.489C453.168 763.606 452.924 763.606 452.56 763.725C452.438 763.725 452.194 763.844 452.072 763.844C449.758 764.319 447.444 764.675 445.008 765.03C442.085 765.624 439.285 765.978 436.361 766.452C425.521 767.992 414.56 769.178 403.599 769.771H403.111C399.457 770.008 395.925 770.127 392.394 770.246C391.297 770.246 390.2 770.364 389.105 770.364C386.425 770.364 383.746 770.364 381.066 770.483C379.118 770.483 377.169 770.364 375.343 770.364C373.394 770.364 371.568 770.364 369.619 770.246C366.939 770.246 364.26 770.127 361.58 770.008C360.485 769.889 359.388 769.889 358.291 769.771C357.439 769.771 356.586 769.652 355.611 769.652C355.002 769.533 354.272 769.416 353.541 769.416L377.9 435.924L378.144 431.892L378.266 430.116L378.388 428.456L380.458 400.122L382.53 400.241L759.847 426.319Z" fill="#040000"/>
<path d="M555.025 25.1328L549.215 39.1234L536.175 71.3703L532.737 79.7875L416.436 366.214L415.014 369.414L438.012 53.4703L439.079 39.8359L441.925 0C480.218 2.60781 518.273 10.9062 555.025 25.1328Z" fill="#E7669A"/>
<path d="M761.385 216.369C762.099 217.897 762.789 219.432 763.48 220.966C762.791 219.43 762.096 217.897 761.385 216.369Z" fill="#E7669A"/>
<path d="M757.109 207.427C756.513 206.231 755.871 205.056 755.262 203.867C756.545 206.358 757.774 208.862 758.994 211.37C758.36 210.058 757.76 208.733 757.109 207.427Z" fill="#E7669A"/>
<path d="M766.912 228.811C767.173 229.426 767.423 230.042 767.681 230.659C767.426 230.042 767.171 229.426 766.912 228.811Z" fill="#E7669A"/>
<path d="M754.268 201.953C736.421 167.619 712.922 135.7 684.033 107.63C703.158 126.283 720.552 147.183 735.711 170.317C742.494 180.671 748.666 191.231 754.268 201.953Z" fill="#E7669A"/>
<path d="M683.968 107.648L675.565 115.828L669.962 121.281L415.045 369.412L416.384 366.213L549.264 39.1234L554.987 25.1328C564.853 28.9266 574.596 33.1953 584.218 37.8172C599.2 45.05 613.815 53.3484 628.065 62.7141C648.526 76.1109 667.161 91.1672 683.968 107.648Z" fill="#E7669A"/>
<path opacity="0.16" d="M763.479 220.966C764.647 223.572 765.805 226.181 766.911 228.811C765.802 226.188 764.655 223.574 763.479 220.966Z" fill="#040000"/>
<path opacity="0.16" d="M794.697 346.9C792.275 307.615 783.386 268.362 767.682 230.659C776.864 252.822 783.832 275.762 788.477 299.142C791.607 314.9 793.685 330.856 794.697 346.9Z" fill="#040000"/>
<path opacity="0.16" d="M754.268 201.953C754.599 202.591 754.933 203.227 755.261 203.866C754.933 203.228 754.602 202.591 754.268 201.953Z" fill="#040000"/>
<path opacity="0.16" d="M758.994 211.37C759.799 213.033 760.605 214.697 761.383 216.369C760.602 214.698 759.804 213.033 758.994 211.37Z" fill="#040000"/>
<path d="M795.41 368.82V374.393C795.288 375.815 795.288 377.239 795.288 378.659V379.847C795.166 382.573 795.045 385.181 794.923 387.789C794.923 388.857 794.801 389.923 794.801 390.872C794.679 392.531 794.557 394.073 794.435 395.614L760.698 393.242L430.266 370.481L421.254 369.887L416.138 369.531L415.043 369.412L669.962 121.279L675.565 115.826L683.968 107.646C683.968 107.646 683.968 107.646 684.09 107.646C688.352 111.795 692.615 116.182 696.635 120.567C698.462 122.346 700.166 124.243 701.751 126.14C705.162 129.815 708.329 133.609 711.495 137.521C715.759 142.62 719.899 147.954 723.918 153.407C727.937 158.862 731.957 164.553 735.732 170.361C737.437 172.968 739.141 175.578 740.726 178.186C745.598 186.009 749.982 193.953 754.245 201.897C754.61 202.607 754.976 203.201 755.22 203.911C755.341 204.148 755.463 204.386 755.585 204.623C756.804 206.875 757.899 209.128 758.996 211.381C759.849 213.039 760.579 214.7 761.432 216.359C762.041 217.9 762.771 219.442 763.502 220.982C764.599 223.59 765.816 226.2 766.913 228.807C767.157 229.4 767.401 229.992 767.645 230.703C769.959 236.156 772.151 241.729 774.099 247.301C775.682 251.806 777.145 256.193 778.484 260.698C779.459 263.425 780.31 266.27 781.041 269.115C782.138 272.317 782.99 275.636 783.843 278.956C784.33 280.614 784.696 282.276 785.062 283.934C786.157 288.084 787.132 292.351 787.863 296.62C788.107 297.45 788.351 298.278 788.473 299.109C788.838 301.242 789.326 303.259 789.691 305.393C790.301 308.714 790.787 312.151 791.274 315.47C792.979 325.903 794.076 336.336 794.684 346.887V347.362C794.927 350.8 795.049 354.356 795.171 357.793C795.293 358.862 795.293 359.928 795.293 360.876C795.41 363.603 795.41 366.212 795.41 368.82Z" fill="#E7669A"/>
<path opacity="0.16" d="M795.41 368.82V374.393C795.288 375.815 795.288 377.239 795.288 378.659V379.847C795.166 382.573 795.045 385.181 794.923 387.789C794.923 388.857 794.801 389.923 794.801 390.872C794.679 392.531 794.557 394.073 794.435 395.614L760.698 393.242L430.266 370.481L421.254 369.887L416.138 369.531L415.043 369.412L669.962 121.279L675.565 115.826L683.968 107.646C683.968 107.646 683.968 107.646 684.09 107.646C688.352 111.795 692.615 116.182 696.635 120.567C698.462 122.346 700.166 124.243 701.751 126.14C705.162 129.815 708.329 133.609 711.495 137.521C715.759 142.62 719.899 147.954 723.918 153.407C727.937 158.862 731.957 164.553 735.732 170.361C737.437 172.968 739.141 175.578 740.726 178.186C745.598 186.009 749.982 193.953 754.245 201.897C754.61 202.607 754.976 203.201 755.22 203.911C755.341 204.148 755.463 204.386 755.585 204.623C756.804 206.875 757.899 209.128 758.996 211.381C759.849 213.039 760.579 214.7 761.432 216.359C762.041 217.9 762.771 219.442 763.502 220.982C764.599 223.59 765.816 226.2 766.913 228.807C767.157 229.4 767.401 229.992 767.645 230.703C769.959 236.156 772.151 241.729 774.099 247.301C775.682 251.806 777.145 256.193 778.484 260.698C779.459 263.425 780.31 266.27 781.041 269.115C782.138 272.317 782.99 275.636 783.843 278.956C784.33 280.614 784.696 282.276 785.062 283.934C786.157 288.084 787.132 292.351 787.863 296.62C788.107 297.45 788.351 298.278 788.473 299.109C788.838 301.242 789.326 303.259 789.691 305.393C790.301 308.714 790.787 312.151 791.274 315.47C792.979 325.903 794.076 336.336 794.684 346.887V347.362C794.927 350.8 795.049 354.356 795.171 357.793C795.293 358.862 795.293 359.928 795.293 360.876C795.41 363.603 795.41 366.212 795.41 368.82Z" fill="#040000"/>
<path d="M380.411 400.169L240.455 744.455C241.985 745.044 243.528 745.595 245.066 746.166C247.3 746.995 249.533 747.825 251.777 748.611C254.474 749.553 257.185 750.452 259.902 751.333C261.186 751.752 262.471 752.171 263.757 752.575C266.938 753.572 270.129 754.533 273.335 755.449C273.991 755.636 274.65 755.817 275.307 756.003C282.904 758.127 290.561 760.036 298.275 761.697C313.947 765.07 329.839 767.461 345.844 768.891C346.783 768.974 347.721 769.06 348.66 769.136C350.269 769.267 351.883 769.36 353.494 769.472L380.411 400.169Z" fill="#65C5E2"/>
<path opacity="0.16" d="M380.411 400.169L240.455 744.455C241.985 745.044 243.528 745.595 245.066 746.166C247.3 746.995 249.533 747.825 251.777 748.611C254.474 749.553 257.185 750.452 259.902 751.333C261.186 751.752 262.471 752.171 263.757 752.575C266.938 753.572 270.129 754.533 273.335 755.449C273.991 755.636 274.65 755.817 275.307 756.003C282.904 758.127 290.561 760.036 298.275 761.697C313.947 765.07 329.839 767.461 345.844 768.891C346.783 768.974 347.721 769.06 348.66 769.136C350.269 769.267 351.883 769.36 353.494 769.472L380.411 400.169Z" fill="#040000"/>
<path d="M380.411 400.169L111.422 662.002C111.459 662.039 111.498 662.075 111.536 662.111C114.564 665.061 117.652 667.933 120.766 670.769C121.789 671.697 122.819 672.62 123.855 673.539C125.909 675.369 127.991 677.161 130.08 678.942C131.825 680.425 133.57 681.908 135.35 683.363C136.536 684.336 137.741 685.283 138.936 686.241C148.008 693.48 157.472 700.4 167.383 706.922C173.189 710.742 179.066 714.38 185.005 717.844C185.106 717.903 185.209 717.963 185.313 718.022C193.891 723.013 202.602 727.624 211.42 731.883C211.928 732.128 212.433 732.378 212.942 732.621C215.27 733.733 217.609 734.806 219.952 735.869C221.264 736.463 222.58 737.049 223.898 737.628C225.764 738.449 227.631 739.26 229.506 740.049C231.852 741.033 234.206 741.991 236.569 742.928C237.533 743.313 238.492 743.711 239.459 744.088C239.789 744.216 240.125 744.33 240.455 744.456L380.411 400.169Z" fill="#65C5E2"/>
<path opacity="0.16" d="M380.411 400.169L111.422 662.002C111.459 662.039 111.498 662.075 111.536 662.111C114.564 665.061 117.652 667.933 120.766 670.769C121.789 671.697 122.819 672.62 123.855 673.539C125.909 675.369 127.991 677.161 130.08 678.942C131.825 680.425 133.57 681.908 135.35 683.363C136.536 684.336 137.741 685.283 138.936 686.241C148.008 693.48 157.472 700.4 167.383 706.922C173.189 710.742 179.066 714.38 185.005 717.844C185.106 717.903 185.209 717.963 185.313 718.022C193.891 723.013 202.602 727.624 211.42 731.883C211.928 732.128 212.433 732.378 212.942 732.621C215.27 733.733 217.609 734.806 219.952 735.869C221.264 736.463 222.58 737.049 223.898 737.628C225.764 738.449 227.631 739.26 229.506 740.049C231.852 741.033 234.206 741.991 236.569 742.928C237.533 743.313 238.492 743.711 239.459 744.088C239.789 744.216 240.125 744.33 240.455 744.456L380.411 400.169Z" fill="#040000"/>
<path opacity="0.2" d="M376.483 34.498C386.797 34.498 396.874 34.973 406.95 35.8027L406.596 40.4246L405.885 50.5027C400.075 50.1465 394.149 50.0277 388.221 50.0277C312.702 50.0277 242.518 73.0262 184.427 112.268C184.308 112.387 184.071 112.506 183.952 112.625C146.371 138.114 113.768 170.361 87.9238 207.704C83.3004 214.461 78.9129 221.337 74.6457 228.451C42.2801 282.867 23.6676 346.531 23.6676 414.461C23.6676 432.125 24.9707 449.434 27.4613 466.506C28.766 476.107 30.5426 485.712 32.6785 495.078C43.466 542.5 63.3832 586.482 90.6504 625.012C60.8941 587.431 38.3691 543.921 25.327 496.5C22.7191 487.253 20.466 477.768 18.6879 468.165C14.302 445.759 12.0488 422.642 12.0488 398.931C12.0488 359.096 18.452 320.686 30.3066 284.764C40.502 253.703 54.8473 224.418 72.6301 197.626C137.952 99.348 249.63 34.498 376.483 34.498Z" fill="white"/>
<path opacity="0.2" d="M695.69 133.838C686.523 124.391 676.799 115.357 666.665 106.96C663.68 104.518 660.707 102.194 657.721 99.7535C625.546 74.7395 589.126 54.9191 550.041 41.7973C549.923 41.8098 549.923 41.8098 549.923 41.8098C548.071 41.1613 546.101 40.5254 544.249 39.877C513.729 30.1863 481.688 24.3426 448.563 23.1348C448.198 23.052 447.726 23.0988 447.371 23.1348L447.074 9.46289C447.44 9.5457 447.795 9.50977 448.16 9.59258C482.488 12.1098 515.638 19.5113 546.83 31.1598C548.684 31.8082 550.535 32.4551 552.399 33.2223C552.518 33.2113 552.529 33.3285 552.529 33.3285C591.815 48.4551 627.846 70.341 659.42 97.6801C662.287 100.133 665.165 102.704 667.926 105.286C667.926 105.286 668.045 105.275 668.055 105.393C677.766 114.307 686.946 123.871 695.69 133.838Z" fill="white"/>
</g>
<defs>
<clipPath id="clip0_9195_62335">
<rect width="800" height="800" fill="white"/>
</clipPath>
</defs>
</svg>
