<svg width="60" height="60" viewBox="0 0 60 60" fill="none" xmlns="http://www.w3.org/2000/svg">
<path d="M54 9L41 12L45.045 15.111L30.669 31H23C22.437 31 21.887 31.158 21.41 31.456L14.14 36H6V42H15C15.563 42 16.113 41.842 16.59 41.544L23.86 37H32C32.848 37 33.656 36.642 34.225 36.013L49.816 18.782L54 22V9Z" fill="#005DC7"/>
<path d="M6 44H14V57H6V44Z" fill="#005DC7"/>
<path d="M36 37.0315V57.0005H44V28.1895L36 37.0315Z" fill="#005DC7"/>
<path d="M17.649 43.2405C17.141 43.5575 16.581 43.7675 16 43.8865V57.0005H24V39.2715L17.649 43.2405Z" fill="#005DC7"/>
<path d="M50.06 21.4922L46 25.9792V57.0002H54V24.5232L50.06 21.4922Z" fill="#005DC7"/>
<path d="M32 38.9991H26V56.9991H34V38.5781C33.375 38.8511 32.695 38.9991 32 38.9991Z" fill="#005DC7"/>
</svg>
