<svg width="115" height="132" viewBox="0 0 115 132" fill="none" xmlns="http://www.w3.org/2000/svg">
<path d="M110.663 63.2516L92.6885 66.0341C92.0019 66.1404 91.5315 66.7832 91.6378 67.4697L93.3326 78.4174C93.4388 79.104 94.0816 79.5745 94.7682 79.4682L112.742 76.6856C113.429 76.5793 113.899 75.9366 113.793 75.25L112.098 64.3023C111.992 63.6157 111.349 63.1453 110.663 63.2516Z" stroke="#263238" stroke-linecap="round" stroke-linejoin="round"/>
<path d="M91.9102 69.2375L112.371 66.0703" stroke="#263238" stroke-linecap="round" stroke-linejoin="round"/>
<path d="M110.77 69.668L107.465 70.1797L108.202 74.9388L111.507 74.4272L110.77 69.668Z" stroke="#263238" stroke-linecap="round" stroke-linejoin="round"/>
<path d="M108.806 70.9521C109.505 70.1208 110.652 70.675 110.383 73.2547L111.405 73.7618L111.505 74.4102L108.202 74.9228L108.066 74.0555L109.313 73.5706C109.313 73.5706 108.15 71.7363 108.806 70.9521Z" stroke="#263238" stroke-linecap="round" stroke-linejoin="round"/>
<path d="M101.641 76.7759C101.641 76.7759 104.029 76.7953 103.345 76.3187C102.66 75.8421 102.558 75.3599 103.14 75.3516C103.722 75.3433 104.697 76.46 104.619 75.7783C104.542 75.0967 104.963 75.54 105.043 75.5844C105.124 75.6287 105.814 75.3516 105.847 75.432C105.88 75.5123 105.833 75.7368 108.08 75.3904" stroke="#263238" stroke-linecap="round" stroke-linejoin="round"/>
<path d="M93.6445 71.3642L103.664 69.8125" stroke="#263238" stroke-linecap="round" stroke-linejoin="round"/>
<path d="M93.8242 72.5003L99.7263 71.5859" stroke="#263238" stroke-linecap="round" stroke-linejoin="round"/>
<path d="M94.1328 74.509L102.365 73.2344" stroke="#263238" stroke-linecap="round" stroke-linejoin="round"/>
<path d="M96.6875 67.0104L106.735 65.4531" stroke="#263238" stroke-linecap="round" stroke-linejoin="round"/>
<path d="M1 59.9939L23.4638 55.5078L31.3082 93.17L7.43128 98.2907L1 59.9939Z" stroke="#263238" stroke-linecap="round" stroke-linejoin="round"/>
<path d="M6.52734 92.9159L30.3572 88.6016" stroke="#263238" stroke-linecap="round" stroke-linejoin="round"/>
<path d="M27.5325 85.3984L16.1523 87.4988" stroke="#263238" stroke-linecap="round" stroke-linejoin="round"/>
<path d="M25.8485 83.5078L22.5234 83.9983" stroke="#263238" stroke-linecap="round" stroke-linejoin="round"/>
<path d="M26.3529 79.6641L9.36719 82.8506" stroke="#263238" stroke-linecap="round" stroke-linejoin="round"/>
<path d="M3.9375 77.4865L27.1882 73.3828" stroke="#263238" stroke-linecap="round" stroke-linejoin="round" stroke-dasharray="1 2"/>
<path d="M28.6429 91.9531L14.5195 94.9125" stroke="#263238" stroke-linecap="round" stroke-linejoin="round"/>
<path d="M28.2211 90.7578L21.582 91.9493" stroke="#263238" stroke-linecap="round" stroke-linejoin="round"/>
<path d="M24.6305 70.9062L12.9844 73.2144" stroke="#263238" stroke-linecap="round" stroke-linejoin="round"/>
<path d="M23.7102 68.3203L20 69.0491" stroke="#263238" stroke-linecap="round" stroke-linejoin="round"/>
<path d="M23.4909 66.5234L6.52734 69.7931" stroke="#263238" stroke-linecap="round" stroke-linejoin="round"/>
<path d="M21.9514 57.7812L17.3711 58.7289" stroke="#263238" stroke-linecap="round" stroke-linejoin="round"/>
<path d="M6.52944 61.0391L2.57812 61.8066" stroke="#263238" stroke-linecap="round" stroke-linejoin="round"/>
<path d="M4.01562 63.981C4.09803 63.7001 4.23956 63.44 4.43072 63.2183C4.62188 62.9965 4.85826 62.8182 5.12399 62.6953" stroke="#263238" stroke-linecap="round" stroke-linejoin="round"/>
<path d="M5.76971 66.523C5.27905 66.4649 4.82552 66.2328 4.49147 65.8687C4.15742 65.5047 3.96502 65.0329 3.94922 64.5391" stroke="#263238" stroke-linecap="round" stroke-linejoin="round"/>
<path d="M7.31053 66.0547C7.02925 66.3078 6.67919 66.4717 6.30469 66.5257" stroke="#263238" stroke-linecap="round" stroke-linejoin="round"/>
<path d="M5.96484 62.5078C6.32161 62.5195 6.66927 62.6234 6.97398 62.8093C7.27868 62.9952 7.53005 63.2569 7.70359 63.5688C7.87713 63.8808 7.96694 64.2323 7.96427 64.5893C7.9616 64.9462 7.86654 65.2964 7.68835 65.6057" stroke="#263238" stroke-linecap="round" stroke-linejoin="round"/>
<path d="M10.0068 63.0278C9.63827 62.9114 9.27251 62.7784 8.89844 62.6953" stroke="#263238" stroke-linecap="round" stroke-linejoin="round"/>
<path d="M13.1484 63.2996C12.8353 64.045 11.0841 63.3661 10.5742 63.2109" stroke="#263238" stroke-linecap="round" stroke-linejoin="round"/>
<path d="M10.1484 61.3203L13.4237 62.0906C13.371 62.3095 13.3294 62.5312 13.2879 62.7501" stroke="#263238" stroke-linecap="round" stroke-linejoin="round"/>
<path d="M8.52734 62.0866C8.87648 61.2553 8.73793 60.9782 9.608 61.1805" stroke="#263238" stroke-linecap="round" stroke-linejoin="round"/>
<path d="M48.4922 120.903L52.8287 122.233L49.6061 118.437C51.3727 116.473 52.3842 113.945 52.4601 111.305" stroke="#263238" stroke-linecap="round" stroke-linejoin="round"/>
<path d="M43.2305 122.573C44.684 122.11 46.0557 121.421 47.2954 120.531" stroke="#263238" stroke-linecap="round" stroke-linejoin="round"/>
<path d="M26.4961 114.516C27.7735 120.67 34.5733 124.46 41.6862 122.986" stroke="#263238" stroke-linecap="round" stroke-linejoin="round"/>
<path d="M27.5326 107.57C27.2596 108.089 27.0279 108.628 26.8398 109.183" stroke="#263238" stroke-linecap="round" stroke-linejoin="round"/>
<path d="M52.2506 109.17C50.976 103.016 44.1734 99.225 37.0633 100.702C33.8346 101.336 30.9248 103.068 28.8281 105.604" stroke="#263238" stroke-linecap="round" stroke-linejoin="round"/>
<path d="M44.705 106.914C42.6573 104.683 39.867 106.229 38.706 108.493C36.7885 106.831 33.6214 106.423 32.5518 109.258C30.7452 114.032 36.9243 116.945 39.7839 117.997C40.1081 118.119 40.3741 118.222 40.5958 118.297C40.7759 118.144 40.9865 117.95 41.2414 117.718C43.5025 115.675 48.1576 110.677 44.705 106.914Z" stroke="#263238" stroke-linecap="round" stroke-linejoin="round"/>
<path d="M61.7352 16.0867L57.5483 14.3438L60.3885 18.4336C58.4473 20.2181 57.2022 22.6336 56.875 25.2501" stroke="#263238" stroke-linecap="round" stroke-linejoin="round"/>
<path d="M67.129 14.9219C65.6383 15.245 64.207 15.7985 62.8867 16.5623" stroke="#263238" stroke-linecap="round" stroke-linejoin="round"/>
<path d="M83.0144 24.5547C82.3355 18.3008 75.9319 13.8673 68.7109 14.6626" stroke="#263238" stroke-linecap="round" stroke-linejoin="round"/>
<path d="M81.3164 31.366C81.6331 30.8758 81.911 30.3616 82.1477 29.8281" stroke="#263238" stroke-linecap="round" stroke-linejoin="round"/>
<path d="M56.875 27.3984C57.5539 33.6468 63.9574 38.0748 71.1784 37.2906C74.4525 36.9689 77.5147 35.5249 79.8458 33.2035" stroke="#263238" stroke-linecap="round" stroke-linejoin="round"/>
<path d="M72.9799 31.2175C76.1815 29.5037 77.3877 25.519 75.6738 22.3173C73.96 19.1157 69.9752 17.9096 66.7736 19.6234C63.572 21.3372 62.3659 25.322 64.0797 28.5236C65.7935 31.7253 69.7783 32.9314 72.9799 31.2175Z" stroke="#263238" stroke-linecap="round" stroke-linejoin="round"/>
<path d="M67.3789 26.2543L69.3463 28.1108L72.627 22.4609" stroke="#263238" stroke-linecap="round" stroke-linejoin="round"/>
<path opacity="0.2" d="M78.0978 88.0599C78.0978 88.0599 77.1113 99.9969 78.5384 102.893C79.9654 105.788 80.6803 125.572 80.0402 128.061C80.0402 128.061 84.6344 129.219 86.4521 127.573C88.2698 125.927 91.0656 127.512 95.6709 125.91C100.276 124.309 96.9538 88.7609 96.9538 88.7609L97.0951 75.8291L89.5001 69.0625L78.0978 88.0599Z" fill="black" fill-opacity="0.7"/>
<path d="M84.2209 93.7951C84.1922 93.8805 84.146 93.9588 84.0851 94.0251C83.1042 94.9534 78.9174 95.9842 75.3207 96.7268C72.342 97.3447 69.7789 97.7631 69.7789 97.7631C69.7789 97.7631 67.806 81.3676 67.806 79.6441C67.806 77.9206 64.625 50.0175 64.625 50.0175L72.2505 49.6878L82.3671 49.25C82.3671 49.25 82.4281 49.9954 82.5306 51.2977C83.1984 59.5938 85.4927 90.5227 84.2209 93.7951Z" fill="#92E3A9"/>
<path opacity="0.2" d="M84.2224 93.7921L75.3223 95.6126L71.9611 96.3026C71.0495 95.4075 70.354 95.3909 70.354 95.3909L70.0769 92.8833L69.6419 88.7795L65.8125 52.6746C66.6438 52.101 67.0539 50.8458 67.0539 50.8458L72.1801 50.6601L81.0608 50.3359L82.5266 51.2836C83.2 59.5908 85.4943 90.5197 84.2224 93.7921Z" fill="black" fill-opacity="0.7"/>
<path d="M84.2224 93.7921L75.3223 95.6126L71.9611 96.3026C71.0495 95.4075 70.354 95.3909 70.354 95.3909L70.0769 92.8833L69.6419 88.7795L65.8125 52.6746C66.6438 52.101 67.0539 50.8458 67.0539 50.8458L72.1801 50.6601L81.0608 50.3359L82.5266 51.2836C83.2 59.5908 85.4943 90.5197 84.2224 93.7921Z" stroke="#263238" stroke-linecap="round" stroke-linejoin="round"/>
<path d="M70.8242 83.1696L73.7946 83.1641L73.7974 84.0923L72.9717 84.386L71.0681 84.5939L70.8242 83.1696Z" fill="#92E3A9" stroke="#263238" stroke-linecap="round" stroke-linejoin="round"/>
<path d="M71.0078 85.0748L73.1913 85L73.751 85.266L73.7233 86.4991L71.1741 86.5268L71.0078 85.0748Z" fill="#92E3A9" stroke="#263238" stroke-linecap="round" stroke-linejoin="round"/>
<path d="M71.3576 87.0473L73.8514 86.8672L73.8237 87.801L72.6184 88.2277L71.3438 88.1557L71.3576 87.0473Z" fill="#92E3A9" stroke="#263238" stroke-linecap="round" stroke-linejoin="round"/>
<path d="M71.5086 88.625L73.5231 88.7275L73.7059 89.2429L73.4122 89.8109L71.6111 89.9273L71.3008 89.0489L71.5086 88.625Z" fill="#92E3A9" stroke="#263238" stroke-linecap="round" stroke-linejoin="round"/>
<path d="M73.8269 90.4219L74.104 91.2282C74.1482 91.3139 74.1713 91.4089 74.1713 91.5053C74.1713 91.6017 74.1482 91.6967 74.104 91.7824C74.0525 91.8413 73.9867 91.886 73.9129 91.9122C73.8392 91.9384 73.76 91.9452 73.6828 91.932C73.5276 91.9182 73.3752 91.8655 73.2201 91.8572C72.7518 91.8378 72.3223 92.223 71.8623 92.1343C71.6822 91.6355 71.2278 90.904 71.8429 90.6796C71.9565 90.6436 73.8934 90.6048 73.8269 90.4219Z" fill="#92E3A9" stroke="#263238" stroke-linecap="round" stroke-linejoin="round"/>
<path d="M73.8186 92.6953C73.8626 92.887 73.8941 93.0814 73.9129 93.2772C73.941 93.401 73.9369 93.5299 73.901 93.6517C73.8651 93.7734 73.7986 93.884 73.7078 93.9727C73.5896 94.0376 73.4574 94.0728 73.3226 94.0752L71.7211 94.2193C71.6977 93.9169 71.6931 93.6134 71.7072 93.3105C71.8014 92.9502 71.7349 92.9807 72.0757 92.8339C72.6161 92.6039 73.2645 92.9696 73.8186 92.6953Z" fill="#92E3A9" stroke="#263238" stroke-linecap="round" stroke-linejoin="round"/>
<path d="M67.9961 53.5C67.9961 53.5 68.6002 59.3383 68.6279 60.4938" stroke="#263238" stroke-linecap="round" stroke-linejoin="round"/>
<path d="M69.2969 53.5625L69.5795 56.7795" stroke="#263238" stroke-linecap="round" stroke-linejoin="round"/>
<path d="M73.8125 52.3438L74.1783 56.115L74.6909 56.1648L74.5246 52.3798L73.8125 52.3438Z" fill="#92E3A9" stroke="#263238" stroke-linecap="round" stroke-linejoin="round"/>
<path opacity="0.2" d="M84.221 93.7951C84.1923 93.8805 84.1461 93.9588 84.0852 94.0251C83.1043 94.9534 78.9175 95.9842 75.3208 96.7268V94.233L70.0866 92.8918L69.2969 92.6896L69.6516 88.7881L71.0065 73.8806L72.1897 50.6742L72.2396 49.6878L82.3673 49.25C82.3673 49.25 82.4282 49.9954 82.5307 51.2977C83.1985 59.5938 85.4928 90.5227 84.221 93.7951Z" fill="black" fill-opacity="0.7"/>
<path d="M84.2209 93.7951C84.1922 93.8805 84.146 93.9588 84.0851 94.0251C83.1042 94.9534 78.9174 95.9842 75.3207 96.7268C72.342 97.3447 69.7789 97.7631 69.7789 97.7631C69.7789 97.7631 67.806 81.3676 67.806 79.6441C67.806 77.9206 64.625 50.0175 64.625 50.0175L72.2505 49.6878L82.3671 49.25C82.3671 49.25 82.4281 49.9954 82.5306 51.2977C83.1984 59.5938 85.4927 90.5227 84.2209 93.7951Z" stroke="#263238" stroke-linecap="round" stroke-linejoin="round"/>
<path d="M89.5863 131.004C89.65 130.419 88.7301 122.032 88.7134 121.12C88.6691 118.626 87.9625 115.354 87.9625 115.354C86.9761 112.832 86.2085 107.022 83.5762 103.295C80.9438 99.5678 80.9466 95.1842 80.5088 91.4629C80.071 87.7415 80.179 88.063 80.2899 84.76C80.3698 82.279 80.2596 79.7954 79.9601 77.3312C79.7412 75.1367 79.3034 71.2768 79.9601 69.4785C80.6168 67.6801 82.3348 67.2617 84.2162 69.0628C86.0977 70.8639 86.8652 78.2484 86.8652 79.16C86.8652 80.0717 86.8652 82.9202 87.5247 84.0174C87.5247 84.0174 91.2516 82.111 91.2516 81.5846C91.2516 81.0581 91.1407 76.4057 91.6894 76.1564L89.4976 69.0628L93.654 67.5859C94.4363 68.2877 95.1122 69.0998 95.6601 69.9966C96.1292 70.7392 96.5219 71.5274 96.8322 72.3491C98.5862 77.0015 101.404 80.2462 101.986 81.5846C102.568 82.9229 101.986 93.5521 101.986 95.5278C101.986 97.5035 100.711 106.611 100.745 108.144C100.77 109.252 101.518 113.375 102.263 116.537C102.54 117.756 104.222 126.59 104.48 127.291L89.5863 131.004Z" fill="white"/>
<path opacity="0.4" d="M92.867 75.6881C92.8393 76.2838 93.5514 81.0332 93.5514 81.0332C94.0447 82.2163 91.3513 86.2508 91.3513 86.2508C90.7694 86.5778 90.5201 88.6061 90.5201 88.6061C88.6968 88.2015 84.521 84.0036 84.521 84.0036C84.521 84.0036 84.0278 85.7243 83.4736 89.9832C82.9195 94.2421 86.433 104.359 87.9293 111.344C89.4255 118.33 88.7134 121.112 88.7134 121.112C88.6691 118.618 87.9625 115.345 87.9625 115.345C86.9761 112.824 86.2085 107.013 83.5762 103.286C80.9438 99.5595 80.9466 95.1842 80.5088 91.4629C80.071 87.7415 80.179 88.063 80.2899 84.76C80.3698 82.279 80.2596 79.7954 79.9601 77.3312C79.7412 75.1367 79.3034 71.2768 79.9601 69.4785C80.6168 67.6801 82.3348 67.2617 84.2162 69.0628C86.0977 70.8639 86.8652 78.2484 86.8652 79.16C86.8652 80.0717 86.8652 82.9202 87.5247 84.0174C87.5247 84.0174 91.2516 82.111 91.2516 81.5846C91.2516 81.0581 91.1407 76.4057 91.6894 76.1564L89.4976 69.0628L93.654 67.5859C94.4363 68.2877 95.1122 69.0998 95.6601 69.9966C94.3162 72.6844 92.8947 75.3168 92.867 75.6881Z" fill="#92E3A9"/>
<path opacity="0.4" d="M99.8575 108.878C100.04 107.215 100.586 103.264 100.933 100.798C100.509 102.723 99.8242 103.699 99.8242 103.699C99.8242 103.699 101.005 89.5672 101.121 88.7054C101.237 87.8437 102.429 83.9699 101.991 81.5703C102.573 82.9059 101.991 93.5379 101.991 95.5135C101.991 97.4892 100.716 106.597 100.75 108.129C100.775 109.238 101.963 116.301 102.709 119.463C101.107 117.135 99.6746 110.548 99.8575 108.878Z" fill="#92E3A9"/>
<path d="M104.477 127.275C103.601 124.754 100.788 109.652 100.755 108.128C100.722 106.604 101.997 97.4851 101.997 95.5122C101.997 93.5393 102.578 82.9045 101.997 81.5689C101.415 80.2334 98.5967 76.9859 96.8427 72.3335C96.1797 70.5143 95.0898 68.8808 93.6645 67.5703L89.5081 69.0472L91.6999 76.1407C91.1457 76.3901 91.2621 81.0425 91.2621 81.5689C91.2621 82.0954 87.5352 84.0018 87.5352 84.0018C86.8757 82.8934 86.8757 80.056 86.8757 79.1444C86.8757 78.2328 86.1082 70.8455 84.2267 69.0472C82.3453 67.2489 80.6246 67.6617 79.9706 69.4628C79.3167 71.2639 79.7517 75.121 79.9706 77.3156C80.2705 79.7826 80.3808 82.2689 80.3004 84.7527C80.1895 88.0557 80.0787 87.7287 80.5193 91.4556C80.9598 95.1824 80.9571 99.566 83.5867 103.293C86.2163 107.02 86.9866 112.83 87.973 115.352C87.973 115.352 89.8351 128.81 89.5968 131.002" stroke="#263238" stroke-linecap="round" stroke-linejoin="round"/>
<path d="M87.5273 84C87.5273 84 88.184 87.0674 89.6637 88.6025" stroke="#263238" stroke-linecap="round" stroke-linejoin="round"/>
<path d="M87.9258 85.3984C87.9258 85.3984 90.6967 86.2463 91.8549 86.299" stroke="#263238" stroke-linecap="round" stroke-linejoin="round"/>
<path d="M91.2539 81.5699C91.2539 81.5699 93.2268 80.6583 94.4876 81.2069" stroke="#263238" stroke-linecap="round" stroke-linejoin="round"/>
<path d="M91.6914 76.1432C91.6914 76.1432 93.2265 76.0019 93.5535 75.2344" stroke="#263238" stroke-linecap="round" stroke-linejoin="round"/>
<path d="M84.0859 104.078C84.0859 104.078 87.0342 107.739 87.9098 109.601" stroke="#263238" stroke-linecap="round" stroke-linejoin="round"/>
<path d="M101.227 88.0547C100.734 90.9614 100.074 98.9083 99.8555 100.333" stroke="#263238" stroke-linecap="round" stroke-linejoin="round"/>
<path d="M102.171 82.5781C102.254 85.2105 101.617 86.5793 101.617 86.5793" stroke="#263238" stroke-linecap="round" stroke-linejoin="round"/>
<path d="M79.506 45.7422L99.8224 51.1011C99.8224 51.1011 92.6817 72.7724 91.2325 75.4602L88.8108 94.3523C88.8108 94.3523 75.8318 93.7814 69.8633 91.9776C69.8633 91.9776 73.6373 72.3041 73.8395 69.6801C74.0418 67.056 79.506 45.7422 79.506 45.7422Z" fill="#92E3A9"/>
<path opacity="0.2" d="M75.1369 68.5199L79.6147 49.3757C79.6147 49.3757 81.5404 48.4197 82.2858 47.5469L96.8414 51.6866C96.8414 51.6866 96.8857 53.1136 97.7198 54.028L90.3741 75.195L88.5924 90.798C88.5924 90.798 86.2233 90.9864 85.9961 92.7376C85.9961 92.7376 78.3151 93.1533 73.164 91.7955C73.164 91.7955 72.5572 89.903 71.6289 88.706L75.1369 68.5199Z" fill="black" fill-opacity="0.7"/>
<path d="M75.1369 68.5199L79.6147 49.3757C79.6147 49.3757 81.5404 48.4197 82.2858 47.5469L96.8414 51.6866C96.8414 51.6866 96.8857 53.1136 97.7198 54.028L90.3741 75.195L88.5924 90.798C88.5924 90.798 86.2233 90.9864 85.9961 92.7376C85.9961 92.7376 78.3151 93.1533 73.164 91.7955C73.164 91.7955 72.5572 89.903 71.6289 88.706L75.1369 68.5199Z" stroke="#263238" stroke-linecap="round" stroke-linejoin="round"/>
<path d="M78.8631 69.5126C78.8631 69.5126 80.1848 64.525 84.8399 65.42C89.4951 66.315 86.8655 72.4609 86.8655 72.4609C86.8655 72.4609 86.8932 77.4208 83.1164 76.7364C79.8412 76.1434 78.0955 74.3451 78.8631 69.5126Z" fill="#92E3A9" stroke="#263238" stroke-linecap="round" stroke-linejoin="round"/>
<path d="M81.3839 51.1953C81.3839 51.1953 79.9763 56.8951 79.6133 57.9924" stroke="#263238" stroke-linecap="round" stroke-linejoin="round"/>
<path d="M82.5897 51.6875L81.7695 54.8131" stroke="#263238" stroke-linecap="round" stroke-linejoin="round"/>
<path d="M92.8677 53.8828L95.6691 54.8693L95.3615 55.7476H94.4859L92.6211 55.3098L92.8677 53.8828Z" fill="#92E3A9" stroke="#263238" stroke-linecap="round" stroke-linejoin="round"/>
<path d="M92.404 55.7422L94.4877 56.3989L94.9255 56.8367L94.4877 57.9894L92.0742 57.1664L92.404 55.7422Z" fill="#92E3A9" stroke="#263238" stroke-linecap="round" stroke-linejoin="round"/>
<path d="M92.0738 57.7188L94.4873 58.3838L94.1464 59.2538H92.869L91.6914 58.7606L92.0738 57.7188Z" fill="#92E3A9" stroke="#263238" stroke-linecap="round" stroke-linejoin="round"/>
<path d="M91.6896 59.25L93.5517 60.0175V60.5634L93.0862 61.004L91.3516 60.5108V59.577L91.6896 59.25Z" fill="#92E3A9" stroke="#263238" stroke-linecap="round" stroke-linejoin="round"/>
<path d="M93.2777 61.7286V62.5821C93.2921 62.6761 93.2843 62.7721 93.2549 62.8626C93.2256 62.953 93.1755 63.0354 93.1086 63.103C93.0398 63.1406 92.9626 63.1603 92.8842 63.1603C92.8058 63.1603 92.7286 63.1406 92.6597 63.103C92.5184 63.0365 92.3827 62.9368 92.2497 62.8786C91.8146 62.704 91.2798 62.9229 90.8642 62.6901C90.8642 62.1609 90.6785 61.3213 91.3325 61.3047C91.4405 61.313 93.2777 61.9226 93.2777 61.7286Z" fill="#92E3A9" stroke="#263238" stroke-linecap="round" stroke-linejoin="round"/>
<path d="M92.5089 63.862C92.488 64.0573 92.4528 64.2509 92.4036 64.4411C92.3427 64.6877 92.2235 64.962 91.9769 65.0285C91.8441 65.0506 91.7079 65.0392 91.5807 64.9953L90.0234 64.5852C90.0987 64.2936 90.1913 64.0068 90.3005 63.7262C90.5111 63.4186 90.4391 63.4242 90.8076 63.3992C91.4061 63.3743 91.8938 63.9368 92.5089 63.862Z" fill="#92E3A9" stroke="#263238" stroke-linecap="round" stroke-linejoin="round"/>
<path d="M87.2502 52.0781L86.3164 55.7496L86.7819 55.9685L87.9069 52.3497L87.2502 52.0781Z" fill="#92E3A9" stroke="#263238" stroke-linecap="round" stroke-linejoin="round"/>
<path d="M75.5505 76.7266L78.4267 77.4719L78.1939 78.3697L77.3211 78.4473L75.4258 78.1674L75.5505 76.7266Z" fill="#92E3A9" stroke="#263238" stroke-linecap="round" stroke-linejoin="round"/>
<path d="M75.2441 78.625L77.3749 79.1016L77.8515 79.5006L77.5135 80.6865L75.0391 80.0714L75.2441 78.625Z" fill="#92E3A9" stroke="#263238" stroke-linecap="round" stroke-linejoin="round"/>
<path d="M75.0867 80.625L77.5472 81.0794L77.2812 81.9744L76.0094 82.0853L74.793 81.6946L75.0867 80.625Z" fill="#92E3A9" stroke="#263238" stroke-linecap="round" stroke-linejoin="round"/>
<path d="M74.8349 82.1797L76.7579 82.7865L76.805 83.3324L76.3783 83.809L74.6077 83.4654L74.5273 82.5371L74.8349 82.1797Z" fill="#92E3A9" stroke="#263238" stroke-linecap="round" stroke-linejoin="round"/>
<path d="M76.6274 84.5123L76.7022 85.363C76.7249 85.4556 76.7255 85.5523 76.7038 85.6453C76.6822 85.7382 76.6389 85.8247 76.5775 85.8977C76.5123 85.941 76.4371 85.967 76.3591 85.9733C76.2811 85.9796 76.2027 85.966 76.1314 85.9338C75.9846 85.8811 75.8543 85.7924 75.7019 85.7481C75.2558 85.6096 74.7404 85.8728 74.3165 85.6761C74.2666 85.1496 74.0144 84.3294 74.6628 84.2657C74.7626 84.2601 76.644 84.7063 76.6274 84.5123Z" fill="#92E3A9" stroke="#263238" stroke-linecap="round" stroke-linejoin="round"/>
<path d="M76.0502 86.7051C76.0463 86.9066 76.0277 87.1076 75.9948 87.3064C75.9532 87.5558 75.859 87.8412 75.6207 87.9271C75.4898 87.9604 75.3526 87.9604 75.2217 87.9271L73.6367 87.65C73.6901 87.3522 73.7613 87.058 73.8501 86.7688C74.033 86.4446 73.9609 86.4557 74.3267 86.4003C74.9086 86.3144 75.4406 86.8325 76.0502 86.7051Z" fill="#92E3A9" stroke="#263238" stroke-linecap="round" stroke-linejoin="round"/>
<path d="M87.5273 89.3985C87.5273 89.3985 88.1868 82.0445 88.1868 81.3047" stroke="#263238" stroke-linecap="round" stroke-linejoin="round"/>
<path d="M86.2109 89.067C86.2109 89.067 86.488 85.2431 86.5379 84.5781" stroke="#263238" stroke-linecap="round" stroke-linejoin="round"/>
<path d="M81.0692 86.3047L80.1797 90.6578H81.0692L81.7148 86.3047H81.0692Z" fill="#92E3A9" stroke="#263238" stroke-linecap="round" stroke-linejoin="round"/>
<path opacity="0.2" d="M91.2811 75.3584C89.3581 74.9567 87.6429 74.3665 86.3738 73.5158C86.3738 73.5158 87.2938 76.1592 90.5551 80.6647L88.8012 94.3586C88.8012 94.3586 80.3305 93.9873 73.9297 92.8928C75.897 87.3509 79.4715 76.8492 79.0476 74.7682C78.474 71.9114 80.4995 68.5392 80.4995 68.5392C86.9031 67.3865 93.1127 62.5458 97.3744 58.4531C95.2047 64.8678 92.2426 73.4576 91.2811 75.3584Z" fill="black" fill-opacity="0.7"/>
<path d="M79.506 45.7422L99.8224 51.1011C99.8224 51.1011 92.6817 72.7724 91.2325 75.4602L88.8108 94.3523C88.8108 94.3523 75.8318 93.7814 69.8633 91.9776C69.8633 91.9776 73.6373 72.3041 73.8395 69.6801C74.0418 67.056 79.506 45.7422 79.506 45.7422Z" stroke="#263238" stroke-linecap="round" stroke-linejoin="round"/>
<path d="M90.7694 88.8794L87.9071 109.595C87.2698 108.24 85.5324 105.929 84.6346 104.773C84.3021 104.341 84.0805 104.072 84.0805 104.072L83.5734 103.291C80.9438 99.5641 80.9438 95.1805 80.506 91.4536C80.0682 87.7267 80.1763 88.0537 80.2871 84.7508C80.3677 82.2717 80.2584 79.79 79.9601 77.3275C79.7412 75.133 79.3034 71.2731 79.9601 69.4748C80.2815 68.5936 80.8607 68.045 81.5866 67.9286C82.3126 67.8122 83.2492 68.1447 84.2162 69.0591C86.0977 70.8574 86.8652 78.2447 86.8652 79.1563C86.8652 80.068 86.8652 82.9164 87.5247 84.0137C87.5247 83.9999 89.2925 87.3444 90.7694 88.8794Z" fill="white"/>
<path opacity="0.4" d="M83.3573 101.815C83.9558 102.58 84.3631 103.683 84.6346 104.774C84.3021 104.342 84.0805 104.073 84.0805 104.073L83.5734 103.292C80.9438 99.5652 80.9438 95.1816 80.506 91.4547C80.0682 87.7278 80.1763 88.0548 80.2871 84.7519C80.3677 82.2727 80.2584 79.7911 79.9601 77.3286C79.7412 75.1341 79.3034 71.2742 79.9601 69.4759C80.2815 68.5947 80.8607 68.0461 81.5866 67.9297C82.9721 68.3232 84.3576 69.7335 84.8397 72.147C85.671 76.1981 81.9219 72.9256 81.0546 76.3588C80.1873 79.792 81.4481 80.7174 81.9663 81.582C82.4844 82.4465 81.8222 84.3529 81.0546 86.9132C80.2871 89.4735 81.7141 99.712 83.3573 101.815Z" fill="#92E3A9"/>
<path d="M90.7721 88.8845C89.2925 87.3494 87.5274 84.0049 87.5274 84.0049C86.8679 82.8965 86.8679 80.0591 86.8679 79.1475C86.8679 78.2359 86.1004 70.8486 84.2189 69.0503C82.3375 67.252 80.6168 67.6649 79.9628 69.4659C79.3089 71.267 79.7439 75.1242 79.9628 77.3187C80.2627 79.7857 80.3729 82.272 80.2926 84.7558C80.1817 88.0588 80.0709 87.7318 80.5115 91.4587C80.952 95.1855 80.9493 99.5691 83.5789 103.296L84.0859 104.077C84.0859 104.077 87.0342 107.738 87.9098 109.6" stroke="#263238" stroke-linecap="round" stroke-linejoin="round"/>
<path d="M81.0703 80.1173C81.0703 80.1173 83.5835 78.8177 84.8415 78.9286" stroke="#263238" stroke-linecap="round" stroke-linejoin="round"/>
<path opacity="0.2" d="M42.6907 44.5761C42.6907 44.5761 36.3342 37.5768 35.8964 37.1473C35.4586 36.7178 35.1289 29.253 33.9207 25.9667C32.7126 22.6804 32.128 3.38379 32.128 3.38379C32.128 3.38379 30.978 1.95955 27.7361 2.72709C24.4941 3.49463 21.3159 2.06761 17.6998 4.15134C14.0838 6.23506 21.097 36.039 21.097 36.039L28.2154 58.7244L42.6907 44.5761Z" fill="black" fill-opacity="0.7"/>
<path d="M47.0589 44.6307C47.0589 44.6307 44.2104 62.8273 41.24 65.238C39.5248 66.6235 36.8509 67.2608 34.479 67.1776C32.761 67.1167 31.1982 66.6844 30.2783 65.9002C28.0865 64.0354 25.0135 63.049 23.484 61.8436C21.9545 60.6383 21.9489 56.3628 20.9625 52.744C19.976 49.1252 18.549 49.0171 18.222 45.4011C17.8951 41.785 16.5761 30.7152 14.1931 27.6423C11.8102 24.5694 11.7547 22.1614 10.7683 19.0359C9.78185 15.9103 2.56641 4.60218 2.56641 4.60218L20.1561 1C20.1561 1 21.8852 8.15726 23.7362 13.9956C24.6145 16.7665 25.5206 19.2437 26.2799 20.5127C27.7377 22.9675 29.0005 25.5329 30.0566 28.1854C32.0461 30.2691 33.1351 34.8855 33.4648 38.9282L38.1754 41.555C41.7969 42.5442 47.0589 44.6307 47.0589 44.6307Z" fill="white"/>
<path opacity="0.4" d="M47.0596 44.6296C47.0596 44.6296 44.2111 62.8262 41.2407 65.2369C39.5255 66.6224 36.8516 67.2597 34.4797 67.1765C28.8548 65.7911 27.3418 62.6544 26.5798 61.8952C25.5657 60.8838 24.2329 54.7213 24.9644 51.1357C25.6959 47.5502 25.1694 46.2229 24.5654 44.4717C23.227 40.5924 27.3086 38.5032 27.7298 37.0346C28.1509 35.566 28.0069 27.353 26.1697 24.6819C25.1944 23.2604 22.6812 15.9341 23.7397 14C24.618 16.7709 25.5241 19.2481 26.2834 20.5172C27.7412 22.9719 29.004 25.5373 30.0601 28.1898C32.0496 30.2736 33.1386 34.8899 33.4683 38.9326L38.1789 41.5595C41.7977 42.5431 47.0596 44.6296 47.0596 44.6296Z" fill="#92E3A9"/>
<path d="M25.5785 43.3516C25.5785 43.3516 24.5865 44.5181 23.7109 44.5181" stroke="#263238" stroke-linecap="round" stroke-linejoin="round"/>
<path d="M27.7358 47.2969C27.7358 47.2969 26.669 49.5635 24.9648 50.0678" stroke="#263238" stroke-linecap="round" stroke-linejoin="round"/>
<path d="M25.8438 60.5771C25.8438 60.5771 28.2572 59.5352 28.6396 57.7812" stroke="#263238" stroke-linecap="round" stroke-linejoin="round"/>
<path d="M38.1822 41.5547C38.1822 41.5547 37.5781 42.3222 37.5781 42.9401" stroke="#263238" stroke-linecap="round" stroke-linejoin="round"/>
<path d="M20.1672 1C20.1672 1 23.9301 16.5642 26.2909 20.5238C27.7488 22.9786 29.0116 25.544 30.0677 28.1965C32.0572 30.2802 33.1462 34.8993 33.4759 38.9421L38.1864 41.5689C41.8025 42.5553 47.0534 44.6391 47.0534 44.6391C47.0534 44.6391 44.2049 62.8356 41.2344 65.2463C38.264 67.657 32.4922 67.7568 30.2755 65.8947C28.0588 64.0327 25.0108 63.0434 23.4812 61.8381C21.9517 60.6328 21.9461 56.3572 20.9597 52.7384C19.9733 49.1196 18.5462 49.0116 18.2193 45.3955C17.8923 41.7795 16.5734 30.7097 14.1904 27.6368C11.8074 24.5638 11.752 22.1559 10.7655 19.0303C9.77908 15.9047 2.56641 4.60218 2.56641 4.60218" stroke="#263238" stroke-linecap="round" stroke-linejoin="round"/>
<path d="M53.7246 43.4531L24.6328 88.2338L31.4991 88.9986L52.3613 89.8659L54.4977 50.034L53.7246 43.4531Z" fill="#263238" stroke="#263238" stroke-linecap="round" stroke-linejoin="round"/>
<path d="M53.7246 43.4491L51.0368 89.0999L24.6328 88.2326L26.7165 53.2526L27.3649 42.3906L38.8697 42.8534L53.7246 43.4491Z" fill="#757575"/>
<path d="M47.0814 83.8426C48.8566 83.8426 50.2957 82.4035 50.2957 80.6283C50.2957 78.8531 48.8566 77.4141 47.0814 77.4141C45.3063 77.4141 43.8672 78.8531 43.8672 80.6283C43.8672 82.4035 45.3063 83.8426 47.0814 83.8426Z" fill="#BFBFBF" stroke="#263238" stroke-miterlimit="10"/>
<path d="M46.1758 78.4922L48.3537 78.7776" stroke="#263238" stroke-linecap="round" stroke-linejoin="round"/>
<path d="M45.5938 79.0234L48.8662 79.3421" stroke="#263238" stroke-linecap="round" stroke-linejoin="round"/>
<path d="M45.2305 82.25L48.5057 82.5687" stroke="#263238" stroke-linecap="round" stroke-linejoin="round"/>
<path d="M46.6628 79.7544C46.7527 79.7768 46.8478 79.7637 46.9284 79.7178C47.0089 79.6718 47.0686 79.5966 47.0951 79.5078L47.3389 79.5328L47.0923 81.8465L46.7293 81.8077L46.9177 80.0426L46.6406 80.0121L46.6628 79.7544Z" fill="#263238"/>
<path d="M47.8742 79.8488C48.0183 79.8488 48.0848 79.9568 48.0682 80.1092V80.1369L47.9268 80.1231V80.0981C47.9268 80.0316 47.9102 80.0012 47.8631 79.9956C47.816 79.9901 47.7855 80.015 47.78 80.0815C47.7744 80.148 47.7966 80.2062 47.8853 80.3004C47.9303 80.3385 47.9656 80.3868 47.9882 80.4412C48.0109 80.4957 48.0202 80.5547 48.0155 80.6135C47.9989 80.7659 47.9158 80.8435 47.7689 80.8269C47.622 80.8103 47.5583 80.7161 47.5722 80.5664V80.5082L47.7107 80.5221V80.5914C47.7107 80.6579 47.7301 80.6856 47.7772 80.6911C47.8243 80.6967 47.8576 80.6745 47.8631 80.608C47.8687 80.5415 47.8465 80.4833 47.7578 80.3891C47.7128 80.351 47.6775 80.3027 47.6549 80.2483C47.6322 80.1938 47.6229 80.1348 47.6276 80.076C47.647 79.9097 47.7329 79.8211 47.8742 79.8488Z" fill="#263238"/>
<path d="M48.1349 79.8906L48.5949 79.9377L48.5783 80.0735L48.4231 80.0569L48.3372 80.866L48.1904 80.8521L48.2763 80.0403L48.1211 80.0236L48.1349 79.8906Z" fill="#263238"/>
<path d="M40.3447 45.4743L35.1902 44.3495C35.0571 44.3204 34.9257 44.4047 34.8966 44.5378L34.1954 47.7513C34.1664 47.8843 34.2507 48.0157 34.3838 48.0448L39.5383 49.1696C39.6714 49.1986 39.8028 49.1143 39.8318 48.9812L40.533 45.7678C40.5621 45.6347 40.4777 45.5033 40.3447 45.4743Z" fill="white" stroke="#263238" stroke-linecap="round" stroke-linejoin="round"/>
<path d="M36.856 47.4778C36.8548 47.4556 36.8491 47.434 36.8394 47.4141C36.8367 47.4031 36.8367 47.3917 36.8394 47.3808C36.8436 47.3725 36.8504 47.3657 36.8588 47.3614C36.9336 47.2949 36.8421 47.2062 36.7701 47.1896C36.7452 47.1834 36.7191 47.1837 36.6944 47.1905C36.6696 47.1973 36.647 47.2104 36.6288 47.2284L36.687 47.0123L36.9419 47.0677L36.9696 46.9347L36.5872 46.8516C36.5791 46.8701 36.5735 46.8897 36.5706 46.9098C36.5706 46.9291 36.5955 46.9347 36.5955 46.9569C36.5955 46.979 36.5955 46.9763 36.5955 46.9873C36.6006 47.0036 36.6114 47.0174 36.626 47.0261C36.6399 47.0261 36.6537 47.0511 36.6509 47.0677C36.6528 47.0731 36.6528 47.0789 36.6509 47.0843C36.6404 47.1098 36.622 47.1312 36.5983 47.1453C36.5874 47.1474 36.5776 47.1533 36.5706 47.1619V47.1785C36.5706 47.1979 36.5484 47.209 36.5318 47.2201C36.5152 47.2312 36.4736 47.3198 36.457 47.3808L36.5955 47.4113V47.3836C36.6094 47.3171 36.6454 47.3004 36.6897 47.3088C36.7341 47.3171 36.7618 47.3503 36.7452 47.4168L36.7008 47.6219C36.7008 47.6856 36.6537 47.705 36.6066 47.6939C36.5595 47.6828 36.5373 47.6551 36.5512 47.5886L36.5706 47.5027L36.432 47.4722L36.4154 47.5498C36.4047 47.5799 36.4005 47.6119 36.4031 47.6437C36.4057 47.6755 36.4151 47.7064 36.4306 47.7343C36.4461 47.7622 36.4674 47.7865 36.493 47.8055C36.5187 47.8246 36.5481 47.8379 36.5793 47.8447C36.6105 47.8514 36.6428 47.8514 36.674 47.8447C36.7052 47.838 36.7346 47.8247 36.7603 47.8057C36.7859 47.7867 36.8073 47.7625 36.8228 47.7346C36.8384 47.7067 36.8478 47.6759 36.8504 47.644C36.8603 47.5892 36.8622 47.5332 36.856 47.4778Z" fill="#263238"/>
<path d="M38.6652 47.8606C38.6626 47.8387 38.657 47.8172 38.6485 47.7969C38.6458 47.786 38.6458 47.7745 38.6485 47.7636C38.6528 47.7553 38.6596 47.7485 38.6679 47.7442C38.74 47.6777 38.6485 47.5891 38.5793 47.5724C38.5544 47.5662 38.5283 47.5665 38.5035 47.5733C38.4788 47.5801 38.4562 47.5932 38.438 47.6112L38.4961 47.3951L38.7511 47.4505L38.7788 47.3175L38.3964 47.2344C38.3871 47.2525 38.3814 47.2723 38.3798 47.2926C38.3798 47.312 38.4019 47.3175 38.4047 47.3397C38.4075 47.3618 38.4047 47.3591 38.4047 47.3702C38.4098 47.3864 38.4206 47.4002 38.4352 47.4089C38.449 47.4089 38.4629 47.4339 38.4601 47.4505C38.4573 47.4671 38.4601 47.4505 38.4601 47.4671C38.4495 47.4934 38.4298 47.515 38.4047 47.5281C38.3949 47.5309 38.3862 47.5368 38.3798 47.5447C38.3798 47.5447 38.3798 47.5447 38.3798 47.5613C38.3798 47.578 38.3604 47.5918 38.3437 47.6029C38.3271 47.614 38.2856 47.7027 38.2689 47.7636L38.4075 47.7941V47.7664C38.4213 47.6999 38.4573 47.6833 38.5017 47.6916C38.546 47.6999 38.571 47.7331 38.5571 47.7996L38.5128 48.0047C38.5128 48.0684 38.4657 48.0878 38.4186 48.0767C38.3714 48.0657 38.3493 48.0379 38.3631 47.9714L38.3825 47.8855L38.244 47.8551L38.2274 47.9326C38.219 47.9618 38.2167 47.9923 38.2206 48.0224C38.2245 48.0525 38.2346 48.0814 38.2501 48.1075C38.2656 48.1335 38.2864 48.1561 38.311 48.1738C38.3356 48.1915 38.3636 48.204 38.3932 48.2104C38.4228 48.2169 38.4535 48.2172 38.4832 48.2113C38.513 48.2055 38.5412 48.1936 38.5662 48.1764C38.5912 48.1592 38.6123 48.137 38.6284 48.1113C38.6445 48.0856 38.6551 48.0568 38.6596 48.0269C38.6707 47.9721 38.6726 47.9159 38.6652 47.8606V47.8606Z" fill="#263238"/>
<path d="M37.8547 47.6566H37.8685C37.8685 47.6428 37.8685 47.6289 37.8685 47.6095H37.9295L37.9766 47.3962C37.9873 47.3658 37.9913 47.3336 37.9886 47.3016C37.9859 47.2695 37.9763 47.2384 37.9607 47.2104C37.945 47.1823 37.9236 47.1578 37.8978 47.1387C37.872 47.1195 37.8425 47.106 37.8111 47.0991C37.7797 47.0922 37.7472 47.092 37.7157 47.0986C37.6842 47.1051 37.6545 47.1183 37.6285 47.1372C37.6025 47.1562 37.5808 47.1804 37.5649 47.2083C37.549 47.2362 37.5391 47.2672 37.536 47.2992V47.338C37.5554 47.3546 37.5665 47.3823 37.5859 47.3962C37.6053 47.41 37.6358 47.3962 37.6275 47.4433C37.6192 47.4904 37.6109 47.4821 37.6275 47.4959C37.6441 47.5098 37.6469 47.4959 37.6496 47.5153C37.653 47.5197 37.6548 47.525 37.6548 47.5306C37.6548 47.5361 37.653 47.5414 37.6496 47.5458C37.6496 47.5458 37.6303 47.5458 37.6275 47.5707C37.6247 47.5957 37.6275 47.6123 37.6109 47.6178C37.5942 47.6234 37.5582 47.5846 37.5277 47.5874C37.5168 47.5905 37.5069 47.5966 37.4991 47.6049C37.4913 47.6132 37.4859 47.6234 37.4834 47.6345C37.4693 47.6816 37.4591 47.7298 37.4529 47.7786C37.4428 47.8079 37.4393 47.8391 37.4426 47.8699C37.446 47.9007 37.4561 47.9304 37.4722 47.9569C37.4884 47.9834 37.5102 48.0059 37.536 48.023C37.5619 48.0401 37.5912 48.0512 37.6219 48.0557C37.6534 48.0641 37.6864 48.0655 37.7185 48.0598C37.7506 48.054 37.781 48.0413 37.8076 48.0224C37.8321 48.0012 37.8528 47.9759 37.8685 47.9476C37.881 47.9334 37.8879 47.9152 37.8879 47.8963C37.8879 47.8775 37.881 47.8592 37.8685 47.8451C37.8685 47.8451 37.8685 47.8451 37.8685 47.8451H37.8547L37.8353 47.7786C37.8353 47.7786 37.8353 47.7786 37.8547 47.7619C37.8741 47.7453 37.8547 47.7093 37.8824 47.6899C37.9101 47.6705 37.8492 47.6622 37.8547 47.6566ZM37.7383 47.8451C37.7245 47.9116 37.6884 47.931 37.6413 47.9199C37.5942 47.9088 37.5721 47.8783 37.5859 47.8118L37.6968 47.313C37.7106 47.2465 37.7439 47.2272 37.791 47.2382C37.8381 47.2493 37.8602 47.2798 37.8464 47.3463L37.7383 47.8451Z" fill="#263238"/>
<path d="M38.1015 47.9992L38.071 48.1405L37.9297 48.1101L37.9602 47.9688L38.1015 47.9992Z" fill="#263238"/>
<path d="M39.2585 47.7555C39.2752 47.7555 39.2752 47.6918 39.2807 47.6696C39.2913 47.6393 39.2954 47.607 39.2927 47.575C39.2899 47.543 39.2804 47.5119 39.2648 47.4838C39.2491 47.4557 39.2277 47.4313 39.2019 47.4121C39.1761 47.3929 39.1465 47.3794 39.1151 47.3725C39.0837 47.3656 39.0512 47.3654 39.0198 47.372C38.9883 47.3786 38.9586 47.3918 38.9326 47.4107C38.9066 47.4296 38.8849 47.4538 38.869 47.4817C38.853 47.5096 38.8432 47.5406 38.8401 47.5726L38.7986 47.7583C38.8346 47.7915 38.7986 47.8442 38.8152 47.883C38.8318 47.9218 38.8152 47.883 38.8152 47.8996C38.8152 47.9162 38.7736 47.9245 38.7736 47.9467C38.7736 47.9689 38.7736 47.9467 38.7736 47.9467C38.7736 47.9467 38.7515 47.98 38.7376 47.9966C38.7289 48.0097 38.7241 48.0251 38.7237 48.0409C38.7131 48.0713 38.709 48.1035 38.7118 48.1355C38.7145 48.1676 38.724 48.1986 38.7397 48.2267C38.7553 48.2548 38.7767 48.2792 38.8025 48.2984C38.8283 48.3176 38.8579 48.3311 38.8893 48.338C38.9207 48.3449 38.9532 48.3451 38.9847 48.3385C39.0161 48.3319 39.0459 48.3188 39.0718 48.2998C39.0978 48.2809 39.1195 48.2567 39.1355 48.2288C39.1514 48.2009 39.1612 48.1699 39.1643 48.1379L39.1976 47.9855C39.1976 47.9467 39.2474 47.8442 39.1976 47.8137C39.1477 47.7832 39.1754 47.8137 39.1699 47.7943C39.1665 47.7879 39.1647 47.7808 39.1647 47.7735C39.1647 47.7663 39.1665 47.7591 39.1699 47.7527C39.2031 47.725 39.2281 47.7721 39.2585 47.7555ZM39.0895 47.9993C39.0895 48.016 39.0618 48.0215 39.0479 48.0437C39.0373 48.0712 39.0307 48.1002 39.0285 48.1296C39.0147 48.1961 38.9787 48.2127 38.9343 48.2044C38.89 48.1961 38.8623 48.1628 38.8789 48.0963C38.8789 48.0769 38.9039 48.0215 38.8983 48.0049C38.8928 47.9883 38.8706 48.0049 38.8595 47.9716C38.8512 47.9427 38.8512 47.9119 38.8595 47.883C38.8609 47.8766 38.8609 47.87 38.8595 47.8636C38.8595 47.8636 38.8457 47.8386 38.8595 47.8276C38.8734 47.8165 38.8595 47.8276 38.8595 47.8276C38.8595 47.8276 38.8595 47.7915 38.8595 47.7666C38.8595 47.7417 38.8595 47.7666 38.8595 47.7666C38.9482 47.7998 38.9454 47.6641 38.9593 47.6087C38.9731 47.5532 39.0091 47.5228 39.0535 47.5338C39.0978 47.5449 39.1228 47.5754 39.1089 47.6391C39.0901 47.6956 39.0789 47.7543 39.0757 47.8137C39.0872 47.8155 39.0979 47.8211 39.1059 47.8296C39.1139 47.8382 39.1189 47.8491 39.12 47.8608C39.1172 47.8755 39.1172 47.8905 39.12 47.9051C39.12 47.9051 39.12 47.9301 39.12 47.9412C39.12 47.9522 39.1034 47.9412 39.0923 47.9412C39.0846 47.9442 39.0778 47.9491 39.0725 47.9553C39.0672 47.9616 39.0635 47.9691 39.0618 47.9772L39.0895 47.9993Z" fill="#263238"/>
<path d="M37.7109 45.7422L38.6475 45.9472" stroke="#263238" stroke-linecap="round" stroke-linejoin="round"/>
<path d="M35.582 45.2734L37.2446 45.6392" stroke="#263238" stroke-linecap="round" stroke-linejoin="round"/>
<path d="M35.4414 45.9141L36.5387 46.1524" stroke="#263238" stroke-linecap="round" stroke-linejoin="round"/>
<path opacity="0.4" d="M25.8398 87.8294C27.2959 87.4484 28.7932 87.2474 30.2982 87.2308C33.0026 87.1643 34.7317 87.677 36.9484 86.5797C39.1651 85.4824 40.6032 87.458 42.723 86.3608C44.8427 85.2635 45.8264 83.5067 47.0512 83.5455C48.2759 83.5843 50.0992 63.958 50.6866 60.5802C51.274 57.2025 52.5237 47.7869 52.9532 45.875L50.5397 88.4279L25.8398 87.8294Z" fill="white"/>
<path d="M25.9577 79.4531L32.716 87.6744L25.5781 87.2311L25.9577 79.4531Z" fill="#92E3A9" stroke="#263238" stroke-linecap="round" stroke-linejoin="round"/>
<path d="M43.8941 63.1978L43.7861 66.3261C43.771 66.7626 43.6702 67.1919 43.4892 67.5894C43.3083 67.9869 43.0508 68.3449 42.7314 68.6429C42.4121 68.9408 42.0372 69.173 41.6281 69.326C41.2191 69.4791 40.7839 69.55 40.3474 69.5349L37.1331 69.4212C36.6954 69.4062 36.265 69.3049 35.8665 69.1231C35.4681 68.9413 35.1095 68.6825 34.8113 68.3617C34.5132 68.0409 34.2813 67.6644 34.1291 67.2537C33.9769 66.843 33.9073 66.4063 33.9244 65.9687L34.0685 61.8955C34.0995 61.0144 34.4792 60.1817 35.1241 59.5805C35.7689 58.9793 36.6261 58.6588 37.5072 58.6895L40.7214 58.8004C40.8101 58.8004 40.8988 58.8004 40.9985 58.8197C40.5487 59.2524 40.2648 59.829 40.1962 60.4493C40.1275 61.0696 40.2785 61.6943 40.6227 62.2149C40.967 62.7354 41.4829 63.1188 42.0805 63.2984C42.6782 63.478 43.32 63.4424 43.8941 63.1978V63.1978Z" fill="#92E3A9" stroke="#263238" stroke-linecap="round" stroke-linejoin="round"/>
<path d="M44.4713 60.4939C44.4613 60.7946 44.3623 61.0856 44.1868 61.3301C44.0113 61.5746 43.7673 61.7615 43.4856 61.8673C43.2039 61.973 42.8971 61.9929 42.6041 61.9243C42.3112 61.8557 42.0451 61.7017 41.8396 61.4819C41.6341 61.2621 41.4984 60.9862 41.4497 60.6893C41.401 60.3923 41.4415 60.0876 41.566 59.8137C41.6905 59.5397 41.8935 59.3089 42.1492 59.1503C42.405 58.9917 42.702 58.9125 43.0027 58.9228C43.4055 58.9372 43.7862 59.1106 44.0614 59.4051C44.3366 59.6995 44.484 60.091 44.4713 60.4939V60.4939Z" fill="#92E3A9" stroke="#263238" stroke-linecap="round" stroke-linejoin="round"/>
<path opacity="0.4" d="M34.8398 66.3572L39.5642 62.3173C39.5642 62.3173 38.9657 60.1532 39.5642 59.4688H37.2949C36.7483 59.467 36.2218 59.6739 35.8226 60.0472C35.4235 60.4206 35.182 60.9322 35.1474 61.4777L34.8398 66.3572Z" fill="white"/>
<path opacity="0.4" d="M42.3106 60.578L43.322 59.4697C43.322 59.4697 42.693 59.0457 42.3106 59.4697C41.9282 59.8936 42.3106 60.578 42.3106 60.578Z" fill="white"/>
<path d="M41.8164 84.7188L49.4336 85.0485" stroke="#263238" stroke-linecap="round" stroke-linejoin="round"/>
<path d="M39.1797 85.4844L49.4348 86.033" stroke="#263238" stroke-linecap="round" stroke-linejoin="round"/>
<path d="M46.7461 87.6719H49.4311" stroke="#263238" stroke-linecap="round" stroke-linejoin="round"/>
<path opacity="0.2" d="M37.4133 59.6977C33.4842 61.5875 29.2281 54.9678 27.7373 54.0562C27.3698 53.8241 27.0272 53.5549 26.7148 53.2526L27.3632 42.3906L38.8653 42.8534C38.7905 44.4716 38.8154 46.2588 39.1756 47.2868C39.9515 49.5285 41.3397 57.8107 37.4133 59.6977Z" fill="black" fill-opacity="0.7"/>
<path opacity="0.4" d="M33.0078 60.0389C33.0078 60.0389 36.15 61.4022 37.5743 60.5931C38.9985 59.784 40.5336 58.2378 40.7525 54.8047C40.7525 54.8047 42.6229 59.6399 38.8517 61.0891C35.0805 62.5383 33.0078 60.0389 33.0078 60.0389Z" fill="white"/>
<path opacity="0.4" d="M31.7852 61.9714C31.7852 61.9714 38.1582 63.6838 40.8848 60.5859C40.8848 60.5859 40.5191 62.3067 37.5764 62.8027C34.6337 63.2987 31.7852 61.9714 31.7852 61.9714Z" fill="white"/>
<path opacity="0.4" d="M42.0339 50.9029C41.5489 50.0411 42.1447 57.7858 42.1447 57.7858C42.1447 57.7858 43.0203 52.6707 42.0339 50.9029Z" fill="white"/>
<path d="M53.7246 43.4491L51.0368 89.0999L24.6328 88.2326L26.7165 53.2526L27.3649 42.3906L38.8697 42.8534L53.7246 43.4491Z" stroke="#263238" stroke-linecap="round" stroke-linejoin="round"/>
<path opacity="0.4" d="M52.3873 89.3454L51.4258 89.1016L53.7229 47.2969L54.1302 50.0567L52.3873 89.3454Z" fill="white"/>
<path d="M37.4131 59.6991C37.0497 59.8922 36.6457 59.9961 36.2343 60.0024C35.8228 60.0086 35.4158 59.917 35.0467 59.7351C34.408 59.3999 33.8926 58.87 33.5754 58.2222C32.4809 56.2493 29.5188 51.7549 28.9729 50.4636C28.427 49.1724 27.2189 45.5203 26.0136 43.988C24.8082 42.4557 24.1487 40.1503 24.1487 40.1503L23.7109 17.7891C24.3676 21.0227 26.177 24.6942 26.177 24.6942C27.7491 25.5122 29.0848 26.7201 30.0563 28.2021C30.3391 28.5033 30.5924 28.8308 30.8128 29.1803C32.6028 31.9512 33.4701 36.9388 33.5643 40.8181C33.6751 45.2044 35.0994 47.1912 37.402 51.0123C39.7046 54.8334 38.9094 58.8484 37.4131 59.6991Z" fill="white"/>
<path opacity="0.4" d="M37.4134 59.6934C37.0486 59.8819 36.6451 59.9832 36.2345 59.9894C35.8239 59.9957 35.4175 59.9067 35.0471 59.7295C36.3051 59.3859 37.9565 58.7403 37.5769 57.7898C36.9812 56.2714 35.2383 58.5241 34.3627 57.7898C33.4871 57.0555 30.3061 52.8438 32.3261 50.99C34.346 49.1363 33.7115 46.0273 32.3261 45.1517C30.9406 44.2761 31.8411 42.1896 32.2789 38.9061C32.556 36.9193 31.6056 32.4194 30.8242 29.1719C32.6142 31.9428 33.4815 36.9304 33.5757 40.8097C33.6866 45.196 35.1108 47.1828 37.4134 51.0039C39.7161 54.825 38.9097 58.8954 37.4134 59.6934Z" fill="#92E3A9"/>
<path d="M23.7109 17.7734C24.3676 21.0071 26.177 24.6785 26.177 24.6785C27.7491 25.4966 29.0848 26.7044 30.0563 28.1865C32.3589 30.5972 33.4562 36.4078 33.5643 40.7914C33.6724 45.175 35.0994 47.1645 37.402 50.9856C39.7046 54.8066 39.0645 58.7912 37.402 59.6973C36.2438 60.3318 34.6616 60.1933 33.5643 58.2204C32.467 56.2475 29.5077 51.7531 28.9618 50.4619C28.4159 49.1706 27.2078 45.5186 26.0025 43.9862C24.7971 42.4539 24.1377 40.1485 24.1377 40.1485" stroke="#263238" stroke-linecap="round" stroke-linejoin="round"/>
<path d="M30.8281 50.05C30.8281 50.05 32.6181 49.8893 33.4383 49.2188" stroke="#263238" stroke-linecap="round" stroke-linejoin="round"/>
<path d="M23.4915 40.5859C23.4915 40.5859 23.1424 41.4172 24.9712 42.2485" stroke="#263238" stroke-linecap="round" stroke-linejoin="round"/>
</svg>
