<svg width="60" height="60" viewBox="0 0 60 60" fill="none" xmlns="http://www.w3.org/2000/svg">
<path d="M32.6834 8.69669C31.1204 6.12669 28.8524 4.03169 26.1484 2.67969" stroke="#252525" stroke-width="2" stroke-miterlimit="10"/>
<path d="M15 20C15 21.657 16.791 23 19 23C21.209 23 23 21.657 23 20C23 18.343 21.209 17 19 17C16.791 17 15 15.657 15 14C15 12.343 16.791 11 19 11C21.209 11 23 12.343 23 14" stroke="#252525" stroke-width="2" stroke-miterlimit="10"/>
<path d="M19 11V8" stroke="#252525" stroke-width="2" stroke-miterlimit="10"/>
<path d="M19 26V23" stroke="#252525" stroke-width="2" stroke-miterlimit="10"/>
<path d="M57 32H51C49.895 32 49 32.895 49 34V55C49 56.105 49.895 57 51 57H57" stroke="#252525" stroke-width="2" stroke-miterlimit="10"/>
<path d="M54 35H52V37H54V35Z" fill="#252525"/>
<path d="M49 36H46.243C45.447 36 44.684 35.684 44.122 35.121L32.243 23.243C31.447 22.447 30.368 22 29.243 22C26.9 22 25 23.9 25 26.243C25 27.368 25.447 28.447 26.243 29.243L31.172 34.172C31.702 34.702 32 35.422 32 36.172C32 37.734 30.734 39 29.172 39H24.721C23.596 39 22.495 38.684 21.541 38.088L16.579 34.987C15.561 34.351 14.806 33.369 14.451 32.222L10.821 20.46C10.369 18.997 9.018 18 7.488 18C5.562 18 4 19.562 4 21.488C4 21.766 4.032 22.043 4.095 22.314L7.555 37.1C7.847 38.349 8.436 39.51 9.271 40.484L17.606 50.208C19.125 51.979 21.344 53 23.679 53H49" stroke="#252525" stroke-width="2" stroke-miterlimit="10"/>
<path d="M29.889 22.049C30.602 20.514 31 18.804 31 17C31 10.373 25.627 5 19 5C12.373 5 7 10.373 7 17C7 17.347 7.015 17.69 7.043 18.029" stroke="#252525" stroke-width="2" stroke-miterlimit="10"/>
<path d="M12.9531 27.3655C14.7281 28.4035 16.7951 28.9985 19.0001 28.9985C21.2431 28.9985 23.3421 28.3835 25.1381 27.3125" stroke="#252525" stroke-width="2" stroke-miterlimit="10"/>
</svg>
