<svg width="36" height="36" viewBox="0 0 36 36" fill="none" xmlns="http://www.w3.org/2000/svg">
<path d="M31.898 23.938C31.3 17.32 28 14 28 14L22 6H14L8 14C8 14 6.581 15.433 5.433 18.275C3.444 18.935 2 20.789 2 23C2 24.448 2.625 25.742 3.609 26.655C3.233 27.357 3 28.147 3 29C3 30.958 4.136 32.636 5.775 33.456C7.058 35.378 8.772 36 10 36H26C27.379 36 29.373 35.221 30.678 32.69C32.609 31.999 34 30.17 34 28C34 26.322 33.166 24.846 31.898 23.938ZM18 6C18.55 6 19.058 5.842 19.5 5.584C19.943 5.842 20.451 6 21 6C22.657 6 25 3.656 25 2C25 2 25 0 23 0C22.212 0 22 1 21 1C20 1 20 0 18 0C16 0 16 1 15 1C14 1 13.789 0 13 0C11 0 11 2 11 2C11 3.656 13.344 6 15 6C15.549 6 16.057 5.842 16.5 5.584C16.943 5.842 17.451 6 18 6Z" fill="#FDD888"/>
<path d="M24 6C24 6.552 23.553 7 23 7H13C12.448 7 12 6.552 12 6C12 5.448 12.448 5 13 5H23C23.553 5 24 5.448 24 6Z" fill="#BF6952"/>
<path d="M23.902 24.542C23.902 20.065 15.321 20.357 15.321 17.656C15.321 16.348 16.622 15.709 18.132 15.709C20.67 15.709 21.122 17.278 22.271 17.278C23.084 17.278 23.476 16.785 23.476 16.232C23.476 14.948 21.452 13.976 19.511 13.64V12.4C19.511 11.627 18.861 11 18.057 11C17.252 11 16.601 11.627 16.601 12.4V13.683C14.485 14.146 12.664 15.558 12.664 17.859C12.664 22.158 21.243 21.984 21.243 25.004C21.243 26.051 20.065 27.097 18.132 27.097C15.231 27.097 14.265 25.208 13.087 25.208C12.513 25.208 12 25.672 12 26.372C12 27.485 13.938 28.823 16.603 29.196L16.602 29.206V30.604C16.602 31.376 17.254 32.004 18.058 32.004C18.862 32.004 19.513 31.376 19.513 30.604V29.206C19.513 29.189 19.505 29.176 19.504 29.161C21.902 28.731 23.902 27.229 23.902 24.542Z" fill="#67757F"/>
</svg>
