<svg width="36" height="36" viewBox="0 0 36 36" fill="none" xmlns="http://www.w3.org/2000/svg">
<path d="M34 13C34 14.104 33.104 15 32 15H26C24.896 15 24 14.104 24 13V11C24 9.896 24.896 9 26 9H32C33.104 9 34 9.896 34 11V13ZM12 13C12 14.104 11.104 15 10 15H4C2.896 15 2 14.104 2 13V11C2 9.896 2.896 9 4 9H10C11.104 9 12 9.896 12 11V13Z" fill="#DAC8B1"/>
<path d="M36 34C36 35.104 35.104 36 34 36H2C0.896 36 0 35.104 0 34V13C0 11.896 0.896 11 2 11H34C35.104 11 36 11.896 36 13V34Z" fill="#F1DCC1"/>
<path d="M22 9V7C22 6.262 21.596 5.624 21 5.277V5C21 3.896 20.104 3 19 3H17C15.896 3 15 3.896 15 5V5.277C14.405 5.624 14 6.262 14 7V9H13V36H23V9H22Z" fill="#DAC8B1"/>
<path d="M14 7H16V9H14V7ZM20 7H22V9H20V7ZM17 7H19V9H17V7Z" fill="#55ACEE"/>
<path d="M15 15H17V29H15V15ZM19 15H21V29H19V15Z" fill="#3B88C3"/>
<path d="M24 17H26V29H24V17ZM28 17H30V29H28V17ZM32 17H34V29H32V17ZM2 17H4V29H2V17ZM6 17H8V29H6V17ZM10 17H12V29H10V17ZM2 30H4V32H2V30ZM6 30H8V32H6V30ZM10 30H12V32H10V30Z" fill="#55ACEE"/>
<path d="M15 30H17V32H15V30ZM19 30H21V32H19V30Z" fill="#3B88C3"/>
<path d="M24 30H26V32H24V30ZM28 30H30V32H28V30ZM32 30H34V32H32V30Z" fill="#55ACEE"/>
<path d="M2 33H4V36H2V33ZM6 33H8V36H6V33ZM10 33H12V36H10V33ZM15 33H17V36H15V33ZM19 33H21V36H19V33ZM24 33H26V36H24V33ZM28 33H30V36H28V33ZM32 33H34V36H32V33Z" fill="#66757F"/>
</svg>
