<svg width="512" height="512" viewBox="0 0 512 512" fill="none" xmlns="http://www.w3.org/2000/svg">
<g clip-path="url(#clip0_9191_62324)">
<path d="M146.405 0H0V512H146.405V0Z" fill="#269AF2"/>
<path d="M512.001 0H365.596V512H512.001V0Z" fill="#524E4D"/>
<path d="M329.208 0H182.803V512H329.208V0Z" fill="#EE3840"/>
<path d="M73.1963 463.472C86.8207 463.472 97.8653 452.427 97.8653 438.803C97.8653 425.178 86.8207 414.134 73.1963 414.134C59.572 414.134 48.5273 425.178 48.5273 438.803C48.5273 452.427 59.572 463.472 73.1963 463.472Z" fill="#1F5985"/>
<path d="M438.804 463.472C452.428 463.472 463.473 452.427 463.473 438.803C463.473 425.178 452.428 414.134 438.804 414.134C425.179 414.134 414.135 425.178 414.135 438.803C414.135 452.427 425.179 463.472 438.804 463.472Z" fill="#181818"/>
<path d="M255.999 463.472C269.623 463.472 280.668 452.427 280.668 438.803C280.668 425.178 269.623 414.134 255.999 414.134C242.375 414.134 231.33 425.178 231.33 438.803C231.33 452.427 242.375 463.472 255.999 463.472Z" fill="#C21B23"/>
<path d="M97.8713 48.5312H48.5312V254.787H97.8713V48.5312Z" fill="white"/>
<path d="M463.465 48.5312H414.125V254.787H463.465V48.5312Z" fill="white"/>
<path d="M280.674 48.5312H231.334V254.787H280.674V48.5312Z" fill="white"/>
</g>
<defs>
<clipPath id="clip0_9191_62324">
<rect width="512" height="512" fill="white"/>
</clipPath>
</defs>
</svg>
