<svg width="30" height="31" viewBox="0 0 30 31" fill="none" xmlns="http://www.w3.org/2000/svg">
<path d="M27.7897 18.4973L25.4346 17.1489C25.6723 15.8773 25.6723 14.5727 25.4346 13.301L27.7897 11.9526C28.0606 11.7992 28.1822 11.4812 28.0938 11.1852C27.4801 9.23389 26.4353 7.46891 25.0697 5.99991C24.8597 5.77517 24.5169 5.72036 24.2515 5.87384L21.8964 7.22225C20.9069 6.37812 19.768 5.72584 18.5352 5.2983V2.60697C18.5352 2.30001 18.3196 2.03143 18.0155 1.96565C15.9866 1.51618 13.9079 1.53811 11.9785 1.96565C11.6744 2.03143 11.4588 2.30001 11.4588 2.60697V5.30378C10.2315 5.73681 9.09267 6.38908 8.09755 7.22773L5.74798 5.87932C5.47709 5.72584 5.13986 5.77517 4.92978 6.00539C3.56426 7.46891 2.5194 9.23389 1.90574 11.1907C1.81176 11.4867 1.93891 11.8046 2.20981 11.9581L4.56491 13.3065C4.32718 14.5782 4.32718 15.8827 4.56491 17.1544L2.20981 18.5028C1.93891 18.6563 1.81729 18.9742 1.90574 19.2702C2.5194 21.2216 3.56426 22.9866 4.92978 24.4555C5.13986 24.6803 5.48262 24.7351 5.74798 24.5816L8.10308 23.2332C9.09267 24.0773 10.2315 24.7296 11.4644 25.1572V27.854C11.4644 28.1609 11.68 28.4295 11.984 28.4953C14.0129 28.9448 16.0916 28.9228 18.021 28.4953C18.3251 28.4295 18.5407 28.1609 18.5407 27.854V25.1572C19.768 24.7241 20.9069 24.0719 21.902 23.2332L24.2571 24.5816C24.528 24.7351 24.8652 24.6858 25.0753 24.4555C26.4408 22.992 27.4857 21.227 28.0993 19.2702C28.1822 18.9687 28.0606 18.6508 27.7897 18.4973ZM14.997 19.6101C12.559 19.6101 10.5743 17.6423 10.5743 15.225C10.5743 12.8077 12.559 10.8399 14.997 10.8399C17.435 10.8399 19.4197 12.8077 19.4197 15.225C19.4197 17.6423 17.435 19.6101 14.997 19.6101Z" fill="#0A77DB"/>
</svg>
