<svg width="800" height="800" viewBox="0 0 800 800" fill="none" xmlns="http://www.w3.org/2000/svg">
<g clip-path="url(#clip0_9190_62309)">
<path d="M585.74 49.9922H225.296L49.9902 225.298V766.547C49.9902 784.877 64.9879 799.875 83.3184 799.875H585.74C604.07 799.875 619.068 784.877 619.068 766.547V83.3203C619.068 64.9898 604.07 49.9922 585.74 49.9922Z" fill="#B4E6DD"/>
<path d="M535.75 0H175.306L0 175.306V716.555C0 734.885 14.9977 749.883 33.3281 749.883H535.75C554.08 749.883 569.078 734.885 569.078 716.555V33.3281C569.078 14.9977 554.08 0 535.75 0Z" fill="#D2F0EA"/>
<path d="M141.978 175.306C160.308 175.306 175.306 160.308 175.306 141.978V0L0 175.306H141.978Z" fill="#32A48E"/>
<path d="M456.262 248.794H112.982V282.122H456.262V248.794Z" fill="white"/>
<path d="M456.262 321.783H112.982V355.111H456.262V321.783Z" fill="white"/>
<path d="M456.262 394.771H112.982V428.099H456.262V394.771Z" fill="white"/>
<path d="M456.262 467.76H112.982V501.088H456.262V467.76Z" fill="white"/>
<path d="M456.262 540.914H112.982V574.242H456.262V540.914Z" fill="white"/>
<path d="M456.262 613.903H112.982V647.231H456.262V613.903Z" fill="white"/>
<path d="M648.732 313.117C556.08 220.465 405.77 220.465 313.118 313.117C220.466 405.769 220.466 556.079 313.118 648.731C395.772 731.385 524.252 740.05 616.904 675.227L729.553 787.876C745.717 804.04 771.713 804.04 787.877 787.876C804.041 771.712 804.041 745.716 787.877 729.552L675.228 616.903C740.218 524.417 731.553 395.937 648.732 313.117Z" fill="#F38E7A"/>
<path d="M601.573 601.572C535.083 668.062 426.767 668.062 360.277 601.572C293.788 535.082 293.788 426.766 360.277 360.276C426.767 293.787 535.083 293.787 601.573 360.276C668.229 426.766 668.229 535.082 601.573 601.572Z" fill="white"/>
<path d="M360.276 393.605C426.766 327.115 535.082 327.115 601.572 393.605C630.567 422.6 646.898 459.594 650.564 497.588C655.397 448.596 639.066 397.771 601.572 360.276C535.082 293.787 426.766 293.787 360.276 360.276C322.782 397.771 306.451 448.596 311.117 497.588C314.95 459.594 331.281 422.6 360.276 393.605Z" fill="#D2F0EA"/>
</g>
<defs>
<clipPath id="clip0_9190_62309">
<rect width="800" height="800" fill="white"/>
</clipPath>
</defs>
</svg>
