<svg width="512" height="512" viewBox="0 0 512 512" fill="none" xmlns="http://www.w3.org/2000/svg">
<path d="M480.681 177.021H31.3193V307.744H480.681V177.021Z" fill="#B5F3FF"/>
<path d="M480.681 8.16992V138.894H349.957L328.17 73.5319L349.957 8.16992H480.681Z" fill="#21B3D2"/>
<path d="M349.957 8.16992V138.894H317.277L295.489 73.5319L317.277 8.16992H349.957Z" fill="#B5F3FF"/>
<path d="M129.362 340.426V405.787H107.574L85.7871 373.106L107.574 340.426H129.362Z" fill="#21B3D2"/>
<path d="M107.574 340.426H64V405.788H107.574V340.426Z" fill="#21B3D2"/>
<path d="M129.362 438.468V503.83H107.574L85.7871 471.149L107.574 438.468H129.362Z" fill="#21B3D2"/>
<path d="M107.574 438.468H64V503.83H107.574V438.468Z" fill="#21B3D2"/>
<path d="M129.362 209.702V275.064H107.574L85.7871 242.383L107.574 209.702H129.362Z" fill="#21B3D2"/>
<path d="M107.574 209.702H64V275.064H107.574V209.702Z" fill="#21B3D2"/>
<path d="M317.276 8.16992H31.3193V138.893H317.276V8.16992Z" fill="#B5F3FF"/>
<path d="M480.681 0H31.3194C26.8074 0 23.1494 3.658 23.1494 8.17V138.893C23.1494 143.405 26.8074 147.063 31.3194 147.063H480.681C485.193 147.063 488.851 143.405 488.851 138.893V8.17C488.851 3.658 485.193 0 480.681 0ZM39.4894 16.34H341.787V130.723H39.4894V16.34ZM472.511 130.723H358.128V16.34H472.511V130.723Z" fill="black"/>
<path d="M162.043 403.064H305.022C309.534 403.064 313.192 399.406 313.192 394.894C313.192 390.382 309.534 386.724 305.022 386.724H162.043C157.531 386.724 153.873 390.382 153.873 394.894C153.872 399.406 157.53 403.064 162.043 403.064Z" fill="black"/>
<path d="M448 343.149H162.043C157.531 343.149 153.873 346.807 153.873 351.319C153.873 355.831 157.531 359.489 162.043 359.489H448C452.512 359.489 456.17 355.831 456.17 351.319C456.17 346.807 452.512 343.149 448 343.149Z" fill="black"/>
<path d="M162.043 272.34H305.022C309.534 272.34 313.192 268.682 313.192 264.17C313.192 259.658 309.534 256 305.022 256H162.043C157.531 256 153.873 259.658 153.873 264.17C153.872 268.682 157.53 272.34 162.043 272.34Z" fill="black"/>
<path d="M162.043 228.766H448C452.512 228.766 456.17 225.108 456.17 220.596C456.17 216.084 452.512 212.426 448 212.426H162.043C157.531 212.426 153.873 216.084 153.873 220.596C153.873 225.108 157.53 228.766 162.043 228.766Z" fill="black"/>
<path d="M480.681 168.851H31.3194C26.8074 168.851 23.1494 172.509 23.1494 177.021V307.744C23.1494 312.256 26.8074 315.914 31.3194 315.914H480.681C485.193 315.914 488.851 312.256 488.851 307.744V177.021C488.851 172.509 485.193 168.851 480.681 168.851ZM472.511 299.574H39.4894V185.191H472.51L472.511 299.574Z" fill="black"/>
<path d="M384.243 89.6542C390.547 95.9582 398.928 99.4302 407.843 99.4302C413.966 99.4302 419.837 97.7922 424.957 94.7242L442.223 111.99C443.818 113.585 445.909 114.383 448 114.383C450.09 114.383 452.182 113.586 453.777 111.99C456.968 108.799 456.968 103.626 453.777 100.436L436.51 83.1712C439.579 78.0522 441.217 72.1802 441.217 66.0572C441.217 57.1422 437.745 48.7612 431.441 42.4572C418.43 29.4452 397.256 29.4452 384.242 42.4572C371.23 55.4682 371.23 76.6422 384.243 89.6542ZM395.798 54.0112C399.119 50.6912 403.48 49.0302 407.843 49.0302C412.205 49.0302 416.568 50.6902 419.888 54.0112C423.106 57.2292 424.877 61.5062 424.877 66.0562C424.877 70.6062 423.106 74.8832 419.888 78.1012C416.67 81.3192 412.393 83.0902 407.843 83.0902C403.293 83.0902 399.016 81.3192 395.798 78.1012C389.156 71.4592 389.156 60.6522 395.798 54.0112Z" fill="#B5F3FF"/>
<path d="M129.362 332.255H64.0001C59.4881 332.255 55.8301 335.913 55.8301 340.425V405.787C55.8301 410.299 59.4881 413.957 64.0001 413.957H129.362C133.874 413.957 137.532 410.299 137.532 405.787V340.425C137.532 335.913 133.874 332.255 129.362 332.255ZM121.191 397.617H72.1701V348.596H121.191V397.617Z" fill="black"/>
<path d="M305.021 484.766H162.043C157.531 484.766 153.873 488.424 153.873 492.936C153.873 497.448 157.531 501.106 162.043 501.106H305.022C309.534 501.106 313.192 497.448 313.192 492.936C313.192 488.424 309.533 484.766 305.021 484.766Z" fill="black"/>
<path d="M448 441.191H162.043C157.531 441.191 153.873 444.849 153.873 449.361C153.873 453.873 157.531 457.531 162.043 457.531H448C452.512 457.531 456.17 453.873 456.17 449.361C456.17 444.85 452.512 441.191 448 441.191Z" fill="black"/>
<path d="M129.362 430.298H64.0001C59.4881 430.298 55.8301 433.956 55.8301 438.468V503.83C55.8301 508.342 59.4881 512 64.0001 512H129.362C133.874 512 137.532 508.342 137.532 503.83V438.468C137.532 433.956 133.874 430.298 129.362 430.298ZM121.191 495.66H72.1701V446.639H121.191V495.66Z" fill="black"/>
<path d="M64.0001 283.234H129.362C133.874 283.234 137.532 279.576 137.532 275.064V209.702C137.532 205.19 133.874 201.532 129.362 201.532H64.0001C59.4881 201.532 55.8301 205.19 55.8301 209.702V275.064C55.8301 279.576 59.4881 283.234 64.0001 283.234ZM72.1701 217.872H121.191V266.893H72.1701V217.872Z" fill="black"/>
</svg>
