<svg width="800" height="800" viewBox="0 0 800 800" fill="none" xmlns="http://www.w3.org/2000/svg">
<g clip-path="url(#clip0_9185_62223)">
<path d="M66.5083 800.001H732.542C769.596 800.001 799.05 767.568 799.05 728.256V115.971C799.05 75.6762 768.646 44.2266 732.542 44.2266H66.5083C29.4537 44.2266 0 76.659 0 115.971V727.273C0 767.568 29.4537 800.001 66.5083 800.001Z" fill="#F4F4F4"/>
<path d="M800 113.022V261.425H0V113.022C0 74.6924 29.4537 44.2256 63.658 44.2256H735.392C771.497 43.2428 800 74.6924 800 113.022Z" fill="#7A9BFF"/>
<path d="M199.524 116.955C180.521 116.955 165.319 132.68 165.319 152.336C165.319 171.992 180.521 187.717 199.524 187.717C218.526 187.717 233.728 171.992 233.728 152.336C233.728 132.68 218.526 116.955 199.524 116.955Z" fill="#6588E0"/>
<path d="M600.474 116.955C581.471 116.955 566.27 132.68 566.27 152.336C566.27 171.992 581.471 187.717 600.474 187.717C619.476 187.717 634.678 171.992 634.678 152.336C634.678 132.68 619.476 116.955 600.474 116.955Z" fill="#6588E0"/>
<path d="M209.026 0H190.024C184.323 0 179.572 4.91401 179.572 10.8108V147.42C179.572 153.317 184.323 158.231 190.024 158.231H209.026C214.727 158.231 219.477 153.317 219.477 147.42V11.7936C220.427 4.91401 214.727 0 209.026 0Z" fill="#F4F4F4"/>
<path d="M609.977 0H590.975C585.274 0 580.523 4.91401 580.523 10.8108V147.42C580.523 153.317 585.274 158.231 590.975 158.231H609.977C615.678 158.231 620.428 153.317 620.428 147.42V11.7936C620.428 4.91401 615.678 0 609.977 0Z" fill="#F4F4F4"/>
<path d="M207.126 364.618H143.468C133.967 364.618 126.366 372.481 126.366 382.309V447.173C126.366 457.001 133.967 464.864 143.468 464.864H206.176C215.677 464.864 223.278 457.001 223.278 447.173V382.309C224.228 372.481 216.627 364.618 207.126 364.618Z" fill="#A9C1FC"/>
<path d="M656.533 364.618H593.825C584.324 364.618 576.723 372.481 576.723 382.309V447.173C576.723 457.001 584.324 464.864 593.825 464.864H656.533C666.034 464.864 673.635 457.001 673.635 447.173V382.309C673.635 372.481 666.034 364.618 656.533 364.618Z" fill="#A9C1FC"/>
<path d="M431.355 364.618H368.647C359.146 364.618 351.545 372.481 351.545 382.309V447.173C351.545 457.001 359.146 464.864 368.647 464.864H431.355C440.856 464.864 448.457 457.001 448.457 447.173V382.309C448.457 372.481 440.856 364.618 431.355 364.618Z" fill="#A9C1FC"/>
<path d="M207.126 567.074H143.468C133.967 567.074 126.366 574.937 126.366 584.765V649.63C126.366 659.458 133.967 667.32 143.468 667.32H206.176C215.677 667.32 223.278 659.458 223.278 649.63V584.765C224.228 574.937 216.627 567.074 207.126 567.074Z" fill="#A9C1FC"/>
<path d="M656.533 567.074H593.825C584.324 567.074 576.723 574.937 576.723 584.765V649.63C576.723 659.458 584.324 667.32 593.825 667.32H656.533C666.034 667.32 673.635 659.458 673.635 649.63V584.765C673.635 574.937 666.034 567.074 656.533 567.074Z" fill="#A9C1FC"/>
<path d="M431.355 567.074H368.647C359.146 567.074 351.545 574.937 351.545 584.765V649.63C351.545 659.458 359.146 667.32 368.647 667.32H431.355C440.856 667.32 448.457 659.458 448.457 649.63V584.765C448.457 574.937 440.856 567.074 431.355 567.074Z" fill="#A9C1FC"/>
<path d="M624.23 695.822C582.425 695.822 548.221 660.442 548.221 617.198C548.221 573.955 582.425 538.574 624.23 538.574C666.035 538.574 700.24 573.955 700.24 617.198C700.24 660.442 666.986 695.822 624.23 695.822ZM624.23 558.23C592.876 558.23 567.223 584.766 567.223 617.198C567.223 649.631 592.876 676.166 624.23 676.166C655.584 676.166 681.237 649.631 681.237 617.198C681.237 584.766 656.534 558.23 624.23 558.23Z" fill="#83E598"/>
<path d="M616.627 647.665C613.776 647.665 610.926 646.682 609.976 643.734L583.373 613.267C579.572 609.336 580.522 602.456 584.323 599.508C588.123 595.577 594.774 596.559 597.624 600.491L617.577 624.078L651.781 589.68C655.582 585.749 661.282 585.749 665.083 589.68C668.883 593.611 668.883 599.508 665.083 603.439L623.277 645.699C622.327 646.682 619.477 647.665 616.627 647.665Z" fill="#FFF2F2"/>
</g>
<defs>
<clipPath id="clip0_9185_62223">
<rect width="800" height="800" fill="white"/>
</clipPath>
</defs>
</svg>
