<svg width="810" height="805" viewBox="0 0 810 805" fill="none" xmlns="http://www.w3.org/2000/svg">
<path d="M71.5083 802.5H737.542C776.166 802.5 806.55 768.751 806.55 728.256V115.971C806.55 74.4457 775.172 41.7266 737.542 41.7266H71.5083C32.8836 41.7266 2.5 75.4756 2.5 115.971V727.273C2.5 768.728 32.8625 802.5 71.5083 802.5Z" fill="#F4F4F4" stroke="black" stroke-width="5"/>
<path d="M805 113.021V261.423H5V113.021C5 74.6914 34.4537 44.2246 68.658 44.2246H740.392C776.497 43.2418 805 74.6914 805 113.021Z" fill="#7A9BFF"/>
<path d="M204.525 116.952C185.522 116.952 170.32 132.677 170.32 152.333C170.32 171.989 185.522 187.714 204.525 187.714C223.527 187.714 238.729 171.989 238.729 152.333C238.729 132.677 223.527 116.952 204.525 116.952Z" fill="#6588E0"/>
<path d="M605.475 116.952C586.472 116.952 571.271 132.677 571.271 152.333C571.271 171.989 586.472 187.714 605.475 187.714C624.477 187.714 639.679 171.989 639.679 152.333C639.679 132.677 624.477 116.952 605.475 116.952Z" fill="#6588E0"/>
<path d="M222.001 11.4516L221.977 11.6218V11.7936V147.42C221.977 152.017 218.267 155.731 214.026 155.731H195.024C190.783 155.731 187.072 152.017 187.072 147.42V10.8108C187.072 6.21436 190.783 2.5 195.024 2.5H214.026C218.478 2.5 222.708 6.32835 222.001 11.4516Z" fill="#FCF0DE" stroke="black" stroke-width="5"/>
<path d="M595.974 2.5H614.976C619.079 2.5 622.927 6.06728 622.927 11.7936V147.42C622.927 152.017 619.217 155.731 614.976 155.731H595.974C591.733 155.731 588.022 152.017 588.022 147.42V10.8108C588.022 6.21434 591.733 2.5 595.974 2.5Z" fill="#FCF0DE" stroke="black" stroke-width="5"/>
<path d="M405 705.651C491.057 705.651 560.82 633.488 560.82 544.471C560.82 455.454 491.057 383.292 405 383.292C318.943 383.292 249.181 455.454 249.181 544.471C249.181 633.488 318.943 705.651 405 705.651Z" fill="#83E598"/>
<path d="M386.947 617.2C379.346 617.2 374.596 614.252 369.845 609.338L307.137 536.611C299.536 526.783 299.536 512.041 309.038 504.178C318.539 496.316 332.791 496.316 340.391 506.144L387.897 561.181L469.608 479.608C478.159 470.763 492.41 471.746 500.962 480.591C509.513 489.436 508.562 504.178 500.011 513.023L403.099 611.304C398.349 615.235 393.598 617.2 386.947 617.2Z" fill="#FFF2F2"/>
</svg>
