<svg width="800" height="800" viewBox="0 0 800 800" fill="none" xmlns="http://www.w3.org/2000/svg">
<path d="M666.137 271.42H28.7915C16.6333 271.42 6.77832 261.547 6.77832 249.389V107.077C6.77832 94.9008 16.6333 85.0459 28.7915 85.0459H666.137C678.312 85.0459 688.167 94.9008 688.167 107.077V249.389C688.167 261.547 678.312 271.42 666.137 271.42ZM50.8223 227.376H644.132V129.09H50.8223V227.376Z" fill="#0D8079"/>
<path d="M157.055 190.391C144.897 190.391 135.042 180.536 135.042 168.378V47.7183C135.042 35.56 144.897 25.6875 157.055 25.6875C169.231 25.6875 179.086 35.56 179.086 47.7183V168.378C179.086 180.536 169.231 190.391 157.055 190.391Z" fill="#0D8079"/>
<path d="M347.491 190.391C335.315 190.391 325.46 180.536 325.46 168.378V47.7183C325.46 35.56 335.315 25.6875 347.491 25.6875C359.649 25.6875 369.504 35.56 369.504 47.7183V168.378C369.504 180.536 359.649 190.391 347.491 190.391Z" fill="#0D8079"/>
<path d="M537.881 190.391C525.706 190.391 515.851 180.536 515.851 168.378V47.7183C515.851 35.56 525.706 25.6875 537.881 25.6875C550.04 25.6875 559.895 35.56 559.895 47.7183V168.378C559.895 180.536 550.031 190.391 537.881 190.391Z" fill="#0D8079"/>
<path d="M199.939 362.109H133.144V428.887H199.939V362.109Z" fill="#3EAFA9"/>
<path d="M199.939 552.588H133.144V619.366H199.939V552.588Z" fill="#3EAFA9"/>
<path d="M567.394 422.417C575.271 425.986 584.493 424.632 590.989 418.944L680.633 340.685C685.424 336.509 688.167 330.47 688.167 324.113V249.415C688.167 237.256 678.312 227.384 666.137 227.384H28.7915C16.6333 227.384 6.77832 237.256 6.77832 249.415V736.685C6.77832 748.861 16.6333 758.698 28.7915 758.698H602.057C649.548 758.698 688.167 720.061 688.167 672.553V458.25C688.167 449.476 682.963 441.546 674.91 438.056C666.91 434.575 657.512 436.166 651.112 442.179L561.468 526.03C557.003 530.188 554.497 536.008 554.497 542.1V612.052H321.442V369.476H554.497V417.037C554.497 425.678 559.526 418.83 567.394 422.417ZM236.642 634.03C236.642 646.206 226.77 656.061 214.611 656.061H118.462C106.304 656.061 96.4487 646.206 96.4487 634.03V537.916C96.4487 525.757 106.304 515.885 118.462 515.885H214.62C226.778 515.885 236.651 525.757 236.651 537.916V634.03H236.642ZM236.642 443.568C236.642 455.727 226.77 465.582 214.611 465.582H118.462C106.304 465.582 96.4487 455.727 96.4487 443.568V347.437C96.4487 335.261 106.304 325.406 118.462 325.406H214.62C226.778 325.406 236.651 335.261 236.651 347.437V443.568H236.642Z" fill="#3EAFA9"/>
<path d="M437.961 559.938C437.02 559.938 436.053 559.868 435.095 559.753C428.844 558.945 423.227 555.481 419.692 550.241L356.097 455.885C349.301 445.793 351.956 432.105 362.057 425.318C372.15 418.488 385.837 421.178 392.624 431.244L442.277 504.931L760.545 227.164C769.697 219.182 783.622 220.105 791.622 229.274C799.622 238.426 798.664 252.351 789.512 260.36L452.44 554.514C448.405 558.039 443.253 559.938 437.961 559.938Z" fill="#279A67"/>
</svg>
