<svg width="800" height="800" viewBox="0 0 800 800" fill="none" xmlns="http://www.w3.org/2000/svg">
<path d="M662.667 658.667H137.334C116.667 658.667 100.667 642 100.667 622V178.667C100.667 158 117.334 142 137.334 142H663.334C684 142 700 158.667 700 178.667V622C700 642 683.334 658.667 662.667 658.667Z" fill="#FFF8E9"/>
<path d="M662.667 298H137.334C116.667 298 100.667 281.333 100.667 261.333V178.667C100.667 158 117.334 142 137.334 142H663.334C684 142 700 158.667 700 178.667V261.333C700 281.333 683.334 298 662.667 298Z" fill="#21B3D2"/>
<path d="M228.001 355.334H162.001C157.334 355.334 153.334 359.334 153.334 364.001V405.334C153.334 410.001 157.334 414.001 162.001 414.001H228.001C232.667 414.001 236.667 410.001 236.667 405.334V364.001C236.001 359.334 232.667 355.334 228.001 355.334Z" fill="#B5F3FF"/>
<path d="M364.668 355.334H298.668C294.001 355.334 290.001 359.334 290.001 364.001V405.334C290.001 410.001 294.001 414.001 298.668 414.001H364.668C369.334 414.001 373.334 410.001 373.334 405.334V364.001C373.334 359.334 369.334 355.334 364.668 355.334Z" fill="#B5F3FF"/>
<path d="M501.334 355.334H435.334C430.667 355.334 426.667 359.334 426.667 364.001V405.334C426.667 410.001 430.667 414.001 435.334 414.001H501.334C506 414.001 510 410.001 510 405.334V364.001C510 359.334 506 355.334 501.334 355.334Z" fill="#B5F3FF"/>
<path d="M228.001 448.668H162.001C157.334 448.668 153.334 452.668 153.334 457.335V498.668C153.334 503.335 157.334 507.335 162.001 507.335H228.001C232.667 507.335 236.667 503.335 236.667 498.668V457.335C236.001 452.668 232.667 448.668 228.001 448.668Z" fill="#B5F3FF"/>
<path d="M364.668 448.668H298.668C294.001 448.668 290.001 452.668 290.001 457.335V498.668C290.001 503.335 294.001 507.335 298.668 507.335H364.668C369.334 507.335 373.334 503.335 373.334 498.668V457.335C373.334 452.668 369.334 448.668 364.668 448.668Z" fill="#B5F3FF"/>
<path d="M501.334 448.668H435.334C430.667 448.668 426.667 452.668 426.667 457.335V498.668C426.667 503.335 430.667 507.335 435.334 507.335H501.334C506 507.335 510 503.335 510 498.668V457.335C510 452.668 506 448.668 501.334 448.668Z" fill="#B5F3FF"/>
<path d="M228.001 542.668H162.001C157.334 542.668 153.334 546.668 153.334 551.335V592.668C153.334 597.335 157.334 601.335 162.001 601.335H228.001C232.667 601.335 236.667 597.335 236.667 592.668V551.335C236.001 546.668 232.667 542.668 228.001 542.668Z" fill="#B5F3FF"/>
<path d="M364.668 542.668H298.668C294.001 542.668 290.001 546.668 290.001 551.335V592.668C290.001 597.335 294.001 601.335 298.668 601.335H364.668C369.334 601.335 373.334 597.335 373.334 592.668V551.335C373.334 546.668 369.334 542.668 364.668 542.668Z" fill="#B5F3FF"/>
<path d="M501.334 542.668H435.334C430.667 542.668 426.667 546.668 426.667 551.335V592.668C426.667 597.335 430.667 601.335 435.334 601.335H501.334C506 601.335 510 597.335 510 592.668V551.335C510 546.668 506 542.668 501.334 542.668Z" fill="#B5F3FF"/>
<path d="M638.001 355.334H572.001C567.334 355.334 563.334 359.334 563.334 364.001V405.334C563.334 410.001 567.334 414.001 572.001 414.001H638.001C642.667 414.001 646.667 410.001 646.667 405.334V364.001C646.667 359.334 642.667 355.334 638.001 355.334Z" fill="#FC889C"/>
<path d="M638.001 448.668H572.001C567.334 448.668 563.334 452.668 563.334 457.335V498.668C563.334 503.335 567.334 507.335 572.001 507.335H638.001C642.667 507.335 646.667 503.335 646.667 498.668V457.335C646.667 452.668 642.667 448.668 638.001 448.668Z" fill="#FC889C"/>
<path d="M638.001 542.668H572.001C567.334 542.668 563.334 546.668 563.334 551.335V592.668C563.334 597.335 567.334 601.335 572.001 601.335H638.001C642.667 601.335 646.667 597.335 646.667 592.668V551.335C646.667 546.668 642.667 542.668 638.001 542.668Z" fill="#FC889C"/>
<path d="M186 399.333C189.334 399.333 191.334 398.666 194 396.666L240.667 350.666C244.667 346.666 245.334 339.999 241.334 335.333C237.334 331.333 230.667 330.666 226 334.666L186 373.333L163.334 347.999C160 343.333 152.667 343.333 148 347.333C143.334 350.666 143.334 357.999 147.334 362.666L177.334 396.666C180 397.999 182 399.333 186 399.333Z" fill="#6DE8B1"/>
<path d="M386 425.333C382 421.333 375.333 420.666 370.667 424.666L331.333 462.666L308.667 437.333C305.333 432.666 298 432.666 293.333 436.666C288.667 440.666 288.667 447.333 292.667 451.999L322.667 485.999C324.667 487.999 327.333 489.333 330.667 489.333C334 489.333 336 488.666 338.667 486.666L385.333 440.666C389.333 435.999 390 429.333 386 425.333Z" fill="#6DE8B1"/>
<path d="M239.334 524.666L200 562.666L177.334 537.333C174 532.666 166.667 532.666 162 536.666C157.334 540.666 157.334 547.333 161.334 551.999L191.334 585.999C193.334 587.999 196 589.333 199.334 589.333C202.667 589.333 204.667 588.666 207.334 586.666L254 540.666C258 536.666 258.667 529.999 254.667 525.333C250.667 521.333 243.334 520.666 239.334 524.666Z" fill="#6DE8B1"/>
</svg>
