<svg width="800" height="800" viewBox="0 0 800 800" fill="none" xmlns="http://www.w3.org/2000/svg">
<g clip-path="url(#clip0_9186_62256)">
<path d="M66.5083 800H732.542C769.596 800 799.05 767.568 799.05 728.256V115.971C799.05 75.6762 768.646 44.2266 732.542 44.2266H66.5083C29.4537 44.2266 0 76.659 0 115.971V727.273C0 767.568 29.4537 800 66.5083 800Z" fill="#F4F4F4"/>
<path d="M800 113.021V261.423H0V113.021C0 74.6914 29.4537 44.2246 63.658 44.2246H735.392C771.497 43.2418 800 74.6914 800 113.021Z" fill="#7A9BFF"/>
<path d="M199.525 116.952C180.522 116.952 165.32 132.677 165.32 152.333C165.32 171.989 180.522 187.714 199.525 187.714C218.527 187.714 233.729 171.989 233.729 152.333C233.729 132.677 218.527 116.952 199.525 116.952Z" fill="#6588E0"/>
<path d="M600.475 116.952C581.472 116.952 566.271 132.677 566.271 152.333C566.271 171.989 581.472 187.714 600.475 187.714C619.477 187.714 634.679 171.989 634.679 152.333C634.679 132.677 619.477 116.952 600.475 116.952Z" fill="#6588E0"/>
<path d="M209.026 0H190.024C184.323 0 179.572 4.91401 179.572 10.8108V147.42C179.572 153.317 184.323 158.231 190.024 158.231H209.026C214.727 158.231 219.477 153.317 219.477 147.42V11.7936C220.427 4.91401 214.727 0 209.026 0Z" fill="#FCF0DE"/>
<path d="M609.976 0H590.974C585.273 0 580.522 4.91401 580.522 10.8108V147.42C580.522 153.317 585.273 158.231 590.974 158.231H609.976C615.677 158.231 620.427 153.317 620.427 147.42V11.7936C620.427 4.91401 615.677 0 609.976 0Z" fill="#FCF0DE"/>
<path d="M400 705.651C486.057 705.651 555.82 633.488 555.82 544.471C555.82 455.454 486.057 383.292 400 383.292C313.943 383.292 244.181 455.454 244.181 544.471C244.181 633.488 313.943 705.651 400 705.651Z" fill="#83E598"/>
<path d="M381.947 617.2C374.346 617.2 369.596 614.252 364.845 609.338L302.137 536.611C294.536 526.783 294.536 512.041 304.038 504.178C313.539 496.316 327.791 496.316 335.391 506.144L382.897 561.181L464.608 479.608C473.159 470.763 487.41 471.746 495.962 480.591C504.513 489.436 503.562 504.178 495.011 513.023L398.099 611.304C393.349 615.235 388.598 617.2 381.947 617.2Z" fill="#FFF2F2"/>
</g>
<defs>
<clipPath id="clip0_9186_62256">
<rect width="800" height="800" fill="white"/>
</clipPath>
</defs>
</svg>
