<svg width="24" height="24" viewBox="0 0 24 24" fill="none" xmlns="http://www.w3.org/2000/svg">
<path fill-rule="evenodd" clip-rule="evenodd" d="M5.15506 2.40044C4.74747 2.39719 4.35515 2.5551 4.06381 2.83966C3.77247 3.12423 3.60579 3.51233 3.60017 3.91918V20.2851C3.59815 20.4897 3.63696 20.6926 3.71434 20.882C3.79173 21.0714 3.90613 21.2435 4.05088 21.3883C4.19563 21.533 4.36782 21.6476 4.55741 21.7252C4.74699 21.8028 4.95016 21.842 5.15506 21.8403H19.0851C19.29 21.842 19.4932 21.8028 19.6828 21.7252C19.8724 21.6476 20.0446 21.533 20.1893 21.3883C20.3341 21.2435 20.4485 21.0714 20.5259 20.882C20.6032 20.6926 20.642 20.4897 20.64 20.2851V8.56046L14.8769 2.40044H5.15506Z" fill="#388E3C"/>
<path d="M13.75 11H10.25C10.112 11 10 11.0996 10 11.2222V12.7778H10.5V11.4444H10.75V12.7778C10.75 12.9004 10.862 13 11 13H11.25V13.6667H11.75V13H12.25V13.6667H12.75V13H13C13.138 13 13.25 12.9004 13.25 12.7778V11.4444H13.5V12.7778H14V11.2222C14 11.0996 13.888 11 13.75 11Z" fill="white"/>
<path d="M10.8317 10.1345C10.8317 10.2443 10.9363 10.3333 11.0653 10.3333H12.9344C13.0633 10.3333 13.168 10.2443 13.168 10.1345C13.168 9.93236 13.0958 9.7445 12.9734 9.58745L13.3332 9.2813L13.0028 9L12.643 9.30615C12.4582 9.20218 12.2377 9.14055 11.9998 9.14055C11.762 9.14055 11.5415 9.20218 11.3567 9.30615L10.9969 9L10.6665 9.2813L11.0263 9.58745C10.9039 9.7445 10.8317 9.93236 10.8317 10.1345Z" fill="white"/>
<path fill-rule="evenodd" clip-rule="evenodd" d="M14.8799 2.40039V6.86291C14.8791 7.10457 14.9274 7.34384 15.0218 7.566C15.1162 7.78816 15.2547 7.98852 15.4289 8.15474C15.603 8.32097 15.8091 8.44955 16.0344 8.53257C16.2597 8.61559 16.4995 8.6513 16.739 8.6375H20.6574L14.8799 2.40039Z" fill="#C8E6C9"/>
<path d="M8.69272 19.1201H8.13022L9.15437 16.211H9.80493L10.8305 19.1201H10.268L9.49101 16.8076H9.46829L8.69272 19.1201ZM8.71118 17.9795H10.2453V18.4028H8.71118V17.9795ZM11.2137 19.1201V16.211H12.3046C12.5281 16.211 12.7156 16.2527 12.8671 16.336C13.0195 16.4194 13.1346 16.5339 13.2122 16.6798C13.2908 16.8247 13.3301 16.9894 13.3301 17.1741C13.3301 17.3606 13.2908 17.5264 13.2122 17.6713C13.1337 17.8161 13.0176 17.9302 12.8642 18.0136C12.7108 18.096 12.5219 18.1372 12.2975 18.1372H11.5745V17.7039H12.2265C12.3571 17.7039 12.4641 17.6812 12.5475 17.6357C12.6308 17.5903 12.6924 17.5278 12.7321 17.4482C12.7729 17.3687 12.7932 17.2773 12.7932 17.1741C12.7932 17.0709 12.7729 16.98 12.7321 16.9014C12.6924 16.8228 12.6303 16.7617 12.5461 16.7181C12.4627 16.6736 12.3552 16.6514 12.2236 16.6514H11.7407V19.1201H11.2137ZM13.7879 19.1201V16.211H14.3149V17.5477H14.3504L15.4853 16.211H16.1288L15.0038 17.5164L16.1387 19.1201H15.5052L14.6373 17.873L14.3149 18.2536V19.1201H13.7879Z" fill="white"/>
</svg>
