<svg width="24" height="24" viewBox="0 0 24 24" fill="none" xmlns="http://www.w3.org/2000/svg">
<path fill-rule="evenodd" clip-rule="evenodd" d="M5.15506 2.40044C4.74747 2.39719 4.35515 2.5551 4.06381 2.83966C3.77247 3.12423 3.60579 3.51233 3.60017 3.91918V20.2851C3.59815 20.4897 3.63696 20.6926 3.71434 20.882C3.79173 21.0714 3.90613 21.2435 4.05088 21.3883C4.19563 21.533 4.36782 21.6476 4.55741 21.7252C4.74699 21.8028 4.95016 21.842 5.15506 21.8403H19.0851C19.29 21.842 19.4932 21.8028 19.6828 21.7252C19.8724 21.6476 20.0446 21.533 20.1893 21.3883C20.3341 21.2435 20.4485 21.0714 20.5259 20.882C20.6032 20.6926 20.642 20.4897 20.64 20.2851V8.56046L14.8769 2.40044H5.15506Z" fill="#673AB7"/>
<path fill-rule="evenodd" clip-rule="evenodd" d="M14.8799 2.40039V6.86291C14.8791 7.10457 14.9274 7.34384 15.0218 7.566C15.1162 7.78816 15.2547 7.98852 15.4289 8.15474C15.603 8.32097 15.8091 8.44955 16.0344 8.53257C16.2597 8.61559 16.4995 8.6513 16.739 8.6375H20.6399L14.8799 2.40039Z" fill="#B388FF"/>
<path d="M12.0002 10.9997V13.4097C11.8615 13.3224 11.7042 13.2687 11.5409 13.2531C11.3777 13.2375 11.2131 13.2603 11.0602 13.3197C10.8744 13.3874 10.7094 13.5023 10.5814 13.6531C10.4534 13.8039 10.3669 13.9854 10.3302 14.1797C10.2994 14.3569 10.3112 14.5388 10.3648 14.7104C10.4184 14.882 10.5122 15.0384 10.6383 15.1665C10.7645 15.2946 10.9194 15.3908 11.0902 15.447C11.2609 15.5032 11.4427 15.5179 11.6202 15.4897C11.8884 15.438 12.1297 15.2933 12.3017 15.0811C12.4736 14.8689 12.5652 14.6028 12.5602 14.3297V11.5897H13.1302C13.2788 11.5897 13.4212 11.5307 13.5262 11.4257C13.6312 11.3207 13.6902 11.1782 13.6902 11.0297C13.6902 10.8812 13.6312 10.7388 13.5262 10.6337C13.4212 10.5287 13.2788 10.4697 13.1302 10.4697H12.5602C12.4168 10.4695 12.2787 10.5244 12.1745 10.623C12.0703 10.7216 12.0079 10.8565 12.0002 10.9997Z" fill="#EDE7F6"/>
</svg>
