<svg width="24" height="24" viewBox="0 0 24 24" fill="none" xmlns="http://www.w3.org/2000/svg">
<path fill-rule="evenodd" clip-rule="evenodd" d="M5.15506 2.40044C4.74747 2.39719 4.35515 2.5551 4.06381 2.83966C3.77247 3.12423 3.60579 3.51233 3.60017 3.91918V20.2851C3.59815 20.4897 3.63696 20.6926 3.71434 20.882C3.79173 21.0714 3.90613 21.2435 4.05088 21.3883C4.19563 21.533 4.36782 21.6476 4.55741 21.7252C4.74699 21.8028 4.95016 21.842 5.15506 21.8403H19.0851C19.29 21.842 19.4932 21.8028 19.6828 21.7252C19.8724 21.6476 20.0446 21.533 20.1893 21.3883C20.3341 21.2435 20.4485 21.0714 20.5259 20.882C20.6032 20.6926 20.642 20.4897 20.64 20.2851V8.56046L14.8769 2.40044H5.15506Z" fill="#4CAF50"/>
<path fill-rule="evenodd" clip-rule="evenodd" d="M14.8799 2.40039V6.86291C14.8791 7.10457 14.9274 7.34384 15.0218 7.566C15.1162 7.78816 15.2547 7.98852 15.4289 8.15474C15.603 8.32097 15.8091 8.44955 16.0344 8.53257C16.2597 8.61559 16.4995 8.6513 16.739 8.6375H20.6399L14.8799 2.40039Z" fill="#B9F6CA"/>
<path d="M10.6647 17.1926H10.1334C10.1183 17.1054 10.0903 17.0283 10.0496 16.961C10.0089 16.8928 9.95822 16.8351 9.89762 16.7877C9.83701 16.7404 9.76788 16.7049 9.69023 16.6812C9.61353 16.6566 9.53067 16.6443 9.44165 16.6443C9.28351 16.6443 9.14336 16.684 9.0212 16.7636C8.89904 16.8422 8.8034 16.9577 8.73427 17.1102C8.66514 17.2617 8.63057 17.4468 8.63057 17.6656C8.63057 17.8881 8.66514 18.0756 8.73427 18.2281C8.80434 18.3796 8.89999 18.4942 9.0212 18.5718C9.14336 18.6485 9.28304 18.6869 9.44023 18.6869C9.52735 18.6869 9.60879 18.6755 9.68455 18.6528C9.76125 18.6291 9.82991 18.5945 9.89052 18.5491C9.95207 18.5036 10.0037 18.4478 10.0453 18.3815C10.088 18.3152 10.1173 18.2394 10.1334 18.1542L10.6647 18.157C10.6448 18.2953 10.6017 18.425 10.5354 18.5463C10.4701 18.6675 10.3844 18.7745 10.2783 18.8673C10.1722 18.9591 10.0482 19.0311 9.90614 19.0832C9.7641 19.1343 9.60643 19.1599 9.43313 19.1599C9.17745 19.1599 8.94923 19.1007 8.74847 18.9823C8.54771 18.864 8.38957 18.693 8.27404 18.4695C8.15851 18.2461 8.10074 17.9781 8.10074 17.6656C8.10074 17.3521 8.15898 17.0841 8.27546 16.8616C8.39194 16.6381 8.55055 16.4672 8.75131 16.3488C8.95207 16.2304 9.17934 16.1713 9.43313 16.1713C9.59506 16.1713 9.74563 16.194 9.88483 16.2394C10.024 16.2849 10.1481 16.3517 10.257 16.4397C10.3659 16.5268 10.4554 16.6338 10.5255 16.7607C10.5965 16.8867 10.6429 17.0306 10.6647 17.1926ZM12.7282 17.0107C12.715 16.8867 12.6591 16.7901 12.5606 16.721C12.4631 16.6518 12.3362 16.6173 12.1799 16.6173C12.0701 16.6173 11.9759 16.6338 11.8973 16.667C11.8187 16.7001 11.7585 16.7451 11.7169 16.8019C11.6752 16.8588 11.6539 16.9236 11.6529 16.9965C11.6529 17.0571 11.6667 17.1097 11.6941 17.1542C11.7225 17.1987 11.7609 17.2366 11.8092 17.2678C11.8575 17.2981 11.911 17.3237 11.9697 17.3445C12.0284 17.3654 12.0876 17.3829 12.1473 17.3971L12.42 17.4653C12.5298 17.4909 12.6354 17.5254 12.7368 17.569C12.839 17.6125 12.9304 17.6675 13.0109 17.7338C13.0923 17.8 13.1567 17.8801 13.2041 17.9738C13.2514 18.0676 13.2751 18.1774 13.2751 18.3034C13.2751 18.4738 13.2315 18.6239 13.1444 18.7536C13.0573 18.8824 12.9314 18.9833 12.7666 19.0562C12.6028 19.1282 12.4044 19.1642 12.1714 19.1642C11.9451 19.1642 11.7486 19.1291 11.5819 19.059C11.4162 18.989 11.2865 18.8867 11.1927 18.7522C11.0999 18.6177 11.0497 18.4539 11.0421 18.2607H11.5606C11.5682 18.3621 11.5994 18.4463 11.6544 18.5136C11.7093 18.5808 11.7808 18.631 11.8689 18.6642C11.9579 18.6973 12.0573 18.7139 12.1671 18.7139C12.2817 18.7139 12.3821 18.6968 12.4683 18.6627C12.5554 18.6277 12.6236 18.5794 12.6728 18.5178C12.7221 18.4553 12.7472 18.3824 12.7481 18.2991C12.7472 18.2233 12.7249 18.1608 12.6814 18.1116C12.6378 18.0614 12.5767 18.0197 12.4981 17.9866C12.4205 17.9525 12.3296 17.9222 12.2254 17.8957L11.8944 17.8105C11.6548 17.7489 11.4654 17.6556 11.3262 17.5306C11.188 17.4047 11.1189 17.2375 11.1189 17.0292C11.1189 16.8578 11.1653 16.7077 11.2581 16.5789C11.3518 16.4501 11.4792 16.3502 11.6402 16.2792C11.8011 16.2072 11.9834 16.1713 12.187 16.1713C12.3935 16.1713 12.5743 16.2072 12.7296 16.2792C12.8859 16.3502 13.0085 16.4492 13.0975 16.5761C13.1866 16.702 13.2325 16.8469 13.2353 17.0107H12.7282ZM14.1341 16.211L14.8912 18.5008H14.9211L15.6767 16.211H16.2563L15.2307 19.1201H14.5801L13.556 16.211H14.1341Z" fill="white"/>
</svg>
