<svg width="24" height="24" viewBox="0 0 24 24" fill="none" xmlns="http://www.w3.org/2000/svg">
<path fill-rule="evenodd" clip-rule="evenodd" d="M5.15506 2.40044C4.74747 2.39719 4.35515 2.5551 4.06381 2.83966C3.77247 3.12423 3.60579 3.51233 3.60017 3.91918V20.2851C3.59815 20.4897 3.63696 20.6926 3.71434 20.882C3.79173 21.0714 3.90613 21.2435 4.05088 21.3883C4.19563 21.533 4.36782 21.6476 4.55741 21.7252C4.74699 21.8028 4.95016 21.842 5.15506 21.8403H19.0851C19.29 21.842 19.4932 21.8028 19.6828 21.7252C19.8724 21.6476 20.0446 21.533 20.1893 21.3883C20.3341 21.2435 20.4485 21.0714 20.5259 20.882C20.6032 20.6926 20.642 20.4897 20.64 20.2851V8.56046L14.8769 2.40044H5.15506Z" fill="#2196F3"/>
<path fill-rule="evenodd" clip-rule="evenodd" d="M14.8799 2.40039V6.86291C14.8791 7.10457 14.9274 7.34384 15.0218 7.566C15.1162 7.78816 15.2547 7.98852 15.4289 8.15474C15.603 8.32097 15.8091 8.44955 16.0344 8.53257C16.2597 8.61559 16.4995 8.6513 16.739 8.6375H20.6399L14.8799 2.40039Z" fill="#82B1FF"/>
<path d="M8.90845 19.1201H7.92265V16.211H8.92834C9.21716 16.211 9.46527 16.2693 9.67265 16.3857C9.88099 16.5013 10.041 16.6675 10.1528 16.8843C10.2645 17.1012 10.3204 17.3606 10.3204 17.6627C10.3204 17.9658 10.264 18.2262 10.1513 18.444C10.0396 18.6618 9.87815 18.8289 9.66697 18.9454C9.45674 19.0619 9.2039 19.1201 8.90845 19.1201ZM8.44964 18.6642H8.88288C9.08553 18.6642 9.25457 18.6272 9.38998 18.5534C9.5254 18.4785 9.6272 18.3673 9.69538 18.2195C9.76356 18.0709 9.79765 17.8853 9.79765 17.6627C9.79765 17.4402 9.76356 17.2555 9.69538 17.1088C9.6272 16.961 9.52635 16.8507 9.39282 16.7778C9.26025 16.7039 9.09548 16.667 8.89851 16.667H8.44964V18.6642ZM13.4205 17.6656C13.4205 17.979 13.3618 18.2475 13.2444 18.471C13.1279 18.6935 12.9688 18.864 12.7671 18.9823C12.5664 19.1007 12.3386 19.1599 12.0839 19.1599C11.8291 19.1599 11.6009 19.1007 11.3992 18.9823C11.1985 18.863 11.0394 18.6921 10.9219 18.4695C10.8055 18.2461 10.7472 17.9781 10.7472 17.6656C10.7472 17.3521 10.8055 17.0841 10.9219 16.8616C11.0394 16.6381 11.1985 16.4672 11.3992 16.3488C11.6009 16.2304 11.8291 16.1713 12.0839 16.1713C12.3386 16.1713 12.5664 16.2304 12.7671 16.3488C12.9688 16.4672 13.1279 16.6381 13.2444 16.8616C13.3618 17.0841 13.4205 17.3521 13.4205 17.6656ZM12.8907 17.6656C12.8907 17.4449 12.8561 17.2588 12.787 17.1073C12.7188 16.9549 12.6241 16.8398 12.5029 16.7622C12.3817 16.6836 12.242 16.6443 12.0839 16.6443C11.9257 16.6443 11.7861 16.6836 11.6648 16.7622C11.5436 16.8398 11.4485 16.9549 11.3793 17.1073C11.3111 17.2588 11.2771 17.4449 11.2771 17.6656C11.2771 17.8862 11.3111 18.0728 11.3793 18.2252C11.4485 18.3767 11.5436 18.4918 11.6648 18.5704C11.7861 18.6481 11.9257 18.6869 12.0839 18.6869C12.242 18.6869 12.3817 18.6481 12.5029 18.5704C12.6241 18.4918 12.7188 18.3767 12.787 18.2252C12.8561 18.0728 12.8907 17.8862 12.8907 17.6656ZM16.4088 17.1926H15.8776C15.8624 17.1054 15.8345 17.0283 15.7937 16.961C15.753 16.8928 15.7024 16.8351 15.6418 16.7877C15.5812 16.7404 15.512 16.7049 15.4344 16.6812C15.3577 16.6566 15.2748 16.6443 15.1858 16.6443C15.0276 16.6443 14.8875 16.684 14.7653 16.7636C14.6432 16.8422 14.5475 16.9577 14.4784 17.1102C14.4093 17.2617 14.3747 17.4468 14.3747 17.6656C14.3747 17.8881 14.4093 18.0756 14.4784 18.2281C14.5485 18.3796 14.6441 18.4942 14.7653 18.5718C14.8875 18.6485 15.0272 18.6869 15.1844 18.6869C15.2715 18.6869 15.3529 18.6755 15.4287 18.6528C15.5054 18.6291 15.5741 18.5945 15.6347 18.5491C15.6962 18.5036 15.7478 18.4478 15.7895 18.3815C15.8321 18.3152 15.8615 18.2394 15.8776 18.1542L16.4088 18.157C16.3889 18.2953 16.3458 18.425 16.2795 18.5463C16.2142 18.6675 16.1285 18.7745 16.0224 18.8673C15.9164 18.9591 15.7923 19.0311 15.6503 19.0832C15.5082 19.1343 15.3506 19.1599 15.1773 19.1599C14.9216 19.1599 14.6934 19.1007 14.4926 18.9823C14.2919 18.864 14.1337 18.693 14.0182 18.4695C13.9026 18.2461 13.8449 17.9781 13.8449 17.6656C13.8449 17.3521 13.9031 17.0841 14.0196 16.8616C14.1361 16.6381 14.2947 16.4672 14.4955 16.3488C14.6962 16.2304 14.9235 16.1713 15.1773 16.1713C15.3392 16.1713 15.4898 16.194 15.629 16.2394C15.7682 16.2849 15.8922 16.3517 16.0011 16.4397C16.11 16.5268 16.1995 16.6338 16.2696 16.7607C16.3406 16.8867 16.387 17.0306 16.4088 17.1926Z" fill="white"/>
</svg>
