<svg width="24" height="24" viewBox="0 0 24 24" fill="none" xmlns="http://www.w3.org/2000/svg">
<path fill-rule="evenodd" clip-rule="evenodd" d="M5.15506 2.40044C4.74747 2.39719 4.35515 2.5551 4.06381 2.83966C3.77247 3.12423 3.60579 3.51233 3.60017 3.91918V20.2851C3.59815 20.4897 3.63696 20.6926 3.71434 20.882C3.79173 21.0714 3.90613 21.2435 4.05088 21.3883C4.19563 21.533 4.36782 21.6476 4.55741 21.7252C4.74699 21.8028 4.95016 21.842 5.15506 21.8403H19.0851C19.29 21.842 19.4932 21.8028 19.6828 21.7252C19.8724 21.6476 20.0446 21.533 20.1893 21.3883C20.3341 21.2435 20.4485 21.0714 20.5259 20.882C20.6032 20.6926 20.642 20.4897 20.64 20.2851V8.56046L14.8769 2.40044H5.15506Z" fill="#2196F3"/>
<path fill-rule="evenodd" clip-rule="evenodd" d="M14.8799 2.40039V6.86291C14.8791 7.10457 14.9274 7.34384 15.0218 7.566C15.1162 7.78816 15.2547 7.98852 15.4289 8.15474C15.603 8.32097 15.8091 8.44955 16.0344 8.53257C16.2597 8.61559 16.4995 8.6513 16.739 8.6375H20.6399L14.8799 2.40039Z" fill="#82B1FF"/>
<path d="M7.55298 19.1201H6.56719V16.211H7.57287C7.86169 16.211 8.1098 16.2693 8.31719 16.3857C8.52552 16.5013 8.68556 16.6675 8.7973 16.8843C8.90904 17.1012 8.96491 17.3606 8.96491 17.6627C8.96491 17.9658 8.90857 18.2262 8.79588 18.444C8.68414 18.6618 8.52268 18.8289 8.3115 18.9454C8.10128 19.0619 7.84844 19.1201 7.55298 19.1201ZM7.09417 18.6642H7.52741C7.73006 18.6642 7.8991 18.6272 8.03451 18.5534C8.16993 18.4785 8.27173 18.3673 8.33991 18.2195C8.40809 18.0709 8.44219 17.8853 8.44219 17.6627C8.44219 17.4402 8.40809 17.2555 8.33991 17.1088C8.27173 16.961 8.17088 16.8507 8.03736 16.7778C7.90478 16.7039 7.74001 16.667 7.54304 16.667H7.09417V18.6642ZM12.0651 17.6656C12.0651 17.979 12.0063 18.2475 11.8889 18.471C11.7724 18.6935 11.6134 18.864 11.4116 18.9823C11.2109 19.1007 10.9831 19.1599 10.7284 19.1599C10.4737 19.1599 10.2455 19.1007 10.0437 18.9823C9.84299 18.863 9.6839 18.6921 9.56648 18.4695C9.45 18.2461 9.39176 17.9781 9.39176 17.6656C9.39176 17.3521 9.45 17.0841 9.56648 16.8616C9.6839 16.6381 9.84299 16.4672 10.0437 16.3488C10.2455 16.2304 10.4737 16.1713 10.7284 16.1713C10.9831 16.1713 11.2109 16.2304 11.4116 16.3488C11.6134 16.4672 11.7724 16.6381 11.8889 16.8616C12.0063 17.0841 12.0651 17.3521 12.0651 17.6656ZM11.5352 17.6656C11.5352 17.4449 11.5007 17.2588 11.4315 17.1073C11.3634 16.9549 11.2687 16.8398 11.1474 16.7622C11.0262 16.6836 10.8866 16.6443 10.7284 16.6443C10.5703 16.6443 10.4306 16.6836 10.3094 16.7622C10.1882 16.8398 10.093 16.9549 10.0239 17.1073C9.95568 17.2588 9.92159 17.4449 9.92159 17.6656C9.92159 17.8862 9.95568 18.0728 10.0239 18.2252C10.093 18.3767 10.1882 18.4918 10.3094 18.5704C10.4306 18.6481 10.5703 18.6869 10.7284 18.6869C10.8866 18.6869 11.0262 18.6481 11.1474 18.5704C11.2687 18.4918 11.3634 18.3767 11.4315 18.2252C11.5007 18.0728 11.5352 17.8862 11.5352 17.6656ZM15.0533 17.1926H14.5221C14.5069 17.1054 14.479 17.0283 14.4383 16.961C14.3976 16.8928 14.3469 16.8351 14.2863 16.7877C14.2257 16.7404 14.1566 16.7049 14.0789 16.6812C14.0022 16.6566 13.9193 16.6443 13.8303 16.6443C13.6722 16.6443 13.532 16.684 13.4099 16.7636C13.2877 16.8422 13.1921 16.9577 13.1229 17.1102C13.0538 17.2617 13.0192 17.4468 13.0192 17.6656C13.0192 17.8881 13.0538 18.0756 13.1229 18.2281C13.193 18.3796 13.2887 18.4942 13.4099 18.5718C13.532 18.6485 13.6717 18.6869 13.8289 18.6869C13.916 18.6869 13.9975 18.6755 14.0732 18.6528C14.1499 18.6291 14.2186 18.5945 14.2792 18.5491C14.3407 18.5036 14.3924 18.4478 14.434 18.3815C14.4766 18.3152 14.506 18.2394 14.5221 18.1542L15.0533 18.157C15.0334 18.2953 14.9904 18.425 14.9241 18.5463C14.8587 18.6675 14.773 18.7745 14.667 18.8673C14.5609 18.9591 14.4369 19.0311 14.2948 19.0832C14.1528 19.1343 13.9951 19.1599 13.8218 19.1599C13.5661 19.1599 13.3379 19.1007 13.1371 18.9823C12.9364 18.864 12.7782 18.693 12.6627 18.4695C12.5472 18.2461 12.4894 17.9781 12.4894 17.6656C12.4894 17.3521 12.5477 17.0841 12.6641 16.8616C12.7806 16.6381 12.9392 16.4672 13.14 16.3488C13.3407 16.2304 13.568 16.1713 13.8218 16.1713C13.9837 16.1713 14.1343 16.194 14.2735 16.2394C14.4127 16.2849 14.5368 16.3517 14.6457 16.4397C14.7546 16.5268 14.8441 16.6338 14.9141 16.7607C14.9852 16.8867 15.0316 17.0306 15.0533 17.1926ZM15.9255 16.211L16.5661 17.2764H16.5888L17.2323 16.211H17.8332L16.9369 17.6656L17.8474 19.1201H17.2366L16.5888 18.0619H16.5661L15.9184 19.1201H15.3104L16.2295 17.6656L15.3218 16.211H15.9255Z" fill="white"/>
</svg>
