<svg width="24" height="24" viewBox="0 0 24 24" fill="none" xmlns="http://www.w3.org/2000/svg">
<path fill-rule="evenodd" clip-rule="evenodd" d="M5.15506 2.40044C4.74747 2.39719 4.35515 2.5551 4.06381 2.83966C3.77247 3.12423 3.60579 3.51233 3.60017 3.91918V20.2851C3.59815 20.4897 3.63696 20.6926 3.71434 20.882C3.79173 21.0714 3.90613 21.2435 4.05088 21.3883C4.19563 21.533 4.36782 21.6476 4.55741 21.7252C4.74699 21.8028 4.95016 21.842 5.15506 21.8403H19.0851C19.29 21.842 19.4932 21.8028 19.6828 21.7252C19.8724 21.6476 20.0446 21.533 20.1893 21.3883C20.3341 21.2435 20.4485 21.0714 20.5259 20.882C20.6032 20.6926 20.642 20.4897 20.64 20.2851V8.56046L14.8769 2.40044H5.15506Z" fill="#757575"/>
<path d="M16 12.6504H8C7.86739 12.6504 7.74021 12.5977 7.64645 12.5039C7.55268 12.4102 7.5 12.283 7.5 12.1504C7.5 12.0178 7.55268 11.8906 7.64645 11.7968C7.74021 11.7031 7.86739 11.6504 8 11.6504H16C16.1326 11.6504 16.2598 11.7031 16.3536 11.7968C16.4473 11.8906 16.5 12.0178 16.5 12.1504C16.5 12.283 16.4473 12.4102 16.3536 12.5039C16.2598 12.5977 16.1326 12.6504 16 12.6504Z" fill="#F5F5F5"/>
<path d="M16 15.5H8C7.86739 15.5 7.74021 15.4473 7.64645 15.3536C7.55268 15.2598 7.5 15.1326 7.5 15C7.5 14.8674 7.55268 14.7402 7.64645 14.6464C7.74021 14.5527 7.86739 14.5 8 14.5H16C16.1326 14.5 16.2598 14.5527 16.3536 14.6464C16.4473 14.7402 16.5 14.8674 16.5 15C16.5 15.1326 16.4473 15.2598 16.3536 15.3536C16.2598 15.4473 16.1326 15.5 16 15.5Z" fill="#F5F5F5"/>
<path d="M16 18.3496H8C7.86739 18.3496 7.74021 18.2969 7.64645 18.2032C7.55268 18.1094 7.5 17.9822 7.5 17.8496C7.5 17.717 7.55268 17.5898 7.64645 17.4961C7.74021 17.4023 7.86739 17.3496 8 17.3496H16C16.1326 17.3496 16.2598 17.4023 16.3536 17.4961C16.4473 17.5898 16.5 17.717 16.5 17.8496C16.5 17.9822 16.4473 18.1094 16.3536 18.2032C16.2598 18.2969 16.1326 18.3496 16 18.3496Z" fill="#F5F5F5"/>
<path fill-rule="evenodd" clip-rule="evenodd" d="M14.8799 2.40039V6.86291C14.8791 7.10457 14.9274 7.34384 15.0218 7.566C15.1162 7.78816 15.2547 7.98852 15.4289 8.15474C15.603 8.32097 15.8091 8.44955 16.0344 8.53257C16.2597 8.61559 16.4995 8.6513 16.739 8.6375H20.6399L14.8799 2.40039Z" fill="#BDBDBD"/>
</svg>
