<svg width="24" height="24" viewBox="0 0 24 24" fill="none" xmlns="http://www.w3.org/2000/svg">
<path fill-rule="evenodd" clip-rule="evenodd" d="M5.15506 2.40044C4.74747 2.39719 4.35515 2.5551 4.06381 2.83966C3.77247 3.12423 3.60579 3.51233 3.60017 3.91918V20.2851C3.59815 20.4897 3.63696 20.6926 3.71434 20.882C3.79173 21.0714 3.90613 21.2435 4.05088 21.3883C4.19563 21.533 4.36782 21.6476 4.55741 21.7252C4.74699 21.8028 4.95016 21.842 5.15506 21.8403H19.0851C19.29 21.842 19.4932 21.8028 19.6828 21.7252C19.8724 21.6476 20.0446 21.533 20.1893 21.3883C20.3341 21.2435 20.4485 21.0714 20.5259 20.882C20.6032 20.6926 20.642 20.4897 20.64 20.2851V8.56046L14.8769 2.40044H5.15506Z" fill="#009688"/>
<path fill-rule="evenodd" clip-rule="evenodd" d="M14.8799 2.40039V6.86291C14.8791 7.10457 14.9274 7.34384 15.0218 7.566C15.1162 7.78816 15.2547 7.98852 15.4289 8.15474C15.603 8.32097 15.8091 8.44955 16.0344 8.53257C16.2597 8.61559 16.4995 8.6513 16.739 8.6375H20.6399L14.8799 2.40039Z" fill="#A7FFEB"/>
<path d="M6.65312 19.1201V16.211H7.18011V17.4426H8.52812V16.211H9.05653V19.1201H8.52812V17.8843H7.18011V19.1201H6.65312ZM9.50184 16.6528V16.211H11.8229V16.6528H10.9237V19.1201H10.401V16.6528H9.50184ZM12.2703 16.211H12.9152L13.7788 18.319H13.8129L14.6766 16.211H15.3214V19.1201H14.8158V17.1215H14.7888L13.9848 19.1116H13.607L12.803 17.1173H12.776V19.1201H12.2703V16.211ZM15.8953 19.1201V16.211H16.4223V18.6784H17.7035V19.1201H15.8953Z" fill="white"/>
</svg>
