<svg width="24" height="24" viewBox="0 0 24 24" fill="none" xmlns="http://www.w3.org/2000/svg">
<path fill-rule="evenodd" clip-rule="evenodd" d="M5.15506 2.40044C4.74747 2.39719 4.35515 2.5551 4.06381 2.83966C3.77247 3.12423 3.60579 3.51233 3.60017 3.91918V20.2851C3.59815 20.4897 3.63696 20.6926 3.71434 20.882C3.79173 21.0714 3.90613 21.2435 4.05088 21.3883C4.19563 21.533 4.36782 21.6476 4.55741 21.7252C4.74699 21.8028 4.95016 21.842 5.15506 21.8403H19.0851C19.29 21.842 19.4932 21.8028 19.6828 21.7252C19.8724 21.6476 20.0446 21.533 20.1893 21.3883C20.3341 21.2435 20.4485 21.0714 20.5259 20.882C20.6032 20.6926 20.642 20.4897 20.64 20.2851V8.56046L14.8769 2.40044H5.15506Z" fill="#FFB300"/>
<path fill-rule="evenodd" clip-rule="evenodd" d="M14.8799 2.40039V6.86291C14.8791 7.10457 14.9274 7.34384 15.0218 7.566C15.1162 7.78816 15.2547 7.98852 15.4289 8.15474C15.603 8.32097 15.8091 8.44955 16.0344 8.53257C16.2597 8.61559 16.4995 8.6513 16.739 8.6375H20.6399L14.8799 2.40039Z" fill="#FFE57F"/>
<path d="M11.1348 16.211H11.6576V18.2565C11.6566 18.444 11.6168 18.6054 11.5382 18.7409C11.4596 18.8753 11.3498 18.979 11.2087 19.0519C11.0685 19.1239 10.9052 19.1599 10.7186 19.1599C10.5482 19.1599 10.3948 19.1296 10.2584 19.069C10.123 19.0074 10.0155 18.9165 9.93597 18.7963C9.85643 18.676 9.81665 18.5264 9.81665 18.3474H10.3408C10.3417 18.426 10.3588 18.4937 10.3919 18.5505C10.426 18.6073 10.4729 18.6509 10.5326 18.6812C10.5922 18.7115 10.6609 18.7267 10.7385 18.7267C10.8228 18.7267 10.8943 18.7091 10.953 18.6741C11.0117 18.6381 11.0562 18.5851 11.0865 18.515C11.1178 18.4449 11.1339 18.3588 11.1348 18.2565V16.211ZM13.8103 17.0107C13.797 16.8867 13.7411 16.7901 13.6426 16.721C13.5451 16.6518 13.4182 16.6173 13.262 16.6173C13.1521 16.6173 13.0579 16.6338 12.9793 16.667C12.9007 16.7001 12.8406 16.7451 12.7989 16.8019C12.7572 16.8588 12.7359 16.9236 12.735 16.9965C12.735 17.0571 12.7487 17.1097 12.7762 17.1542C12.8046 17.1987 12.8429 17.2366 12.8912 17.2678C12.9395 17.2981 12.993 17.3237 13.0517 17.3445C13.1104 17.3654 13.1696 17.3829 13.2293 17.3971L13.502 17.4653C13.6119 17.4909 13.7175 17.5254 13.8188 17.569C13.9211 17.6125 14.0124 17.6675 14.0929 17.7338C14.1744 17.8 14.2388 17.8801 14.2861 17.9738C14.3335 18.0676 14.3571 18.1774 14.3571 18.3034C14.3571 18.4738 14.3136 18.6239 14.2265 18.7536C14.1393 18.8824 14.0134 18.9833 13.8486 19.0562C13.6848 19.1282 13.4864 19.1642 13.2534 19.1642C13.0271 19.1642 12.8306 19.1291 12.664 19.059C12.4982 18.989 12.3685 18.8867 12.2747 18.7522C12.1819 18.6177 12.1318 18.4539 12.1242 18.2607H12.6426C12.6502 18.3621 12.6815 18.4463 12.7364 18.5136C12.7913 18.5808 12.8628 18.631 12.9509 18.6642C13.0399 18.6973 13.1393 18.7139 13.2492 18.7139C13.3638 18.7139 13.4641 18.6968 13.5503 18.6627C13.6374 18.6277 13.7056 18.5794 13.7549 18.5178C13.8041 18.4553 13.8292 18.3824 13.8301 18.2991C13.8292 18.2233 13.8069 18.1608 13.7634 18.1116C13.7198 18.0614 13.6587 18.0197 13.5801 17.9866C13.5025 17.9525 13.4116 17.9222 13.3074 17.8957L12.9765 17.8105C12.7369 17.7489 12.5475 17.6556 12.4083 17.5306C12.27 17.4047 12.2009 17.2375 12.2009 17.0292C12.2009 16.8578 12.2473 16.7077 12.3401 16.5789C12.4338 16.4501 12.5612 16.3502 12.7222 16.2792C12.8832 16.2072 13.0655 16.1713 13.2691 16.1713C13.4755 16.1713 13.6564 16.2072 13.8117 16.2792C13.9679 16.3502 14.0906 16.4492 14.1796 16.5761C14.2686 16.702 14.3145 16.8469 14.3174 17.0107H13.8103Z" fill="white"/>
</svg>
