<svg width="24" height="24" viewBox="0 0 24 24" fill="none" xmlns="http://www.w3.org/2000/svg">
<path fill-rule="evenodd" clip-rule="evenodd" d="M5.15506 2.40044C4.74747 2.39719 4.35515 2.5551 4.06381 2.83966C3.77247 3.12423 3.60579 3.51233 3.60017 3.91918V20.2851C3.59815 20.4897 3.63696 20.6926 3.71434 20.882C3.79173 21.0714 3.90613 21.2435 4.05088 21.3883C4.19563 21.533 4.36782 21.6476 4.55741 21.7252C4.74699 21.8028 4.95016 21.842 5.15506 21.8403H19.0851C19.29 21.842 19.4932 21.8028 19.6828 21.7252C19.8724 21.6476 20.0446 21.533 20.1893 21.3883C20.3341 21.2435 20.4485 21.0714 20.5259 20.882C20.6032 20.6926 20.642 20.4897 20.64 20.2851V8.56046L14.8769 2.40044H5.15506Z" fill="#673AB7"/>
<path d="M12.0002 9.99973V12.4097C11.8615 12.3224 11.7042 12.2687 11.5409 12.2531C11.3777 12.2375 11.2131 12.2603 11.0602 12.3197C10.8744 12.3874 10.7094 12.5023 10.5814 12.6531C10.4534 12.8039 10.3669 12.9854 10.3302 13.1797C10.2994 13.3569 10.3112 13.5388 10.3648 13.7104C10.4184 13.882 10.5122 14.0384 10.6383 14.1665C10.7645 14.2946 10.9194 14.3908 11.0902 14.447C11.2609 14.5032 11.4427 14.5179 11.6202 14.4897C11.8884 14.438 12.1297 14.2933 12.3017 14.0811C12.4736 13.8689 12.5652 13.6028 12.5602 13.3297V10.5897H13.1302C13.2788 10.5897 13.4212 10.5307 13.5262 10.4257C13.6312 10.3207 13.6902 10.1782 13.6902 10.0297C13.6902 9.88121 13.6312 9.73877 13.5262 9.63375C13.4212 9.52873 13.2788 9.46973 13.1302 9.46973H12.5602C12.4168 9.46952 12.2787 9.52438 12.1745 9.623C12.0703 9.72162 12.0079 9.85647 12.0002 9.99973Z" fill="#EDE7F6"/>
<path fill-rule="evenodd" clip-rule="evenodd" d="M14.8799 2.40039V6.86291C14.8791 7.10457 14.9274 7.34384 15.0218 7.566C15.1162 7.78816 15.2547 7.98852 15.4289 8.15474C15.603 8.32097 15.8091 8.44955 16.0344 8.53257C16.2597 8.61559 16.4995 8.6513 16.739 8.6375H20.6399L14.8799 2.40039Z" fill="#B388FF"/>
<path d="M7.97539 16.211H8.62027L9.48391 18.319H9.518L10.3816 16.211H11.0265V19.1201H10.5208V17.1215H10.4939L9.68988 19.1116H9.31204L8.50806 17.1173H8.48107V19.1201H7.97539V16.211ZM11.6004 19.1201V16.211H12.6913C12.9148 16.211 13.1023 16.2527 13.2538 16.336C13.4063 16.4194 13.5213 16.5339 13.599 16.6798C13.6776 16.8247 13.7169 16.9894 13.7169 17.1741C13.7169 17.3606 13.6776 17.5264 13.599 17.6713C13.5204 17.8161 13.4044 17.9302 13.251 18.0136C13.0975 18.096 12.9086 18.1372 12.6842 18.1372H11.9612V17.7039H12.6132C12.7439 17.7039 12.8509 17.6812 12.9342 17.6357C13.0175 17.5903 13.0791 17.5278 13.1189 17.4482C13.1596 17.3687 13.1799 17.2773 13.1799 17.1741C13.1799 17.0709 13.1596 16.98 13.1189 16.9014C13.0791 16.8228 13.0171 16.7617 12.9328 16.7181C12.8494 16.6736 12.742 16.6514 12.6103 16.6514H12.1274V19.1201H11.6004ZM14.0936 18.5803V18.1613L15.328 16.211H15.6774V16.8076H15.4644L14.6334 18.1244V18.1471H16.3564V18.5803H14.0936ZM15.4814 19.1201V18.4525L15.4871 18.265V16.211H15.9843V19.1201H15.4814Z" fill="white"/>
</svg>
