<svg width="24" height="24" viewBox="0 0 24 24" fill="none" xmlns="http://www.w3.org/2000/svg">
<path fill-rule="evenodd" clip-rule="evenodd" d="M5.15506 2.40044C4.74747 2.39719 4.35515 2.5551 4.06381 2.83966C3.77247 3.12423 3.60579 3.51233 3.60017 3.91918V20.2851C3.59815 20.4897 3.63696 20.6926 3.71434 20.882C3.79173 21.0714 3.90613 21.2435 4.05088 21.3883C4.19563 21.533 4.36782 21.6476 4.55741 21.7252C4.74699 21.8028 4.95016 21.842 5.15506 21.8403H19.0851C19.29 21.842 19.4932 21.8028 19.6828 21.7252C19.8724 21.6476 20.0446 21.533 20.1893 21.3883C20.3341 21.2435 20.4485 21.0714 20.5259 20.882C20.6032 20.6926 20.642 20.4897 20.64 20.2851V8.56046L14.8769 2.40044H5.15506Z" fill="#F44336"/>
<path fill-rule="evenodd" clip-rule="evenodd" d="M14.8799 2.40039V6.86291C14.8791 7.10457 14.9274 7.34384 15.0218 7.566C15.1162 7.78816 15.2547 7.98852 15.4289 8.15474C15.603 8.32097 15.8091 8.44955 16.0344 8.53257C16.2597 8.61559 16.4995 8.6513 16.739 8.6375H20.6399L14.8799 2.40039Z" fill="#FF8A80"/>
<path d="M8.49883 19.1201V16.211H9.58974C9.81322 16.211 10.0007 16.2527 10.1522 16.336C10.3047 16.4194 10.4198 16.5339 10.4974 16.6798C10.576 16.8247 10.6153 16.9894 10.6153 17.1741C10.6153 17.3606 10.576 17.5264 10.4974 17.6713C10.4188 17.8161 10.3028 17.9302 10.1494 18.0136C9.99598 18.096 9.80706 18.1372 9.58263 18.1372H8.85962V17.7039H9.51161C9.64229 17.7039 9.7493 17.6812 9.83263 17.6357C9.91597 17.5903 9.97752 17.5278 10.0173 17.4482C10.058 17.3687 10.0784 17.2773 10.0784 17.1741C10.0784 17.0709 10.058 16.98 10.0173 16.9014C9.97752 16.8228 9.91549 16.7617 9.83121 16.7181C9.74788 16.6736 9.6404 16.6514 9.50877 16.6514H9.02581V19.1201H8.49883ZM12.0588 19.1201H11.073V16.211H12.0787C12.3676 16.211 12.6157 16.2693 12.823 16.3857C13.0314 16.5013 13.1914 16.6675 13.3032 16.8843C13.4149 17.1012 13.4708 17.3606 13.4708 17.6627C13.4708 17.9658 13.4144 18.2262 13.3017 18.444C13.19 18.6618 13.0285 18.8289 12.8174 18.9454C12.6071 19.0619 12.3543 19.1201 12.0588 19.1201ZM11.6 18.6642H12.0333C12.2359 18.6642 12.405 18.6272 12.5404 18.5534C12.6758 18.4785 12.7776 18.3673 12.8458 18.2195C12.914 18.0709 12.948 17.8853 12.948 17.6627C12.948 17.4402 12.914 17.2555 12.8458 17.1088C12.7776 16.961 12.6767 16.8507 12.5432 16.7778C12.4106 16.7039 12.2459 16.667 12.0489 16.667H11.6V18.6642ZM13.9715 19.1201V16.211H15.8351V16.6528H14.4985V17.4426H15.7073V17.8843H14.4985V19.1201H13.9715Z" fill="white"/>
</svg>
