<svg width="24" height="24" viewBox="0 0 24 24" fill="none" xmlns="http://www.w3.org/2000/svg">
<path fill-rule="evenodd" clip-rule="evenodd" d="M5.15506 2.40044C4.74747 2.39719 4.35515 2.5551 4.06381 2.83966C3.77247 3.12423 3.60579 3.51233 3.60017 3.91918V20.2851C3.59815 20.4897 3.63696 20.6926 3.71434 20.882C3.79173 21.0714 3.90613 21.2435 4.05088 21.3883C4.19563 21.533 4.36782 21.6476 4.55741 21.7252C4.74699 21.8028 4.95016 21.842 5.15506 21.8403H19.0851C19.29 21.842 19.4932 21.8028 19.6828 21.7252C19.8724 21.6476 20.0446 21.533 20.1893 21.3883C20.3341 21.2435 20.4485 21.0714 20.5259 20.882C20.6032 20.6926 20.642 20.4897 20.64 20.2851V8.56046L14.8769 2.40044H5.15506Z" fill="#FF9800"/>
<path fill-rule="evenodd" clip-rule="evenodd" d="M14.8799 2.40039V6.86291C14.8791 7.10457 14.9274 7.34384 15.0218 7.566C15.1162 7.78816 15.2547 7.98852 15.4289 8.15474C15.603 8.32097 15.8091 8.44955 16.0344 8.53257C16.2597 8.61559 16.4995 8.6513 16.739 8.6375H20.6399L14.8799 2.40039Z" fill="#FFD180"/>
<path d="M8.5125 19.1201V16.211H9.60341C9.82689 16.211 10.0144 16.2527 10.1659 16.336C10.3184 16.4194 10.4334 16.5339 10.5111 16.6798C10.5897 16.8247 10.629 16.9894 10.629 17.1741C10.629 17.3606 10.5897 17.5264 10.5111 17.6713C10.4325 17.8161 10.3165 17.9302 10.1631 18.0136C10.0097 18.096 9.82074 18.1372 9.5963 18.1372H8.87329V17.7039H9.52528C9.65596 17.7039 9.76297 17.6812 9.8463 17.6357C9.92964 17.5903 9.99119 17.5278 10.031 17.4482C10.0717 17.3687 10.092 17.2773 10.092 17.1741C10.092 17.0709 10.0717 16.98 10.031 16.9014C9.99119 16.8228 9.92916 16.7617 9.84488 16.7181C9.76155 16.6736 9.65407 16.6514 9.52244 16.6514H9.03949V19.1201H8.5125ZM11.0867 19.1201V16.211H12.1776C12.4011 16.211 12.5886 16.2527 12.7401 16.336C12.8926 16.4194 13.0076 16.5339 13.0853 16.6798C13.1639 16.8247 13.2032 16.9894 13.2032 17.1741C13.2032 17.3606 13.1639 17.5264 13.0853 17.6713C13.0067 17.8161 12.8907 17.9302 12.7373 18.0136C12.5839 18.096 12.395 18.1372 12.1705 18.1372H11.4475V17.7039H12.0995C12.2302 17.7039 12.3372 17.6812 12.4205 17.6357C12.5039 17.5903 12.5654 17.5278 12.6052 17.4482C12.6459 17.3687 12.6663 17.2773 12.6663 17.1741C12.6663 17.0709 12.6459 16.98 12.6052 16.9014C12.5654 16.8228 12.5034 16.7617 12.4191 16.7181C12.3358 16.6736 12.2283 16.6514 12.0967 16.6514H11.6137V19.1201H11.0867ZM13.5331 16.6528V16.211H15.8541V16.6528H14.955V19.1201H14.4322V16.6528H13.5331Z" fill="white"/>
</svg>
