<svg width="24" height="24" viewBox="0 0 24 24" fill="none" xmlns="http://www.w3.org/2000/svg">
<path fill-rule="evenodd" clip-rule="evenodd" d="M5.15506 2.40044C4.74747 2.39719 4.35515 2.5551 4.06381 2.83966C3.77247 3.12423 3.60579 3.51233 3.60017 3.91918V20.2851C3.59815 20.4897 3.63696 20.6926 3.71434 20.882C3.79173 21.0714 3.90613 21.2435 4.05088 21.3883C4.19563 21.533 4.36782 21.6476 4.55741 21.7252C4.74699 21.8028 4.95016 21.842 5.15506 21.8403H19.0851C19.29 21.842 19.4932 21.8028 19.6828 21.7252C19.8724 21.6476 20.0446 21.533 20.1893 21.3883C20.3341 21.2435 20.4485 21.0714 20.5259 20.882C20.6032 20.6926 20.642 20.4897 20.64 20.2851V8.56046L14.8769 2.40044H5.15506Z" fill="#FF9800"/>
<path fill-rule="evenodd" clip-rule="evenodd" d="M14.8799 2.40039V6.86291C14.8791 7.10457 14.9274 7.34384 15.0218 7.566C15.1162 7.78816 15.2547 7.98852 15.4289 8.15474C15.603 8.32097 15.8091 8.44955 16.0344 8.53257C16.2597 8.61559 16.4995 8.6513 16.739 8.6375H20.6399L14.8799 2.40039Z" fill="#FFD180"/>
<path d="M7.13164 19.1201V16.211H8.22255C8.44603 16.211 8.63353 16.2527 8.78505 16.336C8.93751 16.4194 9.05257 16.5339 9.13022 16.6798C9.20882 16.8247 9.24812 16.9894 9.24812 17.1741C9.24812 17.3606 9.20882 17.5264 9.13022 17.6713C9.05162 17.8161 8.93562 17.9302 8.78221 18.0136C8.6288 18.096 8.43988 18.1372 8.21545 18.1372H7.49243V17.7039H8.14442C8.2751 17.7039 8.38211 17.6812 8.46545 17.6357C8.54878 17.5903 8.61033 17.5278 8.6501 17.4482C8.69082 17.3687 8.71118 17.2773 8.71118 17.1741C8.71118 17.0709 8.69082 16.98 8.6501 16.9014C8.61033 16.8228 8.54831 16.7617 8.46402 16.7181C8.38069 16.6736 8.27321 16.6514 8.14158 16.6514H7.65863V19.1201H7.13164ZM9.70586 19.1201V16.211H10.7968C11.0203 16.211 11.2078 16.2527 11.3593 16.336C11.5117 16.4194 11.6268 16.5339 11.7044 16.6798C11.783 16.8247 11.8223 16.9894 11.8223 17.1741C11.8223 17.3606 11.783 17.5264 11.7044 17.6713C11.6258 17.8161 11.5098 17.9302 11.3564 18.0136C11.203 18.096 11.0141 18.1372 10.7897 18.1372H10.0667V17.7039H10.7186C10.8493 17.7039 10.9563 17.6812 11.0397 17.6357C11.123 17.5903 11.1846 17.5278 11.2243 17.4482C11.265 17.3687 11.2854 17.2773 11.2854 17.1741C11.2854 17.0709 11.265 16.98 11.2243 16.9014C11.1846 16.8228 11.1225 16.7617 11.0382 16.7181C10.9549 16.6736 10.8474 16.6514 10.7158 16.6514H10.2328V19.1201H9.70586ZM12.1522 16.6528V16.211H14.4733V16.6528H13.5741V19.1201H13.0514V16.6528H12.1522ZM15.361 16.211L16.0017 17.2764H16.0244L16.6679 16.211H17.2687L16.3724 17.6656L17.2829 19.1201H16.6721L16.0244 18.0619H16.0017L15.3539 19.1201H14.746L15.665 17.6656L14.7573 16.211H15.361Z" fill="white"/>
</svg>
