<svg width="24" height="24" viewBox="0 0 24 24" fill="none" xmlns="http://www.w3.org/2000/svg">
<path fill-rule="evenodd" clip-rule="evenodd" d="M5.15506 2.40044C4.74747 2.39719 4.35515 2.5551 4.06381 2.83966C3.77247 3.12423 3.60579 3.51233 3.60017 3.91918V20.2851C3.59815 20.4897 3.63696 20.6926 3.71434 20.882C3.79173 21.0714 3.90613 21.2435 4.05088 21.3883C4.19563 21.533 4.36782 21.6476 4.55741 21.7252C4.74699 21.8028 4.95016 21.842 5.15506 21.8403H19.0851C19.29 21.842 19.4932 21.8028 19.6828 21.7252C19.8724 21.6476 20.0446 21.533 20.1893 21.3883C20.3341 21.2435 20.4485 21.0714 20.5259 20.882C20.6032 20.6926 20.642 20.4897 20.64 20.2851V8.56046L14.8769 2.40044H5.15506Z" fill="#4CAF50"/>
<path fill-rule="evenodd" clip-rule="evenodd" d="M14.8799 2.40039V6.86291C14.8791 7.10457 14.9274 7.34384 15.0218 7.566C15.1162 7.78816 15.2547 7.98852 15.4289 8.15474C15.603 8.32097 15.8091 8.44955 16.0344 8.53257C16.2597 8.61559 16.4995 8.6513 16.739 8.6375H20.6399L14.8799 2.40039Z" fill="#B9F6CA"/>
<path d="M9.03487 16.211L9.67549 17.2764H9.69822L10.3417 16.211H10.9425L10.0462 17.6656L10.9567 19.1201H10.3459L9.69822 18.0619H9.67549L9.02777 19.1201H8.41981L9.33885 17.6656L8.43118 16.211H9.03487ZM11.3562 19.1201V16.211H11.8832V18.6784H13.1645V19.1201H11.3562ZM15.2028 17.0107C15.1896 16.8867 15.1337 16.7901 15.0352 16.721C14.9377 16.6518 14.8108 16.6173 14.6545 16.6173C14.5447 16.6173 14.4505 16.6338 14.3719 16.667C14.2933 16.7001 14.2331 16.7451 14.1915 16.8019C14.1498 16.8588 14.1285 16.9236 14.1276 16.9965C14.1276 17.0571 14.1413 17.1097 14.1687 17.1542C14.1972 17.1987 14.2355 17.2366 14.2838 17.2678C14.3321 17.2981 14.3856 17.3237 14.4443 17.3445C14.503 17.3654 14.5622 17.3829 14.6219 17.3971L14.8946 17.4653C15.0044 17.4909 15.11 17.5254 15.2114 17.569C15.3136 17.6125 15.405 17.6675 15.4855 17.7338C15.5669 17.8 15.6313 17.8801 15.6787 17.9738C15.726 18.0676 15.7497 18.1774 15.7497 18.3034C15.7497 18.4738 15.7062 18.6239 15.619 18.7536C15.5319 18.8824 15.406 18.9833 15.2412 19.0562C15.0774 19.1282 14.879 19.1642 14.646 19.1642C14.4197 19.1642 14.2232 19.1291 14.0565 19.059C13.8908 18.989 13.7611 18.8867 13.6673 18.7522C13.5745 18.6177 13.5243 18.4539 13.5168 18.2607H14.0352C14.0428 18.3621 14.0741 18.4463 14.129 18.5136C14.1839 18.5808 14.2554 18.631 14.3435 18.6642C14.4325 18.6973 14.5319 18.7139 14.6418 18.7139C14.7563 18.7139 14.8567 18.6968 14.9429 18.6627C15.03 18.6277 15.0982 18.5794 15.1474 18.5178C15.1967 18.4553 15.2218 18.3824 15.2227 18.2991C15.2218 18.2233 15.1995 18.1608 15.156 18.1116C15.1124 18.0614 15.0513 18.0197 14.9727 17.9866C14.8951 17.9525 14.8042 17.9222 14.7 17.8957L14.369 17.8105C14.1294 17.7489 13.9401 17.6556 13.8009 17.5306C13.6626 17.4047 13.5935 17.2375 13.5935 17.0292C13.5935 16.8578 13.6399 16.7077 13.7327 16.5789C13.8264 16.4501 13.9538 16.3502 14.1148 16.2792C14.2758 16.2072 14.458 16.1713 14.6616 16.1713C14.8681 16.1713 15.049 16.2072 15.2043 16.2792C15.3605 16.3502 15.4831 16.4492 15.5722 16.5761C15.6612 16.702 15.7071 16.8469 15.7099 17.0107H15.2028Z" fill="white"/>
</svg>
