<svg width="24" height="24" viewBox="0 0 24 24" fill="none" xmlns="http://www.w3.org/2000/svg">
<path fill-rule="evenodd" clip-rule="evenodd" d="M5.15506 2.40044C4.74747 2.39719 4.35515 2.5551 4.06381 2.83966C3.77247 3.12423 3.60579 3.51233 3.60017 3.91918V20.2851C3.59815 20.4897 3.63696 20.6926 3.71434 20.882C3.79173 21.0714 3.90613 21.2435 4.05088 21.3883C4.19563 21.533 4.36782 21.6476 4.55741 21.7252C4.74699 21.8028 4.95016 21.842 5.15506 21.8403H19.0851C19.29 21.842 19.4932 21.8028 19.6828 21.7252C19.8724 21.6476 20.0446 21.533 20.1893 21.3883C20.3341 21.2435 20.4485 21.0714 20.5259 20.882C20.6032 20.6926 20.642 20.4897 20.64 20.2851V8.56046L14.8769 2.40044H5.15506Z" fill="#4CAF50"/>
<path fill-rule="evenodd" clip-rule="evenodd" d="M14.8799 2.40039V6.86291C14.8791 7.10457 14.9274 7.34384 15.0218 7.566C15.1162 7.78816 15.2547 7.98852 15.4289 8.15474C15.603 8.32097 15.8091 8.44955 16.0344 8.53257C16.2597 8.61559 16.4995 8.6513 16.739 8.6375H20.6399L14.8799 2.40039Z" fill="#B9F6CA"/>
<path d="M7.65401 16.211L8.29464 17.2764H8.31736L8.96083 16.211H9.56168L8.66537 17.6656L9.57589 19.1201H8.96509L8.31736 18.0619H8.29464L7.64691 19.1201H7.03895L7.95799 17.6656L7.05032 16.211H7.65401ZM9.97539 19.1201V16.211H10.5024V18.6784H11.7836V19.1201H9.97539ZM13.822 17.0107C13.8087 16.8867 13.7529 16.7901 13.6544 16.721C13.5568 16.6518 13.4299 16.6173 13.2737 16.6173C13.1638 16.6173 13.0696 16.6338 12.991 16.667C12.9124 16.7001 12.8523 16.7451 12.8106 16.8019C12.7689 16.8588 12.7476 16.9236 12.7467 16.9965C12.7467 17.0571 12.7604 17.1097 12.7879 17.1542C12.8163 17.1987 12.8546 17.2366 12.9029 17.2678C12.9512 17.2981 13.0047 17.3237 13.0635 17.3445C13.1222 17.3654 13.1814 17.3829 13.241 17.3971L13.5137 17.4653C13.6236 17.4909 13.7292 17.5254 13.8305 17.569C13.9328 17.6125 14.0242 17.6675 14.1046 17.7338C14.1861 17.8 14.2505 17.8801 14.2978 17.9738C14.3452 18.0676 14.3689 18.1774 14.3689 18.3034C14.3689 18.4738 14.3253 18.6239 14.2382 18.7536C14.1511 18.8824 14.0251 18.9833 13.8603 19.0562C13.6965 19.1282 13.4981 19.1642 13.2652 19.1642C13.0388 19.1642 12.8423 19.1291 12.6757 19.059C12.51 18.989 12.3802 18.8867 12.2865 18.7522C12.1937 18.6177 12.1435 18.4539 12.1359 18.2607H12.6544C12.6619 18.3621 12.6932 18.4463 12.7481 18.5136C12.803 18.5808 12.8745 18.631 12.9626 18.6642C13.0516 18.6973 13.1511 18.7139 13.2609 18.7139C13.3755 18.7139 13.4759 18.6968 13.562 18.6627C13.6492 18.6277 13.7173 18.5794 13.7666 18.5178C13.8158 18.4553 13.8409 18.3824 13.8419 18.2991C13.8409 18.2233 13.8187 18.1608 13.7751 18.1116C13.7315 18.0614 13.6705 18.0197 13.5919 17.9866C13.5142 17.9525 13.4233 17.9222 13.3191 17.8957L12.9882 17.8105C12.7486 17.7489 12.5592 17.6556 12.42 17.5306C12.2817 17.4047 12.2126 17.2375 12.2126 17.0292C12.2126 16.8578 12.259 16.7077 12.3518 16.5789C12.4456 16.4501 12.5729 16.3502 12.7339 16.2792C12.8949 16.2072 13.0772 16.1713 13.2808 16.1713C13.4872 16.1713 13.6681 16.2072 13.8234 16.2792C13.9796 16.3502 14.1023 16.4492 14.1913 16.5761C14.2803 16.702 14.3262 16.8469 14.3291 17.0107H13.822ZM15.279 16.211L15.9196 17.2764H15.9424L16.5858 16.211H17.1867L16.2904 17.6656L17.2009 19.1201H16.5901L15.9424 18.0619H15.9196L15.2719 19.1201H14.664L15.583 17.6656L14.6753 16.211H15.279Z" fill="white"/>
</svg>
