<svg width="24" height="24" viewBox="0 0 24 24" fill="none" xmlns="http://www.w3.org/2000/svg">
<path fill-rule="evenodd" clip-rule="evenodd" d="M5.15506 2.40044C4.74747 2.39719 4.35515 2.5551 4.06381 2.83966C3.77247 3.12423 3.60579 3.51233 3.60017 3.91918V20.2851C3.59815 20.4897 3.63696 20.6926 3.71434 20.882C3.79173 21.0714 3.90613 21.2435 4.05088 21.3883C4.19563 21.533 4.36782 21.6476 4.55741 21.7252C4.74699 21.8028 4.95016 21.842 5.15506 21.8403H19.0851C19.29 21.842 19.4932 21.8028 19.6828 21.7252C19.8724 21.6476 20.0446 21.533 20.1893 21.3883C20.3341 21.2435 20.4485 21.0714 20.5259 20.882C20.6032 20.6926 20.642 20.4897 20.64 20.2851V8.56046L14.8769 2.40044H5.15506Z" fill="#FFB300"/>
<rect x="5" y="4" width="5" height="7" fill="white"/>
<path d="M5 3H11C11.552 3 12 3.448 12 4V12C12 12.552 11.552 13 11 13H5C4.448 13 4 12.552 4 12V4C4 3.448 4.448 3 5 3ZM6 6H7V7H6V8H7V9H8V8H7V7H8V6H7V5H8V4H7V5H6V6Z" fill="#FFB300"/>
<path fill-rule="evenodd" clip-rule="evenodd" d="M14.8799 2.40039V6.86291C14.8791 7.10457 14.9274 7.34384 15.0218 7.566C15.1162 7.78816 15.2547 7.98852 15.4289 8.15474C15.603 8.32097 15.8091 8.44955 16.0344 8.53257C16.2597 8.61559 16.4995 8.6513 16.739 8.6375H20.6399L14.8799 2.40039Z" fill="#FFE57F"/>
<path d="M9.21243 19.1201V18.792L10.7039 16.6528H9.2039V16.211H11.3573V16.5392L9.86726 18.6784H11.3658V19.1201H9.21243ZM12.4028 16.211V19.1201H11.8758V16.211H12.4028ZM12.9734 19.1201V16.211H14.0643C14.2878 16.211 14.4753 16.2527 14.6268 16.336C14.7793 16.4194 14.8944 16.5339 14.972 16.6798C15.0506 16.8247 15.0899 16.9894 15.0899 17.1741C15.0899 17.3606 15.0506 17.5264 14.972 17.6713C14.8934 17.8161 14.7774 17.9302 14.624 18.0136C14.4706 18.096 14.2817 18.1372 14.0572 18.1372H13.3342V17.7039H13.9862C14.1169 17.7039 14.2239 17.6812 14.3072 17.6357C14.3906 17.5903 14.4521 17.5278 14.4919 17.4482C14.5326 17.3687 14.553 17.2773 14.553 17.1741C14.553 17.0709 14.5326 16.98 14.4919 16.9014C14.4521 16.8228 14.3901 16.7617 14.3058 16.7181C14.2225 16.6736 14.115 16.6514 13.9834 16.6514H13.5004V19.1201H12.9734Z" fill="white"/>
</svg>
