<svg width="138" height="59" viewBox="0 0 138 59" fill="none" xmlns="http://www.w3.org/2000/svg">
<path d="M27.1732 57.8735C22.2471 57.8735 17.7813 56.669 13.7759 54.26C9.81649 51.7987 6.68583 48.4208 4.38388 44.1265C2.12796 39.7798 1 34.8832 1 29.4368C1 23.9903 2.12796 19.1199 4.38388 14.8256C6.68583 10.4789 9.81649 7.10107 13.7759 4.69207C17.7813 2.23069 22.2701 1 27.2423 1C31.4319 1 35.2071 1.83792 38.5679 3.51375C40.9659 4.69332 42.5275 6.01914 44.0448 7.79667C44.9989 8.91448 44.4852 10.829 43.2655 11.5379C42.719 11.8556 42.1389 12.2401 41.5739 12.6978C40.77 13.3489 40.0516 14.0483 39.4706 14.6642C38.6318 15.5533 37.2847 15.5301 36.4384 14.6502C33.9421 12.0545 31.8453 11.8405 27.7948 11.8405C24.8022 11.8405 22.132 12.5999 19.784 14.1186C17.436 15.585 15.5944 17.6536 14.2593 20.3244C12.9702 22.9953 12.3256 26.0327 12.3256 29.4368C12.3256 32.8408 12.9702 35.8782 14.2593 38.5491C15.5944 41.22 17.436 43.3148 19.784 44.8335C22.132 46.2998 24.8022 47.033 27.7948 47.033C32.6289 47.033 36.6803 44.8597 39.9491 40.513L47.1312 48.0542C44.8292 51.2488 41.9748 53.684 38.5679 55.3598C35.161 57.0356 31.3628 57.8735 27.1732 57.8735Z" fill="#032D60"/>
<path d="M58.0139 57.931C54.1005 57.931 50.5785 57.0146 47.4479 55.1816C44.3633 53.2963 41.9462 50.704 40.1967 47.4047C38.4472 44.1054 37.5725 40.361 37.5725 36.1714C37.5725 31.9818 38.4472 28.2374 40.1967 24.9381C41.9462 21.6388 44.3633 19.0727 47.4479 17.2397C50.5785 15.3544 54.1005 14.4118 58.0139 14.4118C61.9272 14.4118 65.4261 15.3544 68.5108 17.2397C71.5954 19.0727 74.0124 21.6388 75.7619 24.9381C77.5114 28.2374 78.3862 31.9818 78.3862 36.1714C78.3862 40.361 77.5114 44.1054 75.7619 47.4047C74.0124 50.704 71.5954 53.2963 68.5108 55.1816C65.4261 57.0146 61.9272 57.931 58.0139 57.931ZM58.0139 47.876C60.7762 47.876 63.0321 46.8286 64.7816 44.7338C66.5771 42.5867 67.4749 39.7325 67.4749 36.1714C67.4749 32.6103 66.5771 29.7823 64.7816 27.6875C63.0321 25.5403 60.7762 24.4668 58.0139 24.4668C55.2515 24.4668 52.9726 25.5403 51.177 27.6875C49.3815 29.7823 48.4838 32.6103 48.4838 36.1714C48.4838 39.7325 49.3815 42.5867 51.177 44.7338C52.9726 46.8286 55.2515 47.876 58.0139 47.876Z" fill="#032D60"/>
<path fill-rule="evenodd" clip-rule="evenodd" d="M13.4216 55.0086L13.417 55.0058C9.34506 52.4744 6.11686 48.993 3.74517 44.5686L3.7424 44.5634L3.73969 44.5582C1.41043 40.0702 0.251953 35.0221 0.251953 29.436C0.251953 23.8499 1.41042 18.8262 3.74172 14.3884L3.74309 14.3858C6.11483 9.90735 9.34486 6.42265 13.4217 3.94187C17.5458 1.40791 22.1581 0.148438 27.2422 0.148438C31.5198 0.148438 35.3988 1.00421 38.8664 2.73292C41.3598 3.95968 43.001 5.35197 44.5812 7.20321C45.2729 8.01355 45.4087 9.09484 45.194 10.0339C44.9816 10.9629 44.4161 11.8237 43.6057 12.2947C43.0852 12.5972 42.5374 12.9607 42.0076 13.3899C41.2369 14.0142 40.5441 14.6882 39.9803 15.2858C38.8442 16.49 37.0554 16.4435 35.9337 15.2773C34.7664 14.0635 33.7271 13.4369 32.5196 13.097C31.2775 12.7473 29.8273 12.6905 27.7946 12.6905C24.9174 12.6905 22.377 13.4192 20.1535 14.8574L20.1487 14.8605L20.1438 14.8636C17.9198 16.2524 16.1791 18.2061 14.9121 20.7386C13.6921 23.2685 13.0734 26.1604 13.0734 29.436C13.0734 32.7116 13.6921 35.6035 14.9121 38.1334C16.1795 40.6666 17.9216 42.6482 20.1486 44.09C22.3727 45.4776 24.915 46.1814 27.7946 46.1814C31.5013 46.1814 34.7166 44.8498 37.4639 42.1581C37.0371 40.2654 36.8244 38.2686 36.8244 36.1706C36.8244 31.8401 37.7302 27.9413 39.5561 24.4979C41.3781 21.0619 43.8977 18.3891 47.0994 16.4861C50.3484 14.5299 53.9921 13.5602 58.0137 13.5602C62.0342 13.5602 65.6559 14.5294 68.8607 16.4871C72.0615 18.39 74.5806 21.0625 76.4022 24.4979C78.2281 27.9413 79.1339 31.8401 79.1339 36.1706C79.1339 40.501 78.2281 44.3999 76.4022 47.8433C74.581 51.2778 72.0632 53.9752 68.8646 55.9302L68.8608 55.9326L68.8569 55.9349C65.6527 57.8389 62.0324 58.781 58.0137 58.781C53.9948 58.781 50.3533 57.8388 47.1055 55.9372L47.0996 55.9338L47.0937 55.9302C45.778 55.126 44.5774 54.1962 43.4932 53.1411C42.078 54.3186 40.5348 55.3183 38.8646 56.1398C35.3527 57.8674 31.4516 58.7235 27.1731 58.7235C22.1359 58.7235 17.5485 57.4906 13.4261 55.0113L13.4216 55.0086ZM42.9215 52.5619C43.1275 52.3931 43.3307 52.2204 43.5312 52.044C43.7182 52.2383 43.9091 52.4286 44.1039 52.6148C45.1143 53.5805 46.2289 54.4358 47.4477 55.1808C50.5784 57.0137 54.1004 57.9302 58.0137 57.9302C61.927 57.9302 65.426 57.0137 68.5106 55.1808C71.5952 53.2955 74.0123 50.7032 75.7618 47.4039C77.5113 44.1046 78.386 40.3602 78.386 36.1706C78.386 31.981 77.5113 28.2366 75.7618 24.9373C74.0123 21.638 71.5952 19.0719 68.5106 17.2389C65.426 15.3536 61.927 14.4109 58.0137 14.4109C54.1004 14.4109 50.5784 15.3536 47.4477 17.2389C44.3631 19.0719 41.9461 21.638 40.1966 24.9373C38.4471 28.2366 37.5723 31.981 37.5723 36.1706C37.5723 38.0382 37.7462 39.8174 38.0938 41.5082C38.1587 41.8237 38.2296 42.136 38.3066 42.4454C38.1021 42.6571 37.895 42.8615 37.6852 43.0585C34.8654 45.7076 31.5685 47.0322 27.7946 47.0322C24.8021 47.0322 22.1318 46.299 19.7838 44.8327C17.4358 43.3139 15.5943 41.2191 14.2591 38.5483C12.97 35.8774 12.3255 32.84 12.3255 29.436C12.3255 26.0319 12.97 22.9945 14.2591 20.3236C15.5943 17.6528 17.4358 15.5842 19.7838 14.1178C22.1318 12.5991 24.8021 11.8397 27.7946 11.8397C31.8451 11.8397 33.942 12.0537 36.4383 14.6493C37.2846 15.5293 38.6316 15.5525 39.4704 14.6634C40.0515 14.0475 40.7699 13.3481 41.5737 12.6969C42.1387 12.2393 42.7189 11.8548 43.2654 11.5371C44.4851 10.8282 44.9988 8.91367 44.0446 7.79585C42.5273 6.01832 40.9658 4.6925 38.5678 3.51293C35.2069 1.8371 31.4317 0.999184 27.2422 0.999184C22.2699 0.999184 17.7811 2.22987 13.7757 4.69125C9.81635 7.10026 6.68569 10.4781 4.38373 14.8248C2.12782 19.1191 0.999858 23.9895 0.999858 29.436C0.999858 34.8824 2.12782 39.779 4.38373 44.1257C6.68569 48.42 9.81635 51.7978 13.7757 54.2592C17.7811 56.6682 22.2469 57.8727 27.1731 57.8727C31.3627 57.8727 35.1609 57.0348 38.5678 55.359C40.1361 54.5875 41.5873 53.6552 42.9215 52.5619ZM64.2392 44.1471L64.2396 44.1467C65.877 42.1886 66.7268 39.5602 66.7268 36.1706C66.7268 32.7802 65.8768 30.1833 64.246 28.2806L64.2393 28.2729L64.2329 28.265C62.6362 26.3053 60.5849 25.3167 58.0137 25.3167C55.4424 25.3167 53.3639 26.3058 51.7188 28.273L51.7156 28.2768L51.7124 28.2806C50.0815 30.1833 49.2315 32.7802 49.2315 36.1706C49.2315 39.5579 50.0802 42.185 51.7154 44.1426C53.3585 46.0578 55.438 47.0245 58.0137 47.0245C60.591 47.0245 62.6441 46.057 64.2392 44.1471ZM64.7815 44.733C63.032 46.8278 60.776 47.8752 58.0137 47.8752C55.2514 47.8752 52.9724 46.8278 51.1769 44.733C49.3814 42.5859 48.4836 39.7317 48.4836 36.1706C48.4836 32.6094 49.3814 29.7815 51.1769 27.6867C52.9724 25.5395 55.2514 24.4659 58.0137 24.4659C60.776 24.4659 63.032 25.5395 64.7815 27.6867C66.577 29.7815 67.4747 32.6094 67.4747 36.1706C67.4747 39.7317 66.577 42.5859 64.7815 44.733Z" fill="#032D60"/>
<path d="M69.8076 9.50746C69.8076 4.80892 73.1561 1 77.2867 1H92.7024C98.1741 1 99.4349 1.83878 103.611 4.22735C107.834 6.56164 107.189 12.3457 109.493 16.6343C111.845 20.9229 111.249 23.8 111.249 29.5C111.249 35.2 111.845 36.4327 109.493 40.7212C107.189 45.0098 107.834 50.2491 103.611 52.6376C99.4349 54.9719 98.1741 58 92.7024 58H77.2867C73.1561 58 69.8076 54.1911 69.8076 49.4925C69.8076 44.794 73.9211 37.9989 73.9211 30.1381C73.9211 22.2772 69.8076 14.206 69.8076 9.50746ZM90.7707 47.17C96.623 47.17 99.6455 40.9431 101.531 37.3882C102.891 34.826 103.23 31.8367 103.23 29.061C103.23 26.2853 102.853 22.6318 101.531 20.3068C99.4071 16.5695 97.0006 11.83 90.7707 11.83H85.2105C83.1452 11.83 81.471 13.7345 81.471 16.0837C81.471 18.433 84.2048 20.9925 84.2048 30.1381C84.2048 38.4328 81.471 40.567 81.471 42.9163C81.471 45.2655 83.1452 47.17 85.2105 47.17H90.7707Z" fill="url(#paint0_linear_2_14288)"/>
<path d="M132.075 57.8773C128.429 57.8773 125.01 55.8618 122.908 52.473L115.555 40.618C114.806 39.4108 113.23 39.4184 112.49 40.6326L105.33 52.385C103.234 55.825 99.7889 57.8773 96.1095 57.8773H90.7276C89.8071 57.8773 89.2783 56.6858 89.825 55.8434L101.587 37.7166C104.973 32.4971 104.999 25.3839 101.65 20.1329L90.7391 3.02549C90.2011 2.18185 90.7309 1 91.6472 1H97.0324C100.642 1 104.031 2.97536 106.139 6.30797L112.916 17.0225C113.666 18.2085 115.22 18.2007 115.961 17.0071L122.546 6.40036C124.648 3.01385 128.065 1 131.71 1H134.893C136.424 1 137.306 2.97852 136.401 4.38353L121.706 27.2077C121.225 27.9555 121.225 28.9719 121.706 29.72L137.636 54.4948C138.54 55.8999 137.658 57.8773 136.127 57.8773H132.075Z" fill="url(#paint1_linear_2_14288)"/>
<path fill-rule="evenodd" clip-rule="evenodd" d="M13.4216 55.0086L13.417 55.0058C9.34506 52.4744 6.11686 48.993 3.74517 44.5686L3.7424 44.5634L3.73969 44.5582C1.41043 40.0702 0.251953 35.0221 0.251953 29.436C0.251953 23.8499 1.41042 18.8262 3.74172 14.3884L3.74309 14.3858C6.11483 9.90735 9.34486 6.42265 13.4217 3.94187C17.5458 1.40791 22.1581 0.148438 27.2422 0.148438C31.5198 0.148438 35.3988 1.00421 38.8664 2.73292C41.3598 3.95968 43.001 5.35197 44.5812 7.20321C45.2729 8.01355 45.4087 9.09484 45.194 10.0339C44.9816 10.9629 44.4161 11.8237 43.6057 12.2947C43.0852 12.5972 42.5374 12.9607 42.0076 13.3899C41.2369 14.0142 40.5441 14.6882 39.9803 15.2858C38.8442 16.49 37.0554 16.4435 35.9337 15.2773C34.7664 14.0635 33.7271 13.4369 32.5196 13.097C31.2775 12.7473 29.8273 12.6905 27.7946 12.6905C24.9174 12.6905 22.377 13.4192 20.1535 14.8574L20.1487 14.8605L20.1438 14.8636C17.9198 16.2524 16.1791 18.2061 14.9121 20.7386C13.6921 23.2685 13.0734 26.1604 13.0734 29.436C13.0734 32.7116 13.6921 35.6035 14.9121 38.1334C16.1795 40.6666 17.9216 42.6482 20.1486 44.09C22.3727 45.4776 24.915 46.1814 27.7946 46.1814C31.5013 46.1814 34.7166 44.8498 37.4639 42.1581C37.0371 40.2654 36.8244 38.2686 36.8244 36.1706C36.8244 31.8401 37.7302 27.9413 39.5561 24.4979C41.3781 21.0619 43.8977 18.3891 47.0994 16.4861C50.3484 14.5299 53.9921 13.5602 58.0137 13.5602C62.0342 13.5602 65.6559 14.5294 68.8607 16.4871C72.0615 18.39 74.5806 21.0625 76.4022 24.4979C78.2281 27.9413 79.1339 31.8401 79.1339 36.1706C79.1339 40.501 78.2281 44.3999 76.4022 47.8433C74.581 51.2778 72.0632 53.9752 68.8646 55.9302L68.8608 55.9326L68.8569 55.9349C65.6527 57.8389 62.0324 58.781 58.0137 58.781C53.9948 58.781 50.3533 57.8388 47.1055 55.9372L47.0996 55.9338L47.0937 55.9302C45.778 55.126 44.5774 54.1962 43.4932 53.1411C42.078 54.3186 40.5348 55.3183 38.8646 56.1398C35.3527 57.8674 31.4516 58.7235 27.1731 58.7235C22.1359 58.7235 17.5485 57.4906 13.4261 55.0113L13.4216 55.0086ZM42.9215 52.5619C43.1275 52.3931 43.3307 52.2204 43.5312 52.044C43.7182 52.2383 43.9091 52.4286 44.1039 52.6148C45.1143 53.5805 46.2289 54.4358 47.4477 55.1808C50.5784 57.0137 54.1004 57.9302 58.0137 57.9302C61.927 57.9302 65.426 57.0137 68.5106 55.1808C71.5952 53.2955 74.0123 50.7032 75.7618 47.4039C77.5113 44.1046 78.386 40.3602 78.386 36.1706C78.386 31.981 77.5113 28.2366 75.7618 24.9373C74.0123 21.638 71.5952 19.0719 68.5106 17.2389C65.426 15.3536 61.927 14.4109 58.0137 14.4109C54.1004 14.4109 50.5784 15.3536 47.4477 17.2389C44.3631 19.0719 41.9461 21.638 40.1966 24.9373C38.4471 28.2366 37.5723 31.981 37.5723 36.1706C37.5723 38.0382 37.7462 39.8174 38.0938 41.5082C38.1587 41.8237 38.2296 42.136 38.3066 42.4454C38.1021 42.6571 37.895 42.8615 37.6852 43.0585C34.8654 45.7076 31.5685 47.0322 27.7946 47.0322C24.8021 47.0322 22.1318 46.299 19.7838 44.8327C17.4358 43.3139 15.5943 41.2191 14.2591 38.5483C12.97 35.8774 12.3255 32.84 12.3255 29.436C12.3255 26.0319 12.97 22.9945 14.2591 20.3236C15.5943 17.6528 17.4358 15.5842 19.7838 14.1178C22.1318 12.5991 24.8021 11.8397 27.7946 11.8397C31.8451 11.8397 33.942 12.0537 36.4383 14.6493C37.2846 15.5293 38.6316 15.5525 39.4704 14.6634C40.0515 14.0475 40.7699 13.3481 41.5737 12.6969C42.1387 12.2393 42.7189 11.8548 43.2654 11.5371C44.4851 10.8282 44.9988 8.91367 44.0446 7.79585C42.5273 6.01832 40.9658 4.6925 38.5678 3.51293C35.2069 1.8371 31.4317 0.999184 27.2422 0.999184C22.2699 0.999184 17.7811 2.22987 13.7757 4.69125C9.81635 7.10026 6.68569 10.4781 4.38373 14.8248C2.12782 19.1191 0.999858 23.9895 0.999858 29.436C0.999858 34.8824 2.12782 39.779 4.38373 44.1257C6.68569 48.42 9.81635 51.7978 13.7757 54.2592C17.7811 56.6682 22.2469 57.8727 27.1731 57.8727C31.3627 57.8727 35.1609 57.0348 38.5678 55.359C40.1361 54.5875 41.5873 53.6552 42.9215 52.5619ZM64.2392 44.1471L64.2396 44.1467C65.877 42.1886 66.7268 39.5602 66.7268 36.1706C66.7268 32.7802 65.8768 30.1833 64.246 28.2806L64.2393 28.2729L64.2329 28.265C62.6362 26.3053 60.5849 25.3167 58.0137 25.3167C55.4424 25.3167 53.3639 26.3058 51.7188 28.273L51.7156 28.2768L51.7124 28.2806C50.0815 30.1833 49.2315 32.7802 49.2315 36.1706C49.2315 39.5579 50.0802 42.185 51.7154 44.1426C53.3585 46.0578 55.438 47.0245 58.0137 47.0245C60.591 47.0245 62.6441 46.057 64.2392 44.1471ZM64.7815 44.733C63.032 46.8278 60.776 47.8752 58.0137 47.8752C55.2514 47.8752 52.9724 46.8278 51.1769 44.733C49.3814 42.5859 48.4836 39.7317 48.4836 36.1706C48.4836 32.6094 49.3814 29.7815 51.1769 27.6867C52.9724 25.5395 55.2514 24.4659 58.0137 24.4659C60.776 24.4659 63.032 25.5395 64.7815 27.6867C66.577 29.7815 67.4747 32.6094 67.4747 36.1706C67.4747 39.7317 66.577 42.5859 64.7815 44.733Z" fill="#032D60"/>
<path d="M58.2654 28.4393H58.0309V26.4658L57.5608 26.6851V26.4162L58.2289 26.0977H58.2654V28.4393Z" fill="#032D60"/>
<path d="M59.9994 27.7696C59.9461 28.1097 59.8608 28.3509 59.7434 28.4932C59.626 28.6354 59.47 28.682 59.2755 28.6329C59.0835 28.5844 58.9539 28.4679 58.8869 28.2834C58.82 28.0978 58.81 27.844 58.8571 27.5219L58.9178 27.1341C58.9704 26.7982 59.0553 26.5601 59.1723 26.42C59.2894 26.2798 59.4456 26.2344 59.6409 26.2838C59.8346 26.3327 59.9648 26.4477 60.0316 26.6288C60.0985 26.8089 60.1074 27.0636 60.0584 27.3928L59.9994 27.7696ZM59.8329 27.3147C59.8714 27.0687 59.8722 26.8829 59.8354 26.7572C59.7987 26.6304 59.7214 26.5521 59.6036 26.5224C59.4865 26.4928 59.3924 26.5273 59.3213 26.6257C59.2502 26.7242 59.1956 26.8893 59.1576 27.1213L59.0848 27.5859C59.0461 27.8329 59.0455 28.0226 59.083 28.155C59.1215 28.2866 59.1981 28.3669 59.3126 28.3958C59.4256 28.4243 59.5179 28.39 59.5897 28.2928C59.6623 28.1958 59.7185 28.0283 59.7584 27.7903L59.8329 27.3147Z" fill="#032D60"/>
<path d="M60.6184 29.1534L60.4018 29.0395L60.9966 27.2162L60.4961 27.1903L60.5771 26.9419L61.2903 26.9722L61.3241 26.99L60.6184 29.1534Z" fill="#032D60"/>
<path d="M62.4222 29.3773C62.2705 29.6656 62.1189 29.847 61.9676 29.9214C61.8163 29.9957 61.6582 29.963 61.4933 29.8231C61.3305 29.6849 61.2459 29.5144 61.2395 29.3113C61.2336 29.1074 61.301 28.8681 61.4415 28.5933L61.6145 28.2646C61.7643 27.9798 61.9145 27.8011 62.0649 27.7285C62.2153 27.6559 62.3733 27.6898 62.5389 27.8303C62.7031 27.9696 62.7887 28.1392 62.7958 28.339C62.8033 28.5379 62.7348 28.7775 62.5903 29.0579L62.4222 29.3773ZM62.4055 28.876C62.5152 28.6675 62.572 28.4963 62.5758 28.3622C62.5801 28.2273 62.5323 28.1174 62.4324 28.0326C62.3332 27.9484 62.2359 27.9346 62.1405 27.991C62.0451 28.0474 61.9449 28.1734 61.8399 28.3692L61.6326 28.7632C61.5224 28.9725 61.4647 29.1475 61.4595 29.2881C61.4554 29.4284 61.5019 29.5397 61.599 29.6221C61.6948 29.7033 61.7904 29.7165 61.886 29.6616C61.9823 29.6072 62.0848 29.4798 62.1933 29.2793L62.4055 28.876Z" fill="#032D60"/>
<path d="M62.577 30.9565L62.4113 30.746L63.5103 29.3505L63.0557 29.0834L63.2054 28.8933L63.8552 29.2679L63.8811 29.3007L62.577 30.9565Z" fill="#032D60"/>
<path d="M64.1761 32.0399C63.949 32.2325 63.7544 32.3265 63.5921 32.3216C63.4299 32.3168 63.2937 32.2097 63.1835 32.0003C63.0747 31.7936 63.048 31.5949 63.1033 31.4042C63.1593 31.213 63.2937 31.0246 63.5063 30.839L63.7652 30.6194C63.9895 30.4291 64.182 30.3369 64.3429 30.3429C64.5037 30.3489 64.6394 30.4571 64.7501 30.6674C64.8598 30.8759 64.8878 31.0741 64.8341 31.2621C64.7811 31.4495 64.6456 31.6376 64.4276 31.8264L64.1761 32.0399ZM64.3117 31.5687C64.4759 31.4294 64.58 31.2987 64.6239 31.1767C64.6686 31.0541 64.6575 30.9294 64.5908 30.8025C64.5245 30.6765 64.4388 30.6164 64.3337 30.6222C64.2285 30.6279 64.098 30.6957 63.9419 30.8256L63.6317 31.0888C63.4668 31.2287 63.3607 31.3623 63.3135 31.4896C63.2675 31.6173 63.2769 31.7427 63.3418 31.8661C63.4058 31.9876 63.4902 32.0462 63.5951 32.042C63.7004 32.0386 63.8334 31.9706 63.9941 31.8381L64.3117 31.5687Z" fill="#032D60"/>
<path d="M63.8432 33.5741L63.7535 33.2991L65.1894 32.5438L64.8499 32.0762L65.0456 31.9733L65.533 32.6351L65.547 32.678L63.8432 33.5741Z" fill="#032D60"/>
<path d="M64.994 35.352C64.7262 35.4197 64.518 35.4119 64.3696 35.3286C64.2212 35.2453 64.1276 35.0802 64.0889 34.8332C64.0507 34.5893 64.0859 34.3928 64.1945 34.2435C64.3039 34.094 64.4848 33.9852 64.7371 33.9171L65.0425 33.84C65.3071 33.7732 65.5127 33.7816 65.6595 33.8653C65.8063 33.949 65.8991 34.1149 65.938 34.3629C65.9765 34.6088 65.9426 34.8056 65.8364 34.9532C65.7309 35.1006 65.5491 35.2086 65.2908 35.2771L64.994 35.352ZM65.2613 34.9826C65.455 34.9337 65.5906 34.8635 65.6679 34.7722C65.7461 34.6806 65.7735 34.56 65.75 34.4104C65.7268 34.2617 65.6657 34.1646 65.5669 34.1188C65.468 34.0731 65.3269 34.0722 65.1436 34.1164L64.7777 34.2088C64.5832 34.2579 64.4449 34.3298 64.3629 34.4245C64.2819 34.5201 64.2528 34.6406 64.2756 34.786C64.2981 34.9294 64.3584 35.0246 64.4566 35.0716C64.5549 35.1197 64.6983 35.1215 64.8867 35.0772L65.2613 34.9826Z" fill="#032D60"/>
<path d="M64.2241 36.6077V36.31H65.7783L65.6056 35.713H65.8174L66.0682 36.5613V36.6077H64.2241Z" fill="#032D60"/>
<path d="M64.7515 38.8095C64.4836 38.7418 64.2937 38.6335 64.1817 38.4844C64.0696 38.3354 64.033 38.1373 64.0717 37.8903C64.1099 37.6465 64.2016 37.482 64.3469 37.3968C64.493 37.3119 64.6929 37.2993 64.9466 37.359L65.252 37.4361C65.5165 37.503 65.704 37.6107 65.8144 37.7593C65.9248 37.908 65.9605 38.1063 65.9217 38.3543C65.8831 38.6003 65.7926 38.7656 65.6499 38.8504C65.5081 38.9353 65.3075 38.9467 65.0482 38.8844L64.7515 38.8095ZM65.1098 38.5981C65.3035 38.647 65.4498 38.6481 65.5488 38.6013C65.6487 38.5547 65.7103 38.4565 65.7338 38.3069C65.757 38.1583 65.7299 38.0388 65.6524 37.9485C65.5748 37.8582 65.4448 37.7889 65.2621 37.7406L64.8962 37.6482C64.7016 37.599 64.5522 37.5983 64.448 37.6459C64.3443 37.6948 64.2811 37.792 64.2583 37.9375C64.2359 38.0809 64.2629 38.1981 64.3395 38.2893C64.4158 38.3815 64.5478 38.4529 64.7352 38.5035L65.1098 38.5981Z" fill="#032D60"/>
<path d="M63.6617 39.5955L63.7514 39.3204L65.1873 40.0757L65.2077 39.4402L65.4034 39.5431L65.3795 40.4487L65.3655 40.4916L63.6617 39.5955Z" fill="#032D60"/>
<path d="M63.4854 41.8859C63.2583 41.6933 63.1155 41.5009 63.0569 41.3087C62.9983 41.1166 63.0241 40.9158 63.1343 40.7064C63.2431 40.4997 63.3774 40.3923 63.5373 40.3842C63.6979 40.3767 63.8864 40.4622 64.1028 40.6407L64.3617 40.8603C64.586 41.0506 64.7267 41.2412 64.7839 41.4322C64.8411 41.6232 64.8143 41.8238 64.7037 42.0341C64.594 42.2426 64.4604 42.3513 64.3031 42.3603C64.1465 42.3698 63.9578 42.2828 63.737 42.0994L63.4854 41.8859ZM63.8801 41.8647C64.0443 42.004 64.1792 42.0761 64.2848 42.081C64.3911 42.0865 64.4776 42.0258 64.5444 41.8989C64.6107 41.7729 64.6216 41.6494 64.5772 41.5283C64.5328 41.4072 64.4335 41.2799 64.2793 41.1465L63.969 40.8833C63.8041 40.7434 63.6663 40.6701 63.5556 40.6635C63.4452 40.6583 63.3575 40.7174 63.2926 40.8407C63.2286 40.9622 63.2183 41.0837 63.2615 41.2051C63.3043 41.3274 63.4046 41.4574 63.5626 41.5953L63.8801 41.8647Z" fill="#032D60"/>
<path d="M62.2417 42.0825L62.4075 41.872L63.5065 43.2675L63.7168 42.6903L63.8666 42.8805L63.5715 43.7055L63.5457 43.7384L62.2417 42.0825Z" fill="#032D60"/>
<path d="M61.3885 44.113C61.2368 43.8246 61.1628 43.5775 61.1666 43.3715C61.1704 43.1655 61.2547 42.9925 61.4196 42.8526C61.5824 42.7145 61.7389 42.6806 61.8891 42.7508C62.0397 42.8219 62.1881 42.9925 62.3342 43.2625L62.5072 43.5912C62.657 43.876 62.7296 44.1205 62.7249 44.3247C62.7202 44.5289 62.635 44.7013 62.4694 44.8418C62.3052 44.9811 62.1491 45.0167 62.001 44.9485C61.8534 44.8812 61.7053 44.7092 61.5566 44.4324L61.3885 44.113ZM61.7596 44.2852C61.8693 44.4937 61.9722 44.6258 62.0683 44.6816C62.1648 44.7383 62.263 44.7243 62.363 44.6395C62.4622 44.5553 62.5095 44.4465 62.505 44.313C62.5004 44.1796 62.447 44.0138 62.3448 43.8156L62.1375 43.4217C62.0273 43.2123 61.9221 43.0776 61.8218 43.0177C61.7213 42.9592 61.6225 42.9712 61.5254 43.0536C61.4297 43.1348 61.3835 43.242 61.3868 43.3752C61.3895 43.5089 61.443 43.6779 61.5474 43.8819L61.7596 44.2852Z" fill="#032D60"/>
<path d="M60.1802 43.6903L60.3968 43.5763L60.9916 45.3996L61.3599 44.9686L61.4409 45.217L60.9197 45.8359L60.8859 45.8537L60.1802 43.6903Z" fill="#032D60"/>
<path d="M58.78 45.1516C58.7268 44.8114 58.7329 44.5471 58.7985 44.3587C58.8641 44.1702 58.9941 44.0514 59.1886 44.0023C59.3807 43.9538 59.5355 43.9985 59.6531 44.1363C59.7708 44.2752 59.8564 44.5049 59.9101 44.8254L59.9708 45.2131C60.0234 45.5491 60.0168 45.8102 59.9509 45.9966C59.885 46.183 59.7544 46.3008 59.559 46.3502C59.3653 46.3991 59.2104 46.3561 59.0941 46.2212C58.978 46.0873 58.893 45.8563 58.8391 45.5283L58.78 45.1516ZM59.071 45.491C59.1095 45.7369 59.1647 45.909 59.2367 46.0073C59.3088 46.1065 59.4038 46.1413 59.5216 46.1115C59.6387 46.082 59.7152 46.0044 59.7512 45.8789C59.7873 45.7534 59.7879 45.5743 59.7532 45.3415L59.6804 44.8769C59.6417 44.6299 59.5851 44.4543 59.5105 44.3502C59.4352 44.2474 59.3403 44.2104 59.2258 44.2393C59.1129 44.2679 59.0379 44.3445 59.0009 44.4691C58.963 44.594 58.9616 44.7761 58.9965 45.0153L59.071 45.491Z" fill="#032D60"/>
<path d="M57.7911 44.1739H58.0256V46.1474L58.4958 45.9281V46.197L57.8277 46.5156H57.7911V44.1739Z" fill="#032D60"/>
<path d="M56.0571 44.8436C56.1104 44.5035 56.1958 44.2623 56.3131 44.12C56.4305 43.9778 56.5865 43.9312 56.781 43.9804C56.973 44.0289 57.1026 44.1454 57.1697 44.3298C57.2366 44.5154 57.2465 44.7692 57.1995 45.0913L57.1387 45.4791C57.0861 45.815 57.0012 46.0531 56.8842 46.1932C56.7671 46.3334 56.6109 46.3788 56.4156 46.3295C56.2219 46.2805 56.0917 46.1655 56.0249 45.9844C55.9581 45.8043 55.9491 45.5496 55.9981 45.2204L56.0571 44.8436ZM56.2236 45.2985C56.1851 45.5445 56.1843 45.7303 56.2211 45.856C56.2578 45.9828 56.3351 46.0611 56.453 46.0908C56.57 46.1204 56.6641 46.086 56.7352 45.9875C56.8063 45.8891 56.8609 45.7239 56.8989 45.492L56.9717 45.0273C57.0104 44.7803 57.011 44.5906 56.9735 44.4582C56.935 44.3266 56.8584 44.2463 56.7439 44.2174C56.631 44.1889 56.5386 44.2232 56.4668 44.3204C56.3942 44.4174 56.338 44.5849 56.2981 44.8229L56.2236 45.2985Z" fill="#032D60"/>
<path d="M55.4381 43.4598L55.6547 43.5737L55.06 45.397L55.5604 45.4229L55.4794 45.6713L54.7662 45.641L54.7324 45.6232L55.4381 43.4598Z" fill="#032D60"/>
<path d="M53.6343 43.236C53.786 42.9476 53.9376 42.7662 54.0889 42.6919C54.2402 42.6175 54.3983 42.6502 54.5632 42.7902C54.726 42.9283 54.8106 43.0989 54.817 43.3019C54.8229 43.5058 54.7555 43.7451 54.615 44.0199L54.442 44.3486C54.2922 44.6334 54.142 44.8121 53.9916 44.8847C53.8413 44.9573 53.6833 44.9234 53.5177 44.7829C53.3535 44.6436 53.2678 44.474 53.2608 44.2742C53.2532 44.0754 53.3217 43.8357 53.4662 43.5554L53.6343 43.236ZM53.651 43.7372C53.5413 43.9457 53.4845 44.1169 53.4807 44.251C53.4764 44.386 53.5242 44.4958 53.6241 44.5806C53.7233 44.6648 53.8206 44.6787 53.916 44.6223C54.0114 44.5659 54.1116 44.4398 54.2166 44.244L54.4239 43.8501C54.5341 43.6407 54.5918 43.4657 54.5971 43.3251C54.6011 43.1849 54.5546 43.0735 54.4575 42.9911C54.3618 42.9099 54.2661 42.8967 54.1705 42.9517C54.0742 43.006 53.9718 43.1334 53.8632 43.3339L53.651 43.7372Z" fill="#032D60"/>
<path d="M53.4795 41.6567L53.6453 41.8672L52.5462 43.2627L53.0008 43.5298L52.8511 43.7199L52.2013 43.3453L52.1754 43.3125L53.4795 41.6567Z" fill="#032D60"/>
<path d="M51.8804 40.5734C52.1075 40.3807 52.3022 40.2868 52.4644 40.2916C52.6266 40.2964 52.7628 40.4035 52.873 40.6129C52.9818 40.8196 53.0085 41.0183 52.9532 41.209C52.8972 41.4002 52.7629 41.5886 52.5502 41.7742L52.2913 41.9938C52.067 42.1841 51.8745 42.2763 51.7136 42.2703C51.5528 42.2643 51.4171 42.1561 51.3064 41.9459C51.1967 41.7374 51.1687 41.5391 51.2224 41.3511C51.2754 41.1637 51.4109 40.9756 51.6289 40.7868L51.8804 40.5734ZM51.7448 41.0445C51.5806 41.1839 51.4765 41.3145 51.4326 41.4365C51.3879 41.5591 51.399 41.6838 51.4657 41.8107C51.532 41.9367 51.6177 41.9968 51.7229 41.991C51.828 41.9853 51.9586 41.9175 52.1146 41.7876L52.4248 41.5244C52.5897 41.3845 52.6958 41.2509 52.743 41.1236C52.7891 40.996 52.7796 40.8705 52.7147 40.7472C52.6508 40.6256 52.5663 40.567 52.4615 40.5713C52.3561 40.5747 52.2231 40.6426 52.0624 40.7751L51.7448 41.0445Z" fill="#032D60"/>
<path d="M52.2133 39.0391L52.3031 39.3141L50.8671 40.0694L51.2066 40.537L51.0109 40.6399L50.5235 39.9781L50.5095 39.9352L52.2133 39.0391Z" fill="#032D60"/>
<path d="M51.0625 37.2612C51.3303 37.1936 51.5385 37.2014 51.6869 37.2846C51.8353 37.3679 51.9289 37.5331 51.9676 37.78C52.0058 38.0239 51.9706 38.2205 51.862 38.3697C51.7526 38.5192 51.5718 38.628 51.3194 38.6961L51.014 38.7732C50.7494 38.84 50.5438 38.8316 50.397 38.7479C50.2502 38.6642 50.1574 38.4984 50.1185 38.2503C50.08 38.0044 50.1139 37.8076 50.2201 37.66C50.3256 37.5126 50.5074 37.4047 50.7658 37.3362L51.0625 37.2612ZM50.7952 37.6306C50.6015 37.6796 50.466 37.7497 50.3886 37.841C50.3104 37.9326 50.283 38.0532 50.3065 38.2029C50.3297 38.3515 50.3908 38.4487 50.4897 38.4944C50.5885 38.5402 50.7296 38.541 50.9129 38.4969L51.2788 38.4044C51.4733 38.3553 51.6116 38.2834 51.6936 38.1887C51.7746 38.0932 51.8037 37.9727 51.7809 37.8272C51.7584 37.6838 51.6981 37.5886 51.5999 37.5416C51.5016 37.4936 51.3582 37.4917 51.1698 37.536L50.7952 37.6306Z" fill="#032D60"/>
<path d="M51.8325 36.0055V36.3032H50.2782L50.4509 36.9002H50.2391L49.9883 36.0519V36.0055H51.8325Z" fill="#032D60"/>
<path d="M51.305 33.8037C51.5729 33.8714 51.7628 33.9797 51.8749 34.1288C51.9869 34.2779 52.0236 34.4759 51.9849 34.7229C51.9467 34.9667 51.8549 35.1312 51.7096 35.2164C51.5635 35.3013 51.3636 35.3139 51.1099 35.2542L50.8046 35.1771C50.54 35.1103 50.3525 35.0025 50.2421 34.8539C50.1317 34.7052 50.096 34.5069 50.1348 34.2589C50.1734 34.0129 50.264 33.8476 50.4066 33.7629C50.5484 33.6779 50.749 33.6666 51.0083 33.7288L51.305 33.8037ZM50.9467 34.0151C50.753 33.9662 50.6067 33.9652 50.5077 34.012C50.4078 34.0586 50.3462 34.1567 50.3228 34.3063C50.2995 34.4549 50.3266 34.5744 50.4041 34.6647C50.4817 34.755 50.6118 34.8243 50.7944 34.8726L51.1604 34.965C51.3549 35.0142 51.5043 35.0149 51.6086 34.9673C51.7122 34.9184 51.7754 34.8212 51.7982 34.6757C51.8206 34.5323 51.7936 34.4151 51.7171 34.3239C51.6407 34.2318 51.5088 34.1604 51.3213 34.1098L50.9467 34.0151Z" fill="#032D60"/>
<path d="M52.3948 33.0177L52.3051 33.2928L50.8692 32.5375L50.8488 33.173L50.6531 33.0701L50.677 32.1645L50.691 32.1216L52.3948 33.0177Z" fill="#032D60"/>
<path d="M52.5711 30.7273C52.7982 30.9199 52.941 31.1124 52.9996 31.3045C53.0582 31.4967 53.0324 31.6974 52.9222 31.9068C52.8134 32.1135 52.6791 32.2209 52.5192 32.229C52.3586 32.2365 52.1701 32.151 51.9537 31.9726L51.6948 31.7529C51.4705 31.5626 51.3298 31.372 51.2726 31.181C51.2155 30.9901 51.2422 30.7894 51.3528 30.5792C51.4626 30.3707 51.5961 30.2619 51.7534 30.253C51.91 30.2434 52.0988 30.3304 52.3196 30.5139L52.5711 30.7273ZM52.1764 30.7485C52.0122 30.6092 51.8773 30.5371 51.7717 30.5322C51.6654 30.5268 51.5789 30.5875 51.5121 30.7143C51.4459 30.8403 51.4349 30.9639 51.4793 31.085C51.5237 31.2061 51.623 31.3333 51.7772 31.4667L52.0875 31.7299C52.2524 31.8698 52.3902 31.9431 52.5009 31.9498C52.6114 31.9549 52.699 31.8959 52.7639 31.7725C52.8279 31.651 52.8383 31.5295 52.795 31.4081C52.7522 31.2858 52.6519 31.1558 52.494 31.0179L52.1764 30.7485Z" fill="#032D60"/>
<path d="M53.8148 30.5307L53.6491 30.7412L52.55 29.3457L52.3397 29.9229L52.1899 29.7328L52.485 28.9077L52.5108 28.8749L53.8148 30.5307Z" fill="#032D60"/>
<path d="M54.668 28.5002C54.8197 28.7886 54.8937 29.0358 54.8899 29.2417C54.8861 29.4477 54.8018 29.6207 54.6369 29.7606C54.4741 29.8987 54.3176 29.9327 54.1674 29.8624C54.0168 29.7913 53.8684 29.6207 53.7223 29.3507L53.5493 29.022C53.3995 28.7372 53.3269 28.4927 53.3316 28.2885C53.3363 28.0843 53.4215 27.9119 53.5871 27.7714C53.7513 27.6321 53.9074 27.5965 54.0555 27.6647C54.2031 27.732 54.3512 27.904 54.4999 28.1808L54.668 28.5002ZM54.2969 28.328C54.1872 28.1195 54.0843 27.9874 53.9882 27.9316C53.8917 27.8749 53.7935 27.8889 53.6936 27.9737C53.5943 28.0579 53.547 28.1667 53.5515 28.3002C53.5561 28.4336 53.6095 28.5995 53.7117 28.7976L53.919 29.1915C54.0292 29.4009 54.1344 29.5356 54.2347 29.5955C54.3352 29.654 54.434 29.642 54.5311 29.5596C54.6269 29.4784 54.673 29.3712 54.6697 29.238C54.667 29.1043 54.6135 28.9354 54.5091 28.7313L54.2969 28.328Z" fill="#032D60"/>
<path d="M55.8763 28.923L55.6597 29.0369L55.0649 27.2136L54.6966 27.6446L54.6156 27.3962L55.1368 26.7773L55.1706 26.7595L55.8763 28.923Z" fill="#032D60"/>
<path d="M57.2765 27.4616C57.3298 27.8018 57.3236 28.0661 57.258 28.2545C57.1924 28.443 57.0624 28.5618 56.8679 28.6109C56.6758 28.6594 56.521 28.6148 56.4035 28.4769C56.2857 28.338 56.2001 28.1083 56.1464 27.7879L56.0857 27.4001C56.0331 27.0642 56.0397 26.803 56.1056 26.6166C56.1715 26.4303 56.3022 26.3124 56.4975 26.2631C56.6912 26.2141 56.8462 26.2571 56.9624 26.3921C57.0785 26.5259 57.1635 26.7569 57.2174 27.0849L57.2765 27.4616ZM56.9855 27.1222C56.947 26.8763 56.8918 26.7042 56.8198 26.606C56.7477 26.5067 56.6527 26.4719 56.5349 26.5017C56.4178 26.5312 56.3413 26.6088 56.3053 26.7343C56.2692 26.8598 56.2686 27.0389 56.3033 27.2717L56.3761 27.7364C56.4148 27.9834 56.4715 28.1589 56.546 28.263C56.6213 28.3659 56.7162 28.4028 56.8307 28.3739C56.9437 28.3454 57.0186 28.2688 57.0556 28.1441C57.0935 28.0192 57.095 27.8371 57.06 27.5979L56.9855 27.1222Z" fill="#032D60"/>
<defs>
<linearGradient id="paint0_linear_2_14288" x1="103.904" y1="1" x2="103.904" y2="58" gradientUnits="userSpaceOnUse">
<stop stop-color="#F4B941"/>
<stop offset="1" stop-color="#EA496F"/>
</linearGradient>
<linearGradient id="paint1_linear_2_14288" x1="103.904" y1="1" x2="103.904" y2="58" gradientUnits="userSpaceOnUse">
<stop stop-color="#F4B941"/>
<stop offset="1" stop-color="#EA496F"/>
</linearGradient>
</defs>
</svg>
