<svg width="100" height="100" viewBox="0 0 100 100" fill="none" xmlns="http://www.w3.org/2000/svg">
<path fill-rule="evenodd" clip-rule="evenodd" d="M32 35C32 33.4087 32.6321 31.8826 33.7574 30.7574C34.8826 29.6321 36.4087 29 38 29H53.879C54.6746 29.0002 55.4375 29.3164 56 29.879L67.121 41C67.6836 41.5625 67.9998 42.3254 68 43.121V65C68 66.5913 67.3679 68.1174 66.2426 69.2426C65.1174 70.3679 63.5913 71 62 71H38C36.4087 71 34.8826 70.3679 33.7574 69.2426C32.6321 68.1174 32 66.5913 32 65V35ZM53 41V32L65 44H56C55.2044 44 54.4413 43.6839 53.8787 43.1213C53.3161 42.5587 53 41.7956 53 41ZM45.5 42.5C45.5 42.1022 45.342 41.7206 45.0607 41.4393C44.7794 41.158 44.3978 41 44 41C43.6022 41 43.2206 41.158 42.9393 41.4393C42.658 41.7206 42.5 42.1022 42.5 42.5V44.402L40.853 43.451C40.6823 43.351 40.4936 43.2857 40.2976 43.2589C40.1016 43.2321 39.9022 43.2443 39.711 43.2949C39.5197 43.3454 39.3404 43.4333 39.1832 43.5535C39.0261 43.6736 38.8943 43.8237 38.7954 43.995C38.6964 44.1663 38.6324 44.3555 38.6069 44.5517C38.5814 44.7479 38.595 44.9471 38.6468 45.138C38.6986 45.3289 38.7877 45.5077 38.9089 45.6641C39.0301 45.8204 39.181 45.9512 39.353 46.049L41 47L39.353 47.951C39.181 48.0488 39.0301 48.1796 38.9089 48.3359C38.7877 48.4923 38.6986 48.6711 38.6468 48.862C38.595 49.0529 38.5814 49.2521 38.6069 49.4483C38.6324 49.6445 38.6964 49.8337 38.7954 50.005C38.8943 50.1763 39.0261 50.3264 39.1832 50.4465C39.3404 50.5667 39.5197 50.6546 39.711 50.7051C39.9022 50.7557 40.1016 50.7679 40.2976 50.7411C40.4936 50.7143 40.6823 50.649 40.853 50.549L42.5 49.598V51.5C42.5 51.8978 42.658 52.2794 42.9393 52.5607C43.2206 52.842 43.6022 53 44 53C44.3978 53 44.7794 52.842 45.0607 52.5607C45.342 52.2794 45.5 51.8978 45.5 51.5V49.598L47.147 50.549C47.3177 50.649 47.5064 50.7143 47.7024 50.7411C47.8984 50.7679 48.0978 50.7557 48.289 50.7051C48.4803 50.6546 48.6596 50.5667 48.8168 50.4465C48.9739 50.3264 49.1057 50.1763 49.2046 50.005C49.3036 49.8337 49.3676 49.6445 49.3931 49.4483C49.4186 49.2521 49.405 49.0529 49.3532 48.862C49.3014 48.6711 49.2123 48.4923 49.0911 48.3359C48.9699 48.1796 48.819 48.0488 48.647 47.951L47 47L48.647 46.049C48.819 45.9512 48.9699 45.8204 49.0911 45.6641C49.2123 45.5077 49.3014 45.3289 49.3532 45.138C49.405 44.9471 49.4186 44.7479 49.3931 44.5517C49.3676 44.3555 49.3036 44.1663 49.2046 43.995C49.1057 43.8237 48.9739 43.6736 48.8168 43.5535C48.6596 43.4333 48.4803 43.3454 48.289 43.2949C48.0978 43.2443 47.8984 43.2321 47.7024 43.2589C47.5064 43.2857 47.3177 43.351 47.147 43.451L45.5 44.402V42.5ZM39.5 56C39.1022 56 38.7206 56.158 38.4393 56.4393C38.158 56.7206 38 57.1022 38 57.5C38 57.8978 38.158 58.2794 38.4393 58.5607C38.7206 58.842 39.1022 59 39.5 59H54.5C54.8978 59 55.2794 58.842 55.5607 58.5607C55.842 58.2794 56 57.8978 56 57.5C56 57.1022 55.842 56.7206 55.5607 56.4393C55.2794 56.158 54.8978 56 54.5 56H39.5ZM39.5 62C39.1022 62 38.7206 62.158 38.4393 62.4393C38.158 62.7206 38 63.1022 38 63.5C38 63.8978 38.158 64.2794 38.4393 64.5607C38.7206 64.842 39.1022 65 39.5 65H54.5C54.8978 65 55.2794 64.842 55.5607 64.5607C55.842 64.2794 56 63.8978 56 63.5C56 63.1022 55.842 62.7206 55.5607 62.4393C55.2794 62.158 54.8978 62 54.5 62H39.5Z" fill="url(#paint0_linear_12130_810)"/>
<defs>
<linearGradient id="paint0_linear_12130_810" x1="34.592" y1="29.5596" x2="74.9252" y2="38.2713" gradientUnits="userSpaceOnUse">
<stop stop-color="#006FED"/>
<stop offset="0.1875" stop-color="#0077FF"/>
<stop offset="1" stop-color="#00F0FF"/>
</linearGradient>
</defs>
</svg>
