<svg width="30" height="30" viewBox="0 0 30 30" fill="none" xmlns="http://www.w3.org/2000/svg">
<path d="M20.121 1H6C4.3455 1 3 2.2572 3 3.8V26.2C3 27.7442 4.3455 29 6 29H24C25.6545 29 27 27.7442 27 26.2V7.4204L20.121 1ZM18 9.4V2.4L25.5 9.4H18Z" fill="url(#paint0_linear_1302_13256)"/>
<path d="M18.9994 25.5326C19.9461 25.5326 20.7136 24.7845 20.7136 23.8616C20.7136 22.9388 19.9461 22.1907 18.9994 22.1907C18.0526 22.1907 17.2852 22.9388 17.2852 23.8616C17.2852 24.7845 18.0526 25.5326 18.9994 25.5326Z" fill="white"/>
<path d="M11.2884 25.5326C12.2352 25.5326 13.0027 24.7845 13.0027 23.8616C13.0027 22.9388 12.2352 22.1907 11.2884 22.1907C10.3417 22.1907 9.57422 22.9388 9.57422 23.8616C9.57422 24.7845 10.3417 25.5326 11.2884 25.5326Z" fill="white"/>
<path d="M21.5383 15.7028C20.4626 14.0636 18.5856 13 16.4839 13C16.4745 13 16.4659 13.0017 16.4565 13.0017C16.4471 13.0017 16.4376 13 16.4282 13C12.9818 13 10.137 15.4822 9.65276 18.7105L9.57133 18.8484H8.71422C7.76797 18.8484 7 19.597 7 20.5194V23.0258C7 23.487 7.38399 23.8613 7.85711 23.8613H8.71422C8.71422 22.4777 9.86618 21.3548 11.2856 21.3548C12.7049 21.3548 13.8569 22.4777 13.8569 23.8613H16.4282C16.4282 22.4777 17.5802 21.3548 18.9995 21.3548C20.4189 21.3548 21.5709 22.4777 21.5709 23.8613H22.428C22.9011 23.8613 23.2851 23.487 23.2851 23.0258V20.5194C23.2842 18.8108 22.6208 17.0772 21.5383 15.7028ZM11.3618 18.8484C11.7715 16.4781 13.88 14.671 16.4274 14.671C18.9747 14.671 21.084 16.4781 21.4929 18.8484H11.3618Z" fill="white"/>
<defs>
<linearGradient id="paint0_linear_1302_13256" x1="4.728" y1="1.3731" x2="31.6168" y2="7.18087" gradientUnits="userSpaceOnUse">
<stop stop-color="#006FED"/>
<stop offset="0.1875" stop-color="#0077FF"/>
<stop offset="1" stop-color="#00F0FF"/>
</linearGradient>
</defs>
</svg>
