<svg width="100" height="100" viewBox="0 0 100 100" fill="none" xmlns="http://www.w3.org/2000/svg">
<path opacity="0.5" d="M29.6001 41.8V32.2C29.6001 30.4336 31.0337 29 32.8001 29H42.4001C43.4065 29 44.3569 29.4752 44.9601 30.28L48.8001 35.4H66.4001C68.1665 35.4 69.6001 36.8336 69.6001 38.6V41.8H29.6001Z" fill="url(#paint0_linear_12130_784)"/>
<path d="M70.7967 43.5996H29.2032C26.9696 43.5996 25.4224 45.8316 26.2064 47.9228L33.4064 67.1228C33.8752 68.3708 35.0688 69.1996 36.4031 69.1996H63.5967C64.9311 69.1996 66.1247 68.3708 66.5935 67.1228L73.7935 47.9228C74.5775 45.8316 73.0319 43.5996 70.7967 43.5996V43.5996ZM60.3999 64.3996H52.3999C51.0751 64.3996 49.9999 63.3244 49.9999 61.9996C49.9999 60.6748 51.0751 59.5996 52.3999 59.5996H60.3999C61.7247 59.5996 62.7999 60.6748 62.7999 61.9996C62.7999 63.3244 61.7247 64.3996 60.3999 64.3996Z" fill="url(#paint1_linear_12130_784)"/>
<defs>
<linearGradient id="paint0_linear_12130_784" x1="32.4801" y1="29.1706" x2="61.432" y2="51.9694" gradientUnits="userSpaceOnUse">
<stop stop-color="#006FED"/>
<stop offset="0.1875" stop-color="#0077FF"/>
<stop offset="1" stop-color="#00F0FF"/>
</linearGradient>
<linearGradient id="paint1_linear_12130_784" x1="29.456" y1="43.9407" x2="75.4703" y2="65.6817" gradientUnits="userSpaceOnUse">
<stop stop-color="#006FED"/>
<stop offset="0.1875" stop-color="#0077FF"/>
<stop offset="1" stop-color="#00F0FF"/>
</linearGradient>
</defs>
</svg>
