<svg width="100" height="100" viewBox="0 0 100 100" fill="none" xmlns="http://www.w3.org/2000/svg">
<g clip-path="url(#clip0_12130_738)">
<path d="M26 32C26 30.4087 26.6321 28.8826 27.7574 27.7574C28.8826 26.6321 30.4087 26 32 26H68C69.5913 26 71.1174 26.6321 72.2426 27.7574C73.3679 28.8826 74 30.4087 74 32H26Z" fill="url(#paint0_linear_12130_738)"/>
<path fill-rule="evenodd" clip-rule="evenodd" d="M26 35H74V68C74 69.5913 73.3679 71.1174 72.2426 72.2426C71.1174 73.3679 69.5913 74 68 74H32C30.4087 74 28.8826 73.3679 27.7574 72.2426C26.6321 71.1174 26 69.5913 26 68V35ZM45.5 47C46.2956 47 47.0587 46.6839 47.6213 46.1213C48.1839 45.5587 48.5 44.7956 48.5 44C48.5 43.2044 48.1839 42.4413 47.6213 41.8787C47.0587 41.3161 46.2956 41 45.5 41C44.7044 41 43.9413 41.3161 43.3787 41.8787C42.8161 42.4413 42.5 43.2044 42.5 44C42.5 44.7956 42.8161 45.5587 43.3787 46.1213C43.9413 46.6839 44.7044 47 45.5 47ZM57.5 44C57.5 44.7956 57.1839 45.5587 56.6213 46.1213C56.0587 46.6839 55.2956 47 54.5 47C53.7044 47 52.9413 46.6839 52.3787 46.1213C51.8161 45.5587 51.5 44.7956 51.5 44C51.5 43.2044 51.8161 42.4413 52.3787 41.8787C52.9413 41.3161 53.7044 41 54.5 41C55.2956 41 56.0587 41.3161 56.6213 41.8787C57.1839 42.4413 57.5 43.2044 57.5 44ZM63.5 47C64.2956 47 65.0587 46.6839 65.6213 46.1213C66.1839 45.5587 66.5 44.7956 66.5 44C66.5 43.2044 66.1839 42.4413 65.6213 41.8787C65.0587 41.3161 64.2956 41 63.5 41C62.7044 41 61.9413 41.3161 61.3787 41.8787C60.8161 42.4413 60.5 43.2044 60.5 44C60.5 44.7956 60.8161 45.5587 61.3787 46.1213C61.9413 46.6839 62.7044 47 63.5 47V47ZM39.5 53C39.5 53.7956 39.1839 54.5587 38.6213 55.1213C38.0587 55.6839 37.2956 56 36.5 56C35.7044 56 34.9413 55.6839 34.3787 55.1213C33.8161 54.5587 33.5 53.7956 33.5 53C33.5 52.2044 33.8161 51.4413 34.3787 50.8787C34.9413 50.3161 35.7044 50 36.5 50C37.2956 50 38.0587 50.3161 38.6213 50.8787C39.1839 51.4413 39.5 52.2044 39.5 53V53ZM45.5 56C46.2956 56 47.0587 55.6839 47.6213 55.1213C48.1839 54.5587 48.5 53.7956 48.5 53C48.5 52.2044 48.1839 51.4413 47.6213 50.8787C47.0587 50.3161 46.2956 50 45.5 50C44.7044 50 43.9413 50.3161 43.3787 50.8787C42.8161 51.4413 42.5 52.2044 42.5 53C42.5 53.7956 42.8161 54.5587 43.3787 55.1213C43.9413 55.6839 44.7044 56 45.5 56ZM57.5 53C57.5 53.7956 57.1839 54.5587 56.6213 55.1213C56.0587 55.6839 55.2956 56 54.5 56C53.7044 56 52.9413 55.6839 52.3787 55.1213C51.8161 54.5587 51.5 53.7956 51.5 53C51.5 52.2044 51.8161 51.4413 52.3787 50.8787C52.9413 50.3161 53.7044 50 54.5 50C55.2956 50 56.0587 50.3161 56.6213 50.8787C57.1839 51.4413 57.5 52.2044 57.5 53V53ZM63.5 56C64.2956 56 65.0587 55.6839 65.6213 55.1213C66.1839 54.5587 66.5 53.7956 66.5 53C66.5 52.2044 66.1839 51.4413 65.6213 50.8787C65.0587 50.3161 64.2956 50 63.5 50C62.7044 50 61.9413 50.3161 61.3787 50.8787C60.8161 51.4413 60.5 52.2044 60.5 53C60.5 53.7956 60.8161 54.5587 61.3787 55.1213C61.9413 55.6839 62.7044 56 63.5 56V56ZM39.5 62C39.5 62.7956 39.1839 63.5587 38.6213 64.1213C38.0587 64.6839 37.2956 65 36.5 65C35.7044 65 34.9413 64.6839 34.3787 64.1213C33.8161 63.5587 33.5 62.7956 33.5 62C33.5 61.2044 33.8161 60.4413 34.3787 59.8787C34.9413 59.3161 35.7044 59 36.5 59C37.2956 59 38.0587 59.3161 38.6213 59.8787C39.1839 60.4413 39.5 61.2044 39.5 62V62ZM45.5 65C46.2956 65 47.0587 64.6839 47.6213 64.1213C48.1839 63.5587 48.5 62.7956 48.5 62C48.5 61.2044 48.1839 60.4413 47.6213 59.8787C47.0587 59.3161 46.2956 59 45.5 59C44.7044 59 43.9413 59.3161 43.3787 59.8787C42.8161 60.4413 42.5 61.2044 42.5 62C42.5 62.7956 42.8161 63.5587 43.3787 64.1213C43.9413 64.6839 44.7044 65 45.5 65ZM57.5 62C57.5 62.7956 57.1839 63.5587 56.6213 64.1213C56.0587 64.6839 55.2956 65 54.5 65C53.7044 65 52.9413 64.6839 52.3787 64.1213C51.8161 63.5587 51.5 62.7956 51.5 62C51.5 61.2044 51.8161 60.4413 52.3787 59.8787C52.9413 59.3161 53.7044 59 54.5 59C55.2956 59 56.0587 59.3161 56.6213 59.8787C57.1839 60.4413 57.5 61.2044 57.5 62V62Z" fill="url(#paint1_linear_12130_738)"/>
</g>
<defs>
<linearGradient id="paint0_linear_12130_738" x1="50" y1="26" x2="50" y2="32" gradientUnits="userSpaceOnUse">
<stop stop-color="#F4B941"/>
<stop offset="1" stop-color="#EA496F"/>
</linearGradient>
<linearGradient id="paint1_linear_12130_738" x1="29.456" y1="35.5197" x2="80.8035" y2="51.4447" gradientUnits="userSpaceOnUse">
<stop stop-color="#006FED"/>
<stop offset="0.1875" stop-color="#0077FF"/>
<stop offset="1" stop-color="#00F0FF"/>
</linearGradient>
<clipPath id="clip0_12130_738">
<rect width="48" height="48" fill="white" transform="translate(26 26)"/>
</clipPath>
</defs>
</svg>
