<svg width="12" height="12" viewBox="0 0 12 12" fill="none" xmlns="http://www.w3.org/2000/svg">
<rect width="12" height="12" rx="6" fill="#F64E60"/>
<path d="M8.42188 5.52344V5.79297C8.42188 6.22526 8.36328 6.61328 8.24609 6.95703C8.12891 7.30078 7.96354 7.59375 7.75 7.83594C7.53646 8.07552 7.28125 8.25911 6.98438 8.38672C6.6901 8.51432 6.36328 8.57812 6.00391 8.57812C5.64714 8.57812 5.32031 8.51432 5.02344 8.38672C4.72917 8.25911 4.47396 8.07552 4.25781 7.83594C4.04167 7.59375 3.8737 7.30078 3.75391 6.95703C3.63672 6.61328 3.57812 6.22526 3.57812 5.79297V5.52344C3.57812 5.08854 3.63672 4.70052 3.75391 4.35938C3.87109 4.01562 4.03646 3.72266 4.25 3.48047C4.46615 3.23828 4.72135 3.05339 5.01562 2.92578C5.3125 2.79818 5.63932 2.73438 5.99609 2.73438C6.35547 2.73438 6.68229 2.79818 6.97656 2.92578C7.27344 3.05339 7.52865 3.23828 7.74219 3.48047C7.95833 3.72266 8.125 4.01562 8.24219 4.35938C8.36198 4.70052 8.42188 5.08854 8.42188 5.52344ZM7.23828 5.79297V5.51562C7.23828 5.21354 7.21094 4.94792 7.15625 4.71875C7.10156 4.48958 7.02083 4.29688 6.91406 4.14062C6.80729 3.98438 6.67708 3.86719 6.52344 3.78906C6.36979 3.70833 6.19401 3.66797 5.99609 3.66797C5.79818 3.66797 5.6224 3.70833 5.46875 3.78906C5.31771 3.86719 5.1888 3.98438 5.08203 4.14062C4.97786 4.29688 4.89844 4.48958 4.84375 4.71875C4.78906 4.94792 4.76172 5.21354 4.76172 5.51562V5.79297C4.76172 6.09245 4.78906 6.35807 4.84375 6.58984C4.89844 6.81901 4.97917 7.01302 5.08594 7.17188C5.19271 7.32812 5.32292 7.44661 5.47656 7.52734C5.63021 7.60807 5.80599 7.64844 6.00391 7.64844C6.20182 7.64844 6.3776 7.60807 6.53125 7.52734C6.6849 7.44661 6.8138 7.32812 6.91797 7.17188C7.02214 7.01302 7.10156 6.81901 7.15625 6.58984C7.21094 6.35807 7.23828 6.09245 7.23828 5.79297Z" fill="#F4F7FF"/>
</svg>
