<svg width="30" height="30" viewBox="0 0 30 30" fill="none" xmlns="http://www.w3.org/2000/svg">
<g clip-path="url(#clip0_13266_15599)">
<path fill-rule="evenodd" clip-rule="evenodd" d="M25.8924 5.625H18.4261C17.4316 5.62479 16.478 5.22956 15.7749 4.52625L14.2224 2.97375C13.5193 2.27044 12.5656 1.87521 11.5711 1.875H4.6861C3.69154 1.875 2.73771 2.27009 2.03445 2.97335C1.33119 3.67661 0.936102 4.63044 0.936102 5.625L1.0111 7.25625C0.516413 7.9754 0.289503 8.84522 0.369852 9.71438L1.56423 22.8394C1.64889 23.7711 2.07877 24.6375 2.76947 25.2685C3.46017 25.8996 4.3618 26.2496 5.29735 26.25H24.6999C25.6354 26.2496 26.537 25.8996 27.2277 25.2685C27.9184 24.6375 28.3483 23.7711 28.433 22.8394L29.6274 9.71438C29.6745 9.19541 29.613 8.67232 29.4467 8.17846C29.2805 7.68459 29.0131 7.23081 28.6616 6.84604C28.3102 6.46127 27.8825 6.15397 27.4057 5.94373C26.9288 5.7335 26.4135 5.62495 25.8924 5.625V5.625ZM4.10485 5.625C3.65485 5.625 3.2236 5.70375 2.82235 5.85L2.8111 5.5875C2.82092 5.09675 3.02279 4.62941 3.37336 4.28585C3.72393 3.94229 4.19525 3.7499 4.6861 3.75H11.5711C12.0683 3.75011 12.5452 3.94772 12.8967 4.29937L14.2224 5.625H4.10485ZM22.1199 15.5081L16.1536 19.2019C15.6474 19.5131 14.9986 19.1344 14.9986 18.5044V17.0625C14.9986 17.0625 10.178 16.5 7.4986 21.5625C8.56923 12.5625 13.3917 12.5625 14.9986 12.5625V11.1206C14.9986 10.4906 15.6474 10.1119 16.1536 10.425L22.1199 14.1169C22.6261 14.4281 22.6261 15.1969 22.1199 15.5081Z" fill="#0A77DB"/>
</g>
<defs>
<clipPath id="clip0_13266_15599">
<rect width="30" height="30" fill="white" transform="translate(-0.00146484)"/>
</clipPath>
</defs>
</svg>
