<svg width="30" height="30" viewBox="0 0 30 30" fill="none" xmlns="http://www.w3.org/2000/svg">
<g clip-path="url(#clip0_13266_15607)">
<path fill-rule="evenodd" clip-rule="evenodd" d="M13.1235 26.25C13.1235 26.25 11.2485 26.25 11.2485 24.375C11.2485 22.5 13.1235 16.875 20.6235 16.875C28.1235 16.875 29.9985 22.5 29.9985 24.375C29.9985 26.25 28.1235 26.25 28.1235 26.25H13.1235ZM20.6235 15C22.1154 15 23.5461 14.4074 24.601 13.3525C25.6559 12.2976 26.2485 10.8668 26.2485 9.375C26.2485 7.88316 25.6559 6.45242 24.601 5.39752C23.5461 4.34263 22.1154 3.75 20.6235 3.75C19.1317 3.75 17.701 4.34263 16.6461 5.39752C15.5912 6.45242 14.9985 7.88316 14.9985 9.375C14.9985 10.8668 15.5912 12.2976 16.6461 13.3525C17.701 14.4074 19.1317 15 20.6235 15Z" fill="#0A77DB"/>
<path d="M11.7506 13.6271C10.8715 14.5061 9.67924 15 8.43604 15C7.19283 15 6.00055 14.5061 5.12147 13.6271C4.2424 12.748 3.74854 11.5557 3.74854 10.3125C3.74854 9.0693 4.2424 7.87701 5.12147 6.99794C6.00055 6.11886 7.19283 5.625 8.43604 5.625C9.67924 5.625 10.8715 6.11886 11.7506 6.99794C12.6297 7.87701 13.1235 9.0693 13.1235 10.3125C13.1235 11.5557 12.6297 12.748 11.7506 13.6271Z" fill="#0A77DB" fill-opacity="0.6"/>
<path d="M9.37354 24.3748C9.36195 25.0227 9.50058 25.6645 9.77853 26.2498H1.87354C1.87354 26.2498 -0.00146484 26.2498 -0.00146484 24.3748C-0.00146484 22.4998 1.87354 16.8748 9.37354 16.8748C10.6034 16.8605 11.8281 17.0376 13.0035 17.3998C10.6485 19.2186 9.37354 21.8342 9.37354 24.3748Z" fill="#0A77DB" fill-opacity="0.6"/>
</g>
<defs>
<clipPath id="clip0_13266_15607">
<rect width="30" height="30" fill="white" transform="translate(-0.00146484)"/>
</clipPath>
</defs>
</svg>
