<svg width="32" height="32" viewBox="0 0 32 32" fill="none" xmlns="http://www.w3.org/2000/svg">
<path d="M4.26686 7.4668C3.6898 7.46573 3.2002 7.92867 3.2002 8.52813V20.0449C3.2002 20.5724 3.5858 21.0204 4.10686 21.0999L13.8669 22.5783V25.5932C12.4178 25.3025 11.2306 25.0668 11.2002 25.0668C10.6114 25.0668 10.1335 25.902 10.1335 26.9335C10.1335 27.9649 10.629 28.6572 11.2002 28.8001C12.5693 29.1425 15.4754 29.7041 17.3826 30.0625C17.1837 29.6172 17.0669 29.0951 17.0669 28.5335C17.0669 27.6785 17.3346 26.9121 17.7586 26.3761C17.1047 26.2439 16.293 26.0801 15.4669 25.9148V22.8209L19.5735 23.4545C19.6274 23.4625 19.6807 23.4668 19.7335 23.4668C20.3127 23.4679 20.8002 22.998 20.8002 22.4001V13.3276C20.8002 12.8028 20.4183 12.3559 19.8999 12.2737L11.2658 10.9233C10.8946 10.8647 10.5815 10.6145 10.4418 10.2657L9.82313 8.7196C9.68446 8.374 9.37566 8.12493 9.0082 8.06413L4.4418 7.48173C4.38313 7.4716 4.32393 7.4668 4.26686 7.4668Z" fill="white"/>
<path opacity="0.6" d="M7.99977 4.2666C7.42271 4.26554 6.93311 4.73434 6.93311 5.33327V6.49594L9.40617 6.785C10.1832 6.87674 10.8472 7.38554 11.1379 8.1114L11.6195 9.3162C11.6899 9.49167 11.8483 9.617 12.0355 9.64527L20.5827 10.9274C21.627 11.0842 22.3998 11.9813 22.3998 13.0373V21.1823L23.3064 21.3205C23.3603 21.329 23.4136 21.3333 23.4664 21.3333C24.0456 21.3343 24.5331 20.8645 24.5331 20.2666V10.1205C24.5331 9.59567 24.1512 9.14874 23.6328 9.0666L14.6403 7.729C14.2696 7.67034 13.956 7.42074 13.8163 7.0714L13.1976 5.52527C13.0595 5.17967 12.7507 4.9306 12.3832 4.8698L8.17471 4.28154C8.11604 4.2714 8.05684 4.2666 7.99977 4.2666Z" fill="white"/>
<path d="M27.0399 20.2545C27.0938 20.2625 27.1471 20.2668 27.1999 20.2668C27.7791 20.2678 28.2666 19.798 28.2666 19.2001V7.46677C28.2666 6.94197 27.8847 6.49503 27.3663 6.4129L19.4405 5.0625C19.0698 5.00383 18.7562 4.75423 18.6165 4.4049L17.9978 2.85877C17.8597 2.51317 17.5509 2.2641 17.1834 2.2033L13.5082 1.61503C13.4495 1.6049 13.3903 1.6001 13.3333 1.6001C12.7562 1.59903 12.2666 2.06783 12.2666 2.66677V3.48223L13.1397 3.58463C13.9167 3.67637 14.5807 4.18517 14.8714 4.91103L15.353 6.11583C15.4234 6.2913 15.5818 6.41663 15.769 6.4449L24.3162 7.72703C25.3605 7.88437 26.1333 8.78143 26.1333 9.83743V20.1148L27.0399 20.2545Z" fill="white"/>
<path d="M19.2 30.3998C19.7891 30.3998 20.2666 29.5641 20.2666 28.5332C20.2666 27.5022 19.7891 26.6665 19.2 26.6665C18.6109 26.6665 18.1333 27.5022 18.1333 28.5332C18.1333 29.5641 18.6109 30.3998 19.2 30.3998Z" fill="white"/>
<path d="M7.46657 27.2002C8.05567 27.2002 8.53324 26.7227 8.53324 26.1336C8.53324 25.5445 8.05567 25.0669 7.46657 25.0669C6.87747 25.0669 6.3999 25.5445 6.3999 26.1336C6.3999 26.7227 6.87747 27.2002 7.46657 27.2002Z" fill="white"/>
<path d="M22.9334 30.3999C23.5225 30.3999 24 29.9224 24 29.3333C24 28.7442 23.5225 28.2666 22.9334 28.2666C22.3443 28.2666 21.8667 28.7442 21.8667 29.3333C21.8667 29.9224 22.3443 30.3999 22.9334 30.3999Z" fill="white"/>
</svg>
