<svg width="30" height="30" viewBox="0 0 30 30" fill="none" xmlns="http://www.w3.org/2000/svg">
<path d="M27.7897 18.2669L25.4346 16.9185C25.6723 15.6468 25.6723 14.3422 25.4346 13.0706L27.7897 11.7222C28.0606 11.5687 28.1822 11.2508 28.0938 10.9548C27.4801 9.00343 26.4353 7.23844 25.0697 5.76944C24.8597 5.54471 24.5169 5.48989 24.2515 5.64337L21.8964 6.99178C20.9069 6.14765 19.768 5.49537 18.5352 5.06783V2.3765C18.5352 2.06954 18.3196 1.80096 18.0155 1.73518C15.9866 1.28571 13.9079 1.30764 11.9785 1.73518C11.6744 1.80096 11.4588 2.06954 11.4588 2.3765V5.07331C10.2315 5.50634 9.09267 6.15861 8.09755 6.99726L5.74798 5.64885C5.47709 5.49537 5.13986 5.54471 4.92978 5.77492C3.56426 7.23844 2.5194 9.00342 1.90574 10.9603C1.81176 11.2563 1.93891 11.5742 2.20981 11.7276L4.56491 13.0761C4.32718 14.3477 4.32718 15.6523 4.56491 16.9239L2.20981 18.2724C1.93891 18.4258 1.81729 18.7437 1.90574 19.0397C2.5194 20.9911 3.56426 22.7561 4.92978 24.2251C5.13986 24.4498 5.48262 24.5046 5.74798 24.3512L8.10308 23.0027C9.09267 23.8469 10.2315 24.4991 11.4644 24.9267V27.6235C11.4644 27.9305 11.68 28.199 11.984 28.2648C14.0129 28.7143 16.0916 28.6924 18.021 28.2648C18.3251 28.199 18.5407 27.9305 18.5407 27.6235V24.9267C19.768 24.4937 20.9069 23.8414 21.902 23.0027L24.2571 24.3512C24.528 24.5046 24.8652 24.4553 25.0753 24.2251C26.4408 22.7616 27.4857 20.9966 28.0993 19.0397C28.1822 18.7383 28.0606 18.4204 27.7897 18.2669ZM14.997 19.3796C12.559 19.3796 10.5743 17.4118 10.5743 14.9945C10.5743 12.5773 12.559 10.6095 14.997 10.6095C17.435 10.6095 19.4197 12.5773 19.4197 14.9945C19.4197 17.4118 17.435 19.3796 14.997 19.3796Z" fill="#0A77DB"/>
</svg>
