<svg width="31" height="31" viewBox="0 0 31 31" fill="none" xmlns="http://www.w3.org/2000/svg">
<path fill-rule="evenodd" clip-rule="evenodd" d="M11.611 0.916016H23.2181C24.4495 0.916016 25.6304 1.36755 26.5011 2.17127C27.3718 2.975 27.861 4.06509 27.861 5.20173V7.12291C27.0564 7.12301 26.2778 7.23012 25.5395 7.43031V5.20173C25.5395 4.63341 25.295 4.08836 24.8596 3.6865C24.4243 3.28464 23.8338 3.05887 23.2181 3.05887H11.611V0.916016ZM25.5395 23.3672V26.6303C25.5395 27.1986 25.295 27.7437 24.8596 28.1455C24.4243 28.5474 23.8338 28.7732 23.2181 28.7732H4.64675C4.03107 28.7732 3.44061 28.5474 3.00526 28.1455C2.5699 27.7437 2.32533 27.1986 2.32533 26.6303V11.6303H0.00390625V26.6303C0.00390625 27.7669 0.493061 28.857 1.36376 29.6608C2.23447 30.4645 3.41539 30.916 4.64675 30.916H23.2181C24.4495 30.916 25.6304 30.4645 26.5011 29.6608C27.3718 28.857 27.861 27.7669 27.861 26.6303V23.6746C27.0564 23.6745 26.2778 23.5674 25.5395 23.3672Z" fill="#0A77DB"/>
<path d="M11.0039 7.91602V0.916016L0.00390601 10.916H7.70391C8.57912 10.916 9.41849 10.5999 10.0374 10.0373C10.6562 9.47473 11.0039 8.71167 11.0039 7.91602Z" fill="#0A77DB"/>
<g clip-path="url(#clip0_9763_25969)">
<path d="M9.50494 17.1518C9.77154 17.3514 9.7933 17.6927 9.55119 17.9145L7.59358 19.7153C7.47361 19.8233 7.3044 19.8886 7.12539 19.8728C6.94639 19.8976 6.77337 19.8391 6.6466 19.7153L5.55841 18.8154C5.30345 18.6242 5.30345 18.2822 5.55841 18.0714C5.81334 17.8606 6.22684 17.8606 6.48174 18.0714L7.08323 18.5679L8.58272 17.1919C8.82212 16.9703 9.23562 16.9523 9.50494 17.1518ZM9.50494 20.7525C9.77154 20.9505 9.7933 21.2925 9.55119 21.5152L7.59358 23.3151C7.47361 23.4231 7.3044 23.4883 7.12539 23.4726C6.94639 23.4973 6.77337 23.4388 6.6466 23.3151L5.55841 22.4151C5.30345 22.2239 5.30345 21.8819 5.55841 21.6704C5.81334 21.4612 6.22684 21.4612 6.48174 21.6704L7.08323 22.1677L8.58272 20.7908C8.82212 20.5703 9.23562 20.5523 9.50494 20.7525ZM11.4609 18.4532C11.4609 18.0556 11.8499 17.7332 12.3315 17.7332H18.4252C18.9067 17.7332 19.2957 18.0556 19.2957 18.4532C19.2957 18.8514 18.9067 19.1731 18.4252 19.1731H12.3315C11.8499 19.1731 11.4609 18.8514 11.4609 18.4532ZM11.4609 22.0529C11.4609 21.6547 11.8499 21.333 12.3315 21.333H18.4252C18.9067 21.333 19.2957 21.6547 19.2957 22.0529C19.2957 22.4511 18.9067 22.7729 18.4252 22.7729H12.3315C11.8499 22.7729 11.4609 22.4511 11.4609 22.0529ZM9.71985 25.6527C9.71985 25.2545 10.1089 24.9327 10.5904 24.9327H18.4252C18.9067 24.9327 19.2957 25.2545 19.2957 25.6527C19.2957 26.0509 18.9067 26.3726 18.4252 26.3726H10.5904C10.1089 26.3726 9.71985 26.0509 9.71985 25.6527ZM5.36719 25.6527C5.36719 25.0565 5.9518 24.5728 6.67299 24.5728C7.39417 24.5728 7.97879 25.0565 7.97879 25.6527C7.97879 26.2489 7.39417 26.7326 6.67299 26.7326C5.9518 26.7326 5.36719 26.2489 5.36719 25.6527Z" fill="#0A77DB"/>
</g>
<g clip-path="url(#clip1_9763_25969)">
<path fill-rule="evenodd" clip-rule="evenodd" d="M21.9587 21.6606C23.909 21.6606 25.7794 20.9848 27.1585 19.7819C28.5375 18.579 29.3123 16.9476 29.3123 15.2464C29.3123 13.5453 28.5375 11.9139 27.1585 10.711C25.7794 9.50809 23.909 8.83232 21.9587 8.83232C20.0084 8.83232 18.138 9.50809 16.759 10.711C15.3799 11.9139 14.6052 13.5453 14.6052 15.2464C14.6052 15.2464 17.0564 17.3845 21.9587 21.6606ZM30.3628 15.2464C30.3628 17.1906 29.4773 19.0551 27.9013 20.4298C26.3252 21.8046 24.1876 22.5769 21.9587 22.5769V21.6606L20.7331 20.5915L19.5075 19.5225L17.0564 17.3845L15.6557 16.1627L14.6052 15.2464H13.5547C13.5547 13.3023 14.4401 11.4378 16.0162 10.063C17.5922 8.68833 19.7298 7.91602 21.9587 7.91602C24.1876 7.91602 26.3252 8.68833 27.9013 10.063C29.4773 11.4378 30.3628 13.3023 30.3628 15.2464Z" fill="#0A77DB" fill-opacity="0.5"/>
<path fill-rule="evenodd" clip-rule="evenodd" d="M21.0839 10.665C21.2232 10.665 21.3568 10.7133 21.4553 10.7992C21.5538 10.8851 21.6092 11.0017 21.6092 11.1232V15.8971L25.0214 17.5978C25.1389 17.6596 25.224 17.759 25.2585 17.8748C25.293 17.9906 25.2742 18.1135 25.2062 18.2174C25.1381 18.3213 25.0262 18.3978 24.8943 18.4306C24.7624 18.4635 24.621 18.45 24.5003 18.3931L20.8233 16.5605C20.7429 16.5205 20.6761 16.4626 20.6296 16.3928C20.5831 16.3229 20.5586 16.2436 20.5586 16.1629V11.1232C20.5586 11.0017 20.6139 10.8851 20.7124 10.7992C20.811 10.7133 20.9446 10.665 21.0839 10.665V10.665Z" fill="#0A77DB" fill-opacity="0.7"/>
</g>
<defs>
<clipPath id="clip0_9763_25969">
<rect width="13.9285" height="11.5192" fill="white" transform="translate(5.36719 16.2935)"/>
</clipPath>
<clipPath id="clip1_9763_25969">
<rect width="16.8081" height="14.6609" fill="white" transform="translate(13.2031 7.91602)"/>
</clipPath>
</defs>
</svg>
