<svg width="34" height="32" viewBox="0 0 34 32" fill="none" xmlns="http://www.w3.org/2000/svg">
<g clip-path="url(#clip0_9538_98887)">
<mask id="mask0_9538_98887" style="mask-type:luminance" maskUnits="userSpaceOnUse" x="-5" y="0" width="34" height="32">
<rect width="30" height="32" transform="matrix(1 0 0.102441 0.994739 -5 0)" fill="white"/>
</mask>
<g mask="url(#mask0_9538_98887)">
<path d="M12.6608 5.70314C12.4855 5.09304 11.9266 4.64209 11.3266 4.64209L2.35156 4.64209C1.66406 4.64209 1.16303 5.23893 1.23815 5.96841L3.28697 25.8632C3.3621 26.5927 3.98606 27.1895 4.67356 27.1895C5.36106 27.1895 5.8621 26.5927 5.78697 25.8632L4.96744 17.9053H11.9674L12.4314 19.4969C12.608 20.1202 13.1656 20.5579 13.7656 20.5579H20.2406C20.9281 20.5579 21.4292 19.9611 21.354 19.2316L20.2613 8.62105C20.1862 7.89157 19.5622 7.29473 18.8747 7.29473L13.1247 7.29473L12.6608 5.70314Z" fill="#0A77DB"/>
</g>
<circle cx="24" cy="25" r="9" fill="white"/>
<path d="M17.8465 22.8036L15.168 25.2144L22.668 30.0358L30.168 18.4644L21.5965 26.1786L17.8465 22.8036Z" fill="#FF003D"/>
</g>
<defs>
<clipPath id="clip0_9538_98887">
<rect width="30" height="32" fill="white" transform="matrix(1 0 0.102441 0.994739 0 0)"/>
</clipPath>
</defs>
</svg>
