<svg width="30" height="31" viewBox="0 0 30 31" fill="none" xmlns="http://www.w3.org/2000/svg">
<g clip-path="url(#clip0_9538_98843)">
<path opacity="0.5" d="M6.25 19.667L10 12.167L13.75 19.667L10 17.167L6.25 19.667Z" fill="#0A77DB"/>
<path d="M15.3975 7.5065L13.75 0.916504H6.25L4.6025 7.5065C1.83625 9.28525 0 12.384 0 15.9165C0 19.4503 1.83625 22.5478 4.6025 24.3265L6.25 30.9165H13.75L15.3975 24.3265C18.1638 22.5478 20 19.4503 20 15.9165C20 12.384 18.1638 9.28525 15.3975 7.5065ZM10 23.4165C5.85875 23.4165 2.5 20.0578 2.5 15.9165C2.5 11.7753 5.85875 8.4165 10 8.4165C14.1412 8.4165 17.5 11.7753 17.5 15.9165C17.5 20.0578 14.1412 23.4165 10 23.4165Z" fill="#0A77DB"/>
<circle cx="24" cy="25.916" r="9" fill="white"/>
<path d="M17.8465 23.7197L15.168 26.1304L22.668 30.9518L30.168 19.3804L21.5965 27.0947L17.8465 23.7197Z" fill="#FF003D"/>
</g>
<defs>
<clipPath id="clip0_9538_98843">
<rect width="30" height="30" fill="white" transform="translate(0 0.916016)"/>
</clipPath>
</defs>
</svg>
