<svg width="34" height="32" viewBox="0 0 34 32" fill="none" xmlns="http://www.w3.org/2000/svg">
<mask id="mask0_9538_98799" style="mask-type:luminance" maskUnits="userSpaceOnUse" x="0" y="0" width="34" height="32">
<rect width="30" height="32" transform="matrix(1 0 0.102441 0.994739 0 0)" fill="white"/>
</mask>
<g mask="url(#mask0_9538_98799)">
<path d="M17.6608 5.70314C17.4855 5.09304 16.9266 4.64209 16.3266 4.64209L7.35156 4.64209C6.66406 4.64209 6.16303 5.23893 6.23815 5.96841L8.28697 25.8632C8.3621 26.5927 8.98606 27.1895 9.67356 27.1895C10.3611 27.1895 10.8621 26.5927 10.787 25.8632L9.96744 17.9053H16.9674L17.4314 19.4969C17.608 20.1202 18.1656 20.5579 18.7656 20.5579H25.2406C25.9281 20.5579 26.4292 19.9611 26.354 19.2316L25.2613 8.62105C25.1862 7.89157 24.5622 7.29473 23.8747 7.29473L18.1247 7.29473L17.6608 5.70314Z" fill="#0A77DB"/>
</g>
</svg>
