<svg width="37" height="33" viewBox="0 0 37 33" fill="none" xmlns="http://www.w3.org/2000/svg">
<g clip-path="url(#clip0_9538_98925)">
<path d="M24.2891 4.24951H25.9524V5.08284H24.2891V4.24951Z" fill="#66757F"/>
<path d="M1.94531 10.916V27.5827C1.94531 29.4235 3.43781 30.916 5.27865 30.916H25.2786C27.1195 30.916 28.612 29.4235 28.612 27.5827V10.916H1.94531Z" fill="#0A77DB" fill-opacity="0.5"/>
<path d="M25.2786 4.24951H5.27865C3.43781 4.24951 1.94531 5.74201 1.94531 7.58284V11.7495H28.612V7.58284C28.612 5.74201 27.1195 4.24951 25.2786 4.24951Z" fill="#0A77DB"/>
<path d="M7.6412 8.19163C7.0562 8.19163 6.58203 7.63663 6.58203 6.95079C6.58203 6.26579 7.0562 5.70996 7.6412 5.70996C8.22536 5.70996 8.69953 6.26579 8.69953 6.95079C8.69953 7.63579 8.22536 8.19163 7.6412 8.19163ZM12.6412 8.19163C12.0562 8.19163 11.582 7.63663 11.582 6.95079C11.582 6.26579 12.0562 5.70996 12.6412 5.70996C13.2254 5.70996 13.6995 6.26579 13.6995 6.95079C13.6995 7.63579 13.2254 8.19163 12.6412 8.19163V8.19163ZM17.6412 8.19163C17.0562 8.19163 16.582 7.63663 16.582 6.95079C16.582 6.26579 17.0562 5.70996 17.6412 5.70996C18.2254 5.70996 18.7004 6.26579 18.7004 6.95079C18.6995 7.63579 18.2254 8.19163 17.6412 8.19163ZM22.6412 8.19163C22.0562 8.19163 21.582 7.63663 21.582 6.95079C21.582 6.26579 22.0562 5.70996 22.6412 5.70996C23.2254 5.70996 23.7004 6.26579 23.7004 6.95079C23.6995 7.63579 23.2254 8.19163 22.6412 8.19163Z" fill="#292F33"/>
<path d="M23.0417 1.06494C21.9775 1.06494 21.0558 1.73327 20.5467 2.70661C20.0417 1.75411 19.1158 1.06494 18.0417 1.06494C16.9775 1.06494 16.0558 1.73327 15.5467 2.70661C15.0417 1.75411 14.1158 1.06494 13.0417 1.06494C11.9775 1.06494 11.0558 1.73327 10.5467 2.70661C10.0417 1.75411 9.11583 1.06494 8.04167 1.06494C6.43 1.06494 5.125 2.58077 5.125 4.40244C5.125 5.94744 5.99583 7.21161 7.26583 7.67411C7.89833 7.90327 8.28583 7.30161 8.23167 6.81911C8.18583 6.41911 7.92 6.15828 7.62417 5.97078C7.22 5.71494 6.79083 5.13078 6.79083 4.40661C6.79083 3.48661 7.35 2.66077 8.04083 2.66077C8.73167 2.66077 9.29083 3.41494 9.29083 4.24828H10.1375C10.135 4.29994 10.1242 4.34911 10.1242 4.40161C10.1242 5.94661 10.995 7.21078 12.265 7.67328C12.8975 7.90244 13.285 7.30078 13.2308 6.81828C13.185 6.41911 12.9192 6.15828 12.6233 5.97078C12.2192 5.71494 11.79 5.13078 11.79 4.40661C11.79 3.48661 12.3492 2.66077 13.04 2.66077C13.7308 2.66077 14.2917 3.41577 14.2917 4.24911H15.1383C15.1358 4.30077 15.125 4.34994 15.125 4.40244C15.125 5.94744 15.9958 7.21161 17.2658 7.67411C17.8983 7.90327 18.2858 7.30161 18.2317 6.81911C18.1858 6.41994 17.92 6.15911 17.6242 5.97161C17.22 5.71577 16.7908 5.13161 16.7908 4.40744C16.7908 3.48744 17.35 2.66161 18.0408 2.66161C18.7317 2.66161 19.2917 3.41577 19.2917 4.24911H20.1383C20.1358 4.30077 20.125 4.34994 20.125 4.40244C20.125 5.94744 20.9958 7.21161 22.2658 7.67411C22.8983 7.90327 23.2858 7.30161 23.2317 6.81911C23.1858 6.41994 22.92 6.15911 22.6242 5.97161C22.22 5.71577 21.7908 5.13161 21.7908 4.40744C21.7908 3.48744 22.35 2.66161 23.0408 2.66161C23.7317 2.66161 24.2917 3.41577 24.2917 4.24911H25.955C25.9375 2.58244 24.6417 1.06494 23.0417 1.06494Z" fill="#66757F"/>
<path d="M9.44401 13.416H12.7773V16.7493H9.44401V13.416ZM13.6107 13.416H16.944V16.7493H13.6107V13.416ZM17.7773 13.416H21.1107V16.7493H17.7773V13.416ZM21.944 13.416H25.2773V16.7493H21.944V13.416ZM5.27734 17.5827H8.61068V20.916H5.27734V17.5827ZM9.44401 17.5827H12.7773V20.916H9.44401V17.5827ZM13.6107 17.5827H16.944V20.916H13.6107V17.5827ZM17.7773 17.5827H21.1107V20.916H17.7773V17.5827ZM21.944 17.5827H25.2773V20.916H21.944V17.5827ZM5.27734 21.7493H8.61068V25.0827H5.27734V21.7493ZM9.44401 21.7493H12.7773V25.0827H9.44401V21.7493ZM13.6107 21.7493H16.944V25.0827H13.6107V21.7493ZM17.7773 21.7493H21.1107V25.0827H17.7773V21.7493ZM21.944 21.7493H25.2773V25.0827H21.944V21.7493ZM5.27734 25.916H8.61068V29.2493H5.27734V25.916ZM9.44401 25.916H12.7773V29.2493H9.44401V25.916ZM13.6107 25.916H16.944V29.2493H13.6107V25.916Z" fill="white"/>
</g>
<g clip-path="url(#clip1_9538_98925)">
<rect x="16.2773" y="12.916" width="20" height="20" rx="5" fill="white"/>
<path d="M19.6094 18.7493H32.9427V20.416H19.6094V18.7493ZM19.6094 23.7493H32.9427V22.0827H19.6094V23.7493ZM19.6094 27.0827H25.4427V25.416H19.6094V27.0827ZM19.6094 30.416H25.4427V28.7493H19.6094V30.416ZM29.1177 28.0577L27.9427 26.8743L26.7677 28.0493L29.1177 30.416L32.9427 26.5993L31.7594 25.416L29.1177 28.0577ZM19.6094 15.416V17.0827H32.9427V15.416H19.6094Z" fill="#FF003D" fill-opacity="0.6"/>
</g>
<defs>
<clipPath id="clip0_9538_98925">
<rect width="30" height="30" fill="white" transform="translate(0.277344 0.916016)"/>
</clipPath>
<clipPath id="clip1_9538_98925">
<rect x="16.2773" y="12.916" width="20" height="20" rx="5" fill="white"/>
</clipPath>
</defs>
</svg>
