<svg width="30" height="31" viewBox="0 0 30 31" fill="none" xmlns="http://www.w3.org/2000/svg">
<g clip-path="url(#clip0_9538_98792)">
<path opacity="0.5" d="M11.25 19.667L15 12.167L18.75 19.667L15 17.167L11.25 19.667Z" fill="#0A77DB"/>
<path d="M20.3975 7.5065L18.75 0.916504H11.25L9.6025 7.5065C6.83625 9.28525 5 12.384 5 15.9165C5 19.4503 6.83625 22.5478 9.6025 24.3265L11.25 30.9165H18.75L20.3975 24.3265C23.1638 22.5478 25 19.4503 25 15.9165C25 12.384 23.1638 9.28525 20.3975 7.5065ZM15 23.4165C10.8588 23.4165 7.5 20.0578 7.5 15.9165C7.5 11.7753 10.8588 8.4165 15 8.4165C19.1412 8.4165 22.5 11.7753 22.5 15.9165C22.5 20.0578 19.1412 23.4165 15 23.4165Z" fill="#0A77DB"/>
</g>
<defs>
<clipPath id="clip0_9538_98792">
<rect width="30" height="30" fill="white" transform="translate(0 0.916016)"/>
</clipPath>
</defs>
</svg>
